<?xml version="1.0" encoding="UTF-8" standalone="no"?>
<!DOCTYPE svg PUBLIC "-//W3C//DTD SVG 1.1//EN"
 "http://www.w3.org/Graphics/SVG/1.1/DTD/svg11.dtd">
<!-- Generated by graphviz version 14.1.5 (20260411.2331)
 -->
<!-- Title: InfoVisJ.1558.9(2).png_pure_genome Pages: 1 -->
<svg width="1027pt" height="469pt"
 viewBox="0.00 0.00 1027.00 469.00" xmlns="http://www.w3.org/2000/svg" xmlns:xlink="http://www.w3.org/1999/xlink">
<g id="graph0" class="graph" transform="scale(2.08333 2.08333) rotate(0) translate(4 221)">
<title>InfoVisJ.1558.9(2).png_pure_genome</title>
<polygon fill="white" stroke="none" points="-4,4 -4,-221 488.75,-221 488.75,4 -4,4"/>
<text xml:space="preserve" text-anchor="start" x="47" y="-197.65" font-family="Arial" font-size="10.00"> &#160;&#160;&#160;&#160;&#160;</text>
<text xml:space="preserve" text-anchor="start" x="65" y="-197.65" font-family="Arial" font-weight="bold" font-size="13.00">InfoVisJ.1558.9(2).png — pure&#45;genome &#160;[Glyph &#160;VC=0.61]</text>
<text xml:space="preserve" text-anchor="start" x="425.75" y="-197.65" font-family="Arial" font-size="10.00"> &#160;&#160;&#160;</text>
<path fill="#b8e6b8" stroke="none" d="M51,-172C51,-172 85.38,-172 85.38,-172 88.38,-172 91.38,-175 91.38,-178 91.38,-178 91.38,-184 91.38,-184 91.38,-187 88.38,-190 85.38,-190 85.38,-190 51,-190 51,-190 48,-190 45,-187 45,-184 45,-184 45,-178 45,-178 45,-175 48,-172 51,-172"/>
<path fill="none" stroke="black" d="M51,-172C51,-172 85.38,-172 85.38,-172 88.38,-172 91.38,-175 91.38,-178 91.38,-178 91.38,-184 91.38,-184 91.38,-187 88.38,-190 85.38,-190 85.38,-190 51,-190 51,-190 48,-190 45,-187 45,-184 45,-184 45,-178 45,-178 45,-175 48,-172 51,-172"/>
<text xml:space="preserve" text-anchor="start" x="66.69" y="-177.25" font-family="Arial" font-size="10.00"> </text>
<text xml:space="preserve" text-anchor="start" x="108.56" y="-177.25" font-family="Arial" font-size="10.00">Object (region)</text>
<path fill="#b8d4f0" stroke="none" d="M195.5,-172C195.5,-172 229.88,-172 229.88,-172 232.88,-172 235.88,-175 235.88,-178 235.88,-178 235.88,-184 235.88,-184 235.88,-187 232.88,-190 229.88,-190 229.88,-190 195.5,-190 195.5,-190 192.5,-190 189.5,-187 189.5,-184 189.5,-184 189.5,-178 189.5,-178 189.5,-175 192.5,-172 195.5,-172"/>
<path fill="none" stroke="black" d="M195.5,-172C195.5,-172 229.88,-172 229.88,-172 232.88,-172 235.88,-175 235.88,-178 235.88,-178 235.88,-184 235.88,-184 235.88,-187 232.88,-190 229.88,-190 229.88,-190 195.5,-190 195.5,-190 192.5,-190 189.5,-187 189.5,-184 189.5,-184 189.5,-178 189.5,-178 189.5,-175 192.5,-172 195.5,-172"/>
<text xml:space="preserve" text-anchor="start" x="211.19" y="-177.25" font-family="Arial" font-size="10.00"> </text>
<text xml:space="preserve" text-anchor="start" x="253.06" y="-177.25" font-family="Arial" font-size="10.00">Attribute</text>
<path fill="#f5b8b8" stroke="none" d="M313,-172C313,-172 347.38,-172 347.38,-172 350.38,-172 353.38,-175 353.38,-178 353.38,-178 353.38,-184 353.38,-184 353.38,-187 350.38,-190 347.38,-190 347.38,-190 313,-190 313,-190 310,-190 307,-187 307,-184 307,-184 307,-178 307,-178 307,-175 310,-172 313,-172"/>
<path fill="none" stroke="black" d="M313,-172C313,-172 347.38,-172 347.38,-172 350.38,-172 353.38,-175 353.38,-178 353.38,-178 353.38,-184 353.38,-184 353.38,-187 350.38,-190 347.38,-190 347.38,-190 313,-190 313,-190 310,-190 307,-187 307,-184 307,-184 307,-178 307,-178 307,-175 310,-172 313,-172"/>
<text xml:space="preserve" text-anchor="start" x="328.69" y="-177.25" font-family="Arial" font-size="10.00"> </text>
<text xml:space="preserve" text-anchor="start" x="370.56" y="-177.25" font-family="Arial" font-size="10.00">Relationship</text>
<!-- visualization -->
<g id="node1" class="node">
<title>visualization</title>
<path fill="#b8e6b8" stroke="#2c3e50" stroke-width="1.8" d="M307.75,-36C307.75,-36 261.75,-36 261.75,-36 255.75,-36 249.75,-30 249.75,-24 249.75,-24 249.75,-12 249.75,-12 249.75,-6 255.75,0 261.75,0 261.75,0 307.75,0 307.75,0 313.75,0 319.75,-6 319.75,-12 319.75,-12 319.75,-24 319.75,-24 319.75,-30 313.75,-36 307.75,-36"/>
<text xml:space="preserve" text-anchor="middle" x="284.75" y="-14.5" font-family="Arial" font-size="10.00" fill="#1a1a1a">visualization</text>
</g>
<!-- attr_0 -->
<g id="node3" class="node">
<title>attr_0</title>
<path fill="#b8d4f0" stroke="#5a7fa0" stroke-width="1.2" d="M472.75,-36C472.75,-36 381.75,-36 381.75,-36 375.75,-36 369.75,-30 369.75,-24 369.75,-24 369.75,-12 369.75,-12 369.75,-6 375.75,0 381.75,0 381.75,0 472.75,0 472.75,0 478.75,0 484.75,-6 484.75,-12 484.75,-12 484.75,-24 484.75,-24 484.75,-30 478.75,-36 472.75,-36"/>
<text xml:space="preserve" text-anchor="middle" x="427.25" y="-14.5" font-family="Arial" font-size="10.00" fill="#1a1a1a">extra challenge to read</text>
</g>
<!-- visualization&#45;&gt;attr_0 -->
<g id="edge1" class="edge">
<title>visualization&#45;&gt;attr_0</title>
<path fill="none" stroke="#aaaaaa" d="M320.48,-18C332.78,-18 347.04,-18 361.04,-18"/>
<polygon fill="#aaaaaa" stroke="#aaaaaa" points="360.72,-20.45 367.72,-18 360.72,-15.55 360.72,-20.45"/>
</g>
<!-- shape -->
<g id="node2" class="node">
<title>shape</title>
<path fill="#b8e6b8" stroke="#2c3e50" stroke-width="1.8" d="M52.75,-101C52.75,-101 12,-101 12,-101 6,-101 0,-95 0,-89 0,-89 0,-77 0,-77 0,-71 6,-65 12,-65 12,-65 52.75,-65 52.75,-65 58.75,-65 64.75,-71 64.75,-77 64.75,-77 64.75,-89 64.75,-89 64.75,-95 58.75,-101 52.75,-101"/>
<text xml:space="preserve" text-anchor="middle" x="32.38" y="-85.5" font-family="Arial" font-size="10.00" fill="#1a1a1a">shape</text>
<text xml:space="preserve" text-anchor="middle" x="32.38" y="-73.5" font-family="Arial" font-size="10.00" fill="#1a1a1a">(data_area)</text>
</g>
<!-- attr_1 -->
<g id="node4" class="node">
<title>attr_1</title>
<path fill="#b8d4f0" stroke="#5a7fa0" stroke-width="1.2" d="M187.75,-166C187.75,-166 126.75,-166 126.75,-166 120.75,-166 114.75,-160 114.75,-154 114.75,-154 114.75,-142 114.75,-142 114.75,-136 120.75,-130 126.75,-130 126.75,-130 187.75,-130 187.75,-130 193.75,-130 199.75,-136 199.75,-142 199.75,-142 199.75,-154 199.75,-154 199.75,-160 193.75,-166 187.75,-166"/>
<text xml:space="preserve" text-anchor="middle" x="157.25" y="-144.5" font-family="Arial" font-size="10.00" fill="#1a1a1a">different shapes</text>
</g>
<!-- shape&#45;&gt;attr_1 -->
<g id="edge2" class="edge">
<title>shape&#45;&gt;attr_1</title>
<path fill="none" stroke="#aaaaaa" d="M65.34,-99.91C80.26,-107.8 98.22,-117.3 114.23,-125.77"/>
<polygon fill="#aaaaaa" stroke="#aaaaaa" points="112.75,-127.76 120.09,-128.87 115.05,-123.43 112.75,-127.76"/>
</g>
<!-- attr_2 -->
<g id="node5" class="node">
<title>attr_2</title>
<path fill="#b8d4f0" stroke="#5a7fa0" stroke-width="1.2" d="M172.25,-101C172.25,-101 142.25,-101 142.25,-101 136.25,-101 130.25,-95 130.25,-89 130.25,-89 130.25,-77 130.25,-77 130.25,-71 136.25,-65 142.25,-65 142.25,-65 172.25,-65 172.25,-65 178.25,-65 184.25,-71 184.25,-77 184.25,-77 184.25,-89 184.25,-89 184.25,-95 178.25,-101 172.25,-101"/>
<text xml:space="preserve" text-anchor="middle" x="157.25" y="-79.5" font-family="Arial" font-size="10.00" fill="#1a1a1a">irregular</text>
</g>
<!-- shape&#45;&gt;attr_2 -->
<g id="edge3" class="edge">
<title>shape&#45;&gt;attr_2</title>
<path fill="none" stroke="#aaaaaa" d="M65.34,-83C82.57,-83 103.86,-83 121.5,-83"/>
<polygon fill="#aaaaaa" stroke="#aaaaaa" points="121.32,-85.45 128.32,-83 121.32,-80.55 121.32,-85.45"/>
</g>
<!-- rel_0 -->
<g id="node6" class="node">
<title>rel_0</title>
<path fill="#f5b8b8" stroke="#d46a6a" stroke-width="1.2" d="M172.25,-36C172.25,-36 142.25,-36 142.25,-36 136.25,-36 130.25,-30 130.25,-24 130.25,-24 130.25,-12 130.25,-12 130.25,-6 136.25,0 142.25,0 142.25,0 172.25,0 172.25,0 178.25,0 184.25,-6 184.25,-12 184.25,-12 184.25,-24 184.25,-24 184.25,-30 178.25,-36 172.25,-36"/>
<text xml:space="preserve" text-anchor="middle" x="157.25" y="-14.5" font-family="Arial" font-size="10.00" fill="#8b0000">confuse</text>
</g>
<!-- shape&#45;&gt;rel_0 -->
<g id="edge4" class="edge">
<title>shape&#45;&gt;rel_0</title>
<path fill="none" stroke="#d46a6a" stroke-width="1.5" d="M65.34,-66.09C82.41,-57.06 103.47,-45.92 121.02,-36.64"/>
<polygon fill="#d46a6a" stroke="#d46a6a" stroke-width="1.5" points="122.07,-39.25 127.83,-33.04 119.45,-34.3 122.07,-39.25"/>
</g>
<!-- rel_0&#45;&gt;visualization -->
<g id="edge5" class="edge">
<title>rel_0&#45;&gt;visualization</title>
<path fill="none" stroke="#d46a6a" stroke-width="1.5" d="M184.56,-18C199.67,-18 219.1,-18 236.74,-18"/>
<polygon fill="#d46a6a" stroke="#d46a6a" stroke-width="1.5" points="236.63,-21.5 246.63,-18 236.63,-14.5 236.63,-21.5"/>
</g>
</g>
</svg>
