<?xml version="1.0" encoding="UTF-8" standalone="no"?>
<!DOCTYPE svg PUBLIC "-//W3C//DTD SVG 1.1//EN"
 "http://www.w3.org/Graphics/SVG/1.1/DTD/svg11.dtd">
<!-- Generated by graphviz version 14.1.5 (20260411.2331)
 -->
<!-- Title: SciVisJ.797.11(3).png_pure_genome Pages: 1 -->
<svg width="870pt" height="198pt"
 viewBox="0.00 0.00 870.00 198.00" xmlns="http://www.w3.org/2000/svg" xmlns:xlink="http://www.w3.org/1999/xlink">
<g id="graph0" class="graph" transform="scale(2.08333 2.08333) rotate(0) translate(4 91)">
<title>SciVisJ.797.11(3).png_pure_genome</title>
<polygon fill="white" stroke="none" points="-4,4 -4,-91 413.5,-91 413.5,4 -4,4"/>
<text xml:space="preserve" text-anchor="start" x="12" y="-67.65" font-family="Arial" font-size="10.00"> &#160;&#160;&#160;&#160;&#160;</text>
<text xml:space="preserve" text-anchor="start" x="30" y="-67.65" font-family="Arial" font-weight="bold" font-size="13.00">SciVisJ.797.11(3).png — pure&#45;genome &#160;[Glyph &#160;VC=0.65]</text>
<text xml:space="preserve" text-anchor="start" x="385.5" y="-67.65" font-family="Arial" font-size="10.00"> &#160;&#160;&#160;</text>
<path fill="#b8e6b8" stroke="none" d="M16,-42C16,-42 49.5,-42 49.5,-42 52.5,-42 55.5,-45 55.5,-48 55.5,-48 55.5,-54 55.5,-54 55.5,-57 52.5,-60 49.5,-60 49.5,-60 16,-60 16,-60 13,-60 10,-57 10,-54 10,-54 10,-48 10,-48 10,-45 13,-42 16,-42"/>
<path fill="none" stroke="black" d="M16,-42C16,-42 49.5,-42 49.5,-42 52.5,-42 55.5,-45 55.5,-48 55.5,-48 55.5,-54 55.5,-54 55.5,-57 52.5,-60 49.5,-60 49.5,-60 16,-60 16,-60 13,-60 10,-57 10,-54 10,-54 10,-48 10,-48 10,-45 13,-42 16,-42"/>
<text xml:space="preserve" text-anchor="start" x="31.25" y="-47.25" font-family="Arial" font-size="10.00"> </text>
<text xml:space="preserve" text-anchor="start" x="72.25" y="-47.25" font-family="Arial" font-size="10.00">Object (region)</text>
<path fill="#b8d4f0" stroke="none" d="M158.75,-42C158.75,-42 192.25,-42 192.25,-42 195.25,-42 198.25,-45 198.25,-48 198.25,-48 198.25,-54 198.25,-54 198.25,-57 195.25,-60 192.25,-60 192.25,-60 158.75,-60 158.75,-60 155.75,-60 152.75,-57 152.75,-54 152.75,-54 152.75,-48 152.75,-48 152.75,-45 155.75,-42 158.75,-42"/>
<path fill="none" stroke="black" d="M158.75,-42C158.75,-42 192.25,-42 192.25,-42 195.25,-42 198.25,-45 198.25,-48 198.25,-48 198.25,-54 198.25,-54 198.25,-57 195.25,-60 192.25,-60 192.25,-60 158.75,-60 158.75,-60 155.75,-60 152.75,-57 152.75,-54 152.75,-54 152.75,-48 152.75,-48 152.75,-45 155.75,-42 158.75,-42"/>
<text xml:space="preserve" text-anchor="start" x="174" y="-47.25" font-family="Arial" font-size="10.00"> </text>
<text xml:space="preserve" text-anchor="start" x="215" y="-47.25" font-family="Arial" font-size="10.00">Attribute</text>
<path fill="#f5b8b8" stroke="none" d="M274.5,-42C274.5,-42 308,-42 308,-42 311,-42 314,-45 314,-48 314,-48 314,-54 314,-54 314,-57 311,-60 308,-60 308,-60 274.5,-60 274.5,-60 271.5,-60 268.5,-57 268.5,-54 268.5,-54 268.5,-48 268.5,-48 268.5,-45 271.5,-42 274.5,-42"/>
<path fill="none" stroke="black" d="M274.5,-42C274.5,-42 308,-42 308,-42 311,-42 314,-45 314,-48 314,-48 314,-54 314,-54 314,-57 311,-60 308,-60 308,-60 274.5,-60 274.5,-60 271.5,-60 268.5,-57 268.5,-54 268.5,-54 268.5,-48 268.5,-48 268.5,-45 271.5,-42 274.5,-42"/>
<text xml:space="preserve" text-anchor="start" x="289.75" y="-47.25" font-family="Arial" font-size="10.00"> </text>
<text xml:space="preserve" text-anchor="start" x="330.75" y="-47.25" font-family="Arial" font-size="10.00">Relationship</text>
<!-- legend -->
<g id="node1" class="node">
<title>legend</title>
<path fill="#b8e6b8" stroke="#2c3e50" stroke-width="1.8" d="M167.75,-36C167.75,-36 137.75,-36 137.75,-36 131.75,-36 125.75,-30 125.75,-24 125.75,-24 125.75,-12 125.75,-12 125.75,-6 131.75,0 137.75,0 137.75,0 167.75,0 167.75,0 173.75,0 179.75,-6 179.75,-12 179.75,-12 179.75,-24 179.75,-24 179.75,-30 173.75,-36 167.75,-36"/>
<text xml:space="preserve" text-anchor="middle" x="152.75" y="-20.5" font-family="Arial" font-size="10.00" fill="#1a1a1a">legend</text>
<text xml:space="preserve" text-anchor="middle" x="152.75" y="-8.5" font-family="Arial" font-size="10.00" fill="#1a1a1a">(legend)</text>
</g>
<!-- attr_0 -->
<g id="node2" class="node">
<title>attr_0</title>
<path fill="#b8d4f0" stroke="#5a7fa0" stroke-width="1.2" d="M271.75,-36C271.75,-36 241.75,-36 241.75,-36 235.75,-36 229.75,-30 229.75,-24 229.75,-24 229.75,-12 229.75,-12 229.75,-6 235.75,0 241.75,0 241.75,0 271.75,0 271.75,0 277.75,0 283.75,-6 283.75,-12 283.75,-12 283.75,-24 283.75,-24 283.75,-30 277.75,-36 271.75,-36"/>
<text xml:space="preserve" text-anchor="middle" x="256.75" y="-14.5" font-family="Arial" font-size="10.00" fill="#1a1a1a">vague</text>
</g>
<!-- legend&#45;&gt;attr_0 -->
<g id="edge1" class="edge">
<title>legend&#45;&gt;attr_0</title>
<path fill="none" stroke="#aaaaaa" d="M180.55,-18C192.94,-18 207.82,-18 221.06,-18"/>
<polygon fill="#aaaaaa" stroke="#aaaaaa" points="220.97,-20.45 227.97,-18 220.97,-15.55 220.97,-20.45"/>
</g>
</g>
</svg>
