<?xml version="1.0" encoding="UTF-8" standalone="no"?>
<!DOCTYPE svg PUBLIC "-//W3C//DTD SVG 1.1//EN"
 "http://www.w3.org/Graphics/SVG/1.1/DTD/svg11.dtd">
<!-- Generated by graphviz version 14.1.5 (20260411.2331)
 -->
<!-- Title: VASTC.51.6.png_pure_genome Pages: 1 -->
<svg width="768pt" height="469pt"
 viewBox="0.00 0.00 768.00 469.00" xmlns="http://www.w3.org/2000/svg" xmlns:xlink="http://www.w3.org/1999/xlink">
<g id="graph0" class="graph" transform="scale(2.08333 2.08333) rotate(0) translate(4 221)">
<title>VASTC.51.6.png_pure_genome</title>
<polygon fill="white" stroke="none" points="-4,4 -4,-221 364.75,-221 364.75,4 -4,4"/>
<text xml:space="preserve" text-anchor="start" x="12" y="-197.65" font-family="Arial" font-size="10.00"> &#160;&#160;&#160;&#160;&#160;</text>
<text xml:space="preserve" text-anchor="start" x="30" y="-197.65" font-family="Arial" font-weight="bold" font-size="13.00">VASTC.51.6.png — pure&#45;genome &#160;[Bar &#160;VC=0.35]</text>
<text xml:space="preserve" text-anchor="start" x="336.75" y="-197.65" font-family="Arial" font-size="10.00"> &#160;&#160;&#160;</text>
<path fill="#b8e6b8" stroke="none" d="M16,-172C16,-172 41.38,-172 41.38,-172 44.38,-172 47.38,-175 47.38,-178 47.38,-178 47.38,-184 47.38,-184 47.38,-187 44.38,-190 41.38,-190 41.38,-190 16,-190 16,-190 13,-190 10,-187 10,-184 10,-184 10,-178 10,-178 10,-175 13,-172 16,-172"/>
<path fill="none" stroke="black" d="M16,-172C16,-172 41.38,-172 41.38,-172 44.38,-172 47.38,-175 47.38,-178 47.38,-178 47.38,-184 47.38,-184 47.38,-187 44.38,-190 41.38,-190 41.38,-190 16,-190 16,-190 13,-190 10,-187 10,-184 10,-184 10,-178 10,-178 10,-175 13,-172 16,-172"/>
<text xml:space="preserve" text-anchor="start" x="27.19" y="-177.25" font-family="Arial" font-size="10.00"> </text>
<text xml:space="preserve" text-anchor="start" x="60.06" y="-177.25" font-family="Arial" font-size="10.00">Object (region)</text>
<path fill="#b8d4f0" stroke="none" d="M142.5,-172C142.5,-172 167.88,-172 167.88,-172 170.88,-172 173.88,-175 173.88,-178 173.88,-178 173.88,-184 173.88,-184 173.88,-187 170.88,-190 167.88,-190 167.88,-190 142.5,-190 142.5,-190 139.5,-190 136.5,-187 136.5,-184 136.5,-184 136.5,-178 136.5,-178 136.5,-175 139.5,-172 142.5,-172"/>
<path fill="none" stroke="black" d="M142.5,-172C142.5,-172 167.88,-172 167.88,-172 170.88,-172 173.88,-175 173.88,-178 173.88,-178 173.88,-184 173.88,-184 173.88,-187 170.88,-190 167.88,-190 167.88,-190 142.5,-190 142.5,-190 139.5,-190 136.5,-187 136.5,-184 136.5,-184 136.5,-178 136.5,-178 136.5,-175 139.5,-172 142.5,-172"/>
<text xml:space="preserve" text-anchor="start" x="153.69" y="-177.25" font-family="Arial" font-size="10.00"> </text>
<text xml:space="preserve" text-anchor="start" x="186.56" y="-177.25" font-family="Arial" font-size="10.00">Attribute</text>
<path fill="#f5b8b8" stroke="none" d="M242,-172C242,-172 267.38,-172 267.38,-172 270.38,-172 273.38,-175 273.38,-178 273.38,-178 273.38,-184 273.38,-184 273.38,-187 270.38,-190 267.38,-190 267.38,-190 242,-190 242,-190 239,-190 236,-187 236,-184 236,-184 236,-178 236,-178 236,-175 239,-172 242,-172"/>
<path fill="none" stroke="black" d="M242,-172C242,-172 267.38,-172 267.38,-172 270.38,-172 273.38,-175 273.38,-178 273.38,-178 273.38,-184 273.38,-184 273.38,-187 270.38,-190 267.38,-190 267.38,-190 242,-190 242,-190 239,-190 236,-187 236,-184 236,-184 236,-178 236,-178 236,-175 239,-172 242,-172"/>
<text xml:space="preserve" text-anchor="start" x="253.19" y="-177.25" font-family="Arial" font-size="10.00"> </text>
<text xml:space="preserve" text-anchor="start" x="286.06" y="-177.25" font-family="Arial" font-size="10.00">Relationship</text>
<!-- visualization -->
<g id="node1" class="node">
<title>visualization</title>
<path fill="#b8e6b8" stroke="#2c3e50" stroke-width="1.8" d="M126.88,-36C126.88,-36 80.88,-36 80.88,-36 74.88,-36 68.88,-30 68.88,-24 68.88,-24 68.88,-12 68.88,-12 68.88,-6 74.88,0 80.88,0 80.88,0 126.88,0 126.88,0 132.88,0 138.88,-6 138.88,-12 138.88,-12 138.88,-24 138.88,-24 138.88,-30 132.88,-36 126.88,-36"/>
<text xml:space="preserve" text-anchor="middle" x="103.88" y="-14.5" font-family="Arial" font-size="10.00" fill="#1a1a1a">visualization</text>
</g>
<!-- attr_0 -->
<g id="node4" class="node">
<title>attr_0</title>
<path fill="#b8d4f0" stroke="#5a7fa0" stroke-width="1.2" d="M279.88,-36C279.88,-36 200.88,-36 200.88,-36 194.88,-36 188.88,-30 188.88,-24 188.88,-24 188.88,-12 188.88,-12 188.88,-6 194.88,0 200.88,0 200.88,0 279.88,0 279.88,0 285.88,0 291.88,-6 291.88,-12 291.88,-12 291.88,-24 291.88,-24 291.88,-30 285.88,-36 279.88,-36"/>
<text xml:space="preserve" text-anchor="middle" x="240.38" y="-14.5" font-family="Arial" font-size="10.00" fill="#1a1a1a">ambiguous meaning</text>
</g>
<!-- visualization&#45;&gt;attr_0 -->
<g id="edge1" class="edge">
<title>visualization&#45;&gt;attr_0</title>
<path fill="none" stroke="#aaaaaa" d="M139.51,-18C151.82,-18 166.06,-18 179.85,-18"/>
<polygon fill="#aaaaaa" stroke="#aaaaaa" points="179.85,-20.45 186.85,-18 179.85,-15.55 179.85,-20.45"/>
</g>
<!-- number -->
<g id="node2" class="node">
<title>number</title>
<path fill="#b8e6b8" stroke="#2c3e50" stroke-width="1.8" d="M124.25,-101C124.25,-101 83.5,-101 83.5,-101 77.5,-101 71.5,-95 71.5,-89 71.5,-89 71.5,-77 71.5,-77 71.5,-71 77.5,-65 83.5,-65 83.5,-65 124.25,-65 124.25,-65 130.25,-65 136.25,-71 136.25,-77 136.25,-77 136.25,-89 136.25,-89 136.25,-95 130.25,-101 124.25,-101"/>
<text xml:space="preserve" text-anchor="middle" x="103.88" y="-85.5" font-family="Arial" font-size="10.00" fill="#1a1a1a">number</text>
<text xml:space="preserve" text-anchor="middle" x="103.88" y="-73.5" font-family="Arial" font-size="10.00" fill="#1a1a1a">(data_area)</text>
</g>
<!-- attr_1 -->
<g id="node5" class="node">
<title>attr_1</title>
<path fill="#b8d4f0" stroke="#5a7fa0" stroke-width="1.2" d="M261.5,-101C261.5,-101 219.25,-101 219.25,-101 213.25,-101 207.25,-95 207.25,-89 207.25,-89 207.25,-77 207.25,-77 207.25,-71 213.25,-65 219.25,-65 219.25,-65 261.5,-65 261.5,-65 267.5,-65 273.5,-71 273.5,-77 273.5,-77 273.5,-89 273.5,-89 273.5,-95 267.5,-101 261.5,-101"/>
<text xml:space="preserve" text-anchor="middle" x="240.38" y="-79.5" font-family="Arial" font-size="10.00" fill="#1a1a1a">no meaning</text>
</g>
<!-- number&#45;&gt;attr_1 -->
<g id="edge2" class="edge">
<title>number&#45;&gt;attr_1</title>
<path fill="none" stroke="#aaaaaa" d="M137.09,-83C155.5,-83 178.78,-83 198.48,-83"/>
<polygon fill="#aaaaaa" stroke="#aaaaaa" points="198.44,-85.45 205.44,-83 198.44,-80.55 198.44,-85.45"/>
</g>
<!-- color -->
<g id="node3" class="node">
<title>color</title>
<path fill="#b8e6b8" stroke="#2c3e50" stroke-width="1.8" d="M124.25,-166C124.25,-166 83.5,-166 83.5,-166 77.5,-166 71.5,-160 71.5,-154 71.5,-154 71.5,-142 71.5,-142 71.5,-136 77.5,-130 83.5,-130 83.5,-130 124.25,-130 124.25,-130 130.25,-130 136.25,-136 136.25,-142 136.25,-142 136.25,-154 136.25,-154 136.25,-160 130.25,-166 124.25,-166"/>
<text xml:space="preserve" text-anchor="middle" x="103.88" y="-150.5" font-family="Arial" font-size="10.00" fill="#1a1a1a">color</text>
<text xml:space="preserve" text-anchor="middle" x="103.88" y="-138.5" font-family="Arial" font-size="10.00" fill="#1a1a1a">(data_area)</text>
</g>
<!-- attr_2 -->
<g id="node6" class="node">
<title>attr_2</title>
<path fill="#b8d4f0" stroke="#5a7fa0" stroke-width="1.2" d="M261.5,-166C261.5,-166 219.25,-166 219.25,-166 213.25,-166 207.25,-160 207.25,-154 207.25,-154 207.25,-142 207.25,-142 207.25,-136 213.25,-130 219.25,-130 219.25,-130 261.5,-130 261.5,-130 267.5,-130 273.5,-136 273.5,-142 273.5,-142 273.5,-154 273.5,-154 273.5,-160 267.5,-166 261.5,-166"/>
<text xml:space="preserve" text-anchor="middle" x="240.38" y="-144.5" font-family="Arial" font-size="10.00" fill="#1a1a1a">no meaning</text>
</g>
<!-- color&#45;&gt;attr_2 -->
<g id="edge3" class="edge">
<title>color&#45;&gt;attr_2</title>
<path fill="none" stroke="#aaaaaa" d="M137.09,-148C155.5,-148 178.78,-148 198.48,-148"/>
<polygon fill="#aaaaaa" stroke="#aaaaaa" points="198.44,-150.45 205.44,-148 198.44,-145.55 198.44,-150.45"/>
</g>
</g>
</svg>
