<?xml version="1.0" encoding="UTF-8" standalone="no"?>
<!DOCTYPE svg PUBLIC "-//W3C//DTD SVG 1.1//EN"
 "http://www.w3.org/Graphics/SVG/1.1/DTD/svg11.dtd">
<!-- Generated by graphviz version 14.1.5 (20260411.2331)
 -->
<!-- Title: wsj340.png_V2 Pages: 1 -->
<svg width="2313pt" height="706pt"
 viewBox="0.00 0.00 2313.00 706.00" xmlns="http://www.w3.org/2000/svg" xmlns:xlink="http://www.w3.org/1999/xlink">
<g id="graph0" class="graph" transform="scale(2.08333 2.08333) rotate(0) translate(4 334.75)">
<title>wsj340.png_V2</title>
<polygon fill="white" stroke="none" points="-4,4 -4,-334.75 1106.25,-334.75 1106.25,4 -4,4"/>
<text xml:space="preserve" text-anchor="start" x="461.88" y="-310.45" font-family="Arial" font-weight="bold" font-size="14.00">wsj340.png — Condition V2</text>
<path fill="#b8e6b8" stroke="none" d="M430.12,-285C430.12,-285 438.12,-285 438.12,-285 441.12,-285 444.12,-288 444.12,-291 444.12,-291 444.12,-297 444.12,-297 444.12,-300 441.12,-303 438.12,-303 438.12,-303 430.12,-303 430.12,-303 427.12,-303 424.12,-300 424.12,-297 424.12,-297 424.12,-291 424.12,-291 424.12,-288 427.12,-285 430.12,-285"/>
<path fill="none" stroke="black" d="M430.12,-285C430.12,-285 438.12,-285 438.12,-285 441.12,-285 444.12,-288 444.12,-291 444.12,-291 444.12,-297 444.12,-297 444.12,-300 441.12,-303 438.12,-303 438.12,-303 430.12,-303 430.12,-303 427.12,-303 424.12,-300 424.12,-297 424.12,-297 424.12,-291 424.12,-291 424.12,-288 427.12,-285 430.12,-285"/>
<text xml:space="preserve" text-anchor="start" x="432.62" y="-290.25" font-family="Arial" font-size="10.00"> </text>
<text xml:space="preserve" text-anchor="start" x="448.12" y="-290.25" font-family="Arial" font-size="10.00">Object</text>
<path fill="#c7b8e6" stroke="none" d="M486.62,-285C486.62,-285 494.62,-285 494.62,-285 497.62,-285 500.62,-288 500.62,-291 500.62,-291 500.62,-297 500.62,-297 500.62,-300 497.62,-303 494.62,-303 494.62,-303 486.62,-303 486.62,-303 483.62,-303 480.62,-300 480.62,-297 480.62,-297 480.62,-291 480.62,-291 480.62,-288 483.62,-285 486.62,-285"/>
<path fill="none" stroke="black" d="M486.62,-285C486.62,-285 494.62,-285 494.62,-285 497.62,-285 500.62,-288 500.62,-291 500.62,-291 500.62,-297 500.62,-297 500.62,-300 497.62,-303 494.62,-303 494.62,-303 486.62,-303 486.62,-303 483.62,-303 480.62,-300 480.62,-297 480.62,-297 480.62,-291 480.62,-291 480.62,-288 483.62,-285 486.62,-285"/>
<text xml:space="preserve" text-anchor="start" x="489.12" y="-290.25" font-family="Arial" font-size="10.00"> </text>
<text xml:space="preserve" text-anchor="start" x="504.62" y="-290.25" font-family="Arial" font-size="10.00">Attr (+)</text>
<path fill="#e8dff5" stroke="none" d="M545.38,-285C545.38,-285 553.38,-285 553.38,-285 556.38,-285 559.38,-288 559.38,-291 559.38,-291 559.38,-297 559.38,-297 559.38,-300 556.38,-303 553.38,-303 553.38,-303 545.38,-303 545.38,-303 542.38,-303 539.38,-300 539.38,-297 539.38,-297 539.38,-291 539.38,-291 539.38,-288 542.38,-285 545.38,-285"/>
<path fill="none" stroke="black" d="M545.38,-285C545.38,-285 553.38,-285 553.38,-285 556.38,-285 559.38,-288 559.38,-291 559.38,-291 559.38,-297 559.38,-297 559.38,-300 556.38,-303 553.38,-303 553.38,-303 545.38,-303 545.38,-303 542.38,-303 539.38,-300 539.38,-297 539.38,-297 539.38,-291 539.38,-291 539.38,-288 542.38,-285 545.38,-285"/>
<text xml:space="preserve" text-anchor="start" x="547.88" y="-290.25" font-family="Arial" font-size="10.00"> </text>
<text xml:space="preserve" text-anchor="start" x="563.38" y="-290.25" font-family="Arial" font-size="10.00">Attr (−)</text>
<path fill="#f5b8b8" stroke="none" d="M604.12,-285C604.12,-285 612.12,-285 612.12,-285 615.12,-285 618.12,-288 618.12,-291 618.12,-291 618.12,-297 618.12,-297 618.12,-300 615.12,-303 612.12,-303 612.12,-303 604.12,-303 604.12,-303 601.12,-303 598.12,-300 598.12,-297 598.12,-297 598.12,-291 598.12,-291 598.12,-288 601.12,-285 604.12,-285"/>
<path fill="none" stroke="black" d="M604.12,-285C604.12,-285 612.12,-285 612.12,-285 615.12,-285 618.12,-288 618.12,-291 618.12,-291 618.12,-297 618.12,-297 618.12,-300 615.12,-303 612.12,-303 612.12,-303 604.12,-303 604.12,-303 601.12,-303 598.12,-300 598.12,-297 598.12,-297 598.12,-291 598.12,-291 598.12,-288 601.12,-285 604.12,-285"/>
<text xml:space="preserve" text-anchor="start" x="606.62" y="-290.25" font-family="Arial" font-size="10.00"> </text>
<text xml:space="preserve" text-anchor="start" x="622.12" y="-290.25" font-family="Arial" font-size="10.00">Relationship</text>
<!-- whole.visualization -->
<g id="node1" class="node">
<title>whole.visualization</title>
<path fill="#b8e6b8" stroke="#2c3e50" stroke-width="1.8" d="M371,-181C371,-181 330.25,-181 330.25,-181 324.25,-181 318.25,-175 318.25,-169 318.25,-169 318.25,-157 318.25,-157 318.25,-151 324.25,-145 330.25,-145 330.25,-145 371,-145 371,-145 377,-145 383,-151 383,-157 383,-157 383,-169 383,-169 383,-175 377,-181 371,-181"/>
<text xml:space="preserve" text-anchor="middle" x="350.62" y="-159.5" font-family="Arial" font-size="10.00" fill="#1a1a1a">donut chart</text>
</g>
<!-- attr_0 -->
<g id="node6" class="node">
<title>attr_0</title>
<path fill="#c7b8e6" stroke="#7f8c8d" stroke-width="1.2" d="M541,-279C541,-279 438,-279 438,-279 432,-279 426,-273 426,-267 426,-267 426,-255 426,-255 426,-249 432,-243 438,-243 438,-243 541,-243 541,-243 547,-243 553,-249 553,-255 553,-255 553,-267 553,-267 553,-273 547,-279 541,-279"/>
<text xml:space="preserve" text-anchor="middle" x="489.5" y="-257.5" font-family="Arial" font-size="10.00" fill="#1a1a1a">(+) five distinct segments</text>
</g>
<!-- whole.visualization&#45;&gt;attr_0 -->
<g id="edge1" class="edge">
<title>whole.visualization&#45;&gt;attr_0</title>
<path fill="none" stroke="#aaaaaa" d="M370.09,-181.79C384.51,-195.84 405.48,-214.97 426,-229 430.84,-232.31 436.07,-235.51 441.38,-238.52"/>
<polygon fill="#aaaaaa" stroke="#aaaaaa" points="439.98,-240.54 447.29,-241.77 442.34,-236.25 439.98,-240.54"/>
</g>
<!-- attr_1 -->
<g id="node7" class="node">
<title>attr_1</title>
<path fill="#c7b8e6" stroke="#7f8c8d" stroke-width="1.2" d="M539.12,-214C539.12,-214 439.88,-214 439.88,-214 433.88,-214 427.88,-208 427.88,-202 427.88,-202 427.88,-190 427.88,-190 427.88,-184 433.88,-178 439.88,-178 439.88,-178 539.12,-178 539.12,-178 545.12,-178 551.12,-184 551.12,-190 551.12,-190 551.12,-202 551.12,-202 551.12,-208 545.12,-214 539.12,-214"/>
<text xml:space="preserve" text-anchor="middle" x="489.5" y="-192.5" font-family="Arial" font-size="10.00" fill="#1a1a1a">(+) varied color encoding</text>
</g>
<!-- whole.visualization&#45;&gt;attr_1 -->
<g id="edge2" class="edge">
<title>whole.visualization&#45;&gt;attr_1</title>
<path fill="none" stroke="#aaaaaa" d="M383.72,-170.74C394.41,-173.32 406.77,-176.3 419.18,-179.29"/>
<polygon fill="#aaaaaa" stroke="#aaaaaa" points="418.46,-181.63 425.84,-180.89 419.61,-176.87 418.46,-181.63"/>
</g>
<!-- rel_3 -->
<g id="node15" class="node">
<title>rel_3</title>
<path fill="#f5b8b8" stroke="#d46a6a" stroke-width="1.2" d="M537.25,-149C537.25,-149 441.75,-149 441.75,-149 435.75,-149 429.75,-143 429.75,-137 429.75,-137 429.75,-125 429.75,-125 429.75,-119 435.75,-113 441.75,-113 441.75,-113 537.25,-113 537.25,-113 543.25,-113 549.25,-119 549.25,-125 549.25,-125 549.25,-137 549.25,-137 549.25,-143 543.25,-149 537.25,-149"/>
<text xml:space="preserve" text-anchor="middle" x="489.5" y="-127.5" font-family="Arial" font-size="10.00" fill="#8b0000">encodes proportions via</text>
</g>
<!-- whole.visualization&#45;&gt;rel_3 -->
<g id="edge15" class="edge">
<title>whole.visualization&#45;&gt;rel_3</title>
<path fill="none" stroke="#d46a6a" stroke-width="1.5" d="M383.72,-155.5C394.44,-152.99 406.84,-150.09 419.28,-147.18"/>
<polygon fill="#d46a6a" stroke="#d46a6a" stroke-width="1.5" points="419.86,-149.92 427.02,-145.37 418.59,-144.47 419.86,-149.92"/>
</g>
<!-- text.title -->
<g id="node2" class="node">
<title>text.title</title>
<path fill="#b8e6b8" stroke="#2c3e50" stroke-width="1.8" d="M933.75,-101C933.75,-101 903.75,-101 903.75,-101 897.75,-101 891.75,-95 891.75,-89 891.75,-89 891.75,-77 891.75,-77 891.75,-71 897.75,-65 903.75,-65 903.75,-65 933.75,-65 933.75,-65 939.75,-65 945.75,-71 945.75,-77 945.75,-77 945.75,-89 945.75,-89 945.75,-95 939.75,-101 933.75,-101"/>
<text xml:space="preserve" text-anchor="middle" x="918.75" y="-79.5" font-family="Arial" font-size="10.00" fill="#1a1a1a">title</text>
</g>
<!-- attr_2 -->
<g id="node8" class="node">
<title>attr_2</title>
<path fill="#e8dff5" stroke="#7f8c8d" stroke-width="1.2" d="M1090.25,-101C1090.25,-101 1000.75,-101 1000.75,-101 994.75,-101 988.75,-95 988.75,-89 988.75,-89 988.75,-77 988.75,-77 988.75,-71 994.75,-65 1000.75,-65 1000.75,-65 1090.25,-65 1090.25,-65 1096.25,-65 1102.25,-71 1102.25,-77 1102.25,-77 1102.25,-89 1102.25,-89 1102.25,-95 1096.25,-101 1090.25,-101"/>
<text xml:space="preserve" text-anchor="middle" x="1045.5" y="-79.5" font-family="Arial" font-size="10.00" fill="#1a1a1a">(−) bold prominent title</text>
</g>
<!-- text.title&#45;&gt;attr_2 -->
<g id="edge3" class="edge">
<title>text.title&#45;&gt;attr_2</title>
<path fill="none" stroke="#aaaaaa" d="M946.51,-83C956.46,-83 968.22,-83 980.09,-83"/>
<polygon fill="#aaaaaa" stroke="#aaaaaa" points="979.78,-85.45 986.78,-83 979.78,-80.55 979.78,-85.45"/>
</g>
<!-- text.label -->
<g id="node3" class="node">
<title>text.label</title>
<path fill="#b8e6b8" stroke="#2c3e50" stroke-width="1.8" d="M648.75,-166C648.75,-166 608,-166 608,-166 602,-166 596,-160 596,-154 596,-154 596,-142 596,-142 596,-136 602,-130 608,-130 608,-130 648.75,-130 648.75,-130 654.75,-130 660.75,-136 660.75,-142 660.75,-142 660.75,-154 660.75,-154 660.75,-160 654.75,-166 648.75,-166"/>
<text xml:space="preserve" text-anchor="middle" x="628.38" y="-144.5" font-family="Arial" font-size="10.00" fill="#1a1a1a">slice labels</text>
</g>
<!-- attr_3 -->
<g id="node9" class="node">
<title>attr_3</title>
<path fill="#e8dff5" stroke="#7f8c8d" stroke-width="1.2" d="M830.75,-231C830.75,-231 721.75,-231 721.75,-231 715.75,-231 709.75,-225 709.75,-219 709.75,-219 709.75,-207 709.75,-207 709.75,-201 715.75,-195 721.75,-195 721.75,-195 830.75,-195 830.75,-195 836.75,-195 842.75,-201 842.75,-207 842.75,-207 842.75,-219 842.75,-219 842.75,-225 836.75,-231 830.75,-231"/>
<text xml:space="preserve" text-anchor="middle" x="776.25" y="-209.5" font-family="Arial" font-size="10.00" fill="#1a1a1a">(−) inline percentage labels</text>
</g>
<!-- text.label&#45;&gt;attr_3 -->
<g id="edge4" class="edge">
<title>text.label&#45;&gt;attr_3</title>
<path fill="none" stroke="#aaaaaa" d="M661.39,-153.08C686.32,-161.87 720.68,-177.25 745.12,-190.57"/>
<polygon fill="#aaaaaa" stroke="#aaaaaa" points="743.74,-192.61 751.04,-193.89 746.13,-188.33 743.74,-192.61"/>
</g>
<!-- text.label&#45;&gt;attr_3 -->
<g id="edge6" class="edge">
<title>text.label&#45;&gt;attr_3</title>
<path fill="none" stroke="#aaaaaa" d="M653.14,-166.87C666.56,-174.56 684.14,-183.26 701.76,-191.13"/>
<polygon fill="#aaaaaa" stroke="#aaaaaa" points="700.53,-193.26 707.92,-193.84 702.5,-188.78 700.53,-193.26"/>
</g>
<!-- attr_4 -->
<g id="node10" class="node">
<title>attr_4</title>
<path fill="#c7b8e6" stroke="#7f8c8d" stroke-width="1.2" d="M836.75,-166C836.75,-166 715.75,-166 715.75,-166 709.75,-166 703.75,-160 703.75,-154 703.75,-154 703.75,-142 703.75,-142 703.75,-136 709.75,-130 715.75,-130 715.75,-130 836.75,-130 836.75,-130 842.75,-130 848.75,-136 848.75,-142 848.75,-142 848.75,-154 848.75,-154 848.75,-160 842.75,-166 836.75,-166"/>
<text xml:space="preserve" text-anchor="middle" x="776.25" y="-144.5" font-family="Arial" font-size="10.00" fill="#1a1a1a">(+) multi sentence description</text>
</g>
<!-- text.label&#45;&gt;attr_4 -->
<g id="edge5" class="edge">
<title>text.label&#45;&gt;attr_4</title>
<path fill="none" stroke="#aaaaaa" d="M661.39,-138.82C671.47,-137.88 683.1,-137.33 694.99,-137.17"/>
<polygon fill="#aaaaaa" stroke="#aaaaaa" points="694.75,-139.63 701.74,-137.13 694.72,-134.73 694.75,-139.63"/>
</g>
<!-- text.label&#45;&gt;attr_4 -->
<g id="edge7" class="edge">
<title>text.label&#45;&gt;attr_4</title>
<path fill="none" stroke="#aaaaaa" d="M661.39,-157.18C671.47,-158.12 683.1,-158.67 694.99,-158.83"/>
<polygon fill="#aaaaaa" stroke="#aaaaaa" points="694.72,-161.27 701.74,-158.87 694.75,-156.37 694.72,-161.27"/>
</g>
<!-- rel_0 -->
<g id="node12" class="node">
<title>rel_0</title>
<path fill="#f5b8b8" stroke="#d46a6a" stroke-width="1.2" d="M802.25,-36C802.25,-36 750.25,-36 750.25,-36 744.25,-36 738.25,-30 738.25,-24 738.25,-24 738.25,-12 738.25,-12 738.25,-6 744.25,0 750.25,0 750.25,0 802.25,0 802.25,0 808.25,0 814.25,-6 814.25,-12 814.25,-12 814.25,-24 814.25,-24 814.25,-30 808.25,-36 802.25,-36"/>
<text xml:space="preserve" text-anchor="middle" x="776.25" y="-14.5" font-family="Arial" font-size="10.00" fill="#8b0000">directly labels</text>
</g>
<!-- text.label&#45;&gt;rel_0 -->
<g id="edge9" class="edge">
<title>text.label&#45;&gt;rel_0</title>
<path fill="none" stroke="#d46a6a" stroke-width="1.5" d="M639.74,-129.13C652.4,-107.55 675.65,-72.32 703.75,-50 711.26,-44.04 720.06,-38.93 728.86,-34.66"/>
<polygon fill="#d46a6a" stroke="#d46a6a" stroke-width="1.5" points="729.79,-37.31 735.92,-31.46 727.48,-32.21 729.79,-37.31"/>
</g>
<!-- rel_2 -->
<g id="node14" class="node">
<title>rel_2</title>
<path fill="#f5b8b8" stroke="#d46a6a" stroke-width="1.2" d="M818,-101C818,-101 734.5,-101 734.5,-101 728.5,-101 722.5,-95 722.5,-89 722.5,-89 722.5,-77 722.5,-77 722.5,-71 728.5,-65 734.5,-65 734.5,-65 818,-65 818,-65 824,-65 830,-71 830,-77 830,-77 830,-89 830,-89 830,-95 824,-101 818,-101"/>
<text xml:space="preserve" text-anchor="middle" x="776.25" y="-79.5" font-family="Arial" font-size="10.00" fill="#8b0000">provides narrative for</text>
</g>
<!-- text.label&#45;&gt;rel_2 -->
<g id="edge13" class="edge">
<title>text.label&#45;&gt;rel_2</title>
<path fill="none" stroke="#d46a6a" stroke-width="1.5" d="M661.39,-133.74C679.87,-125.5 703.54,-114.95 724.5,-105.61"/>
<polygon fill="#d46a6a" stroke="#d46a6a" stroke-width="1.5" points="725.37,-108.29 731.53,-102.48 723.09,-103.18 725.37,-108.29"/>
</g>
<!-- text.annotation -->
<g id="node4" class="node">
<title>text.annotation</title>
<path fill="#b8e6b8" stroke="#2c3e50" stroke-width="1.8" d="M79,-213C79,-213 12,-213 12,-213 6,-213 0,-207 0,-201 0,-201 0,-189 0,-189 0,-183 6,-177 12,-177 12,-177 79,-177 79,-177 85,-177 91,-183 91,-189 91,-189 91,-201 91,-201 91,-207 85,-213 79,-213"/>
<text xml:space="preserve" text-anchor="middle" x="45.5" y="-191.5" font-family="Arial" font-size="10.00" fill="#1a1a1a">center annotation</text>
</g>
<!-- attr_5 -->
<g id="node11" class="node">
<title>attr_5</title>
<path fill="#e8dff5" stroke="#7f8c8d" stroke-width="1.2" d="M263.25,-246C263.25,-246 146,-246 146,-246 140,-246 134,-240 134,-234 134,-234 134,-222 134,-222 134,-216 140,-210 146,-210 146,-210 263.25,-210 263.25,-210 269.25,-210 275.25,-216 275.25,-222 275.25,-222 275.25,-234 275.25,-234 275.25,-240 269.25,-246 263.25,-246"/>
<text xml:space="preserve" text-anchor="middle" x="204.62" y="-224.5" font-family="Arial" font-size="10.00" fill="#1a1a1a">(−) central summary statistic</text>
</g>
<!-- text.annotation&#45;&gt;attr_5 -->
<g id="edge8" class="edge">
<title>text.annotation&#45;&gt;attr_5</title>
<path fill="none" stroke="#aaaaaa" d="M91.53,-204.46C102.21,-206.7 113.91,-209.16 125.6,-211.61"/>
<polygon fill="#aaaaaa" stroke="#aaaaaa" points="124.84,-213.96 132.19,-213 125.85,-209.16 124.84,-213.96"/>
</g>
<!-- rel_1 -->
<g id="node13" class="node">
<title>rel_1</title>
<path fill="#f5b8b8" stroke="#d46a6a" stroke-width="1.2" d="M242.62,-181C242.62,-181 166.62,-181 166.62,-181 160.62,-181 154.62,-175 154.62,-169 154.62,-169 154.62,-157 154.62,-157 154.62,-151 160.62,-145 166.62,-145 166.62,-145 242.62,-145 242.62,-145 248.62,-145 254.62,-151 254.62,-157 254.62,-157 254.62,-169 254.62,-169 254.62,-175 248.62,-181 242.62,-181"/>
<text xml:space="preserve" text-anchor="middle" x="204.62" y="-159.5" font-family="Arial" font-size="10.00" fill="#8b0000">anchors context for</text>
</g>
<!-- text.annotation&#45;&gt;rel_1 -->
<g id="edge11" class="edge">
<title>text.annotation&#45;&gt;rel_1</title>
<path fill="none" stroke="#d46a6a" stroke-width="1.5" d="M91.53,-185.83C108.05,-182.46 127.02,-178.6 144.59,-175.02"/>
<polygon fill="#d46a6a" stroke="#d46a6a" stroke-width="1.5" points="144.68,-177.86 151.96,-173.52 143.56,-172.37 144.68,-177.86"/>
</g>
<!-- text.description -->
<g id="node5" class="node">
<title>text.description</title>
<path fill="#b8e6b8" stroke="#2c3e50" stroke-width="1.8" d="M73.38,-278C73.38,-278 17.62,-278 17.62,-278 11.62,-278 5.62,-272 5.62,-266 5.62,-266 5.62,-254 5.62,-254 5.62,-248 11.62,-242 17.62,-242 17.62,-242 73.38,-242 73.38,-242 79.38,-242 85.38,-248 85.38,-254 85.38,-254 85.38,-266 85.38,-266 85.38,-272 79.38,-278 73.38,-278"/>
<text xml:space="preserve" text-anchor="middle" x="45.5" y="-256.5" font-family="Arial" font-size="10.00" fill="#1a1a1a">source caption</text>
</g>
<!-- rel_0&#45;&gt;whole.visualization -->
<g id="edge10" class="edge">
<title>rel_0&#45;&gt;whole.visualization</title>
<path fill="none" stroke="#d46a6a" stroke-width="1.5" d="M737.79,-20.57C671.55,-26.38 530.87,-44.51 426,-98 406.92,-107.73 388.76,-123.43 375.16,-136.97"/>
<polygon fill="#d46a6a" stroke="#d46a6a" stroke-width="1.5" points="373.26,-134.91 369.68,-142.59 377.27,-138.81 373.26,-134.91"/>
</g>
<!-- rel_1&#45;&gt;whole.visualization -->
<g id="edge12" class="edge">
<title>rel_1&#45;&gt;whole.visualization</title>
<path fill="none" stroke="#d46a6a" stroke-width="1.5" d="M255.18,-163C272.29,-163 291.29,-163 307.73,-163"/>
<polygon fill="#d46a6a" stroke="#d46a6a" stroke-width="1.5" points="307.32,-165.8 315.32,-163 307.32,-160.2 307.32,-165.8"/>
</g>
<!-- rel_2&#45;&gt;text.title -->
<g id="edge14" class="edge">
<title>rel_2&#45;&gt;text.title</title>
<path fill="none" stroke="#d46a6a" stroke-width="1.5" d="M830.37,-83C847.16,-83 865.35,-83 880.76,-83"/>
<polygon fill="#d46a6a" stroke="#d46a6a" stroke-width="1.5" points="880.66,-85.8 888.66,-83 880.66,-80.2 880.66,-85.8"/>
</g>
<!-- rel_3&#45;&gt;text.label -->
<g id="edge16" class="edge">
<title>rel_3&#45;&gt;text.label</title>
<path fill="none" stroke="#d46a6a" stroke-width="1.5" d="M549.74,-138.36C561.69,-139.84 574.02,-141.37 585.23,-142.77"/>
<polygon fill="#d46a6a" stroke="#d46a6a" stroke-width="1.5" points="584.64,-145.51 592.93,-143.72 585.33,-139.96 584.64,-145.51"/>
</g>
</g>
</svg>
