<?xml version="1.0" encoding="UTF-8" standalone="no"?>
<!DOCTYPE svg PUBLIC "-//W3C//DTD SVG 1.1//EN"
 "http://www.w3.org/Graphics/SVG/1.1/DTD/svg11.dtd">
<!-- Generated by graphviz version 14.1.5 (20260411.2331)
 -->
<!-- Title: wsj340.png_B Pages: 1 -->
<svg width="1163pt" height="999pt"
 viewBox="0.00 0.00 1163.00 999.00" xmlns="http://www.w3.org/2000/svg" xmlns:xlink="http://www.w3.org/1999/xlink">
<g id="graph0" class="graph" transform="scale(2.08333 2.08333) rotate(0) translate(4 475.75)">
<title>wsj340.png_B</title>
<polygon fill="white" stroke="none" points="-4,4 -4,-475.75 554,-475.75 554,4 -4,4"/>
<text xml:space="preserve" text-anchor="start" x="189.12" y="-451.45" font-family="Arial" font-weight="bold" font-size="14.00">wsj340.png — Condition B</text>
<path fill="#b8e6b8" stroke="none" d="M154,-426C154,-426 162,-426 162,-426 165,-426 168,-429 168,-432 168,-432 168,-438 168,-438 168,-441 165,-444 162,-444 162,-444 154,-444 154,-444 151,-444 148,-441 148,-438 148,-438 148,-432 148,-432 148,-429 151,-426 154,-426"/>
<path fill="none" stroke="black" d="M154,-426C154,-426 162,-426 162,-426 165,-426 168,-429 168,-432 168,-432 168,-438 168,-438 168,-441 165,-444 162,-444 162,-444 154,-444 154,-444 151,-444 148,-441 148,-438 148,-438 148,-432 148,-432 148,-429 151,-426 154,-426"/>
<text xml:space="preserve" text-anchor="start" x="156.5" y="-431.25" font-family="Arial" font-size="10.00"> </text>
<text xml:space="preserve" text-anchor="start" x="172" y="-431.25" font-family="Arial" font-size="10.00">Object</text>
<path fill="#c7b8e6" stroke="none" d="M210.5,-426C210.5,-426 218.5,-426 218.5,-426 221.5,-426 224.5,-429 224.5,-432 224.5,-432 224.5,-438 224.5,-438 224.5,-441 221.5,-444 218.5,-444 218.5,-444 210.5,-444 210.5,-444 207.5,-444 204.5,-441 204.5,-438 204.5,-438 204.5,-432 204.5,-432 204.5,-429 207.5,-426 210.5,-426"/>
<path fill="none" stroke="black" d="M210.5,-426C210.5,-426 218.5,-426 218.5,-426 221.5,-426 224.5,-429 224.5,-432 224.5,-432 224.5,-438 224.5,-438 224.5,-441 221.5,-444 218.5,-444 218.5,-444 210.5,-444 210.5,-444 207.5,-444 204.5,-441 204.5,-438 204.5,-438 204.5,-432 204.5,-432 204.5,-429 207.5,-426 210.5,-426"/>
<text xml:space="preserve" text-anchor="start" x="213" y="-431.25" font-family="Arial" font-size="10.00"> </text>
<text xml:space="preserve" text-anchor="start" x="228.5" y="-431.25" font-family="Arial" font-size="10.00">Attr (+)</text>
<path fill="#e8dff5" stroke="none" d="M269.25,-426C269.25,-426 277.25,-426 277.25,-426 280.25,-426 283.25,-429 283.25,-432 283.25,-432 283.25,-438 283.25,-438 283.25,-441 280.25,-444 277.25,-444 277.25,-444 269.25,-444 269.25,-444 266.25,-444 263.25,-441 263.25,-438 263.25,-438 263.25,-432 263.25,-432 263.25,-429 266.25,-426 269.25,-426"/>
<path fill="none" stroke="black" d="M269.25,-426C269.25,-426 277.25,-426 277.25,-426 280.25,-426 283.25,-429 283.25,-432 283.25,-432 283.25,-438 283.25,-438 283.25,-441 280.25,-444 277.25,-444 277.25,-444 269.25,-444 269.25,-444 266.25,-444 263.25,-441 263.25,-438 263.25,-438 263.25,-432 263.25,-432 263.25,-429 266.25,-426 269.25,-426"/>
<text xml:space="preserve" text-anchor="start" x="271.75" y="-431.25" font-family="Arial" font-size="10.00"> </text>
<text xml:space="preserve" text-anchor="start" x="287.25" y="-431.25" font-family="Arial" font-size="10.00">Attr (−)</text>
<path fill="#f5b8b8" stroke="none" d="M328,-426C328,-426 336,-426 336,-426 339,-426 342,-429 342,-432 342,-432 342,-438 342,-438 342,-441 339,-444 336,-444 336,-444 328,-444 328,-444 325,-444 322,-441 322,-438 322,-438 322,-432 322,-432 322,-429 325,-426 328,-426"/>
<path fill="none" stroke="black" d="M328,-426C328,-426 336,-426 336,-426 339,-426 342,-429 342,-432 342,-432 342,-438 342,-438 342,-441 339,-444 336,-444 336,-444 328,-444 328,-444 325,-444 322,-441 322,-438 322,-438 322,-432 322,-432 322,-429 325,-426 328,-426"/>
<text xml:space="preserve" text-anchor="start" x="330.5" y="-431.25" font-family="Arial" font-size="10.00"> </text>
<text xml:space="preserve" text-anchor="start" x="346" y="-431.25" font-family="Arial" font-size="10.00">Relationship</text>
<!-- whole.visualization -->
<g id="node1" class="node">
<title>whole.visualization</title>
<path fill="#b8e6b8" stroke="#2c3e50" stroke-width="1.8" d="M365.25,-36C365.25,-36 335.25,-36 335.25,-36 329.25,-36 323.25,-30 323.25,-24 323.25,-24 323.25,-12 323.25,-12 323.25,-6 329.25,0 335.25,0 335.25,0 365.25,0 365.25,0 371.25,0 377.25,-6 377.25,-12 377.25,-12 377.25,-24 377.25,-24 377.25,-30 371.25,-36 365.25,-36"/>
<text xml:space="preserve" text-anchor="middle" x="350.25" y="-14.5" font-family="Arial" font-size="10.00" fill="#1a1a1a">chart</text>
</g>
<!-- attr_5 -->
<g id="node7" class="node">
<title>attr_5</title>
<path fill="#e8dff5" stroke="#7f8c8d" stroke-width="1.2" d="M530.12,-36C530.12,-36 452.62,-36 452.62,-36 446.62,-36 440.62,-30 440.62,-24 440.62,-24 440.62,-12 440.62,-12 440.62,-6 446.62,0 452.62,0 452.62,0 530.12,0 530.12,0 536.12,0 542.12,-6 542.12,-12 542.12,-12 542.12,-24 542.12,-24 542.12,-30 536.12,-36 530.12,-36"/>
<text xml:space="preserve" text-anchor="middle" x="491.38" y="-14.5" font-family="Arial" font-size="10.00" fill="#1a1a1a">(−) easy to interpret</text>
</g>
<!-- whole.visualization&#45;&gt;attr_5 -->
<g id="edge1" class="edge">
<title>whole.visualization&#45;&gt;attr_5</title>
<path fill="none" stroke="#aaaaaa" d="M378.07,-18C393.34,-18 413.1,-18 431.77,-18"/>
<polygon fill="#aaaaaa" stroke="#aaaaaa" points="431.74,-20.45 438.74,-18 431.74,-15.55 431.74,-20.45"/>
</g>
<!-- text.title -->
<g id="node2" class="node">
<title>text.title</title>
<path fill="#b8e6b8" stroke="#2c3e50" stroke-width="1.8" d="M46.62,-69C46.62,-69 16.62,-69 16.62,-69 10.62,-69 4.62,-63 4.62,-57 4.62,-57 4.62,-45 4.62,-45 4.62,-39 10.62,-33 16.62,-33 16.62,-33 46.62,-33 46.62,-33 52.62,-33 58.62,-39 58.62,-45 58.62,-45 58.62,-57 58.62,-57 58.62,-63 52.62,-69 46.62,-69"/>
<text xml:space="preserve" text-anchor="middle" x="31.62" y="-47.5" font-family="Arial" font-size="10.00" fill="#1a1a1a">title</text>
</g>
<!-- attr_0 -->
<g id="node8" class="node">
<title>attr_0</title>
<path fill="#e8dff5" stroke="#7f8c8d" stroke-width="1.2" d="M228,-101C228,-101 146,-101 146,-101 140,-101 134,-95 134,-89 134,-89 134,-77 134,-77 134,-71 140,-65 146,-65 146,-65 228,-65 228,-65 234,-65 240,-71 240,-77 240,-77 240,-89 240,-89 240,-95 234,-101 228,-101"/>
<text xml:space="preserve" text-anchor="middle" x="187" y="-79.5" font-family="Arial" font-size="10.00" fill="#1a1a1a">(−) clear title present</text>
</g>
<!-- text.title&#45;&gt;attr_0 -->
<g id="edge2" class="edge">
<title>text.title&#45;&gt;attr_0</title>
<path fill="none" stroke="#aaaaaa" d="M59.34,-56.57C77.53,-60.37 102.37,-65.55 125.23,-70.32"/>
<polygon fill="#aaaaaa" stroke="#aaaaaa" points="124.72,-72.72 132.07,-71.75 125.72,-67.92 124.72,-72.72"/>
</g>
<!-- rel_1 -->
<g id="node14" class="node">
<title>rel_1</title>
<path fill="#f5b8b8" stroke="#d46a6a" stroke-width="1.2" d="M223.12,-36C223.12,-36 150.88,-36 150.88,-36 144.88,-36 138.88,-30 138.88,-24 138.88,-24 138.88,-12 138.88,-12 138.88,-6 144.88,0 150.88,0 150.88,0 223.12,0 223.12,0 229.12,0 235.12,-6 235.12,-12 235.12,-12 235.12,-24 235.12,-24 235.12,-30 229.12,-36 223.12,-36"/>
<text xml:space="preserve" text-anchor="middle" x="187" y="-14.5" font-family="Arial" font-size="10.00" fill="#8b0000">clarifies content of</text>
</g>
<!-- text.title&#45;&gt;rel_1 -->
<g id="edge9" class="edge">
<title>text.title&#45;&gt;rel_1</title>
<path fill="none" stroke="#d46a6a" stroke-width="1.5" d="M59.34,-45.25C78.42,-41.15 104.8,-35.47 128.55,-30.36"/>
<polygon fill="#d46a6a" stroke="#d46a6a" stroke-width="1.5" points="129.08,-33.11 136.32,-28.69 127.91,-27.64 129.08,-33.11"/>
</g>
<!-- text.axis_label -->
<g id="node3" class="node">
<title>text.axis_label</title>
<path fill="#b8e6b8" stroke="#2c3e50" stroke-width="1.8" d="M369.5,-166C369.5,-166 331,-166 331,-166 325,-166 319,-160 319,-154 319,-154 319,-142 319,-142 319,-136 325,-130 331,-130 331,-130 369.5,-130 369.5,-130 375.5,-130 381.5,-136 381.5,-142 381.5,-142 381.5,-154 381.5,-154 381.5,-160 375.5,-166 369.5,-166"/>
<text xml:space="preserve" text-anchor="middle" x="350.25" y="-144.5" font-family="Arial" font-size="10.00" fill="#1a1a1a">axis labels</text>
</g>
<!-- attr_1 -->
<g id="node9" class="node">
<title>attr_1</title>
<path fill="#e8dff5" stroke="#7f8c8d" stroke-width="1.2" d="M538,-166C538,-166 444.75,-166 444.75,-166 438.75,-166 432.75,-160 432.75,-154 432.75,-154 432.75,-142 432.75,-142 432.75,-136 438.75,-130 444.75,-130 444.75,-130 538,-130 538,-130 544,-130 550,-136 550,-142 550,-142 550,-154 550,-154 550,-160 544,-166 538,-166"/>
<text xml:space="preserve" text-anchor="middle" x="491.38" y="-144.5" font-family="Arial" font-size="10.00" fill="#1a1a1a">(−) axis labels readable</text>
</g>
<!-- text.axis_label&#45;&gt;attr_1 -->
<g id="edge3" class="edge">
<title>text.axis_label&#45;&gt;attr_1</title>
<path fill="none" stroke="#aaaaaa" d="M382.13,-148C394.44,-148 409.12,-148 423.64,-148"/>
<polygon fill="#aaaaaa" stroke="#aaaaaa" points="423.64,-150.45 430.64,-148 423.64,-145.55 423.64,-150.45"/>
</g>
<!-- mark.bar -->
<g id="node4" class="node">
<title>mark.bar</title>
<path fill="#b8e6b8" stroke="#2c3e50" stroke-width="1.8" d="M46.62,-355C46.62,-355 16.62,-355 16.62,-355 10.62,-355 4.62,-349 4.62,-343 4.62,-343 4.62,-331 4.62,-331 4.62,-325 10.62,-319 16.62,-319 16.62,-319 46.62,-319 46.62,-319 52.62,-319 58.62,-325 58.62,-331 58.62,-331 58.62,-343 58.62,-343 58.62,-349 52.62,-355 46.62,-355"/>
<text xml:space="preserve" text-anchor="middle" x="31.62" y="-333.5" font-family="Arial" font-size="10.00" fill="#1a1a1a">bar</text>
</g>
<!-- attr_2 -->
<g id="node10" class="node">
<title>attr_2</title>
<path fill="#e8dff5" stroke="#7f8c8d" stroke-width="1.2" d="M240,-420C240,-420 134,-420 134,-420 128,-420 122,-414 122,-408 122,-408 122,-396 122,-396 122,-390 128,-384 134,-384 134,-384 240,-384 240,-384 246,-384 252,-390 252,-396 252,-396 252,-408 252,-408 252,-414 246,-420 240,-420"/>
<text xml:space="preserve" text-anchor="middle" x="187" y="-398.5" font-family="Arial" font-size="10.00" fill="#1a1a1a">(−) standard bar technique</text>
</g>
<!-- mark.bar&#45;&gt;attr_2 -->
<g id="edge4" class="edge">
<title>mark.bar&#45;&gt;attr_2</title>
<path fill="none" stroke="#aaaaaa" d="M59.44,-349.33C73.35,-355.64 90.65,-363.38 106.25,-370 114.35,-373.44 122.94,-376.99 131.38,-380.42"/>
<polygon fill="#aaaaaa" stroke="#aaaaaa" points="130.25,-382.61 137.66,-382.96 132.09,-378.06 130.25,-382.61"/>
</g>
<!-- rel_0 -->
<g id="node13" class="node">
<title>rel_0</title>
<path fill="#f5b8b8" stroke="#d46a6a" stroke-width="1.2" d="M214.5,-355C214.5,-355 159.5,-355 159.5,-355 153.5,-355 147.5,-349 147.5,-343 147.5,-343 147.5,-331 147.5,-331 147.5,-325 153.5,-319 159.5,-319 159.5,-319 214.5,-319 214.5,-319 220.5,-319 226.5,-325 226.5,-331 226.5,-331 226.5,-343 226.5,-343 226.5,-349 220.5,-355 214.5,-355"/>
<text xml:space="preserve" text-anchor="middle" x="187" y="-333.5" font-family="Arial" font-size="10.00" fill="#8b0000">uses encoding</text>
</g>
<!-- mark.bar&#45;&gt;rel_0 -->
<g id="edge7" class="edge">
<title>mark.bar&#45;&gt;rel_0</title>
<path fill="none" stroke="#d46a6a" stroke-width="1.5" d="M59.34,-337C80.71,-337 111.24,-337 136.98,-337"/>
<polygon fill="#d46a6a" stroke="#d46a6a" stroke-width="1.5" points="136.67,-339.8 144.67,-337 136.67,-334.2 136.67,-339.8"/>
</g>
<!-- property.color -->
<g id="node5" class="node">
<title>property.color</title>
<path fill="#b8e6b8" stroke="#2c3e50" stroke-width="1.8" d="M377.75,-355C377.75,-355 322.75,-355 322.75,-355 316.75,-355 310.75,-349 310.75,-343 310.75,-343 310.75,-331 310.75,-331 310.75,-325 316.75,-319 322.75,-319 322.75,-319 377.75,-319 377.75,-319 383.75,-319 389.75,-325 389.75,-331 389.75,-331 389.75,-343 389.75,-343 389.75,-349 383.75,-355 377.75,-355"/>
<text xml:space="preserve" text-anchor="middle" x="350.25" y="-333.5" font-family="Arial" font-size="10.00" fill="#1a1a1a">color encoding</text>
</g>
<!-- attr_3 -->
<g id="node11" class="node">
<title>attr_3</title>
<path fill="#e8dff5" stroke="#7f8c8d" stroke-width="1.2" d="M536.5,-358C536.5,-358 446.25,-358 446.25,-358 440.25,-358 434.25,-352 434.25,-346 434.25,-346 434.25,-334 434.25,-334 434.25,-328 440.25,-322 446.25,-322 446.25,-322 536.5,-322 536.5,-322 542.5,-322 548.5,-328 548.5,-334 548.5,-334 548.5,-346 548.5,-346 548.5,-352 542.5,-358 536.5,-358"/>
<text xml:space="preserve" text-anchor="middle" x="491.38" y="-336.5" font-family="Arial" font-size="10.00" fill="#1a1a1a">(−) good color contrast</text>
</g>
<!-- property.color&#45;&gt;attr_3 -->
<g id="edge5" class="edge">
<title>property.color&#45;&gt;attr_3</title>
<path fill="none" stroke="#aaaaaa" d="M390.37,-337.84C401.34,-338.08 413.57,-338.34 425.61,-338.6"/>
<polygon fill="#aaaaaa" stroke="#aaaaaa" points="425.33,-341.05 432.38,-338.75 425.44,-336.15 425.33,-341.05"/>
</g>
<!-- rel_2 -->
<g id="node15" class="node">
<title>rel_2</title>
<path fill="#f5b8b8" stroke="#d46a6a" stroke-width="1.2" d="M532.38,-293C532.38,-293 450.38,-293 450.38,-293 444.38,-293 438.38,-287 438.38,-281 438.38,-281 438.38,-269 438.38,-269 438.38,-263 444.38,-257 450.38,-257 450.38,-257 532.38,-257 532.38,-257 538.38,-257 544.38,-263 544.38,-269 544.38,-269 544.38,-281 544.38,-281 544.38,-287 538.38,-293 532.38,-293"/>
<text xml:space="preserve" text-anchor="middle" x="491.38" y="-271.5" font-family="Arial" font-size="10.00" fill="#8b0000">aids segmentation in</text>
</g>
<!-- property.color&#45;&gt;rel_2 -->
<g id="edge11" class="edge">
<title>property.color&#45;&gt;rel_2</title>
<path fill="none" stroke="#d46a6a" stroke-width="1.5" d="M390.37,-319.56C405.69,-312.74 423.46,-304.82 439.74,-297.57"/>
<polygon fill="#d46a6a" stroke="#d46a6a" stroke-width="1.5" points="440.88,-300.12 447.04,-294.31 438.6,-295.01 440.88,-300.12"/>
</g>
<!-- text.description -->
<g id="node6" class="node">
<title>text.description</title>
<path fill="#b8e6b8" stroke="#2c3e50" stroke-width="1.8" d="M51.25,-199C51.25,-199 12,-199 12,-199 6,-199 0,-193 0,-187 0,-187 0,-175 0,-175 0,-169 6,-163 12,-163 12,-163 51.25,-163 51.25,-163 57.25,-163 63.25,-169 63.25,-175 63.25,-175 63.25,-187 63.25,-187 63.25,-193 57.25,-199 51.25,-199"/>
<text xml:space="preserve" text-anchor="middle" x="31.62" y="-177.5" font-family="Arial" font-size="10.00" fill="#1a1a1a">description</text>
</g>
<!-- attr_4 -->
<g id="node12" class="node">
<title>attr_4</title>
<path fill="#c7b8e6" stroke="#7f8c8d" stroke-width="1.2" d="M255.75,-231C255.75,-231 118.25,-231 118.25,-231 112.25,-231 106.25,-225 106.25,-219 106.25,-219 106.25,-207 106.25,-207 106.25,-201 112.25,-195 118.25,-195 118.25,-195 255.75,-195 255.75,-195 261.75,-195 267.75,-201 267.75,-207 267.75,-207 267.75,-219 267.75,-219 267.75,-225 261.75,-231 255.75,-231"/>
<text xml:space="preserve" text-anchor="middle" x="187" y="-209.5" font-family="Arial" font-size="10.00" fill="#1a1a1a">(+) descriptive annotation present</text>
</g>
<!-- text.description&#45;&gt;attr_4 -->
<g id="edge6" class="edge">
<title>text.description&#45;&gt;attr_4</title>
<path fill="none" stroke="#aaaaaa" d="M64.03,-187.55C74,-189.63 85.56,-192.04 97.51,-194.54"/>
<polygon fill="#aaaaaa" stroke="#aaaaaa" points="97,-196.93 104.35,-195.97 98,-192.14 97,-196.93"/>
</g>
<!-- rel_3 -->
<g id="node16" class="node">
<title>rel_3</title>
<path fill="#f5b8b8" stroke="#d46a6a" stroke-width="1.2" d="M210.75,-166C210.75,-166 163.25,-166 163.25,-166 157.25,-166 151.25,-160 151.25,-154 151.25,-154 151.25,-142 151.25,-142 151.25,-136 157.25,-130 163.25,-130 163.25,-130 210.75,-130 210.75,-130 216.75,-130 222.75,-136 222.75,-142 222.75,-142 222.75,-154 222.75,-154 222.75,-160 216.75,-166 210.75,-166"/>
<text xml:space="preserve" text-anchor="middle" x="187" y="-144.5" font-family="Arial" font-size="10.00" fill="#8b0000">supplements</text>
</g>
<!-- text.description&#45;&gt;rel_3 -->
<g id="edge13" class="edge">
<title>text.description&#45;&gt;rel_3</title>
<path fill="none" stroke="#d46a6a" stroke-width="1.5" d="M64.03,-174.24C86.22,-169.47 116.28,-163 141,-157.68"/>
<polygon fill="#d46a6a" stroke="#d46a6a" stroke-width="1.5" points="141.43,-160.45 148.67,-156.03 140.26,-154.98 141.43,-160.45"/>
</g>
<!-- rel_0&#45;&gt;property.color -->
<g id="edge8" class="edge">
<title>rel_0&#45;&gt;property.color</title>
<path fill="none" stroke="#d46a6a" stroke-width="1.5" d="M227.03,-337C248.96,-337 276.53,-337 299.93,-337"/>
<polygon fill="#d46a6a" stroke="#d46a6a" stroke-width="1.5" points="299.75,-339.8 307.75,-337 299.75,-334.2 299.75,-339.8"/>
</g>
<!-- rel_1&#45;&gt;whole.visualization -->
<g id="edge10" class="edge">
<title>rel_1&#45;&gt;whole.visualization</title>
<path fill="none" stroke="#d46a6a" stroke-width="1.5" d="M235.51,-18C260.16,-18 289.81,-18 312.66,-18"/>
<polygon fill="#d46a6a" stroke="#d46a6a" stroke-width="1.5" points="312.36,-20.8 320.36,-18 312.36,-15.2 312.36,-20.8"/>
</g>
<!-- rel_2&#45;&gt;mark.bar -->
<g id="edge12" class="edge">
<title>rel_2&#45;&gt;mark.bar</title>
<path fill="none" stroke="#d46a6a" stroke-width="1.5" d="M437.93,-273.65C363.16,-272.95 222.12,-276.16 106.25,-305 93.55,-308.16 80.26,-313.31 68.53,-318.56"/>
<polygon fill="#d46a6a" stroke="#d46a6a" stroke-width="1.5" points="67.62,-315.89 61.55,-321.8 69.98,-320.97 67.62,-315.89"/>
</g>
<!-- rel_3&#45;&gt;text.axis_label -->
<g id="edge14" class="edge">
<title>rel_3&#45;&gt;text.axis_label</title>
<path fill="none" stroke="#d46a6a" stroke-width="1.5" d="M222.99,-148C248.01,-148 281.78,-148 308.1,-148"/>
<polygon fill="#d46a6a" stroke="#d46a6a" stroke-width="1.5" points="307.87,-150.8 315.87,-148 307.87,-145.2 307.87,-150.8"/>
</g>
</g>
</svg>
