<?xml version="1.0" encoding="UTF-8" standalone="no"?>
<!DOCTYPE svg PUBLIC "-//W3C//DTD SVG 1.1//EN"
 "http://www.w3.org/Graphics/SVG/1.1/DTD/svg11.dtd">
<!-- Generated by graphviz version 14.1.5 (20260411.2331)
 -->
<!-- Title: wsj340.png_B Pages: 1 -->
<svg width="1626pt" height="606pt"
 viewBox="0.00 0.00 1626.00 606.00" xmlns="http://www.w3.org/2000/svg" xmlns:xlink="http://www.w3.org/1999/xlink">
<g id="graph0" class="graph" transform="scale(2.08333 2.08333) rotate(0) translate(4 286.75)">
<title>wsj340.png_B</title>
<polygon fill="white" stroke="none" points="-4,4 -4,-286.75 776.5,-286.75 776.5,4 -4,4"/>
<text xml:space="preserve" text-anchor="start" x="300.38" y="-262.45" font-family="Arial" font-weight="bold" font-size="14.00">wsj340.png — Condition B</text>
<path fill="#b8e6b8" stroke="none" d="M265.25,-237C265.25,-237 273.25,-237 273.25,-237 276.25,-237 279.25,-240 279.25,-243 279.25,-243 279.25,-249 279.25,-249 279.25,-252 276.25,-255 273.25,-255 273.25,-255 265.25,-255 265.25,-255 262.25,-255 259.25,-252 259.25,-249 259.25,-249 259.25,-243 259.25,-243 259.25,-240 262.25,-237 265.25,-237"/>
<path fill="none" stroke="black" d="M265.25,-237C265.25,-237 273.25,-237 273.25,-237 276.25,-237 279.25,-240 279.25,-243 279.25,-243 279.25,-249 279.25,-249 279.25,-252 276.25,-255 273.25,-255 273.25,-255 265.25,-255 265.25,-255 262.25,-255 259.25,-252 259.25,-249 259.25,-249 259.25,-243 259.25,-243 259.25,-240 262.25,-237 265.25,-237"/>
<text xml:space="preserve" text-anchor="start" x="267.75" y="-242.25" font-family="Arial" font-size="10.00"> </text>
<text xml:space="preserve" text-anchor="start" x="283.25" y="-242.25" font-family="Arial" font-size="10.00">Object</text>
<path fill="#c7b8e6" stroke="none" d="M321.75,-237C321.75,-237 329.75,-237 329.75,-237 332.75,-237 335.75,-240 335.75,-243 335.75,-243 335.75,-249 335.75,-249 335.75,-252 332.75,-255 329.75,-255 329.75,-255 321.75,-255 321.75,-255 318.75,-255 315.75,-252 315.75,-249 315.75,-249 315.75,-243 315.75,-243 315.75,-240 318.75,-237 321.75,-237"/>
<path fill="none" stroke="black" d="M321.75,-237C321.75,-237 329.75,-237 329.75,-237 332.75,-237 335.75,-240 335.75,-243 335.75,-243 335.75,-249 335.75,-249 335.75,-252 332.75,-255 329.75,-255 329.75,-255 321.75,-255 321.75,-255 318.75,-255 315.75,-252 315.75,-249 315.75,-249 315.75,-243 315.75,-243 315.75,-240 318.75,-237 321.75,-237"/>
<text xml:space="preserve" text-anchor="start" x="324.25" y="-242.25" font-family="Arial" font-size="10.00"> </text>
<text xml:space="preserve" text-anchor="start" x="339.75" y="-242.25" font-family="Arial" font-size="10.00">Attr (+)</text>
<path fill="#e8dff5" stroke="none" d="M380.5,-237C380.5,-237 388.5,-237 388.5,-237 391.5,-237 394.5,-240 394.5,-243 394.5,-243 394.5,-249 394.5,-249 394.5,-252 391.5,-255 388.5,-255 388.5,-255 380.5,-255 380.5,-255 377.5,-255 374.5,-252 374.5,-249 374.5,-249 374.5,-243 374.5,-243 374.5,-240 377.5,-237 380.5,-237"/>
<path fill="none" stroke="black" d="M380.5,-237C380.5,-237 388.5,-237 388.5,-237 391.5,-237 394.5,-240 394.5,-243 394.5,-243 394.5,-249 394.5,-249 394.5,-252 391.5,-255 388.5,-255 388.5,-255 380.5,-255 380.5,-255 377.5,-255 374.5,-252 374.5,-249 374.5,-249 374.5,-243 374.5,-243 374.5,-240 377.5,-237 380.5,-237"/>
<text xml:space="preserve" text-anchor="start" x="383" y="-242.25" font-family="Arial" font-size="10.00"> </text>
<text xml:space="preserve" text-anchor="start" x="398.5" y="-242.25" font-family="Arial" font-size="10.00">Attr (−)</text>
<path fill="#f5b8b8" stroke="none" d="M439.25,-237C439.25,-237 447.25,-237 447.25,-237 450.25,-237 453.25,-240 453.25,-243 453.25,-243 453.25,-249 453.25,-249 453.25,-252 450.25,-255 447.25,-255 447.25,-255 439.25,-255 439.25,-255 436.25,-255 433.25,-252 433.25,-249 433.25,-249 433.25,-243 433.25,-243 433.25,-240 436.25,-237 439.25,-237"/>
<path fill="none" stroke="black" d="M439.25,-237C439.25,-237 447.25,-237 447.25,-237 450.25,-237 453.25,-240 453.25,-243 453.25,-243 453.25,-249 453.25,-249 453.25,-252 450.25,-255 447.25,-255 447.25,-255 439.25,-255 439.25,-255 436.25,-255 433.25,-252 433.25,-249 433.25,-249 433.25,-243 433.25,-243 433.25,-240 436.25,-237 439.25,-237"/>
<text xml:space="preserve" text-anchor="start" x="441.75" y="-242.25" font-family="Arial" font-size="10.00"> </text>
<text xml:space="preserve" text-anchor="start" x="457.25" y="-242.25" font-family="Arial" font-size="10.00">Relationship</text>
<!-- whole.visualization -->
<g id="node1" class="node">
<title>whole.visualization</title>
<path fill="#b8e6b8" stroke="#2c3e50" stroke-width="1.8" d="M605.5,-101C605.5,-101 575.5,-101 575.5,-101 569.5,-101 563.5,-95 563.5,-89 563.5,-89 563.5,-77 563.5,-77 563.5,-71 569.5,-65 575.5,-65 575.5,-65 605.5,-65 605.5,-65 611.5,-65 617.5,-71 617.5,-77 617.5,-77 617.5,-89 617.5,-89 617.5,-95 611.5,-101 605.5,-101"/>
<text xml:space="preserve" text-anchor="middle" x="590.5" y="-79.5" font-family="Arial" font-size="10.00" fill="#1a1a1a">chart</text>
</g>
<!-- attr_0 -->
<g id="node6" class="node">
<title>attr_0</title>
<path fill="#e8dff5" stroke="#7f8c8d" stroke-width="1.2" d="M760.5,-101C760.5,-101 672.5,-101 672.5,-101 666.5,-101 660.5,-95 660.5,-89 660.5,-89 660.5,-77 660.5,-77 660.5,-71 666.5,-65 672.5,-65 672.5,-65 760.5,-65 760.5,-65 766.5,-65 772.5,-71 772.5,-77 772.5,-77 772.5,-89 772.5,-89 772.5,-95 766.5,-101 760.5,-101"/>
<text xml:space="preserve" text-anchor="middle" x="716.5" y="-79.5" font-family="Arial" font-size="10.00" fill="#1a1a1a">(−) low visual demand</text>
</g>
<!-- whole.visualization&#45;&gt;attr_0 -->
<g id="edge1" class="edge">
<title>whole.visualization&#45;&gt;attr_0</title>
<path fill="none" stroke="#aaaaaa" d="M618.1,-83C628.1,-83 639.96,-83 651.89,-83"/>
<polygon fill="#aaaaaa" stroke="#aaaaaa" points="651.62,-85.45 658.62,-83 651.62,-80.55 651.62,-85.45"/>
</g>
<!-- text.title -->
<g id="node2" class="node">
<title>text.title</title>
<path fill="#b8e6b8" stroke="#2c3e50" stroke-width="1.8" d="M42,-199C42,-199 12,-199 12,-199 6,-199 0,-193 0,-187 0,-187 0,-175 0,-175 0,-169 6,-163 12,-163 12,-163 42,-163 42,-163 48,-163 54,-169 54,-175 54,-175 54,-187 54,-187 54,-193 48,-199 42,-199"/>
<text xml:space="preserve" text-anchor="middle" x="27" y="-177.5" font-family="Arial" font-size="10.00" fill="#1a1a1a">title</text>
</g>
<!-- attr_1 -->
<g id="node7" class="node">
<title>attr_1</title>
<path fill="#e8dff5" stroke="#7f8c8d" stroke-width="1.2" d="M189.12,-199C189.12,-199 113.12,-199 113.12,-199 107.12,-199 101.12,-193 101.12,-187 101.12,-187 101.12,-175 101.12,-175 101.12,-169 107.12,-163 113.12,-163 113.12,-163 189.12,-163 189.12,-163 195.12,-163 201.12,-169 201.12,-175 201.12,-175 201.12,-187 201.12,-187 201.12,-193 195.12,-199 189.12,-199"/>
<text xml:space="preserve" text-anchor="middle" x="151.12" y="-177.5" font-family="Arial" font-size="10.00" fill="#1a1a1a">(−) clarifies content</text>
</g>
<!-- text.title&#45;&gt;attr_1 -->
<g id="edge2" class="edge">
<title>text.title&#45;&gt;attr_1</title>
<path fill="none" stroke="#aaaaaa" d="M54.8,-181C65.96,-181 79.39,-181 92.59,-181"/>
<polygon fill="#aaaaaa" stroke="#aaaaaa" points="92.25,-183.45 99.25,-181 92.25,-178.55 92.25,-183.45"/>
</g>
<!-- text.label -->
<g id="node3" class="node">
<title>text.label</title>
<path fill="#b8e6b8" stroke="#2c3e50" stroke-width="1.8" d="M42,-101C42,-101 12,-101 12,-101 6,-101 0,-95 0,-89 0,-89 0,-77 0,-77 0,-71 6,-65 12,-65 12,-65 42,-65 42,-65 48,-65 54,-71 54,-77 54,-77 54,-89 54,-89 54,-95 48,-101 42,-101"/>
<text xml:space="preserve" text-anchor="middle" x="27" y="-79.5" font-family="Arial" font-size="10.00" fill="#1a1a1a">labels</text>
</g>
<!-- attr_2 -->
<g id="node8" class="node">
<title>attr_2</title>
<path fill="#e8dff5" stroke="#7f8c8d" stroke-width="1.2" d="M193.25,-134C193.25,-134 109,-134 109,-134 103,-134 97,-128 97,-122 97,-122 97,-110 97,-110 97,-104 103,-98 109,-98 109,-98 193.25,-98 193.25,-98 199.25,-98 205.25,-104 205.25,-110 205.25,-110 205.25,-122 205.25,-122 205.25,-128 199.25,-134 193.25,-134"/>
<text xml:space="preserve" text-anchor="middle" x="151.12" y="-112.5" font-family="Arial" font-size="10.00" fill="#1a1a1a">(−) aids interpretation</text>
</g>
<!-- text.label&#45;&gt;attr_2 -->
<g id="edge3" class="edge">
<title>text.label&#45;&gt;attr_2</title>
<path fill="none" stroke="#aaaaaa" d="M54.8,-90.24C64.84,-92.96 76.71,-96.16 88.6,-99.38"/>
<polygon fill="#aaaaaa" stroke="#aaaaaa" points="87.96,-101.74 95.35,-101.2 89.23,-97.01 87.96,-101.74"/>
</g>
<!-- rel_2 -->
<g id="node13" class="node">
<title>rel_2</title>
<path fill="#f5b8b8" stroke="#d46a6a" stroke-width="1.2" d="M185.75,-69C185.75,-69 116.5,-69 116.5,-69 110.5,-69 104.5,-63 104.5,-57 104.5,-57 104.5,-45 104.5,-45 104.5,-39 110.5,-33 116.5,-33 116.5,-33 185.75,-33 185.75,-33 191.75,-33 197.75,-39 197.75,-45 197.75,-45 197.75,-57 197.75,-57 197.75,-63 191.75,-69 185.75,-69"/>
<text xml:space="preserve" text-anchor="middle" x="151.12" y="-47.5" font-family="Arial" font-size="10.00" fill="#8b0000">aids interpretation</text>
</g>
<!-- text.label&#45;&gt;rel_2 -->
<g id="edge10" class="edge">
<title>text.label&#45;&gt;rel_2</title>
<path fill="none" stroke="#d46a6a" stroke-width="1.5" d="M54.8,-75.98C66.44,-72.93 80.53,-69.23 94.27,-65.63"/>
<polygon fill="#d46a6a" stroke="#d46a6a" stroke-width="1.5" points="94.95,-68.35 101.98,-63.62 93.53,-62.93 94.95,-68.35"/>
</g>
<!-- unknown.colored_segments -->
<g id="node4" class="node">
<title>unknown.colored_segments</title>
<path fill="#b8e6b8" stroke="#2c3e50" stroke-width="1.8" d="M329.5,-69C329.5,-69 260.25,-69 260.25,-69 254.25,-69 248.25,-63 248.25,-57 248.25,-57 248.25,-45 248.25,-45 248.25,-39 254.25,-33 260.25,-33 260.25,-33 329.5,-33 329.5,-33 335.5,-33 341.5,-39 341.5,-45 341.5,-45 341.5,-57 341.5,-57 341.5,-63 335.5,-69 329.5,-69"/>
<text xml:space="preserve" text-anchor="middle" x="294.88" y="-47.5" font-family="Arial" font-size="10.00" fill="#1a1a1a">colored segments</text>
</g>
<!-- attr_3 -->
<g id="node9" class="node">
<title>attr_3</title>
<path fill="#e8dff5" stroke="#7f8c8d" stroke-width="1.2" d="M495.75,-101C495.75,-101 409.25,-101 409.25,-101 403.25,-101 397.25,-95 397.25,-89 397.25,-89 397.25,-77 397.25,-77 397.25,-71 403.25,-65 409.25,-65 409.25,-65 495.75,-65 495.75,-65 501.75,-65 507.75,-71 507.75,-77 507.75,-77 507.75,-89 507.75,-89 507.75,-95 501.75,-101 495.75,-101"/>
<text xml:space="preserve" text-anchor="middle" x="452.5" y="-79.5" font-family="Arial" font-size="10.00" fill="#1a1a1a">(−) few distinct colors</text>
</g>
<!-- unknown.colored_segments&#45;&gt;attr_3 -->
<g id="edge4" class="edge">
<title>unknown.colored_segments&#45;&gt;attr_3</title>
<path fill="none" stroke="#aaaaaa" d="M342.15,-60.51C356.8,-63.53 373.24,-66.91 388.84,-70.12"/>
<polygon fill="#aaaaaa" stroke="#aaaaaa" points="388.07,-72.46 395.42,-71.47 389.06,-67.66 388.07,-72.46"/>
</g>
<!-- rel_1 -->
<g id="node12" class="node">
<title>rel_1</title>
<path fill="#f5b8b8" stroke="#d46a6a" stroke-width="1.2" d="M495,-36C495,-36 410,-36 410,-36 404,-36 398,-30 398,-24 398,-24 398,-12 398,-12 398,-6 404,0 410,0 410,0 495,0 495,0 501,0 507,-6 507,-12 507,-12 507,-24 507,-24 507,-30 501,-36 495,-36"/>
<text xml:space="preserve" text-anchor="middle" x="452.5" y="-14.5" font-family="Arial" font-size="10.00" fill="#8b0000">visually simple within</text>
</g>
<!-- unknown.colored_segments&#45;&gt;rel_1 -->
<g id="edge8" class="edge">
<title>unknown.colored_segments&#45;&gt;rel_1</title>
<path fill="none" stroke="#d46a6a" stroke-width="1.5" d="M342.15,-41.19C356.4,-38.16 372.36,-34.78 387.59,-31.55"/>
<polygon fill="#d46a6a" stroke="#d46a6a" stroke-width="1.5" points="388,-34.33 395.24,-29.93 386.84,-28.85 388,-34.33"/>
</g>
<!-- text.description -->
<g id="node5" class="node">
<title>text.description</title>
<path fill="#b8e6b8" stroke="#2c3e50" stroke-width="1.8" d="M314.5,-198C314.5,-198 275.25,-198 275.25,-198 269.25,-198 263.25,-192 263.25,-186 263.25,-186 263.25,-174 263.25,-174 263.25,-168 269.25,-162 275.25,-162 275.25,-162 314.5,-162 314.5,-162 320.5,-162 326.5,-168 326.5,-174 326.5,-174 326.5,-186 326.5,-186 326.5,-192 320.5,-198 314.5,-198"/>
<text xml:space="preserve" text-anchor="middle" x="294.88" y="-176.5" font-family="Arial" font-size="10.00" fill="#1a1a1a">description</text>
</g>
<!-- attr_4 -->
<g id="node10" class="node">
<title>attr_4</title>
<path fill="#e8dff5" stroke="#7f8c8d" stroke-width="1.2" d="M508.5,-231C508.5,-231 396.5,-231 396.5,-231 390.5,-231 384.5,-225 384.5,-219 384.5,-219 384.5,-207 384.5,-207 384.5,-201 390.5,-195 396.5,-195 396.5,-195 508.5,-195 508.5,-195 514.5,-195 520.5,-201 520.5,-207 520.5,-207 520.5,-219 520.5,-219 520.5,-225 514.5,-231 508.5,-231"/>
<text xml:space="preserve" text-anchor="middle" x="452.5" y="-209.5" font-family="Arial" font-size="10.00" fill="#1a1a1a">(−) explanatory text present</text>
</g>
<!-- text.description&#45;&gt;attr_4 -->
<g id="edge5" class="edge">
<title>text.description&#45;&gt;attr_4</title>
<path fill="none" stroke="#aaaaaa" d="M327.37,-186.68C341.54,-189.68 358.93,-193.37 376.17,-197.03"/>
<polygon fill="#aaaaaa" stroke="#aaaaaa" points="375.22,-199.33 382.58,-198.39 376.24,-194.54 375.22,-199.33"/>
</g>
<!-- rel_0 -->
<g id="node11" class="node">
<title>rel_0</title>
<path fill="#f5b8b8" stroke="#d46a6a" stroke-width="1.2" d="M502.88,-166C502.88,-166 402.12,-166 402.12,-166 396.12,-166 390.12,-160 390.12,-154 390.12,-154 390.12,-142 390.12,-142 390.12,-136 396.12,-130 402.12,-130 402.12,-130 502.88,-130 502.88,-130 508.88,-130 514.88,-136 514.88,-142 514.88,-142 514.88,-154 514.88,-154 514.88,-160 508.88,-166 502.88,-166"/>
<text xml:space="preserve" text-anchor="middle" x="452.5" y="-144.5" font-family="Arial" font-size="10.00" fill="#8b0000">reduces cognitive load of</text>
</g>
<!-- text.description&#45;&gt;rel_0 -->
<g id="edge6" class="edge">
<title>text.description&#45;&gt;rel_0</title>
<path fill="none" stroke="#d46a6a" stroke-width="1.5" d="M327.37,-173.52C342.58,-170.4 361.49,-166.51 379.94,-162.71"/>
<polygon fill="#d46a6a" stroke="#d46a6a" stroke-width="1.5" points="380.32,-165.49 387.59,-161.14 379.19,-160.01 380.32,-165.49"/>
</g>
<!-- rel_0&#45;&gt;whole.visualization -->
<g id="edge7" class="edge">
<title>rel_0&#45;&gt;whole.visualization</title>
<path fill="none" stroke="#d46a6a" stroke-width="1.5" d="M492.11,-129.55C511.46,-120.3 534.74,-109.17 553.68,-100.12"/>
<polygon fill="#d46a6a" stroke="#d46a6a" stroke-width="1.5" points="554.82,-102.68 560.83,-96.7 552.4,-97.63 554.82,-102.68"/>
</g>
<!-- rel_1&#45;&gt;whole.visualization -->
<g id="edge9" class="edge">
<title>rel_1&#45;&gt;whole.visualization</title>
<path fill="none" stroke="#d46a6a" stroke-width="1.5" d="M492.12,-36.44C501.41,-40.88 511.31,-45.61 520.5,-50 531.25,-55.14 542.94,-60.73 553.59,-65.82"/>
<polygon fill="#d46a6a" stroke="#d46a6a" stroke-width="1.5" points="552.16,-68.24 560.58,-69.17 554.57,-63.19 552.16,-68.24"/>
</g>
<!-- rel_2&#45;&gt;unknown.colored_segments -->
<g id="edge11" class="edge">
<title>rel_2&#45;&gt;unknown.colored_segments</title>
<path fill="none" stroke="#d46a6a" stroke-width="1.5" d="M198.15,-51C210.65,-51 224.33,-51 237.34,-51"/>
<polygon fill="#d46a6a" stroke="#d46a6a" stroke-width="1.5" points="237.33,-53.8 245.33,-51 237.33,-48.2 237.33,-53.8"/>
</g>
</g>
</svg>
