<?xml version="1.0" encoding="UTF-8" standalone="no"?>
<!DOCTYPE svg PUBLIC "-//W3C//DTD SVG 1.1//EN"
 "http://www.w3.org/Graphics/SVG/1.1/DTD/svg11.dtd">
<!-- Generated by graphviz version 14.1.5 (20260411.2331)
 -->
<!-- Title: wsj340.png_V2 Pages: 1 -->
<svg width="1830pt" height="1010pt"
 viewBox="0.00 0.00 1830.00 1010.00" xmlns="http://www.w3.org/2000/svg" xmlns:xlink="http://www.w3.org/1999/xlink">
<g id="graph0" class="graph" transform="scale(2.08333 2.08333) rotate(0) translate(4 480.75)">
<title>wsj340.png_V2</title>
<polygon fill="white" stroke="none" points="-4,4 -4,-480.75 874.5,-480.75 874.5,4 -4,4"/>
<text xml:space="preserve" text-anchor="start" x="346" y="-456.45" font-family="Arial" font-weight="bold" font-size="14.00">wsj340.png — Condition V2</text>
<path fill="#b8e6b8" stroke="none" d="M314.25,-431C314.25,-431 322.25,-431 322.25,-431 325.25,-431 328.25,-434 328.25,-437 328.25,-437 328.25,-443 328.25,-443 328.25,-446 325.25,-449 322.25,-449 322.25,-449 314.25,-449 314.25,-449 311.25,-449 308.25,-446 308.25,-443 308.25,-443 308.25,-437 308.25,-437 308.25,-434 311.25,-431 314.25,-431"/>
<path fill="none" stroke="black" d="M314.25,-431C314.25,-431 322.25,-431 322.25,-431 325.25,-431 328.25,-434 328.25,-437 328.25,-437 328.25,-443 328.25,-443 328.25,-446 325.25,-449 322.25,-449 322.25,-449 314.25,-449 314.25,-449 311.25,-449 308.25,-446 308.25,-443 308.25,-443 308.25,-437 308.25,-437 308.25,-434 311.25,-431 314.25,-431"/>
<text xml:space="preserve" text-anchor="start" x="316.75" y="-436.25" font-family="Arial" font-size="10.00"> </text>
<text xml:space="preserve" text-anchor="start" x="332.25" y="-436.25" font-family="Arial" font-size="10.00">Object</text>
<path fill="#c7b8e6" stroke="none" d="M370.75,-431C370.75,-431 378.75,-431 378.75,-431 381.75,-431 384.75,-434 384.75,-437 384.75,-437 384.75,-443 384.75,-443 384.75,-446 381.75,-449 378.75,-449 378.75,-449 370.75,-449 370.75,-449 367.75,-449 364.75,-446 364.75,-443 364.75,-443 364.75,-437 364.75,-437 364.75,-434 367.75,-431 370.75,-431"/>
<path fill="none" stroke="black" d="M370.75,-431C370.75,-431 378.75,-431 378.75,-431 381.75,-431 384.75,-434 384.75,-437 384.75,-437 384.75,-443 384.75,-443 384.75,-446 381.75,-449 378.75,-449 378.75,-449 370.75,-449 370.75,-449 367.75,-449 364.75,-446 364.75,-443 364.75,-443 364.75,-437 364.75,-437 364.75,-434 367.75,-431 370.75,-431"/>
<text xml:space="preserve" text-anchor="start" x="373.25" y="-436.25" font-family="Arial" font-size="10.00"> </text>
<text xml:space="preserve" text-anchor="start" x="388.75" y="-436.25" font-family="Arial" font-size="10.00">Attr (+)</text>
<path fill="#e8dff5" stroke="none" d="M429.5,-431C429.5,-431 437.5,-431 437.5,-431 440.5,-431 443.5,-434 443.5,-437 443.5,-437 443.5,-443 443.5,-443 443.5,-446 440.5,-449 437.5,-449 437.5,-449 429.5,-449 429.5,-449 426.5,-449 423.5,-446 423.5,-443 423.5,-443 423.5,-437 423.5,-437 423.5,-434 426.5,-431 429.5,-431"/>
<path fill="none" stroke="black" d="M429.5,-431C429.5,-431 437.5,-431 437.5,-431 440.5,-431 443.5,-434 443.5,-437 443.5,-437 443.5,-443 443.5,-443 443.5,-446 440.5,-449 437.5,-449 437.5,-449 429.5,-449 429.5,-449 426.5,-449 423.5,-446 423.5,-443 423.5,-443 423.5,-437 423.5,-437 423.5,-434 426.5,-431 429.5,-431"/>
<text xml:space="preserve" text-anchor="start" x="432" y="-436.25" font-family="Arial" font-size="10.00"> </text>
<text xml:space="preserve" text-anchor="start" x="447.5" y="-436.25" font-family="Arial" font-size="10.00">Attr (−)</text>
<path fill="#f5b8b8" stroke="none" d="M488.25,-431C488.25,-431 496.25,-431 496.25,-431 499.25,-431 502.25,-434 502.25,-437 502.25,-437 502.25,-443 502.25,-443 502.25,-446 499.25,-449 496.25,-449 496.25,-449 488.25,-449 488.25,-449 485.25,-449 482.25,-446 482.25,-443 482.25,-443 482.25,-437 482.25,-437 482.25,-434 485.25,-431 488.25,-431"/>
<path fill="none" stroke="black" d="M488.25,-431C488.25,-431 496.25,-431 496.25,-431 499.25,-431 502.25,-434 502.25,-437 502.25,-437 502.25,-443 502.25,-443 502.25,-446 499.25,-449 496.25,-449 496.25,-449 488.25,-449 488.25,-449 485.25,-449 482.25,-446 482.25,-443 482.25,-443 482.25,-437 482.25,-437 482.25,-434 485.25,-431 488.25,-431"/>
<text xml:space="preserve" text-anchor="start" x="490.75" y="-436.25" font-family="Arial" font-size="10.00"> </text>
<text xml:space="preserve" text-anchor="start" x="506.25" y="-436.25" font-family="Arial" font-size="10.00">Relationship</text>
<!-- whole.visualization -->
<g id="node1" class="node">
<title>whole.visualization</title>
<path fill="#b8e6b8" stroke="#2c3e50" stroke-width="1.8" d="M672,-133C672,-133 623.75,-133 623.75,-133 617.75,-133 611.75,-127 611.75,-121 611.75,-121 611.75,-109 611.75,-109 611.75,-103 617.75,-97 623.75,-97 623.75,-97 672,-97 672,-97 678,-97 684,-103 684,-109 684,-109 684,-121 684,-121 684,-127 678,-133 672,-133"/>
<text xml:space="preserve" text-anchor="middle" x="647.88" y="-111.5" font-family="Arial" font-size="10.00" fill="#1a1a1a">chart subtitle</text>
</g>
<!-- attr_0 -->
<g id="node5" class="node">
<title>attr_0</title>
<path fill="#c7b8e6" stroke="#7f8c8d" stroke-width="1.2" d="M850.25,-231C850.25,-231 747.25,-231 747.25,-231 741.25,-231 735.25,-225 735.25,-219 735.25,-219 735.25,-207 735.25,-207 735.25,-201 741.25,-195 747.25,-195 747.25,-195 850.25,-195 850.25,-195 856.25,-195 862.25,-201 862.25,-207 862.25,-207 862.25,-219 862.25,-219 862.25,-225 856.25,-231 850.25,-231"/>
<text xml:space="preserve" text-anchor="middle" x="798.75" y="-209.5" font-family="Arial" font-size="10.00" fill="#1a1a1a">(+) five distinct segments</text>
</g>
<!-- whole.visualization&#45;&gt;attr_0 -->
<g id="edge1" class="edge">
<title>whole.visualization&#45;&gt;attr_0</title>
<path fill="none" stroke="#aaaaaa" d="M683.95,-133.83C696.92,-144.06 712.1,-156.05 727,-165.5 741.39,-174.63 758.71,-182.75 772.61,-190.37"/>
<polygon fill="#aaaaaa" stroke="#aaaaaa" points="771.33,-192.46 778.63,-193.8 773.76,-188.2 771.33,-192.46"/>
</g>
<!-- whole.visualization&#45;&gt;attr_0 -->
<g id="edge9" class="edge">
<title>whole.visualization&#45;&gt;attr_0</title>
<path fill="none" stroke="#aaaaaa" d="M658.35,-133.75C672.45,-152.27 700.18,-177.49 727,-194.5 727.31,-194.7 727.63,-194.9 727.95,-195.1"/>
<polygon fill="#aaaaaa" stroke="#aaaaaa" points="726.22,-196.92 733.49,-198.41 728.74,-192.71 726.22,-196.92"/>
</g>
<!-- attr_1 -->
<g id="node6" class="node">
<title>attr_1</title>
<path fill="#e8dff5" stroke="#7f8c8d" stroke-width="1.2" d="M837.5,-166C837.5,-166 760,-166 760,-166 754,-166 748,-160 748,-154 748,-154 748,-142 748,-142 748,-136 754,-130 760,-130 760,-130 837.5,-130 837.5,-130 843.5,-130 849.5,-136 849.5,-142 849.5,-142 849.5,-154 849.5,-154 849.5,-160 843.5,-166 837.5,-166"/>
<text xml:space="preserve" text-anchor="middle" x="798.75" y="-144.5" font-family="Arial" font-size="10.00" fill="#1a1a1a">(−) clear donut form</text>
</g>
<!-- whole.visualization&#45;&gt;attr_1 -->
<g id="edge2" class="edge">
<title>whole.visualization&#45;&gt;attr_1</title>
<path fill="none" stroke="#aaaaaa" d="M684.53,-113.46C704.14,-116.21 728.72,-121.4 749.96,-127.18"/>
<polygon fill="#aaaaaa" stroke="#aaaaaa" points="749.07,-129.47 756.47,-129.01 750.39,-124.75 749.07,-129.47"/>
</g>
<!-- whole.visualization&#45;&gt;attr_1 -->
<g id="edge10" class="edge">
<title>whole.visualization&#45;&gt;attr_1</title>
<path fill="none" stroke="#aaaaaa" d="M684.53,-132.34C700.87,-137.3 720.67,-142.09 739.1,-145.65"/>
<polygon fill="#aaaaaa" stroke="#aaaaaa" points="738.65,-148.06 745.98,-146.93 739.54,-143.24 738.65,-148.06"/>
</g>
<!-- attr_6 -->
<g id="node7" class="node">
<title>attr_6</title>
<path fill="#e8dff5" stroke="#7f8c8d" stroke-width="1.2" d="M858.5,-101C858.5,-101 739,-101 739,-101 733,-101 727,-95 727,-89 727,-89 727,-77 727,-77 727,-71 733,-65 739,-65 739,-65 858.5,-65 858.5,-65 864.5,-65 870.5,-71 870.5,-77 870.5,-77 870.5,-89 870.5,-89 870.5,-95 864.5,-101 858.5,-101"/>
<text xml:space="preserve" text-anchor="middle" x="798.75" y="-79.5" font-family="Arial" font-size="10.00" fill="#1a1a1a">(−) dominant orange segment</text>
</g>
<!-- whole.visualization&#45;&gt;attr_6 -->
<g id="edge3" class="edge">
<title>whole.visualization&#45;&gt;attr_6</title>
<path fill="none" stroke="#aaaaaa" d="M684.53,-97.9C694.81,-94.85 706.45,-91.88 718.26,-89.23"/>
<polygon fill="#aaaaaa" stroke="#aaaaaa" points="718.65,-91.66 724.97,-87.78 717.61,-86.87 718.65,-91.66"/>
</g>
<!-- whole.visualization&#45;&gt;attr_6 -->
<g id="edge11" class="edge">
<title>whole.visualization&#45;&gt;attr_6</title>
<path fill="none" stroke="#aaaaaa" d="M684.53,-116.77C703.82,-114.2 727.93,-109.3 748.94,-103.77"/>
<polygon fill="#aaaaaa" stroke="#aaaaaa" points="749.55,-106.14 755.66,-101.94 748.26,-101.42 749.55,-106.14"/>
</g>
<!-- attr_7 -->
<g id="node8" class="node">
<title>attr_7</title>
<path fill="#e8dff5" stroke="#7f8c8d" stroke-width="1.2" d="M858.5,-36C858.5,-36 739,-36 739,-36 733,-36 727,-30 727,-24 727,-24 727,-12 727,-12 727,-6 733,0 739,0 739,0 858.5,0 858.5,0 864.5,0 870.5,-6 870.5,-12 870.5,-12 870.5,-24 870.5,-24 870.5,-30 864.5,-36 858.5,-36"/>
<text xml:space="preserve" text-anchor="middle" x="798.75" y="-14.5" font-family="Arial" font-size="10.00" fill="#1a1a1a">(−) varied muted color palette</text>
</g>
<!-- whole.visualization&#45;&gt;attr_7 -->
<g id="edge4" class="edge">
<title>whole.visualization&#45;&gt;attr_7</title>
<path fill="none" stroke="#aaaaaa" d="M658.33,-96.21C671.13,-79.3 695.23,-56.83 719.76,-40.22"/>
<polygon fill="#aaaaaa" stroke="#aaaaaa" points="720.9,-42.4 725.42,-36.53 718.22,-38.3 720.9,-42.4"/>
</g>
<!-- whole.visualization&#45;&gt;attr_7 -->
<g id="edge12" class="edge">
<title>whole.visualization&#45;&gt;attr_7</title>
<path fill="none" stroke="#aaaaaa" d="M683.5,-96.38C696.55,-86.07 711.9,-73.96 727,-64.5 741.17,-55.63 758.22,-47.84 772.03,-40.52"/>
<polygon fill="#aaaaaa" stroke="#aaaaaa" points="773.05,-42.75 778,-37.23 770.69,-38.46 773.05,-42.75"/>
</g>
<!-- text.title -->
<g id="node2" class="node">
<title>text.title</title>
<path fill="#b8e6b8" stroke="#2c3e50" stroke-width="1.8" d="M61.62,-327C61.62,-327 31.62,-327 31.62,-327 25.62,-327 19.62,-321 19.62,-315 19.62,-315 19.62,-303 19.62,-303 19.62,-297 25.62,-291 31.62,-291 31.62,-291 61.62,-291 61.62,-291 67.62,-291 73.62,-297 73.62,-303 73.62,-303 73.62,-315 73.62,-315 73.62,-321 67.62,-327 61.62,-327"/>
<text xml:space="preserve" text-anchor="middle" x="46.62" y="-305.5" font-family="Arial" font-size="10.00" fill="#1a1a1a">title</text>
</g>
<!-- attr_2 -->
<g id="node9" class="node">
<title>attr_2</title>
<path fill="#e8dff5" stroke="#7f8c8d" stroke-width="1.2" d="M230.62,-360C230.62,-360 162.88,-360 162.88,-360 156.88,-360 150.88,-354 150.88,-348 150.88,-348 150.88,-336 150.88,-336 150.88,-330 156.88,-324 162.88,-324 162.88,-324 230.62,-324 230.62,-324 236.62,-324 242.62,-330 242.62,-336 242.62,-336 242.62,-348 242.62,-348 242.62,-354 236.62,-360 230.62,-360"/>
<text xml:space="preserve" text-anchor="middle" x="196.75" y="-338.5" font-family="Arial" font-size="10.00" fill="#1a1a1a">(−) large bold title</text>
</g>
<!-- text.title&#45;&gt;attr_2 -->
<g id="edge5" class="edge">
<title>text.title&#45;&gt;attr_2</title>
<path fill="none" stroke="#aaaaaa" d="M74.45,-314.98C93.39,-319.2 119.41,-324.99 142.49,-330.14"/>
<polygon fill="#aaaaaa" stroke="#aaaaaa" points="141.68,-332.46 149.04,-331.59 142.74,-327.68 141.68,-332.46"/>
</g>
<!-- rel_3 -->
<g id="node17" class="node">
<title>rel_3</title>
<path fill="#f5b8b8" stroke="#d46a6a" stroke-width="1.2" d="M215.25,-295C215.25,-295 178.25,-295 178.25,-295 172.25,-295 166.25,-289 166.25,-283 166.25,-283 166.25,-271 166.25,-271 166.25,-265 172.25,-259 178.25,-259 178.25,-259 215.25,-259 215.25,-259 221.25,-259 227.25,-265 227.25,-271 227.25,-271 227.25,-283 227.25,-283 227.25,-289 221.25,-295 215.25,-295"/>
<text xml:space="preserve" text-anchor="middle" x="196.75" y="-273.5" font-family="Arial" font-size="10.00" fill="#8b0000">introduces</text>
</g>
<!-- text.title&#45;&gt;rel_3 -->
<g id="edge26" class="edge">
<title>text.title&#45;&gt;rel_3</title>
<path fill="none" stroke="#d46a6a" stroke-width="1.5" d="M74.45,-303.21C97.19,-298.29 130.13,-291.18 155.95,-285.6"/>
<polygon fill="#d46a6a" stroke="#d46a6a" stroke-width="1.5" points="156.37,-288.37 163.6,-283.95 155.18,-282.9 156.37,-288.37"/>
</g>
<!-- text.label -->
<g id="node3" class="node">
<title>text.label</title>
<path fill="#b8e6b8" stroke="#2c3e50" stroke-width="1.8" d="M370.25,-295C370.25,-295 312.25,-295 312.25,-295 306.25,-295 300.25,-289 300.25,-283 300.25,-283 300.25,-271 300.25,-271 300.25,-265 306.25,-259 312.25,-259 312.25,-259 370.25,-259 370.25,-259 376.25,-259 382.25,-265 382.25,-271 382.25,-271 382.25,-283 382.25,-283 382.25,-289 376.25,-295 370.25,-295"/>
<text xml:space="preserve" text-anchor="middle" x="341.25" y="-273.5" font-family="Arial" font-size="10.00" fill="#1a1a1a">segment labels</text>
</g>
<!-- attr_3 -->
<g id="node10" class="node">
<title>attr_3</title>
<path fill="#c7b8e6" stroke="#7f8c8d" stroke-width="1.2" d="M556.38,-393C556.38,-393 437.62,-393 437.62,-393 431.62,-393 425.62,-387 425.62,-381 425.62,-381 425.62,-369 425.62,-369 425.62,-363 431.62,-357 437.62,-357 437.62,-357 556.38,-357 556.38,-357 562.38,-357 568.38,-363 568.38,-369 568.38,-369 568.38,-381 568.38,-381 568.38,-387 562.38,-393 556.38,-393"/>
<text xml:space="preserve" text-anchor="middle" x="497" y="-371.5" font-family="Arial" font-size="10.00" fill="#1a1a1a">(+) multi line explanatory text</text>
</g>
<!-- text.label&#45;&gt;attr_3 -->
<g id="edge6" class="edge">
<title>text.label&#45;&gt;attr_3</title>
<path fill="none" stroke="#aaaaaa" d="M383,-285.03C396.01,-294.17 410.8,-305.17 425.25,-314 444.88,-325.99 469.77,-336.21 484.19,-350.28"/>
<polygon fill="#aaaaaa" stroke="#aaaaaa" points="482.24,-351.77 488.69,-355.43 485.93,-348.54 482.24,-351.77"/>
</g>
<!-- text.label&#45;&gt;attr_3 -->
<g id="edge13" class="edge">
<title>text.label&#45;&gt;attr_3</title>
<path fill="none" stroke="#aaaaaa" d="M362.68,-295.62C378.87,-309.76 402.47,-329.09 425.25,-343 430.96,-346.48 437.11,-349.82 443.31,-352.93"/>
<polygon fill="#aaaaaa" stroke="#aaaaaa" points="441.88,-354.96 449.25,-355.82 444.02,-350.55 441.88,-354.96"/>
</g>
<!-- text.label&#45;&gt;attr_3 -->
<g id="edge16" class="edge">
<title>text.label&#45;&gt;attr_3</title>
<path fill="none" stroke="#aaaaaa" d="M346.98,-295.58C358.24,-319.8 387.9,-347.61 417.71,-367.22"/>
<polygon fill="#aaaaaa" stroke="#aaaaaa" points="416.37,-369.27 423.6,-370.96 419,-365.13 416.37,-369.27"/>
</g>
<!-- attr_4 -->
<g id="node11" class="node">
<title>attr_4</title>
<path fill="#c7b8e6" stroke="#7f8c8d" stroke-width="1.2" d="M556.75,-328C556.75,-328 437.25,-328 437.25,-328 431.25,-328 425.25,-322 425.25,-316 425.25,-316 425.25,-304 425.25,-304 425.25,-298 431.25,-292 437.25,-292 437.25,-292 556.75,-292 556.75,-292 562.75,-292 568.75,-298 568.75,-304 568.75,-304 568.75,-316 568.75,-316 568.75,-322 562.75,-328 556.75,-328"/>
<text xml:space="preserve" text-anchor="middle" x="497" y="-306.5" font-family="Arial" font-size="10.00" fill="#1a1a1a">(+) numeric center annotation</text>
</g>
<!-- text.label&#45;&gt;attr_4 -->
<g id="edge7" class="edge">
<title>text.label&#45;&gt;attr_4</title>
<path fill="none" stroke="#aaaaaa" d="M383.05,-266.29C410.7,-268.45 446.41,-277.02 470.2,-287.72"/>
<polygon fill="#aaaaaa" stroke="#aaaaaa" points="469.06,-289.89 476.43,-290.76 471.21,-285.49 469.06,-289.89"/>
</g>
<!-- text.label&#45;&gt;attr_4 -->
<g id="edge14" class="edge">
<title>text.label&#45;&gt;attr_4</title>
<path fill="none" stroke="#aaaaaa" d="M383.05,-285.76C393.46,-287.99 405.01,-290.47 416.63,-292.97"/>
<polygon fill="#aaaaaa" stroke="#aaaaaa" points="415.84,-295.3 423.2,-294.37 416.87,-290.51 415.84,-295.3"/>
</g>
<!-- text.label&#45;&gt;attr_4 -->
<g id="edge17" class="edge">
<title>text.label&#45;&gt;attr_4</title>
<path fill="none" stroke="#aaaaaa" d="M360.8,-295.75C374.97,-303.25 395.56,-309.99 416.41,-314.66"/>
<polygon fill="#aaaaaa" stroke="#aaaaaa" points="415.88,-317.05 423.24,-316.09 416.89,-312.25 415.88,-317.05"/>
</g>
<!-- attr_5 -->
<g id="node12" class="node">
<title>attr_5</title>
<path fill="#e8dff5" stroke="#7f8c8d" stroke-width="1.2" d="M551.5,-263C551.5,-263 442.5,-263 442.5,-263 436.5,-263 430.5,-257 430.5,-251 430.5,-251 430.5,-239 430.5,-239 430.5,-233 436.5,-227 442.5,-227 442.5,-227 551.5,-227 551.5,-227 557.5,-227 563.5,-233 563.5,-239 563.5,-239 563.5,-251 563.5,-251 563.5,-257 557.5,-263 551.5,-263"/>
<text xml:space="preserve" text-anchor="middle" x="497" y="-241.5" font-family="Arial" font-size="10.00" fill="#1a1a1a">(−) inline percentage labels</text>
</g>
<!-- text.label&#45;&gt;attr_5 -->
<g id="edge8" class="edge">
<title>text.label&#45;&gt;attr_5</title>
<path fill="none" stroke="#aaaaaa" d="M361.1,-258.21C376.53,-250.21 399.41,-243.16 421.96,-238.67"/>
<polygon fill="#aaaaaa" stroke="#aaaaaa" points="422.31,-241.1 428.75,-237.42 421.42,-236.28 422.31,-241.1"/>
</g>
<!-- text.label&#45;&gt;attr_5 -->
<g id="edge15" class="edge">
<title>text.label&#45;&gt;attr_5</title>
<path fill="none" stroke="#aaaaaa" d="M383.05,-268.51C394.98,-266.02 408.42,-263.23 421.75,-260.45"/>
<polygon fill="#aaaaaa" stroke="#aaaaaa" points="422.19,-262.87 428.54,-259.04 421.19,-258.07 422.19,-262.87"/>
</g>
<!-- text.label&#45;&gt;attr_5 -->
<g id="edge18" class="edge">
<title>text.label&#45;&gt;attr_5</title>
<path fill="none" stroke="#aaaaaa" d="M383.05,-287.97C410.7,-286 446.41,-277.66 470.2,-267.11"/>
<polygon fill="#aaaaaa" stroke="#aaaaaa" points="471.18,-269.36 476.42,-264.11 469.05,-264.95 471.18,-269.36"/>
</g>
<!-- rel_0 -->
<g id="node14" class="node">
<title>rel_0</title>
<path fill="#f5b8b8" stroke="#d46a6a" stroke-width="1.2" d="M523,-198C523,-198 471,-198 471,-198 465,-198 459,-192 459,-186 459,-186 459,-174 459,-174 459,-168 465,-162 471,-162 471,-162 523,-162 523,-162 529,-162 535,-168 535,-174 535,-174 535,-186 535,-186 535,-192 529,-198 523,-198"/>
<text xml:space="preserve" text-anchor="middle" x="497" y="-176.5" font-family="Arial" font-size="10.00" fill="#8b0000">directly labels</text>
</g>
<!-- text.label&#45;&gt;rel_0 -->
<g id="edge20" class="edge">
<title>text.label&#45;&gt;rel_0</title>
<path fill="none" stroke="#d46a6a" stroke-width="1.5" d="M363.4,-258.11C379.59,-244.25 402.86,-225.56 425.25,-212 432.79,-207.43 441.09,-203.11 449.28,-199.21"/>
<polygon fill="#d46a6a" stroke="#d46a6a" stroke-width="1.5" points="450.27,-201.83 456.36,-195.94 447.93,-196.75 450.27,-201.83"/>
</g>
<!-- rel_1 -->
<g id="node15" class="node">
<title>rel_1</title>
<path fill="#f5b8b8" stroke="#d46a6a" stroke-width="1.2" d="M512,-133C512,-133 482,-133 482,-133 476,-133 470,-127 470,-121 470,-121 470,-109 470,-109 470,-103 476,-97 482,-97 482,-97 512,-97 512,-97 518,-97 524,-103 524,-109 524,-109 524,-121 524,-121 524,-127 518,-133 512,-133"/>
<text xml:space="preserve" text-anchor="middle" x="497" y="-111.5" font-family="Arial" font-size="10.00" fill="#8b0000">clarifies</text>
</g>
<!-- text.label&#45;&gt;rel_1 -->
<g id="edge22" class="edge">
<title>text.label&#45;&gt;rel_1</title>
<path fill="none" stroke="#d46a6a" stroke-width="1.5" d="M350.01,-258.23C362.29,-230.58 388.61,-178.73 425.25,-147 435.38,-138.23 448.32,-131.44 460.35,-126.42"/>
<polygon fill="#d46a6a" stroke="#d46a6a" stroke-width="1.5" points="461.17,-129.11 467.61,-123.6 459.14,-123.89 461.17,-129.11"/>
</g>
<!-- rel_2 -->
<g id="node16" class="node">
<title>rel_2</title>
<path fill="#f5b8b8" stroke="#d46a6a" stroke-width="1.2" d="M530.88,-68C530.88,-68 463.12,-68 463.12,-68 457.12,-68 451.12,-62 451.12,-56 451.12,-56 451.12,-44 451.12,-44 451.12,-38 457.12,-32 463.12,-32 463.12,-32 530.88,-32 530.88,-32 536.88,-32 542.88,-38 542.88,-44 542.88,-44 542.88,-56 542.88,-56 542.88,-62 536.88,-68 530.88,-68"/>
<text xml:space="preserve" text-anchor="middle" x="497" y="-46.5" font-family="Arial" font-size="10.00" fill="#8b0000">anchors center of</text>
</g>
<!-- text.label&#45;&gt;rel_2 -->
<g id="edge24" class="edge">
<title>text.label&#45;&gt;rel_2</title>
<path fill="none" stroke="#d46a6a" stroke-width="1.5" d="M345.48,-258.38C352.96,-220.47 374.83,-133.56 425.25,-82 430.17,-76.96 436.04,-72.65 442.25,-68.97"/>
<polygon fill="#d46a6a" stroke="#d46a6a" stroke-width="1.5" points="443.15,-71.67 448.88,-65.42 440.5,-66.73 443.15,-71.67"/>
</g>
<!-- text.annotation -->
<g id="node4" class="node">
<title>text.annotation</title>
<path fill="#b8e6b8" stroke="#2c3e50" stroke-width="1.8" d="M81.25,-425C81.25,-425 12,-425 12,-425 6,-425 0,-419 0,-413 0,-413 0,-401 0,-401 0,-395 6,-389 12,-389 12,-389 81.25,-389 81.25,-389 87.25,-389 93.25,-395 93.25,-401 93.25,-401 93.25,-413 93.25,-413 93.25,-419 87.25,-425 81.25,-425"/>
<text xml:space="preserve" text-anchor="middle" x="46.62" y="-403.5" font-family="Arial" font-size="10.00" fill="#1a1a1a">source annotation</text>
</g>
<!-- attr_8 -->
<g id="node13" class="node">
<title>attr_8</title>
<path fill="#e8dff5" stroke="#7f8c8d" stroke-width="1.2" d="M245.25,-425C245.25,-425 148.25,-425 148.25,-425 142.25,-425 136.25,-419 136.25,-413 136.25,-413 136.25,-401 136.25,-401 136.25,-395 142.25,-389 148.25,-389 148.25,-389 245.25,-389 245.25,-389 251.25,-389 257.25,-395 257.25,-401 257.25,-401 257.25,-413 257.25,-413 257.25,-419 251.25,-425 245.25,-425"/>
<text xml:space="preserve" text-anchor="middle" x="196.75" y="-403.5" font-family="Arial" font-size="10.00" fill="#1a1a1a">(−) small source citation</text>
</g>
<!-- text.annotation&#45;&gt;attr_8 -->
<g id="edge19" class="edge">
<title>text.annotation&#45;&gt;attr_8</title>
<path fill="none" stroke="#aaaaaa" d="M94.09,-407C104.74,-407 116.28,-407 127.63,-407"/>
<polygon fill="#aaaaaa" stroke="#aaaaaa" points="127.33,-409.45 134.33,-407 127.33,-404.55 127.33,-409.45"/>
</g>
<!-- rel_0&#45;&gt;whole.visualization -->
<g id="edge21" class="edge">
<title>rel_0&#45;&gt;whole.visualization</title>
<path fill="none" stroke="#d46a6a" stroke-width="1.5" d="M535.57,-163.6C555.59,-154.86 580.37,-144.04 601.46,-134.83"/>
<polygon fill="#d46a6a" stroke="#d46a6a" stroke-width="1.5" points="602.57,-137.4 608.78,-131.63 600.33,-132.27 602.57,-137.4"/>
</g>
<!-- rel_1&#45;&gt;whole.visualization -->
<g id="edge23" class="edge">
<title>rel_1&#45;&gt;whole.visualization</title>
<path fill="none" stroke="#d46a6a" stroke-width="1.5" d="M524.27,-115C545.48,-115 575.82,-115 601.01,-115"/>
<polygon fill="#d46a6a" stroke="#d46a6a" stroke-width="1.5" points="600.82,-117.8 608.82,-115 600.82,-112.2 600.82,-117.8"/>
</g>
<!-- rel_2&#45;&gt;whole.visualization -->
<g id="edge25" class="edge">
<title>rel_2&#45;&gt;whole.visualization</title>
<path fill="none" stroke="#d46a6a" stroke-width="1.5" d="M540.26,-68.45C559.47,-76.84 582.22,-86.77 601.76,-95.3"/>
<polygon fill="#d46a6a" stroke="#d46a6a" stroke-width="1.5" points="600.53,-97.82 608.98,-98.46 602.77,-92.69 600.53,-97.82"/>
</g>
<!-- rel_3&#45;&gt;text.label -->
<g id="edge27" class="edge">
<title>rel_3&#45;&gt;text.label</title>
<path fill="none" stroke="#d46a6a" stroke-width="1.5" d="M227.62,-277C245.5,-277 268.68,-277 289.37,-277"/>
<polygon fill="#d46a6a" stroke="#d46a6a" stroke-width="1.5" points="289.34,-279.8 297.34,-277 289.34,-274.2 289.34,-279.8"/>
</g>
</g>
</svg>
