<?xml version="1.0" encoding="UTF-8" standalone="no"?>
<!DOCTYPE svg PUBLIC "-//W3C//DTD SVG 1.1//EN"
 "http://www.w3.org/Graphics/SVG/1.1/DTD/svg11.dtd">
<!-- Generated by graphviz version 14.1.5 (20260411.2331)
 -->
<!-- Title: SciVisJ.2926.1.png_V2 Pages: 1 -->
<svg width="1783pt" height="1012pt"
 viewBox="0.00 0.00 1783.00 1012.00" xmlns="http://www.w3.org/2000/svg" xmlns:xlink="http://www.w3.org/1999/xlink">
<g id="graph0" class="graph" transform="scale(2.08333 2.08333) rotate(0) translate(4 481.75)">
<title>SciVisJ.2926.1.png_V2</title>
<polygon fill="white" stroke="none" points="-4,4 -4,-481.75 852,-481.75 852,4 -4,4"/>
<text xml:space="preserve" text-anchor="start" x="310.75" y="-457.45" font-family="Arial" font-weight="bold" font-size="14.00">SciVisJ.2926.1.png — Condition V2</text>
<path fill="#b8e6b8" stroke="none" d="M303,-432C303,-432 311,-432 311,-432 314,-432 317,-435 317,-438 317,-438 317,-444 317,-444 317,-447 314,-450 311,-450 311,-450 303,-450 303,-450 300,-450 297,-447 297,-444 297,-444 297,-438 297,-438 297,-435 300,-432 303,-432"/>
<path fill="none" stroke="black" d="M303,-432C303,-432 311,-432 311,-432 314,-432 317,-435 317,-438 317,-438 317,-444 317,-444 317,-447 314,-450 311,-450 311,-450 303,-450 303,-450 300,-450 297,-447 297,-444 297,-444 297,-438 297,-438 297,-435 300,-432 303,-432"/>
<text xml:space="preserve" text-anchor="start" x="305.5" y="-437.25" font-family="Arial" font-size="10.00"> </text>
<text xml:space="preserve" text-anchor="start" x="321" y="-437.25" font-family="Arial" font-size="10.00">Object</text>
<path fill="#c7b8e6" stroke="none" d="M359.5,-432C359.5,-432 367.5,-432 367.5,-432 370.5,-432 373.5,-435 373.5,-438 373.5,-438 373.5,-444 373.5,-444 373.5,-447 370.5,-450 367.5,-450 367.5,-450 359.5,-450 359.5,-450 356.5,-450 353.5,-447 353.5,-444 353.5,-444 353.5,-438 353.5,-438 353.5,-435 356.5,-432 359.5,-432"/>
<path fill="none" stroke="black" d="M359.5,-432C359.5,-432 367.5,-432 367.5,-432 370.5,-432 373.5,-435 373.5,-438 373.5,-438 373.5,-444 373.5,-444 373.5,-447 370.5,-450 367.5,-450 367.5,-450 359.5,-450 359.5,-450 356.5,-450 353.5,-447 353.5,-444 353.5,-444 353.5,-438 353.5,-438 353.5,-435 356.5,-432 359.5,-432"/>
<text xml:space="preserve" text-anchor="start" x="362" y="-437.25" font-family="Arial" font-size="10.00"> </text>
<text xml:space="preserve" text-anchor="start" x="377.5" y="-437.25" font-family="Arial" font-size="10.00">Attr (+)</text>
<path fill="#e8dff5" stroke="none" d="M418.25,-432C418.25,-432 426.25,-432 426.25,-432 429.25,-432 432.25,-435 432.25,-438 432.25,-438 432.25,-444 432.25,-444 432.25,-447 429.25,-450 426.25,-450 426.25,-450 418.25,-450 418.25,-450 415.25,-450 412.25,-447 412.25,-444 412.25,-444 412.25,-438 412.25,-438 412.25,-435 415.25,-432 418.25,-432"/>
<path fill="none" stroke="black" d="M418.25,-432C418.25,-432 426.25,-432 426.25,-432 429.25,-432 432.25,-435 432.25,-438 432.25,-438 432.25,-444 432.25,-444 432.25,-447 429.25,-450 426.25,-450 426.25,-450 418.25,-450 418.25,-450 415.25,-450 412.25,-447 412.25,-444 412.25,-444 412.25,-438 412.25,-438 412.25,-435 415.25,-432 418.25,-432"/>
<text xml:space="preserve" text-anchor="start" x="420.75" y="-437.25" font-family="Arial" font-size="10.00"> </text>
<text xml:space="preserve" text-anchor="start" x="436.25" y="-437.25" font-family="Arial" font-size="10.00">Attr (−)</text>
<path fill="#f5b8b8" stroke="none" d="M477,-432C477,-432 485,-432 485,-432 488,-432 491,-435 491,-438 491,-438 491,-444 491,-444 491,-447 488,-450 485,-450 485,-450 477,-450 477,-450 474,-450 471,-447 471,-444 471,-444 471,-438 471,-438 471,-435 474,-432 477,-432"/>
<path fill="none" stroke="black" d="M477,-432C477,-432 485,-432 485,-432 488,-432 491,-435 491,-438 491,-438 491,-444 491,-444 491,-447 488,-450 485,-450 485,-450 477,-450 477,-450 474,-450 471,-447 471,-444 471,-444 471,-438 471,-438 471,-435 474,-432 477,-432"/>
<text xml:space="preserve" text-anchor="start" x="479.5" y="-437.25" font-family="Arial" font-size="10.00"> </text>
<text xml:space="preserve" text-anchor="start" x="495" y="-437.25" font-family="Arial" font-size="10.00">Relationship</text>
<!-- unknown.vortex_structure -->
<g id="node1" class="node">
<title>unknown.vortex_structure</title>
<path fill="#b8e6b8" stroke="#2c3e50" stroke-width="1.8" d="M364.25,-101C364.25,-101 304,-101 304,-101 298,-101 292,-95 292,-89 292,-89 292,-77 292,-77 292,-71 298,-65 304,-65 304,-65 364.25,-65 364.25,-65 370.25,-65 376.25,-71 376.25,-77 376.25,-77 376.25,-89 376.25,-89 376.25,-95 370.25,-101 364.25,-101"/>
<text xml:space="preserve" text-anchor="middle" x="334.12" y="-79.5" font-family="Arial" font-size="10.00" fill="#1a1a1a">vortex structure</text>
</g>
<!-- attr_0 -->
<g id="node6" class="node">
<title>attr_0</title>
<path fill="#c7b8e6" stroke="#7f8c8d" stroke-width="1.2" d="M558.62,-166C558.62,-166 442.88,-166 442.88,-166 436.88,-166 430.88,-160 430.88,-154 430.88,-154 430.88,-142 430.88,-142 430.88,-136 436.88,-130 442.88,-130 442.88,-130 558.62,-130 558.62,-130 564.62,-130 570.62,-136 570.62,-142 570.62,-142 570.62,-154 570.62,-154 570.62,-160 564.62,-166 558.62,-166"/>
<text xml:space="preserve" text-anchor="middle" x="500.75" y="-144.5" font-family="Arial" font-size="10.00" fill="#1a1a1a">(+) complex swirling 3d form</text>
</g>
<!-- unknown.vortex_structure&#45;&gt;attr_0 -->
<g id="edge1" class="edge">
<title>unknown.vortex_structure&#45;&gt;attr_0</title>
<path fill="none" stroke="#aaaaaa" d="M377.09,-99.57C397.8,-107.75 423.03,-117.71 445.22,-126.47"/>
<polygon fill="#aaaaaa" stroke="#aaaaaa" points="444.11,-128.66 451.52,-128.96 445.9,-124.11 444.11,-128.66"/>
</g>
<!-- attr_5 -->
<g id="node7" class="node">
<title>attr_5</title>
<path fill="#c7b8e6" stroke="#7f8c8d" stroke-width="1.2" d="M570.25,-101C570.25,-101 431.25,-101 431.25,-101 425.25,-101 419.25,-95 419.25,-89 419.25,-89 419.25,-77 419.25,-77 419.25,-71 425.25,-65 431.25,-65 431.25,-65 570.25,-65 570.25,-65 576.25,-65 582.25,-71 582.25,-77 582.25,-77 582.25,-89 582.25,-89 582.25,-95 576.25,-101 570.25,-101"/>
<text xml:space="preserve" text-anchor="middle" x="500.75" y="-79.5" font-family="Arial" font-size="10.00" fill="#1a1a1a">(+) visually overwhelming structur</text>
</g>
<!-- unknown.vortex_structure&#45;&gt;attr_5 -->
<g id="edge2" class="edge">
<title>unknown.vortex_structure&#45;&gt;attr_5</title>
<path fill="none" stroke="#aaaaaa" d="M377.09,-83C387.36,-83 398.75,-83 410.32,-83"/>
<polygon fill="#aaaaaa" stroke="#aaaaaa" points="410.26,-85.45 417.26,-83 410.26,-80.55 410.26,-85.45"/>
</g>
<!-- rel_2 -->
<g id="node15" class="node">
<title>rel_2</title>
<path fill="#f5b8b8" stroke="#d46a6a" stroke-width="1.2" d="M552.62,-36C552.62,-36 448.88,-36 448.88,-36 442.88,-36 436.88,-30 436.88,-24 436.88,-24 436.88,-12 436.88,-12 436.88,-6 442.88,0 448.88,0 448.88,0 552.62,0 552.62,0 558.62,0 564.62,-6 564.62,-12 564.62,-12 564.62,-24 564.62,-24 564.62,-30 558.62,-36 552.62,-36"/>
<text xml:space="preserve" text-anchor="middle" x="500.75" y="-14.5" font-family="Arial" font-size="10.00" fill="#8b0000">dominates visual focus of</text>
</g>
<!-- unknown.vortex_structure&#45;&gt;rel_2 -->
<g id="edge12" class="edge">
<title>unknown.vortex_structure&#45;&gt;rel_2</title>
<path fill="none" stroke="#d46a6a" stroke-width="1.5" d="M377.09,-66.43C397.26,-58.47 421.71,-48.81 443.47,-40.22"/>
<polygon fill="#d46a6a" stroke="#d46a6a" stroke-width="1.5" points="444.4,-42.86 450.81,-37.32 442.34,-37.66 444.4,-42.86"/>
</g>
<!-- mark.glyph -->
<g id="node2" class="node">
<title>mark.glyph</title>
<path fill="#b8e6b8" stroke="#2c3e50" stroke-width="1.8" d="M357.5,-328C357.5,-328 310.75,-328 310.75,-328 304.75,-328 298.75,-322 298.75,-316 298.75,-316 298.75,-304 298.75,-304 298.75,-298 304.75,-292 310.75,-292 310.75,-292 357.5,-292 357.5,-292 363.5,-292 369.5,-298 369.5,-304 369.5,-304 369.5,-316 369.5,-316 369.5,-322 363.5,-328 357.5,-328"/>
<text xml:space="preserve" text-anchor="middle" x="334.12" y="-306.5" font-family="Arial" font-size="10.00" fill="#1a1a1a">glyph spikes</text>
</g>
<!-- attr_1 -->
<g id="node8" class="node">
<title>attr_1</title>
<path fill="#c7b8e6" stroke="#7f8c8d" stroke-width="1.2" d="M555.62,-426C555.62,-426 445.88,-426 445.88,-426 439.88,-426 433.88,-420 433.88,-414 433.88,-414 433.88,-402 433.88,-402 433.88,-396 439.88,-390 445.88,-390 445.88,-390 555.62,-390 555.62,-390 561.62,-390 567.62,-396 567.62,-402 567.62,-402 567.62,-414 567.62,-414 567.62,-420 561.62,-426 555.62,-426"/>
<text xml:space="preserve" text-anchor="middle" x="500.75" y="-404.5" font-family="Arial" font-size="10.00" fill="#1a1a1a">(+) dense spike distribution</text>
</g>
<!-- mark.glyph&#45;&gt;attr_1 -->
<g id="edge3" class="edge">
<title>mark.glyph&#45;&gt;attr_1</title>
<path fill="none" stroke="#aaaaaa" d="M355.7,-328.9C372.03,-343.19 395.92,-362.58 419.25,-376 425.57,-379.63 432.38,-383.04 439.27,-386.17"/>
<polygon fill="#aaaaaa" stroke="#aaaaaa" points="437.98,-388.28 445.38,-388.85 439.95,-383.79 437.98,-388.28"/>
</g>
<!-- attr_4 -->
<g id="node9" class="node">
<title>attr_4</title>
<path fill="#c7b8e6" stroke="#7f8c8d" stroke-width="1.2" d="M557.12,-361C557.12,-361 444.38,-361 444.38,-361 438.38,-361 432.38,-355 432.38,-349 432.38,-349 432.38,-337 432.38,-337 432.38,-331 438.38,-325 444.38,-325 444.38,-325 557.12,-325 557.12,-325 563.12,-325 569.12,-331 569.12,-337 569.12,-337 569.12,-349 569.12,-349 569.12,-355 563.12,-361 557.12,-361"/>
<text xml:space="preserve" text-anchor="middle" x="500.75" y="-339.5" font-family="Arial" font-size="10.00" fill="#1a1a1a">(+) varied glyph orientations</text>
</g>
<!-- mark.glyph&#45;&gt;attr_4 -->
<g id="edge4" class="edge">
<title>mark.glyph&#45;&gt;attr_4</title>
<path fill="none" stroke="#aaaaaa" d="M370.04,-317C385.74,-320.15 404.94,-323.99 423.69,-327.75"/>
<polygon fill="#aaaaaa" stroke="#aaaaaa" points="423.15,-330.14 430.5,-329.12 424.12,-325.34 423.15,-330.14"/>
</g>
<!-- rel_0 -->
<g id="node13" class="node">
<title>rel_0</title>
<path fill="#f5b8b8" stroke="#d46a6a" stroke-width="1.2" d="M525.62,-296C525.62,-296 475.88,-296 475.88,-296 469.88,-296 463.88,-290 463.88,-284 463.88,-284 463.88,-272 463.88,-272 463.88,-266 469.88,-260 475.88,-260 475.88,-260 525.62,-260 525.62,-260 531.62,-260 537.62,-266 537.62,-272 537.62,-272 537.62,-284 537.62,-284 537.62,-290 531.62,-296 525.62,-296"/>
<text xml:space="preserve" text-anchor="middle" x="500.75" y="-274.5" font-family="Arial" font-size="10.00" fill="#8b0000">overlaps with</text>
</g>
<!-- mark.glyph&#45;&gt;rel_0 -->
<g id="edge8" class="edge">
<title>mark.glyph&#45;&gt;rel_0</title>
<path fill="none" stroke="#d46a6a" stroke-width="1.5" d="M370.04,-303.21C394.39,-298.48 427.14,-292.11 453.64,-286.96"/>
<polygon fill="#d46a6a" stroke="#d46a6a" stroke-width="1.5" points="453.92,-289.76 461.23,-285.49 452.85,-284.26 453.92,-289.76"/>
</g>
<!-- rel_3 -->
<g id="node16" class="node">
<title>rel_3</title>
<path fill="#f5b8b8" stroke="#d46a6a" stroke-width="1.2" d="M538,-231C538,-231 463.5,-231 463.5,-231 457.5,-231 451.5,-225 451.5,-219 451.5,-219 451.5,-207 451.5,-207 451.5,-201 457.5,-195 463.5,-195 463.5,-195 538,-195 538,-195 544,-195 550,-201 550,-207 550,-207 550,-219 550,-219 550,-225 544,-231 538,-231"/>
<text xml:space="preserve" text-anchor="middle" x="500.75" y="-209.5" font-family="Arial" font-size="10.00" fill="#8b0000">increases clutter in</text>
</g>
<!-- mark.glyph&#45;&gt;rel_3 -->
<g id="edge14" class="edge">
<title>mark.glyph&#45;&gt;rel_3</title>
<path fill="none" stroke="#d46a6a" stroke-width="1.5" d="M356.51,-291.22C372.89,-277.47 396.47,-259.03 419.25,-246 426.33,-241.95 434.01,-238.13 441.72,-234.64"/>
<polygon fill="#d46a6a" stroke="#d46a6a" stroke-width="1.5" points="442.81,-237.22 449.02,-231.45 440.57,-232.09 442.81,-237.22"/>
</g>
<!-- unknown.flow_field -->
<g id="node3" class="node">
<title>unknown.flow_field</title>
<path fill="#b8e6b8" stroke="#2c3e50" stroke-width="1.8" d="M668.25,-231C668.25,-231 637.25,-231 637.25,-231 631.25,-231 625.25,-225 625.25,-219 625.25,-219 625.25,-207 625.25,-207 625.25,-201 631.25,-195 637.25,-195 637.25,-195 668.25,-195 668.25,-195 674.25,-195 680.25,-201 680.25,-207 680.25,-207 680.25,-219 680.25,-219 680.25,-225 674.25,-231 668.25,-231"/>
<text xml:space="preserve" text-anchor="middle" x="652.75" y="-209.5" font-family="Arial" font-size="10.00" fill="#1a1a1a">flow field</text>
</g>
<!-- attr_2 -->
<g id="node10" class="node">
<title>attr_2</title>
<path fill="#c7b8e6" stroke="#7f8c8d" stroke-width="1.2" d="M836,-231C836,-231 735.25,-231 735.25,-231 729.25,-231 723.25,-225 723.25,-219 723.25,-219 723.25,-207 723.25,-207 723.25,-201 729.25,-195 735.25,-195 735.25,-195 836,-195 836,-195 842,-195 848,-201 848,-207 848,-207 848,-219 848,-219 848,-225 842,-231 836,-231"/>
<text xml:space="preserve" text-anchor="middle" x="785.62" y="-209.5" font-family="Arial" font-size="10.00" fill="#1a1a1a">(+) intricate flow patterns</text>
</g>
<!-- unknown.flow_field&#45;&gt;attr_2 -->
<g id="edge5" class="edge">
<title>unknown.flow_field&#45;&gt;attr_2</title>
<path fill="none" stroke="#aaaaaa" d="M680.87,-213C690.78,-213 702.51,-213 714.45,-213"/>
<polygon fill="#aaaaaa" stroke="#aaaaaa" points="714.22,-215.45 721.22,-213 714.22,-210.55 714.22,-215.45"/>
</g>
<!-- property.color -->
<g id="node4" class="node">
<title>property.color</title>
<path fill="#b8e6b8" stroke="#2c3e50" stroke-width="1.8" d="M68.5,-133C68.5,-133 15.75,-133 15.75,-133 9.75,-133 3.75,-127 3.75,-121 3.75,-121 3.75,-109 3.75,-109 3.75,-103 9.75,-97 15.75,-97 15.75,-97 68.5,-97 68.5,-97 74.5,-97 80.5,-103 80.5,-109 80.5,-109 80.5,-121 80.5,-121 80.5,-127 74.5,-133 68.5,-133"/>
<text xml:space="preserve" text-anchor="middle" x="42.12" y="-111.5" font-family="Arial" font-size="10.00" fill="#1a1a1a">color mapping</text>
</g>
<!-- attr_3 -->
<g id="node11" class="node">
<title>attr_3</title>
<path fill="#c7b8e6" stroke="#7f8c8d" stroke-width="1.2" d="M237,-166C237,-166 139.25,-166 139.25,-166 133.25,-166 127.25,-160 127.25,-154 127.25,-154 127.25,-142 127.25,-142 127.25,-136 133.25,-130 139.25,-130 139.25,-130 237,-130 237,-130 243,-130 249,-136 249,-142 249,-142 249,-154 249,-154 249,-160 243,-166 237,-166"/>
<text xml:space="preserve" text-anchor="middle" x="188.12" y="-144.5" font-family="Arial" font-size="10.00" fill="#1a1a1a">(+) multi hue color range</text>
</g>
<!-- property.color&#45;&gt;attr_3 -->
<g id="edge6" class="edge">
<title>property.color&#45;&gt;attr_3</title>
<path fill="none" stroke="#aaaaaa" d="M81.34,-123.76C92.86,-126.4 105.88,-129.38 118.74,-132.33"/>
<polygon fill="#aaaaaa" stroke="#aaaaaa" points="117.87,-134.64 125.24,-133.82 118.96,-129.87 117.87,-134.64"/>
</g>
<!-- rel_1 -->
<g id="node14" class="node">
<title>rel_1</title>
<path fill="#f5b8b8" stroke="#d46a6a" stroke-width="1.2" d="M223.5,-101C223.5,-101 152.75,-101 152.75,-101 146.75,-101 140.75,-95 140.75,-89 140.75,-89 140.75,-77 140.75,-77 140.75,-71 146.75,-65 152.75,-65 152.75,-65 223.5,-65 223.5,-65 229.5,-65 235.5,-71 235.5,-77 235.5,-77 235.5,-89 235.5,-89 235.5,-95 229.5,-101 223.5,-101"/>
<text xml:space="preserve" text-anchor="middle" x="188.12" y="-79.5" font-family="Arial" font-size="10.00" fill="#8b0000">encodes values in</text>
</g>
<!-- property.color&#45;&gt;rel_1 -->
<g id="edge10" class="edge">
<title>property.color&#45;&gt;rel_1</title>
<path fill="none" stroke="#d46a6a" stroke-width="1.5" d="M81.34,-106.51C96.45,-103.15 114.13,-99.22 130.67,-95.55"/>
<polygon fill="#d46a6a" stroke="#d46a6a" stroke-width="1.5" points="130.83,-98.38 138.03,-93.91 129.61,-92.91 130.83,-98.38"/>
</g>
<!-- text.annotation -->
<g id="node5" class="node">
<title>text.annotation</title>
<path fill="#b8e6b8" stroke="#2c3e50" stroke-width="1.8" d="M72.25,-231C72.25,-231 12,-231 12,-231 6,-231 0,-225 0,-219 0,-219 0,-207 0,-207 0,-201 6,-195 12,-195 12,-195 72.25,-195 72.25,-195 78.25,-195 84.25,-201 84.25,-207 84.25,-207 84.25,-219 84.25,-219 84.25,-225 78.25,-231 72.25,-231"/>
<text xml:space="preserve" text-anchor="middle" x="42.12" y="-209.5" font-family="Arial" font-size="10.00" fill="#1a1a1a">annotation label</text>
</g>
<!-- attr_6 -->
<g id="node12" class="node">
<title>attr_6</title>
<path fill="#e8dff5" stroke="#7f8c8d" stroke-width="1.2" d="M235.88,-231C235.88,-231 140.38,-231 140.38,-231 134.38,-231 128.38,-225 128.38,-219 128.38,-219 128.38,-207 128.38,-207 128.38,-201 134.38,-195 140.38,-195 140.38,-195 235.88,-195 235.88,-195 241.88,-195 247.88,-201 247.88,-207 247.88,-207 247.88,-219 247.88,-219 247.88,-225 241.88,-231 235.88,-231"/>
<text xml:space="preserve" text-anchor="middle" x="188.12" y="-209.5" font-family="Arial" font-size="10.00" fill="#1a1a1a">(−) minimal text present</text>
</g>
<!-- text.annotation&#45;&gt;attr_6 -->
<g id="edge7" class="edge">
<title>text.annotation&#45;&gt;attr_6</title>
<path fill="none" stroke="#aaaaaa" d="M84.78,-213C95.71,-213 107.79,-213 119.69,-213"/>
<polygon fill="#aaaaaa" stroke="#aaaaaa" points="119.38,-215.45 126.38,-213 119.38,-210.55 119.38,-215.45"/>
</g>
<!-- rel_0&#45;&gt;unknown.flow_field -->
<g id="edge9" class="edge">
<title>rel_0&#45;&gt;unknown.flow_field</title>
<path fill="none" stroke="#d46a6a" stroke-width="1.5" stroke-dasharray="5,2" d="M538.02,-264.16C551.94,-258.7 567.91,-252.25 582.25,-246 596.33,-239.87 611.79,-232.58 624.54,-226.42"/>
</g>
<!-- rel_1&#45;&gt;unknown.vortex_structure -->
<g id="edge11" class="edge">
<title>rel_1&#45;&gt;unknown.vortex_structure</title>
<path fill="none" stroke="#d46a6a" stroke-width="1.5" d="M235.88,-83C250.42,-83 266.54,-83 281.41,-83"/>
<polygon fill="#d46a6a" stroke="#d46a6a" stroke-width="1.5" points="281.19,-85.8 289.19,-83 281.19,-80.2 281.19,-85.8"/>
</g>
<!-- rel_2&#45;&gt;unknown.flow_field -->
<g id="edge13" class="edge">
<title>rel_2&#45;&gt;unknown.flow_field</title>
<path fill="none" stroke="#d46a6a" stroke-width="1.5" d="M563.38,-36.39C570.26,-40.15 576.76,-44.64 582.25,-50 620.33,-87.15 638.68,-148.49 646.57,-184.38"/>
<polygon fill="#d46a6a" stroke="#d46a6a" stroke-width="1.5" points="643.79,-184.74 648.15,-192 649.27,-183.6 643.79,-184.74"/>
</g>
<!-- rel_3&#45;&gt;unknown.flow_field -->
<g id="edge15" class="edge">
<title>rel_3&#45;&gt;unknown.flow_field</title>
<path fill="none" stroke="#d46a6a" stroke-width="1.5" d="M550.45,-213C571.24,-213 595.11,-213 614.46,-213"/>
<polygon fill="#d46a6a" stroke="#d46a6a" stroke-width="1.5" points="614.42,-215.8 622.42,-213 614.42,-210.2 614.42,-215.8"/>
</g>
</g>
</svg>
