<?xml version="1.0" encoding="UTF-8" standalone="no"?>
<!DOCTYPE svg PUBLIC "-//W3C//DTD SVG 1.1//EN"
 "http://www.w3.org/Graphics/SVG/1.1/DTD/svg11.dtd">
<!-- Generated by graphviz version 14.1.5 (20260411.2331)
 -->
<!-- Title: SciVisJ.2926.1.png_B Pages: 1 -->
<svg width="1614pt" height="402pt"
 viewBox="0.00 0.00 1614.00 402.00" xmlns="http://www.w3.org/2000/svg" xmlns:xlink="http://www.w3.org/1999/xlink">
<g id="graph0" class="graph" transform="scale(2.08333 2.08333) rotate(0) translate(4 188.75)">
<title>SciVisJ.2926.1.png_B</title>
<polygon fill="white" stroke="none" points="-4,4 -4,-188.75 770.5,-188.75 770.5,4 -4,4"/>
<text xml:space="preserve" text-anchor="start" x="273.38" y="-164.45" font-family="Arial" font-weight="bold" font-size="14.00">SciVisJ.2926.1.png — Condition B</text>
<path fill="#b8e6b8" stroke="none" d="M262.25,-139C262.25,-139 270.25,-139 270.25,-139 273.25,-139 276.25,-142 276.25,-145 276.25,-145 276.25,-151 276.25,-151 276.25,-154 273.25,-157 270.25,-157 270.25,-157 262.25,-157 262.25,-157 259.25,-157 256.25,-154 256.25,-151 256.25,-151 256.25,-145 256.25,-145 256.25,-142 259.25,-139 262.25,-139"/>
<path fill="none" stroke="black" d="M262.25,-139C262.25,-139 270.25,-139 270.25,-139 273.25,-139 276.25,-142 276.25,-145 276.25,-145 276.25,-151 276.25,-151 276.25,-154 273.25,-157 270.25,-157 270.25,-157 262.25,-157 262.25,-157 259.25,-157 256.25,-154 256.25,-151 256.25,-151 256.25,-145 256.25,-145 256.25,-142 259.25,-139 262.25,-139"/>
<text xml:space="preserve" text-anchor="start" x="264.75" y="-144.25" font-family="Arial" font-size="10.00"> </text>
<text xml:space="preserve" text-anchor="start" x="280.25" y="-144.25" font-family="Arial" font-size="10.00">Object</text>
<path fill="#c7b8e6" stroke="none" d="M318.75,-139C318.75,-139 326.75,-139 326.75,-139 329.75,-139 332.75,-142 332.75,-145 332.75,-145 332.75,-151 332.75,-151 332.75,-154 329.75,-157 326.75,-157 326.75,-157 318.75,-157 318.75,-157 315.75,-157 312.75,-154 312.75,-151 312.75,-151 312.75,-145 312.75,-145 312.75,-142 315.75,-139 318.75,-139"/>
<path fill="none" stroke="black" d="M318.75,-139C318.75,-139 326.75,-139 326.75,-139 329.75,-139 332.75,-142 332.75,-145 332.75,-145 332.75,-151 332.75,-151 332.75,-154 329.75,-157 326.75,-157 326.75,-157 318.75,-157 318.75,-157 315.75,-157 312.75,-154 312.75,-151 312.75,-151 312.75,-145 312.75,-145 312.75,-142 315.75,-139 318.75,-139"/>
<text xml:space="preserve" text-anchor="start" x="321.25" y="-144.25" font-family="Arial" font-size="10.00"> </text>
<text xml:space="preserve" text-anchor="start" x="336.75" y="-144.25" font-family="Arial" font-size="10.00">Attr (+)</text>
<path fill="#e8dff5" stroke="none" d="M377.5,-139C377.5,-139 385.5,-139 385.5,-139 388.5,-139 391.5,-142 391.5,-145 391.5,-145 391.5,-151 391.5,-151 391.5,-154 388.5,-157 385.5,-157 385.5,-157 377.5,-157 377.5,-157 374.5,-157 371.5,-154 371.5,-151 371.5,-151 371.5,-145 371.5,-145 371.5,-142 374.5,-139 377.5,-139"/>
<path fill="none" stroke="black" d="M377.5,-139C377.5,-139 385.5,-139 385.5,-139 388.5,-139 391.5,-142 391.5,-145 391.5,-145 391.5,-151 391.5,-151 391.5,-154 388.5,-157 385.5,-157 385.5,-157 377.5,-157 377.5,-157 374.5,-157 371.5,-154 371.5,-151 371.5,-151 371.5,-145 371.5,-145 371.5,-142 374.5,-139 377.5,-139"/>
<text xml:space="preserve" text-anchor="start" x="380" y="-144.25" font-family="Arial" font-size="10.00"> </text>
<text xml:space="preserve" text-anchor="start" x="395.5" y="-144.25" font-family="Arial" font-size="10.00">Attr (−)</text>
<path fill="#f5b8b8" stroke="none" d="M436.25,-139C436.25,-139 444.25,-139 444.25,-139 447.25,-139 450.25,-142 450.25,-145 450.25,-145 450.25,-151 450.25,-151 450.25,-154 447.25,-157 444.25,-157 444.25,-157 436.25,-157 436.25,-157 433.25,-157 430.25,-154 430.25,-151 430.25,-151 430.25,-145 430.25,-145 430.25,-142 433.25,-139 436.25,-139"/>
<path fill="none" stroke="black" d="M436.25,-139C436.25,-139 444.25,-139 444.25,-139 447.25,-139 450.25,-142 450.25,-145 450.25,-145 450.25,-151 450.25,-151 450.25,-154 447.25,-157 444.25,-157 444.25,-157 436.25,-157 436.25,-157 433.25,-157 430.25,-154 430.25,-151 430.25,-151 430.25,-145 430.25,-145 430.25,-142 433.25,-139 436.25,-139"/>
<text xml:space="preserve" text-anchor="start" x="438.75" y="-144.25" font-family="Arial" font-size="10.00"> </text>
<text xml:space="preserve" text-anchor="start" x="454.25" y="-144.25" font-family="Arial" font-size="10.00">Relationship</text>
<!-- whole.visualization -->
<g id="node1" class="node">
<title>whole.visualization</title>
<path fill="#b8e6b8" stroke="#2c3e50" stroke-width="1.8" d="M58,-100C58,-100 12,-100 12,-100 6,-100 0,-94 0,-88 0,-88 0,-76 0,-76 0,-70 6,-64 12,-64 12,-64 58,-64 58,-64 64,-64 70,-70 70,-76 70,-76 70,-88 70,-88 70,-94 64,-100 58,-100"/>
<text xml:space="preserve" text-anchor="middle" x="35" y="-78.5" font-family="Arial" font-size="10.00" fill="#1a1a1a">visualization</text>
</g>
<!-- attr_0 -->
<g id="node4" class="node">
<title>attr_0</title>
<path fill="#c7b8e6" stroke="#7f8c8d" stroke-width="1.2" d="M201,-133C201,-133 125,-133 125,-133 119,-133 113,-127 113,-121 113,-121 113,-109 113,-109 113,-103 119,-97 125,-97 125,-97 201,-97 201,-97 207,-97 213,-103 213,-109 213,-109 213,-121 213,-121 213,-127 207,-133 201,-133"/>
<text xml:space="preserve" text-anchor="middle" x="163" y="-111.5" font-family="Arial" font-size="10.00" fill="#1a1a1a">(+) unclear purpose</text>
</g>
<!-- whole.visualization&#45;&gt;attr_0 -->
<g id="edge1" class="edge">
<title>whole.visualization&#45;&gt;attr_0</title>
<path fill="none" stroke="#aaaaaa" d="M70.76,-91.1C81.3,-93.86 93.16,-96.97 104.76,-100.01"/>
<polygon fill="#aaaaaa" stroke="#aaaaaa" points="103.87,-102.31 111.27,-101.71 105.12,-97.57 103.87,-102.31"/>
</g>
<!-- rel_0 -->
<g id="node7" class="node">
<title>rel_0</title>
<path fill="#f5b8b8" stroke="#d46a6a" stroke-width="1.2" d="M190.88,-68C190.88,-68 135.12,-68 135.12,-68 129.12,-68 123.12,-62 123.12,-56 123.12,-56 123.12,-44 123.12,-44 123.12,-38 129.12,-32 135.12,-32 135.12,-32 190.88,-32 190.88,-32 196.88,-32 202.88,-38 202.88,-44 202.88,-44 202.88,-56 202.88,-56 202.88,-62 196.88,-68 190.88,-68"/>
<text xml:space="preserve" text-anchor="middle" x="163" y="-46.5" font-family="Arial" font-size="10.00" fill="#8b0000">fails to convey</text>
</g>
<!-- whole.visualization&#45;&gt;rel_0 -->
<g id="edge4" class="edge">
<title>whole.visualization&#45;&gt;rel_0</title>
<path fill="none" stroke="#d46a6a" stroke-width="1.5" d="M70.76,-73.17C83.9,-69.83 99.11,-65.97 113.29,-62.37"/>
<polygon fill="#d46a6a" stroke="#d46a6a" stroke-width="1.5" points="113.65,-65.17 120.71,-60.49 112.27,-59.74 113.65,-65.17"/>
</g>
<!-- unknown.content -->
<g id="node2" class="node">
<title>unknown.content</title>
<path fill="#b8e6b8" stroke="#2c3e50" stroke-width="1.8" d="M298,-68C298,-68 268,-68 268,-68 262,-68 256,-62 256,-56 256,-56 256,-44 256,-44 256,-38 262,-32 268,-32 268,-32 298,-32 298,-32 304,-32 310,-38 310,-44 310,-44 310,-56 310,-56 310,-62 304,-68 298,-68"/>
<text xml:space="preserve" text-anchor="middle" x="283" y="-46.5" font-family="Arial" font-size="10.00" fill="#1a1a1a">content</text>
</g>
<!-- attr_1 -->
<g id="node5" class="node">
<title>attr_1</title>
<path fill="#c7b8e6" stroke="#7f8c8d" stroke-width="1.2" d="M501.75,-101C501.75,-101 365,-101 365,-101 359,-101 353,-95 353,-89 353,-89 353,-77 353,-77 353,-71 359,-65 365,-65 365,-65 501.75,-65 501.75,-65 507.75,-65 513.75,-71 513.75,-77 513.75,-77 513.75,-89 513.75,-89 513.75,-95 507.75,-101 501.75,-101"/>
<text xml:space="preserve" text-anchor="middle" x="433.38" y="-79.5" font-family="Arial" font-size="10.00" fill="#1a1a1a">(+) unrecognizable representation</text>
</g>
<!-- unknown.content&#45;&gt;attr_1 -->
<g id="edge2" class="edge">
<title>unknown.content&#45;&gt;attr_1</title>
<path fill="none" stroke="#aaaaaa" d="M310.87,-55.98C320.67,-58.15 332.35,-60.75 344.55,-63.47"/>
<polygon fill="#aaaaaa" stroke="#aaaaaa" points="343.78,-65.8 351.14,-64.93 344.84,-61.02 343.78,-65.8"/>
</g>
<!-- rel_1 -->
<g id="node8" class="node">
<title>rel_1</title>
<path fill="#f5b8b8" stroke="#d46a6a" stroke-width="1.2" d="M468,-36C468,-36 398.75,-36 398.75,-36 392.75,-36 386.75,-30 386.75,-24 386.75,-24 386.75,-12 386.75,-12 386.75,-6 392.75,0 398.75,0 398.75,0 468,0 468,0 474,0 480,-6 480,-12 480,-12 480,-24 480,-24 480,-30 474,-36 468,-36"/>
<text xml:space="preserve" text-anchor="middle" x="433.38" y="-14.5" font-family="Arial" font-size="10.00" fill="#8b0000">requires expertise</text>
</g>
<!-- unknown.content&#45;&gt;rel_1 -->
<g id="edge6" class="edge">
<title>unknown.content&#45;&gt;rel_1</title>
<path fill="none" stroke="#d46a6a" stroke-width="1.5" d="M310.87,-44.21C329.13,-40.27 353.95,-34.91 376.4,-30.07"/>
<polygon fill="#d46a6a" stroke="#d46a6a" stroke-width="1.5" points="376.73,-32.86 383.96,-28.44 375.55,-27.39 376.73,-32.86"/>
</g>
<!-- text.label -->
<g id="node3" class="node">
<title>text.label</title>
<path fill="#b8e6b8" stroke="#2c3e50" stroke-width="1.8" d="M598.75,-36C598.75,-36 568.75,-36 568.75,-36 562.75,-36 556.75,-30 556.75,-24 556.75,-24 556.75,-12 556.75,-12 556.75,-6 562.75,0 568.75,0 568.75,0 598.75,0 598.75,0 604.75,0 610.75,-6 610.75,-12 610.75,-12 610.75,-24 610.75,-24 610.75,-30 604.75,-36 598.75,-36"/>
<text xml:space="preserve" text-anchor="middle" x="583.75" y="-14.5" font-family="Arial" font-size="10.00" fill="#1a1a1a">labels</text>
</g>
<!-- attr_2 -->
<g id="node6" class="node">
<title>attr_2</title>
<path fill="#c7b8e6" stroke="#7f8c8d" stroke-width="1.2" d="M754.5,-36C754.5,-36 665.75,-36 665.75,-36 659.75,-36 653.75,-30 653.75,-24 653.75,-24 653.75,-12 653.75,-12 653.75,-6 659.75,0 665.75,0 665.75,0 754.5,0 754.5,0 760.5,0 766.5,-6 766.5,-12 766.5,-12 766.5,-24 766.5,-24 766.5,-30 760.5,-36 754.5,-36"/>
<text xml:space="preserve" text-anchor="middle" x="710.12" y="-14.5" font-family="Arial" font-size="10.00" fill="#1a1a1a">(+) insufficient context</text>
</g>
<!-- text.label&#45;&gt;attr_2 -->
<g id="edge3" class="edge">
<title>text.label&#45;&gt;attr_2</title>
<path fill="none" stroke="#aaaaaa" d="M611.43,-18C621.41,-18 633.21,-18 645.11,-18"/>
<polygon fill="#aaaaaa" stroke="#aaaaaa" points="644.83,-20.45 651.83,-18 644.83,-15.55 644.83,-20.45"/>
</g>
<!-- rel_0&#45;&gt;unknown.content -->
<g id="edge5" class="edge">
<title>rel_0&#45;&gt;unknown.content</title>
<path fill="none" stroke="#d46a6a" stroke-width="1.5" d="M203.29,-50C216.73,-50 231.71,-50 244.96,-50"/>
<polygon fill="#d46a6a" stroke="#d46a6a" stroke-width="1.5" points="244.89,-52.8 252.89,-50 244.89,-47.2 244.89,-52.8"/>
</g>
<!-- rel_1&#45;&gt;text.label -->
<g id="edge7" class="edge">
<title>rel_1&#45;&gt;text.label</title>
<path fill="none" stroke="#d46a6a" stroke-width="1.5" d="M480.51,-18C501.56,-18 526.16,-18 545.94,-18"/>
<polygon fill="#d46a6a" stroke="#d46a6a" stroke-width="1.5" points="545.83,-20.8 553.83,-18 545.83,-15.2 545.83,-20.8"/>
</g>
</g>
</svg>
