<?xml version="1.0" encoding="UTF-8" standalone="no"?>
<!DOCTYPE svg PUBLIC "-//W3C//DTD SVG 1.1//EN"
 "http://www.w3.org/Graphics/SVG/1.1/DTD/svg11.dtd">
<!-- Generated by graphviz version 14.1.5 (20260411.2331)
 -->
<!-- Title: InfoVisJ.1558.9.png Pages: 1 -->
<svg width="726pt" height="669pt"
 viewBox="0.00 0.00 726.00 669.00" xmlns="http://www.w3.org/2000/svg" xmlns:xlink="http://www.w3.org/1999/xlink">
<g id="graph0" class="graph" transform="scale(1 1) rotate(0) translate(4 665)">
<title>InfoVisJ.1558.9.png</title>
<polygon fill="white" stroke="none" points="-4,4 -4,-665 722.25,-665 722.25,4 -4,4"/>
<text xml:space="preserve" text-anchor="start" x="284.12" y="-638.8" font-family="Arial" font-weight="bold" font-size="16.00">InfoVisJ.1558.9.png</text>
<text xml:space="preserve" text-anchor="start" x="309.25" y="-617" font-family="Arial" font-size="12.00">Glyph &#160;| &#160;VC = 0.54</text>
<path fill="#b8e6b8" stroke="none" d="M137.75,-592C137.75,-592 153.75,-592 153.75,-592 156.75,-592 159.75,-595 159.75,-598 159.75,-598 159.75,-604 159.75,-604 159.75,-607 156.75,-610 153.75,-610 153.75,-610 137.75,-610 137.75,-610 134.75,-610 131.75,-607 131.75,-604 131.75,-604 131.75,-598 131.75,-598 131.75,-595 134.75,-592 137.75,-592"/>
<path fill="none" stroke="black" d="M137.75,-592C137.75,-592 153.75,-592 153.75,-592 156.75,-592 159.75,-595 159.75,-598 159.75,-598 159.75,-604 159.75,-604 159.75,-607 156.75,-610 153.75,-610 153.75,-610 137.75,-610 137.75,-610 134.75,-610 131.75,-607 131.75,-604 131.75,-604 131.75,-598 131.75,-598 131.75,-595 134.75,-592 137.75,-592"/>
<text xml:space="preserve" text-anchor="start" x="144.25" y="-597.25" font-family="Arial" font-size="10.00"> </text>
<text xml:space="preserve" text-anchor="start" x="163.75" y="-597.25" font-family="Arial" font-size="10.00">Object</text>
<path fill="#c7b8e6" stroke="none" d="M202.25,-592C202.25,-592 218.25,-592 218.25,-592 221.25,-592 224.25,-595 224.25,-598 224.25,-598 224.25,-604 224.25,-604 224.25,-607 221.25,-610 218.25,-610 218.25,-610 202.25,-610 202.25,-610 199.25,-610 196.25,-607 196.25,-604 196.25,-604 196.25,-598 196.25,-598 196.25,-595 199.25,-592 202.25,-592"/>
<path fill="none" stroke="black" d="M202.25,-592C202.25,-592 218.25,-592 218.25,-592 221.25,-592 224.25,-595 224.25,-598 224.25,-598 224.25,-604 224.25,-604 224.25,-607 221.25,-610 218.25,-610 218.25,-610 202.25,-610 202.25,-610 199.25,-610 196.25,-607 196.25,-604 196.25,-604 196.25,-598 196.25,-598 196.25,-595 199.25,-592 202.25,-592"/>
<text xml:space="preserve" text-anchor="start" x="208.75" y="-597.25" font-family="Arial" font-size="10.00"> </text>
<text xml:space="preserve" text-anchor="start" x="228.25" y="-597.25" font-family="Arial" font-size="10.00">Attribute</text>
<path fill="#f5b8b8" stroke="none" d="M275,-592C275,-592 291,-592 291,-592 294,-592 297,-595 297,-598 297,-598 297,-604 297,-604 297,-607 294,-610 291,-610 291,-610 275,-610 275,-610 272,-610 269,-607 269,-604 269,-604 269,-598 269,-598 269,-595 272,-592 275,-592"/>
<path fill="none" stroke="black" d="M275,-592C275,-592 291,-592 291,-592 294,-592 297,-595 297,-598 297,-598 297,-604 297,-604 297,-607 294,-610 291,-610 291,-610 275,-610 275,-610 272,-610 269,-607 269,-604 269,-604 269,-598 269,-598 269,-595 272,-592 275,-592"/>
<text xml:space="preserve" text-anchor="start" x="281.5" y="-597.25" font-family="Arial" font-size="10.00"> </text>
<text xml:space="preserve" text-anchor="start" x="301" y="-597.25" font-family="Arial" font-size="10.00">Relationship</text>
<text xml:space="preserve" text-anchor="start" x="361" y="-598.5" font-family="Arial" font-weight="bold" font-size="10.00">(+)</text>
<text xml:space="preserve" text-anchor="start" x="373" y="-598.5" font-family="Arial" font-size="10.00"> increases complexity</text>
<text xml:space="preserve" text-anchor="start" x="474.25" y="-598.5" font-family="Arial" font-weight="bold" font-size="10.00">(−)</text>
<text xml:space="preserve" text-anchor="start" x="486.25" y="-598.5" font-family="Arial" font-size="10.00"> decreases complexity</text>
<text xml:space="preserve" text-anchor="start" x="357.62" y="-572.25" font-family="Arial" font-size="10.00"> </text>
<!-- unknown.circle -->
<g id="node1" class="node">
<title>unknown.circle</title>
<path fill="#b8e6b8" stroke="#2c3e50" stroke-width="1.8" d="M321,-133C321,-133 291,-133 291,-133 285,-133 279,-127 279,-121 279,-121 279,-109 279,-109 279,-103 285,-97 291,-97 291,-97 321,-97 321,-97 327,-97 333,-103 333,-109 333,-109 333,-121 333,-121 333,-127 327,-133 321,-133"/>
<text xml:space="preserve" text-anchor="middle" x="306" y="-111.5" font-family="Arial" font-size="10.00" fill="#1a1a1a">circle</text>
</g>
<!-- attr_0 -->
<g id="node8" class="node">
<title>attr_0</title>
<path fill="#c7b8e6" stroke="#7f8c8d" stroke-width="1.2" d="M479.75,-198C479.75,-198 388,-198 388,-198 382,-198 376,-192 376,-186 376,-186 376,-174 376,-174 376,-168 382,-162 388,-162 388,-162 479.75,-162 479.75,-162 485.75,-162 491.75,-168 491.75,-174 491.75,-174 491.75,-186 491.75,-186 491.75,-192 485.75,-198 479.75,-198"/>
<text xml:space="preserve" text-anchor="middle" x="433.88" y="-176.5" font-family="Arial" font-size="10.00" fill="#1a1a1a">(+) clustering of circles</text>
</g>
<!-- unknown.circle&#45;&gt;attr_0 -->
<g id="edge1" class="edge">
<title>unknown.circle&#45;&gt;attr_0</title>
<path fill="none" stroke="#aaaaaa" d="M333.69,-128.78C350,-137.21 371.24,-148.17 389.88,-157.8"/>
<polygon fill="#aaaaaa" stroke="#aaaaaa" points="388.45,-159.82 395.8,-160.85 390.7,-155.46 388.45,-159.82"/>
</g>
<!-- attr_9 -->
<g id="node9" class="node">
<title>attr_9</title>
<path fill="#c7b8e6" stroke="#7f8c8d" stroke-width="1.2" d="M469.62,-133C469.62,-133 398.12,-133 398.12,-133 392.12,-133 386.12,-127 386.12,-121 386.12,-121 386.12,-109 386.12,-109 386.12,-103 392.12,-97 398.12,-97 398.12,-97 469.62,-97 469.62,-97 475.62,-97 481.62,-103 481.62,-109 481.62,-109 481.62,-121 481.62,-121 481.62,-127 475.62,-133 469.62,-133"/>
<text xml:space="preserve" text-anchor="middle" x="433.88" y="-111.5" font-family="Arial" font-size="10.00" fill="#1a1a1a">(−) straightforward</text>
</g>
<!-- unknown.circle&#45;&gt;attr_9 -->
<g id="edge2" class="edge">
<title>unknown.circle&#45;&gt;attr_9</title>
<path fill="none" stroke="#aaaaaa" d="M333.69,-115C346.42,-115 362.15,-115 377.29,-115"/>
<polygon fill="#aaaaaa" stroke="#aaaaaa" points="377.12,-117.45 384.12,-115 377.12,-112.55 377.12,-117.45"/>
</g>
<!-- rel_1 -->
<g id="node19" class="node">
<title>rel_1</title>
<path fill="#f5b8b8" stroke="#d46a6a" stroke-width="1.2" d="M458,-68C458,-68 409.75,-68 409.75,-68 403.75,-68 397.75,-62 397.75,-56 397.75,-56 397.75,-44 397.75,-44 397.75,-38 403.75,-32 409.75,-32 409.75,-32 458,-32 458,-32 464,-32 470,-38 470,-44 470,-44 470,-56 470,-56 470,-62 464,-68 458,-68"/>
<text xml:space="preserve" text-anchor="middle" x="433.88" y="-46.5" font-family="Arial" font-size="10.00" fill="#8b0000">clusters near</text>
</g>
<!-- unknown.circle&#45;&gt;rel_1 -->
<g id="edge13" class="edge">
<title>unknown.circle&#45;&gt;rel_1</title>
<path fill="none" stroke="#d46a6a" stroke-width="1.5" d="M333.69,-101.22C349.62,-92.99 370.25,-82.34 388.56,-72.88"/>
<polygon fill="#d46a6a" stroke="#d46a6a" stroke-width="1.5" points="389.77,-75.41 395.6,-69.25 387.2,-70.43 389.77,-75.41"/>
</g>
<!-- unknown.square -->
<g id="node2" class="node">
<title>unknown.square</title>
<path fill="#b8e6b8" stroke="#2c3e50" stroke-width="1.8" d="M576.75,-68C576.75,-68 546.75,-68 546.75,-68 540.75,-68 534.75,-62 534.75,-56 534.75,-56 534.75,-44 534.75,-44 534.75,-38 540.75,-32 546.75,-32 546.75,-32 576.75,-32 576.75,-32 582.75,-32 588.75,-38 588.75,-44 588.75,-44 588.75,-56 588.75,-56 588.75,-62 582.75,-68 576.75,-68"/>
<text xml:space="preserve" text-anchor="middle" x="561.75" y="-46.5" font-family="Arial" font-size="10.00" fill="#1a1a1a">square</text>
</g>
<!-- attr_1 -->
<g id="node10" class="node">
<title>attr_1</title>
<path fill="#c7b8e6" stroke="#7f8c8d" stroke-width="1.2" d="M706.25,-68C706.25,-68 643.75,-68 643.75,-68 637.75,-68 631.75,-62 631.75,-56 631.75,-56 631.75,-44 631.75,-44 631.75,-38 637.75,-32 643.75,-32 643.75,-32 706.25,-32 706.25,-32 712.25,-32 718.25,-38 718.25,-44 718.25,-44 718.25,-56 718.25,-56 718.25,-62 712.25,-68 706.25,-68"/>
<text xml:space="preserve" text-anchor="middle" x="675" y="-46.5" font-family="Arial" font-size="10.00" fill="#1a1a1a">(+) blue squares</text>
</g>
<!-- unknown.square&#45;&gt;attr_1 -->
<g id="edge3" class="edge">
<title>unknown.square&#45;&gt;attr_1</title>
<path fill="none" stroke="#aaaaaa" d="M589.4,-50C599.54,-50 611.46,-50 623.1,-50"/>
<polygon fill="#aaaaaa" stroke="#aaaaaa" points="622.98,-52.45 629.98,-50 622.98,-47.55 622.98,-52.45"/>
</g>
<!-- mark.line -->
<g id="node3" class="node">
<title>mark.line</title>
<path fill="#b8e6b8" stroke="#2c3e50" stroke-width="1.8" d="M42,-361C42,-361 12,-361 12,-361 6,-361 0,-355 0,-349 0,-349 0,-337 0,-337 0,-331 6,-325 12,-325 12,-325 42,-325 42,-325 48,-325 54,-331 54,-337 54,-337 54,-349 54,-349 54,-355 48,-361 42,-361"/>
<text xml:space="preserve" text-anchor="middle" x="27" y="-339.5" font-family="Arial" font-size="10.00" fill="#1a1a1a">line</text>
</g>
<!-- attr_2 -->
<g id="node11" class="node">
<title>attr_2</title>
<path fill="#c7b8e6" stroke="#7f8c8d" stroke-width="1.2" d="M195.12,-361C195.12,-361 137.88,-361 137.88,-361 131.88,-361 125.88,-355 125.88,-349 125.88,-349 125.88,-337 125.88,-337 125.88,-331 131.88,-325 137.88,-325 137.88,-325 195.12,-325 195.12,-325 201.12,-325 207.12,-331 207.12,-337 207.12,-337 207.12,-349 207.12,-349 207.12,-355 201.12,-361 195.12,-361"/>
<text xml:space="preserve" text-anchor="middle" x="166.5" y="-339.5" font-family="Arial" font-size="10.00" fill="#1a1a1a">(+) dotted lines</text>
</g>
<!-- mark.line&#45;&gt;attr_2 -->
<g id="edge4" class="edge">
<title>mark.line&#45;&gt;attr_2</title>
<path fill="none" stroke="#aaaaaa" d="M54.84,-343C72.49,-343 96.11,-343 116.99,-343"/>
<polygon fill="#aaaaaa" stroke="#aaaaaa" points="116.93,-345.45 123.93,-343 116.93,-340.55 116.93,-345.45"/>
</g>
<!-- property.color -->
<g id="node4" class="node">
<title>property.color</title>
<path fill="#b8e6b8" stroke="#2c3e50" stroke-width="1.8" d="M42,-101C42,-101 12,-101 12,-101 6,-101 0,-95 0,-89 0,-89 0,-77 0,-77 0,-71 6,-65 12,-65 12,-65 42,-65 42,-65 48,-65 54,-71 54,-77 54,-77 54,-89 54,-89 54,-95 48,-101 42,-101"/>
<text xml:space="preserve" text-anchor="middle" x="27" y="-79.5" font-family="Arial" font-size="10.00" fill="#1a1a1a">color</text>
</g>
<!-- attr_3 -->
<g id="node12" class="node">
<title>attr_3</title>
<path fill="#c7b8e6" stroke="#7f8c8d" stroke-width="1.2" d="M198.88,-166C198.88,-166 134.12,-166 134.12,-166 128.12,-166 122.12,-160 122.12,-154 122.12,-154 122.12,-142 122.12,-142 122.12,-136 128.12,-130 134.12,-130 134.12,-130 198.88,-130 198.88,-130 204.88,-130 210.88,-136 210.88,-142 210.88,-142 210.88,-154 210.88,-154 210.88,-160 204.88,-166 198.88,-166"/>
<text xml:space="preserve" text-anchor="middle" x="166.5" y="-144.5" font-family="Arial" font-size="10.00" fill="#1a1a1a">(+) similar colors</text>
</g>
<!-- property.color&#45;&gt;attr_3 -->
<g id="edge5" class="edge">
<title>property.color&#45;&gt;attr_3</title>
<path fill="none" stroke="#aaaaaa" d="M54.84,-95.69C72.94,-104.24 97.3,-115.76 118.56,-125.81"/>
<polygon fill="#aaaaaa" stroke="#aaaaaa" points="117.49,-128.01 124.86,-128.79 119.58,-123.58 117.49,-128.01"/>
</g>
<!-- attr_4 -->
<g id="node13" class="node">
<title>attr_4</title>
<path fill="#c7b8e6" stroke="#7f8c8d" stroke-width="1.2" d="M208.62,-101C208.62,-101 124.38,-101 124.38,-101 118.38,-101 112.38,-95 112.38,-89 112.38,-89 112.38,-77 112.38,-77 112.38,-71 118.38,-65 124.38,-65 124.38,-65 208.62,-65 208.62,-65 214.62,-65 220.62,-71 220.62,-77 220.62,-77 220.62,-89 220.62,-89 220.62,-95 214.62,-101 208.62,-101"/>
<text xml:space="preserve" text-anchor="middle" x="166.5" y="-79.5" font-family="Arial" font-size="10.00" fill="#1a1a1a">(+) colors drew me in</text>
</g>
<!-- property.color&#45;&gt;attr_4 -->
<g id="edge6" class="edge">
<title>property.color&#45;&gt;attr_4</title>
<path fill="none" stroke="#aaaaaa" d="M54.84,-83C68.81,-83 86.51,-83 103.64,-83"/>
<polygon fill="#aaaaaa" stroke="#aaaaaa" points="103.47,-85.45 110.47,-83 103.47,-80.55 103.47,-85.45"/>
</g>
<!-- rel_4 -->
<g id="node22" class="node">
<title>rel_4</title>
<path fill="#f5b8b8" stroke="#d46a6a" stroke-width="1.2" d="M201.5,-36C201.5,-36 131.5,-36 131.5,-36 125.5,-36 119.5,-30 119.5,-24 119.5,-24 119.5,-12 119.5,-12 119.5,-6 125.5,0 131.5,0 131.5,0 201.5,0 201.5,0 207.5,0 213.5,-6 213.5,-12 213.5,-12 213.5,-24 213.5,-24 213.5,-30 207.5,-36 201.5,-36"/>
<text xml:space="preserve" text-anchor="middle" x="166.5" y="-14.5" font-family="Arial" font-size="10.00" fill="#8b0000">draws attention to</text>
</g>
<!-- property.color&#45;&gt;rel_4 -->
<g id="edge19" class="edge">
<title>property.color&#45;&gt;rel_4</title>
<path fill="none" stroke="#d46a6a" stroke-width="1.5" d="M54.84,-70.09C67.6,-63.98 83.07,-56.58 97,-50 103.36,-46.99 110.07,-43.84 116.69,-40.74"/>
<polygon fill="#d46a6a" stroke="#d46a6a" stroke-width="1.5" points="117.51,-43.44 123.57,-37.51 115.14,-38.37 117.51,-43.44"/>
</g>
<!-- furniture.legend -->
<g id="node5" class="node">
<title>furniture.legend</title>
<path fill="#b8e6b8" stroke="#2c3e50" stroke-width="1.8" d="M42,-491C42,-491 12,-491 12,-491 6,-491 0,-485 0,-479 0,-479 0,-467 0,-467 0,-461 6,-455 12,-455 12,-455 42,-455 42,-455 48,-455 54,-461 54,-467 54,-467 54,-479 54,-479 54,-485 48,-491 42,-491"/>
<text xml:space="preserve" text-anchor="middle" x="27" y="-469.5" font-family="Arial" font-size="10.00" fill="#1a1a1a">legend</text>
</g>
<!-- attr_5 -->
<g id="node14" class="node">
<title>attr_5</title>
<path fill="#c7b8e6" stroke="#7f8c8d" stroke-width="1.2" d="M190.62,-556C190.62,-556 142.38,-556 142.38,-556 136.38,-556 130.38,-550 130.38,-544 130.38,-544 130.38,-532 130.38,-532 130.38,-526 136.38,-520 142.38,-520 142.38,-520 190.62,-520 190.62,-520 196.62,-520 202.62,-526 202.62,-532 202.62,-532 202.62,-544 202.62,-544 202.62,-550 196.62,-556 190.62,-556"/>
<text xml:space="preserve" text-anchor="middle" x="166.5" y="-534.5" font-family="Arial" font-size="10.00" fill="#1a1a1a">(+) unlabeled</text>
</g>
<!-- furniture.legend&#45;&gt;attr_5 -->
<g id="edge7" class="edge">
<title>furniture.legend&#45;&gt;attr_5</title>
<path fill="none" stroke="#aaaaaa" d="M54.84,-485.91C67.6,-492.02 83.07,-499.42 97,-506 105.18,-509.87 113.92,-513.97 122.32,-517.9"/>
<polygon fill="#aaaaaa" stroke="#aaaaaa" points="121.17,-520.07 128.55,-520.81 123.24,-515.63 121.17,-520.07"/>
</g>
<!-- attr_6 -->
<g id="node15" class="node">
<title>attr_6</title>
<path fill="#c7b8e6" stroke="#7f8c8d" stroke-width="1.2" d="M224,-491C224,-491 109,-491 109,-491 103,-491 97,-485 97,-479 97,-479 97,-467 97,-467 97,-461 103,-455 109,-455 109,-455 224,-455 224,-455 230,-455 236,-461 236,-467 236,-467 236,-479 236,-479 236,-485 230,-491 224,-491"/>
<text xml:space="preserve" text-anchor="middle" x="166.5" y="-469.5" font-family="Arial" font-size="10.00" fill="#1a1a1a">(+) too close to visualization</text>
</g>
<!-- furniture.legend&#45;&gt;attr_6 -->
<g id="edge8" class="edge">
<title>furniture.legend&#45;&gt;attr_6</title>
<path fill="none" stroke="#aaaaaa" d="M54.84,-473C64.62,-473 76.23,-473 88.19,-473"/>
<polygon fill="#aaaaaa" stroke="#aaaaaa" points="87.99,-475.45 94.99,-473 87.99,-470.55 87.99,-475.45"/>
</g>
<!-- rel_2 -->
<g id="node20" class="node">
<title>rel_2</title>
<path fill="#f5b8b8" stroke="#d46a6a" stroke-width="1.2" d="M188,-426C188,-426 145,-426 145,-426 139,-426 133,-420 133,-414 133,-414 133,-402 133,-402 133,-396 139,-390 145,-390 145,-390 188,-390 188,-390 194,-390 200,-396 200,-402 200,-402 200,-414 200,-414 200,-420 194,-426 188,-426"/>
<text xml:space="preserve" text-anchor="middle" x="166.5" y="-404.5" font-family="Arial" font-size="10.00" fill="#8b0000">too close to</text>
</g>
<!-- furniture.legend&#45;&gt;rel_2 -->
<g id="edge15" class="edge">
<title>furniture.legend&#45;&gt;rel_2</title>
<path fill="none" stroke="#d46a6a" stroke-width="1.5" d="M54.84,-460.31C74.26,-451.13 100.9,-438.54 123.17,-428.01"/>
<polygon fill="#d46a6a" stroke="#d46a6a" stroke-width="1.5" points="124.33,-430.56 130.36,-424.61 121.93,-425.5 124.33,-430.56"/>
</g>
<!-- content.data -->
<g id="node6" class="node">
<title>content.data</title>
<path fill="#b8e6b8" stroke="#2c3e50" stroke-width="1.8" d="M321,-426C321,-426 291,-426 291,-426 285,-426 279,-420 279,-414 279,-414 279,-402 279,-402 279,-396 285,-390 291,-390 291,-390 321,-390 321,-390 327,-390 333,-396 333,-402 333,-402 333,-414 333,-414 333,-420 327,-426 321,-426"/>
<text xml:space="preserve" text-anchor="middle" x="306" y="-404.5" font-family="Arial" font-size="10.00" fill="#1a1a1a">data</text>
</g>
<!-- attr_8 -->
<g id="node16" class="node">
<title>attr_8</title>
<path fill="#c7b8e6" stroke="#7f8c8d" stroke-width="1.2" d="M476.38,-491C476.38,-491 391.38,-491 391.38,-491 385.38,-491 379.38,-485 379.38,-479 379.38,-479 379.38,-467 379.38,-467 379.38,-461 385.38,-455 391.38,-455 391.38,-455 476.38,-455 476.38,-455 482.38,-455 488.38,-461 488.38,-467 488.38,-467 488.38,-479 488.38,-479 488.38,-485 482.38,-491 476.38,-491"/>
<text xml:space="preserve" text-anchor="middle" x="433.88" y="-469.5" font-family="Arial" font-size="10.00" fill="#1a1a1a">(+) harder to evaluate</text>
</g>
<!-- content.data&#45;&gt;attr_8 -->
<g id="edge9" class="edge">
<title>content.data&#45;&gt;attr_8</title>
<path fill="none" stroke="#aaaaaa" d="M333.69,-421.78C350,-430.21 371.24,-441.17 389.88,-450.8"/>
<polygon fill="#aaaaaa" stroke="#aaaaaa" points="388.45,-452.82 395.8,-453.85 390.7,-448.46 388.45,-452.82"/>
</g>
<!-- rel_0 -->
<g id="node18" class="node">
<title>rel_0</title>
<path fill="#f5b8b8" stroke="#d46a6a" stroke-width="1.2" d="M458.75,-426C458.75,-426 409,-426 409,-426 403,-426 397,-420 397,-414 397,-414 397,-402 397,-402 397,-396 403,-390 409,-390 409,-390 458.75,-390 458.75,-390 464.75,-390 470.75,-396 470.75,-402 470.75,-402 470.75,-414 470.75,-414 470.75,-420 464.75,-426 458.75,-426"/>
<text xml:space="preserve" text-anchor="middle" x="433.88" y="-404.5" font-family="Arial" font-size="10.00" fill="#8b0000">overlaps with</text>
</g>
<!-- content.data&#45;&gt;rel_0 -->
<g id="edge11" class="edge">
<title>content.data&#45;&gt;rel_0</title>
<path fill="none" stroke="#d46a6a" stroke-width="1.5" d="M333.69,-398.92C349.02,-397.2 368.69,-396.72 386.47,-397.47"/>
<polygon fill="#d46a6a" stroke="#d46a6a" stroke-width="1.5" points="386.25,-400.26 394.4,-397.92 386.57,-394.67 386.25,-400.26"/>
</g>
<!-- unknown.size -->
<g id="node7" class="node">
<title>unknown.size</title>
<path fill="#b8e6b8" stroke="#2c3e50" stroke-width="1.8" d="M42,-264C42,-264 12,-264 12,-264 6,-264 0,-258 0,-252 0,-252 0,-240 0,-240 0,-234 6,-228 12,-228 12,-228 42,-228 42,-228 48,-228 54,-234 54,-240 54,-240 54,-252 54,-252 54,-258 48,-264 42,-264"/>
<text xml:space="preserve" text-anchor="middle" x="27" y="-242.5" font-family="Arial" font-size="10.00" fill="#1a1a1a">size</text>
</g>
<!-- attr_7 -->
<g id="node17" class="node">
<title>attr_7</title>
<path fill="#c7b8e6" stroke="#7f8c8d" stroke-width="1.2" d="M198.88,-296C198.88,-296 134.12,-296 134.12,-296 128.12,-296 122.12,-290 122.12,-284 122.12,-284 122.12,-272 122.12,-272 122.12,-266 128.12,-260 134.12,-260 134.12,-260 198.88,-260 198.88,-260 204.88,-260 210.88,-266 210.88,-272 210.88,-272 210.88,-284 210.88,-284 210.88,-290 204.88,-296 198.88,-296"/>
<text xml:space="preserve" text-anchor="middle" x="166.5" y="-274.5" font-family="Arial" font-size="10.00" fill="#1a1a1a">(+) varying sizes</text>
</g>
<!-- unknown.size&#45;&gt;attr_7 -->
<g id="edge10" class="edge">
<title>unknown.size&#45;&gt;attr_7</title>
<path fill="none" stroke="#aaaaaa" d="M54.84,-252.25C71.53,-256.13 93.55,-261.26 113.55,-265.91"/>
<polygon fill="#aaaaaa" stroke="#aaaaaa" points="112.84,-268.26 120.21,-267.46 113.95,-263.49 112.84,-268.26"/>
</g>
<!-- rel_3 -->
<g id="node21" class="node">
<title>rel_3</title>
<path fill="#f5b8b8" stroke="#d46a6a" stroke-width="1.2" d="M191.75,-231C191.75,-231 141.25,-231 141.25,-231 135.25,-231 129.25,-225 129.25,-219 129.25,-219 129.25,-207 129.25,-207 129.25,-201 135.25,-195 141.25,-195 141.25,-195 191.75,-195 191.75,-195 197.75,-195 203.75,-201 203.75,-207 203.75,-207 203.75,-219 203.75,-219 203.75,-225 197.75,-231 191.75,-231"/>
<text xml:space="preserve" text-anchor="middle" x="166.5" y="-209.5" font-family="Arial" font-size="10.00" fill="#8b0000">varies across</text>
</g>
<!-- unknown.size&#45;&gt;rel_3 -->
<g id="edge17" class="edge">
<title>unknown.size&#45;&gt;rel_3</title>
<path fill="none" stroke="#d46a6a" stroke-width="1.5" d="M54.84,-239.56C73.05,-235.19 97.62,-229.29 118.98,-224.17"/>
<polygon fill="#d46a6a" stroke="#d46a6a" stroke-width="1.5" points="119.51,-226.92 126.64,-222.33 118.21,-221.47 119.51,-226.92"/>
</g>
<!-- rel_0&#45;&gt;content.data -->
<g id="edge12" class="edge">
<title>rel_0&#45;&gt;content.data</title>
<path fill="none" stroke="#d46a6a" stroke-width="1.5" stroke-dasharray="5,2" d="M396.67,-417.95C376.58,-419.43 352.03,-419.13 333.69,-417.08"/>
</g>
<!-- rel_1&#45;&gt;unknown.square -->
<g id="edge14" class="edge">
<title>rel_1&#45;&gt;unknown.square</title>
<path fill="none" stroke="#d46a6a" stroke-width="1.5" d="M470.27,-50C487.01,-50 506.99,-50 523.91,-50"/>
<polygon fill="#d46a6a" stroke="#d46a6a" stroke-width="1.5" points="523.73,-52.8 531.73,-50 523.73,-47.2 523.73,-52.8"/>
</g>
<!-- rel_2&#45;&gt;content.data -->
<g id="edge16" class="edge">
<title>rel_2&#45;&gt;content.data</title>
<path fill="none" stroke="#d46a6a" stroke-width="1.5" d="M200.43,-408C220.82,-408 247.05,-408 268.13,-408"/>
<polygon fill="#d46a6a" stroke="#d46a6a" stroke-width="1.5" points="268.05,-410.8 276.05,-408 268.05,-405.2 268.05,-410.8"/>
</g>
<!-- rel_3&#45;&gt;unknown.circle -->
<g id="edge18" class="edge">
<title>rel_3&#45;&gt;unknown.circle</title>
<path fill="none" stroke="#d46a6a" stroke-width="1.5" d="M204.2,-197.86C214.84,-192.81 226.21,-186.73 236,-180 252.33,-168.78 268.55,-153.74 281.17,-140.95"/>
<polygon fill="#d46a6a" stroke="#d46a6a" stroke-width="1.5" points="283.02,-143.06 286.57,-135.36 279,-139.17 283.02,-143.06"/>
</g>
<!-- rel_4&#45;&gt;unknown.circle -->
<g id="edge20" class="edge">
<title>rel_4&#45;&gt;unknown.circle</title>
<path fill="none" stroke="#d46a6a" stroke-width="1.5" d="M212.48,-36.5C220.56,-40.52 228.72,-45.06 236,-50 252.39,-61.13 268.62,-76.16 281.22,-88.97"/>
<polygon fill="#d46a6a" stroke="#d46a6a" stroke-width="1.5" points="279.05,-90.75 286.62,-94.57 283.09,-86.86 279.05,-90.75"/>
</g>
</g>
</svg>
