<?xml version="1.0" encoding="UTF-8" standalone="no"?>
<!DOCTYPE svg PUBLIC "-//W3C//DTD SVG 1.1//EN"
 "http://www.w3.org/Graphics/SVG/1.1/DTD/svg11.dtd">
<!-- Generated by graphviz version 14.1.5 (20260411.2331)
 -->
<!-- Title: InfoVisC.73.6.png Pages: 1 -->
<svg width="612pt" height="604pt"
 viewBox="0.00 0.00 612.00 604.00" xmlns="http://www.w3.org/2000/svg" xmlns:xlink="http://www.w3.org/1999/xlink">
<g id="graph0" class="graph" transform="scale(1 1) rotate(0) translate(4 600)">
<title>InfoVisC.73.6.png</title>
<polygon fill="white" stroke="none" points="-4,4 -4,-600 608,-600 608,4 -4,4"/>
<text xml:space="preserve" text-anchor="start" x="234.88" y="-573.8" font-family="Arial" font-weight="bold" font-size="16.00">InfoVisC.73.6.png</text>
<text xml:space="preserve" text-anchor="start" x="257" y="-552" font-family="Arial" font-size="12.00">Text &#160;| &#160;VC = 0.39</text>
<path fill="#b8e6b8" stroke="none" d="M80.62,-527C80.62,-527 96.62,-527 96.62,-527 99.62,-527 102.62,-530 102.62,-533 102.62,-533 102.62,-539 102.62,-539 102.62,-542 99.62,-545 96.62,-545 96.62,-545 80.62,-545 80.62,-545 77.62,-545 74.62,-542 74.62,-539 74.62,-539 74.62,-533 74.62,-533 74.62,-530 77.62,-527 80.62,-527"/>
<path fill="none" stroke="black" d="M80.62,-527C80.62,-527 96.62,-527 96.62,-527 99.62,-527 102.62,-530 102.62,-533 102.62,-533 102.62,-539 102.62,-539 102.62,-542 99.62,-545 96.62,-545 96.62,-545 80.62,-545 80.62,-545 77.62,-545 74.62,-542 74.62,-539 74.62,-539 74.62,-533 74.62,-533 74.62,-530 77.62,-527 80.62,-527"/>
<text xml:space="preserve" text-anchor="start" x="87.12" y="-532.25" font-family="Arial" font-size="10.00"> </text>
<text xml:space="preserve" text-anchor="start" x="106.62" y="-532.25" font-family="Arial" font-size="10.00">Object</text>
<path fill="#c7b8e6" stroke="none" d="M145.12,-527C145.12,-527 161.12,-527 161.12,-527 164.12,-527 167.12,-530 167.12,-533 167.12,-533 167.12,-539 167.12,-539 167.12,-542 164.12,-545 161.12,-545 161.12,-545 145.12,-545 145.12,-545 142.12,-545 139.12,-542 139.12,-539 139.12,-539 139.12,-533 139.12,-533 139.12,-530 142.12,-527 145.12,-527"/>
<path fill="none" stroke="black" d="M145.12,-527C145.12,-527 161.12,-527 161.12,-527 164.12,-527 167.12,-530 167.12,-533 167.12,-533 167.12,-539 167.12,-539 167.12,-542 164.12,-545 161.12,-545 161.12,-545 145.12,-545 145.12,-545 142.12,-545 139.12,-542 139.12,-539 139.12,-539 139.12,-533 139.12,-533 139.12,-530 142.12,-527 145.12,-527"/>
<text xml:space="preserve" text-anchor="start" x="151.62" y="-532.25" font-family="Arial" font-size="10.00"> </text>
<text xml:space="preserve" text-anchor="start" x="171.12" y="-532.25" font-family="Arial" font-size="10.00">Attribute</text>
<path fill="#f5b8b8" stroke="none" d="M217.88,-527C217.88,-527 233.88,-527 233.88,-527 236.88,-527 239.88,-530 239.88,-533 239.88,-533 239.88,-539 239.88,-539 239.88,-542 236.88,-545 233.88,-545 233.88,-545 217.88,-545 217.88,-545 214.88,-545 211.88,-542 211.88,-539 211.88,-539 211.88,-533 211.88,-533 211.88,-530 214.88,-527 217.88,-527"/>
<path fill="none" stroke="black" d="M217.88,-527C217.88,-527 233.88,-527 233.88,-527 236.88,-527 239.88,-530 239.88,-533 239.88,-533 239.88,-539 239.88,-539 239.88,-542 236.88,-545 233.88,-545 233.88,-545 217.88,-545 217.88,-545 214.88,-545 211.88,-542 211.88,-539 211.88,-539 211.88,-533 211.88,-533 211.88,-530 214.88,-527 217.88,-527"/>
<text xml:space="preserve" text-anchor="start" x="224.38" y="-532.25" font-family="Arial" font-size="10.00"> </text>
<text xml:space="preserve" text-anchor="start" x="243.88" y="-532.25" font-family="Arial" font-size="10.00">Relationship</text>
<text xml:space="preserve" text-anchor="start" x="303.88" y="-533.5" font-family="Arial" font-weight="bold" font-size="10.00">(+)</text>
<text xml:space="preserve" text-anchor="start" x="315.88" y="-533.5" font-family="Arial" font-size="10.00"> increases complexity</text>
<text xml:space="preserve" text-anchor="start" x="417.12" y="-533.5" font-family="Arial" font-weight="bold" font-size="10.00">(−)</text>
<text xml:space="preserve" text-anchor="start" x="429.12" y="-533.5" font-family="Arial" font-size="10.00"> decreases complexity</text>
<text xml:space="preserve" text-anchor="start" x="300.5" y="-507.25" font-family="Arial" font-size="10.00"> </text>
<!-- text.label -->
<g id="node1" class="node">
<title>text.label</title>
<path fill="#b8e6b8" stroke="#2c3e50" stroke-width="1.8" d="M316.25,-361C316.25,-361 286.25,-361 286.25,-361 280.25,-361 274.25,-355 274.25,-349 274.25,-349 274.25,-337 274.25,-337 274.25,-331 280.25,-325 286.25,-325 286.25,-325 316.25,-325 316.25,-325 322.25,-325 328.25,-331 328.25,-337 328.25,-337 328.25,-349 328.25,-349 328.25,-355 322.25,-361 316.25,-361"/>
<text xml:space="preserve" text-anchor="middle" x="301.25" y="-339.5" font-family="Arial" font-size="10.00" fill="#1a1a1a">text</text>
</g>
<!-- attr_0 -->
<g id="node7" class="node">
<title>attr_0</title>
<path fill="#c7b8e6" stroke="#7f8c8d" stroke-width="1.2" d="M481.5,-426C481.5,-426 401.75,-426 401.75,-426 395.75,-426 389.75,-420 389.75,-414 389.75,-414 389.75,-402 389.75,-402 389.75,-396 395.75,-390 401.75,-390 401.75,-390 481.5,-390 481.5,-390 487.5,-390 493.5,-396 493.5,-402 493.5,-402 493.5,-414 493.5,-414 493.5,-420 487.5,-426 481.5,-426"/>
<text xml:space="preserve" text-anchor="middle" x="441.62" y="-404.5" font-family="Arial" font-size="10.00" fill="#1a1a1a">(+) clutter on screen</text>
</g>
<!-- text.label&#45;&gt;attr_0 -->
<g id="edge1" class="edge">
<title>text.label&#45;&gt;attr_0</title>
<path fill="none" stroke="#aaaaaa" d="M328.93,-355.53C347.27,-364.15 372.11,-375.81 393.7,-385.96"/>
<polygon fill="#aaaaaa" stroke="#aaaaaa" points="392.44,-388.07 399.82,-388.83 394.53,-383.64 392.44,-388.07"/>
</g>
<!-- attr_2 -->
<g id="node8" class="node">
<title>attr_2</title>
<path fill="#c7b8e6" stroke="#7f8c8d" stroke-width="1.2" d="M468,-361C468,-361 415.25,-361 415.25,-361 409.25,-361 403.25,-355 403.25,-349 403.25,-349 403.25,-337 403.25,-337 403.25,-331 409.25,-325 415.25,-325 415.25,-325 468,-325 468,-325 474,-325 480,-331 480,-337 480,-337 480,-349 480,-349 480,-355 474,-361 468,-361"/>
<text xml:space="preserve" text-anchor="middle" x="441.62" y="-339.5" font-family="Arial" font-size="10.00" fill="#1a1a1a">(−) dark green</text>
</g>
<!-- text.label&#45;&gt;attr_2 -->
<g id="edge2" class="edge">
<title>text.label&#45;&gt;attr_2</title>
<path fill="none" stroke="#aaaaaa" d="M328.93,-343C347.44,-343 372.58,-343 394.32,-343"/>
<polygon fill="#aaaaaa" stroke="#aaaaaa" points="394.27,-345.45 401.27,-343 394.27,-340.55 394.27,-345.45"/>
</g>
<!-- rel_0 -->
<g id="node14" class="node">
<title>rel_0</title>
<path fill="#f5b8b8" stroke="#d46a6a" stroke-width="1.2" d="M456.62,-296C456.62,-296 426.62,-296 426.62,-296 420.62,-296 414.62,-290 414.62,-284 414.62,-284 414.62,-272 414.62,-272 414.62,-266 420.62,-260 426.62,-260 426.62,-260 456.62,-260 456.62,-260 462.62,-260 468.62,-266 468.62,-272 468.62,-272 468.62,-284 468.62,-284 468.62,-290 462.62,-296 456.62,-296"/>
<text xml:space="preserve" text-anchor="middle" x="441.62" y="-274.5" font-family="Arial" font-size="10.00" fill="#8b0000">clutters</text>
</g>
<!-- text.label&#45;&gt;rel_0 -->
<g id="edge8" class="edge">
<title>text.label&#45;&gt;rel_0</title>
<path fill="none" stroke="#d46a6a" stroke-width="1.5" d="M328.93,-330.47C350.56,-320.31 381.24,-305.89 404.98,-294.74"/>
<polygon fill="#d46a6a" stroke="#d46a6a" stroke-width="1.5" points="405.92,-297.4 411.97,-291.46 403.54,-292.33 405.92,-297.4"/>
</g>
<!-- unknown.font -->
<g id="node2" class="node">
<title>unknown.font</title>
<path fill="#b8e6b8" stroke="#2c3e50" stroke-width="1.8" d="M42,-458C42,-458 12,-458 12,-458 6,-458 0,-452 0,-446 0,-446 0,-434 0,-434 0,-428 6,-422 12,-422 12,-422 42,-422 42,-422 48,-422 54,-428 54,-434 54,-434 54,-446 54,-446 54,-452 48,-458 42,-458"/>
<text xml:space="preserve" text-anchor="middle" x="27" y="-436.5" font-family="Arial" font-size="10.00" fill="#1a1a1a">font</text>
</g>
<!-- attr_1 -->
<g id="node9" class="node">
<title>attr_1</title>
<path fill="#c7b8e6" stroke="#7f8c8d" stroke-width="1.2" d="M197,-491C197,-491 126.25,-491 126.25,-491 120.25,-491 114.25,-485 114.25,-479 114.25,-479 114.25,-467 114.25,-467 114.25,-461 120.25,-455 126.25,-455 126.25,-455 197,-455 197,-455 203,-455 209,-461 209,-467 209,-467 209,-479 209,-479 209,-485 203,-491 197,-491"/>
<text xml:space="preserve" text-anchor="middle" x="161.62" y="-469.5" font-family="Arial" font-size="10.00" fill="#1a1a1a">(+) changing fonts</text>
</g>
<!-- unknown.font&#45;&gt;attr_1 -->
<g id="edge3" class="edge">
<title>unknown.font&#45;&gt;attr_1</title>
<path fill="none" stroke="#aaaaaa" d="M54.84,-446.68C69.48,-450.32 88.15,-454.97 105.72,-459.34"/>
<polygon fill="#aaaaaa" stroke="#aaaaaa" points="104.84,-461.64 112.23,-460.96 106.02,-456.89 104.84,-461.64"/>
</g>
<!-- rel_1 -->
<g id="node15" class="node">
<title>rel_1</title>
<path fill="#f5b8b8" stroke="#d46a6a" stroke-width="1.2" d="M186.88,-426C186.88,-426 136.38,-426 136.38,-426 130.38,-426 124.38,-420 124.38,-414 124.38,-414 124.38,-402 124.38,-402 124.38,-396 130.38,-390 136.38,-390 136.38,-390 186.88,-390 186.88,-390 192.88,-390 198.88,-396 198.88,-402 198.88,-402 198.88,-414 198.88,-414 198.88,-420 192.88,-426 186.88,-426"/>
<text xml:space="preserve" text-anchor="middle" x="161.62" y="-404.5" font-family="Arial" font-size="10.00" fill="#8b0000">varies across</text>
</g>
<!-- unknown.font&#45;&gt;rel_1 -->
<g id="edge10" class="edge">
<title>unknown.font&#45;&gt;rel_1</title>
<path fill="none" stroke="#d46a6a" stroke-width="1.5" d="M54.84,-433.52C71.8,-429.43 94.19,-424.03 113.99,-419.25"/>
<polygon fill="#d46a6a" stroke="#d46a6a" stroke-width="1.5" points="114.45,-422.02 121.57,-417.42 113.13,-416.58 114.45,-422.02"/>
</g>
<!-- mark.line -->
<g id="node3" class="node">
<title>mark.line</title>
<path fill="#b8e6b8" stroke="#2c3e50" stroke-width="1.8" d="M316.25,-426C316.25,-426 286.25,-426 286.25,-426 280.25,-426 274.25,-420 274.25,-414 274.25,-414 274.25,-402 274.25,-402 274.25,-396 280.25,-390 286.25,-390 286.25,-390 316.25,-390 316.25,-390 322.25,-390 328.25,-396 328.25,-402 328.25,-402 328.25,-414 328.25,-414 328.25,-420 322.25,-426 316.25,-426"/>
<text xml:space="preserve" text-anchor="middle" x="301.25" y="-404.5" font-family="Arial" font-size="10.00" fill="#1a1a1a">line</text>
</g>
<!-- unknown.word -->
<g id="node4" class="node">
<title>unknown.word</title>
<path fill="#b8e6b8" stroke="#2c3e50" stroke-width="1.8" d="M42,-167C42,-167 12,-167 12,-167 6,-167 0,-161 0,-155 0,-155 0,-143 0,-143 0,-137 6,-131 12,-131 12,-131 42,-131 42,-131 48,-131 54,-137 54,-143 54,-143 54,-155 54,-155 54,-161 48,-167 42,-167"/>
<text xml:space="preserve" text-anchor="middle" x="27" y="-145.5" font-family="Arial" font-size="10.00" fill="#1a1a1a">word</text>
</g>
<!-- attr_5 -->
<g id="node10" class="node">
<title>attr_5</title>
<path fill="#c7b8e6" stroke="#7f8c8d" stroke-width="1.2" d="M214.25,-199C214.25,-199 109,-199 109,-199 103,-199 97,-193 97,-187 97,-187 97,-175 97,-175 97,-169 103,-163 109,-163 109,-163 214.25,-163 214.25,-163 220.25,-163 226.25,-169 226.25,-175 226.25,-175 226.25,-187 226.25,-187 226.25,-193 220.25,-199 214.25,-199"/>
<text xml:space="preserve" text-anchor="middle" x="161.62" y="-177.5" font-family="Arial" font-size="10.00" fill="#1a1a1a">(−) recognize a few words</text>
</g>
<!-- unknown.word&#45;&gt;attr_5 -->
<g id="edge4" class="edge">
<title>unknown.word&#45;&gt;attr_5</title>
<path fill="none" stroke="#aaaaaa" d="M54.84,-155.48C64.77,-157.87 76.57,-160.72 88.61,-163.62"/>
<polygon fill="#aaaaaa" stroke="#aaaaaa" points="87.7,-165.92 95.07,-165.18 88.84,-161.16 87.7,-165.92"/>
</g>
<!-- rel_2 -->
<g id="node16" class="node">
<title>rel_2</title>
<path fill="#f5b8b8" stroke="#d46a6a" stroke-width="1.2" d="M177.5,-134C177.5,-134 145.75,-134 145.75,-134 139.75,-134 133.75,-128 133.75,-122 133.75,-122 133.75,-110 133.75,-110 133.75,-104 139.75,-98 145.75,-98 145.75,-98 177.5,-98 177.5,-98 183.5,-98 189.5,-104 189.5,-110 189.5,-110 189.5,-122 189.5,-122 189.5,-128 183.5,-134 177.5,-134"/>
<text xml:space="preserve" text-anchor="middle" x="161.62" y="-112.5" font-family="Arial" font-size="10.00" fill="#8b0000">confuses</text>
</g>
<!-- unknown.word&#45;&gt;rel_2 -->
<g id="edge12" class="edge">
<title>unknown.word&#45;&gt;rel_2</title>
<path fill="none" stroke="#d46a6a" stroke-width="1.5" d="M54.84,-142.32C74.57,-137.41 101.64,-130.68 123.45,-125.25"/>
<polygon fill="#d46a6a" stroke="#d46a6a" stroke-width="1.5" points="124.08,-127.98 131.17,-123.33 122.73,-122.54 124.08,-127.98"/>
</g>
<!-- content.data -->
<g id="node5" class="node">
<title>content.data</title>
<path fill="#b8e6b8" stroke="#2c3e50" stroke-width="1.8" d="M321.25,-134C321.25,-134 281.25,-134 281.25,-134 275.25,-134 269.25,-128 269.25,-122 269.25,-122 269.25,-110 269.25,-110 269.25,-104 275.25,-98 281.25,-98 281.25,-98 321.25,-98 321.25,-98 327.25,-98 333.25,-104 333.25,-110 333.25,-110 333.25,-122 333.25,-122 333.25,-128 327.25,-134 321.25,-134"/>
<text xml:space="preserve" text-anchor="middle" x="301.25" y="-112.5" font-family="Arial" font-size="10.00" fill="#1a1a1a">information</text>
</g>
<!-- attr_3 -->
<g id="node11" class="node">
<title>attr_3</title>
<path fill="#c7b8e6" stroke="#7f8c8d" stroke-width="1.2" d="M489.75,-231C489.75,-231 393.5,-231 393.5,-231 387.5,-231 381.5,-225 381.5,-219 381.5,-219 381.5,-207 381.5,-207 381.5,-201 387.5,-195 393.5,-195 393.5,-195 489.75,-195 489.75,-195 495.75,-195 501.75,-201 501.75,-207 501.75,-207 501.75,-219 501.75,-219 501.75,-225 495.75,-231 489.75,-231"/>
<text xml:space="preserve" text-anchor="middle" x="441.62" y="-209.5" font-family="Arial" font-size="10.00" fill="#1a1a1a">(−) harder to understand</text>
</g>
<!-- content.data&#45;&gt;attr_3 -->
<g id="edge5" class="edge">
<title>content.data&#45;&gt;attr_3</title>
<path fill="none" stroke="#aaaaaa" d="M321.31,-134.75C335.67,-148.3 356.25,-166.51 376.25,-180 381.79,-183.74 387.8,-187.34 393.86,-190.71"/>
<polygon fill="#aaaaaa" stroke="#aaaaaa" points="392.31,-192.66 399.63,-193.84 394.64,-188.35 392.31,-192.66"/>
</g>
<!-- attr_4 -->
<g id="node12" class="node">
<title>attr_4</title>
<path fill="#c7b8e6" stroke="#7f8c8d" stroke-width="1.2" d="M492,-166C492,-166 391.25,-166 391.25,-166 385.25,-166 379.25,-160 379.25,-154 379.25,-154 379.25,-142 379.25,-142 379.25,-136 385.25,-130 391.25,-130 391.25,-130 492,-130 492,-130 498,-130 504,-136 504,-142 504,-142 504,-154 504,-154 504,-160 498,-166 492,-166"/>
<text xml:space="preserve" text-anchor="middle" x="441.62" y="-144.5" font-family="Arial" font-size="10.00" fill="#1a1a1a">(+) volume of information</text>
</g>
<!-- content.data&#45;&gt;attr_4 -->
<g id="edge6" class="edge">
<title>content.data&#45;&gt;attr_4</title>
<path fill="none" stroke="#aaaaaa" d="M334,-123.34C345.03,-125.89 357.88,-128.87 370.77,-131.85"/>
<polygon fill="#aaaaaa" stroke="#aaaaaa" points="369.93,-134.17 377.3,-133.36 371.04,-129.39 369.93,-134.17"/>
</g>
<!-- attr_6 -->
<g id="node13" class="node">
<title>attr_6</title>
<path fill="#c7b8e6" stroke="#7f8c8d" stroke-width="1.2" d="M495,-101C495,-101 388.25,-101 388.25,-101 382.25,-101 376.25,-95 376.25,-89 376.25,-89 376.25,-77 376.25,-77 376.25,-71 382.25,-65 388.25,-65 388.25,-65 495,-65 495,-65 501,-65 507,-71 507,-77 507,-77 507,-89 507,-89 507,-95 501,-101 495,-101"/>
<text xml:space="preserve" text-anchor="middle" x="441.62" y="-79.5" font-family="Arial" font-size="10.00" fill="#1a1a1a">(−) not sure what it means</text>
</g>
<!-- content.data&#45;&gt;attr_6 -->
<g id="edge7" class="edge">
<title>content.data&#45;&gt;attr_6</title>
<path fill="none" stroke="#aaaaaa" d="M334,-108.43C344.11,-106.02 355.75,-103.24 367.54,-100.43"/>
<polygon fill="#aaaaaa" stroke="#aaaaaa" points="368,-102.84 374.24,-98.83 366.86,-98.07 368,-102.84"/>
</g>
<!-- rel_3 -->
<g id="node17" class="node">
<title>rel_3</title>
<path fill="#f5b8b8" stroke="#d46a6a" stroke-width="1.2" d="M468.38,-36C468.38,-36 414.88,-36 414.88,-36 408.88,-36 402.88,-30 402.88,-24 402.88,-24 402.88,-12 402.88,-12 402.88,-6 408.88,0 414.88,0 414.88,0 468.38,0 468.38,0 474.38,0 480.38,-6 480.38,-12 480.38,-12 480.38,-24 480.38,-24 480.38,-30 474.38,-36 468.38,-36"/>
<text xml:space="preserve" text-anchor="middle" x="441.62" y="-14.5" font-family="Arial" font-size="10.00" fill="#8b0000">spread across</text>
</g>
<!-- content.data&#45;&gt;rel_3 -->
<g id="edge14" class="edge">
<title>content.data&#45;&gt;rel_3</title>
<path fill="none" stroke="#d46a6a" stroke-width="1.5" d="M320.56,-97.13C334.87,-83.04 355.72,-63.89 376.25,-50 381.74,-46.29 387.72,-42.74 393.75,-39.45"/>
<polygon fill="#d46a6a" stroke="#d46a6a" stroke-width="1.5" points="394.78,-42.07 400.56,-35.87 392.17,-37.11 394.78,-42.07"/>
</g>
<!-- unknown.screen -->
<g id="node6" class="node">
<title>unknown.screen</title>
<path fill="#b8e6b8" stroke="#2c3e50" stroke-width="1.8" d="M592,-166C592,-166 562,-166 562,-166 556,-166 550,-160 550,-154 550,-154 550,-142 550,-142 550,-136 556,-130 562,-130 562,-130 592,-130 592,-130 598,-130 604,-136 604,-142 604,-142 604,-154 604,-154 604,-160 598,-166 592,-166"/>
<text xml:space="preserve" text-anchor="middle" x="577" y="-144.5" font-family="Arial" font-size="10.00" fill="#1a1a1a">screen</text>
</g>
<!-- rel_0&#45;&gt;unknown.screen -->
<g id="edge9" class="edge">
<title>rel_0&#45;&gt;unknown.screen</title>
<path fill="none" stroke="#d46a6a" stroke-width="1.5" d="M469.12,-267.88C481.48,-262.33 495.89,-254.61 507,-245 529.74,-225.33 548.92,-196.7 561.24,-175.63"/>
<polygon fill="#d46a6a" stroke="#d46a6a" stroke-width="1.5" points="563.6,-177.14 565.12,-168.81 558.73,-174.37 563.6,-177.14"/>
</g>
<!-- rel_1&#45;&gt;mark.line -->
<g id="edge11" class="edge">
<title>rel_1&#45;&gt;mark.line</title>
<path fill="none" stroke="#d46a6a" stroke-width="1.5" d="M199.14,-408C218.99,-408 243.47,-408 263.37,-408"/>
<polygon fill="#d46a6a" stroke="#d46a6a" stroke-width="1.5" points="263.33,-410.8 271.33,-408 263.33,-405.2 263.33,-410.8"/>
</g>
<!-- rel_2&#45;&gt;content.data -->
<g id="edge13" class="edge">
<title>rel_2&#45;&gt;content.data</title>
<path fill="none" stroke="#d46a6a" stroke-width="1.5" d="M189.82,-116C209.43,-116 236.26,-116 258.57,-116"/>
<polygon fill="#d46a6a" stroke="#d46a6a" stroke-width="1.5" points="258.51,-118.8 266.51,-116 258.51,-113.2 258.51,-118.8"/>
</g>
<!-- rel_3&#45;&gt;unknown.screen -->
<g id="edge15" class="edge">
<title>rel_3&#45;&gt;unknown.screen</title>
<path fill="none" stroke="#d46a6a" stroke-width="1.5" d="M480.65,-33.02C489.84,-37.66 499.23,-43.33 507,-50 530.11,-69.83 549.34,-99.02 561.58,-120.38"/>
<polygon fill="#d46a6a" stroke="#d46a6a" stroke-width="1.5" points="559.11,-121.68 565.44,-127.31 564,-118.96 559.11,-121.68"/>
</g>
</g>
</svg>
