<?xml version="1.0" encoding="UTF-8" standalone="no"?>
<!DOCTYPE svg PUBLIC "-//W3C//DTD SVG 1.1//EN"
 "http://www.w3.org/Graphics/SVG/1.1/DTD/svg11.dtd">
<!-- Generated by graphviz version 14.1.5 (20260411.2331)
 -->
<!-- Title: InfoVisC.65.5(2).png Pages: 1 -->
<svg width="964pt" height="441pt"
 viewBox="0.00 0.00 964.00 441.00" xmlns="http://www.w3.org/2000/svg" xmlns:xlink="http://www.w3.org/1999/xlink">
<g id="graph0" class="graph" transform="scale(1 1) rotate(0) translate(4 437)">
<title>InfoVisC.65.5(2).png</title>
<polygon fill="white" stroke="none" points="-4,4 -4,-437 959.5,-437 959.5,4 -4,4"/>
<text xml:space="preserve" text-anchor="start" x="400.88" y="-410.8" font-family="Arial" font-weight="bold" font-size="16.00">InfoVisC.65.5(2).png</text>
<text xml:space="preserve" text-anchor="start" x="417.75" y="-389" font-family="Arial" font-size="12.00">Node&#45;link &#160;| &#160;VC = 0.92</text>
<path fill="#b8e6b8" stroke="none" d="M256.38,-364C256.38,-364 272.38,-364 272.38,-364 275.38,-364 278.38,-367 278.38,-370 278.38,-370 278.38,-376 278.38,-376 278.38,-379 275.38,-382 272.38,-382 272.38,-382 256.38,-382 256.38,-382 253.38,-382 250.38,-379 250.38,-376 250.38,-376 250.38,-370 250.38,-370 250.38,-367 253.38,-364 256.38,-364"/>
<path fill="none" stroke="black" d="M256.38,-364C256.38,-364 272.38,-364 272.38,-364 275.38,-364 278.38,-367 278.38,-370 278.38,-370 278.38,-376 278.38,-376 278.38,-379 275.38,-382 272.38,-382 272.38,-382 256.38,-382 256.38,-382 253.38,-382 250.38,-379 250.38,-376 250.38,-376 250.38,-370 250.38,-370 250.38,-367 253.38,-364 256.38,-364"/>
<text xml:space="preserve" text-anchor="start" x="262.88" y="-369.25" font-family="Arial" font-size="10.00"> </text>
<text xml:space="preserve" text-anchor="start" x="282.38" y="-369.25" font-family="Arial" font-size="10.00">Object</text>
<path fill="#c7b8e6" stroke="none" d="M320.88,-364C320.88,-364 336.88,-364 336.88,-364 339.88,-364 342.88,-367 342.88,-370 342.88,-370 342.88,-376 342.88,-376 342.88,-379 339.88,-382 336.88,-382 336.88,-382 320.88,-382 320.88,-382 317.88,-382 314.88,-379 314.88,-376 314.88,-376 314.88,-370 314.88,-370 314.88,-367 317.88,-364 320.88,-364"/>
<path fill="none" stroke="black" d="M320.88,-364C320.88,-364 336.88,-364 336.88,-364 339.88,-364 342.88,-367 342.88,-370 342.88,-370 342.88,-376 342.88,-376 342.88,-379 339.88,-382 336.88,-382 336.88,-382 320.88,-382 320.88,-382 317.88,-382 314.88,-379 314.88,-376 314.88,-376 314.88,-370 314.88,-370 314.88,-367 317.88,-364 320.88,-364"/>
<text xml:space="preserve" text-anchor="start" x="327.38" y="-369.25" font-family="Arial" font-size="10.00"> </text>
<text xml:space="preserve" text-anchor="start" x="346.88" y="-369.25" font-family="Arial" font-size="10.00">Attribute</text>
<path fill="#f5b8b8" stroke="none" d="M393.62,-364C393.62,-364 409.62,-364 409.62,-364 412.62,-364 415.62,-367 415.62,-370 415.62,-370 415.62,-376 415.62,-376 415.62,-379 412.62,-382 409.62,-382 409.62,-382 393.62,-382 393.62,-382 390.62,-382 387.62,-379 387.62,-376 387.62,-376 387.62,-370 387.62,-370 387.62,-367 390.62,-364 393.62,-364"/>
<path fill="none" stroke="black" d="M393.62,-364C393.62,-364 409.62,-364 409.62,-364 412.62,-364 415.62,-367 415.62,-370 415.62,-370 415.62,-376 415.62,-376 415.62,-379 412.62,-382 409.62,-382 409.62,-382 393.62,-382 393.62,-382 390.62,-382 387.62,-379 387.62,-376 387.62,-376 387.62,-370 387.62,-370 387.62,-367 390.62,-364 393.62,-364"/>
<text xml:space="preserve" text-anchor="start" x="400.12" y="-369.25" font-family="Arial" font-size="10.00"> </text>
<text xml:space="preserve" text-anchor="start" x="419.62" y="-369.25" font-family="Arial" font-size="10.00">Relationship</text>
<text xml:space="preserve" text-anchor="start" x="479.62" y="-370.5" font-family="Arial" font-weight="bold" font-size="10.00">(+)</text>
<text xml:space="preserve" text-anchor="start" x="491.62" y="-370.5" font-family="Arial" font-size="10.00"> increases complexity</text>
<text xml:space="preserve" text-anchor="start" x="592.88" y="-370.5" font-family="Arial" font-weight="bold" font-size="10.00">(−)</text>
<text xml:space="preserve" text-anchor="start" x="604.88" y="-370.5" font-family="Arial" font-size="10.00"> decreases complexity</text>
<text xml:space="preserve" text-anchor="start" x="476.25" y="-344.25" font-family="Arial" font-size="10.00"> </text>
<!-- mark.line -->
<g id="node1" class="node">
<title>mark.line</title>
<path fill="#b8e6b8" stroke="#2c3e50" stroke-width="1.8" d="M276.75,-198C276.75,-198 246.75,-198 246.75,-198 240.75,-198 234.75,-192 234.75,-186 234.75,-186 234.75,-174 234.75,-174 234.75,-168 240.75,-162 246.75,-162 246.75,-162 276.75,-162 276.75,-162 282.75,-162 288.75,-168 288.75,-174 288.75,-174 288.75,-186 288.75,-186 288.75,-192 282.75,-198 276.75,-198"/>
<text xml:space="preserve" text-anchor="middle" x="261.75" y="-176.5" font-family="Arial" font-size="10.00" fill="#1a1a1a">line</text>
</g>
<!-- attr_0 -->
<g id="node5" class="node">
<title>attr_0</title>
<path fill="#c7b8e6" stroke="#7f8c8d" stroke-width="1.2" d="M411.5,-328C411.5,-328 359.5,-328 359.5,-328 353.5,-328 347.5,-322 347.5,-316 347.5,-316 347.5,-304 347.5,-304 347.5,-298 353.5,-292 359.5,-292 359.5,-292 411.5,-292 411.5,-292 417.5,-292 423.5,-298 423.5,-304 423.5,-304 423.5,-316 423.5,-316 423.5,-322 417.5,-328 411.5,-328"/>
<text xml:space="preserve" text-anchor="middle" x="385.5" y="-306.5" font-family="Arial" font-size="10.00" fill="#1a1a1a">(+) lot of lines</text>
</g>
<!-- mark.line&#45;&gt;attr_0 -->
<g id="edge1" class="edge">
<title>mark.line&#45;&gt;attr_0</title>
<path fill="none" stroke="#aaaaaa" d="M272.76,-198.7C284.73,-219.8 306.36,-254.28 331.75,-278 335.03,-281.06 338.64,-283.98 342.4,-286.71"/>
<polygon fill="#aaaaaa" stroke="#aaaaaa" points="340.87,-288.63 348.03,-290.58 343.65,-284.6 340.87,-288.63"/>
</g>
<!-- attr_2 -->
<g id="node6" class="node">
<title>attr_2</title>
<path fill="#c7b8e6" stroke="#7f8c8d" stroke-width="1.2" d="M427.25,-263C427.25,-263 343.75,-263 343.75,-263 337.75,-263 331.75,-257 331.75,-251 331.75,-251 331.75,-239 331.75,-239 331.75,-233 337.75,-227 343.75,-227 343.75,-227 427.25,-227 427.25,-227 433.25,-227 439.25,-233 439.25,-239 439.25,-239 439.25,-251 439.25,-251 439.25,-257 433.25,-263 427.25,-263"/>
<text xml:space="preserve" text-anchor="middle" x="385.5" y="-241.5" font-family="Arial" font-size="10.00" fill="#1a1a1a">(+) everything diffuse</text>
</g>
<!-- mark.line&#45;&gt;attr_2 -->
<g id="edge2" class="edge">
<title>mark.line&#45;&gt;attr_2</title>
<path fill="none" stroke="#aaaaaa" d="M289.47,-194.26C305.03,-202.57 324.98,-213.23 342.59,-222.62"/>
<polygon fill="#aaaaaa" stroke="#aaaaaa" points="341.31,-224.72 348.64,-225.85 343.61,-220.39 341.31,-224.72"/>
</g>
<!-- rel_0 -->
<g id="node12" class="node">
<title>rel_0</title>
<path fill="#f5b8b8" stroke="#d46a6a" stroke-width="1.2" d="M410.38,-198C410.38,-198 360.62,-198 360.62,-198 354.62,-198 348.62,-192 348.62,-186 348.62,-186 348.62,-174 348.62,-174 348.62,-168 354.62,-162 360.62,-162 360.62,-162 410.38,-162 410.38,-162 416.38,-162 422.38,-168 422.38,-174 422.38,-174 422.38,-186 422.38,-186 422.38,-192 416.38,-198 410.38,-198"/>
<text xml:space="preserve" text-anchor="middle" x="385.5" y="-176.5" font-family="Arial" font-size="10.00" fill="#8b0000">overlaps with</text>
</g>
<!-- mark.line&#45;&gt;rel_0 -->
<g id="edge8" class="edge">
<title>mark.line&#45;&gt;rel_0</title>
<path fill="none" stroke="#d46a6a" stroke-width="1.5" d="M289.47,-170.82C303.73,-169.23 321.69,-168.76 338.14,-169.4"/>
<polygon fill="#d46a6a" stroke="#d46a6a" stroke-width="1.5" points="337.74,-172.19 345.88,-169.83 338.04,-166.59 337.74,-172.19"/>
</g>
<!-- rel_3 -->
<g id="node15" class="node">
<title>rel_3</title>
<path fill="#f5b8b8" stroke="#d46a6a" stroke-width="1.2" d="M409.62,-133C409.62,-133 361.38,-133 361.38,-133 355.38,-133 349.38,-127 349.38,-121 349.38,-121 349.38,-109 349.38,-109 349.38,-103 355.38,-97 361.38,-97 361.38,-97 409.62,-97 409.62,-97 415.62,-97 421.62,-103 421.62,-109 421.62,-109 421.62,-121 421.62,-121 421.62,-127 415.62,-133 409.62,-133"/>
<text xml:space="preserve" text-anchor="middle" x="385.5" y="-111.5" font-family="Arial" font-size="10.00" fill="#8b0000">converges at</text>
</g>
<!-- mark.line&#45;&gt;rel_3 -->
<g id="edge14" class="edge">
<title>mark.line&#45;&gt;rel_3</title>
<path fill="none" stroke="#d46a6a" stroke-width="1.5" d="M289.47,-165.74C304.61,-157.65 323.92,-147.34 341.17,-138.13"/>
<polygon fill="#d46a6a" stroke="#d46a6a" stroke-width="1.5" points="342.23,-140.74 347.97,-134.5 339.59,-135.8 342.23,-140.74"/>
</g>
<!-- property.color -->
<g id="node2" class="node">
<title>property.color</title>
<path fill="#b8e6b8" stroke="#2c3e50" stroke-width="1.8" d="M42,-230C42,-230 12,-230 12,-230 6,-230 0,-224 0,-218 0,-218 0,-206 0,-206 0,-200 6,-194 12,-194 12,-194 42,-194 42,-194 48,-194 54,-200 54,-206 54,-206 54,-218 54,-218 54,-224 48,-230 42,-230"/>
<text xml:space="preserve" text-anchor="middle" x="27" y="-208.5" font-family="Arial" font-size="10.00" fill="#1a1a1a">color</text>
</g>
<!-- attr_1 -->
<g id="node7" class="node">
<title>attr_1</title>
<path fill="#c7b8e6" stroke="#7f8c8d" stroke-width="1.2" d="M178.25,-263C178.25,-263 110.5,-263 110.5,-263 104.5,-263 98.5,-257 98.5,-251 98.5,-251 98.5,-239 98.5,-239 98.5,-233 104.5,-227 110.5,-227 110.5,-227 178.25,-227 178.25,-227 184.25,-227 190.25,-233 190.25,-239 190.25,-239 190.25,-251 190.25,-251 190.25,-257 184.25,-263 178.25,-263"/>
<text xml:space="preserve" text-anchor="middle" x="144.38" y="-241.5" font-family="Arial" font-size="10.00" fill="#1a1a1a">(+) only one color</text>
</g>
<!-- property.color&#45;&gt;attr_1 -->
<g id="edge3" class="edge">
<title>property.color&#45;&gt;attr_1</title>
<path fill="none" stroke="#aaaaaa" d="M54.76,-219.65C65.35,-222.68 77.92,-226.28 90.22,-229.8"/>
<polygon fill="#aaaaaa" stroke="#aaaaaa" points="89.37,-232.1 96.78,-231.67 90.72,-227.39 89.37,-232.1"/>
</g>
<!-- rel_1 -->
<g id="node13" class="node">
<title>rel_1</title>
<path fill="#f5b8b8" stroke="#d46a6a" stroke-width="1.2" d="M179.75,-198C179.75,-198 109,-198 109,-198 103,-198 97,-192 97,-186 97,-186 97,-174 97,-174 97,-168 103,-162 109,-162 109,-162 179.75,-162 179.75,-162 185.75,-162 191.75,-168 191.75,-174 191.75,-174 191.75,-186 191.75,-186 191.75,-192 185.75,-198 179.75,-198"/>
<text xml:space="preserve" text-anchor="middle" x="144.38" y="-176.5" font-family="Arial" font-size="10.00" fill="#8b0000">fails to distinguish</text>
</g>
<!-- property.color&#45;&gt;rel_1 -->
<g id="edge10" class="edge">
<title>property.color&#45;&gt;rel_1</title>
<path fill="none" stroke="#d46a6a" stroke-width="1.5" d="M54.76,-204.58C64.34,-201.92 75.53,-198.82 86.67,-195.73"/>
<polygon fill="#d46a6a" stroke="#d46a6a" stroke-width="1.5" points="87.26,-198.47 94.22,-193.63 85.76,-193.07 87.26,-198.47"/>
</g>
<!-- mark.point -->
<g id="node3" class="node">
<title>mark.point</title>
<path fill="#b8e6b8" stroke="#2c3e50" stroke-width="1.8" d="M524.25,-133C524.25,-133 494.25,-133 494.25,-133 488.25,-133 482.25,-127 482.25,-121 482.25,-121 482.25,-109 482.25,-109 482.25,-103 488.25,-97 494.25,-97 494.25,-97 524.25,-97 524.25,-97 530.25,-97 536.25,-103 536.25,-109 536.25,-109 536.25,-121 536.25,-121 536.25,-127 530.25,-133 524.25,-133"/>
<text xml:space="preserve" text-anchor="middle" x="509.25" y="-111.5" font-family="Arial" font-size="10.00" fill="#1a1a1a">point</text>
</g>
<!-- attr_4 -->
<g id="node8" class="node">
<title>attr_4</title>
<path fill="#c7b8e6" stroke="#7f8c8d" stroke-width="1.2" d="M692,-166C692,-166 591.25,-166 591.25,-166 585.25,-166 579.25,-160 579.25,-154 579.25,-154 579.25,-142 579.25,-142 579.25,-136 585.25,-130 591.25,-130 591.25,-130 692,-130 692,-130 698,-130 704,-136 704,-142 704,-142 704,-154 704,-154 704,-160 698,-166 692,-166"/>
<text xml:space="preserve" text-anchor="middle" x="641.62" y="-144.5" font-family="Arial" font-size="10.00" fill="#1a1a1a">(+) lots of meeting points</text>
</g>
<!-- mark.point&#45;&gt;attr_4 -->
<g id="edge4" class="edge">
<title>mark.point&#45;&gt;attr_4</title>
<path fill="none" stroke="#aaaaaa" d="M536.95,-121.76C546.91,-124.28 558.74,-127.27 570.78,-130.32"/>
<polygon fill="#aaaaaa" stroke="#aaaaaa" points="569.85,-132.61 577.24,-131.96 571.06,-127.86 569.85,-132.61"/>
</g>
<!-- rel_2 -->
<g id="node14" class="node">
<title>rel_2</title>
<path fill="#f5b8b8" stroke="#d46a6a" stroke-width="1.2" d="M657.5,-101C657.5,-101 625.75,-101 625.75,-101 619.75,-101 613.75,-95 613.75,-89 613.75,-89 613.75,-77 613.75,-77 613.75,-71 619.75,-65 625.75,-65 625.75,-65 657.5,-65 657.5,-65 663.5,-65 669.5,-71 669.5,-77 669.5,-77 669.5,-89 669.5,-89 669.5,-95 663.5,-101 657.5,-101"/>
<text xml:space="preserve" text-anchor="middle" x="641.62" y="-79.5" font-family="Arial" font-size="10.00" fill="#8b0000">obscures</text>
</g>
<!-- mark.point&#45;&gt;rel_2 -->
<g id="edge12" class="edge">
<title>mark.point&#45;&gt;rel_2</title>
<path fill="none" stroke="#d46a6a" stroke-width="1.5" d="M536.95,-108.45C556.24,-103.71 582.54,-97.26 603.83,-92.03"/>
<polygon fill="#d46a6a" stroke="#d46a6a" stroke-width="1.5" points="604.21,-94.82 611.31,-90.2 602.87,-89.38 604.21,-94.82"/>
</g>
<!-- content.data -->
<g id="node4" class="node">
<title>content.data</title>
<path fill="#b8e6b8" stroke="#2c3e50" stroke-width="1.8" d="M799,-101C799,-101 759,-101 759,-101 753,-101 747,-95 747,-89 747,-89 747,-77 747,-77 747,-71 753,-65 759,-65 759,-65 799,-65 799,-65 805,-65 811,-71 811,-77 811,-77 811,-89 811,-89 811,-95 805,-101 799,-101"/>
<text xml:space="preserve" text-anchor="middle" x="779" y="-79.5" font-family="Arial" font-size="10.00" fill="#1a1a1a">information</text>
</g>
<!-- attr_3 -->
<g id="node9" class="node">
<title>attr_3</title>
<path fill="#c7b8e6" stroke="#7f8c8d" stroke-width="1.2" d="M936,-166C936,-166 873.5,-166 873.5,-166 867.5,-166 861.5,-160 861.5,-154 861.5,-154 861.5,-142 861.5,-142 861.5,-136 867.5,-130 873.5,-130 873.5,-130 936,-130 936,-130 942,-130 948,-136 948,-142 948,-142 948,-154 948,-154 948,-160 942,-166 936,-166"/>
<text xml:space="preserve" text-anchor="middle" x="904.75" y="-144.5" font-family="Arial" font-size="10.00" fill="#1a1a1a">(+) nothing clear</text>
</g>
<!-- content.data&#45;&gt;attr_3 -->
<g id="edge5" class="edge">
<title>content.data&#45;&gt;attr_3</title>
<path fill="none" stroke="#aaaaaa" d="M811.87,-99.74C826.9,-107.63 845.04,-117.16 861.22,-125.66"/>
<polygon fill="#aaaaaa" stroke="#aaaaaa" points="859.83,-127.7 867.16,-128.78 862.11,-123.36 859.83,-127.7"/>
</g>
<!-- attr_5 -->
<g id="node10" class="node">
<title>attr_5</title>
<path fill="#c7b8e6" stroke="#7f8c8d" stroke-width="1.2" d="M940.5,-101C940.5,-101 869,-101 869,-101 863,-101 857,-95 857,-89 857,-89 857,-77 857,-77 857,-71 863,-65 869,-65 869,-65 940.5,-65 940.5,-65 946.5,-65 952.5,-71 952.5,-77 952.5,-77 952.5,-89 952.5,-89 952.5,-95 946.5,-101 940.5,-101"/>
<text xml:space="preserve" text-anchor="middle" x="904.75" y="-79.5" font-family="Arial" font-size="10.00" fill="#1a1a1a">(+) hard to discern</text>
</g>
<!-- content.data&#45;&gt;attr_5 -->
<g id="edge6" class="edge">
<title>content.data&#45;&gt;attr_5</title>
<path fill="none" stroke="#aaaaaa" d="M811.87,-83C822.92,-83 835.67,-83 848.07,-83"/>
<polygon fill="#aaaaaa" stroke="#aaaaaa" points="848.07,-85.45 855.07,-83 848.07,-80.55 848.07,-85.45"/>
</g>
<!-- attr_6 -->
<g id="node11" class="node">
<title>attr_6</title>
<path fill="#c7b8e6" stroke="#7f8c8d" stroke-width="1.2" d="M943.5,-36C943.5,-36 866,-36 866,-36 860,-36 854,-30 854,-24 854,-24 854,-12 854,-12 854,-6 860,0 866,0 866,0 943.5,0 943.5,0 949.5,0 955.5,-6 955.5,-12 955.5,-12 955.5,-24 955.5,-24 955.5,-30 949.5,-36 943.5,-36"/>
<text xml:space="preserve" text-anchor="middle" x="904.75" y="-14.5" font-family="Arial" font-size="10.00" fill="#1a1a1a">(+) could be difficult</text>
</g>
<!-- content.data&#45;&gt;attr_6 -->
<g id="edge7" class="edge">
<title>content.data&#45;&gt;attr_6</title>
<path fill="none" stroke="#aaaaaa" d="M811.87,-66.26C826.9,-58.37 845.04,-48.84 861.22,-40.34"/>
<polygon fill="#aaaaaa" stroke="#aaaaaa" points="862.11,-42.64 867.16,-37.22 859.83,-38.3 862.11,-42.64"/>
</g>
<!-- rel_0&#45;&gt;mark.line -->
<g id="edge9" class="edge">
<title>rel_0&#45;&gt;mark.line</title>
<path fill="none" stroke="#d46a6a" stroke-width="1.5" stroke-dasharray="5,2" d="M348.14,-190.05C329.3,-191.39 306.69,-191.1 289.47,-189.18"/>
</g>
<!-- rel_1&#45;&gt;mark.line -->
<g id="edge11" class="edge">
<title>rel_1&#45;&gt;mark.line</title>
<path fill="none" stroke="#d46a6a" stroke-width="1.5" d="M192.3,-180C202.86,-180 213.92,-180 223.99,-180"/>
<polygon fill="#d46a6a" stroke="#d46a6a" stroke-width="1.5" points="223.79,-182.8 231.79,-180 223.79,-177.2 223.79,-182.8"/>
</g>
<!-- rel_2&#45;&gt;content.data -->
<g id="edge13" class="edge">
<title>rel_2&#45;&gt;content.data</title>
<path fill="none" stroke="#d46a6a" stroke-width="1.5" d="M670.02,-83C689.01,-83 714.65,-83 736.18,-83"/>
<polygon fill="#d46a6a" stroke="#d46a6a" stroke-width="1.5" points="736.1,-85.8 744.1,-83 736.1,-80.2 736.1,-85.8"/>
</g>
<!-- rel_3&#45;&gt;mark.point -->
<g id="edge15" class="edge">
<title>rel_3&#45;&gt;mark.point</title>
<path fill="none" stroke="#d46a6a" stroke-width="1.5" d="M422.04,-115C437.59,-115 455.82,-115 471.5,-115"/>
<polygon fill="#d46a6a" stroke="#d46a6a" stroke-width="1.5" points="471.11,-117.8 479.11,-115 471.11,-112.2 471.11,-117.8"/>
</g>
</g>
</svg>
