<?xml version="1.0" encoding="UTF-8" standalone="no"?>
<!DOCTYPE svg PUBLIC "-//W3C//DTD SVG 1.1//EN"
 "http://www.w3.org/Graphics/SVG/1.1/DTD/svg11.dtd">
<!-- Generated by graphviz version 14.1.5 (20260411.2331)
 -->
<!-- Title: InfoVisJ.2402.12(1).png Pages: 1 -->
<svg width="773pt" height="376pt"
 viewBox="0.00 0.00 773.00 376.00" xmlns="http://www.w3.org/2000/svg" xmlns:xlink="http://www.w3.org/1999/xlink">
<g id="graph0" class="graph" transform="scale(1 1) rotate(0) translate(4 372)">
<title>InfoVisJ.2402.12(1).png</title>
<polygon fill="white" stroke="none" points="-4,4 -4,-372 768.5,-372 768.5,4 -4,4"/>
<text xml:space="preserve" text-anchor="start" x="293" y="-345.8" font-family="Arial" font-weight="bold" font-size="16.00">InfoVisJ.2402.12(1).png</text>
<text xml:space="preserve" text-anchor="start" x="335.38" y="-324" font-family="Arial" font-size="12.00">Area &#160;| &#160;VC = 0.88</text>
<path fill="#b8e6b8" stroke="none" d="M160.88,-299C160.88,-299 176.88,-299 176.88,-299 179.88,-299 182.88,-302 182.88,-305 182.88,-305 182.88,-311 182.88,-311 182.88,-314 179.88,-317 176.88,-317 176.88,-317 160.88,-317 160.88,-317 157.88,-317 154.88,-314 154.88,-311 154.88,-311 154.88,-305 154.88,-305 154.88,-302 157.88,-299 160.88,-299"/>
<path fill="none" stroke="black" d="M160.88,-299C160.88,-299 176.88,-299 176.88,-299 179.88,-299 182.88,-302 182.88,-305 182.88,-305 182.88,-311 182.88,-311 182.88,-314 179.88,-317 176.88,-317 176.88,-317 160.88,-317 160.88,-317 157.88,-317 154.88,-314 154.88,-311 154.88,-311 154.88,-305 154.88,-305 154.88,-302 157.88,-299 160.88,-299"/>
<text xml:space="preserve" text-anchor="start" x="167.38" y="-304.25" font-family="Arial" font-size="10.00"> </text>
<text xml:space="preserve" text-anchor="start" x="186.88" y="-304.25" font-family="Arial" font-size="10.00">Object</text>
<path fill="#c7b8e6" stroke="none" d="M225.38,-299C225.38,-299 241.38,-299 241.38,-299 244.38,-299 247.38,-302 247.38,-305 247.38,-305 247.38,-311 247.38,-311 247.38,-314 244.38,-317 241.38,-317 241.38,-317 225.38,-317 225.38,-317 222.38,-317 219.38,-314 219.38,-311 219.38,-311 219.38,-305 219.38,-305 219.38,-302 222.38,-299 225.38,-299"/>
<path fill="none" stroke="black" d="M225.38,-299C225.38,-299 241.38,-299 241.38,-299 244.38,-299 247.38,-302 247.38,-305 247.38,-305 247.38,-311 247.38,-311 247.38,-314 244.38,-317 241.38,-317 241.38,-317 225.38,-317 225.38,-317 222.38,-317 219.38,-314 219.38,-311 219.38,-311 219.38,-305 219.38,-305 219.38,-302 222.38,-299 225.38,-299"/>
<text xml:space="preserve" text-anchor="start" x="231.88" y="-304.25" font-family="Arial" font-size="10.00"> </text>
<text xml:space="preserve" text-anchor="start" x="251.38" y="-304.25" font-family="Arial" font-size="10.00">Attribute</text>
<path fill="#f5b8b8" stroke="none" d="M298.12,-299C298.12,-299 314.12,-299 314.12,-299 317.12,-299 320.12,-302 320.12,-305 320.12,-305 320.12,-311 320.12,-311 320.12,-314 317.12,-317 314.12,-317 314.12,-317 298.12,-317 298.12,-317 295.12,-317 292.12,-314 292.12,-311 292.12,-311 292.12,-305 292.12,-305 292.12,-302 295.12,-299 298.12,-299"/>
<path fill="none" stroke="black" d="M298.12,-299C298.12,-299 314.12,-299 314.12,-299 317.12,-299 320.12,-302 320.12,-305 320.12,-305 320.12,-311 320.12,-311 320.12,-314 317.12,-317 314.12,-317 314.12,-317 298.12,-317 298.12,-317 295.12,-317 292.12,-314 292.12,-311 292.12,-311 292.12,-305 292.12,-305 292.12,-302 295.12,-299 298.12,-299"/>
<text xml:space="preserve" text-anchor="start" x="304.62" y="-304.25" font-family="Arial" font-size="10.00"> </text>
<text xml:space="preserve" text-anchor="start" x="324.12" y="-304.25" font-family="Arial" font-size="10.00">Relationship</text>
<text xml:space="preserve" text-anchor="start" x="384.12" y="-305.5" font-family="Arial" font-weight="bold" font-size="10.00">(+)</text>
<text xml:space="preserve" text-anchor="start" x="396.12" y="-305.5" font-family="Arial" font-size="10.00"> increases complexity</text>
<text xml:space="preserve" text-anchor="start" x="497.38" y="-305.5" font-family="Arial" font-weight="bold" font-size="10.00">(−)</text>
<text xml:space="preserve" text-anchor="start" x="509.38" y="-305.5" font-family="Arial" font-size="10.00"> decreases complexity</text>
<text xml:space="preserve" text-anchor="start" x="380.75" y="-279.25" font-family="Arial" font-size="10.00"> </text>
<!-- unknown.observation -->
<g id="node1" class="node">
<title>unknown.observation</title>
<path fill="#b8e6b8" stroke="#2c3e50" stroke-width="1.8" d="M306.25,-52C306.25,-52 264,-52 264,-52 258,-52 252,-46 252,-40 252,-40 252,-28 252,-28 252,-22 258,-16 264,-16 264,-16 306.25,-16 306.25,-16 312.25,-16 318.25,-22 318.25,-28 318.25,-28 318.25,-40 318.25,-40 318.25,-46 312.25,-52 306.25,-52"/>
<text xml:space="preserve" text-anchor="middle" x="285.12" y="-30.5" font-family="Arial" font-size="10.00" fill="#1a1a1a">observation</text>
</g>
<!-- attr_0 -->
<g id="node6" class="node">
<title>attr_0</title>
<path fill="#c7b8e6" stroke="#7f8c8d" stroke-width="1.2" d="M489.75,-101C489.75,-101 373.25,-101 373.25,-101 367.25,-101 361.25,-95 361.25,-89 361.25,-89 361.25,-77 361.25,-77 361.25,-71 367.25,-65 373.25,-65 373.25,-65 489.75,-65 489.75,-65 495.75,-65 501.75,-71 501.75,-77 501.75,-77 501.75,-89 501.75,-89 501.75,-95 495.75,-101 489.75,-101"/>
<text xml:space="preserve" text-anchor="middle" x="431.5" y="-79.5" font-family="Arial" font-size="10.00" fill="#1a1a1a">(+) multitude of observations</text>
</g>
<!-- unknown.observation&#45;&gt;attr_0 -->
<g id="edge1" class="edge">
<title>unknown.observation&#45;&gt;attr_0</title>
<path fill="none" stroke="#aaaaaa" d="M318.89,-45.12C333.46,-50.07 351.13,-56.06 368.06,-61.81"/>
<polygon fill="#aaaaaa" stroke="#aaaaaa" points="366.93,-64.01 374.35,-63.94 368.51,-59.37 366.93,-64.01"/>
</g>
<!-- rel_0 -->
<g id="node11" class="node">
<title>rel_0</title>
<path fill="#f5b8b8" stroke="#d46a6a" stroke-width="1.2" d="M461.62,-36C461.62,-36 401.38,-36 401.38,-36 395.38,-36 389.38,-30 389.38,-24 389.38,-24 389.38,-12 389.38,-12 389.38,-6 395.38,0 401.38,0 401.38,0 461.62,0 461.62,0 467.62,0 473.62,-6 473.62,-12 473.62,-12 473.62,-24 473.62,-24 473.62,-30 467.62,-36 461.62,-36"/>
<text xml:space="preserve" text-anchor="middle" x="431.5" y="-14.5" font-family="Arial" font-size="10.00" fill="#8b0000">overwhelms via</text>
</g>
<!-- unknown.observation&#45;&gt;rel_0 -->
<g id="edge6" class="edge">
<title>unknown.observation&#45;&gt;rel_0</title>
<path fill="none" stroke="#d46a6a" stroke-width="1.5" d="M318.89,-30.37C336.53,-28.41 358.7,-25.96 378.62,-23.75"/>
<polygon fill="#d46a6a" stroke="#d46a6a" stroke-width="1.5" points="378.9,-26.54 386.55,-22.87 378.29,-20.97 378.9,-26.54"/>
</g>
<!-- unknown.figure -->
<g id="node2" class="node">
<title>unknown.figure</title>
<path fill="#b8e6b8" stroke="#2c3e50" stroke-width="1.8" d="M300.12,-198C300.12,-198 270.12,-198 270.12,-198 264.12,-198 258.12,-192 258.12,-186 258.12,-186 258.12,-174 258.12,-174 258.12,-168 264.12,-162 270.12,-162 270.12,-162 300.12,-162 300.12,-162 306.12,-162 312.12,-168 312.12,-174 312.12,-174 312.12,-186 312.12,-186 312.12,-192 306.12,-198 300.12,-198"/>
<text xml:space="preserve" text-anchor="middle" x="285.12" y="-176.5" font-family="Arial" font-size="10.00" fill="#1a1a1a">figure</text>
</g>
<!-- attr_1 -->
<g id="node7" class="node">
<title>attr_1</title>
<path fill="#c7b8e6" stroke="#7f8c8d" stroke-width="1.2" d="M468.38,-198C468.38,-198 394.62,-198 394.62,-198 388.62,-198 382.62,-192 382.62,-186 382.62,-186 382.62,-174 382.62,-174 382.62,-168 388.62,-162 394.62,-162 394.62,-162 468.38,-162 468.38,-162 474.38,-162 480.38,-168 480.38,-174 480.38,-174 480.38,-186 480.38,-186 480.38,-192 474.38,-198 468.38,-198"/>
<text xml:space="preserve" text-anchor="middle" x="431.5" y="-176.5" font-family="Arial" font-size="10.00" fill="#1a1a1a">(+) different figures</text>
</g>
<!-- unknown.figure&#45;&gt;attr_1 -->
<g id="edge2" class="edge">
<title>unknown.figure&#45;&gt;attr_1</title>
<path fill="none" stroke="#aaaaaa" d="M312.94,-180C330.08,-180 352.94,-180 373.96,-180"/>
<polygon fill="#aaaaaa" stroke="#aaaaaa" points="373.69,-182.45 380.69,-180 373.69,-177.55 373.69,-182.45"/>
</g>
<!-- unknown.size -->
<g id="node3" class="node">
<title>unknown.size</title>
<path fill="#b8e6b8" stroke="#2c3e50" stroke-width="1.8" d="M42,-230C42,-230 12,-230 12,-230 6,-230 0,-224 0,-218 0,-218 0,-206 0,-206 0,-200 6,-194 12,-194 12,-194 42,-194 42,-194 48,-194 54,-200 54,-206 54,-206 54,-218 54,-218 54,-224 48,-230 42,-230"/>
<text xml:space="preserve" text-anchor="middle" x="27" y="-208.5" font-family="Arial" font-size="10.00" fill="#1a1a1a">size</text>
</g>
<!-- attr_2 -->
<g id="node8" class="node">
<title>attr_2</title>
<path fill="#c7b8e6" stroke="#7f8c8d" stroke-width="1.2" d="M197,-263C197,-263 109,-263 109,-263 103,-263 97,-257 97,-251 97,-251 97,-239 97,-239 97,-233 103,-227 109,-227 109,-227 197,-227 197,-227 203,-227 209,-233 209,-239 209,-239 209,-251 209,-251 209,-257 203,-263 197,-263"/>
<text xml:space="preserve" text-anchor="middle" x="153" y="-241.5" font-family="Arial" font-size="10.00" fill="#1a1a1a">(−) size growing small</text>
</g>
<!-- unknown.size&#45;&gt;attr_2 -->
<g id="edge3" class="edge">
<title>unknown.size&#45;&gt;attr_2</title>
<path fill="none" stroke="#aaaaaa" d="M54.6,-219.08C64.7,-221.77 76.68,-224.96 88.73,-228.16"/>
<polygon fill="#aaaaaa" stroke="#aaaaaa" points="87.78,-230.44 95.18,-229.88 89.04,-225.71 87.78,-230.44"/>
</g>
<!-- rel_1 -->
<g id="node12" class="node">
<title>rel_1</title>
<path fill="#f5b8b8" stroke="#d46a6a" stroke-width="1.2" d="M178.25,-198C178.25,-198 127.75,-198 127.75,-198 121.75,-198 115.75,-192 115.75,-186 115.75,-186 115.75,-174 115.75,-174 115.75,-168 121.75,-162 127.75,-162 127.75,-162 178.25,-162 178.25,-162 184.25,-162 190.25,-168 190.25,-174 190.25,-174 190.25,-186 190.25,-186 190.25,-192 184.25,-198 178.25,-198"/>
<text xml:space="preserve" text-anchor="middle" x="153" y="-176.5" font-family="Arial" font-size="10.00" fill="#8b0000">varies across</text>
</g>
<!-- unknown.size&#45;&gt;rel_1 -->
<g id="edge8" class="edge">
<title>unknown.size&#45;&gt;rel_1</title>
<path fill="none" stroke="#d46a6a" stroke-width="1.5" d="M54.6,-205.14C69.47,-201.3 88.43,-196.4 105.66,-191.96"/>
<polygon fill="#d46a6a" stroke="#d46a6a" stroke-width="1.5" points="106.32,-194.68 113.37,-189.97 104.92,-189.26 106.32,-194.68"/>
</g>
<!-- property.color -->
<g id="node4" class="node">
<title>property.color</title>
<path fill="#b8e6b8" stroke="#2c3e50" stroke-width="1.8" d="M42,-84C42,-84 12,-84 12,-84 6,-84 0,-78 0,-72 0,-72 0,-60 0,-60 0,-54 6,-48 12,-48 12,-48 42,-48 42,-48 48,-48 54,-54 54,-60 54,-60 54,-72 54,-72 54,-78 48,-84 42,-84"/>
<text xml:space="preserve" text-anchor="middle" x="27" y="-62.5" font-family="Arial" font-size="10.00" fill="#1a1a1a">color</text>
</g>
<!-- attr_3 -->
<g id="node9" class="node">
<title>attr_3</title>
<path fill="#c7b8e6" stroke="#7f8c8d" stroke-width="1.2" d="M188.38,-117C188.38,-117 117.62,-117 117.62,-117 111.62,-117 105.62,-111 105.62,-105 105.62,-105 105.62,-93 105.62,-93 105.62,-87 111.62,-81 117.62,-81 117.62,-81 188.38,-81 188.38,-81 194.38,-81 200.38,-87 200.38,-93 200.38,-93 200.38,-105 200.38,-105 200.38,-111 194.38,-117 188.38,-117"/>
<text xml:space="preserve" text-anchor="middle" x="153" y="-95.5" font-family="Arial" font-size="10.00" fill="#1a1a1a">(−) different colors</text>
</g>
<!-- property.color&#45;&gt;attr_3 -->
<g id="edge4" class="edge">
<title>property.color&#45;&gt;attr_3</title>
<path fill="none" stroke="#aaaaaa" d="M54.6,-73.08C67.09,-76.4 82.46,-80.49 97.27,-84.44"/>
<polygon fill="#aaaaaa" stroke="#aaaaaa" points="96.56,-86.78 103.96,-86.21 97.82,-82.05 96.56,-86.78"/>
</g>
<!-- rel_2 -->
<g id="node13" class="node">
<title>rel_2</title>
<path fill="#f5b8b8" stroke="#d46a6a" stroke-width="1.2" d="M187.62,-52C187.62,-52 118.38,-52 118.38,-52 112.38,-52 106.38,-46 106.38,-40 106.38,-40 106.38,-28 106.38,-28 106.38,-22 112.38,-16 118.38,-16 118.38,-16 187.62,-16 187.62,-16 193.62,-16 199.62,-22 199.62,-28 199.62,-28 199.62,-40 199.62,-40 199.62,-46 193.62,-52 187.62,-52"/>
<text xml:space="preserve" text-anchor="middle" x="153" y="-30.5" font-family="Arial" font-size="10.00" fill="#8b0000">distributed across</text>
</g>
<!-- property.color&#45;&gt;rel_2 -->
<g id="edge10" class="edge">
<title>property.color&#45;&gt;rel_2</title>
<path fill="none" stroke="#d46a6a" stroke-width="1.5" d="M54.6,-59.14C66.74,-56 81.61,-52.17 96.04,-48.44"/>
<polygon fill="#d46a6a" stroke="#d46a6a" stroke-width="1.5" points="96.67,-51.17 103.72,-46.46 95.27,-45.75 96.67,-51.17"/>
</g>
<!-- unknown.distribution -->
<g id="node5" class="node">
<title>unknown.distribution</title>
<path fill="#b8e6b8" stroke="#2c3e50" stroke-width="1.8" d="M596,-36C596,-36 556.75,-36 556.75,-36 550.75,-36 544.75,-30 544.75,-24 544.75,-24 544.75,-12 544.75,-12 544.75,-6 550.75,0 556.75,0 556.75,0 596,0 596,0 602,0 608,-6 608,-12 608,-12 608,-24 608,-24 608,-30 602,-36 596,-36"/>
<text xml:space="preserve" text-anchor="middle" x="576.38" y="-14.5" font-family="Arial" font-size="10.00" fill="#1a1a1a">distribution</text>
</g>
<!-- attr_4 -->
<g id="node10" class="node">
<title>attr_4</title>
<path fill="#c7b8e6" stroke="#7f8c8d" stroke-width="1.2" d="M752.5,-36C752.5,-36 663,-36 663,-36 657,-36 651,-30 651,-24 651,-24 651,-12 651,-12 651,-6 657,0 663,0 663,0 752.5,0 752.5,0 758.5,0 764.5,-6 764.5,-12 764.5,-12 764.5,-24 764.5,-24 764.5,-30 758.5,-36 752.5,-36"/>
<text xml:space="preserve" text-anchor="middle" x="707.75" y="-14.5" font-family="Arial" font-size="10.00" fill="#1a1a1a">(+) unfamiliar software</text>
</g>
<!-- unknown.distribution&#45;&gt;attr_4 -->
<g id="edge5" class="edge">
<title>unknown.distribution&#45;&gt;attr_4</title>
<path fill="none" stroke="#aaaaaa" d="M608.69,-18C618.8,-18 630.41,-18 642.02,-18"/>
<polygon fill="#aaaaaa" stroke="#aaaaaa" points="641.94,-20.45 648.94,-18 641.94,-15.55 641.94,-20.45"/>
</g>
<!-- rel_0&#45;&gt;unknown.distribution -->
<g id="edge7" class="edge">
<title>rel_0&#45;&gt;unknown.distribution</title>
<path fill="none" stroke="#d46a6a" stroke-width="1.5" d="M474.21,-18C493.11,-18 515.4,-18 534.23,-18"/>
<polygon fill="#d46a6a" stroke="#d46a6a" stroke-width="1.5" points="534.03,-20.8 542.03,-18 534.03,-15.2 534.03,-20.8"/>
</g>
<!-- rel_1&#45;&gt;unknown.figure -->
<g id="edge9" class="edge">
<title>rel_1&#45;&gt;unknown.figure</title>
<path fill="none" stroke="#d46a6a" stroke-width="1.5" d="M190.59,-180C208.31,-180 229.54,-180 247.3,-180"/>
<polygon fill="#d46a6a" stroke="#d46a6a" stroke-width="1.5" points="247.02,-182.8 255.02,-180 247.02,-177.2 247.02,-182.8"/>
</g>
<!-- rel_2&#45;&gt;unknown.observation -->
<g id="edge11" class="edge">
<title>rel_2&#45;&gt;unknown.observation</title>
<path fill="none" stroke="#d46a6a" stroke-width="1.5" d="M199.88,-34C213.27,-34 227.86,-34 241.07,-34"/>
<polygon fill="#d46a6a" stroke="#d46a6a" stroke-width="1.5" points="241.06,-36.8 249.06,-34 241.06,-31.2 241.06,-36.8"/>
</g>
</g>
</svg>
