<?xml version="1.0" encoding="UTF-8" standalone="no"?>
<!DOCTYPE svg PUBLIC "-//W3C//DTD SVG 1.1//EN"
 "http://www.w3.org/Graphics/SVG/1.1/DTD/svg11.dtd">
<!-- Generated by graphviz version 14.1.5 (20260411.2331)
 -->
<!-- Title: VASTJ.422.7.png Pages: 1 -->
<svg width="687pt" height="344pt"
 viewBox="0.00 0.00 687.00 344.00" xmlns="http://www.w3.org/2000/svg" xmlns:xlink="http://www.w3.org/1999/xlink">
<g id="graph0" class="graph" transform="scale(1 1) rotate(0) translate(4 340)">
<title>VASTJ.422.7.png</title>
<polygon fill="white" stroke="none" points="-4,4 -4,-340 683.25,-340 683.25,4 -4,4"/>
<text xml:space="preserve" text-anchor="start" x="275.12" y="-313.8" font-family="Arial" font-weight="bold" font-size="16.00">VASTJ.422.7.png</text>
<text xml:space="preserve" text-anchor="start" x="291.62" y="-292" font-family="Arial" font-size="12.00">Point &#160;| &#160;VC = 0.64</text>
<path fill="#b8e6b8" stroke="none" d="M118.25,-267C118.25,-267 134.25,-267 134.25,-267 137.25,-267 140.25,-270 140.25,-273 140.25,-273 140.25,-279 140.25,-279 140.25,-282 137.25,-285 134.25,-285 134.25,-285 118.25,-285 118.25,-285 115.25,-285 112.25,-282 112.25,-279 112.25,-279 112.25,-273 112.25,-273 112.25,-270 115.25,-267 118.25,-267"/>
<path fill="none" stroke="black" d="M118.25,-267C118.25,-267 134.25,-267 134.25,-267 137.25,-267 140.25,-270 140.25,-273 140.25,-273 140.25,-279 140.25,-279 140.25,-282 137.25,-285 134.25,-285 134.25,-285 118.25,-285 118.25,-285 115.25,-285 112.25,-282 112.25,-279 112.25,-279 112.25,-273 112.25,-273 112.25,-270 115.25,-267 118.25,-267"/>
<text xml:space="preserve" text-anchor="start" x="124.75" y="-272.25" font-family="Arial" font-size="10.00"> </text>
<text xml:space="preserve" text-anchor="start" x="144.25" y="-272.25" font-family="Arial" font-size="10.00">Object</text>
<path fill="#c7b8e6" stroke="none" d="M182.75,-267C182.75,-267 198.75,-267 198.75,-267 201.75,-267 204.75,-270 204.75,-273 204.75,-273 204.75,-279 204.75,-279 204.75,-282 201.75,-285 198.75,-285 198.75,-285 182.75,-285 182.75,-285 179.75,-285 176.75,-282 176.75,-279 176.75,-279 176.75,-273 176.75,-273 176.75,-270 179.75,-267 182.75,-267"/>
<path fill="none" stroke="black" d="M182.75,-267C182.75,-267 198.75,-267 198.75,-267 201.75,-267 204.75,-270 204.75,-273 204.75,-273 204.75,-279 204.75,-279 204.75,-282 201.75,-285 198.75,-285 198.75,-285 182.75,-285 182.75,-285 179.75,-285 176.75,-282 176.75,-279 176.75,-279 176.75,-273 176.75,-273 176.75,-270 179.75,-267 182.75,-267"/>
<text xml:space="preserve" text-anchor="start" x="189.25" y="-272.25" font-family="Arial" font-size="10.00"> </text>
<text xml:space="preserve" text-anchor="start" x="208.75" y="-272.25" font-family="Arial" font-size="10.00">Attribute</text>
<path fill="#f5b8b8" stroke="none" d="M255.5,-267C255.5,-267 271.5,-267 271.5,-267 274.5,-267 277.5,-270 277.5,-273 277.5,-273 277.5,-279 277.5,-279 277.5,-282 274.5,-285 271.5,-285 271.5,-285 255.5,-285 255.5,-285 252.5,-285 249.5,-282 249.5,-279 249.5,-279 249.5,-273 249.5,-273 249.5,-270 252.5,-267 255.5,-267"/>
<path fill="none" stroke="black" d="M255.5,-267C255.5,-267 271.5,-267 271.5,-267 274.5,-267 277.5,-270 277.5,-273 277.5,-273 277.5,-279 277.5,-279 277.5,-282 274.5,-285 271.5,-285 271.5,-285 255.5,-285 255.5,-285 252.5,-285 249.5,-282 249.5,-279 249.5,-279 249.5,-273 249.5,-273 249.5,-270 252.5,-267 255.5,-267"/>
<text xml:space="preserve" text-anchor="start" x="262" y="-272.25" font-family="Arial" font-size="10.00"> </text>
<text xml:space="preserve" text-anchor="start" x="281.5" y="-272.25" font-family="Arial" font-size="10.00">Relationship</text>
<text xml:space="preserve" text-anchor="start" x="341.5" y="-273.5" font-family="Arial" font-weight="bold" font-size="10.00">(+)</text>
<text xml:space="preserve" text-anchor="start" x="353.5" y="-273.5" font-family="Arial" font-size="10.00"> increases complexity</text>
<text xml:space="preserve" text-anchor="start" x="454.75" y="-273.5" font-family="Arial" font-weight="bold" font-size="10.00">(−)</text>
<text xml:space="preserve" text-anchor="start" x="466.75" y="-273.5" font-family="Arial" font-size="10.00"> decreases complexity</text>
<text xml:space="preserve" text-anchor="start" x="338.12" y="-247.25" font-family="Arial" font-size="10.00"> </text>
<!-- unknown.dataset -->
<g id="node1" class="node">
<title>unknown.dataset</title>
<path fill="#b8e6b8" stroke="#2c3e50" stroke-width="1.8" d="M312,-101C312,-101 282,-101 282,-101 276,-101 270,-95 270,-89 270,-89 270,-77 270,-77 270,-71 276,-65 282,-65 282,-65 312,-65 312,-65 318,-65 324,-71 324,-77 324,-77 324,-89 324,-89 324,-95 318,-101 312,-101"/>
<text xml:space="preserve" text-anchor="middle" x="297" y="-79.5" font-family="Arial" font-size="10.00" fill="#1a1a1a">dataset</text>
</g>
<!-- attr_0 -->
<g id="node5" class="node">
<title>attr_0</title>
<path fill="#c7b8e6" stroke="#7f8c8d" stroke-width="1.2" d="M445.25,-134C445.25,-134 379,-134 379,-134 373,-134 367,-128 367,-122 367,-122 367,-110 367,-110 367,-104 373,-98 379,-98 379,-98 445.25,-98 445.25,-98 451.25,-98 457.25,-104 457.25,-110 457.25,-110 457.25,-122 457.25,-122 457.25,-128 451.25,-134 445.25,-134"/>
<text xml:space="preserve" text-anchor="middle" x="412.12" y="-112.5" font-family="Arial" font-size="10.00" fill="#1a1a1a">(+) larger dataset</text>
</g>
<!-- unknown.dataset&#45;&gt;attr_0 -->
<g id="edge1" class="edge">
<title>unknown.dataset&#45;&gt;attr_0</title>
<path fill="none" stroke="#aaaaaa" d="M324.81,-90.82C335,-93.79 347,-97.29 358.75,-100.72"/>
<polygon fill="#aaaaaa" stroke="#aaaaaa" points="357.96,-103.04 365.37,-102.65 359.33,-98.34 357.96,-103.04"/>
</g>
<!-- rel_0 -->
<g id="node9" class="node">
<title>rel_0</title>
<path fill="#f5b8b8" stroke="#d46a6a" stroke-width="1.2" d="M429.12,-69C429.12,-69 395.12,-69 395.12,-69 389.12,-69 383.12,-63 383.12,-57 383.12,-57 383.12,-45 383.12,-45 383.12,-39 389.12,-33 395.12,-33 395.12,-33 429.12,-33 429.12,-33 435.12,-33 441.12,-39 441.12,-45 441.12,-45 441.12,-57 441.12,-57 441.12,-63 435.12,-69 429.12,-69"/>
<text xml:space="preserve" text-anchor="middle" x="412.12" y="-47.5" font-family="Arial" font-size="10.00" fill="#8b0000">scales up</text>
</g>
<!-- unknown.dataset&#45;&gt;rel_0 -->
<g id="edge5" class="edge">
<title>unknown.dataset&#45;&gt;rel_0</title>
<path fill="none" stroke="#d46a6a" stroke-width="1.5" d="M324.81,-75.42C339.2,-71.35 357.19,-66.26 373.01,-61.78"/>
<polygon fill="#d46a6a" stroke="#d46a6a" stroke-width="1.5" points="373.41,-64.58 380.35,-59.71 371.89,-59.19 373.41,-64.58"/>
</g>
<!-- unknown.key -->
<g id="node2" class="node">
<title>unknown.key</title>
<path fill="#b8e6b8" stroke="#2c3e50" stroke-width="1.8" d="M42,-198C42,-198 12,-198 12,-198 6,-198 0,-192 0,-186 0,-186 0,-174 0,-174 0,-168 6,-162 12,-162 12,-162 42,-162 42,-162 48,-162 54,-168 54,-174 54,-174 54,-186 54,-186 54,-192 48,-198 42,-198"/>
<text xml:space="preserve" text-anchor="middle" x="27" y="-176.5" font-family="Arial" font-size="10.00" fill="#1a1a1a">key</text>
</g>
<!-- attr_1 -->
<g id="node6" class="node">
<title>attr_1</title>
<path fill="#c7b8e6" stroke="#7f8c8d" stroke-width="1.2" d="M188,-231C188,-231 136,-231 136,-231 130,-231 124,-225 124,-219 124,-219 124,-207 124,-207 124,-201 130,-195 136,-195 136,-195 188,-195 188,-195 194,-195 200,-201 200,-207 200,-207 200,-219 200,-219 200,-225 194,-231 188,-231"/>
<text xml:space="preserve" text-anchor="middle" x="162" y="-209.5" font-family="Arial" font-size="10.00" fill="#1a1a1a">(+) bigger key</text>
</g>
<!-- unknown.key&#45;&gt;attr_1 -->
<g id="edge2" class="edge">
<title>unknown.key&#45;&gt;attr_1</title>
<path fill="none" stroke="#aaaaaa" d="M54.59,-186.6C71.98,-190.91 95.15,-196.66 115.43,-201.69"/>
<polygon fill="#aaaaaa" stroke="#aaaaaa" points="114.77,-204.05 122.15,-203.36 115.95,-199.3 114.77,-204.05"/>
</g>
<!-- rel_1 -->
<g id="node10" class="node">
<title>rel_1</title>
<path fill="#f5b8b8" stroke="#d46a6a" stroke-width="1.2" d="M179,-166C179,-166 145,-166 145,-166 139,-166 133,-160 133,-154 133,-154 133,-142 133,-142 133,-136 139,-130 145,-130 145,-130 179,-130 179,-130 185,-130 191,-136 191,-142 191,-142 191,-154 191,-154 191,-160 185,-166 179,-166"/>
<text xml:space="preserve" text-anchor="middle" x="162" y="-144.5" font-family="Arial" font-size="10.00" fill="#8b0000">describes</text>
</g>
<!-- unknown.key&#45;&gt;rel_1 -->
<g id="edge7" class="edge">
<title>unknown.key&#45;&gt;rel_1</title>
<path fill="none" stroke="#d46a6a" stroke-width="1.5" d="M54.59,-173.6C74.1,-168.91 100.86,-162.47 122.67,-157.22"/>
<polygon fill="#d46a6a" stroke="#d46a6a" stroke-width="1.5" points="123.28,-159.96 130.4,-155.36 121.97,-154.51 123.28,-159.96"/>
</g>
<!-- property.color -->
<g id="node3" class="node">
<title>property.color</title>
<path fill="#b8e6b8" stroke="#2c3e50" stroke-width="1.8" d="M542.25,-69C542.25,-69 512.25,-69 512.25,-69 506.25,-69 500.25,-63 500.25,-57 500.25,-57 500.25,-45 500.25,-45 500.25,-39 506.25,-33 512.25,-33 512.25,-33 542.25,-33 542.25,-33 548.25,-33 554.25,-39 554.25,-45 554.25,-45 554.25,-57 554.25,-57 554.25,-63 548.25,-69 542.25,-69"/>
<text xml:space="preserve" text-anchor="middle" x="527.25" y="-47.5" font-family="Arial" font-size="10.00" fill="#1a1a1a">color</text>
</g>
<!-- attr_2 -->
<g id="node7" class="node">
<title>attr_2</title>
<path fill="#c7b8e6" stroke="#7f8c8d" stroke-width="1.2" d="M667.25,-69C667.25,-69 609.25,-69 609.25,-69 603.25,-69 597.25,-63 597.25,-57 597.25,-57 597.25,-45 597.25,-45 597.25,-39 603.25,-33 609.25,-33 609.25,-33 667.25,-33 667.25,-33 673.25,-33 679.25,-39 679.25,-45 679.25,-45 679.25,-57 679.25,-57 679.25,-63 673.25,-69 667.25,-69"/>
<text xml:space="preserve" text-anchor="middle" x="638.25" y="-47.5" font-family="Arial" font-size="10.00" fill="#1a1a1a">(+) more colors</text>
</g>
<!-- property.color&#45;&gt;attr_2 -->
<g id="edge3" class="edge">
<title>property.color&#45;&gt;attr_2</title>
<path fill="none" stroke="#aaaaaa" d="M554.91,-51C565.06,-51 576.96,-51 588.51,-51"/>
<polygon fill="#aaaaaa" stroke="#aaaaaa" points="588.32,-53.45 595.32,-51 588.32,-48.55 588.32,-53.45"/>
</g>
<!-- mark.element -->
<g id="node4" class="node">
<title>mark.element</title>
<path fill="#b8e6b8" stroke="#2c3e50" stroke-width="1.8" d="M42,-69C42,-69 12,-69 12,-69 6,-69 0,-63 0,-57 0,-57 0,-45 0,-45 0,-39 6,-33 12,-33 12,-33 42,-33 42,-33 48,-33 54,-39 54,-45 54,-45 54,-57 54,-57 54,-63 48,-69 42,-69"/>
<text xml:space="preserve" text-anchor="middle" x="27" y="-47.5" font-family="Arial" font-size="10.00" fill="#1a1a1a">element</text>
</g>
<!-- attr_3 -->
<g id="node8" class="node">
<title>attr_3</title>
<path fill="#c7b8e6" stroke="#7f8c8d" stroke-width="1.2" d="M215,-101C215,-101 109,-101 109,-101 103,-101 97,-95 97,-89 97,-89 97,-77 97,-77 97,-71 103,-65 109,-65 109,-65 215,-65 215,-65 221,-65 227,-71 227,-77 227,-77 227,-89 227,-89 227,-95 221,-101 215,-101"/>
<text xml:space="preserve" text-anchor="middle" x="162" y="-79.5" font-family="Arial" font-size="10.00" fill="#1a1a1a">(+) more things to analyse</text>
</g>
<!-- mark.element&#45;&gt;attr_3 -->
<g id="edge4" class="edge">
<title>mark.element&#45;&gt;attr_3</title>
<path fill="none" stroke="#aaaaaa" d="M54.59,-57.4C64.54,-59.79 76.39,-62.64 88.49,-65.55"/>
<polygon fill="#aaaaaa" stroke="#aaaaaa" points="87.62,-67.86 95,-67.12 88.77,-63.1 87.62,-67.86"/>
</g>
<!-- rel_2 -->
<g id="node11" class="node">
<title>rel_2</title>
<path fill="#f5b8b8" stroke="#d46a6a" stroke-width="1.2" d="M184.25,-36C184.25,-36 139.75,-36 139.75,-36 133.75,-36 127.75,-30 127.75,-24 127.75,-24 127.75,-12 127.75,-12 127.75,-6 133.75,0 139.75,0 139.75,0 184.25,0 184.25,0 190.25,0 196.25,-6 196.25,-12 196.25,-12 196.25,-24 196.25,-24 196.25,-30 190.25,-36 184.25,-36"/>
<text xml:space="preserve" text-anchor="middle" x="162" y="-14.5" font-family="Arial" font-size="10.00" fill="#8b0000">increases in</text>
</g>
<!-- mark.element&#45;&gt;rel_2 -->
<g id="edge9" class="edge">
<title>mark.element&#45;&gt;rel_2</title>
<path fill="none" stroke="#d46a6a" stroke-width="1.5" d="M54.59,-44.4C72.58,-39.94 96.73,-33.95 117.48,-28.8"/>
<polygon fill="#d46a6a" stroke="#d46a6a" stroke-width="1.5" points="118.06,-31.54 125.15,-26.89 116.71,-26.1 118.06,-31.54"/>
</g>
<!-- rel_0&#45;&gt;property.color -->
<g id="edge6" class="edge">
<title>rel_0&#45;&gt;property.color</title>
<path fill="none" stroke="#d46a6a" stroke-width="1.5" d="M441.67,-51C456.28,-51 474.21,-51 489.81,-51"/>
<polygon fill="#d46a6a" stroke="#d46a6a" stroke-width="1.5" points="489.39,-53.8 497.39,-51 489.39,-48.2 489.39,-53.8"/>
</g>
<!-- rel_1&#45;&gt;unknown.dataset -->
<g id="edge8" class="edge">
<title>rel_1&#45;&gt;unknown.dataset</title>
<path fill="none" stroke="#d46a6a" stroke-width="1.5" d="M191.53,-134.06C211.61,-124.24 238.64,-111.03 260.17,-100.51"/>
<polygon fill="#d46a6a" stroke="#d46a6a" stroke-width="1.5" points="261.33,-103.06 267.29,-97.03 258.87,-98.03 261.33,-103.06"/>
</g>
<!-- rel_2&#45;&gt;unknown.dataset -->
<g id="edge10" class="edge">
<title>rel_2&#45;&gt;unknown.dataset</title>
<path fill="none" stroke="#d46a6a" stroke-width="1.5" d="M196.56,-34.4C215.96,-43.88 240.36,-55.81 260.14,-65.47"/>
<polygon fill="#d46a6a" stroke="#d46a6a" stroke-width="1.5" points="258.69,-67.88 267.11,-68.88 261.15,-62.85 258.69,-67.88"/>
</g>
</g>
</svg>
