<?xml version="1.0" encoding="UTF-8" standalone="no"?>
<!DOCTYPE svg PUBLIC "-//W3C//DTD SVG 1.1//EN"
 "http://www.w3.org/Graphics/SVG/1.1/DTD/svg11.dtd">
<!-- Generated by graphviz version 14.1.5 (20260411.2331)
 -->
<!-- Title: VASTJ.2908.2.png Pages: 1 -->
<svg width="483pt" height="409pt"
 viewBox="0.00 0.00 483.00 409.00" xmlns="http://www.w3.org/2000/svg" xmlns:xlink="http://www.w3.org/1999/xlink">
<g id="graph0" class="graph" transform="scale(1 1) rotate(0) translate(4 405)">
<title>VASTJ.2908.2.png</title>
<polygon fill="white" stroke="none" points="-4,4 -4,-405 478.75,-405 478.75,4 -4,4"/>
<text xml:space="preserve" text-anchor="start" x="168.38" y="-378.8" font-family="Arial" font-weight="bold" font-size="16.00">VASTJ.2908.2.png</text>
<text xml:space="preserve" text-anchor="start" x="192" y="-357" font-family="Arial" font-size="12.00">Grid &#160;| &#160;VC = 0.52</text>
<path fill="#b8e6b8" stroke="none" d="M16,-332C16,-332 32,-332 32,-332 35,-332 38,-335 38,-338 38,-338 38,-344 38,-344 38,-347 35,-350 32,-350 32,-350 16,-350 16,-350 13,-350 10,-347 10,-344 10,-344 10,-338 10,-338 10,-335 13,-332 16,-332"/>
<path fill="none" stroke="black" d="M16,-332C16,-332 32,-332 32,-332 35,-332 38,-335 38,-338 38,-338 38,-344 38,-344 38,-347 35,-350 32,-350 32,-350 16,-350 16,-350 13,-350 10,-347 10,-344 10,-344 10,-338 10,-338 10,-335 13,-332 16,-332"/>
<text xml:space="preserve" text-anchor="start" x="22.5" y="-337.25" font-family="Arial" font-size="10.00"> </text>
<text xml:space="preserve" text-anchor="start" x="42" y="-337.25" font-family="Arial" font-size="10.00">Object</text>
<path fill="#c7b8e6" stroke="none" d="M80.5,-332C80.5,-332 96.5,-332 96.5,-332 99.5,-332 102.5,-335 102.5,-338 102.5,-338 102.5,-344 102.5,-344 102.5,-347 99.5,-350 96.5,-350 96.5,-350 80.5,-350 80.5,-350 77.5,-350 74.5,-347 74.5,-344 74.5,-344 74.5,-338 74.5,-338 74.5,-335 77.5,-332 80.5,-332"/>
<path fill="none" stroke="black" d="M80.5,-332C80.5,-332 96.5,-332 96.5,-332 99.5,-332 102.5,-335 102.5,-338 102.5,-338 102.5,-344 102.5,-344 102.5,-347 99.5,-350 96.5,-350 96.5,-350 80.5,-350 80.5,-350 77.5,-350 74.5,-347 74.5,-344 74.5,-344 74.5,-338 74.5,-338 74.5,-335 77.5,-332 80.5,-332"/>
<text xml:space="preserve" text-anchor="start" x="87" y="-337.25" font-family="Arial" font-size="10.00"> </text>
<text xml:space="preserve" text-anchor="start" x="106.5" y="-337.25" font-family="Arial" font-size="10.00">Attribute</text>
<path fill="#f5b8b8" stroke="none" d="M153.25,-332C153.25,-332 169.25,-332 169.25,-332 172.25,-332 175.25,-335 175.25,-338 175.25,-338 175.25,-344 175.25,-344 175.25,-347 172.25,-350 169.25,-350 169.25,-350 153.25,-350 153.25,-350 150.25,-350 147.25,-347 147.25,-344 147.25,-344 147.25,-338 147.25,-338 147.25,-335 150.25,-332 153.25,-332"/>
<path fill="none" stroke="black" d="M153.25,-332C153.25,-332 169.25,-332 169.25,-332 172.25,-332 175.25,-335 175.25,-338 175.25,-338 175.25,-344 175.25,-344 175.25,-347 172.25,-350 169.25,-350 169.25,-350 153.25,-350 153.25,-350 150.25,-350 147.25,-347 147.25,-344 147.25,-344 147.25,-338 147.25,-338 147.25,-335 150.25,-332 153.25,-332"/>
<text xml:space="preserve" text-anchor="start" x="159.75" y="-337.25" font-family="Arial" font-size="10.00"> </text>
<text xml:space="preserve" text-anchor="start" x="179.25" y="-337.25" font-family="Arial" font-size="10.00">Relationship</text>
<text xml:space="preserve" text-anchor="start" x="239.25" y="-338.5" font-family="Arial" font-weight="bold" font-size="10.00">(+)</text>
<text xml:space="preserve" text-anchor="start" x="251.25" y="-338.5" font-family="Arial" font-size="10.00"> increases complexity</text>
<text xml:space="preserve" text-anchor="start" x="352.5" y="-338.5" font-family="Arial" font-weight="bold" font-size="10.00">(−)</text>
<text xml:space="preserve" text-anchor="start" x="364.5" y="-338.5" font-family="Arial" font-size="10.00"> decreases complexity</text>
<text xml:space="preserve" text-anchor="start" x="235.88" y="-312.25" font-family="Arial" font-size="10.00"> </text>
<!-- property.color -->
<g id="node1" class="node">
<title>property.color</title>
<path fill="#b8e6b8" stroke="#2c3e50" stroke-width="1.8" d="M55.62,-231C55.62,-231 25.62,-231 25.62,-231 19.62,-231 13.62,-225 13.62,-219 13.62,-219 13.62,-207 13.62,-207 13.62,-201 19.62,-195 25.62,-195 25.62,-195 55.62,-195 55.62,-195 61.62,-195 67.62,-201 67.62,-207 67.62,-207 67.62,-219 67.62,-219 67.62,-225 61.62,-231 55.62,-231"/>
<text xml:space="preserve" text-anchor="middle" x="40.62" y="-209.5" font-family="Arial" font-size="10.00" fill="#1a1a1a">color</text>
</g>
<!-- attr_0 -->
<g id="node5" class="node">
<title>attr_0</title>
<path fill="#c7b8e6" stroke="#7f8c8d" stroke-width="1.2" d="M221.12,-296C221.12,-296 122.62,-296 122.62,-296 116.62,-296 110.62,-290 110.62,-284 110.62,-284 110.62,-272 110.62,-272 110.62,-266 116.62,-260 122.62,-260 122.62,-260 221.12,-260 221.12,-260 227.12,-260 233.12,-266 233.12,-272 233.12,-272 233.12,-284 233.12,-284 233.12,-290 227.12,-296 221.12,-296"/>
<text xml:space="preserve" text-anchor="middle" x="171.88" y="-274.5" font-family="Arial" font-size="10.00" fill="#1a1a1a">(+) similar looking colors</text>
</g>
<!-- property.color&#45;&gt;attr_0 -->
<g id="edge1" class="edge">
<title>property.color&#45;&gt;attr_0</title>
<path fill="none" stroke="#aaaaaa" d="M68.41,-226.47C85.25,-234.94 107.38,-246.07 126.77,-255.82"/>
<polygon fill="#aaaaaa" stroke="#aaaaaa" points="125.62,-257.98 132.97,-258.94 127.82,-253.61 125.62,-257.98"/>
</g>
<!-- rel_0 -->
<g id="node8" class="node">
<title>rel_0</title>
<path fill="#f5b8b8" stroke="#d46a6a" stroke-width="1.2" d="M187.75,-231C187.75,-231 156,-231 156,-231 150,-231 144,-225 144,-219 144,-219 144,-207 144,-207 144,-201 150,-195 156,-195 156,-195 187.75,-195 187.75,-195 193.75,-195 199.75,-201 199.75,-207 199.75,-207 199.75,-219 199.75,-219 199.75,-225 193.75,-231 187.75,-231"/>
<text xml:space="preserve" text-anchor="middle" x="171.88" y="-209.5" font-family="Arial" font-size="10.00" fill="#8b0000">confuses</text>
</g>
<!-- property.color&#45;&gt;rel_0 -->
<g id="edge4" class="edge">
<title>property.color&#45;&gt;rel_0</title>
<path fill="none" stroke="#d46a6a" stroke-width="1.5" d="M68.41,-213C87.26,-213 112.74,-213 133.57,-213"/>
<polygon fill="#d46a6a" stroke="#d46a6a" stroke-width="1.5" points="133.41,-215.8 141.41,-213 133.41,-210.2 133.41,-215.8"/>
</g>
<!-- rel_2 -->
<g id="node10" class="node">
<title>rel_2</title>
<path fill="#f5b8b8" stroke="#d46a6a" stroke-width="1.2" d="M187.75,-166C187.75,-166 156,-166 156,-166 150,-166 144,-160 144,-154 144,-154 144,-142 144,-142 144,-136 150,-130 156,-130 156,-130 187.75,-130 187.75,-130 193.75,-130 199.75,-136 199.75,-142 199.75,-142 199.75,-154 199.75,-154 199.75,-160 193.75,-166 187.75,-166"/>
<text xml:space="preserve" text-anchor="middle" x="171.88" y="-144.5" font-family="Arial" font-size="10.00" fill="#8b0000">obscures</text>
</g>
<!-- property.color&#45;&gt;rel_2 -->
<g id="edge8" class="edge">
<title>property.color&#45;&gt;rel_2</title>
<path fill="none" stroke="#d46a6a" stroke-width="1.5" d="M68.41,-199.53C87.6,-189.88 113.67,-176.77 134.71,-166.19"/>
<polygon fill="#d46a6a" stroke="#d46a6a" stroke-width="1.5" points="135.77,-168.79 141.66,-162.69 133.25,-163.79 135.77,-168.79"/>
</g>
<!-- structure.grid -->
<g id="node2" class="node">
<title>structure.grid</title>
<path fill="#b8e6b8" stroke="#2c3e50" stroke-width="1.8" d="M55.62,-69C55.62,-69 25.62,-69 25.62,-69 19.62,-69 13.62,-63 13.62,-57 13.62,-57 13.62,-45 13.62,-45 13.62,-39 19.62,-33 25.62,-33 25.62,-33 55.62,-33 55.62,-33 61.62,-33 67.62,-39 67.62,-45 67.62,-45 67.62,-57 67.62,-57 67.62,-63 61.62,-69 55.62,-69"/>
<text xml:space="preserve" text-anchor="middle" x="40.62" y="-47.5" font-family="Arial" font-size="10.00" fill="#1a1a1a">grid</text>
</g>
<!-- attr_1 -->
<g id="node6" class="node">
<title>attr_1</title>
<path fill="#c7b8e6" stroke="#7f8c8d" stroke-width="1.2" d="M199.38,-101C199.38,-101 144.38,-101 144.38,-101 138.38,-101 132.38,-95 132.38,-89 132.38,-89 132.38,-77 132.38,-77 132.38,-71 138.38,-65 144.38,-65 144.38,-65 199.38,-65 199.38,-65 205.38,-65 211.38,-71 211.38,-77 211.38,-77 211.38,-89 211.38,-89 211.38,-95 205.38,-101 199.38,-101"/>
<text xml:space="preserve" text-anchor="middle" x="171.88" y="-79.5" font-family="Arial" font-size="10.00" fill="#1a1a1a">(+) lack of grid</text>
</g>
<!-- structure.grid&#45;&gt;attr_1 -->
<g id="edge2" class="edge">
<title>structure.grid&#45;&gt;attr_1</title>
<path fill="none" stroke="#aaaaaa" d="M68.41,-57.63C84.38,-61.59 105.12,-66.72 123.75,-71.33"/>
<polygon fill="#aaaaaa" stroke="#aaaaaa" points="123.01,-73.67 130.4,-72.98 124.19,-68.92 123.01,-73.67"/>
</g>
<!-- rel_1 -->
<g id="node9" class="node">
<title>rel_1</title>
<path fill="#f5b8b8" stroke="#d46a6a" stroke-width="1.2" d="M186.88,-36C186.88,-36 156.88,-36 156.88,-36 150.88,-36 144.88,-30 144.88,-24 144.88,-24 144.88,-12 144.88,-12 144.88,-6 150.88,0 156.88,0 156.88,0 186.88,0 186.88,0 192.88,0 198.88,-6 198.88,-12 198.88,-12 198.88,-24 198.88,-24 198.88,-30 192.88,-36 186.88,-36"/>
<text xml:space="preserve" text-anchor="middle" x="171.88" y="-14.5" font-family="Arial" font-size="10.00" fill="#8b0000">lacks for</text>
</g>
<!-- structure.grid&#45;&gt;rel_1 -->
<g id="edge6" class="edge">
<title>structure.grid&#45;&gt;rel_1</title>
<path fill="none" stroke="#d46a6a" stroke-width="1.5" d="M68.41,-44.16C87.6,-39.26 113.66,-32.61 134.7,-27.24"/>
<polygon fill="#d46a6a" stroke="#d46a6a" stroke-width="1.5" points="135.31,-29.97 142.37,-25.28 133.93,-24.54 135.31,-29.97"/>
</g>
<!-- content.data -->
<g id="node3" class="node">
<title>content.data</title>
<path fill="#b8e6b8" stroke="#2c3e50" stroke-width="1.8" d="M318.12,-101C318.12,-101 288.12,-101 288.12,-101 282.12,-101 276.12,-95 276.12,-89 276.12,-89 276.12,-77 276.12,-77 276.12,-71 282.12,-65 288.12,-65 288.12,-65 318.12,-65 318.12,-65 324.12,-65 330.12,-71 330.12,-77 330.12,-77 330.12,-89 330.12,-89 330.12,-95 324.12,-101 318.12,-101"/>
<text xml:space="preserve" text-anchor="middle" x="303.12" y="-79.5" font-family="Arial" font-size="10.00" fill="#1a1a1a">data</text>
</g>
<!-- mark.point -->
<g id="node4" class="node">
<title>mark.point</title>
<path fill="#b8e6b8" stroke="#2c3e50" stroke-width="1.8" d="M318.12,-231C318.12,-231 288.12,-231 288.12,-231 282.12,-231 276.12,-225 276.12,-219 276.12,-219 276.12,-207 276.12,-207 276.12,-201 282.12,-195 288.12,-195 288.12,-195 318.12,-195 318.12,-195 324.12,-195 330.12,-201 330.12,-207 330.12,-207 330.12,-219 330.12,-219 330.12,-225 324.12,-231 318.12,-231"/>
<text xml:space="preserve" text-anchor="middle" x="303.12" y="-209.5" font-family="Arial" font-size="10.00" fill="#1a1a1a">point</text>
</g>
<!-- attr_2 -->
<g id="node7" class="node">
<title>attr_2</title>
<path fill="#c7b8e6" stroke="#7f8c8d" stroke-width="1.2" d="M449.12,-231C449.12,-231 385.12,-231 385.12,-231 379.12,-231 373.12,-225 373.12,-219 373.12,-219 373.12,-207 373.12,-207 373.12,-201 379.12,-195 385.12,-195 385.12,-195 449.12,-195 449.12,-195 455.12,-195 461.12,-201 461.12,-207 461.12,-207 461.12,-219 461.12,-219 461.12,-225 455.12,-231 449.12,-231"/>
<text xml:space="preserve" text-anchor="middle" x="417.12" y="-209.5" font-family="Arial" font-size="10.00" fill="#1a1a1a">(+) harder to see</text>
</g>
<!-- mark.point&#45;&gt;attr_2 -->
<g id="edge3" class="edge">
<title>mark.point&#45;&gt;attr_2</title>
<path fill="none" stroke="#aaaaaa" d="M330.95,-213C341.05,-213 352.91,-213 364.52,-213"/>
<polygon fill="#aaaaaa" stroke="#aaaaaa" points="364.39,-215.45 371.39,-213 364.39,-210.55 364.39,-215.45"/>
</g>
<!-- rel_0&#45;&gt;mark.point -->
<g id="edge5" class="edge">
<title>rel_0&#45;&gt;mark.point</title>
<path fill="none" stroke="#d46a6a" stroke-width="1.5" d="M200.29,-213C219.3,-213 244.84,-213 265.59,-213"/>
<polygon fill="#d46a6a" stroke="#d46a6a" stroke-width="1.5" points="265.37,-215.8 273.37,-213 265.37,-210.2 265.37,-215.8"/>
</g>
<!-- rel_1&#45;&gt;content.data -->
<g id="edge7" class="edge">
<title>rel_1&#45;&gt;content.data</title>
<path fill="none" stroke="#d46a6a" stroke-width="1.5" d="M199.34,-31.31C218.64,-41.02 245.02,-54.28 266.22,-64.94"/>
<polygon fill="#d46a6a" stroke="#d46a6a" stroke-width="1.5" points="264.82,-67.37 273.22,-68.46 267.33,-62.37 264.82,-67.37"/>
</g>
<!-- rel_2&#45;&gt;content.data -->
<g id="edge9" class="edge">
<title>rel_2&#45;&gt;content.data</title>
<path fill="none" stroke="#d46a6a" stroke-width="1.5" d="M200.29,-134.22C219.65,-124.48 245.78,-111.34 266.72,-100.81"/>
<polygon fill="#d46a6a" stroke="#d46a6a" stroke-width="1.5" points="267.72,-103.44 273.61,-97.34 265.2,-98.43 267.72,-103.44"/>
</g>
</g>
</svg>
