<?xml version="1.0" encoding="UTF-8" standalone="no"?>
<!DOCTYPE svg PUBLIC "-//W3C//DTD SVG 1.1//EN"
 "http://www.w3.org/Graphics/SVG/1.1/DTD/svg11.dtd">
<!-- Generated by graphviz version 14.1.5 (20260411.2331)
 -->
<!-- Title: VisC.503.6.png Pages: 1 -->
<svg width="554pt" height="376pt"
 viewBox="0.00 0.00 554.00 376.00" xmlns="http://www.w3.org/2000/svg" xmlns:xlink="http://www.w3.org/1999/xlink">
<g id="graph0" class="graph" transform="scale(1 1) rotate(0) translate(4 372)">
<title>VisC.503.6.png</title>
<polygon fill="white" stroke="none" points="-4,4 -4,-372 550,-372 550,4 -4,4"/>
<text xml:space="preserve" text-anchor="start" x="216" y="-345.8" font-family="Arial" font-weight="bold" font-size="16.00">VisC.503.6.png</text>
<text xml:space="preserve" text-anchor="start" x="229.5" y="-324" font-family="Arial" font-size="12.00">Bar &#160;| &#160;VC = 0.22</text>
<path fill="#b8e6b8" stroke="none" d="M51.62,-299C51.62,-299 67.62,-299 67.62,-299 70.62,-299 73.62,-302 73.62,-305 73.62,-305 73.62,-311 73.62,-311 73.62,-314 70.62,-317 67.62,-317 67.62,-317 51.62,-317 51.62,-317 48.62,-317 45.62,-314 45.62,-311 45.62,-311 45.62,-305 45.62,-305 45.62,-302 48.62,-299 51.62,-299"/>
<path fill="none" stroke="black" d="M51.62,-299C51.62,-299 67.62,-299 67.62,-299 70.62,-299 73.62,-302 73.62,-305 73.62,-305 73.62,-311 73.62,-311 73.62,-314 70.62,-317 67.62,-317 67.62,-317 51.62,-317 51.62,-317 48.62,-317 45.62,-314 45.62,-311 45.62,-311 45.62,-305 45.62,-305 45.62,-302 48.62,-299 51.62,-299"/>
<text xml:space="preserve" text-anchor="start" x="58.12" y="-304.25" font-family="Arial" font-size="10.00"> </text>
<text xml:space="preserve" text-anchor="start" x="77.62" y="-304.25" font-family="Arial" font-size="10.00">Object</text>
<path fill="#c7b8e6" stroke="none" d="M116.12,-299C116.12,-299 132.12,-299 132.12,-299 135.12,-299 138.12,-302 138.12,-305 138.12,-305 138.12,-311 138.12,-311 138.12,-314 135.12,-317 132.12,-317 132.12,-317 116.12,-317 116.12,-317 113.12,-317 110.12,-314 110.12,-311 110.12,-311 110.12,-305 110.12,-305 110.12,-302 113.12,-299 116.12,-299"/>
<path fill="none" stroke="black" d="M116.12,-299C116.12,-299 132.12,-299 132.12,-299 135.12,-299 138.12,-302 138.12,-305 138.12,-305 138.12,-311 138.12,-311 138.12,-314 135.12,-317 132.12,-317 132.12,-317 116.12,-317 116.12,-317 113.12,-317 110.12,-314 110.12,-311 110.12,-311 110.12,-305 110.12,-305 110.12,-302 113.12,-299 116.12,-299"/>
<text xml:space="preserve" text-anchor="start" x="122.62" y="-304.25" font-family="Arial" font-size="10.00"> </text>
<text xml:space="preserve" text-anchor="start" x="142.12" y="-304.25" font-family="Arial" font-size="10.00">Attribute</text>
<path fill="#f5b8b8" stroke="none" d="M188.88,-299C188.88,-299 204.88,-299 204.88,-299 207.88,-299 210.88,-302 210.88,-305 210.88,-305 210.88,-311 210.88,-311 210.88,-314 207.88,-317 204.88,-317 204.88,-317 188.88,-317 188.88,-317 185.88,-317 182.88,-314 182.88,-311 182.88,-311 182.88,-305 182.88,-305 182.88,-302 185.88,-299 188.88,-299"/>
<path fill="none" stroke="black" d="M188.88,-299C188.88,-299 204.88,-299 204.88,-299 207.88,-299 210.88,-302 210.88,-305 210.88,-305 210.88,-311 210.88,-311 210.88,-314 207.88,-317 204.88,-317 204.88,-317 188.88,-317 188.88,-317 185.88,-317 182.88,-314 182.88,-311 182.88,-311 182.88,-305 182.88,-305 182.88,-302 185.88,-299 188.88,-299"/>
<text xml:space="preserve" text-anchor="start" x="195.38" y="-304.25" font-family="Arial" font-size="10.00"> </text>
<text xml:space="preserve" text-anchor="start" x="214.88" y="-304.25" font-family="Arial" font-size="10.00">Relationship</text>
<text xml:space="preserve" text-anchor="start" x="274.88" y="-305.5" font-family="Arial" font-weight="bold" font-size="10.00">(+)</text>
<text xml:space="preserve" text-anchor="start" x="286.88" y="-305.5" font-family="Arial" font-size="10.00"> increases complexity</text>
<text xml:space="preserve" text-anchor="start" x="388.12" y="-305.5" font-family="Arial" font-weight="bold" font-size="10.00">(−)</text>
<text xml:space="preserve" text-anchor="start" x="400.12" y="-305.5" font-family="Arial" font-size="10.00"> decreases complexity</text>
<text xml:space="preserve" text-anchor="start" x="271.5" y="-279.25" font-family="Arial" font-size="10.00"> </text>
<!-- mark.bar -->
<g id="node1" class="node">
<title>mark.bar</title>
<path fill="#b8e6b8" stroke="#2c3e50" stroke-width="1.8" d="M296.25,-68C296.25,-68 266.25,-68 266.25,-68 260.25,-68 254.25,-62 254.25,-56 254.25,-56 254.25,-44 254.25,-44 254.25,-38 260.25,-32 266.25,-32 266.25,-32 296.25,-32 296.25,-32 302.25,-32 308.25,-38 308.25,-44 308.25,-44 308.25,-56 308.25,-56 308.25,-62 302.25,-68 296.25,-68"/>
<text xml:space="preserve" text-anchor="middle" x="281.25" y="-46.5" font-family="Arial" font-size="10.00" fill="#1a1a1a">bar</text>
</g>
<!-- attr_0 -->
<g id="node4" class="node">
<title>attr_0</title>
<path fill="#c7b8e6" stroke="#7f8c8d" stroke-width="1.2" d="M437,-101C437,-101 363.25,-101 363.25,-101 357.25,-101 351.25,-95 351.25,-89 351.25,-89 351.25,-77 351.25,-77 351.25,-71 357.25,-65 363.25,-65 363.25,-65 437,-65 437,-65 443,-65 449,-71 449,-77 449,-77 449,-89 449,-89 449,-95 443,-101 437,-101"/>
<text xml:space="preserve" text-anchor="middle" x="400.12" y="-79.5" font-family="Arial" font-size="10.00" fill="#1a1a1a">(+) looks important</text>
</g>
<!-- mark.bar&#45;&gt;attr_0 -->
<g id="edge1" class="edge">
<title>mark.bar&#45;&gt;attr_0</title>
<path fill="none" stroke="#aaaaaa" d="M309.06,-57.57C319.14,-60.42 331.01,-63.77 342.77,-67.09"/>
<polygon fill="#aaaaaa" stroke="#aaaaaa" points="342.01,-69.42 349.41,-68.96 343.34,-64.7 342.01,-69.42"/>
</g>
<!-- rel_0 -->
<g id="node8" class="node">
<title>rel_0</title>
<path fill="#f5b8b8" stroke="#d46a6a" stroke-width="1.2" d="M418.62,-36C418.62,-36 381.62,-36 381.62,-36 375.62,-36 369.62,-30 369.62,-24 369.62,-24 369.62,-12 369.62,-12 369.62,-6 375.62,0 381.62,0 381.62,0 418.62,0 418.62,0 424.62,0 430.62,-6 430.62,-12 430.62,-12 430.62,-24 430.62,-24 430.62,-30 424.62,-36 418.62,-36"/>
<text xml:space="preserve" text-anchor="middle" x="400.12" y="-14.5" font-family="Arial" font-size="10.00" fill="#8b0000">dominates</text>
</g>
<!-- mark.bar&#45;&gt;rel_0 -->
<g id="edge5" class="edge">
<title>mark.bar&#45;&gt;rel_0</title>
<path fill="none" stroke="#d46a6a" stroke-width="1.5" d="M309.06,-42.66C324.05,-38.56 343.01,-33.37 359.66,-28.81"/>
<polygon fill="#d46a6a" stroke="#d46a6a" stroke-width="1.5" points="359.98,-31.62 366.96,-26.81 358.5,-26.22 359.98,-31.62"/>
</g>
<!-- whole.visualization -->
<g id="node2" class="node">
<title>whole.visualization</title>
<path fill="#b8e6b8" stroke="#2c3e50" stroke-width="1.8" d="M42,-165C42,-165 12,-165 12,-165 6,-165 0,-159 0,-153 0,-153 0,-141 0,-141 0,-135 6,-129 12,-129 12,-129 42,-129 42,-129 48,-129 54,-135 54,-141 54,-141 54,-153 54,-153 54,-159 48,-165 42,-165"/>
<text xml:space="preserve" text-anchor="middle" x="27" y="-143.5" font-family="Arial" font-size="10.00" fill="#1a1a1a">graph</text>
</g>
<!-- attr_1 -->
<g id="node5" class="node">
<title>attr_1</title>
<path fill="#c7b8e6" stroke="#7f8c8d" stroke-width="1.2" d="M183.88,-263C183.88,-263 124.38,-263 124.38,-263 118.38,-263 112.38,-257 112.38,-251 112.38,-251 112.38,-239 112.38,-239 112.38,-233 118.38,-227 124.38,-227 124.38,-227 183.88,-227 183.88,-227 189.88,-227 195.88,-233 195.88,-239 195.88,-239 195.88,-251 195.88,-251 195.88,-257 189.88,-263 183.88,-263"/>
<text xml:space="preserve" text-anchor="middle" x="154.12" y="-241.5" font-family="Arial" font-size="10.00" fill="#1a1a1a">(−) professional</text>
</g>
<!-- whole.visualization&#45;&gt;attr_1 -->
<g id="edge2" class="edge">
<title>whole.visualization&#45;&gt;attr_1</title>
<path fill="none" stroke="#aaaaaa" d="M45.08,-165.65C58.42,-179.63 77.86,-198.73 97,-213 101.19,-216.12 105.71,-219.17 110.31,-222.06"/>
<polygon fill="#aaaaaa" stroke="#aaaaaa" points="109.01,-224.14 116.27,-225.69 111.56,-219.96 109.01,-224.14"/>
</g>
<!-- attr_2 -->
<g id="node6" class="node">
<title>attr_2</title>
<path fill="#c7b8e6" stroke="#7f8c8d" stroke-width="1.2" d="M199.25,-198C199.25,-198 109,-198 109,-198 103,-198 97,-192 97,-186 97,-186 97,-174 97,-174 97,-168 103,-162 109,-162 109,-162 199.25,-162 199.25,-162 205.25,-162 211.25,-168 211.25,-174 211.25,-174 211.25,-186 211.25,-186 211.25,-192 205.25,-198 199.25,-198"/>
<text xml:space="preserve" text-anchor="middle" x="154.12" y="-176.5" font-family="Arial" font-size="10.00" fill="#1a1a1a">(−) easy to understand</text>
</g>
<!-- whole.visualization&#45;&gt;attr_2 -->
<g id="edge3" class="edge">
<title>whole.visualization&#45;&gt;attr_2</title>
<path fill="none" stroke="#aaaaaa" d="M54.84,-154.08C64.76,-156.7 76.48,-159.79 88.31,-162.91"/>
<polygon fill="#aaaaaa" stroke="#aaaaaa" points="87.64,-165.26 95.03,-164.68 88.89,-160.52 87.64,-165.26"/>
</g>
<!-- attr_3 -->
<g id="node7" class="node">
<title>attr_3</title>
<path fill="#c7b8e6" stroke="#7f8c8d" stroke-width="1.2" d="M181.62,-133C181.62,-133 126.62,-133 126.62,-133 120.62,-133 114.62,-127 114.62,-121 114.62,-121 114.62,-109 114.62,-109 114.62,-103 120.62,-97 126.62,-97 126.62,-97 181.62,-97 181.62,-97 187.62,-97 193.62,-103 193.62,-109 193.62,-109 193.62,-121 193.62,-121 193.62,-127 187.62,-133 181.62,-133"/>
<text xml:space="preserve" text-anchor="middle" x="154.12" y="-111.5" font-family="Arial" font-size="10.00" fill="#1a1a1a">(+) more detail</text>
</g>
<!-- whole.visualization&#45;&gt;attr_3 -->
<g id="edge4" class="edge">
<title>whole.visualization&#45;&gt;attr_3</title>
<path fill="none" stroke="#aaaaaa" d="M54.84,-140.14C69.91,-136.28 89.14,-131.36 106.59,-126.9"/>
<polygon fill="#aaaaaa" stroke="#aaaaaa" points="106.81,-129.37 112.99,-125.26 105.6,-124.63 106.81,-129.37"/>
</g>
<!-- rel_1 -->
<g id="node9" class="node">
<title>rel_1</title>
<path fill="#f5b8b8" stroke="#d46a6a" stroke-width="1.2" d="M171.12,-68C171.12,-68 137.12,-68 137.12,-68 131.12,-68 125.12,-62 125.12,-56 125.12,-56 125.12,-44 125.12,-44 125.12,-38 131.12,-32 137.12,-32 137.12,-32 171.12,-32 171.12,-32 177.12,-32 183.12,-38 183.12,-44 183.12,-44 183.12,-56 183.12,-56 183.12,-62 177.12,-68 171.12,-68"/>
<text xml:space="preserve" text-anchor="middle" x="154.12" y="-46.5" font-family="Arial" font-size="10.00" fill="#8b0000">facilitates</text>
</g>
<!-- whole.visualization&#45;&gt;rel_1 -->
<g id="edge7" class="edge">
<title>whole.visualization&#45;&gt;rel_1</title>
<path fill="none" stroke="#d46a6a" stroke-width="1.5" d="M46.07,-128.18C59.46,-114.77 78.52,-96.75 97,-83 102.92,-78.59 109.48,-74.29 115.95,-70.32"/>
<polygon fill="#d46a6a" stroke="#d46a6a" stroke-width="1.5" points="117.28,-72.79 122.72,-66.29 114.41,-67.97 117.28,-72.79"/>
</g>
<!-- unknown.circle -->
<g id="node3" class="node">
<title>unknown.circle</title>
<path fill="#b8e6b8" stroke="#2c3e50" stroke-width="1.8" d="M534,-36C534,-36 504,-36 504,-36 498,-36 492,-30 492,-24 492,-24 492,-12 492,-12 492,-6 498,0 504,0 504,0 534,0 534,0 540,0 546,-6 546,-12 546,-12 546,-24 546,-24 546,-30 540,-36 534,-36"/>
<text xml:space="preserve" text-anchor="middle" x="519" y="-14.5" font-family="Arial" font-size="10.00" fill="#1a1a1a">circle</text>
</g>
<!-- rel_0&#45;&gt;unknown.circle -->
<g id="edge6" class="edge">
<title>rel_0&#45;&gt;unknown.circle</title>
<path fill="none" stroke="#d46a6a" stroke-width="1.5" d="M431.22,-18C446.43,-18 465,-18 481.06,-18"/>
<polygon fill="#d46a6a" stroke="#d46a6a" stroke-width="1.5" points="480.92,-20.8 488.92,-18 480.92,-15.2 480.92,-20.8"/>
</g>
<!-- rel_1&#45;&gt;mark.bar -->
<g id="edge8" class="edge">
<title>rel_1&#45;&gt;mark.bar</title>
<path fill="none" stroke="#d46a6a" stroke-width="1.5" d="M183.52,-50C201.28,-50 224.35,-50 243.5,-50"/>
<polygon fill="#d46a6a" stroke="#d46a6a" stroke-width="1.5" points="243.41,-52.8 251.41,-50 243.41,-47.2 243.41,-52.8"/>
</g>
</g>
</svg>
