<?xml version="1.0" encoding="UTF-8" standalone="no"?>
<!DOCTYPE svg PUBLIC "-//W3C//DTD SVG 1.1//EN"
 "http://www.w3.org/Graphics/SVG/1.1/DTD/svg11.dtd">
<!-- Generated by graphviz version 14.1.5 (20260411.2331)
 -->
<!-- Title: visMost97.png Pages: 1 -->
<svg width="771pt" height="279pt"
 viewBox="0.00 0.00 771.00 279.00" xmlns="http://www.w3.org/2000/svg" xmlns:xlink="http://www.w3.org/1999/xlink">
<g id="graph0" class="graph" transform="scale(1 1) rotate(0) translate(4 275)">
<title>visMost97.png</title>
<polygon fill="white" stroke="none" points="-4,4 -4,-275 767,-275 767,4 -4,4"/>
<text xml:space="preserve" text-anchor="start" x="325.62" y="-248.8" font-family="Arial" font-weight="bold" font-size="16.00">visMost97.png</text>
<text xml:space="preserve" text-anchor="start" x="334.62" y="-227" font-family="Arial" font-size="12.00">Area &#160;| &#160;VC = 0.38</text>
<path fill="#b8e6b8" stroke="none" d="M160.12,-202C160.12,-202 176.12,-202 176.12,-202 179.12,-202 182.12,-205 182.12,-208 182.12,-208 182.12,-214 182.12,-214 182.12,-217 179.12,-220 176.12,-220 176.12,-220 160.12,-220 160.12,-220 157.12,-220 154.12,-217 154.12,-214 154.12,-214 154.12,-208 154.12,-208 154.12,-205 157.12,-202 160.12,-202"/>
<path fill="none" stroke="black" d="M160.12,-202C160.12,-202 176.12,-202 176.12,-202 179.12,-202 182.12,-205 182.12,-208 182.12,-208 182.12,-214 182.12,-214 182.12,-217 179.12,-220 176.12,-220 176.12,-220 160.12,-220 160.12,-220 157.12,-220 154.12,-217 154.12,-214 154.12,-214 154.12,-208 154.12,-208 154.12,-205 157.12,-202 160.12,-202"/>
<text xml:space="preserve" text-anchor="start" x="166.62" y="-207.25" font-family="Arial" font-size="10.00"> </text>
<text xml:space="preserve" text-anchor="start" x="186.12" y="-207.25" font-family="Arial" font-size="10.00">Object</text>
<path fill="#c7b8e6" stroke="none" d="M224.62,-202C224.62,-202 240.62,-202 240.62,-202 243.62,-202 246.62,-205 246.62,-208 246.62,-208 246.62,-214 246.62,-214 246.62,-217 243.62,-220 240.62,-220 240.62,-220 224.62,-220 224.62,-220 221.62,-220 218.62,-217 218.62,-214 218.62,-214 218.62,-208 218.62,-208 218.62,-205 221.62,-202 224.62,-202"/>
<path fill="none" stroke="black" d="M224.62,-202C224.62,-202 240.62,-202 240.62,-202 243.62,-202 246.62,-205 246.62,-208 246.62,-208 246.62,-214 246.62,-214 246.62,-217 243.62,-220 240.62,-220 240.62,-220 224.62,-220 224.62,-220 221.62,-220 218.62,-217 218.62,-214 218.62,-214 218.62,-208 218.62,-208 218.62,-205 221.62,-202 224.62,-202"/>
<text xml:space="preserve" text-anchor="start" x="231.12" y="-207.25" font-family="Arial" font-size="10.00"> </text>
<text xml:space="preserve" text-anchor="start" x="250.62" y="-207.25" font-family="Arial" font-size="10.00">Attribute</text>
<path fill="#f5b8b8" stroke="none" d="M297.38,-202C297.38,-202 313.38,-202 313.38,-202 316.38,-202 319.38,-205 319.38,-208 319.38,-208 319.38,-214 319.38,-214 319.38,-217 316.38,-220 313.38,-220 313.38,-220 297.38,-220 297.38,-220 294.38,-220 291.38,-217 291.38,-214 291.38,-214 291.38,-208 291.38,-208 291.38,-205 294.38,-202 297.38,-202"/>
<path fill="none" stroke="black" d="M297.38,-202C297.38,-202 313.38,-202 313.38,-202 316.38,-202 319.38,-205 319.38,-208 319.38,-208 319.38,-214 319.38,-214 319.38,-217 316.38,-220 313.38,-220 313.38,-220 297.38,-220 297.38,-220 294.38,-220 291.38,-217 291.38,-214 291.38,-214 291.38,-208 291.38,-208 291.38,-205 294.38,-202 297.38,-202"/>
<text xml:space="preserve" text-anchor="start" x="303.88" y="-207.25" font-family="Arial" font-size="10.00"> </text>
<text xml:space="preserve" text-anchor="start" x="323.38" y="-207.25" font-family="Arial" font-size="10.00">Relationship</text>
<text xml:space="preserve" text-anchor="start" x="383.38" y="-208.5" font-family="Arial" font-weight="bold" font-size="10.00">(+)</text>
<text xml:space="preserve" text-anchor="start" x="395.38" y="-208.5" font-family="Arial" font-size="10.00"> increases complexity</text>
<text xml:space="preserve" text-anchor="start" x="496.62" y="-208.5" font-family="Arial" font-weight="bold" font-size="10.00">(−)</text>
<text xml:space="preserve" text-anchor="start" x="508.62" y="-208.5" font-family="Arial" font-size="10.00"> decreases complexity</text>
<text xml:space="preserve" text-anchor="start" x="380" y="-182.25" font-family="Arial" font-size="10.00"> </text>
<!-- property.color -->
<g id="node1" class="node">
<title>property.color</title>
<path fill="#b8e6b8" stroke="#2c3e50" stroke-width="1.8" d="M42,-133C42,-133 12,-133 12,-133 6,-133 0,-127 0,-121 0,-121 0,-109 0,-109 0,-103 6,-97 12,-97 12,-97 42,-97 42,-97 48,-97 54,-103 54,-109 54,-109 54,-121 54,-121 54,-127 48,-133 42,-133"/>
<text xml:space="preserve" text-anchor="middle" x="27" y="-111.5" font-family="Arial" font-size="10.00" fill="#1a1a1a">color</text>
</g>
<!-- attr_0 -->
<g id="node4" class="node">
<title>attr_0</title>
<path fill="#c7b8e6" stroke="#7f8c8d" stroke-width="1.2" d="M220.25,-166C220.25,-166 109,-166 109,-166 103,-166 97,-160 97,-154 97,-154 97,-142 97,-142 97,-136 103,-130 109,-130 109,-130 220.25,-130 220.25,-130 226.25,-130 232.25,-136 232.25,-142 232.25,-142 232.25,-154 232.25,-154 232.25,-160 226.25,-166 220.25,-166"/>
<text xml:space="preserve" text-anchor="middle" x="164.62" y="-144.5" font-family="Arial" font-size="10.00" fill="#1a1a1a">(−) distinguished distinctive</text>
</g>
<!-- property.color&#45;&gt;attr_0 -->
<g id="edge1" class="edge">
<title>property.color&#45;&gt;attr_0</title>
<path fill="none" stroke="#aaaaaa" d="M54.8,-121.52C64.67,-123.92 76.41,-126.78 88.47,-129.71"/>
<polygon fill="#aaaaaa" stroke="#aaaaaa" points="87.56,-132.01 94.94,-131.29 88.72,-127.25 87.56,-132.01"/>
</g>
<!-- rel_0 -->
<g id="node8" class="node">
<title>rel_0</title>
<path fill="#f5b8b8" stroke="#d46a6a" stroke-width="1.2" d="M189.12,-101C189.12,-101 140.12,-101 140.12,-101 134.12,-101 128.12,-95 128.12,-89 128.12,-89 128.12,-77 128.12,-77 128.12,-71 134.12,-65 140.12,-65 140.12,-65 189.12,-65 189.12,-65 195.12,-65 201.12,-71 201.12,-77 201.12,-77 201.12,-89 201.12,-89 201.12,-95 195.12,-101 189.12,-101"/>
<text xml:space="preserve" text-anchor="middle" x="164.62" y="-79.5" font-family="Arial" font-size="10.00" fill="#8b0000">distinguishes</text>
</g>
<!-- property.color&#45;&gt;rel_0 -->
<g id="edge5" class="edge">
<title>property.color&#45;&gt;rel_0</title>
<path fill="none" stroke="#d46a6a" stroke-width="1.5" d="M54.8,-108.68C72.71,-104.45 96.74,-98.78 117.66,-93.85"/>
<polygon fill="#d46a6a" stroke="#d46a6a" stroke-width="1.5" points="118.29,-96.57 125.43,-92.01 117,-91.12 118.29,-96.57"/>
</g>
<!-- content.data -->
<g id="node2" class="node">
<title>content.data</title>
<path fill="#b8e6b8" stroke="#2c3e50" stroke-width="1.8" d="M327.25,-101C327.25,-101 287.25,-101 287.25,-101 281.25,-101 275.25,-95 275.25,-89 275.25,-89 275.25,-77 275.25,-77 275.25,-71 281.25,-65 287.25,-65 287.25,-65 327.25,-65 327.25,-65 333.25,-65 339.25,-71 339.25,-77 339.25,-77 339.25,-89 339.25,-89 339.25,-95 333.25,-101 327.25,-101"/>
<text xml:space="preserve" text-anchor="middle" x="307.25" y="-79.5" font-family="Arial" font-size="10.00" fill="#1a1a1a">information</text>
</g>
<!-- attr_1 -->
<g id="node5" class="node">
<title>attr_1</title>
<path fill="#c7b8e6" stroke="#7f8c8d" stroke-width="1.2" d="M482.62,-166C482.62,-166 396.12,-166 396.12,-166 390.12,-166 384.12,-160 384.12,-154 384.12,-154 384.12,-142 384.12,-142 384.12,-136 390.12,-130 396.12,-130 396.12,-130 482.62,-130 482.62,-130 488.62,-130 494.62,-136 494.62,-142 494.62,-142 494.62,-154 494.62,-154 494.62,-160 488.62,-166 482.62,-166"/>
<text xml:space="preserve" text-anchor="middle" x="439.38" y="-144.5" font-family="Arial" font-size="10.00" fill="#1a1a1a">(−) simple information</text>
</g>
<!-- content.data&#45;&gt;attr_1 -->
<g id="edge2" class="edge">
<title>content.data&#45;&gt;attr_1</title>
<path fill="none" stroke="#aaaaaa" d="M340.08,-98.9C356.28,-106.99 376.23,-116.96 393.91,-125.79"/>
<polygon fill="#aaaaaa" stroke="#aaaaaa" points="392.63,-127.89 399.98,-128.82 394.82,-123.5 392.63,-127.89"/>
</g>
<!-- attr_3 -->
<g id="node6" class="node">
<title>attr_3</title>
<path fill="#c7b8e6" stroke="#7f8c8d" stroke-width="1.2" d="M484.5,-101C484.5,-101 394.25,-101 394.25,-101 388.25,-101 382.25,-95 382.25,-89 382.25,-89 382.25,-77 382.25,-77 382.25,-71 388.25,-65 394.25,-65 394.25,-65 484.5,-65 484.5,-65 490.5,-65 496.5,-71 496.5,-77 496.5,-77 496.5,-89 496.5,-89 496.5,-95 490.5,-101 484.5,-101"/>
<text xml:space="preserve" text-anchor="middle" x="439.38" y="-79.5" font-family="Arial" font-size="10.00" fill="#1a1a1a">(−) easy to understand</text>
</g>
<!-- content.data&#45;&gt;attr_3 -->
<g id="edge3" class="edge">
<title>content.data&#45;&gt;attr_3</title>
<path fill="none" stroke="#aaaaaa" d="M340.08,-83C350.19,-83 361.77,-83 373.34,-83"/>
<polygon fill="#aaaaaa" stroke="#aaaaaa" points="373.23,-85.45 380.23,-83 373.23,-80.55 373.23,-85.45"/>
</g>
<!-- rel_1 -->
<g id="node9" class="node">
<title>rel_1</title>
<path fill="#f5b8b8" stroke="#d46a6a" stroke-width="1.2" d="M454.38,-36C454.38,-36 424.38,-36 424.38,-36 418.38,-36 412.38,-30 412.38,-24 412.38,-24 412.38,-12 412.38,-12 412.38,-6 418.38,0 424.38,0 424.38,0 454.38,0 454.38,0 460.38,0 466.38,-6 466.38,-12 466.38,-12 466.38,-24 466.38,-24 466.38,-30 460.38,-36 454.38,-36"/>
<text xml:space="preserve" text-anchor="middle" x="439.38" y="-14.5" font-family="Arial" font-size="10.00" fill="#8b0000">maps to</text>
</g>
<!-- content.data&#45;&gt;rel_1 -->
<g id="edge7" class="edge">
<title>content.data&#45;&gt;rel_1</title>
<path fill="none" stroke="#d46a6a" stroke-width="1.5" d="M340.08,-67.1C359.18,-57.56 383.5,-45.41 403.17,-35.59"/>
<polygon fill="#d46a6a" stroke="#d46a6a" stroke-width="1.5" points="404.19,-38.21 410.09,-32.13 401.68,-33.2 404.19,-38.21"/>
</g>
<!-- content.domain -->
<g id="node3" class="node">
<title>content.domain</title>
<path fill="#b8e6b8" stroke="#2c3e50" stroke-width="1.8" d="M590,-36C590,-36 551.5,-36 551.5,-36 545.5,-36 539.5,-30 539.5,-24 539.5,-24 539.5,-12 539.5,-12 539.5,-6 545.5,0 551.5,0 551.5,0 590,0 590,0 596,0 602,-6 602,-12 602,-12 602,-24 602,-24 602,-30 596,-36 590,-36"/>
<text xml:space="preserve" text-anchor="middle" x="570.75" y="-14.5" font-family="Arial" font-size="10.00" fill="#1a1a1a">knowledge</text>
</g>
<!-- attr_2 -->
<g id="node7" class="node">
<title>attr_2</title>
<path fill="#c7b8e6" stroke="#7f8c8d" stroke-width="1.2" d="M751,-36C751,-36 657,-36 657,-36 651,-36 645,-30 645,-24 645,-24 645,-12 645,-12 645,-6 651,0 657,0 657,0 751,0 751,0 757,0 763,-6 763,-12 763,-12 763,-24 763,-24 763,-30 757,-36 751,-36"/>
<text xml:space="preserve" text-anchor="middle" x="704" y="-14.5" font-family="Arial" font-size="10.00" fill="#1a1a1a">(−) common knowledge</text>
</g>
<!-- content.domain&#45;&gt;attr_2 -->
<g id="edge4" class="edge">
<title>content.domain&#45;&gt;attr_2</title>
<path fill="none" stroke="#aaaaaa" d="M602.85,-18C612.92,-18 624.5,-18 636.13,-18"/>
<polygon fill="#aaaaaa" stroke="#aaaaaa" points="636.07,-20.45 643.07,-18 636.07,-15.55 636.07,-20.45"/>
</g>
<!-- rel_0&#45;&gt;content.data -->
<g id="edge6" class="edge">
<title>rel_0&#45;&gt;content.data</title>
<path fill="none" stroke="#d46a6a" stroke-width="1.5" d="M201.47,-83C220.74,-83 244.59,-83 264.66,-83"/>
<polygon fill="#d46a6a" stroke="#d46a6a" stroke-width="1.5" points="264.5,-85.8 272.5,-83 264.5,-80.2 264.5,-85.8"/>
</g>
<!-- rel_1&#45;&gt;content.domain -->
<g id="edge8" class="edge">
<title>rel_1&#45;&gt;content.domain</title>
<path fill="none" stroke="#d46a6a" stroke-width="1.5" d="M466.87,-18C484.62,-18 508.35,-18 528.55,-18"/>
<polygon fill="#d46a6a" stroke="#d46a6a" stroke-width="1.5" points="528.47,-20.8 536.47,-18 528.47,-15.2 528.47,-20.8"/>
</g>
</g>
</svg>
