<?xml version="1.0" encoding="UTF-8" standalone="no"?>
<!DOCTYPE svg PUBLIC "-//W3C//DTD SVG 1.1//EN"
 "http://www.w3.org/Graphics/SVG/1.1/DTD/svg11.dtd">
<!-- Generated by graphviz version 14.1.5 (20260411.2331)
 -->
<!-- Title: wsj603.png Pages: 1 -->
<svg width="783pt" height="376pt"
 viewBox="0.00 0.00 783.00 376.00" xmlns="http://www.w3.org/2000/svg" xmlns:xlink="http://www.w3.org/1999/xlink">
<g id="graph0" class="graph" transform="scale(1 1) rotate(0) translate(4 372)">
<title>wsj603.png</title>
<polygon fill="white" stroke="none" points="-4,4 -4,-372 778.75,-372 778.75,4 -4,4"/>
<text xml:space="preserve" text-anchor="start" x="343.88" y="-345.8" font-family="Arial" font-weight="bold" font-size="16.00">wsj603.png</text>
<text xml:space="preserve" text-anchor="start" x="341.62" y="-324" font-family="Arial" font-size="12.00">Line &#160;| &#160;VC = 0.57</text>
<path fill="#b8e6b8" stroke="none" d="M166,-299C166,-299 182,-299 182,-299 185,-299 188,-302 188,-305 188,-305 188,-311 188,-311 188,-314 185,-317 182,-317 182,-317 166,-317 166,-317 163,-317 160,-314 160,-311 160,-311 160,-305 160,-305 160,-302 163,-299 166,-299"/>
<path fill="none" stroke="black" d="M166,-299C166,-299 182,-299 182,-299 185,-299 188,-302 188,-305 188,-305 188,-311 188,-311 188,-314 185,-317 182,-317 182,-317 166,-317 166,-317 163,-317 160,-314 160,-311 160,-311 160,-305 160,-305 160,-302 163,-299 166,-299"/>
<text xml:space="preserve" text-anchor="start" x="172.5" y="-304.25" font-family="Arial" font-size="10.00"> </text>
<text xml:space="preserve" text-anchor="start" x="192" y="-304.25" font-family="Arial" font-size="10.00">Object</text>
<path fill="#c7b8e6" stroke="none" d="M230.5,-299C230.5,-299 246.5,-299 246.5,-299 249.5,-299 252.5,-302 252.5,-305 252.5,-305 252.5,-311 252.5,-311 252.5,-314 249.5,-317 246.5,-317 246.5,-317 230.5,-317 230.5,-317 227.5,-317 224.5,-314 224.5,-311 224.5,-311 224.5,-305 224.5,-305 224.5,-302 227.5,-299 230.5,-299"/>
<path fill="none" stroke="black" d="M230.5,-299C230.5,-299 246.5,-299 246.5,-299 249.5,-299 252.5,-302 252.5,-305 252.5,-305 252.5,-311 252.5,-311 252.5,-314 249.5,-317 246.5,-317 246.5,-317 230.5,-317 230.5,-317 227.5,-317 224.5,-314 224.5,-311 224.5,-311 224.5,-305 224.5,-305 224.5,-302 227.5,-299 230.5,-299"/>
<text xml:space="preserve" text-anchor="start" x="237" y="-304.25" font-family="Arial" font-size="10.00"> </text>
<text xml:space="preserve" text-anchor="start" x="256.5" y="-304.25" font-family="Arial" font-size="10.00">Attribute</text>
<path fill="#f5b8b8" stroke="none" d="M303.25,-299C303.25,-299 319.25,-299 319.25,-299 322.25,-299 325.25,-302 325.25,-305 325.25,-305 325.25,-311 325.25,-311 325.25,-314 322.25,-317 319.25,-317 319.25,-317 303.25,-317 303.25,-317 300.25,-317 297.25,-314 297.25,-311 297.25,-311 297.25,-305 297.25,-305 297.25,-302 300.25,-299 303.25,-299"/>
<path fill="none" stroke="black" d="M303.25,-299C303.25,-299 319.25,-299 319.25,-299 322.25,-299 325.25,-302 325.25,-305 325.25,-305 325.25,-311 325.25,-311 325.25,-314 322.25,-317 319.25,-317 319.25,-317 303.25,-317 303.25,-317 300.25,-317 297.25,-314 297.25,-311 297.25,-311 297.25,-305 297.25,-305 297.25,-302 300.25,-299 303.25,-299"/>
<text xml:space="preserve" text-anchor="start" x="309.75" y="-304.25" font-family="Arial" font-size="10.00"> </text>
<text xml:space="preserve" text-anchor="start" x="329.25" y="-304.25" font-family="Arial" font-size="10.00">Relationship</text>
<text xml:space="preserve" text-anchor="start" x="389.25" y="-305.5" font-family="Arial" font-weight="bold" font-size="10.00">(+)</text>
<text xml:space="preserve" text-anchor="start" x="401.25" y="-305.5" font-family="Arial" font-size="10.00"> increases complexity</text>
<text xml:space="preserve" text-anchor="start" x="502.5" y="-305.5" font-family="Arial" font-weight="bold" font-size="10.00">(−)</text>
<text xml:space="preserve" text-anchor="start" x="514.5" y="-305.5" font-family="Arial" font-size="10.00"> decreases complexity</text>
<text xml:space="preserve" text-anchor="start" x="385.88" y="-279.25" font-family="Arial" font-size="10.00"> </text>
<!-- mark.line -->
<g id="node1" class="node">
<title>mark.line</title>
<path fill="#b8e6b8" stroke="#2c3e50" stroke-width="1.8" d="M294.75,-68C294.75,-68 264.75,-68 264.75,-68 258.75,-68 252.75,-62 252.75,-56 252.75,-56 252.75,-44 252.75,-44 252.75,-38 258.75,-32 264.75,-32 264.75,-32 294.75,-32 294.75,-32 300.75,-32 306.75,-38 306.75,-44 306.75,-44 306.75,-56 306.75,-56 306.75,-62 300.75,-68 294.75,-68"/>
<text xml:space="preserve" text-anchor="middle" x="279.75" y="-46.5" font-family="Arial" font-size="10.00" fill="#1a1a1a">line</text>
</g>
<!-- rel_0 -->
<g id="node11" class="node">
<title>rel_0</title>
<path fill="#f5b8b8" stroke="#d46a6a" stroke-width="1.2" d="M436.88,-68C436.88,-68 406.88,-68 406.88,-68 400.88,-68 394.88,-62 394.88,-56 394.88,-56 394.88,-44 394.88,-44 394.88,-38 400.88,-32 406.88,-32 406.88,-32 436.88,-32 436.88,-32 442.88,-32 448.88,-38 448.88,-44 448.88,-44 448.88,-56 448.88,-56 448.88,-62 442.88,-68 436.88,-68"/>
<text xml:space="preserve" text-anchor="middle" x="421.88" y="-46.5" font-family="Arial" font-size="10.00" fill="#8b0000">encodes</text>
</g>
<!-- mark.line&#45;&gt;rel_0 -->
<g id="edge6" class="edge">
<title>mark.line&#45;&gt;rel_0</title>
<path fill="none" stroke="#d46a6a" stroke-width="1.5" d="M307.44,-50C329.16,-50 360.04,-50 384.11,-50"/>
<polygon fill="#d46a6a" stroke="#d46a6a" stroke-width="1.5" points="384.02,-52.8 392.02,-50 384.02,-47.2 384.02,-52.8"/>
</g>
<!-- mark.shape -->
<g id="node2" class="node">
<title>mark.shape</title>
<path fill="#b8e6b8" stroke="#2c3e50" stroke-width="1.8" d="M294.75,-198C294.75,-198 264.75,-198 264.75,-198 258.75,-198 252.75,-192 252.75,-186 252.75,-186 252.75,-174 252.75,-174 252.75,-168 258.75,-162 264.75,-162 264.75,-162 294.75,-162 294.75,-162 300.75,-162 306.75,-168 306.75,-174 306.75,-174 306.75,-186 306.75,-186 306.75,-192 300.75,-198 294.75,-198"/>
<text xml:space="preserve" text-anchor="middle" x="279.75" y="-176.5" font-family="Arial" font-size="10.00" fill="#1a1a1a">shape</text>
</g>
<!-- attr_3 -->
<g id="node6" class="node">
<title>attr_3</title>
<path fill="#c7b8e6" stroke="#7f8c8d" stroke-width="1.2" d="M482,-198C482,-198 361.75,-198 361.75,-198 355.75,-198 349.75,-192 349.75,-186 349.75,-186 349.75,-174 349.75,-174 349.75,-168 355.75,-162 361.75,-162 361.75,-162 482,-162 482,-162 488,-162 494,-168 494,-174 494,-174 494,-186 494,-186 494,-192 488,-198 482,-198"/>
<text xml:space="preserve" text-anchor="middle" x="421.88" y="-176.5" font-family="Arial" font-size="10.00" fill="#1a1a1a">(+) complex shapes and lines</text>
</g>
<!-- mark.shape&#45;&gt;attr_3 -->
<g id="edge1" class="edge">
<title>mark.shape&#45;&gt;attr_3</title>
<path fill="none" stroke="#aaaaaa" d="M307.44,-180C317.24,-180 328.92,-180 340.99,-180"/>
<polygon fill="#aaaaaa" stroke="#aaaaaa" points="340.88,-182.45 347.88,-180 340.88,-177.55 340.88,-182.45"/>
</g>
<!-- property.color -->
<g id="node3" class="node">
<title>property.color</title>
<path fill="#b8e6b8" stroke="#2c3e50" stroke-width="1.8" d="M42,-230C42,-230 12,-230 12,-230 6,-230 0,-224 0,-218 0,-218 0,-206 0,-206 0,-200 6,-194 12,-194 12,-194 42,-194 42,-194 48,-194 54,-200 54,-206 54,-206 54,-218 54,-218 54,-224 48,-230 42,-230"/>
<text xml:space="preserve" text-anchor="middle" x="27" y="-208.5" font-family="Arial" font-size="10.00" fill="#1a1a1a">color</text>
</g>
<!-- attr_2 -->
<g id="node7" class="node">
<title>attr_2</title>
<path fill="#c7b8e6" stroke="#7f8c8d" stroke-width="1.2" d="M182.38,-263C182.38,-263 124.38,-263 124.38,-263 118.38,-263 112.38,-257 112.38,-251 112.38,-251 112.38,-239 112.38,-239 112.38,-233 118.38,-227 124.38,-227 124.38,-227 182.38,-227 182.38,-227 188.38,-227 194.38,-233 194.38,-239 194.38,-239 194.38,-251 194.38,-251 194.38,-257 188.38,-263 182.38,-263"/>
<text xml:space="preserve" text-anchor="middle" x="153.38" y="-241.5" font-family="Arial" font-size="10.00" fill="#1a1a1a">(+) more colors</text>
</g>
<!-- property.color&#45;&gt;attr_2 -->
<g id="edge2" class="edge">
<title>property.color&#45;&gt;attr_2</title>
<path fill="none" stroke="#aaaaaa" d="M54.68,-219.08C69.04,-222.89 87.18,-227.7 103.93,-232.15"/>
<polygon fill="#aaaaaa" stroke="#aaaaaa" points="103.16,-234.48 110.56,-233.9 104.42,-229.74 103.16,-234.48"/>
</g>
<!-- rel_1 -->
<g id="node12" class="node">
<title>rel_1</title>
<path fill="#f5b8b8" stroke="#d46a6a" stroke-width="1.2" d="M178.62,-198C178.62,-198 128.12,-198 128.12,-198 122.12,-198 116.12,-192 116.12,-186 116.12,-186 116.12,-174 116.12,-174 116.12,-168 122.12,-162 128.12,-162 128.12,-162 178.62,-162 178.62,-162 184.62,-162 190.62,-168 190.62,-174 190.62,-174 190.62,-186 190.62,-186 190.62,-192 184.62,-198 178.62,-198"/>
<text xml:space="preserve" text-anchor="middle" x="153.38" y="-176.5" font-family="Arial" font-size="10.00" fill="#8b0000">varies across</text>
</g>
<!-- property.color&#45;&gt;rel_1 -->
<g id="edge8" class="edge">
<title>property.color&#45;&gt;rel_1</title>
<path fill="none" stroke="#d46a6a" stroke-width="1.5" d="M54.68,-205.14C69.6,-201.3 88.61,-196.4 105.9,-191.96"/>
<polygon fill="#d46a6a" stroke="#d46a6a" stroke-width="1.5" points="106.58,-194.67 113.63,-189.97 105.19,-189.25 106.58,-194.67"/>
</g>
<!-- content.detail -->
<g id="node4" class="node">
<title>content.detail</title>
<path fill="#b8e6b8" stroke="#2c3e50" stroke-width="1.8" d="M42,-100C42,-100 12,-100 12,-100 6,-100 0,-94 0,-88 0,-88 0,-76 0,-76 0,-70 6,-64 12,-64 12,-64 42,-64 42,-64 48,-64 54,-70 54,-76 54,-76 54,-88 54,-88 54,-94 48,-100 42,-100"/>
<text xml:space="preserve" text-anchor="middle" x="27" y="-78.5" font-family="Arial" font-size="10.00" fill="#1a1a1a">detail</text>
</g>
<!-- attr_0 -->
<g id="node8" class="node">
<title>attr_0</title>
<path fill="#c7b8e6" stroke="#7f8c8d" stroke-width="1.2" d="M197.75,-133C197.75,-133 109,-133 109,-133 103,-133 97,-127 97,-121 97,-121 97,-109 97,-109 97,-103 103,-97 109,-97 109,-97 197.75,-97 197.75,-97 203.75,-97 209.75,-103 209.75,-109 209.75,-109 209.75,-121 209.75,-121 209.75,-127 203.75,-133 197.75,-133"/>
<text xml:space="preserve" text-anchor="middle" x="153.38" y="-111.5" font-family="Arial" font-size="10.00" fill="#1a1a1a">(+) many small details</text>
</g>
<!-- content.detail&#45;&gt;attr_0 -->
<g id="edge3" class="edge">
<title>content.detail&#45;&gt;attr_0</title>
<path fill="none" stroke="#aaaaaa" d="M54.68,-89.08C64.75,-91.75 76.69,-94.92 88.7,-98.11"/>
<polygon fill="#aaaaaa" stroke="#aaaaaa" points="87.73,-100.38 95.13,-99.81 88.99,-95.65 87.73,-100.38"/>
</g>
<!-- rel_2 -->
<g id="node13" class="node">
<title>rel_2</title>
<path fill="#f5b8b8" stroke="#d46a6a" stroke-width="1.2" d="M175.62,-68C175.62,-68 131.12,-68 131.12,-68 125.12,-68 119.12,-62 119.12,-56 119.12,-56 119.12,-44 119.12,-44 119.12,-38 125.12,-32 131.12,-32 131.12,-32 175.62,-32 175.62,-32 181.62,-32 187.62,-38 187.62,-44 187.62,-44 187.62,-56 187.62,-56 187.62,-62 181.62,-68 175.62,-68"/>
<text xml:space="preserve" text-anchor="middle" x="153.38" y="-46.5" font-family="Arial" font-size="10.00" fill="#8b0000">complicates</text>
</g>
<!-- content.detail&#45;&gt;rel_2 -->
<g id="edge10" class="edge">
<title>content.detail&#45;&gt;rel_2</title>
<path fill="none" stroke="#d46a6a" stroke-width="1.5" d="M54.68,-75.14C70.46,-71.08 90.83,-65.84 108.88,-61.19"/>
<polygon fill="#d46a6a" stroke="#d46a6a" stroke-width="1.5" points="109.37,-63.96 116.42,-59.25 107.98,-58.53 109.37,-63.96"/>
</g>
<!-- content.data -->
<g id="node5" class="node">
<title>content.data</title>
<path fill="#b8e6b8" stroke="#2c3e50" stroke-width="1.8" d="M589,-68C589,-68 549,-68 549,-68 543,-68 537,-62 537,-56 537,-56 537,-44 537,-44 537,-38 543,-32 549,-32 549,-32 589,-32 589,-32 595,-32 601,-38 601,-44 601,-44 601,-56 601,-56 601,-62 595,-68 589,-68"/>
<text xml:space="preserve" text-anchor="middle" x="569" y="-46.5" font-family="Arial" font-size="10.00" fill="#1a1a1a">information</text>
</g>
<!-- attr_1 -->
<g id="node9" class="node">
<title>attr_1</title>
<path fill="#c7b8e6" stroke="#7f8c8d" stroke-width="1.2" d="M762.75,-101C762.75,-101 656,-101 656,-101 650,-101 644,-95 644,-89 644,-89 644,-77 644,-77 644,-71 650,-65 656,-65 656,-65 762.75,-65 762.75,-65 768.75,-65 774.75,-71 774.75,-77 774.75,-77 774.75,-89 774.75,-89 774.75,-95 768.75,-101 762.75,-101"/>
<text xml:space="preserve" text-anchor="middle" x="709.38" y="-79.5" font-family="Arial" font-size="10.00" fill="#1a1a1a">(+) much more information</text>
</g>
<!-- content.data&#45;&gt;attr_1 -->
<g id="edge4" class="edge">
<title>content.data&#45;&gt;attr_1</title>
<path fill="none" stroke="#aaaaaa" d="M601.75,-57.57C611.86,-59.98 623.5,-62.76 635.29,-65.57"/>
<polygon fill="#aaaaaa" stroke="#aaaaaa" points="634.61,-67.93 641.99,-67.17 635.75,-63.16 634.61,-67.93"/>
</g>
<!-- attr_4 -->
<g id="node10" class="node">
<title>attr_4</title>
<path fill="#c7b8e6" stroke="#7f8c8d" stroke-width="1.2" d="M751.88,-36C751.88,-36 666.88,-36 666.88,-36 660.88,-36 654.88,-30 654.88,-24 654.88,-24 654.88,-12 654.88,-12 654.88,-6 660.88,0 666.88,0 666.88,0 751.88,0 751.88,0 757.88,0 763.88,-6 763.88,-12 763.88,-12 763.88,-24 763.88,-24 763.88,-30 757.88,-36 751.88,-36"/>
<text xml:space="preserve" text-anchor="middle" x="709.38" y="-14.5" font-family="Arial" font-size="10.00" fill="#1a1a1a">(−) fairly easy to read</text>
</g>
<!-- content.data&#45;&gt;attr_4 -->
<g id="edge5" class="edge">
<title>content.data&#45;&gt;attr_4</title>
<path fill="none" stroke="#aaaaaa" d="M601.75,-42.66C615.06,-39.58 631.03,-35.89 646.5,-32.31"/>
<polygon fill="#aaaaaa" stroke="#aaaaaa" points="646.79,-34.76 653.06,-30.79 645.69,-29.98 646.79,-34.76"/>
</g>
<!-- rel_0&#45;&gt;content.data -->
<g id="edge7" class="edge">
<title>rel_0&#45;&gt;content.data</title>
<path fill="none" stroke="#d46a6a" stroke-width="1.5" d="M449.16,-50C470.6,-50 501.29,-50 526.12,-50"/>
<polygon fill="#d46a6a" stroke="#d46a6a" stroke-width="1.5" points="526.08,-52.8 534.08,-50 526.08,-47.2 526.08,-52.8"/>
</g>
<!-- rel_1&#45;&gt;mark.shape -->
<g id="edge9" class="edge">
<title>rel_1&#45;&gt;mark.shape</title>
<path fill="none" stroke="#d46a6a" stroke-width="1.5" d="M191.02,-180C207.12,-180 226,-180 242.1,-180"/>
<polygon fill="#d46a6a" stroke="#d46a6a" stroke-width="1.5" points="241.96,-182.8 249.96,-180 241.96,-177.2 241.96,-182.8"/>
</g>
<!-- rel_2&#45;&gt;mark.line -->
<g id="edge11" class="edge">
<title>rel_2&#45;&gt;mark.line</title>
<path fill="none" stroke="#d46a6a" stroke-width="1.5" d="M188.03,-50C204.71,-50 224.89,-50 241.98,-50"/>
<polygon fill="#d46a6a" stroke="#d46a6a" stroke-width="1.5" points="241.89,-52.8 249.89,-50 241.89,-47.2 241.89,-52.8"/>
</g>
</g>
</svg>
