<?xml version="1.0" encoding="UTF-8" standalone="no"?>
<!DOCTYPE svg PUBLIC "-//W3C//DTD SVG 1.1//EN"
 "http://www.w3.org/Graphics/SVG/1.1/DTD/svg11.dtd">
<!-- Generated by graphviz version 14.1.5 (20260411.2331)
 -->
<!-- Title: economist_daily_chart_165.png Pages: 1 -->
<svg width="786pt" height="505pt"
 viewBox="0.00 0.00 786.00 505.00" xmlns="http://www.w3.org/2000/svg" xmlns:xlink="http://www.w3.org/1999/xlink">
<g id="graph0" class="graph" transform="scale(1 1) rotate(0) translate(4 501.25)">
<title>economist_daily_chart_165.png</title>
<polygon fill="white" stroke="none" points="-4,4 -4,-501.25 782,-501.25 782,4 -4,4"/>
<text xml:space="preserve" text-anchor="start" x="286.25" y="-476.95" font-family="Arial" font-weight="bold" font-size="14.00">economist_daily_chart_165.png</text>
<text xml:space="preserve" text-anchor="start" x="348.12" y="-457" font-family="Arial" font-size="11.00">Bar &#160;| &#160;VC = 0.43</text>
<path fill="#b8e6b8" stroke="none" d="M179.62,-432C179.62,-432 187.62,-432 187.62,-432 190.62,-432 193.62,-435 193.62,-438 193.62,-438 193.62,-444 193.62,-444 193.62,-447 190.62,-450 187.62,-450 187.62,-450 179.62,-450 179.62,-450 176.62,-450 173.62,-447 173.62,-444 173.62,-444 173.62,-438 173.62,-438 173.62,-435 176.62,-432 179.62,-432"/>
<path fill="none" stroke="black" d="M179.62,-432C179.62,-432 187.62,-432 187.62,-432 190.62,-432 193.62,-435 193.62,-438 193.62,-438 193.62,-444 193.62,-444 193.62,-447 190.62,-450 187.62,-450 187.62,-450 179.62,-450 179.62,-450 176.62,-450 173.62,-447 173.62,-444 173.62,-444 173.62,-438 173.62,-438 173.62,-435 176.62,-432 179.62,-432"/>
<text xml:space="preserve" text-anchor="start" x="182.12" y="-437.25" font-family="Arial" font-size="10.00"> </text>
<text xml:space="preserve" text-anchor="start" x="197.62" y="-437.25" font-family="Arial" font-size="10.00">Object</text>
<path fill="#c7b8e6" stroke="none" d="M236.12,-432C236.12,-432 244.12,-432 244.12,-432 247.12,-432 250.12,-435 250.12,-438 250.12,-438 250.12,-444 250.12,-444 250.12,-447 247.12,-450 244.12,-450 244.12,-450 236.12,-450 236.12,-450 233.12,-450 230.12,-447 230.12,-444 230.12,-444 230.12,-438 230.12,-438 230.12,-435 233.12,-432 236.12,-432"/>
<path fill="none" stroke="black" d="M236.12,-432C236.12,-432 244.12,-432 244.12,-432 247.12,-432 250.12,-435 250.12,-438 250.12,-438 250.12,-444 250.12,-444 250.12,-447 247.12,-450 244.12,-450 244.12,-450 236.12,-450 236.12,-450 233.12,-450 230.12,-447 230.12,-444 230.12,-444 230.12,-438 230.12,-438 230.12,-435 233.12,-432 236.12,-432"/>
<text xml:space="preserve" text-anchor="start" x="238.62" y="-437.25" font-family="Arial" font-size="10.00"> </text>
<text xml:space="preserve" text-anchor="start" x="254.12" y="-437.25" font-family="Arial" font-size="10.00">Attribute</text>
<path fill="#f5b8b8" stroke="none" d="M300.88,-432C300.88,-432 308.88,-432 308.88,-432 311.88,-432 314.88,-435 314.88,-438 314.88,-438 314.88,-444 314.88,-444 314.88,-447 311.88,-450 308.88,-450 308.88,-450 300.88,-450 300.88,-450 297.88,-450 294.88,-447 294.88,-444 294.88,-444 294.88,-438 294.88,-438 294.88,-435 297.88,-432 300.88,-432"/>
<path fill="none" stroke="black" d="M300.88,-432C300.88,-432 308.88,-432 308.88,-432 311.88,-432 314.88,-435 314.88,-438 314.88,-438 314.88,-444 314.88,-444 314.88,-447 311.88,-450 308.88,-450 308.88,-450 300.88,-450 300.88,-450 297.88,-450 294.88,-447 294.88,-444 294.88,-444 294.88,-438 294.88,-438 294.88,-435 297.88,-432 300.88,-432"/>
<text xml:space="preserve" text-anchor="start" x="303.38" y="-437.25" font-family="Arial" font-size="10.00"> </text>
<text xml:space="preserve" text-anchor="start" x="318.88" y="-437.25" font-family="Arial" font-size="10.00">Relationship</text>
<text xml:space="preserve" text-anchor="start" x="378.88" y="-438.5" font-family="Arial" font-weight="bold" font-size="10.00">(+)</text>
<text xml:space="preserve" text-anchor="start" x="390.88" y="-438.5" font-family="Arial" font-size="10.00"> increases complexity</text>
<text xml:space="preserve" text-anchor="start" x="492.12" y="-438.5" font-family="Arial" font-weight="bold" font-size="10.00">(−)</text>
<text xml:space="preserve" text-anchor="start" x="504.12" y="-438.5" font-family="Arial" font-size="10.00"> decreases complexity</text>
<!-- mark.bar -->
<g id="node1" class="node">
<title>mark.bar</title>
<path fill="#b8e6b8" stroke="#2c3e50" stroke-width="1.8" d="M317.25,-101C317.25,-101 287.25,-101 287.25,-101 281.25,-101 275.25,-95 275.25,-89 275.25,-89 275.25,-77 275.25,-77 275.25,-71 281.25,-65 287.25,-65 287.25,-65 317.25,-65 317.25,-65 323.25,-65 329.25,-71 329.25,-77 329.25,-77 329.25,-89 329.25,-89 329.25,-95 323.25,-101 317.25,-101"/>
<text xml:space="preserve" text-anchor="middle" x="302.25" y="-79.5" font-family="Arial" font-size="10.00" fill="#1a1a1a">bar</text>
</g>
<!-- attr_0 -->
<g id="node8" class="node">
<title>attr_0</title>
<path fill="#c7b8e6" stroke="#7f8c8d" stroke-width="1.2" d="M490,-101C490,-101 399,-101 399,-101 393,-101 387,-95 387,-89 387,-89 387,-77 387,-77 387,-71 393,-65 399,-65 399,-65 490,-65 490,-65 496,-65 502,-71 502,-77 502,-77 502,-89 502,-89 502,-95 496,-101 490,-101"/>
<text xml:space="preserve" text-anchor="middle" x="444.5" y="-79.5" font-family="Arial" font-size="10.00" fill="#1a1a1a">(+) moderate bar count</text>
</g>
<!-- mark.bar&#45;&gt;attr_0 -->
<g id="edge1" class="edge">
<title>mark.bar&#45;&gt;attr_0</title>
<path fill="none" stroke="#aaaaaa" d="M329.96,-83C343.76,-83 361.25,-83 378.35,-83"/>
<polygon fill="#aaaaaa" stroke="#aaaaaa" points="378.18,-85.45 385.18,-83 378.18,-80.55 378.18,-85.45"/>
</g>
<!-- property.color -->
<g id="node2" class="node">
<title>property.color</title>
<path fill="#b8e6b8" stroke="#2c3e50" stroke-width="1.8" d="M43.62,-198C43.62,-198 13.62,-198 13.62,-198 7.62,-198 1.62,-192 1.62,-186 1.62,-186 1.62,-174 1.62,-174 1.62,-168 7.62,-162 13.62,-162 13.62,-162 43.62,-162 43.62,-162 49.62,-162 55.62,-168 55.62,-174 55.62,-174 55.62,-186 55.62,-186 55.62,-192 49.62,-198 43.62,-198"/>
<text xml:space="preserve" text-anchor="middle" x="28.62" y="-176.5" font-family="Arial" font-size="10.00" fill="#1a1a1a">color</text>
</g>
<!-- attr_1 -->
<g id="node9" class="node">
<title>attr_1</title>
<path fill="#c7b8e6" stroke="#7f8c8d" stroke-width="1.2" d="M216.75,-231C216.75,-231 112.25,-231 112.25,-231 106.25,-231 100.25,-225 100.25,-219 100.25,-219 100.25,-207 100.25,-207 100.25,-201 106.25,-195 112.25,-195 112.25,-195 216.75,-195 216.75,-195 222.75,-195 228.75,-201 228.75,-207 228.75,-207 228.75,-219 228.75,-219 228.75,-225 222.75,-231 216.75,-231"/>
<text xml:space="preserve" text-anchor="middle" x="164.5" y="-209.5" font-family="Arial" font-size="10.00" fill="#1a1a1a">(+) multiple distinct colors</text>
</g>
<!-- property.color&#45;&gt;attr_1 -->
<g id="edge2" class="edge">
<title>property.color&#45;&gt;attr_1</title>
<path fill="none" stroke="#aaaaaa" d="M56.39,-186.6C66.66,-189.13 78.93,-192.15 91.43,-195.24"/>
<polygon fill="#aaaaaa" stroke="#aaaaaa" points="90.81,-197.61 98.2,-196.9 91.99,-192.85 90.81,-197.61"/>
</g>
<!-- rel_0 -->
<g id="node15" class="node">
<title>rel_0</title>
<path fill="#f5b8b8" stroke="#d46a6a" stroke-width="1.2" d="M186.75,-166C186.75,-166 142.25,-166 142.25,-166 136.25,-166 130.25,-160 130.25,-154 130.25,-154 130.25,-142 130.25,-142 130.25,-136 136.25,-130 142.25,-130 142.25,-130 186.75,-130 186.75,-130 192.75,-130 198.75,-136 198.75,-142 198.75,-142 198.75,-154 198.75,-154 198.75,-160 192.75,-166 186.75,-166"/>
<text xml:space="preserve" text-anchor="middle" x="164.5" y="-144.5" font-family="Arial" font-size="10.00" fill="#8b0000">encodes via</text>
</g>
<!-- property.color&#45;&gt;rel_0 -->
<g id="edge8" class="edge">
<title>property.color&#45;&gt;rel_0</title>
<path fill="none" stroke="#d46a6a" stroke-width="1.5" d="M56.39,-173.6C74.62,-169.24 99.16,-163.38 120.15,-158.36"/>
<polygon fill="#d46a6a" stroke="#d46a6a" stroke-width="1.5" points="120.79,-161.09 127.92,-156.51 119.49,-155.64 120.79,-161.09"/>
</g>
<!-- text.axis_label -->
<g id="node3" class="node">
<title>text.axis_label</title>
<path fill="#b8e6b8" stroke="#2c3e50" stroke-width="1.8" d="M45.25,-68C45.25,-68 12,-68 12,-68 6,-68 0,-62 0,-56 0,-56 0,-44 0,-44 0,-38 6,-32 12,-32 12,-32 45.25,-32 45.25,-32 51.25,-32 57.25,-38 57.25,-44 57.25,-44 57.25,-56 57.25,-56 57.25,-62 51.25,-68 45.25,-68"/>
<text xml:space="preserve" text-anchor="middle" x="28.62" y="-46.5" font-family="Arial" font-size="10.00" fill="#1a1a1a">axis label</text>
</g>
<!-- attr_2 -->
<g id="node10" class="node">
<title>attr_2</title>
<path fill="#c7b8e6" stroke="#7f8c8d" stroke-width="1.2" d="M212.62,-101C212.62,-101 116.38,-101 116.38,-101 110.38,-101 104.38,-95 104.38,-89 104.38,-89 104.38,-77 104.38,-77 104.38,-71 110.38,-65 116.38,-65 116.38,-65 212.62,-65 212.62,-65 218.62,-65 224.62,-71 224.62,-77 224.62,-77 224.62,-89 224.62,-89 224.62,-95 218.62,-101 212.62,-101"/>
<text xml:space="preserve" text-anchor="middle" x="164.5" y="-79.5" font-family="Arial" font-size="10.00" fill="#1a1a1a">(−) clear readable labels</text>
</g>
<!-- text.axis_label&#45;&gt;attr_2 -->
<g id="edge3" class="edge">
<title>text.axis_label&#45;&gt;attr_2</title>
<path fill="none" stroke="#aaaaaa" d="M58.02,-57C69.24,-59.77 82.67,-63.07 96.12,-66.39"/>
<polygon fill="#aaaaaa" stroke="#aaaaaa" points="95.17,-68.68 102.55,-67.98 96.34,-63.92 95.17,-68.68"/>
</g>
<!-- rel_2 -->
<g id="node17" class="node">
<title>rel_2</title>
<path fill="#f5b8b8" stroke="#d46a6a" stroke-width="1.2" d="M214.5,-36C214.5,-36 114.5,-36 114.5,-36 108.5,-36 102.5,-30 102.5,-24 102.5,-24 102.5,-12 102.5,-12 102.5,-6 108.5,0 114.5,0 114.5,0 214.5,0 214.5,0 220.5,0 226.5,-6 226.5,-12 226.5,-12 226.5,-24 226.5,-24 226.5,-30 220.5,-36 214.5,-36"/>
<text xml:space="preserve" text-anchor="middle" x="164.5" y="-14.5" font-family="Arial" font-size="10.00" fill="#8b0000">supports interpretation of</text>
</g>
<!-- text.axis_label&#45;&gt;rel_2 -->
<g id="edge12" class="edge">
<title>text.axis_label&#45;&gt;rel_2</title>
<path fill="none" stroke="#d46a6a" stroke-width="1.5" d="M58.02,-43.21C68.19,-40.78 80.17,-37.92 92.33,-35.01"/>
<polygon fill="#d46a6a" stroke="#d46a6a" stroke-width="1.5" points="92.76,-37.79 99.89,-33.2 91.46,-32.34 92.76,-37.79"/>
</g>
<!-- text.label -->
<g id="node4" class="node">
<title>text.label</title>
<path fill="#b8e6b8" stroke="#2c3e50" stroke-width="1.8" d="M598.25,-263C598.25,-263 568.25,-263 568.25,-263 562.25,-263 556.25,-257 556.25,-251 556.25,-251 556.25,-239 556.25,-239 556.25,-233 562.25,-227 568.25,-227 568.25,-227 598.25,-227 598.25,-227 604.25,-227 610.25,-233 610.25,-239 610.25,-239 610.25,-251 610.25,-251 610.25,-257 604.25,-263 598.25,-263"/>
<text xml:space="preserve" text-anchor="middle" x="583.25" y="-241.5" font-family="Arial" font-size="10.00" fill="#1a1a1a">text</text>
</g>
<!-- attr_3 -->
<g id="node11" class="node">
<title>attr_3</title>
<path fill="#c7b8e6" stroke="#7f8c8d" stroke-width="1.2" d="M766,-263C766,-263 665.25,-263 665.25,-263 659.25,-263 653.25,-257 653.25,-251 653.25,-251 653.25,-239 653.25,-239 653.25,-233 659.25,-227 665.25,-227 665.25,-227 766,-227 766,-227 772,-227 778,-233 778,-239 778,-239 778,-251 778,-251 778,-257 772,-263 766,-263"/>
<text xml:space="preserve" text-anchor="middle" x="715.62" y="-241.5" font-family="Arial" font-size="10.00" fill="#1a1a1a">(+) requires reading effort</text>
</g>
<!-- text.label&#45;&gt;attr_3 -->
<g id="edge4" class="edge">
<title>text.label&#45;&gt;attr_3</title>
<path fill="none" stroke="#aaaaaa" d="M610.95,-245C620.81,-245 632.51,-245 644.44,-245"/>
<polygon fill="#aaaaaa" stroke="#aaaaaa" points="644.19,-247.45 651.19,-245 644.19,-242.55 644.19,-247.45"/>
</g>
<!-- furniture.legend -->
<g id="node5" class="node">
<title>furniture.legend</title>
<path fill="#b8e6b8" stroke="#2c3e50" stroke-width="1.8" d="M43.62,-426C43.62,-426 13.62,-426 13.62,-426 7.62,-426 1.62,-420 1.62,-414 1.62,-414 1.62,-402 1.62,-402 1.62,-396 7.62,-390 13.62,-390 13.62,-390 43.62,-390 43.62,-390 49.62,-390 55.62,-396 55.62,-402 55.62,-402 55.62,-414 55.62,-414 55.62,-420 49.62,-426 43.62,-426"/>
<text xml:space="preserve" text-anchor="middle" x="28.62" y="-404.5" font-family="Arial" font-size="10.00" fill="#1a1a1a">legend</text>
</g>
<!-- attr_6 -->
<g id="node12" class="node">
<title>attr_6</title>
<path fill="#c7b8e6" stroke="#7f8c8d" stroke-width="1.2" d="M216.75,-426C216.75,-426 112.25,-426 112.25,-426 106.25,-426 100.25,-420 100.25,-414 100.25,-414 100.25,-402 100.25,-402 100.25,-396 106.25,-390 112.25,-390 112.25,-390 216.75,-390 216.75,-390 222.75,-390 228.75,-396 228.75,-402 228.75,-402 228.75,-414 228.75,-414 228.75,-420 222.75,-426 216.75,-426"/>
<text xml:space="preserve" text-anchor="middle" x="164.5" y="-404.5" font-family="Arial" font-size="10.00" fill="#1a1a1a">(−) organized color coding</text>
</g>
<!-- furniture.legend&#45;&gt;attr_6 -->
<g id="edge5" class="edge">
<title>furniture.legend&#45;&gt;attr_6</title>
<path fill="none" stroke="#aaaaaa" d="M56.39,-408C66.66,-408 78.93,-408 91.43,-408"/>
<polygon fill="#aaaaaa" stroke="#aaaaaa" points="91.15,-410.45 98.15,-408 91.15,-405.55 91.15,-410.45"/>
</g>
<!-- text.title -->
<g id="node6" class="node">
<title>text.title</title>
<path fill="#b8e6b8" stroke="#2c3e50" stroke-width="1.8" d="M43.62,-328C43.62,-328 13.62,-328 13.62,-328 7.62,-328 1.62,-322 1.62,-316 1.62,-316 1.62,-304 1.62,-304 1.62,-298 7.62,-292 13.62,-292 13.62,-292 43.62,-292 43.62,-292 49.62,-292 55.62,-298 55.62,-304 55.62,-304 55.62,-316 55.62,-316 55.62,-322 49.62,-328 43.62,-328"/>
<text xml:space="preserve" text-anchor="middle" x="28.62" y="-306.5" font-family="Arial" font-size="10.00" fill="#1a1a1a">title</text>
</g>
<!-- attr_4 -->
<g id="node13" class="node">
<title>attr_4</title>
<path fill="#c7b8e6" stroke="#7f8c8d" stroke-width="1.2" d="M213,-361C213,-361 116,-361 116,-361 110,-361 104,-355 104,-349 104,-349 104,-337 104,-337 104,-331 110,-325 116,-325 116,-325 213,-325 213,-325 219,-325 225,-331 225,-337 225,-337 225,-349 225,-349 225,-355 219,-361 213,-361"/>
<text xml:space="preserve" text-anchor="middle" x="164.5" y="-339.5" font-family="Arial" font-size="10.00" fill="#1a1a1a">(−) understandable topic</text>
</g>
<!-- text.title&#45;&gt;attr_4 -->
<g id="edge6" class="edge">
<title>text.title&#45;&gt;attr_4</title>
<path fill="none" stroke="#aaaaaa" d="M56.39,-316.6C67.75,-319.4 81.55,-322.8 95.42,-326.22"/>
<polygon fill="#aaaaaa" stroke="#aaaaaa" points="94.72,-328.57 102.1,-327.86 95.89,-323.81 94.72,-328.57"/>
</g>
<!-- rel_4 -->
<g id="node19" class="node">
<title>rel_4</title>
<path fill="#f5b8b8" stroke="#d46a6a" stroke-width="1.2" d="M179.5,-296C179.5,-296 149.5,-296 149.5,-296 143.5,-296 137.5,-290 137.5,-284 137.5,-284 137.5,-272 137.5,-272 137.5,-266 143.5,-260 149.5,-260 149.5,-260 179.5,-260 179.5,-260 185.5,-260 191.5,-266 191.5,-272 191.5,-272 191.5,-284 191.5,-284 191.5,-290 185.5,-296 179.5,-296"/>
<text xml:space="preserve" text-anchor="middle" x="164.5" y="-274.5" font-family="Arial" font-size="10.00" fill="#8b0000">clarifies</text>
</g>
<!-- text.title&#45;&gt;rel_4 -->
<g id="edge16" class="edge">
<title>text.title&#45;&gt;rel_4</title>
<path fill="none" stroke="#d46a6a" stroke-width="1.5" d="M56.39,-303.6C76.78,-298.73 105.04,-291.97 127.42,-286.63"/>
<polygon fill="#d46a6a" stroke="#d46a6a" stroke-width="1.5" points="127.89,-289.39 135.02,-284.81 126.59,-283.94 127.89,-289.39"/>
</g>
<!-- unknown.data_detail -->
<g id="node7" class="node">
<title>unknown.data_detail</title>
<path fill="#b8e6b8" stroke="#2c3e50" stroke-width="1.8" d="M320.75,-296C320.75,-296 283.75,-296 283.75,-296 277.75,-296 271.75,-290 271.75,-284 271.75,-284 271.75,-272 271.75,-272 271.75,-266 277.75,-260 283.75,-260 283.75,-260 320.75,-260 320.75,-260 326.75,-260 332.75,-266 332.75,-272 332.75,-272 332.75,-284 332.75,-284 332.75,-290 326.75,-296 320.75,-296"/>
<text xml:space="preserve" text-anchor="middle" x="302.25" y="-274.5" font-family="Arial" font-size="10.00" fill="#1a1a1a">data detail</text>
</g>
<!-- attr_5 -->
<g id="node14" class="node">
<title>attr_5</title>
<path fill="#c7b8e6" stroke="#7f8c8d" stroke-width="1.2" d="M501.25,-361C501.25,-361 387.75,-361 387.75,-361 381.75,-361 375.75,-355 375.75,-349 375.75,-349 375.75,-337 375.75,-337 375.75,-331 381.75,-325 387.75,-325 387.75,-325 501.25,-325 501.25,-325 507.25,-325 513.25,-331 513.25,-337 513.25,-337 513.25,-349 513.25,-349 513.25,-355 507.25,-361 501.25,-361"/>
<text xml:space="preserve" text-anchor="middle" x="444.5" y="-339.5" font-family="Arial" font-size="10.00" fill="#1a1a1a">(+) moderately detailed data</text>
</g>
<!-- unknown.data_detail&#45;&gt;attr_5 -->
<g id="edge7" class="edge">
<title>unknown.data_detail&#45;&gt;attr_5</title>
<path fill="none" stroke="#aaaaaa" d="M333.34,-291.94C351.62,-300.42 375.36,-311.42 396.11,-321.04"/>
<polygon fill="#aaaaaa" stroke="#aaaaaa" points="394.86,-323.16 402.24,-323.88 396.92,-318.71 394.86,-323.16"/>
</g>
<!-- rel_1 -->
<g id="node16" class="node">
<title>rel_1</title>
<path fill="#f5b8b8" stroke="#d46a6a" stroke-width="1.2" d="M495.62,-296C495.62,-296 393.38,-296 393.38,-296 387.38,-296 381.38,-290 381.38,-284 381.38,-284 381.38,-272 381.38,-272 381.38,-266 387.38,-260 393.38,-260 393.38,-260 495.62,-260 495.62,-260 501.62,-260 507.62,-266 507.62,-272 507.62,-272 507.62,-284 507.62,-284 507.62,-290 501.62,-296 495.62,-296"/>
<text xml:space="preserve" text-anchor="middle" x="444.5" y="-274.5" font-family="Arial" font-size="10.00" fill="#8b0000">requires concentration for</text>
</g>
<!-- unknown.data_detail&#45;&gt;rel_1 -->
<g id="edge10" class="edge">
<title>unknown.data_detail&#45;&gt;rel_1</title>
<path fill="none" stroke="#d46a6a" stroke-width="1.5" d="M333.34,-278C344.43,-278 357.54,-278 370.77,-278"/>
<polygon fill="#d46a6a" stroke="#d46a6a" stroke-width="1.5" points="370.61,-280.8 378.61,-278 370.61,-275.2 370.61,-280.8"/>
</g>
<!-- rel_3 -->
<g id="node18" class="node">
<title>rel_3</title>
<path fill="#f5b8b8" stroke="#d46a6a" stroke-width="1.2" d="M491.12,-231C491.12,-231 397.88,-231 397.88,-231 391.88,-231 385.88,-225 385.88,-219 385.88,-219 385.88,-207 385.88,-207 385.88,-201 391.88,-195 397.88,-195 397.88,-195 491.12,-195 491.12,-195 497.12,-195 503.12,-201 503.12,-207 503.12,-207 503.12,-219 503.12,-219 503.12,-225 497.12,-231 491.12,-231"/>
<text xml:space="preserve" text-anchor="middle" x="444.5" y="-209.5" font-family="Arial" font-size="10.00" fill="#8b0000">increases reading effort</text>
</g>
<!-- unknown.data_detail&#45;&gt;rel_3 -->
<g id="edge14" class="edge">
<title>unknown.data_detail&#45;&gt;rel_3</title>
<path fill="none" stroke="#d46a6a" stroke-width="1.5" d="M333.34,-264.06C351.14,-255.81 374.11,-245.16 394.47,-235.72"/>
<polygon fill="#d46a6a" stroke="#d46a6a" stroke-width="1.5" points="395.47,-238.35 401.55,-232.44 393.11,-233.27 395.47,-238.35"/>
</g>
<!-- rel_0&#45;&gt;mark.bar -->
<g id="edge9" class="edge">
<title>rel_0&#45;&gt;mark.bar</title>
<path fill="none" stroke="#d46a6a" stroke-width="1.5" d="M199.06,-131.93C219.21,-122.28 244.84,-110.01 265.39,-100.17"/>
<polygon fill="#d46a6a" stroke="#d46a6a" stroke-width="1.5" points="266.39,-102.8 272.39,-96.82 263.97,-97.75 266.39,-102.8"/>
</g>
<!-- rel_1&#45;&gt;text.label -->
<g id="edge11" class="edge">
<title>rel_1&#45;&gt;text.label</title>
<path fill="none" stroke="#d46a6a" stroke-width="1.5" d="M507.87,-262.95C520.84,-259.82 534.1,-256.62 545.76,-253.81"/>
<polygon fill="#d46a6a" stroke="#d46a6a" stroke-width="1.5" points="546.22,-256.57 553.34,-251.98 544.91,-251.13 546.22,-256.57"/>
</g>
<!-- rel_2&#45;&gt;mark.bar -->
<g id="edge13" class="edge">
<title>rel_2&#45;&gt;mark.bar</title>
<path fill="none" stroke="#d46a6a" stroke-width="1.5" d="M204.04,-36.45C223.35,-45.7 246.59,-56.83 265.5,-65.88"/>
<polygon fill="#d46a6a" stroke="#d46a6a" stroke-width="1.5" points="264.2,-68.36 272.63,-69.29 266.62,-63.31 264.2,-68.36"/>
</g>
<!-- rel_3&#45;&gt;text.label -->
<g id="edge15" class="edge">
<title>rel_3&#45;&gt;text.label</title>
<path fill="none" stroke="#d46a6a" stroke-width="1.5" d="M503.49,-226.57C517.74,-229.9 532.6,-233.38 545.52,-236.41"/>
<polygon fill="#d46a6a" stroke="#d46a6a" stroke-width="1.5" points="544.79,-239.11 553.22,-238.21 546.06,-233.66 544.79,-239.11"/>
</g>
<!-- rel_4&#45;&gt;unknown.data_detail -->
<g id="edge17" class="edge">
<title>rel_4&#45;&gt;unknown.data_detail</title>
<path fill="none" stroke="#d46a6a" stroke-width="1.5" d="M192,-278C211.58,-278 238.59,-278 260.86,-278"/>
<polygon fill="#d46a6a" stroke="#d46a6a" stroke-width="1.5" points="260.76,-280.8 268.76,-278 260.76,-275.2 260.76,-280.8"/>
</g>
</g>
</svg>
