<?xml version="1.0" encoding="UTF-8" standalone="no"?>
<!DOCTYPE svg PUBLIC "-//W3C//DTD SVG 1.1//EN"
 "http://www.w3.org/Graphics/SVG/1.1/DTD/svg11.dtd">
<!-- Generated by graphviz version 14.1.5 (20260411.2331)
 -->
<!-- Title: economist_daily_chart_106.png Pages: 1 -->
<svg width="599pt" height="440pt"
 viewBox="0.00 0.00 599.00 440.00" xmlns="http://www.w3.org/2000/svg" xmlns:xlink="http://www.w3.org/1999/xlink">
<g id="graph0" class="graph" transform="scale(1 1) rotate(0) translate(4 436.25)">
<title>economist_daily_chart_106.png</title>
<polygon fill="white" stroke="none" points="-4,4 -4,-436.25 594.5,-436.25 594.5,4 -4,4"/>
<text xml:space="preserve" text-anchor="start" x="192.5" y="-411.95" font-family="Arial" font-weight="bold" font-size="14.00">economist_daily_chart_106.png</text>
<text xml:space="preserve" text-anchor="start" x="254.38" y="-392" font-family="Arial" font-size="11.00">Bar &#160;| &#160;VC = 0.53</text>
<path fill="#b8e6b8" stroke="none" d="M85.88,-367C85.88,-367 93.88,-367 93.88,-367 96.88,-367 99.88,-370 99.88,-373 99.88,-373 99.88,-379 99.88,-379 99.88,-382 96.88,-385 93.88,-385 93.88,-385 85.88,-385 85.88,-385 82.88,-385 79.88,-382 79.88,-379 79.88,-379 79.88,-373 79.88,-373 79.88,-370 82.88,-367 85.88,-367"/>
<path fill="none" stroke="black" d="M85.88,-367C85.88,-367 93.88,-367 93.88,-367 96.88,-367 99.88,-370 99.88,-373 99.88,-373 99.88,-379 99.88,-379 99.88,-382 96.88,-385 93.88,-385 93.88,-385 85.88,-385 85.88,-385 82.88,-385 79.88,-382 79.88,-379 79.88,-379 79.88,-373 79.88,-373 79.88,-370 82.88,-367 85.88,-367"/>
<text xml:space="preserve" text-anchor="start" x="88.38" y="-372.25" font-family="Arial" font-size="10.00"> </text>
<text xml:space="preserve" text-anchor="start" x="103.88" y="-372.25" font-family="Arial" font-size="10.00">Object</text>
<path fill="#c7b8e6" stroke="none" d="M142.38,-367C142.38,-367 150.38,-367 150.38,-367 153.38,-367 156.38,-370 156.38,-373 156.38,-373 156.38,-379 156.38,-379 156.38,-382 153.38,-385 150.38,-385 150.38,-385 142.38,-385 142.38,-385 139.38,-385 136.38,-382 136.38,-379 136.38,-379 136.38,-373 136.38,-373 136.38,-370 139.38,-367 142.38,-367"/>
<path fill="none" stroke="black" d="M142.38,-367C142.38,-367 150.38,-367 150.38,-367 153.38,-367 156.38,-370 156.38,-373 156.38,-373 156.38,-379 156.38,-379 156.38,-382 153.38,-385 150.38,-385 150.38,-385 142.38,-385 142.38,-385 139.38,-385 136.38,-382 136.38,-379 136.38,-379 136.38,-373 136.38,-373 136.38,-370 139.38,-367 142.38,-367"/>
<text xml:space="preserve" text-anchor="start" x="144.88" y="-372.25" font-family="Arial" font-size="10.00"> </text>
<text xml:space="preserve" text-anchor="start" x="160.38" y="-372.25" font-family="Arial" font-size="10.00">Attribute</text>
<path fill="#f5b8b8" stroke="none" d="M207.12,-367C207.12,-367 215.12,-367 215.12,-367 218.12,-367 221.12,-370 221.12,-373 221.12,-373 221.12,-379 221.12,-379 221.12,-382 218.12,-385 215.12,-385 215.12,-385 207.12,-385 207.12,-385 204.12,-385 201.12,-382 201.12,-379 201.12,-379 201.12,-373 201.12,-373 201.12,-370 204.12,-367 207.12,-367"/>
<path fill="none" stroke="black" d="M207.12,-367C207.12,-367 215.12,-367 215.12,-367 218.12,-367 221.12,-370 221.12,-373 221.12,-373 221.12,-379 221.12,-379 221.12,-382 218.12,-385 215.12,-385 215.12,-385 207.12,-385 207.12,-385 204.12,-385 201.12,-382 201.12,-379 201.12,-379 201.12,-373 201.12,-373 201.12,-370 204.12,-367 207.12,-367"/>
<text xml:space="preserve" text-anchor="start" x="209.62" y="-372.25" font-family="Arial" font-size="10.00"> </text>
<text xml:space="preserve" text-anchor="start" x="225.12" y="-372.25" font-family="Arial" font-size="10.00">Relationship</text>
<text xml:space="preserve" text-anchor="start" x="285.12" y="-373.5" font-family="Arial" font-weight="bold" font-size="10.00">(+)</text>
<text xml:space="preserve" text-anchor="start" x="297.12" y="-373.5" font-family="Arial" font-size="10.00"> increases complexity</text>
<text xml:space="preserve" text-anchor="start" x="398.38" y="-373.5" font-family="Arial" font-weight="bold" font-size="10.00">(−)</text>
<text xml:space="preserve" text-anchor="start" x="410.38" y="-373.5" font-family="Arial" font-size="10.00"> decreases complexity</text>
<!-- mark.bar -->
<g id="node1" class="node">
<title>mark.bar</title>
<path fill="#b8e6b8" stroke="#2c3e50" stroke-width="1.8" d="M49.62,-69C49.62,-69 19.62,-69 19.62,-69 13.62,-69 7.62,-63 7.62,-57 7.62,-57 7.62,-45 7.62,-45 7.62,-39 13.62,-33 19.62,-33 19.62,-33 49.62,-33 49.62,-33 55.62,-33 61.62,-39 61.62,-45 61.62,-45 61.62,-57 61.62,-57 61.62,-63 55.62,-69 49.62,-69"/>
<text xml:space="preserve" text-anchor="middle" x="34.62" y="-47.5" font-family="Arial" font-size="10.00" fill="#1a1a1a">bar</text>
</g>
<!-- attr_2 -->
<g id="node6" class="node">
<title>attr_2</title>
<path fill="#c7b8e6" stroke="#7f8c8d" stroke-width="1.2" d="M240.38,-101C240.38,-101 129.88,-101 129.88,-101 123.88,-101 117.88,-95 117.88,-89 117.88,-89 117.88,-77 117.88,-77 117.88,-71 123.88,-65 129.88,-65 129.88,-65 240.38,-65 240.38,-65 246.38,-65 252.38,-71 252.38,-77 252.38,-77 252.38,-89 252.38,-89 252.38,-95 246.38,-101 240.38,-101"/>
<text xml:space="preserve" text-anchor="middle" x="185.12" y="-79.5" font-family="Arial" font-size="10.00" fill="#1a1a1a">(+) variable visual structure</text>
</g>
<!-- mark.bar&#45;&gt;attr_2 -->
<g id="edge1" class="edge">
<title>mark.bar&#45;&gt;attr_2</title>
<path fill="none" stroke="#aaaaaa" d="M62.52,-56.79C75.73,-59.64 92.39,-63.23 109.09,-66.83"/>
<polygon fill="#aaaaaa" stroke="#aaaaaa" points="108.44,-69.2 115.8,-68.28 109.47,-64.41 108.44,-69.2"/>
</g>
<!-- rel_2 -->
<g id="node13" class="node">
<title>rel_2</title>
<path fill="#f5b8b8" stroke="#d46a6a" stroke-width="1.2" d="M246,-36C246,-36 124.25,-36 124.25,-36 118.25,-36 112.25,-30 112.25,-24 112.25,-24 112.25,-12 112.25,-12 112.25,-6 118.25,0 124.25,0 124.25,0 246,0 246,0 252,0 258,-6 258,-12 258,-12 258,-24 258,-24 258,-30 252,-36 246,-36"/>
<text xml:space="preserve" text-anchor="middle" x="185.12" y="-14.5" font-family="Arial" font-size="10.00" fill="#8b0000">varies in comparability across</text>
</g>
<!-- mark.bar&#45;&gt;rel_2 -->
<g id="edge10" class="edge">
<title>mark.bar&#45;&gt;rel_2</title>
<path fill="none" stroke="#d46a6a" stroke-width="1.5" d="M62.52,-45.02C73.86,-42.5 87.73,-39.42 101.99,-36.25"/>
<polygon fill="#d46a6a" stroke="#d46a6a" stroke-width="1.5" points="102.48,-39.01 109.69,-34.54 101.27,-33.54 102.48,-39.01"/>
</g>
<!-- unknown.right_section -->
<g id="node2" class="node">
<title>unknown.right_section</title>
<path fill="#b8e6b8" stroke="#2c3e50" stroke-width="1.8" d="M57.25,-263C57.25,-263 12,-263 12,-263 6,-263 0,-257 0,-251 0,-251 0,-239 0,-239 0,-233 6,-227 12,-227 12,-227 57.25,-227 57.25,-227 63.25,-227 69.25,-233 69.25,-239 69.25,-239 69.25,-251 69.25,-251 69.25,-257 63.25,-263 57.25,-263"/>
<text xml:space="preserve" text-anchor="middle" x="34.62" y="-241.5" font-family="Arial" font-size="10.00" fill="#1a1a1a">right section</text>
</g>
<!-- attr_0 -->
<g id="node7" class="node">
<title>attr_0</title>
<path fill="#c7b8e6" stroke="#7f8c8d" stroke-width="1.2" d="M228,-361C228,-361 142.25,-361 142.25,-361 136.25,-361 130.25,-355 130.25,-349 130.25,-349 130.25,-337 130.25,-337 130.25,-331 136.25,-325 142.25,-325 142.25,-325 228,-325 228,-325 234,-325 240,-331 240,-337 240,-337 240,-349 240,-349 240,-355 234,-361 228,-361"/>
<text xml:space="preserve" text-anchor="middle" x="185.12" y="-339.5" font-family="Arial" font-size="10.00" fill="#1a1a1a">(+) harder to compare</text>
</g>
<!-- unknown.right_section&#45;&gt;attr_0 -->
<g id="edge2" class="edge">
<title>unknown.right_section&#45;&gt;attr_0</title>
<path fill="none" stroke="#aaaaaa" d="M54.22,-263.78C69.02,-278.01 90.75,-297.37 112.25,-311 117.68,-314.45 123.55,-317.71 129.51,-320.73"/>
<polygon fill="#aaaaaa" stroke="#aaaaaa" points="128.36,-322.9 135.72,-323.77 130.51,-318.5 128.36,-322.9"/>
</g>
<!-- attr_1 -->
<g id="node8" class="node">
<title>attr_1</title>
<path fill="#c7b8e6" stroke="#7f8c8d" stroke-width="1.2" d="M230.62,-296C230.62,-296 139.62,-296 139.62,-296 133.62,-296 127.62,-290 127.62,-284 127.62,-284 127.62,-272 127.62,-272 127.62,-266 133.62,-260 139.62,-260 139.62,-260 230.62,-260 230.62,-260 236.62,-260 242.62,-266 242.62,-272 242.62,-272 242.62,-284 242.62,-284 242.62,-290 236.62,-296 230.62,-296"/>
<text xml:space="preserve" text-anchor="middle" x="185.12" y="-274.5" font-family="Arial" font-size="10.00" fill="#1a1a1a">(+) less clear encoding</text>
</g>
<!-- unknown.right_section&#45;&gt;attr_1 -->
<g id="edge3" class="edge">
<title>unknown.right_section&#45;&gt;attr_1</title>
<path fill="none" stroke="#aaaaaa" d="M70.07,-252.65C84.65,-255.89 102.13,-259.78 118.98,-263.52"/>
<polygon fill="#aaaaaa" stroke="#aaaaaa" points="118.35,-265.89 125.71,-265.02 119.41,-261.11 118.35,-265.89"/>
</g>
<!-- rel_0 -->
<g id="node11" class="node">
<title>rel_0</title>
<path fill="#f5b8b8" stroke="#d46a6a" stroke-width="1.2" d="M237.75,-231C237.75,-231 132.5,-231 132.5,-231 126.5,-231 120.5,-225 120.5,-219 120.5,-219 120.5,-207 120.5,-207 120.5,-201 126.5,-195 132.5,-195 132.5,-195 237.75,-195 237.75,-195 243.75,-195 249.75,-201 249.75,-207 249.75,-207 249.75,-219 249.75,-219 249.75,-225 243.75,-231 237.75,-231"/>
<text xml:space="preserve" text-anchor="middle" x="185.12" y="-209.5" font-family="Arial" font-size="10.00" fill="#8b0000">increases difficulty versus</text>
</g>
<!-- unknown.right_section&#45;&gt;rel_0 -->
<g id="edge6" class="edge">
<title>unknown.right_section&#45;&gt;rel_0</title>
<path fill="none" stroke="#d46a6a" stroke-width="1.5" d="M70.07,-237.58C82.18,-234.97 96.3,-231.93 110.4,-228.89"/>
<polygon fill="#d46a6a" stroke="#d46a6a" stroke-width="1.5" points="110.67,-231.69 117.9,-227.27 109.49,-226.22 110.67,-231.69"/>
</g>
<!-- rel_1 -->
<g id="node12" class="node">
<title>rel_1</title>
<path fill="#f5b8b8" stroke="#d46a6a" stroke-width="1.2" d="M200.12,-166C200.12,-166 170.12,-166 170.12,-166 164.12,-166 158.12,-160 158.12,-154 158.12,-154 158.12,-142 158.12,-142 158.12,-136 164.12,-130 170.12,-130 170.12,-130 200.12,-130 200.12,-130 206.12,-130 212.12,-136 212.12,-142 212.12,-142 212.12,-154 212.12,-154 212.12,-160 206.12,-166 200.12,-166"/>
<text xml:space="preserve" text-anchor="middle" x="185.12" y="-144.5" font-family="Arial" font-size="10.00" fill="#8b0000">hinders</text>
</g>
<!-- unknown.right_section&#45;&gt;rel_1 -->
<g id="edge8" class="edge">
<title>unknown.right_section&#45;&gt;rel_1</title>
<path fill="none" stroke="#d46a6a" stroke-width="1.5" d="M54.98,-226.33C69.84,-212.65 91.29,-194.23 112.25,-181 123.52,-173.89 136.57,-167.42 148.44,-162.14"/>
<polygon fill="#d46a6a" stroke="#d46a6a" stroke-width="1.5" points="149.33,-164.81 155.56,-159.07 147.11,-159.67 149.33,-164.81"/>
</g>
<!-- unknown.left_section -->
<g id="node3" class="node">
<title>unknown.left_section</title>
<path fill="#b8e6b8" stroke="#2c3e50" stroke-width="1.8" d="M365,-231C365,-231 325,-231 325,-231 319,-231 313,-225 313,-219 313,-219 313,-207 313,-207 313,-201 319,-195 325,-195 325,-195 365,-195 365,-195 371,-195 377,-201 377,-207 377,-207 377,-219 377,-219 377,-225 371,-231 365,-231"/>
<text xml:space="preserve" text-anchor="middle" x="345" y="-209.5" font-family="Arial" font-size="10.00" fill="#1a1a1a">left section</text>
</g>
<!-- attr_4 -->
<g id="node9" class="node">
<title>attr_4</title>
<path fill="#c7b8e6" stroke="#7f8c8d" stroke-width="1.2" d="M565.38,-231C565.38,-231 457.12,-231 457.12,-231 451.12,-231 445.12,-225 445.12,-219 445.12,-219 445.12,-207 445.12,-207 445.12,-201 451.12,-195 457.12,-195 457.12,-195 565.38,-195 565.38,-195 571.38,-195 577.38,-201 577.38,-207 577.38,-207 577.38,-219 577.38,-219 577.38,-225 571.38,-231 565.38,-231"/>
<text xml:space="preserve" text-anchor="middle" x="511.25" y="-209.5" font-family="Arial" font-size="10.00" fill="#1a1a1a">(−) relatively easier to read</text>
</g>
<!-- unknown.left_section&#45;&gt;attr_4 -->
<g id="edge4" class="edge">
<title>unknown.left_section&#45;&gt;attr_4</title>
<path fill="none" stroke="#aaaaaa" d="M377.67,-213C394.38,-213 415.65,-213 436.23,-213"/>
<polygon fill="#aaaaaa" stroke="#aaaaaa" points="436.17,-215.45 443.17,-213 436.17,-210.55 436.17,-215.45"/>
</g>
<!-- text.axis_label -->
<g id="node4" class="node">
<title>text.axis_label</title>
<path fill="#b8e6b8" stroke="#2c3e50" stroke-width="1.8" d="M361.62,-36C361.62,-36 328.38,-36 328.38,-36 322.38,-36 316.38,-30 316.38,-24 316.38,-24 316.38,-12 316.38,-12 316.38,-6 322.38,0 328.38,0 328.38,0 361.62,0 361.62,0 367.62,0 373.62,-6 373.62,-12 373.62,-12 373.62,-24 373.62,-24 373.62,-30 367.62,-36 361.62,-36"/>
<text xml:space="preserve" text-anchor="middle" x="345" y="-14.5" font-family="Arial" font-size="10.00" fill="#1a1a1a">axis label</text>
</g>
<!-- unknown.data_comparison -->
<g id="node5" class="node">
<title>unknown.data_comparison</title>
<path fill="#b8e6b8" stroke="#2c3e50" stroke-width="1.8" d="M377,-166C377,-166 313,-166 313,-166 307,-166 301,-160 301,-154 301,-154 301,-142 301,-142 301,-136 307,-130 313,-130 313,-130 377,-130 377,-130 383,-130 389,-136 389,-142 389,-142 389,-154 389,-154 389,-160 383,-166 377,-166"/>
<text xml:space="preserve" text-anchor="middle" x="345" y="-144.5" font-family="Arial" font-size="10.00" fill="#1a1a1a">data comparison</text>
</g>
<!-- attr_3 -->
<g id="node10" class="node">
<title>attr_3</title>
<path fill="#c7b8e6" stroke="#7f8c8d" stroke-width="1.2" d="M578.5,-166C578.5,-166 444,-166 444,-166 438,-166 432,-160 432,-154 432,-154 432,-142 432,-142 432,-136 438,-130 444,-130 444,-130 578.5,-130 578.5,-130 584.5,-130 590.5,-136 590.5,-142 590.5,-142 590.5,-154 590.5,-154 590.5,-160 584.5,-166 578.5,-166"/>
<text xml:space="preserve" text-anchor="middle" x="511.25" y="-144.5" font-family="Arial" font-size="10.00" fill="#1a1a1a">(+) difficult cross section compar</text>
</g>
<!-- unknown.data_comparison&#45;&gt;attr_3 -->
<g id="edge5" class="edge">
<title>unknown.data_comparison&#45;&gt;attr_3</title>
<path fill="none" stroke="#aaaaaa" d="M389.58,-148C399.99,-148 411.45,-148 423.06,-148"/>
<polygon fill="#aaaaaa" stroke="#aaaaaa" points="423,-150.45 430,-148 423,-145.55 423,-150.45"/>
</g>
<!-- rel_0&#45;&gt;unknown.left_section -->
<g id="edge7" class="edge">
<title>rel_0&#45;&gt;unknown.left_section</title>
<path fill="none" stroke="#d46a6a" stroke-width="1.5" d="M250.34,-213C267.85,-213 286.35,-213 302.25,-213"/>
<polygon fill="#d46a6a" stroke="#d46a6a" stroke-width="1.5" points="302.02,-215.8 310.02,-213 302.02,-210.2 302.02,-215.8"/>
</g>
<!-- rel_1&#45;&gt;unknown.data_comparison -->
<g id="edge9" class="edge">
<title>rel_1&#45;&gt;unknown.data_comparison</title>
<path fill="none" stroke="#d46a6a" stroke-width="1.5" d="M212.55,-148C233.63,-148 263.85,-148 290,-148"/>
<polygon fill="#d46a6a" stroke="#d46a6a" stroke-width="1.5" points="289.9,-150.8 297.9,-148 289.9,-145.2 289.9,-150.8"/>
</g>
<!-- rel_2&#45;&gt;text.axis_label -->
<g id="edge11" class="edge">
<title>rel_2&#45;&gt;text.axis_label</title>
<path fill="none" stroke="#d46a6a" stroke-width="1.5" d="M258.59,-18C274.9,-18 291.58,-18 305.82,-18"/>
<polygon fill="#d46a6a" stroke="#d46a6a" stroke-width="1.5" points="305.45,-20.8 313.45,-18 305.44,-15.2 305.45,-20.8"/>
</g>
</g>
</svg>
