<?xml version="1.0" encoding="UTF-8" standalone="no"?>
<!DOCTYPE svg PUBLIC "-//W3C//DTD SVG 1.1//EN"
 "http://www.w3.org/Graphics/SVG/1.1/DTD/svg11.dtd">
<!-- Generated by graphviz version 14.1.5 (20260411.2331)
 -->
<!-- Title: economist_daily_chart_393.png Pages: 1 -->
<svg width="1392pt" height="310pt"
 viewBox="0.00 0.00 1392.00 310.00" xmlns="http://www.w3.org/2000/svg" xmlns:xlink="http://www.w3.org/1999/xlink">
<g id="graph0" class="graph" transform="scale(1 1) rotate(0) translate(4 306.25)">
<title>economist_daily_chart_393.png</title>
<polygon fill="white" stroke="none" points="-4,4 -4,-306.25 1387.75,-306.25 1387.75,4 -4,4"/>
<text xml:space="preserve" text-anchor="start" x="589.12" y="-281.95" font-family="Arial" font-weight="bold" font-size="14.00">economist_daily_chart_393.png</text>
<text xml:space="preserve" text-anchor="start" x="647.25" y="-262" font-family="Arial" font-size="11.00">Point &#160;| &#160;VC = 0.42</text>
<path fill="#b8e6b8" stroke="none" d="M482.5,-237C482.5,-237 490.5,-237 490.5,-237 493.5,-237 496.5,-240 496.5,-243 496.5,-243 496.5,-249 496.5,-249 496.5,-252 493.5,-255 490.5,-255 490.5,-255 482.5,-255 482.5,-255 479.5,-255 476.5,-252 476.5,-249 476.5,-249 476.5,-243 476.5,-243 476.5,-240 479.5,-237 482.5,-237"/>
<path fill="none" stroke="black" d="M482.5,-237C482.5,-237 490.5,-237 490.5,-237 493.5,-237 496.5,-240 496.5,-243 496.5,-243 496.5,-249 496.5,-249 496.5,-252 493.5,-255 490.5,-255 490.5,-255 482.5,-255 482.5,-255 479.5,-255 476.5,-252 476.5,-249 476.5,-249 476.5,-243 476.5,-243 476.5,-240 479.5,-237 482.5,-237"/>
<text xml:space="preserve" text-anchor="start" x="485" y="-242.25" font-family="Arial" font-size="10.00"> </text>
<text xml:space="preserve" text-anchor="start" x="500.5" y="-242.25" font-family="Arial" font-size="10.00">Object</text>
<path fill="#c7b8e6" stroke="none" d="M539,-237C539,-237 547,-237 547,-237 550,-237 553,-240 553,-243 553,-243 553,-249 553,-249 553,-252 550,-255 547,-255 547,-255 539,-255 539,-255 536,-255 533,-252 533,-249 533,-249 533,-243 533,-243 533,-240 536,-237 539,-237"/>
<path fill="none" stroke="black" d="M539,-237C539,-237 547,-237 547,-237 550,-237 553,-240 553,-243 553,-243 553,-249 553,-249 553,-252 550,-255 547,-255 547,-255 539,-255 539,-255 536,-255 533,-252 533,-249 533,-249 533,-243 533,-243 533,-240 536,-237 539,-237"/>
<text xml:space="preserve" text-anchor="start" x="541.5" y="-242.25" font-family="Arial" font-size="10.00"> </text>
<text xml:space="preserve" text-anchor="start" x="557" y="-242.25" font-family="Arial" font-size="10.00">Attribute</text>
<path fill="#f5b8b8" stroke="none" d="M603.75,-237C603.75,-237 611.75,-237 611.75,-237 614.75,-237 617.75,-240 617.75,-243 617.75,-243 617.75,-249 617.75,-249 617.75,-252 614.75,-255 611.75,-255 611.75,-255 603.75,-255 603.75,-255 600.75,-255 597.75,-252 597.75,-249 597.75,-249 597.75,-243 597.75,-243 597.75,-240 600.75,-237 603.75,-237"/>
<path fill="none" stroke="black" d="M603.75,-237C603.75,-237 611.75,-237 611.75,-237 614.75,-237 617.75,-240 617.75,-243 617.75,-243 617.75,-249 617.75,-249 617.75,-252 614.75,-255 611.75,-255 611.75,-255 603.75,-255 603.75,-255 600.75,-255 597.75,-252 597.75,-249 597.75,-249 597.75,-243 597.75,-243 597.75,-240 600.75,-237 603.75,-237"/>
<text xml:space="preserve" text-anchor="start" x="606.25" y="-242.25" font-family="Arial" font-size="10.00"> </text>
<text xml:space="preserve" text-anchor="start" x="621.75" y="-242.25" font-family="Arial" font-size="10.00">Relationship</text>
<text xml:space="preserve" text-anchor="start" x="681.75" y="-243.5" font-family="Arial" font-weight="bold" font-size="10.00">(+)</text>
<text xml:space="preserve" text-anchor="start" x="693.75" y="-243.5" font-family="Arial" font-size="10.00"> increases complexity</text>
<text xml:space="preserve" text-anchor="start" x="795" y="-243.5" font-family="Arial" font-weight="bold" font-size="10.00">(−)</text>
<text xml:space="preserve" text-anchor="start" x="807" y="-243.5" font-family="Arial" font-size="10.00"> decreases complexity</text>
<!-- unknown.lines -->
<g id="node1" class="node">
<title>unknown.lines</title>
<path fill="#b8e6b8" stroke="#2c3e50" stroke-width="1.8" d="M911.25,-198C911.25,-198 881.25,-198 881.25,-198 875.25,-198 869.25,-192 869.25,-186 869.25,-186 869.25,-174 869.25,-174 869.25,-168 875.25,-162 881.25,-162 881.25,-162 911.25,-162 911.25,-162 917.25,-162 923.25,-168 923.25,-174 923.25,-174 923.25,-186 923.25,-186 923.25,-192 917.25,-198 911.25,-198"/>
<text xml:space="preserve" text-anchor="middle" x="896.25" y="-176.5" font-family="Arial" font-size="10.00" fill="#1a1a1a">lines</text>
</g>
<!-- attr_0 -->
<g id="node7" class="node">
<title>attr_0</title>
<path fill="#c7b8e6" stroke="#7f8c8d" stroke-width="1.2" d="M1089.12,-231C1089.12,-231 986.12,-231 986.12,-231 980.12,-231 974.12,-225 974.12,-219 974.12,-219 974.12,-207 974.12,-207 974.12,-201 980.12,-195 986.12,-195 986.12,-195 1089.12,-195 1089.12,-195 1095.12,-195 1101.12,-201 1101.12,-207 1101.12,-207 1101.12,-219 1101.12,-219 1101.12,-225 1095.12,-231 1089.12,-231"/>
<text xml:space="preserve" text-anchor="middle" x="1037.62" y="-209.5" font-family="Arial" font-size="10.00" fill="#1a1a1a">(−) straight easy to follow</text>
</g>
<!-- unknown.lines&#45;&gt;attr_0 -->
<g id="edge1" class="edge">
<title>unknown.lines&#45;&gt;attr_0</title>
<path fill="none" stroke="#aaaaaa" d="M924.12,-186.36C936.07,-189.19 950.76,-192.67 965.53,-196.17"/>
<polygon fill="#aaaaaa" stroke="#aaaaaa" points="964.88,-198.53 972.26,-197.76 966.01,-193.76 964.88,-198.53"/>
</g>
<!-- rel_2 -->
<g id="node16" class="node">
<title>rel_2</title>
<path fill="#f5b8b8" stroke="#d46a6a" stroke-width="1.2" d="M1090.25,-166C1090.25,-166 985,-166 985,-166 979,-166 973,-160 973,-154 973,-154 973,-142 973,-142 973,-136 979,-130 985,-130 985,-130 1090.25,-130 1090.25,-130 1096.25,-130 1102.25,-136 1102.25,-142 1102.25,-142 1102.25,-154 1102.25,-154 1102.25,-160 1096.25,-166 1090.25,-166"/>
<text xml:space="preserve" text-anchor="middle" x="1037.62" y="-144.5" font-family="Arial" font-size="10.00" fill="#8b0000">reduces visual complexity</text>
</g>
<!-- unknown.lines&#45;&gt;rel_2 -->
<g id="edge12" class="edge">
<title>unknown.lines&#45;&gt;rel_2</title>
<path fill="none" stroke="#d46a6a" stroke-width="1.5" d="M924.12,-173.83C935.37,-171.25 949.05,-168.11 962.94,-164.92"/>
<polygon fill="#d46a6a" stroke="#d46a6a" stroke-width="1.5" points="963.18,-167.74 970.35,-163.22 961.92,-162.28 963.18,-167.74"/>
</g>
<!-- furniture.legend -->
<g id="node2" class="node">
<title>furniture.legend</title>
<path fill="#b8e6b8" stroke="#2c3e50" stroke-width="1.8" d="M333.5,-166C333.5,-166 296.5,-166 296.5,-166 290.5,-166 284.5,-160 284.5,-154 284.5,-154 284.5,-142 284.5,-142 284.5,-136 290.5,-130 296.5,-130 296.5,-130 333.5,-130 333.5,-130 339.5,-130 345.5,-136 345.5,-142 345.5,-142 345.5,-154 345.5,-154 345.5,-160 339.5,-166 333.5,-166"/>
<text xml:space="preserve" text-anchor="middle" x="315" y="-144.5" font-family="Arial" font-size="10.00" fill="#1a1a1a">color code</text>
</g>
<!-- attr_1 -->
<g id="node8" class="node">
<title>attr_1</title>
<path fill="#c7b8e6" stroke="#7f8c8d" stroke-width="1.2" d="M502.75,-231C502.75,-231 400.5,-231 400.5,-231 394.5,-231 388.5,-225 388.5,-219 388.5,-219 388.5,-207 388.5,-207 388.5,-201 394.5,-195 400.5,-195 400.5,-195 502.75,-195 502.75,-195 508.75,-195 514.75,-201 514.75,-207 514.75,-207 514.75,-219 514.75,-219 514.75,-225 508.75,-231 502.75,-231"/>
<text xml:space="preserve" text-anchor="middle" x="451.62" y="-209.5" font-family="Arial" font-size="10.00" fill="#1a1a1a">(+) unclear color meaning</text>
</g>
<!-- furniture.legend&#45;&gt;attr_1 -->
<g id="edge2" class="edge">
<title>furniture.legend&#45;&gt;attr_1</title>
<path fill="none" stroke="#aaaaaa" d="M346.21,-162.59C363.46,-170.91 385.43,-181.52 404.77,-190.86"/>
<polygon fill="#aaaaaa" stroke="#aaaaaa" points="403.58,-193 410.95,-193.84 405.71,-188.59 403.58,-193"/>
</g>
<!-- attr_6 -->
<g id="node9" class="node">
<title>attr_6</title>
<path fill="#c7b8e6" stroke="#7f8c8d" stroke-width="1.2" d="M499.38,-166C499.38,-166 403.88,-166 403.88,-166 397.88,-166 391.88,-160 391.88,-154 391.88,-154 391.88,-142 391.88,-142 391.88,-136 397.88,-130 403.88,-130 403.88,-130 499.38,-130 499.38,-130 505.38,-130 511.38,-136 511.38,-142 511.38,-142 511.38,-154 511.38,-154 511.38,-160 505.38,-166 499.38,-166"/>
<text xml:space="preserve" text-anchor="middle" x="451.62" y="-144.5" font-family="Arial" font-size="10.00" fill="#1a1a1a">(+) higher color contrast</text>
</g>
<!-- furniture.legend&#45;&gt;attr_6 -->
<g id="edge3" class="edge">
<title>furniture.legend&#45;&gt;attr_6</title>
<path fill="none" stroke="#aaaaaa" d="M346.21,-148C357.15,-148 369.99,-148 382.85,-148"/>
<polygon fill="#aaaaaa" stroke="#aaaaaa" points="382.77,-150.45 389.77,-148 382.77,-145.55 382.77,-150.45"/>
</g>
<!-- rel_0 -->
<g id="node14" class="node">
<title>rel_0</title>
<path fill="#f5b8b8" stroke="#d46a6a" stroke-width="1.2" d="M467.5,-101C467.5,-101 435.75,-101 435.75,-101 429.75,-101 423.75,-95 423.75,-89 423.75,-89 423.75,-77 423.75,-77 423.75,-71 429.75,-65 435.75,-65 435.75,-65 467.5,-65 467.5,-65 473.5,-65 479.5,-71 479.5,-77 479.5,-77 479.5,-89 479.5,-89 479.5,-95 473.5,-101 467.5,-101"/>
<text xml:space="preserve" text-anchor="middle" x="451.62" y="-79.5" font-family="Arial" font-size="10.00" fill="#8b0000">obscures</text>
</g>
<!-- furniture.legend&#45;&gt;rel_0 -->
<g id="edge8" class="edge">
<title>furniture.legend&#45;&gt;rel_0</title>
<path fill="none" stroke="#d46a6a" stroke-width="1.5" d="M346.21,-133.41C366.34,-123.7 392.89,-110.87 414.19,-100.59"/>
<polygon fill="#d46a6a" stroke="#d46a6a" stroke-width="1.5" points="415.23,-103.2 421.21,-97.2 412.79,-98.16 415.23,-103.2"/>
</g>
<!-- unknown.data_points -->
<g id="node3" class="node">
<title>unknown.data_points</title>
<path fill="#b8e6b8" stroke="#2c3e50" stroke-width="1.8" d="M1204,-101C1204,-101 1164,-101 1164,-101 1158,-101 1152,-95 1152,-89 1152,-89 1152,-77 1152,-77 1152,-71 1158,-65 1164,-65 1164,-65 1204,-65 1204,-65 1210,-65 1216,-71 1216,-77 1216,-77 1216,-89 1216,-89 1216,-95 1210,-101 1204,-101"/>
<text xml:space="preserve" text-anchor="middle" x="1184" y="-79.5" font-family="Arial" font-size="10.00" fill="#1a1a1a">data points</text>
</g>
<!-- attr_2 -->
<g id="node10" class="node">
<title>attr_2</title>
<path fill="#c7b8e6" stroke="#7f8c8d" stroke-width="1.2" d="M1371.75,-101C1371.75,-101 1271,-101 1271,-101 1265,-101 1259,-95 1259,-89 1259,-89 1259,-77 1259,-77 1259,-71 1265,-65 1271,-65 1271,-65 1371.75,-65 1371.75,-65 1377.75,-65 1383.75,-71 1383.75,-77 1383.75,-77 1383.75,-89 1383.75,-89 1383.75,-95 1377.75,-101 1371.75,-101"/>
<text xml:space="preserve" text-anchor="middle" x="1321.38" y="-79.5" font-family="Arial" font-size="10.00" fill="#1a1a1a">(−) few elements present</text>
</g>
<!-- unknown.data_points&#45;&gt;attr_2 -->
<g id="edge4" class="edge">
<title>unknown.data_points&#45;&gt;attr_2</title>
<path fill="none" stroke="#aaaaaa" d="M1216.74,-83C1226.8,-83 1238.36,-83 1250.02,-83"/>
<polygon fill="#aaaaaa" stroke="#aaaaaa" points="1249.99,-85.45 1256.99,-83 1249.99,-80.55 1249.99,-85.45"/>
</g>
<!-- text.axis_label -->
<g id="node4" class="node">
<title>text.axis_label</title>
<path fill="#b8e6b8" stroke="#2c3e50" stroke-width="1.8" d="M45.25,-198C45.25,-198 12,-198 12,-198 6,-198 0,-192 0,-186 0,-186 0,-174 0,-174 0,-168 6,-162 12,-162 12,-162 45.25,-162 45.25,-162 51.25,-162 57.25,-168 57.25,-174 57.25,-174 57.25,-186 57.25,-186 57.25,-192 51.25,-198 45.25,-198"/>
<text xml:space="preserve" text-anchor="middle" x="28.62" y="-176.5" font-family="Arial" font-size="10.00" fill="#1a1a1a">axis label</text>
</g>
<!-- attr_3 -->
<g id="node11" class="node">
<title>attr_3</title>
<path fill="#c7b8e6" stroke="#7f8c8d" stroke-width="1.2" d="M229.5,-231C229.5,-231 112.25,-231 112.25,-231 106.25,-231 100.25,-225 100.25,-219 100.25,-219 100.25,-207 100.25,-207 100.25,-201 106.25,-195 112.25,-195 112.25,-195 229.5,-195 229.5,-195 235.5,-195 241.5,-201 241.5,-207 241.5,-207 241.5,-219 241.5,-219 241.5,-225 235.5,-231 229.5,-231"/>
<text xml:space="preserve" text-anchor="middle" x="170.88" y="-209.5" font-family="Arial" font-size="10.00" fill="#1a1a1a">(+) insufficient context labels</text>
</g>
<!-- text.axis_label&#45;&gt;attr_3 -->
<g id="edge5" class="edge">
<title>text.axis_label&#45;&gt;attr_3</title>
<path fill="none" stroke="#aaaaaa" d="M58.01,-186.68C67.99,-189.03 79.74,-191.79 91.81,-194.63"/>
<polygon fill="#aaaaaa" stroke="#aaaaaa" points="90.93,-196.94 98.3,-196.16 92.05,-192.17 90.93,-196.94"/>
</g>
<!-- rel_3 -->
<g id="node17" class="node">
<title>rel_3</title>
<path fill="#f5b8b8" stroke="#d46a6a" stroke-width="1.2" d="M224.25,-166C224.25,-166 117.5,-166 117.5,-166 111.5,-166 105.5,-160 105.5,-154 105.5,-154 105.5,-142 105.5,-142 105.5,-136 111.5,-130 117.5,-130 117.5,-130 224.25,-130 224.25,-130 230.25,-130 236.25,-136 236.25,-142 236.25,-142 236.25,-154 236.25,-154 236.25,-160 230.25,-166 224.25,-166"/>
<text xml:space="preserve" text-anchor="middle" x="170.88" y="-144.5" font-family="Arial" font-size="10.00" fill="#8b0000">lacks sufficient context for</text>
</g>
<!-- text.axis_label&#45;&gt;rel_3 -->
<g id="edge14" class="edge">
<title>text.axis_label&#45;&gt;rel_3</title>
<path fill="none" stroke="#d46a6a" stroke-width="1.5" d="M58.01,-173.52C68.96,-171.03 82.04,-168.04 95.34,-165.01"/>
<polygon fill="#d46a6a" stroke="#d46a6a" stroke-width="1.5" points="95.64,-167.81 102.82,-163.3 94.39,-162.35 95.64,-167.81"/>
</g>
<!-- text.annotation -->
<g id="node5" class="node">
<title>text.annotation</title>
<path fill="#b8e6b8" stroke="#2c3e50" stroke-width="1.8" d="M606.75,-101C606.75,-101 569.75,-101 569.75,-101 563.75,-101 557.75,-95 557.75,-89 557.75,-89 557.75,-77 557.75,-77 557.75,-71 563.75,-65 569.75,-65 569.75,-65 606.75,-65 606.75,-65 612.75,-65 618.75,-71 618.75,-77 618.75,-77 618.75,-89 618.75,-89 618.75,-95 612.75,-101 606.75,-101"/>
<text xml:space="preserve" text-anchor="middle" x="588.25" y="-79.5" font-family="Arial" font-size="10.00" fill="#1a1a1a">annotation</text>
</g>
<!-- attr_4 -->
<g id="node12" class="node">
<title>attr_4</title>
<path fill="#c7b8e6" stroke="#7f8c8d" stroke-width="1.2" d="M805.25,-134C805.25,-134 682.75,-134 682.75,-134 676.75,-134 670.75,-128 670.75,-122 670.75,-122 670.75,-110 670.75,-110 670.75,-104 676.75,-98 682.75,-98 682.75,-98 805.25,-98 805.25,-98 811.25,-98 817.25,-104 817.25,-110 817.25,-110 817.25,-122 817.25,-122 817.25,-128 811.25,-134 805.25,-134"/>
<text xml:space="preserve" text-anchor="middle" x="744" y="-112.5" font-family="Arial" font-size="10.00" fill="#1a1a1a">(+) factual information present</text>
</g>
<!-- text.annotation&#45;&gt;attr_4 -->
<g id="edge6" class="edge">
<title>text.annotation&#45;&gt;attr_4</title>
<path fill="none" stroke="#aaaaaa" d="M619.63,-89.52C632.07,-92.19 647.12,-95.42 662.37,-98.69"/>
<polygon fill="#aaaaaa" stroke="#aaaaaa" points="661.51,-101.02 668.87,-100.09 662.54,-96.22 661.51,-101.02"/>
</g>
<!-- rel_4 -->
<g id="node18" class="node">
<title>rel_4</title>
<path fill="#f5b8b8" stroke="#d46a6a" stroke-width="1.2" d="M814.25,-69C814.25,-69 673.75,-69 673.75,-69 667.75,-69 661.75,-63 661.75,-57 661.75,-57 661.75,-45 661.75,-45 661.75,-39 667.75,-33 673.75,-33 673.75,-33 814.25,-33 814.25,-33 820.25,-33 826.25,-39 826.25,-45 826.25,-45 826.25,-57 826.25,-57 826.25,-63 820.25,-69 814.25,-69"/>
<text xml:space="preserve" text-anchor="middle" x="744" y="-47.5" font-family="Arial" font-size="10.00" fill="#8b0000">increases perceived complexity of</text>
</g>
<!-- text.annotation&#45;&gt;rel_4 -->
<g id="edge16" class="edge">
<title>text.annotation&#45;&gt;rel_4</title>
<path fill="none" stroke="#d46a6a" stroke-width="1.5" d="M619.63,-76.68C629.13,-74.7 640.15,-72.41 651.62,-70.02"/>
<polygon fill="#d46a6a" stroke="#d46a6a" stroke-width="1.5" points="651.85,-72.83 659.11,-68.46 650.71,-67.35 651.85,-72.83"/>
</g>
<!-- unknown.variable -->
<g id="node6" class="node">
<title>unknown.variable</title>
<path fill="#b8e6b8" stroke="#2c3e50" stroke-width="1.8" d="M911.25,-69C911.25,-69 881.25,-69 881.25,-69 875.25,-69 869.25,-63 869.25,-57 869.25,-57 869.25,-45 869.25,-45 869.25,-39 875.25,-33 881.25,-33 881.25,-33 911.25,-33 911.25,-33 917.25,-33 923.25,-39 923.25,-45 923.25,-45 923.25,-57 923.25,-57 923.25,-63 917.25,-69 911.25,-69"/>
<text xml:space="preserve" text-anchor="middle" x="896.25" y="-47.5" font-family="Arial" font-size="10.00" fill="#1a1a1a">variable</text>
</g>
<!-- attr_5 -->
<g id="node13" class="node">
<title>attr_5</title>
<path fill="#c7b8e6" stroke="#7f8c8d" stroke-width="1.2" d="M1097,-101C1097,-101 978.25,-101 978.25,-101 972.25,-101 966.25,-95 966.25,-89 966.25,-89 966.25,-77 966.25,-77 966.25,-71 972.25,-65 978.25,-65 978.25,-65 1097,-65 1097,-65 1103,-65 1109,-71 1109,-77 1109,-77 1109,-89 1109,-89 1109,-95 1103,-101 1097,-101"/>
<text xml:space="preserve" text-anchor="middle" x="1037.62" y="-79.5" font-family="Arial" font-size="10.00" fill="#1a1a1a">(+) more variables processed</text>
</g>
<!-- unknown.variable&#45;&gt;attr_5 -->
<g id="edge7" class="edge">
<title>unknown.variable&#45;&gt;attr_5</title>
<path fill="none" stroke="#aaaaaa" d="M924.12,-57.17C933.99,-59.43 945.72,-62.13 957.82,-64.91"/>
<polygon fill="#aaaaaa" stroke="#aaaaaa" points="956.97,-67.22 964.34,-66.4 958.07,-62.45 956.97,-67.22"/>
</g>
<!-- rel_1 -->
<g id="node15" class="node">
<title>rel_1</title>
<path fill="#f5b8b8" stroke="#d46a6a" stroke-width="1.2" d="M1092.12,-36C1092.12,-36 983.12,-36 983.12,-36 977.12,-36 971.12,-30 971.12,-24 971.12,-24 971.12,-12 971.12,-12 971.12,-6 977.12,0 983.12,0 983.12,0 1092.12,0 1092.12,0 1098.12,0 1104.12,-6 1104.12,-12 1104.12,-12 1104.12,-24 1104.12,-24 1104.12,-30 1098.12,-36 1092.12,-36"/>
<text xml:space="preserve" text-anchor="middle" x="1037.62" y="-14.5" font-family="Arial" font-size="10.00" fill="#8b0000">increases processing effort</text>
</g>
<!-- unknown.variable&#45;&gt;rel_1 -->
<g id="edge10" class="edge">
<title>unknown.variable&#45;&gt;rel_1</title>
<path fill="none" stroke="#d46a6a" stroke-width="1.5" d="M924.12,-44.64C934.88,-42.09 947.86,-39.02 961.12,-35.88"/>
<polygon fill="#d46a6a" stroke="#d46a6a" stroke-width="1.5" points="961.45,-38.68 968.59,-34.11 960.16,-33.23 961.45,-38.68"/>
</g>
<!-- rel_0&#45;&gt;text.annotation -->
<g id="edge9" class="edge">
<title>rel_0&#45;&gt;text.annotation</title>
<path fill="none" stroke="#d46a6a" stroke-width="1.5" d="M479.87,-83C499.15,-83 525.32,-83 547,-83"/>
<polygon fill="#d46a6a" stroke="#d46a6a" stroke-width="1.5" points="546.97,-85.8 554.97,-83 546.97,-80.2 546.97,-85.8"/>
</g>
<!-- rel_1&#45;&gt;unknown.data_points -->
<g id="edge11" class="edge">
<title>rel_1&#45;&gt;unknown.data_points</title>
<path fill="none" stroke="#d46a6a" stroke-width="1.5" d="M1079.61,-36.45C1099.24,-45.29 1122.68,-55.84 1142.28,-64.67"/>
<polygon fill="#d46a6a" stroke="#d46a6a" stroke-width="1.5" points="1141.04,-67.18 1149.49,-67.91 1143.34,-62.07 1141.04,-67.18"/>
</g>
<!-- rel_2&#45;&gt;unknown.data_points -->
<g id="edge13" class="edge">
<title>rel_2&#45;&gt;unknown.data_points</title>
<path fill="none" stroke="#d46a6a" stroke-width="1.5" d="M1079.61,-129.55C1099.24,-120.71 1122.68,-110.16 1142.28,-101.33"/>
<polygon fill="#d46a6a" stroke="#d46a6a" stroke-width="1.5" points="1143.34,-103.93 1149.49,-98.09 1141.04,-98.82 1143.34,-103.93"/>
</g>
<!-- rel_3&#45;&gt;furniture.legend -->
<g id="edge15" class="edge">
<title>rel_3&#45;&gt;furniture.legend</title>
<path fill="none" stroke="#d46a6a" stroke-width="1.5" d="M236.7,-148C249.25,-148 262.07,-148 273.57,-148"/>
<polygon fill="#d46a6a" stroke="#d46a6a" stroke-width="1.5" points="273.44,-150.8 281.44,-148 273.44,-145.2 273.44,-150.8"/>
</g>
<!-- rel_4&#45;&gt;unknown.variable -->
<g id="edge17" class="edge">
<title>rel_4&#45;&gt;unknown.variable</title>
<path fill="none" stroke="#d46a6a" stroke-width="1.5" d="M826.72,-51C837.84,-51 848.77,-51 858.51,-51"/>
<polygon fill="#d46a6a" stroke="#d46a6a" stroke-width="1.5" points="858.31,-53.8 866.31,-51 858.31,-48.2 858.31,-53.8"/>
</g>
</g>
</svg>
