<?xml version="1.0" encoding="UTF-8" standalone="no"?>
<!DOCTYPE svg PUBLIC "-//W3C//DTD SVG 1.1//EN"
 "http://www.w3.org/Graphics/SVG/1.1/DTD/svg11.dtd">
<!-- Generated by graphviz version 14.1.5 (20260411.2331)
 -->
<!-- Title: economist_daily_chart_75.png Pages: 1 -->
<svg width="719pt" height="434pt"
 viewBox="0.00 0.00 719.00 434.00" xmlns="http://www.w3.org/2000/svg" xmlns:xlink="http://www.w3.org/1999/xlink">
<g id="graph0" class="graph" transform="scale(1 1) rotate(0) translate(4 430.25)">
<title>economist_daily_chart_75.png</title>
<polygon fill="white" stroke="none" points="-4,4 -4,-430.25 715,-430.25 715,4 -4,4"/>
<text xml:space="preserve" text-anchor="start" x="256.5" y="-405.95" font-family="Arial" font-weight="bold" font-size="14.00">economist_daily_chart_75.png</text>
<text xml:space="preserve" text-anchor="start" x="314.62" y="-386" font-family="Arial" font-size="11.00">Bar &#160;| &#160;VC = 0.28</text>
<path fill="#b8e6b8" stroke="none" d="M146.12,-361C146.12,-361 154.12,-361 154.12,-361 157.12,-361 160.12,-364 160.12,-367 160.12,-367 160.12,-373 160.12,-373 160.12,-376 157.12,-379 154.12,-379 154.12,-379 146.12,-379 146.12,-379 143.12,-379 140.12,-376 140.12,-373 140.12,-373 140.12,-367 140.12,-367 140.12,-364 143.12,-361 146.12,-361"/>
<path fill="none" stroke="black" d="M146.12,-361C146.12,-361 154.12,-361 154.12,-361 157.12,-361 160.12,-364 160.12,-367 160.12,-367 160.12,-373 160.12,-373 160.12,-376 157.12,-379 154.12,-379 154.12,-379 146.12,-379 146.12,-379 143.12,-379 140.12,-376 140.12,-373 140.12,-373 140.12,-367 140.12,-367 140.12,-364 143.12,-361 146.12,-361"/>
<text xml:space="preserve" text-anchor="start" x="148.62" y="-366.25" font-family="Arial" font-size="10.00"> </text>
<text xml:space="preserve" text-anchor="start" x="164.12" y="-366.25" font-family="Arial" font-size="10.00">Object</text>
<path fill="#c7b8e6" stroke="none" d="M202.62,-361C202.62,-361 210.62,-361 210.62,-361 213.62,-361 216.62,-364 216.62,-367 216.62,-367 216.62,-373 216.62,-373 216.62,-376 213.62,-379 210.62,-379 210.62,-379 202.62,-379 202.62,-379 199.62,-379 196.62,-376 196.62,-373 196.62,-373 196.62,-367 196.62,-367 196.62,-364 199.62,-361 202.62,-361"/>
<path fill="none" stroke="black" d="M202.62,-361C202.62,-361 210.62,-361 210.62,-361 213.62,-361 216.62,-364 216.62,-367 216.62,-367 216.62,-373 216.62,-373 216.62,-376 213.62,-379 210.62,-379 210.62,-379 202.62,-379 202.62,-379 199.62,-379 196.62,-376 196.62,-373 196.62,-373 196.62,-367 196.62,-367 196.62,-364 199.62,-361 202.62,-361"/>
<text xml:space="preserve" text-anchor="start" x="205.12" y="-366.25" font-family="Arial" font-size="10.00"> </text>
<text xml:space="preserve" text-anchor="start" x="220.62" y="-366.25" font-family="Arial" font-size="10.00">Attribute</text>
<path fill="#f5b8b8" stroke="none" d="M267.38,-361C267.38,-361 275.38,-361 275.38,-361 278.38,-361 281.38,-364 281.38,-367 281.38,-367 281.38,-373 281.38,-373 281.38,-376 278.38,-379 275.38,-379 275.38,-379 267.38,-379 267.38,-379 264.38,-379 261.38,-376 261.38,-373 261.38,-373 261.38,-367 261.38,-367 261.38,-364 264.38,-361 267.38,-361"/>
<path fill="none" stroke="black" d="M267.38,-361C267.38,-361 275.38,-361 275.38,-361 278.38,-361 281.38,-364 281.38,-367 281.38,-367 281.38,-373 281.38,-373 281.38,-376 278.38,-379 275.38,-379 275.38,-379 267.38,-379 267.38,-379 264.38,-379 261.38,-376 261.38,-373 261.38,-373 261.38,-367 261.38,-367 261.38,-364 264.38,-361 267.38,-361"/>
<text xml:space="preserve" text-anchor="start" x="269.88" y="-366.25" font-family="Arial" font-size="10.00"> </text>
<text xml:space="preserve" text-anchor="start" x="285.38" y="-366.25" font-family="Arial" font-size="10.00">Relationship</text>
<text xml:space="preserve" text-anchor="start" x="345.38" y="-367.5" font-family="Arial" font-weight="bold" font-size="10.00">(+)</text>
<text xml:space="preserve" text-anchor="start" x="357.38" y="-367.5" font-family="Arial" font-size="10.00"> increases complexity</text>
<text xml:space="preserve" text-anchor="start" x="458.62" y="-367.5" font-family="Arial" font-weight="bold" font-size="10.00">(−)</text>
<text xml:space="preserve" text-anchor="start" x="470.62" y="-367.5" font-family="Arial" font-size="10.00"> decreases complexity</text>
<!-- unknown.bars -->
<g id="node1" class="node">
<title>unknown.bars</title>
<path fill="#b8e6b8" stroke="#2c3e50" stroke-width="1.8" d="M42,-194C42,-194 12,-194 12,-194 6,-194 0,-188 0,-182 0,-182 0,-170 0,-170 0,-164 6,-158 12,-158 12,-158 42,-158 42,-158 48,-158 54,-164 54,-170 54,-170 54,-182 54,-182 54,-188 48,-194 42,-194"/>
<text xml:space="preserve" text-anchor="middle" x="27" y="-172.5" font-family="Arial" font-size="10.00" fill="#1a1a1a">bars</text>
</g>
<!-- attr_0 -->
<g id="node5" class="node">
<title>attr_0</title>
<path fill="#c7b8e6" stroke="#7f8c8d" stroke-width="1.2" d="M206.38,-355C206.38,-355 109.38,-355 109.38,-355 103.38,-355 97.38,-349 97.38,-343 97.38,-343 97.38,-331 97.38,-331 97.38,-325 103.38,-319 109.38,-319 109.38,-319 206.38,-319 206.38,-319 212.38,-319 218.38,-325 218.38,-331 218.38,-331 218.38,-343 218.38,-343 218.38,-349 212.38,-355 206.38,-355"/>
<text xml:space="preserve" text-anchor="middle" x="157.88" y="-333.5" font-family="Arial" font-size="10.00" fill="#1a1a1a">(+) horizontal orientation</text>
</g>
<!-- unknown.bars&#45;&gt;attr_0 -->
<g id="edge1" class="edge">
<title>unknown.bars&#45;&gt;attr_0</title>
<path fill="none" stroke="#aaaaaa" d="M34.08,-194.81C43.69,-222.03 64.67,-272.68 97,-305 100.18,-308.18 103.74,-311.12 107.49,-313.82"/>
<polygon fill="#aaaaaa" stroke="#aaaaaa" points="105.98,-315.76 113.17,-317.59 108.7,-311.68 105.98,-315.76"/>
</g>
<!-- attr_1 -->
<g id="node6" class="node">
<title>attr_1</title>
<path fill="#c7b8e6" stroke="#7f8c8d" stroke-width="1.2" d="M206.75,-290C206.75,-290 109,-290 109,-290 103,-290 97,-284 97,-278 97,-278 97,-266 97,-266 97,-260 103,-254 109,-254 109,-254 206.75,-254 206.75,-254 212.75,-254 218.75,-260 218.75,-266 218.75,-266 218.75,-278 218.75,-278 218.75,-284 212.75,-290 206.75,-290"/>
<text xml:space="preserve" text-anchor="middle" x="157.88" y="-268.5" font-family="Arial" font-size="10.00" fill="#1a1a1a">(+) multiple bars present</text>
</g>
<!-- unknown.bars&#45;&gt;attr_1 -->
<g id="edge2" class="edge">
<title>unknown.bars&#45;&gt;attr_1</title>
<path fill="none" stroke="#aaaaaa" d="M45.62,-194.76C58.94,-208.31 78.11,-226.53 97,-240 101.51,-243.22 106.39,-246.33 111.34,-249.28"/>
<polygon fill="#aaaaaa" stroke="#aaaaaa" points="110.02,-251.34 117.31,-252.7 112.46,-247.09 110.02,-251.34"/>
</g>
<!-- attr_4 -->
<g id="node7" class="node">
<title>attr_4</title>
<path fill="#c7b8e6" stroke="#7f8c8d" stroke-width="1.2" d="M204.88,-225C204.88,-225 110.88,-225 110.88,-225 104.88,-225 98.88,-219 98.88,-213 98.88,-213 98.88,-201 98.88,-201 98.88,-195 104.88,-189 110.88,-189 110.88,-189 204.88,-189 204.88,-189 210.88,-189 216.88,-195 216.88,-201 216.88,-201 216.88,-213 216.88,-213 216.88,-219 210.88,-225 204.88,-225"/>
<text xml:space="preserve" text-anchor="middle" x="157.88" y="-203.5" font-family="Arial" font-size="10.00" fill="#1a1a1a">(+) extends horizontally</text>
</g>
<!-- unknown.bars&#45;&gt;attr_4 -->
<g id="edge3" class="edge">
<title>unknown.bars&#45;&gt;attr_4</title>
<path fill="none" stroke="#aaaaaa" d="M54.7,-182.42C65.11,-184.93 77.53,-187.91 90.08,-190.93"/>
<polygon fill="#aaaaaa" stroke="#aaaaaa" points="89.47,-193.31 96.85,-192.56 90.62,-188.54 89.47,-193.31"/>
</g>
<!-- rel_0 -->
<g id="node10" class="node">
<title>rel_0</title>
<path fill="#f5b8b8" stroke="#d46a6a" stroke-width="1.2" d="M307.75,-166C307.75,-166 273.75,-166 273.75,-166 267.75,-166 261.75,-160 261.75,-154 261.75,-154 261.75,-142 261.75,-142 261.75,-136 267.75,-130 273.75,-130 273.75,-130 307.75,-130 307.75,-130 313.75,-130 319.75,-136 319.75,-142 319.75,-142 319.75,-154 319.75,-154 319.75,-160 313.75,-166 307.75,-166"/>
<text xml:space="preserve" text-anchor="middle" x="290.75" y="-144.5" font-family="Arial" font-size="10.00" fill="#8b0000">increases</text>
</g>
<!-- unknown.bars&#45;&gt;rel_0 -->
<g id="edge6" class="edge">
<title>unknown.bars&#45;&gt;rel_0</title>
<path fill="none" stroke="#d46a6a" stroke-width="1.5" d="M54.54,-173.16C100.96,-168.2 197.09,-157.91 250.97,-152.15"/>
<polygon fill="#d46a6a" stroke="#d46a6a" stroke-width="1.5" points="251.25,-154.93 258.9,-151.3 250.65,-149.37 251.25,-154.93"/>
</g>
<!-- rel_1 -->
<g id="node11" class="node">
<title>rel_1</title>
<path fill="#f5b8b8" stroke="#d46a6a" stroke-width="1.2" d="M203,-101C203,-101 112.75,-101 112.75,-101 106.75,-101 100.75,-95 100.75,-89 100.75,-89 100.75,-77 100.75,-77 100.75,-71 106.75,-65 112.75,-65 112.75,-65 203,-65 203,-65 209,-65 215,-71 215,-77 215,-77 215,-89 215,-89 215,-95 209,-101 203,-101"/>
<text xml:space="preserve" text-anchor="middle" x="157.88" y="-79.5" font-family="Arial" font-size="10.00" fill="#8b0000">complicates reading of</text>
</g>
<!-- unknown.bars&#45;&gt;rel_1 -->
<g id="edge8" class="edge">
<title>unknown.bars&#45;&gt;rel_1</title>
<path fill="none" stroke="#d46a6a" stroke-width="1.5" d="M51.66,-157.21C64.84,-146.9 81.65,-134 97,-123 104.39,-117.7 112.41,-112.19 120.11,-107.01"/>
<polygon fill="#d46a6a" stroke="#d46a6a" stroke-width="1.5" points="121.3,-109.58 126.4,-102.81 118.19,-104.92 121.3,-109.58"/>
</g>
<!-- rel_3 -->
<g id="node13" class="node">
<title>rel_3</title>
<path fill="#f5b8b8" stroke="#d46a6a" stroke-width="1.2" d="M184.25,-36C184.25,-36 131.5,-36 131.5,-36 125.5,-36 119.5,-30 119.5,-24 119.5,-24 119.5,-12 119.5,-12 119.5,-6 125.5,0 131.5,0 131.5,0 184.25,0 184.25,0 190.25,0 196.25,-6 196.25,-12 196.25,-12 196.25,-24 196.25,-24 196.25,-30 190.25,-36 184.25,-36"/>
<text xml:space="preserve" text-anchor="middle" x="157.88" y="-14.5" font-family="Arial" font-size="10.00" fill="#8b0000">oriented along</text>
</g>
<!-- unknown.bars&#45;&gt;rel_3 -->
<g id="edge12" class="edge">
<title>unknown.bars&#45;&gt;rel_3</title>
<path fill="none" stroke="#d46a6a" stroke-width="1.5" d="M34.45,-157.39C44.39,-130.98 65.61,-82.36 97,-51 101.09,-46.92 105.79,-43.19 110.72,-39.84"/>
<polygon fill="#d46a6a" stroke="#d46a6a" stroke-width="1.5" points="111.95,-42.37 117.24,-35.75 108.97,-37.62 111.95,-42.37"/>
</g>
<!-- text.axis_label -->
<g id="node2" class="node">
<title>text.axis_label</title>
<path fill="#b8e6b8" stroke="#2c3e50" stroke-width="1.8" d="M307.38,-101C307.38,-101 274.12,-101 274.12,-101 268.12,-101 262.12,-95 262.12,-89 262.12,-89 262.12,-77 262.12,-77 262.12,-71 268.12,-65 274.12,-65 274.12,-65 307.38,-65 307.38,-65 313.38,-65 319.38,-71 319.38,-77 319.38,-77 319.38,-89 319.38,-89 319.38,-95 313.38,-101 307.38,-101"/>
<text xml:space="preserve" text-anchor="middle" x="290.75" y="-79.5" font-family="Arial" font-size="10.00" fill="#1a1a1a">axis label</text>
</g>
<!-- unknown.factors -->
<g id="node3" class="node">
<title>unknown.factors</title>
<path fill="#b8e6b8" stroke="#2c3e50" stroke-width="1.8" d="M305.75,-36C305.75,-36 275.75,-36 275.75,-36 269.75,-36 263.75,-30 263.75,-24 263.75,-24 263.75,-12 263.75,-12 263.75,-6 269.75,0 275.75,0 275.75,0 305.75,0 305.75,0 311.75,0 317.75,-6 317.75,-12 317.75,-12 317.75,-24 317.75,-24 317.75,-30 311.75,-36 305.75,-36"/>
<text xml:space="preserve" text-anchor="middle" x="290.75" y="-14.5" font-family="Arial" font-size="10.00" fill="#1a1a1a">factors</text>
</g>
<!-- attr_2 -->
<g id="node8" class="node">
<title>attr_2</title>
<path fill="#c7b8e6" stroke="#7f8c8d" stroke-width="1.2" d="M468,-101C468,-101 374.75,-101 374.75,-101 368.75,-101 362.75,-95 362.75,-89 362.75,-89 362.75,-77 362.75,-77 362.75,-71 368.75,-65 374.75,-65 374.75,-65 468,-65 468,-65 474,-65 480,-71 480,-77 480,-77 480,-89 480,-89 480,-95 474,-101 468,-101"/>
<text xml:space="preserve" text-anchor="middle" x="421.38" y="-79.5" font-family="Arial" font-size="10.00" fill="#1a1a1a">(+) more factors shown</text>
</g>
<!-- unknown.factors&#45;&gt;attr_2 -->
<g id="edge4" class="edge">
<title>unknown.factors&#45;&gt;attr_2</title>
<path fill="none" stroke="#aaaaaa" d="M318.4,-31.47C335.16,-39.94 357.19,-51.07 376.48,-60.82"/>
<polygon fill="#aaaaaa" stroke="#aaaaaa" points="375.3,-62.97 382.65,-63.94 377.51,-58.59 375.3,-62.97"/>
</g>
<!-- rel_2 -->
<g id="node12" class="node">
<title>rel_2</title>
<path fill="#f5b8b8" stroke="#d46a6a" stroke-width="1.2" d="M458.62,-36C458.62,-36 384.12,-36 384.12,-36 378.12,-36 372.12,-30 372.12,-24 372.12,-24 372.12,-12 372.12,-12 372.12,-6 378.12,0 384.12,0 384.12,0 458.62,0 458.62,0 464.62,0 470.62,-6 470.62,-12 470.62,-12 470.62,-24 470.62,-24 470.62,-30 464.62,-36 458.62,-36"/>
<text xml:space="preserve" text-anchor="middle" x="421.38" y="-14.5" font-family="Arial" font-size="10.00" fill="#8b0000">adds complexity to</text>
</g>
<!-- unknown.factors&#45;&gt;rel_2 -->
<g id="edge10" class="edge">
<title>unknown.factors&#45;&gt;rel_2</title>
<path fill="none" stroke="#d46a6a" stroke-width="1.5" d="M318.4,-18C331.02,-18 346.62,-18 361.79,-18"/>
<polygon fill="#d46a6a" stroke="#d46a6a" stroke-width="1.5" points="361.39,-20.8 369.39,-18 361.39,-15.2 361.39,-20.8"/>
</g>
<!-- whole.visualization -->
<g id="node4" class="node">
<title>whole.visualization</title>
<path fill="#b8e6b8" stroke="#2c3e50" stroke-width="1.8" d="M565,-99C565,-99 535,-99 535,-99 529,-99 523,-93 523,-87 523,-87 523,-75 523,-75 523,-69 529,-63 535,-63 535,-63 565,-63 565,-63 571,-63 577,-69 577,-75 577,-75 577,-87 577,-87 577,-93 571,-99 565,-99"/>
<text xml:space="preserve" text-anchor="middle" x="550" y="-77.5" font-family="Arial" font-size="10.00" fill="#1a1a1a">chart</text>
</g>
<!-- attr_3 -->
<g id="node9" class="node">
<title>attr_3</title>
<path fill="#c7b8e6" stroke="#7f8c8d" stroke-width="1.2" d="M699,-99C699,-99 632,-99 632,-99 626,-99 620,-93 620,-87 620,-87 620,-75 620,-75 620,-69 626,-63 632,-63 632,-63 699,-63 699,-63 705,-63 711,-69 711,-75 711,-75 711,-87 711,-87 711,-93 705,-99 699,-99"/>
<text xml:space="preserve" text-anchor="middle" x="665.5" y="-77.5" font-family="Arial" font-size="10.00" fill="#1a1a1a">(+) harder to read</text>
</g>
<!-- whole.visualization&#45;&gt;attr_3 -->
<g id="edge5" class="edge">
<title>whole.visualization&#45;&gt;attr_3</title>
<path fill="none" stroke="#aaaaaa" d="M577.9,-81C587.92,-81 599.68,-81 611.24,-81"/>
<polygon fill="#aaaaaa" stroke="#aaaaaa" points="611.09,-83.45 618.09,-81 611.09,-78.55 611.09,-83.45"/>
</g>
<!-- rel_0&#45;&gt;whole.visualization -->
<g id="edge7" class="edge">
<title>rel_0&#45;&gt;whole.visualization</title>
<path fill="none" stroke="#d46a6a" stroke-width="1.5" d="M320.14,-145.85C357.56,-142.42 425.07,-134.14 480,-116 491.25,-112.29 502.93,-106.98 513.42,-101.62"/>
<polygon fill="#d46a6a" stroke="#d46a6a" stroke-width="1.5" points="514.51,-104.2 520.28,-97.99 511.9,-99.25 514.51,-104.2"/>
</g>
<!-- rel_1&#45;&gt;text.axis_label -->
<g id="edge9" class="edge">
<title>rel_1&#45;&gt;text.axis_label</title>
<path fill="none" stroke="#d46a6a" stroke-width="1.5" d="M215.52,-83C227.68,-83 240.26,-83 251.53,-83"/>
<polygon fill="#d46a6a" stroke="#d46a6a" stroke-width="1.5" points="251.19,-85.8 259.19,-83 251.19,-80.2 251.19,-85.8"/>
</g>
<!-- rel_2&#45;&gt;whole.visualization -->
<g id="edge11" class="edge">
<title>rel_2&#45;&gt;whole.visualization</title>
<path fill="none" stroke="#d46a6a" stroke-width="1.5" d="M459.68,-36.56C476.67,-45.01 496.68,-54.97 513.45,-63.31"/>
<polygon fill="#d46a6a" stroke="#d46a6a" stroke-width="1.5" points="511.95,-65.7 520.36,-66.75 514.45,-60.68 511.95,-65.7"/>
</g>
<!-- rel_3&#45;&gt;unknown.factors -->
<g id="edge13" class="edge">
<title>rel_3&#45;&gt;unknown.factors</title>
<path fill="none" stroke="#d46a6a" stroke-width="1.5" d="M196.73,-18C214.53,-18 235.65,-18 253.27,-18"/>
<polygon fill="#d46a6a" stroke="#d46a6a" stroke-width="1.5" points="252.92,-20.8 260.92,-18 252.92,-15.2 252.92,-20.8"/>
</g>
</g>
</svg>
