<?xml version="1.0" encoding="UTF-8" standalone="no"?>
<!DOCTYPE svg PUBLIC "-//W3C//DTD SVG 1.1//EN"
 "http://www.w3.org/Graphics/SVG/1.1/DTD/svg11.dtd">
<!-- Generated by graphviz version 14.1.5 (20260411.2331)
 -->
<!-- Title: economist_daily_chart_4.png Pages: 1 -->
<svg width="535pt" height="494pt"
 viewBox="0.00 0.00 535.00 494.00" xmlns="http://www.w3.org/2000/svg" xmlns:xlink="http://www.w3.org/1999/xlink">
<g id="graph0" class="graph" transform="scale(1 1) rotate(0) translate(4 490.25)">
<title>economist_daily_chart_4.png</title>
<polygon fill="white" stroke="none" points="-4,4 -4,-490.25 531.25,-490.25 531.25,4 -4,4"/>
<text xml:space="preserve" text-anchor="start" x="168.38" y="-465.95" font-family="Arial" font-weight="bold" font-size="14.00">economist_daily_chart_4.png</text>
<text xml:space="preserve" text-anchor="start" x="222.75" y="-446" font-family="Arial" font-size="11.00">Bar &#160;| &#160;VC = 0.55</text>
<path fill="#b8e6b8" stroke="none" d="M54.25,-421C54.25,-421 62.25,-421 62.25,-421 65.25,-421 68.25,-424 68.25,-427 68.25,-427 68.25,-433 68.25,-433 68.25,-436 65.25,-439 62.25,-439 62.25,-439 54.25,-439 54.25,-439 51.25,-439 48.25,-436 48.25,-433 48.25,-433 48.25,-427 48.25,-427 48.25,-424 51.25,-421 54.25,-421"/>
<path fill="none" stroke="black" d="M54.25,-421C54.25,-421 62.25,-421 62.25,-421 65.25,-421 68.25,-424 68.25,-427 68.25,-427 68.25,-433 68.25,-433 68.25,-436 65.25,-439 62.25,-439 62.25,-439 54.25,-439 54.25,-439 51.25,-439 48.25,-436 48.25,-433 48.25,-433 48.25,-427 48.25,-427 48.25,-424 51.25,-421 54.25,-421"/>
<text xml:space="preserve" text-anchor="start" x="56.75" y="-426.25" font-family="Arial" font-size="10.00"> </text>
<text xml:space="preserve" text-anchor="start" x="72.25" y="-426.25" font-family="Arial" font-size="10.00">Object</text>
<path fill="#c7b8e6" stroke="none" d="M110.75,-421C110.75,-421 118.75,-421 118.75,-421 121.75,-421 124.75,-424 124.75,-427 124.75,-427 124.75,-433 124.75,-433 124.75,-436 121.75,-439 118.75,-439 118.75,-439 110.75,-439 110.75,-439 107.75,-439 104.75,-436 104.75,-433 104.75,-433 104.75,-427 104.75,-427 104.75,-424 107.75,-421 110.75,-421"/>
<path fill="none" stroke="black" d="M110.75,-421C110.75,-421 118.75,-421 118.75,-421 121.75,-421 124.75,-424 124.75,-427 124.75,-427 124.75,-433 124.75,-433 124.75,-436 121.75,-439 118.75,-439 118.75,-439 110.75,-439 110.75,-439 107.75,-439 104.75,-436 104.75,-433 104.75,-433 104.75,-427 104.75,-427 104.75,-424 107.75,-421 110.75,-421"/>
<text xml:space="preserve" text-anchor="start" x="113.25" y="-426.25" font-family="Arial" font-size="10.00"> </text>
<text xml:space="preserve" text-anchor="start" x="128.75" y="-426.25" font-family="Arial" font-size="10.00">Attribute</text>
<path fill="#f5b8b8" stroke="none" d="M175.5,-421C175.5,-421 183.5,-421 183.5,-421 186.5,-421 189.5,-424 189.5,-427 189.5,-427 189.5,-433 189.5,-433 189.5,-436 186.5,-439 183.5,-439 183.5,-439 175.5,-439 175.5,-439 172.5,-439 169.5,-436 169.5,-433 169.5,-433 169.5,-427 169.5,-427 169.5,-424 172.5,-421 175.5,-421"/>
<path fill="none" stroke="black" d="M175.5,-421C175.5,-421 183.5,-421 183.5,-421 186.5,-421 189.5,-424 189.5,-427 189.5,-427 189.5,-433 189.5,-433 189.5,-436 186.5,-439 183.5,-439 183.5,-439 175.5,-439 175.5,-439 172.5,-439 169.5,-436 169.5,-433 169.5,-433 169.5,-427 169.5,-427 169.5,-424 172.5,-421 175.5,-421"/>
<text xml:space="preserve" text-anchor="start" x="178" y="-426.25" font-family="Arial" font-size="10.00"> </text>
<text xml:space="preserve" text-anchor="start" x="193.5" y="-426.25" font-family="Arial" font-size="10.00">Relationship</text>
<text xml:space="preserve" text-anchor="start" x="253.5" y="-427.5" font-family="Arial" font-weight="bold" font-size="10.00">(+)</text>
<text xml:space="preserve" text-anchor="start" x="265.5" y="-427.5" font-family="Arial" font-size="10.00"> increases complexity</text>
<text xml:space="preserve" text-anchor="start" x="366.75" y="-427.5" font-family="Arial" font-weight="bold" font-size="10.00">(−)</text>
<text xml:space="preserve" text-anchor="start" x="378.75" y="-427.5" font-family="Arial" font-size="10.00"> decreases complexity</text>
<!-- mark.bar -->
<g id="node1" class="node">
<title>mark.bar</title>
<path fill="#b8e6b8" stroke="#2c3e50" stroke-width="1.8" d="M45.5,-69C45.5,-69 15.5,-69 15.5,-69 9.5,-69 3.5,-63 3.5,-57 3.5,-57 3.5,-45 3.5,-45 3.5,-39 9.5,-33 15.5,-33 15.5,-33 45.5,-33 45.5,-33 51.5,-33 57.5,-39 57.5,-45 57.5,-45 57.5,-57 57.5,-57 57.5,-63 51.5,-69 45.5,-69"/>
<text xml:space="preserve" text-anchor="middle" x="30.5" y="-47.5" font-family="Arial" font-size="10.00" fill="#1a1a1a">bar</text>
</g>
<!-- attr_1 -->
<g id="node6" class="node">
<title>attr_1</title>
<path fill="#c7b8e6" stroke="#7f8c8d" stroke-width="1.2" d="M225,-101C225,-101 124.25,-101 124.25,-101 118.25,-101 112.25,-95 112.25,-89 112.25,-89 112.25,-77 112.25,-77 112.25,-71 118.25,-65 124.25,-65 124.25,-65 225,-65 225,-65 231,-65 237,-71 237,-77 237,-77 237,-89 237,-89 237,-95 231,-101 225,-101"/>
<text xml:space="preserve" text-anchor="middle" x="174.62" y="-79.5" font-family="Arial" font-size="10.00" fill="#1a1a1a">(+) bidirectional encoding</text>
</g>
<!-- mark.bar&#45;&gt;attr_1 -->
<g id="edge1" class="edge">
<title>mark.bar&#45;&gt;attr_1</title>
<path fill="none" stroke="#aaaaaa" d="M58.23,-57.02C71.29,-59.96 87.68,-63.65 103.97,-67.32"/>
<polygon fill="#aaaaaa" stroke="#aaaaaa" points="103.1,-69.63 110.46,-68.78 104.17,-64.85 103.1,-69.63"/>
</g>
<!-- rel_1 -->
<g id="node12" class="node">
<title>rel_1</title>
<path fill="#f5b8b8" stroke="#d46a6a" stroke-width="1.2" d="M196.88,-36C196.88,-36 152.38,-36 152.38,-36 146.38,-36 140.38,-30 140.38,-24 140.38,-24 140.38,-12 140.38,-12 140.38,-6 146.38,0 152.38,0 152.38,0 196.88,0 196.88,0 202.88,0 208.88,-6 208.88,-12 208.88,-12 208.88,-24 208.88,-24 208.88,-30 202.88,-36 196.88,-36"/>
<text xml:space="preserve" text-anchor="middle" x="174.62" y="-14.5" font-family="Arial" font-size="10.00" fill="#8b0000">encodes via</text>
</g>
<!-- mark.bar&#45;&gt;rel_1 -->
<g id="edge8" class="edge">
<title>mark.bar&#45;&gt;rel_1</title>
<path fill="none" stroke="#d46a6a" stroke-width="1.5" d="M58.23,-44.79C78.5,-40.09 106.77,-33.52 130.25,-28.07"/>
<polygon fill="#d46a6a" stroke="#d46a6a" stroke-width="1.5" points="130.62,-30.86 137.78,-26.32 129.35,-25.41 130.62,-30.86"/>
</g>
<!-- content.data -->
<g id="node2" class="node">
<title>content.data</title>
<path fill="#b8e6b8" stroke="#2c3e50" stroke-width="1.8" d="M45.5,-288C45.5,-288 15.5,-288 15.5,-288 9.5,-288 3.5,-282 3.5,-276 3.5,-276 3.5,-264 3.5,-264 3.5,-258 9.5,-252 15.5,-252 15.5,-252 45.5,-252 45.5,-252 51.5,-252 57.5,-258 57.5,-264 57.5,-264 57.5,-276 57.5,-276 57.5,-282 51.5,-288 45.5,-288"/>
<text xml:space="preserve" text-anchor="middle" x="30.5" y="-266.5" font-family="Arial" font-size="10.00" fill="#1a1a1a">data</text>
</g>
<!-- attr_0 -->
<g id="node7" class="node">
<title>attr_0</title>
<path fill="#c7b8e6" stroke="#7f8c8d" stroke-width="1.2" d="M215.25,-415C215.25,-415 134,-415 134,-415 128,-415 122,-409 122,-403 122,-403 122,-391 122,-391 122,-385 128,-379 134,-379 134,-379 215.25,-379 215.25,-379 221.25,-379 227.25,-385 227.25,-391 227.25,-391 227.25,-403 227.25,-403 227.25,-409 221.25,-415 215.25,-415"/>
<text xml:space="preserve" text-anchor="middle" x="174.62" y="-393.5" font-family="Arial" font-size="10.00" fill="#1a1a1a">(+) high data volume</text>
</g>
<!-- content.data&#45;&gt;attr_0 -->
<g id="edge2" class="edge">
<title>content.data&#45;&gt;attr_0</title>
<path fill="none" stroke="#aaaaaa" d="M49.07,-288.85C53.1,-293.39 57.29,-298.29 61,-303 81.77,-329.33 78.3,-343.46 104,-365 108.01,-368.36 112.44,-371.45 117.06,-374.27"/>
<polygon fill="#aaaaaa" stroke="#aaaaaa" points="115.83,-376.38 123.12,-377.72 118.25,-372.13 115.83,-376.38"/>
</g>
<!-- attr_4 -->
<g id="node8" class="node">
<title>attr_4</title>
<path fill="#c7b8e6" stroke="#7f8c8d" stroke-width="1.2" d="M233.25,-350C233.25,-350 116,-350 116,-350 110,-350 104,-344 104,-338 104,-338 104,-326 104,-326 104,-320 110,-314 116,-314 116,-314 233.25,-314 233.25,-314 239.25,-314 245.25,-320 245.25,-326 245.25,-326 245.25,-338 245.25,-338 245.25,-344 239.25,-350 233.25,-350"/>
<text xml:space="preserve" text-anchor="middle" x="174.62" y="-328.5" font-family="Arial" font-size="10.00" fill="#1a1a1a">(+) requires detailed analysis</text>
</g>
<!-- content.data&#45;&gt;attr_4 -->
<g id="edge3" class="edge">
<title>content.data&#45;&gt;attr_4</title>
<path fill="none" stroke="#aaaaaa" d="M58.23,-281.66C76.57,-289.66 101.48,-300.53 123.45,-310.11"/>
<polygon fill="#aaaaaa" stroke="#aaaaaa" points="122.31,-312.29 129.7,-312.84 124.27,-307.79 122.31,-312.29"/>
</g>
<!-- rel_2 -->
<g id="node13" class="node">
<title>rel_2</title>
<path fill="#f5b8b8" stroke="#d46a6a" stroke-width="1.2" d="M196.88,-226C196.88,-226 152.38,-226 152.38,-226 146.38,-226 140.38,-220 140.38,-214 140.38,-214 140.38,-202 140.38,-202 140.38,-196 146.38,-190 152.38,-190 152.38,-190 196.88,-190 196.88,-190 202.88,-190 208.88,-196 208.88,-202 208.88,-202 208.88,-214 208.88,-214 208.88,-220 202.88,-226 196.88,-226"/>
<text xml:space="preserve" text-anchor="middle" x="174.62" y="-204.5" font-family="Arial" font-size="10.00" fill="#8b0000">overwhelms</text>
</g>
<!-- content.data&#45;&gt;rel_2 -->
<g id="edge10" class="edge">
<title>content.data&#45;&gt;rel_2</title>
<path fill="none" stroke="#d46a6a" stroke-width="1.5" d="M58.23,-258.34C78.68,-249.42 107.27,-236.95 130.88,-226.65"/>
<polygon fill="#d46a6a" stroke="#d46a6a" stroke-width="1.5" points="131.69,-229.35 137.91,-223.58 129.46,-224.21 131.69,-229.35"/>
</g>
<!-- unknown.axis -->
<g id="node3" class="node">
<title>unknown.axis</title>
<path fill="#b8e6b8" stroke="#2c3e50" stroke-width="1.8" d="M330.25,-36C330.25,-36 300.25,-36 300.25,-36 294.25,-36 288.25,-30 288.25,-24 288.25,-24 288.25,-12 288.25,-12 288.25,-6 294.25,0 300.25,0 300.25,0 330.25,0 330.25,0 336.25,0 342.25,-6 342.25,-12 342.25,-12 342.25,-24 342.25,-24 342.25,-30 336.25,-36 330.25,-36"/>
<text xml:space="preserve" text-anchor="middle" x="315.25" y="-14.5" font-family="Arial" font-size="10.00" fill="#1a1a1a">axis</text>
</g>
<!-- attr_3 -->
<g id="node9" class="node">
<title>attr_3</title>
<path fill="#c7b8e6" stroke="#7f8c8d" stroke-width="1.2" d="M501.75,-36C501.75,-36 410.75,-36 410.75,-36 404.75,-36 398.75,-30 398.75,-24 398.75,-24 398.75,-12 398.75,-12 398.75,-6 404.75,0 410.75,0 410.75,0 501.75,0 501.75,0 507.75,0 513.75,-6 513.75,-12 513.75,-12 513.75,-24 513.75,-24 513.75,-30 507.75,-36 501.75,-36"/>
<text xml:space="preserve" text-anchor="middle" x="456.25" y="-14.5" font-family="Arial" font-size="10.00" fill="#1a1a1a">(+) dual direction scale</text>
</g>
<!-- unknown.axis&#45;&gt;attr_3 -->
<g id="edge4" class="edge">
<title>unknown.axis&#45;&gt;attr_3</title>
<path fill="none" stroke="#aaaaaa" d="M343.05,-18C356.54,-18 373.54,-18 390.19,-18"/>
<polygon fill="#aaaaaa" stroke="#aaaaaa" points="389.81,-20.45 396.81,-18 389.81,-15.55 389.81,-20.45"/>
</g>
<!-- unknown.variable -->
<g id="node4" class="node">
<title>unknown.variable</title>
<path fill="#b8e6b8" stroke="#2c3e50" stroke-width="1.8" d="M330.25,-226C330.25,-226 300.25,-226 300.25,-226 294.25,-226 288.25,-220 288.25,-214 288.25,-214 288.25,-202 288.25,-202 288.25,-196 294.25,-190 300.25,-190 300.25,-190 330.25,-190 330.25,-190 336.25,-190 342.25,-196 342.25,-202 342.25,-202 342.25,-214 342.25,-214 342.25,-220 336.25,-226 330.25,-226"/>
<text xml:space="preserve" text-anchor="middle" x="315.25" y="-204.5" font-family="Arial" font-size="10.00" fill="#1a1a1a">variable</text>
</g>
<!-- attr_2 -->
<g id="node10" class="node">
<title>attr_2</title>
<path fill="#c7b8e6" stroke="#7f8c8d" stroke-width="1.2" d="M515.25,-226C515.25,-226 397.25,-226 397.25,-226 391.25,-226 385.25,-220 385.25,-214 385.25,-214 385.25,-202 385.25,-202 385.25,-196 391.25,-190 397.25,-190 397.25,-190 515.25,-190 515.25,-190 521.25,-190 527.25,-196 527.25,-202 527.25,-202 527.25,-214 527.25,-214 527.25,-220 521.25,-226 515.25,-226"/>
<text xml:space="preserve" text-anchor="middle" x="456.25" y="-204.5" font-family="Arial" font-size="10.00" fill="#1a1a1a">(+) multiple variables present</text>
</g>
<!-- unknown.variable&#45;&gt;attr_2 -->
<g id="edge5" class="edge">
<title>unknown.variable&#45;&gt;attr_2</title>
<path fill="none" stroke="#aaaaaa" d="M343.05,-208C352.86,-208 364.52,-208 376.55,-208"/>
<polygon fill="#aaaaaa" stroke="#aaaaaa" points="376.41,-210.45 383.41,-208 376.41,-205.55 376.41,-210.45"/>
</g>
<!-- rel_0 -->
<g id="node11" class="node">
<title>rel_0</title>
<path fill="#f5b8b8" stroke="#d46a6a" stroke-width="1.2" d="M473.25,-291C473.25,-291 439.25,-291 439.25,-291 433.25,-291 427.25,-285 427.25,-279 427.25,-279 427.25,-267 427.25,-267 427.25,-261 433.25,-255 439.25,-255 439.25,-255 473.25,-255 473.25,-255 479.25,-255 485.25,-261 485.25,-267 485.25,-267 485.25,-279 485.25,-279 485.25,-285 479.25,-291 473.25,-291"/>
<text xml:space="preserve" text-anchor="middle" x="456.25" y="-269.5" font-family="Arial" font-size="10.00" fill="#8b0000">increases</text>
</g>
<!-- unknown.variable&#45;&gt;rel_0 -->
<g id="edge6" class="edge">
<title>unknown.variable&#45;&gt;rel_0</title>
<path fill="none" stroke="#d46a6a" stroke-width="1.5" d="M343.07,-220.96C355.82,-227.09 371.3,-234.47 385.25,-241 395.72,-245.9 407.11,-251.14 417.6,-255.93"/>
<polygon fill="#d46a6a" stroke="#d46a6a" stroke-width="1.5" points="416.42,-258.47 424.86,-259.25 418.75,-253.38 416.42,-258.47"/>
</g>
<!-- rel_3 -->
<g id="node14" class="node">
<title>rel_3</title>
<path fill="#f5b8b8" stroke="#d46a6a" stroke-width="1.2" d="M498,-161C498,-161 414.5,-161 414.5,-161 408.5,-161 402.5,-155 402.5,-149 402.5,-149 402.5,-137 402.5,-137 402.5,-131 408.5,-125 414.5,-125 414.5,-125 498,-125 498,-125 504,-125 510,-131 510,-137 510,-137 510,-149 510,-149 510,-155 504,-161 498,-161"/>
<text xml:space="preserve" text-anchor="middle" x="456.25" y="-139.5" font-family="Arial" font-size="10.00" fill="#8b0000">requires expertise for</text>
</g>
<!-- unknown.variable&#45;&gt;rel_3 -->
<g id="edge12" class="edge">
<title>unknown.variable&#45;&gt;rel_3</title>
<path fill="none" stroke="#d46a6a" stroke-width="1.5" d="M343.05,-195.47C360.99,-187.08 385.12,-175.8 406.4,-165.84"/>
<polygon fill="#d46a6a" stroke="#d46a6a" stroke-width="1.5" points="407.52,-168.41 413.58,-162.48 405.15,-163.34 407.52,-168.41"/>
</g>
<!-- text.annotation -->
<g id="node5" class="node">
<title>text.annotation</title>
<path fill="#b8e6b8" stroke="#2c3e50" stroke-width="1.8" d="M49,-353C49,-353 12,-353 12,-353 6,-353 0,-347 0,-341 0,-341 0,-329 0,-329 0,-323 6,-317 12,-317 12,-317 49,-317 49,-317 55,-317 61,-323 61,-329 61,-329 61,-341 61,-341 61,-347 55,-353 49,-353"/>
<text xml:space="preserve" text-anchor="middle" x="30.5" y="-331.5" font-family="Arial" font-size="10.00" fill="#1a1a1a">annotation</text>
</g>
<!-- rel_0&#45;&gt;content.data -->
<g id="edge7" class="edge">
<title>rel_0&#45;&gt;content.data</title>
<path fill="none" stroke="#d46a6a" stroke-width="1.5" d="M426.88,-272.8C352.52,-272.27 151.93,-270.85 68.59,-270.26"/>
<polygon fill="#d46a6a" stroke="#d46a6a" stroke-width="1.5" points="68.62,-267.46 60.6,-270.21 68.58,-273.06 68.62,-267.46"/>
</g>
<!-- rel_1&#45;&gt;unknown.axis -->
<g id="edge9" class="edge">
<title>rel_1&#45;&gt;unknown.axis</title>
<path fill="none" stroke="#d46a6a" stroke-width="1.5" d="M209.18,-18C229.75,-18 256.09,-18 277.26,-18"/>
<polygon fill="#d46a6a" stroke="#d46a6a" stroke-width="1.5" points="277.22,-20.8 285.22,-18 277.22,-15.2 277.22,-20.8"/>
</g>
<!-- rel_2&#45;&gt;unknown.variable -->
<g id="edge11" class="edge">
<title>rel_2&#45;&gt;unknown.variable</title>
<path fill="none" stroke="#d46a6a" stroke-width="1.5" d="M209.18,-208C229.75,-208 256.09,-208 277.26,-208"/>
<polygon fill="#d46a6a" stroke="#d46a6a" stroke-width="1.5" points="277.22,-210.8 285.22,-208 277.22,-205.2 277.22,-210.8"/>
</g>
<!-- rel_3&#45;&gt;content.data -->
<g id="edge13" class="edge">
<title>rel_3&#45;&gt;content.data</title>
<path fill="none" stroke="#d46a6a" stroke-width="1.5" d="M402.06,-135.47C329.77,-127.9 198.68,-123.82 104,-176 76.99,-190.89 56.79,-220.48 44.66,-242.51"/>
<polygon fill="#d46a6a" stroke="#d46a6a" stroke-width="1.5" points="42.28,-241.03 41.02,-249.41 47.23,-243.64 42.28,-241.03"/>
</g>
</g>
</svg>
