<?xml version="1.0" encoding="UTF-8" standalone="no"?>
<!DOCTYPE svg PUBLIC "-//W3C//DTD SVG 1.1//EN"
 "http://www.w3.org/Graphics/SVG/1.1/DTD/svg11.dtd">
<!-- Generated by graphviz version 14.1.5 (20260411.2331)
 -->
<!-- Title: economist_daily_chart_372.png Pages: 1 -->
<svg width="884pt" height="375pt"
 viewBox="0.00 0.00 884.00 375.00" xmlns="http://www.w3.org/2000/svg" xmlns:xlink="http://www.w3.org/1999/xlink">
<g id="graph0" class="graph" transform="scale(1 1) rotate(0) translate(4 371.25)">
<title>economist_daily_chart_372.png</title>
<polygon fill="white" stroke="none" points="-4,4 -4,-371.25 879.75,-371.25 879.75,4 -4,4"/>
<text xml:space="preserve" text-anchor="start" x="335.12" y="-346.95" font-family="Arial" font-weight="bold" font-size="14.00">economist_daily_chart_372.png</text>
<text xml:space="preserve" text-anchor="start" x="393.25" y="-327" font-family="Arial" font-size="11.00">Point &#160;| &#160;VC = 0.46</text>
<path fill="#b8e6b8" stroke="none" d="M228.5,-302C228.5,-302 236.5,-302 236.5,-302 239.5,-302 242.5,-305 242.5,-308 242.5,-308 242.5,-314 242.5,-314 242.5,-317 239.5,-320 236.5,-320 236.5,-320 228.5,-320 228.5,-320 225.5,-320 222.5,-317 222.5,-314 222.5,-314 222.5,-308 222.5,-308 222.5,-305 225.5,-302 228.5,-302"/>
<path fill="none" stroke="black" d="M228.5,-302C228.5,-302 236.5,-302 236.5,-302 239.5,-302 242.5,-305 242.5,-308 242.5,-308 242.5,-314 242.5,-314 242.5,-317 239.5,-320 236.5,-320 236.5,-320 228.5,-320 228.5,-320 225.5,-320 222.5,-317 222.5,-314 222.5,-314 222.5,-308 222.5,-308 222.5,-305 225.5,-302 228.5,-302"/>
<text xml:space="preserve" text-anchor="start" x="231" y="-307.25" font-family="Arial" font-size="10.00"> </text>
<text xml:space="preserve" text-anchor="start" x="246.5" y="-307.25" font-family="Arial" font-size="10.00">Object</text>
<path fill="#c7b8e6" stroke="none" d="M285,-302C285,-302 293,-302 293,-302 296,-302 299,-305 299,-308 299,-308 299,-314 299,-314 299,-317 296,-320 293,-320 293,-320 285,-320 285,-320 282,-320 279,-317 279,-314 279,-314 279,-308 279,-308 279,-305 282,-302 285,-302"/>
<path fill="none" stroke="black" d="M285,-302C285,-302 293,-302 293,-302 296,-302 299,-305 299,-308 299,-308 299,-314 299,-314 299,-317 296,-320 293,-320 293,-320 285,-320 285,-320 282,-320 279,-317 279,-314 279,-314 279,-308 279,-308 279,-305 282,-302 285,-302"/>
<text xml:space="preserve" text-anchor="start" x="287.5" y="-307.25" font-family="Arial" font-size="10.00"> </text>
<text xml:space="preserve" text-anchor="start" x="303" y="-307.25" font-family="Arial" font-size="10.00">Attribute</text>
<path fill="#f5b8b8" stroke="none" d="M349.75,-302C349.75,-302 357.75,-302 357.75,-302 360.75,-302 363.75,-305 363.75,-308 363.75,-308 363.75,-314 363.75,-314 363.75,-317 360.75,-320 357.75,-320 357.75,-320 349.75,-320 349.75,-320 346.75,-320 343.75,-317 343.75,-314 343.75,-314 343.75,-308 343.75,-308 343.75,-305 346.75,-302 349.75,-302"/>
<path fill="none" stroke="black" d="M349.75,-302C349.75,-302 357.75,-302 357.75,-302 360.75,-302 363.75,-305 363.75,-308 363.75,-308 363.75,-314 363.75,-314 363.75,-317 360.75,-320 357.75,-320 357.75,-320 349.75,-320 349.75,-320 346.75,-320 343.75,-317 343.75,-314 343.75,-314 343.75,-308 343.75,-308 343.75,-305 346.75,-302 349.75,-302"/>
<text xml:space="preserve" text-anchor="start" x="352.25" y="-307.25" font-family="Arial" font-size="10.00"> </text>
<text xml:space="preserve" text-anchor="start" x="367.75" y="-307.25" font-family="Arial" font-size="10.00">Relationship</text>
<text xml:space="preserve" text-anchor="start" x="427.75" y="-308.5" font-family="Arial" font-weight="bold" font-size="10.00">(+)</text>
<text xml:space="preserve" text-anchor="start" x="439.75" y="-308.5" font-family="Arial" font-size="10.00"> increases complexity</text>
<text xml:space="preserve" text-anchor="start" x="541" y="-308.5" font-family="Arial" font-weight="bold" font-size="10.00">(−)</text>
<text xml:space="preserve" text-anchor="start" x="553" y="-308.5" font-family="Arial" font-size="10.00"> decreases complexity</text>
<!-- unknown.data_points -->
<g id="node1" class="node">
<title>unknown.data_points</title>
<path fill="#b8e6b8" stroke="#2c3e50" stroke-width="1.8" d="M366.5,-166C366.5,-166 326.5,-166 326.5,-166 320.5,-166 314.5,-160 314.5,-154 314.5,-154 314.5,-142 314.5,-142 314.5,-136 320.5,-130 326.5,-130 326.5,-130 366.5,-130 366.5,-130 372.5,-130 378.5,-136 378.5,-142 378.5,-142 378.5,-154 378.5,-154 378.5,-160 372.5,-166 366.5,-166"/>
<text xml:space="preserve" text-anchor="middle" x="346.5" y="-144.5" font-family="Arial" font-size="10.00" fill="#1a1a1a">data points</text>
</g>
<!-- attr_1 -->
<g id="node6" class="node">
<title>attr_1</title>
<path fill="#c7b8e6" stroke="#7f8c8d" stroke-width="1.2" d="M558.25,-296C558.25,-296 433.5,-296 433.5,-296 427.5,-296 421.5,-290 421.5,-284 421.5,-284 421.5,-272 421.5,-272 421.5,-266 427.5,-260 433.5,-260 433.5,-260 558.25,-260 558.25,-260 564.25,-260 570.25,-266 570.25,-272 570.25,-272 570.25,-284 570.25,-284 570.25,-290 564.25,-296 558.25,-296"/>
<text xml:space="preserve" text-anchor="middle" x="495.88" y="-274.5" font-family="Arial" font-size="10.00" fill="#1a1a1a">(+) random messy appearance</text>
</g>
<!-- unknown.data_points&#45;&gt;attr_1 -->
<g id="edge1" class="edge">
<title>unknown.data_points&#45;&gt;attr_1</title>
<path fill="none" stroke="#aaaaaa" d="M357.53,-166.53C370.02,-188.13 393.21,-223.69 421.5,-246 425.9,-249.47 430.73,-252.64 435.75,-255.52"/>
<polygon fill="#aaaaaa" stroke="#aaaaaa" points="434.56,-257.66 441.88,-258.81 436.88,-253.34 434.56,-257.66"/>
</g>
<!-- attr_2 -->
<g id="node7" class="node">
<title>attr_2</title>
<path fill="#c7b8e6" stroke="#7f8c8d" stroke-width="1.2" d="M556.75,-231C556.75,-231 435,-231 435,-231 429,-231 423,-225 423,-219 423,-219 423,-207 423,-207 423,-201 429,-195 435,-195 435,-195 556.75,-195 556.75,-195 562.75,-195 568.75,-201 568.75,-207 568.75,-207 568.75,-219 568.75,-219 568.75,-225 562.75,-231 556.75,-231"/>
<text xml:space="preserve" text-anchor="middle" x="495.88" y="-209.5" font-family="Arial" font-size="10.00" fill="#1a1a1a">(+) scattered point distribution</text>
</g>
<!-- unknown.data_points&#45;&gt;attr_2 -->
<g id="edge2" class="edge">
<title>unknown.data_points&#45;&gt;attr_2</title>
<path fill="none" stroke="#aaaaaa" d="M379.16,-162.19C392.26,-168.04 407.6,-174.87 421.5,-181 428.94,-184.28 436.81,-187.73 444.53,-191.11"/>
<polygon fill="#aaaaaa" stroke="#aaaaaa" points="443.39,-193.28 450.78,-193.84 445.35,-188.79 443.39,-193.28"/>
</g>
<!-- rel_1 -->
<g id="node13" class="node">
<title>rel_1</title>
<path fill="#f5b8b8" stroke="#d46a6a" stroke-width="1.2" d="M529.38,-166C529.38,-166 462.38,-166 462.38,-166 456.38,-166 450.38,-160 450.38,-154 450.38,-154 450.38,-142 450.38,-142 450.38,-136 456.38,-130 462.38,-130 462.38,-130 529.38,-130 529.38,-130 535.38,-130 541.38,-136 541.38,-142 541.38,-142 541.38,-154 541.38,-154 541.38,-160 535.38,-166 529.38,-166"/>
<text xml:space="preserve" text-anchor="middle" x="495.88" y="-144.5" font-family="Arial" font-size="10.00" fill="#8b0000">lacks structure in</text>
</g>
<!-- unknown.data_points&#45;&gt;rel_1 -->
<g id="edge9" class="edge">
<title>unknown.data_points&#45;&gt;rel_1</title>
<path fill="none" stroke="#d46a6a" stroke-width="1.5" d="M379.12,-148C396.77,-148 419.27,-148 439.73,-148"/>
<polygon fill="#d46a6a" stroke="#d46a6a" stroke-width="1.5" points="439.62,-150.8 447.62,-148 439.62,-145.2 439.62,-150.8"/>
</g>
<!-- rel_3 -->
<g id="node15" class="node">
<title>rel_3</title>
<path fill="#f5b8b8" stroke="#d46a6a" stroke-width="1.2" d="M532.38,-101C532.38,-101 459.38,-101 459.38,-101 453.38,-101 447.38,-95 447.38,-89 447.38,-89 447.38,-77 447.38,-77 447.38,-71 453.38,-65 459.38,-65 459.38,-65 532.38,-65 532.38,-65 538.38,-65 544.38,-71 544.38,-77 544.38,-77 544.38,-89 544.38,-89 544.38,-95 538.38,-101 532.38,-101"/>
<text xml:space="preserve" text-anchor="middle" x="495.88" y="-79.5" font-family="Arial" font-size="10.00" fill="#8b0000">increases effort for</text>
</g>
<!-- unknown.data_points&#45;&gt;rel_3 -->
<g id="edge13" class="edge">
<title>unknown.data_points&#45;&gt;rel_3</title>
<path fill="none" stroke="#d46a6a" stroke-width="1.5" d="M379.12,-134.06C397.9,-125.77 422.18,-115.06 443.64,-105.6"/>
<polygon fill="#d46a6a" stroke="#d46a6a" stroke-width="1.5" points="444.69,-108.19 450.88,-102.4 442.43,-103.07 444.69,-108.19"/>
</g>
<!-- unknown.color_encoding -->
<g id="node2" class="node">
<title>unknown.color_encoding</title>
<path fill="#b8e6b8" stroke="#2c3e50" stroke-width="1.8" d="M67,-190C67,-190 12,-190 12,-190 6,-190 0,-184 0,-178 0,-178 0,-166 0,-166 0,-160 6,-154 12,-154 12,-154 67,-154 67,-154 73,-154 79,-160 79,-166 79,-166 79,-178 79,-178 79,-184 73,-190 67,-190"/>
<text xml:space="preserve" text-anchor="middle" x="39.5" y="-168.5" font-family="Arial" font-size="10.00" fill="#1a1a1a">color encoding</text>
</g>
<!-- attr_0 -->
<g id="node8" class="node">
<title>attr_0</title>
<path fill="#c7b8e6" stroke="#7f8c8d" stroke-width="1.2" d="M235.12,-288C235.12,-288 158.38,-288 158.38,-288 152.38,-288 146.38,-282 146.38,-276 146.38,-276 146.38,-264 146.38,-264 146.38,-258 152.38,-252 158.38,-252 158.38,-252 235.12,-252 235.12,-252 241.12,-252 247.12,-258 247.12,-264 247.12,-264 247.12,-276 247.12,-276 247.12,-282 241.12,-288 235.12,-288"/>
<text xml:space="preserve" text-anchor="middle" x="196.75" y="-266.5" font-family="Arial" font-size="10.00" fill="#1a1a1a">(+) too many colors</text>
</g>
<!-- unknown.color_encoding&#45;&gt;attr_0 -->
<g id="edge3" class="edge">
<title>unknown.color_encoding&#45;&gt;attr_0</title>
<path fill="none" stroke="#aaaaaa" d="M60.45,-190.74C76.28,-204.96 99.43,-224.31 122,-238 127.83,-241.54 134.13,-244.89 140.49,-248"/>
<polygon fill="#aaaaaa" stroke="#aaaaaa" points="139.23,-250.11 146.61,-250.89 141.33,-245.68 139.23,-250.11"/>
</g>
<!-- attr_5 -->
<g id="node9" class="node">
<title>attr_5</title>
<path fill="#c7b8e6" stroke="#7f8c8d" stroke-width="1.2" d="M259.5,-223C259.5,-223 134,-223 134,-223 128,-223 122,-217 122,-211 122,-211 122,-199 122,-199 122,-193 128,-187 134,-187 134,-187 259.5,-187 259.5,-187 265.5,-187 271.5,-193 271.5,-199 271.5,-199 271.5,-211 271.5,-211 271.5,-217 265.5,-223 259.5,-223"/>
<text xml:space="preserve" text-anchor="middle" x="196.75" y="-201.5" font-family="Arial" font-size="10.00" fill="#1a1a1a">(+) ambiguous color distinction</text>
</g>
<!-- unknown.color_encoding&#45;&gt;attr_5 -->
<g id="edge4" class="edge">
<title>unknown.color_encoding&#45;&gt;attr_5</title>
<path fill="none" stroke="#aaaaaa" d="M79.68,-180.33C90.04,-182.53 101.63,-184.99 113.36,-187.49"/>
<polygon fill="#aaaaaa" stroke="#aaaaaa" points="112.66,-189.84 120.01,-188.9 113.67,-185.05 112.66,-189.84"/>
</g>
<!-- rel_0 -->
<g id="node12" class="node">
<title>rel_0</title>
<path fill="#f5b8b8" stroke="#d46a6a" stroke-width="1.2" d="M219,-158C219,-158 174.5,-158 174.5,-158 168.5,-158 162.5,-152 162.5,-146 162.5,-146 162.5,-134 162.5,-134 162.5,-128 168.5,-122 174.5,-122 174.5,-122 219,-122 219,-122 225,-122 231,-128 231,-134 231,-134 231,-146 231,-146 231,-152 225,-158 219,-158"/>
<text xml:space="preserve" text-anchor="middle" x="196.75" y="-136.5" font-family="Arial" font-size="10.00" fill="#8b0000">overwhelms</text>
</g>
<!-- unknown.color_encoding&#45;&gt;rel_0 -->
<g id="edge7" class="edge">
<title>unknown.color_encoding&#45;&gt;rel_0</title>
<path fill="none" stroke="#d46a6a" stroke-width="1.5" d="M79.68,-163.93C101.82,-159.36 129.55,-153.65 152.35,-148.95"/>
<polygon fill="#d46a6a" stroke="#d46a6a" stroke-width="1.5" points="152.62,-151.75 159.89,-147.39 151.49,-146.26 152.62,-151.75"/>
</g>
<!-- rel_2 -->
<g id="node14" class="node">
<title>rel_2</title>
<path fill="#f5b8b8" stroke="#d46a6a" stroke-width="1.2" d="M241.88,-77C241.88,-77 151.62,-77 151.62,-77 145.62,-77 139.62,-71 139.62,-65 139.62,-65 139.62,-53 139.62,-53 139.62,-47 145.62,-41 151.62,-41 151.62,-41 241.88,-41 241.88,-41 247.88,-41 253.88,-47 253.88,-53 253.88,-53 253.88,-65 253.88,-65 253.88,-71 247.88,-77 241.88,-77"/>
<text xml:space="preserve" text-anchor="middle" x="196.75" y="-55.5" font-family="Arial" font-size="10.00" fill="#8b0000">complicates reading of</text>
</g>
<!-- unknown.color_encoding&#45;&gt;rel_2 -->
<g id="edge11" class="edge">
<title>unknown.color_encoding&#45;&gt;rel_2</title>
<path fill="none" stroke="#d46a6a" stroke-width="1.5" d="M63.31,-153.3C79.45,-140.26 101.74,-122.65 122,-108 133.63,-99.59 146.58,-90.8 158.35,-83.02"/>
<polygon fill="#d46a6a" stroke="#d46a6a" stroke-width="1.5" points="159.62,-85.54 164.77,-78.81 156.55,-80.86 159.62,-85.54"/>
</g>
<!-- furniture.legend -->
<g id="node3" class="node">
<title>furniture.legend</title>
<path fill="#b8e6b8" stroke="#2c3e50" stroke-width="1.8" d="M361.5,-45C361.5,-45 331.5,-45 331.5,-45 325.5,-45 319.5,-39 319.5,-33 319.5,-33 319.5,-21 319.5,-21 319.5,-15 325.5,-9 331.5,-9 331.5,-9 361.5,-9 361.5,-9 367.5,-9 373.5,-15 373.5,-21 373.5,-21 373.5,-33 373.5,-33 373.5,-39 367.5,-45 361.5,-45"/>
<text xml:space="preserve" text-anchor="middle" x="346.5" y="-23.5" font-family="Arial" font-size="10.00" fill="#1a1a1a">legend</text>
</g>
<!-- attr_4 -->
<g id="node10" class="node">
<title>attr_4</title>
<path fill="#c7b8e6" stroke="#7f8c8d" stroke-width="1.2" d="M552.25,-36C552.25,-36 439.5,-36 439.5,-36 433.5,-36 427.5,-30 427.5,-24 427.5,-24 427.5,-12 427.5,-12 427.5,-6 433.5,0 439.5,0 439.5,0 552.25,0 552.25,0 558.25,0 564.25,-6 564.25,-12 564.25,-12 564.25,-24 564.25,-24 564.25,-30 558.25,-36 552.25,-36"/>
<text xml:space="preserve" text-anchor="middle" x="495.88" y="-14.5" font-family="Arial" font-size="10.00" fill="#1a1a1a">(+) multiple color categories</text>
</g>
<!-- furniture.legend&#45;&gt;attr_4 -->
<g id="edge5" class="edge">
<title>furniture.legend&#45;&gt;attr_4</title>
<path fill="none" stroke="#aaaaaa" d="M374.19,-25.37C386.83,-24.6 402.64,-23.63 418.62,-22.66"/>
<polygon fill="#aaaaaa" stroke="#aaaaaa" points="418.62,-25.11 425.46,-22.24 418.32,-20.22 418.62,-25.11"/>
</g>
<!-- text.axis_label -->
<g id="node4" class="node">
<title>text.axis_label</title>
<path fill="#b8e6b8" stroke="#2c3e50" stroke-width="1.8" d="M671.62,-101C671.62,-101 638.38,-101 638.38,-101 632.38,-101 626.38,-95 626.38,-89 626.38,-89 626.38,-77 626.38,-77 626.38,-71 632.38,-65 638.38,-65 638.38,-65 671.62,-65 671.62,-65 677.62,-65 683.62,-71 683.62,-77 683.62,-77 683.62,-89 683.62,-89 683.62,-95 677.62,-101 671.62,-101"/>
<text xml:space="preserve" text-anchor="middle" x="655" y="-79.5" font-family="Arial" font-size="10.00" fill="#1a1a1a">axis label</text>
</g>
<!-- unknown.layout_structure -->
<g id="node5" class="node">
<title>unknown.layout_structure</title>
<path fill="#b8e6b8" stroke="#2c3e50" stroke-width="1.8" d="M684.75,-166C684.75,-166 625.25,-166 625.25,-166 619.25,-166 613.25,-160 613.25,-154 613.25,-154 613.25,-142 613.25,-142 613.25,-136 619.25,-130 625.25,-130 625.25,-130 684.75,-130 684.75,-130 690.75,-130 696.75,-136 696.75,-142 696.75,-142 696.75,-154 696.75,-154 696.75,-160 690.75,-166 684.75,-166"/>
<text xml:space="preserve" text-anchor="middle" x="655" y="-144.5" font-family="Arial" font-size="10.00" fill="#1a1a1a">layout structure</text>
</g>
<!-- attr_3 -->
<g id="node11" class="node">
<title>attr_3</title>
<path fill="#c7b8e6" stroke="#7f8c8d" stroke-width="1.2" d="M863.75,-166C863.75,-166 751.75,-166 751.75,-166 745.75,-166 739.75,-160 739.75,-154 739.75,-154 739.75,-142 739.75,-142 739.75,-136 745.75,-130 751.75,-130 751.75,-130 863.75,-130 863.75,-130 869.75,-130 875.75,-136 875.75,-142 875.75,-142 875.75,-154 875.75,-154 875.75,-160 869.75,-166 863.75,-166"/>
<text xml:space="preserve" text-anchor="middle" x="807.75" y="-144.5" font-family="Arial" font-size="10.00" fill="#1a1a1a">(+) lacks coherent structure</text>
</g>
<!-- unknown.layout_structure&#45;&gt;attr_3 -->
<g id="edge6" class="edge">
<title>unknown.layout_structure&#45;&gt;attr_3</title>
<path fill="none" stroke="#aaaaaa" d="M697.59,-148C707.97,-148 719.43,-148 730.9,-148"/>
<polygon fill="#aaaaaa" stroke="#aaaaaa" points="730.73,-150.45 737.73,-148 730.73,-145.55 730.73,-150.45"/>
</g>
<!-- rel_0&#45;&gt;unknown.data_points -->
<g id="edge8" class="edge">
<title>rel_0&#45;&gt;unknown.data_points</title>
<path fill="none" stroke="#d46a6a" stroke-width="1.5" d="M231.28,-141.82C252.69,-142.97 280.62,-144.49 303.51,-145.73"/>
<polygon fill="#d46a6a" stroke="#d46a6a" stroke-width="1.5" points="303.22,-148.51 311.36,-146.15 303.52,-142.92 303.22,-148.51"/>
</g>
<!-- rel_1&#45;&gt;unknown.layout_structure -->
<g id="edge10" class="edge">
<title>rel_1&#45;&gt;unknown.layout_structure</title>
<path fill="none" stroke="#d46a6a" stroke-width="1.5" d="M541.9,-148C560.73,-148 582.73,-148 602.23,-148"/>
<polygon fill="#d46a6a" stroke="#d46a6a" stroke-width="1.5" points="602.2,-150.8 610.2,-148 602.2,-145.2 602.2,-150.8"/>
</g>
<!-- rel_2&#45;&gt;furniture.legend -->
<g id="edge12" class="edge">
<title>rel_2&#45;&gt;furniture.legend</title>
<path fill="none" stroke="#d46a6a" stroke-width="1.5" d="M254.45,-46.72C272.78,-42.75 292.61,-38.46 309.06,-34.89"/>
<polygon fill="#d46a6a" stroke="#d46a6a" stroke-width="1.5" points="309.38,-37.69 316.61,-33.26 308.2,-32.21 309.38,-37.69"/>
</g>
<!-- rel_3&#45;&gt;text.axis_label -->
<g id="edge14" class="edge">
<title>rel_3&#45;&gt;text.axis_label</title>
<path fill="none" stroke="#d46a6a" stroke-width="1.5" d="M544.87,-83C567.67,-83 594.55,-83 615.92,-83"/>
<polygon fill="#d46a6a" stroke="#d46a6a" stroke-width="1.5" points="615.66,-85.8 623.66,-83 615.66,-80.2 615.66,-85.8"/>
</g>
</g>
</svg>
