<?xml version="1.0" encoding="UTF-8" standalone="no"?>
<!DOCTYPE svg PUBLIC "-//W3C//DTD SVG 1.1//EN"
 "http://www.w3.org/Graphics/SVG/1.1/DTD/svg11.dtd">
<!-- Generated by graphviz version 14.1.5 (20260411.2331)
 -->
<!-- Title: economist_daily_chart_140.png Pages: 1 -->
<svg width="1145pt" height="502pt"
 viewBox="0.00 0.00 1145.00 502.00" xmlns="http://www.w3.org/2000/svg" xmlns:xlink="http://www.w3.org/1999/xlink">
<g id="graph0" class="graph" transform="scale(1 1) rotate(0) translate(4 498.25)">
<title>economist_daily_chart_140.png</title>
<polygon fill="white" stroke="none" points="-4,4 -4,-498.25 1140.75,-498.25 1140.75,4 -4,4"/>
<text xml:space="preserve" text-anchor="start" x="465.62" y="-473.95" font-family="Arial" font-weight="bold" font-size="14.00">economist_daily_chart_140.png</text>
<text xml:space="preserve" text-anchor="start" x="524.5" y="-454" font-family="Arial" font-size="11.00">Area &#160;| &#160;VC = 0.52</text>
<path fill="#b8e6b8" stroke="none" d="M359,-429C359,-429 367,-429 367,-429 370,-429 373,-432 373,-435 373,-435 373,-441 373,-441 373,-444 370,-447 367,-447 367,-447 359,-447 359,-447 356,-447 353,-444 353,-441 353,-441 353,-435 353,-435 353,-432 356,-429 359,-429"/>
<path fill="none" stroke="black" d="M359,-429C359,-429 367,-429 367,-429 370,-429 373,-432 373,-435 373,-435 373,-441 373,-441 373,-444 370,-447 367,-447 367,-447 359,-447 359,-447 356,-447 353,-444 353,-441 353,-441 353,-435 353,-435 353,-432 356,-429 359,-429"/>
<text xml:space="preserve" text-anchor="start" x="361.5" y="-434.25" font-family="Arial" font-size="10.00"> </text>
<text xml:space="preserve" text-anchor="start" x="377" y="-434.25" font-family="Arial" font-size="10.00">Object</text>
<path fill="#c7b8e6" stroke="none" d="M415.5,-429C415.5,-429 423.5,-429 423.5,-429 426.5,-429 429.5,-432 429.5,-435 429.5,-435 429.5,-441 429.5,-441 429.5,-444 426.5,-447 423.5,-447 423.5,-447 415.5,-447 415.5,-447 412.5,-447 409.5,-444 409.5,-441 409.5,-441 409.5,-435 409.5,-435 409.5,-432 412.5,-429 415.5,-429"/>
<path fill="none" stroke="black" d="M415.5,-429C415.5,-429 423.5,-429 423.5,-429 426.5,-429 429.5,-432 429.5,-435 429.5,-435 429.5,-441 429.5,-441 429.5,-444 426.5,-447 423.5,-447 423.5,-447 415.5,-447 415.5,-447 412.5,-447 409.5,-444 409.5,-441 409.5,-441 409.5,-435 409.5,-435 409.5,-432 412.5,-429 415.5,-429"/>
<text xml:space="preserve" text-anchor="start" x="418" y="-434.25" font-family="Arial" font-size="10.00"> </text>
<text xml:space="preserve" text-anchor="start" x="433.5" y="-434.25" font-family="Arial" font-size="10.00">Attribute</text>
<path fill="#f5b8b8" stroke="none" d="M480.25,-429C480.25,-429 488.25,-429 488.25,-429 491.25,-429 494.25,-432 494.25,-435 494.25,-435 494.25,-441 494.25,-441 494.25,-444 491.25,-447 488.25,-447 488.25,-447 480.25,-447 480.25,-447 477.25,-447 474.25,-444 474.25,-441 474.25,-441 474.25,-435 474.25,-435 474.25,-432 477.25,-429 480.25,-429"/>
<path fill="none" stroke="black" d="M480.25,-429C480.25,-429 488.25,-429 488.25,-429 491.25,-429 494.25,-432 494.25,-435 494.25,-435 494.25,-441 494.25,-441 494.25,-444 491.25,-447 488.25,-447 488.25,-447 480.25,-447 480.25,-447 477.25,-447 474.25,-444 474.25,-441 474.25,-441 474.25,-435 474.25,-435 474.25,-432 477.25,-429 480.25,-429"/>
<text xml:space="preserve" text-anchor="start" x="482.75" y="-434.25" font-family="Arial" font-size="10.00"> </text>
<text xml:space="preserve" text-anchor="start" x="498.25" y="-434.25" font-family="Arial" font-size="10.00">Relationship</text>
<text xml:space="preserve" text-anchor="start" x="558.25" y="-435.5" font-family="Arial" font-weight="bold" font-size="10.00">(+)</text>
<text xml:space="preserve" text-anchor="start" x="570.25" y="-435.5" font-family="Arial" font-size="10.00"> increases complexity</text>
<text xml:space="preserve" text-anchor="start" x="671.5" y="-435.5" font-family="Arial" font-weight="bold" font-size="10.00">(−)</text>
<text xml:space="preserve" text-anchor="start" x="683.5" y="-435.5" font-family="Arial" font-size="10.00"> decreases complexity</text>
<!-- unknown.world_map -->
<g id="node1" class="node">
<title>unknown.world_map</title>
<path fill="#b8e6b8" stroke="#2c3e50" stroke-width="1.8" d="M644.75,-166C644.75,-166 607.75,-166 607.75,-166 601.75,-166 595.75,-160 595.75,-154 595.75,-154 595.75,-142 595.75,-142 595.75,-136 601.75,-130 607.75,-130 607.75,-130 644.75,-130 644.75,-130 650.75,-130 656.75,-136 656.75,-142 656.75,-142 656.75,-154 656.75,-154 656.75,-160 650.75,-166 644.75,-166"/>
<text xml:space="preserve" text-anchor="middle" x="626.25" y="-144.5" font-family="Arial" font-size="10.00" fill="#1a1a1a">world map</text>
</g>
<!-- attr_0 -->
<g id="node8" class="node">
<title>attr_0</title>
<path fill="#c7b8e6" stroke="#7f8c8d" stroke-width="1.2" d="M853,-231C853,-231 711.75,-231 711.75,-231 705.75,-231 699.75,-225 699.75,-219 699.75,-219 699.75,-207 699.75,-207 699.75,-201 705.75,-195 711.75,-195 711.75,-195 853,-195 853,-195 859,-195 865,-201 865,-207 865,-207 865,-219 865,-219 865,-225 859,-231 853,-231"/>
<text xml:space="preserve" text-anchor="middle" x="782.38" y="-209.5" font-family="Arial" font-size="10.00" fill="#1a1a1a">(+) requires geographic knowledge</text>
</g>
<!-- unknown.world_map&#45;&gt;attr_0 -->
<g id="edge1" class="edge">
<title>unknown.world_map&#45;&gt;attr_0</title>
<path fill="none" stroke="#aaaaaa" d="M657.49,-161.6C670.46,-167.37 685.81,-174.11 699.75,-180 708.46,-183.68 717.73,-187.51 726.78,-191.2"/>
<polygon fill="#aaaaaa" stroke="#aaaaaa" points="725.84,-193.47 733.25,-193.83 727.69,-188.93 725.84,-193.47"/>
</g>
<!-- attr_1 -->
<g id="node9" class="node">
<title>attr_1</title>
<path fill="#c7b8e6" stroke="#7f8c8d" stroke-width="1.2" d="M837.25,-166C837.25,-166 727.5,-166 727.5,-166 721.5,-166 715.5,-160 715.5,-154 715.5,-154 715.5,-142 715.5,-142 715.5,-136 721.5,-130 727.5,-130 727.5,-130 837.25,-130 837.25,-130 843.25,-130 849.25,-136 849.25,-142 849.25,-142 849.25,-154 849.25,-154 849.25,-160 843.25,-166 837.25,-166"/>
<text xml:space="preserve" text-anchor="middle" x="782.38" y="-144.5" font-family="Arial" font-size="10.00" fill="#1a1a1a">(+) unfamiliar spatial layout</text>
</g>
<!-- unknown.world_map&#45;&gt;attr_1 -->
<g id="edge2" class="edge">
<title>unknown.world_map&#45;&gt;attr_1</title>
<path fill="none" stroke="#aaaaaa" d="M657.33,-148C671.61,-148 689.38,-148 706.96,-148"/>
<polygon fill="#aaaaaa" stroke="#aaaaaa" points="706.5,-150.45 713.5,-148 706.5,-145.55 706.5,-150.45"/>
</g>
<!-- rel_0 -->
<g id="node15" class="node">
<title>rel_0</title>
<path fill="#f5b8b8" stroke="#d46a6a" stroke-width="1.2" d="M824.12,-101C824.12,-101 740.62,-101 740.62,-101 734.62,-101 728.62,-95 728.62,-89 728.62,-89 728.62,-77 728.62,-77 728.62,-71 734.62,-65 740.62,-65 740.62,-65 824.12,-65 824.12,-65 830.12,-65 836.12,-71 836.12,-77 836.12,-77 836.12,-89 836.12,-89 836.12,-95 830.12,-101 824.12,-101"/>
<text xml:space="preserve" text-anchor="middle" x="782.38" y="-79.5" font-family="Arial" font-size="10.00" fill="#8b0000">requires expertise for</text>
</g>
<!-- unknown.world_map&#45;&gt;rel_0 -->
<g id="edge8" class="edge">
<title>unknown.world_map&#45;&gt;rel_0</title>
<path fill="none" stroke="#d46a6a" stroke-width="1.5" d="M657.43,-133.83C670.39,-127.86 685.74,-120.93 699.75,-115 707.41,-111.76 715.51,-108.44 723.53,-105.23"/>
<polygon fill="#d46a6a" stroke="#d46a6a" stroke-width="1.5" points="724.35,-107.92 730.75,-102.36 722.28,-102.72 724.35,-107.92"/>
</g>
<!-- property.color -->
<g id="node2" class="node">
<title>property.color</title>
<path fill="#b8e6b8" stroke="#2c3e50" stroke-width="1.8" d="M61.75,-293C61.75,-293 12,-293 12,-293 6,-293 0,-287 0,-281 0,-281 0,-269 0,-269 0,-263 6,-257 12,-257 12,-257 61.75,-257 61.75,-257 67.75,-257 73.75,-263 73.75,-269 73.75,-269 73.75,-281 73.75,-281 73.75,-287 67.75,-293 61.75,-293"/>
<text xml:space="preserve" text-anchor="middle" x="36.88" y="-271.5" font-family="Arial" font-size="10.00" fill="#1a1a1a">color shading</text>
</g>
<!-- attr_2 -->
<g id="node10" class="node">
<title>attr_2</title>
<path fill="#c7b8e6" stroke="#7f8c8d" stroke-width="1.2" d="M254.62,-355C254.62,-355 131.38,-355 131.38,-355 125.38,-355 119.38,-349 119.38,-343 119.38,-343 119.38,-331 119.38,-331 119.38,-325 125.38,-319 131.38,-319 131.38,-319 254.62,-319 254.62,-319 260.62,-319 266.62,-325 266.62,-331 266.62,-331 266.62,-343 266.62,-343 266.62,-349 260.62,-355 254.62,-355"/>
<text xml:space="preserve" text-anchor="middle" x="193" y="-333.5" font-family="Arial" font-size="10.00" fill="#1a1a1a">(+) unclear colormap encoding</text>
</g>
<!-- property.color&#45;&gt;attr_2 -->
<g id="edge3" class="edge">
<title>property.color&#45;&gt;attr_2</title>
<path fill="none" stroke="#aaaaaa" d="M74.4,-289.69C93.43,-297.35 117.06,-306.86 138.15,-315.34"/>
<polygon fill="#aaaaaa" stroke="#aaaaaa" points="136.97,-317.5 144.38,-317.84 138.8,-312.96 136.97,-317.5"/>
</g>
<!-- rel_1 -->
<g id="node16" class="node">
<title>rel_1</title>
<path fill="#f5b8b8" stroke="#d46a6a" stroke-width="1.2" d="M642.12,-293C642.12,-293 610.38,-293 610.38,-293 604.38,-293 598.38,-287 598.38,-281 598.38,-281 598.38,-269 598.38,-269 598.38,-263 604.38,-257 610.38,-257 610.38,-257 642.12,-257 642.12,-257 648.12,-257 654.12,-263 654.12,-269 654.12,-269 654.12,-281 654.12,-281 654.12,-287 648.12,-293 642.12,-293"/>
<text xml:space="preserve" text-anchor="middle" x="626.25" y="-271.5" font-family="Arial" font-size="10.00" fill="#8b0000">obscures</text>
</g>
<!-- property.color&#45;&gt;rel_1 -->
<g id="edge10" class="edge">
<title>property.color&#45;&gt;rel_1</title>
<path fill="none" stroke="#d46a6a" stroke-width="1.5" d="M74.62,-275C179.88,-275 481.77,-275 587.85,-275"/>
<polygon fill="#d46a6a" stroke="#d46a6a" stroke-width="1.5" points="587.8,-277.8 595.8,-275 587.8,-272.2 587.8,-277.8"/>
</g>
<!-- rel_4 -->
<g id="node19" class="node">
<title>rel_4</title>
<path fill="#f5b8b8" stroke="#d46a6a" stroke-width="1.2" d="M208.88,-231C208.88,-231 177.12,-231 177.12,-231 171.12,-231 165.12,-225 165.12,-219 165.12,-219 165.12,-207 165.12,-207 165.12,-201 171.12,-195 177.12,-195 177.12,-195 208.88,-195 208.88,-195 214.88,-195 220.88,-201 220.88,-207 220.88,-207 220.88,-219 220.88,-219 220.88,-225 214.88,-231 208.88,-231"/>
<text xml:space="preserve" text-anchor="middle" x="193" y="-209.5" font-family="Arial" font-size="10.00" fill="#8b0000">confuses</text>
</g>
<!-- property.color&#45;&gt;rel_4 -->
<g id="edge16" class="edge">
<title>property.color&#45;&gt;rel_4</title>
<path fill="none" stroke="#d46a6a" stroke-width="1.5" d="M74.4,-260.31C98.92,-250.44 131.09,-237.5 155.59,-227.65"/>
<polygon fill="#d46a6a" stroke="#d46a6a" stroke-width="1.5" points="156.42,-230.33 162.79,-224.75 154.33,-225.14 156.42,-230.33"/>
</g>
<!-- unknown.x_axis -->
<g id="node3" class="node">
<title>unknown.x_axis</title>
<path fill="#b8e6b8" stroke="#2c3e50" stroke-width="1.8" d="M354.25,-69C354.25,-69 324.25,-69 324.25,-69 318.25,-69 312.25,-63 312.25,-57 312.25,-57 312.25,-45 312.25,-45 312.25,-39 318.25,-33 324.25,-33 324.25,-33 354.25,-33 354.25,-33 360.25,-33 366.25,-39 366.25,-45 366.25,-45 366.25,-57 366.25,-57 366.25,-63 360.25,-69 354.25,-69"/>
<text xml:space="preserve" text-anchor="middle" x="339.25" y="-47.5" font-family="Arial" font-size="10.00" fill="#1a1a1a">x axis</text>
</g>
<!-- attr_3 -->
<g id="node11" class="node">
<title>attr_3</title>
<path fill="#c7b8e6" stroke="#7f8c8d" stroke-width="1.2" d="M531,-101C531,-101 431,-101 431,-101 425,-101 419,-95 419,-89 419,-89 419,-77 419,-77 419,-71 425,-65 431,-65 431,-65 531,-65 531,-65 537,-65 543,-71 543,-77 543,-77 543,-89 543,-89 543,-95 537,-101 531,-101"/>
<text xml:space="preserve" text-anchor="middle" x="481" y="-79.5" font-family="Arial" font-size="10.00" fill="#1a1a1a">(+) multiple axes present</text>
</g>
<!-- unknown.x_axis&#45;&gt;attr_3 -->
<g id="edge4" class="edge">
<title>unknown.x_axis&#45;&gt;attr_3</title>
<path fill="none" stroke="#aaaaaa" d="M366.86,-57.09C379.34,-59.95 394.85,-63.5 410.35,-67.05"/>
<polygon fill="#aaaaaa" stroke="#aaaaaa" points="409.59,-69.39 416.96,-68.56 410.68,-64.61 409.59,-69.39"/>
</g>
<!-- rel_3 -->
<g id="node18" class="node">
<title>rel_3</title>
<path fill="#f5b8b8" stroke="#d46a6a" stroke-width="1.2" d="M518.25,-36C518.25,-36 443.75,-36 443.75,-36 437.75,-36 431.75,-30 431.75,-24 431.75,-24 431.75,-12 431.75,-12 431.75,-6 437.75,0 443.75,0 443.75,0 518.25,0 518.25,0 524.25,0 530.25,-6 530.25,-12 530.25,-12 530.25,-24 530.25,-24 530.25,-30 524.25,-36 518.25,-36"/>
<text xml:space="preserve" text-anchor="middle" x="481" y="-14.5" font-family="Arial" font-size="10.00" fill="#8b0000">adds complexity to</text>
</g>
<!-- unknown.x_axis&#45;&gt;rel_3 -->
<g id="edge14" class="edge">
<title>unknown.x_axis&#45;&gt;rel_3</title>
<path fill="none" stroke="#d46a6a" stroke-width="1.5" d="M366.86,-44.72C382.38,-41.05 402.58,-36.28 421.61,-31.79"/>
<polygon fill="#d46a6a" stroke="#d46a6a" stroke-width="1.5" points="422.07,-34.56 429.21,-29.99 420.78,-29.11 422.07,-34.56"/>
</g>
<!-- unknown.y_axis -->
<g id="node4" class="node">
<title>unknown.y_axis</title>
<path fill="#b8e6b8" stroke="#2c3e50" stroke-width="1.8" d="M51.88,-358C51.88,-358 21.88,-358 21.88,-358 15.88,-358 9.88,-352 9.88,-346 9.88,-346 9.88,-334 9.88,-334 9.88,-328 15.88,-322 21.88,-322 21.88,-322 51.88,-322 51.88,-322 57.88,-322 63.88,-328 63.88,-334 63.88,-334 63.88,-346 63.88,-346 63.88,-352 57.88,-358 51.88,-358"/>
<text xml:space="preserve" text-anchor="middle" x="36.88" y="-336.5" font-family="Arial" font-size="10.00" fill="#1a1a1a">y axis</text>
</g>
<!-- furniture.legend -->
<g id="node5" class="node">
<title>furniture.legend</title>
<path fill="#b8e6b8" stroke="#2c3e50" stroke-width="1.8" d="M354.25,-231C354.25,-231 324.25,-231 324.25,-231 318.25,-231 312.25,-225 312.25,-219 312.25,-219 312.25,-207 312.25,-207 312.25,-201 318.25,-195 324.25,-195 324.25,-195 354.25,-195 354.25,-195 360.25,-195 366.25,-201 366.25,-207 366.25,-207 366.25,-219 366.25,-219 366.25,-225 360.25,-231 354.25,-231"/>
<text xml:space="preserve" text-anchor="middle" x="339.25" y="-209.5" font-family="Arial" font-size="10.00" fill="#1a1a1a">legend</text>
</g>
<!-- attr_5 -->
<g id="node12" class="node">
<title>attr_5</title>
<path fill="#c7b8e6" stroke="#7f8c8d" stroke-width="1.2" d="M540.75,-231C540.75,-231 421.25,-231 421.25,-231 415.25,-231 409.25,-225 409.25,-219 409.25,-219 409.25,-207 409.25,-207 409.25,-201 415.25,-195 421.25,-195 421.25,-195 540.75,-195 540.75,-195 546.75,-195 552.75,-201 552.75,-207 552.75,-207 552.75,-219 552.75,-219 552.75,-225 546.75,-231 540.75,-231"/>
<text xml:space="preserve" text-anchor="middle" x="481" y="-209.5" font-family="Arial" font-size="10.00" fill="#1a1a1a">(+) requires cross referencing</text>
</g>
<!-- furniture.legend&#45;&gt;attr_5 -->
<g id="edge5" class="edge">
<title>furniture.legend&#45;&gt;attr_5</title>
<path fill="none" stroke="#aaaaaa" d="M366.86,-213C376.65,-213 388.29,-213 400.33,-213"/>
<polygon fill="#aaaaaa" stroke="#aaaaaa" points="400.2,-215.45 407.2,-213 400.2,-210.55 400.2,-215.45"/>
</g>
<!-- rel_2 -->
<g id="node17" class="node">
<title>rel_2</title>
<path fill="#f5b8b8" stroke="#d46a6a" stroke-width="1.2" d="M517.5,-166C517.5,-166 444.5,-166 444.5,-166 438.5,-166 432.5,-160 432.5,-154 432.5,-154 432.5,-142 432.5,-142 432.5,-136 438.5,-130 444.5,-130 444.5,-130 517.5,-130 517.5,-130 523.5,-130 529.5,-136 529.5,-142 529.5,-142 529.5,-154 529.5,-154 529.5,-160 523.5,-166 517.5,-166"/>
<text xml:space="preserve" text-anchor="middle" x="481" y="-144.5" font-family="Arial" font-size="10.00" fill="#8b0000">increases effort for</text>
</g>
<!-- furniture.legend&#45;&gt;rel_2 -->
<g id="edge12" class="edge">
<title>furniture.legend&#45;&gt;rel_2</title>
<path fill="none" stroke="#d46a6a" stroke-width="1.5" d="M367.06,-200.02C379.81,-193.88 395.28,-186.5 409.25,-180 415.8,-176.95 422.72,-173.77 429.55,-170.66"/>
<polygon fill="#d46a6a" stroke="#d46a6a" stroke-width="1.5" points="430.59,-173.26 436.71,-167.4 428.27,-168.17 430.59,-173.26"/>
</g>
<!-- unknown.country_label -->
<g id="node6" class="node">
<title>unknown.country_label</title>
<path fill="#b8e6b8" stroke="#2c3e50" stroke-width="1.8" d="M967.5,-197C967.5,-197 920,-197 920,-197 914,-197 908,-191 908,-185 908,-185 908,-173 908,-173 908,-167 914,-161 920,-161 920,-161 967.5,-161 967.5,-161 973.5,-161 979.5,-167 979.5,-173 979.5,-173 979.5,-185 979.5,-185 979.5,-191 973.5,-197 967.5,-197"/>
<text xml:space="preserve" text-anchor="middle" x="943.75" y="-175.5" font-family="Arial" font-size="10.00" fill="#1a1a1a">country label</text>
</g>
<!-- attr_4 -->
<g id="node13" class="node">
<title>attr_4</title>
<path fill="#c7b8e6" stroke="#7f8c8d" stroke-width="1.2" d="M1124.75,-197C1124.75,-197 1034.5,-197 1034.5,-197 1028.5,-197 1022.5,-191 1022.5,-185 1022.5,-185 1022.5,-173 1022.5,-173 1022.5,-167 1028.5,-161 1034.5,-161 1034.5,-161 1124.75,-161 1124.75,-161 1130.75,-161 1136.75,-167 1136.75,-173 1136.75,-173 1136.75,-185 1136.75,-185 1136.75,-191 1130.75,-197 1124.75,-197"/>
<text xml:space="preserve" text-anchor="middle" x="1079.62" y="-175.5" font-family="Arial" font-size="10.00" fill="#1a1a1a">(+) absent inline labels</text>
</g>
<!-- unknown.country_label&#45;&gt;attr_4 -->
<g id="edge6" class="edge">
<title>unknown.country_label&#45;&gt;attr_4</title>
<path fill="none" stroke="#aaaaaa" d="M980.27,-179C990.56,-179 1002.12,-179 1013.61,-179"/>
<polygon fill="#aaaaaa" stroke="#aaaaaa" points="1013.43,-181.45 1020.43,-179 1013.43,-176.55 1013.43,-181.45"/>
</g>
<!-- text.title -->
<g id="node7" class="node">
<title>text.title</title>
<path fill="#b8e6b8" stroke="#2c3e50" stroke-width="1.8" d="M51.88,-423C51.88,-423 21.88,-423 21.88,-423 15.88,-423 9.88,-417 9.88,-411 9.88,-411 9.88,-399 9.88,-399 9.88,-393 15.88,-387 21.88,-387 21.88,-387 51.88,-387 51.88,-387 57.88,-387 63.88,-393 63.88,-399 63.88,-399 63.88,-411 63.88,-411 63.88,-417 57.88,-423 51.88,-423"/>
<text xml:space="preserve" text-anchor="middle" x="36.88" y="-401.5" font-family="Arial" font-size="10.00" fill="#1a1a1a">title</text>
</g>
<!-- attr_6 -->
<g id="node14" class="node">
<title>attr_6</title>
<path fill="#c7b8e6" stroke="#7f8c8d" stroke-width="1.2" d="M257.25,-423C257.25,-423 128.75,-423 128.75,-423 122.75,-423 116.75,-417 116.75,-411 116.75,-411 116.75,-399 116.75,-399 116.75,-393 122.75,-387 128.75,-387 128.75,-387 257.25,-387 257.25,-387 263.25,-387 269.25,-393 269.25,-399 269.25,-399 269.25,-411 269.25,-411 269.25,-417 263.25,-423 257.25,-423"/>
<text xml:space="preserve" text-anchor="middle" x="193" y="-401.5" font-family="Arial" font-size="10.00" fill="#1a1a1a">(+) insufficient context provided</text>
</g>
<!-- text.title&#45;&gt;attr_6 -->
<g id="edge7" class="edge">
<title>text.title&#45;&gt;attr_6</title>
<path fill="none" stroke="#aaaaaa" d="M64.72,-405C77.06,-405 92.44,-405 108.2,-405"/>
<polygon fill="#aaaaaa" stroke="#aaaaaa" points="107.95,-407.45 114.95,-405 107.95,-402.55 107.95,-407.45"/>
</g>
<!-- rel_0&#45;&gt;unknown.country_label -->
<g id="edge9" class="edge">
<title>rel_0&#45;&gt;unknown.country_label</title>
<path fill="none" stroke="#d46a6a" stroke-width="1.5" d="M836.34,-100.94C846.13,-105.04 856.08,-109.76 865,-115 883.32,-125.76 901.76,-140.72 916.08,-153.47"/>
<polygon fill="#d46a6a" stroke="#d46a6a" stroke-width="1.5" points="914.1,-155.46 921.91,-158.77 917.87,-151.31 914.1,-155.46"/>
</g>
<!-- rel_1&#45;&gt;unknown.country_label -->
<g id="edge11" class="edge">
<title>rel_1&#45;&gt;unknown.country_label</title>
<path fill="none" stroke="#d46a6a" stroke-width="1.5" d="M654.62,-276.68C700.31,-278.42 794.07,-277.36 865,-246 886.09,-236.67 905.73,-219.65 920,-205.1"/>
<polygon fill="#d46a6a" stroke="#d46a6a" stroke-width="1.5" points="921.91,-207.15 925.38,-199.41 917.85,-203.29 921.91,-207.15"/>
</g>
<!-- rel_2&#45;&gt;unknown.world_map -->
<g id="edge13" class="edge">
<title>rel_2&#45;&gt;unknown.world_map</title>
<path fill="none" stroke="#d46a6a" stroke-width="1.5" d="M530.1,-148C547.87,-148 567.81,-148 584.83,-148"/>
<polygon fill="#d46a6a" stroke="#d46a6a" stroke-width="1.5" points="584.74,-150.8 592.74,-148 584.74,-145.2 584.74,-150.8"/>
</g>
<!-- rel_3&#45;&gt;unknown.world_map -->
<g id="edge15" class="edge">
<title>rel_3&#45;&gt;unknown.world_map</title>
<path fill="none" stroke="#d46a6a" stroke-width="1.5" d="M530.74,-36.04C538.5,-40.02 546.14,-44.66 552.75,-50 576.95,-69.55 597.27,-98.96 610.18,-120.46"/>
<polygon fill="#d46a6a" stroke="#d46a6a" stroke-width="1.5" points="607.65,-121.68 614.1,-127.18 612.48,-118.86 607.65,-121.68"/>
</g>
<!-- rel_4&#45;&gt;furniture.legend -->
<g id="edge17" class="edge">
<title>rel_4&#45;&gt;furniture.legend</title>
<path fill="none" stroke="#d46a6a" stroke-width="1.5" d="M221.47,-213C244.07,-213 276.32,-213 301.2,-213"/>
<polygon fill="#d46a6a" stroke="#d46a6a" stroke-width="1.5" points="301.1,-215.8 309.1,-213 301.1,-210.2 301.1,-215.8"/>
</g>
</g>
</svg>
