<?xml version="1.0" encoding="UTF-8" standalone="no"?>
<!DOCTYPE svg PUBLIC "-//W3C//DTD SVG 1.1//EN"
 "http://www.w3.org/Graphics/SVG/1.1/DTD/svg11.dtd">
<!-- Generated by graphviz version 14.1.5 (20260411.2331)
 -->
<!-- Title: economist_daily_chart_406.png Pages: 1 -->
<svg width="651pt" height="440pt"
 viewBox="0.00 0.00 651.00 440.00" xmlns="http://www.w3.org/2000/svg" xmlns:xlink="http://www.w3.org/1999/xlink">
<g id="graph0" class="graph" transform="scale(1 1) rotate(0) translate(4 436.25)">
<title>economist_daily_chart_406.png</title>
<polygon fill="white" stroke="none" points="-4,4 -4,-436.25 646.5,-436.25 646.5,4 -4,4"/>
<text xml:space="preserve" text-anchor="start" x="218.5" y="-411.95" font-family="Arial" font-weight="bold" font-size="14.00">economist_daily_chart_406.png</text>
<text xml:space="preserve" text-anchor="start" x="277.38" y="-392" font-family="Arial" font-size="11.00">Area &#160;| &#160;VC = 0.59</text>
<path fill="#b8e6b8" stroke="none" d="M111.88,-367C111.88,-367 119.88,-367 119.88,-367 122.88,-367 125.88,-370 125.88,-373 125.88,-373 125.88,-379 125.88,-379 125.88,-382 122.88,-385 119.88,-385 119.88,-385 111.88,-385 111.88,-385 108.88,-385 105.88,-382 105.88,-379 105.88,-379 105.88,-373 105.88,-373 105.88,-370 108.88,-367 111.88,-367"/>
<path fill="none" stroke="black" d="M111.88,-367C111.88,-367 119.88,-367 119.88,-367 122.88,-367 125.88,-370 125.88,-373 125.88,-373 125.88,-379 125.88,-379 125.88,-382 122.88,-385 119.88,-385 119.88,-385 111.88,-385 111.88,-385 108.88,-385 105.88,-382 105.88,-379 105.88,-379 105.88,-373 105.88,-373 105.88,-370 108.88,-367 111.88,-367"/>
<text xml:space="preserve" text-anchor="start" x="114.38" y="-372.25" font-family="Arial" font-size="10.00"> </text>
<text xml:space="preserve" text-anchor="start" x="129.88" y="-372.25" font-family="Arial" font-size="10.00">Object</text>
<path fill="#c7b8e6" stroke="none" d="M168.38,-367C168.38,-367 176.38,-367 176.38,-367 179.38,-367 182.38,-370 182.38,-373 182.38,-373 182.38,-379 182.38,-379 182.38,-382 179.38,-385 176.38,-385 176.38,-385 168.38,-385 168.38,-385 165.38,-385 162.38,-382 162.38,-379 162.38,-379 162.38,-373 162.38,-373 162.38,-370 165.38,-367 168.38,-367"/>
<path fill="none" stroke="black" d="M168.38,-367C168.38,-367 176.38,-367 176.38,-367 179.38,-367 182.38,-370 182.38,-373 182.38,-373 182.38,-379 182.38,-379 182.38,-382 179.38,-385 176.38,-385 176.38,-385 168.38,-385 168.38,-385 165.38,-385 162.38,-382 162.38,-379 162.38,-379 162.38,-373 162.38,-373 162.38,-370 165.38,-367 168.38,-367"/>
<text xml:space="preserve" text-anchor="start" x="170.88" y="-372.25" font-family="Arial" font-size="10.00"> </text>
<text xml:space="preserve" text-anchor="start" x="186.38" y="-372.25" font-family="Arial" font-size="10.00">Attribute</text>
<path fill="#f5b8b8" stroke="none" d="M233.12,-367C233.12,-367 241.12,-367 241.12,-367 244.12,-367 247.12,-370 247.12,-373 247.12,-373 247.12,-379 247.12,-379 247.12,-382 244.12,-385 241.12,-385 241.12,-385 233.12,-385 233.12,-385 230.12,-385 227.12,-382 227.12,-379 227.12,-379 227.12,-373 227.12,-373 227.12,-370 230.12,-367 233.12,-367"/>
<path fill="none" stroke="black" d="M233.12,-367C233.12,-367 241.12,-367 241.12,-367 244.12,-367 247.12,-370 247.12,-373 247.12,-373 247.12,-379 247.12,-379 247.12,-382 244.12,-385 241.12,-385 241.12,-385 233.12,-385 233.12,-385 230.12,-385 227.12,-382 227.12,-379 227.12,-379 227.12,-373 227.12,-373 227.12,-370 230.12,-367 233.12,-367"/>
<text xml:space="preserve" text-anchor="start" x="235.62" y="-372.25" font-family="Arial" font-size="10.00"> </text>
<text xml:space="preserve" text-anchor="start" x="251.12" y="-372.25" font-family="Arial" font-size="10.00">Relationship</text>
<text xml:space="preserve" text-anchor="start" x="311.12" y="-373.5" font-family="Arial" font-weight="bold" font-size="10.00">(+)</text>
<text xml:space="preserve" text-anchor="start" x="323.12" y="-373.5" font-family="Arial" font-size="10.00"> increases complexity</text>
<text xml:space="preserve" text-anchor="start" x="424.38" y="-373.5" font-family="Arial" font-weight="bold" font-size="10.00">(−)</text>
<text xml:space="preserve" text-anchor="start" x="436.38" y="-373.5" font-family="Arial" font-size="10.00"> decreases complexity</text>
<!-- whole.visualization -->
<g id="node1" class="node">
<title>whole.visualization</title>
<path fill="#b8e6b8" stroke="#2c3e50" stroke-width="1.8" d="M319.75,-166C319.75,-166 289.75,-166 289.75,-166 283.75,-166 277.75,-160 277.75,-154 277.75,-154 277.75,-142 277.75,-142 277.75,-136 283.75,-130 289.75,-130 289.75,-130 319.75,-130 319.75,-130 325.75,-130 331.75,-136 331.75,-142 331.75,-142 331.75,-154 331.75,-154 331.75,-160 325.75,-166 319.75,-166"/>
<text xml:space="preserve" text-anchor="middle" x="304.75" y="-144.5" font-family="Arial" font-size="10.00" fill="#1a1a1a">map</text>
</g>
<!-- attr_0 -->
<g id="node6" class="node">
<title>attr_0</title>
<path fill="#c7b8e6" stroke="#7f8c8d" stroke-width="1.2" d="M526.5,-231C526.5,-231 386.75,-231 386.75,-231 380.75,-231 374.75,-225 374.75,-219 374.75,-219 374.75,-207 374.75,-207 374.75,-201 380.75,-195 386.75,-195 386.75,-195 526.5,-195 526.5,-195 532.5,-195 538.5,-201 538.5,-207 538.5,-207 538.5,-219 538.5,-219 538.5,-225 532.5,-231 526.5,-231"/>
<text xml:space="preserve" text-anchor="middle" x="456.62" y="-209.5" font-family="Arial" font-size="10.00" fill="#1a1a1a">(−) immediately recognizable form</text>
</g>
<!-- whole.visualization&#45;&gt;attr_0 -->
<g id="edge1" class="edge">
<title>whole.visualization&#45;&gt;attr_0</title>
<path fill="none" stroke="#aaaaaa" d="M332.42,-161.29C345.14,-167.49 360.63,-174.84 374.75,-181 382.62,-184.43 390.98,-187.92 399.22,-191.26"/>
<polygon fill="#aaaaaa" stroke="#aaaaaa" points="398.26,-193.52 405.67,-193.86 400.09,-188.97 398.26,-193.52"/>
</g>
<!-- attr_1 -->
<g id="node7" class="node">
<title>attr_1</title>
<path fill="#c7b8e6" stroke="#7f8c8d" stroke-width="1.2" d="M525.38,-166C525.38,-166 387.88,-166 387.88,-166 381.88,-166 375.88,-160 375.88,-154 375.88,-154 375.88,-142 375.88,-142 375.88,-136 381.88,-130 387.88,-130 387.88,-130 525.38,-130 525.38,-130 531.38,-130 537.38,-136 537.38,-142 537.38,-142 537.38,-154 537.38,-154 537.38,-160 531.38,-166 525.38,-166"/>
<text xml:space="preserve" text-anchor="middle" x="456.62" y="-144.5" font-family="Arial" font-size="10.00" fill="#1a1a1a">(−) familiar geographic representa</text>
</g>
<!-- whole.visualization&#45;&gt;attr_1 -->
<g id="edge2" class="edge">
<title>whole.visualization&#45;&gt;attr_1</title>
<path fill="none" stroke="#aaaaaa" d="M332.54,-148C342.56,-148 354.56,-148 367.09,-148"/>
<polygon fill="#aaaaaa" stroke="#aaaaaa" points="366.87,-150.45 373.87,-148 366.87,-145.55 366.87,-150.45"/>
</g>
<!-- rel_2 -->
<g id="node13" class="node">
<title>rel_2</title>
<path fill="#f5b8b8" stroke="#d46a6a" stroke-width="1.2" d="M514.5,-101C514.5,-101 398.75,-101 398.75,-101 392.75,-101 386.75,-95 386.75,-89 386.75,-89 386.75,-77 386.75,-77 386.75,-71 392.75,-65 398.75,-65 398.75,-65 514.5,-65 514.5,-65 520.5,-65 526.5,-71 526.5,-77 526.5,-77 526.5,-89 526.5,-89 526.5,-95 520.5,-101 514.5,-101"/>
<text xml:space="preserve" text-anchor="middle" x="456.62" y="-79.5" font-family="Arial" font-size="10.00" fill="#8b0000">reduces processing effort for</text>
</g>
<!-- whole.visualization&#45;&gt;rel_2 -->
<g id="edge10" class="edge">
<title>whole.visualization&#45;&gt;rel_2</title>
<path fill="none" stroke="#d46a6a" stroke-width="1.5" d="M332.49,-135.25C345.22,-129.26 360.71,-122.12 374.75,-116 382.83,-112.48 391.41,-108.86 399.85,-105.36"/>
<polygon fill="#d46a6a" stroke="#d46a6a" stroke-width="1.5" points="400.85,-107.98 407.18,-102.34 398.72,-102.8 400.85,-107.98"/>
</g>
<!-- text.axis_label -->
<g id="node2" class="node">
<title>text.axis_label</title>
<path fill="#b8e6b8" stroke="#2c3e50" stroke-width="1.8" d="M45.25,-69C45.25,-69 12,-69 12,-69 6,-69 0,-63 0,-57 0,-57 0,-45 0,-45 0,-39 6,-33 12,-33 12,-33 45.25,-33 45.25,-33 51.25,-33 57.25,-39 57.25,-45 57.25,-45 57.25,-57 57.25,-57 57.25,-63 51.25,-69 45.25,-69"/>
<text xml:space="preserve" text-anchor="middle" x="28.62" y="-47.5" font-family="Arial" font-size="10.00" fill="#1a1a1a">axis label</text>
</g>
<!-- attr_2 -->
<g id="node8" class="node">
<title>attr_2</title>
<path fill="#c7b8e6" stroke="#7f8c8d" stroke-width="1.2" d="M219.38,-101C219.38,-101 115.62,-101 115.62,-101 109.62,-101 103.62,-95 103.62,-89 103.62,-89 103.62,-77 103.62,-77 103.62,-71 109.62,-65 115.62,-65 115.62,-65 219.38,-65 219.38,-65 225.38,-65 231.38,-71 231.38,-77 231.38,-77 231.38,-89 231.38,-89 231.38,-95 225.38,-101 219.38,-101"/>
<text xml:space="preserve" text-anchor="middle" x="167.5" y="-79.5" font-family="Arial" font-size="10.00" fill="#1a1a1a">(−) clear and easy to read</text>
</g>
<!-- text.axis_label&#45;&gt;attr_2 -->
<g id="edge3" class="edge">
<title>text.axis_label&#45;&gt;attr_2</title>
<path fill="none" stroke="#aaaaaa" d="M57.99,-57.63C68.88,-60.18 81.87,-63.21 95,-66.28"/>
<polygon fill="#aaaaaa" stroke="#aaaaaa" points="94.34,-68.64 101.71,-67.85 95.45,-63.87 94.34,-68.64"/>
</g>
<!-- rel_1 -->
<g id="node12" class="node">
<title>rel_1</title>
<path fill="#f5b8b8" stroke="#d46a6a" stroke-width="1.2" d="M211.5,-36C211.5,-36 123.5,-36 123.5,-36 117.5,-36 111.5,-30 111.5,-24 111.5,-24 111.5,-12 111.5,-12 111.5,-6 117.5,0 123.5,0 123.5,0 211.5,0 211.5,0 217.5,0 223.5,-6 223.5,-12 223.5,-12 223.5,-24 223.5,-24 223.5,-30 217.5,-36 211.5,-36"/>
<text xml:space="preserve" text-anchor="middle" x="167.5" y="-14.5" font-family="Arial" font-size="10.00" fill="#8b0000">supports readability of</text>
</g>
<!-- text.axis_label&#45;&gt;rel_1 -->
<g id="edge8" class="edge">
<title>text.axis_label&#45;&gt;rel_1</title>
<path fill="none" stroke="#d46a6a" stroke-width="1.5" d="M57.99,-44.16C70.58,-41.13 85.96,-37.42 101.14,-33.76"/>
<polygon fill="#d46a6a" stroke="#d46a6a" stroke-width="1.5" points="101.73,-36.5 108.85,-31.9 100.42,-31.05 101.73,-36.5"/>
</g>
<!-- text.title -->
<g id="node3" class="node">
<title>text.title</title>
<path fill="#b8e6b8" stroke="#2c3e50" stroke-width="1.8" d="M43.62,-263C43.62,-263 13.62,-263 13.62,-263 7.62,-263 1.62,-257 1.62,-251 1.62,-251 1.62,-239 1.62,-239 1.62,-233 7.62,-227 13.62,-227 13.62,-227 43.62,-227 43.62,-227 49.62,-227 55.62,-233 55.62,-239 55.62,-239 55.62,-251 55.62,-251 55.62,-257 49.62,-263 43.62,-263"/>
<text xml:space="preserve" text-anchor="middle" x="28.62" y="-241.5" font-family="Arial" font-size="10.00" fill="#1a1a1a">title</text>
</g>
<!-- attr_3 -->
<g id="node9" class="node">
<title>attr_3</title>
<path fill="#c7b8e6" stroke="#7f8c8d" stroke-width="1.2" d="M222.75,-231C222.75,-231 112.25,-231 112.25,-231 106.25,-231 100.25,-225 100.25,-219 100.25,-219 100.25,-207 100.25,-207 100.25,-201 106.25,-195 112.25,-195 112.25,-195 222.75,-195 222.75,-195 228.75,-195 234.75,-201 234.75,-207 234.75,-207 234.75,-219 234.75,-219 234.75,-225 228.75,-231 222.75,-231"/>
<text xml:space="preserve" text-anchor="middle" x="167.5" y="-209.5" font-family="Arial" font-size="10.00" fill="#1a1a1a">(−) clear purpose conveyed</text>
</g>
<!-- text.title&#45;&gt;attr_3 -->
<g id="edge4" class="edge">
<title>text.title&#45;&gt;attr_3</title>
<path fill="none" stroke="#aaaaaa" d="M56.34,-238.75C66.71,-236.33 79.15,-233.42 91.88,-230.44"/>
<polygon fill="#aaaaaa" stroke="#aaaaaa" points="92.1,-232.91 98.35,-228.93 90.98,-228.14 92.1,-232.91"/>
</g>
<!-- attr_4 -->
<g id="node10" class="node">
<title>attr_4</title>
<path fill="#c7b8e6" stroke="#7f8c8d" stroke-width="1.2" d="M216.38,-166C216.38,-166 118.62,-166 118.62,-166 112.62,-166 106.62,-160 106.62,-154 106.62,-154 106.62,-142 106.62,-142 106.62,-136 112.62,-130 118.62,-130 118.62,-130 216.38,-130 216.38,-130 222.38,-130 228.38,-136 228.38,-142 228.38,-142 228.38,-154 228.38,-154 228.38,-160 222.38,-166 216.38,-166"/>
<text xml:space="preserve" text-anchor="middle" x="167.5" y="-144.5" font-family="Arial" font-size="10.00" fill="#1a1a1a">(−) low interpretive effort</text>
</g>
<!-- text.title&#45;&gt;attr_4 -->
<g id="edge5" class="edge">
<title>text.title&#45;&gt;attr_4</title>
<path fill="none" stroke="#aaaaaa" d="M47.62,-226.11C61.24,-212.49 80.85,-194.25 100.25,-181 105.62,-177.33 111.46,-173.82 117.37,-170.56"/>
<polygon fill="#aaaaaa" stroke="#aaaaaa" points="118.51,-172.72 123.53,-167.26 116.2,-168.4 118.51,-172.72"/>
</g>
<!-- rel_0 -->
<g id="node11" class="node">
<title>rel_0</title>
<path fill="#f5b8b8" stroke="#d46a6a" stroke-width="1.2" d="M182.5,-296C182.5,-296 152.5,-296 152.5,-296 146.5,-296 140.5,-290 140.5,-284 140.5,-284 140.5,-272 140.5,-272 140.5,-266 146.5,-260 152.5,-260 152.5,-260 182.5,-260 182.5,-260 188.5,-260 194.5,-266 194.5,-272 194.5,-272 194.5,-284 194.5,-284 194.5,-290 188.5,-296 182.5,-296"/>
<text xml:space="preserve" text-anchor="middle" x="167.5" y="-274.5" font-family="Arial" font-size="10.00" fill="#8b0000">clarifies</text>
</g>
<!-- text.title&#45;&gt;rel_0 -->
<g id="edge6" class="edge">
<title>text.title&#45;&gt;rel_0</title>
<path fill="none" stroke="#d46a6a" stroke-width="1.5" d="M56.34,-251.44C77.49,-256.54 107.22,-263.71 130.47,-269.31"/>
<polygon fill="#d46a6a" stroke="#d46a6a" stroke-width="1.5" points="129.68,-272 138.11,-271.16 130.99,-266.56 129.68,-272"/>
</g>
<!-- rel_3 -->
<g id="node14" class="node">
<title>rel_3</title>
<path fill="#f5b8b8" stroke="#d46a6a" stroke-width="1.2" d="M189.75,-361C189.75,-361 145.25,-361 145.25,-361 139.25,-361 133.25,-355 133.25,-349 133.25,-349 133.25,-337 133.25,-337 133.25,-331 139.25,-325 145.25,-325 145.25,-325 189.75,-325 189.75,-325 195.75,-325 201.75,-331 201.75,-337 201.75,-337 201.75,-349 201.75,-349 201.75,-355 195.75,-361 189.75,-361"/>
<text xml:space="preserve" text-anchor="middle" x="167.5" y="-339.5" font-family="Arial" font-size="10.00" fill="#8b0000">encodes via</text>
</g>
<!-- text.title&#45;&gt;rel_3 -->
<g id="edge12" class="edge">
<title>text.title&#45;&gt;rel_3</title>
<path fill="none" stroke="#d46a6a" stroke-width="1.5" d="M46.62,-263.71C60.19,-277.9 80.18,-297.24 100.25,-311 107.52,-315.98 115.69,-320.61 123.74,-324.7"/>
<polygon fill="#d46a6a" stroke="#d46a6a" stroke-width="1.5" points="122.27,-327.1 130.69,-328.09 124.73,-322.07 122.27,-327.1"/>
</g>
<!-- furniture.legend -->
<g id="node4" class="node">
<title>furniture.legend</title>
<path fill="#b8e6b8" stroke="#2c3e50" stroke-width="1.8" d="M319.75,-361C319.75,-361 289.75,-361 289.75,-361 283.75,-361 277.75,-355 277.75,-349 277.75,-349 277.75,-337 277.75,-337 277.75,-331 283.75,-325 289.75,-325 289.75,-325 319.75,-325 319.75,-325 325.75,-325 331.75,-331 331.75,-337 331.75,-337 331.75,-349 331.75,-349 331.75,-355 325.75,-361 319.75,-361"/>
<text xml:space="preserve" text-anchor="middle" x="304.75" y="-339.5" font-family="Arial" font-size="10.00" fill="#1a1a1a">legend</text>
</g>
<!-- text.annotation -->
<g id="node5" class="node">
<title>text.annotation</title>
<path fill="#b8e6b8" stroke="#2c3e50" stroke-width="1.8" d="M630.5,-101C630.5,-101 593.5,-101 593.5,-101 587.5,-101 581.5,-95 581.5,-89 581.5,-89 581.5,-77 581.5,-77 581.5,-71 587.5,-65 593.5,-65 593.5,-65 630.5,-65 630.5,-65 636.5,-65 642.5,-71 642.5,-77 642.5,-77 642.5,-89 642.5,-89 642.5,-95 636.5,-101 630.5,-101"/>
<text xml:space="preserve" text-anchor="middle" x="612" y="-79.5" font-family="Arial" font-size="10.00" fill="#1a1a1a">annotation</text>
</g>
<!-- rel_0&#45;&gt;whole.visualization -->
<g id="edge7" class="edge">
<title>rel_0&#45;&gt;whole.visualization</title>
<path fill="none" stroke="#d46a6a" stroke-width="1.5" d="M194.83,-268.9C207.78,-263.57 223.06,-255.92 234.75,-246 257.97,-226.3 277.19,-197.1 289.4,-175.69"/>
<polygon fill="#d46a6a" stroke="#d46a6a" stroke-width="1.5" points="291.82,-177.1 293.24,-168.75 286.92,-174.39 291.82,-177.1"/>
</g>
<!-- rel_1&#45;&gt;whole.visualization -->
<g id="edge9" class="edge">
<title>rel_1&#45;&gt;whole.visualization</title>
<path fill="none" stroke="#d46a6a" stroke-width="1.5" d="M213.16,-36.44C220.78,-40.63 228.3,-45.49 234.75,-51 257.6,-70.54 276.76,-99.19 289.05,-120.29"/>
<polygon fill="#d46a6a" stroke="#d46a6a" stroke-width="1.5" points="286.55,-121.55 292.92,-127.14 291.42,-118.79 286.55,-121.55"/>
</g>
<!-- rel_2&#45;&gt;text.annotation -->
<g id="edge11" class="edge">
<title>rel_2&#45;&gt;text.annotation</title>
<path fill="none" stroke="#d46a6a" stroke-width="1.5" d="M526.68,-83C541.76,-83 557.24,-83 570.75,-83"/>
<polygon fill="#d46a6a" stroke="#d46a6a" stroke-width="1.5" points="570.39,-85.8 578.39,-83 570.39,-80.2 570.39,-85.8"/>
</g>
<!-- rel_3&#45;&gt;furniture.legend -->
<g id="edge13" class="edge">
<title>rel_3&#45;&gt;furniture.legend</title>
<path fill="none" stroke="#d46a6a" stroke-width="1.5" d="M202.28,-343C222,-343 246.9,-343 267.09,-343"/>
<polygon fill="#d46a6a" stroke="#d46a6a" stroke-width="1.5" points="266.9,-345.8 274.9,-343 266.9,-340.2 266.9,-345.8"/>
</g>
</g>
</svg>
