<?xml version="1.0" encoding="UTF-8" standalone="no"?>
<!DOCTYPE svg PUBLIC "-//W3C//DTD SVG 1.1//EN"
 "http://www.w3.org/Graphics/SVG/1.1/DTD/svg11.dtd">
<!-- Generated by graphviz version 14.1.5 (20260411.2331)
 -->
<!-- Title: economist_daily_chart_5.png Pages: 1 -->
<svg width="605pt" height="375pt"
 viewBox="0.00 0.00 605.00 375.00" xmlns="http://www.w3.org/2000/svg" xmlns:xlink="http://www.w3.org/1999/xlink">
<g id="graph0" class="graph" transform="scale(1 1) rotate(0) translate(4 371.25)">
<title>economist_daily_chart_5.png</title>
<polygon fill="white" stroke="none" points="-4,4 -4,-371.25 600.5,-371.25 600.5,4 -4,4"/>
<text xml:space="preserve" text-anchor="start" x="203" y="-346.95" font-family="Arial" font-weight="bold" font-size="14.00">economist_daily_chart_5.png</text>
<text xml:space="preserve" text-anchor="start" x="257.38" y="-327" font-family="Arial" font-size="11.00">Bar &#160;| &#160;VC = 0.49</text>
<path fill="#b8e6b8" stroke="none" d="M88.88,-302C88.88,-302 96.88,-302 96.88,-302 99.88,-302 102.88,-305 102.88,-308 102.88,-308 102.88,-314 102.88,-314 102.88,-317 99.88,-320 96.88,-320 96.88,-320 88.88,-320 88.88,-320 85.88,-320 82.88,-317 82.88,-314 82.88,-314 82.88,-308 82.88,-308 82.88,-305 85.88,-302 88.88,-302"/>
<path fill="none" stroke="black" d="M88.88,-302C88.88,-302 96.88,-302 96.88,-302 99.88,-302 102.88,-305 102.88,-308 102.88,-308 102.88,-314 102.88,-314 102.88,-317 99.88,-320 96.88,-320 96.88,-320 88.88,-320 88.88,-320 85.88,-320 82.88,-317 82.88,-314 82.88,-314 82.88,-308 82.88,-308 82.88,-305 85.88,-302 88.88,-302"/>
<text xml:space="preserve" text-anchor="start" x="91.38" y="-307.25" font-family="Arial" font-size="10.00"> </text>
<text xml:space="preserve" text-anchor="start" x="106.88" y="-307.25" font-family="Arial" font-size="10.00">Object</text>
<path fill="#c7b8e6" stroke="none" d="M145.38,-302C145.38,-302 153.38,-302 153.38,-302 156.38,-302 159.38,-305 159.38,-308 159.38,-308 159.38,-314 159.38,-314 159.38,-317 156.38,-320 153.38,-320 153.38,-320 145.38,-320 145.38,-320 142.38,-320 139.38,-317 139.38,-314 139.38,-314 139.38,-308 139.38,-308 139.38,-305 142.38,-302 145.38,-302"/>
<path fill="none" stroke="black" d="M145.38,-302C145.38,-302 153.38,-302 153.38,-302 156.38,-302 159.38,-305 159.38,-308 159.38,-308 159.38,-314 159.38,-314 159.38,-317 156.38,-320 153.38,-320 153.38,-320 145.38,-320 145.38,-320 142.38,-320 139.38,-317 139.38,-314 139.38,-314 139.38,-308 139.38,-308 139.38,-305 142.38,-302 145.38,-302"/>
<text xml:space="preserve" text-anchor="start" x="147.88" y="-307.25" font-family="Arial" font-size="10.00"> </text>
<text xml:space="preserve" text-anchor="start" x="163.38" y="-307.25" font-family="Arial" font-size="10.00">Attribute</text>
<path fill="#f5b8b8" stroke="none" d="M210.12,-302C210.12,-302 218.12,-302 218.12,-302 221.12,-302 224.12,-305 224.12,-308 224.12,-308 224.12,-314 224.12,-314 224.12,-317 221.12,-320 218.12,-320 218.12,-320 210.12,-320 210.12,-320 207.12,-320 204.12,-317 204.12,-314 204.12,-314 204.12,-308 204.12,-308 204.12,-305 207.12,-302 210.12,-302"/>
<path fill="none" stroke="black" d="M210.12,-302C210.12,-302 218.12,-302 218.12,-302 221.12,-302 224.12,-305 224.12,-308 224.12,-308 224.12,-314 224.12,-314 224.12,-317 221.12,-320 218.12,-320 218.12,-320 210.12,-320 210.12,-320 207.12,-320 204.12,-317 204.12,-314 204.12,-314 204.12,-308 204.12,-308 204.12,-305 207.12,-302 210.12,-302"/>
<text xml:space="preserve" text-anchor="start" x="212.62" y="-307.25" font-family="Arial" font-size="10.00"> </text>
<text xml:space="preserve" text-anchor="start" x="228.12" y="-307.25" font-family="Arial" font-size="10.00">Relationship</text>
<text xml:space="preserve" text-anchor="start" x="288.12" y="-308.5" font-family="Arial" font-weight="bold" font-size="10.00">(+)</text>
<text xml:space="preserve" text-anchor="start" x="300.12" y="-308.5" font-family="Arial" font-size="10.00"> increases complexity</text>
<text xml:space="preserve" text-anchor="start" x="401.38" y="-308.5" font-family="Arial" font-weight="bold" font-size="10.00">(−)</text>
<text xml:space="preserve" text-anchor="start" x="413.38" y="-308.5" font-family="Arial" font-size="10.00"> decreases complexity</text>
<!-- unknown.bars -->
<g id="node1" class="node">
<title>unknown.bars</title>
<path fill="#b8e6b8" stroke="#2c3e50" stroke-width="1.8" d="M43.62,-198C43.62,-198 13.62,-198 13.62,-198 7.62,-198 1.62,-192 1.62,-186 1.62,-186 1.62,-174 1.62,-174 1.62,-168 7.62,-162 13.62,-162 13.62,-162 43.62,-162 43.62,-162 49.62,-162 55.62,-168 55.62,-174 55.62,-174 55.62,-186 55.62,-186 55.62,-192 49.62,-198 43.62,-198"/>
<text xml:space="preserve" text-anchor="middle" x="28.62" y="-176.5" font-family="Arial" font-size="10.00" fill="#1a1a1a">bars</text>
</g>
<!-- attr_1 -->
<g id="node6" class="node">
<title>attr_1</title>
<path fill="#c7b8e6" stroke="#7f8c8d" stroke-width="1.2" d="M202.88,-231C202.88,-231 113.38,-231 113.38,-231 107.38,-231 101.38,-225 101.38,-219 101.38,-219 101.38,-207 101.38,-207 101.38,-201 107.38,-195 113.38,-195 113.38,-195 202.88,-195 202.88,-195 208.88,-195 214.88,-201 214.88,-207 214.88,-207 214.88,-219 214.88,-219 214.88,-225 208.88,-231 202.88,-231"/>
<text xml:space="preserve" text-anchor="middle" x="158.12" y="-209.5" font-family="Arial" font-size="10.00" fill="#1a1a1a">(+) multiple bar groups</text>
</g>
<!-- unknown.bars&#45;&gt;attr_1 -->
<g id="edge1" class="edge">
<title>unknown.bars&#45;&gt;attr_1</title>
<path fill="none" stroke="#aaaaaa" d="M56.35,-186.92C67.12,-189.7 80.04,-193.05 92.98,-196.4"/>
<polygon fill="#aaaaaa" stroke="#aaaaaa" points="92.16,-198.72 99.55,-198.1 93.39,-193.97 92.16,-198.72"/>
</g>
<!-- rel_1 -->
<g id="node12" class="node">
<title>rel_1</title>
<path fill="#f5b8b8" stroke="#d46a6a" stroke-width="1.2" d="M180.38,-166C180.38,-166 135.88,-166 135.88,-166 129.88,-166 123.88,-160 123.88,-154 123.88,-154 123.88,-142 123.88,-142 123.88,-136 129.88,-130 135.88,-130 135.88,-130 180.38,-130 180.38,-130 186.38,-130 192.38,-136 192.38,-142 192.38,-142 192.38,-154 192.38,-154 192.38,-160 186.38,-166 180.38,-166"/>
<text xml:space="preserve" text-anchor="middle" x="158.12" y="-144.5" font-family="Arial" font-size="10.00" fill="#8b0000">overwhelms</text>
</g>
<!-- unknown.bars&#45;&gt;rel_1 -->
<g id="edge8" class="edge">
<title>unknown.bars&#45;&gt;rel_1</title>
<path fill="none" stroke="#d46a6a" stroke-width="1.5" d="M56.35,-173.29C72.94,-169.13 94.65,-163.68 113.67,-158.91"/>
<polygon fill="#d46a6a" stroke="#d46a6a" stroke-width="1.5" points="114.33,-161.63 121.41,-156.96 112.97,-156.2 114.33,-161.63"/>
</g>
<!-- content.data -->
<g id="node2" class="node">
<title>content.data</title>
<path fill="#b8e6b8" stroke="#2c3e50" stroke-width="1.8" d="M43.62,-68C43.62,-68 13.62,-68 13.62,-68 7.62,-68 1.62,-62 1.62,-56 1.62,-56 1.62,-44 1.62,-44 1.62,-38 7.62,-32 13.62,-32 13.62,-32 43.62,-32 43.62,-32 49.62,-32 55.62,-38 55.62,-44 55.62,-44 55.62,-56 55.62,-56 55.62,-62 49.62,-68 43.62,-68"/>
<text xml:space="preserve" text-anchor="middle" x="28.62" y="-46.5" font-family="Arial" font-size="10.00" fill="#1a1a1a">data</text>
</g>
<!-- attr_0 -->
<g id="node7" class="node">
<title>attr_0</title>
<path fill="#c7b8e6" stroke="#7f8c8d" stroke-width="1.2" d="M200.25,-101C200.25,-101 116,-101 116,-101 110,-101 104,-95 104,-89 104,-89 104,-77 104,-77 104,-71 110,-65 116,-65 116,-65 200.25,-65 200.25,-65 206.25,-65 212.25,-71 212.25,-77 212.25,-77 212.25,-89 212.25,-89 212.25,-95 206.25,-101 200.25,-101"/>
<text xml:space="preserve" text-anchor="middle" x="158.12" y="-79.5" font-family="Arial" font-size="10.00" fill="#1a1a1a">(+) large data volume</text>
</g>
<!-- content.data&#45;&gt;attr_0 -->
<g id="edge2" class="edge">
<title>content.data&#45;&gt;attr_0</title>
<path fill="none" stroke="#aaaaaa" d="M56.35,-56.92C67.83,-59.89 81.75,-63.49 95.54,-67.06"/>
<polygon fill="#aaaaaa" stroke="#aaaaaa" points="94.77,-69.39 102.16,-68.77 96,-64.65 94.77,-69.39"/>
</g>
<!-- rel_0 -->
<g id="node11" class="node">
<title>rel_0</title>
<path fill="#f5b8b8" stroke="#d46a6a" stroke-width="1.2" d="M175.12,-36C175.12,-36 141.12,-36 141.12,-36 135.12,-36 129.12,-30 129.12,-24 129.12,-24 129.12,-12 129.12,-12 129.12,-6 135.12,0 141.12,0 141.12,0 175.12,0 175.12,0 181.12,0 187.12,-6 187.12,-12 187.12,-12 187.12,-24 187.12,-24 187.12,-30 181.12,-36 175.12,-36"/>
<text xml:space="preserve" text-anchor="middle" x="158.12" y="-14.5" font-family="Arial" font-size="10.00" fill="#8b0000">increases</text>
</g>
<!-- content.data&#45;&gt;rel_0 -->
<g id="edge6" class="edge">
<title>content.data&#45;&gt;rel_0</title>
<path fill="none" stroke="#d46a6a" stroke-width="1.5" d="M56.35,-43.29C74.47,-38.75 98.69,-32.67 118.84,-27.61"/>
<polygon fill="#d46a6a" stroke="#d46a6a" stroke-width="1.5" points="119.38,-30.36 126.46,-25.7 118.02,-24.93 119.38,-30.36"/>
</g>
<!-- text.axis_label -->
<g id="node3" class="node">
<title>text.axis_label</title>
<path fill="#b8e6b8" stroke="#2c3e50" stroke-width="1.8" d="M45.25,-296C45.25,-296 12,-296 12,-296 6,-296 0,-290 0,-284 0,-284 0,-272 0,-272 0,-266 6,-260 12,-260 12,-260 45.25,-260 45.25,-260 51.25,-260 57.25,-266 57.25,-272 57.25,-272 57.25,-284 57.25,-284 57.25,-290 51.25,-296 45.25,-296"/>
<text xml:space="preserve" text-anchor="middle" x="28.62" y="-274.5" font-family="Arial" font-size="10.00" fill="#1a1a1a">axis label</text>
</g>
<!-- attr_3 -->
<g id="node8" class="node">
<title>attr_3</title>
<path fill="#c7b8e6" stroke="#7f8c8d" stroke-width="1.2" d="M204,-296C204,-296 112.25,-296 112.25,-296 106.25,-296 100.25,-290 100.25,-284 100.25,-284 100.25,-272 100.25,-272 100.25,-266 106.25,-260 112.25,-260 112.25,-260 204,-260 204,-260 210,-260 216,-266 216,-272 216,-272 216,-284 216,-284 216,-290 210,-296 204,-296"/>
<text xml:space="preserve" text-anchor="middle" x="158.12" y="-274.5" font-family="Arial" font-size="10.00" fill="#1a1a1a">(+) dense label content</text>
</g>
<!-- text.axis_label&#45;&gt;attr_3 -->
<g id="edge3" class="edge">
<title>text.axis_label&#45;&gt;attr_3</title>
<path fill="none" stroke="#aaaaaa" d="M57.92,-278C68,-278 79.8,-278 91.68,-278"/>
<polygon fill="#aaaaaa" stroke="#aaaaaa" points="91.39,-280.45 98.39,-278 91.39,-275.55 91.39,-280.45"/>
</g>
<!-- furniture.legend -->
<g id="node4" class="node">
<title>furniture.legend</title>
<path fill="#b8e6b8" stroke="#2c3e50" stroke-width="1.8" d="M584.5,-36C584.5,-36 554.5,-36 554.5,-36 548.5,-36 542.5,-30 542.5,-24 542.5,-24 542.5,-12 542.5,-12 542.5,-6 548.5,0 554.5,0 554.5,0 584.5,0 584.5,0 590.5,0 596.5,-6 596.5,-12 596.5,-12 596.5,-24 596.5,-24 596.5,-30 590.5,-36 584.5,-36"/>
<text xml:space="preserve" text-anchor="middle" x="569.5" y="-14.5" font-family="Arial" font-size="10.00" fill="#1a1a1a">legend</text>
</g>
<!-- whole.visualization -->
<g id="node5" class="node">
<title>whole.visualization</title>
<path fill="#b8e6b8" stroke="#2c3e50" stroke-width="1.8" d="M301,-101C301,-101 271,-101 271,-101 265,-101 259,-95 259,-89 259,-89 259,-77 259,-77 259,-71 265,-65 271,-65 271,-65 301,-65 301,-65 307,-65 313,-71 313,-77 313,-77 313,-89 313,-89 313,-95 307,-101 301,-101"/>
<text xml:space="preserve" text-anchor="middle" x="286" y="-79.5" font-family="Arial" font-size="10.00" fill="#1a1a1a">chart</text>
</g>
<!-- attr_2 -->
<g id="node9" class="node">
<title>attr_2</title>
<path fill="#c7b8e6" stroke="#7f8c8d" stroke-width="1.2" d="M487.5,-166C487.5,-166 368,-166 368,-166 362,-166 356,-160 356,-154 356,-154 356,-142 356,-142 356,-136 362,-130 368,-130 368,-130 487.5,-130 487.5,-130 493.5,-130 499.5,-136 499.5,-142 499.5,-142 499.5,-154 499.5,-154 499.5,-160 493.5,-166 487.5,-166"/>
<text xml:space="preserve" text-anchor="middle" x="427.75" y="-144.5" font-family="Arial" font-size="10.00" fill="#1a1a1a">(+) requires focused attention</text>
</g>
<!-- whole.visualization&#45;&gt;attr_2 -->
<g id="edge4" class="edge">
<title>whole.visualization&#45;&gt;attr_2</title>
<path fill="none" stroke="#aaaaaa" d="M313.61,-95.38C332.18,-104.01 357.45,-115.77 379.4,-125.98"/>
<polygon fill="#aaaaaa" stroke="#aaaaaa" points="378.26,-128.15 385.64,-128.88 380.33,-123.7 378.26,-128.15"/>
</g>
<!-- attr_4 -->
<g id="node10" class="node">
<title>attr_4</title>
<path fill="#c7b8e6" stroke="#7f8c8d" stroke-width="1.2" d="M465.38,-101C465.38,-101 390.12,-101 390.12,-101 384.12,-101 378.12,-95 378.12,-89 378.12,-89 378.12,-77 378.12,-77 378.12,-71 384.12,-65 390.12,-65 390.12,-65 465.38,-65 465.38,-65 471.38,-65 477.38,-71 477.38,-77 477.38,-77 477.38,-89 477.38,-89 477.38,-95 471.38,-101 465.38,-101"/>
<text xml:space="preserve" text-anchor="middle" x="427.75" y="-79.5" font-family="Arial" font-size="10.00" fill="#1a1a1a">(+) hard to interpret</text>
</g>
<!-- whole.visualization&#45;&gt;attr_4 -->
<g id="edge5" class="edge">
<title>whole.visualization&#45;&gt;attr_4</title>
<path fill="none" stroke="#aaaaaa" d="M313.61,-83C329.34,-83 349.89,-83 369.16,-83"/>
<polygon fill="#aaaaaa" stroke="#aaaaaa" points="369.09,-85.45 376.09,-83 369.09,-80.55 369.09,-85.45"/>
</g>
<!-- rel_2 -->
<g id="node13" class="node">
<title>rel_2</title>
<path fill="#f5b8b8" stroke="#d46a6a" stroke-width="1.2" d="M469.5,-36C469.5,-36 386,-36 386,-36 380,-36 374,-30 374,-24 374,-24 374,-12 374,-12 374,-6 380,0 386,0 386,0 469.5,0 469.5,0 475.5,0 481.5,-6 481.5,-12 481.5,-12 481.5,-24 481.5,-24 481.5,-30 475.5,-36 469.5,-36"/>
<text xml:space="preserve" text-anchor="middle" x="427.75" y="-14.5" font-family="Arial" font-size="10.00" fill="#8b0000">requires expertise for</text>
</g>
<!-- whole.visualization&#45;&gt;rel_2 -->
<g id="edge10" class="edge">
<title>whole.visualization&#45;&gt;rel_2</title>
<path fill="none" stroke="#d46a6a" stroke-width="1.5" d="M313.81,-70.02C326.56,-63.88 342.03,-56.5 356,-50 362.55,-46.95 369.47,-43.77 376.3,-40.66"/>
<polygon fill="#d46a6a" stroke="#d46a6a" stroke-width="1.5" points="377.34,-43.26 383.46,-37.4 375.02,-38.17 377.34,-43.26"/>
</g>
<!-- rel_0&#45;&gt;whole.visualization -->
<g id="edge7" class="edge">
<title>rel_0&#45;&gt;whole.visualization</title>
<path fill="none" stroke="#d46a6a" stroke-width="1.5" d="M187.69,-32.75C205.97,-42.19 229.84,-54.52 249.36,-64.6"/>
<polygon fill="#d46a6a" stroke="#d46a6a" stroke-width="1.5" points="247.86,-66.97 256.25,-68.16 250.43,-62 247.86,-66.97"/>
</g>
<!-- rel_1&#45;&gt;whole.visualization -->
<g id="edge9" class="edge">
<title>rel_1&#45;&gt;whole.visualization</title>
<path fill="none" stroke="#d46a6a" stroke-width="1.5" d="M192.86,-130.58C210.35,-121.55 231.7,-110.52 249.44,-101.36"/>
<polygon fill="#d46a6a" stroke="#d46a6a" stroke-width="1.5" points="250.51,-103.96 256.34,-97.8 247.95,-98.98 250.51,-103.96"/>
</g>
<!-- rel_2&#45;&gt;furniture.legend -->
<g id="edge11" class="edge">
<title>rel_2&#45;&gt;furniture.legend</title>
<path fill="none" stroke="#d46a6a" stroke-width="1.5" d="M481.98,-18C498.53,-18 516.4,-18 531.57,-18"/>
<polygon fill="#d46a6a" stroke="#d46a6a" stroke-width="1.5" points="531.33,-20.8 539.33,-18 531.33,-15.2 531.33,-20.8"/>
</g>
</g>
</svg>
