<?xml version="1.0" encoding="UTF-8" standalone="no"?>
<!DOCTYPE svg PUBLIC "-//W3C//DTD SVG 1.1//EN"
 "http://www.w3.org/Graphics/SVG/1.1/DTD/svg11.dtd">
<!-- Generated by graphviz version 14.1.5 (20260411.2331)
 -->
<!-- Title: economist_daily_chart_110.png Pages: 1 -->
<svg width="852pt" height="440pt"
 viewBox="0.00 0.00 852.00 440.00" xmlns="http://www.w3.org/2000/svg" xmlns:xlink="http://www.w3.org/1999/xlink">
<g id="graph0" class="graph" transform="scale(1 1) rotate(0) translate(4 436.25)">
<title>economist_daily_chart_110.png</title>
<polygon fill="white" stroke="none" points="-4,4 -4,-436.25 847.5,-436.25 847.5,4 -4,4"/>
<text xml:space="preserve" text-anchor="start" x="319.38" y="-411.95" font-family="Arial" font-weight="bold" font-size="14.00">economist_daily_chart_110.png</text>
<text xml:space="preserve" text-anchor="start" x="377.88" y="-392" font-family="Arial" font-size="11.00">Area &#160;| &#160;VC = 0.65</text>
<path fill="#b8e6b8" stroke="none" d="M212.38,-367C212.38,-367 220.38,-367 220.38,-367 223.38,-367 226.38,-370 226.38,-373 226.38,-373 226.38,-379 226.38,-379 226.38,-382 223.38,-385 220.38,-385 220.38,-385 212.38,-385 212.38,-385 209.38,-385 206.38,-382 206.38,-379 206.38,-379 206.38,-373 206.38,-373 206.38,-370 209.38,-367 212.38,-367"/>
<path fill="none" stroke="black" d="M212.38,-367C212.38,-367 220.38,-367 220.38,-367 223.38,-367 226.38,-370 226.38,-373 226.38,-373 226.38,-379 226.38,-379 226.38,-382 223.38,-385 220.38,-385 220.38,-385 212.38,-385 212.38,-385 209.38,-385 206.38,-382 206.38,-379 206.38,-379 206.38,-373 206.38,-373 206.38,-370 209.38,-367 212.38,-367"/>
<text xml:space="preserve" text-anchor="start" x="214.88" y="-372.25" font-family="Arial" font-size="10.00"> </text>
<text xml:space="preserve" text-anchor="start" x="230.38" y="-372.25" font-family="Arial" font-size="10.00">Object</text>
<path fill="#c7b8e6" stroke="none" d="M268.88,-367C268.88,-367 276.88,-367 276.88,-367 279.88,-367 282.88,-370 282.88,-373 282.88,-373 282.88,-379 282.88,-379 282.88,-382 279.88,-385 276.88,-385 276.88,-385 268.88,-385 268.88,-385 265.88,-385 262.88,-382 262.88,-379 262.88,-379 262.88,-373 262.88,-373 262.88,-370 265.88,-367 268.88,-367"/>
<path fill="none" stroke="black" d="M268.88,-367C268.88,-367 276.88,-367 276.88,-367 279.88,-367 282.88,-370 282.88,-373 282.88,-373 282.88,-379 282.88,-379 282.88,-382 279.88,-385 276.88,-385 276.88,-385 268.88,-385 268.88,-385 265.88,-385 262.88,-382 262.88,-379 262.88,-379 262.88,-373 262.88,-373 262.88,-370 265.88,-367 268.88,-367"/>
<text xml:space="preserve" text-anchor="start" x="271.38" y="-372.25" font-family="Arial" font-size="10.00"> </text>
<text xml:space="preserve" text-anchor="start" x="286.88" y="-372.25" font-family="Arial" font-size="10.00">Attribute</text>
<path fill="#f5b8b8" stroke="none" d="M333.62,-367C333.62,-367 341.62,-367 341.62,-367 344.62,-367 347.62,-370 347.62,-373 347.62,-373 347.62,-379 347.62,-379 347.62,-382 344.62,-385 341.62,-385 341.62,-385 333.62,-385 333.62,-385 330.62,-385 327.62,-382 327.62,-379 327.62,-379 327.62,-373 327.62,-373 327.62,-370 330.62,-367 333.62,-367"/>
<path fill="none" stroke="black" d="M333.62,-367C333.62,-367 341.62,-367 341.62,-367 344.62,-367 347.62,-370 347.62,-373 347.62,-373 347.62,-379 347.62,-379 347.62,-382 344.62,-385 341.62,-385 341.62,-385 333.62,-385 333.62,-385 330.62,-385 327.62,-382 327.62,-379 327.62,-379 327.62,-373 327.62,-373 327.62,-370 330.62,-367 333.62,-367"/>
<text xml:space="preserve" text-anchor="start" x="336.12" y="-372.25" font-family="Arial" font-size="10.00"> </text>
<text xml:space="preserve" text-anchor="start" x="351.62" y="-372.25" font-family="Arial" font-size="10.00">Relationship</text>
<text xml:space="preserve" text-anchor="start" x="411.62" y="-373.5" font-family="Arial" font-weight="bold" font-size="10.00">(+)</text>
<text xml:space="preserve" text-anchor="start" x="423.62" y="-373.5" font-family="Arial" font-size="10.00"> increases complexity</text>
<text xml:space="preserve" text-anchor="start" x="524.88" y="-373.5" font-family="Arial" font-weight="bold" font-size="10.00">(−)</text>
<text xml:space="preserve" text-anchor="start" x="536.88" y="-373.5" font-family="Arial" font-size="10.00"> decreases complexity</text>
<!-- unknown.color_palette -->
<g id="node1" class="node">
<title>unknown.color_palette</title>
<path fill="#b8e6b8" stroke="#2c3e50" stroke-width="1.8" d="M57.25,-296C57.25,-296 12,-296 12,-296 6,-296 0,-290 0,-284 0,-284 0,-272 0,-272 0,-266 6,-260 12,-260 12,-260 57.25,-260 57.25,-260 63.25,-260 69.25,-266 69.25,-272 69.25,-272 69.25,-284 69.25,-284 69.25,-290 63.25,-296 57.25,-296"/>
<text xml:space="preserve" text-anchor="middle" x="34.62" y="-274.5" font-family="Arial" font-size="10.00" fill="#1a1a1a">color palette</text>
</g>
<!-- attr_0 -->
<g id="node7" class="node">
<title>attr_0</title>
<path fill="#c7b8e6" stroke="#7f8c8d" stroke-width="1.2" d="M220.5,-361C220.5,-361 142.25,-361 142.25,-361 136.25,-361 130.25,-355 130.25,-349 130.25,-349 130.25,-337 130.25,-337 130.25,-331 136.25,-325 142.25,-325 142.25,-325 220.5,-325 220.5,-325 226.5,-325 232.5,-331 232.5,-337 232.5,-337 232.5,-349 232.5,-349 232.5,-355 226.5,-361 220.5,-361"/>
<text xml:space="preserve" text-anchor="middle" x="181.38" y="-339.5" font-family="Arial" font-size="10.00" fill="#1a1a1a">(+) wide color range</text>
</g>
<!-- unknown.color_palette&#45;&gt;attr_0 -->
<g id="edge1" class="edge">
<title>unknown.color_palette&#45;&gt;attr_0</title>
<path fill="none" stroke="#aaaaaa" d="M69.93,-293.4C88.31,-301.66 111.28,-311.97 131.5,-321.05"/>
<polygon fill="#aaaaaa" stroke="#aaaaaa" points="130.33,-323.21 137.72,-323.85 132.34,-318.74 130.33,-323.21"/>
</g>
<!-- rel_0 -->
<g id="node14" class="node">
<title>rel_0</title>
<path fill="#f5b8b8" stroke="#d46a6a" stroke-width="1.2" d="M237.75,-296C237.75,-296 125,-296 125,-296 119,-296 113,-290 113,-284 113,-284 113,-272 113,-272 113,-266 119,-260 125,-260 125,-260 237.75,-260 237.75,-260 243.75,-260 249.75,-266 249.75,-272 249.75,-272 249.75,-284 249.75,-284 249.75,-290 243.75,-296 237.75,-296"/>
<text xml:space="preserve" text-anchor="middle" x="181.38" y="-274.5" font-family="Arial" font-size="10.00" fill="#8b0000">increases visual complexity</text>
</g>
<!-- unknown.color_palette&#45;&gt;rel_0 -->
<g id="edge8" class="edge">
<title>unknown.color_palette&#45;&gt;rel_0</title>
<path fill="none" stroke="#d46a6a" stroke-width="1.5" d="M69.93,-278C79.82,-278 91.04,-278 102.45,-278"/>
<polygon fill="#d46a6a" stroke="#d46a6a" stroke-width="1.5" points="102.22,-280.8 110.22,-278 102.22,-275.2 102.22,-280.8"/>
</g>
<!-- rel_4 -->
<g id="node18" class="node">
<title>rel_4</title>
<path fill="#f5b8b8" stroke="#d46a6a" stroke-width="1.2" d="M203.62,-231C203.62,-231 159.12,-231 159.12,-231 153.12,-231 147.12,-225 147.12,-219 147.12,-219 147.12,-207 147.12,-207 147.12,-201 153.12,-195 159.12,-195 159.12,-195 203.62,-195 203.62,-195 209.62,-195 215.62,-201 215.62,-207 215.62,-207 215.62,-219 215.62,-219 215.62,-225 209.62,-231 203.62,-231"/>
<text xml:space="preserve" text-anchor="middle" x="181.38" y="-209.5" font-family="Arial" font-size="10.00" fill="#8b0000">overwhelms</text>
</g>
<!-- unknown.color_palette&#45;&gt;rel_4 -->
<g id="edge16" class="edge">
<title>unknown.color_palette&#45;&gt;rel_4</title>
<path fill="none" stroke="#d46a6a" stroke-width="1.5" d="M69.93,-262.6C90.17,-253.5 115.98,-241.92 137.55,-232.23"/>
<polygon fill="#d46a6a" stroke="#d46a6a" stroke-width="1.5" points="138.59,-234.83 144.75,-229 136.3,-229.72 138.59,-234.83"/>
</g>
<!-- unknown.area_shapes -->
<g id="node2" class="node">
<title>unknown.area_shapes</title>
<path fill="#b8e6b8" stroke="#2c3e50" stroke-width="1.8" d="M366.5,-296C366.5,-296 321.25,-296 321.25,-296 315.25,-296 309.25,-290 309.25,-284 309.25,-284 309.25,-272 309.25,-272 309.25,-266 315.25,-260 321.25,-260 321.25,-260 366.5,-260 366.5,-260 372.5,-260 378.5,-266 378.5,-272 378.5,-272 378.5,-284 378.5,-284 378.5,-290 372.5,-296 366.5,-296"/>
<text xml:space="preserve" text-anchor="middle" x="343.88" y="-274.5" font-family="Arial" font-size="10.00" fill="#1a1a1a">area shapes</text>
</g>
<!-- attr_1 -->
<g id="node8" class="node">
<title>attr_1</title>
<path fill="#c7b8e6" stroke="#7f8c8d" stroke-width="1.2" d="M559.38,-361C559.38,-361 462.38,-361 462.38,-361 456.38,-361 450.38,-355 450.38,-349 450.38,-349 450.38,-337 450.38,-337 450.38,-331 456.38,-325 462.38,-325 462.38,-325 559.38,-325 559.38,-325 565.38,-325 571.38,-331 571.38,-337 571.38,-337 571.38,-349 571.38,-349 571.38,-355 565.38,-361 559.38,-361"/>
<text xml:space="preserve" text-anchor="middle" x="510.88" y="-339.5" font-family="Arial" font-size="10.00" fill="#1a1a1a">(+) multiple shape types</text>
</g>
<!-- unknown.area_shapes&#45;&gt;attr_1 -->
<g id="edge2" class="edge">
<title>unknown.area_shapes&#45;&gt;attr_1</title>
<path fill="none" stroke="#aaaaaa" d="M379.06,-291.47C401.05,-300.13 430.1,-311.57 455.24,-321.48"/>
<polygon fill="#aaaaaa" stroke="#aaaaaa" points="454.09,-323.66 461.5,-323.94 455.88,-319.1 454.09,-323.66"/>
</g>
<!-- attr_6 -->
<g id="node9" class="node">
<title>attr_6</title>
<path fill="#c7b8e6" stroke="#7f8c8d" stroke-width="1.2" d="M560.5,-296C560.5,-296 461.25,-296 461.25,-296 455.25,-296 449.25,-290 449.25,-284 449.25,-284 449.25,-272 449.25,-272 449.25,-266 455.25,-260 461.25,-260 461.25,-260 560.5,-260 560.5,-260 566.5,-260 572.5,-266 572.5,-272 572.5,-272 572.5,-284 572.5,-284 572.5,-290 566.5,-296 560.5,-296"/>
<text xml:space="preserve" text-anchor="middle" x="510.88" y="-274.5" font-family="Arial" font-size="10.00" fill="#1a1a1a">(+) high physical content</text>
</g>
<!-- unknown.area_shapes&#45;&gt;attr_6 -->
<g id="edge3" class="edge">
<title>unknown.area_shapes&#45;&gt;attr_6</title>
<path fill="none" stroke="#aaaaaa" d="M379.06,-278C396.81,-278 419.17,-278 440.35,-278"/>
<polygon fill="#aaaaaa" stroke="#aaaaaa" points="440.2,-280.45 447.2,-278 440.2,-275.55 440.2,-280.45"/>
</g>
<!-- rel_3 -->
<g id="node17" class="node">
<title>rel_3</title>
<path fill="#f5b8b8" stroke="#d46a6a" stroke-width="1.2" d="M538.38,-231C538.38,-231 483.38,-231 483.38,-231 477.38,-231 471.38,-225 471.38,-219 471.38,-219 471.38,-207 471.38,-207 471.38,-201 477.38,-195 483.38,-195 483.38,-195 538.38,-195 538.38,-195 544.38,-195 550.38,-201 550.38,-207 550.38,-207 550.38,-219 550.38,-219 550.38,-225 544.38,-231 538.38,-231"/>
<text xml:space="preserve" text-anchor="middle" x="510.88" y="-209.5" font-family="Arial" font-size="10.00" fill="#8b0000">combines with</text>
</g>
<!-- unknown.area_shapes&#45;&gt;rel_3 -->
<g id="edge14" class="edge">
<title>unknown.area_shapes&#45;&gt;rel_3</title>
<path fill="none" stroke="#d46a6a" stroke-width="1.5" d="M379.06,-264.53C402.85,-255.16 434.92,-242.53 461.35,-232.11"/>
<polygon fill="#d46a6a" stroke="#d46a6a" stroke-width="1.5" points="462.28,-234.76 468.7,-229.22 460.23,-229.55 462.28,-234.76"/>
</g>
<!-- unknown.text_labels -->
<g id="node3" class="node">
<title>unknown.text_labels</title>
<path fill="#b8e6b8" stroke="#2c3e50" stroke-width="1.8" d="M676.5,-133C676.5,-133 639.5,-133 639.5,-133 633.5,-133 627.5,-127 627.5,-121 627.5,-121 627.5,-109 627.5,-109 627.5,-103 633.5,-97 639.5,-97 639.5,-97 676.5,-97 676.5,-97 682.5,-97 688.5,-103 688.5,-109 688.5,-109 688.5,-121 688.5,-121 688.5,-127 682.5,-133 676.5,-133"/>
<text xml:space="preserve" text-anchor="middle" x="658" y="-111.5" font-family="Arial" font-size="10.00" fill="#1a1a1a">text labels</text>
</g>
<!-- attr_2 -->
<g id="node10" class="node">
<title>attr_2</title>
<path fill="#c7b8e6" stroke="#7f8c8d" stroke-width="1.2" d="M831.5,-133C831.5,-133 743.5,-133 743.5,-133 737.5,-133 731.5,-127 731.5,-121 731.5,-121 731.5,-109 731.5,-109 731.5,-103 737.5,-97 743.5,-97 743.5,-97 831.5,-97 831.5,-97 837.5,-97 843.5,-103 843.5,-109 843.5,-109 843.5,-121 843.5,-121 843.5,-127 837.5,-133 831.5,-133"/>
<text xml:space="preserve" text-anchor="middle" x="787.5" y="-111.5" font-family="Arial" font-size="10.00" fill="#1a1a1a">(+) dense text content</text>
</g>
<!-- unknown.text_labels&#45;&gt;attr_2 -->
<g id="edge4" class="edge">
<title>unknown.text_labels&#45;&gt;attr_2</title>
<path fill="none" stroke="#aaaaaa" d="M689.22,-115C699.29,-115 710.92,-115 722.57,-115"/>
<polygon fill="#aaaaaa" stroke="#aaaaaa" points="722.51,-117.45 729.51,-115 722.51,-112.55 722.51,-117.45"/>
</g>
<!-- unknown.geographic_element -->
<g id="node4" class="node">
<title>unknown.geographic_element</title>
<path fill="#b8e6b8" stroke="#2c3e50" stroke-width="1.8" d="M382.25,-68C382.25,-68 305.5,-68 305.5,-68 299.5,-68 293.5,-62 293.5,-56 293.5,-56 293.5,-44 293.5,-44 293.5,-38 299.5,-32 305.5,-32 305.5,-32 382.25,-32 382.25,-32 388.25,-32 394.25,-38 394.25,-44 394.25,-44 394.25,-56 394.25,-56 394.25,-62 388.25,-68 382.25,-68"/>
<text xml:space="preserve" text-anchor="middle" x="343.88" y="-46.5" font-family="Arial" font-size="10.00" fill="#1a1a1a">geographic element</text>
</g>
<!-- attr_3 -->
<g id="node11" class="node">
<title>attr_3</title>
<path fill="#c7b8e6" stroke="#7f8c8d" stroke-width="1.2" d="M572.5,-101C572.5,-101 449.25,-101 449.25,-101 443.25,-101 437.25,-95 437.25,-89 437.25,-89 437.25,-77 437.25,-77 437.25,-71 443.25,-65 449.25,-65 449.25,-65 572.5,-65 572.5,-65 578.5,-65 584.5,-71 584.5,-77 584.5,-77 584.5,-89 584.5,-89 584.5,-95 578.5,-101 572.5,-101"/>
<text xml:space="preserve" text-anchor="middle" x="510.88" y="-79.5" font-family="Arial" font-size="10.00" fill="#1a1a1a">(+) domain specific geography</text>
</g>
<!-- unknown.geographic_element&#45;&gt;attr_3 -->
<g id="edge5" class="edge">
<title>unknown.geographic_element&#45;&gt;attr_3</title>
<path fill="none" stroke="#aaaaaa" d="M394.83,-59.99C405.44,-62.11 416.9,-64.41 428.34,-66.69"/>
<polygon fill="#aaaaaa" stroke="#aaaaaa" points="427.83,-69.09 435.17,-68.06 428.79,-64.28 427.83,-69.09"/>
</g>
<!-- rel_2 -->
<g id="node16" class="node">
<title>rel_2</title>
<path fill="#f5b8b8" stroke="#d46a6a" stroke-width="1.2" d="M552.62,-36C552.62,-36 469.12,-36 469.12,-36 463.12,-36 457.12,-30 457.12,-24 457.12,-24 457.12,-12 457.12,-12 457.12,-6 463.12,0 469.12,0 469.12,0 552.62,0 552.62,0 558.62,0 564.62,-6 564.62,-12 564.62,-12 564.62,-24 564.62,-24 564.62,-30 558.62,-36 552.62,-36"/>
<text xml:space="preserve" text-anchor="middle" x="510.88" y="-14.5" font-family="Arial" font-size="10.00" fill="#8b0000">requires expertise for</text>
</g>
<!-- unknown.geographic_element&#45;&gt;rel_2 -->
<g id="edge12" class="edge">
<title>unknown.geographic_element&#45;&gt;rel_2</title>
<path fill="none" stroke="#d46a6a" stroke-width="1.5" d="M394.83,-40.31C411.16,-37.14 429.52,-33.58 446.7,-30.25"/>
<polygon fill="#d46a6a" stroke="#d46a6a" stroke-width="1.5" points="447.1,-33.03 454.42,-28.75 446.04,-27.53 447.1,-33.03"/>
</g>
<!-- unknown.red_color -->
<g id="node5" class="node">
<title>unknown.red_color</title>
<path fill="#b8e6b8" stroke="#2c3e50" stroke-width="1.8" d="M49.62,-134C49.62,-134 19.62,-134 19.62,-134 13.62,-134 7.62,-128 7.62,-122 7.62,-122 7.62,-110 7.62,-110 7.62,-104 13.62,-98 19.62,-98 19.62,-98 49.62,-98 49.62,-98 55.62,-98 61.62,-104 61.62,-110 61.62,-110 61.62,-122 61.62,-122 61.62,-128 55.62,-134 49.62,-134"/>
<text xml:space="preserve" text-anchor="middle" x="34.62" y="-112.5" font-family="Arial" font-size="10.00" fill="#1a1a1a">red color</text>
</g>
<!-- attr_4 -->
<g id="node12" class="node">
<title>attr_4</title>
<path fill="#c7b8e6" stroke="#7f8c8d" stroke-width="1.2" d="M238.5,-166C238.5,-166 124.25,-166 124.25,-166 118.25,-166 112.25,-160 112.25,-154 112.25,-154 112.25,-142 112.25,-142 112.25,-136 118.25,-130 124.25,-130 124.25,-130 238.5,-130 238.5,-130 244.5,-130 250.5,-136 250.5,-142 250.5,-142 250.5,-154 250.5,-154 250.5,-160 244.5,-166 238.5,-166"/>
<text xml:space="preserve" text-anchor="middle" x="181.38" y="-144.5" font-family="Arial" font-size="10.00" fill="#1a1a1a">(+) harsh high contrast color</text>
</g>
<!-- unknown.red_color&#45;&gt;attr_4 -->
<g id="edge6" class="edge">
<title>unknown.red_color&#45;&gt;attr_4</title>
<path fill="none" stroke="#aaaaaa" d="M62.51,-121.94C74.31,-124.55 88.82,-127.76 103.57,-131.02"/>
<polygon fill="#aaaaaa" stroke="#aaaaaa" points="102.93,-133.39 110.3,-132.51 103.99,-128.6 102.93,-133.39"/>
</g>
<!-- rel_1 -->
<g id="node15" class="node">
<title>rel_1</title>
<path fill="#f5b8b8" stroke="#d46a6a" stroke-width="1.2" d="M208.12,-101C208.12,-101 154.62,-101 154.62,-101 148.62,-101 142.62,-95 142.62,-89 142.62,-89 142.62,-77 142.62,-77 142.62,-71 148.62,-65 154.62,-65 154.62,-65 208.12,-65 208.12,-65 214.12,-65 220.12,-71 220.12,-77 220.12,-77 220.12,-89 220.12,-89 220.12,-95 214.12,-101 208.12,-101"/>
<text xml:space="preserve" text-anchor="middle" x="181.38" y="-79.5" font-family="Arial" font-size="10.00" fill="#8b0000">contrasts with</text>
</g>
<!-- unknown.red_color&#45;&gt;rel_1 -->
<g id="edge10" class="edge">
<title>unknown.red_color&#45;&gt;rel_1</title>
<path fill="none" stroke="#d46a6a" stroke-width="1.5" d="M62.51,-109.87C82.11,-105.4 109.2,-99.23 132.47,-93.92"/>
<polygon fill="#d46a6a" stroke="#d46a6a" stroke-width="1.5" points="132.78,-96.72 139.96,-92.21 131.53,-91.26 132.78,-96.72"/>
</g>
<!-- unknown.dark_green_color -->
<g id="node6" class="node">
<title>unknown.dark_green_color</title>
<path fill="#b8e6b8" stroke="#2c3e50" stroke-width="1.8" d="M374.75,-166C374.75,-166 313,-166 313,-166 307,-166 301,-160 301,-154 301,-154 301,-142 301,-142 301,-136 307,-130 313,-130 313,-130 374.75,-130 374.75,-130 380.75,-130 386.75,-136 386.75,-142 386.75,-142 386.75,-154 386.75,-154 386.75,-160 380.75,-166 374.75,-166"/>
<text xml:space="preserve" text-anchor="middle" x="343.88" y="-144.5" font-family="Arial" font-size="10.00" fill="#1a1a1a">dark green color</text>
</g>
<!-- attr_5 -->
<g id="node13" class="node">
<title>attr_5</title>
<path fill="#c7b8e6" stroke="#7f8c8d" stroke-width="1.2" d="M557.88,-166C557.88,-166 463.88,-166 463.88,-166 457.88,-166 451.88,-160 451.88,-154 451.88,-154 451.88,-142 451.88,-142 451.88,-136 457.88,-130 463.88,-130 463.88,-130 557.88,-130 557.88,-130 563.88,-130 569.88,-136 569.88,-142 569.88,-142 569.88,-154 569.88,-154 569.88,-160 563.88,-166 557.88,-166"/>
<text xml:space="preserve" text-anchor="middle" x="510.88" y="-144.5" font-family="Arial" font-size="10.00" fill="#1a1a1a">(−) softer contrast color</text>
</g>
<!-- unknown.dark_green_color&#45;&gt;attr_5 -->
<g id="edge7" class="edge">
<title>unknown.dark_green_color&#45;&gt;attr_5</title>
<path fill="none" stroke="#aaaaaa" d="M387.37,-148C404.33,-148 424.28,-148 443.1,-148"/>
<polygon fill="#aaaaaa" stroke="#aaaaaa" points="442.85,-150.45 449.85,-148 442.85,-145.55 442.85,-150.45"/>
</g>
<!-- rel_0&#45;&gt;unknown.area_shapes -->
<g id="edge9" class="edge">
<title>rel_0&#45;&gt;unknown.area_shapes</title>
<path fill="none" stroke="#d46a6a" stroke-width="1.5" d="M249.98,-278C266.4,-278 283.56,-278 298.59,-278"/>
<polygon fill="#d46a6a" stroke="#d46a6a" stroke-width="1.5" points="298.35,-280.8 306.35,-278 298.35,-275.2 298.35,-280.8"/>
</g>
<!-- rel_1&#45;&gt;unknown.dark_green_color -->
<g id="edge11" class="edge">
<title>rel_1&#45;&gt;unknown.dark_green_color</title>
<path fill="none" stroke="#d46a6a" stroke-width="1.5" d="M220.41,-98.4C241.51,-106.95 268.06,-117.7 291.04,-127.01"/>
<polygon fill="#d46a6a" stroke="#d46a6a" stroke-width="1.5" points="289.74,-129.5 298.2,-129.91 291.84,-124.31 289.74,-129.5"/>
</g>
<!-- rel_2&#45;&gt;unknown.text_labels -->
<g id="edge13" class="edge">
<title>rel_2&#45;&gt;unknown.text_labels</title>
<path fill="none" stroke="#d46a6a" stroke-width="1.5" d="M559.88,-36.57C568.33,-40.56 576.86,-45.07 584.5,-50 601.76,-61.13 618.97,-76.34 632.28,-89.25"/>
<polygon fill="#d46a6a" stroke="#d46a6a" stroke-width="1.5" points="629.98,-90.91 637.64,-94.54 633.92,-86.93 629.98,-90.91"/>
</g>
<!-- rel_3&#45;&gt;unknown.text_labels -->
<g id="edge15" class="edge">
<title>rel_3&#45;&gt;unknown.text_labels</title>
<path fill="none" stroke="#d46a6a" stroke-width="1.5" d="M550.77,-198.61C562.04,-193.72 574.11,-187.76 584.5,-181 601.96,-169.64 619.29,-154.07 632.62,-140.9"/>
<polygon fill="#d46a6a" stroke="#d46a6a" stroke-width="1.5" points="634.35,-143.14 638,-135.48 630.38,-139.19 634.35,-143.14"/>
</g>
<!-- rel_4&#45;&gt;unknown.dark_green_color -->
<g id="edge17" class="edge">
<title>rel_4&#45;&gt;unknown.dark_green_color</title>
<path fill="none" stroke="#d46a6a" stroke-width="1.5" d="M216.02,-199.37C237.78,-190.56 266.54,-178.91 291.18,-168.94"/>
<polygon fill="#d46a6a" stroke="#d46a6a" stroke-width="1.5" points="291.92,-171.66 298.29,-166.06 289.82,-166.46 291.92,-171.66"/>
</g>
</g>
</svg>
