<?xml version="1.0" encoding="UTF-8" standalone="no"?>
<!DOCTYPE svg PUBLIC "-//W3C//DTD SVG 1.1//EN"
 "http://www.w3.org/Graphics/SVG/1.1/DTD/svg11.dtd">
<!-- Generated by graphviz version 14.1.5 (20260411.2331)
 -->
<!-- Title: economist_daily_chart_153.png Pages: 1 -->
<svg width="800pt" height="375pt"
 viewBox="0.00 0.00 800.00 375.00" xmlns="http://www.w3.org/2000/svg" xmlns:xlink="http://www.w3.org/1999/xlink">
<g id="graph0" class="graph" transform="scale(1 1) rotate(0) translate(4 371.25)">
<title>economist_daily_chart_153.png</title>
<polygon fill="white" stroke="none" points="-4,4 -4,-371.25 795.75,-371.25 795.75,4 -4,4"/>
<text xml:space="preserve" text-anchor="start" x="293.12" y="-346.95" font-family="Arial" font-weight="bold" font-size="14.00">economist_daily_chart_153.png</text>
<text xml:space="preserve" text-anchor="start" x="352" y="-327" font-family="Arial" font-size="11.00">Area &#160;| &#160;VC = 0.53</text>
<path fill="#b8e6b8" stroke="none" d="M186.5,-302C186.5,-302 194.5,-302 194.5,-302 197.5,-302 200.5,-305 200.5,-308 200.5,-308 200.5,-314 200.5,-314 200.5,-317 197.5,-320 194.5,-320 194.5,-320 186.5,-320 186.5,-320 183.5,-320 180.5,-317 180.5,-314 180.5,-314 180.5,-308 180.5,-308 180.5,-305 183.5,-302 186.5,-302"/>
<path fill="none" stroke="black" d="M186.5,-302C186.5,-302 194.5,-302 194.5,-302 197.5,-302 200.5,-305 200.5,-308 200.5,-308 200.5,-314 200.5,-314 200.5,-317 197.5,-320 194.5,-320 194.5,-320 186.5,-320 186.5,-320 183.5,-320 180.5,-317 180.5,-314 180.5,-314 180.5,-308 180.5,-308 180.5,-305 183.5,-302 186.5,-302"/>
<text xml:space="preserve" text-anchor="start" x="189" y="-307.25" font-family="Arial" font-size="10.00"> </text>
<text xml:space="preserve" text-anchor="start" x="204.5" y="-307.25" font-family="Arial" font-size="10.00">Object</text>
<path fill="#c7b8e6" stroke="none" d="M243,-302C243,-302 251,-302 251,-302 254,-302 257,-305 257,-308 257,-308 257,-314 257,-314 257,-317 254,-320 251,-320 251,-320 243,-320 243,-320 240,-320 237,-317 237,-314 237,-314 237,-308 237,-308 237,-305 240,-302 243,-302"/>
<path fill="none" stroke="black" d="M243,-302C243,-302 251,-302 251,-302 254,-302 257,-305 257,-308 257,-308 257,-314 257,-314 257,-317 254,-320 251,-320 251,-320 243,-320 243,-320 240,-320 237,-317 237,-314 237,-314 237,-308 237,-308 237,-305 240,-302 243,-302"/>
<text xml:space="preserve" text-anchor="start" x="245.5" y="-307.25" font-family="Arial" font-size="10.00"> </text>
<text xml:space="preserve" text-anchor="start" x="261" y="-307.25" font-family="Arial" font-size="10.00">Attribute</text>
<path fill="#f5b8b8" stroke="none" d="M307.75,-302C307.75,-302 315.75,-302 315.75,-302 318.75,-302 321.75,-305 321.75,-308 321.75,-308 321.75,-314 321.75,-314 321.75,-317 318.75,-320 315.75,-320 315.75,-320 307.75,-320 307.75,-320 304.75,-320 301.75,-317 301.75,-314 301.75,-314 301.75,-308 301.75,-308 301.75,-305 304.75,-302 307.75,-302"/>
<path fill="none" stroke="black" d="M307.75,-302C307.75,-302 315.75,-302 315.75,-302 318.75,-302 321.75,-305 321.75,-308 321.75,-308 321.75,-314 321.75,-314 321.75,-317 318.75,-320 315.75,-320 315.75,-320 307.75,-320 307.75,-320 304.75,-320 301.75,-317 301.75,-314 301.75,-314 301.75,-308 301.75,-308 301.75,-305 304.75,-302 307.75,-302"/>
<text xml:space="preserve" text-anchor="start" x="310.25" y="-307.25" font-family="Arial" font-size="10.00"> </text>
<text xml:space="preserve" text-anchor="start" x="325.75" y="-307.25" font-family="Arial" font-size="10.00">Relationship</text>
<text xml:space="preserve" text-anchor="start" x="385.75" y="-308.5" font-family="Arial" font-weight="bold" font-size="10.00">(+)</text>
<text xml:space="preserve" text-anchor="start" x="397.75" y="-308.5" font-family="Arial" font-size="10.00"> increases complexity</text>
<text xml:space="preserve" text-anchor="start" x="499" y="-308.5" font-family="Arial" font-weight="bold" font-size="10.00">(−)</text>
<text xml:space="preserve" text-anchor="start" x="511" y="-308.5" font-family="Arial" font-size="10.00"> decreases complexity</text>
<!-- unknown.area_fill -->
<g id="node1" class="node">
<title>unknown.area_fill</title>
<path fill="#b8e6b8" stroke="#2c3e50" stroke-width="1.8" d="M345,-263C345,-263 315,-263 315,-263 309,-263 303,-257 303,-251 303,-251 303,-239 303,-239 303,-233 309,-227 315,-227 315,-227 345,-227 345,-227 351,-227 357,-233 357,-239 357,-239 357,-251 357,-251 357,-257 351,-263 345,-263"/>
<text xml:space="preserve" text-anchor="middle" x="330" y="-241.5" font-family="Arial" font-size="10.00" fill="#1a1a1a">area fill</text>
</g>
<!-- attr_2 -->
<g id="node6" class="node">
<title>attr_2</title>
<path fill="#c7b8e6" stroke="#7f8c8d" stroke-width="1.2" d="M518.12,-296C518.12,-296 430.88,-296 430.88,-296 424.88,-296 418.88,-290 418.88,-284 418.88,-284 418.88,-272 418.88,-272 418.88,-266 424.88,-260 430.88,-260 430.88,-260 518.12,-260 518.12,-260 524.12,-260 530.12,-266 530.12,-272 530.12,-272 530.12,-284 530.12,-284 530.12,-290 524.12,-296 518.12,-296"/>
<text xml:space="preserve" text-anchor="middle" x="474.5" y="-274.5" font-family="Arial" font-size="10.00" fill="#1a1a1a">(−) layered soft colors</text>
</g>
<!-- unknown.area_fill&#45;&gt;attr_2 -->
<g id="edge1" class="edge">
<title>unknown.area_fill&#45;&gt;attr_2</title>
<path fill="none" stroke="#aaaaaa" d="M357.8,-251.21C372.76,-254.67 392.06,-259.14 410.6,-263.43"/>
<polygon fill="#aaaaaa" stroke="#aaaaaa" points="409.64,-265.73 417.01,-264.92 410.75,-260.95 409.64,-265.73"/>
</g>
<!-- rel_1 -->
<g id="node13" class="node">
<title>rel_1</title>
<path fill="#f5b8b8" stroke="#d46a6a" stroke-width="1.2" d="M520.75,-231C520.75,-231 428.25,-231 428.25,-231 422.25,-231 416.25,-225 416.25,-219 416.25,-219 416.25,-207 416.25,-207 416.25,-201 422.25,-195 428.25,-195 428.25,-195 520.75,-195 520.75,-195 526.75,-195 532.75,-201 532.75,-207 532.75,-207 532.75,-219 532.75,-219 532.75,-225 526.75,-231 520.75,-231"/>
<text xml:space="preserve" text-anchor="middle" x="474.5" y="-209.5" font-family="Arial" font-size="10.00" fill="#8b0000">enhances readability of</text>
</g>
<!-- unknown.area_fill&#45;&gt;rel_1 -->
<g id="edge9" class="edge">
<title>unknown.area_fill&#45;&gt;rel_1</title>
<path fill="none" stroke="#d46a6a" stroke-width="1.5" d="M357.8,-238.98C371.48,-235.91 388.81,-232.02 405.85,-228.19"/>
<polygon fill="#d46a6a" stroke="#d46a6a" stroke-width="1.5" points="406.42,-230.93 413.61,-226.45 405.19,-225.47 406.42,-230.93"/>
</g>
<!-- unknown.color_scheme -->
<g id="node2" class="node">
<title>unknown.color_scheme</title>
<path fill="#b8e6b8" stroke="#2c3e50" stroke-width="1.8" d="M62.5,-133C62.5,-133 12,-133 12,-133 6,-133 0,-127 0,-121 0,-121 0,-109 0,-109 0,-103 6,-97 12,-97 12,-97 62.5,-97 62.5,-97 68.5,-97 74.5,-103 74.5,-109 74.5,-109 74.5,-121 74.5,-121 74.5,-127 68.5,-133 62.5,-133"/>
<text xml:space="preserve" text-anchor="middle" x="37.25" y="-111.5" font-family="Arial" font-size="10.00" fill="#1a1a1a">color scheme</text>
</g>
<!-- attr_0 -->
<g id="node7" class="node">
<title>attr_0</title>
<path fill="#c7b8e6" stroke="#7f8c8d" stroke-width="1.2" d="M218.62,-231C218.62,-231 152.38,-231 152.38,-231 146.38,-231 140.38,-225 140.38,-219 140.38,-219 140.38,-207 140.38,-207 140.38,-201 146.38,-195 152.38,-195 152.38,-195 218.62,-195 218.62,-195 224.62,-195 230.62,-201 230.62,-207 230.62,-207 230.62,-219 230.62,-219 230.62,-225 224.62,-231 218.62,-231"/>
<text xml:space="preserve" text-anchor="middle" x="185.5" y="-209.5" font-family="Arial" font-size="10.00" fill="#1a1a1a">(−) soft blue tone</text>
</g>
<!-- unknown.color_scheme&#45;&gt;attr_0 -->
<g id="edge2" class="edge">
<title>unknown.color_scheme&#45;&gt;attr_0</title>
<path fill="none" stroke="#aaaaaa" d="M58.02,-133.86C73.43,-147.94 95.79,-167.09 117.5,-181 122.77,-184.37 128.44,-187.62 134.18,-190.66"/>
<polygon fill="#aaaaaa" stroke="#aaaaaa" points="132.77,-192.69 140.12,-193.71 135.01,-188.33 132.77,-192.69"/>
</g>
<!-- attr_1 -->
<g id="node8" class="node">
<title>attr_1</title>
<path fill="#c7b8e6" stroke="#7f8c8d" stroke-width="1.2" d="M241.5,-166C241.5,-166 129.5,-166 129.5,-166 123.5,-166 117.5,-160 117.5,-154 117.5,-154 117.5,-142 117.5,-142 117.5,-136 123.5,-130 129.5,-130 129.5,-130 241.5,-130 241.5,-130 247.5,-130 253.5,-136 253.5,-142 253.5,-142 253.5,-154 253.5,-154 253.5,-160 247.5,-166 241.5,-166"/>
<text xml:space="preserve" text-anchor="middle" x="185.5" y="-144.5" font-family="Arial" font-size="10.00" fill="#1a1a1a">(−) visually pleasant palette</text>
</g>
<!-- unknown.color_scheme&#45;&gt;attr_1 -->
<g id="edge3" class="edge">
<title>unknown.color_scheme&#45;&gt;attr_1</title>
<path fill="none" stroke="#aaaaaa" d="M75.16,-123.33C85.54,-125.67 97.22,-128.31 108.99,-130.96"/>
<polygon fill="#aaaaaa" stroke="#aaaaaa" points="108.29,-133.32 115.66,-132.47 109.37,-128.54 108.29,-133.32"/>
</g>
<!-- rel_0 -->
<g id="node12" class="node">
<title>rel_0</title>
<path fill="#f5b8b8" stroke="#d46a6a" stroke-width="1.2" d="M221.25,-101C221.25,-101 149.75,-101 149.75,-101 143.75,-101 137.75,-95 137.75,-89 137.75,-89 137.75,-77 137.75,-77 137.75,-71 143.75,-65 149.75,-65 149.75,-65 221.25,-65 221.25,-65 227.25,-65 233.25,-71 233.25,-77 233.25,-77 233.25,-89 233.25,-89 233.25,-95 227.25,-101 221.25,-101"/>
<text xml:space="preserve" text-anchor="middle" x="185.5" y="-79.5" font-family="Arial" font-size="10.00" fill="#8b0000">reduces perceived</text>
</g>
<!-- unknown.color_scheme&#45;&gt;rel_0 -->
<g id="edge7" class="edge">
<title>unknown.color_scheme&#45;&gt;rel_0</title>
<path fill="none" stroke="#d46a6a" stroke-width="1.5" d="M75.16,-106.93C91.08,-103.44 110.06,-99.29 127.71,-95.43"/>
<polygon fill="#d46a6a" stroke="#d46a6a" stroke-width="1.5" points="127.92,-98.25 135.13,-93.8 126.72,-92.78 127.92,-98.25"/>
</g>
<!-- rel_2 -->
<g id="node14" class="node">
<title>rel_2</title>
<path fill="#f5b8b8" stroke="#d46a6a" stroke-width="1.2" d="M237.75,-36C237.75,-36 133.25,-36 133.25,-36 127.25,-36 121.25,-30 121.25,-24 121.25,-24 121.25,-12 121.25,-12 121.25,-6 127.25,0 133.25,0 133.25,0 237.75,0 237.75,0 243.75,0 249.75,-6 249.75,-12 249.75,-12 249.75,-24 249.75,-24 249.75,-30 243.75,-36 237.75,-36"/>
<text xml:space="preserve" text-anchor="middle" x="185.5" y="-14.5" font-family="Arial" font-size="10.00" fill="#8b0000">facilitates interpretation of</text>
</g>
<!-- unknown.color_scheme&#45;&gt;rel_2 -->
<g id="edge11" class="edge">
<title>unknown.color_scheme&#45;&gt;rel_2</title>
<path fill="none" stroke="#d46a6a" stroke-width="1.5" d="M58.81,-96.27C74.27,-82.73 96.34,-64.52 117.5,-51 122.81,-47.61 128.51,-44.32 134.27,-41.21"/>
<polygon fill="#d46a6a" stroke="#d46a6a" stroke-width="1.5" points="135.51,-43.72 141.31,-37.54 132.92,-38.76 135.51,-43.72"/>
</g>
<!-- unknown.data_area -->
<g id="node3" class="node">
<title>unknown.data_area</title>
<path fill="#b8e6b8" stroke="#2c3e50" stroke-width="1.8" d="M630,-166C630,-166 597.5,-166 597.5,-166 591.5,-166 585.5,-160 585.5,-154 585.5,-154 585.5,-142 585.5,-142 585.5,-136 591.5,-130 597.5,-130 597.5,-130 630,-130 630,-130 636,-130 642,-136 642,-142 642,-142 642,-154 642,-154 642,-160 636,-166 630,-166"/>
<text xml:space="preserve" text-anchor="middle" x="613.75" y="-144.5" font-family="Arial" font-size="10.00" fill="#1a1a1a">data area</text>
</g>
<!-- attr_3 -->
<g id="node9" class="node">
<title>attr_3</title>
<path fill="#c7b8e6" stroke="#7f8c8d" stroke-width="1.2" d="M779.75,-166C779.75,-166 697,-166 697,-166 691,-166 685,-160 685,-154 685,-154 685,-142 685,-142 685,-136 691,-130 697,-130 697,-130 779.75,-130 779.75,-130 785.75,-130 791.75,-136 791.75,-142 791.75,-142 791.75,-154 791.75,-154 791.75,-160 785.75,-166 779.75,-166"/>
<text xml:space="preserve" text-anchor="middle" x="738.38" y="-144.5" font-family="Arial" font-size="10.00" fill="#1a1a1a">(−) easy to read data</text>
</g>
<!-- unknown.data_area&#45;&gt;attr_3 -->
<g id="edge4" class="edge">
<title>unknown.data_area&#45;&gt;attr_3</title>
<path fill="none" stroke="#aaaaaa" d="M642.88,-148C652.9,-148 664.6,-148 676.29,-148"/>
<polygon fill="#aaaaaa" stroke="#aaaaaa" points="676.27,-150.45 683.27,-148 676.27,-145.55 676.27,-150.45"/>
</g>
<!-- unknown.text_labels -->
<g id="node4" class="node">
<title>unknown.text_labels</title>
<path fill="#b8e6b8" stroke="#2c3e50" stroke-width="1.8" d="M348.5,-36C348.5,-36 311.5,-36 311.5,-36 305.5,-36 299.5,-30 299.5,-24 299.5,-24 299.5,-12 299.5,-12 299.5,-6 305.5,0 311.5,0 311.5,0 348.5,0 348.5,0 354.5,0 360.5,-6 360.5,-12 360.5,-12 360.5,-24 360.5,-24 360.5,-30 354.5,-36 348.5,-36"/>
<text xml:space="preserve" text-anchor="middle" x="330" y="-14.5" font-family="Arial" font-size="10.00" fill="#1a1a1a">text labels</text>
</g>
<!-- attr_5 -->
<g id="node10" class="node">
<title>attr_5</title>
<path fill="#c7b8e6" stroke="#7f8c8d" stroke-width="1.2" d="M526.38,-36C526.38,-36 422.62,-36 422.62,-36 416.62,-36 410.62,-30 410.62,-24 410.62,-24 410.62,-12 410.62,-12 410.62,-6 416.62,0 422.62,0 422.62,0 526.38,0 526.38,0 532.38,0 538.38,-6 538.38,-12 538.38,-12 538.38,-24 538.38,-24 538.38,-30 532.38,-36 526.38,-36"/>
<text xml:space="preserve" text-anchor="middle" x="474.5" y="-14.5" font-family="Arial" font-size="10.00" fill="#1a1a1a">(−) comprehensible labels</text>
</g>
<!-- unknown.text_labels&#45;&gt;attr_5 -->
<g id="edge5" class="edge">
<title>unknown.text_labels&#45;&gt;attr_5</title>
<path fill="none" stroke="#aaaaaa" d="M361.22,-18C373.17,-18 387.46,-18 401.77,-18"/>
<polygon fill="#aaaaaa" stroke="#aaaaaa" points="401.67,-20.45 408.67,-18 401.67,-15.55 401.67,-20.45"/>
</g>
<!-- unknown.chart_layout -->
<g id="node5" class="node">
<title>unknown.chart_layout</title>
<path fill="#b8e6b8" stroke="#2c3e50" stroke-width="1.8" d="M351.5,-101C351.5,-101 308.5,-101 308.5,-101 302.5,-101 296.5,-95 296.5,-89 296.5,-89 296.5,-77 296.5,-77 296.5,-71 302.5,-65 308.5,-65 308.5,-65 351.5,-65 351.5,-65 357.5,-65 363.5,-71 363.5,-77 363.5,-77 363.5,-89 363.5,-89 363.5,-95 357.5,-101 351.5,-101"/>
<text xml:space="preserve" text-anchor="middle" x="330" y="-79.5" font-family="Arial" font-size="10.00" fill="#1a1a1a">chart layout</text>
</g>
<!-- attr_4 -->
<g id="node11" class="node">
<title>attr_4</title>
<path fill="#c7b8e6" stroke="#7f8c8d" stroke-width="1.2" d="M530.5,-166C530.5,-166 418.5,-166 418.5,-166 412.5,-166 406.5,-160 406.5,-154 406.5,-154 406.5,-142 406.5,-142 406.5,-136 412.5,-130 418.5,-130 418.5,-130 530.5,-130 530.5,-130 536.5,-130 542.5,-136 542.5,-142 542.5,-142 542.5,-154 542.5,-154 542.5,-160 536.5,-166 530.5,-166"/>
<text xml:space="preserve" text-anchor="middle" x="474.5" y="-144.5" font-family="Arial" font-size="10.00" fill="#1a1a1a">(−) clear visual organization</text>
</g>
<!-- unknown.chart_layout&#45;&gt;attr_4 -->
<g id="edge6" class="edge">
<title>unknown.chart_layout&#45;&gt;attr_4</title>
<path fill="none" stroke="#aaaaaa" d="M364.05,-98.08C382.2,-106.36 405.05,-116.78 425.17,-125.96"/>
<polygon fill="#aaaaaa" stroke="#aaaaaa" points="423.97,-128.1 431.36,-128.78 426.01,-123.64 423.97,-128.1"/>
</g>
<!-- rel_3 -->
<g id="node15" class="node">
<title>rel_3</title>
<path fill="#f5b8b8" stroke="#d46a6a" stroke-width="1.2" d="M529.38,-101C529.38,-101 419.62,-101 419.62,-101 413.62,-101 407.62,-95 407.62,-89 407.62,-89 407.62,-77 407.62,-77 407.62,-71 413.62,-65 419.62,-65 419.62,-65 529.38,-65 529.38,-65 535.38,-65 541.38,-71 541.38,-77 541.38,-77 541.38,-89 541.38,-89 541.38,-95 535.38,-101 529.38,-101"/>
<text xml:space="preserve" text-anchor="middle" x="474.5" y="-79.5" font-family="Arial" font-size="10.00" fill="#8b0000">supports comprehension of</text>
</g>
<!-- unknown.chart_layout&#45;&gt;rel_3 -->
<g id="edge13" class="edge">
<title>unknown.chart_layout&#45;&gt;rel_3</title>
<path fill="none" stroke="#d46a6a" stroke-width="1.5" d="M364.05,-83C374.03,-83 385.44,-83 397.03,-83"/>
<polygon fill="#d46a6a" stroke="#d46a6a" stroke-width="1.5" points="396.96,-85.8 404.96,-83 396.96,-80.2 396.96,-85.8"/>
</g>
<!-- rel_0&#45;&gt;unknown.chart_layout -->
<g id="edge8" class="edge">
<title>rel_0&#45;&gt;unknown.chart_layout</title>
<path fill="none" stroke="#d46a6a" stroke-width="1.5" d="M233.55,-83C250.47,-83 269.46,-83 286.01,-83"/>
<polygon fill="#d46a6a" stroke="#d46a6a" stroke-width="1.5" points="285.69,-85.8 293.69,-83 285.69,-80.2 285.69,-85.8"/>
</g>
<!-- rel_1&#45;&gt;unknown.data_area -->
<g id="edge10" class="edge">
<title>rel_1&#45;&gt;unknown.data_area</title>
<path fill="none" stroke="#d46a6a" stroke-width="1.5" d="M514.46,-194.55C533.72,-185.43 556.83,-174.48 575.8,-165.5"/>
<polygon fill="#d46a6a" stroke="#d46a6a" stroke-width="1.5" points="576.94,-168.06 582.98,-162.1 574.55,-162.99 576.94,-168.06"/>
</g>
<!-- rel_2&#45;&gt;unknown.text_labels -->
<g id="edge12" class="edge">
<title>rel_2&#45;&gt;unknown.text_labels</title>
<path fill="none" stroke="#d46a6a" stroke-width="1.5" d="M250.25,-18C263.32,-18 276.72,-18 288.69,-18"/>
<polygon fill="#d46a6a" stroke="#d46a6a" stroke-width="1.5" points="288.51,-20.8 296.51,-18 288.51,-15.2 288.51,-20.8"/>
</g>
<!-- rel_3&#45;&gt;unknown.data_area -->
<g id="edge14" class="edge">
<title>rel_3&#45;&gt;unknown.data_area</title>
<path fill="none" stroke="#d46a6a" stroke-width="1.5" d="M514.46,-101.45C533.72,-110.57 556.83,-121.52 575.8,-130.5"/>
<polygon fill="#d46a6a" stroke="#d46a6a" stroke-width="1.5" points="574.55,-133.01 582.98,-133.9 576.94,-127.94 574.55,-133.01"/>
</g>
</g>
</svg>
