<?xml version="1.0" encoding="UTF-8" standalone="no"?>
<!DOCTYPE svg PUBLIC "-//W3C//DTD SVG 1.1//EN"
 "http://www.w3.org/Graphics/SVG/1.1/DTD/svg11.dtd">
<!-- Generated by graphviz version 14.1.5 (20260411.2331)
 -->
<!-- Title: economist_daily_chart_118.png Pages: 1 -->
<svg width="818pt" height="311pt"
 viewBox="0.00 0.00 818.00 311.00" xmlns="http://www.w3.org/2000/svg" xmlns:xlink="http://www.w3.org/1999/xlink">
<g id="graph0" class="graph" transform="scale(1 1) rotate(0) translate(4 307.25)">
<title>economist_daily_chart_118.png</title>
<polygon fill="white" stroke="none" points="-4,4 -4,-307.25 813.75,-307.25 813.75,4 -4,4"/>
<text xml:space="preserve" text-anchor="start" x="302.5" y="-282.95" font-family="Arial" font-weight="bold" font-size="14.00">economist_daily_chart_118.png</text>
<text xml:space="preserve" text-anchor="start" x="362.5" y="-263" font-family="Arial" font-size="11.00">Line &#160;| &#160;VC = 0.50</text>
<path fill="#b8e6b8" stroke="none" d="M195.5,-238C195.5,-238 203.5,-238 203.5,-238 206.5,-238 209.5,-241 209.5,-244 209.5,-244 209.5,-250 209.5,-250 209.5,-253 206.5,-256 203.5,-256 203.5,-256 195.5,-256 195.5,-256 192.5,-256 189.5,-253 189.5,-250 189.5,-250 189.5,-244 189.5,-244 189.5,-241 192.5,-238 195.5,-238"/>
<path fill="none" stroke="black" d="M195.5,-238C195.5,-238 203.5,-238 203.5,-238 206.5,-238 209.5,-241 209.5,-244 209.5,-244 209.5,-250 209.5,-250 209.5,-253 206.5,-256 203.5,-256 203.5,-256 195.5,-256 195.5,-256 192.5,-256 189.5,-253 189.5,-250 189.5,-250 189.5,-244 189.5,-244 189.5,-241 192.5,-238 195.5,-238"/>
<text xml:space="preserve" text-anchor="start" x="198" y="-243.25" font-family="Arial" font-size="10.00"> </text>
<text xml:space="preserve" text-anchor="start" x="213.5" y="-243.25" font-family="Arial" font-size="10.00">Object</text>
<path fill="#c7b8e6" stroke="none" d="M252,-238C252,-238 260,-238 260,-238 263,-238 266,-241 266,-244 266,-244 266,-250 266,-250 266,-253 263,-256 260,-256 260,-256 252,-256 252,-256 249,-256 246,-253 246,-250 246,-250 246,-244 246,-244 246,-241 249,-238 252,-238"/>
<path fill="none" stroke="black" d="M252,-238C252,-238 260,-238 260,-238 263,-238 266,-241 266,-244 266,-244 266,-250 266,-250 266,-253 263,-256 260,-256 260,-256 252,-256 252,-256 249,-256 246,-253 246,-250 246,-250 246,-244 246,-244 246,-241 249,-238 252,-238"/>
<text xml:space="preserve" text-anchor="start" x="254.5" y="-243.25" font-family="Arial" font-size="10.00"> </text>
<text xml:space="preserve" text-anchor="start" x="270" y="-243.25" font-family="Arial" font-size="10.00">Attribute</text>
<path fill="#f5b8b8" stroke="none" d="M316.75,-238C316.75,-238 324.75,-238 324.75,-238 327.75,-238 330.75,-241 330.75,-244 330.75,-244 330.75,-250 330.75,-250 330.75,-253 327.75,-256 324.75,-256 324.75,-256 316.75,-256 316.75,-256 313.75,-256 310.75,-253 310.75,-250 310.75,-250 310.75,-244 310.75,-244 310.75,-241 313.75,-238 316.75,-238"/>
<path fill="none" stroke="black" d="M316.75,-238C316.75,-238 324.75,-238 324.75,-238 327.75,-238 330.75,-241 330.75,-244 330.75,-244 330.75,-250 330.75,-250 330.75,-253 327.75,-256 324.75,-256 324.75,-256 316.75,-256 316.75,-256 313.75,-256 310.75,-253 310.75,-250 310.75,-250 310.75,-244 310.75,-244 310.75,-241 313.75,-238 316.75,-238"/>
<text xml:space="preserve" text-anchor="start" x="319.25" y="-243.25" font-family="Arial" font-size="10.00"> </text>
<text xml:space="preserve" text-anchor="start" x="334.75" y="-243.25" font-family="Arial" font-size="10.00">Relationship</text>
<text xml:space="preserve" text-anchor="start" x="394.75" y="-244.5" font-family="Arial" font-weight="bold" font-size="10.00">(+)</text>
<text xml:space="preserve" text-anchor="start" x="406.75" y="-244.5" font-family="Arial" font-size="10.00"> increases complexity</text>
<text xml:space="preserve" text-anchor="start" x="508" y="-244.5" font-family="Arial" font-weight="bold" font-size="10.00">(−)</text>
<text xml:space="preserve" text-anchor="start" x="520" y="-244.5" font-family="Arial" font-size="10.00"> decreases complexity</text>
<!-- mark.line -->
<g id="node1" class="node">
<title>mark.line</title>
<path fill="#b8e6b8" stroke="#2c3e50" stroke-width="1.8" d="M323.62,-69C323.62,-69 293.62,-69 293.62,-69 287.62,-69 281.62,-63 281.62,-57 281.62,-57 281.62,-45 281.62,-45 281.62,-39 287.62,-33 293.62,-33 293.62,-33 323.62,-33 323.62,-33 329.62,-33 335.62,-39 335.62,-45 335.62,-45 335.62,-57 335.62,-57 335.62,-63 329.62,-69 323.62,-69"/>
<text xml:space="preserve" text-anchor="middle" x="308.62" y="-47.5" font-family="Arial" font-size="10.00" fill="#1a1a1a">line</text>
</g>
<!-- attr_0 -->
<g id="node6" class="node">
<title>attr_0</title>
<path fill="#c7b8e6" stroke="#7f8c8d" stroke-width="1.2" d="M479.5,-101C479.5,-101 411.75,-101 411.75,-101 405.75,-101 399.75,-95 399.75,-89 399.75,-89 399.75,-77 399.75,-77 399.75,-71 405.75,-65 411.75,-65 411.75,-65 479.5,-65 479.5,-65 485.5,-65 491.5,-71 491.5,-77 491.5,-77 491.5,-89 491.5,-89 491.5,-95 485.5,-101 479.5,-101"/>
<text xml:space="preserve" text-anchor="middle" x="445.62" y="-79.5" font-family="Arial" font-size="10.00" fill="#1a1a1a">(−) easy to follow</text>
</g>
<!-- mark.line&#45;&gt;attr_0 -->
<g id="edge1" class="edge">
<title>mark.line&#45;&gt;attr_0</title>
<path fill="none" stroke="#aaaaaa" d="M336.3,-57.32C351.96,-61.03 372.32,-65.86 391.16,-70.33"/>
<polygon fill="#aaaaaa" stroke="#aaaaaa" points="390.55,-72.7 397.93,-71.93 391.68,-67.93 390.55,-72.7"/>
</g>
<!-- rel_1 -->
<g id="node12" class="node">
<title>rel_1</title>
<path fill="#f5b8b8" stroke="#d46a6a" stroke-width="1.2" d="M475.75,-36C475.75,-36 415.5,-36 415.5,-36 409.5,-36 403.5,-30 403.5,-24 403.5,-24 403.5,-12 403.5,-12 403.5,-6 409.5,0 415.5,0 415.5,0 475.75,0 475.75,0 481.75,0 487.75,-6 487.75,-12 487.75,-12 487.75,-24 487.75,-24 487.75,-30 481.75,-36 475.75,-36"/>
<text xml:space="preserve" text-anchor="middle" x="445.62" y="-14.5" font-family="Arial" font-size="10.00" fill="#8b0000">clearly encodes</text>
</g>
<!-- mark.line&#45;&gt;rel_1 -->
<g id="edge8" class="edge">
<title>mark.line&#45;&gt;rel_1</title>
<path fill="none" stroke="#d46a6a" stroke-width="1.5" d="M336.3,-44.48C352.52,-40.51 373.8,-35.31 393.19,-30.57"/>
<polygon fill="#d46a6a" stroke="#d46a6a" stroke-width="1.5" points="393.81,-33.3 400.92,-28.68 392.48,-27.86 393.81,-33.3"/>
</g>
<!-- text.axis_label -->
<g id="node2" class="node">
<title>text.axis_label</title>
<path fill="#b8e6b8" stroke="#2c3e50" stroke-width="1.8" d="M325.25,-198C325.25,-198 292,-198 292,-198 286,-198 280,-192 280,-186 280,-186 280,-174 280,-174 280,-168 286,-162 292,-162 292,-162 325.25,-162 325.25,-162 331.25,-162 337.25,-168 337.25,-174 337.25,-174 337.25,-186 337.25,-186 337.25,-192 331.25,-198 325.25,-198"/>
<text xml:space="preserve" text-anchor="middle" x="308.62" y="-176.5" font-family="Arial" font-size="10.00" fill="#1a1a1a">axis label</text>
</g>
<!-- attr_3 -->
<g id="node7" class="node">
<title>attr_3</title>
<path fill="#c7b8e6" stroke="#7f8c8d" stroke-width="1.2" d="M499,-231C499,-231 392.25,-231 392.25,-231 386.25,-231 380.25,-225 380.25,-219 380.25,-219 380.25,-207 380.25,-207 380.25,-201 386.25,-195 392.25,-195 392.25,-195 499,-195 499,-195 505,-195 511,-201 511,-207 511,-207 511,-219 511,-219 511,-225 505,-231 499,-231"/>
<text xml:space="preserve" text-anchor="middle" x="445.62" y="-209.5" font-family="Arial" font-size="10.00" fill="#1a1a1a">(−) standard axis structure</text>
</g>
<!-- text.axis_label&#45;&gt;attr_3 -->
<g id="edge2" class="edge">
<title>text.axis_label&#45;&gt;attr_3</title>
<path fill="none" stroke="#aaaaaa" d="M337.93,-186.92C347.85,-189.34 359.51,-192.19 371.4,-195.1"/>
<polygon fill="#aaaaaa" stroke="#aaaaaa" points="370.8,-197.48 378.19,-196.76 371.97,-192.72 370.8,-197.48"/>
</g>
<!-- rel_2 -->
<g id="node13" class="node">
<title>rel_2</title>
<path fill="#f5b8b8" stroke="#d46a6a" stroke-width="1.2" d="M483.25,-166C483.25,-166 408,-166 408,-166 402,-166 396,-160 396,-154 396,-154 396,-142 396,-142 396,-136 402,-130 408,-130 408,-130 483.25,-130 483.25,-130 489.25,-130 495.25,-136 495.25,-142 495.25,-142 495.25,-154 495.25,-154 495.25,-160 489.25,-166 483.25,-166"/>
<text xml:space="preserve" text-anchor="middle" x="445.62" y="-144.5" font-family="Arial" font-size="10.00" fill="#8b0000">supports reading of</text>
</g>
<!-- text.axis_label&#45;&gt;rel_2 -->
<g id="edge10" class="edge">
<title>text.axis_label&#45;&gt;rel_2</title>
<path fill="none" stroke="#d46a6a" stroke-width="1.5" d="M337.93,-173.29C351.89,-169.98 369.27,-165.86 385.93,-161.91"/>
<polygon fill="#d46a6a" stroke="#d46a6a" stroke-width="1.5" points="386.27,-164.71 393.41,-160.14 384.98,-159.26 386.27,-164.71"/>
</g>
<!-- furniture.legend -->
<g id="node3" class="node">
<title>furniture.legend</title>
<path fill="#b8e6b8" stroke="#2c3e50" stroke-width="1.8" d="M48.5,-37C48.5,-37 18.5,-37 18.5,-37 12.5,-37 6.5,-31 6.5,-25 6.5,-25 6.5,-13 6.5,-13 6.5,-7 12.5,-1 18.5,-1 18.5,-1 48.5,-1 48.5,-1 54.5,-1 60.5,-7 60.5,-13 60.5,-13 60.5,-25 60.5,-25 60.5,-31 54.5,-37 48.5,-37"/>
<text xml:space="preserve" text-anchor="middle" x="33.5" y="-15.5" font-family="Arial" font-size="10.00" fill="#1a1a1a">legend</text>
</g>
<!-- rel_3 -->
<g id="node14" class="node">
<title>rel_3</title>
<path fill="#f5b8b8" stroke="#d46a6a" stroke-width="1.2" d="M201,-37C201,-37 146,-37 146,-37 140,-37 134,-31 134,-25 134,-25 134,-13 134,-13 134,-7 140,-1 146,-1 146,-1 201,-1 201,-1 207,-1 213,-7 213,-13 213,-13 213,-25 213,-25 213,-31 207,-37 201,-37"/>
<text xml:space="preserve" text-anchor="middle" x="173.5" y="-15.5" font-family="Arial" font-size="10.00" fill="#8b0000">disambiguates</text>
</g>
<!-- furniture.legend&#45;&gt;rel_3 -->
<g id="edge12" class="edge">
<title>furniture.legend&#45;&gt;rel_3</title>
<path fill="none" stroke="#d46a6a" stroke-width="1.5" d="M61.11,-19C78.74,-19 102.41,-19 123.39,-19"/>
<polygon fill="#d46a6a" stroke="#d46a6a" stroke-width="1.5" points="123.17,-21.8 131.17,-19 123.17,-16.2 123.17,-21.8"/>
</g>
<!-- unknown.chart_layout -->
<g id="node4" class="node">
<title>unknown.chart_layout</title>
<path fill="#b8e6b8" stroke="#2c3e50" stroke-width="1.8" d="M55,-167C55,-167 12,-167 12,-167 6,-167 0,-161 0,-155 0,-155 0,-143 0,-143 0,-137 6,-131 12,-131 12,-131 55,-131 55,-131 61,-131 67,-137 67,-143 67,-143 67,-155 67,-155 67,-161 61,-167 55,-167"/>
<text xml:space="preserve" text-anchor="middle" x="33.5" y="-145.5" font-family="Arial" font-size="10.00" fill="#1a1a1a">chart layout</text>
</g>
<!-- attr_1 -->
<g id="node8" class="node">
<title>attr_1</title>
<path fill="#c7b8e6" stroke="#7f8c8d" stroke-width="1.2" d="M225,-232C225,-232 122,-232 122,-232 116,-232 110,-226 110,-220 110,-220 110,-208 110,-208 110,-202 116,-196 122,-196 122,-196 225,-196 225,-196 231,-196 237,-202 237,-208 237,-208 237,-220 237,-220 237,-226 231,-232 225,-232"/>
<text xml:space="preserve" text-anchor="middle" x="173.5" y="-210.5" font-family="Arial" font-size="10.00" fill="#1a1a1a">(−) familiar representation</text>
</g>
<!-- unknown.chart_layout&#45;&gt;attr_1 -->
<g id="edge3" class="edge">
<title>unknown.chart_layout&#45;&gt;attr_1</title>
<path fill="none" stroke="#aaaaaa" d="M67.55,-164.57C84.94,-172.76 106.55,-182.94 125.64,-191.93"/>
<polygon fill="#aaaaaa" stroke="#aaaaaa" points="124.34,-194.03 131.72,-194.79 126.43,-189.59 124.34,-194.03"/>
</g>
<!-- attr_4 -->
<g id="node9" class="node">
<title>attr_4</title>
<path fill="#c7b8e6" stroke="#7f8c8d" stroke-width="1.2" d="M222.38,-167C222.38,-167 124.62,-167 124.62,-167 118.62,-167 112.62,-161 112.62,-155 112.62,-155 112.62,-143 112.62,-143 112.62,-137 118.62,-131 124.62,-131 124.62,-131 222.38,-131 222.38,-131 228.38,-131 234.38,-137 234.38,-143 234.38,-143 234.38,-155 234.38,-155 234.38,-161 228.38,-167 222.38,-167"/>
<text xml:space="preserve" text-anchor="middle" x="173.5" y="-145.5" font-family="Arial" font-size="10.00" fill="#1a1a1a">(−) low interpretive effort</text>
</g>
<!-- unknown.chart_layout&#45;&gt;attr_4 -->
<g id="edge4" class="edge">
<title>unknown.chart_layout&#45;&gt;attr_4</title>
<path fill="none" stroke="#aaaaaa" d="M67.55,-149C78.54,-149 91.22,-149 103.88,-149"/>
<polygon fill="#aaaaaa" stroke="#aaaaaa" points="103.66,-151.45 110.66,-149 103.66,-146.55 103.66,-151.45"/>
</g>
<!-- rel_0 -->
<g id="node11" class="node">
<title>rel_0</title>
<path fill="#f5b8b8" stroke="#d46a6a" stroke-width="1.2" d="M206.25,-102C206.25,-102 140.75,-102 140.75,-102 134.75,-102 128.75,-96 128.75,-90 128.75,-90 128.75,-78 128.75,-78 128.75,-72 134.75,-66 140.75,-66 140.75,-66 206.25,-66 206.25,-66 212.25,-66 218.25,-72 218.25,-78 218.25,-78 218.25,-90 218.25,-90 218.25,-96 212.25,-102 206.25,-102"/>
<text xml:space="preserve" text-anchor="middle" x="173.5" y="-80.5" font-family="Arial" font-size="10.00" fill="#8b0000">reduces effort for</text>
</g>
<!-- unknown.chart_layout&#45;&gt;rel_0 -->
<g id="edge6" class="edge">
<title>unknown.chart_layout&#45;&gt;rel_0</title>
<path fill="none" stroke="#d46a6a" stroke-width="1.5" d="M67.55,-133.43C84.4,-125.49 105.22,-115.69 123.86,-106.91"/>
<polygon fill="#d46a6a" stroke="#d46a6a" stroke-width="1.5" points="124.99,-109.47 131.04,-103.53 122.61,-104.41 124.99,-109.47"/>
</g>
<!-- unknown.trend_pattern -->
<g id="node5" class="node">
<title>unknown.trend_pattern</title>
<path fill="#b8e6b8" stroke="#2c3e50" stroke-width="1.8" d="M612.75,-101C612.75,-101 566,-101 566,-101 560,-101 554,-95 554,-89 554,-89 554,-77 554,-77 554,-71 560,-65 566,-65 566,-65 612.75,-65 612.75,-65 618.75,-65 624.75,-71 624.75,-77 624.75,-77 624.75,-89 624.75,-89 624.75,-95 618.75,-101 612.75,-101"/>
<text xml:space="preserve" text-anchor="middle" x="589.38" y="-79.5" font-family="Arial" font-size="10.00" fill="#1a1a1a">trend pattern</text>
</g>
<!-- attr_2 -->
<g id="node10" class="node">
<title>attr_2</title>
<path fill="#c7b8e6" stroke="#7f8c8d" stroke-width="1.2" d="M797.75,-101C797.75,-101 679.75,-101 679.75,-101 673.75,-101 667.75,-95 667.75,-89 667.75,-89 667.75,-77 667.75,-77 667.75,-71 673.75,-65 679.75,-65 679.75,-65 797.75,-65 797.75,-65 803.75,-65 809.75,-71 809.75,-77 809.75,-77 809.75,-89 809.75,-89 809.75,-95 803.75,-101 797.75,-101"/>
<text xml:space="preserve" text-anchor="middle" x="738.75" y="-79.5" font-family="Arial" font-size="10.00" fill="#1a1a1a">(−) clear directional tendency</text>
</g>
<!-- unknown.trend_pattern&#45;&gt;attr_2 -->
<g id="edge5" class="edge">
<title>unknown.trend_pattern&#45;&gt;attr_2</title>
<path fill="none" stroke="#aaaaaa" d="M625.3,-83C635.54,-83 647.17,-83 658.97,-83"/>
<polygon fill="#aaaaaa" stroke="#aaaaaa" points="658.64,-85.45 665.64,-83 658.64,-80.55 658.64,-85.45"/>
</g>
<!-- rel_0&#45;&gt;mark.line -->
<g id="edge7" class="edge">
<title>rel_0&#45;&gt;mark.line</title>
<path fill="none" stroke="#d46a6a" stroke-width="1.5" d="M218.83,-73.01C235.87,-68.79 255.1,-64.02 271.3,-60.01"/>
<polygon fill="#d46a6a" stroke="#d46a6a" stroke-width="1.5" points="271.65,-62.8 278.74,-58.16 270.3,-57.37 271.65,-62.8"/>
</g>
<!-- rel_1&#45;&gt;unknown.trend_pattern -->
<g id="edge9" class="edge">
<title>rel_1&#45;&gt;unknown.trend_pattern</title>
<path fill="none" stroke="#d46a6a" stroke-width="1.5" d="M486.87,-36.45C504.71,-44.63 525.76,-54.29 544.05,-62.68"/>
<polygon fill="#d46a6a" stroke="#d46a6a" stroke-width="1.5" points="542.83,-65.2 551.27,-65.99 545.17,-60.11 542.83,-65.2"/>
</g>
<!-- rel_2&#45;&gt;unknown.trend_pattern -->
<g id="edge11" class="edge">
<title>rel_2&#45;&gt;unknown.trend_pattern</title>
<path fill="none" stroke="#d46a6a" stroke-width="1.5" d="M486.87,-129.55C504.71,-121.37 525.76,-111.71 544.05,-103.32"/>
<polygon fill="#d46a6a" stroke="#d46a6a" stroke-width="1.5" points="545.17,-105.89 551.27,-100.01 542.83,-100.8 545.17,-105.89"/>
</g>
<!-- rel_3&#45;&gt;mark.line -->
<g id="edge13" class="edge">
<title>rel_3&#45;&gt;mark.line</title>
<path fill="none" stroke="#d46a6a" stroke-width="1.5" d="M213.36,-28.34C231.54,-32.71 253.07,-37.89 270.96,-42.19"/>
<polygon fill="#d46a6a" stroke="#d46a6a" stroke-width="1.5" points="270.11,-44.86 278.54,-44.01 271.42,-39.42 270.11,-44.86"/>
</g>
</g>
</svg>
