<?xml version="1.0" encoding="UTF-8" standalone="no"?>
<!DOCTYPE svg PUBLIC "-//W3C//DTD SVG 1.1//EN"
 "http://www.w3.org/Graphics/SVG/1.1/DTD/svg11.dtd">
<!-- Generated by graphviz version 14.1.5 (20260411.2331)
 -->
<!-- Title: economist_daily_chart_521.png Pages: 1 -->
<svg width="810pt" height="408pt"
 viewBox="0.00 0.00 810.00 408.00" xmlns="http://www.w3.org/2000/svg" xmlns:xlink="http://www.w3.org/1999/xlink">
<g id="graph0" class="graph" transform="scale(1 1) rotate(0) translate(4 404.25)">
<title>economist_daily_chart_521.png</title>
<polygon fill="white" stroke="none" points="-4,4 -4,-404.25 805.5,-404.25 805.5,4 -4,4"/>
<text xml:space="preserve" text-anchor="start" x="298" y="-379.95" font-family="Arial" font-weight="bold" font-size="14.00">economist_daily_chart_521.png</text>
<text xml:space="preserve" text-anchor="start" x="358.38" y="-360" font-family="Arial" font-size="11.00">Line &#160;| &#160;VC = 0.53</text>
<path fill="#b8e6b8" stroke="none" d="M191.38,-335C191.38,-335 199.38,-335 199.38,-335 202.38,-335 205.38,-338 205.38,-341 205.38,-341 205.38,-347 205.38,-347 205.38,-350 202.38,-353 199.38,-353 199.38,-353 191.38,-353 191.38,-353 188.38,-353 185.38,-350 185.38,-347 185.38,-347 185.38,-341 185.38,-341 185.38,-338 188.38,-335 191.38,-335"/>
<path fill="none" stroke="black" d="M191.38,-335C191.38,-335 199.38,-335 199.38,-335 202.38,-335 205.38,-338 205.38,-341 205.38,-341 205.38,-347 205.38,-347 205.38,-350 202.38,-353 199.38,-353 199.38,-353 191.38,-353 191.38,-353 188.38,-353 185.38,-350 185.38,-347 185.38,-347 185.38,-341 185.38,-341 185.38,-338 188.38,-335 191.38,-335"/>
<text xml:space="preserve" text-anchor="start" x="193.88" y="-340.25" font-family="Arial" font-size="10.00"> </text>
<text xml:space="preserve" text-anchor="start" x="209.38" y="-340.25" font-family="Arial" font-size="10.00">Object</text>
<path fill="#c7b8e6" stroke="none" d="M247.88,-335C247.88,-335 255.88,-335 255.88,-335 258.88,-335 261.88,-338 261.88,-341 261.88,-341 261.88,-347 261.88,-347 261.88,-350 258.88,-353 255.88,-353 255.88,-353 247.88,-353 247.88,-353 244.88,-353 241.88,-350 241.88,-347 241.88,-347 241.88,-341 241.88,-341 241.88,-338 244.88,-335 247.88,-335"/>
<path fill="none" stroke="black" d="M247.88,-335C247.88,-335 255.88,-335 255.88,-335 258.88,-335 261.88,-338 261.88,-341 261.88,-341 261.88,-347 261.88,-347 261.88,-350 258.88,-353 255.88,-353 255.88,-353 247.88,-353 247.88,-353 244.88,-353 241.88,-350 241.88,-347 241.88,-347 241.88,-341 241.88,-341 241.88,-338 244.88,-335 247.88,-335"/>
<text xml:space="preserve" text-anchor="start" x="250.38" y="-340.25" font-family="Arial" font-size="10.00"> </text>
<text xml:space="preserve" text-anchor="start" x="265.88" y="-340.25" font-family="Arial" font-size="10.00">Attribute</text>
<path fill="#f5b8b8" stroke="none" d="M312.62,-335C312.62,-335 320.62,-335 320.62,-335 323.62,-335 326.62,-338 326.62,-341 326.62,-341 326.62,-347 326.62,-347 326.62,-350 323.62,-353 320.62,-353 320.62,-353 312.62,-353 312.62,-353 309.62,-353 306.62,-350 306.62,-347 306.62,-347 306.62,-341 306.62,-341 306.62,-338 309.62,-335 312.62,-335"/>
<path fill="none" stroke="black" d="M312.62,-335C312.62,-335 320.62,-335 320.62,-335 323.62,-335 326.62,-338 326.62,-341 326.62,-341 326.62,-347 326.62,-347 326.62,-350 323.62,-353 320.62,-353 320.62,-353 312.62,-353 312.62,-353 309.62,-353 306.62,-350 306.62,-347 306.62,-347 306.62,-341 306.62,-341 306.62,-338 309.62,-335 312.62,-335"/>
<text xml:space="preserve" text-anchor="start" x="315.12" y="-340.25" font-family="Arial" font-size="10.00"> </text>
<text xml:space="preserve" text-anchor="start" x="330.62" y="-340.25" font-family="Arial" font-size="10.00">Relationship</text>
<text xml:space="preserve" text-anchor="start" x="390.62" y="-341.5" font-family="Arial" font-weight="bold" font-size="10.00">(+)</text>
<text xml:space="preserve" text-anchor="start" x="402.62" y="-341.5" font-family="Arial" font-size="10.00"> increases complexity</text>
<text xml:space="preserve" text-anchor="start" x="503.88" y="-341.5" font-family="Arial" font-weight="bold" font-size="10.00">(−)</text>
<text xml:space="preserve" text-anchor="start" x="515.88" y="-341.5" font-family="Arial" font-size="10.00"> decreases complexity</text>
<!-- unknown.line_curves -->
<g id="node1" class="node">
<title>unknown.line_curves</title>
<path fill="#b8e6b8" stroke="#2c3e50" stroke-width="1.8" d="M51.25,-231C51.25,-231 12,-231 12,-231 6,-231 0,-225 0,-219 0,-219 0,-207 0,-207 0,-201 6,-195 12,-195 12,-195 51.25,-195 51.25,-195 57.25,-195 63.25,-201 63.25,-207 63.25,-207 63.25,-219 63.25,-219 63.25,-225 57.25,-231 51.25,-231"/>
<text xml:space="preserve" text-anchor="middle" x="31.62" y="-209.5" font-family="Arial" font-size="10.00" fill="#1a1a1a">line curves</text>
</g>
<!-- attr_0 -->
<g id="node6" class="node">
<title>attr_0</title>
<path fill="#c7b8e6" stroke="#7f8c8d" stroke-width="1.2" d="M226.5,-264C226.5,-264 135.5,-264 135.5,-264 129.5,-264 123.5,-258 123.5,-252 123.5,-252 123.5,-240 123.5,-240 123.5,-234 129.5,-228 135.5,-228 135.5,-228 226.5,-228 226.5,-228 232.5,-228 238.5,-234 238.5,-240 238.5,-240 238.5,-252 238.5,-252 238.5,-258 232.5,-264 226.5,-264"/>
<text xml:space="preserve" text-anchor="middle" x="181" y="-242.5" font-family="Arial" font-size="10.00" fill="#1a1a1a">(+) curved hard to read</text>
</g>
<!-- unknown.line_curves&#45;&gt;attr_0 -->
<g id="edge1" class="edge">
<title>unknown.line_curves&#45;&gt;attr_0</title>
<path fill="none" stroke="#aaaaaa" d="M63.88,-220C78.75,-223.33 97.13,-227.44 114.83,-231.41"/>
<polygon fill="#aaaaaa" stroke="#aaaaaa" points="114.07,-233.75 121.43,-232.89 115.14,-228.97 114.07,-233.75"/>
</g>
<!-- attr_3 -->
<g id="node7" class="node">
<title>attr_3</title>
<path fill="#c7b8e6" stroke="#7f8c8d" stroke-width="1.2" d="M243.75,-199C243.75,-199 118.25,-199 118.25,-199 112.25,-199 106.25,-193 106.25,-187 106.25,-187 106.25,-175 106.25,-175 106.25,-169 112.25,-163 118.25,-163 118.25,-163 243.75,-163 243.75,-163 249.75,-163 255.75,-169 255.75,-175 255.75,-175 255.75,-187 255.75,-187 255.75,-193 249.75,-199 243.75,-199"/>
<text xml:space="preserve" text-anchor="middle" x="181" y="-177.5" font-family="Arial" font-size="10.00" fill="#1a1a1a">(+) multiple overlapping curves</text>
</g>
<!-- unknown.line_curves&#45;&gt;attr_3 -->
<g id="edge2" class="edge">
<title>unknown.line_curves&#45;&gt;attr_3</title>
<path fill="none" stroke="#aaaaaa" d="M63.88,-206.21C73.9,-204.04 85.51,-201.52 97.44,-198.93"/>
<polygon fill="#aaaaaa" stroke="#aaaaaa" points="97.93,-201.33 104.25,-197.45 96.89,-196.54 97.93,-201.33"/>
</g>
<!-- rel_1 -->
<g id="node13" class="node">
<title>rel_1</title>
<path fill="#f5b8b8" stroke="#d46a6a" stroke-width="1.2" d="M203.25,-134C203.25,-134 158.75,-134 158.75,-134 152.75,-134 146.75,-128 146.75,-122 146.75,-122 146.75,-110 146.75,-110 146.75,-104 152.75,-98 158.75,-98 158.75,-98 203.25,-98 203.25,-98 209.25,-98 215.25,-104 215.25,-110 215.25,-110 215.25,-122 215.25,-122 215.25,-128 209.25,-134 203.25,-134"/>
<text xml:space="preserve" text-anchor="middle" x="181" y="-112.5" font-family="Arial" font-size="10.00" fill="#8b0000">overwhelms</text>
</g>
<!-- unknown.line_curves&#45;&gt;rel_1 -->
<g id="edge9" class="edge">
<title>unknown.line_curves&#45;&gt;rel_1</title>
<path fill="none" stroke="#d46a6a" stroke-width="1.5" d="M50.67,-194.13C64.82,-180.09 85.53,-161.17 106.25,-148 115.72,-141.98 126.51,-136.59 136.87,-132.02"/>
<polygon fill="#d46a6a" stroke="#d46a6a" stroke-width="1.5" points="137.84,-134.65 144.11,-128.95 135.65,-129.49 137.84,-134.65"/>
</g>
<!-- rel_2 -->
<g id="node14" class="node">
<title>rel_2</title>
<path fill="#f5b8b8" stroke="#d46a6a" stroke-width="1.2" d="M220.5,-329C220.5,-329 141.5,-329 141.5,-329 135.5,-329 129.5,-323 129.5,-317 129.5,-317 129.5,-305 129.5,-305 129.5,-299 135.5,-293 141.5,-293 141.5,-293 220.5,-293 220.5,-293 226.5,-293 232.5,-299 232.5,-305 232.5,-305 232.5,-317 232.5,-317 232.5,-323 226.5,-329 220.5,-329"/>
<text xml:space="preserve" text-anchor="middle" x="181" y="-307.5" font-family="Arial" font-size="10.00" fill="#8b0000">causes visual strain</text>
</g>
<!-- unknown.line_curves&#45;&gt;rel_2 -->
<g id="edge11" class="edge">
<title>unknown.line_curves&#45;&gt;rel_2</title>
<path fill="none" stroke="#d46a6a" stroke-width="1.5" d="M50.33,-231.89C64.46,-246.18 85.3,-265.57 106.25,-279 111.34,-282.26 116.82,-285.34 122.41,-288.19"/>
<polygon fill="#d46a6a" stroke="#d46a6a" stroke-width="1.5" points="120.78,-290.52 129.2,-291.51 123.24,-285.48 120.78,-290.52"/>
</g>
<!-- whole.visualization -->
<g id="node2" class="node">
<title>whole.visualization</title>
<path fill="#b8e6b8" stroke="#2c3e50" stroke-width="1.8" d="M342,-101C342,-101 312,-101 312,-101 306,-101 300,-95 300,-89 300,-89 300,-77 300,-77 300,-71 306,-65 312,-65 312,-65 342,-65 342,-65 348,-65 354,-71 354,-77 354,-77 354,-89 354,-89 354,-95 348,-101 342,-101"/>
<text xml:space="preserve" text-anchor="middle" x="327" y="-79.5" font-family="Arial" font-size="10.00" fill="#1a1a1a">graph</text>
</g>
<!-- attr_1 -->
<g id="node8" class="node">
<title>attr_1</title>
<path fill="#c7b8e6" stroke="#7f8c8d" stroke-width="1.2" d="M515.5,-166C515.5,-166 416.25,-166 416.25,-166 410.25,-166 404.25,-160 404.25,-154 404.25,-154 404.25,-142 404.25,-142 404.25,-136 410.25,-130 416.25,-130 416.25,-130 515.5,-130 515.5,-130 521.5,-130 527.5,-136 527.5,-142 527.5,-142 527.5,-154 527.5,-154 527.5,-160 521.5,-166 515.5,-166"/>
<text xml:space="preserve" text-anchor="middle" x="465.88" y="-144.5" font-family="Arial" font-size="10.00" fill="#1a1a1a">(+) domain specific nasa</text>
</g>
<!-- whole.visualization&#45;&gt;attr_1 -->
<g id="edge3" class="edge">
<title>whole.visualization&#45;&gt;attr_1</title>
<path fill="none" stroke="#aaaaaa" d="M354.72,-95.69C372.73,-104.24 396.98,-115.76 418.15,-125.81"/>
<polygon fill="#aaaaaa" stroke="#aaaaaa" points="417.05,-128 424.42,-128.79 419.15,-123.57 417.05,-128"/>
</g>
<!-- attr_2 -->
<g id="node9" class="node">
<title>attr_2</title>
<path fill="#c7b8e6" stroke="#7f8c8d" stroke-width="1.2" d="M505.75,-101C505.75,-101 426,-101 426,-101 420,-101 414,-95 414,-89 414,-89 414,-77 414,-77 414,-71 420,-65 426,-65 426,-65 505.75,-65 505.75,-65 511.75,-65 517.75,-71 517.75,-77 517.75,-77 517.75,-89 517.75,-89 517.75,-95 511.75,-101 505.75,-101"/>
<text xml:space="preserve" text-anchor="middle" x="465.88" y="-79.5" font-family="Arial" font-size="10.00" fill="#1a1a1a">(+) visually straining</text>
</g>
<!-- whole.visualization&#45;&gt;attr_2 -->
<g id="edge4" class="edge">
<title>whole.visualization&#45;&gt;attr_2</title>
<path fill="none" stroke="#aaaaaa" d="M354.72,-83C369.22,-83 387.77,-83 405.49,-83"/>
<polygon fill="#aaaaaa" stroke="#aaaaaa" points="405.05,-85.45 412.05,-83 405.05,-80.55 405.05,-85.45"/>
</g>
<!-- rel_0 -->
<g id="node12" class="node">
<title>rel_0</title>
<path fill="#f5b8b8" stroke="#d46a6a" stroke-width="1.2" d="M507.62,-36C507.62,-36 424.12,-36 424.12,-36 418.12,-36 412.12,-30 412.12,-24 412.12,-24 412.12,-12 412.12,-12 412.12,-6 418.12,0 424.12,0 424.12,0 507.62,0 507.62,0 513.62,0 519.62,-6 519.62,-12 519.62,-12 519.62,-24 519.62,-24 519.62,-30 513.62,-36 507.62,-36"/>
<text xml:space="preserve" text-anchor="middle" x="465.88" y="-14.5" font-family="Arial" font-size="10.00" fill="#8b0000">requires expertise for</text>
</g>
<!-- whole.visualization&#45;&gt;rel_0 -->
<g id="edge7" class="edge">
<title>whole.visualization&#45;&gt;rel_0</title>
<path fill="none" stroke="#d46a6a" stroke-width="1.5" d="M354.72,-70.31C372.34,-61.95 395.92,-50.74 416.75,-40.85"/>
<polygon fill="#d46a6a" stroke="#d46a6a" stroke-width="1.5" points="417.71,-43.5 423.74,-37.54 415.31,-38.44 417.71,-43.5"/>
</g>
<!-- text.axis_label -->
<g id="node3" class="node">
<title>text.axis_label</title>
<path fill="#b8e6b8" stroke="#2c3e50" stroke-width="1.8" d="M621.75,-36C621.75,-36 588.5,-36 588.5,-36 582.5,-36 576.5,-30 576.5,-24 576.5,-24 576.5,-12 576.5,-12 576.5,-6 582.5,0 588.5,0 588.5,0 621.75,0 621.75,0 627.75,0 633.75,-6 633.75,-12 633.75,-12 633.75,-24 633.75,-24 633.75,-30 627.75,-36 621.75,-36"/>
<text xml:space="preserve" text-anchor="middle" x="605.12" y="-14.5" font-family="Arial" font-size="10.00" fill="#1a1a1a">axis label</text>
</g>
<!-- attr_5 -->
<g id="node10" class="node">
<title>attr_5</title>
<path fill="#c7b8e6" stroke="#7f8c8d" stroke-width="1.2" d="M789.5,-36C789.5,-36 688.75,-36 688.75,-36 682.75,-36 676.75,-30 676.75,-24 676.75,-24 676.75,-12 676.75,-12 676.75,-6 682.75,0 688.75,0 688.75,0 789.5,0 789.5,0 795.5,0 801.5,-6 801.5,-12 801.5,-12 801.5,-24 801.5,-24 801.5,-30 795.5,-36 789.5,-36"/>
<text xml:space="preserve" text-anchor="middle" x="739.12" y="-14.5" font-family="Arial" font-size="10.00" fill="#1a1a1a">(+) unclear domain terms</text>
</g>
<!-- text.axis_label&#45;&gt;attr_5 -->
<g id="edge5" class="edge">
<title>text.axis_label&#45;&gt;attr_5</title>
<path fill="none" stroke="#aaaaaa" d="M634.44,-18C644.41,-18 656.11,-18 667.99,-18"/>
<polygon fill="#aaaaaa" stroke="#aaaaaa" points="667.7,-20.45 674.7,-18 667.7,-15.55 667.7,-20.45"/>
</g>
<!-- text.title -->
<g id="node4" class="node">
<title>text.title</title>
<path fill="#b8e6b8" stroke="#2c3e50" stroke-width="1.8" d="M46.62,-69C46.62,-69 16.62,-69 16.62,-69 10.62,-69 4.62,-63 4.62,-57 4.62,-57 4.62,-45 4.62,-45 4.62,-39 10.62,-33 16.62,-33 16.62,-33 46.62,-33 46.62,-33 52.62,-33 58.62,-39 58.62,-45 58.62,-45 58.62,-57 58.62,-57 58.62,-63 52.62,-69 46.62,-69"/>
<text xml:space="preserve" text-anchor="middle" x="31.62" y="-47.5" font-family="Arial" font-size="10.00" fill="#1a1a1a">title</text>
</g>
<!-- rel_3 -->
<g id="node15" class="node">
<title>rel_3</title>
<path fill="#f5b8b8" stroke="#d46a6a" stroke-width="1.2" d="M223.12,-69C223.12,-69 138.88,-69 138.88,-69 132.88,-69 126.88,-63 126.88,-57 126.88,-57 126.88,-45 126.88,-45 126.88,-39 132.88,-33 138.88,-33 138.88,-33 223.12,-33 223.12,-33 229.12,-33 235.12,-39 235.12,-45 235.12,-45 235.12,-57 235.12,-57 235.12,-63 229.12,-69 223.12,-69"/>
<text xml:space="preserve" text-anchor="middle" x="181" y="-47.5" font-family="Arial" font-size="10.00" fill="#8b0000">signals complexity of</text>
</g>
<!-- text.title&#45;&gt;rel_3 -->
<g id="edge13" class="edge">
<title>text.title&#45;&gt;rel_3</title>
<path fill="none" stroke="#d46a6a" stroke-width="1.5" d="M59.31,-51C75.28,-51 96.3,-51 116.31,-51"/>
<polygon fill="#d46a6a" stroke="#d46a6a" stroke-width="1.5" points="116.07,-53.8 124.07,-51 116.07,-48.2 116.07,-53.8"/>
</g>
<!-- unknown.data_area -->
<g id="node5" class="node">
<title>unknown.data_area</title>
<path fill="#b8e6b8" stroke="#2c3e50" stroke-width="1.8" d="M343.25,-329C343.25,-329 310.75,-329 310.75,-329 304.75,-329 298.75,-323 298.75,-317 298.75,-317 298.75,-305 298.75,-305 298.75,-299 304.75,-293 310.75,-293 310.75,-293 343.25,-293 343.25,-293 349.25,-293 355.25,-299 355.25,-305 355.25,-305 355.25,-317 355.25,-317 355.25,-323 349.25,-329 343.25,-329"/>
<text xml:space="preserve" text-anchor="middle" x="327" y="-307.5" font-family="Arial" font-size="10.00" fill="#1a1a1a">data area</text>
</g>
<!-- attr_4 -->
<g id="node11" class="node">
<title>attr_4</title>
<path fill="#c7b8e6" stroke="#7f8c8d" stroke-width="1.2" d="M521.5,-329C521.5,-329 410.25,-329 410.25,-329 404.25,-329 398.25,-323 398.25,-317 398.25,-317 398.25,-305 398.25,-305 398.25,-299 404.25,-293 410.25,-293 410.25,-293 521.5,-293 521.5,-293 527.5,-293 533.5,-299 533.5,-305 533.5,-305 533.5,-317 533.5,-317 533.5,-323 527.5,-329 521.5,-329"/>
<text xml:space="preserve" text-anchor="middle" x="465.88" y="-307.5" font-family="Arial" font-size="10.00" fill="#1a1a1a">(+) dense data presentation</text>
</g>
<!-- unknown.data_area&#45;&gt;attr_4 -->
<g id="edge6" class="edge">
<title>unknown.data_area&#45;&gt;attr_4</title>
<path fill="none" stroke="#aaaaaa" d="M356.03,-311C365.94,-311 377.62,-311 389.58,-311"/>
<polygon fill="#aaaaaa" stroke="#aaaaaa" points="389.37,-313.45 396.37,-311 389.37,-308.55 389.37,-313.45"/>
</g>
<!-- rel_0&#45;&gt;text.axis_label -->
<g id="edge8" class="edge">
<title>rel_0&#45;&gt;text.axis_label</title>
<path fill="none" stroke="#d46a6a" stroke-width="1.5" d="M519.94,-18C535.24,-18 551.62,-18 565.83,-18"/>
<polygon fill="#d46a6a" stroke="#d46a6a" stroke-width="1.5" points="565.48,-20.8 573.48,-18 565.48,-15.2 565.48,-20.8"/>
</g>
<!-- rel_1&#45;&gt;whole.visualization -->
<g id="edge10" class="edge">
<title>rel_1&#45;&gt;whole.visualization</title>
<path fill="none" stroke="#d46a6a" stroke-width="1.5" d="M215.76,-108.26C237.82,-103.21 266.63,-96.61 289.26,-91.42"/>
<polygon fill="#d46a6a" stroke="#d46a6a" stroke-width="1.5" points="289.79,-94.17 296.96,-89.65 288.54,-88.71 289.79,-94.17"/>
</g>
<!-- rel_2&#45;&gt;unknown.data_area -->
<g id="edge12" class="edge">
<title>rel_2&#45;&gt;unknown.data_area</title>
<path fill="none" stroke="#d46a6a" stroke-width="1.5" d="M232.77,-311C250.87,-311 270.95,-311 287.81,-311"/>
<polygon fill="#d46a6a" stroke="#d46a6a" stroke-width="1.5" points="287.59,-313.8 295.59,-311 287.59,-308.2 287.59,-313.8"/>
</g>
<!-- rel_3&#45;&gt;whole.visualization -->
<g id="edge14" class="edge">
<title>rel_3&#45;&gt;whole.visualization</title>
<path fill="none" stroke="#d46a6a" stroke-width="1.5" d="M235.62,-62.92C253.63,-66.92 273.29,-71.29 289.66,-74.92"/>
<polygon fill="#d46a6a" stroke="#d46a6a" stroke-width="1.5" points="288.75,-77.59 297.16,-76.59 289.96,-72.12 288.75,-77.59"/>
</g>
</g>
</svg>
