<?xml version="1.0" encoding="UTF-8" standalone="no"?>
<!DOCTYPE svg PUBLIC "-//W3C//DTD SVG 1.1//EN"
 "http://www.w3.org/Graphics/SVG/1.1/DTD/svg11.dtd">
<!-- Generated by graphviz version 14.1.5 (20260411.2331)
 -->
<!-- Title: InfoVisJ.1032.5.png Pages: 1 -->
<svg width="789pt" height="375pt"
 viewBox="0.00 0.00 789.00 375.00" xmlns="http://www.w3.org/2000/svg" xmlns:xlink="http://www.w3.org/1999/xlink">
<g id="graph0" class="graph" transform="scale(1 1) rotate(0) translate(4 371.25)">
<title>InfoVisJ.1032.5.png</title>
<polygon fill="white" stroke="none" points="-4,4 -4,-371.25 784.75,-371.25 784.75,4 -4,4"/>
<text xml:space="preserve" text-anchor="start" x="327.38" y="-346.95" font-family="Arial" font-weight="bold" font-size="14.00">InfoVisJ.1032.5.png</text>
<text xml:space="preserve" text-anchor="start" x="345.75" y="-327" font-family="Arial" font-size="11.00">Point &#160;| &#160;VC = 0.48</text>
<path fill="#b8e6b8" stroke="none" d="M181,-302C181,-302 189,-302 189,-302 192,-302 195,-305 195,-308 195,-308 195,-314 195,-314 195,-317 192,-320 189,-320 189,-320 181,-320 181,-320 178,-320 175,-317 175,-314 175,-314 175,-308 175,-308 175,-305 178,-302 181,-302"/>
<path fill="none" stroke="black" d="M181,-302C181,-302 189,-302 189,-302 192,-302 195,-305 195,-308 195,-308 195,-314 195,-314 195,-317 192,-320 189,-320 189,-320 181,-320 181,-320 178,-320 175,-317 175,-314 175,-314 175,-308 175,-308 175,-305 178,-302 181,-302"/>
<text xml:space="preserve" text-anchor="start" x="183.5" y="-307.25" font-family="Arial" font-size="10.00"> </text>
<text xml:space="preserve" text-anchor="start" x="199" y="-307.25" font-family="Arial" font-size="10.00">Object</text>
<path fill="#c7b8e6" stroke="none" d="M237.5,-302C237.5,-302 245.5,-302 245.5,-302 248.5,-302 251.5,-305 251.5,-308 251.5,-308 251.5,-314 251.5,-314 251.5,-317 248.5,-320 245.5,-320 245.5,-320 237.5,-320 237.5,-320 234.5,-320 231.5,-317 231.5,-314 231.5,-314 231.5,-308 231.5,-308 231.5,-305 234.5,-302 237.5,-302"/>
<path fill="none" stroke="black" d="M237.5,-302C237.5,-302 245.5,-302 245.5,-302 248.5,-302 251.5,-305 251.5,-308 251.5,-308 251.5,-314 251.5,-314 251.5,-317 248.5,-320 245.5,-320 245.5,-320 237.5,-320 237.5,-320 234.5,-320 231.5,-317 231.5,-314 231.5,-314 231.5,-308 231.5,-308 231.5,-305 234.5,-302 237.5,-302"/>
<text xml:space="preserve" text-anchor="start" x="240" y="-307.25" font-family="Arial" font-size="10.00"> </text>
<text xml:space="preserve" text-anchor="start" x="255.5" y="-307.25" font-family="Arial" font-size="10.00">Attribute</text>
<path fill="#f5b8b8" stroke="none" d="M302.25,-302C302.25,-302 310.25,-302 310.25,-302 313.25,-302 316.25,-305 316.25,-308 316.25,-308 316.25,-314 316.25,-314 316.25,-317 313.25,-320 310.25,-320 310.25,-320 302.25,-320 302.25,-320 299.25,-320 296.25,-317 296.25,-314 296.25,-314 296.25,-308 296.25,-308 296.25,-305 299.25,-302 302.25,-302"/>
<path fill="none" stroke="black" d="M302.25,-302C302.25,-302 310.25,-302 310.25,-302 313.25,-302 316.25,-305 316.25,-308 316.25,-308 316.25,-314 316.25,-314 316.25,-317 313.25,-320 310.25,-320 310.25,-320 302.25,-320 302.25,-320 299.25,-320 296.25,-317 296.25,-314 296.25,-314 296.25,-308 296.25,-308 296.25,-305 299.25,-302 302.25,-302"/>
<text xml:space="preserve" text-anchor="start" x="304.75" y="-307.25" font-family="Arial" font-size="10.00"> </text>
<text xml:space="preserve" text-anchor="start" x="320.25" y="-307.25" font-family="Arial" font-size="10.00">Relationship</text>
<text xml:space="preserve" text-anchor="start" x="380.25" y="-308.5" font-family="Arial" font-weight="bold" font-size="10.00">(+)</text>
<text xml:space="preserve" text-anchor="start" x="392.25" y="-308.5" font-family="Arial" font-size="10.00"> increases complexity</text>
<text xml:space="preserve" text-anchor="start" x="493.5" y="-308.5" font-family="Arial" font-weight="bold" font-size="10.00">(−)</text>
<text xml:space="preserve" text-anchor="start" x="505.5" y="-308.5" font-family="Arial" font-size="10.00"> decreases complexity</text>
<!-- structure.grid -->
<g id="node1" class="node">
<title>structure.grid</title>
<path fill="#b8e6b8" stroke="#2c3e50" stroke-width="1.8" d="M317.75,-101C317.75,-101 287.75,-101 287.75,-101 281.75,-101 275.75,-95 275.75,-89 275.75,-89 275.75,-77 275.75,-77 275.75,-71 281.75,-65 287.75,-65 287.75,-65 317.75,-65 317.75,-65 323.75,-65 329.75,-71 329.75,-77 329.75,-77 329.75,-89 329.75,-89 329.75,-95 323.75,-101 317.75,-101"/>
<text xml:space="preserve" text-anchor="middle" x="302.75" y="-79.5" font-family="Arial" font-size="10.00" fill="#1a1a1a">grid</text>
</g>
<!-- attr_0 -->
<g id="node6" class="node">
<title>attr_0</title>
<path fill="#c7b8e6" stroke="#7f8c8d" stroke-width="1.2" d="M493.88,-101C493.88,-101 402.12,-101 402.12,-101 396.12,-101 390.12,-95 390.12,-89 390.12,-89 390.12,-77 390.12,-77 390.12,-71 396.12,-65 402.12,-65 402.12,-65 493.88,-65 493.88,-65 499.88,-65 505.88,-71 505.88,-77 505.88,-77 505.88,-89 505.88,-89 505.88,-95 499.88,-101 493.88,-101"/>
<text xml:space="preserve" text-anchor="middle" x="448" y="-79.5" font-family="Arial" font-size="10.00" fill="#1a1a1a">(+) complex grid layout</text>
</g>
<!-- structure.grid&#45;&gt;attr_0 -->
<g id="edge1" class="edge">
<title>structure.grid&#45;&gt;attr_0</title>
<path fill="none" stroke="#aaaaaa" d="M330.36,-83C344.81,-83 363.38,-83 381.43,-83"/>
<polygon fill="#aaaaaa" stroke="#aaaaaa" points="381.16,-85.45 388.16,-83 381.16,-80.55 381.16,-85.45"/>
</g>
<!-- rel_0 -->
<g id="node11" class="node">
<title>rel_0</title>
<path fill="#f5b8b8" stroke="#d46a6a" stroke-width="1.2" d="M465,-36C465,-36 431,-36 431,-36 425,-36 419,-30 419,-24 419,-24 419,-12 419,-12 419,-6 425,0 431,0 431,0 465,0 465,0 471,0 477,-6 477,-12 477,-12 477,-24 477,-24 477,-30 471,-36 465,-36"/>
<text xml:space="preserve" text-anchor="middle" x="448" y="-14.5" font-family="Arial" font-size="10.00" fill="#8b0000">organizes</text>
</g>
<!-- structure.grid&#45;&gt;rel_0 -->
<g id="edge6" class="edge">
<title>structure.grid&#45;&gt;rel_0</title>
<path fill="none" stroke="#d46a6a" stroke-width="1.5" d="M330.36,-70.93C352.6,-60.83 384.58,-46.32 409.43,-35.05"/>
<polygon fill="#d46a6a" stroke="#d46a6a" stroke-width="1.5" points="410.38,-37.69 416.5,-31.84 408.06,-32.59 410.38,-37.69"/>
</g>
<!-- mark.point -->
<g id="node2" class="node">
<title>mark.point</title>
<path fill="#b8e6b8" stroke="#2c3e50" stroke-width="1.8" d="M602.5,-133C602.5,-133 572.5,-133 572.5,-133 566.5,-133 560.5,-127 560.5,-121 560.5,-121 560.5,-109 560.5,-109 560.5,-103 566.5,-97 572.5,-97 572.5,-97 602.5,-97 602.5,-97 608.5,-97 614.5,-103 614.5,-109 614.5,-109 614.5,-121 614.5,-121 614.5,-127 608.5,-133 602.5,-133"/>
<text xml:space="preserve" text-anchor="middle" x="587.5" y="-111.5" font-family="Arial" font-size="10.00" fill="#1a1a1a">point</text>
</g>
<!-- attr_1 -->
<g id="node7" class="node">
<title>attr_1</title>
<path fill="#c7b8e6" stroke="#7f8c8d" stroke-width="1.2" d="M768.75,-133C768.75,-133 669.5,-133 669.5,-133 663.5,-133 657.5,-127 657.5,-121 657.5,-121 657.5,-109 657.5,-109 657.5,-103 663.5,-97 669.5,-97 669.5,-97 768.75,-97 768.75,-97 774.75,-97 780.75,-103 780.75,-109 780.75,-109 780.75,-121 780.75,-121 780.75,-127 774.75,-133 768.75,-133"/>
<text xml:space="preserve" text-anchor="middle" x="719.12" y="-111.5" font-family="Arial" font-size="10.00" fill="#1a1a1a">(+) varied point positions</text>
</g>
<!-- mark.point&#45;&gt;attr_1 -->
<g id="edge2" class="edge">
<title>mark.point&#45;&gt;attr_1</title>
<path fill="none" stroke="#aaaaaa" d="M615.36,-115C625.24,-115 636.94,-115 648.84,-115"/>
<polygon fill="#aaaaaa" stroke="#aaaaaa" points="648.58,-117.45 655.58,-115 648.58,-112.55 648.58,-117.45"/>
</g>
<!-- property.color -->
<g id="node3" class="node">
<title>property.color</title>
<path fill="#b8e6b8" stroke="#2c3e50" stroke-width="1.8" d="M42,-166C42,-166 12,-166 12,-166 6,-166 0,-160 0,-154 0,-154 0,-142 0,-142 0,-136 6,-130 12,-130 12,-130 42,-130 42,-130 48,-130 54,-136 54,-142 54,-142 54,-154 54,-154 54,-160 48,-166 42,-166"/>
<text xml:space="preserve" text-anchor="middle" x="27" y="-144.5" font-family="Arial" font-size="10.00" fill="#1a1a1a">color</text>
</g>
<!-- attr_2 -->
<g id="node8" class="node">
<title>attr_2</title>
<path fill="#c7b8e6" stroke="#7f8c8d" stroke-width="1.2" d="M214.62,-231C214.62,-231 109.38,-231 109.38,-231 103.38,-231 97.38,-225 97.38,-219 97.38,-219 97.38,-207 97.38,-207 97.38,-201 103.38,-195 109.38,-195 109.38,-195 214.62,-195 214.62,-195 220.62,-195 226.62,-201 226.62,-207 226.62,-207 226.62,-219 226.62,-219 226.62,-225 220.62,-231 214.62,-231"/>
<text xml:space="preserve" text-anchor="middle" x="162" y="-209.5" font-family="Arial" font-size="10.00" fill="#1a1a1a">(+) multiple colors present</text>
</g>
<!-- property.color&#45;&gt;attr_2 -->
<g id="edge3" class="edge">
<title>property.color&#45;&gt;attr_2</title>
<path fill="none" stroke="#aaaaaa" d="M54.59,-161C72,-169.51 95.2,-180.84 115.5,-190.76"/>
<polygon fill="#aaaaaa" stroke="#aaaaaa" points="114.39,-192.95 121.76,-193.82 116.54,-188.55 114.39,-192.95"/>
</g>
<!-- rel_1 -->
<g id="node12" class="node">
<title>rel_1</title>
<path fill="#f5b8b8" stroke="#d46a6a" stroke-width="1.2" d="M215,-166C215,-166 109,-166 109,-166 103,-166 97,-160 97,-154 97,-154 97,-142 97,-142 97,-136 103,-130 109,-130 109,-130 215,-130 215,-130 221,-130 227,-136 227,-142 227,-142 227,-154 227,-154 227,-160 221,-166 215,-166"/>
<text xml:space="preserve" text-anchor="middle" x="162" y="-144.5" font-family="Arial" font-size="10.00" fill="#8b0000">increases interpretive load</text>
</g>
<!-- property.color&#45;&gt;rel_1 -->
<g id="edge8" class="edge">
<title>property.color&#45;&gt;rel_1</title>
<path fill="none" stroke="#d46a6a" stroke-width="1.5" d="M54.59,-148C63.98,-148 75.04,-148 86.42,-148"/>
<polygon fill="#d46a6a" stroke="#d46a6a" stroke-width="1.5" points="86.2,-150.8 94.2,-148 86.2,-145.2 86.2,-150.8"/>
</g>
<!-- rel_3 -->
<g id="node14" class="node">
<title>rel_3</title>
<path fill="#f5b8b8" stroke="#d46a6a" stroke-width="1.2" d="M213.5,-101C213.5,-101 110.5,-101 110.5,-101 104.5,-101 98.5,-95 98.5,-89 98.5,-89 98.5,-77 98.5,-77 98.5,-71 104.5,-65 110.5,-65 110.5,-65 213.5,-65 213.5,-65 219.5,-65 225.5,-71 225.5,-77 225.5,-77 225.5,-89 225.5,-89 225.5,-95 219.5,-101 213.5,-101"/>
<text xml:space="preserve" text-anchor="middle" x="162" y="-79.5" font-family="Arial" font-size="10.00" fill="#8b0000">adds visual complexity to</text>
</g>
<!-- property.color&#45;&gt;rel_3 -->
<g id="edge12" class="edge">
<title>property.color&#45;&gt;rel_3</title>
<path fill="none" stroke="#d46a6a" stroke-width="1.5" d="M54.59,-135C71.62,-126.68 94.19,-115.65 114.15,-105.9"/>
<polygon fill="#d46a6a" stroke="#d46a6a" stroke-width="1.5" points="115.12,-108.54 121.08,-102.51 112.66,-103.51 115.12,-108.54"/>
</g>
<!-- unknown.y_axis_label -->
<g id="node4" class="node">
<title>unknown.y_axis_label</title>
<path fill="#b8e6b8" stroke="#2c3e50" stroke-width="1.8" d="M323.5,-263C323.5,-263 282,-263 282,-263 276,-263 270,-257 270,-251 270,-251 270,-239 270,-239 270,-233 276,-227 282,-227 282,-227 323.5,-227 323.5,-227 329.5,-227 335.5,-233 335.5,-239 335.5,-239 335.5,-251 335.5,-251 335.5,-257 329.5,-263 323.5,-263"/>
<text xml:space="preserve" text-anchor="middle" x="302.75" y="-241.5" font-family="Arial" font-size="10.00" fill="#1a1a1a">y axis label</text>
</g>
<!-- attr_3 -->
<g id="node9" class="node">
<title>attr_3</title>
<path fill="#c7b8e6" stroke="#7f8c8d" stroke-width="1.2" d="M505.5,-296C505.5,-296 390.5,-296 390.5,-296 384.5,-296 378.5,-290 378.5,-284 378.5,-284 378.5,-272 378.5,-272 378.5,-266 384.5,-260 390.5,-260 390.5,-260 505.5,-260 505.5,-260 511.5,-260 517.5,-266 517.5,-272 517.5,-272 517.5,-284 517.5,-284 517.5,-290 511.5,-296 505.5,-296"/>
<text xml:space="preserve" text-anchor="middle" x="448" y="-274.5" font-family="Arial" font-size="10.00" fill="#1a1a1a">(+) unclear variable meaning</text>
</g>
<!-- unknown.y_axis_label&#45;&gt;attr_3 -->
<g id="edge4" class="edge">
<title>unknown.y_axis_label&#45;&gt;attr_3</title>
<path fill="none" stroke="#aaaaaa" d="M336.26,-252.49C346.38,-254.82 358.02,-257.5 369.85,-260.23"/>
<polygon fill="#aaaaaa" stroke="#aaaaaa" points="369.22,-262.6 376.59,-261.78 370.32,-257.82 369.22,-262.6"/>
</g>
<!-- rel_2 -->
<g id="node13" class="node">
<title>rel_2</title>
<path fill="#f5b8b8" stroke="#d46a6a" stroke-width="1.2" d="M463.88,-231C463.88,-231 432.12,-231 432.12,-231 426.12,-231 420.12,-225 420.12,-219 420.12,-219 420.12,-207 420.12,-207 420.12,-201 426.12,-195 432.12,-195 432.12,-195 463.88,-195 463.88,-195 469.88,-195 475.88,-201 475.88,-207 475.88,-207 475.88,-219 475.88,-219 475.88,-225 469.88,-231 463.88,-231"/>
<text xml:space="preserve" text-anchor="middle" x="448" y="-209.5" font-family="Arial" font-size="10.00" fill="#8b0000">obscures</text>
</g>
<!-- unknown.y_axis_label&#45;&gt;rel_2 -->
<g id="edge10" class="edge">
<title>unknown.y_axis_label&#45;&gt;rel_2</title>
<path fill="none" stroke="#d46a6a" stroke-width="1.5" d="M336.26,-237.74C358.16,-232.85 387.11,-226.38 409.91,-221.28"/>
<polygon fill="#d46a6a" stroke="#d46a6a" stroke-width="1.5" points="410.5,-224.02 417.7,-219.55 409.28,-218.56 410.5,-224.02"/>
</g>
<!-- furniture.legend -->
<g id="node5" class="node">
<title>furniture.legend</title>
<path fill="#b8e6b8" stroke="#2c3e50" stroke-width="1.8" d="M317.75,-166C317.75,-166 287.75,-166 287.75,-166 281.75,-166 275.75,-160 275.75,-154 275.75,-154 275.75,-142 275.75,-142 275.75,-136 281.75,-130 287.75,-130 287.75,-130 317.75,-130 317.75,-130 323.75,-130 329.75,-136 329.75,-142 329.75,-142 329.75,-154 329.75,-154 329.75,-160 323.75,-166 317.75,-166"/>
<text xml:space="preserve" text-anchor="middle" x="302.75" y="-144.5" font-family="Arial" font-size="10.00" fill="#1a1a1a">legend</text>
</g>
<!-- attr_4 -->
<g id="node10" class="node">
<title>attr_4</title>
<path fill="#c7b8e6" stroke="#7f8c8d" stroke-width="1.2" d="M501.75,-166C501.75,-166 394.25,-166 394.25,-166 388.25,-166 382.25,-160 382.25,-154 382.25,-154 382.25,-142 382.25,-142 382.25,-136 388.25,-130 394.25,-130 394.25,-130 501.75,-130 501.75,-130 507.75,-130 513.75,-136 513.75,-142 513.75,-142 513.75,-154 513.75,-154 513.75,-160 507.75,-166 501.75,-166"/>
<text xml:space="preserve" text-anchor="middle" x="448" y="-144.5" font-family="Arial" font-size="10.00" fill="#1a1a1a">(+) requires color decoding</text>
</g>
<!-- furniture.legend&#45;&gt;attr_4 -->
<g id="edge5" class="edge">
<title>furniture.legend&#45;&gt;attr_4</title>
<path fill="none" stroke="#aaaaaa" d="M330.36,-148C342.76,-148 358.19,-148 373.73,-148"/>
<polygon fill="#aaaaaa" stroke="#aaaaaa" points="373.33,-150.45 380.33,-148 373.33,-145.55 373.33,-150.45"/>
</g>
<!-- rel_0&#45;&gt;mark.point -->
<g id="edge7" class="edge">
<title>rel_0&#45;&gt;mark.point</title>
<path fill="none" stroke="#d46a6a" stroke-width="1.5" d="M477.42,-28.86C490.18,-34.33 505.12,-41.6 517.5,-50 533.89,-61.13 550.12,-76.16 562.72,-88.97"/>
<polygon fill="#d46a6a" stroke="#d46a6a" stroke-width="1.5" points="560.55,-90.75 568.12,-94.57 564.59,-86.86 560.55,-90.75"/>
</g>
<!-- rel_1&#45;&gt;furniture.legend -->
<g id="edge9" class="edge">
<title>rel_1&#45;&gt;furniture.legend</title>
<path fill="none" stroke="#d46a6a" stroke-width="1.5" d="M227.5,-148C240.4,-148 253.52,-148 265.07,-148"/>
<polygon fill="#d46a6a" stroke="#d46a6a" stroke-width="1.5" points="264.92,-150.8 272.92,-148 264.92,-145.2 264.92,-150.8"/>
</g>
<!-- rel_2&#45;&gt;mark.point -->
<g id="edge11" class="edge">
<title>rel_2&#45;&gt;mark.point</title>
<path fill="none" stroke="#d46a6a" stroke-width="1.5" d="M476.44,-202.61C489.43,-197.1 504.83,-189.67 517.5,-181 534.08,-169.65 550.43,-154.25 563.05,-141.19"/>
<polygon fill="#d46a6a" stroke="#d46a6a" stroke-width="1.5" points="565,-143.2 568.46,-135.46 560.93,-139.35 565,-143.2"/>
</g>
<!-- rel_3&#45;&gt;structure.grid -->
<g id="edge13" class="edge">
<title>rel_3&#45;&gt;structure.grid</title>
<path fill="none" stroke="#d46a6a" stroke-width="1.5" d="M225.88,-83C239.3,-83 253.05,-83 265.09,-83"/>
<polygon fill="#d46a6a" stroke="#d46a6a" stroke-width="1.5" points="264.91,-85.8 272.91,-83 264.91,-80.2 264.91,-85.8"/>
</g>
</g>
</svg>
