<?xml version="1.0" encoding="UTF-8" standalone="no"?>
<!DOCTYPE svg PUBLIC "-//W3C//DTD SVG 1.1//EN"
 "http://www.w3.org/Graphics/SVG/1.1/DTD/svg11.dtd">
<!-- Generated by graphviz version 14.1.5 (20260411.2331)
 -->
<!-- Title: InfoVisC.65.8.png Pages: 1 -->
<svg width="830pt" height="440pt"
 viewBox="0.00 0.00 830.00 440.00" xmlns="http://www.w3.org/2000/svg" xmlns:xlink="http://www.w3.org/1999/xlink">
<g id="graph0" class="graph" transform="scale(1 1) rotate(0) translate(4 436.25)">
<title>InfoVisC.65.8.png</title>
<polygon fill="white" stroke="none" points="-4,4 -4,-436.25 825.5,-436.25 825.5,4 -4,4"/>
<text xml:space="preserve" text-anchor="start" x="354.12" y="-411.95" font-family="Arial" font-weight="bold" font-size="14.00">InfoVisC.65.8.png</text>
<text xml:space="preserve" text-anchor="start" x="369.88" y="-392" font-family="Arial" font-size="11.00">Bar &#160;| &#160;VC = 0.31</text>
<path fill="#b8e6b8" stroke="none" d="M201.38,-367C201.38,-367 209.38,-367 209.38,-367 212.38,-367 215.38,-370 215.38,-373 215.38,-373 215.38,-379 215.38,-379 215.38,-382 212.38,-385 209.38,-385 209.38,-385 201.38,-385 201.38,-385 198.38,-385 195.38,-382 195.38,-379 195.38,-379 195.38,-373 195.38,-373 195.38,-370 198.38,-367 201.38,-367"/>
<path fill="none" stroke="black" d="M201.38,-367C201.38,-367 209.38,-367 209.38,-367 212.38,-367 215.38,-370 215.38,-373 215.38,-373 215.38,-379 215.38,-379 215.38,-382 212.38,-385 209.38,-385 209.38,-385 201.38,-385 201.38,-385 198.38,-385 195.38,-382 195.38,-379 195.38,-379 195.38,-373 195.38,-373 195.38,-370 198.38,-367 201.38,-367"/>
<text xml:space="preserve" text-anchor="start" x="203.88" y="-372.25" font-family="Arial" font-size="10.00"> </text>
<text xml:space="preserve" text-anchor="start" x="219.38" y="-372.25" font-family="Arial" font-size="10.00">Object</text>
<path fill="#c7b8e6" stroke="none" d="M257.88,-367C257.88,-367 265.88,-367 265.88,-367 268.88,-367 271.88,-370 271.88,-373 271.88,-373 271.88,-379 271.88,-379 271.88,-382 268.88,-385 265.88,-385 265.88,-385 257.88,-385 257.88,-385 254.88,-385 251.88,-382 251.88,-379 251.88,-379 251.88,-373 251.88,-373 251.88,-370 254.88,-367 257.88,-367"/>
<path fill="none" stroke="black" d="M257.88,-367C257.88,-367 265.88,-367 265.88,-367 268.88,-367 271.88,-370 271.88,-373 271.88,-373 271.88,-379 271.88,-379 271.88,-382 268.88,-385 265.88,-385 265.88,-385 257.88,-385 257.88,-385 254.88,-385 251.88,-382 251.88,-379 251.88,-379 251.88,-373 251.88,-373 251.88,-370 254.88,-367 257.88,-367"/>
<text xml:space="preserve" text-anchor="start" x="260.38" y="-372.25" font-family="Arial" font-size="10.00"> </text>
<text xml:space="preserve" text-anchor="start" x="275.88" y="-372.25" font-family="Arial" font-size="10.00">Attribute</text>
<path fill="#f5b8b8" stroke="none" d="M322.62,-367C322.62,-367 330.62,-367 330.62,-367 333.62,-367 336.62,-370 336.62,-373 336.62,-373 336.62,-379 336.62,-379 336.62,-382 333.62,-385 330.62,-385 330.62,-385 322.62,-385 322.62,-385 319.62,-385 316.62,-382 316.62,-379 316.62,-379 316.62,-373 316.62,-373 316.62,-370 319.62,-367 322.62,-367"/>
<path fill="none" stroke="black" d="M322.62,-367C322.62,-367 330.62,-367 330.62,-367 333.62,-367 336.62,-370 336.62,-373 336.62,-373 336.62,-379 336.62,-379 336.62,-382 333.62,-385 330.62,-385 330.62,-385 322.62,-385 322.62,-385 319.62,-385 316.62,-382 316.62,-379 316.62,-379 316.62,-373 316.62,-373 316.62,-370 319.62,-367 322.62,-367"/>
<text xml:space="preserve" text-anchor="start" x="325.12" y="-372.25" font-family="Arial" font-size="10.00"> </text>
<text xml:space="preserve" text-anchor="start" x="340.62" y="-372.25" font-family="Arial" font-size="10.00">Relationship</text>
<text xml:space="preserve" text-anchor="start" x="400.62" y="-373.5" font-family="Arial" font-weight="bold" font-size="10.00">(+)</text>
<text xml:space="preserve" text-anchor="start" x="412.62" y="-373.5" font-family="Arial" font-size="10.00"> increases complexity</text>
<text xml:space="preserve" text-anchor="start" x="513.88" y="-373.5" font-family="Arial" font-weight="bold" font-size="10.00">(−)</text>
<text xml:space="preserve" text-anchor="start" x="525.88" y="-373.5" font-family="Arial" font-size="10.00"> decreases complexity</text>
<!-- property.color -->
<g id="node1" class="node">
<title>property.color</title>
<path fill="#b8e6b8" stroke="#2c3e50" stroke-width="1.8" d="M367.75,-263C367.75,-263 337.75,-263 337.75,-263 331.75,-263 325.75,-257 325.75,-251 325.75,-251 325.75,-239 325.75,-239 325.75,-233 331.75,-227 337.75,-227 337.75,-227 367.75,-227 367.75,-227 373.75,-227 379.75,-233 379.75,-239 379.75,-239 379.75,-251 379.75,-251 379.75,-257 373.75,-263 367.75,-263"/>
<text xml:space="preserve" text-anchor="middle" x="352.75" y="-241.5" font-family="Arial" font-size="10.00" fill="#1a1a1a">color</text>
</g>
<!-- attr_0 -->
<g id="node6" class="node">
<title>attr_0</title>
<path fill="#c7b8e6" stroke="#7f8c8d" stroke-width="1.2" d="M538.5,-231C538.5,-231 434.75,-231 434.75,-231 428.75,-231 422.75,-225 422.75,-219 422.75,-219 422.75,-207 422.75,-207 422.75,-201 428.75,-195 434.75,-195 434.75,-195 538.5,-195 538.5,-195 544.5,-195 550.5,-201 550.5,-207 550.5,-207 550.5,-219 550.5,-219 550.5,-225 544.5,-231 538.5,-231"/>
<text xml:space="preserve" text-anchor="middle" x="486.62" y="-209.5" font-family="Arial" font-size="10.00" fill="#1a1a1a">(−) single color dimension</text>
</g>
<!-- property.color&#45;&gt;attr_0 -->
<g id="edge1" class="edge">
<title>property.color&#45;&gt;attr_0</title>
<path fill="none" stroke="#aaaaaa" d="M380.44,-238.52C390.38,-236.11 402.19,-233.25 414.24,-230.32"/>
<polygon fill="#aaaaaa" stroke="#aaaaaa" points="414.49,-232.78 420.71,-228.75 413.33,-228.02 414.49,-232.78"/>
</g>
<!-- attr_1 -->
<g id="node7" class="node">
<title>attr_1</title>
<path fill="#c7b8e6" stroke="#7f8c8d" stroke-width="1.2" d="M536.62,-166C536.62,-166 436.62,-166 436.62,-166 430.62,-166 424.62,-160 424.62,-154 424.62,-154 424.62,-142 424.62,-142 424.62,-136 430.62,-130 436.62,-130 436.62,-130 536.62,-130 536.62,-130 542.62,-130 548.62,-136 548.62,-142 548.62,-142 548.62,-154 548.62,-154 548.62,-160 542.62,-166 536.62,-166"/>
<text xml:space="preserve" text-anchor="middle" x="486.62" y="-144.5" font-family="Arial" font-size="10.00" fill="#1a1a1a">(−) clearer distinct colors</text>
</g>
<!-- property.color&#45;&gt;attr_1 -->
<g id="edge2" class="edge">
<title>property.color&#45;&gt;attr_1</title>
<path fill="none" stroke="#aaaaaa" d="M370.96,-226.1C384.23,-212.24 403.5,-193.54 422.75,-180 427.5,-176.66 432.65,-173.45 437.89,-170.45"/>
<polygon fill="#aaaaaa" stroke="#aaaaaa" points="438.79,-172.76 443.73,-167.23 436.42,-168.47 438.79,-172.76"/>
</g>
<!-- rel_0 -->
<g id="node12" class="node">
<title>rel_0</title>
<path fill="#f5b8b8" stroke="#d46a6a" stroke-width="1.2" d="M501.62,-296C501.62,-296 471.62,-296 471.62,-296 465.62,-296 459.62,-290 459.62,-284 459.62,-284 459.62,-272 459.62,-272 459.62,-266 465.62,-260 471.62,-260 471.62,-260 501.62,-260 501.62,-260 507.62,-260 513.62,-266 513.62,-272 513.62,-272 513.62,-284 513.62,-284 513.62,-290 507.62,-296 501.62,-296"/>
<text xml:space="preserve" text-anchor="middle" x="486.62" y="-274.5" font-family="Arial" font-size="10.00" fill="#8b0000">reduces</text>
</g>
<!-- property.color&#45;&gt;rel_0 -->
<g id="edge7" class="edge">
<title>property.color&#45;&gt;rel_0</title>
<path fill="none" stroke="#d46a6a" stroke-width="1.5" d="M380.44,-251.68C400.32,-256.65 427.69,-263.5 449.52,-268.97"/>
<polygon fill="#d46a6a" stroke="#d46a6a" stroke-width="1.5" points="448.79,-271.67 457.23,-270.89 450.14,-266.24 448.79,-271.67"/>
</g>
<!-- rel_2 -->
<g id="node14" class="node">
<title>rel_2</title>
<path fill="#f5b8b8" stroke="#d46a6a" stroke-width="1.2" d="M519.38,-361C519.38,-361 453.88,-361 453.88,-361 447.88,-361 441.88,-355 441.88,-349 441.88,-349 441.88,-337 441.88,-337 441.88,-331 447.88,-325 453.88,-325 453.88,-325 519.38,-325 519.38,-325 525.38,-325 531.38,-331 531.38,-337 531.38,-337 531.38,-349 531.38,-349 531.38,-355 525.38,-361 519.38,-361"/>
<text xml:space="preserve" text-anchor="middle" x="486.62" y="-339.5" font-family="Arial" font-size="10.00" fill="#8b0000">enables clarity in</text>
</g>
<!-- property.color&#45;&gt;rel_2 -->
<g id="edge11" class="edge">
<title>property.color&#45;&gt;rel_2</title>
<path fill="none" stroke="#d46a6a" stroke-width="1.5" d="M370.36,-263.62C383.61,-277.77 403.15,-297.09 422.75,-311 426.95,-313.98 431.47,-316.84 436.08,-319.55"/>
<polygon fill="#d46a6a" stroke="#d46a6a" stroke-width="1.5" points="434.69,-321.98 443.04,-323.44 437.43,-317.09 434.69,-321.98"/>
</g>
<!-- mark.bar -->
<g id="node2" class="node">
<title>mark.bar</title>
<path fill="#b8e6b8" stroke="#2c3e50" stroke-width="1.8" d="M367.75,-69C367.75,-69 337.75,-69 337.75,-69 331.75,-69 325.75,-63 325.75,-57 325.75,-57 325.75,-45 325.75,-45 325.75,-39 331.75,-33 337.75,-33 337.75,-33 367.75,-33 367.75,-33 373.75,-33 379.75,-39 379.75,-45 379.75,-45 379.75,-57 379.75,-57 379.75,-63 373.75,-69 367.75,-69"/>
<text xml:space="preserve" text-anchor="middle" x="352.75" y="-47.5" font-family="Arial" font-size="10.00" fill="#1a1a1a">bar</text>
</g>
<!-- attr_3 -->
<g id="node8" class="node">
<title>attr_3</title>
<path fill="#c7b8e6" stroke="#7f8c8d" stroke-width="1.2" d="M533.25,-101C533.25,-101 440,-101 440,-101 434,-101 428,-95 428,-89 428,-89 428,-77 428,-77 428,-71 434,-65 440,-65 440,-65 533.25,-65 533.25,-65 539.25,-65 545.25,-71 545.25,-77 545.25,-77 545.25,-89 545.25,-89 545.25,-95 539.25,-101 533.25,-101"/>
<text xml:space="preserve" text-anchor="middle" x="486.62" y="-79.5" font-family="Arial" font-size="10.00" fill="#1a1a1a">(−) simple bar structure</text>
</g>
<!-- mark.bar&#45;&gt;attr_3 -->
<g id="edge3" class="edge">
<title>mark.bar&#45;&gt;attr_3</title>
<path fill="none" stroke="#aaaaaa" d="M380.44,-57.48C391.82,-60.24 405.67,-63.6 419.52,-66.96"/>
<polygon fill="#aaaaaa" stroke="#aaaaaa" points="418.81,-69.31 426.19,-68.58 419.96,-64.55 418.81,-69.31"/>
</g>
<!-- rel_3 -->
<g id="node15" class="node">
<title>rel_3</title>
<path fill="#f5b8b8" stroke="#d46a6a" stroke-width="1.2" d="M501.62,-36C501.62,-36 471.62,-36 471.62,-36 465.62,-36 459.62,-30 459.62,-24 459.62,-24 459.62,-12 459.62,-12 459.62,-6 465.62,0 471.62,0 471.62,0 501.62,0 501.62,0 507.62,0 513.62,-6 513.62,-12 513.62,-12 513.62,-24 513.62,-24 513.62,-30 507.62,-36 501.62,-36"/>
<text xml:space="preserve" text-anchor="middle" x="486.62" y="-14.5" font-family="Arial" font-size="10.00" fill="#8b0000">supports</text>
</g>
<!-- mark.bar&#45;&gt;rel_3 -->
<g id="edge13" class="edge">
<title>mark.bar&#45;&gt;rel_3</title>
<path fill="none" stroke="#d46a6a" stroke-width="1.5" d="M380.44,-44.32C400.32,-39.35 427.69,-32.5 449.52,-27.03"/>
<polygon fill="#d46a6a" stroke="#d46a6a" stroke-width="1.5" points="450.14,-29.76 457.23,-25.11 448.79,-24.33 450.14,-29.76"/>
</g>
<!-- unknown.number_label -->
<g id="node3" class="node">
<title>unknown.number_label</title>
<path fill="#b8e6b8" stroke="#2c3e50" stroke-width="1.8" d="M59.5,-101C59.5,-101 12,-101 12,-101 6,-101 0,-95 0,-89 0,-89 0,-77 0,-77 0,-71 6,-65 12,-65 12,-65 59.5,-65 59.5,-65 65.5,-65 71.5,-71 71.5,-77 71.5,-77 71.5,-89 71.5,-89 71.5,-95 65.5,-101 59.5,-101"/>
<text xml:space="preserve" text-anchor="middle" x="35.75" y="-79.5" font-family="Arial" font-size="10.00" fill="#1a1a1a">number label</text>
</g>
<!-- attr_2 -->
<g id="node9" class="node">
<title>attr_2</title>
<path fill="#c7b8e6" stroke="#7f8c8d" stroke-width="1.2" d="M270.75,-134C270.75,-134 126.5,-134 126.5,-134 120.5,-134 114.5,-128 114.5,-122 114.5,-122 114.5,-110 114.5,-110 114.5,-104 120.5,-98 126.5,-98 126.5,-98 270.75,-98 270.75,-98 276.75,-98 282.75,-104 282.75,-110 282.75,-110 282.75,-122 282.75,-122 282.75,-128 276.75,-134 270.75,-134"/>
<text xml:space="preserve" text-anchor="middle" x="198.62" y="-112.5" font-family="Arial" font-size="10.00" fill="#1a1a1a">(+) numeric labels increase comple</text>
</g>
<!-- unknown.number_label&#45;&gt;attr_2 -->
<g id="edge4" class="edge">
<title>unknown.number_label&#45;&gt;attr_2</title>
<path fill="none" stroke="#aaaaaa" d="M72.05,-90.24C82.2,-92.32 93.76,-94.69 105.67,-97.14"/>
<polygon fill="#aaaaaa" stroke="#aaaaaa" points="105.12,-99.53 112.47,-98.53 106.1,-94.73 105.12,-99.53"/>
</g>
<!-- rel_1 -->
<g id="node13" class="node">
<title>rel_1</title>
<path fill="#f5b8b8" stroke="#d46a6a" stroke-width="1.2" d="M251.62,-69C251.62,-69 145.62,-69 145.62,-69 139.62,-69 133.62,-63 133.62,-57 133.62,-57 133.62,-45 133.62,-45 133.62,-39 139.62,-33 145.62,-33 145.62,-33 251.62,-33 251.62,-33 257.62,-33 263.62,-39 263.62,-45 263.62,-45 263.62,-57 263.62,-57 263.62,-63 257.62,-69 251.62,-69"/>
<text xml:space="preserve" text-anchor="middle" x="198.62" y="-47.5" font-family="Arial" font-size="10.00" fill="#8b0000">increases complexity over</text>
</g>
<!-- unknown.number_label&#45;&gt;rel_1 -->
<g id="edge9" class="edge">
<title>unknown.number_label&#45;&gt;rel_1</title>
<path fill="none" stroke="#d46a6a" stroke-width="1.5" d="M72.05,-75.98C87.19,-72.97 105.49,-69.33 123.37,-65.77"/>
<polygon fill="#d46a6a" stroke="#d46a6a" stroke-width="1.5" points="123.72,-68.56 131.02,-64.25 122.62,-63.06 123.72,-68.56"/>
</g>
<!-- furniture.legend -->
<g id="node4" class="node">
<title>furniture.legend</title>
<path fill="#b8e6b8" stroke="#2c3e50" stroke-width="1.8" d="M636.75,-361C636.75,-361 606.75,-361 606.75,-361 600.75,-361 594.75,-355 594.75,-349 594.75,-349 594.75,-337 594.75,-337 594.75,-331 600.75,-325 606.75,-325 606.75,-325 636.75,-325 636.75,-325 642.75,-325 648.75,-331 648.75,-337 648.75,-337 648.75,-349 648.75,-349 648.75,-355 642.75,-361 636.75,-361"/>
<text xml:space="preserve" text-anchor="middle" x="621.75" y="-339.5" font-family="Arial" font-size="10.00" fill="#1a1a1a">legend</text>
</g>
<!-- attr_5 -->
<g id="node10" class="node">
<title>attr_5</title>
<path fill="#c7b8e6" stroke="#7f8c8d" stroke-width="1.2" d="M809.5,-361C809.5,-361 705,-361 705,-361 699,-361 693,-355 693,-349 693,-349 693,-337 693,-337 693,-331 699,-325 705,-325 705,-325 809.5,-325 809.5,-325 815.5,-325 821.5,-331 821.5,-337 821.5,-337 821.5,-349 821.5,-349 821.5,-355 815.5,-361 809.5,-361"/>
<text xml:space="preserve" text-anchor="middle" x="757.25" y="-339.5" font-family="Arial" font-size="10.00" fill="#1a1a1a">(−) minimal legend entries</text>
</g>
<!-- furniture.legend&#45;&gt;attr_5 -->
<g id="edge5" class="edge">
<title>furniture.legend&#45;&gt;attr_5</title>
<path fill="none" stroke="#aaaaaa" d="M649.44,-343C659.68,-343 671.91,-343 684.38,-343"/>
<polygon fill="#aaaaaa" stroke="#aaaaaa" points="684.08,-345.45 691.08,-343 684.08,-340.55 684.08,-345.45"/>
</g>
<!-- unknown.data_area -->
<g id="node5" class="node">
<title>unknown.data_area</title>
<path fill="#b8e6b8" stroke="#2c3e50" stroke-width="1.8" d="M638,-166C638,-166 605.5,-166 605.5,-166 599.5,-166 593.5,-160 593.5,-154 593.5,-154 593.5,-142 593.5,-142 593.5,-136 599.5,-130 605.5,-130 605.5,-130 638,-130 638,-130 644,-130 650,-136 650,-142 650,-142 650,-154 650,-154 650,-160 644,-166 638,-166"/>
<text xml:space="preserve" text-anchor="middle" x="621.75" y="-144.5" font-family="Arial" font-size="10.00" fill="#1a1a1a">data area</text>
</g>
<!-- attr_4 -->
<g id="node11" class="node">
<title>attr_4</title>
<path fill="#c7b8e6" stroke="#7f8c8d" stroke-width="1.2" d="M790.38,-166C790.38,-166 724.12,-166 724.12,-166 718.12,-166 712.12,-160 712.12,-154 712.12,-154 712.12,-142 712.12,-142 712.12,-136 718.12,-130 724.12,-130 724.12,-130 790.38,-130 790.38,-130 796.38,-130 802.38,-136 802.38,-142 802.38,-142 802.38,-154 802.38,-154 802.38,-160 796.38,-166 790.38,-166"/>
<text xml:space="preserve" text-anchor="middle" x="757.25" y="-144.5" font-family="Arial" font-size="10.00" fill="#1a1a1a">(−) easy to grasp</text>
</g>
<!-- unknown.data_area&#45;&gt;attr_4 -->
<g id="edge6" class="edge">
<title>unknown.data_area&#45;&gt;attr_4</title>
<path fill="none" stroke="#aaaaaa" d="M650.74,-148C666.05,-148 685.54,-148 703.58,-148"/>
<polygon fill="#aaaaaa" stroke="#aaaaaa" points="703.24,-150.45 710.24,-148 703.24,-145.55 703.24,-150.45"/>
</g>
<!-- rel_0&#45;&gt;unknown.data_area -->
<g id="edge8" class="edge">
<title>rel_0&#45;&gt;unknown.data_area</title>
<path fill="none" stroke="#d46a6a" stroke-width="1.5" d="M514.08,-267.44C526.01,-261.88 539.78,-254.28 550.5,-245 573.37,-225.2 592.93,-196.58 605.56,-175.56"/>
<polygon fill="#d46a6a" stroke="#d46a6a" stroke-width="1.5" points="607.93,-177.06 609.55,-168.74 603.09,-174.23 607.93,-177.06"/>
</g>
<!-- rel_1&#45;&gt;mark.bar -->
<g id="edge10" class="edge">
<title>rel_1&#45;&gt;mark.bar</title>
<path fill="none" stroke="#d46a6a" stroke-width="1.5" d="M264.14,-51C281.51,-51 299.7,-51 314.98,-51"/>
<polygon fill="#d46a6a" stroke="#d46a6a" stroke-width="1.5" points="314.77,-53.8 322.77,-51 314.77,-48.2 314.77,-53.8"/>
</g>
<!-- rel_2&#45;&gt;furniture.legend -->
<g id="edge12" class="edge">
<title>rel_2&#45;&gt;furniture.legend</title>
<path fill="none" stroke="#d46a6a" stroke-width="1.5" d="M531.95,-343C548.83,-343 567.86,-343 583.96,-343"/>
<polygon fill="#d46a6a" stroke="#d46a6a" stroke-width="1.5" points="583.8,-345.8 591.8,-343 583.8,-340.2 583.8,-345.8"/>
</g>
<!-- rel_3&#45;&gt;unknown.data_area -->
<g id="edge14" class="edge">
<title>rel_3&#45;&gt;unknown.data_area</title>
<path fill="none" stroke="#d46a6a" stroke-width="1.5" d="M514.11,-28.08C526.04,-33.43 539.82,-40.82 550.5,-50 573.74,-69.96 593.36,-99.13 605.91,-120.45"/>
<polygon fill="#d46a6a" stroke="#d46a6a" stroke-width="1.5" points="603.48,-121.83 609.88,-127.38 608.33,-119.04 603.48,-121.83"/>
</g>
</g>
</svg>
