<?xml version="1.0" encoding="UTF-8" standalone="no"?>
<!DOCTYPE svg PUBLIC "-//W3C//DTD SVG 1.1//EN"
 "http://www.w3.org/Graphics/SVG/1.1/DTD/svg11.dtd">
<!-- Generated by graphviz version 14.1.5 (20260411.2331)
 -->
<!-- Title: InfoVisC.24.3(2).png Pages: 1 -->
<svg width="927pt" height="440pt"
 viewBox="0.00 0.00 927.00 440.00" xmlns="http://www.w3.org/2000/svg" xmlns:xlink="http://www.w3.org/1999/xlink">
<g id="graph0" class="graph" transform="scale(1 1) rotate(0) translate(4 436.25)">
<title>InfoVisC.24.3(2).png</title>
<polygon fill="white" stroke="none" points="-4,4 -4,-436.25 923.25,-436.25 923.25,4 -4,4"/>
<text xml:space="preserve" text-anchor="start" x="394.75" y="-411.95" font-family="Arial" font-weight="bold" font-size="14.00">InfoVisC.24.3(2).png</text>
<text xml:space="preserve" text-anchor="start" x="417.62" y="-392" font-family="Arial" font-size="11.00">Text &#160;| &#160;VC = 0.70</text>
<path fill="#b8e6b8" stroke="none" d="M250.25,-367C250.25,-367 258.25,-367 258.25,-367 261.25,-367 264.25,-370 264.25,-373 264.25,-373 264.25,-379 264.25,-379 264.25,-382 261.25,-385 258.25,-385 258.25,-385 250.25,-385 250.25,-385 247.25,-385 244.25,-382 244.25,-379 244.25,-379 244.25,-373 244.25,-373 244.25,-370 247.25,-367 250.25,-367"/>
<path fill="none" stroke="black" d="M250.25,-367C250.25,-367 258.25,-367 258.25,-367 261.25,-367 264.25,-370 264.25,-373 264.25,-373 264.25,-379 264.25,-379 264.25,-382 261.25,-385 258.25,-385 258.25,-385 250.25,-385 250.25,-385 247.25,-385 244.25,-382 244.25,-379 244.25,-379 244.25,-373 244.25,-373 244.25,-370 247.25,-367 250.25,-367"/>
<text xml:space="preserve" text-anchor="start" x="252.75" y="-372.25" font-family="Arial" font-size="10.00"> </text>
<text xml:space="preserve" text-anchor="start" x="268.25" y="-372.25" font-family="Arial" font-size="10.00">Object</text>
<path fill="#c7b8e6" stroke="none" d="M306.75,-367C306.75,-367 314.75,-367 314.75,-367 317.75,-367 320.75,-370 320.75,-373 320.75,-373 320.75,-379 320.75,-379 320.75,-382 317.75,-385 314.75,-385 314.75,-385 306.75,-385 306.75,-385 303.75,-385 300.75,-382 300.75,-379 300.75,-379 300.75,-373 300.75,-373 300.75,-370 303.75,-367 306.75,-367"/>
<path fill="none" stroke="black" d="M306.75,-367C306.75,-367 314.75,-367 314.75,-367 317.75,-367 320.75,-370 320.75,-373 320.75,-373 320.75,-379 320.75,-379 320.75,-382 317.75,-385 314.75,-385 314.75,-385 306.75,-385 306.75,-385 303.75,-385 300.75,-382 300.75,-379 300.75,-379 300.75,-373 300.75,-373 300.75,-370 303.75,-367 306.75,-367"/>
<text xml:space="preserve" text-anchor="start" x="309.25" y="-372.25" font-family="Arial" font-size="10.00"> </text>
<text xml:space="preserve" text-anchor="start" x="324.75" y="-372.25" font-family="Arial" font-size="10.00">Attribute</text>
<path fill="#f5b8b8" stroke="none" d="M371.5,-367C371.5,-367 379.5,-367 379.5,-367 382.5,-367 385.5,-370 385.5,-373 385.5,-373 385.5,-379 385.5,-379 385.5,-382 382.5,-385 379.5,-385 379.5,-385 371.5,-385 371.5,-385 368.5,-385 365.5,-382 365.5,-379 365.5,-379 365.5,-373 365.5,-373 365.5,-370 368.5,-367 371.5,-367"/>
<path fill="none" stroke="black" d="M371.5,-367C371.5,-367 379.5,-367 379.5,-367 382.5,-367 385.5,-370 385.5,-373 385.5,-373 385.5,-379 385.5,-379 385.5,-382 382.5,-385 379.5,-385 379.5,-385 371.5,-385 371.5,-385 368.5,-385 365.5,-382 365.5,-379 365.5,-379 365.5,-373 365.5,-373 365.5,-370 368.5,-367 371.5,-367"/>
<text xml:space="preserve" text-anchor="start" x="374" y="-372.25" font-family="Arial" font-size="10.00"> </text>
<text xml:space="preserve" text-anchor="start" x="389.5" y="-372.25" font-family="Arial" font-size="10.00">Relationship</text>
<text xml:space="preserve" text-anchor="start" x="449.5" y="-373.5" font-family="Arial" font-weight="bold" font-size="10.00">(+)</text>
<text xml:space="preserve" text-anchor="start" x="461.5" y="-373.5" font-family="Arial" font-size="10.00"> increases complexity</text>
<text xml:space="preserve" text-anchor="start" x="562.75" y="-373.5" font-family="Arial" font-weight="bold" font-size="10.00">(−)</text>
<text xml:space="preserve" text-anchor="start" x="574.75" y="-373.5" font-family="Arial" font-size="10.00"> decreases complexity</text>
<!-- unknown.text_content -->
<g id="node1" class="node">
<title>unknown.text_content</title>
<path fill="#b8e6b8" stroke="#2c3e50" stroke-width="1.8" d="M727.5,-36C727.5,-36 683.75,-36 683.75,-36 677.75,-36 671.75,-30 671.75,-24 671.75,-24 671.75,-12 671.75,-12 671.75,-6 677.75,0 683.75,0 683.75,0 727.5,0 727.5,0 733.5,0 739.5,-6 739.5,-12 739.5,-12 739.5,-24 739.5,-24 739.5,-30 733.5,-36 727.5,-36"/>
<text xml:space="preserve" text-anchor="middle" x="705.62" y="-14.5" font-family="Arial" font-size="10.00" fill="#1a1a1a">text content</text>
</g>
<!-- unknown.code_block -->
<g id="node2" class="node">
<title>unknown.code_block</title>
<path fill="#b8e6b8" stroke="#2c3e50" stroke-width="1.8" d="M386.38,-263C386.38,-263 347.12,-263 347.12,-263 341.12,-263 335.12,-257 335.12,-251 335.12,-251 335.12,-239 335.12,-239 335.12,-233 341.12,-227 347.12,-227 347.12,-227 386.38,-227 386.38,-227 392.38,-227 398.38,-233 398.38,-239 398.38,-239 398.38,-251 398.38,-251 398.38,-257 392.38,-263 386.38,-263"/>
<text xml:space="preserve" text-anchor="middle" x="366.75" y="-241.5" font-family="Arial" font-size="10.00" fill="#1a1a1a">code block</text>
</g>
<!-- attr_0 -->
<g id="node6" class="node">
<title>attr_0</title>
<path fill="#c7b8e6" stroke="#7f8c8d" stroke-width="1.2" d="M593.12,-361C593.12,-361 497.62,-361 497.62,-361 491.62,-361 485.62,-355 485.62,-349 485.62,-349 485.62,-337 485.62,-337 485.62,-331 491.62,-325 497.62,-325 497.62,-325 593.12,-325 593.12,-325 599.12,-325 605.12,-331 605.12,-337 605.12,-337 605.12,-349 605.12,-349 605.12,-355 599.12,-361 593.12,-361"/>
<text xml:space="preserve" text-anchor="middle" x="545.38" y="-339.5" font-family="Arial" font-size="10.00" fill="#1a1a1a">(+) code and text mixed</text>
</g>
<!-- unknown.code_block&#45;&gt;attr_0 -->
<g id="edge1" class="edge">
<title>unknown.code_block&#45;&gt;attr_0</title>
<path fill="none" stroke="#aaaaaa" d="M391.13,-263.77C409.61,-277.99 436.45,-297.35 462,-311 468.9,-314.69 476.32,-318.18 483.78,-321.4"/>
<polygon fill="#aaaaaa" stroke="#aaaaaa" points="482.44,-323.49 489.84,-323.94 484.34,-318.97 482.44,-323.49"/>
</g>
<!-- attr_4 -->
<g id="node7" class="node">
<title>attr_4</title>
<path fill="#c7b8e6" stroke="#7f8c8d" stroke-width="1.2" d="M608.5,-296C608.5,-296 482.25,-296 482.25,-296 476.25,-296 470.25,-290 470.25,-284 470.25,-284 470.25,-272 470.25,-272 470.25,-266 476.25,-260 482.25,-260 482.25,-260 608.5,-260 608.5,-260 614.5,-260 620.5,-266 620.5,-272 620.5,-272 620.5,-284 620.5,-284 620.5,-290 614.5,-296 608.5,-296"/>
<text xml:space="preserve" text-anchor="middle" x="545.38" y="-274.5" font-family="Arial" font-size="10.00" fill="#1a1a1a">(+) increases interpretation diffi</text>
</g>
<!-- unknown.code_block&#45;&gt;attr_4 -->
<g id="edge2" class="edge">
<title>unknown.code_block&#45;&gt;attr_4</title>
<path fill="none" stroke="#aaaaaa" d="M398.92,-250.82C416.47,-254.1 439.3,-258.37 461.65,-262.54"/>
<polygon fill="#aaaaaa" stroke="#aaaaaa" points="461.04,-264.92 468.37,-263.8 461.94,-260.1 461.04,-264.92"/>
</g>
<!-- rel_2 -->
<g id="node14" class="node">
<title>rel_2</title>
<path fill="#f5b8b8" stroke="#d46a6a" stroke-width="1.2" d="M585.62,-231C585.62,-231 505.12,-231 505.12,-231 499.12,-231 493.12,-225 493.12,-219 493.12,-219 493.12,-207 493.12,-207 493.12,-201 499.12,-195 505.12,-195 505.12,-195 585.62,-195 585.62,-195 591.62,-195 597.62,-201 597.62,-207 597.62,-207 597.62,-219 597.62,-219 597.62,-225 591.62,-231 585.62,-231"/>
<text xml:space="preserve" text-anchor="middle" x="545.38" y="-209.5" font-family="Arial" font-size="10.00" fill="#8b0000">increases effort over</text>
</g>
<!-- unknown.code_block&#45;&gt;rel_2 -->
<g id="edge11" class="edge">
<title>unknown.code_block&#45;&gt;rel_2</title>
<path fill="none" stroke="#d46a6a" stroke-width="1.5" d="M398.92,-239.35C422.13,-235.15 454.57,-229.27 482.93,-224.13"/>
<polygon fill="#d46a6a" stroke="#d46a6a" stroke-width="1.5" points="483.16,-226.94 490.53,-222.76 482.16,-221.43 483.16,-226.94"/>
</g>
<!-- unknown.orange_highlight -->
<g id="node3" class="node">
<title>unknown.orange_highlight</title>
<path fill="#b8e6b8" stroke="#2c3e50" stroke-width="1.8" d="M72.25,-255C72.25,-255 12,-255 12,-255 6,-255 0,-249 0,-243 0,-243 0,-231 0,-231 0,-225 6,-219 12,-219 12,-219 72.25,-219 72.25,-219 78.25,-219 84.25,-225 84.25,-231 84.25,-231 84.25,-243 84.25,-243 84.25,-249 78.25,-255 72.25,-255"/>
<text xml:space="preserve" text-anchor="middle" x="42.12" y="-233.5" font-family="Arial" font-size="10.00" fill="#1a1a1a">orange highlight</text>
</g>
<!-- attr_1 -->
<g id="node8" class="node">
<title>attr_1</title>
<path fill="#c7b8e6" stroke="#7f8c8d" stroke-width="1.2" d="M259.5,-320C259.5,-320 139.25,-320 139.25,-320 133.25,-320 127.25,-314 127.25,-308 127.25,-308 127.25,-296 127.25,-296 127.25,-290 133.25,-284 139.25,-284 139.25,-284 259.5,-284 259.5,-284 265.5,-284 271.5,-290 271.5,-296 271.5,-296 271.5,-308 271.5,-308 271.5,-314 265.5,-320 259.5,-320"/>
<text xml:space="preserve" text-anchor="middle" x="199.38" y="-298.5" font-family="Arial" font-size="10.00" fill="#1a1a1a">(+) attention drawing highlight</text>
</g>
<!-- unknown.orange_highlight&#45;&gt;attr_1 -->
<g id="edge3" class="edge">
<title>unknown.orange_highlight&#45;&gt;attr_1</title>
<path fill="none" stroke="#aaaaaa" d="M85.14,-254.59C104.01,-262.49 126.46,-271.89 146.37,-280.23"/>
<polygon fill="#aaaaaa" stroke="#aaaaaa" points="145.36,-282.46 152.76,-282.9 147.25,-277.94 145.36,-282.46"/>
</g>
<!-- rel_0 -->
<g id="node12" class="node">
<title>rel_0</title>
<path fill="#f5b8b8" stroke="#d46a6a" stroke-width="1.2" d="M216,-255C216,-255 182.75,-255 182.75,-255 176.75,-255 170.75,-249 170.75,-243 170.75,-243 170.75,-231 170.75,-231 170.75,-225 176.75,-219 182.75,-219 182.75,-219 216,-219 216,-219 222,-219 228,-225 228,-231 228,-231 228,-243 228,-243 228,-249 222,-255 216,-255"/>
<text xml:space="preserve" text-anchor="middle" x="199.38" y="-233.5" font-family="Arial" font-size="10.00" fill="#8b0000">highlights</text>
</g>
<!-- unknown.orange_highlight&#45;&gt;rel_0 -->
<g id="edge7" class="edge">
<title>unknown.orange_highlight&#45;&gt;rel_0</title>
<path fill="none" stroke="#d46a6a" stroke-width="1.5" d="M85.14,-237C108.66,-237 137.74,-237 160.55,-237"/>
<polygon fill="#d46a6a" stroke="#d46a6a" stroke-width="1.5" points="160.27,-239.8 168.27,-237 160.27,-234.2 160.27,-239.8"/>
</g>
<!-- rel_3 -->
<g id="node15" class="node">
<title>rel_3</title>
<path fill="#f5b8b8" stroke="#d46a6a" stroke-width="1.2" d="M234.38,-174C234.38,-174 164.38,-174 164.38,-174 158.38,-174 152.38,-168 152.38,-162 152.38,-162 152.38,-150 152.38,-150 152.38,-144 158.38,-138 164.38,-138 164.38,-138 234.38,-138 234.38,-138 240.38,-138 246.38,-144 246.38,-150 246.38,-150 246.38,-162 246.38,-162 246.38,-168 240.38,-174 234.38,-174"/>
<text xml:space="preserve" text-anchor="middle" x="199.38" y="-152.5" font-family="Arial" font-size="10.00" fill="#8b0000">draws attention to</text>
</g>
<!-- unknown.orange_highlight&#45;&gt;rel_3 -->
<g id="edge13" class="edge">
<title>unknown.orange_highlight&#45;&gt;rel_3</title>
<path fill="none" stroke="#d46a6a" stroke-width="1.5" d="M79.13,-218.21C101.45,-206.57 130.29,-191.52 154.01,-179.15"/>
<polygon fill="#d46a6a" stroke="#d46a6a" stroke-width="1.5" points="155.02,-181.78 160.82,-175.6 152.43,-176.81 155.02,-181.78"/>
</g>
<!-- unknown.programming_syntax -->
<g id="node4" class="node">
<title>unknown.programming_syntax</title>
<path fill="#b8e6b8" stroke="#2c3e50" stroke-width="1.8" d="M407,-134C407,-134 326.5,-134 326.5,-134 320.5,-134 314.5,-128 314.5,-122 314.5,-122 314.5,-110 314.5,-110 314.5,-104 320.5,-98 326.5,-98 326.5,-98 407,-98 407,-98 413,-98 419,-104 419,-110 419,-110 419,-122 419,-122 419,-128 413,-134 407,-134"/>
<text xml:space="preserve" text-anchor="middle" x="366.75" y="-112.5" font-family="Arial" font-size="10.00" fill="#1a1a1a">programming syntax</text>
</g>
<!-- attr_2 -->
<g id="node9" class="node">
<title>attr_2</title>
<path fill="#c7b8e6" stroke="#7f8c8d" stroke-width="1.2" d="M616.75,-166C616.75,-166 474,-166 474,-166 468,-166 462,-160 462,-154 462,-154 462,-142 462,-142 462,-136 468,-130 474,-130 474,-130 616.75,-130 616.75,-130 622.75,-130 628.75,-136 628.75,-142 628.75,-142 628.75,-154 628.75,-154 628.75,-160 622.75,-166 616.75,-166"/>
<text xml:space="preserve" text-anchor="middle" x="545.38" y="-144.5" font-family="Arial" font-size="10.00" fill="#1a1a1a">(+) requires specialized knowledge</text>
</g>
<!-- unknown.programming_syntax&#45;&gt;attr_2 -->
<g id="edge4" class="edge">
<title>unknown.programming_syntax&#45;&gt;attr_2</title>
<path fill="none" stroke="#aaaaaa" d="M419.79,-125.43C430.35,-127.34 441.75,-129.41 453.22,-131.48"/>
<polygon fill="#aaaaaa" stroke="#aaaaaa" points="452.75,-133.89 460.08,-132.73 453.63,-129.07 452.75,-133.89"/>
</g>
<!-- attr_5 -->
<g id="node10" class="node">
<title>attr_5</title>
<path fill="#c7b8e6" stroke="#7f8c8d" stroke-width="1.2" d="M611.5,-101C611.5,-101 479.25,-101 479.25,-101 473.25,-101 467.25,-95 467.25,-89 467.25,-89 467.25,-77 467.25,-77 467.25,-71 473.25,-65 479.25,-65 479.25,-65 611.5,-65 611.5,-65 617.5,-65 623.5,-71 623.5,-77 623.5,-77 623.5,-89 623.5,-89 623.5,-95 617.5,-101 611.5,-101"/>
<text xml:space="preserve" text-anchor="middle" x="545.38" y="-79.5" font-family="Arial" font-size="10.00" fill="#1a1a1a">(+) unfamiliar representational fo</text>
</g>
<!-- unknown.programming_syntax&#45;&gt;attr_5 -->
<g id="edge5" class="edge">
<title>unknown.programming_syntax&#45;&gt;attr_5</title>
<path fill="none" stroke="#aaaaaa" d="M419.79,-106.28C432.01,-103.99 445.35,-101.5 458.61,-99.02"/>
<polygon fill="#aaaaaa" stroke="#aaaaaa" points="458.93,-101.46 465.36,-97.76 458.03,-96.64 458.93,-101.46"/>
</g>
<!-- rel_1 -->
<g id="node13" class="node">
<title>rel_1</title>
<path fill="#f5b8b8" stroke="#d46a6a" stroke-width="1.2" d="M567.62,-36C567.62,-36 523.12,-36 523.12,-36 517.12,-36 511.12,-30 511.12,-24 511.12,-24 511.12,-12 511.12,-12 511.12,-6 517.12,0 523.12,0 523.12,0 567.62,0 567.62,0 573.62,0 579.62,-6 579.62,-12 579.62,-12 579.62,-24 579.62,-24 579.62,-30 573.62,-36 567.62,-36"/>
<text xml:space="preserve" text-anchor="middle" x="545.38" y="-14.5" font-family="Arial" font-size="10.00" fill="#8b0000">overwhelms</text>
</g>
<!-- unknown.programming_syntax&#45;&gt;rel_1 -->
<g id="edge9" class="edge">
<title>unknown.programming_syntax&#45;&gt;rel_1</title>
<path fill="none" stroke="#d46a6a" stroke-width="1.5" d="M391.13,-97.23C409.61,-83.01 436.45,-63.65 462,-50 474.29,-43.43 488.23,-37.5 501.11,-32.57"/>
<polygon fill="#d46a6a" stroke="#d46a6a" stroke-width="1.5" points="502.04,-35.21 508.57,-29.8 500.09,-29.96 502.04,-35.21"/>
</g>
<!-- unknown.plain_text -->
<g id="node5" class="node">
<title>unknown.plain_text</title>
<path fill="#b8e6b8" stroke="#2c3e50" stroke-width="1.8" d="M721.5,-231C721.5,-231 689.75,-231 689.75,-231 683.75,-231 677.75,-225 677.75,-219 677.75,-219 677.75,-207 677.75,-207 677.75,-201 683.75,-195 689.75,-195 689.75,-195 721.5,-195 721.5,-195 727.5,-195 733.5,-201 733.5,-207 733.5,-207 733.5,-219 733.5,-219 733.5,-225 727.5,-231 721.5,-231"/>
<text xml:space="preserve" text-anchor="middle" x="705.62" y="-209.5" font-family="Arial" font-size="10.00" fill="#1a1a1a">plain text</text>
</g>
<!-- attr_3 -->
<g id="node11" class="node">
<title>attr_3</title>
<path fill="#c7b8e6" stroke="#7f8c8d" stroke-width="1.2" d="M907.25,-231C907.25,-231 794.5,-231 794.5,-231 788.5,-231 782.5,-225 782.5,-219 782.5,-219 782.5,-207 782.5,-207 782.5,-201 788.5,-195 794.5,-195 794.5,-195 907.25,-195 907.25,-195 913.25,-195 919.25,-201 919.25,-207 919.25,-207 919.25,-219 919.25,-219 919.25,-225 913.25,-231 907.25,-231"/>
<text xml:space="preserve" text-anchor="middle" x="850.88" y="-209.5" font-family="Arial" font-size="10.00" fill="#1a1a1a">(−) relatively simple content</text>
</g>
<!-- unknown.plain_text&#45;&gt;attr_3 -->
<g id="edge6" class="edge">
<title>unknown.plain_text&#45;&gt;attr_3</title>
<path fill="none" stroke="#aaaaaa" d="M734.25,-213C745.66,-213 759.52,-213 773.61,-213"/>
<polygon fill="#aaaaaa" stroke="#aaaaaa" points="773.41,-215.45 780.41,-213 773.41,-210.55 773.41,-215.45"/>
</g>
<!-- rel_0&#45;&gt;unknown.code_block -->
<g id="edge8" class="edge">
<title>rel_0&#45;&gt;unknown.code_block</title>
<path fill="none" stroke="#d46a6a" stroke-width="1.5" d="M228.43,-238.36C254.72,-239.63 294.36,-241.55 324.31,-243"/>
<polygon fill="#d46a6a" stroke="#d46a6a" stroke-width="1.5" points="324.06,-245.79 332.19,-243.38 324.33,-240.19 324.06,-245.79"/>
</g>
<!-- rel_1&#45;&gt;unknown.text_content -->
<g id="edge10" class="edge">
<title>rel_1&#45;&gt;unknown.text_content</title>
<path fill="none" stroke="#d46a6a" stroke-width="1.5" d="M579.94,-18C603.54,-18 635.35,-18 660.93,-18"/>
<polygon fill="#d46a6a" stroke="#d46a6a" stroke-width="1.5" points="660.84,-20.8 668.84,-18 660.84,-15.2 660.84,-20.8"/>
</g>
<!-- rel_2&#45;&gt;unknown.plain_text -->
<g id="edge12" class="edge">
<title>rel_2&#45;&gt;unknown.plain_text</title>
<path fill="none" stroke="#d46a6a" stroke-width="1.5" d="M598.19,-213C620.61,-213 646.35,-213 666.91,-213"/>
<polygon fill="#d46a6a" stroke="#d46a6a" stroke-width="1.5" points="666.87,-215.8 674.87,-213 666.87,-210.2 666.87,-215.8"/>
</g>
<!-- rel_3&#45;&gt;unknown.programming_syntax -->
<g id="edge14" class="edge">
<title>rel_3&#45;&gt;unknown.programming_syntax</title>
<path fill="none" stroke="#d46a6a" stroke-width="1.5" d="M246.88,-144.75C264.62,-140.46 285.12,-135.5 304.05,-130.92"/>
<polygon fill="#d46a6a" stroke="#d46a6a" stroke-width="1.5" points="304.46,-133.71 311.57,-129.1 303.14,-128.26 304.46,-133.71"/>
</g>
</g>
</svg>
