<?xml version="1.0" encoding="UTF-8" standalone="no"?>
<!DOCTYPE svg PUBLIC "-//W3C//DTD SVG 1.1//EN"
 "http://www.w3.org/Graphics/SVG/1.1/DTD/svg11.dtd">
<!-- Generated by graphviz version 14.1.5 (20260411.2331)
 -->
<!-- Title: InfoVisJ.2082.7.png Pages: 1 -->
<svg width="894pt" height="505pt"
 viewBox="0.00 0.00 894.00 505.00" xmlns="http://www.w3.org/2000/svg" xmlns:xlink="http://www.w3.org/1999/xlink">
<g id="graph0" class="graph" transform="scale(1 1) rotate(0) translate(4 501.25)">
<title>InfoVisJ.2082.7.png</title>
<polygon fill="white" stroke="none" points="-4,4 -4,-501.25 890,-501.25 890,4 -4,4"/>
<text xml:space="preserve" text-anchor="start" x="380" y="-476.95" font-family="Arial" font-weight="bold" font-size="14.00">InfoVisJ.2082.7.png</text>
<text xml:space="preserve" text-anchor="start" x="398" y="-457" font-family="Arial" font-size="11.00">Table &#160;| &#160;VC = 0.73</text>
<path fill="#b8e6b8" stroke="none" d="M233.62,-432C233.62,-432 241.62,-432 241.62,-432 244.62,-432 247.62,-435 247.62,-438 247.62,-438 247.62,-444 247.62,-444 247.62,-447 244.62,-450 241.62,-450 241.62,-450 233.62,-450 233.62,-450 230.62,-450 227.62,-447 227.62,-444 227.62,-444 227.62,-438 227.62,-438 227.62,-435 230.62,-432 233.62,-432"/>
<path fill="none" stroke="black" d="M233.62,-432C233.62,-432 241.62,-432 241.62,-432 244.62,-432 247.62,-435 247.62,-438 247.62,-438 247.62,-444 247.62,-444 247.62,-447 244.62,-450 241.62,-450 241.62,-450 233.62,-450 233.62,-450 230.62,-450 227.62,-447 227.62,-444 227.62,-444 227.62,-438 227.62,-438 227.62,-435 230.62,-432 233.62,-432"/>
<text xml:space="preserve" text-anchor="start" x="236.12" y="-437.25" font-family="Arial" font-size="10.00"> </text>
<text xml:space="preserve" text-anchor="start" x="251.62" y="-437.25" font-family="Arial" font-size="10.00">Object</text>
<path fill="#c7b8e6" stroke="none" d="M290.12,-432C290.12,-432 298.12,-432 298.12,-432 301.12,-432 304.12,-435 304.12,-438 304.12,-438 304.12,-444 304.12,-444 304.12,-447 301.12,-450 298.12,-450 298.12,-450 290.12,-450 290.12,-450 287.12,-450 284.12,-447 284.12,-444 284.12,-444 284.12,-438 284.12,-438 284.12,-435 287.12,-432 290.12,-432"/>
<path fill="none" stroke="black" d="M290.12,-432C290.12,-432 298.12,-432 298.12,-432 301.12,-432 304.12,-435 304.12,-438 304.12,-438 304.12,-444 304.12,-444 304.12,-447 301.12,-450 298.12,-450 298.12,-450 290.12,-450 290.12,-450 287.12,-450 284.12,-447 284.12,-444 284.12,-444 284.12,-438 284.12,-438 284.12,-435 287.12,-432 290.12,-432"/>
<text xml:space="preserve" text-anchor="start" x="292.62" y="-437.25" font-family="Arial" font-size="10.00"> </text>
<text xml:space="preserve" text-anchor="start" x="308.12" y="-437.25" font-family="Arial" font-size="10.00">Attribute</text>
<path fill="#f5b8b8" stroke="none" d="M354.88,-432C354.88,-432 362.88,-432 362.88,-432 365.88,-432 368.88,-435 368.88,-438 368.88,-438 368.88,-444 368.88,-444 368.88,-447 365.88,-450 362.88,-450 362.88,-450 354.88,-450 354.88,-450 351.88,-450 348.88,-447 348.88,-444 348.88,-444 348.88,-438 348.88,-438 348.88,-435 351.88,-432 354.88,-432"/>
<path fill="none" stroke="black" d="M354.88,-432C354.88,-432 362.88,-432 362.88,-432 365.88,-432 368.88,-435 368.88,-438 368.88,-438 368.88,-444 368.88,-444 368.88,-447 365.88,-450 362.88,-450 362.88,-450 354.88,-450 354.88,-450 351.88,-450 348.88,-447 348.88,-444 348.88,-444 348.88,-438 348.88,-438 348.88,-435 351.88,-432 354.88,-432"/>
<text xml:space="preserve" text-anchor="start" x="357.38" y="-437.25" font-family="Arial" font-size="10.00"> </text>
<text xml:space="preserve" text-anchor="start" x="372.88" y="-437.25" font-family="Arial" font-size="10.00">Relationship</text>
<text xml:space="preserve" text-anchor="start" x="432.88" y="-438.5" font-family="Arial" font-weight="bold" font-size="10.00">(+)</text>
<text xml:space="preserve" text-anchor="start" x="444.88" y="-438.5" font-family="Arial" font-size="10.00"> increases complexity</text>
<text xml:space="preserve" text-anchor="start" x="546.12" y="-438.5" font-family="Arial" font-weight="bold" font-size="10.00">(−)</text>
<text xml:space="preserve" text-anchor="start" x="558.12" y="-438.5" font-family="Arial" font-size="10.00"> decreases complexity</text>
<!-- unknown.table -->
<g id="node1" class="node">
<title>unknown.table</title>
<path fill="#b8e6b8" stroke="#2c3e50" stroke-width="1.8" d="M341.75,-361C341.75,-361 311.75,-361 311.75,-361 305.75,-361 299.75,-355 299.75,-349 299.75,-349 299.75,-337 299.75,-337 299.75,-331 305.75,-325 311.75,-325 311.75,-325 341.75,-325 341.75,-325 347.75,-325 353.75,-331 353.75,-337 353.75,-337 353.75,-349 353.75,-349 353.75,-355 347.75,-361 341.75,-361"/>
<text xml:space="preserve" text-anchor="middle" x="326.75" y="-339.5" font-family="Arial" font-size="10.00" fill="#1a1a1a">table</text>
</g>
<!-- attr_2 -->
<g id="node6" class="node">
<title>attr_2</title>
<path fill="#c7b8e6" stroke="#7f8c8d" stroke-width="1.2" d="M543.75,-426C543.75,-426 434,-426 434,-426 428,-426 422,-420 422,-414 422,-414 422,-402 422,-402 422,-396 428,-390 434,-390 434,-390 543.75,-390 543.75,-390 549.75,-390 555.75,-396 555.75,-402 555.75,-402 555.75,-414 555.75,-414 555.75,-420 549.75,-426 543.75,-426"/>
<text xml:space="preserve" text-anchor="middle" x="488.88" y="-404.5" font-family="Arial" font-size="10.00" fill="#1a1a1a">(+) unclear visual hierarchy</text>
</g>
<!-- unknown.table&#45;&gt;attr_2 -->
<g id="edge1" class="edge">
<title>unknown.table&#45;&gt;attr_2</title>
<path fill="none" stroke="#aaaaaa" d="M354.55,-353.88C376.27,-362.69 407.55,-375.39 434.36,-386.28"/>
<polygon fill="#aaaaaa" stroke="#aaaaaa" points="433.34,-388.51 440.75,-388.87 435.19,-383.97 433.34,-388.51"/>
</g>
<!-- attr_5 -->
<g id="node7" class="node">
<title>attr_5</title>
<path fill="#c7b8e6" stroke="#7f8c8d" stroke-width="1.2" d="M526.5,-361C526.5,-361 451.25,-361 451.25,-361 445.25,-361 439.25,-355 439.25,-349 439.25,-349 439.25,-337 439.25,-337 439.25,-331 445.25,-325 451.25,-325 451.25,-325 526.5,-325 526.5,-325 532.5,-325 538.5,-331 538.5,-337 538.5,-337 538.5,-349 538.5,-349 538.5,-355 532.5,-361 526.5,-361"/>
<text xml:space="preserve" text-anchor="middle" x="488.88" y="-339.5" font-family="Arial" font-size="10.00" fill="#1a1a1a">(+) hard to interpret</text>
</g>
<!-- unknown.table&#45;&gt;attr_5 -->
<g id="edge2" class="edge">
<title>unknown.table&#45;&gt;attr_5</title>
<path fill="none" stroke="#aaaaaa" d="M354.55,-343C375.28,-343 404.72,-343 430.67,-343"/>
<polygon fill="#aaaaaa" stroke="#aaaaaa" points="430.44,-345.45 437.44,-343 430.44,-340.55 430.44,-345.45"/>
</g>
<!-- rel_3 -->
<g id="node15" class="node">
<title>rel_3</title>
<path fill="#f5b8b8" stroke="#d46a6a" stroke-width="1.2" d="M525.38,-296C525.38,-296 452.38,-296 452.38,-296 446.38,-296 440.38,-290 440.38,-284 440.38,-284 440.38,-272 440.38,-272 440.38,-266 446.38,-260 452.38,-260 452.38,-260 525.38,-260 525.38,-260 531.38,-260 537.38,-266 537.38,-272 537.38,-272 537.38,-284 537.38,-284 537.38,-290 531.38,-296 525.38,-296"/>
<text xml:space="preserve" text-anchor="middle" x="488.88" y="-274.5" font-family="Arial" font-size="10.00" fill="#8b0000">increases effort for</text>
</g>
<!-- unknown.table&#45;&gt;rel_3 -->
<g id="edge13" class="edge">
<title>unknown.table&#45;&gt;rel_3</title>
<path fill="none" stroke="#d46a6a" stroke-width="1.5" d="M354.55,-332.12C375.9,-323.46 406.48,-311.04 432.98,-300.29"/>
<polygon fill="#d46a6a" stroke="#d46a6a" stroke-width="1.5" points="433.69,-303.02 440.05,-297.41 431.58,-297.83 433.69,-303.02"/>
</g>
<!-- unknown.scale -->
<g id="node2" class="node">
<title>unknown.scale</title>
<path fill="#b8e6b8" stroke="#2c3e50" stroke-width="1.8" d="M341.75,-199C341.75,-199 311.75,-199 311.75,-199 305.75,-199 299.75,-193 299.75,-187 299.75,-187 299.75,-175 299.75,-175 299.75,-169 305.75,-163 311.75,-163 311.75,-163 341.75,-163 341.75,-163 347.75,-163 353.75,-169 353.75,-175 353.75,-175 353.75,-187 353.75,-187 353.75,-193 347.75,-199 341.75,-199"/>
<text xml:space="preserve" text-anchor="middle" x="326.75" y="-177.5" font-family="Arial" font-size="10.00" fill="#1a1a1a">scale</text>
</g>
<!-- attr_0 -->
<g id="node8" class="node">
<title>attr_0</title>
<path fill="#c7b8e6" stroke="#7f8c8d" stroke-width="1.2" d="M540,-231C540,-231 437.75,-231 437.75,-231 431.75,-231 425.75,-225 425.75,-219 425.75,-219 425.75,-207 425.75,-207 425.75,-201 431.75,-195 437.75,-195 437.75,-195 540,-195 540,-195 546,-195 552,-201 552,-207 552,-207 552,-219 552,-219 552,-225 546,-231 540,-231"/>
<text xml:space="preserve" text-anchor="middle" x="488.88" y="-209.5" font-family="Arial" font-size="10.00" fill="#1a1a1a">(+) no clear differentiation</text>
</g>
<!-- unknown.scale&#45;&gt;attr_0 -->
<g id="edge3" class="edge">
<title>unknown.scale&#45;&gt;attr_0</title>
<path fill="none" stroke="#aaaaaa" d="M354.55,-186.36C371.76,-189.79 394.97,-194.43 417.2,-198.88"/>
<polygon fill="#aaaaaa" stroke="#aaaaaa" points="416.51,-201.24 423.85,-200.21 417.47,-196.43 416.51,-201.24"/>
</g>
<!-- rel_0 -->
<g id="node12" class="node">
<title>rel_0</title>
<path fill="#f5b8b8" stroke="#d46a6a" stroke-width="1.2" d="M538.12,-166C538.12,-166 439.62,-166 439.62,-166 433.62,-166 427.62,-160 427.62,-154 427.62,-154 427.62,-142 427.62,-142 427.62,-136 433.62,-130 439.62,-130 439.62,-130 538.12,-130 538.12,-130 544.12,-130 550.12,-136 550.12,-142 550.12,-142 550.12,-154 550.12,-154 550.12,-160 544.12,-166 538.12,-166"/>
<text xml:space="preserve" text-anchor="middle" x="488.88" y="-144.5" font-family="Arial" font-size="10.00" fill="#8b0000">lacks differentiation from</text>
</g>
<!-- unknown.scale&#45;&gt;rel_0 -->
<g id="edge7" class="edge">
<title>unknown.scale&#45;&gt;rel_0</title>
<path fill="none" stroke="#d46a6a" stroke-width="1.5" d="M354.55,-175.48C371.77,-171.93 395,-167.14 417.25,-162.56"/>
<polygon fill="#d46a6a" stroke="#d46a6a" stroke-width="1.5" points="417.54,-165.35 424.81,-161 416.41,-159.87 417.54,-165.35"/>
</g>
<!-- unknown.cell_values -->
<g id="node3" class="node">
<title>unknown.cell_values</title>
<path fill="#b8e6b8" stroke="#2c3e50" stroke-width="1.8" d="M662,-166C662,-166 623.5,-166 623.5,-166 617.5,-166 611.5,-160 611.5,-154 611.5,-154 611.5,-142 611.5,-142 611.5,-136 617.5,-130 623.5,-130 623.5,-130 662,-130 662,-130 668,-130 674,-136 674,-142 674,-142 674,-154 674,-154 674,-160 668,-166 662,-166"/>
<text xml:space="preserve" text-anchor="middle" x="642.75" y="-144.5" font-family="Arial" font-size="10.00" fill="#1a1a1a">cell values</text>
</g>
<!-- attr_3 -->
<g id="node9" class="node">
<title>attr_3</title>
<path fill="#c7b8e6" stroke="#7f8c8d" stroke-width="1.2" d="M874,-166C874,-166 729,-166 729,-166 723,-166 717,-160 717,-154 717,-154 717,-142 717,-142 717,-136 723,-130 729,-130 729,-130 874,-130 874,-130 880,-130 886,-136 886,-142 886,-142 886,-154 886,-154 886,-160 880,-166 874,-166"/>
<text xml:space="preserve" text-anchor="middle" x="801.5" y="-144.5" font-family="Arial" font-size="10.00" fill="#1a1a1a">(+) ambiguous value representation</text>
</g>
<!-- unknown.cell_values&#45;&gt;attr_3 -->
<g id="edge4" class="edge">
<title>unknown.cell_values&#45;&gt;attr_3</title>
<path fill="none" stroke="#aaaaaa" d="M674.72,-148C684.65,-148 696.21,-148 708.22,-148"/>
<polygon fill="#aaaaaa" stroke="#aaaaaa" points="708.07,-150.45 715.07,-148 708.07,-145.55 708.07,-150.45"/>
</g>
<!-- unknown.labels -->
<g id="node4" class="node">
<title>unknown.labels</title>
<path fill="#b8e6b8" stroke="#2c3e50" stroke-width="1.8" d="M42,-231C42,-231 12,-231 12,-231 6,-231 0,-225 0,-219 0,-219 0,-207 0,-207 0,-201 6,-195 12,-195 12,-195 42,-195 42,-195 48,-195 54,-201 54,-207 54,-207 54,-219 54,-219 54,-225 48,-231 42,-231"/>
<text xml:space="preserve" text-anchor="middle" x="27" y="-209.5" font-family="Arial" font-size="10.00" fill="#1a1a1a">labels</text>
</g>
<!-- attr_4 -->
<g id="node10" class="node">
<title>attr_4</title>
<path fill="#c7b8e6" stroke="#7f8c8d" stroke-width="1.2" d="M232.25,-264C232.25,-264 109,-264 109,-264 103,-264 97,-258 97,-252 97,-252 97,-240 97,-240 97,-234 103,-228 109,-228 109,-228 232.25,-228 232.25,-228 238.25,-228 244.25,-234 244.25,-240 244.25,-240 244.25,-252 244.25,-252 244.25,-258 238.25,-264 232.25,-264"/>
<text xml:space="preserve" text-anchor="middle" x="170.62" y="-242.5" font-family="Arial" font-size="10.00" fill="#1a1a1a">(+) insufficient scale reference</text>
</g>
<!-- unknown.labels&#45;&gt;attr_4 -->
<g id="edge5" class="edge">
<title>unknown.labels&#45;&gt;attr_4</title>
<path fill="none" stroke="#aaaaaa" d="M54.64,-219.21C64.5,-221.5 76.26,-224.24 88.44,-227.08"/>
<polygon fill="#aaaaaa" stroke="#aaaaaa" points="87.64,-229.41 95.01,-228.62 88.75,-224.64 87.64,-229.41"/>
</g>
<!-- rel_2 -->
<g id="node14" class="node">
<title>rel_2</title>
<path fill="#f5b8b8" stroke="#d46a6a" stroke-width="1.2" d="M195.88,-199C195.88,-199 145.38,-199 145.38,-199 139.38,-199 133.38,-193 133.38,-187 133.38,-187 133.38,-175 133.38,-175 133.38,-169 139.38,-163 145.38,-163 145.38,-163 195.88,-163 195.88,-163 201.88,-163 207.88,-169 207.88,-175 207.88,-175 207.88,-187 207.88,-187 207.88,-193 201.88,-199 195.88,-199"/>
<text xml:space="preserve" text-anchor="middle" x="170.62" y="-177.5" font-family="Arial" font-size="10.00" fill="#8b0000">fails to clarify</text>
</g>
<!-- unknown.labels&#45;&gt;rel_2 -->
<g id="edge11" class="edge">
<title>unknown.labels&#45;&gt;rel_2</title>
<path fill="none" stroke="#d46a6a" stroke-width="1.5" d="M54.64,-206.98C73.9,-202.63 100.43,-196.63 123.15,-191.5"/>
<polygon fill="#d46a6a" stroke="#d46a6a" stroke-width="1.5" points="123.55,-194.28 130.74,-189.79 122.32,-188.82 123.55,-194.28"/>
</g>
<!-- unknown.color_encoding -->
<g id="node5" class="node">
<title>unknown.color_encoding</title>
<path fill="#b8e6b8" stroke="#2c3e50" stroke-width="1.8" d="M354.25,-69C354.25,-69 299.25,-69 299.25,-69 293.25,-69 287.25,-63 287.25,-57 287.25,-57 287.25,-45 287.25,-45 287.25,-39 293.25,-33 299.25,-33 299.25,-33 354.25,-33 354.25,-33 360.25,-33 366.25,-39 366.25,-45 366.25,-45 366.25,-57 366.25,-57 366.25,-63 360.25,-69 354.25,-69"/>
<text xml:space="preserve" text-anchor="middle" x="326.75" y="-47.5" font-family="Arial" font-size="10.00" fill="#1a1a1a">color encoding</text>
</g>
<!-- attr_1 -->
<g id="node11" class="node">
<title>attr_1</title>
<path fill="#c7b8e6" stroke="#7f8c8d" stroke-width="1.2" d="M556.5,-101C556.5,-101 421.25,-101 421.25,-101 415.25,-101 409.25,-95 409.25,-89 409.25,-89 409.25,-77 409.25,-77 409.25,-71 415.25,-65 421.25,-65 421.25,-65 556.5,-65 556.5,-65 562.5,-65 568.5,-71 568.5,-77 568.5,-77 568.5,-89 568.5,-89 568.5,-95 562.5,-101 556.5,-101"/>
<text xml:space="preserve" text-anchor="middle" x="488.88" y="-79.5" font-family="Arial" font-size="10.00" fill="#1a1a1a">(+) indistinguishable scale contra</text>
</g>
<!-- unknown.color_encoding&#45;&gt;attr_1 -->
<g id="edge6" class="edge">
<title>unknown.color_encoding&#45;&gt;attr_1</title>
<path fill="none" stroke="#aaaaaa" d="M366.92,-58.83C377.23,-60.89 388.77,-63.19 400.52,-65.54"/>
<polygon fill="#aaaaaa" stroke="#aaaaaa" points="399.85,-67.91 407.2,-66.88 400.81,-63.1 399.85,-67.91"/>
</g>
<!-- rel_1 -->
<g id="node13" class="node">
<title>rel_1</title>
<path fill="#f5b8b8" stroke="#d46a6a" stroke-width="1.2" d="M504.75,-36C504.75,-36 473,-36 473,-36 467,-36 461,-30 461,-24 461,-24 461,-12 461,-12 461,-6 467,0 473,0 473,0 504.75,0 504.75,0 510.75,0 516.75,-6 516.75,-12 516.75,-12 516.75,-24 516.75,-24 516.75,-30 510.75,-36 504.75,-36"/>
<text xml:space="preserve" text-anchor="middle" x="488.88" y="-14.5" font-family="Arial" font-size="10.00" fill="#8b0000">obscures</text>
</g>
<!-- unknown.color_encoding&#45;&gt;rel_1 -->
<g id="edge9" class="edge">
<title>unknown.color_encoding&#45;&gt;rel_1</title>
<path fill="none" stroke="#d46a6a" stroke-width="1.5" d="M366.92,-42.93C392.47,-37.66 425.62,-30.83 450.75,-25.65"/>
<polygon fill="#d46a6a" stroke="#d46a6a" stroke-width="1.5" points="451.15,-28.43 458.42,-24.07 450.02,-22.94 451.15,-28.43"/>
</g>
<!-- rel_0&#45;&gt;unknown.cell_values -->
<g id="edge8" class="edge">
<title>rel_0&#45;&gt;unknown.cell_values</title>
<path fill="none" stroke="#d46a6a" stroke-width="1.5" d="M550.34,-148C567.14,-148 585,-148 600.43,-148"/>
<polygon fill="#d46a6a" stroke="#d46a6a" stroke-width="1.5" points="600.41,-150.8 608.41,-148 600.41,-145.2 600.41,-150.8"/>
</g>
<!-- rel_1&#45;&gt;unknown.cell_values -->
<g id="edge10" class="edge">
<title>rel_1&#45;&gt;unknown.cell_values</title>
<path fill="none" stroke="#d46a6a" stroke-width="1.5" d="M517.22,-25.53C533.27,-30.86 553.3,-39.19 568.5,-51 592.99,-70.04 613.51,-99.19 626.54,-120.57"/>
<polygon fill="#d46a6a" stroke="#d46a6a" stroke-width="1.5" points="624.01,-121.8 630.5,-127.25 628.83,-118.94 624.01,-121.8"/>
</g>
<!-- rel_2&#45;&gt;unknown.scale -->
<g id="edge12" class="edge">
<title>rel_2&#45;&gt;unknown.scale</title>
<path fill="none" stroke="#d46a6a" stroke-width="1.5" d="M208.15,-181C232.61,-181 264.68,-181 289.15,-181"/>
<polygon fill="#d46a6a" stroke="#d46a6a" stroke-width="1.5" points="288.86,-183.8 296.86,-181 288.86,-178.2 288.86,-183.8"/>
</g>
<!-- rel_3&#45;&gt;unknown.cell_values -->
<g id="edge14" class="edge">
<title>rel_3&#45;&gt;unknown.cell_values</title>
<path fill="none" stroke="#d46a6a" stroke-width="1.5" d="M537.86,-263.29C548.55,-258.74 559.4,-253.03 568.5,-246 593.36,-226.8 613.94,-197.08 626.89,-175.4"/>
<polygon fill="#d46a6a" stroke="#d46a6a" stroke-width="1.5" points="629.23,-176.95 630.82,-168.62 624.39,-174.14 629.23,-176.95"/>
</g>
</g>
</svg>
