<?xml version="1.0" encoding="UTF-8" standalone="no"?>
<!DOCTYPE svg PUBLIC "-//W3C//DTD SVG 1.1//EN"
 "http://www.w3.org/Graphics/SVG/1.1/DTD/svg11.dtd">
<!-- Generated by graphviz version 14.1.5 (20260411.2331)
 -->
<!-- Title: InfoVisJ.459.2.png Pages: 1 -->
<svg width="845pt" height="372pt"
 viewBox="0.00 0.00 845.00 372.00" xmlns="http://www.w3.org/2000/svg" xmlns:xlink="http://www.w3.org/1999/xlink">
<g id="graph0" class="graph" transform="scale(1 1) rotate(0) translate(4 368.25)">
<title>InfoVisJ.459.2.png</title>
<polygon fill="white" stroke="none" points="-4,4 -4,-368.25 841,-368.25 841,4 -4,4"/>
<text xml:space="preserve" text-anchor="start" x="359.25" y="-343.95" font-family="Arial" font-weight="bold" font-size="14.00">InfoVisJ.459.2.png</text>
<text xml:space="preserve" text-anchor="start" x="376.12" y="-324" font-family="Arial" font-size="11.00">Grid &#160;| &#160;VC = 0.65</text>
<path fill="#b8e6b8" stroke="none" d="M209.12,-299C209.12,-299 217.12,-299 217.12,-299 220.12,-299 223.12,-302 223.12,-305 223.12,-305 223.12,-311 223.12,-311 223.12,-314 220.12,-317 217.12,-317 217.12,-317 209.12,-317 209.12,-317 206.12,-317 203.12,-314 203.12,-311 203.12,-311 203.12,-305 203.12,-305 203.12,-302 206.12,-299 209.12,-299"/>
<path fill="none" stroke="black" d="M209.12,-299C209.12,-299 217.12,-299 217.12,-299 220.12,-299 223.12,-302 223.12,-305 223.12,-305 223.12,-311 223.12,-311 223.12,-314 220.12,-317 217.12,-317 217.12,-317 209.12,-317 209.12,-317 206.12,-317 203.12,-314 203.12,-311 203.12,-311 203.12,-305 203.12,-305 203.12,-302 206.12,-299 209.12,-299"/>
<text xml:space="preserve" text-anchor="start" x="211.62" y="-304.25" font-family="Arial" font-size="10.00"> </text>
<text xml:space="preserve" text-anchor="start" x="227.12" y="-304.25" font-family="Arial" font-size="10.00">Object</text>
<path fill="#c7b8e6" stroke="none" d="M265.62,-299C265.62,-299 273.62,-299 273.62,-299 276.62,-299 279.62,-302 279.62,-305 279.62,-305 279.62,-311 279.62,-311 279.62,-314 276.62,-317 273.62,-317 273.62,-317 265.62,-317 265.62,-317 262.62,-317 259.62,-314 259.62,-311 259.62,-311 259.62,-305 259.62,-305 259.62,-302 262.62,-299 265.62,-299"/>
<path fill="none" stroke="black" d="M265.62,-299C265.62,-299 273.62,-299 273.62,-299 276.62,-299 279.62,-302 279.62,-305 279.62,-305 279.62,-311 279.62,-311 279.62,-314 276.62,-317 273.62,-317 273.62,-317 265.62,-317 265.62,-317 262.62,-317 259.62,-314 259.62,-311 259.62,-311 259.62,-305 259.62,-305 259.62,-302 262.62,-299 265.62,-299"/>
<text xml:space="preserve" text-anchor="start" x="268.12" y="-304.25" font-family="Arial" font-size="10.00"> </text>
<text xml:space="preserve" text-anchor="start" x="283.62" y="-304.25" font-family="Arial" font-size="10.00">Attribute</text>
<path fill="#f5b8b8" stroke="none" d="M330.38,-299C330.38,-299 338.38,-299 338.38,-299 341.38,-299 344.38,-302 344.38,-305 344.38,-305 344.38,-311 344.38,-311 344.38,-314 341.38,-317 338.38,-317 338.38,-317 330.38,-317 330.38,-317 327.38,-317 324.38,-314 324.38,-311 324.38,-311 324.38,-305 324.38,-305 324.38,-302 327.38,-299 330.38,-299"/>
<path fill="none" stroke="black" d="M330.38,-299C330.38,-299 338.38,-299 338.38,-299 341.38,-299 344.38,-302 344.38,-305 344.38,-305 344.38,-311 344.38,-311 344.38,-314 341.38,-317 338.38,-317 338.38,-317 330.38,-317 330.38,-317 327.38,-317 324.38,-314 324.38,-311 324.38,-311 324.38,-305 324.38,-305 324.38,-302 327.38,-299 330.38,-299"/>
<text xml:space="preserve" text-anchor="start" x="332.88" y="-304.25" font-family="Arial" font-size="10.00"> </text>
<text xml:space="preserve" text-anchor="start" x="348.38" y="-304.25" font-family="Arial" font-size="10.00">Relationship</text>
<text xml:space="preserve" text-anchor="start" x="408.38" y="-305.5" font-family="Arial" font-weight="bold" font-size="10.00">(+)</text>
<text xml:space="preserve" text-anchor="start" x="420.38" y="-305.5" font-family="Arial" font-size="10.00"> increases complexity</text>
<text xml:space="preserve" text-anchor="start" x="521.62" y="-305.5" font-family="Arial" font-weight="bold" font-size="10.00">(−)</text>
<text xml:space="preserve" text-anchor="start" x="533.62" y="-305.5" font-family="Arial" font-size="10.00"> decreases complexity</text>
<!-- structure.grid -->
<g id="node1" class="node">
<title>structure.grid</title>
<path fill="#b8e6b8" stroke="#2c3e50" stroke-width="1.8" d="M42,-131C42,-131 12,-131 12,-131 6,-131 0,-125 0,-119 0,-119 0,-107 0,-107 0,-101 6,-95 12,-95 12,-95 42,-95 42,-95 48,-95 54,-101 54,-107 54,-107 54,-119 54,-119 54,-125 48,-131 42,-131"/>
<text xml:space="preserve" text-anchor="middle" x="27" y="-109.5" font-family="Arial" font-size="10.00" fill="#1a1a1a">grid</text>
</g>
<!-- attr_0 -->
<g id="node6" class="node">
<title>attr_0</title>
<path fill="#c7b8e6" stroke="#7f8c8d" stroke-width="1.2" d="M228.5,-163C228.5,-163 109,-163 109,-163 103,-163 97,-157 97,-151 97,-151 97,-139 97,-139 97,-133 103,-127 109,-127 109,-127 228.5,-127 228.5,-127 234.5,-127 240.5,-133 240.5,-139 240.5,-139 240.5,-151 240.5,-151 240.5,-157 234.5,-163 228.5,-163"/>
<text xml:space="preserve" text-anchor="middle" x="168.75" y="-141.5" font-family="Arial" font-size="10.00" fill="#1a1a1a">(+) requires focused attention</text>
</g>
<!-- structure.grid&#45;&gt;attr_0 -->
<g id="edge1" class="edge">
<title>structure.grid&#45;&gt;attr_0</title>
<path fill="none" stroke="#aaaaaa" d="M54.61,-119.09C64.49,-121.36 76.26,-124.05 88.43,-126.84"/>
<polygon fill="#aaaaaa" stroke="#aaaaaa" points="87.62,-129.16 94.99,-128.34 88.71,-124.39 87.62,-129.16"/>
</g>
<!-- rel_0 -->
<g id="node11" class="node">
<title>rel_0</title>
<path fill="#f5b8b8" stroke="#d46a6a" stroke-width="1.2" d="M191,-98C191,-98 146.5,-98 146.5,-98 140.5,-98 134.5,-92 134.5,-86 134.5,-86 134.5,-74 134.5,-74 134.5,-68 140.5,-62 146.5,-62 146.5,-62 191,-62 191,-62 197,-62 203,-68 203,-74 203,-74 203,-86 203,-86 203,-92 197,-98 191,-98"/>
<text xml:space="preserve" text-anchor="middle" x="168.75" y="-76.5" font-family="Arial" font-size="10.00" fill="#8b0000">overwhelms</text>
</g>
<!-- structure.grid&#45;&gt;rel_0 -->
<g id="edge6" class="edge">
<title>structure.grid&#45;&gt;rel_0</title>
<path fill="none" stroke="#d46a6a" stroke-width="1.5" d="M54.61,-106.72C74.28,-102.07 101.47,-95.65 124.27,-90.27"/>
<polygon fill="#d46a6a" stroke="#d46a6a" stroke-width="1.5" points="124.71,-93.04 131.85,-88.48 123.42,-87.59 124.71,-93.04"/>
</g>
<!-- structure.cell -->
<g id="node2" class="node">
<title>structure.cell</title>
<path fill="#b8e6b8" stroke="#2c3e50" stroke-width="1.8" d="M42,-260C42,-260 12,-260 12,-260 6,-260 0,-254 0,-248 0,-248 0,-236 0,-236 0,-230 6,-224 12,-224 12,-224 42,-224 42,-224 48,-224 54,-230 54,-236 54,-236 54,-248 54,-248 54,-254 48,-260 42,-260"/>
<text xml:space="preserve" text-anchor="middle" x="27" y="-238.5" font-family="Arial" font-size="10.00" fill="#1a1a1a">cell</text>
</g>
<!-- attr_1 -->
<g id="node7" class="node">
<title>attr_1</title>
<path fill="#c7b8e6" stroke="#7f8c8d" stroke-width="1.2" d="M214.25,-293C214.25,-293 123.25,-293 123.25,-293 117.25,-293 111.25,-287 111.25,-281 111.25,-281 111.25,-269 111.25,-269 111.25,-263 117.25,-257 123.25,-257 123.25,-257 214.25,-257 214.25,-257 220.25,-257 226.25,-263 226.25,-269 226.25,-269 226.25,-281 226.25,-281 226.25,-287 220.25,-293 214.25,-293"/>
<text xml:space="preserve" text-anchor="middle" x="168.75" y="-271.5" font-family="Arial" font-size="10.00" fill="#1a1a1a">(+) dense packed cells</text>
</g>
<!-- structure.cell&#45;&gt;attr_1 -->
<g id="edge2" class="edge">
<title>structure.cell&#45;&gt;attr_1</title>
<path fill="none" stroke="#aaaaaa" d="M54.61,-248.28C68.29,-251.51 85.62,-255.61 102.58,-259.61"/>
<polygon fill="#aaaaaa" stroke="#aaaaaa" points="102,-261.99 109.38,-261.22 103.13,-257.22 102,-261.99"/>
</g>
<!-- rel_2 -->
<g id="node13" class="node">
<title>rel_2</title>
<path fill="#f5b8b8" stroke="#d46a6a" stroke-width="1.2" d="M209,-228C209,-228 128.5,-228 128.5,-228 122.5,-228 116.5,-222 116.5,-216 116.5,-216 116.5,-204 116.5,-204 116.5,-198 122.5,-192 128.5,-192 128.5,-192 209,-192 209,-192 215,-192 221,-198 221,-204 221,-204 221,-216 221,-216 221,-222 215,-228 209,-228"/>
<text xml:space="preserve" text-anchor="middle" x="168.75" y="-206.5" font-family="Arial" font-size="10.00" fill="#8b0000">demands scrutiny of</text>
</g>
<!-- structure.cell&#45;&gt;rel_2 -->
<g id="edge10" class="edge">
<title>structure.cell&#45;&gt;rel_2</title>
<path fill="none" stroke="#d46a6a" stroke-width="1.5" d="M54.61,-235.91C69.25,-232.55 88.06,-228.25 106.12,-224.11"/>
<polygon fill="#d46a6a" stroke="#d46a6a" stroke-width="1.5" points="106.66,-226.86 113.83,-222.35 105.41,-221.4 106.66,-226.86"/>
</g>
<!-- unknown.visual_encoding -->
<g id="node3" class="node">
<title>unknown.visual_encoding</title>
<path fill="#b8e6b8" stroke="#2c3e50" stroke-width="1.8" d="M355,-98C355,-98 295.5,-98 295.5,-98 289.5,-98 283.5,-92 283.5,-86 283.5,-86 283.5,-74 283.5,-74 283.5,-68 289.5,-62 295.5,-62 295.5,-62 355,-62 355,-62 361,-62 367,-68 367,-74 367,-74 367,-86 367,-86 367,-92 361,-98 355,-98"/>
<text xml:space="preserve" text-anchor="middle" x="325.25" y="-76.5" font-family="Arial" font-size="10.00" fill="#1a1a1a">visual encoding</text>
</g>
<!-- attr_2 -->
<g id="node8" class="node">
<title>attr_2</title>
<path fill="#c7b8e6" stroke="#7f8c8d" stroke-width="1.2" d="M535.5,-163C535.5,-163 434,-163 434,-163 428,-163 422,-157 422,-151 422,-151 422,-139 422,-139 422,-133 428,-127 434,-127 434,-127 535.5,-127 535.5,-127 541.5,-127 547.5,-133 547.5,-139 547.5,-139 547.5,-151 547.5,-151 547.5,-157 541.5,-163 535.5,-163"/>
<text xml:space="preserve" text-anchor="middle" x="484.75" y="-141.5" font-family="Arial" font-size="10.00" fill="#1a1a1a">(+) non intuitive encoding</text>
</g>
<!-- unknown.visual_encoding&#45;&gt;attr_2 -->
<g id="edge3" class="edge">
<title>unknown.visual_encoding&#45;&gt;attr_2</title>
<path fill="none" stroke="#aaaaaa" d="M367.63,-97.08C387.03,-105.08 410.36,-114.71 431.01,-123.23"/>
<polygon fill="#aaaaaa" stroke="#aaaaaa" points="429.97,-125.46 437.38,-125.86 431.84,-120.93 429.97,-125.46"/>
</g>
<!-- rel_1 -->
<g id="node12" class="node">
<title>rel_1</title>
<path fill="#f5b8b8" stroke="#d46a6a" stroke-width="1.2" d="M526.5,-98C526.5,-98 443,-98 443,-98 437,-98 431,-92 431,-86 431,-86 431,-74 431,-74 431,-68 437,-62 443,-62 443,-62 526.5,-62 526.5,-62 532.5,-62 538.5,-68 538.5,-74 538.5,-74 538.5,-86 538.5,-86 538.5,-92 532.5,-98 526.5,-98"/>
<text xml:space="preserve" text-anchor="middle" x="484.75" y="-76.5" font-family="Arial" font-size="10.00" fill="#8b0000">requires expertise for</text>
</g>
<!-- unknown.visual_encoding&#45;&gt;rel_1 -->
<g id="edge8" class="edge">
<title>unknown.visual_encoding&#45;&gt;rel_1</title>
<path fill="none" stroke="#d46a6a" stroke-width="1.5" d="M367.63,-80C383.86,-80 402.84,-80 420.7,-80"/>
<polygon fill="#d46a6a" stroke="#d46a6a" stroke-width="1.5" points="420.21,-82.8 428.21,-80 420.21,-77.2 420.21,-82.8"/>
</g>
<!-- structure.layout -->
<g id="node4" class="node">
<title>structure.layout</title>
<path fill="#b8e6b8" stroke="#2c3e50" stroke-width="1.8" d="M644.5,-98C644.5,-98 614.5,-98 614.5,-98 608.5,-98 602.5,-92 602.5,-86 602.5,-86 602.5,-74 602.5,-74 602.5,-68 608.5,-62 614.5,-62 614.5,-62 644.5,-62 644.5,-62 650.5,-62 656.5,-68 656.5,-74 656.5,-74 656.5,-86 656.5,-86 656.5,-92 650.5,-98 644.5,-98"/>
<text xml:space="preserve" text-anchor="middle" x="629.5" y="-76.5" font-family="Arial" font-size="10.00" fill="#1a1a1a">layout</text>
</g>
<!-- attr_3 -->
<g id="node9" class="node">
<title>attr_3</title>
<path fill="#c7b8e6" stroke="#7f8c8d" stroke-width="1.2" d="M825,-101C825,-101 711.5,-101 711.5,-101 705.5,-101 699.5,-95 699.5,-89 699.5,-89 699.5,-77 699.5,-77 699.5,-71 705.5,-65 711.5,-65 711.5,-65 825,-65 825,-65 831,-65 837,-71 837,-77 837,-77 837,-89 837,-89 837,-95 831,-101 825,-101"/>
<text xml:space="preserve" text-anchor="middle" x="768.25" y="-79.5" font-family="Arial" font-size="10.00" fill="#1a1a1a">(+) complex visual structure</text>
</g>
<!-- structure.layout&#45;&gt;attr_3 -->
<g id="edge4" class="edge">
<title>structure.layout&#45;&gt;attr_3</title>
<path fill="none" stroke="#aaaaaa" d="M657.19,-80.59C666.98,-80.8 678.61,-81.06 690.59,-81.32"/>
<polygon fill="#aaaaaa" stroke="#aaaaaa" points="690.35,-83.76 697.4,-81.47 690.46,-78.86 690.35,-83.76"/>
</g>
<!-- rel_3 -->
<g id="node14" class="node">
<title>rel_3</title>
<path fill="#f5b8b8" stroke="#d46a6a" stroke-width="1.2" d="M784.12,-36C784.12,-36 752.38,-36 752.38,-36 746.38,-36 740.38,-30 740.38,-24 740.38,-24 740.38,-12 740.38,-12 740.38,-6 746.38,0 752.38,0 752.38,0 784.12,0 784.12,0 790.12,0 796.12,-6 796.12,-12 796.12,-12 796.12,-24 796.12,-24 796.12,-30 790.12,-36 784.12,-36"/>
<text xml:space="preserve" text-anchor="middle" x="768.25" y="-14.5" font-family="Arial" font-size="10.00" fill="#8b0000">obscures</text>
</g>
<!-- structure.layout&#45;&gt;rel_3 -->
<g id="edge12" class="edge">
<title>structure.layout&#45;&gt;rel_3</title>
<path fill="none" stroke="#d46a6a" stroke-width="1.5" d="M657.19,-67.9C678.23,-58.36 707.79,-44.96 730.98,-34.45"/>
<polygon fill="#d46a6a" stroke="#d46a6a" stroke-width="1.5" points="731.96,-37.07 738.09,-31.22 729.65,-31.97 731.96,-37.07"/>
</g>
<!-- text.annotation -->
<g id="node5" class="node">
<title>text.annotation</title>
<path fill="#b8e6b8" stroke="#2c3e50" stroke-width="1.8" d="M343.75,-228C343.75,-228 306.75,-228 306.75,-228 300.75,-228 294.75,-222 294.75,-216 294.75,-216 294.75,-204 294.75,-204 294.75,-198 300.75,-192 306.75,-192 306.75,-192 343.75,-192 343.75,-192 349.75,-192 355.75,-198 355.75,-204 355.75,-204 355.75,-216 355.75,-216 355.75,-222 349.75,-228 343.75,-228"/>
<text xml:space="preserve" text-anchor="middle" x="325.25" y="-206.5" font-family="Arial" font-size="10.00" fill="#1a1a1a">annotation</text>
</g>
<!-- attr_4 -->
<g id="node10" class="node">
<title>attr_4</title>
<path fill="#c7b8e6" stroke="#7f8c8d" stroke-width="1.2" d="M547.5,-228C547.5,-228 422,-228 422,-228 416,-228 410,-222 410,-216 410,-216 410,-204 410,-204 410,-198 416,-192 422,-192 422,-192 547.5,-192 547.5,-192 553.5,-192 559.5,-198 559.5,-204 559.5,-204 559.5,-216 559.5,-216 559.5,-222 553.5,-228 547.5,-228"/>
<text xml:space="preserve" text-anchor="middle" x="484.75" y="-206.5" font-family="Arial" font-size="10.00" fill="#1a1a1a">(+) insufficient contextual cues</text>
</g>
<!-- text.annotation&#45;&gt;attr_4 -->
<g id="edge5" class="edge">
<title>text.annotation&#45;&gt;attr_4</title>
<path fill="none" stroke="#aaaaaa" d="M356.62,-210C369.56,-210 385.34,-210 401.33,-210"/>
<polygon fill="#aaaaaa" stroke="#aaaaaa" points="401.18,-212.45 408.18,-210 401.18,-207.55 401.18,-212.45"/>
</g>
<!-- rel_0&#45;&gt;unknown.visual_encoding -->
<g id="edge7" class="edge">
<title>rel_0&#45;&gt;unknown.visual_encoding</title>
<path fill="none" stroke="#d46a6a" stroke-width="1.5" d="M203.27,-80C223.52,-80 249.73,-80 272.58,-80"/>
<polygon fill="#d46a6a" stroke="#d46a6a" stroke-width="1.5" points="272.53,-82.8 280.53,-80 272.53,-77.2 272.53,-82.8"/>
</g>
<!-- rel_1&#45;&gt;structure.layout -->
<g id="edge9" class="edge">
<title>rel_1&#45;&gt;structure.layout</title>
<path fill="none" stroke="#d46a6a" stroke-width="1.5" d="M538.9,-80C556.46,-80 575.59,-80 591.66,-80"/>
<polygon fill="#d46a6a" stroke="#d46a6a" stroke-width="1.5" points="591.45,-82.8 599.45,-80 591.45,-77.2 591.45,-82.8"/>
</g>
<!-- rel_2&#45;&gt;text.annotation -->
<g id="edge11" class="edge">
<title>rel_2&#45;&gt;text.annotation</title>
<path fill="none" stroke="#d46a6a" stroke-width="1.5" d="M221.2,-210C241.64,-210 264.8,-210 283.99,-210"/>
<polygon fill="#d46a6a" stroke="#d46a6a" stroke-width="1.5" points="283.92,-212.8 291.92,-210 283.92,-207.2 283.92,-212.8"/>
</g>
<!-- rel_3&#45;&gt;unknown.visual_encoding -->
<g id="edge13" class="edge">
<title>rel_3&#45;&gt;unknown.visual_encoding</title>
<path fill="none" stroke="#d46a6a" stroke-width="1.5" d="M739.94,-17.51C679.59,-17 530.62,-18.99 410,-47 398.81,-49.6 387.15,-53.42 376.2,-57.56"/>
<polygon fill="#d46a6a" stroke="#d46a6a" stroke-width="1.5" points="375.34,-54.89 368.91,-60.42 377.38,-60.1 375.34,-54.89"/>
</g>
</g>
</svg>
