<?xml version="1.0" encoding="UTF-8" standalone="no"?>
<!DOCTYPE svg PUBLIC "-//W3C//DTD SVG 1.1//EN"
 "http://www.w3.org/Graphics/SVG/1.1/DTD/svg11.dtd">
<!-- Generated by graphviz version 14.1.5 (20260411.2331)
 -->
<!-- Title: InfoVisJ.678.17.png Pages: 1 -->
<svg width="873pt" height="375pt"
 viewBox="0.00 0.00 873.00 375.00" xmlns="http://www.w3.org/2000/svg" xmlns:xlink="http://www.w3.org/1999/xlink">
<g id="graph0" class="graph" transform="scale(1 1) rotate(0) translate(4 371.25)">
<title>InfoVisJ.678.17.png</title>
<polygon fill="white" stroke="none" points="-4,4 -4,-371.25 868.5,-371.25 868.5,4 -4,4"/>
<text xml:space="preserve" text-anchor="start" x="369.25" y="-346.95" font-family="Arial" font-weight="bold" font-size="14.00">InfoVisJ.678.17.png</text>
<text xml:space="preserve" text-anchor="start" x="388.38" y="-327" font-family="Arial" font-size="11.00">Area &#160;| &#160;VC = 0.51</text>
<path fill="#b8e6b8" stroke="none" d="M222.88,-302C222.88,-302 230.88,-302 230.88,-302 233.88,-302 236.88,-305 236.88,-308 236.88,-308 236.88,-314 236.88,-314 236.88,-317 233.88,-320 230.88,-320 230.88,-320 222.88,-320 222.88,-320 219.88,-320 216.88,-317 216.88,-314 216.88,-314 216.88,-308 216.88,-308 216.88,-305 219.88,-302 222.88,-302"/>
<path fill="none" stroke="black" d="M222.88,-302C222.88,-302 230.88,-302 230.88,-302 233.88,-302 236.88,-305 236.88,-308 236.88,-308 236.88,-314 236.88,-314 236.88,-317 233.88,-320 230.88,-320 230.88,-320 222.88,-320 222.88,-320 219.88,-320 216.88,-317 216.88,-314 216.88,-314 216.88,-308 216.88,-308 216.88,-305 219.88,-302 222.88,-302"/>
<text xml:space="preserve" text-anchor="start" x="225.38" y="-307.25" font-family="Arial" font-size="10.00"> </text>
<text xml:space="preserve" text-anchor="start" x="240.88" y="-307.25" font-family="Arial" font-size="10.00">Object</text>
<path fill="#c7b8e6" stroke="none" d="M279.38,-302C279.38,-302 287.38,-302 287.38,-302 290.38,-302 293.38,-305 293.38,-308 293.38,-308 293.38,-314 293.38,-314 293.38,-317 290.38,-320 287.38,-320 287.38,-320 279.38,-320 279.38,-320 276.38,-320 273.38,-317 273.38,-314 273.38,-314 273.38,-308 273.38,-308 273.38,-305 276.38,-302 279.38,-302"/>
<path fill="none" stroke="black" d="M279.38,-302C279.38,-302 287.38,-302 287.38,-302 290.38,-302 293.38,-305 293.38,-308 293.38,-308 293.38,-314 293.38,-314 293.38,-317 290.38,-320 287.38,-320 287.38,-320 279.38,-320 279.38,-320 276.38,-320 273.38,-317 273.38,-314 273.38,-314 273.38,-308 273.38,-308 273.38,-305 276.38,-302 279.38,-302"/>
<text xml:space="preserve" text-anchor="start" x="281.88" y="-307.25" font-family="Arial" font-size="10.00"> </text>
<text xml:space="preserve" text-anchor="start" x="297.38" y="-307.25" font-family="Arial" font-size="10.00">Attribute</text>
<path fill="#f5b8b8" stroke="none" d="M344.12,-302C344.12,-302 352.12,-302 352.12,-302 355.12,-302 358.12,-305 358.12,-308 358.12,-308 358.12,-314 358.12,-314 358.12,-317 355.12,-320 352.12,-320 352.12,-320 344.12,-320 344.12,-320 341.12,-320 338.12,-317 338.12,-314 338.12,-314 338.12,-308 338.12,-308 338.12,-305 341.12,-302 344.12,-302"/>
<path fill="none" stroke="black" d="M344.12,-302C344.12,-302 352.12,-302 352.12,-302 355.12,-302 358.12,-305 358.12,-308 358.12,-308 358.12,-314 358.12,-314 358.12,-317 355.12,-320 352.12,-320 352.12,-320 344.12,-320 344.12,-320 341.12,-320 338.12,-317 338.12,-314 338.12,-314 338.12,-308 338.12,-308 338.12,-305 341.12,-302 344.12,-302"/>
<text xml:space="preserve" text-anchor="start" x="346.62" y="-307.25" font-family="Arial" font-size="10.00"> </text>
<text xml:space="preserve" text-anchor="start" x="362.12" y="-307.25" font-family="Arial" font-size="10.00">Relationship</text>
<text xml:space="preserve" text-anchor="start" x="422.12" y="-308.5" font-family="Arial" font-weight="bold" font-size="10.00">(+)</text>
<text xml:space="preserve" text-anchor="start" x="434.12" y="-308.5" font-family="Arial" font-size="10.00"> increases complexity</text>
<text xml:space="preserve" text-anchor="start" x="535.38" y="-308.5" font-family="Arial" font-weight="bold" font-size="10.00">(−)</text>
<text xml:space="preserve" text-anchor="start" x="547.38" y="-308.5" font-family="Arial" font-size="10.00"> decreases complexity</text>
<!-- unknown.area_layers -->
<g id="node1" class="node">
<title>unknown.area_layers</title>
<path fill="#b8e6b8" stroke="#2c3e50" stroke-width="1.8" d="M357.5,-263C357.5,-263 317.5,-263 317.5,-263 311.5,-263 305.5,-257 305.5,-251 305.5,-251 305.5,-239 305.5,-239 305.5,-233 311.5,-227 317.5,-227 317.5,-227 357.5,-227 357.5,-227 363.5,-227 369.5,-233 369.5,-239 369.5,-239 369.5,-251 369.5,-251 369.5,-257 363.5,-263 357.5,-263"/>
<text xml:space="preserve" text-anchor="middle" x="337.5" y="-241.5" font-family="Arial" font-size="10.00" fill="#1a1a1a">area layers</text>
</g>
<!-- attr_0 -->
<g id="node5" class="node">
<title>attr_0</title>
<path fill="#c7b8e6" stroke="#7f8c8d" stroke-width="1.2" d="M542.5,-296C542.5,-296 424.5,-296 424.5,-296 418.5,-296 412.5,-290 412.5,-284 412.5,-284 412.5,-272 412.5,-272 412.5,-266 418.5,-260 424.5,-260 424.5,-260 542.5,-260 542.5,-260 548.5,-260 554.5,-266 554.5,-272 554.5,-272 554.5,-284 554.5,-284 554.5,-290 548.5,-296 542.5,-296"/>
<text xml:space="preserve" text-anchor="middle" x="483.5" y="-274.5" font-family="Arial" font-size="10.00" fill="#1a1a1a">(−) layered overlapping areas</text>
</g>
<!-- unknown.area_layers&#45;&gt;attr_0 -->
<g id="edge1" class="edge">
<title>unknown.area_layers&#45;&gt;attr_0</title>
<path fill="none" stroke="#aaaaaa" d="M370.1,-252.24C380.19,-254.55 391.85,-257.23 403.75,-259.95"/>
<polygon fill="#aaaaaa" stroke="#aaaaaa" points="403.17,-262.33 410.54,-261.51 404.26,-257.56 403.17,-262.33"/>
</g>
<!-- rel_0 -->
<g id="node10" class="node">
<title>rel_0</title>
<path fill="#f5b8b8" stroke="#d46a6a" stroke-width="1.2" d="M502.38,-231C502.38,-231 464.62,-231 464.62,-231 458.62,-231 452.62,-225 452.62,-219 452.62,-219 452.62,-207 452.62,-207 452.62,-201 458.62,-195 464.62,-195 464.62,-195 502.38,-195 502.38,-195 508.38,-195 514.38,-201 514.38,-207 514.38,-207 514.38,-219 514.38,-219 514.38,-225 508.38,-231 502.38,-231"/>
<text xml:space="preserve" text-anchor="middle" x="483.5" y="-209.5" font-family="Arial" font-size="10.00" fill="#8b0000">reduces to</text>
</g>
<!-- unknown.area_layers&#45;&gt;rel_0 -->
<g id="edge6" class="edge">
<title>unknown.area_layers&#45;&gt;rel_0</title>
<path fill="none" stroke="#d46a6a" stroke-width="1.5" d="M370.1,-237.98C391.45,-233.23 419.8,-226.93 442.69,-221.85"/>
<polygon fill="#d46a6a" stroke="#d46a6a" stroke-width="1.5" points="443.03,-224.64 450.23,-220.17 441.82,-219.17 443.03,-224.64"/>
</g>
<!-- whole.visualization -->
<g id="node2" class="node">
<title>whole.visualization</title>
<path fill="#b8e6b8" stroke="#2c3e50" stroke-width="1.8" d="M352.5,-101C352.5,-101 322.5,-101 322.5,-101 316.5,-101 310.5,-95 310.5,-89 310.5,-89 310.5,-77 310.5,-77 310.5,-71 316.5,-65 322.5,-65 322.5,-65 352.5,-65 352.5,-65 358.5,-65 364.5,-71 364.5,-77 364.5,-77 364.5,-89 364.5,-89 364.5,-95 358.5,-101 352.5,-101"/>
<text xml:space="preserve" text-anchor="middle" x="337.5" y="-79.5" font-family="Arial" font-size="10.00" fill="#1a1a1a">chart</text>
</g>
<!-- attr_1 -->
<g id="node6" class="node">
<title>attr_1</title>
<path fill="#c7b8e6" stroke="#7f8c8d" stroke-width="1.2" d="M533.12,-166C533.12,-166 433.88,-166 433.88,-166 427.88,-166 421.88,-160 421.88,-154 421.88,-154 421.88,-142 421.88,-142 421.88,-136 427.88,-130 433.88,-130 433.88,-130 533.12,-130 533.12,-130 539.12,-130 545.12,-136 545.12,-142 545.12,-142 545.12,-154 545.12,-154 545.12,-160 539.12,-166 533.12,-166"/>
<text xml:space="preserve" text-anchor="middle" x="483.5" y="-144.5" font-family="Arial" font-size="10.00" fill="#1a1a1a">(−) single unified percept</text>
</g>
<!-- whole.visualization&#45;&gt;attr_1 -->
<g id="edge2" class="edge">
<title>whole.visualization&#45;&gt;attr_1</title>
<path fill="none" stroke="#aaaaaa" d="M365.25,-95.07C384.47,-103.75 410.92,-115.69 433.84,-126.03"/>
<polygon fill="#aaaaaa" stroke="#aaaaaa" points="432.69,-128.2 440.08,-128.85 434.7,-123.74 432.69,-128.2"/>
</g>
<!-- attr_4 -->
<g id="node7" class="node">
<title>attr_4</title>
<path fill="#c7b8e6" stroke="#7f8c8d" stroke-width="1.2" d="M522.25,-101C522.25,-101 444.75,-101 444.75,-101 438.75,-101 432.75,-95 432.75,-89 432.75,-89 432.75,-77 432.75,-77 432.75,-71 438.75,-65 444.75,-65 444.75,-65 522.25,-65 522.25,-65 528.25,-65 534.25,-71 534.25,-77 534.25,-77 534.25,-89 534.25,-89 534.25,-95 528.25,-101 522.25,-101"/>
<text xml:space="preserve" text-anchor="middle" x="483.5" y="-79.5" font-family="Arial" font-size="10.00" fill="#1a1a1a">(−) easy to interpret</text>
</g>
<!-- whole.visualization&#45;&gt;attr_4 -->
<g id="edge3" class="edge">
<title>whole.visualization&#45;&gt;attr_4</title>
<path fill="none" stroke="#aaaaaa" d="M365.25,-83C381.76,-83 403.62,-83 423.98,-83"/>
<polygon fill="#aaaaaa" stroke="#aaaaaa" points="423.78,-85.45 430.78,-83 423.78,-80.55 423.78,-85.45"/>
</g>
<!-- rel_1 -->
<g id="node11" class="node">
<title>rel_1</title>
<path fill="#f5b8b8" stroke="#d46a6a" stroke-width="1.2" d="M527.5,-36C527.5,-36 439.5,-36 439.5,-36 433.5,-36 427.5,-30 427.5,-24 427.5,-24 427.5,-12 427.5,-12 427.5,-6 433.5,0 439.5,0 439.5,0 527.5,0 527.5,0 533.5,0 539.5,-6 539.5,-12 539.5,-12 539.5,-24 539.5,-24 539.5,-30 533.5,-36 527.5,-36"/>
<text xml:space="preserve" text-anchor="middle" x="483.5" y="-14.5" font-family="Arial" font-size="10.00" fill="#8b0000">requires minimal effort</text>
</g>
<!-- whole.visualization&#45;&gt;rel_1 -->
<g id="edge8" class="edge">
<title>whole.visualization&#45;&gt;rel_1</title>
<path fill="none" stroke="#d46a6a" stroke-width="1.5" d="M365.25,-70.93C384.05,-62.44 409.77,-50.83 432.34,-40.64"/>
<polygon fill="#d46a6a" stroke="#d46a6a" stroke-width="1.5" points="433.25,-43.3 439.39,-37.46 430.94,-38.2 433.25,-43.3"/>
</g>
<!-- unknown.visual_element -->
<g id="node3" class="node">
<title>unknown.visual_element</title>
<path fill="#b8e6b8" stroke="#2c3e50" stroke-width="1.8" d="M664.5,-133C664.5,-133 609.5,-133 609.5,-133 603.5,-133 597.5,-127 597.5,-121 597.5,-121 597.5,-109 597.5,-109 597.5,-103 603.5,-97 609.5,-97 609.5,-97 664.5,-97 664.5,-97 670.5,-97 676.5,-103 676.5,-109 676.5,-109 676.5,-121 676.5,-121 676.5,-127 670.5,-133 664.5,-133"/>
<text xml:space="preserve" text-anchor="middle" x="637" y="-111.5" font-family="Arial" font-size="10.00" fill="#1a1a1a">visual element</text>
</g>
<!-- attr_2 -->
<g id="node8" class="node">
<title>attr_2</title>
<path fill="#c7b8e6" stroke="#7f8c8d" stroke-width="1.2" d="M852.5,-133C852.5,-133 731.5,-133 731.5,-133 725.5,-133 719.5,-127 719.5,-121 719.5,-121 719.5,-109 719.5,-109 719.5,-103 725.5,-97 731.5,-97 731.5,-97 852.5,-97 852.5,-97 858.5,-97 864.5,-103 864.5,-109 864.5,-109 864.5,-121 864.5,-121 864.5,-127 858.5,-133 852.5,-133"/>
<text xml:space="preserve" text-anchor="middle" x="792" y="-111.5" font-family="Arial" font-size="10.00" fill="#1a1a1a">(−) minimal discrete elements</text>
</g>
<!-- unknown.visual_element&#45;&gt;attr_2 -->
<g id="edge4" class="edge">
<title>unknown.visual_element&#45;&gt;attr_2</title>
<path fill="none" stroke="#aaaaaa" d="M677,-115C687.33,-115 698.88,-115 710.54,-115"/>
<polygon fill="#aaaaaa" stroke="#aaaaaa" points="710.53,-117.45 717.53,-115 710.53,-112.55 710.53,-117.45"/>
</g>
<!-- unknown.spatial_layout -->
<g id="node4" class="node">
<title>unknown.spatial_layout</title>
<path fill="#b8e6b8" stroke="#2c3e50" stroke-width="1.8" d="M61.75,-133C61.75,-133 12,-133 12,-133 6,-133 0,-127 0,-121 0,-121 0,-109 0,-109 0,-103 6,-97 12,-97 12,-97 61.75,-97 61.75,-97 67.75,-97 73.75,-103 73.75,-109 73.75,-109 73.75,-121 73.75,-121 73.75,-127 67.75,-133 61.75,-133"/>
<text xml:space="preserve" text-anchor="middle" x="36.88" y="-111.5" font-family="Arial" font-size="10.00" fill="#1a1a1a">spatial layout</text>
</g>
<!-- attr_3 -->
<g id="node9" class="node">
<title>attr_3</title>
<path fill="#c7b8e6" stroke="#7f8c8d" stroke-width="1.2" d="M250.5,-166C250.5,-166 128.75,-166 128.75,-166 122.75,-166 116.75,-160 116.75,-154 116.75,-154 116.75,-142 116.75,-142 116.75,-136 122.75,-130 128.75,-130 128.75,-130 250.5,-130 250.5,-130 256.5,-130 262.5,-136 262.5,-142 262.5,-142 262.5,-154 262.5,-154 262.5,-160 256.5,-166 250.5,-166"/>
<text xml:space="preserve" text-anchor="middle" x="189.62" y="-144.5" font-family="Arial" font-size="10.00" fill="#1a1a1a">(−) organized spatial structure</text>
</g>
<!-- unknown.spatial_layout&#45;&gt;attr_3 -->
<g id="edge5" class="edge">
<title>unknown.spatial_layout&#45;&gt;attr_3</title>
<path fill="none" stroke="#aaaaaa" d="M74.37,-122.99C84.7,-125.25 96.38,-127.81 108.23,-130.4"/>
<polygon fill="#aaaaaa" stroke="#aaaaaa" points="107.6,-132.77 114.97,-131.88 108.65,-127.99 107.6,-132.77"/>
</g>
<!-- rel_2 -->
<g id="node12" class="node">
<title>rel_2</title>
<path fill="#f5b8b8" stroke="#d46a6a" stroke-width="1.2" d="M206.25,-101C206.25,-101 173,-101 173,-101 167,-101 161,-95 161,-89 161,-89 161,-77 161,-77 161,-71 167,-65 173,-65 173,-65 206.25,-65 206.25,-65 212.25,-65 218.25,-71 218.25,-77 218.25,-77 218.25,-89 218.25,-89 218.25,-95 212.25,-101 206.25,-101"/>
<text xml:space="preserve" text-anchor="middle" x="189.62" y="-79.5" font-family="Arial" font-size="10.00" fill="#8b0000">simplifies</text>
</g>
<!-- unknown.spatial_layout&#45;&gt;rel_2 -->
<g id="edge10" class="edge">
<title>unknown.spatial_layout&#45;&gt;rel_2</title>
<path fill="none" stroke="#d46a6a" stroke-width="1.5" d="M74.37,-107.25C97.44,-102.36 127.21,-96.04 150.58,-91.08"/>
<polygon fill="#d46a6a" stroke="#d46a6a" stroke-width="1.5" points="151.03,-93.84 158.27,-89.44 149.86,-88.37 151.03,-93.84"/>
</g>
<!-- rel_0&#45;&gt;unknown.visual_element -->
<g id="edge7" class="edge">
<title>rel_0&#45;&gt;unknown.visual_element</title>
<path fill="none" stroke="#d46a6a" stroke-width="1.5" d="M514.64,-201.2C527.32,-195.74 542.01,-188.74 554.5,-181 573.61,-169.16 593.25,-153.39 608.45,-140.23"/>
<polygon fill="#d46a6a" stroke="#d46a6a" stroke-width="1.5" points="610.11,-142.5 614.27,-135.12 606.41,-138.29 610.11,-142.5"/>
</g>
<!-- rel_1&#45;&gt;unknown.visual_element -->
<g id="edge9" class="edge">
<title>rel_1&#45;&gt;unknown.visual_element</title>
<path fill="none" stroke="#d46a6a" stroke-width="1.5" d="M529.41,-36.55C537.94,-40.62 546.64,-45.17 554.5,-50 573.28,-61.54 592.63,-76.81 607.77,-89.65"/>
<polygon fill="#d46a6a" stroke="#d46a6a" stroke-width="1.5" points="605.66,-91.53 613.55,-94.63 609.31,-87.28 605.66,-91.53"/>
</g>
<!-- rel_2&#45;&gt;whole.visualization -->
<g id="edge11" class="edge">
<title>rel_2&#45;&gt;whole.visualization</title>
<path fill="none" stroke="#d46a6a" stroke-width="1.5" d="M218.75,-83C241.79,-83 274.56,-83 299.69,-83"/>
<polygon fill="#d46a6a" stroke="#d46a6a" stroke-width="1.5" points="299.66,-85.8 307.66,-83 299.66,-80.2 299.66,-85.8"/>
</g>
</g>
</svg>
