<?xml version="1.0" encoding="UTF-8" standalone="no"?>
<!DOCTYPE svg PUBLIC "-//W3C//DTD SVG 1.1//EN"
 "http://www.w3.org/Graphics/SVG/1.1/DTD/svg11.dtd">
<!-- Generated by graphviz version 14.1.5 (20260411.2331)
 -->
<!-- Title: InfoVisJ.2556.10.png Pages: 1 -->
<svg width="798pt" height="440pt"
 viewBox="0.00 0.00 798.00 440.00" xmlns="http://www.w3.org/2000/svg" xmlns:xlink="http://www.w3.org/1999/xlink">
<g id="graph0" class="graph" transform="scale(1 1) rotate(0) translate(4 436.25)">
<title>InfoVisJ.2556.10.png</title>
<polygon fill="white" stroke="none" points="-4,4 -4,-436.25 793.75,-436.25 793.75,4 -4,4"/>
<text xml:space="preserve" text-anchor="start" x="328.12" y="-411.95" font-family="Arial" font-weight="bold" font-size="14.00">InfoVisJ.2556.10.png</text>
<text xml:space="preserve" text-anchor="start" x="352.88" y="-392" font-family="Arial" font-size="11.00">Text &#160;| &#160;VC = 0.49</text>
<path fill="#b8e6b8" stroke="none" d="M185.5,-367C185.5,-367 193.5,-367 193.5,-367 196.5,-367 199.5,-370 199.5,-373 199.5,-373 199.5,-379 199.5,-379 199.5,-382 196.5,-385 193.5,-385 193.5,-385 185.5,-385 185.5,-385 182.5,-385 179.5,-382 179.5,-379 179.5,-379 179.5,-373 179.5,-373 179.5,-370 182.5,-367 185.5,-367"/>
<path fill="none" stroke="black" d="M185.5,-367C185.5,-367 193.5,-367 193.5,-367 196.5,-367 199.5,-370 199.5,-373 199.5,-373 199.5,-379 199.5,-379 199.5,-382 196.5,-385 193.5,-385 193.5,-385 185.5,-385 185.5,-385 182.5,-385 179.5,-382 179.5,-379 179.5,-379 179.5,-373 179.5,-373 179.5,-370 182.5,-367 185.5,-367"/>
<text xml:space="preserve" text-anchor="start" x="188" y="-372.25" font-family="Arial" font-size="10.00"> </text>
<text xml:space="preserve" text-anchor="start" x="203.5" y="-372.25" font-family="Arial" font-size="10.00">Object</text>
<path fill="#c7b8e6" stroke="none" d="M242,-367C242,-367 250,-367 250,-367 253,-367 256,-370 256,-373 256,-373 256,-379 256,-379 256,-382 253,-385 250,-385 250,-385 242,-385 242,-385 239,-385 236,-382 236,-379 236,-379 236,-373 236,-373 236,-370 239,-367 242,-367"/>
<path fill="none" stroke="black" d="M242,-367C242,-367 250,-367 250,-367 253,-367 256,-370 256,-373 256,-373 256,-379 256,-379 256,-382 253,-385 250,-385 250,-385 242,-385 242,-385 239,-385 236,-382 236,-379 236,-379 236,-373 236,-373 236,-370 239,-367 242,-367"/>
<text xml:space="preserve" text-anchor="start" x="244.5" y="-372.25" font-family="Arial" font-size="10.00"> </text>
<text xml:space="preserve" text-anchor="start" x="260" y="-372.25" font-family="Arial" font-size="10.00">Attribute</text>
<path fill="#f5b8b8" stroke="none" d="M306.75,-367C306.75,-367 314.75,-367 314.75,-367 317.75,-367 320.75,-370 320.75,-373 320.75,-373 320.75,-379 320.75,-379 320.75,-382 317.75,-385 314.75,-385 314.75,-385 306.75,-385 306.75,-385 303.75,-385 300.75,-382 300.75,-379 300.75,-379 300.75,-373 300.75,-373 300.75,-370 303.75,-367 306.75,-367"/>
<path fill="none" stroke="black" d="M306.75,-367C306.75,-367 314.75,-367 314.75,-367 317.75,-367 320.75,-370 320.75,-373 320.75,-373 320.75,-379 320.75,-379 320.75,-382 317.75,-385 314.75,-385 314.75,-385 306.75,-385 306.75,-385 303.75,-385 300.75,-382 300.75,-379 300.75,-379 300.75,-373 300.75,-373 300.75,-370 303.75,-367 306.75,-367"/>
<text xml:space="preserve" text-anchor="start" x="309.25" y="-372.25" font-family="Arial" font-size="10.00"> </text>
<text xml:space="preserve" text-anchor="start" x="324.75" y="-372.25" font-family="Arial" font-size="10.00">Relationship</text>
<text xml:space="preserve" text-anchor="start" x="384.75" y="-373.5" font-family="Arial" font-weight="bold" font-size="10.00">(+)</text>
<text xml:space="preserve" text-anchor="start" x="396.75" y="-373.5" font-family="Arial" font-size="10.00"> increases complexity</text>
<text xml:space="preserve" text-anchor="start" x="498" y="-373.5" font-family="Arial" font-weight="bold" font-size="10.00">(−)</text>
<text xml:space="preserve" text-anchor="start" x="510" y="-373.5" font-family="Arial" font-size="10.00"> decreases complexity</text>
<!-- text.label -->
<g id="node1" class="node">
<title>text.label</title>
<path fill="#b8e6b8" stroke="#2c3e50" stroke-width="1.8" d="M622,-133C622,-133 592,-133 592,-133 586,-133 580,-127 580,-121 580,-121 580,-109 580,-109 580,-103 586,-97 592,-97 592,-97 622,-97 622,-97 628,-97 634,-103 634,-109 634,-109 634,-121 634,-121 634,-127 628,-133 622,-133"/>
<text xml:space="preserve" text-anchor="middle" x="607" y="-111.5" font-family="Arial" font-size="10.00" fill="#1a1a1a">text</text>
</g>
<!-- attr_0 -->
<g id="node6" class="node">
<title>attr_0</title>
<path fill="#c7b8e6" stroke="#7f8c8d" stroke-width="1.2" d="M777.75,-133C777.75,-133 689,-133 689,-133 683,-133 677,-127 677,-121 677,-121 677,-109 677,-109 677,-103 683,-97 689,-97 689,-97 777.75,-97 777.75,-97 783.75,-97 789.75,-103 789.75,-109 789.75,-109 789.75,-121 789.75,-121 789.75,-127 783.75,-133 777.75,-133"/>
<text xml:space="preserve" text-anchor="middle" x="733.38" y="-111.5" font-family="Arial" font-size="10.00" fill="#1a1a1a">(+) not easily readable</text>
</g>
<!-- text.label&#45;&gt;attr_0 -->
<g id="edge1" class="edge">
<title>text.label&#45;&gt;attr_0</title>
<path fill="none" stroke="#aaaaaa" d="M634.68,-115C644.66,-115 656.46,-115 668.36,-115"/>
<polygon fill="#aaaaaa" stroke="#aaaaaa" points="668.08,-117.45 675.08,-115 668.08,-112.55 668.08,-117.45"/>
</g>
<!-- property.color -->
<g id="node2" class="node">
<title>property.color</title>
<path fill="#b8e6b8" stroke="#2c3e50" stroke-width="1.8" d="M335.5,-296C335.5,-296 305.5,-296 305.5,-296 299.5,-296 293.5,-290 293.5,-284 293.5,-284 293.5,-272 293.5,-272 293.5,-266 299.5,-260 305.5,-260 305.5,-260 335.5,-260 335.5,-260 341.5,-260 347.5,-266 347.5,-272 347.5,-272 347.5,-284 347.5,-284 347.5,-290 341.5,-296 335.5,-296"/>
<text xml:space="preserve" text-anchor="middle" x="320.5" y="-274.5" font-family="Arial" font-size="10.00" fill="#1a1a1a">color</text>
</g>
<!-- attr_1 -->
<g id="node7" class="node">
<title>attr_1</title>
<path fill="#c7b8e6" stroke="#7f8c8d" stroke-width="1.2" d="M521.62,-361C521.62,-361 405.88,-361 405.88,-361 399.88,-361 393.88,-355 393.88,-349 393.88,-349 393.88,-337 393.88,-337 393.88,-331 399.88,-325 405.88,-325 405.88,-325 521.62,-325 521.62,-325 527.62,-325 533.62,-331 533.62,-337 533.62,-337 533.62,-349 533.62,-349 533.62,-355 527.62,-361 521.62,-361"/>
<text xml:space="preserve" text-anchor="middle" x="463.75" y="-339.5" font-family="Arial" font-size="10.00" fill="#1a1a1a">(+) arbitrary color application</text>
</g>
<!-- property.color&#45;&gt;attr_1 -->
<g id="edge2" class="edge">
<title>property.color&#45;&gt;attr_1</title>
<path fill="none" stroke="#aaaaaa" d="M348.28,-291.03C361.03,-297.18 376.51,-304.56 390.5,-311 397.7,-314.31 405.32,-317.76 412.82,-321.11"/>
<polygon fill="#aaaaaa" stroke="#aaaaaa" points="411.48,-323.2 418.87,-323.81 413.47,-318.72 411.48,-323.2"/>
</g>
<!-- attr_2 -->
<g id="node8" class="node">
<title>attr_2</title>
<path fill="#c7b8e6" stroke="#7f8c8d" stroke-width="1.2" d="M522.75,-296C522.75,-296 404.75,-296 404.75,-296 398.75,-296 392.75,-290 392.75,-284 392.75,-284 392.75,-272 392.75,-272 392.75,-266 398.75,-260 404.75,-260 404.75,-260 522.75,-260 522.75,-260 528.75,-260 534.75,-266 534.75,-272 534.75,-272 534.75,-284 534.75,-284 534.75,-290 528.75,-296 522.75,-296"/>
<text xml:space="preserve" text-anchor="middle" x="463.75" y="-274.5" font-family="Arial" font-size="10.00" fill="#1a1a1a">(+) ambiguous color meaning</text>
</g>
<!-- property.color&#45;&gt;attr_2 -->
<g id="edge3" class="edge">
<title>property.color&#45;&gt;attr_2</title>
<path fill="none" stroke="#aaaaaa" d="M348.07,-278C358.43,-278 370.89,-278 383.73,-278"/>
<polygon fill="#aaaaaa" stroke="#aaaaaa" points="383.69,-280.45 390.69,-278 383.69,-275.55 383.69,-280.45"/>
</g>
<!-- rel_0 -->
<g id="node13" class="node">
<title>rel_0</title>
<path fill="#f5b8b8" stroke="#d46a6a" stroke-width="1.2" d="M479.62,-231C479.62,-231 447.88,-231 447.88,-231 441.88,-231 435.88,-225 435.88,-219 435.88,-219 435.88,-207 435.88,-207 435.88,-201 441.88,-195 447.88,-195 447.88,-195 479.62,-195 479.62,-195 485.62,-195 491.62,-201 491.62,-207 491.62,-207 491.62,-219 491.62,-219 491.62,-225 485.62,-231 479.62,-231"/>
<text xml:space="preserve" text-anchor="middle" x="463.75" y="-209.5" font-family="Arial" font-size="10.00" fill="#8b0000">obscures</text>
</g>
<!-- property.color&#45;&gt;rel_0 -->
<g id="edge8" class="edge">
<title>property.color&#45;&gt;rel_0</title>
<path fill="none" stroke="#d46a6a" stroke-width="1.5" d="M348.35,-265.5C361.11,-259.57 376.59,-252.4 390.5,-246 402.05,-240.68 414.65,-234.92 426.05,-229.72"/>
<polygon fill="#d46a6a" stroke="#d46a6a" stroke-width="1.5" points="427.1,-232.31 433.22,-226.44 424.78,-227.21 427.1,-232.31"/>
</g>
<!-- unknown.frame -->
<g id="node3" class="node">
<title>unknown.frame</title>
<path fill="#b8e6b8" stroke="#2c3e50" stroke-width="1.8" d="M47.75,-198C47.75,-198 17.75,-198 17.75,-198 11.75,-198 5.75,-192 5.75,-186 5.75,-186 5.75,-174 5.75,-174 5.75,-168 11.75,-162 17.75,-162 17.75,-162 47.75,-162 47.75,-162 53.75,-162 59.75,-168 59.75,-174 59.75,-174 59.75,-186 59.75,-186 59.75,-192 53.75,-198 47.75,-198"/>
<text xml:space="preserve" text-anchor="middle" x="32.75" y="-176.5" font-family="Arial" font-size="10.00" fill="#1a1a1a">frame</text>
</g>
<!-- attr_3 -->
<g id="node9" class="node">
<title>attr_3</title>
<path fill="#c7b8e6" stroke="#7f8c8d" stroke-width="1.2" d="M238.5,-231C238.5,-231 120.5,-231 120.5,-231 114.5,-231 108.5,-225 108.5,-219 108.5,-219 108.5,-207 108.5,-207 108.5,-201 114.5,-195 120.5,-195 120.5,-195 238.5,-195 238.5,-195 244.5,-195 250.5,-201 250.5,-207 250.5,-207 250.5,-219 250.5,-219 250.5,-225 244.5,-231 238.5,-231"/>
<text xml:space="preserve" text-anchor="middle" x="179.5" y="-209.5" font-family="Arial" font-size="10.00" fill="#1a1a1a">(+) fading unclear boundaries</text>
</g>
<!-- unknown.frame&#45;&gt;attr_3 -->
<g id="edge4" class="edge">
<title>unknown.frame&#45;&gt;attr_3</title>
<path fill="none" stroke="#aaaaaa" d="M60.64,-186.13C72.02,-188.72 85.93,-191.9 100.14,-195.14"/>
<polygon fill="#aaaaaa" stroke="#aaaaaa" points="99.21,-197.44 106.58,-196.6 100.3,-192.66 99.21,-197.44"/>
</g>
<!-- rel_1 -->
<g id="node14" class="node">
<title>rel_1</title>
<path fill="#f5b8b8" stroke="#d46a6a" stroke-width="1.2" d="M227.62,-166C227.62,-166 131.38,-166 131.38,-166 125.38,-166 119.38,-160 119.38,-154 119.38,-154 119.38,-142 119.38,-142 119.38,-136 125.38,-130 131.38,-130 131.38,-130 227.62,-130 227.62,-130 233.62,-130 239.62,-136 239.62,-142 239.62,-142 239.62,-154 239.62,-154 239.62,-160 233.62,-166 227.62,-166"/>
<text xml:space="preserve" text-anchor="middle" x="179.5" y="-144.5" font-family="Arial" font-size="10.00" fill="#8b0000">lacks clear boundary for</text>
</g>
<!-- unknown.frame&#45;&gt;rel_1 -->
<g id="edge10" class="edge">
<title>unknown.frame&#45;&gt;rel_1</title>
<path fill="none" stroke="#d46a6a" stroke-width="1.5" d="M60.64,-174.06C74.5,-170.99 92.11,-167.1 109.47,-163.26"/>
<polygon fill="#d46a6a" stroke="#d46a6a" stroke-width="1.5" points="109.64,-166.09 116.84,-161.63 108.43,-160.62 109.64,-166.09"/>
</g>
<!-- unknown.whitespace -->
<g id="node4" class="node">
<title>unknown.whitespace</title>
<path fill="#b8e6b8" stroke="#2c3e50" stroke-width="1.8" d="M53.5,-69C53.5,-69 12,-69 12,-69 6,-69 0,-63 0,-57 0,-57 0,-45 0,-45 0,-39 6,-33 12,-33 12,-33 53.5,-33 53.5,-33 59.5,-33 65.5,-39 65.5,-45 65.5,-45 65.5,-57 65.5,-57 65.5,-63 59.5,-69 53.5,-69"/>
<text xml:space="preserve" text-anchor="middle" x="32.75" y="-47.5" font-family="Arial" font-size="10.00" fill="#1a1a1a">whitespace</text>
</g>
<!-- attr_4 -->
<g id="node10" class="node">
<title>attr_4</title>
<path fill="#c7b8e6" stroke="#7f8c8d" stroke-width="1.2" d="M232.5,-101C232.5,-101 126.5,-101 126.5,-101 120.5,-101 114.5,-95 114.5,-89 114.5,-89 114.5,-77 114.5,-77 114.5,-71 120.5,-65 126.5,-65 126.5,-65 232.5,-65 232.5,-65 238.5,-65 244.5,-71 244.5,-77 244.5,-77 244.5,-89 244.5,-89 244.5,-95 238.5,-101 232.5,-101"/>
<text xml:space="preserve" text-anchor="middle" x="179.5" y="-79.5" font-family="Arial" font-size="10.00" fill="#1a1a1a">(+) irregular empty spaces</text>
</g>
<!-- unknown.whitespace&#45;&gt;attr_4 -->
<g id="edge5" class="edge">
<title>unknown.whitespace&#45;&gt;attr_4</title>
<path fill="none" stroke="#aaaaaa" d="M66.23,-58.18C78.08,-60.8 92,-63.88 105.93,-66.96"/>
<polygon fill="#aaaaaa" stroke="#aaaaaa" points="105.27,-69.32 112.64,-68.44 106.33,-64.54 105.27,-69.32"/>
</g>
<!-- rel_2 -->
<g id="node15" class="node">
<title>rel_2</title>
<path fill="#f5b8b8" stroke="#d46a6a" stroke-width="1.2" d="M194.5,-36C194.5,-36 164.5,-36 164.5,-36 158.5,-36 152.5,-30 152.5,-24 152.5,-24 152.5,-12 152.5,-12 152.5,-6 158.5,0 164.5,0 164.5,0 194.5,0 194.5,0 200.5,0 206.5,-6 206.5,-12 206.5,-12 206.5,-24 206.5,-24 206.5,-30 200.5,-36 194.5,-36"/>
<text xml:space="preserve" text-anchor="middle" x="179.5" y="-14.5" font-family="Arial" font-size="10.00" fill="#8b0000">disrupts</text>
</g>
<!-- unknown.whitespace&#45;&gt;rel_2 -->
<g id="edge12" class="edge">
<title>unknown.whitespace&#45;&gt;rel_2</title>
<path fill="none" stroke="#d46a6a" stroke-width="1.5" d="M66.23,-43.59C88.74,-38.46 118.74,-31.62 142.06,-26.31"/>
<polygon fill="#d46a6a" stroke="#d46a6a" stroke-width="1.5" points="142.54,-29.07 149.72,-24.56 141.3,-23.61 142.54,-29.07"/>
</g>
<!-- structure.layout -->
<g id="node5" class="node">
<title>structure.layout</title>
<path fill="#b8e6b8" stroke="#2c3e50" stroke-width="1.8" d="M335.5,-101C335.5,-101 305.5,-101 305.5,-101 299.5,-101 293.5,-95 293.5,-89 293.5,-89 293.5,-77 293.5,-77 293.5,-71 299.5,-65 305.5,-65 305.5,-65 335.5,-65 335.5,-65 341.5,-65 347.5,-71 347.5,-77 347.5,-77 347.5,-89 347.5,-89 347.5,-95 341.5,-101 335.5,-101"/>
<text xml:space="preserve" text-anchor="middle" x="320.5" y="-79.5" font-family="Arial" font-size="10.00" fill="#1a1a1a">layout</text>
</g>
<!-- attr_5 -->
<g id="node11" class="node">
<title>attr_5</title>
<path fill="#c7b8e6" stroke="#7f8c8d" stroke-width="1.2" d="M509.62,-166C509.62,-166 417.88,-166 417.88,-166 411.88,-166 405.88,-160 405.88,-154 405.88,-154 405.88,-142 405.88,-142 405.88,-136 411.88,-130 417.88,-130 417.88,-130 509.62,-130 509.62,-130 515.62,-130 521.62,-136 521.62,-142 521.62,-142 521.62,-154 521.62,-154 521.62,-160 515.62,-166 509.62,-166"/>
<text xml:space="preserve" text-anchor="middle" x="463.75" y="-144.5" font-family="Arial" font-size="10.00" fill="#1a1a1a">(+) no design regularity</text>
</g>
<!-- structure.layout&#45;&gt;attr_5 -->
<g id="edge6" class="edge">
<title>structure.layout&#45;&gt;attr_5</title>
<path fill="none" stroke="#aaaaaa" d="M348.28,-96.03C361.03,-102.18 376.51,-109.56 390.5,-116 397.7,-119.31 405.32,-122.76 412.82,-126.11"/>
<polygon fill="#aaaaaa" stroke="#aaaaaa" points="411.48,-128.2 418.87,-128.81 413.47,-123.72 411.48,-128.2"/>
</g>
<!-- attr_6 -->
<g id="node12" class="node">
<title>attr_6</title>
<path fill="#c7b8e6" stroke="#7f8c8d" stroke-width="1.2" d="M525,-101C525,-101 402.5,-101 402.5,-101 396.5,-101 390.5,-95 390.5,-89 390.5,-89 390.5,-77 390.5,-77 390.5,-71 396.5,-65 402.5,-65 402.5,-65 525,-65 525,-65 531,-65 537,-71 537,-77 537,-77 537,-89 537,-89 537,-95 531,-101 525,-101"/>
<text xml:space="preserve" text-anchor="middle" x="463.75" y="-79.5" font-family="Arial" font-size="10.00" fill="#1a1a1a">(+) messy confusing structure</text>
</g>
<!-- structure.layout&#45;&gt;attr_6 -->
<g id="edge7" class="edge">
<title>structure.layout&#45;&gt;attr_6</title>
<path fill="none" stroke="#aaaaaa" d="M348.07,-83C357.87,-83 369.56,-83 381.67,-83"/>
<polygon fill="#aaaaaa" stroke="#aaaaaa" points="381.59,-85.45 388.59,-83 381.59,-80.55 381.59,-85.45"/>
</g>
<!-- rel_3 -->
<g id="node16" class="node">
<title>rel_3</title>
<path fill="#f5b8b8" stroke="#d46a6a" stroke-width="1.2" d="M509.62,-36C509.62,-36 417.88,-36 417.88,-36 411.88,-36 405.88,-30 405.88,-24 405.88,-24 405.88,-12 405.88,-12 405.88,-6 411.88,0 417.88,0 417.88,0 509.62,0 509.62,0 515.62,0 521.62,-6 521.62,-12 521.62,-12 521.62,-24 521.62,-24 521.62,-30 515.62,-36 509.62,-36"/>
<text xml:space="preserve" text-anchor="middle" x="463.75" y="-14.5" font-family="Arial" font-size="10.00" fill="#8b0000">increases effort to read</text>
</g>
<!-- structure.layout&#45;&gt;rel_3 -->
<g id="edge14" class="edge">
<title>structure.layout&#45;&gt;rel_3</title>
<path fill="none" stroke="#d46a6a" stroke-width="1.5" d="M348.35,-70.5C361.11,-64.57 376.59,-57.4 390.5,-51 397.88,-47.6 405.7,-44.02 413.35,-40.52"/>
<polygon fill="#d46a6a" stroke="#d46a6a" stroke-width="1.5" points="414.05,-43.28 420.16,-37.4 411.72,-38.18 414.05,-43.28"/>
</g>
<!-- rel_0&#45;&gt;text.label -->
<g id="edge9" class="edge">
<title>rel_0&#45;&gt;text.label</title>
<path fill="none" stroke="#d46a6a" stroke-width="1.5" d="M491.98,-203.53C506.03,-198.02 523.09,-190.31 537,-181 553.81,-169.74 570.28,-154.22 582.9,-141.05"/>
<polygon fill="#d46a6a" stroke="#d46a6a" stroke-width="1.5" points="584.89,-143.03 588.32,-135.28 580.8,-139.2 584.89,-143.03"/>
</g>
<!-- rel_1&#45;&gt;structure.layout -->
<g id="edge11" class="edge">
<title>rel_1&#45;&gt;structure.layout</title>
<path fill="none" stroke="#d46a6a" stroke-width="1.5" d="M221.27,-129.51C230.87,-125.11 241.06,-120.42 250.5,-116 261.29,-110.95 272.99,-105.39 283.64,-100.29"/>
<polygon fill="#d46a6a" stroke="#d46a6a" stroke-width="1.5" points="284.63,-102.92 290.63,-96.94 282.21,-97.88 284.63,-102.92"/>
</g>
<!-- rel_2&#45;&gt;structure.layout -->
<g id="edge13" class="edge">
<title>rel_2&#45;&gt;structure.layout</title>
<path fill="none" stroke="#d46a6a" stroke-width="1.5" d="M206.97,-30.38C228.67,-40.52 259.59,-54.98 283.53,-66.18"/>
<polygon fill="#d46a6a" stroke="#d46a6a" stroke-width="1.5" points="282.16,-68.63 290.6,-69.48 284.54,-63.56 282.16,-68.63"/>
</g>
<!-- rel_3&#45;&gt;text.label -->
<g id="edge15" class="edge">
<title>rel_3&#45;&gt;text.label</title>
<path fill="none" stroke="#d46a6a" stroke-width="1.5" d="M511.03,-36.47C519.93,-40.75 528.97,-45.64 537,-51 553.25,-61.84 569.37,-76.51 581.94,-89.07"/>
<polygon fill="#d46a6a" stroke="#d46a6a" stroke-width="1.5" points="579.71,-90.8 587.31,-94.55 583.71,-86.88 579.71,-90.8"/>
</g>
</g>
</svg>
