<?xml version="1.0" encoding="UTF-8" standalone="no"?>
<!DOCTYPE svg PUBLIC "-//W3C//DTD SVG 1.1//EN"
 "http://www.w3.org/Graphics/SVG/1.1/DTD/svg11.dtd">
<!-- Generated by graphviz version 14.1.5 (20260411.2331)
 -->
<!-- Title: InfoVisC.211.8.png Pages: 1 -->
<svg width="1363pt" height="341pt"
 viewBox="0.00 0.00 1363.00 341.00" xmlns="http://www.w3.org/2000/svg" xmlns:xlink="http://www.w3.org/1999/xlink">
<g id="graph0" class="graph" transform="scale(1 1) rotate(0) translate(4 337.25)">
<title>InfoVisC.211.8.png</title>
<polygon fill="white" stroke="none" points="-4,4 -4,-337.25 1359.25,-337.25 1359.25,4 -4,4"/>
<text xml:space="preserve" text-anchor="start" x="617.62" y="-312.95" font-family="Arial" font-weight="bold" font-size="14.00">InfoVisC.211.8.png</text>
<text xml:space="preserve" text-anchor="start" x="633.75" y="-293" font-family="Arial" font-size="11.00">Area &#160;| &#160;VC = 0.63</text>
<path fill="#b8e6b8" stroke="none" d="M468.25,-268C468.25,-268 476.25,-268 476.25,-268 479.25,-268 482.25,-271 482.25,-274 482.25,-274 482.25,-280 482.25,-280 482.25,-283 479.25,-286 476.25,-286 476.25,-286 468.25,-286 468.25,-286 465.25,-286 462.25,-283 462.25,-280 462.25,-280 462.25,-274 462.25,-274 462.25,-271 465.25,-268 468.25,-268"/>
<path fill="none" stroke="black" d="M468.25,-268C468.25,-268 476.25,-268 476.25,-268 479.25,-268 482.25,-271 482.25,-274 482.25,-274 482.25,-280 482.25,-280 482.25,-283 479.25,-286 476.25,-286 476.25,-286 468.25,-286 468.25,-286 465.25,-286 462.25,-283 462.25,-280 462.25,-280 462.25,-274 462.25,-274 462.25,-271 465.25,-268 468.25,-268"/>
<text xml:space="preserve" text-anchor="start" x="470.75" y="-273.25" font-family="Arial" font-size="10.00"> </text>
<text xml:space="preserve" text-anchor="start" x="486.25" y="-273.25" font-family="Arial" font-size="10.00">Object</text>
<path fill="#c7b8e6" stroke="none" d="M524.75,-268C524.75,-268 532.75,-268 532.75,-268 535.75,-268 538.75,-271 538.75,-274 538.75,-274 538.75,-280 538.75,-280 538.75,-283 535.75,-286 532.75,-286 532.75,-286 524.75,-286 524.75,-286 521.75,-286 518.75,-283 518.75,-280 518.75,-280 518.75,-274 518.75,-274 518.75,-271 521.75,-268 524.75,-268"/>
<path fill="none" stroke="black" d="M524.75,-268C524.75,-268 532.75,-268 532.75,-268 535.75,-268 538.75,-271 538.75,-274 538.75,-274 538.75,-280 538.75,-280 538.75,-283 535.75,-286 532.75,-286 532.75,-286 524.75,-286 524.75,-286 521.75,-286 518.75,-283 518.75,-280 518.75,-280 518.75,-274 518.75,-274 518.75,-271 521.75,-268 524.75,-268"/>
<text xml:space="preserve" text-anchor="start" x="527.25" y="-273.25" font-family="Arial" font-size="10.00"> </text>
<text xml:space="preserve" text-anchor="start" x="542.75" y="-273.25" font-family="Arial" font-size="10.00">Attribute</text>
<path fill="#f5b8b8" stroke="none" d="M589.5,-268C589.5,-268 597.5,-268 597.5,-268 600.5,-268 603.5,-271 603.5,-274 603.5,-274 603.5,-280 603.5,-280 603.5,-283 600.5,-286 597.5,-286 597.5,-286 589.5,-286 589.5,-286 586.5,-286 583.5,-283 583.5,-280 583.5,-280 583.5,-274 583.5,-274 583.5,-271 586.5,-268 589.5,-268"/>
<path fill="none" stroke="black" d="M589.5,-268C589.5,-268 597.5,-268 597.5,-268 600.5,-268 603.5,-271 603.5,-274 603.5,-274 603.5,-280 603.5,-280 603.5,-283 600.5,-286 597.5,-286 597.5,-286 589.5,-286 589.5,-286 586.5,-286 583.5,-283 583.5,-280 583.5,-280 583.5,-274 583.5,-274 583.5,-271 586.5,-268 589.5,-268"/>
<text xml:space="preserve" text-anchor="start" x="592" y="-273.25" font-family="Arial" font-size="10.00"> </text>
<text xml:space="preserve" text-anchor="start" x="607.5" y="-273.25" font-family="Arial" font-size="10.00">Relationship</text>
<text xml:space="preserve" text-anchor="start" x="667.5" y="-274.5" font-family="Arial" font-weight="bold" font-size="10.00">(+)</text>
<text xml:space="preserve" text-anchor="start" x="679.5" y="-274.5" font-family="Arial" font-size="10.00"> increases complexity</text>
<text xml:space="preserve" text-anchor="start" x="780.75" y="-274.5" font-family="Arial" font-weight="bold" font-size="10.00">(−)</text>
<text xml:space="preserve" text-anchor="start" x="792.75" y="-274.5" font-family="Arial" font-size="10.00"> decreases complexity</text>
<!-- unknown.color_segments -->
<g id="node1" class="node">
<title>unknown.color_segments</title>
<path fill="#b8e6b8" stroke="#2c3e50" stroke-width="1.8" d="M317,-197C317,-197 258.25,-197 258.25,-197 252.25,-197 246.25,-191 246.25,-185 246.25,-185 246.25,-173 246.25,-173 246.25,-167 252.25,-161 258.25,-161 258.25,-161 317,-161 317,-161 323,-161 329,-167 329,-173 329,-173 329,-185 329,-185 329,-191 323,-197 317,-197"/>
<text xml:space="preserve" text-anchor="middle" x="287.62" y="-175.5" font-family="Arial" font-size="10.00" fill="#1a1a1a">color segments</text>
</g>
<!-- attr_0 -->
<g id="node6" class="node">
<title>attr_0</title>
<path fill="#c7b8e6" stroke="#7f8c8d" stroke-width="1.2" d="M497.5,-262C497.5,-262 384,-262 384,-262 378,-262 372,-256 372,-250 372,-250 372,-238 372,-238 372,-232 378,-226 384,-226 384,-226 497.5,-226 497.5,-226 503.5,-226 509.5,-232 509.5,-238 509.5,-238 509.5,-250 509.5,-250 509.5,-256 503.5,-262 497.5,-262"/>
<text xml:space="preserve" text-anchor="middle" x="440.75" y="-240.5" font-family="Arial" font-size="10.00" fill="#1a1a1a">(+) segmented color regions</text>
</g>
<!-- unknown.color_segments&#45;&gt;attr_0 -->
<g id="edge1" class="edge">
<title>unknown.color_segments&#45;&gt;attr_0</title>
<path fill="none" stroke="#aaaaaa" d="M329.52,-196.59C347.89,-204.49 369.74,-213.89 389.13,-222.23"/>
<polygon fill="#aaaaaa" stroke="#aaaaaa" points="387.92,-224.37 395.32,-224.89 389.85,-219.87 387.92,-224.37"/>
</g>
<!-- attr_5 -->
<g id="node7" class="node">
<title>attr_5</title>
<path fill="#c7b8e6" stroke="#7f8c8d" stroke-width="1.2" d="M481.38,-197C481.38,-197 400.12,-197 400.12,-197 394.12,-197 388.12,-191 388.12,-185 388.12,-185 388.12,-173 388.12,-173 388.12,-167 394.12,-161 400.12,-161 400.12,-161 481.38,-161 481.38,-161 487.38,-161 493.38,-167 493.38,-173 493.38,-173 493.38,-185 493.38,-185 493.38,-191 487.38,-197 481.38,-197"/>
<text xml:space="preserve" text-anchor="middle" x="440.75" y="-175.5" font-family="Arial" font-size="10.00" fill="#1a1a1a">(+) high color variety</text>
</g>
<!-- unknown.color_segments&#45;&gt;attr_5 -->
<g id="edge2" class="edge">
<title>unknown.color_segments&#45;&gt;attr_5</title>
<path fill="none" stroke="#aaaaaa" d="M329.52,-179C344.92,-179 362.77,-179 379.57,-179"/>
<polygon fill="#aaaaaa" stroke="#aaaaaa" points="379.2,-181.45 386.2,-179 379.2,-176.55 379.2,-181.45"/>
</g>
<!-- rel_4 -->
<g id="node17" class="node">
<title>rel_4</title>
<path fill="#f5b8b8" stroke="#d46a6a" stroke-width="1.2" d="M473.5,-132C473.5,-132 408,-132 408,-132 402,-132 396,-126 396,-120 396,-120 396,-108 396,-108 396,-102 402,-96 408,-96 408,-96 473.5,-96 473.5,-96 479.5,-96 485.5,-102 485.5,-108 485.5,-108 485.5,-120 485.5,-120 485.5,-126 479.5,-132 473.5,-132"/>
<text xml:space="preserve" text-anchor="middle" x="440.75" y="-110.5" font-family="Arial" font-size="10.00" fill="#8b0000">overwhelms with</text>
</g>
<!-- unknown.color_segments&#45;&gt;rel_4 -->
<g id="edge16" class="edge">
<title>unknown.color_segments&#45;&gt;rel_4</title>
<path fill="none" stroke="#d46a6a" stroke-width="1.5" d="M329.52,-161.41C347.32,-153.76 368.39,-144.69 387.32,-136.55"/>
<polygon fill="#d46a6a" stroke="#d46a6a" stroke-width="1.5" points="388.38,-139.14 394.62,-133.41 386.17,-134 388.38,-139.14"/>
</g>
<!-- furniture.legend -->
<g id="node2" class="node">
<title>furniture.legend</title>
<path fill="#b8e6b8" stroke="#2c3e50" stroke-width="1.8" d="M1152.25,-100C1152.25,-100 1122.25,-100 1122.25,-100 1116.25,-100 1110.25,-94 1110.25,-88 1110.25,-88 1110.25,-76 1110.25,-76 1110.25,-70 1116.25,-64 1122.25,-64 1122.25,-64 1152.25,-64 1152.25,-64 1158.25,-64 1164.25,-70 1164.25,-76 1164.25,-76 1164.25,-88 1164.25,-88 1164.25,-94 1158.25,-100 1152.25,-100"/>
<text xml:space="preserve" text-anchor="middle" x="1137.25" y="-78.5" font-family="Arial" font-size="10.00" fill="#1a1a1a">legend</text>
</g>
<!-- attr_2 -->
<g id="node8" class="node">
<title>attr_2</title>
<path fill="#c7b8e6" stroke="#7f8c8d" stroke-width="1.2" d="M1343.25,-166C1343.25,-166 1219.25,-166 1219.25,-166 1213.25,-166 1207.25,-160 1207.25,-154 1207.25,-154 1207.25,-142 1207.25,-142 1207.25,-136 1213.25,-130 1219.25,-130 1219.25,-130 1343.25,-130 1343.25,-130 1349.25,-130 1355.25,-136 1355.25,-142 1355.25,-142 1355.25,-154 1355.25,-154 1355.25,-160 1349.25,-166 1343.25,-166"/>
<text xml:space="preserve" text-anchor="middle" x="1281.25" y="-144.5" font-family="Arial" font-size="10.00" fill="#1a1a1a">(−) explanatory legend present</text>
</g>
<!-- furniture.legend&#45;&gt;attr_2 -->
<g id="edge3" class="edge">
<title>furniture.legend&#45;&gt;attr_2</title>
<path fill="none" stroke="#aaaaaa" d="M1165.06,-94.99C1177.81,-101.12 1193.28,-108.5 1207.25,-115 1215.07,-118.64 1223.39,-122.45 1231.5,-126.14"/>
<polygon fill="#aaaaaa" stroke="#aaaaaa" points="1230.11,-128.2 1237.49,-128.86 1232.13,-123.73 1230.11,-128.2"/>
</g>
<!-- attr_6 -->
<g id="node9" class="node">
<title>attr_6</title>
<path fill="#c7b8e6" stroke="#7f8c8d" stroke-width="1.2" d="M1323.38,-101C1323.38,-101 1239.12,-101 1239.12,-101 1233.12,-101 1227.12,-95 1227.12,-89 1227.12,-89 1227.12,-77 1227.12,-77 1227.12,-71 1233.12,-65 1239.12,-65 1239.12,-65 1323.38,-65 1323.38,-65 1329.38,-65 1335.38,-71 1335.38,-77 1335.38,-77 1335.38,-89 1335.38,-89 1335.38,-95 1329.38,-101 1323.38,-101"/>
<text xml:space="preserve" text-anchor="middle" x="1281.25" y="-79.5" font-family="Arial" font-size="10.00" fill="#1a1a1a">(−) aids interpretation</text>
</g>
<!-- furniture.legend&#45;&gt;attr_6 -->
<g id="edge4" class="edge">
<title>furniture.legend&#45;&gt;attr_6</title>
<path fill="none" stroke="#aaaaaa" d="M1164.96,-82.19C1180.01,-82.29 1199.48,-82.43 1218.12,-82.56"/>
<polygon fill="#aaaaaa" stroke="#aaaaaa" points="1218.07,-85.01 1225.09,-82.61 1218.11,-80.11 1218.07,-85.01"/>
</g>
<!-- rel_1 -->
<g id="node14" class="node">
<title>rel_1</title>
<path fill="#f5b8b8" stroke="#d46a6a" stroke-width="1.2" d="M1339.5,-36C1339.5,-36 1223,-36 1223,-36 1217,-36 1211,-30 1211,-24 1211,-24 1211,-12 1211,-12 1211,-6 1217,0 1223,0 1223,0 1339.5,0 1339.5,0 1345.5,0 1351.5,-6 1351.5,-12 1351.5,-12 1351.5,-24 1351.5,-24 1351.5,-30 1345.5,-36 1339.5,-36"/>
<text xml:space="preserve" text-anchor="middle" x="1281.25" y="-14.5" font-family="Arial" font-size="10.00" fill="#8b0000">reduces interpretive difficulty</text>
</g>
<!-- furniture.legend&#45;&gt;rel_1 -->
<g id="edge10" class="edge">
<title>furniture.legend&#45;&gt;rel_1</title>
<path fill="none" stroke="#d46a6a" stroke-width="1.5" d="M1165.06,-69.41C1177.81,-63.46 1193.29,-56.3 1207.25,-50 1214.17,-46.88 1221.47,-43.63 1228.68,-40.44"/>
<polygon fill="#d46a6a" stroke="#d46a6a" stroke-width="1.5" points="1229.45,-43.16 1235.64,-37.38 1227.19,-38.04 1229.45,-43.16"/>
</g>
<!-- unknown.text_labels -->
<g id="node3" class="node">
<title>unknown.text_labels</title>
<path fill="#b8e6b8" stroke="#2c3e50" stroke-width="1.8" d="M49,-229C49,-229 12,-229 12,-229 6,-229 0,-223 0,-217 0,-217 0,-205 0,-205 0,-199 6,-193 12,-193 12,-193 49,-193 49,-193 55,-193 61,-199 61,-205 61,-205 61,-217 61,-217 61,-223 55,-229 49,-229"/>
<text xml:space="preserve" text-anchor="middle" x="30.5" y="-207.5" font-family="Arial" font-size="10.00" fill="#1a1a1a">text labels</text>
</g>
<!-- attr_3 -->
<g id="node10" class="node">
<title>attr_3</title>
<path fill="#c7b8e6" stroke="#7f8c8d" stroke-width="1.2" d="M187.5,-262C187.5,-262 119.75,-262 119.75,-262 113.75,-262 107.75,-256 107.75,-250 107.75,-250 107.75,-238 107.75,-238 107.75,-232 113.75,-226 119.75,-226 119.75,-226 187.5,-226 187.5,-226 193.5,-226 199.5,-232 199.5,-238 199.5,-238 199.5,-250 199.5,-250 199.5,-256 193.5,-262 187.5,-262"/>
<text xml:space="preserve" text-anchor="middle" x="153.62" y="-240.5" font-family="Arial" font-size="10.00" fill="#1a1a1a">(−) text at bottom</text>
</g>
<!-- unknown.text_labels&#45;&gt;attr_3 -->
<g id="edge5" class="edge">
<title>unknown.text_labels&#45;&gt;attr_3</title>
<path fill="none" stroke="#aaaaaa" d="M61.75,-219.24C73.13,-222.34 86.42,-225.96 99.28,-229.47"/>
<polygon fill="#aaaaaa" stroke="#aaaaaa" points="98.34,-231.75 105.74,-231.23 99.63,-227.02 98.34,-231.75"/>
</g>
<!-- rel_3 -->
<g id="node16" class="node">
<title>rel_3</title>
<path fill="#f5b8b8" stroke="#d46a6a" stroke-width="1.2" d="M191.25,-197C191.25,-197 116,-197 116,-197 110,-197 104,-191 104,-185 104,-185 104,-173 104,-173 104,-167 110,-161 116,-161 116,-161 191.25,-161 191.25,-161 197.25,-161 203.25,-167 203.25,-173 203.25,-173 203.25,-185 203.25,-185 203.25,-191 197.25,-197 191.25,-197"/>
<text xml:space="preserve" text-anchor="middle" x="153.62" y="-175.5" font-family="Arial" font-size="10.00" fill="#8b0000">supports reading of</text>
</g>
<!-- unknown.text_labels&#45;&gt;rel_3 -->
<g id="edge14" class="edge">
<title>unknown.text_labels&#45;&gt;rel_3</title>
<path fill="none" stroke="#d46a6a" stroke-width="1.5" d="M61.75,-203.01C71.51,-200.43 82.68,-197.48 93.77,-194.55"/>
<polygon fill="#d46a6a" stroke="#d46a6a" stroke-width="1.5" points="94.25,-197.32 101.26,-192.57 92.81,-191.91 94.25,-197.32"/>
</g>
<!-- unknown.area_chart -->
<g id="node4" class="node">
<title>unknown.area_chart</title>
<path fill="#b8e6b8" stroke="#2c3e50" stroke-width="1.8" d="M892,-100C892,-100 856.5,-100 856.5,-100 850.5,-100 844.5,-94 844.5,-88 844.5,-88 844.5,-76 844.5,-76 844.5,-70 850.5,-64 856.5,-64 856.5,-64 892,-64 892,-64 898,-64 904,-70 904,-76 904,-76 904,-88 904,-88 904,-94 898,-100 892,-100"/>
<text xml:space="preserve" text-anchor="middle" x="874.25" y="-78.5" font-family="Arial" font-size="10.00" fill="#1a1a1a">area chart</text>
</g>
<!-- attr_4 -->
<g id="node11" class="node">
<title>attr_4</title>
<path fill="#c7b8e6" stroke="#7f8c8d" stroke-width="1.2" d="M1055.25,-165C1055.25,-165 959,-165 959,-165 953,-165 947,-159 947,-153 947,-153 947,-141 947,-141 947,-135 953,-129 959,-129 959,-129 1055.25,-129 1055.25,-129 1061.25,-129 1067.25,-135 1067.25,-141 1067.25,-141 1067.25,-153 1067.25,-153 1067.25,-159 1061.25,-165 1055.25,-165"/>
<text xml:space="preserve" text-anchor="middle" x="1007.12" y="-143.5" font-family="Arial" font-size="10.00" fill="#1a1a1a">(+) unfamiliar chart form</text>
</g>
<!-- unknown.area_chart&#45;&gt;attr_4 -->
<g id="edge6" class="edge">
<title>unknown.area_chart&#45;&gt;attr_4</title>
<path fill="none" stroke="#aaaaaa" d="M904.62,-96.59C921.39,-104.91 942.75,-115.52 961.54,-124.86"/>
<polygon fill="#aaaaaa" stroke="#aaaaaa" points="960.16,-126.91 967.52,-127.83 962.34,-122.52 960.16,-126.91"/>
</g>
<!-- rel_2 -->
<g id="node15" class="node">
<title>rel_2</title>
<path fill="#f5b8b8" stroke="#d46a6a" stroke-width="1.2" d="M1050,-100C1050,-100 964.25,-100 964.25,-100 958.25,-100 952.25,-94 952.25,-88 952.25,-88 952.25,-76 952.25,-76 952.25,-70 958.25,-64 964.25,-64 964.25,-64 1050,-64 1050,-64 1056,-64 1062,-70 1062,-76 1062,-76 1062,-88 1062,-88 1062,-94 1056,-100 1050,-100"/>
<text xml:space="preserve" text-anchor="middle" x="1007.12" y="-78.5" font-family="Arial" font-size="10.00" fill="#8b0000">requires familiarity for</text>
</g>
<!-- unknown.area_chart&#45;&gt;rel_2 -->
<g id="edge12" class="edge">
<title>unknown.area_chart&#45;&gt;rel_2</title>
<path fill="none" stroke="#d46a6a" stroke-width="1.5" d="M904.62,-82C915.73,-82 928.86,-82 941.92,-82"/>
<polygon fill="#d46a6a" stroke="#d46a6a" stroke-width="1.5" points="941.59,-84.8 949.59,-82 941.59,-79.2 941.59,-84.8"/>
</g>
<!-- unknown.color_palette -->
<g id="node5" class="node">
<title>unknown.color_palette</title>
<path fill="#b8e6b8" stroke="#2c3e50" stroke-width="1.8" d="M609.75,-132C609.75,-132 564.5,-132 564.5,-132 558.5,-132 552.5,-126 552.5,-120 552.5,-120 552.5,-108 552.5,-108 552.5,-102 558.5,-96 564.5,-96 564.5,-96 609.75,-96 609.75,-96 615.75,-96 621.75,-102 621.75,-108 621.75,-108 621.75,-120 621.75,-120 621.75,-126 615.75,-132 609.75,-132"/>
<text xml:space="preserve" text-anchor="middle" x="587.12" y="-110.5" font-family="Arial" font-size="10.00" fill="#1a1a1a">color palette</text>
</g>
<!-- attr_1 -->
<g id="node12" class="node">
<title>attr_1</title>
<path fill="#c7b8e6" stroke="#7f8c8d" stroke-width="1.2" d="M777.88,-165C777.88,-165 688.38,-165 688.38,-165 682.38,-165 676.38,-159 676.38,-153 676.38,-153 676.38,-141 676.38,-141 676.38,-135 682.38,-129 688.38,-129 688.38,-129 777.88,-129 777.88,-129 783.88,-129 789.88,-135 789.88,-141 789.88,-141 789.88,-153 789.88,-153 789.88,-159 783.88,-165 777.88,-165"/>
<text xml:space="preserve" text-anchor="middle" x="733.12" y="-143.5" font-family="Arial" font-size="10.00" fill="#1a1a1a">(+) bright varied colors</text>
</g>
<!-- unknown.color_palette&#45;&gt;attr_1 -->
<g id="edge7" class="edge">
<title>unknown.color_palette&#45;&gt;attr_1</title>
<path fill="none" stroke="#aaaaaa" d="M622.62,-121.9C636.22,-125.02 652.3,-128.71 667.89,-132.28"/>
<polygon fill="#aaaaaa" stroke="#aaaaaa" points="667.14,-134.62 674.51,-133.8 668.24,-129.85 667.14,-134.62"/>
</g>
<!-- rel_0 -->
<g id="node13" class="node">
<title>rel_0</title>
<path fill="#f5b8b8" stroke="#d46a6a" stroke-width="1.2" d="M789.5,-100C789.5,-100 676.75,-100 676.75,-100 670.75,-100 664.75,-94 664.75,-88 664.75,-88 664.75,-76 664.75,-76 664.75,-70 670.75,-64 676.75,-64 676.75,-64 789.5,-64 789.5,-64 795.5,-64 801.5,-70 801.5,-76 801.5,-76 801.5,-88 801.5,-88 801.5,-94 795.5,-100 789.5,-100"/>
<text xml:space="preserve" text-anchor="middle" x="733.12" y="-78.5" font-family="Arial" font-size="10.00" fill="#8b0000">increases visual complexity</text>
</g>
<!-- unknown.color_palette&#45;&gt;rel_0 -->
<g id="edge8" class="edge">
<title>unknown.color_palette&#45;&gt;rel_0</title>
<path fill="none" stroke="#d46a6a" stroke-width="1.5" d="M622.62,-106.34C632.33,-104.18 643.32,-101.74 654.48,-99.25"/>
<polygon fill="#d46a6a" stroke="#d46a6a" stroke-width="1.5" points="654.89,-102.03 662.09,-97.56 653.68,-96.56 654.89,-102.03"/>
</g>
<!-- rel_0&#45;&gt;unknown.area_chart -->
<g id="edge9" class="edge">
<title>rel_0&#45;&gt;unknown.area_chart</title>
<path fill="none" stroke="#d46a6a" stroke-width="1.5" d="M802.06,-82C812.8,-82 823.59,-82 833.4,-82"/>
<polygon fill="#d46a6a" stroke="#d46a6a" stroke-width="1.5" points="833.36,-84.8 841.36,-82 833.36,-79.2 833.36,-84.8"/>
</g>
<!-- rel_1&#45;&gt;unknown.area_chart -->
<g id="edge11" class="edge">
<title>rel_1&#45;&gt;unknown.area_chart</title>
<path fill="none" stroke="#d46a6a" stroke-width="1.5" d="M1210.44,-17.69C1142.17,-18.97 1035.82,-25.19 947,-49 935.95,-51.96 924.48,-56.5 914.03,-61.27"/>
<polygon fill="#d46a6a" stroke="#d46a6a" stroke-width="1.5" points="912.84,-58.74 906.82,-64.71 915.25,-63.79 912.84,-58.74"/>
</g>
<!-- rel_2&#45;&gt;furniture.legend -->
<g id="edge13" class="edge">
<title>rel_2&#45;&gt;furniture.legend</title>
<path fill="none" stroke="#d46a6a" stroke-width="1.5" d="M1062.46,-82C1074.89,-82 1087.82,-82 1099.32,-82"/>
<polygon fill="#d46a6a" stroke="#d46a6a" stroke-width="1.5" points="1099.15,-84.8 1107.15,-82 1099.15,-79.2 1099.15,-84.8"/>
</g>
<!-- rel_3&#45;&gt;unknown.color_segments -->
<g id="edge15" class="edge">
<title>rel_3&#45;&gt;unknown.color_segments</title>
<path fill="none" stroke="#d46a6a" stroke-width="1.5" d="M203.78,-179C214.11,-179 225.04,-179 235.45,-179"/>
<polygon fill="#d46a6a" stroke="#d46a6a" stroke-width="1.5" points="235.37,-181.8 243.37,-179 235.37,-176.2 235.37,-181.8"/>
</g>
<!-- rel_4&#45;&gt;unknown.color_palette -->
<g id="edge17" class="edge">
<title>rel_4&#45;&gt;unknown.color_palette</title>
<path fill="none" stroke="#d46a6a" stroke-width="1.5" d="M485.85,-114C503.6,-114 524.03,-114 541.8,-114"/>
<polygon fill="#d46a6a" stroke="#d46a6a" stroke-width="1.5" points="541.64,-116.8 549.64,-114 541.64,-111.2 541.64,-116.8"/>
</g>
</g>
</svg>
