<?xml version="1.0" encoding="UTF-8" standalone="no"?>
<!DOCTYPE svg PUBLIC "-//W3C//DTD SVG 1.1//EN"
 "http://www.w3.org/Graphics/SVG/1.1/DTD/svg11.dtd">
<!-- Generated by graphviz version 14.1.5 (20260411.2331)
 -->
<!-- Title: InfoVisJ.935.6.png Pages: 1 -->
<svg width="511pt" height="440pt"
 viewBox="0.00 0.00 511.00 440.00" xmlns="http://www.w3.org/2000/svg" xmlns:xlink="http://www.w3.org/1999/xlink">
<g id="graph0" class="graph" transform="scale(1 1) rotate(0) translate(4 436.25)">
<title>InfoVisJ.935.6.png</title>
<polygon fill="white" stroke="none" points="-4,4 -4,-436.25 507.25,-436.25 507.25,4 -4,4"/>
<text xml:space="preserve" text-anchor="start" x="192.38" y="-411.95" font-family="Arial" font-weight="bold" font-size="14.00">InfoVisJ.935.6.png</text>
<text xml:space="preserve" text-anchor="start" x="209.25" y="-392" font-family="Arial" font-size="11.00">Grid &#160;| &#160;VC = 0.45</text>
<path fill="#b8e6b8" stroke="none" d="M42.25,-367C42.25,-367 50.25,-367 50.25,-367 53.25,-367 56.25,-370 56.25,-373 56.25,-373 56.25,-379 56.25,-379 56.25,-382 53.25,-385 50.25,-385 50.25,-385 42.25,-385 42.25,-385 39.25,-385 36.25,-382 36.25,-379 36.25,-379 36.25,-373 36.25,-373 36.25,-370 39.25,-367 42.25,-367"/>
<path fill="none" stroke="black" d="M42.25,-367C42.25,-367 50.25,-367 50.25,-367 53.25,-367 56.25,-370 56.25,-373 56.25,-373 56.25,-379 56.25,-379 56.25,-382 53.25,-385 50.25,-385 50.25,-385 42.25,-385 42.25,-385 39.25,-385 36.25,-382 36.25,-379 36.25,-379 36.25,-373 36.25,-373 36.25,-370 39.25,-367 42.25,-367"/>
<text xml:space="preserve" text-anchor="start" x="44.75" y="-372.25" font-family="Arial" font-size="10.00"> </text>
<text xml:space="preserve" text-anchor="start" x="60.25" y="-372.25" font-family="Arial" font-size="10.00">Object</text>
<path fill="#c7b8e6" stroke="none" d="M98.75,-367C98.75,-367 106.75,-367 106.75,-367 109.75,-367 112.75,-370 112.75,-373 112.75,-373 112.75,-379 112.75,-379 112.75,-382 109.75,-385 106.75,-385 106.75,-385 98.75,-385 98.75,-385 95.75,-385 92.75,-382 92.75,-379 92.75,-379 92.75,-373 92.75,-373 92.75,-370 95.75,-367 98.75,-367"/>
<path fill="none" stroke="black" d="M98.75,-367C98.75,-367 106.75,-367 106.75,-367 109.75,-367 112.75,-370 112.75,-373 112.75,-373 112.75,-379 112.75,-379 112.75,-382 109.75,-385 106.75,-385 106.75,-385 98.75,-385 98.75,-385 95.75,-385 92.75,-382 92.75,-379 92.75,-379 92.75,-373 92.75,-373 92.75,-370 95.75,-367 98.75,-367"/>
<text xml:space="preserve" text-anchor="start" x="101.25" y="-372.25" font-family="Arial" font-size="10.00"> </text>
<text xml:space="preserve" text-anchor="start" x="116.75" y="-372.25" font-family="Arial" font-size="10.00">Attribute</text>
<path fill="#f5b8b8" stroke="none" d="M163.5,-367C163.5,-367 171.5,-367 171.5,-367 174.5,-367 177.5,-370 177.5,-373 177.5,-373 177.5,-379 177.5,-379 177.5,-382 174.5,-385 171.5,-385 171.5,-385 163.5,-385 163.5,-385 160.5,-385 157.5,-382 157.5,-379 157.5,-379 157.5,-373 157.5,-373 157.5,-370 160.5,-367 163.5,-367"/>
<path fill="none" stroke="black" d="M163.5,-367C163.5,-367 171.5,-367 171.5,-367 174.5,-367 177.5,-370 177.5,-373 177.5,-373 177.5,-379 177.5,-379 177.5,-382 174.5,-385 171.5,-385 171.5,-385 163.5,-385 163.5,-385 160.5,-385 157.5,-382 157.5,-379 157.5,-379 157.5,-373 157.5,-373 157.5,-370 160.5,-367 163.5,-367"/>
<text xml:space="preserve" text-anchor="start" x="166" y="-372.25" font-family="Arial" font-size="10.00"> </text>
<text xml:space="preserve" text-anchor="start" x="181.5" y="-372.25" font-family="Arial" font-size="10.00">Relationship</text>
<text xml:space="preserve" text-anchor="start" x="241.5" y="-373.5" font-family="Arial" font-weight="bold" font-size="10.00">(+)</text>
<text xml:space="preserve" text-anchor="start" x="253.5" y="-373.5" font-family="Arial" font-size="10.00"> increases complexity</text>
<text xml:space="preserve" text-anchor="start" x="354.75" y="-373.5" font-family="Arial" font-weight="bold" font-size="10.00">(−)</text>
<text xml:space="preserve" text-anchor="start" x="366.75" y="-373.5" font-family="Arial" font-size="10.00"> decreases complexity</text>
<!-- structure.grid -->
<g id="node1" class="node">
<title>structure.grid</title>
<path fill="#b8e6b8" stroke="#2c3e50" stroke-width="1.8" d="M316.75,-166C316.75,-166 286.75,-166 286.75,-166 280.75,-166 274.75,-160 274.75,-154 274.75,-154 274.75,-142 274.75,-142 274.75,-136 280.75,-130 286.75,-130 286.75,-130 316.75,-130 316.75,-130 322.75,-130 328.75,-136 328.75,-142 328.75,-142 328.75,-154 328.75,-154 328.75,-160 322.75,-166 316.75,-166"/>
<text xml:space="preserve" text-anchor="middle" x="301.75" y="-144.5" font-family="Arial" font-size="10.00" fill="#1a1a1a">grid</text>
</g>
<!-- attr_3 -->
<g id="node6" class="node">
<title>attr_3</title>
<path fill="#c7b8e6" stroke="#7f8c8d" stroke-width="1.2" d="M491.25,-166C491.25,-166 383.75,-166 383.75,-166 377.75,-166 371.75,-160 371.75,-154 371.75,-154 371.75,-142 371.75,-142 371.75,-136 377.75,-130 383.75,-130 383.75,-130 491.25,-130 491.25,-130 497.25,-130 503.25,-136 503.25,-142 503.25,-142 503.25,-154 503.25,-154 503.25,-160 497.25,-166 491.25,-166"/>
<text xml:space="preserve" text-anchor="middle" x="437.5" y="-144.5" font-family="Arial" font-size="10.00" fill="#1a1a1a">(+) varied color distribution</text>
</g>
<!-- structure.grid&#45;&gt;attr_3 -->
<g id="edge1" class="edge">
<title>structure.grid&#45;&gt;attr_3</title>
<path fill="none" stroke="#aaaaaa" d="M329.49,-148C339.34,-148 351.03,-148 363.01,-148"/>
<polygon fill="#aaaaaa" stroke="#aaaaaa" points="362.82,-150.45 369.82,-148 362.82,-145.55 362.82,-150.45"/>
</g>
<!-- property.color -->
<g id="node2" class="node">
<title>property.color</title>
<path fill="#b8e6b8" stroke="#2c3e50" stroke-width="1.8" d="M49.62,-296C49.62,-296 19.62,-296 19.62,-296 13.62,-296 7.62,-290 7.62,-284 7.62,-284 7.62,-272 7.62,-272 7.62,-266 13.62,-260 19.62,-260 19.62,-260 49.62,-260 49.62,-260 55.62,-260 61.62,-266 61.62,-272 61.62,-272 61.62,-284 61.62,-284 61.62,-290 55.62,-296 49.62,-296"/>
<text xml:space="preserve" text-anchor="middle" x="34.62" y="-274.5" font-family="Arial" font-size="10.00" fill="#1a1a1a">color</text>
</g>
<!-- attr_0 -->
<g id="node7" class="node">
<title>attr_0</title>
<path fill="#c7b8e6" stroke="#7f8c8d" stroke-width="1.2" d="M212.62,-361C212.62,-361 131.38,-361 131.38,-361 125.38,-361 119.38,-355 119.38,-349 119.38,-349 119.38,-337 119.38,-337 119.38,-331 125.38,-325 131.38,-325 131.38,-325 212.62,-325 212.62,-325 218.62,-325 224.62,-331 224.62,-337 224.62,-337 224.62,-349 224.62,-349 224.62,-355 218.62,-361 212.62,-361"/>
<text xml:space="preserve" text-anchor="middle" x="172" y="-339.5" font-family="Arial" font-size="10.00" fill="#1a1a1a">(+) high color variety</text>
</g>
<!-- property.color&#45;&gt;attr_0 -->
<g id="edge2" class="edge">
<title>property.color&#45;&gt;attr_0</title>
<path fill="none" stroke="#aaaaaa" d="M62.37,-290.84C80.21,-299.41 104.14,-310.9 124.99,-320.91"/>
<polygon fill="#aaaaaa" stroke="#aaaaaa" points="123.78,-323.05 131.15,-323.87 125.9,-318.63 123.78,-323.05"/>
</g>
<!-- rel_0 -->
<g id="node11" class="node">
<title>rel_0</title>
<path fill="#f5b8b8" stroke="#d46a6a" stroke-width="1.2" d="M219.75,-231C219.75,-231 124.25,-231 124.25,-231 118.25,-231 112.25,-225 112.25,-219 112.25,-219 112.25,-207 112.25,-207 112.25,-201 118.25,-195 124.25,-195 124.25,-195 219.75,-195 219.75,-195 225.75,-195 231.75,-201 231.75,-207 231.75,-207 231.75,-219 231.75,-219 231.75,-225 225.75,-231 219.75,-231"/>
<text xml:space="preserve" text-anchor="middle" x="172" y="-209.5" font-family="Arial" font-size="10.00" fill="#8b0000">increases complexity of</text>
</g>
<!-- property.color&#45;&gt;rel_0 -->
<g id="edge6" class="edge">
<title>property.color&#45;&gt;rel_0</title>
<path fill="none" stroke="#d46a6a" stroke-width="1.5" d="M62.37,-265.16C79.74,-256.82 102.88,-245.71 123.34,-235.88"/>
<polygon fill="#d46a6a" stroke="#d46a6a" stroke-width="1.5" points="124.47,-238.45 130.47,-232.46 122.05,-233.4 124.47,-238.45"/>
</g>
<!-- rel_2 -->
<g id="node13" class="node">
<title>rel_2</title>
<path fill="#f5b8b8" stroke="#d46a6a" stroke-width="1.2" d="M213.75,-296C213.75,-296 130.25,-296 130.25,-296 124.25,-296 118.25,-290 118.25,-284 118.25,-284 118.25,-272 118.25,-272 118.25,-266 124.25,-260 130.25,-260 130.25,-260 213.75,-260 213.75,-260 219.75,-260 225.75,-266 225.75,-272 225.75,-272 225.75,-284 225.75,-284 225.75,-290 219.75,-296 213.75,-296"/>
<text xml:space="preserve" text-anchor="middle" x="172" y="-274.5" font-family="Arial" font-size="10.00" fill="#8b0000">requires expertise for</text>
</g>
<!-- property.color&#45;&gt;rel_2 -->
<g id="edge10" class="edge">
<title>property.color&#45;&gt;rel_2</title>
<path fill="none" stroke="#d46a6a" stroke-width="1.5" d="M62.37,-278C75.45,-278 91.8,-278 107.81,-278"/>
<polygon fill="#d46a6a" stroke="#d46a6a" stroke-width="1.5" points="107.44,-280.8 115.44,-278 107.44,-275.2 107.44,-280.8"/>
</g>
<!-- structure.cell -->
<g id="node3" class="node">
<title>structure.cell</title>
<path fill="#b8e6b8" stroke="#2c3e50" stroke-width="1.8" d="M316.75,-36C316.75,-36 286.75,-36 286.75,-36 280.75,-36 274.75,-30 274.75,-24 274.75,-24 274.75,-12 274.75,-12 274.75,-6 280.75,0 286.75,0 286.75,0 316.75,0 316.75,0 322.75,0 328.75,-6 328.75,-12 328.75,-12 328.75,-24 328.75,-24 328.75,-30 322.75,-36 316.75,-36"/>
<text xml:space="preserve" text-anchor="middle" x="301.75" y="-14.5" font-family="Arial" font-size="10.00" fill="#1a1a1a">cell</text>
</g>
<!-- attr_1 -->
<g id="node8" class="node">
<title>attr_1</title>
<path fill="#c7b8e6" stroke="#7f8c8d" stroke-width="1.2" d="M487.12,-36C487.12,-36 387.88,-36 387.88,-36 381.88,-36 375.88,-30 375.88,-24 375.88,-24 375.88,-12 375.88,-12 375.88,-6 381.88,0 387.88,0 387.88,0 487.12,0 487.12,0 493.12,0 499.12,-6 499.12,-12 499.12,-12 499.12,-24 499.12,-24 499.12,-30 493.12,-36 487.12,-36"/>
<text xml:space="preserve" text-anchor="middle" x="437.5" y="-14.5" font-family="Arial" font-size="10.00" fill="#1a1a1a">(+) multiple distinct hues</text>
</g>
<!-- structure.cell&#45;&gt;attr_1 -->
<g id="edge3" class="edge">
<title>structure.cell&#45;&gt;attr_1</title>
<path fill="none" stroke="#aaaaaa" d="M329.49,-18C340.48,-18 353.76,-18 367.17,-18"/>
<polygon fill="#aaaaaa" stroke="#aaaaaa" points="367,-20.45 374,-18 367,-15.55 367,-20.45"/>
</g>
<!-- furniture.legend -->
<g id="node4" class="node">
<title>furniture.legend</title>
<path fill="#b8e6b8" stroke="#2c3e50" stroke-width="1.8" d="M316.75,-296C316.75,-296 286.75,-296 286.75,-296 280.75,-296 274.75,-290 274.75,-284 274.75,-284 274.75,-272 274.75,-272 274.75,-266 280.75,-260 286.75,-260 286.75,-260 316.75,-260 316.75,-260 322.75,-260 328.75,-266 328.75,-272 328.75,-272 328.75,-284 328.75,-284 328.75,-290 322.75,-296 316.75,-296"/>
<text xml:space="preserve" text-anchor="middle" x="301.75" y="-274.5" font-family="Arial" font-size="10.00" fill="#1a1a1a">legend</text>
</g>
<!-- attr_4 -->
<g id="node9" class="node">
<title>attr_4</title>
<path fill="#c7b8e6" stroke="#7f8c8d" stroke-width="1.2" d="M491.25,-296C491.25,-296 383.75,-296 383.75,-296 377.75,-296 371.75,-290 371.75,-284 371.75,-284 371.75,-272 371.75,-272 371.75,-266 377.75,-260 383.75,-260 383.75,-260 491.25,-260 491.25,-260 497.25,-260 503.25,-266 503.25,-272 503.25,-272 503.25,-284 503.25,-284 503.25,-290 497.25,-296 491.25,-296"/>
<text xml:space="preserve" text-anchor="middle" x="437.5" y="-274.5" font-family="Arial" font-size="10.00" fill="#1a1a1a">(+) requires color decoding</text>
</g>
<!-- furniture.legend&#45;&gt;attr_4 -->
<g id="edge4" class="edge">
<title>furniture.legend&#45;&gt;attr_4</title>
<path fill="none" stroke="#aaaaaa" d="M329.49,-278C339.34,-278 351.03,-278 363.01,-278"/>
<polygon fill="#aaaaaa" stroke="#aaaaaa" points="362.82,-280.45 369.82,-278 362.82,-275.55 362.82,-280.45"/>
</g>
<!-- unknown.color_palette -->
<g id="node5" class="node">
<title>unknown.color_palette</title>
<path fill="#b8e6b8" stroke="#2c3e50" stroke-width="1.8" d="M57.25,-101C57.25,-101 12,-101 12,-101 6,-101 0,-95 0,-89 0,-89 0,-77 0,-77 0,-71 6,-65 12,-65 12,-65 57.25,-65 57.25,-65 63.25,-65 69.25,-71 69.25,-77 69.25,-77 69.25,-89 69.25,-89 69.25,-95 63.25,-101 57.25,-101"/>
<text xml:space="preserve" text-anchor="middle" x="34.62" y="-79.5" font-family="Arial" font-size="10.00" fill="#1a1a1a">color palette</text>
</g>
<!-- attr_2 -->
<g id="node10" class="node">
<title>attr_2</title>
<path fill="#c7b8e6" stroke="#7f8c8d" stroke-width="1.2" d="M211.12,-166C211.12,-166 132.88,-166 132.88,-166 126.88,-166 120.88,-160 120.88,-154 120.88,-154 120.88,-142 120.88,-142 120.88,-136 126.88,-130 132.88,-130 132.88,-130 211.12,-130 211.12,-130 217.12,-130 223.12,-136 223.12,-142 223.12,-142 223.12,-154 223.12,-154 223.12,-160 217.12,-166 211.12,-166"/>
<text xml:space="preserve" text-anchor="middle" x="172" y="-144.5" font-family="Arial" font-size="10.00" fill="#1a1a1a">(+) wide color range</text>
</g>
<!-- unknown.color_palette&#45;&gt;attr_2 -->
<g id="edge5" class="edge">
<title>unknown.color_palette&#45;&gt;attr_2</title>
<path fill="none" stroke="#aaaaaa" d="M70.14,-99.57C86.86,-107.6 107.18,-117.36 125.18,-126"/>
<polygon fill="#aaaaaa" stroke="#aaaaaa" points="124,-128.15 131.37,-128.97 126.12,-123.73 124,-128.15"/>
</g>
<!-- rel_1 -->
<g id="node12" class="node">
<title>rel_1</title>
<path fill="#f5b8b8" stroke="#d46a6a" stroke-width="1.2" d="M194.25,-36C194.25,-36 149.75,-36 149.75,-36 143.75,-36 137.75,-30 137.75,-24 137.75,-24 137.75,-12 137.75,-12 137.75,-6 143.75,0 149.75,0 149.75,0 194.25,0 194.25,0 200.25,0 206.25,-6 206.25,-12 206.25,-12 206.25,-24 206.25,-24 206.25,-30 200.25,-36 194.25,-36"/>
<text xml:space="preserve" text-anchor="middle" x="172" y="-14.5" font-family="Arial" font-size="10.00" fill="#8b0000">encodes via</text>
</g>
<!-- unknown.color_palette&#45;&gt;rel_1 -->
<g id="edge8" class="edge">
<title>unknown.color_palette&#45;&gt;rel_1</title>
<path fill="none" stroke="#d46a6a" stroke-width="1.5" d="M70.14,-66.43C87.83,-57.93 109.54,-47.51 128.28,-38.51"/>
<polygon fill="#d46a6a" stroke="#d46a6a" stroke-width="1.5" points="129.44,-41.06 135.44,-35.07 127.02,-36.01 129.44,-41.06"/>
</g>
<!-- rel_3 -->
<g id="node14" class="node">
<title>rel_3</title>
<path fill="#f5b8b8" stroke="#d46a6a" stroke-width="1.2" d="M194.25,-101C194.25,-101 149.75,-101 149.75,-101 143.75,-101 137.75,-95 137.75,-89 137.75,-89 137.75,-77 137.75,-77 137.75,-71 143.75,-65 149.75,-65 149.75,-65 194.25,-65 194.25,-65 200.25,-65 206.25,-71 206.25,-77 206.25,-77 206.25,-89 206.25,-89 206.25,-95 200.25,-101 194.25,-101"/>
<text xml:space="preserve" text-anchor="middle" x="172" y="-79.5" font-family="Arial" font-size="10.00" fill="#8b0000">overwhelms</text>
</g>
<!-- unknown.color_palette&#45;&gt;rel_3 -->
<g id="edge12" class="edge">
<title>unknown.color_palette&#45;&gt;rel_3</title>
<path fill="none" stroke="#d46a6a" stroke-width="1.5" d="M70.14,-83C87.5,-83 108.75,-83 127.25,-83"/>
<polygon fill="#d46a6a" stroke="#d46a6a" stroke-width="1.5" points="127.22,-85.8 135.22,-83 127.22,-80.2 127.22,-85.8"/>
</g>
<!-- rel_0&#45;&gt;structure.grid -->
<g id="edge7" class="edge">
<title>rel_0&#45;&gt;structure.grid</title>
<path fill="none" stroke="#d46a6a" stroke-width="1.5" d="M209.27,-194.55C226.86,-185.6 247.9,-174.89 265.37,-166"/>
<polygon fill="#d46a6a" stroke="#d46a6a" stroke-width="1.5" points="266.26,-168.69 272.12,-162.57 263.72,-163.7 266.26,-168.69"/>
</g>
<!-- rel_1&#45;&gt;structure.cell -->
<g id="edge9" class="edge">
<title>rel_1&#45;&gt;structure.cell</title>
<path fill="none" stroke="#d46a6a" stroke-width="1.5" d="M206.56,-18C224.24,-18 245.94,-18 264.06,-18"/>
<polygon fill="#d46a6a" stroke="#d46a6a" stroke-width="1.5" points="263.99,-20.8 271.99,-18 263.99,-15.2 263.99,-20.8"/>
</g>
<!-- rel_2&#45;&gt;furniture.legend -->
<g id="edge11" class="edge">
<title>rel_2&#45;&gt;furniture.legend</title>
<path fill="none" stroke="#d46a6a" stroke-width="1.5" d="M226.07,-278C238.9,-278 252.33,-278 264.21,-278"/>
<polygon fill="#d46a6a" stroke="#d46a6a" stroke-width="1.5" points="263.92,-280.8 271.92,-278 263.92,-275.2 263.92,-280.8"/>
</g>
<!-- rel_3&#45;&gt;structure.grid -->
<g id="edge13" class="edge">
<title>rel_3&#45;&gt;structure.grid</title>
<path fill="none" stroke="#d46a6a" stroke-width="1.5" d="M206.56,-100.08C224.65,-109.28 246.96,-120.63 265.32,-129.98"/>
<polygon fill="#d46a6a" stroke="#d46a6a" stroke-width="1.5" points="263.83,-132.36 272.23,-133.49 266.37,-127.37 263.83,-132.36"/>
</g>
</g>
</svg>
