<?xml version="1.0" encoding="UTF-8" standalone="no"?>
<!DOCTYPE svg PUBLIC "-//W3C//DTD SVG 1.1//EN"
 "http://www.w3.org/Graphics/SVG/1.1/DTD/svg11.dtd">
<!-- Generated by graphviz version 14.1.5 (20260411.2331)
 -->
<!-- Title: InfoVisJ.2072.16.png Pages: 1 -->
<svg width="743pt" height="499pt"
 viewBox="0.00 0.00 743.00 499.00" xmlns="http://www.w3.org/2000/svg" xmlns:xlink="http://www.w3.org/1999/xlink">
<g id="graph0" class="graph" transform="scale(1 1) rotate(0) translate(4 495.25)">
<title>InfoVisJ.2072.16.png</title>
<polygon fill="white" stroke="none" points="-4,4 -4,-495.25 738.75,-495.25 738.75,4 -4,4"/>
<text xml:space="preserve" text-anchor="start" x="300.62" y="-470.95" font-family="Arial" font-weight="bold" font-size="14.00">InfoVisJ.2072.16.png</text>
<text xml:space="preserve" text-anchor="start" x="323.5" y="-451" font-family="Arial" font-size="11.00">Area &#160;| &#160;VC = 0.65</text>
<path fill="#b8e6b8" stroke="none" d="M158,-426C158,-426 166,-426 166,-426 169,-426 172,-429 172,-432 172,-432 172,-438 172,-438 172,-441 169,-444 166,-444 166,-444 158,-444 158,-444 155,-444 152,-441 152,-438 152,-438 152,-432 152,-432 152,-429 155,-426 158,-426"/>
<path fill="none" stroke="black" d="M158,-426C158,-426 166,-426 166,-426 169,-426 172,-429 172,-432 172,-432 172,-438 172,-438 172,-441 169,-444 166,-444 166,-444 158,-444 158,-444 155,-444 152,-441 152,-438 152,-438 152,-432 152,-432 152,-429 155,-426 158,-426"/>
<text xml:space="preserve" text-anchor="start" x="160.5" y="-431.25" font-family="Arial" font-size="10.00"> </text>
<text xml:space="preserve" text-anchor="start" x="176" y="-431.25" font-family="Arial" font-size="10.00">Object</text>
<path fill="#c7b8e6" stroke="none" d="M214.5,-426C214.5,-426 222.5,-426 222.5,-426 225.5,-426 228.5,-429 228.5,-432 228.5,-432 228.5,-438 228.5,-438 228.5,-441 225.5,-444 222.5,-444 222.5,-444 214.5,-444 214.5,-444 211.5,-444 208.5,-441 208.5,-438 208.5,-438 208.5,-432 208.5,-432 208.5,-429 211.5,-426 214.5,-426"/>
<path fill="none" stroke="black" d="M214.5,-426C214.5,-426 222.5,-426 222.5,-426 225.5,-426 228.5,-429 228.5,-432 228.5,-432 228.5,-438 228.5,-438 228.5,-441 225.5,-444 222.5,-444 222.5,-444 214.5,-444 214.5,-444 211.5,-444 208.5,-441 208.5,-438 208.5,-438 208.5,-432 208.5,-432 208.5,-429 211.5,-426 214.5,-426"/>
<text xml:space="preserve" text-anchor="start" x="217" y="-431.25" font-family="Arial" font-size="10.00"> </text>
<text xml:space="preserve" text-anchor="start" x="232.5" y="-431.25" font-family="Arial" font-size="10.00">Attribute</text>
<path fill="#f5b8b8" stroke="none" d="M279.25,-426C279.25,-426 287.25,-426 287.25,-426 290.25,-426 293.25,-429 293.25,-432 293.25,-432 293.25,-438 293.25,-438 293.25,-441 290.25,-444 287.25,-444 287.25,-444 279.25,-444 279.25,-444 276.25,-444 273.25,-441 273.25,-438 273.25,-438 273.25,-432 273.25,-432 273.25,-429 276.25,-426 279.25,-426"/>
<path fill="none" stroke="black" d="M279.25,-426C279.25,-426 287.25,-426 287.25,-426 290.25,-426 293.25,-429 293.25,-432 293.25,-432 293.25,-438 293.25,-438 293.25,-441 290.25,-444 287.25,-444 287.25,-444 279.25,-444 279.25,-444 276.25,-444 273.25,-441 273.25,-438 273.25,-438 273.25,-432 273.25,-432 273.25,-429 276.25,-426 279.25,-426"/>
<text xml:space="preserve" text-anchor="start" x="281.75" y="-431.25" font-family="Arial" font-size="10.00"> </text>
<text xml:space="preserve" text-anchor="start" x="297.25" y="-431.25" font-family="Arial" font-size="10.00">Relationship</text>
<text xml:space="preserve" text-anchor="start" x="357.25" y="-432.5" font-family="Arial" font-weight="bold" font-size="10.00">(+)</text>
<text xml:space="preserve" text-anchor="start" x="369.25" y="-432.5" font-family="Arial" font-size="10.00"> increases complexity</text>
<text xml:space="preserve" text-anchor="start" x="470.5" y="-432.5" font-family="Arial" font-weight="bold" font-size="10.00">(−)</text>
<text xml:space="preserve" text-anchor="start" x="482.5" y="-432.5" font-family="Arial" font-size="10.00"> decreases complexity</text>
<!-- unknown.boxes -->
<g id="node1" class="node">
<title>unknown.boxes</title>
<path fill="#b8e6b8" stroke="#2c3e50" stroke-width="1.8" d="M285,-160C285,-160 255,-160 255,-160 249,-160 243,-154 243,-148 243,-148 243,-136 243,-136 243,-130 249,-124 255,-124 255,-124 285,-124 285,-124 291,-124 297,-130 297,-136 297,-136 297,-148 297,-148 297,-154 291,-160 285,-160"/>
<text xml:space="preserve" text-anchor="middle" x="270" y="-138.5" font-family="Arial" font-size="10.00" fill="#1a1a1a">boxes</text>
</g>
<!-- attr_0 -->
<g id="node6" class="node">
<title>attr_0</title>
<path fill="#c7b8e6" stroke="#7f8c8d" stroke-width="1.2" d="M474.5,-290C474.5,-290 352.75,-290 352.75,-290 346.75,-290 340.75,-284 340.75,-278 340.75,-278 340.75,-266 340.75,-266 340.75,-260 346.75,-254 352.75,-254 352.75,-254 474.5,-254 474.5,-254 480.5,-254 486.5,-260 486.5,-266 486.5,-266 486.5,-278 486.5,-278 486.5,-284 480.5,-290 474.5,-290"/>
<text xml:space="preserve" text-anchor="middle" x="413.62" y="-268.5" font-family="Arial" font-size="10.00" fill="#1a1a1a">(+) numerous discrete shapes</text>
</g>
<!-- unknown.boxes&#45;&gt;attr_0 -->
<g id="edge1" class="edge">
<title>unknown.boxes&#45;&gt;attr_0</title>
<path fill="none" stroke="#aaaaaa" d="M280.06,-160.54C291.44,-182.15 312.79,-217.72 340,-240 344.23,-243.46 348.88,-246.62 353.74,-249.48"/>
<polygon fill="#aaaaaa" stroke="#aaaaaa" points="352.33,-251.5 359.64,-252.73 354.7,-247.21 352.33,-251.5"/>
</g>
<!-- attr_1 -->
<g id="node7" class="node">
<title>attr_1</title>
<path fill="#c7b8e6" stroke="#7f8c8d" stroke-width="1.2" d="M464.38,-225C464.38,-225 362.88,-225 362.88,-225 356.88,-225 350.88,-219 350.88,-213 350.88,-213 350.88,-201 350.88,-201 350.88,-195 356.88,-189 362.88,-189 362.88,-189 464.38,-189 464.38,-189 470.38,-189 476.38,-195 476.38,-201 476.38,-201 476.38,-213 476.38,-213 476.38,-219 470.38,-225 464.38,-225"/>
<text xml:space="preserve" text-anchor="middle" x="413.62" y="-203.5" font-family="Arial" font-size="10.00" fill="#1a1a1a">(+) spatially dense layout</text>
</g>
<!-- unknown.boxes&#45;&gt;attr_1 -->
<g id="edge2" class="edge">
<title>unknown.boxes&#45;&gt;attr_1</title>
<path fill="none" stroke="#aaaaaa" d="M297.78,-155.05C310.52,-161.19 326,-168.57 340,-175 347.23,-178.32 354.89,-181.77 362.43,-185.13"/>
<polygon fill="#aaaaaa" stroke="#aaaaaa" points="361.12,-187.23 368.52,-187.82 363.11,-182.75 361.12,-187.23"/>
</g>
<!-- rel_2 -->
<g id="node14" class="node">
<title>rel_2</title>
<path fill="#f5b8b8" stroke="#d46a6a" stroke-width="1.2" d="M469.62,-160C469.62,-160 357.62,-160 357.62,-160 351.62,-160 345.62,-154 345.62,-148 345.62,-148 345.62,-136 345.62,-136 345.62,-130 351.62,-124 357.62,-124 357.62,-124 469.62,-124 469.62,-124 475.62,-124 481.62,-130 481.62,-136 481.62,-136 481.62,-148 481.62,-148 481.62,-154 475.62,-160 469.62,-160"/>
<text xml:space="preserve" text-anchor="middle" x="413.62" y="-138.5" font-family="Arial" font-size="10.00" fill="#8b0000">requires effort to distinguish</text>
</g>
<!-- unknown.boxes&#45;&gt;rel_2 -->
<g id="edge11" class="edge">
<title>unknown.boxes&#45;&gt;rel_2</title>
<path fill="none" stroke="#d46a6a" stroke-width="1.5" d="M297.64,-142C308.54,-142 321.76,-142 335.3,-142"/>
<polygon fill="#d46a6a" stroke="#d46a6a" stroke-width="1.5" points="334.91,-144.8 342.91,-142 334.91,-139.2 334.91,-144.8"/>
</g>
<!-- text.label -->
<g id="node2" class="node">
<title>text.label</title>
<path fill="#b8e6b8" stroke="#2c3e50" stroke-width="1.8" d="M42,-153C42,-153 12,-153 12,-153 6,-153 0,-147 0,-141 0,-141 0,-129 0,-129 0,-123 6,-117 12,-117 12,-117 42,-117 42,-117 48,-117 54,-123 54,-129 54,-129 54,-141 54,-141 54,-147 48,-153 42,-153"/>
<text xml:space="preserve" text-anchor="middle" x="27" y="-131.5" font-family="Arial" font-size="10.00" fill="#1a1a1a">text</text>
</g>
<!-- attr_2 -->
<g id="node8" class="node">
<title>attr_2</title>
<path fill="#c7b8e6" stroke="#7f8c8d" stroke-width="1.2" d="M188,-218C188,-218 109,-218 109,-218 103,-218 97,-212 97,-206 97,-206 97,-194 97,-194 97,-188 103,-182 109,-182 109,-182 188,-182 188,-182 194,-182 200,-188 200,-194 200,-194 200,-206 200,-206 200,-212 194,-218 188,-218"/>
<text xml:space="preserve" text-anchor="middle" x="148.5" y="-196.5" font-family="Arial" font-size="10.00" fill="#1a1a1a">(+) high text volume</text>
</g>
<!-- text.label&#45;&gt;attr_2 -->
<g id="edge3" class="edge">
<title>text.label&#45;&gt;attr_2</title>
<path fill="none" stroke="#aaaaaa" d="M54.82,-149.59C69.99,-157.84 89.29,-168.34 106.34,-177.61"/>
<polygon fill="#aaaaaa" stroke="#aaaaaa" points="104.84,-179.58 112.16,-180.78 107.18,-175.28 104.84,-179.58"/>
</g>
<!-- rel_1 -->
<g id="node13" class="node">
<title>rel_1</title>
<path fill="#f5b8b8" stroke="#d46a6a" stroke-width="1.2" d="M170.75,-153C170.75,-153 126.25,-153 126.25,-153 120.25,-153 114.25,-147 114.25,-141 114.25,-141 114.25,-129 114.25,-129 114.25,-123 120.25,-117 126.25,-117 126.25,-117 170.75,-117 170.75,-117 176.75,-117 182.75,-123 182.75,-129 182.75,-129 182.75,-141 182.75,-141 182.75,-147 176.75,-153 170.75,-153"/>
<text xml:space="preserve" text-anchor="middle" x="148.5" y="-131.5" font-family="Arial" font-size="10.00" fill="#8b0000">overwhelms</text>
</g>
<!-- text.label&#45;&gt;rel_1 -->
<g id="edge9" class="edge">
<title>text.label&#45;&gt;rel_1</title>
<path fill="none" stroke="#d46a6a" stroke-width="1.5" d="M54.82,-135C69.29,-135 87.52,-135 103.97,-135"/>
<polygon fill="#d46a6a" stroke="#d46a6a" stroke-width="1.5" points="103.66,-137.8 111.66,-135 103.66,-132.2 103.66,-137.8"/>
</g>
<!-- rel_4 -->
<g id="node16" class="node">
<title>rel_4</title>
<path fill="#f5b8b8" stroke="#d46a6a" stroke-width="1.2" d="M163.5,-73C163.5,-73 133.5,-73 133.5,-73 127.5,-73 121.5,-67 121.5,-61 121.5,-61 121.5,-49 121.5,-49 121.5,-43 127.5,-37 133.5,-37 133.5,-37 163.5,-37 163.5,-37 169.5,-37 175.5,-43 175.5,-49 175.5,-49 175.5,-61 175.5,-61 175.5,-67 169.5,-73 163.5,-73"/>
<text xml:space="preserve" text-anchor="middle" x="148.5" y="-51.5" font-family="Arial" font-size="10.00" fill="#8b0000">clutters</text>
</g>
<!-- text.label&#45;&gt;rel_4 -->
<g id="edge15" class="edge">
<title>text.label&#45;&gt;rel_4</title>
<path fill="none" stroke="#d46a6a" stroke-width="1.5" d="M54.82,-117.05C71.93,-105.59 94.27,-90.63 112.74,-78.27"/>
<polygon fill="#d46a6a" stroke="#d46a6a" stroke-width="1.5" points="114.21,-80.66 119.3,-73.88 111.09,-76 114.21,-80.66"/>
</g>
<!-- property.color -->
<g id="node3" class="node">
<title>property.color</title>
<path fill="#b8e6b8" stroke="#2c3e50" stroke-width="1.8" d="M572.25,-161C572.25,-161 542.25,-161 542.25,-161 536.25,-161 530.25,-155 530.25,-149 530.25,-149 530.25,-137 530.25,-137 530.25,-131 536.25,-125 542.25,-125 542.25,-125 572.25,-125 572.25,-125 578.25,-125 584.25,-131 584.25,-137 584.25,-137 584.25,-149 584.25,-149 584.25,-155 578.25,-161 572.25,-161"/>
<text xml:space="preserve" text-anchor="middle" x="557.25" y="-139.5" font-family="Arial" font-size="10.00" fill="#1a1a1a">color</text>
</g>
<!-- attr_3 -->
<g id="node9" class="node">
<title>attr_3</title>
<path fill="#c7b8e6" stroke="#7f8c8d" stroke-width="1.2" d="M721.62,-163C721.62,-163 640.38,-163 640.38,-163 634.38,-163 628.38,-157 628.38,-151 628.38,-151 628.38,-139 628.38,-139 628.38,-133 634.38,-127 640.38,-127 640.38,-127 721.62,-127 721.62,-127 727.62,-127 733.62,-133 733.62,-139 733.62,-139 733.62,-151 733.62,-151 733.62,-157 727.62,-163 721.62,-163"/>
<text xml:space="preserve" text-anchor="middle" x="681" y="-141.5" font-family="Arial" font-size="10.00" fill="#1a1a1a">(+) high color variety</text>
</g>
<!-- property.color&#45;&gt;attr_3 -->
<g id="edge4" class="edge">
<title>property.color&#45;&gt;attr_3</title>
<path fill="none" stroke="#aaaaaa" d="M584.97,-143.44C595.21,-143.61 607.35,-143.81 619.47,-144.01"/>
<polygon fill="#aaaaaa" stroke="#aaaaaa" points="619.29,-146.45 626.33,-144.12 619.37,-141.55 619.29,-146.45"/>
</g>
<!-- rel_0 -->
<g id="node12" class="node">
<title>rel_0</title>
<path fill="#f5b8b8" stroke="#d46a6a" stroke-width="1.2" d="M722.75,-98C722.75,-98 639.25,-98 639.25,-98 633.25,-98 627.25,-92 627.25,-86 627.25,-86 627.25,-74 627.25,-74 627.25,-68 633.25,-62 639.25,-62 639.25,-62 722.75,-62 722.75,-62 728.75,-62 734.75,-68 734.75,-74 734.75,-74 734.75,-86 734.75,-86 734.75,-92 728.75,-98 722.75,-98"/>
<text xml:space="preserve" text-anchor="middle" x="681" y="-76.5" font-family="Arial" font-size="10.00" fill="#8b0000">increases visual load</text>
</g>
<!-- property.color&#45;&gt;rel_0 -->
<g id="edge7" class="edge">
<title>property.color&#45;&gt;rel_0</title>
<path fill="none" stroke="#d46a6a" stroke-width="1.5" d="M584.97,-129.17C599.75,-121.52 618.51,-111.82 635.44,-103.06"/>
<polygon fill="#d46a6a" stroke="#d46a6a" stroke-width="1.5" points="636.27,-105.78 642.09,-99.62 633.7,-100.81 636.27,-105.78"/>
</g>
<!-- furniture.legend -->
<g id="node4" class="node">
<title>furniture.legend</title>
<path fill="#b8e6b8" stroke="#2c3e50" stroke-width="1.8" d="M285,-387C285,-387 255,-387 255,-387 249,-387 243,-381 243,-375 243,-375 243,-363 243,-363 243,-357 249,-351 255,-351 255,-351 285,-351 285,-351 291,-351 297,-357 297,-363 297,-363 297,-375 297,-375 297,-381 291,-387 285,-387"/>
<text xml:space="preserve" text-anchor="middle" x="270" y="-365.5" font-family="Arial" font-size="10.00" fill="#1a1a1a">legend</text>
</g>
<!-- attr_4 -->
<g id="node10" class="node">
<title>attr_4</title>
<path fill="#c7b8e6" stroke="#7f8c8d" stroke-width="1.2" d="M457.25,-420C457.25,-420 370,-420 370,-420 364,-420 358,-414 358,-408 358,-408 358,-396 358,-396 358,-390 364,-384 370,-384 370,-384 457.25,-384 457.25,-384 463.25,-384 469.25,-390 469.25,-396 469.25,-396 469.25,-408 469.25,-408 469.25,-414 463.25,-420 457.25,-420"/>
<text xml:space="preserve" text-anchor="middle" x="413.62" y="-398.5" font-family="Arial" font-size="10.00" fill="#1a1a1a">(+) many color entries</text>
</g>
<!-- furniture.legend&#45;&gt;attr_4 -->
<g id="edge5" class="edge">
<title>furniture.legend&#45;&gt;attr_4</title>
<path fill="none" stroke="#aaaaaa" d="M297.64,-375.21C312.43,-378.65 331.51,-383.1 349.85,-387.37"/>
<polygon fill="#aaaaaa" stroke="#aaaaaa" points="348.81,-389.65 356.18,-388.85 349.92,-384.87 348.81,-389.65"/>
</g>
<!-- rel_3 -->
<g id="node15" class="node">
<title>rel_3</title>
<path fill="#f5b8b8" stroke="#d46a6a" stroke-width="1.2" d="M435.88,-355C435.88,-355 391.38,-355 391.38,-355 385.38,-355 379.38,-349 379.38,-343 379.38,-343 379.38,-331 379.38,-331 379.38,-325 385.38,-319 391.38,-319 391.38,-319 435.88,-319 435.88,-319 441.88,-319 447.88,-325 447.88,-331 447.88,-331 447.88,-343 447.88,-343 447.88,-349 441.88,-355 435.88,-355"/>
<text xml:space="preserve" text-anchor="middle" x="413.62" y="-333.5" font-family="Arial" font-size="10.00" fill="#8b0000">encodes via</text>
</g>
<!-- furniture.legend&#45;&gt;rel_3 -->
<g id="edge13" class="edge">
<title>furniture.legend&#45;&gt;rel_3</title>
<path fill="none" stroke="#d46a6a" stroke-width="1.5" d="M297.64,-362.98C317.67,-358.45 345.56,-352.15 368.85,-346.89"/>
<polygon fill="#d46a6a" stroke="#d46a6a" stroke-width="1.5" points="369.45,-349.63 376.63,-345.13 368.21,-344.16 369.45,-349.63"/>
</g>
<!-- unknown.labels -->
<g id="node5" class="node">
<title>unknown.labels</title>
<path fill="#b8e6b8" stroke="#2c3e50" stroke-width="1.8" d="M285,-44C285,-44 255,-44 255,-44 249,-44 243,-38 243,-32 243,-32 243,-20 243,-20 243,-14 249,-8 255,-8 255,-8 285,-8 285,-8 291,-8 297,-14 297,-20 297,-20 297,-32 297,-32 297,-38 291,-44 285,-44"/>
<text xml:space="preserve" text-anchor="middle" x="270" y="-22.5" font-family="Arial" font-size="10.00" fill="#1a1a1a">labels</text>
</g>
<!-- attr_5 -->
<g id="node11" class="node">
<title>attr_5</title>
<path fill="#c7b8e6" stroke="#7f8c8d" stroke-width="1.2" d="M475.25,-36C475.25,-36 352,-36 352,-36 346,-36 340,-30 340,-24 340,-24 340,-12 340,-12 340,-6 346,0 352,0 352,0 475.25,0 475.25,0 481.25,0 487.25,-6 487.25,-12 487.25,-12 487.25,-24 487.25,-24 487.25,-30 481.25,-36 475.25,-36"/>
<text xml:space="preserve" text-anchor="middle" x="413.62" y="-14.5" font-family="Arial" font-size="10.00" fill="#1a1a1a">(+) abundant label annotations</text>
</g>
<!-- unknown.labels&#45;&gt;attr_5 -->
<g id="edge6" class="edge">
<title>unknown.labels&#45;&gt;attr_5</title>
<path fill="none" stroke="#aaaaaa" d="M297.64,-24.5C307.4,-23.94 319.04,-23.29 331.09,-22.61"/>
<polygon fill="#aaaaaa" stroke="#aaaaaa" points="331.13,-25.06 337.98,-22.22 330.85,-20.17 331.13,-25.06"/>
</g>
<!-- rel_0&#45;&gt;unknown.boxes -->
<g id="edge8" class="edge">
<title>rel_0&#45;&gt;unknown.boxes</title>
<path fill="none" stroke="#d46a6a" stroke-width="1.5" d="M626.89,-79.07C559.14,-79.15 438.9,-83.57 340,-110 328.87,-112.98 317.3,-117.64 306.9,-122.5"/>
<polygon fill="#d46a6a" stroke="#d46a6a" stroke-width="1.5" points="305.72,-119.96 299.75,-125.98 308.17,-124.99 305.72,-119.96"/>
</g>
<!-- rel_1&#45;&gt;unknown.boxes -->
<g id="edge10" class="edge">
<title>rel_1&#45;&gt;unknown.boxes</title>
<path fill="none" stroke="#d46a6a" stroke-width="1.5" d="M183.11,-136.97C198.51,-137.87 216.8,-138.94 232.54,-139.86"/>
<polygon fill="#d46a6a" stroke="#d46a6a" stroke-width="1.5" points="232.03,-142.64 240.18,-140.31 232.36,-137.05 232.03,-142.64"/>
</g>
<!-- rel_2&#45;&gt;property.color -->
<g id="edge12" class="edge">
<title>rel_2&#45;&gt;property.color</title>
<path fill="none" stroke="#d46a6a" stroke-width="1.5" d="M482.12,-142.48C494.99,-142.57 508.01,-142.66 519.47,-142.74"/>
<polygon fill="#d46a6a" stroke="#d46a6a" stroke-width="1.5" points="519.22,-145.54 527.24,-142.8 519.26,-139.94 519.22,-145.54"/>
</g>
<!-- rel_3&#45;&gt;property.color -->
<g id="edge14" class="edge">
<title>rel_3&#45;&gt;property.color</title>
<path fill="none" stroke="#d46a6a" stroke-width="1.5" d="M448.15,-328.17C461.69,-323.21 476.6,-315.78 487.25,-305 524.3,-267.49 542.75,-206.99 550.84,-171.5"/>
<polygon fill="#d46a6a" stroke="#d46a6a" stroke-width="1.5" points="553.51,-172.4 552.46,-163.99 548.04,-171.22 553.51,-172.4"/>
</g>
<!-- rel_4&#45;&gt;unknown.labels -->
<g id="edge16" class="edge">
<title>rel_4&#45;&gt;unknown.labels</title>
<path fill="none" stroke="#d46a6a" stroke-width="1.5" d="M176.02,-48.56C192.54,-44.56 214.02,-39.34 232.17,-34.94"/>
<polygon fill="#d46a6a" stroke="#d46a6a" stroke-width="1.5" points="232.82,-37.66 239.93,-33.05 231.5,-32.22 232.82,-37.66"/>
</g>
</g>
</svg>
