<?xml version="1.0" encoding="UTF-8" standalone="no"?>
<!DOCTYPE svg PUBLIC "-//W3C//DTD SVG 1.1//EN"
 "http://www.w3.org/Graphics/SVG/1.1/DTD/svg11.dtd">
<!-- Generated by graphviz version 14.1.5 (20260411.2331)
 -->
<!-- Title: InfoVisJ.647.7(2).png Pages: 1 -->
<svg width="825pt" height="310pt"
 viewBox="0.00 0.00 825.00 310.00" xmlns="http://www.w3.org/2000/svg" xmlns:xlink="http://www.w3.org/1999/xlink">
<g id="graph0" class="graph" transform="scale(1 1) rotate(0) translate(4 306.25)">
<title>InfoVisJ.647.7(2).png</title>
<polygon fill="white" stroke="none" points="-4,4 -4,-306.25 821,-306.25 821,4 -4,4"/>
<text xml:space="preserve" text-anchor="start" x="341" y="-281.95" font-family="Arial" font-weight="bold" font-size="14.00">InfoVisJ.647.7(2).png</text>
<text xml:space="preserve" text-anchor="start" x="366.5" y="-262" font-family="Arial" font-size="11.00">Text &#160;| &#160;VC = 0.54</text>
<path fill="#b8e6b8" stroke="none" d="M199.12,-237C199.12,-237 207.12,-237 207.12,-237 210.12,-237 213.12,-240 213.12,-243 213.12,-243 213.12,-249 213.12,-249 213.12,-252 210.12,-255 207.12,-255 207.12,-255 199.12,-255 199.12,-255 196.12,-255 193.12,-252 193.12,-249 193.12,-249 193.12,-243 193.12,-243 193.12,-240 196.12,-237 199.12,-237"/>
<path fill="none" stroke="black" d="M199.12,-237C199.12,-237 207.12,-237 207.12,-237 210.12,-237 213.12,-240 213.12,-243 213.12,-243 213.12,-249 213.12,-249 213.12,-252 210.12,-255 207.12,-255 207.12,-255 199.12,-255 199.12,-255 196.12,-255 193.12,-252 193.12,-249 193.12,-249 193.12,-243 193.12,-243 193.12,-240 196.12,-237 199.12,-237"/>
<text xml:space="preserve" text-anchor="start" x="201.62" y="-242.25" font-family="Arial" font-size="10.00"> </text>
<text xml:space="preserve" text-anchor="start" x="217.12" y="-242.25" font-family="Arial" font-size="10.00">Object</text>
<path fill="#c7b8e6" stroke="none" d="M255.62,-237C255.62,-237 263.62,-237 263.62,-237 266.62,-237 269.62,-240 269.62,-243 269.62,-243 269.62,-249 269.62,-249 269.62,-252 266.62,-255 263.62,-255 263.62,-255 255.62,-255 255.62,-255 252.62,-255 249.62,-252 249.62,-249 249.62,-249 249.62,-243 249.62,-243 249.62,-240 252.62,-237 255.62,-237"/>
<path fill="none" stroke="black" d="M255.62,-237C255.62,-237 263.62,-237 263.62,-237 266.62,-237 269.62,-240 269.62,-243 269.62,-243 269.62,-249 269.62,-249 269.62,-252 266.62,-255 263.62,-255 263.62,-255 255.62,-255 255.62,-255 252.62,-255 249.62,-252 249.62,-249 249.62,-249 249.62,-243 249.62,-243 249.62,-240 252.62,-237 255.62,-237"/>
<text xml:space="preserve" text-anchor="start" x="258.12" y="-242.25" font-family="Arial" font-size="10.00"> </text>
<text xml:space="preserve" text-anchor="start" x="273.62" y="-242.25" font-family="Arial" font-size="10.00">Attribute</text>
<path fill="#f5b8b8" stroke="none" d="M320.38,-237C320.38,-237 328.38,-237 328.38,-237 331.38,-237 334.38,-240 334.38,-243 334.38,-243 334.38,-249 334.38,-249 334.38,-252 331.38,-255 328.38,-255 328.38,-255 320.38,-255 320.38,-255 317.38,-255 314.38,-252 314.38,-249 314.38,-249 314.38,-243 314.38,-243 314.38,-240 317.38,-237 320.38,-237"/>
<path fill="none" stroke="black" d="M320.38,-237C320.38,-237 328.38,-237 328.38,-237 331.38,-237 334.38,-240 334.38,-243 334.38,-243 334.38,-249 334.38,-249 334.38,-252 331.38,-255 328.38,-255 328.38,-255 320.38,-255 320.38,-255 317.38,-255 314.38,-252 314.38,-249 314.38,-249 314.38,-243 314.38,-243 314.38,-240 317.38,-237 320.38,-237"/>
<text xml:space="preserve" text-anchor="start" x="322.88" y="-242.25" font-family="Arial" font-size="10.00"> </text>
<text xml:space="preserve" text-anchor="start" x="338.38" y="-242.25" font-family="Arial" font-size="10.00">Relationship</text>
<text xml:space="preserve" text-anchor="start" x="398.38" y="-243.5" font-family="Arial" font-weight="bold" font-size="10.00">(+)</text>
<text xml:space="preserve" text-anchor="start" x="410.38" y="-243.5" font-family="Arial" font-size="10.00"> increases complexity</text>
<text xml:space="preserve" text-anchor="start" x="511.62" y="-243.5" font-family="Arial" font-weight="bold" font-size="10.00">(−)</text>
<text xml:space="preserve" text-anchor="start" x="523.62" y="-243.5" font-family="Arial" font-size="10.00"> decreases complexity</text>
<!-- unknown.right_text -->
<g id="node1" class="node">
<title>unknown.right_text</title>
<path fill="#b8e6b8" stroke="#2c3e50" stroke-width="1.8" d="M382.25,-101C382.25,-101 352,-101 352,-101 346,-101 340,-95 340,-89 340,-89 340,-77 340,-77 340,-71 346,-65 352,-65 352,-65 382.25,-65 382.25,-65 388.25,-65 394.25,-71 394.25,-77 394.25,-77 394.25,-89 394.25,-89 394.25,-95 388.25,-101 382.25,-101"/>
<text xml:space="preserve" text-anchor="middle" x="367.12" y="-79.5" font-family="Arial" font-size="10.00" fill="#1a1a1a">right text</text>
</g>
<!-- attr_0 -->
<g id="node5" class="node">
<title>attr_0</title>
<path fill="#c7b8e6" stroke="#7f8c8d" stroke-width="1.2" d="M543.25,-166C543.25,-166 453,-166 453,-166 447,-166 441,-160 441,-154 441,-154 441,-142 441,-142 441,-136 447,-130 453,-130 453,-130 543.25,-130 543.25,-130 549.25,-130 555.25,-136 555.25,-142 555.25,-142 555.25,-154 555.25,-154 555.25,-160 549.25,-166 543.25,-166"/>
<text xml:space="preserve" text-anchor="middle" x="498.12" y="-144.5" font-family="Arial" font-size="10.00" fill="#1a1a1a">(+) lacks tidy structure</text>
</g>
<!-- unknown.right_text&#45;&gt;attr_0 -->
<g id="edge1" class="edge">
<title>unknown.right_text&#45;&gt;attr_0</title>
<path fill="none" stroke="#aaaaaa" d="M394.85,-96.47C411.66,-104.94 433.76,-116.07 453.1,-125.82"/>
<polygon fill="#aaaaaa" stroke="#aaaaaa" points="451.94,-127.98 459.29,-128.94 454.15,-123.6 451.94,-127.98"/>
</g>
<!-- attr_1 -->
<g id="node6" class="node">
<title>attr_1</title>
<path fill="#c7b8e6" stroke="#7f8c8d" stroke-width="1.2" d="M547,-101C547,-101 449.25,-101 449.25,-101 443.25,-101 437.25,-95 437.25,-89 437.25,-89 437.25,-77 437.25,-77 437.25,-71 443.25,-65 449.25,-65 449.25,-65 547,-65 547,-65 553,-65 559,-71 559,-77 559,-77 559,-89 559,-89 559,-95 553,-101 547,-101"/>
<text xml:space="preserve" text-anchor="middle" x="498.12" y="-79.5" font-family="Arial" font-size="10.00" fill="#1a1a1a">(+) looks random messy</text>
</g>
<!-- unknown.right_text&#45;&gt;attr_1 -->
<g id="edge2" class="edge">
<title>unknown.right_text&#45;&gt;attr_1</title>
<path fill="none" stroke="#aaaaaa" d="M394.85,-83C404.75,-83 416.47,-83 428.39,-83"/>
<polygon fill="#aaaaaa" stroke="#aaaaaa" points="428.14,-85.45 435.14,-83 428.14,-80.55 428.14,-85.45"/>
</g>
<!-- rel_0 -->
<g id="node10" class="node">
<title>rel_0</title>
<path fill="#f5b8b8" stroke="#d46a6a" stroke-width="1.2" d="M524.88,-36C524.88,-36 471.38,-36 471.38,-36 465.38,-36 459.38,-30 459.38,-24 459.38,-24 459.38,-12 459.38,-12 459.38,-6 465.38,0 471.38,0 471.38,0 524.88,0 524.88,0 530.88,0 536.88,-6 536.88,-12 536.88,-12 536.88,-24 536.88,-24 536.88,-30 530.88,-36 524.88,-36"/>
<text xml:space="preserve" text-anchor="middle" x="498.12" y="-14.5" font-family="Arial" font-size="10.00" fill="#8b0000">contrasts with</text>
</g>
<!-- unknown.right_text&#45;&gt;rel_0 -->
<g id="edge6" class="edge">
<title>unknown.right_text&#45;&gt;rel_0</title>
<path fill="none" stroke="#d46a6a" stroke-width="1.5" d="M394.85,-69.53C411.22,-61.29 432.59,-50.52 451.56,-40.96"/>
<polygon fill="#d46a6a" stroke="#d46a6a" stroke-width="1.5" points="452.73,-43.5 458.62,-37.4 450.21,-38.5 452.73,-43.5"/>
</g>
<!-- unknown.left_text -->
<g id="node2" class="node">
<title>unknown.left_text</title>
<path fill="#b8e6b8" stroke="#2c3e50" stroke-width="1.8" d="M644,-36C644,-36 614,-36 614,-36 608,-36 602,-30 602,-24 602,-24 602,-12 602,-12 602,-6 608,0 614,0 614,0 644,0 644,0 650,0 656,-6 656,-12 656,-12 656,-24 656,-24 656,-30 650,-36 644,-36"/>
<text xml:space="preserve" text-anchor="middle" x="629" y="-14.5" font-family="Arial" font-size="10.00" fill="#1a1a1a">left text</text>
</g>
<!-- attr_2 -->
<g id="node7" class="node">
<title>attr_2</title>
<path fill="#c7b8e6" stroke="#7f8c8d" stroke-width="1.2" d="M805,-36C805,-36 711,-36 711,-36 705,-36 699,-30 699,-24 699,-24 699,-12 699,-12 699,-6 705,0 711,0 711,0 805,0 805,0 811,0 817,-6 817,-12 817,-12 817,-24 817,-24 817,-30 811,-36 805,-36"/>
<text xml:space="preserve" text-anchor="middle" x="758" y="-14.5" font-family="Arial" font-size="10.00" fill="#1a1a1a">(−) organized and clean</text>
</g>
<!-- unknown.left_text&#45;&gt;attr_2 -->
<g id="edge3" class="edge">
<title>unknown.left_text&#45;&gt;attr_2</title>
<path fill="none" stroke="#aaaaaa" d="M656.62,-18C666.55,-18 678.32,-18 690.24,-18"/>
<polygon fill="#aaaaaa" stroke="#aaaaaa" points="689.99,-20.45 696.99,-18 689.99,-15.55 689.99,-20.45"/>
</g>
<!-- unknown.layout_structure -->
<g id="node3" class="node">
<title>unknown.layout_structure</title>
<path fill="#b8e6b8" stroke="#2c3e50" stroke-width="1.8" d="M74.5,-69C74.5,-69 15,-69 15,-69 9,-69 3,-63 3,-57 3,-57 3,-45 3,-45 3,-39 9,-33 15,-33 15,-33 74.5,-33 74.5,-33 80.5,-33 86.5,-39 86.5,-45 86.5,-45 86.5,-57 86.5,-57 86.5,-63 80.5,-69 74.5,-69"/>
<text xml:space="preserve" text-anchor="middle" x="44.75" y="-47.5" font-family="Arial" font-size="10.00" fill="#1a1a1a">layout structure</text>
</g>
<!-- attr_3 -->
<g id="node8" class="node">
<title>attr_3</title>
<path fill="#c7b8e6" stroke="#7f8c8d" stroke-width="1.2" d="M274.88,-101C274.88,-101 154.62,-101 154.62,-101 148.62,-101 142.62,-95 142.62,-89 142.62,-89 142.62,-77 142.62,-77 142.62,-71 148.62,-65 154.62,-65 154.62,-65 274.88,-65 274.88,-65 280.88,-65 286.88,-71 286.88,-77 286.88,-77 286.88,-89 286.88,-89 286.88,-95 280.88,-101 274.88,-101"/>
<text xml:space="preserve" text-anchor="middle" x="214.75" y="-79.5" font-family="Arial" font-size="10.00" fill="#1a1a1a">(+) inconsistent spatial layout</text>
</g>
<!-- unknown.layout_structure&#45;&gt;attr_3 -->
<g id="edge4" class="edge">
<title>unknown.layout_structure&#45;&gt;attr_3</title>
<path fill="none" stroke="#aaaaaa" d="M87.28,-58.91C101.56,-61.63 118.06,-64.77 134.33,-67.87"/>
<polygon fill="#aaaaaa" stroke="#aaaaaa" points="133.47,-70.2 140.8,-69.1 134.38,-65.39 133.47,-70.2"/>
</g>
<!-- rel_2 -->
<g id="node12" class="node">
<title>rel_2</title>
<path fill="#f5b8b8" stroke="#d46a6a" stroke-width="1.2" d="M251.62,-36C251.62,-36 177.88,-36 177.88,-36 171.88,-36 165.88,-30 165.88,-24 165.88,-24 165.88,-12 165.88,-12 165.88,-6 171.88,0 177.88,0 177.88,0 251.62,0 251.62,0 257.62,0 263.62,-6 263.62,-12 263.62,-12 263.62,-24 263.62,-24 263.62,-30 257.62,-36 251.62,-36"/>
<text xml:space="preserve" text-anchor="middle" x="214.75" y="-14.5" font-family="Arial" font-size="10.00" fill="#8b0000">lacks coherence in</text>
</g>
<!-- unknown.layout_structure&#45;&gt;rel_2 -->
<g id="edge10" class="edge">
<title>unknown.layout_structure&#45;&gt;rel_2</title>
<path fill="none" stroke="#d46a6a" stroke-width="1.5" d="M87.28,-42.84C107.93,-38.79 133.23,-33.82 155.76,-29.39"/>
<polygon fill="#d46a6a" stroke="#d46a6a" stroke-width="1.5" points="156.02,-32.19 163.33,-27.9 154.94,-26.7 156.02,-32.19"/>
</g>
<!-- unknown.text_arrangement -->
<g id="node4" class="node">
<title>unknown.text_arrangement</title>
<path fill="#b8e6b8" stroke="#2c3e50" stroke-width="1.8" d="M77.5,-198C77.5,-198 12,-198 12,-198 6,-198 0,-192 0,-186 0,-186 0,-174 0,-174 0,-168 6,-162 12,-162 12,-162 77.5,-162 77.5,-162 83.5,-162 89.5,-168 89.5,-174 89.5,-174 89.5,-186 89.5,-186 89.5,-192 83.5,-198 77.5,-198"/>
<text xml:space="preserve" text-anchor="middle" x="44.75" y="-176.5" font-family="Arial" font-size="10.00" fill="#1a1a1a">text arrangement</text>
</g>
<!-- attr_4 -->
<g id="node9" class="node">
<title>attr_4</title>
<path fill="#c7b8e6" stroke="#7f8c8d" stroke-width="1.2" d="M273.75,-231C273.75,-231 155.75,-231 155.75,-231 149.75,-231 143.75,-225 143.75,-219 143.75,-219 143.75,-207 143.75,-207 143.75,-201 149.75,-195 155.75,-195 155.75,-195 273.75,-195 273.75,-195 279.75,-195 285.75,-201 285.75,-207 285.75,-207 285.75,-219 285.75,-219 285.75,-225 279.75,-231 273.75,-231"/>
<text xml:space="preserve" text-anchor="middle" x="214.75" y="-209.5" font-family="Arial" font-size="10.00" fill="#1a1a1a">(+) irregular text arrangement</text>
</g>
<!-- unknown.text_arrangement&#45;&gt;attr_4 -->
<g id="edge5" class="edge">
<title>unknown.text_arrangement&#45;&gt;attr_4</title>
<path fill="none" stroke="#aaaaaa" d="M90.33,-188.76C104.15,-191.47 119.82,-194.55 135.24,-197.58"/>
<polygon fill="#aaaaaa" stroke="#aaaaaa" points="134.44,-199.92 141.78,-198.86 135.39,-195.11 134.44,-199.92"/>
</g>
<!-- rel_1 -->
<g id="node11" class="node">
<title>rel_1</title>
<path fill="#f5b8b8" stroke="#d46a6a" stroke-width="1.2" d="M285,-166C285,-166 144.5,-166 144.5,-166 138.5,-166 132.5,-160 132.5,-154 132.5,-154 132.5,-142 132.5,-142 132.5,-136 138.5,-130 144.5,-130 144.5,-130 285,-130 285,-130 291,-130 297,-136 297,-142 297,-142 297,-154 297,-154 297,-160 291,-166 285,-166"/>
<text xml:space="preserve" text-anchor="middle" x="214.75" y="-144.5" font-family="Arial" font-size="10.00" fill="#8b0000">increases perceived complexity of</text>
</g>
<!-- unknown.text_arrangement&#45;&gt;rel_1 -->
<g id="edge8" class="edge">
<title>unknown.text_arrangement&#45;&gt;rel_1</title>
<path fill="none" stroke="#d46a6a" stroke-width="1.5" d="M90.33,-171.51C100.15,-169.64 110.91,-167.59 121.84,-165.51"/>
<polygon fill="#d46a6a" stroke="#d46a6a" stroke-width="1.5" points="122.35,-168.26 129.68,-164.01 121.3,-162.76 122.35,-168.26"/>
</g>
<!-- rel_0&#45;&gt;unknown.left_text -->
<g id="edge7" class="edge">
<title>rel_0&#45;&gt;unknown.left_text</title>
<path fill="none" stroke="#d46a6a" stroke-width="1.5" d="M537.44,-18C554.52,-18 574.55,-18 591.43,-18"/>
<polygon fill="#d46a6a" stroke="#d46a6a" stroke-width="1.5" points="591.2,-20.8 599.2,-18 591.2,-15.2 591.2,-20.8"/>
</g>
<!-- rel_1&#45;&gt;unknown.right_text -->
<g id="edge9" class="edge">
<title>rel_1&#45;&gt;unknown.right_text</title>
<path fill="none" stroke="#d46a6a" stroke-width="1.5" d="M264.53,-129.43C275.28,-125.16 286.57,-120.54 297,-116 307.94,-111.24 319.7,-105.76 330.37,-100.66"/>
<polygon fill="#d46a6a" stroke="#d46a6a" stroke-width="1.5" points="331.38,-103.28 337.36,-97.28 328.94,-98.24 331.38,-103.28"/>
</g>
<!-- rel_2&#45;&gt;unknown.right_text -->
<g id="edge11" class="edge">
<title>rel_2&#45;&gt;unknown.right_text</title>
<path fill="none" stroke="#d46a6a" stroke-width="1.5" d="M262.31,-36.47C273.7,-41.11 285.83,-46.15 297,-51 307.88,-55.73 319.63,-61.07 330.29,-66.02"/>
<polygon fill="#d46a6a" stroke="#d46a6a" stroke-width="1.5" points="328.85,-68.43 337.28,-69.28 331.22,-63.36 328.85,-68.43"/>
</g>
</g>
</svg>
