<?xml version="1.0" encoding="UTF-8" standalone="no"?>
<!DOCTYPE svg PUBLIC "-//W3C//DTD SVG 1.1//EN"
 "http://www.w3.org/Graphics/SVG/1.1/DTD/svg11.dtd">
<!-- Generated by graphviz version 14.1.5 (20260411.2331)
 -->
<!-- Title: InfoVisJ.621.6(2).png Pages: 1 -->
<svg width="535pt" height="389pt"
 viewBox="0.00 0.00 535.00 389.00" xmlns="http://www.w3.org/2000/svg" xmlns:xlink="http://www.w3.org/1999/xlink">
<g id="graph0" class="graph" transform="scale(1 1) rotate(0) translate(4 385.25)">
<title>InfoVisJ.621.6(2).png</title>
<polygon fill="white" stroke="none" points="-4,4 -4,-385.25 530.5,-385.25 530.5,4 -4,4"/>
<text xml:space="preserve" text-anchor="start" x="195.75" y="-360.95" font-family="Arial" font-weight="bold" font-size="14.00">InfoVisJ.621.6(2).png</text>
<text xml:space="preserve" text-anchor="start" x="221.25" y="-341" font-family="Arial" font-size="11.00">Text &#160;| &#160;VC = 0.38</text>
<path fill="#b8e6b8" stroke="none" d="M53.88,-316C53.88,-316 61.88,-316 61.88,-316 64.88,-316 67.88,-319 67.88,-322 67.88,-322 67.88,-328 67.88,-328 67.88,-331 64.88,-334 61.88,-334 61.88,-334 53.88,-334 53.88,-334 50.88,-334 47.88,-331 47.88,-328 47.88,-328 47.88,-322 47.88,-322 47.88,-319 50.88,-316 53.88,-316"/>
<path fill="none" stroke="black" d="M53.88,-316C53.88,-316 61.88,-316 61.88,-316 64.88,-316 67.88,-319 67.88,-322 67.88,-322 67.88,-328 67.88,-328 67.88,-331 64.88,-334 61.88,-334 61.88,-334 53.88,-334 53.88,-334 50.88,-334 47.88,-331 47.88,-328 47.88,-328 47.88,-322 47.88,-322 47.88,-319 50.88,-316 53.88,-316"/>
<text xml:space="preserve" text-anchor="start" x="56.38" y="-321.25" font-family="Arial" font-size="10.00"> </text>
<text xml:space="preserve" text-anchor="start" x="71.88" y="-321.25" font-family="Arial" font-size="10.00">Object</text>
<path fill="#c7b8e6" stroke="none" d="M110.38,-316C110.38,-316 118.38,-316 118.38,-316 121.38,-316 124.38,-319 124.38,-322 124.38,-322 124.38,-328 124.38,-328 124.38,-331 121.38,-334 118.38,-334 118.38,-334 110.38,-334 110.38,-334 107.38,-334 104.38,-331 104.38,-328 104.38,-328 104.38,-322 104.38,-322 104.38,-319 107.38,-316 110.38,-316"/>
<path fill="none" stroke="black" d="M110.38,-316C110.38,-316 118.38,-316 118.38,-316 121.38,-316 124.38,-319 124.38,-322 124.38,-322 124.38,-328 124.38,-328 124.38,-331 121.38,-334 118.38,-334 118.38,-334 110.38,-334 110.38,-334 107.38,-334 104.38,-331 104.38,-328 104.38,-328 104.38,-322 104.38,-322 104.38,-319 107.38,-316 110.38,-316"/>
<text xml:space="preserve" text-anchor="start" x="112.88" y="-321.25" font-family="Arial" font-size="10.00"> </text>
<text xml:space="preserve" text-anchor="start" x="128.38" y="-321.25" font-family="Arial" font-size="10.00">Attribute</text>
<path fill="#f5b8b8" stroke="none" d="M175.12,-316C175.12,-316 183.12,-316 183.12,-316 186.12,-316 189.12,-319 189.12,-322 189.12,-322 189.12,-328 189.12,-328 189.12,-331 186.12,-334 183.12,-334 183.12,-334 175.12,-334 175.12,-334 172.12,-334 169.12,-331 169.12,-328 169.12,-328 169.12,-322 169.12,-322 169.12,-319 172.12,-316 175.12,-316"/>
<path fill="none" stroke="black" d="M175.12,-316C175.12,-316 183.12,-316 183.12,-316 186.12,-316 189.12,-319 189.12,-322 189.12,-322 189.12,-328 189.12,-328 189.12,-331 186.12,-334 183.12,-334 183.12,-334 175.12,-334 175.12,-334 172.12,-334 169.12,-331 169.12,-328 169.12,-328 169.12,-322 169.12,-322 169.12,-319 172.12,-316 175.12,-316"/>
<text xml:space="preserve" text-anchor="start" x="177.62" y="-321.25" font-family="Arial" font-size="10.00"> </text>
<text xml:space="preserve" text-anchor="start" x="193.12" y="-321.25" font-family="Arial" font-size="10.00">Relationship</text>
<text xml:space="preserve" text-anchor="start" x="253.12" y="-322.5" font-family="Arial" font-weight="bold" font-size="10.00">(+)</text>
<text xml:space="preserve" text-anchor="start" x="265.12" y="-322.5" font-family="Arial" font-size="10.00"> increases complexity</text>
<text xml:space="preserve" text-anchor="start" x="366.38" y="-322.5" font-family="Arial" font-weight="bold" font-size="10.00">(−)</text>
<text xml:space="preserve" text-anchor="start" x="378.38" y="-322.5" font-family="Arial" font-size="10.00"> decreases complexity</text>
<!-- unknown.words -->
<g id="node1" class="node">
<title>unknown.words</title>
<path fill="#b8e6b8" stroke="#2c3e50" stroke-width="1.8" d="M42,-98C42,-98 12,-98 12,-98 6,-98 0,-92 0,-86 0,-86 0,-74 0,-74 0,-68 6,-62 12,-62 12,-62 42,-62 42,-62 48,-62 54,-68 54,-74 54,-74 54,-86 54,-86 54,-92 48,-98 42,-98"/>
<text xml:space="preserve" text-anchor="middle" x="27" y="-76.5" font-family="Arial" font-size="10.00" fill="#1a1a1a">words</text>
</g>
<!-- attr_0 -->
<g id="node5" class="node">
<title>attr_0</title>
<path fill="#c7b8e6" stroke="#7f8c8d" stroke-width="1.2" d="M202.25,-163C202.25,-163 122.5,-163 122.5,-163 116.5,-163 110.5,-157 110.5,-151 110.5,-151 110.5,-139 110.5,-139 110.5,-133 116.5,-127 122.5,-127 122.5,-127 202.25,-127 202.25,-127 208.25,-127 214.25,-133 214.25,-139 214.25,-139 214.25,-151 214.25,-151 214.25,-157 208.25,-163 202.25,-163"/>
<text xml:space="preserve" text-anchor="middle" x="162.38" y="-141.5" font-family="Arial" font-size="10.00" fill="#1a1a1a">(−) familiar to reader</text>
</g>
<!-- unknown.words&#45;&gt;attr_0 -->
<g id="edge1" class="edge">
<title>unknown.words&#45;&gt;attr_0</title>
<path fill="none" stroke="#aaaaaa" d="M54.67,-93C72.13,-101.51 95.39,-112.84 115.74,-122.76"/>
<polygon fill="#aaaaaa" stroke="#aaaaaa" points="114.66,-124.96 122.02,-125.82 116.8,-120.55 114.66,-124.96"/>
</g>
<!-- rel_0 -->
<g id="node10" class="node">
<title>rel_0</title>
<path fill="#f5b8b8" stroke="#d46a6a" stroke-width="1.2" d="M195.12,-98C195.12,-98 129.62,-98 129.62,-98 123.62,-98 117.62,-92 117.62,-86 117.62,-86 117.62,-74 117.62,-74 117.62,-68 123.62,-62 129.62,-62 129.62,-62 195.12,-62 195.12,-62 201.12,-62 207.12,-68 207.12,-74 207.12,-74 207.12,-86 207.12,-86 207.12,-92 201.12,-98 195.12,-98"/>
<text xml:space="preserve" text-anchor="middle" x="162.38" y="-76.5" font-family="Arial" font-size="10.00" fill="#8b0000">reduces effort for</text>
</g>
<!-- unknown.words&#45;&gt;rel_0 -->
<g id="edge6" class="edge">
<title>unknown.words&#45;&gt;rel_0</title>
<path fill="none" stroke="#d46a6a" stroke-width="1.5" d="M54.67,-80C69.67,-80 88.97,-80 107.01,-80"/>
<polygon fill="#d46a6a" stroke="#d46a6a" stroke-width="1.5" points="106.89,-82.8 114.89,-80 106.89,-77.2 106.89,-82.8"/>
</g>
<!-- unknown.numbers -->
<g id="node2" class="node">
<title>unknown.numbers</title>
<path fill="#b8e6b8" stroke="#2c3e50" stroke-width="1.8" d="M42,-277C42,-277 12,-277 12,-277 6,-277 0,-271 0,-265 0,-265 0,-253 0,-253 0,-247 6,-241 12,-241 12,-241 42,-241 42,-241 48,-241 54,-247 54,-253 54,-253 54,-265 54,-265 54,-271 48,-277 42,-277"/>
<text xml:space="preserve" text-anchor="middle" x="27" y="-255.5" font-family="Arial" font-size="10.00" fill="#1a1a1a">numbers</text>
</g>
<!-- attr_1 -->
<g id="node6" class="node">
<title>attr_1</title>
<path fill="#c7b8e6" stroke="#7f8c8d" stroke-width="1.2" d="M215.75,-310C215.75,-310 109,-310 109,-310 103,-310 97,-304 97,-298 97,-298 97,-286 97,-286 97,-280 103,-274 109,-274 109,-274 215.75,-274 215.75,-274 221.75,-274 227.75,-280 227.75,-286 227.75,-286 227.75,-298 227.75,-298 227.75,-304 221.75,-310 215.75,-310"/>
<text xml:space="preserve" text-anchor="middle" x="162.38" y="-288.5" font-family="Arial" font-size="10.00" fill="#1a1a1a">(−) familiar numeric format</text>
</g>
<!-- unknown.numbers&#45;&gt;attr_1 -->
<g id="edge2" class="edge">
<title>unknown.numbers&#45;&gt;attr_1</title>
<path fill="none" stroke="#aaaaaa" d="M54.67,-265.6C64.65,-268.07 76.52,-271.01 88.66,-274.01"/>
<polygon fill="#aaaaaa" stroke="#aaaaaa" points="87.81,-276.32 95.2,-275.63 88.99,-271.57 87.81,-276.32"/>
</g>
<!-- rel_1 -->
<g id="node11" class="node">
<title>rel_1</title>
<path fill="#f5b8b8" stroke="#d46a6a" stroke-width="1.2" d="M206.38,-245C206.38,-245 118.38,-245 118.38,-245 112.38,-245 106.38,-239 106.38,-233 106.38,-233 106.38,-221 106.38,-221 106.38,-215 112.38,-209 118.38,-209 118.38,-209 206.38,-209 206.38,-209 212.38,-209 218.38,-215 218.38,-221 218.38,-221 218.38,-233 218.38,-233 218.38,-239 212.38,-245 206.38,-245"/>
<text xml:space="preserve" text-anchor="middle" x="162.38" y="-223.5" font-family="Arial" font-size="10.00" fill="#8b0000">supports readability of</text>
</g>
<!-- unknown.numbers&#45;&gt;rel_1 -->
<g id="edge8" class="edge">
<title>unknown.numbers&#45;&gt;rel_1</title>
<path fill="none" stroke="#d46a6a" stroke-width="1.5" d="M54.67,-252.6C66.71,-249.71 81.5,-246.16 96.2,-242.64"/>
<polygon fill="#d46a6a" stroke="#d46a6a" stroke-width="1.5" points="96.48,-245.45 103.6,-240.86 95.17,-240 96.48,-245.45"/>
</g>
<!-- unknown.text_layout -->
<g id="node3" class="node">
<title>unknown.text_layout</title>
<path fill="#b8e6b8" stroke="#2c3e50" stroke-width="1.8" d="M328.38,-245C328.38,-245 290.62,-245 290.62,-245 284.62,-245 278.62,-239 278.62,-233 278.62,-233 278.62,-221 278.62,-221 278.62,-215 284.62,-209 290.62,-209 290.62,-209 328.38,-209 328.38,-209 334.38,-209 340.38,-215 340.38,-221 340.38,-221 340.38,-233 340.38,-233 340.38,-239 334.38,-245 328.38,-245"/>
<text xml:space="preserve" text-anchor="middle" x="309.5" y="-223.5" font-family="Arial" font-size="10.00" fill="#1a1a1a">text layout</text>
</g>
<!-- attr_2 -->
<g id="node7" class="node">
<title>attr_2</title>
<path fill="#c7b8e6" stroke="#7f8c8d" stroke-width="1.2" d="M502.5,-262C502.5,-262 415.25,-262 415.25,-262 409.25,-262 403.25,-256 403.25,-250 403.25,-250 403.25,-238 403.25,-238 403.25,-232 409.25,-226 415.25,-226 415.25,-226 502.5,-226 502.5,-226 508.5,-226 514.5,-232 514.5,-238 514.5,-238 514.5,-250 514.5,-250 514.5,-256 508.5,-262 502.5,-262"/>
<text xml:space="preserve" text-anchor="middle" x="458.88" y="-240.5" font-family="Arial" font-size="10.00" fill="#1a1a1a">(−) clear readable text</text>
</g>
<!-- unknown.text_layout&#45;&gt;attr_2 -->
<g id="edge3" class="edge">
<title>unknown.text_layout&#45;&gt;attr_2</title>
<path fill="none" stroke="#aaaaaa" d="M341.04,-230.52C356.46,-232.3 375.79,-234.53 394.25,-236.66"/>
<polygon fill="#aaaaaa" stroke="#aaaaaa" points="393.92,-239.09 401.15,-237.46 394.48,-234.22 393.92,-239.09"/>
</g>
<!-- attr_4 -->
<g id="node8" class="node">
<title>attr_4</title>
<path fill="#c7b8e6" stroke="#7f8c8d" stroke-width="1.2" d="M499.12,-197C499.12,-197 418.62,-197 418.62,-197 412.62,-197 406.62,-191 406.62,-185 406.62,-185 406.62,-173 406.62,-173 406.62,-167 412.62,-161 418.62,-161 418.62,-161 499.12,-161 499.12,-161 505.12,-161 511.12,-167 511.12,-173 511.12,-173 511.12,-185 511.12,-185 511.12,-191 505.12,-197 499.12,-197"/>
<text xml:space="preserve" text-anchor="middle" x="458.88" y="-175.5" font-family="Arial" font-size="10.00" fill="#1a1a1a">(−) low visual clutter</text>
</g>
<!-- unknown.text_layout&#45;&gt;attr_4 -->
<g id="edge4" class="edge">
<title>unknown.text_layout&#45;&gt;attr_4</title>
<path fill="none" stroke="#aaaaaa" d="M341.04,-217.05C357.56,-211.67 378.56,-204.83 398.18,-198.44"/>
<polygon fill="#aaaaaa" stroke="#aaaaaa" points="398.86,-200.8 404.75,-196.3 397.34,-196.14 398.86,-200.8"/>
</g>
<!-- unknown.representation -->
<g id="node4" class="node">
<title>unknown.representation</title>
<path fill="#b8e6b8" stroke="#2c3e50" stroke-width="1.8" d="M336.25,-98C336.25,-98 282.75,-98 282.75,-98 276.75,-98 270.75,-92 270.75,-86 270.75,-86 270.75,-74 270.75,-74 270.75,-68 276.75,-62 282.75,-62 282.75,-62 336.25,-62 336.25,-62 342.25,-62 348.25,-68 348.25,-74 348.25,-74 348.25,-86 348.25,-86 348.25,-92 342.25,-98 336.25,-98"/>
<text xml:space="preserve" text-anchor="middle" x="309.5" y="-76.5" font-family="Arial" font-size="10.00" fill="#1a1a1a">representation</text>
</g>
<!-- attr_3 -->
<g id="node9" class="node">
<title>attr_3</title>
<path fill="#c7b8e6" stroke="#7f8c8d" stroke-width="1.2" d="M514.5,-101C514.5,-101 403.25,-101 403.25,-101 397.25,-101 391.25,-95 391.25,-89 391.25,-89 391.25,-77 391.25,-77 391.25,-71 397.25,-65 403.25,-65 403.25,-65 514.5,-65 514.5,-65 520.5,-65 526.5,-71 526.5,-77 526.5,-77 526.5,-89 526.5,-89 526.5,-95 520.5,-101 514.5,-101"/>
<text xml:space="preserve" text-anchor="middle" x="458.88" y="-79.5" font-family="Arial" font-size="10.00" fill="#1a1a1a">(−) easily interpretable form</text>
</g>
<!-- unknown.representation&#45;&gt;attr_3 -->
<g id="edge5" class="edge">
<title>unknown.representation&#45;&gt;attr_3</title>
<path fill="none" stroke="#aaaaaa" d="M348.84,-80.78C359.2,-80.99 370.78,-81.23 382.43,-81.46"/>
<polygon fill="#aaaaaa" stroke="#aaaaaa" points="382.34,-83.91 389.39,-81.61 382.44,-79.01 382.34,-83.91"/>
</g>
<!-- rel_2 -->
<g id="node12" class="node">
<title>rel_2</title>
<path fill="#f5b8b8" stroke="#d46a6a" stroke-width="1.2" d="M513,-36C513,-36 404.75,-36 404.75,-36 398.75,-36 392.75,-30 392.75,-24 392.75,-24 392.75,-12 392.75,-12 392.75,-6 398.75,0 404.75,0 404.75,0 513,0 513,0 519,0 525,-6 525,-12 525,-12 525,-24 525,-24 525,-30 519,-36 513,-36"/>
<text xml:space="preserve" text-anchor="middle" x="458.88" y="-14.5" font-family="Arial" font-size="10.00" fill="#8b0000">conveys clear meaning via</text>
</g>
<!-- unknown.representation&#45;&gt;rel_2 -->
<g id="edge10" class="edge">
<title>unknown.representation&#45;&gt;rel_2</title>
<path fill="none" stroke="#d46a6a" stroke-width="1.5" d="M348.84,-63.87C365.76,-56.75 385.94,-48.26 404.31,-40.53"/>
<polygon fill="#d46a6a" stroke="#d46a6a" stroke-width="1.5" points="405.35,-43.14 411.64,-37.45 403.18,-37.97 405.35,-43.14"/>
</g>
<!-- rel_0&#45;&gt;unknown.representation -->
<g id="edge7" class="edge">
<title>rel_0&#45;&gt;unknown.representation</title>
<path fill="none" stroke="#d46a6a" stroke-width="1.5" d="M207.71,-80C224.27,-80 243.17,-80 260.08,-80"/>
<polygon fill="#d46a6a" stroke="#d46a6a" stroke-width="1.5" points="260.05,-82.8 268.05,-80 260.05,-77.2 260.05,-82.8"/>
</g>
<!-- rel_1&#45;&gt;unknown.text_layout -->
<g id="edge9" class="edge">
<title>rel_1&#45;&gt;unknown.text_layout</title>
<path fill="none" stroke="#d46a6a" stroke-width="1.5" d="M218.65,-227C234.93,-227 252.43,-227 267.62,-227"/>
<polygon fill="#d46a6a" stroke="#d46a6a" stroke-width="1.5" points="267.46,-229.8 275.46,-227 267.46,-224.2 267.46,-229.8"/>
</g>
<!-- rel_2&#45;&gt;unknown.words -->
<g id="edge11" class="edge">
<title>rel_2&#45;&gt;unknown.words</title>
<path fill="none" stroke="#d46a6a" stroke-width="1.5" d="M392.45,-16.17C319.21,-15.74 197.59,-19.9 97,-47 85.69,-50.05 73.99,-54.91 63.51,-59.97"/>
<polygon fill="#d46a6a" stroke="#d46a6a" stroke-width="1.5" points="62.56,-57.32 56.67,-63.42 65.08,-62.32 62.56,-57.32"/>
</g>
</g>
</svg>
