<?xml version="1.0" encoding="UTF-8" standalone="no"?>
<!DOCTYPE svg PUBLIC "-//W3C//DTD SVG 1.1//EN"
 "http://www.w3.org/Graphics/SVG/1.1/DTD/svg11.dtd">
<!-- Generated by graphviz version 14.1.5 (20260411.2331)
 -->
<!-- Title: InfoVisJ.349.1(3).png Pages: 1 -->
<svg width="853pt" height="407pt"
 viewBox="0.00 0.00 853.00 407.00" xmlns="http://www.w3.org/2000/svg" xmlns:xlink="http://www.w3.org/1999/xlink">
<g id="graph0" class="graph" transform="scale(1 1) rotate(0) translate(4 403.25)">
<title>InfoVisJ.349.1(3).png</title>
<polygon fill="white" stroke="none" points="-4,4 -4,-403.25 848.75,-403.25 848.75,4 -4,4"/>
<text xml:space="preserve" text-anchor="start" x="354.88" y="-378.95" font-family="Arial" font-weight="bold" font-size="14.00">InfoVisJ.349.1(3).png</text>
<text xml:space="preserve" text-anchor="start" x="367.25" y="-359" font-family="Arial" font-size="11.00">Node&#45;link &#160;| &#160;VC = 0.64</text>
<path fill="#b8e6b8" stroke="none" d="M213,-334C213,-334 221,-334 221,-334 224,-334 227,-337 227,-340 227,-340 227,-346 227,-346 227,-349 224,-352 221,-352 221,-352 213,-352 213,-352 210,-352 207,-349 207,-346 207,-346 207,-340 207,-340 207,-337 210,-334 213,-334"/>
<path fill="none" stroke="black" d="M213,-334C213,-334 221,-334 221,-334 224,-334 227,-337 227,-340 227,-340 227,-346 227,-346 227,-349 224,-352 221,-352 221,-352 213,-352 213,-352 210,-352 207,-349 207,-346 207,-346 207,-340 207,-340 207,-337 210,-334 213,-334"/>
<text xml:space="preserve" text-anchor="start" x="215.5" y="-339.25" font-family="Arial" font-size="10.00"> </text>
<text xml:space="preserve" text-anchor="start" x="231" y="-339.25" font-family="Arial" font-size="10.00">Object</text>
<path fill="#c7b8e6" stroke="none" d="M269.5,-334C269.5,-334 277.5,-334 277.5,-334 280.5,-334 283.5,-337 283.5,-340 283.5,-340 283.5,-346 283.5,-346 283.5,-349 280.5,-352 277.5,-352 277.5,-352 269.5,-352 269.5,-352 266.5,-352 263.5,-349 263.5,-346 263.5,-346 263.5,-340 263.5,-340 263.5,-337 266.5,-334 269.5,-334"/>
<path fill="none" stroke="black" d="M269.5,-334C269.5,-334 277.5,-334 277.5,-334 280.5,-334 283.5,-337 283.5,-340 283.5,-340 283.5,-346 283.5,-346 283.5,-349 280.5,-352 277.5,-352 277.5,-352 269.5,-352 269.5,-352 266.5,-352 263.5,-349 263.5,-346 263.5,-346 263.5,-340 263.5,-340 263.5,-337 266.5,-334 269.5,-334"/>
<text xml:space="preserve" text-anchor="start" x="272" y="-339.25" font-family="Arial" font-size="10.00"> </text>
<text xml:space="preserve" text-anchor="start" x="287.5" y="-339.25" font-family="Arial" font-size="10.00">Attribute</text>
<path fill="#f5b8b8" stroke="none" d="M334.25,-334C334.25,-334 342.25,-334 342.25,-334 345.25,-334 348.25,-337 348.25,-340 348.25,-340 348.25,-346 348.25,-346 348.25,-349 345.25,-352 342.25,-352 342.25,-352 334.25,-352 334.25,-352 331.25,-352 328.25,-349 328.25,-346 328.25,-346 328.25,-340 328.25,-340 328.25,-337 331.25,-334 334.25,-334"/>
<path fill="none" stroke="black" d="M334.25,-334C334.25,-334 342.25,-334 342.25,-334 345.25,-334 348.25,-337 348.25,-340 348.25,-340 348.25,-346 348.25,-346 348.25,-349 345.25,-352 342.25,-352 342.25,-352 334.25,-352 334.25,-352 331.25,-352 328.25,-349 328.25,-346 328.25,-346 328.25,-340 328.25,-340 328.25,-337 331.25,-334 334.25,-334"/>
<text xml:space="preserve" text-anchor="start" x="336.75" y="-339.25" font-family="Arial" font-size="10.00"> </text>
<text xml:space="preserve" text-anchor="start" x="352.25" y="-339.25" font-family="Arial" font-size="10.00">Relationship</text>
<text xml:space="preserve" text-anchor="start" x="412.25" y="-340.5" font-family="Arial" font-weight="bold" font-size="10.00">(+)</text>
<text xml:space="preserve" text-anchor="start" x="424.25" y="-340.5" font-family="Arial" font-size="10.00"> increases complexity</text>
<text xml:space="preserve" text-anchor="start" x="525.5" y="-340.5" font-family="Arial" font-weight="bold" font-size="10.00">(−)</text>
<text xml:space="preserve" text-anchor="start" x="537.5" y="-340.5" font-family="Arial" font-size="10.00"> decreases complexity</text>
<!-- unknown.node_link_graph -->
<g id="node1" class="node">
<title>unknown.node_link_graph</title>
<path fill="#b8e6b8" stroke="#2c3e50" stroke-width="1.8" d="M70,-295C70,-295 12,-295 12,-295 6,-295 0,-289 0,-283 0,-283 0,-271 0,-271 0,-265 6,-259 12,-259 12,-259 70,-259 70,-259 76,-259 82,-265 82,-271 82,-271 82,-283 82,-283 82,-289 76,-295 70,-295"/>
<text xml:space="preserve" text-anchor="middle" x="41" y="-273.5" font-family="Arial" font-size="10.00" fill="#1a1a1a">node link graph</text>
</g>
<!-- attr_0 -->
<g id="node6" class="node">
<title>attr_0</title>
<path fill="#c7b8e6" stroke="#7f8c8d" stroke-width="1.2" d="M248.25,-328C248.25,-328 145.25,-328 145.25,-328 139.25,-328 133.25,-322 133.25,-316 133.25,-316 133.25,-304 133.25,-304 133.25,-298 139.25,-292 145.25,-292 145.25,-292 248.25,-292 248.25,-292 254.25,-292 260.25,-298 260.25,-304 260.25,-304 260.25,-316 260.25,-316 260.25,-322 254.25,-328 248.25,-328"/>
<text xml:space="preserve" text-anchor="middle" x="196.75" y="-306.5" font-family="Arial" font-size="10.00" fill="#1a1a1a">(−) familiar representation</text>
</g>
<!-- unknown.node_link_graph&#45;&gt;attr_0 -->
<g id="edge1" class="edge">
<title>unknown.node_link_graph&#45;&gt;attr_0</title>
<path fill="none" stroke="#aaaaaa" d="M82.8,-285.76C95.71,-288.53 110.38,-291.68 124.77,-294.76"/>
<polygon fill="#aaaaaa" stroke="#aaaaaa" points="123.88,-297.08 131.24,-296.15 124.91,-292.29 123.88,-297.08"/>
</g>
<!-- rel_2 -->
<g id="node13" class="node">
<title>rel_2</title>
<path fill="#f5b8b8" stroke="#d46a6a" stroke-width="1.2" d="M247.12,-263C247.12,-263 146.38,-263 146.38,-263 140.38,-263 134.38,-257 134.38,-251 134.38,-251 134.38,-239 134.38,-239 134.38,-233 140.38,-227 146.38,-227 146.38,-227 247.12,-227 247.12,-227 253.12,-227 259.12,-233 259.12,-239 259.12,-239 259.12,-251 259.12,-251 259.12,-257 253.12,-263 247.12,-263"/>
<text xml:space="preserve" text-anchor="middle" x="196.75" y="-241.5" font-family="Arial" font-size="10.00" fill="#8b0000">requires effort to interpret</text>
</g>
<!-- unknown.node_link_graph&#45;&gt;rel_2 -->
<g id="edge10" class="edge">
<title>unknown.node_link_graph&#45;&gt;rel_2</title>
<path fill="none" stroke="#d46a6a" stroke-width="1.5" d="M82.8,-268.51C95.52,-265.86 109.95,-262.86 124.13,-259.91"/>
<polygon fill="#d46a6a" stroke="#d46a6a" stroke-width="1.5" points="124.41,-262.71 131.67,-258.34 123.27,-257.23 124.41,-262.71"/>
</g>
<!-- unknown.nodes -->
<g id="node2" class="node">
<title>unknown.nodes</title>
<path fill="#b8e6b8" stroke="#2c3e50" stroke-width="1.8" d="M56,-166C56,-166 26,-166 26,-166 20,-166 14,-160 14,-154 14,-154 14,-142 14,-142 14,-136 20,-130 26,-130 26,-130 56,-130 56,-130 62,-130 68,-136 68,-142 68,-142 68,-154 68,-154 68,-160 62,-166 56,-166"/>
<text xml:space="preserve" text-anchor="middle" x="41" y="-144.5" font-family="Arial" font-size="10.00" fill="#1a1a1a">nodes</text>
</g>
<!-- attr_4 -->
<g id="node7" class="node">
<title>attr_4</title>
<path fill="#c7b8e6" stroke="#7f8c8d" stroke-width="1.2" d="M256.5,-198C256.5,-198 137,-198 137,-198 131,-198 125,-192 125,-186 125,-186 125,-174 125,-174 125,-168 131,-162 137,-162 137,-162 256.5,-162 256.5,-162 262.5,-162 268.5,-168 268.5,-174 268.5,-174 268.5,-186 268.5,-186 268.5,-192 262.5,-198 256.5,-198"/>
<text xml:space="preserve" text-anchor="middle" x="196.75" y="-176.5" font-family="Arial" font-size="10.00" fill="#1a1a1a">(+) scattered node placement</text>
</g>
<!-- unknown.nodes&#45;&gt;attr_4 -->
<g id="edge2" class="edge">
<title>unknown.nodes&#45;&gt;attr_4</title>
<path fill="none" stroke="#aaaaaa" d="M68.78,-153.57C82.29,-156.38 99.44,-159.96 116.74,-163.56"/>
<polygon fill="#aaaaaa" stroke="#aaaaaa" points="115.86,-165.87 123.21,-164.9 116.85,-161.08 115.86,-165.87"/>
</g>
<!-- rel_3 -->
<g id="node14" class="node">
<title>rel_3</title>
<path fill="#f5b8b8" stroke="#d46a6a" stroke-width="1.2" d="M220.12,-133C220.12,-133 173.38,-133 173.38,-133 167.38,-133 161.38,-127 161.38,-121 161.38,-121 161.38,-109 161.38,-109 161.38,-103 167.38,-97 173.38,-97 173.38,-97 220.12,-97 220.12,-97 226.12,-97 232.12,-103 232.12,-109 232.12,-109 232.12,-121 232.12,-121 232.12,-127 226.12,-133 220.12,-133"/>
<text xml:space="preserve" text-anchor="middle" x="196.75" y="-111.5" font-family="Arial" font-size="10.00" fill="#8b0000">disorganizes</text>
</g>
<!-- unknown.nodes&#45;&gt;rel_3 -->
<g id="edge12" class="edge">
<title>unknown.nodes&#45;&gt;rel_3</title>
<path fill="none" stroke="#d46a6a" stroke-width="1.5" d="M68.78,-142.25C91.44,-137.39 124.38,-130.32 151.03,-124.6"/>
<polygon fill="#d46a6a" stroke="#d46a6a" stroke-width="1.5" points="151.45,-127.37 158.68,-122.96 150.27,-121.9 151.45,-127.37"/>
</g>
<!-- unknown.edges -->
<g id="node3" class="node">
<title>unknown.edges</title>
<path fill="#b8e6b8" stroke="#2c3e50" stroke-width="1.8" d="M368.25,-69C368.25,-69 338.25,-69 338.25,-69 332.25,-69 326.25,-63 326.25,-57 326.25,-57 326.25,-45 326.25,-45 326.25,-39 332.25,-33 338.25,-33 338.25,-33 368.25,-33 368.25,-33 374.25,-33 380.25,-39 380.25,-45 380.25,-45 380.25,-57 380.25,-57 380.25,-63 374.25,-69 368.25,-69"/>
<text xml:space="preserve" text-anchor="middle" x="353.25" y="-47.5" font-family="Arial" font-size="10.00" fill="#1a1a1a">edges</text>
</g>
<!-- attr_3 -->
<g id="node8" class="node">
<title>attr_3</title>
<path fill="#c7b8e6" stroke="#7f8c8d" stroke-width="1.2" d="M572.5,-101C572.5,-101 450,-101 450,-101 444,-101 438,-95 438,-89 438,-89 438,-77 438,-77 438,-71 444,-65 450,-65 450,-65 572.5,-65 572.5,-65 578.5,-65 584.5,-71 584.5,-77 584.5,-77 584.5,-89 584.5,-89 584.5,-95 578.5,-101 572.5,-101"/>
<text xml:space="preserve" text-anchor="middle" x="511.25" y="-79.5" font-family="Arial" font-size="10.00" fill="#1a1a1a">(+) irregular edge arrangement</text>
</g>
<!-- unknown.edges&#45;&gt;attr_3 -->
<g id="edge3" class="edge">
<title>unknown.edges&#45;&gt;attr_3</title>
<path fill="none" stroke="#aaaaaa" d="M381.07,-56.5C394.67,-59.29 411.98,-62.84 429.48,-66.43"/>
<polygon fill="#aaaaaa" stroke="#aaaaaa" points="428.69,-68.77 436.04,-67.78 429.67,-63.97 428.69,-68.77"/>
</g>
<!-- rel_1 -->
<g id="node12" class="node">
<title>rel_1</title>
<path fill="#f5b8b8" stroke="#d46a6a" stroke-width="1.2" d="M527.12,-36C527.12,-36 495.38,-36 495.38,-36 489.38,-36 483.38,-30 483.38,-24 483.38,-24 483.38,-12 483.38,-12 483.38,-6 489.38,0 495.38,0 495.38,0 527.12,0 527.12,0 533.12,0 539.12,-6 539.12,-12 539.12,-12 539.12,-24 539.12,-24 539.12,-30 533.12,-36 527.12,-36"/>
<text xml:space="preserve" text-anchor="middle" x="511.25" y="-14.5" font-family="Arial" font-size="10.00" fill="#8b0000">obscures</text>
</g>
<!-- unknown.edges&#45;&gt;rel_1 -->
<g id="edge8" class="edge">
<title>unknown.edges&#45;&gt;rel_1</title>
<path fill="none" stroke="#d46a6a" stroke-width="1.5" d="M381.07,-45.33C406.44,-39.96 444.74,-31.86 473.06,-25.87"/>
<polygon fill="#d46a6a" stroke="#d46a6a" stroke-width="1.5" points="473.53,-28.63 480.78,-24.23 472.37,-23.15 473.53,-28.63"/>
</g>
<!-- unknown.layout_structure -->
<g id="node4" class="node">
<title>unknown.layout_structure</title>
<path fill="#b8e6b8" stroke="#2c3e50" stroke-width="1.8" d="M383,-198C383,-198 323.5,-198 323.5,-198 317.5,-198 311.5,-192 311.5,-186 311.5,-186 311.5,-174 311.5,-174 311.5,-168 317.5,-162 323.5,-162 323.5,-162 383,-162 383,-162 389,-162 395,-168 395,-174 395,-174 395,-186 395,-186 395,-192 389,-198 383,-198"/>
<text xml:space="preserve" text-anchor="middle" x="353.25" y="-176.5" font-family="Arial" font-size="10.00" fill="#1a1a1a">layout structure</text>
</g>
<!-- attr_1 -->
<g id="node9" class="node">
<title>attr_1</title>
<path fill="#c7b8e6" stroke="#7f8c8d" stroke-width="1.2" d="M560.88,-231C560.88,-231 461.62,-231 461.62,-231 455.62,-231 449.62,-225 449.62,-219 449.62,-219 449.62,-207 449.62,-207 449.62,-201 455.62,-195 461.62,-195 461.62,-195 560.88,-195 560.88,-195 566.88,-195 572.88,-201 572.88,-207 572.88,-207 572.88,-219 572.88,-219 572.88,-225 566.88,-231 560.88,-231"/>
<text xml:space="preserve" text-anchor="middle" x="511.25" y="-209.5" font-family="Arial" font-size="10.00" fill="#1a1a1a">(+) unclear flow direction</text>
</g>
<!-- unknown.layout_structure&#45;&gt;attr_1 -->
<g id="edge4" class="edge">
<title>unknown.layout_structure&#45;&gt;attr_1</title>
<path fill="none" stroke="#aaaaaa" d="M395.65,-188.76C409.64,-191.72 425.66,-195.11 441.2,-198.39"/>
<polygon fill="#aaaaaa" stroke="#aaaaaa" points="440.43,-200.73 447.79,-199.79 441.45,-195.94 440.43,-200.73"/>
</g>
<!-- rel_0 -->
<g id="node11" class="node">
<title>rel_0</title>
<path fill="#f5b8b8" stroke="#d46a6a" stroke-width="1.2" d="M526.25,-166C526.25,-166 496.25,-166 496.25,-166 490.25,-166 484.25,-160 484.25,-154 484.25,-154 484.25,-142 484.25,-142 484.25,-136 490.25,-130 496.25,-130 496.25,-130 526.25,-130 526.25,-130 532.25,-130 538.25,-136 538.25,-142 538.25,-142 538.25,-154 538.25,-154 538.25,-160 532.25,-166 526.25,-166"/>
<text xml:space="preserve" text-anchor="middle" x="511.25" y="-144.5" font-family="Arial" font-size="10.00" fill="#8b0000">lacks</text>
</g>
<!-- unknown.layout_structure&#45;&gt;rel_0 -->
<g id="edge6" class="edge">
<title>unknown.layout_structure&#45;&gt;rel_0</title>
<path fill="none" stroke="#d46a6a" stroke-width="1.5" d="M395.65,-171.51C420.02,-166.51 450.56,-160.24 473.99,-155.44"/>
<polygon fill="#d46a6a" stroke="#d46a6a" stroke-width="1.5" points="474.38,-158.22 481.65,-153.87 473.25,-152.73 474.38,-158.22"/>
</g>
<!-- structure.pattern -->
<g id="node5" class="node">
<title>structure.pattern</title>
<path fill="#b8e6b8" stroke="#2c3e50" stroke-width="1.8" d="M669.5,-101C669.5,-101 639.5,-101 639.5,-101 633.5,-101 627.5,-95 627.5,-89 627.5,-89 627.5,-77 627.5,-77 627.5,-71 633.5,-65 639.5,-65 639.5,-65 669.5,-65 669.5,-65 675.5,-65 681.5,-71 681.5,-77 681.5,-77 681.5,-89 681.5,-89 681.5,-95 675.5,-101 669.5,-101"/>
<text xml:space="preserve" text-anchor="middle" x="654.5" y="-79.5" font-family="Arial" font-size="10.00" fill="#1a1a1a">pattern</text>
</g>
<!-- attr_2 -->
<g id="node10" class="node">
<title>attr_2</title>
<path fill="#c7b8e6" stroke="#7f8c8d" stroke-width="1.2" d="M832.75,-101C832.75,-101 736.5,-101 736.5,-101 730.5,-101 724.5,-95 724.5,-89 724.5,-89 724.5,-77 724.5,-77 724.5,-71 730.5,-65 736.5,-65 736.5,-65 832.75,-65 832.75,-65 838.75,-65 844.75,-71 844.75,-77 844.75,-77 844.75,-89 844.75,-89 844.75,-95 838.75,-101 832.75,-101"/>
<text xml:space="preserve" text-anchor="middle" x="784.62" y="-79.5" font-family="Arial" font-size="10.00" fill="#1a1a1a">(+) non apparent pattern</text>
</g>
<!-- structure.pattern&#45;&gt;attr_2 -->
<g id="edge5" class="edge">
<title>structure.pattern&#45;&gt;attr_2</title>
<path fill="none" stroke="#aaaaaa" d="M682.36,-83C692.26,-83 703.97,-83 715.85,-83"/>
<polygon fill="#aaaaaa" stroke="#aaaaaa" points="715.57,-85.45 722.57,-83 715.57,-80.55 715.57,-85.45"/>
</g>
<!-- rel_0&#45;&gt;structure.pattern -->
<g id="edge7" class="edge">
<title>rel_0&#45;&gt;structure.pattern</title>
<path fill="none" stroke="#d46a6a" stroke-width="1.5" d="M538.69,-135.97C552.37,-129.73 569.34,-121.98 584.5,-115 595.26,-110.05 606.96,-104.64 617.61,-99.69"/>
<polygon fill="#d46a6a" stroke="#d46a6a" stroke-width="1.5" points="618.51,-102.36 624.59,-96.45 616.15,-97.28 618.51,-102.36"/>
</g>
<!-- rel_1&#45;&gt;structure.pattern -->
<g id="edge9" class="edge">
<title>rel_1&#45;&gt;structure.pattern</title>
<path fill="none" stroke="#d46a6a" stroke-width="1.5" d="M539.44,-29.82C553.02,-35.78 569.67,-43.17 584.5,-50 595.32,-54.98 607.03,-60.53 617.68,-65.63"/>
<polygon fill="#d46a6a" stroke="#d46a6a" stroke-width="1.5" points="616.25,-68.04 624.67,-68.98 618.67,-62.99 616.25,-68.04"/>
</g>
<!-- rel_2&#45;&gt;unknown.layout_structure -->
<g id="edge11" class="edge">
<title>rel_2&#45;&gt;unknown.layout_structure</title>
<path fill="none" stroke="#d46a6a" stroke-width="1.5" d="M241.61,-226.55C260.24,-218.71 282.08,-209.52 301.41,-201.39"/>
<polygon fill="#d46a6a" stroke="#d46a6a" stroke-width="1.5" points="302.29,-204.06 308.58,-198.37 300.12,-198.89 302.29,-204.06"/>
</g>
<!-- rel_3&#45;&gt;unknown.layout_structure -->
<g id="edge13" class="edge">
<title>rel_3&#45;&gt;unknown.layout_structure</title>
<path fill="none" stroke="#d46a6a" stroke-width="1.5" d="M232.42,-129.59C252.74,-138.14 278.77,-149.09 301.38,-158.6"/>
<polygon fill="#d46a6a" stroke="#d46a6a" stroke-width="1.5" points="300.28,-161.17 308.74,-161.7 302.45,-156.01 300.28,-161.17"/>
</g>
</g>
</svg>
