<?xml version="1.0" encoding="UTF-8" standalone="no"?>
<!DOCTYPE svg PUBLIC "-//W3C//DTD SVG 1.1//EN"
 "http://www.w3.org/Graphics/SVG/1.1/DTD/svg11.dtd">
<!-- Generated by graphviz version 14.1.5 (20260411.2331)
 -->
<!-- Title: InfoVisJ.1161.6.png Pages: 1 -->
<svg width="786pt" height="440pt"
 viewBox="0.00 0.00 786.00 440.00" xmlns="http://www.w3.org/2000/svg" xmlns:xlink="http://www.w3.org/1999/xlink">
<g id="graph0" class="graph" transform="scale(1 1) rotate(0) translate(4 436.25)">
<title>InfoVisJ.1161.6.png</title>
<polygon fill="white" stroke="none" points="-4,4 -4,-436.25 782.25,-436.25 782.25,4 -4,4"/>
<text xml:space="preserve" text-anchor="start" x="326.5" y="-411.95" font-family="Arial" font-weight="bold" font-size="14.00">InfoVisJ.1161.6.png</text>
<text xml:space="preserve" text-anchor="start" x="344.5" y="-392" font-family="Arial" font-size="11.00">Point &#160;| &#160;VC = 0.73</text>
<path fill="#b8e6b8" stroke="none" d="M179.75,-367C179.75,-367 187.75,-367 187.75,-367 190.75,-367 193.75,-370 193.75,-373 193.75,-373 193.75,-379 193.75,-379 193.75,-382 190.75,-385 187.75,-385 187.75,-385 179.75,-385 179.75,-385 176.75,-385 173.75,-382 173.75,-379 173.75,-379 173.75,-373 173.75,-373 173.75,-370 176.75,-367 179.75,-367"/>
<path fill="none" stroke="black" d="M179.75,-367C179.75,-367 187.75,-367 187.75,-367 190.75,-367 193.75,-370 193.75,-373 193.75,-373 193.75,-379 193.75,-379 193.75,-382 190.75,-385 187.75,-385 187.75,-385 179.75,-385 179.75,-385 176.75,-385 173.75,-382 173.75,-379 173.75,-379 173.75,-373 173.75,-373 173.75,-370 176.75,-367 179.75,-367"/>
<text xml:space="preserve" text-anchor="start" x="182.25" y="-372.25" font-family="Arial" font-size="10.00"> </text>
<text xml:space="preserve" text-anchor="start" x="197.75" y="-372.25" font-family="Arial" font-size="10.00">Object</text>
<path fill="#c7b8e6" stroke="none" d="M236.25,-367C236.25,-367 244.25,-367 244.25,-367 247.25,-367 250.25,-370 250.25,-373 250.25,-373 250.25,-379 250.25,-379 250.25,-382 247.25,-385 244.25,-385 244.25,-385 236.25,-385 236.25,-385 233.25,-385 230.25,-382 230.25,-379 230.25,-379 230.25,-373 230.25,-373 230.25,-370 233.25,-367 236.25,-367"/>
<path fill="none" stroke="black" d="M236.25,-367C236.25,-367 244.25,-367 244.25,-367 247.25,-367 250.25,-370 250.25,-373 250.25,-373 250.25,-379 250.25,-379 250.25,-382 247.25,-385 244.25,-385 244.25,-385 236.25,-385 236.25,-385 233.25,-385 230.25,-382 230.25,-379 230.25,-379 230.25,-373 230.25,-373 230.25,-370 233.25,-367 236.25,-367"/>
<text xml:space="preserve" text-anchor="start" x="238.75" y="-372.25" font-family="Arial" font-size="10.00"> </text>
<text xml:space="preserve" text-anchor="start" x="254.25" y="-372.25" font-family="Arial" font-size="10.00">Attribute</text>
<path fill="#f5b8b8" stroke="none" d="M301,-367C301,-367 309,-367 309,-367 312,-367 315,-370 315,-373 315,-373 315,-379 315,-379 315,-382 312,-385 309,-385 309,-385 301,-385 301,-385 298,-385 295,-382 295,-379 295,-379 295,-373 295,-373 295,-370 298,-367 301,-367"/>
<path fill="none" stroke="black" d="M301,-367C301,-367 309,-367 309,-367 312,-367 315,-370 315,-373 315,-373 315,-379 315,-379 315,-382 312,-385 309,-385 309,-385 301,-385 301,-385 298,-385 295,-382 295,-379 295,-379 295,-373 295,-373 295,-370 298,-367 301,-367"/>
<text xml:space="preserve" text-anchor="start" x="303.5" y="-372.25" font-family="Arial" font-size="10.00"> </text>
<text xml:space="preserve" text-anchor="start" x="319" y="-372.25" font-family="Arial" font-size="10.00">Relationship</text>
<text xml:space="preserve" text-anchor="start" x="379" y="-373.5" font-family="Arial" font-weight="bold" font-size="10.00">(+)</text>
<text xml:space="preserve" text-anchor="start" x="391" y="-373.5" font-family="Arial" font-size="10.00"> increases complexity</text>
<text xml:space="preserve" text-anchor="start" x="492.25" y="-373.5" font-family="Arial" font-weight="bold" font-size="10.00">(−)</text>
<text xml:space="preserve" text-anchor="start" x="504.25" y="-373.5" font-family="Arial" font-size="10.00"> decreases complexity</text>
<!-- unknown.scatter_plot -->
<g id="node1" class="node">
<title>unknown.scatter_plot</title>
<path fill="#b8e6b8" stroke="#2c3e50" stroke-width="1.8" d="M332.75,-166C332.75,-166 292,-166 292,-166 286,-166 280,-160 280,-154 280,-154 280,-142 280,-142 280,-136 286,-130 292,-130 292,-130 332.75,-130 332.75,-130 338.75,-130 344.75,-136 344.75,-142 344.75,-142 344.75,-154 344.75,-154 344.75,-160 338.75,-166 332.75,-166"/>
<text xml:space="preserve" text-anchor="middle" x="312.38" y="-144.5" font-family="Arial" font-size="10.00" fill="#1a1a1a">scatter plot</text>
</g>
<!-- attr_0 -->
<g id="node6" class="node">
<title>attr_0</title>
<path fill="#c7b8e6" stroke="#7f8c8d" stroke-width="1.2" d="M518.5,-199C518.5,-199 399.75,-199 399.75,-199 393.75,-199 387.75,-193 387.75,-187 387.75,-187 387.75,-175 387.75,-175 387.75,-169 393.75,-163 399.75,-163 399.75,-163 518.5,-163 518.5,-163 524.5,-163 530.5,-169 530.5,-175 530.5,-175 530.5,-187 530.5,-187 530.5,-193 524.5,-199 518.5,-199"/>
<text xml:space="preserve" text-anchor="middle" x="459.12" y="-177.5" font-family="Arial" font-size="10.00" fill="#1a1a1a">(−) two dimensional structure</text>
</g>
<!-- unknown.scatter_plot&#45;&gt;attr_0 -->
<g id="edge1" class="edge">
<title>unknown.scatter_plot&#45;&gt;attr_0</title>
<path fill="none" stroke="#aaaaaa" d="M345.5,-155.32C355.58,-157.62 367.19,-160.27 379.05,-162.97"/>
<polygon fill="#aaaaaa" stroke="#aaaaaa" points="378.43,-165.34 385.8,-164.51 379.52,-160.57 378.43,-165.34"/>
</g>
<!-- rel_3 -->
<g id="node14" class="node">
<title>rel_3</title>
<path fill="#f5b8b8" stroke="#d46a6a" stroke-width="1.2" d="M489.62,-134C489.62,-134 428.62,-134 428.62,-134 422.62,-134 416.62,-128 416.62,-122 416.62,-122 416.62,-110 416.62,-110 416.62,-104 422.62,-98 428.62,-98 428.62,-98 489.62,-98 489.62,-98 495.62,-98 501.62,-104 501.62,-110 501.62,-110 501.62,-122 501.62,-122 501.62,-128 495.62,-134 489.62,-134"/>
<text xml:space="preserve" text-anchor="middle" x="459.12" y="-112.5" font-family="Arial" font-size="10.00" fill="#8b0000">requires reading</text>
</g>
<!-- unknown.scatter_plot&#45;&gt;rel_3 -->
<g id="edge12" class="edge">
<title>unknown.scatter_plot&#45;&gt;rel_3</title>
<path fill="none" stroke="#d46a6a" stroke-width="1.5" d="M345.5,-140.9C363.39,-136.94 386.1,-131.92 406.43,-127.43"/>
<polygon fill="#d46a6a" stroke="#d46a6a" stroke-width="1.5" points="406.77,-130.22 413.97,-125.76 405.56,-124.75 406.77,-130.22"/>
</g>
<!-- unknown.data_points -->
<g id="node2" class="node">
<title>unknown.data_points</title>
<path fill="#b8e6b8" stroke="#2c3e50" stroke-width="1.8" d="M52,-69C52,-69 12,-69 12,-69 6,-69 0,-63 0,-57 0,-57 0,-45 0,-45 0,-39 6,-33 12,-33 12,-33 52,-33 52,-33 58,-33 64,-39 64,-45 64,-45 64,-57 64,-57 64,-63 58,-69 52,-69"/>
<text xml:space="preserve" text-anchor="middle" x="32" y="-47.5" font-family="Arial" font-size="10.00" fill="#1a1a1a">data points</text>
</g>
<!-- attr_1 -->
<g id="node7" class="node">
<title>attr_1</title>
<path fill="#c7b8e6" stroke="#7f8c8d" stroke-width="1.2" d="M225,-101C225,-101 119,-101 119,-101 113,-101 107,-95 107,-89 107,-89 107,-77 107,-77 107,-71 113,-65 119,-65 119,-65 225,-65 225,-65 231,-65 237,-71 237,-77 237,-77 237,-89 237,-89 237,-95 231,-101 225,-101"/>
<text xml:space="preserve" text-anchor="middle" x="172" y="-79.5" font-family="Arial" font-size="10.00" fill="#1a1a1a">(+) moderate point density</text>
</g>
<!-- unknown.data_points&#45;&gt;attr_1 -->
<g id="edge2" class="edge">
<title>unknown.data_points&#45;&gt;attr_1</title>
<path fill="none" stroke="#aaaaaa" d="M64.66,-58.34C74.81,-60.7 86.5,-63.41 98.34,-66.15"/>
<polygon fill="#aaaaaa" stroke="#aaaaaa" points="97.7,-68.52 105.07,-67.71 98.8,-63.74 97.7,-68.52"/>
</g>
<!-- rel_2 -->
<g id="node13" class="node">
<title>rel_2</title>
<path fill="#f5b8b8" stroke="#d46a6a" stroke-width="1.2" d="M189,-36C189,-36 155,-36 155,-36 149,-36 143,-30 143,-24 143,-24 143,-12 143,-12 143,-6 149,0 155,0 155,0 189,0 189,0 195,0 201,-6 201,-12 201,-12 201,-24 201,-24 201,-30 195,-36 189,-36"/>
<text xml:space="preserve" text-anchor="middle" x="172" y="-14.5" font-family="Arial" font-size="10.00" fill="#8b0000">populates</text>
</g>
<!-- unknown.data_points&#45;&gt;rel_2 -->
<g id="edge10" class="edge">
<title>unknown.data_points&#45;&gt;rel_2</title>
<path fill="none" stroke="#d46a6a" stroke-width="1.5" d="M64.66,-43.43C84.99,-38.57 111.52,-32.22 132.99,-27.09"/>
<polygon fill="#d46a6a" stroke="#d46a6a" stroke-width="1.5" points="133.43,-29.86 140.56,-25.28 132.13,-24.42 133.43,-29.86"/>
</g>
<!-- unknown.x_axis -->
<g id="node3" class="node">
<title>unknown.x_axis</title>
<path fill="#b8e6b8" stroke="#2c3e50" stroke-width="1.8" d="M47,-328C47,-328 17,-328 17,-328 11,-328 5,-322 5,-316 5,-316 5,-304 5,-304 5,-298 11,-292 17,-292 17,-292 47,-292 47,-292 53,-292 59,-298 59,-304 59,-304 59,-316 59,-316 59,-322 53,-328 47,-328"/>
<text xml:space="preserve" text-anchor="middle" x="32" y="-306.5" font-family="Arial" font-size="10.00" fill="#1a1a1a">x axis</text>
</g>
<!-- attr_2 -->
<g id="node8" class="node">
<title>attr_2</title>
<path fill="#c7b8e6" stroke="#7f8c8d" stroke-width="1.2" d="M214.5,-361C214.5,-361 129.5,-361 129.5,-361 123.5,-361 117.5,-355 117.5,-349 117.5,-349 117.5,-337 117.5,-337 117.5,-331 123.5,-325 129.5,-325 129.5,-325 214.5,-325 214.5,-325 220.5,-325 226.5,-331 226.5,-337 226.5,-337 226.5,-349 226.5,-349 226.5,-355 220.5,-361 214.5,-361"/>
<text xml:space="preserve" text-anchor="middle" x="172" y="-339.5" font-family="Arial" font-size="10.00" fill="#1a1a1a">(−) single linear scale</text>
</g>
<!-- unknown.x_axis&#45;&gt;attr_2 -->
<g id="edge3" class="edge">
<title>unknown.x_axis&#45;&gt;attr_2</title>
<path fill="none" stroke="#aaaaaa" d="M59.61,-316.36C73.74,-319.74 91.73,-324.05 109.12,-328.2"/>
<polygon fill="#aaaaaa" stroke="#aaaaaa" points="108.2,-330.5 115.58,-329.75 109.34,-325.74 108.2,-330.5"/>
</g>
<!-- rel_0 -->
<g id="node11" class="node">
<title>rel_0</title>
<path fill="#f5b8b8" stroke="#d46a6a" stroke-width="1.2" d="M213,-296C213,-296 131,-296 131,-296 125,-296 119,-290 119,-284 119,-284 119,-272 119,-272 119,-266 125,-260 131,-260 131,-260 213,-260 213,-260 219,-260 225,-266 225,-272 225,-272 225,-284 225,-284 225,-290 219,-296 213,-296"/>
<text xml:space="preserve" text-anchor="middle" x="172" y="-274.5" font-family="Arial" font-size="10.00" fill="#8b0000">defines dimension of</text>
</g>
<!-- unknown.x_axis&#45;&gt;rel_0 -->
<g id="edge6" class="edge">
<title>unknown.x_axis&#45;&gt;rel_0</title>
<path fill="none" stroke="#d46a6a" stroke-width="1.5" d="M59.61,-303.83C73.68,-300.57 91.6,-296.41 108.93,-292.39"/>
<polygon fill="#d46a6a" stroke="#d46a6a" stroke-width="1.5" points="109.1,-295.23 116.26,-290.69 107.83,-289.77 109.1,-295.23"/>
</g>
<!-- unknown.y_axis -->
<g id="node4" class="node">
<title>unknown.y_axis</title>
<path fill="#b8e6b8" stroke="#2c3e50" stroke-width="1.8" d="M47,-199C47,-199 17,-199 17,-199 11,-199 5,-193 5,-187 5,-187 5,-175 5,-175 5,-169 11,-163 17,-163 17,-163 47,-163 47,-163 53,-163 59,-169 59,-175 59,-175 59,-187 59,-187 59,-193 53,-199 47,-199"/>
<text xml:space="preserve" text-anchor="middle" x="32" y="-177.5" font-family="Arial" font-size="10.00" fill="#1a1a1a">y axis</text>
</g>
<!-- attr_3 -->
<g id="node9" class="node">
<title>attr_3</title>
<path fill="#c7b8e6" stroke="#7f8c8d" stroke-width="1.2" d="M214.5,-231C214.5,-231 129.5,-231 129.5,-231 123.5,-231 117.5,-225 117.5,-219 117.5,-219 117.5,-207 117.5,-207 117.5,-201 123.5,-195 129.5,-195 129.5,-195 214.5,-195 214.5,-195 220.5,-195 226.5,-201 226.5,-207 226.5,-207 226.5,-219 226.5,-219 226.5,-225 220.5,-231 214.5,-231"/>
<text xml:space="preserve" text-anchor="middle" x="172" y="-209.5" font-family="Arial" font-size="10.00" fill="#1a1a1a">(−) single linear scale</text>
</g>
<!-- unknown.y_axis&#45;&gt;attr_3 -->
<g id="edge4" class="edge">
<title>unknown.y_axis&#45;&gt;attr_3</title>
<path fill="none" stroke="#aaaaaa" d="M59.61,-187.17C73.74,-190.45 91.73,-194.62 109.12,-198.65"/>
<polygon fill="#aaaaaa" stroke="#aaaaaa" points="108.21,-200.95 115.58,-200.15 109.31,-196.18 108.21,-200.95"/>
</g>
<!-- rel_1 -->
<g id="node12" class="node">
<title>rel_1</title>
<path fill="#f5b8b8" stroke="#d46a6a" stroke-width="1.2" d="M213,-166C213,-166 131,-166 131,-166 125,-166 119,-160 119,-154 119,-154 119,-142 119,-142 119,-136 125,-130 131,-130 131,-130 213,-130 213,-130 219,-130 225,-136 225,-142 225,-142 225,-154 225,-154 225,-160 219,-166 213,-166"/>
<text xml:space="preserve" text-anchor="middle" x="172" y="-144.5" font-family="Arial" font-size="10.00" fill="#8b0000">defines dimension of</text>
</g>
<!-- unknown.y_axis&#45;&gt;rel_1 -->
<g id="edge8" class="edge">
<title>unknown.y_axis&#45;&gt;rel_1</title>
<path fill="none" stroke="#d46a6a" stroke-width="1.5" d="M59.61,-174.64C73.68,-171.27 91.6,-166.99 108.93,-162.84"/>
<polygon fill="#d46a6a" stroke="#d46a6a" stroke-width="1.5" points="109.13,-165.67 116.26,-161.09 107.83,-160.23 109.13,-165.67"/>
</g>
<!-- text.axis_label -->
<g id="node5" class="node">
<title>text.axis_label</title>
<path fill="#b8e6b8" stroke="#2c3e50" stroke-width="1.8" d="M618.75,-134C618.75,-134 585.5,-134 585.5,-134 579.5,-134 573.5,-128 573.5,-122 573.5,-122 573.5,-110 573.5,-110 573.5,-104 579.5,-98 585.5,-98 585.5,-98 618.75,-98 618.75,-98 624.75,-98 630.75,-104 630.75,-110 630.75,-110 630.75,-122 630.75,-122 630.75,-128 624.75,-134 618.75,-134"/>
<text xml:space="preserve" text-anchor="middle" x="602.12" y="-112.5" font-family="Arial" font-size="10.00" fill="#1a1a1a">axis label</text>
</g>
<!-- attr_4 -->
<g id="node10" class="node">
<title>attr_4</title>
<path fill="#c7b8e6" stroke="#7f8c8d" stroke-width="1.2" d="M766.25,-134C766.25,-134 685.75,-134 685.75,-134 679.75,-134 673.75,-128 673.75,-122 673.75,-122 673.75,-110 673.75,-110 673.75,-104 679.75,-98 685.75,-98 685.75,-98 766.25,-98 766.25,-98 772.25,-98 778.25,-104 778.25,-110 778.25,-110 778.25,-122 778.25,-122 778.25,-128 772.25,-134 766.25,-134"/>
<text xml:space="preserve" text-anchor="middle" x="726" y="-112.5" font-family="Arial" font-size="10.00" fill="#1a1a1a">(−) standard labeling</text>
</g>
<!-- text.axis_label&#45;&gt;attr_4 -->
<g id="edge5" class="edge">
<title>text.axis_label&#45;&gt;attr_4</title>
<path fill="none" stroke="#aaaaaa" d="M631.39,-116C641.46,-116 653.23,-116 664.95,-116"/>
<polygon fill="#aaaaaa" stroke="#aaaaaa" points="664.93,-118.45 671.93,-116 664.93,-113.55 664.93,-118.45"/>
</g>
<!-- rel_0&#45;&gt;unknown.scatter_plot -->
<g id="edge7" class="edge">
<title>rel_0&#45;&gt;unknown.scatter_plot</title>
<path fill="none" stroke="#d46a6a" stroke-width="1.5" d="M216.68,-259.57C223.82,-255.62 230.88,-251.08 237,-246 261.16,-225.95 282.1,-196.61 295.55,-175.27"/>
<polygon fill="#d46a6a" stroke="#d46a6a" stroke-width="1.5" points="297.85,-176.87 299.65,-168.59 293.08,-173.94 297.85,-176.87"/>
</g>
<!-- rel_1&#45;&gt;unknown.scatter_plot -->
<g id="edge9" class="edge">
<title>rel_1&#45;&gt;unknown.scatter_plot</title>
<path fill="none" stroke="#d46a6a" stroke-width="1.5" d="M225.31,-148C239.83,-148 255.4,-148 269.25,-148"/>
<polygon fill="#d46a6a" stroke="#d46a6a" stroke-width="1.5" points="269.19,-150.8 277.19,-148 269.19,-145.2 269.19,-150.8"/>
</g>
<!-- rel_2&#45;&gt;unknown.scatter_plot -->
<g id="edge11" class="edge">
<title>rel_2&#45;&gt;unknown.scatter_plot</title>
<path fill="none" stroke="#d46a6a" stroke-width="1.5" d="M201.41,-29.35C213.15,-34.85 226.45,-42.18 237,-51 260.79,-70.89 281.65,-99.68 295.18,-120.72"/>
<polygon fill="#d46a6a" stroke="#d46a6a" stroke-width="1.5" points="292.68,-122.01 299.31,-127.3 297.43,-119.04 292.68,-122.01"/>
</g>
<!-- rel_3&#45;&gt;text.axis_label -->
<g id="edge13" class="edge">
<title>rel_3&#45;&gt;text.axis_label</title>
<path fill="none" stroke="#d46a6a" stroke-width="1.5" d="M502.05,-116C521.36,-116 544.12,-116 562.95,-116"/>
<polygon fill="#d46a6a" stroke="#d46a6a" stroke-width="1.5" points="562.7,-118.8 570.7,-116 562.7,-113.2 562.7,-118.8"/>
</g>
</g>
</svg>
