<?xml version="1.0" encoding="UTF-8" standalone="no"?>
<!DOCTYPE svg PUBLIC "-//W3C//DTD SVG 1.1//EN"
 "http://www.w3.org/Graphics/SVG/1.1/DTD/svg11.dtd">
<!-- Generated by graphviz version 14.1.5 (20260411.2331)
 -->
<!-- Title: InfoVisJ.2072.7.png Pages: 1 -->
<svg width="679pt" height="505pt"
 viewBox="0.00 0.00 679.00 505.00" xmlns="http://www.w3.org/2000/svg" xmlns:xlink="http://www.w3.org/1999/xlink">
<g id="graph0" class="graph" transform="scale(1 1) rotate(0) translate(4 501.25)">
<title>InfoVisJ.2072.7.png</title>
<polygon fill="white" stroke="none" points="-4,4 -4,-501.25 674.75,-501.25 674.75,4 -4,4"/>
<text xml:space="preserve" text-anchor="start" x="272.38" y="-476.95" font-family="Arial" font-weight="bold" font-size="14.00">InfoVisJ.2072.7.png</text>
<text xml:space="preserve" text-anchor="start" x="280.25" y="-457" font-family="Arial" font-size="11.00">Node&#45;link &#160;| &#160;VC = 0.58</text>
<path fill="#b8e6b8" stroke="none" d="M126,-432C126,-432 134,-432 134,-432 137,-432 140,-435 140,-438 140,-438 140,-444 140,-444 140,-447 137,-450 134,-450 134,-450 126,-450 126,-450 123,-450 120,-447 120,-444 120,-444 120,-438 120,-438 120,-435 123,-432 126,-432"/>
<path fill="none" stroke="black" d="M126,-432C126,-432 134,-432 134,-432 137,-432 140,-435 140,-438 140,-438 140,-444 140,-444 140,-447 137,-450 134,-450 134,-450 126,-450 126,-450 123,-450 120,-447 120,-444 120,-444 120,-438 120,-438 120,-435 123,-432 126,-432"/>
<text xml:space="preserve" text-anchor="start" x="128.5" y="-437.25" font-family="Arial" font-size="10.00"> </text>
<text xml:space="preserve" text-anchor="start" x="144" y="-437.25" font-family="Arial" font-size="10.00">Object</text>
<path fill="#c7b8e6" stroke="none" d="M182.5,-432C182.5,-432 190.5,-432 190.5,-432 193.5,-432 196.5,-435 196.5,-438 196.5,-438 196.5,-444 196.5,-444 196.5,-447 193.5,-450 190.5,-450 190.5,-450 182.5,-450 182.5,-450 179.5,-450 176.5,-447 176.5,-444 176.5,-444 176.5,-438 176.5,-438 176.5,-435 179.5,-432 182.5,-432"/>
<path fill="none" stroke="black" d="M182.5,-432C182.5,-432 190.5,-432 190.5,-432 193.5,-432 196.5,-435 196.5,-438 196.5,-438 196.5,-444 196.5,-444 196.5,-447 193.5,-450 190.5,-450 190.5,-450 182.5,-450 182.5,-450 179.5,-450 176.5,-447 176.5,-444 176.5,-444 176.5,-438 176.5,-438 176.5,-435 179.5,-432 182.5,-432"/>
<text xml:space="preserve" text-anchor="start" x="185" y="-437.25" font-family="Arial" font-size="10.00"> </text>
<text xml:space="preserve" text-anchor="start" x="200.5" y="-437.25" font-family="Arial" font-size="10.00">Attribute</text>
<path fill="#f5b8b8" stroke="none" d="M247.25,-432C247.25,-432 255.25,-432 255.25,-432 258.25,-432 261.25,-435 261.25,-438 261.25,-438 261.25,-444 261.25,-444 261.25,-447 258.25,-450 255.25,-450 255.25,-450 247.25,-450 247.25,-450 244.25,-450 241.25,-447 241.25,-444 241.25,-444 241.25,-438 241.25,-438 241.25,-435 244.25,-432 247.25,-432"/>
<path fill="none" stroke="black" d="M247.25,-432C247.25,-432 255.25,-432 255.25,-432 258.25,-432 261.25,-435 261.25,-438 261.25,-438 261.25,-444 261.25,-444 261.25,-447 258.25,-450 255.25,-450 255.25,-450 247.25,-450 247.25,-450 244.25,-450 241.25,-447 241.25,-444 241.25,-444 241.25,-438 241.25,-438 241.25,-435 244.25,-432 247.25,-432"/>
<text xml:space="preserve" text-anchor="start" x="249.75" y="-437.25" font-family="Arial" font-size="10.00"> </text>
<text xml:space="preserve" text-anchor="start" x="265.25" y="-437.25" font-family="Arial" font-size="10.00">Relationship</text>
<text xml:space="preserve" text-anchor="start" x="325.25" y="-438.5" font-family="Arial" font-weight="bold" font-size="10.00">(+)</text>
<text xml:space="preserve" text-anchor="start" x="337.25" y="-438.5" font-family="Arial" font-size="10.00"> increases complexity</text>
<text xml:space="preserve" text-anchor="start" x="438.5" y="-438.5" font-family="Arial" font-weight="bold" font-size="10.00">(−)</text>
<text xml:space="preserve" text-anchor="start" x="450.5" y="-438.5" font-family="Arial" font-size="10.00"> decreases complexity</text>
<!-- unknown.node_link_diagram -->
<g id="node1" class="node">
<title>unknown.node_link_diagram</title>
<path fill="#b8e6b8" stroke="#2c3e50" stroke-width="1.8" d="M382,-166C382,-166 313.5,-166 313.5,-166 307.5,-166 301.5,-160 301.5,-154 301.5,-154 301.5,-142 301.5,-142 301.5,-136 307.5,-130 313.5,-130 313.5,-130 382,-130 382,-130 388,-130 394,-136 394,-142 394,-142 394,-154 394,-154 394,-160 388,-166 382,-166"/>
<text xml:space="preserve" text-anchor="middle" x="347.75" y="-144.5" font-family="Arial" font-size="10.00" fill="#1a1a1a">node link diagram</text>
</g>
<!-- attr_3 -->
<g id="node6" class="node">
<title>attr_3</title>
<path fill="#c7b8e6" stroke="#7f8c8d" stroke-width="1.2" d="M561.75,-199C561.75,-199 449,-199 449,-199 443,-199 437,-193 437,-187 437,-187 437,-175 437,-175 437,-169 443,-163 449,-163 449,-163 561.75,-163 561.75,-163 567.75,-163 573.75,-169 573.75,-175 573.75,-175 573.75,-187 573.75,-187 573.75,-193 567.75,-199 561.75,-199"/>
<text xml:space="preserve" text-anchor="middle" x="505.38" y="-177.5" font-family="Arial" font-size="10.00" fill="#1a1a1a">(+) unclear subject meaning</text>
</g>
<!-- unknown.node_link_diagram&#45;&gt;attr_3 -->
<g id="edge1" class="edge">
<title>unknown.node_link_diagram&#45;&gt;attr_3</title>
<path fill="none" stroke="#aaaaaa" d="M394.6,-157.72C405.31,-159.99 417,-162.47 428.62,-164.94"/>
<polygon fill="#aaaaaa" stroke="#aaaaaa" points="427.81,-167.27 435.17,-166.32 428.83,-162.48 427.81,-167.27"/>
</g>
<!-- rel_3 -->
<g id="node14" class="node">
<title>rel_3</title>
<path fill="#f5b8b8" stroke="#d46a6a" stroke-width="1.2" d="M547.12,-134C547.12,-134 463.62,-134 463.62,-134 457.62,-134 451.62,-128 451.62,-122 451.62,-122 451.62,-110 451.62,-110 451.62,-104 457.62,-98 463.62,-98 463.62,-98 547.12,-98 547.12,-98 553.12,-98 559.12,-104 559.12,-110 559.12,-110 559.12,-122 559.12,-122 559.12,-128 553.12,-134 547.12,-134"/>
<text xml:space="preserve" text-anchor="middle" x="505.38" y="-112.5" font-family="Arial" font-size="10.00" fill="#8b0000">requires expertise for</text>
</g>
<!-- unknown.node_link_diagram&#45;&gt;rel_3 -->
<g id="edge12" class="edge">
<title>unknown.node_link_diagram&#45;&gt;rel_3</title>
<path fill="none" stroke="#d46a6a" stroke-width="1.5" d="M394.6,-138.57C409.3,-135.55 425.85,-132.15 441.54,-128.92"/>
<polygon fill="#d46a6a" stroke="#d46a6a" stroke-width="1.5" points="441.69,-131.75 448.96,-127.39 440.56,-126.26 441.69,-131.75"/>
</g>
<!-- property.color -->
<g id="node2" class="node">
<title>property.color</title>
<path fill="#b8e6b8" stroke="#2c3e50" stroke-width="1.8" d="M42,-199C42,-199 12,-199 12,-199 6,-199 0,-193 0,-187 0,-187 0,-175 0,-175 0,-169 6,-163 12,-163 12,-163 42,-163 42,-163 48,-163 54,-169 54,-175 54,-175 54,-187 54,-187 54,-193 48,-199 42,-199"/>
<text xml:space="preserve" text-anchor="middle" x="27" y="-177.5" font-family="Arial" font-size="10.00" fill="#1a1a1a">color</text>
</g>
<!-- attr_2 -->
<g id="node7" class="node">
<title>attr_2</title>
<path fill="#c7b8e6" stroke="#7f8c8d" stroke-width="1.2" d="M230,-231C230,-231 125.5,-231 125.5,-231 119.5,-231 113.5,-225 113.5,-219 113.5,-219 113.5,-207 113.5,-207 113.5,-201 119.5,-195 125.5,-195 125.5,-195 230,-195 230,-195 236,-195 242,-201 242,-207 242,-207 242,-219 242,-219 242,-225 236,-231 230,-231"/>
<text xml:space="preserve" text-anchor="middle" x="177.75" y="-209.5" font-family="Arial" font-size="10.00" fill="#1a1a1a">(−) appealing color palette</text>
</g>
<!-- property.color&#45;&gt;attr_2 -->
<g id="edge2" class="edge">
<title>property.color&#45;&gt;attr_2</title>
<path fill="none" stroke="#aaaaaa" d="M54.59,-186.72C68.72,-189.76 86.85,-193.66 104.78,-197.52"/>
<polygon fill="#aaaaaa" stroke="#aaaaaa" points="104.16,-199.89 111.51,-198.97 105.19,-195.1 104.16,-199.89"/>
</g>
<!-- rel_1 -->
<g id="node12" class="node">
<title>rel_1</title>
<path fill="#f5b8b8" stroke="#d46a6a" stroke-width="1.2" d="M216.12,-166C216.12,-166 139.38,-166 139.38,-166 133.38,-166 127.38,-160 127.38,-154 127.38,-154 127.38,-142 127.38,-142 127.38,-136 133.38,-130 139.38,-130 139.38,-130 216.12,-130 216.12,-130 222.12,-130 228.12,-136 228.12,-142 228.12,-142 228.12,-154 228.12,-154 228.12,-160 222.12,-166 216.12,-166"/>
<text xml:space="preserve" text-anchor="middle" x="177.75" y="-144.5" font-family="Arial" font-size="10.00" fill="#8b0000">enhances appeal of</text>
</g>
<!-- property.color&#45;&gt;rel_1 -->
<g id="edge8" class="edge">
<title>property.color&#45;&gt;rel_1</title>
<path fill="none" stroke="#d46a6a" stroke-width="1.5" d="M54.59,-175.1C71.99,-171.24 95.42,-166.04 117.12,-161.23"/>
<polygon fill="#d46a6a" stroke="#d46a6a" stroke-width="1.5" points="117.51,-164.01 124.72,-159.54 116.3,-158.54 117.51,-164.01"/>
</g>
<!-- structure.layout -->
<g id="node3" class="node">
<title>structure.layout</title>
<path fill="#b8e6b8" stroke="#2c3e50" stroke-width="1.8" d="M42,-361C42,-361 12,-361 12,-361 6,-361 0,-355 0,-349 0,-349 0,-337 0,-337 0,-331 6,-325 12,-325 12,-325 42,-325 42,-325 48,-325 54,-331 54,-337 54,-337 54,-349 54,-349 54,-355 48,-361 42,-361"/>
<text xml:space="preserve" text-anchor="middle" x="27" y="-339.5" font-family="Arial" font-size="10.00" fill="#1a1a1a">layout</text>
</g>
<!-- attr_0 -->
<g id="node8" class="node">
<title>attr_0</title>
<path fill="#c7b8e6" stroke="#7f8c8d" stroke-width="1.2" d="M222.88,-426C222.88,-426 132.62,-426 132.62,-426 126.62,-426 120.62,-420 120.62,-414 120.62,-414 120.62,-402 120.62,-402 120.62,-396 126.62,-390 132.62,-390 132.62,-390 222.88,-390 222.88,-390 228.88,-390 234.88,-396 234.88,-402 234.88,-402 234.88,-414 234.88,-414 234.88,-420 228.88,-426 222.88,-426"/>
<text xml:space="preserve" text-anchor="middle" x="177.75" y="-404.5" font-family="Arial" font-size="10.00" fill="#1a1a1a">(−) tidy clean structure</text>
</g>
<!-- structure.layout&#45;&gt;attr_0 -->
<g id="edge3" class="edge">
<title>structure.layout&#45;&gt;attr_0</title>
<path fill="none" stroke="#aaaaaa" d="M54.68,-356.26C67.41,-362.45 82.9,-369.81 97,-376 104.87,-379.46 113.23,-382.98 121.47,-386.36"/>
<polygon fill="#aaaaaa" stroke="#aaaaaa" points="120.5,-388.61 127.91,-388.98 122.35,-384.07 120.5,-388.61"/>
</g>
<!-- attr_1 -->
<g id="node9" class="node">
<title>attr_1</title>
<path fill="#c7b8e6" stroke="#7f8c8d" stroke-width="1.2" d="M246.5,-361C246.5,-361 109,-361 109,-361 103,-361 97,-355 97,-349 97,-349 97,-337 97,-337 97,-331 103,-325 109,-325 109,-325 246.5,-325 246.5,-325 252.5,-325 258.5,-331 258.5,-337 258.5,-337 258.5,-349 258.5,-349 258.5,-355 252.5,-361 246.5,-361"/>
<text xml:space="preserve" text-anchor="middle" x="177.75" y="-339.5" font-family="Arial" font-size="10.00" fill="#1a1a1a">(−) organized spatial arrangement</text>
</g>
<!-- structure.layout&#45;&gt;attr_1 -->
<g id="edge4" class="edge">
<title>structure.layout&#45;&gt;attr_1</title>
<path fill="none" stroke="#aaaaaa" d="M54.59,-343C64.3,-343 75.9,-343 88.02,-343"/>
<polygon fill="#aaaaaa" stroke="#aaaaaa" points="87.97,-345.45 94.97,-343 87.97,-340.55 87.97,-345.45"/>
</g>
<!-- rel_0 -->
<g id="node11" class="node">
<title>rel_0</title>
<path fill="#f5b8b8" stroke="#d46a6a" stroke-width="1.2" d="M192.75,-296C192.75,-296 162.75,-296 162.75,-296 156.75,-296 150.75,-290 150.75,-284 150.75,-284 150.75,-272 150.75,-272 150.75,-266 156.75,-260 162.75,-260 162.75,-260 192.75,-260 192.75,-260 198.75,-260 204.75,-266 204.75,-272 204.75,-272 204.75,-284 204.75,-284 204.75,-290 198.75,-296 192.75,-296"/>
<text xml:space="preserve" text-anchor="middle" x="177.75" y="-274.5" font-family="Arial" font-size="10.00" fill="#8b0000">reduces</text>
</g>
<!-- structure.layout&#45;&gt;rel_0 -->
<g id="edge6" class="edge">
<title>structure.layout&#45;&gt;rel_0</title>
<path fill="none" stroke="#d46a6a" stroke-width="1.5" d="M54.75,-330.28C67.49,-324.3 82.97,-317.15 97,-311 111.38,-304.69 127.36,-298.02 141.21,-292.33"/>
<polygon fill="#d46a6a" stroke="#d46a6a" stroke-width="1.5" points="141.96,-295.05 148.31,-289.43 139.85,-289.87 141.96,-295.05"/>
</g>
<!-- text.label -->
<g id="node4" class="node">
<title>text.label</title>
<path fill="#b8e6b8" stroke="#2c3e50" stroke-width="1.8" d="M42,-69C42,-69 12,-69 12,-69 6,-69 0,-63 0,-57 0,-57 0,-45 0,-45 0,-39 6,-33 12,-33 12,-33 42,-33 42,-33 48,-33 54,-39 54,-45 54,-45 54,-57 54,-57 54,-63 48,-69 42,-69"/>
<text xml:space="preserve" text-anchor="middle" x="27" y="-47.5" font-family="Arial" font-size="10.00" fill="#1a1a1a">label</text>
</g>
<!-- attr_4 -->
<g id="node10" class="node">
<title>attr_4</title>
<path fill="#c7b8e6" stroke="#7f8c8d" stroke-width="1.2" d="M242.75,-101C242.75,-101 112.75,-101 112.75,-101 106.75,-101 100.75,-95 100.75,-89 100.75,-89 100.75,-77 100.75,-77 100.75,-71 106.75,-65 112.75,-65 112.75,-65 242.75,-65 242.75,-65 248.75,-65 254.75,-71 254.75,-77 254.75,-77 254.75,-89 254.75,-89 254.75,-95 248.75,-101 242.75,-101"/>
<text xml:space="preserve" text-anchor="middle" x="177.75" y="-79.5" font-family="Arial" font-size="10.00" fill="#1a1a1a">(+) insufficient contextual labels</text>
</g>
<!-- text.label&#45;&gt;attr_4 -->
<g id="edge5" class="edge">
<title>text.label&#45;&gt;attr_4</title>
<path fill="none" stroke="#aaaaaa" d="M54.59,-56.72C65.42,-59.05 78.59,-61.88 92.23,-64.82"/>
<polygon fill="#aaaaaa" stroke="#aaaaaa" points="91.45,-67.16 98.81,-66.23 92.49,-62.37 91.45,-67.16"/>
</g>
<!-- rel_2 -->
<g id="node13" class="node">
<title>rel_2</title>
<path fill="#f5b8b8" stroke="#d46a6a" stroke-width="1.2" d="M203,-36C203,-36 152.5,-36 152.5,-36 146.5,-36 140.5,-30 140.5,-24 140.5,-24 140.5,-12 140.5,-12 140.5,-6 146.5,0 152.5,0 152.5,0 203,0 203,0 209,0 215,-6 215,-12 215,-12 215,-24 215,-24 215,-30 209,-36 203,-36"/>
<text xml:space="preserve" text-anchor="middle" x="177.75" y="-14.5" font-family="Arial" font-size="10.00" fill="#8b0000">fails to clarify</text>
</g>
<!-- text.label&#45;&gt;rel_2 -->
<g id="edge10" class="edge">
<title>text.label&#45;&gt;rel_2</title>
<path fill="none" stroke="#d46a6a" stroke-width="1.5" d="M54.59,-45.1C75.53,-40.46 105.21,-33.87 130.08,-28.35"/>
<polygon fill="#d46a6a" stroke="#d46a6a" stroke-width="1.5" points="130.63,-31.1 137.83,-26.63 129.42,-25.63 130.63,-31.1"/>
</g>
<!-- mark.node -->
<g id="node5" class="node">
<title>mark.node</title>
<path fill="#b8e6b8" stroke="#2c3e50" stroke-width="1.8" d="M658.75,-134C658.75,-134 628.75,-134 628.75,-134 622.75,-134 616.75,-128 616.75,-122 616.75,-122 616.75,-110 616.75,-110 616.75,-104 622.75,-98 628.75,-98 628.75,-98 658.75,-98 658.75,-98 664.75,-98 670.75,-104 670.75,-110 670.75,-110 670.75,-122 670.75,-122 670.75,-128 664.75,-134 658.75,-134"/>
<text xml:space="preserve" text-anchor="middle" x="643.75" y="-112.5" font-family="Arial" font-size="10.00" fill="#1a1a1a">node</text>
</g>
<!-- rel_0&#45;&gt;unknown.node_link_diagram -->
<g id="edge7" class="edge">
<title>rel_0&#45;&gt;unknown.node_link_diagram</title>
<path fill="none" stroke="#d46a6a" stroke-width="1.5" d="M205.02,-270.8C221.34,-265.55 242.23,-257.36 258.5,-246 286.51,-226.44 311.84,-196.39 328.11,-174.73"/>
<polygon fill="#d46a6a" stroke="#d46a6a" stroke-width="1.5" points="330.27,-176.52 332.75,-168.42 325.75,-173.2 330.27,-176.52"/>
</g>
<!-- rel_1&#45;&gt;unknown.node_link_diagram -->
<g id="edge9" class="edge">
<title>rel_1&#45;&gt;unknown.node_link_diagram</title>
<path fill="none" stroke="#d46a6a" stroke-width="1.5" d="M228.7,-148C248.14,-148 270.51,-148 290.51,-148"/>
<polygon fill="#d46a6a" stroke="#d46a6a" stroke-width="1.5" points="290.45,-150.8 298.45,-148 290.45,-145.2 290.45,-150.8"/>
</g>
<!-- rel_2&#45;&gt;unknown.node_link_diagram -->
<g id="edge11" class="edge">
<title>rel_2&#45;&gt;unknown.node_link_diagram</title>
<path fill="none" stroke="#d46a6a" stroke-width="1.5" d="M215.42,-29.31C229.6,-34.64 245.5,-41.87 258.5,-51 286.13,-70.41 311.36,-99.89 327.71,-121.25"/>
<polygon fill="#d46a6a" stroke="#d46a6a" stroke-width="1.5" points="325.33,-122.75 332.37,-127.47 329.81,-119.39 325.33,-122.75"/>
</g>
<!-- rel_3&#45;&gt;mark.node -->
<g id="edge13" class="edge">
<title>rel_3&#45;&gt;mark.node</title>
<path fill="none" stroke="#d46a6a" stroke-width="1.5" d="M559.49,-116C575.02,-116 591.64,-116 605.92,-116"/>
<polygon fill="#d46a6a" stroke="#d46a6a" stroke-width="1.5" points="605.58,-118.8 613.58,-116 605.58,-113.2 605.58,-118.8"/>
</g>
</g>
</svg>
