<?xml version="1.0" encoding="UTF-8" standalone="no"?>
<!DOCTYPE svg PUBLIC "-//W3C//DTD SVG 1.1//EN"
 "http://www.w3.org/Graphics/SVG/1.1/DTD/svg11.dtd">
<!-- Generated by graphviz version 14.1.5 (20260411.2331)
 -->
<!-- Title: InfoVisJ.369.3.png Pages: 1 -->
<svg width="1092pt" height="375pt"
 viewBox="0.00 0.00 1092.00 375.00" xmlns="http://www.w3.org/2000/svg" xmlns:xlink="http://www.w3.org/1999/xlink">
<g id="graph0" class="graph" transform="scale(1 1) rotate(0) translate(4 371.25)">
<title>InfoVisJ.369.3.png</title>
<polygon fill="white" stroke="none" points="-4,4 -4,-371.25 1088,-371.25 1088,4 -4,4"/>
<text xml:space="preserve" text-anchor="start" x="482.75" y="-346.95" font-family="Arial" font-weight="bold" font-size="14.00">InfoVisJ.369.3.png</text>
<text xml:space="preserve" text-anchor="start" x="499.62" y="-327" font-family="Arial" font-size="11.00">Grid &#160;| &#160;VC = 0.51</text>
<path fill="#b8e6b8" stroke="none" d="M332.62,-302C332.62,-302 340.62,-302 340.62,-302 343.62,-302 346.62,-305 346.62,-308 346.62,-308 346.62,-314 346.62,-314 346.62,-317 343.62,-320 340.62,-320 340.62,-320 332.62,-320 332.62,-320 329.62,-320 326.62,-317 326.62,-314 326.62,-314 326.62,-308 326.62,-308 326.62,-305 329.62,-302 332.62,-302"/>
<path fill="none" stroke="black" d="M332.62,-302C332.62,-302 340.62,-302 340.62,-302 343.62,-302 346.62,-305 346.62,-308 346.62,-308 346.62,-314 346.62,-314 346.62,-317 343.62,-320 340.62,-320 340.62,-320 332.62,-320 332.62,-320 329.62,-320 326.62,-317 326.62,-314 326.62,-314 326.62,-308 326.62,-308 326.62,-305 329.62,-302 332.62,-302"/>
<text xml:space="preserve" text-anchor="start" x="335.12" y="-307.25" font-family="Arial" font-size="10.00"> </text>
<text xml:space="preserve" text-anchor="start" x="350.62" y="-307.25" font-family="Arial" font-size="10.00">Object</text>
<path fill="#c7b8e6" stroke="none" d="M389.12,-302C389.12,-302 397.12,-302 397.12,-302 400.12,-302 403.12,-305 403.12,-308 403.12,-308 403.12,-314 403.12,-314 403.12,-317 400.12,-320 397.12,-320 397.12,-320 389.12,-320 389.12,-320 386.12,-320 383.12,-317 383.12,-314 383.12,-314 383.12,-308 383.12,-308 383.12,-305 386.12,-302 389.12,-302"/>
<path fill="none" stroke="black" d="M389.12,-302C389.12,-302 397.12,-302 397.12,-302 400.12,-302 403.12,-305 403.12,-308 403.12,-308 403.12,-314 403.12,-314 403.12,-317 400.12,-320 397.12,-320 397.12,-320 389.12,-320 389.12,-320 386.12,-320 383.12,-317 383.12,-314 383.12,-314 383.12,-308 383.12,-308 383.12,-305 386.12,-302 389.12,-302"/>
<text xml:space="preserve" text-anchor="start" x="391.62" y="-307.25" font-family="Arial" font-size="10.00"> </text>
<text xml:space="preserve" text-anchor="start" x="407.12" y="-307.25" font-family="Arial" font-size="10.00">Attribute</text>
<path fill="#f5b8b8" stroke="none" d="M453.88,-302C453.88,-302 461.88,-302 461.88,-302 464.88,-302 467.88,-305 467.88,-308 467.88,-308 467.88,-314 467.88,-314 467.88,-317 464.88,-320 461.88,-320 461.88,-320 453.88,-320 453.88,-320 450.88,-320 447.88,-317 447.88,-314 447.88,-314 447.88,-308 447.88,-308 447.88,-305 450.88,-302 453.88,-302"/>
<path fill="none" stroke="black" d="M453.88,-302C453.88,-302 461.88,-302 461.88,-302 464.88,-302 467.88,-305 467.88,-308 467.88,-308 467.88,-314 467.88,-314 467.88,-317 464.88,-320 461.88,-320 461.88,-320 453.88,-320 453.88,-320 450.88,-320 447.88,-317 447.88,-314 447.88,-314 447.88,-308 447.88,-308 447.88,-305 450.88,-302 453.88,-302"/>
<text xml:space="preserve" text-anchor="start" x="456.38" y="-307.25" font-family="Arial" font-size="10.00"> </text>
<text xml:space="preserve" text-anchor="start" x="471.88" y="-307.25" font-family="Arial" font-size="10.00">Relationship</text>
<text xml:space="preserve" text-anchor="start" x="531.88" y="-308.5" font-family="Arial" font-weight="bold" font-size="10.00">(+)</text>
<text xml:space="preserve" text-anchor="start" x="543.88" y="-308.5" font-family="Arial" font-size="10.00"> increases complexity</text>
<text xml:space="preserve" text-anchor="start" x="645.12" y="-308.5" font-family="Arial" font-weight="bold" font-size="10.00">(−)</text>
<text xml:space="preserve" text-anchor="start" x="657.12" y="-308.5" font-family="Arial" font-size="10.00"> decreases complexity</text>
<!-- unknown.grid_cells -->
<g id="node1" class="node">
<title>unknown.grid_cells</title>
<path fill="#b8e6b8" stroke="#2c3e50" stroke-width="1.8" d="M902,-101C902,-101 871,-101 871,-101 865,-101 859,-95 859,-89 859,-89 859,-77 859,-77 859,-71 865,-65 871,-65 871,-65 902,-65 902,-65 908,-65 914,-71 914,-77 914,-77 914,-89 914,-89 914,-95 908,-101 902,-101"/>
<text xml:space="preserve" text-anchor="middle" x="886.5" y="-79.5" font-family="Arial" font-size="10.00" fill="#1a1a1a">grid cells</text>
</g>
<!-- attr_3 -->
<g id="node6" class="node">
<title>attr_3</title>
<path fill="#c7b8e6" stroke="#7f8c8d" stroke-width="1.2" d="M1072,-101C1072,-101 969,-101 969,-101 963,-101 957,-95 957,-89 957,-89 957,-77 957,-77 957,-71 963,-65 969,-65 969,-65 1072,-65 1072,-65 1078,-65 1084,-71 1084,-77 1084,-77 1084,-89 1084,-89 1084,-95 1078,-101 1072,-101"/>
<text xml:space="preserve" text-anchor="middle" x="1020.5" y="-79.5" font-family="Arial" font-size="10.00" fill="#1a1a1a">(+) cluttered dense layout</text>
</g>
<!-- unknown.grid_cells&#45;&gt;attr_3 -->
<g id="edge1" class="edge">
<title>unknown.grid_cells&#45;&gt;attr_3</title>
<path fill="none" stroke="#aaaaaa" d="M914.85,-83C924.73,-83 936.39,-83 948.28,-83"/>
<polygon fill="#aaaaaa" stroke="#aaaaaa" points="948.01,-85.45 955.01,-83 948.01,-80.55 948.01,-85.45"/>
</g>
<!-- property.color -->
<g id="node2" class="node">
<title>property.color</title>
<path fill="#b8e6b8" stroke="#2c3e50" stroke-width="1.8" d="M598,-231C598,-231 568,-231 568,-231 562,-231 556,-225 556,-219 556,-219 556,-207 556,-207 556,-201 562,-195 568,-195 568,-195 598,-195 598,-195 604,-195 610,-201 610,-207 610,-207 610,-219 610,-219 610,-225 604,-231 598,-231"/>
<text xml:space="preserve" text-anchor="middle" x="583" y="-209.5" font-family="Arial" font-size="10.00" fill="#1a1a1a">color</text>
</g>
<!-- attr_1 -->
<g id="node7" class="node">
<title>attr_1</title>
<path fill="#c7b8e6" stroke="#7f8c8d" stroke-width="1.2" d="M775.12,-296C775.12,-296 693.88,-296 693.88,-296 687.88,-296 681.88,-290 681.88,-284 681.88,-284 681.88,-272 681.88,-272 681.88,-266 687.88,-260 693.88,-260 693.88,-260 775.12,-260 775.12,-260 781.12,-260 787.12,-266 787.12,-272 787.12,-272 787.12,-284 787.12,-284 787.12,-290 781.12,-296 775.12,-296"/>
<text xml:space="preserve" text-anchor="middle" x="734.5" y="-274.5" font-family="Arial" font-size="10.00" fill="#1a1a1a">(+) high color variety</text>
</g>
<!-- property.color&#45;&gt;attr_1 -->
<g id="edge2" class="edge">
<title>property.color&#45;&gt;attr_1</title>
<path fill="none" stroke="#aaaaaa" d="M610.67,-226.28C623.4,-232.47 638.89,-239.83 653,-246 660.83,-249.42 669.15,-252.91 677.36,-256.25"/>
<polygon fill="#aaaaaa" stroke="#aaaaaa" points="676.37,-258.49 683.77,-258.84 678.2,-253.95 676.37,-258.49"/>
</g>
<!-- attr_4 -->
<g id="node8" class="node">
<title>attr_4</title>
<path fill="#c7b8e6" stroke="#7f8c8d" stroke-width="1.2" d="M804,-231C804,-231 665,-231 665,-231 659,-231 653,-225 653,-219 653,-219 653,-207 653,-207 653,-201 659,-195 665,-195 665,-195 804,-195 804,-195 810,-195 816,-201 816,-207 816,-207 816,-219 816,-219 816,-225 810,-231 804,-231"/>
<text xml:space="preserve" text-anchor="middle" x="734.5" y="-209.5" font-family="Arial" font-size="10.00" fill="#1a1a1a">(+) distinguishable color arrangem</text>
</g>
<!-- property.color&#45;&gt;attr_4 -->
<g id="edge3" class="edge">
<title>property.color&#45;&gt;attr_4</title>
<path fill="none" stroke="#aaaaaa" d="M610.73,-213C620.42,-213 631.97,-213 644.07,-213"/>
<polygon fill="#aaaaaa" stroke="#aaaaaa" points="643.99,-215.45 650.99,-213 643.99,-210.55 643.99,-215.45"/>
</g>
<!-- rel_0 -->
<g id="node11" class="node">
<title>rel_0</title>
<path fill="#f5b8b8" stroke="#d46a6a" stroke-width="1.2" d="M782.25,-166C782.25,-166 686.75,-166 686.75,-166 680.75,-166 674.75,-160 674.75,-154 674.75,-154 674.75,-142 674.75,-142 674.75,-136 680.75,-130 686.75,-130 686.75,-130 782.25,-130 782.25,-130 788.25,-130 794.25,-136 794.25,-142 794.25,-142 794.25,-154 794.25,-154 794.25,-160 788.25,-166 782.25,-166"/>
<text xml:space="preserve" text-anchor="middle" x="734.5" y="-144.5" font-family="Arial" font-size="10.00" fill="#8b0000">increases complexity of</text>
</g>
<!-- property.color&#45;&gt;rel_0 -->
<g id="edge6" class="edge">
<title>property.color&#45;&gt;rel_0</title>
<path fill="none" stroke="#d46a6a" stroke-width="1.5" d="M610.74,-200.26C623.48,-194.27 638.96,-187.13 653,-181 661.05,-177.49 669.59,-173.87 677.99,-170.37"/>
<polygon fill="#d46a6a" stroke="#d46a6a" stroke-width="1.5" points="678.95,-173 685.28,-167.36 676.81,-167.83 678.95,-173"/>
</g>
<!-- furniture.legend -->
<g id="node3" class="node">
<title>furniture.legend</title>
<path fill="#b8e6b8" stroke="#2c3e50" stroke-width="1.8" d="M337,-231C337,-231 307,-231 307,-231 301,-231 295,-225 295,-219 295,-219 295,-207 295,-207 295,-201 301,-195 307,-195 307,-195 337,-195 337,-195 343,-195 349,-201 349,-207 349,-207 349,-219 349,-219 349,-225 343,-231 337,-231"/>
<text xml:space="preserve" text-anchor="middle" x="322" y="-209.5" font-family="Arial" font-size="10.00" fill="#1a1a1a">legend</text>
</g>
<!-- rel_2 -->
<g id="node13" class="node">
<title>rel_2</title>
<path fill="#f5b8b8" stroke="#d46a6a" stroke-width="1.2" d="M501,-231C501,-231 404,-231 404,-231 398,-231 392,-225 392,-219 392,-219 392,-207 392,-207 392,-201 398,-195 404,-195 404,-195 501,-195 501,-195 507,-195 513,-201 513,-207 513,-207 513,-219 513,-219 513,-225 507,-231 501,-231"/>
<text xml:space="preserve" text-anchor="middle" x="452.5" y="-209.5" font-family="Arial" font-size="10.00" fill="#8b0000">requires interpretation of</text>
</g>
<!-- furniture.legend&#45;&gt;rel_2 -->
<g id="edge10" class="edge">
<title>furniture.legend&#45;&gt;rel_2</title>
<path fill="none" stroke="#d46a6a" stroke-width="1.5" d="M349.63,-213C359.06,-213 370.17,-213 381.53,-213"/>
<polygon fill="#d46a6a" stroke="#d46a6a" stroke-width="1.5" points="381.26,-215.8 389.26,-213 381.26,-210.2 381.26,-215.8"/>
</g>
<!-- unknown.legend_items -->
<g id="node4" class="node">
<title>unknown.legend_items</title>
<path fill="#b8e6b8" stroke="#2c3e50" stroke-width="1.8" d="M59.5,-263C59.5,-263 12,-263 12,-263 6,-263 0,-257 0,-251 0,-251 0,-239 0,-239 0,-233 6,-227 12,-227 12,-227 59.5,-227 59.5,-227 65.5,-227 71.5,-233 71.5,-239 71.5,-239 71.5,-251 71.5,-251 71.5,-257 65.5,-263 59.5,-263"/>
<text xml:space="preserve" text-anchor="middle" x="35.75" y="-241.5" font-family="Arial" font-size="10.00" fill="#1a1a1a">legend items</text>
</g>
<!-- attr_2 -->
<g id="node9" class="node">
<title>attr_2</title>
<path fill="#c7b8e6" stroke="#7f8c8d" stroke-width="1.2" d="M240,-296C240,-296 126.5,-296 126.5,-296 120.5,-296 114.5,-290 114.5,-284 114.5,-284 114.5,-272 114.5,-272 114.5,-266 120.5,-260 126.5,-260 126.5,-260 240,-260 240,-260 246,-260 252,-266 252,-272 252,-272 252,-284 252,-284 252,-290 246,-296 240,-296"/>
<text xml:space="preserve" text-anchor="middle" x="183.25" y="-274.5" font-family="Arial" font-size="10.00" fill="#1a1a1a">(+) numerous legend entries</text>
</g>
<!-- unknown.legend_items&#45;&gt;attr_2 -->
<g id="edge4" class="edge">
<title>unknown.legend_items&#45;&gt;attr_2</title>
<path fill="none" stroke="#aaaaaa" d="M72.34,-253.07C82.6,-255.4 94.2,-258.03 105.92,-260.69"/>
<polygon fill="#aaaaaa" stroke="#aaaaaa" points="105.2,-263.04 112.57,-262.2 106.28,-258.26 105.2,-263.04"/>
</g>
<!-- rel_1 -->
<g id="node12" class="node">
<title>rel_1</title>
<path fill="#f5b8b8" stroke="#d46a6a" stroke-width="1.2" d="M208.88,-231C208.88,-231 157.62,-231 157.62,-231 151.62,-231 145.62,-225 145.62,-219 145.62,-219 145.62,-207 145.62,-207 145.62,-201 151.62,-195 157.62,-195 157.62,-195 208.88,-195 208.88,-195 214.88,-195 220.88,-201 220.88,-207 220.88,-207 220.88,-219 220.88,-219 220.88,-225 214.88,-231 208.88,-231"/>
<text xml:space="preserve" text-anchor="middle" x="183.25" y="-209.5" font-family="Arial" font-size="10.00" fill="#8b0000">contributes to</text>
</g>
<!-- unknown.legend_items&#45;&gt;rel_1 -->
<g id="edge8" class="edge">
<title>unknown.legend_items&#45;&gt;rel_1</title>
<path fill="none" stroke="#d46a6a" stroke-width="1.5" d="M72.34,-237.17C91.36,-232.99 115,-227.79 135.48,-223.29"/>
<polygon fill="#d46a6a" stroke="#d46a6a" stroke-width="1.5" points="135.82,-226.08 143.03,-221.63 134.62,-220.61 135.82,-226.08"/>
</g>
<!-- content.data -->
<g id="node5" class="node">
<title>content.data</title>
<path fill="#b8e6b8" stroke="#2c3e50" stroke-width="1.8" d="M598,-69C598,-69 568,-69 568,-69 562,-69 556,-63 556,-57 556,-57 556,-45 556,-45 556,-39 562,-33 568,-33 568,-33 598,-33 598,-33 604,-33 610,-39 610,-45 610,-45 610,-57 610,-57 610,-63 604,-69 598,-69"/>
<text xml:space="preserve" text-anchor="middle" x="583" y="-47.5" font-family="Arial" font-size="10.00" fill="#1a1a1a">data</text>
</g>
<!-- attr_0 -->
<g id="node10" class="node">
<title>attr_0</title>
<path fill="#c7b8e6" stroke="#7f8c8d" stroke-width="1.2" d="M794.25,-101C794.25,-101 674.75,-101 674.75,-101 668.75,-101 662.75,-95 662.75,-89 662.75,-89 662.75,-77 662.75,-77 662.75,-71 668.75,-65 674.75,-65 674.75,-65 794.25,-65 794.25,-65 800.25,-65 806.25,-71 806.25,-77 806.25,-77 806.25,-89 806.25,-89 806.25,-95 800.25,-101 794.25,-101"/>
<text xml:space="preserve" text-anchor="middle" x="734.5" y="-79.5" font-family="Arial" font-size="10.00" fill="#1a1a1a">(+) dense information content</text>
</g>
<!-- content.data&#45;&gt;attr_0 -->
<g id="edge5" class="edge">
<title>content.data&#45;&gt;attr_0</title>
<path fill="none" stroke="#aaaaaa" d="M610.73,-56.72C623.1,-59.37 638.52,-62.67 654.2,-66.03"/>
<polygon fill="#aaaaaa" stroke="#aaaaaa" points="653.58,-68.4 660.94,-67.47 654.6,-63.61 653.58,-68.4"/>
</g>
<!-- rel_3 -->
<g id="node14" class="node">
<title>rel_3</title>
<path fill="#f5b8b8" stroke="#d46a6a" stroke-width="1.2" d="M756.75,-36C756.75,-36 712.25,-36 712.25,-36 706.25,-36 700.25,-30 700.25,-24 700.25,-24 700.25,-12 700.25,-12 700.25,-6 706.25,0 712.25,0 712.25,0 756.75,0 756.75,0 762.75,0 768.75,-6 768.75,-12 768.75,-12 768.75,-24 768.75,-24 768.75,-30 762.75,-36 756.75,-36"/>
<text xml:space="preserve" text-anchor="middle" x="734.5" y="-14.5" font-family="Arial" font-size="10.00" fill="#8b0000">overwhelms</text>
</g>
<!-- content.data&#45;&gt;rel_3 -->
<g id="edge12" class="edge">
<title>content.data&#45;&gt;rel_3</title>
<path fill="none" stroke="#d46a6a" stroke-width="1.5" d="M610.73,-45.1C632.67,-40.26 664.2,-33.3 689.81,-27.64"/>
<polygon fill="#d46a6a" stroke="#d46a6a" stroke-width="1.5" points="690.23,-30.42 697.44,-25.96 689.03,-24.95 690.23,-30.42"/>
</g>
<!-- rel_0&#45;&gt;unknown.grid_cells -->
<g id="edge7" class="edge">
<title>rel_0&#45;&gt;unknown.grid_cells</title>
<path fill="none" stroke="#d46a6a" stroke-width="1.5" d="M783.39,-129.56C794.17,-125.24 805.52,-120.56 816,-116 826.89,-111.26 838.6,-105.82 849.25,-100.76"/>
<polygon fill="#d46a6a" stroke="#d46a6a" stroke-width="1.5" points="850.24,-103.39 856.24,-97.4 847.82,-98.34 850.24,-103.39"/>
</g>
<!-- rel_1&#45;&gt;furniture.legend -->
<g id="edge9" class="edge">
<title>rel_1&#45;&gt;furniture.legend</title>
<path fill="none" stroke="#d46a6a" stroke-width="1.5" d="M221.26,-213C240.83,-213 264.79,-213 284.32,-213"/>
<polygon fill="#d46a6a" stroke="#d46a6a" stroke-width="1.5" points="284.1,-215.8 292.1,-213 284.1,-210.2 284.1,-215.8"/>
</g>
<!-- rel_2&#45;&gt;property.color -->
<g id="edge11" class="edge">
<title>rel_2&#45;&gt;property.color</title>
<path fill="none" stroke="#d46a6a" stroke-width="1.5" d="M513.24,-213C524.13,-213 535.2,-213 545.18,-213"/>
<polygon fill="#d46a6a" stroke="#d46a6a" stroke-width="1.5" points="544.87,-215.8 552.87,-213 544.87,-210.2 544.87,-215.8"/>
</g>
<!-- rel_3&#45;&gt;unknown.grid_cells -->
<g id="edge13" class="edge">
<title>rel_3&#45;&gt;unknown.grid_cells</title>
<path fill="none" stroke="#d46a6a" stroke-width="1.5" d="M769.32,-31.49C783.76,-37.35 800.76,-44.37 816,-51 826.83,-55.71 838.53,-61.01 849.18,-65.92"/>
<polygon fill="#d46a6a" stroke="#d46a6a" stroke-width="1.5" points="847.73,-68.34 856.16,-69.16 850.08,-63.26 847.73,-68.34"/>
</g>
</g>
</svg>
