<?xml version="1.0" encoding="UTF-8" standalone="no"?>
<!DOCTYPE svg PUBLIC "-//W3C//DTD SVG 1.1//EN"
 "http://www.w3.org/Graphics/SVG/1.1/DTD/svg11.dtd">
<!-- Generated by graphviz version 14.1.5 (20260411.2331)
 -->
<!-- Title: InfoVisJ.1149.8(2).png Pages: 1 -->
<svg width="845pt" height="535pt"
 viewBox="0.00 0.00 845.00 535.00" xmlns="http://www.w3.org/2000/svg" xmlns:xlink="http://www.w3.org/1999/xlink">
<g id="graph0" class="graph" transform="scale(1 1) rotate(0) translate(4 531.25)">
<title>InfoVisJ.1149.8(2).png</title>
<polygon fill="white" stroke="none" points="-4,4 -4,-531.25 840.5,-531.25 840.5,4 -4,4"/>
<text xml:space="preserve" text-anchor="start" x="347.38" y="-506.95" font-family="Arial" font-weight="bold" font-size="14.00">InfoVisJ.1149.8(2).png</text>
<text xml:space="preserve" text-anchor="start" x="375.88" y="-487" font-family="Arial" font-size="11.00">Grid &#160;| &#160;VC = 0.76</text>
<path fill="#b8e6b8" stroke="none" d="M208.88,-462C208.88,-462 216.88,-462 216.88,-462 219.88,-462 222.88,-465 222.88,-468 222.88,-468 222.88,-474 222.88,-474 222.88,-477 219.88,-480 216.88,-480 216.88,-480 208.88,-480 208.88,-480 205.88,-480 202.88,-477 202.88,-474 202.88,-474 202.88,-468 202.88,-468 202.88,-465 205.88,-462 208.88,-462"/>
<path fill="none" stroke="black" d="M208.88,-462C208.88,-462 216.88,-462 216.88,-462 219.88,-462 222.88,-465 222.88,-468 222.88,-468 222.88,-474 222.88,-474 222.88,-477 219.88,-480 216.88,-480 216.88,-480 208.88,-480 208.88,-480 205.88,-480 202.88,-477 202.88,-474 202.88,-474 202.88,-468 202.88,-468 202.88,-465 205.88,-462 208.88,-462"/>
<text xml:space="preserve" text-anchor="start" x="211.38" y="-467.25" font-family="Arial" font-size="10.00"> </text>
<text xml:space="preserve" text-anchor="start" x="226.88" y="-467.25" font-family="Arial" font-size="10.00">Object</text>
<path fill="#c7b8e6" stroke="none" d="M265.38,-462C265.38,-462 273.38,-462 273.38,-462 276.38,-462 279.38,-465 279.38,-468 279.38,-468 279.38,-474 279.38,-474 279.38,-477 276.38,-480 273.38,-480 273.38,-480 265.38,-480 265.38,-480 262.38,-480 259.38,-477 259.38,-474 259.38,-474 259.38,-468 259.38,-468 259.38,-465 262.38,-462 265.38,-462"/>
<path fill="none" stroke="black" d="M265.38,-462C265.38,-462 273.38,-462 273.38,-462 276.38,-462 279.38,-465 279.38,-468 279.38,-468 279.38,-474 279.38,-474 279.38,-477 276.38,-480 273.38,-480 273.38,-480 265.38,-480 265.38,-480 262.38,-480 259.38,-477 259.38,-474 259.38,-474 259.38,-468 259.38,-468 259.38,-465 262.38,-462 265.38,-462"/>
<text xml:space="preserve" text-anchor="start" x="267.88" y="-467.25" font-family="Arial" font-size="10.00"> </text>
<text xml:space="preserve" text-anchor="start" x="283.38" y="-467.25" font-family="Arial" font-size="10.00">Attribute</text>
<path fill="#f5b8b8" stroke="none" d="M330.12,-462C330.12,-462 338.12,-462 338.12,-462 341.12,-462 344.12,-465 344.12,-468 344.12,-468 344.12,-474 344.12,-474 344.12,-477 341.12,-480 338.12,-480 338.12,-480 330.12,-480 330.12,-480 327.12,-480 324.12,-477 324.12,-474 324.12,-474 324.12,-468 324.12,-468 324.12,-465 327.12,-462 330.12,-462"/>
<path fill="none" stroke="black" d="M330.12,-462C330.12,-462 338.12,-462 338.12,-462 341.12,-462 344.12,-465 344.12,-468 344.12,-468 344.12,-474 344.12,-474 344.12,-477 341.12,-480 338.12,-480 338.12,-480 330.12,-480 330.12,-480 327.12,-480 324.12,-477 324.12,-474 324.12,-474 324.12,-468 324.12,-468 324.12,-465 327.12,-462 330.12,-462"/>
<text xml:space="preserve" text-anchor="start" x="332.62" y="-467.25" font-family="Arial" font-size="10.00"> </text>
<text xml:space="preserve" text-anchor="start" x="348.12" y="-467.25" font-family="Arial" font-size="10.00">Relationship</text>
<text xml:space="preserve" text-anchor="start" x="408.12" y="-468.5" font-family="Arial" font-weight="bold" font-size="10.00">(+)</text>
<text xml:space="preserve" text-anchor="start" x="420.12" y="-468.5" font-family="Arial" font-size="10.00"> increases complexity</text>
<text xml:space="preserve" text-anchor="start" x="521.38" y="-468.5" font-family="Arial" font-weight="bold" font-size="10.00">(−)</text>
<text xml:space="preserve" text-anchor="start" x="533.38" y="-468.5" font-family="Arial" font-size="10.00"> decreases complexity</text>
<!-- unknown.grid_layout -->
<g id="node1" class="node">
<title>unknown.grid_layout</title>
<path fill="#b8e6b8" stroke="#2c3e50" stroke-width="1.8" d="M58.38,-164C58.38,-164 21.38,-164 21.38,-164 15.38,-164 9.38,-158 9.38,-152 9.38,-152 9.38,-140 9.38,-140 9.38,-134 15.38,-128 21.38,-128 21.38,-128 58.38,-128 58.38,-128 64.38,-128 70.38,-134 70.38,-140 70.38,-140 70.38,-152 70.38,-152 70.38,-158 64.38,-164 58.38,-164"/>
<text xml:space="preserve" text-anchor="middle" x="39.88" y="-142.5" font-family="Arial" font-size="10.00" fill="#1a1a1a">grid layout</text>
</g>
<!-- attr_0 -->
<g id="node6" class="node">
<title>attr_0</title>
<path fill="#c7b8e6" stroke="#7f8c8d" stroke-width="1.2" d="M251.25,-261C251.25,-261 148.25,-261 148.25,-261 142.25,-261 136.25,-255 136.25,-249 136.25,-249 136.25,-237 136.25,-237 136.25,-231 142.25,-225 148.25,-225 148.25,-225 251.25,-225 251.25,-225 257.25,-225 263.25,-231 263.25,-237 263.25,-237 263.25,-249 263.25,-249 263.25,-255 257.25,-261 251.25,-261"/>
<text xml:space="preserve" text-anchor="middle" x="199.75" y="-239.5" font-family="Arial" font-size="10.00" fill="#1a1a1a">(+) dense cluttered layout</text>
</g>
<!-- unknown.grid_layout&#45;&gt;attr_0 -->
<g id="edge1" class="edge">
<title>unknown.grid_layout&#45;&gt;attr_0</title>
<path fill="none" stroke="#aaaaaa" d="M61.69,-164.69C77.63,-178.39 100.58,-196.81 122.75,-210 129.29,-213.89 136.37,-217.58 143.48,-220.99"/>
<polygon fill="#aaaaaa" stroke="#aaaaaa" points="142.45,-223.2 149.83,-223.93 144.51,-218.76 142.45,-223.2"/>
</g>
<!-- attr_5 -->
<g id="node7" class="node">
<title>attr_5</title>
<path fill="#c7b8e6" stroke="#7f8c8d" stroke-width="1.2" d="M264.75,-196C264.75,-196 134.75,-196 134.75,-196 128.75,-196 122.75,-190 122.75,-184 122.75,-184 122.75,-172 122.75,-172 122.75,-166 128.75,-160 134.75,-160 134.75,-160 264.75,-160 264.75,-160 270.75,-160 276.75,-166 276.75,-172 276.75,-172 276.75,-184 276.75,-184 276.75,-190 270.75,-196 264.75,-196"/>
<text xml:space="preserve" text-anchor="middle" x="199.75" y="-174.5" font-family="Arial" font-size="10.00" fill="#1a1a1a">(+) virtually impossible decipher</text>
</g>
<!-- unknown.grid_layout&#45;&gt;attr_5 -->
<g id="edge2" class="edge">
<title>unknown.grid_layout&#45;&gt;attr_5</title>
<path fill="none" stroke="#aaaaaa" d="M70.94,-152.09C83.44,-154.63 98.62,-157.71 114.11,-160.84"/>
<polygon fill="#aaaaaa" stroke="#aaaaaa" points="113.38,-163.2 120.73,-162.19 114.36,-158.39 113.38,-163.2"/>
</g>
<!-- rel_0 -->
<g id="node13" class="node">
<title>rel_0</title>
<path fill="#f5b8b8" stroke="#d46a6a" stroke-width="1.2" d="M222,-131C222,-131 177.5,-131 177.5,-131 171.5,-131 165.5,-125 165.5,-119 165.5,-119 165.5,-107 165.5,-107 165.5,-101 171.5,-95 177.5,-95 177.5,-95 222,-95 222,-95 228,-95 234,-101 234,-107 234,-107 234,-119 234,-119 234,-125 228,-131 222,-131"/>
<text xml:space="preserve" text-anchor="middle" x="199.75" y="-109.5" font-family="Arial" font-size="10.00" fill="#8b0000">overwhelms</text>
</g>
<!-- unknown.grid_layout&#45;&gt;rel_0 -->
<g id="edge8" class="edge">
<title>unknown.grid_layout&#45;&gt;rel_0</title>
<path fill="none" stroke="#d46a6a" stroke-width="1.5" d="M70.94,-139.72C94.74,-134.74 128.31,-127.72 155.07,-122.13"/>
<polygon fill="#d46a6a" stroke="#d46a6a" stroke-width="1.5" points="155.48,-124.9 162.74,-120.53 154.34,-119.42 155.48,-124.9"/>
</g>
<!-- rel_3 -->
<g id="node16" class="node">
<title>rel_3</title>
<path fill="#f5b8b8" stroke="#d46a6a" stroke-width="1.2" d="M241.5,-66C241.5,-66 158,-66 158,-66 152,-66 146,-60 146,-54 146,-54 146,-42 146,-42 146,-36 152,-30 158,-30 158,-30 241.5,-30 241.5,-30 247.5,-30 253.5,-36 253.5,-42 253.5,-42 253.5,-54 253.5,-54 253.5,-60 247.5,-66 241.5,-66"/>
<text xml:space="preserve" text-anchor="middle" x="199.75" y="-44.5" font-family="Arial" font-size="10.00" fill="#8b0000">requires expertise for</text>
</g>
<!-- unknown.grid_layout&#45;&gt;rel_3 -->
<g id="edge14" class="edge">
<title>unknown.grid_layout&#45;&gt;rel_3</title>
<path fill="none" stroke="#d46a6a" stroke-width="1.5" d="M60.89,-127.19C76.77,-112.95 100.02,-93.58 122.75,-80 128.15,-76.77 133.94,-73.71 139.83,-70.85"/>
<polygon fill="#d46a6a" stroke="#d46a6a" stroke-width="1.5" points="140.98,-73.4 147.05,-67.49 138.61,-68.32 140.98,-73.4"/>
</g>
<!-- unknown.individual_cells -->
<g id="node2" class="node">
<title>unknown.individual_cells</title>
<path fill="#b8e6b8" stroke="#2c3e50" stroke-width="1.8" d="M67.75,-391C67.75,-391 12,-391 12,-391 6,-391 0,-385 0,-379 0,-379 0,-367 0,-367 0,-361 6,-355 12,-355 12,-355 67.75,-355 67.75,-355 73.75,-355 79.75,-361 79.75,-367 79.75,-367 79.75,-379 79.75,-379 79.75,-385 73.75,-391 67.75,-391"/>
<text xml:space="preserve" text-anchor="middle" x="39.88" y="-369.5" font-family="Arial" font-size="10.00" fill="#1a1a1a">individual cells</text>
</g>
<!-- attr_1 -->
<g id="node8" class="node">
<title>attr_1</title>
<path fill="#c7b8e6" stroke="#7f8c8d" stroke-width="1.2" d="M246.75,-456C246.75,-456 152.75,-456 152.75,-456 146.75,-456 140.75,-450 140.75,-444 140.75,-444 140.75,-432 140.75,-432 140.75,-426 146.75,-420 152.75,-420 152.75,-420 246.75,-420 246.75,-420 252.75,-420 258.75,-426 258.75,-432 258.75,-432 258.75,-444 258.75,-444 258.75,-450 252.75,-456 246.75,-456"/>
<text xml:space="preserve" text-anchor="middle" x="199.75" y="-434.5" font-family="Arial" font-size="10.00" fill="#1a1a1a">(+) tiny unreadable size</text>
</g>
<!-- unknown.individual_cells&#45;&gt;attr_1 -->
<g id="edge3" class="edge">
<title>unknown.individual_cells&#45;&gt;attr_1</title>
<path fill="none" stroke="#aaaaaa" d="M80.31,-389.23C100.15,-397.41 124.49,-407.43 145.93,-416.25"/>
<polygon fill="#aaaaaa" stroke="#aaaaaa" points="144.88,-418.47 152.28,-418.87 146.74,-413.94 144.88,-418.47"/>
</g>
<!-- attr_2 -->
<g id="node9" class="node">
<title>attr_2</title>
<path fill="#c7b8e6" stroke="#7f8c8d" stroke-width="1.2" d="M257.62,-391C257.62,-391 141.88,-391 141.88,-391 135.88,-391 129.88,-385 129.88,-379 129.88,-379 129.88,-367 129.88,-367 129.88,-361 135.88,-355 141.88,-355 141.88,-355 257.62,-355 257.62,-355 263.62,-355 269.62,-361 269.62,-367 269.62,-367 269.62,-379 269.62,-379 269.62,-385 263.62,-391 257.62,-391"/>
<text xml:space="preserve" text-anchor="middle" x="199.75" y="-369.5" font-family="Arial" font-size="10.00" fill="#1a1a1a">(+) numerous small subplots</text>
</g>
<!-- unknown.individual_cells&#45;&gt;attr_2 -->
<g id="edge4" class="edge">
<title>unknown.individual_cells&#45;&gt;attr_2</title>
<path fill="none" stroke="#aaaaaa" d="M80.31,-373C92.75,-373 106.96,-373 121.11,-373"/>
<polygon fill="#aaaaaa" stroke="#aaaaaa" points="120.91,-375.45 127.91,-373 120.91,-370.55 120.91,-375.45"/>
</g>
<!-- rel_2 -->
<g id="node15" class="node">
<title>rel_2</title>
<path fill="#f5b8b8" stroke="#d46a6a" stroke-width="1.2" d="M215.62,-326C215.62,-326 183.88,-326 183.88,-326 177.88,-326 171.88,-320 171.88,-314 171.88,-314 171.88,-302 171.88,-302 171.88,-296 177.88,-290 183.88,-290 183.88,-290 215.62,-290 215.62,-290 221.62,-290 227.62,-296 227.62,-302 227.62,-302 227.62,-314 227.62,-314 227.62,-320 221.62,-326 215.62,-326"/>
<text xml:space="preserve" text-anchor="middle" x="199.75" y="-304.5" font-family="Arial" font-size="10.00" fill="#8b0000">obscures</text>
</g>
<!-- unknown.individual_cells&#45;&gt;rel_2 -->
<g id="edge12" class="edge">
<title>unknown.individual_cells&#45;&gt;rel_2</title>
<path fill="none" stroke="#d46a6a" stroke-width="1.5" d="M80.31,-356.77C105.46,-346.41 137.83,-333.08 162.37,-322.98"/>
<polygon fill="#d46a6a" stroke="#d46a6a" stroke-width="1.5" points="163.26,-325.64 169.6,-320 161.13,-320.46 163.26,-325.64"/>
</g>
<!-- property.color -->
<g id="node3" class="node">
<title>property.color</title>
<path fill="#b8e6b8" stroke="#2c3e50" stroke-width="1.8" d="M660.5,-98C660.5,-98 630.5,-98 630.5,-98 624.5,-98 618.5,-92 618.5,-86 618.5,-86 618.5,-74 618.5,-74 618.5,-68 624.5,-62 630.5,-62 630.5,-62 660.5,-62 660.5,-62 666.5,-62 672.5,-68 672.5,-74 672.5,-74 672.5,-86 672.5,-86 672.5,-92 666.5,-98 660.5,-98"/>
<text xml:space="preserve" text-anchor="middle" x="645.5" y="-76.5" font-family="Arial" font-size="10.00" fill="#1a1a1a">color</text>
</g>
<!-- attr_3 -->
<g id="node10" class="node">
<title>attr_3</title>
<path fill="#c7b8e6" stroke="#7f8c8d" stroke-width="1.2" d="M824.5,-101C824.5,-101 727.5,-101 727.5,-101 721.5,-101 715.5,-95 715.5,-89 715.5,-89 715.5,-77 715.5,-77 715.5,-71 721.5,-65 727.5,-65 727.5,-65 824.5,-65 824.5,-65 830.5,-65 836.5,-71 836.5,-77 836.5,-77 836.5,-89 836.5,-89 836.5,-95 830.5,-101 824.5,-101"/>
<text xml:space="preserve" text-anchor="middle" x="776" y="-79.5" font-family="Arial" font-size="10.00" fill="#1a1a1a">(+) vast colorization use</text>
</g>
<!-- property.color&#45;&gt;attr_3 -->
<g id="edge5" class="edge">
<title>property.color&#45;&gt;attr_3</title>
<path fill="none" stroke="#aaaaaa" d="M673.13,-80.62C683.04,-80.85 694.8,-81.13 706.75,-81.41"/>
<polygon fill="#aaaaaa" stroke="#aaaaaa" points="706.46,-83.85 713.51,-81.56 706.57,-78.95 706.46,-83.85"/>
</g>
<!-- rel_1 -->
<g id="node14" class="node">
<title>rel_1</title>
<path fill="#f5b8b8" stroke="#d46a6a" stroke-width="1.2" d="M818.12,-36C818.12,-36 733.88,-36 733.88,-36 727.88,-36 721.88,-30 721.88,-24 721.88,-24 721.88,-12 721.88,-12 721.88,-6 727.88,0 733.88,0 733.88,0 818.12,0 818.12,0 824.12,0 830.12,-6 830.12,-12 830.12,-12 830.12,-24 830.12,-24 830.12,-30 824.12,-36 818.12,-36"/>
<text xml:space="preserve" text-anchor="middle" x="776" y="-14.5" font-family="Arial" font-size="10.00" fill="#8b0000">increases difficulty of</text>
</g>
<!-- property.color&#45;&gt;rel_1 -->
<g id="edge10" class="edge">
<title>property.color&#45;&gt;rel_1</title>
<path fill="none" stroke="#d46a6a" stroke-width="1.5" d="M673.13,-67.15C688.85,-59.57 709.21,-49.74 727.59,-40.87"/>
<polygon fill="#d46a6a" stroke="#d46a6a" stroke-width="1.5" points="728.68,-43.46 734.66,-37.46 726.24,-38.42 728.68,-43.46"/>
</g>
<!-- unknown.text_labels -->
<g id="node4" class="node">
<title>unknown.text_labels</title>
<path fill="#b8e6b8" stroke="#2c3e50" stroke-width="1.8" d="M378.5,-326C378.5,-326 341.5,-326 341.5,-326 335.5,-326 329.5,-320 329.5,-314 329.5,-314 329.5,-302 329.5,-302 329.5,-296 335.5,-290 341.5,-290 341.5,-290 378.5,-290 378.5,-290 384.5,-290 390.5,-296 390.5,-302 390.5,-302 390.5,-314 390.5,-314 390.5,-320 384.5,-326 378.5,-326"/>
<text xml:space="preserve" text-anchor="middle" x="360" y="-304.5" font-family="Arial" font-size="10.00" fill="#1a1a1a">text labels</text>
</g>
<!-- attr_6 -->
<g id="node11" class="node">
<title>attr_6</title>
<path fill="#c7b8e6" stroke="#7f8c8d" stroke-width="1.2" d="M549.25,-326C549.25,-326 469.5,-326 469.5,-326 463.5,-326 457.5,-320 457.5,-314 457.5,-314 457.5,-302 457.5,-302 457.5,-296 463.5,-290 469.5,-290 469.5,-290 549.25,-290 549.25,-290 555.25,-290 561.25,-296 561.25,-302 561.25,-302 561.25,-314 561.25,-314 561.25,-320 555.25,-326 549.25,-326"/>
<text xml:space="preserve" text-anchor="middle" x="509.38" y="-304.5" font-family="Arial" font-size="10.00" fill="#1a1a1a">(+) too small to read</text>
</g>
<!-- unknown.text_labels&#45;&gt;attr_6 -->
<g id="edge6" class="edge">
<title>unknown.text_labels&#45;&gt;attr_6</title>
<path fill="none" stroke="#aaaaaa" d="M391.18,-308C407.76,-308 428.92,-308 448.68,-308"/>
<polygon fill="#aaaaaa" stroke="#aaaaaa" points="448.53,-310.45 455.53,-308 448.53,-305.55 448.53,-310.45"/>
</g>
<!-- unknown.chart_elements -->
<g id="node5" class="node">
<title>unknown.chart_elements</title>
<path fill="#b8e6b8" stroke="#2c3e50" stroke-width="1.8" d="M388.25,-98C388.25,-98 331.75,-98 331.75,-98 325.75,-98 319.75,-92 319.75,-86 319.75,-86 319.75,-74 319.75,-74 319.75,-68 325.75,-62 331.75,-62 331.75,-62 388.25,-62 388.25,-62 394.25,-62 400.25,-68 400.25,-74 400.25,-74 400.25,-86 400.25,-86 400.25,-92 394.25,-98 388.25,-98"/>
<text xml:space="preserve" text-anchor="middle" x="360" y="-76.5" font-family="Arial" font-size="10.00" fill="#1a1a1a">chart elements</text>
</g>
<!-- attr_4 -->
<g id="node12" class="node">
<title>attr_4</title>
<path fill="#c7b8e6" stroke="#7f8c8d" stroke-width="1.2" d="M563.5,-163C563.5,-163 455.25,-163 455.25,-163 449.25,-163 443.25,-157 443.25,-151 443.25,-151 443.25,-139 443.25,-139 443.25,-133 449.25,-127 455.25,-127 455.25,-127 563.5,-127 563.5,-127 569.5,-127 575.5,-133 575.5,-139 575.5,-139 575.5,-151 575.5,-151 575.5,-157 569.5,-163 563.5,-163"/>
<text xml:space="preserve" text-anchor="middle" x="509.38" y="-141.5" font-family="Arial" font-size="10.00" fill="#1a1a1a">(+) immense detail amount</text>
</g>
<!-- unknown.chart_elements&#45;&gt;attr_4 -->
<g id="edge7" class="edge">
<title>unknown.chart_elements&#45;&gt;attr_4</title>
<path fill="none" stroke="#aaaaaa" d="M400.88,-97.59C418.71,-105.45 439.92,-114.81 458.76,-123.12"/>
<polygon fill="#aaaaaa" stroke="#aaaaaa" points="457.62,-125.29 465.02,-125.88 459.6,-120.81 457.62,-125.29"/>
</g>
<!-- rel_4 -->
<g id="node17" class="node">
<title>rel_4</title>
<path fill="#f5b8b8" stroke="#d46a6a" stroke-width="1.2" d="M531.62,-98C531.62,-98 487.12,-98 487.12,-98 481.12,-98 475.12,-92 475.12,-86 475.12,-86 475.12,-74 475.12,-74 475.12,-68 481.12,-62 487.12,-62 487.12,-62 531.62,-62 531.62,-62 537.62,-62 543.62,-68 543.62,-74 543.62,-74 543.62,-86 543.62,-86 543.62,-92 537.62,-98 531.62,-98"/>
<text xml:space="preserve" text-anchor="middle" x="509.38" y="-76.5" font-family="Arial" font-size="10.00" fill="#8b0000">overwhelms</text>
</g>
<!-- unknown.chart_elements&#45;&gt;rel_4 -->
<g id="edge16" class="edge">
<title>unknown.chart_elements&#45;&gt;rel_4</title>
<path fill="none" stroke="#d46a6a" stroke-width="1.5" d="M400.88,-80C420.63,-80 444.51,-80 464.74,-80"/>
<polygon fill="#d46a6a" stroke="#d46a6a" stroke-width="1.5" points="464.67,-82.8 472.67,-80 464.67,-77.2 464.67,-82.8"/>
</g>
<!-- rel_0&#45;&gt;unknown.chart_elements -->
<g id="edge9" class="edge">
<title>rel_0&#45;&gt;unknown.chart_elements</title>
<path fill="none" stroke="#d46a6a" stroke-width="1.5" d="M234.31,-106C256.08,-101.46 284.83,-95.47 309.24,-90.38"/>
<polygon fill="#d46a6a" stroke="#d46a6a" stroke-width="1.5" points="309.57,-93.17 316.83,-88.79 308.42,-87.69 309.57,-93.17"/>
</g>
<!-- rel_1&#45;&gt;unknown.chart_elements -->
<g id="edge11" class="edge">
<title>rel_1&#45;&gt;unknown.chart_elements</title>
<path fill="none" stroke="#d46a6a" stroke-width="1.5" d="M721.37,-17.87C655.13,-18.81 539.41,-24.04 443.25,-47 432.25,-49.63 420.79,-53.46 410.04,-57.6"/>
<polygon fill="#d46a6a" stroke="#d46a6a" stroke-width="1.5" points="409.31,-54.88 402.92,-60.45 411.38,-60.08 409.31,-54.88"/>
</g>
<!-- rel_2&#45;&gt;unknown.text_labels -->
<g id="edge13" class="edge">
<title>rel_2&#45;&gt;unknown.text_labels</title>
<path fill="none" stroke="#d46a6a" stroke-width="1.5" d="M227.95,-308C252.9,-308 290.18,-308 318.61,-308"/>
<polygon fill="#d46a6a" stroke="#d46a6a" stroke-width="1.5" points="318.37,-310.8 326.37,-308 318.37,-305.2 318.37,-310.8"/>
</g>
<!-- rel_3&#45;&gt;unknown.chart_elements -->
<g id="edge15" class="edge">
<title>rel_3&#45;&gt;unknown.chart_elements</title>
<path fill="none" stroke="#d46a6a" stroke-width="1.5" d="M253.89,-58.74C271.67,-62.34 291.44,-66.34 308.98,-69.89"/>
<polygon fill="#d46a6a" stroke="#d46a6a" stroke-width="1.5" points="308.4,-72.62 316.79,-71.47 309.51,-67.14 308.4,-72.62"/>
</g>
<!-- rel_4&#45;&gt;property.color -->
<g id="edge17" class="edge">
<title>rel_4&#45;&gt;property.color</title>
<path fill="none" stroke="#d46a6a" stroke-width="1.5" d="M544.22,-80C563.56,-80 587.83,-80 607.65,-80"/>
<polygon fill="#d46a6a" stroke="#d46a6a" stroke-width="1.5" points="607.58,-82.8 615.58,-80 607.58,-77.2 607.58,-82.8"/>
</g>
</g>
</svg>
