<?xml version="1.0" encoding="UTF-8" standalone="no"?>
<!DOCTYPE svg PUBLIC "-//W3C//DTD SVG 1.1//EN"
 "http://www.w3.org/Graphics/SVG/1.1/DTD/svg11.dtd">
<!-- Generated by graphviz version 14.1.5 (20260411.2331)
 -->
<!-- Title: InfoVisJ.2486.8.png Pages: 1 -->
<svg width="836pt" height="505pt"
 viewBox="0.00 0.00 836.00 505.00" xmlns="http://www.w3.org/2000/svg" xmlns:xlink="http://www.w3.org/1999/xlink">
<g id="graph0" class="graph" transform="scale(1 1) rotate(0) translate(4 501.25)">
<title>InfoVisJ.2486.8.png</title>
<polygon fill="white" stroke="none" points="-4,4 -4,-501.25 832,-501.25 832,4 -4,4"/>
<text xml:space="preserve" text-anchor="start" x="351" y="-476.95" font-family="Arial" font-weight="bold" font-size="14.00">InfoVisJ.2486.8.png</text>
<text xml:space="preserve" text-anchor="start" x="358.88" y="-457" font-family="Arial" font-size="11.00">Node&#45;link &#160;| &#160;VC = 0.72</text>
<path fill="#b8e6b8" stroke="none" d="M204.62,-432C204.62,-432 212.62,-432 212.62,-432 215.62,-432 218.62,-435 218.62,-438 218.62,-438 218.62,-444 218.62,-444 218.62,-447 215.62,-450 212.62,-450 212.62,-450 204.62,-450 204.62,-450 201.62,-450 198.62,-447 198.62,-444 198.62,-444 198.62,-438 198.62,-438 198.62,-435 201.62,-432 204.62,-432"/>
<path fill="none" stroke="black" d="M204.62,-432C204.62,-432 212.62,-432 212.62,-432 215.62,-432 218.62,-435 218.62,-438 218.62,-438 218.62,-444 218.62,-444 218.62,-447 215.62,-450 212.62,-450 212.62,-450 204.62,-450 204.62,-450 201.62,-450 198.62,-447 198.62,-444 198.62,-444 198.62,-438 198.62,-438 198.62,-435 201.62,-432 204.62,-432"/>
<text xml:space="preserve" text-anchor="start" x="207.12" y="-437.25" font-family="Arial" font-size="10.00"> </text>
<text xml:space="preserve" text-anchor="start" x="222.62" y="-437.25" font-family="Arial" font-size="10.00">Object</text>
<path fill="#c7b8e6" stroke="none" d="M261.12,-432C261.12,-432 269.12,-432 269.12,-432 272.12,-432 275.12,-435 275.12,-438 275.12,-438 275.12,-444 275.12,-444 275.12,-447 272.12,-450 269.12,-450 269.12,-450 261.12,-450 261.12,-450 258.12,-450 255.12,-447 255.12,-444 255.12,-444 255.12,-438 255.12,-438 255.12,-435 258.12,-432 261.12,-432"/>
<path fill="none" stroke="black" d="M261.12,-432C261.12,-432 269.12,-432 269.12,-432 272.12,-432 275.12,-435 275.12,-438 275.12,-438 275.12,-444 275.12,-444 275.12,-447 272.12,-450 269.12,-450 269.12,-450 261.12,-450 261.12,-450 258.12,-450 255.12,-447 255.12,-444 255.12,-444 255.12,-438 255.12,-438 255.12,-435 258.12,-432 261.12,-432"/>
<text xml:space="preserve" text-anchor="start" x="263.62" y="-437.25" font-family="Arial" font-size="10.00"> </text>
<text xml:space="preserve" text-anchor="start" x="279.12" y="-437.25" font-family="Arial" font-size="10.00">Attribute</text>
<path fill="#f5b8b8" stroke="none" d="M325.88,-432C325.88,-432 333.88,-432 333.88,-432 336.88,-432 339.88,-435 339.88,-438 339.88,-438 339.88,-444 339.88,-444 339.88,-447 336.88,-450 333.88,-450 333.88,-450 325.88,-450 325.88,-450 322.88,-450 319.88,-447 319.88,-444 319.88,-444 319.88,-438 319.88,-438 319.88,-435 322.88,-432 325.88,-432"/>
<path fill="none" stroke="black" d="M325.88,-432C325.88,-432 333.88,-432 333.88,-432 336.88,-432 339.88,-435 339.88,-438 339.88,-438 339.88,-444 339.88,-444 339.88,-447 336.88,-450 333.88,-450 333.88,-450 325.88,-450 325.88,-450 322.88,-450 319.88,-447 319.88,-444 319.88,-444 319.88,-438 319.88,-438 319.88,-435 322.88,-432 325.88,-432"/>
<text xml:space="preserve" text-anchor="start" x="328.38" y="-437.25" font-family="Arial" font-size="10.00"> </text>
<text xml:space="preserve" text-anchor="start" x="343.88" y="-437.25" font-family="Arial" font-size="10.00">Relationship</text>
<text xml:space="preserve" text-anchor="start" x="403.88" y="-438.5" font-family="Arial" font-weight="bold" font-size="10.00">(+)</text>
<text xml:space="preserve" text-anchor="start" x="415.88" y="-438.5" font-family="Arial" font-size="10.00"> increases complexity</text>
<text xml:space="preserve" text-anchor="start" x="517.12" y="-438.5" font-family="Arial" font-weight="bold" font-size="10.00">(−)</text>
<text xml:space="preserve" text-anchor="start" x="529.12" y="-438.5" font-family="Arial" font-size="10.00"> decreases complexity</text>
<!-- unknown.lines -->
<g id="node1" class="node">
<title>unknown.lines</title>
<path fill="#b8e6b8" stroke="#2c3e50" stroke-width="1.8" d="M346.75,-328C346.75,-328 316.75,-328 316.75,-328 310.75,-328 304.75,-322 304.75,-316 304.75,-316 304.75,-304 304.75,-304 304.75,-298 310.75,-292 316.75,-292 316.75,-292 346.75,-292 346.75,-292 352.75,-292 358.75,-298 358.75,-304 358.75,-304 358.75,-316 358.75,-316 358.75,-322 352.75,-328 346.75,-328"/>
<text xml:space="preserve" text-anchor="middle" x="331.75" y="-306.5" font-family="Arial" font-size="10.00" fill="#1a1a1a">lines</text>
</g>
<!-- attr_0 -->
<g id="node6" class="node">
<title>attr_0</title>
<path fill="#c7b8e6" stroke="#7f8c8d" stroke-width="1.2" d="M547.5,-426C547.5,-426 413.75,-426 413.75,-426 407.75,-426 401.75,-420 401.75,-414 401.75,-414 401.75,-402 401.75,-402 401.75,-396 407.75,-390 413.75,-390 413.75,-390 547.5,-390 547.5,-390 553.5,-390 559.5,-396 559.5,-402 559.5,-402 559.5,-414 559.5,-414 559.5,-420 553.5,-426 547.5,-426"/>
<text xml:space="preserve" text-anchor="middle" x="480.62" y="-404.5" font-family="Arial" font-size="10.00" fill="#1a1a1a">(+) complex interconnected lines</text>
</g>
<!-- unknown.lines&#45;&gt;attr_0 -->
<g id="edge1" class="edge">
<title>unknown.lines&#45;&gt;attr_0</title>
<path fill="none" stroke="#aaaaaa" d="M348.78,-328.78C361.87,-343.2 381.46,-362.81 401.75,-376 407.18,-379.53 413.06,-382.8 419.07,-385.78"/>
<polygon fill="#aaaaaa" stroke="#aaaaaa" points="418,-387.99 425.37,-388.77 420.1,-383.56 418,-387.99"/>
</g>
<!-- attr_1 -->
<g id="node7" class="node">
<title>attr_1</title>
<path fill="#c7b8e6" stroke="#7f8c8d" stroke-width="1.2" d="M522.75,-361C522.75,-361 438.5,-361 438.5,-361 432.5,-361 426.5,-355 426.5,-349 426.5,-349 426.5,-337 426.5,-337 426.5,-331 432.5,-325 438.5,-325 438.5,-325 522.75,-325 522.75,-325 528.75,-325 534.75,-331 534.75,-337 534.75,-337 534.75,-349 534.75,-349 534.75,-355 528.75,-361 522.75,-361"/>
<text xml:space="preserve" text-anchor="middle" x="480.62" y="-339.5" font-family="Arial" font-size="10.00" fill="#1a1a1a">(−) red colored edges</text>
</g>
<!-- unknown.lines&#45;&gt;attr_1 -->
<g id="edge2" class="edge">
<title>unknown.lines&#45;&gt;attr_1</title>
<path fill="none" stroke="#aaaaaa" d="M359.35,-315.98C375.77,-319.67 397.55,-324.56 418.06,-329.17"/>
<polygon fill="#aaaaaa" stroke="#aaaaaa" points="417.31,-331.51 424.67,-330.65 418.38,-326.73 417.31,-331.51"/>
</g>
<!-- rel_0 -->
<g id="node13" class="node">
<title>rel_0</title>
<path fill="#f5b8b8" stroke="#d46a6a" stroke-width="1.2" d="M496.5,-296C496.5,-296 464.75,-296 464.75,-296 458.75,-296 452.75,-290 452.75,-284 452.75,-284 452.75,-272 452.75,-272 452.75,-266 458.75,-260 464.75,-260 464.75,-260 496.5,-260 496.5,-260 502.5,-260 508.5,-266 508.5,-272 508.5,-272 508.5,-284 508.5,-284 508.5,-290 502.5,-296 496.5,-296"/>
<text xml:space="preserve" text-anchor="middle" x="480.62" y="-274.5" font-family="Arial" font-size="10.00" fill="#8b0000">connects</text>
</g>
<!-- unknown.lines&#45;&gt;rel_0 -->
<g id="edge8" class="edge">
<title>unknown.lines&#45;&gt;rel_0</title>
<path fill="none" stroke="#d46a6a" stroke-width="1.5" d="M359.35,-304.21C382.56,-299.15 416.47,-291.76 442.38,-286.11"/>
<polygon fill="#d46a6a" stroke="#d46a6a" stroke-width="1.5" points="442.79,-288.89 450.01,-284.45 441.6,-283.42 442.79,-288.89"/>
</g>
<!-- rel_3 -->
<g id="node16" class="node">
<title>rel_3</title>
<path fill="#f5b8b8" stroke="#d46a6a" stroke-width="1.2" d="M521.25,-231C521.25,-231 440,-231 440,-231 434,-231 428,-225 428,-219 428,-219 428,-207 428,-207 428,-201 434,-195 440,-195 440,-195 521.25,-195 521.25,-195 527.25,-195 533.25,-201 533.25,-207 533.25,-207 533.25,-219 533.25,-219 533.25,-225 527.25,-231 521.25,-231"/>
<text xml:space="preserve" text-anchor="middle" x="480.62" y="-209.5" font-family="Arial" font-size="10.00" fill="#8b0000">contributes to clutter</text>
</g>
<!-- unknown.lines&#45;&gt;rel_3 -->
<g id="edge14" class="edge">
<title>unknown.lines&#45;&gt;rel_3</title>
<path fill="none" stroke="#d46a6a" stroke-width="1.5" d="M349.47,-291.31C362.63,-277.43 382,-258.78 401.75,-246 407.38,-242.36 413.48,-238.96 419.71,-235.84"/>
<polygon fill="#d46a6a" stroke="#d46a6a" stroke-width="1.5" points="420.81,-238.42 426.83,-232.45 418.4,-233.36 420.81,-238.42"/>
</g>
<!-- unknown.nodes -->
<g id="node2" class="node">
<title>unknown.nodes</title>
<path fill="#b8e6b8" stroke="#2c3e50" stroke-width="1.8" d="M644.5,-296C644.5,-296 614.5,-296 614.5,-296 608.5,-296 602.5,-290 602.5,-284 602.5,-284 602.5,-272 602.5,-272 602.5,-266 608.5,-260 614.5,-260 614.5,-260 644.5,-260 644.5,-260 650.5,-260 656.5,-266 656.5,-272 656.5,-272 656.5,-284 656.5,-284 656.5,-290 650.5,-296 644.5,-296"/>
<text xml:space="preserve" text-anchor="middle" x="629.5" y="-274.5" font-family="Arial" font-size="10.00" fill="#1a1a1a">nodes</text>
</g>
<!-- attr_2 -->
<g id="node8" class="node">
<title>attr_2</title>
<path fill="#c7b8e6" stroke="#7f8c8d" stroke-width="1.2" d="M799.12,-296C799.12,-296 728.38,-296 728.38,-296 722.38,-296 716.38,-290 716.38,-284 716.38,-284 716.38,-272 716.38,-272 716.38,-266 722.38,-260 728.38,-260 728.38,-260 799.12,-260 799.12,-260 805.12,-260 811.12,-266 811.12,-272 811.12,-272 811.12,-284 811.12,-284 811.12,-290 805.12,-296 799.12,-296"/>
<text xml:space="preserve" text-anchor="middle" x="763.75" y="-274.5" font-family="Arial" font-size="10.00" fill="#1a1a1a">(−) blue dot nodes</text>
</g>
<!-- unknown.nodes&#45;&gt;attr_2 -->
<g id="edge3" class="edge">
<title>unknown.nodes&#45;&gt;attr_2</title>
<path fill="none" stroke="#aaaaaa" d="M657.26,-278C671.73,-278 690.14,-278 707.52,-278"/>
<polygon fill="#aaaaaa" stroke="#aaaaaa" points="707.44,-280.45 714.44,-278 707.44,-275.55 707.44,-280.45"/>
</g>
<!-- unknown.network -->
<g id="node3" class="node">
<title>unknown.network</title>
<path fill="#b8e6b8" stroke="#2c3e50" stroke-width="1.8" d="M346.75,-101C346.75,-101 316.75,-101 316.75,-101 310.75,-101 304.75,-95 304.75,-89 304.75,-89 304.75,-77 304.75,-77 304.75,-71 310.75,-65 316.75,-65 316.75,-65 346.75,-65 346.75,-65 352.75,-65 358.75,-71 358.75,-77 358.75,-77 358.75,-89 358.75,-89 358.75,-95 352.75,-101 346.75,-101"/>
<text xml:space="preserve" text-anchor="middle" x="331.75" y="-79.5" font-family="Arial" font-size="10.00" fill="#1a1a1a">network</text>
</g>
<!-- attr_3 -->
<g id="node9" class="node">
<title>attr_3</title>
<path fill="#c7b8e6" stroke="#7f8c8d" stroke-width="1.2" d="M541.88,-166C541.88,-166 419.38,-166 419.38,-166 413.38,-166 407.38,-160 407.38,-154 407.38,-154 407.38,-142 407.38,-142 407.38,-136 413.38,-130 419.38,-130 419.38,-130 541.88,-130 541.88,-130 547.88,-130 553.88,-136 553.88,-142 553.88,-142 553.88,-154 553.88,-154 553.88,-160 547.88,-166 541.88,-166"/>
<text xml:space="preserve" text-anchor="middle" x="480.62" y="-144.5" font-family="Arial" font-size="10.00" fill="#1a1a1a">(+) complex network structure</text>
</g>
<!-- unknown.network&#45;&gt;attr_3 -->
<g id="edge4" class="edge">
<title>unknown.network&#45;&gt;attr_3</title>
<path fill="none" stroke="#aaaaaa" d="M359.46,-96.2C372.19,-102.39 387.67,-109.75 401.75,-116 409.52,-119.45 417.79,-122.99 425.91,-126.39"/>
<polygon fill="#aaaaaa" stroke="#aaaaaa" points="424.52,-128.47 431.93,-128.89 426.4,-123.94 424.52,-128.47"/>
</g>
<!-- attr_6 -->
<g id="node10" class="node">
<title>attr_6</title>
<path fill="#c7b8e6" stroke="#7f8c8d" stroke-width="1.2" d="M534.75,-101C534.75,-101 426.5,-101 426.5,-101 420.5,-101 414.5,-95 414.5,-89 414.5,-89 414.5,-77 414.5,-77 414.5,-71 420.5,-65 426.5,-65 426.5,-65 534.75,-65 534.75,-65 540.75,-65 546.75,-71 546.75,-77 546.75,-77 546.75,-89 546.75,-89 546.75,-95 540.75,-101 534.75,-101"/>
<text xml:space="preserve" text-anchor="middle" x="480.62" y="-79.5" font-family="Arial" font-size="10.00" fill="#1a1a1a">(+) requires prior familiarity</text>
</g>
<!-- unknown.network&#45;&gt;attr_6 -->
<g id="edge5" class="edge">
<title>unknown.network&#45;&gt;attr_6</title>
<path fill="none" stroke="#aaaaaa" d="M359.35,-83C372.56,-83 389.25,-83 405.95,-83"/>
<polygon fill="#aaaaaa" stroke="#aaaaaa" points="405.62,-85.45 412.62,-83 405.62,-80.55 405.62,-85.45"/>
</g>
<!-- rel_1 -->
<g id="node14" class="node">
<title>rel_1</title>
<path fill="#f5b8b8" stroke="#d46a6a" stroke-width="1.2" d="M542.62,-36C542.62,-36 418.62,-36 418.62,-36 412.62,-36 406.62,-30 406.62,-24 406.62,-24 406.62,-12 406.62,-12 406.62,-6 412.62,0 418.62,0 418.62,0 542.62,0 542.62,0 548.62,0 554.62,-6 554.62,-12 554.62,-12 554.62,-24 554.62,-24 554.62,-30 548.62,-36 542.62,-36"/>
<text xml:space="preserve" text-anchor="middle" x="480.62" y="-14.5" font-family="Arial" font-size="10.00" fill="#8b0000">increases interpretive difficulty</text>
</g>
<!-- unknown.network&#45;&gt;rel_1 -->
<g id="edge10" class="edge">
<title>unknown.network&#45;&gt;rel_1</title>
<path fill="none" stroke="#d46a6a" stroke-width="1.5" d="M359.46,-69.8C372.19,-63.61 387.67,-56.25 401.75,-50 408.89,-46.83 416.44,-43.59 423.92,-40.44"/>
<polygon fill="#d46a6a" stroke="#d46a6a" stroke-width="1.5" points="424.92,-43.06 431.23,-37.4 422.77,-37.89 424.92,-43.06"/>
</g>
<!-- unknown.color_scheme -->
<g id="node4" class="node">
<title>unknown.color_scheme</title>
<path fill="#b8e6b8" stroke="#2c3e50" stroke-width="1.8" d="M62.5,-133C62.5,-133 12,-133 12,-133 6,-133 0,-127 0,-121 0,-121 0,-109 0,-109 0,-103 6,-97 12,-97 12,-97 62.5,-97 62.5,-97 68.5,-97 74.5,-103 74.5,-109 74.5,-109 74.5,-121 74.5,-121 74.5,-127 68.5,-133 62.5,-133"/>
<text xml:space="preserve" text-anchor="middle" x="37.25" y="-111.5" font-family="Arial" font-size="10.00" fill="#1a1a1a">color scheme</text>
</g>
<!-- attr_4 -->
<g id="node11" class="node">
<title>attr_4</title>
<path fill="#c7b8e6" stroke="#7f8c8d" stroke-width="1.2" d="M249.75,-166C249.75,-166 129.5,-166 129.5,-166 123.5,-166 117.5,-160 117.5,-154 117.5,-154 117.5,-142 117.5,-142 117.5,-136 123.5,-130 129.5,-130 129.5,-130 249.75,-130 249.75,-130 255.75,-130 261.75,-136 261.75,-142 261.75,-142 261.75,-154 261.75,-154 261.75,-160 255.75,-166 249.75,-166"/>
<text xml:space="preserve" text-anchor="middle" x="189.62" y="-144.5" font-family="Arial" font-size="10.00" fill="#1a1a1a">(+) limited color differentiation</text>
</g>
<!-- unknown.color_scheme&#45;&gt;attr_4 -->
<g id="edge6" class="edge">
<title>unknown.color_scheme&#45;&gt;attr_4</title>
<path fill="none" stroke="#aaaaaa" d="M75.04,-123.07C85.35,-125.34 96.98,-127.89 108.77,-130.48"/>
<polygon fill="#aaaaaa" stroke="#aaaaaa" points="108.1,-132.84 115.46,-131.94 109.15,-128.05 108.1,-132.84"/>
</g>
<!-- rel_2 -->
<g id="node15" class="node">
<title>rel_2</title>
<path fill="#f5b8b8" stroke="#d46a6a" stroke-width="1.2" d="M222.38,-101C222.38,-101 156.88,-101 156.88,-101 150.88,-101 144.88,-95 144.88,-89 144.88,-89 144.88,-77 144.88,-77 144.88,-71 150.88,-65 156.88,-65 156.88,-65 222.38,-65 222.38,-65 228.38,-65 234.38,-71 234.38,-77 234.38,-77 234.38,-89 234.38,-89 234.38,-95 228.38,-101 222.38,-101"/>
<text xml:space="preserve" text-anchor="middle" x="189.62" y="-79.5" font-family="Arial" font-size="10.00" fill="#8b0000">partially encodes</text>
</g>
<!-- unknown.color_scheme&#45;&gt;rel_2 -->
<g id="edge12" class="edge">
<title>unknown.color_scheme&#45;&gt;rel_2</title>
<path fill="none" stroke="#d46a6a" stroke-width="1.5" d="M75.04,-107.17C92.96,-103.36 114.87,-98.7 134.65,-94.49"/>
<polygon fill="#d46a6a" stroke="#d46a6a" stroke-width="1.5" points="134.99,-97.28 142.24,-92.87 133.83,-91.8 134.99,-97.28"/>
</g>
<!-- structure.layout -->
<g id="node5" class="node">
<title>structure.layout</title>
<path fill="#b8e6b8" stroke="#2c3e50" stroke-width="1.8" d="M644.5,-134C644.5,-134 614.5,-134 614.5,-134 608.5,-134 602.5,-128 602.5,-122 602.5,-122 602.5,-110 602.5,-110 602.5,-104 608.5,-98 614.5,-98 614.5,-98 644.5,-98 644.5,-98 650.5,-98 656.5,-104 656.5,-110 656.5,-110 656.5,-122 656.5,-122 656.5,-128 650.5,-134 644.5,-134"/>
<text xml:space="preserve" text-anchor="middle" x="629.5" y="-112.5" font-family="Arial" font-size="10.00" fill="#1a1a1a">layout</text>
</g>
<!-- attr_5 -->
<g id="node12" class="node">
<title>attr_5</title>
<path fill="#c7b8e6" stroke="#7f8c8d" stroke-width="1.2" d="M816,-134C816,-134 711.5,-134 711.5,-134 705.5,-134 699.5,-128 699.5,-122 699.5,-122 699.5,-110 699.5,-110 699.5,-104 705.5,-98 711.5,-98 711.5,-98 816,-98 816,-98 822,-98 828,-104 828,-110 828,-110 828,-122 828,-122 828,-128 822,-134 816,-134"/>
<text xml:space="preserve" text-anchor="middle" x="763.75" y="-112.5" font-family="Arial" font-size="10.00" fill="#1a1a1a">(+) dense node link layout</text>
</g>
<!-- structure.layout&#45;&gt;attr_5 -->
<g id="edge7" class="edge">
<title>structure.layout&#45;&gt;attr_5</title>
<path fill="none" stroke="#aaaaaa" d="M657.26,-116C667.14,-116 678.85,-116 690.82,-116"/>
<polygon fill="#aaaaaa" stroke="#aaaaaa" points="690.61,-118.45 697.61,-116 690.61,-113.55 690.61,-118.45"/>
</g>
<!-- rel_0&#45;&gt;unknown.nodes -->
<g id="edge9" class="edge">
<title>rel_0&#45;&gt;unknown.nodes</title>
<path fill="none" stroke="#d46a6a" stroke-width="1.5" d="M508.91,-278C532.24,-278 566.02,-278 591.74,-278"/>
<polygon fill="#d46a6a" stroke="#d46a6a" stroke-width="1.5" points="591.59,-280.8 599.59,-278 591.59,-275.2 591.59,-280.8"/>
</g>
<!-- rel_1&#45;&gt;structure.layout -->
<g id="edge11" class="edge">
<title>rel_1&#45;&gt;structure.layout</title>
<path fill="none" stroke="#d46a6a" stroke-width="1.5" d="M534.51,-36.58C543.14,-40.49 551.78,-44.98 559.5,-50 576.46,-61.03 592.93,-76.54 605.53,-89.76"/>
<polygon fill="#d46a6a" stroke="#d46a6a" stroke-width="1.5" points="603.42,-91.61 610.92,-95.56 607.52,-87.79 603.42,-91.61"/>
</g>
<!-- rel_2&#45;&gt;unknown.network -->
<g id="edge13" class="edge">
<title>rel_2&#45;&gt;unknown.network</title>
<path fill="none" stroke="#d46a6a" stroke-width="1.5" d="M234.96,-83C254,-83 275.97,-83 294.07,-83"/>
<polygon fill="#d46a6a" stroke="#d46a6a" stroke-width="1.5" points="293.96,-85.8 301.96,-83 293.96,-80.2 293.96,-85.8"/>
</g>
<!-- rel_3&#45;&gt;structure.layout -->
<g id="edge15" class="edge">
<title>rel_3&#45;&gt;structure.layout</title>
<path fill="none" stroke="#d46a6a" stroke-width="1.5" d="M533.65,-194.74C542.56,-190.75 551.52,-186.15 559.5,-181 576.27,-170.19 592.62,-155.04 605.2,-142.09"/>
<polygon fill="#d46a6a" stroke="#d46a6a" stroke-width="1.5" points="607.11,-144.15 610.58,-136.42 603.05,-140.3 607.11,-144.15"/>
</g>
</g>
</svg>
