<?xml version="1.0" encoding="UTF-8" standalone="no"?>
<!DOCTYPE svg PUBLIC "-//W3C//DTD SVG 1.1//EN"
 "http://www.w3.org/Graphics/SVG/1.1/DTD/svg11.dtd">
<!-- Generated by graphviz version 14.1.5 (20260411.2331)
 -->
<!-- Title: InfoVisJ.1247.10.png Pages: 1 -->
<svg width="1061pt" height="375pt"
 viewBox="0.00 0.00 1061.00 375.00" xmlns="http://www.w3.org/2000/svg" xmlns:xlink="http://www.w3.org/1999/xlink">
<g id="graph0" class="graph" transform="scale(1 1) rotate(0) translate(4 371.25)">
<title>InfoVisJ.1247.10.png</title>
<polygon fill="white" stroke="none" points="-4,4 -4,-371.25 1056.5,-371.25 1056.5,4 -4,4"/>
<text xml:space="preserve" text-anchor="start" x="459.5" y="-346.95" font-family="Arial" font-weight="bold" font-size="14.00">InfoVisJ.1247.10.png</text>
<text xml:space="preserve" text-anchor="start" x="483.88" y="-327" font-family="Arial" font-size="11.00">Line &#160;| &#160;VC = 0.47</text>
<path fill="#b8e6b8" stroke="none" d="M316.88,-302C316.88,-302 324.88,-302 324.88,-302 327.88,-302 330.88,-305 330.88,-308 330.88,-308 330.88,-314 330.88,-314 330.88,-317 327.88,-320 324.88,-320 324.88,-320 316.88,-320 316.88,-320 313.88,-320 310.88,-317 310.88,-314 310.88,-314 310.88,-308 310.88,-308 310.88,-305 313.88,-302 316.88,-302"/>
<path fill="none" stroke="black" d="M316.88,-302C316.88,-302 324.88,-302 324.88,-302 327.88,-302 330.88,-305 330.88,-308 330.88,-308 330.88,-314 330.88,-314 330.88,-317 327.88,-320 324.88,-320 324.88,-320 316.88,-320 316.88,-320 313.88,-320 310.88,-317 310.88,-314 310.88,-314 310.88,-308 310.88,-308 310.88,-305 313.88,-302 316.88,-302"/>
<text xml:space="preserve" text-anchor="start" x="319.38" y="-307.25" font-family="Arial" font-size="10.00"> </text>
<text xml:space="preserve" text-anchor="start" x="334.88" y="-307.25" font-family="Arial" font-size="10.00">Object</text>
<path fill="#c7b8e6" stroke="none" d="M373.38,-302C373.38,-302 381.38,-302 381.38,-302 384.38,-302 387.38,-305 387.38,-308 387.38,-308 387.38,-314 387.38,-314 387.38,-317 384.38,-320 381.38,-320 381.38,-320 373.38,-320 373.38,-320 370.38,-320 367.38,-317 367.38,-314 367.38,-314 367.38,-308 367.38,-308 367.38,-305 370.38,-302 373.38,-302"/>
<path fill="none" stroke="black" d="M373.38,-302C373.38,-302 381.38,-302 381.38,-302 384.38,-302 387.38,-305 387.38,-308 387.38,-308 387.38,-314 387.38,-314 387.38,-317 384.38,-320 381.38,-320 381.38,-320 373.38,-320 373.38,-320 370.38,-320 367.38,-317 367.38,-314 367.38,-314 367.38,-308 367.38,-308 367.38,-305 370.38,-302 373.38,-302"/>
<text xml:space="preserve" text-anchor="start" x="375.88" y="-307.25" font-family="Arial" font-size="10.00"> </text>
<text xml:space="preserve" text-anchor="start" x="391.38" y="-307.25" font-family="Arial" font-size="10.00">Attribute</text>
<path fill="#f5b8b8" stroke="none" d="M438.12,-302C438.12,-302 446.12,-302 446.12,-302 449.12,-302 452.12,-305 452.12,-308 452.12,-308 452.12,-314 452.12,-314 452.12,-317 449.12,-320 446.12,-320 446.12,-320 438.12,-320 438.12,-320 435.12,-320 432.12,-317 432.12,-314 432.12,-314 432.12,-308 432.12,-308 432.12,-305 435.12,-302 438.12,-302"/>
<path fill="none" stroke="black" d="M438.12,-302C438.12,-302 446.12,-302 446.12,-302 449.12,-302 452.12,-305 452.12,-308 452.12,-308 452.12,-314 452.12,-314 452.12,-317 449.12,-320 446.12,-320 446.12,-320 438.12,-320 438.12,-320 435.12,-320 432.12,-317 432.12,-314 432.12,-314 432.12,-308 432.12,-308 432.12,-305 435.12,-302 438.12,-302"/>
<text xml:space="preserve" text-anchor="start" x="440.62" y="-307.25" font-family="Arial" font-size="10.00"> </text>
<text xml:space="preserve" text-anchor="start" x="456.12" y="-307.25" font-family="Arial" font-size="10.00">Relationship</text>
<text xml:space="preserve" text-anchor="start" x="516.12" y="-308.5" font-family="Arial" font-weight="bold" font-size="10.00">(+)</text>
<text xml:space="preserve" text-anchor="start" x="528.12" y="-308.5" font-family="Arial" font-size="10.00"> increases complexity</text>
<text xml:space="preserve" text-anchor="start" x="629.38" y="-308.5" font-family="Arial" font-weight="bold" font-size="10.00">(−)</text>
<text xml:space="preserve" text-anchor="start" x="641.38" y="-308.5" font-family="Arial" font-size="10.00"> decreases complexity</text>
<!-- mark.line -->
<g id="node1" class="node">
<title>mark.line</title>
<path fill="#b8e6b8" stroke="#2c3e50" stroke-width="1.8" d="M321.5,-263C321.5,-263 291.5,-263 291.5,-263 285.5,-263 279.5,-257 279.5,-251 279.5,-251 279.5,-239 279.5,-239 279.5,-233 285.5,-227 291.5,-227 291.5,-227 321.5,-227 321.5,-227 327.5,-227 333.5,-233 333.5,-239 333.5,-239 333.5,-251 333.5,-251 333.5,-257 327.5,-263 321.5,-263"/>
<text xml:space="preserve" text-anchor="middle" x="306.5" y="-241.5" font-family="Arial" font-size="10.00" fill="#1a1a1a">line</text>
</g>
<!-- attr_0 -->
<g id="node7" class="node">
<title>attr_0</title>
<path fill="#c7b8e6" stroke="#7f8c8d" stroke-width="1.2" d="M497.62,-296C497.62,-296 417.12,-296 417.12,-296 411.12,-296 405.12,-290 405.12,-284 405.12,-284 405.12,-272 405.12,-272 405.12,-266 411.12,-260 417.12,-260 417.12,-260 497.62,-260 497.62,-260 503.62,-260 509.62,-266 509.62,-272 509.62,-272 509.62,-284 509.62,-284 509.62,-290 503.62,-296 497.62,-296"/>
<text xml:space="preserve" text-anchor="middle" x="457.38" y="-274.5" font-family="Arial" font-size="10.00" fill="#1a1a1a">(−) simple line graph</text>
</g>
<!-- mark.line&#45;&gt;attr_0 -->
<g id="edge1" class="edge">
<title>mark.line&#45;&gt;attr_0</title>
<path fill="none" stroke="#aaaaaa" d="M334.12,-250.9C351.47,-254.75 374.84,-259.93 396.49,-264.73"/>
<polygon fill="#aaaaaa" stroke="#aaaaaa" points="395.85,-267.09 403.22,-266.22 396.91,-262.31 395.85,-267.09"/>
</g>
<!-- rel_1 -->
<g id="node15" class="node">
<title>rel_1</title>
<path fill="#f5b8b8" stroke="#d46a6a" stroke-width="1.2" d="M501.38,-231C501.38,-231 413.38,-231 413.38,-231 407.38,-231 401.38,-225 401.38,-219 401.38,-219 401.38,-207 401.38,-207 401.38,-201 407.38,-195 413.38,-195 413.38,-195 501.38,-195 501.38,-195 507.38,-195 513.38,-201 513.38,-207 513.38,-207 513.38,-219 513.38,-219 513.38,-225 507.38,-231 501.38,-231"/>
<text xml:space="preserve" text-anchor="middle" x="457.38" y="-209.5" font-family="Arial" font-size="10.00" fill="#8b0000">reduces complexity of</text>
</g>
<!-- mark.line&#45;&gt;rel_1 -->
<g id="edge10" class="edge">
<title>mark.line&#45;&gt;rel_1</title>
<path fill="none" stroke="#d46a6a" stroke-width="1.5" d="M334.12,-239.28C350.07,-235.85 371.11,-231.33 391.23,-227"/>
<polygon fill="#d46a6a" stroke="#d46a6a" stroke-width="1.5" points="391.56,-229.8 398.79,-225.38 390.38,-224.32 391.56,-229.8"/>
</g>
<!-- unknown.crossing_lines -->
<g id="node2" class="node">
<title>unknown.crossing_lines</title>
<path fill="#b8e6b8" stroke="#2c3e50" stroke-width="1.8" d="M332.5,-101C332.5,-101 280.5,-101 280.5,-101 274.5,-101 268.5,-95 268.5,-89 268.5,-89 268.5,-77 268.5,-77 268.5,-71 274.5,-65 280.5,-65 280.5,-65 332.5,-65 332.5,-65 338.5,-65 344.5,-71 344.5,-77 344.5,-77 344.5,-89 344.5,-89 344.5,-95 338.5,-101 332.5,-101"/>
<text xml:space="preserve" text-anchor="middle" x="306.5" y="-79.5" font-family="Arial" font-size="10.00" fill="#1a1a1a">crossing lines</text>
</g>
<!-- attr_1 -->
<g id="node8" class="node">
<title>attr_1</title>
<path fill="#c7b8e6" stroke="#7f8c8d" stroke-width="1.2" d="M515.25,-166C515.25,-166 399.5,-166 399.5,-166 393.5,-166 387.5,-160 387.5,-154 387.5,-154 387.5,-142 387.5,-142 387.5,-136 393.5,-130 399.5,-130 399.5,-130 515.25,-130 515.25,-130 521.25,-130 527.25,-136 527.25,-142 527.25,-142 527.25,-154 527.25,-154 527.25,-160 521.25,-166 515.25,-166"/>
<text xml:space="preserve" text-anchor="middle" x="457.38" y="-144.5" font-family="Arial" font-size="10.00" fill="#1a1a1a">(+) lines crossing each other</text>
</g>
<!-- unknown.crossing_lines&#45;&gt;attr_1 -->
<g id="edge2" class="edge">
<title>unknown.crossing_lines&#45;&gt;attr_1</title>
<path fill="none" stroke="#aaaaaa" d="M345.07,-99.4C363.55,-107.47 386.08,-117.31 406.03,-126.02"/>
<polygon fill="#aaaaaa" stroke="#aaaaaa" points="405.04,-128.26 412.43,-128.81 407,-123.77 405.04,-128.26"/>
</g>
<!-- rel_0 -->
<g id="node14" class="node">
<title>rel_0</title>
<path fill="#f5b8b8" stroke="#d46a6a" stroke-width="1.2" d="M493.88,-101C493.88,-101 420.88,-101 420.88,-101 414.88,-101 408.88,-95 408.88,-89 408.88,-89 408.88,-77 408.88,-77 408.88,-71 414.88,-65 420.88,-65 420.88,-65 493.88,-65 493.88,-65 499.88,-65 505.88,-71 505.88,-77 505.88,-77 505.88,-89 505.88,-89 505.88,-95 499.88,-101 493.88,-101"/>
<text xml:space="preserve" text-anchor="middle" x="457.38" y="-79.5" font-family="Arial" font-size="10.00" fill="#8b0000">increases difficulty</text>
</g>
<!-- unknown.crossing_lines&#45;&gt;rel_0 -->
<g id="edge8" class="edge">
<title>unknown.crossing_lines&#45;&gt;rel_0</title>
<path fill="none" stroke="#d46a6a" stroke-width="1.5" d="M345.07,-83C361.2,-83 380.42,-83 398.32,-83"/>
<polygon fill="#d46a6a" stroke="#d46a6a" stroke-width="1.5" points="398.11,-85.8 406.11,-83 398.11,-80.2 398.11,-85.8"/>
</g>
<!-- rel_2 -->
<g id="node16" class="node">
<title>rel_2</title>
<path fill="#f5b8b8" stroke="#d46a6a" stroke-width="1.2" d="M473.25,-36C473.25,-36 441.5,-36 441.5,-36 435.5,-36 429.5,-30 429.5,-24 429.5,-24 429.5,-12 429.5,-12 429.5,-6 435.5,0 441.5,0 441.5,0 473.25,0 473.25,0 479.25,0 485.25,-6 485.25,-12 485.25,-12 485.25,-24 485.25,-24 485.25,-30 479.25,-36 473.25,-36"/>
<text xml:space="preserve" text-anchor="middle" x="457.38" y="-14.5" font-family="Arial" font-size="10.00" fill="#8b0000">obscures</text>
</g>
<!-- unknown.crossing_lines&#45;&gt;rel_2 -->
<g id="edge12" class="edge">
<title>unknown.crossing_lines&#45;&gt;rel_2</title>
<path fill="none" stroke="#d46a6a" stroke-width="1.5" d="M345.07,-66.6C367.98,-56.59 397.13,-43.87 419.85,-33.95"/>
<polygon fill="#d46a6a" stroke="#d46a6a" stroke-width="1.5" points="420.86,-36.56 427.07,-30.79 418.62,-31.43 420.86,-36.56"/>
</g>
<!-- text.axis_label -->
<g id="node3" class="node">
<title>text.axis_label</title>
<path fill="#b8e6b8" stroke="#2c3e50" stroke-width="1.8" d="M879.5,-133C879.5,-133 846.25,-133 846.25,-133 840.25,-133 834.25,-127 834.25,-121 834.25,-121 834.25,-109 834.25,-109 834.25,-103 840.25,-97 846.25,-97 846.25,-97 879.5,-97 879.5,-97 885.5,-97 891.5,-103 891.5,-109 891.5,-109 891.5,-121 891.5,-121 891.5,-127 885.5,-133 879.5,-133"/>
<text xml:space="preserve" text-anchor="middle" x="862.88" y="-111.5" font-family="Arial" font-size="10.00" fill="#1a1a1a">axis label</text>
</g>
<!-- attr_6 -->
<g id="node9" class="node">
<title>attr_6</title>
<path fill="#c7b8e6" stroke="#7f8c8d" stroke-width="1.2" d="M1040.5,-133C1040.5,-133 946.5,-133 946.5,-133 940.5,-133 934.5,-127 934.5,-121 934.5,-121 934.5,-109 934.5,-109 934.5,-103 940.5,-97 946.5,-97 946.5,-97 1040.5,-97 1040.5,-97 1046.5,-97 1052.5,-103 1052.5,-109 1052.5,-109 1052.5,-121 1052.5,-121 1052.5,-127 1046.5,-133 1040.5,-133"/>
<text xml:space="preserve" text-anchor="middle" x="993.5" y="-111.5" font-family="Arial" font-size="10.00" fill="#1a1a1a">(+) limited label context</text>
</g>
<!-- text.axis_label&#45;&gt;attr_6 -->
<g id="edge3" class="edge">
<title>text.axis_label&#45;&gt;attr_6</title>
<path fill="none" stroke="#aaaaaa" d="M892.1,-115C902.14,-115 913.9,-115 925.78,-115"/>
<polygon fill="#aaaaaa" stroke="#aaaaaa" points="925.49,-117.45 932.49,-115 925.49,-112.55 925.49,-117.45"/>
</g>
<!-- furniture.legend -->
<g id="node4" class="node">
<title>furniture.legend</title>
<path fill="#b8e6b8" stroke="#2c3e50" stroke-width="1.8" d="M42,-133C42,-133 12,-133 12,-133 6,-133 0,-127 0,-121 0,-121 0,-109 0,-109 0,-103 6,-97 12,-97 12,-97 42,-97 42,-97 48,-97 54,-103 54,-109 54,-109 54,-121 54,-121 54,-127 48,-133 42,-133"/>
<text xml:space="preserve" text-anchor="middle" x="27" y="-111.5" font-family="Arial" font-size="10.00" fill="#1a1a1a">legend</text>
</g>
<!-- attr_5 -->
<g id="node10" class="node">
<title>attr_5</title>
<path fill="#c7b8e6" stroke="#7f8c8d" stroke-width="1.2" d="M213.5,-166C213.5,-166 109,-166 109,-166 103,-166 97,-160 97,-154 97,-154 97,-142 97,-142 97,-136 103,-130 109,-130 109,-130 213.5,-130 213.5,-130 219.5,-130 225.5,-136 225.5,-142 225.5,-142 225.5,-154 225.5,-154 225.5,-160 219.5,-166 213.5,-166"/>
<text xml:space="preserve" text-anchor="middle" x="161.25" y="-144.5" font-family="Arial" font-size="10.00" fill="#1a1a1a">(−) minimal legend entries</text>
</g>
<!-- furniture.legend&#45;&gt;attr_5 -->
<g id="edge4" class="edge">
<title>furniture.legend&#45;&gt;attr_5</title>
<path fill="none" stroke="#aaaaaa" d="M54.76,-121.68C64.73,-124.17 76.58,-127.12 88.67,-130.14"/>
<polygon fill="#aaaaaa" stroke="#aaaaaa" points="87.77,-132.44 95.16,-131.76 88.96,-127.69 87.77,-132.44"/>
</g>
<!-- rel_3 -->
<g id="node17" class="node">
<title>rel_3</title>
<path fill="#f5b8b8" stroke="#d46a6a" stroke-width="1.2" d="M176.25,-101C176.25,-101 146.25,-101 146.25,-101 140.25,-101 134.25,-95 134.25,-89 134.25,-89 134.25,-77 134.25,-77 134.25,-71 140.25,-65 146.25,-65 146.25,-65 176.25,-65 176.25,-65 182.25,-65 188.25,-71 188.25,-77 188.25,-77 188.25,-89 188.25,-89 188.25,-95 182.25,-101 176.25,-101"/>
<text xml:space="preserve" text-anchor="middle" x="161.25" y="-79.5" font-family="Arial" font-size="10.00" fill="#8b0000">clarifies</text>
</g>
<!-- furniture.legend&#45;&gt;rel_3 -->
<g id="edge14" class="edge">
<title>furniture.legend&#45;&gt;rel_3</title>
<path fill="none" stroke="#d46a6a" stroke-width="1.5" d="M54.76,-108.52C74.7,-103.7 102.15,-97.06 124.04,-91.76"/>
<polygon fill="#d46a6a" stroke="#d46a6a" stroke-width="1.5" points="124.65,-94.49 131.77,-89.89 123.34,-89.05 124.65,-94.49"/>
</g>
<!-- property.color -->
<g id="node5" class="node">
<title>property.color</title>
<path fill="#b8e6b8" stroke="#2c3e50" stroke-width="1.8" d="M612.25,-36C612.25,-36 582.25,-36 582.25,-36 576.25,-36 570.25,-30 570.25,-24 570.25,-24 570.25,-12 570.25,-12 570.25,-6 576.25,0 582.25,0 582.25,0 612.25,0 612.25,0 618.25,0 624.25,-6 624.25,-12 624.25,-12 624.25,-24 624.25,-24 624.25,-30 618.25,-36 612.25,-36"/>
<text xml:space="preserve" text-anchor="middle" x="597.25" y="-14.5" font-family="Arial" font-size="10.00" fill="#1a1a1a">color</text>
</g>
<!-- attr_4 -->
<g id="node11" class="node">
<title>attr_4</title>
<path fill="#c7b8e6" stroke="#7f8c8d" stroke-width="1.2" d="M778.12,-36C778.12,-36 680.38,-36 680.38,-36 674.38,-36 668.38,-30 668.38,-24 668.38,-24 668.38,-12 668.38,-12 668.38,-6 674.38,0 680.38,0 680.38,0 778.12,0 778.12,0 784.12,0 790.12,-6 790.12,-12 790.12,-12 790.12,-24 790.12,-24 790.12,-30 784.12,-36 778.12,-36"/>
<text xml:space="preserve" text-anchor="middle" x="729.25" y="-14.5" font-family="Arial" font-size="10.00" fill="#1a1a1a">(−) colored graphic chart</text>
</g>
<!-- property.color&#45;&gt;attr_4 -->
<g id="edge5" class="edge">
<title>property.color&#45;&gt;attr_4</title>
<path fill="none" stroke="#aaaaaa" d="M624.87,-18C635.01,-18 647.09,-18 659.36,-18"/>
<polygon fill="#aaaaaa" stroke="#aaaaaa" points="659.35,-20.45 666.34,-18 659.34,-15.55 659.35,-20.45"/>
</g>
<!-- whole.visualization -->
<g id="node6" class="node">
<title>whole.visualization</title>
<path fill="#b8e6b8" stroke="#2c3e50" stroke-width="1.8" d="M612.25,-198C612.25,-198 582.25,-198 582.25,-198 576.25,-198 570.25,-192 570.25,-186 570.25,-186 570.25,-174 570.25,-174 570.25,-168 576.25,-162 582.25,-162 582.25,-162 612.25,-162 612.25,-162 618.25,-162 624.25,-168 624.25,-174 624.25,-174 624.25,-186 624.25,-186 624.25,-192 618.25,-198 612.25,-198"/>
<text xml:space="preserve" text-anchor="middle" x="597.25" y="-176.5" font-family="Arial" font-size="10.00" fill="#1a1a1a">chart</text>
</g>
<!-- attr_2 -->
<g id="node12" class="node">
<title>attr_2</title>
<path fill="#c7b8e6" stroke="#7f8c8d" stroke-width="1.2" d="M778.12,-263C778.12,-263 680.38,-263 680.38,-263 674.38,-263 668.38,-257 668.38,-251 668.38,-251 668.38,-239 668.38,-239 668.38,-233 674.38,-227 680.38,-227 680.38,-227 778.12,-227 778.12,-227 784.12,-227 790.12,-233 790.12,-239 790.12,-239 790.12,-251 790.12,-251 790.12,-257 784.12,-263 778.12,-263"/>
<text xml:space="preserve" text-anchor="middle" x="729.25" y="-241.5" font-family="Arial" font-size="10.00" fill="#1a1a1a">(−) one of simplest tools</text>
</g>
<!-- whole.visualization&#45;&gt;attr_2 -->
<g id="edge6" class="edge">
<title>whole.visualization&#45;&gt;attr_2</title>
<path fill="none" stroke="#aaaaaa" d="M624.87,-193.31C641.87,-201.81 664.31,-213.03 683.95,-222.85"/>
<polygon fill="#aaaaaa" stroke="#aaaaaa" points="682.61,-224.92 689.96,-225.86 684.8,-220.53 682.61,-224.92"/>
</g>
<!-- attr_3 -->
<g id="node13" class="node">
<title>attr_3</title>
<path fill="#c7b8e6" stroke="#7f8c8d" stroke-width="1.2" d="M779.25,-198C779.25,-198 679.25,-198 679.25,-198 673.25,-198 667.25,-192 667.25,-186 667.25,-186 667.25,-174 667.25,-174 667.25,-168 673.25,-162 679.25,-162 679.25,-162 779.25,-162 779.25,-162 785.25,-162 791.25,-168 791.25,-174 791.25,-174 791.25,-186 791.25,-186 791.25,-192 785.25,-198 779.25,-198"/>
<text xml:space="preserve" text-anchor="middle" x="729.25" y="-176.5" font-family="Arial" font-size="10.00" fill="#1a1a1a">(+) difficult to understand</text>
</g>
<!-- whole.visualization&#45;&gt;attr_3 -->
<g id="edge7" class="edge">
<title>whole.visualization&#45;&gt;attr_3</title>
<path fill="none" stroke="#aaaaaa" d="M624.87,-180C634.77,-180 646.52,-180 658.48,-180"/>
<polygon fill="#aaaaaa" stroke="#aaaaaa" points="658.27,-182.45 665.27,-180 658.27,-177.55 658.27,-182.45"/>
</g>
<!-- rel_4 -->
<g id="node18" class="node">
<title>rel_4</title>
<path fill="#f5b8b8" stroke="#d46a6a" stroke-width="1.2" d="M776.25,-133C776.25,-133 682.25,-133 682.25,-133 676.25,-133 670.25,-127 670.25,-121 670.25,-121 670.25,-109 670.25,-109 670.25,-103 676.25,-97 682.25,-97 682.25,-97 776.25,-97 776.25,-97 782.25,-97 788.25,-103 788.25,-109 788.25,-109 788.25,-121 788.25,-121 788.25,-127 782.25,-133 776.25,-133"/>
<text xml:space="preserve" text-anchor="middle" x="729.25" y="-111.5" font-family="Arial" font-size="10.00" fill="#8b0000">requires less effort than</text>
</g>
<!-- whole.visualization&#45;&gt;rel_4 -->
<g id="edge16" class="edge">
<title>whole.visualization&#45;&gt;rel_4</title>
<path fill="none" stroke="#d46a6a" stroke-width="1.5" d="M624.87,-166.69C641.42,-158.42 663.13,-147.56 682.38,-137.93"/>
<polygon fill="#d46a6a" stroke="#d46a6a" stroke-width="1.5" points="683.38,-140.56 689.29,-134.48 680.88,-135.56 683.38,-140.56"/>
</g>
<!-- rel_0&#45;&gt;whole.visualization -->
<g id="edge9" class="edge">
<title>rel_0&#45;&gt;whole.visualization</title>
<path fill="none" stroke="#d46a6a" stroke-width="1.5" d="M502.1,-101.5C510.7,-105.81 519.47,-110.71 527.25,-116 543.4,-126.98 559.51,-141.67 572.1,-154.2"/>
<polygon fill="#d46a6a" stroke="#d46a6a" stroke-width="1.5" points="569.88,-155.93 577.49,-159.66 573.87,-152 569.88,-155.93"/>
</g>
<!-- rel_1&#45;&gt;whole.visualization -->
<g id="edge11" class="edge">
<title>rel_1&#45;&gt;whole.visualization</title>
<path fill="none" stroke="#d46a6a" stroke-width="1.5" d="M513.66,-199.77C529.21,-196.05 545.73,-192.09 559.88,-188.71"/>
<polygon fill="#d46a6a" stroke="#d46a6a" stroke-width="1.5" points="560.37,-191.47 567.5,-186.88 559.07,-186.02 560.37,-191.47"/>
</g>
<!-- rel_2&#45;&gt;property.color -->
<g id="edge13" class="edge">
<title>rel_2&#45;&gt;property.color</title>
<path fill="none" stroke="#d46a6a" stroke-width="1.5" d="M485.61,-18C506.71,-18 536.15,-18 559.36,-18"/>
<polygon fill="#d46a6a" stroke="#d46a6a" stroke-width="1.5" points="559.27,-20.8 567.27,-18 559.27,-15.2 559.27,-20.8"/>
</g>
<!-- rel_3&#45;&gt;unknown.crossing_lines -->
<g id="edge15" class="edge">
<title>rel_3&#45;&gt;unknown.crossing_lines</title>
<path fill="none" stroke="#d46a6a" stroke-width="1.5" d="M188.52,-83C207.87,-83 234.72,-83 257.82,-83"/>
<polygon fill="#d46a6a" stroke="#d46a6a" stroke-width="1.5" points="257.52,-85.8 265.52,-83 257.52,-80.2 257.52,-85.8"/>
</g>
<!-- rel_4&#45;&gt;text.axis_label -->
<g id="edge17" class="edge">
<title>rel_4&#45;&gt;text.axis_label</title>
<path fill="none" stroke="#d46a6a" stroke-width="1.5" d="M788.75,-115C800.51,-115 812.58,-115 823.45,-115"/>
<polygon fill="#d46a6a" stroke="#d46a6a" stroke-width="1.5" points="823.17,-117.8 831.17,-115 823.17,-112.2 823.17,-117.8"/>
</g>
</g>
</svg>
