<?xml version="1.0" encoding="UTF-8" standalone="no"?>
<!DOCTYPE svg PUBLIC "-//W3C//DTD SVG 1.1//EN"
 "http://www.w3.org/Graphics/SVG/1.1/DTD/svg11.dtd">
<!-- Generated by graphviz version 14.1.5 (20260411.2331)
 -->
<!-- Title: InfoVisJ.1558.11(3).png Pages: 1 -->
<svg width="1072pt" height="342pt"
 viewBox="0.00 0.00 1072.00 342.00" xmlns="http://www.w3.org/2000/svg" xmlns:xlink="http://www.w3.org/1999/xlink">
<g id="graph0" class="graph" transform="scale(1 1) rotate(0) translate(4 338.25)">
<title>InfoVisJ.1558.11(3).png</title>
<polygon fill="white" stroke="none" points="-4,4 -4,-338.25 1067.75,-338.25 1067.75,4 -4,4"/>
<text xml:space="preserve" text-anchor="start" x="457.25" y="-313.95" font-family="Arial" font-weight="bold" font-size="14.00">InfoVisJ.1558.11(3).png</text>
<text xml:space="preserve" text-anchor="start" x="485.75" y="-294" font-family="Arial" font-size="11.00">Glyph &#160;| &#160;VC = 0.57</text>
<path fill="#b8e6b8" stroke="none" d="M322.5,-269C322.5,-269 330.5,-269 330.5,-269 333.5,-269 336.5,-272 336.5,-275 336.5,-275 336.5,-281 336.5,-281 336.5,-284 333.5,-287 330.5,-287 330.5,-287 322.5,-287 322.5,-287 319.5,-287 316.5,-284 316.5,-281 316.5,-281 316.5,-275 316.5,-275 316.5,-272 319.5,-269 322.5,-269"/>
<path fill="none" stroke="black" d="M322.5,-269C322.5,-269 330.5,-269 330.5,-269 333.5,-269 336.5,-272 336.5,-275 336.5,-275 336.5,-281 336.5,-281 336.5,-284 333.5,-287 330.5,-287 330.5,-287 322.5,-287 322.5,-287 319.5,-287 316.5,-284 316.5,-281 316.5,-281 316.5,-275 316.5,-275 316.5,-272 319.5,-269 322.5,-269"/>
<text xml:space="preserve" text-anchor="start" x="325" y="-274.25" font-family="Arial" font-size="10.00"> </text>
<text xml:space="preserve" text-anchor="start" x="340.5" y="-274.25" font-family="Arial" font-size="10.00">Object</text>
<path fill="#c7b8e6" stroke="none" d="M379,-269C379,-269 387,-269 387,-269 390,-269 393,-272 393,-275 393,-275 393,-281 393,-281 393,-284 390,-287 387,-287 387,-287 379,-287 379,-287 376,-287 373,-284 373,-281 373,-281 373,-275 373,-275 373,-272 376,-269 379,-269"/>
<path fill="none" stroke="black" d="M379,-269C379,-269 387,-269 387,-269 390,-269 393,-272 393,-275 393,-275 393,-281 393,-281 393,-284 390,-287 387,-287 387,-287 379,-287 379,-287 376,-287 373,-284 373,-281 373,-281 373,-275 373,-275 373,-272 376,-269 379,-269"/>
<text xml:space="preserve" text-anchor="start" x="381.5" y="-274.25" font-family="Arial" font-size="10.00"> </text>
<text xml:space="preserve" text-anchor="start" x="397" y="-274.25" font-family="Arial" font-size="10.00">Attribute</text>
<path fill="#f5b8b8" stroke="none" d="M443.75,-269C443.75,-269 451.75,-269 451.75,-269 454.75,-269 457.75,-272 457.75,-275 457.75,-275 457.75,-281 457.75,-281 457.75,-284 454.75,-287 451.75,-287 451.75,-287 443.75,-287 443.75,-287 440.75,-287 437.75,-284 437.75,-281 437.75,-281 437.75,-275 437.75,-275 437.75,-272 440.75,-269 443.75,-269"/>
<path fill="none" stroke="black" d="M443.75,-269C443.75,-269 451.75,-269 451.75,-269 454.75,-269 457.75,-272 457.75,-275 457.75,-275 457.75,-281 457.75,-281 457.75,-284 454.75,-287 451.75,-287 451.75,-287 443.75,-287 443.75,-287 440.75,-287 437.75,-284 437.75,-281 437.75,-281 437.75,-275 437.75,-275 437.75,-272 440.75,-269 443.75,-269"/>
<text xml:space="preserve" text-anchor="start" x="446.25" y="-274.25" font-family="Arial" font-size="10.00"> </text>
<text xml:space="preserve" text-anchor="start" x="461.75" y="-274.25" font-family="Arial" font-size="10.00">Relationship</text>
<text xml:space="preserve" text-anchor="start" x="521.75" y="-275.5" font-family="Arial" font-weight="bold" font-size="10.00">(+)</text>
<text xml:space="preserve" text-anchor="start" x="533.75" y="-275.5" font-family="Arial" font-size="10.00"> increases complexity</text>
<text xml:space="preserve" text-anchor="start" x="635" y="-275.5" font-family="Arial" font-weight="bold" font-size="10.00">(−)</text>
<text xml:space="preserve" text-anchor="start" x="647" y="-275.5" font-family="Arial" font-size="10.00"> decreases complexity</text>
<!-- unknown.dots -->
<g id="node1" class="node">
<title>unknown.dots</title>
<path fill="#b8e6b8" stroke="#2c3e50" stroke-width="1.8" d="M628.12,-101C628.12,-101 598.12,-101 598.12,-101 592.12,-101 586.12,-95 586.12,-89 586.12,-89 586.12,-77 586.12,-77 586.12,-71 592.12,-65 598.12,-65 598.12,-65 628.12,-65 628.12,-65 634.12,-65 640.12,-71 640.12,-77 640.12,-77 640.12,-89 640.12,-89 640.12,-95 634.12,-101 628.12,-101"/>
<text xml:space="preserve" text-anchor="middle" x="613.12" y="-79.5" font-family="Arial" font-size="10.00" fill="#1a1a1a">dots</text>
</g>
<!-- attr_2 -->
<g id="node7" class="node">
<title>attr_2</title>
<path fill="#c7b8e6" stroke="#7f8c8d" stroke-width="1.2" d="M803.5,-133C803.5,-133 696.75,-133 696.75,-133 690.75,-133 684.75,-127 684.75,-121 684.75,-121 684.75,-109 684.75,-109 684.75,-103 690.75,-97 696.75,-97 696.75,-97 803.5,-97 803.5,-97 809.5,-97 815.5,-103 815.5,-109 815.5,-109 815.5,-121 815.5,-121 815.5,-127 809.5,-133 803.5,-133"/>
<text xml:space="preserve" text-anchor="middle" x="750.12" y="-111.5" font-family="Arial" font-size="10.00" fill="#1a1a1a">(+) dense scattered marks</text>
</g>
<!-- unknown.dots&#45;&gt;attr_2 -->
<g id="edge1" class="edge">
<title>unknown.dots&#45;&gt;attr_2</title>
<path fill="none" stroke="#aaaaaa" d="M640.8,-89.32C651.07,-91.76 663.37,-94.67 675.93,-97.65"/>
<polygon fill="#aaaaaa" stroke="#aaaaaa" points="675.35,-100.03 682.73,-99.26 676.48,-95.26 675.35,-100.03"/>
</g>
<!-- rel_4 -->
<g id="node17" class="node">
<title>rel_4</title>
<path fill="#f5b8b8" stroke="#d46a6a" stroke-width="1.2" d="M791.88,-68C791.88,-68 708.38,-68 708.38,-68 702.38,-68 696.38,-62 696.38,-56 696.38,-56 696.38,-44 696.38,-44 696.38,-38 702.38,-32 708.38,-32 708.38,-32 791.88,-32 791.88,-32 797.88,-32 803.88,-38 803.88,-44 803.88,-44 803.88,-56 803.88,-56 803.88,-62 797.88,-68 791.88,-68"/>
<text xml:space="preserve" text-anchor="middle" x="750.12" y="-46.5" font-family="Arial" font-size="10.00" fill="#8b0000">requires expertise for</text>
</g>
<!-- unknown.dots&#45;&gt;rel_4 -->
<g id="edge15" class="edge">
<title>unknown.dots&#45;&gt;rel_4</title>
<path fill="none" stroke="#d46a6a" stroke-width="1.5" d="M640.8,-76.48C653.84,-73.29 670.15,-69.31 686.11,-65.4"/>
<polygon fill="#d46a6a" stroke="#d46a6a" stroke-width="1.5" points="686.67,-68.15 693.77,-63.53 685.34,-62.71 686.67,-68.15"/>
</g>
<!-- property.color -->
<g id="node2" class="node">
<title>property.color</title>
<path fill="#b8e6b8" stroke="#2c3e50" stroke-width="1.8" d="M42,-230C42,-230 12,-230 12,-230 6,-230 0,-224 0,-218 0,-218 0,-206 0,-206 0,-200 6,-194 12,-194 12,-194 42,-194 42,-194 48,-194 54,-200 54,-206 54,-206 54,-218 54,-218 54,-224 48,-230 42,-230"/>
<text xml:space="preserve" text-anchor="middle" x="27" y="-208.5" font-family="Arial" font-size="10.00" fill="#1a1a1a">color</text>
</g>
<!-- attr_1 -->
<g id="node8" class="node">
<title>attr_1</title>
<path fill="#c7b8e6" stroke="#7f8c8d" stroke-width="1.2" d="M208.25,-263C208.25,-263 109,-263 109,-263 103,-263 97,-257 97,-251 97,-251 97,-239 97,-239 97,-233 103,-227 109,-227 109,-227 208.25,-227 208.25,-227 214.25,-227 220.25,-233 220.25,-239 220.25,-239 220.25,-251 220.25,-251 220.25,-257 214.25,-263 208.25,-263"/>
<text xml:space="preserve" text-anchor="middle" x="158.62" y="-241.5" font-family="Arial" font-size="10.00" fill="#1a1a1a">(+) multiple varied colors</text>
</g>
<!-- property.color&#45;&gt;attr_1 -->
<g id="edge2" class="edge">
<title>property.color&#45;&gt;attr_1</title>
<path fill="none" stroke="#aaaaaa" d="M54.86,-218.84C64.83,-221.38 76.66,-224.39 88.68,-227.45"/>
<polygon fill="#aaaaaa" stroke="#aaaaaa" points="87.74,-229.74 95.12,-229.09 88.94,-224.99 87.74,-229.74"/>
</g>
<!-- rel_1 -->
<g id="node14" class="node">
<title>rel_1</title>
<path fill="#f5b8b8" stroke="#d46a6a" stroke-width="1.2" d="M204.88,-198C204.88,-198 112.38,-198 112.38,-198 106.38,-198 100.38,-192 100.38,-186 100.38,-186 100.38,-174 100.38,-174 100.38,-168 106.38,-162 112.38,-162 112.38,-162 204.88,-162 204.88,-162 210.88,-162 216.88,-168 216.88,-174 216.88,-174 216.88,-186 216.88,-186 216.88,-192 210.88,-198 204.88,-198"/>
<text xml:space="preserve" text-anchor="middle" x="158.62" y="-176.5" font-family="Arial" font-size="10.00" fill="#8b0000">amplifies complexity of</text>
</g>
<!-- property.color&#45;&gt;rel_1 -->
<g id="edge9" class="edge">
<title>property.color&#45;&gt;rel_1</title>
<path fill="none" stroke="#d46a6a" stroke-width="1.5" d="M54.86,-205.37C65.16,-202.83 77.43,-199.8 89.85,-196.73"/>
<polygon fill="#d46a6a" stroke="#d46a6a" stroke-width="1.5" points="90.5,-199.45 97.6,-194.82 89.16,-194.02 90.5,-199.45"/>
</g>
<!-- unknown.swirling_pattern -->
<g id="node3" class="node">
<title>unknown.swirling_pattern</title>
<path fill="#b8e6b8" stroke="#2c3e50" stroke-width="1.8" d="M333.25,-198C333.25,-198 275.25,-198 275.25,-198 269.25,-198 263.25,-192 263.25,-186 263.25,-186 263.25,-174 263.25,-174 263.25,-168 269.25,-162 275.25,-162 275.25,-162 333.25,-162 333.25,-162 339.25,-162 345.25,-168 345.25,-174 345.25,-174 345.25,-186 345.25,-186 345.25,-192 339.25,-198 333.25,-198"/>
<text xml:space="preserve" text-anchor="middle" x="304.25" y="-176.5" font-family="Arial" font-size="10.00" fill="#1a1a1a">swirling pattern</text>
</g>
<!-- attr_0 -->
<g id="node9" class="node">
<title>attr_0</title>
<path fill="#c7b8e6" stroke="#7f8c8d" stroke-width="1.2" d="M528.38,-231C528.38,-231 401.38,-231 401.38,-231 395.38,-231 389.38,-225 389.38,-219 389.38,-219 389.38,-207 389.38,-207 389.38,-201 395.38,-195 401.38,-195 401.38,-195 528.38,-195 528.38,-195 534.38,-195 540.38,-201 540.38,-207 540.38,-207 540.38,-219 540.38,-219 540.38,-225 534.38,-231 528.38,-231"/>
<text xml:space="preserve" text-anchor="middle" x="464.88" y="-209.5" font-family="Arial" font-size="10.00" fill="#1a1a1a">(+) swirling disorganized layout</text>
</g>
<!-- unknown.swirling_pattern&#45;&gt;attr_0 -->
<g id="edge3" class="edge">
<title>unknown.swirling_pattern&#45;&gt;attr_0</title>
<path fill="none" stroke="#aaaaaa" d="M346.1,-188.5C356.77,-190.72 368.66,-193.19 380.66,-195.69"/>
<polygon fill="#aaaaaa" stroke="#aaaaaa" points="380.15,-198.08 387.5,-197.11 381.15,-193.29 380.15,-198.08"/>
</g>
<!-- rel_0 -->
<g id="node13" class="node">
<title>rel_0</title>
<path fill="#f5b8b8" stroke="#d46a6a" stroke-width="1.2" d="M529.5,-166C529.5,-166 400.25,-166 400.25,-166 394.25,-166 388.25,-160 388.25,-154 388.25,-154 388.25,-142 388.25,-142 388.25,-136 394.25,-130 400.25,-130 400.25,-130 529.5,-130 529.5,-130 535.5,-130 541.5,-136 541.5,-142 541.5,-142 541.5,-154 541.5,-154 541.5,-160 535.5,-166 529.5,-166"/>
<text xml:space="preserve" text-anchor="middle" x="464.88" y="-144.5" font-family="Arial" font-size="10.00" fill="#8b0000">increases perceived complexity</text>
</g>
<!-- unknown.swirling_pattern&#45;&gt;rel_0 -->
<g id="edge7" class="edge">
<title>unknown.swirling_pattern&#45;&gt;rel_0</title>
<path fill="none" stroke="#d46a6a" stroke-width="1.5" d="M346.1,-171.76C355.97,-169.77 366.89,-167.57 377.98,-165.33"/>
<polygon fill="#d46a6a" stroke="#d46a6a" stroke-width="1.5" points="378.23,-168.13 385.52,-163.81 377.12,-162.64 378.23,-168.13"/>
</g>
<!-- furniture.legend -->
<g id="node4" class="node">
<title>furniture.legend</title>
<path fill="#b8e6b8" stroke="#2c3e50" stroke-width="1.8" d="M319.25,-69C319.25,-69 289.25,-69 289.25,-69 283.25,-69 277.25,-63 277.25,-57 277.25,-57 277.25,-45 277.25,-45 277.25,-39 283.25,-33 289.25,-33 289.25,-33 319.25,-33 319.25,-33 325.25,-33 331.25,-39 331.25,-45 331.25,-45 331.25,-57 331.25,-57 331.25,-63 325.25,-69 319.25,-69"/>
<text xml:space="preserve" text-anchor="middle" x="304.25" y="-47.5" font-family="Arial" font-size="10.00" fill="#1a1a1a">legend</text>
</g>
<!-- attr_3 -->
<g id="node10" class="node">
<title>attr_3</title>
<path fill="#c7b8e6" stroke="#7f8c8d" stroke-width="1.2" d="M513.38,-101C513.38,-101 416.38,-101 416.38,-101 410.38,-101 404.38,-95 404.38,-89 404.38,-89 404.38,-77 404.38,-77 404.38,-71 410.38,-65 416.38,-65 416.38,-65 513.38,-65 513.38,-65 519.38,-65 525.38,-71 525.38,-77 525.38,-77 525.38,-89 525.38,-89 525.38,-95 519.38,-101 513.38,-101"/>
<text xml:space="preserve" text-anchor="middle" x="464.88" y="-79.5" font-family="Arial" font-size="10.00" fill="#1a1a1a">(+) absent or insufficient</text>
</g>
<!-- furniture.legend&#45;&gt;attr_3 -->
<g id="edge4" class="edge">
<title>furniture.legend&#45;&gt;attr_3</title>
<path fill="none" stroke="#aaaaaa" d="M331.8,-56.36C349.32,-59.89 373.12,-64.69 395.69,-69.25"/>
<polygon fill="#aaaaaa" stroke="#aaaaaa" points="395.11,-71.63 402.45,-70.61 396.08,-66.82 395.11,-71.63"/>
</g>
<!-- rel_2 -->
<g id="node15" class="node">
<title>rel_2</title>
<path fill="#f5b8b8" stroke="#d46a6a" stroke-width="1.2" d="M505.88,-36C505.88,-36 423.88,-36 423.88,-36 417.88,-36 411.88,-30 411.88,-24 411.88,-24 411.88,-12 411.88,-12 411.88,-6 417.88,0 423.88,0 423.88,0 505.88,0 505.88,0 511.88,0 517.88,-6 517.88,-12 517.88,-12 517.88,-24 517.88,-24 517.88,-30 511.88,-36 505.88,-36"/>
<text xml:space="preserve" text-anchor="middle" x="464.88" y="-14.5" font-family="Arial" font-size="10.00" fill="#8b0000">fails to contextualize</text>
</g>
<!-- furniture.legend&#45;&gt;rel_2 -->
<g id="edge11" class="edge">
<title>furniture.legend&#45;&gt;rel_2</title>
<path fill="none" stroke="#d46a6a" stroke-width="1.5" d="M331.8,-45.48C350.87,-41.51 377.39,-35.99 401.66,-30.94"/>
<polygon fill="#d46a6a" stroke="#d46a6a" stroke-width="1.5" points="402.05,-33.72 409.32,-29.35 400.91,-28.24 402.05,-33.72"/>
</g>
<!-- text.axis_label -->
<g id="node5" class="node">
<title>text.axis_label</title>
<path fill="#b8e6b8" stroke="#2c3e50" stroke-width="1.8" d="M629.75,-230C629.75,-230 596.5,-230 596.5,-230 590.5,-230 584.5,-224 584.5,-218 584.5,-218 584.5,-206 584.5,-206 584.5,-200 590.5,-194 596.5,-194 596.5,-194 629.75,-194 629.75,-194 635.75,-194 641.75,-200 641.75,-206 641.75,-206 641.75,-218 641.75,-218 641.75,-224 635.75,-230 629.75,-230"/>
<text xml:space="preserve" text-anchor="middle" x="613.12" y="-208.5" font-family="Arial" font-size="10.00" fill="#1a1a1a">axis label</text>
</g>
<!-- attr_4 -->
<g id="node11" class="node">
<title>attr_4</title>
<path fill="#c7b8e6" stroke="#7f8c8d" stroke-width="1.2" d="M802.38,-263C802.38,-263 697.88,-263 697.88,-263 691.88,-263 685.88,-257 685.88,-251 685.88,-251 685.88,-239 685.88,-239 685.88,-233 691.88,-227 697.88,-227 697.88,-227 802.38,-227 802.38,-227 808.38,-227 814.38,-233 814.38,-239 814.38,-239 814.38,-251 814.38,-251 814.38,-257 808.38,-263 802.38,-263"/>
<text xml:space="preserve" text-anchor="middle" x="750.12" y="-241.5" font-family="Arial" font-size="10.00" fill="#1a1a1a">(+) missing context labels</text>
</g>
<!-- text.axis_label&#45;&gt;attr_4 -->
<g id="edge5" class="edge">
<title>text.axis_label&#45;&gt;attr_4</title>
<path fill="none" stroke="#aaaaaa" d="M642.43,-218.92C652.76,-221.44 664.98,-224.43 677.39,-227.46"/>
<polygon fill="#aaaaaa" stroke="#aaaaaa" points="676.7,-229.82 684.08,-229.1 677.86,-225.06 676.7,-229.82"/>
</g>
<!-- rel_3 -->
<g id="node16" class="node">
<title>rel_3</title>
<path fill="#f5b8b8" stroke="#d46a6a" stroke-width="1.2" d="M766,-198C766,-198 734.25,-198 734.25,-198 728.25,-198 722.25,-192 722.25,-186 722.25,-186 722.25,-174 722.25,-174 722.25,-168 728.25,-162 734.25,-162 734.25,-162 766,-162 766,-162 772,-162 778,-168 778,-174 778,-174 778,-186 778,-186 778,-192 772,-198 766,-198"/>
<text xml:space="preserve" text-anchor="middle" x="750.12" y="-176.5" font-family="Arial" font-size="10.00" fill="#8b0000">obscures</text>
</g>
<!-- text.axis_label&#45;&gt;rel_3 -->
<g id="edge13" class="edge">
<title>text.axis_label&#45;&gt;rel_3</title>
<path fill="none" stroke="#d46a6a" stroke-width="1.5" d="M642.43,-205.29C662.58,-200.51 689.88,-194.04 711.81,-188.84"/>
<polygon fill="#d46a6a" stroke="#d46a6a" stroke-width="1.5" points="712.44,-191.57 719.58,-187 711.14,-186.13 712.44,-191.57"/>
</g>
<!-- text.title -->
<g id="node6" class="node">
<title>text.title</title>
<path fill="#b8e6b8" stroke="#2c3e50" stroke-width="1.8" d="M900.5,-133C900.5,-133 870.5,-133 870.5,-133 864.5,-133 858.5,-127 858.5,-121 858.5,-121 858.5,-109 858.5,-109 858.5,-103 864.5,-97 870.5,-97 870.5,-97 900.5,-97 900.5,-97 906.5,-97 912.5,-103 912.5,-109 912.5,-109 912.5,-121 912.5,-121 912.5,-127 906.5,-133 900.5,-133"/>
<text xml:space="preserve" text-anchor="middle" x="885.5" y="-111.5" font-family="Arial" font-size="10.00" fill="#1a1a1a">title</text>
</g>
<!-- attr_5 -->
<g id="node12" class="node">
<title>attr_5</title>
<path fill="#c7b8e6" stroke="#7f8c8d" stroke-width="1.2" d="M1051.75,-133C1051.75,-133 967.5,-133 967.5,-133 961.5,-133 955.5,-127 955.5,-121 955.5,-121 955.5,-109 955.5,-109 955.5,-103 961.5,-97 967.5,-97 967.5,-97 1051.75,-97 1051.75,-97 1057.75,-97 1063.75,-103 1063.75,-109 1063.75,-109 1063.75,-121 1063.75,-121 1063.75,-127 1057.75,-133 1051.75,-133"/>
<text xml:space="preserve" text-anchor="middle" x="1009.62" y="-111.5" font-family="Arial" font-size="10.00" fill="#1a1a1a">(+) no contextual title</text>
</g>
<!-- text.title&#45;&gt;attr_5 -->
<g id="edge6" class="edge">
<title>text.title&#45;&gt;attr_5</title>
<path fill="none" stroke="#aaaaaa" d="M913.3,-115C923.34,-115 935.21,-115 947.1,-115"/>
<polygon fill="#aaaaaa" stroke="#aaaaaa" points="946.8,-117.45 953.8,-115 946.8,-112.55 946.8,-117.45"/>
</g>
<!-- rel_0&#45;&gt;unknown.dots -->
<g id="edge8" class="edge">
<title>rel_0&#45;&gt;unknown.dots</title>
<path fill="none" stroke="#d46a6a" stroke-width="1.5" d="M510.38,-129.49C520.63,-125.14 531.47,-120.46 541.5,-116 552.9,-110.93 565.25,-105.23 576.38,-100.01"/>
<polygon fill="#d46a6a" stroke="#d46a6a" stroke-width="1.5" points="577.3,-102.67 583.35,-96.74 574.92,-97.61 577.3,-102.67"/>
</g>
<!-- rel_1&#45;&gt;unknown.swirling_pattern -->
<g id="edge10" class="edge">
<title>rel_1&#45;&gt;unknown.swirling_pattern</title>
<path fill="none" stroke="#d46a6a" stroke-width="1.5" d="M217.22,-180C228.81,-180 240.91,-180 252.26,-180"/>
<polygon fill="#d46a6a" stroke="#d46a6a" stroke-width="1.5" points="252.16,-182.8 260.16,-180 252.16,-177.2 252.16,-182.8"/>
</g>
<!-- rel_2&#45;&gt;unknown.dots -->
<g id="edge12" class="edge">
<title>rel_2&#45;&gt;unknown.dots</title>
<path fill="none" stroke="#d46a6a" stroke-width="1.5" d="M508.71,-36.57C519.43,-41.25 530.9,-46.29 541.5,-51 552.84,-56.04 565.17,-61.6 576.31,-66.65"/>
<polygon fill="#d46a6a" stroke="#d46a6a" stroke-width="1.5" points="574.83,-69.06 583.27,-69.82 577.14,-63.96 574.83,-69.06"/>
</g>
<!-- rel_3&#45;&gt;text.title -->
<g id="edge14" class="edge">
<title>rel_3&#45;&gt;text.title</title>
<path fill="none" stroke="#d46a6a" stroke-width="1.5" d="M778.44,-166.69C798.71,-156.81 826.55,-143.24 848.61,-132.49"/>
<polygon fill="#d46a6a" stroke="#d46a6a" stroke-width="1.5" points="849.67,-135.09 855.64,-129.07 847.22,-130.05 849.67,-135.09"/>
</g>
<!-- rel_4&#45;&gt;text.title -->
<g id="edge16" class="edge">
<title>rel_4&#45;&gt;text.title</title>
<path fill="none" stroke="#d46a6a" stroke-width="1.5" d="M788.99,-68.45C807.83,-77.64 830.48,-88.67 848.99,-97.69"/>
<polygon fill="#d46a6a" stroke="#d46a6a" stroke-width="1.5" points="847.52,-100.09 855.93,-101.08 849.97,-95.06 847.52,-100.09"/>
</g>
</g>
</svg>
