<?xml version="1.0" encoding="UTF-8" standalone="no"?>
<!DOCTYPE svg PUBLIC "-//W3C//DTD SVG 1.1//EN"
 "http://www.w3.org/Graphics/SVG/1.1/DTD/svg11.dtd">
<!-- Generated by graphviz version 14.1.5 (20260411.2331)
 -->
<!-- Title: InfoVisJ.2639.8.png Pages: 1 -->
<svg width="538pt" height="505pt"
 viewBox="0.00 0.00 538.00 505.00" xmlns="http://www.w3.org/2000/svg" xmlns:xlink="http://www.w3.org/1999/xlink">
<g id="graph0" class="graph" transform="scale(1 1) rotate(0) translate(4 501.25)">
<title>InfoVisJ.2639.8.png</title>
<polygon fill="white" stroke="none" points="-4,4 -4,-501.25 534,-501.25 534,4 -4,4"/>
<text xml:space="preserve" text-anchor="start" x="202" y="-476.95" font-family="Arial" font-weight="bold" font-size="14.00">InfoVisJ.2639.8.png</text>
<text xml:space="preserve" text-anchor="start" x="224.12" y="-457" font-family="Arial" font-size="11.00">Bar &#160;| &#160;VC = 0.71</text>
<path fill="#b8e6b8" stroke="none" d="M55.62,-432C55.62,-432 63.62,-432 63.62,-432 66.62,-432 69.62,-435 69.62,-438 69.62,-438 69.62,-444 69.62,-444 69.62,-447 66.62,-450 63.62,-450 63.62,-450 55.62,-450 55.62,-450 52.62,-450 49.62,-447 49.62,-444 49.62,-444 49.62,-438 49.62,-438 49.62,-435 52.62,-432 55.62,-432"/>
<path fill="none" stroke="black" d="M55.62,-432C55.62,-432 63.62,-432 63.62,-432 66.62,-432 69.62,-435 69.62,-438 69.62,-438 69.62,-444 69.62,-444 69.62,-447 66.62,-450 63.62,-450 63.62,-450 55.62,-450 55.62,-450 52.62,-450 49.62,-447 49.62,-444 49.62,-444 49.62,-438 49.62,-438 49.62,-435 52.62,-432 55.62,-432"/>
<text xml:space="preserve" text-anchor="start" x="58.12" y="-437.25" font-family="Arial" font-size="10.00"> </text>
<text xml:space="preserve" text-anchor="start" x="73.62" y="-437.25" font-family="Arial" font-size="10.00">Object</text>
<path fill="#c7b8e6" stroke="none" d="M112.12,-432C112.12,-432 120.12,-432 120.12,-432 123.12,-432 126.12,-435 126.12,-438 126.12,-438 126.12,-444 126.12,-444 126.12,-447 123.12,-450 120.12,-450 120.12,-450 112.12,-450 112.12,-450 109.12,-450 106.12,-447 106.12,-444 106.12,-444 106.12,-438 106.12,-438 106.12,-435 109.12,-432 112.12,-432"/>
<path fill="none" stroke="black" d="M112.12,-432C112.12,-432 120.12,-432 120.12,-432 123.12,-432 126.12,-435 126.12,-438 126.12,-438 126.12,-444 126.12,-444 126.12,-447 123.12,-450 120.12,-450 120.12,-450 112.12,-450 112.12,-450 109.12,-450 106.12,-447 106.12,-444 106.12,-444 106.12,-438 106.12,-438 106.12,-435 109.12,-432 112.12,-432"/>
<text xml:space="preserve" text-anchor="start" x="114.62" y="-437.25" font-family="Arial" font-size="10.00"> </text>
<text xml:space="preserve" text-anchor="start" x="130.12" y="-437.25" font-family="Arial" font-size="10.00">Attribute</text>
<path fill="#f5b8b8" stroke="none" d="M176.88,-432C176.88,-432 184.88,-432 184.88,-432 187.88,-432 190.88,-435 190.88,-438 190.88,-438 190.88,-444 190.88,-444 190.88,-447 187.88,-450 184.88,-450 184.88,-450 176.88,-450 176.88,-450 173.88,-450 170.88,-447 170.88,-444 170.88,-444 170.88,-438 170.88,-438 170.88,-435 173.88,-432 176.88,-432"/>
<path fill="none" stroke="black" d="M176.88,-432C176.88,-432 184.88,-432 184.88,-432 187.88,-432 190.88,-435 190.88,-438 190.88,-438 190.88,-444 190.88,-444 190.88,-447 187.88,-450 184.88,-450 184.88,-450 176.88,-450 176.88,-450 173.88,-450 170.88,-447 170.88,-444 170.88,-444 170.88,-438 170.88,-438 170.88,-435 173.88,-432 176.88,-432"/>
<text xml:space="preserve" text-anchor="start" x="179.38" y="-437.25" font-family="Arial" font-size="10.00"> </text>
<text xml:space="preserve" text-anchor="start" x="194.88" y="-437.25" font-family="Arial" font-size="10.00">Relationship</text>
<text xml:space="preserve" text-anchor="start" x="254.88" y="-438.5" font-family="Arial" font-weight="bold" font-size="10.00">(+)</text>
<text xml:space="preserve" text-anchor="start" x="266.88" y="-438.5" font-family="Arial" font-size="10.00"> increases complexity</text>
<text xml:space="preserve" text-anchor="start" x="368.12" y="-438.5" font-family="Arial" font-weight="bold" font-size="10.00">(−)</text>
<text xml:space="preserve" text-anchor="start" x="380.12" y="-438.5" font-family="Arial" font-size="10.00"> decreases complexity</text>
<!-- unknown.color_bar -->
<g id="node1" class="node">
<title>unknown.color_bar</title>
<path fill="#b8e6b8" stroke="#2c3e50" stroke-width="1.8" d="M42,-328C42,-328 12,-328 12,-328 6,-328 0,-322 0,-316 0,-316 0,-304 0,-304 0,-298 6,-292 12,-292 12,-292 42,-292 42,-292 48,-292 54,-298 54,-304 54,-304 54,-316 54,-316 54,-322 48,-328 42,-328"/>
<text xml:space="preserve" text-anchor="middle" x="27" y="-306.5" font-family="Arial" font-size="10.00" fill="#1a1a1a">color bar</text>
</g>
<!-- attr_0 -->
<g id="node6" class="node">
<title>attr_0</title>
<path fill="#c7b8e6" stroke="#7f8c8d" stroke-width="1.2" d="M213.12,-296C213.12,-296 129.62,-296 129.62,-296 123.62,-296 117.62,-290 117.62,-284 117.62,-284 117.62,-272 117.62,-272 117.62,-266 123.62,-260 129.62,-260 129.62,-260 213.12,-260 213.12,-260 219.12,-260 225.12,-266 225.12,-272 225.12,-272 225.12,-284 225.12,-284 225.12,-290 219.12,-296 213.12,-296"/>
<text xml:space="preserve" text-anchor="middle" x="171.38" y="-274.5" font-family="Arial" font-size="10.00" fill="#1a1a1a">(+) harder to interpret</text>
</g>
<!-- unknown.color_bar&#45;&gt;attr_0 -->
<g id="edge1" class="edge">
<title>unknown.color_bar&#45;&gt;attr_0</title>
<path fill="none" stroke="#aaaaaa" d="M54.78,-303.98C70.14,-300.53 90.11,-296.04 109.11,-291.77"/>
<polygon fill="#aaaaaa" stroke="#aaaaaa" points="109.4,-294.21 115.7,-290.29 108.33,-289.43 109.4,-294.21"/>
</g>
<!-- attr_1 -->
<g id="node7" class="node">
<title>attr_1</title>
<path fill="#c7b8e6" stroke="#7f8c8d" stroke-width="1.2" d="M231.88,-426C231.88,-426 110.88,-426 110.88,-426 104.88,-426 98.88,-420 98.88,-414 98.88,-414 98.88,-402 98.88,-402 98.88,-396 104.88,-390 110.88,-390 110.88,-390 231.88,-390 231.88,-390 237.88,-390 243.88,-396 243.88,-402 243.88,-402 243.88,-414 243.88,-414 243.88,-420 237.88,-426 231.88,-426"/>
<text xml:space="preserve" text-anchor="middle" x="171.38" y="-404.5" font-family="Arial" font-size="10.00" fill="#1a1a1a">(+) increases processing time</text>
</g>
<!-- unknown.color_bar&#45;&gt;attr_1 -->
<g id="edge2" class="edge">
<title>unknown.color_bar&#45;&gt;attr_1</title>
<path fill="none" stroke="#aaaaaa" d="M44.11,-328.66C57.24,-343.01 76.85,-362.59 97,-376 102.29,-379.52 108.03,-382.8 113.89,-385.82"/>
<polygon fill="#aaaaaa" stroke="#aaaaaa" points="112.63,-387.93 119.99,-388.83 114.8,-383.54 112.63,-387.93"/>
</g>
<!-- rel_0 -->
<g id="node11" class="node">
<title>rel_0</title>
<path fill="#f5b8b8" stroke="#d46a6a" stroke-width="1.2" d="M207.88,-231C207.88,-231 134.88,-231 134.88,-231 128.88,-231 122.88,-225 122.88,-219 122.88,-219 122.88,-207 122.88,-207 122.88,-201 128.88,-195 134.88,-195 134.88,-195 207.88,-195 207.88,-195 213.88,-195 219.88,-201 219.88,-207 219.88,-207 219.88,-219 219.88,-219 219.88,-225 213.88,-231 207.88,-231"/>
<text xml:space="preserve" text-anchor="middle" x="171.38" y="-209.5" font-family="Arial" font-size="10.00" fill="#8b0000">increases effort for</text>
</g>
<!-- unknown.color_bar&#45;&gt;rel_0 -->
<g id="edge6" class="edge">
<title>unknown.color_bar&#45;&gt;rel_0</title>
<path fill="none" stroke="#d46a6a" stroke-width="1.5" d="M44.43,-291.35C57.59,-277.25 77.08,-258.15 97,-245 102.18,-241.58 107.78,-238.39 113.5,-235.43"/>
<polygon fill="#d46a6a" stroke="#d46a6a" stroke-width="1.5" points="114.55,-238.04 120.5,-232 112.09,-233.01 114.55,-238.04"/>
</g>
<!-- rel_2 -->
<g id="node13" class="node">
<title>rel_2</title>
<path fill="#f5b8b8" stroke="#d46a6a" stroke-width="1.2" d="M219.88,-361C219.88,-361 122.88,-361 122.88,-361 116.88,-361 110.88,-355 110.88,-349 110.88,-349 110.88,-337 110.88,-337 110.88,-331 116.88,-325 122.88,-325 122.88,-325 219.88,-325 219.88,-325 225.88,-325 231.88,-331 231.88,-337 231.88,-337 231.88,-349 231.88,-349 231.88,-355 225.88,-361 219.88,-361"/>
<text xml:space="preserve" text-anchor="middle" x="171.38" y="-339.5" font-family="Arial" font-size="10.00" fill="#8b0000">requires interpretation of</text>
</g>
<!-- unknown.color_bar&#45;&gt;rel_2 -->
<g id="edge10" class="edge">
<title>unknown.color_bar&#45;&gt;rel_2</title>
<path fill="none" stroke="#d46a6a" stroke-width="1.5" d="M54.78,-316.21C67.91,-319.25 84.4,-323.07 100.77,-326.87"/>
<polygon fill="#d46a6a" stroke="#d46a6a" stroke-width="1.5" points="99.74,-329.5 108.16,-328.58 101,-324.05 99.74,-329.5"/>
</g>
<!-- mark.bar -->
<g id="node2" class="node">
<title>mark.bar</title>
<path fill="#b8e6b8" stroke="#2c3e50" stroke-width="1.8" d="M330.75,-36C330.75,-36 300.75,-36 300.75,-36 294.75,-36 288.75,-30 288.75,-24 288.75,-24 288.75,-12 288.75,-12 288.75,-6 294.75,0 300.75,0 300.75,0 330.75,0 330.75,0 336.75,0 342.75,-6 342.75,-12 342.75,-12 342.75,-24 342.75,-24 342.75,-30 336.75,-36 330.75,-36"/>
<text xml:space="preserve" text-anchor="middle" x="315.75" y="-14.5" font-family="Arial" font-size="10.00" fill="#1a1a1a">bar</text>
</g>
<!-- attr_3 -->
<g id="node8" class="node">
<title>attr_3</title>
<path fill="#c7b8e6" stroke="#7f8c8d" stroke-width="1.2" d="M502.62,-36C502.62,-36 413.12,-36 413.12,-36 407.12,-36 401.12,-30 401.12,-24 401.12,-24 401.12,-12 401.12,-12 401.12,-6 407.12,0 413.12,0 413.12,0 502.62,0 502.62,0 508.62,0 514.62,-6 514.62,-12 514.62,-12 514.62,-24 514.62,-24 514.62,-30 508.62,-36 502.62,-36"/>
<text xml:space="preserve" text-anchor="middle" x="457.88" y="-14.5" font-family="Arial" font-size="10.00" fill="#1a1a1a">(+) color encoded bars</text>
</g>
<!-- mark.bar&#45;&gt;attr_3 -->
<g id="edge3" class="edge">
<title>mark.bar&#45;&gt;attr_3</title>
<path fill="none" stroke="#aaaaaa" d="M343.44,-18C357.36,-18 375.04,-18 392.29,-18"/>
<polygon fill="#aaaaaa" stroke="#aaaaaa" points="392.18,-20.45 399.18,-18 392.18,-15.55 392.18,-20.45"/>
</g>
<!-- property.color -->
<g id="node3" class="node">
<title>property.color</title>
<path fill="#b8e6b8" stroke="#2c3e50" stroke-width="1.8" d="M42,-101C42,-101 12,-101 12,-101 6,-101 0,-95 0,-89 0,-89 0,-77 0,-77 0,-71 6,-65 12,-65 12,-65 42,-65 42,-65 48,-65 54,-71 54,-77 54,-77 54,-89 54,-89 54,-95 48,-101 42,-101"/>
<text xml:space="preserve" text-anchor="middle" x="27" y="-79.5" font-family="Arial" font-size="10.00" fill="#1a1a1a">color</text>
</g>
<!-- attr_2 -->
<g id="node9" class="node">
<title>attr_2</title>
<path fill="#c7b8e6" stroke="#7f8c8d" stroke-width="1.2" d="M233.75,-101C233.75,-101 109,-101 109,-101 103,-101 97,-95 97,-89 97,-89 97,-77 97,-77 97,-71 103,-65 109,-65 109,-65 233.75,-65 233.75,-65 239.75,-65 245.75,-71 245.75,-77 245.75,-77 245.75,-89 245.75,-89 245.75,-95 239.75,-101 233.75,-101"/>
<text xml:space="preserve" text-anchor="middle" x="171.38" y="-79.5" font-family="Arial" font-size="10.00" fill="#1a1a1a">(+) complex color arrangement</text>
</g>
<!-- property.color&#45;&gt;attr_2 -->
<g id="edge4" class="edge">
<title>property.color&#45;&gt;attr_2</title>
<path fill="none" stroke="#aaaaaa" d="M54.78,-83C64.53,-83 76.13,-83 88.17,-83"/>
<polygon fill="#aaaaaa" stroke="#aaaaaa" points="88.04,-85.45 95.04,-83 88.04,-80.55 88.04,-85.45"/>
</g>
<!-- rel_1 -->
<g id="node12" class="node">
<title>rel_1</title>
<path fill="#f5b8b8" stroke="#d46a6a" stroke-width="1.2" d="M193.62,-36C193.62,-36 149.12,-36 149.12,-36 143.12,-36 137.12,-30 137.12,-24 137.12,-24 137.12,-12 137.12,-12 137.12,-6 143.12,0 149.12,0 149.12,0 193.62,0 193.62,0 199.62,0 205.62,-6 205.62,-12 205.62,-12 205.62,-24 205.62,-24 205.62,-30 199.62,-36 193.62,-36"/>
<text xml:space="preserve" text-anchor="middle" x="171.38" y="-14.5" font-family="Arial" font-size="10.00" fill="#8b0000">complicates</text>
</g>
<!-- property.color&#45;&gt;rel_1 -->
<g id="edge8" class="edge">
<title>property.color&#45;&gt;rel_1</title>
<path fill="none" stroke="#d46a6a" stroke-width="1.5" d="M54.77,-69.93C67.51,-63.78 82.99,-56.4 97,-50 106.77,-45.53 117.33,-40.85 127.31,-36.48"/>
<polygon fill="#d46a6a" stroke="#d46a6a" stroke-width="1.5" points="128.36,-39.08 134.58,-33.32 126.13,-33.94 128.36,-39.08"/>
</g>
<!-- rel_3 -->
<g id="node14" class="node">
<title>rel_3</title>
<path fill="#f5b8b8" stroke="#d46a6a" stroke-width="1.2" d="M187.25,-166C187.25,-166 155.5,-166 155.5,-166 149.5,-166 143.5,-160 143.5,-154 143.5,-154 143.5,-142 143.5,-142 143.5,-136 149.5,-130 155.5,-130 155.5,-130 187.25,-130 187.25,-130 193.25,-130 199.25,-136 199.25,-142 199.25,-142 199.25,-154 199.25,-154 199.25,-160 193.25,-166 187.25,-166"/>
<text xml:space="preserve" text-anchor="middle" x="171.38" y="-144.5" font-family="Arial" font-size="10.00" fill="#8b0000">obscures</text>
</g>
<!-- property.color&#45;&gt;rel_3 -->
<g id="edge12" class="edge">
<title>property.color&#45;&gt;rel_3</title>
<path fill="none" stroke="#d46a6a" stroke-width="1.5" d="M54.84,-95.53C67.59,-101.47 83.07,-108.64 97,-115 109.03,-120.49 122.2,-126.44 134.02,-131.75"/>
<polygon fill="#d46a6a" stroke="#d46a6a" stroke-width="1.5" points="132.64,-134.2 141.09,-134.92 134.94,-129.09 132.64,-134.2"/>
</g>
<!-- furniture.legend -->
<g id="node4" class="node">
<title>furniture.legend</title>
<path fill="#b8e6b8" stroke="#2c3e50" stroke-width="1.8" d="M330.75,-361C330.75,-361 300.75,-361 300.75,-361 294.75,-361 288.75,-355 288.75,-349 288.75,-349 288.75,-337 288.75,-337 288.75,-331 294.75,-325 300.75,-325 300.75,-325 330.75,-325 330.75,-325 336.75,-325 342.75,-331 342.75,-337 342.75,-337 342.75,-349 342.75,-349 342.75,-355 336.75,-361 330.75,-361"/>
<text xml:space="preserve" text-anchor="middle" x="315.75" y="-339.5" font-family="Arial" font-size="10.00" fill="#1a1a1a">legend</text>
</g>
<!-- attr_4 -->
<g id="node10" class="node">
<title>attr_4</title>
<path fill="#c7b8e6" stroke="#7f8c8d" stroke-width="1.2" d="M518,-361C518,-361 397.75,-361 397.75,-361 391.75,-361 385.75,-355 385.75,-349 385.75,-349 385.75,-337 385.75,-337 385.75,-331 391.75,-325 397.75,-325 397.75,-325 518,-325 518,-325 524,-325 530,-331 530,-337 530,-337 530,-349 530,-349 530,-355 524,-361 518,-361"/>
<text xml:space="preserve" text-anchor="middle" x="457.88" y="-339.5" font-family="Arial" font-size="10.00" fill="#1a1a1a">(+) requires additional reading</text>
</g>
<!-- furniture.legend&#45;&gt;attr_4 -->
<g id="edge5" class="edge">
<title>furniture.legend&#45;&gt;attr_4</title>
<path fill="none" stroke="#aaaaaa" d="M343.44,-343C353.24,-343 364.92,-343 376.99,-343"/>
<polygon fill="#aaaaaa" stroke="#aaaaaa" points="376.88,-345.45 383.88,-343 376.88,-340.55 376.88,-345.45"/>
</g>
<!-- content.data -->
<g id="node5" class="node">
<title>content.data</title>
<path fill="#b8e6b8" stroke="#2c3e50" stroke-width="1.8" d="M330.75,-199C330.75,-199 300.75,-199 300.75,-199 294.75,-199 288.75,-193 288.75,-187 288.75,-187 288.75,-175 288.75,-175 288.75,-169 294.75,-163 300.75,-163 300.75,-163 330.75,-163 330.75,-163 336.75,-163 342.75,-169 342.75,-175 342.75,-175 342.75,-187 342.75,-187 342.75,-193 336.75,-199 330.75,-199"/>
<text xml:space="preserve" text-anchor="middle" x="315.75" y="-177.5" font-family="Arial" font-size="10.00" fill="#1a1a1a">data</text>
</g>
<!-- rel_0&#45;&gt;content.data -->
<g id="edge7" class="edge">
<title>rel_0&#45;&gt;content.data</title>
<path fill="none" stroke="#d46a6a" stroke-width="1.5" d="M220.18,-202.26C239.09,-198.01 260.47,-193.2 278.12,-189.23"/>
<polygon fill="#d46a6a" stroke="#d46a6a" stroke-width="1.5" points="278.62,-191.99 285.81,-187.5 277.39,-186.53 278.62,-191.99"/>
</g>
<!-- rel_1&#45;&gt;mark.bar -->
<g id="edge9" class="edge">
<title>rel_1&#45;&gt;mark.bar</title>
<path fill="none" stroke="#d46a6a" stroke-width="1.5" d="M206.12,-18C227.7,-18 255.7,-18 277.86,-18"/>
<polygon fill="#d46a6a" stroke="#d46a6a" stroke-width="1.5" points="277.64,-20.8 285.64,-18 277.64,-15.2 277.64,-20.8"/>
</g>
<!-- rel_2&#45;&gt;furniture.legend -->
<g id="edge11" class="edge">
<title>rel_2&#45;&gt;furniture.legend</title>
<path fill="none" stroke="#d46a6a" stroke-width="1.5" d="M232.34,-343C247.85,-343 264.08,-343 278,-343"/>
<polygon fill="#d46a6a" stroke="#d46a6a" stroke-width="1.5" points="277.87,-345.8 285.87,-343 277.87,-340.2 277.87,-345.8"/>
</g>
<!-- rel_3&#45;&gt;content.data -->
<g id="edge13" class="edge">
<title>rel_3&#45;&gt;content.data</title>
<path fill="none" stroke="#d46a6a" stroke-width="1.5" d="M199.83,-154.36C222.03,-159.51 253.5,-166.8 277.89,-172.46"/>
<polygon fill="#d46a6a" stroke="#d46a6a" stroke-width="1.5" points="277.23,-175.18 285.65,-174.26 278.49,-169.72 277.23,-175.18"/>
</g>
</g>
</svg>
