<?xml version="1.0" encoding="UTF-8" standalone="no"?>
<!DOCTYPE svg PUBLIC "-//W3C//DTD SVG 1.1//EN"
 "http://www.w3.org/Graphics/SVG/1.1/DTD/svg11.dtd">
<!-- Generated by graphviz version 14.1.5 (20260411.2331)
 -->
<!-- Title: InfoVisJ.1236.13.png Pages: 1 -->
<svg width="762pt" height="434pt"
 viewBox="0.00 0.00 762.00 434.00" xmlns="http://www.w3.org/2000/svg" xmlns:xlink="http://www.w3.org/1999/xlink">
<g id="graph0" class="graph" transform="scale(1 1) rotate(0) translate(4 430.25)">
<title>InfoVisJ.1236.13.png</title>
<polygon fill="white" stroke="none" points="-4,4 -4,-430.25 758,-430.25 758,4 -4,4"/>
<text xml:space="preserve" text-anchor="start" x="310.25" y="-405.95" font-family="Arial" font-weight="bold" font-size="14.00">InfoVisJ.1236.13.png</text>
<text xml:space="preserve" text-anchor="start" x="333.12" y="-386" font-family="Arial" font-size="11.00">Area &#160;| &#160;VC = 0.53</text>
<path fill="#b8e6b8" stroke="none" d="M167.62,-361C167.62,-361 175.62,-361 175.62,-361 178.62,-361 181.62,-364 181.62,-367 181.62,-367 181.62,-373 181.62,-373 181.62,-376 178.62,-379 175.62,-379 175.62,-379 167.62,-379 167.62,-379 164.62,-379 161.62,-376 161.62,-373 161.62,-373 161.62,-367 161.62,-367 161.62,-364 164.62,-361 167.62,-361"/>
<path fill="none" stroke="black" d="M167.62,-361C167.62,-361 175.62,-361 175.62,-361 178.62,-361 181.62,-364 181.62,-367 181.62,-367 181.62,-373 181.62,-373 181.62,-376 178.62,-379 175.62,-379 175.62,-379 167.62,-379 167.62,-379 164.62,-379 161.62,-376 161.62,-373 161.62,-373 161.62,-367 161.62,-367 161.62,-364 164.62,-361 167.62,-361"/>
<text xml:space="preserve" text-anchor="start" x="170.12" y="-366.25" font-family="Arial" font-size="10.00"> </text>
<text xml:space="preserve" text-anchor="start" x="185.62" y="-366.25" font-family="Arial" font-size="10.00">Object</text>
<path fill="#c7b8e6" stroke="none" d="M224.12,-361C224.12,-361 232.12,-361 232.12,-361 235.12,-361 238.12,-364 238.12,-367 238.12,-367 238.12,-373 238.12,-373 238.12,-376 235.12,-379 232.12,-379 232.12,-379 224.12,-379 224.12,-379 221.12,-379 218.12,-376 218.12,-373 218.12,-373 218.12,-367 218.12,-367 218.12,-364 221.12,-361 224.12,-361"/>
<path fill="none" stroke="black" d="M224.12,-361C224.12,-361 232.12,-361 232.12,-361 235.12,-361 238.12,-364 238.12,-367 238.12,-367 238.12,-373 238.12,-373 238.12,-376 235.12,-379 232.12,-379 232.12,-379 224.12,-379 224.12,-379 221.12,-379 218.12,-376 218.12,-373 218.12,-373 218.12,-367 218.12,-367 218.12,-364 221.12,-361 224.12,-361"/>
<text xml:space="preserve" text-anchor="start" x="226.62" y="-366.25" font-family="Arial" font-size="10.00"> </text>
<text xml:space="preserve" text-anchor="start" x="242.12" y="-366.25" font-family="Arial" font-size="10.00">Attribute</text>
<path fill="#f5b8b8" stroke="none" d="M288.88,-361C288.88,-361 296.88,-361 296.88,-361 299.88,-361 302.88,-364 302.88,-367 302.88,-367 302.88,-373 302.88,-373 302.88,-376 299.88,-379 296.88,-379 296.88,-379 288.88,-379 288.88,-379 285.88,-379 282.88,-376 282.88,-373 282.88,-373 282.88,-367 282.88,-367 282.88,-364 285.88,-361 288.88,-361"/>
<path fill="none" stroke="black" d="M288.88,-361C288.88,-361 296.88,-361 296.88,-361 299.88,-361 302.88,-364 302.88,-367 302.88,-367 302.88,-373 302.88,-373 302.88,-376 299.88,-379 296.88,-379 296.88,-379 288.88,-379 288.88,-379 285.88,-379 282.88,-376 282.88,-373 282.88,-373 282.88,-367 282.88,-367 282.88,-364 285.88,-361 288.88,-361"/>
<text xml:space="preserve" text-anchor="start" x="291.38" y="-366.25" font-family="Arial" font-size="10.00"> </text>
<text xml:space="preserve" text-anchor="start" x="306.88" y="-366.25" font-family="Arial" font-size="10.00">Relationship</text>
<text xml:space="preserve" text-anchor="start" x="366.88" y="-367.5" font-family="Arial" font-weight="bold" font-size="10.00">(+)</text>
<text xml:space="preserve" text-anchor="start" x="378.88" y="-367.5" font-family="Arial" font-size="10.00"> increases complexity</text>
<text xml:space="preserve" text-anchor="start" x="480.12" y="-367.5" font-family="Arial" font-weight="bold" font-size="10.00">(−)</text>
<text xml:space="preserve" text-anchor="start" x="492.12" y="-367.5" font-family="Arial" font-size="10.00"> decreases complexity</text>
<!-- unknown.right_panel -->
<g id="node1" class="node">
<title>unknown.right_panel</title>
<path fill="#b8e6b8" stroke="#2c3e50" stroke-width="1.8" d="M587.75,-163C587.75,-163 550.75,-163 550.75,-163 544.75,-163 538.75,-157 538.75,-151 538.75,-151 538.75,-139 538.75,-139 538.75,-133 544.75,-127 550.75,-127 550.75,-127 587.75,-127 587.75,-127 593.75,-127 599.75,-133 599.75,-139 599.75,-139 599.75,-151 599.75,-151 599.75,-157 593.75,-163 587.75,-163"/>
<text xml:space="preserve" text-anchor="middle" x="569.25" y="-141.5" font-family="Arial" font-size="10.00" fill="#1a1a1a">right panel</text>
</g>
<!-- attr_0 -->
<g id="node7" class="node">
<title>attr_0</title>
<path fill="#c7b8e6" stroke="#7f8c8d" stroke-width="1.2" d="M742,-163C742,-163 654.75,-163 654.75,-163 648.75,-163 642.75,-157 642.75,-151 642.75,-151 642.75,-139 642.75,-139 642.75,-133 648.75,-127 654.75,-127 654.75,-127 742,-127 742,-127 748,-127 754,-133 754,-139 754,-139 754,-151 754,-151 754,-157 748,-163 742,-163"/>
<text xml:space="preserve" text-anchor="middle" x="698.38" y="-141.5" font-family="Arial" font-size="10.00" fill="#1a1a1a">(+) difficult to interpret</text>
</g>
<!-- unknown.right_panel&#45;&gt;attr_0 -->
<g id="edge1" class="edge">
<title>unknown.right_panel&#45;&gt;attr_0</title>
<path fill="none" stroke="#aaaaaa" d="M600.38,-145C610.48,-145 622.16,-145 633.84,-145"/>
<polygon fill="#aaaaaa" stroke="#aaaaaa" points="633.8,-147.45 640.8,-145 633.8,-142.55 633.8,-147.45"/>
</g>
<!-- unknown.scale -->
<g id="node2" class="node">
<title>unknown.scale</title>
<path fill="#b8e6b8" stroke="#2c3e50" stroke-width="1.8" d="M325,-290C325,-290 295,-290 295,-290 289,-290 283,-284 283,-278 283,-278 283,-266 283,-266 283,-260 289,-254 295,-254 295,-254 325,-254 325,-254 331,-254 337,-260 337,-266 337,-266 337,-278 337,-278 337,-284 331,-290 325,-290"/>
<text xml:space="preserve" text-anchor="middle" x="310" y="-268.5" font-family="Arial" font-size="10.00" fill="#1a1a1a">scale</text>
</g>
<!-- attr_1 -->
<g id="node8" class="node">
<title>attr_1</title>
<path fill="#c7b8e6" stroke="#7f8c8d" stroke-width="1.2" d="M477,-355C477,-355 398.75,-355 398.75,-355 392.75,-355 386.75,-349 386.75,-343 386.75,-343 386.75,-331 386.75,-331 386.75,-325 392.75,-319 398.75,-319 398.75,-319 477,-319 477,-319 483,-319 489,-325 489,-331 489,-331 489,-343 489,-343 489,-349 483,-355 477,-355"/>
<text xml:space="preserve" text-anchor="middle" x="437.88" y="-333.5" font-family="Arial" font-size="10.00" fill="#1a1a1a">(+) adds complexity</text>
</g>
<!-- unknown.scale&#45;&gt;attr_1 -->
<g id="edge2" class="edge">
<title>unknown.scale&#45;&gt;attr_1</title>
<path fill="none" stroke="#aaaaaa" d="M337.69,-285.78C354,-294.21 375.24,-305.17 393.88,-314.8"/>
<polygon fill="#aaaaaa" stroke="#aaaaaa" points="392.45,-316.82 399.8,-317.85 394.7,-312.46 392.45,-316.82"/>
</g>
<!-- rel_0 -->
<g id="node13" class="node">
<title>rel_0</title>
<path fill="#f5b8b8" stroke="#d46a6a" stroke-width="1.2" d="M454.88,-225C454.88,-225 420.88,-225 420.88,-225 414.88,-225 408.88,-219 408.88,-213 408.88,-213 408.88,-201 408.88,-201 408.88,-195 414.88,-189 420.88,-189 420.88,-189 454.88,-189 454.88,-189 460.88,-189 466.88,-195 466.88,-201 466.88,-201 466.88,-213 466.88,-213 466.88,-219 460.88,-225 454.88,-225"/>
<text xml:space="preserve" text-anchor="middle" x="437.88" y="-203.5" font-family="Arial" font-size="10.00" fill="#8b0000">increases</text>
</g>
<!-- unknown.scale&#45;&gt;rel_0 -->
<g id="edge7" class="edge">
<title>unknown.scale&#45;&gt;rel_0</title>
<path fill="none" stroke="#d46a6a" stroke-width="1.5" d="M337.69,-258.22C355.64,-248.95 379.54,-236.61 399.39,-226.36"/>
<polygon fill="#d46a6a" stroke="#d46a6a" stroke-width="1.5" points="400.63,-228.87 406.45,-222.71 398.06,-223.89 400.63,-228.87"/>
</g>
<!-- rel_3 -->
<g id="node16" class="node">
<title>rel_3</title>
<path fill="#f5b8b8" stroke="#d46a6a" stroke-width="1.2" d="M460.12,-290C460.12,-290 415.62,-290 415.62,-290 409.62,-290 403.62,-284 403.62,-278 403.62,-278 403.62,-266 403.62,-266 403.62,-260 409.62,-254 415.62,-254 415.62,-254 460.12,-254 460.12,-254 466.12,-254 472.12,-260 472.12,-266 472.12,-266 472.12,-278 472.12,-278 472.12,-284 466.12,-290 460.12,-290"/>
<text xml:space="preserve" text-anchor="middle" x="437.88" y="-268.5" font-family="Arial" font-size="10.00" fill="#8b0000">overwhelms</text>
</g>
<!-- unknown.scale&#45;&gt;rel_3 -->
<g id="edge13" class="edge">
<title>unknown.scale&#45;&gt;rel_3</title>
<path fill="none" stroke="#d46a6a" stroke-width="1.5" d="M337.69,-272C353.82,-272 374.75,-272 393.23,-272"/>
<polygon fill="#d46a6a" stroke="#d46a6a" stroke-width="1.5" points="393.21,-274.8 401.21,-272 393.21,-269.2 393.21,-274.8"/>
</g>
<!-- unknown.frame -->
<g id="node3" class="node">
<title>unknown.frame</title>
<path fill="#b8e6b8" stroke="#2c3e50" stroke-width="1.8" d="M43.62,-162C43.62,-162 13.62,-162 13.62,-162 7.62,-162 1.62,-156 1.62,-150 1.62,-150 1.62,-138 1.62,-138 1.62,-132 7.62,-126 13.62,-126 13.62,-126 43.62,-126 43.62,-126 49.62,-126 55.62,-132 55.62,-138 55.62,-138 55.62,-150 55.62,-150 55.62,-156 49.62,-162 43.62,-162"/>
<text xml:space="preserve" text-anchor="middle" x="28.62" y="-140.5" font-family="Arial" font-size="10.00" fill="#1a1a1a">frame</text>
</g>
<!-- attr_2 -->
<g id="node9" class="node">
<title>attr_2</title>
<path fill="#c7b8e6" stroke="#7f8c8d" stroke-width="1.2" d="M227.25,-224C227.25,-224 113,-224 113,-224 107,-224 101,-218 101,-212 101,-212 101,-200 101,-200 101,-194 107,-188 113,-188 113,-188 227.25,-188 227.25,-188 233.25,-188 239.25,-194 239.25,-200 239.25,-200 239.25,-212 239.25,-212 239.25,-218 233.25,-224 227.25,-224"/>
<text xml:space="preserve" text-anchor="middle" x="170.12" y="-202.5" font-family="Arial" font-size="10.00" fill="#1a1a1a">(+) additional visual element</text>
</g>
<!-- unknown.frame&#45;&gt;attr_2 -->
<g id="edge3" class="edge">
<title>unknown.frame&#45;&gt;attr_2</title>
<path fill="none" stroke="#aaaaaa" d="M56.52,-155.95C74.43,-163.91 98.5,-174.61 119.78,-184.07"/>
<polygon fill="#aaaaaa" stroke="#aaaaaa" points="118.71,-186.27 126.1,-186.88 120.7,-181.8 118.71,-186.27"/>
</g>
<!-- rel_1 -->
<g id="node14" class="node">
<title>rel_1</title>
<path fill="#f5b8b8" stroke="#d46a6a" stroke-width="1.2" d="M325,-163C325,-163 295,-163 295,-163 289,-163 283,-157 283,-151 283,-151 283,-139 283,-139 283,-133 289,-127 295,-127 295,-127 325,-127 325,-127 331,-127 337,-133 337,-139 337,-139 337,-151 337,-151 337,-157 331,-163 325,-163"/>
<text xml:space="preserve" text-anchor="middle" x="310" y="-141.5" font-family="Arial" font-size="10.00" fill="#8b0000">adds to</text>
</g>
<!-- unknown.frame&#45;&gt;rel_1 -->
<g id="edge9" class="edge">
<title>unknown.frame&#45;&gt;rel_1</title>
<path fill="none" stroke="#d46a6a" stroke-width="1.5" d="M56.41,-144.1C106.81,-144.28 215.78,-144.67 272.7,-144.87"/>
<polygon fill="#d46a6a" stroke="#d46a6a" stroke-width="1.5" points="272.42,-147.67 280.43,-144.9 272.44,-142.07 272.42,-147.67"/>
</g>
<!-- rel_4 -->
<g id="node17" class="node">
<title>rel_4</title>
<path fill="#f5b8b8" stroke="#d46a6a" stroke-width="1.2" d="M192.38,-99C192.38,-99 147.88,-99 147.88,-99 141.88,-99 135.88,-93 135.88,-87 135.88,-87 135.88,-75 135.88,-75 135.88,-69 141.88,-63 147.88,-63 147.88,-63 192.38,-63 192.38,-63 198.38,-63 204.38,-69 204.38,-75 204.38,-75 204.38,-87 204.38,-87 204.38,-93 198.38,-99 192.38,-99"/>
<text xml:space="preserve" text-anchor="middle" x="170.12" y="-77.5" font-family="Arial" font-size="10.00" fill="#8b0000">encodes via</text>
</g>
<!-- unknown.frame&#45;&gt;rel_4 -->
<g id="edge15" class="edge">
<title>unknown.frame&#45;&gt;rel_4</title>
<path fill="none" stroke="#d46a6a" stroke-width="1.5" d="M56.52,-131.85C76.28,-122.93 103.54,-110.62 126.29,-100.35"/>
<polygon fill="#d46a6a" stroke="#d46a6a" stroke-width="1.5" points="127.19,-103.01 133.33,-97.16 124.89,-97.91 127.19,-103.01"/>
</g>
<!-- unknown.values -->
<g id="node4" class="node">
<title>unknown.values</title>
<path fill="#b8e6b8" stroke="#2c3e50" stroke-width="1.8" d="M325,-98C325,-98 295,-98 295,-98 289,-98 283,-92 283,-86 283,-86 283,-74 283,-74 283,-68 289,-62 295,-62 295,-62 325,-62 325,-62 331,-62 337,-68 337,-74 337,-74 337,-86 337,-86 337,-92 331,-98 325,-98"/>
<text xml:space="preserve" text-anchor="middle" x="310" y="-76.5" font-family="Arial" font-size="10.00" fill="#1a1a1a">values</text>
</g>
<!-- attr_3 -->
<g id="node10" class="node">
<title>attr_3</title>
<path fill="#c7b8e6" stroke="#7f8c8d" stroke-width="1.2" d="M483.75,-101C483.75,-101 392,-101 392,-101 386,-101 380,-95 380,-89 380,-89 380,-77 380,-77 380,-71 386,-65 392,-65 392,-65 483.75,-65 483.75,-65 489.75,-65 495.75,-71 495.75,-77 495.75,-77 495.75,-89 495.75,-89 495.75,-95 489.75,-101 483.75,-101"/>
<text xml:space="preserve" text-anchor="middle" x="437.88" y="-79.5" font-family="Arial" font-size="10.00" fill="#1a1a1a">(+) values on right side</text>
</g>
<!-- unknown.values&#45;&gt;attr_3 -->
<g id="edge4" class="edge">
<title>unknown.values&#45;&gt;attr_3</title>
<path fill="none" stroke="#aaaaaa" d="M337.69,-80.64C347.66,-80.87 359.47,-81.16 371.4,-81.44"/>
<polygon fill="#aaaaaa" stroke="#aaaaaa" points="371.09,-83.88 378.14,-81.6 371.21,-78.98 371.09,-83.88"/>
</g>
<!-- rel_2 -->
<g id="node15" class="node">
<title>rel_2</title>
<path fill="#f5b8b8" stroke="#d46a6a" stroke-width="1.2" d="M463.5,-36C463.5,-36 412.25,-36 412.25,-36 406.25,-36 400.25,-30 400.25,-24 400.25,-24 400.25,-12 400.25,-12 400.25,-6 406.25,0 412.25,0 412.25,0 463.5,0 463.5,0 469.5,0 475.5,-6 475.5,-12 475.5,-12 475.5,-24 475.5,-24 475.5,-30 469.5,-36 463.5,-36"/>
<text xml:space="preserve" text-anchor="middle" x="437.88" y="-14.5" font-family="Arial" font-size="10.00" fill="#8b0000">contributes to</text>
</g>
<!-- unknown.values&#45;&gt;rel_2 -->
<g id="edge11" class="edge">
<title>unknown.values&#45;&gt;rel_2</title>
<path fill="none" stroke="#d46a6a" stroke-width="1.5" d="M337.69,-66.85C353.06,-59.28 372.79,-49.56 390.61,-40.79"/>
<polygon fill="#d46a6a" stroke="#d46a6a" stroke-width="1.5" points="391.74,-43.35 397.68,-37.31 389.26,-38.33 391.74,-43.35"/>
</g>
<!-- unknown.area_chart -->
<g id="node5" class="node">
<title>unknown.area_chart</title>
<path fill="#b8e6b8" stroke="#2c3e50" stroke-width="1.8" d="M587,-290C587,-290 551.5,-290 551.5,-290 545.5,-290 539.5,-284 539.5,-278 539.5,-278 539.5,-266 539.5,-266 539.5,-260 545.5,-254 551.5,-254 551.5,-254 587,-254 587,-254 593,-254 599,-260 599,-266 599,-266 599,-278 599,-278 599,-284 593,-290 587,-290"/>
<text xml:space="preserve" text-anchor="middle" x="569.25" y="-268.5" font-family="Arial" font-size="10.00" fill="#1a1a1a">area chart</text>
</g>
<!-- attr_4 -->
<g id="node11" class="node">
<title>attr_4</title>
<path fill="#c7b8e6" stroke="#7f8c8d" stroke-width="1.2" d="M726.25,-290C726.25,-290 670.5,-290 670.5,-290 664.5,-290 658.5,-284 658.5,-278 658.5,-278 658.5,-266 658.5,-266 658.5,-260 664.5,-254 670.5,-254 670.5,-254 726.25,-254 726.25,-254 732.25,-254 738.25,-260 738.25,-266 738.25,-266 738.25,-278 738.25,-278 738.25,-284 732.25,-290 726.25,-290"/>
<text xml:space="preserve" text-anchor="middle" x="698.38" y="-268.5" font-family="Arial" font-size="10.00" fill="#1a1a1a">(+) hard to grip</text>
</g>
<!-- unknown.area_chart&#45;&gt;attr_4 -->
<g id="edge5" class="edge">
<title>unknown.area_chart&#45;&gt;attr_4</title>
<path fill="none" stroke="#aaaaaa" d="M599.73,-272C614.61,-272 633.02,-272 649.83,-272"/>
<polygon fill="#aaaaaa" stroke="#aaaaaa" points="649.42,-274.45 656.42,-272 649.42,-269.55 649.42,-274.45"/>
</g>
<!-- text.axis_label -->
<g id="node6" class="node">
<title>text.axis_label</title>
<path fill="#b8e6b8" stroke="#2c3e50" stroke-width="1.8" d="M45.25,-289C45.25,-289 12,-289 12,-289 6,-289 0,-283 0,-277 0,-277 0,-265 0,-265 0,-259 6,-253 12,-253 12,-253 45.25,-253 45.25,-253 51.25,-253 57.25,-259 57.25,-265 57.25,-265 57.25,-277 57.25,-277 57.25,-283 51.25,-289 45.25,-289"/>
<text xml:space="preserve" text-anchor="middle" x="28.62" y="-267.5" font-family="Arial" font-size="10.00" fill="#1a1a1a">axis label</text>
</g>
<!-- attr_5 -->
<g id="node12" class="node">
<title>attr_5</title>
<path fill="#c7b8e6" stroke="#7f8c8d" stroke-width="1.2" d="M228,-289C228,-289 112.25,-289 112.25,-289 106.25,-289 100.25,-283 100.25,-277 100.25,-277 100.25,-265 100.25,-265 100.25,-259 106.25,-253 112.25,-253 112.25,-253 228,-253 228,-253 234,-253 240,-259 240,-265 240,-265 240,-277 240,-277 240,-283 234,-289 228,-289"/>
<text xml:space="preserve" text-anchor="middle" x="170.12" y="-267.5" font-family="Arial" font-size="10.00" fill="#1a1a1a">(+) multiple scale references</text>
</g>
<!-- text.axis_label&#45;&gt;attr_5 -->
<g id="edge6" class="edge">
<title>text.axis_label&#45;&gt;attr_5</title>
<path fill="none" stroke="#aaaaaa" d="M57.85,-271C67.75,-271 79.4,-271 91.37,-271"/>
<polygon fill="#aaaaaa" stroke="#aaaaaa" points="91.18,-273.45 98.18,-271 91.18,-268.55 91.18,-273.45"/>
</g>
<!-- rel_0&#45;&gt;unknown.right_panel -->
<g id="edge8" class="edge">
<title>rel_0&#45;&gt;unknown.right_panel</title>
<path fill="none" stroke="#d46a6a" stroke-width="1.5" d="M467.27,-193.39C485.37,-184.72 509.09,-173.35 528.99,-163.81"/>
<polygon fill="#d46a6a" stroke="#d46a6a" stroke-width="1.5" points="530.07,-166.4 536.08,-160.42 527.65,-161.35 530.07,-166.4"/>
</g>
<!-- rel_1&#45;&gt;unknown.right_panel -->
<g id="edge10" class="edge">
<title>rel_1&#45;&gt;unknown.right_panel</title>
<path fill="none" stroke="#d46a6a" stroke-width="1.5" d="M337.56,-145C382.69,-145 474.61,-145 527.79,-145"/>
<polygon fill="#d46a6a" stroke="#d46a6a" stroke-width="1.5" points="527.61,-147.8 535.61,-145 527.61,-142.2 527.61,-147.8"/>
</g>
<!-- rel_2&#45;&gt;unknown.right_panel -->
<g id="edge12" class="edge">
<title>rel_2&#45;&gt;unknown.right_panel</title>
<path fill="none" stroke="#d46a6a" stroke-width="1.5" d="M475.84,-35.89C482.8,-40.05 489.77,-44.8 495.75,-50 518.39,-69.69 538.58,-97.44 551.87,-117.87"/>
<polygon fill="#d46a6a" stroke="#d46a6a" stroke-width="1.5" points="549.43,-119.25 556.09,-124.49 554.16,-116.24 549.43,-119.25"/>
</g>
<!-- rel_3&#45;&gt;unknown.area_chart -->
<g id="edge14" class="edge">
<title>rel_3&#45;&gt;unknown.area_chart</title>
<path fill="none" stroke="#d46a6a" stroke-width="1.5" d="M472.53,-272C489.68,-272 510.64,-272 528.57,-272"/>
<polygon fill="#d46a6a" stroke="#d46a6a" stroke-width="1.5" points="528.46,-274.8 536.46,-272 528.46,-269.2 528.46,-274.8"/>
</g>
<!-- rel_4&#45;&gt;unknown.values -->
<g id="edge16" class="edge">
<title>rel_4&#45;&gt;unknown.values</title>
<path fill="none" stroke="#d46a6a" stroke-width="1.5" d="M204.85,-80.76C225.31,-80.61 251.43,-80.42 272.39,-80.27"/>
<polygon fill="#d46a6a" stroke="#d46a6a" stroke-width="1.5" points="272.27,-83.07 280.25,-80.21 272.23,-77.47 272.27,-83.07"/>
</g>
</g>
</svg>
