<?xml version="1.0" encoding="UTF-8" standalone="no"?>
<!DOCTYPE svg PUBLIC "-//W3C//DTD SVG 1.1//EN"
 "http://www.w3.org/Graphics/SVG/1.1/DTD/svg11.dtd">
<!-- Generated by graphviz version 14.1.5 (20260411.2331)
 -->
<!-- Title: InfoVisC.73.6.png Pages: 1 -->
<svg width="774pt" height="502pt"
 viewBox="0.00 0.00 774.00 502.00" xmlns="http://www.w3.org/2000/svg" xmlns:xlink="http://www.w3.org/1999/xlink">
<g id="graph0" class="graph" transform="scale(1 1) rotate(0) translate(4 498.25)">
<title>InfoVisC.73.6.png</title>
<polygon fill="white" stroke="none" points="-4,4 -4,-498.25 769.5,-498.25 769.5,4 -4,4"/>
<text xml:space="preserve" text-anchor="start" x="326.12" y="-473.95" font-family="Arial" font-weight="bold" font-size="14.00">InfoVisC.73.6.png</text>
<text xml:space="preserve" text-anchor="start" x="340.75" y="-454" font-family="Arial" font-size="11.00">Text &#160;| &#160;VC = 0.39</text>
<path fill="#b8e6b8" stroke="none" d="M173.38,-429C173.38,-429 181.38,-429 181.38,-429 184.38,-429 187.38,-432 187.38,-435 187.38,-435 187.38,-441 187.38,-441 187.38,-444 184.38,-447 181.38,-447 181.38,-447 173.38,-447 173.38,-447 170.38,-447 167.38,-444 167.38,-441 167.38,-441 167.38,-435 167.38,-435 167.38,-432 170.38,-429 173.38,-429"/>
<path fill="none" stroke="black" d="M173.38,-429C173.38,-429 181.38,-429 181.38,-429 184.38,-429 187.38,-432 187.38,-435 187.38,-435 187.38,-441 187.38,-441 187.38,-444 184.38,-447 181.38,-447 181.38,-447 173.38,-447 173.38,-447 170.38,-447 167.38,-444 167.38,-441 167.38,-441 167.38,-435 167.38,-435 167.38,-432 170.38,-429 173.38,-429"/>
<text xml:space="preserve" text-anchor="start" x="175.88" y="-434.25" font-family="Arial" font-size="10.00"> </text>
<text xml:space="preserve" text-anchor="start" x="191.38" y="-434.25" font-family="Arial" font-size="10.00">Object</text>
<path fill="#c7b8e6" stroke="none" d="M229.88,-429C229.88,-429 237.88,-429 237.88,-429 240.88,-429 243.88,-432 243.88,-435 243.88,-435 243.88,-441 243.88,-441 243.88,-444 240.88,-447 237.88,-447 237.88,-447 229.88,-447 229.88,-447 226.88,-447 223.88,-444 223.88,-441 223.88,-441 223.88,-435 223.88,-435 223.88,-432 226.88,-429 229.88,-429"/>
<path fill="none" stroke="black" d="M229.88,-429C229.88,-429 237.88,-429 237.88,-429 240.88,-429 243.88,-432 243.88,-435 243.88,-435 243.88,-441 243.88,-441 243.88,-444 240.88,-447 237.88,-447 237.88,-447 229.88,-447 229.88,-447 226.88,-447 223.88,-444 223.88,-441 223.88,-441 223.88,-435 223.88,-435 223.88,-432 226.88,-429 229.88,-429"/>
<text xml:space="preserve" text-anchor="start" x="232.38" y="-434.25" font-family="Arial" font-size="10.00"> </text>
<text xml:space="preserve" text-anchor="start" x="247.88" y="-434.25" font-family="Arial" font-size="10.00">Attribute</text>
<path fill="#f5b8b8" stroke="none" d="M294.62,-429C294.62,-429 302.62,-429 302.62,-429 305.62,-429 308.62,-432 308.62,-435 308.62,-435 308.62,-441 308.62,-441 308.62,-444 305.62,-447 302.62,-447 302.62,-447 294.62,-447 294.62,-447 291.62,-447 288.62,-444 288.62,-441 288.62,-441 288.62,-435 288.62,-435 288.62,-432 291.62,-429 294.62,-429"/>
<path fill="none" stroke="black" d="M294.62,-429C294.62,-429 302.62,-429 302.62,-429 305.62,-429 308.62,-432 308.62,-435 308.62,-435 308.62,-441 308.62,-441 308.62,-444 305.62,-447 302.62,-447 302.62,-447 294.62,-447 294.62,-447 291.62,-447 288.62,-444 288.62,-441 288.62,-441 288.62,-435 288.62,-435 288.62,-432 291.62,-429 294.62,-429"/>
<text xml:space="preserve" text-anchor="start" x="297.12" y="-434.25" font-family="Arial" font-size="10.00"> </text>
<text xml:space="preserve" text-anchor="start" x="312.62" y="-434.25" font-family="Arial" font-size="10.00">Relationship</text>
<text xml:space="preserve" text-anchor="start" x="372.62" y="-435.5" font-family="Arial" font-weight="bold" font-size="10.00">(+)</text>
<text xml:space="preserve" text-anchor="start" x="384.62" y="-435.5" font-family="Arial" font-size="10.00"> increases complexity</text>
<text xml:space="preserve" text-anchor="start" x="485.88" y="-435.5" font-family="Arial" font-weight="bold" font-size="10.00">(−)</text>
<text xml:space="preserve" text-anchor="start" x="497.88" y="-435.5" font-family="Arial" font-size="10.00"> decreases complexity</text>
<!-- text.label -->
<g id="node1" class="node">
<title>text.label</title>
<path fill="#b8e6b8" stroke="#2c3e50" stroke-width="1.8" d="M305.25,-163C305.25,-163 275.25,-163 275.25,-163 269.25,-163 263.25,-157 263.25,-151 263.25,-151 263.25,-139 263.25,-139 263.25,-133 269.25,-127 275.25,-127 275.25,-127 305.25,-127 305.25,-127 311.25,-127 317.25,-133 317.25,-139 317.25,-139 317.25,-151 317.25,-151 317.25,-157 311.25,-163 305.25,-163"/>
<text xml:space="preserve" text-anchor="middle" x="290.25" y="-141.5" font-family="Arial" font-size="10.00" fill="#1a1a1a">text</text>
</g>
<!-- attr_0 -->
<g id="node7" class="node">
<title>attr_0</title>
<path fill="#c7b8e6" stroke="#7f8c8d" stroke-width="1.2" d="M467.75,-293C467.75,-293 377.5,-293 377.5,-293 371.5,-293 365.5,-287 365.5,-281 365.5,-281 365.5,-269 365.5,-269 365.5,-263 371.5,-257 377.5,-257 377.5,-257 467.75,-257 467.75,-257 473.75,-257 479.75,-263 479.75,-269 479.75,-269 479.75,-281 479.75,-281 479.75,-287 473.75,-293 467.75,-293"/>
<text xml:space="preserve" text-anchor="middle" x="422.62" y="-271.5" font-family="Arial" font-size="10.00" fill="#1a1a1a">(+) cluttered on screen</text>
</g>
<!-- text.label&#45;&gt;attr_0 -->
<g id="edge1" class="edge">
<title>text.label&#45;&gt;attr_0</title>
<path fill="none" stroke="#aaaaaa" d="M300.78,-163.62C312.45,-184.97 333.95,-219.98 360.25,-243 364.05,-246.32 368.25,-249.42 372.63,-252.27"/>
<polygon fill="#aaaaaa" stroke="#aaaaaa" points="371.07,-254.19 378.32,-255.76 373.63,-250.01 371.07,-254.19"/>
</g>
<!-- attr_1 -->
<g id="node8" class="node">
<title>attr_1</title>
<path fill="#c7b8e6" stroke="#7f8c8d" stroke-width="1.2" d="M469.25,-228C469.25,-228 376,-228 376,-228 370,-228 364,-222 364,-216 364,-216 364,-204 364,-204 364,-198 370,-192 376,-192 376,-192 469.25,-192 469.25,-192 475.25,-192 481.25,-198 481.25,-204 481.25,-204 481.25,-216 481.25,-216 481.25,-222 475.25,-228 469.25,-228"/>
<text xml:space="preserve" text-anchor="middle" x="422.62" y="-206.5" font-family="Arial" font-size="10.00" fill="#1a1a1a">(+) large volume of text</text>
</g>
<!-- text.label&#45;&gt;attr_1 -->
<g id="edge2" class="edge">
<title>text.label&#45;&gt;attr_1</title>
<path fill="none" stroke="#aaaaaa" d="M317.95,-158.31C334.99,-166.81 357.5,-178.03 377.19,-187.85"/>
<polygon fill="#aaaaaa" stroke="#aaaaaa" points="375.87,-189.93 383.23,-190.86 378.06,-185.54 375.87,-189.93"/>
</g>
<!-- rel_0 -->
<g id="node14" class="node">
<title>rel_0</title>
<path fill="#f5b8b8" stroke="#d46a6a" stroke-width="1.2" d="M439.62,-98C439.62,-98 405.62,-98 405.62,-98 399.62,-98 393.62,-92 393.62,-86 393.62,-86 393.62,-74 393.62,-74 393.62,-68 399.62,-62 405.62,-62 405.62,-62 439.62,-62 439.62,-62 445.62,-62 451.62,-68 451.62,-74 451.62,-74 451.62,-86 451.62,-86 451.62,-92 445.62,-98 439.62,-98"/>
<text xml:space="preserve" text-anchor="middle" x="422.62" y="-76.5" font-family="Arial" font-size="10.00" fill="#8b0000">increases</text>
</g>
<!-- text.label&#45;&gt;rel_0 -->
<g id="edge8" class="edge">
<title>text.label&#45;&gt;rel_0</title>
<path fill="none" stroke="#d46a6a" stroke-width="1.5" d="M317.95,-131.69C337.03,-122.18 362.96,-109.25 384.12,-98.7"/>
<polygon fill="#d46a6a" stroke="#d46a6a" stroke-width="1.5" points="385.21,-101.28 391.12,-95.21 382.72,-96.27 385.21,-101.28"/>
</g>
<!-- rel_3 -->
<g id="node17" class="node">
<title>rel_3</title>
<path fill="#f5b8b8" stroke="#d46a6a" stroke-width="1.2" d="M473,-163C473,-163 372.25,-163 372.25,-163 366.25,-163 360.25,-157 360.25,-151 360.25,-151 360.25,-139 360.25,-139 360.25,-133 366.25,-127 372.25,-127 372.25,-127 473,-127 473,-127 479,-127 485,-133 485,-139 485,-139 485,-151 485,-151 485,-157 479,-163 473,-163"/>
<text xml:space="preserve" text-anchor="middle" x="422.62" y="-141.5" font-family="Arial" font-size="10.00" fill="#8b0000">requires effort to interpret</text>
</g>
<!-- text.label&#45;&gt;rel_3 -->
<g id="edge14" class="edge">
<title>text.label&#45;&gt;rel_3</title>
<path fill="none" stroke="#d46a6a" stroke-width="1.5" d="M317.95,-145C327.34,-145 338.39,-145 349.72,-145"/>
<polygon fill="#d46a6a" stroke="#d46a6a" stroke-width="1.5" points="349.44,-147.8 357.44,-145 349.44,-142.2 349.44,-147.8"/>
</g>
<!-- unknown.font -->
<g id="node2" class="node">
<title>unknown.font</title>
<path fill="#b8e6b8" stroke="#2c3e50" stroke-width="1.8" d="M305.25,-390C305.25,-390 275.25,-390 275.25,-390 269.25,-390 263.25,-384 263.25,-378 263.25,-378 263.25,-366 263.25,-366 263.25,-360 269.25,-354 275.25,-354 275.25,-354 305.25,-354 305.25,-354 311.25,-354 317.25,-360 317.25,-366 317.25,-366 317.25,-378 317.25,-378 317.25,-384 311.25,-390 305.25,-390"/>
<text xml:space="preserve" text-anchor="middle" x="290.25" y="-368.5" font-family="Arial" font-size="10.00" fill="#1a1a1a">font</text>
</g>
<!-- attr_2 -->
<g id="node9" class="node">
<title>attr_2</title>
<path fill="#c7b8e6" stroke="#7f8c8d" stroke-width="1.2" d="M464.75,-423C464.75,-423 380.5,-423 380.5,-423 374.5,-423 368.5,-417 368.5,-411 368.5,-411 368.5,-399 368.5,-399 368.5,-393 374.5,-387 380.5,-387 380.5,-387 464.75,-387 464.75,-387 470.75,-387 476.75,-393 476.75,-399 476.75,-399 476.75,-411 476.75,-411 476.75,-417 470.75,-423 464.75,-423"/>
<text xml:space="preserve" text-anchor="middle" x="422.62" y="-401.5" font-family="Arial" font-size="10.00" fill="#1a1a1a">(+) varying font sizes</text>
</g>
<!-- unknown.font&#45;&gt;attr_2 -->
<g id="edge3" class="edge">
<title>unknown.font&#45;&gt;attr_2</title>
<path fill="none" stroke="#aaaaaa" d="M317.95,-378.76C330.14,-381.84 345.14,-385.64 359.89,-389.37"/>
<polygon fill="#aaaaaa" stroke="#aaaaaa" points="359.19,-391.72 366.58,-391.07 360.4,-386.97 359.19,-391.72"/>
</g>
<!-- rel_1 -->
<g id="node15" class="node">
<title>rel_1</title>
<path fill="#f5b8b8" stroke="#d46a6a" stroke-width="1.2" d="M465.12,-358C465.12,-358 380.12,-358 380.12,-358 374.12,-358 368.12,-352 368.12,-346 368.12,-346 368.12,-334 368.12,-334 368.12,-328 374.12,-322 380.12,-322 380.12,-322 465.12,-322 465.12,-322 471.12,-322 477.12,-328 477.12,-334 477.12,-334 477.12,-346 477.12,-346 477.12,-352 471.12,-358 465.12,-358"/>
<text xml:space="preserve" text-anchor="middle" x="422.62" y="-336.5" font-family="Arial" font-size="10.00" fill="#8b0000">reduces readability of</text>
</g>
<!-- unknown.font&#45;&gt;rel_1 -->
<g id="edge10" class="edge">
<title>unknown.font&#45;&gt;rel_1</title>
<path fill="none" stroke="#d46a6a" stroke-width="1.5" d="M317.95,-365.45C329.63,-362.58 343.88,-359.08 358.03,-355.61"/>
<polygon fill="#d46a6a" stroke="#d46a6a" stroke-width="1.5" points="358.47,-358.38 365.58,-353.76 357.14,-352.94 358.47,-358.38"/>
</g>
<!-- unknown.lines -->
<g id="node3" class="node">
<title>unknown.lines</title>
<path fill="#b8e6b8" stroke="#2c3e50" stroke-width="1.8" d="M42,-293C42,-293 12,-293 12,-293 6,-293 0,-287 0,-281 0,-281 0,-269 0,-269 0,-263 6,-257 12,-257 12,-257 42,-257 42,-257 48,-257 54,-263 54,-269 54,-269 54,-281 54,-281 54,-287 48,-293 42,-293"/>
<text xml:space="preserve" text-anchor="middle" x="27" y="-271.5" font-family="Arial" font-size="10.00" fill="#1a1a1a">lines</text>
</g>
<!-- attr_3 -->
<g id="node10" class="node">
<title>attr_3</title>
<path fill="#c7b8e6" stroke="#7f8c8d" stroke-width="1.2" d="M208.25,-293C208.25,-293 109,-293 109,-293 103,-293 97,-287 97,-281 97,-281 97,-269 97,-269 97,-263 103,-257 109,-257 109,-257 208.25,-257 208.25,-257 214.25,-257 220.25,-263 220.25,-269 220.25,-269 220.25,-281 220.25,-281 220.25,-287 214.25,-293 208.25,-293"/>
<text xml:space="preserve" text-anchor="middle" x="158.62" y="-271.5" font-family="Arial" font-size="10.00" fill="#1a1a1a">(+) multiple lines present</text>
</g>
<!-- unknown.lines&#45;&gt;attr_3 -->
<g id="edge4" class="edge">
<title>unknown.lines&#45;&gt;attr_3</title>
<path fill="none" stroke="#aaaaaa" d="M54.86,-275C64.74,-275 76.44,-275 88.34,-275"/>
<polygon fill="#aaaaaa" stroke="#aaaaaa" points="88.08,-277.45 95.08,-275 88.08,-272.55 88.08,-277.45"/>
</g>
<!-- property.color -->
<g id="node4" class="node">
<title>property.color</title>
<path fill="#b8e6b8" stroke="#2c3e50" stroke-width="1.8" d="M42,-195C42,-195 12,-195 12,-195 6,-195 0,-189 0,-183 0,-183 0,-171 0,-171 0,-165 6,-159 12,-159 12,-159 42,-159 42,-159 48,-159 54,-165 54,-171 54,-171 54,-183 54,-183 54,-189 48,-195 42,-195"/>
<text xml:space="preserve" text-anchor="middle" x="27" y="-173.5" font-family="Arial" font-size="10.00" fill="#1a1a1a">color</text>
</g>
<!-- attr_4 -->
<g id="node11" class="node">
<title>attr_4</title>
<path fill="#c7b8e6" stroke="#7f8c8d" stroke-width="1.2" d="M203.38,-228C203.38,-228 113.88,-228 113.88,-228 107.88,-228 101.88,-222 101.88,-216 101.88,-216 101.88,-204 101.88,-204 101.88,-198 107.88,-192 113.88,-192 113.88,-192 203.38,-192 203.38,-192 209.38,-192 215.38,-198 215.38,-204 215.38,-204 215.38,-216 215.38,-216 215.38,-222 209.38,-228 203.38,-228"/>
<text xml:space="preserve" text-anchor="middle" x="158.62" y="-206.5" font-family="Arial" font-size="10.00" fill="#1a1a1a">(+) dark green coloring</text>
</g>
<!-- property.color&#45;&gt;attr_4 -->
<g id="edge5" class="edge">
<title>property.color&#45;&gt;attr_4</title>
<path fill="none" stroke="#aaaaaa" d="M54.86,-183.84C66.14,-186.71 79.79,-190.19 93.41,-193.65"/>
<polygon fill="#aaaaaa" stroke="#aaaaaa" points="92.55,-195.96 99.94,-195.31 93.76,-191.21 92.55,-195.96"/>
</g>
<!-- rel_2 -->
<g id="node16" class="node">
<title>rel_2</title>
<path fill="#f5b8b8" stroke="#d46a6a" stroke-width="1.2" d="M174.5,-163C174.5,-163 142.75,-163 142.75,-163 136.75,-163 130.75,-157 130.75,-151 130.75,-151 130.75,-139 130.75,-139 130.75,-133 136.75,-127 142.75,-127 142.75,-127 174.5,-127 174.5,-127 180.5,-127 186.5,-133 186.5,-139 186.5,-139 186.5,-151 186.5,-151 186.5,-157 180.5,-163 174.5,-163"/>
<text xml:space="preserve" text-anchor="middle" x="158.62" y="-141.5" font-family="Arial" font-size="10.00" fill="#8b0000">obscures</text>
</g>
<!-- property.color&#45;&gt;rel_2 -->
<g id="edge12" class="edge">
<title>property.color&#45;&gt;rel_2</title>
<path fill="none" stroke="#d46a6a" stroke-width="1.5" d="M54.86,-170.37C73.85,-165.68 99.55,-159.34 120.5,-154.16"/>
<polygon fill="#d46a6a" stroke="#d46a6a" stroke-width="1.5" points="121.06,-156.91 128.15,-152.28 119.71,-151.48 121.06,-156.91"/>
</g>
<!-- structure.layout -->
<g id="node5" class="node">
<title>structure.layout</title>
<path fill="#b8e6b8" stroke="#2c3e50" stroke-width="1.8" d="M570,-98C570,-98 540,-98 540,-98 534,-98 528,-92 528,-86 528,-86 528,-74 528,-74 528,-68 534,-62 540,-62 540,-62 570,-62 570,-62 576,-62 582,-68 582,-74 582,-74 582,-86 582,-86 582,-92 576,-98 570,-98"/>
<text xml:space="preserve" text-anchor="middle" x="555" y="-76.5" font-family="Arial" font-size="10.00" fill="#1a1a1a">layout</text>
</g>
<!-- attr_5 -->
<g id="node12" class="node">
<title>attr_5</title>
<path fill="#c7b8e6" stroke="#7f8c8d" stroke-width="1.2" d="M753.5,-101C753.5,-101 637,-101 637,-101 631,-101 625,-95 625,-89 625,-89 625,-77 625,-77 625,-71 631,-65 637,-65 637,-65 753.5,-65 753.5,-65 759.5,-65 765.5,-71 765.5,-77 765.5,-77 765.5,-89 765.5,-89 765.5,-95 759.5,-101 753.5,-101"/>
<text xml:space="preserve" text-anchor="middle" x="695.25" y="-79.5" font-family="Arial" font-size="10.00" fill="#1a1a1a">(+) spread information layout</text>
</g>
<!-- structure.layout&#45;&gt;attr_5 -->
<g id="edge6" class="edge">
<title>structure.layout&#45;&gt;attr_5</title>
<path fill="none" stroke="#aaaaaa" d="M582.66,-80.58C592.47,-80.79 604.16,-81.05 616.21,-81.31"/>
<polygon fill="#aaaaaa" stroke="#aaaaaa" points="616.03,-83.75 623.08,-81.46 616.14,-78.85 616.03,-83.75"/>
</g>
<!-- rel_4 -->
<g id="node18" class="node">
<title>rel_4</title>
<path fill="#f5b8b8" stroke="#d46a6a" stroke-width="1.2" d="M741.12,-36C741.12,-36 649.38,-36 649.38,-36 643.38,-36 637.38,-30 637.38,-24 637.38,-24 637.38,-12 637.38,-12 637.38,-6 643.38,0 649.38,0 649.38,0 741.12,0 741.12,0 747.12,0 753.12,-6 753.12,-12 753.12,-12 753.12,-24 753.12,-24 753.12,-30 747.12,-36 741.12,-36"/>
<text xml:space="preserve" text-anchor="middle" x="695.25" y="-14.5" font-family="Arial" font-size="10.00" fill="#8b0000">contributes to clutter in</text>
</g>
<!-- structure.layout&#45;&gt;rel_4 -->
<g id="edge16" class="edge">
<title>structure.layout&#45;&gt;rel_4</title>
<path fill="none" stroke="#d46a6a" stroke-width="1.5" d="M582.66,-68.05C599.94,-60.29 623.01,-49.95 643.68,-40.68"/>
<polygon fill="#d46a6a" stroke="#d46a6a" stroke-width="1.5" points="644.76,-43.27 650.91,-37.44 642.46,-38.16 644.76,-43.27"/>
</g>
<!-- unknown.words -->
<g id="node6" class="node">
<title>unknown.words</title>
<path fill="#b8e6b8" stroke="#2c3e50" stroke-width="1.8" d="M570,-262C570,-262 540,-262 540,-262 534,-262 528,-256 528,-250 528,-250 528,-238 528,-238 528,-232 534,-226 540,-226 540,-226 570,-226 570,-226 576,-226 582,-232 582,-238 582,-238 582,-250 582,-250 582,-256 576,-262 570,-262"/>
<text xml:space="preserve" text-anchor="middle" x="555" y="-240.5" font-family="Arial" font-size="10.00" fill="#1a1a1a">words</text>
</g>
<!-- attr_6 -->
<g id="node13" class="node">
<title>attr_6</title>
<path fill="#c7b8e6" stroke="#7f8c8d" stroke-width="1.2" d="M734.38,-262C734.38,-262 656.12,-262 656.12,-262 650.12,-262 644.12,-256 644.12,-250 644.12,-250 644.12,-238 644.12,-238 644.12,-232 650.12,-226 656.12,-226 656.12,-226 734.38,-226 734.38,-226 740.38,-226 746.38,-232 746.38,-238 746.38,-238 746.38,-250 746.38,-250 746.38,-256 740.38,-262 734.38,-262"/>
<text xml:space="preserve" text-anchor="middle" x="695.25" y="-240.5" font-family="Arial" font-size="10.00" fill="#1a1a1a">(+) unclear meaning</text>
</g>
<!-- unknown.words&#45;&gt;attr_6 -->
<g id="edge7" class="edge">
<title>unknown.words&#45;&gt;attr_6</title>
<path fill="none" stroke="#aaaaaa" d="M582.66,-244C597.63,-244 616.93,-244 635.27,-244"/>
<polygon fill="#aaaaaa" stroke="#aaaaaa" points="635.09,-246.45 642.09,-244 635.09,-241.55 635.09,-246.45"/>
</g>
<!-- rel_0&#45;&gt;structure.layout -->
<g id="edge9" class="edge">
<title>rel_0&#45;&gt;structure.layout</title>
<path fill="none" stroke="#d46a6a" stroke-width="1.5" d="M451.91,-80C471.01,-80 496.39,-80 517.08,-80"/>
<polygon fill="#d46a6a" stroke="#d46a6a" stroke-width="1.5" points="516.83,-82.8 524.83,-80 516.83,-77.2 516.83,-82.8"/>
</g>
<!-- rel_1&#45;&gt;unknown.words -->
<g id="edge11" class="edge">
<title>rel_1&#45;&gt;unknown.words</title>
<path fill="none" stroke="#d46a6a" stroke-width="1.5" d="M462.86,-321.55C470.42,-317.44 478.13,-312.85 485,-308 500.85,-296.82 516.84,-282.25 529.42,-269.84"/>
<polygon fill="#d46a6a" stroke="#d46a6a" stroke-width="1.5" points="531.15,-272.07 534.82,-264.42 527.19,-268.12 531.15,-272.07"/>
</g>
<!-- rel_2&#45;&gt;text.label -->
<g id="edge13" class="edge">
<title>rel_2&#45;&gt;text.label</title>
<path fill="none" stroke="#d46a6a" stroke-width="1.5" d="M186.8,-145C205.85,-145 231.54,-145 252.43,-145"/>
<polygon fill="#d46a6a" stroke="#d46a6a" stroke-width="1.5" points="252.29,-147.8 260.29,-145 252.29,-142.2 252.29,-147.8"/>
</g>
<!-- rel_3&#45;&gt;unknown.words -->
<g id="edge15" class="edge">
<title>rel_3&#45;&gt;unknown.words</title>
<path fill="none" stroke="#d46a6a" stroke-width="1.5" d="M463.27,-163.51C470.72,-167.58 478.28,-172.14 485,-177 501.41,-188.85 517.74,-204.5 530.4,-217.69"/>
<polygon fill="#d46a6a" stroke="#d46a6a" stroke-width="1.5" points="528.32,-219.57 535.85,-223.48 532.4,-215.73 528.32,-219.57"/>
</g>
<!-- rel_4&#45;&gt;text.label -->
<g id="edge17" class="edge">
<title>rel_4&#45;&gt;text.label</title>
<path fill="none" stroke="#d46a6a" stroke-width="1.5" d="M637.08,-9.09C566.92,-1.12 446.65,2.7 360.25,-47 332.95,-62.7 313.81,-94.1 302.72,-117.14"/>
<polygon fill="#d46a6a" stroke="#d46a6a" stroke-width="1.5" points="300.2,-115.93 299.41,-124.37 305.29,-118.26 300.2,-115.93"/>
</g>
</g>
</svg>
