<?xml version="1.0" encoding="UTF-8" standalone="no"?>
<!DOCTYPE svg PUBLIC "-//W3C//DTD SVG 1.1//EN"
 "http://www.w3.org/Graphics/SVG/1.1/DTD/svg11.dtd">
<!-- Generated by graphviz version 14.1.5 (20260411.2331)
 -->
<!-- Title: InfoVisC.103.9.png Pages: 1 -->
<svg width="834pt" height="440pt"
 viewBox="0.00 0.00 834.00 440.00" xmlns="http://www.w3.org/2000/svg" xmlns:xlink="http://www.w3.org/1999/xlink">
<g id="graph0" class="graph" transform="scale(1 1) rotate(0) translate(4 436.25)">
<title>InfoVisC.103.9.png</title>
<polygon fill="white" stroke="none" points="-4,4 -4,-436.25 830,-436.25 830,4 -4,4"/>
<text xml:space="preserve" text-anchor="start" x="352.62" y="-411.95" font-family="Arial" font-weight="bold" font-size="14.00">InfoVisC.103.9.png</text>
<text xml:space="preserve" text-anchor="start" x="370.62" y="-392" font-family="Arial" font-size="11.00">Line &#160;| &#160;VC = 0.46</text>
<path fill="#b8e6b8" stroke="none" d="M203.62,-367C203.62,-367 211.62,-367 211.62,-367 214.62,-367 217.62,-370 217.62,-373 217.62,-373 217.62,-379 217.62,-379 217.62,-382 214.62,-385 211.62,-385 211.62,-385 203.62,-385 203.62,-385 200.62,-385 197.62,-382 197.62,-379 197.62,-379 197.62,-373 197.62,-373 197.62,-370 200.62,-367 203.62,-367"/>
<path fill="none" stroke="black" d="M203.62,-367C203.62,-367 211.62,-367 211.62,-367 214.62,-367 217.62,-370 217.62,-373 217.62,-373 217.62,-379 217.62,-379 217.62,-382 214.62,-385 211.62,-385 211.62,-385 203.62,-385 203.62,-385 200.62,-385 197.62,-382 197.62,-379 197.62,-379 197.62,-373 197.62,-373 197.62,-370 200.62,-367 203.62,-367"/>
<text xml:space="preserve" text-anchor="start" x="206.12" y="-372.25" font-family="Arial" font-size="10.00"> </text>
<text xml:space="preserve" text-anchor="start" x="221.62" y="-372.25" font-family="Arial" font-size="10.00">Object</text>
<path fill="#c7b8e6" stroke="none" d="M260.12,-367C260.12,-367 268.12,-367 268.12,-367 271.12,-367 274.12,-370 274.12,-373 274.12,-373 274.12,-379 274.12,-379 274.12,-382 271.12,-385 268.12,-385 268.12,-385 260.12,-385 260.12,-385 257.12,-385 254.12,-382 254.12,-379 254.12,-379 254.12,-373 254.12,-373 254.12,-370 257.12,-367 260.12,-367"/>
<path fill="none" stroke="black" d="M260.12,-367C260.12,-367 268.12,-367 268.12,-367 271.12,-367 274.12,-370 274.12,-373 274.12,-373 274.12,-379 274.12,-379 274.12,-382 271.12,-385 268.12,-385 268.12,-385 260.12,-385 260.12,-385 257.12,-385 254.12,-382 254.12,-379 254.12,-379 254.12,-373 254.12,-373 254.12,-370 257.12,-367 260.12,-367"/>
<text xml:space="preserve" text-anchor="start" x="262.62" y="-372.25" font-family="Arial" font-size="10.00"> </text>
<text xml:space="preserve" text-anchor="start" x="278.12" y="-372.25" font-family="Arial" font-size="10.00">Attribute</text>
<path fill="#f5b8b8" stroke="none" d="M324.88,-367C324.88,-367 332.88,-367 332.88,-367 335.88,-367 338.88,-370 338.88,-373 338.88,-373 338.88,-379 338.88,-379 338.88,-382 335.88,-385 332.88,-385 332.88,-385 324.88,-385 324.88,-385 321.88,-385 318.88,-382 318.88,-379 318.88,-379 318.88,-373 318.88,-373 318.88,-370 321.88,-367 324.88,-367"/>
<path fill="none" stroke="black" d="M324.88,-367C324.88,-367 332.88,-367 332.88,-367 335.88,-367 338.88,-370 338.88,-373 338.88,-373 338.88,-379 338.88,-379 338.88,-382 335.88,-385 332.88,-385 332.88,-385 324.88,-385 324.88,-385 321.88,-385 318.88,-382 318.88,-379 318.88,-379 318.88,-373 318.88,-373 318.88,-370 321.88,-367 324.88,-367"/>
<text xml:space="preserve" text-anchor="start" x="327.38" y="-372.25" font-family="Arial" font-size="10.00"> </text>
<text xml:space="preserve" text-anchor="start" x="342.88" y="-372.25" font-family="Arial" font-size="10.00">Relationship</text>
<text xml:space="preserve" text-anchor="start" x="402.88" y="-373.5" font-family="Arial" font-weight="bold" font-size="10.00">(+)</text>
<text xml:space="preserve" text-anchor="start" x="414.88" y="-373.5" font-family="Arial" font-size="10.00"> increases complexity</text>
<text xml:space="preserve" text-anchor="start" x="516.12" y="-373.5" font-family="Arial" font-weight="bold" font-size="10.00">(−)</text>
<text xml:space="preserve" text-anchor="start" x="528.12" y="-373.5" font-family="Arial" font-size="10.00"> decreases complexity</text>
<!-- mark.line -->
<g id="node1" class="node">
<title>mark.line</title>
<path fill="#b8e6b8" stroke="#2c3e50" stroke-width="1.8" d="M626,-198C626,-198 596,-198 596,-198 590,-198 584,-192 584,-186 584,-186 584,-174 584,-174 584,-168 590,-162 596,-162 596,-162 626,-162 626,-162 632,-162 638,-168 638,-174 638,-174 638,-186 638,-186 638,-192 632,-198 626,-198"/>
<text xml:space="preserve" text-anchor="middle" x="611" y="-176.5" font-family="Arial" font-size="10.00" fill="#1a1a1a">line</text>
</g>
<!-- unknown.spikes -->
<g id="node2" class="node">
<title>unknown.spikes</title>
<path fill="#b8e6b8" stroke="#2c3e50" stroke-width="1.8" d="M343.12,-134C343.12,-134 313.12,-134 313.12,-134 307.12,-134 301.12,-128 301.12,-122 301.12,-122 301.12,-110 301.12,-110 301.12,-104 307.12,-98 313.12,-98 313.12,-98 343.12,-98 343.12,-98 349.12,-98 355.12,-104 355.12,-110 355.12,-110 355.12,-122 355.12,-122 355.12,-128 349.12,-134 343.12,-134"/>
<text xml:space="preserve" text-anchor="middle" x="328.12" y="-112.5" font-family="Arial" font-size="10.00" fill="#1a1a1a">spikes</text>
</g>
<!-- attr_0 -->
<g id="node6" class="node">
<title>attr_0</title>
<path fill="#c7b8e6" stroke="#7f8c8d" stroke-width="1.2" d="M509.12,-231C509.12,-231 431.62,-231 431.62,-231 425.62,-231 419.62,-225 419.62,-219 419.62,-219 419.62,-207 419.62,-207 419.62,-201 425.62,-195 431.62,-195 431.62,-195 509.12,-195 509.12,-195 515.12,-195 521.12,-201 521.12,-207 521.12,-207 521.12,-219 521.12,-219 521.12,-225 515.12,-231 509.12,-231"/>
<text xml:space="preserve" text-anchor="middle" x="470.38" y="-209.5" font-family="Arial" font-size="10.00" fill="#1a1a1a">(+) difficult to follow</text>
</g>
<!-- unknown.spikes&#45;&gt;attr_0 -->
<g id="edge1" class="edge">
<title>unknown.spikes&#45;&gt;attr_0</title>
<path fill="none" stroke="#aaaaaa" d="M346.38,-134.8C359.93,-148.8 379.78,-167.7 399.75,-181 404.97,-184.47 410.62,-187.75 416.38,-190.79"/>
<polygon fill="#aaaaaa" stroke="#aaaaaa" points="414.99,-192.83 422.34,-193.82 417.21,-188.47 414.99,-192.83"/>
</g>
<!-- attr_1 -->
<g id="node7" class="node">
<title>attr_1</title>
<path fill="#c7b8e6" stroke="#7f8c8d" stroke-width="1.2" d="M520.38,-166C520.38,-166 420.38,-166 420.38,-166 414.38,-166 408.38,-160 408.38,-154 408.38,-154 408.38,-142 408.38,-142 408.38,-136 414.38,-130 420.38,-130 420.38,-130 520.38,-130 520.38,-130 526.38,-130 532.38,-136 532.38,-142 532.38,-142 532.38,-154 532.38,-154 532.38,-160 526.38,-166 520.38,-166"/>
<text xml:space="preserve" text-anchor="middle" x="470.38" y="-144.5" font-family="Arial" font-size="10.00" fill="#1a1a1a">(+) irregular sharp spikes</text>
</g>
<!-- unknown.spikes&#45;&gt;attr_1 -->
<g id="edge2" class="edge">
<title>unknown.spikes&#45;&gt;attr_1</title>
<path fill="none" stroke="#aaaaaa" d="M355.84,-122.09C368.42,-124.97 384.09,-128.54 399.72,-132.11"/>
<polygon fill="#aaaaaa" stroke="#aaaaaa" points="399.03,-134.46 406.4,-133.63 400.12,-129.69 399.03,-134.46"/>
</g>
<!-- rel_0 -->
<g id="node11" class="node">
<title>rel_0</title>
<path fill="#f5b8b8" stroke="#d46a6a" stroke-width="1.2" d="M525.25,-36C525.25,-36 415.5,-36 415.5,-36 409.5,-36 403.5,-30 403.5,-24 403.5,-24 403.5,-12 403.5,-12 403.5,-6 409.5,0 415.5,0 415.5,0 525.25,0 525.25,0 531.25,0 537.25,-6 537.25,-12 537.25,-12 537.25,-24 537.25,-24 537.25,-30 531.25,-36 525.25,-36"/>
<text xml:space="preserve" text-anchor="middle" x="470.38" y="-14.5" font-family="Arial" font-size="10.00" fill="#8b0000">increases interpretive effort</text>
</g>
<!-- unknown.spikes&#45;&gt;rel_0 -->
<g id="edge6" class="edge">
<title>unknown.spikes&#45;&gt;rel_0</title>
<path fill="none" stroke="#d46a6a" stroke-width="1.5" d="M346.05,-97.18C359.57,-82.93 379.55,-63.56 399.75,-50 404.49,-46.82 409.6,-43.8 414.82,-40.99"/>
<polygon fill="#d46a6a" stroke="#d46a6a" stroke-width="1.5" points="415.8,-43.63 421.64,-37.49 413.25,-38.65 415.8,-43.63"/>
</g>
<!-- rel_3 -->
<g id="node14" class="node">
<title>rel_3</title>
<path fill="#f5b8b8" stroke="#d46a6a" stroke-width="1.2" d="M514,-101C514,-101 426.75,-101 426.75,-101 420.75,-101 414.75,-95 414.75,-89 414.75,-89 414.75,-77 414.75,-77 414.75,-71 420.75,-65 426.75,-65 426.75,-65 514,-65 514,-65 520,-65 526,-71 526,-77 526,-77 526,-89 526,-89 526,-95 520,-101 514,-101"/>
<text xml:space="preserve" text-anchor="middle" x="470.38" y="-79.5" font-family="Arial" font-size="10.00" fill="#8b0000">disrupts visual flow of</text>
</g>
<!-- unknown.spikes&#45;&gt;rel_3 -->
<g id="edge12" class="edge">
<title>unknown.spikes&#45;&gt;rel_3</title>
<path fill="none" stroke="#d46a6a" stroke-width="1.5" d="M355.84,-109.72C369.78,-106.43 387.51,-102.26 404.79,-98.2"/>
<polygon fill="#d46a6a" stroke="#d46a6a" stroke-width="1.5" points="404.95,-101.03 412.1,-96.48 403.67,-95.58 404.95,-101.03"/>
</g>
<!-- text.axis_label -->
<g id="node3" class="node">
<title>text.axis_label</title>
<path fill="#b8e6b8" stroke="#2c3e50" stroke-width="1.8" d="M344.75,-328C344.75,-328 311.5,-328 311.5,-328 305.5,-328 299.5,-322 299.5,-316 299.5,-316 299.5,-304 299.5,-304 299.5,-298 305.5,-292 311.5,-292 311.5,-292 344.75,-292 344.75,-292 350.75,-292 356.75,-298 356.75,-304 356.75,-304 356.75,-316 356.75,-316 356.75,-322 350.75,-328 344.75,-328"/>
<text xml:space="preserve" text-anchor="middle" x="328.12" y="-306.5" font-family="Arial" font-size="10.00" fill="#1a1a1a">axis label</text>
</g>
<!-- attr_3 -->
<g id="node8" class="node">
<title>attr_3</title>
<path fill="#c7b8e6" stroke="#7f8c8d" stroke-width="1.2" d="M529,-361C529,-361 411.75,-361 411.75,-361 405.75,-361 399.75,-355 399.75,-349 399.75,-349 399.75,-337 399.75,-337 399.75,-331 405.75,-325 411.75,-325 411.75,-325 529,-325 529,-325 535,-325 541,-331 541,-337 541,-337 541,-349 541,-349 541,-355 535,-361 529,-361"/>
<text xml:space="preserve" text-anchor="middle" x="470.38" y="-339.5" font-family="Arial" font-size="10.00" fill="#1a1a1a">(+) lacking informative labels</text>
</g>
<!-- text.axis_label&#45;&gt;attr_3 -->
<g id="edge3" class="edge">
<title>text.axis_label&#45;&gt;attr_3</title>
<path fill="none" stroke="#aaaaaa" d="M357.51,-316.68C367.49,-319.03 379.24,-321.79 391.31,-324.63"/>
<polygon fill="#aaaaaa" stroke="#aaaaaa" points="390.43,-326.94 397.8,-326.16 391.55,-322.17 390.43,-326.94"/>
</g>
<!-- rel_2 -->
<g id="node13" class="node">
<title>rel_2</title>
<path fill="#f5b8b8" stroke="#d46a6a" stroke-width="1.2" d="M502.75,-296C502.75,-296 438,-296 438,-296 432,-296 426,-290 426,-284 426,-284 426,-272 426,-272 426,-266 432,-260 438,-260 438,-260 502.75,-260 502.75,-260 508.75,-260 514.75,-266 514.75,-272 514.75,-272 514.75,-284 514.75,-284 514.75,-290 508.75,-296 502.75,-296"/>
<text xml:space="preserve" text-anchor="middle" x="470.38" y="-274.5" font-family="Arial" font-size="10.00" fill="#8b0000">lacks context for</text>
</g>
<!-- text.axis_label&#45;&gt;rel_2 -->
<g id="edge10" class="edge">
<title>text.axis_label&#45;&gt;rel_2</title>
<path fill="none" stroke="#d46a6a" stroke-width="1.5" d="M357.51,-303.52C374.21,-299.71 395.89,-294.77 415.71,-290.24"/>
<polygon fill="#d46a6a" stroke="#d46a6a" stroke-width="1.5" points="416.17,-293.01 423.35,-288.5 414.93,-287.55 416.17,-293.01"/>
</g>
<!-- text.annotation -->
<g id="node4" class="node">
<title>text.annotation</title>
<path fill="#b8e6b8" stroke="#2c3e50" stroke-width="1.8" d="M49,-166C49,-166 12,-166 12,-166 6,-166 0,-160 0,-154 0,-154 0,-142 0,-142 0,-136 6,-130 12,-130 12,-130 49,-130 49,-130 55,-130 61,-136 61,-142 61,-142 61,-154 61,-154 61,-160 55,-166 49,-166"/>
<text xml:space="preserve" text-anchor="middle" x="30.5" y="-144.5" font-family="Arial" font-size="10.00" fill="#1a1a1a">annotation</text>
</g>
<!-- attr_2 -->
<g id="node9" class="node">
<title>attr_2</title>
<path fill="#c7b8e6" stroke="#7f8c8d" stroke-width="1.2" d="M244.5,-199C244.5,-199 116,-199 116,-199 110,-199 104,-193 104,-187 104,-187 104,-175 104,-175 104,-169 110,-163 116,-163 116,-163 244.5,-163 244.5,-163 250.5,-163 256.5,-169 256.5,-175 256.5,-175 256.5,-187 256.5,-187 256.5,-193 250.5,-199 244.5,-199"/>
<text xml:space="preserve" text-anchor="middle" x="180.25" y="-177.5" font-family="Arial" font-size="10.00" fill="#1a1a1a">(+) insufficient context provided</text>
</g>
<!-- text.annotation&#45;&gt;attr_2 -->
<g id="edge4" class="edge">
<title>text.annotation&#45;&gt;attr_2</title>
<path fill="none" stroke="#aaaaaa" d="M61.76,-154.76C71.8,-157 83.52,-159.62 95.59,-162.31"/>
<polygon fill="#aaaaaa" stroke="#aaaaaa" points="94.72,-164.63 102.08,-163.76 95.78,-159.85 94.72,-164.63"/>
</g>
<!-- rel_1 -->
<g id="node12" class="node">
<title>rel_1</title>
<path fill="#f5b8b8" stroke="#d46a6a" stroke-width="1.2" d="M205.5,-134C205.5,-134 155,-134 155,-134 149,-134 143,-128 143,-122 143,-122 143,-110 143,-110 143,-104 149,-98 155,-98 155,-98 205.5,-98 205.5,-98 211.5,-98 217.5,-104 217.5,-110 217.5,-110 217.5,-122 217.5,-122 217.5,-128 211.5,-134 205.5,-134"/>
<text xml:space="preserve" text-anchor="middle" x="180.25" y="-112.5" font-family="Arial" font-size="10.00" fill="#8b0000">fails to clarify</text>
</g>
<!-- text.annotation&#45;&gt;rel_1 -->
<g id="edge8" class="edge">
<title>text.annotation&#45;&gt;rel_1</title>
<path fill="none" stroke="#d46a6a" stroke-width="1.5" d="M61.76,-141.45C82.13,-137.04 109.39,-131.13 132.53,-126.12"/>
<polygon fill="#d46a6a" stroke="#d46a6a" stroke-width="1.5" points="133.05,-128.87 140.28,-124.44 131.87,-123.4 133.05,-128.87"/>
</g>
<!-- whole.visualization -->
<g id="node5" class="node">
<title>whole.visualization</title>
<path fill="#b8e6b8" stroke="#2c3e50" stroke-width="1.8" d="M626,-36C626,-36 596,-36 596,-36 590,-36 584,-30 584,-24 584,-24 584,-12 584,-12 584,-6 590,0 596,0 596,0 626,0 626,0 632,0 638,-6 638,-12 638,-12 638,-24 638,-24 638,-30 632,-36 626,-36"/>
<text xml:space="preserve" text-anchor="middle" x="611" y="-14.5" font-family="Arial" font-size="10.00" fill="#1a1a1a">chart</text>
</g>
<!-- attr_4 -->
<g id="node10" class="node">
<title>attr_4</title>
<path fill="#c7b8e6" stroke="#7f8c8d" stroke-width="1.2" d="M814,-36C814,-36 693,-36 693,-36 687,-36 681,-30 681,-24 681,-24 681,-12 681,-12 681,-6 687,0 693,0 693,0 814,0 814,0 820,0 826,-6 826,-12 826,-12 826,-24 826,-24 826,-30 820,-36 814,-36"/>
<text xml:space="preserve" text-anchor="middle" x="753.5" y="-14.5" font-family="Arial" font-size="10.00" fill="#1a1a1a">(+) low contextual information</text>
</g>
<!-- whole.visualization&#45;&gt;attr_4 -->
<g id="edge5" class="edge">
<title>whole.visualization&#45;&gt;attr_4</title>
<path fill="none" stroke="#aaaaaa" d="M638.76,-18C648.53,-18 660.14,-18 672.16,-18"/>
<polygon fill="#aaaaaa" stroke="#aaaaaa" points="672.02,-20.45 679.02,-18 672.02,-15.55 672.02,-20.45"/>
</g>
<!-- rel_0&#45;&gt;whole.visualization -->
<g id="edge7" class="edge">
<title>rel_0&#45;&gt;whole.visualization</title>
<path fill="none" stroke="#d46a6a" stroke-width="1.5" d="M537.85,-18C550.06,-18 562.4,-18 573.33,-18"/>
<polygon fill="#d46a6a" stroke="#d46a6a" stroke-width="1.5" points="573.06,-20.8 581.06,-18 573.06,-15.2 573.06,-20.8"/>
</g>
<!-- rel_1&#45;&gt;unknown.spikes -->
<g id="edge9" class="edge">
<title>rel_1&#45;&gt;unknown.spikes</title>
<path fill="none" stroke="#d46a6a" stroke-width="1.5" d="M218.06,-116C240.21,-116 268.31,-116 290.44,-116"/>
<polygon fill="#d46a6a" stroke="#d46a6a" stroke-width="1.5" points="290.18,-118.8 298.18,-116 290.18,-113.2 290.18,-118.8"/>
</g>
<!-- rel_2&#45;&gt;mark.line -->
<g id="edge11" class="edge">
<title>rel_2&#45;&gt;mark.line</title>
<path fill="none" stroke="#d46a6a" stroke-width="1.5" d="M515.3,-260.51C524.11,-256.27 533.08,-251.38 541,-246 557.62,-234.7 573.97,-219.31 586.58,-206.23"/>
<polygon fill="#d46a6a" stroke="#d46a6a" stroke-width="1.5" points="588.53,-208.24 591.99,-200.49 584.46,-204.39 588.53,-208.24"/>
</g>
<!-- rel_3&#45;&gt;mark.line -->
<g id="edge13" class="edge">
<title>rel_3&#45;&gt;mark.line</title>
<path fill="none" stroke="#d46a6a" stroke-width="1.5" d="M517.1,-101.42C525.32,-105.45 533.61,-110.02 541,-115 557.43,-126.07 573.66,-141.11 586.25,-153.92"/>
<polygon fill="#d46a6a" stroke="#d46a6a" stroke-width="1.5" points="584.08,-155.71 591.64,-159.53 588.12,-151.83 584.08,-155.71"/>
</g>
</g>
</svg>
