<?xml version="1.0" encoding="UTF-8" standalone="no"?>
<!DOCTYPE svg PUBLIC "-//W3C//DTD SVG 1.1//EN"
 "http://www.w3.org/Graphics/SVG/1.1/DTD/svg11.dtd">
<!-- Generated by graphviz version 14.1.5 (20260411.2331)
 -->
<!-- Title: InfoVisJ.2251.1(3).png Pages: 1 -->
<svg width="593pt" height="570pt"
 viewBox="0.00 0.00 593.00 570.00" xmlns="http://www.w3.org/2000/svg" xmlns:xlink="http://www.w3.org/1999/xlink">
<g id="graph0" class="graph" transform="scale(1 1) rotate(0) translate(4 566.25)">
<title>InfoVisJ.2251.1(3).png</title>
<polygon fill="white" stroke="none" points="-4,4 -4,-566.25 588.5,-566.25 588.5,4 -4,4"/>
<text xml:space="preserve" text-anchor="start" x="221" y="-541.95" font-family="Arial" font-weight="bold" font-size="14.00">InfoVisJ.2251.1(3).png</text>
<text xml:space="preserve" text-anchor="start" x="246.12" y="-522" font-family="Arial" font-size="11.00">Glyph &#160;| &#160;VC = 0.57</text>
<path fill="#b8e6b8" stroke="none" d="M82.88,-497C82.88,-497 90.88,-497 90.88,-497 93.88,-497 96.88,-500 96.88,-503 96.88,-503 96.88,-509 96.88,-509 96.88,-512 93.88,-515 90.88,-515 90.88,-515 82.88,-515 82.88,-515 79.88,-515 76.88,-512 76.88,-509 76.88,-509 76.88,-503 76.88,-503 76.88,-500 79.88,-497 82.88,-497"/>
<path fill="none" stroke="black" d="M82.88,-497C82.88,-497 90.88,-497 90.88,-497 93.88,-497 96.88,-500 96.88,-503 96.88,-503 96.88,-509 96.88,-509 96.88,-512 93.88,-515 90.88,-515 90.88,-515 82.88,-515 82.88,-515 79.88,-515 76.88,-512 76.88,-509 76.88,-509 76.88,-503 76.88,-503 76.88,-500 79.88,-497 82.88,-497"/>
<text xml:space="preserve" text-anchor="start" x="85.38" y="-502.25" font-family="Arial" font-size="10.00"> </text>
<text xml:space="preserve" text-anchor="start" x="100.88" y="-502.25" font-family="Arial" font-size="10.00">Object</text>
<path fill="#c7b8e6" stroke="none" d="M139.38,-497C139.38,-497 147.38,-497 147.38,-497 150.38,-497 153.38,-500 153.38,-503 153.38,-503 153.38,-509 153.38,-509 153.38,-512 150.38,-515 147.38,-515 147.38,-515 139.38,-515 139.38,-515 136.38,-515 133.38,-512 133.38,-509 133.38,-509 133.38,-503 133.38,-503 133.38,-500 136.38,-497 139.38,-497"/>
<path fill="none" stroke="black" d="M139.38,-497C139.38,-497 147.38,-497 147.38,-497 150.38,-497 153.38,-500 153.38,-503 153.38,-503 153.38,-509 153.38,-509 153.38,-512 150.38,-515 147.38,-515 147.38,-515 139.38,-515 139.38,-515 136.38,-515 133.38,-512 133.38,-509 133.38,-509 133.38,-503 133.38,-503 133.38,-500 136.38,-497 139.38,-497"/>
<text xml:space="preserve" text-anchor="start" x="141.88" y="-502.25" font-family="Arial" font-size="10.00"> </text>
<text xml:space="preserve" text-anchor="start" x="157.38" y="-502.25" font-family="Arial" font-size="10.00">Attribute</text>
<path fill="#f5b8b8" stroke="none" d="M204.12,-497C204.12,-497 212.12,-497 212.12,-497 215.12,-497 218.12,-500 218.12,-503 218.12,-503 218.12,-509 218.12,-509 218.12,-512 215.12,-515 212.12,-515 212.12,-515 204.12,-515 204.12,-515 201.12,-515 198.12,-512 198.12,-509 198.12,-509 198.12,-503 198.12,-503 198.12,-500 201.12,-497 204.12,-497"/>
<path fill="none" stroke="black" d="M204.12,-497C204.12,-497 212.12,-497 212.12,-497 215.12,-497 218.12,-500 218.12,-503 218.12,-503 218.12,-509 218.12,-509 218.12,-512 215.12,-515 212.12,-515 212.12,-515 204.12,-515 204.12,-515 201.12,-515 198.12,-512 198.12,-509 198.12,-509 198.12,-503 198.12,-503 198.12,-500 201.12,-497 204.12,-497"/>
<text xml:space="preserve" text-anchor="start" x="206.62" y="-502.25" font-family="Arial" font-size="10.00"> </text>
<text xml:space="preserve" text-anchor="start" x="222.12" y="-502.25" font-family="Arial" font-size="10.00">Relationship</text>
<text xml:space="preserve" text-anchor="start" x="282.12" y="-503.5" font-family="Arial" font-weight="bold" font-size="10.00">(+)</text>
<text xml:space="preserve" text-anchor="start" x="294.12" y="-503.5" font-family="Arial" font-size="10.00"> increases complexity</text>
<text xml:space="preserve" text-anchor="start" x="395.38" y="-503.5" font-family="Arial" font-weight="bold" font-size="10.00">(−)</text>
<text xml:space="preserve" text-anchor="start" x="407.38" y="-503.5" font-family="Arial" font-size="10.00"> decreases complexity</text>
<!-- unknown.glyph_set -->
<g id="node1" class="node">
<title>unknown.glyph_set</title>
<path fill="#b8e6b8" stroke="#2c3e50" stroke-width="1.8" d="M375.88,-101C375.88,-101 344.12,-101 344.12,-101 338.12,-101 332.12,-95 332.12,-89 332.12,-89 332.12,-77 332.12,-77 332.12,-71 338.12,-65 344.12,-65 344.12,-65 375.88,-65 375.88,-65 381.88,-65 387.88,-71 387.88,-77 387.88,-77 387.88,-89 387.88,-89 387.88,-95 381.88,-101 375.88,-101"/>
<text xml:space="preserve" text-anchor="middle" x="360" y="-79.5" font-family="Arial" font-size="10.00" fill="#1a1a1a">glyph set</text>
</g>
<!-- attr_5 -->
<g id="node7" class="node">
<title>attr_5</title>
<path fill="#c7b8e6" stroke="#7f8c8d" stroke-width="1.2" d="M572.5,-101C572.5,-101 460.5,-101 460.5,-101 454.5,-101 448.5,-95 448.5,-89 448.5,-89 448.5,-77 448.5,-77 448.5,-71 454.5,-65 460.5,-65 460.5,-65 572.5,-65 572.5,-65 578.5,-65 584.5,-71 584.5,-77 584.5,-77 584.5,-89 584.5,-89 584.5,-95 578.5,-101 572.5,-101"/>
<text xml:space="preserve" text-anchor="middle" x="516.5" y="-79.5" font-family="Arial" font-size="10.00" fill="#1a1a1a">(+) moderate element count</text>
</g>
<!-- unknown.glyph_set&#45;&gt;attr_5 -->
<g id="edge1" class="edge">
<title>unknown.glyph_set&#45;&gt;attr_5</title>
<path fill="none" stroke="#aaaaaa" d="M388.62,-83C403,-83 421.35,-83 439.6,-83"/>
<polygon fill="#aaaaaa" stroke="#aaaaaa" points="439.45,-85.45 446.45,-83 439.45,-80.55 439.45,-85.45"/>
</g>
<!-- unknown.geometry_shapes -->
<g id="node2" class="node">
<title>unknown.geometry_shapes</title>
<path fill="#b8e6b8" stroke="#2c3e50" stroke-width="1.8" d="M393.5,-361C393.5,-361 326.5,-361 326.5,-361 320.5,-361 314.5,-355 314.5,-349 314.5,-349 314.5,-337 314.5,-337 314.5,-331 320.5,-325 326.5,-325 326.5,-325 393.5,-325 393.5,-325 399.5,-325 405.5,-331 405.5,-337 405.5,-337 405.5,-349 405.5,-349 405.5,-355 399.5,-361 393.5,-361"/>
<text xml:space="preserve" text-anchor="middle" x="360" y="-339.5" font-family="Arial" font-size="10.00" fill="#1a1a1a">geometry shapes</text>
</g>
<!-- attr_0 -->
<g id="node8" class="node">
<title>attr_0</title>
<path fill="#c7b8e6" stroke="#7f8c8d" stroke-width="1.2" d="M569.88,-361C569.88,-361 463.12,-361 463.12,-361 457.12,-361 451.12,-355 451.12,-349 451.12,-349 451.12,-337 451.12,-337 451.12,-331 457.12,-325 463.12,-325 463.12,-325 569.88,-325 569.88,-325 575.88,-325 581.88,-331 581.88,-337 581.88,-337 581.88,-349 581.88,-349 581.88,-355 575.88,-361 569.88,-361"/>
<text xml:space="preserve" text-anchor="middle" x="516.5" y="-339.5" font-family="Arial" font-size="10.00" fill="#1a1a1a">(+) varied geometric forms</text>
</g>
<!-- unknown.geometry_shapes&#45;&gt;attr_0 -->
<g id="edge2" class="edge">
<title>unknown.geometry_shapes&#45;&gt;attr_0</title>
<path fill="none" stroke="#aaaaaa" d="M406.1,-343C417.39,-343 429.8,-343 442.07,-343"/>
<polygon fill="#aaaaaa" stroke="#aaaaaa" points="442.02,-345.45 449.02,-343 442.02,-340.55 442.02,-345.45"/>
</g>
<!-- property.color -->
<g id="node3" class="node">
<title>property.color</title>
<path fill="#b8e6b8" stroke="#2c3e50" stroke-width="1.8" d="M61.75,-458C61.75,-458 12,-458 12,-458 6,-458 0,-452 0,-446 0,-446 0,-434 0,-434 0,-428 6,-422 12,-422 12,-422 61.75,-422 61.75,-422 67.75,-422 73.75,-428 73.75,-434 73.75,-434 73.75,-446 73.75,-446 73.75,-452 67.75,-458 61.75,-458"/>
<text xml:space="preserve" text-anchor="middle" x="36.88" y="-436.5" font-family="Arial" font-size="10.00" fill="#1a1a1a">color shading</text>
</g>
<!-- attr_1 -->
<g id="node9" class="node">
<title>attr_1</title>
<path fill="#c7b8e6" stroke="#7f8c8d" stroke-width="1.2" d="M250.5,-491C250.5,-491 137.75,-491 137.75,-491 131.75,-491 125.75,-485 125.75,-479 125.75,-479 125.75,-467 125.75,-467 125.75,-461 131.75,-455 137.75,-455 137.75,-455 250.5,-455 250.5,-455 256.5,-455 262.5,-461 262.5,-467 262.5,-467 262.5,-479 262.5,-479 262.5,-485 256.5,-491 250.5,-491"/>
<text xml:space="preserve" text-anchor="middle" x="194.12" y="-469.5" font-family="Arial" font-size="10.00" fill="#1a1a1a">(−) subtle shade differences</text>
</g>
<!-- property.color&#45;&gt;attr_1 -->
<g id="edge3" class="edge">
<title>property.color&#45;&gt;attr_1</title>
<path fill="none" stroke="#aaaaaa" d="M74.27,-447.74C87.13,-450.47 102.11,-453.65 117.02,-456.82"/>
<polygon fill="#aaaaaa" stroke="#aaaaaa" points="116.44,-459.2 123.79,-458.26 117.46,-454.41 116.44,-459.2"/>
</g>
<!-- rel_1 -->
<g id="node14" class="node">
<title>rel_1</title>
<path fill="#f5b8b8" stroke="#d46a6a" stroke-width="1.2" d="M246.38,-426C246.38,-426 141.88,-426 141.88,-426 135.88,-426 129.88,-420 129.88,-414 129.88,-414 129.88,-402 129.88,-402 129.88,-396 135.88,-390 141.88,-390 141.88,-390 246.38,-390 246.38,-390 252.38,-390 258.38,-396 258.38,-402 258.38,-402 258.38,-414 258.38,-414 258.38,-420 252.38,-426 246.38,-426"/>
<text xml:space="preserve" text-anchor="middle" x="194.12" y="-404.5" font-family="Arial" font-size="10.00" fill="#8b0000">insufficiently differentiates</text>
</g>
<!-- property.color&#45;&gt;rel_1 -->
<g id="edge9" class="edge">
<title>property.color&#45;&gt;rel_1</title>
<path fill="none" stroke="#d46a6a" stroke-width="1.5" d="M74.27,-432.5C87.86,-429.7 103.81,-426.41 119.54,-423.17"/>
<polygon fill="#d46a6a" stroke="#d46a6a" stroke-width="1.5" points="119.79,-425.97 127.06,-421.62 118.66,-420.49 119.79,-425.97"/>
</g>
<!-- unknown.ordering -->
<g id="node4" class="node">
<title>unknown.ordering</title>
<path fill="#b8e6b8" stroke="#2c3e50" stroke-width="1.8" d="M51.88,-198C51.88,-198 21.88,-198 21.88,-198 15.88,-198 9.88,-192 9.88,-186 9.88,-186 9.88,-174 9.88,-174 9.88,-168 15.88,-162 21.88,-162 21.88,-162 51.88,-162 51.88,-162 57.88,-162 63.88,-168 63.88,-174 63.88,-174 63.88,-186 63.88,-186 63.88,-192 57.88,-198 51.88,-198"/>
<text xml:space="preserve" text-anchor="middle" x="36.88" y="-176.5" font-family="Arial" font-size="10.00" fill="#1a1a1a">ordering</text>
</g>
<!-- attr_2 -->
<g id="node10" class="node">
<title>attr_2</title>
<path fill="#c7b8e6" stroke="#7f8c8d" stroke-width="1.2" d="M259.5,-231C259.5,-231 128.75,-231 128.75,-231 122.75,-231 116.75,-225 116.75,-219 116.75,-219 116.75,-207 116.75,-207 116.75,-201 122.75,-195 128.75,-195 128.75,-195 259.5,-195 259.5,-195 265.5,-195 271.5,-201 271.5,-207 271.5,-207 271.5,-219 271.5,-219 271.5,-225 265.5,-231 259.5,-231"/>
<text xml:space="preserve" text-anchor="middle" x="194.12" y="-209.5" font-family="Arial" font-size="10.00" fill="#1a1a1a">(−) alphabetically ordered layout</text>
</g>
<!-- unknown.ordering&#45;&gt;attr_2 -->
<g id="edge4" class="edge">
<title>unknown.ordering&#45;&gt;attr_2</title>
<path fill="none" stroke="#aaaaaa" d="M64.56,-185.67C76.89,-188.29 92.29,-191.57 108.1,-194.93"/>
<polygon fill="#aaaaaa" stroke="#aaaaaa" points="107.56,-197.32 114.91,-196.38 108.58,-192.52 107.56,-197.32"/>
</g>
<!-- rel_0 -->
<g id="node13" class="node">
<title>rel_0</title>
<path fill="#f5b8b8" stroke="#d46a6a" stroke-width="1.2" d="M245.62,-166C245.62,-166 142.62,-166 142.62,-166 136.62,-166 130.62,-160 130.62,-154 130.62,-154 130.62,-142 130.62,-142 130.62,-136 136.62,-130 142.62,-130 142.62,-130 245.62,-130 245.62,-130 251.62,-130 257.62,-136 257.62,-142 257.62,-142 257.62,-154 257.62,-154 257.62,-160 251.62,-166 245.62,-166"/>
<text xml:space="preserve" text-anchor="middle" x="194.12" y="-144.5" font-family="Arial" font-size="10.00" fill="#8b0000">reduces visual disorder in</text>
</g>
<!-- unknown.ordering&#45;&gt;rel_0 -->
<g id="edge7" class="edge">
<title>unknown.ordering&#45;&gt;rel_0</title>
<path fill="none" stroke="#d46a6a" stroke-width="1.5" d="M64.56,-174.5C79.99,-171.32 100.22,-167.15 120.06,-163.06"/>
<polygon fill="#d46a6a" stroke="#d46a6a" stroke-width="1.5" points="120.56,-165.82 127.83,-161.46 119.42,-160.33 120.56,-165.82"/>
</g>
<!-- furniture.legend -->
<g id="node5" class="node">
<title>furniture.legend</title>
<path fill="#b8e6b8" stroke="#2c3e50" stroke-width="1.8" d="M51.88,-68C51.88,-68 21.88,-68 21.88,-68 15.88,-68 9.88,-62 9.88,-56 9.88,-56 9.88,-44 9.88,-44 9.88,-38 15.88,-32 21.88,-32 21.88,-32 51.88,-32 51.88,-32 57.88,-32 63.88,-38 63.88,-44 63.88,-44 63.88,-56 63.88,-56 63.88,-62 57.88,-68 51.88,-68"/>
<text xml:space="preserve" text-anchor="middle" x="36.88" y="-46.5" font-family="Arial" font-size="10.00" fill="#1a1a1a">legend</text>
</g>
<!-- attr_3 -->
<g id="node11" class="node">
<title>attr_3</title>
<path fill="#c7b8e6" stroke="#7f8c8d" stroke-width="1.2" d="M242.62,-101C242.62,-101 145.62,-101 145.62,-101 139.62,-101 133.62,-95 133.62,-89 133.62,-89 133.62,-77 133.62,-77 133.62,-71 139.62,-65 145.62,-65 145.62,-65 242.62,-65 242.62,-65 248.62,-65 254.62,-71 254.62,-77 254.62,-77 254.62,-89 254.62,-89 254.62,-95 248.62,-101 242.62,-101"/>
<text xml:space="preserve" text-anchor="middle" x="194.12" y="-79.5" font-family="Arial" font-size="10.00" fill="#1a1a1a">(+) absent or insufficient</text>
</g>
<!-- furniture.legend&#45;&gt;attr_3 -->
<g id="edge5" class="edge">
<title>furniture.legend&#45;&gt;attr_3</title>
<path fill="none" stroke="#aaaaaa" d="M64.56,-55.67C81.32,-59.24 103.75,-64 125.18,-68.56"/>
<polygon fill="#aaaaaa" stroke="#aaaaaa" points="124.5,-70.92 131.85,-69.98 125.51,-66.12 124.5,-70.92"/>
</g>
<!-- rel_2 -->
<g id="node15" class="node">
<title>rel_2</title>
<path fill="#f5b8b8" stroke="#d46a6a" stroke-width="1.2" d="M219.38,-36C219.38,-36 168.88,-36 168.88,-36 162.88,-36 156.88,-30 156.88,-24 156.88,-24 156.88,-12 156.88,-12 156.88,-6 162.88,0 168.88,0 168.88,0 219.38,0 219.38,0 225.38,0 231.38,-6 231.38,-12 231.38,-12 231.38,-24 231.38,-24 231.38,-30 225.38,-36 219.38,-36"/>
<text xml:space="preserve" text-anchor="middle" x="194.12" y="-14.5" font-family="Arial" font-size="10.00" fill="#8b0000">fails to clarify</text>
</g>
<!-- furniture.legend&#45;&gt;rel_2 -->
<g id="edge11" class="edge">
<title>furniture.legend&#45;&gt;rel_2</title>
<path fill="none" stroke="#d46a6a" stroke-width="1.5" d="M64.56,-44.5C87.01,-39.87 119.63,-33.15 146.4,-27.63"/>
<polygon fill="#d46a6a" stroke="#d46a6a" stroke-width="1.5" points="146.84,-30.4 154.11,-26.04 145.71,-24.91 146.84,-30.4"/>
</g>
<!-- text.title -->
<g id="node6" class="node">
<title>text.title</title>
<path fill="#b8e6b8" stroke="#2c3e50" stroke-width="1.8" d="M51.88,-329C51.88,-329 21.88,-329 21.88,-329 15.88,-329 9.88,-323 9.88,-317 9.88,-317 9.88,-305 9.88,-305 9.88,-299 15.88,-293 21.88,-293 21.88,-293 51.88,-293 51.88,-293 57.88,-293 63.88,-299 63.88,-305 63.88,-305 63.88,-317 63.88,-317 63.88,-323 57.88,-329 51.88,-329"/>
<text xml:space="preserve" text-anchor="middle" x="36.88" y="-307.5" font-family="Arial" font-size="10.00" fill="#1a1a1a">title</text>
</g>
<!-- attr_4 -->
<g id="node12" class="node">
<title>attr_4</title>
<path fill="#c7b8e6" stroke="#7f8c8d" stroke-width="1.2" d="M257.62,-361C257.62,-361 130.62,-361 130.62,-361 124.62,-361 118.62,-355 118.62,-349 118.62,-349 118.62,-337 118.62,-337 118.62,-331 124.62,-325 130.62,-325 130.62,-325 257.62,-325 257.62,-325 263.62,-325 269.62,-331 269.62,-337 269.62,-337 269.62,-349 269.62,-349 269.62,-355 263.62,-361 257.62,-361"/>
<text xml:space="preserve" text-anchor="middle" x="194.12" y="-339.5" font-family="Arial" font-size="10.00" fill="#1a1a1a">(+) missing context information</text>
</g>
<!-- text.title&#45;&gt;attr_4 -->
<g id="edge6" class="edge">
<title>text.title&#45;&gt;attr_4</title>
<path fill="none" stroke="#aaaaaa" d="M64.56,-316.5C77.38,-319.14 93.51,-322.47 109.97,-325.86"/>
<polygon fill="#aaaaaa" stroke="#aaaaaa" points="109.24,-328.21 116.59,-327.22 110.23,-323.41 109.24,-328.21"/>
</g>
<!-- rel_3 -->
<g id="node16" class="node">
<title>rel_3</title>
<path fill="#f5b8b8" stroke="#d46a6a" stroke-width="1.2" d="M226.5,-296C226.5,-296 161.75,-296 161.75,-296 155.75,-296 149.75,-290 149.75,-284 149.75,-284 149.75,-272 149.75,-272 149.75,-266 155.75,-260 161.75,-260 161.75,-260 226.5,-260 226.5,-260 232.5,-260 238.5,-266 238.5,-272 238.5,-272 238.5,-284 238.5,-284 238.5,-290 232.5,-296 226.5,-296"/>
<text xml:space="preserve" text-anchor="middle" x="194.12" y="-274.5" font-family="Arial" font-size="10.00" fill="#8b0000">lacks context for</text>
</g>
<!-- text.title&#45;&gt;rel_3 -->
<g id="edge13" class="edge">
<title>text.title&#45;&gt;rel_3</title>
<path fill="none" stroke="#d46a6a" stroke-width="1.5" d="M64.56,-305.33C85.08,-300.97 114.08,-294.8 139.35,-289.43"/>
<polygon fill="#d46a6a" stroke="#d46a6a" stroke-width="1.5" points="139.73,-292.21 146.97,-287.81 138.56,-286.74 139.73,-292.21"/>
</g>
<!-- rel_0&#45;&gt;unknown.glyph_set -->
<g id="edge8" class="edge">
<title>rel_0&#45;&gt;unknown.glyph_set</title>
<path fill="none" stroke="#d46a6a" stroke-width="1.5" d="M241.65,-129.55C267.1,-119.45 298.19,-107.12 321.98,-97.69"/>
<polygon fill="#d46a6a" stroke="#d46a6a" stroke-width="1.5" points="322.84,-100.35 329.25,-94.8 320.78,-95.15 322.84,-100.35"/>
</g>
<!-- rel_1&#45;&gt;unknown.geometry_shapes -->
<g id="edge10" class="edge">
<title>rel_1&#45;&gt;unknown.geometry_shapes</title>
<path fill="none" stroke="#d46a6a" stroke-width="1.5" d="M241.65,-389.55C261.17,-381.8 284.02,-372.74 304.34,-364.68"/>
<polygon fill="#d46a6a" stroke="#d46a6a" stroke-width="1.5" points="305.26,-367.33 311.67,-361.77 303.2,-362.12 305.26,-367.33"/>
</g>
<!-- rel_2&#45;&gt;unknown.glyph_set -->
<g id="edge12" class="edge">
<title>rel_2&#45;&gt;unknown.glyph_set</title>
<path fill="none" stroke="#d46a6a" stroke-width="1.5" d="M231.9,-32.59C258.71,-43.22 294.9,-57.58 321.81,-68.25"/>
<polygon fill="#d46a6a" stroke="#d46a6a" stroke-width="1.5" points="320.69,-70.82 329.16,-71.16 322.75,-65.61 320.69,-70.82"/>
</g>
<!-- rel_3&#45;&gt;unknown.geometry_shapes -->
<g id="edge14" class="edge">
<title>rel_3&#45;&gt;unknown.geometry_shapes</title>
<path fill="none" stroke="#d46a6a" stroke-width="1.5" d="M239.04,-295.42C259.1,-303.38 283.07,-312.88 304.29,-321.3"/>
<polygon fill="#d46a6a" stroke="#d46a6a" stroke-width="1.5" points="303.24,-323.9 311.71,-324.24 305.31,-318.69 303.24,-323.9"/>
</g>
</g>
</svg>
