<?xml version="1.0" encoding="UTF-8" standalone="no"?>
<!DOCTYPE svg PUBLIC "-//W3C//DTD SVG 1.1//EN"
 "http://www.w3.org/Graphics/SVG/1.1/DTD/svg11.dtd">
<!-- Generated by graphviz version 14.1.5 (20260411.2331)
 -->
<!-- Title: InfoVisC.65.3.png Pages: 1 -->
<svg width="809pt" height="440pt"
 viewBox="0.00 0.00 809.00 440.00" xmlns="http://www.w3.org/2000/svg" xmlns:xlink="http://www.w3.org/1999/xlink">
<g id="graph0" class="graph" transform="scale(1 1) rotate(0) translate(4 436.25)">
<title>InfoVisC.65.3.png</title>
<polygon fill="white" stroke="none" points="-4,4 -4,-436.25 804.75,-436.25 804.75,4 -4,4"/>
<text xml:space="preserve" text-anchor="start" x="343.75" y="-411.95" font-family="Arial" font-weight="bold" font-size="14.00">InfoVisC.65.3.png</text>
<text xml:space="preserve" text-anchor="start" x="345.25" y="-392" font-family="Arial" font-size="11.00">Node&#45;link &#160;| &#160;VC = 0.40</text>
<path fill="#b8e6b8" stroke="none" d="M191,-367C191,-367 199,-367 199,-367 202,-367 205,-370 205,-373 205,-373 205,-379 205,-379 205,-382 202,-385 199,-385 199,-385 191,-385 191,-385 188,-385 185,-382 185,-379 185,-379 185,-373 185,-373 185,-370 188,-367 191,-367"/>
<path fill="none" stroke="black" d="M191,-367C191,-367 199,-367 199,-367 202,-367 205,-370 205,-373 205,-373 205,-379 205,-379 205,-382 202,-385 199,-385 199,-385 191,-385 191,-385 188,-385 185,-382 185,-379 185,-379 185,-373 185,-373 185,-370 188,-367 191,-367"/>
<text xml:space="preserve" text-anchor="start" x="193.5" y="-372.25" font-family="Arial" font-size="10.00"> </text>
<text xml:space="preserve" text-anchor="start" x="209" y="-372.25" font-family="Arial" font-size="10.00">Object</text>
<path fill="#c7b8e6" stroke="none" d="M247.5,-367C247.5,-367 255.5,-367 255.5,-367 258.5,-367 261.5,-370 261.5,-373 261.5,-373 261.5,-379 261.5,-379 261.5,-382 258.5,-385 255.5,-385 255.5,-385 247.5,-385 247.5,-385 244.5,-385 241.5,-382 241.5,-379 241.5,-379 241.5,-373 241.5,-373 241.5,-370 244.5,-367 247.5,-367"/>
<path fill="none" stroke="black" d="M247.5,-367C247.5,-367 255.5,-367 255.5,-367 258.5,-367 261.5,-370 261.5,-373 261.5,-373 261.5,-379 261.5,-379 261.5,-382 258.5,-385 255.5,-385 255.5,-385 247.5,-385 247.5,-385 244.5,-385 241.5,-382 241.5,-379 241.5,-379 241.5,-373 241.5,-373 241.5,-370 244.5,-367 247.5,-367"/>
<text xml:space="preserve" text-anchor="start" x="250" y="-372.25" font-family="Arial" font-size="10.00"> </text>
<text xml:space="preserve" text-anchor="start" x="265.5" y="-372.25" font-family="Arial" font-size="10.00">Attribute</text>
<path fill="#f5b8b8" stroke="none" d="M312.25,-367C312.25,-367 320.25,-367 320.25,-367 323.25,-367 326.25,-370 326.25,-373 326.25,-373 326.25,-379 326.25,-379 326.25,-382 323.25,-385 320.25,-385 320.25,-385 312.25,-385 312.25,-385 309.25,-385 306.25,-382 306.25,-379 306.25,-379 306.25,-373 306.25,-373 306.25,-370 309.25,-367 312.25,-367"/>
<path fill="none" stroke="black" d="M312.25,-367C312.25,-367 320.25,-367 320.25,-367 323.25,-367 326.25,-370 326.25,-373 326.25,-373 326.25,-379 326.25,-379 326.25,-382 323.25,-385 320.25,-385 320.25,-385 312.25,-385 312.25,-385 309.25,-385 306.25,-382 306.25,-379 306.25,-379 306.25,-373 306.25,-373 306.25,-370 309.25,-367 312.25,-367"/>
<text xml:space="preserve" text-anchor="start" x="314.75" y="-372.25" font-family="Arial" font-size="10.00"> </text>
<text xml:space="preserve" text-anchor="start" x="330.25" y="-372.25" font-family="Arial" font-size="10.00">Relationship</text>
<text xml:space="preserve" text-anchor="start" x="390.25" y="-373.5" font-family="Arial" font-weight="bold" font-size="10.00">(+)</text>
<text xml:space="preserve" text-anchor="start" x="402.25" y="-373.5" font-family="Arial" font-size="10.00"> increases complexity</text>
<text xml:space="preserve" text-anchor="start" x="503.5" y="-373.5" font-family="Arial" font-weight="bold" font-size="10.00">(−)</text>
<text xml:space="preserve" text-anchor="start" x="515.5" y="-373.5" font-family="Arial" font-size="10.00"> decreases complexity</text>
<!-- unknown.node_link_graph -->
<g id="node1" class="node">
<title>unknown.node_link_graph</title>
<path fill="#b8e6b8" stroke="#2c3e50" stroke-width="1.8" d="M634.5,-166C634.5,-166 576.5,-166 576.5,-166 570.5,-166 564.5,-160 564.5,-154 564.5,-154 564.5,-142 564.5,-142 564.5,-136 570.5,-130 576.5,-130 576.5,-130 634.5,-130 634.5,-130 640.5,-130 646.5,-136 646.5,-142 646.5,-142 646.5,-154 646.5,-154 646.5,-160 640.5,-166 634.5,-166"/>
<text xml:space="preserve" text-anchor="middle" x="605.5" y="-144.5" font-family="Arial" font-size="10.00" fill="#1a1a1a">node link graph</text>
</g>
<!-- attr_4 -->
<g id="node7" class="node">
<title>attr_4</title>
<path fill="#c7b8e6" stroke="#7f8c8d" stroke-width="1.2" d="M788.75,-166C788.75,-166 701.5,-166 701.5,-166 695.5,-166 689.5,-160 689.5,-154 689.5,-154 689.5,-142 689.5,-142 689.5,-136 695.5,-130 701.5,-130 701.5,-130 788.75,-130 788.75,-130 794.75,-130 800.75,-136 800.75,-142 800.75,-142 800.75,-154 800.75,-154 800.75,-160 794.75,-166 788.75,-166"/>
<text xml:space="preserve" text-anchor="middle" x="745.12" y="-144.5" font-family="Arial" font-size="10.00" fill="#1a1a1a">(+) difficult to interpret</text>
</g>
<!-- unknown.node_link_graph&#45;&gt;attr_4 -->
<g id="edge1" class="edge">
<title>unknown.node_link_graph&#45;&gt;attr_4</title>
<path fill="none" stroke="#aaaaaa" d="M647.05,-148C657.64,-148 669.31,-148 680.78,-148"/>
<polygon fill="#aaaaaa" stroke="#aaaaaa" points="680.56,-150.45 687.56,-148 680.56,-145.55 680.56,-150.45"/>
</g>
<!-- unknown.lines -->
<g id="node2" class="node">
<title>unknown.lines</title>
<path fill="#b8e6b8" stroke="#2c3e50" stroke-width="1.8" d="M327.75,-328C327.75,-328 297.75,-328 297.75,-328 291.75,-328 285.75,-322 285.75,-316 285.75,-316 285.75,-304 285.75,-304 285.75,-298 291.75,-292 297.75,-292 297.75,-292 327.75,-292 327.75,-292 333.75,-292 339.75,-298 339.75,-304 339.75,-304 339.75,-316 339.75,-316 339.75,-322 333.75,-328 327.75,-328"/>
<text xml:space="preserve" text-anchor="middle" x="312.75" y="-306.5" font-family="Arial" font-size="10.00" fill="#1a1a1a">lines</text>
</g>
<!-- attr_0 -->
<g id="node8" class="node">
<title>attr_0</title>
<path fill="#c7b8e6" stroke="#7f8c8d" stroke-width="1.2" d="M507.25,-361C507.25,-361 400.5,-361 400.5,-361 394.5,-361 388.5,-355 388.5,-349 388.5,-349 388.5,-337 388.5,-337 388.5,-331 394.5,-325 400.5,-325 400.5,-325 507.25,-325 507.25,-325 513.25,-325 519.25,-331 519.25,-337 519.25,-337 519.25,-349 519.25,-349 519.25,-355 513.25,-361 507.25,-361"/>
<text xml:space="preserve" text-anchor="middle" x="453.88" y="-339.5" font-family="Arial" font-size="10.00" fill="#1a1a1a">(+) unintuitive connections</text>
</g>
<!-- unknown.lines&#45;&gt;attr_0 -->
<g id="edge2" class="edge">
<title>unknown.lines&#45;&gt;attr_0</title>
<path fill="none" stroke="#aaaaaa" d="M340.57,-316.36C351.93,-319.06 365.76,-322.34 379.79,-325.66"/>
<polygon fill="#aaaaaa" stroke="#aaaaaa" points="379.2,-328.04 386.57,-327.27 380.33,-323.27 379.2,-328.04"/>
</g>
<!-- rel_0 -->
<g id="node13" class="node">
<title>rel_0</title>
<path fill="#f5b8b8" stroke="#d46a6a" stroke-width="1.2" d="M493.38,-296C493.38,-296 414.38,-296 414.38,-296 408.38,-296 402.38,-290 402.38,-284 402.38,-284 402.38,-272 402.38,-272 402.38,-266 408.38,-260 414.38,-260 414.38,-260 493.38,-260 493.38,-260 499.38,-260 505.38,-266 505.38,-272 505.38,-272 505.38,-284 505.38,-284 505.38,-290 499.38,-296 493.38,-296"/>
<text xml:space="preserve" text-anchor="middle" x="453.88" y="-274.5" font-family="Arial" font-size="10.00" fill="#8b0000">lacks interpretability</text>
</g>
<!-- unknown.lines&#45;&gt;rel_0 -->
<g id="edge7" class="edge">
<title>unknown.lines&#45;&gt;rel_0</title>
<path fill="none" stroke="#d46a6a" stroke-width="1.5" d="M340.57,-303.83C355.23,-300.46 374.02,-296.14 392.02,-292"/>
<polygon fill="#d46a6a" stroke="#d46a6a" stroke-width="1.5" points="392.53,-294.75 399.7,-290.23 391.27,-289.3 392.53,-294.75"/>
</g>
<!-- unknown.numbers -->
<g id="node3" class="node">
<title>unknown.numbers</title>
<path fill="#b8e6b8" stroke="#2c3e50" stroke-width="1.8" d="M327.75,-69C327.75,-69 297.75,-69 297.75,-69 291.75,-69 285.75,-63 285.75,-57 285.75,-57 285.75,-45 285.75,-45 285.75,-39 291.75,-33 297.75,-33 297.75,-33 327.75,-33 327.75,-33 333.75,-33 339.75,-39 339.75,-45 339.75,-45 339.75,-57 339.75,-57 339.75,-63 333.75,-69 327.75,-69"/>
<text xml:space="preserve" text-anchor="middle" x="312.75" y="-47.5" font-family="Arial" font-size="10.00" fill="#1a1a1a">numbers</text>
</g>
<!-- attr_1 -->
<g id="node9" class="node">
<title>attr_1</title>
<path fill="#c7b8e6" stroke="#7f8c8d" stroke-width="1.2" d="M500.88,-101C500.88,-101 406.88,-101 406.88,-101 400.88,-101 394.88,-95 394.88,-89 394.88,-89 394.88,-77 394.88,-77 394.88,-71 400.88,-65 406.88,-65 406.88,-65 500.88,-65 500.88,-65 506.88,-65 512.88,-71 512.88,-77 512.88,-77 512.88,-89 512.88,-89 512.88,-95 506.88,-101 500.88,-101"/>
<text xml:space="preserve" text-anchor="middle" x="453.88" y="-79.5" font-family="Arial" font-size="10.00" fill="#1a1a1a">(+) lacks clear meaning</text>
</g>
<!-- unknown.numbers&#45;&gt;attr_1 -->
<g id="edge3" class="edge">
<title>unknown.numbers&#45;&gt;attr_1</title>
<path fill="none" stroke="#aaaaaa" d="M340.57,-57.17C353.74,-60.2 370.24,-63.99 386.5,-67.73"/>
<polygon fill="#aaaaaa" stroke="#aaaaaa" points="385.61,-70.04 392.98,-69.22 386.71,-65.27 385.61,-70.04"/>
</g>
<!-- rel_3 -->
<g id="node16" class="node">
<title>rel_3</title>
<path fill="#f5b8b8" stroke="#d46a6a" stroke-width="1.2" d="M509.5,-36C509.5,-36 398.25,-36 398.25,-36 392.25,-36 386.25,-30 386.25,-24 386.25,-24 386.25,-12 386.25,-12 386.25,-6 392.25,0 398.25,0 398.25,0 509.5,0 509.5,0 515.5,0 521.5,-6 521.5,-12 521.5,-12 521.5,-24 521.5,-24 521.5,-30 515.5,-36 509.5,-36"/>
<text xml:space="preserve" text-anchor="middle" x="453.88" y="-14.5" font-family="Arial" font-size="10.00" fill="#8b0000">increases cognitive effort in</text>
</g>
<!-- unknown.numbers&#45;&gt;rel_3 -->
<g id="edge13" class="edge">
<title>unknown.numbers&#45;&gt;rel_3</title>
<path fill="none" stroke="#d46a6a" stroke-width="1.5" d="M340.57,-44.64C350.89,-42.19 363.26,-39.26 375.96,-36.24"/>
<polygon fill="#d46a6a" stroke="#d46a6a" stroke-width="1.5" points="376.36,-39.03 383.5,-34.46 375.07,-33.58 376.36,-39.03"/>
</g>
<!-- furniture.legend -->
<g id="node4" class="node">
<title>furniture.legend</title>
<path fill="#b8e6b8" stroke="#2c3e50" stroke-width="1.8" d="M50.75,-101C50.75,-101 20.75,-101 20.75,-101 14.75,-101 8.75,-95 8.75,-89 8.75,-89 8.75,-77 8.75,-77 8.75,-71 14.75,-65 20.75,-65 20.75,-65 50.75,-65 50.75,-65 56.75,-65 62.75,-71 62.75,-77 62.75,-77 62.75,-89 62.75,-89 62.75,-95 56.75,-101 50.75,-101"/>
<text xml:space="preserve" text-anchor="middle" x="35.75" y="-79.5" font-family="Arial" font-size="10.00" fill="#1a1a1a">legend</text>
</g>
<!-- attr_2 -->
<g id="node10" class="node">
<title>attr_2</title>
<path fill="#c7b8e6" stroke="#7f8c8d" stroke-width="1.2" d="M225.38,-134C225.38,-134 128.38,-134 128.38,-134 122.38,-134 116.38,-128 116.38,-122 116.38,-122 116.38,-110 116.38,-110 116.38,-104 122.38,-98 128.38,-98 128.38,-98 225.38,-98 225.38,-98 231.38,-98 237.38,-104 237.38,-110 237.38,-110 237.38,-122 237.38,-122 237.38,-128 231.38,-134 225.38,-134"/>
<text xml:space="preserve" text-anchor="middle" x="176.88" y="-112.5" font-family="Arial" font-size="10.00" fill="#1a1a1a">(+) absent or insufficient</text>
</g>
<!-- furniture.legend&#45;&gt;attr_2 -->
<g id="edge4" class="edge">
<title>furniture.legend&#45;&gt;attr_2</title>
<path fill="none" stroke="#aaaaaa" d="M63.57,-89.36C76.28,-92.38 92.1,-96.13 107.81,-99.86"/>
<polygon fill="#aaaaaa" stroke="#aaaaaa" points="107.15,-102.22 114.53,-101.45 108.28,-97.45 107.15,-102.22"/>
</g>
<!-- rel_1 -->
<g id="node14" class="node">
<title>rel_1</title>
<path fill="#f5b8b8" stroke="#d46a6a" stroke-width="1.2" d="M202.12,-69C202.12,-69 151.62,-69 151.62,-69 145.62,-69 139.62,-63 139.62,-57 139.62,-57 139.62,-45 139.62,-45 139.62,-39 145.62,-33 151.62,-33 151.62,-33 202.12,-33 202.12,-33 208.12,-33 214.12,-39 214.12,-45 214.12,-45 214.12,-57 214.12,-57 214.12,-63 208.12,-69 202.12,-69"/>
<text xml:space="preserve" text-anchor="middle" x="176.88" y="-47.5" font-family="Arial" font-size="10.00" fill="#8b0000">fails to clarify</text>
</g>
<!-- furniture.legend&#45;&gt;rel_1 -->
<g id="edge9" class="edge">
<title>furniture.legend&#45;&gt;rel_1</title>
<path fill="none" stroke="#d46a6a" stroke-width="1.5" d="M63.57,-76.83C82.2,-72.55 107.5,-66.73 129.37,-61.7"/>
<polygon fill="#d46a6a" stroke="#d46a6a" stroke-width="1.5" points="129.76,-64.48 136.93,-59.96 128.5,-59.02 129.76,-64.48"/>
</g>
<!-- text.annotation -->
<g id="node5" class="node">
<title>text.annotation</title>
<path fill="#b8e6b8" stroke="#2c3e50" stroke-width="1.8" d="M331.25,-199C331.25,-199 294.25,-199 294.25,-199 288.25,-199 282.25,-193 282.25,-187 282.25,-187 282.25,-175 282.25,-175 282.25,-169 288.25,-163 294.25,-163 294.25,-163 331.25,-163 331.25,-163 337.25,-163 343.25,-169 343.25,-175 343.25,-175 343.25,-187 343.25,-187 343.25,-193 337.25,-199 331.25,-199"/>
<text xml:space="preserve" text-anchor="middle" x="312.75" y="-177.5" font-family="Arial" font-size="10.00" fill="#1a1a1a">annotation</text>
</g>
<!-- attr_3 -->
<g id="node11" class="node">
<title>attr_3</title>
<path fill="#c7b8e6" stroke="#7f8c8d" stroke-width="1.2" d="M491.88,-231C491.88,-231 415.88,-231 415.88,-231 409.88,-231 403.88,-225 403.88,-219 403.88,-219 403.88,-207 403.88,-207 403.88,-201 409.88,-195 415.88,-195 415.88,-195 491.88,-195 491.88,-195 497.88,-195 503.88,-201 503.88,-207 503.88,-207 503.88,-219 503.88,-219 503.88,-225 497.88,-231 491.88,-231"/>
<text xml:space="preserve" text-anchor="middle" x="453.88" y="-209.5" font-family="Arial" font-size="10.00" fill="#1a1a1a">(+) missing context</text>
</g>
<!-- text.annotation&#45;&gt;attr_3 -->
<g id="edge5" class="edge">
<title>text.annotation&#45;&gt;attr_3</title>
<path fill="none" stroke="#aaaaaa" d="M343.94,-187.94C358.98,-191.4 377.68,-195.7 395.31,-199.76"/>
<polygon fill="#aaaaaa" stroke="#aaaaaa" points="394.48,-202.08 401.85,-201.26 395.58,-197.31 394.48,-202.08"/>
</g>
<!-- rel_2 -->
<g id="node15" class="node">
<title>rel_2</title>
<path fill="#f5b8b8" stroke="#d46a6a" stroke-width="1.2" d="M478,-166C478,-166 429.75,-166 429.75,-166 423.75,-166 417.75,-160 417.75,-154 417.75,-154 417.75,-142 417.75,-142 417.75,-136 423.75,-130 429.75,-130 429.75,-130 478,-130 478,-130 484,-130 490,-136 490,-142 490,-142 490,-154 490,-154 490,-160 484,-166 478,-166"/>
<text xml:space="preserve" text-anchor="middle" x="453.88" y="-144.5" font-family="Arial" font-size="10.00" fill="#8b0000">missing from</text>
</g>
<!-- text.annotation&#45;&gt;rel_2 -->
<g id="edge11" class="edge">
<title>text.annotation&#45;&gt;rel_2</title>
<path fill="none" stroke="#d46a6a" stroke-width="1.5" d="M343.94,-173.84C362.48,-169.44 386.59,-163.72 407.41,-158.78"/>
<polygon fill="#d46a6a" stroke="#d46a6a" stroke-width="1.5" points="407.99,-161.53 415.12,-156.95 406.69,-156.08 407.99,-161.53"/>
</g>
<!-- unknown.context_label -->
<g id="node6" class="node">
<title>unknown.context_label</title>
<path fill="#b8e6b8" stroke="#2c3e50" stroke-width="1.8" d="M59.5,-199C59.5,-199 12,-199 12,-199 6,-199 0,-193 0,-187 0,-187 0,-175 0,-175 0,-169 6,-163 12,-163 12,-163 59.5,-163 59.5,-163 65.5,-163 71.5,-169 71.5,-175 71.5,-175 71.5,-187 71.5,-187 71.5,-193 65.5,-199 59.5,-199"/>
<text xml:space="preserve" text-anchor="middle" x="35.75" y="-177.5" font-family="Arial" font-size="10.00" fill="#1a1a1a">context label</text>
</g>
<!-- attr_5 -->
<g id="node12" class="node">
<title>attr_5</title>
<path fill="#c7b8e6" stroke="#7f8c8d" stroke-width="1.2" d="M227.25,-199C227.25,-199 126.5,-199 126.5,-199 120.5,-199 114.5,-193 114.5,-187 114.5,-187 114.5,-175 114.5,-175 114.5,-169 120.5,-163 126.5,-163 126.5,-163 227.25,-163 227.25,-163 233.25,-163 239.25,-169 239.25,-175 239.25,-175 239.25,-187 239.25,-187 239.25,-193 233.25,-199 227.25,-199"/>
<text xml:space="preserve" text-anchor="middle" x="176.88" y="-177.5" font-family="Arial" font-size="10.00" fill="#1a1a1a">(+) no reference provided</text>
</g>
<!-- unknown.context_label&#45;&gt;attr_5 -->
<g id="edge6" class="edge">
<title>unknown.context_label&#45;&gt;attr_5</title>
<path fill="none" stroke="#aaaaaa" d="M72.22,-181C82.45,-181 94,-181 105.57,-181"/>
<polygon fill="#aaaaaa" stroke="#aaaaaa" points="105.47,-183.45 112.47,-181 105.47,-178.55 105.47,-183.45"/>
</g>
<!-- rel_0&#45;&gt;unknown.node_link_graph -->
<g id="edge8" class="edge">
<title>rel_0&#45;&gt;unknown.node_link_graph</title>
<path fill="none" stroke="#d46a6a" stroke-width="1.5" d="M500.12,-259.47C507.59,-255.53 515,-251.02 521.5,-246 547.55,-225.87 571.16,-196.36 586.48,-174.98"/>
<polygon fill="#d46a6a" stroke="#d46a6a" stroke-width="1.5" points="588.72,-176.67 591.02,-168.52 584.13,-173.46 588.72,-176.67"/>
</g>
<!-- rel_1&#45;&gt;unknown.numbers -->
<g id="edge10" class="edge">
<title>rel_1&#45;&gt;unknown.numbers</title>
<path fill="none" stroke="#d46a6a" stroke-width="1.5" d="M214.46,-51C233.18,-51 255.93,-51 274.72,-51"/>
<polygon fill="#d46a6a" stroke="#d46a6a" stroke-width="1.5" points="274.71,-53.8 282.71,-51 274.71,-48.2 274.71,-53.8"/>
</g>
<!-- rel_2&#45;&gt;unknown.node_link_graph -->
<g id="edge12" class="edge">
<title>rel_2&#45;&gt;unknown.node_link_graph</title>
<path fill="none" stroke="#d46a6a" stroke-width="1.5" d="M490.33,-148C509.19,-148 532.7,-148 553.48,-148"/>
<polygon fill="#d46a6a" stroke="#d46a6a" stroke-width="1.5" points="553.47,-150.8 561.47,-148 553.47,-145.2 553.47,-150.8"/>
</g>
<!-- rel_3&#45;&gt;unknown.node_link_graph -->
<g id="edge14" class="edge">
<title>rel_3&#45;&gt;unknown.node_link_graph</title>
<path fill="none" stroke="#d46a6a" stroke-width="1.5" d="M500.12,-36.53C507.59,-40.47 515,-44.98 521.5,-50 547.55,-70.13 571.16,-99.64 586.48,-121.02"/>
<polygon fill="#d46a6a" stroke="#d46a6a" stroke-width="1.5" points="584.13,-122.54 591.02,-127.48 588.72,-119.33 584.13,-122.54"/>
</g>
</g>
</svg>
