<?xml version="1.0" encoding="UTF-8" standalone="no"?>
<!DOCTYPE svg PUBLIC "-//W3C//DTD SVG 1.1//EN"
 "http://www.w3.org/Graphics/SVG/1.1/DTD/svg11.dtd">
<!-- Generated by graphviz version 14.1.5 (20260411.2331)
 -->
<!-- Title: InfoVisC.133.5(3).png Pages: 1 -->
<svg width="835pt" height="505pt"
 viewBox="0.00 0.00 835.00 505.00" xmlns="http://www.w3.org/2000/svg" xmlns:xlink="http://www.w3.org/1999/xlink">
<g id="graph0" class="graph" transform="scale(1 1) rotate(0) translate(4 501.25)">
<title>InfoVisC.133.5(3).png</title>
<polygon fill="white" stroke="none" points="-4,4 -4,-501.25 831.25,-501.25 831.25,4 -4,4"/>
<text xml:space="preserve" text-anchor="start" x="345" y="-476.95" font-family="Arial" font-weight="bold" font-size="14.00">InfoVisC.133.5(3).png</text>
<text xml:space="preserve" text-anchor="start" x="358.5" y="-457" font-family="Arial" font-size="11.00">Node&#45;link &#160;| &#160;VC = 0.48</text>
<path fill="#b8e6b8" stroke="none" d="M204.25,-432C204.25,-432 212.25,-432 212.25,-432 215.25,-432 218.25,-435 218.25,-438 218.25,-438 218.25,-444 218.25,-444 218.25,-447 215.25,-450 212.25,-450 212.25,-450 204.25,-450 204.25,-450 201.25,-450 198.25,-447 198.25,-444 198.25,-444 198.25,-438 198.25,-438 198.25,-435 201.25,-432 204.25,-432"/>
<path fill="none" stroke="black" d="M204.25,-432C204.25,-432 212.25,-432 212.25,-432 215.25,-432 218.25,-435 218.25,-438 218.25,-438 218.25,-444 218.25,-444 218.25,-447 215.25,-450 212.25,-450 212.25,-450 204.25,-450 204.25,-450 201.25,-450 198.25,-447 198.25,-444 198.25,-444 198.25,-438 198.25,-438 198.25,-435 201.25,-432 204.25,-432"/>
<text xml:space="preserve" text-anchor="start" x="206.75" y="-437.25" font-family="Arial" font-size="10.00"> </text>
<text xml:space="preserve" text-anchor="start" x="222.25" y="-437.25" font-family="Arial" font-size="10.00">Object</text>
<path fill="#c7b8e6" stroke="none" d="M260.75,-432C260.75,-432 268.75,-432 268.75,-432 271.75,-432 274.75,-435 274.75,-438 274.75,-438 274.75,-444 274.75,-444 274.75,-447 271.75,-450 268.75,-450 268.75,-450 260.75,-450 260.75,-450 257.75,-450 254.75,-447 254.75,-444 254.75,-444 254.75,-438 254.75,-438 254.75,-435 257.75,-432 260.75,-432"/>
<path fill="none" stroke="black" d="M260.75,-432C260.75,-432 268.75,-432 268.75,-432 271.75,-432 274.75,-435 274.75,-438 274.75,-438 274.75,-444 274.75,-444 274.75,-447 271.75,-450 268.75,-450 268.75,-450 260.75,-450 260.75,-450 257.75,-450 254.75,-447 254.75,-444 254.75,-444 254.75,-438 254.75,-438 254.75,-435 257.75,-432 260.75,-432"/>
<text xml:space="preserve" text-anchor="start" x="263.25" y="-437.25" font-family="Arial" font-size="10.00"> </text>
<text xml:space="preserve" text-anchor="start" x="278.75" y="-437.25" font-family="Arial" font-size="10.00">Attribute</text>
<path fill="#f5b8b8" stroke="none" d="M325.5,-432C325.5,-432 333.5,-432 333.5,-432 336.5,-432 339.5,-435 339.5,-438 339.5,-438 339.5,-444 339.5,-444 339.5,-447 336.5,-450 333.5,-450 333.5,-450 325.5,-450 325.5,-450 322.5,-450 319.5,-447 319.5,-444 319.5,-444 319.5,-438 319.5,-438 319.5,-435 322.5,-432 325.5,-432"/>
<path fill="none" stroke="black" d="M325.5,-432C325.5,-432 333.5,-432 333.5,-432 336.5,-432 339.5,-435 339.5,-438 339.5,-438 339.5,-444 339.5,-444 339.5,-447 336.5,-450 333.5,-450 333.5,-450 325.5,-450 325.5,-450 322.5,-450 319.5,-447 319.5,-444 319.5,-444 319.5,-438 319.5,-438 319.5,-435 322.5,-432 325.5,-432"/>
<text xml:space="preserve" text-anchor="start" x="328" y="-437.25" font-family="Arial" font-size="10.00"> </text>
<text xml:space="preserve" text-anchor="start" x="343.5" y="-437.25" font-family="Arial" font-size="10.00">Relationship</text>
<text xml:space="preserve" text-anchor="start" x="403.5" y="-438.5" font-family="Arial" font-weight="bold" font-size="10.00">(+)</text>
<text xml:space="preserve" text-anchor="start" x="415.5" y="-438.5" font-family="Arial" font-size="10.00"> increases complexity</text>
<text xml:space="preserve" text-anchor="start" x="516.75" y="-438.5" font-family="Arial" font-weight="bold" font-size="10.00">(−)</text>
<text xml:space="preserve" text-anchor="start" x="528.75" y="-438.5" font-family="Arial" font-size="10.00"> decreases complexity</text>
<!-- mark.node -->
<g id="node1" class="node">
<title>mark.node</title>
<path fill="#b8e6b8" stroke="#2c3e50" stroke-width="1.8" d="M643.75,-361C643.75,-361 613.75,-361 613.75,-361 607.75,-361 601.75,-355 601.75,-349 601.75,-349 601.75,-337 601.75,-337 601.75,-331 607.75,-325 613.75,-325 613.75,-325 643.75,-325 643.75,-325 649.75,-325 655.75,-331 655.75,-337 655.75,-337 655.75,-349 655.75,-349 655.75,-355 649.75,-361 643.75,-361"/>
<text xml:space="preserve" text-anchor="middle" x="628.75" y="-339.5" font-family="Arial" font-size="10.00" fill="#1a1a1a">node</text>
</g>
<!-- attr_1 -->
<g id="node7" class="node">
<title>attr_1</title>
<path fill="#c7b8e6" stroke="#7f8c8d" stroke-width="1.2" d="M811.5,-361C811.5,-361 714.5,-361 714.5,-361 708.5,-361 702.5,-355 702.5,-349 702.5,-349 702.5,-337 702.5,-337 702.5,-331 708.5,-325 714.5,-325 714.5,-325 811.5,-325 811.5,-325 817.5,-325 823.5,-331 823.5,-337 823.5,-337 823.5,-349 823.5,-349 823.5,-355 817.5,-361 811.5,-361"/>
<text xml:space="preserve" text-anchor="middle" x="763" y="-339.5" font-family="Arial" font-size="10.00" fill="#1a1a1a">(+) varied element sizes</text>
</g>
<!-- mark.node&#45;&gt;attr_1 -->
<g id="edge1" class="edge">
<title>mark.node&#45;&gt;attr_1</title>
<path fill="none" stroke="#aaaaaa" d="M656.51,-343C667.39,-343 680.5,-343 693.72,-343"/>
<polygon fill="#aaaaaa" stroke="#aaaaaa" points="693.44,-345.45 700.44,-343 693.44,-340.55 693.44,-345.45"/>
</g>
<!-- unknown.edge -->
<g id="node2" class="node">
<title>unknown.edge</title>
<path fill="#b8e6b8" stroke="#2c3e50" stroke-width="1.8" d="M42,-272C42,-272 12,-272 12,-272 6,-272 0,-266 0,-260 0,-260 0,-248 0,-248 0,-242 6,-236 12,-236 12,-236 42,-236 42,-236 48,-236 54,-242 54,-248 54,-248 54,-260 54,-260 54,-266 48,-272 42,-272"/>
<text xml:space="preserve" text-anchor="middle" x="27" y="-250.5" font-family="Arial" font-size="10.00" fill="#1a1a1a">edge</text>
</g>
<!-- attr_0 -->
<g id="node8" class="node">
<title>attr_0</title>
<path fill="#c7b8e6" stroke="#7f8c8d" stroke-width="1.2" d="M242,-272C242,-272 109,-272 109,-272 103,-272 97,-266 97,-260 97,-260 97,-248 97,-248 97,-242 103,-236 109,-236 109,-236 242,-236 242,-236 248,-236 254,-242 254,-248 254,-248 254,-260 254,-260 254,-266 248,-272 242,-272"/>
<text xml:space="preserve" text-anchor="middle" x="175.5" y="-250.5" font-family="Arial" font-size="10.00" fill="#1a1a1a">(+) overlapping intersecting lines</text>
</g>
<!-- unknown.edge&#45;&gt;attr_0 -->
<g id="edge2" class="edge">
<title>unknown.edge&#45;&gt;attr_0</title>
<path fill="none" stroke="#aaaaaa" d="M54.87,-254C64.6,-254 76.19,-254 88.26,-254"/>
<polygon fill="#aaaaaa" stroke="#aaaaaa" points="88.17,-256.45 95.17,-254 88.17,-251.55 88.17,-256.45"/>
</g>
<!-- rel_0 -->
<g id="node14" class="node">
<title>rel_0</title>
<path fill="#f5b8b8" stroke="#d46a6a" stroke-width="1.2" d="M192.5,-353C192.5,-353 158.5,-353 158.5,-353 152.5,-353 146.5,-347 146.5,-341 146.5,-341 146.5,-329 146.5,-329 146.5,-323 152.5,-317 158.5,-317 158.5,-317 192.5,-317 192.5,-317 198.5,-317 204.5,-323 204.5,-329 204.5,-329 204.5,-341 204.5,-341 204.5,-347 198.5,-353 192.5,-353"/>
<text xml:space="preserve" text-anchor="middle" x="175.5" y="-331.5" font-family="Arial" font-size="10.00" fill="#8b0000">increases</text>
</g>
<!-- unknown.edge&#45;&gt;rel_0 -->
<g id="edge8" class="edge">
<title>unknown.edge&#45;&gt;rel_0</title>
<path fill="none" stroke="#d46a6a" stroke-width="1.5" d="M54.87,-268.86C78,-281.64 111.61,-300.23 137.32,-314.44"/>
<polygon fill="#d46a6a" stroke="#d46a6a" stroke-width="1.5" points="135.71,-316.75 144.06,-318.17 138.42,-311.85 135.71,-316.75"/>
</g>
<!-- rel_3 -->
<g id="node17" class="node">
<title>rel_3</title>
<path fill="#f5b8b8" stroke="#d46a6a" stroke-width="1.2" d="M197.75,-175C197.75,-175 153.25,-175 153.25,-175 147.25,-175 141.25,-169 141.25,-163 141.25,-163 141.25,-151 141.25,-151 141.25,-145 147.25,-139 153.25,-139 153.25,-139 197.75,-139 197.75,-139 203.75,-139 209.75,-145 209.75,-151 209.75,-151 209.75,-163 209.75,-163 209.75,-169 203.75,-175 197.75,-175"/>
<text xml:space="preserve" text-anchor="middle" x="175.5" y="-153.5" font-family="Arial" font-size="10.00" fill="#8b0000">overwhelms</text>
</g>
<!-- unknown.edge&#45;&gt;rel_3 -->
<g id="edge14" class="edge">
<title>unknown.edge&#45;&gt;rel_3</title>
<path fill="none" stroke="#d46a6a" stroke-width="1.5" d="M54.87,-236.21C78.25,-220.73 112.33,-198.16 138.14,-181.07"/>
<polygon fill="#d46a6a" stroke="#d46a6a" stroke-width="1.5" points="139.54,-183.51 144.66,-176.76 136.44,-178.84 139.54,-183.51"/>
</g>
<!-- structure.layout -->
<g id="node3" class="node">
<title>structure.layout</title>
<path fill="#b8e6b8" stroke="#2c3e50" stroke-width="1.8" d="M345.12,-134C345.12,-134 315.12,-134 315.12,-134 309.12,-134 303.12,-128 303.12,-122 303.12,-122 303.12,-110 303.12,-110 303.12,-104 309.12,-98 315.12,-98 315.12,-98 345.12,-98 345.12,-98 351.12,-98 357.12,-104 357.12,-110 357.12,-110 357.12,-122 357.12,-122 357.12,-128 351.12,-134 345.12,-134"/>
<text xml:space="preserve" text-anchor="middle" x="330.12" y="-112.5" font-family="Arial" font-size="10.00" fill="#1a1a1a">layout</text>
</g>
<!-- attr_2 -->
<g id="node9" class="node">
<title>attr_2</title>
<path fill="#c7b8e6" stroke="#7f8c8d" stroke-width="1.2" d="M537.75,-166C537.75,-166 427.25,-166 427.25,-166 421.25,-166 415.25,-160 415.25,-154 415.25,-154 415.25,-142 415.25,-142 415.25,-136 421.25,-130 427.25,-130 427.25,-130 537.75,-130 537.75,-130 543.75,-130 549.75,-136 549.75,-142 549.75,-142 549.75,-154 549.75,-154 549.75,-160 543.75,-166 537.75,-166"/>
<text xml:space="preserve" text-anchor="middle" x="482.5" y="-144.5" font-family="Arial" font-size="10.00" fill="#1a1a1a">(+) wide information spread</text>
</g>
<!-- structure.layout&#45;&gt;attr_2 -->
<g id="edge3" class="edge">
<title>structure.layout&#45;&gt;attr_2</title>
<path fill="none" stroke="#aaaaaa" d="M358.01,-121.72C371.78,-124.65 389.3,-128.38 406.79,-132.1"/>
<polygon fill="#aaaaaa" stroke="#aaaaaa" points="405.97,-134.43 413.33,-133.49 406.99,-129.64 405.97,-134.43"/>
</g>
<!-- attr_6 -->
<g id="node10" class="node">
<title>attr_6</title>
<path fill="#c7b8e6" stroke="#7f8c8d" stroke-width="1.2" d="M537.75,-101C537.75,-101 427.25,-101 427.25,-101 421.25,-101 415.25,-95 415.25,-89 415.25,-89 415.25,-77 415.25,-77 415.25,-71 421.25,-65 427.25,-65 427.25,-65 537.75,-65 537.75,-65 543.75,-65 549.75,-71 549.75,-77 549.75,-77 549.75,-89 549.75,-89 549.75,-95 543.75,-101 537.75,-101"/>
<text xml:space="preserve" text-anchor="middle" x="482.5" y="-79.5" font-family="Arial" font-size="10.00" fill="#1a1a1a">(+) high information volume</text>
</g>
<!-- structure.layout&#45;&gt;attr_6 -->
<g id="edge4" class="edge">
<title>structure.layout&#45;&gt;attr_6</title>
<path fill="none" stroke="#aaaaaa" d="M358.01,-110.1C371.78,-107.08 389.3,-103.23 406.79,-99.39"/>
<polygon fill="#aaaaaa" stroke="#aaaaaa" points="407.02,-101.85 413.33,-97.96 405.97,-97.07 407.02,-101.85"/>
</g>
<!-- rel_2 -->
<g id="node16" class="node">
<title>rel_2</title>
<path fill="#f5b8b8" stroke="#d46a6a" stroke-width="1.2" d="M515.25,-36C515.25,-36 449.75,-36 449.75,-36 443.75,-36 437.75,-30 437.75,-24 437.75,-24 437.75,-12 437.75,-12 437.75,-6 443.75,0 449.75,0 449.75,0 515.25,0 515.25,0 521.25,0 527.25,-6 527.25,-12 527.25,-12 527.25,-24 527.25,-24 527.25,-30 521.25,-36 515.25,-36"/>
<text xml:space="preserve" text-anchor="middle" x="482.5" y="-14.5" font-family="Arial" font-size="10.00" fill="#8b0000">requires effort for</text>
</g>
<!-- structure.layout&#45;&gt;rel_2 -->
<g id="edge12" class="edge">
<title>structure.layout&#45;&gt;rel_2</title>
<path fill="none" stroke="#d46a6a" stroke-width="1.5" d="M348.93,-97.39C363.38,-83.06 384.79,-63.5 406.25,-50 413.16,-45.65 420.76,-41.65 428.4,-38.04"/>
<polygon fill="#d46a6a" stroke="#d46a6a" stroke-width="1.5" points="429.13,-40.78 435.27,-34.94 426.82,-35.68 429.13,-40.78"/>
</g>
<!-- text.label -->
<g id="node4" class="node">
<title>text.label</title>
<path fill="#b8e6b8" stroke="#2c3e50" stroke-width="1.8" d="M643.75,-36C643.75,-36 613.75,-36 613.75,-36 607.75,-36 601.75,-30 601.75,-24 601.75,-24 601.75,-12 601.75,-12 601.75,-6 607.75,0 613.75,0 613.75,0 643.75,0 643.75,0 649.75,0 655.75,-6 655.75,-12 655.75,-12 655.75,-24 655.75,-24 655.75,-30 649.75,-36 643.75,-36"/>
<text xml:space="preserve" text-anchor="middle" x="628.75" y="-14.5" font-family="Arial" font-size="10.00" fill="#1a1a1a">label</text>
</g>
<!-- attr_5 -->
<g id="node11" class="node">
<title>attr_5</title>
<path fill="#c7b8e6" stroke="#7f8c8d" stroke-width="1.2" d="M815.25,-36C815.25,-36 710.75,-36 710.75,-36 704.75,-36 698.75,-30 698.75,-24 698.75,-24 698.75,-12 698.75,-12 698.75,-6 704.75,0 710.75,0 710.75,0 815.25,0 815.25,0 821.25,0 827.25,-6 827.25,-12 827.25,-12 827.25,-24 827.25,-24 827.25,-30 821.25,-36 815.25,-36"/>
<text xml:space="preserve" text-anchor="middle" x="763" y="-14.5" font-family="Arial" font-size="10.00" fill="#1a1a1a">(+) numerous detail labels</text>
</g>
<!-- text.label&#45;&gt;attr_5 -->
<g id="edge5" class="edge">
<title>text.label&#45;&gt;attr_5</title>
<path fill="none" stroke="#aaaaaa" d="M656.51,-18C666.39,-18 678.1,-18 690.07,-18"/>
<polygon fill="#aaaaaa" stroke="#aaaaaa" points="689.86,-20.45 696.86,-18 689.86,-15.55 689.86,-20.45"/>
</g>
<!-- furniture.legend -->
<g id="node5" class="node">
<title>furniture.legend</title>
<path fill="#b8e6b8" stroke="#2c3e50" stroke-width="1.8" d="M348.62,-263C348.62,-263 311.62,-263 311.62,-263 305.62,-263 299.62,-257 299.62,-251 299.62,-251 299.62,-239 299.62,-239 299.62,-233 305.62,-227 311.62,-227 311.62,-227 348.62,-227 348.62,-227 354.62,-227 360.62,-233 360.62,-239 360.62,-239 360.62,-251 360.62,-251 360.62,-257 354.62,-263 348.62,-263"/>
<text xml:space="preserve" text-anchor="middle" x="330.12" y="-241.5" font-family="Arial" font-size="10.00" fill="#1a1a1a">color code</text>
</g>
<!-- attr_4 -->
<g id="node12" class="node">
<title>attr_4</title>
<path fill="#c7b8e6" stroke="#7f8c8d" stroke-width="1.2" d="M543,-231C543,-231 422,-231 422,-231 416,-231 410,-225 410,-219 410,-219 410,-207 410,-207 410,-201 416,-195 422,-195 422,-195 543,-195 543,-195 549,-195 555,-201 555,-207 555,-207 555,-219 555,-219 555,-225 549,-231 543,-231"/>
<text xml:space="preserve" text-anchor="middle" x="482.5" y="-209.5" font-family="Arial" font-size="10.00" fill="#1a1a1a">(+) multiple contrasting colors</text>
</g>
<!-- furniture.legend&#45;&gt;attr_4 -->
<g id="edge6" class="edge">
<title>furniture.legend&#45;&gt;attr_4</title>
<path fill="none" stroke="#aaaaaa" d="M361.19,-238.6C372.98,-236.09 387.12,-233.08 401.49,-230.03"/>
<polygon fill="#aaaaaa" stroke="#aaaaaa" points="401.67,-232.49 408,-228.64 400.65,-227.7 401.67,-232.49"/>
</g>
<!-- rel_4 -->
<g id="node18" class="node">
<title>rel_4</title>
<path fill="#f5b8b8" stroke="#d46a6a" stroke-width="1.2" d="M504.75,-296C504.75,-296 460.25,-296 460.25,-296 454.25,-296 448.25,-290 448.25,-284 448.25,-284 448.25,-272 448.25,-272 448.25,-266 454.25,-260 460.25,-260 460.25,-260 504.75,-260 504.75,-260 510.75,-260 516.75,-266 516.75,-272 516.75,-272 516.75,-284 516.75,-284 516.75,-290 510.75,-296 504.75,-296"/>
<text xml:space="preserve" text-anchor="middle" x="482.5" y="-274.5" font-family="Arial" font-size="10.00" fill="#8b0000">encodes via</text>
</g>
<!-- furniture.legend&#45;&gt;rel_4 -->
<g id="edge16" class="edge">
<title>furniture.legend&#45;&gt;rel_4</title>
<path fill="none" stroke="#d46a6a" stroke-width="1.5" d="M361.19,-251.6C383.19,-256.43 413.36,-263.05 437.99,-268.45"/>
<polygon fill="#d46a6a" stroke="#d46a6a" stroke-width="1.5" points="437.18,-271.14 445.6,-270.12 438.38,-265.67 437.18,-271.14"/>
</g>
<!-- unknown.intersection -->
<g id="node6" class="node">
<title>unknown.intersection</title>
<path fill="#b8e6b8" stroke="#2c3e50" stroke-width="1.8" d="M351.25,-361C351.25,-361 309,-361 309,-361 303,-361 297,-355 297,-349 297,-349 297,-337 297,-337 297,-331 303,-325 309,-325 309,-325 351.25,-325 351.25,-325 357.25,-325 363.25,-331 363.25,-337 363.25,-337 363.25,-349 363.25,-349 363.25,-355 357.25,-361 351.25,-361"/>
<text xml:space="preserve" text-anchor="middle" x="330.12" y="-339.5" font-family="Arial" font-size="10.00" fill="#1a1a1a">intersection</text>
</g>
<!-- attr_3 -->
<g id="node13" class="node">
<title>attr_3</title>
<path fill="#c7b8e6" stroke="#7f8c8d" stroke-width="1.2" d="M546.75,-361C546.75,-361 418.25,-361 418.25,-361 412.25,-361 406.25,-355 406.25,-349 406.25,-349 406.25,-337 406.25,-337 406.25,-331 412.25,-325 418.25,-325 418.25,-325 546.75,-325 546.75,-325 552.75,-325 558.75,-331 558.75,-337 558.75,-337 558.75,-349 558.75,-349 558.75,-355 552.75,-361 546.75,-361"/>
<text xml:space="preserve" text-anchor="middle" x="482.5" y="-339.5" font-family="Arial" font-size="10.00" fill="#1a1a1a">(+) dense crossing connections</text>
</g>
<!-- unknown.intersection&#45;&gt;attr_3 -->
<g id="edge7" class="edge">
<title>unknown.intersection&#45;&gt;attr_3</title>
<path fill="none" stroke="#aaaaaa" d="M364.13,-343C374.17,-343 385.7,-343 397.53,-343"/>
<polygon fill="#aaaaaa" stroke="#aaaaaa" points="397.23,-345.45 404.23,-343 397.23,-340.55 397.23,-345.45"/>
</g>
<!-- rel_1 -->
<g id="node15" class="node">
<title>rel_1</title>
<path fill="#f5b8b8" stroke="#d46a6a" stroke-width="1.2" d="M498.38,-426C498.38,-426 466.62,-426 466.62,-426 460.62,-426 454.62,-420 454.62,-414 454.62,-414 454.62,-402 454.62,-402 454.62,-396 460.62,-390 466.62,-390 466.62,-390 498.38,-390 498.38,-390 504.38,-390 510.38,-396 510.38,-402 510.38,-402 510.38,-414 510.38,-414 510.38,-420 504.38,-426 498.38,-426"/>
<text xml:space="preserve" text-anchor="middle" x="482.5" y="-404.5" font-family="Arial" font-size="10.00" fill="#8b0000">obscures</text>
</g>
<!-- unknown.intersection&#45;&gt;rel_1 -->
<g id="edge10" class="edge">
<title>unknown.intersection&#45;&gt;rel_1</title>
<path fill="none" stroke="#d46a6a" stroke-width="1.5" d="M364,-357.54C377.13,-363.32 392.39,-370.01 406.25,-376 418.92,-381.48 432.82,-387.41 445.19,-392.66"/>
<polygon fill="#d46a6a" stroke="#d46a6a" stroke-width="1.5" points="443.75,-395.09 452.21,-395.64 445.94,-389.94 443.75,-395.09"/>
</g>
<!-- rel_0&#45;&gt;unknown.intersection -->
<g id="edge9" class="edge">
<title>rel_0&#45;&gt;unknown.intersection</title>
<path fill="none" stroke="#d46a6a" stroke-width="1.5" d="M204.85,-336.49C227.68,-337.68 260.15,-339.38 286.17,-340.75"/>
<polygon fill="#d46a6a" stroke="#d46a6a" stroke-width="1.5" points="285.75,-343.53 293.88,-341.15 286.04,-337.94 285.75,-343.53"/>
</g>
<!-- rel_1&#45;&gt;mark.node -->
<g id="edge11" class="edge">
<title>rel_1&#45;&gt;mark.node</title>
<path fill="none" stroke="#d46a6a" stroke-width="1.5" d="M510.79,-396.73C525.13,-390.73 542.96,-383.13 558.75,-376 569.61,-371.1 581.33,-365.58 591.98,-360.48"/>
<polygon fill="#d46a6a" stroke="#d46a6a" stroke-width="1.5" points="592.97,-363.11 598.96,-357.11 590.54,-358.06 592.97,-363.11"/>
</g>
<!-- rel_2&#45;&gt;text.label -->
<g id="edge13" class="edge">
<title>rel_2&#45;&gt;text.label</title>
<path fill="none" stroke="#d46a6a" stroke-width="1.5" d="M527.56,-18C547.84,-18 571.61,-18 590.92,-18"/>
<polygon fill="#d46a6a" stroke="#d46a6a" stroke-width="1.5" points="590.86,-20.8 598.86,-18 590.86,-15.2 590.86,-20.8"/>
</g>
<!-- rel_3&#45;&gt;structure.layout -->
<g id="edge15" class="edge">
<title>rel_3&#45;&gt;structure.layout</title>
<path fill="none" stroke="#d46a6a" stroke-width="1.5" d="M209.99,-148C234.37,-141.46 267.35,-132.59 292.43,-125.86"/>
<polygon fill="#d46a6a" stroke="#d46a6a" stroke-width="1.5" points="293.12,-128.57 300.12,-123.79 291.66,-123.16 293.12,-128.57"/>
</g>
<!-- rel_4&#45;&gt;mark.node -->
<g id="edge17" class="edge">
<title>rel_4&#45;&gt;mark.node</title>
<path fill="none" stroke="#d46a6a" stroke-width="1.5" d="M517.28,-292.63C530.27,-298.31 545.23,-304.9 558.75,-311 569.55,-315.87 581.25,-321.26 591.9,-326.2"/>
<polygon fill="#d46a6a" stroke="#d46a6a" stroke-width="1.5" points="590.45,-328.61 598.88,-329.45 592.81,-323.54 590.45,-328.61"/>
</g>
</g>
</svg>
