<?xml version="1.0" encoding="UTF-8" standalone="no"?>
<!DOCTYPE svg PUBLIC "-//W3C//DTD SVG 1.1//EN"
 "http://www.w3.org/Graphics/SVG/1.1/DTD/svg11.dtd">
<!-- Generated by graphviz version 14.1.5 (20260411.2331)
 -->
<!-- Title: InfoVisJ.1063.13(3).png Pages: 1 -->
<svg width="777pt" height="375pt"
 viewBox="0.00 0.00 777.00 375.00" xmlns="http://www.w3.org/2000/svg" xmlns:xlink="http://www.w3.org/1999/xlink">
<g id="graph0" class="graph" transform="scale(1 1) rotate(0) translate(4 371.25)">
<title>InfoVisJ.1063.13(3).png</title>
<polygon fill="white" stroke="none" points="-4,4 -4,-371.25 773.25,-371.25 773.25,4 -4,4"/>
<text xml:space="preserve" text-anchor="start" x="309.62" y="-346.95" font-family="Arial" font-weight="bold" font-size="14.00">InfoVisJ.1063.13(3).png</text>
<text xml:space="preserve" text-anchor="start" x="329.5" y="-327" font-family="Arial" font-size="11.00">Node&#45;link &#160;| &#160;VC = 0.81</text>
<path fill="#b8e6b8" stroke="none" d="M175.25,-302C175.25,-302 183.25,-302 183.25,-302 186.25,-302 189.25,-305 189.25,-308 189.25,-308 189.25,-314 189.25,-314 189.25,-317 186.25,-320 183.25,-320 183.25,-320 175.25,-320 175.25,-320 172.25,-320 169.25,-317 169.25,-314 169.25,-314 169.25,-308 169.25,-308 169.25,-305 172.25,-302 175.25,-302"/>
<path fill="none" stroke="black" d="M175.25,-302C175.25,-302 183.25,-302 183.25,-302 186.25,-302 189.25,-305 189.25,-308 189.25,-308 189.25,-314 189.25,-314 189.25,-317 186.25,-320 183.25,-320 183.25,-320 175.25,-320 175.25,-320 172.25,-320 169.25,-317 169.25,-314 169.25,-314 169.25,-308 169.25,-308 169.25,-305 172.25,-302 175.25,-302"/>
<text xml:space="preserve" text-anchor="start" x="177.75" y="-307.25" font-family="Arial" font-size="10.00"> </text>
<text xml:space="preserve" text-anchor="start" x="193.25" y="-307.25" font-family="Arial" font-size="10.00">Object</text>
<path fill="#c7b8e6" stroke="none" d="M231.75,-302C231.75,-302 239.75,-302 239.75,-302 242.75,-302 245.75,-305 245.75,-308 245.75,-308 245.75,-314 245.75,-314 245.75,-317 242.75,-320 239.75,-320 239.75,-320 231.75,-320 231.75,-320 228.75,-320 225.75,-317 225.75,-314 225.75,-314 225.75,-308 225.75,-308 225.75,-305 228.75,-302 231.75,-302"/>
<path fill="none" stroke="black" d="M231.75,-302C231.75,-302 239.75,-302 239.75,-302 242.75,-302 245.75,-305 245.75,-308 245.75,-308 245.75,-314 245.75,-314 245.75,-317 242.75,-320 239.75,-320 239.75,-320 231.75,-320 231.75,-320 228.75,-320 225.75,-317 225.75,-314 225.75,-314 225.75,-308 225.75,-308 225.75,-305 228.75,-302 231.75,-302"/>
<text xml:space="preserve" text-anchor="start" x="234.25" y="-307.25" font-family="Arial" font-size="10.00"> </text>
<text xml:space="preserve" text-anchor="start" x="249.75" y="-307.25" font-family="Arial" font-size="10.00">Attribute</text>
<path fill="#f5b8b8" stroke="none" d="M296.5,-302C296.5,-302 304.5,-302 304.5,-302 307.5,-302 310.5,-305 310.5,-308 310.5,-308 310.5,-314 310.5,-314 310.5,-317 307.5,-320 304.5,-320 304.5,-320 296.5,-320 296.5,-320 293.5,-320 290.5,-317 290.5,-314 290.5,-314 290.5,-308 290.5,-308 290.5,-305 293.5,-302 296.5,-302"/>
<path fill="none" stroke="black" d="M296.5,-302C296.5,-302 304.5,-302 304.5,-302 307.5,-302 310.5,-305 310.5,-308 310.5,-308 310.5,-314 310.5,-314 310.5,-317 307.5,-320 304.5,-320 304.5,-320 296.5,-320 296.5,-320 293.5,-320 290.5,-317 290.5,-314 290.5,-314 290.5,-308 290.5,-308 290.5,-305 293.5,-302 296.5,-302"/>
<text xml:space="preserve" text-anchor="start" x="299" y="-307.25" font-family="Arial" font-size="10.00"> </text>
<text xml:space="preserve" text-anchor="start" x="314.5" y="-307.25" font-family="Arial" font-size="10.00">Relationship</text>
<text xml:space="preserve" text-anchor="start" x="374.5" y="-308.5" font-family="Arial" font-weight="bold" font-size="10.00">(+)</text>
<text xml:space="preserve" text-anchor="start" x="386.5" y="-308.5" font-family="Arial" font-size="10.00"> increases complexity</text>
<text xml:space="preserve" text-anchor="start" x="487.75" y="-308.5" font-family="Arial" font-weight="bold" font-size="10.00">(−)</text>
<text xml:space="preserve" text-anchor="start" x="499.75" y="-308.5" font-family="Arial" font-size="10.00"> decreases complexity</text>
<!-- furniture.legend -->
<g id="node1" class="node">
<title>furniture.legend</title>
<path fill="#b8e6b8" stroke="#2c3e50" stroke-width="1.8" d="M295.5,-101C295.5,-101 265.5,-101 265.5,-101 259.5,-101 253.5,-95 253.5,-89 253.5,-89 253.5,-77 253.5,-77 253.5,-71 259.5,-65 265.5,-65 265.5,-65 295.5,-65 295.5,-65 301.5,-65 307.5,-71 307.5,-77 307.5,-77 307.5,-89 307.5,-89 307.5,-95 301.5,-101 295.5,-101"/>
<text xml:space="preserve" text-anchor="middle" x="280.5" y="-79.5" font-family="Arial" font-size="10.00" fill="#1a1a1a">legend</text>
</g>
<!-- attr_0 -->
<g id="node6" class="node">
<title>attr_0</title>
<path fill="#c7b8e6" stroke="#7f8c8d" stroke-width="1.2" d="M459.5,-166C459.5,-166 373,-166 373,-166 367,-166 361,-160 361,-154 361,-154 361,-142 361,-142 361,-136 367,-130 373,-130 373,-130 459.5,-130 459.5,-130 465.5,-130 471.5,-136 471.5,-142 471.5,-142 471.5,-154 471.5,-154 471.5,-160 465.5,-166 459.5,-166"/>
<text xml:space="preserve" text-anchor="middle" x="416.25" y="-144.5" font-family="Arial" font-size="10.00" fill="#1a1a1a">(+) completely absent</text>
</g>
<!-- furniture.legend&#45;&gt;attr_0 -->
<g id="edge1" class="edge">
<title>furniture.legend&#45;&gt;attr_0</title>
<path fill="none" stroke="#aaaaaa" d="M308.24,-96C325.83,-104.54 349.29,-115.94 369.76,-125.89"/>
<polygon fill="#aaaaaa" stroke="#aaaaaa" points="368.42,-127.97 375.79,-128.82 370.56,-123.56 368.42,-127.97"/>
</g>
<!-- attr_5 -->
<g id="node7" class="node">
<title>attr_5</title>
<path fill="#c7b8e6" stroke="#7f8c8d" stroke-width="1.2" d="M466.25,-101C466.25,-101 366.25,-101 366.25,-101 360.25,-101 354.25,-95 354.25,-89 354.25,-89 354.25,-77 354.25,-77 354.25,-71 360.25,-65 366.25,-65 366.25,-65 466.25,-65 466.25,-65 472.25,-65 478.25,-71 478.25,-77 478.25,-77 478.25,-89 478.25,-89 478.25,-95 472.25,-101 466.25,-101"/>
<text xml:space="preserve" text-anchor="middle" x="416.25" y="-79.5" font-family="Arial" font-size="10.00" fill="#1a1a1a">(+) no color mapping key</text>
</g>
<!-- furniture.legend&#45;&gt;attr_5 -->
<g id="edge2" class="edge">
<title>furniture.legend&#45;&gt;attr_5</title>
<path fill="none" stroke="#aaaaaa" d="M308.24,-83C319.1,-83 332.2,-83 345.45,-83"/>
<polygon fill="#aaaaaa" stroke="#aaaaaa" points="345.19,-85.45 352.19,-83 345.19,-80.55 345.19,-85.45"/>
</g>
<!-- rel_0 -->
<g id="node12" class="node">
<title>rel_0</title>
<path fill="#f5b8b8" stroke="#d46a6a" stroke-width="1.2" d="M440.38,-36C440.38,-36 392.12,-36 392.12,-36 386.12,-36 380.12,-30 380.12,-24 380.12,-24 380.12,-12 380.12,-12 380.12,-6 386.12,0 392.12,0 392.12,0 440.38,0 440.38,0 446.38,0 452.38,-6 452.38,-12 452.38,-12 452.38,-24 452.38,-24 452.38,-30 446.38,-36 440.38,-36"/>
<text xml:space="preserve" text-anchor="middle" x="416.25" y="-14.5" font-family="Arial" font-size="10.00" fill="#8b0000">missing from</text>
</g>
<!-- furniture.legend&#45;&gt;rel_0 -->
<g id="edge7" class="edge">
<title>furniture.legend&#45;&gt;rel_0</title>
<path fill="none" stroke="#d46a6a" stroke-width="1.5" d="M308.24,-70C326.03,-61.36 349.82,-49.8 370.45,-39.77"/>
<polygon fill="#d46a6a" stroke="#d46a6a" stroke-width="1.5" points="371.66,-42.3 377.64,-36.28 369.22,-37.26 371.66,-42.3"/>
</g>
<!-- property.color -->
<g id="node2" class="node">
<title>property.color</title>
<path fill="#b8e6b8" stroke="#2c3e50" stroke-width="1.8" d="M42,-133C42,-133 12,-133 12,-133 6,-133 0,-127 0,-121 0,-121 0,-109 0,-109 0,-103 6,-97 12,-97 12,-97 42,-97 42,-97 48,-97 54,-103 54,-109 54,-109 54,-121 54,-121 54,-127 48,-133 42,-133"/>
<text xml:space="preserve" text-anchor="middle" x="27" y="-111.5" font-family="Arial" font-size="10.00" fill="#1a1a1a">color</text>
</g>
<!-- attr_1 -->
<g id="node8" class="node">
<title>attr_1</title>
<path fill="#c7b8e6" stroke="#7f8c8d" stroke-width="1.2" d="M194.38,-231C194.38,-231 113.12,-231 113.12,-231 107.12,-231 101.12,-225 101.12,-219 101.12,-219 101.12,-207 101.12,-207 101.12,-201 107.12,-195 113.12,-195 113.12,-195 194.38,-195 194.38,-195 200.38,-195 206.38,-201 206.38,-207 206.38,-207 206.38,-219 206.38,-219 206.38,-225 200.38,-231 194.38,-231"/>
<text xml:space="preserve" text-anchor="middle" x="153.75" y="-209.5" font-family="Arial" font-size="10.00" fill="#1a1a1a">(+) high color variety</text>
</g>
<!-- property.color&#45;&gt;attr_1 -->
<g id="edge3" class="edge">
<title>property.color&#45;&gt;attr_1</title>
<path fill="none" stroke="#aaaaaa" d="M45.09,-133.64C58.44,-147.61 77.88,-166.7 97,-181 101.16,-184.11 105.66,-187.15 110.23,-190.05"/>
<polygon fill="#aaaaaa" stroke="#aaaaaa" points="108.89,-192.1 116.14,-193.66 111.45,-187.92 108.89,-192.1"/>
</g>
<!-- attr_2 -->
<g id="node9" class="node">
<title>attr_2</title>
<path fill="#c7b8e6" stroke="#7f8c8d" stroke-width="1.2" d="M198.5,-166C198.5,-166 109,-166 109,-166 103,-166 97,-160 97,-154 97,-154 97,-142 97,-142 97,-136 103,-130 109,-130 109,-130 198.5,-130 198.5,-130 204.5,-130 210.5,-136 210.5,-142 210.5,-142 210.5,-154 210.5,-154 210.5,-160 204.5,-166 198.5,-166"/>
<text xml:space="preserve" text-anchor="middle" x="153.75" y="-144.5" font-family="Arial" font-size="10.00" fill="#1a1a1a">(+) many distinct hues</text>
</g>
<!-- property.color&#45;&gt;attr_2 -->
<g id="edge4" class="edge">
<title>property.color&#45;&gt;attr_2</title>
<path fill="none" stroke="#aaaaaa" d="M54.76,-122.08C64.71,-124.71 76.47,-127.82 88.34,-130.96"/>
<polygon fill="#aaaaaa" stroke="#aaaaaa" points="87.69,-133.32 95.08,-132.74 88.94,-128.59 87.69,-133.32"/>
</g>
<!-- rel_1 -->
<g id="node13" class="node">
<title>rel_1</title>
<path fill="#f5b8b8" stroke="#d46a6a" stroke-width="1.2" d="M195.5,-101C195.5,-101 112,-101 112,-101 106,-101 100,-95 100,-89 100,-89 100,-77 100,-77 100,-71 106,-65 112,-65 112,-65 195.5,-65 195.5,-65 201.5,-65 207.5,-71 207.5,-77 207.5,-77 207.5,-89 207.5,-89 207.5,-95 201.5,-101 195.5,-101"/>
<text xml:space="preserve" text-anchor="middle" x="153.75" y="-79.5" font-family="Arial" font-size="10.00" fill="#8b0000">requires expertise for</text>
</g>
<!-- property.color&#45;&gt;rel_1 -->
<g id="edge9" class="edge">
<title>property.color&#45;&gt;rel_1</title>
<path fill="none" stroke="#d46a6a" stroke-width="1.5" d="M54.76,-108.14C65.1,-105.48 77.4,-102.33 89.73,-99.16"/>
<polygon fill="#d46a6a" stroke="#d46a6a" stroke-width="1.5" points="90.34,-101.9 97.4,-97.2 88.95,-96.47 90.34,-101.9"/>
</g>
<!-- rel_2 -->
<g id="node14" class="node">
<title>rel_2</title>
<path fill="#f5b8b8" stroke="#d46a6a" stroke-width="1.2" d="M169.62,-36C169.62,-36 137.88,-36 137.88,-36 131.88,-36 125.88,-30 125.88,-24 125.88,-24 125.88,-12 125.88,-12 125.88,-6 131.88,0 137.88,0 137.88,0 169.62,0 169.62,0 175.62,0 181.62,-6 181.62,-12 181.62,-12 181.62,-24 181.62,-24 181.62,-30 175.62,-36 169.62,-36"/>
<text xml:space="preserve" text-anchor="middle" x="153.75" y="-14.5" font-family="Arial" font-size="10.00" fill="#8b0000">obscures</text>
</g>
<!-- property.color&#45;&gt;rel_2 -->
<g id="edge11" class="edge">
<title>property.color&#45;&gt;rel_2</title>
<path fill="none" stroke="#d46a6a" stroke-width="1.5" d="M46.09,-96.2C59.48,-82.79 78.54,-64.78 97,-51 103.21,-46.36 110.12,-41.83 116.9,-37.69"/>
<polygon fill="#d46a6a" stroke="#d46a6a" stroke-width="1.5" points="117.95,-40.32 123.4,-33.82 115.09,-35.5 117.95,-40.32"/>
</g>
<!-- mark.node -->
<g id="node3" class="node">
<title>mark.node</title>
<path fill="#b8e6b8" stroke="#2c3e50" stroke-width="1.8" d="M567,-133C567,-133 537,-133 537,-133 531,-133 525,-127 525,-121 525,-121 525,-109 525,-109 525,-103 531,-97 537,-97 537,-97 567,-97 567,-97 573,-97 579,-103 579,-109 579,-109 579,-121 579,-121 579,-127 573,-133 567,-133"/>
<text xml:space="preserve" text-anchor="middle" x="552" y="-111.5" font-family="Arial" font-size="10.00" fill="#1a1a1a">node</text>
</g>
<!-- attr_3 -->
<g id="node10" class="node">
<title>attr_3</title>
<path fill="#c7b8e6" stroke="#7f8c8d" stroke-width="1.2" d="M757.25,-133C757.25,-133 634,-133 634,-133 628,-133 622,-127 622,-121 622,-121 622,-109 622,-109 622,-103 628,-97 634,-97 634,-97 757.25,-97 757.25,-97 763.25,-97 769.25,-103 769.25,-109 769.25,-109 769.25,-121 769.25,-121 769.25,-127 763.25,-133 757.25,-133"/>
<text xml:space="preserve" text-anchor="middle" x="695.62" y="-111.5" font-family="Arial" font-size="10.00" fill="#1a1a1a">(+) numerous unlabeled nodes</text>
</g>
<!-- mark.node&#45;&gt;attr_3 -->
<g id="edge5" class="edge">
<title>mark.node&#45;&gt;attr_3</title>
<path fill="none" stroke="#aaaaaa" d="M579.64,-115C589.4,-115 601.04,-115 613.09,-115"/>
<polygon fill="#aaaaaa" stroke="#aaaaaa" points="612.98,-117.45 619.98,-115 612.98,-112.55 612.98,-117.45"/>
</g>
<!-- unknown.edge -->
<g id="node4" class="node">
<title>unknown.edge</title>
<path fill="#b8e6b8" stroke="#2c3e50" stroke-width="1.8" d="M295.5,-263C295.5,-263 265.5,-263 265.5,-263 259.5,-263 253.5,-257 253.5,-251 253.5,-251 253.5,-239 253.5,-239 253.5,-233 259.5,-227 265.5,-227 265.5,-227 295.5,-227 295.5,-227 301.5,-227 307.5,-233 307.5,-239 307.5,-239 307.5,-251 307.5,-251 307.5,-257 301.5,-263 295.5,-263"/>
<text xml:space="preserve" text-anchor="middle" x="280.5" y="-241.5" font-family="Arial" font-size="10.00" fill="#1a1a1a">edge</text>
</g>
<!-- attr_4 -->
<g id="node11" class="node">
<title>attr_4</title>
<path fill="#c7b8e6" stroke="#7f8c8d" stroke-width="1.2" d="M470,-296C470,-296 362.5,-296 362.5,-296 356.5,-296 350.5,-290 350.5,-284 350.5,-284 350.5,-272 350.5,-272 350.5,-266 356.5,-260 362.5,-260 362.5,-260 470,-260 470,-260 476,-260 482,-266 482,-272 482,-272 482,-284 482,-284 482,-290 476,-296 470,-296"/>
<text xml:space="preserve" text-anchor="middle" x="416.25" y="-274.5" font-family="Arial" font-size="10.00" fill="#1a1a1a">(+) dense interconnections</text>
</g>
<!-- unknown.edge&#45;&gt;attr_4 -->
<g id="edge6" class="edge">
<title>unknown.edge&#45;&gt;attr_4</title>
<path fill="none" stroke="#aaaaaa" d="M308.24,-251.6C318.19,-254.05 330.01,-256.97 342.11,-259.95"/>
<polygon fill="#aaaaaa" stroke="#aaaaaa" points="341.23,-262.26 348.61,-261.56 342.4,-257.5 341.23,-262.26"/>
</g>
<!-- rel_3 -->
<g id="node15" class="node">
<title>rel_3</title>
<path fill="#f5b8b8" stroke="#d46a6a" stroke-width="1.2" d="M438.5,-231C438.5,-231 394,-231 394,-231 388,-231 382,-225 382,-219 382,-219 382,-207 382,-207 382,-201 388,-195 394,-195 394,-195 438.5,-195 438.5,-195 444.5,-195 450.5,-201 450.5,-207 450.5,-207 450.5,-219 450.5,-219 450.5,-225 444.5,-231 438.5,-231"/>
<text xml:space="preserve" text-anchor="middle" x="416.25" y="-209.5" font-family="Arial" font-size="10.00" fill="#8b0000">overwhelms</text>
</g>
<!-- unknown.edge&#45;&gt;rel_3 -->
<g id="edge13" class="edge">
<title>unknown.edge&#45;&gt;rel_3</title>
<path fill="none" stroke="#d46a6a" stroke-width="1.5" d="M308.24,-238.6C326.33,-234.28 350.62,-228.46 371.49,-223.47"/>
<polygon fill="#d46a6a" stroke="#d46a6a" stroke-width="1.5" points="372.08,-226.21 379.21,-221.62 370.78,-220.76 372.08,-226.21"/>
</g>
<!-- text.label -->
<g id="node5" class="node">
<title>text.label</title>
<path fill="#b8e6b8" stroke="#2c3e50" stroke-width="1.8" d="M295.5,-36C295.5,-36 265.5,-36 265.5,-36 259.5,-36 253.5,-30 253.5,-24 253.5,-24 253.5,-12 253.5,-12 253.5,-6 259.5,0 265.5,0 265.5,0 295.5,0 295.5,0 301.5,0 307.5,-6 307.5,-12 307.5,-12 307.5,-24 307.5,-24 307.5,-30 301.5,-36 295.5,-36"/>
<text xml:space="preserve" text-anchor="middle" x="280.5" y="-14.5" font-family="Arial" font-size="10.00" fill="#1a1a1a">label</text>
</g>
<!-- rel_0&#45;&gt;mark.node -->
<g id="edge8" class="edge">
<title>rel_0&#45;&gt;mark.node</title>
<path fill="none" stroke="#d46a6a" stroke-width="1.5" d="M452.88,-33.94C462.64,-38.89 473,-44.72 482,-51 497.9,-62.1 513.89,-76.67 526.47,-89.1"/>
<polygon fill="#d46a6a" stroke="#d46a6a" stroke-width="1.5" points="524.23,-90.82 531.85,-94.52 528.2,-86.87 524.23,-90.82"/>
</g>
<!-- rel_1&#45;&gt;furniture.legend -->
<g id="edge10" class="edge">
<title>rel_1&#45;&gt;furniture.legend</title>
<path fill="none" stroke="#d46a6a" stroke-width="1.5" d="M208.02,-83C219.76,-83 231.94,-83 242.85,-83"/>
<polygon fill="#d46a6a" stroke="#d46a6a" stroke-width="1.5" points="242.6,-85.8 250.6,-83 242.6,-80.2 242.6,-85.8"/>
</g>
<!-- rel_2&#45;&gt;text.label -->
<g id="edge12" class="edge">
<title>rel_2&#45;&gt;text.label</title>
<path fill="none" stroke="#d46a6a" stroke-width="1.5" d="M182.13,-18C199.88,-18 223.22,-18 242.61,-18"/>
<polygon fill="#d46a6a" stroke="#d46a6a" stroke-width="1.5" points="242.35,-20.8 250.35,-18 242.35,-15.2 242.35,-20.8"/>
</g>
<!-- rel_3&#45;&gt;mark.node -->
<g id="edge14" class="edge">
<title>rel_3&#45;&gt;mark.node</title>
<path fill="none" stroke="#d46a6a" stroke-width="1.5" d="M450.96,-198.74C461.29,-193.74 472.45,-187.69 482,-181 498.46,-169.47 514.8,-154.06 527.44,-141.04"/>
<polygon fill="#d46a6a" stroke="#d46a6a" stroke-width="1.5" points="529.39,-143.06 532.87,-135.33 525.33,-139.2 529.39,-143.06"/>
</g>
</g>
</svg>
