<?xml version="1.0" encoding="UTF-8" standalone="no"?>
<!DOCTYPE svg PUBLIC "-//W3C//DTD SVG 1.1//EN"
 "http://www.w3.org/Graphics/SVG/1.1/DTD/svg11.dtd">
<!-- Generated by graphviz version 14.1.5 (20260411.2331)
 -->
<!-- Title: InfoVisJ.2583.8.png Pages: 1 -->
<svg width="589pt" height="635pt"
 viewBox="0.00 0.00 589.00 635.00" xmlns="http://www.w3.org/2000/svg" xmlns:xlink="http://www.w3.org/1999/xlink">
<g id="graph0" class="graph" transform="scale(1 1) rotate(0) translate(4 631.25)">
<title>InfoVisJ.2583.8.png</title>
<polygon fill="white" stroke="none" points="-4,4 -4,-631.25 585.25,-631.25 585.25,4 -4,4"/>
<text xml:space="preserve" text-anchor="start" x="227.62" y="-606.95" font-family="Arial" font-weight="bold" font-size="14.00">InfoVisJ.2583.8.png</text>
<text xml:space="preserve" text-anchor="start" x="233.25" y="-587" font-family="Arial" font-size="11.00">Schematic &#160;| &#160;VC = 0.52</text>
<path fill="#b8e6b8" stroke="none" d="M81.25,-562C81.25,-562 89.25,-562 89.25,-562 92.25,-562 95.25,-565 95.25,-568 95.25,-568 95.25,-574 95.25,-574 95.25,-577 92.25,-580 89.25,-580 89.25,-580 81.25,-580 81.25,-580 78.25,-580 75.25,-577 75.25,-574 75.25,-574 75.25,-568 75.25,-568 75.25,-565 78.25,-562 81.25,-562"/>
<path fill="none" stroke="black" d="M81.25,-562C81.25,-562 89.25,-562 89.25,-562 92.25,-562 95.25,-565 95.25,-568 95.25,-568 95.25,-574 95.25,-574 95.25,-577 92.25,-580 89.25,-580 89.25,-580 81.25,-580 81.25,-580 78.25,-580 75.25,-577 75.25,-574 75.25,-574 75.25,-568 75.25,-568 75.25,-565 78.25,-562 81.25,-562"/>
<text xml:space="preserve" text-anchor="start" x="83.75" y="-567.25" font-family="Arial" font-size="10.00"> </text>
<text xml:space="preserve" text-anchor="start" x="99.25" y="-567.25" font-family="Arial" font-size="10.00">Object</text>
<path fill="#c7b8e6" stroke="none" d="M137.75,-562C137.75,-562 145.75,-562 145.75,-562 148.75,-562 151.75,-565 151.75,-568 151.75,-568 151.75,-574 151.75,-574 151.75,-577 148.75,-580 145.75,-580 145.75,-580 137.75,-580 137.75,-580 134.75,-580 131.75,-577 131.75,-574 131.75,-574 131.75,-568 131.75,-568 131.75,-565 134.75,-562 137.75,-562"/>
<path fill="none" stroke="black" d="M137.75,-562C137.75,-562 145.75,-562 145.75,-562 148.75,-562 151.75,-565 151.75,-568 151.75,-568 151.75,-574 151.75,-574 151.75,-577 148.75,-580 145.75,-580 145.75,-580 137.75,-580 137.75,-580 134.75,-580 131.75,-577 131.75,-574 131.75,-574 131.75,-568 131.75,-568 131.75,-565 134.75,-562 137.75,-562"/>
<text xml:space="preserve" text-anchor="start" x="140.25" y="-567.25" font-family="Arial" font-size="10.00"> </text>
<text xml:space="preserve" text-anchor="start" x="155.75" y="-567.25" font-family="Arial" font-size="10.00">Attribute</text>
<path fill="#f5b8b8" stroke="none" d="M202.5,-562C202.5,-562 210.5,-562 210.5,-562 213.5,-562 216.5,-565 216.5,-568 216.5,-568 216.5,-574 216.5,-574 216.5,-577 213.5,-580 210.5,-580 210.5,-580 202.5,-580 202.5,-580 199.5,-580 196.5,-577 196.5,-574 196.5,-574 196.5,-568 196.5,-568 196.5,-565 199.5,-562 202.5,-562"/>
<path fill="none" stroke="black" d="M202.5,-562C202.5,-562 210.5,-562 210.5,-562 213.5,-562 216.5,-565 216.5,-568 216.5,-568 216.5,-574 216.5,-574 216.5,-577 213.5,-580 210.5,-580 210.5,-580 202.5,-580 202.5,-580 199.5,-580 196.5,-577 196.5,-574 196.5,-574 196.5,-568 196.5,-568 196.5,-565 199.5,-562 202.5,-562"/>
<text xml:space="preserve" text-anchor="start" x="205" y="-567.25" font-family="Arial" font-size="10.00"> </text>
<text xml:space="preserve" text-anchor="start" x="220.5" y="-567.25" font-family="Arial" font-size="10.00">Relationship</text>
<text xml:space="preserve" text-anchor="start" x="280.5" y="-568.5" font-family="Arial" font-weight="bold" font-size="10.00">(+)</text>
<text xml:space="preserve" text-anchor="start" x="292.5" y="-568.5" font-family="Arial" font-size="10.00"> increases complexity</text>
<text xml:space="preserve" text-anchor="start" x="393.75" y="-568.5" font-family="Arial" font-weight="bold" font-size="10.00">(−)</text>
<text xml:space="preserve" text-anchor="start" x="405.75" y="-568.5" font-family="Arial" font-size="10.00"> decreases complexity</text>
<!-- unknown.state_graph -->
<g id="node1" class="node">
<title>unknown.state_graph</title>
<path fill="#b8e6b8" stroke="#2c3e50" stroke-width="1.8" d="M62.12,-166C62.12,-166 21.38,-166 21.38,-166 15.38,-166 9.38,-160 9.38,-154 9.38,-154 9.38,-142 9.38,-142 9.38,-136 15.38,-130 21.38,-130 21.38,-130 62.12,-130 62.12,-130 68.12,-130 74.12,-136 74.12,-142 74.12,-142 74.12,-154 74.12,-154 74.12,-160 68.12,-166 62.12,-166"/>
<text xml:space="preserve" text-anchor="middle" x="41.75" y="-144.5" font-family="Arial" font-size="10.00" fill="#1a1a1a">state graph</text>
</g>
<!-- attr_0 -->
<g id="node6" class="node">
<title>attr_0</title>
<path fill="#c7b8e6" stroke="#7f8c8d" stroke-width="1.2" d="M269.62,-296C269.62,-296 144.88,-296 144.88,-296 138.88,-296 132.88,-290 132.88,-284 132.88,-284 132.88,-272 132.88,-272 132.88,-266 138.88,-260 144.88,-260 144.88,-260 269.62,-260 269.62,-260 275.62,-260 281.62,-266 281.62,-272 281.62,-272 281.62,-284 281.62,-284 281.62,-290 275.62,-296 269.62,-296"/>
<text xml:space="preserve" text-anchor="middle" x="207.25" y="-274.5" font-family="Arial" font-size="10.00" fill="#1a1a1a">(−) familiar representation type</text>
</g>
<!-- unknown.state_graph&#45;&gt;attr_0 -->
<g id="edge1" class="edge">
<title>unknown.state_graph&#45;&gt;attr_0</title>
<path fill="none" stroke="#aaaaaa" d="M54.89,-166.75C69.6,-188.18 96.2,-223.12 126.5,-245 132,-248.97 138.05,-252.57 144.28,-255.81"/>
<polygon fill="#aaaaaa" stroke="#aaaaaa" points="142.94,-257.88 150.3,-258.77 145.1,-253.48 142.94,-257.88"/>
</g>
<!-- attr_1 -->
<g id="node7" class="node">
<title>attr_1</title>
<path fill="#c7b8e6" stroke="#7f8c8d" stroke-width="1.2" d="M262.12,-231C262.12,-231 152.38,-231 152.38,-231 146.38,-231 140.38,-225 140.38,-219 140.38,-219 140.38,-207 140.38,-207 140.38,-201 146.38,-195 152.38,-195 152.38,-195 262.12,-195 262.12,-195 268.12,-195 274.12,-201 274.12,-207 274.12,-207 274.12,-219 274.12,-219 274.12,-225 268.12,-231 262.12,-231"/>
<text xml:space="preserve" text-anchor="middle" x="207.25" y="-209.5" font-family="Arial" font-size="10.00" fill="#1a1a1a">(+) specific technique used</text>
</g>
<!-- unknown.state_graph&#45;&gt;attr_1 -->
<g id="edge2" class="edge">
<title>unknown.state_graph&#45;&gt;attr_1</title>
<path fill="none" stroke="#aaaaaa" d="M74.66,-160.69C96.56,-169.39 126.17,-181.16 151.76,-191.34"/>
<polygon fill="#aaaaaa" stroke="#aaaaaa" points="150.74,-193.57 158.15,-193.88 152.55,-189.02 150.74,-193.57"/>
</g>
<!-- attr_6 -->
<g id="node8" class="node">
<title>attr_6</title>
<path fill="#c7b8e6" stroke="#7f8c8d" stroke-width="1.2" d="M276,-166C276,-166 138.5,-166 138.5,-166 132.5,-166 126.5,-160 126.5,-154 126.5,-154 126.5,-142 126.5,-142 126.5,-136 132.5,-130 138.5,-130 138.5,-130 276,-130 276,-130 282,-130 288,-136 288,-142 288,-142 288,-154 288,-154 288,-160 282,-166 276,-166"/>
<text xml:space="preserve" text-anchor="middle" x="207.25" y="-144.5" font-family="Arial" font-size="10.00" fill="#1a1a1a">(−) prior knowledge reduces effort</text>
</g>
<!-- unknown.state_graph&#45;&gt;attr_6 -->
<g id="edge3" class="edge">
<title>unknown.state_graph&#45;&gt;attr_6</title>
<path fill="none" stroke="#aaaaaa" d="M74.66,-148C87.25,-148 102.38,-148 117.83,-148"/>
<polygon fill="#aaaaaa" stroke="#aaaaaa" points="117.41,-150.45 124.41,-148 117.41,-145.55 117.41,-150.45"/>
</g>
<!-- rel_0 -->
<g id="node13" class="node">
<title>rel_0</title>
<path fill="#f5b8b8" stroke="#d46a6a" stroke-width="1.2" d="M273.38,-101C273.38,-101 141.12,-101 141.12,-101 135.12,-101 129.12,-95 129.12,-89 129.12,-89 129.12,-77 129.12,-77 129.12,-71 135.12,-65 141.12,-65 141.12,-65 273.38,-65 273.38,-65 279.38,-65 285.38,-71 285.38,-77 285.38,-77 285.38,-89 285.38,-89 285.38,-95 279.38,-101 273.38,-101"/>
<text xml:space="preserve" text-anchor="middle" x="207.25" y="-79.5" font-family="Arial" font-size="10.00" fill="#8b0000">reduces interpretive difficulty via</text>
</g>
<!-- unknown.state_graph&#45;&gt;rel_0 -->
<g id="edge8" class="edge">
<title>unknown.state_graph&#45;&gt;rel_0</title>
<path fill="none" stroke="#d46a6a" stroke-width="1.5" d="M74.66,-135.31C96.09,-126.8 124.9,-115.34 150.1,-105.32"/>
<polygon fill="#d46a6a" stroke="#d46a6a" stroke-width="1.5" points="151.05,-107.96 157.45,-102.4 148.98,-102.75 151.05,-107.96"/>
</g>
<!-- rel_3 -->
<g id="node16" class="node">
<title>rel_3</title>
<path fill="#f5b8b8" stroke="#d46a6a" stroke-width="1.2" d="M249,-36C249,-36 165.5,-36 165.5,-36 159.5,-36 153.5,-30 153.5,-24 153.5,-24 153.5,-12 153.5,-12 153.5,-6 159.5,0 165.5,0 165.5,0 249,0 249,0 255,0 261,-6 261,-12 261,-12 261,-24 261,-24 261,-30 255,-36 249,-36"/>
<text xml:space="preserve" text-anchor="middle" x="207.25" y="-14.5" font-family="Arial" font-size="10.00" fill="#8b0000">requires expertise for</text>
</g>
<!-- unknown.state_graph&#45;&gt;rel_3 -->
<g id="edge14" class="edge">
<title>unknown.state_graph&#45;&gt;rel_3</title>
<path fill="none" stroke="#d46a6a" stroke-width="1.5" d="M54.55,-129.38C69.12,-107.7 95.77,-72.06 126.5,-50 131.96,-46.08 137.96,-42.56 144.15,-39.4"/>
<polygon fill="#d46a6a" stroke="#d46a6a" stroke-width="1.5" points="145.24,-41.98 151.26,-36.02 142.83,-36.93 145.24,-41.98"/>
</g>
<!-- unknown.nodes -->
<g id="node2" class="node">
<title>unknown.nodes</title>
<path fill="#b8e6b8" stroke="#2c3e50" stroke-width="1.8" d="M373,-426C373,-426 343,-426 343,-426 337,-426 331,-420 331,-414 331,-414 331,-402 331,-402 331,-396 337,-390 343,-390 343,-390 373,-390 373,-390 379,-390 385,-396 385,-402 385,-402 385,-414 385,-414 385,-420 379,-426 373,-426"/>
<text xml:space="preserve" text-anchor="middle" x="358" y="-404.5" font-family="Arial" font-size="10.00" fill="#1a1a1a">nodes</text>
</g>
<!-- attr_2 -->
<g id="node9" class="node">
<title>attr_2</title>
<path fill="#c7b8e6" stroke="#7f8c8d" stroke-width="1.2" d="M569.25,-426C569.25,-426 440,-426 440,-426 434,-426 428,-420 428,-414 428,-414 428,-402 428,-402 428,-396 434,-390 440,-390 440,-390 569.25,-390 569.25,-390 575.25,-390 581.25,-396 581.25,-402 581.25,-402 581.25,-414 581.25,-414 581.25,-420 575.25,-426 569.25,-426"/>
<text xml:space="preserve" text-anchor="middle" x="504.62" y="-404.5" font-family="Arial" font-size="10.00" fill="#1a1a1a">(+) discrete countable elements</text>
</g>
<!-- unknown.nodes&#45;&gt;attr_2 -->
<g id="edge4" class="edge">
<title>unknown.nodes&#45;&gt;attr_2</title>
<path fill="none" stroke="#aaaaaa" d="M385.86,-408C395.55,-408 407.08,-408 419.06,-408"/>
<polygon fill="#aaaaaa" stroke="#aaaaaa" points="418.9,-410.45 425.9,-408 418.9,-405.55 418.9,-410.45"/>
</g>
<!-- unknown.edges -->
<g id="node3" class="node">
<title>unknown.edges</title>
<path fill="#b8e6b8" stroke="#2c3e50" stroke-width="1.8" d="M56.75,-523C56.75,-523 26.75,-523 26.75,-523 20.75,-523 14.75,-517 14.75,-511 14.75,-511 14.75,-499 14.75,-499 14.75,-493 20.75,-487 26.75,-487 26.75,-487 56.75,-487 56.75,-487 62.75,-487 68.75,-493 68.75,-499 68.75,-499 68.75,-511 68.75,-511 68.75,-517 62.75,-523 56.75,-523"/>
<text xml:space="preserve" text-anchor="middle" x="41.75" y="-501.5" font-family="Arial" font-size="10.00" fill="#1a1a1a">edges</text>
</g>
<!-- attr_3 -->
<g id="node10" class="node">
<title>attr_3</title>
<path fill="#c7b8e6" stroke="#7f8c8d" stroke-width="1.2" d="M273.38,-556C273.38,-556 141.12,-556 141.12,-556 135.12,-556 129.12,-550 129.12,-544 129.12,-544 129.12,-532 129.12,-532 129.12,-526 135.12,-520 141.12,-520 141.12,-520 273.38,-520 273.38,-520 279.38,-520 285.38,-526 285.38,-532 285.38,-532 285.38,-544 285.38,-544 285.38,-550 279.38,-556 273.38,-556"/>
<text xml:space="preserve" text-anchor="middle" x="207.25" y="-534.5" font-family="Arial" font-size="10.00" fill="#1a1a1a">(+) directional connections visibl</text>
</g>
<!-- unknown.edges&#45;&gt;attr_3 -->
<g id="edge5" class="edge">
<title>unknown.edges&#45;&gt;attr_3</title>
<path fill="none" stroke="#aaaaaa" d="M69.38,-510.38C83.57,-513.24 101.91,-516.94 120.52,-520.7"/>
<polygon fill="#aaaaaa" stroke="#aaaaaa" points="119.95,-523.08 127.3,-522.07 120.92,-518.28 119.95,-523.08"/>
</g>
<!-- rel_1 -->
<g id="node14" class="node">
<title>rel_1</title>
<path fill="#f5b8b8" stroke="#d46a6a" stroke-width="1.2" d="M223.12,-491C223.12,-491 191.38,-491 191.38,-491 185.38,-491 179.38,-485 179.38,-479 179.38,-479 179.38,-467 179.38,-467 179.38,-461 185.38,-455 191.38,-455 191.38,-455 223.12,-455 223.12,-455 229.12,-455 235.12,-461 235.12,-467 235.12,-467 235.12,-479 235.12,-479 235.12,-485 229.12,-491 223.12,-491"/>
<text xml:space="preserve" text-anchor="middle" x="207.25" y="-469.5" font-family="Arial" font-size="10.00" fill="#8b0000">connects</text>
</g>
<!-- unknown.edges&#45;&gt;rel_1 -->
<g id="edge10" class="edge">
<title>unknown.edges&#45;&gt;rel_1</title>
<path fill="none" stroke="#d46a6a" stroke-width="1.5" d="M69.38,-499.79C96.46,-494.49 138.62,-486.24 169,-480.29"/>
<polygon fill="#d46a6a" stroke="#d46a6a" stroke-width="1.5" points="169.27,-483.09 176.58,-478.81 168.19,-477.6 169.27,-483.09"/>
</g>
<!-- unknown.labels -->
<g id="node4" class="node">
<title>unknown.labels</title>
<path fill="#b8e6b8" stroke="#2c3e50" stroke-width="1.8" d="M373,-69C373,-69 343,-69 343,-69 337,-69 331,-63 331,-57 331,-57 331,-45 331,-45 331,-39 337,-33 343,-33 343,-33 373,-33 373,-33 379,-33 385,-39 385,-45 385,-45 385,-57 385,-57 385,-63 379,-69 373,-69"/>
<text xml:space="preserve" text-anchor="middle" x="358" y="-47.5" font-family="Arial" font-size="10.00" fill="#1a1a1a">labels</text>
</g>
<!-- attr_5 -->
<g id="node11" class="node">
<title>attr_5</title>
<path fill="#c7b8e6" stroke="#7f8c8d" stroke-width="1.2" d="M554.62,-69C554.62,-69 454.62,-69 454.62,-69 448.62,-69 442.62,-63 442.62,-57 442.62,-57 442.62,-45 442.62,-45 442.62,-39 448.62,-33 454.62,-33 454.62,-33 554.62,-33 554.62,-33 560.62,-33 566.62,-39 566.62,-45 566.62,-45 566.62,-57 566.62,-57 566.62,-63 560.62,-69 554.62,-69"/>
<text xml:space="preserve" text-anchor="middle" x="504.62" y="-47.5" font-family="Arial" font-size="10.00" fill="#1a1a1a">(−) label clarity moderate</text>
</g>
<!-- unknown.labels&#45;&gt;attr_5 -->
<g id="edge6" class="edge">
<title>unknown.labels&#45;&gt;attr_5</title>
<path fill="none" stroke="#aaaaaa" d="M385.86,-51C399.48,-51 416.72,-51 433.77,-51"/>
<polygon fill="#aaaaaa" stroke="#aaaaaa" points="433.6,-53.45 440.6,-51 433.6,-48.55 433.6,-53.45"/>
</g>
<!-- unknown.layout_structure -->
<g id="node5" class="node">
<title>unknown.layout_structure</title>
<path fill="#b8e6b8" stroke="#2c3e50" stroke-width="1.8" d="M71.5,-394C71.5,-394 12,-394 12,-394 6,-394 0,-388 0,-382 0,-382 0,-370 0,-370 0,-364 6,-358 12,-358 12,-358 71.5,-358 71.5,-358 77.5,-358 83.5,-364 83.5,-370 83.5,-370 83.5,-382 83.5,-382 83.5,-388 77.5,-394 71.5,-394"/>
<text xml:space="preserve" text-anchor="middle" x="41.75" y="-372.5" font-family="Arial" font-size="10.00" fill="#1a1a1a">layout structure</text>
</g>
<!-- attr_4 -->
<g id="node12" class="node">
<title>attr_4</title>
<path fill="#c7b8e6" stroke="#7f8c8d" stroke-width="1.2" d="M271.12,-426C271.12,-426 143.38,-426 143.38,-426 137.38,-426 131.38,-420 131.38,-414 131.38,-414 131.38,-402 131.38,-402 131.38,-396 137.38,-390 143.38,-390 143.38,-390 271.12,-390 271.12,-390 277.12,-390 283.12,-396 283.12,-402 283.12,-402 283.12,-414 283.12,-414 283.12,-420 277.12,-426 271.12,-426"/>
<text xml:space="preserve" text-anchor="middle" x="207.25" y="-404.5" font-family="Arial" font-size="10.00" fill="#1a1a1a">(−) structured schematic layout</text>
</g>
<!-- unknown.layout_structure&#45;&gt;attr_4 -->
<g id="edge7" class="edge">
<title>unknown.layout_structure&#45;&gt;attr_4</title>
<path fill="none" stroke="#aaaaaa" d="M84.01,-384.07C95.84,-386.39 109.18,-389 122.59,-391.63"/>
<polygon fill="#aaaaaa" stroke="#aaaaaa" points="122.11,-394.03 129.45,-392.97 123.05,-389.22 122.11,-394.03"/>
</g>
<!-- rel_2 -->
<g id="node15" class="node">
<title>rel_2</title>
<path fill="#f5b8b8" stroke="#d46a6a" stroke-width="1.2" d="M224.25,-361C224.25,-361 190.25,-361 190.25,-361 184.25,-361 178.25,-355 178.25,-349 178.25,-349 178.25,-337 178.25,-337 178.25,-331 184.25,-325 190.25,-325 190.25,-325 224.25,-325 224.25,-325 230.25,-325 236.25,-331 236.25,-337 236.25,-337 236.25,-349 236.25,-349 236.25,-355 230.25,-361 224.25,-361"/>
<text xml:space="preserve" text-anchor="middle" x="207.25" y="-339.5" font-family="Arial" font-size="10.00" fill="#8b0000">organizes</text>
</g>
<!-- unknown.layout_structure&#45;&gt;rel_2 -->
<g id="edge12" class="edge">
<title>unknown.layout_structure&#45;&gt;rel_2</title>
<path fill="none" stroke="#d46a6a" stroke-width="1.5" d="M84.01,-367.67C109.78,-362.47 142.74,-355.82 167.94,-350.73"/>
<polygon fill="#d46a6a" stroke="#d46a6a" stroke-width="1.5" points="168.36,-353.5 175.65,-349.18 167.25,-348.01 168.36,-353.5"/>
</g>
<!-- rel_0&#45;&gt;unknown.labels -->
<g id="edge9" class="edge">
<title>rel_0&#45;&gt;unknown.labels</title>
<path fill="none" stroke="#d46a6a" stroke-width="1.5" d="M285.67,-66.34C297.87,-63.72 309.96,-61.12 320.62,-58.83"/>
<polygon fill="#d46a6a" stroke="#d46a6a" stroke-width="1.5" points="320.91,-61.63 328.15,-57.21 319.74,-56.15 320.91,-61.63"/>
</g>
<!-- rel_1&#45;&gt;unknown.nodes -->
<g id="edge11" class="edge">
<title>rel_1&#45;&gt;unknown.nodes</title>
<path fill="none" stroke="#d46a6a" stroke-width="1.5" d="M235.38,-462.62C250.89,-456.55 270.65,-448.62 288,-441 298.91,-436.21 310.64,-430.72 321.29,-425.62"/>
<polygon fill="#d46a6a" stroke="#d46a6a" stroke-width="1.5" points="322.29,-428.25 328.27,-422.24 319.85,-423.2 322.29,-428.25"/>
</g>
<!-- rel_2&#45;&gt;unknown.nodes -->
<g id="edge13" class="edge">
<title>rel_2&#45;&gt;unknown.nodes</title>
<path fill="none" stroke="#d46a6a" stroke-width="1.5" d="M236.79,-354.47C252.05,-360.69 271.12,-368.6 288,-376 298.85,-380.76 310.57,-386.11 321.22,-391.06"/>
<polygon fill="#d46a6a" stroke="#d46a6a" stroke-width="1.5" points="319.76,-393.47 328.19,-394.32 322.13,-388.39 319.76,-393.47"/>
</g>
<!-- rel_3&#45;&gt;unknown.labels -->
<g id="edge15" class="edge">
<title>rel_3&#45;&gt;unknown.labels</title>
<path fill="none" stroke="#d46a6a" stroke-width="1.5" d="M261.53,-29.82C281.04,-34.15 302.67,-38.95 320.4,-42.88"/>
<polygon fill="#d46a6a" stroke="#d46a6a" stroke-width="1.5" points="319.7,-45.59 328.12,-44.59 320.92,-40.13 319.7,-45.59"/>
</g>
</g>
</svg>
