<?xml version="1.0" encoding="UTF-8" standalone="no"?>
<!DOCTYPE svg PUBLIC "-//W3C//DTD SVG 1.1//EN"
 "http://www.w3.org/Graphics/SVG/1.1/DTD/svg11.dtd">
<!-- Generated by graphviz version 14.1.5 (20260411.2331)
 -->
<!-- Title: InfoVisJ.2576.2.png Pages: 1 -->
<svg width="887pt" height="440pt"
 viewBox="0.00 0.00 887.00 440.00" xmlns="http://www.w3.org/2000/svg" xmlns:xlink="http://www.w3.org/1999/xlink">
<g id="graph0" class="graph" transform="scale(1 1) rotate(0) translate(4 436.25)">
<title>InfoVisJ.2576.2.png</title>
<polygon fill="white" stroke="none" points="-4,4 -4,-436.25 882.5,-436.25 882.5,4 -4,4"/>
<text xml:space="preserve" text-anchor="start" x="376.25" y="-411.95" font-family="Arial" font-weight="bold" font-size="14.00">InfoVisJ.2576.2.png</text>
<text xml:space="preserve" text-anchor="start" x="393.12" y="-392" font-family="Arial" font-size="11.00">Glyph &#160;| &#160;VC = 0.55</text>
<path fill="#b8e6b8" stroke="none" d="M229.88,-367C229.88,-367 237.88,-367 237.88,-367 240.88,-367 243.88,-370 243.88,-373 243.88,-373 243.88,-379 243.88,-379 243.88,-382 240.88,-385 237.88,-385 237.88,-385 229.88,-385 229.88,-385 226.88,-385 223.88,-382 223.88,-379 223.88,-379 223.88,-373 223.88,-373 223.88,-370 226.88,-367 229.88,-367"/>
<path fill="none" stroke="black" d="M229.88,-367C229.88,-367 237.88,-367 237.88,-367 240.88,-367 243.88,-370 243.88,-373 243.88,-373 243.88,-379 243.88,-379 243.88,-382 240.88,-385 237.88,-385 237.88,-385 229.88,-385 229.88,-385 226.88,-385 223.88,-382 223.88,-379 223.88,-379 223.88,-373 223.88,-373 223.88,-370 226.88,-367 229.88,-367"/>
<text xml:space="preserve" text-anchor="start" x="232.38" y="-372.25" font-family="Arial" font-size="10.00"> </text>
<text xml:space="preserve" text-anchor="start" x="247.88" y="-372.25" font-family="Arial" font-size="10.00">Object</text>
<path fill="#c7b8e6" stroke="none" d="M286.38,-367C286.38,-367 294.38,-367 294.38,-367 297.38,-367 300.38,-370 300.38,-373 300.38,-373 300.38,-379 300.38,-379 300.38,-382 297.38,-385 294.38,-385 294.38,-385 286.38,-385 286.38,-385 283.38,-385 280.38,-382 280.38,-379 280.38,-379 280.38,-373 280.38,-373 280.38,-370 283.38,-367 286.38,-367"/>
<path fill="none" stroke="black" d="M286.38,-367C286.38,-367 294.38,-367 294.38,-367 297.38,-367 300.38,-370 300.38,-373 300.38,-373 300.38,-379 300.38,-379 300.38,-382 297.38,-385 294.38,-385 294.38,-385 286.38,-385 286.38,-385 283.38,-385 280.38,-382 280.38,-379 280.38,-379 280.38,-373 280.38,-373 280.38,-370 283.38,-367 286.38,-367"/>
<text xml:space="preserve" text-anchor="start" x="288.88" y="-372.25" font-family="Arial" font-size="10.00"> </text>
<text xml:space="preserve" text-anchor="start" x="304.38" y="-372.25" font-family="Arial" font-size="10.00">Attribute</text>
<path fill="#f5b8b8" stroke="none" d="M351.12,-367C351.12,-367 359.12,-367 359.12,-367 362.12,-367 365.12,-370 365.12,-373 365.12,-373 365.12,-379 365.12,-379 365.12,-382 362.12,-385 359.12,-385 359.12,-385 351.12,-385 351.12,-385 348.12,-385 345.12,-382 345.12,-379 345.12,-379 345.12,-373 345.12,-373 345.12,-370 348.12,-367 351.12,-367"/>
<path fill="none" stroke="black" d="M351.12,-367C351.12,-367 359.12,-367 359.12,-367 362.12,-367 365.12,-370 365.12,-373 365.12,-373 365.12,-379 365.12,-379 365.12,-382 362.12,-385 359.12,-385 359.12,-385 351.12,-385 351.12,-385 348.12,-385 345.12,-382 345.12,-379 345.12,-379 345.12,-373 345.12,-373 345.12,-370 348.12,-367 351.12,-367"/>
<text xml:space="preserve" text-anchor="start" x="353.62" y="-372.25" font-family="Arial" font-size="10.00"> </text>
<text xml:space="preserve" text-anchor="start" x="369.12" y="-372.25" font-family="Arial" font-size="10.00">Relationship</text>
<text xml:space="preserve" text-anchor="start" x="429.12" y="-373.5" font-family="Arial" font-weight="bold" font-size="10.00">(+)</text>
<text xml:space="preserve" text-anchor="start" x="441.12" y="-373.5" font-family="Arial" font-size="10.00"> increases complexity</text>
<text xml:space="preserve" text-anchor="start" x="542.38" y="-373.5" font-family="Arial" font-weight="bold" font-size="10.00">(−)</text>
<text xml:space="preserve" text-anchor="start" x="554.38" y="-373.5" font-family="Arial" font-size="10.00"> decreases complexity</text>
<!-- unknown.glyph_symbol -->
<g id="node1" class="node">
<title>unknown.glyph_symbol</title>
<path fill="#b8e6b8" stroke="#2c3e50" stroke-width="1.8" d="M384.5,-166C384.5,-166 334.75,-166 334.75,-166 328.75,-166 322.75,-160 322.75,-154 322.75,-154 322.75,-142 322.75,-142 322.75,-136 328.75,-130 334.75,-130 334.75,-130 384.5,-130 384.5,-130 390.5,-130 396.5,-136 396.5,-142 396.5,-142 396.5,-154 396.5,-154 396.5,-160 390.5,-166 384.5,-166"/>
<text xml:space="preserve" text-anchor="middle" x="359.62" y="-144.5" font-family="Arial" font-size="10.00" fill="#1a1a1a">glyph symbol</text>
</g>
<!-- attr_0 -->
<g id="node6" class="node">
<title>attr_0</title>
<path fill="#c7b8e6" stroke="#7f8c8d" stroke-width="1.2" d="M581.5,-231C581.5,-231 451.5,-231 451.5,-231 445.5,-231 439.5,-225 439.5,-219 439.5,-219 439.5,-207 439.5,-207 439.5,-201 445.5,-195 451.5,-195 451.5,-195 581.5,-195 581.5,-195 587.5,-195 593.5,-201 593.5,-207 593.5,-207 593.5,-219 593.5,-219 593.5,-225 587.5,-231 581.5,-231"/>
<text xml:space="preserve" text-anchor="middle" x="516.5" y="-209.5" font-family="Arial" font-size="10.00" fill="#1a1a1a">(−) easily recognizable symbols</text>
</g>
<!-- unknown.glyph_symbol&#45;&gt;attr_0 -->
<g id="edge1" class="edge">
<title>unknown.glyph_symbol&#45;&gt;attr_0</title>
<path fill="none" stroke="#aaaaaa" d="M397.33,-163.4C417.09,-171.7 441.79,-182.06 463.49,-191.17"/>
<polygon fill="#aaaaaa" stroke="#aaaaaa" points="462.54,-193.43 469.94,-193.88 464.44,-188.91 462.54,-193.43"/>
</g>
<!-- attr_1 -->
<g id="node7" class="node">
<title>attr_1</title>
<path fill="#c7b8e6" stroke="#7f8c8d" stroke-width="1.2" d="M568,-166C568,-166 465,-166 465,-166 459,-166 453,-160 453,-154 453,-154 453,-142 453,-142 453,-136 459,-130 465,-130 465,-130 568,-130 568,-130 574,-130 580,-136 580,-142 580,-142 580,-154 580,-154 580,-160 574,-166 568,-166"/>
<text xml:space="preserve" text-anchor="middle" x="516.5" y="-144.5" font-family="Arial" font-size="10.00" fill="#1a1a1a">(−) familiar representation</text>
</g>
<!-- unknown.glyph_symbol&#45;&gt;attr_1 -->
<g id="edge2" class="edge">
<title>unknown.glyph_symbol&#45;&gt;attr_1</title>
<path fill="none" stroke="#aaaaaa" d="M397.33,-148C411.34,-148 427.85,-148 444.01,-148"/>
<polygon fill="#aaaaaa" stroke="#aaaaaa" points="443.9,-150.45 450.9,-148 443.9,-145.55 443.9,-150.45"/>
</g>
<!-- rel_2 -->
<g id="node14" class="node">
<title>rel_2</title>
<path fill="#f5b8b8" stroke="#d46a6a" stroke-width="1.2" d="M531.5,-101C531.5,-101 501.5,-101 501.5,-101 495.5,-101 489.5,-95 489.5,-89 489.5,-89 489.5,-77 489.5,-77 489.5,-71 495.5,-65 501.5,-65 501.5,-65 531.5,-65 531.5,-65 537.5,-65 543.5,-71 543.5,-77 543.5,-77 543.5,-89 543.5,-89 543.5,-95 537.5,-101 531.5,-101"/>
<text xml:space="preserve" text-anchor="middle" x="516.5" y="-79.5" font-family="Arial" font-size="10.00" fill="#8b0000">supports</text>
</g>
<!-- unknown.glyph_symbol&#45;&gt;rel_2 -->
<g id="edge11" class="edge">
<title>unknown.glyph_symbol&#45;&gt;rel_2</title>
<path fill="none" stroke="#d46a6a" stroke-width="1.5" d="M397.33,-132.6C422.28,-122.12 455.13,-108.34 479.85,-97.96"/>
<polygon fill="#d46a6a" stroke="#d46a6a" stroke-width="1.5" points="480.85,-100.58 487.14,-94.9 478.68,-95.42 480.85,-100.58"/>
</g>
<!-- text.label -->
<g id="node2" class="node">
<title>text.label</title>
<path fill="#b8e6b8" stroke="#2c3e50" stroke-width="1.8" d="M60.12,-68C60.12,-68 30.12,-68 30.12,-68 24.12,-68 18.12,-62 18.12,-56 18.12,-56 18.12,-44 18.12,-44 18.12,-38 24.12,-32 30.12,-32 30.12,-32 60.12,-32 60.12,-32 66.12,-32 72.12,-38 72.12,-44 72.12,-44 72.12,-56 72.12,-56 72.12,-62 66.12,-68 60.12,-68"/>
<text xml:space="preserve" text-anchor="middle" x="45.12" y="-46.5" font-family="Arial" font-size="10.00" fill="#1a1a1a">label</text>
</g>
<!-- attr_2 -->
<g id="node8" class="node">
<title>attr_2</title>
<path fill="#c7b8e6" stroke="#7f8c8d" stroke-width="1.2" d="M255.75,-101C255.75,-101 157.25,-101 157.25,-101 151.25,-101 145.25,-95 145.25,-89 145.25,-89 145.25,-77 145.25,-77 145.25,-71 151.25,-65 157.25,-65 157.25,-65 255.75,-65 255.75,-65 261.75,-65 267.75,-71 267.75,-77 267.75,-77 267.75,-89 267.75,-89 267.75,-95 261.75,-101 255.75,-101"/>
<text xml:space="preserve" text-anchor="middle" x="206.5" y="-79.5" font-family="Arial" font-size="10.00" fill="#1a1a1a">(−) clear sufficient labels</text>
</g>
<!-- text.label&#45;&gt;attr_2 -->
<g id="edge3" class="edge">
<title>text.label&#45;&gt;attr_2</title>
<path fill="none" stroke="#aaaaaa" d="M72.8,-55.52C90.32,-59.15 114.1,-64.07 136.69,-68.75"/>
<polygon fill="#aaaaaa" stroke="#aaaaaa" points="136.11,-71.13 143.46,-70.15 137.1,-66.34 136.11,-71.13"/>
</g>
<!-- rel_1 -->
<g id="node13" class="node">
<title>rel_1</title>
<path fill="#f5b8b8" stroke="#d46a6a" stroke-width="1.2" d="M221.5,-36C221.5,-36 191.5,-36 191.5,-36 185.5,-36 179.5,-30 179.5,-24 179.5,-24 179.5,-12 179.5,-12 179.5,-6 185.5,0 191.5,0 191.5,0 221.5,0 221.5,0 227.5,0 233.5,-6 233.5,-12 233.5,-12 233.5,-24 233.5,-24 233.5,-30 227.5,-36 221.5,-36"/>
<text xml:space="preserve" text-anchor="middle" x="206.5" y="-14.5" font-family="Arial" font-size="10.00" fill="#8b0000">clarifies</text>
</g>
<!-- text.label&#45;&gt;rel_1 -->
<g id="edge9" class="edge">
<title>text.label&#45;&gt;rel_1</title>
<path fill="none" stroke="#d46a6a" stroke-width="1.5" d="M72.8,-44.64C99.2,-39.34 139.8,-31.19 169.14,-25.3"/>
<polygon fill="#d46a6a" stroke="#d46a6a" stroke-width="1.5" points="169.48,-28.09 176.78,-23.77 168.38,-22.6 169.48,-28.09"/>
</g>
<!-- unknown.section_boundary -->
<g id="node3" class="node">
<title>unknown.section_boundary</title>
<path fill="#b8e6b8" stroke="#2c3e50" stroke-width="1.8" d="M78.25,-231C78.25,-231 12,-231 12,-231 6,-231 0,-225 0,-219 0,-219 0,-207 0,-207 0,-201 6,-195 12,-195 12,-195 78.25,-195 78.25,-195 84.25,-195 90.25,-201 90.25,-207 90.25,-207 90.25,-219 90.25,-219 90.25,-225 84.25,-231 78.25,-231"/>
<text xml:space="preserve" text-anchor="middle" x="45.12" y="-209.5" font-family="Arial" font-size="10.00" fill="#1a1a1a">section boundary</text>
</g>
<!-- attr_3 -->
<g id="node9" class="node">
<title>attr_3</title>
<path fill="#c7b8e6" stroke="#7f8c8d" stroke-width="1.2" d="M267.75,-296C267.75,-296 145.25,-296 145.25,-296 139.25,-296 133.25,-290 133.25,-284 133.25,-284 133.25,-272 133.25,-272 133.25,-266 139.25,-260 145.25,-260 145.25,-260 267.75,-260 267.75,-260 273.75,-260 279.75,-266 279.75,-272 279.75,-272 279.75,-284 279.75,-284 279.75,-290 273.75,-296 267.75,-296"/>
<text xml:space="preserve" text-anchor="middle" x="206.5" y="-274.5" font-family="Arial" font-size="10.00" fill="#1a1a1a">(−) clearly delineated sections</text>
</g>
<!-- unknown.section_boundary&#45;&gt;attr_3 -->
<g id="edge4" class="edge">
<title>unknown.section_boundary&#45;&gt;attr_3</title>
<path fill="none" stroke="#aaaaaa" d="M90.94,-231.28C109.96,-239.04 132.28,-248.14 152.15,-256.24"/>
<polygon fill="#aaaaaa" stroke="#aaaaaa" points="151.1,-258.46 158.51,-258.84 152.95,-253.92 151.1,-258.46"/>
</g>
<!-- rel_0 -->
<g id="node12" class="node">
<title>rel_0</title>
<path fill="#f5b8b8" stroke="#d46a6a" stroke-width="1.2" d="M247.5,-231C247.5,-231 165.5,-231 165.5,-231 159.5,-231 153.5,-225 153.5,-219 153.5,-219 153.5,-207 153.5,-207 153.5,-201 159.5,-195 165.5,-195 165.5,-195 247.5,-195 247.5,-195 253.5,-195 259.5,-201 259.5,-207 259.5,-207 259.5,-219 259.5,-219 259.5,-225 253.5,-231 247.5,-231"/>
<text xml:space="preserve" text-anchor="middle" x="206.5" y="-209.5" font-family="Arial" font-size="10.00" fill="#8b0000">reduces ambiguity in</text>
</g>
<!-- unknown.section_boundary&#45;&gt;rel_0 -->
<g id="edge7" class="edge">
<title>unknown.section_boundary&#45;&gt;rel_0</title>
<path fill="none" stroke="#d46a6a" stroke-width="1.5" d="M90.94,-213C107.11,-213 125.65,-213 143.05,-213"/>
<polygon fill="#d46a6a" stroke="#d46a6a" stroke-width="1.5" points="142.86,-215.8 150.86,-213 142.86,-210.2 142.86,-215.8"/>
</g>
<!-- rel_3 -->
<g id="node15" class="node">
<title>rel_3</title>
<path fill="#f5b8b8" stroke="#d46a6a" stroke-width="1.2" d="M223.5,-166C223.5,-166 189.5,-166 189.5,-166 183.5,-166 177.5,-160 177.5,-154 177.5,-154 177.5,-142 177.5,-142 177.5,-136 183.5,-130 189.5,-130 189.5,-130 223.5,-130 223.5,-130 229.5,-130 235.5,-136 235.5,-142 235.5,-142 235.5,-154 235.5,-154 235.5,-160 229.5,-166 223.5,-166"/>
<text xml:space="preserve" text-anchor="middle" x="206.5" y="-144.5" font-family="Arial" font-size="10.00" fill="#8b0000">organizes</text>
</g>
<!-- unknown.section_boundary&#45;&gt;rel_3 -->
<g id="edge13" class="edge">
<title>unknown.section_boundary&#45;&gt;rel_3</title>
<path fill="none" stroke="#d46a6a" stroke-width="1.5" d="M90.94,-194.72C115.11,-184.86 144.61,-172.83 167.62,-163.45"/>
<polygon fill="#d46a6a" stroke="#d46a6a" stroke-width="1.5" points="168.6,-166.07 174.95,-160.46 166.48,-160.89 168.6,-166.07"/>
</g>
<!-- text.axis_label -->
<g id="node4" class="node">
<title>text.axis_label</title>
<path fill="#b8e6b8" stroke="#2c3e50" stroke-width="1.8" d="M61.75,-361C61.75,-361 28.5,-361 28.5,-361 22.5,-361 16.5,-355 16.5,-349 16.5,-349 16.5,-337 16.5,-337 16.5,-331 22.5,-325 28.5,-325 28.5,-325 61.75,-325 61.75,-325 67.75,-325 73.75,-331 73.75,-337 73.75,-337 73.75,-349 73.75,-349 73.75,-355 67.75,-361 61.75,-361"/>
<text xml:space="preserve" text-anchor="middle" x="45.12" y="-339.5" font-family="Arial" font-size="10.00" fill="#1a1a1a">axis label</text>
</g>
<!-- attr_4 -->
<g id="node10" class="node">
<title>attr_4</title>
<path fill="#c7b8e6" stroke="#7f8c8d" stroke-width="1.2" d="M261,-361C261,-361 152,-361 152,-361 146,-361 140,-355 140,-349 140,-349 140,-337 140,-337 140,-331 146,-325 152,-325 152,-325 261,-325 261,-325 267,-325 273,-331 273,-337 273,-337 273,-349 273,-349 273,-355 267,-361 261,-361"/>
<text xml:space="preserve" text-anchor="middle" x="206.5" y="-339.5" font-family="Arial" font-size="10.00" fill="#1a1a1a">(−) multiple readable labels</text>
</g>
<!-- text.axis_label&#45;&gt;attr_4 -->
<g id="edge5" class="edge">
<title>text.axis_label&#45;&gt;attr_4</title>
<path fill="none" stroke="#aaaaaa" d="M74.62,-343C90.51,-343 111.12,-343 131.27,-343"/>
<polygon fill="#aaaaaa" stroke="#aaaaaa" points="131.04,-345.45 138.04,-343 131.04,-340.55 131.04,-345.45"/>
</g>
<!-- furniture.legend -->
<g id="node5" class="node">
<title>furniture.legend</title>
<path fill="#b8e6b8" stroke="#2c3e50" stroke-width="1.8" d="M678.5,-101C678.5,-101 648.5,-101 648.5,-101 642.5,-101 636.5,-95 636.5,-89 636.5,-89 636.5,-77 636.5,-77 636.5,-71 642.5,-65 648.5,-65 648.5,-65 678.5,-65 678.5,-65 684.5,-65 690.5,-71 690.5,-77 690.5,-77 690.5,-89 690.5,-89 690.5,-95 684.5,-101 678.5,-101"/>
<text xml:space="preserve" text-anchor="middle" x="663.5" y="-79.5" font-family="Arial" font-size="10.00" fill="#1a1a1a">legend</text>
</g>
<!-- attr_5 -->
<g id="node11" class="node">
<title>attr_5</title>
<path fill="#c7b8e6" stroke="#7f8c8d" stroke-width="1.2" d="M866.5,-101C866.5,-101 745.5,-101 745.5,-101 739.5,-101 733.5,-95 733.5,-89 733.5,-89 733.5,-77 733.5,-77 733.5,-71 739.5,-65 745.5,-65 745.5,-65 866.5,-65 866.5,-65 872.5,-65 878.5,-71 878.5,-77 878.5,-77 878.5,-89 878.5,-89 878.5,-95 872.5,-101 866.5,-101"/>
<text xml:space="preserve" text-anchor="middle" x="806" y="-79.5" font-family="Arial" font-size="10.00" fill="#1a1a1a">(−) interpretable encoding key</text>
</g>
<!-- furniture.legend&#45;&gt;attr_5 -->
<g id="edge6" class="edge">
<title>furniture.legend&#45;&gt;attr_5</title>
<path fill="none" stroke="#aaaaaa" d="M691.26,-83C701.03,-83 712.64,-83 724.66,-83"/>
<polygon fill="#aaaaaa" stroke="#aaaaaa" points="724.52,-85.45 731.52,-83 724.52,-80.55 724.52,-85.45"/>
</g>
<!-- rel_0&#45;&gt;unknown.glyph_symbol -->
<g id="edge8" class="edge">
<title>rel_0&#45;&gt;unknown.glyph_symbol</title>
<path fill="none" stroke="#d46a6a" stroke-width="1.5" d="M250.4,-194.55C269.83,-186.19 292.81,-176.31 312.6,-167.8"/>
<polygon fill="#d46a6a" stroke="#d46a6a" stroke-width="1.5" points="313.69,-170.37 319.94,-164.64 311.48,-165.23 313.69,-170.37"/>
</g>
<!-- rel_1&#45;&gt;unknown.glyph_symbol -->
<g id="edge10" class="edge">
<title>rel_1&#45;&gt;unknown.glyph_symbol</title>
<path fill="none" stroke="#d46a6a" stroke-width="1.5" d="M233.87,-26.23C248.33,-31.55 266.04,-39.47 279.75,-50 305.32,-69.64 327.64,-99.23 341.94,-120.75"/>
<polygon fill="#d46a6a" stroke="#d46a6a" stroke-width="1.5" points="339.45,-122.05 346.15,-127.24 344.14,-119 339.45,-122.05"/>
</g>
<!-- rel_2&#45;&gt;furniture.legend -->
<g id="edge12" class="edge">
<title>rel_2&#45;&gt;furniture.legend</title>
<path fill="none" stroke="#d46a6a" stroke-width="1.5" d="M544.1,-83C567.09,-83 600.55,-83 626.04,-83"/>
<polygon fill="#d46a6a" stroke="#d46a6a" stroke-width="1.5" points="625.8,-85.8 633.8,-83 625.8,-80.2 625.8,-85.8"/>
</g>
<!-- rel_3&#45;&gt;unknown.glyph_symbol -->
<g id="edge14" class="edge">
<title>rel_3&#45;&gt;unknown.glyph_symbol</title>
<path fill="none" stroke="#d46a6a" stroke-width="1.5" d="M235.93,-148C257.34,-148 287.17,-148 312.06,-148"/>
<polygon fill="#d46a6a" stroke="#d46a6a" stroke-width="1.5" points="311.75,-150.8 319.75,-148 311.75,-145.2 311.75,-150.8"/>
</g>
</g>
</svg>
