<?xml version="1.0" encoding="UTF-8" standalone="no"?>
<!DOCTYPE svg PUBLIC "-//W3C//DTD SVG 1.1//EN"
 "http://www.w3.org/Graphics/SVG/1.1/DTD/svg11.dtd">
<!-- Generated by graphviz version 14.1.5 (20260411.2331)
 -->
<!-- Title: InfoVisJ.963.7.png Pages: 1 -->
<svg width="483pt" height="570pt"
 viewBox="0.00 0.00 483.00 570.00" xmlns="http://www.w3.org/2000/svg" xmlns:xlink="http://www.w3.org/1999/xlink">
<g id="graph0" class="graph" transform="scale(1 1) rotate(0) translate(4 566.25)">
<title>InfoVisJ.963.7.png</title>
<polygon fill="white" stroke="none" points="-4,4 -4,-566.25 478.5,-566.25 478.5,4 -4,4"/>
<text xml:space="preserve" text-anchor="start" x="178" y="-541.95" font-family="Arial" font-weight="bold" font-size="14.00">InfoVisJ.963.7.png</text>
<text xml:space="preserve" text-anchor="start" x="194.88" y="-522" font-family="Arial" font-size="11.00">Grid &#160;| &#160;VC = 0.51</text>
<path fill="#b8e6b8" stroke="none" d="M27.88,-497C27.88,-497 35.88,-497 35.88,-497 38.88,-497 41.88,-500 41.88,-503 41.88,-503 41.88,-509 41.88,-509 41.88,-512 38.88,-515 35.88,-515 35.88,-515 27.88,-515 27.88,-515 24.88,-515 21.88,-512 21.88,-509 21.88,-509 21.88,-503 21.88,-503 21.88,-500 24.88,-497 27.88,-497"/>
<path fill="none" stroke="black" d="M27.88,-497C27.88,-497 35.88,-497 35.88,-497 38.88,-497 41.88,-500 41.88,-503 41.88,-503 41.88,-509 41.88,-509 41.88,-512 38.88,-515 35.88,-515 35.88,-515 27.88,-515 27.88,-515 24.88,-515 21.88,-512 21.88,-509 21.88,-509 21.88,-503 21.88,-503 21.88,-500 24.88,-497 27.88,-497"/>
<text xml:space="preserve" text-anchor="start" x="30.38" y="-502.25" font-family="Arial" font-size="10.00"> </text>
<text xml:space="preserve" text-anchor="start" x="45.88" y="-502.25" font-family="Arial" font-size="10.00">Object</text>
<path fill="#c7b8e6" stroke="none" d="M84.38,-497C84.38,-497 92.38,-497 92.38,-497 95.38,-497 98.38,-500 98.38,-503 98.38,-503 98.38,-509 98.38,-509 98.38,-512 95.38,-515 92.38,-515 92.38,-515 84.38,-515 84.38,-515 81.38,-515 78.38,-512 78.38,-509 78.38,-509 78.38,-503 78.38,-503 78.38,-500 81.38,-497 84.38,-497"/>
<path fill="none" stroke="black" d="M84.38,-497C84.38,-497 92.38,-497 92.38,-497 95.38,-497 98.38,-500 98.38,-503 98.38,-503 98.38,-509 98.38,-509 98.38,-512 95.38,-515 92.38,-515 92.38,-515 84.38,-515 84.38,-515 81.38,-515 78.38,-512 78.38,-509 78.38,-509 78.38,-503 78.38,-503 78.38,-500 81.38,-497 84.38,-497"/>
<text xml:space="preserve" text-anchor="start" x="86.88" y="-502.25" font-family="Arial" font-size="10.00"> </text>
<text xml:space="preserve" text-anchor="start" x="102.38" y="-502.25" font-family="Arial" font-size="10.00">Attribute</text>
<path fill="#f5b8b8" stroke="none" d="M149.12,-497C149.12,-497 157.12,-497 157.12,-497 160.12,-497 163.12,-500 163.12,-503 163.12,-503 163.12,-509 163.12,-509 163.12,-512 160.12,-515 157.12,-515 157.12,-515 149.12,-515 149.12,-515 146.12,-515 143.12,-512 143.12,-509 143.12,-509 143.12,-503 143.12,-503 143.12,-500 146.12,-497 149.12,-497"/>
<path fill="none" stroke="black" d="M149.12,-497C149.12,-497 157.12,-497 157.12,-497 160.12,-497 163.12,-500 163.12,-503 163.12,-503 163.12,-509 163.12,-509 163.12,-512 160.12,-515 157.12,-515 157.12,-515 149.12,-515 149.12,-515 146.12,-515 143.12,-512 143.12,-509 143.12,-509 143.12,-503 143.12,-503 143.12,-500 146.12,-497 149.12,-497"/>
<text xml:space="preserve" text-anchor="start" x="151.62" y="-502.25" font-family="Arial" font-size="10.00"> </text>
<text xml:space="preserve" text-anchor="start" x="167.12" y="-502.25" font-family="Arial" font-size="10.00">Relationship</text>
<text xml:space="preserve" text-anchor="start" x="227.12" y="-503.5" font-family="Arial" font-weight="bold" font-size="10.00">(+)</text>
<text xml:space="preserve" text-anchor="start" x="239.12" y="-503.5" font-family="Arial" font-size="10.00"> increases complexity</text>
<text xml:space="preserve" text-anchor="start" x="340.38" y="-503.5" font-family="Arial" font-weight="bold" font-size="10.00">(−)</text>
<text xml:space="preserve" text-anchor="start" x="352.38" y="-503.5" font-family="Arial" font-size="10.00"> decreases complexity</text>
<!-- structure.grid -->
<g id="node1" class="node">
<title>structure.grid</title>
<path fill="#b8e6b8" stroke="#2c3e50" stroke-width="1.8" d="M310.5,-231C310.5,-231 280.5,-231 280.5,-231 274.5,-231 268.5,-225 268.5,-219 268.5,-219 268.5,-207 268.5,-207 268.5,-201 274.5,-195 280.5,-195 280.5,-195 310.5,-195 310.5,-195 316.5,-195 322.5,-201 322.5,-207 322.5,-207 322.5,-219 322.5,-219 322.5,-225 316.5,-231 310.5,-231"/>
<text xml:space="preserve" text-anchor="middle" x="295.5" y="-209.5" font-family="Arial" font-size="10.00" fill="#1a1a1a">grid</text>
</g>
<!-- attr_0 -->
<g id="node6" class="node">
<title>attr_0</title>
<path fill="#c7b8e6" stroke="#7f8c8d" stroke-width="1.2" d="M462.5,-231C462.5,-231 377.5,-231 377.5,-231 371.5,-231 365.5,-225 365.5,-219 365.5,-219 365.5,-207 365.5,-207 365.5,-201 371.5,-195 377.5,-195 377.5,-195 462.5,-195 462.5,-195 468.5,-195 474.5,-201 474.5,-207 474.5,-207 474.5,-219 474.5,-219 474.5,-225 468.5,-231 462.5,-231"/>
<text xml:space="preserve" text-anchor="middle" x="420" y="-209.5" font-family="Arial" font-size="10.00" fill="#1a1a1a">(−) simple to interpret</text>
</g>
<!-- structure.grid&#45;&gt;attr_0 -->
<g id="edge1" class="edge">
<title>structure.grid&#45;&gt;attr_0</title>
<path fill="none" stroke="#aaaaaa" d="M323.38,-213C333.24,-213 344.86,-213 356.54,-213"/>
<polygon fill="#aaaaaa" stroke="#aaaaaa" points="356.52,-215.45 363.52,-213 356.52,-210.55 356.52,-215.45"/>
</g>
<!-- structure.layout -->
<g id="node2" class="node">
<title>structure.layout</title>
<path fill="#b8e6b8" stroke="#2c3e50" stroke-width="1.8" d="M42,-458C42,-458 12,-458 12,-458 6,-458 0,-452 0,-446 0,-446 0,-434 0,-434 0,-428 6,-422 12,-422 12,-422 42,-422 42,-422 48,-422 54,-428 54,-434 54,-434 54,-446 54,-446 54,-452 48,-458 42,-458"/>
<text xml:space="preserve" text-anchor="middle" x="27" y="-436.5" font-family="Arial" font-size="10.00" fill="#1a1a1a">layout</text>
</g>
<!-- attr_1 -->
<g id="node7" class="node">
<title>attr_1</title>
<path fill="#c7b8e6" stroke="#7f8c8d" stroke-width="1.2" d="M213.5,-491C213.5,-491 109,-491 109,-491 103,-491 97,-485 97,-479 97,-479 97,-467 97,-467 97,-461 103,-455 109,-455 109,-455 213.5,-455 213.5,-455 219.5,-455 225.5,-461 225.5,-467 225.5,-467 225.5,-479 225.5,-479 225.5,-485 219.5,-491 213.5,-491"/>
<text xml:space="preserve" text-anchor="middle" x="161.25" y="-469.5" font-family="Arial" font-size="10.00" fill="#1a1a1a">(−) clean organized layout</text>
</g>
<!-- structure.layout&#45;&gt;attr_1 -->
<g id="edge2" class="edge">
<title>structure.layout&#45;&gt;attr_1</title>
<path fill="none" stroke="#aaaaaa" d="M54.76,-446.68C64.73,-449.17 76.58,-452.12 88.67,-455.14"/>
<polygon fill="#aaaaaa" stroke="#aaaaaa" points="87.77,-457.44 95.16,-456.76 88.96,-452.69 87.77,-457.44"/>
</g>
<!-- rel_0 -->
<g id="node11" class="node">
<title>rel_0</title>
<path fill="#f5b8b8" stroke="#d46a6a" stroke-width="1.2" d="M176.25,-426C176.25,-426 146.25,-426 146.25,-426 140.25,-426 134.25,-420 134.25,-414 134.25,-414 134.25,-402 134.25,-402 134.25,-396 140.25,-390 146.25,-390 146.25,-390 176.25,-390 176.25,-390 182.25,-390 188.25,-396 188.25,-402 188.25,-402 188.25,-414 188.25,-414 188.25,-420 182.25,-426 176.25,-426"/>
<text xml:space="preserve" text-anchor="middle" x="161.25" y="-404.5" font-family="Arial" font-size="10.00" fill="#8b0000">reduces</text>
</g>
<!-- structure.layout&#45;&gt;rel_0 -->
<g id="edge6" class="edge">
<title>structure.layout&#45;&gt;rel_0</title>
<path fill="none" stroke="#d46a6a" stroke-width="1.5" d="M54.76,-433.52C74.7,-428.7 102.15,-422.06 124.04,-416.76"/>
<polygon fill="#d46a6a" stroke="#d46a6a" stroke-width="1.5" points="124.65,-419.49 131.77,-414.89 123.34,-414.05 124.65,-419.49"/>
</g>
<!-- property.color -->
<g id="node3" class="node">
<title>property.color</title>
<path fill="#b8e6b8" stroke="#2c3e50" stroke-width="1.8" d="M42,-329C42,-329 12,-329 12,-329 6,-329 0,-323 0,-317 0,-317 0,-305 0,-305 0,-299 6,-293 12,-293 12,-293 42,-293 42,-293 48,-293 54,-299 54,-305 54,-305 54,-317 54,-317 54,-323 48,-329 42,-329"/>
<text xml:space="preserve" text-anchor="middle" x="27" y="-307.5" font-family="Arial" font-size="10.00" fill="#1a1a1a">color</text>
</g>
<!-- attr_2 -->
<g id="node8" class="node">
<title>attr_2</title>
<path fill="#c7b8e6" stroke="#7f8c8d" stroke-width="1.2" d="M204.5,-361C204.5,-361 118,-361 118,-361 112,-361 106,-355 106,-349 106,-349 106,-337 106,-337 106,-331 112,-325 118,-325 118,-325 204.5,-325 204.5,-325 210.5,-325 216.5,-331 216.5,-337 216.5,-337 216.5,-349 216.5,-349 216.5,-355 210.5,-361 204.5,-361"/>
<text xml:space="preserve" text-anchor="middle" x="161.25" y="-339.5" font-family="Arial" font-size="10.00" fill="#1a1a1a">(−) limited color range</text>
</g>
<!-- property.color&#45;&gt;attr_2 -->
<g id="edge3" class="edge">
<title>property.color&#45;&gt;attr_2</title>
<path fill="none" stroke="#aaaaaa" d="M54.76,-317.48C67.23,-320.49 82.64,-324.22 97.78,-327.89"/>
<polygon fill="#aaaaaa" stroke="#aaaaaa" points="96.81,-330.17 104.19,-329.44 97.97,-325.41 96.81,-330.17"/>
</g>
<!-- rel_1 -->
<g id="node12" class="node">
<title>rel_1</title>
<path fill="#f5b8b8" stroke="#d46a6a" stroke-width="1.2" d="M176.25,-296C176.25,-296 146.25,-296 146.25,-296 140.25,-296 134.25,-290 134.25,-284 134.25,-284 134.25,-272 134.25,-272 134.25,-266 140.25,-260 146.25,-260 146.25,-260 176.25,-260 176.25,-260 182.25,-260 188.25,-266 188.25,-272 188.25,-272 188.25,-284 188.25,-284 188.25,-290 182.25,-296 176.25,-296"/>
<text xml:space="preserve" text-anchor="middle" x="161.25" y="-274.5" font-family="Arial" font-size="10.00" fill="#8b0000">supports</text>
</g>
<!-- property.color&#45;&gt;rel_1 -->
<g id="edge8" class="edge">
<title>property.color&#45;&gt;rel_1</title>
<path fill="none" stroke="#d46a6a" stroke-width="1.5" d="M54.76,-304.32C74.7,-299.35 102.15,-292.5 124.04,-287.03"/>
<polygon fill="#d46a6a" stroke="#d46a6a" stroke-width="1.5" points="124.69,-289.76 131.78,-285.11 123.34,-284.33 124.69,-289.76"/>
</g>
<!-- text.label -->
<g id="node4" class="node">
<title>text.label</title>
<path fill="#b8e6b8" stroke="#2c3e50" stroke-width="1.8" d="M42,-69C42,-69 12,-69 12,-69 6,-69 0,-63 0,-57 0,-57 0,-45 0,-45 0,-39 6,-33 12,-33 12,-33 42,-33 42,-33 48,-33 54,-39 54,-45 54,-45 54,-57 54,-57 54,-63 48,-69 42,-69"/>
<text xml:space="preserve" text-anchor="middle" x="27" y="-47.5" font-family="Arial" font-size="10.00" fill="#1a1a1a">label</text>
</g>
<!-- attr_4 -->
<g id="node9" class="node">
<title>attr_4</title>
<path fill="#c7b8e6" stroke="#7f8c8d" stroke-width="1.2" d="M209,-101C209,-101 113.5,-101 113.5,-101 107.5,-101 101.5,-95 101.5,-89 101.5,-89 101.5,-77 101.5,-77 101.5,-71 107.5,-65 113.5,-65 113.5,-65 209,-65 209,-65 215,-65 221,-71 221,-77 221,-77 221,-89 221,-89 221,-95 215,-101 209,-101"/>
<text xml:space="preserve" text-anchor="middle" x="161.25" y="-79.5" font-family="Arial" font-size="10.00" fill="#1a1a1a">(−) minimal text present</text>
</g>
<!-- text.label&#45;&gt;attr_4 -->
<g id="edge4" class="edge">
<title>text.label&#45;&gt;attr_4</title>
<path fill="none" stroke="#aaaaaa" d="M54.76,-57.48C65.93,-60.18 79.45,-63.45 93.04,-66.74"/>
<polygon fill="#aaaaaa" stroke="#aaaaaa" points="92.17,-69.05 99.55,-68.31 93.33,-64.29 92.17,-69.05"/>
</g>
<!-- rel_3 -->
<g id="node14" class="node">
<title>rel_3</title>
<path fill="#f5b8b8" stroke="#d46a6a" stroke-width="1.2" d="M176.25,-36C176.25,-36 146.25,-36 146.25,-36 140.25,-36 134.25,-30 134.25,-24 134.25,-24 134.25,-12 134.25,-12 134.25,-6 140.25,0 146.25,0 146.25,0 176.25,0 176.25,0 182.25,0 188.25,-6 188.25,-12 188.25,-12 188.25,-24 188.25,-24 188.25,-30 182.25,-36 176.25,-36"/>
<text xml:space="preserve" text-anchor="middle" x="161.25" y="-14.5" font-family="Arial" font-size="10.00" fill="#8b0000">clarifies</text>
</g>
<!-- text.label&#45;&gt;rel_3 -->
<g id="edge12" class="edge">
<title>text.label&#45;&gt;rel_3</title>
<path fill="none" stroke="#d46a6a" stroke-width="1.5" d="M54.76,-44.32C74.7,-39.35 102.15,-32.5 124.04,-27.03"/>
<polygon fill="#d46a6a" stroke="#d46a6a" stroke-width="1.5" points="124.69,-29.76 131.78,-25.11 123.34,-24.33 124.69,-29.76"/>
</g>
<!-- structure.cell -->
<g id="node5" class="node">
<title>structure.cell</title>
<path fill="#b8e6b8" stroke="#2c3e50" stroke-width="1.8" d="M42,-199C42,-199 12,-199 12,-199 6,-199 0,-193 0,-187 0,-187 0,-175 0,-175 0,-169 6,-163 12,-163 12,-163 42,-163 42,-163 48,-163 54,-169 54,-175 54,-175 54,-187 54,-187 54,-193 48,-199 42,-199"/>
<text xml:space="preserve" text-anchor="middle" x="27" y="-177.5" font-family="Arial" font-size="10.00" fill="#1a1a1a">cell</text>
</g>
<!-- attr_3 -->
<g id="node10" class="node">
<title>attr_3</title>
<path fill="#c7b8e6" stroke="#7f8c8d" stroke-width="1.2" d="M212,-231C212,-231 110.5,-231 110.5,-231 104.5,-231 98.5,-225 98.5,-219 98.5,-219 98.5,-207 98.5,-207 98.5,-201 104.5,-195 110.5,-195 110.5,-195 212,-195 212,-195 218,-195 224,-201 224,-207 224,-207 224,-219 224,-219 224,-225 218,-231 212,-231"/>
<text xml:space="preserve" text-anchor="middle" x="161.25" y="-209.5" font-family="Arial" font-size="10.00" fill="#1a1a1a">(−) regular uniform marks</text>
</g>
<!-- structure.cell&#45;&gt;attr_3 -->
<g id="edge5" class="edge">
<title>structure.cell&#45;&gt;attr_3</title>
<path fill="none" stroke="#aaaaaa" d="M54.76,-187.48C65.04,-189.96 77.31,-192.93 89.79,-195.95"/>
<polygon fill="#aaaaaa" stroke="#aaaaaa" points="89.15,-198.32 96.53,-197.58 90.31,-193.55 89.15,-198.32"/>
</g>
<!-- rel_2 -->
<g id="node13" class="node">
<title>rel_2</title>
<path fill="#f5b8b8" stroke="#d46a6a" stroke-width="1.2" d="M176.25,-166C176.25,-166 146.25,-166 146.25,-166 140.25,-166 134.25,-160 134.25,-154 134.25,-154 134.25,-142 134.25,-142 134.25,-136 140.25,-130 146.25,-130 146.25,-130 176.25,-130 176.25,-130 182.25,-130 188.25,-136 188.25,-142 188.25,-142 188.25,-154 188.25,-154 188.25,-160 182.25,-166 176.25,-166"/>
<text xml:space="preserve" text-anchor="middle" x="161.25" y="-144.5" font-family="Arial" font-size="10.00" fill="#8b0000">enables</text>
</g>
<!-- structure.cell&#45;&gt;rel_2 -->
<g id="edge10" class="edge">
<title>structure.cell&#45;&gt;rel_2</title>
<path fill="none" stroke="#d46a6a" stroke-width="1.5" d="M54.76,-174.32C74.7,-169.35 102.15,-162.5 124.04,-157.03"/>
<polygon fill="#d46a6a" stroke="#d46a6a" stroke-width="1.5" points="124.69,-159.76 131.78,-155.11 123.34,-154.33 124.69,-159.76"/>
</g>
<!-- rel_0&#45;&gt;structure.grid -->
<g id="edge7" class="edge">
<title>rel_0&#45;&gt;structure.grid</title>
<path fill="none" stroke="#d46a6a" stroke-width="1.5" d="M188.62,-399.51C201.13,-394.37 215.5,-386.7 225.5,-376 261.68,-337.27 280.43,-276.74 288.81,-241.36"/>
<polygon fill="#d46a6a" stroke="#d46a6a" stroke-width="1.5" points="291.47,-242.3 290.5,-233.88 286.01,-241.07 291.47,-242.3"/>
</g>
<!-- rel_1&#45;&gt;structure.grid -->
<g id="edge9" class="edge">
<title>rel_1&#45;&gt;structure.grid</title>
<path fill="none" stroke="#d46a6a" stroke-width="1.5" d="M188.69,-265C208.75,-255.15 236.52,-241.5 258.58,-230.65"/>
<polygon fill="#d46a6a" stroke="#d46a6a" stroke-width="1.5" points="259.67,-233.24 265.61,-227.2 257.2,-228.22 259.67,-233.24"/>
</g>
<!-- rel_2&#45;&gt;structure.grid -->
<g id="edge11" class="edge">
<title>rel_2&#45;&gt;structure.grid</title>
<path fill="none" stroke="#d46a6a" stroke-width="1.5" d="M188.69,-161C208.75,-170.85 236.52,-184.5 258.58,-195.35"/>
<polygon fill="#d46a6a" stroke="#d46a6a" stroke-width="1.5" points="257.2,-197.78 265.61,-198.8 259.67,-192.76 257.2,-197.78"/>
</g>
<!-- rel_3&#45;&gt;structure.grid -->
<g id="edge13" class="edge">
<title>rel_3&#45;&gt;structure.grid</title>
<path fill="none" stroke="#d46a6a" stroke-width="1.5" d="M188.61,-26.94C201.12,-32.29 215.49,-40.18 225.5,-51 261.2,-89.61 280.08,-149.48 288.62,-184.6"/>
<polygon fill="#d46a6a" stroke="#d46a6a" stroke-width="1.5" points="285.81,-184.86 290.34,-192.02 291.26,-183.6 285.81,-184.86"/>
</g>
</g>
</svg>
