<?xml version="1.0" encoding="UTF-8" standalone="no"?>
<!DOCTYPE svg PUBLIC "-//W3C//DTD SVG 1.1//EN"
 "http://www.w3.org/Graphics/SVG/1.1/DTD/svg11.dtd">
<!-- Generated by graphviz version 14.1.5 (20260411.2331)
 -->
<!-- Title: InfoVisJ.2402.12.png Pages: 1 -->
<svg width="635pt" height="635pt"
 viewBox="0.00 0.00 635.00 635.00" xmlns="http://www.w3.org/2000/svg" xmlns:xlink="http://www.w3.org/1999/xlink">
<g id="graph0" class="graph" transform="scale(1 1) rotate(0) translate(4 631.25)">
<title>InfoVisJ.2402.12.png</title>
<polygon fill="white" stroke="none" points="-4,4 -4,-631.25 631,-631.25 631,4 -4,4"/>
<text xml:space="preserve" text-anchor="start" x="246.75" y="-606.95" font-family="Arial" font-weight="bold" font-size="14.00">InfoVisJ.2402.12.png</text>
<text xml:space="preserve" text-anchor="start" x="269.62" y="-587" font-family="Arial" font-size="11.00">Area &#160;| &#160;VC = 0.83</text>
<path fill="#b8e6b8" stroke="none" d="M104.12,-562C104.12,-562 112.12,-562 112.12,-562 115.12,-562 118.12,-565 118.12,-568 118.12,-568 118.12,-574 118.12,-574 118.12,-577 115.12,-580 112.12,-580 112.12,-580 104.12,-580 104.12,-580 101.12,-580 98.12,-577 98.12,-574 98.12,-574 98.12,-568 98.12,-568 98.12,-565 101.12,-562 104.12,-562"/>
<path fill="none" stroke="black" d="M104.12,-562C104.12,-562 112.12,-562 112.12,-562 115.12,-562 118.12,-565 118.12,-568 118.12,-568 118.12,-574 118.12,-574 118.12,-577 115.12,-580 112.12,-580 112.12,-580 104.12,-580 104.12,-580 101.12,-580 98.12,-577 98.12,-574 98.12,-574 98.12,-568 98.12,-568 98.12,-565 101.12,-562 104.12,-562"/>
<text xml:space="preserve" text-anchor="start" x="106.62" y="-567.25" font-family="Arial" font-size="10.00"> </text>
<text xml:space="preserve" text-anchor="start" x="122.12" y="-567.25" font-family="Arial" font-size="10.00">Object</text>
<path fill="#c7b8e6" stroke="none" d="M160.62,-562C160.62,-562 168.62,-562 168.62,-562 171.62,-562 174.62,-565 174.62,-568 174.62,-568 174.62,-574 174.62,-574 174.62,-577 171.62,-580 168.62,-580 168.62,-580 160.62,-580 160.62,-580 157.62,-580 154.62,-577 154.62,-574 154.62,-574 154.62,-568 154.62,-568 154.62,-565 157.62,-562 160.62,-562"/>
<path fill="none" stroke="black" d="M160.62,-562C160.62,-562 168.62,-562 168.62,-562 171.62,-562 174.62,-565 174.62,-568 174.62,-568 174.62,-574 174.62,-574 174.62,-577 171.62,-580 168.62,-580 168.62,-580 160.62,-580 160.62,-580 157.62,-580 154.62,-577 154.62,-574 154.62,-574 154.62,-568 154.62,-568 154.62,-565 157.62,-562 160.62,-562"/>
<text xml:space="preserve" text-anchor="start" x="163.12" y="-567.25" font-family="Arial" font-size="10.00"> </text>
<text xml:space="preserve" text-anchor="start" x="178.62" y="-567.25" font-family="Arial" font-size="10.00">Attribute</text>
<path fill="#f5b8b8" stroke="none" d="M225.38,-562C225.38,-562 233.38,-562 233.38,-562 236.38,-562 239.38,-565 239.38,-568 239.38,-568 239.38,-574 239.38,-574 239.38,-577 236.38,-580 233.38,-580 233.38,-580 225.38,-580 225.38,-580 222.38,-580 219.38,-577 219.38,-574 219.38,-574 219.38,-568 219.38,-568 219.38,-565 222.38,-562 225.38,-562"/>
<path fill="none" stroke="black" d="M225.38,-562C225.38,-562 233.38,-562 233.38,-562 236.38,-562 239.38,-565 239.38,-568 239.38,-568 239.38,-574 239.38,-574 239.38,-577 236.38,-580 233.38,-580 233.38,-580 225.38,-580 225.38,-580 222.38,-580 219.38,-577 219.38,-574 219.38,-574 219.38,-568 219.38,-568 219.38,-565 222.38,-562 225.38,-562"/>
<text xml:space="preserve" text-anchor="start" x="227.88" y="-567.25" font-family="Arial" font-size="10.00"> </text>
<text xml:space="preserve" text-anchor="start" x="243.38" y="-567.25" font-family="Arial" font-size="10.00">Relationship</text>
<text xml:space="preserve" text-anchor="start" x="303.38" y="-568.5" font-family="Arial" font-weight="bold" font-size="10.00">(+)</text>
<text xml:space="preserve" text-anchor="start" x="315.38" y="-568.5" font-family="Arial" font-size="10.00"> increases complexity</text>
<text xml:space="preserve" text-anchor="start" x="416.62" y="-568.5" font-family="Arial" font-weight="bold" font-size="10.00">(−)</text>
<text xml:space="preserve" text-anchor="start" x="428.62" y="-568.5" font-family="Arial" font-size="10.00"> decreases complexity</text>
<!-- property.color -->
<g id="node1" class="node">
<title>property.color</title>
<path fill="#b8e6b8" stroke="#2c3e50" stroke-width="1.8" d="M47,-491C47,-491 17,-491 17,-491 11,-491 5,-485 5,-479 5,-479 5,-467 5,-467 5,-461 11,-455 17,-455 17,-455 47,-455 47,-455 53,-455 59,-461 59,-467 59,-467 59,-479 59,-479 59,-485 53,-491 47,-491"/>
<text xml:space="preserve" text-anchor="middle" x="32" y="-469.5" font-family="Arial" font-size="10.00" fill="#1a1a1a">color</text>
</g>
<!-- attr_0 -->
<g id="node7" class="node">
<title>attr_0</title>
<path fill="#c7b8e6" stroke="#7f8c8d" stroke-width="1.2" d="M220.88,-556C220.88,-556 139.62,-556 139.62,-556 133.62,-556 127.62,-550 127.62,-544 127.62,-544 127.62,-532 127.62,-532 127.62,-526 133.62,-520 139.62,-520 139.62,-520 220.88,-520 220.88,-520 226.88,-520 232.88,-526 232.88,-532 232.88,-532 232.88,-544 232.88,-544 232.88,-550 226.88,-556 220.88,-556"/>
<text xml:space="preserve" text-anchor="middle" x="180.25" y="-534.5" font-family="Arial" font-size="10.00" fill="#1a1a1a">(+) high color variety</text>
</g>
<!-- property.color&#45;&gt;attr_0 -->
<g id="edge1" class="edge">
<title>property.color&#45;&gt;attr_0</title>
<path fill="none" stroke="#aaaaaa" d="M59.71,-484.93C73.78,-491.21 91.32,-499.03 107,-506 114.33,-509.26 122.09,-512.7 129.69,-516.07"/>
<polygon fill="#aaaaaa" stroke="#aaaaaa" points="128.44,-518.2 135.83,-518.79 130.43,-513.72 128.44,-518.2"/>
</g>
<!-- attr_1 -->
<g id="node8" class="node">
<title>attr_1</title>
<path fill="#c7b8e6" stroke="#7f8c8d" stroke-width="1.2" d="M239.62,-491C239.62,-491 120.88,-491 120.88,-491 114.88,-491 108.88,-485 108.88,-479 108.88,-479 108.88,-467 108.88,-467 108.88,-461 114.88,-455 120.88,-455 120.88,-455 239.62,-455 239.62,-455 245.62,-455 251.62,-461 251.62,-467 251.62,-467 251.62,-479 251.62,-479 251.62,-485 245.62,-491 239.62,-491"/>
<text xml:space="preserve" text-anchor="middle" x="180.25" y="-469.5" font-family="Arial" font-size="10.00" fill="#1a1a1a">(+) distributed across regions</text>
</g>
<!-- property.color&#45;&gt;attr_1 -->
<g id="edge2" class="edge">
<title>property.color&#45;&gt;attr_1</title>
<path fill="none" stroke="#aaaaaa" d="M59.82,-473C71.44,-473 85.71,-473 100.29,-473"/>
<polygon fill="#aaaaaa" stroke="#aaaaaa" points="99.9,-475.45 106.9,-473 99.9,-470.55 99.9,-475.45"/>
</g>
<!-- rel_0 -->
<g id="node14" class="node">
<title>rel_0</title>
<path fill="#f5b8b8" stroke="#d46a6a" stroke-width="1.2" d="M228,-426C228,-426 132.5,-426 132.5,-426 126.5,-426 120.5,-420 120.5,-414 120.5,-414 120.5,-402 120.5,-402 120.5,-396 126.5,-390 132.5,-390 132.5,-390 228,-390 228,-390 234,-390 240,-396 240,-402 240,-402 240,-414 240,-414 240,-420 234,-426 228,-426"/>
<text xml:space="preserve" text-anchor="middle" x="180.25" y="-404.5" font-family="Arial" font-size="10.00" fill="#8b0000">increases complexity of</text>
</g>
<!-- property.color&#45;&gt;rel_0 -->
<g id="edge8" class="edge">
<title>property.color&#45;&gt;rel_0</title>
<path fill="none" stroke="#d46a6a" stroke-width="1.5" d="M59.82,-461.08C78.96,-452.57 105.28,-440.88 128.34,-430.63"/>
<polygon fill="#d46a6a" stroke="#d46a6a" stroke-width="1.5" points="129.41,-433.21 135.58,-427.41 127.14,-428.1 129.41,-433.21"/>
</g>
<!-- mark.area -->
<g id="node2" class="node">
<title>mark.area</title>
<path fill="#b8e6b8" stroke="#2c3e50" stroke-width="1.8" d="M52,-264C52,-264 12,-264 12,-264 6,-264 0,-258 0,-252 0,-252 0,-240 0,-240 0,-234 6,-228 12,-228 12,-228 52,-228 52,-228 58,-228 64,-234 64,-240 64,-240 64,-252 64,-252 64,-258 58,-264 52,-264"/>
<text xml:space="preserve" text-anchor="middle" x="32" y="-242.5" font-family="Arial" font-size="10.00" fill="#1a1a1a">area shape</text>
</g>
<!-- attr_2 -->
<g id="node9" class="node">
<title>attr_2</title>
<path fill="#c7b8e6" stroke="#7f8c8d" stroke-width="1.2" d="M225.38,-296C225.38,-296 135.12,-296 135.12,-296 129.12,-296 123.12,-290 123.12,-284 123.12,-284 123.12,-272 123.12,-272 123.12,-266 129.12,-260 135.12,-260 135.12,-260 225.38,-260 225.38,-260 231.38,-260 237.38,-266 237.38,-272 237.38,-272 237.38,-284 237.38,-284 237.38,-290 231.38,-296 225.38,-296"/>
<text xml:space="preserve" text-anchor="middle" x="180.25" y="-274.5" font-family="Arial" font-size="10.00" fill="#1a1a1a">(+) varied shape forms</text>
</g>
<!-- mark.area&#45;&gt;attr_2 -->
<g id="edge3" class="edge">
<title>mark.area&#45;&gt;attr_2</title>
<path fill="none" stroke="#aaaaaa" d="M64.73,-252.94C79.45,-256.16 97.5,-260.11 114.88,-263.92"/>
<polygon fill="#aaaaaa" stroke="#aaaaaa" points="113.97,-266.22 121.33,-265.33 115.01,-261.44 113.97,-266.22"/>
</g>
<!-- attr_3 -->
<g id="node10" class="node">
<title>attr_3</title>
<path fill="#c7b8e6" stroke="#7f8c8d" stroke-width="1.2" d="M241.5,-231C241.5,-231 119,-231 119,-231 113,-231 107,-225 107,-219 107,-219 107,-207 107,-207 107,-201 113,-195 119,-195 119,-195 241.5,-195 241.5,-195 247.5,-195 253.5,-201 253.5,-207 253.5,-207 253.5,-219 253.5,-219 253.5,-225 247.5,-231 241.5,-231"/>
<text xml:space="preserve" text-anchor="middle" x="180.25" y="-209.5" font-family="Arial" font-size="10.00" fill="#1a1a1a">(+) size decreasing downward</text>
</g>
<!-- mark.area&#45;&gt;attr_3 -->
<g id="edge4" class="edge">
<title>mark.area&#45;&gt;attr_3</title>
<path fill="none" stroke="#aaaaaa" d="M64.73,-238.84C74.77,-236.58 86.35,-233.96 98.22,-231.28"/>
<polygon fill="#aaaaaa" stroke="#aaaaaa" points="98.7,-233.69 104.98,-229.76 97.62,-228.91 98.7,-233.69"/>
</g>
<!-- rel_1 -->
<g id="node15" class="node">
<title>rel_1</title>
<path fill="#f5b8b8" stroke="#d46a6a" stroke-width="1.2" d="M221.25,-166C221.25,-166 139.25,-166 139.25,-166 133.25,-166 127.25,-160 127.25,-154 127.25,-154 127.25,-142 127.25,-142 127.25,-136 133.25,-130 139.25,-130 139.25,-130 221.25,-130 221.25,-130 227.25,-130 233.25,-136 233.25,-142 233.25,-142 233.25,-154 233.25,-154 233.25,-160 227.25,-166 221.25,-166"/>
<text xml:space="preserve" text-anchor="middle" x="180.25" y="-144.5" font-family="Arial" font-size="10.00" fill="#8b0000">varies in size across</text>
</g>
<!-- mark.area&#45;&gt;rel_1 -->
<g id="edge10" class="edge">
<title>mark.area&#45;&gt;rel_1</title>
<path fill="none" stroke="#d46a6a" stroke-width="1.5" d="M51.23,-227.25C65.5,-213.28 86.33,-194.38 107,-181 112.52,-177.42 118.49,-174.04 124.56,-170.89"/>
<polygon fill="#d46a6a" stroke="#d46a6a" stroke-width="1.5" points="125.52,-173.54 131.43,-167.47 123.02,-168.52 125.52,-173.54"/>
</g>
<!-- rel_4 -->
<g id="node18" class="node">
<title>rel_4</title>
<path fill="#f5b8b8" stroke="#d46a6a" stroke-width="1.2" d="M222,-361C222,-361 138.5,-361 138.5,-361 132.5,-361 126.5,-355 126.5,-349 126.5,-349 126.5,-337 126.5,-337 126.5,-331 132.5,-325 138.5,-325 138.5,-325 222,-325 222,-325 228,-325 234,-331 234,-337 234,-337 234,-349 234,-349 234,-355 228,-361 222,-361"/>
<text xml:space="preserve" text-anchor="middle" x="180.25" y="-339.5" font-family="Arial" font-size="10.00" fill="#8b0000">requires expertise for</text>
</g>
<!-- mark.area&#45;&gt;rel_4 -->
<g id="edge16" class="edge">
<title>mark.area&#45;&gt;rel_4</title>
<path fill="none" stroke="#d46a6a" stroke-width="1.5" d="M51.19,-264.82C65.43,-278.83 86.25,-297.74 107,-311 111.96,-314.17 117.29,-317.18 122.72,-319.99"/>
<polygon fill="#d46a6a" stroke="#d46a6a" stroke-width="1.5" points="121.47,-322.49 129.88,-323.52 123.95,-317.47 121.47,-322.49"/>
</g>
<!-- unknown.scale -->
<g id="node3" class="node">
<title>unknown.scale</title>
<path fill="#b8e6b8" stroke="#2c3e50" stroke-width="1.8" d="M47,-69C47,-69 17,-69 17,-69 11,-69 5,-63 5,-57 5,-57 5,-45 5,-45 5,-39 11,-33 17,-33 17,-33 47,-33 47,-33 53,-33 59,-39 59,-45 59,-45 59,-57 59,-57 59,-63 53,-69 47,-69"/>
<text xml:space="preserve" text-anchor="middle" x="32" y="-47.5" font-family="Arial" font-size="10.00" fill="#1a1a1a">scale</text>
</g>
<!-- attr_4 -->
<g id="node11" class="node">
<title>attr_4</title>
<path fill="#c7b8e6" stroke="#7f8c8d" stroke-width="1.2" d="M241.5,-36C241.5,-36 119,-36 119,-36 113,-36 107,-30 107,-24 107,-24 107,-12 107,-12 107,-6 113,0 119,0 119,0 241.5,0 241.5,0 247.5,0 253.5,-6 253.5,-12 253.5,-12 253.5,-24 253.5,-24 253.5,-30 247.5,-36 241.5,-36"/>
<text xml:space="preserve" text-anchor="middle" x="180.25" y="-14.5" font-family="Arial" font-size="10.00" fill="#1a1a1a">(+) significant scale difference</text>
</g>
<!-- unknown.scale&#45;&gt;attr_4 -->
<g id="edge5" class="edge">
<title>unknown.scale&#45;&gt;attr_4</title>
<path fill="none" stroke="#aaaaaa" d="M59.82,-44.95C70.92,-42.44 84.44,-39.39 98.33,-36.26"/>
<polygon fill="#aaaaaa" stroke="#aaaaaa" points="98.78,-38.67 105.07,-34.74 97.7,-33.89 98.78,-38.67"/>
</g>
<!-- rel_2 -->
<g id="node16" class="node">
<title>rel_2</title>
<path fill="#f5b8b8" stroke="#d46a6a" stroke-width="1.2" d="M234,-101C234,-101 126.5,-101 126.5,-101 120.5,-101 114.5,-95 114.5,-89 114.5,-89 114.5,-77 114.5,-77 114.5,-71 120.5,-65 126.5,-65 126.5,-65 234,-65 234,-65 240,-65 246,-71 246,-77 246,-77 246,-89 246,-89 246,-95 240,-101 234,-101"/>
<text xml:space="preserve" text-anchor="middle" x="180.25" y="-79.5" font-family="Arial" font-size="10.00" fill="#8b0000">confounds interpretation of</text>
</g>
<!-- unknown.scale&#45;&gt;rel_2 -->
<g id="edge12" class="edge">
<title>unknown.scale&#45;&gt;rel_2</title>
<path fill="none" stroke="#d46a6a" stroke-width="1.5" d="M59.82,-56.87C72.46,-59.63 88.22,-63.08 104.12,-66.56"/>
<polygon fill="#d46a6a" stroke="#d46a6a" stroke-width="1.5" points="103.37,-69.26 111.78,-68.24 104.57,-63.79 103.37,-69.26"/>
</g>
<!-- furniture.legend -->
<g id="node4" class="node">
<title>furniture.legend</title>
<path fill="#b8e6b8" stroke="#2c3e50" stroke-width="1.8" d="M339.75,-361C339.75,-361 309.75,-361 309.75,-361 303.75,-361 297.75,-355 297.75,-349 297.75,-349 297.75,-337 297.75,-337 297.75,-331 303.75,-325 309.75,-325 309.75,-325 339.75,-325 339.75,-325 345.75,-325 351.75,-331 351.75,-337 351.75,-337 351.75,-349 351.75,-349 351.75,-355 345.75,-361 339.75,-361"/>
<text xml:space="preserve" text-anchor="middle" x="324.75" y="-339.5" font-family="Arial" font-size="10.00" fill="#1a1a1a">legend</text>
</g>
<!-- unknown.text_label -->
<g id="node5" class="node">
<title>unknown.text_label</title>
<path fill="#b8e6b8" stroke="#2c3e50" stroke-width="1.8" d="M615,-101C615,-101 583.25,-101 583.25,-101 577.25,-101 571.25,-95 571.25,-89 571.25,-89 571.25,-77 571.25,-77 571.25,-71 577.25,-65 583.25,-65 583.25,-65 615,-65 615,-65 621,-65 627,-71 627,-77 627,-77 627,-89 627,-89 627,-95 621,-101 615,-101"/>
<text xml:space="preserve" text-anchor="middle" x="599.12" y="-79.5" font-family="Arial" font-size="10.00" fill="#1a1a1a">text label</text>
</g>
<!-- unknown.data_area -->
<g id="node6" class="node">
<title>unknown.data_area</title>
<path fill="#b8e6b8" stroke="#2c3e50" stroke-width="1.8" d="M341,-166C341,-166 308.5,-166 308.5,-166 302.5,-166 296.5,-160 296.5,-154 296.5,-154 296.5,-142 296.5,-142 296.5,-136 302.5,-130 308.5,-130 308.5,-130 341,-130 341,-130 347,-130 353,-136 353,-142 353,-142 353,-154 353,-154 353,-160 347,-166 341,-166"/>
<text xml:space="preserve" text-anchor="middle" x="324.75" y="-144.5" font-family="Arial" font-size="10.00" fill="#1a1a1a">data area</text>
</g>
<!-- attr_5 -->
<g id="node12" class="node">
<title>attr_5</title>
<path fill="#c7b8e6" stroke="#7f8c8d" stroke-width="1.2" d="M516.25,-231C516.25,-231 408,-231 408,-231 402,-231 396,-225 396,-219 396,-219 396,-207 396,-207 396,-201 402,-195 408,-195 408,-195 516.25,-195 516.25,-195 522.25,-195 528.25,-201 528.25,-207 528.25,-207 528.25,-219 528.25,-219 528.25,-225 522.25,-231 516.25,-231"/>
<text xml:space="preserve" text-anchor="middle" x="462.12" y="-209.5" font-family="Arial" font-size="10.00" fill="#1a1a1a">(+) many layered elements</text>
</g>
<!-- unknown.data_area&#45;&gt;attr_5 -->
<g id="edge6" class="edge">
<title>unknown.data_area&#45;&gt;attr_5</title>
<path fill="none" stroke="#aaaaaa" d="M353.8,-161.47C371.45,-169.94 394.65,-181.08 414.96,-190.83"/>
<polygon fill="#aaaaaa" stroke="#aaaaaa" points="413.85,-193.02 421.22,-193.84 415.97,-188.6 413.85,-193.02"/>
</g>
<!-- attr_6 -->
<g id="node13" class="node">
<title>attr_6</title>
<path fill="#c7b8e6" stroke="#7f8c8d" stroke-width="1.2" d="M496.75,-166C496.75,-166 427.5,-166 427.5,-166 421.5,-166 415.5,-160 415.5,-154 415.5,-154 415.5,-142 415.5,-142 415.5,-136 421.5,-130 427.5,-130 427.5,-130 496.75,-130 496.75,-130 502.75,-130 508.75,-136 508.75,-142 508.75,-142 508.75,-154 508.75,-154 508.75,-160 502.75,-166 496.75,-166"/>
<text xml:space="preserve" text-anchor="middle" x="462.12" y="-144.5" font-family="Arial" font-size="10.00" fill="#1a1a1a">(+) low readability</text>
</g>
<!-- unknown.data_area&#45;&gt;attr_6 -->
<g id="edge7" class="edge">
<title>unknown.data_area&#45;&gt;attr_6</title>
<path fill="none" stroke="#aaaaaa" d="M353.8,-148C369.11,-148 388.6,-148 406.76,-148"/>
<polygon fill="#aaaaaa" stroke="#aaaaaa" points="406.48,-150.45 413.48,-148 406.48,-145.55 406.48,-150.45"/>
</g>
<!-- rel_3 -->
<g id="node17" class="node">
<title>rel_3</title>
<path fill="#f5b8b8" stroke="#d46a6a" stroke-width="1.2" d="M484.38,-101C484.38,-101 439.88,-101 439.88,-101 433.88,-101 427.88,-95 427.88,-89 427.88,-89 427.88,-77 427.88,-77 427.88,-71 433.88,-65 439.88,-65 439.88,-65 484.38,-65 484.38,-65 490.38,-65 496.38,-71 496.38,-77 496.38,-77 496.38,-89 496.38,-89 496.38,-95 490.38,-101 484.38,-101"/>
<text xml:space="preserve" text-anchor="middle" x="462.12" y="-79.5" font-family="Arial" font-size="10.00" fill="#8b0000">overwhelms</text>
</g>
<!-- unknown.data_area&#45;&gt;rel_3 -->
<g id="edge14" class="edge">
<title>unknown.data_area&#45;&gt;rel_3</title>
<path fill="none" stroke="#d46a6a" stroke-width="1.5" d="M353.8,-134.53C372.42,-125.59 397.22,-113.68 418.29,-103.57"/>
<polygon fill="#d46a6a" stroke="#d46a6a" stroke-width="1.5" points="419.32,-106.18 425.32,-100.19 416.89,-101.13 419.32,-106.18"/>
</g>
<!-- rel_0&#45;&gt;unknown.data_area -->
<g id="edge9" class="edge">
<title>rel_0&#45;&gt;unknown.data_area</title>
<path fill="none" stroke="#d46a6a" stroke-width="1.5" d="M236.74,-389.58C242.97,-385.82 248.76,-381.33 253.5,-376 304.67,-318.4 318.57,-224.13 322.34,-176.89"/>
<polygon fill="#d46a6a" stroke="#d46a6a" stroke-width="1.5" points="325.13,-177.19 322.89,-169.01 319.54,-176.8 325.13,-177.19"/>
</g>
<!-- rel_1&#45;&gt;unknown.data_area -->
<g id="edge11" class="edge">
<title>rel_1&#45;&gt;unknown.data_area</title>
<path fill="none" stroke="#d46a6a" stroke-width="1.5" d="M233.5,-148C250.84,-148 269.79,-148 285.83,-148"/>
<polygon fill="#d46a6a" stroke="#d46a6a" stroke-width="1.5" points="285.63,-150.8 293.63,-148 285.63,-145.2 285.63,-150.8"/>
</g>
<!-- rel_2&#45;&gt;unknown.data_area -->
<g id="edge13" class="edge">
<title>rel_2&#45;&gt;unknown.data_area</title>
<path fill="none" stroke="#d46a6a" stroke-width="1.5" d="M221.7,-101.45C242.16,-110.78 266.81,-122.03 286.76,-131.13"/>
<polygon fill="#d46a6a" stroke="#d46a6a" stroke-width="1.5" points="285.35,-133.56 293.79,-134.33 287.67,-128.46 285.35,-133.56"/>
</g>
<!-- rel_3&#45;&gt;unknown.text_label -->
<g id="edge15" class="edge">
<title>rel_3&#45;&gt;unknown.text_label</title>
<path fill="none" stroke="#d46a6a" stroke-width="1.5" d="M496.84,-83C516.26,-83 540.71,-83 560.72,-83"/>
<polygon fill="#d46a6a" stroke="#d46a6a" stroke-width="1.5" points="560.46,-85.8 568.46,-83 560.46,-80.2 560.46,-85.8"/>
</g>
<!-- rel_4&#45;&gt;furniture.legend -->
<g id="edge17" class="edge">
<title>rel_4&#45;&gt;furniture.legend</title>
<path fill="none" stroke="#d46a6a" stroke-width="1.5" d="M234.31,-343C251.84,-343 270.94,-343 286.97,-343"/>
<polygon fill="#d46a6a" stroke="#d46a6a" stroke-width="1.5" points="286.74,-345.8 294.74,-343 286.74,-340.2 286.74,-345.8"/>
</g>
</g>
</svg>
