<?xml version="1.0" encoding="UTF-8" standalone="no"?>
<!DOCTYPE svg PUBLIC "-//W3C//DTD SVG 1.1//EN"
 "http://www.w3.org/Graphics/SVG/1.1/DTD/svg11.dtd">
<!-- Generated by graphviz version 14.1.5 (20260411.2331)
 -->
<!-- Title: InfoVisJ.1558.9(2).png Pages: 1 -->
<svg width="1072pt" height="375pt"
 viewBox="0.00 0.00 1072.00 375.00" xmlns="http://www.w3.org/2000/svg" xmlns:xlink="http://www.w3.org/1999/xlink">
<g id="graph0" class="graph" transform="scale(1 1) rotate(0) translate(4 371.25)">
<title>InfoVisJ.1558.9(2).png</title>
<polygon fill="white" stroke="none" points="-4,4 -4,-371.25 1067.5,-371.25 1067.5,4 -4,4"/>
<text xml:space="preserve" text-anchor="start" x="460.5" y="-346.95" font-family="Arial" font-weight="bold" font-size="14.00">InfoVisJ.1558.9(2).png</text>
<text xml:space="preserve" text-anchor="start" x="485.62" y="-327" font-family="Arial" font-size="11.00">Glyph &#160;| &#160;VC = 0.61</text>
<path fill="#b8e6b8" stroke="none" d="M322.38,-302C322.38,-302 330.38,-302 330.38,-302 333.38,-302 336.38,-305 336.38,-308 336.38,-308 336.38,-314 336.38,-314 336.38,-317 333.38,-320 330.38,-320 330.38,-320 322.38,-320 322.38,-320 319.38,-320 316.38,-317 316.38,-314 316.38,-314 316.38,-308 316.38,-308 316.38,-305 319.38,-302 322.38,-302"/>
<path fill="none" stroke="black" d="M322.38,-302C322.38,-302 330.38,-302 330.38,-302 333.38,-302 336.38,-305 336.38,-308 336.38,-308 336.38,-314 336.38,-314 336.38,-317 333.38,-320 330.38,-320 330.38,-320 322.38,-320 322.38,-320 319.38,-320 316.38,-317 316.38,-314 316.38,-314 316.38,-308 316.38,-308 316.38,-305 319.38,-302 322.38,-302"/>
<text xml:space="preserve" text-anchor="start" x="324.88" y="-307.25" font-family="Arial" font-size="10.00"> </text>
<text xml:space="preserve" text-anchor="start" x="340.38" y="-307.25" font-family="Arial" font-size="10.00">Object</text>
<path fill="#c7b8e6" stroke="none" d="M378.88,-302C378.88,-302 386.88,-302 386.88,-302 389.88,-302 392.88,-305 392.88,-308 392.88,-308 392.88,-314 392.88,-314 392.88,-317 389.88,-320 386.88,-320 386.88,-320 378.88,-320 378.88,-320 375.88,-320 372.88,-317 372.88,-314 372.88,-314 372.88,-308 372.88,-308 372.88,-305 375.88,-302 378.88,-302"/>
<path fill="none" stroke="black" d="M378.88,-302C378.88,-302 386.88,-302 386.88,-302 389.88,-302 392.88,-305 392.88,-308 392.88,-308 392.88,-314 392.88,-314 392.88,-317 389.88,-320 386.88,-320 386.88,-320 378.88,-320 378.88,-320 375.88,-320 372.88,-317 372.88,-314 372.88,-314 372.88,-308 372.88,-308 372.88,-305 375.88,-302 378.88,-302"/>
<text xml:space="preserve" text-anchor="start" x="381.38" y="-307.25" font-family="Arial" font-size="10.00"> </text>
<text xml:space="preserve" text-anchor="start" x="396.88" y="-307.25" font-family="Arial" font-size="10.00">Attribute</text>
<path fill="#f5b8b8" stroke="none" d="M443.62,-302C443.62,-302 451.62,-302 451.62,-302 454.62,-302 457.62,-305 457.62,-308 457.62,-308 457.62,-314 457.62,-314 457.62,-317 454.62,-320 451.62,-320 451.62,-320 443.62,-320 443.62,-320 440.62,-320 437.62,-317 437.62,-314 437.62,-314 437.62,-308 437.62,-308 437.62,-305 440.62,-302 443.62,-302"/>
<path fill="none" stroke="black" d="M443.62,-302C443.62,-302 451.62,-302 451.62,-302 454.62,-302 457.62,-305 457.62,-308 457.62,-308 457.62,-314 457.62,-314 457.62,-317 454.62,-320 451.62,-320 451.62,-320 443.62,-320 443.62,-320 440.62,-320 437.62,-317 437.62,-314 437.62,-314 437.62,-308 437.62,-308 437.62,-305 440.62,-302 443.62,-302"/>
<text xml:space="preserve" text-anchor="start" x="446.12" y="-307.25" font-family="Arial" font-size="10.00"> </text>
<text xml:space="preserve" text-anchor="start" x="461.62" y="-307.25" font-family="Arial" font-size="10.00">Relationship</text>
<text xml:space="preserve" text-anchor="start" x="521.62" y="-308.5" font-family="Arial" font-weight="bold" font-size="10.00">(+)</text>
<text xml:space="preserve" text-anchor="start" x="533.62" y="-308.5" font-family="Arial" font-size="10.00"> increases complexity</text>
<text xml:space="preserve" text-anchor="start" x="634.88" y="-308.5" font-family="Arial" font-weight="bold" font-size="10.00">(−)</text>
<text xml:space="preserve" text-anchor="start" x="646.88" y="-308.5" font-family="Arial" font-size="10.00"> decreases complexity</text>
<!-- unknown.glyph -->
<g id="node1" class="node">
<title>unknown.glyph</title>
<path fill="#b8e6b8" stroke="#2c3e50" stroke-width="1.8" d="M608,-101C608,-101 578,-101 578,-101 572,-101 566,-95 566,-89 566,-89 566,-77 566,-77 566,-71 572,-65 578,-65 578,-65 608,-65 608,-65 614,-65 620,-71 620,-77 620,-77 620,-89 620,-89 620,-95 614,-101 608,-101"/>
<text xml:space="preserve" text-anchor="middle" x="593" y="-79.5" font-family="Arial" font-size="10.00" fill="#1a1a1a">glyph</text>
</g>
<!-- attr_2 -->
<g id="node6" class="node">
<title>attr_2</title>
<path fill="#c7b8e6" stroke="#7f8c8d" stroke-width="1.2" d="M771.75,-101C771.75,-101 684.5,-101 684.5,-101 678.5,-101 672.5,-95 672.5,-89 672.5,-89 672.5,-77 672.5,-77 672.5,-71 678.5,-65 684.5,-65 684.5,-65 771.75,-65 771.75,-65 777.75,-65 783.75,-71 783.75,-77 783.75,-77 783.75,-89 783.75,-89 783.75,-95 777.75,-101 771.75,-101"/>
<text xml:space="preserve" text-anchor="middle" x="728.12" y="-79.5" font-family="Arial" font-size="10.00" fill="#1a1a1a">(+) difficult to interpret</text>
</g>
<!-- unknown.glyph&#45;&gt;attr_2 -->
<g id="edge1" class="edge">
<title>unknown.glyph&#45;&gt;attr_2</title>
<path fill="none" stroke="#aaaaaa" d="M620.62,-83C633.04,-83 648.4,-83 663.56,-83"/>
<polygon fill="#aaaaaa" stroke="#aaaaaa" points="663.43,-85.45 670.43,-83 663.43,-80.55 663.43,-85.45"/>
</g>
<!-- rel_2 -->
<g id="node14" class="node">
<title>rel_2</title>
<path fill="#f5b8b8" stroke="#d46a6a" stroke-width="1.2" d="M770.25,-36C770.25,-36 686,-36 686,-36 680,-36 674,-30 674,-24 674,-24 674,-12 674,-12 674,-6 680,0 686,0 686,0 770.25,0 770.25,0 776.25,0 782.25,-6 782.25,-12 782.25,-12 782.25,-24 782.25,-24 782.25,-30 776.25,-36 770.25,-36"/>
<text xml:space="preserve" text-anchor="middle" x="728.12" y="-14.5" font-family="Arial" font-size="10.00" fill="#8b0000">requires effort to read</text>
</g>
<!-- unknown.glyph&#45;&gt;rel_2 -->
<g id="edge11" class="edge">
<title>unknown.glyph&#45;&gt;rel_2</title>
<path fill="none" stroke="#d46a6a" stroke-width="1.5" d="M620.62,-70C637.66,-61.68 660.25,-50.65 680.23,-40.9"/>
<polygon fill="#d46a6a" stroke="#d46a6a" stroke-width="1.5" points="681.2,-43.54 687.16,-37.51 678.75,-38.51 681.2,-43.54"/>
</g>
<!-- mark.shape -->
<g id="node2" class="node">
<title>mark.shape</title>
<path fill="#b8e6b8" stroke="#2c3e50" stroke-width="1.8" d="M313.5,-198C313.5,-198 283.5,-198 283.5,-198 277.5,-198 271.5,-192 271.5,-186 271.5,-186 271.5,-174 271.5,-174 271.5,-168 277.5,-162 283.5,-162 283.5,-162 313.5,-162 313.5,-162 319.5,-162 325.5,-168 325.5,-174 325.5,-174 325.5,-186 325.5,-186 325.5,-192 319.5,-198 313.5,-198"/>
<text xml:space="preserve" text-anchor="middle" x="298.5" y="-176.5" font-family="Arial" font-size="10.00" fill="#1a1a1a">shape</text>
</g>
<!-- attr_0 -->
<g id="node7" class="node">
<title>attr_0</title>
<path fill="#c7b8e6" stroke="#7f8c8d" stroke-width="1.2" d="M492.88,-296C492.88,-296 389.88,-296 389.88,-296 383.88,-296 377.88,-290 377.88,-284 377.88,-284 377.88,-272 377.88,-272 377.88,-266 383.88,-260 389.88,-260 389.88,-260 492.88,-260 492.88,-260 498.88,-260 504.88,-266 504.88,-272 504.88,-272 504.88,-284 504.88,-284 504.88,-290 498.88,-296 492.88,-296"/>
<text xml:space="preserve" text-anchor="middle" x="441.38" y="-274.5" font-family="Arial" font-size="10.00" fill="#1a1a1a">(+) irregular shape variety</text>
</g>
<!-- mark.shape&#45;&gt;attr_0 -->
<g id="edge2" class="edge">
<title>mark.shape&#45;&gt;attr_0</title>
<path fill="none" stroke="#aaaaaa" d="M315.64,-198.62C328.79,-212.94 348.4,-232.51 368.5,-246 373.68,-249.48 379.31,-252.73 385.05,-255.74"/>
<polygon fill="#aaaaaa" stroke="#aaaaaa" points="383.65,-257.78 391.01,-258.72 385.85,-253.4 383.65,-257.78"/>
</g>
<!-- attr_1 -->
<g id="node8" class="node">
<title>attr_1</title>
<path fill="#c7b8e6" stroke="#7f8c8d" stroke-width="1.2" d="M502.25,-231C502.25,-231 380.5,-231 380.5,-231 374.5,-231 368.5,-225 368.5,-219 368.5,-219 368.5,-207 368.5,-207 368.5,-201 374.5,-195 380.5,-195 380.5,-195 502.25,-195 502.25,-195 508.25,-195 514.25,-201 514.25,-207 514.25,-207 514.25,-219 514.25,-219 514.25,-225 508.25,-231 502.25,-231"/>
<text xml:space="preserve" text-anchor="middle" x="441.38" y="-209.5" font-family="Arial" font-size="10.00" fill="#1a1a1a">(+) encodes variability or error</text>
</g>
<!-- mark.shape&#45;&gt;attr_1 -->
<g id="edge3" class="edge">
<title>mark.shape&#45;&gt;attr_1</title>
<path fill="none" stroke="#aaaaaa" d="M326.33,-186.28C336.15,-188.59 347.84,-191.32 359.93,-194.16"/>
<polygon fill="#aaaaaa" stroke="#aaaaaa" points="359.07,-196.47 366.44,-195.68 360.19,-191.7 359.07,-196.47"/>
</g>
<!-- rel_0 -->
<g id="node12" class="node">
<title>rel_0</title>
<path fill="#f5b8b8" stroke="#d46a6a" stroke-width="1.2" d="M456.38,-166C456.38,-166 426.38,-166 426.38,-166 420.38,-166 414.38,-160 414.38,-154 414.38,-154 414.38,-142 414.38,-142 414.38,-136 420.38,-130 426.38,-130 426.38,-130 456.38,-130 456.38,-130 462.38,-130 468.38,-136 468.38,-142 468.38,-142 468.38,-154 468.38,-154 468.38,-160 462.38,-166 456.38,-166"/>
<text xml:space="preserve" text-anchor="middle" x="441.38" y="-144.5" font-family="Arial" font-size="10.00" fill="#8b0000">encodes</text>
</g>
<!-- mark.shape&#45;&gt;rel_0 -->
<g id="edge7" class="edge">
<title>mark.shape&#45;&gt;rel_0</title>
<path fill="none" stroke="#d46a6a" stroke-width="1.5" d="M326.33,-173.91C348.4,-168.89 379.9,-161.74 404.2,-156.22"/>
<polygon fill="#d46a6a" stroke="#d46a6a" stroke-width="1.5" points="404.73,-158.97 411.91,-154.47 403.49,-153.51 404.73,-158.97"/>
</g>
<!-- rel_1 -->
<g id="node13" class="node">
<title>rel_1</title>
<path fill="#f5b8b8" stroke="#d46a6a" stroke-width="1.2" d="M483.5,-101C483.5,-101 399.25,-101 399.25,-101 393.25,-101 387.25,-95 387.25,-89 387.25,-89 387.25,-77 387.25,-77 387.25,-71 393.25,-65 399.25,-65 399.25,-65 483.5,-65 483.5,-65 489.5,-65 495.5,-71 495.5,-77 495.5,-77 495.5,-89 495.5,-89 495.5,-95 489.5,-101 483.5,-101"/>
<text xml:space="preserve" text-anchor="middle" x="441.38" y="-79.5" font-family="Arial" font-size="10.00" fill="#8b0000">increases difficulty of</text>
</g>
<!-- mark.shape&#45;&gt;rel_1 -->
<g id="edge9" class="edge">
<title>mark.shape&#45;&gt;rel_1</title>
<path fill="none" stroke="#d46a6a" stroke-width="1.5" d="M316.24,-161.1C329.41,-147.06 348.77,-128.13 368.5,-115 373.31,-111.8 378.49,-108.78 383.79,-105.98"/>
<polygon fill="#d46a6a" stroke="#d46a6a" stroke-width="1.5" points="384.85,-108.58 390.74,-102.48 382.34,-103.57 384.85,-108.58"/>
</g>
<!-- unknown.data_variable -->
<g id="node3" class="node">
<title>unknown.data_variable</title>
<path fill="#b8e6b8" stroke="#2c3e50" stroke-width="1.8" d="M616.75,-166C616.75,-166 569.25,-166 569.25,-166 563.25,-166 557.25,-160 557.25,-154 557.25,-154 557.25,-142 557.25,-142 557.25,-136 563.25,-130 569.25,-130 569.25,-130 616.75,-130 616.75,-130 622.75,-130 628.75,-136 628.75,-142 628.75,-142 628.75,-154 628.75,-154 628.75,-160 622.75,-166 616.75,-166"/>
<text xml:space="preserve" text-anchor="middle" x="593" y="-144.5" font-family="Arial" font-size="10.00" fill="#1a1a1a">data variable</text>
</g>
<!-- attr_3 -->
<g id="node9" class="node">
<title>attr_3</title>
<path fill="#c7b8e6" stroke="#7f8c8d" stroke-width="1.2" d="M772.5,-166C772.5,-166 683.75,-166 683.75,-166 677.75,-166 671.75,-160 671.75,-154 671.75,-154 671.75,-142 671.75,-142 671.75,-136 677.75,-130 683.75,-130 683.75,-130 772.5,-130 772.5,-130 778.5,-130 784.5,-136 784.5,-142 784.5,-142 784.5,-154 784.5,-154 784.5,-160 778.5,-166 772.5,-166"/>
<text xml:space="preserve" text-anchor="middle" x="728.12" y="-144.5" font-family="Arial" font-size="10.00" fill="#1a1a1a">(+) variable data listed</text>
</g>
<!-- unknown.data_variable&#45;&gt;attr_3 -->
<g id="edge4" class="edge">
<title>unknown.data_variable&#45;&gt;attr_3</title>
<path fill="none" stroke="#aaaaaa" d="M629.33,-148C639.68,-148 651.33,-148 662.89,-148"/>
<polygon fill="#aaaaaa" stroke="#aaaaaa" points="662.76,-150.45 669.76,-148 662.76,-145.55 662.76,-150.45"/>
</g>
<!-- furniture.legend -->
<g id="node4" class="node">
<title>furniture.legend</title>
<path fill="#b8e6b8" stroke="#2c3e50" stroke-width="1.8" d="M42,-230C42,-230 12,-230 12,-230 6,-230 0,-224 0,-218 0,-218 0,-206 0,-206 0,-200 6,-194 12,-194 12,-194 42,-194 42,-194 48,-194 54,-200 54,-206 54,-206 54,-218 54,-218 54,-224 48,-230 42,-230"/>
<text xml:space="preserve" text-anchor="middle" x="27" y="-208.5" font-family="Arial" font-size="10.00" fill="#1a1a1a">legend</text>
</g>
<!-- attr_5 -->
<g id="node10" class="node">
<title>attr_5</title>
<path fill="#c7b8e6" stroke="#7f8c8d" stroke-width="1.2" d="M216.5,-263C216.5,-263 109,-263 109,-263 103,-263 97,-257 97,-251 97,-251 97,-239 97,-239 97,-233 103,-227 109,-227 109,-227 216.5,-227 216.5,-227 222.5,-227 228.5,-233 228.5,-239 228.5,-239 228.5,-251 228.5,-251 228.5,-257 222.5,-263 216.5,-263"/>
<text xml:space="preserve" text-anchor="middle" x="162.75" y="-241.5" font-family="Arial" font-size="10.00" fill="#1a1a1a">(+) unclear shape mapping</text>
</g>
<!-- furniture.legend&#45;&gt;attr_5 -->
<g id="edge5" class="edge">
<title>furniture.legend&#45;&gt;attr_5</title>
<path fill="none" stroke="#aaaaaa" d="M54.74,-218.6C64.69,-221.05 76.51,-223.97 88.61,-226.95"/>
<polygon fill="#aaaaaa" stroke="#aaaaaa" points="87.73,-229.26 95.11,-228.56 88.9,-224.5 87.73,-229.26"/>
</g>
<!-- rel_3 -->
<g id="node15" class="node">
<title>rel_3</title>
<path fill="#f5b8b8" stroke="#d46a6a" stroke-width="1.2" d="M204.12,-198C204.12,-198 121.38,-198 121.38,-198 115.38,-198 109.38,-192 109.38,-186 109.38,-186 109.38,-174 109.38,-174 109.38,-168 115.38,-162 121.38,-162 121.38,-162 204.12,-162 204.12,-162 210.12,-162 216.12,-168 216.12,-174 216.12,-174 216.12,-186 216.12,-186 216.12,-192 210.12,-198 204.12,-198"/>
<text xml:space="preserve" text-anchor="middle" x="162.75" y="-176.5" font-family="Arial" font-size="10.00" fill="#8b0000">insufficiently clarifies</text>
</g>
<!-- furniture.legend&#45;&gt;rel_3 -->
<g id="edge13" class="edge">
<title>furniture.legend&#45;&gt;rel_3</title>
<path fill="none" stroke="#d46a6a" stroke-width="1.5" d="M54.74,-205.6C67.56,-202.54 83.5,-198.72 99.12,-194.98"/>
<polygon fill="#d46a6a" stroke="#d46a6a" stroke-width="1.5" points="99.44,-197.79 106.57,-193.2 98.14,-192.34 99.44,-197.79"/>
</g>
<!-- structure.layout -->
<g id="node5" class="node">
<title>structure.layout</title>
<path fill="#b8e6b8" stroke="#2c3e50" stroke-width="1.8" d="M869.5,-36C869.5,-36 839.5,-36 839.5,-36 833.5,-36 827.5,-30 827.5,-24 827.5,-24 827.5,-12 827.5,-12 827.5,-6 833.5,0 839.5,0 839.5,0 869.5,0 869.5,0 875.5,0 881.5,-6 881.5,-12 881.5,-12 881.5,-24 881.5,-24 881.5,-30 875.5,-36 869.5,-36"/>
<text xml:space="preserve" text-anchor="middle" x="854.5" y="-14.5" font-family="Arial" font-size="10.00" fill="#1a1a1a">layout</text>
</g>
<!-- attr_4 -->
<g id="node11" class="node">
<title>attr_4</title>
<path fill="#c7b8e6" stroke="#7f8c8d" stroke-width="1.2" d="M1051.5,-36C1051.5,-36 936.5,-36 936.5,-36 930.5,-36 924.5,-30 924.5,-24 924.5,-24 924.5,-12 924.5,-12 924.5,-6 930.5,0 936.5,0 936.5,0 1051.5,0 1051.5,0 1057.5,0 1063.5,-6 1063.5,-12 1063.5,-12 1063.5,-24 1063.5,-24 1063.5,-30 1057.5,-36 1051.5,-36"/>
<text xml:space="preserve" text-anchor="middle" x="994" y="-14.5" font-family="Arial" font-size="10.00" fill="#1a1a1a">(+) extra cognitive challenge</text>
</g>
<!-- structure.layout&#45;&gt;attr_4 -->
<g id="edge6" class="edge">
<title>structure.layout&#45;&gt;attr_4</title>
<path fill="none" stroke="#aaaaaa" d="M882.34,-18C892.12,-18 903.73,-18 915.69,-18"/>
<polygon fill="#aaaaaa" stroke="#aaaaaa" points="915.49,-20.45 922.49,-18 915.49,-15.55 915.49,-20.45"/>
</g>
<!-- rel_0&#45;&gt;unknown.data_variable -->
<g id="edge8" class="edge">
<title>rel_0&#45;&gt;unknown.data_variable</title>
<path fill="none" stroke="#d46a6a" stroke-width="1.5" d="M468.78,-148C490.24,-148 521.01,-148 546.43,-148"/>
<polygon fill="#d46a6a" stroke="#d46a6a" stroke-width="1.5" points="546.32,-150.8 554.32,-148 546.32,-145.2 546.32,-150.8"/>
</g>
<!-- rel_1&#45;&gt;unknown.glyph -->
<g id="edge10" class="edge">
<title>rel_1&#45;&gt;unknown.glyph</title>
<path fill="none" stroke="#d46a6a" stroke-width="1.5" d="M495.97,-83C515.51,-83 537.15,-83 554.93,-83"/>
<polygon fill="#d46a6a" stroke="#d46a6a" stroke-width="1.5" points="554.91,-85.8 562.91,-83 554.91,-80.2 554.91,-85.8"/>
</g>
<!-- rel_2&#45;&gt;structure.layout -->
<g id="edge12" class="edge">
<title>rel_2&#45;&gt;structure.layout</title>
<path fill="none" stroke="#d46a6a" stroke-width="1.5" d="M782.59,-18C794.05,-18 805.91,-18 816.57,-18"/>
<polygon fill="#d46a6a" stroke="#d46a6a" stroke-width="1.5" points="816.51,-20.8 824.51,-18 816.51,-15.2 816.51,-20.8"/>
</g>
<!-- rel_3&#45;&gt;mark.shape -->
<g id="edge14" class="edge">
<title>rel_3&#45;&gt;mark.shape</title>
<path fill="none" stroke="#d46a6a" stroke-width="1.5" d="M216.61,-180C231.39,-180 247.13,-180 260.75,-180"/>
<polygon fill="#d46a6a" stroke="#d46a6a" stroke-width="1.5" points="260.44,-182.8 268.44,-180 260.44,-177.2 260.44,-182.8"/>
</g>
</g>
</svg>
