<?xml version="1.0" encoding="UTF-8" standalone="no"?>
<!DOCTYPE svg PUBLIC "-//W3C//DTD SVG 1.1//EN"
 "http://www.w3.org/Graphics/SVG/1.1/DTD/svg11.dtd">
<!-- Generated by graphviz version 14.1.5 (20260411.2331)
 -->
<!-- Title: InfoVisJ.957.25.png Pages: 1 -->
<svg width="551pt" height="440pt"
 viewBox="0.00 0.00 551.00 440.00" xmlns="http://www.w3.org/2000/svg" xmlns:xlink="http://www.w3.org/1999/xlink">
<g id="graph0" class="graph" transform="scale(1 1) rotate(0) translate(4 436.25)">
<title>InfoVisJ.957.25.png</title>
<polygon fill="white" stroke="none" points="-4,4 -4,-436.25 546.5,-436.25 546.5,4 -4,4"/>
<text xml:space="preserve" text-anchor="start" x="208.25" y="-411.95" font-family="Arial" font-weight="bold" font-size="14.00">InfoVisJ.957.25.png</text>
<text xml:space="preserve" text-anchor="start" x="216.12" y="-392" font-family="Arial" font-size="11.00">Node&#45;link &#160;| &#160;VC = 0.58</text>
<path fill="#b8e6b8" stroke="none" d="M61.88,-367C61.88,-367 69.88,-367 69.88,-367 72.88,-367 75.88,-370 75.88,-373 75.88,-373 75.88,-379 75.88,-379 75.88,-382 72.88,-385 69.88,-385 69.88,-385 61.88,-385 61.88,-385 58.88,-385 55.88,-382 55.88,-379 55.88,-379 55.88,-373 55.88,-373 55.88,-370 58.88,-367 61.88,-367"/>
<path fill="none" stroke="black" d="M61.88,-367C61.88,-367 69.88,-367 69.88,-367 72.88,-367 75.88,-370 75.88,-373 75.88,-373 75.88,-379 75.88,-379 75.88,-382 72.88,-385 69.88,-385 69.88,-385 61.88,-385 61.88,-385 58.88,-385 55.88,-382 55.88,-379 55.88,-379 55.88,-373 55.88,-373 55.88,-370 58.88,-367 61.88,-367"/>
<text xml:space="preserve" text-anchor="start" x="64.38" y="-372.25" font-family="Arial" font-size="10.00"> </text>
<text xml:space="preserve" text-anchor="start" x="79.88" y="-372.25" font-family="Arial" font-size="10.00">Object</text>
<path fill="#c7b8e6" stroke="none" d="M118.38,-367C118.38,-367 126.38,-367 126.38,-367 129.38,-367 132.38,-370 132.38,-373 132.38,-373 132.38,-379 132.38,-379 132.38,-382 129.38,-385 126.38,-385 126.38,-385 118.38,-385 118.38,-385 115.38,-385 112.38,-382 112.38,-379 112.38,-379 112.38,-373 112.38,-373 112.38,-370 115.38,-367 118.38,-367"/>
<path fill="none" stroke="black" d="M118.38,-367C118.38,-367 126.38,-367 126.38,-367 129.38,-367 132.38,-370 132.38,-373 132.38,-373 132.38,-379 132.38,-379 132.38,-382 129.38,-385 126.38,-385 126.38,-385 118.38,-385 118.38,-385 115.38,-385 112.38,-382 112.38,-379 112.38,-379 112.38,-373 112.38,-373 112.38,-370 115.38,-367 118.38,-367"/>
<text xml:space="preserve" text-anchor="start" x="120.88" y="-372.25" font-family="Arial" font-size="10.00"> </text>
<text xml:space="preserve" text-anchor="start" x="136.38" y="-372.25" font-family="Arial" font-size="10.00">Attribute</text>
<path fill="#f5b8b8" stroke="none" d="M183.12,-367C183.12,-367 191.12,-367 191.12,-367 194.12,-367 197.12,-370 197.12,-373 197.12,-373 197.12,-379 197.12,-379 197.12,-382 194.12,-385 191.12,-385 191.12,-385 183.12,-385 183.12,-385 180.12,-385 177.12,-382 177.12,-379 177.12,-379 177.12,-373 177.12,-373 177.12,-370 180.12,-367 183.12,-367"/>
<path fill="none" stroke="black" d="M183.12,-367C183.12,-367 191.12,-367 191.12,-367 194.12,-367 197.12,-370 197.12,-373 197.12,-373 197.12,-379 197.12,-379 197.12,-382 194.12,-385 191.12,-385 191.12,-385 183.12,-385 183.12,-385 180.12,-385 177.12,-382 177.12,-379 177.12,-379 177.12,-373 177.12,-373 177.12,-370 180.12,-367 183.12,-367"/>
<text xml:space="preserve" text-anchor="start" x="185.62" y="-372.25" font-family="Arial" font-size="10.00"> </text>
<text xml:space="preserve" text-anchor="start" x="201.12" y="-372.25" font-family="Arial" font-size="10.00">Relationship</text>
<text xml:space="preserve" text-anchor="start" x="261.12" y="-373.5" font-family="Arial" font-weight="bold" font-size="10.00">(+)</text>
<text xml:space="preserve" text-anchor="start" x="273.12" y="-373.5" font-family="Arial" font-size="10.00"> increases complexity</text>
<text xml:space="preserve" text-anchor="start" x="374.38" y="-373.5" font-family="Arial" font-weight="bold" font-size="10.00">(−)</text>
<text xml:space="preserve" text-anchor="start" x="386.38" y="-373.5" font-family="Arial" font-size="10.00"> decreases complexity</text>
<!-- mark.node -->
<g id="node1" class="node">
<title>mark.node</title>
<path fill="#b8e6b8" stroke="#2c3e50" stroke-width="1.8" d="M336.75,-101C336.75,-101 306.75,-101 306.75,-101 300.75,-101 294.75,-95 294.75,-89 294.75,-89 294.75,-77 294.75,-77 294.75,-71 300.75,-65 306.75,-65 306.75,-65 336.75,-65 336.75,-65 342.75,-65 348.75,-71 348.75,-77 348.75,-77 348.75,-89 348.75,-89 348.75,-95 342.75,-101 336.75,-101"/>
<text xml:space="preserve" text-anchor="middle" x="321.75" y="-79.5" font-family="Arial" font-size="10.00" fill="#1a1a1a">node</text>
</g>
<!-- attr_3 -->
<g id="node6" class="node">
<title>attr_3</title>
<path fill="#c7b8e6" stroke="#7f8c8d" stroke-width="1.2" d="M530.5,-101C530.5,-101 422.25,-101 422.25,-101 416.25,-101 410.25,-95 410.25,-89 410.25,-89 410.25,-77 410.25,-77 410.25,-71 416.25,-65 422.25,-65 422.25,-65 530.5,-65 530.5,-65 536.5,-65 542.5,-71 542.5,-77 542.5,-77 542.5,-89 542.5,-89 542.5,-95 536.5,-101 530.5,-101"/>
<text xml:space="preserve" text-anchor="middle" x="476.38" y="-79.5" font-family="Arial" font-size="10.00" fill="#1a1a1a">(−) readable distinct marks</text>
</g>
<!-- mark.node&#45;&gt;attr_3 -->
<g id="edge1" class="edge">
<title>mark.node&#45;&gt;attr_3</title>
<path fill="none" stroke="#aaaaaa" d="M349.34,-83C363.92,-83 382.79,-83 401.47,-83"/>
<polygon fill="#aaaaaa" stroke="#aaaaaa" points="401.22,-85.45 408.22,-83 401.22,-80.55 401.22,-85.45"/>
</g>
<!-- structure.link -->
<g id="node2" class="node">
<title>structure.link</title>
<path fill="#b8e6b8" stroke="#2c3e50" stroke-width="1.8" d="M45.5,-69C45.5,-69 15.5,-69 15.5,-69 9.5,-69 3.5,-63 3.5,-57 3.5,-57 3.5,-45 3.5,-45 3.5,-39 9.5,-33 15.5,-33 15.5,-33 45.5,-33 45.5,-33 51.5,-33 57.5,-39 57.5,-45 57.5,-45 57.5,-57 57.5,-57 57.5,-63 51.5,-69 45.5,-69"/>
<text xml:space="preserve" text-anchor="middle" x="30.5" y="-47.5" font-family="Arial" font-size="10.00" fill="#1a1a1a">link</text>
</g>
<!-- attr_4 -->
<g id="node7" class="node">
<title>attr_4</title>
<path fill="#c7b8e6" stroke="#7f8c8d" stroke-width="1.2" d="M221.25,-101C221.25,-101 116,-101 116,-101 110,-101 104,-95 104,-89 104,-89 104,-77 104,-77 104,-71 110,-65 116,-65 116,-65 221.25,-65 221.25,-65 227.25,-65 233.25,-71 233.25,-77 233.25,-77 233.25,-89 233.25,-89 233.25,-95 227.25,-101 221.25,-101"/>
<text xml:space="preserve" text-anchor="middle" x="168.62" y="-79.5" font-family="Arial" font-size="10.00" fill="#1a1a1a">(−) clear connection paths</text>
</g>
<!-- structure.link&#45;&gt;attr_4 -->
<g id="edge2" class="edge">
<title>structure.link&#45;&gt;attr_4</title>
<path fill="none" stroke="#aaaaaa" d="M58.39,-57.32C69.17,-59.86 82.16,-62.91 95.36,-66.01"/>
<polygon fill="#aaaaaa" stroke="#aaaaaa" points="94.74,-68.38 102.11,-67.6 95.86,-63.61 94.74,-68.38"/>
</g>
<!-- rel_2 -->
<g id="node13" class="node">
<title>rel_2</title>
<path fill="#f5b8b8" stroke="#d46a6a" stroke-width="1.2" d="M207.75,-36C207.75,-36 129.5,-36 129.5,-36 123.5,-36 117.5,-30 117.5,-24 117.5,-24 117.5,-12 117.5,-12 117.5,-6 123.5,0 129.5,0 129.5,0 207.75,0 207.75,0 213.75,0 219.75,-6 219.75,-12 219.75,-12 219.75,-24 219.75,-24 219.75,-30 213.75,-36 207.75,-36"/>
<text xml:space="preserve" text-anchor="middle" x="168.62" y="-14.5" font-family="Arial" font-size="10.00" fill="#8b0000">clarifies structure of</text>
</g>
<!-- structure.link&#45;&gt;rel_2 -->
<g id="edge10" class="edge">
<title>structure.link&#45;&gt;rel_2</title>
<path fill="none" stroke="#d46a6a" stroke-width="1.5" d="M58.39,-44.48C72.38,-41.09 90.09,-36.8 107.16,-32.66"/>
<polygon fill="#d46a6a" stroke="#d46a6a" stroke-width="1.5" points="107.77,-35.39 114.89,-30.78 106.45,-29.95 107.77,-35.39"/>
</g>
<!-- furniture.legend -->
<g id="node3" class="node">
<title>furniture.legend</title>
<path fill="#b8e6b8" stroke="#2c3e50" stroke-width="1.8" d="M49,-328C49,-328 12,-328 12,-328 6,-328 0,-322 0,-316 0,-316 0,-304 0,-304 0,-298 6,-292 12,-292 12,-292 49,-292 49,-292 55,-292 61,-298 61,-304 61,-304 61,-316 61,-316 61,-322 55,-328 49,-328"/>
<text xml:space="preserve" text-anchor="middle" x="30.5" y="-306.5" font-family="Arial" font-size="10.00" fill="#1a1a1a">color code</text>
</g>
<!-- attr_1 -->
<g id="node8" class="node">
<title>attr_1</title>
<path fill="#c7b8e6" stroke="#7f8c8d" stroke-width="1.2" d="M220.88,-361C220.88,-361 116.38,-361 116.38,-361 110.38,-361 104.38,-355 104.38,-349 104.38,-349 104.38,-337 104.38,-337 104.38,-331 110.38,-325 116.38,-325 116.38,-325 220.88,-325 220.88,-325 226.88,-325 232.88,-331 232.88,-337 232.88,-337 232.88,-349 232.88,-349 232.88,-355 226.88,-361 220.88,-361"/>
<text xml:space="preserve" text-anchor="middle" x="168.62" y="-339.5" font-family="Arial" font-size="10.00" fill="#1a1a1a">(−) clear visual separation</text>
</g>
<!-- furniture.legend&#45;&gt;attr_1 -->
<g id="edge3" class="edge">
<title>furniture.legend&#45;&gt;attr_1</title>
<path fill="none" stroke="#aaaaaa" d="M61.71,-317.32C71.99,-319.82 83.96,-322.72 96.08,-325.66"/>
<polygon fill="#aaaaaa" stroke="#aaaaaa" points="95.2,-327.96 102.58,-327.23 96.35,-323.2 95.2,-327.96"/>
</g>
<!-- rel_0 -->
<g id="node11" class="node">
<title>rel_0</title>
<path fill="#f5b8b8" stroke="#d46a6a" stroke-width="1.2" d="M217.88,-296C217.88,-296 119.38,-296 119.38,-296 113.38,-296 107.38,-290 107.38,-284 107.38,-284 107.38,-272 107.38,-272 107.38,-266 113.38,-260 119.38,-260 119.38,-260 217.88,-260 217.88,-260 223.88,-260 229.88,-266 229.88,-272 229.88,-272 229.88,-284 229.88,-284 229.88,-290 223.88,-296 217.88,-296"/>
<text xml:space="preserve" text-anchor="middle" x="168.62" y="-274.5" font-family="Arial" font-size="10.00" fill="#8b0000">facilitates comparison of</text>
</g>
<!-- furniture.legend&#45;&gt;rel_0 -->
<g id="edge6" class="edge">
<title>furniture.legend&#45;&gt;rel_0</title>
<path fill="none" stroke="#d46a6a" stroke-width="1.5" d="M61.71,-302.9C72.22,-300.43 84.49,-297.54 96.88,-294.63"/>
<polygon fill="#d46a6a" stroke="#d46a6a" stroke-width="1.5" points="97.45,-297.37 104.6,-292.82 96.17,-291.92 97.45,-297.37"/>
</g>
<!-- structure.layout -->
<g id="node4" class="node">
<title>structure.layout</title>
<path fill="#b8e6b8" stroke="#2c3e50" stroke-width="1.8" d="M45.5,-199C45.5,-199 15.5,-199 15.5,-199 9.5,-199 3.5,-193 3.5,-187 3.5,-187 3.5,-175 3.5,-175 3.5,-169 9.5,-163 15.5,-163 15.5,-163 45.5,-163 45.5,-163 51.5,-163 57.5,-169 57.5,-175 57.5,-175 57.5,-187 57.5,-187 57.5,-193 51.5,-199 45.5,-199"/>
<text xml:space="preserve" text-anchor="middle" x="30.5" y="-177.5" font-family="Arial" font-size="10.00" fill="#1a1a1a">layout</text>
</g>
<!-- attr_2 -->
<g id="node9" class="node">
<title>attr_2</title>
<path fill="#c7b8e6" stroke="#7f8c8d" stroke-width="1.2" d="M213.75,-231C213.75,-231 123.5,-231 123.5,-231 117.5,-231 111.5,-225 111.5,-219 111.5,-219 111.5,-207 111.5,-207 111.5,-201 117.5,-195 123.5,-195 123.5,-195 213.75,-195 213.75,-195 219.75,-195 225.75,-201 225.75,-207 225.75,-207 225.75,-219 225.75,-219 225.75,-225 219.75,-231 213.75,-231"/>
<text xml:space="preserve" text-anchor="middle" x="168.62" y="-209.5" font-family="Arial" font-size="10.00" fill="#1a1a1a">(−) organized structure</text>
</g>
<!-- structure.layout&#45;&gt;attr_2 -->
<g id="edge4" class="edge">
<title>structure.layout&#45;&gt;attr_2</title>
<path fill="none" stroke="#aaaaaa" d="M58.39,-187.32C71.19,-190.33 87.11,-194.07 102.79,-197.76"/>
<polygon fill="#aaaaaa" stroke="#aaaaaa" points="102.1,-200.11 109.48,-199.33 103.23,-195.34 102.1,-200.11"/>
</g>
<!-- rel_1 -->
<g id="node12" class="node">
<title>rel_1</title>
<path fill="#f5b8b8" stroke="#d46a6a" stroke-width="1.2" d="M210.75,-166C210.75,-166 126.5,-166 126.5,-166 120.5,-166 114.5,-160 114.5,-154 114.5,-154 114.5,-142 114.5,-142 114.5,-136 120.5,-130 126.5,-130 126.5,-130 210.75,-130 210.75,-130 216.75,-130 222.75,-136 222.75,-142 222.75,-142 222.75,-154 222.75,-154 222.75,-160 216.75,-166 210.75,-166"/>
<text xml:space="preserve" text-anchor="middle" x="168.62" y="-144.5" font-family="Arial" font-size="10.00" fill="#8b0000">reduces effort to read</text>
</g>
<!-- structure.layout&#45;&gt;rel_1 -->
<g id="edge8" class="edge">
<title>structure.layout&#45;&gt;rel_1</title>
<path fill="none" stroke="#d46a6a" stroke-width="1.5" d="M58.39,-174.48C71.55,-171.29 87.99,-167.31 104.09,-163.4"/>
<polygon fill="#d46a6a" stroke="#d46a6a" stroke-width="1.5" points="104.72,-166.13 111.83,-161.53 103.4,-160.69 104.72,-166.13"/>
</g>
<!-- unknown.difference_pattern -->
<g id="node5" class="node">
<title>unknown.difference_pattern</title>
<path fill="#b8e6b8" stroke="#2c3e50" stroke-width="1.8" d="M355.25,-296C355.25,-296 288.25,-296 288.25,-296 282.25,-296 276.25,-290 276.25,-284 276.25,-284 276.25,-272 276.25,-272 276.25,-266 282.25,-260 288.25,-260 288.25,-260 355.25,-260 355.25,-260 361.25,-260 367.25,-266 367.25,-272 367.25,-272 367.25,-284 367.25,-284 367.25,-290 361.25,-296 355.25,-296"/>
<text xml:space="preserve" text-anchor="middle" x="321.75" y="-274.5" font-family="Arial" font-size="10.00" fill="#1a1a1a">difference pattern</text>
</g>
<!-- attr_0 -->
<g id="node10" class="node">
<title>attr_0</title>
<path fill="#c7b8e6" stroke="#7f8c8d" stroke-width="1.2" d="M526.38,-296C526.38,-296 426.38,-296 426.38,-296 420.38,-296 414.38,-290 414.38,-284 414.38,-284 414.38,-272 414.38,-272 414.38,-266 420.38,-260 426.38,-260 426.38,-260 526.38,-260 526.38,-260 532.38,-260 538.38,-266 538.38,-272 538.38,-272 538.38,-284 538.38,-284 538.38,-290 532.38,-296 526.38,-296"/>
<text xml:space="preserve" text-anchor="middle" x="476.38" y="-274.5" font-family="Arial" font-size="10.00" fill="#1a1a1a">(−) easily distinguishable</text>
</g>
<!-- unknown.difference_pattern&#45;&gt;attr_0 -->
<g id="edge5" class="edge">
<title>unknown.difference_pattern&#45;&gt;attr_0</title>
<path fill="none" stroke="#aaaaaa" d="M368.13,-278C379.88,-278 392.81,-278 405.49,-278"/>
<polygon fill="#aaaaaa" stroke="#aaaaaa" points="405.27,-280.45 412.27,-278 405.27,-275.55 405.27,-280.45"/>
</g>
<!-- rel_0&#45;&gt;unknown.difference_pattern -->
<g id="edge7" class="edge">
<title>rel_0&#45;&gt;unknown.difference_pattern</title>
<path fill="none" stroke="#d46a6a" stroke-width="1.5" d="M230.22,-278C241.79,-278 253.85,-278 265.25,-278"/>
<polygon fill="#d46a6a" stroke="#d46a6a" stroke-width="1.5" points="265.23,-280.8 273.23,-278 265.23,-275.2 265.23,-280.8"/>
</g>
<!-- rel_1&#45;&gt;mark.node -->
<g id="edge9" class="edge">
<title>rel_1&#45;&gt;mark.node</title>
<path fill="none" stroke="#d46a6a" stroke-width="1.5" d="M212.53,-129.55C235.33,-119.74 263.05,-107.82 284.73,-98.49"/>
<polygon fill="#d46a6a" stroke="#d46a6a" stroke-width="1.5" points="285.59,-101.17 291.83,-95.44 283.38,-96.03 285.59,-101.17"/>
</g>
<!-- rel_2&#45;&gt;mark.node -->
<g id="edge11" class="edge">
<title>rel_2&#45;&gt;mark.node</title>
<path fill="none" stroke="#d46a6a" stroke-width="1.5" d="M212.53,-36.45C235.33,-46.26 263.05,-58.18 284.73,-67.51"/>
<polygon fill="#d46a6a" stroke="#d46a6a" stroke-width="1.5" points="283.38,-69.97 291.83,-70.56 285.59,-64.83 283.38,-69.97"/>
</g>
</g>
</svg>
