<?xml version="1.0" encoding="UTF-8" standalone="no"?>
<!DOCTYPE svg PUBLIC "-//W3C//DTD SVG 1.1//EN"
 "http://www.w3.org/Graphics/SVG/1.1/DTD/svg11.dtd">
<!-- Generated by graphviz version 14.1.5 (20260411.2331)
 -->
<!-- Title: InfoVisJ.459.8.png Pages: 1 -->
<svg width="762pt" height="310pt"
 viewBox="0.00 0.00 762.00 310.00" xmlns="http://www.w3.org/2000/svg" xmlns:xlink="http://www.w3.org/1999/xlink">
<g id="graph0" class="graph" transform="scale(1 1) rotate(0) translate(4 306.25)">
<title>InfoVisJ.459.8.png</title>
<polygon fill="white" stroke="none" points="-4,4 -4,-306.25 758.25,-306.25 758.25,4 -4,4"/>
<text xml:space="preserve" text-anchor="start" x="317.88" y="-281.95" font-family="Arial" font-weight="bold" font-size="14.00">InfoVisJ.459.8.png</text>
<text xml:space="preserve" text-anchor="start" x="336.25" y="-262" font-family="Arial" font-size="11.00">Bar &#160;| &#160;VC = 0.77</text>
<path fill="#b8e6b8" stroke="none" d="M167.75,-237C167.75,-237 175.75,-237 175.75,-237 178.75,-237 181.75,-240 181.75,-243 181.75,-243 181.75,-249 181.75,-249 181.75,-252 178.75,-255 175.75,-255 175.75,-255 167.75,-255 167.75,-255 164.75,-255 161.75,-252 161.75,-249 161.75,-249 161.75,-243 161.75,-243 161.75,-240 164.75,-237 167.75,-237"/>
<path fill="none" stroke="black" d="M167.75,-237C167.75,-237 175.75,-237 175.75,-237 178.75,-237 181.75,-240 181.75,-243 181.75,-243 181.75,-249 181.75,-249 181.75,-252 178.75,-255 175.75,-255 175.75,-255 167.75,-255 167.75,-255 164.75,-255 161.75,-252 161.75,-249 161.75,-249 161.75,-243 161.75,-243 161.75,-240 164.75,-237 167.75,-237"/>
<text xml:space="preserve" text-anchor="start" x="170.25" y="-242.25" font-family="Arial" font-size="10.00"> </text>
<text xml:space="preserve" text-anchor="start" x="185.75" y="-242.25" font-family="Arial" font-size="10.00">Object</text>
<path fill="#c7b8e6" stroke="none" d="M224.25,-237C224.25,-237 232.25,-237 232.25,-237 235.25,-237 238.25,-240 238.25,-243 238.25,-243 238.25,-249 238.25,-249 238.25,-252 235.25,-255 232.25,-255 232.25,-255 224.25,-255 224.25,-255 221.25,-255 218.25,-252 218.25,-249 218.25,-249 218.25,-243 218.25,-243 218.25,-240 221.25,-237 224.25,-237"/>
<path fill="none" stroke="black" d="M224.25,-237C224.25,-237 232.25,-237 232.25,-237 235.25,-237 238.25,-240 238.25,-243 238.25,-243 238.25,-249 238.25,-249 238.25,-252 235.25,-255 232.25,-255 232.25,-255 224.25,-255 224.25,-255 221.25,-255 218.25,-252 218.25,-249 218.25,-249 218.25,-243 218.25,-243 218.25,-240 221.25,-237 224.25,-237"/>
<text xml:space="preserve" text-anchor="start" x="226.75" y="-242.25" font-family="Arial" font-size="10.00"> </text>
<text xml:space="preserve" text-anchor="start" x="242.25" y="-242.25" font-family="Arial" font-size="10.00">Attribute</text>
<path fill="#f5b8b8" stroke="none" d="M289,-237C289,-237 297,-237 297,-237 300,-237 303,-240 303,-243 303,-243 303,-249 303,-249 303,-252 300,-255 297,-255 297,-255 289,-255 289,-255 286,-255 283,-252 283,-249 283,-249 283,-243 283,-243 283,-240 286,-237 289,-237"/>
<path fill="none" stroke="black" d="M289,-237C289,-237 297,-237 297,-237 300,-237 303,-240 303,-243 303,-243 303,-249 303,-249 303,-252 300,-255 297,-255 297,-255 289,-255 289,-255 286,-255 283,-252 283,-249 283,-249 283,-243 283,-243 283,-240 286,-237 289,-237"/>
<text xml:space="preserve" text-anchor="start" x="291.5" y="-242.25" font-family="Arial" font-size="10.00"> </text>
<text xml:space="preserve" text-anchor="start" x="307" y="-242.25" font-family="Arial" font-size="10.00">Relationship</text>
<text xml:space="preserve" text-anchor="start" x="367" y="-243.5" font-family="Arial" font-weight="bold" font-size="10.00">(+)</text>
<text xml:space="preserve" text-anchor="start" x="379" y="-243.5" font-family="Arial" font-size="10.00"> increases complexity</text>
<text xml:space="preserve" text-anchor="start" x="480.25" y="-243.5" font-family="Arial" font-weight="bold" font-size="10.00">(−)</text>
<text xml:space="preserve" text-anchor="start" x="492.25" y="-243.5" font-family="Arial" font-size="10.00"> decreases complexity</text>
<!-- mark.bar -->
<g id="node1" class="node">
<title>mark.bar</title>
<path fill="#b8e6b8" stroke="#2c3e50" stroke-width="1.8" d="M297.75,-36C297.75,-36 267.75,-36 267.75,-36 261.75,-36 255.75,-30 255.75,-24 255.75,-24 255.75,-12 255.75,-12 255.75,-6 261.75,0 267.75,0 267.75,0 297.75,0 297.75,0 303.75,0 309.75,-6 309.75,-12 309.75,-12 309.75,-24 309.75,-24 309.75,-30 303.75,-36 297.75,-36"/>
<text xml:space="preserve" text-anchor="middle" x="282.75" y="-14.5" font-family="Arial" font-size="10.00" fill="#1a1a1a">bar</text>
</g>
<!-- attr_0 -->
<g id="node6" class="node">
<title>attr_0</title>
<path fill="#c7b8e6" stroke="#7f8c8d" stroke-width="1.2" d="M469.62,-36C469.62,-36 383.12,-36 383.12,-36 377.12,-36 371.12,-30 371.12,-24 371.12,-24 371.12,-12 371.12,-12 371.12,-6 377.12,0 383.12,0 383.12,0 469.62,0 469.62,0 475.62,0 481.62,-6 481.62,-12 481.62,-12 481.62,-24 481.62,-24 481.62,-30 475.62,-36 469.62,-36"/>
<text xml:space="preserve" text-anchor="middle" x="426.38" y="-14.5" font-family="Arial" font-size="10.00" fill="#1a1a1a">(−) visually clear form</text>
</g>
<!-- mark.bar&#45;&gt;attr_0 -->
<g id="edge1" class="edge">
<title>mark.bar&#45;&gt;attr_0</title>
<path fill="none" stroke="#aaaaaa" d="M310.39,-18C325.12,-18 344.1,-18 362.37,-18"/>
<polygon fill="#aaaaaa" stroke="#aaaaaa" points="362.19,-20.45 369.19,-18 362.19,-15.55 362.19,-20.45"/>
</g>
<!-- property.color -->
<g id="node2" class="node">
<title>property.color</title>
<path fill="#b8e6b8" stroke="#2c3e50" stroke-width="1.8" d="M42,-68C42,-68 12,-68 12,-68 6,-68 0,-62 0,-56 0,-56 0,-44 0,-44 0,-38 6,-32 12,-32 12,-32 42,-32 42,-32 48,-32 54,-38 54,-44 54,-44 54,-56 54,-56 54,-62 48,-68 42,-68"/>
<text xml:space="preserve" text-anchor="middle" x="27" y="-46.5" font-family="Arial" font-size="10.00" fill="#1a1a1a">color</text>
</g>
<!-- attr_1 -->
<g id="node7" class="node">
<title>attr_1</title>
<path fill="#c7b8e6" stroke="#7f8c8d" stroke-width="1.2" d="M200.75,-101C200.75,-101 109,-101 109,-101 103,-101 97,-95 97,-89 97,-89 97,-77 97,-77 97,-71 103,-65 109,-65 109,-65 200.75,-65 200.75,-65 206.75,-65 212.75,-71 212.75,-77 212.75,-77 212.75,-89 212.75,-89 212.75,-95 206.75,-101 200.75,-101"/>
<text xml:space="preserve" text-anchor="middle" x="154.88" y="-79.5" font-family="Arial" font-size="10.00" fill="#1a1a1a">(−) clear distinct colors</text>
</g>
<!-- property.color&#45;&gt;attr_1 -->
<g id="edge2" class="edge">
<title>property.color&#45;&gt;attr_1</title>
<path fill="none" stroke="#aaaaaa" d="M54.69,-57C64.76,-59.64 76.7,-62.77 88.74,-65.93"/>
<polygon fill="#aaaaaa" stroke="#aaaaaa" points="87.8,-68.21 95.19,-67.62 89.04,-63.47 87.8,-68.21"/>
</g>
<!-- rel_0 -->
<g id="node11" class="node">
<title>rel_0</title>
<path fill="#f5b8b8" stroke="#d46a6a" stroke-width="1.2" d="M198.88,-36C198.88,-36 110.88,-36 110.88,-36 104.88,-36 98.88,-30 98.88,-24 98.88,-24 98.88,-12 98.88,-12 98.88,-6 104.88,0 110.88,0 110.88,0 198.88,0 198.88,0 204.88,0 210.88,-6 210.88,-12 210.88,-12 210.88,-24 210.88,-24 210.88,-30 204.88,-36 198.88,-36"/>
<text xml:space="preserve" text-anchor="middle" x="154.88" y="-14.5" font-family="Arial" font-size="10.00" fill="#8b0000">supports readability of</text>
</g>
<!-- property.color&#45;&gt;rel_0 -->
<g id="edge6" class="edge">
<title>property.color&#45;&gt;rel_0</title>
<path fill="none" stroke="#d46a6a" stroke-width="1.5" d="M54.69,-43.21C64.77,-40.65 76.73,-37.61 88.8,-34.54"/>
<polygon fill="#d46a6a" stroke="#d46a6a" stroke-width="1.5" points="89.2,-37.33 96.26,-32.65 87.82,-31.9 89.2,-37.33"/>
</g>
<!-- structure.layout -->
<g id="node3" class="node">
<title>structure.layout</title>
<path fill="#b8e6b8" stroke="#2c3e50" stroke-width="1.8" d="M585,-134C585,-134 555,-134 555,-134 549,-134 543,-128 543,-122 543,-122 543,-110 543,-110 543,-104 549,-98 555,-98 555,-98 585,-98 585,-98 591,-98 597,-104 597,-110 597,-110 597,-122 597,-122 597,-128 591,-134 585,-134"/>
<text xml:space="preserve" text-anchor="middle" x="570" y="-112.5" font-family="Arial" font-size="10.00" fill="#1a1a1a">layout</text>
</g>
<!-- attr_2 -->
<g id="node8" class="node">
<title>attr_2</title>
<path fill="#c7b8e6" stroke="#7f8c8d" stroke-width="1.2" d="M742.25,-134C742.25,-134 652,-134 652,-134 646,-134 640,-128 640,-122 640,-122 640,-110 640,-110 640,-104 646,-98 652,-98 652,-98 742.25,-98 742.25,-98 748.25,-98 754.25,-104 754.25,-110 754.25,-110 754.25,-122 754.25,-122 754.25,-128 748.25,-134 742.25,-134"/>
<text xml:space="preserve" text-anchor="middle" x="697.12" y="-112.5" font-family="Arial" font-size="10.00" fill="#1a1a1a">(−) organized structure</text>
</g>
<!-- structure.layout&#45;&gt;attr_2 -->
<g id="edge3" class="edge">
<title>structure.layout&#45;&gt;attr_2</title>
<path fill="none" stroke="#aaaaaa" d="M597.84,-116C607.76,-116 619.48,-116 631.31,-116"/>
<polygon fill="#aaaaaa" stroke="#aaaaaa" points="630.98,-118.45 637.98,-116 630.98,-113.55 630.98,-118.45"/>
</g>
<!-- text.label -->
<g id="node4" class="node">
<title>text.label</title>
<path fill="#b8e6b8" stroke="#2c3e50" stroke-width="1.8" d="M42,-198C42,-198 12,-198 12,-198 6,-198 0,-192 0,-186 0,-186 0,-174 0,-174 0,-168 6,-162 12,-162 12,-162 42,-162 42,-162 48,-162 54,-168 54,-174 54,-174 54,-186 54,-186 54,-192 48,-198 42,-198"/>
<text xml:space="preserve" text-anchor="middle" x="27" y="-176.5" font-family="Arial" font-size="10.00" fill="#1a1a1a">label</text>
</g>
<!-- attr_4 -->
<g id="node9" class="node">
<title>attr_4</title>
<path fill="#c7b8e6" stroke="#7f8c8d" stroke-width="1.2" d="M199.25,-231C199.25,-231 110.5,-231 110.5,-231 104.5,-231 98.5,-225 98.5,-219 98.5,-219 98.5,-207 98.5,-207 98.5,-201 104.5,-195 110.5,-195 110.5,-195 199.25,-195 199.25,-195 205.25,-195 211.25,-201 211.25,-207 211.25,-207 211.25,-219 211.25,-219 211.25,-225 205.25,-231 199.25,-231"/>
<text xml:space="preserve" text-anchor="middle" x="154.88" y="-209.5" font-family="Arial" font-size="10.00" fill="#1a1a1a">(+) insufficient context</text>
</g>
<!-- text.label&#45;&gt;attr_4 -->
<g id="edge4" class="edge">
<title>text.label&#45;&gt;attr_4</title>
<path fill="none" stroke="#aaaaaa" d="M54.69,-187C65.05,-189.71 77.4,-192.95 89.81,-196.2"/>
<polygon fill="#aaaaaa" stroke="#aaaaaa" points="89.09,-198.55 96.48,-197.95 90.33,-193.81 89.09,-198.55"/>
</g>
<!-- rel_2 -->
<g id="node13" class="node">
<title>rel_2</title>
<path fill="#f5b8b8" stroke="#d46a6a" stroke-width="1.2" d="M180.12,-166C180.12,-166 129.62,-166 129.62,-166 123.62,-166 117.62,-160 117.62,-154 117.62,-154 117.62,-142 117.62,-142 117.62,-136 123.62,-130 129.62,-130 129.62,-130 180.12,-130 180.12,-130 186.12,-130 192.12,-136 192.12,-142 192.12,-142 192.12,-154 192.12,-154 192.12,-160 186.12,-166 180.12,-166"/>
<text xml:space="preserve" text-anchor="middle" x="154.88" y="-144.5" font-family="Arial" font-size="10.00" fill="#8b0000">fails to clarify</text>
</g>
<!-- text.label&#45;&gt;rel_2 -->
<g id="edge10" class="edge">
<title>text.label&#45;&gt;rel_2</title>
<path fill="none" stroke="#d46a6a" stroke-width="1.5" d="M54.69,-173.21C70.04,-169.31 89.74,-164.3 107.54,-159.78"/>
<polygon fill="#d46a6a" stroke="#d46a6a" stroke-width="1.5" points="107.93,-162.57 114.99,-157.88 106.55,-157.14 107.93,-162.57"/>
</g>
<!-- unknown.meaning -->
<g id="node5" class="node">
<title>unknown.meaning</title>
<path fill="#b8e6b8" stroke="#2c3e50" stroke-width="1.8" d="M297.75,-166C297.75,-166 267.75,-166 267.75,-166 261.75,-166 255.75,-160 255.75,-154 255.75,-154 255.75,-142 255.75,-142 255.75,-136 261.75,-130 267.75,-130 267.75,-130 297.75,-130 297.75,-130 303.75,-130 309.75,-136 309.75,-142 309.75,-142 309.75,-154 309.75,-154 309.75,-160 303.75,-166 297.75,-166"/>
<text xml:space="preserve" text-anchor="middle" x="282.75" y="-144.5" font-family="Arial" font-size="10.00" fill="#1a1a1a">meaning</text>
</g>
<!-- attr_3 -->
<g id="node10" class="node">
<title>attr_3</title>
<path fill="#c7b8e6" stroke="#7f8c8d" stroke-width="1.2" d="M488,-199C488,-199 364.75,-199 364.75,-199 358.75,-199 352.75,-193 352.75,-187 352.75,-187 352.75,-175 352.75,-175 352.75,-169 358.75,-163 364.75,-163 364.75,-163 488,-163 488,-163 494,-163 500,-169 500,-175 500,-175 500,-187 500,-187 500,-193 494,-199 488,-199"/>
<text xml:space="preserve" text-anchor="middle" x="426.38" y="-177.5" font-family="Arial" font-size="10.00" fill="#1a1a1a">(+) unclear confusing meaning</text>
</g>
<!-- unknown.meaning&#45;&gt;attr_3 -->
<g id="edge5" class="edge">
<title>unknown.meaning&#45;&gt;attr_3</title>
<path fill="none" stroke="#aaaaaa" d="M310.39,-154.21C320.25,-156.5 332.01,-159.24 344.19,-162.08"/>
<polygon fill="#aaaaaa" stroke="#aaaaaa" points="343.39,-164.41 350.76,-163.62 344.5,-159.64 343.39,-164.41"/>
</g>
<!-- rel_1 -->
<g id="node12" class="node">
<title>rel_1</title>
<path fill="#f5b8b8" stroke="#d46a6a" stroke-width="1.2" d="M442.25,-134C442.25,-134 410.5,-134 410.5,-134 404.5,-134 398.5,-128 398.5,-122 398.5,-122 398.5,-110 398.5,-110 398.5,-104 404.5,-98 410.5,-98 410.5,-98 442.25,-98 442.25,-98 448.25,-98 454.25,-104 454.25,-110 454.25,-110 454.25,-122 454.25,-122 454.25,-128 448.25,-134 442.25,-134"/>
<text xml:space="preserve" text-anchor="middle" x="426.38" y="-112.5" font-family="Arial" font-size="10.00" fill="#8b0000">obscures</text>
</g>
<!-- unknown.meaning&#45;&gt;rel_1 -->
<g id="edge8" class="edge">
<title>unknown.meaning&#45;&gt;rel_1</title>
<path fill="none" stroke="#d46a6a" stroke-width="1.5" d="M310.39,-141.98C332.4,-137.01 363.9,-129.89 388.37,-124.36"/>
<polygon fill="#d46a6a" stroke="#d46a6a" stroke-width="1.5" points="388.97,-127.1 396.16,-122.6 387.74,-121.63 388.97,-127.1"/>
</g>
<!-- rel_0&#45;&gt;mark.bar -->
<g id="edge7" class="edge">
<title>rel_0&#45;&gt;mark.bar</title>
<path fill="none" stroke="#d46a6a" stroke-width="1.5" d="M211.45,-18C222.81,-18 234.5,-18 245,-18"/>
<polygon fill="#d46a6a" stroke="#d46a6a" stroke-width="1.5" points="244.78,-20.8 252.78,-18 244.78,-15.2 244.78,-20.8"/>
</g>
<!-- rel_1&#45;&gt;structure.layout -->
<g id="edge9" class="edge">
<title>rel_1&#45;&gt;structure.layout</title>
<path fill="none" stroke="#d46a6a" stroke-width="1.5" d="M454.68,-116C476.67,-116 507.79,-116 532.01,-116"/>
<polygon fill="#d46a6a" stroke="#d46a6a" stroke-width="1.5" points="531.99,-118.8 539.99,-116 531.99,-113.2 531.99,-118.8"/>
</g>
<!-- rel_2&#45;&gt;unknown.meaning -->
<g id="edge11" class="edge">
<title>rel_2&#45;&gt;unknown.meaning</title>
<path fill="none" stroke="#d46a6a" stroke-width="1.5" d="M192.62,-148C209.21,-148 228.75,-148 245.3,-148"/>
<polygon fill="#d46a6a" stroke="#d46a6a" stroke-width="1.5" points="244.89,-150.8 252.89,-148 244.89,-145.2 244.89,-150.8"/>
</g>
</g>
</svg>
