<?xml version="1.0" encoding="UTF-8" standalone="no"?>
<!DOCTYPE svg PUBLIC "-//W3C//DTD SVG 1.1//EN"
 "http://www.w3.org/Graphics/SVG/1.1/DTD/svg11.dtd">
<!-- Generated by graphviz version 14.1.5 (20260411.2331)
 -->
<!-- Title: InfoVisJ.1054.3.png Pages: 1 -->
<svg width="905pt" height="375pt"
 viewBox="0.00 0.00 905.00 375.00" xmlns="http://www.w3.org/2000/svg" xmlns:xlink="http://www.w3.org/1999/xlink">
<g id="graph0" class="graph" transform="scale(1 1) rotate(0) translate(4 371.25)">
<title>InfoVisJ.1054.3.png</title>
<polygon fill="white" stroke="none" points="-4,4 -4,-371.25 900.75,-371.25 900.75,4 -4,4"/>
<text xml:space="preserve" text-anchor="start" x="385.38" y="-346.95" font-family="Arial" font-weight="bold" font-size="14.00">InfoVisJ.1054.3.png</text>
<text xml:space="preserve" text-anchor="start" x="404.5" y="-327" font-family="Arial" font-size="11.00">Area &#160;| &#160;VC = 0.39</text>
<path fill="#b8e6b8" stroke="none" d="M239,-302C239,-302 247,-302 247,-302 250,-302 253,-305 253,-308 253,-308 253,-314 253,-314 253,-317 250,-320 247,-320 247,-320 239,-320 239,-320 236,-320 233,-317 233,-314 233,-314 233,-308 233,-308 233,-305 236,-302 239,-302"/>
<path fill="none" stroke="black" d="M239,-302C239,-302 247,-302 247,-302 250,-302 253,-305 253,-308 253,-308 253,-314 253,-314 253,-317 250,-320 247,-320 247,-320 239,-320 239,-320 236,-320 233,-317 233,-314 233,-314 233,-308 233,-308 233,-305 236,-302 239,-302"/>
<text xml:space="preserve" text-anchor="start" x="241.5" y="-307.25" font-family="Arial" font-size="10.00"> </text>
<text xml:space="preserve" text-anchor="start" x="257" y="-307.25" font-family="Arial" font-size="10.00">Object</text>
<path fill="#c7b8e6" stroke="none" d="M295.5,-302C295.5,-302 303.5,-302 303.5,-302 306.5,-302 309.5,-305 309.5,-308 309.5,-308 309.5,-314 309.5,-314 309.5,-317 306.5,-320 303.5,-320 303.5,-320 295.5,-320 295.5,-320 292.5,-320 289.5,-317 289.5,-314 289.5,-314 289.5,-308 289.5,-308 289.5,-305 292.5,-302 295.5,-302"/>
<path fill="none" stroke="black" d="M295.5,-302C295.5,-302 303.5,-302 303.5,-302 306.5,-302 309.5,-305 309.5,-308 309.5,-308 309.5,-314 309.5,-314 309.5,-317 306.5,-320 303.5,-320 303.5,-320 295.5,-320 295.5,-320 292.5,-320 289.5,-317 289.5,-314 289.5,-314 289.5,-308 289.5,-308 289.5,-305 292.5,-302 295.5,-302"/>
<text xml:space="preserve" text-anchor="start" x="298" y="-307.25" font-family="Arial" font-size="10.00"> </text>
<text xml:space="preserve" text-anchor="start" x="313.5" y="-307.25" font-family="Arial" font-size="10.00">Attribute</text>
<path fill="#f5b8b8" stroke="none" d="M360.25,-302C360.25,-302 368.25,-302 368.25,-302 371.25,-302 374.25,-305 374.25,-308 374.25,-308 374.25,-314 374.25,-314 374.25,-317 371.25,-320 368.25,-320 368.25,-320 360.25,-320 360.25,-320 357.25,-320 354.25,-317 354.25,-314 354.25,-314 354.25,-308 354.25,-308 354.25,-305 357.25,-302 360.25,-302"/>
<path fill="none" stroke="black" d="M360.25,-302C360.25,-302 368.25,-302 368.25,-302 371.25,-302 374.25,-305 374.25,-308 374.25,-308 374.25,-314 374.25,-314 374.25,-317 371.25,-320 368.25,-320 368.25,-320 360.25,-320 360.25,-320 357.25,-320 354.25,-317 354.25,-314 354.25,-314 354.25,-308 354.25,-308 354.25,-305 357.25,-302 360.25,-302"/>
<text xml:space="preserve" text-anchor="start" x="362.75" y="-307.25" font-family="Arial" font-size="10.00"> </text>
<text xml:space="preserve" text-anchor="start" x="378.25" y="-307.25" font-family="Arial" font-size="10.00">Relationship</text>
<text xml:space="preserve" text-anchor="start" x="438.25" y="-308.5" font-family="Arial" font-weight="bold" font-size="10.00">(+)</text>
<text xml:space="preserve" text-anchor="start" x="450.25" y="-308.5" font-family="Arial" font-size="10.00"> increases complexity</text>
<text xml:space="preserve" text-anchor="start" x="551.5" y="-308.5" font-family="Arial" font-weight="bold" font-size="10.00">(−)</text>
<text xml:space="preserve" text-anchor="start" x="563.5" y="-308.5" font-family="Arial" font-size="10.00"> decreases complexity</text>
<!-- unknown.area_fills -->
<g id="node1" class="node">
<title>unknown.area_fills</title>
<path fill="#b8e6b8" stroke="#2c3e50" stroke-width="1.8" d="M597.25,-101C597.25,-101 567.25,-101 567.25,-101 561.25,-101 555.25,-95 555.25,-89 555.25,-89 555.25,-77 555.25,-77 555.25,-71 561.25,-65 567.25,-65 567.25,-65 597.25,-65 597.25,-65 603.25,-65 609.25,-71 609.25,-77 609.25,-77 609.25,-89 609.25,-89 609.25,-95 603.25,-101 597.25,-101"/>
<text xml:space="preserve" text-anchor="middle" x="582.25" y="-79.5" font-family="Arial" font-size="10.00" fill="#1a1a1a">area fills</text>
</g>
<!-- attr_0 -->
<g id="node6" class="node">
<title>attr_0</title>
<path fill="#c7b8e6" stroke="#7f8c8d" stroke-width="1.2" d="M784.5,-101C784.5,-101 664.25,-101 664.25,-101 658.25,-101 652.25,-95 652.25,-89 652.25,-89 652.25,-77 652.25,-77 652.25,-71 658.25,-65 664.25,-65 664.25,-65 784.5,-65 784.5,-65 790.5,-65 796.5,-71 796.5,-77 796.5,-77 796.5,-89 796.5,-89 796.5,-95 790.5,-101 784.5,-101"/>
<text xml:space="preserve" text-anchor="middle" x="724.38" y="-79.5" font-family="Arial" font-size="10.00" fill="#1a1a1a">(+) multiple overlapping areas</text>
</g>
<!-- unknown.area_fills&#45;&gt;attr_0 -->
<g id="edge1" class="edge">
<title>unknown.area_fills&#45;&gt;attr_0</title>
<path fill="none" stroke="#aaaaaa" d="M609.94,-83C619.74,-83 631.42,-83 643.49,-83"/>
<polygon fill="#aaaaaa" stroke="#aaaaaa" points="643.38,-85.45 650.38,-83 643.38,-80.55 643.38,-85.45"/>
</g>
<!-- rel_3 -->
<g id="node14" class="node">
<title>rel_3</title>
<path fill="#f5b8b8" stroke="#d46a6a" stroke-width="1.2" d="M746.62,-36C746.62,-36 702.12,-36 702.12,-36 696.12,-36 690.12,-30 690.12,-24 690.12,-24 690.12,-12 690.12,-12 690.12,-6 696.12,0 702.12,0 702.12,0 746.62,0 746.62,0 752.62,0 758.62,-6 758.62,-12 758.62,-12 758.62,-24 758.62,-24 758.62,-30 752.62,-36 746.62,-36"/>
<text xml:space="preserve" text-anchor="middle" x="724.38" y="-14.5" font-family="Arial" font-size="10.00" fill="#8b0000">overwhelms</text>
</g>
<!-- unknown.area_fills&#45;&gt;rel_3 -->
<g id="edge12" class="edge">
<title>unknown.area_fills&#45;&gt;rel_3</title>
<path fill="none" stroke="#d46a6a" stroke-width="1.5" d="M610.05,-70C622.8,-63.87 638.28,-56.48 652.25,-50 661.37,-45.77 671.18,-41.3 680.52,-37.09"/>
<polygon fill="#d46a6a" stroke="#d46a6a" stroke-width="1.5" points="681.44,-39.74 687.58,-33.91 679.14,-34.64 681.44,-39.74"/>
</g>
<!-- unknown.color_palette -->
<g id="node2" class="node">
<title>unknown.color_palette</title>
<path fill="#b8e6b8" stroke="#2c3e50" stroke-width="1.8" d="M329.5,-198C329.5,-198 284.25,-198 284.25,-198 278.25,-198 272.25,-192 272.25,-186 272.25,-186 272.25,-174 272.25,-174 272.25,-168 278.25,-162 284.25,-162 284.25,-162 329.5,-162 329.5,-162 335.5,-162 341.5,-168 341.5,-174 341.5,-174 341.5,-186 341.5,-186 341.5,-192 335.5,-198 329.5,-198"/>
<text xml:space="preserve" text-anchor="middle" x="306.88" y="-176.5" font-family="Arial" font-size="10.00" fill="#1a1a1a">color palette</text>
</g>
<!-- attr_1 -->
<g id="node7" class="node">
<title>attr_1</title>
<path fill="#c7b8e6" stroke="#7f8c8d" stroke-width="1.2" d="M486.75,-296C486.75,-296 410,-296 410,-296 404,-296 398,-290 398,-284 398,-284 398,-272 398,-272 398,-266 404,-260 410,-260 410,-260 486.75,-260 486.75,-260 492.75,-260 498.75,-266 498.75,-272 498.75,-272 498.75,-284 498.75,-284 498.75,-290 492.75,-296 486.75,-296"/>
<text xml:space="preserve" text-anchor="middle" x="448.38" y="-274.5" font-family="Arial" font-size="10.00" fill="#1a1a1a">(+) too many colors</text>
</g>
<!-- unknown.color_palette&#45;&gt;attr_1 -->
<g id="edge2" class="edge">
<title>unknown.color_palette&#45;&gt;attr_1</title>
<path fill="none" stroke="#aaaaaa" d="M326.99,-198.76C341.88,-212.79 363.5,-231.91 384.5,-246 389.39,-249.28 394.67,-252.46 400.01,-255.46"/>
<polygon fill="#aaaaaa" stroke="#aaaaaa" points="398.66,-257.52 405.98,-258.71 401,-253.21 398.66,-257.52"/>
</g>
<!-- attr_2 -->
<g id="node8" class="node">
<title>attr_2</title>
<path fill="#c7b8e6" stroke="#7f8c8d" stroke-width="1.2" d="M500.25,-231C500.25,-231 396.5,-231 396.5,-231 390.5,-231 384.5,-225 384.5,-219 384.5,-219 384.5,-207 384.5,-207 384.5,-201 390.5,-195 396.5,-195 396.5,-195 500.25,-195 500.25,-195 506.25,-195 512.25,-201 512.25,-207 512.25,-207 512.25,-219 512.25,-219 512.25,-225 506.25,-231 500.25,-231"/>
<text xml:space="preserve" text-anchor="middle" x="448.38" y="-209.5" font-family="Arial" font-size="10.00" fill="#1a1a1a">(+) moderate color variety</text>
</g>
<!-- unknown.color_palette&#45;&gt;attr_2 -->
<g id="edge3" class="edge">
<title>unknown.color_palette&#45;&gt;attr_2</title>
<path fill="none" stroke="#aaaaaa" d="M342.36,-188.16C352.58,-190.58 364.18,-193.32 375.85,-196.08"/>
<polygon fill="#aaaaaa" stroke="#aaaaaa" points="375.07,-198.41 382.45,-197.64 376.2,-193.65 375.07,-198.41"/>
</g>
<!-- rel_0 -->
<g id="node11" class="node">
<title>rel_0</title>
<path fill="#f5b8b8" stroke="#d46a6a" stroke-width="1.2" d="M463.38,-166C463.38,-166 433.38,-166 433.38,-166 427.38,-166 421.38,-160 421.38,-154 421.38,-154 421.38,-142 421.38,-142 421.38,-136 427.38,-130 433.38,-130 433.38,-130 463.38,-130 463.38,-130 469.38,-130 475.38,-136 475.38,-142 475.38,-142 475.38,-154 475.38,-154 475.38,-160 469.38,-166 463.38,-166"/>
<text xml:space="preserve" text-anchor="middle" x="448.38" y="-144.5" font-family="Arial" font-size="10.00" fill="#8b0000">hinders</text>
</g>
<!-- unknown.color_palette&#45;&gt;rel_0 -->
<g id="edge6" class="edge">
<title>unknown.color_palette&#45;&gt;rel_0</title>
<path fill="none" stroke="#d46a6a" stroke-width="1.5" d="M342.36,-172.09C363.3,-167.29 389.99,-161.16 411.23,-156.29"/>
<polygon fill="#d46a6a" stroke="#d46a6a" stroke-width="1.5" points="411.78,-159.04 418.95,-154.52 410.53,-153.58 411.78,-159.04"/>
</g>
<!-- rel_1 -->
<g id="node12" class="node">
<title>rel_1</title>
<path fill="#f5b8b8" stroke="#d46a6a" stroke-width="1.2" d="M470.62,-101C470.62,-101 426.12,-101 426.12,-101 420.12,-101 414.12,-95 414.12,-89 414.12,-89 414.12,-77 414.12,-77 414.12,-71 420.12,-65 426.12,-65 426.12,-65 470.62,-65 470.62,-65 476.62,-65 482.62,-71 482.62,-77 482.62,-77 482.62,-89 482.62,-89 482.62,-95 476.62,-101 470.62,-101"/>
<text xml:space="preserve" text-anchor="middle" x="448.38" y="-79.5" font-family="Arial" font-size="10.00" fill="#8b0000">encodes via</text>
</g>
<!-- unknown.color_palette&#45;&gt;rel_1 -->
<g id="edge8" class="edge">
<title>unknown.color_palette&#45;&gt;rel_1</title>
<path fill="none" stroke="#d46a6a" stroke-width="1.5" d="M327.34,-161.26C342.26,-147.48 363.73,-128.82 384.5,-115 390.88,-110.75 397.9,-106.67 404.86,-102.93"/>
<polygon fill="#d46a6a" stroke="#d46a6a" stroke-width="1.5" points="405.78,-105.6 411.59,-99.43 403.2,-100.64 405.78,-105.6"/>
</g>
<!-- furniture.legend -->
<g id="node3" class="node">
<title>furniture.legend</title>
<path fill="#b8e6b8" stroke="#2c3e50" stroke-width="1.8" d="M42,-230C42,-230 12,-230 12,-230 6,-230 0,-224 0,-218 0,-218 0,-206 0,-206 0,-200 6,-194 12,-194 12,-194 42,-194 42,-194 48,-194 54,-200 54,-206 54,-206 54,-218 54,-218 54,-224 48,-230 42,-230"/>
<text xml:space="preserve" text-anchor="middle" x="27" y="-208.5" font-family="Arial" font-size="10.00" fill="#1a1a1a">legend</text>
</g>
<!-- attr_3 -->
<g id="node9" class="node">
<title>attr_3</title>
<path fill="#c7b8e6" stroke="#7f8c8d" stroke-width="1.2" d="M217.25,-263C217.25,-263 109,-263 109,-263 103,-263 97,-257 97,-251 97,-251 97,-239 97,-239 97,-233 103,-227 109,-227 109,-227 217.25,-227 217.25,-227 223.25,-227 229.25,-233 229.25,-239 229.25,-239 229.25,-251 229.25,-251 229.25,-257 223.25,-263 217.25,-263"/>
<text xml:space="preserve" text-anchor="middle" x="163.12" y="-241.5" font-family="Arial" font-size="10.00" fill="#1a1a1a">(+) requires color matching</text>
</g>
<!-- furniture.legend&#45;&gt;attr_3 -->
<g id="edge4" class="edge">
<title>furniture.legend&#45;&gt;attr_3</title>
<path fill="none" stroke="#aaaaaa" d="M54.82,-218.6C64.73,-221.04 76.5,-223.93 88.55,-226.9"/>
<polygon fill="#aaaaaa" stroke="#aaaaaa" points="87.64,-229.2 95.02,-228.49 88.81,-224.44 87.64,-229.2"/>
</g>
<!-- rel_2 -->
<g id="node13" class="node">
<title>rel_2</title>
<path fill="#f5b8b8" stroke="#d46a6a" stroke-width="1.2" d="M204.88,-198C204.88,-198 121.38,-198 121.38,-198 115.38,-198 109.38,-192 109.38,-186 109.38,-186 109.38,-174 109.38,-174 109.38,-168 115.38,-162 121.38,-162 121.38,-162 204.88,-162 204.88,-162 210.88,-162 216.88,-168 216.88,-174 216.88,-174 216.88,-186 216.88,-186 216.88,-192 210.88,-198 204.88,-198"/>
<text xml:space="preserve" text-anchor="middle" x="163.12" y="-176.5" font-family="Arial" font-size="10.00" fill="#8b0000">requires expertise for</text>
</g>
<!-- furniture.legend&#45;&gt;rel_2 -->
<g id="edge10" class="edge">
<title>furniture.legend&#45;&gt;rel_2</title>
<path fill="none" stroke="#d46a6a" stroke-width="1.5" d="M54.82,-205.6C67.67,-202.54 83.65,-198.72 99.32,-194.98"/>
<polygon fill="#d46a6a" stroke="#d46a6a" stroke-width="1.5" points="99.67,-197.78 106.8,-193.2 98.37,-192.33 99.67,-197.78"/>
</g>
<!-- text.axis_label -->
<g id="node4" class="node">
<title>text.axis_label</title>
<path fill="#b8e6b8" stroke="#2c3e50" stroke-width="1.8" d="M884.75,-36C884.75,-36 851.5,-36 851.5,-36 845.5,-36 839.5,-30 839.5,-24 839.5,-24 839.5,-12 839.5,-12 839.5,-6 845.5,0 851.5,0 851.5,0 884.75,0 884.75,0 890.75,0 896.75,-6 896.75,-12 896.75,-12 896.75,-24 896.75,-24 896.75,-30 890.75,-36 884.75,-36"/>
<text xml:space="preserve" text-anchor="middle" x="868.12" y="-14.5" font-family="Arial" font-size="10.00" fill="#1a1a1a">axis label</text>
</g>
<!-- text.label -->
<g id="node5" class="node">
<title>text.label</title>
<path fill="#b8e6b8" stroke="#2c3e50" stroke-width="1.8" d="M597.25,-166C597.25,-166 567.25,-166 567.25,-166 561.25,-166 555.25,-160 555.25,-154 555.25,-154 555.25,-142 555.25,-142 555.25,-136 561.25,-130 567.25,-130 567.25,-130 597.25,-130 597.25,-130 603.25,-130 609.25,-136 609.25,-142 609.25,-142 609.25,-154 609.25,-154 609.25,-160 603.25,-166 597.25,-166"/>
<text xml:space="preserve" text-anchor="middle" x="582.25" y="-144.5" font-family="Arial" font-size="10.00" fill="#1a1a1a">text</text>
</g>
<!-- attr_4 -->
<g id="node10" class="node">
<title>attr_4</title>
<path fill="#c7b8e6" stroke="#7f8c8d" stroke-width="1.2" d="M771.38,-166C771.38,-166 677.38,-166 677.38,-166 671.38,-166 665.38,-160 665.38,-154 665.38,-154 665.38,-142 665.38,-142 665.38,-136 671.38,-130 677.38,-130 677.38,-130 771.38,-130 771.38,-130 777.38,-130 783.38,-136 783.38,-142 783.38,-142 783.38,-154 783.38,-154 783.38,-160 777.38,-166 771.38,-166"/>
<text xml:space="preserve" text-anchor="middle" x="724.38" y="-144.5" font-family="Arial" font-size="10.00" fill="#1a1a1a">(−) adequate readability</text>
</g>
<!-- text.label&#45;&gt;attr_4 -->
<g id="edge5" class="edge">
<title>text.label&#45;&gt;attr_4</title>
<path fill="none" stroke="#aaaaaa" d="M609.94,-148C623.31,-148 640.16,-148 656.76,-148"/>
<polygon fill="#aaaaaa" stroke="#aaaaaa" points="656.35,-150.45 663.35,-148 656.35,-145.55 656.35,-150.45"/>
</g>
<!-- rel_0&#45;&gt;text.label -->
<g id="edge7" class="edge">
<title>rel_0&#45;&gt;text.label</title>
<path fill="none" stroke="#d46a6a" stroke-width="1.5" d="M475.74,-148C495.38,-148 522.45,-148 544.25,-148"/>
<polygon fill="#d46a6a" stroke="#d46a6a" stroke-width="1.5" points="544.2,-150.8 552.2,-148 544.2,-145.2 544.2,-150.8"/>
</g>
<!-- rel_1&#45;&gt;unknown.area_fills -->
<g id="edge9" class="edge">
<title>rel_1&#45;&gt;unknown.area_fills</title>
<path fill="none" stroke="#d46a6a" stroke-width="1.5" d="M482.99,-83C501.79,-83 525.25,-83 544.53,-83"/>
<polygon fill="#d46a6a" stroke="#d46a6a" stroke-width="1.5" points="544.49,-85.8 552.49,-83 544.49,-80.2 544.49,-85.8"/>
</g>
<!-- rel_2&#45;&gt;unknown.color_palette -->
<g id="edge11" class="edge">
<title>rel_2&#45;&gt;unknown.color_palette</title>
<path fill="none" stroke="#d46a6a" stroke-width="1.5" d="M217.31,-180C231.98,-180 247.72,-180 261.81,-180"/>
<polygon fill="#d46a6a" stroke="#d46a6a" stroke-width="1.5" points="261.47,-182.8 269.47,-180 261.47,-177.2 261.47,-182.8"/>
</g>
<!-- rel_3&#45;&gt;text.axis_label -->
<g id="edge13" class="edge">
<title>rel_3&#45;&gt;text.axis_label</title>
<path fill="none" stroke="#d46a6a" stroke-width="1.5" d="M758.97,-18C779.93,-18 806.99,-18 828.79,-18"/>
<polygon fill="#d46a6a" stroke="#d46a6a" stroke-width="1.5" points="828.75,-20.8 836.75,-18 828.75,-15.2 828.75,-20.8"/>
</g>
</g>
</svg>
