<?xml version="1.0" encoding="UTF-8" standalone="no"?>
<!DOCTYPE svg PUBLIC "-//W3C//DTD SVG 1.1//EN"
 "http://www.w3.org/Graphics/SVG/1.1/DTD/svg11.dtd">
<!-- Generated by graphviz version 14.1.5 (20260411.2331)
 -->
<!-- Title: InfoVisJ.669.4.png Pages: 1 -->
<svg width="528pt" height="505pt"
 viewBox="0.00 0.00 528.00 505.00" xmlns="http://www.w3.org/2000/svg" xmlns:xlink="http://www.w3.org/1999/xlink">
<g id="graph0" class="graph" transform="scale(1 1) rotate(0) translate(4 501.25)">
<title>InfoVisJ.669.4.png</title>
<polygon fill="white" stroke="none" points="-4,4 -4,-501.25 523.75,-501.25 523.75,4 -4,4"/>
<text xml:space="preserve" text-anchor="start" x="200.62" y="-476.95" font-family="Arial" font-weight="bold" font-size="14.00">InfoVisJ.669.4.png</text>
<text xml:space="preserve" text-anchor="start" x="215.25" y="-457" font-family="Arial" font-size="11.00">Point &#160;| &#160;VC = 0.59</text>
<path fill="#b8e6b8" stroke="none" d="M50.5,-432C50.5,-432 58.5,-432 58.5,-432 61.5,-432 64.5,-435 64.5,-438 64.5,-438 64.5,-444 64.5,-444 64.5,-447 61.5,-450 58.5,-450 58.5,-450 50.5,-450 50.5,-450 47.5,-450 44.5,-447 44.5,-444 44.5,-444 44.5,-438 44.5,-438 44.5,-435 47.5,-432 50.5,-432"/>
<path fill="none" stroke="black" d="M50.5,-432C50.5,-432 58.5,-432 58.5,-432 61.5,-432 64.5,-435 64.5,-438 64.5,-438 64.5,-444 64.5,-444 64.5,-447 61.5,-450 58.5,-450 58.5,-450 50.5,-450 50.5,-450 47.5,-450 44.5,-447 44.5,-444 44.5,-444 44.5,-438 44.5,-438 44.5,-435 47.5,-432 50.5,-432"/>
<text xml:space="preserve" text-anchor="start" x="53" y="-437.25" font-family="Arial" font-size="10.00"> </text>
<text xml:space="preserve" text-anchor="start" x="68.5" y="-437.25" font-family="Arial" font-size="10.00">Object</text>
<path fill="#c7b8e6" stroke="none" d="M107,-432C107,-432 115,-432 115,-432 118,-432 121,-435 121,-438 121,-438 121,-444 121,-444 121,-447 118,-450 115,-450 115,-450 107,-450 107,-450 104,-450 101,-447 101,-444 101,-444 101,-438 101,-438 101,-435 104,-432 107,-432"/>
<path fill="none" stroke="black" d="M107,-432C107,-432 115,-432 115,-432 118,-432 121,-435 121,-438 121,-438 121,-444 121,-444 121,-447 118,-450 115,-450 115,-450 107,-450 107,-450 104,-450 101,-447 101,-444 101,-444 101,-438 101,-438 101,-435 104,-432 107,-432"/>
<text xml:space="preserve" text-anchor="start" x="109.5" y="-437.25" font-family="Arial" font-size="10.00"> </text>
<text xml:space="preserve" text-anchor="start" x="125" y="-437.25" font-family="Arial" font-size="10.00">Attribute</text>
<path fill="#f5b8b8" stroke="none" d="M171.75,-432C171.75,-432 179.75,-432 179.75,-432 182.75,-432 185.75,-435 185.75,-438 185.75,-438 185.75,-444 185.75,-444 185.75,-447 182.75,-450 179.75,-450 179.75,-450 171.75,-450 171.75,-450 168.75,-450 165.75,-447 165.75,-444 165.75,-444 165.75,-438 165.75,-438 165.75,-435 168.75,-432 171.75,-432"/>
<path fill="none" stroke="black" d="M171.75,-432C171.75,-432 179.75,-432 179.75,-432 182.75,-432 185.75,-435 185.75,-438 185.75,-438 185.75,-444 185.75,-444 185.75,-447 182.75,-450 179.75,-450 179.75,-450 171.75,-450 171.75,-450 168.75,-450 165.75,-447 165.75,-444 165.75,-444 165.75,-438 165.75,-438 165.75,-435 168.75,-432 171.75,-432"/>
<text xml:space="preserve" text-anchor="start" x="174.25" y="-437.25" font-family="Arial" font-size="10.00"> </text>
<text xml:space="preserve" text-anchor="start" x="189.75" y="-437.25" font-family="Arial" font-size="10.00">Relationship</text>
<text xml:space="preserve" text-anchor="start" x="249.75" y="-438.5" font-family="Arial" font-weight="bold" font-size="10.00">(+)</text>
<text xml:space="preserve" text-anchor="start" x="261.75" y="-438.5" font-family="Arial" font-size="10.00"> increases complexity</text>
<text xml:space="preserve" text-anchor="start" x="363" y="-438.5" font-family="Arial" font-weight="bold" font-size="10.00">(−)</text>
<text xml:space="preserve" text-anchor="start" x="375" y="-438.5" font-family="Arial" font-size="10.00"> decreases complexity</text>
<!-- unknown.data_points -->
<g id="node1" class="node">
<title>unknown.data_points</title>
<path fill="#b8e6b8" stroke="#2c3e50" stroke-width="1.8" d="M52,-328C52,-328 12,-328 12,-328 6,-328 0,-322 0,-316 0,-316 0,-304 0,-304 0,-298 6,-292 12,-292 12,-292 52,-292 52,-292 58,-292 64,-298 64,-304 64,-304 64,-316 64,-316 64,-322 58,-328 52,-328"/>
<text xml:space="preserve" text-anchor="middle" x="32" y="-306.5" font-family="Arial" font-size="10.00" fill="#1a1a1a">data points</text>
</g>
<!-- attr_0 -->
<g id="node5" class="node">
<title>attr_0</title>
<path fill="#c7b8e6" stroke="#7f8c8d" stroke-width="1.2" d="M211.12,-426C211.12,-426 127.62,-426 127.62,-426 121.62,-426 115.62,-420 115.62,-414 115.62,-414 115.62,-402 115.62,-402 115.62,-396 121.62,-390 127.62,-390 127.62,-390 211.12,-390 211.12,-390 217.12,-390 223.12,-396 223.12,-402 223.12,-402 223.12,-414 223.12,-414 223.12,-420 217.12,-426 211.12,-426"/>
<text xml:space="preserve" text-anchor="middle" x="169.38" y="-404.5" font-family="Arial" font-size="10.00" fill="#1a1a1a">(+) high point density</text>
</g>
<!-- unknown.data_points&#45;&gt;attr_0 -->
<g id="edge1" class="edge">
<title>unknown.data_points&#45;&gt;attr_0</title>
<path fill="none" stroke="#aaaaaa" d="M51.39,-328.76C65.74,-342.79 86.6,-361.91 107,-376 111.76,-379.29 116.9,-382.47 122.1,-385.47"/>
<polygon fill="#aaaaaa" stroke="#aaaaaa" points="120.59,-387.43 127.9,-388.7 122.98,-383.15 120.59,-387.43"/>
</g>
<!-- attr_1 -->
<g id="node6" class="node">
<title>attr_1</title>
<path fill="#c7b8e6" stroke="#7f8c8d" stroke-width="1.2" d="M219.75,-361C219.75,-361 119,-361 119,-361 113,-361 107,-355 107,-349 107,-349 107,-337 107,-337 107,-331 113,-325 119,-325 119,-325 219.75,-325 219.75,-325 225.75,-325 231.75,-331 231.75,-337 231.75,-337 231.75,-349 231.75,-349 231.75,-355 225.75,-361 219.75,-361"/>
<text xml:space="preserve" text-anchor="middle" x="169.38" y="-339.5" font-family="Arial" font-size="10.00" fill="#1a1a1a">(+) numerous data points</text>
</g>
<!-- unknown.data_points&#45;&gt;attr_1 -->
<g id="edge2" class="edge">
<title>unknown.data_points&#45;&gt;attr_1</title>
<path fill="none" stroke="#aaaaaa" d="M64.74,-317.74C74.9,-320.21 86.58,-323.06 98.36,-325.93"/>
<polygon fill="#aaaaaa" stroke="#aaaaaa" points="97.65,-328.28 105.04,-327.56 98.82,-323.52 97.65,-328.28"/>
</g>
<!-- rel_0 -->
<g id="node10" class="node">
<title>rel_0</title>
<path fill="#f5b8b8" stroke="#d46a6a" stroke-width="1.2" d="M186.38,-296C186.38,-296 152.38,-296 152.38,-296 146.38,-296 140.38,-290 140.38,-284 140.38,-284 140.38,-272 140.38,-272 140.38,-266 146.38,-260 152.38,-260 152.38,-260 186.38,-260 186.38,-260 192.38,-260 198.38,-266 198.38,-272 198.38,-272 198.38,-284 198.38,-284 198.38,-290 192.38,-296 186.38,-296"/>
<text xml:space="preserve" text-anchor="middle" x="169.38" y="-274.5" font-family="Arial" font-size="10.00" fill="#8b0000">increases</text>
</g>
<!-- unknown.data_points&#45;&gt;rel_0 -->
<g id="edge6" class="edge">
<title>unknown.data_points&#45;&gt;rel_0</title>
<path fill="none" stroke="#d46a6a" stroke-width="1.5" d="M64.74,-302.5C84.35,-297.86 109.63,-291.89 130.32,-287"/>
<polygon fill="#d46a6a" stroke="#d46a6a" stroke-width="1.5" points="130.7,-289.78 137.85,-285.22 129.42,-284.33 130.7,-289.78"/>
</g>
<!-- rel_2 -->
<g id="node12" class="node">
<title>rel_2</title>
<path fill="#f5b8b8" stroke="#d46a6a" stroke-width="1.2" d="M186.38,-231C186.38,-231 152.38,-231 152.38,-231 146.38,-231 140.38,-225 140.38,-219 140.38,-219 140.38,-207 140.38,-207 140.38,-201 146.38,-195 152.38,-195 152.38,-195 186.38,-195 186.38,-195 192.38,-195 198.38,-201 198.38,-207 198.38,-207 198.38,-219 198.38,-219 198.38,-225 192.38,-231 186.38,-231"/>
<text xml:space="preserve" text-anchor="middle" x="169.38" y="-209.5" font-family="Arial" font-size="10.00" fill="#8b0000">populates</text>
</g>
<!-- unknown.data_points&#45;&gt;rel_2 -->
<g id="edge10" class="edge">
<title>unknown.data_points&#45;&gt;rel_2</title>
<path fill="none" stroke="#d46a6a" stroke-width="1.5" d="M52.14,-291.37C66.54,-277.88 87.14,-259.68 107,-246 114.46,-240.86 122.8,-235.91 130.87,-231.47"/>
<polygon fill="#d46a6a" stroke="#d46a6a" stroke-width="1.5" points="132.07,-234.01 137.81,-227.77 129.43,-229.07 132.07,-234.01"/>
</g>
<!-- text.axis_label -->
<g id="node2" class="node">
<title>text.axis_label</title>
<path fill="#b8e6b8" stroke="#2c3e50" stroke-width="1.8" d="M48.62,-101C48.62,-101 15.38,-101 15.38,-101 9.38,-101 3.38,-95 3.38,-89 3.38,-89 3.38,-77 3.38,-77 3.38,-71 9.38,-65 15.38,-65 15.38,-65 48.62,-65 48.62,-65 54.62,-65 60.62,-71 60.62,-77 60.62,-77 60.62,-89 60.62,-89 60.62,-95 54.62,-101 48.62,-101"/>
<text xml:space="preserve" text-anchor="middle" x="32" y="-79.5" font-family="Arial" font-size="10.00" fill="#1a1a1a">axis label</text>
</g>
<!-- attr_2 -->
<g id="node7" class="node">
<title>attr_2</title>
<path fill="#c7b8e6" stroke="#7f8c8d" stroke-width="1.2" d="M217.88,-166C217.88,-166 120.88,-166 120.88,-166 114.88,-166 108.88,-160 108.88,-154 108.88,-154 108.88,-142 108.88,-142 108.88,-136 114.88,-130 120.88,-130 120.88,-130 217.88,-130 217.88,-130 223.88,-130 229.88,-136 229.88,-142 229.88,-142 229.88,-154 229.88,-154 229.88,-160 223.88,-166 217.88,-166"/>
<text xml:space="preserve" text-anchor="middle" x="169.38" y="-144.5" font-family="Arial" font-size="10.00" fill="#1a1a1a">(−) labeled axes present</text>
</g>
<!-- text.axis_label&#45;&gt;attr_2 -->
<g id="edge3" class="edge">
<title>text.axis_label&#45;&gt;attr_2</title>
<path fill="none" stroke="#aaaaaa" d="M61.38,-96.63C78.98,-105.08 102,-116.13 122.19,-125.82"/>
<polygon fill="#aaaaaa" stroke="#aaaaaa" points="121.03,-127.98 128.4,-128.81 123.15,-123.57 121.03,-127.98"/>
</g>
<!-- rel_1 -->
<g id="node11" class="node">
<title>rel_1</title>
<path fill="#f5b8b8" stroke="#d46a6a" stroke-width="1.2" d="M209.62,-36C209.62,-36 129.12,-36 129.12,-36 123.12,-36 117.12,-30 117.12,-24 117.12,-24 117.12,-12 117.12,-12 117.12,-6 123.12,0 129.12,0 129.12,0 209.62,0 209.62,0 215.62,0 221.62,-6 221.62,-12 221.62,-12 221.62,-24 221.62,-24 221.62,-30 215.62,-36 209.62,-36"/>
<text xml:space="preserve" text-anchor="middle" x="169.38" y="-14.5" font-family="Arial" font-size="10.00" fill="#8b0000">aids interpretation of</text>
</g>
<!-- text.axis_label&#45;&gt;rel_1 -->
<g id="edge8" class="edge">
<title>text.axis_label&#45;&gt;rel_1</title>
<path fill="none" stroke="#d46a6a" stroke-width="1.5" d="M61.38,-69.37C78.51,-61.15 100.79,-50.45 120.58,-40.95"/>
<polygon fill="#d46a6a" stroke="#d46a6a" stroke-width="1.5" points="121.72,-43.51 127.72,-37.52 119.29,-38.46 121.72,-43.51"/>
</g>
<!-- rel_3 -->
<g id="node13" class="node">
<title>rel_3</title>
<path fill="#f5b8b8" stroke="#d46a6a" stroke-width="1.2" d="M210.75,-101C210.75,-101 128,-101 128,-101 122,-101 116,-95 116,-89 116,-89 116,-77 116,-77 116,-71 122,-65 128,-65 128,-65 210.75,-65 210.75,-65 216.75,-65 222.75,-71 222.75,-77 222.75,-77 222.75,-89 222.75,-89 222.75,-95 216.75,-101 210.75,-101"/>
<text xml:space="preserve" text-anchor="middle" x="169.38" y="-79.5" font-family="Arial" font-size="10.00" fill="#8b0000">reduces ambiguity of</text>
</g>
<!-- text.axis_label&#45;&gt;rel_3 -->
<g id="edge12" class="edge">
<title>text.axis_label&#45;&gt;rel_3</title>
<path fill="none" stroke="#d46a6a" stroke-width="1.5" d="M61.38,-83C74.23,-83 89.96,-83 105.38,-83"/>
<polygon fill="#d46a6a" stroke="#d46a6a" stroke-width="1.5" points="105.15,-85.8 113.15,-83 105.15,-80.2 105.15,-85.8"/>
</g>
<!-- unknown.axis -->
<g id="node3" class="node">
<title>unknown.axis</title>
<path fill="#b8e6b8" stroke="#2c3e50" stroke-width="1.8" d="M316.75,-36C316.75,-36 286.75,-36 286.75,-36 280.75,-36 274.75,-30 274.75,-24 274.75,-24 274.75,-12 274.75,-12 274.75,-6 280.75,0 286.75,0 286.75,0 316.75,0 316.75,0 322.75,0 328.75,-6 328.75,-12 328.75,-12 328.75,-24 328.75,-24 328.75,-30 322.75,-36 316.75,-36"/>
<text xml:space="preserve" text-anchor="middle" x="301.75" y="-14.5" font-family="Arial" font-size="10.00" fill="#1a1a1a">axis</text>
</g>
<!-- attr_3 -->
<g id="node8" class="node">
<title>attr_3</title>
<path fill="#c7b8e6" stroke="#7f8c8d" stroke-width="1.2" d="M498.75,-36C498.75,-36 392.75,-36 392.75,-36 386.75,-36 380.75,-30 380.75,-24 380.75,-24 380.75,-12 380.75,-12 380.75,-6 386.75,0 392.75,0 392.75,0 498.75,0 498.75,0 504.75,0 510.75,-6 510.75,-12 510.75,-12 510.75,-24 510.75,-24 510.75,-30 504.75,-36 498.75,-36"/>
<text xml:space="preserve" text-anchor="middle" x="445.75" y="-14.5" font-family="Arial" font-size="10.00" fill="#1a1a1a">(−) clearly structured axes</text>
</g>
<!-- unknown.axis&#45;&gt;attr_3 -->
<g id="edge4" class="edge">
<title>unknown.axis&#45;&gt;attr_3</title>
<path fill="none" stroke="#aaaaaa" d="M329.46,-18C341.66,-18 356.77,-18 371.98,-18"/>
<polygon fill="#aaaaaa" stroke="#aaaaaa" points="371.92,-20.45 378.92,-18 371.92,-15.55 371.92,-20.45"/>
</g>
<!-- whole.visualization -->
<g id="node4" class="node">
<title>whole.visualization</title>
<path fill="#b8e6b8" stroke="#2c3e50" stroke-width="1.8" d="M316.75,-231C316.75,-231 286.75,-231 286.75,-231 280.75,-231 274.75,-225 274.75,-219 274.75,-219 274.75,-207 274.75,-207 274.75,-201 280.75,-195 286.75,-195 286.75,-195 316.75,-195 316.75,-195 322.75,-195 328.75,-201 328.75,-207 328.75,-207 328.75,-219 328.75,-219 328.75,-225 322.75,-231 316.75,-231"/>
<text xml:space="preserve" text-anchor="middle" x="301.75" y="-209.5" font-family="Arial" font-size="10.00" fill="#1a1a1a">chart</text>
</g>
<!-- attr_4 -->
<g id="node9" class="node">
<title>attr_4</title>
<path fill="#c7b8e6" stroke="#7f8c8d" stroke-width="1.2" d="M507.75,-231C507.75,-231 383.75,-231 383.75,-231 377.75,-231 371.75,-225 371.75,-219 371.75,-219 371.75,-207 371.75,-207 371.75,-201 377.75,-195 383.75,-195 383.75,-195 507.75,-195 507.75,-195 513.75,-195 519.75,-201 519.75,-207 519.75,-207 519.75,-219 519.75,-219 519.75,-225 513.75,-231 507.75,-231"/>
<text xml:space="preserve" text-anchor="middle" x="445.75" y="-209.5" font-family="Arial" font-size="10.00" fill="#1a1a1a">(+) moderately complex layout</text>
</g>
<!-- whole.visualization&#45;&gt;attr_4 -->
<g id="edge5" class="edge">
<title>whole.visualization&#45;&gt;attr_4</title>
<path fill="none" stroke="#aaaaaa" d="M329.46,-213C339.25,-213 350.91,-213 363,-213"/>
<polygon fill="#aaaaaa" stroke="#aaaaaa" points="362.91,-215.45 369.91,-213 362.91,-210.55 362.91,-215.45"/>
</g>
<!-- rel_0&#45;&gt;whole.visualization -->
<g id="edge7" class="edge">
<title>rel_0&#45;&gt;whole.visualization</title>
<path fill="none" stroke="#d46a6a" stroke-width="1.5" d="M198.66,-263.9C218.02,-254.25 243.84,-241.37 264.67,-230.99"/>
<polygon fill="#d46a6a" stroke="#d46a6a" stroke-width="1.5" points="265.91,-233.5 271.82,-227.42 263.41,-228.49 265.91,-233.5"/>
</g>
<!-- rel_1&#45;&gt;unknown.axis -->
<g id="edge9" class="edge">
<title>rel_1&#45;&gt;unknown.axis</title>
<path fill="none" stroke="#d46a6a" stroke-width="1.5" d="M221.9,-18C235.94,-18 250.87,-18 263.91,-18"/>
<polygon fill="#d46a6a" stroke="#d46a6a" stroke-width="1.5" points="263.65,-20.8 271.65,-18 263.65,-15.2 263.65,-20.8"/>
</g>
<!-- rel_2&#45;&gt;whole.visualization -->
<g id="edge11" class="edge">
<title>rel_2&#45;&gt;whole.visualization</title>
<path fill="none" stroke="#d46a6a" stroke-width="1.5" d="M198.66,-213C217.76,-213 243.14,-213 263.83,-213"/>
<polygon fill="#d46a6a" stroke="#d46a6a" stroke-width="1.5" points="263.58,-215.8 271.58,-213 263.58,-210.2 263.58,-215.8"/>
</g>
<!-- rel_3&#45;&gt;whole.visualization -->
<g id="edge13" class="edge">
<title>rel_3&#45;&gt;whole.visualization</title>
<path fill="none" stroke="#d46a6a" stroke-width="1.5" d="M211.08,-101.45C218.36,-105.68 225.58,-110.56 231.75,-116 254.29,-135.89 273.5,-164.5 285.88,-185.49"/>
<polygon fill="#d46a6a" stroke="#d46a6a" stroke-width="1.5" points="283.37,-186.75 289.78,-192.29 288.23,-183.96 283.37,-186.75"/>
</g>
</g>
</svg>
