<?xml version="1.0" encoding="UTF-8" standalone="no"?>
<!DOCTYPE svg PUBLIC "-//W3C//DTD SVG 1.1//EN"
 "http://www.w3.org/Graphics/SVG/1.1/DTD/svg11.dtd">
<!-- Generated by graphviz version 14.1.5 (20260411.2331)
 -->
<!-- Title: InfoVisJ.935.9.png Pages: 1 -->
<svg width="750pt" height="310pt"
 viewBox="0.00 0.00 750.00 310.00" xmlns="http://www.w3.org/2000/svg" xmlns:xlink="http://www.w3.org/1999/xlink">
<g id="graph0" class="graph" transform="scale(1 1) rotate(0) translate(4 306.25)">
<title>InfoVisJ.935.9.png</title>
<polygon fill="white" stroke="none" points="-4,4 -4,-306.25 745.75,-306.25 745.75,4 -4,4"/>
<text xml:space="preserve" text-anchor="start" x="311.62" y="-281.95" font-family="Arial" font-weight="bold" font-size="14.00">InfoVisJ.935.9.png</text>
<text xml:space="preserve" text-anchor="start" x="328.5" y="-262" font-family="Arial" font-size="11.00">Grid &#160;| &#160;VC = 0.46</text>
<path fill="#b8e6b8" stroke="none" d="M161.5,-237C161.5,-237 169.5,-237 169.5,-237 172.5,-237 175.5,-240 175.5,-243 175.5,-243 175.5,-249 175.5,-249 175.5,-252 172.5,-255 169.5,-255 169.5,-255 161.5,-255 161.5,-255 158.5,-255 155.5,-252 155.5,-249 155.5,-249 155.5,-243 155.5,-243 155.5,-240 158.5,-237 161.5,-237"/>
<path fill="none" stroke="black" d="M161.5,-237C161.5,-237 169.5,-237 169.5,-237 172.5,-237 175.5,-240 175.5,-243 175.5,-243 175.5,-249 175.5,-249 175.5,-252 172.5,-255 169.5,-255 169.5,-255 161.5,-255 161.5,-255 158.5,-255 155.5,-252 155.5,-249 155.5,-249 155.5,-243 155.5,-243 155.5,-240 158.5,-237 161.5,-237"/>
<text xml:space="preserve" text-anchor="start" x="164" y="-242.25" font-family="Arial" font-size="10.00"> </text>
<text xml:space="preserve" text-anchor="start" x="179.5" y="-242.25" font-family="Arial" font-size="10.00">Object</text>
<path fill="#c7b8e6" stroke="none" d="M218,-237C218,-237 226,-237 226,-237 229,-237 232,-240 232,-243 232,-243 232,-249 232,-249 232,-252 229,-255 226,-255 226,-255 218,-255 218,-255 215,-255 212,-252 212,-249 212,-249 212,-243 212,-243 212,-240 215,-237 218,-237"/>
<path fill="none" stroke="black" d="M218,-237C218,-237 226,-237 226,-237 229,-237 232,-240 232,-243 232,-243 232,-249 232,-249 232,-252 229,-255 226,-255 226,-255 218,-255 218,-255 215,-255 212,-252 212,-249 212,-249 212,-243 212,-243 212,-240 215,-237 218,-237"/>
<text xml:space="preserve" text-anchor="start" x="220.5" y="-242.25" font-family="Arial" font-size="10.00"> </text>
<text xml:space="preserve" text-anchor="start" x="236" y="-242.25" font-family="Arial" font-size="10.00">Attribute</text>
<path fill="#f5b8b8" stroke="none" d="M282.75,-237C282.75,-237 290.75,-237 290.75,-237 293.75,-237 296.75,-240 296.75,-243 296.75,-243 296.75,-249 296.75,-249 296.75,-252 293.75,-255 290.75,-255 290.75,-255 282.75,-255 282.75,-255 279.75,-255 276.75,-252 276.75,-249 276.75,-249 276.75,-243 276.75,-243 276.75,-240 279.75,-237 282.75,-237"/>
<path fill="none" stroke="black" d="M282.75,-237C282.75,-237 290.75,-237 290.75,-237 293.75,-237 296.75,-240 296.75,-243 296.75,-243 296.75,-249 296.75,-249 296.75,-252 293.75,-255 290.75,-255 290.75,-255 282.75,-255 282.75,-255 279.75,-255 276.75,-252 276.75,-249 276.75,-249 276.75,-243 276.75,-243 276.75,-240 279.75,-237 282.75,-237"/>
<text xml:space="preserve" text-anchor="start" x="285.25" y="-242.25" font-family="Arial" font-size="10.00"> </text>
<text xml:space="preserve" text-anchor="start" x="300.75" y="-242.25" font-family="Arial" font-size="10.00">Relationship</text>
<text xml:space="preserve" text-anchor="start" x="360.75" y="-243.5" font-family="Arial" font-weight="bold" font-size="10.00">(+)</text>
<text xml:space="preserve" text-anchor="start" x="372.75" y="-243.5" font-family="Arial" font-size="10.00"> increases complexity</text>
<text xml:space="preserve" text-anchor="start" x="474" y="-243.5" font-family="Arial" font-weight="bold" font-size="10.00">(−)</text>
<text xml:space="preserve" text-anchor="start" x="486" y="-243.5" font-family="Arial" font-size="10.00"> decreases complexity</text>
<!-- structure.grid -->
<g id="node1" class="node">
<title>structure.grid</title>
<path fill="#b8e6b8" stroke="#2c3e50" stroke-width="1.8" d="M307.75,-166C307.75,-166 277.75,-166 277.75,-166 271.75,-166 265.75,-160 265.75,-154 265.75,-154 265.75,-142 265.75,-142 265.75,-136 271.75,-130 277.75,-130 277.75,-130 307.75,-130 307.75,-130 313.75,-130 319.75,-136 319.75,-142 319.75,-142 319.75,-154 319.75,-154 319.75,-160 313.75,-166 307.75,-166"/>
<text xml:space="preserve" text-anchor="middle" x="292.75" y="-144.5" font-family="Arial" font-size="10.00" fill="#1a1a1a">grid</text>
</g>
<!-- attr_2 -->
<g id="node5" class="node">
<title>attr_2</title>
<path fill="#c7b8e6" stroke="#7f8c8d" stroke-width="1.2" d="M461.25,-231C461.25,-231 374.75,-231 374.75,-231 368.75,-231 362.75,-225 362.75,-219 362.75,-219 362.75,-207 362.75,-207 362.75,-201 368.75,-195 374.75,-195 374.75,-195 461.25,-195 461.25,-195 467.25,-195 473.25,-201 473.25,-207 473.25,-207 473.25,-219 473.25,-219 473.25,-225 467.25,-231 461.25,-231"/>
<text xml:space="preserve" text-anchor="middle" x="418" y="-209.5" font-family="Arial" font-size="10.00" fill="#1a1a1a">(−) low element count</text>
</g>
<!-- structure.grid&#45;&gt;attr_2 -->
<g id="edge1" class="edge">
<title>structure.grid&#45;&gt;attr_2</title>
<path fill="none" stroke="#aaaaaa" d="M320.49,-162.1C336.23,-170.4 356.49,-181.09 374.38,-190.52"/>
<polygon fill="#aaaaaa" stroke="#aaaaaa" points="373.21,-192.67 380.54,-193.77 375.49,-188.34 373.21,-192.67"/>
</g>
<!-- attr_4 -->
<g id="node6" class="node">
<title>attr_4</title>
<path fill="#c7b8e6" stroke="#7f8c8d" stroke-width="1.2" d="M456.38,-166C456.38,-166 379.62,-166 379.62,-166 373.62,-166 367.62,-160 367.62,-154 367.62,-154 367.62,-142 367.62,-142 367.62,-136 373.62,-130 379.62,-130 379.62,-130 456.38,-130 456.38,-130 462.38,-130 468.38,-136 468.38,-142 468.38,-142 468.38,-154 468.38,-154 468.38,-160 462.38,-166 456.38,-166"/>
<text xml:space="preserve" text-anchor="middle" x="418" y="-144.5" font-family="Arial" font-size="10.00" fill="#1a1a1a">(−) simple structure</text>
</g>
<!-- structure.grid&#45;&gt;attr_4 -->
<g id="edge2" class="edge">
<title>structure.grid&#45;&gt;attr_4</title>
<path fill="none" stroke="#aaaaaa" d="M320.49,-148C331.87,-148 345.61,-148 359.1,-148"/>
<polygon fill="#aaaaaa" stroke="#aaaaaa" points="358.94,-150.45 365.94,-148 358.94,-145.55 358.94,-150.45"/>
</g>
<!-- content.data -->
<g id="node2" class="node">
<title>content.data</title>
<path fill="#b8e6b8" stroke="#2c3e50" stroke-width="1.8" d="M307.75,-101C307.75,-101 277.75,-101 277.75,-101 271.75,-101 265.75,-95 265.75,-89 265.75,-89 265.75,-77 265.75,-77 265.75,-71 271.75,-65 277.75,-65 277.75,-65 307.75,-65 307.75,-65 313.75,-65 319.75,-71 319.75,-77 319.75,-77 319.75,-89 319.75,-89 319.75,-95 313.75,-101 307.75,-101"/>
<text xml:space="preserve" text-anchor="middle" x="292.75" y="-79.5" font-family="Arial" font-size="10.00" fill="#1a1a1a">data</text>
</g>
<!-- attr_0 -->
<g id="node7" class="node">
<title>attr_0</title>
<path fill="#c7b8e6" stroke="#7f8c8d" stroke-width="1.2" d="M459,-101C459,-101 377,-101 377,-101 371,-101 365,-95 365,-89 365,-89 365,-77 365,-77 365,-71 371,-65 377,-65 377,-65 459,-65 459,-65 465,-65 471,-71 471,-77 471,-77 471,-89 471,-89 471,-95 465,-101 459,-101"/>
<text xml:space="preserve" text-anchor="middle" x="418" y="-79.5" font-family="Arial" font-size="10.00" fill="#1a1a1a">(−) little data present</text>
</g>
<!-- content.data&#45;&gt;attr_0 -->
<g id="edge3" class="edge">
<title>content.data&#45;&gt;attr_0</title>
<path fill="none" stroke="#aaaaaa" d="M320.49,-83C331.06,-83 343.67,-83 356.24,-83"/>
<polygon fill="#aaaaaa" stroke="#aaaaaa" points="355.95,-85.45 362.95,-83 355.95,-80.55 355.95,-85.45"/>
</g>
<!-- rel_1 -->
<g id="node11" class="node">
<title>rel_1</title>
<path fill="#f5b8b8" stroke="#d46a6a" stroke-width="1.2" d="M450.75,-36C450.75,-36 385.25,-36 385.25,-36 379.25,-36 373.25,-30 373.25,-24 373.25,-24 373.25,-12 373.25,-12 373.25,-6 379.25,0 385.25,0 385.25,0 450.75,0 450.75,0 456.75,0 462.75,-6 462.75,-12 462.75,-12 462.75,-24 462.75,-24 462.75,-30 456.75,-36 450.75,-36"/>
<text xml:space="preserve" text-anchor="middle" x="418" y="-14.5" font-family="Arial" font-size="10.00" fill="#8b0000">lacks richness in</text>
</g>
<!-- content.data&#45;&gt;rel_1 -->
<g id="edge8" class="edge">
<title>content.data&#45;&gt;rel_1</title>
<path fill="none" stroke="#d46a6a" stroke-width="1.5" d="M320.49,-68.9C335.81,-60.82 355.41,-50.48 372.94,-41.24"/>
<polygon fill="#d46a6a" stroke="#d46a6a" stroke-width="1.5" points="374.1,-43.79 379.87,-37.58 371.49,-38.84 374.1,-43.79"/>
</g>
<!-- unknown.blank_area -->
<g id="node3" class="node">
<title>unknown.blank_area</title>
<path fill="#b8e6b8" stroke="#2c3e50" stroke-width="1.8" d="M49,-166C49,-166 12,-166 12,-166 6,-166 0,-160 0,-154 0,-154 0,-142 0,-142 0,-136 6,-130 12,-130 12,-130 49,-130 49,-130 55,-130 61,-136 61,-142 61,-142 61,-154 61,-154 61,-160 55,-166 49,-166"/>
<text xml:space="preserve" text-anchor="middle" x="30.5" y="-144.5" font-family="Arial" font-size="10.00" fill="#1a1a1a">blank area</text>
</g>
<!-- attr_1 -->
<g id="node8" class="node">
<title>attr_1</title>
<path fill="#c7b8e6" stroke="#7f8c8d" stroke-width="1.2" d="M210.75,-231C210.75,-231 116,-231 116,-231 110,-231 104,-225 104,-219 104,-219 104,-207 104,-207 104,-201 110,-195 116,-195 116,-195 210.75,-195 210.75,-195 216.75,-195 222.75,-201 222.75,-207 222.75,-207 222.75,-219 222.75,-219 222.75,-225 216.75,-231 210.75,-231"/>
<text xml:space="preserve" text-anchor="middle" x="163.38" y="-209.5" font-family="Arial" font-size="10.00" fill="#1a1a1a">(−) largely empty space</text>
</g>
<!-- unknown.blank_area&#45;&gt;attr_1 -->
<g id="edge4" class="edge">
<title>unknown.blank_area&#45;&gt;attr_1</title>
<path fill="none" stroke="#aaaaaa" d="M61.85,-163.08C78.52,-171.35 99.5,-181.77 117.97,-190.95"/>
<polygon fill="#aaaaaa" stroke="#aaaaaa" points="116.46,-192.93 123.82,-193.85 118.64,-188.54 116.46,-192.93"/>
</g>
<!-- rel_0 -->
<g id="node10" class="node">
<title>rel_0</title>
<path fill="#f5b8b8" stroke="#d46a6a" stroke-width="1.2" d="M207.38,-166C207.38,-166 119.38,-166 119.38,-166 113.38,-166 107.38,-160 107.38,-154 107.38,-154 107.38,-142 107.38,-142 107.38,-136 113.38,-130 119.38,-130 119.38,-130 207.38,-130 207.38,-130 213.38,-130 219.38,-136 219.38,-142 219.38,-142 219.38,-154 219.38,-154 219.38,-160 213.38,-166 207.38,-166"/>
<text xml:space="preserve" text-anchor="middle" x="163.38" y="-144.5" font-family="Arial" font-size="10.00" fill="#8b0000">reduces complexity of</text>
</g>
<!-- unknown.blank_area&#45;&gt;rel_0 -->
<g id="edge6" class="edge">
<title>unknown.blank_area&#45;&gt;rel_0</title>
<path fill="none" stroke="#d46a6a" stroke-width="1.5" d="M61.85,-148C72.36,-148 84.57,-148 96.79,-148"/>
<polygon fill="#d46a6a" stroke="#d46a6a" stroke-width="1.5" points="96.74,-150.8 104.74,-148 96.74,-145.2 96.74,-150.8"/>
</g>
<!-- rel_2 -->
<g id="node12" class="node">
<title>rel_2</title>
<path fill="#f5b8b8" stroke="#d46a6a" stroke-width="1.2" d="M181.88,-101C181.88,-101 144.88,-101 144.88,-101 138.88,-101 132.88,-95 132.88,-89 132.88,-89 132.88,-77 132.88,-77 132.88,-71 138.88,-65 144.88,-65 144.88,-65 181.88,-65 181.88,-65 187.88,-65 193.88,-71 193.88,-77 193.88,-77 193.88,-89 193.88,-89 193.88,-95 187.88,-101 181.88,-101"/>
<text xml:space="preserve" text-anchor="middle" x="163.38" y="-79.5" font-family="Arial" font-size="10.00" fill="#8b0000">dominates</text>
</g>
<!-- unknown.blank_area&#45;&gt;rel_2 -->
<g id="edge10" class="edge">
<title>unknown.blank_area&#45;&gt;rel_2</title>
<path fill="none" stroke="#d46a6a" stroke-width="1.5" d="M61.85,-132.92C80.24,-123.79 103.86,-112.06 123.59,-102.26"/>
<polygon fill="#d46a6a" stroke="#d46a6a" stroke-width="1.5" points="124.68,-104.85 130.6,-98.78 122.19,-99.83 124.68,-104.85"/>
</g>
<!-- unknown.content -->
<g id="node4" class="node">
<title>unknown.content</title>
<path fill="#b8e6b8" stroke="#2c3e50" stroke-width="1.8" d="M558.25,-36C558.25,-36 528.25,-36 528.25,-36 522.25,-36 516.25,-30 516.25,-24 516.25,-24 516.25,-12 516.25,-12 516.25,-6 522.25,0 528.25,0 528.25,0 558.25,0 558.25,0 564.25,0 570.25,-6 570.25,-12 570.25,-12 570.25,-24 570.25,-24 570.25,-30 564.25,-36 558.25,-36"/>
<text xml:space="preserve" text-anchor="middle" x="543.25" y="-14.5" font-family="Arial" font-size="10.00" fill="#1a1a1a">content</text>
</g>
<!-- attr_3 -->
<g id="node9" class="node">
<title>attr_3</title>
<path fill="#c7b8e6" stroke="#7f8c8d" stroke-width="1.2" d="M729.75,-36C729.75,-36 625.25,-36 625.25,-36 619.25,-36 613.25,-30 613.25,-24 613.25,-24 613.25,-12 613.25,-12 613.25,-6 619.25,0 625.25,0 625.25,0 729.75,0 729.75,0 735.75,0 741.75,-6 741.75,-12 741.75,-12 741.75,-24 741.75,-24 741.75,-30 735.75,-36 729.75,-36"/>
<text xml:space="preserve" text-anchor="middle" x="677.5" y="-14.5" font-family="Arial" font-size="10.00" fill="#1a1a1a">(−) minimal visual content</text>
</g>
<!-- unknown.content&#45;&gt;attr_3 -->
<g id="edge5" class="edge">
<title>unknown.content&#45;&gt;attr_3</title>
<path fill="none" stroke="#aaaaaa" d="M571.01,-18C580.89,-18 592.6,-18 604.57,-18"/>
<polygon fill="#aaaaaa" stroke="#aaaaaa" points="604.36,-20.45 611.36,-18 604.36,-15.55 604.36,-20.45"/>
</g>
<!-- rel_0&#45;&gt;structure.grid -->
<g id="edge7" class="edge">
<title>rel_0&#45;&gt;structure.grid</title>
<path fill="none" stroke="#d46a6a" stroke-width="1.5" d="M219.87,-148C231.76,-148 244.04,-148 255,-148"/>
<polygon fill="#d46a6a" stroke="#d46a6a" stroke-width="1.5" points="254.79,-150.8 262.79,-148 254.79,-145.2 254.79,-150.8"/>
</g>
<!-- rel_1&#45;&gt;unknown.content -->
<g id="edge9" class="edge">
<title>rel_1&#45;&gt;unknown.content</title>
<path fill="none" stroke="#d46a6a" stroke-width="1.5" d="M463.15,-18C476.99,-18 492.12,-18 505.4,-18"/>
<polygon fill="#d46a6a" stroke="#d46a6a" stroke-width="1.5" points="505.33,-20.8 513.33,-18 505.33,-15.2 505.33,-20.8"/>
</g>
<!-- rel_2&#45;&gt;content.data -->
<g id="edge11" class="edge">
<title>rel_2&#45;&gt;content.data</title>
<path fill="none" stroke="#d46a6a" stroke-width="1.5" d="M194.24,-83C212.36,-83 235.62,-83 254.87,-83"/>
<polygon fill="#d46a6a" stroke="#d46a6a" stroke-width="1.5" points="254.83,-85.8 262.83,-83 254.83,-80.2 254.83,-85.8"/>
</g>
</g>
</svg>
