<?xml version="1.0" encoding="UTF-8" standalone="no"?>
<!DOCTYPE svg PUBLIC "-//W3C//DTD SVG 1.1//EN"
 "http://www.w3.org/Graphics/SVG/1.1/DTD/svg11.dtd">
<!-- Generated by graphviz version 14.1.5 (20260411.2331)
 -->
<!-- Title: InfoVisJ.1247.14.png Pages: 1 -->
<svg width="1031pt" height="310pt"
 viewBox="0.00 0.00 1031.00 310.00" xmlns="http://www.w3.org/2000/svg" xmlns:xlink="http://www.w3.org/1999/xlink">
<g id="graph0" class="graph" transform="scale(1 1) rotate(0) translate(4 306.25)">
<title>InfoVisJ.1247.14.png</title>
<polygon fill="white" stroke="none" points="-4,4 -4,-306.25 1026.5,-306.25 1026.5,4 -4,4"/>
<text xml:space="preserve" text-anchor="start" x="444.5" y="-281.95" font-family="Arial" font-weight="bold" font-size="14.00">InfoVisJ.1247.14.png</text>
<text xml:space="preserve" text-anchor="start" x="468.88" y="-262" font-family="Arial" font-size="11.00">Line &#160;| &#160;VC = 0.40</text>
<path fill="#b8e6b8" stroke="none" d="M301.88,-237C301.88,-237 309.88,-237 309.88,-237 312.88,-237 315.88,-240 315.88,-243 315.88,-243 315.88,-249 315.88,-249 315.88,-252 312.88,-255 309.88,-255 309.88,-255 301.88,-255 301.88,-255 298.88,-255 295.88,-252 295.88,-249 295.88,-249 295.88,-243 295.88,-243 295.88,-240 298.88,-237 301.88,-237"/>
<path fill="none" stroke="black" d="M301.88,-237C301.88,-237 309.88,-237 309.88,-237 312.88,-237 315.88,-240 315.88,-243 315.88,-243 315.88,-249 315.88,-249 315.88,-252 312.88,-255 309.88,-255 309.88,-255 301.88,-255 301.88,-255 298.88,-255 295.88,-252 295.88,-249 295.88,-249 295.88,-243 295.88,-243 295.88,-240 298.88,-237 301.88,-237"/>
<text xml:space="preserve" text-anchor="start" x="304.38" y="-242.25" font-family="Arial" font-size="10.00"> </text>
<text xml:space="preserve" text-anchor="start" x="319.88" y="-242.25" font-family="Arial" font-size="10.00">Object</text>
<path fill="#c7b8e6" stroke="none" d="M358.38,-237C358.38,-237 366.38,-237 366.38,-237 369.38,-237 372.38,-240 372.38,-243 372.38,-243 372.38,-249 372.38,-249 372.38,-252 369.38,-255 366.38,-255 366.38,-255 358.38,-255 358.38,-255 355.38,-255 352.38,-252 352.38,-249 352.38,-249 352.38,-243 352.38,-243 352.38,-240 355.38,-237 358.38,-237"/>
<path fill="none" stroke="black" d="M358.38,-237C358.38,-237 366.38,-237 366.38,-237 369.38,-237 372.38,-240 372.38,-243 372.38,-243 372.38,-249 372.38,-249 372.38,-252 369.38,-255 366.38,-255 366.38,-255 358.38,-255 358.38,-255 355.38,-255 352.38,-252 352.38,-249 352.38,-249 352.38,-243 352.38,-243 352.38,-240 355.38,-237 358.38,-237"/>
<text xml:space="preserve" text-anchor="start" x="360.88" y="-242.25" font-family="Arial" font-size="10.00"> </text>
<text xml:space="preserve" text-anchor="start" x="376.38" y="-242.25" font-family="Arial" font-size="10.00">Attribute</text>
<path fill="#f5b8b8" stroke="none" d="M423.12,-237C423.12,-237 431.12,-237 431.12,-237 434.12,-237 437.12,-240 437.12,-243 437.12,-243 437.12,-249 437.12,-249 437.12,-252 434.12,-255 431.12,-255 431.12,-255 423.12,-255 423.12,-255 420.12,-255 417.12,-252 417.12,-249 417.12,-249 417.12,-243 417.12,-243 417.12,-240 420.12,-237 423.12,-237"/>
<path fill="none" stroke="black" d="M423.12,-237C423.12,-237 431.12,-237 431.12,-237 434.12,-237 437.12,-240 437.12,-243 437.12,-243 437.12,-249 437.12,-249 437.12,-252 434.12,-255 431.12,-255 431.12,-255 423.12,-255 423.12,-255 420.12,-255 417.12,-252 417.12,-249 417.12,-249 417.12,-243 417.12,-243 417.12,-240 420.12,-237 423.12,-237"/>
<text xml:space="preserve" text-anchor="start" x="425.62" y="-242.25" font-family="Arial" font-size="10.00"> </text>
<text xml:space="preserve" text-anchor="start" x="441.12" y="-242.25" font-family="Arial" font-size="10.00">Relationship</text>
<text xml:space="preserve" text-anchor="start" x="501.12" y="-243.5" font-family="Arial" font-weight="bold" font-size="10.00">(+)</text>
<text xml:space="preserve" text-anchor="start" x="513.12" y="-243.5" font-family="Arial" font-size="10.00"> increases complexity</text>
<text xml:space="preserve" text-anchor="start" x="614.38" y="-243.5" font-family="Arial" font-weight="bold" font-size="10.00">(−)</text>
<text xml:space="preserve" text-anchor="start" x="626.38" y="-243.5" font-family="Arial" font-size="10.00"> decreases complexity</text>
<!-- unknown.left_axis -->
<g id="node1" class="node">
<title>unknown.left_axis</title>
<path fill="#b8e6b8" stroke="#2c3e50" stroke-width="1.8" d="M299.5,-101C299.5,-101 269.5,-101 269.5,-101 263.5,-101 257.5,-95 257.5,-89 257.5,-89 257.5,-77 257.5,-77 257.5,-71 263.5,-65 269.5,-65 269.5,-65 299.5,-65 299.5,-65 305.5,-65 311.5,-71 311.5,-77 311.5,-77 311.5,-89 311.5,-89 311.5,-95 305.5,-101 299.5,-101"/>
<text xml:space="preserve" text-anchor="middle" x="284.5" y="-79.5" font-family="Arial" font-size="10.00" fill="#1a1a1a">left axis</text>
</g>
<!-- attr_0 -->
<g id="node6" class="node">
<title>attr_0</title>
<path fill="#c7b8e6" stroke="#7f8c8d" stroke-width="1.2" d="M447.75,-134C447.75,-134 366.5,-134 366.5,-134 360.5,-134 354.5,-128 354.5,-122 354.5,-122 354.5,-110 354.5,-110 354.5,-104 360.5,-98 366.5,-98 366.5,-98 447.75,-98 447.75,-98 453.75,-98 459.75,-104 459.75,-110 459.75,-110 459.75,-122 459.75,-122 459.75,-128 453.75,-134 447.75,-134"/>
<text xml:space="preserve" text-anchor="middle" x="407.12" y="-112.5" font-family="Arial" font-size="10.00" fill="#1a1a1a">(+) dual axis present</text>
</g>
<!-- unknown.left_axis&#45;&gt;attr_0 -->
<g id="edge1" class="edge">
<title>unknown.left_axis&#45;&gt;attr_0</title>
<path fill="none" stroke="#aaaaaa" d="M312.27,-90.32C322.31,-93.07 334.16,-96.31 346.01,-99.55"/>
<polygon fill="#aaaaaa" stroke="#aaaaaa" points="345.33,-101.91 352.73,-101.39 346.62,-97.18 345.33,-101.91"/>
</g>
<!-- rel_0 -->
<g id="node11" class="node">
<title>rel_0</title>
<path fill="#f5b8b8" stroke="#d46a6a" stroke-width="1.2" d="M432,-69C432,-69 382.25,-69 382.25,-69 376.25,-69 370.25,-63 370.25,-57 370.25,-57 370.25,-45 370.25,-45 370.25,-39 376.25,-33 382.25,-33 382.25,-33 432,-33 432,-33 438,-33 444,-39 444,-45 444,-45 444,-57 444,-57 444,-63 438,-69 432,-69"/>
<text xml:space="preserve" text-anchor="middle" x="407.12" y="-47.5" font-family="Arial" font-size="10.00" fill="#8b0000">conflicts with</text>
</g>
<!-- unknown.left_axis&#45;&gt;rel_0 -->
<g id="edge6" class="edge">
<title>unknown.left_axis&#45;&gt;rel_0</title>
<path fill="none" stroke="#d46a6a" stroke-width="1.5" d="M312.27,-75.9C326.3,-72.18 343.87,-67.52 360,-63.24"/>
<polygon fill="#d46a6a" stroke="#d46a6a" stroke-width="1.5" points="360.61,-65.97 367.63,-61.21 359.18,-60.56 360.61,-65.97"/>
</g>
<!-- unknown.right_axis -->
<g id="node2" class="node">
<title>unknown.right_axis</title>
<path fill="#b8e6b8" stroke="#2c3e50" stroke-width="1.8" d="M546.5,-69C546.5,-69 514.75,-69 514.75,-69 508.75,-69 502.75,-63 502.75,-57 502.75,-57 502.75,-45 502.75,-45 502.75,-39 508.75,-33 514.75,-33 514.75,-33 546.5,-33 546.5,-33 552.5,-33 558.5,-39 558.5,-45 558.5,-45 558.5,-57 558.5,-57 558.5,-63 552.5,-69 546.5,-69"/>
<text xml:space="preserve" text-anchor="middle" x="530.62" y="-47.5" font-family="Arial" font-size="10.00" fill="#1a1a1a">right axis</text>
</g>
<!-- attr_1 -->
<g id="node7" class="node">
<title>attr_1</title>
<path fill="#c7b8e6" stroke="#7f8c8d" stroke-width="1.2" d="M722.88,-101C722.88,-101 619.12,-101 619.12,-101 613.12,-101 607.12,-95 607.12,-89 607.12,-89 607.12,-77 607.12,-77 607.12,-71 613.12,-65 619.12,-65 619.12,-65 722.88,-65 722.88,-65 728.88,-65 734.88,-71 734.88,-77 734.88,-77 734.88,-89 734.88,-89 734.88,-95 728.88,-101 722.88,-101"/>
<text xml:space="preserve" text-anchor="middle" x="671" y="-79.5" font-family="Arial" font-size="10.00" fill="#1a1a1a">(+) additional scale added</text>
</g>
<!-- unknown.right_axis&#45;&gt;attr_1 -->
<g id="edge2" class="edge">
<title>unknown.right_axis&#45;&gt;attr_1</title>
<path fill="none" stroke="#aaaaaa" d="M559.29,-57.4C570.7,-60.04 584.5,-63.23 598.42,-66.45"/>
<polygon fill="#aaaaaa" stroke="#aaaaaa" points="597.77,-68.81 605.14,-68 598.87,-64.04 597.77,-68.81"/>
</g>
<!-- rel_2 -->
<g id="node13" class="node">
<title>rel_2</title>
<path fill="#f5b8b8" stroke="#d46a6a" stroke-width="1.2" d="M728.5,-36C728.5,-36 613.5,-36 613.5,-36 607.5,-36 601.5,-30 601.5,-24 601.5,-24 601.5,-12 601.5,-12 601.5,-6 607.5,0 613.5,0 613.5,0 728.5,0 728.5,0 734.5,0 740.5,-6 740.5,-12 740.5,-12 740.5,-24 740.5,-24 740.5,-30 734.5,-36 728.5,-36"/>
<text xml:space="preserve" text-anchor="middle" x="671" y="-14.5" font-family="Arial" font-size="10.00" fill="#8b0000">complicates interpretation of</text>
</g>
<!-- unknown.right_axis&#45;&gt;rel_2 -->
<g id="edge10" class="edge">
<title>unknown.right_axis&#45;&gt;rel_2</title>
<path fill="none" stroke="#d46a6a" stroke-width="1.5" d="M559.29,-44.4C568.78,-42.14 579.93,-39.48 591.42,-36.74"/>
<polygon fill="#d46a6a" stroke="#d46a6a" stroke-width="1.5" points="591.79,-39.53 598.92,-34.95 590.49,-34.08 591.79,-39.53"/>
</g>
<!-- furniture.legend -->
<g id="node3" class="node">
<title>furniture.legend</title>
<path fill="#b8e6b8" stroke="#2c3e50" stroke-width="1.8" d="M545.62,-198C545.62,-198 515.62,-198 515.62,-198 509.62,-198 503.62,-192 503.62,-186 503.62,-186 503.62,-174 503.62,-174 503.62,-168 509.62,-162 515.62,-162 515.62,-162 545.62,-162 545.62,-162 551.62,-162 557.62,-168 557.62,-174 557.62,-174 557.62,-186 557.62,-186 557.62,-192 551.62,-198 545.62,-198"/>
<text xml:space="preserve" text-anchor="middle" x="530.62" y="-176.5" font-family="Arial" font-size="10.00" fill="#1a1a1a">legend</text>
</g>
<!-- attr_2 -->
<g id="node8" class="node">
<title>attr_2</title>
<path fill="#c7b8e6" stroke="#7f8c8d" stroke-width="1.2" d="M714.25,-231C714.25,-231 627.75,-231 627.75,-231 621.75,-231 615.75,-225 615.75,-219 615.75,-219 615.75,-207 615.75,-207 615.75,-201 621.75,-195 627.75,-195 627.75,-195 714.25,-195 714.25,-195 720.25,-195 726.25,-201 726.25,-207 726.25,-207 726.25,-219 726.25,-219 726.25,-225 720.25,-231 714.25,-231"/>
<text xml:space="preserve" text-anchor="middle" x="671" y="-209.5" font-family="Arial" font-size="10.00" fill="#1a1a1a">(+) adds visual clutter</text>
</g>
<!-- furniture.legend&#45;&gt;attr_2 -->
<g id="edge3" class="edge">
<title>furniture.legend&#45;&gt;attr_2</title>
<path fill="none" stroke="#aaaaaa" d="M558.31,-186.36C572.33,-189.71 590.17,-193.96 607.45,-198.08"/>
<polygon fill="#aaaaaa" stroke="#aaaaaa" points="606.49,-200.37 613.86,-199.61 607.62,-195.61 606.49,-200.37"/>
</g>
<!-- rel_1 -->
<g id="node12" class="node">
<title>rel_1</title>
<path fill="#f5b8b8" stroke="#d46a6a" stroke-width="1.2" d="M708.25,-166C708.25,-166 633.75,-166 633.75,-166 627.75,-166 621.75,-160 621.75,-154 621.75,-154 621.75,-142 621.75,-142 621.75,-136 627.75,-130 633.75,-130 633.75,-130 708.25,-130 708.25,-130 714.25,-130 720.25,-136 720.25,-142 720.25,-142 720.25,-154 720.25,-154 720.25,-160 714.25,-166 708.25,-166"/>
<text xml:space="preserve" text-anchor="middle" x="671" y="-144.5" font-family="Arial" font-size="10.00" fill="#8b0000">increases clutter in</text>
</g>
<!-- furniture.legend&#45;&gt;rel_1 -->
<g id="edge8" class="edge">
<title>furniture.legend&#45;&gt;rel_1</title>
<path fill="none" stroke="#d46a6a" stroke-width="1.5" d="M558.31,-173.83C573.42,-170.34 592.95,-165.82 611.44,-161.54"/>
<polygon fill="#d46a6a" stroke="#d46a6a" stroke-width="1.5" points="611.9,-164.31 619.06,-159.78 610.64,-158.85 611.9,-164.31"/>
</g>
<!-- mark.line -->
<g id="node4" class="node">
<title>mark.line</title>
<path fill="#b8e6b8" stroke="#2c3e50" stroke-width="1.8" d="M825.5,-101C825.5,-101 795.5,-101 795.5,-101 789.5,-101 783.5,-95 783.5,-89 783.5,-89 783.5,-77 783.5,-77 783.5,-71 789.5,-65 795.5,-65 795.5,-65 825.5,-65 825.5,-65 831.5,-65 837.5,-71 837.5,-77 837.5,-77 837.5,-89 837.5,-89 837.5,-95 831.5,-101 825.5,-101"/>
<text xml:space="preserve" text-anchor="middle" x="810.5" y="-79.5" font-family="Arial" font-size="10.00" fill="#1a1a1a">line</text>
</g>
<!-- attr_4 -->
<g id="node9" class="node">
<title>attr_4</title>
<path fill="#c7b8e6" stroke="#7f8c8d" stroke-width="1.2" d="M1010.5,-101C1010.5,-101 892.5,-101 892.5,-101 886.5,-101 880.5,-95 880.5,-89 880.5,-89 880.5,-77 880.5,-77 880.5,-71 886.5,-65 892.5,-65 892.5,-65 1010.5,-65 1010.5,-65 1016.5,-65 1022.5,-71 1022.5,-77 1022.5,-77 1022.5,-89 1022.5,-89 1022.5,-95 1016.5,-101 1010.5,-101"/>
<text xml:space="preserve" text-anchor="middle" x="951.5" y="-79.5" font-family="Arial" font-size="10.00" fill="#1a1a1a">(+) requires dual axis reading</text>
</g>
<!-- mark.line&#45;&gt;attr_4 -->
<g id="edge4" class="edge">
<title>mark.line&#45;&gt;attr_4</title>
<path fill="none" stroke="#aaaaaa" d="M838.3,-83C848.11,-83 859.77,-83 871.8,-83"/>
<polygon fill="#aaaaaa" stroke="#aaaaaa" points="871.66,-85.45 878.66,-83 871.66,-80.55 871.66,-85.45"/>
</g>
<!-- text.axis_label -->
<g id="node5" class="node">
<title>text.axis_label</title>
<path fill="#b8e6b8" stroke="#2c3e50" stroke-width="1.8" d="M45.25,-133C45.25,-133 12,-133 12,-133 6,-133 0,-127 0,-121 0,-121 0,-109 0,-109 0,-103 6,-97 12,-97 12,-97 45.25,-97 45.25,-97 51.25,-97 57.25,-103 57.25,-109 57.25,-109 57.25,-121 57.25,-121 57.25,-127 51.25,-133 45.25,-133"/>
<text xml:space="preserve" text-anchor="middle" x="28.62" y="-111.5" font-family="Arial" font-size="10.00" fill="#1a1a1a">axis label</text>
</g>
<!-- attr_3 -->
<g id="node10" class="node">
<title>attr_3</title>
<path fill="#c7b8e6" stroke="#7f8c8d" stroke-width="1.2" d="M202.5,-166C202.5,-166 112.25,-166 112.25,-166 106.25,-166 100.25,-160 100.25,-154 100.25,-154 100.25,-142 100.25,-142 100.25,-136 106.25,-130 112.25,-130 112.25,-130 202.5,-130 202.5,-130 208.5,-130 214.5,-136 214.5,-142 214.5,-142 214.5,-154 214.5,-154 214.5,-160 208.5,-166 202.5,-166"/>
<text xml:space="preserve" text-anchor="middle" x="157.38" y="-144.5" font-family="Arial" font-size="10.00" fill="#1a1a1a">(+) multiple axis labels</text>
</g>
<!-- text.axis_label&#45;&gt;attr_3 -->
<g id="edge5" class="edge">
<title>text.axis_label&#45;&gt;attr_3</title>
<path fill="none" stroke="#aaaaaa" d="M58.07,-122.41C68.09,-125.02 79.81,-128.07 91.59,-131.13"/>
<polygon fill="#aaaaaa" stroke="#aaaaaa" points="90.88,-133.48 98.27,-132.87 92.12,-128.74 90.88,-133.48"/>
</g>
<!-- rel_3 -->
<g id="node14" class="node">
<title>rel_3</title>
<path fill="#f5b8b8" stroke="#d46a6a" stroke-width="1.2" d="M199.12,-101C199.12,-101 115.62,-101 115.62,-101 109.62,-101 103.62,-95 103.62,-89 103.62,-89 103.62,-77 103.62,-77 103.62,-71 109.62,-65 115.62,-65 115.62,-65 199.12,-65 199.12,-65 205.12,-65 211.12,-71 211.12,-77 211.12,-77 211.12,-89 211.12,-89 211.12,-95 205.12,-101 199.12,-101"/>
<text xml:space="preserve" text-anchor="middle" x="157.38" y="-79.5" font-family="Arial" font-size="10.00" fill="#8b0000">requires expertise for</text>
</g>
<!-- text.axis_label&#45;&gt;rel_3 -->
<g id="edge12" class="edge">
<title>text.axis_label&#45;&gt;rel_3</title>
<path fill="none" stroke="#d46a6a" stroke-width="1.5" d="M58.07,-107.82C68.55,-105.17 80.89,-102.06 93.21,-98.95"/>
<polygon fill="#d46a6a" stroke="#d46a6a" stroke-width="1.5" points="93.79,-101.69 100.86,-97.02 92.42,-96.26 93.79,-101.69"/>
</g>
<!-- rel_0&#45;&gt;unknown.right_axis -->
<g id="edge7" class="edge">
<title>rel_0&#45;&gt;unknown.right_axis</title>
<path fill="none" stroke="#d46a6a" stroke-width="1.5" d="M444.58,-51C459.57,-51 476.93,-51 492.04,-51"/>
<polygon fill="#d46a6a" stroke="#d46a6a" stroke-width="1.5" points="491.81,-53.8 499.81,-51 491.81,-48.2 491.81,-53.8"/>
</g>
<!-- rel_1&#45;&gt;mark.line -->
<g id="edge9" class="edge">
<title>rel_1&#45;&gt;mark.line</title>
<path fill="none" stroke="#d46a6a" stroke-width="1.5" d="M711.87,-129.45C721.27,-125.06 731.24,-120.38 740.5,-116 751.27,-110.91 762.97,-105.33 773.62,-100.24"/>
<polygon fill="#d46a6a" stroke="#d46a6a" stroke-width="1.5" points="774.6,-102.87 780.61,-96.89 772.18,-97.82 774.6,-102.87"/>
</g>
<!-- rel_2&#45;&gt;mark.line -->
<g id="edge11" class="edge">
<title>rel_2&#45;&gt;mark.line</title>
<path fill="none" stroke="#d46a6a" stroke-width="1.5" d="M711.87,-36.55C721.27,-40.94 731.24,-45.62 740.5,-50 751.27,-55.09 762.97,-60.67 773.62,-65.76"/>
<polygon fill="#d46a6a" stroke="#d46a6a" stroke-width="1.5" points="772.18,-68.18 780.61,-69.11 774.6,-63.13 772.18,-68.18"/>
</g>
<!-- rel_3&#45;&gt;unknown.left_axis -->
<g id="edge13" class="edge">
<title>rel_3&#45;&gt;unknown.left_axis</title>
<path fill="none" stroke="#d46a6a" stroke-width="1.5" d="M211.44,-83C223.25,-83 235.52,-83 246.52,-83"/>
<polygon fill="#d46a6a" stroke="#d46a6a" stroke-width="1.5" points="246.35,-85.8 254.35,-83 246.35,-80.2 246.35,-85.8"/>
</g>
</g>
</svg>
