<?xml version="1.0" encoding="UTF-8" standalone="no"?>
<!DOCTYPE svg PUBLIC "-//W3C//DTD SVG 1.1//EN"
 "http://www.w3.org/Graphics/SVG/1.1/DTD/svg11.dtd">
<!-- Generated by graphviz version 14.1.5 (20260411.2331)
 -->
<!-- Title: InfoVisC.173.7(1).png Pages: 1 -->
<svg width="839pt" height="505pt"
 viewBox="0.00 0.00 839.00 505.00" xmlns="http://www.w3.org/2000/svg" xmlns:xlink="http://www.w3.org/1999/xlink">
<g id="graph0" class="graph" transform="scale(1 1) rotate(0) translate(4 501.25)">
<title>InfoVisC.173.7(1).png</title>
<polygon fill="white" stroke="none" points="-4,4 -4,-501.25 835.25,-501.25 835.25,4 -4,4"/>
<text xml:space="preserve" text-anchor="start" x="347" y="-476.95" font-family="Arial" font-weight="bold" font-size="14.00">InfoVisC.173.7(1).png</text>
<text xml:space="preserve" text-anchor="start" x="371.75" y="-457" font-family="Arial" font-size="11.00">Area &#160;| &#160;VC = 0.68</text>
<path fill="#b8e6b8" stroke="none" d="M206.25,-432C206.25,-432 214.25,-432 214.25,-432 217.25,-432 220.25,-435 220.25,-438 220.25,-438 220.25,-444 220.25,-444 220.25,-447 217.25,-450 214.25,-450 214.25,-450 206.25,-450 206.25,-450 203.25,-450 200.25,-447 200.25,-444 200.25,-444 200.25,-438 200.25,-438 200.25,-435 203.25,-432 206.25,-432"/>
<path fill="none" stroke="black" d="M206.25,-432C206.25,-432 214.25,-432 214.25,-432 217.25,-432 220.25,-435 220.25,-438 220.25,-438 220.25,-444 220.25,-444 220.25,-447 217.25,-450 214.25,-450 214.25,-450 206.25,-450 206.25,-450 203.25,-450 200.25,-447 200.25,-444 200.25,-444 200.25,-438 200.25,-438 200.25,-435 203.25,-432 206.25,-432"/>
<text xml:space="preserve" text-anchor="start" x="208.75" y="-437.25" font-family="Arial" font-size="10.00"> </text>
<text xml:space="preserve" text-anchor="start" x="224.25" y="-437.25" font-family="Arial" font-size="10.00">Object</text>
<path fill="#c7b8e6" stroke="none" d="M262.75,-432C262.75,-432 270.75,-432 270.75,-432 273.75,-432 276.75,-435 276.75,-438 276.75,-438 276.75,-444 276.75,-444 276.75,-447 273.75,-450 270.75,-450 270.75,-450 262.75,-450 262.75,-450 259.75,-450 256.75,-447 256.75,-444 256.75,-444 256.75,-438 256.75,-438 256.75,-435 259.75,-432 262.75,-432"/>
<path fill="none" stroke="black" d="M262.75,-432C262.75,-432 270.75,-432 270.75,-432 273.75,-432 276.75,-435 276.75,-438 276.75,-438 276.75,-444 276.75,-444 276.75,-447 273.75,-450 270.75,-450 270.75,-450 262.75,-450 262.75,-450 259.75,-450 256.75,-447 256.75,-444 256.75,-444 256.75,-438 256.75,-438 256.75,-435 259.75,-432 262.75,-432"/>
<text xml:space="preserve" text-anchor="start" x="265.25" y="-437.25" font-family="Arial" font-size="10.00"> </text>
<text xml:space="preserve" text-anchor="start" x="280.75" y="-437.25" font-family="Arial" font-size="10.00">Attribute</text>
<path fill="#f5b8b8" stroke="none" d="M327.5,-432C327.5,-432 335.5,-432 335.5,-432 338.5,-432 341.5,-435 341.5,-438 341.5,-438 341.5,-444 341.5,-444 341.5,-447 338.5,-450 335.5,-450 335.5,-450 327.5,-450 327.5,-450 324.5,-450 321.5,-447 321.5,-444 321.5,-444 321.5,-438 321.5,-438 321.5,-435 324.5,-432 327.5,-432"/>
<path fill="none" stroke="black" d="M327.5,-432C327.5,-432 335.5,-432 335.5,-432 338.5,-432 341.5,-435 341.5,-438 341.5,-438 341.5,-444 341.5,-444 341.5,-447 338.5,-450 335.5,-450 335.5,-450 327.5,-450 327.5,-450 324.5,-450 321.5,-447 321.5,-444 321.5,-444 321.5,-438 321.5,-438 321.5,-435 324.5,-432 327.5,-432"/>
<text xml:space="preserve" text-anchor="start" x="330" y="-437.25" font-family="Arial" font-size="10.00"> </text>
<text xml:space="preserve" text-anchor="start" x="345.5" y="-437.25" font-family="Arial" font-size="10.00">Relationship</text>
<text xml:space="preserve" text-anchor="start" x="405.5" y="-438.5" font-family="Arial" font-weight="bold" font-size="10.00">(+)</text>
<text xml:space="preserve" text-anchor="start" x="417.5" y="-438.5" font-family="Arial" font-size="10.00"> increases complexity</text>
<text xml:space="preserve" text-anchor="start" x="518.75" y="-438.5" font-family="Arial" font-weight="bold" font-size="10.00">(−)</text>
<text xml:space="preserve" text-anchor="start" x="530.75" y="-438.5" font-family="Arial" font-size="10.00"> decreases complexity</text>
<!-- unknown.area_chart -->
<g id="node1" class="node">
<title>unknown.area_chart</title>
<path fill="#b8e6b8" stroke="#2c3e50" stroke-width="1.8" d="M332.12,-361C332.12,-361 296.62,-361 296.62,-361 290.62,-361 284.62,-355 284.62,-349 284.62,-349 284.62,-337 284.62,-337 284.62,-331 290.62,-325 296.62,-325 296.62,-325 332.12,-325 332.12,-325 338.12,-325 344.12,-331 344.12,-337 344.12,-337 344.12,-349 344.12,-349 344.12,-355 338.12,-361 332.12,-361"/>
<text xml:space="preserve" text-anchor="middle" x="314.38" y="-339.5" font-family="Arial" font-size="10.00" fill="#1a1a1a">area chart</text>
</g>
<!-- attr_1 -->
<g id="node6" class="node">
<title>attr_1</title>
<path fill="#c7b8e6" stroke="#7f8c8d" stroke-width="1.2" d="M535.12,-426C535.12,-426 413.38,-426 413.38,-426 407.38,-426 401.38,-420 401.38,-414 401.38,-414 401.38,-402 401.38,-402 401.38,-396 407.38,-390 413.38,-390 413.38,-390 535.12,-390 535.12,-390 541.12,-390 547.12,-396 547.12,-402 547.12,-402 547.12,-414 547.12,-414 547.12,-420 541.12,-426 535.12,-426"/>
<text xml:space="preserve" text-anchor="middle" x="474.25" y="-404.5" font-family="Arial" font-size="10.00" fill="#1a1a1a">(+) unclear reading entry point</text>
</g>
<!-- unknown.area_chart&#45;&gt;attr_1 -->
<g id="edge1" class="edge">
<title>unknown.area_chart&#45;&gt;attr_1</title>
<path fill="none" stroke="#aaaaaa" d="M344.7,-355.07C365.95,-363.82 395.28,-375.9 420.55,-386.3"/>
<polygon fill="#aaaaaa" stroke="#aaaaaa" points="419.45,-388.5 426.85,-388.9 421.31,-383.97 419.45,-388.5"/>
</g>
<!-- attr_4 -->
<g id="node7" class="node">
<title>attr_4</title>
<path fill="#c7b8e6" stroke="#7f8c8d" stroke-width="1.2" d="M538.88,-361C538.88,-361 409.62,-361 409.62,-361 403.62,-361 397.62,-355 397.62,-349 397.62,-349 397.62,-337 397.62,-337 397.62,-331 403.62,-325 409.62,-325 409.62,-325 538.88,-325 538.88,-325 544.88,-325 550.88,-331 550.88,-337 550.88,-337 550.88,-349 550.88,-349 550.88,-355 544.88,-361 538.88,-361"/>
<text xml:space="preserve" text-anchor="middle" x="474.25" y="-339.5" font-family="Arial" font-size="10.00" fill="#1a1a1a">(+) high cognitive effort required</text>
</g>
<!-- unknown.area_chart&#45;&gt;attr_4 -->
<g id="edge2" class="edge">
<title>unknown.area_chart&#45;&gt;attr_4</title>
<path fill="none" stroke="#aaaaaa" d="M344.7,-343C357.38,-343 372.94,-343 388.79,-343"/>
<polygon fill="#aaaaaa" stroke="#aaaaaa" points="388.58,-345.45 395.58,-343 388.58,-340.55 388.58,-345.45"/>
</g>
<!-- rel_0 -->
<g id="node11" class="node">
<title>rel_0</title>
<path fill="#f5b8b8" stroke="#d46a6a" stroke-width="1.2" d="M489.25,-296C489.25,-296 459.25,-296 459.25,-296 453.25,-296 447.25,-290 447.25,-284 447.25,-284 447.25,-272 447.25,-272 447.25,-266 453.25,-260 459.25,-260 459.25,-260 489.25,-260 489.25,-260 495.25,-260 501.25,-266 501.25,-272 501.25,-272 501.25,-284 501.25,-284 501.25,-290 495.25,-296 489.25,-296"/>
<text xml:space="preserve" text-anchor="middle" x="474.25" y="-274.5" font-family="Arial" font-size="10.00" fill="#8b0000">lacks</text>
</g>
<!-- unknown.area_chart&#45;&gt;rel_0 -->
<g id="edge6" class="edge">
<title>unknown.area_chart&#45;&gt;rel_0</title>
<path fill="none" stroke="#d46a6a" stroke-width="1.5" d="M344.7,-330.93C370.86,-320.15 409.26,-304.35 437.27,-292.81"/>
<polygon fill="#d46a6a" stroke="#d46a6a" stroke-width="1.5" points="438.28,-295.43 444.61,-289.79 436.15,-290.25 438.28,-295.43"/>
</g>
<!-- unknown.focal_point -->
<g id="node2" class="node">
<title>unknown.focal_point</title>
<path fill="#b8e6b8" stroke="#2c3e50" stroke-width="1.8" d="M644.75,-166C644.75,-166 607.75,-166 607.75,-166 601.75,-166 595.75,-160 595.75,-154 595.75,-154 595.75,-142 595.75,-142 595.75,-136 601.75,-130 607.75,-130 607.75,-130 644.75,-130 644.75,-130 650.75,-130 656.75,-136 656.75,-142 656.75,-142 656.75,-154 656.75,-154 656.75,-160 650.75,-166 644.75,-166"/>
<text xml:space="preserve" text-anchor="middle" x="626.25" y="-144.5" font-family="Arial" font-size="10.00" fill="#1a1a1a">focal point</text>
</g>
<!-- attr_0 -->
<g id="node8" class="node">
<title>attr_0</title>
<path fill="#c7b8e6" stroke="#7f8c8d" stroke-width="1.2" d="M819.25,-166C819.25,-166 711.75,-166 711.75,-166 705.75,-166 699.75,-160 699.75,-154 699.75,-154 699.75,-142 699.75,-142 699.75,-136 705.75,-130 711.75,-130 711.75,-130 819.25,-130 819.25,-130 825.25,-130 831.25,-136 831.25,-142 831.25,-142 831.25,-154 831.25,-154 831.25,-160 825.25,-166 819.25,-166"/>
<text xml:space="preserve" text-anchor="middle" x="765.5" y="-144.5" font-family="Arial" font-size="10.00" fill="#1a1a1a">(+) absent visual hierarchy</text>
</g>
<!-- unknown.focal_point&#45;&gt;attr_0 -->
<g id="edge3" class="edge">
<title>unknown.focal_point&#45;&gt;attr_0</title>
<path fill="none" stroke="#aaaaaa" d="M657.37,-148C667.44,-148 679.14,-148 691.03,-148"/>
<polygon fill="#aaaaaa" stroke="#aaaaaa" points="690.77,-150.45 697.77,-148 690.77,-145.55 690.77,-150.45"/>
</g>
<!-- text.axis_label -->
<g id="node3" class="node">
<title>text.axis_label</title>
<path fill="#b8e6b8" stroke="#2c3e50" stroke-width="1.8" d="M331,-69C331,-69 297.75,-69 297.75,-69 291.75,-69 285.75,-63 285.75,-57 285.75,-57 285.75,-45 285.75,-45 285.75,-39 291.75,-33 297.75,-33 297.75,-33 331,-33 331,-33 337,-33 343,-39 343,-45 343,-45 343,-57 343,-57 343,-63 337,-69 331,-69"/>
<text xml:space="preserve" text-anchor="middle" x="314.38" y="-47.5" font-family="Arial" font-size="10.00" fill="#1a1a1a">axis label</text>
</g>
<!-- attr_3 -->
<g id="node9" class="node">
<title>attr_3</title>
<path fill="#c7b8e6" stroke="#7f8c8d" stroke-width="1.2" d="M540.75,-101C540.75,-101 407.75,-101 407.75,-101 401.75,-101 395.75,-95 395.75,-89 395.75,-89 395.75,-77 395.75,-77 395.75,-71 401.75,-65 407.75,-65 407.75,-65 540.75,-65 540.75,-65 546.75,-65 552.75,-71 552.75,-77 552.75,-77 552.75,-89 552.75,-89 552.75,-95 546.75,-101 540.75,-101"/>
<text xml:space="preserve" text-anchor="middle" x="474.25" y="-79.5" font-family="Arial" font-size="10.00" fill="#1a1a1a">(+) insufficient contextual guidan</text>
</g>
<!-- text.axis_label&#45;&gt;attr_3 -->
<g id="edge4" class="edge">
<title>text.axis_label&#45;&gt;attr_3</title>
<path fill="none" stroke="#aaaaaa" d="M343.6,-56.72C356.06,-59.25 371.45,-62.37 387.22,-65.56"/>
<polygon fill="#aaaaaa" stroke="#aaaaaa" points="386.65,-67.95 394,-66.94 387.62,-63.14 386.65,-67.95"/>
</g>
<!-- rel_2 -->
<g id="node13" class="node">
<title>rel_2</title>
<path fill="#f5b8b8" stroke="#d46a6a" stroke-width="1.2" d="M498,-36C498,-36 450.5,-36 450.5,-36 444.5,-36 438.5,-30 438.5,-24 438.5,-24 438.5,-12 438.5,-12 438.5,-6 444.5,0 450.5,0 450.5,0 498,0 498,0 504,0 510,-6 510,-12 510,-12 510,-24 510,-24 510,-30 504,-36 498,-36"/>
<text xml:space="preserve" text-anchor="middle" x="474.25" y="-14.5" font-family="Arial" font-size="10.00" fill="#8b0000">fails to guide</text>
</g>
<!-- text.axis_label&#45;&gt;rel_2 -->
<g id="edge10" class="edge">
<title>text.axis_label&#45;&gt;rel_2</title>
<path fill="none" stroke="#d46a6a" stroke-width="1.5" d="M343.6,-45.1C367.14,-40.18 401.11,-33.08 428.38,-27.38"/>
<polygon fill="#d46a6a" stroke="#d46a6a" stroke-width="1.5" points="428.61,-30.19 435.86,-25.81 427.46,-24.71 428.61,-30.19"/>
</g>
<!-- furniture.legend -->
<g id="node4" class="node">
<title>furniture.legend</title>
<path fill="#b8e6b8" stroke="#2c3e50" stroke-width="1.8" d="M42,-199C42,-199 12,-199 12,-199 6,-199 0,-193 0,-187 0,-187 0,-175 0,-175 0,-169 6,-163 12,-163 12,-163 42,-163 42,-163 48,-163 54,-169 54,-175 54,-175 54,-187 54,-187 54,-193 48,-199 42,-199"/>
<text xml:space="preserve" text-anchor="middle" x="27" y="-177.5" font-family="Arial" font-size="10.00" fill="#1a1a1a">legend</text>
</g>
<!-- rel_3 -->
<g id="node14" class="node">
<title>rel_3</title>
<path fill="#f5b8b8" stroke="#d46a6a" stroke-width="1.2" d="M221,-199C221,-199 109,-199 109,-199 103,-199 97,-193 97,-187 97,-187 97,-175 97,-175 97,-169 103,-163 109,-163 109,-163 221,-163 221,-163 227,-163 233,-169 233,-175 233,-175 233,-187 233,-187 233,-193 227,-199 221,-199"/>
<text xml:space="preserve" text-anchor="middle" x="165" y="-177.5" font-family="Arial" font-size="10.00" fill="#8b0000">insufficiently disambiguates</text>
</g>
<!-- furniture.legend&#45;&gt;rel_3 -->
<g id="edge12" class="edge">
<title>furniture.legend&#45;&gt;rel_3</title>
<path fill="none" stroke="#d46a6a" stroke-width="1.5" d="M54.87,-181C64.21,-181 75.21,-181 86.56,-181"/>
<polygon fill="#d46a6a" stroke="#d46a6a" stroke-width="1.5" points="86.33,-183.8 94.33,-181 86.33,-178.2 86.33,-183.8"/>
</g>
<!-- unknown.data_encoding -->
<g id="node5" class="node">
<title>unknown.data_encoding</title>
<path fill="#b8e6b8" stroke="#2c3e50" stroke-width="1.8" d="M340.75,-199C340.75,-199 288,-199 288,-199 282,-199 276,-193 276,-187 276,-187 276,-175 276,-175 276,-169 282,-163 288,-163 288,-163 340.75,-163 340.75,-163 346.75,-163 352.75,-169 352.75,-175 352.75,-175 352.75,-187 352.75,-187 352.75,-193 346.75,-199 340.75,-199"/>
<text xml:space="preserve" text-anchor="middle" x="314.38" y="-177.5" font-family="Arial" font-size="10.00" fill="#1a1a1a">data encoding</text>
</g>
<!-- attr_2 -->
<g id="node10" class="node">
<title>attr_2</title>
<path fill="#c7b8e6" stroke="#7f8c8d" stroke-width="1.2" d="M532.12,-231C532.12,-231 416.38,-231 416.38,-231 410.38,-231 404.38,-225 404.38,-219 404.38,-219 404.38,-207 404.38,-207 404.38,-201 410.38,-195 416.38,-195 416.38,-195 532.12,-195 532.12,-195 538.12,-195 544.12,-201 544.12,-207 544.12,-207 544.12,-219 544.12,-219 544.12,-225 538.12,-231 532.12,-231"/>
<text xml:space="preserve" text-anchor="middle" x="474.25" y="-209.5" font-family="Arial" font-size="10.00" fill="#1a1a1a">(+) ambiguous data mapping</text>
</g>
<!-- unknown.data_encoding&#45;&gt;attr_2 -->
<g id="edge5" class="edge">
<title>unknown.data_encoding&#45;&gt;attr_2</title>
<path fill="none" stroke="#aaaaaa" d="M353.59,-188.75C366.37,-191.34 381.12,-194.33 395.79,-197.3"/>
<polygon fill="#aaaaaa" stroke="#aaaaaa" points="395.09,-199.66 402.44,-198.65 396.07,-194.86 395.09,-199.66"/>
</g>
<!-- rel_1 -->
<g id="node12" class="node">
<title>rel_1</title>
<path fill="#f5b8b8" stroke="#d46a6a" stroke-width="1.2" d="M490.12,-166C490.12,-166 458.38,-166 458.38,-166 452.38,-166 446.38,-160 446.38,-154 446.38,-154 446.38,-142 446.38,-142 446.38,-136 452.38,-130 458.38,-130 458.38,-130 490.12,-130 490.12,-130 496.12,-130 502.12,-136 502.12,-142 502.12,-142 502.12,-154 502.12,-154 502.12,-160 496.12,-166 490.12,-166"/>
<text xml:space="preserve" text-anchor="middle" x="474.25" y="-144.5" font-family="Arial" font-size="10.00" fill="#8b0000">obscures</text>
</g>
<!-- unknown.data_encoding&#45;&gt;rel_1 -->
<g id="edge8" class="edge">
<title>unknown.data_encoding&#45;&gt;rel_1</title>
<path fill="none" stroke="#d46a6a" stroke-width="1.5" d="M353.59,-173.01C378.78,-167.75 411.58,-160.89 436.47,-155.69"/>
<polygon fill="#d46a6a" stroke="#d46a6a" stroke-width="1.5" points="436.78,-158.48 444.04,-154.11 435.64,-153 436.78,-158.48"/>
</g>
<!-- rel_0&#45;&gt;unknown.focal_point -->
<g id="edge7" class="edge">
<title>rel_0&#45;&gt;unknown.focal_point</title>
<path fill="none" stroke="#d46a6a" stroke-width="1.5" d="M501.52,-271.07C517.47,-265.96 537.6,-257.82 552.75,-246 577.42,-226.74 597.78,-197.04 610.58,-175.37"/>
<polygon fill="#d46a6a" stroke="#d46a6a" stroke-width="1.5" points="612.91,-176.94 614.46,-168.61 608.05,-174.15 612.91,-176.94"/>
</g>
<!-- rel_1&#45;&gt;unknown.focal_point -->
<g id="edge9" class="edge">
<title>rel_1&#45;&gt;unknown.focal_point</title>
<path fill="none" stroke="#d46a6a" stroke-width="1.5" d="M502.41,-148C525.44,-148 558.8,-148 584.95,-148"/>
<polygon fill="#d46a6a" stroke="#d46a6a" stroke-width="1.5" points="584.67,-150.8 592.67,-148 584.67,-145.2 584.67,-150.8"/>
</g>
<!-- rel_2&#45;&gt;unknown.focal_point -->
<g id="edge11" class="edge">
<title>rel_2&#45;&gt;unknown.focal_point</title>
<path fill="none" stroke="#d46a6a" stroke-width="1.5" d="M510.55,-28.55C524.59,-33.85 540.33,-41.25 552.75,-51 577.06,-70.09 597.35,-99.24 610.23,-120.6"/>
<polygon fill="#d46a6a" stroke="#d46a6a" stroke-width="1.5" points="607.68,-121.78 614.14,-127.27 612.51,-118.95 607.68,-121.78"/>
</g>
<!-- rel_3&#45;&gt;unknown.data_encoding -->
<g id="edge13" class="edge">
<title>rel_3&#45;&gt;unknown.data_encoding</title>
<path fill="none" stroke="#d46a6a" stroke-width="1.5" d="M233.22,-181C244.04,-181 255.04,-181 265.29,-181"/>
<polygon fill="#d46a6a" stroke="#d46a6a" stroke-width="1.5" points="264.99,-183.8 272.99,-181 264.99,-178.2 264.99,-183.8"/>
</g>
</g>
</svg>
