<?xml version="1.0" encoding="UTF-8" standalone="no"?>
<!DOCTYPE svg PUBLIC "-//W3C//DTD SVG 1.1//EN"
 "http://www.w3.org/Graphics/SVG/1.1/DTD/svg11.dtd">
<!-- Generated by graphviz version 14.1.5 (20260411.2331)
 -->
<!-- Title: InfoVisJ.647.13(2).png Pages: 1 -->
<svg width="800pt" height="375pt"
 viewBox="0.00 0.00 800.00 375.00" xmlns="http://www.w3.org/2000/svg" xmlns:xlink="http://www.w3.org/1999/xlink">
<g id="graph0" class="graph" transform="scale(1 1) rotate(0) translate(4 371.25)">
<title>InfoVisJ.647.13(2).png</title>
<polygon fill="white" stroke="none" points="-4,4 -4,-371.25 795.75,-371.25 795.75,4 -4,4"/>
<text xml:space="preserve" text-anchor="start" x="324.62" y="-346.95" font-family="Arial" font-weight="bold" font-size="14.00">InfoVisJ.647.13(2).png</text>
<text xml:space="preserve" text-anchor="start" x="353.88" y="-327" font-family="Arial" font-size="11.00">Text &#160;| &#160;VC = 0.43</text>
<path fill="#b8e6b8" stroke="none" d="M186.5,-302C186.5,-302 194.5,-302 194.5,-302 197.5,-302 200.5,-305 200.5,-308 200.5,-308 200.5,-314 200.5,-314 200.5,-317 197.5,-320 194.5,-320 194.5,-320 186.5,-320 186.5,-320 183.5,-320 180.5,-317 180.5,-314 180.5,-314 180.5,-308 180.5,-308 180.5,-305 183.5,-302 186.5,-302"/>
<path fill="none" stroke="black" d="M186.5,-302C186.5,-302 194.5,-302 194.5,-302 197.5,-302 200.5,-305 200.5,-308 200.5,-308 200.5,-314 200.5,-314 200.5,-317 197.5,-320 194.5,-320 194.5,-320 186.5,-320 186.5,-320 183.5,-320 180.5,-317 180.5,-314 180.5,-314 180.5,-308 180.5,-308 180.5,-305 183.5,-302 186.5,-302"/>
<text xml:space="preserve" text-anchor="start" x="189" y="-307.25" font-family="Arial" font-size="10.00"> </text>
<text xml:space="preserve" text-anchor="start" x="204.5" y="-307.25" font-family="Arial" font-size="10.00">Object</text>
<path fill="#c7b8e6" stroke="none" d="M243,-302C243,-302 251,-302 251,-302 254,-302 257,-305 257,-308 257,-308 257,-314 257,-314 257,-317 254,-320 251,-320 251,-320 243,-320 243,-320 240,-320 237,-317 237,-314 237,-314 237,-308 237,-308 237,-305 240,-302 243,-302"/>
<path fill="none" stroke="black" d="M243,-302C243,-302 251,-302 251,-302 254,-302 257,-305 257,-308 257,-308 257,-314 257,-314 257,-317 254,-320 251,-320 251,-320 243,-320 243,-320 240,-320 237,-317 237,-314 237,-314 237,-308 237,-308 237,-305 240,-302 243,-302"/>
<text xml:space="preserve" text-anchor="start" x="245.5" y="-307.25" font-family="Arial" font-size="10.00"> </text>
<text xml:space="preserve" text-anchor="start" x="261" y="-307.25" font-family="Arial" font-size="10.00">Attribute</text>
<path fill="#f5b8b8" stroke="none" d="M307.75,-302C307.75,-302 315.75,-302 315.75,-302 318.75,-302 321.75,-305 321.75,-308 321.75,-308 321.75,-314 321.75,-314 321.75,-317 318.75,-320 315.75,-320 315.75,-320 307.75,-320 307.75,-320 304.75,-320 301.75,-317 301.75,-314 301.75,-314 301.75,-308 301.75,-308 301.75,-305 304.75,-302 307.75,-302"/>
<path fill="none" stroke="black" d="M307.75,-302C307.75,-302 315.75,-302 315.75,-302 318.75,-302 321.75,-305 321.75,-308 321.75,-308 321.75,-314 321.75,-314 321.75,-317 318.75,-320 315.75,-320 315.75,-320 307.75,-320 307.75,-320 304.75,-320 301.75,-317 301.75,-314 301.75,-314 301.75,-308 301.75,-308 301.75,-305 304.75,-302 307.75,-302"/>
<text xml:space="preserve" text-anchor="start" x="310.25" y="-307.25" font-family="Arial" font-size="10.00"> </text>
<text xml:space="preserve" text-anchor="start" x="325.75" y="-307.25" font-family="Arial" font-size="10.00">Relationship</text>
<text xml:space="preserve" text-anchor="start" x="385.75" y="-308.5" font-family="Arial" font-weight="bold" font-size="10.00">(+)</text>
<text xml:space="preserve" text-anchor="start" x="397.75" y="-308.5" font-family="Arial" font-size="10.00"> increases complexity</text>
<text xml:space="preserve" text-anchor="start" x="499" y="-308.5" font-family="Arial" font-weight="bold" font-size="10.00">(−)</text>
<text xml:space="preserve" text-anchor="start" x="511" y="-308.5" font-family="Arial" font-size="10.00"> decreases complexity</text>
<!-- unknown.text_content -->
<g id="node1" class="node">
<title>unknown.text_content</title>
<path fill="#b8e6b8" stroke="#2c3e50" stroke-width="1.8" d="M314,-101C314,-101 270.25,-101 270.25,-101 264.25,-101 258.25,-95 258.25,-89 258.25,-89 258.25,-77 258.25,-77 258.25,-71 264.25,-65 270.25,-65 270.25,-65 314,-65 314,-65 320,-65 326,-71 326,-77 326,-77 326,-89 326,-89 326,-95 320,-101 314,-101"/>
<text xml:space="preserve" text-anchor="middle" x="292.12" y="-79.5" font-family="Arial" font-size="10.00" fill="#1a1a1a">text content</text>
</g>
<!-- attr_0 -->
<g id="node5" class="node">
<title>attr_0</title>
<path fill="#c7b8e6" stroke="#7f8c8d" stroke-width="1.2" d="M461.12,-166C461.12,-166 400.12,-166 400.12,-166 394.12,-166 388.12,-160 388.12,-154 388.12,-154 388.12,-142 388.12,-142 388.12,-136 394.12,-130 400.12,-130 400.12,-130 461.12,-130 461.12,-130 467.12,-130 473.12,-136 473.12,-142 473.12,-142 473.12,-154 473.12,-154 473.12,-160 467.12,-166 461.12,-166"/>
<text xml:space="preserve" text-anchor="middle" x="430.62" y="-144.5" font-family="Arial" font-size="10.00" fill="#1a1a1a">(−) easy to read</text>
</g>
<!-- unknown.text_content&#45;&gt;attr_0 -->
<g id="edge1" class="edge">
<title>unknown.text_content&#45;&gt;attr_0</title>
<path fill="none" stroke="#aaaaaa" d="M326.87,-99.07C344.01,-107.23 365.1,-117.27 383.7,-126.13"/>
<polygon fill="#aaaaaa" stroke="#aaaaaa" points="382.22,-128.14 389.6,-128.94 384.33,-123.72 382.22,-128.14"/>
</g>
<!-- attr_4 -->
<g id="node6" class="node">
<title>attr_4</title>
<path fill="#c7b8e6" stroke="#7f8c8d" stroke-width="1.2" d="M480.25,-101C480.25,-101 381,-101 381,-101 375,-101 369,-95 369,-89 369,-89 369,-77 369,-77 369,-71 375,-65 381,-65 381,-65 480.25,-65 480.25,-65 486.25,-65 492.25,-71 492.25,-77 492.25,-77 492.25,-89 492.25,-89 492.25,-95 486.25,-101 480.25,-101"/>
<text xml:space="preserve" text-anchor="middle" x="430.62" y="-79.5" font-family="Arial" font-size="10.00" fill="#1a1a1a">(−) quick comprehension</text>
</g>
<!-- unknown.text_content&#45;&gt;attr_4 -->
<g id="edge2" class="edge">
<title>unknown.text_content&#45;&gt;attr_4</title>
<path fill="none" stroke="#aaaaaa" d="M326.87,-83C337.03,-83 348.58,-83 360.18,-83"/>
<polygon fill="#aaaaaa" stroke="#aaaaaa" points="360.1,-85.45 367.1,-83 360.1,-80.55 360.1,-85.45"/>
</g>
<!-- rel_2 -->
<g id="node12" class="node">
<title>rel_2</title>
<path fill="#f5b8b8" stroke="#d46a6a" stroke-width="1.2" d="M445.62,-36C445.62,-36 415.62,-36 415.62,-36 409.62,-36 403.62,-30 403.62,-24 403.62,-24 403.62,-12 403.62,-12 403.62,-6 409.62,0 415.62,0 415.62,0 445.62,0 445.62,0 451.62,0 457.62,-6 457.62,-12 457.62,-12 457.62,-24 457.62,-24 457.62,-30 451.62,-36 445.62,-36"/>
<text xml:space="preserve" text-anchor="middle" x="430.62" y="-14.5" font-family="Arial" font-size="10.00" fill="#8b0000">reduces</text>
</g>
<!-- unknown.text_content&#45;&gt;rel_2 -->
<g id="edge10" class="edge">
<title>unknown.text_content&#45;&gt;rel_2</title>
<path fill="none" stroke="#d46a6a" stroke-width="1.5" d="M326.87,-66.93C347.27,-57.22 373.25,-44.84 393.99,-34.97"/>
<polygon fill="#d46a6a" stroke="#d46a6a" stroke-width="1.5" points="395.04,-37.57 401.06,-31.6 392.63,-32.52 395.04,-37.57"/>
</g>
<!-- structure.layout -->
<g id="node2" class="node">
<title>structure.layout</title>
<path fill="#b8e6b8" stroke="#2c3e50" stroke-width="1.8" d="M307.12,-263C307.12,-263 277.12,-263 277.12,-263 271.12,-263 265.12,-257 265.12,-251 265.12,-251 265.12,-239 265.12,-239 265.12,-233 271.12,-227 277.12,-227 277.12,-227 307.12,-227 307.12,-227 313.12,-227 319.12,-233 319.12,-239 319.12,-239 319.12,-251 319.12,-251 319.12,-257 313.12,-263 307.12,-263"/>
<text xml:space="preserve" text-anchor="middle" x="292.12" y="-241.5" font-family="Arial" font-size="10.00" fill="#1a1a1a">layout</text>
</g>
<!-- attr_1 -->
<g id="node7" class="node">
<title>attr_1</title>
<path fill="#c7b8e6" stroke="#7f8c8d" stroke-width="1.2" d="M472.38,-296C472.38,-296 388.88,-296 388.88,-296 382.88,-296 376.88,-290 376.88,-284 376.88,-284 376.88,-272 376.88,-272 376.88,-266 382.88,-260 388.88,-260 388.88,-260 472.38,-260 472.38,-260 478.38,-260 484.38,-266 484.38,-272 484.38,-272 484.38,-284 484.38,-284 484.38,-290 478.38,-296 472.38,-296"/>
<text xml:space="preserve" text-anchor="middle" x="430.62" y="-274.5" font-family="Arial" font-size="10.00" fill="#1a1a1a">(−) clear organization</text>
</g>
<!-- structure.layout&#45;&gt;attr_1 -->
<g id="edge3" class="edge">
<title>structure.layout&#45;&gt;attr_1</title>
<path fill="none" stroke="#aaaaaa" d="M319.77,-251.44C333.76,-254.82 351.53,-259.12 368.68,-263.27"/>
<polygon fill="#aaaaaa" stroke="#aaaaaa" points="367.65,-265.54 375.03,-264.8 368.8,-260.77 367.65,-265.54"/>
</g>
<!-- rel_1 -->
<g id="node11" class="node">
<title>rel_1</title>
<path fill="#f5b8b8" stroke="#d46a6a" stroke-width="1.2" d="M445.62,-231C445.62,-231 415.62,-231 415.62,-231 409.62,-231 403.62,-225 403.62,-219 403.62,-219 403.62,-207 403.62,-207 403.62,-201 409.62,-195 415.62,-195 415.62,-195 445.62,-195 445.62,-195 451.62,-195 457.62,-201 457.62,-207 457.62,-207 457.62,-219 457.62,-219 457.62,-225 451.62,-231 445.62,-231"/>
<text xml:space="preserve" text-anchor="middle" x="430.62" y="-209.5" font-family="Arial" font-size="10.00" fill="#8b0000">supports</text>
</g>
<!-- structure.layout&#45;&gt;rel_1 -->
<g id="edge8" class="edge">
<title>structure.layout&#45;&gt;rel_1</title>
<path fill="none" stroke="#d46a6a" stroke-width="1.5" d="M319.77,-238.75C340.72,-233.84 370.13,-226.95 393.25,-221.53"/>
<polygon fill="#d46a6a" stroke="#d46a6a" stroke-width="1.5" points="393.69,-224.3 400.84,-219.75 392.41,-218.85 393.69,-224.3"/>
</g>
<!-- unknown.typography -->
<g id="node3" class="node">
<title>unknown.typography</title>
<path fill="#b8e6b8" stroke="#2c3e50" stroke-width="1.8" d="M52,-133C52,-133 12,-133 12,-133 6,-133 0,-127 0,-121 0,-121 0,-109 0,-109 0,-103 6,-97 12,-97 12,-97 52,-97 52,-97 58,-97 64,-103 64,-109 64,-109 64,-121 64,-121 64,-127 58,-133 52,-133"/>
<text xml:space="preserve" text-anchor="middle" x="32" y="-111.5" font-family="Arial" font-size="10.00" fill="#1a1a1a">typography</text>
</g>
<!-- attr_2 -->
<g id="node8" class="node">
<title>attr_2</title>
<path fill="#c7b8e6" stroke="#7f8c8d" stroke-width="1.2" d="M203.25,-166C203.25,-166 119,-166 119,-166 113,-166 107,-160 107,-154 107,-154 107,-142 107,-142 107,-136 113,-130 119,-130 119,-130 203.25,-130 203.25,-130 209.25,-130 215.25,-136 215.25,-142 215.25,-142 215.25,-154 215.25,-154 215.25,-160 209.25,-166 203.25,-166"/>
<text xml:space="preserve" text-anchor="middle" x="161.12" y="-144.5" font-family="Arial" font-size="10.00" fill="#1a1a1a">(−) readable font size</text>
</g>
<!-- unknown.typography&#45;&gt;attr_2 -->
<g id="edge4" class="edge">
<title>unknown.typography&#45;&gt;attr_2</title>
<path fill="none" stroke="#aaaaaa" d="M64.75,-123.24C75.03,-125.91 86.8,-128.97 98.49,-132"/>
<polygon fill="#aaaaaa" stroke="#aaaaaa" points="97.69,-134.32 105.08,-133.71 98.92,-129.58 97.69,-134.32"/>
</g>
<!-- rel_0 -->
<g id="node10" class="node">
<title>rel_0</title>
<path fill="#f5b8b8" stroke="#d46a6a" stroke-width="1.2" d="M178.12,-101C178.12,-101 144.12,-101 144.12,-101 138.12,-101 132.12,-95 132.12,-89 132.12,-89 132.12,-77 132.12,-77 132.12,-71 138.12,-65 144.12,-65 144.12,-65 178.12,-65 178.12,-65 184.12,-65 190.12,-71 190.12,-77 190.12,-77 190.12,-89 190.12,-89 190.12,-95 184.12,-101 178.12,-101"/>
<text xml:space="preserve" text-anchor="middle" x="161.12" y="-79.5" font-family="Arial" font-size="10.00" fill="#8b0000">facilitates</text>
</g>
<!-- unknown.typography&#45;&gt;rel_0 -->
<g id="edge6" class="edge">
<title>unknown.typography&#45;&gt;rel_0</title>
<path fill="none" stroke="#d46a6a" stroke-width="1.5" d="M64.75,-107.01C82.13,-102.63 103.77,-97.19 122.05,-92.58"/>
<polygon fill="#d46a6a" stroke="#d46a6a" stroke-width="1.5" points="122.53,-95.35 129.61,-90.68 121.17,-89.92 122.53,-95.35"/>
</g>
<!-- content.data -->
<g id="node4" class="node">
<title>content.data</title>
<path fill="#b8e6b8" stroke="#2c3e50" stroke-width="1.8" d="M587.25,-133C587.25,-133 547.25,-133 547.25,-133 541.25,-133 535.25,-127 535.25,-121 535.25,-121 535.25,-109 535.25,-109 535.25,-103 541.25,-97 547.25,-97 547.25,-97 587.25,-97 587.25,-97 593.25,-97 599.25,-103 599.25,-109 599.25,-109 599.25,-121 599.25,-121 599.25,-127 593.25,-133 587.25,-133"/>
<text xml:space="preserve" text-anchor="middle" x="567.25" y="-111.5" font-family="Arial" font-size="10.00" fill="#1a1a1a">information</text>
</g>
<!-- attr_3 -->
<g id="node9" class="node">
<title>attr_3</title>
<path fill="#c7b8e6" stroke="#7f8c8d" stroke-width="1.2" d="M779.75,-133C779.75,-133 654.25,-133 654.25,-133 648.25,-133 642.25,-127 642.25,-121 642.25,-121 642.25,-109 642.25,-109 642.25,-103 648.25,-97 654.25,-97 654.25,-97 779.75,-97 779.75,-97 785.75,-97 791.75,-103 791.75,-109 791.75,-109 791.75,-121 791.75,-121 791.75,-127 785.75,-133 779.75,-133"/>
<text xml:space="preserve" text-anchor="middle" x="717" y="-111.5" font-family="Arial" font-size="10.00" fill="#1a1a1a">(+) moderate information depth</text>
</g>
<!-- content.data&#45;&gt;attr_3 -->
<g id="edge5" class="edge">
<title>content.data&#45;&gt;attr_3</title>
<path fill="none" stroke="#aaaaaa" d="M599.95,-115C610,-115 621.63,-115 633.56,-115"/>
<polygon fill="#aaaaaa" stroke="#aaaaaa" points="633.34,-117.45 640.34,-115 633.34,-112.55 633.34,-117.45"/>
</g>
<!-- rel_0&#45;&gt;unknown.text_content -->
<g id="edge7" class="edge">
<title>rel_0&#45;&gt;unknown.text_content</title>
<path fill="none" stroke="#d46a6a" stroke-width="1.5" d="M190.43,-83C207.08,-83 228.48,-83 247.27,-83"/>
<polygon fill="#d46a6a" stroke="#d46a6a" stroke-width="1.5" points="247.12,-85.8 255.12,-83 247.12,-80.2 247.12,-85.8"/>
</g>
<!-- rel_1&#45;&gt;content.data -->
<g id="edge9" class="edge">
<title>rel_1&#45;&gt;content.data</title>
<path fill="none" stroke="#d46a6a" stroke-width="1.5" d="M458.1,-200.78C469.02,-195.3 481.59,-188.4 492.25,-181 509.43,-169.07 526.97,-153.6 540.66,-140.63"/>
<polygon fill="#d46a6a" stroke="#d46a6a" stroke-width="1.5" points="542.38,-142.86 546.21,-135.3 538.5,-138.83 542.38,-142.86"/>
</g>
<!-- rel_2&#45;&gt;content.data -->
<g id="edge11" class="edge">
<title>rel_2&#45;&gt;content.data</title>
<path fill="none" stroke="#d46a6a" stroke-width="1.5" d="M458.07,-30.26C468.99,-35.75 481.57,-42.64 492.25,-50 509.24,-61.7 526.65,-76.81 540.32,-89.52"/>
<polygon fill="#d46a6a" stroke="#d46a6a" stroke-width="1.5" points="538.1,-91.28 545.84,-94.74 541.95,-87.21 538.1,-91.28"/>
</g>
</g>
</svg>
