<?xml version="1.0" encoding="UTF-8" standalone="no"?>
<!DOCTYPE svg PUBLIC "-//W3C//DTD SVG 1.1//EN"
 "http://www.w3.org/Graphics/SVG/1.1/DTD/svg11.dtd">
<!-- Generated by graphviz version 14.1.5 (20260411.2331)
 -->
<!-- Title: InfoVisJ.413.3.png Pages: 1 -->
<svg width="533pt" height="503pt"
 viewBox="0.00 0.00 533.00 503.00" xmlns="http://www.w3.org/2000/svg" xmlns:xlink="http://www.w3.org/1999/xlink">
<g id="graph0" class="graph" transform="scale(1 1) rotate(0) translate(4 499.25)">
<title>InfoVisJ.413.3.png</title>
<polygon fill="white" stroke="none" points="-4,4 -4,-499.25 529.25,-499.25 529.25,4 -4,4"/>
<text xml:space="preserve" text-anchor="start" x="203.38" y="-474.95" font-family="Arial" font-weight="bold" font-size="14.00">InfoVisJ.413.3.png</text>
<text xml:space="preserve" text-anchor="start" x="191" y="-455" font-family="Arial" font-size="11.00">Cont.&#45;ColorPatn &#160;| &#160;VC = 0.81</text>
<path fill="#b8e6b8" stroke="none" d="M53.25,-430C53.25,-430 61.25,-430 61.25,-430 64.25,-430 67.25,-433 67.25,-436 67.25,-436 67.25,-442 67.25,-442 67.25,-445 64.25,-448 61.25,-448 61.25,-448 53.25,-448 53.25,-448 50.25,-448 47.25,-445 47.25,-442 47.25,-442 47.25,-436 47.25,-436 47.25,-433 50.25,-430 53.25,-430"/>
<path fill="none" stroke="black" d="M53.25,-430C53.25,-430 61.25,-430 61.25,-430 64.25,-430 67.25,-433 67.25,-436 67.25,-436 67.25,-442 67.25,-442 67.25,-445 64.25,-448 61.25,-448 61.25,-448 53.25,-448 53.25,-448 50.25,-448 47.25,-445 47.25,-442 47.25,-442 47.25,-436 47.25,-436 47.25,-433 50.25,-430 53.25,-430"/>
<text xml:space="preserve" text-anchor="start" x="55.75" y="-435.25" font-family="Arial" font-size="10.00"> </text>
<text xml:space="preserve" text-anchor="start" x="71.25" y="-435.25" font-family="Arial" font-size="10.00">Object</text>
<path fill="#c7b8e6" stroke="none" d="M109.75,-430C109.75,-430 117.75,-430 117.75,-430 120.75,-430 123.75,-433 123.75,-436 123.75,-436 123.75,-442 123.75,-442 123.75,-445 120.75,-448 117.75,-448 117.75,-448 109.75,-448 109.75,-448 106.75,-448 103.75,-445 103.75,-442 103.75,-442 103.75,-436 103.75,-436 103.75,-433 106.75,-430 109.75,-430"/>
<path fill="none" stroke="black" d="M109.75,-430C109.75,-430 117.75,-430 117.75,-430 120.75,-430 123.75,-433 123.75,-436 123.75,-436 123.75,-442 123.75,-442 123.75,-445 120.75,-448 117.75,-448 117.75,-448 109.75,-448 109.75,-448 106.75,-448 103.75,-445 103.75,-442 103.75,-442 103.75,-436 103.75,-436 103.75,-433 106.75,-430 109.75,-430"/>
<text xml:space="preserve" text-anchor="start" x="112.25" y="-435.25" font-family="Arial" font-size="10.00"> </text>
<text xml:space="preserve" text-anchor="start" x="127.75" y="-435.25" font-family="Arial" font-size="10.00">Attribute</text>
<path fill="#f5b8b8" stroke="none" d="M174.5,-430C174.5,-430 182.5,-430 182.5,-430 185.5,-430 188.5,-433 188.5,-436 188.5,-436 188.5,-442 188.5,-442 188.5,-445 185.5,-448 182.5,-448 182.5,-448 174.5,-448 174.5,-448 171.5,-448 168.5,-445 168.5,-442 168.5,-442 168.5,-436 168.5,-436 168.5,-433 171.5,-430 174.5,-430"/>
<path fill="none" stroke="black" d="M174.5,-430C174.5,-430 182.5,-430 182.5,-430 185.5,-430 188.5,-433 188.5,-436 188.5,-436 188.5,-442 188.5,-442 188.5,-445 185.5,-448 182.5,-448 182.5,-448 174.5,-448 174.5,-448 171.5,-448 168.5,-445 168.5,-442 168.5,-442 168.5,-436 168.5,-436 168.5,-433 171.5,-430 174.5,-430"/>
<text xml:space="preserve" text-anchor="start" x="177" y="-435.25" font-family="Arial" font-size="10.00"> </text>
<text xml:space="preserve" text-anchor="start" x="192.5" y="-435.25" font-family="Arial" font-size="10.00">Relationship</text>
<text xml:space="preserve" text-anchor="start" x="252.5" y="-436.5" font-family="Arial" font-weight="bold" font-size="10.00">(+)</text>
<text xml:space="preserve" text-anchor="start" x="264.5" y="-436.5" font-family="Arial" font-size="10.00"> increases complexity</text>
<text xml:space="preserve" text-anchor="start" x="365.75" y="-436.5" font-family="Arial" font-weight="bold" font-size="10.00">(−)</text>
<text xml:space="preserve" text-anchor="start" x="377.75" y="-436.5" font-family="Arial" font-size="10.00"> decreases complexity</text>
<!-- unknown.color_palette -->
<g id="node1" class="node">
<title>unknown.color_palette</title>
<path fill="#b8e6b8" stroke="#2c3e50" stroke-width="1.8" d="M57.25,-164C57.25,-164 12,-164 12,-164 6,-164 0,-158 0,-152 0,-152 0,-140 0,-140 0,-134 6,-128 12,-128 12,-128 57.25,-128 57.25,-128 63.25,-128 69.25,-134 69.25,-140 69.25,-140 69.25,-152 69.25,-152 69.25,-158 63.25,-164 57.25,-164"/>
<text xml:space="preserve" text-anchor="middle" x="34.62" y="-142.5" font-family="Arial" font-size="10.00" fill="#1a1a1a">color palette</text>
</g>
<!-- attr_0 -->
<g id="node6" class="node">
<title>attr_0</title>
<path fill="#c7b8e6" stroke="#7f8c8d" stroke-width="1.2" d="M226.5,-294C226.5,-294 124.25,-294 124.25,-294 118.25,-294 112.25,-288 112.25,-282 112.25,-282 112.25,-270 112.25,-270 112.25,-264 118.25,-258 124.25,-258 124.25,-258 226.5,-258 226.5,-258 232.5,-258 238.5,-264 238.5,-270 238.5,-270 238.5,-282 238.5,-282 238.5,-288 232.5,-294 226.5,-294"/>
<text xml:space="preserve" text-anchor="middle" x="175.38" y="-272.5" font-family="Arial" font-size="10.00" fill="#1a1a1a">(+) excessive color count</text>
</g>
<!-- unknown.color_palette&#45;&gt;attr_0 -->
<g id="edge1" class="edge">
<title>unknown.color_palette&#45;&gt;attr_0</title>
<path fill="none" stroke="#aaaaaa" d="M46.65,-164.58C60.03,-185.89 84.3,-220.86 112.25,-244 116.24,-247.3 120.62,-250.39 125.16,-253.24"/>
<polygon fill="#aaaaaa" stroke="#aaaaaa" points="123.81,-255.29 131.08,-256.76 126.31,-251.08 123.81,-255.29"/>
</g>
<!-- attr_1 -->
<g id="node7" class="node">
<title>attr_1</title>
<path fill="#c7b8e6" stroke="#7f8c8d" stroke-width="1.2" d="M216,-229C216,-229 134.75,-229 134.75,-229 128.75,-229 122.75,-223 122.75,-217 122.75,-217 122.75,-205 122.75,-205 122.75,-199 128.75,-193 134.75,-193 134.75,-193 216,-193 216,-193 222,-193 228,-199 228,-205 228,-205 228,-217 228,-217 228,-223 222,-229 216,-229"/>
<text xml:space="preserve" text-anchor="middle" x="175.38" y="-207.5" font-family="Arial" font-size="10.00" fill="#1a1a1a">(+) high color variety</text>
</g>
<!-- unknown.color_palette&#45;&gt;attr_1 -->
<g id="edge2" class="edge">
<title>unknown.color_palette&#45;&gt;attr_1</title>
<path fill="none" stroke="#aaaaaa" d="M69.92,-162.07C87.28,-170.2 108.61,-180.19 127.46,-189.02"/>
<polygon fill="#aaaaaa" stroke="#aaaaaa" points="126.08,-191.08 133.45,-191.83 128.16,-186.64 126.08,-191.08"/>
</g>
<!-- rel_0 -->
<g id="node12" class="node">
<title>rel_0</title>
<path fill="#f5b8b8" stroke="#d46a6a" stroke-width="1.2" d="M192.38,-164C192.38,-164 158.38,-164 158.38,-164 152.38,-164 146.38,-158 146.38,-152 146.38,-152 146.38,-140 146.38,-140 146.38,-134 152.38,-128 158.38,-128 158.38,-128 192.38,-128 192.38,-128 198.38,-128 204.38,-134 204.38,-140 204.38,-140 204.38,-152 204.38,-152 204.38,-158 198.38,-164 192.38,-164"/>
<text xml:space="preserve" text-anchor="middle" x="175.38" y="-142.5" font-family="Arial" font-size="10.00" fill="#8b0000">increases</text>
</g>
<!-- unknown.color_palette&#45;&gt;rel_0 -->
<g id="edge7" class="edge">
<title>unknown.color_palette&#45;&gt;rel_0</title>
<path fill="none" stroke="#d46a6a" stroke-width="1.5" d="M69.92,-146C89.97,-146 115.32,-146 136.02,-146"/>
<polygon fill="#d46a6a" stroke="#d46a6a" stroke-width="1.5" points="135.8,-148.8 143.8,-146 135.8,-143.2 135.8,-148.8"/>
</g>
<!-- rel_2 -->
<g id="node14" class="node">
<title>rel_2</title>
<path fill="#f5b8b8" stroke="#d46a6a" stroke-width="1.2" d="M217.12,-99C217.12,-99 133.62,-99 133.62,-99 127.62,-99 121.62,-93 121.62,-87 121.62,-87 121.62,-75 121.62,-75 121.62,-69 127.62,-63 133.62,-63 133.62,-63 217.12,-63 217.12,-63 223.12,-63 229.12,-69 229.12,-75 229.12,-75 229.12,-87 229.12,-87 229.12,-93 223.12,-99 217.12,-99"/>
<text xml:space="preserve" text-anchor="middle" x="175.38" y="-77.5" font-family="Arial" font-size="10.00" fill="#8b0000">requires expertise for</text>
</g>
<!-- unknown.color_palette&#45;&gt;rel_2 -->
<g id="edge11" class="edge">
<title>unknown.color_palette&#45;&gt;rel_2</title>
<path fill="none" stroke="#d46a6a" stroke-width="1.5" d="M69.92,-129.93C86.74,-122.05 107.29,-112.42 125.71,-103.8"/>
<polygon fill="#d46a6a" stroke="#d46a6a" stroke-width="1.5" points="126.71,-106.42 132.77,-100.49 124.34,-101.35 126.71,-106.42"/>
</g>
<!-- structure.pattern -->
<g id="node2" class="node">
<title>structure.pattern</title>
<path fill="#b8e6b8" stroke="#2c3e50" stroke-width="1.8" d="M49.62,-391C49.62,-391 19.62,-391 19.62,-391 13.62,-391 7.62,-385 7.62,-379 7.62,-379 7.62,-367 7.62,-367 7.62,-361 13.62,-355 19.62,-355 19.62,-355 49.62,-355 49.62,-355 55.62,-355 61.62,-361 61.62,-367 61.62,-367 61.62,-379 61.62,-379 61.62,-385 55.62,-391 49.62,-391"/>
<text xml:space="preserve" text-anchor="middle" x="34.62" y="-369.5" font-family="Arial" font-size="10.00" fill="#1a1a1a">pattern</text>
</g>
<!-- attr_2 -->
<g id="node8" class="node">
<title>attr_2</title>
<path fill="#c7b8e6" stroke="#7f8c8d" stroke-width="1.2" d="M225.75,-424C225.75,-424 125,-424 125,-424 119,-424 113,-418 113,-412 113,-412 113,-400 113,-400 113,-394 119,-388 125,-388 125,-388 225.75,-388 225.75,-388 231.75,-388 237.75,-394 237.75,-400 237.75,-400 237.75,-412 237.75,-412 237.75,-418 231.75,-424 225.75,-424"/>
<text xml:space="preserve" text-anchor="middle" x="175.38" y="-402.5" font-family="Arial" font-size="10.00" fill="#1a1a1a">(+) complex color pattern</text>
</g>
<!-- structure.pattern&#45;&gt;attr_2 -->
<g id="edge3" class="edge">
<title>structure.pattern&#45;&gt;attr_2</title>
<path fill="none" stroke="#aaaaaa" d="M62.38,-379.36C74.58,-382.27 89.66,-385.85 104.75,-389.44"/>
<polygon fill="#aaaaaa" stroke="#aaaaaa" points="103.78,-391.73 111.16,-390.97 104.92,-386.96 103.78,-391.73"/>
</g>
<!-- rel_1 -->
<g id="node13" class="node">
<title>rel_1</title>
<path fill="#f5b8b8" stroke="#d46a6a" stroke-width="1.2" d="M197.62,-359C197.62,-359 153.12,-359 153.12,-359 147.12,-359 141.12,-353 141.12,-347 141.12,-347 141.12,-335 141.12,-335 141.12,-329 147.12,-323 153.12,-323 153.12,-323 197.62,-323 197.62,-323 203.62,-323 209.62,-329 209.62,-335 209.62,-335 209.62,-347 209.62,-347 209.62,-353 203.62,-359 197.62,-359"/>
<text xml:space="preserve" text-anchor="middle" x="175.38" y="-337.5" font-family="Arial" font-size="10.00" fill="#8b0000">overwhelms</text>
</g>
<!-- structure.pattern&#45;&gt;rel_1 -->
<g id="edge9" class="edge">
<title>structure.pattern&#45;&gt;rel_1</title>
<path fill="none" stroke="#d46a6a" stroke-width="1.5" d="M62.38,-366.83C81.7,-362.37 108.23,-356.25 130.62,-351.09"/>
<polygon fill="#d46a6a" stroke="#d46a6a" stroke-width="1.5" points="131.2,-353.83 138.36,-349.31 129.94,-348.37 131.2,-353.83"/>
</g>
<!-- furniture.legend -->
<g id="node3" class="node">
<title>furniture.legend</title>
<path fill="#b8e6b8" stroke="#2c3e50" stroke-width="1.8" d="M331.5,-99C331.5,-99 301.5,-99 301.5,-99 295.5,-99 289.5,-93 289.5,-87 289.5,-87 289.5,-75 289.5,-75 289.5,-69 295.5,-63 301.5,-63 301.5,-63 331.5,-63 331.5,-63 337.5,-63 343.5,-69 343.5,-75 343.5,-75 343.5,-87 343.5,-87 343.5,-93 337.5,-99 331.5,-99"/>
<text xml:space="preserve" text-anchor="middle" x="316.5" y="-77.5" font-family="Arial" font-size="10.00" fill="#1a1a1a">legend</text>
</g>
<!-- attr_4 -->
<g id="node9" class="node">
<title>attr_4</title>
<path fill="#c7b8e6" stroke="#7f8c8d" stroke-width="1.2" d="M503.5,-101C503.5,-101 416.25,-101 416.25,-101 410.25,-101 404.25,-95 404.25,-89 404.25,-89 404.25,-77 404.25,-77 404.25,-71 410.25,-65 416.25,-65 416.25,-65 503.5,-65 503.5,-65 509.5,-65 515.5,-71 515.5,-77 515.5,-77 515.5,-89 515.5,-89 515.5,-95 509.5,-101 503.5,-101"/>
<text xml:space="preserve" text-anchor="middle" x="459.88" y="-79.5" font-family="Arial" font-size="10.00" fill="#1a1a1a">(+) many color entries</text>
</g>
<!-- furniture.legend&#45;&gt;attr_4 -->
<g id="edge4" class="edge">
<title>furniture.legend&#45;&gt;attr_4</title>
<path fill="none" stroke="#aaaaaa" d="M344.09,-81.38C358.66,-81.58 377.38,-81.85 395.47,-82.1"/>
<polygon fill="#aaaaaa" stroke="#aaaaaa" points="395.17,-84.55 402.2,-82.2 395.23,-79.65 395.17,-84.55"/>
</g>
<!-- rel_3 -->
<g id="node15" class="node">
<title>rel_3</title>
<path fill="#f5b8b8" stroke="#d46a6a" stroke-width="1.2" d="M482.12,-36C482.12,-36 437.62,-36 437.62,-36 431.62,-36 425.62,-30 425.62,-24 425.62,-24 425.62,-12 425.62,-12 425.62,-6 431.62,0 437.62,0 437.62,0 482.12,0 482.12,0 488.12,0 494.12,-6 494.12,-12 494.12,-12 494.12,-24 494.12,-24 494.12,-30 488.12,-36 482.12,-36"/>
<text xml:space="preserve" text-anchor="middle" x="459.88" y="-14.5" font-family="Arial" font-size="10.00" fill="#8b0000">encodes via</text>
</g>
<!-- furniture.legend&#45;&gt;rel_3 -->
<g id="edge13" class="edge">
<title>furniture.legend&#45;&gt;rel_3</title>
<path fill="none" stroke="#d46a6a" stroke-width="1.5" d="M344.09,-69.15C364.27,-60.16 392.42,-47.61 415.8,-37.2"/>
<polygon fill="#d46a6a" stroke="#d46a6a" stroke-width="1.5" points="416.92,-39.76 423.08,-33.95 414.64,-34.65 416.92,-39.76"/>
</g>
<!-- unknown.data_area -->
<g id="node4" class="node">
<title>unknown.data_area</title>
<path fill="#b8e6b8" stroke="#2c3e50" stroke-width="1.8" d="M332.75,-359C332.75,-359 300.25,-359 300.25,-359 294.25,-359 288.25,-353 288.25,-347 288.25,-347 288.25,-335 288.25,-335 288.25,-329 294.25,-323 300.25,-323 300.25,-323 332.75,-323 332.75,-323 338.75,-323 344.75,-329 344.75,-335 344.75,-335 344.75,-347 344.75,-347 344.75,-353 338.75,-359 332.75,-359"/>
<text xml:space="preserve" text-anchor="middle" x="316.5" y="-337.5" font-family="Arial" font-size="10.00" fill="#1a1a1a">data area</text>
</g>
<!-- attr_5 -->
<g id="node10" class="node">
<title>attr_5</title>
<path fill="#c7b8e6" stroke="#7f8c8d" stroke-width="1.2" d="M505.75,-359C505.75,-359 414,-359 414,-359 408,-359 402,-353 402,-347 402,-347 402,-335 402,-335 402,-329 408,-323 414,-323 414,-323 505.75,-323 505.75,-323 511.75,-323 517.75,-329 517.75,-335 517.75,-335 517.75,-347 517.75,-347 517.75,-353 511.75,-359 505.75,-359"/>
<text xml:space="preserve" text-anchor="middle" x="459.88" y="-337.5" font-family="Arial" font-size="10.00" fill="#1a1a1a">(+) dense color regions</text>
</g>
<!-- unknown.data_area&#45;&gt;attr_5 -->
<g id="edge5" class="edge">
<title>unknown.data_area&#45;&gt;attr_5</title>
<path fill="none" stroke="#aaaaaa" d="M345.43,-341C359.19,-341 376.42,-341 393.26,-341"/>
<polygon fill="#aaaaaa" stroke="#aaaaaa" points="392.96,-343.45 399.96,-341 392.96,-338.55 392.96,-343.45"/>
</g>
<!-- whole.visualization -->
<g id="node5" class="node">
<title>whole.visualization</title>
<path fill="#b8e6b8" stroke="#2c3e50" stroke-width="1.8" d="M339.5,-165C339.5,-165 293.5,-165 293.5,-165 287.5,-165 281.5,-159 281.5,-153 281.5,-153 281.5,-141 281.5,-141 281.5,-135 287.5,-129 293.5,-129 293.5,-129 339.5,-129 339.5,-129 345.5,-129 351.5,-135 351.5,-141 351.5,-141 351.5,-153 351.5,-153 351.5,-159 345.5,-165 339.5,-165"/>
<text xml:space="preserve" text-anchor="middle" x="316.5" y="-143.5" font-family="Arial" font-size="10.00" fill="#1a1a1a">visualization</text>
</g>
<!-- attr_3 -->
<g id="node11" class="node">
<title>attr_3</title>
<path fill="#c7b8e6" stroke="#7f8c8d" stroke-width="1.2" d="M513.25,-166C513.25,-166 406.5,-166 406.5,-166 400.5,-166 394.5,-160 394.5,-154 394.5,-154 394.5,-142 394.5,-142 394.5,-136 400.5,-130 406.5,-130 406.5,-130 513.25,-130 513.25,-130 519.25,-130 525.25,-136 525.25,-142 525.25,-142 525.25,-154 525.25,-154 525.25,-160 519.25,-166 513.25,-166"/>
<text xml:space="preserve" text-anchor="middle" x="459.88" y="-144.5" font-family="Arial" font-size="10.00" fill="#1a1a1a">(+) overall high complexity</text>
</g>
<!-- whole.visualization&#45;&gt;attr_3 -->
<g id="edge6" class="edge">
<title>whole.visualization&#45;&gt;attr_3</title>
<path fill="none" stroke="#aaaaaa" d="M352.08,-147.24C362.28,-147.32 373.85,-147.4 385.51,-147.48"/>
<polygon fill="#aaaaaa" stroke="#aaaaaa" points="385.47,-149.93 392.49,-147.53 385.5,-145.03 385.47,-149.93"/>
</g>
<!-- rel_0&#45;&gt;whole.visualization -->
<g id="edge8" class="edge">
<title>rel_0&#45;&gt;whole.visualization</title>
<path fill="none" stroke="#d46a6a" stroke-width="1.5" d="M204.86,-146.2C223.72,-146.34 248.85,-146.52 270.39,-146.68"/>
<polygon fill="#d46a6a" stroke="#d46a6a" stroke-width="1.5" points="270.35,-149.48 278.37,-146.73 270.39,-143.88 270.35,-149.48"/>
</g>
<!-- rel_1&#45;&gt;unknown.data_area -->
<g id="edge10" class="edge">
<title>rel_1&#45;&gt;unknown.data_area</title>
<path fill="none" stroke="#d46a6a" stroke-width="1.5" d="M210.05,-341C230.42,-341 256.43,-341 277.52,-341"/>
<polygon fill="#d46a6a" stroke="#d46a6a" stroke-width="1.5" points="277.47,-343.8 285.47,-341 277.47,-338.2 277.47,-343.8"/>
</g>
<!-- rel_2&#45;&gt;furniture.legend -->
<g id="edge12" class="edge">
<title>rel_2&#45;&gt;furniture.legend</title>
<path fill="none" stroke="#d46a6a" stroke-width="1.5" d="M229.37,-81C245.84,-81 263.63,-81 278.74,-81"/>
<polygon fill="#d46a6a" stroke="#d46a6a" stroke-width="1.5" points="278.45,-83.8 286.45,-81 278.45,-78.2 278.45,-83.8"/>
</g>
<!-- rel_3&#45;&gt;unknown.color_palette -->
<g id="edge14" class="edge">
<title>rel_3&#45;&gt;unknown.color_palette</title>
<path fill="none" stroke="#d46a6a" stroke-width="1.5" d="M425.1,-12.5C360.08,-3.63 214.87,7.63 112.25,-48 83.38,-63.65 61.77,-95.28 48.99,-118.39"/>
<polygon fill="#d46a6a" stroke="#d46a6a" stroke-width="1.5" points="46.55,-117.01 45.27,-125.39 51.5,-119.63 46.55,-117.01"/>
</g>
</g>
</svg>
