<?xml version="1.0" encoding="UTF-8" standalone="no"?>
<!DOCTYPE svg PUBLIC "-//W3C//DTD SVG 1.1//EN"
 "http://www.w3.org/Graphics/SVG/1.1/DTD/svg11.dtd">
<!-- Generated by graphviz version 14.1.5 (20260411.2331)
 -->
<!-- Title: InfoVisJ.647.8(2).png Pages: 1 -->
<svg width="532pt" height="439pt"
 viewBox="0.00 0.00 532.00 439.00" xmlns="http://www.w3.org/2000/svg" xmlns:xlink="http://www.w3.org/1999/xlink">
<g id="graph0" class="graph" transform="scale(1 1) rotate(0) translate(4 435.25)">
<title>InfoVisJ.647.8(2).png</title>
<polygon fill="white" stroke="none" points="-4,4 -4,-435.25 528.25,-435.25 528.25,4 -4,4"/>
<text xml:space="preserve" text-anchor="start" x="194.62" y="-410.95" font-family="Arial" font-weight="bold" font-size="14.00">InfoVisJ.647.8(2).png</text>
<text xml:space="preserve" text-anchor="start" x="220.12" y="-391" font-family="Arial" font-size="11.00">Text &#160;| &#160;VC = 0.42</text>
<path fill="#b8e6b8" stroke="none" d="M52.75,-366C52.75,-366 60.75,-366 60.75,-366 63.75,-366 66.75,-369 66.75,-372 66.75,-372 66.75,-378 66.75,-378 66.75,-381 63.75,-384 60.75,-384 60.75,-384 52.75,-384 52.75,-384 49.75,-384 46.75,-381 46.75,-378 46.75,-378 46.75,-372 46.75,-372 46.75,-369 49.75,-366 52.75,-366"/>
<path fill="none" stroke="black" d="M52.75,-366C52.75,-366 60.75,-366 60.75,-366 63.75,-366 66.75,-369 66.75,-372 66.75,-372 66.75,-378 66.75,-378 66.75,-381 63.75,-384 60.75,-384 60.75,-384 52.75,-384 52.75,-384 49.75,-384 46.75,-381 46.75,-378 46.75,-378 46.75,-372 46.75,-372 46.75,-369 49.75,-366 52.75,-366"/>
<text xml:space="preserve" text-anchor="start" x="55.25" y="-371.25" font-family="Arial" font-size="10.00"> </text>
<text xml:space="preserve" text-anchor="start" x="70.75" y="-371.25" font-family="Arial" font-size="10.00">Object</text>
<path fill="#c7b8e6" stroke="none" d="M109.25,-366C109.25,-366 117.25,-366 117.25,-366 120.25,-366 123.25,-369 123.25,-372 123.25,-372 123.25,-378 123.25,-378 123.25,-381 120.25,-384 117.25,-384 117.25,-384 109.25,-384 109.25,-384 106.25,-384 103.25,-381 103.25,-378 103.25,-378 103.25,-372 103.25,-372 103.25,-369 106.25,-366 109.25,-366"/>
<path fill="none" stroke="black" d="M109.25,-366C109.25,-366 117.25,-366 117.25,-366 120.25,-366 123.25,-369 123.25,-372 123.25,-372 123.25,-378 123.25,-378 123.25,-381 120.25,-384 117.25,-384 117.25,-384 109.25,-384 109.25,-384 106.25,-384 103.25,-381 103.25,-378 103.25,-378 103.25,-372 103.25,-372 103.25,-369 106.25,-366 109.25,-366"/>
<text xml:space="preserve" text-anchor="start" x="111.75" y="-371.25" font-family="Arial" font-size="10.00"> </text>
<text xml:space="preserve" text-anchor="start" x="127.25" y="-371.25" font-family="Arial" font-size="10.00">Attribute</text>
<path fill="#f5b8b8" stroke="none" d="M174,-366C174,-366 182,-366 182,-366 185,-366 188,-369 188,-372 188,-372 188,-378 188,-378 188,-381 185,-384 182,-384 182,-384 174,-384 174,-384 171,-384 168,-381 168,-378 168,-378 168,-372 168,-372 168,-369 171,-366 174,-366"/>
<path fill="none" stroke="black" d="M174,-366C174,-366 182,-366 182,-366 185,-366 188,-369 188,-372 188,-372 188,-378 188,-378 188,-381 185,-384 182,-384 182,-384 174,-384 174,-384 171,-384 168,-381 168,-378 168,-378 168,-372 168,-372 168,-369 171,-366 174,-366"/>
<text xml:space="preserve" text-anchor="start" x="176.5" y="-371.25" font-family="Arial" font-size="10.00"> </text>
<text xml:space="preserve" text-anchor="start" x="192" y="-371.25" font-family="Arial" font-size="10.00">Relationship</text>
<text xml:space="preserve" text-anchor="start" x="252" y="-372.5" font-family="Arial" font-weight="bold" font-size="10.00">(+)</text>
<text xml:space="preserve" text-anchor="start" x="264" y="-372.5" font-family="Arial" font-size="10.00"> increases complexity</text>
<text xml:space="preserve" text-anchor="start" x="365.25" y="-372.5" font-family="Arial" font-weight="bold" font-size="10.00">(−)</text>
<text xml:space="preserve" text-anchor="start" x="377.25" y="-372.5" font-family="Arial" font-size="10.00"> decreases complexity</text>
<!-- whole.visualization -->
<g id="node1" class="node">
<title>whole.visualization</title>
<path fill="#b8e6b8" stroke="#2c3e50" stroke-width="1.8" d="M46.62,-132C46.62,-132 16.62,-132 16.62,-132 10.62,-132 4.62,-126 4.62,-120 4.62,-120 4.62,-108 4.62,-108 4.62,-102 10.62,-96 16.62,-96 16.62,-96 46.62,-96 46.62,-96 52.62,-96 58.62,-102 58.62,-108 58.62,-108 58.62,-120 58.62,-120 58.62,-126 52.62,-132 46.62,-132"/>
<text xml:space="preserve" text-anchor="middle" x="31.62" y="-110.5" font-family="Arial" font-size="10.00" fill="#1a1a1a">image</text>
</g>
<!-- attr_0 -->
<g id="node6" class="node">
<title>attr_0</title>
<path fill="#c7b8e6" stroke="#7f8c8d" stroke-width="1.2" d="M208.5,-230C208.5,-230 130.25,-230 130.25,-230 124.25,-230 118.25,-224 118.25,-218 118.25,-218 118.25,-206 118.25,-206 118.25,-200 124.25,-194 130.25,-194 130.25,-194 208.5,-194 208.5,-194 214.5,-194 220.5,-200 220.5,-206 220.5,-206 220.5,-218 220.5,-218 220.5,-224 214.5,-230 208.5,-230"/>
<text xml:space="preserve" text-anchor="middle" x="169.38" y="-208.5" font-family="Arial" font-size="10.00" fill="#1a1a1a">(+) large image size</text>
</g>
<!-- whole.visualization&#45;&gt;attr_0 -->
<g id="edge1" class="edge">
<title>whole.visualization&#45;&gt;attr_0</title>
<path fill="none" stroke="#aaaaaa" d="M51.28,-132.7C65.58,-146.46 86.21,-165.12 106.25,-179 111.47,-182.62 117.14,-186.13 122.85,-189.43"/>
<polygon fill="#aaaaaa" stroke="#aaaaaa" points="121.46,-191.45 128.77,-192.74 123.86,-187.18 121.46,-191.45"/>
</g>
<!-- rel_0 -->
<g id="node11" class="node">
<title>rel_0</title>
<path fill="#f5b8b8" stroke="#d46a6a" stroke-width="1.2" d="M184.38,-100C184.38,-100 154.38,-100 154.38,-100 148.38,-100 142.38,-94 142.38,-88 142.38,-88 142.38,-76 142.38,-76 142.38,-70 148.38,-64 154.38,-64 154.38,-64 184.38,-64 184.38,-64 190.38,-64 196.38,-70 196.38,-76 196.38,-76 196.38,-88 196.38,-88 196.38,-94 190.38,-100 184.38,-100"/>
<text xml:space="preserve" text-anchor="middle" x="169.38" y="-78.5" font-family="Arial" font-size="10.00" fill="#8b0000">contains</text>
</g>
<!-- whole.visualization&#45;&gt;rel_0 -->
<g id="edge6" class="edge">
<title>whole.visualization&#45;&gt;rel_0</title>
<path fill="none" stroke="#d46a6a" stroke-width="1.5" d="M59.44,-107.68C80.31,-102.76 109.47,-95.89 132.37,-90.49"/>
<polygon fill="#d46a6a" stroke="#d46a6a" stroke-width="1.5" points="132.72,-93.28 139.86,-88.72 131.43,-87.83 132.72,-93.28"/>
</g>
<!-- rel_3 -->
<g id="node14" class="node">
<title>rel_3</title>
<path fill="#f5b8b8" stroke="#d46a6a" stroke-width="1.2" d="M212.62,-165C212.62,-165 126.12,-165 126.12,-165 120.12,-165 114.12,-159 114.12,-153 114.12,-153 114.12,-141 114.12,-141 114.12,-135 120.12,-129 126.12,-129 126.12,-129 212.62,-129 212.62,-129 218.62,-129 224.62,-135 224.62,-141 224.62,-141 224.62,-153 224.62,-153 224.62,-159 218.62,-165 212.62,-165"/>
<text xml:space="preserve" text-anchor="middle" x="169.38" y="-143.5" font-family="Arial" font-size="10.00" fill="#8b0000">overwhelms with size</text>
</g>
<!-- whole.visualization&#45;&gt;rel_3 -->
<g id="edge12" class="edge">
<title>whole.visualization&#45;&gt;rel_3</title>
<path fill="none" stroke="#d46a6a" stroke-width="1.5" d="M59.44,-120.52C72.24,-123.63 88.16,-127.5 103.84,-131.31"/>
<polygon fill="#d46a6a" stroke="#d46a6a" stroke-width="1.5" points="102.9,-133.96 111.33,-133.13 104.22,-128.52 102.9,-133.96"/>
</g>
<!-- text.label -->
<g id="node2" class="node">
<title>text.label</title>
<path fill="#b8e6b8" stroke="#2c3e50" stroke-width="1.8" d="M317.5,-295C317.5,-295 287.5,-295 287.5,-295 281.5,-295 275.5,-289 275.5,-283 275.5,-283 275.5,-271 275.5,-271 275.5,-265 281.5,-259 287.5,-259 287.5,-259 317.5,-259 317.5,-259 323.5,-259 329.5,-265 329.5,-271 329.5,-271 329.5,-283 329.5,-283 329.5,-289 323.5,-295 317.5,-295"/>
<text xml:space="preserve" text-anchor="middle" x="302.5" y="-273.5" font-family="Arial" font-size="10.00" fill="#1a1a1a">text</text>
</g>
<!-- attr_3 -->
<g id="node7" class="node">
<title>attr_3</title>
<path fill="#c7b8e6" stroke="#7f8c8d" stroke-width="1.2" d="M493.12,-295C493.12,-295 403.62,-295 403.62,-295 397.62,-295 391.62,-289 391.62,-283 391.62,-283 391.62,-271 391.62,-271 391.62,-265 397.62,-259 403.62,-259 403.62,-259 493.12,-259 493.12,-259 499.12,-259 505.12,-265 505.12,-271 505.12,-271 505.12,-283 505.12,-283 505.12,-289 499.12,-295 493.12,-295"/>
<text xml:space="preserve" text-anchor="middle" x="448.38" y="-273.5" font-family="Arial" font-size="10.00" fill="#1a1a1a">(+) small readable text</text>
</g>
<!-- text.label&#45;&gt;attr_3 -->
<g id="edge2" class="edge">
<title>text.label&#45;&gt;attr_3</title>
<path fill="none" stroke="#aaaaaa" d="M330.22,-277C345.09,-277 364.3,-277 382.84,-277"/>
<polygon fill="#aaaaaa" stroke="#aaaaaa" points="382.78,-279.45 389.78,-277 382.78,-274.55 382.78,-279.45"/>
</g>
<!-- unknown.shapes -->
<g id="node3" class="node">
<title>unknown.shapes</title>
<path fill="#b8e6b8" stroke="#2c3e50" stroke-width="1.8" d="M317.5,-100C317.5,-100 287.5,-100 287.5,-100 281.5,-100 275.5,-94 275.5,-88 275.5,-88 275.5,-76 275.5,-76 275.5,-70 281.5,-64 287.5,-64 287.5,-64 317.5,-64 317.5,-64 323.5,-64 329.5,-70 329.5,-76 329.5,-76 329.5,-88 329.5,-88 329.5,-94 323.5,-100 317.5,-100"/>
<text xml:space="preserve" text-anchor="middle" x="302.5" y="-78.5" font-family="Arial" font-size="10.00" fill="#1a1a1a">shapes</text>
</g>
<!-- attr_1 -->
<g id="node8" class="node">
<title>attr_1</title>
<path fill="#c7b8e6" stroke="#7f8c8d" stroke-width="1.2" d="M508.12,-101C508.12,-101 388.62,-101 388.62,-101 382.62,-101 376.62,-95 376.62,-89 376.62,-89 376.62,-77 376.62,-77 376.62,-71 382.62,-65 388.62,-65 388.62,-65 508.12,-65 508.12,-65 514.12,-65 520.12,-71 520.12,-77 520.12,-77 520.12,-89 520.12,-89 520.12,-95 514.12,-101 508.12,-101"/>
<text xml:space="preserve" text-anchor="middle" x="448.38" y="-79.5" font-family="Arial" font-size="10.00" fill="#1a1a1a">(+) numerous shapes present</text>
</g>
<!-- unknown.shapes&#45;&gt;attr_1 -->
<g id="edge3" class="edge">
<title>unknown.shapes&#45;&gt;attr_1</title>
<path fill="none" stroke="#aaaaaa" d="M330.22,-82.19C341.06,-82.26 354.2,-82.35 367.7,-82.45"/>
<polygon fill="#aaaaaa" stroke="#aaaaaa" points="367.61,-84.9 374.62,-82.49 367.64,-80 367.61,-84.9"/>
</g>
<!-- rel_1 -->
<g id="node12" class="node">
<title>rel_1</title>
<path fill="#f5b8b8" stroke="#d46a6a" stroke-width="1.2" d="M504.75,-36C504.75,-36 392,-36 392,-36 386,-36 380,-30 380,-24 380,-24 380,-12 380,-12 380,-6 386,0 392,0 392,0 504.75,0 504.75,0 510.75,0 516.75,-6 516.75,-12 516.75,-12 516.75,-24 516.75,-24 516.75,-30 510.75,-36 504.75,-36"/>
<text xml:space="preserve" text-anchor="middle" x="448.38" y="-14.5" font-family="Arial" font-size="10.00" fill="#8b0000">increases visual complexity</text>
</g>
<!-- unknown.shapes&#45;&gt;rel_1 -->
<g id="edge8" class="edge">
<title>unknown.shapes&#45;&gt;rel_1</title>
<path fill="none" stroke="#d46a6a" stroke-width="1.5" d="M330.28,-69.35C343.03,-63.39 358.51,-56.23 372.5,-50 379.49,-46.89 386.87,-43.66 394.17,-40.5"/>
<polygon fill="#d46a6a" stroke="#d46a6a" stroke-width="1.5" points="395,-43.19 401.25,-37.46 392.79,-38.05 395,-43.19"/>
</g>
<!-- unknown.fine_details -->
<g id="node4" class="node">
<title>unknown.fine_details</title>
<path fill="#b8e6b8" stroke="#2c3e50" stroke-width="1.8" d="M51.25,-327C51.25,-327 12,-327 12,-327 6,-327 0,-321 0,-315 0,-315 0,-303 0,-303 0,-297 6,-291 12,-291 12,-291 51.25,-291 51.25,-291 57.25,-291 63.25,-297 63.25,-303 63.25,-303 63.25,-315 63.25,-315 63.25,-321 57.25,-327 51.25,-327"/>
<text xml:space="preserve" text-anchor="middle" x="31.62" y="-305.5" font-family="Arial" font-size="10.00" fill="#1a1a1a">fine details</text>
</g>
<!-- attr_2 -->
<g id="node9" class="node">
<title>attr_2</title>
<path fill="#c7b8e6" stroke="#7f8c8d" stroke-width="1.2" d="M213.75,-360C213.75,-360 125,-360 125,-360 119,-360 113,-354 113,-348 113,-348 113,-336 113,-336 113,-330 119,-324 125,-324 125,-324 213.75,-324 213.75,-324 219.75,-324 225.75,-330 225.75,-336 225.75,-336 225.75,-348 225.75,-348 225.75,-354 219.75,-360 213.75,-360"/>
<text xml:space="preserve" text-anchor="middle" x="169.38" y="-338.5" font-family="Arial" font-size="10.00" fill="#1a1a1a">(+) fine layered details</text>
</g>
<!-- unknown.fine_details&#45;&gt;attr_2 -->
<g id="edge4" class="edge">
<title>unknown.fine_details&#45;&gt;attr_2</title>
<path fill="none" stroke="#aaaaaa" d="M64.11,-316.65C76.16,-319.58 90.38,-323.04 104.37,-326.44"/>
<polygon fill="#aaaaaa" stroke="#aaaaaa" points="103.72,-328.8 111.1,-328.08 104.88,-324.04 103.72,-328.8"/>
</g>
<!-- rel_2 -->
<g id="node13" class="node">
<title>rel_2</title>
<path fill="#f5b8b8" stroke="#d46a6a" stroke-width="1.2" d="M220.5,-295C220.5,-295 118.25,-295 118.25,-295 112.25,-295 106.25,-289 106.25,-283 106.25,-283 106.25,-271 106.25,-271 106.25,-265 112.25,-259 118.25,-259 118.25,-259 220.5,-259 220.5,-259 226.5,-259 232.5,-265 232.5,-271 232.5,-271 232.5,-283 232.5,-283 232.5,-289 226.5,-295 220.5,-295"/>
<text xml:space="preserve" text-anchor="middle" x="169.38" y="-273.5" font-family="Arial" font-size="10.00" fill="#8b0000">requires effort to perceive</text>
</g>
<!-- unknown.fine_details&#45;&gt;rel_2 -->
<g id="edge10" class="edge">
<title>unknown.fine_details&#45;&gt;rel_2</title>
<path fill="none" stroke="#d46a6a" stroke-width="1.5" d="M64.11,-301.58C73.74,-299.31 84.76,-296.71 95.95,-294.07"/>
<polygon fill="#d46a6a" stroke="#d46a6a" stroke-width="1.5" points="96.44,-296.83 103.58,-292.27 95.15,-291.38 96.44,-296.83"/>
</g>
<!-- structure.layout -->
<g id="node5" class="node">
<title>structure.layout</title>
<path fill="#b8e6b8" stroke="#2c3e50" stroke-width="1.8" d="M317.5,-166C317.5,-166 287.5,-166 287.5,-166 281.5,-166 275.5,-160 275.5,-154 275.5,-154 275.5,-142 275.5,-142 275.5,-136 281.5,-130 287.5,-130 287.5,-130 317.5,-130 317.5,-130 323.5,-130 329.5,-136 329.5,-142 329.5,-142 329.5,-154 329.5,-154 329.5,-160 323.5,-166 317.5,-166"/>
<text xml:space="preserve" text-anchor="middle" x="302.5" y="-144.5" font-family="Arial" font-size="10.00" fill="#1a1a1a">layout</text>
</g>
<!-- attr_4 -->
<g id="node10" class="node">
<title>attr_4</title>
<path fill="#c7b8e6" stroke="#7f8c8d" stroke-width="1.2" d="M512.25,-166C512.25,-166 384.5,-166 384.5,-166 378.5,-166 372.5,-160 372.5,-154 372.5,-154 372.5,-142 372.5,-142 372.5,-136 378.5,-130 384.5,-130 384.5,-130 512.25,-130 512.25,-130 518.25,-130 524.25,-136 524.25,-142 524.25,-142 524.25,-154 524.25,-154 524.25,-160 518.25,-166 512.25,-166"/>
<text xml:space="preserve" text-anchor="middle" x="448.38" y="-144.5" font-family="Arial" font-size="10.00" fill="#1a1a1a">(+) dense element arrangement</text>
</g>
<!-- structure.layout&#45;&gt;attr_4 -->
<g id="edge5" class="edge">
<title>structure.layout&#45;&gt;attr_4</title>
<path fill="none" stroke="#aaaaaa" d="M330.22,-148C340,-148 351.64,-148 363.74,-148"/>
<polygon fill="#aaaaaa" stroke="#aaaaaa" points="363.65,-150.45 370.65,-148 363.65,-145.55 363.65,-150.45"/>
</g>
<!-- rel_0&#45;&gt;unknown.shapes -->
<g id="edge7" class="edge">
<title>rel_0&#45;&gt;unknown.shapes</title>
<path fill="none" stroke="#d46a6a" stroke-width="1.5" d="M196.91,-82C216.46,-82 243.29,-82 264.88,-82"/>
<polygon fill="#d46a6a" stroke="#d46a6a" stroke-width="1.5" points="264.73,-84.8 272.73,-82 264.73,-79.2 264.73,-84.8"/>
</g>
<!-- rel_1&#45;&gt;whole.visualization -->
<g id="edge9" class="edge">
<title>rel_1&#45;&gt;whole.visualization</title>
<path fill="none" stroke="#d46a6a" stroke-width="1.5" d="M379.61,-12.08C308.52,-8.57 194.99,-10.75 106.25,-49 86.3,-57.6 67.97,-73.74 54.59,-87.78"/>
<polygon fill="#d46a6a" stroke="#d46a6a" stroke-width="1.5" points="52.57,-85.85 49.22,-93.64 56.7,-89.63 52.57,-85.85"/>
</g>
<!-- rel_2&#45;&gt;text.label -->
<g id="edge11" class="edge">
<title>rel_2&#45;&gt;text.label</title>
<path fill="none" stroke="#d46a6a" stroke-width="1.5" d="M232.87,-277C243.72,-277 254.68,-277 264.56,-277"/>
<polygon fill="#d46a6a" stroke="#d46a6a" stroke-width="1.5" points="264.54,-279.8 272.54,-277 264.54,-274.2 264.54,-279.8"/>
</g>
<!-- rel_3&#45;&gt;structure.layout -->
<g id="edge13" class="edge">
<title>rel_3&#45;&gt;structure.layout</title>
<path fill="none" stroke="#d46a6a" stroke-width="1.5" d="M225.22,-147.42C238.47,-147.52 252.31,-147.62 264.51,-147.72"/>
<polygon fill="#d46a6a" stroke="#d46a6a" stroke-width="1.5" points="264.47,-150.52 272.49,-147.78 264.51,-144.92 264.47,-150.52"/>
</g>
</g>
</svg>
