<?xml version="1.0" encoding="UTF-8" standalone="no"?>
<!DOCTYPE svg PUBLIC "-//W3C//DTD SVG 1.1//EN"
 "http://www.w3.org/Graphics/SVG/1.1/DTD/svg11.dtd">
<!-- Generated by graphviz version 14.1.5 (20260411.2331)
 -->
<!-- Title: InfoVisJ.924.5.png Pages: 1 -->
<svg width="516pt" height="570pt"
 viewBox="0.00 0.00 516.00 570.00" xmlns="http://www.w3.org/2000/svg" xmlns:xlink="http://www.w3.org/1999/xlink">
<g id="graph0" class="graph" transform="scale(1 1) rotate(0) translate(4 566.25)">
<title>InfoVisJ.924.5.png</title>
<polygon fill="white" stroke="none" points="-4,4 -4,-566.25 511.75,-566.25 511.75,4 -4,4"/>
<text xml:space="preserve" text-anchor="start" x="194.62" y="-541.95" font-family="Arial" font-weight="bold" font-size="14.00">InfoVisJ.924.5.png</text>
<text xml:space="preserve" text-anchor="start" x="213" y="-522" font-family="Arial" font-size="11.00">Bar &#160;| &#160;VC = 0.42</text>
<path fill="#b8e6b8" stroke="none" d="M44.5,-497C44.5,-497 52.5,-497 52.5,-497 55.5,-497 58.5,-500 58.5,-503 58.5,-503 58.5,-509 58.5,-509 58.5,-512 55.5,-515 52.5,-515 52.5,-515 44.5,-515 44.5,-515 41.5,-515 38.5,-512 38.5,-509 38.5,-509 38.5,-503 38.5,-503 38.5,-500 41.5,-497 44.5,-497"/>
<path fill="none" stroke="black" d="M44.5,-497C44.5,-497 52.5,-497 52.5,-497 55.5,-497 58.5,-500 58.5,-503 58.5,-503 58.5,-509 58.5,-509 58.5,-512 55.5,-515 52.5,-515 52.5,-515 44.5,-515 44.5,-515 41.5,-515 38.5,-512 38.5,-509 38.5,-509 38.5,-503 38.5,-503 38.5,-500 41.5,-497 44.5,-497"/>
<text xml:space="preserve" text-anchor="start" x="47" y="-502.25" font-family="Arial" font-size="10.00"> </text>
<text xml:space="preserve" text-anchor="start" x="62.5" y="-502.25" font-family="Arial" font-size="10.00">Object</text>
<path fill="#c7b8e6" stroke="none" d="M101,-497C101,-497 109,-497 109,-497 112,-497 115,-500 115,-503 115,-503 115,-509 115,-509 115,-512 112,-515 109,-515 109,-515 101,-515 101,-515 98,-515 95,-512 95,-509 95,-509 95,-503 95,-503 95,-500 98,-497 101,-497"/>
<path fill="none" stroke="black" d="M101,-497C101,-497 109,-497 109,-497 112,-497 115,-500 115,-503 115,-503 115,-509 115,-509 115,-512 112,-515 109,-515 109,-515 101,-515 101,-515 98,-515 95,-512 95,-509 95,-509 95,-503 95,-503 95,-500 98,-497 101,-497"/>
<text xml:space="preserve" text-anchor="start" x="103.5" y="-502.25" font-family="Arial" font-size="10.00"> </text>
<text xml:space="preserve" text-anchor="start" x="119" y="-502.25" font-family="Arial" font-size="10.00">Attribute</text>
<path fill="#f5b8b8" stroke="none" d="M165.75,-497C165.75,-497 173.75,-497 173.75,-497 176.75,-497 179.75,-500 179.75,-503 179.75,-503 179.75,-509 179.75,-509 179.75,-512 176.75,-515 173.75,-515 173.75,-515 165.75,-515 165.75,-515 162.75,-515 159.75,-512 159.75,-509 159.75,-509 159.75,-503 159.75,-503 159.75,-500 162.75,-497 165.75,-497"/>
<path fill="none" stroke="black" d="M165.75,-497C165.75,-497 173.75,-497 173.75,-497 176.75,-497 179.75,-500 179.75,-503 179.75,-503 179.75,-509 179.75,-509 179.75,-512 176.75,-515 173.75,-515 173.75,-515 165.75,-515 165.75,-515 162.75,-515 159.75,-512 159.75,-509 159.75,-509 159.75,-503 159.75,-503 159.75,-500 162.75,-497 165.75,-497"/>
<text xml:space="preserve" text-anchor="start" x="168.25" y="-502.25" font-family="Arial" font-size="10.00"> </text>
<text xml:space="preserve" text-anchor="start" x="183.75" y="-502.25" font-family="Arial" font-size="10.00">Relationship</text>
<text xml:space="preserve" text-anchor="start" x="243.75" y="-503.5" font-family="Arial" font-weight="bold" font-size="10.00">(+)</text>
<text xml:space="preserve" text-anchor="start" x="255.75" y="-503.5" font-family="Arial" font-size="10.00"> increases complexity</text>
<text xml:space="preserve" text-anchor="start" x="357" y="-503.5" font-family="Arial" font-weight="bold" font-size="10.00">(−)</text>
<text xml:space="preserve" text-anchor="start" x="369" y="-503.5" font-family="Arial" font-size="10.00"> decreases complexity</text>
<!-- mark.bar -->
<g id="node1" class="node">
<title>mark.bar</title>
<path fill="#b8e6b8" stroke="#2c3e50" stroke-width="1.8" d="M319,-231C319,-231 289,-231 289,-231 283,-231 277,-225 277,-219 277,-219 277,-207 277,-207 277,-201 283,-195 289,-195 289,-195 319,-195 319,-195 325,-195 331,-201 331,-207 331,-207 331,-219 331,-219 331,-225 325,-231 319,-231"/>
<text xml:space="preserve" text-anchor="middle" x="304" y="-209.5" font-family="Arial" font-size="10.00" fill="#1a1a1a">bar</text>
</g>
<!-- attr_3 -->
<g id="node6" class="node">
<title>attr_3</title>
<path fill="#c7b8e6" stroke="#7f8c8d" stroke-width="1.2" d="M495.75,-231C495.75,-231 386,-231 386,-231 380,-231 374,-225 374,-219 374,-219 374,-207 374,-207 374,-201 380,-195 386,-195 386,-195 495.75,-195 495.75,-195 501.75,-195 507.75,-201 507.75,-207 507.75,-207 507.75,-219 507.75,-219 507.75,-225 501.75,-231 495.75,-231"/>
<text xml:space="preserve" text-anchor="middle" x="440.88" y="-209.5" font-family="Arial" font-size="10.00" fill="#1a1a1a">(−) story conveying visuals</text>
</g>
<!-- mark.bar&#45;&gt;attr_3 -->
<g id="edge1" class="edge">
<title>mark.bar&#45;&gt;attr_3</title>
<path fill="none" stroke="#aaaaaa" d="M331.65,-213C341.5,-213 353.22,-213 365.25,-213"/>
<polygon fill="#aaaaaa" stroke="#aaaaaa" points="365.09,-215.45 372.09,-213 365.09,-210.55 365.09,-215.45"/>
</g>
<!-- text.axis_label -->
<g id="node2" class="node">
<title>text.axis_label</title>
<path fill="#b8e6b8" stroke="#2c3e50" stroke-width="1.8" d="M48.25,-458C48.25,-458 15,-458 15,-458 9,-458 3,-452 3,-446 3,-446 3,-434 3,-434 3,-428 9,-422 15,-422 15,-422 48.25,-422 48.25,-422 54.25,-422 60.25,-428 60.25,-434 60.25,-434 60.25,-446 60.25,-446 60.25,-452 54.25,-458 48.25,-458"/>
<text xml:space="preserve" text-anchor="middle" x="31.62" y="-436.5" font-family="Arial" font-size="10.00" fill="#1a1a1a">axis label</text>
</g>
<!-- attr_0 -->
<g id="node7" class="node">
<title>attr_0</title>
<path fill="#c7b8e6" stroke="#7f8c8d" stroke-width="1.2" d="M222,-491C222,-491 118.25,-491 118.25,-491 112.25,-491 106.25,-485 106.25,-479 106.25,-479 106.25,-467 106.25,-467 106.25,-461 112.25,-455 118.25,-455 118.25,-455 222,-455 222,-455 228,-455 234,-461 234,-467 234,-467 234,-479 234,-479 234,-485 228,-491 222,-491"/>
<text xml:space="preserve" text-anchor="middle" x="170.12" y="-469.5" font-family="Arial" font-size="10.00" fill="#1a1a1a">(−) clearly readable labels</text>
</g>
<!-- text.axis_label&#45;&gt;attr_0 -->
<g id="edge2" class="edge">
<title>text.axis_label&#45;&gt;attr_0</title>
<path fill="none" stroke="#aaaaaa" d="M60.91,-446.84C71.71,-449.45 84.57,-452.56 97.59,-455.71"/>
<polygon fill="#aaaaaa" stroke="#aaaaaa" points="96.85,-458.05 104.23,-457.31 98,-453.28 96.85,-458.05"/>
</g>
<!-- rel_0 -->
<g id="node11" class="node">
<title>rel_0</title>
<path fill="#f5b8b8" stroke="#d46a6a" stroke-width="1.2" d="M220.12,-426C220.12,-426 120.12,-426 120.12,-426 114.12,-426 108.12,-420 108.12,-414 108.12,-414 108.12,-402 108.12,-402 108.12,-396 114.12,-390 120.12,-390 120.12,-390 220.12,-390 220.12,-390 226.12,-390 232.12,-396 232.12,-402 232.12,-402 232.12,-414 232.12,-414 232.12,-420 226.12,-426 220.12,-426"/>
<text xml:space="preserve" text-anchor="middle" x="170.12" y="-404.5" font-family="Arial" font-size="10.00" fill="#8b0000">supports interpretation of</text>
</g>
<!-- text.axis_label&#45;&gt;rel_0 -->
<g id="edge6" class="edge">
<title>text.axis_label&#45;&gt;rel_0</title>
<path fill="none" stroke="#d46a6a" stroke-width="1.5" d="M60.91,-433.37C71.74,-430.83 84.64,-427.81 97.69,-424.75"/>
<polygon fill="#d46a6a" stroke="#d46a6a" stroke-width="1.5" points="98.31,-427.48 105.46,-422.92 97.03,-422.02 98.31,-427.48"/>
</g>
<!-- furniture.legend -->
<g id="node3" class="node">
<title>furniture.legend</title>
<path fill="#b8e6b8" stroke="#2c3e50" stroke-width="1.8" d="M46.62,-329C46.62,-329 16.62,-329 16.62,-329 10.62,-329 4.62,-323 4.62,-317 4.62,-317 4.62,-305 4.62,-305 4.62,-299 10.62,-293 16.62,-293 16.62,-293 46.62,-293 46.62,-293 52.62,-293 58.62,-299 58.62,-305 58.62,-305 58.62,-317 58.62,-317 58.62,-323 52.62,-329 46.62,-329"/>
<text xml:space="preserve" text-anchor="middle" x="31.62" y="-307.5" font-family="Arial" font-size="10.00" fill="#1a1a1a">legend</text>
</g>
<!-- attr_1 -->
<g id="node8" class="node">
<title>attr_1</title>
<path fill="#c7b8e6" stroke="#7f8c8d" stroke-width="1.2" d="M215.25,-361C215.25,-361 125,-361 125,-361 119,-361 113,-355 113,-349 113,-349 113,-337 113,-337 113,-331 119,-325 125,-325 125,-325 215.25,-325 215.25,-325 221.25,-325 227.25,-331 227.25,-337 227.25,-337 227.25,-349 227.25,-349 227.25,-355 221.25,-361 215.25,-361"/>
<text xml:space="preserve" text-anchor="middle" x="170.12" y="-339.5" font-family="Arial" font-size="10.00" fill="#1a1a1a">(−) easy to understand</text>
</g>
<!-- furniture.legend&#45;&gt;attr_1 -->
<g id="edge3" class="edge">
<title>furniture.legend&#45;&gt;attr_1</title>
<path fill="none" stroke="#aaaaaa" d="M59.27,-317.25C72.34,-320.31 88.7,-324.14 104.77,-327.91"/>
<polygon fill="#aaaaaa" stroke="#aaaaaa" points="103.77,-330.19 111.14,-329.41 104.89,-325.42 103.77,-330.19"/>
</g>
<!-- rel_1 -->
<g id="node12" class="node">
<title>rel_1</title>
<path fill="#f5b8b8" stroke="#d46a6a" stroke-width="1.2" d="M185.12,-296C185.12,-296 155.12,-296 155.12,-296 149.12,-296 143.12,-290 143.12,-284 143.12,-284 143.12,-272 143.12,-272 143.12,-266 149.12,-260 155.12,-260 155.12,-260 185.12,-260 185.12,-260 191.12,-260 197.12,-266 197.12,-272 197.12,-272 197.12,-284 197.12,-284 197.12,-290 191.12,-296 185.12,-296"/>
<text xml:space="preserve" text-anchor="middle" x="170.12" y="-274.5" font-family="Arial" font-size="10.00" fill="#8b0000">clarifies</text>
</g>
<!-- furniture.legend&#45;&gt;rel_1 -->
<g id="edge8" class="edge">
<title>furniture.legend&#45;&gt;rel_1</title>
<path fill="none" stroke="#d46a6a" stroke-width="1.5" d="M59.27,-304.56C80.22,-299.49 109.63,-292.38 132.75,-286.79"/>
<polygon fill="#d46a6a" stroke="#d46a6a" stroke-width="1.5" points="133.22,-289.56 140.34,-284.96 131.91,-284.12 133.22,-289.56"/>
</g>
<!-- text.description -->
<g id="node4" class="node">
<title>text.description</title>
<path fill="#b8e6b8" stroke="#2c3e50" stroke-width="1.8" d="M51.25,-199C51.25,-199 12,-199 12,-199 6,-199 0,-193 0,-187 0,-187 0,-175 0,-175 0,-169 6,-163 12,-163 12,-163 51.25,-163 51.25,-163 57.25,-163 63.25,-169 63.25,-175 63.25,-175 63.25,-187 63.25,-187 63.25,-193 57.25,-199 51.25,-199"/>
<text xml:space="preserve" text-anchor="middle" x="31.62" y="-177.5" font-family="Arial" font-size="10.00" fill="#1a1a1a">description</text>
</g>
<!-- attr_2 -->
<g id="node9" class="node">
<title>attr_2</title>
<path fill="#c7b8e6" stroke="#7f8c8d" stroke-width="1.2" d="M210.38,-231C210.38,-231 129.88,-231 129.88,-231 123.88,-231 117.88,-225 117.88,-219 117.88,-219 117.88,-207 117.88,-207 117.88,-201 123.88,-195 129.88,-195 129.88,-195 210.38,-195 210.38,-195 216.38,-195 222.38,-201 222.38,-207 222.38,-207 222.38,-219 222.38,-219 222.38,-225 216.38,-231 210.38,-231"/>
<text xml:space="preserve" text-anchor="middle" x="170.12" y="-209.5" font-family="Arial" font-size="10.00" fill="#1a1a1a">(−) easy to read text</text>
</g>
<!-- text.description&#45;&gt;attr_2 -->
<g id="edge4" class="edge">
<title>text.description&#45;&gt;attr_2</title>
<path fill="none" stroke="#aaaaaa" d="M63.94,-188.34C77.41,-191.5 93.63,-195.3 109.26,-198.97"/>
<polygon fill="#aaaaaa" stroke="#aaaaaa" points="108.51,-201.31 115.88,-200.52 109.63,-196.54 108.51,-201.31"/>
</g>
<!-- rel_2 -->
<g id="node13" class="node">
<title>rel_2</title>
<path fill="#f5b8b8" stroke="#d46a6a" stroke-width="1.2" d="M211.5,-166C211.5,-166 128.75,-166 128.75,-166 122.75,-166 116.75,-160 116.75,-154 116.75,-154 116.75,-142 116.75,-142 116.75,-136 122.75,-130 128.75,-130 128.75,-130 211.5,-130 211.5,-130 217.5,-130 223.5,-136 223.5,-142 223.5,-142 223.5,-154 223.5,-154 223.5,-160 217.5,-166 211.5,-166"/>
<text xml:space="preserve" text-anchor="middle" x="170.12" y="-144.5" font-family="Arial" font-size="10.00" fill="#8b0000">reduces ambiguity of</text>
</g>
<!-- text.description&#45;&gt;rel_2 -->
<g id="edge10" class="edge">
<title>text.description&#45;&gt;rel_2</title>
<path fill="none" stroke="#d46a6a" stroke-width="1.5" d="M63.94,-173.43C76.66,-170.35 91.83,-166.69 106.63,-163.11"/>
<polygon fill="#d46a6a" stroke="#d46a6a" stroke-width="1.5" points="106.96,-165.91 114.07,-161.31 105.64,-160.47 106.96,-165.91"/>
</g>
<!-- text.title -->
<g id="node5" class="node">
<title>text.title</title>
<path fill="#b8e6b8" stroke="#2c3e50" stroke-width="1.8" d="M46.62,-69C46.62,-69 16.62,-69 16.62,-69 10.62,-69 4.62,-63 4.62,-57 4.62,-57 4.62,-45 4.62,-45 4.62,-39 10.62,-33 16.62,-33 16.62,-33 46.62,-33 46.62,-33 52.62,-33 58.62,-39 58.62,-45 58.62,-45 58.62,-57 58.62,-57 58.62,-63 52.62,-69 46.62,-69"/>
<text xml:space="preserve" text-anchor="middle" x="31.62" y="-47.5" font-family="Arial" font-size="10.00" fill="#1a1a1a">title</text>
</g>
<!-- attr_4 -->
<g id="node10" class="node">
<title>attr_4</title>
<path fill="#c7b8e6" stroke="#7f8c8d" stroke-width="1.2" d="M219,-101C219,-101 121.25,-101 121.25,-101 115.25,-101 109.25,-95 109.25,-89 109.25,-89 109.25,-77 109.25,-77 109.25,-71 115.25,-65 121.25,-65 121.25,-65 219,-65 219,-65 225,-65 231,-71 231,-77 231,-77 231,-89 231,-89 231,-95 225,-101 219,-101"/>
<text xml:space="preserve" text-anchor="middle" x="170.12" y="-79.5" font-family="Arial" font-size="10.00" fill="#1a1a1a">(−) clear informative title</text>
</g>
<!-- text.title&#45;&gt;attr_4 -->
<g id="edge5" class="edge">
<title>text.title&#45;&gt;attr_4</title>
<path fill="none" stroke="#aaaaaa" d="M59.27,-57.25C71.25,-60.05 85.99,-63.51 100.75,-66.97"/>
<polygon fill="#aaaaaa" stroke="#aaaaaa" points="100.08,-69.33 107.45,-68.54 101.2,-64.56 100.08,-69.33"/>
</g>
<!-- rel_3 -->
<g id="node14" class="node">
<title>rel_3</title>
<path fill="#f5b8b8" stroke="#d46a6a" stroke-width="1.2" d="M185.12,-36C185.12,-36 155.12,-36 155.12,-36 149.12,-36 143.12,-30 143.12,-24 143.12,-24 143.12,-12 143.12,-12 143.12,-6 149.12,0 155.12,0 155.12,0 185.12,0 185.12,0 191.12,0 197.12,-6 197.12,-12 197.12,-12 197.12,-24 197.12,-24 197.12,-30 191.12,-36 185.12,-36"/>
<text xml:space="preserve" text-anchor="middle" x="170.12" y="-14.5" font-family="Arial" font-size="10.00" fill="#8b0000">frames</text>
</g>
<!-- text.title&#45;&gt;rel_3 -->
<g id="edge12" class="edge">
<title>text.title&#45;&gt;rel_3</title>
<path fill="none" stroke="#d46a6a" stroke-width="1.5" d="M59.27,-44.56C80.22,-39.49 109.63,-32.38 132.75,-26.79"/>
<polygon fill="#d46a6a" stroke="#d46a6a" stroke-width="1.5" points="133.22,-29.56 140.34,-24.96 131.91,-24.12 133.22,-29.56"/>
</g>
<!-- rel_0&#45;&gt;mark.bar -->
<g id="edge7" class="edge">
<title>rel_0&#45;&gt;mark.bar</title>
<path fill="none" stroke="#d46a6a" stroke-width="1.5" d="M217.09,-389.51C223.28,-385.68 229.16,-381.2 234,-376 270.14,-337.23 288.9,-276.71 297.3,-241.35"/>
<polygon fill="#d46a6a" stroke="#d46a6a" stroke-width="1.5" points="299.96,-242.29 298.99,-233.87 294.49,-241.06 299.96,-242.29"/>
</g>
<!-- rel_1&#45;&gt;mark.bar -->
<g id="edge9" class="edge">
<title>rel_1&#45;&gt;mark.bar</title>
<path fill="none" stroke="#d46a6a" stroke-width="1.5" d="M197.49,-265C217.49,-255.15 245.18,-241.5 267.18,-230.65"/>
<polygon fill="#d46a6a" stroke="#d46a6a" stroke-width="1.5" points="268.25,-233.25 274.19,-227.2 265.77,-228.23 268.25,-233.25"/>
</g>
<!-- rel_2&#45;&gt;mark.bar -->
<g id="edge11" class="edge">
<title>rel_2&#45;&gt;mark.bar</title>
<path fill="none" stroke="#d46a6a" stroke-width="1.5" d="M208.56,-166.45C226.98,-175.53 249.07,-186.42 267.25,-195.38"/>
<polygon fill="#d46a6a" stroke="#d46a6a" stroke-width="1.5" points="265.91,-197.84 274.33,-198.87 268.39,-192.82 265.91,-197.84"/>
</g>
<!-- rel_3&#45;&gt;mark.bar -->
<g id="edge13" class="edge">
<title>rel_3&#45;&gt;mark.bar</title>
<path fill="none" stroke="#d46a6a" stroke-width="1.5" d="M197.64,-27.11C210.01,-32.46 224.14,-40.31 234,-51 269.65,-89.65 288.55,-149.51 297.11,-184.62"/>
<polygon fill="#d46a6a" stroke="#d46a6a" stroke-width="1.5" points="294.29,-184.88 298.83,-192.03 299.75,-183.61 294.29,-184.88"/>
</g>
</g>
</svg>
