<?xml version="1.0" encoding="UTF-8" standalone="no"?>
<!DOCTYPE svg PUBLIC "-//W3C//DTD SVG 1.1//EN"
 "http://www.w3.org/Graphics/SVG/1.1/DTD/svg11.dtd">
<!-- Generated by graphviz version 14.1.5 (20260411.2331)
 -->
<!-- Title: InfoVisJ.485.9.png Pages: 1 -->
<svg width="1181pt" height="569pt"
 viewBox="0.00 0.00 1181.00 569.00" xmlns="http://www.w3.org/2000/svg" xmlns:xlink="http://www.w3.org/1999/xlink">
<g id="graph0" class="graph" transform="scale(1 1) rotate(0) translate(4 565.25)">
<title>InfoVisJ.485.9.png</title>
<polygon fill="white" stroke="none" points="-4,4 -4,-565.25 1177,-565.25 1177,4 -4,4"/>
<text xml:space="preserve" text-anchor="start" x="527.25" y="-540.95" font-family="Arial" font-weight="bold" font-size="14.00">InfoVisJ.485.9.png</text>
<text xml:space="preserve" text-anchor="start" x="541.88" y="-521" font-family="Arial" font-size="11.00">Point &#160;| &#160;VC = 0.67</text>
<path fill="#b8e6b8" stroke="none" d="M377.12,-496C377.12,-496 385.12,-496 385.12,-496 388.12,-496 391.12,-499 391.12,-502 391.12,-502 391.12,-508 391.12,-508 391.12,-511 388.12,-514 385.12,-514 385.12,-514 377.12,-514 377.12,-514 374.12,-514 371.12,-511 371.12,-508 371.12,-508 371.12,-502 371.12,-502 371.12,-499 374.12,-496 377.12,-496"/>
<path fill="none" stroke="black" d="M377.12,-496C377.12,-496 385.12,-496 385.12,-496 388.12,-496 391.12,-499 391.12,-502 391.12,-502 391.12,-508 391.12,-508 391.12,-511 388.12,-514 385.12,-514 385.12,-514 377.12,-514 377.12,-514 374.12,-514 371.12,-511 371.12,-508 371.12,-508 371.12,-502 371.12,-502 371.12,-499 374.12,-496 377.12,-496"/>
<text xml:space="preserve" text-anchor="start" x="379.62" y="-501.25" font-family="Arial" font-size="10.00"> </text>
<text xml:space="preserve" text-anchor="start" x="395.12" y="-501.25" font-family="Arial" font-size="10.00">Object</text>
<path fill="#c7b8e6" stroke="none" d="M433.62,-496C433.62,-496 441.62,-496 441.62,-496 444.62,-496 447.62,-499 447.62,-502 447.62,-502 447.62,-508 447.62,-508 447.62,-511 444.62,-514 441.62,-514 441.62,-514 433.62,-514 433.62,-514 430.62,-514 427.62,-511 427.62,-508 427.62,-508 427.62,-502 427.62,-502 427.62,-499 430.62,-496 433.62,-496"/>
<path fill="none" stroke="black" d="M433.62,-496C433.62,-496 441.62,-496 441.62,-496 444.62,-496 447.62,-499 447.62,-502 447.62,-502 447.62,-508 447.62,-508 447.62,-511 444.62,-514 441.62,-514 441.62,-514 433.62,-514 433.62,-514 430.62,-514 427.62,-511 427.62,-508 427.62,-508 427.62,-502 427.62,-502 427.62,-499 430.62,-496 433.62,-496"/>
<text xml:space="preserve" text-anchor="start" x="436.12" y="-501.25" font-family="Arial" font-size="10.00"> </text>
<text xml:space="preserve" text-anchor="start" x="451.62" y="-501.25" font-family="Arial" font-size="10.00">Attribute</text>
<path fill="#f5b8b8" stroke="none" d="M498.38,-496C498.38,-496 506.38,-496 506.38,-496 509.38,-496 512.38,-499 512.38,-502 512.38,-502 512.38,-508 512.38,-508 512.38,-511 509.38,-514 506.38,-514 506.38,-514 498.38,-514 498.38,-514 495.38,-514 492.38,-511 492.38,-508 492.38,-508 492.38,-502 492.38,-502 492.38,-499 495.38,-496 498.38,-496"/>
<path fill="none" stroke="black" d="M498.38,-496C498.38,-496 506.38,-496 506.38,-496 509.38,-496 512.38,-499 512.38,-502 512.38,-502 512.38,-508 512.38,-508 512.38,-511 509.38,-514 506.38,-514 506.38,-514 498.38,-514 498.38,-514 495.38,-514 492.38,-511 492.38,-508 492.38,-508 492.38,-502 492.38,-502 492.38,-499 495.38,-496 498.38,-496"/>
<text xml:space="preserve" text-anchor="start" x="500.88" y="-501.25" font-family="Arial" font-size="10.00"> </text>
<text xml:space="preserve" text-anchor="start" x="516.38" y="-501.25" font-family="Arial" font-size="10.00">Relationship</text>
<text xml:space="preserve" text-anchor="start" x="576.38" y="-502.5" font-family="Arial" font-weight="bold" font-size="10.00">(+)</text>
<text xml:space="preserve" text-anchor="start" x="588.38" y="-502.5" font-family="Arial" font-size="10.00"> increases complexity</text>
<text xml:space="preserve" text-anchor="start" x="689.62" y="-502.5" font-family="Arial" font-weight="bold" font-size="10.00">(−)</text>
<text xml:space="preserve" text-anchor="start" x="701.62" y="-502.5" font-family="Arial" font-size="10.00"> decreases complexity</text>
<!-- unknown.scatter_plots -->
<g id="node1" class="node">
<title>unknown.scatter_plots</title>
<path fill="#b8e6b8" stroke="#2c3e50" stroke-width="1.8" d="M985.75,-166C985.75,-166 939.75,-166 939.75,-166 933.75,-166 927.75,-160 927.75,-154 927.75,-154 927.75,-142 927.75,-142 927.75,-136 933.75,-130 939.75,-130 939.75,-130 985.75,-130 985.75,-130 991.75,-130 997.75,-136 997.75,-142 997.75,-142 997.75,-154 997.75,-154 997.75,-160 991.75,-166 985.75,-166"/>
<text xml:space="preserve" text-anchor="middle" x="962.75" y="-144.5" font-family="Arial" font-size="10.00" fill="#1a1a1a">scatter plots</text>
</g>
<!-- attr_6 -->
<g id="node8" class="node">
<title>attr_6</title>
<path fill="#c7b8e6" stroke="#7f8c8d" stroke-width="1.2" d="M1161,-166C1161,-166 1052.75,-166 1052.75,-166 1046.75,-166 1040.75,-160 1040.75,-154 1040.75,-154 1040.75,-142 1040.75,-142 1040.75,-136 1046.75,-130 1052.75,-130 1052.75,-130 1161,-130 1161,-130 1167,-130 1173,-136 1173,-142 1173,-142 1173,-154 1173,-154 1173,-160 1167,-166 1161,-166"/>
<text xml:space="preserve" text-anchor="middle" x="1106.88" y="-144.5" font-family="Arial" font-size="10.00" fill="#1a1a1a">(+) unclear what measured</text>
</g>
<!-- unknown.scatter_plots&#45;&gt;attr_6 -->
<g id="edge1" class="edge">
<title>unknown.scatter_plots&#45;&gt;attr_6</title>
<path fill="none" stroke="#aaaaaa" d="M998.52,-148C1008.7,-148 1020.24,-148 1031.89,-148"/>
<polygon fill="#aaaaaa" stroke="#aaaaaa" points="1031.86,-150.45 1038.86,-148 1031.86,-145.55 1031.86,-150.45"/>
</g>
<!-- unknown.overlapping_lines -->
<g id="node2" class="node">
<title>unknown.overlapping_lines</title>
<path fill="#b8e6b8" stroke="#2c3e50" stroke-width="1.8" d="M76.75,-425C76.75,-425 12,-425 12,-425 6,-425 0,-419 0,-413 0,-413 0,-401 0,-401 0,-395 6,-389 12,-389 12,-389 76.75,-389 76.75,-389 82.75,-389 88.75,-395 88.75,-401 88.75,-401 88.75,-413 88.75,-413 88.75,-419 82.75,-425 76.75,-425"/>
<text xml:space="preserve" text-anchor="middle" x="44.38" y="-403.5" font-family="Arial" font-size="10.00" fill="#1a1a1a">overlapping lines</text>
</g>
<!-- attr_1 -->
<g id="node9" class="node">
<title>attr_1</title>
<path fill="#c7b8e6" stroke="#7f8c8d" stroke-width="1.2" d="M270.75,-458C270.75,-458 143.75,-458 143.75,-458 137.75,-458 131.75,-452 131.75,-446 131.75,-446 131.75,-434 131.75,-434 131.75,-428 137.75,-422 143.75,-422 143.75,-422 270.75,-422 270.75,-422 276.75,-422 282.75,-428 282.75,-434 282.75,-434 282.75,-446 282.75,-446 282.75,-452 276.75,-458 270.75,-458"/>
<text xml:space="preserve" text-anchor="middle" x="207.25" y="-436.5" font-family="Arial" font-size="10.00" fill="#1a1a1a">(+) excessive overlapping lines</text>
</g>
<!-- unknown.overlapping_lines&#45;&gt;attr_1 -->
<g id="edge2" class="edge">
<title>unknown.overlapping_lines&#45;&gt;attr_1</title>
<path fill="none" stroke="#aaaaaa" d="M89.33,-416.02C99.92,-418.19 111.57,-420.58 123.29,-422.98"/>
<polygon fill="#aaaaaa" stroke="#aaaaaa" points="122.57,-425.34 129.92,-424.34 123.56,-420.54 122.57,-425.34"/>
</g>
<!-- rel_1 -->
<g id="node16" class="node">
<title>rel_1</title>
<path fill="#f5b8b8" stroke="#d46a6a" stroke-width="1.2" d="M223.12,-393C223.12,-393 191.38,-393 191.38,-393 185.38,-393 179.38,-387 179.38,-381 179.38,-381 179.38,-369 179.38,-369 179.38,-363 185.38,-357 191.38,-357 191.38,-357 223.12,-357 223.12,-357 229.12,-357 235.12,-363 235.12,-369 235.12,-369 235.12,-381 235.12,-381 235.12,-387 229.12,-393 223.12,-393"/>
<text xml:space="preserve" text-anchor="middle" x="207.25" y="-371.5" font-family="Arial" font-size="10.00" fill="#8b0000">obscures</text>
</g>
<!-- unknown.overlapping_lines&#45;&gt;rel_1 -->
<g id="edge10" class="edge">
<title>unknown.overlapping_lines&#45;&gt;rel_1</title>
<path fill="none" stroke="#d46a6a" stroke-width="1.5" d="M89.33,-398.26C114.29,-393.29 145.2,-387.14 168.97,-382.42"/>
<polygon fill="#d46a6a" stroke="#d46a6a" stroke-width="1.5" points="169.48,-385.17 176.78,-380.86 168.39,-379.68 169.48,-385.17"/>
</g>
<!-- unknown.data_points -->
<g id="node3" class="node">
<title>unknown.data_points</title>
<path fill="#b8e6b8" stroke="#2c3e50" stroke-width="1.8" d="M377.75,-393C377.75,-393 337.75,-393 337.75,-393 331.75,-393 325.75,-387 325.75,-381 325.75,-381 325.75,-369 325.75,-369 325.75,-363 331.75,-357 337.75,-357 337.75,-357 377.75,-357 377.75,-357 383.75,-357 389.75,-363 389.75,-369 389.75,-369 389.75,-381 389.75,-381 389.75,-387 383.75,-393 377.75,-393"/>
<text xml:space="preserve" text-anchor="middle" x="357.75" y="-371.5" font-family="Arial" font-size="10.00" fill="#1a1a1a">data points</text>
</g>
<!-- attr_2 -->
<g id="node10" class="node">
<title>attr_2</title>
<path fill="#c7b8e6" stroke="#7f8c8d" stroke-width="1.2" d="M543.25,-426C543.25,-426 444.75,-426 444.75,-426 438.75,-426 432.75,-420 432.75,-414 432.75,-414 432.75,-402 432.75,-402 432.75,-396 438.75,-390 444.75,-390 444.75,-390 543.25,-390 543.25,-390 549.25,-390 555.25,-396 555.25,-402 555.25,-402 555.25,-414 555.25,-414 555.25,-420 549.25,-426 543.25,-426"/>
<text xml:space="preserve" text-anchor="middle" x="494" y="-404.5" font-family="Arial" font-size="10.00" fill="#1a1a1a">(+) too many data points</text>
</g>
<!-- unknown.data_points&#45;&gt;attr_2 -->
<g id="edge3" class="edge">
<title>unknown.data_points&#45;&gt;attr_2</title>
<path fill="none" stroke="#aaaaaa" d="M390.57,-382.82C400.71,-385.31 412.35,-388.18 424.07,-391.06"/>
<polygon fill="#aaaaaa" stroke="#aaaaaa" points="423.33,-393.4 430.71,-392.69 424.5,-388.64 423.33,-393.4"/>
</g>
<!-- rel_0 -->
<g id="node15" class="node">
<title>rel_0</title>
<path fill="#f5b8b8" stroke="#d46a6a" stroke-width="1.2" d="M516.25,-361C516.25,-361 471.75,-361 471.75,-361 465.75,-361 459.75,-355 459.75,-349 459.75,-349 459.75,-337 459.75,-337 459.75,-331 465.75,-325 471.75,-325 471.75,-325 516.25,-325 516.25,-325 522.25,-325 528.25,-331 528.25,-337 528.25,-337 528.25,-349 528.25,-349 528.25,-355 522.25,-361 516.25,-361"/>
<text xml:space="preserve" text-anchor="middle" x="494" y="-339.5" font-family="Arial" font-size="10.00" fill="#8b0000">overwhelms</text>
</g>
<!-- unknown.data_points&#45;&gt;rel_0 -->
<g id="edge8" class="edge">
<title>unknown.data_points&#45;&gt;rel_0</title>
<path fill="none" stroke="#d46a6a" stroke-width="1.5" d="M390.57,-367.42C408.26,-363.2 430.53,-357.89 449.79,-353.3"/>
<polygon fill="#d46a6a" stroke="#d46a6a" stroke-width="1.5" points="450.2,-356.08 457.33,-351.5 448.9,-350.63 450.2,-356.08"/>
</g>
<!-- furniture.legend -->
<g id="node4" class="node">
<title>furniture.legend</title>
<path fill="#b8e6b8" stroke="#2c3e50" stroke-width="1.8" d="M664.12,-69C664.12,-69 627.12,-69 627.12,-69 621.12,-69 615.12,-63 615.12,-57 615.12,-57 615.12,-45 615.12,-45 615.12,-39 621.12,-33 627.12,-33 627.12,-33 664.12,-33 664.12,-33 670.12,-33 676.12,-39 676.12,-45 676.12,-45 676.12,-57 676.12,-57 676.12,-63 670.12,-69 664.12,-69"/>
<text xml:space="preserve" text-anchor="middle" x="645.62" y="-47.5" font-family="Arial" font-size="10.00" fill="#1a1a1a">color code</text>
</g>
<!-- attr_4 -->
<g id="node11" class="node">
<title>attr_4</title>
<path fill="#c7b8e6" stroke="#7f8c8d" stroke-width="1.2" d="M857.38,-101C857.38,-101 763.38,-101 763.38,-101 757.38,-101 751.38,-95 751.38,-89 751.38,-89 751.38,-77 751.38,-77 751.38,-71 757.38,-65 763.38,-65 763.38,-65 857.38,-65 857.38,-65 863.38,-65 869.38,-71 869.38,-77 869.38,-77 869.38,-89 869.38,-89 869.38,-95 863.38,-101 857.38,-101"/>
<text xml:space="preserve" text-anchor="middle" x="810.38" y="-79.5" font-family="Arial" font-size="10.00" fill="#1a1a1a">(+) multiple colors used</text>
</g>
<!-- furniture.legend&#45;&gt;attr_4 -->
<g id="edge4" class="edge">
<title>furniture.legend&#45;&gt;attr_4</title>
<path fill="none" stroke="#aaaaaa" d="M676.86,-56.94C695.36,-60.58 719.79,-65.39 742.64,-69.88"/>
<polygon fill="#aaaaaa" stroke="#aaaaaa" points="742.14,-72.28 749.48,-71.22 743.09,-67.47 742.14,-72.28"/>
</g>
<!-- rel_4 -->
<g id="node19" class="node">
<title>rel_4</title>
<path fill="#f5b8b8" stroke="#d46a6a" stroke-width="1.2" d="M861.5,-36C861.5,-36 759.25,-36 759.25,-36 753.25,-36 747.25,-30 747.25,-24 747.25,-24 747.25,-12 747.25,-12 747.25,-6 753.25,0 759.25,0 759.25,0 861.5,0 861.5,0 867.5,0 873.5,-6 873.5,-12 873.5,-12 873.5,-24 873.5,-24 873.5,-30 867.5,-36 861.5,-36"/>
<text xml:space="preserve" text-anchor="middle" x="810.38" y="-14.5" font-family="Arial" font-size="10.00" fill="#8b0000">confuses interpretation of</text>
</g>
<!-- furniture.legend&#45;&gt;rel_4 -->
<g id="edge16" class="edge">
<title>furniture.legend&#45;&gt;rel_4</title>
<path fill="none" stroke="#d46a6a" stroke-width="1.5" d="M676.86,-44.87C693.84,-41.43 715.82,-36.97 736.98,-32.68"/>
<polygon fill="#d46a6a" stroke="#d46a6a" stroke-width="1.5" points="737.44,-35.44 744.72,-31.11 736.33,-29.95 737.44,-35.44"/>
</g>
<!-- unknown.labels_annotations -->
<g id="node5" class="node">
<title>unknown.labels_annotations</title>
<path fill="#b8e6b8" stroke="#2c3e50" stroke-width="1.8" d="M681,-199C681,-199 610.25,-199 610.25,-199 604.25,-199 598.25,-193 598.25,-187 598.25,-187 598.25,-175 598.25,-175 598.25,-169 604.25,-163 610.25,-163 610.25,-163 681,-163 681,-163 687,-163 693,-169 693,-175 693,-175 693,-187 693,-187 693,-193 687,-199 681,-199"/>
<text xml:space="preserve" text-anchor="middle" x="645.62" y="-177.5" font-family="Arial" font-size="10.00" fill="#1a1a1a">labels annotations</text>
</g>
<!-- attr_3 -->
<g id="node12" class="node">
<title>attr_3</title>
<path fill="#c7b8e6" stroke="#7f8c8d" stroke-width="1.2" d="M872.75,-231C872.75,-231 748,-231 748,-231 742,-231 736,-225 736,-219 736,-219 736,-207 736,-207 736,-201 742,-195 748,-195 748,-195 872.75,-195 872.75,-195 878.75,-195 884.75,-201 884.75,-207 884.75,-207 884.75,-219 884.75,-219 884.75,-225 878.75,-231 872.75,-231"/>
<text xml:space="preserve" text-anchor="middle" x="810.38" y="-209.5" font-family="Arial" font-size="10.00" fill="#1a1a1a">(+) crowded overlapping labels</text>
</g>
<!-- unknown.labels_annotations&#45;&gt;attr_3 -->
<g id="edge5" class="edge">
<title>unknown.labels_annotations&#45;&gt;attr_3</title>
<path fill="none" stroke="#aaaaaa" d="M693.7,-190.26C704.2,-192.32 715.63,-194.57 727.09,-196.82"/>
<polygon fill="#aaaaaa" stroke="#aaaaaa" points="726.6,-199.22 733.94,-198.17 727.54,-194.41 726.6,-199.22"/>
</g>
<!-- rel_3 -->
<g id="node18" class="node">
<title>rel_3</title>
<path fill="#f5b8b8" stroke="#d46a6a" stroke-width="1.2" d="M835.62,-166C835.62,-166 785.12,-166 785.12,-166 779.12,-166 773.12,-160 773.12,-154 773.12,-154 773.12,-142 773.12,-142 773.12,-136 779.12,-130 785.12,-130 785.12,-130 835.62,-130 835.62,-130 841.62,-130 847.62,-136 847.62,-142 847.62,-142 847.62,-154 847.62,-154 847.62,-160 841.62,-166 835.62,-166"/>
<text xml:space="preserve" text-anchor="middle" x="810.38" y="-144.5" font-family="Arial" font-size="10.00" fill="#8b0000">fails to clarify</text>
</g>
<!-- unknown.labels_annotations&#45;&gt;rel_3 -->
<g id="edge14" class="edge">
<title>unknown.labels_annotations&#45;&gt;rel_3</title>
<path fill="none" stroke="#d46a6a" stroke-width="1.5" d="M693.7,-171.46C715.42,-167.05 741.13,-161.84 762.79,-157.45"/>
<polygon fill="#d46a6a" stroke="#d46a6a" stroke-width="1.5" points="763.23,-160.21 770.52,-155.88 762.12,-154.72 763.23,-160.21"/>
</g>
<!-- structure.grid -->
<g id="node6" class="node">
<title>structure.grid</title>
<path fill="#b8e6b8" stroke="#2c3e50" stroke-width="1.8" d="M59.38,-490C59.38,-490 29.38,-490 29.38,-490 23.38,-490 17.38,-484 17.38,-478 17.38,-478 17.38,-466 17.38,-466 17.38,-460 23.38,-454 29.38,-454 29.38,-454 59.38,-454 59.38,-454 65.38,-454 71.38,-460 71.38,-466 71.38,-466 71.38,-478 71.38,-478 71.38,-484 65.38,-490 59.38,-490"/>
<text xml:space="preserve" text-anchor="middle" x="44.38" y="-468.5" font-family="Arial" font-size="10.00" fill="#1a1a1a">grid</text>
</g>
<!-- unknown.multiple_charts -->
<g id="node7" class="node">
<title>unknown.multiple_charts</title>
<path fill="#b8e6b8" stroke="#2c3e50" stroke-width="1.8" d="M673.5,-361C673.5,-361 617.75,-361 617.75,-361 611.75,-361 605.75,-355 605.75,-349 605.75,-349 605.75,-337 605.75,-337 605.75,-331 611.75,-325 617.75,-325 617.75,-325 673.5,-325 673.5,-325 679.5,-325 685.5,-331 685.5,-337 685.5,-337 685.5,-349 685.5,-349 685.5,-355 679.5,-361 673.5,-361"/>
<text xml:space="preserve" text-anchor="middle" x="645.62" y="-339.5" font-family="Arial" font-size="10.00" fill="#1a1a1a">multiple charts</text>
</g>
<!-- attr_0 -->
<g id="node13" class="node">
<title>attr_0</title>
<path fill="#c7b8e6" stroke="#7f8c8d" stroke-width="1.2" d="M870.88,-426C870.88,-426 749.88,-426 749.88,-426 743.88,-426 737.88,-420 737.88,-414 737.88,-414 737.88,-402 737.88,-402 737.88,-396 743.88,-390 749.88,-390 749.88,-390 870.88,-390 870.88,-390 876.88,-390 882.88,-396 882.88,-402 882.88,-402 882.88,-414 882.88,-414 882.88,-420 876.88,-426 870.88,-426"/>
<text xml:space="preserve" text-anchor="middle" x="810.38" y="-404.5" font-family="Arial" font-size="10.00" fill="#1a1a1a">(+) multiple separate subplots</text>
</g>
<!-- unknown.multiple_charts&#45;&gt;attr_0 -->
<g id="edge6" class="edge">
<title>unknown.multiple_charts&#45;&gt;attr_0</title>
<path fill="none" stroke="#aaaaaa" d="M686.02,-358.73C706.72,-367 732.42,-377.26 754.99,-386.28"/>
<polygon fill="#aaaaaa" stroke="#aaaaaa" points="754.01,-388.53 761.42,-388.85 755.83,-383.98 754.01,-388.53"/>
</g>
<!-- attr_5 -->
<g id="node14" class="node">
<title>attr_5</title>
<path fill="#c7b8e6" stroke="#7f8c8d" stroke-width="1.2" d="M857.75,-361C857.75,-361 763,-361 763,-361 757,-361 751,-355 751,-349 751,-349 751,-337 751,-337 751,-331 757,-325 763,-325 763,-325 857.75,-325 857.75,-325 863.75,-325 869.75,-331 869.75,-337 869.75,-337 869.75,-349 869.75,-349 869.75,-355 863.75,-361 857.75,-361"/>
<text xml:space="preserve" text-anchor="middle" x="810.38" y="-339.5" font-family="Arial" font-size="10.00" fill="#1a1a1a">(+) hard to follow layout</text>
</g>
<!-- unknown.multiple_charts&#45;&gt;attr_5 -->
<g id="edge7" class="edge">
<title>unknown.multiple_charts&#45;&gt;attr_5</title>
<path fill="none" stroke="#aaaaaa" d="M686.02,-343C702.9,-343 723.1,-343 742.22,-343"/>
<polygon fill="#aaaaaa" stroke="#aaaaaa" points="742.11,-345.45 749.11,-343 742.11,-340.55 742.11,-345.45"/>
</g>
<!-- rel_2 -->
<g id="node17" class="node">
<title>rel_2</title>
<path fill="#f5b8b8" stroke="#d46a6a" stroke-width="1.2" d="M860.75,-296C860.75,-296 760,-296 760,-296 754,-296 748,-290 748,-284 748,-284 748,-272 748,-272 748,-266 754,-260 760,-260 760,-260 860.75,-260 860.75,-260 866.75,-260 872.75,-266 872.75,-272 872.75,-272 872.75,-284 872.75,-284 872.75,-290 866.75,-296 860.75,-296"/>
<text xml:space="preserve" text-anchor="middle" x="810.38" y="-274.5" font-family="Arial" font-size="10.00" fill="#8b0000">requires scanning across</text>
</g>
<!-- unknown.multiple_charts&#45;&gt;rel_2 -->
<g id="edge12" class="edge">
<title>unknown.multiple_charts&#45;&gt;rel_2</title>
<path fill="none" stroke="#d46a6a" stroke-width="1.5" d="M686.02,-327.27C706.27,-319.18 731.3,-309.18 753.5,-300.31"/>
<polygon fill="#d46a6a" stroke="#d46a6a" stroke-width="1.5" points="754.33,-303 760.72,-297.43 752.25,-297.8 754.33,-303"/>
</g>
<!-- rel_0&#45;&gt;unknown.multiple_charts -->
<g id="edge9" class="edge">
<title>rel_0&#45;&gt;unknown.multiple_charts</title>
<path fill="none" stroke="#d46a6a" stroke-width="1.5" d="M528.58,-343C548.14,-343 573.17,-343 594.98,-343"/>
<polygon fill="#d46a6a" stroke="#d46a6a" stroke-width="1.5" points="594.79,-345.8 602.79,-343 594.79,-340.2 594.79,-345.8"/>
</g>
<!-- rel_1&#45;&gt;unknown.data_points -->
<g id="edge11" class="edge">
<title>rel_1&#45;&gt;unknown.data_points</title>
<path fill="none" stroke="#d46a6a" stroke-width="1.5" d="M235.49,-375C257.71,-375 289.48,-375 314.93,-375"/>
<polygon fill="#d46a6a" stroke="#d46a6a" stroke-width="1.5" points="314.78,-377.8 322.78,-375 314.78,-372.2 314.78,-377.8"/>
</g>
<!-- rel_2&#45;&gt;unknown.scatter_plots -->
<g id="edge13" class="edge">
<title>rel_2&#45;&gt;unknown.scatter_plots</title>
<path fill="none" stroke="#d46a6a" stroke-width="1.5" d="M862.95,-259.42C870.62,-255.57 878.15,-251.1 884.75,-246 909.92,-226.55 931.57,-197.12 945.45,-175.59"/>
<polygon fill="#d46a6a" stroke="#d46a6a" stroke-width="1.5" points="947.81,-177.08 949.7,-168.82 943.07,-174.11 947.81,-177.08"/>
</g>
<!-- rel_3&#45;&gt;unknown.scatter_plots -->
<g id="edge15" class="edge">
<title>rel_3&#45;&gt;unknown.scatter_plots</title>
<path fill="none" stroke="#d46a6a" stroke-width="1.5" d="M848.16,-148C868.88,-148 894.91,-148 916.83,-148"/>
<polygon fill="#d46a6a" stroke="#d46a6a" stroke-width="1.5" points="916.62,-150.8 924.62,-148 916.62,-145.2 916.62,-150.8"/>
</g>
<!-- rel_4&#45;&gt;unknown.scatter_plots -->
<g id="edge17" class="edge">
<title>rel_4&#45;&gt;unknown.scatter_plots</title>
<path fill="none" stroke="#d46a6a" stroke-width="1.5" d="M861.38,-36.58C869.58,-40.7 877.69,-45.51 884.75,-51 909.7,-70.41 931.38,-99.51 945.33,-120.78"/>
<polygon fill="#d46a6a" stroke="#d46a6a" stroke-width="1.5" points="942.92,-122.21 949.59,-127.45 947.64,-119.2 942.92,-122.21"/>
</g>
</g>
</svg>
