<?xml version="1.0" encoding="UTF-8" standalone="no"?>
<!DOCTYPE svg PUBLIC "-//W3C//DTD SVG 1.1//EN"
 "http://www.w3.org/Graphics/SVG/1.1/DTD/svg11.dtd">
<!-- Generated by graphviz version 14.1.5 (20260411.2331)
 -->
<!-- Title: InfoVisJ.1933.13.png Pages: 1 -->
<svg width="1134pt" height="462pt"
 viewBox="0.00 0.00 1134.00 462.00" xmlns="http://www.w3.org/2000/svg" xmlns:xlink="http://www.w3.org/1999/xlink">
<g id="graph0" class="graph" transform="scale(1 1) rotate(0) translate(4 458.25)">
<title>InfoVisJ.1933.13.png</title>
<polygon fill="white" stroke="none" points="-4,4 -4,-458.25 1130.25,-458.25 1130.25,4 -4,4"/>
<text xml:space="preserve" text-anchor="start" x="496.38" y="-433.95" font-family="Arial" font-weight="bold" font-size="14.00">InfoVisJ.1933.13.png</text>
<text xml:space="preserve" text-anchor="start" x="520.75" y="-414" font-family="Arial" font-size="11.00">Grid &#160;| &#160;VC = 0.68</text>
<path fill="#b8e6b8" stroke="none" d="M353.75,-389C353.75,-389 361.75,-389 361.75,-389 364.75,-389 367.75,-392 367.75,-395 367.75,-395 367.75,-401 367.75,-401 367.75,-404 364.75,-407 361.75,-407 361.75,-407 353.75,-407 353.75,-407 350.75,-407 347.75,-404 347.75,-401 347.75,-401 347.75,-395 347.75,-395 347.75,-392 350.75,-389 353.75,-389"/>
<path fill="none" stroke="black" d="M353.75,-389C353.75,-389 361.75,-389 361.75,-389 364.75,-389 367.75,-392 367.75,-395 367.75,-395 367.75,-401 367.75,-401 367.75,-404 364.75,-407 361.75,-407 361.75,-407 353.75,-407 353.75,-407 350.75,-407 347.75,-404 347.75,-401 347.75,-401 347.75,-395 347.75,-395 347.75,-392 350.75,-389 353.75,-389"/>
<text xml:space="preserve" text-anchor="start" x="356.25" y="-394.25" font-family="Arial" font-size="10.00"> </text>
<text xml:space="preserve" text-anchor="start" x="371.75" y="-394.25" font-family="Arial" font-size="10.00">Object</text>
<path fill="#c7b8e6" stroke="none" d="M410.25,-389C410.25,-389 418.25,-389 418.25,-389 421.25,-389 424.25,-392 424.25,-395 424.25,-395 424.25,-401 424.25,-401 424.25,-404 421.25,-407 418.25,-407 418.25,-407 410.25,-407 410.25,-407 407.25,-407 404.25,-404 404.25,-401 404.25,-401 404.25,-395 404.25,-395 404.25,-392 407.25,-389 410.25,-389"/>
<path fill="none" stroke="black" d="M410.25,-389C410.25,-389 418.25,-389 418.25,-389 421.25,-389 424.25,-392 424.25,-395 424.25,-395 424.25,-401 424.25,-401 424.25,-404 421.25,-407 418.25,-407 418.25,-407 410.25,-407 410.25,-407 407.25,-407 404.25,-404 404.25,-401 404.25,-401 404.25,-395 404.25,-395 404.25,-392 407.25,-389 410.25,-389"/>
<text xml:space="preserve" text-anchor="start" x="412.75" y="-394.25" font-family="Arial" font-size="10.00"> </text>
<text xml:space="preserve" text-anchor="start" x="428.25" y="-394.25" font-family="Arial" font-size="10.00">Attribute</text>
<path fill="#f5b8b8" stroke="none" d="M475,-389C475,-389 483,-389 483,-389 486,-389 489,-392 489,-395 489,-395 489,-401 489,-401 489,-404 486,-407 483,-407 483,-407 475,-407 475,-407 472,-407 469,-404 469,-401 469,-401 469,-395 469,-395 469,-392 472,-389 475,-389"/>
<path fill="none" stroke="black" d="M475,-389C475,-389 483,-389 483,-389 486,-389 489,-392 489,-395 489,-395 489,-401 489,-401 489,-404 486,-407 483,-407 483,-407 475,-407 475,-407 472,-407 469,-404 469,-401 469,-401 469,-395 469,-395 469,-392 472,-389 475,-389"/>
<text xml:space="preserve" text-anchor="start" x="477.5" y="-394.25" font-family="Arial" font-size="10.00"> </text>
<text xml:space="preserve" text-anchor="start" x="493" y="-394.25" font-family="Arial" font-size="10.00">Relationship</text>
<text xml:space="preserve" text-anchor="start" x="553" y="-395.5" font-family="Arial" font-weight="bold" font-size="10.00">(+)</text>
<text xml:space="preserve" text-anchor="start" x="565" y="-395.5" font-family="Arial" font-size="10.00"> increases complexity</text>
<text xml:space="preserve" text-anchor="start" x="666.25" y="-395.5" font-family="Arial" font-weight="bold" font-size="10.00">(−)</text>
<text xml:space="preserve" text-anchor="start" x="678.25" y="-395.5" font-family="Arial" font-size="10.00"> decreases complexity</text>
<!-- unknown.grid_layout -->
<g id="node1" class="node">
<title>unknown.grid_layout</title>
<path fill="#b8e6b8" stroke="#2c3e50" stroke-width="1.8" d="M49,-191C49,-191 12,-191 12,-191 6,-191 0,-185 0,-179 0,-179 0,-167 0,-167 0,-161 6,-155 12,-155 12,-155 49,-155 49,-155 55,-155 61,-161 61,-167 61,-167 61,-179 61,-179 61,-185 55,-191 49,-191"/>
<text xml:space="preserve" text-anchor="middle" x="30.5" y="-169.5" font-family="Arial" font-size="10.00" fill="#1a1a1a">grid layout</text>
</g>
<!-- attr_0 -->
<g id="node6" class="node">
<title>attr_0</title>
<path fill="#c7b8e6" stroke="#7f8c8d" stroke-width="1.2" d="M229.88,-318C229.88,-318 118.62,-318 118.62,-318 112.62,-318 106.62,-312 106.62,-306 106.62,-306 106.62,-294 106.62,-294 106.62,-288 112.62,-282 118.62,-282 118.62,-282 229.88,-282 229.88,-282 235.88,-282 241.88,-288 241.88,-294 241.88,-294 241.88,-306 241.88,-306 241.88,-312 235.88,-318 229.88,-318"/>
<text xml:space="preserve" text-anchor="middle" x="174.25" y="-296.5" font-family="Arial" font-size="10.00" fill="#1a1a1a">(+) many repeated subplots</text>
</g>
<!-- unknown.grid_layout&#45;&gt;attr_0 -->
<g id="edge1" class="edge">
<title>unknown.grid_layout&#45;&gt;attr_0</title>
<path fill="none" stroke="#aaaaaa" d="M42.21,-191.72C54.8,-212.36 77.38,-245.51 104,-267 108.7,-270.8 113.91,-274.28 119.3,-277.45"/>
<polygon fill="#aaaaaa" stroke="#aaaaaa" points="118.1,-279.59 125.41,-280.84 120.48,-275.3 118.1,-279.59"/>
</g>
<!-- attr_5 -->
<g id="node7" class="node">
<title>attr_5</title>
<path fill="#c7b8e6" stroke="#7f8c8d" stroke-width="1.2" d="M230.62,-253C230.62,-253 117.87,-253 117.87,-253 111.88,-253 105.88,-247 105.88,-241 105.88,-241 105.88,-229 105.88,-229 105.88,-223 111.88,-217 117.88,-217 117.88,-217 230.62,-217 230.62,-217 236.62,-217 242.62,-223 242.62,-229 242.62,-229 242.62,-241 242.62,-241 242.62,-247 236.62,-253 230.62,-253"/>
<text xml:space="preserve" text-anchor="middle" x="174.25" y="-231.5" font-family="Arial" font-size="10.00" fill="#1a1a1a">(+) dense multi panel layout</text>
</g>
<!-- unknown.grid_layout&#45;&gt;attr_5 -->
<g id="edge2" class="edge">
<title>unknown.grid_layout&#45;&gt;attr_5</title>
<path fill="none" stroke="#aaaaaa" d="M61.56,-186.15C79.43,-193.97 102.56,-204.08 123.12,-213.08"/>
<polygon fill="#aaaaaa" stroke="#aaaaaa" points="122.08,-215.29 129.48,-215.85 124.05,-210.8 122.08,-215.29"/>
</g>
<!-- rel_0 -->
<g id="node13" class="node">
<title>rel_0</title>
<path fill="#f5b8b8" stroke="#d46a6a" stroke-width="1.2" d="M341.38,-209C341.38,-209 308.12,-209 308.12,-209 302.12,-209 296.12,-203 296.12,-197 296.12,-197 296.12,-185 296.12,-185 296.12,-179 302.12,-173 308.12,-173 308.12,-173 341.38,-173 341.38,-173 347.38,-173 353.38,-179 353.38,-185 353.38,-185 353.38,-197 353.38,-197 353.38,-203 347.38,-209 341.38,-209"/>
<text xml:space="preserve" text-anchor="middle" x="324.75" y="-187.5" font-family="Arial" font-size="10.00" fill="#8b0000">multiplies</text>
</g>
<!-- unknown.grid_layout&#45;&gt;rel_0 -->
<g id="edge8" class="edge">
<title>unknown.grid_layout&#45;&gt;rel_0</title>
<path fill="none" stroke="#d46a6a" stroke-width="1.5" d="M61.68,-174.86C115.33,-178.16 227.2,-185.05 285.91,-188.67"/>
<polygon fill="#d46a6a" stroke="#d46a6a" stroke-width="1.5" points="285.47,-191.45 293.62,-189.14 285.81,-185.86 285.47,-191.45"/>
</g>
<!-- rel_3 -->
<g id="node16" class="node">
<title>rel_3</title>
<path fill="#f5b8b8" stroke="#d46a6a" stroke-width="1.2" d="M204.38,-129C204.38,-129 144.12,-129 144.12,-129 138.12,-129 132.12,-123 132.12,-117 132.12,-117 132.12,-105 132.12,-105 132.12,-99 138.12,-93 144.12,-93 144.12,-93 204.38,-93 204.38,-93 210.38,-93 216.38,-99 216.38,-105 216.38,-105 216.38,-117 216.38,-117 216.38,-123 210.38,-129 204.38,-129"/>
<text xml:space="preserve" text-anchor="middle" x="174.25" y="-107.5" font-family="Arial" font-size="10.00" fill="#8b0000">overwhelms via</text>
</g>
<!-- unknown.grid_layout&#45;&gt;rel_3 -->
<g id="edge14" class="edge">
<title>unknown.grid_layout&#45;&gt;rel_3</title>
<path fill="none" stroke="#d46a6a" stroke-width="1.5" d="M61.56,-159.85C79.25,-152.11 102.09,-142.13 122.49,-133.2"/>
<polygon fill="#d46a6a" stroke="#d46a6a" stroke-width="1.5" points="123.38,-135.87 129.59,-130.1 121.14,-130.74 123.38,-135.87"/>
</g>
<!-- unknown.subplot -->
<g id="node2" class="node">
<title>unknown.subplot</title>
<path fill="#b8e6b8" stroke="#2c3e50" stroke-width="1.8" d="M629.75,-133C629.75,-133 599.75,-133 599.75,-133 593.75,-133 587.75,-127 587.75,-121 587.75,-121 587.75,-109 587.75,-109 587.75,-103 593.75,-97 599.75,-97 599.75,-97 629.75,-97 629.75,-97 635.75,-97 641.75,-103 641.75,-109 641.75,-109 641.75,-121 641.75,-121 641.75,-127 635.75,-133 629.75,-133"/>
<text xml:space="preserve" text-anchor="middle" x="614.75" y="-111.5" font-family="Arial" font-size="10.00" fill="#1a1a1a">subplot</text>
</g>
<!-- attr_1 -->
<g id="node8" class="node">
<title>attr_1</title>
<path fill="#c7b8e6" stroke="#7f8c8d" stroke-width="1.2" d="M824.12,-231C824.12,-231 698.62,-231 698.62,-231 692.62,-231 686.62,-225 686.62,-219 686.62,-219 686.62,-207 686.62,-207 686.62,-201 692.62,-195 698.62,-195 698.62,-195 824.12,-195 824.12,-195 830.12,-195 836.12,-201 836.12,-207 836.12,-207 836.12,-219 836.12,-219 836.12,-225 830.12,-231 824.12,-231"/>
<text xml:space="preserve" text-anchor="middle" x="761.38" y="-209.5" font-family="Arial" font-size="10.00" fill="#1a1a1a">(+) visually similar yet different</text>
</g>
<!-- unknown.subplot&#45;&gt;attr_1 -->
<g id="edge3" class="edge">
<title>unknown.subplot&#45;&gt;attr_1</title>
<path fill="none" stroke="#aaaaaa" d="M632.19,-133.65C645.34,-147.75 664.84,-166.85 684.75,-180 690.59,-183.86 696.96,-187.44 703.44,-190.72"/>
<polygon fill="#aaaaaa" stroke="#aaaaaa" points="702.35,-192.92 709.71,-193.77 704.49,-188.51 702.35,-192.92"/>
</g>
<!-- attr_2 -->
<g id="node9" class="node">
<title>attr_2</title>
<path fill="#c7b8e6" stroke="#7f8c8d" stroke-width="1.2" d="M819.62,-166C819.62,-166 703.12,-166 703.12,-166 697.12,-166 691.12,-160 691.12,-154 691.12,-154 691.12,-142 691.12,-142 691.12,-136 697.12,-130 703.12,-130 703.12,-130 819.62,-130 819.62,-130 825.62,-130 831.62,-136 831.62,-142 831.62,-142 831.62,-154 831.62,-154 831.62,-160 825.62,-166 819.62,-166"/>
<text xml:space="preserve" text-anchor="middle" x="761.38" y="-144.5" font-family="Arial" font-size="10.00" fill="#1a1a1a">(+) requires separate reading</text>
</g>
<!-- unknown.subplot&#45;&gt;attr_2 -->
<g id="edge4" class="edge">
<title>unknown.subplot&#45;&gt;attr_2</title>
<path fill="none" stroke="#aaaaaa" d="M642.61,-121.13C654.12,-123.76 668.22,-126.97 682.6,-130.25"/>
<polygon fill="#aaaaaa" stroke="#aaaaaa" points="681.76,-132.58 689.13,-131.74 682.85,-127.8 681.76,-132.58"/>
</g>
<!-- rel_1 -->
<g id="node14" class="node">
<title>rel_1</title>
<path fill="#f5b8b8" stroke="#d46a6a" stroke-width="1.2" d="M826,-101C826,-101 696.75,-101 696.75,-101 690.75,-101 684.75,-95 684.75,-89 684.75,-89 684.75,-77 684.75,-77 684.75,-71 690.75,-65 696.75,-65 696.75,-65 826,-65 826,-65 832,-65 838,-71 838,-77 838,-77 838,-89 838,-89 838,-95 832,-101 826,-101"/>
<text xml:space="preserve" text-anchor="middle" x="761.38" y="-79.5" font-family="Arial" font-size="10.00" fill="#8b0000">demands sequential analysis of</text>
</g>
<!-- unknown.subplot&#45;&gt;rel_1 -->
<g id="edge10" class="edge">
<title>unknown.subplot&#45;&gt;rel_1</title>
<path fill="none" stroke="#d46a6a" stroke-width="1.5" d="M642.61,-109.06C651.93,-106.99 662.94,-104.56 674.43,-102.02"/>
<polygon fill="#d46a6a" stroke="#d46a6a" stroke-width="1.5" points="674.74,-104.82 681.95,-100.35 673.53,-99.35 674.74,-104.82"/>
</g>
<!-- rel_4 -->
<g id="node17" class="node">
<title>rel_4</title>
<path fill="#f5b8b8" stroke="#d46a6a" stroke-width="1.2" d="M818.5,-36C818.5,-36 704.25,-36 704.25,-36 698.25,-36 692.25,-30 692.25,-24 692.25,-24 692.25,-12 692.25,-12 692.25,-6 698.25,0 704.25,0 704.25,0 818.5,0 818.5,0 824.5,0 830.5,-6 830.5,-12 830.5,-12 830.5,-24 830.5,-24 830.5,-30 824.5,-36 818.5,-36"/>
<text xml:space="preserve" text-anchor="middle" x="761.38" y="-14.5" font-family="Arial" font-size="10.00" fill="#8b0000">obscures differences across</text>
</g>
<!-- unknown.subplot&#45;&gt;rel_4 -->
<g id="edge16" class="edge">
<title>unknown.subplot&#45;&gt;rel_4</title>
<path fill="none" stroke="#d46a6a" stroke-width="1.5" d="M632.14,-96.29C645.28,-82.16 664.76,-63.04 684.75,-50 689.65,-46.81 694.91,-43.82 700.31,-41.04"/>
<polygon fill="#d46a6a" stroke="#d46a6a" stroke-width="1.5" points="701.45,-43.6 707.42,-37.58 699,-38.57 701.45,-43.6"/>
</g>
<!-- unknown.figure_labels -->
<g id="node3" class="node">
<title>unknown.figure_labels</title>
<path fill="#b8e6b8" stroke="#2c3e50" stroke-width="1.8" d="M937.5,-101C937.5,-101 893,-101 893,-101 887,-101 881,-95 881,-89 881,-89 881,-77 881,-77 881,-71 887,-65 893,-65 893,-65 937.5,-65 937.5,-65 943.5,-65 949.5,-71 949.5,-77 949.5,-77 949.5,-89 949.5,-89 949.5,-95 943.5,-101 937.5,-101"/>
<text xml:space="preserve" text-anchor="middle" x="915.25" y="-79.5" font-family="Arial" font-size="10.00" fill="#1a1a1a">figure labels</text>
</g>
<!-- attr_4 -->
<g id="node10" class="node">
<title>attr_4</title>
<path fill="#c7b8e6" stroke="#7f8c8d" stroke-width="1.2" d="M1114.25,-101C1114.25,-101 1004.5,-101 1004.5,-101 998.5,-101 992.5,-95 992.5,-89 992.5,-89 992.5,-77 992.5,-77 992.5,-71 998.5,-65 1004.5,-65 1004.5,-65 1114.25,-65 1114.25,-65 1120.25,-65 1126.25,-71 1126.25,-77 1126.25,-77 1126.25,-89 1126.25,-89 1126.25,-95 1120.25,-101 1114.25,-101"/>
<text xml:space="preserve" text-anchor="middle" x="1059.38" y="-79.5" font-family="Arial" font-size="10.00" fill="#1a1a1a">(+) fifteen figure references</text>
</g>
<!-- unknown.figure_labels&#45;&gt;attr_4 -->
<g id="edge5" class="edge">
<title>unknown.figure_labels&#45;&gt;attr_4</title>
<path fill="none" stroke="#aaaaaa" d="M950.29,-83C960.4,-83 971.9,-83 983.53,-83"/>
<polygon fill="#aaaaaa" stroke="#aaaaaa" points="983.5,-85.45 990.5,-83 983.5,-80.55 983.5,-85.45"/>
</g>
<!-- unknown.visual_pattern -->
<g id="node4" class="node">
<title>unknown.visual_pattern</title>
<path fill="#b8e6b8" stroke="#2c3e50" stroke-width="1.8" d="M350,-129C350,-129 299.5,-129 299.5,-129 293.5,-129 287.5,-123 287.5,-117 287.5,-117 287.5,-105 287.5,-105 287.5,-99 293.5,-93 299.5,-93 299.5,-93 350,-93 350,-93 356,-93 362,-99 362,-105 362,-105 362,-117 362,-117 362,-123 356,-129 350,-129"/>
<text xml:space="preserve" text-anchor="middle" x="324.75" y="-107.5" font-family="Arial" font-size="10.00" fill="#1a1a1a">visual pattern</text>
</g>
<!-- attr_3 -->
<g id="node11" class="node">
<title>attr_3</title>
<path fill="#c7b8e6" stroke="#7f8c8d" stroke-width="1.2" d="M532.75,-163C532.75,-163 417,-163 417,-163 411,-163 405,-157 405,-151 405,-151 405,-139 405,-139 405,-133 411,-127 417,-127 417,-127 532.75,-127 532.75,-127 538.75,-127 544.75,-133 544.75,-139 544.75,-139 544.75,-151 544.75,-151 544.75,-157 538.75,-163 532.75,-163"/>
<text xml:space="preserve" text-anchor="middle" x="474.88" y="-141.5" font-family="Arial" font-size="10.00" fill="#1a1a1a">(+) eye straining appearance</text>
</g>
<!-- unknown.visual_pattern&#45;&gt;attr_3 -->
<g id="edge6" class="edge">
<title>unknown.visual_pattern&#45;&gt;attr_3</title>
<path fill="none" stroke="#aaaaaa" d="M362.75,-119.49C373.05,-121.86 384.64,-124.52 396.35,-127.21"/>
<polygon fill="#aaaaaa" stroke="#aaaaaa" points="395.62,-129.55 402.99,-128.73 396.72,-124.78 395.62,-129.55"/>
</g>
<!-- rel_2 -->
<g id="node15" class="node">
<title>rel_2</title>
<path fill="#f5b8b8" stroke="#d46a6a" stroke-width="1.2" d="M514.38,-98C514.38,-98 435.38,-98 435.38,-98 429.38,-98 423.38,-92 423.38,-86 423.38,-86 423.38,-74 423.38,-74 423.38,-68 429.38,-62 435.38,-62 435.38,-62 514.38,-62 514.38,-62 520.38,-62 526.38,-68 526.38,-74 526.38,-74 526.38,-86 526.38,-86 526.38,-92 520.38,-98 514.38,-98"/>
<text xml:space="preserve" text-anchor="middle" x="474.88" y="-76.5" font-family="Arial" font-size="10.00" fill="#8b0000">causes confusion in</text>
</g>
<!-- unknown.visual_pattern&#45;&gt;rel_2 -->
<g id="edge12" class="edge">
<title>unknown.visual_pattern&#45;&gt;rel_2</title>
<path fill="none" stroke="#d46a6a" stroke-width="1.5" d="M362.75,-103.26C377.93,-100.08 395.92,-96.31 412.95,-92.75"/>
<polygon fill="#d46a6a" stroke="#d46a6a" stroke-width="1.5" points="413.36,-95.53 420.62,-91.15 412.21,-90.04 413.36,-95.53"/>
</g>
<!-- unknown.axes -->
<g id="node5" class="node">
<title>unknown.axes</title>
<path fill="#b8e6b8" stroke="#2c3e50" stroke-width="1.8" d="M45.5,-383C45.5,-383 15.5,-383 15.5,-383 9.5,-383 3.5,-377 3.5,-371 3.5,-371 3.5,-359 3.5,-359 3.5,-353 9.5,-347 15.5,-347 15.5,-347 45.5,-347 45.5,-347 51.5,-347 57.5,-353 57.5,-359 57.5,-359 57.5,-371 57.5,-371 57.5,-377 51.5,-383 45.5,-383"/>
<text xml:space="preserve" text-anchor="middle" x="30.5" y="-361.5" font-family="Arial" font-size="10.00" fill="#1a1a1a">axes</text>
</g>
<!-- attr_6 -->
<g id="node12" class="node">
<title>attr_6</title>
<path fill="#c7b8e6" stroke="#7f8c8d" stroke-width="1.2" d="M232.5,-383C232.5,-383 116,-383 116,-383 110,-383 104,-377 104,-371 104,-371 104,-359 104,-359 104,-353 110,-347 116,-347 116,-347 232.5,-347 232.5,-347 238.5,-347 244.5,-353 244.5,-359 244.5,-359 244.5,-371 244.5,-371 244.5,-377 238.5,-383 232.5,-383"/>
<text xml:space="preserve" text-anchor="middle" x="174.25" y="-361.5" font-family="Arial" font-size="10.00" fill="#1a1a1a">(+) repeated across subplots</text>
</g>
<!-- unknown.axes&#45;&gt;attr_6 -->
<g id="edge7" class="edge">
<title>unknown.axes&#45;&gt;attr_6</title>
<path fill="none" stroke="#aaaaaa" d="M58.16,-365C68.92,-365 81.94,-365 95.3,-365"/>
<polygon fill="#aaaaaa" stroke="#aaaaaa" points="95.14,-367.45 102.14,-365 95.14,-362.55 95.14,-367.45"/>
</g>
<!-- rel_0&#45;&gt;unknown.subplot -->
<g id="edge9" class="edge">
<title>rel_0&#45;&gt;unknown.subplot</title>
<path fill="none" stroke="#d46a6a" stroke-width="1.5" d="M353.69,-194.86C396.65,-199.59 480.65,-203.94 544.75,-177 563.12,-169.28 579.85,-154.54 592.23,-141.37"/>
<polygon fill="#d46a6a" stroke="#d46a6a" stroke-width="1.5" points="594.2,-143.36 597.48,-135.55 590.05,-139.61 594.2,-143.36"/>
</g>
<!-- rel_1&#45;&gt;unknown.figure_labels -->
<g id="edge11" class="edge">
<title>rel_1&#45;&gt;unknown.figure_labels</title>
<path fill="none" stroke="#d46a6a" stroke-width="1.5" d="M838.31,-83C849.21,-83 860.11,-83 870.11,-83"/>
<polygon fill="#d46a6a" stroke="#d46a6a" stroke-width="1.5" points="869.9,-85.8 877.9,-83 869.9,-80.2 869.9,-85.8"/>
</g>
<!-- rel_2&#45;&gt;unknown.subplot -->
<g id="edge13" class="edge">
<title>rel_2&#45;&gt;unknown.subplot</title>
<path fill="none" stroke="#d46a6a" stroke-width="1.5" d="M526.82,-92.93C543.56,-97.18 561.82,-101.82 577.27,-105.74"/>
<polygon fill="#d46a6a" stroke="#d46a6a" stroke-width="1.5" points="576.32,-108.39 584.76,-107.64 577.7,-102.96 576.32,-108.39"/>
</g>
<!-- rel_3&#45;&gt;unknown.visual_pattern -->
<g id="edge15" class="edge">
<title>rel_3&#45;&gt;unknown.visual_pattern</title>
<path fill="none" stroke="#d46a6a" stroke-width="1.5" d="M216.62,-111C235.24,-111 257.32,-111 276.58,-111"/>
<polygon fill="#d46a6a" stroke="#d46a6a" stroke-width="1.5" points="276.39,-113.8 284.39,-111 276.39,-108.2 276.39,-113.8"/>
</g>
<!-- rel_4&#45;&gt;unknown.grid_layout -->
<g id="edge17" class="edge">
<title>rel_4&#45;&gt;unknown.grid_layout</title>
<path fill="none" stroke="#d46a6a" stroke-width="1.5" d="M691.68,-18C634.06,-18 549.59,-18 475.88,-18 323.75,-18 323.75,-18 323.75,-18 222.51,-18 187.97,-21.44 104,-78 78.55,-95.14 58.31,-124.18 45.76,-145.65"/>
<polygon fill="#d46a6a" stroke="#d46a6a" stroke-width="1.5" points="43.47,-144.01 41.97,-152.35 48.34,-146.76 43.47,-144.01"/>
</g>
</g>
</svg>
