<?xml version="1.0" encoding="UTF-8" standalone="no"?>
<!DOCTYPE svg PUBLIC "-//W3C//DTD SVG 1.1//EN"
 "http://www.w3.org/Graphics/SVG/1.1/DTD/svg11.dtd">
<!-- Generated by graphviz version 14.1.5 (20260411.2331)
 -->
<!-- Title: InfoVisJ.2402.12(1).png Pages: 1 -->
<svg width="1213pt" height="326pt"
 viewBox="0.00 0.00 1213.00 326.00" xmlns="http://www.w3.org/2000/svg" xmlns:xlink="http://www.w3.org/1999/xlink">
<g id="graph0" class="graph" transform="scale(1 1) rotate(0) translate(4 322.25)">
<title>InfoVisJ.2402.12(1).png</title>
<polygon fill="white" stroke="none" points="-4,4 -4,-322.25 1208.5,-322.25 1208.5,4 -4,4"/>
<text xml:space="preserve" text-anchor="start" x="527.25" y="-297.95" font-family="Arial" font-weight="bold" font-size="14.00">InfoVisJ.2402.12(1).png</text>
<text xml:space="preserve" text-anchor="start" x="558.38" y="-278" font-family="Arial" font-size="11.00">Area &#160;| &#160;VC = 0.88</text>
<path fill="#b8e6b8" stroke="none" d="M392.88,-253C392.88,-253 400.88,-253 400.88,-253 403.88,-253 406.88,-256 406.88,-259 406.88,-259 406.88,-265 406.88,-265 406.88,-268 403.88,-271 400.88,-271 400.88,-271 392.88,-271 392.88,-271 389.88,-271 386.88,-268 386.88,-265 386.88,-265 386.88,-259 386.88,-259 386.88,-256 389.88,-253 392.88,-253"/>
<path fill="none" stroke="black" d="M392.88,-253C392.88,-253 400.88,-253 400.88,-253 403.88,-253 406.88,-256 406.88,-259 406.88,-259 406.88,-265 406.88,-265 406.88,-268 403.88,-271 400.88,-271 400.88,-271 392.88,-271 392.88,-271 389.88,-271 386.88,-268 386.88,-265 386.88,-265 386.88,-259 386.88,-259 386.88,-256 389.88,-253 392.88,-253"/>
<text xml:space="preserve" text-anchor="start" x="395.38" y="-258.25" font-family="Arial" font-size="10.00"> </text>
<text xml:space="preserve" text-anchor="start" x="410.88" y="-258.25" font-family="Arial" font-size="10.00">Object</text>
<path fill="#c7b8e6" stroke="none" d="M449.38,-253C449.38,-253 457.38,-253 457.38,-253 460.38,-253 463.38,-256 463.38,-259 463.38,-259 463.38,-265 463.38,-265 463.38,-268 460.38,-271 457.38,-271 457.38,-271 449.38,-271 449.38,-271 446.38,-271 443.38,-268 443.38,-265 443.38,-265 443.38,-259 443.38,-259 443.38,-256 446.38,-253 449.38,-253"/>
<path fill="none" stroke="black" d="M449.38,-253C449.38,-253 457.38,-253 457.38,-253 460.38,-253 463.38,-256 463.38,-259 463.38,-259 463.38,-265 463.38,-265 463.38,-268 460.38,-271 457.38,-271 457.38,-271 449.38,-271 449.38,-271 446.38,-271 443.38,-268 443.38,-265 443.38,-265 443.38,-259 443.38,-259 443.38,-256 446.38,-253 449.38,-253"/>
<text xml:space="preserve" text-anchor="start" x="451.88" y="-258.25" font-family="Arial" font-size="10.00"> </text>
<text xml:space="preserve" text-anchor="start" x="467.38" y="-258.25" font-family="Arial" font-size="10.00">Attribute</text>
<path fill="#f5b8b8" stroke="none" d="M514.12,-253C514.12,-253 522.12,-253 522.12,-253 525.12,-253 528.12,-256 528.12,-259 528.12,-259 528.12,-265 528.12,-265 528.12,-268 525.12,-271 522.12,-271 522.12,-271 514.12,-271 514.12,-271 511.12,-271 508.12,-268 508.12,-265 508.12,-265 508.12,-259 508.12,-259 508.12,-256 511.12,-253 514.12,-253"/>
<path fill="none" stroke="black" d="M514.12,-253C514.12,-253 522.12,-253 522.12,-253 525.12,-253 528.12,-256 528.12,-259 528.12,-259 528.12,-265 528.12,-265 528.12,-268 525.12,-271 522.12,-271 522.12,-271 514.12,-271 514.12,-271 511.12,-271 508.12,-268 508.12,-265 508.12,-265 508.12,-259 508.12,-259 508.12,-256 511.12,-253 514.12,-253"/>
<text xml:space="preserve" text-anchor="start" x="516.62" y="-258.25" font-family="Arial" font-size="10.00"> </text>
<text xml:space="preserve" text-anchor="start" x="532.12" y="-258.25" font-family="Arial" font-size="10.00">Relationship</text>
<text xml:space="preserve" text-anchor="start" x="592.12" y="-259.5" font-family="Arial" font-weight="bold" font-size="10.00">(+)</text>
<text xml:space="preserve" text-anchor="start" x="604.12" y="-259.5" font-family="Arial" font-size="10.00"> increases complexity</text>
<text xml:space="preserve" text-anchor="start" x="705.38" y="-259.5" font-family="Arial" font-weight="bold" font-size="10.00">(−)</text>
<text xml:space="preserve" text-anchor="start" x="717.38" y="-259.5" font-family="Arial" font-size="10.00"> decreases complexity</text>
<!-- unknown.area_shapes -->
<g id="node1" class="node">
<title>unknown.area_shapes</title>
<path fill="#b8e6b8" stroke="#2c3e50" stroke-width="1.8" d="M367.62,-36C367.62,-36 322.38,-36 322.38,-36 316.38,-36 310.38,-30 310.38,-24 310.38,-24 310.38,-12 310.38,-12 310.38,-6 316.38,0 322.38,0 322.38,0 367.62,0 367.62,0 373.62,0 379.62,-6 379.62,-12 379.62,-12 379.62,-24 379.62,-24 379.62,-30 373.62,-36 367.62,-36"/>
<text xml:space="preserve" text-anchor="middle" x="345" y="-14.5" font-family="Arial" font-size="10.00" fill="#1a1a1a">area shapes</text>
</g>
<!-- attr_0 -->
<g id="node7" class="node">
<title>attr_0</title>
<path fill="#c7b8e6" stroke="#7f8c8d" stroke-width="1.2" d="M561.25,-36C561.25,-36 444.75,-36 444.75,-36 438.75,-36 432.75,-30 432.75,-24 432.75,-24 432.75,-12 432.75,-12 432.75,-6 438.75,0 444.75,0 444.75,0 561.25,0 561.25,0 567.25,0 573.25,-6 573.25,-12 573.25,-12 573.25,-24 573.25,-24 573.25,-30 567.25,-36 561.25,-36"/>
<text xml:space="preserve" text-anchor="middle" x="503" y="-14.5" font-family="Arial" font-size="10.00" fill="#1a1a1a">(+) multitude of observations</text>
</g>
<!-- unknown.area_shapes&#45;&gt;attr_0 -->
<g id="edge1" class="edge">
<title>unknown.area_shapes&#45;&gt;attr_0</title>
<path fill="none" stroke="#aaaaaa" d="M380.23,-18C393.18,-18 408.49,-18 423.82,-18"/>
<polygon fill="#aaaaaa" stroke="#aaaaaa" points="423.81,-20.45 430.81,-18 423.81,-15.55 423.81,-20.45"/>
</g>
<!-- property.color -->
<g id="node2" class="node">
<title>property.color</title>
<path fill="#b8e6b8" stroke="#2c3e50" stroke-width="1.8" d="M51.88,-214C51.88,-214 21.88,-214 21.88,-214 15.88,-214 9.88,-208 9.88,-202 9.88,-202 9.88,-190 9.88,-190 9.88,-184 15.88,-178 21.88,-178 21.88,-178 51.88,-178 51.88,-178 57.88,-178 63.88,-184 63.88,-190 63.88,-190 63.88,-202 63.88,-202 63.88,-208 57.88,-214 51.88,-214"/>
<text xml:space="preserve" text-anchor="middle" x="36.88" y="-192.5" font-family="Arial" font-size="10.00" fill="#1a1a1a">color</text>
</g>
<!-- attr_1 -->
<g id="node8" class="node">
<title>attr_1</title>
<path fill="#c7b8e6" stroke="#7f8c8d" stroke-width="1.2" d="M230.62,-247C230.62,-247 149.38,-247 149.38,-247 143.38,-247 137.38,-241 137.38,-235 137.38,-235 137.38,-223 137.38,-223 137.38,-217 143.38,-211 149.38,-211 149.38,-211 230.62,-211 230.62,-211 236.62,-211 242.62,-217 242.62,-223 242.62,-223 242.62,-235 242.62,-235 242.62,-241 236.62,-247 230.62,-247"/>
<text xml:space="preserve" text-anchor="middle" x="190" y="-225.5" font-family="Arial" font-size="10.00" fill="#1a1a1a">(+) high color variety</text>
</g>
<!-- property.color&#45;&gt;attr_1 -->
<g id="edge2" class="edge">
<title>property.color&#45;&gt;attr_1</title>
<path fill="none" stroke="#aaaaaa" d="M64.55,-201.82C82.36,-205.71 106.52,-210.99 128.81,-215.86"/>
<polygon fill="#aaaaaa" stroke="#aaaaaa" points="128.09,-218.21 135.45,-217.31 129.13,-213.42 128.09,-218.21"/>
</g>
<!-- rel_0 -->
<g id="node13" class="node">
<title>rel_0</title>
<path fill="#f5b8b8" stroke="#d46a6a" stroke-width="1.2" d="M246.38,-182C246.38,-182 133.62,-182 133.62,-182 127.62,-182 121.62,-176 121.62,-170 121.62,-170 121.62,-158 121.62,-158 121.62,-152 127.62,-146 133.62,-146 133.62,-146 246.38,-146 246.38,-146 252.38,-146 258.38,-152 258.38,-158 258.38,-158 258.38,-170 258.38,-170 258.38,-176 252.38,-182 246.38,-182"/>
<text xml:space="preserve" text-anchor="middle" x="190" y="-160.5" font-family="Arial" font-size="10.00" fill="#8b0000">increases visual complexity</text>
</g>
<!-- property.color&#45;&gt;rel_0 -->
<g id="edge7" class="edge">
<title>property.color&#45;&gt;rel_0</title>
<path fill="none" stroke="#d46a6a" stroke-width="1.5" d="M64.55,-190.35C77.72,-187.56 94.37,-184.04 111.17,-180.48"/>
<polygon fill="#d46a6a" stroke="#d46a6a" stroke-width="1.5" points="111.59,-183.25 118.83,-178.86 110.43,-177.78 111.59,-183.25"/>
</g>
<!-- unknown.size_variation -->
<g id="node3" class="node">
<title>unknown.size_variation</title>
<path fill="#b8e6b8" stroke="#2c3e50" stroke-width="1.8" d="M61.75,-69C61.75,-69 12,-69 12,-69 6,-69 0,-63 0,-57 0,-57 0,-45 0,-45 0,-39 6,-33 12,-33 12,-33 61.75,-33 61.75,-33 67.75,-33 73.75,-39 73.75,-45 73.75,-45 73.75,-57 73.75,-57 73.75,-63 67.75,-69 61.75,-69"/>
<text xml:space="preserve" text-anchor="middle" x="36.88" y="-47.5" font-family="Arial" font-size="10.00" fill="#1a1a1a">size variation</text>
</g>
<!-- attr_2 -->
<g id="node9" class="node">
<title>attr_2</title>
<path fill="#c7b8e6" stroke="#7f8c8d" stroke-width="1.2" d="M251.25,-101C251.25,-101 128.75,-101 128.75,-101 122.75,-101 116.75,-95 116.75,-89 116.75,-89 116.75,-77 116.75,-77 116.75,-71 122.75,-65 128.75,-65 128.75,-65 251.25,-65 251.25,-65 257.25,-65 263.25,-71 263.25,-77 263.25,-77 263.25,-89 263.25,-89 263.25,-95 257.25,-101 251.25,-101"/>
<text xml:space="preserve" text-anchor="middle" x="190" y="-79.5" font-family="Arial" font-size="10.00" fill="#1a1a1a">(+) size decreasing downward</text>
</g>
<!-- unknown.size_variation&#45;&gt;attr_2 -->
<g id="edge3" class="edge">
<title>unknown.size_variation&#45;&gt;attr_2</title>
<path fill="none" stroke="#aaaaaa" d="M74.46,-58.75C84.75,-60.93 96.37,-63.39 108.16,-65.88"/>
<polygon fill="#aaaaaa" stroke="#aaaaaa" points="107.5,-68.25 114.86,-67.3 108.52,-63.45 107.5,-68.25"/>
</g>
<!-- rel_1 -->
<g id="node14" class="node">
<title>rel_1</title>
<path fill="#f5b8b8" stroke="#d46a6a" stroke-width="1.2" d="M215.25,-36C215.25,-36 164.75,-36 164.75,-36 158.75,-36 152.75,-30 152.75,-24 152.75,-24 152.75,-12 152.75,-12 152.75,-6 158.75,0 164.75,0 164.75,0 215.25,0 215.25,0 221.25,0 227.25,-6 227.25,-12 227.25,-12 227.25,-24 227.25,-24 227.25,-30 221.25,-36 215.25,-36"/>
<text xml:space="preserve" text-anchor="middle" x="190" y="-14.5" font-family="Arial" font-size="10.00" fill="#8b0000">varies across</text>
</g>
<!-- unknown.size_variation&#45;&gt;rel_1 -->
<g id="edge9" class="edge">
<title>unknown.size_variation&#45;&gt;rel_1</title>
<path fill="none" stroke="#d46a6a" stroke-width="1.5" d="M74.46,-43.01C94.91,-38.55 120.61,-32.93 142.48,-28.16"/>
<polygon fill="#d46a6a" stroke="#d46a6a" stroke-width="1.5" points="142.79,-30.96 150.01,-26.51 141.6,-25.48 142.79,-30.96"/>
</g>
<!-- unknown.left_side_pattern -->
<g id="node4" class="node">
<title>unknown.left_side_pattern</title>
<path fill="#b8e6b8" stroke="#2c3e50" stroke-width="1.8" d="M693.75,-133C693.75,-133 634.25,-133 634.25,-133 628.25,-133 622.25,-127 622.25,-121 622.25,-121 622.25,-109 622.25,-109 622.25,-103 628.25,-97 634.25,-97 634.25,-97 693.75,-97 693.75,-97 699.75,-97 705.75,-103 705.75,-109 705.75,-109 705.75,-121 705.75,-121 705.75,-127 699.75,-133 693.75,-133"/>
<text xml:space="preserve" text-anchor="middle" x="664" y="-111.5" font-family="Arial" font-size="10.00" fill="#1a1a1a">left side pattern</text>
</g>
<!-- attr_3 -->
<g id="node10" class="node">
<title>attr_3</title>
<path fill="#c7b8e6" stroke="#7f8c8d" stroke-width="1.2" d="M882.5,-166C882.5,-166 760.75,-166 760.75,-166 754.75,-166 748.75,-160 748.75,-154 748.75,-154 748.75,-142 748.75,-142 748.75,-136 754.75,-130 760.75,-130 760.75,-130 882.5,-130 882.5,-130 888.5,-130 894.5,-136 894.5,-142 894.5,-142 894.5,-154 894.5,-154 894.5,-160 888.5,-166 882.5,-166"/>
<text xml:space="preserve" text-anchor="middle" x="821.62" y="-144.5" font-family="Arial" font-size="10.00" fill="#1a1a1a">(+) unfamiliar complex pattern</text>
</g>
<!-- unknown.left_side_pattern&#45;&gt;attr_3 -->
<g id="edge4" class="edge">
<title>unknown.left_side_pattern&#45;&gt;attr_3</title>
<path fill="none" stroke="#aaaaaa" d="M706.3,-123.76C716.83,-125.99 728.52,-128.47 740.29,-130.97"/>
<polygon fill="#aaaaaa" stroke="#aaaaaa" points="739.6,-133.32 746.96,-132.38 740.62,-128.53 739.6,-133.32"/>
</g>
<!-- rel_2 -->
<g id="node15" class="node">
<title>rel_2</title>
<path fill="#f5b8b8" stroke="#d46a6a" stroke-width="1.2" d="M843.88,-101C843.88,-101 799.38,-101 799.38,-101 793.38,-101 787.38,-95 787.38,-89 787.38,-89 787.38,-77 787.38,-77 787.38,-71 793.38,-65 799.38,-65 799.38,-65 843.88,-65 843.88,-65 849.88,-65 855.88,-71 855.88,-77 855.88,-77 855.88,-89 855.88,-89 855.88,-95 849.88,-101 843.88,-101"/>
<text xml:space="preserve" text-anchor="middle" x="821.62" y="-79.5" font-family="Arial" font-size="10.00" fill="#8b0000">overwhelms</text>
</g>
<!-- unknown.left_side_pattern&#45;&gt;rel_2 -->
<g id="edge11" class="edge">
<title>unknown.left_side_pattern&#45;&gt;rel_2</title>
<path fill="none" stroke="#d46a6a" stroke-width="1.5" d="M706.3,-106.51C728.16,-102.01 755,-96.49 777.18,-91.93"/>
<polygon fill="#d46a6a" stroke="#d46a6a" stroke-width="1.5" points="777.51,-94.72 784.78,-90.37 776.38,-89.24 777.51,-94.72"/>
</g>
<!-- unknown.data_elements -->
<g id="node5" class="node">
<title>unknown.data_elements</title>
<path fill="#b8e6b8" stroke="#2c3e50" stroke-width="1.8" d="M371.75,-182C371.75,-182 318.25,-182 318.25,-182 312.25,-182 306.25,-176 306.25,-170 306.25,-170 306.25,-158 306.25,-158 306.25,-152 312.25,-146 318.25,-146 318.25,-146 371.75,-146 371.75,-146 377.75,-146 383.75,-152 383.75,-158 383.75,-158 383.75,-170 383.75,-170 383.75,-176 377.75,-182 371.75,-182"/>
<text xml:space="preserve" text-anchor="middle" x="345" y="-160.5" font-family="Arial" font-size="10.00" fill="#1a1a1a">data elements</text>
</g>
<!-- attr_4 -->
<g id="node11" class="node">
<title>attr_4</title>
<path fill="#c7b8e6" stroke="#7f8c8d" stroke-width="1.2" d="M567.25,-198C567.25,-198 438.75,-198 438.75,-198 432.75,-198 426.75,-192 426.75,-186 426.75,-186 426.75,-174 426.75,-174 426.75,-168 432.75,-162 438.75,-162 438.75,-162 567.25,-162 567.25,-162 573.25,-162 579.25,-168 579.25,-174 579.25,-174 579.25,-186 579.25,-186 579.25,-192 573.25,-198 567.25,-198"/>
<text xml:space="preserve" text-anchor="middle" x="503" y="-176.5" font-family="Arial" font-size="10.00" fill="#1a1a1a">(+) dense overlapping elements</text>
</g>
<!-- unknown.data_elements&#45;&gt;attr_4 -->
<g id="edge5" class="edge">
<title>unknown.data_elements&#45;&gt;attr_4</title>
<path fill="none" stroke="#aaaaaa" d="M384.56,-167.96C394.9,-169.02 406.49,-170.2 418.25,-171.41"/>
<polygon fill="#aaaaaa" stroke="#aaaaaa" points="417.7,-173.82 424.91,-172.09 418.2,-168.94 417.7,-173.82"/>
</g>
<!-- rel_3 -->
<g id="node16" class="node">
<title>rel_3</title>
<path fill="#f5b8b8" stroke="#d46a6a" stroke-width="1.2" d="M544.75,-133C544.75,-133 461.25,-133 461.25,-133 455.25,-133 449.25,-127 449.25,-121 449.25,-121 449.25,-109 449.25,-109 449.25,-103 455.25,-97 461.25,-97 461.25,-97 544.75,-97 544.75,-97 550.75,-97 556.75,-103 556.75,-109 556.75,-109 556.75,-121 556.75,-121 556.75,-127 550.75,-133 544.75,-133"/>
<text xml:space="preserve" text-anchor="middle" x="503" y="-111.5" font-family="Arial" font-size="10.00" fill="#8b0000">requires expertise for</text>
</g>
<!-- unknown.data_elements&#45;&gt;rel_3 -->
<g id="edge13" class="edge">
<title>unknown.data_elements&#45;&gt;rel_3</title>
<path fill="none" stroke="#d46a6a" stroke-width="1.5" d="M384.56,-151.89C401.08,-146.7 420.8,-140.5 439.32,-134.69"/>
<polygon fill="#d46a6a" stroke="#d46a6a" stroke-width="1.5" points="439.92,-137.43 446.71,-132.37 438.24,-132.09 439.92,-137.43"/>
</g>
<!-- text.axis_label -->
<g id="node6" class="node">
<title>text.axis_label</title>
<path fill="#b8e6b8" stroke="#2c3e50" stroke-width="1.8" d="M982.75,-101C982.75,-101 949.5,-101 949.5,-101 943.5,-101 937.5,-95 937.5,-89 937.5,-89 937.5,-77 937.5,-77 937.5,-71 943.5,-65 949.5,-65 949.5,-65 982.75,-65 982.75,-65 988.75,-65 994.75,-71 994.75,-77 994.75,-77 994.75,-89 994.75,-89 994.75,-95 988.75,-101 982.75,-101"/>
<text xml:space="preserve" text-anchor="middle" x="966.12" y="-79.5" font-family="Arial" font-size="10.00" fill="#1a1a1a">axis label</text>
</g>
<!-- attr_5 -->
<g id="node12" class="node">
<title>attr_5</title>
<path fill="#c7b8e6" stroke="#7f8c8d" stroke-width="1.2" d="M1192.5,-101C1192.5,-101 1049.75,-101 1049.75,-101 1043.75,-101 1037.75,-95 1037.75,-89 1037.75,-89 1037.75,-77 1037.75,-77 1037.75,-71 1043.75,-65 1049.75,-65 1049.75,-65 1192.5,-65 1192.5,-65 1198.5,-65 1204.5,-71 1204.5,-77 1204.5,-77 1204.5,-89 1204.5,-89 1204.5,-95 1198.5,-101 1192.5,-101"/>
<text xml:space="preserve" text-anchor="middle" x="1121.12" y="-79.5" font-family="Arial" font-size="10.00" fill="#1a1a1a">(+) requires specialized knowledge</text>
</g>
<!-- text.axis_label&#45;&gt;attr_5 -->
<g id="edge6" class="edge">
<title>text.axis_label&#45;&gt;attr_5</title>
<path fill="none" stroke="#aaaaaa" d="M995.54,-83C1005.3,-83 1016.82,-83 1028.84,-83"/>
<polygon fill="#aaaaaa" stroke="#aaaaaa" points="1028.72,-85.45 1035.72,-83 1028.72,-80.55 1028.72,-85.45"/>
</g>
<!-- rel_0&#45;&gt;unknown.data_elements -->
<g id="edge8" class="edge">
<title>rel_0&#45;&gt;unknown.data_elements</title>
<path fill="none" stroke="#d46a6a" stroke-width="1.5" d="M258.55,-164C271.06,-164 283.89,-164 295.68,-164"/>
<polygon fill="#d46a6a" stroke="#d46a6a" stroke-width="1.5" points="295.47,-166.8 303.47,-164 295.47,-161.2 295.47,-166.8"/>
</g>
<!-- rel_1&#45;&gt;unknown.area_shapes -->
<g id="edge10" class="edge">
<title>rel_1&#45;&gt;unknown.area_shapes</title>
<path fill="none" stroke="#d46a6a" stroke-width="1.5" d="M227.65,-18C249.19,-18 276.58,-18 299.38,-18"/>
<polygon fill="#d46a6a" stroke="#d46a6a" stroke-width="1.5" points="299.22,-20.8 307.22,-18 299.22,-15.2 299.22,-20.8"/>
</g>
<!-- rel_2&#45;&gt;text.axis_label -->
<g id="edge12" class="edge">
<title>rel_2&#45;&gt;text.axis_label</title>
<path fill="none" stroke="#d46a6a" stroke-width="1.5" d="M856.4,-83C877.57,-83 904.91,-83 926.89,-83"/>
<polygon fill="#d46a6a" stroke="#d46a6a" stroke-width="1.5" points="926.6,-85.8 934.6,-83 926.6,-80.2 926.6,-85.8"/>
</g>
<!-- rel_3&#45;&gt;unknown.left_side_pattern -->
<g id="edge14" class="edge">
<title>rel_3&#45;&gt;unknown.left_side_pattern</title>
<path fill="none" stroke="#d46a6a" stroke-width="1.5" d="M556.94,-115C574.54,-115 594.1,-115 611.58,-115"/>
<polygon fill="#d46a6a" stroke="#d46a6a" stroke-width="1.5" points="611.33,-117.8 619.33,-115 611.33,-112.2 611.33,-117.8"/>
</g>
</g>
</svg>
