<?xml version="1.0" encoding="UTF-8" standalone="no"?>
<!DOCTYPE svg PUBLIC "-//W3C//DTD SVG 1.1//EN"
 "http://www.w3.org/Graphics/SVG/1.1/DTD/svg11.dtd">
<!-- Generated by graphviz version 14.1.5 (20260411.2331)
 -->
<!-- Title: InfoVisC.211.18.png Pages: 1 -->
<svg width="790pt" height="316pt"
 viewBox="0.00 0.00 790.00 316.00" xmlns="http://www.w3.org/2000/svg" xmlns:xlink="http://www.w3.org/1999/xlink">
<g id="graph0" class="graph" transform="scale(1 1) rotate(0) translate(4 312.25)">
<title>InfoVisC.211.18.png</title>
<polygon fill="white" stroke="none" points="-4,4 -4,-312.25 785.75,-312.25 785.75,4 -4,4"/>
<text xml:space="preserve" text-anchor="start" x="327.12" y="-287.95" font-family="Arial" font-weight="bold" font-size="14.00">InfoVisC.211.18.png</text>
<text xml:space="preserve" text-anchor="start" x="350" y="-268" font-family="Arial" font-size="11.00">Bar &#160;| &#160;VC = 0.30</text>
<path fill="#b8e6b8" stroke="none" d="M181.5,-243C181.5,-243 189.5,-243 189.5,-243 192.5,-243 195.5,-246 195.5,-249 195.5,-249 195.5,-255 195.5,-255 195.5,-258 192.5,-261 189.5,-261 189.5,-261 181.5,-261 181.5,-261 178.5,-261 175.5,-258 175.5,-255 175.5,-255 175.5,-249 175.5,-249 175.5,-246 178.5,-243 181.5,-243"/>
<path fill="none" stroke="black" d="M181.5,-243C181.5,-243 189.5,-243 189.5,-243 192.5,-243 195.5,-246 195.5,-249 195.5,-249 195.5,-255 195.5,-255 195.5,-258 192.5,-261 189.5,-261 189.5,-261 181.5,-261 181.5,-261 178.5,-261 175.5,-258 175.5,-255 175.5,-255 175.5,-249 175.5,-249 175.5,-246 178.5,-243 181.5,-243"/>
<text xml:space="preserve" text-anchor="start" x="184" y="-248.25" font-family="Arial" font-size="10.00"> </text>
<text xml:space="preserve" text-anchor="start" x="199.5" y="-248.25" font-family="Arial" font-size="10.00">Object</text>
<path fill="#c7b8e6" stroke="none" d="M238,-243C238,-243 246,-243 246,-243 249,-243 252,-246 252,-249 252,-249 252,-255 252,-255 252,-258 249,-261 246,-261 246,-261 238,-261 238,-261 235,-261 232,-258 232,-255 232,-255 232,-249 232,-249 232,-246 235,-243 238,-243"/>
<path fill="none" stroke="black" d="M238,-243C238,-243 246,-243 246,-243 249,-243 252,-246 252,-249 252,-249 252,-255 252,-255 252,-258 249,-261 246,-261 246,-261 238,-261 238,-261 235,-261 232,-258 232,-255 232,-255 232,-249 232,-249 232,-246 235,-243 238,-243"/>
<text xml:space="preserve" text-anchor="start" x="240.5" y="-248.25" font-family="Arial" font-size="10.00"> </text>
<text xml:space="preserve" text-anchor="start" x="256" y="-248.25" font-family="Arial" font-size="10.00">Attribute</text>
<path fill="#f5b8b8" stroke="none" d="M302.75,-243C302.75,-243 310.75,-243 310.75,-243 313.75,-243 316.75,-246 316.75,-249 316.75,-249 316.75,-255 316.75,-255 316.75,-258 313.75,-261 310.75,-261 310.75,-261 302.75,-261 302.75,-261 299.75,-261 296.75,-258 296.75,-255 296.75,-255 296.75,-249 296.75,-249 296.75,-246 299.75,-243 302.75,-243"/>
<path fill="none" stroke="black" d="M302.75,-243C302.75,-243 310.75,-243 310.75,-243 313.75,-243 316.75,-246 316.75,-249 316.75,-249 316.75,-255 316.75,-255 316.75,-258 313.75,-261 310.75,-261 310.75,-261 302.75,-261 302.75,-261 299.75,-261 296.75,-258 296.75,-255 296.75,-255 296.75,-249 296.75,-249 296.75,-246 299.75,-243 302.75,-243"/>
<text xml:space="preserve" text-anchor="start" x="305.25" y="-248.25" font-family="Arial" font-size="10.00"> </text>
<text xml:space="preserve" text-anchor="start" x="320.75" y="-248.25" font-family="Arial" font-size="10.00">Relationship</text>
<text xml:space="preserve" text-anchor="start" x="380.75" y="-249.5" font-family="Arial" font-weight="bold" font-size="10.00">(+)</text>
<text xml:space="preserve" text-anchor="start" x="392.75" y="-249.5" font-family="Arial" font-size="10.00"> increases complexity</text>
<text xml:space="preserve" text-anchor="start" x="494" y="-249.5" font-family="Arial" font-weight="bold" font-size="10.00">(−)</text>
<text xml:space="preserve" text-anchor="start" x="506" y="-249.5" font-family="Arial" font-size="10.00"> decreases complexity</text>
<!-- mark.bar -->
<g id="node1" class="node">
<title>mark.bar</title>
<path fill="#b8e6b8" stroke="#2c3e50" stroke-width="1.8" d="M42,-107C42,-107 12,-107 12,-107 6,-107 0,-101 0,-95 0,-95 0,-83 0,-83 0,-77 6,-71 12,-71 12,-71 42,-71 42,-71 48,-71 54,-77 54,-83 54,-83 54,-95 54,-95 54,-101 48,-107 42,-107"/>
<text xml:space="preserve" text-anchor="middle" x="27" y="-85.5" font-family="Arial" font-size="10.00" fill="#1a1a1a">bar</text>
</g>
<!-- attr_0 -->
<g id="node5" class="node">
<title>attr_0</title>
<path fill="#c7b8e6" stroke="#7f8c8d" stroke-width="1.2" d="M205.62,-172C205.62,-172 113.12,-172 113.12,-172 107.12,-172 101.12,-166 101.12,-160 101.12,-160 101.12,-148 101.12,-148 101.12,-142 107.12,-136 113.12,-136 113.12,-136 205.62,-136 205.62,-136 211.62,-136 217.62,-142 217.62,-148 217.62,-148 217.62,-160 217.62,-160 217.62,-166 211.62,-172 205.62,-172"/>
<text xml:space="preserve" text-anchor="middle" x="159.38" y="-150.5" font-family="Arial" font-size="10.00" fill="#1a1a1a">(−) simple familiar form</text>
</g>
<!-- mark.bar&#45;&gt;attr_0 -->
<g id="edge1" class="edge">
<title>mark.bar&#45;&gt;attr_0</title>
<path fill="none" stroke="#aaaaaa" d="M54.7,-102.31C71.74,-110.81 94.25,-122.03 113.94,-131.85"/>
<polygon fill="#aaaaaa" stroke="#aaaaaa" points="112.62,-133.93 119.98,-134.86 114.81,-129.54 112.62,-133.93"/>
</g>
<!-- rel_0 -->
<g id="node10" class="node">
<title>rel_0</title>
<path fill="#f5b8b8" stroke="#d46a6a" stroke-width="1.2" d="M185,-107C185,-107 133.75,-107 133.75,-107 127.75,-107 121.75,-101 121.75,-95 121.75,-95 121.75,-83 121.75,-83 121.75,-77 127.75,-71 133.75,-71 133.75,-71 185,-71 185,-71 191,-71 197,-77 197,-83 197,-83 197,-95 197,-95 197,-101 191,-107 185,-107"/>
<text xml:space="preserve" text-anchor="middle" x="159.38" y="-85.5" font-family="Arial" font-size="10.00" fill="#8b0000">contributes to</text>
</g>
<!-- mark.bar&#45;&gt;rel_0 -->
<g id="edge6" class="edge">
<title>mark.bar&#45;&gt;rel_0</title>
<path fill="none" stroke="#d46a6a" stroke-width="1.5" d="M54.7,-89C70.99,-89 92.28,-89 111.33,-89"/>
<polygon fill="#d46a6a" stroke="#d46a6a" stroke-width="1.5" points="111.06,-91.8 119.06,-89 111.06,-86.2 111.06,-91.8"/>
</g>
<!-- rel_2 -->
<g id="node12" class="node">
<title>rel_2</title>
<path fill="#f5b8b8" stroke="#d46a6a" stroke-width="1.2" d="M321.25,-36C321.25,-36 276.75,-36 276.75,-36 270.75,-36 264.75,-30 264.75,-24 264.75,-24 264.75,-12 264.75,-12 264.75,-6 270.75,0 276.75,0 276.75,0 321.25,0 321.25,0 327.25,0 333.25,-6 333.25,-12 333.25,-12 333.25,-24 333.25,-24 333.25,-30 327.25,-36 321.25,-36"/>
<text xml:space="preserve" text-anchor="middle" x="299" y="-14.5" font-family="Arial" font-size="10.00" fill="#8b0000">encodes via</text>
</g>
<!-- mark.bar&#45;&gt;rel_2 -->
<g id="edge10" class="edge">
<title>mark.bar&#45;&gt;rel_2</title>
<path fill="none" stroke="#d46a6a" stroke-width="1.5" d="M54.86,-74.15C67.36,-67.77 82.61,-60.71 97,-56 149.74,-38.73 212.98,-28.38 254.26,-22.95"/>
<polygon fill="#d46a6a" stroke="#d46a6a" stroke-width="1.5" points="254.42,-25.75 262.01,-21.95 253.71,-20.19 254.42,-25.75"/>
</g>
<!-- text.axis_label -->
<g id="node2" class="node">
<title>text.axis_label</title>
<path fill="#b8e6b8" stroke="#2c3e50" stroke-width="1.8" d="M599.75,-36C599.75,-36 566.5,-36 566.5,-36 560.5,-36 554.5,-30 554.5,-24 554.5,-24 554.5,-12 554.5,-12 554.5,-6 560.5,0 566.5,0 566.5,0 599.75,0 599.75,0 605.75,0 611.75,-6 611.75,-12 611.75,-12 611.75,-24 611.75,-24 611.75,-30 605.75,-36 599.75,-36"/>
<text xml:space="preserve" text-anchor="middle" x="583.12" y="-14.5" font-family="Arial" font-size="10.00" fill="#1a1a1a">axis label</text>
</g>
<!-- attr_3 -->
<g id="node6" class="node">
<title>attr_3</title>
<path fill="#c7b8e6" stroke="#7f8c8d" stroke-width="1.2" d="M769.75,-36C769.75,-36 666.75,-36 666.75,-36 660.75,-36 654.75,-30 654.75,-24 654.75,-24 654.75,-12 654.75,-12 654.75,-6 660.75,0 666.75,0 666.75,0 769.75,0 769.75,0 775.75,0 781.75,-6 781.75,-12 781.75,-12 781.75,-24 781.75,-24 781.75,-30 775.75,-36 769.75,-36"/>
<text xml:space="preserve" text-anchor="middle" x="718.25" y="-14.5" font-family="Arial" font-size="10.00" fill="#1a1a1a">(−) minimal text elements</text>
</g>
<!-- text.axis_label&#45;&gt;attr_3 -->
<g id="edge2" class="edge">
<title>text.axis_label&#45;&gt;attr_3</title>
<path fill="none" stroke="#aaaaaa" d="M612.36,-18C622.34,-18 634.07,-18 646,-18"/>
<polygon fill="#aaaaaa" stroke="#aaaaaa" points="645.76,-20.45 652.76,-18 645.76,-15.55 645.76,-20.45"/>
</g>
<!-- whole.visualization -->
<g id="node3" class="node">
<title>whole.visualization</title>
<path fill="#b8e6b8" stroke="#2c3e50" stroke-width="1.8" d="M314,-116C314,-116 284,-116 284,-116 278,-116 272,-110 272,-104 272,-104 272,-92 272,-92 272,-86 278,-80 284,-80 284,-80 314,-80 314,-80 320,-80 326,-86 326,-92 326,-92 326,-104 326,-104 326,-110 320,-116 314,-116"/>
<text xml:space="preserve" text-anchor="middle" x="299" y="-94.5" font-family="Arial" font-size="10.00" fill="#1a1a1a">chart</text>
</g>
<!-- attr_1 -->
<g id="node7" class="node">
<title>attr_1</title>
<path fill="#c7b8e6" stroke="#7f8c8d" stroke-width="1.2" d="M499.5,-197C499.5,-197 388.25,-197 388.25,-197 382.25,-197 376.25,-191 376.25,-185 376.25,-185 376.25,-173 376.25,-173 376.25,-167 382.25,-161 388.25,-161 388.25,-161 499.5,-161 499.5,-161 505.5,-161 511.5,-167 511.5,-173 511.5,-173 511.5,-185 511.5,-185 511.5,-191 505.5,-197 499.5,-197"/>
<text xml:space="preserve" text-anchor="middle" x="443.88" y="-175.5" font-family="Arial" font-size="10.00" fill="#1a1a1a">(−) incredibly simple overall</text>
</g>
<!-- whole.visualization&#45;&gt;attr_1 -->
<g id="edge3" class="edge">
<title>whole.visualization&#45;&gt;attr_1</title>
<path fill="none" stroke="#aaaaaa" d="M326.77,-115.79C341.21,-125.14 359.47,-136.59 376.25,-146 382.7,-149.62 389.6,-153.26 396.42,-156.75"/>
<polygon fill="#aaaaaa" stroke="#aaaaaa" points="395.07,-158.81 402.42,-159.78 397.28,-154.44 395.07,-158.81"/>
</g>
<!-- attr_2 -->
<g id="node8" class="node">
<title>attr_2</title>
<path fill="#c7b8e6" stroke="#7f8c8d" stroke-width="1.2" d="M482.62,-132C482.62,-132 405.12,-132 405.12,-132 399.12,-132 393.12,-126 393.12,-120 393.12,-120 393.12,-108 393.12,-108 393.12,-102 399.12,-96 405.12,-96 405.12,-96 482.62,-96 482.62,-96 488.62,-96 494.62,-102 494.62,-108 494.62,-108 494.62,-120 494.62,-120 494.62,-126 488.62,-132 482.62,-132"/>
<text xml:space="preserve" text-anchor="middle" x="443.88" y="-110.5" font-family="Arial" font-size="10.00" fill="#1a1a1a">(−) easy to interpret</text>
</g>
<!-- whole.visualization&#45;&gt;attr_2 -->
<g id="edge4" class="edge">
<title>whole.visualization&#45;&gt;attr_2</title>
<path fill="none" stroke="#aaaaaa" d="M326.87,-101.01C343.07,-102.82 364.36,-105.21 384.27,-107.44"/>
<polygon fill="#aaaaaa" stroke="#aaaaaa" points="383.97,-109.87 391.19,-108.21 384.51,-105 383.97,-109.87"/>
</g>
<!-- rel_1 -->
<g id="node11" class="node">
<title>rel_1</title>
<path fill="#f5b8b8" stroke="#d46a6a" stroke-width="1.2" d="M487.88,-67C487.88,-67 399.88,-67 399.88,-67 393.88,-67 387.88,-61 387.88,-55 387.88,-55 387.88,-43 387.88,-43 387.88,-37 393.88,-31 399.88,-31 399.88,-31 487.88,-31 487.88,-31 493.88,-31 499.88,-37 499.88,-43 499.88,-43 499.88,-55 499.88,-55 499.88,-61 493.88,-67 487.88,-67"/>
<text xml:space="preserve" text-anchor="middle" x="443.88" y="-45.5" font-family="Arial" font-size="10.00" fill="#8b0000">requires minimal effort</text>
</g>
<!-- whole.visualization&#45;&gt;rel_1 -->
<g id="edge8" class="edge">
<title>whole.visualization&#45;&gt;rel_1</title>
<path fill="none" stroke="#d46a6a" stroke-width="1.5" d="M326.87,-88.78C341.74,-83.68 360.9,-77.11 379.34,-70.79"/>
<polygon fill="#d46a6a" stroke="#d46a6a" stroke-width="1.5" points="380.09,-73.49 386.75,-68.25 378.28,-68.19 380.09,-73.49"/>
</g>
<!-- furniture.legend -->
<g id="node4" class="node">
<title>furniture.legend</title>
<path fill="#b8e6b8" stroke="#2c3e50" stroke-width="1.8" d="M42,-237C42,-237 12,-237 12,-237 6,-237 0,-231 0,-225 0,-225 0,-213 0,-213 0,-207 6,-201 12,-201 12,-201 42,-201 42,-201 48,-201 54,-207 54,-213 54,-213 54,-225 54,-225 54,-231 48,-237 42,-237"/>
<text xml:space="preserve" text-anchor="middle" x="27" y="-215.5" font-family="Arial" font-size="10.00" fill="#1a1a1a">legend</text>
</g>
<!-- attr_4 -->
<g id="node9" class="node">
<title>attr_4</title>
<path fill="#c7b8e6" stroke="#7f8c8d" stroke-width="1.2" d="M209.75,-237C209.75,-237 109,-237 109,-237 103,-237 97,-231 97,-225 97,-225 97,-213 97,-213 97,-207 103,-201 109,-201 109,-201 209.75,-201 209.75,-201 215.75,-201 221.75,-207 221.75,-213 221.75,-213 221.75,-225 221.75,-225 221.75,-231 215.75,-237 209.75,-237"/>
<text xml:space="preserve" text-anchor="middle" x="159.38" y="-215.5" font-family="Arial" font-size="10.00" fill="#1a1a1a">(−) low visual complexity</text>
</g>
<!-- furniture.legend&#45;&gt;attr_4 -->
<g id="edge5" class="edge">
<title>furniture.legend&#45;&gt;attr_4</title>
<path fill="none" stroke="#aaaaaa" d="M54.7,-219C64.56,-219 76.26,-219 88.19,-219"/>
<polygon fill="#aaaaaa" stroke="#aaaaaa" points="87.94,-221.45 94.94,-219 87.94,-216.55 87.94,-221.45"/>
</g>
<!-- rel_0&#45;&gt;whole.visualization -->
<g id="edge7" class="edge">
<title>rel_0&#45;&gt;whole.visualization</title>
<path fill="none" stroke="#d46a6a" stroke-width="1.5" d="M197.26,-91.41C217.1,-92.71 241.49,-94.3 261.31,-95.6"/>
<polygon fill="#d46a6a" stroke="#d46a6a" stroke-width="1.5" points="261.06,-98.39 269.23,-96.12 261.43,-92.8 261.06,-98.39"/>
</g>
<!-- rel_1&#45;&gt;text.axis_label -->
<g id="edge9" class="edge">
<title>rel_1&#45;&gt;text.axis_label</title>
<path fill="none" stroke="#d46a6a" stroke-width="1.5" d="M500.3,-36.48C514.89,-33.19 530.3,-29.71 543.77,-26.66"/>
<polygon fill="#d46a6a" stroke="#d46a6a" stroke-width="1.5" points="544.24,-29.43 551.42,-24.93 543,-23.97 544.24,-29.43"/>
</g>
<!-- rel_2&#45;&gt;text.axis_label -->
<g id="edge11" class="edge">
<title>rel_2&#45;&gt;text.axis_label</title>
<path fill="none" stroke="#d46a6a" stroke-width="1.5" d="M333.78,-16.92C347.02,-16.55 362.35,-16.18 376.25,-16 436.36,-15.21 451.39,-15.15 511.5,-16 521.89,-16.15 533.15,-16.42 543.55,-16.71"/>
<polygon fill="#d46a6a" stroke="#d46a6a" stroke-width="1.5" points="543.26,-19.5 551.34,-16.94 543.42,-13.9 543.26,-19.5"/>
</g>
</g>
</svg>
