<?xml version="1.0" encoding="UTF-8" standalone="no"?>
<!DOCTYPE svg PUBLIC "-//W3C//DTD SVG 1.1//EN"
 "http://www.w3.org/Graphics/SVG/1.1/DTD/svg11.dtd">
<!-- Generated by graphviz version 14.1.5 (20260411.2331)
 -->
<!-- Title: InfoVisC.65.5(2).png Pages: 1 -->
<svg width="956pt" height="472pt"
 viewBox="0.00 0.00 956.00 472.00" xmlns="http://www.w3.org/2000/svg" xmlns:xlink="http://www.w3.org/1999/xlink">
<g id="graph0" class="graph" transform="scale(1 1) rotate(0) translate(4 468.25)">
<title>InfoVisC.65.5(2).png</title>
<polygon fill="white" stroke="none" points="-4,4 -4,-468.25 952.25,-468.25 952.25,4 -4,4"/>
<text xml:space="preserve" text-anchor="start" x="409.25" y="-443.95" font-family="Arial" font-weight="bold" font-size="14.00">InfoVisC.65.5(2).png</text>
<text xml:space="preserve" text-anchor="start" x="419" y="-424" font-family="Arial" font-size="11.00">Node&#45;link &#160;| &#160;VC = 0.92</text>
<path fill="#b8e6b8" stroke="none" d="M264.75,-399C264.75,-399 272.75,-399 272.75,-399 275.75,-399 278.75,-402 278.75,-405 278.75,-405 278.75,-411 278.75,-411 278.75,-414 275.75,-417 272.75,-417 272.75,-417 264.75,-417 264.75,-417 261.75,-417 258.75,-414 258.75,-411 258.75,-411 258.75,-405 258.75,-405 258.75,-402 261.75,-399 264.75,-399"/>
<path fill="none" stroke="black" d="M264.75,-399C264.75,-399 272.75,-399 272.75,-399 275.75,-399 278.75,-402 278.75,-405 278.75,-405 278.75,-411 278.75,-411 278.75,-414 275.75,-417 272.75,-417 272.75,-417 264.75,-417 264.75,-417 261.75,-417 258.75,-414 258.75,-411 258.75,-411 258.75,-405 258.75,-405 258.75,-402 261.75,-399 264.75,-399"/>
<text xml:space="preserve" text-anchor="start" x="267.25" y="-404.25" font-family="Arial" font-size="10.00"> </text>
<text xml:space="preserve" text-anchor="start" x="282.75" y="-404.25" font-family="Arial" font-size="10.00">Object</text>
<path fill="#c7b8e6" stroke="none" d="M321.25,-399C321.25,-399 329.25,-399 329.25,-399 332.25,-399 335.25,-402 335.25,-405 335.25,-405 335.25,-411 335.25,-411 335.25,-414 332.25,-417 329.25,-417 329.25,-417 321.25,-417 321.25,-417 318.25,-417 315.25,-414 315.25,-411 315.25,-411 315.25,-405 315.25,-405 315.25,-402 318.25,-399 321.25,-399"/>
<path fill="none" stroke="black" d="M321.25,-399C321.25,-399 329.25,-399 329.25,-399 332.25,-399 335.25,-402 335.25,-405 335.25,-405 335.25,-411 335.25,-411 335.25,-414 332.25,-417 329.25,-417 329.25,-417 321.25,-417 321.25,-417 318.25,-417 315.25,-414 315.25,-411 315.25,-411 315.25,-405 315.25,-405 315.25,-402 318.25,-399 321.25,-399"/>
<text xml:space="preserve" text-anchor="start" x="323.75" y="-404.25" font-family="Arial" font-size="10.00"> </text>
<text xml:space="preserve" text-anchor="start" x="339.25" y="-404.25" font-family="Arial" font-size="10.00">Attribute</text>
<path fill="#f5b8b8" stroke="none" d="M386,-399C386,-399 394,-399 394,-399 397,-399 400,-402 400,-405 400,-405 400,-411 400,-411 400,-414 397,-417 394,-417 394,-417 386,-417 386,-417 383,-417 380,-414 380,-411 380,-411 380,-405 380,-405 380,-402 383,-399 386,-399"/>
<path fill="none" stroke="black" d="M386,-399C386,-399 394,-399 394,-399 397,-399 400,-402 400,-405 400,-405 400,-411 400,-411 400,-414 397,-417 394,-417 394,-417 386,-417 386,-417 383,-417 380,-414 380,-411 380,-411 380,-405 380,-405 380,-402 383,-399 386,-399"/>
<text xml:space="preserve" text-anchor="start" x="388.5" y="-404.25" font-family="Arial" font-size="10.00"> </text>
<text xml:space="preserve" text-anchor="start" x="404" y="-404.25" font-family="Arial" font-size="10.00">Relationship</text>
<text xml:space="preserve" text-anchor="start" x="464" y="-405.5" font-family="Arial" font-weight="bold" font-size="10.00">(+)</text>
<text xml:space="preserve" text-anchor="start" x="476" y="-405.5" font-family="Arial" font-size="10.00"> increases complexity</text>
<text xml:space="preserve" text-anchor="start" x="577.25" y="-405.5" font-family="Arial" font-weight="bold" font-size="10.00">(−)</text>
<text xml:space="preserve" text-anchor="start" x="589.25" y="-405.5" font-family="Arial" font-size="10.00"> decreases complexity</text>
<!-- unknown.lines -->
<g id="node1" class="node">
<title>unknown.lines</title>
<path fill="#b8e6b8" stroke="#2c3e50" stroke-width="1.8" d="M63.5,-263C63.5,-263 33.5,-263 33.5,-263 27.5,-263 21.5,-257 21.5,-251 21.5,-251 21.5,-239 21.5,-239 21.5,-233 27.5,-227 33.5,-227 33.5,-227 63.5,-227 63.5,-227 69.5,-227 75.5,-233 75.5,-239 75.5,-239 75.5,-251 75.5,-251 75.5,-257 69.5,-263 63.5,-263"/>
<text xml:space="preserve" text-anchor="middle" x="48.5" y="-241.5" font-family="Arial" font-size="10.00" fill="#1a1a1a">lines</text>
</g>
<!-- attr_0 -->
<g id="node7" class="node">
<title>attr_0</title>
<path fill="#c7b8e6" stroke="#7f8c8d" stroke-width="1.2" d="M269.25,-231C269.25,-231 177.5,-231 177.5,-231 171.5,-231 165.5,-225 165.5,-219 165.5,-219 165.5,-207 165.5,-207 165.5,-201 171.5,-195 177.5,-195 177.5,-195 269.25,-195 269.25,-195 275.25,-195 281.25,-201 281.25,-207 281.25,-207 281.25,-219 281.25,-219 281.25,-225 275.25,-231 269.25,-231"/>
<text xml:space="preserve" text-anchor="middle" x="223.38" y="-209.5" font-family="Arial" font-size="10.00" fill="#1a1a1a">(+) high quantity dense</text>
</g>
<!-- unknown.lines&#45;&gt;attr_0 -->
<g id="edge1" class="edge">
<title>unknown.lines&#45;&gt;attr_0</title>
<path fill="none" stroke="#aaaaaa" d="M76.13,-240.07C97.6,-236.1 128.71,-230.34 156.73,-225.15"/>
<polygon fill="#aaaaaa" stroke="#aaaaaa" points="157,-227.59 163.44,-223.91 156.11,-222.78 157,-227.59"/>
</g>
<!-- attr_1 -->
<g id="node8" class="node">
<title>attr_1</title>
<path fill="#c7b8e6" stroke="#7f8c8d" stroke-width="1.2" d="M282.38,-166C282.38,-166 164.38,-166 164.38,-166 158.38,-166 152.38,-160 152.38,-154 152.38,-154 152.38,-142 152.38,-142 152.38,-136 158.38,-130 164.38,-130 164.38,-130 282.38,-130 282.38,-130 288.38,-130 294.38,-136 294.38,-142 294.38,-142 294.38,-154 294.38,-154 294.38,-160 288.38,-166 282.38,-166"/>
<text xml:space="preserve" text-anchor="middle" x="223.38" y="-144.5" font-family="Arial" font-size="10.00" fill="#1a1a1a">(+) overlapping tangled paths</text>
</g>
<!-- unknown.lines&#45;&gt;attr_1 -->
<g id="edge2" class="edge">
<title>unknown.lines&#45;&gt;attr_1</title>
<path fill="none" stroke="#aaaaaa" d="M72.7,-226.29C90.42,-212.58 115.83,-194.15 140,-181 147.46,-176.94 155.53,-173.1 163.59,-169.57"/>
<polygon fill="#aaaaaa" stroke="#aaaaaa" points="164.11,-172.01 169.59,-167.01 162.19,-167.51 164.11,-172.01"/>
</g>
<!-- rel_0 -->
<g id="node14" class="node">
<title>rel_0</title>
<path fill="#f5b8b8" stroke="#d46a6a" stroke-width="1.2" d="M238.38,-296C238.38,-296 208.38,-296 208.38,-296 202.38,-296 196.38,-290 196.38,-284 196.38,-284 196.38,-272 196.38,-272 196.38,-266 202.38,-260 208.38,-260 208.38,-260 238.38,-260 238.38,-260 244.38,-260 250.38,-266 250.38,-272 250.38,-272 250.38,-284 250.38,-284 250.38,-290 244.38,-296 238.38,-296"/>
<text xml:space="preserve" text-anchor="middle" x="223.38" y="-274.5" font-family="Arial" font-size="10.00" fill="#8b0000">creates</text>
</g>
<!-- unknown.lines&#45;&gt;rel_0 -->
<g id="edge8" class="edge">
<title>unknown.lines&#45;&gt;rel_0</title>
<path fill="none" stroke="#d46a6a" stroke-width="1.5" d="M76.13,-250.08C105.66,-255.72 153.45,-264.84 186.31,-271.12"/>
<polygon fill="#d46a6a" stroke="#d46a6a" stroke-width="1.5" points="185.38,-273.79 193.77,-272.54 186.43,-268.29 185.38,-273.79"/>
</g>
<!-- rel_2 -->
<g id="node16" class="node">
<title>rel_2</title>
<path fill="#f5b8b8" stroke="#d46a6a" stroke-width="1.2" d="M239.25,-361C239.25,-361 207.5,-361 207.5,-361 201.5,-361 195.5,-355 195.5,-349 195.5,-349 195.5,-337 195.5,-337 195.5,-331 201.5,-325 207.5,-325 207.5,-325 239.25,-325 239.25,-325 245.25,-325 251.25,-331 251.25,-337 251.25,-337 251.25,-349 251.25,-349 251.25,-355 245.25,-361 239.25,-361"/>
<text xml:space="preserve" text-anchor="middle" x="223.38" y="-339.5" font-family="Arial" font-size="10.00" fill="#8b0000">obscures</text>
</g>
<!-- unknown.lines&#45;&gt;rel_2 -->
<g id="edge12" class="edge">
<title>unknown.lines&#45;&gt;rel_2</title>
<path fill="none" stroke="#d46a6a" stroke-width="1.5" d="M71.83,-263.84C89.51,-278.1 115.26,-297.47 140,-311 154.47,-318.91 171.3,-325.82 185.97,-331.17"/>
<polygon fill="#d46a6a" stroke="#d46a6a" stroke-width="1.5" points="184.63,-333.67 193.11,-333.7 186.5,-328.39 184.63,-333.67"/>
</g>
<!-- unknown.nodes -->
<g id="node2" class="node">
<title>unknown.nodes</title>
<path fill="#b8e6b8" stroke="#2c3e50" stroke-width="1.8" d="M731,-295C731,-295 701,-295 701,-295 695,-295 689,-289 689,-283 689,-283 689,-271 689,-271 689,-265 695,-259 701,-259 701,-259 731,-259 731,-259 737,-259 743,-265 743,-271 743,-271 743,-283 743,-283 743,-289 737,-295 731,-295"/>
<text xml:space="preserve" text-anchor="middle" x="716" y="-273.5" font-family="Arial" font-size="10.00" fill="#1a1a1a">nodes</text>
</g>
<!-- attr_2 -->
<g id="node9" class="node">
<title>attr_2</title>
<path fill="#c7b8e6" stroke="#7f8c8d" stroke-width="1.2" d="M936.25,-295C936.25,-295 798,-295 798,-295 792,-295 786,-289 786,-283 786,-283 786,-271 786,-271 786,-265 792,-259 798,-259 798,-259 936.25,-259 936.25,-259 942.25,-259 948.25,-265 948.25,-271 948.25,-271 948.25,-283 948.25,-283 948.25,-289 942.25,-295 936.25,-295"/>
<text xml:space="preserve" text-anchor="middle" x="867.12" y="-273.5" font-family="Arial" font-size="10.00" fill="#1a1a1a">(+) hard to discern meeting points</text>
</g>
<!-- unknown.nodes&#45;&gt;attr_2 -->
<g id="edge3" class="edge">
<title>unknown.nodes&#45;&gt;attr_2</title>
<path fill="none" stroke="#aaaaaa" d="M743.66,-277C753.39,-277 765.02,-277 777.17,-277"/>
<polygon fill="#aaaaaa" stroke="#aaaaaa" points="777.14,-279.45 784.14,-277 777.14,-274.55 777.14,-279.45"/>
</g>
<!-- property.color -->
<g id="node3" class="node">
<title>property.color</title>
<path fill="#b8e6b8" stroke="#2c3e50" stroke-width="1.8" d="M412.5,-166C412.5,-166 382.5,-166 382.5,-166 376.5,-166 370.5,-160 370.5,-154 370.5,-154 370.5,-142 370.5,-142 370.5,-136 376.5,-130 382.5,-130 382.5,-130 412.5,-130 412.5,-130 418.5,-130 424.5,-136 424.5,-142 424.5,-142 424.5,-154 424.5,-154 424.5,-160 418.5,-166 412.5,-166"/>
<text xml:space="preserve" text-anchor="middle" x="397.5" y="-144.5" font-family="Arial" font-size="10.00" fill="#1a1a1a">color</text>
</g>
<!-- attr_3 -->
<g id="node10" class="node">
<title>attr_3</title>
<path fill="#c7b8e6" stroke="#7f8c8d" stroke-width="1.2" d="M625,-133C625,-133 509.25,-133 509.25,-133 503.25,-133 497.25,-127 497.25,-121 497.25,-121 497.25,-109 497.25,-109 497.25,-103 503.25,-97 509.25,-97 509.25,-97 625,-97 625,-97 631,-97 637,-103 637,-109 637,-109 637,-121 637,-121 637,-127 631,-133 625,-133"/>
<text xml:space="preserve" text-anchor="middle" x="567.12" y="-111.5" font-family="Arial" font-size="10.00" fill="#1a1a1a">(+) monochrome single color</text>
</g>
<!-- property.color&#45;&gt;attr_3 -->
<g id="edge4" class="edge">
<title>property.color&#45;&gt;attr_3</title>
<path fill="none" stroke="#aaaaaa" d="M425.06,-142.77C442.24,-139.39 465.58,-134.79 488.32,-130.32"/>
<polygon fill="#aaaaaa" stroke="#aaaaaa" points="488.78,-132.72 495.17,-128.97 487.83,-127.92 488.78,-132.72"/>
</g>
<!-- rel_1 -->
<g id="node15" class="node">
<title>rel_1</title>
<path fill="#f5b8b8" stroke="#d46a6a" stroke-width="1.2" d="M606.62,-198C606.62,-198 527.62,-198 527.62,-198 521.62,-198 515.62,-192 515.62,-186 515.62,-186 515.62,-174 515.62,-174 515.62,-168 521.62,-162 527.62,-162 527.62,-162 606.62,-162 606.62,-162 612.62,-162 618.62,-168 618.62,-174 618.62,-174 618.62,-186 618.62,-186 618.62,-192 612.62,-198 606.62,-198"/>
<text xml:space="preserve" text-anchor="middle" x="567.12" y="-176.5" font-family="Arial" font-size="10.00" fill="#8b0000">reduces contrast for</text>
</g>
<!-- property.color&#45;&gt;rel_1 -->
<g id="edge10" class="edge">
<title>property.color&#45;&gt;rel_1</title>
<path fill="none" stroke="#d46a6a" stroke-width="1.5" d="M425.06,-153.07C446.52,-157.17 477.57,-163.09 505.08,-168.35"/>
<polygon fill="#d46a6a" stroke="#d46a6a" stroke-width="1.5" points="504.42,-171.07 512.8,-169.82 505.47,-165.57 504.42,-171.07"/>
</g>
<!-- unknown.intersection_points -->
<g id="node4" class="node">
<title>unknown.intersection_points</title>
<path fill="#b8e6b8" stroke="#2c3e50" stroke-width="1.8" d="M433.25,-361C433.25,-361 361.75,-361 361.75,-361 355.75,-361 349.75,-355 349.75,-349 349.75,-349 349.75,-337 349.75,-337 349.75,-331 355.75,-325 361.75,-325 361.75,-325 433.25,-325 433.25,-325 439.25,-325 445.25,-331 445.25,-337 445.25,-337 445.25,-349 445.25,-349 445.25,-355 439.25,-361 433.25,-361"/>
<text xml:space="preserve" text-anchor="middle" x="397.5" y="-339.5" font-family="Arial" font-size="10.00" fill="#1a1a1a">intersection points</text>
</g>
<!-- attr_6 -->
<g id="node11" class="node">
<title>attr_6</title>
<path fill="#c7b8e6" stroke="#7f8c8d" stroke-width="1.2" d="M634,-328C634,-328 500.25,-328 500.25,-328 494.25,-328 488.25,-322 488.25,-316 488.25,-316 488.25,-304 488.25,-304 488.25,-298 494.25,-292 500.25,-292 500.25,-292 634,-292 634,-292 640,-292 646,-298 646,-304 646,-304 646,-316 646,-316 646,-322 640,-328 634,-328"/>
<text xml:space="preserve" text-anchor="middle" x="567.12" y="-306.5" font-family="Arial" font-size="10.00" fill="#1a1a1a">(+) ambiguous connection points</text>
</g>
<!-- unknown.intersection_points&#45;&gt;attr_6 -->
<g id="edge5" class="edge">
<title>unknown.intersection_points&#45;&gt;attr_6</title>
<path fill="none" stroke="#aaaaaa" d="M446.09,-333.63C456.52,-331.58 467.89,-329.34 479.33,-327.09"/>
<polygon fill="#aaaaaa" stroke="#aaaaaa" points="479.78,-329.5 486.17,-325.74 478.83,-324.69 479.78,-329.5"/>
</g>
<!-- rel_4 -->
<g id="node18" class="node">
<title>rel_4</title>
<path fill="#f5b8b8" stroke="#d46a6a" stroke-width="1.2" d="M589.38,-393C589.38,-393 544.88,-393 544.88,-393 538.88,-393 532.88,-387 532.88,-381 532.88,-381 532.88,-369 532.88,-369 532.88,-363 538.88,-357 544.88,-357 544.88,-357 589.38,-357 589.38,-357 595.38,-357 601.38,-363 601.38,-369 601.38,-369 601.38,-381 601.38,-381 601.38,-387 595.38,-393 589.38,-393"/>
<text xml:space="preserve" text-anchor="middle" x="567.12" y="-371.5" font-family="Arial" font-size="10.00" fill="#8b0000">overwhelms</text>
</g>
<!-- unknown.intersection_points&#45;&gt;rel_4 -->
<g id="edge16" class="edge">
<title>unknown.intersection_points&#45;&gt;rel_4</title>
<path fill="none" stroke="#d46a6a" stroke-width="1.5" d="M446.09,-352.08C470.12,-356.67 499.07,-362.2 522.51,-366.67"/>
<polygon fill="#d46a6a" stroke="#d46a6a" stroke-width="1.5" points="521.91,-369.41 530.3,-368.16 522.96,-363.91 521.91,-369.41"/>
</g>
<!-- structure.layout -->
<g id="node5" class="node">
<title>structure.layout</title>
<path fill="#b8e6b8" stroke="#2c3e50" stroke-width="1.8" d="M412.5,-263C412.5,-263 382.5,-263 382.5,-263 376.5,-263 370.5,-257 370.5,-251 370.5,-251 370.5,-239 370.5,-239 370.5,-233 376.5,-227 382.5,-227 382.5,-227 412.5,-227 412.5,-227 418.5,-227 424.5,-233 424.5,-239 424.5,-239 424.5,-251 424.5,-251 424.5,-257 418.5,-263 412.5,-263"/>
<text xml:space="preserve" text-anchor="middle" x="397.5" y="-241.5" font-family="Arial" font-size="10.00" fill="#1a1a1a">layout</text>
</g>
<!-- attr_4 -->
<g id="node12" class="node">
<title>attr_4</title>
<path fill="#c7b8e6" stroke="#7f8c8d" stroke-width="1.2" d="M622.75,-263C622.75,-263 511.5,-263 511.5,-263 505.5,-263 499.5,-257 499.5,-251 499.5,-251 499.5,-239 499.5,-239 499.5,-233 505.5,-227 511.5,-227 511.5,-227 622.75,-227 622.75,-227 628.75,-227 634.75,-233 634.75,-239 634.75,-239 634.75,-251 634.75,-251 634.75,-257 628.75,-263 622.75,-263"/>
<text xml:space="preserve" text-anchor="middle" x="567.12" y="-241.5" font-family="Arial" font-size="10.00" fill="#1a1a1a">(+) diffuse unclear structure</text>
</g>
<!-- structure.layout&#45;&gt;attr_4 -->
<g id="edge6" class="edge">
<title>structure.layout&#45;&gt;attr_4</title>
<path fill="none" stroke="#aaaaaa" d="M425.06,-245C442.9,-245 467.36,-245 490.91,-245"/>
<polygon fill="#aaaaaa" stroke="#aaaaaa" points="490.68,-247.45 497.68,-245 490.68,-242.55 490.68,-247.45"/>
</g>
<!-- unknown.domain_knowledge -->
<g id="node6" class="node">
<title>unknown.domain_knowledge</title>
<path fill="#b8e6b8" stroke="#2c3e50" stroke-width="1.8" d="M85,-69C85,-69 12,-69 12,-69 6,-69 0,-63 0,-57 0,-57 0,-45 0,-45 0,-39 6,-33 12,-33 12,-33 85,-33 85,-33 91,-33 97,-39 97,-45 97,-45 97,-57 97,-57 97,-63 91,-69 85,-69"/>
<text xml:space="preserve" text-anchor="middle" x="48.5" y="-47.5" font-family="Arial" font-size="10.00" fill="#1a1a1a">domain knowledge</text>
</g>
<!-- attr_5 -->
<g id="node13" class="node">
<title>attr_5</title>
<path fill="#c7b8e6" stroke="#7f8c8d" stroke-width="1.2" d="M294.75,-101C294.75,-101 152,-101 152,-101 146,-101 140,-95 140,-89 140,-89 140,-77 140,-77 140,-71 146,-65 152,-65 152,-65 294.75,-65 294.75,-65 300.75,-65 306.75,-71 306.75,-77 306.75,-77 306.75,-89 306.75,-89 306.75,-95 300.75,-101 294.75,-101"/>
<text xml:space="preserve" text-anchor="middle" x="223.38" y="-79.5" font-family="Arial" font-size="10.00" fill="#1a1a1a">(+) requires specialized knowledge</text>
</g>
<!-- unknown.domain_knowledge&#45;&gt;attr_5 -->
<g id="edge7" class="edge">
<title>unknown.domain_knowledge&#45;&gt;attr_5</title>
<path fill="none" stroke="#aaaaaa" d="M97.66,-59.91C108.29,-61.88 119.89,-64.03 131.6,-66.2"/>
<polygon fill="#aaaaaa" stroke="#aaaaaa" points="130.9,-68.56 138.22,-67.42 131.79,-63.74 130.9,-68.56"/>
</g>
<!-- rel_3 -->
<g id="node17" class="node">
<title>rel_3</title>
<path fill="#f5b8b8" stroke="#d46a6a" stroke-width="1.2" d="M259.88,-36C259.88,-36 186.88,-36 186.88,-36 180.88,-36 174.88,-30 174.88,-24 174.88,-24 174.88,-12 174.88,-12 174.88,-6 180.88,0 186.88,0 186.88,0 259.88,0 259.88,0 265.88,0 271.88,-6 271.88,-12 271.88,-12 271.88,-24 271.88,-24 271.88,-30 265.88,-36 259.88,-36"/>
<text xml:space="preserve" text-anchor="middle" x="223.38" y="-14.5" font-family="Arial" font-size="10.00" fill="#8b0000">increases effort for</text>
</g>
<!-- unknown.domain_knowledge&#45;&gt;rel_3 -->
<g id="edge14" class="edge">
<title>unknown.domain_knowledge&#45;&gt;rel_3</title>
<path fill="none" stroke="#d46a6a" stroke-width="1.5" d="M97.66,-41.81C118.35,-37.86 142.72,-33.2 164.4,-29.07"/>
<polygon fill="#d46a6a" stroke="#d46a6a" stroke-width="1.5" points="164.91,-31.82 172.25,-27.57 163.86,-26.32 164.91,-31.82"/>
</g>
<!-- rel_0&#45;&gt;structure.layout -->
<g id="edge9" class="edge">
<title>rel_0&#45;&gt;structure.layout</title>
<path fill="none" stroke="#d46a6a" stroke-width="1.5" d="M250.89,-272.92C279.99,-267.34 326.91,-258.34 359.6,-252.07"/>
<polygon fill="#d46a6a" stroke="#d46a6a" stroke-width="1.5" points="360.11,-254.83 367.44,-250.57 359.06,-249.33 360.11,-254.83"/>
</g>
<!-- rel_1&#45;&gt;unknown.nodes -->
<g id="edge11" class="edge">
<title>rel_1&#45;&gt;unknown.nodes</title>
<path fill="none" stroke="#d46a6a" stroke-width="1.5" d="M618.87,-198.48C628.19,-202.7 637.62,-207.58 646,-213 662.51,-223.68 678.75,-238.47 691.32,-251.14"/>
<polygon fill="#d46a6a" stroke="#d46a6a" stroke-width="1.5" points="689.12,-252.89 696.7,-256.68 693.14,-248.99 689.12,-252.89"/>
</g>
<!-- rel_2&#45;&gt;unknown.intersection_points -->
<g id="edge13" class="edge">
<title>rel_2&#45;&gt;unknown.intersection_points</title>
<path fill="none" stroke="#d46a6a" stroke-width="1.5" d="M251.65,-343C274.97,-343 309.32,-343 338.71,-343"/>
<polygon fill="#d46a6a" stroke="#d46a6a" stroke-width="1.5" points="338.61,-345.8 346.61,-343 338.61,-340.2 338.61,-345.8"/>
</g>
<!-- rel_3&#45;&gt;structure.layout -->
<g id="edge15" class="edge">
<title>rel_3&#45;&gt;structure.layout</title>
<path fill="none" stroke="#d46a6a" stroke-width="1.5" d="M272.24,-28.6C284.82,-33.36 297.46,-40.2 306.75,-50 348.91,-94.47 321.78,-126.48 349.75,-181 356.41,-193.98 365.56,-207.18 374.01,-218.19"/>
<polygon fill="#d46a6a" stroke="#d46a6a" stroke-width="1.5" points="371.72,-219.81 378.87,-224.37 376.12,-216.35 371.72,-219.81"/>
</g>
<!-- rel_4&#45;&gt;unknown.nodes -->
<g id="edge17" class="edge">
<title>rel_4&#45;&gt;unknown.nodes</title>
<path fill="none" stroke="#d46a6a" stroke-width="1.5" d="M601.68,-364.34C615.95,-359.04 632.4,-351.84 646,-343 662.96,-331.97 679.43,-316.46 692.03,-303.24"/>
<polygon fill="#d46a6a" stroke="#d46a6a" stroke-width="1.5" points="694.02,-305.21 697.42,-297.44 689.92,-301.39 694.02,-305.21"/>
</g>
</g>
</svg>
