<?xml version="1.0" encoding="UTF-8" standalone="no"?>
<!DOCTYPE svg PUBLIC "-//W3C//DTD SVG 1.1//EN"
 "http://www.w3.org/Graphics/SVG/1.1/DTD/svg11.dtd">
<!-- Generated by graphviz version 14.1.5 (20260411.2331)
 -->
<!-- Title: InfoVisJ.349.1.png Pages: 1 -->
<svg width="849pt" height="570pt"
 viewBox="0.00 0.00 849.00 570.00" xmlns="http://www.w3.org/2000/svg" xmlns:xlink="http://www.w3.org/1999/xlink">
<g id="graph0" class="graph" transform="scale(1 1) rotate(0) translate(4 566.25)">
<title>InfoVisJ.349.1.png</title>
<polygon fill="white" stroke="none" points="-4,4 -4,-566.25 845,-566.25 845,4 -4,4"/>
<text xml:space="preserve" text-anchor="start" x="361.25" y="-541.95" font-family="Arial" font-weight="bold" font-size="14.00">InfoVisJ.349.1.png</text>
<text xml:space="preserve" text-anchor="start" x="365.38" y="-522" font-family="Arial" font-size="11.00">Node&#45;link &#160;| &#160;VC = 0.63</text>
<path fill="#b8e6b8" stroke="none" d="M211.12,-497C211.12,-497 219.12,-497 219.12,-497 222.12,-497 225.12,-500 225.12,-503 225.12,-503 225.12,-509 225.12,-509 225.12,-512 222.12,-515 219.12,-515 219.12,-515 211.12,-515 211.12,-515 208.12,-515 205.12,-512 205.12,-509 205.12,-509 205.12,-503 205.12,-503 205.12,-500 208.12,-497 211.12,-497"/>
<path fill="none" stroke="black" d="M211.12,-497C211.12,-497 219.12,-497 219.12,-497 222.12,-497 225.12,-500 225.12,-503 225.12,-503 225.12,-509 225.12,-509 225.12,-512 222.12,-515 219.12,-515 219.12,-515 211.12,-515 211.12,-515 208.12,-515 205.12,-512 205.12,-509 205.12,-509 205.12,-503 205.12,-503 205.12,-500 208.12,-497 211.12,-497"/>
<text xml:space="preserve" text-anchor="start" x="213.62" y="-502.25" font-family="Arial" font-size="10.00"> </text>
<text xml:space="preserve" text-anchor="start" x="229.12" y="-502.25" font-family="Arial" font-size="10.00">Object</text>
<path fill="#c7b8e6" stroke="none" d="M267.62,-497C267.62,-497 275.62,-497 275.62,-497 278.62,-497 281.62,-500 281.62,-503 281.62,-503 281.62,-509 281.62,-509 281.62,-512 278.62,-515 275.62,-515 275.62,-515 267.62,-515 267.62,-515 264.62,-515 261.62,-512 261.62,-509 261.62,-509 261.62,-503 261.62,-503 261.62,-500 264.62,-497 267.62,-497"/>
<path fill="none" stroke="black" d="M267.62,-497C267.62,-497 275.62,-497 275.62,-497 278.62,-497 281.62,-500 281.62,-503 281.62,-503 281.62,-509 281.62,-509 281.62,-512 278.62,-515 275.62,-515 275.62,-515 267.62,-515 267.62,-515 264.62,-515 261.62,-512 261.62,-509 261.62,-509 261.62,-503 261.62,-503 261.62,-500 264.62,-497 267.62,-497"/>
<text xml:space="preserve" text-anchor="start" x="270.12" y="-502.25" font-family="Arial" font-size="10.00"> </text>
<text xml:space="preserve" text-anchor="start" x="285.62" y="-502.25" font-family="Arial" font-size="10.00">Attribute</text>
<path fill="#f5b8b8" stroke="none" d="M332.38,-497C332.38,-497 340.38,-497 340.38,-497 343.38,-497 346.38,-500 346.38,-503 346.38,-503 346.38,-509 346.38,-509 346.38,-512 343.38,-515 340.38,-515 340.38,-515 332.38,-515 332.38,-515 329.38,-515 326.38,-512 326.38,-509 326.38,-509 326.38,-503 326.38,-503 326.38,-500 329.38,-497 332.38,-497"/>
<path fill="none" stroke="black" d="M332.38,-497C332.38,-497 340.38,-497 340.38,-497 343.38,-497 346.38,-500 346.38,-503 346.38,-503 346.38,-509 346.38,-509 346.38,-512 343.38,-515 340.38,-515 340.38,-515 332.38,-515 332.38,-515 329.38,-515 326.38,-512 326.38,-509 326.38,-509 326.38,-503 326.38,-503 326.38,-500 329.38,-497 332.38,-497"/>
<text xml:space="preserve" text-anchor="start" x="334.88" y="-502.25" font-family="Arial" font-size="10.00"> </text>
<text xml:space="preserve" text-anchor="start" x="350.38" y="-502.25" font-family="Arial" font-size="10.00">Relationship</text>
<text xml:space="preserve" text-anchor="start" x="410.38" y="-503.5" font-family="Arial" font-weight="bold" font-size="10.00">(+)</text>
<text xml:space="preserve" text-anchor="start" x="422.38" y="-503.5" font-family="Arial" font-size="10.00"> increases complexity</text>
<text xml:space="preserve" text-anchor="start" x="523.62" y="-503.5" font-family="Arial" font-weight="bold" font-size="10.00">(−)</text>
<text xml:space="preserve" text-anchor="start" x="535.62" y="-503.5" font-family="Arial" font-size="10.00"> decreases complexity</text>
<!-- unknown.lines -->
<g id="node1" class="node">
<title>unknown.lines</title>
<path fill="#b8e6b8" stroke="#2c3e50" stroke-width="1.8" d="M364,-394C364,-394 334,-394 334,-394 328,-394 322,-388 322,-382 322,-382 322,-370 322,-370 322,-364 328,-358 334,-358 334,-358 364,-358 364,-358 370,-358 376,-364 376,-370 376,-370 376,-382 376,-382 376,-388 370,-394 364,-394"/>
<text xml:space="preserve" text-anchor="middle" x="349" y="-372.5" font-family="Arial" font-size="10.00" fill="#1a1a1a">lines</text>
</g>
<!-- attr_0 -->
<g id="node7" class="node">
<title>attr_0</title>
<path fill="#c7b8e6" stroke="#7f8c8d" stroke-width="1.2" d="M517.88,-394C517.88,-394 450.12,-394 450.12,-394 444.12,-394 438.12,-388 438.12,-382 438.12,-382 438.12,-370 438.12,-370 438.12,-364 444.12,-358 450.12,-358 450.12,-358 517.88,-358 517.88,-358 523.88,-358 529.88,-364 529.88,-370 529.88,-370 529.88,-382 529.88,-382 529.88,-388 523.88,-394 517.88,-394"/>
<text xml:space="preserve" text-anchor="middle" x="484" y="-372.5" font-family="Arial" font-size="10.00" fill="#1a1a1a">(−) easy to follow</text>
</g>
<!-- unknown.lines&#45;&gt;attr_0 -->
<g id="edge1" class="edge">
<title>unknown.lines&#45;&gt;attr_0</title>
<path fill="none" stroke="#aaaaaa" d="M376.59,-376C391.71,-376 411.2,-376 429.36,-376"/>
<polygon fill="#aaaaaa" stroke="#aaaaaa" points="429.07,-378.45 436.07,-376 429.07,-373.55 429.07,-378.45"/>
</g>
<!-- unknown.intersections -->
<g id="node2" class="node">
<title>unknown.intersections</title>
<path fill="#b8e6b8" stroke="#2c3e50" stroke-width="1.8" d="M61,-458C61,-458 13.5,-458 13.5,-458 7.5,-458 1.5,-452 1.5,-446 1.5,-446 1.5,-434 1.5,-434 1.5,-428 7.5,-422 13.5,-422 13.5,-422 61,-422 61,-422 67,-422 73,-428 73,-434 73,-434 73,-446 73,-446 73,-452 67,-458 61,-458"/>
<text xml:space="preserve" text-anchor="middle" x="37.25" y="-436.5" font-family="Arial" font-size="10.00" fill="#1a1a1a">intersections</text>
</g>
<!-- attr_1 -->
<g id="node8" class="node">
<title>attr_1</title>
<path fill="#c7b8e6" stroke="#7f8c8d" stroke-width="1.2" d="M267,-491C267,-491 129.5,-491 129.5,-491 123.5,-491 117.5,-485 117.5,-479 117.5,-479 117.5,-467 117.5,-467 117.5,-461 123.5,-455 129.5,-455 129.5,-455 267,-455 267,-455 273,-455 279,-461 279,-467 279,-467 279,-479 279,-479 279,-485 273,-491 267,-491"/>
<text xml:space="preserve" text-anchor="middle" x="198.25" y="-469.5" font-family="Arial" font-size="10.00" fill="#1a1a1a">(+) numerous dense intersections</text>
</g>
<!-- unknown.intersections&#45;&gt;attr_1 -->
<g id="edge2" class="edge">
<title>unknown.intersections&#45;&gt;attr_1</title>
<path fill="none" stroke="#aaaaaa" d="M73.54,-447.32C84.19,-449.54 96.41,-452.07 108.91,-454.67"/>
<polygon fill="#aaaaaa" stroke="#aaaaaa" points="108.33,-457.05 115.68,-456.07 109.32,-452.25 108.33,-457.05"/>
</g>
<!-- rel_0 -->
<g id="node14" class="node">
<title>rel_0</title>
<path fill="#f5b8b8" stroke="#d46a6a" stroke-width="1.2" d="M243,-426C243,-426 153.5,-426 153.5,-426 147.5,-426 141.5,-420 141.5,-414 141.5,-414 141.5,-402 141.5,-402 141.5,-396 147.5,-390 153.5,-390 153.5,-390 243,-390 243,-390 249,-390 255,-396 255,-402 255,-402 255,-414 255,-414 255,-420 249,-426 243,-426"/>
<text xml:space="preserve" text-anchor="middle" x="198.25" y="-404.5" font-family="Arial" font-size="10.00" fill="#8b0000">increases confusion in</text>
</g>
<!-- unknown.intersections&#45;&gt;rel_0 -->
<g id="edge8" class="edge">
<title>unknown.intersections&#45;&gt;rel_0</title>
<path fill="none" stroke="#d46a6a" stroke-width="1.5" d="M73.54,-432.9C90.52,-429.48 111.45,-425.27 131.24,-421.29"/>
<polygon fill="#d46a6a" stroke="#d46a6a" stroke-width="1.5" points="131.62,-424.06 138.91,-419.74 130.52,-418.57 131.62,-424.06"/>
</g>
<!-- unknown.shapes -->
<g id="node3" class="node">
<title>unknown.shapes</title>
<path fill="#b8e6b8" stroke="#2c3e50" stroke-width="1.8" d="M364,-231C364,-231 334,-231 334,-231 328,-231 322,-225 322,-219 322,-219 322,-207 322,-207 322,-201 328,-195 334,-195 334,-195 364,-195 364,-195 370,-195 376,-201 376,-207 376,-207 376,-219 376,-219 376,-225 370,-231 364,-231"/>
<text xml:space="preserve" text-anchor="middle" x="349" y="-209.5" font-family="Arial" font-size="10.00" fill="#1a1a1a">shapes</text>
</g>
<!-- attr_2 -->
<g id="node9" class="node">
<title>attr_2</title>
<path fill="#c7b8e6" stroke="#7f8c8d" stroke-width="1.2" d="M529.88,-296C529.88,-296 438.12,-296 438.12,-296 432.12,-296 426.12,-290 426.12,-284 426.12,-284 426.12,-272 426.12,-272 426.12,-266 432.12,-260 438.12,-260 438.12,-260 529.88,-260 529.88,-260 535.88,-260 541.88,-266 541.88,-272 541.88,-272 541.88,-284 541.88,-284 541.88,-290 535.88,-296 529.88,-296"/>
<text xml:space="preserve" text-anchor="middle" x="484" y="-274.5" font-family="Arial" font-size="10.00" fill="#1a1a1a">(+) random like shapes</text>
</g>
<!-- unknown.shapes&#45;&gt;attr_2 -->
<g id="edge3" class="edge">
<title>unknown.shapes&#45;&gt;attr_2</title>
<path fill="none" stroke="#aaaaaa" d="M376.59,-226C394,-234.51 417.2,-245.84 437.5,-255.76"/>
<polygon fill="#aaaaaa" stroke="#aaaaaa" points="436.39,-257.95 443.76,-258.82 438.54,-253.55 436.39,-257.95"/>
</g>
<!-- attr_6 -->
<g id="node10" class="node">
<title>attr_6</title>
<path fill="#c7b8e6" stroke="#7f8c8d" stroke-width="1.2" d="M537,-231C537,-231 431,-231 431,-231 425,-231 419,-225 419,-219 419,-219 419,-207 419,-207 419,-201 425,-195 431,-195 431,-195 537,-195 537,-195 543,-195 549,-201 549,-207 549,-207 549,-219 549,-219 549,-225 543,-231 537,-231"/>
<text xml:space="preserve" text-anchor="middle" x="484" y="-209.5" font-family="Arial" font-size="10.00" fill="#1a1a1a">(+) visually abstract forms</text>
</g>
<!-- unknown.shapes&#45;&gt;attr_6 -->
<g id="edge4" class="edge">
<title>unknown.shapes&#45;&gt;attr_6</title>
<path fill="none" stroke="#aaaaaa" d="M376.59,-213C386.45,-213 398.16,-213 410.15,-213"/>
<polygon fill="#aaaaaa" stroke="#aaaaaa" points="409.96,-215.45 416.96,-213 409.96,-210.55 409.96,-215.45"/>
</g>
<!-- rel_3 -->
<g id="node17" class="node">
<title>rel_3</title>
<path fill="#f5b8b8" stroke="#d46a6a" stroke-width="1.2" d="M506.25,-166C506.25,-166 461.75,-166 461.75,-166 455.75,-166 449.75,-160 449.75,-154 449.75,-154 449.75,-142 449.75,-142 449.75,-136 455.75,-130 461.75,-130 461.75,-130 506.25,-130 506.25,-130 512.25,-130 518.25,-136 518.25,-142 518.25,-142 518.25,-154 518.25,-154 518.25,-160 512.25,-166 506.25,-166"/>
<text xml:space="preserve" text-anchor="middle" x="484" y="-144.5" font-family="Arial" font-size="10.00" fill="#8b0000">overwhelms</text>
</g>
<!-- unknown.shapes&#45;&gt;rel_3 -->
<g id="edge14" class="edge">
<title>unknown.shapes&#45;&gt;rel_3</title>
<path fill="none" stroke="#d46a6a" stroke-width="1.5" d="M376.59,-200C394.82,-191.1 419.39,-179.09 440.33,-168.85"/>
<polygon fill="#d46a6a" stroke="#d46a6a" stroke-width="1.5" points="441.36,-171.47 447.32,-165.44 438.9,-166.44 441.36,-171.47"/>
</g>
<!-- unknown.color_scheme -->
<g id="node4" class="node">
<title>unknown.color_scheme</title>
<path fill="#b8e6b8" stroke="#2c3e50" stroke-width="1.8" d="M62.5,-296C62.5,-296 12,-296 12,-296 6,-296 0,-290 0,-284 0,-284 0,-272 0,-272 0,-266 6,-260 12,-260 12,-260 62.5,-260 62.5,-260 68.5,-260 74.5,-266 74.5,-272 74.5,-272 74.5,-284 74.5,-284 74.5,-290 68.5,-296 62.5,-296"/>
<text xml:space="preserve" text-anchor="middle" x="37.25" y="-274.5" font-family="Arial" font-size="10.00" fill="#1a1a1a">color scheme</text>
</g>
<!-- attr_3 -->
<g id="node11" class="node">
<title>attr_3</title>
<path fill="#c7b8e6" stroke="#7f8c8d" stroke-width="1.2" d="M258,-361C258,-361 138.5,-361 138.5,-361 132.5,-361 126.5,-355 126.5,-349 126.5,-349 126.5,-337 126.5,-337 126.5,-331 132.5,-325 138.5,-325 138.5,-325 258,-325 258,-325 264,-325 270,-331 270,-337 270,-337 270,-349 270,-349 270,-355 264,-361 258,-361"/>
<text xml:space="preserve" text-anchor="middle" x="198.25" y="-339.5" font-family="Arial" font-size="10.00" fill="#1a1a1a">(+) monochrome low contrast</text>
</g>
<!-- unknown.color_scheme&#45;&gt;attr_3 -->
<g id="edge5" class="edge">
<title>unknown.color_scheme&#45;&gt;attr_3</title>
<path fill="none" stroke="#aaaaaa" d="M75.3,-293.54C88.59,-299.09 103.7,-305.36 117.5,-311 125.75,-314.37 134.49,-317.91 143.04,-321.36"/>
<polygon fill="#aaaaaa" stroke="#aaaaaa" points="142.01,-323.58 149.42,-323.92 143.84,-319.04 142.01,-323.58"/>
</g>
<!-- rel_1 -->
<g id="node15" class="node">
<title>rel_1</title>
<path fill="#f5b8b8" stroke="#d46a6a" stroke-width="1.2" d="M254.62,-231C254.62,-231 141.88,-231 141.88,-231 135.88,-231 129.88,-225 129.88,-219 129.88,-219 129.88,-207 129.88,-207 129.88,-201 135.88,-195 141.88,-195 141.88,-195 254.62,-195 254.62,-195 260.62,-195 266.62,-201 266.62,-207 266.62,-207 266.62,-219 266.62,-219 266.62,-225 260.62,-231 254.62,-231"/>
<text xml:space="preserve" text-anchor="middle" x="198.25" y="-209.5" font-family="Arial" font-size="10.00" fill="#8b0000">reduces distinguishability of</text>
</g>
<!-- unknown.color_scheme&#45;&gt;rel_1 -->
<g id="edge10" class="edge">
<title>unknown.color_scheme&#45;&gt;rel_1</title>
<path fill="none" stroke="#d46a6a" stroke-width="1.5" d="M75.13,-262.92C95.12,-254.75 120.21,-244.5 142.44,-235.41"/>
<polygon fill="#d46a6a" stroke="#d46a6a" stroke-width="1.5" points="143.32,-238.07 149.67,-232.45 141.2,-232.89 143.32,-238.07"/>
</g>
<!-- rel_4 -->
<g id="node18" class="node">
<title>rel_4</title>
<path fill="#f5b8b8" stroke="#d46a6a" stroke-width="1.2" d="M234.75,-296C234.75,-296 161.75,-296 161.75,-296 155.75,-296 149.75,-290 149.75,-284 149.75,-284 149.75,-272 149.75,-272 149.75,-266 155.75,-260 161.75,-260 161.75,-260 234.75,-260 234.75,-260 240.75,-260 246.75,-266 246.75,-272 246.75,-272 246.75,-284 246.75,-284 246.75,-290 240.75,-296 234.75,-296"/>
<text xml:space="preserve" text-anchor="middle" x="198.25" y="-274.5" font-family="Arial" font-size="10.00" fill="#8b0000">increases effort for</text>
</g>
<!-- unknown.color_scheme&#45;&gt;rel_4 -->
<g id="edge16" class="edge">
<title>unknown.color_scheme&#45;&gt;rel_4</title>
<path fill="none" stroke="#d46a6a" stroke-width="1.5" d="M75.13,-278C94.21,-278 117.95,-278 139.41,-278"/>
<polygon fill="#d46a6a" stroke="#d46a6a" stroke-width="1.5" points="139.14,-280.8 147.14,-278 139.14,-275.2 139.14,-280.8"/>
</g>
<!-- unknown.labels -->
<g id="node5" class="node">
<title>unknown.labels</title>
<path fill="#b8e6b8" stroke="#2c3e50" stroke-width="1.8" d="M364,-69C364,-69 334,-69 334,-69 328,-69 322,-63 322,-57 322,-57 322,-45 322,-45 322,-39 328,-33 334,-33 334,-33 364,-33 364,-33 370,-33 376,-39 376,-45 376,-45 376,-57 376,-57 376,-63 370,-69 364,-69"/>
<text xml:space="preserve" text-anchor="middle" x="349" y="-47.5" font-family="Arial" font-size="10.00" fill="#1a1a1a">labels</text>
</g>
<!-- attr_4 -->
<g id="node12" class="node">
<title>attr_4</title>
<path fill="#c7b8e6" stroke="#7f8c8d" stroke-width="1.2" d="M532.5,-101C532.5,-101 435.5,-101 435.5,-101 429.5,-101 423.5,-95 423.5,-89 423.5,-89 423.5,-77 423.5,-77 423.5,-71 429.5,-65 435.5,-65 435.5,-65 532.5,-65 532.5,-65 538.5,-65 544.5,-71 544.5,-77 544.5,-77 544.5,-89 544.5,-89 544.5,-95 538.5,-101 532.5,-101"/>
<text xml:space="preserve" text-anchor="middle" x="484" y="-79.5" font-family="Arial" font-size="10.00" fill="#1a1a1a">(+) absent or insufficient</text>
</g>
<!-- unknown.labels&#45;&gt;attr_4 -->
<g id="edge6" class="edge">
<title>unknown.labels&#45;&gt;attr_4</title>
<path fill="none" stroke="#aaaaaa" d="M376.59,-57.4C387.75,-60.08 401.28,-63.34 414.9,-66.61"/>
<polygon fill="#aaaaaa" stroke="#aaaaaa" points="414.06,-68.93 421.44,-68.19 415.2,-64.17 414.06,-68.93"/>
</g>
<!-- rel_2 -->
<g id="node16" class="node">
<title>rel_2</title>
<path fill="#f5b8b8" stroke="#d46a6a" stroke-width="1.2" d="M525,-36C525,-36 443,-36 443,-36 437,-36 431,-30 431,-24 431,-24 431,-12 431,-12 431,-6 437,0 443,0 443,0 525,0 525,0 531,0 537,-6 537,-12 537,-12 537,-24 537,-24 537,-30 531,-36 525,-36"/>
<text xml:space="preserve" text-anchor="middle" x="484" y="-14.5" font-family="Arial" font-size="10.00" fill="#8b0000">fails to contextualize</text>
</g>
<!-- unknown.labels&#45;&gt;rel_2 -->
<g id="edge12" class="edge">
<title>unknown.labels&#45;&gt;rel_2</title>
<path fill="none" stroke="#d46a6a" stroke-width="1.5" d="M376.59,-44.4C389.4,-41.22 405.34,-37.27 420.95,-33.4"/>
<polygon fill="#d46a6a" stroke="#d46a6a" stroke-width="1.5" points="421.31,-36.19 428.4,-31.55 419.96,-30.76 421.31,-36.19"/>
</g>
<!-- unknown.datapoints -->
<g id="node6" class="node">
<title>unknown.datapoints</title>
<path fill="#b8e6b8" stroke="#2c3e50" stroke-width="1.8" d="M641,-101C641,-101 604,-101 604,-101 598,-101 592,-95 592,-89 592,-89 592,-77 592,-77 592,-71 598,-65 604,-65 604,-65 641,-65 641,-65 647,-65 653,-71 653,-77 653,-77 653,-89 653,-89 653,-95 647,-101 641,-101"/>
<text xml:space="preserve" text-anchor="middle" x="622.5" y="-79.5" font-family="Arial" font-size="10.00" fill="#1a1a1a">datapoints</text>
</g>
<!-- attr_5 -->
<g id="node13" class="node">
<title>attr_5</title>
<path fill="#c7b8e6" stroke="#7f8c8d" stroke-width="1.2" d="M829,-101C829,-101 708,-101 708,-101 702,-101 696,-95 696,-89 696,-89 696,-77 696,-77 696,-71 702,-65 708,-65 708,-65 829,-65 829,-65 835,-65 841,-71 841,-77 841,-77 841,-89 841,-89 841,-95 835,-101 829,-101"/>
<text xml:space="preserve" text-anchor="middle" x="768.5" y="-79.5" font-family="Arial" font-size="10.00" fill="#1a1a1a">(+) random movement pattern</text>
</g>
<!-- unknown.datapoints&#45;&gt;attr_5 -->
<g id="edge7" class="edge">
<title>unknown.datapoints&#45;&gt;attr_5</title>
<path fill="none" stroke="#aaaaaa" d="M653.69,-83C663.67,-83 675.3,-83 687.23,-83"/>
<polygon fill="#aaaaaa" stroke="#aaaaaa" points="687.01,-85.45 694.01,-83 687.01,-80.55 687.01,-85.45"/>
</g>
<!-- rel_0&#45;&gt;unknown.lines -->
<g id="edge9" class="edge">
<title>rel_0&#45;&gt;unknown.lines</title>
<path fill="none" stroke="#d46a6a" stroke-width="1.5" d="M255.49,-395.9C274.15,-391.89 294.45,-387.52 311.26,-383.9"/>
<polygon fill="#d46a6a" stroke="#d46a6a" stroke-width="1.5" points="311.77,-386.66 319.01,-382.24 310.6,-381.18 311.77,-386.66"/>
</g>
<!-- rel_1&#45;&gt;unknown.shapes -->
<g id="edge11" class="edge">
<title>rel_1&#45;&gt;unknown.shapes</title>
<path fill="none" stroke="#d46a6a" stroke-width="1.5" d="M267.1,-213C282.21,-213 297.69,-213 311.01,-213"/>
<polygon fill="#d46a6a" stroke="#d46a6a" stroke-width="1.5" points="310.9,-215.8 318.9,-213 310.9,-210.2 310.9,-215.8"/>
</g>
<!-- rel_2&#45;&gt;unknown.datapoints -->
<g id="edge13" class="edge">
<title>rel_2&#45;&gt;unknown.datapoints</title>
<path fill="none" stroke="#d46a6a" stroke-width="1.5" d="M523.75,-36.45C542.01,-45.15 563.75,-55.5 582.09,-64.23"/>
<polygon fill="#d46a6a" stroke="#d46a6a" stroke-width="1.5" points="580.86,-66.75 589.28,-67.66 583.26,-61.69 580.86,-66.75"/>
</g>
<!-- rel_3&#45;&gt;unknown.datapoints -->
<g id="edge15" class="edge">
<title>rel_3&#45;&gt;unknown.datapoints</title>
<path fill="none" stroke="#d46a6a" stroke-width="1.5" d="M518.74,-131.93C537.96,-122.78 562.14,-111.27 582.21,-101.71"/>
<polygon fill="#d46a6a" stroke="#d46a6a" stroke-width="1.5" points="583.33,-104.28 589.35,-98.31 580.92,-99.22 583.33,-104.28"/>
</g>
<!-- rel_4&#45;&gt;unknown.lines -->
<g id="edge17" class="edge">
<title>rel_4&#45;&gt;unknown.lines</title>
<path fill="none" stroke="#d46a6a" stroke-width="1.5" d="M247.07,-294.47C257.95,-299.11 269.19,-304.65 279,-311 295.75,-321.83 312.11,-336.98 324.69,-349.92"/>
<polygon fill="#d46a6a" stroke="#d46a6a" stroke-width="1.5" points="322.53,-351.72 330.07,-355.6 326.6,-347.87 322.53,-351.72"/>
</g>
</g>
</svg>
