<?xml version="1.0" encoding="UTF-8" standalone="no"?>
<!DOCTYPE svg PUBLIC "-//W3C//DTD SVG 1.1//EN"
 "http://www.w3.org/Graphics/SVG/1.1/DTD/svg11.dtd">
<!-- Generated by graphviz version 14.1.5 (20260411.2331)
 -->
<!-- Title: InfoVisJ.1558.9.png Pages: 1 -->
<svg width="832pt" height="472pt"
 viewBox="0.00 0.00 832.00 472.00" xmlns="http://www.w3.org/2000/svg" xmlns:xlink="http://www.w3.org/1999/xlink">
<g id="graph0" class="graph" transform="scale(1 1) rotate(0) translate(4 468.25)">
<title>InfoVisJ.1558.9.png</title>
<polygon fill="white" stroke="none" points="-4,4 -4,-468.25 827.75,-468.25 827.75,4 -4,4"/>
<text xml:space="preserve" text-anchor="start" x="348.88" y="-443.95" font-family="Arial" font-weight="bold" font-size="14.00">InfoVisJ.1558.9.png</text>
<text xml:space="preserve" text-anchor="start" x="365.75" y="-424" font-family="Arial" font-size="11.00">Glyph &#160;| &#160;VC = 0.54</text>
<path fill="#b8e6b8" stroke="none" d="M202.5,-399C202.5,-399 210.5,-399 210.5,-399 213.5,-399 216.5,-402 216.5,-405 216.5,-405 216.5,-411 216.5,-411 216.5,-414 213.5,-417 210.5,-417 210.5,-417 202.5,-417 202.5,-417 199.5,-417 196.5,-414 196.5,-411 196.5,-411 196.5,-405 196.5,-405 196.5,-402 199.5,-399 202.5,-399"/>
<path fill="none" stroke="black" d="M202.5,-399C202.5,-399 210.5,-399 210.5,-399 213.5,-399 216.5,-402 216.5,-405 216.5,-405 216.5,-411 216.5,-411 216.5,-414 213.5,-417 210.5,-417 210.5,-417 202.5,-417 202.5,-417 199.5,-417 196.5,-414 196.5,-411 196.5,-411 196.5,-405 196.5,-405 196.5,-402 199.5,-399 202.5,-399"/>
<text xml:space="preserve" text-anchor="start" x="205" y="-404.25" font-family="Arial" font-size="10.00"> </text>
<text xml:space="preserve" text-anchor="start" x="220.5" y="-404.25" font-family="Arial" font-size="10.00">Object</text>
<path fill="#c7b8e6" stroke="none" d="M259,-399C259,-399 267,-399 267,-399 270,-399 273,-402 273,-405 273,-405 273,-411 273,-411 273,-414 270,-417 267,-417 267,-417 259,-417 259,-417 256,-417 253,-414 253,-411 253,-411 253,-405 253,-405 253,-402 256,-399 259,-399"/>
<path fill="none" stroke="black" d="M259,-399C259,-399 267,-399 267,-399 270,-399 273,-402 273,-405 273,-405 273,-411 273,-411 273,-414 270,-417 267,-417 267,-417 259,-417 259,-417 256,-417 253,-414 253,-411 253,-411 253,-405 253,-405 253,-402 256,-399 259,-399"/>
<text xml:space="preserve" text-anchor="start" x="261.5" y="-404.25" font-family="Arial" font-size="10.00"> </text>
<text xml:space="preserve" text-anchor="start" x="277" y="-404.25" font-family="Arial" font-size="10.00">Attribute</text>
<path fill="#f5b8b8" stroke="none" d="M323.75,-399C323.75,-399 331.75,-399 331.75,-399 334.75,-399 337.75,-402 337.75,-405 337.75,-405 337.75,-411 337.75,-411 337.75,-414 334.75,-417 331.75,-417 331.75,-417 323.75,-417 323.75,-417 320.75,-417 317.75,-414 317.75,-411 317.75,-411 317.75,-405 317.75,-405 317.75,-402 320.75,-399 323.75,-399"/>
<path fill="none" stroke="black" d="M323.75,-399C323.75,-399 331.75,-399 331.75,-399 334.75,-399 337.75,-402 337.75,-405 337.75,-405 337.75,-411 337.75,-411 337.75,-414 334.75,-417 331.75,-417 331.75,-417 323.75,-417 323.75,-417 320.75,-417 317.75,-414 317.75,-411 317.75,-411 317.75,-405 317.75,-405 317.75,-402 320.75,-399 323.75,-399"/>
<text xml:space="preserve" text-anchor="start" x="326.25" y="-404.25" font-family="Arial" font-size="10.00"> </text>
<text xml:space="preserve" text-anchor="start" x="341.75" y="-404.25" font-family="Arial" font-size="10.00">Relationship</text>
<text xml:space="preserve" text-anchor="start" x="401.75" y="-405.5" font-family="Arial" font-weight="bold" font-size="10.00">(+)</text>
<text xml:space="preserve" text-anchor="start" x="413.75" y="-405.5" font-family="Arial" font-size="10.00"> increases complexity</text>
<text xml:space="preserve" text-anchor="start" x="515" y="-405.5" font-family="Arial" font-weight="bold" font-size="10.00">(−)</text>
<text xml:space="preserve" text-anchor="start" x="527" y="-405.5" font-family="Arial" font-size="10.00"> decreases complexity</text>
<!-- unknown.circles -->
<g id="node1" class="node">
<title>unknown.circles</title>
<path fill="#b8e6b8" stroke="#2c3e50" stroke-width="1.8" d="M342.38,-166C342.38,-166 312.38,-166 312.38,-166 306.38,-166 300.38,-160 300.38,-154 300.38,-154 300.38,-142 300.38,-142 300.38,-136 306.38,-130 312.38,-130 312.38,-130 342.38,-130 342.38,-130 348.38,-130 354.38,-136 354.38,-142 354.38,-142 354.38,-154 354.38,-154 354.38,-160 348.38,-166 342.38,-166"/>
<text xml:space="preserve" text-anchor="middle" x="327.38" y="-144.5" font-family="Arial" font-size="10.00" fill="#1a1a1a">circles</text>
</g>
<!-- attr_0 -->
<g id="node8" class="node">
<title>attr_0</title>
<path fill="#c7b8e6" stroke="#7f8c8d" stroke-width="1.2" d="M518.5,-296C518.5,-296 411,-296 411,-296 405,-296 399,-290 399,-284 399,-284 399,-272 399,-272 399,-266 405,-260 411,-260 411,-260 518.5,-260 518.5,-260 524.5,-260 530.5,-266 530.5,-272 530.5,-272 530.5,-284 530.5,-284 530.5,-290 524.5,-296 518.5,-296"/>
<text xml:space="preserve" text-anchor="middle" x="464.75" y="-274.5" font-family="Arial" font-size="10.00" fill="#1a1a1a">(+) varying sizes clustered</text>
</g>
<!-- unknown.circles&#45;&gt;attr_0 -->
<g id="edge1" class="edge">
<title>unknown.circles&#45;&gt;attr_0</title>
<path fill="none" stroke="#aaaaaa" d="M338.14,-166.71C350.1,-188.14 372.11,-223.23 399,-246 402.96,-249.35 407.32,-252.45 411.87,-255.3"/>
<polygon fill="#aaaaaa" stroke="#aaaaaa" points="410.53,-257.36 417.81,-258.8 413.02,-253.14 410.53,-257.36"/>
</g>
<!-- attr_1 -->
<g id="node9" class="node">
<title>attr_1</title>
<path fill="#c7b8e6" stroke="#7f8c8d" stroke-width="1.2" d="M514.38,-231C514.38,-231 415.12,-231 415.12,-231 409.12,-231 403.12,-225 403.12,-219 403.12,-219 403.12,-207 403.12,-207 403.12,-201 409.12,-195 415.12,-195 415.12,-195 514.38,-195 514.38,-195 520.38,-195 526.38,-201 526.38,-207 526.38,-207 526.38,-219 526.38,-219 526.38,-225 520.38,-231 514.38,-231"/>
<text xml:space="preserve" text-anchor="middle" x="464.75" y="-209.5" font-family="Arial" font-size="10.00" fill="#1a1a1a">(+) overlapping elements</text>
</g>
<!-- unknown.circles&#45;&gt;attr_1 -->
<g id="edge2" class="edge">
<title>unknown.circles&#45;&gt;attr_1</title>
<path fill="none" stroke="#aaaaaa" d="M355.12,-160.84C372.96,-169.41 396.89,-180.9 417.74,-190.91"/>
<polygon fill="#aaaaaa" stroke="#aaaaaa" points="416.53,-193.05 423.9,-193.87 418.65,-188.63 416.53,-193.05"/>
</g>
<!-- rel_0 -->
<g id="node15" class="node">
<title>rel_0</title>
<path fill="#f5b8b8" stroke="#d46a6a" stroke-width="1.2" d="M479.75,-166C479.75,-166 449.75,-166 449.75,-166 443.75,-166 437.75,-160 437.75,-154 437.75,-154 437.75,-142 437.75,-142 437.75,-136 443.75,-130 449.75,-130 449.75,-130 479.75,-130 479.75,-130 485.75,-130 491.75,-136 491.75,-142 491.75,-142 491.75,-154 491.75,-154 491.75,-160 485.75,-166 479.75,-166"/>
<text xml:space="preserve" text-anchor="middle" x="464.75" y="-144.5" font-family="Arial" font-size="10.00" fill="#8b0000">creates</text>
</g>
<!-- unknown.circles&#45;&gt;rel_0 -->
<g id="edge8" class="edge">
<title>unknown.circles&#45;&gt;rel_0</title>
<path fill="none" stroke="#d46a6a" stroke-width="1.5" d="M355.12,-148C375.84,-148 404.74,-148 427.53,-148"/>
<polygon fill="#d46a6a" stroke="#d46a6a" stroke-width="1.5" points="427.25,-150.8 435.25,-148 427.25,-145.2 427.25,-150.8"/>
</g>
<!-- rel_4 -->
<g id="node19" class="node">
<title>rel_4</title>
<path fill="#f5b8b8" stroke="#d46a6a" stroke-width="1.2" d="M516.25,-101C516.25,-101 413.25,-101 413.25,-101 407.25,-101 401.25,-95 401.25,-89 401.25,-89 401.25,-77 401.25,-77 401.25,-71 407.25,-65 413.25,-65 413.25,-65 516.25,-65 516.25,-65 522.25,-65 528.25,-71 528.25,-77 528.25,-77 528.25,-89 528.25,-89 528.25,-95 522.25,-101 516.25,-101"/>
<text xml:space="preserve" text-anchor="middle" x="464.75" y="-79.5" font-family="Arial" font-size="10.00" fill="#8b0000">requires effort to compare</text>
</g>
<!-- unknown.circles&#45;&gt;rel_4 -->
<g id="edge16" class="edge">
<title>unknown.circles&#45;&gt;rel_4</title>
<path fill="none" stroke="#d46a6a" stroke-width="1.5" d="M355.12,-135.16C372.49,-126.82 395.63,-115.71 416.09,-105.88"/>
<polygon fill="#d46a6a" stroke="#d46a6a" stroke-width="1.5" points="417.22,-108.45 423.22,-102.46 414.8,-103.4 417.22,-108.45"/>
</g>
<!-- unknown.squares -->
<g id="node2" class="node">
<title>unknown.squares</title>
<path fill="#b8e6b8" stroke="#2c3e50" stroke-width="1.8" d="M615.5,-198C615.5,-198 585.5,-198 585.5,-198 579.5,-198 573.5,-192 573.5,-186 573.5,-186 573.5,-174 573.5,-174 573.5,-168 579.5,-162 585.5,-162 585.5,-162 615.5,-162 615.5,-162 621.5,-162 627.5,-168 627.5,-174 627.5,-174 627.5,-186 627.5,-186 627.5,-192 621.5,-198 615.5,-198"/>
<text xml:space="preserve" text-anchor="middle" x="600.5" y="-176.5" font-family="Arial" font-size="10.00" fill="#1a1a1a">squares</text>
</g>
<!-- attr_2 -->
<g id="node10" class="node">
<title>attr_2</title>
<path fill="#c7b8e6" stroke="#7f8c8d" stroke-width="1.2" d="M797.88,-231C797.88,-231 696.38,-231 696.38,-231 690.38,-231 684.38,-225 684.38,-219 684.38,-219 684.38,-207 684.38,-207 684.38,-201 690.38,-195 696.38,-195 696.38,-195 797.88,-195 797.88,-195 803.88,-195 809.88,-201 809.88,-207 809.88,-207 809.88,-219 809.88,-219 809.88,-225 803.88,-231 797.88,-231"/>
<text xml:space="preserve" text-anchor="middle" x="747.12" y="-209.5" font-family="Arial" font-size="10.00" fill="#1a1a1a">(+) dotted border squares</text>
</g>
<!-- unknown.squares&#45;&gt;attr_2 -->
<g id="edge3" class="edge">
<title>unknown.squares&#45;&gt;attr_2</title>
<path fill="none" stroke="#aaaaaa" d="M628.36,-186.13C641.84,-189.21 658.86,-193.09 675.74,-196.94"/>
<polygon fill="#aaaaaa" stroke="#aaaaaa" points="675.16,-199.32 682.53,-198.49 676.25,-194.54 675.16,-199.32"/>
</g>
<!-- furniture.legend -->
<g id="node3" class="node">
<title>furniture.legend</title>
<path fill="#b8e6b8" stroke="#2c3e50" stroke-width="1.8" d="M615.5,-101C615.5,-101 585.5,-101 585.5,-101 579.5,-101 573.5,-95 573.5,-89 573.5,-89 573.5,-77 573.5,-77 573.5,-71 579.5,-65 585.5,-65 585.5,-65 615.5,-65 615.5,-65 621.5,-65 627.5,-71 627.5,-77 627.5,-77 627.5,-89 627.5,-89 627.5,-95 621.5,-101 615.5,-101"/>
<text xml:space="preserve" text-anchor="middle" x="600.5" y="-79.5" font-family="Arial" font-size="10.00" fill="#1a1a1a">legend</text>
</g>
<!-- attr_3 -->
<g id="node11" class="node">
<title>attr_3</title>
<path fill="#c7b8e6" stroke="#7f8c8d" stroke-width="1.2" d="M811.75,-166C811.75,-166 682.5,-166 682.5,-166 676.5,-166 670.5,-160 670.5,-154 670.5,-154 670.5,-142 670.5,-142 670.5,-136 676.5,-130 682.5,-130 682.5,-130 811.75,-130 811.75,-130 817.75,-130 823.75,-136 823.75,-142 823.75,-142 823.75,-154 823.75,-154 823.75,-160 817.75,-166 811.75,-166"/>
<text xml:space="preserve" text-anchor="middle" x="747.12" y="-144.5" font-family="Arial" font-size="10.00" fill="#1a1a1a">(+) unlabeled insufficient legend</text>
</g>
<!-- furniture.legend&#45;&gt;attr_3 -->
<g id="edge4" class="edge">
<title>furniture.legend&#45;&gt;attr_3</title>
<path fill="none" stroke="#aaaaaa" d="M628.3,-95.6C641.05,-101.55 656.53,-108.71 670.5,-115 678.6,-118.65 687.22,-122.46 695.62,-126.15"/>
<polygon fill="#aaaaaa" stroke="#aaaaaa" points="694.47,-128.32 701.87,-128.89 696.44,-123.84 694.47,-128.32"/>
</g>
<!-- attr_4 -->
<g id="node12" class="node">
<title>attr_4</title>
<path fill="#c7b8e6" stroke="#7f8c8d" stroke-width="1.2" d="M804.62,-101C804.62,-101 689.62,-101 689.62,-101 683.62,-101 677.62,-95 677.62,-89 677.62,-89 677.62,-77 677.62,-77 677.62,-71 683.62,-65 689.62,-65 689.62,-65 804.62,-65 804.62,-65 810.62,-65 816.62,-71 816.62,-77 816.62,-77 816.62,-89 816.62,-89 816.62,-95 810.62,-101 804.62,-101"/>
<text xml:space="preserve" text-anchor="middle" x="747.12" y="-79.5" font-family="Arial" font-size="10.00" fill="#1a1a1a">(+) too close to visualization</text>
</g>
<!-- furniture.legend&#45;&gt;attr_4 -->
<g id="edge5" class="edge">
<title>furniture.legend&#45;&gt;attr_4</title>
<path fill="none" stroke="#aaaaaa" d="M628.36,-83C640.08,-83 654.48,-83 669.13,-83"/>
<polygon fill="#aaaaaa" stroke="#aaaaaa" points="668.77,-85.45 675.77,-83 668.77,-80.55 668.77,-85.45"/>
</g>
<!-- rel_1 -->
<g id="node16" class="node">
<title>rel_1</title>
<path fill="#f5b8b8" stroke="#d46a6a" stroke-width="1.2" d="M779.5,-36C779.5,-36 714.75,-36 714.75,-36 708.75,-36 702.75,-30 702.75,-24 702.75,-24 702.75,-12 702.75,-12 702.75,-6 708.75,0 714.75,0 714.75,0 779.5,0 779.5,0 785.5,0 791.5,-6 791.5,-12 791.5,-12 791.5,-24 791.5,-24 791.5,-30 785.5,-36 779.5,-36"/>
<text xml:space="preserve" text-anchor="middle" x="747.12" y="-14.5" font-family="Arial" font-size="10.00" fill="#8b0000">lacks context for</text>
</g>
<!-- furniture.legend&#45;&gt;rel_1 -->
<g id="edge10" class="edge">
<title>furniture.legend&#45;&gt;rel_1</title>
<path fill="none" stroke="#d46a6a" stroke-width="1.5" d="M628.24,-69.86C640.97,-63.69 656.46,-56.33 670.5,-50 677.8,-46.71 685.54,-43.33 693.17,-40.04"/>
<polygon fill="#d46a6a" stroke="#d46a6a" stroke-width="1.5" points="694.04,-42.72 700.3,-37 691.84,-37.57 694.04,-42.72"/>
</g>
<!-- property.color -->
<g id="node4" class="node">
<title>property.color</title>
<path fill="#b8e6b8" stroke="#2c3e50" stroke-width="1.8" d="M48.12,-328C48.12,-328 18.12,-328 18.12,-328 12.12,-328 6.12,-322 6.12,-316 6.12,-316 6.12,-304 6.12,-304 6.12,-298 12.12,-292 18.12,-292 18.12,-292 48.12,-292 48.12,-292 54.12,-292 60.12,-298 60.12,-304 60.12,-304 60.12,-316 60.12,-316 60.12,-322 54.12,-328 48.12,-328"/>
<text xml:space="preserve" text-anchor="middle" x="33.12" y="-306.5" font-family="Arial" font-size="10.00" fill="#1a1a1a">color</text>
</g>
<!-- attr_5 -->
<g id="node13" class="node">
<title>attr_5</title>
<path fill="#c7b8e6" stroke="#7f8c8d" stroke-width="1.2" d="M237,-361C237,-361 128,-361 128,-361 122,-361 116,-355 116,-349 116,-349 116,-337 116,-337 116,-331 122,-325 128,-325 128,-325 237,-325 237,-325 243,-325 249,-331 249,-337 249,-337 249,-349 249,-349 249,-355 243,-361 237,-361"/>
<text xml:space="preserve" text-anchor="middle" x="182.5" y="-339.5" font-family="Arial" font-size="10.00" fill="#1a1a1a">(−) appealing similar colors</text>
</g>
<!-- property.color&#45;&gt;attr_5 -->
<g id="edge6" class="edge">
<title>property.color&#45;&gt;attr_5</title>
<path fill="none" stroke="#aaaaaa" d="M60.81,-315.98C74,-318.93 90.64,-322.65 107.3,-326.39"/>
<polygon fill="#aaaaaa" stroke="#aaaaaa" points="106.63,-328.75 114,-327.89 107.7,-323.96 106.63,-328.75"/>
</g>
<!-- rel_2 -->
<g id="node17" class="node">
<title>rel_2</title>
<path fill="#f5b8b8" stroke="#d46a6a" stroke-width="1.2" d="M223.12,-296C223.12,-296 141.88,-296 141.88,-296 135.88,-296 129.88,-290 129.88,-284 129.88,-284 129.88,-272 129.88,-272 129.88,-266 135.88,-260 141.88,-260 141.88,-260 223.12,-260 223.12,-260 229.12,-260 235.12,-266 235.12,-272 235.12,-272 235.12,-284 235.12,-284 235.12,-290 229.12,-296 223.12,-296"/>
<text xml:space="preserve" text-anchor="middle" x="182.5" y="-274.5" font-family="Arial" font-size="10.00" fill="#8b0000">draws attention from</text>
</g>
<!-- property.color&#45;&gt;rel_2 -->
<g id="edge12" class="edge">
<title>property.color&#45;&gt;rel_2</title>
<path fill="none" stroke="#d46a6a" stroke-width="1.5" d="M60.81,-304.21C77.21,-300.65 98.93,-295.93 119.43,-291.48"/>
<polygon fill="#d46a6a" stroke="#d46a6a" stroke-width="1.5" points="119.92,-294.24 127.14,-289.8 118.73,-288.76 119.92,-294.24"/>
</g>
<!-- unknown.dotted_lines -->
<g id="node5" class="node">
<title>unknown.dotted_lines</title>
<path fill="#b8e6b8" stroke="#2c3e50" stroke-width="1.8" d="M54.25,-393C54.25,-393 12,-393 12,-393 6,-393 0,-387 0,-381 0,-381 0,-369 0,-369 0,-363 6,-357 12,-357 12,-357 54.25,-357 54.25,-357 60.25,-357 66.25,-363 66.25,-369 66.25,-369 66.25,-381 66.25,-381 66.25,-387 60.25,-393 54.25,-393"/>
<text xml:space="preserve" text-anchor="middle" x="33.12" y="-371.5" font-family="Arial" font-size="10.00" fill="#1a1a1a">dotted lines</text>
</g>
<!-- text.axis_label -->
<g id="node6" class="node">
<title>text.axis_label</title>
<path fill="#b8e6b8" stroke="#2c3e50" stroke-width="1.8" d="M344,-296C344,-296 310.75,-296 310.75,-296 304.75,-296 298.75,-290 298.75,-284 298.75,-284 298.75,-272 298.75,-272 298.75,-266 304.75,-260 310.75,-260 310.75,-260 344,-260 344,-260 350,-260 356,-266 356,-272 356,-272 356,-284 356,-284 356,-290 350,-296 344,-296"/>
<text xml:space="preserve" text-anchor="middle" x="327.38" y="-274.5" font-family="Arial" font-size="10.00" fill="#1a1a1a">axis label</text>
</g>
<!-- unknown.zoom_inset -->
<g id="node7" class="node">
<title>unknown.zoom_inset</title>
<path fill="#b8e6b8" stroke="#2c3e50" stroke-width="1.8" d="M53.12,-199C53.12,-199 13.12,-199 13.12,-199 7.12,-199 1.12,-193 1.12,-187 1.12,-187 1.12,-175 1.12,-175 1.12,-169 7.12,-163 13.12,-163 13.12,-163 53.12,-163 53.12,-163 59.12,-163 65.12,-169 65.12,-175 65.12,-175 65.12,-187 65.12,-187 65.12,-193 59.12,-199 53.12,-199"/>
<text xml:space="preserve" text-anchor="middle" x="33.12" y="-177.5" font-family="Arial" font-size="10.00" fill="#1a1a1a">zoom inset</text>
</g>
<!-- attr_6 -->
<g id="node14" class="node">
<title>attr_6</title>
<path fill="#c7b8e6" stroke="#7f8c8d" stroke-width="1.2" d="M243.75,-231C243.75,-231 121.25,-231 121.25,-231 115.25,-231 109.25,-225 109.25,-219 109.25,-219 109.25,-207 109.25,-207 109.25,-201 115.25,-195 121.25,-195 121.25,-195 243.75,-195 243.75,-195 249.75,-195 255.75,-201 255.75,-207 255.75,-207 255.75,-219 255.75,-219 255.75,-225 249.75,-231 243.75,-231"/>
<text xml:space="preserve" text-anchor="middle" x="182.5" y="-209.5" font-family="Arial" font-size="10.00" fill="#1a1a1a">(+) insufficiently distinct zoom</text>
</g>
<!-- unknown.zoom_inset&#45;&gt;attr_6 -->
<g id="edge7" class="edge">
<title>unknown.zoom_inset&#45;&gt;attr_6</title>
<path fill="none" stroke="#aaaaaa" d="M65.74,-187.86C76.15,-190.12 88.24,-192.75 100.6,-195.43"/>
<polygon fill="#aaaaaa" stroke="#aaaaaa" points="99.91,-197.79 107.27,-196.88 100.95,-193 99.91,-197.79"/>
</g>
<!-- rel_3 -->
<g id="node18" class="node">
<title>rel_3</title>
<path fill="#f5b8b8" stroke="#d46a6a" stroke-width="1.2" d="M229.12,-166C229.12,-166 135.88,-166 135.88,-166 129.88,-166 123.88,-160 123.88,-154 123.88,-154 123.88,-142 123.88,-142 123.88,-136 129.88,-130 135.88,-130 135.88,-130 229.12,-130 229.12,-130 235.12,-130 241.12,-136 241.12,-142 241.12,-142 241.12,-154 241.12,-154 241.12,-160 235.12,-166 229.12,-166"/>
<text xml:space="preserve" text-anchor="middle" x="182.5" y="-144.5" font-family="Arial" font-size="10.00" fill="#8b0000">fails to distinguish from</text>
</g>
<!-- unknown.zoom_inset&#45;&gt;rel_3 -->
<g id="edge14" class="edge">
<title>unknown.zoom_inset&#45;&gt;rel_3</title>
<path fill="none" stroke="#d46a6a" stroke-width="1.5" d="M65.74,-173.92C79.81,-170.77 96.96,-166.93 113.7,-163.18"/>
<polygon fill="#d46a6a" stroke="#d46a6a" stroke-width="1.5" points="114.07,-165.97 121.26,-161.49 112.85,-160.5 114.07,-165.97"/>
</g>
<!-- rel_0&#45;&gt;unknown.squares -->
<g id="edge9" class="edge">
<title>rel_0&#45;&gt;unknown.squares</title>
<path fill="none" stroke="#d46a6a" stroke-width="1.5" d="M492.17,-154.32C512.38,-159.16 540.47,-165.88 562.84,-171.23"/>
<polygon fill="#d46a6a" stroke="#d46a6a" stroke-width="1.5" points="562.03,-173.91 570.46,-173.05 563.34,-168.47 562.03,-173.91"/>
</g>
<!-- rel_1&#45;&gt;unknown.circles -->
<g id="edge11" class="edge">
<title>rel_1&#45;&gt;unknown.circles</title>
<path fill="none" stroke="#d46a6a" stroke-width="1.5" d="M702.42,-11.09C633.08,-2.41 495.82,5.32 399,-50 371.31,-65.82 351.6,-97.42 340.16,-120.47"/>
<polygon fill="#d46a6a" stroke="#d46a6a" stroke-width="1.5" points="337.77,-118.97 336.87,-127.4 342.83,-121.37 337.77,-118.97"/>
</g>
<!-- rel_2&#45;&gt;text.axis_label -->
<g id="edge13" class="edge">
<title>rel_2&#45;&gt;text.axis_label</title>
<path fill="none" stroke="#d46a6a" stroke-width="1.5" d="M235.49,-278C252.76,-278 271.69,-278 287.77,-278"/>
<polygon fill="#d46a6a" stroke="#d46a6a" stroke-width="1.5" points="287.62,-280.8 295.62,-278 287.62,-275.2 287.62,-280.8"/>
</g>
<!-- rel_3&#45;&gt;unknown.circles -->
<g id="edge15" class="edge">
<title>rel_3&#45;&gt;unknown.circles</title>
<path fill="none" stroke="#d46a6a" stroke-width="1.5" d="M241.61,-148C257.78,-148 274.88,-148 289.46,-148"/>
<polygon fill="#d46a6a" stroke="#d46a6a" stroke-width="1.5" points="289.31,-150.8 297.31,-148 289.31,-145.2 289.31,-150.8"/>
</g>
<!-- rel_4&#45;&gt;furniture.legend -->
<g id="edge17" class="edge">
<title>rel_4&#45;&gt;furniture.legend</title>
<path fill="none" stroke="#d46a6a" stroke-width="1.5" d="M528.71,-83C540.4,-83 552.24,-83 562.82,-83"/>
<polygon fill="#d46a6a" stroke="#d46a6a" stroke-width="1.5" points="562.64,-85.8 570.64,-83 562.64,-80.2 562.64,-85.8"/>
</g>
</g>
</svg>
