<?xml version="1.0" encoding="UTF-8" standalone="no"?>
<!DOCTYPE svg PUBLIC "-//W3C//DTD SVG 1.1//EN"
 "http://www.w3.org/Graphics/SVG/1.1/DTD/svg11.dtd">
<!-- Generated by graphviz version 14.1.5 (20260411.2331)
 -->
<!-- Title: InfoVisJ.681.1.png Pages: 1 -->
<svg width="847pt" height="440pt"
 viewBox="0.00 0.00 847.00 440.00" xmlns="http://www.w3.org/2000/svg" xmlns:xlink="http://www.w3.org/1999/xlink">
<g id="graph0" class="graph" transform="scale(1 1) rotate(0) translate(4 436.25)">
<title>InfoVisJ.681.1.png</title>
<polygon fill="white" stroke="none" points="-4,4 -4,-436.25 843,-436.25 843,4 -4,4"/>
<text xml:space="preserve" text-anchor="start" x="360.25" y="-411.95" font-family="Arial" font-weight="bold" font-size="14.00">InfoVisJ.681.1.png</text>
<text xml:space="preserve" text-anchor="start" x="347.88" y="-392" font-family="Arial" font-size="11.00">Cont.&#45;ColorPatn &#160;| &#160;VC = 0.69</text>
<path fill="#b8e6b8" stroke="none" d="M210.12,-367C210.12,-367 218.12,-367 218.12,-367 221.12,-367 224.12,-370 224.12,-373 224.12,-373 224.12,-379 224.12,-379 224.12,-382 221.12,-385 218.12,-385 218.12,-385 210.12,-385 210.12,-385 207.12,-385 204.12,-382 204.12,-379 204.12,-379 204.12,-373 204.12,-373 204.12,-370 207.12,-367 210.12,-367"/>
<path fill="none" stroke="black" d="M210.12,-367C210.12,-367 218.12,-367 218.12,-367 221.12,-367 224.12,-370 224.12,-373 224.12,-373 224.12,-379 224.12,-379 224.12,-382 221.12,-385 218.12,-385 218.12,-385 210.12,-385 210.12,-385 207.12,-385 204.12,-382 204.12,-379 204.12,-379 204.12,-373 204.12,-373 204.12,-370 207.12,-367 210.12,-367"/>
<text xml:space="preserve" text-anchor="start" x="212.62" y="-372.25" font-family="Arial" font-size="10.00"> </text>
<text xml:space="preserve" text-anchor="start" x="228.12" y="-372.25" font-family="Arial" font-size="10.00">Object</text>
<path fill="#c7b8e6" stroke="none" d="M266.62,-367C266.62,-367 274.62,-367 274.62,-367 277.62,-367 280.62,-370 280.62,-373 280.62,-373 280.62,-379 280.62,-379 280.62,-382 277.62,-385 274.62,-385 274.62,-385 266.62,-385 266.62,-385 263.62,-385 260.62,-382 260.62,-379 260.62,-379 260.62,-373 260.62,-373 260.62,-370 263.62,-367 266.62,-367"/>
<path fill="none" stroke="black" d="M266.62,-367C266.62,-367 274.62,-367 274.62,-367 277.62,-367 280.62,-370 280.62,-373 280.62,-373 280.62,-379 280.62,-379 280.62,-382 277.62,-385 274.62,-385 274.62,-385 266.62,-385 266.62,-385 263.62,-385 260.62,-382 260.62,-379 260.62,-379 260.62,-373 260.62,-373 260.62,-370 263.62,-367 266.62,-367"/>
<text xml:space="preserve" text-anchor="start" x="269.12" y="-372.25" font-family="Arial" font-size="10.00"> </text>
<text xml:space="preserve" text-anchor="start" x="284.62" y="-372.25" font-family="Arial" font-size="10.00">Attribute</text>
<path fill="#f5b8b8" stroke="none" d="M331.38,-367C331.38,-367 339.38,-367 339.38,-367 342.38,-367 345.38,-370 345.38,-373 345.38,-373 345.38,-379 345.38,-379 345.38,-382 342.38,-385 339.38,-385 339.38,-385 331.38,-385 331.38,-385 328.38,-385 325.38,-382 325.38,-379 325.38,-379 325.38,-373 325.38,-373 325.38,-370 328.38,-367 331.38,-367"/>
<path fill="none" stroke="black" d="M331.38,-367C331.38,-367 339.38,-367 339.38,-367 342.38,-367 345.38,-370 345.38,-373 345.38,-373 345.38,-379 345.38,-379 345.38,-382 342.38,-385 339.38,-385 339.38,-385 331.38,-385 331.38,-385 328.38,-385 325.38,-382 325.38,-379 325.38,-379 325.38,-373 325.38,-373 325.38,-370 328.38,-367 331.38,-367"/>
<text xml:space="preserve" text-anchor="start" x="333.88" y="-372.25" font-family="Arial" font-size="10.00"> </text>
<text xml:space="preserve" text-anchor="start" x="349.38" y="-372.25" font-family="Arial" font-size="10.00">Relationship</text>
<text xml:space="preserve" text-anchor="start" x="409.38" y="-373.5" font-family="Arial" font-weight="bold" font-size="10.00">(+)</text>
<text xml:space="preserve" text-anchor="start" x="421.38" y="-373.5" font-family="Arial" font-size="10.00"> increases complexity</text>
<text xml:space="preserve" text-anchor="start" x="522.62" y="-373.5" font-family="Arial" font-weight="bold" font-size="10.00">(−)</text>
<text xml:space="preserve" text-anchor="start" x="534.62" y="-373.5" font-family="Arial" font-size="10.00"> decreases complexity</text>
<!-- unknown.color_scale -->
<g id="node1" class="node">
<title>unknown.color_scale</title>
<path fill="#b8e6b8" stroke="#2c3e50" stroke-width="1.8" d="M60.62,-328C60.62,-328 21.38,-328 21.38,-328 15.38,-328 9.38,-322 9.38,-316 9.38,-316 9.38,-304 9.38,-304 9.38,-298 15.38,-292 21.38,-292 21.38,-292 60.62,-292 60.62,-292 66.62,-292 72.62,-298 72.62,-304 72.62,-304 72.62,-316 72.62,-316 72.62,-322 66.62,-328 60.62,-328"/>
<text xml:space="preserve" text-anchor="middle" x="41" y="-306.5" font-family="Arial" font-size="10.00" fill="#1a1a1a">color scale</text>
</g>
<!-- attr_0 -->
<g id="node7" class="node">
<title>attr_0</title>
<path fill="#c7b8e6" stroke="#7f8c8d" stroke-width="1.2" d="M226.12,-361C226.12,-361 159.12,-361 159.12,-361 153.12,-361 147.12,-355 147.12,-349 147.12,-349 147.12,-337 147.12,-337 147.12,-331 153.12,-325 159.12,-325 159.12,-325 226.12,-325 226.12,-325 232.12,-325 238.12,-331 238.12,-337 238.12,-337 238.12,-349 238.12,-349 238.12,-355 232.12,-361 226.12,-361"/>
<text xml:space="preserve" text-anchor="middle" x="192.62" y="-339.5" font-family="Arial" font-size="10.00" fill="#1a1a1a">(+) present at top</text>
</g>
<!-- unknown.color_scale&#45;&gt;attr_0 -->
<g id="edge1" class="edge">
<title>unknown.color_scale&#45;&gt;attr_0</title>
<path fill="none" stroke="#aaaaaa" d="M73.37,-316.92C92.21,-321.07 116.68,-326.47 138.47,-331.28"/>
<polygon fill="#aaaaaa" stroke="#aaaaaa" points="137.83,-333.65 145.2,-332.76 138.89,-328.86 137.83,-333.65"/>
</g>
<!-- rel_0 -->
<g id="node14" class="node">
<title>rel_0</title>
<path fill="#f5b8b8" stroke="#d46a6a" stroke-width="1.2" d="M241.12,-296C241.12,-296 144.12,-296 144.12,-296 138.12,-296 132.12,-290 132.12,-284 132.12,-284 132.12,-272 132.12,-272 132.12,-266 138.12,-260 144.12,-260 144.12,-260 241.12,-260 241.12,-260 247.12,-260 253.12,-266 253.12,-272 253.12,-272 253.12,-284 253.12,-284 253.12,-290 247.12,-296 241.12,-296"/>
<text xml:space="preserve" text-anchor="middle" x="192.62" y="-274.5" font-family="Arial" font-size="10.00" fill="#8b0000">requires interpretation of</text>
</g>
<!-- unknown.color_scale&#45;&gt;rel_0 -->
<g id="edge8" class="edge">
<title>unknown.color_scale&#45;&gt;rel_0</title>
<path fill="none" stroke="#d46a6a" stroke-width="1.5" d="M73.37,-303.29C87.48,-300.27 104.75,-296.58 121.68,-292.96"/>
<polygon fill="#d46a6a" stroke="#d46a6a" stroke-width="1.5" points="122.13,-295.73 129.37,-291.32 120.96,-290.25 122.13,-295.73"/>
</g>
<!-- property.color -->
<g id="node2" class="node">
<title>property.color</title>
<path fill="#b8e6b8" stroke="#2c3e50" stroke-width="1.8" d="M365.25,-231C365.25,-231 335.25,-231 335.25,-231 329.25,-231 323.25,-225 323.25,-219 323.25,-219 323.25,-207 323.25,-207 323.25,-201 329.25,-195 335.25,-195 335.25,-195 365.25,-195 365.25,-195 371.25,-195 377.25,-201 377.25,-207 377.25,-207 377.25,-219 377.25,-219 377.25,-225 371.25,-231 365.25,-231"/>
<text xml:space="preserve" text-anchor="middle" x="350.25" y="-209.5" font-family="Arial" font-size="10.00" fill="#1a1a1a">color</text>
</g>
<!-- attr_1 -->
<g id="node8" class="node">
<title>attr_1</title>
<path fill="#c7b8e6" stroke="#7f8c8d" stroke-width="1.2" d="M562,-231C562,-231 453.75,-231 453.75,-231 447.75,-231 441.75,-225 441.75,-219 441.75,-219 441.75,-207 441.75,-207 441.75,-201 447.75,-195 453.75,-195 453.75,-195 562,-195 562,-195 568,-195 574,-201 574,-207 574,-207 574,-219 574,-219 574,-225 568,-231 562,-231"/>
<text xml:space="preserve" text-anchor="middle" x="507.88" y="-209.5" font-family="Arial" font-size="10.00" fill="#1a1a1a">(+) abstract color encoding</text>
</g>
<!-- property.color&#45;&gt;attr_1 -->
<g id="edge2" class="edge">
<title>property.color&#45;&gt;attr_1</title>
<path fill="none" stroke="#aaaaaa" d="M378,-213C393.29,-213 413.28,-213 432.94,-213"/>
<polygon fill="#aaaaaa" stroke="#aaaaaa" points="432.81,-215.45 439.81,-213 432.81,-210.55 432.81,-215.45"/>
</g>
<!-- attr_6 -->
<g id="node9" class="node">
<title>attr_6</title>
<path fill="#c7b8e6" stroke="#7f8c8d" stroke-width="1.2" d="M548.5,-296C548.5,-296 467.25,-296 467.25,-296 461.25,-296 455.25,-290 455.25,-284 455.25,-284 455.25,-272 455.25,-272 455.25,-266 461.25,-260 467.25,-260 467.25,-260 548.5,-260 548.5,-260 554.5,-260 560.5,-266 560.5,-272 560.5,-272 560.5,-284 560.5,-284 560.5,-290 554.5,-296 548.5,-296"/>
<text xml:space="preserve" text-anchor="middle" x="507.88" y="-274.5" font-family="Arial" font-size="10.00" fill="#1a1a1a">(+) unclear colormap</text>
</g>
<!-- property.color&#45;&gt;attr_6 -->
<g id="edge3" class="edge">
<title>property.color&#45;&gt;attr_6</title>
<path fill="none" stroke="#aaaaaa" d="M378,-224.17C399.03,-232.96 428.97,-245.46 454.69,-256.21"/>
<polygon fill="#aaaaaa" stroke="#aaaaaa" points="453.73,-258.46 461.13,-258.89 455.62,-253.94 453.73,-258.46"/>
</g>
<!-- rel_4 -->
<g id="node18" class="node">
<title>rel_4</title>
<path fill="#f5b8b8" stroke="#d46a6a" stroke-width="1.2" d="M523.75,-166C523.75,-166 492,-166 492,-166 486,-166 480,-160 480,-154 480,-154 480,-142 480,-142 480,-136 486,-130 492,-130 492,-130 523.75,-130 523.75,-130 529.75,-130 535.75,-136 535.75,-142 535.75,-142 535.75,-154 535.75,-154 535.75,-160 529.75,-166 523.75,-166"/>
<text xml:space="preserve" text-anchor="middle" x="507.88" y="-144.5" font-family="Arial" font-size="10.00" fill="#8b0000">obscures</text>
</g>
<!-- property.color&#45;&gt;rel_4 -->
<g id="edge16" class="edge">
<title>property.color&#45;&gt;rel_4</title>
<path fill="none" stroke="#d46a6a" stroke-width="1.5" d="M378,-201.83C403.46,-191.19 441.96,-175.11 470.26,-163.29"/>
<polygon fill="#d46a6a" stroke="#d46a6a" stroke-width="1.5" points="471.03,-166.01 477.33,-160.34 468.87,-160.84 471.03,-166.01"/>
</g>
<!-- unknown.shape_indicator -->
<g id="node3" class="node">
<title>unknown.shape_indicator</title>
<path fill="#b8e6b8" stroke="#2c3e50" stroke-width="1.8" d="M70,-199C70,-199 12,-199 12,-199 6,-199 0,-193 0,-187 0,-187 0,-175 0,-175 0,-169 6,-163 12,-163 12,-163 70,-163 70,-163 76,-163 82,-169 82,-175 82,-175 82,-187 82,-187 82,-193 76,-199 70,-199"/>
<text xml:space="preserve" text-anchor="middle" x="41" y="-177.5" font-family="Arial" font-size="10.00" fill="#1a1a1a">shape indicator</text>
</g>
<!-- attr_2 -->
<g id="node10" class="node">
<title>attr_2</title>
<path fill="#c7b8e6" stroke="#7f8c8d" stroke-width="1.2" d="M239.62,-166C239.62,-166 145.62,-166 145.62,-166 139.62,-166 133.62,-160 133.62,-154 133.62,-154 133.62,-142 133.62,-142 133.62,-136 139.62,-130 145.62,-130 145.62,-130 239.62,-130 239.62,-130 245.62,-130 251.62,-136 251.62,-142 251.62,-142 251.62,-154 251.62,-154 251.62,-160 245.62,-166 239.62,-166"/>
<text xml:space="preserve" text-anchor="middle" x="192.62" y="-144.5" font-family="Arial" font-size="10.00" fill="#1a1a1a">(+) small box indicators</text>
</g>
<!-- unknown.shape_indicator&#45;&gt;attr_2 -->
<g id="edge4" class="edge">
<title>unknown.shape_indicator&#45;&gt;attr_2</title>
<path fill="none" stroke="#aaaaaa" d="M82.89,-171.98C95.95,-169.1 110.77,-165.83 125.18,-162.66"/>
<polygon fill="#aaaaaa" stroke="#aaaaaa" points="125.33,-165.13 131.64,-161.23 124.28,-160.34 125.33,-165.13"/>
</g>
<!-- rel_2 -->
<g id="node16" class="node">
<title>rel_2</title>
<path fill="#f5b8b8" stroke="#d46a6a" stroke-width="1.2" d="M214.88,-231C214.88,-231 170.38,-231 170.38,-231 164.38,-231 158.38,-225 158.38,-219 158.38,-219 158.38,-207 158.38,-207 158.38,-201 164.38,-195 170.38,-195 170.38,-195 214.88,-195 214.88,-195 220.88,-195 226.88,-201 226.88,-207 226.88,-207 226.88,-219 226.88,-219 226.88,-225 220.88,-231 214.88,-231"/>
<text xml:space="preserve" text-anchor="middle" x="192.62" y="-209.5" font-family="Arial" font-size="10.00" fill="#8b0000">encodes via</text>
</g>
<!-- unknown.shape_indicator&#45;&gt;rel_2 -->
<g id="edge12" class="edge">
<title>unknown.shape_indicator&#45;&gt;rel_2</title>
<path fill="none" stroke="#d46a6a" stroke-width="1.5" d="M82.89,-189.74C103.02,-194.05 127.31,-199.25 147.82,-203.63"/>
<polygon fill="#d46a6a" stroke="#d46a6a" stroke-width="1.5" points="147.23,-206.37 155.64,-205.3 148.4,-200.89 147.23,-206.37"/>
</g>
<!-- unknown.data_trend -->
<g id="node4" class="node">
<title>unknown.data_trend</title>
<path fill="#b8e6b8" stroke="#2c3e50" stroke-width="1.8" d="M666,-133C666,-133 630.5,-133 630.5,-133 624.5,-133 618.5,-127 618.5,-121 618.5,-121 618.5,-109 618.5,-109 618.5,-103 624.5,-97 630.5,-97 630.5,-97 666,-97 666,-97 672,-97 678,-103 678,-109 678,-109 678,-121 678,-121 678,-127 672,-133 666,-133"/>
<text xml:space="preserve" text-anchor="middle" x="648.25" y="-111.5" font-family="Arial" font-size="10.00" fill="#1a1a1a">data trend</text>
</g>
<!-- attr_3 -->
<g id="node11" class="node">
<title>attr_3</title>
<path fill="#c7b8e6" stroke="#7f8c8d" stroke-width="1.2" d="M827,-133C827,-133 733,-133 733,-133 727,-133 721,-127 721,-121 721,-121 721,-109 721,-109 721,-103 727,-97 733,-97 733,-97 827,-97 827,-97 833,-97 839,-103 839,-109 839,-109 839,-121 839,-121 839,-127 833,-133 827,-133"/>
<text xml:space="preserve" text-anchor="middle" x="780" y="-111.5" font-family="Arial" font-size="10.00" fill="#1a1a1a">(−) upward trend visible</text>
</g>
<!-- unknown.data_trend&#45;&gt;attr_3 -->
<g id="edge5" class="edge">
<title>unknown.data_trend&#45;&gt;attr_3</title>
<path fill="none" stroke="#aaaaaa" d="M678.69,-115C688.68,-115 700.28,-115 711.98,-115"/>
<polygon fill="#aaaaaa" stroke="#aaaaaa" points="711.98,-117.45 718.98,-115 711.98,-112.55 711.98,-117.45"/>
</g>
<!-- unknown.abstract_elements -->
<g id="node5" class="node">
<title>unknown.abstract_elements</title>
<path fill="#b8e6b8" stroke="#2c3e50" stroke-width="1.8" d="M385.25,-36C385.25,-36 315.25,-36 315.25,-36 309.25,-36 303.25,-30 303.25,-24 303.25,-24 303.25,-12 303.25,-12 303.25,-6 309.25,0 315.25,0 315.25,0 385.25,0 385.25,0 391.25,0 397.25,-6 397.25,-12 397.25,-12 397.25,-24 397.25,-24 397.25,-30 391.25,-36 385.25,-36"/>
<text xml:space="preserve" text-anchor="middle" x="350.25" y="-14.5" font-family="Arial" font-size="10.00" fill="#1a1a1a">abstract elements</text>
</g>
<!-- attr_4 -->
<g id="node12" class="node">
<title>attr_4</title>
<path fill="#c7b8e6" stroke="#7f8c8d" stroke-width="1.2" d="M557.5,-36C557.5,-36 458.25,-36 458.25,-36 452.25,-36 446.25,-30 446.25,-24 446.25,-24 446.25,-12 446.25,-12 446.25,-6 452.25,0 458.25,0 458.25,0 557.5,0 557.5,0 563.5,0 569.5,-6 569.5,-12 569.5,-12 569.5,-24 569.5,-24 569.5,-30 563.5,-36 557.5,-36"/>
<text xml:space="preserve" text-anchor="middle" x="507.88" y="-14.5" font-family="Arial" font-size="10.00" fill="#1a1a1a">(+) high abstraction level</text>
</g>
<!-- unknown.abstract_elements&#45;&gt;attr_4 -->
<g id="edge6" class="edge">
<title>unknown.abstract_elements&#45;&gt;attr_4</title>
<path fill="none" stroke="#aaaaaa" d="M397.94,-18C410.4,-18 424.13,-18 437.52,-18"/>
<polygon fill="#aaaaaa" stroke="#aaaaaa" points="437.29,-20.45 444.29,-18 437.29,-15.55 437.29,-20.45"/>
</g>
<!-- rel_1 -->
<g id="node15" class="node">
<title>rel_1</title>
<path fill="#f5b8b8" stroke="#d46a6a" stroke-width="1.2" d="M563.5,-101C563.5,-101 452.25,-101 452.25,-101 446.25,-101 440.25,-95 440.25,-89 440.25,-89 440.25,-77 440.25,-77 440.25,-71 446.25,-65 452.25,-65 452.25,-65 563.5,-65 563.5,-65 569.5,-65 575.5,-71 575.5,-77 575.5,-77 575.5,-89 575.5,-89 575.5,-95 569.5,-101 563.5,-101"/>
<text xml:space="preserve" text-anchor="middle" x="507.88" y="-79.5" font-family="Arial" font-size="10.00" fill="#8b0000">increases cognitive load for</text>
</g>
<!-- unknown.abstract_elements&#45;&gt;rel_1 -->
<g id="edge10" class="edge">
<title>unknown.abstract_elements&#45;&gt;rel_1</title>
<path fill="none" stroke="#d46a6a" stroke-width="1.5" d="M396.26,-36.8C414,-44.21 434.52,-52.78 453.03,-60.51"/>
<polygon fill="#d46a6a" stroke="#d46a6a" stroke-width="1.5" points="451.94,-63.09 460.41,-63.59 454.1,-57.92 451.94,-63.09"/>
</g>
<!-- unknown.chart_elements -->
<g id="node6" class="node">
<title>unknown.chart_elements</title>
<path fill="#b8e6b8" stroke="#2c3e50" stroke-width="1.8" d="M69.25,-68C69.25,-68 12.75,-68 12.75,-68 6.75,-68 0.75,-62 0.75,-56 0.75,-56 0.75,-44 0.75,-44 0.75,-38 6.75,-32 12.75,-32 12.75,-32 69.25,-32 69.25,-32 75.25,-32 81.25,-38 81.25,-44 81.25,-44 81.25,-56 81.25,-56 81.25,-62 75.25,-68 69.25,-68"/>
<text xml:space="preserve" text-anchor="middle" x="41" y="-46.5" font-family="Arial" font-size="10.00" fill="#1a1a1a">chart elements</text>
</g>
<!-- attr_5 -->
<g id="node13" class="node">
<title>attr_5</title>
<path fill="#c7b8e6" stroke="#7f8c8d" stroke-width="1.2" d="M248.25,-101C248.25,-101 137,-101 137,-101 131,-101 125,-95 125,-89 125,-89 125,-77 125,-77 125,-71 131,-65 137,-65 137,-65 248.25,-65 248.25,-65 254.25,-65 260.25,-71 260.25,-77 260.25,-77 260.25,-89 260.25,-89 260.25,-95 254.25,-101 248.25,-101"/>
<text xml:space="preserve" text-anchor="middle" x="192.62" y="-79.5" font-family="Arial" font-size="10.00" fill="#1a1a1a">(+) many discrete elements</text>
</g>
<!-- unknown.chart_elements&#45;&gt;attr_5 -->
<g id="edge7" class="edge">
<title>unknown.chart_elements&#45;&gt;attr_5</title>
<path fill="none" stroke="#aaaaaa" d="M82.1,-58.84C92.72,-61.19 104.54,-63.79 116.37,-66.4"/>
<polygon fill="#aaaaaa" stroke="#aaaaaa" points="115.71,-68.77 123.07,-67.88 116.77,-63.98 115.71,-68.77"/>
</g>
<!-- rel_3 -->
<g id="node17" class="node">
<title>rel_3</title>
<path fill="#f5b8b8" stroke="#d46a6a" stroke-width="1.2" d="M214.88,-36C214.88,-36 170.38,-36 170.38,-36 164.38,-36 158.38,-30 158.38,-24 158.38,-24 158.38,-12 158.38,-12 158.38,-6 164.38,0 170.38,0 170.38,0 214.88,0 214.88,0 220.88,0 226.88,-6 226.88,-12 226.88,-12 226.88,-24 226.88,-24 226.88,-30 220.88,-36 214.88,-36"/>
<text xml:space="preserve" text-anchor="middle" x="192.62" y="-14.5" font-family="Arial" font-size="10.00" fill="#8b0000">overwhelms</text>
</g>
<!-- unknown.chart_elements&#45;&gt;rel_3 -->
<g id="edge14" class="edge">
<title>unknown.chart_elements&#45;&gt;rel_3</title>
<path fill="none" stroke="#d46a6a" stroke-width="1.5" d="M82.1,-41.42C102.48,-37.07 127.28,-31.76 148.12,-27.3"/>
<polygon fill="#d46a6a" stroke="#d46a6a" stroke-width="1.5" points="148.54,-30.08 155.78,-25.67 147.37,-24.6 148.54,-30.08"/>
</g>
<!-- rel_0&#45;&gt;property.color -->
<g id="edge9" class="edge">
<title>rel_0&#45;&gt;property.color</title>
<path fill="none" stroke="#d46a6a" stroke-width="1.5" d="M237.8,-259.55C261.71,-249.56 290.85,-237.39 313.34,-228"/>
<polygon fill="#d46a6a" stroke="#d46a6a" stroke-width="1.5" points="314.14,-230.7 320.45,-225.03 311.99,-225.53 314.14,-230.7"/>
</g>
<!-- rel_1&#45;&gt;unknown.data_trend -->
<g id="edge11" class="edge">
<title>rel_1&#45;&gt;unknown.data_trend</title>
<path fill="none" stroke="#d46a6a" stroke-width="1.5" d="M576.04,-98.53C586.97,-101.06 597.98,-103.61 607.95,-105.91"/>
<polygon fill="#d46a6a" stroke="#d46a6a" stroke-width="1.5" points="607.3,-108.63 615.72,-107.71 608.56,-103.18 607.3,-108.63"/>
</g>
<!-- rel_2&#45;&gt;property.color -->
<g id="edge13" class="edge">
<title>rel_2&#45;&gt;property.color</title>
<path fill="none" stroke="#d46a6a" stroke-width="1.5" d="M227.39,-213C252.54,-213 286.83,-213 312.63,-213"/>
<polygon fill="#d46a6a" stroke="#d46a6a" stroke-width="1.5" points="312.49,-215.8 320.49,-213 312.49,-210.2 312.49,-215.8"/>
</g>
<!-- rel_3&#45;&gt;unknown.abstract_elements -->
<g id="edge15" class="edge">
<title>rel_3&#45;&gt;unknown.abstract_elements</title>
<path fill="none" stroke="#d46a6a" stroke-width="1.5" d="M227.39,-18C246.38,-18 270.58,-18 292.4,-18"/>
<polygon fill="#d46a6a" stroke="#d46a6a" stroke-width="1.5" points="292.29,-20.8 300.29,-18 292.29,-15.2 292.29,-20.8"/>
</g>
<!-- rel_4&#45;&gt;unknown.data_trend -->
<g id="edge17" class="edge">
<title>rel_4&#45;&gt;unknown.data_trend</title>
<path fill="none" stroke="#d46a6a" stroke-width="1.5" d="M536.21,-141.48C556.8,-136.57 585.29,-129.78 608.27,-124.3"/>
<polygon fill="#d46a6a" stroke="#d46a6a" stroke-width="1.5" points="608.72,-127.07 615.85,-122.49 607.42,-121.62 608.72,-127.07"/>
</g>
</g>
</svg>
