<?xml version="1.0" encoding="UTF-8" standalone="no"?>
<!DOCTYPE svg PUBLIC "-//W3C//DTD SVG 1.1//EN"
 "http://www.w3.org/Graphics/SVG/1.1/DTD/svg11.dtd">
<!-- Generated by graphviz version 14.1.5 (20260411.2331)
 -->
<!-- Title: InfoVisJ.349.8.png Pages: 1 -->
<svg width="768pt" height="375pt"
 viewBox="0.00 0.00 768.00 375.00" xmlns="http://www.w3.org/2000/svg" xmlns:xlink="http://www.w3.org/1999/xlink">
<g id="graph0" class="graph" transform="scale(1 1) rotate(0) translate(4 371.25)">
<title>InfoVisJ.349.8.png</title>
<polygon fill="white" stroke="none" points="-4,4 -4,-371.25 764.25,-371.25 764.25,4 -4,4"/>
<text xml:space="preserve" text-anchor="start" x="320.88" y="-346.95" font-family="Arial" font-weight="bold" font-size="14.00">InfoVisJ.349.8.png</text>
<text xml:space="preserve" text-anchor="start" x="325" y="-327" font-family="Arial" font-size="11.00">Node&#45;link &#160;| &#160;VC = 0.60</text>
<path fill="#b8e6b8" stroke="none" d="M170.75,-302C170.75,-302 178.75,-302 178.75,-302 181.75,-302 184.75,-305 184.75,-308 184.75,-308 184.75,-314 184.75,-314 184.75,-317 181.75,-320 178.75,-320 178.75,-320 170.75,-320 170.75,-320 167.75,-320 164.75,-317 164.75,-314 164.75,-314 164.75,-308 164.75,-308 164.75,-305 167.75,-302 170.75,-302"/>
<path fill="none" stroke="black" d="M170.75,-302C170.75,-302 178.75,-302 178.75,-302 181.75,-302 184.75,-305 184.75,-308 184.75,-308 184.75,-314 184.75,-314 184.75,-317 181.75,-320 178.75,-320 178.75,-320 170.75,-320 170.75,-320 167.75,-320 164.75,-317 164.75,-314 164.75,-314 164.75,-308 164.75,-308 164.75,-305 167.75,-302 170.75,-302"/>
<text xml:space="preserve" text-anchor="start" x="173.25" y="-307.25" font-family="Arial" font-size="10.00"> </text>
<text xml:space="preserve" text-anchor="start" x="188.75" y="-307.25" font-family="Arial" font-size="10.00">Object</text>
<path fill="#c7b8e6" stroke="none" d="M227.25,-302C227.25,-302 235.25,-302 235.25,-302 238.25,-302 241.25,-305 241.25,-308 241.25,-308 241.25,-314 241.25,-314 241.25,-317 238.25,-320 235.25,-320 235.25,-320 227.25,-320 227.25,-320 224.25,-320 221.25,-317 221.25,-314 221.25,-314 221.25,-308 221.25,-308 221.25,-305 224.25,-302 227.25,-302"/>
<path fill="none" stroke="black" d="M227.25,-302C227.25,-302 235.25,-302 235.25,-302 238.25,-302 241.25,-305 241.25,-308 241.25,-308 241.25,-314 241.25,-314 241.25,-317 238.25,-320 235.25,-320 235.25,-320 227.25,-320 227.25,-320 224.25,-320 221.25,-317 221.25,-314 221.25,-314 221.25,-308 221.25,-308 221.25,-305 224.25,-302 227.25,-302"/>
<text xml:space="preserve" text-anchor="start" x="229.75" y="-307.25" font-family="Arial" font-size="10.00"> </text>
<text xml:space="preserve" text-anchor="start" x="245.25" y="-307.25" font-family="Arial" font-size="10.00">Attribute</text>
<path fill="#f5b8b8" stroke="none" d="M292,-302C292,-302 300,-302 300,-302 303,-302 306,-305 306,-308 306,-308 306,-314 306,-314 306,-317 303,-320 300,-320 300,-320 292,-320 292,-320 289,-320 286,-317 286,-314 286,-314 286,-308 286,-308 286,-305 289,-302 292,-302"/>
<path fill="none" stroke="black" d="M292,-302C292,-302 300,-302 300,-302 303,-302 306,-305 306,-308 306,-308 306,-314 306,-314 306,-317 303,-320 300,-320 300,-320 292,-320 292,-320 289,-320 286,-317 286,-314 286,-314 286,-308 286,-308 286,-305 289,-302 292,-302"/>
<text xml:space="preserve" text-anchor="start" x="294.5" y="-307.25" font-family="Arial" font-size="10.00"> </text>
<text xml:space="preserve" text-anchor="start" x="310" y="-307.25" font-family="Arial" font-size="10.00">Relationship</text>
<text xml:space="preserve" text-anchor="start" x="370" y="-308.5" font-family="Arial" font-weight="bold" font-size="10.00">(+)</text>
<text xml:space="preserve" text-anchor="start" x="382" y="-308.5" font-family="Arial" font-size="10.00"> increases complexity</text>
<text xml:space="preserve" text-anchor="start" x="483.25" y="-308.5" font-family="Arial" font-weight="bold" font-size="10.00">(−)</text>
<text xml:space="preserve" text-anchor="start" x="495.25" y="-308.5" font-family="Arial" font-size="10.00"> decreases complexity</text>
<!-- unknown.nodes -->
<g id="node1" class="node">
<title>unknown.nodes</title>
<path fill="#b8e6b8" stroke="#2c3e50" stroke-width="1.8" d="M290.25,-101C290.25,-101 260.25,-101 260.25,-101 254.25,-101 248.25,-95 248.25,-89 248.25,-89 248.25,-77 248.25,-77 248.25,-71 254.25,-65 260.25,-65 260.25,-65 290.25,-65 290.25,-65 296.25,-65 302.25,-71 302.25,-77 302.25,-77 302.25,-89 302.25,-89 302.25,-95 296.25,-101 290.25,-101"/>
<text xml:space="preserve" text-anchor="middle" x="275.25" y="-79.5" font-family="Arial" font-size="10.00" fill="#1a1a1a">nodes</text>
</g>
<!-- attr_0 -->
<g id="node6" class="node">
<title>attr_0</title>
<path fill="#c7b8e6" stroke="#7f8c8d" stroke-width="1.2" d="M451.25,-166C451.25,-166 373,-166 373,-166 367,-166 361,-160 361,-154 361,-154 361,-142 361,-142 361,-136 367,-130 373,-130 373,-130 451.25,-130 451.25,-130 457.25,-130 463.25,-136 463.25,-142 463.25,-142 463.25,-154 463.25,-154 463.25,-160 457.25,-166 451.25,-166"/>
<text xml:space="preserve" text-anchor="middle" x="412.12" y="-144.5" font-family="Arial" font-size="10.00" fill="#1a1a1a">(+) hard to visualize</text>
</g>
<!-- unknown.nodes&#45;&gt;attr_0 -->
<g id="edge1" class="edge">
<title>unknown.nodes&#45;&gt;attr_0</title>
<path fill="none" stroke="#aaaaaa" d="M302.9,-95.84C320.67,-104.41 344.51,-115.9 365.29,-125.91"/>
<polygon fill="#aaaaaa" stroke="#aaaaaa" points="364.05,-128.03 371.42,-128.87 366.18,-123.62 364.05,-128.03"/>
</g>
<!-- rel_3 -->
<g id="node14" class="node">
<title>rel_3</title>
<path fill="#f5b8b8" stroke="#d46a6a" stroke-width="1.2" d="M428,-101C428,-101 396.25,-101 396.25,-101 390.25,-101 384.25,-95 384.25,-89 384.25,-89 384.25,-77 384.25,-77 384.25,-71 390.25,-65 396.25,-65 396.25,-65 428,-65 428,-65 434,-65 440,-71 440,-77 440,-77 440,-89 440,-89 440,-95 434,-101 428,-101"/>
<text xml:space="preserve" text-anchor="middle" x="412.12" y="-79.5" font-family="Arial" font-size="10.00" fill="#8b0000">obscures</text>
</g>
<!-- unknown.nodes&#45;&gt;rel_3 -->
<g id="edge12" class="edge">
<title>unknown.nodes&#45;&gt;rel_3</title>
<path fill="none" stroke="#d46a6a" stroke-width="1.5" d="M302.9,-83C323.18,-83 351.34,-83 373.85,-83"/>
<polygon fill="#d46a6a" stroke="#d46a6a" stroke-width="1.5" points="373.8,-85.8 381.8,-83 373.8,-80.2 373.8,-85.8"/>
</g>
<!-- unknown.links -->
<g id="node2" class="node">
<title>unknown.links</title>
<path fill="#b8e6b8" stroke="#2c3e50" stroke-width="1.8" d="M564,-166C564,-166 534,-166 534,-166 528,-166 522,-160 522,-154 522,-154 522,-142 522,-142 522,-136 528,-130 534,-130 534,-130 564,-130 564,-130 570,-130 576,-136 576,-142 576,-142 576,-154 576,-154 576,-160 570,-166 564,-166"/>
<text xml:space="preserve" text-anchor="middle" x="549" y="-144.5" font-family="Arial" font-size="10.00" fill="#1a1a1a">links</text>
</g>
<!-- attr_4 -->
<g id="node7" class="node">
<title>attr_4</title>
<path fill="#c7b8e6" stroke="#7f8c8d" stroke-width="1.2" d="M748.25,-166C748.25,-166 631,-166 631,-166 625,-166 619,-160 619,-154 619,-154 619,-142 619,-142 619,-136 625,-130 631,-130 631,-130 748.25,-130 748.25,-130 754.25,-130 760.25,-136 760.25,-142 760.25,-142 760.25,-154 760.25,-154 760.25,-160 754.25,-166 748.25,-166"/>
<text xml:space="preserve" text-anchor="middle" x="689.62" y="-144.5" font-family="Arial" font-size="10.00" fill="#1a1a1a">(+) hard to connect elements</text>
</g>
<!-- unknown.links&#45;&gt;attr_4 -->
<g id="edge2" class="edge">
<title>unknown.links&#45;&gt;attr_4</title>
<path fill="none" stroke="#aaaaaa" d="M576.73,-148C586.51,-148 598.14,-148 610.14,-148"/>
<polygon fill="#aaaaaa" stroke="#aaaaaa" points="609.97,-150.45 616.97,-148 609.97,-145.55 609.97,-150.45"/>
</g>
<!-- text.label -->
<g id="node3" class="node">
<title>text.label</title>
<path fill="#b8e6b8" stroke="#2c3e50" stroke-width="1.8" d="M42,-101C42,-101 12,-101 12,-101 6,-101 0,-95 0,-89 0,-89 0,-77 0,-77 0,-71 6,-65 12,-65 12,-65 42,-65 42,-65 48,-65 54,-71 54,-77 54,-77 54,-89 54,-89 54,-95 48,-101 42,-101"/>
<text xml:space="preserve" text-anchor="middle" x="27" y="-79.5" font-family="Arial" font-size="10.00" fill="#1a1a1a">label</text>
</g>
<!-- attr_1 -->
<g id="node8" class="node">
<title>attr_1</title>
<path fill="#c7b8e6" stroke="#7f8c8d" stroke-width="1.2" d="M193.25,-166C193.25,-166 109,-166 109,-166 103,-166 97,-160 97,-154 97,-154 97,-142 97,-142 97,-136 103,-130 109,-130 109,-130 193.25,-130 193.25,-130 199.25,-130 205.25,-136 205.25,-142 205.25,-142 205.25,-154 205.25,-154 205.25,-160 199.25,-166 193.25,-166"/>
<text xml:space="preserve" text-anchor="middle" x="151.12" y="-144.5" font-family="Arial" font-size="10.00" fill="#1a1a1a">(+) absent text labels</text>
</g>
<!-- text.label&#45;&gt;attr_1 -->
<g id="edge3" class="edge">
<title>text.label&#45;&gt;attr_1</title>
<path fill="none" stroke="#aaaaaa" d="M54.8,-97.26C70.41,-105.57 90.42,-116.23 108.09,-125.62"/>
<polygon fill="#aaaaaa" stroke="#aaaaaa" points="106.82,-127.73 114.15,-128.85 109.13,-123.4 106.82,-127.73"/>
</g>
<!-- rel_0 -->
<g id="node11" class="node">
<title>rel_0</title>
<path fill="#f5b8b8" stroke="#d46a6a" stroke-width="1.2" d="M175.25,-101C175.25,-101 127,-101 127,-101 121,-101 115,-95 115,-89 115,-89 115,-77 115,-77 115,-71 121,-65 127,-65 127,-65 175.25,-65 175.25,-65 181.25,-65 187.25,-71 187.25,-77 187.25,-77 187.25,-89 187.25,-89 187.25,-95 181.25,-101 175.25,-101"/>
<text xml:space="preserve" text-anchor="middle" x="151.12" y="-79.5" font-family="Arial" font-size="10.00" fill="#8b0000">missing from</text>
</g>
<!-- text.label&#45;&gt;rel_0 -->
<g id="edge6" class="edge">
<title>text.label&#45;&gt;rel_0</title>
<path fill="none" stroke="#d46a6a" stroke-width="1.5" d="M54.8,-83C69.34,-83 87.7,-83 104.43,-83"/>
<polygon fill="#d46a6a" stroke="#d46a6a" stroke-width="1.5" points="104.31,-85.8 112.31,-83 104.31,-80.2 104.31,-85.8"/>
</g>
<!-- rel_2 -->
<g id="node13" class="node">
<title>rel_2</title>
<path fill="#f5b8b8" stroke="#d46a6a" stroke-width="1.2" d="M187.62,-36C187.62,-36 114.62,-36 114.62,-36 108.62,-36 102.62,-30 102.62,-24 102.62,-24 102.62,-12 102.62,-12 102.62,-6 108.62,0 114.62,0 114.62,0 187.62,0 187.62,0 193.62,0 199.62,-6 199.62,-12 199.62,-12 199.62,-24 199.62,-24 199.62,-30 193.62,-36 187.62,-36"/>
<text xml:space="preserve" text-anchor="middle" x="151.12" y="-14.5" font-family="Arial" font-size="10.00" fill="#8b0000">increases effort for</text>
</g>
<!-- text.label&#45;&gt;rel_2 -->
<g id="edge10" class="edge">
<title>text.label&#45;&gt;rel_2</title>
<path fill="none" stroke="#d46a6a" stroke-width="1.5" d="M54.8,-68.74C69.99,-60.65 89.36,-50.34 106.66,-41.13"/>
<polygon fill="#d46a6a" stroke="#d46a6a" stroke-width="1.5" points="107.74,-43.73 113.49,-37.5 105.11,-38.79 107.74,-43.73"/>
</g>
<!-- furniture.legend -->
<g id="node4" class="node">
<title>furniture.legend</title>
<path fill="#b8e6b8" stroke="#2c3e50" stroke-width="1.8" d="M290.25,-263C290.25,-263 260.25,-263 260.25,-263 254.25,-263 248.25,-257 248.25,-251 248.25,-251 248.25,-239 248.25,-239 248.25,-233 254.25,-227 260.25,-227 260.25,-227 290.25,-227 290.25,-227 296.25,-227 302.25,-233 302.25,-239 302.25,-239 302.25,-251 302.25,-251 302.25,-257 296.25,-263 290.25,-263"/>
<text xml:space="preserve" text-anchor="middle" x="275.25" y="-241.5" font-family="Arial" font-size="10.00" fill="#1a1a1a">legend</text>
</g>
<!-- attr_2 -->
<g id="node9" class="node">
<title>attr_2</title>
<path fill="#c7b8e6" stroke="#7f8c8d" stroke-width="1.2" d="M465.88,-296C465.88,-296 358.38,-296 358.38,-296 352.38,-296 346.38,-290 346.38,-284 346.38,-284 346.38,-272 346.38,-272 346.38,-266 352.38,-260 358.38,-260 358.38,-260 465.88,-260 465.88,-260 471.88,-260 477.88,-266 477.88,-272 477.88,-272 477.88,-284 477.88,-284 477.88,-290 471.88,-296 465.88,-296"/>
<text xml:space="preserve" text-anchor="middle" x="412.12" y="-274.5" font-family="Arial" font-size="10.00" fill="#1a1a1a">(+) missing legend context</text>
</g>
<!-- furniture.legend&#45;&gt;attr_2 -->
<g id="edge4" class="edge">
<title>furniture.legend&#45;&gt;attr_2</title>
<path fill="none" stroke="#aaaaaa" d="M302.9,-251.52C313.1,-254.02 325.3,-257 337.77,-260.05"/>
<polygon fill="#aaaaaa" stroke="#aaaaaa" points="337.13,-262.42 344.51,-261.7 338.29,-257.66 337.13,-262.42"/>
</g>
<!-- rel_1 -->
<g id="node12" class="node">
<title>rel_1</title>
<path fill="#f5b8b8" stroke="#d46a6a" stroke-width="1.2" d="M437.38,-231C437.38,-231 386.88,-231 386.88,-231 380.88,-231 374.88,-225 374.88,-219 374.88,-219 374.88,-207 374.88,-207 374.88,-201 380.88,-195 386.88,-195 386.88,-195 437.38,-195 437.38,-195 443.38,-195 449.38,-201 449.38,-207 449.38,-207 449.38,-219 449.38,-219 449.38,-225 443.38,-231 437.38,-231"/>
<text xml:space="preserve" text-anchor="middle" x="412.12" y="-209.5" font-family="Arial" font-size="10.00" fill="#8b0000">fails to clarify</text>
</g>
<!-- furniture.legend&#45;&gt;rel_1 -->
<g id="edge8" class="edge">
<title>furniture.legend&#45;&gt;rel_1</title>
<path fill="none" stroke="#d46a6a" stroke-width="1.5" d="M302.9,-238.68C320.45,-234.51 343.9,-228.95 364.49,-224.07"/>
<polygon fill="#d46a6a" stroke="#d46a6a" stroke-width="1.5" points="364.98,-226.83 372.11,-222.26 363.68,-221.38 364.98,-226.83"/>
</g>
<!-- structure.layout -->
<g id="node5" class="node">
<title>structure.layout</title>
<path fill="#b8e6b8" stroke="#2c3e50" stroke-width="1.8" d="M290.25,-36C290.25,-36 260.25,-36 260.25,-36 254.25,-36 248.25,-30 248.25,-24 248.25,-24 248.25,-12 248.25,-12 248.25,-6 254.25,0 260.25,0 260.25,0 290.25,0 290.25,0 296.25,0 302.25,-6 302.25,-12 302.25,-12 302.25,-24 302.25,-24 302.25,-30 296.25,-36 290.25,-36"/>
<text xml:space="preserve" text-anchor="middle" x="275.25" y="-14.5" font-family="Arial" font-size="10.00" fill="#1a1a1a">layout</text>
</g>
<!-- attr_3 -->
<g id="node10" class="node">
<title>attr_3</title>
<path fill="#c7b8e6" stroke="#7f8c8d" stroke-width="1.2" d="M467,-36C467,-36 357.25,-36 357.25,-36 351.25,-36 345.25,-30 345.25,-24 345.25,-24 345.25,-12 345.25,-12 345.25,-6 351.25,0 357.25,0 357.25,0 467,0 467,0 473,0 479,-6 479,-12 479,-12 479,-24 479,-24 479,-30 473,-36 467,-36"/>
<text xml:space="preserve" text-anchor="middle" x="412.12" y="-14.5" font-family="Arial" font-size="10.00" fill="#1a1a1a">(+) unclear overall meaning</text>
</g>
<!-- structure.layout&#45;&gt;attr_3 -->
<g id="edge5" class="edge">
<title>structure.layout&#45;&gt;attr_3</title>
<path fill="none" stroke="#aaaaaa" d="M302.9,-18C312.75,-18 324.47,-18 336.5,-18"/>
<polygon fill="#aaaaaa" stroke="#aaaaaa" points="336.34,-20.45 343.34,-18 336.34,-15.55 336.34,-20.45"/>
</g>
<!-- rel_0&#45;&gt;unknown.nodes -->
<g id="edge7" class="edge">
<title>rel_0&#45;&gt;unknown.nodes</title>
<path fill="none" stroke="#d46a6a" stroke-width="1.5" d="M187.78,-83C203.49,-83 221.93,-83 237.73,-83"/>
<polygon fill="#d46a6a" stroke="#d46a6a" stroke-width="1.5" points="237.41,-85.8 245.41,-83 237.41,-80.2 237.41,-85.8"/>
</g>
<!-- rel_1&#45;&gt;unknown.links -->
<g id="edge9" class="edge">
<title>rel_1&#45;&gt;unknown.links</title>
<path fill="none" stroke="#d46a6a" stroke-width="1.5" d="M449.62,-195.41C469.07,-186.04 492.89,-174.56 512.22,-165.24"/>
<polygon fill="#d46a6a" stroke="#d46a6a" stroke-width="1.5" points="513.28,-167.84 519.27,-161.85 510.85,-162.8 513.28,-167.84"/>
</g>
<!-- rel_2&#45;&gt;structure.layout -->
<g id="edge11" class="edge">
<title>rel_2&#45;&gt;structure.layout</title>
<path fill="none" stroke="#d46a6a" stroke-width="1.5" d="M200.04,-18C212.55,-18 225.83,-18 237.65,-18"/>
<polygon fill="#d46a6a" stroke="#d46a6a" stroke-width="1.5" points="237.33,-20.8 245.33,-18 237.33,-15.2 237.33,-20.8"/>
</g>
<!-- rel_3&#45;&gt;unknown.links -->
<g id="edge13" class="edge">
<title>rel_3&#45;&gt;unknown.links</title>
<path fill="none" stroke="#d46a6a" stroke-width="1.5" d="M440.42,-96.15C461.03,-106.09 489.5,-119.81 511.98,-130.64"/>
<polygon fill="#d46a6a" stroke="#d46a6a" stroke-width="1.5" points="510.74,-133.15 519.16,-134.1 513.17,-128.11 510.74,-133.15"/>
</g>
</g>
</svg>
