<?xml version="1.0" encoding="UTF-8" standalone="no"?>
<!DOCTYPE svg PUBLIC "-//W3C//DTD SVG 1.1//EN"
 "http://www.w3.org/Graphics/SVG/1.1/DTD/svg11.dtd">
<!-- Generated by graphviz version 14.1.5 (20260411.2331)
 -->
<!-- Title: InfoVisJ.2556.7(2).png Pages: 1 -->
<svg width="544pt" height="434pt"
 viewBox="0.00 0.00 544.00 434.00" xmlns="http://www.w3.org/2000/svg" xmlns:xlink="http://www.w3.org/1999/xlink">
<g id="graph0" class="graph" transform="scale(1 1) rotate(0) translate(4 430.25)">
<title>InfoVisJ.2556.7(2).png</title>
<polygon fill="white" stroke="none" points="-4,4 -4,-430.25 539.75,-430.25 539.75,4 -4,4"/>
<text xml:space="preserve" text-anchor="start" x="196.62" y="-405.95" font-family="Arial" font-weight="bold" font-size="14.00">InfoVisJ.2556.7(2).png</text>
<text xml:space="preserve" text-anchor="start" x="225.88" y="-386" font-family="Arial" font-size="11.00">Text &#160;| &#160;VC = 0.79</text>
<path fill="#b8e6b8" stroke="none" d="M58.5,-361C58.5,-361 66.5,-361 66.5,-361 69.5,-361 72.5,-364 72.5,-367 72.5,-367 72.5,-373 72.5,-373 72.5,-376 69.5,-379 66.5,-379 66.5,-379 58.5,-379 58.5,-379 55.5,-379 52.5,-376 52.5,-373 52.5,-373 52.5,-367 52.5,-367 52.5,-364 55.5,-361 58.5,-361"/>
<path fill="none" stroke="black" d="M58.5,-361C58.5,-361 66.5,-361 66.5,-361 69.5,-361 72.5,-364 72.5,-367 72.5,-367 72.5,-373 72.5,-373 72.5,-376 69.5,-379 66.5,-379 66.5,-379 58.5,-379 58.5,-379 55.5,-379 52.5,-376 52.5,-373 52.5,-373 52.5,-367 52.5,-367 52.5,-364 55.5,-361 58.5,-361"/>
<text xml:space="preserve" text-anchor="start" x="61" y="-366.25" font-family="Arial" font-size="10.00"> </text>
<text xml:space="preserve" text-anchor="start" x="76.5" y="-366.25" font-family="Arial" font-size="10.00">Object</text>
<path fill="#c7b8e6" stroke="none" d="M115,-361C115,-361 123,-361 123,-361 126,-361 129,-364 129,-367 129,-367 129,-373 129,-373 129,-376 126,-379 123,-379 123,-379 115,-379 115,-379 112,-379 109,-376 109,-373 109,-373 109,-367 109,-367 109,-364 112,-361 115,-361"/>
<path fill="none" stroke="black" d="M115,-361C115,-361 123,-361 123,-361 126,-361 129,-364 129,-367 129,-367 129,-373 129,-373 129,-376 126,-379 123,-379 123,-379 115,-379 115,-379 112,-379 109,-376 109,-373 109,-373 109,-367 109,-367 109,-364 112,-361 115,-361"/>
<text xml:space="preserve" text-anchor="start" x="117.5" y="-366.25" font-family="Arial" font-size="10.00"> </text>
<text xml:space="preserve" text-anchor="start" x="133" y="-366.25" font-family="Arial" font-size="10.00">Attribute</text>
<path fill="#f5b8b8" stroke="none" d="M179.75,-361C179.75,-361 187.75,-361 187.75,-361 190.75,-361 193.75,-364 193.75,-367 193.75,-367 193.75,-373 193.75,-373 193.75,-376 190.75,-379 187.75,-379 187.75,-379 179.75,-379 179.75,-379 176.75,-379 173.75,-376 173.75,-373 173.75,-373 173.75,-367 173.75,-367 173.75,-364 176.75,-361 179.75,-361"/>
<path fill="none" stroke="black" d="M179.75,-361C179.75,-361 187.75,-361 187.75,-361 190.75,-361 193.75,-364 193.75,-367 193.75,-367 193.75,-373 193.75,-373 193.75,-376 190.75,-379 187.75,-379 187.75,-379 179.75,-379 179.75,-379 176.75,-379 173.75,-376 173.75,-373 173.75,-373 173.75,-367 173.75,-367 173.75,-364 176.75,-361 179.75,-361"/>
<text xml:space="preserve" text-anchor="start" x="182.25" y="-366.25" font-family="Arial" font-size="10.00"> </text>
<text xml:space="preserve" text-anchor="start" x="197.75" y="-366.25" font-family="Arial" font-size="10.00">Relationship</text>
<text xml:space="preserve" text-anchor="start" x="257.75" y="-367.5" font-family="Arial" font-weight="bold" font-size="10.00">(+)</text>
<text xml:space="preserve" text-anchor="start" x="269.75" y="-367.5" font-family="Arial" font-size="10.00"> increases complexity</text>
<text xml:space="preserve" text-anchor="start" x="371" y="-367.5" font-family="Arial" font-weight="bold" font-size="10.00">(−)</text>
<text xml:space="preserve" text-anchor="start" x="383" y="-367.5" font-family="Arial" font-size="10.00"> decreases complexity</text>
<!-- unknown.text_content -->
<g id="node1" class="node">
<title>unknown.text_content</title>
<path fill="#b8e6b8" stroke="#2c3e50" stroke-width="1.8" d="M63.25,-101C63.25,-101 19.5,-101 19.5,-101 13.5,-101 7.5,-95 7.5,-89 7.5,-89 7.5,-77 7.5,-77 7.5,-71 13.5,-65 19.5,-65 19.5,-65 63.25,-65 63.25,-65 69.25,-65 75.25,-71 75.25,-77 75.25,-77 75.25,-89 75.25,-89 75.25,-95 69.25,-101 63.25,-101"/>
<text xml:space="preserve" text-anchor="middle" x="41.38" y="-79.5" font-family="Arial" font-size="10.00" fill="#1a1a1a">text content</text>
</g>
<!-- attr_0 -->
<g id="node5" class="node">
<title>attr_0</title>
<path fill="#c7b8e6" stroke="#7f8c8d" stroke-width="1.2" d="M231.75,-166C231.75,-166 156.5,-166 156.5,-166 150.5,-166 144.5,-160 144.5,-154 144.5,-154 144.5,-142 144.5,-142 144.5,-136 150.5,-130 156.5,-130 156.5,-130 231.75,-130 231.75,-130 237.75,-130 243.75,-136 243.75,-142 243.75,-142 243.75,-154 243.75,-154 243.75,-160 237.75,-166 231.75,-166"/>
<text xml:space="preserve" text-anchor="middle" x="194.12" y="-144.5" font-family="Arial" font-size="10.00" fill="#1a1a1a">(+) hard to interpret</text>
</g>
<!-- unknown.text_content&#45;&gt;attr_0 -->
<g id="edge1" class="edge">
<title>unknown.text_content&#45;&gt;attr_0</title>
<path fill="none" stroke="#aaaaaa" d="M75.83,-97.43C95.38,-105.86 120.46,-116.67 142.4,-126.13"/>
<polygon fill="#aaaaaa" stroke="#aaaaaa" points="141.23,-128.29 148.62,-128.81 143.17,-123.79 141.23,-128.29"/>
</g>
<!-- attr_4 -->
<g id="node6" class="node">
<title>attr_4</title>
<path fill="#c7b8e6" stroke="#7f8c8d" stroke-width="1.2" d="M250.5,-101C250.5,-101 137.75,-101 137.75,-101 131.75,-101 125.75,-95 125.75,-89 125.75,-89 125.75,-77 125.75,-77 125.75,-71 131.75,-65 137.75,-65 137.75,-65 250.5,-65 250.5,-65 256.5,-65 262.5,-71 262.5,-77 262.5,-77 262.5,-89 262.5,-89 262.5,-95 256.5,-101 250.5,-101"/>
<text xml:space="preserve" text-anchor="middle" x="194.12" y="-79.5" font-family="Arial" font-size="10.00" fill="#1a1a1a">(+) complex comprehension</text>
</g>
<!-- unknown.text_content&#45;&gt;attr_4 -->
<g id="edge2" class="edge">
<title>unknown.text_content&#45;&gt;attr_4</title>
<path fill="none" stroke="#aaaaaa" d="M75.83,-83C88.01,-83 102.34,-83 116.71,-83"/>
<polygon fill="#aaaaaa" stroke="#aaaaaa" points="116.65,-85.45 123.65,-83 116.65,-80.55 116.65,-85.45"/>
</g>
<!-- rel_1 -->
<g id="node11" class="node">
<title>rel_1</title>
<path fill="#f5b8b8" stroke="#d46a6a" stroke-width="1.2" d="M233.62,-36C233.62,-36 154.62,-36 154.62,-36 148.62,-36 142.62,-30 142.62,-24 142.62,-24 142.62,-12 142.62,-12 142.62,-6 148.62,0 154.62,0 154.62,0 233.62,0 233.62,0 239.62,0 245.62,-6 245.62,-12 245.62,-12 245.62,-24 245.62,-24 245.62,-30 239.62,-36 233.62,-36"/>
<text xml:space="preserve" text-anchor="middle" x="194.12" y="-14.5" font-family="Arial" font-size="10.00" fill="#8b0000">demands effort from</text>
</g>
<!-- unknown.text_content&#45;&gt;rel_1 -->
<g id="edge8" class="edge">
<title>unknown.text_content&#45;&gt;rel_1</title>
<path fill="none" stroke="#d46a6a" stroke-width="1.5" d="M75.83,-68.57C94.87,-60.36 119.15,-49.9 140.67,-40.62"/>
<polygon fill="#d46a6a" stroke="#d46a6a" stroke-width="1.5" points="141.69,-43.23 147.93,-37.49 139.47,-38.08 141.69,-43.23"/>
</g>
<!-- structure.layout -->
<g id="node2" class="node">
<title>structure.layout</title>
<path fill="#b8e6b8" stroke="#2c3e50" stroke-width="1.8" d="M348,-36C348,-36 318,-36 318,-36 312,-36 306,-30 306,-24 306,-24 306,-12 306,-12 306,-6 312,0 318,0 318,0 348,0 348,0 354,0 360,-6 360,-12 360,-12 360,-24 360,-24 360,-30 354,-36 348,-36"/>
<text xml:space="preserve" text-anchor="middle" x="333" y="-14.5" font-family="Arial" font-size="10.00" fill="#1a1a1a">layout</text>
</g>
<!-- attr_1 -->
<g id="node7" class="node">
<title>attr_1</title>
<path fill="#c7b8e6" stroke="#7f8c8d" stroke-width="1.2" d="M519.62,-36C519.62,-36 419.62,-36 419.62,-36 413.62,-36 407.62,-30 407.62,-24 407.62,-24 407.62,-12 407.62,-12 407.62,-6 413.62,0 419.62,0 419.62,0 519.62,0 519.62,0 525.62,0 531.62,-6 531.62,-12 531.62,-12 531.62,-24 531.62,-24 531.62,-30 525.62,-36 519.62,-36"/>
<text xml:space="preserve" text-anchor="middle" x="469.62" y="-14.5" font-family="Arial" font-size="10.00" fill="#1a1a1a">(+) difficult at first glance</text>
</g>
<!-- structure.layout&#45;&gt;attr_1 -->
<g id="edge3" class="edge">
<title>structure.layout&#45;&gt;attr_1</title>
<path fill="none" stroke="#aaaaaa" d="M360.6,-18C371.7,-18 385.18,-18 398.79,-18"/>
<polygon fill="#aaaaaa" stroke="#aaaaaa" points="398.75,-20.45 405.75,-18 398.75,-15.55 398.75,-20.45"/>
</g>
<!-- unknown.visual_structure -->
<g id="node3" class="node">
<title>unknown.visual_structure</title>
<path fill="#b8e6b8" stroke="#2c3e50" stroke-width="1.8" d="M70.75,-290C70.75,-290 12,-290 12,-290 6,-290 0,-284 0,-278 0,-278 0,-266 0,-266 0,-260 6,-254 12,-254 12,-254 70.75,-254 70.75,-254 76.75,-254 82.75,-260 82.75,-266 82.75,-266 82.75,-278 82.75,-278 82.75,-284 76.75,-290 70.75,-290"/>
<text xml:space="preserve" text-anchor="middle" x="41.38" y="-268.5" font-family="Arial" font-size="10.00" fill="#1a1a1a">visual structure</text>
</g>
<!-- attr_2 -->
<g id="node8" class="node">
<title>attr_2</title>
<path fill="#c7b8e6" stroke="#7f8c8d" stroke-width="1.2" d="M247.88,-355C247.88,-355 140.38,-355 140.38,-355 134.38,-355 128.38,-349 128.38,-343 128.38,-343 128.38,-331 128.38,-331 128.38,-325 134.38,-319 140.38,-319 140.38,-319 247.88,-319 247.88,-319 253.88,-319 259.88,-325 259.88,-331 259.88,-331 259.88,-343 259.88,-343 259.88,-349 253.88,-355 247.88,-355"/>
<text xml:space="preserve" text-anchor="middle" x="194.12" y="-333.5" font-family="Arial" font-size="10.00" fill="#1a1a1a">(+) lacks immediate clarity</text>
</g>
<!-- unknown.visual_structure&#45;&gt;attr_2 -->
<g id="edge4" class="edge">
<title>unknown.visual_structure&#45;&gt;attr_2</title>
<path fill="none" stroke="#aaaaaa" d="M83.57,-289.76C101.73,-297.59 123.24,-306.87 142.38,-315.12"/>
<polygon fill="#aaaaaa" stroke="#aaaaaa" points="141.35,-317.34 148.75,-317.87 143.29,-312.85 141.35,-317.34"/>
</g>
<!-- rel_0 -->
<g id="node10" class="node">
<title>rel_0</title>
<path fill="#f5b8b8" stroke="#d46a6a" stroke-width="1.2" d="M236.25,-290C236.25,-290 152,-290 152,-290 146,-290 140,-284 140,-278 140,-278 140,-266 140,-266 140,-260 146,-254 152,-254 152,-254 236.25,-254 236.25,-254 242.25,-254 248.25,-260 248.25,-266 248.25,-266 248.25,-278 248.25,-278 248.25,-284 242.25,-290 236.25,-290"/>
<text xml:space="preserve" text-anchor="middle" x="194.12" y="-268.5" font-family="Arial" font-size="10.00" fill="#8b0000">increases difficulty of</text>
</g>
<!-- unknown.visual_structure&#45;&gt;rel_0 -->
<g id="edge6" class="edge">
<title>unknown.visual_structure&#45;&gt;rel_0</title>
<path fill="none" stroke="#d46a6a" stroke-width="1.5" d="M83.57,-272C97.73,-272 113.93,-272 129.45,-272"/>
<polygon fill="#d46a6a" stroke="#d46a6a" stroke-width="1.5" points="129.25,-274.8 137.25,-272 129.25,-269.2 129.25,-274.8"/>
</g>
<!-- unknown.encoding -->
<g id="node4" class="node">
<title>unknown.encoding</title>
<path fill="#b8e6b8" stroke="#2c3e50" stroke-width="1.8" d="M348.5,-290C348.5,-290 317.5,-290 317.5,-290 311.5,-290 305.5,-284 305.5,-278 305.5,-278 305.5,-266 305.5,-266 305.5,-260 311.5,-254 317.5,-254 317.5,-254 348.5,-254 348.5,-254 354.5,-254 360.5,-260 360.5,-266 360.5,-266 360.5,-278 360.5,-278 360.5,-284 354.5,-290 348.5,-290"/>
<text xml:space="preserve" text-anchor="middle" x="333" y="-268.5" font-family="Arial" font-size="10.00" fill="#1a1a1a">encoding</text>
</g>
<!-- attr_3 -->
<g id="node9" class="node">
<title>attr_3</title>
<path fill="#c7b8e6" stroke="#7f8c8d" stroke-width="1.2" d="M523.75,-293C523.75,-293 415.5,-293 415.5,-293 409.5,-293 403.5,-287 403.5,-281 403.5,-281 403.5,-269 403.5,-269 403.5,-263 409.5,-257 415.5,-257 415.5,-257 523.75,-257 523.75,-257 529.75,-257 535.75,-263 535.75,-269 535.75,-269 535.75,-281 535.75,-281 535.75,-287 529.75,-293 523.75,-293"/>
<text xml:space="preserve" text-anchor="middle" x="469.62" y="-271.5" font-family="Arial" font-size="10.00" fill="#1a1a1a">(+) requires cognitive effort</text>
</g>
<!-- unknown.encoding&#45;&gt;attr_3 -->
<g id="edge5" class="edge">
<title>unknown.encoding&#45;&gt;attr_3</title>
<path fill="none" stroke="#aaaaaa" d="M361.24,-272.61C371.11,-272.83 382.77,-273.09 394.72,-273.35"/>
<polygon fill="#aaaaaa" stroke="#aaaaaa" points="394.45,-275.8 401.51,-273.5 394.56,-270.9 394.45,-275.8"/>
</g>
<!-- rel_2 -->
<g id="node12" class="node">
<title>rel_2</title>
<path fill="#f5b8b8" stroke="#d46a6a" stroke-width="1.2" d="M485.5,-228C485.5,-228 453.75,-228 453.75,-228 447.75,-228 441.75,-222 441.75,-216 441.75,-216 441.75,-204 441.75,-204 441.75,-198 447.75,-192 453.75,-192 453.75,-192 485.5,-192 485.5,-192 491.5,-192 497.5,-198 497.5,-204 497.5,-204 497.5,-216 497.5,-216 497.5,-222 491.5,-228 485.5,-228"/>
<text xml:space="preserve" text-anchor="middle" x="469.62" y="-206.5" font-family="Arial" font-size="10.00" fill="#8b0000">obscures</text>
</g>
<!-- unknown.encoding&#45;&gt;rel_2 -->
<g id="edge10" class="edge">
<title>unknown.encoding&#45;&gt;rel_2</title>
<path fill="none" stroke="#d46a6a" stroke-width="1.5" d="M361.24,-259.45C381.68,-250.04 409.87,-237.06 432.23,-226.76"/>
<polygon fill="#d46a6a" stroke="#d46a6a" stroke-width="1.5" points="433.26,-229.37 439.36,-223.48 430.92,-224.28 433.26,-229.37"/>
</g>
<!-- rel_0&#45;&gt;unknown.encoding -->
<g id="edge7" class="edge">
<title>rel_0&#45;&gt;unknown.encoding</title>
<path fill="none" stroke="#d46a6a" stroke-width="1.5" d="M248.83,-272C264.26,-272 280.73,-272 294.92,-272"/>
<polygon fill="#d46a6a" stroke="#d46a6a" stroke-width="1.5" points="294.52,-274.8 302.52,-272 294.52,-269.2 294.52,-274.8"/>
</g>
<!-- rel_1&#45;&gt;structure.layout -->
<g id="edge9" class="edge">
<title>rel_1&#45;&gt;structure.layout</title>
<path fill="none" stroke="#d46a6a" stroke-width="1.5" d="M246.09,-18C262.4,-18 280.12,-18 295.21,-18"/>
<polygon fill="#d46a6a" stroke="#d46a6a" stroke-width="1.5" points="294.91,-20.8 302.91,-18 294.91,-15.2 294.91,-20.8"/>
</g>
<!-- rel_2&#45;&gt;unknown.visual_structure -->
<g id="edge11" class="edge">
<title>rel_2&#45;&gt;unknown.visual_structure</title>
<path fill="none" stroke="#d46a6a" stroke-width="1.5" d="M441.55,-209.82C383.1,-210 241.03,-213.39 125.75,-240 114.99,-242.48 103.77,-246.06 93.17,-249.93"/>
<polygon fill="#d46a6a" stroke="#d46a6a" stroke-width="1.5" points="92.26,-247.28 85.77,-252.74 94.24,-252.52 92.26,-247.28"/>
</g>
</g>
</svg>
