<?xml version="1.0" encoding="UTF-8" standalone="no"?>
<!DOCTYPE svg PUBLIC "-//W3C//DTD SVG 1.1//EN"
 "http://www.w3.org/Graphics/SVG/1.1/DTD/svg11.dtd">
<!-- Generated by graphviz version 14.1.5 (20260411.2331)
 -->
<!-- Title: InfoVisJ.953.10.png Pages: 1 -->
<svg width="547pt" height="440pt"
 viewBox="0.00 0.00 547.00 440.00" xmlns="http://www.w3.org/2000/svg" xmlns:xlink="http://www.w3.org/1999/xlink">
<g id="graph0" class="graph" transform="scale(1 1) rotate(0) translate(4 436.25)">
<title>InfoVisJ.953.10.png</title>
<polygon fill="white" stroke="none" points="-4,4 -4,-436.25 542.75,-436.25 542.75,4 -4,4"/>
<text xml:space="preserve" text-anchor="start" x="206.38" y="-411.95" font-family="Arial" font-weight="bold" font-size="14.00">InfoVisJ.953.10.png</text>
<text xml:space="preserve" text-anchor="start" x="227.38" y="-392" font-family="Arial" font-size="11.00">Text &#160;| &#160;VC = 0.47</text>
<path fill="#b8e6b8" stroke="none" d="M60,-367C60,-367 68,-367 68,-367 71,-367 74,-370 74,-373 74,-373 74,-379 74,-379 74,-382 71,-385 68,-385 68,-385 60,-385 60,-385 57,-385 54,-382 54,-379 54,-379 54,-373 54,-373 54,-370 57,-367 60,-367"/>
<path fill="none" stroke="black" d="M60,-367C60,-367 68,-367 68,-367 71,-367 74,-370 74,-373 74,-373 74,-379 74,-379 74,-382 71,-385 68,-385 68,-385 60,-385 60,-385 57,-385 54,-382 54,-379 54,-379 54,-373 54,-373 54,-370 57,-367 60,-367"/>
<text xml:space="preserve" text-anchor="start" x="62.5" y="-372.25" font-family="Arial" font-size="10.00"> </text>
<text xml:space="preserve" text-anchor="start" x="78" y="-372.25" font-family="Arial" font-size="10.00">Object</text>
<path fill="#c7b8e6" stroke="none" d="M116.5,-367C116.5,-367 124.5,-367 124.5,-367 127.5,-367 130.5,-370 130.5,-373 130.5,-373 130.5,-379 130.5,-379 130.5,-382 127.5,-385 124.5,-385 124.5,-385 116.5,-385 116.5,-385 113.5,-385 110.5,-382 110.5,-379 110.5,-379 110.5,-373 110.5,-373 110.5,-370 113.5,-367 116.5,-367"/>
<path fill="none" stroke="black" d="M116.5,-367C116.5,-367 124.5,-367 124.5,-367 127.5,-367 130.5,-370 130.5,-373 130.5,-373 130.5,-379 130.5,-379 130.5,-382 127.5,-385 124.5,-385 124.5,-385 116.5,-385 116.5,-385 113.5,-385 110.5,-382 110.5,-379 110.5,-379 110.5,-373 110.5,-373 110.5,-370 113.5,-367 116.5,-367"/>
<text xml:space="preserve" text-anchor="start" x="119" y="-372.25" font-family="Arial" font-size="10.00"> </text>
<text xml:space="preserve" text-anchor="start" x="134.5" y="-372.25" font-family="Arial" font-size="10.00">Attribute</text>
<path fill="#f5b8b8" stroke="none" d="M181.25,-367C181.25,-367 189.25,-367 189.25,-367 192.25,-367 195.25,-370 195.25,-373 195.25,-373 195.25,-379 195.25,-379 195.25,-382 192.25,-385 189.25,-385 189.25,-385 181.25,-385 181.25,-385 178.25,-385 175.25,-382 175.25,-379 175.25,-379 175.25,-373 175.25,-373 175.25,-370 178.25,-367 181.25,-367"/>
<path fill="none" stroke="black" d="M181.25,-367C181.25,-367 189.25,-367 189.25,-367 192.25,-367 195.25,-370 195.25,-373 195.25,-373 195.25,-379 195.25,-379 195.25,-382 192.25,-385 189.25,-385 189.25,-385 181.25,-385 181.25,-385 178.25,-385 175.25,-382 175.25,-379 175.25,-379 175.25,-373 175.25,-373 175.25,-370 178.25,-367 181.25,-367"/>
<text xml:space="preserve" text-anchor="start" x="183.75" y="-372.25" font-family="Arial" font-size="10.00"> </text>
<text xml:space="preserve" text-anchor="start" x="199.25" y="-372.25" font-family="Arial" font-size="10.00">Relationship</text>
<text xml:space="preserve" text-anchor="start" x="259.25" y="-373.5" font-family="Arial" font-weight="bold" font-size="10.00">(+)</text>
<text xml:space="preserve" text-anchor="start" x="271.25" y="-373.5" font-family="Arial" font-size="10.00"> increases complexity</text>
<text xml:space="preserve" text-anchor="start" x="372.5" y="-373.5" font-family="Arial" font-weight="bold" font-size="10.00">(−)</text>
<text xml:space="preserve" text-anchor="start" x="384.5" y="-373.5" font-family="Arial" font-size="10.00"> decreases complexity</text>
<!-- unknown.country_names -->
<g id="node1" class="node">
<title>unknown.country_names</title>
<path fill="#b8e6b8" stroke="#2c3e50" stroke-width="1.8" d="M70.38,-101C70.38,-101 13.88,-101 13.88,-101 7.88,-101 1.88,-95 1.88,-89 1.88,-89 1.88,-77 1.88,-77 1.88,-71 7.88,-65 13.88,-65 13.88,-65 70.38,-65 70.38,-65 76.38,-65 82.38,-71 82.38,-77 82.38,-77 82.38,-89 82.38,-89 82.38,-95 76.38,-101 70.38,-101"/>
<text xml:space="preserve" text-anchor="middle" x="42.12" y="-79.5" font-family="Arial" font-size="10.00" fill="#1a1a1a">country names</text>
</g>
<!-- attr_0 -->
<g id="node5" class="node">
<title>attr_0</title>
<path fill="#c7b8e6" stroke="#7f8c8d" stroke-width="1.2" d="M244.5,-166C244.5,-166 139.25,-166 139.25,-166 133.25,-166 127.25,-160 127.25,-154 127.25,-154 127.25,-142 127.25,-142 127.25,-136 133.25,-130 139.25,-130 139.25,-130 244.5,-130 244.5,-130 250.5,-130 256.5,-136 256.5,-142 256.5,-142 256.5,-154 256.5,-154 256.5,-160 250.5,-166 244.5,-166"/>
<text xml:space="preserve" text-anchor="middle" x="191.88" y="-144.5" font-family="Arial" font-size="10.00" fill="#1a1a1a">(−) familiar domain names</text>
</g>
<!-- unknown.country_names&#45;&gt;attr_0 -->
<g id="edge1" class="edge">
<title>unknown.country_names&#45;&gt;attr_0</title>
<path fill="none" stroke="#aaaaaa" d="M83.11,-100.59C100.99,-108.45 122.24,-117.81 141.13,-126.12"/>
<polygon fill="#aaaaaa" stroke="#aaaaaa" points="140.01,-128.3 147.41,-128.88 141.99,-123.82 140.01,-128.3"/>
</g>
<!-- attr_1 -->
<g id="node6" class="node">
<title>attr_1</title>
<path fill="#c7b8e6" stroke="#7f8c8d" stroke-width="1.2" d="M230.25,-101C230.25,-101 153.5,-101 153.5,-101 147.5,-101 141.5,-95 141.5,-89 141.5,-89 141.5,-77 141.5,-77 141.5,-71 147.5,-65 153.5,-65 153.5,-65 230.25,-65 230.25,-65 236.25,-65 242.25,-71 242.25,-77 242.25,-77 242.25,-89 242.25,-89 242.25,-95 236.25,-101 230.25,-101"/>
<text xml:space="preserve" text-anchor="middle" x="191.88" y="-79.5" font-family="Arial" font-size="10.00" fill="#1a1a1a">(−) easy to process</text>
</g>
<!-- unknown.country_names&#45;&gt;attr_1 -->
<g id="edge2" class="edge">
<title>unknown.country_names&#45;&gt;attr_1</title>
<path fill="none" stroke="#aaaaaa" d="M83.11,-83C98.46,-83 116.3,-83 133,-83"/>
<polygon fill="#aaaaaa" stroke="#aaaaaa" points="132.57,-85.45 139.57,-83 132.57,-80.55 132.57,-85.45"/>
</g>
<!-- rel_1 -->
<g id="node12" class="node">
<title>rel_1</title>
<path fill="#f5b8b8" stroke="#d46a6a" stroke-width="1.2" d="M224.62,-36C224.62,-36 159.12,-36 159.12,-36 153.12,-36 147.12,-30 147.12,-24 147.12,-24 147.12,-12 147.12,-12 147.12,-6 153.12,0 159.12,0 159.12,0 224.62,0 224.62,0 230.62,0 236.62,-6 236.62,-12 236.62,-12 236.62,-24 236.62,-24 236.62,-30 230.62,-36 224.62,-36"/>
<text xml:space="preserve" text-anchor="middle" x="191.88" y="-14.5" font-family="Arial" font-size="10.00" fill="#8b0000">reduces effort for</text>
</g>
<!-- unknown.country_names&#45;&gt;rel_1 -->
<g id="edge11" class="edge">
<title>unknown.country_names&#45;&gt;rel_1</title>
<path fill="none" stroke="#d46a6a" stroke-width="1.5" d="M83.11,-65.41C100.51,-57.76 121.11,-48.69 139.62,-40.55"/>
<polygon fill="#d46a6a" stroke="#d46a6a" stroke-width="1.5" points="140.52,-43.21 146.72,-37.43 138.27,-38.09 140.52,-43.21"/>
</g>
<!-- furniture.legend -->
<g id="node2" class="node">
<title>furniture.legend</title>
<path fill="#b8e6b8" stroke="#2c3e50" stroke-width="1.8" d="M348.38,-263C348.38,-263 318.38,-263 318.38,-263 312.38,-263 306.38,-257 306.38,-251 306.38,-251 306.38,-239 306.38,-239 306.38,-233 312.38,-227 318.38,-227 318.38,-227 348.38,-227 348.38,-227 354.38,-227 360.38,-233 360.38,-239 360.38,-239 360.38,-251 360.38,-251 360.38,-257 354.38,-263 348.38,-263"/>
<text xml:space="preserve" text-anchor="middle" x="333.38" y="-241.5" font-family="Arial" font-size="10.00" fill="#1a1a1a">legend</text>
</g>
<!-- attr_2 -->
<g id="node7" class="node">
<title>attr_2</title>
<path fill="#c7b8e6" stroke="#7f8c8d" stroke-width="1.2" d="M517.75,-328C517.75,-328 431.25,-328 431.25,-328 425.25,-328 419.25,-322 419.25,-316 419.25,-316 419.25,-304 419.25,-304 419.25,-298 425.25,-292 431.25,-292 431.25,-292 517.75,-292 517.75,-292 523.75,-292 529.75,-298 529.75,-304 529.75,-304 529.75,-316 529.75,-316 529.75,-322 523.75,-328 517.75,-328"/>
<text xml:space="preserve" text-anchor="middle" x="474.5" y="-306.5" font-family="Arial" font-size="10.00" fill="#1a1a1a">(−) two distinct colors</text>
</g>
<!-- furniture.legend&#45;&gt;attr_2 -->
<g id="edge3" class="edge">
<title>furniture.legend&#45;&gt;attr_2</title>
<path fill="none" stroke="#aaaaaa" d="M361.2,-248.74C384.96,-257.16 419.57,-273.24 444.08,-287.18"/>
<polygon fill="#aaaaaa" stroke="#aaaaaa" points="442.75,-289.25 450.03,-290.67 445.23,-285.02 442.75,-289.25"/>
</g>
<!-- furniture.legend&#45;&gt;attr_2 -->
<g id="edge7" class="edge">
<title>furniture.legend&#45;&gt;attr_2</title>
<path fill="none" stroke="#aaaaaa" d="M357.04,-263.87C371.79,-272.73 391.8,-282.93 411.08,-291.66"/>
<polygon fill="#aaaaaa" stroke="#aaaaaa" points="409.93,-293.83 417.32,-294.44 411.92,-289.35 409.93,-293.83"/>
</g>
<!-- attr_5 -->
<g id="node8" class="node">
<title>attr_5</title>
<path fill="#c7b8e6" stroke="#7f8c8d" stroke-width="1.2" d="M526.75,-263C526.75,-263 422.25,-263 422.25,-263 416.25,-263 410.25,-257 410.25,-251 410.25,-251 410.25,-239 410.25,-239 410.25,-233 416.25,-227 422.25,-227 422.25,-227 526.75,-227 526.75,-227 532.75,-227 538.75,-233 538.75,-239 538.75,-239 538.75,-251 538.75,-251 538.75,-257 532.75,-263 526.75,-263"/>
<text xml:space="preserve" text-anchor="middle" x="474.5" y="-241.5" font-family="Arial" font-size="10.00" fill="#1a1a1a">(−) minimal legend entries</text>
</g>
<!-- furniture.legend&#45;&gt;attr_5 -->
<g id="edge4" class="edge">
<title>furniture.legend&#45;&gt;attr_5</title>
<path fill="none" stroke="#aaaaaa" d="M361.2,-236.21C372.82,-234.9 387.03,-234.2 401.39,-234.13"/>
<polygon fill="#aaaaaa" stroke="#aaaaaa" points="401.32,-236.58 408.33,-234.15 401.34,-231.68 401.32,-236.58"/>
</g>
<!-- furniture.legend&#45;&gt;attr_5 -->
<g id="edge8" class="edge">
<title>furniture.legend&#45;&gt;attr_5</title>
<path fill="none" stroke="#aaaaaa" d="M361.2,-253.79C372.82,-255.1 387.03,-255.8 401.39,-255.87"/>
<polygon fill="#aaaaaa" stroke="#aaaaaa" points="401.34,-258.32 408.33,-255.85 401.32,-253.42 401.34,-258.32"/>
</g>
<!-- rel_2 -->
<g id="node13" class="node">
<title>rel_2</title>
<path fill="#f5b8b8" stroke="#d46a6a" stroke-width="1.2" d="M496.75,-198C496.75,-198 452.25,-198 452.25,-198 446.25,-198 440.25,-192 440.25,-186 440.25,-186 440.25,-174 440.25,-174 440.25,-168 446.25,-162 452.25,-162 452.25,-162 496.75,-162 496.75,-162 502.75,-162 508.75,-168 508.75,-174 508.75,-174 508.75,-186 508.75,-186 508.75,-192 502.75,-198 496.75,-198"/>
<text xml:space="preserve" text-anchor="middle" x="474.5" y="-176.5" font-family="Arial" font-size="10.00" fill="#8b0000">encodes via</text>
</g>
<!-- furniture.legend&#45;&gt;rel_2 -->
<g id="edge13" class="edge">
<title>furniture.legend&#45;&gt;rel_2</title>
<path fill="none" stroke="#d46a6a" stroke-width="1.5" d="M357.04,-226.13C376.82,-214.24 406.07,-199.96 430.31,-190.03"/>
<polygon fill="#d46a6a" stroke="#d46a6a" stroke-width="1.5" points="431.14,-192.71 437.55,-187.16 429.08,-187.51 431.14,-192.71"/>
</g>
<!-- unknown.annotation_label -->
<g id="node3" class="node">
<title>unknown.annotation_label</title>
<path fill="#b8e6b8" stroke="#2c3e50" stroke-width="1.8" d="M72.25,-296C72.25,-296 12,-296 12,-296 6,-296 0,-290 0,-284 0,-284 0,-272 0,-272 0,-266 6,-260 12,-260 12,-260 72.25,-260 72.25,-260 78.25,-260 84.25,-266 84.25,-272 84.25,-272 84.25,-284 84.25,-284 84.25,-290 78.25,-296 72.25,-296"/>
<text xml:space="preserve" text-anchor="middle" x="42.12" y="-274.5" font-family="Arial" font-size="10.00" fill="#1a1a1a">annotation label</text>
</g>
<!-- attr_3 -->
<g id="node9" class="node">
<title>attr_3</title>
<path fill="#c7b8e6" stroke="#7f8c8d" stroke-width="1.2" d="M244.12,-361C244.12,-361 139.62,-361 139.62,-361 133.62,-361 127.62,-355 127.62,-349 127.62,-349 127.62,-337 127.62,-337 127.62,-331 133.62,-325 139.62,-325 139.62,-325 244.12,-325 244.12,-325 250.12,-325 256.12,-331 256.12,-337 256.12,-337 256.12,-349 256.12,-349 256.12,-355 250.12,-361 244.12,-361"/>
<text xml:space="preserve" text-anchor="middle" x="191.88" y="-339.5" font-family="Arial" font-size="10.00" fill="#1a1a1a">(−) clarifies color meaning</text>
</g>
<!-- unknown.annotation_label&#45;&gt;attr_3 -->
<g id="edge5" class="edge">
<title>unknown.annotation_label&#45;&gt;attr_3</title>
<path fill="none" stroke="#aaaaaa" d="M85.07,-296.45C102.54,-304.14 122.96,-313.12 141.17,-321.13"/>
<polygon fill="#aaaaaa" stroke="#aaaaaa" points="140.05,-323.32 147.44,-323.89 142.02,-318.83 140.05,-323.32"/>
</g>
<!-- rel_0 -->
<g id="node11" class="node">
<title>rel_0</title>
<path fill="#f5b8b8" stroke="#d46a6a" stroke-width="1.2" d="M206.88,-296C206.88,-296 176.88,-296 176.88,-296 170.88,-296 164.88,-290 164.88,-284 164.88,-284 164.88,-272 164.88,-272 164.88,-266 170.88,-260 176.88,-260 176.88,-260 206.88,-260 206.88,-260 212.88,-260 218.88,-266 218.88,-272 218.88,-272 218.88,-284 218.88,-284 218.88,-290 212.88,-296 206.88,-296"/>
<text xml:space="preserve" text-anchor="middle" x="191.88" y="-274.5" font-family="Arial" font-size="10.00" fill="#8b0000">clarifies</text>
</g>
<!-- unknown.annotation_label&#45;&gt;rel_0 -->
<g id="edge9" class="edge">
<title>unknown.annotation_label&#45;&gt;rel_0</title>
<path fill="none" stroke="#d46a6a" stroke-width="1.5" d="M85.07,-278C106.96,-278 133.49,-278 154.51,-278"/>
<polygon fill="#d46a6a" stroke="#d46a6a" stroke-width="1.5" points="154.37,-280.8 162.37,-278 154.37,-275.2 154.37,-280.8"/>
</g>
<!-- rel_3 -->
<g id="node14" class="node">
<title>rel_3</title>
<path fill="#f5b8b8" stroke="#d46a6a" stroke-width="1.2" d="M241.88,-231C241.88,-231 141.88,-231 141.88,-231 135.88,-231 129.88,-225 129.88,-219 129.88,-219 129.88,-207 129.88,-207 129.88,-201 135.88,-195 141.88,-195 141.88,-195 241.88,-195 241.88,-195 247.88,-195 253.88,-201 253.88,-207 253.88,-207 253.88,-219 253.88,-219 253.88,-225 247.88,-231 241.88,-231"/>
<text xml:space="preserve" text-anchor="middle" x="191.88" y="-209.5" font-family="Arial" font-size="10.00" fill="#8b0000">supports interpretation of</text>
</g>
<!-- unknown.annotation_label&#45;&gt;rel_3 -->
<g id="edge15" class="edge">
<title>unknown.annotation_label&#45;&gt;rel_3</title>
<path fill="none" stroke="#d46a6a" stroke-width="1.5" d="M85.07,-259.55C102.07,-252.07 121.86,-243.36 139.7,-235.51"/>
<polygon fill="#d46a6a" stroke="#d46a6a" stroke-width="1.5" points="140.55,-238.2 146.75,-232.41 138.3,-233.07 140.55,-238.2"/>
</g>
<!-- unknown.text_content -->
<g id="node4" class="node">
<title>unknown.text_content</title>
<path fill="#b8e6b8" stroke="#2c3e50" stroke-width="1.8" d="M355.25,-36C355.25,-36 311.5,-36 311.5,-36 305.5,-36 299.5,-30 299.5,-24 299.5,-24 299.5,-12 299.5,-12 299.5,-6 305.5,0 311.5,0 311.5,0 355.25,0 355.25,0 361.25,0 367.25,-6 367.25,-12 367.25,-12 367.25,-24 367.25,-24 367.25,-30 361.25,-36 355.25,-36"/>
<text xml:space="preserve" text-anchor="middle" x="333.38" y="-14.5" font-family="Arial" font-size="10.00" fill="#1a1a1a">text content</text>
</g>
<!-- attr_4 -->
<g id="node10" class="node">
<title>attr_4</title>
<path fill="#c7b8e6" stroke="#7f8c8d" stroke-width="1.2" d="M526.38,-36C526.38,-36 422.62,-36 422.62,-36 416.62,-36 410.62,-30 410.62,-24 410.62,-24 410.62,-12 410.62,-12 410.62,-6 416.62,0 422.62,0 422.62,0 526.38,0 526.38,0 532.38,0 538.38,-6 538.38,-12 538.38,-12 538.38,-24 538.38,-24 538.38,-30 532.38,-36 526.38,-36"/>
<text xml:space="preserve" text-anchor="middle" x="474.5" y="-14.5" font-family="Arial" font-size="10.00" fill="#1a1a1a">(−) low domain specificity</text>
</g>
<!-- unknown.text_content&#45;&gt;attr_4 -->
<g id="edge6" class="edge">
<title>unknown.text_content&#45;&gt;attr_4</title>
<path fill="none" stroke="#aaaaaa" d="M368.05,-18C378.38,-18 390.15,-18 402,-18"/>
<polygon fill="#aaaaaa" stroke="#aaaaaa" points="401.69,-20.45 408.69,-18 401.69,-15.55 401.69,-20.45"/>
</g>
<!-- rel_0&#45;&gt;furniture.legend -->
<g id="edge10" class="edge">
<title>rel_0&#45;&gt;furniture.legend</title>
<path fill="none" stroke="#d46a6a" stroke-width="1.5" d="M219.44,-271.72C241.16,-266.58 272.09,-259.26 296.09,-253.58"/>
<polygon fill="#d46a6a" stroke="#d46a6a" stroke-width="1.5" points="296.56,-256.35 303.7,-251.78 295.27,-250.9 296.56,-256.35"/>
</g>
<!-- rel_1&#45;&gt;unknown.text_content -->
<g id="edge12" class="edge">
<title>rel_1&#45;&gt;unknown.text_content</title>
<path fill="none" stroke="#d46a6a" stroke-width="1.5" d="M237.01,-18C253.54,-18 272.29,-18 288.77,-18"/>
<polygon fill="#d46a6a" stroke="#d46a6a" stroke-width="1.5" points="288.42,-20.8 296.42,-18 288.42,-15.2 288.42,-20.8"/>
</g>
<!-- rel_2&#45;&gt;furniture.legend -->
<g id="edge14" class="edge">
<title>rel_2&#45;&gt;furniture.legend</title>
<path fill="none" stroke="#d46a6a" stroke-width="1.5" d="M451.34,-198.57C429.63,-211.68 396.16,-227.8 370.58,-237.76"/>
<polygon fill="#d46a6a" stroke="#d46a6a" stroke-width="1.5" points="369.84,-235.05 363.33,-240.47 371.8,-240.3 369.84,-235.05"/>
</g>
<!-- rel_3&#45;&gt;furniture.legend -->
<g id="edge16" class="edge">
<title>rel_3&#45;&gt;furniture.legend</title>
<path fill="none" stroke="#d46a6a" stroke-width="1.5" d="M254.47,-227.13C268.64,-230.38 283.26,-233.73 295.96,-236.65"/>
<polygon fill="#d46a6a" stroke="#d46a6a" stroke-width="1.5" points="295.04,-239.31 303.47,-238.37 296.29,-233.85 295.04,-239.31"/>
</g>
</g>
</svg>
