<?xml version="1.0" encoding="UTF-8" standalone="no"?>
<!DOCTYPE svg PUBLIC "-//W3C//DTD SVG 1.1//EN"
 "http://www.w3.org/Graphics/SVG/1.1/DTD/svg11.dtd">
<!-- Generated by graphviz version 14.1.5 (20260411.2331)
 -->
<!-- Title: InfoVisC.24.8(1).png Pages: 1 -->
<svg width="1156pt" height="375pt"
 viewBox="0.00 0.00 1156.00 375.00" xmlns="http://www.w3.org/2000/svg" xmlns:xlink="http://www.w3.org/1999/xlink">
<g id="graph0" class="graph" transform="scale(1 1) rotate(0) translate(4 371.25)">
<title>InfoVisC.24.8(1).png</title>
<polygon fill="white" stroke="none" points="-4,4 -4,-371.25 1151.5,-371.25 1151.5,4 -4,4"/>
<text xml:space="preserve" text-anchor="start" x="508.88" y="-346.95" font-family="Arial" font-weight="bold" font-size="14.00">InfoVisC.24.8(1).png</text>
<text xml:space="preserve" text-anchor="start" x="529.88" y="-327" font-family="Arial" font-size="11.00">Area &#160;| &#160;VC = 0.94</text>
<path fill="#b8e6b8" stroke="none" d="M364.38,-302C364.38,-302 372.38,-302 372.38,-302 375.38,-302 378.38,-305 378.38,-308 378.38,-308 378.38,-314 378.38,-314 378.38,-317 375.38,-320 372.38,-320 372.38,-320 364.38,-320 364.38,-320 361.38,-320 358.38,-317 358.38,-314 358.38,-314 358.38,-308 358.38,-308 358.38,-305 361.38,-302 364.38,-302"/>
<path fill="none" stroke="black" d="M364.38,-302C364.38,-302 372.38,-302 372.38,-302 375.38,-302 378.38,-305 378.38,-308 378.38,-308 378.38,-314 378.38,-314 378.38,-317 375.38,-320 372.38,-320 372.38,-320 364.38,-320 364.38,-320 361.38,-320 358.38,-317 358.38,-314 358.38,-314 358.38,-308 358.38,-308 358.38,-305 361.38,-302 364.38,-302"/>
<text xml:space="preserve" text-anchor="start" x="366.88" y="-307.25" font-family="Arial" font-size="10.00"> </text>
<text xml:space="preserve" text-anchor="start" x="382.38" y="-307.25" font-family="Arial" font-size="10.00">Object</text>
<path fill="#c7b8e6" stroke="none" d="M420.88,-302C420.88,-302 428.88,-302 428.88,-302 431.88,-302 434.88,-305 434.88,-308 434.88,-308 434.88,-314 434.88,-314 434.88,-317 431.88,-320 428.88,-320 428.88,-320 420.88,-320 420.88,-320 417.88,-320 414.88,-317 414.88,-314 414.88,-314 414.88,-308 414.88,-308 414.88,-305 417.88,-302 420.88,-302"/>
<path fill="none" stroke="black" d="M420.88,-302C420.88,-302 428.88,-302 428.88,-302 431.88,-302 434.88,-305 434.88,-308 434.88,-308 434.88,-314 434.88,-314 434.88,-317 431.88,-320 428.88,-320 428.88,-320 420.88,-320 420.88,-320 417.88,-320 414.88,-317 414.88,-314 414.88,-314 414.88,-308 414.88,-308 414.88,-305 417.88,-302 420.88,-302"/>
<text xml:space="preserve" text-anchor="start" x="423.38" y="-307.25" font-family="Arial" font-size="10.00"> </text>
<text xml:space="preserve" text-anchor="start" x="438.88" y="-307.25" font-family="Arial" font-size="10.00">Attribute</text>
<path fill="#f5b8b8" stroke="none" d="M485.62,-302C485.62,-302 493.62,-302 493.62,-302 496.62,-302 499.62,-305 499.62,-308 499.62,-308 499.62,-314 499.62,-314 499.62,-317 496.62,-320 493.62,-320 493.62,-320 485.62,-320 485.62,-320 482.62,-320 479.62,-317 479.62,-314 479.62,-314 479.62,-308 479.62,-308 479.62,-305 482.62,-302 485.62,-302"/>
<path fill="none" stroke="black" d="M485.62,-302C485.62,-302 493.62,-302 493.62,-302 496.62,-302 499.62,-305 499.62,-308 499.62,-308 499.62,-314 499.62,-314 499.62,-317 496.62,-320 493.62,-320 493.62,-320 485.62,-320 485.62,-320 482.62,-320 479.62,-317 479.62,-314 479.62,-314 479.62,-308 479.62,-308 479.62,-305 482.62,-302 485.62,-302"/>
<text xml:space="preserve" text-anchor="start" x="488.12" y="-307.25" font-family="Arial" font-size="10.00"> </text>
<text xml:space="preserve" text-anchor="start" x="503.62" y="-307.25" font-family="Arial" font-size="10.00">Relationship</text>
<text xml:space="preserve" text-anchor="start" x="563.62" y="-308.5" font-family="Arial" font-weight="bold" font-size="10.00">(+)</text>
<text xml:space="preserve" text-anchor="start" x="575.62" y="-308.5" font-family="Arial" font-size="10.00"> increases complexity</text>
<text xml:space="preserve" text-anchor="start" x="676.88" y="-308.5" font-family="Arial" font-weight="bold" font-size="10.00">(−)</text>
<text xml:space="preserve" text-anchor="start" x="688.88" y="-308.5" font-family="Arial" font-size="10.00"> decreases complexity</text>
<!-- unknown.left_chart -->
<g id="node1" class="node">
<title>unknown.left_chart</title>
<path fill="#b8e6b8" stroke="#2c3e50" stroke-width="1.8" d="M680.25,-101C680.25,-101 650,-101 650,-101 644,-101 638,-95 638,-89 638,-89 638,-77 638,-77 638,-71 644,-65 650,-65 650,-65 680.25,-65 680.25,-65 686.25,-65 692.25,-71 692.25,-77 692.25,-77 692.25,-89 692.25,-89 692.25,-95 686.25,-101 680.25,-101"/>
<text xml:space="preserve" text-anchor="middle" x="665.12" y="-79.5" font-family="Arial" font-size="10.00" fill="#1a1a1a">left chart</text>
</g>
<!-- attr_0 -->
<g id="node7" class="node">
<title>attr_0</title>
<path fill="#c7b8e6" stroke="#7f8c8d" stroke-width="1.2" d="M869.75,-166C869.75,-166 757.75,-166 757.75,-166 751.75,-166 745.75,-160 745.75,-154 745.75,-154 745.75,-142 745.75,-142 745.75,-136 751.75,-130 757.75,-130 757.75,-130 869.75,-130 869.75,-130 875.75,-130 881.75,-136 881.75,-142 881.75,-142 881.75,-154 881.75,-154 881.75,-160 875.75,-166 869.75,-166"/>
<text xml:space="preserve" text-anchor="middle" x="813.75" y="-144.5" font-family="Arial" font-size="10.00" fill="#1a1a1a">(+) higher visual complexity</text>
</g>
<!-- unknown.left_chart&#45;&gt;attr_0 -->
<g id="edge1" class="edge">
<title>unknown.left_chart&#45;&gt;attr_0</title>
<path fill="none" stroke="#aaaaaa" d="M693.02,-94.92C712.71,-103.65 740,-115.75 763.55,-126.19"/>
<polygon fill="#aaaaaa" stroke="#aaaaaa" points="762.28,-128.3 769.67,-128.9 764.26,-123.82 762.28,-128.3"/>
</g>
<!-- attr_6 -->
<g id="node8" class="node">
<title>attr_6</title>
<path fill="#c7b8e6" stroke="#7f8c8d" stroke-width="1.2" d="M855.88,-101C855.88,-101 771.62,-101 771.62,-101 765.62,-101 759.62,-95 759.62,-89 759.62,-89 759.62,-77 759.62,-77 759.62,-71 765.62,-65 771.62,-65 771.62,-65 855.88,-65 855.88,-65 861.88,-65 867.88,-71 867.88,-77 867.88,-77 867.88,-89 867.88,-89 867.88,-95 861.88,-101 855.88,-101"/>
<text xml:space="preserve" text-anchor="middle" x="813.75" y="-79.5" font-family="Arial" font-size="10.00" fill="#1a1a1a">(+) dense data points</text>
</g>
<!-- unknown.left_chart&#45;&gt;attr_6 -->
<g id="edge2" class="edge">
<title>unknown.left_chart&#45;&gt;attr_6</title>
<path fill="none" stroke="#aaaaaa" d="M693.02,-83C709.29,-83 730.76,-83 751.01,-83"/>
<polygon fill="#aaaaaa" stroke="#aaaaaa" points="750.78,-85.45 757.78,-83 750.78,-80.55 750.78,-85.45"/>
</g>
<!-- rel_0 -->
<g id="node14" class="node">
<title>rel_0</title>
<path fill="#f5b8b8" stroke="#d46a6a" stroke-width="1.2" d="M856.62,-36C856.62,-36 770.88,-36 770.88,-36 764.88,-36 758.88,-30 758.88,-24 758.88,-24 758.88,-12 758.88,-12 758.88,-6 764.88,0 770.88,0 770.88,0 856.62,0 856.62,0 862.62,0 868.62,-6 868.62,-12 868.62,-12 868.62,-24 868.62,-24 868.62,-30 862.62,-36 856.62,-36"/>
<text xml:space="preserve" text-anchor="middle" x="813.75" y="-14.5" font-family="Arial" font-size="10.00" fill="#8b0000">is more complex than</text>
</g>
<!-- unknown.left_chart&#45;&gt;rel_0 -->
<g id="edge8" class="edge">
<title>unknown.left_chart&#45;&gt;rel_0</title>
<path fill="none" stroke="#d46a6a" stroke-width="1.5" d="M693.02,-71.08C712.2,-62.57 738.59,-50.88 761.71,-40.63"/>
<polygon fill="#d46a6a" stroke="#d46a6a" stroke-width="1.5" points="762.8,-43.21 768.98,-37.41 760.53,-38.09 762.8,-43.21"/>
</g>
<!-- unknown.right_chart -->
<g id="node2" class="node">
<title>unknown.right_chart</title>
<path fill="#b8e6b8" stroke="#2c3e50" stroke-width="1.8" d="M972.25,-133C972.25,-133 936.75,-133 936.75,-133 930.75,-133 924.75,-127 924.75,-121 924.75,-121 924.75,-109 924.75,-109 924.75,-103 930.75,-97 936.75,-97 936.75,-97 972.25,-97 972.25,-97 978.25,-97 984.25,-103 984.25,-109 984.25,-109 984.25,-121 984.25,-121 984.25,-127 978.25,-133 972.25,-133"/>
<text xml:space="preserve" text-anchor="middle" x="954.5" y="-111.5" font-family="Arial" font-size="10.00" fill="#1a1a1a">right chart</text>
</g>
<!-- attr_1 -->
<g id="node9" class="node">
<title>attr_1</title>
<path fill="#c7b8e6" stroke="#7f8c8d" stroke-width="1.2" d="M1135.5,-133C1135.5,-133 1039.25,-133 1039.25,-133 1033.25,-133 1027.25,-127 1027.25,-121 1027.25,-121 1027.25,-109 1027.25,-109 1027.25,-103 1033.25,-97 1039.25,-97 1039.25,-97 1135.5,-97 1135.5,-97 1141.5,-97 1147.5,-103 1147.5,-109 1147.5,-109 1147.5,-121 1147.5,-121 1147.5,-127 1141.5,-133 1135.5,-133"/>
<text xml:space="preserve" text-anchor="middle" x="1087.38" y="-111.5" font-family="Arial" font-size="10.00" fill="#1a1a1a">(−) readable word labels</text>
</g>
<!-- unknown.right_chart&#45;&gt;attr_1 -->
<g id="edge3" class="edge">
<title>unknown.right_chart&#45;&gt;attr_1</title>
<path fill="none" stroke="#aaaaaa" d="M984.87,-115C994.97,-115 1006.75,-115 1018.62,-115"/>
<polygon fill="#aaaaaa" stroke="#aaaaaa" points="1018.32,-117.45 1025.32,-115 1018.32,-112.55 1018.32,-117.45"/>
</g>
<!-- text.axis_label -->
<g id="node3" class="node">
<title>text.axis_label</title>
<path fill="#b8e6b8" stroke="#2c3e50" stroke-width="1.8" d="M57.25,-230C57.25,-230 24,-230 24,-230 18,-230 12,-224 12,-218 12,-218 12,-206 12,-206 12,-200 18,-194 24,-194 24,-194 57.25,-194 57.25,-194 63.25,-194 69.25,-200 69.25,-206 69.25,-206 69.25,-218 69.25,-218 69.25,-224 63.25,-230 57.25,-230"/>
<text xml:space="preserve" text-anchor="middle" x="40.62" y="-208.5" font-family="Arial" font-size="10.00" fill="#1a1a1a">axis label</text>
</g>
<!-- attr_2 -->
<g id="node10" class="node">
<title>attr_2</title>
<path fill="#c7b8e6" stroke="#7f8c8d" stroke-width="1.2" d="M235.5,-263C235.5,-263 147.5,-263 147.5,-263 141.5,-263 135.5,-257 135.5,-251 135.5,-251 135.5,-239 135.5,-239 135.5,-233 141.5,-227 147.5,-227 147.5,-227 235.5,-227 235.5,-227 241.5,-227 247.5,-233 247.5,-239 247.5,-239 247.5,-251 247.5,-251 247.5,-257 241.5,-263 235.5,-263"/>
<text xml:space="preserve" text-anchor="middle" x="191.5" y="-241.5" font-family="Arial" font-size="10.00" fill="#1a1a1a">(+) unclear axis labels</text>
</g>
<!-- text.axis_label&#45;&gt;attr_2 -->
<g id="edge4" class="edge">
<title>text.axis_label&#45;&gt;attr_2</title>
<path fill="none" stroke="#aaaaaa" d="M69.98,-218.28C86.14,-221.87 107.09,-226.51 126.97,-230.92"/>
<polygon fill="#aaaaaa" stroke="#aaaaaa" points="126.27,-233.27 133.63,-232.4 127.33,-228.49 126.27,-233.27"/>
</g>
<!-- rel_1 -->
<g id="node15" class="node">
<title>rel_1</title>
<path fill="#f5b8b8" stroke="#d46a6a" stroke-width="1.2" d="M207.38,-198C207.38,-198 175.62,-198 175.62,-198 169.62,-198 163.62,-192 163.62,-186 163.62,-186 163.62,-174 163.62,-174 163.62,-168 169.62,-162 175.62,-162 175.62,-162 207.38,-162 207.38,-162 213.38,-162 219.38,-168 219.38,-174 219.38,-174 219.38,-186 219.38,-186 219.38,-192 213.38,-198 207.38,-198"/>
<text xml:space="preserve" text-anchor="middle" x="191.5" y="-176.5" font-family="Arial" font-size="10.00" fill="#8b0000">obscures</text>
</g>
<!-- text.axis_label&#45;&gt;rel_1 -->
<g id="edge10" class="edge">
<title>text.axis_label&#45;&gt;rel_1</title>
<path fill="none" stroke="#d46a6a" stroke-width="1.5" d="M69.98,-205.91C93.66,-200.81 127.61,-193.52 153.44,-187.97"/>
<polygon fill="#d46a6a" stroke="#d46a6a" stroke-width="1.5" points="153.81,-190.75 161.04,-186.33 152.63,-185.28 153.81,-190.75"/>
</g>
<!-- unknown.value_representation -->
<g id="node4" class="node">
<title>unknown.value_representation</title>
<path fill="#b8e6b8" stroke="#2c3e50" stroke-width="1.8" d="M393.5,-133C393.5,-133 313.75,-133 313.75,-133 307.75,-133 301.75,-127 301.75,-121 301.75,-121 301.75,-109 301.75,-109 301.75,-103 307.75,-97 313.75,-97 313.75,-97 393.5,-97 393.5,-97 399.5,-97 405.5,-103 405.5,-109 405.5,-109 405.5,-121 405.5,-121 405.5,-127 399.5,-133 393.5,-133"/>
<text xml:space="preserve" text-anchor="middle" x="353.62" y="-111.5" font-family="Arial" font-size="10.00" fill="#1a1a1a">value representation</text>
</g>
<!-- attr_3 -->
<g id="node11" class="node">
<title>attr_3</title>
<path fill="#c7b8e6" stroke="#7f8c8d" stroke-width="1.2" d="M572.5,-166C572.5,-166 460.5,-166 460.5,-166 454.5,-166 448.5,-160 448.5,-154 448.5,-154 448.5,-142 448.5,-142 448.5,-136 454.5,-130 460.5,-130 460.5,-130 572.5,-130 572.5,-130 578.5,-130 584.5,-136 584.5,-142 584.5,-142 584.5,-154 584.5,-154 584.5,-160 578.5,-166 572.5,-166"/>
<text xml:space="preserve" text-anchor="middle" x="516.5" y="-144.5" font-family="Arial" font-size="10.00" fill="#1a1a1a">(+) complex value encoding</text>
</g>
<!-- unknown.value_representation&#45;&gt;attr_3 -->
<g id="edge5" class="edge">
<title>unknown.value_representation&#45;&gt;attr_3</title>
<path fill="none" stroke="#aaaaaa" d="M405.97,-125.53C416.7,-127.73 428.23,-130.1 439.63,-132.44"/>
<polygon fill="#aaaaaa" stroke="#aaaaaa" points="439.07,-134.82 446.42,-133.83 440.05,-130.02 439.07,-134.82"/>
</g>
<!-- rel_4 -->
<g id="node18" class="node">
<title>rel_4</title>
<path fill="#f5b8b8" stroke="#d46a6a" stroke-width="1.2" d="M538.75,-101C538.75,-101 494.25,-101 494.25,-101 488.25,-101 482.25,-95 482.25,-89 482.25,-89 482.25,-77 482.25,-77 482.25,-71 488.25,-65 494.25,-65 494.25,-65 538.75,-65 538.75,-65 544.75,-65 550.75,-71 550.75,-77 550.75,-77 550.75,-89 550.75,-89 550.75,-95 544.75,-101 538.75,-101"/>
<text xml:space="preserve" text-anchor="middle" x="516.5" y="-79.5" font-family="Arial" font-size="10.00" fill="#8b0000">overwhelms</text>
</g>
<!-- unknown.value_representation&#45;&gt;rel_4 -->
<g id="edge16" class="edge">
<title>unknown.value_representation&#45;&gt;rel_4</title>
<path fill="none" stroke="#d46a6a" stroke-width="1.5" d="M405.97,-104.79C427.21,-100.56 451.58,-95.72 471.93,-91.67"/>
<polygon fill="#d46a6a" stroke="#d46a6a" stroke-width="1.5" points="472.34,-94.44 479.64,-90.13 471.24,-88.95 472.34,-94.44"/>
</g>
<!-- unknown.graph_structure -->
<g id="node5" class="node">
<title>unknown.graph_structure</title>
<path fill="#b8e6b8" stroke="#2c3e50" stroke-width="1.8" d="M69.25,-101C69.25,-101 12,-101 12,-101 6,-101 0,-95 0,-89 0,-89 0,-77 0,-77 0,-71 6,-65 12,-65 12,-65 69.25,-65 69.25,-65 75.25,-65 81.25,-71 81.25,-77 81.25,-77 81.25,-89 81.25,-89 81.25,-95 75.25,-101 69.25,-101"/>
<text xml:space="preserve" text-anchor="middle" x="40.62" y="-79.5" font-family="Arial" font-size="10.00" fill="#1a1a1a">graph structure</text>
</g>
<!-- attr_4 -->
<g id="node12" class="node">
<title>attr_4</title>
<path fill="#c7b8e6" stroke="#7f8c8d" stroke-width="1.2" d="M246.75,-133C246.75,-133 136.25,-133 136.25,-133 130.25,-133 124.25,-127 124.25,-121 124.25,-121 124.25,-109 124.25,-109 124.25,-103 130.25,-97 136.25,-97 136.25,-97 246.75,-97 246.75,-97 252.75,-97 258.75,-103 258.75,-109 258.75,-109 258.75,-121 258.75,-121 258.75,-127 252.75,-133 246.75,-133"/>
<text xml:space="preserve" text-anchor="middle" x="191.5" y="-111.5" font-family="Arial" font-size="10.00" fill="#1a1a1a">(+) irregular size and length</text>
</g>
<!-- unknown.graph_structure&#45;&gt;attr_4 -->
<g id="edge6" class="edge">
<title>unknown.graph_structure&#45;&gt;attr_4</title>
<path fill="none" stroke="#aaaaaa" d="M81.91,-91.66C92.41,-93.92 104.06,-96.42 115.72,-98.93"/>
<polygon fill="#aaaaaa" stroke="#aaaaaa" points="114.95,-101.27 122.3,-100.34 115.97,-96.48 114.95,-101.27"/>
</g>
<!-- rel_2 -->
<g id="node16" class="node">
<title>rel_2</title>
<path fill="#f5b8b8" stroke="#d46a6a" stroke-width="1.2" d="M228,-68C228,-68 155,-68 155,-68 149,-68 143,-62 143,-56 143,-56 143,-44 143,-44 143,-38 149,-32 155,-32 155,-32 228,-32 228,-32 234,-32 240,-38 240,-44 240,-44 240,-56 240,-56 240,-62 234,-68 228,-68"/>
<text xml:space="preserve" text-anchor="middle" x="191.5" y="-46.5" font-family="Arial" font-size="10.00" fill="#8b0000">increases effort for</text>
</g>
<!-- unknown.graph_structure&#45;&gt;rel_2 -->
<g id="edge12" class="edge">
<title>unknown.graph_structure&#45;&gt;rel_2</title>
<path fill="none" stroke="#d46a6a" stroke-width="1.5" d="M81.91,-74.07C97.53,-70.61 115.72,-66.58 132.68,-62.82"/>
<polygon fill="#d46a6a" stroke="#d46a6a" stroke-width="1.5" points="133.08,-65.59 140.29,-61.13 131.87,-60.13 133.08,-65.59"/>
</g>
<!-- unknown.text_elements -->
<g id="node6" class="node">
<title>unknown.text_elements</title>
<path fill="#b8e6b8" stroke="#2c3e50" stroke-width="1.8" d="M690.75,-263C690.75,-263 639.5,-263 639.5,-263 633.5,-263 627.5,-257 627.5,-251 627.5,-251 627.5,-239 627.5,-239 627.5,-233 633.5,-227 639.5,-227 639.5,-227 690.75,-227 690.75,-227 696.75,-227 702.75,-233 702.75,-239 702.75,-239 702.75,-251 702.75,-251 702.75,-257 696.75,-263 690.75,-263"/>
<text xml:space="preserve" text-anchor="middle" x="665.12" y="-241.5" font-family="Arial" font-size="10.00" fill="#1a1a1a">text elements</text>
</g>
<!-- attr_5 -->
<g id="node13" class="node">
<title>attr_5</title>
<path fill="#c7b8e6" stroke="#7f8c8d" stroke-width="1.2" d="M855.88,-296C855.88,-296 771.62,-296 771.62,-296 765.62,-296 759.62,-290 759.62,-284 759.62,-284 759.62,-272 759.62,-272 759.62,-266 765.62,-260 771.62,-260 771.62,-260 855.88,-260 855.88,-260 861.88,-260 867.88,-266 867.88,-272 867.88,-272 867.88,-284 867.88,-284 867.88,-290 861.88,-296 855.88,-296"/>
<text xml:space="preserve" text-anchor="middle" x="813.75" y="-274.5" font-family="Arial" font-size="10.00" fill="#1a1a1a">(+) limited text clarity</text>
</g>
<!-- unknown.text_elements&#45;&gt;attr_5 -->
<g id="edge7" class="edge">
<title>unknown.text_elements&#45;&gt;attr_5</title>
<path fill="none" stroke="#aaaaaa" d="M703.5,-253.41C718.01,-256.68 735.02,-260.51 751.23,-264.15"/>
<polygon fill="#aaaaaa" stroke="#aaaaaa" points="750.27,-266.45 757.64,-265.6 751.35,-261.67 750.27,-266.45"/>
</g>
<!-- rel_3 -->
<g id="node17" class="node">
<title>rel_3</title>
<path fill="#f5b8b8" stroke="#d46a6a" stroke-width="1.2" d="M854,-231C854,-231 773.5,-231 773.5,-231 767.5,-231 761.5,-225 761.5,-219 761.5,-219 761.5,-207 761.5,-207 761.5,-201 767.5,-195 773.5,-195 773.5,-195 854,-195 854,-195 860,-195 866,-201 866,-207 866,-207 866,-219 866,-219 866,-225 860,-231 854,-231"/>
<text xml:space="preserve" text-anchor="middle" x="813.75" y="-209.5" font-family="Arial" font-size="10.00" fill="#8b0000">aids interpretation of</text>
</g>
<!-- unknown.text_elements&#45;&gt;rel_3 -->
<g id="edge14" class="edge">
<title>unknown.text_elements&#45;&gt;rel_3</title>
<path fill="none" stroke="#d46a6a" stroke-width="1.5" d="M703.5,-236.84C717.98,-233.68 734.94,-229.98 751.11,-226.45"/>
<polygon fill="#d46a6a" stroke="#d46a6a" stroke-width="1.5" points="751.62,-229.21 758.84,-224.77 750.43,-223.74 751.62,-229.21"/>
</g>
<!-- rel_0&#45;&gt;unknown.right_chart -->
<g id="edge9" class="edge">
<title>rel_0&#45;&gt;unknown.right_chart</title>
<path fill="none" stroke="#d46a6a" stroke-width="1.5" d="M856.83,-36.55C865.32,-40.89 874.01,-45.78 881.75,-51 898.18,-62.07 914.8,-76.64 927.9,-89.07"/>
<polygon fill="#d46a6a" stroke="#d46a6a" stroke-width="1.5" points="925.85,-90.99 933.55,-94.53 929.74,-86.96 925.85,-90.99"/>
</g>
<!-- rel_1&#45;&gt;unknown.value_representation -->
<g id="edge11" class="edge">
<title>rel_1&#45;&gt;unknown.value_representation</title>
<path fill="none" stroke="#d46a6a" stroke-width="1.5" d="M219.66,-168.97C240.72,-160.43 270.62,-148.29 296.73,-137.69"/>
<polygon fill="#d46a6a" stroke="#d46a6a" stroke-width="1.5" points="297.69,-140.32 304.05,-134.72 295.59,-135.13 297.69,-140.32"/>
</g>
<!-- rel_2&#45;&gt;unknown.value_representation -->
<g id="edge13" class="edge">
<title>rel_2&#45;&gt;unknown.value_representation</title>
<path fill="none" stroke="#d46a6a" stroke-width="1.5" d="M237.96,-68.45C256.31,-75.9 277.67,-84.57 296.95,-92.4"/>
<polygon fill="#d46a6a" stroke="#d46a6a" stroke-width="1.5" points="295.65,-94.89 304.12,-95.31 297.76,-89.71 295.65,-94.89"/>
</g>
<!-- rel_3&#45;&gt;unknown.right_chart -->
<g id="edge15" class="edge">
<title>rel_3&#45;&gt;unknown.right_chart</title>
<path fill="none" stroke="#d46a6a" stroke-width="1.5" d="M858.33,-194.52C866.36,-190.47 874.49,-185.91 881.75,-181 898.9,-169.4 916.05,-153.81 929.28,-140.7"/>
<polygon fill="#d46a6a" stroke="#d46a6a" stroke-width="1.5" points="930.96,-142.98 934.6,-135.32 926.98,-139.04 930.96,-142.98"/>
</g>
<!-- rel_4&#45;&gt;unknown.left_chart -->
<g id="edge17" class="edge">
<title>rel_4&#45;&gt;unknown.left_chart</title>
<path fill="none" stroke="#d46a6a" stroke-width="1.5" d="M551.14,-83C573.87,-83 603.88,-83 627.26,-83"/>
<polygon fill="#d46a6a" stroke="#d46a6a" stroke-width="1.5" points="627.21,-85.8 635.21,-83 627.21,-80.2 627.21,-85.8"/>
</g>
</g>
</svg>
