<?xml version="1.0" encoding="UTF-8" standalone="no"?>
<!DOCTYPE svg PUBLIC "-//W3C//DTD SVG 1.1//EN"
 "http://www.w3.org/Graphics/SVG/1.1/DTD/svg11.dtd">
<!-- Generated by graphviz version 14.1.5 (20260411.2331)
 -->
<!-- Title: InfoVisJ.1009.9.png Pages: 1 -->
<svg width="831pt" height="451pt"
 viewBox="0.00 0.00 831.00 451.00" xmlns="http://www.w3.org/2000/svg" xmlns:xlink="http://www.w3.org/1999/xlink">
<g id="graph0" class="graph" transform="scale(1 1) rotate(0) translate(4 447.25)">
<title>InfoVisJ.1009.9.png</title>
<polygon fill="white" stroke="none" points="-4,4 -4,-447.25 826.5,-447.25 826.5,4 -4,4"/>
<text xml:space="preserve" text-anchor="start" x="348.25" y="-422.95" font-family="Arial" font-weight="bold" font-size="14.00">InfoVisJ.1009.9.png</text>
<text xml:space="preserve" text-anchor="start" x="367.38" y="-403" font-family="Arial" font-size="11.00">Area &#160;| &#160;VC = 0.73</text>
<path fill="#b8e6b8" stroke="none" d="M201.88,-378C201.88,-378 209.88,-378 209.88,-378 212.88,-378 215.88,-381 215.88,-384 215.88,-384 215.88,-390 215.88,-390 215.88,-393 212.88,-396 209.88,-396 209.88,-396 201.88,-396 201.88,-396 198.88,-396 195.88,-393 195.88,-390 195.88,-390 195.88,-384 195.88,-384 195.88,-381 198.88,-378 201.88,-378"/>
<path fill="none" stroke="black" d="M201.88,-378C201.88,-378 209.88,-378 209.88,-378 212.88,-378 215.88,-381 215.88,-384 215.88,-384 215.88,-390 215.88,-390 215.88,-393 212.88,-396 209.88,-396 209.88,-396 201.88,-396 201.88,-396 198.88,-396 195.88,-393 195.88,-390 195.88,-390 195.88,-384 195.88,-384 195.88,-381 198.88,-378 201.88,-378"/>
<text xml:space="preserve" text-anchor="start" x="204.38" y="-383.25" font-family="Arial" font-size="10.00"> </text>
<text xml:space="preserve" text-anchor="start" x="219.88" y="-383.25" font-family="Arial" font-size="10.00">Object</text>
<path fill="#c7b8e6" stroke="none" d="M258.38,-378C258.38,-378 266.38,-378 266.38,-378 269.38,-378 272.38,-381 272.38,-384 272.38,-384 272.38,-390 272.38,-390 272.38,-393 269.38,-396 266.38,-396 266.38,-396 258.38,-396 258.38,-396 255.38,-396 252.38,-393 252.38,-390 252.38,-390 252.38,-384 252.38,-384 252.38,-381 255.38,-378 258.38,-378"/>
<path fill="none" stroke="black" d="M258.38,-378C258.38,-378 266.38,-378 266.38,-378 269.38,-378 272.38,-381 272.38,-384 272.38,-384 272.38,-390 272.38,-390 272.38,-393 269.38,-396 266.38,-396 266.38,-396 258.38,-396 258.38,-396 255.38,-396 252.38,-393 252.38,-390 252.38,-390 252.38,-384 252.38,-384 252.38,-381 255.38,-378 258.38,-378"/>
<text xml:space="preserve" text-anchor="start" x="260.88" y="-383.25" font-family="Arial" font-size="10.00"> </text>
<text xml:space="preserve" text-anchor="start" x="276.38" y="-383.25" font-family="Arial" font-size="10.00">Attribute</text>
<path fill="#f5b8b8" stroke="none" d="M323.12,-378C323.12,-378 331.12,-378 331.12,-378 334.12,-378 337.12,-381 337.12,-384 337.12,-384 337.12,-390 337.12,-390 337.12,-393 334.12,-396 331.12,-396 331.12,-396 323.12,-396 323.12,-396 320.12,-396 317.12,-393 317.12,-390 317.12,-390 317.12,-384 317.12,-384 317.12,-381 320.12,-378 323.12,-378"/>
<path fill="none" stroke="black" d="M323.12,-378C323.12,-378 331.12,-378 331.12,-378 334.12,-378 337.12,-381 337.12,-384 337.12,-384 337.12,-390 337.12,-390 337.12,-393 334.12,-396 331.12,-396 331.12,-396 323.12,-396 323.12,-396 320.12,-396 317.12,-393 317.12,-390 317.12,-390 317.12,-384 317.12,-384 317.12,-381 320.12,-378 323.12,-378"/>
<text xml:space="preserve" text-anchor="start" x="325.62" y="-383.25" font-family="Arial" font-size="10.00"> </text>
<text xml:space="preserve" text-anchor="start" x="341.12" y="-383.25" font-family="Arial" font-size="10.00">Relationship</text>
<text xml:space="preserve" text-anchor="start" x="401.12" y="-384.5" font-family="Arial" font-weight="bold" font-size="10.00">(+)</text>
<text xml:space="preserve" text-anchor="start" x="413.12" y="-384.5" font-family="Arial" font-size="10.00"> increases complexity</text>
<text xml:space="preserve" text-anchor="start" x="514.38" y="-384.5" font-family="Arial" font-weight="bold" font-size="10.00">(−)</text>
<text xml:space="preserve" text-anchor="start" x="526.38" y="-384.5" font-family="Arial" font-size="10.00"> decreases complexity</text>
<!-- furniture.legend -->
<g id="node1" class="node">
<title>furniture.legend</title>
<path fill="#b8e6b8" stroke="#2c3e50" stroke-width="1.8" d="M43.62,-245C43.62,-245 13.62,-245 13.62,-245 7.62,-245 1.62,-239 1.62,-233 1.62,-233 1.62,-221 1.62,-221 1.62,-215 7.62,-209 13.62,-209 13.62,-209 43.62,-209 43.62,-209 49.62,-209 55.62,-215 55.62,-221 55.62,-221 55.62,-233 55.62,-233 55.62,-239 49.62,-245 43.62,-245"/>
<text xml:space="preserve" text-anchor="middle" x="28.62" y="-223.5" font-family="Arial" font-size="10.00" fill="#1a1a1a">legend</text>
</g>
<!-- attr_0 -->
<g id="node6" class="node">
<title>attr_0</title>
<path fill="#c7b8e6" stroke="#7f8c8d" stroke-width="1.2" d="M198.75,-307C198.75,-307 114.5,-307 114.5,-307 108.5,-307 102.5,-301 102.5,-295 102.5,-295 102.5,-283 102.5,-283 102.5,-277 108.5,-271 114.5,-271 114.5,-271 198.75,-271 198.75,-271 204.75,-271 210.75,-277 210.75,-283 210.75,-283 210.75,-295 210.75,-295 210.75,-301 204.75,-307 198.75,-307"/>
<text xml:space="preserve" text-anchor="middle" x="156.62" y="-285.5" font-family="Arial" font-size="10.00" fill="#1a1a1a">(+) absent or missing</text>
</g>
<!-- furniture.legend&#45;&gt;attr_0 -->
<g id="edge1" class="edge">
<title>furniture.legend&#45;&gt;attr_0</title>
<path fill="none" stroke="#aaaaaa" d="M56.35,-240.15C72.02,-247.86 92.24,-257.81 110.34,-266.72"/>
<polygon fill="#aaaaaa" stroke="#aaaaaa" points="109.23,-268.9 116.59,-269.79 111.39,-264.5 109.23,-268.9"/>
</g>
<!-- rel_0 -->
<g id="node12" class="node">
<title>rel_0</title>
<path fill="#f5b8b8" stroke="#d46a6a" stroke-width="1.2" d="M317,-262C317,-262 268.75,-262 268.75,-262 262.75,-262 256.75,-256 256.75,-250 256.75,-250 256.75,-238 256.75,-238 256.75,-232 262.75,-226 268.75,-226 268.75,-226 317,-226 317,-226 323,-226 329,-232 329,-238 329,-238 329,-250 329,-250 329,-256 323,-262 317,-262"/>
<text xml:space="preserve" text-anchor="middle" x="292.88" y="-240.5" font-family="Arial" font-size="10.00" fill="#8b0000">missing from</text>
</g>
<!-- furniture.legend&#45;&gt;rel_0 -->
<g id="edge9" class="edge">
<title>furniture.legend&#45;&gt;rel_0</title>
<path fill="none" stroke="#d46a6a" stroke-width="1.5" d="M56.21,-228.72C100.87,-231.62 191.41,-237.49 246.35,-241.05"/>
<polygon fill="#d46a6a" stroke="#d46a6a" stroke-width="1.5" points="246.08,-243.84 254.24,-241.56 246.44,-238.25 246.08,-243.84"/>
</g>
<!-- rel_3 -->
<g id="node15" class="node">
<title>rel_3</title>
<path fill="#f5b8b8" stroke="#d46a6a" stroke-width="1.2" d="M184.5,-167C184.5,-167 128.75,-167 128.75,-167 122.75,-167 116.75,-161 116.75,-155 116.75,-155 116.75,-143 116.75,-143 116.75,-137 122.75,-131 128.75,-131 128.75,-131 184.5,-131 184.5,-131 190.5,-131 196.5,-137 196.5,-143 196.5,-143 196.5,-155 196.5,-155 196.5,-161 190.5,-167 184.5,-167"/>
<text xml:space="preserve" text-anchor="middle" x="156.62" y="-145.5" font-family="Arial" font-size="10.00" fill="#8b0000">fails to decode</text>
</g>
<!-- furniture.legend&#45;&gt;rel_3 -->
<g id="edge15" class="edge">
<title>furniture.legend&#45;&gt;rel_3</title>
<path fill="none" stroke="#d46a6a" stroke-width="1.5" d="M56.35,-210.46C74.09,-199.47 97.66,-184.88 117.38,-172.67"/>
<polygon fill="#d46a6a" stroke="#d46a6a" stroke-width="1.5" points="118.6,-175.22 123.92,-168.62 115.65,-170.45 118.6,-175.22"/>
</g>
<!-- property.color -->
<g id="node2" class="node">
<title>property.color</title>
<path fill="#b8e6b8" stroke="#2c3e50" stroke-width="1.8" d="M317.75,-166C317.75,-166 268,-166 268,-166 262,-166 256,-160 256,-154 256,-154 256,-142 256,-142 256,-136 262,-130 268,-130 268,-130 317.75,-130 317.75,-130 323.75,-130 329.75,-136 329.75,-142 329.75,-142 329.75,-154 329.75,-154 329.75,-160 323.75,-166 317.75,-166"/>
<text xml:space="preserve" text-anchor="middle" x="292.88" y="-144.5" font-family="Arial" font-size="10.00" fill="#1a1a1a">color shading</text>
</g>
<!-- attr_1 -->
<g id="node7" class="node">
<title>attr_1</title>
<path fill="#c7b8e6" stroke="#7f8c8d" stroke-width="1.2" d="M513.25,-231C513.25,-231 384.75,-231 384.75,-231 378.75,-231 372.75,-225 372.75,-219 372.75,-219 372.75,-207 372.75,-207 372.75,-201 378.75,-195 384.75,-195 384.75,-195 513.25,-195 513.25,-195 519.25,-195 525.25,-201 525.25,-207 525.25,-207 525.25,-219 525.25,-219 525.25,-225 519.25,-231 513.25,-231"/>
<text xml:space="preserve" text-anchor="middle" x="449" y="-209.5" font-family="Arial" font-size="10.00" fill="#1a1a1a">(+) ambiguous confusing colors</text>
</g>
<!-- property.color&#45;&gt;attr_1 -->
<g id="edge2" class="edge">
<title>property.color&#45;&gt;attr_1</title>
<path fill="none" stroke="#aaaaaa" d="M330.4,-154C356.54,-162.93 391.37,-177.76 416.33,-190.66"/>
<polygon fill="#aaaaaa" stroke="#aaaaaa" points="415.07,-192.77 422.41,-193.88 417.37,-188.44 415.07,-192.77"/>
</g>
<!-- property.color&#45;&gt;attr_1 -->
<g id="edge4" class="edge">
<title>property.color&#45;&gt;attr_1</title>
<path fill="none" stroke="#aaaaaa" d="M318.98,-166.87C333.29,-174.63 352.07,-183.41 370.86,-191.34"/>
<polygon fill="#aaaaaa" stroke="#aaaaaa" points="369.52,-193.44 376.93,-193.87 371.41,-188.92 369.52,-193.44"/>
</g>
<!-- attr_2 -->
<g id="node8" class="node">
<title>attr_2</title>
<path fill="#c7b8e6" stroke="#7f8c8d" stroke-width="1.2" d="M497.5,-166C497.5,-166 400.5,-166 400.5,-166 394.5,-166 388.5,-160 388.5,-154 388.5,-154 388.5,-142 388.5,-142 388.5,-136 394.5,-130 400.5,-130 400.5,-130 497.5,-130 497.5,-130 503.5,-130 509.5,-136 509.5,-142 509.5,-142 509.5,-154 509.5,-154 509.5,-160 503.5,-166 497.5,-166"/>
<text xml:space="preserve" text-anchor="middle" x="449" y="-144.5" font-family="Arial" font-size="10.00" fill="#1a1a1a">(+) varying color shades</text>
</g>
<!-- property.color&#45;&gt;attr_2 -->
<g id="edge3" class="edge">
<title>property.color&#45;&gt;attr_2</title>
<path fill="none" stroke="#aaaaaa" d="M330.4,-138.59C345.16,-137.41 362.7,-136.94 379.67,-137.19"/>
<polygon fill="#aaaaaa" stroke="#aaaaaa" points="379.38,-139.63 386.43,-137.33 379.48,-134.73 379.38,-139.63"/>
</g>
<!-- property.color&#45;&gt;attr_2 -->
<g id="edge5" class="edge">
<title>property.color&#45;&gt;attr_2</title>
<path fill="none" stroke="#aaaaaa" d="M330.4,-157.41C345.16,-158.59 362.7,-159.06 379.67,-158.81"/>
<polygon fill="#aaaaaa" stroke="#aaaaaa" points="379.48,-161.27 386.43,-158.67 379.38,-156.37 379.48,-161.27"/>
</g>
<!-- rel_1 -->
<g id="node13" class="node">
<title>rel_1</title>
<path fill="#f5b8b8" stroke="#d46a6a" stroke-width="1.2" d="M464.88,-101C464.88,-101 433.12,-101 433.12,-101 427.12,-101 421.12,-95 421.12,-89 421.12,-89 421.12,-77 421.12,-77 421.12,-71 427.12,-65 433.12,-65 433.12,-65 464.88,-65 464.88,-65 470.88,-65 476.88,-71 476.88,-77 476.88,-77 476.88,-89 476.88,-89 476.88,-95 470.88,-101 464.88,-101"/>
<text xml:space="preserve" text-anchor="middle" x="449" y="-79.5" font-family="Arial" font-size="10.00" fill="#8b0000">obscures</text>
</g>
<!-- property.color&#45;&gt;rel_1 -->
<g id="edge11" class="edge">
<title>property.color&#45;&gt;rel_1</title>
<path fill="none" stroke="#d46a6a" stroke-width="1.5" d="M330.4,-132.6C354.92,-122.26 387.09,-108.69 411.59,-98.36"/>
<polygon fill="#d46a6a" stroke="#d46a6a" stroke-width="1.5" points="412.52,-101 418.81,-95.31 410.35,-95.84 412.52,-101"/>
</g>
<!-- rel_2 -->
<g id="node14" class="node">
<title>rel_2</title>
<path fill="#f5b8b8" stroke="#d46a6a" stroke-width="1.2" d="M494.12,-36C494.12,-36 403.88,-36 403.88,-36 397.88,-36 391.88,-30 391.88,-24 391.88,-24 391.88,-12 391.88,-12 391.88,-6 397.88,0 403.88,0 403.88,0 494.12,0 494.12,0 500.12,0 506.12,-6 506.12,-12 506.12,-12 506.12,-24 506.12,-24 506.12,-30 500.12,-36 494.12,-36"/>
<text xml:space="preserve" text-anchor="middle" x="449" y="-14.5" font-family="Arial" font-size="10.00" fill="#8b0000">increases ambiguity of</text>
</g>
<!-- property.color&#45;&gt;rel_2 -->
<g id="edge13" class="edge">
<title>property.color&#45;&gt;rel_2</title>
<path fill="none" stroke="#d46a6a" stroke-width="1.5" d="M304.81,-129.45C318.37,-107.84 343.31,-72.27 372.75,-50 377,-46.79 381.61,-43.83 386.4,-41.12"/>
<polygon fill="#d46a6a" stroke="#d46a6a" stroke-width="1.5" points="387.37,-43.77 393.15,-37.57 384.77,-38.82 387.37,-43.77"/>
</g>
<!-- mark.area -->
<g id="node3" class="node">
<title>mark.area</title>
<path fill="#b8e6b8" stroke="#2c3e50" stroke-width="1.8" d="M621,-36C621,-36 580.25,-36 580.25,-36 574.25,-36 568.25,-30 568.25,-24 568.25,-24 568.25,-12 568.25,-12 568.25,-6 574.25,0 580.25,0 580.25,0 621,0 621,0 627,0 633,-6 633,-12 633,-12 633,-24 633,-24 633,-30 627,-36 621,-36"/>
<text xml:space="preserve" text-anchor="middle" x="600.62" y="-14.5" font-family="Arial" font-size="10.00" fill="#1a1a1a">area marks</text>
</g>
<!-- attr_4 -->
<g id="node9" class="node">
<title>attr_4</title>
<path fill="#c7b8e6" stroke="#7f8c8d" stroke-width="1.2" d="M801.5,-36C801.5,-36 697,-36 697,-36 691,-36 685,-30 685,-24 685,-24 685,-12 685,-12 685,-6 691,0 697,0 697,0 801.5,0 801.5,0 807.5,0 813.5,-6 813.5,-12 813.5,-12 813.5,-24 813.5,-24 813.5,-30 807.5,-36 801.5,-36"/>
<text xml:space="preserve" text-anchor="middle" x="749.25" y="-14.5" font-family="Arial" font-size="10.00" fill="#1a1a1a">(+) multiple color varieties</text>
</g>
<!-- mark.area&#45;&gt;attr_4 -->
<g id="edge6" class="edge">
<title>mark.area&#45;&gt;attr_4</title>
<path fill="none" stroke="#aaaaaa" d="M633.8,-18C646.39,-18 661.37,-18 676.28,-18"/>
<polygon fill="#aaaaaa" stroke="#aaaaaa" points="676.03,-20.45 683.03,-18 676.03,-15.55 676.03,-20.45"/>
</g>
<!-- content.data -->
<g id="node4" class="node">
<title>content.data</title>
<path fill="#b8e6b8" stroke="#2c3e50" stroke-width="1.8" d="M615.62,-197C615.62,-197 585.62,-197 585.62,-197 579.62,-197 573.62,-191 573.62,-185 573.62,-185 573.62,-173 573.62,-173 573.62,-167 579.62,-161 585.62,-161 585.62,-161 615.62,-161 615.62,-161 621.62,-161 627.62,-167 627.62,-173 627.62,-173 627.62,-185 627.62,-185 627.62,-191 621.62,-197 615.62,-197"/>
<text xml:space="preserve" text-anchor="middle" x="600.62" y="-175.5" font-family="Arial" font-size="10.00" fill="#1a1a1a">data</text>
</g>
<!-- attr_3 -->
<g id="node10" class="node">
<title>attr_3</title>
<path fill="#c7b8e6" stroke="#7f8c8d" stroke-width="1.2" d="M810.5,-197C810.5,-197 688,-197 688,-197 682,-197 676,-191 676,-185 676,-185 676,-173 676,-173 676,-167 682,-161 688,-161 688,-161 810.5,-161 810.5,-161 816.5,-161 822.5,-167 822.5,-173 822.5,-173 822.5,-185 822.5,-185 822.5,-191 816.5,-197 810.5,-197"/>
<text xml:space="preserve" text-anchor="middle" x="749.25" y="-175.5" font-family="Arial" font-size="10.00" fill="#1a1a1a">(−) sparse information content</text>
</g>
<!-- content.data&#45;&gt;attr_3 -->
<g id="edge7" class="edge">
<title>content.data&#45;&gt;attr_3</title>
<path fill="none" stroke="#aaaaaa" d="M628.52,-179C639.71,-179 653.36,-179 667.39,-179"/>
<polygon fill="#aaaaaa" stroke="#aaaaaa" points="667.16,-181.45 674.16,-179 667.16,-176.55 667.16,-181.45"/>
</g>
<!-- text.axis_label -->
<g id="node5" class="node">
<title>text.axis_label</title>
<path fill="#b8e6b8" stroke="#2c3e50" stroke-width="1.8" d="M45.25,-372C45.25,-372 12,-372 12,-372 6,-372 0,-366 0,-360 0,-360 0,-348 0,-348 0,-342 6,-336 12,-336 12,-336 45.25,-336 45.25,-336 51.25,-336 57.25,-342 57.25,-348 57.25,-348 57.25,-360 57.25,-360 57.25,-366 51.25,-372 45.25,-372"/>
<text xml:space="preserve" text-anchor="middle" x="28.62" y="-350.5" font-family="Arial" font-size="10.00" fill="#1a1a1a">axis label</text>
</g>
<!-- attr_5 -->
<g id="node11" class="node">
<title>attr_5</title>
<path fill="#c7b8e6" stroke="#7f8c8d" stroke-width="1.2" d="M201,-372C201,-372 112.25,-372 112.25,-372 106.25,-372 100.25,-366 100.25,-360 100.25,-360 100.25,-348 100.25,-348 100.25,-342 106.25,-336 112.25,-336 112.25,-336 201,-336 201,-336 207,-336 213,-342 213,-348 213,-348 213,-360 213,-360 213,-366 207,-372 201,-372"/>
<text xml:space="preserve" text-anchor="middle" x="156.62" y="-350.5" font-family="Arial" font-size="10.00" fill="#1a1a1a">(+) insufficient context</text>
</g>
<!-- text.axis_label&#45;&gt;attr_5 -->
<g id="edge8" class="edge">
<title>text.axis_label&#45;&gt;attr_5</title>
<path fill="none" stroke="#aaaaaa" d="M57.9,-354C67.98,-354 79.79,-354 91.64,-354"/>
<polygon fill="#aaaaaa" stroke="#aaaaaa" points="91.32,-356.45 98.32,-354 91.32,-351.55 91.32,-356.45"/>
</g>
<!-- rel_0&#45;&gt;content.data -->
<g id="edge10" class="edge">
<title>rel_0&#45;&gt;content.data</title>
<path fill="none" stroke="#d46a6a" stroke-width="1.5" d="M329.37,-251.81C376.02,-260.38 459.72,-269.88 525.25,-245 546.41,-236.96 565.41,-219.84 578.91,-205.05"/>
<polygon fill="#d46a6a" stroke="#d46a6a" stroke-width="1.5" points="580.79,-207.16 583.95,-199.3 576.57,-203.47 580.79,-207.16"/>
</g>
<!-- rel_1&#45;&gt;content.data -->
<g id="edge12" class="edge">
<title>rel_1&#45;&gt;content.data</title>
<path fill="none" stroke="#d46a6a" stroke-width="1.5" d="M477.46,-92.34C492.18,-97.91 510.3,-105.7 525.25,-115 542.7,-125.85 560.23,-140.69 573.88,-153.35"/>
<polygon fill="#d46a6a" stroke="#d46a6a" stroke-width="1.5" points="571.65,-155.1 579.39,-158.56 575.5,-151.03 571.65,-155.1"/>
</g>
<!-- rel_2&#45;&gt;mark.area -->
<g id="edge14" class="edge">
<title>rel_2&#45;&gt;mark.area</title>
<path fill="none" stroke="#d46a6a" stroke-width="1.5" d="M506.57,-18C523.54,-18 541.84,-18 557.69,-18"/>
<polygon fill="#d46a6a" stroke="#d46a6a" stroke-width="1.5" points="557.44,-20.8 565.44,-18 557.44,-15.2 557.44,-20.8"/>
</g>
<!-- rel_3&#45;&gt;property.color -->
<g id="edge16" class="edge">
<title>rel_3&#45;&gt;property.color</title>
<path fill="none" stroke="#d46a6a" stroke-width="1.5" d="M196.82,-148.71C211.93,-148.6 229.33,-148.47 245.09,-148.35"/>
<polygon fill="#d46a6a" stroke="#d46a6a" stroke-width="1.5" points="244.92,-151.15 252.9,-148.29 244.88,-145.55 244.92,-151.15"/>
</g>
</g>
</svg>
