<?xml version="1.0" encoding="UTF-8" standalone="no"?>
<!DOCTYPE svg PUBLIC "-//W3C//DTD SVG 1.1//EN"
 "http://www.w3.org/Graphics/SVG/1.1/DTD/svg11.dtd">
<!-- Generated by graphviz version 14.1.5 (20260411.2331)
 -->
<!-- Title: InfoVisJ.2251.1(2).png Pages: 1 -->
<svg width="861pt" height="440pt"
 viewBox="0.00 0.00 861.00 440.00" xmlns="http://www.w3.org/2000/svg" xmlns:xlink="http://www.w3.org/1999/xlink">
<g id="graph0" class="graph" transform="scale(1 1) rotate(0) translate(4 436.25)">
<title>InfoVisJ.2251.1(2).png</title>
<polygon fill="white" stroke="none" points="-4,4 -4,-436.25 856.75,-436.25 856.75,4 -4,4"/>
<text xml:space="preserve" text-anchor="start" x="355.12" y="-411.95" font-family="Arial" font-weight="bold" font-size="14.00">InfoVisJ.2251.1(2).png</text>
<text xml:space="preserve" text-anchor="start" x="380.25" y="-392" font-family="Arial" font-size="11.00">Glyph &#160;| &#160;VC = 0.56</text>
<path fill="#b8e6b8" stroke="none" d="M217,-367C217,-367 225,-367 225,-367 228,-367 231,-370 231,-373 231,-373 231,-379 231,-379 231,-382 228,-385 225,-385 225,-385 217,-385 217,-385 214,-385 211,-382 211,-379 211,-379 211,-373 211,-373 211,-370 214,-367 217,-367"/>
<path fill="none" stroke="black" d="M217,-367C217,-367 225,-367 225,-367 228,-367 231,-370 231,-373 231,-373 231,-379 231,-379 231,-382 228,-385 225,-385 225,-385 217,-385 217,-385 214,-385 211,-382 211,-379 211,-379 211,-373 211,-373 211,-370 214,-367 217,-367"/>
<text xml:space="preserve" text-anchor="start" x="219.5" y="-372.25" font-family="Arial" font-size="10.00"> </text>
<text xml:space="preserve" text-anchor="start" x="235" y="-372.25" font-family="Arial" font-size="10.00">Object</text>
<path fill="#c7b8e6" stroke="none" d="M273.5,-367C273.5,-367 281.5,-367 281.5,-367 284.5,-367 287.5,-370 287.5,-373 287.5,-373 287.5,-379 287.5,-379 287.5,-382 284.5,-385 281.5,-385 281.5,-385 273.5,-385 273.5,-385 270.5,-385 267.5,-382 267.5,-379 267.5,-379 267.5,-373 267.5,-373 267.5,-370 270.5,-367 273.5,-367"/>
<path fill="none" stroke="black" d="M273.5,-367C273.5,-367 281.5,-367 281.5,-367 284.5,-367 287.5,-370 287.5,-373 287.5,-373 287.5,-379 287.5,-379 287.5,-382 284.5,-385 281.5,-385 281.5,-385 273.5,-385 273.5,-385 270.5,-385 267.5,-382 267.5,-379 267.5,-379 267.5,-373 267.5,-373 267.5,-370 270.5,-367 273.5,-367"/>
<text xml:space="preserve" text-anchor="start" x="276" y="-372.25" font-family="Arial" font-size="10.00"> </text>
<text xml:space="preserve" text-anchor="start" x="291.5" y="-372.25" font-family="Arial" font-size="10.00">Attribute</text>
<path fill="#f5b8b8" stroke="none" d="M338.25,-367C338.25,-367 346.25,-367 346.25,-367 349.25,-367 352.25,-370 352.25,-373 352.25,-373 352.25,-379 352.25,-379 352.25,-382 349.25,-385 346.25,-385 346.25,-385 338.25,-385 338.25,-385 335.25,-385 332.25,-382 332.25,-379 332.25,-379 332.25,-373 332.25,-373 332.25,-370 335.25,-367 338.25,-367"/>
<path fill="none" stroke="black" d="M338.25,-367C338.25,-367 346.25,-367 346.25,-367 349.25,-367 352.25,-370 352.25,-373 352.25,-373 352.25,-379 352.25,-379 352.25,-382 349.25,-385 346.25,-385 346.25,-385 338.25,-385 338.25,-385 335.25,-385 332.25,-382 332.25,-379 332.25,-379 332.25,-373 332.25,-373 332.25,-370 335.25,-367 338.25,-367"/>
<text xml:space="preserve" text-anchor="start" x="340.75" y="-372.25" font-family="Arial" font-size="10.00"> </text>
<text xml:space="preserve" text-anchor="start" x="356.25" y="-372.25" font-family="Arial" font-size="10.00">Relationship</text>
<text xml:space="preserve" text-anchor="start" x="416.25" y="-373.5" font-family="Arial" font-weight="bold" font-size="10.00">(+)</text>
<text xml:space="preserve" text-anchor="start" x="428.25" y="-373.5" font-family="Arial" font-size="10.00"> increases complexity</text>
<text xml:space="preserve" text-anchor="start" x="529.5" y="-373.5" font-family="Arial" font-weight="bold" font-size="10.00">(−)</text>
<text xml:space="preserve" text-anchor="start" x="541.5" y="-373.5" font-family="Arial" font-size="10.00"> decreases complexity</text>
<!-- unknown.glyph -->
<g id="node1" class="node">
<title>unknown.glyph</title>
<path fill="#b8e6b8" stroke="#2c3e50" stroke-width="1.8" d="M345.75,-166C345.75,-166 315.75,-166 315.75,-166 309.75,-166 303.75,-160 303.75,-154 303.75,-154 303.75,-142 303.75,-142 303.75,-136 309.75,-130 315.75,-130 315.75,-130 345.75,-130 345.75,-130 351.75,-130 357.75,-136 357.75,-142 357.75,-142 357.75,-154 357.75,-154 357.75,-160 351.75,-166 345.75,-166"/>
<text xml:space="preserve" text-anchor="middle" x="330.75" y="-144.5" font-family="Arial" font-size="10.00" fill="#1a1a1a">glyph</text>
</g>
<!-- attr_0 -->
<g id="node6" class="node">
<title>attr_0</title>
<path fill="#c7b8e6" stroke="#7f8c8d" stroke-width="1.2" d="M510.5,-199C510.5,-199 412.75,-199 412.75,-199 406.75,-199 400.75,-193 400.75,-187 400.75,-187 400.75,-175 400.75,-175 400.75,-169 406.75,-163 412.75,-163 412.75,-163 510.5,-163 510.5,-163 516.5,-163 522.5,-169 522.5,-175 522.5,-175 522.5,-187 522.5,-187 522.5,-193 516.5,-199 510.5,-199"/>
<text xml:space="preserve" text-anchor="middle" x="461.62" y="-177.5" font-family="Arial" font-size="10.00" fill="#1a1a1a">(+) novel unfamiliar form</text>
</g>
<!-- unknown.glyph&#45;&gt;attr_0 -->
<g id="edge1" class="edge">
<title>unknown.glyph&#45;&gt;attr_0</title>
<path fill="none" stroke="#aaaaaa" d="M358.45,-154.84C368.43,-157.39 380.28,-160.43 392.3,-163.5"/>
<polygon fill="#aaaaaa" stroke="#aaaaaa" points="391.35,-165.79 398.74,-165.15 392.57,-161.04 391.35,-165.79"/>
</g>
<!-- rel_2 -->
<g id="node13" class="node">
<title>rel_2</title>
<path fill="#f5b8b8" stroke="#d46a6a" stroke-width="1.2" d="M503.38,-134C503.38,-134 419.88,-134 419.88,-134 413.88,-134 407.88,-128 407.88,-122 407.88,-122 407.88,-110 407.88,-110 407.88,-104 413.88,-98 419.88,-98 419.88,-98 503.38,-98 503.38,-98 509.38,-98 515.38,-104 515.38,-110 515.38,-110 515.38,-122 515.38,-122 515.38,-128 509.38,-134 503.38,-134"/>
<text xml:space="preserve" text-anchor="middle" x="461.62" y="-112.5" font-family="Arial" font-size="10.00" fill="#8b0000">requires expertise for</text>
</g>
<!-- unknown.glyph&#45;&gt;rel_2 -->
<g id="edge10" class="edge">
<title>unknown.glyph&#45;&gt;rel_2</title>
<path fill="none" stroke="#d46a6a" stroke-width="1.5" d="M358.45,-141.37C369.84,-138.54 383.66,-135.11 397.41,-131.7"/>
<polygon fill="#d46a6a" stroke="#d46a6a" stroke-width="1.5" points="398.08,-134.42 405.17,-129.77 396.73,-128.98 398.08,-134.42"/>
</g>
<!-- structure.pattern -->
<g id="node2" class="node">
<title>structure.pattern</title>
<path fill="#b8e6b8" stroke="#2c3e50" stroke-width="1.8" d="M42,-328C42,-328 12,-328 12,-328 6,-328 0,-322 0,-316 0,-316 0,-304 0,-304 0,-298 6,-292 12,-292 12,-292 42,-292 42,-292 48,-292 54,-298 54,-304 54,-304 54,-316 54,-316 54,-322 48,-328 42,-328"/>
<text xml:space="preserve" text-anchor="middle" x="27" y="-306.5" font-family="Arial" font-size="10.00" fill="#1a1a1a">pattern</text>
</g>
<!-- attr_1 -->
<g id="node7" class="node">
<title>attr_1</title>
<path fill="#c7b8e6" stroke="#7f8c8d" stroke-width="1.2" d="M232.62,-361C232.62,-361 125.12,-361 125.12,-361 119.12,-361 113.12,-355 113.12,-349 113.12,-349 113.12,-337 113.12,-337 113.12,-331 119.12,-325 125.12,-325 125.12,-325 232.62,-325 232.62,-325 238.62,-325 244.62,-331 244.62,-337 244.62,-337 244.62,-349 244.62,-349 244.62,-355 238.62,-361 232.62,-361"/>
<text xml:space="preserve" text-anchor="middle" x="178.88" y="-339.5" font-family="Arial" font-size="10.00" fill="#1a1a1a">(+) visually striking pattern</text>
</g>
<!-- structure.pattern&#45;&gt;attr_1 -->
<g id="edge2" class="edge">
<title>structure.pattern&#45;&gt;attr_1</title>
<path fill="none" stroke="#aaaaaa" d="M54.79,-315.9C68.81,-318.99 86.73,-322.93 104.53,-326.85"/>
<polygon fill="#aaaaaa" stroke="#aaaaaa" points="103.84,-329.21 111.2,-328.32 104.9,-324.42 103.84,-329.21"/>
</g>
<!-- rel_0 -->
<g id="node11" class="node">
<title>rel_0</title>
<path fill="#f5b8b8" stroke="#d46a6a" stroke-width="1.2" d="M213.88,-296C213.88,-296 143.88,-296 143.88,-296 137.88,-296 131.88,-290 131.88,-284 131.88,-284 131.88,-272 131.88,-272 131.88,-266 137.88,-260 143.88,-260 143.88,-260 213.88,-260 213.88,-260 219.88,-260 225.88,-266 225.88,-272 225.88,-272 225.88,-284 225.88,-284 225.88,-290 219.88,-296 213.88,-296"/>
<text xml:space="preserve" text-anchor="middle" x="178.88" y="-274.5" font-family="Arial" font-size="10.00" fill="#8b0000">draws attention to</text>
</g>
<!-- structure.pattern&#45;&gt;rel_0 -->
<g id="edge6" class="edge">
<title>structure.pattern&#45;&gt;rel_0</title>
<path fill="none" stroke="#d46a6a" stroke-width="1.5" d="M54.79,-304.28C73.28,-300.33 98.54,-294.94 121.36,-290.07"/>
<polygon fill="#d46a6a" stroke="#d46a6a" stroke-width="1.5" points="121.85,-292.83 129.09,-288.42 120.68,-287.35 121.85,-292.83"/>
</g>
<!-- unknown.border -->
<g id="node3" class="node">
<title>unknown.border</title>
<path fill="#b8e6b8" stroke="#2c3e50" stroke-width="1.8" d="M42,-69C42,-69 12,-69 12,-69 6,-69 0,-63 0,-57 0,-57 0,-45 0,-45 0,-39 6,-33 12,-33 12,-33 42,-33 42,-33 48,-33 54,-39 54,-45 54,-45 54,-57 54,-57 54,-63 48,-69 42,-69"/>
<text xml:space="preserve" text-anchor="middle" x="27" y="-47.5" font-family="Arial" font-size="10.00" fill="#1a1a1a">border</text>
</g>
<!-- attr_2 -->
<g id="node8" class="node">
<title>attr_2</title>
<path fill="#c7b8e6" stroke="#7f8c8d" stroke-width="1.2" d="M233,-101C233,-101 124.75,-101 124.75,-101 118.75,-101 112.75,-95 112.75,-89 112.75,-89 112.75,-77 112.75,-77 112.75,-71 118.75,-65 124.75,-65 124.75,-65 233,-65 233,-65 239,-65 245,-71 245,-77 245,-77 245,-89 245,-89 245,-95 239,-101 233,-101"/>
<text xml:space="preserve" text-anchor="middle" x="178.88" y="-79.5" font-family="Arial" font-size="10.00" fill="#1a1a1a">(+) orange framed highlight</text>
</g>
<!-- unknown.border&#45;&gt;attr_2 -->
<g id="edge3" class="edge">
<title>unknown.border&#45;&gt;attr_2</title>
<path fill="none" stroke="#aaaaaa" d="M54.79,-56.72C68.74,-59.7 86.54,-63.5 104.25,-67.28"/>
<polygon fill="#aaaaaa" stroke="#aaaaaa" points="103.53,-69.63 110.88,-68.7 104.55,-64.84 103.53,-69.63"/>
</g>
<!-- rel_3 -->
<g id="node14" class="node">
<title>rel_3</title>
<path fill="#f5b8b8" stroke="#d46a6a" stroke-width="1.2" d="M213.12,-36C213.12,-36 144.62,-36 144.62,-36 138.62,-36 132.62,-30 132.62,-24 132.62,-24 132.62,-12 132.62,-12 132.62,-6 138.62,0 144.62,0 144.62,0 213.12,0 213.12,0 219.12,0 225.12,-6 225.12,-12 225.12,-12 225.12,-24 225.12,-24 225.12,-30 219.12,-36 213.12,-36"/>
<text xml:space="preserve" text-anchor="middle" x="178.88" y="-14.5" font-family="Arial" font-size="10.00" fill="#8b0000">signals novelty of</text>
</g>
<!-- unknown.border&#45;&gt;rel_3 -->
<g id="edge12" class="edge">
<title>unknown.border&#45;&gt;rel_3</title>
<path fill="none" stroke="#d46a6a" stroke-width="1.5" d="M54.79,-45.1C73.5,-40.98 99.14,-35.34 122.18,-30.26"/>
<polygon fill="#d46a6a" stroke="#d46a6a" stroke-width="1.5" points="122.78,-33 129.99,-28.54 121.57,-27.53 122.78,-33"/>
</g>
<!-- mark.shape -->
<g id="node4" class="node">
<title>mark.shape</title>
<path fill="#b8e6b8" stroke="#2c3e50" stroke-width="1.8" d="M42,-199C42,-199 12,-199 12,-199 6,-199 0,-193 0,-187 0,-187 0,-175 0,-175 0,-169 6,-163 12,-163 12,-163 42,-163 42,-163 48,-163 54,-169 54,-175 54,-175 54,-187 54,-187 54,-193 48,-199 42,-199"/>
<text xml:space="preserve" text-anchor="middle" x="27" y="-177.5" font-family="Arial" font-size="10.00" fill="#1a1a1a">shape</text>
</g>
<!-- attr_3 -->
<g id="node9" class="node">
<title>attr_3</title>
<path fill="#c7b8e6" stroke="#7f8c8d" stroke-width="1.2" d="M248.75,-231C248.75,-231 109,-231 109,-231 103,-231 97,-225 97,-219 97,-219 97,-207 97,-207 97,-201 103,-195 109,-195 109,-195 248.75,-195 248.75,-195 254.75,-195 260.75,-201 260.75,-207 260.75,-207 260.75,-219 260.75,-219 260.75,-225 254.75,-231 248.75,-231"/>
<text xml:space="preserve" text-anchor="middle" x="178.88" y="-209.5" font-family="Arial" font-size="10.00" fill="#1a1a1a">(+) abstract unconventional shape</text>
</g>
<!-- mark.shape&#45;&gt;attr_3 -->
<g id="edge4" class="edge">
<title>mark.shape&#45;&gt;attr_3</title>
<path fill="none" stroke="#aaaaaa" d="M54.79,-186.72C64.6,-188.82 76.32,-191.32 88.57,-193.93"/>
<polygon fill="#aaaaaa" stroke="#aaaaaa" points="87.84,-196.28 95.2,-195.35 88.86,-191.49 87.84,-196.28"/>
</g>
<!-- rel_1 -->
<g id="node12" class="node">
<title>rel_1</title>
<path fill="#f5b8b8" stroke="#d46a6a" stroke-width="1.2" d="M240.88,-166C240.88,-166 116.88,-166 116.88,-166 110.88,-166 104.88,-160 104.88,-154 104.88,-154 104.88,-142 104.88,-142 104.88,-136 110.88,-130 116.88,-130 116.88,-130 240.88,-130 240.88,-130 246.88,-130 252.88,-136 252.88,-142 252.88,-142 252.88,-154 252.88,-154 252.88,-160 246.88,-166 240.88,-166"/>
<text xml:space="preserve" text-anchor="middle" x="178.88" y="-144.5" font-family="Arial" font-size="10.00" fill="#8b0000">increases interpretive difficulty</text>
</g>
<!-- mark.shape&#45;&gt;rel_1 -->
<g id="edge8" class="edge">
<title>mark.shape&#45;&gt;rel_1</title>
<path fill="none" stroke="#d46a6a" stroke-width="1.5" d="M54.79,-175.1C66.15,-172.6 80.07,-169.54 94.4,-166.38"/>
<polygon fill="#d46a6a" stroke="#d46a6a" stroke-width="1.5" points="94.94,-169.13 102.15,-164.67 93.74,-163.66 94.94,-169.13"/>
</g>
<!-- unknown.color_encoding -->
<g id="node5" class="node">
<title>unknown.color_encoding</title>
<path fill="#b8e6b8" stroke="#2c3e50" stroke-width="1.8" d="M632.5,-134C632.5,-134 577.5,-134 577.5,-134 571.5,-134 565.5,-128 565.5,-122 565.5,-122 565.5,-110 565.5,-110 565.5,-104 571.5,-98 577.5,-98 577.5,-98 632.5,-98 632.5,-98 638.5,-98 644.5,-104 644.5,-110 644.5,-110 644.5,-122 644.5,-122 644.5,-128 638.5,-134 632.5,-134"/>
<text xml:space="preserve" text-anchor="middle" x="605" y="-112.5" font-family="Arial" font-size="10.00" fill="#1a1a1a">color encoding</text>
</g>
<!-- attr_4 -->
<g id="node10" class="node">
<title>attr_4</title>
<path fill="#c7b8e6" stroke="#7f8c8d" stroke-width="1.2" d="M840.75,-134C840.75,-134 699.5,-134 699.5,-134 693.5,-134 687.5,-128 687.5,-122 687.5,-122 687.5,-110 687.5,-110 687.5,-104 693.5,-98 699.5,-98 699.5,-98 840.75,-98 840.75,-98 846.75,-98 852.75,-104 852.75,-110 852.75,-110 852.75,-122 852.75,-122 852.75,-128 846.75,-134 840.75,-134"/>
<text xml:space="preserve" text-anchor="middle" x="770.12" y="-112.5" font-family="Arial" font-size="10.00" fill="#1a1a1a">(+) unfamiliar encoding convention</text>
</g>
<!-- unknown.color_encoding&#45;&gt;attr_4 -->
<g id="edge5" class="edge">
<title>unknown.color_encoding&#45;&gt;attr_4</title>
<path fill="none" stroke="#aaaaaa" d="M645.07,-116C655.41,-116 667.01,-116 678.86,-116"/>
<polygon fill="#aaaaaa" stroke="#aaaaaa" points="678.58,-118.45 685.58,-116 678.58,-113.55 678.58,-118.45"/>
</g>
<!-- rel_0&#45;&gt;unknown.glyph -->
<g id="edge7" class="edge">
<title>rel_0&#45;&gt;unknown.glyph</title>
<path fill="none" stroke="#d46a6a" stroke-width="1.5" d="M226.43,-264.87C238.36,-260.14 250.67,-253.94 260.75,-246 284.82,-227.05 304.02,-197.49 316,-175.78"/>
<polygon fill="#d46a6a" stroke="#d46a6a" stroke-width="1.5" points="318.47,-177.1 319.76,-168.73 313.53,-174.47 318.47,-177.1"/>
</g>
<!-- rel_1&#45;&gt;unknown.glyph -->
<g id="edge9" class="edge">
<title>rel_1&#45;&gt;unknown.glyph</title>
<path fill="none" stroke="#d46a6a" stroke-width="1.5" d="M253.06,-148C266.85,-148 280.72,-148 292.8,-148"/>
<polygon fill="#d46a6a" stroke="#d46a6a" stroke-width="1.5" points="292.64,-150.8 300.64,-148 292.64,-145.2 292.64,-150.8"/>
</g>
<!-- rel_2&#45;&gt;unknown.color_encoding -->
<g id="edge11" class="edge">
<title>rel_2&#45;&gt;unknown.color_encoding</title>
<path fill="none" stroke="#d46a6a" stroke-width="1.5" d="M515.67,-116C528.53,-116 542.22,-116 554.89,-116"/>
<polygon fill="#d46a6a" stroke="#d46a6a" stroke-width="1.5" points="554.52,-118.8 562.52,-116 554.52,-113.2 554.52,-118.8"/>
</g>
<!-- rel_3&#45;&gt;unknown.glyph -->
<g id="edge13" class="edge">
<title>rel_3&#45;&gt;unknown.glyph</title>
<path fill="none" stroke="#d46a6a" stroke-width="1.5" d="M225.56,-31.45C237.76,-36.37 250.41,-42.81 260.75,-51 284.46,-69.78 303.61,-98.79 315.66,-120.19"/>
<polygon fill="#d46a6a" stroke="#d46a6a" stroke-width="1.5" points="313.17,-121.46 319.46,-127.14 318.08,-118.78 313.17,-121.46"/>
</g>
</g>
</svg>
