<?xml version="1.0" encoding="UTF-8" standalone="no"?>
<!DOCTYPE svg PUBLIC "-//W3C//DTD SVG 1.1//EN"
 "http://www.w3.org/Graphics/SVG/1.1/DTD/svg11.dtd">
<!-- Generated by graphviz version 14.1.5 (20260411.2331)
 -->
<!-- Title: InfoVisJ.2251.3(3).png Pages: 1 -->
<svg width="821pt" height="407pt"
 viewBox="0.00 0.00 821.00 407.00" xmlns="http://www.w3.org/2000/svg" xmlns:xlink="http://www.w3.org/1999/xlink">
<g id="graph0" class="graph" transform="scale(1 1) rotate(0) translate(4 403.25)">
<title>InfoVisJ.2251.3(3).png</title>
<polygon fill="white" stroke="none" points="-4,4 -4,-403.25 817,-403.25 817,4 -4,4"/>
<text xml:space="preserve" text-anchor="start" x="335.25" y="-378.95" font-family="Arial" font-weight="bold" font-size="14.00">InfoVisJ.2251.3(3).png</text>
<text xml:space="preserve" text-anchor="start" x="360.38" y="-359" font-family="Arial" font-size="11.00">Glyph &#160;| &#160;VC = 0.35</text>
<path fill="#b8e6b8" stroke="none" d="M197.12,-334C197.12,-334 205.12,-334 205.12,-334 208.12,-334 211.12,-337 211.12,-340 211.12,-340 211.12,-346 211.12,-346 211.12,-349 208.12,-352 205.12,-352 205.12,-352 197.12,-352 197.12,-352 194.12,-352 191.12,-349 191.12,-346 191.12,-346 191.12,-340 191.12,-340 191.12,-337 194.12,-334 197.12,-334"/>
<path fill="none" stroke="black" d="M197.12,-334C197.12,-334 205.12,-334 205.12,-334 208.12,-334 211.12,-337 211.12,-340 211.12,-340 211.12,-346 211.12,-346 211.12,-349 208.12,-352 205.12,-352 205.12,-352 197.12,-352 197.12,-352 194.12,-352 191.12,-349 191.12,-346 191.12,-346 191.12,-340 191.12,-340 191.12,-337 194.12,-334 197.12,-334"/>
<text xml:space="preserve" text-anchor="start" x="199.62" y="-339.25" font-family="Arial" font-size="10.00"> </text>
<text xml:space="preserve" text-anchor="start" x="215.12" y="-339.25" font-family="Arial" font-size="10.00">Object</text>
<path fill="#c7b8e6" stroke="none" d="M253.62,-334C253.62,-334 261.62,-334 261.62,-334 264.62,-334 267.62,-337 267.62,-340 267.62,-340 267.62,-346 267.62,-346 267.62,-349 264.62,-352 261.62,-352 261.62,-352 253.62,-352 253.62,-352 250.62,-352 247.62,-349 247.62,-346 247.62,-346 247.62,-340 247.62,-340 247.62,-337 250.62,-334 253.62,-334"/>
<path fill="none" stroke="black" d="M253.62,-334C253.62,-334 261.62,-334 261.62,-334 264.62,-334 267.62,-337 267.62,-340 267.62,-340 267.62,-346 267.62,-346 267.62,-349 264.62,-352 261.62,-352 261.62,-352 253.62,-352 253.62,-352 250.62,-352 247.62,-349 247.62,-346 247.62,-346 247.62,-340 247.62,-340 247.62,-337 250.62,-334 253.62,-334"/>
<text xml:space="preserve" text-anchor="start" x="256.12" y="-339.25" font-family="Arial" font-size="10.00"> </text>
<text xml:space="preserve" text-anchor="start" x="271.62" y="-339.25" font-family="Arial" font-size="10.00">Attribute</text>
<path fill="#f5b8b8" stroke="none" d="M318.38,-334C318.38,-334 326.38,-334 326.38,-334 329.38,-334 332.38,-337 332.38,-340 332.38,-340 332.38,-346 332.38,-346 332.38,-349 329.38,-352 326.38,-352 326.38,-352 318.38,-352 318.38,-352 315.38,-352 312.38,-349 312.38,-346 312.38,-346 312.38,-340 312.38,-340 312.38,-337 315.38,-334 318.38,-334"/>
<path fill="none" stroke="black" d="M318.38,-334C318.38,-334 326.38,-334 326.38,-334 329.38,-334 332.38,-337 332.38,-340 332.38,-340 332.38,-346 332.38,-346 332.38,-349 329.38,-352 326.38,-352 326.38,-352 318.38,-352 318.38,-352 315.38,-352 312.38,-349 312.38,-346 312.38,-346 312.38,-340 312.38,-340 312.38,-337 315.38,-334 318.38,-334"/>
<text xml:space="preserve" text-anchor="start" x="320.88" y="-339.25" font-family="Arial" font-size="10.00"> </text>
<text xml:space="preserve" text-anchor="start" x="336.38" y="-339.25" font-family="Arial" font-size="10.00">Relationship</text>
<text xml:space="preserve" text-anchor="start" x="396.38" y="-340.5" font-family="Arial" font-weight="bold" font-size="10.00">(+)</text>
<text xml:space="preserve" text-anchor="start" x="408.38" y="-340.5" font-family="Arial" font-size="10.00"> increases complexity</text>
<text xml:space="preserve" text-anchor="start" x="509.62" y="-340.5" font-family="Arial" font-weight="bold" font-size="10.00">(−)</text>
<text xml:space="preserve" text-anchor="start" x="521.62" y="-340.5" font-family="Arial" font-size="10.00"> decreases complexity</text>
<!-- unknown.glyph -->
<g id="node1" class="node">
<title>unknown.glyph</title>
<path fill="#b8e6b8" stroke="#2c3e50" stroke-width="1.8" d="M336,-133C336,-133 306,-133 306,-133 300,-133 294,-127 294,-121 294,-121 294,-109 294,-109 294,-103 300,-97 306,-97 306,-97 336,-97 336,-97 342,-97 348,-103 348,-109 348,-109 348,-121 348,-121 348,-127 342,-133 336,-133"/>
<text xml:space="preserve" text-anchor="middle" x="321" y="-111.5" font-family="Arial" font-size="10.00" fill="#1a1a1a">glyph</text>
</g>
<!-- attr_0 -->
<g id="node6" class="node">
<title>attr_0</title>
<path fill="#c7b8e6" stroke="#7f8c8d" stroke-width="1.2" d="M512.75,-231C512.75,-231 403,-231 403,-231 397,-231 391,-225 391,-219 391,-219 391,-207 391,-207 391,-201 397,-195 403,-195 403,-195 512.75,-195 512.75,-195 518.75,-195 524.75,-201 524.75,-207 524.75,-207 524.75,-219 524.75,-219 524.75,-225 518.75,-231 512.75,-231"/>
<text xml:space="preserve" text-anchor="middle" x="457.88" y="-209.5" font-family="Arial" font-size="10.00" fill="#1a1a1a">(+) abstract unfamiliar form</text>
</g>
<!-- unknown.glyph&#45;&gt;attr_0 -->
<g id="edge1" class="edge">
<title>unknown.glyph&#45;&gt;attr_0</title>
<path fill="none" stroke="#aaaaaa" d="M338.54,-133.72C351.75,-147.92 371.27,-167.28 391,-181 395.88,-184.39 401.17,-187.62 406.57,-190.61"/>
<polygon fill="#aaaaaa" stroke="#aaaaaa" points="405.29,-192.71 412.62,-193.85 407.6,-188.39 405.29,-192.71"/>
</g>
<!-- attr_5 -->
<g id="node7" class="node">
<title>attr_5</title>
<path fill="#c7b8e6" stroke="#7f8c8d" stroke-width="1.2" d="M510.5,-166C510.5,-166 405.25,-166 405.25,-166 399.25,-166 393.25,-160 393.25,-154 393.25,-154 393.25,-142 393.25,-142 393.25,-136 399.25,-130 405.25,-130 405.25,-130 510.5,-130 510.5,-130 516.5,-130 522.5,-136 522.5,-142 522.5,-142 522.5,-154 522.5,-154 522.5,-160 516.5,-166 510.5,-166"/>
<text xml:space="preserve" text-anchor="middle" x="457.88" y="-144.5" font-family="Arial" font-size="10.00" fill="#1a1a1a">(+) non standard encoding</text>
</g>
<!-- unknown.glyph&#45;&gt;attr_5 -->
<g id="edge2" class="edge">
<title>unknown.glyph&#45;&gt;attr_5</title>
<path fill="none" stroke="#aaaaaa" d="M348.65,-121.52C359.2,-124.1 371.89,-127.21 384.81,-130.37"/>
<polygon fill="#aaaaaa" stroke="#aaaaaa" points="384.01,-132.69 391.39,-131.98 385.17,-127.93 384.01,-132.69"/>
</g>
<!-- rel_0 -->
<g id="node12" class="node">
<title>rel_0</title>
<path fill="#f5b8b8" stroke="#d46a6a" stroke-width="1.2" d="M497.38,-101C497.38,-101 418.38,-101 418.38,-101 412.38,-101 406.38,-95 406.38,-89 406.38,-89 406.38,-77 406.38,-77 406.38,-71 412.38,-65 418.38,-65 418.38,-65 497.38,-65 497.38,-65 503.38,-65 509.38,-71 509.38,-77 509.38,-77 509.38,-89 509.38,-89 509.38,-95 503.38,-101 497.38,-101"/>
<text xml:space="preserve" text-anchor="middle" x="457.88" y="-79.5" font-family="Arial" font-size="10.00" fill="#8b0000">lacks clear meaning</text>
</g>
<!-- unknown.glyph&#45;&gt;rel_0 -->
<g id="edge7" class="edge">
<title>unknown.glyph&#45;&gt;rel_0</title>
<path fill="none" stroke="#d46a6a" stroke-width="1.5" d="M348.65,-108.68C362.32,-105.43 379.57,-101.34 396.26,-97.38"/>
<polygon fill="#d46a6a" stroke="#d46a6a" stroke-width="1.5" points="396.64,-100.17 403.78,-95.6 395.35,-94.72 396.64,-100.17"/>
</g>
<!-- rel_3 -->
<g id="node15" class="node">
<title>rel_3</title>
<path fill="#f5b8b8" stroke="#d46a6a" stroke-width="1.2" d="M499.62,-36C499.62,-36 416.12,-36 416.12,-36 410.12,-36 404.12,-30 404.12,-24 404.12,-24 404.12,-12 404.12,-12 404.12,-6 410.12,0 416.12,0 416.12,0 499.62,0 499.62,0 505.62,0 511.62,-6 511.62,-12 511.62,-12 511.62,-24 511.62,-24 511.62,-30 505.62,-36 499.62,-36"/>
<text xml:space="preserve" text-anchor="middle" x="457.88" y="-14.5" font-family="Arial" font-size="10.00" fill="#8b0000">requires expertise for</text>
</g>
<!-- unknown.glyph&#45;&gt;rel_3 -->
<g id="edge13" class="edge">
<title>unknown.glyph&#45;&gt;rel_3</title>
<path fill="none" stroke="#d46a6a" stroke-width="1.5" d="M338.86,-96.29C352.1,-82.34 371.49,-63.46 391,-50 395.45,-46.93 400.23,-44 405.13,-41.24"/>
<polygon fill="#d46a6a" stroke="#d46a6a" stroke-width="1.5" points="406.27,-43.81 411.99,-37.56 403.62,-38.88 406.27,-43.81"/>
</g>
<!-- unknown.lines -->
<g id="node2" class="node">
<title>unknown.lines</title>
<path fill="#b8e6b8" stroke="#2c3e50" stroke-width="1.8" d="M42,-100C42,-100 12,-100 12,-100 6,-100 0,-94 0,-88 0,-88 0,-76 0,-76 0,-70 6,-64 12,-64 12,-64 42,-64 42,-64 48,-64 54,-70 54,-76 54,-76 54,-88 54,-88 54,-94 48,-100 42,-100"/>
<text xml:space="preserve" text-anchor="middle" x="27" y="-78.5" font-family="Arial" font-size="10.00" fill="#1a1a1a">lines</text>
</g>
<!-- attr_1 -->
<g id="node8" class="node">
<title>attr_1</title>
<path fill="#c7b8e6" stroke="#7f8c8d" stroke-width="1.2" d="M211.25,-133C211.25,-133 136.75,-133 136.75,-133 130.75,-133 124.75,-127 124.75,-121 124.75,-121 124.75,-109 124.75,-109 124.75,-103 130.75,-97 136.75,-97 136.75,-97 211.25,-97 211.25,-97 217.25,-97 223.25,-103 223.25,-109 223.25,-109 223.25,-121 223.25,-121 223.25,-127 217.25,-133 211.25,-133"/>
<text xml:space="preserve" text-anchor="middle" x="174" y="-111.5" font-family="Arial" font-size="10.00" fill="#1a1a1a">(−) few joined lines</text>
</g>
<!-- unknown.lines&#45;&gt;attr_1 -->
<g id="edge3" class="edge">
<title>unknown.lines&#45;&gt;attr_1</title>
<path fill="none" stroke="#aaaaaa" d="M54.6,-88.05C71.85,-91.98 95,-97.25 116.25,-102.08"/>
<polygon fill="#aaaaaa" stroke="#aaaaaa" points="115.44,-104.41 122.81,-103.58 116.52,-99.63 115.44,-104.41"/>
</g>
<!-- rel_2 -->
<g id="node14" class="node">
<title>rel_2</title>
<path fill="#f5b8b8" stroke="#d46a6a" stroke-width="1.2" d="M194,-68C194,-68 154,-68 154,-68 148,-68 142,-62 142,-56 142,-56 142,-44 142,-44 142,-38 148,-32 154,-32 154,-32 194,-32 194,-32 200,-32 206,-38 206,-44 206,-44 206,-56 206,-56 206,-62 200,-68 194,-68"/>
<text xml:space="preserve" text-anchor="middle" x="174" y="-46.5" font-family="Arial" font-size="10.00" fill="#8b0000">constitutes</text>
</g>
<!-- unknown.lines&#45;&gt;rel_2 -->
<g id="edge11" class="edge">
<title>unknown.lines&#45;&gt;rel_2</title>
<path fill="none" stroke="#d46a6a" stroke-width="1.5" d="M54.6,-76.13C76.15,-71.37 106.91,-64.59 131.67,-59.12"/>
<polygon fill="#d46a6a" stroke="#d46a6a" stroke-width="1.5" points="132.1,-61.89 139.31,-57.44 130.89,-56.43 132.1,-61.89"/>
</g>
<!-- text.label -->
<g id="node3" class="node">
<title>text.label</title>
<path fill="#b8e6b8" stroke="#2c3e50" stroke-width="1.8" d="M42,-230C42,-230 12,-230 12,-230 6,-230 0,-224 0,-218 0,-218 0,-206 0,-206 0,-200 6,-194 12,-194 12,-194 42,-194 42,-194 48,-194 54,-200 54,-206 54,-206 54,-218 54,-218 54,-224 48,-230 42,-230"/>
<text xml:space="preserve" text-anchor="middle" x="27" y="-208.5" font-family="Arial" font-size="10.00" fill="#1a1a1a">label</text>
</g>
<!-- attr_2 -->
<g id="node9" class="node">
<title>attr_2</title>
<path fill="#c7b8e6" stroke="#7f8c8d" stroke-width="1.2" d="M239,-263C239,-263 109,-263 109,-263 103,-263 97,-257 97,-251 97,-251 97,-239 97,-239 97,-233 103,-227 109,-227 109,-227 239,-227 239,-227 245,-227 251,-233 251,-239 251,-239 251,-251 251,-251 251,-257 245,-263 239,-263"/>
<text xml:space="preserve" text-anchor="middle" x="174" y="-241.5" font-family="Arial" font-size="10.00" fill="#1a1a1a">(+) insufficient contextual labels</text>
</g>
<!-- text.label&#45;&gt;attr_2 -->
<g id="edge4" class="edge">
<title>text.label&#45;&gt;attr_2</title>
<path fill="none" stroke="#aaaaaa" d="M54.6,-218.05C64.45,-220.3 76.24,-222.98 88.49,-225.77"/>
<polygon fill="#aaaaaa" stroke="#aaaaaa" points="87.75,-228.11 95.12,-227.28 88.84,-223.33 87.75,-228.11"/>
</g>
<!-- rel_1 -->
<g id="node13" class="node">
<title>rel_1</title>
<path fill="#f5b8b8" stroke="#d46a6a" stroke-width="1.2" d="M199.25,-198C199.25,-198 148.75,-198 148.75,-198 142.75,-198 136.75,-192 136.75,-186 136.75,-186 136.75,-174 136.75,-174 136.75,-168 142.75,-162 148.75,-162 148.75,-162 199.25,-162 199.25,-162 205.25,-162 211.25,-168 211.25,-174 211.25,-174 211.25,-186 211.25,-186 211.25,-192 205.25,-198 199.25,-198"/>
<text xml:space="preserve" text-anchor="middle" x="174" y="-176.5" font-family="Arial" font-size="10.00" fill="#8b0000">fails to clarify</text>
</g>
<!-- text.label&#45;&gt;rel_1 -->
<g id="edge9" class="edge">
<title>text.label&#45;&gt;rel_1</title>
<path fill="none" stroke="#d46a6a" stroke-width="1.5" d="M54.6,-206.13C74.63,-201.71 102.6,-195.54 126.33,-190.3"/>
<polygon fill="#d46a6a" stroke="#d46a6a" stroke-width="1.5" points="126.77,-193.07 133.98,-188.61 125.57,-187.6 126.77,-193.07"/>
</g>
<!-- furniture.legend -->
<g id="node4" class="node">
<title>furniture.legend</title>
<path fill="#b8e6b8" stroke="#2c3e50" stroke-width="1.8" d="M42,-328C42,-328 12,-328 12,-328 6,-328 0,-322 0,-316 0,-316 0,-304 0,-304 0,-298 6,-292 12,-292 12,-292 42,-292 42,-292 48,-292 54,-298 54,-304 54,-304 54,-316 54,-316 54,-322 48,-328 42,-328"/>
<text xml:space="preserve" text-anchor="middle" x="27" y="-306.5" font-family="Arial" font-size="10.00" fill="#1a1a1a">legend</text>
</g>
<!-- attr_3 -->
<g id="node10" class="node">
<title>attr_3</title>
<path fill="#c7b8e6" stroke="#7f8c8d" stroke-width="1.2" d="M233,-328C233,-328 115,-328 115,-328 109,-328 103,-322 103,-316 103,-316 103,-304 103,-304 103,-298 109,-292 115,-292 115,-292 233,-292 233,-292 239,-292 245,-298 245,-304 245,-304 245,-316 245,-316 245,-322 239,-328 233,-328"/>
<text xml:space="preserve" text-anchor="middle" x="174" y="-306.5" font-family="Arial" font-size="10.00" fill="#1a1a1a">(+) missing or unclear legend</text>
</g>
<!-- furniture.legend&#45;&gt;attr_3 -->
<g id="edge5" class="edge">
<title>furniture.legend&#45;&gt;attr_3</title>
<path fill="none" stroke="#aaaaaa" d="M54.6,-310C65.94,-310 79.83,-310 94.06,-310"/>
<polygon fill="#aaaaaa" stroke="#aaaaaa" points="93.94,-312.45 100.94,-310 93.94,-307.55 93.94,-312.45"/>
</g>
<!-- unknown.overall_visualization -->
<g id="node5" class="node">
<title>unknown.overall_visualization</title>
<path fill="#b8e6b8" stroke="#2c3e50" stroke-width="1.8" d="M657.25,-68C657.25,-68 579.75,-68 579.75,-68 573.75,-68 567.75,-62 567.75,-56 567.75,-56 567.75,-44 567.75,-44 567.75,-38 573.75,-32 579.75,-32 579.75,-32 657.25,-32 657.25,-32 663.25,-32 669.25,-38 669.25,-44 669.25,-44 669.25,-56 669.25,-56 669.25,-62 663.25,-68 657.25,-68"/>
<text xml:space="preserve" text-anchor="middle" x="618.5" y="-46.5" font-family="Arial" font-size="10.00" fill="#1a1a1a">overall visualization</text>
</g>
<!-- attr_4 -->
<g id="node11" class="node">
<title>attr_4</title>
<path fill="#c7b8e6" stroke="#7f8c8d" stroke-width="1.2" d="M801,-68C801,-68 724.25,-68 724.25,-68 718.25,-68 712.25,-62 712.25,-56 712.25,-56 712.25,-44 712.25,-44 712.25,-38 718.25,-32 724.25,-32 724.25,-32 801,-32 801,-32 807,-32 813,-38 813,-44 813,-44 813,-56 813,-56 813,-62 807,-68 801,-68"/>
<text xml:space="preserve" text-anchor="middle" x="762.62" y="-46.5" font-family="Arial" font-size="10.00" fill="#1a1a1a">(+) not interpretable</text>
</g>
<!-- unknown.overall_visualization&#45;&gt;attr_4 -->
<g id="edge6" class="edge">
<title>unknown.overall_visualization&#45;&gt;attr_4</title>
<path fill="none" stroke="#aaaaaa" d="M670.01,-50C680.82,-50 692.32,-50 703.39,-50"/>
<polygon fill="#aaaaaa" stroke="#aaaaaa" points="703.24,-52.45 710.24,-50 703.24,-47.55 703.24,-52.45"/>
</g>
<!-- rel_0&#45;&gt;unknown.overall_visualization -->
<g id="edge8" class="edge">
<title>rel_0&#45;&gt;unknown.overall_visualization</title>
<path fill="none" stroke="#d46a6a" stroke-width="1.5" d="M509.94,-72.38C524.95,-69.25 541.51,-65.81 557.04,-62.58"/>
<polygon fill="#d46a6a" stroke="#d46a6a" stroke-width="1.5" points="557.59,-65.32 564.85,-60.95 556.45,-59.84 557.59,-65.32"/>
</g>
<!-- rel_1&#45;&gt;unknown.glyph -->
<g id="edge10" class="edge">
<title>rel_1&#45;&gt;unknown.glyph</title>
<path fill="none" stroke="#d46a6a" stroke-width="1.5" d="M211.8,-164.24C224.28,-158.84 238.27,-152.71 251,-147 261.81,-142.15 273.52,-136.77 284.16,-131.82"/>
<polygon fill="#d46a6a" stroke="#d46a6a" stroke-width="1.5" points="285.07,-134.49 291.14,-128.57 282.71,-129.41 285.07,-134.49"/>
</g>
<!-- rel_2&#45;&gt;unknown.glyph -->
<g id="edge12" class="edge">
<title>rel_2&#45;&gt;unknown.glyph</title>
<path fill="none" stroke="#d46a6a" stroke-width="1.5" d="M206.58,-62.9C220.29,-68.61 236.51,-75.49 251,-82 261.87,-86.88 273.59,-92.4 284.24,-97.5"/>
<polygon fill="#d46a6a" stroke="#d46a6a" stroke-width="1.5" points="282.8,-99.91 291.22,-100.87 285.23,-94.87 282.8,-99.91"/>
</g>
<!-- rel_3&#45;&gt;unknown.overall_visualization -->
<g id="edge14" class="edge">
<title>rel_3&#45;&gt;unknown.overall_visualization</title>
<path fill="none" stroke="#d46a6a" stroke-width="1.5" d="M512.14,-28.74C526.54,-31.65 542.24,-34.82 557.01,-37.8"/>
<polygon fill="#d46a6a" stroke="#d46a6a" stroke-width="1.5" points="556.44,-40.54 564.84,-39.38 557.55,-35.05 556.44,-40.54"/>
</g>
</g>
</svg>
