<?xml version="1.0" encoding="UTF-8" standalone="no"?>
<!DOCTYPE svg PUBLIC "-//W3C//DTD SVG 1.1//EN"
 "http://www.w3.org/Graphics/SVG/1.1/DTD/svg11.dtd">
<!-- Generated by graphviz version 14.1.5 (20260411.2331)
 -->
<!-- Title: InfoVisC.65.6(2).png Pages: 1 -->
<svg width="908pt" height="342pt"
 viewBox="0.00 0.00 908.00 342.00" xmlns="http://www.w3.org/2000/svg" xmlns:xlink="http://www.w3.org/1999/xlink">
<g id="graph0" class="graph" transform="scale(1 1) rotate(0) translate(4 338.25)">
<title>InfoVisC.65.6(2).png</title>
<polygon fill="white" stroke="none" points="-4,4 -4,-338.25 904.25,-338.25 904.25,4 -4,4"/>
<text xml:space="preserve" text-anchor="start" x="385.25" y="-313.95" font-family="Arial" font-weight="bold" font-size="14.00">InfoVisC.65.6(2).png</text>
<text xml:space="preserve" text-anchor="start" x="395" y="-294" font-family="Arial" font-size="11.00">Node&#45;link &#160;| &#160;VC = 0.89</text>
<path fill="#b8e6b8" stroke="none" d="M240.75,-269C240.75,-269 248.75,-269 248.75,-269 251.75,-269 254.75,-272 254.75,-275 254.75,-275 254.75,-281 254.75,-281 254.75,-284 251.75,-287 248.75,-287 248.75,-287 240.75,-287 240.75,-287 237.75,-287 234.75,-284 234.75,-281 234.75,-281 234.75,-275 234.75,-275 234.75,-272 237.75,-269 240.75,-269"/>
<path fill="none" stroke="black" d="M240.75,-269C240.75,-269 248.75,-269 248.75,-269 251.75,-269 254.75,-272 254.75,-275 254.75,-275 254.75,-281 254.75,-281 254.75,-284 251.75,-287 248.75,-287 248.75,-287 240.75,-287 240.75,-287 237.75,-287 234.75,-284 234.75,-281 234.75,-281 234.75,-275 234.75,-275 234.75,-272 237.75,-269 240.75,-269"/>
<text xml:space="preserve" text-anchor="start" x="243.25" y="-274.25" font-family="Arial" font-size="10.00"> </text>
<text xml:space="preserve" text-anchor="start" x="258.75" y="-274.25" font-family="Arial" font-size="10.00">Object</text>
<path fill="#c7b8e6" stroke="none" d="M297.25,-269C297.25,-269 305.25,-269 305.25,-269 308.25,-269 311.25,-272 311.25,-275 311.25,-275 311.25,-281 311.25,-281 311.25,-284 308.25,-287 305.25,-287 305.25,-287 297.25,-287 297.25,-287 294.25,-287 291.25,-284 291.25,-281 291.25,-281 291.25,-275 291.25,-275 291.25,-272 294.25,-269 297.25,-269"/>
<path fill="none" stroke="black" d="M297.25,-269C297.25,-269 305.25,-269 305.25,-269 308.25,-269 311.25,-272 311.25,-275 311.25,-275 311.25,-281 311.25,-281 311.25,-284 308.25,-287 305.25,-287 305.25,-287 297.25,-287 297.25,-287 294.25,-287 291.25,-284 291.25,-281 291.25,-281 291.25,-275 291.25,-275 291.25,-272 294.25,-269 297.25,-269"/>
<text xml:space="preserve" text-anchor="start" x="299.75" y="-274.25" font-family="Arial" font-size="10.00"> </text>
<text xml:space="preserve" text-anchor="start" x="315.25" y="-274.25" font-family="Arial" font-size="10.00">Attribute</text>
<path fill="#f5b8b8" stroke="none" d="M362,-269C362,-269 370,-269 370,-269 373,-269 376,-272 376,-275 376,-275 376,-281 376,-281 376,-284 373,-287 370,-287 370,-287 362,-287 362,-287 359,-287 356,-284 356,-281 356,-281 356,-275 356,-275 356,-272 359,-269 362,-269"/>
<path fill="none" stroke="black" d="M362,-269C362,-269 370,-269 370,-269 373,-269 376,-272 376,-275 376,-275 376,-281 376,-281 376,-284 373,-287 370,-287 370,-287 362,-287 362,-287 359,-287 356,-284 356,-281 356,-281 356,-275 356,-275 356,-272 359,-269 362,-269"/>
<text xml:space="preserve" text-anchor="start" x="364.5" y="-274.25" font-family="Arial" font-size="10.00"> </text>
<text xml:space="preserve" text-anchor="start" x="380" y="-274.25" font-family="Arial" font-size="10.00">Relationship</text>
<text xml:space="preserve" text-anchor="start" x="440" y="-275.5" font-family="Arial" font-weight="bold" font-size="10.00">(+)</text>
<text xml:space="preserve" text-anchor="start" x="452" y="-275.5" font-family="Arial" font-size="10.00"> increases complexity</text>
<text xml:space="preserve" text-anchor="start" x="553.25" y="-275.5" font-family="Arial" font-weight="bold" font-size="10.00">(−)</text>
<text xml:space="preserve" text-anchor="start" x="565.25" y="-275.5" font-family="Arial" font-size="10.00"> decreases complexity</text>
<!-- unknown.network_graph -->
<g id="node1" class="node">
<title>unknown.network_graph</title>
<path fill="#b8e6b8" stroke="#2c3e50" stroke-width="1.8" d="M701,-101C701,-101 647.5,-101 647.5,-101 641.5,-101 635.5,-95 635.5,-89 635.5,-89 635.5,-77 635.5,-77 635.5,-71 641.5,-65 647.5,-65 647.5,-65 701,-65 701,-65 707,-65 713,-71 713,-77 713,-77 713,-89 713,-89 713,-95 707,-101 701,-101"/>
<text xml:space="preserve" text-anchor="middle" x="674.25" y="-79.5" font-family="Arial" font-size="10.00" fill="#1a1a1a">network graph</text>
</g>
<!-- attr_0 -->
<g id="node6" class="node">
<title>attr_0</title>
<path fill="#c7b8e6" stroke="#7f8c8d" stroke-width="1.2" d="M888.25,-101C888.25,-101 768,-101 768,-101 762,-101 756,-95 756,-89 756,-89 756,-77 756,-77 756,-71 762,-65 768,-65 768,-65 888.25,-65 888.25,-65 894.25,-65 900.25,-71 900.25,-77 900.25,-77 900.25,-89 900.25,-89 900.25,-95 894.25,-101 888.25,-101"/>
<text xml:space="preserve" text-anchor="middle" x="828.12" y="-79.5" font-family="Arial" font-size="10.00" fill="#1a1a1a">(+) high perceived complexity</text>
</g>
<!-- unknown.network_graph&#45;&gt;attr_0 -->
<g id="edge1" class="edge">
<title>unknown.network_graph&#45;&gt;attr_0</title>
<path fill="none" stroke="#aaaaaa" d="M713.57,-83C724,-83 735.69,-83 747.5,-83"/>
<polygon fill="#aaaaaa" stroke="#aaaaaa" points="747.16,-85.45 754.16,-83 747.16,-80.55 747.16,-85.45"/>
</g>
<!-- unknown.nodes -->
<g id="node2" class="node">
<title>unknown.nodes</title>
<path fill="#b8e6b8" stroke="#2c3e50" stroke-width="1.8" d="M42,-230C42,-230 12,-230 12,-230 6,-230 0,-224 0,-218 0,-218 0,-206 0,-206 0,-200 6,-194 12,-194 12,-194 42,-194 42,-194 48,-194 54,-200 54,-206 54,-206 54,-218 54,-218 54,-224 48,-230 42,-230"/>
<text xml:space="preserve" text-anchor="middle" x="27" y="-208.5" font-family="Arial" font-size="10.00" fill="#1a1a1a">nodes</text>
</g>
<!-- attr_1 -->
<g id="node7" class="node">
<title>attr_1</title>
<path fill="#c7b8e6" stroke="#7f8c8d" stroke-width="1.2" d="M238.25,-263C238.25,-263 121.75,-263 121.75,-263 115.75,-263 109.75,-257 109.75,-251 109.75,-251 109.75,-239 109.75,-239 109.75,-233 115.75,-227 121.75,-227 121.75,-227 238.25,-227 238.25,-227 244.25,-227 250.25,-233 250.25,-239 250.25,-239 250.25,-251 250.25,-251 250.25,-257 244.25,-263 238.25,-263"/>
<text xml:space="preserve" text-anchor="middle" x="180" y="-241.5" font-family="Arial" font-size="10.00" fill="#1a1a1a">(+) numerous discrete nodes</text>
</g>
<!-- unknown.nodes&#45;&gt;attr_1 -->
<g id="edge2" class="edge">
<title>unknown.nodes&#45;&gt;attr_1</title>
<path fill="none" stroke="#aaaaaa" d="M54.65,-217.82C67.74,-220.69 84.28,-224.3 100.98,-227.95"/>
<polygon fill="#aaaaaa" stroke="#aaaaaa" points="100.33,-230.32 107.69,-229.42 101.38,-225.53 100.33,-230.32"/>
</g>
<!-- rel_2 -->
<g id="node13" class="node">
<title>rel_2</title>
<path fill="#f5b8b8" stroke="#d46a6a" stroke-width="1.2" d="M205.25,-198C205.25,-198 154.75,-198 154.75,-198 148.75,-198 142.75,-192 142.75,-186 142.75,-186 142.75,-174 142.75,-174 142.75,-168 148.75,-162 154.75,-162 154.75,-162 205.25,-162 205.25,-162 211.25,-162 217.25,-168 217.25,-174 217.25,-174 217.25,-186 217.25,-186 217.25,-192 211.25,-198 205.25,-198"/>
<text xml:space="preserve" text-anchor="middle" x="180" y="-176.5" font-family="Arial" font-size="10.00" fill="#8b0000">interacts with</text>
</g>
<!-- unknown.nodes&#45;&gt;rel_2 -->
<g id="edge10" class="edge">
<title>unknown.nodes&#45;&gt;rel_2</title>
<path fill="none" stroke="#d46a6a" stroke-width="1.5" d="M54.65,-206.35C76.17,-201.79 106.99,-195.26 132.55,-189.84"/>
<polygon fill="#d46a6a" stroke="#d46a6a" stroke-width="1.5" points="132.96,-192.62 140.2,-188.22 131.8,-187.14 132.96,-192.62"/>
</g>
<!-- unknown.edges -->
<g id="node3" class="node">
<title>unknown.edges</title>
<path fill="#b8e6b8" stroke="#2c3e50" stroke-width="1.8" d="M365,-198C365,-198 335,-198 335,-198 329,-198 323,-192 323,-186 323,-186 323,-174 323,-174 323,-168 329,-162 335,-162 335,-162 365,-162 365,-162 371,-162 377,-168 377,-174 377,-174 377,-186 377,-186 377,-192 371,-198 365,-198"/>
<text xml:space="preserve" text-anchor="middle" x="350" y="-176.5" font-family="Arial" font-size="10.00" fill="#1a1a1a">edges</text>
</g>
<!-- attr_2 -->
<g id="node8" class="node">
<title>attr_2</title>
<path fill="#c7b8e6" stroke="#7f8c8d" stroke-width="1.2" d="M564.75,-231C564.75,-231 464.75,-231 464.75,-231 458.75,-231 452.75,-225 452.75,-219 452.75,-219 452.75,-207 452.75,-207 452.75,-201 458.75,-195 464.75,-195 464.75,-195 564.75,-195 564.75,-195 570.75,-195 576.75,-201 576.75,-207 576.75,-207 576.75,-219 576.75,-219 576.75,-225 570.75,-231 564.75,-231"/>
<text xml:space="preserve" text-anchor="middle" x="514.75" y="-209.5" font-family="Arial" font-size="10.00" fill="#1a1a1a">(+) many crossing edges</text>
</g>
<!-- unknown.edges&#45;&gt;attr_2 -->
<g id="edge3" class="edge">
<title>unknown.edges&#45;&gt;attr_2</title>
<path fill="none" stroke="#aaaaaa" d="M377.87,-185.45C395.97,-189.12 420.71,-194.13 444.12,-198.88"/>
<polygon fill="#aaaaaa" stroke="#aaaaaa" points="443.51,-201.26 450.85,-200.25 444.48,-196.45 443.51,-201.26"/>
</g>
<!-- rel_0 -->
<g id="node11" class="node">
<title>rel_0</title>
<path fill="#f5b8b8" stroke="#d46a6a" stroke-width="1.2" d="M537,-166C537,-166 492.5,-166 492.5,-166 486.5,-166 480.5,-160 480.5,-154 480.5,-154 480.5,-142 480.5,-142 480.5,-136 486.5,-130 492.5,-130 492.5,-130 537,-130 537,-130 543,-130 549,-136 549,-142 549,-142 549,-154 549,-154 549,-160 543,-166 537,-166"/>
<text xml:space="preserve" text-anchor="middle" x="514.75" y="-144.5" font-family="Arial" font-size="10.00" fill="#8b0000">overwhelms</text>
</g>
<!-- unknown.edges&#45;&gt;rel_0 -->
<g id="edge6" class="edge">
<title>unknown.edges&#45;&gt;rel_0</title>
<path fill="none" stroke="#d46a6a" stroke-width="1.5" d="M377.87,-174.72C402.91,-169.79 440.69,-162.37 470.06,-156.59"/>
<polygon fill="#d46a6a" stroke="#d46a6a" stroke-width="1.5" points="470.52,-159.35 477.83,-155.06 469.44,-153.86 470.52,-159.35"/>
</g>
<!-- unknown.data_interactions -->
<g id="node4" class="node">
<title>unknown.data_interactions</title>
<path fill="#b8e6b8" stroke="#2c3e50" stroke-width="1.8" d="M382,-52C382,-52 318,-52 318,-52 312,-52 306,-46 306,-40 306,-40 306,-28 306,-28 306,-22 312,-16 318,-16 318,-16 382,-16 382,-16 388,-16 394,-22 394,-28 394,-28 394,-40 394,-40 394,-46 388,-52 382,-52"/>
<text xml:space="preserve" text-anchor="middle" x="350" y="-30.5" font-family="Arial" font-size="10.00" fill="#1a1a1a">data interactions</text>
</g>
<!-- attr_3 -->
<g id="node9" class="node">
<title>attr_3</title>
<path fill="#c7b8e6" stroke="#7f8c8d" stroke-width="1.2" d="M580.5,-101C580.5,-101 449,-101 449,-101 443,-101 437,-95 437,-89 437,-89 437,-77 437,-77 437,-71 443,-65 449,-65 449,-65 580.5,-65 580.5,-65 586.5,-65 592.5,-71 592.5,-77 592.5,-77 592.5,-89 592.5,-89 592.5,-95 586.5,-101 580.5,-101"/>
<text xml:space="preserve" text-anchor="middle" x="514.75" y="-79.5" font-family="Arial" font-size="10.00" fill="#1a1a1a">(+) multiple interacting elements</text>
</g>
<!-- unknown.data_interactions&#45;&gt;attr_3 -->
<g id="edge4" class="edge">
<title>unknown.data_interactions&#45;&gt;attr_3</title>
<path fill="none" stroke="#aaaaaa" d="M394.61,-47.13C409.96,-51.75 427.62,-57.07 444.55,-62.17"/>
<polygon fill="#aaaaaa" stroke="#aaaaaa" points="443.41,-64.38 450.82,-64.05 444.83,-59.69 443.41,-64.38"/>
</g>
<!-- rel_1 -->
<g id="node12" class="node">
<title>rel_1</title>
<path fill="#f5b8b8" stroke="#d46a6a" stroke-width="1.2" d="M569.25,-36C569.25,-36 460.25,-36 460.25,-36 454.25,-36 448.25,-30 448.25,-24 448.25,-24 448.25,-12 448.25,-12 448.25,-6 454.25,0 460.25,0 460.25,0 569.25,0 569.25,0 575.25,0 581.25,-6 581.25,-12 581.25,-12 581.25,-24 581.25,-24 581.25,-30 575.25,-36 569.25,-36"/>
<text xml:space="preserve" text-anchor="middle" x="514.75" y="-14.5" font-family="Arial" font-size="10.00" fill="#8b0000">increases processing effort</text>
</g>
<!-- unknown.data_interactions&#45;&gt;rel_1 -->
<g id="edge8" class="edge">
<title>unknown.data_interactions&#45;&gt;rel_1</title>
<path fill="none" stroke="#d46a6a" stroke-width="1.5" d="M394.61,-29.71C407.85,-28.41 422.8,-26.94 437.52,-25.49"/>
<polygon fill="#d46a6a" stroke="#d46a6a" stroke-width="1.5" points="437.7,-28.29 445.39,-24.72 437.16,-22.72 437.7,-28.29"/>
</g>
<!-- structure.layout -->
<g id="node5" class="node">
<title>structure.layout</title>
<path fill="#b8e6b8" stroke="#2c3e50" stroke-width="1.8" d="M42,-85C42,-85 12,-85 12,-85 6,-85 0,-79 0,-73 0,-73 0,-61 0,-61 0,-55 6,-49 12,-49 12,-49 42,-49 42,-49 48,-49 54,-55 54,-61 54,-61 54,-73 54,-73 54,-79 48,-85 42,-85"/>
<text xml:space="preserve" text-anchor="middle" x="27" y="-63.5" font-family="Arial" font-size="10.00" fill="#1a1a1a">layout</text>
</g>
<!-- attr_4 -->
<g id="node10" class="node">
<title>attr_4</title>
<path fill="#c7b8e6" stroke="#7f8c8d" stroke-width="1.2" d="M251,-117C251,-117 109,-117 109,-117 103,-117 97,-111 97,-105 97,-105 97,-93 97,-93 97,-87 103,-81 109,-81 109,-81 251,-81 251,-81 257,-81 263,-87 263,-93 263,-93 263,-105 263,-105 263,-111 257,-117 251,-117"/>
<text xml:space="preserve" text-anchor="middle" x="180" y="-95.5" font-family="Arial" font-size="10.00" fill="#1a1a1a">(+) disorganized spatial arrangeme</text>
</g>
<!-- structure.layout&#45;&gt;attr_4 -->
<g id="edge5" class="edge">
<title>structure.layout&#45;&gt;attr_4</title>
<path fill="none" stroke="#aaaaaa" d="M54.65,-72.65C64.44,-74.72 76.16,-77.21 88.42,-79.8"/>
<polygon fill="#aaaaaa" stroke="#aaaaaa" points="87.71,-82.16 95.07,-81.21 88.73,-77.37 87.71,-82.16"/>
</g>
<!-- rel_3 -->
<g id="node14" class="node">
<title>rel_3</title>
<path fill="#f5b8b8" stroke="#d46a6a" stroke-width="1.2" d="M227,-52C227,-52 133,-52 133,-52 127,-52 121,-46 121,-40 121,-40 121,-28 121,-28 121,-22 127,-16 133,-16 133,-16 227,-16 227,-16 233,-16 239,-22 239,-28 239,-28 239,-40 239,-40 239,-46 233,-52 227,-52"/>
<text xml:space="preserve" text-anchor="middle" x="180" y="-30.5" font-family="Arial" font-size="10.00" fill="#8b0000">hinders interpretation of</text>
</g>
<!-- structure.layout&#45;&gt;rel_3 -->
<g id="edge12" class="edge">
<title>structure.layout&#45;&gt;rel_3</title>
<path fill="none" stroke="#d46a6a" stroke-width="1.5" d="M54.65,-61.18C70.29,-57.76 90.84,-53.27 110.72,-48.92"/>
<polygon fill="#d46a6a" stroke="#d46a6a" stroke-width="1.5" points="111.27,-51.67 118.49,-47.22 110.08,-46.2 111.27,-51.67"/>
</g>
<!-- rel_0&#45;&gt;unknown.network_graph -->
<g id="edge7" class="edge">
<title>rel_0&#45;&gt;unknown.network_graph</title>
<path fill="none" stroke="#d46a6a" stroke-width="1.5" d="M549.54,-134.06C571.64,-124.93 600.85,-112.88 625.34,-102.77"/>
<polygon fill="#d46a6a" stroke="#d46a6a" stroke-width="1.5" points="626.39,-105.37 632.71,-99.73 624.25,-100.19 626.39,-105.37"/>
</g>
<!-- rel_1&#45;&gt;unknown.network_graph -->
<g id="edge9" class="edge">
<title>rel_1&#45;&gt;unknown.network_graph</title>
<path fill="none" stroke="#d46a6a" stroke-width="1.5" d="M560.46,-36.45C580.81,-44.85 604.91,-54.8 625.6,-63.34"/>
<polygon fill="#d46a6a" stroke="#d46a6a" stroke-width="1.5" points="624.28,-65.82 632.74,-66.28 626.42,-60.64 624.28,-65.82"/>
</g>
<!-- rel_2&#45;&gt;unknown.edges -->
<g id="edge11" class="edge">
<title>rel_2&#45;&gt;unknown.edges</title>
<path fill="none" stroke="#d46a6a" stroke-width="1.5" d="M217.45,-180C245.44,-180 283.91,-180 312.02,-180"/>
<polygon fill="#d46a6a" stroke="#d46a6a" stroke-width="1.5" points="311.98,-182.8 319.98,-180 311.98,-177.2 311.98,-182.8"/>
</g>
<!-- rel_3&#45;&gt;unknown.data_interactions -->
<g id="edge13" class="edge">
<title>rel_3&#45;&gt;unknown.data_interactions</title>
<path fill="none" stroke="#d46a6a" stroke-width="1.5" d="M239.29,-34C257.35,-34 277.17,-34 294.93,-34"/>
<polygon fill="#d46a6a" stroke="#d46a6a" stroke-width="1.5" points="294.85,-36.8 302.85,-34 294.85,-31.2 294.85,-36.8"/>
</g>
</g>
</svg>
