<?xml version="1.0" encoding="UTF-8" standalone="no"?>
<!DOCTYPE svg PUBLIC "-//W3C//DTD SVG 1.1//EN"
 "http://www.w3.org/Graphics/SVG/1.1/DTD/svg11.dtd">
<!-- Generated by graphviz version 14.1.5 (20260411.2331)
 -->
<!-- Title: InfoVisJ.349.1(2).png Pages: 1 -->
<svg width="826pt" height="375pt"
 viewBox="0.00 0.00 826.00 375.00" xmlns="http://www.w3.org/2000/svg" xmlns:xlink="http://www.w3.org/1999/xlink">
<g id="graph0" class="graph" transform="scale(1 1) rotate(0) translate(4 371.25)">
<title>InfoVisJ.349.1(2).png</title>
<polygon fill="white" stroke="none" points="-4,4 -4,-371.25 822.25,-371.25 822.25,4 -4,4"/>
<text xml:space="preserve" text-anchor="start" x="341.62" y="-346.95" font-family="Arial" font-weight="bold" font-size="14.00">InfoVisJ.349.1(2).png</text>
<text xml:space="preserve" text-anchor="start" x="354" y="-327" font-family="Arial" font-size="11.00">Node&#45;link &#160;| &#160;VC = 0.56</text>
<path fill="#b8e6b8" stroke="none" d="M199.75,-302C199.75,-302 207.75,-302 207.75,-302 210.75,-302 213.75,-305 213.75,-308 213.75,-308 213.75,-314 213.75,-314 213.75,-317 210.75,-320 207.75,-320 207.75,-320 199.75,-320 199.75,-320 196.75,-320 193.75,-317 193.75,-314 193.75,-314 193.75,-308 193.75,-308 193.75,-305 196.75,-302 199.75,-302"/>
<path fill="none" stroke="black" d="M199.75,-302C199.75,-302 207.75,-302 207.75,-302 210.75,-302 213.75,-305 213.75,-308 213.75,-308 213.75,-314 213.75,-314 213.75,-317 210.75,-320 207.75,-320 207.75,-320 199.75,-320 199.75,-320 196.75,-320 193.75,-317 193.75,-314 193.75,-314 193.75,-308 193.75,-308 193.75,-305 196.75,-302 199.75,-302"/>
<text xml:space="preserve" text-anchor="start" x="202.25" y="-307.25" font-family="Arial" font-size="10.00"> </text>
<text xml:space="preserve" text-anchor="start" x="217.75" y="-307.25" font-family="Arial" font-size="10.00">Object</text>
<path fill="#c7b8e6" stroke="none" d="M256.25,-302C256.25,-302 264.25,-302 264.25,-302 267.25,-302 270.25,-305 270.25,-308 270.25,-308 270.25,-314 270.25,-314 270.25,-317 267.25,-320 264.25,-320 264.25,-320 256.25,-320 256.25,-320 253.25,-320 250.25,-317 250.25,-314 250.25,-314 250.25,-308 250.25,-308 250.25,-305 253.25,-302 256.25,-302"/>
<path fill="none" stroke="black" d="M256.25,-302C256.25,-302 264.25,-302 264.25,-302 267.25,-302 270.25,-305 270.25,-308 270.25,-308 270.25,-314 270.25,-314 270.25,-317 267.25,-320 264.25,-320 264.25,-320 256.25,-320 256.25,-320 253.25,-320 250.25,-317 250.25,-314 250.25,-314 250.25,-308 250.25,-308 250.25,-305 253.25,-302 256.25,-302"/>
<text xml:space="preserve" text-anchor="start" x="258.75" y="-307.25" font-family="Arial" font-size="10.00"> </text>
<text xml:space="preserve" text-anchor="start" x="274.25" y="-307.25" font-family="Arial" font-size="10.00">Attribute</text>
<path fill="#f5b8b8" stroke="none" d="M321,-302C321,-302 329,-302 329,-302 332,-302 335,-305 335,-308 335,-308 335,-314 335,-314 335,-317 332,-320 329,-320 329,-320 321,-320 321,-320 318,-320 315,-317 315,-314 315,-314 315,-308 315,-308 315,-305 318,-302 321,-302"/>
<path fill="none" stroke="black" d="M321,-302C321,-302 329,-302 329,-302 332,-302 335,-305 335,-308 335,-308 335,-314 335,-314 335,-317 332,-320 329,-320 329,-320 321,-320 321,-320 318,-320 315,-317 315,-314 315,-314 315,-308 315,-308 315,-305 318,-302 321,-302"/>
<text xml:space="preserve" text-anchor="start" x="323.5" y="-307.25" font-family="Arial" font-size="10.00"> </text>
<text xml:space="preserve" text-anchor="start" x="339" y="-307.25" font-family="Arial" font-size="10.00">Relationship</text>
<text xml:space="preserve" text-anchor="start" x="399" y="-308.5" font-family="Arial" font-weight="bold" font-size="10.00">(+)</text>
<text xml:space="preserve" text-anchor="start" x="411" y="-308.5" font-family="Arial" font-size="10.00"> increases complexity</text>
<text xml:space="preserve" text-anchor="start" x="512.25" y="-308.5" font-family="Arial" font-weight="bold" font-size="10.00">(−)</text>
<text xml:space="preserve" text-anchor="start" x="524.25" y="-308.5" font-family="Arial" font-size="10.00"> decreases complexity</text>
<!-- unknown.color_gradient -->
<g id="node1" class="node">
<title>unknown.color_gradient</title>
<path fill="#b8e6b8" stroke="#2c3e50" stroke-width="1.8" d="M62.5,-166C62.5,-166 12,-166 12,-166 6,-166 0,-160 0,-154 0,-154 0,-142 0,-142 0,-136 6,-130 12,-130 12,-130 62.5,-130 62.5,-130 68.5,-130 74.5,-136 74.5,-142 74.5,-142 74.5,-154 74.5,-154 74.5,-160 68.5,-166 62.5,-166"/>
<text xml:space="preserve" text-anchor="middle" x="37.25" y="-144.5" font-family="Arial" font-size="10.00" fill="#1a1a1a">color gradient</text>
</g>
<!-- attr_0 -->
<g id="node6" class="node">
<title>attr_0</title>
<path fill="#c7b8e6" stroke="#7f8c8d" stroke-width="1.2" d="M234.75,-296C234.75,-296 129.5,-296 129.5,-296 123.5,-296 117.5,-290 117.5,-284 117.5,-284 117.5,-272 117.5,-272 117.5,-266 123.5,-260 129.5,-260 129.5,-260 234.75,-260 234.75,-260 240.75,-260 246.75,-266 246.75,-272 246.75,-272 246.75,-284 246.75,-284 246.75,-290 240.75,-296 234.75,-296"/>
<text xml:space="preserve" text-anchor="middle" x="182.12" y="-274.5" font-family="Arial" font-size="10.00" fill="#1a1a1a">(+) black to white gradient</text>
</g>
<!-- unknown.color_gradient&#45;&gt;attr_0 -->
<g id="edge1" class="edge">
<title>unknown.color_gradient&#45;&gt;attr_0</title>
<path fill="none" stroke="#aaaaaa" d="M49.76,-166.6C63.69,-187.94 88.88,-222.93 117.5,-246 121.7,-249.39 126.33,-252.55 131.1,-255.47"/>
<polygon fill="#aaaaaa" stroke="#aaaaaa" points="129.58,-257.42 136.86,-258.81 132.03,-253.18 129.58,-257.42"/>
</g>
<!-- attr_1 -->
<g id="node7" class="node">
<title>attr_1</title>
<path fill="#c7b8e6" stroke="#7f8c8d" stroke-width="1.2" d="M232.88,-231C232.88,-231 131.38,-231 131.38,-231 125.38,-231 119.38,-225 119.38,-219 119.38,-219 119.38,-207 119.38,-207 119.38,-201 125.38,-195 131.38,-195 131.38,-195 232.88,-195 232.88,-195 238.88,-195 244.88,-201 244.88,-207 244.88,-207 244.88,-219 244.88,-219 244.88,-225 238.88,-231 232.88,-231"/>
<text xml:space="preserve" text-anchor="middle" x="182.12" y="-209.5" font-family="Arial" font-size="10.00" fill="#1a1a1a">(+) non intuitive encoding</text>
</g>
<!-- unknown.color_gradient&#45;&gt;attr_1 -->
<g id="edge2" class="edge">
<title>unknown.color_gradient&#45;&gt;attr_1</title>
<path fill="none" stroke="#aaaaaa" d="M75.04,-164.74C92.63,-172.74 113.91,-182.42 132.78,-191.01"/>
<polygon fill="#aaaaaa" stroke="#aaaaaa" points="131.67,-193.19 139.05,-193.86 133.7,-188.73 131.67,-193.19"/>
</g>
<!-- rel_0 -->
<g id="node11" class="node">
<title>rel_0</title>
<path fill="#f5b8b8" stroke="#d46a6a" stroke-width="1.2" d="M224.25,-166C224.25,-166 140,-166 140,-166 134,-166 128,-160 128,-154 128,-154 128,-142 128,-142 128,-136 134,-130 140,-130 140,-130 224.25,-130 224.25,-130 230.25,-130 236.25,-136 236.25,-142 236.25,-142 236.25,-154 236.25,-154 236.25,-160 230.25,-166 224.25,-166"/>
<text xml:space="preserve" text-anchor="middle" x="182.12" y="-144.5" font-family="Arial" font-size="10.00" fill="#8b0000">increases difficulty of</text>
</g>
<!-- unknown.color_gradient&#45;&gt;rel_0 -->
<g id="edge6" class="edge">
<title>unknown.color_gradient&#45;&gt;rel_0</title>
<path fill="none" stroke="#d46a6a" stroke-width="1.5" d="M75.04,-148C88.01,-148 102.98,-148 117.52,-148"/>
<polygon fill="#d46a6a" stroke="#d46a6a" stroke-width="1.5" points="117.21,-150.8 125.21,-148 117.21,-145.2 117.21,-150.8"/>
</g>
<!-- rel_1 -->
<g id="node12" class="node">
<title>rel_1</title>
<path fill="#f5b8b8" stroke="#d46a6a" stroke-width="1.2" d="M219.75,-101C219.75,-101 144.5,-101 144.5,-101 138.5,-101 132.5,-95 132.5,-89 132.5,-89 132.5,-77 132.5,-77 132.5,-71 138.5,-65 144.5,-65 144.5,-65 219.75,-65 219.75,-65 225.75,-65 231.75,-71 231.75,-77 231.75,-77 231.75,-89 231.75,-89 231.75,-95 225.75,-101 219.75,-101"/>
<text xml:space="preserve" text-anchor="middle" x="182.12" y="-79.5" font-family="Arial" font-size="10.00" fill="#8b0000">reduces contrast in</text>
</g>
<!-- unknown.color_gradient&#45;&gt;rel_1 -->
<g id="edge8" class="edge">
<title>unknown.color_gradient&#45;&gt;rel_1</title>
<path fill="none" stroke="#d46a6a" stroke-width="1.5" d="M75.04,-131.26C92.16,-123.47 112.78,-114.09 131.27,-105.68"/>
<polygon fill="#d46a6a" stroke="#d46a6a" stroke-width="1.5" points="132.24,-108.32 138.36,-102.45 129.92,-103.22 132.24,-108.32"/>
</g>
<!-- rel_3 -->
<g id="node14" class="node">
<title>rel_3</title>
<path fill="#f5b8b8" stroke="#d46a6a" stroke-width="1.2" d="M198,-36C198,-36 166.25,-36 166.25,-36 160.25,-36 154.25,-30 154.25,-24 154.25,-24 154.25,-12 154.25,-12 154.25,-6 160.25,0 166.25,0 166.25,0 198,0 198,0 204,0 210,-6 210,-12 210,-12 210,-24 210,-24 210,-30 204,-36 198,-36"/>
<text xml:space="preserve" text-anchor="middle" x="182.12" y="-14.5" font-family="Arial" font-size="10.00" fill="#8b0000">obscures</text>
</g>
<!-- unknown.color_gradient&#45;&gt;rel_3 -->
<g id="edge12" class="edge">
<title>unknown.color_gradient&#45;&gt;rel_3</title>
<path fill="none" stroke="#d46a6a" stroke-width="1.5" d="M50.1,-129.28C64.17,-108.2 89.31,-73.9 117.5,-51 125.69,-44.35 135.43,-38.49 144.79,-33.62"/>
<polygon fill="#d46a6a" stroke="#d46a6a" stroke-width="1.5" points="145.99,-36.15 151.93,-30.09 143.51,-31.13 145.99,-36.15"/>
</g>
<!-- mark.node -->
<g id="node2" class="node">
<title>mark.node</title>
<path fill="#b8e6b8" stroke="#2c3e50" stroke-width="1.8" d="M331.75,-101C331.75,-101 301.75,-101 301.75,-101 295.75,-101 289.75,-95 289.75,-89 289.75,-89 289.75,-77 289.75,-77 289.75,-71 295.75,-65 301.75,-65 301.75,-65 331.75,-65 331.75,-65 337.75,-65 343.75,-71 343.75,-77 343.75,-77 343.75,-89 343.75,-89 343.75,-95 337.75,-101 331.75,-101"/>
<text xml:space="preserve" text-anchor="middle" x="316.75" y="-79.5" font-family="Arial" font-size="10.00" fill="#1a1a1a">node</text>
</g>
<!-- attr_3 -->
<g id="node8" class="node">
<title>attr_3</title>
<path fill="#c7b8e6" stroke="#7f8c8d" stroke-width="1.2" d="M524.25,-101C524.25,-101 398.75,-101 398.75,-101 392.75,-101 386.75,-95 386.75,-89 386.75,-89 386.75,-77 386.75,-77 386.75,-71 392.75,-65 398.75,-65 398.75,-65 524.25,-65 524.25,-65 530.25,-65 536.25,-71 536.25,-77 536.25,-77 536.25,-89 536.25,-89 536.25,-95 530.25,-101 524.25,-101"/>
<text xml:space="preserve" text-anchor="middle" x="461.5" y="-79.5" font-family="Arial" font-size="10.00" fill="#1a1a1a">(+) ambiguous color distinction</text>
</g>
<!-- mark.node&#45;&gt;attr_3 -->
<g id="edge3" class="edge">
<title>mark.node&#45;&gt;attr_3</title>
<path fill="none" stroke="#aaaaaa" d="M344.6,-83C354.31,-83 365.86,-83 377.83,-83"/>
<polygon fill="#aaaaaa" stroke="#aaaaaa" points="377.67,-85.45 384.67,-83 377.67,-80.55 377.67,-85.45"/>
</g>
<!-- structure.link -->
<g id="node3" class="node">
<title>structure.link</title>
<path fill="#b8e6b8" stroke="#2c3e50" stroke-width="1.8" d="M621.25,-166C621.25,-166 591.25,-166 591.25,-166 585.25,-166 579.25,-160 579.25,-154 579.25,-154 579.25,-142 579.25,-142 579.25,-136 585.25,-130 591.25,-130 591.25,-130 621.25,-130 621.25,-130 627.25,-130 633.25,-136 633.25,-142 633.25,-142 633.25,-154 633.25,-154 633.25,-160 627.25,-166 621.25,-166"/>
<text xml:space="preserve" text-anchor="middle" x="606.25" y="-144.5" font-family="Arial" font-size="10.00" fill="#1a1a1a">link</text>
</g>
<!-- attr_4 -->
<g id="node9" class="node">
<title>attr_4</title>
<path fill="#c7b8e6" stroke="#7f8c8d" stroke-width="1.2" d="M806.25,-166C806.25,-166 688.25,-166 688.25,-166 682.25,-166 676.25,-160 676.25,-154 676.25,-154 676.25,-142 676.25,-142 676.25,-136 682.25,-130 688.25,-130 688.25,-130 806.25,-130 806.25,-130 812.25,-130 818.25,-136 818.25,-142 818.25,-142 818.25,-154 818.25,-154 818.25,-160 812.25,-166 806.25,-166"/>
<text xml:space="preserve" text-anchor="middle" x="747.25" y="-144.5" font-family="Arial" font-size="10.00" fill="#1a1a1a">(+) unclear data relationships</text>
</g>
<!-- structure.link&#45;&gt;attr_4 -->
<g id="edge4" class="edge">
<title>structure.link&#45;&gt;attr_4</title>
<path fill="none" stroke="#aaaaaa" d="M634.05,-148C643.86,-148 655.52,-148 667.55,-148"/>
<polygon fill="#aaaaaa" stroke="#aaaaaa" points="667.41,-150.45 674.41,-148 667.41,-145.55 667.41,-150.45"/>
</g>
<!-- structure.layout -->
<g id="node4" class="node">
<title>structure.layout</title>
<path fill="#b8e6b8" stroke="#2c3e50" stroke-width="1.8" d="M331.75,-166C331.75,-166 301.75,-166 301.75,-166 295.75,-166 289.75,-160 289.75,-154 289.75,-154 289.75,-142 289.75,-142 289.75,-136 295.75,-130 301.75,-130 301.75,-130 331.75,-130 331.75,-130 337.75,-130 343.75,-136 343.75,-142 343.75,-142 343.75,-154 343.75,-154 343.75,-160 337.75,-166 331.75,-166"/>
<text xml:space="preserve" text-anchor="middle" x="316.75" y="-144.5" font-family="Arial" font-size="10.00" fill="#1a1a1a">layout</text>
</g>
<!-- attr_2 -->
<g id="node10" class="node">
<title>attr_2</title>
<path fill="#c7b8e6" stroke="#7f8c8d" stroke-width="1.2" d="M510,-231C510,-231 413,-231 413,-231 407,-231 401,-225 401,-219 401,-219 401,-207 401,-207 401,-201 407,-195 413,-195 413,-195 510,-195 510,-195 516,-195 522,-201 522,-207 522,-207 522,-219 522,-219 522,-225 516,-231 510,-231"/>
<text xml:space="preserve" text-anchor="middle" x="461.5" y="-209.5" font-family="Arial" font-size="10.00" fill="#1a1a1a">(+) less logical structure</text>
</g>
<!-- structure.layout&#45;&gt;attr_2 -->
<g id="edge5" class="edge">
<title>structure.layout&#45;&gt;attr_2</title>
<path fill="none" stroke="#aaaaaa" d="M344.51,-161.08C357.25,-167.24 372.73,-174.61 386.75,-181 394.08,-184.34 401.86,-187.81 409.51,-191.17"/>
<polygon fill="#aaaaaa" stroke="#aaaaaa" points="408.31,-193.32 415.71,-193.88 410.28,-188.83 408.31,-193.32"/>
</g>
<!-- rel_2 -->
<g id="node13" class="node">
<title>rel_2</title>
<path fill="#f5b8b8" stroke="#d46a6a" stroke-width="1.2" d="M519.38,-166C519.38,-166 403.62,-166 403.62,-166 397.62,-166 391.62,-160 391.62,-154 391.62,-154 391.62,-142 391.62,-142 391.62,-136 397.62,-130 403.62,-130 403.62,-130 519.38,-130 519.38,-130 525.38,-130 531.38,-136 531.38,-142 531.38,-142 531.38,-154 531.38,-154 531.38,-160 525.38,-166 519.38,-166"/>
<text xml:space="preserve" text-anchor="middle" x="461.5" y="-144.5" font-family="Arial" font-size="10.00" fill="#8b0000">lacks logical organization for</text>
</g>
<!-- structure.layout&#45;&gt;rel_2 -->
<g id="edge10" class="edge">
<title>structure.layout&#45;&gt;rel_2</title>
<path fill="none" stroke="#d46a6a" stroke-width="1.5" d="M344.6,-148C355.22,-148 368.03,-148 381.2,-148"/>
<polygon fill="#d46a6a" stroke="#d46a6a" stroke-width="1.5" points="381.05,-150.8 389.05,-148 381.05,-145.2 381.05,-150.8"/>
</g>
<!-- furniture.legend -->
<g id="node5" class="node">
<title>furniture.legend</title>
<path fill="#b8e6b8" stroke="#2c3e50" stroke-width="1.8" d="M331.75,-36C331.75,-36 301.75,-36 301.75,-36 295.75,-36 289.75,-30 289.75,-24 289.75,-24 289.75,-12 289.75,-12 289.75,-6 295.75,0 301.75,0 301.75,0 331.75,0 331.75,0 337.75,0 343.75,-6 343.75,-12 343.75,-12 343.75,-24 343.75,-24 343.75,-30 337.75,-36 331.75,-36"/>
<text xml:space="preserve" text-anchor="middle" x="316.75" y="-14.5" font-family="Arial" font-size="10.00" fill="#1a1a1a">legend</text>
</g>
<!-- rel_0&#45;&gt;structure.layout -->
<g id="edge7" class="edge">
<title>rel_0&#45;&gt;structure.layout</title>
<path fill="none" stroke="#d46a6a" stroke-width="1.5" d="M236.69,-148C250.87,-148 265.86,-148 278.93,-148"/>
<polygon fill="#d46a6a" stroke="#d46a6a" stroke-width="1.5" points="278.68,-150.8 286.68,-148 278.68,-145.2 278.68,-150.8"/>
</g>
<!-- rel_1&#45;&gt;mark.node -->
<g id="edge9" class="edge">
<title>rel_1&#45;&gt;mark.node</title>
<path fill="none" stroke="#d46a6a" stroke-width="1.5" d="M232.13,-83C247.57,-83 264.35,-83 278.81,-83"/>
<polygon fill="#d46a6a" stroke="#d46a6a" stroke-width="1.5" points="278.59,-85.8 286.59,-83 278.59,-80.2 278.59,-85.8"/>
</g>
<!-- rel_2&#45;&gt;structure.link -->
<g id="edge11" class="edge">
<title>rel_2&#45;&gt;structure.link</title>
<path fill="none" stroke="#d46a6a" stroke-width="1.5" d="M531.78,-148C544.38,-148 557.06,-148 568.26,-148"/>
<polygon fill="#d46a6a" stroke="#d46a6a" stroke-width="1.5" points="568.23,-150.8 576.23,-148 568.23,-145.2 568.23,-150.8"/>
</g>
<!-- rel_3&#45;&gt;furniture.legend -->
<g id="edge13" class="edge">
<title>rel_3&#45;&gt;furniture.legend</title>
<path fill="none" stroke="#d46a6a" stroke-width="1.5" d="M210.28,-18C230.08,-18 257.14,-18 278.88,-18"/>
<polygon fill="#d46a6a" stroke="#d46a6a" stroke-width="1.5" points="278.81,-20.8 286.81,-18 278.81,-15.2 278.81,-20.8"/>
</g>
</g>
</svg>
