<?xml version="1.0" encoding="UTF-8" standalone="no"?>
<!DOCTYPE svg PUBLIC "-//W3C//DTD SVG 1.1//EN"
 "http://www.w3.org/Graphics/SVG/1.1/DTD/svg11.dtd">
<!-- Generated by graphviz version 14.1.5 (20260411.2331)
 -->
<!-- Title: InfoVisC.8.7.png Pages: 1 -->
<svg width="819pt" height="375pt"
 viewBox="0.00 0.00 819.00 375.00" xmlns="http://www.w3.org/2000/svg" xmlns:xlink="http://www.w3.org/1999/xlink">
<g id="graph0" class="graph" transform="scale(1 1) rotate(0) translate(4 371.25)">
<title>InfoVisC.8.7.png</title>
<polygon fill="white" stroke="none" points="-4,4 -4,-371.25 814.5,-371.25 814.5,4 -4,4"/>
<text xml:space="preserve" text-anchor="start" x="352.38" y="-346.95" font-family="Arial" font-weight="bold" font-size="14.00">InfoVisC.8.7.png</text>
<text xml:space="preserve" text-anchor="start" x="362.88" y="-327" font-family="Arial" font-size="11.00">Line &#160;| &#160;VC = 0.72</text>
<path fill="#b8e6b8" stroke="none" d="M195.88,-302C195.88,-302 203.88,-302 203.88,-302 206.88,-302 209.88,-305 209.88,-308 209.88,-308 209.88,-314 209.88,-314 209.88,-317 206.88,-320 203.88,-320 203.88,-320 195.88,-320 195.88,-320 192.88,-320 189.88,-317 189.88,-314 189.88,-314 189.88,-308 189.88,-308 189.88,-305 192.88,-302 195.88,-302"/>
<path fill="none" stroke="black" d="M195.88,-302C195.88,-302 203.88,-302 203.88,-302 206.88,-302 209.88,-305 209.88,-308 209.88,-308 209.88,-314 209.88,-314 209.88,-317 206.88,-320 203.88,-320 203.88,-320 195.88,-320 195.88,-320 192.88,-320 189.88,-317 189.88,-314 189.88,-314 189.88,-308 189.88,-308 189.88,-305 192.88,-302 195.88,-302"/>
<text xml:space="preserve" text-anchor="start" x="198.38" y="-307.25" font-family="Arial" font-size="10.00"> </text>
<text xml:space="preserve" text-anchor="start" x="213.88" y="-307.25" font-family="Arial" font-size="10.00">Object</text>
<path fill="#c7b8e6" stroke="none" d="M252.38,-302C252.38,-302 260.38,-302 260.38,-302 263.38,-302 266.38,-305 266.38,-308 266.38,-308 266.38,-314 266.38,-314 266.38,-317 263.38,-320 260.38,-320 260.38,-320 252.38,-320 252.38,-320 249.38,-320 246.38,-317 246.38,-314 246.38,-314 246.38,-308 246.38,-308 246.38,-305 249.38,-302 252.38,-302"/>
<path fill="none" stroke="black" d="M252.38,-302C252.38,-302 260.38,-302 260.38,-302 263.38,-302 266.38,-305 266.38,-308 266.38,-308 266.38,-314 266.38,-314 266.38,-317 263.38,-320 260.38,-320 260.38,-320 252.38,-320 252.38,-320 249.38,-320 246.38,-317 246.38,-314 246.38,-314 246.38,-308 246.38,-308 246.38,-305 249.38,-302 252.38,-302"/>
<text xml:space="preserve" text-anchor="start" x="254.88" y="-307.25" font-family="Arial" font-size="10.00"> </text>
<text xml:space="preserve" text-anchor="start" x="270.38" y="-307.25" font-family="Arial" font-size="10.00">Attribute</text>
<path fill="#f5b8b8" stroke="none" d="M317.12,-302C317.12,-302 325.12,-302 325.12,-302 328.12,-302 331.12,-305 331.12,-308 331.12,-308 331.12,-314 331.12,-314 331.12,-317 328.12,-320 325.12,-320 325.12,-320 317.12,-320 317.12,-320 314.12,-320 311.12,-317 311.12,-314 311.12,-314 311.12,-308 311.12,-308 311.12,-305 314.12,-302 317.12,-302"/>
<path fill="none" stroke="black" d="M317.12,-302C317.12,-302 325.12,-302 325.12,-302 328.12,-302 331.12,-305 331.12,-308 331.12,-308 331.12,-314 331.12,-314 331.12,-317 328.12,-320 325.12,-320 325.12,-320 317.12,-320 317.12,-320 314.12,-320 311.12,-317 311.12,-314 311.12,-314 311.12,-308 311.12,-308 311.12,-305 314.12,-302 317.12,-302"/>
<text xml:space="preserve" text-anchor="start" x="319.62" y="-307.25" font-family="Arial" font-size="10.00"> </text>
<text xml:space="preserve" text-anchor="start" x="335.12" y="-307.25" font-family="Arial" font-size="10.00">Relationship</text>
<text xml:space="preserve" text-anchor="start" x="395.12" y="-308.5" font-family="Arial" font-weight="bold" font-size="10.00">(+)</text>
<text xml:space="preserve" text-anchor="start" x="407.12" y="-308.5" font-family="Arial" font-size="10.00"> increases complexity</text>
<text xml:space="preserve" text-anchor="start" x="508.38" y="-308.5" font-family="Arial" font-weight="bold" font-size="10.00">(−)</text>
<text xml:space="preserve" text-anchor="start" x="520.38" y="-308.5" font-family="Arial" font-size="10.00"> decreases complexity</text>
<!-- unknown.lines -->
<g id="node1" class="node">
<title>unknown.lines</title>
<path fill="#b8e6b8" stroke="#2c3e50" stroke-width="1.8" d="M53.38,-198C53.38,-198 23.38,-198 23.38,-198 17.38,-198 11.38,-192 11.38,-186 11.38,-186 11.38,-174 11.38,-174 11.38,-168 17.38,-162 23.38,-162 23.38,-162 53.38,-162 53.38,-162 59.38,-162 65.38,-168 65.38,-174 65.38,-174 65.38,-186 65.38,-186 65.38,-192 59.38,-198 53.38,-198"/>
<text xml:space="preserve" text-anchor="middle" x="38.38" y="-176.5" font-family="Arial" font-size="10.00" fill="#1a1a1a">lines</text>
</g>
<!-- attr_1 -->
<g id="node6" class="node">
<title>attr_1</title>
<path fill="#c7b8e6" stroke="#7f8c8d" stroke-width="1.2" d="M224.25,-231C224.25,-231 144.5,-231 144.5,-231 138.5,-231 132.5,-225 132.5,-219 132.5,-219 132.5,-207 132.5,-207 132.5,-201 138.5,-195 144.5,-195 144.5,-195 224.25,-195 224.25,-195 230.25,-195 236.25,-201 236.25,-207 236.25,-207 236.25,-219 236.25,-219 236.25,-225 230.25,-231 224.25,-231"/>
<text xml:space="preserve" text-anchor="middle" x="184.38" y="-209.5" font-family="Arial" font-size="10.00" fill="#1a1a1a">(+) overlapping lines</text>
</g>
<!-- unknown.lines&#45;&gt;attr_1 -->
<g id="edge1" class="edge">
<title>unknown.lines&#45;&gt;attr_1</title>
<path fill="none" stroke="#aaaaaa" d="M66.12,-186.13C82.35,-189.85 103.73,-194.75 123.79,-199.35"/>
<polygon fill="#aaaaaa" stroke="#aaaaaa" points="123.15,-201.71 130.52,-200.89 124.24,-196.93 123.15,-201.71"/>
</g>
<!-- rel_1 -->
<g id="node12" class="node">
<title>rel_1</title>
<path fill="#f5b8b8" stroke="#d46a6a" stroke-width="1.2" d="M199.38,-166C199.38,-166 169.38,-166 169.38,-166 163.38,-166 157.38,-160 157.38,-154 157.38,-154 157.38,-142 157.38,-142 157.38,-136 163.38,-130 169.38,-130 169.38,-130 199.38,-130 199.38,-130 205.38,-130 211.38,-136 211.38,-142 211.38,-142 211.38,-154 211.38,-154 211.38,-160 205.38,-166 199.38,-166"/>
<text xml:space="preserve" text-anchor="middle" x="184.38" y="-144.5" font-family="Arial" font-size="10.00" fill="#8b0000">creates</text>
</g>
<!-- unknown.lines&#45;&gt;rel_1 -->
<g id="edge8" class="edge">
<title>unknown.lines&#45;&gt;rel_1</title>
<path fill="none" stroke="#d46a6a" stroke-width="1.5" d="M66.12,-174.06C89,-168.97 122.12,-161.61 147.33,-156.01"/>
<polygon fill="#d46a6a" stroke="#d46a6a" stroke-width="1.5" points="147.84,-158.77 155.04,-154.3 146.62,-153.3 147.84,-158.77"/>
</g>
<!-- unknown.intersections -->
<g id="node2" class="node">
<title>unknown.intersections</title>
<path fill="#b8e6b8" stroke="#2c3e50" stroke-width="1.8" d="M351.5,-101C351.5,-101 304,-101 304,-101 298,-101 292,-95 292,-89 292,-89 292,-77 292,-77 292,-71 298,-65 304,-65 304,-65 351.5,-65 351.5,-65 357.5,-65 363.5,-71 363.5,-77 363.5,-77 363.5,-89 363.5,-89 363.5,-95 357.5,-101 351.5,-101"/>
<text xml:space="preserve" text-anchor="middle" x="327.75" y="-79.5" font-family="Arial" font-size="10.00" fill="#1a1a1a">intersections</text>
</g>
<!-- attr_0 -->
<g id="node7" class="node">
<title>attr_0</title>
<path fill="#c7b8e6" stroke="#7f8c8d" stroke-width="1.2" d="M534.25,-166C534.25,-166 418.5,-166 418.5,-166 412.5,-166 406.5,-160 406.5,-154 406.5,-154 406.5,-142 406.5,-142 406.5,-136 412.5,-130 418.5,-130 418.5,-130 534.25,-130 534.25,-130 540.25,-130 546.25,-136 546.25,-142 546.25,-142 546.25,-154 546.25,-154 546.25,-160 540.25,-166 534.25,-166"/>
<text xml:space="preserve" text-anchor="middle" x="476.38" y="-144.5" font-family="Arial" font-size="10.00" fill="#1a1a1a">(+) high frequency crossings</text>
</g>
<!-- unknown.intersections&#45;&gt;attr_0 -->
<g id="edge2" class="edge">
<title>unknown.intersections&#45;&gt;attr_0</title>
<path fill="none" stroke="#aaaaaa" d="M364.24,-98.73C382.73,-106.93 405.64,-117.08 425.84,-126.04"/>
<polygon fill="#aaaaaa" stroke="#aaaaaa" points="424.66,-128.2 432.05,-128.8 426.65,-123.72 424.66,-128.2"/>
</g>
<!-- rel_0 -->
<g id="node11" class="node">
<title>rel_0</title>
<path fill="#f5b8b8" stroke="#d46a6a" stroke-width="1.2" d="M491.88,-101C491.88,-101 460.88,-101 460.88,-101 454.88,-101 448.88,-95 448.88,-89 448.88,-89 448.88,-77 448.88,-77 448.88,-71 454.88,-65 460.88,-65 460.88,-65 491.88,-65 491.88,-65 497.88,-65 503.88,-71 503.88,-77 503.88,-77 503.88,-89 503.88,-89 503.88,-95 497.88,-101 491.88,-101"/>
<text xml:space="preserve" text-anchor="middle" x="476.38" y="-79.5" font-family="Arial" font-size="10.00" fill="#8b0000">indicates</text>
</g>
<!-- unknown.intersections&#45;&gt;rel_0 -->
<g id="edge6" class="edge">
<title>unknown.intersections&#45;&gt;rel_0</title>
<path fill="none" stroke="#d46a6a" stroke-width="1.5" d="M364.24,-83C386.73,-83 415.76,-83 438.51,-83"/>
<polygon fill="#d46a6a" stroke="#d46a6a" stroke-width="1.5" points="438.21,-85.8 446.21,-83 438.21,-80.2 438.21,-85.8"/>
</g>
<!-- rel_3 -->
<g id="node14" class="node">
<title>rel_3</title>
<path fill="#f5b8b8" stroke="#d46a6a" stroke-width="1.2" d="M493.38,-36C493.38,-36 459.38,-36 459.38,-36 453.38,-36 447.38,-30 447.38,-24 447.38,-24 447.38,-12 447.38,-12 447.38,-6 453.38,0 459.38,0 459.38,0 493.38,0 493.38,0 499.38,0 505.38,-6 505.38,-12 505.38,-12 505.38,-24 505.38,-24 505.38,-30 499.38,-36 493.38,-36"/>
<text xml:space="preserve" text-anchor="middle" x="476.38" y="-14.5" font-family="Arial" font-size="10.00" fill="#8b0000">increases</text>
</g>
<!-- unknown.intersections&#45;&gt;rel_3 -->
<g id="edge12" class="edge">
<title>unknown.intersections&#45;&gt;rel_3</title>
<path fill="none" stroke="#d46a6a" stroke-width="1.5" d="M364.24,-67.27C386.49,-57.4 415.14,-44.7 437.77,-34.67"/>
<polygon fill="#d46a6a" stroke="#d46a6a" stroke-width="1.5" points="438.82,-37.27 445,-31.47 436.55,-32.15 438.82,-37.27"/>
</g>
<!-- unknown.data_points -->
<g id="node3" class="node">
<title>unknown.data_points</title>
<path fill="#b8e6b8" stroke="#2c3e50" stroke-width="1.8" d="M58.38,-296C58.38,-296 18.38,-296 18.38,-296 12.38,-296 6.38,-290 6.38,-284 6.38,-284 6.38,-272 6.38,-272 6.38,-266 12.38,-260 18.38,-260 18.38,-260 58.38,-260 58.38,-260 64.38,-260 70.38,-266 70.38,-272 70.38,-272 70.38,-284 70.38,-284 70.38,-290 64.38,-296 58.38,-296"/>
<text xml:space="preserve" text-anchor="middle" x="38.38" y="-274.5" font-family="Arial" font-size="10.00" fill="#1a1a1a">data points</text>
</g>
<!-- attr_4 -->
<g id="node8" class="node">
<title>attr_4</title>
<path fill="#c7b8e6" stroke="#7f8c8d" stroke-width="1.2" d="M237,-296C237,-296 131.75,-296 131.75,-296 125.75,-296 119.75,-290 119.75,-284 119.75,-284 119.75,-272 119.75,-272 119.75,-266 125.75,-260 131.75,-260 131.75,-260 237,-260 237,-260 243,-260 249,-266 249,-272 249,-272 249,-284 249,-284 249,-290 243,-296 237,-296"/>
<text xml:space="preserve" text-anchor="middle" x="184.38" y="-274.5" font-family="Arial" font-size="10.00" fill="#1a1a1a">(+) densely packed marks</text>
</g>
<!-- unknown.data_points&#45;&gt;attr_4 -->
<g id="edge3" class="edge">
<title>unknown.data_points&#45;&gt;attr_4</title>
<path fill="none" stroke="#aaaaaa" d="M70.98,-278C82.88,-278 96.96,-278 111.06,-278"/>
<polygon fill="#aaaaaa" stroke="#aaaaaa" points="110.83,-280.45 117.83,-278 110.83,-275.55 110.83,-280.45"/>
</g>
<!-- unknown.circular_layout -->
<g id="node4" class="node">
<title>unknown.circular_layout</title>
<path fill="#b8e6b8" stroke="#2c3e50" stroke-width="1.8" d="M64.75,-68C64.75,-68 12,-68 12,-68 6,-68 0,-62 0,-56 0,-56 0,-44 0,-44 0,-38 6,-32 12,-32 12,-32 64.75,-32 64.75,-32 70.75,-32 76.75,-38 76.75,-44 76.75,-44 76.75,-56 76.75,-56 76.75,-62 70.75,-68 64.75,-68"/>
<text xml:space="preserve" text-anchor="middle" x="38.38" y="-46.5" font-family="Arial" font-size="10.00" fill="#1a1a1a">circular layout</text>
</g>
<!-- attr_3 -->
<g id="node9" class="node">
<title>attr_3</title>
<path fill="#c7b8e6" stroke="#7f8c8d" stroke-width="1.2" d="M235.12,-101C235.12,-101 133.62,-101 133.62,-101 127.62,-101 121.62,-95 121.62,-89 121.62,-89 121.62,-77 121.62,-77 121.62,-71 127.62,-65 133.62,-65 133.62,-65 235.12,-65 235.12,-65 241.12,-65 247.12,-71 247.12,-77 247.12,-77 247.12,-89 247.12,-89 247.12,-95 241.12,-101 235.12,-101"/>
<text xml:space="preserve" text-anchor="middle" x="184.38" y="-79.5" font-family="Arial" font-size="10.00" fill="#1a1a1a">(+) unconventional layout</text>
</g>
<!-- unknown.circular_layout&#45;&gt;attr_3 -->
<g id="edge4" class="edge">
<title>unknown.circular_layout&#45;&gt;attr_3</title>
<path fill="none" stroke="#aaaaaa" d="M77.59,-58.76C88.52,-61.26 100.8,-64.08 113.02,-66.88"/>
<polygon fill="#aaaaaa" stroke="#aaaaaa" points="112.18,-69.2 119.55,-68.37 113.27,-64.42 112.18,-69.2"/>
</g>
<!-- rel_2 -->
<g id="node13" class="node">
<title>rel_2</title>
<path fill="#f5b8b8" stroke="#d46a6a" stroke-width="1.2" d="M199.88,-36C199.88,-36 168.88,-36 168.88,-36 162.88,-36 156.88,-30 156.88,-24 156.88,-24 156.88,-12 156.88,-12 156.88,-6 162.88,0 168.88,0 168.88,0 199.88,0 199.88,0 205.88,0 211.88,-6 211.88,-12 211.88,-12 211.88,-24 211.88,-24 211.88,-30 205.88,-36 199.88,-36"/>
<text xml:space="preserve" text-anchor="middle" x="184.38" y="-14.5" font-family="Arial" font-size="10.00" fill="#8b0000">amplifies</text>
</g>
<!-- unknown.circular_layout&#45;&gt;rel_2 -->
<g id="edge10" class="edge">
<title>unknown.circular_layout&#45;&gt;rel_2</title>
<path fill="none" stroke="#d46a6a" stroke-width="1.5" d="M77.59,-41.51C98.92,-36.77 125.38,-30.89 146.5,-26.19"/>
<polygon fill="#d46a6a" stroke="#d46a6a" stroke-width="1.5" points="146.98,-28.96 154.18,-24.49 145.76,-23.49 146.98,-28.96"/>
</g>
<!-- unknown.data_content -->
<g id="node5" class="node">
<title>unknown.data_content</title>
<path fill="#b8e6b8" stroke="#2c3e50" stroke-width="1.8" d="M647.25,-68C647.25,-68 601.25,-68 601.25,-68 595.25,-68 589.25,-62 589.25,-56 589.25,-56 589.25,-44 589.25,-44 589.25,-38 595.25,-32 601.25,-32 601.25,-32 647.25,-32 647.25,-32 653.25,-32 659.25,-38 659.25,-44 659.25,-44 659.25,-56 659.25,-56 659.25,-62 653.25,-68 647.25,-68"/>
<text xml:space="preserve" text-anchor="middle" x="624.25" y="-46.5" font-family="Arial" font-size="10.00" fill="#1a1a1a">data content</text>
</g>
<!-- attr_2 -->
<g id="node10" class="node">
<title>attr_2</title>
<path fill="#c7b8e6" stroke="#7f8c8d" stroke-width="1.2" d="M798.5,-68C798.5,-68 714.25,-68 714.25,-68 708.25,-68 702.25,-62 702.25,-56 702.25,-56 702.25,-44 702.25,-44 702.25,-38 708.25,-32 714.25,-32 714.25,-32 798.5,-32 798.5,-32 804.5,-32 810.5,-38 810.5,-44 810.5,-44 810.5,-56 810.5,-56 810.5,-62 804.5,-68 798.5,-68"/>
<text xml:space="preserve" text-anchor="middle" x="756.38" y="-46.5" font-family="Arial" font-size="10.00" fill="#1a1a1a">(+) large data volume</text>
</g>
<!-- unknown.data_content&#45;&gt;attr_2 -->
<g id="edge5" class="edge">
<title>unknown.data_content&#45;&gt;attr_2</title>
<path fill="none" stroke="#aaaaaa" d="M660.12,-50C670.42,-50 682.01,-50 693.48,-50"/>
<polygon fill="#aaaaaa" stroke="#aaaaaa" points="693.27,-52.45 700.27,-50 693.27,-47.55 693.27,-52.45"/>
</g>
<!-- rel_0&#45;&gt;unknown.data_content -->
<g id="edge7" class="edge">
<title>rel_0&#45;&gt;unknown.data_content</title>
<path fill="none" stroke="#d46a6a" stroke-width="1.5" d="M504.47,-76.87C525.33,-72.15 554.59,-65.53 578.86,-60.04"/>
<polygon fill="#d46a6a" stroke="#d46a6a" stroke-width="1.5" points="579.16,-62.84 586.35,-58.35 577.93,-57.38 579.16,-62.84"/>
</g>
<!-- rel_1&#45;&gt;unknown.intersections -->
<g id="edge9" class="edge">
<title>rel_1&#45;&gt;unknown.intersections</title>
<path fill="none" stroke="#d46a6a" stroke-width="1.5" d="M211.97,-135.77C231.65,-126.72 258.93,-114.18 281.96,-103.59"/>
<polygon fill="#d46a6a" stroke="#d46a6a" stroke-width="1.5" points="283.04,-106.18 289.14,-100.29 280.7,-101.09 283.04,-106.18"/>
</g>
<!-- rel_2&#45;&gt;unknown.intersections -->
<g id="edge11" class="edge">
<title>rel_2&#45;&gt;unknown.intersections</title>
<path fill="none" stroke="#d46a6a" stroke-width="1.5" d="M212.3,-30.38C231.94,-39.41 259.02,-51.86 281.91,-62.38"/>
<polygon fill="#d46a6a" stroke="#d46a6a" stroke-width="1.5" points="280.6,-64.86 289.04,-65.66 282.94,-59.78 280.6,-64.86"/>
</g>
<!-- rel_3&#45;&gt;unknown.data_content -->
<g id="edge13" class="edge">
<title>rel_3&#45;&gt;unknown.data_content</title>
<path fill="none" stroke="#d46a6a" stroke-width="1.5" d="M505.85,-24.25C526.52,-28.78 554.91,-35.01 578.59,-40.2"/>
<polygon fill="#d46a6a" stroke="#d46a6a" stroke-width="1.5" points="577.78,-42.89 586.2,-41.87 578.98,-37.42 577.78,-42.89"/>
</g>
</g>
</svg>
