<?xml version="1.0" encoding="UTF-8" standalone="no"?>
<!DOCTYPE svg PUBLIC "-//W3C//DTD SVG 1.1//EN"
 "http://www.w3.org/Graphics/SVG/1.1/DTD/svg11.dtd">
<!-- Generated by graphviz version 14.1.5 (20260411.2331)
 -->
<!-- Title: InfoVisJ.522.15.png Pages: 1 -->
<svg width="1178pt" height="310pt"
 viewBox="0.00 0.00 1178.00 310.00" xmlns="http://www.w3.org/2000/svg" xmlns:xlink="http://www.w3.org/1999/xlink">
<g id="graph0" class="graph" transform="scale(1 1) rotate(0) translate(4 306.25)">
<title>InfoVisJ.522.15.png</title>
<polygon fill="white" stroke="none" points="-4,4 -4,-306.25 1174,-306.25 1174,4 -4,4"/>
<text xml:space="preserve" text-anchor="start" x="522" y="-281.95" font-family="Arial" font-weight="bold" font-size="14.00">InfoVisJ.522.15.png</text>
<text xml:space="preserve" text-anchor="start" x="542.62" y="-262" font-family="Arial" font-size="11.00">Grid &#160;| &#160;VC = 0.64</text>
<path fill="#b8e6b8" stroke="none" d="M375.62,-237C375.62,-237 383.62,-237 383.62,-237 386.62,-237 389.62,-240 389.62,-243 389.62,-243 389.62,-249 389.62,-249 389.62,-252 386.62,-255 383.62,-255 383.62,-255 375.62,-255 375.62,-255 372.62,-255 369.62,-252 369.62,-249 369.62,-249 369.62,-243 369.62,-243 369.62,-240 372.62,-237 375.62,-237"/>
<path fill="none" stroke="black" d="M375.62,-237C375.62,-237 383.62,-237 383.62,-237 386.62,-237 389.62,-240 389.62,-243 389.62,-243 389.62,-249 389.62,-249 389.62,-252 386.62,-255 383.62,-255 383.62,-255 375.62,-255 375.62,-255 372.62,-255 369.62,-252 369.62,-249 369.62,-249 369.62,-243 369.62,-243 369.62,-240 372.62,-237 375.62,-237"/>
<text xml:space="preserve" text-anchor="start" x="378.12" y="-242.25" font-family="Arial" font-size="10.00"> </text>
<text xml:space="preserve" text-anchor="start" x="393.62" y="-242.25" font-family="Arial" font-size="10.00">Object</text>
<path fill="#c7b8e6" stroke="none" d="M432.12,-237C432.12,-237 440.12,-237 440.12,-237 443.12,-237 446.12,-240 446.12,-243 446.12,-243 446.12,-249 446.12,-249 446.12,-252 443.12,-255 440.12,-255 440.12,-255 432.12,-255 432.12,-255 429.12,-255 426.12,-252 426.12,-249 426.12,-249 426.12,-243 426.12,-243 426.12,-240 429.12,-237 432.12,-237"/>
<path fill="none" stroke="black" d="M432.12,-237C432.12,-237 440.12,-237 440.12,-237 443.12,-237 446.12,-240 446.12,-243 446.12,-243 446.12,-249 446.12,-249 446.12,-252 443.12,-255 440.12,-255 440.12,-255 432.12,-255 432.12,-255 429.12,-255 426.12,-252 426.12,-249 426.12,-249 426.12,-243 426.12,-243 426.12,-240 429.12,-237 432.12,-237"/>
<text xml:space="preserve" text-anchor="start" x="434.62" y="-242.25" font-family="Arial" font-size="10.00"> </text>
<text xml:space="preserve" text-anchor="start" x="450.12" y="-242.25" font-family="Arial" font-size="10.00">Attribute</text>
<path fill="#f5b8b8" stroke="none" d="M496.88,-237C496.88,-237 504.88,-237 504.88,-237 507.88,-237 510.88,-240 510.88,-243 510.88,-243 510.88,-249 510.88,-249 510.88,-252 507.88,-255 504.88,-255 504.88,-255 496.88,-255 496.88,-255 493.88,-255 490.88,-252 490.88,-249 490.88,-249 490.88,-243 490.88,-243 490.88,-240 493.88,-237 496.88,-237"/>
<path fill="none" stroke="black" d="M496.88,-237C496.88,-237 504.88,-237 504.88,-237 507.88,-237 510.88,-240 510.88,-243 510.88,-243 510.88,-249 510.88,-249 510.88,-252 507.88,-255 504.88,-255 504.88,-255 496.88,-255 496.88,-255 493.88,-255 490.88,-252 490.88,-249 490.88,-249 490.88,-243 490.88,-243 490.88,-240 493.88,-237 496.88,-237"/>
<text xml:space="preserve" text-anchor="start" x="499.38" y="-242.25" font-family="Arial" font-size="10.00"> </text>
<text xml:space="preserve" text-anchor="start" x="514.88" y="-242.25" font-family="Arial" font-size="10.00">Relationship</text>
<text xml:space="preserve" text-anchor="start" x="574.88" y="-243.5" font-family="Arial" font-weight="bold" font-size="10.00">(+)</text>
<text xml:space="preserve" text-anchor="start" x="586.88" y="-243.5" font-family="Arial" font-size="10.00"> increases complexity</text>
<text xml:space="preserve" text-anchor="start" x="688.12" y="-243.5" font-family="Arial" font-weight="bold" font-size="10.00">(−)</text>
<text xml:space="preserve" text-anchor="start" x="700.12" y="-243.5" font-family="Arial" font-size="10.00"> decreases complexity</text>
<!-- unknown.grid_matrix -->
<g id="node1" class="node">
<title>unknown.grid_matrix</title>
<path fill="#b8e6b8" stroke="#2c3e50" stroke-width="1.8" d="M353,-69C353,-69 315.25,-69 315.25,-69 309.25,-69 303.25,-63 303.25,-57 303.25,-57 303.25,-45 303.25,-45 303.25,-39 309.25,-33 315.25,-33 315.25,-33 353,-33 353,-33 359,-33 365,-39 365,-45 365,-45 365,-57 365,-57 365,-63 359,-69 353,-69"/>
<text xml:space="preserve" text-anchor="middle" x="334.12" y="-47.5" font-family="Arial" font-size="10.00" fill="#1a1a1a">grid matrix</text>
</g>
<!-- attr_4 -->
<g id="node6" class="node">
<title>attr_4</title>
<path fill="#c7b8e6" stroke="#7f8c8d" stroke-width="1.2" d="M529.38,-101C529.38,-101 442.12,-101 442.12,-101 436.12,-101 430.12,-95 430.12,-89 430.12,-89 430.12,-77 430.12,-77 430.12,-71 436.12,-65 442.12,-65 442.12,-65 529.38,-65 529.38,-65 535.38,-65 541.38,-71 541.38,-77 541.38,-77 541.38,-89 541.38,-89 541.38,-95 535.38,-101 529.38,-101"/>
<text xml:space="preserve" text-anchor="middle" x="485.75" y="-79.5" font-family="Arial" font-size="10.00" fill="#1a1a1a">(+) multi matrix layout</text>
</g>
<!-- unknown.grid_matrix&#45;&gt;attr_4 -->
<g id="edge1" class="edge">
<title>unknown.grid_matrix&#45;&gt;attr_4</title>
<path fill="none" stroke="#aaaaaa" d="M365.76,-57.55C381.85,-60.99 402.18,-65.34 421.46,-69.46"/>
<polygon fill="#aaaaaa" stroke="#aaaaaa" points="420.81,-71.83 428.16,-70.9 421.83,-67.04 420.81,-71.83"/>
</g>
<!-- rel_3 -->
<g id="node15" class="node">
<title>rel_3</title>
<path fill="#f5b8b8" stroke="#d46a6a" stroke-width="1.2" d="M537.25,-36C537.25,-36 434.25,-36 434.25,-36 428.25,-36 422.25,-30 422.25,-24 422.25,-24 422.25,-12 422.25,-12 422.25,-6 428.25,0 434.25,0 434.25,0 537.25,0 537.25,0 543.25,0 549.25,-6 549.25,-12 549.25,-12 549.25,-24 549.25,-24 549.25,-30 543.25,-36 537.25,-36"/>
<text xml:space="preserve" text-anchor="middle" x="485.75" y="-14.5" font-family="Arial" font-size="10.00" fill="#8b0000">requires effort to compare</text>
</g>
<!-- unknown.grid_matrix&#45;&gt;rel_3 -->
<g id="edge13" class="edge">
<title>unknown.grid_matrix&#45;&gt;rel_3</title>
<path fill="none" stroke="#d46a6a" stroke-width="1.5" d="M365.76,-44.24C379.27,-41.26 395.77,-37.62 412.14,-34.02"/>
<polygon fill="#d46a6a" stroke="#d46a6a" stroke-width="1.5" points="412.3,-36.85 419.51,-32.39 411.1,-31.38 412.3,-36.85"/>
</g>
<!-- unknown.data_points -->
<g id="node2" class="node">
<title>unknown.data_points</title>
<path fill="#b8e6b8" stroke="#2c3e50" stroke-width="1.8" d="M52,-101C52,-101 12,-101 12,-101 6,-101 0,-95 0,-89 0,-89 0,-77 0,-77 0,-71 6,-65 12,-65 12,-65 52,-65 52,-65 58,-65 64,-71 64,-77 64,-77 64,-89 64,-89 64,-95 58,-101 52,-101"/>
<text xml:space="preserve" text-anchor="middle" x="32" y="-79.5" font-family="Arial" font-size="10.00" fill="#1a1a1a">data points</text>
</g>
<!-- attr_0 -->
<g id="node7" class="node">
<title>attr_0</title>
<path fill="#c7b8e6" stroke="#7f8c8d" stroke-width="1.2" d="M228,-134C228,-134 139.25,-134 139.25,-134 133.25,-134 127.25,-128 127.25,-122 127.25,-122 127.25,-110 127.25,-110 127.25,-104 133.25,-98 139.25,-98 139.25,-98 228,-98 228,-98 234,-98 240,-104 240,-110 240,-110 240,-122 240,-122 240,-128 234,-134 228,-134"/>
<text xml:space="preserve" text-anchor="middle" x="183.62" y="-112.5" font-family="Arial" font-size="10.00" fill="#1a1a1a">(+) high density points</text>
</g>
<!-- unknown.data_points&#45;&gt;attr_0 -->
<g id="edge2" class="edge">
<title>unknown.data_points&#45;&gt;attr_0</title>
<path fill="none" stroke="#aaaaaa" d="M64.73,-90C80.42,-93.46 99.95,-97.77 118.57,-101.87"/>
<polygon fill="#aaaaaa" stroke="#aaaaaa" points="117.92,-104.24 125.29,-103.35 118.98,-99.45 117.92,-104.24"/>
</g>
<!-- rel_0 -->
<g id="node12" class="node">
<title>rel_0</title>
<path fill="#f5b8b8" stroke="#d46a6a" stroke-width="1.2" d="M248.25,-69C248.25,-69 119,-69 119,-69 113,-69 107,-63 107,-57 107,-57 107,-45 107,-45 107,-39 113,-33 119,-33 119,-33 248.25,-33 248.25,-33 254.25,-33 260.25,-39 260.25,-45 260.25,-45 260.25,-57 260.25,-57 260.25,-63 254.25,-69 248.25,-69"/>
<text xml:space="preserve" text-anchor="middle" x="183.62" y="-47.5" font-family="Arial" font-size="10.00" fill="#8b0000">increases perceived complexity</text>
</g>
<!-- unknown.data_points&#45;&gt;rel_0 -->
<g id="edge7" class="edge">
<title>unknown.data_points&#45;&gt;rel_0</title>
<path fill="none" stroke="#d46a6a" stroke-width="1.5" d="M64.73,-76.21C74.29,-74.17 85.26,-71.82 96.59,-69.4"/>
<polygon fill="#d46a6a" stroke="#d46a6a" stroke-width="1.5" points="97.15,-72.14 104.39,-67.73 95.98,-66.67 97.15,-72.14"/>
</g>
<!-- unknown.quadrant -->
<g id="node3" class="node">
<title>unknown.quadrant</title>
<path fill="#b8e6b8" stroke="#2c3e50" stroke-width="1.8" d="M349.12,-198C349.12,-198 319.12,-198 319.12,-198 313.12,-198 307.12,-192 307.12,-186 307.12,-186 307.12,-174 307.12,-174 307.12,-168 313.12,-162 319.12,-162 319.12,-162 349.12,-162 349.12,-162 355.12,-162 361.12,-168 361.12,-174 361.12,-174 361.12,-186 361.12,-186 361.12,-192 355.12,-198 349.12,-198"/>
<text xml:space="preserve" text-anchor="middle" x="334.12" y="-176.5" font-family="Arial" font-size="10.00" fill="#1a1a1a">quadrant</text>
</g>
<!-- attr_3 -->
<g id="node8" class="node">
<title>attr_3</title>
<path fill="#c7b8e6" stroke="#7f8c8d" stroke-width="1.2" d="M551.5,-231C551.5,-231 420,-231 420,-231 414,-231 408,-225 408,-219 408,-219 408,-207 408,-207 408,-201 414,-195 420,-195 420,-195 551.5,-195 551.5,-195 557.5,-195 563.5,-201 563.5,-207 563.5,-207 563.5,-219 563.5,-219 563.5,-225 557.5,-231 551.5,-231"/>
<text xml:space="preserve" text-anchor="middle" x="485.75" y="-209.5" font-family="Arial" font-size="10.00" fill="#1a1a1a">(−) provides detailed information</text>
</g>
<!-- unknown.quadrant&#45;&gt;attr_3 -->
<g id="edge3" class="edge">
<title>unknown.quadrant&#45;&gt;attr_3</title>
<path fill="none" stroke="#aaaaaa" d="M361.87,-185.9C372.7,-188.29 385.84,-191.19 399.46,-194.19"/>
<polygon fill="#aaaaaa" stroke="#aaaaaa" points="398.68,-196.53 406.05,-195.64 399.74,-191.74 398.68,-196.53"/>
</g>
<!-- rel_2 -->
<g id="node14" class="node">
<title>rel_2</title>
<path fill="#f5b8b8" stroke="#d46a6a" stroke-width="1.2" d="M549.62,-166C549.62,-166 421.88,-166 421.88,-166 415.88,-166 409.88,-160 409.88,-154 409.88,-154 409.88,-142 409.88,-142 409.88,-136 415.88,-130 421.88,-130 421.88,-130 549.62,-130 549.62,-130 555.62,-130 561.62,-136 561.62,-142 561.62,-142 561.62,-154 561.62,-154 561.62,-160 555.62,-166 549.62,-166"/>
<text xml:space="preserve" text-anchor="middle" x="485.75" y="-144.5" font-family="Arial" font-size="10.00" fill="#8b0000">provides additional detail within</text>
</g>
<!-- unknown.quadrant&#45;&gt;rel_2 -->
<g id="edge11" class="edge">
<title>unknown.quadrant&#45;&gt;rel_2</title>
<path fill="none" stroke="#d46a6a" stroke-width="1.5" d="M361.87,-174.28C372.7,-171.96 385.85,-169.15 399.47,-166.24"/>
<polygon fill="#d46a6a" stroke="#d46a6a" stroke-width="1.5" points="399.99,-168.99 407.22,-164.58 398.82,-163.52 399.99,-168.99"/>
</g>
<!-- unknown.subplot_label -->
<g id="node4" class="node">
<title>unknown.subplot_label</title>
<path fill="#b8e6b8" stroke="#2c3e50" stroke-width="1.8" d="M968.5,-36C968.5,-36 921.75,-36 921.75,-36 915.75,-36 909.75,-30 909.75,-24 909.75,-24 909.75,-12 909.75,-12 909.75,-6 915.75,0 921.75,0 921.75,0 968.5,0 968.5,0 974.5,0 980.5,-6 980.5,-12 980.5,-12 980.5,-24 980.5,-24 980.5,-30 974.5,-36 968.5,-36"/>
<text xml:space="preserve" text-anchor="middle" x="945.12" y="-14.5" font-family="Arial" font-size="10.00" fill="#1a1a1a">subplot label</text>
</g>
<!-- attr_5 -->
<g id="node9" class="node">
<title>attr_5</title>
<path fill="#c7b8e6" stroke="#7f8c8d" stroke-width="1.2" d="M1158,-36C1158,-36 1035.5,-36 1035.5,-36 1029.5,-36 1023.5,-30 1023.5,-24 1023.5,-24 1023.5,-12 1023.5,-12 1023.5,-6 1029.5,0 1035.5,0 1035.5,0 1158,0 1158,0 1164,0 1170,-6 1170,-12 1170,-12 1170,-24 1170,-24 1170,-30 1164,-36 1158,-36"/>
<text xml:space="preserve" text-anchor="middle" x="1096.75" y="-14.5" font-family="Arial" font-size="10.00" fill="#1a1a1a">(+) insufficient differentiation c</text>
</g>
<!-- unknown.subplot_label&#45;&gt;attr_5 -->
<g id="edge4" class="edge">
<title>unknown.subplot_label&#45;&gt;attr_5</title>
<path fill="none" stroke="#aaaaaa" d="M981.21,-18C991.45,-18 1003.1,-18 1014.95,-18"/>
<polygon fill="#aaaaaa" stroke="#aaaaaa" points="1014.65,-20.45 1021.65,-18 1014.65,-15.55 1014.65,-20.45"/>
</g>
<!-- unknown.matrix_panel -->
<g id="node5" class="node">
<title>unknown.matrix_panel</title>
<path fill="#b8e6b8" stroke="#2c3e50" stroke-width="1.8" d="M663.75,-101C663.75,-101 618.5,-101 618.5,-101 612.5,-101 606.5,-95 606.5,-89 606.5,-89 606.5,-77 606.5,-77 606.5,-71 612.5,-65 618.5,-65 618.5,-65 663.75,-65 663.75,-65 669.75,-65 675.75,-71 675.75,-77 675.75,-77 675.75,-89 675.75,-89 675.75,-95 669.75,-101 663.75,-101"/>
<text xml:space="preserve" text-anchor="middle" x="641.12" y="-79.5" font-family="Arial" font-size="10.00" fill="#1a1a1a">matrix panel</text>
</g>
<!-- attr_1 -->
<g id="node10" class="node">
<title>attr_1</title>
<path fill="#c7b8e6" stroke="#7f8c8d" stroke-width="1.2" d="M837.5,-166C837.5,-166 748,-166 748,-166 742,-166 736,-160 736,-154 736,-154 736,-142 736,-142 736,-136 742,-130 748,-130 748,-130 837.5,-130 837.5,-130 843.5,-130 849.5,-136 849.5,-142 849.5,-142 849.5,-154 849.5,-154 849.5,-160 843.5,-166 837.5,-166"/>
<text xml:space="preserve" text-anchor="middle" x="792.75" y="-144.5" font-family="Arial" font-size="10.00" fill="#1a1a1a">(+) four distinct panels</text>
</g>
<!-- unknown.matrix_panel&#45;&gt;attr_1 -->
<g id="edge5" class="edge">
<title>unknown.matrix_panel&#45;&gt;attr_1</title>
<path fill="none" stroke="#aaaaaa" d="M676.45,-97.91C695.66,-106.26 719.97,-116.82 741.31,-126.09"/>
<polygon fill="#aaaaaa" stroke="#aaaaaa" points="740.23,-128.29 747.63,-128.83 742.19,-123.8 740.23,-128.29"/>
</g>
<!-- attr_2 -->
<g id="node11" class="node">
<title>attr_2</title>
<path fill="#c7b8e6" stroke="#7f8c8d" stroke-width="1.2" d="M850.25,-101C850.25,-101 735.25,-101 735.25,-101 729.25,-101 723.25,-95 723.25,-89 723.25,-89 723.25,-77 723.25,-77 723.25,-71 729.25,-65 735.25,-65 735.25,-65 850.25,-65 850.25,-65 856.25,-65 862.25,-71 862.25,-77 862.25,-77 862.25,-89 862.25,-89 862.25,-95 856.25,-101 850.25,-101"/>
<text xml:space="preserve" text-anchor="middle" x="792.75" y="-79.5" font-family="Arial" font-size="10.00" fill="#1a1a1a">(+) unclear panel differences</text>
</g>
<!-- unknown.matrix_panel&#45;&gt;attr_2 -->
<g id="edge6" class="edge">
<title>unknown.matrix_panel&#45;&gt;attr_2</title>
<path fill="none" stroke="#aaaaaa" d="M676.45,-83C687.88,-83 701.12,-83 714.46,-83"/>
<polygon fill="#aaaaaa" stroke="#aaaaaa" points="714.25,-85.45 721.25,-83 714.25,-80.55 714.25,-85.45"/>
</g>
<!-- rel_1 -->
<g id="node13" class="node">
<title>rel_1</title>
<path fill="#f5b8b8" stroke="#d46a6a" stroke-width="1.2" d="M854.75,-36C854.75,-36 730.75,-36 730.75,-36 724.75,-36 718.75,-30 718.75,-24 718.75,-24 718.75,-12 718.75,-12 718.75,-6 724.75,0 730.75,0 730.75,0 854.75,0 854.75,0 860.75,0 866.75,-6 866.75,-12 866.75,-12 866.75,-24 866.75,-24 866.75,-30 860.75,-36 854.75,-36"/>
<text xml:space="preserve" text-anchor="middle" x="792.75" y="-14.5" font-family="Arial" font-size="10.00" fill="#8b0000">obscures distinctions between</text>
</g>
<!-- unknown.matrix_panel&#45;&gt;rel_1 -->
<g id="edge9" class="edge">
<title>unknown.matrix_panel&#45;&gt;rel_1</title>
<path fill="none" stroke="#d46a6a" stroke-width="1.5" d="M676.45,-68.09C695.16,-59.96 718.69,-49.74 739.62,-40.65"/>
<polygon fill="#d46a6a" stroke="#d46a6a" stroke-width="1.5" points="740.71,-43.22 746.94,-37.47 738.48,-38.09 740.71,-43.22"/>
</g>
<!-- rel_0&#45;&gt;unknown.grid_matrix -->
<g id="edge8" class="edge">
<title>rel_0&#45;&gt;unknown.grid_matrix</title>
<path fill="none" stroke="#d46a6a" stroke-width="1.5" d="M260.62,-51C271.52,-51 282.37,-51 292.23,-51"/>
<polygon fill="#d46a6a" stroke="#d46a6a" stroke-width="1.5" points="292.22,-53.8 300.22,-51 292.22,-48.2 292.22,-53.8"/>
</g>
<!-- rel_1&#45;&gt;unknown.subplot_label -->
<g id="edge10" class="edge">
<title>rel_1&#45;&gt;unknown.subplot_label</title>
<path fill="none" stroke="#d46a6a" stroke-width="1.5" d="M867.18,-18C878.02,-18 888.92,-18 898.95,-18"/>
<polygon fill="#d46a6a" stroke="#d46a6a" stroke-width="1.5" points="898.8,-20.8 906.8,-18 898.8,-15.2 898.8,-20.8"/>
</g>
<!-- rel_2&#45;&gt;unknown.matrix_panel -->
<g id="edge12" class="edge">
<title>rel_2&#45;&gt;unknown.matrix_panel</title>
<path fill="none" stroke="#d46a6a" stroke-width="1.5" d="M531.43,-129.47C541.96,-125.08 553.13,-120.39 563.5,-116 574.23,-111.45 585.78,-106.51 596.58,-101.86"/>
<polygon fill="#d46a6a" stroke="#d46a6a" stroke-width="1.5" points="597.51,-104.51 603.75,-98.77 595.29,-99.36 597.51,-104.51"/>
</g>
<!-- rel_3&#45;&gt;unknown.matrix_panel -->
<g id="edge14" class="edge">
<title>rel_3&#45;&gt;unknown.matrix_panel</title>
<path fill="none" stroke="#d46a6a" stroke-width="1.5" d="M531.43,-36.53C541.96,-40.92 553.13,-45.61 563.5,-50 574.23,-54.55 585.78,-59.49 596.58,-64.14"/>
<polygon fill="#d46a6a" stroke="#d46a6a" stroke-width="1.5" points="595.29,-66.64 603.75,-67.23 597.51,-61.49 595.29,-66.64"/>
</g>
</g>
</svg>
