<?xml version="1.0" encoding="UTF-8" standalone="no"?>
<!DOCTYPE svg PUBLIC "-//W3C//DTD SVG 1.1//EN"
 "http://www.w3.org/Graphics/SVG/1.1/DTD/svg11.dtd">
<!-- Generated by graphviz version 14.1.5 (20260411.2331)
 -->
<!-- Title: InfoVisJ.1204.7.png Pages: 1 -->
<svg width="816pt" height="375pt"
 viewBox="0.00 0.00 816.00 375.00" xmlns="http://www.w3.org/2000/svg" xmlns:xlink="http://www.w3.org/1999/xlink">
<g id="graph0" class="graph" transform="scale(1 1) rotate(0) translate(4 371.25)">
<title>InfoVisJ.1204.7.png</title>
<polygon fill="white" stroke="none" points="-4,4 -4,-371.25 811.75,-371.25 811.75,4 -4,4"/>
<text xml:space="preserve" text-anchor="start" x="340.88" y="-346.95" font-family="Arial" font-weight="bold" font-size="14.00">InfoVisJ.1204.7.png</text>
<text xml:space="preserve" text-anchor="start" x="363" y="-327" font-family="Arial" font-size="11.00">Bar &#160;| &#160;VC = 0.42</text>
<path fill="#b8e6b8" stroke="none" d="M194.5,-302C194.5,-302 202.5,-302 202.5,-302 205.5,-302 208.5,-305 208.5,-308 208.5,-308 208.5,-314 208.5,-314 208.5,-317 205.5,-320 202.5,-320 202.5,-320 194.5,-320 194.5,-320 191.5,-320 188.5,-317 188.5,-314 188.5,-314 188.5,-308 188.5,-308 188.5,-305 191.5,-302 194.5,-302"/>
<path fill="none" stroke="black" d="M194.5,-302C194.5,-302 202.5,-302 202.5,-302 205.5,-302 208.5,-305 208.5,-308 208.5,-308 208.5,-314 208.5,-314 208.5,-317 205.5,-320 202.5,-320 202.5,-320 194.5,-320 194.5,-320 191.5,-320 188.5,-317 188.5,-314 188.5,-314 188.5,-308 188.5,-308 188.5,-305 191.5,-302 194.5,-302"/>
<text xml:space="preserve" text-anchor="start" x="197" y="-307.25" font-family="Arial" font-size="10.00"> </text>
<text xml:space="preserve" text-anchor="start" x="212.5" y="-307.25" font-family="Arial" font-size="10.00">Object</text>
<path fill="#c7b8e6" stroke="none" d="M251,-302C251,-302 259,-302 259,-302 262,-302 265,-305 265,-308 265,-308 265,-314 265,-314 265,-317 262,-320 259,-320 259,-320 251,-320 251,-320 248,-320 245,-317 245,-314 245,-314 245,-308 245,-308 245,-305 248,-302 251,-302"/>
<path fill="none" stroke="black" d="M251,-302C251,-302 259,-302 259,-302 262,-302 265,-305 265,-308 265,-308 265,-314 265,-314 265,-317 262,-320 259,-320 259,-320 251,-320 251,-320 248,-320 245,-317 245,-314 245,-314 245,-308 245,-308 245,-305 248,-302 251,-302"/>
<text xml:space="preserve" text-anchor="start" x="253.5" y="-307.25" font-family="Arial" font-size="10.00"> </text>
<text xml:space="preserve" text-anchor="start" x="269" y="-307.25" font-family="Arial" font-size="10.00">Attribute</text>
<path fill="#f5b8b8" stroke="none" d="M315.75,-302C315.75,-302 323.75,-302 323.75,-302 326.75,-302 329.75,-305 329.75,-308 329.75,-308 329.75,-314 329.75,-314 329.75,-317 326.75,-320 323.75,-320 323.75,-320 315.75,-320 315.75,-320 312.75,-320 309.75,-317 309.75,-314 309.75,-314 309.75,-308 309.75,-308 309.75,-305 312.75,-302 315.75,-302"/>
<path fill="none" stroke="black" d="M315.75,-302C315.75,-302 323.75,-302 323.75,-302 326.75,-302 329.75,-305 329.75,-308 329.75,-308 329.75,-314 329.75,-314 329.75,-317 326.75,-320 323.75,-320 323.75,-320 315.75,-320 315.75,-320 312.75,-320 309.75,-317 309.75,-314 309.75,-314 309.75,-308 309.75,-308 309.75,-305 312.75,-302 315.75,-302"/>
<text xml:space="preserve" text-anchor="start" x="318.25" y="-307.25" font-family="Arial" font-size="10.00"> </text>
<text xml:space="preserve" text-anchor="start" x="333.75" y="-307.25" font-family="Arial" font-size="10.00">Relationship</text>
<text xml:space="preserve" text-anchor="start" x="393.75" y="-308.5" font-family="Arial" font-weight="bold" font-size="10.00">(+)</text>
<text xml:space="preserve" text-anchor="start" x="405.75" y="-308.5" font-family="Arial" font-size="10.00"> increases complexity</text>
<text xml:space="preserve" text-anchor="start" x="507" y="-308.5" font-family="Arial" font-weight="bold" font-size="10.00">(−)</text>
<text xml:space="preserve" text-anchor="start" x="519" y="-308.5" font-family="Arial" font-size="10.00"> decreases complexity</text>
<!-- mark.bar -->
<g id="node1" class="node">
<title>mark.bar</title>
<path fill="#b8e6b8" stroke="#2c3e50" stroke-width="1.8" d="M42,-263C42,-263 12,-263 12,-263 6,-263 0,-257 0,-251 0,-251 0,-239 0,-239 0,-233 6,-227 12,-227 12,-227 42,-227 42,-227 48,-227 54,-233 54,-239 54,-239 54,-251 54,-251 54,-257 48,-263 42,-263"/>
<text xml:space="preserve" text-anchor="middle" x="27" y="-241.5" font-family="Arial" font-size="10.00" fill="#1a1a1a">bar</text>
</g>
<!-- attr_1 -->
<g id="node6" class="node">
<title>attr_1</title>
<path fill="#c7b8e6" stroke="#7f8c8d" stroke-width="1.2" d="M209.75,-296C209.75,-296 124,-296 124,-296 118,-296 112,-290 112,-284 112,-284 112,-272 112,-272 112,-266 118,-260 124,-260 124,-260 209.75,-260 209.75,-260 215.75,-260 221.75,-266 221.75,-272 221.75,-272 221.75,-284 221.75,-284 221.75,-290 215.75,-296 209.75,-296"/>
<text xml:space="preserve" text-anchor="middle" x="166.88" y="-274.5" font-family="Arial" font-size="10.00" fill="#1a1a1a">(+) many bars to read</text>
</g>
<!-- mark.bar&#45;&gt;attr_1 -->
<g id="edge1" class="edge">
<title>mark.bar&#45;&gt;attr_1</title>
<path fill="none" stroke="#aaaaaa" d="M54.58,-251.36C68.56,-254.71 86.34,-258.96 103.55,-263.08"/>
<polygon fill="#aaaaaa" stroke="#aaaaaa" points="102.56,-265.36 109.94,-264.61 103.7,-260.6 102.56,-265.36"/>
</g>
<!-- rel_1 -->
<g id="node12" class="node">
<title>rel_1</title>
<path fill="#f5b8b8" stroke="#d46a6a" stroke-width="1.2" d="M189.12,-231C189.12,-231 144.62,-231 144.62,-231 138.62,-231 132.62,-225 132.62,-219 132.62,-219 132.62,-207 132.62,-207 132.62,-201 138.62,-195 144.62,-195 144.62,-195 189.12,-195 189.12,-195 195.12,-195 201.12,-201 201.12,-207 201.12,-207 201.12,-219 201.12,-219 201.12,-225 195.12,-231 189.12,-231"/>
<text xml:space="preserve" text-anchor="middle" x="166.88" y="-209.5" font-family="Arial" font-size="10.00" fill="#8b0000">overwhelms</text>
</g>
<!-- mark.bar&#45;&gt;rel_1 -->
<g id="edge8" class="edge">
<title>mark.bar&#45;&gt;rel_1</title>
<path fill="none" stroke="#d46a6a" stroke-width="1.5" d="M54.58,-238.83C73.72,-234.39 99.97,-228.3 122.16,-223.15"/>
<polygon fill="#d46a6a" stroke="#d46a6a" stroke-width="1.5" points="122.67,-225.9 129.83,-221.37 121.4,-220.45 122.67,-225.9"/>
</g>
<!-- unknown.column -->
<g id="node2" class="node">
<title>unknown.column</title>
<path fill="#b8e6b8" stroke="#2c3e50" stroke-width="1.8" d="M42,-101C42,-101 12,-101 12,-101 6,-101 0,-95 0,-89 0,-89 0,-77 0,-77 0,-71 6,-65 12,-65 12,-65 42,-65 42,-65 48,-65 54,-71 54,-77 54,-77 54,-89 54,-89 54,-95 48,-101 42,-101"/>
<text xml:space="preserve" text-anchor="middle" x="27" y="-79.5" font-family="Arial" font-size="10.00" fill="#1a1a1a">column</text>
</g>
<!-- attr_0 -->
<g id="node7" class="node">
<title>attr_0</title>
<path fill="#c7b8e6" stroke="#7f8c8d" stroke-width="1.2" d="M224.75,-166C224.75,-166 109,-166 109,-166 103,-166 97,-160 97,-154 97,-154 97,-142 97,-142 97,-136 103,-130 109,-130 109,-130 224.75,-130 224.75,-130 230.75,-130 236.75,-136 236.75,-142 236.75,-142 236.75,-154 236.75,-154 236.75,-160 230.75,-166 224.75,-166"/>
<text xml:space="preserve" text-anchor="middle" x="166.88" y="-144.5" font-family="Arial" font-size="10.00" fill="#1a1a1a">(+) multiple columns present</text>
</g>
<!-- unknown.column&#45;&gt;attr_0 -->
<g id="edge2" class="edge">
<title>unknown.column&#45;&gt;attr_0</title>
<path fill="none" stroke="#aaaaaa" d="M54.84,-95.92C67.59,-102.04 83.07,-109.43 97,-116 103.83,-119.22 111.05,-122.6 118.15,-125.91"/>
<polygon fill="#aaaaaa" stroke="#aaaaaa" points="117.03,-128.09 124.41,-128.82 119.09,-123.65 117.03,-128.09"/>
</g>
<!-- rel_0 -->
<g id="node11" class="node">
<title>rel_0</title>
<path fill="#f5b8b8" stroke="#d46a6a" stroke-width="1.2" d="M183.88,-101C183.88,-101 149.88,-101 149.88,-101 143.88,-101 137.88,-95 137.88,-89 137.88,-89 137.88,-77 137.88,-77 137.88,-71 143.88,-65 149.88,-65 149.88,-65 183.88,-65 183.88,-65 189.88,-65 195.88,-71 195.88,-77 195.88,-77 195.88,-89 195.88,-89 195.88,-95 189.88,-101 183.88,-101"/>
<text xml:space="preserve" text-anchor="middle" x="166.88" y="-79.5" font-family="Arial" font-size="10.00" fill="#8b0000">increases</text>
</g>
<!-- unknown.column&#45;&gt;rel_0 -->
<g id="edge6" class="edge">
<title>unknown.column&#45;&gt;rel_0</title>
<path fill="none" stroke="#d46a6a" stroke-width="1.5" d="M54.58,-83C75.21,-83 104.1,-83 127.28,-83"/>
<polygon fill="#d46a6a" stroke="#d46a6a" stroke-width="1.5" points="127.2,-85.8 135.2,-83 127.2,-80.2 127.2,-85.8"/>
</g>
<!-- rel_3 -->
<g id="node14" class="node">
<title>rel_3</title>
<path fill="#f5b8b8" stroke="#d46a6a" stroke-width="1.2" d="M189.12,-36C189.12,-36 144.62,-36 144.62,-36 138.62,-36 132.62,-30 132.62,-24 132.62,-24 132.62,-12 132.62,-12 132.62,-6 138.62,0 144.62,0 144.62,0 189.12,0 189.12,0 195.12,0 201.12,-6 201.12,-12 201.12,-12 201.12,-24 201.12,-24 201.12,-30 195.12,-36 189.12,-36"/>
<text xml:space="preserve" text-anchor="middle" x="166.88" y="-14.5" font-family="Arial" font-size="10.00" fill="#8b0000">complicates</text>
</g>
<!-- unknown.column&#45;&gt;rel_3 -->
<g id="edge12" class="edge">
<title>unknown.column&#45;&gt;rel_3</title>
<path fill="none" stroke="#d46a6a" stroke-width="1.5" d="M54.58,-70.47C73.89,-61.36 100.44,-48.85 122.76,-38.33"/>
<polygon fill="#d46a6a" stroke="#d46a6a" stroke-width="1.5" points="123.94,-40.87 129.98,-34.92 121.55,-35.8 123.94,-40.87"/>
</g>
<!-- content.data -->
<g id="node3" class="node">
<title>content.data</title>
<path fill="#b8e6b8" stroke="#2c3e50" stroke-width="1.8" d="M321.75,-166C321.75,-166 291.75,-166 291.75,-166 285.75,-166 279.75,-160 279.75,-154 279.75,-154 279.75,-142 279.75,-142 279.75,-136 285.75,-130 291.75,-130 291.75,-130 321.75,-130 321.75,-130 327.75,-130 333.75,-136 333.75,-142 333.75,-142 333.75,-154 333.75,-154 333.75,-160 327.75,-166 321.75,-166"/>
<text xml:space="preserve" text-anchor="middle" x="306.75" y="-144.5" font-family="Arial" font-size="10.00" fill="#1a1a1a">data</text>
</g>
<!-- attr_2 -->
<g id="node8" class="node">
<title>attr_2</title>
<path fill="#c7b8e6" stroke="#7f8c8d" stroke-width="1.2" d="M497,-231C497,-231 415.75,-231 415.75,-231 409.75,-231 403.75,-225 403.75,-219 403.75,-219 403.75,-207 403.75,-207 403.75,-201 409.75,-195 415.75,-195 415.75,-195 497,-195 497,-195 503,-195 509,-201 509,-207 509,-207 509,-219 509,-219 509,-225 503,-231 497,-231"/>
<text xml:space="preserve" text-anchor="middle" x="456.38" y="-209.5" font-family="Arial" font-size="10.00" fill="#1a1a1a">(+) high data volume</text>
</g>
<!-- content.data&#45;&gt;attr_2 -->
<g id="edge3" class="edge">
<title>content.data&#45;&gt;attr_2</title>
<path fill="none" stroke="#aaaaaa" d="M334.45,-161.22C347.17,-167.41 362.66,-174.77 376.75,-181 384.51,-184.43 392.76,-187.94 400.89,-191.32"/>
<polygon fill="#aaaaaa" stroke="#aaaaaa" points="399.81,-193.52 407.22,-193.93 401.68,-188.99 399.81,-193.52"/>
</g>
<!-- attr_3 -->
<g id="node9" class="node">
<title>attr_3</title>
<path fill="#c7b8e6" stroke="#7f8c8d" stroke-width="1.2" d="M524,-166C524,-166 388.75,-166 388.75,-166 382.75,-166 376.75,-160 376.75,-154 376.75,-154 376.75,-142 376.75,-142 376.75,-136 382.75,-130 388.75,-130 388.75,-130 524,-130 524,-130 530,-130 536,-136 536,-142 536,-142 536,-154 536,-154 536,-160 530,-166 524,-166"/>
<text xml:space="preserve" text-anchor="middle" x="456.38" y="-144.5" font-family="Arial" font-size="10.00" fill="#1a1a1a">(+) requires more comprehension</text>
</g>
<!-- content.data&#45;&gt;attr_3 -->
<g id="edge4" class="edge">
<title>content.data&#45;&gt;attr_3</title>
<path fill="none" stroke="#aaaaaa" d="M334.48,-148C344.21,-148 355.8,-148 367.9,-148"/>
<polygon fill="#aaaaaa" stroke="#aaaaaa" points="367.82,-150.45 374.82,-148 367.82,-145.55 367.82,-150.45"/>
</g>
<!-- rel_2 -->
<g id="node13" class="node">
<title>rel_2</title>
<path fill="#f5b8b8" stroke="#d46a6a" stroke-width="1.2" d="M472.25,-101C472.25,-101 440.5,-101 440.5,-101 434.5,-101 428.5,-95 428.5,-89 428.5,-89 428.5,-77 428.5,-77 428.5,-71 434.5,-65 440.5,-65 440.5,-65 472.25,-65 472.25,-65 478.25,-65 484.25,-71 484.25,-77 484.25,-77 484.25,-89 484.25,-89 484.25,-95 478.25,-101 472.25,-101"/>
<text xml:space="preserve" text-anchor="middle" x="456.38" y="-79.5" font-family="Arial" font-size="10.00" fill="#8b0000">demands</text>
</g>
<!-- content.data&#45;&gt;rel_2 -->
<g id="edge10" class="edge">
<title>content.data&#45;&gt;rel_2</title>
<path fill="none" stroke="#d46a6a" stroke-width="1.5" d="M334.52,-135.31C347.26,-129.34 362.74,-122.19 376.75,-116 390.37,-109.99 405.43,-103.6 418.69,-98.07"/>
<polygon fill="#d46a6a" stroke="#d46a6a" stroke-width="1.5" points="419.57,-100.74 425.88,-95.08 417.42,-95.56 419.57,-100.74"/>
</g>
<!-- text.axis_label -->
<g id="node4" class="node">
<title>text.axis_label</title>
<path fill="#b8e6b8" stroke="#2c3e50" stroke-width="1.8" d="M624.25,-101C624.25,-101 591,-101 591,-101 585,-101 579,-95 579,-89 579,-89 579,-77 579,-77 579,-71 585,-65 591,-65 591,-65 624.25,-65 624.25,-65 630.25,-65 636.25,-71 636.25,-77 636.25,-77 636.25,-89 636.25,-89 636.25,-95 630.25,-101 624.25,-101"/>
<text xml:space="preserve" text-anchor="middle" x="607.62" y="-79.5" font-family="Arial" font-size="10.00" fill="#1a1a1a">axis label</text>
</g>
<!-- attr_4 -->
<g id="node10" class="node">
<title>attr_4</title>
<path fill="#c7b8e6" stroke="#7f8c8d" stroke-width="1.2" d="M795.75,-101C795.75,-101 691.25,-101 691.25,-101 685.25,-101 679.25,-95 679.25,-89 679.25,-89 679.25,-77 679.25,-77 679.25,-71 685.25,-65 691.25,-65 691.25,-65 795.75,-65 795.75,-65 801.75,-65 807.75,-71 807.75,-77 807.75,-77 807.75,-89 807.75,-89 807.75,-95 801.75,-101 795.75,-101"/>
<text xml:space="preserve" text-anchor="middle" x="743.5" y="-79.5" font-family="Arial" font-size="10.00" fill="#1a1a1a">(+) multiple labels present</text>
</g>
<!-- text.axis_label&#45;&gt;attr_4 -->
<g id="edge5" class="edge">
<title>text.axis_label&#45;&gt;attr_4</title>
<path fill="none" stroke="#aaaaaa" d="M637.02,-83C646.99,-83 658.71,-83 670.63,-83"/>
<polygon fill="#aaaaaa" stroke="#aaaaaa" points="670.38,-85.45 677.38,-83 670.38,-80.55 670.38,-85.45"/>
</g>
<!-- furniture.legend -->
<g id="node5" class="node">
<title>furniture.legend</title>
<path fill="#b8e6b8" stroke="#2c3e50" stroke-width="1.8" d="M321.75,-36C321.75,-36 291.75,-36 291.75,-36 285.75,-36 279.75,-30 279.75,-24 279.75,-24 279.75,-12 279.75,-12 279.75,-6 285.75,0 291.75,0 291.75,0 321.75,0 321.75,0 327.75,0 333.75,-6 333.75,-12 333.75,-12 333.75,-24 333.75,-24 333.75,-30 327.75,-36 321.75,-36"/>
<text xml:space="preserve" text-anchor="middle" x="306.75" y="-14.5" font-family="Arial" font-size="10.00" fill="#1a1a1a">legend</text>
</g>
<!-- rel_0&#45;&gt;content.data -->
<g id="edge7" class="edge">
<title>rel_0&#45;&gt;content.data</title>
<path fill="none" stroke="#d46a6a" stroke-width="1.5" d="M196.44,-96.47C217.79,-106.53 247.12,-120.36 270.03,-131.16"/>
<polygon fill="#d46a6a" stroke="#d46a6a" stroke-width="1.5" points="268.61,-133.58 277.04,-134.46 270.99,-128.52 268.61,-133.58"/>
</g>
<!-- rel_1&#45;&gt;content.data -->
<g id="edge9" class="edge">
<title>rel_1&#45;&gt;content.data</title>
<path fill="none" stroke="#d46a6a" stroke-width="1.5" d="M201.54,-197.45C212.75,-192.25 225.3,-186.4 236.75,-181 247.53,-175.92 259.22,-170.35 269.87,-165.25"/>
<polygon fill="#d46a6a" stroke="#d46a6a" stroke-width="1.5" points="270.86,-167.88 276.87,-161.9 268.44,-162.83 270.86,-167.88"/>
</g>
<!-- rel_2&#45;&gt;text.axis_label -->
<g id="edge11" class="edge">
<title>rel_2&#45;&gt;text.axis_label</title>
<path fill="none" stroke="#d46a6a" stroke-width="1.5" d="M484.75,-83C508.15,-83 542.09,-83 568.21,-83"/>
<polygon fill="#d46a6a" stroke="#d46a6a" stroke-width="1.5" points="567.88,-85.8 575.88,-83 567.88,-80.2 567.88,-85.8"/>
</g>
<!-- rel_3&#45;&gt;furniture.legend -->
<g id="edge13" class="edge">
<title>rel_3&#45;&gt;furniture.legend</title>
<path fill="none" stroke="#d46a6a" stroke-width="1.5" d="M201.6,-18C222.06,-18 248.18,-18 269.14,-18"/>
<polygon fill="#d46a6a" stroke="#d46a6a" stroke-width="1.5" points="269,-20.8 277,-18 269,-15.2 269,-20.8"/>
</g>
</g>
</svg>
