<?xml version="1.0" encoding="UTF-8" standalone="no"?>
<!DOCTYPE svg PUBLIC "-//W3C//DTD SVG 1.1//EN"
 "http://www.w3.org/Graphics/SVG/1.1/DTD/svg11.dtd">
<!-- Generated by graphviz version 14.1.5 (20260411.2331)
 -->
<!-- Title: InfoVisJ.2412.7(2).png Pages: 1 -->
<svg width="504pt" height="505pt"
 viewBox="0.00 0.00 504.00 505.00" xmlns="http://www.w3.org/2000/svg" xmlns:xlink="http://www.w3.org/1999/xlink">
<g id="graph0" class="graph" transform="scale(1 1) rotate(0) translate(4 501.25)">
<title>InfoVisJ.2412.7(2).png</title>
<polygon fill="white" stroke="none" points="-4,4 -4,-501.25 500,-501.25 500,4 -4,4"/>
<text xml:space="preserve" text-anchor="start" x="176.75" y="-476.95" font-family="Arial" font-weight="bold" font-size="14.00">InfoVisJ.2412.7(2).png</text>
<text xml:space="preserve" text-anchor="start" x="190.62" y="-457" font-family="Arial" font-size="11.00">Schematic &#160;| &#160;VC = 0.36</text>
<path fill="#b8e6b8" stroke="none" d="M38.62,-432C38.62,-432 46.62,-432 46.62,-432 49.62,-432 52.62,-435 52.62,-438 52.62,-438 52.62,-444 52.62,-444 52.62,-447 49.62,-450 46.62,-450 46.62,-450 38.62,-450 38.62,-450 35.62,-450 32.62,-447 32.62,-444 32.62,-444 32.62,-438 32.62,-438 32.62,-435 35.62,-432 38.62,-432"/>
<path fill="none" stroke="black" d="M38.62,-432C38.62,-432 46.62,-432 46.62,-432 49.62,-432 52.62,-435 52.62,-438 52.62,-438 52.62,-444 52.62,-444 52.62,-447 49.62,-450 46.62,-450 46.62,-450 38.62,-450 38.62,-450 35.62,-450 32.62,-447 32.62,-444 32.62,-444 32.62,-438 32.62,-438 32.62,-435 35.62,-432 38.62,-432"/>
<text xml:space="preserve" text-anchor="start" x="41.12" y="-437.25" font-family="Arial" font-size="10.00"> </text>
<text xml:space="preserve" text-anchor="start" x="56.62" y="-437.25" font-family="Arial" font-size="10.00">Object</text>
<path fill="#c7b8e6" stroke="none" d="M95.12,-432C95.12,-432 103.12,-432 103.12,-432 106.12,-432 109.12,-435 109.12,-438 109.12,-438 109.12,-444 109.12,-444 109.12,-447 106.12,-450 103.12,-450 103.12,-450 95.12,-450 95.12,-450 92.12,-450 89.12,-447 89.12,-444 89.12,-444 89.12,-438 89.12,-438 89.12,-435 92.12,-432 95.12,-432"/>
<path fill="none" stroke="black" d="M95.12,-432C95.12,-432 103.12,-432 103.12,-432 106.12,-432 109.12,-435 109.12,-438 109.12,-438 109.12,-444 109.12,-444 109.12,-447 106.12,-450 103.12,-450 103.12,-450 95.12,-450 95.12,-450 92.12,-450 89.12,-447 89.12,-444 89.12,-444 89.12,-438 89.12,-438 89.12,-435 92.12,-432 95.12,-432"/>
<text xml:space="preserve" text-anchor="start" x="97.62" y="-437.25" font-family="Arial" font-size="10.00"> </text>
<text xml:space="preserve" text-anchor="start" x="113.12" y="-437.25" font-family="Arial" font-size="10.00">Attribute</text>
<path fill="#f5b8b8" stroke="none" d="M159.88,-432C159.88,-432 167.88,-432 167.88,-432 170.88,-432 173.88,-435 173.88,-438 173.88,-438 173.88,-444 173.88,-444 173.88,-447 170.88,-450 167.88,-450 167.88,-450 159.88,-450 159.88,-450 156.88,-450 153.88,-447 153.88,-444 153.88,-444 153.88,-438 153.88,-438 153.88,-435 156.88,-432 159.88,-432"/>
<path fill="none" stroke="black" d="M159.88,-432C159.88,-432 167.88,-432 167.88,-432 170.88,-432 173.88,-435 173.88,-438 173.88,-438 173.88,-444 173.88,-444 173.88,-447 170.88,-450 167.88,-450 167.88,-450 159.88,-450 159.88,-450 156.88,-450 153.88,-447 153.88,-444 153.88,-444 153.88,-438 153.88,-438 153.88,-435 156.88,-432 159.88,-432"/>
<text xml:space="preserve" text-anchor="start" x="162.38" y="-437.25" font-family="Arial" font-size="10.00"> </text>
<text xml:space="preserve" text-anchor="start" x="177.88" y="-437.25" font-family="Arial" font-size="10.00">Relationship</text>
<text xml:space="preserve" text-anchor="start" x="237.88" y="-438.5" font-family="Arial" font-weight="bold" font-size="10.00">(+)</text>
<text xml:space="preserve" text-anchor="start" x="249.88" y="-438.5" font-family="Arial" font-size="10.00"> increases complexity</text>
<text xml:space="preserve" text-anchor="start" x="351.12" y="-438.5" font-family="Arial" font-weight="bold" font-size="10.00">(−)</text>
<text xml:space="preserve" text-anchor="start" x="363.12" y="-438.5" font-family="Arial" font-size="10.00"> decreases complexity</text>
<!-- unknown.circle -->
<g id="node1" class="node">
<title>unknown.circle</title>
<path fill="#b8e6b8" stroke="#2c3e50" stroke-width="1.8" d="M49.25,-361C49.25,-361 19.25,-361 19.25,-361 13.25,-361 7.25,-355 7.25,-349 7.25,-349 7.25,-337 7.25,-337 7.25,-331 13.25,-325 19.25,-325 19.25,-325 49.25,-325 49.25,-325 55.25,-325 61.25,-331 61.25,-337 61.25,-337 61.25,-349 61.25,-349 61.25,-355 55.25,-361 49.25,-361"/>
<text xml:space="preserve" text-anchor="middle" x="34.25" y="-339.5" font-family="Arial" font-size="10.00" fill="#1a1a1a">circle</text>
</g>
<!-- attr_0 -->
<g id="node5" class="node">
<title>attr_0</title>
<path fill="#c7b8e6" stroke="#7f8c8d" stroke-width="1.2" d="M216,-426C216,-426 127.25,-426 127.25,-426 121.25,-426 115.25,-420 115.25,-414 115.25,-414 115.25,-402 115.25,-402 115.25,-396 121.25,-390 127.25,-390 127.25,-390 216,-390 216,-390 222,-390 228,-396 228,-402 228,-402 228,-414 228,-414 228,-420 222,-426 216,-426"/>
<text xml:space="preserve" text-anchor="middle" x="171.62" y="-404.5" font-family="Arial" font-size="10.00" fill="#1a1a1a">(−) simple clear shape</text>
</g>
<!-- unknown.circle&#45;&gt;attr_0 -->
<g id="edge1" class="edge">
<title>unknown.circle&#45;&gt;attr_0</title>
<path fill="none" stroke="#aaaaaa" d="M62,-355.84C79.84,-364.41 103.76,-375.9 124.62,-385.91"/>
<polygon fill="#aaaaaa" stroke="#aaaaaa" points="123.41,-388.05 130.78,-388.87 125.53,-383.63 123.41,-388.05"/>
</g>
<!-- attr_5 -->
<g id="node6" class="node">
<title>attr_5</title>
<path fill="#c7b8e6" stroke="#7f8c8d" stroke-width="1.2" d="M215.25,-361C215.25,-361 128,-361 128,-361 122,-361 116,-355 116,-349 116,-349 116,-337 116,-337 116,-331 122,-325 128,-325 128,-325 215.25,-325 215.25,-325 221.25,-325 227.25,-331 227.25,-337 227.25,-337 227.25,-349 227.25,-349 227.25,-355 221.25,-361 215.25,-361"/>
<text xml:space="preserve" text-anchor="middle" x="171.62" y="-339.5" font-family="Arial" font-size="10.00" fill="#1a1a1a">(−) familiar basic form</text>
</g>
<!-- unknown.circle&#45;&gt;attr_5 -->
<g id="edge2" class="edge">
<title>unknown.circle&#45;&gt;attr_5</title>
<path fill="none" stroke="#aaaaaa" d="M62,-343C75.05,-343 91.37,-343 107.35,-343"/>
<polygon fill="#aaaaaa" stroke="#aaaaaa" points="107.15,-345.45 114.15,-343 107.15,-340.55 107.15,-345.45"/>
</g>
<!-- rel_0 -->
<g id="node11" class="node">
<title>rel_0</title>
<path fill="#f5b8b8" stroke="#d46a6a" stroke-width="1.2" d="M215.62,-296C215.62,-296 127.62,-296 127.62,-296 121.62,-296 115.62,-290 115.62,-284 115.62,-284 115.62,-272 115.62,-272 115.62,-266 121.62,-260 127.62,-260 127.62,-260 215.62,-260 215.62,-260 221.62,-260 227.62,-266 227.62,-272 227.62,-272 227.62,-284 227.62,-284 227.62,-290 221.62,-296 215.62,-296"/>
<text xml:space="preserve" text-anchor="middle" x="171.62" y="-274.5" font-family="Arial" font-size="10.00" fill="#8b0000">reduces complexity of</text>
</g>
<!-- unknown.circle&#45;&gt;rel_0 -->
<g id="edge7" class="edge">
<title>unknown.circle&#45;&gt;rel_0</title>
<path fill="none" stroke="#d46a6a" stroke-width="1.5" d="M62,-330.16C79.37,-321.82 102.51,-310.71 122.96,-300.88"/>
<polygon fill="#d46a6a" stroke="#d46a6a" stroke-width="1.5" points="124.1,-303.45 130.1,-297.46 121.67,-298.4 124.1,-303.45"/>
</g>
<!-- unknown.source_label -->
<g id="node2" class="node">
<title>unknown.source_label</title>
<path fill="#b8e6b8" stroke="#2c3e50" stroke-width="1.8" d="M56.5,-199C56.5,-199 12,-199 12,-199 6,-199 0,-193 0,-187 0,-187 0,-175 0,-175 0,-169 6,-163 12,-163 12,-163 56.5,-163 56.5,-163 62.5,-163 68.5,-169 68.5,-175 68.5,-175 68.5,-187 68.5,-187 68.5,-193 62.5,-199 56.5,-199"/>
<text xml:space="preserve" text-anchor="middle" x="34.25" y="-177.5" font-family="Arial" font-size="10.00" fill="#1a1a1a">source label</text>
</g>
<!-- attr_1 -->
<g id="node7" class="node">
<title>attr_1</title>
<path fill="#c7b8e6" stroke="#7f8c8d" stroke-width="1.2" d="M219.75,-231C219.75,-231 123.5,-231 123.5,-231 117.5,-231 111.5,-225 111.5,-219 111.5,-219 111.5,-207 111.5,-207 111.5,-201 117.5,-195 123.5,-195 123.5,-195 219.75,-195 219.75,-195 225.75,-195 231.75,-201 231.75,-207 231.75,-207 231.75,-219 231.75,-219 231.75,-225 225.75,-231 219.75,-231"/>
<text xml:space="preserve" text-anchor="middle" x="171.62" y="-209.5" font-family="Arial" font-size="10.00" fill="#1a1a1a">(−) single readable word</text>
</g>
<!-- unknown.source_label&#45;&gt;attr_1 -->
<g id="edge3" class="edge">
<title>unknown.source_label&#45;&gt;attr_1</title>
<path fill="none" stroke="#aaaaaa" d="M69.06,-188.99C79.37,-191.43 91.09,-194.2 102.82,-196.97"/>
<polygon fill="#aaaaaa" stroke="#aaaaaa" points="102.07,-199.31 109.44,-198.54 103.2,-194.54 102.07,-199.31"/>
</g>
<!-- rel_1 -->
<g id="node12" class="node">
<title>rel_1</title>
<path fill="#f5b8b8" stroke="#d46a6a" stroke-width="1.2" d="M186.62,-166C186.62,-166 156.62,-166 156.62,-166 150.62,-166 144.62,-160 144.62,-154 144.62,-154 144.62,-142 144.62,-142 144.62,-136 150.62,-130 156.62,-130 156.62,-130 186.62,-130 186.62,-130 192.62,-130 198.62,-136 198.62,-142 198.62,-142 198.62,-154 198.62,-154 198.62,-160 192.62,-166 186.62,-166"/>
<text xml:space="preserve" text-anchor="middle" x="171.62" y="-144.5" font-family="Arial" font-size="10.00" fill="#8b0000">clarifies</text>
</g>
<!-- unknown.source_label&#45;&gt;rel_1 -->
<g id="edge9" class="edge">
<title>unknown.source_label&#45;&gt;rel_1</title>
<path fill="none" stroke="#d46a6a" stroke-width="1.5" d="M69.06,-172.76C88.89,-167.92 113.95,-161.82 134.21,-156.88"/>
<polygon fill="#d46a6a" stroke="#d46a6a" stroke-width="1.5" points="134.71,-159.64 141.82,-155.02 133.38,-154.2 134.71,-159.64"/>
</g>
<!-- unknown.lines -->
<g id="node3" class="node">
<title>unknown.lines</title>
<path fill="#b8e6b8" stroke="#2c3e50" stroke-width="1.8" d="M49.25,-69C49.25,-69 19.25,-69 19.25,-69 13.25,-69 7.25,-63 7.25,-57 7.25,-57 7.25,-45 7.25,-45 7.25,-39 13.25,-33 19.25,-33 19.25,-33 49.25,-33 49.25,-33 55.25,-33 61.25,-39 61.25,-45 61.25,-45 61.25,-57 61.25,-57 61.25,-63 55.25,-69 49.25,-69"/>
<text xml:space="preserve" text-anchor="middle" x="34.25" y="-47.5" font-family="Arial" font-size="10.00" fill="#1a1a1a">lines</text>
</g>
<!-- attr_2 -->
<g id="node8" class="node">
<title>attr_2</title>
<path fill="#c7b8e6" stroke="#7f8c8d" stroke-width="1.2" d="M214.5,-101C214.5,-101 128.75,-101 128.75,-101 122.75,-101 116.75,-95 116.75,-89 116.75,-89 116.75,-77 116.75,-77 116.75,-71 122.75,-65 128.75,-65 128.75,-65 214.5,-65 214.5,-65 220.5,-65 226.5,-71 226.5,-77 226.5,-77 226.5,-89 226.5,-89 226.5,-95 220.5,-101 214.5,-101"/>
<text xml:space="preserve" text-anchor="middle" x="171.62" y="-79.5" font-family="Arial" font-size="10.00" fill="#1a1a1a">(−) minimal line count</text>
</g>
<!-- unknown.lines&#45;&gt;attr_2 -->
<g id="edge4" class="edge">
<title>unknown.lines&#45;&gt;attr_2</title>
<path fill="none" stroke="#aaaaaa" d="M62,-57.32C75.31,-60.47 92,-64.41 108.28,-68.26"/>
<polygon fill="#aaaaaa" stroke="#aaaaaa" points="107.37,-70.57 114.75,-69.79 108.5,-65.8 107.37,-70.57"/>
</g>
<!-- rel_2 -->
<g id="node13" class="node">
<title>rel_2</title>
<path fill="#f5b8b8" stroke="#d46a6a" stroke-width="1.2" d="M215.62,-36C215.62,-36 127.62,-36 127.62,-36 121.62,-36 115.62,-30 115.62,-24 115.62,-24 115.62,-12 115.62,-12 115.62,-6 121.62,0 127.62,0 127.62,0 215.62,0 215.62,0 221.62,0 227.62,-6 227.62,-12 227.62,-12 227.62,-24 227.62,-24 227.62,-30 221.62,-36 215.62,-36"/>
<text xml:space="preserve" text-anchor="middle" x="171.62" y="-14.5" font-family="Arial" font-size="10.00" fill="#8b0000">supports readability of</text>
</g>
<!-- unknown.lines&#45;&gt;rel_2 -->
<g id="edge11" class="edge">
<title>unknown.lines&#45;&gt;rel_2</title>
<path fill="none" stroke="#d46a6a" stroke-width="1.5" d="M62,-44.48C74.45,-41.44 89.86,-37.69 105.13,-33.97"/>
<polygon fill="#d46a6a" stroke="#d46a6a" stroke-width="1.5" points="105.79,-36.69 112.9,-32.07 104.46,-31.25 105.79,-36.69"/>
</g>
<!-- unknown.overall_layout -->
<g id="node4" class="node">
<title>unknown.overall_layout</title>
<path fill="#b8e6b8" stroke="#2c3e50" stroke-width="1.8" d="M336.5,-166C336.5,-166 286.75,-166 286.75,-166 280.75,-166 274.75,-160 274.75,-154 274.75,-154 274.75,-142 274.75,-142 274.75,-136 280.75,-130 286.75,-130 286.75,-130 336.5,-130 336.5,-130 342.5,-130 348.5,-136 348.5,-142 348.5,-142 348.5,-154 348.5,-154 348.5,-160 342.5,-166 336.5,-166"/>
<text xml:space="preserve" text-anchor="middle" x="311.62" y="-144.5" font-family="Arial" font-size="10.00" fill="#1a1a1a">overall layout</text>
</g>
<!-- attr_3 -->
<g id="node9" class="node">
<title>attr_3</title>
<path fill="#c7b8e6" stroke="#7f8c8d" stroke-width="1.2" d="M482.5,-199C482.5,-199 405,-199 405,-199 399,-199 393,-193 393,-187 393,-187 393,-175 393,-175 393,-169 399,-163 405,-163 405,-163 482.5,-163 482.5,-163 488.5,-163 494.5,-169 494.5,-175 494.5,-175 494.5,-187 494.5,-187 494.5,-193 488.5,-199 482.5,-199"/>
<text xml:space="preserve" text-anchor="middle" x="443.75" y="-177.5" font-family="Arial" font-size="10.00" fill="#1a1a1a">(−) easy to interpret</text>
</g>
<!-- unknown.overall_layout&#45;&gt;attr_3 -->
<g id="edge5" class="edge">
<title>unknown.overall_layout&#45;&gt;attr_3</title>
<path fill="none" stroke="#aaaaaa" d="M349.22,-157.28C360.32,-160.1 372.79,-163.26 384.93,-166.34"/>
<polygon fill="#aaaaaa" stroke="#aaaaaa" points="383.98,-168.62 391.37,-167.97 385.19,-163.87 383.98,-168.62"/>
</g>
<!-- attr_4 -->
<g id="node10" class="node">
<title>attr_4</title>
<path fill="#c7b8e6" stroke="#7f8c8d" stroke-width="1.2" d="M484,-134C484,-134 403.5,-134 403.5,-134 397.5,-134 391.5,-128 391.5,-122 391.5,-122 391.5,-110 391.5,-110 391.5,-104 397.5,-98 403.5,-98 403.5,-98 484,-98 484,-98 490,-98 496,-104 496,-110 496,-110 496,-122 496,-122 496,-128 490,-134 484,-134"/>
<text xml:space="preserve" text-anchor="middle" x="443.75" y="-112.5" font-family="Arial" font-size="10.00" fill="#1a1a1a">(−) low visual clutter</text>
</g>
<!-- unknown.overall_layout&#45;&gt;attr_4 -->
<g id="edge6" class="edge">
<title>unknown.overall_layout&#45;&gt;attr_4</title>
<path fill="none" stroke="#aaaaaa" d="M349.22,-139C359.85,-136.39 371.74,-133.46 383.38,-130.6"/>
<polygon fill="#aaaaaa" stroke="#aaaaaa" points="383.7,-133.04 389.91,-128.99 382.53,-128.29 383.7,-133.04"/>
</g>
<!-- rel_0&#45;&gt;unknown.overall_layout -->
<g id="edge8" class="edge">
<title>rel_0&#45;&gt;unknown.overall_layout</title>
<path fill="none" stroke="#d46a6a" stroke-width="1.5" d="M212.21,-259.43C219.03,-255.45 225.83,-250.93 231.75,-246 256.38,-225.48 278.69,-196.28 293.25,-175.09"/>
<polygon fill="#d46a6a" stroke="#d46a6a" stroke-width="1.5" points="295.4,-176.92 297.55,-168.72 290.75,-173.79 295.4,-176.92"/>
</g>
<!-- rel_1&#45;&gt;unknown.overall_layout -->
<g id="edge10" class="edge">
<title>rel_1&#45;&gt;unknown.overall_layout</title>
<path fill="none" stroke="#d46a6a" stroke-width="1.5" d="M198.91,-148C217.27,-148 242.29,-148 263.99,-148"/>
<polygon fill="#d46a6a" stroke="#d46a6a" stroke-width="1.5" points="263.75,-150.8 271.75,-148 263.75,-145.2 263.75,-150.8"/>
</g>
<!-- rel_2&#45;&gt;unknown.overall_layout -->
<g id="edge12" class="edge">
<title>rel_2&#45;&gt;unknown.overall_layout</title>
<path fill="none" stroke="#d46a6a" stroke-width="1.5" d="M210.93,-36.57C218.17,-40.84 225.45,-45.71 231.75,-51 256.04,-71.4 278.3,-100.11 292.93,-121.01"/>
<polygon fill="#d46a6a" stroke="#d46a6a" stroke-width="1.5" points="290.6,-122.55 297.43,-127.56 295.21,-119.38 290.6,-122.55"/>
</g>
</g>
</svg>
