<?xml version="1.0" encoding="UTF-8" standalone="no"?>
<!DOCTYPE svg PUBLIC "-//W3C//DTD SVG 1.1//EN"
 "http://www.w3.org/Graphics/SVG/1.1/DTD/svg11.dtd">
<!-- Generated by graphviz version 14.1.5 (20260411.2331)
 -->
<!-- Title: MorphableWordClouds5.png Pages: 1 -->
<svg width="831pt" height="342pt"
 viewBox="0.00 0.00 831.00 342.00" xmlns="http://www.w3.org/2000/svg" xmlns:xlink="http://www.w3.org/1999/xlink">
<g id="graph0" class="graph" transform="scale(1 1) rotate(0) translate(4 338.25)">
<title>MorphableWordClouds5.png</title>
<polygon fill="white" stroke="none" points="-4,4 -4,-338.25 827,-338.25 827,4 -4,4"/>
<text xml:space="preserve" text-anchor="start" x="318.88" y="-313.95" font-family="Arial" font-weight="bold" font-size="14.00">MorphableWordClouds5.png</text>
<text xml:space="preserve" text-anchor="start" x="369.5" y="-294" font-family="Arial" font-size="11.00">Text &#160;| &#160;VC = 0.53</text>
<path fill="#b8e6b8" stroke="none" d="M202.12,-269C202.12,-269 210.12,-269 210.12,-269 213.12,-269 216.12,-272 216.12,-275 216.12,-275 216.12,-281 216.12,-281 216.12,-284 213.12,-287 210.12,-287 210.12,-287 202.12,-287 202.12,-287 199.12,-287 196.12,-284 196.12,-281 196.12,-281 196.12,-275 196.12,-275 196.12,-272 199.12,-269 202.12,-269"/>
<path fill="none" stroke="black" d="M202.12,-269C202.12,-269 210.12,-269 210.12,-269 213.12,-269 216.12,-272 216.12,-275 216.12,-275 216.12,-281 216.12,-281 216.12,-284 213.12,-287 210.12,-287 210.12,-287 202.12,-287 202.12,-287 199.12,-287 196.12,-284 196.12,-281 196.12,-281 196.12,-275 196.12,-275 196.12,-272 199.12,-269 202.12,-269"/>
<text xml:space="preserve" text-anchor="start" x="204.62" y="-274.25" font-family="Arial" font-size="10.00"> </text>
<text xml:space="preserve" text-anchor="start" x="220.12" y="-274.25" font-family="Arial" font-size="10.00">Object</text>
<path fill="#c7b8e6" stroke="none" d="M258.62,-269C258.62,-269 266.62,-269 266.62,-269 269.62,-269 272.62,-272 272.62,-275 272.62,-275 272.62,-281 272.62,-281 272.62,-284 269.62,-287 266.62,-287 266.62,-287 258.62,-287 258.62,-287 255.62,-287 252.62,-284 252.62,-281 252.62,-281 252.62,-275 252.62,-275 252.62,-272 255.62,-269 258.62,-269"/>
<path fill="none" stroke="black" d="M258.62,-269C258.62,-269 266.62,-269 266.62,-269 269.62,-269 272.62,-272 272.62,-275 272.62,-275 272.62,-281 272.62,-281 272.62,-284 269.62,-287 266.62,-287 266.62,-287 258.62,-287 258.62,-287 255.62,-287 252.62,-284 252.62,-281 252.62,-281 252.62,-275 252.62,-275 252.62,-272 255.62,-269 258.62,-269"/>
<text xml:space="preserve" text-anchor="start" x="261.12" y="-274.25" font-family="Arial" font-size="10.00"> </text>
<text xml:space="preserve" text-anchor="start" x="276.62" y="-274.25" font-family="Arial" font-size="10.00">Attribute</text>
<path fill="#f5b8b8" stroke="none" d="M323.38,-269C323.38,-269 331.38,-269 331.38,-269 334.38,-269 337.38,-272 337.38,-275 337.38,-275 337.38,-281 337.38,-281 337.38,-284 334.38,-287 331.38,-287 331.38,-287 323.38,-287 323.38,-287 320.38,-287 317.38,-284 317.38,-281 317.38,-281 317.38,-275 317.38,-275 317.38,-272 320.38,-269 323.38,-269"/>
<path fill="none" stroke="black" d="M323.38,-269C323.38,-269 331.38,-269 331.38,-269 334.38,-269 337.38,-272 337.38,-275 337.38,-275 337.38,-281 337.38,-281 337.38,-284 334.38,-287 331.38,-287 331.38,-287 323.38,-287 323.38,-287 320.38,-287 317.38,-284 317.38,-281 317.38,-281 317.38,-275 317.38,-275 317.38,-272 320.38,-269 323.38,-269"/>
<text xml:space="preserve" text-anchor="start" x="325.88" y="-274.25" font-family="Arial" font-size="10.00"> </text>
<text xml:space="preserve" text-anchor="start" x="341.38" y="-274.25" font-family="Arial" font-size="10.00">Relationship</text>
<text xml:space="preserve" text-anchor="start" x="401.38" y="-275.5" font-family="Arial" font-weight="bold" font-size="10.00">(+)</text>
<text xml:space="preserve" text-anchor="start" x="413.38" y="-275.5" font-family="Arial" font-size="10.00"> increases complexity</text>
<text xml:space="preserve" text-anchor="start" x="514.62" y="-275.5" font-family="Arial" font-weight="bold" font-size="10.00">(−)</text>
<text xml:space="preserve" text-anchor="start" x="526.62" y="-275.5" font-family="Arial" font-size="10.00"> decreases complexity</text>
<!-- unknown.word_cloud -->
<g id="node1" class="node">
<title>unknown.word_cloud</title>
<path fill="#b8e6b8" stroke="#2c3e50" stroke-width="1.8" d="M329.5,-101C329.5,-101 290.25,-101 290.25,-101 284.25,-101 278.25,-95 278.25,-89 278.25,-89 278.25,-77 278.25,-77 278.25,-71 284.25,-65 290.25,-65 290.25,-65 329.5,-65 329.5,-65 335.5,-65 341.5,-71 341.5,-77 341.5,-77 341.5,-89 341.5,-89 341.5,-95 335.5,-101 329.5,-101"/>
<text xml:space="preserve" text-anchor="middle" x="309.88" y="-79.5" font-family="Arial" font-size="10.00" fill="#1a1a1a">word cloud</text>
</g>
<!-- attr_0 -->
<g id="node6" class="node">
<title>attr_0</title>
<path fill="#c7b8e6" stroke="#7f8c8d" stroke-width="1.2" d="M490.88,-133C490.88,-133 405.88,-133 405.88,-133 399.88,-133 393.88,-127 393.88,-121 393.88,-121 393.88,-109 393.88,-109 393.88,-103 399.88,-97 405.88,-97 405.88,-97 490.88,-97 490.88,-97 496.88,-97 502.88,-103 502.88,-109 502.88,-109 502.88,-121 502.88,-121 502.88,-127 496.88,-133 490.88,-133"/>
<text xml:space="preserve" text-anchor="middle" x="448.38" y="-111.5" font-family="Arial" font-size="10.00" fill="#1a1a1a">(−) familiar chart type</text>
</g>
<!-- unknown.word_cloud&#45;&gt;attr_0 -->
<g id="edge1" class="edge">
<title>unknown.word_cloud&#45;&gt;attr_0</title>
<path fill="none" stroke="#aaaaaa" d="M342.19,-90.34C355.01,-93.35 370.31,-96.93 385.23,-100.43"/>
<polygon fill="#aaaaaa" stroke="#aaaaaa" points="384.6,-102.8 391.98,-102.01 385.72,-98.03 384.6,-102.8"/>
</g>
<!-- rel_2 -->
<g id="node13" class="node">
<title>rel_2</title>
<path fill="#f5b8b8" stroke="#d46a6a" stroke-width="1.2" d="M463.38,-68C463.38,-68 433.38,-68 433.38,-68 427.38,-68 421.38,-62 421.38,-56 421.38,-56 421.38,-44 421.38,-44 421.38,-38 427.38,-32 433.38,-32 433.38,-32 463.38,-32 463.38,-32 469.38,-32 475.38,-38 475.38,-44 475.38,-44 475.38,-56 475.38,-56 475.38,-62 469.38,-68 463.38,-68"/>
<text xml:space="preserve" text-anchor="middle" x="448.38" y="-46.5" font-family="Arial" font-size="10.00" fill="#8b0000">conveys</text>
</g>
<!-- unknown.word_cloud&#45;&gt;rel_2 -->
<g id="edge10" class="edge">
<title>unknown.word_cloud&#45;&gt;rel_2</title>
<path fill="none" stroke="#d46a6a" stroke-width="1.5" d="M342.19,-75.43C362.71,-70.47 389.61,-63.97 411.06,-58.78"/>
<polygon fill="#d46a6a" stroke="#d46a6a" stroke-width="1.5" points="411.48,-61.56 418.6,-56.96 410.16,-56.12 411.48,-61.56"/>
</g>
<!-- unknown.word -->
<g id="node2" class="node">
<title>unknown.word</title>
<path fill="#b8e6b8" stroke="#2c3e50" stroke-width="1.8" d="M42,-198C42,-198 12,-198 12,-198 6,-198 0,-192 0,-186 0,-186 0,-174 0,-174 0,-168 6,-162 12,-162 12,-162 42,-162 42,-162 48,-162 54,-168 54,-174 54,-174 54,-186 54,-186 54,-192 48,-198 42,-198"/>
<text xml:space="preserve" text-anchor="middle" x="27" y="-176.5" font-family="Arial" font-size="10.00" fill="#1a1a1a">word</text>
</g>
<!-- attr_1 -->
<g id="node7" class="node">
<title>attr_1</title>
<path fill="#c7b8e6" stroke="#7f8c8d" stroke-width="1.2" d="M212.75,-231C212.75,-231 119.5,-231 119.5,-231 113.5,-231 107.5,-225 107.5,-219 107.5,-219 107.5,-207 107.5,-207 107.5,-201 113.5,-195 119.5,-195 119.5,-195 212.75,-195 212.75,-195 218.75,-195 224.75,-201 224.75,-207 224.75,-207 224.75,-219 224.75,-219 224.75,-225 218.75,-231 212.75,-231"/>
<text xml:space="preserve" text-anchor="middle" x="166.12" y="-209.5" font-family="Arial" font-size="10.00" fill="#1a1a1a">(+) many text elements</text>
</g>
<!-- unknown.word&#45;&gt;attr_1 -->
<g id="edge2" class="edge">
<title>unknown.word&#45;&gt;attr_1</title>
<path fill="none" stroke="#aaaaaa" d="M54.76,-186.44C67.44,-189.49 83.2,-193.28 98.81,-197.04"/>
<polygon fill="#aaaaaa" stroke="#aaaaaa" points="98.08,-199.39 105.46,-198.64 99.23,-194.62 98.08,-199.39"/>
</g>
<!-- rel_1 -->
<g id="node12" class="node">
<title>rel_1</title>
<path fill="#f5b8b8" stroke="#d46a6a" stroke-width="1.2" d="M183.12,-166C183.12,-166 149.12,-166 149.12,-166 143.12,-166 137.12,-160 137.12,-154 137.12,-154 137.12,-142 137.12,-142 137.12,-136 143.12,-130 149.12,-130 149.12,-130 183.12,-130 183.12,-130 189.12,-130 195.12,-136 195.12,-142 195.12,-142 195.12,-154 195.12,-154 195.12,-160 189.12,-166 183.12,-166"/>
<text xml:space="preserve" text-anchor="middle" x="166.12" y="-144.5" font-family="Arial" font-size="10.00" fill="#8b0000">populates</text>
</g>
<!-- unknown.word&#45;&gt;rel_1 -->
<g id="edge8" class="edge">
<title>unknown.word&#45;&gt;rel_1</title>
<path fill="none" stroke="#d46a6a" stroke-width="1.5" d="M54.76,-173.75C75.27,-168.97 103.84,-162.3 126.77,-156.95"/>
<polygon fill="#d46a6a" stroke="#d46a6a" stroke-width="1.5" points="127.17,-159.73 134.33,-155.19 125.9,-154.28 127.17,-159.73"/>
</g>
<!-- unknown.font_size -->
<g id="node3" class="node">
<title>unknown.font_size</title>
<path fill="#b8e6b8" stroke="#2c3e50" stroke-width="1.8" d="M324.88,-230C324.88,-230 294.88,-230 294.88,-230 288.88,-230 282.88,-224 282.88,-218 282.88,-218 282.88,-206 282.88,-206 282.88,-200 288.88,-194 294.88,-194 294.88,-194 324.88,-194 324.88,-194 330.88,-194 336.88,-200 336.88,-206 336.88,-206 336.88,-218 336.88,-218 336.88,-224 330.88,-230 324.88,-230"/>
<text xml:space="preserve" text-anchor="middle" x="309.88" y="-208.5" font-family="Arial" font-size="10.00" fill="#1a1a1a">font size</text>
</g>
<!-- attr_2 -->
<g id="node8" class="node">
<title>attr_2</title>
<path fill="#c7b8e6" stroke="#7f8c8d" stroke-width="1.2" d="M500.25,-263C500.25,-263 396.5,-263 396.5,-263 390.5,-263 384.5,-257 384.5,-251 384.5,-251 384.5,-239 384.5,-239 384.5,-233 390.5,-227 396.5,-227 396.5,-227 500.25,-227 500.25,-227 506.25,-227 512.25,-233 512.25,-239 512.25,-239 512.25,-251 512.25,-251 512.25,-257 506.25,-263 500.25,-263"/>
<text xml:space="preserve" text-anchor="middle" x="448.38" y="-241.5" font-family="Arial" font-size="10.00" fill="#1a1a1a">(−) variable size encoding</text>
</g>
<!-- unknown.font_size&#45;&gt;attr_2 -->
<g id="edge3" class="edge">
<title>unknown.font_size&#45;&gt;attr_2</title>
<path fill="none" stroke="#aaaaaa" d="M337.52,-218.44C348.67,-221.14 362.23,-224.41 375.95,-227.73"/>
<polygon fill="#aaaaaa" stroke="#aaaaaa" points="375.18,-230.07 382.56,-229.33 376.34,-225.31 375.18,-230.07"/>
</g>
<!-- rel_0 -->
<g id="node11" class="node">
<title>rel_0</title>
<path fill="#f5b8b8" stroke="#d46a6a" stroke-width="1.2" d="M470.62,-198C470.62,-198 426.12,-198 426.12,-198 420.12,-198 414.12,-192 414.12,-186 414.12,-186 414.12,-174 414.12,-174 414.12,-168 420.12,-162 426.12,-162 426.12,-162 470.62,-162 470.62,-162 476.62,-162 482.62,-168 482.62,-174 482.62,-174 482.62,-186 482.62,-186 482.62,-192 476.62,-198 470.62,-198"/>
<text xml:space="preserve" text-anchor="middle" x="448.38" y="-176.5" font-family="Arial" font-size="10.00" fill="#8b0000">encodes via</text>
</g>
<!-- unknown.font_size&#45;&gt;rel_0 -->
<g id="edge6" class="edge">
<title>unknown.font_size&#45;&gt;rel_0</title>
<path fill="none" stroke="#d46a6a" stroke-width="1.5" d="M337.52,-205.75C356.27,-201.36 381.8,-195.37 403.53,-190.28"/>
<polygon fill="#d46a6a" stroke="#d46a6a" stroke-width="1.5" points="404.17,-193 411.32,-188.45 402.89,-187.55 404.17,-193"/>
</g>
<!-- unknown.word_frequency -->
<g id="node4" class="node">
<title>unknown.word_frequency</title>
<path fill="#b8e6b8" stroke="#2c3e50" stroke-width="1.8" d="M626,-133C626,-133 567.25,-133 567.25,-133 561.25,-133 555.25,-127 555.25,-121 555.25,-121 555.25,-109 555.25,-109 555.25,-103 561.25,-97 567.25,-97 567.25,-97 626,-97 626,-97 632,-97 638,-103 638,-109 638,-109 638,-121 638,-121 638,-127 632,-133 626,-133"/>
<text xml:space="preserve" text-anchor="middle" x="596.62" y="-111.5" font-family="Arial" font-size="10.00" fill="#1a1a1a">word frequency</text>
</g>
<!-- attr_3 -->
<g id="node9" class="node">
<title>attr_3</title>
<path fill="#c7b8e6" stroke="#7f8c8d" stroke-width="1.2" d="M811,-133C811,-133 693,-133 693,-133 687,-133 681,-127 681,-121 681,-121 681,-109 681,-109 681,-103 687,-97 693,-97 693,-97 811,-97 811,-97 817,-97 823,-103 823,-109 823,-109 823,-121 823,-121 823,-127 817,-133 811,-133"/>
<text xml:space="preserve" text-anchor="middle" x="752" y="-111.5" font-family="Arial" font-size="10.00" fill="#1a1a1a">(−) directly readable mapping</text>
</g>
<!-- unknown.word_frequency&#45;&gt;attr_3 -->
<g id="edge4" class="edge">
<title>unknown.word_frequency&#45;&gt;attr_3</title>
<path fill="none" stroke="#aaaaaa" d="M638.73,-115C649.08,-115 660.55,-115 672.08,-115"/>
<polygon fill="#aaaaaa" stroke="#aaaaaa" points="671.96,-117.45 678.96,-115 671.96,-112.55 671.96,-117.45"/>
</g>
<!-- structure.layout -->
<g id="node5" class="node">
<title>structure.layout</title>
<path fill="#b8e6b8" stroke="#2c3e50" stroke-width="1.8" d="M42,-69C42,-69 12,-69 12,-69 6,-69 0,-63 0,-57 0,-57 0,-45 0,-45 0,-39 6,-33 12,-33 12,-33 42,-33 42,-33 48,-33 54,-39 54,-45 54,-45 54,-57 54,-57 54,-63 48,-69 42,-69"/>
<text xml:space="preserve" text-anchor="middle" x="27" y="-47.5" font-family="Arial" font-size="10.00" fill="#1a1a1a">layout</text>
</g>
<!-- attr_4 -->
<g id="node10" class="node">
<title>attr_4</title>
<path fill="#c7b8e6" stroke="#7f8c8d" stroke-width="1.2" d="M223.25,-101C223.25,-101 109,-101 109,-101 103,-101 97,-95 97,-89 97,-89 97,-77 97,-77 97,-71 103,-65 109,-65 109,-65 223.25,-65 223.25,-65 229.25,-65 235.25,-71 235.25,-77 235.25,-77 235.25,-89 235.25,-89 235.25,-95 229.25,-101 223.25,-101"/>
<text xml:space="preserve" text-anchor="middle" x="166.12" y="-79.5" font-family="Arial" font-size="10.00" fill="#1a1a1a">(+) non grid scattered layout</text>
</g>
<!-- structure.layout&#45;&gt;attr_4 -->
<g id="edge5" class="edge">
<title>structure.layout&#45;&gt;attr_4</title>
<path fill="none" stroke="#aaaaaa" d="M54.76,-57.25C64.67,-59.56 76.47,-62.31 88.6,-65.14"/>
<polygon fill="#aaaaaa" stroke="#aaaaaa" points="87.76,-67.46 95.13,-66.67 88.87,-62.69 87.76,-67.46"/>
</g>
<!-- rel_3 -->
<g id="node14" class="node">
<title>rel_3</title>
<path fill="#f5b8b8" stroke="#d46a6a" stroke-width="1.2" d="M191.75,-36C191.75,-36 140.5,-36 140.5,-36 134.5,-36 128.5,-30 128.5,-24 128.5,-24 128.5,-12 128.5,-12 128.5,-6 134.5,0 140.5,0 140.5,0 191.75,0 191.75,0 197.75,0 203.75,-6 203.75,-12 203.75,-12 203.75,-24 203.75,-24 203.75,-30 197.75,-36 191.75,-36"/>
<text xml:space="preserve" text-anchor="middle" x="166.12" y="-14.5" font-family="Arial" font-size="10.00" fill="#8b0000">contributes to</text>
</g>
<!-- structure.layout&#45;&gt;rel_3 -->
<g id="edge12" class="edge">
<title>structure.layout&#45;&gt;rel_3</title>
<path fill="none" stroke="#d46a6a" stroke-width="1.5" d="M54.76,-44.56C72.8,-40.22 97.07,-34.38 118.26,-29.28"/>
<polygon fill="#d46a6a" stroke="#d46a6a" stroke-width="1.5" points="118.72,-32.05 125.85,-27.45 117.41,-26.6 118.72,-32.05"/>
</g>
<!-- rel_0&#45;&gt;unknown.word_frequency -->
<g id="edge7" class="edge">
<title>rel_0&#45;&gt;unknown.word_frequency</title>
<path fill="none" stroke="#d46a6a" stroke-width="1.5" d="M482.93,-165.09C501.36,-156.9 524.58,-146.57 545.16,-137.43"/>
<polygon fill="#d46a6a" stroke="#d46a6a" stroke-width="1.5" points="546.15,-140.05 552.32,-134.25 543.87,-134.94 546.15,-140.05"/>
</g>
<!-- rel_1&#45;&gt;unknown.word_cloud -->
<g id="edge9" class="edge">
<title>rel_1&#45;&gt;unknown.word_cloud</title>
<path fill="none" stroke="#d46a6a" stroke-width="1.5" d="M195.47,-135C216.28,-125.46 244.84,-112.36 268.1,-101.7"/>
<polygon fill="#d46a6a" stroke="#d46a6a" stroke-width="1.5" points="269.2,-104.27 275.31,-98.39 266.87,-99.18 269.2,-104.27"/>
</g>
<!-- rel_2&#45;&gt;unknown.word_frequency -->
<g id="edge11" class="edge">
<title>rel_2&#45;&gt;unknown.word_frequency</title>
<path fill="none" stroke="#d46a6a" stroke-width="1.5" d="M475.86,-61.77C495.19,-70.36 521.98,-82.27 545.33,-92.64"/>
<polygon fill="#d46a6a" stroke="#d46a6a" stroke-width="1.5" points="543.89,-95.07 552.34,-95.76 546.17,-89.95 543.89,-95.07"/>
</g>
<!-- rel_3&#45;&gt;unknown.word_cloud -->
<g id="edge13" class="edge">
<title>rel_3&#45;&gt;unknown.word_cloud</title>
<path fill="none" stroke="#d46a6a" stroke-width="1.5" d="M204,-34.91C223.68,-43.94 247.96,-55.07 268.19,-64.35"/>
<polygon fill="#d46a6a" stroke="#d46a6a" stroke-width="1.5" points="266.97,-66.86 275.41,-67.65 269.3,-61.77 266.97,-66.86"/>
</g>
</g>
</svg>
