<?xml version="1.0" encoding="UTF-8" standalone="no"?>
<!DOCTYPE svg PUBLIC "-//W3C//DTD SVG 1.1//EN"
 "http://www.w3.org/Graphics/SVG/1.1/DTD/svg11.dtd">
<!-- Generated by graphviz version 14.1.5 (20260411.2331)
 -->
<!-- Title: MorphableWordClouds8.png Pages: 1 -->
<svg width="819pt" height="440pt"
 viewBox="0.00 0.00 819.00 440.00" xmlns="http://www.w3.org/2000/svg" xmlns:xlink="http://www.w3.org/1999/xlink">
<g id="graph0" class="graph" transform="scale(1 1) rotate(0) translate(4 436.25)">
<title>MorphableWordClouds8.png</title>
<polygon fill="white" stroke="none" points="-4,4 -4,-436.25 815,-436.25 815,4 -4,4"/>
<text xml:space="preserve" text-anchor="start" x="312.88" y="-411.95" font-family="Arial" font-weight="bold" font-size="14.00">MorphableWordClouds8.png</text>
<text xml:space="preserve" text-anchor="start" x="363.5" y="-392" font-family="Arial" font-size="11.00">Text &#160;| &#160;VC = 0.50</text>
<path fill="#b8e6b8" stroke="none" d="M196.12,-367C196.12,-367 204.12,-367 204.12,-367 207.12,-367 210.12,-370 210.12,-373 210.12,-373 210.12,-379 210.12,-379 210.12,-382 207.12,-385 204.12,-385 204.12,-385 196.12,-385 196.12,-385 193.12,-385 190.12,-382 190.12,-379 190.12,-379 190.12,-373 190.12,-373 190.12,-370 193.12,-367 196.12,-367"/>
<path fill="none" stroke="black" d="M196.12,-367C196.12,-367 204.12,-367 204.12,-367 207.12,-367 210.12,-370 210.12,-373 210.12,-373 210.12,-379 210.12,-379 210.12,-382 207.12,-385 204.12,-385 204.12,-385 196.12,-385 196.12,-385 193.12,-385 190.12,-382 190.12,-379 190.12,-379 190.12,-373 190.12,-373 190.12,-370 193.12,-367 196.12,-367"/>
<text xml:space="preserve" text-anchor="start" x="198.62" y="-372.25" font-family="Arial" font-size="10.00"> </text>
<text xml:space="preserve" text-anchor="start" x="214.12" y="-372.25" font-family="Arial" font-size="10.00">Object</text>
<path fill="#c7b8e6" stroke="none" d="M252.62,-367C252.62,-367 260.62,-367 260.62,-367 263.62,-367 266.62,-370 266.62,-373 266.62,-373 266.62,-379 266.62,-379 266.62,-382 263.62,-385 260.62,-385 260.62,-385 252.62,-385 252.62,-385 249.62,-385 246.62,-382 246.62,-379 246.62,-379 246.62,-373 246.62,-373 246.62,-370 249.62,-367 252.62,-367"/>
<path fill="none" stroke="black" d="M252.62,-367C252.62,-367 260.62,-367 260.62,-367 263.62,-367 266.62,-370 266.62,-373 266.62,-373 266.62,-379 266.62,-379 266.62,-382 263.62,-385 260.62,-385 260.62,-385 252.62,-385 252.62,-385 249.62,-385 246.62,-382 246.62,-379 246.62,-379 246.62,-373 246.62,-373 246.62,-370 249.62,-367 252.62,-367"/>
<text xml:space="preserve" text-anchor="start" x="255.12" y="-372.25" font-family="Arial" font-size="10.00"> </text>
<text xml:space="preserve" text-anchor="start" x="270.62" y="-372.25" font-family="Arial" font-size="10.00">Attribute</text>
<path fill="#f5b8b8" stroke="none" d="M317.38,-367C317.38,-367 325.38,-367 325.38,-367 328.38,-367 331.38,-370 331.38,-373 331.38,-373 331.38,-379 331.38,-379 331.38,-382 328.38,-385 325.38,-385 325.38,-385 317.38,-385 317.38,-385 314.38,-385 311.38,-382 311.38,-379 311.38,-379 311.38,-373 311.38,-373 311.38,-370 314.38,-367 317.38,-367"/>
<path fill="none" stroke="black" d="M317.38,-367C317.38,-367 325.38,-367 325.38,-367 328.38,-367 331.38,-370 331.38,-373 331.38,-373 331.38,-379 331.38,-379 331.38,-382 328.38,-385 325.38,-385 325.38,-385 317.38,-385 317.38,-385 314.38,-385 311.38,-382 311.38,-379 311.38,-379 311.38,-373 311.38,-373 311.38,-370 314.38,-367 317.38,-367"/>
<text xml:space="preserve" text-anchor="start" x="319.88" y="-372.25" font-family="Arial" font-size="10.00"> </text>
<text xml:space="preserve" text-anchor="start" x="335.38" y="-372.25" font-family="Arial" font-size="10.00">Relationship</text>
<text xml:space="preserve" text-anchor="start" x="395.38" y="-373.5" font-family="Arial" font-weight="bold" font-size="10.00">(+)</text>
<text xml:space="preserve" text-anchor="start" x="407.38" y="-373.5" font-family="Arial" font-size="10.00"> increases complexity</text>
<text xml:space="preserve" text-anchor="start" x="508.62" y="-373.5" font-family="Arial" font-weight="bold" font-size="10.00">(−)</text>
<text xml:space="preserve" text-anchor="start" x="520.62" y="-373.5" font-family="Arial" font-size="10.00"> decreases complexity</text>
<!-- unknown.word_cloud -->
<g id="node1" class="node">
<title>unknown.word_cloud</title>
<path fill="#b8e6b8" stroke="#2c3e50" stroke-width="1.8" d="M617,-68C617,-68 577.75,-68 577.75,-68 571.75,-68 565.75,-62 565.75,-56 565.75,-56 565.75,-44 565.75,-44 565.75,-38 571.75,-32 577.75,-32 577.75,-32 617,-32 617,-32 623,-32 629,-38 629,-44 629,-44 629,-56 629,-56 629,-62 623,-68 617,-68"/>
<text xml:space="preserve" text-anchor="middle" x="597.38" y="-46.5" font-family="Arial" font-size="10.00" fill="#1a1a1a">word cloud</text>
</g>
<!-- attr_5 -->
<g id="node6" class="node">
<title>attr_5</title>
<path fill="#c7b8e6" stroke="#7f8c8d" stroke-width="1.2" d="M799,-68C799,-68 684,-68 684,-68 678,-68 672,-62 672,-56 672,-56 672,-44 672,-44 672,-38 678,-32 684,-32 684,-32 799,-32 799,-32 805,-32 811,-38 811,-44 811,-44 811,-56 811,-56 811,-62 805,-68 799,-68"/>
<text xml:space="preserve" text-anchor="middle" x="741.5" y="-46.5" font-family="Arial" font-size="10.00" fill="#1a1a1a">(+) high interpretive difficulty</text>
</g>
<!-- unknown.word_cloud&#45;&gt;attr_5 -->
<g id="edge1" class="edge">
<title>unknown.word_cloud&#45;&gt;attr_5</title>
<path fill="none" stroke="#aaaaaa" d="M629.56,-50C639.66,-50 651.33,-50 663.25,-50"/>
<polygon fill="#aaaaaa" stroke="#aaaaaa" points="663,-52.45 670,-50 663,-47.55 663,-52.45"/>
</g>
<!-- unknown.text_words -->
<g id="node2" class="node">
<title>unknown.text_words</title>
<path fill="#b8e6b8" stroke="#2c3e50" stroke-width="1.8" d="M329.88,-134C329.88,-134 292.12,-134 292.12,-134 286.12,-134 280.12,-128 280.12,-122 280.12,-122 280.12,-110 280.12,-110 280.12,-104 286.12,-98 292.12,-98 292.12,-98 329.88,-98 329.88,-98 335.88,-98 341.88,-104 341.88,-110 341.88,-110 341.88,-122 341.88,-122 341.88,-128 335.88,-134 329.88,-134"/>
<text xml:space="preserve" text-anchor="middle" x="311" y="-112.5" font-family="Arial" font-size="10.00" fill="#1a1a1a">text words</text>
</g>
<!-- attr_0 -->
<g id="node7" class="node">
<title>attr_0</title>
<path fill="#c7b8e6" stroke="#7f8c8d" stroke-width="1.2" d="M510.75,-231C510.75,-231 398,-231 398,-231 392,-231 386,-225 386,-219 386,-219 386,-207 386,-207 386,-201 392,-195 398,-195 398,-195 510.75,-195 510.75,-195 516.75,-195 522.75,-201 522.75,-207 522.75,-207 522.75,-219 522.75,-219 522.75,-225 516.75,-231 510.75,-231"/>
<text xml:space="preserve" text-anchor="middle" x="454.38" y="-209.5" font-family="Arial" font-size="10.00" fill="#1a1a1a">(+) excessive word quantity</text>
</g>
<!-- unknown.text_words&#45;&gt;attr_0 -->
<g id="edge2" class="edge">
<title>unknown.text_words&#45;&gt;attr_0</title>
<path fill="none" stroke="#aaaaaa" d="M330.99,-134.86C345.31,-148.46 365.88,-166.7 386,-180 391.7,-183.77 397.89,-187.38 404.14,-190.74"/>
<polygon fill="#aaaaaa" stroke="#aaaaaa" points="402.79,-192.8 410.13,-193.86 405.05,-188.45 402.79,-192.8"/>
</g>
<!-- attr_1 -->
<g id="node8" class="node">
<title>attr_1</title>
<path fill="#c7b8e6" stroke="#7f8c8d" stroke-width="1.2" d="M509.25,-166C509.25,-166 399.5,-166 399.5,-166 393.5,-166 387.5,-160 387.5,-154 387.5,-154 387.5,-142 387.5,-142 387.5,-136 393.5,-130 399.5,-130 399.5,-130 509.25,-130 509.25,-130 515.25,-130 521.25,-136 521.25,-142 521.25,-142 521.25,-154 521.25,-154 521.25,-160 515.25,-166 509.25,-166"/>
<text xml:space="preserve" text-anchor="middle" x="454.38" y="-144.5" font-family="Arial" font-size="10.00" fill="#1a1a1a">(+) dense text arrangement</text>
</g>
<!-- unknown.text_words&#45;&gt;attr_1 -->
<g id="edge3" class="edge">
<title>unknown.text_words&#45;&gt;attr_1</title>
<path fill="none" stroke="#aaaaaa" d="M342.68,-122.94C353.5,-125.39 366.2,-128.27 379.05,-131.18"/>
<polygon fill="#aaaaaa" stroke="#aaaaaa" points="378.22,-133.5 385.59,-132.66 379.3,-128.72 378.22,-133.5"/>
</g>
<!-- rel_0 -->
<g id="node12" class="node">
<title>rel_0</title>
<path fill="#f5b8b8" stroke="#d46a6a" stroke-width="1.2" d="M476.62,-101C476.62,-101 432.12,-101 432.12,-101 426.12,-101 420.12,-95 420.12,-89 420.12,-89 420.12,-77 420.12,-77 420.12,-71 426.12,-65 432.12,-65 432.12,-65 476.62,-65 476.62,-65 482.62,-65 488.62,-71 488.62,-77 488.62,-77 488.62,-89 488.62,-89 488.62,-95 482.62,-101 476.62,-101"/>
<text xml:space="preserve" text-anchor="middle" x="454.38" y="-79.5" font-family="Arial" font-size="10.00" fill="#8b0000">overwhelms</text>
</g>
<!-- unknown.text_words&#45;&gt;rel_0 -->
<g id="edge7" class="edge">
<title>unknown.text_words&#45;&gt;rel_0</title>
<path fill="none" stroke="#d46a6a" stroke-width="1.5" d="M342.68,-108.84C362.24,-104.27 387.89,-98.29 409.58,-93.22"/>
<polygon fill="#d46a6a" stroke="#d46a6a" stroke-width="1.5" points="410.18,-95.96 417.33,-91.41 408.9,-90.51 410.18,-95.96"/>
</g>
<!-- rel_3 -->
<g id="node15" class="node">
<title>rel_3</title>
<path fill="#f5b8b8" stroke="#d46a6a" stroke-width="1.2" d="M490.88,-36C490.88,-36 417.88,-36 417.88,-36 411.88,-36 405.88,-30 405.88,-24 405.88,-24 405.88,-12 405.88,-12 405.88,-6 411.88,0 417.88,0 417.88,0 490.88,0 490.88,0 496.88,0 502.88,-6 502.88,-12 502.88,-12 502.88,-24 502.88,-24 502.88,-30 496.88,-36 490.88,-36"/>
<text xml:space="preserve" text-anchor="middle" x="454.38" y="-14.5" font-family="Arial" font-size="10.00" fill="#8b0000">increases effort for</text>
</g>
<!-- unknown.text_words&#45;&gt;rel_3 -->
<g id="edge13" class="edge">
<title>unknown.text_words&#45;&gt;rel_3</title>
<path fill="none" stroke="#d46a6a" stroke-width="1.5" d="M329.94,-97.32C344.22,-83.14 365.2,-63.8 386,-50 390.59,-46.96 395.51,-44.04 400.52,-41.3"/>
<polygon fill="#d46a6a" stroke="#d46a6a" stroke-width="1.5" points="401.8,-43.79 407.59,-37.6 399.21,-38.83 401.8,-43.79"/>
</g>
<!-- mark.shape -->
<g id="node3" class="node">
<title>mark.shape</title>
<path fill="#b8e6b8" stroke="#2c3e50" stroke-width="1.8" d="M42,-167C42,-167 12,-167 12,-167 6,-167 0,-161 0,-155 0,-155 0,-143 0,-143 0,-137 6,-131 12,-131 12,-131 42,-131 42,-131 48,-131 54,-137 54,-143 54,-143 54,-155 54,-155 54,-161 48,-167 42,-167"/>
<text xml:space="preserve" text-anchor="middle" x="27" y="-145.5" font-family="Arial" font-size="10.00" fill="#1a1a1a">shape</text>
</g>
<!-- attr_2 -->
<g id="node9" class="node">
<title>attr_2</title>
<path fill="#c7b8e6" stroke="#7f8c8d" stroke-width="1.2" d="M207.12,-199C207.12,-199 125.88,-199 125.88,-199 119.88,-199 113.88,-193 113.88,-187 113.88,-187 113.88,-175 113.88,-175 113.88,-169 119.88,-163 125.88,-163 125.88,-163 207.12,-163 207.12,-163 213.12,-163 219.12,-169 219.12,-175 219.12,-175 219.12,-187 219.12,-187 219.12,-193 213.12,-199 207.12,-199"/>
<text xml:space="preserve" text-anchor="middle" x="166.5" y="-177.5" font-family="Arial" font-size="10.00" fill="#1a1a1a">(+) hard to read form</text>
</g>
<!-- mark.shape&#45;&gt;attr_2 -->
<g id="edge4" class="edge">
<title>mark.shape&#45;&gt;attr_2</title>
<path fill="none" stroke="#aaaaaa" d="M54.84,-155.25C69.27,-158.61 87.7,-162.89 105.35,-167"/>
<polygon fill="#aaaaaa" stroke="#aaaaaa" points="104.54,-169.33 111.92,-168.53 105.65,-164.56 104.54,-169.33"/>
</g>
<!-- rel_1 -->
<g id="node13" class="node">
<title>rel_1</title>
<path fill="#f5b8b8" stroke="#d46a6a" stroke-width="1.2" d="M201.12,-134C201.12,-134 131.88,-134 131.88,-134 125.88,-134 119.88,-128 119.88,-122 119.88,-122 119.88,-110 119.88,-110 119.88,-104 125.88,-98 131.88,-98 131.88,-98 201.12,-98 201.12,-98 207.12,-98 213.12,-104 213.12,-110 213.12,-110 213.12,-122 213.12,-122 213.12,-128 207.12,-134 201.12,-134"/>
<text xml:space="preserve" text-anchor="middle" x="166.5" y="-112.5" font-family="Arial" font-size="10.00" fill="#8b0000">hinders reading of</text>
</g>
<!-- mark.shape&#45;&gt;rel_1 -->
<g id="edge9" class="edge">
<title>mark.shape&#45;&gt;rel_1</title>
<path fill="none" stroke="#d46a6a" stroke-width="1.5" d="M54.84,-142.56C70.48,-138.81 90.8,-133.93 109.75,-129.38"/>
<polygon fill="#d46a6a" stroke="#d46a6a" stroke-width="1.5" points="110.17,-132.16 117.3,-127.57 108.86,-126.71 110.17,-132.16"/>
</g>
<!-- structure.layout -->
<g id="node4" class="node">
<title>structure.layout</title>
<path fill="#b8e6b8" stroke="#2c3e50" stroke-width="1.8" d="M42,-328C42,-328 12,-328 12,-328 6,-328 0,-322 0,-316 0,-316 0,-304 0,-304 0,-298 6,-292 12,-292 12,-292 42,-292 42,-292 48,-292 54,-298 54,-304 54,-304 54,-316 54,-316 54,-322 48,-328 42,-328"/>
<text xml:space="preserve" text-anchor="middle" x="27" y="-306.5" font-family="Arial" font-size="10.00" fill="#1a1a1a">layout</text>
</g>
<!-- attr_3 -->
<g id="node10" class="node">
<title>attr_3</title>
<path fill="#c7b8e6" stroke="#7f8c8d" stroke-width="1.2" d="M224,-361C224,-361 109,-361 109,-361 103,-361 97,-355 97,-349 97,-349 97,-337 97,-337 97,-331 103,-325 109,-325 109,-325 224,-325 224,-325 230,-325 236,-331 236,-337 236,-337 236,-349 236,-349 236,-355 230,-361 224,-361"/>
<text xml:space="preserve" text-anchor="middle" x="166.5" y="-339.5" font-family="Arial" font-size="10.00" fill="#1a1a1a">(+) inconsistent organization</text>
</g>
<!-- structure.layout&#45;&gt;attr_3 -->
<g id="edge5" class="edge">
<title>structure.layout&#45;&gt;attr_3</title>
<path fill="none" stroke="#aaaaaa" d="M54.84,-316.44C64.71,-318.81 76.45,-321.63 88.53,-324.53"/>
<polygon fill="#aaaaaa" stroke="#aaaaaa" points="87.65,-326.84 95.03,-326.09 88.8,-322.07 87.65,-326.84"/>
</g>
<!-- rel_2 -->
<g id="node14" class="node">
<title>rel_2</title>
<path fill="#f5b8b8" stroke="#d46a6a" stroke-width="1.2" d="M200,-296C200,-296 133,-296 133,-296 127,-296 121,-290 121,-284 121,-284 121,-272 121,-272 121,-266 127,-260 133,-260 133,-260 200,-260 200,-260 206,-260 212,-266 212,-272 212,-272 212,-284 212,-284 212,-290 206,-296 200,-296"/>
<text xml:space="preserve" text-anchor="middle" x="166.5" y="-274.5" font-family="Arial" font-size="10.00" fill="#8b0000">reduces clarity of</text>
</g>
<!-- structure.layout&#45;&gt;rel_2 -->
<g id="edge11" class="edge">
<title>structure.layout&#45;&gt;rel_2</title>
<path fill="none" stroke="#d46a6a" stroke-width="1.5" d="M54.84,-303.75C70.74,-300.05 91.49,-295.22 110.72,-290.75"/>
<polygon fill="#d46a6a" stroke="#d46a6a" stroke-width="1.5" points="111.23,-293.51 118.39,-288.96 109.96,-288.05 111.23,-293.51"/>
</g>
<!-- content.data -->
<g id="node5" class="node">
<title>content.data</title>
<path fill="#b8e6b8" stroke="#2c3e50" stroke-width="1.8" d="M331,-296C331,-296 291,-296 291,-296 285,-296 279,-290 279,-284 279,-284 279,-272 279,-272 279,-266 285,-260 291,-260 291,-260 331,-260 331,-260 337,-260 343,-266 343,-272 343,-272 343,-284 343,-284 343,-290 337,-296 331,-296"/>
<text xml:space="preserve" text-anchor="middle" x="311" y="-274.5" font-family="Arial" font-size="10.00" fill="#1a1a1a">information</text>
</g>
<!-- attr_4 -->
<g id="node11" class="node">
<title>attr_4</title>
<path fill="#c7b8e6" stroke="#7f8c8d" stroke-width="1.2" d="M503.62,-296C503.62,-296 405.12,-296 405.12,-296 399.12,-296 393.12,-290 393.12,-284 393.12,-284 393.12,-272 393.12,-272 393.12,-266 399.12,-260 405.12,-260 405.12,-260 503.62,-260 503.62,-260 509.62,-260 515.62,-266 515.62,-272 515.62,-272 515.62,-284 515.62,-284 515.62,-290 509.62,-296 503.62,-296"/>
<text xml:space="preserve" text-anchor="middle" x="454.38" y="-274.5" font-family="Arial" font-size="10.00" fill="#1a1a1a">(+) too much information</text>
</g>
<!-- content.data&#45;&gt;attr_4 -->
<g id="edge6" class="edge">
<title>content.data&#45;&gt;attr_4</title>
<path fill="none" stroke="#aaaaaa" d="M343.73,-278C355.84,-278 370.17,-278 384.41,-278"/>
<polygon fill="#aaaaaa" stroke="#aaaaaa" points="384.26,-280.45 391.26,-278 384.26,-275.55 384.26,-280.45"/>
</g>
<!-- rel_0&#45;&gt;unknown.word_cloud -->
<g id="edge8" class="edge">
<title>rel_0&#45;&gt;unknown.word_cloud</title>
<path fill="none" stroke="#d46a6a" stroke-width="1.5" d="M489.15,-75.1C509.03,-70.44 534.32,-64.52 555.35,-59.6"/>
<polygon fill="#d46a6a" stroke="#d46a6a" stroke-width="1.5" points="555.93,-62.34 563.08,-57.79 554.65,-56.89 555.93,-62.34"/>
</g>
<!-- rel_1&#45;&gt;unknown.text_words -->
<g id="edge10" class="edge">
<title>rel_1&#45;&gt;unknown.text_words</title>
<path fill="none" stroke="#d46a6a" stroke-width="1.5" d="M213.37,-116C231.46,-116 252.07,-116 269.59,-116"/>
<polygon fill="#d46a6a" stroke="#d46a6a" stroke-width="1.5" points="269.23,-118.8 277.23,-116 269.23,-113.2 269.23,-118.8"/>
</g>
<!-- rel_2&#45;&gt;content.data -->
<g id="edge12" class="edge">
<title>rel_2&#45;&gt;content.data</title>
<path fill="none" stroke="#d46a6a" stroke-width="1.5" d="M212.59,-278C230.45,-278 250.85,-278 268.36,-278"/>
<polygon fill="#d46a6a" stroke="#d46a6a" stroke-width="1.5" points="268.02,-280.8 276.02,-278 268.02,-275.2 268.02,-280.8"/>
</g>
<!-- rel_3&#45;&gt;unknown.word_cloud -->
<g id="edge14" class="edge">
<title>rel_3&#45;&gt;unknown.word_cloud</title>
<path fill="none" stroke="#d46a6a" stroke-width="1.5" d="M503.11,-28.83C520.05,-32.68 538.95,-36.97 555.28,-40.67"/>
<polygon fill="#d46a6a" stroke="#d46a6a" stroke-width="1.5" points="554.45,-43.36 562.87,-42.4 555.69,-37.89 554.45,-43.36"/>
</g>
</g>
</svg>
