<?xml version="1.0" encoding="UTF-8" standalone="no"?>
<!DOCTYPE svg PUBLIC "-//W3C//DTD SVG 1.1//EN"
 "http://www.w3.org/Graphics/SVG/1.1/DTD/svg11.dtd">
<!-- Generated by graphviz version 14.1.5 (20260411.2331)
 -->
<!-- Title: MorphableWordClouds12.png Pages: 1 -->
<svg width="783pt" height="307pt"
 viewBox="0.00 0.00 783.00 307.00" xmlns="http://www.w3.org/2000/svg" xmlns:xlink="http://www.w3.org/1999/xlink">
<g id="graph0" class="graph" transform="scale(1 1) rotate(0) translate(4 303.25)">
<title>MorphableWordClouds12.png</title>
<polygon fill="white" stroke="none" points="-4,4 -4,-303.25 779,-303.25 779,4 -4,4"/>
<text xml:space="preserve" text-anchor="start" x="291.12" y="-278.95" font-family="Arial" font-weight="bold" font-size="14.00">MorphableWordClouds12.png</text>
<text xml:space="preserve" text-anchor="start" x="345.5" y="-259" font-family="Arial" font-size="11.00">Text &#160;| &#160;VC = 0.53</text>
<path fill="#b8e6b8" stroke="none" d="M178.12,-234C178.12,-234 186.12,-234 186.12,-234 189.12,-234 192.12,-237 192.12,-240 192.12,-240 192.12,-246 192.12,-246 192.12,-249 189.12,-252 186.12,-252 186.12,-252 178.12,-252 178.12,-252 175.12,-252 172.12,-249 172.12,-246 172.12,-246 172.12,-240 172.12,-240 172.12,-237 175.12,-234 178.12,-234"/>
<path fill="none" stroke="black" d="M178.12,-234C178.12,-234 186.12,-234 186.12,-234 189.12,-234 192.12,-237 192.12,-240 192.12,-240 192.12,-246 192.12,-246 192.12,-249 189.12,-252 186.12,-252 186.12,-252 178.12,-252 178.12,-252 175.12,-252 172.12,-249 172.12,-246 172.12,-246 172.12,-240 172.12,-240 172.12,-237 175.12,-234 178.12,-234"/>
<text xml:space="preserve" text-anchor="start" x="180.62" y="-239.25" font-family="Arial" font-size="10.00"> </text>
<text xml:space="preserve" text-anchor="start" x="196.12" y="-239.25" font-family="Arial" font-size="10.00">Object</text>
<path fill="#c7b8e6" stroke="none" d="M234.62,-234C234.62,-234 242.62,-234 242.62,-234 245.62,-234 248.62,-237 248.62,-240 248.62,-240 248.62,-246 248.62,-246 248.62,-249 245.62,-252 242.62,-252 242.62,-252 234.62,-252 234.62,-252 231.62,-252 228.62,-249 228.62,-246 228.62,-246 228.62,-240 228.62,-240 228.62,-237 231.62,-234 234.62,-234"/>
<path fill="none" stroke="black" d="M234.62,-234C234.62,-234 242.62,-234 242.62,-234 245.62,-234 248.62,-237 248.62,-240 248.62,-240 248.62,-246 248.62,-246 248.62,-249 245.62,-252 242.62,-252 242.62,-252 234.62,-252 234.62,-252 231.62,-252 228.62,-249 228.62,-246 228.62,-246 228.62,-240 228.62,-240 228.62,-237 231.62,-234 234.62,-234"/>
<text xml:space="preserve" text-anchor="start" x="237.12" y="-239.25" font-family="Arial" font-size="10.00"> </text>
<text xml:space="preserve" text-anchor="start" x="252.62" y="-239.25" font-family="Arial" font-size="10.00">Attribute</text>
<path fill="#f5b8b8" stroke="none" d="M299.38,-234C299.38,-234 307.38,-234 307.38,-234 310.38,-234 313.38,-237 313.38,-240 313.38,-240 313.38,-246 313.38,-246 313.38,-249 310.38,-252 307.38,-252 307.38,-252 299.38,-252 299.38,-252 296.38,-252 293.38,-249 293.38,-246 293.38,-246 293.38,-240 293.38,-240 293.38,-237 296.38,-234 299.38,-234"/>
<path fill="none" stroke="black" d="M299.38,-234C299.38,-234 307.38,-234 307.38,-234 310.38,-234 313.38,-237 313.38,-240 313.38,-240 313.38,-246 313.38,-246 313.38,-249 310.38,-252 307.38,-252 307.38,-252 299.38,-252 299.38,-252 296.38,-252 293.38,-249 293.38,-246 293.38,-246 293.38,-240 293.38,-240 293.38,-237 296.38,-234 299.38,-234"/>
<text xml:space="preserve" text-anchor="start" x="301.88" y="-239.25" font-family="Arial" font-size="10.00"> </text>
<text xml:space="preserve" text-anchor="start" x="317.38" y="-239.25" font-family="Arial" font-size="10.00">Relationship</text>
<text xml:space="preserve" text-anchor="start" x="377.38" y="-240.5" font-family="Arial" font-weight="bold" font-size="10.00">(+)</text>
<text xml:space="preserve" text-anchor="start" x="389.38" y="-240.5" font-family="Arial" font-size="10.00"> increases complexity</text>
<text xml:space="preserve" text-anchor="start" x="490.62" y="-240.5" font-family="Arial" font-weight="bold" font-size="10.00">(−)</text>
<text xml:space="preserve" text-anchor="start" x="502.62" y="-240.5" font-family="Arial" font-size="10.00"> decreases complexity</text>
<!-- unknown.word_cloud -->
<g id="node1" class="node">
<title>unknown.word_cloud</title>
<path fill="#b8e6b8" stroke="#2c3e50" stroke-width="1.8" d="M56.12,-65C56.12,-65 16.88,-65 16.88,-65 10.88,-65 4.88,-59 4.88,-53 4.88,-53 4.88,-41 4.88,-41 4.88,-35 10.88,-29 16.88,-29 16.88,-29 56.12,-29 56.12,-29 62.12,-29 68.12,-35 68.12,-41 68.12,-41 68.12,-53 68.12,-53 68.12,-59 62.12,-65 56.12,-65"/>
<text xml:space="preserve" text-anchor="middle" x="36.5" y="-43.5" font-family="Arial" font-size="10.00" fill="#1a1a1a">word cloud</text>
</g>
<!-- attr_4 -->
<g id="node5" class="node">
<title>attr_4</title>
<path fill="#c7b8e6" stroke="#7f8c8d" stroke-width="1.2" d="M229.5,-65C229.5,-65 128,-65 128,-65 122,-65 116,-59 116,-53 116,-53 116,-41 116,-41 116,-35 122,-29 128,-29 128,-29 229.5,-29 229.5,-29 235.5,-29 241.5,-35 241.5,-41 241.5,-41 241.5,-53 241.5,-53 241.5,-59 235.5,-65 229.5,-65"/>
<text xml:space="preserve" text-anchor="middle" x="178.75" y="-43.5" font-family="Arial" font-size="10.00" fill="#1a1a1a">(+) moderate text volume</text>
</g>
<!-- unknown.word_cloud&#45;&gt;attr_4 -->
<g id="edge1" class="edge">
<title>unknown.word_cloud&#45;&gt;attr_4</title>
<path fill="none" stroke="#aaaaaa" d="M68.97,-47C80.41,-47 93.84,-47 107.29,-47"/>
<polygon fill="#aaaaaa" stroke="#aaaaaa" points="107.13,-49.45 114.13,-47 107.13,-44.55 107.13,-49.45"/>
</g>
<!-- unknown.words -->
<g id="node2" class="node">
<title>unknown.words</title>
<path fill="#b8e6b8" stroke="#2c3e50" stroke-width="1.8" d="M326.5,-130C326.5,-130 296.5,-130 296.5,-130 290.5,-130 284.5,-124 284.5,-118 284.5,-118 284.5,-106 284.5,-106 284.5,-100 290.5,-94 296.5,-94 296.5,-94 326.5,-94 326.5,-94 332.5,-94 338.5,-100 338.5,-106 338.5,-106 338.5,-118 338.5,-118 338.5,-124 332.5,-130 326.5,-130"/>
<text xml:space="preserve" text-anchor="middle" x="311.5" y="-108.5" font-family="Arial" font-size="10.00" fill="#1a1a1a">words</text>
</g>
<!-- attr_0 -->
<g id="node6" class="node">
<title>attr_0</title>
<path fill="#c7b8e6" stroke="#7f8c8d" stroke-width="1.2" d="M513.75,-228C513.75,-228 393.5,-228 393.5,-228 387.5,-228 381.5,-222 381.5,-216 381.5,-216 381.5,-204 381.5,-204 381.5,-198 387.5,-192 393.5,-192 393.5,-192 513.75,-192 513.75,-192 519.75,-192 525.75,-198 525.75,-204 525.75,-204 525.75,-216 525.75,-216 525.75,-222 519.75,-228 513.75,-228"/>
<text xml:space="preserve" text-anchor="middle" x="453.62" y="-206.5" font-family="Arial" font-size="10.00" fill="#1a1a1a">(−) ordered word arrangement</text>
</g>
<!-- unknown.words&#45;&gt;attr_0 -->
<g id="edge2" class="edge">
<title>unknown.words&#45;&gt;attr_0</title>
<path fill="none" stroke="#aaaaaa" d="M328.92,-130.89C342.08,-145.18 361.57,-164.57 381.5,-178 386.71,-181.51 392.37,-184.8 398.14,-187.83"/>
<polygon fill="#aaaaaa" stroke="#aaaaaa" points="396.79,-189.89 404.14,-190.86 398.99,-185.52 396.79,-189.89"/>
</g>
<!-- attr_3 -->
<g id="node7" class="node">
<title>attr_3</title>
<path fill="#c7b8e6" stroke="#7f8c8d" stroke-width="1.2" d="M513.38,-163C513.38,-163 393.88,-163 393.88,-163 387.88,-163 381.88,-157 381.88,-151 381.88,-151 381.88,-139 381.88,-139 381.88,-133 387.88,-127 393.88,-127 393.88,-127 513.38,-127 513.38,-127 519.38,-127 525.38,-133 525.38,-139 525.38,-139 525.38,-151 525.38,-151 525.38,-157 519.38,-163 513.38,-163"/>
<text xml:space="preserve" text-anchor="middle" x="453.62" y="-141.5" font-family="Arial" font-size="10.00" fill="#1a1a1a">(−) structured word sequence</text>
</g>
<!-- unknown.words&#45;&gt;attr_3 -->
<g id="edge3" class="edge">
<title>unknown.words&#45;&gt;attr_3</title>
<path fill="none" stroke="#aaaaaa" d="M339.19,-118.28C349.15,-120.63 361.05,-123.43 373.33,-126.33"/>
<polygon fill="#aaaaaa" stroke="#aaaaaa" points="372.59,-128.67 379.97,-127.89 373.72,-123.9 372.59,-128.67"/>
</g>
<!-- rel_1 -->
<g id="node11" class="node">
<title>rel_1</title>
<path fill="#f5b8b8" stroke="#d46a6a" stroke-width="1.2" d="M477.38,-98C477.38,-98 429.88,-98 429.88,-98 423.88,-98 417.88,-92 417.88,-86 417.88,-86 417.88,-74 417.88,-74 417.88,-68 423.88,-62 429.88,-62 429.88,-62 477.38,-62 477.38,-62 483.38,-62 489.38,-68 489.38,-74 489.38,-74 489.38,-86 489.38,-86 489.38,-92 483.38,-98 477.38,-98"/>
<text xml:space="preserve" text-anchor="middle" x="453.62" y="-76.5" font-family="Arial" font-size="10.00" fill="#8b0000">organized by</text>
</g>
<!-- unknown.words&#45;&gt;rel_1 -->
<g id="edge8" class="edge">
<title>unknown.words&#45;&gt;rel_1</title>
<path fill="none" stroke="#d46a6a" stroke-width="1.5" d="M339.19,-105.91C358.48,-101.5 385.02,-95.44 407.58,-90.29"/>
<polygon fill="#d46a6a" stroke="#d46a6a" stroke-width="1.5" points="407.9,-93.09 415.08,-88.57 406.66,-87.63 407.9,-93.09"/>
</g>
<!-- unknown.text_layout -->
<g id="node3" class="node">
<title>unknown.text_layout</title>
<path fill="#b8e6b8" stroke="#2c3e50" stroke-width="1.8" d="M618.5,-98C618.5,-98 580.75,-98 580.75,-98 574.75,-98 568.75,-92 568.75,-86 568.75,-86 568.75,-74 568.75,-74 568.75,-68 574.75,-62 580.75,-62 580.75,-62 618.5,-62 618.5,-62 624.5,-62 630.5,-68 630.5,-74 630.5,-74 630.5,-86 630.5,-86 630.5,-92 624.5,-98 618.5,-98"/>
<text xml:space="preserve" text-anchor="middle" x="599.62" y="-76.5" font-family="Arial" font-size="10.00" fill="#1a1a1a">text layout</text>
</g>
<!-- attr_1 -->
<g id="node8" class="node">
<title>attr_1</title>
<path fill="#c7b8e6" stroke="#7f8c8d" stroke-width="1.2" d="M763,-101C763,-101 685.5,-101 685.5,-101 679.5,-101 673.5,-95 673.5,-89 673.5,-89 673.5,-77 673.5,-77 673.5,-71 679.5,-65 685.5,-65 685.5,-65 763,-65 763,-65 769,-65 775,-71 775,-77 775,-77 775,-89 775,-89 775,-95 769,-101 763,-101"/>
<text xml:space="preserve" text-anchor="middle" x="724.25" y="-79.5" font-family="Arial" font-size="10.00" fill="#1a1a1a">(−) easy to interpret</text>
</g>
<!-- unknown.text_layout&#45;&gt;attr_1 -->
<g id="edge4" class="edge">
<title>unknown.text_layout&#45;&gt;attr_1</title>
<path fill="none" stroke="#aaaaaa" d="M631.25,-80.75C641.41,-81 653.09,-81.28 664.64,-81.57"/>
<polygon fill="#aaaaaa" stroke="#aaaaaa" points="664.43,-84.01 671.49,-81.73 664.55,-79.11 664.43,-84.01"/>
</g>
<!-- rel_0 -->
<g id="node10" class="node">
<title>rel_0</title>
<path fill="#f5b8b8" stroke="#d46a6a" stroke-width="1.2" d="M741.25,-36C741.25,-36 707.25,-36 707.25,-36 701.25,-36 695.25,-30 695.25,-24 695.25,-24 695.25,-12 695.25,-12 695.25,-6 701.25,0 707.25,0 707.25,0 741.25,0 741.25,0 747.25,0 753.25,-6 753.25,-12 753.25,-12 753.25,-24 753.25,-24 753.25,-30 747.25,-36 741.25,-36"/>
<text xml:space="preserve" text-anchor="middle" x="724.25" y="-14.5" font-family="Arial" font-size="10.00" fill="#8b0000">facilitates</text>
</g>
<!-- unknown.text_layout&#45;&gt;rel_0 -->
<g id="edge6" class="edge">
<title>unknown.text_layout&#45;&gt;rel_0</title>
<path fill="none" stroke="#d46a6a" stroke-width="1.5" d="M631.25,-64.51C647.8,-56.15 668.38,-45.74 685.87,-36.9"/>
<polygon fill="#d46a6a" stroke="#d46a6a" stroke-width="1.5" points="686.79,-39.57 692.67,-33.46 684.27,-34.57 686.79,-39.57"/>
</g>
<!-- unknown.visual_design -->
<g id="node4" class="node">
<title>unknown.visual_design</title>
<path fill="#b8e6b8" stroke="#2c3e50" stroke-width="1.8" d="M61,-162C61,-162 12,-162 12,-162 6,-162 0,-156 0,-150 0,-150 0,-138 0,-138 0,-132 6,-126 12,-126 12,-126 61,-126 61,-126 67,-126 73,-132 73,-138 73,-138 73,-150 73,-150 73,-156 67,-162 61,-162"/>
<text xml:space="preserve" text-anchor="middle" x="36.5" y="-140.5" font-family="Arial" font-size="10.00" fill="#1a1a1a">visual design</text>
</g>
<!-- attr_2 -->
<g id="node9" class="node">
<title>attr_2</title>
<path fill="#c7b8e6" stroke="#7f8c8d" stroke-width="1.2" d="M222.75,-195C222.75,-195 134.75,-195 134.75,-195 128.75,-195 122.75,-189 122.75,-183 122.75,-183 122.75,-171 122.75,-171 122.75,-165 128.75,-159 134.75,-159 134.75,-159 222.75,-159 222.75,-159 228.75,-159 234.75,-165 234.75,-171 234.75,-171 234.75,-183 234.75,-183 234.75,-189 228.75,-195 222.75,-195"/>
<text xml:space="preserve" text-anchor="middle" x="178.75" y="-173.5" font-family="Arial" font-size="10.00" fill="#1a1a1a">(−) clear visual design</text>
</g>
<!-- unknown.visual_design&#45;&gt;attr_2 -->
<g id="edge5" class="edge">
<title>unknown.visual_design&#45;&gt;attr_2</title>
<path fill="none" stroke="#aaaaaa" d="M73.62,-152.5C86.03,-155.42 100.33,-158.78 114.27,-162.06"/>
<polygon fill="#aaaaaa" stroke="#aaaaaa" points="113.57,-164.41 120.94,-163.63 114.69,-159.65 113.57,-164.41"/>
</g>
<!-- rel_2 -->
<g id="node12" class="node">
<title>rel_2</title>
<path fill="#f5b8b8" stroke="#d46a6a" stroke-width="1.2" d="M222.75,-130C222.75,-130 134.75,-130 134.75,-130 128.75,-130 122.75,-124 122.75,-118 122.75,-118 122.75,-106 122.75,-106 122.75,-100 128.75,-94 134.75,-94 134.75,-94 222.75,-94 222.75,-94 228.75,-94 234.75,-100 234.75,-106 234.75,-106 234.75,-118 234.75,-118 234.75,-124 228.75,-130 222.75,-130"/>
<text xml:space="preserve" text-anchor="middle" x="178.75" y="-108.5" font-family="Arial" font-size="10.00" fill="#8b0000">supports readability of</text>
</g>
<!-- unknown.visual_design&#45;&gt;rel_2 -->
<g id="edge10" class="edge">
<title>unknown.visual_design&#45;&gt;rel_2</title>
<path fill="none" stroke="#d46a6a" stroke-width="1.5" d="M73.62,-135.76C85.57,-133.03 99.26,-129.91 112.7,-126.84"/>
<polygon fill="#d46a6a" stroke="#d46a6a" stroke-width="1.5" points="113.03,-129.64 120.2,-125.13 111.78,-124.18 113.03,-129.64"/>
</g>
<!-- rel_0&#45;&gt;unknown.words -->
<g id="edge7" class="edge">
<title>rel_0&#45;&gt;unknown.words</title>
<path fill="none" stroke="#d46a6a" stroke-width="1.5" d="M694.69,-14.34C633.98,-7.82 488.88,0.96 381.5,-47 362.36,-55.55 345.18,-71.69 332.75,-85.75"/>
<polygon fill="#d46a6a" stroke="#d46a6a" stroke-width="1.5" points="330.86,-83.64 327.82,-91.55 335.13,-87.27 330.86,-83.64"/>
</g>
<!-- rel_1&#45;&gt;unknown.text_layout -->
<g id="edge9" class="edge">
<title>rel_1&#45;&gt;unknown.text_layout</title>
<path fill="none" stroke="#d46a6a" stroke-width="1.5" d="M489.85,-80C510.46,-80 536.56,-80 558.03,-80"/>
<polygon fill="#d46a6a" stroke="#d46a6a" stroke-width="1.5" points="557.88,-82.8 565.88,-80 557.88,-77.2 557.88,-82.8"/>
</g>
<!-- rel_2&#45;&gt;unknown.words -->
<g id="edge11" class="edge">
<title>rel_2&#45;&gt;unknown.words</title>
<path fill="none" stroke="#d46a6a" stroke-width="1.5" d="M235.2,-112C248.23,-112 261.79,-112 273.76,-112"/>
<polygon fill="#d46a6a" stroke="#d46a6a" stroke-width="1.5" points="273.55,-114.8 281.55,-112 273.55,-109.2 273.55,-114.8"/>
</g>
</g>
</svg>
