<?xml version="1.0" encoding="UTF-8" standalone="no"?>
<!DOCTYPE svg PUBLIC "-//W3C//DTD SVG 1.1//EN"
 "http://www.w3.org/Graphics/SVG/1.1/DTD/svg11.dtd">
<!-- Generated by graphviz version 14.1.5 (20260411.2331)
 -->
<!-- Title: MorphableWordClouds13.png Pages: 1 -->
<svg width="504pt" height="440pt"
 viewBox="0.00 0.00 504.00 440.00" xmlns="http://www.w3.org/2000/svg" xmlns:xlink="http://www.w3.org/1999/xlink">
<g id="graph0" class="graph" transform="scale(1 1) rotate(0) translate(4 436.25)">
<title>MorphableWordClouds13.png</title>
<polygon fill="white" stroke="none" points="-4,4 -4,-436.25 499.75,-436.25 499.75,4 -4,4"/>
<text xml:space="preserve" text-anchor="start" x="151.5" y="-411.95" font-family="Arial" font-weight="bold" font-size="14.00">MorphableWordClouds13.png</text>
<text xml:space="preserve" text-anchor="start" x="205.88" y="-392" font-family="Arial" font-size="11.00">Text &#160;| &#160;VC = 0.67</text>
<path fill="#b8e6b8" stroke="none" d="M38.5,-367C38.5,-367 46.5,-367 46.5,-367 49.5,-367 52.5,-370 52.5,-373 52.5,-373 52.5,-379 52.5,-379 52.5,-382 49.5,-385 46.5,-385 46.5,-385 38.5,-385 38.5,-385 35.5,-385 32.5,-382 32.5,-379 32.5,-379 32.5,-373 32.5,-373 32.5,-370 35.5,-367 38.5,-367"/>
<path fill="none" stroke="black" d="M38.5,-367C38.5,-367 46.5,-367 46.5,-367 49.5,-367 52.5,-370 52.5,-373 52.5,-373 52.5,-379 52.5,-379 52.5,-382 49.5,-385 46.5,-385 46.5,-385 38.5,-385 38.5,-385 35.5,-385 32.5,-382 32.5,-379 32.5,-379 32.5,-373 32.5,-373 32.5,-370 35.5,-367 38.5,-367"/>
<text xml:space="preserve" text-anchor="start" x="41" y="-372.25" font-family="Arial" font-size="10.00"> </text>
<text xml:space="preserve" text-anchor="start" x="56.5" y="-372.25" font-family="Arial" font-size="10.00">Object</text>
<path fill="#c7b8e6" stroke="none" d="M95,-367C95,-367 103,-367 103,-367 106,-367 109,-370 109,-373 109,-373 109,-379 109,-379 109,-382 106,-385 103,-385 103,-385 95,-385 95,-385 92,-385 89,-382 89,-379 89,-379 89,-373 89,-373 89,-370 92,-367 95,-367"/>
<path fill="none" stroke="black" d="M95,-367C95,-367 103,-367 103,-367 106,-367 109,-370 109,-373 109,-373 109,-379 109,-379 109,-382 106,-385 103,-385 103,-385 95,-385 95,-385 92,-385 89,-382 89,-379 89,-379 89,-373 89,-373 89,-370 92,-367 95,-367"/>
<text xml:space="preserve" text-anchor="start" x="97.5" y="-372.25" font-family="Arial" font-size="10.00"> </text>
<text xml:space="preserve" text-anchor="start" x="113" y="-372.25" font-family="Arial" font-size="10.00">Attribute</text>
<path fill="#f5b8b8" stroke="none" d="M159.75,-367C159.75,-367 167.75,-367 167.75,-367 170.75,-367 173.75,-370 173.75,-373 173.75,-373 173.75,-379 173.75,-379 173.75,-382 170.75,-385 167.75,-385 167.75,-385 159.75,-385 159.75,-385 156.75,-385 153.75,-382 153.75,-379 153.75,-379 153.75,-373 153.75,-373 153.75,-370 156.75,-367 159.75,-367"/>
<path fill="none" stroke="black" d="M159.75,-367C159.75,-367 167.75,-367 167.75,-367 170.75,-367 173.75,-370 173.75,-373 173.75,-373 173.75,-379 173.75,-379 173.75,-382 170.75,-385 167.75,-385 167.75,-385 159.75,-385 159.75,-385 156.75,-385 153.75,-382 153.75,-379 153.75,-379 153.75,-373 153.75,-373 153.75,-370 156.75,-367 159.75,-367"/>
<text xml:space="preserve" text-anchor="start" x="162.25" y="-372.25" font-family="Arial" font-size="10.00"> </text>
<text xml:space="preserve" text-anchor="start" x="177.75" y="-372.25" font-family="Arial" font-size="10.00">Relationship</text>
<text xml:space="preserve" text-anchor="start" x="237.75" y="-373.5" font-family="Arial" font-weight="bold" font-size="10.00">(+)</text>
<text xml:space="preserve" text-anchor="start" x="249.75" y="-373.5" font-family="Arial" font-size="10.00"> increases complexity</text>
<text xml:space="preserve" text-anchor="start" x="351" y="-373.5" font-family="Arial" font-weight="bold" font-size="10.00">(−)</text>
<text xml:space="preserve" text-anchor="start" x="363" y="-373.5" font-family="Arial" font-size="10.00"> decreases complexity</text>
<!-- unknown.word -->
<g id="node1" class="node">
<title>unknown.word</title>
<path fill="#b8e6b8" stroke="#2c3e50" stroke-width="1.8" d="M328,-166C328,-166 298,-166 298,-166 292,-166 286,-160 286,-154 286,-154 286,-142 286,-142 286,-136 292,-130 298,-130 298,-130 328,-130 328,-130 334,-130 340,-136 340,-142 340,-142 340,-154 340,-154 340,-160 334,-166 328,-166"/>
<text xml:space="preserve" text-anchor="middle" x="313" y="-144.5" font-family="Arial" font-size="10.00" fill="#1a1a1a">word</text>
</g>
<!-- attr_2 -->
<g id="node5" class="node">
<title>attr_2</title>
<path fill="#c7b8e6" stroke="#7f8c8d" stroke-width="1.2" d="M483.75,-199C483.75,-199 395,-199 395,-199 389,-199 383,-193 383,-187 383,-187 383,-175 383,-175 383,-169 389,-163 395,-163 395,-163 483.75,-163 483.75,-163 489.75,-163 495.75,-169 495.75,-175 495.75,-175 495.75,-187 495.75,-187 495.75,-193 489.75,-199 483.75,-199"/>
<text xml:space="preserve" text-anchor="middle" x="439.38" y="-177.5" font-family="Arial" font-size="10.00" fill="#1a1a1a">(+) reduced readability</text>
</g>
<!-- unknown.word&#45;&gt;attr_2 -->
<g id="edge1" class="edge">
<title>unknown.word&#45;&gt;attr_2</title>
<path fill="none" stroke="#aaaaaa" d="M340.68,-155.08C350.75,-157.75 362.69,-160.92 374.7,-164.11"/>
<polygon fill="#aaaaaa" stroke="#aaaaaa" points="373.73,-166.38 381.13,-165.81 374.99,-161.65 373.73,-166.38"/>
</g>
<!-- attr_4 -->
<g id="node6" class="node">
<title>attr_4</title>
<path fill="#c7b8e6" stroke="#7f8c8d" stroke-width="1.2" d="M478.88,-134C478.88,-134 399.88,-134 399.88,-134 393.88,-134 387.88,-128 387.88,-122 387.88,-122 387.88,-110 387.88,-110 387.88,-104 393.88,-98 399.88,-98 399.88,-98 478.88,-98 478.88,-98 484.88,-98 490.88,-104 490.88,-110 490.88,-110 490.88,-122 490.88,-122 490.88,-128 484.88,-134 478.88,-134"/>
<text xml:space="preserve" text-anchor="middle" x="439.38" y="-112.5" font-family="Arial" font-size="10.00" fill="#1a1a1a">(+) high text volume</text>
</g>
<!-- unknown.word&#45;&gt;attr_4 -->
<g id="edge2" class="edge">
<title>unknown.word&#45;&gt;attr_4</title>
<path fill="none" stroke="#aaaaaa" d="M340.68,-141.14C352.08,-138.2 365.87,-134.66 379.45,-131.16"/>
<polygon fill="#aaaaaa" stroke="#aaaaaa" points="379.77,-133.61 385.93,-129.49 378.55,-128.86 379.77,-133.61"/>
</g>
<!-- unknown.font_size -->
<g id="node2" class="node">
<title>unknown.font_size</title>
<path fill="#b8e6b8" stroke="#2c3e50" stroke-width="1.8" d="M45.88,-328C45.88,-328 15.88,-328 15.88,-328 9.88,-328 3.88,-322 3.88,-316 3.88,-316 3.88,-304 3.88,-304 3.88,-298 9.88,-292 15.88,-292 15.88,-292 45.88,-292 45.88,-292 51.88,-292 57.88,-298 57.88,-304 57.88,-304 57.88,-316 57.88,-316 57.88,-322 51.88,-328 45.88,-328"/>
<text xml:space="preserve" text-anchor="middle" x="30.88" y="-306.5" font-family="Arial" font-size="10.00" fill="#1a1a1a">font size</text>
</g>
<!-- attr_0 -->
<g id="node7" class="node">
<title>attr_0</title>
<path fill="#c7b8e6" stroke="#7f8c8d" stroke-width="1.2" d="M218.25,-361C218.25,-361 129.5,-361 129.5,-361 123.5,-361 117.5,-355 117.5,-349 117.5,-349 117.5,-337 117.5,-337 117.5,-331 123.5,-325 129.5,-325 129.5,-325 218.25,-325 218.25,-325 224.25,-325 230.25,-331 230.25,-337 230.25,-337 230.25,-349 230.25,-349 230.25,-355 224.25,-361 218.25,-361"/>
<text xml:space="preserve" text-anchor="middle" x="173.88" y="-339.5" font-family="Arial" font-size="10.00" fill="#1a1a1a">(+) varying word sizes</text>
</g>
<!-- unknown.font_size&#45;&gt;attr_0 -->
<g id="edge3" class="edge">
<title>unknown.font_size&#45;&gt;attr_0</title>
<path fill="none" stroke="#aaaaaa" d="M58.73,-316.28C73,-319.63 91.21,-323.89 108.87,-328.02"/>
<polygon fill="#aaaaaa" stroke="#aaaaaa" points="108.08,-330.35 115.46,-329.56 109.2,-325.58 108.08,-330.35"/>
</g>
<!-- rel_0 -->
<g id="node10" class="node">
<title>rel_0</title>
<path fill="#f5b8b8" stroke="#d46a6a" stroke-width="1.2" d="M199.12,-296C199.12,-296 148.62,-296 148.62,-296 142.62,-296 136.62,-290 136.62,-284 136.62,-284 136.62,-272 136.62,-272 136.62,-266 142.62,-260 148.62,-260 148.62,-260 199.12,-260 199.12,-260 205.12,-260 211.12,-266 211.12,-272 211.12,-272 211.12,-284 211.12,-284 211.12,-290 205.12,-296 199.12,-296"/>
<text xml:space="preserve" text-anchor="middle" x="173.88" y="-274.5" font-family="Arial" font-size="10.00" fill="#8b0000">varies across</text>
</g>
<!-- unknown.font_size&#45;&gt;rel_0 -->
<g id="edge6" class="edge">
<title>unknown.font_size&#45;&gt;rel_0</title>
<path fill="none" stroke="#d46a6a" stroke-width="1.5" d="M58.73,-303.91C77.78,-299.58 103.85,-293.67 126.27,-288.58"/>
<polygon fill="#d46a6a" stroke="#d46a6a" stroke-width="1.5" points="126.87,-291.31 134.05,-286.81 125.63,-285.85 126.87,-291.31"/>
</g>
<!-- unknown.text_layout -->
<g id="node3" class="node">
<title>unknown.text_layout</title>
<path fill="#b8e6b8" stroke="#2c3e50" stroke-width="1.8" d="M49.75,-69C49.75,-69 12,-69 12,-69 6,-69 0,-63 0,-57 0,-57 0,-45 0,-45 0,-39 6,-33 12,-33 12,-33 49.75,-33 49.75,-33 55.75,-33 61.75,-39 61.75,-45 61.75,-45 61.75,-57 61.75,-57 61.75,-63 55.75,-69 49.75,-69"/>
<text xml:space="preserve" text-anchor="middle" x="30.88" y="-47.5" font-family="Arial" font-size="10.00" fill="#1a1a1a">text layout</text>
</g>
<!-- attr_3 -->
<g id="node8" class="node">
<title>attr_3</title>
<path fill="#c7b8e6" stroke="#7f8c8d" stroke-width="1.2" d="M231,-101C231,-101 116.75,-101 116.75,-101 110.75,-101 104.75,-95 104.75,-89 104.75,-89 104.75,-77 104.75,-77 104.75,-71 110.75,-65 116.75,-65 116.75,-65 231,-65 231,-65 237,-65 243,-71 243,-77 243,-77 243,-89 243,-89 243,-95 237,-101 231,-101"/>
<text xml:space="preserve" text-anchor="middle" x="173.88" y="-79.5" font-family="Arial" font-size="10.00" fill="#1a1a1a">(+) dense word arrangement</text>
</g>
<!-- unknown.text_layout&#45;&gt;attr_3 -->
<g id="edge4" class="edge">
<title>unknown.text_layout&#45;&gt;attr_3</title>
<path fill="none" stroke="#aaaaaa" d="M62.47,-57.94C72.54,-60.23 84.23,-62.88 96.15,-65.59"/>
<polygon fill="#aaaaaa" stroke="#aaaaaa" points="95.59,-67.97 102.96,-67.13 96.67,-63.19 95.59,-67.97"/>
</g>
<!-- rel_2 -->
<g id="node12" class="node">
<title>rel_2</title>
<path fill="#f5b8b8" stroke="#d46a6a" stroke-width="1.2" d="M210.38,-36C210.38,-36 137.38,-36 137.38,-36 131.38,-36 125.38,-30 125.38,-24 125.38,-24 125.38,-12 125.38,-12 125.38,-6 131.38,0 137.38,0 137.38,0 210.38,0 210.38,0 216.38,0 222.38,-6 222.38,-12 222.38,-12 222.38,-24 222.38,-24 222.38,-30 216.38,-36 210.38,-36"/>
<text xml:space="preserve" text-anchor="middle" x="173.88" y="-14.5" font-family="Arial" font-size="10.00" fill="#8b0000">increases effort for</text>
</g>
<!-- unknown.text_layout&#45;&gt;rel_2 -->
<g id="edge10" class="edge">
<title>unknown.text_layout&#45;&gt;rel_2</title>
<path fill="none" stroke="#d46a6a" stroke-width="1.5" d="M62.47,-43.84C77.85,-40.24 97,-35.76 115.01,-31.54"/>
<polygon fill="#d46a6a" stroke="#d46a6a" stroke-width="1.5" points="115.51,-34.3 122.66,-29.75 114.23,-28.85 115.51,-34.3"/>
</g>
<!-- unknown.small_text -->
<g id="node4" class="node">
<title>unknown.small_text</title>
<path fill="#b8e6b8" stroke="#2c3e50" stroke-width="1.8" d="M48.25,-199C48.25,-199 13.5,-199 13.5,-199 7.5,-199 1.5,-193 1.5,-187 1.5,-187 1.5,-175 1.5,-175 1.5,-169 7.5,-163 13.5,-163 13.5,-163 48.25,-163 48.25,-163 54.25,-163 60.25,-169 60.25,-175 60.25,-175 60.25,-187 60.25,-187 60.25,-193 54.25,-199 48.25,-199"/>
<text xml:space="preserve" text-anchor="middle" x="30.88" y="-177.5" font-family="Arial" font-size="10.00" fill="#1a1a1a">small text</text>
</g>
<!-- attr_1 -->
<g id="node9" class="node">
<title>attr_1</title>
<path fill="#c7b8e6" stroke="#7f8c8d" stroke-width="1.2" d="M209.25,-231C209.25,-231 138.5,-231 138.5,-231 132.5,-231 126.5,-225 126.5,-219 126.5,-219 126.5,-207 126.5,-207 126.5,-201 132.5,-195 138.5,-195 138.5,-195 209.25,-195 209.25,-195 215.25,-195 221.25,-201 221.25,-207 221.25,-207 221.25,-219 221.25,-219 221.25,-225 215.25,-231 209.25,-231"/>
<text xml:space="preserve" text-anchor="middle" x="173.88" y="-209.5" font-family="Arial" font-size="10.00" fill="#1a1a1a">(+) small font size</text>
</g>
<!-- unknown.small_text&#45;&gt;attr_1 -->
<g id="edge5" class="edge">
<title>unknown.small_text&#45;&gt;attr_1</title>
<path fill="none" stroke="#aaaaaa" d="M61.09,-187.63C77.47,-191.35 98.43,-196.1 117.77,-200.49"/>
<polygon fill="#aaaaaa" stroke="#aaaaaa" points="117.09,-202.85 124.46,-202.01 118.18,-198.07 117.09,-202.85"/>
</g>
<!-- rel_1 -->
<g id="node11" class="node">
<title>rel_1</title>
<path fill="#f5b8b8" stroke="#d46a6a" stroke-width="1.2" d="M188.88,-166C188.88,-166 158.88,-166 158.88,-166 152.88,-166 146.88,-160 146.88,-154 146.88,-154 146.88,-142 146.88,-142 146.88,-136 152.88,-130 158.88,-130 158.88,-130 188.88,-130 188.88,-130 194.88,-130 200.88,-136 200.88,-142 200.88,-142 200.88,-154 200.88,-154 200.88,-160 194.88,-166 188.88,-166"/>
<text xml:space="preserve" text-anchor="middle" x="173.88" y="-144.5" font-family="Arial" font-size="10.00" fill="#8b0000">reduces</text>
</g>
<!-- unknown.small_text&#45;&gt;rel_1 -->
<g id="edge8" class="edge">
<title>unknown.small_text&#45;&gt;rel_1</title>
<path fill="none" stroke="#d46a6a" stroke-width="1.5" d="M61.09,-174.16C83.01,-169.03 113.16,-161.98 136.62,-156.48"/>
<polygon fill="#d46a6a" stroke="#d46a6a" stroke-width="1.5" points="137.19,-159.23 144.34,-154.68 135.91,-153.78 137.19,-159.23"/>
</g>
<!-- rel_0&#45;&gt;unknown.word -->
<g id="edge7" class="edge">
<title>rel_0&#45;&gt;unknown.word</title>
<path fill="none" stroke="#d46a6a" stroke-width="1.5" d="M211.59,-264.94C222.4,-260.03 233.79,-253.73 243,-246 266.32,-226.42 285.53,-197.2 297.7,-175.76"/>
<polygon fill="#d46a6a" stroke="#d46a6a" stroke-width="1.5" points="300.13,-177.16 301.54,-168.8 295.23,-174.46 300.13,-177.16"/>
</g>
<!-- rel_1&#45;&gt;unknown.word -->
<g id="edge9" class="edge">
<title>rel_1&#45;&gt;unknown.word</title>
<path fill="none" stroke="#d46a6a" stroke-width="1.5" d="M201.31,-148C222.24,-148 251.7,-148 274.97,-148"/>
<polygon fill="#d46a6a" stroke="#d46a6a" stroke-width="1.5" points="274.9,-150.8 282.9,-148 274.9,-145.2 274.9,-150.8"/>
</g>
<!-- rel_2&#45;&gt;unknown.word -->
<g id="edge11" class="edge">
<title>rel_2&#45;&gt;unknown.word</title>
<path fill="none" stroke="#d46a6a" stroke-width="1.5" d="M221.16,-36.49C228.87,-40.64 236.48,-45.49 243,-51 266.1,-70.53 285.34,-99.43 297.58,-120.6"/>
<polygon fill="#d46a6a" stroke="#d46a6a" stroke-width="1.5" points="295.07,-121.86 301.43,-127.46 299.95,-119.11 295.07,-121.86"/>
</g>
</g>
</svg>
