<?xml version="1.0" encoding="UTF-8" standalone="no"?>
<!DOCTYPE svg PUBLIC "-//W3C//DTD SVG 1.1//EN"
 "http://www.w3.org/Graphics/SVG/1.1/DTD/svg11.dtd">
<!-- Generated by graphviz version 14.1.5 (20260411.2331)
 -->
<!-- Title: MorphableWordClouds21.png Pages: 1 -->
<svg width="803pt" height="499pt"
 viewBox="0.00 0.00 803.00 499.00" xmlns="http://www.w3.org/2000/svg" xmlns:xlink="http://www.w3.org/1999/xlink">
<g id="graph0" class="graph" transform="scale(1 1) rotate(0) translate(4 495.25)">
<title>MorphableWordClouds21.png</title>
<polygon fill="white" stroke="none" points="-4,4 -4,-495.25 799.25,-495.25 799.25,4 -4,4"/>
<text xml:space="preserve" text-anchor="start" x="301.25" y="-470.95" font-family="Arial" font-weight="bold" font-size="14.00">MorphableWordClouds21.png</text>
<text xml:space="preserve" text-anchor="start" x="355.62" y="-451" font-family="Arial" font-size="11.00">Text &#160;| &#160;VC = 0.58</text>
<path fill="#b8e6b8" stroke="none" d="M188.25,-426C188.25,-426 196.25,-426 196.25,-426 199.25,-426 202.25,-429 202.25,-432 202.25,-432 202.25,-438 202.25,-438 202.25,-441 199.25,-444 196.25,-444 196.25,-444 188.25,-444 188.25,-444 185.25,-444 182.25,-441 182.25,-438 182.25,-438 182.25,-432 182.25,-432 182.25,-429 185.25,-426 188.25,-426"/>
<path fill="none" stroke="black" d="M188.25,-426C188.25,-426 196.25,-426 196.25,-426 199.25,-426 202.25,-429 202.25,-432 202.25,-432 202.25,-438 202.25,-438 202.25,-441 199.25,-444 196.25,-444 196.25,-444 188.25,-444 188.25,-444 185.25,-444 182.25,-441 182.25,-438 182.25,-438 182.25,-432 182.25,-432 182.25,-429 185.25,-426 188.25,-426"/>
<text xml:space="preserve" text-anchor="start" x="190.75" y="-431.25" font-family="Arial" font-size="10.00"> </text>
<text xml:space="preserve" text-anchor="start" x="206.25" y="-431.25" font-family="Arial" font-size="10.00">Object</text>
<path fill="#c7b8e6" stroke="none" d="M244.75,-426C244.75,-426 252.75,-426 252.75,-426 255.75,-426 258.75,-429 258.75,-432 258.75,-432 258.75,-438 258.75,-438 258.75,-441 255.75,-444 252.75,-444 252.75,-444 244.75,-444 244.75,-444 241.75,-444 238.75,-441 238.75,-438 238.75,-438 238.75,-432 238.75,-432 238.75,-429 241.75,-426 244.75,-426"/>
<path fill="none" stroke="black" d="M244.75,-426C244.75,-426 252.75,-426 252.75,-426 255.75,-426 258.75,-429 258.75,-432 258.75,-432 258.75,-438 258.75,-438 258.75,-441 255.75,-444 252.75,-444 252.75,-444 244.75,-444 244.75,-444 241.75,-444 238.75,-441 238.75,-438 238.75,-438 238.75,-432 238.75,-432 238.75,-429 241.75,-426 244.75,-426"/>
<text xml:space="preserve" text-anchor="start" x="247.25" y="-431.25" font-family="Arial" font-size="10.00"> </text>
<text xml:space="preserve" text-anchor="start" x="262.75" y="-431.25" font-family="Arial" font-size="10.00">Attribute</text>
<path fill="#f5b8b8" stroke="none" d="M309.5,-426C309.5,-426 317.5,-426 317.5,-426 320.5,-426 323.5,-429 323.5,-432 323.5,-432 323.5,-438 323.5,-438 323.5,-441 320.5,-444 317.5,-444 317.5,-444 309.5,-444 309.5,-444 306.5,-444 303.5,-441 303.5,-438 303.5,-438 303.5,-432 303.5,-432 303.5,-429 306.5,-426 309.5,-426"/>
<path fill="none" stroke="black" d="M309.5,-426C309.5,-426 317.5,-426 317.5,-426 320.5,-426 323.5,-429 323.5,-432 323.5,-432 323.5,-438 323.5,-438 323.5,-441 320.5,-444 317.5,-444 317.5,-444 309.5,-444 309.5,-444 306.5,-444 303.5,-441 303.5,-438 303.5,-438 303.5,-432 303.5,-432 303.5,-429 306.5,-426 309.5,-426"/>
<text xml:space="preserve" text-anchor="start" x="312" y="-431.25" font-family="Arial" font-size="10.00"> </text>
<text xml:space="preserve" text-anchor="start" x="327.5" y="-431.25" font-family="Arial" font-size="10.00">Relationship</text>
<text xml:space="preserve" text-anchor="start" x="387.5" y="-432.5" font-family="Arial" font-weight="bold" font-size="10.00">(+)</text>
<text xml:space="preserve" text-anchor="start" x="399.5" y="-432.5" font-family="Arial" font-size="10.00"> increases complexity</text>
<text xml:space="preserve" text-anchor="start" x="500.75" y="-432.5" font-family="Arial" font-weight="bold" font-size="10.00">(−)</text>
<text xml:space="preserve" text-anchor="start" x="512.75" y="-432.5" font-family="Arial" font-size="10.00"> decreases complexity</text>
<!-- property.color -->
<g id="node1" class="node">
<title>property.color</title>
<path fill="#b8e6b8" stroke="#2c3e50" stroke-width="1.8" d="M318.5,-360C318.5,-360 288.5,-360 288.5,-360 282.5,-360 276.5,-354 276.5,-348 276.5,-348 276.5,-336 276.5,-336 276.5,-330 282.5,-324 288.5,-324 288.5,-324 318.5,-324 318.5,-324 324.5,-324 330.5,-330 330.5,-336 330.5,-336 330.5,-348 330.5,-348 330.5,-354 324.5,-360 318.5,-360"/>
<text xml:space="preserve" text-anchor="middle" x="303.5" y="-338.5" font-family="Arial" font-size="10.00" fill="#1a1a1a">color</text>
</g>
<!-- attr_0 -->
<g id="node5" class="node">
<title>attr_0</title>
<path fill="#c7b8e6" stroke="#7f8c8d" stroke-width="1.2" d="M486,-420C486,-420 404.75,-420 404.75,-420 398.75,-420 392.75,-414 392.75,-408 392.75,-408 392.75,-396 392.75,-396 392.75,-390 398.75,-384 404.75,-384 404.75,-384 486,-384 486,-384 492,-384 498,-390 498,-396 498,-396 498,-408 498,-408 498,-414 492,-420 486,-420"/>
<text xml:space="preserve" text-anchor="middle" x="445.38" y="-398.5" font-family="Arial" font-size="10.00" fill="#1a1a1a">(+) high color variety</text>
</g>
<!-- property.color&#45;&gt;attr_0 -->
<g id="edge1" class="edge">
<title>property.color&#45;&gt;attr_0</title>
<path fill="none" stroke="#aaaaaa" d="M331.14,-353.43C348.72,-360.97 372.31,-371.09 393.41,-380.14"/>
<polygon fill="#aaaaaa" stroke="#aaaaaa" points="392.27,-382.31 399.67,-382.82 394.2,-377.81 392.27,-382.31"/>
</g>
<!-- rel_0 -->
<g id="node11" class="node">
<title>rel_0</title>
<path fill="#f5b8b8" stroke="#d46a6a" stroke-width="1.2" d="M493.12,-355C493.12,-355 397.62,-355 397.62,-355 391.62,-355 385.62,-349 385.62,-343 385.62,-343 385.62,-331 385.62,-331 385.62,-325 391.62,-319 397.62,-319 397.62,-319 493.12,-319 493.12,-319 499.12,-319 505.12,-325 505.12,-331 505.12,-331 505.12,-343 505.12,-343 505.12,-349 499.12,-355 493.12,-355"/>
<text xml:space="preserve" text-anchor="middle" x="445.38" y="-333.5" font-family="Arial" font-size="10.00" fill="#8b0000">increases complexity of</text>
</g>
<!-- property.color&#45;&gt;rel_0 -->
<g id="edge7" class="edge">
<title>property.color&#45;&gt;rel_0</title>
<path fill="none" stroke="#d46a6a" stroke-width="1.5" d="M331.14,-341.05C343.69,-340.6 359.3,-340.04 374.89,-339.48"/>
<polygon fill="#d46a6a" stroke="#d46a6a" stroke-width="1.5" points="374.93,-342.28 382.83,-339.2 374.73,-336.69 374.93,-342.28"/>
</g>
<!-- text.label -->
<g id="node2" class="node">
<title>text.label</title>
<path fill="#b8e6b8" stroke="#2c3e50" stroke-width="1.8" d="M318.5,-166C318.5,-166 288.5,-166 288.5,-166 282.5,-166 276.5,-160 276.5,-154 276.5,-154 276.5,-142 276.5,-142 276.5,-136 282.5,-130 288.5,-130 288.5,-130 318.5,-130 318.5,-130 324.5,-130 330.5,-136 330.5,-142 330.5,-142 330.5,-154 330.5,-154 330.5,-160 324.5,-166 318.5,-166"/>
<text xml:space="preserve" text-anchor="middle" x="303.5" y="-144.5" font-family="Arial" font-size="10.00" fill="#1a1a1a">text</text>
</g>
<!-- attr_1 -->
<g id="node6" class="node">
<title>attr_1</title>
<path fill="#c7b8e6" stroke="#7f8c8d" stroke-width="1.2" d="M484.88,-231C484.88,-231 405.88,-231 405.88,-231 399.88,-231 393.88,-225 393.88,-219 393.88,-219 393.88,-207 393.88,-207 393.88,-201 399.88,-195 405.88,-195 405.88,-195 484.88,-195 484.88,-195 490.88,-195 496.88,-201 496.88,-207 496.88,-207 496.88,-219 496.88,-219 496.88,-225 490.88,-231 484.88,-231"/>
<text xml:space="preserve" text-anchor="middle" x="445.38" y="-209.5" font-family="Arial" font-size="10.00" fill="#1a1a1a">(+) high text volume</text>
</g>
<!-- text.label&#45;&gt;attr_1 -->
<g id="edge2" class="edge">
<title>text.label&#45;&gt;attr_1</title>
<path fill="none" stroke="#aaaaaa" d="M331.14,-160.38C349.72,-169.01 375.01,-180.77 396.98,-190.98"/>
<polygon fill="#aaaaaa" stroke="#aaaaaa" points="395.85,-193.15 403.23,-193.88 397.91,-188.71 395.85,-193.15"/>
</g>
<!-- attr_2 -->
<g id="node7" class="node">
<title>attr_2</title>
<path fill="#c7b8e6" stroke="#7f8c8d" stroke-width="1.2" d="M498,-166C498,-166 392.75,-166 392.75,-166 386.75,-166 380.75,-160 380.75,-154 380.75,-154 380.75,-142 380.75,-142 380.75,-136 386.75,-130 392.75,-130 392.75,-130 498,-130 498,-130 504,-130 510,-136 510,-142 510,-142 510,-154 510,-154 510,-160 504,-166 498,-166"/>
<text xml:space="preserve" text-anchor="middle" x="445.38" y="-144.5" font-family="Arial" font-size="10.00" fill="#1a1a1a">(+) dense overlapping text</text>
</g>
<!-- text.label&#45;&gt;attr_2 -->
<g id="edge3" class="edge">
<title>text.label&#45;&gt;attr_2</title>
<path fill="none" stroke="#aaaaaa" d="M331.14,-148C342.98,-148 357.54,-148 372.24,-148"/>
<polygon fill="#aaaaaa" stroke="#aaaaaa" points="371.89,-150.45 378.89,-148 371.89,-145.55 371.89,-150.45"/>
</g>
<!-- attr_5 -->
<g id="node8" class="node">
<title>attr_5</title>
<path fill="#c7b8e6" stroke="#7f8c8d" stroke-width="1.2" d="M484.88,-101C484.88,-101 405.88,-101 405.88,-101 399.88,-101 393.88,-95 393.88,-89 393.88,-89 393.88,-77 393.88,-77 393.88,-71 399.88,-65 405.88,-65 405.88,-65 484.88,-65 484.88,-65 490.88,-65 496.88,-71 496.88,-77 496.88,-77 496.88,-89 496.88,-89 496.88,-95 490.88,-101 484.88,-101"/>
<text xml:space="preserve" text-anchor="middle" x="445.38" y="-79.5" font-family="Arial" font-size="10.00" fill="#1a1a1a">(+) varied font sizes</text>
</g>
<!-- text.label&#45;&gt;attr_5 -->
<g id="edge4" class="edge">
<title>text.label&#45;&gt;attr_5</title>
<path fill="none" stroke="#aaaaaa" d="M331.14,-135.62C349.72,-126.99 375.01,-115.23 396.98,-105.02"/>
<polygon fill="#aaaaaa" stroke="#aaaaaa" points="397.91,-107.29 403.23,-102.12 395.85,-102.85 397.91,-107.29"/>
</g>
<!-- rel_2 -->
<g id="node13" class="node">
<title>rel_2</title>
<path fill="#f5b8b8" stroke="#d46a6a" stroke-width="1.2" d="M467.62,-36C467.62,-36 423.12,-36 423.12,-36 417.12,-36 411.12,-30 411.12,-24 411.12,-24 411.12,-12 411.12,-12 411.12,-6 417.12,0 423.12,0 423.12,0 467.62,0 467.62,0 473.62,0 479.62,-6 479.62,-12 479.62,-12 479.62,-24 479.62,-24 479.62,-30 473.62,-36 467.62,-36"/>
<text xml:space="preserve" text-anchor="middle" x="445.38" y="-14.5" font-family="Arial" font-size="10.00" fill="#8b0000">overwhelms</text>
</g>
<!-- text.label&#45;&gt;rel_2 -->
<g id="edge11" class="edge">
<title>text.label&#45;&gt;rel_2</title>
<path fill="none" stroke="#d46a6a" stroke-width="1.5" d="M315.75,-129.25C329.14,-108.14 353.2,-73.81 380.75,-51 387.16,-45.7 394.56,-40.91 401.99,-36.74"/>
<polygon fill="#d46a6a" stroke="#d46a6a" stroke-width="1.5" points="402.92,-39.41 408.68,-33.19 400.3,-34.47 402.92,-39.41"/>
</g>
<!-- mark.shape -->
<g id="node3" class="node">
<title>mark.shape</title>
<path fill="#b8e6b8" stroke="#2c3e50" stroke-width="1.8" d="M42,-274C42,-274 12,-274 12,-274 6,-274 0,-268 0,-262 0,-262 0,-250 0,-250 0,-244 6,-238 12,-238 12,-238 42,-238 42,-238 48,-238 54,-244 54,-250 54,-250 54,-262 54,-262 54,-268 48,-274 42,-274"/>
<text xml:space="preserve" text-anchor="middle" x="27" y="-252.5" font-family="Arial" font-size="10.00" fill="#1a1a1a">shape</text>
</g>
<!-- attr_3 -->
<g id="node9" class="node">
<title>attr_3</title>
<path fill="#c7b8e6" stroke="#7f8c8d" stroke-width="1.2" d="M214.25,-336C214.25,-336 109,-336 109,-336 103,-336 97,-330 97,-324 97,-324 97,-312 97,-312 97,-306 103,-300 109,-300 109,-300 214.25,-300 214.25,-300 220.25,-300 226.25,-306 226.25,-312 226.25,-312 226.25,-324 226.25,-324 226.25,-330 220.25,-336 214.25,-336"/>
<text xml:space="preserve" text-anchor="middle" x="161.62" y="-314.5" font-family="Arial" font-size="10.00" fill="#1a1a1a">(+) complex curved shape</text>
</g>
<!-- mark.shape&#45;&gt;attr_3 -->
<g id="edge5" class="edge">
<title>mark.shape&#45;&gt;attr_3</title>
<path fill="none" stroke="#aaaaaa" d="M54.84,-268.55C71.61,-276.39 93.68,-286.7 113.32,-295.89"/>
<polygon fill="#aaaaaa" stroke="#aaaaaa" points="112.24,-298.09 119.62,-298.83 114.32,-293.65 112.24,-298.09"/>
</g>
<!-- rel_1 -->
<g id="node12" class="node">
<title>rel_1</title>
<path fill="#f5b8b8" stroke="#d46a6a" stroke-width="1.2" d="M325.75,-287C325.75,-287 281.25,-287 281.25,-287 275.25,-287 269.25,-281 269.25,-275 269.25,-275 269.25,-263 269.25,-263 269.25,-257 275.25,-251 281.25,-251 281.25,-251 325.75,-251 325.75,-251 331.75,-251 337.75,-257 337.75,-263 337.75,-263 337.75,-275 337.75,-275 337.75,-281 331.75,-287 325.75,-287"/>
<text xml:space="preserve" text-anchor="middle" x="303.5" y="-265.5" font-family="Arial" font-size="10.00" fill="#8b0000">complicates</text>
</g>
<!-- mark.shape&#45;&gt;rel_1 -->
<g id="edge9" class="edge">
<title>mark.shape&#45;&gt;rel_1</title>
<path fill="none" stroke="#d46a6a" stroke-width="1.5" d="M54.82,-257.27C102.19,-259.51 201.08,-264.2 258.55,-266.92"/>
<polygon fill="#d46a6a" stroke="#d46a6a" stroke-width="1.5" points="258.38,-269.71 266.51,-267.3 258.65,-264.12 258.38,-269.71"/>
</g>
<!-- rel_3 -->
<g id="node14" class="node">
<title>rel_3</title>
<path fill="#f5b8b8" stroke="#d46a6a" stroke-width="1.2" d="M200.38,-197C200.38,-197 122.88,-197 122.88,-197 116.88,-197 110.88,-191 110.88,-185 110.88,-185 110.88,-173 110.88,-173 110.88,-167 116.88,-161 122.88,-161 122.88,-161 200.38,-161 200.38,-161 206.38,-161 212.38,-167 212.38,-173 212.38,-173 212.38,-185 212.38,-185 212.38,-191 206.38,-197 200.38,-197"/>
<text xml:space="preserve" text-anchor="middle" x="161.62" y="-175.5" font-family="Arial" font-size="10.00" fill="#8b0000">constrains layout of</text>
</g>
<!-- mark.shape&#45;&gt;rel_3 -->
<g id="edge13" class="edge">
<title>mark.shape&#45;&gt;rel_3</title>
<path fill="none" stroke="#d46a6a" stroke-width="1.5" d="M54.84,-240.42C73.52,-229.57 98.76,-214.92 119.9,-202.64"/>
<polygon fill="#d46a6a" stroke="#d46a6a" stroke-width="1.5" points="121.21,-205.12 126.72,-198.68 118.4,-200.28 121.21,-205.12"/>
</g>
<!-- unknown.word_cloud -->
<g id="node4" class="node">
<title>unknown.word_cloud</title>
<path fill="#b8e6b8" stroke="#2c3e50" stroke-width="1.8" d="M604.25,-293C604.25,-293 565,-293 565,-293 559,-293 553,-287 553,-281 553,-281 553,-269 553,-269 553,-263 559,-257 565,-257 565,-257 604.25,-257 604.25,-257 610.25,-257 616.25,-263 616.25,-269 616.25,-269 616.25,-281 616.25,-281 616.25,-287 610.25,-293 604.25,-293"/>
<text xml:space="preserve" text-anchor="middle" x="584.62" y="-271.5" font-family="Arial" font-size="10.00" fill="#1a1a1a">word cloud</text>
</g>
<!-- attr_4 -->
<g id="node10" class="node">
<title>attr_4</title>
<path fill="#c7b8e6" stroke="#7f8c8d" stroke-width="1.2" d="M783.25,-293C783.25,-293 671.25,-293 671.25,-293 665.25,-293 659.25,-287 659.25,-281 659.25,-281 659.25,-269 659.25,-269 659.25,-263 665.25,-257 671.25,-257 671.25,-257 783.25,-257 783.25,-257 789.25,-257 795.25,-263 795.25,-269 795.25,-269 795.25,-281 795.25,-281 795.25,-287 789.25,-293 783.25,-293"/>
<text xml:space="preserve" text-anchor="middle" x="727.25" y="-271.5" font-family="Arial" font-size="10.00" fill="#1a1a1a">(+) irregular layout structure</text>
</g>
<!-- unknown.word_cloud&#45;&gt;attr_4 -->
<g id="edge6" class="edge">
<title>unknown.word_cloud&#45;&gt;attr_4</title>
<path fill="none" stroke="#aaaaaa" d="M616.83,-275C626.96,-275 638.67,-275 650.59,-275"/>
<polygon fill="#aaaaaa" stroke="#aaaaaa" points="650.34,-277.45 657.34,-275 650.34,-272.55 650.34,-277.45"/>
</g>
<!-- rel_0&#45;&gt;unknown.word_cloud -->
<g id="edge8" class="edge">
<title>rel_0&#45;&gt;unknown.word_cloud</title>
<path fill="none" stroke="#d46a6a" stroke-width="1.5" d="M487.18,-318.57C504.95,-310.54 525.71,-301.16 543.4,-293.17"/>
<polygon fill="#d46a6a" stroke="#d46a6a" stroke-width="1.5" points="544.14,-295.91 550.28,-290.06 541.83,-290.81 544.14,-295.91"/>
</g>
<!-- rel_1&#45;&gt;unknown.word_cloud -->
<g id="edge10" class="edge">
<title>rel_1&#45;&gt;unknown.word_cloud</title>
<path fill="none" stroke="#d46a6a" stroke-width="1.5" d="M338.17,-269.72C389.39,-270.82 486.76,-272.92 542.23,-274.11"/>
<polygon fill="#d46a6a" stroke="#d46a6a" stroke-width="1.5" points="542.08,-276.91 550.14,-274.28 542.2,-271.31 542.08,-276.91"/>
</g>
<!-- rel_2&#45;&gt;unknown.word_cloud -->
<g id="edge12" class="edge">
<title>rel_2&#45;&gt;unknown.word_cloud</title>
<path fill="none" stroke="#d46a6a" stroke-width="1.5" d="M480.14,-29.58C490.92,-34.7 502.1,-41.71 510,-51 559.1,-108.71 575.68,-200.06 581.11,-246.24"/>
<polygon fill="#d46a6a" stroke="#d46a6a" stroke-width="1.5" points="578.29,-246.26 581.94,-253.92 583.86,-245.66 578.29,-246.26"/>
</g>
<!-- rel_3&#45;&gt;text.label -->
<g id="edge14" class="edge">
<title>rel_3&#45;&gt;text.label</title>
<path fill="none" stroke="#d46a6a" stroke-width="1.5" d="M212.73,-167.9C230.39,-163.98 249.88,-159.66 266.18,-156.05"/>
<polygon fill="#d46a6a" stroke="#d46a6a" stroke-width="1.5" points="266.45,-158.86 273.66,-154.39 265.24,-153.39 266.45,-158.86"/>
</g>
</g>
</svg>
