<?xml version="1.0" encoding="UTF-8" standalone="no"?>
<!DOCTYPE svg PUBLIC "-//W3C//DTD SVG 1.1//EN"
 "http://www.w3.org/Graphics/SVG/1.1/DTD/svg11.dtd">
<!-- Generated by graphviz version 14.1.5 (20260411.2331)
 -->
<!-- Title: MorphableWordClouds7.png Pages: 1 -->
<svg width="1082pt" height="309pt"
 viewBox="0.00 0.00 1082.00 309.00" xmlns="http://www.w3.org/2000/svg" xmlns:xlink="http://www.w3.org/1999/xlink">
<g id="graph0" class="graph" transform="scale(1 1) rotate(0) translate(4 305.25)">
<title>MorphableWordClouds7.png</title>
<polygon fill="white" stroke="none" points="-4,4 -4,-305.25 1077.5,-305.25 1077.5,4 -4,4"/>
<text xml:space="preserve" text-anchor="start" x="444.12" y="-280.95" font-family="Arial" font-weight="bold" font-size="14.00">MorphableWordClouds7.png</text>
<text xml:space="preserve" text-anchor="start" x="494.75" y="-261" font-family="Arial" font-size="11.00">Text &#160;| &#160;VC = 0.48</text>
<path fill="#b8e6b8" stroke="none" d="M327.38,-236C327.38,-236 335.38,-236 335.38,-236 338.38,-236 341.38,-239 341.38,-242 341.38,-242 341.38,-248 341.38,-248 341.38,-251 338.38,-254 335.38,-254 335.38,-254 327.38,-254 327.38,-254 324.38,-254 321.38,-251 321.38,-248 321.38,-248 321.38,-242 321.38,-242 321.38,-239 324.38,-236 327.38,-236"/>
<path fill="none" stroke="black" d="M327.38,-236C327.38,-236 335.38,-236 335.38,-236 338.38,-236 341.38,-239 341.38,-242 341.38,-242 341.38,-248 341.38,-248 341.38,-251 338.38,-254 335.38,-254 335.38,-254 327.38,-254 327.38,-254 324.38,-254 321.38,-251 321.38,-248 321.38,-248 321.38,-242 321.38,-242 321.38,-239 324.38,-236 327.38,-236"/>
<text xml:space="preserve" text-anchor="start" x="329.88" y="-241.25" font-family="Arial" font-size="10.00"> </text>
<text xml:space="preserve" text-anchor="start" x="345.38" y="-241.25" font-family="Arial" font-size="10.00">Object</text>
<path fill="#c7b8e6" stroke="none" d="M383.88,-236C383.88,-236 391.88,-236 391.88,-236 394.88,-236 397.88,-239 397.88,-242 397.88,-242 397.88,-248 397.88,-248 397.88,-251 394.88,-254 391.88,-254 391.88,-254 383.88,-254 383.88,-254 380.88,-254 377.88,-251 377.88,-248 377.88,-248 377.88,-242 377.88,-242 377.88,-239 380.88,-236 383.88,-236"/>
<path fill="none" stroke="black" d="M383.88,-236C383.88,-236 391.88,-236 391.88,-236 394.88,-236 397.88,-239 397.88,-242 397.88,-242 397.88,-248 397.88,-248 397.88,-251 394.88,-254 391.88,-254 391.88,-254 383.88,-254 383.88,-254 380.88,-254 377.88,-251 377.88,-248 377.88,-248 377.88,-242 377.88,-242 377.88,-239 380.88,-236 383.88,-236"/>
<text xml:space="preserve" text-anchor="start" x="386.38" y="-241.25" font-family="Arial" font-size="10.00"> </text>
<text xml:space="preserve" text-anchor="start" x="401.88" y="-241.25" font-family="Arial" font-size="10.00">Attribute</text>
<path fill="#f5b8b8" stroke="none" d="M448.62,-236C448.62,-236 456.62,-236 456.62,-236 459.62,-236 462.62,-239 462.62,-242 462.62,-242 462.62,-248 462.62,-248 462.62,-251 459.62,-254 456.62,-254 456.62,-254 448.62,-254 448.62,-254 445.62,-254 442.62,-251 442.62,-248 442.62,-248 442.62,-242 442.62,-242 442.62,-239 445.62,-236 448.62,-236"/>
<path fill="none" stroke="black" d="M448.62,-236C448.62,-236 456.62,-236 456.62,-236 459.62,-236 462.62,-239 462.62,-242 462.62,-242 462.62,-248 462.62,-248 462.62,-251 459.62,-254 456.62,-254 456.62,-254 448.62,-254 448.62,-254 445.62,-254 442.62,-251 442.62,-248 442.62,-248 442.62,-242 442.62,-242 442.62,-239 445.62,-236 448.62,-236"/>
<text xml:space="preserve" text-anchor="start" x="451.12" y="-241.25" font-family="Arial" font-size="10.00"> </text>
<text xml:space="preserve" text-anchor="start" x="466.62" y="-241.25" font-family="Arial" font-size="10.00">Relationship</text>
<text xml:space="preserve" text-anchor="start" x="526.62" y="-242.5" font-family="Arial" font-weight="bold" font-size="10.00">(+)</text>
<text xml:space="preserve" text-anchor="start" x="538.62" y="-242.5" font-family="Arial" font-size="10.00"> increases complexity</text>
<text xml:space="preserve" text-anchor="start" x="639.88" y="-242.5" font-family="Arial" font-weight="bold" font-size="10.00">(−)</text>
<text xml:space="preserve" text-anchor="start" x="651.88" y="-242.5" font-family="Arial" font-size="10.00"> decreases complexity</text>
<!-- unknown.word_cloud -->
<g id="node1" class="node">
<title>unknown.word_cloud</title>
<path fill="#b8e6b8" stroke="#2c3e50" stroke-width="1.8" d="M877.25,-36C877.25,-36 838,-36 838,-36 832,-36 826,-30 826,-24 826,-24 826,-12 826,-12 826,-6 832,0 838,0 838,0 877.25,0 877.25,0 883.25,0 889.25,-6 889.25,-12 889.25,-12 889.25,-24 889.25,-24 889.25,-30 883.25,-36 877.25,-36"/>
<text xml:space="preserve" text-anchor="middle" x="857.62" y="-14.5" font-family="Arial" font-size="10.00" fill="#1a1a1a">word cloud</text>
</g>
<!-- attr_0 -->
<g id="node6" class="node">
<title>attr_0</title>
<path fill="#c7b8e6" stroke="#7f8c8d" stroke-width="1.2" d="M1061.5,-36C1061.5,-36 944.25,-36 944.25,-36 938.25,-36 932.25,-30 932.25,-24 932.25,-24 932.25,-12 932.25,-12 932.25,-6 938.25,0 944.25,0 944.25,0 1061.5,0 1061.5,0 1067.5,0 1073.5,-6 1073.5,-12 1073.5,-12 1073.5,-24 1073.5,-24 1073.5,-30 1067.5,-36 1061.5,-36"/>
<text xml:space="preserve" text-anchor="middle" x="1002.88" y="-14.5" font-family="Arial" font-size="10.00" fill="#1a1a1a">(+) moderately complex form</text>
</g>
<!-- unknown.word_cloud&#45;&gt;attr_0 -->
<g id="edge1" class="edge">
<title>unknown.word_cloud&#45;&gt;attr_0</title>
<path fill="none" stroke="#aaaaaa" d="M890.06,-18C900.1,-18 911.69,-18 923.54,-18"/>
<polygon fill="#aaaaaa" stroke="#aaaaaa" points="923.24,-20.45 930.24,-18 923.24,-15.55 923.24,-20.45"/>
</g>
<!-- unknown.text_words -->
<g id="node2" class="node">
<title>unknown.text_words</title>
<path fill="#b8e6b8" stroke="#2c3e50" stroke-width="1.8" d="M322.75,-100C322.75,-100 285,-100 285,-100 279,-100 273,-94 273,-88 273,-88 273,-76 273,-76 273,-70 279,-64 285,-64 285,-64 322.75,-64 322.75,-64 328.75,-64 334.75,-70 334.75,-76 334.75,-76 334.75,-88 334.75,-88 334.75,-94 328.75,-100 322.75,-100"/>
<text xml:space="preserve" text-anchor="middle" x="303.88" y="-78.5" font-family="Arial" font-size="10.00" fill="#1a1a1a">text words</text>
</g>
<!-- attr_1 -->
<g id="node7" class="node">
<title>attr_1</title>
<path fill="#c7b8e6" stroke="#7f8c8d" stroke-width="1.2" d="M477,-133C477,-133 389.75,-133 389.75,-133 383.75,-133 377.75,-127 377.75,-121 377.75,-121 377.75,-109 377.75,-109 377.75,-103 383.75,-97 389.75,-97 389.75,-97 477,-97 477,-97 483,-97 489,-103 489,-109 489,-109 489,-121 489,-121 489,-127 483,-133 477,-133"/>
<text xml:space="preserve" text-anchor="middle" x="433.38" y="-111.5" font-family="Arial" font-size="10.00" fill="#1a1a1a">(+) varied text density</text>
</g>
<!-- unknown.text_words&#45;&gt;attr_1 -->
<g id="edge2" class="edge">
<title>unknown.text_words&#45;&gt;attr_1</title>
<path fill="none" stroke="#aaaaaa" d="M335.41,-89.9C345.65,-92.55 357.47,-95.61 369.26,-98.66"/>
<polygon fill="#aaaaaa" stroke="#aaaaaa" points="368.54,-101.01 375.94,-100.39 369.77,-96.27 368.54,-101.01"/>
</g>
<!-- rel_1 -->
<g id="node12" class="node">
<title>rel_1</title>
<path fill="#f5b8b8" stroke="#d46a6a" stroke-width="1.2" d="M448.38,-68C448.38,-68 418.38,-68 418.38,-68 412.38,-68 406.38,-62 406.38,-56 406.38,-56 406.38,-44 406.38,-44 406.38,-38 412.38,-32 418.38,-32 418.38,-32 448.38,-32 448.38,-32 454.38,-32 460.38,-38 460.38,-44 460.38,-44 460.38,-56 460.38,-56 460.38,-62 454.38,-68 448.38,-68"/>
<text xml:space="preserve" text-anchor="middle" x="433.38" y="-46.5" font-family="Arial" font-size="10.00" fill="#8b0000">creates</text>
</g>
<!-- unknown.text_words&#45;&gt;rel_1 -->
<g id="edge8" class="edge">
<title>unknown.text_words&#45;&gt;rel_1</title>
<path fill="none" stroke="#d46a6a" stroke-width="1.5" d="M335.41,-74.34C353.65,-69.76 376.91,-63.92 396.08,-59.11"/>
<polygon fill="#d46a6a" stroke="#d46a6a" stroke-width="1.5" points="396.69,-61.84 403.77,-57.18 395.33,-56.41 396.69,-61.84"/>
</g>
<!-- unknown.font_size -->
<g id="node3" class="node">
<title>unknown.font_size</title>
<path fill="#b8e6b8" stroke="#2c3e50" stroke-width="1.8" d="M42,-132C42,-132 12,-132 12,-132 6,-132 0,-126 0,-120 0,-120 0,-108 0,-108 0,-102 6,-96 12,-96 12,-96 42,-96 42,-96 48,-96 54,-102 54,-108 54,-108 54,-120 54,-120 54,-126 48,-132 42,-132"/>
<text xml:space="preserve" text-anchor="middle" x="27" y="-110.5" font-family="Arial" font-size="10.00" fill="#1a1a1a">font size</text>
</g>
<!-- attr_2 -->
<g id="node8" class="node">
<title>attr_2</title>
<path fill="#c7b8e6" stroke="#7f8c8d" stroke-width="1.2" d="M218,-165C218,-165 109,-165 109,-165 103,-165 97,-159 97,-153 97,-153 97,-141 97,-141 97,-135 103,-129 109,-129 109,-129 218,-129 218,-129 224,-129 230,-135 230,-141 230,-141 230,-153 230,-153 230,-159 224,-165 218,-165"/>
<text xml:space="preserve" text-anchor="middle" x="163.5" y="-143.5" font-family="Arial" font-size="10.00" fill="#1a1a1a">(+) multiple size encodings</text>
</g>
<!-- unknown.font_size&#45;&gt;attr_2 -->
<g id="edge3" class="edge">
<title>unknown.font_size&#45;&gt;attr_2</title>
<path fill="none" stroke="#aaaaaa" d="M54.89,-120.6C64.67,-123 76.26,-125.84 88.14,-128.76"/>
<polygon fill="#aaaaaa" stroke="#aaaaaa" points="87.55,-131.13 94.93,-130.42 88.72,-126.37 87.55,-131.13"/>
</g>
<!-- rel_0 -->
<g id="node11" class="node">
<title>rel_0</title>
<path fill="#f5b8b8" stroke="#d46a6a" stroke-width="1.2" d="M185.75,-100C185.75,-100 141.25,-100 141.25,-100 135.25,-100 129.25,-94 129.25,-88 129.25,-88 129.25,-76 129.25,-76 129.25,-70 135.25,-64 141.25,-64 141.25,-64 185.75,-64 185.75,-64 191.75,-64 197.75,-70 197.75,-76 197.75,-76 197.75,-88 197.75,-88 197.75,-94 191.75,-100 185.75,-100"/>
<text xml:space="preserve" text-anchor="middle" x="163.5" y="-78.5" font-family="Arial" font-size="10.00" fill="#8b0000">encodes via</text>
</g>
<!-- unknown.font_size&#45;&gt;rel_0 -->
<g id="edge6" class="edge">
<title>unknown.font_size&#45;&gt;rel_0</title>
<path fill="none" stroke="#d46a6a" stroke-width="1.5" d="M54.89,-107.6C73.29,-103.22 98.09,-97.33 119.24,-92.29"/>
<polygon fill="#d46a6a" stroke="#d46a6a" stroke-width="1.5" points="119.63,-95.08 126.76,-90.5 118.33,-89.63 119.63,-95.08"/>
</g>
<!-- structure.layout -->
<g id="node4" class="node">
<title>structure.layout</title>
<path fill="#b8e6b8" stroke="#2c3e50" stroke-width="1.8" d="M574,-68C574,-68 544,-68 544,-68 538,-68 532,-62 532,-56 532,-56 532,-44 532,-44 532,-38 538,-32 544,-32 544,-32 574,-32 574,-32 580,-32 586,-38 586,-44 586,-44 586,-56 586,-56 586,-62 580,-68 574,-68"/>
<text xml:space="preserve" text-anchor="middle" x="559" y="-46.5" font-family="Arial" font-size="10.00" fill="#1a1a1a">layout</text>
</g>
<!-- attr_3 -->
<g id="node9" class="node">
<title>attr_3</title>
<path fill="#c7b8e6" stroke="#7f8c8d" stroke-width="1.2" d="M771,-101C771,-101 641,-101 641,-101 635,-101 629,-95 629,-89 629,-89 629,-77 629,-77 629,-71 635,-65 641,-65 641,-65 771,-65 771,-65 777,-65 783,-71 783,-77 783,-77 783,-89 783,-89 783,-95 777,-101 771,-101"/>
<text xml:space="preserve" text-anchor="middle" x="706" y="-79.5" font-family="Arial" font-size="10.00" fill="#1a1a1a">(+) irregular spatial arrangement</text>
</g>
<!-- structure.layout&#45;&gt;attr_3 -->
<g id="edge4" class="edge">
<title>structure.layout&#45;&gt;attr_3</title>
<path fill="none" stroke="#aaaaaa" d="M586.6,-56.05C596.45,-58.3 608.24,-60.98 620.49,-63.77"/>
<polygon fill="#aaaaaa" stroke="#aaaaaa" points="619.75,-66.11 627.12,-65.28 620.84,-61.33 619.75,-66.11"/>
</g>
<!-- rel_2 -->
<g id="node13" class="node">
<title>rel_2</title>
<path fill="#f5b8b8" stroke="#d46a6a" stroke-width="1.2" d="M723,-36C723,-36 689,-36 689,-36 683,-36 677,-30 677,-24 677,-24 677,-12 677,-12 677,-6 683,0 689,0 689,0 723,0 723,0 729,0 735,-6 735,-12 735,-12 735,-24 735,-24 735,-30 729,-36 723,-36"/>
<text xml:space="preserve" text-anchor="middle" x="706" y="-14.5" font-family="Arial" font-size="10.00" fill="#8b0000">increases</text>
</g>
<!-- structure.layout&#45;&gt;rel_2 -->
<g id="edge10" class="edge">
<title>structure.layout&#45;&gt;rel_2</title>
<path fill="none" stroke="#d46a6a" stroke-width="1.5" d="M586.6,-44.13C609.01,-39.18 641.38,-32.04 666.61,-26.47"/>
<polygon fill="#d46a6a" stroke="#d46a6a" stroke-width="1.5" points="667.16,-29.22 674.37,-24.76 665.96,-23.75 667.16,-29.22"/>
</g>
<!-- property.color -->
<g id="node5" class="node">
<title>property.color</title>
<path fill="#b8e6b8" stroke="#2c3e50" stroke-width="1.8" d="M42,-230C42,-230 12,-230 12,-230 6,-230 0,-224 0,-218 0,-218 0,-206 0,-206 0,-200 6,-194 12,-194 12,-194 42,-194 42,-194 48,-194 54,-200 54,-206 54,-206 54,-218 54,-218 54,-224 48,-230 42,-230"/>
<text xml:space="preserve" text-anchor="middle" x="27" y="-208.5" font-family="Arial" font-size="10.00" fill="#1a1a1a">color</text>
</g>
<!-- attr_4 -->
<g id="node10" class="node">
<title>attr_4</title>
<path fill="#c7b8e6" stroke="#7f8c8d" stroke-width="1.2" d="M209.38,-230C209.38,-230 117.62,-230 117.62,-230 111.62,-230 105.62,-224 105.62,-218 105.62,-218 105.62,-206 105.62,-206 105.62,-200 111.62,-194 117.62,-194 117.62,-194 209.38,-194 209.38,-194 215.38,-194 221.38,-200 221.38,-206 221.38,-206 221.38,-218 221.38,-218 221.38,-224 215.38,-230 209.38,-230"/>
<text xml:space="preserve" text-anchor="middle" x="163.5" y="-208.5" font-family="Arial" font-size="10.00" fill="#1a1a1a">(−) limited color variety</text>
</g>
<!-- property.color&#45;&gt;attr_4 -->
<g id="edge5" class="edge">
<title>property.color&#45;&gt;attr_4</title>
<path fill="none" stroke="#aaaaaa" d="M54.89,-212C67.06,-212 82.01,-212 96.86,-212"/>
<polygon fill="#aaaaaa" stroke="#aaaaaa" points="96.57,-214.45 103.57,-212 96.57,-209.55 96.57,-214.45"/>
</g>
<!-- rel_0&#45;&gt;unknown.text_words -->
<g id="edge7" class="edge">
<title>rel_0&#45;&gt;unknown.text_words</title>
<path fill="none" stroke="#d46a6a" stroke-width="1.5" d="M198,-82C217.43,-82 242.03,-82 262.53,-82"/>
<polygon fill="#d46a6a" stroke="#d46a6a" stroke-width="1.5" points="262.25,-84.8 270.25,-82 262.25,-79.2 262.25,-84.8"/>
</g>
<!-- rel_1&#45;&gt;structure.layout -->
<g id="edge9" class="edge">
<title>rel_1&#45;&gt;structure.layout</title>
<path fill="none" stroke="#d46a6a" stroke-width="1.5" d="M460.9,-50C478.58,-50 502.05,-50 521.49,-50"/>
<polygon fill="#d46a6a" stroke="#d46a6a" stroke-width="1.5" points="521.25,-52.8 529.25,-50 521.25,-47.2 521.25,-52.8"/>
</g>
<!-- rel_2&#45;&gt;unknown.word_cloud -->
<g id="edge11" class="edge">
<title>rel_2&#45;&gt;unknown.word_cloud</title>
<path fill="none" stroke="#d46a6a" stroke-width="1.5" d="M735.5,-18C758,-18 789.73,-18 815.06,-18"/>
<polygon fill="#d46a6a" stroke="#d46a6a" stroke-width="1.5" points="814.86,-20.8 822.86,-18 814.86,-15.2 814.86,-20.8"/>
</g>
</g>
</svg>
