<?xml version="1.0" encoding="UTF-8" standalone="no"?>
<!DOCTYPE svg PUBLIC "-//W3C//DTD SVG 1.1//EN"
 "http://www.w3.org/Graphics/SVG/1.1/DTD/svg11.dtd">
<!-- Generated by graphviz version 14.1.5 (20260411.2331)
 -->
<!-- Title: SciVisJ.1025.11.png Pages: 1 -->
<svg width="880pt" height="440pt"
 viewBox="0.00 0.00 880.00 440.00" xmlns="http://www.w3.org/2000/svg" xmlns:xlink="http://www.w3.org/1999/xlink">
<g id="graph0" class="graph" transform="scale(1 1) rotate(0) translate(4 436.25)">
<title>SciVisJ.1025.11.png</title>
<polygon fill="white" stroke="none" points="-4,4 -4,-436.25 876,-436.25 876,4 -4,4"/>
<text xml:space="preserve" text-anchor="start" x="371.88" y="-411.95" font-family="Arial" font-weight="bold" font-size="14.00">SciVisJ.1025.11.png</text>
<text xml:space="preserve" text-anchor="start" x="391.38" y="-392" font-family="Arial" font-size="11.00">Point &#160;| &#160;VC = 0.36</text>
<path fill="#b8e6b8" stroke="none" d="M226.62,-367C226.62,-367 234.62,-367 234.62,-367 237.62,-367 240.62,-370 240.62,-373 240.62,-373 240.62,-379 240.62,-379 240.62,-382 237.62,-385 234.62,-385 234.62,-385 226.62,-385 226.62,-385 223.62,-385 220.62,-382 220.62,-379 220.62,-379 220.62,-373 220.62,-373 220.62,-370 223.62,-367 226.62,-367"/>
<path fill="none" stroke="black" d="M226.62,-367C226.62,-367 234.62,-367 234.62,-367 237.62,-367 240.62,-370 240.62,-373 240.62,-373 240.62,-379 240.62,-379 240.62,-382 237.62,-385 234.62,-385 234.62,-385 226.62,-385 226.62,-385 223.62,-385 220.62,-382 220.62,-379 220.62,-379 220.62,-373 220.62,-373 220.62,-370 223.62,-367 226.62,-367"/>
<text xml:space="preserve" text-anchor="start" x="229.12" y="-372.25" font-family="Arial" font-size="10.00"> </text>
<text xml:space="preserve" text-anchor="start" x="244.62" y="-372.25" font-family="Arial" font-size="10.00">Object</text>
<path fill="#c7b8e6" stroke="none" d="M283.12,-367C283.12,-367 291.12,-367 291.12,-367 294.12,-367 297.12,-370 297.12,-373 297.12,-373 297.12,-379 297.12,-379 297.12,-382 294.12,-385 291.12,-385 291.12,-385 283.12,-385 283.12,-385 280.12,-385 277.12,-382 277.12,-379 277.12,-379 277.12,-373 277.12,-373 277.12,-370 280.12,-367 283.12,-367"/>
<path fill="none" stroke="black" d="M283.12,-367C283.12,-367 291.12,-367 291.12,-367 294.12,-367 297.12,-370 297.12,-373 297.12,-373 297.12,-379 297.12,-379 297.12,-382 294.12,-385 291.12,-385 291.12,-385 283.12,-385 283.12,-385 280.12,-385 277.12,-382 277.12,-379 277.12,-379 277.12,-373 277.12,-373 277.12,-370 280.12,-367 283.12,-367"/>
<text xml:space="preserve" text-anchor="start" x="285.62" y="-372.25" font-family="Arial" font-size="10.00"> </text>
<text xml:space="preserve" text-anchor="start" x="301.12" y="-372.25" font-family="Arial" font-size="10.00">Attribute</text>
<path fill="#f5b8b8" stroke="none" d="M347.88,-367C347.88,-367 355.88,-367 355.88,-367 358.88,-367 361.88,-370 361.88,-373 361.88,-373 361.88,-379 361.88,-379 361.88,-382 358.88,-385 355.88,-385 355.88,-385 347.88,-385 347.88,-385 344.88,-385 341.88,-382 341.88,-379 341.88,-379 341.88,-373 341.88,-373 341.88,-370 344.88,-367 347.88,-367"/>
<path fill="none" stroke="black" d="M347.88,-367C347.88,-367 355.88,-367 355.88,-367 358.88,-367 361.88,-370 361.88,-373 361.88,-373 361.88,-379 361.88,-379 361.88,-382 358.88,-385 355.88,-385 355.88,-385 347.88,-385 347.88,-385 344.88,-385 341.88,-382 341.88,-379 341.88,-379 341.88,-373 341.88,-373 341.88,-370 344.88,-367 347.88,-367"/>
<text xml:space="preserve" text-anchor="start" x="350.38" y="-372.25" font-family="Arial" font-size="10.00"> </text>
<text xml:space="preserve" text-anchor="start" x="365.88" y="-372.25" font-family="Arial" font-size="10.00">Relationship</text>
<text xml:space="preserve" text-anchor="start" x="425.88" y="-373.5" font-family="Arial" font-weight="bold" font-size="10.00">(+)</text>
<text xml:space="preserve" text-anchor="start" x="437.88" y="-373.5" font-family="Arial" font-size="10.00"> increases complexity</text>
<text xml:space="preserve" text-anchor="start" x="539.12" y="-373.5" font-family="Arial" font-weight="bold" font-size="10.00">(−)</text>
<text xml:space="preserve" text-anchor="start" x="551.12" y="-373.5" font-family="Arial" font-size="10.00"> decreases complexity</text>
<!-- unknown.data_points -->
<g id="node1" class="node">
<title>unknown.data_points</title>
<path fill="#b8e6b8" stroke="#2c3e50" stroke-width="1.8" d="M693,-166C693,-166 653,-166 653,-166 647,-166 641,-160 641,-154 641,-154 641,-142 641,-142 641,-136 647,-130 653,-130 653,-130 693,-130 693,-130 699,-130 705,-136 705,-142 705,-142 705,-154 705,-154 705,-160 699,-166 693,-166"/>
<text xml:space="preserve" text-anchor="middle" x="673" y="-144.5" font-family="Arial" font-size="10.00" fill="#1a1a1a">data points</text>
</g>
<!-- attr_0 -->
<g id="node7" class="node">
<title>attr_0</title>
<path fill="#c7b8e6" stroke="#7f8c8d" stroke-width="1.2" d="M855.88,-166C855.88,-166 764.12,-166 764.12,-166 758.12,-166 752.12,-160 752.12,-154 752.12,-154 752.12,-142 752.12,-142 752.12,-136 758.12,-130 764.12,-130 764.12,-130 855.88,-130 855.88,-130 861.88,-130 867.88,-136 867.88,-142 867.88,-142 867.88,-154 867.88,-154 867.88,-160 861.88,-166 855.88,-166"/>
<text xml:space="preserve" text-anchor="middle" x="810" y="-144.5" font-family="Arial" font-size="10.00" fill="#1a1a1a">(+) multiple data series</text>
</g>
<!-- unknown.data_points&#45;&gt;attr_0 -->
<g id="edge1" class="edge">
<title>unknown.data_points&#45;&gt;attr_0</title>
<path fill="none" stroke="#aaaaaa" d="M705.65,-148C717.01,-148 730.28,-148 743.45,-148"/>
<polygon fill="#aaaaaa" stroke="#aaaaaa" points="743.1,-150.45 750.1,-148 743.1,-145.55 743.1,-150.45"/>
</g>
<!-- property.color -->
<g id="node2" class="node">
<title>property.color</title>
<path fill="#b8e6b8" stroke="#2c3e50" stroke-width="1.8" d="M354.75,-296C354.75,-296 324.75,-296 324.75,-296 318.75,-296 312.75,-290 312.75,-284 312.75,-284 312.75,-272 312.75,-272 312.75,-266 318.75,-260 324.75,-260 324.75,-260 354.75,-260 354.75,-260 360.75,-260 366.75,-266 366.75,-272 366.75,-272 366.75,-284 366.75,-284 366.75,-290 360.75,-296 354.75,-296"/>
<text xml:space="preserve" text-anchor="middle" x="339.75" y="-274.5" font-family="Arial" font-size="10.00" fill="#1a1a1a">color</text>
</g>
<!-- attr_1 -->
<g id="node8" class="node">
<title>attr_1</title>
<path fill="#c7b8e6" stroke="#7f8c8d" stroke-width="1.2" d="M551.12,-296C551.12,-296 469.88,-296 469.88,-296 463.88,-296 457.88,-290 457.88,-284 457.88,-284 457.88,-272 457.88,-272 457.88,-266 463.88,-260 469.88,-260 469.88,-260 551.12,-260 551.12,-260 557.12,-260 563.12,-266 563.12,-272 563.12,-272 563.12,-284 563.12,-284 563.12,-290 557.12,-296 551.12,-296"/>
<text xml:space="preserve" text-anchor="middle" x="510.5" y="-274.5" font-family="Arial" font-size="10.00" fill="#1a1a1a">(+) high color variety</text>
</g>
<!-- property.color&#45;&gt;attr_1 -->
<g id="edge2" class="edge">
<title>property.color&#45;&gt;attr_1</title>
<path fill="none" stroke="#aaaaaa" d="M367.49,-278C389.4,-278 421.23,-278 449.21,-278"/>
<polygon fill="#aaaaaa" stroke="#aaaaaa" points="448.86,-280.45 455.86,-278 448.86,-275.55 448.86,-280.45"/>
</g>
<!-- rel_0 -->
<g id="node14" class="node">
<title>rel_0</title>
<path fill="#f5b8b8" stroke="#d46a6a" stroke-width="1.2" d="M532.75,-231C532.75,-231 488.25,-231 488.25,-231 482.25,-231 476.25,-225 476.25,-219 476.25,-219 476.25,-207 476.25,-207 476.25,-201 482.25,-195 488.25,-195 488.25,-195 532.75,-195 532.75,-195 538.75,-195 544.75,-201 544.75,-207 544.75,-207 544.75,-219 544.75,-219 544.75,-225 538.75,-231 532.75,-231"/>
<text xml:space="preserve" text-anchor="middle" x="510.5" y="-209.5" font-family="Arial" font-size="10.00" fill="#8b0000">encodes via</text>
</g>
<!-- property.color&#45;&gt;rel_0 -->
<g id="edge8" class="edge">
<title>property.color&#45;&gt;rel_0</title>
<path fill="none" stroke="#d46a6a" stroke-width="1.5" d="M367.4,-267.58C383.49,-261.3 404.41,-253.16 423,-246 437.14,-240.55 452.59,-234.64 466.47,-229.35"/>
<polygon fill="#d46a6a" stroke="#d46a6a" stroke-width="1.5" points="467.2,-232.07 473.67,-226.61 465.2,-226.84 467.2,-232.07"/>
</g>
<!-- unknown.text_labels -->
<g id="node3" class="node">
<title>unknown.text_labels</title>
<path fill="#b8e6b8" stroke="#2c3e50" stroke-width="1.8" d="M49,-166C49,-166 12,-166 12,-166 6,-166 0,-160 0,-154 0,-154 0,-142 0,-142 0,-136 6,-130 12,-130 12,-130 49,-130 49,-130 55,-130 61,-136 61,-142 61,-142 61,-154 61,-154 61,-160 55,-166 49,-166"/>
<text xml:space="preserve" text-anchor="middle" x="30.5" y="-144.5" font-family="Arial" font-size="10.00" fill="#1a1a1a">text labels</text>
</g>
<!-- attr_2 -->
<g id="node9" class="node">
<title>attr_2</title>
<path fill="#c7b8e6" stroke="#7f8c8d" stroke-width="1.2" d="M244.5,-231C244.5,-231 116,-231 116,-231 110,-231 104,-225 104,-219 104,-219 104,-207 104,-207 104,-201 110,-195 116,-195 116,-195 244.5,-195 244.5,-195 250.5,-195 256.5,-201 256.5,-207 256.5,-207 256.5,-219 256.5,-219 256.5,-225 250.5,-231 244.5,-231"/>
<text xml:space="preserve" text-anchor="middle" x="180.25" y="-209.5" font-family="Arial" font-size="10.00" fill="#1a1a1a">(+) detailed inscriptions present</text>
</g>
<!-- unknown.text_labels&#45;&gt;attr_2 -->
<g id="edge3" class="edge">
<title>unknown.text_labels&#45;&gt;attr_2</title>
<path fill="none" stroke="#aaaaaa" d="M61.76,-161.98C74.73,-167.92 90.08,-174.87 104,-181 111.5,-184.3 119.45,-187.74 127.26,-191.09"/>
<polygon fill="#aaaaaa" stroke="#aaaaaa" points="126.21,-193.31 133.61,-193.81 128.14,-188.8 126.21,-193.31"/>
</g>
<!-- attr_6 -->
<g id="node10" class="node">
<title>attr_6</title>
<path fill="#c7b8e6" stroke="#7f8c8d" stroke-width="1.2" d="M234.75,-166C234.75,-166 125.75,-166 125.75,-166 119.75,-166 113.75,-160 113.75,-154 113.75,-154 113.75,-142 113.75,-142 113.75,-136 119.75,-130 125.75,-130 125.75,-130 234.75,-130 234.75,-130 240.75,-130 246.75,-136 246.75,-142 246.75,-142 246.75,-154 246.75,-154 246.75,-160 240.75,-166 234.75,-166"/>
<text xml:space="preserve" text-anchor="middle" x="180.25" y="-144.5" font-family="Arial" font-size="10.00" fill="#1a1a1a">(−) less text than expected</text>
</g>
<!-- unknown.text_labels&#45;&gt;attr_6 -->
<g id="edge4" class="edge">
<title>unknown.text_labels&#45;&gt;attr_6</title>
<path fill="none" stroke="#aaaaaa" d="M61.76,-148C74.36,-148 89.61,-148 104.89,-148"/>
<polygon fill="#aaaaaa" stroke="#aaaaaa" points="104.85,-150.45 111.85,-148 104.85,-145.55 104.85,-150.45"/>
</g>
<!-- rel_2 -->
<g id="node16" class="node">
<title>rel_2</title>
<path fill="#f5b8b8" stroke="#d46a6a" stroke-width="1.2" d="M197.62,-101C197.62,-101 162.88,-101 162.88,-101 156.88,-101 150.88,-95 150.88,-89 150.88,-89 150.88,-77 150.88,-77 150.88,-71 156.88,-65 162.88,-65 162.88,-65 197.62,-65 197.62,-65 203.62,-65 209.62,-71 209.62,-77 209.62,-77 209.62,-89 209.62,-89 209.62,-95 203.62,-101 197.62,-101"/>
<text xml:space="preserve" text-anchor="middle" x="180.25" y="-79.5" font-family="Arial" font-size="10.00" fill="#8b0000">annotates</text>
</g>
<!-- unknown.text_labels&#45;&gt;rel_2 -->
<g id="edge12" class="edge">
<title>unknown.text_labels&#45;&gt;rel_2</title>
<path fill="none" stroke="#d46a6a" stroke-width="1.5" d="M61.83,-134.59C74.81,-128.86 90.15,-122.09 104,-116 116.05,-110.7 129.2,-104.93 141.08,-99.72"/>
<polygon fill="#d46a6a" stroke="#d46a6a" stroke-width="1.5" points="142.02,-102.36 148.22,-96.59 139.77,-97.24 142.02,-102.36"/>
</g>
<!-- text.axis_label -->
<g id="node4" class="node">
<title>text.axis_label</title>
<path fill="#b8e6b8" stroke="#2c3e50" stroke-width="1.8" d="M689.62,-36C689.62,-36 656.38,-36 656.38,-36 650.38,-36 644.38,-30 644.38,-24 644.38,-24 644.38,-12 644.38,-12 644.38,-6 650.38,0 656.38,0 656.38,0 689.62,0 689.62,0 695.62,0 701.62,-6 701.62,-12 701.62,-12 701.62,-24 701.62,-24 701.62,-30 695.62,-36 689.62,-36"/>
<text xml:space="preserve" text-anchor="middle" x="673" y="-14.5" font-family="Arial" font-size="10.00" fill="#1a1a1a">axis label</text>
</g>
<!-- attr_3 -->
<g id="node11" class="node">
<title>attr_3</title>
<path fill="#c7b8e6" stroke="#7f8c8d" stroke-width="1.2" d="M860,-36C860,-36 760,-36 760,-36 754,-36 748,-30 748,-24 748,-24 748,-12 748,-12 748,-6 754,0 760,0 760,0 860,0 860,0 866,0 872,-6 872,-12 872,-12 872,-24 872,-24 872,-30 866,-36 860,-36"/>
<text xml:space="preserve" text-anchor="middle" x="810" y="-14.5" font-family="Arial" font-size="10.00" fill="#1a1a1a">(+) many numeric values</text>
</g>
<!-- text.axis_label&#45;&gt;attr_3 -->
<g id="edge5" class="edge">
<title>text.axis_label&#45;&gt;attr_3</title>
<path fill="none" stroke="#aaaaaa" d="M702.3,-18C713.25,-18 726.3,-18 739.46,-18"/>
<polygon fill="#aaaaaa" stroke="#aaaaaa" points="739.14,-20.45 746.14,-18 739.14,-15.55 739.14,-20.45"/>
</g>
<!-- furniture.legend -->
<g id="node5" class="node">
<title>furniture.legend</title>
<path fill="#b8e6b8" stroke="#2c3e50" stroke-width="1.8" d="M45.5,-328C45.5,-328 15.5,-328 15.5,-328 9.5,-328 3.5,-322 3.5,-316 3.5,-316 3.5,-304 3.5,-304 3.5,-298 9.5,-292 15.5,-292 15.5,-292 45.5,-292 45.5,-292 51.5,-292 57.5,-298 57.5,-304 57.5,-304 57.5,-316 57.5,-316 57.5,-322 51.5,-328 45.5,-328"/>
<text xml:space="preserve" text-anchor="middle" x="30.5" y="-306.5" font-family="Arial" font-size="10.00" fill="#1a1a1a">legend</text>
</g>
<!-- attr_4 -->
<g id="node12" class="node">
<title>attr_4</title>
<path fill="#c7b8e6" stroke="#7f8c8d" stroke-width="1.2" d="M237.75,-361C237.75,-361 122.75,-361 122.75,-361 116.75,-361 110.75,-355 110.75,-349 110.75,-349 110.75,-337 110.75,-337 110.75,-331 116.75,-325 122.75,-325 122.75,-325 237.75,-325 237.75,-325 243.75,-325 249.75,-331 249.75,-337 249.75,-337 249.75,-349 249.75,-349 249.75,-355 243.75,-361 237.75,-361"/>
<text xml:space="preserve" text-anchor="middle" x="180.25" y="-339.5" font-family="Arial" font-size="10.00" fill="#1a1a1a">(+) multiple categories listed</text>
</g>
<!-- furniture.legend&#45;&gt;attr_4 -->
<g id="edge6" class="edge">
<title>furniture.legend&#45;&gt;attr_4</title>
<path fill="none" stroke="#aaaaaa" d="M58.26,-315.98C70.72,-318.76 86.25,-322.23 101.99,-325.74"/>
<polygon fill="#aaaaaa" stroke="#aaaaaa" points="101.39,-328.12 108.75,-327.25 102.45,-323.34 101.39,-328.12"/>
</g>
<!-- rel_3 -->
<g id="node17" class="node">
<title>rel_3</title>
<path fill="#f5b8b8" stroke="#d46a6a" stroke-width="1.2" d="M222,-296C222,-296 138.5,-296 138.5,-296 132.5,-296 126.5,-290 126.5,-284 126.5,-284 126.5,-272 126.5,-272 126.5,-266 132.5,-260 138.5,-260 138.5,-260 222,-260 222,-260 228,-260 234,-266 234,-272 234,-272 234,-284 234,-284 234,-290 228,-296 222,-296"/>
<text xml:space="preserve" text-anchor="middle" x="180.25" y="-274.5" font-family="Arial" font-size="10.00" fill="#8b0000">requires expertise for</text>
</g>
<!-- furniture.legend&#45;&gt;rel_3 -->
<g id="edge14" class="edge">
<title>furniture.legend&#45;&gt;rel_3</title>
<path fill="none" stroke="#d46a6a" stroke-width="1.5" d="M58.26,-304.21C74.48,-300.69 95.9,-296.05 116.21,-291.65"/>
<polygon fill="#d46a6a" stroke="#d46a6a" stroke-width="1.5" points="116.62,-294.43 123.85,-290 115.43,-288.96 116.62,-294.43"/>
</g>
<!-- unknown.measurements -->
<g id="node6" class="node">
<title>unknown.measurements</title>
<path fill="#b8e6b8" stroke="#2c3e50" stroke-width="1.8" d="M368,-101C368,-101 311.5,-101 311.5,-101 305.5,-101 299.5,-95 299.5,-89 299.5,-89 299.5,-77 299.5,-77 299.5,-71 305.5,-65 311.5,-65 311.5,-65 368,-65 368,-65 374,-65 380,-71 380,-77 380,-77 380,-89 380,-89 380,-95 374,-101 368,-101"/>
<text xml:space="preserve" text-anchor="middle" x="339.75" y="-79.5" font-family="Arial" font-size="10.00" fill="#1a1a1a">measurements</text>
</g>
<!-- attr_5 -->
<g id="node13" class="node">
<title>attr_5</title>
<path fill="#c7b8e6" stroke="#7f8c8d" stroke-width="1.2" d="M586,-166C586,-166 435,-166 435,-166 429,-166 423,-160 423,-154 423,-154 423,-142 423,-142 423,-136 429,-130 435,-130 435,-130 586,-130 586,-130 592,-130 598,-136 598,-142 598,-142 598,-154 598,-154 598,-160 592,-166 586,-166"/>
<text xml:space="preserve" text-anchor="middle" x="510.5" y="-144.5" font-family="Arial" font-size="10.00" fill="#1a1a1a">(+) several measurements combined</text>
</g>
<!-- unknown.measurements&#45;&gt;attr_5 -->
<g id="edge7" class="edge">
<title>unknown.measurements&#45;&gt;attr_5</title>
<path fill="none" stroke="#aaaaaa" d="M380.82,-99.33C394.21,-104.72 409.22,-110.69 423,-116 431.99,-119.46 441.53,-123.07 450.86,-126.55"/>
<polygon fill="#aaaaaa" stroke="#aaaaaa" points="449.81,-128.78 457.22,-128.92 451.52,-124.18 449.81,-128.78"/>
</g>
<!-- rel_1 -->
<g id="node15" class="node">
<title>rel_1</title>
<path fill="#f5b8b8" stroke="#d46a6a" stroke-width="1.2" d="M550.38,-101C550.38,-101 470.62,-101 470.62,-101 464.62,-101 458.62,-95 458.62,-89 458.62,-89 458.62,-77 458.62,-77 458.62,-71 464.62,-65 470.62,-65 470.62,-65 550.38,-65 550.38,-65 556.38,-65 562.38,-71 562.38,-77 562.38,-77 562.38,-89 562.38,-89 562.38,-95 556.38,-101 550.38,-101"/>
<text xml:space="preserve" text-anchor="middle" x="510.5" y="-79.5" font-family="Arial" font-size="10.00" fill="#8b0000">increases density of</text>
</g>
<!-- unknown.measurements&#45;&gt;rel_1 -->
<g id="edge10" class="edge">
<title>unknown.measurements&#45;&gt;rel_1</title>
<path fill="none" stroke="#d46a6a" stroke-width="1.5" d="M380.74,-83C400.86,-83 425.68,-83 448.14,-83"/>
<polygon fill="#d46a6a" stroke="#d46a6a" stroke-width="1.5" points="448,-85.8 456,-83 448,-80.2 448,-85.8"/>
</g>
<!-- rel_4 -->
<g id="node18" class="node">
<title>rel_4</title>
<path fill="#f5b8b8" stroke="#d46a6a" stroke-width="1.2" d="M532.75,-36C532.75,-36 488.25,-36 488.25,-36 482.25,-36 476.25,-30 476.25,-24 476.25,-24 476.25,-12 476.25,-12 476.25,-6 482.25,0 488.25,0 488.25,0 532.75,0 532.75,0 538.75,0 544.75,-6 544.75,-12 544.75,-12 544.75,-24 544.75,-24 544.75,-30 538.75,-36 532.75,-36"/>
<text xml:space="preserve" text-anchor="middle" x="510.5" y="-14.5" font-family="Arial" font-size="10.00" fill="#8b0000">overwhelms</text>
</g>
<!-- unknown.measurements&#45;&gt;rel_4 -->
<g id="edge16" class="edge">
<title>unknown.measurements&#45;&gt;rel_4</title>
<path fill="none" stroke="#d46a6a" stroke-width="1.5" d="M380.82,-66.67C394.21,-61.28 409.22,-55.31 423,-50 437.08,-44.57 452.52,-38.8 466.41,-33.68"/>
<polygon fill="#d46a6a" stroke="#d46a6a" stroke-width="1.5" points="467.06,-36.42 473.6,-31.03 465.13,-31.17 467.06,-36.42"/>
</g>
<!-- rel_0&#45;&gt;unknown.data_points -->
<g id="edge9" class="edge">
<title>rel_0&#45;&gt;unknown.data_points</title>
<path fill="none" stroke="#d46a6a" stroke-width="1.5" d="M544.97,-201.19C561.09,-195.36 580.65,-188.07 598,-181 608.78,-176.61 620.32,-171.61 631.01,-166.85"/>
<polygon fill="#d46a6a" stroke="#d46a6a" stroke-width="1.5" points="631.92,-169.51 638.07,-163.68 629.63,-164.4 631.92,-169.51"/>
</g>
<!-- rel_1&#45;&gt;unknown.data_points -->
<g id="edge11" class="edge">
<title>rel_1&#45;&gt;unknown.data_points</title>
<path fill="none" stroke="#d46a6a" stroke-width="1.5" d="M561.05,-101.48C573.18,-106.12 586.09,-111.16 598,-116 608.83,-120.41 620.47,-125.34 631.24,-130"/>
<polygon fill="#d46a6a" stroke="#d46a6a" stroke-width="1.5" points="629.9,-132.47 638.36,-133.09 632.13,-127.33 629.9,-132.47"/>
</g>
<!-- rel_2&#45;&gt;unknown.measurements -->
<g id="edge13" class="edge">
<title>rel_2&#45;&gt;unknown.measurements</title>
<path fill="none" stroke="#d46a6a" stroke-width="1.5" d="M210.14,-83C232.09,-83 262.82,-83 288.74,-83"/>
<polygon fill="#d46a6a" stroke="#d46a6a" stroke-width="1.5" points="288.51,-85.8 296.51,-83 288.51,-80.2 288.51,-85.8"/>
</g>
<!-- rel_3&#45;&gt;property.color -->
<g id="edge15" class="edge">
<title>rel_3&#45;&gt;property.color</title>
<path fill="none" stroke="#d46a6a" stroke-width="1.5" d="M234.57,-278C256.66,-278 281.74,-278 301.76,-278"/>
<polygon fill="#d46a6a" stroke="#d46a6a" stroke-width="1.5" points="301.74,-280.8 309.74,-278 301.74,-275.2 301.74,-280.8"/>
</g>
<!-- rel_4&#45;&gt;text.axis_label -->
<g id="edge17" class="edge">
<title>rel_4&#45;&gt;text.axis_label</title>
<path fill="none" stroke="#d46a6a" stroke-width="1.5" d="M545.15,-18C570.87,-18 606.37,-18 633.28,-18"/>
<polygon fill="#d46a6a" stroke="#d46a6a" stroke-width="1.5" points="633.22,-20.8 641.22,-18 633.22,-15.2 633.22,-20.8"/>
</g>
</g>
</svg>
