<?xml version="1.0" encoding="UTF-8" standalone="no"?>
<!DOCTYPE svg PUBLIC "-//W3C//DTD SVG 1.1//EN"
 "http://www.w3.org/Graphics/SVG/1.1/DTD/svg11.dtd">
<!-- Generated by graphviz version 14.1.5 (20260411.2331)
 -->
<!-- Title: SciVisJ.867.6.png Pages: 1 -->
<svg width="787pt" height="440pt"
 viewBox="0.00 0.00 787.00 440.00" xmlns="http://www.w3.org/2000/svg" xmlns:xlink="http://www.w3.org/1999/xlink">
<g id="graph0" class="graph" transform="scale(1 1) rotate(0) translate(4 436.25)">
<title>SciVisJ.867.6.png</title>
<polygon fill="white" stroke="none" points="-4,4 -4,-436.25 783.25,-436.25 783.25,4 -4,4"/>
<text xml:space="preserve" text-anchor="start" x="332.62" y="-411.95" font-family="Arial" font-weight="bold" font-size="14.00">SciVisJ.867.6.png</text>
<text xml:space="preserve" text-anchor="start" x="347.25" y="-392" font-family="Arial" font-size="11.00">Line &#160;| &#160;VC = 0.59</text>
<path fill="#b8e6b8" stroke="none" d="M180.25,-367C180.25,-367 188.25,-367 188.25,-367 191.25,-367 194.25,-370 194.25,-373 194.25,-373 194.25,-379 194.25,-379 194.25,-382 191.25,-385 188.25,-385 188.25,-385 180.25,-385 180.25,-385 177.25,-385 174.25,-382 174.25,-379 174.25,-379 174.25,-373 174.25,-373 174.25,-370 177.25,-367 180.25,-367"/>
<path fill="none" stroke="black" d="M180.25,-367C180.25,-367 188.25,-367 188.25,-367 191.25,-367 194.25,-370 194.25,-373 194.25,-373 194.25,-379 194.25,-379 194.25,-382 191.25,-385 188.25,-385 188.25,-385 180.25,-385 180.25,-385 177.25,-385 174.25,-382 174.25,-379 174.25,-379 174.25,-373 174.25,-373 174.25,-370 177.25,-367 180.25,-367"/>
<text xml:space="preserve" text-anchor="start" x="182.75" y="-372.25" font-family="Arial" font-size="10.00"> </text>
<text xml:space="preserve" text-anchor="start" x="198.25" y="-372.25" font-family="Arial" font-size="10.00">Object</text>
<path fill="#c7b8e6" stroke="none" d="M236.75,-367C236.75,-367 244.75,-367 244.75,-367 247.75,-367 250.75,-370 250.75,-373 250.75,-373 250.75,-379 250.75,-379 250.75,-382 247.75,-385 244.75,-385 244.75,-385 236.75,-385 236.75,-385 233.75,-385 230.75,-382 230.75,-379 230.75,-379 230.75,-373 230.75,-373 230.75,-370 233.75,-367 236.75,-367"/>
<path fill="none" stroke="black" d="M236.75,-367C236.75,-367 244.75,-367 244.75,-367 247.75,-367 250.75,-370 250.75,-373 250.75,-373 250.75,-379 250.75,-379 250.75,-382 247.75,-385 244.75,-385 244.75,-385 236.75,-385 236.75,-385 233.75,-385 230.75,-382 230.75,-379 230.75,-379 230.75,-373 230.75,-373 230.75,-370 233.75,-367 236.75,-367"/>
<text xml:space="preserve" text-anchor="start" x="239.25" y="-372.25" font-family="Arial" font-size="10.00"> </text>
<text xml:space="preserve" text-anchor="start" x="254.75" y="-372.25" font-family="Arial" font-size="10.00">Attribute</text>
<path fill="#f5b8b8" stroke="none" d="M301.5,-367C301.5,-367 309.5,-367 309.5,-367 312.5,-367 315.5,-370 315.5,-373 315.5,-373 315.5,-379 315.5,-379 315.5,-382 312.5,-385 309.5,-385 309.5,-385 301.5,-385 301.5,-385 298.5,-385 295.5,-382 295.5,-379 295.5,-379 295.5,-373 295.5,-373 295.5,-370 298.5,-367 301.5,-367"/>
<path fill="none" stroke="black" d="M301.5,-367C301.5,-367 309.5,-367 309.5,-367 312.5,-367 315.5,-370 315.5,-373 315.5,-373 315.5,-379 315.5,-379 315.5,-382 312.5,-385 309.5,-385 309.5,-385 301.5,-385 301.5,-385 298.5,-385 295.5,-382 295.5,-379 295.5,-379 295.5,-373 295.5,-373 295.5,-370 298.5,-367 301.5,-367"/>
<text xml:space="preserve" text-anchor="start" x="304" y="-372.25" font-family="Arial" font-size="10.00"> </text>
<text xml:space="preserve" text-anchor="start" x="319.5" y="-372.25" font-family="Arial" font-size="10.00">Relationship</text>
<text xml:space="preserve" text-anchor="start" x="379.5" y="-373.5" font-family="Arial" font-weight="bold" font-size="10.00">(+)</text>
<text xml:space="preserve" text-anchor="start" x="391.5" y="-373.5" font-family="Arial" font-size="10.00"> increases complexity</text>
<text xml:space="preserve" text-anchor="start" x="492.75" y="-373.5" font-family="Arial" font-weight="bold" font-size="10.00">(−)</text>
<text xml:space="preserve" text-anchor="start" x="504.75" y="-373.5" font-family="Arial" font-size="10.00"> decreases complexity</text>
<!-- unknown.data_points -->
<g id="node1" class="node">
<title>unknown.data_points</title>
<path fill="#b8e6b8" stroke="#2c3e50" stroke-width="1.8" d="M309.25,-263C309.25,-263 269.25,-263 269.25,-263 263.25,-263 257.25,-257 257.25,-251 257.25,-251 257.25,-239 257.25,-239 257.25,-233 263.25,-227 269.25,-227 269.25,-227 309.25,-227 309.25,-227 315.25,-227 321.25,-233 321.25,-239 321.25,-239 321.25,-251 321.25,-251 321.25,-257 315.25,-263 309.25,-263"/>
<text xml:space="preserve" text-anchor="middle" x="289.25" y="-241.5" font-family="Arial" font-size="10.00" fill="#1a1a1a">data points</text>
</g>
<!-- attr_0 -->
<g id="node6" class="node">
<title>attr_0</title>
<path fill="#c7b8e6" stroke="#7f8c8d" stroke-width="1.2" d="M489.75,-231C489.75,-231 376.25,-231 376.25,-231 370.25,-231 364.25,-225 364.25,-219 364.25,-219 364.25,-207 364.25,-207 364.25,-201 370.25,-195 376.25,-195 376.25,-195 489.75,-195 489.75,-195 495.75,-195 501.75,-201 501.75,-207 501.75,-207 501.75,-219 501.75,-219 501.75,-225 495.75,-231 489.75,-231"/>
<text xml:space="preserve" text-anchor="middle" x="433" y="-209.5" font-family="Arial" font-size="10.00" fill="#1a1a1a">(+) densely packed together</text>
</g>
<!-- unknown.data_points&#45;&gt;attr_0 -->
<g id="edge1" class="edge">
<title>unknown.data_points&#45;&gt;attr_0</title>
<path fill="none" stroke="#aaaaaa" d="M322.06,-237.82C332.14,-235.54 343.76,-232.92 355.58,-230.25"/>
<polygon fill="#aaaaaa" stroke="#aaaaaa" points="356.01,-232.67 362.3,-228.73 354.93,-227.89 356.01,-232.67"/>
</g>
<!-- attr_1 -->
<g id="node7" class="node">
<title>attr_1</title>
<path fill="#c7b8e6" stroke="#7f8c8d" stroke-width="1.2" d="M468.75,-166C468.75,-166 397.25,-166 397.25,-166 391.25,-166 385.25,-160 385.25,-154 385.25,-154 385.25,-142 385.25,-142 385.25,-136 391.25,-130 397.25,-130 397.25,-130 468.75,-130 468.75,-130 474.75,-130 480.75,-136 480.75,-142 480.75,-142 480.75,-154 480.75,-154 480.75,-160 474.75,-166 468.75,-166"/>
<text xml:space="preserve" text-anchor="middle" x="433" y="-144.5" font-family="Arial" font-size="10.00" fill="#1a1a1a">(+) hard to discern</text>
</g>
<!-- unknown.data_points&#45;&gt;attr_1 -->
<g id="edge2" class="edge">
<title>unknown.data_points&#45;&gt;attr_1</title>
<path fill="none" stroke="#aaaaaa" d="M308.53,-226.32C322.83,-212.39 343.67,-193.51 364.25,-180 369.45,-176.59 375.07,-173.33 380.77,-170.3"/>
<polygon fill="#aaaaaa" stroke="#aaaaaa" points="381.56,-172.64 386.67,-167.26 379.32,-168.29 381.56,-172.64"/>
</g>
<!-- rel_0 -->
<g id="node11" class="node">
<title>rel_0</title>
<path fill="#f5b8b8" stroke="#d46a6a" stroke-width="1.2" d="M450,-296C450,-296 416,-296 416,-296 410,-296 404,-290 404,-284 404,-284 404,-272 404,-272 404,-266 410,-260 416,-260 416,-260 450,-260 450,-260 456,-260 462,-266 462,-272 462,-272 462,-284 462,-284 462,-290 456,-296 450,-296"/>
<text xml:space="preserve" text-anchor="middle" x="433" y="-274.5" font-family="Arial" font-size="10.00" fill="#8b0000">increases</text>
</g>
<!-- unknown.data_points&#45;&gt;rel_0 -->
<g id="edge6" class="edge">
<title>unknown.data_points&#45;&gt;rel_0</title>
<path fill="none" stroke="#d46a6a" stroke-width="1.5" d="M322.06,-252.41C343.3,-257.35 371.34,-263.88 393.78,-269.1"/>
<polygon fill="#d46a6a" stroke="#d46a6a" stroke-width="1.5" points="393.02,-271.8 401.45,-270.89 394.29,-266.35 393.02,-271.8"/>
</g>
<!-- rel_3 -->
<g id="node14" class="node">
<title>rel_3</title>
<path fill="#f5b8b8" stroke="#d46a6a" stroke-width="1.2" d="M469.88,-361C469.88,-361 396.12,-361 396.12,-361 390.12,-361 384.12,-355 384.12,-349 384.12,-349 384.12,-337 384.12,-337 384.12,-331 390.12,-325 396.12,-325 396.12,-325 469.88,-325 469.88,-325 475.88,-325 481.88,-331 481.88,-337 481.88,-337 481.88,-349 481.88,-349 481.88,-355 475.88,-361 469.88,-361"/>
<text xml:space="preserve" text-anchor="middle" x="433" y="-339.5" font-family="Arial" font-size="10.00" fill="#8b0000">harder to read than</text>
</g>
<!-- unknown.data_points&#45;&gt;rel_3 -->
<g id="edge12" class="edge">
<title>unknown.data_points&#45;&gt;rel_3</title>
<path fill="none" stroke="#d46a6a" stroke-width="1.5" d="M308.18,-263.69C322.46,-277.88 343.44,-297.22 364.25,-311 368.98,-314.13 374.05,-317.12 379.23,-319.93"/>
<polygon fill="#d46a6a" stroke="#d46a6a" stroke-width="1.5" points="377.58,-322.23 385.97,-323.43 380.16,-317.26 377.58,-322.23"/>
</g>
<!-- unknown.lines -->
<g id="node2" class="node">
<title>unknown.lines</title>
<path fill="#b8e6b8" stroke="#2c3e50" stroke-width="1.8" d="M304.25,-69C304.25,-69 274.25,-69 274.25,-69 268.25,-69 262.25,-63 262.25,-57 262.25,-57 262.25,-45 262.25,-45 262.25,-39 268.25,-33 274.25,-33 274.25,-33 304.25,-33 304.25,-33 310.25,-33 316.25,-39 316.25,-45 316.25,-45 316.25,-57 316.25,-57 316.25,-63 310.25,-69 304.25,-69"/>
<text xml:space="preserve" text-anchor="middle" x="289.25" y="-47.5" font-family="Arial" font-size="10.00" fill="#1a1a1a">lines</text>
</g>
<!-- attr_2 -->
<g id="node8" class="node">
<title>attr_2</title>
<path fill="#c7b8e6" stroke="#7f8c8d" stroke-width="1.2" d="M486.38,-101C486.38,-101 379.62,-101 379.62,-101 373.62,-101 367.62,-95 367.62,-89 367.62,-89 367.62,-77 367.62,-77 367.62,-71 373.62,-65 379.62,-65 379.62,-65 486.38,-65 486.38,-65 492.38,-65 498.38,-71 498.38,-77 498.38,-77 498.38,-89 498.38,-89 498.38,-95 492.38,-101 486.38,-101"/>
<text xml:space="preserve" text-anchor="middle" x="433" y="-79.5" font-family="Arial" font-size="10.00" fill="#1a1a1a">(+) many overlapping lines</text>
</g>
<!-- unknown.lines&#45;&gt;attr_2 -->
<g id="edge3" class="edge">
<title>unknown.lines&#45;&gt;attr_2</title>
<path fill="none" stroke="#aaaaaa" d="M316.91,-57.02C329.07,-59.76 344.11,-63.16 359.27,-66.58"/>
<polygon fill="#aaaaaa" stroke="#aaaaaa" points="358.35,-68.89 365.72,-68.04 359.43,-64.11 358.35,-68.89"/>
</g>
<!-- rel_2 -->
<g id="node13" class="node">
<title>rel_2</title>
<path fill="#f5b8b8" stroke="#d46a6a" stroke-width="1.2" d="M455.25,-36C455.25,-36 410.75,-36 410.75,-36 404.75,-36 398.75,-30 398.75,-24 398.75,-24 398.75,-12 398.75,-12 398.75,-6 404.75,0 410.75,0 410.75,0 455.25,0 455.25,0 461.25,0 467.25,-6 467.25,-12 467.25,-12 467.25,-24 467.25,-24 467.25,-30 461.25,-36 455.25,-36"/>
<text xml:space="preserve" text-anchor="middle" x="433" y="-14.5" font-family="Arial" font-size="10.00" fill="#8b0000">overwhelms</text>
</g>
<!-- unknown.lines&#45;&gt;rel_2 -->
<g id="edge10" class="edge">
<title>unknown.lines&#45;&gt;rel_2</title>
<path fill="none" stroke="#d46a6a" stroke-width="1.5" d="M316.91,-44.79C337.05,-40.1 365.12,-33.57 388.5,-28.13"/>
<polygon fill="#d46a6a" stroke="#d46a6a" stroke-width="1.5" points="388.82,-30.93 395.98,-26.39 387.55,-25.47 388.82,-30.93"/>
</g>
<!-- unknown.circles -->
<g id="node3" class="node">
<title>unknown.circles</title>
<path fill="#b8e6b8" stroke="#2c3e50" stroke-width="1.8" d="M42,-101C42,-101 12,-101 12,-101 6,-101 0,-95 0,-89 0,-89 0,-77 0,-77 0,-71 6,-65 12,-65 12,-65 42,-65 42,-65 48,-65 54,-71 54,-77 54,-77 54,-89 54,-89 54,-95 48,-101 42,-101"/>
<text xml:space="preserve" text-anchor="middle" x="27" y="-79.5" font-family="Arial" font-size="10.00" fill="#1a1a1a">circles</text>
</g>
<!-- attr_3 -->
<g id="node9" class="node">
<title>attr_3</title>
<path fill="#c7b8e6" stroke="#7f8c8d" stroke-width="1.2" d="M202.25,-134C202.25,-134 109,-134 109,-134 103,-134 97,-128 97,-122 97,-122 97,-110 97,-110 97,-104 103,-98 109,-98 109,-98 202.25,-98 202.25,-98 208.25,-98 214.25,-104 214.25,-110 214.25,-110 214.25,-122 214.25,-122 214.25,-128 208.25,-134 202.25,-134"/>
<text xml:space="preserve" text-anchor="middle" x="155.62" y="-112.5" font-family="Arial" font-size="10.00" fill="#1a1a1a">(+) combined with lines</text>
</g>
<!-- unknown.circles&#45;&gt;attr_3 -->
<g id="edge4" class="edge">
<title>unknown.circles&#45;&gt;attr_3</title>
<path fill="none" stroke="#aaaaaa" d="M54.85,-90C64.76,-92.58 76.48,-95.63 88.34,-98.72"/>
<polygon fill="#aaaaaa" stroke="#aaaaaa" points="87.69,-101.09 95.08,-100.48 88.93,-96.35 87.69,-101.09"/>
</g>
<!-- rel_1 -->
<g id="node12" class="node">
<title>rel_1</title>
<path fill="#f5b8b8" stroke="#d46a6a" stroke-width="1.2" d="M183.12,-69C183.12,-69 128.12,-69 128.12,-69 122.12,-69 116.12,-63 116.12,-57 116.12,-57 116.12,-45 116.12,-45 116.12,-39 122.12,-33 128.12,-33 128.12,-33 183.12,-33 183.12,-33 189.12,-33 195.12,-39 195.12,-45 195.12,-45 195.12,-57 195.12,-57 195.12,-63 189.12,-69 183.12,-69"/>
<text xml:space="preserve" text-anchor="middle" x="155.62" y="-47.5" font-family="Arial" font-size="10.00" fill="#8b0000">combined with</text>
</g>
<!-- unknown.circles&#45;&gt;rel_1 -->
<g id="edge8" class="edge">
<title>unknown.circles&#45;&gt;rel_1</title>
<path fill="none" stroke="#d46a6a" stroke-width="1.5" d="M54.85,-76.21C69.8,-72.44 88.86,-67.62 106.3,-63.21"/>
<polygon fill="#d46a6a" stroke="#d46a6a" stroke-width="1.5" points="106.52,-66.04 113.59,-61.37 105.15,-60.61 106.52,-66.04"/>
</g>
<!-- whole.visualization -->
<g id="node4" class="node">
<title>whole.visualization</title>
<path fill="#b8e6b8" stroke="#2c3e50" stroke-width="1.8" d="M586.75,-166C586.75,-166 556.75,-166 556.75,-166 550.75,-166 544.75,-160 544.75,-154 544.75,-154 544.75,-142 544.75,-142 544.75,-136 550.75,-130 556.75,-130 556.75,-130 586.75,-130 586.75,-130 592.75,-130 598.75,-136 598.75,-142 598.75,-142 598.75,-154 598.75,-154 598.75,-160 592.75,-166 586.75,-166"/>
<text xml:space="preserve" text-anchor="middle" x="571.75" y="-144.5" font-family="Arial" font-size="10.00" fill="#1a1a1a">graph</text>
</g>
<!-- attr_4 -->
<g id="node10" class="node">
<title>attr_4</title>
<path fill="#c7b8e6" stroke="#7f8c8d" stroke-width="1.2" d="M767.25,-166C767.25,-166 653.75,-166 653.75,-166 647.75,-166 641.75,-160 641.75,-154 641.75,-154 641.75,-142 641.75,-142 641.75,-136 647.75,-130 653.75,-130 653.75,-130 767.25,-130 767.25,-130 773.25,-130 779.25,-136 779.25,-142 779.25,-142 779.25,-154 779.25,-154 779.25,-160 773.25,-166 767.25,-166"/>
<text xml:space="preserve" text-anchor="middle" x="710.5" y="-144.5" font-family="Arial" font-size="10.00" fill="#1a1a1a">(+) unfamiliar representation</text>
</g>
<!-- whole.visualization&#45;&gt;attr_4 -->
<g id="edge5" class="edge">
<title>whole.visualization&#45;&gt;attr_4</title>
<path fill="none" stroke="#aaaaaa" d="M599.44,-148C609.23,-148 620.86,-148 632.84,-148"/>
<polygon fill="#aaaaaa" stroke="#aaaaaa" points="632.65,-150.45 639.65,-148 632.65,-145.55 632.65,-150.45"/>
</g>
<!-- unknown.axes -->
<g id="node5" class="node">
<title>unknown.axes</title>
<path fill="#b8e6b8" stroke="#2c3e50" stroke-width="1.8" d="M586.75,-361C586.75,-361 556.75,-361 556.75,-361 550.75,-361 544.75,-355 544.75,-349 544.75,-349 544.75,-337 544.75,-337 544.75,-331 550.75,-325 556.75,-325 556.75,-325 586.75,-325 586.75,-325 592.75,-325 598.75,-331 598.75,-337 598.75,-337 598.75,-349 598.75,-349 598.75,-355 592.75,-361 586.75,-361"/>
<text xml:space="preserve" text-anchor="middle" x="571.75" y="-339.5" font-family="Arial" font-size="10.00" fill="#1a1a1a">axes</text>
</g>
<!-- rel_0&#45;&gt;whole.visualization -->
<g id="edge7" class="edge">
<title>rel_0&#45;&gt;whole.visualization</title>
<path fill="none" stroke="#d46a6a" stroke-width="1.5" d="M462.57,-267.85C475.43,-262.37 490.27,-254.73 501.75,-245 524.83,-225.45 544.07,-196.55 556.32,-175.38"/>
<polygon fill="#d46a6a" stroke="#d46a6a" stroke-width="1.5" points="558.69,-176.87 560.17,-168.53 553.81,-174.13 558.69,-176.87"/>
</g>
<!-- rel_1&#45;&gt;unknown.lines -->
<g id="edge9" class="edge">
<title>rel_1&#45;&gt;unknown.lines</title>
<path fill="none" stroke="#d46a6a" stroke-width="1.5" d="M195.4,-51C213.15,-51 234.08,-51 251.57,-51"/>
<polygon fill="#d46a6a" stroke="#d46a6a" stroke-width="1.5" points="251.15,-53.8 259.15,-51 251.15,-48.2 251.15,-53.8"/>
</g>
<!-- rel_2&#45;&gt;whole.visualization -->
<g id="edge11" class="edge">
<title>rel_2&#45;&gt;whole.visualization</title>
<path fill="none" stroke="#d46a6a" stroke-width="1.5" d="M467.72,-29.84C479.28,-34.91 491.79,-41.63 501.75,-50 525.05,-69.6 544.26,-98.82 556.44,-120.25"/>
<polygon fill="#d46a6a" stroke="#d46a6a" stroke-width="1.5" points="553.97,-121.56 560.28,-127.21 558.87,-118.85 553.97,-121.56"/>
</g>
<!-- rel_3&#45;&gt;unknown.axes -->
<g id="edge13" class="edge">
<title>rel_3&#45;&gt;unknown.axes</title>
<path fill="none" stroke="#d46a6a" stroke-width="1.5" d="M482.21,-343C499.24,-343 518.11,-343 534.03,-343"/>
<polygon fill="#d46a6a" stroke="#d46a6a" stroke-width="1.5" points="533.75,-345.8 541.75,-343 533.75,-340.2 533.75,-345.8"/>
</g>
</g>
</svg>
