<?xml version="1.0" encoding="UTF-8" standalone="no"?>
<!DOCTYPE svg PUBLIC "-//W3C//DTD SVG 1.1//EN"
 "http://www.w3.org/Graphics/SVG/1.1/DTD/svg11.dtd">
<!-- Generated by graphviz version 14.1.5 (20260411.2331)
 -->
<!-- Title: SciVisJ.1025.10.png Pages: 1 -->
<svg width="788pt" height="437pt"
 viewBox="0.00 0.00 788.00 437.00" xmlns="http://www.w3.org/2000/svg" xmlns:xlink="http://www.w3.org/1999/xlink">
<g id="graph0" class="graph" transform="scale(1 1) rotate(0) translate(4 433.25)">
<title>SciVisJ.1025.10.png</title>
<polygon fill="white" stroke="none" points="-4,4 -4,-433.25 784.25,-433.25 784.25,4 -4,4"/>
<text xml:space="preserve" text-anchor="start" x="325.62" y="-408.95" font-family="Arial" font-weight="bold" font-size="14.00">SciVisJ.1025.10.png</text>
<text xml:space="preserve" text-anchor="start" x="347.75" y="-389" font-family="Arial" font-size="11.00">Line &#160;| &#160;VC = 0.58</text>
<path fill="#b8e6b8" stroke="none" d="M180.75,-364C180.75,-364 188.75,-364 188.75,-364 191.75,-364 194.75,-367 194.75,-370 194.75,-370 194.75,-376 194.75,-376 194.75,-379 191.75,-382 188.75,-382 188.75,-382 180.75,-382 180.75,-382 177.75,-382 174.75,-379 174.75,-376 174.75,-376 174.75,-370 174.75,-370 174.75,-367 177.75,-364 180.75,-364"/>
<path fill="none" stroke="black" d="M180.75,-364C180.75,-364 188.75,-364 188.75,-364 191.75,-364 194.75,-367 194.75,-370 194.75,-370 194.75,-376 194.75,-376 194.75,-379 191.75,-382 188.75,-382 188.75,-382 180.75,-382 180.75,-382 177.75,-382 174.75,-379 174.75,-376 174.75,-376 174.75,-370 174.75,-370 174.75,-367 177.75,-364 180.75,-364"/>
<text xml:space="preserve" text-anchor="start" x="183.25" y="-369.25" font-family="Arial" font-size="10.00"> </text>
<text xml:space="preserve" text-anchor="start" x="198.75" y="-369.25" font-family="Arial" font-size="10.00">Object</text>
<path fill="#c7b8e6" stroke="none" d="M237.25,-364C237.25,-364 245.25,-364 245.25,-364 248.25,-364 251.25,-367 251.25,-370 251.25,-370 251.25,-376 251.25,-376 251.25,-379 248.25,-382 245.25,-382 245.25,-382 237.25,-382 237.25,-382 234.25,-382 231.25,-379 231.25,-376 231.25,-376 231.25,-370 231.25,-370 231.25,-367 234.25,-364 237.25,-364"/>
<path fill="none" stroke="black" d="M237.25,-364C237.25,-364 245.25,-364 245.25,-364 248.25,-364 251.25,-367 251.25,-370 251.25,-370 251.25,-376 251.25,-376 251.25,-379 248.25,-382 245.25,-382 245.25,-382 237.25,-382 237.25,-382 234.25,-382 231.25,-379 231.25,-376 231.25,-376 231.25,-370 231.25,-370 231.25,-367 234.25,-364 237.25,-364"/>
<text xml:space="preserve" text-anchor="start" x="239.75" y="-369.25" font-family="Arial" font-size="10.00"> </text>
<text xml:space="preserve" text-anchor="start" x="255.25" y="-369.25" font-family="Arial" font-size="10.00">Attribute</text>
<path fill="#f5b8b8" stroke="none" d="M302,-364C302,-364 310,-364 310,-364 313,-364 316,-367 316,-370 316,-370 316,-376 316,-376 316,-379 313,-382 310,-382 310,-382 302,-382 302,-382 299,-382 296,-379 296,-376 296,-376 296,-370 296,-370 296,-367 299,-364 302,-364"/>
<path fill="none" stroke="black" d="M302,-364C302,-364 310,-364 310,-364 313,-364 316,-367 316,-370 316,-370 316,-376 316,-376 316,-379 313,-382 310,-382 310,-382 302,-382 302,-382 299,-382 296,-379 296,-376 296,-376 296,-370 296,-370 296,-367 299,-364 302,-364"/>
<text xml:space="preserve" text-anchor="start" x="304.5" y="-369.25" font-family="Arial" font-size="10.00"> </text>
<text xml:space="preserve" text-anchor="start" x="320" y="-369.25" font-family="Arial" font-size="10.00">Relationship</text>
<text xml:space="preserve" text-anchor="start" x="380" y="-370.5" font-family="Arial" font-weight="bold" font-size="10.00">(+)</text>
<text xml:space="preserve" text-anchor="start" x="392" y="-370.5" font-family="Arial" font-size="10.00"> increases complexity</text>
<text xml:space="preserve" text-anchor="start" x="493.25" y="-370.5" font-family="Arial" font-weight="bold" font-size="10.00">(−)</text>
<text xml:space="preserve" text-anchor="start" x="505.25" y="-370.5" font-family="Arial" font-size="10.00"> decreases complexity</text>
<!-- unknown.line_chart -->
<g id="node1" class="node">
<title>unknown.line_chart</title>
<path fill="#b8e6b8" stroke="#2c3e50" stroke-width="1.8" d="M43.75,-163C43.75,-163 12,-163 12,-163 6,-163 0,-157 0,-151 0,-151 0,-139 0,-139 0,-133 6,-127 12,-127 12,-127 43.75,-127 43.75,-127 49.75,-127 55.75,-133 55.75,-139 55.75,-139 55.75,-151 55.75,-151 55.75,-157 49.75,-163 43.75,-163"/>
<text xml:space="preserve" text-anchor="middle" x="27.88" y="-141.5" font-family="Arial" font-size="10.00" fill="#1a1a1a">line chart</text>
</g>
<!-- attr_0 -->
<g id="node6" class="node">
<title>attr_0</title>
<path fill="#c7b8e6" stroke="#7f8c8d" stroke-width="1.2" d="M219.75,-293C219.75,-293 116.75,-293 116.75,-293 110.75,-293 104.75,-287 104.75,-281 104.75,-281 104.75,-269 104.75,-269 104.75,-263 110.75,-257 116.75,-257 116.75,-257 219.75,-257 219.75,-257 225.75,-257 231.75,-263 231.75,-269 231.75,-269 231.75,-281 231.75,-281 231.75,-287 225.75,-293 219.75,-293"/>
<text xml:space="preserve" text-anchor="middle" x="168.25" y="-271.5" font-family="Arial" font-size="10.00" fill="#1a1a1a">(−) familiar representation</text>
</g>
<!-- unknown.line_chart&#45;&gt;attr_0 -->
<g id="edge1" class="edge">
<title>unknown.line_chart&#45;&gt;attr_0</title>
<path fill="none" stroke="#aaaaaa" d="M38.5,-163.56C50.29,-184.82 72.03,-219.6 98.75,-242 103.27,-245.79 108.3,-249.26 113.52,-252.41"/>
<polygon fill="#aaaaaa" stroke="#aaaaaa" points="112.12,-254.43 119.42,-255.76 114.54,-250.17 112.12,-254.43"/>
</g>
<!-- attr_3 -->
<g id="node7" class="node">
<title>attr_3</title>
<path fill="#c7b8e6" stroke="#7f8c8d" stroke-width="1.2" d="M225.75,-228C225.75,-228 110.75,-228 110.75,-228 104.75,-228 98.75,-222 98.75,-216 98.75,-216 98.75,-204 98.75,-204 98.75,-198 104.75,-192 110.75,-192 110.75,-192 225.75,-192 225.75,-192 231.75,-192 237.75,-198 237.75,-204 237.75,-204 237.75,-216 237.75,-216 237.75,-222 231.75,-228 225.75,-228"/>
<text xml:space="preserve" text-anchor="middle" x="168.25" y="-206.5" font-family="Arial" font-size="10.00" fill="#1a1a1a">(−) condensed simple layout</text>
</g>
<!-- unknown.line_chart&#45;&gt;attr_3 -->
<g id="edge2" class="edge">
<title>unknown.line_chart&#45;&gt;attr_3</title>
<path fill="none" stroke="#aaaaaa" d="M56.54,-158C74.74,-166.54 99.01,-177.94 120.19,-187.89"/>
<polygon fill="#aaaaaa" stroke="#aaaaaa" points="119.09,-190.08 126.46,-190.84 121.17,-185.65 119.09,-190.08"/>
</g>
<!-- rel_0 -->
<g id="node11" class="node">
<title>rel_0</title>
<path fill="#f5b8b8" stroke="#d46a6a" stroke-width="1.2" d="M190.5,-163C190.5,-163 146,-163 146,-163 140,-163 134,-157 134,-151 134,-151 134,-139 134,-139 134,-133 140,-127 146,-127 146,-127 190.5,-127 190.5,-127 196.5,-127 202.5,-133 202.5,-139 202.5,-139 202.5,-151 202.5,-151 202.5,-157 196.5,-163 190.5,-163"/>
<text xml:space="preserve" text-anchor="middle" x="168.25" y="-141.5" font-family="Arial" font-size="10.00" fill="#8b0000">conveys via</text>
</g>
<!-- unknown.line_chart&#45;&gt;rel_0 -->
<g id="edge6" class="edge">
<title>unknown.line_chart&#45;&gt;rel_0</title>
<path fill="none" stroke="#d46a6a" stroke-width="1.5" d="M56.54,-145C75.68,-145 101.53,-145 123.44,-145"/>
<polygon fill="#d46a6a" stroke="#d46a6a" stroke-width="1.5" points="123.24,-147.8 131.24,-145 123.24,-142.2 123.24,-147.8"/>
</g>
<!-- rel_2 -->
<g id="node13" class="node">
<title>rel_2</title>
<path fill="#f5b8b8" stroke="#d46a6a" stroke-width="1.2" d="M214.5,-98C214.5,-98 122,-98 122,-98 116,-98 110,-92 110,-86 110,-86 110,-74 110,-74 110,-68 116,-62 122,-62 122,-62 214.5,-62 214.5,-62 220.5,-62 226.5,-68 226.5,-74 226.5,-74 226.5,-86 226.5,-86 226.5,-92 220.5,-98 214.5,-98"/>
<text xml:space="preserve" text-anchor="middle" x="168.25" y="-76.5" font-family="Arial" font-size="10.00" fill="#8b0000">requires familiarity with</text>
</g>
<!-- unknown.line_chart&#45;&gt;rel_2 -->
<g id="edge10" class="edge">
<title>unknown.line_chart&#45;&gt;rel_2</title>
<path fill="none" stroke="#d46a6a" stroke-width="1.5" d="M56.41,-131.96C69.27,-125.88 84.79,-118.56 98.75,-112 105.12,-109.01 111.83,-105.86 118.45,-102.77"/>
<polygon fill="#d46a6a" stroke="#d46a6a" stroke-width="1.5" points="119.28,-105.47 125.34,-99.55 116.9,-100.4 119.28,-105.47"/>
</g>
<!-- unknown.ranking -->
<g id="node2" class="node">
<title>unknown.ranking</title>
<path fill="#b8e6b8" stroke="#2c3e50" stroke-width="1.8" d="M322.75,-163C322.75,-163 292.75,-163 292.75,-163 286.75,-163 280.75,-157 280.75,-151 280.75,-151 280.75,-139 280.75,-139 280.75,-133 286.75,-127 292.75,-127 292.75,-127 322.75,-127 322.75,-127 328.75,-127 334.75,-133 334.75,-139 334.75,-139 334.75,-151 334.75,-151 334.75,-157 328.75,-163 322.75,-163"/>
<text xml:space="preserve" text-anchor="middle" x="307.75" y="-141.5" font-family="Arial" font-size="10.00" fill="#1a1a1a">ranking</text>
</g>
<!-- attr_1 -->
<g id="node8" class="node">
<title>attr_1</title>
<path fill="#c7b8e6" stroke="#7f8c8d" stroke-width="1.2" d="M504.75,-164C504.75,-164 389.75,-164 389.75,-164 383.75,-164 377.75,-158 377.75,-152 377.75,-152 377.75,-140 377.75,-140 377.75,-134 383.75,-128 389.75,-128 389.75,-128 504.75,-128 504.75,-128 510.75,-128 516.75,-134 516.75,-140 516.75,-140 516.75,-152 516.75,-152 516.75,-158 510.75,-164 504.75,-164"/>
<text xml:space="preserve" text-anchor="middle" x="447.25" y="-142.5" font-family="Arial" font-size="10.00" fill="#1a1a1a">(−) ordered ranking structure</text>
</g>
<!-- unknown.ranking&#45;&gt;attr_1 -->
<g id="edge3" class="edge">
<title>unknown.ranking&#45;&gt;attr_1</title>
<path fill="none" stroke="#aaaaaa" d="M335.59,-145.2C345.37,-145.27 356.98,-145.35 368.94,-145.44"/>
<polygon fill="#aaaaaa" stroke="#aaaaaa" points="368.72,-147.89 375.74,-145.49 368.76,-142.99 368.72,-147.89"/>
</g>
<!-- rel_1 -->
<g id="node12" class="node">
<title>rel_1</title>
<path fill="#f5b8b8" stroke="#d46a6a" stroke-width="1.2" d="M488.25,-99C488.25,-99 406.25,-99 406.25,-99 400.25,-99 394.25,-93 394.25,-87 394.25,-87 394.25,-75 394.25,-75 394.25,-69 400.25,-63 406.25,-63 406.25,-63 488.25,-63 488.25,-63 494.25,-63 500.25,-69 500.25,-75 500.25,-75 500.25,-87 500.25,-87 500.25,-93 494.25,-99 488.25,-99"/>
<text xml:space="preserve" text-anchor="middle" x="447.25" y="-77.5" font-family="Arial" font-size="10.00" fill="#8b0000">reduces confusion in</text>
</g>
<!-- unknown.ranking&#45;&gt;rel_1 -->
<g id="edge8" class="edge">
<title>unknown.ranking&#45;&gt;rel_1</title>
<path fill="none" stroke="#d46a6a" stroke-width="1.5" d="M335.59,-132.51C353.15,-124.33 376.62,-113.41 397.42,-103.73"/>
<polygon fill="#d46a6a" stroke="#d46a6a" stroke-width="1.5" points="398.33,-106.4 404.4,-100.48 395.96,-101.32 398.33,-106.4"/>
</g>
<!-- text.axis_label -->
<g id="node3" class="node">
<title>text.axis_label</title>
<path fill="#b8e6b8" stroke="#2c3e50" stroke-width="1.8" d="M605,-99C605,-99 571.75,-99 571.75,-99 565.75,-99 559.75,-93 559.75,-87 559.75,-87 559.75,-75 559.75,-75 559.75,-69 565.75,-63 571.75,-63 571.75,-63 605,-63 605,-63 611,-63 617,-69 617,-75 617,-75 617,-87 617,-87 617,-93 611,-99 605,-99"/>
<text xml:space="preserve" text-anchor="middle" x="588.38" y="-77.5" font-family="Arial" font-size="10.00" fill="#1a1a1a">axis label</text>
</g>
<!-- attr_2 -->
<g id="node9" class="node">
<title>attr_2</title>
<path fill="#c7b8e6" stroke="#7f8c8d" stroke-width="1.2" d="M768.25,-101C768.25,-101 672,-101 672,-101 666,-101 660,-95 660,-89 660,-89 660,-77 660,-77 660,-71 666,-65 672,-65 672,-65 768.25,-65 768.25,-65 774.25,-65 780.25,-71 780.25,-77 780.25,-77 780.25,-89 780.25,-89 780.25,-95 774.25,-101 768.25,-101"/>
<text xml:space="preserve" text-anchor="middle" x="720.12" y="-79.5" font-family="Arial" font-size="10.00" fill="#1a1a1a">(−) readable label clarity</text>
</g>
<!-- text.axis_label&#45;&gt;attr_2 -->
<g id="edge4" class="edge">
<title>text.axis_label&#45;&gt;attr_2</title>
<path fill="none" stroke="#aaaaaa" d="M617.85,-81.44C627.85,-81.59 639.56,-81.77 651.39,-81.96"/>
<polygon fill="#aaaaaa" stroke="#aaaaaa" points="651.03,-84.4 658.07,-82.06 651.11,-79.5 651.03,-84.4"/>
</g>
<!-- rel_3 -->
<g id="node14" class="node">
<title>rel_3</title>
<path fill="#f5b8b8" stroke="#d46a6a" stroke-width="1.2" d="M764.12,-36C764.12,-36 676.12,-36 676.12,-36 670.12,-36 664.12,-30 664.12,-24 664.12,-24 664.12,-12 664.12,-12 664.12,-6 670.12,0 676.12,0 676.12,0 764.12,0 764.12,0 770.12,0 776.12,-6 776.12,-12 776.12,-12 776.12,-24 776.12,-24 776.12,-30 770.12,-36 764.12,-36"/>
<text xml:space="preserve" text-anchor="middle" x="720.12" y="-14.5" font-family="Arial" font-size="10.00" fill="#8b0000">supports readability of</text>
</g>
<!-- text.axis_label&#45;&gt;rel_3 -->
<g id="edge12" class="edge">
<title>text.axis_label&#45;&gt;rel_3</title>
<path fill="none" stroke="#d46a6a" stroke-width="1.5" d="M617.85,-67.17C633.6,-59.52 653.59,-49.82 671.64,-41.06"/>
<polygon fill="#d46a6a" stroke="#d46a6a" stroke-width="1.5" points="672.85,-43.58 678.83,-37.57 670.41,-38.54 672.85,-43.58"/>
</g>
<!-- furniture.legend -->
<g id="node4" class="node">
<title>furniture.legend</title>
<path fill="#b8e6b8" stroke="#2c3e50" stroke-width="1.8" d="M322.75,-98C322.75,-98 292.75,-98 292.75,-98 286.75,-98 280.75,-92 280.75,-86 280.75,-86 280.75,-74 280.75,-74 280.75,-68 286.75,-62 292.75,-62 292.75,-62 322.75,-62 322.75,-62 328.75,-62 334.75,-68 334.75,-74 334.75,-74 334.75,-86 334.75,-86 334.75,-92 328.75,-98 322.75,-98"/>
<text xml:space="preserve" text-anchor="middle" x="307.75" y="-76.5" font-family="Arial" font-size="10.00" fill="#1a1a1a">legend</text>
</g>
<!-- text.label -->
<g id="node5" class="node">
<title>text.label</title>
<path fill="#b8e6b8" stroke="#2c3e50" stroke-width="1.8" d="M42.88,-358C42.88,-358 12.88,-358 12.88,-358 6.88,-358 0.88,-352 0.88,-346 0.88,-346 0.88,-334 0.88,-334 0.88,-328 6.88,-322 12.88,-322 12.88,-322 42.88,-322 42.88,-322 48.88,-322 54.88,-328 54.88,-334 54.88,-334 54.88,-346 54.88,-346 54.88,-352 48.88,-358 42.88,-358"/>
<text xml:space="preserve" text-anchor="middle" x="27.88" y="-336.5" font-family="Arial" font-size="10.00" fill="#1a1a1a">text</text>
</g>
<!-- attr_4 -->
<g id="node10" class="node">
<title>attr_4</title>
<path fill="#c7b8e6" stroke="#7f8c8d" stroke-width="1.2" d="M219,-358C219,-358 117.5,-358 117.5,-358 111.5,-358 105.5,-352 105.5,-346 105.5,-346 105.5,-334 105.5,-334 105.5,-328 111.5,-322 117.5,-322 117.5,-322 219,-322 219,-322 225,-322 231,-328 231,-334 231,-334 231,-346 231,-346 231,-352 225,-358 219,-358"/>
<text xml:space="preserve" text-anchor="middle" x="168.25" y="-336.5" font-family="Arial" font-size="10.00" fill="#1a1a1a">(+) moderate text volume</text>
</g>
<!-- text.label&#45;&gt;attr_4 -->
<g id="edge5" class="edge">
<title>text.label&#45;&gt;attr_4</title>
<path fill="none" stroke="#aaaaaa" d="M55.56,-340C67.48,-340 82.16,-340 96.91,-340"/>
<polygon fill="#aaaaaa" stroke="#aaaaaa" points="96.58,-342.45 103.58,-340 96.58,-337.55 96.58,-342.45"/>
</g>
<!-- rel_0&#45;&gt;unknown.ranking -->
<g id="edge7" class="edge">
<title>rel_0&#45;&gt;unknown.ranking</title>
<path fill="none" stroke="#d46a6a" stroke-width="1.5" d="M202.89,-145C223.15,-145 248.99,-145 269.82,-145"/>
<polygon fill="#d46a6a" stroke="#d46a6a" stroke-width="1.5" points="269.63,-147.8 277.63,-145 269.63,-142.2 269.63,-147.8"/>
</g>
<!-- rel_1&#45;&gt;text.axis_label -->
<g id="edge9" class="edge">
<title>rel_1&#45;&gt;text.axis_label</title>
<path fill="none" stroke="#d46a6a" stroke-width="1.5" d="M500.85,-81C516.85,-81 534.13,-81 549.01,-81"/>
<polygon fill="#d46a6a" stroke="#d46a6a" stroke-width="1.5" points="548.61,-83.8 556.61,-81 548.61,-78.2 548.61,-83.8"/>
</g>
<!-- rel_2&#45;&gt;furniture.legend -->
<g id="edge11" class="edge">
<title>rel_2&#45;&gt;furniture.legend</title>
<path fill="none" stroke="#d46a6a" stroke-width="1.5" d="M226.77,-80C241.4,-80 256.73,-80 270.01,-80"/>
<polygon fill="#d46a6a" stroke="#d46a6a" stroke-width="1.5" points="269.9,-82.8 277.9,-80 269.9,-77.2 269.9,-82.8"/>
</g>
<!-- rel_3&#45;&gt;unknown.line_chart -->
<g id="edge13" class="edge">
<title>rel_3&#45;&gt;unknown.line_chart</title>
<path fill="none" stroke="#d46a6a" stroke-width="1.5" d="M663.62,-18C608.86,-18 522.79,-18 448.25,-18 306.75,-18 306.75,-18 306.75,-18 213.41,-18 178.57,1.39 98.75,-47 71.86,-63.3 52.43,-94.31 40.99,-117.09"/>
<polygon fill="#d46a6a" stroke="#d46a6a" stroke-width="1.5" points="38.5,-115.82 37.56,-124.24 43.55,-118.24 38.5,-115.82"/>
</g>
</g>
</svg>
