<?xml version="1.0" encoding="UTF-8" standalone="no"?>
<!DOCTYPE svg PUBLIC "-//W3C//DTD SVG 1.1//EN"
 "http://www.w3.org/Graphics/SVG/1.1/DTD/svg11.dtd">
<!-- Generated by graphviz version 14.1.5 (20260411.2331)
 -->
<!-- Title: SciVisJ.744.13.png Pages: 1 -->
<svg width="900pt" height="391pt"
 viewBox="0.00 0.00 900.00 391.00" xmlns="http://www.w3.org/2000/svg" xmlns:xlink="http://www.w3.org/1999/xlink">
<g id="graph0" class="graph" transform="scale(1 1) rotate(0) translate(4 387.25)">
<title>SciVisJ.744.13.png</title>
<polygon fill="white" stroke="none" points="-4,4 -4,-387.25 896.25,-387.25 896.25,4 -4,4"/>
<text xml:space="preserve" text-anchor="start" x="385.38" y="-362.95" font-family="Arial" font-weight="bold" font-size="14.00">SciVisJ.744.13.png</text>
<text xml:space="preserve" text-anchor="start" x="374.5" y="-343" font-family="Arial" font-size="11.00">Cont.&#45;ColorPatn &#160;| &#160;VC = 0.54</text>
<path fill="#b8e6b8" stroke="none" d="M236.75,-318C236.75,-318 244.75,-318 244.75,-318 247.75,-318 250.75,-321 250.75,-324 250.75,-324 250.75,-330 250.75,-330 250.75,-333 247.75,-336 244.75,-336 244.75,-336 236.75,-336 236.75,-336 233.75,-336 230.75,-333 230.75,-330 230.75,-330 230.75,-324 230.75,-324 230.75,-321 233.75,-318 236.75,-318"/>
<path fill="none" stroke="black" d="M236.75,-318C236.75,-318 244.75,-318 244.75,-318 247.75,-318 250.75,-321 250.75,-324 250.75,-324 250.75,-330 250.75,-330 250.75,-333 247.75,-336 244.75,-336 244.75,-336 236.75,-336 236.75,-336 233.75,-336 230.75,-333 230.75,-330 230.75,-330 230.75,-324 230.75,-324 230.75,-321 233.75,-318 236.75,-318"/>
<text xml:space="preserve" text-anchor="start" x="239.25" y="-323.25" font-family="Arial" font-size="10.00"> </text>
<text xml:space="preserve" text-anchor="start" x="254.75" y="-323.25" font-family="Arial" font-size="10.00">Object</text>
<path fill="#c7b8e6" stroke="none" d="M293.25,-318C293.25,-318 301.25,-318 301.25,-318 304.25,-318 307.25,-321 307.25,-324 307.25,-324 307.25,-330 307.25,-330 307.25,-333 304.25,-336 301.25,-336 301.25,-336 293.25,-336 293.25,-336 290.25,-336 287.25,-333 287.25,-330 287.25,-330 287.25,-324 287.25,-324 287.25,-321 290.25,-318 293.25,-318"/>
<path fill="none" stroke="black" d="M293.25,-318C293.25,-318 301.25,-318 301.25,-318 304.25,-318 307.25,-321 307.25,-324 307.25,-324 307.25,-330 307.25,-330 307.25,-333 304.25,-336 301.25,-336 301.25,-336 293.25,-336 293.25,-336 290.25,-336 287.25,-333 287.25,-330 287.25,-330 287.25,-324 287.25,-324 287.25,-321 290.25,-318 293.25,-318"/>
<text xml:space="preserve" text-anchor="start" x="295.75" y="-323.25" font-family="Arial" font-size="10.00"> </text>
<text xml:space="preserve" text-anchor="start" x="311.25" y="-323.25" font-family="Arial" font-size="10.00">Attribute</text>
<path fill="#f5b8b8" stroke="none" d="M358,-318C358,-318 366,-318 366,-318 369,-318 372,-321 372,-324 372,-324 372,-330 372,-330 372,-333 369,-336 366,-336 366,-336 358,-336 358,-336 355,-336 352,-333 352,-330 352,-330 352,-324 352,-324 352,-321 355,-318 358,-318"/>
<path fill="none" stroke="black" d="M358,-318C358,-318 366,-318 366,-318 369,-318 372,-321 372,-324 372,-324 372,-330 372,-330 372,-333 369,-336 366,-336 366,-336 358,-336 358,-336 355,-336 352,-333 352,-330 352,-330 352,-324 352,-324 352,-321 355,-318 358,-318"/>
<text xml:space="preserve" text-anchor="start" x="360.5" y="-323.25" font-family="Arial" font-size="10.00"> </text>
<text xml:space="preserve" text-anchor="start" x="376" y="-323.25" font-family="Arial" font-size="10.00">Relationship</text>
<text xml:space="preserve" text-anchor="start" x="436" y="-324.5" font-family="Arial" font-weight="bold" font-size="10.00">(+)</text>
<text xml:space="preserve" text-anchor="start" x="448" y="-324.5" font-family="Arial" font-size="10.00"> increases complexity</text>
<text xml:space="preserve" text-anchor="start" x="549.25" y="-324.5" font-family="Arial" font-weight="bold" font-size="10.00">(−)</text>
<text xml:space="preserve" text-anchor="start" x="561.25" y="-324.5" font-family="Arial" font-size="10.00"> decreases complexity</text>
<!-- unknown.color_pattern -->
<g id="node1" class="node">
<title>unknown.color_pattern</title>
<path fill="#b8e6b8" stroke="#2c3e50" stroke-width="1.8" d="M64,-247C64,-247 18,-247 18,-247 12,-247 6,-241 6,-235 6,-235 6,-223 6,-223 6,-217 12,-211 18,-211 18,-211 64,-211 64,-211 70,-211 76,-217 76,-223 76,-223 76,-235 76,-235 76,-241 70,-247 64,-247"/>
<text xml:space="preserve" text-anchor="middle" x="41" y="-225.5" font-family="Arial" font-size="10.00" fill="#1a1a1a">color pattern</text>
</g>
<!-- attr_0 -->
<g id="node7" class="node">
<title>attr_0</title>
<path fill="#c7b8e6" stroke="#7f8c8d" stroke-width="1.2" d="M237.38,-312C237.38,-312 156.12,-312 156.12,-312 150.12,-312 144.12,-306 144.12,-300 144.12,-300 144.12,-288 144.12,-288 144.12,-282 150.12,-276 156.12,-276 156.12,-276 237.38,-276 237.38,-276 243.38,-276 249.38,-282 249.38,-288 249.38,-288 249.38,-300 249.38,-300 249.38,-306 243.38,-312 237.38,-312"/>
<text xml:space="preserve" text-anchor="middle" x="196.75" y="-290.5" font-family="Arial" font-size="10.00" fill="#1a1a1a">(+) high color variety</text>
</g>
<!-- unknown.color_pattern&#45;&gt;attr_0 -->
<g id="edge1" class="edge">
<title>unknown.color_pattern&#45;&gt;attr_0</title>
<path fill="none" stroke="#aaaaaa" d="M76.89,-243.75C96.78,-252.16 122.08,-262.86 144.23,-272.22"/>
<polygon fill="#aaaaaa" stroke="#aaaaaa" points="143.12,-274.41 150.52,-274.88 145.03,-269.9 143.12,-274.41"/>
</g>
<!-- rel_0 -->
<g id="node14" class="node">
<title>rel_0</title>
<path fill="#f5b8b8" stroke="#d46a6a" stroke-width="1.2" d="M219,-247C219,-247 174.5,-247 174.5,-247 168.5,-247 162.5,-241 162.5,-235 162.5,-235 162.5,-223 162.5,-223 162.5,-217 168.5,-211 174.5,-211 174.5,-211 219,-211 219,-211 225,-211 231,-217 231,-223 231,-223 231,-235 231,-235 231,-241 225,-247 219,-247"/>
<text xml:space="preserve" text-anchor="middle" x="196.75" y="-225.5" font-family="Arial" font-size="10.00" fill="#8b0000">overwhelms</text>
</g>
<!-- unknown.color_pattern&#45;&gt;rel_0 -->
<g id="edge8" class="edge">
<title>unknown.color_pattern&#45;&gt;rel_0</title>
<path fill="none" stroke="#d46a6a" stroke-width="1.5" d="M76.89,-229C99.12,-229 128.1,-229 151.88,-229"/>
<polygon fill="#d46a6a" stroke="#d46a6a" stroke-width="1.5" points="151.79,-231.8 159.79,-229 151.79,-226.2 151.79,-231.8"/>
</g>
<!-- rel_4 -->
<g id="node18" class="node">
<title>rel_4</title>
<path fill="#f5b8b8" stroke="#d46a6a" stroke-width="1.2" d="M219,-182C219,-182 174.5,-182 174.5,-182 168.5,-182 162.5,-176 162.5,-170 162.5,-170 162.5,-158 162.5,-158 162.5,-152 168.5,-146 174.5,-146 174.5,-146 219,-146 219,-146 225,-146 231,-152 231,-158 231,-158 231,-170 231,-170 231,-176 225,-182 219,-182"/>
<text xml:space="preserve" text-anchor="middle" x="196.75" y="-160.5" font-family="Arial" font-size="10.00" fill="#8b0000">encodes via</text>
</g>
<!-- unknown.color_pattern&#45;&gt;rel_4 -->
<g id="edge16" class="edge">
<title>unknown.color_pattern&#45;&gt;rel_4</title>
<path fill="none" stroke="#d46a6a" stroke-width="1.5" d="M76.89,-214.25C99.41,-204.73 128.88,-192.27 152.84,-182.14"/>
<polygon fill="#d46a6a" stroke="#d46a6a" stroke-width="1.5" points="153.69,-184.82 159.97,-179.13 151.51,-179.66 153.69,-184.82"/>
</g>
<!-- unknown.data_area -->
<g id="node2" class="node">
<title>unknown.data_area</title>
<path fill="#b8e6b8" stroke="#2c3e50" stroke-width="1.8" d="M369.12,-68C369.12,-68 336.62,-68 336.62,-68 330.62,-68 324.62,-62 324.62,-56 324.62,-56 324.62,-44 324.62,-44 324.62,-38 330.62,-32 336.62,-32 336.62,-32 369.12,-32 369.12,-32 375.12,-32 381.12,-38 381.12,-44 381.12,-44 381.12,-56 381.12,-56 381.12,-62 375.12,-68 369.12,-68"/>
<text xml:space="preserve" text-anchor="middle" x="352.88" y="-46.5" font-family="Arial" font-size="10.00" fill="#1a1a1a">data area</text>
</g>
<!-- attr_1 -->
<g id="node8" class="node">
<title>attr_1</title>
<path fill="#c7b8e6" stroke="#7f8c8d" stroke-width="1.2" d="M591.25,-101C591.25,-101 449.25,-101 449.25,-101 443.25,-101 437.25,-95 437.25,-89 437.25,-89 437.25,-77 437.25,-77 437.25,-71 443.25,-65 449.25,-65 449.25,-65 591.25,-65 591.25,-65 597.25,-65 603.25,-71 603.25,-77 603.25,-77 603.25,-89 603.25,-89 603.25,-95 597.25,-101 591.25,-101"/>
<text xml:space="preserve" text-anchor="middle" x="520.25" y="-79.5" font-family="Arial" font-size="10.00" fill="#1a1a1a">(+) multidimensional data represen</text>
</g>
<!-- unknown.data_area&#45;&gt;attr_1 -->
<g id="edge2" class="edge">
<title>unknown.data_area&#45;&gt;attr_1</title>
<path fill="none" stroke="#aaaaaa" d="M381.93,-55.6C395.07,-58.22 411.56,-61.51 428.49,-64.89"/>
<polygon fill="#aaaaaa" stroke="#aaaaaa" points="428,-67.29 435.35,-66.26 428.96,-62.48 428,-67.29"/>
</g>
<!-- rel_1 -->
<g id="node15" class="node">
<title>rel_1</title>
<path fill="#f5b8b8" stroke="#d46a6a" stroke-width="1.2" d="M562,-36C562,-36 478.5,-36 478.5,-36 472.5,-36 466.5,-30 466.5,-24 466.5,-24 466.5,-12 466.5,-12 466.5,-6 472.5,0 478.5,0 478.5,0 562,0 562,0 568,0 574,-6 574,-12 574,-12 574,-24 574,-24 574,-30 568,-36 562,-36"/>
<text xml:space="preserve" text-anchor="middle" x="520.25" y="-14.5" font-family="Arial" font-size="10.00" fill="#8b0000">requires expertise for</text>
</g>
<!-- unknown.data_area&#45;&gt;rel_1 -->
<g id="edge10" class="edge">
<title>unknown.data_area&#45;&gt;rel_1</title>
<path fill="none" stroke="#d46a6a" stroke-width="1.5" d="M381.93,-44.57C402.19,-40.65 430.36,-35.2 455.92,-30.25"/>
<polygon fill="#d46a6a" stroke="#d46a6a" stroke-width="1.5" points="456.39,-33.02 463.71,-28.75 455.32,-27.52 456.39,-33.02"/>
</g>
<!-- furniture.legend -->
<g id="node3" class="node">
<title>furniture.legend</title>
<path fill="#b8e6b8" stroke="#2c3e50" stroke-width="1.8" d="M689.88,-182C689.88,-182 659.88,-182 659.88,-182 653.88,-182 647.88,-176 647.88,-170 647.88,-170 647.88,-158 647.88,-158 647.88,-152 653.88,-146 659.88,-146 659.88,-146 689.88,-146 689.88,-146 695.88,-146 701.88,-152 701.88,-158 701.88,-158 701.88,-170 701.88,-170 701.88,-176 695.88,-182 689.88,-182"/>
<text xml:space="preserve" text-anchor="middle" x="674.88" y="-160.5" font-family="Arial" font-size="10.00" fill="#1a1a1a">legend</text>
</g>
<!-- attr_4 -->
<g id="node9" class="node">
<title>attr_4</title>
<path fill="#c7b8e6" stroke="#7f8c8d" stroke-width="1.2" d="M880.25,-182C880.25,-182 758.5,-182 758.5,-182 752.5,-182 746.5,-176 746.5,-170 746.5,-170 746.5,-158 746.5,-158 746.5,-152 752.5,-146 758.5,-146 758.5,-146 880.25,-146 880.25,-146 886.25,-146 892.25,-152 892.25,-158 892.25,-158 892.25,-170 892.25,-170 892.25,-176 886.25,-182 880.25,-182"/>
<text xml:space="preserve" text-anchor="middle" x="819.38" y="-160.5" font-family="Arial" font-size="10.00" fill="#1a1a1a">(+) insufficient for interpretatio</text>
</g>
<!-- furniture.legend&#45;&gt;attr_4 -->
<g id="edge3" class="edge">
<title>furniture.legend&#45;&gt;attr_4</title>
<path fill="none" stroke="#aaaaaa" d="M702.68,-164C712.86,-164 725.07,-164 737.67,-164"/>
<polygon fill="#aaaaaa" stroke="#aaaaaa" points="737.48,-166.45 744.48,-164 737.48,-161.55 737.48,-166.45"/>
</g>
<!-- text.axis_label -->
<g id="node4" class="node">
<title>text.axis_label</title>
<path fill="#b8e6b8" stroke="#2c3e50" stroke-width="1.8" d="M691.5,-36C691.5,-36 658.25,-36 658.25,-36 652.25,-36 646.25,-30 646.25,-24 646.25,-24 646.25,-12 646.25,-12 646.25,-6 652.25,0 658.25,0 658.25,0 691.5,0 691.5,0 697.5,0 703.5,-6 703.5,-12 703.5,-12 703.5,-24 703.5,-24 703.5,-30 697.5,-36 691.5,-36"/>
<text xml:space="preserve" text-anchor="middle" x="674.88" y="-14.5" font-family="Arial" font-size="10.00" fill="#1a1a1a">axis label</text>
</g>
<!-- attr_5 -->
<g id="node10" class="node">
<title>attr_5</title>
<path fill="#c7b8e6" stroke="#7f8c8d" stroke-width="1.2" d="M878.75,-36C878.75,-36 760,-36 760,-36 754,-36 748,-30 748,-24 748,-24 748,-12 748,-12 748,-6 754,0 760,0 760,0 878.75,0 878.75,0 884.75,0 890.75,-6 890.75,-12 890.75,-12 890.75,-24 890.75,-24 890.75,-30 884.75,-36 878.75,-36"/>
<text xml:space="preserve" text-anchor="middle" x="819.38" y="-14.5" font-family="Arial" font-size="10.00" fill="#1a1a1a">(+) requires domain expertise</text>
</g>
<!-- text.axis_label&#45;&gt;attr_5 -->
<g id="edge4" class="edge">
<title>text.axis_label&#45;&gt;attr_5</title>
<path fill="none" stroke="#aaaaaa" d="M704.37,-18C714.63,-18 726.77,-18 739.23,-18"/>
<polygon fill="#aaaaaa" stroke="#aaaaaa" points="738.94,-20.45 745.94,-18 738.94,-15.55 738.94,-20.45"/>
</g>
<!-- unknown.visual_structure -->
<g id="node5" class="node">
<title>unknown.visual_structure</title>
<path fill="#b8e6b8" stroke="#2c3e50" stroke-width="1.8" d="M382.25,-247C382.25,-247 323.5,-247 323.5,-247 317.5,-247 311.5,-241 311.5,-235 311.5,-235 311.5,-223 311.5,-223 311.5,-217 317.5,-211 323.5,-211 323.5,-211 382.25,-211 382.25,-211 388.25,-211 394.25,-217 394.25,-223 394.25,-223 394.25,-235 394.25,-235 394.25,-241 388.25,-247 382.25,-247"/>
<text xml:space="preserve" text-anchor="middle" x="352.88" y="-225.5" font-family="Arial" font-size="10.00" fill="#1a1a1a">visual structure</text>
</g>
<!-- attr_2 -->
<g id="node11" class="node">
<title>attr_2</title>
<path fill="#c7b8e6" stroke="#7f8c8d" stroke-width="1.2" d="M588.25,-312C588.25,-312 452.25,-312 452.25,-312 446.25,-312 440.25,-306 440.25,-300 440.25,-300 440.25,-288 440.25,-288 440.25,-282 446.25,-276 452.25,-276 452.25,-276 588.25,-276 588.25,-276 594.25,-276 600.25,-282 600.25,-288 600.25,-288 600.25,-300 600.25,-300 600.25,-306 594.25,-312 588.25,-312"/>
<text xml:space="preserve" text-anchor="middle" x="520.25" y="-290.5" font-family="Arial" font-size="10.00" fill="#1a1a1a">(+) abstract non representational </text>
</g>
<!-- unknown.visual_structure&#45;&gt;attr_2 -->
<g id="edge5" class="edge">
<title>unknown.visual_structure&#45;&gt;attr_2</title>
<path fill="none" stroke="#aaaaaa" d="M394.99,-245.32C408.46,-250.65 423.49,-256.59 437.25,-262 445.83,-265.37 454.92,-268.93 463.8,-272.4"/>
<polygon fill="#aaaaaa" stroke="#aaaaaa" points="462.72,-274.61 470.13,-274.87 464.5,-270.05 462.72,-274.61"/>
</g>
<!-- attr_6 -->
<g id="node12" class="node">
<title>attr_6</title>
<path fill="#c7b8e6" stroke="#7f8c8d" stroke-width="1.2" d="M584.12,-247C584.12,-247 456.38,-247 456.38,-247 450.38,-247 444.38,-241 444.38,-235 444.38,-235 444.38,-223 444.38,-223 444.38,-217 450.38,-211 456.38,-211 456.38,-211 584.12,-211 584.12,-211 590.12,-211 596.12,-217 596.12,-223 596.12,-223 596.12,-235 596.12,-235 596.12,-241 590.12,-247 584.12,-247"/>
<text xml:space="preserve" text-anchor="middle" x="520.25" y="-225.5" font-family="Arial" font-size="10.00" fill="#1a1a1a">(+) not interpretable without trai</text>
</g>
<!-- unknown.visual_structure&#45;&gt;attr_6 -->
<g id="edge6" class="edge">
<title>unknown.visual_structure&#45;&gt;attr_6</title>
<path fill="none" stroke="#aaaaaa" d="M394.75,-229C407.23,-229 421.42,-229 435.65,-229"/>
<polygon fill="#aaaaaa" stroke="#aaaaaa" points="435.51,-231.45 442.51,-229 435.51,-226.55 435.51,-231.45"/>
</g>
<!-- rel_3 -->
<g id="node17" class="node">
<title>rel_3</title>
<path fill="#f5b8b8" stroke="#d46a6a" stroke-width="1.2" d="M536.12,-182C536.12,-182 504.38,-182 504.38,-182 498.38,-182 492.38,-176 492.38,-170 492.38,-170 492.38,-158 492.38,-158 492.38,-152 498.38,-146 504.38,-146 504.38,-146 536.12,-146 536.12,-146 542.12,-146 548.12,-152 548.12,-158 548.12,-158 548.12,-170 548.12,-170 548.12,-176 542.12,-182 536.12,-182"/>
<text xml:space="preserve" text-anchor="middle" x="520.25" y="-160.5" font-family="Arial" font-size="10.00" fill="#8b0000">obscures</text>
</g>
<!-- unknown.visual_structure&#45;&gt;rel_3 -->
<g id="edge14" class="edge">
<title>unknown.visual_structure&#45;&gt;rel_3</title>
<path fill="none" stroke="#d46a6a" stroke-width="1.5" d="M394.75,-212.93C421.64,-202.37 456.53,-188.65 482.53,-178.43"/>
<polygon fill="#d46a6a" stroke="#d46a6a" stroke-width="1.5" points="483.49,-181.06 489.91,-175.53 481.44,-175.85 483.49,-181.06"/>
</g>
<!-- unknown.detail_elements -->
<g id="node6" class="node">
<title>unknown.detail_elements</title>
<path fill="#b8e6b8" stroke="#2c3e50" stroke-width="1.8" d="M70,-85C70,-85 12,-85 12,-85 6,-85 0,-79 0,-73 0,-73 0,-61 0,-61 0,-55 6,-49 12,-49 12,-49 70,-49 70,-49 76,-49 82,-55 82,-61 82,-61 82,-73 82,-73 82,-79 76,-85 70,-85"/>
<text xml:space="preserve" text-anchor="middle" x="41" y="-63.5" font-family="Arial" font-size="10.00" fill="#1a1a1a">detail elements</text>
</g>
<!-- attr_3 -->
<g id="node13" class="node">
<title>attr_3</title>
<path fill="#c7b8e6" stroke="#7f8c8d" stroke-width="1.2" d="M238.5,-117C238.5,-117 155,-117 155,-117 149,-117 143,-111 143,-105 143,-105 143,-93 143,-93 143,-87 149,-81 155,-81 155,-81 238.5,-81 238.5,-81 244.5,-81 250.5,-87 250.5,-93 250.5,-93 250.5,-105 250.5,-105 250.5,-111 244.5,-117 238.5,-117"/>
<text xml:space="preserve" text-anchor="middle" x="196.75" y="-95.5" font-family="Arial" font-size="10.00" fill="#1a1a1a">(+) dense fine details</text>
</g>
<!-- unknown.detail_elements&#45;&gt;attr_3 -->
<g id="edge7" class="edge">
<title>unknown.detail_elements&#45;&gt;attr_3</title>
<path fill="none" stroke="#aaaaaa" d="M82.8,-75.49C98.69,-78.8 117.24,-82.66 134.67,-86.29"/>
<polygon fill="#aaaaaa" stroke="#aaaaaa" points="133.74,-88.6 141.1,-87.62 134.74,-83.8 133.74,-88.6"/>
</g>
<!-- rel_2 -->
<g id="node16" class="node">
<title>rel_2</title>
<path fill="#f5b8b8" stroke="#d46a6a" stroke-width="1.2" d="M256.5,-52C256.5,-52 137,-52 137,-52 131,-52 125,-46 125,-40 125,-40 125,-28 125,-28 125,-22 131,-16 137,-16 137,-16 256.5,-16 256.5,-16 262.5,-16 268.5,-22 268.5,-28 268.5,-28 268.5,-40 268.5,-40 268.5,-46 262.5,-52 256.5,-52"/>
<text xml:space="preserve" text-anchor="middle" x="196.75" y="-30.5" font-family="Arial" font-size="10.00" fill="#8b0000">increases processing effort in</text>
</g>
<!-- unknown.detail_elements&#45;&gt;rel_2 -->
<g id="edge12" class="edge">
<title>unknown.detail_elements&#45;&gt;rel_2</title>
<path fill="none" stroke="#d46a6a" stroke-width="1.5" d="M82.8,-58.24C92.71,-56.12 103.65,-53.77 114.71,-51.39"/>
<polygon fill="#d46a6a" stroke="#d46a6a" stroke-width="1.5" points="114.98,-54.2 122.21,-49.78 113.8,-48.73 114.98,-54.2"/>
</g>
<!-- rel_0&#45;&gt;unknown.visual_structure -->
<g id="edge9" class="edge">
<title>rel_0&#45;&gt;unknown.visual_structure</title>
<path fill="none" stroke="#d46a6a" stroke-width="1.5" d="M231.57,-229C251.78,-229 277.86,-229 300.56,-229"/>
<polygon fill="#d46a6a" stroke="#d46a6a" stroke-width="1.5" points="300.46,-231.8 308.46,-229 300.46,-226.2 300.46,-231.8"/>
</g>
<!-- rel_1&#45;&gt;text.axis_label -->
<g id="edge11" class="edge">
<title>rel_1&#45;&gt;text.axis_label</title>
<path fill="none" stroke="#d46a6a" stroke-width="1.5" d="M574.2,-18C594.3,-18 616.8,-18 635.32,-18"/>
<polygon fill="#d46a6a" stroke="#d46a6a" stroke-width="1.5" points="635.18,-20.8 643.18,-18 635.18,-15.2 635.18,-20.8"/>
</g>
<!-- rel_2&#45;&gt;unknown.data_area -->
<g id="edge13" class="edge">
<title>rel_2&#45;&gt;unknown.data_area</title>
<path fill="none" stroke="#d46a6a" stroke-width="1.5" d="M268.95,-41.39C284.54,-43.01 300.44,-44.66 314.1,-46.08"/>
<polygon fill="#d46a6a" stroke="#d46a6a" stroke-width="1.5" points="313.57,-48.84 321.81,-46.88 314.14,-43.27 313.57,-48.84"/>
</g>
<!-- rel_3&#45;&gt;furniture.legend -->
<g id="edge15" class="edge">
<title>rel_3&#45;&gt;furniture.legend</title>
<path fill="none" stroke="#d46a6a" stroke-width="1.5" d="M548.54,-164C573.25,-164 609.85,-164 637.13,-164"/>
<polygon fill="#d46a6a" stroke="#d46a6a" stroke-width="1.5" points="636.81,-166.8 644.81,-164 636.81,-161.2 636.81,-166.8"/>
</g>
<!-- rel_4&#45;&gt;unknown.data_area -->
<g id="edge17" class="edge">
<title>rel_4&#45;&gt;unknown.data_area</title>
<path fill="none" stroke="#d46a6a" stroke-width="1.5" d="M231.44,-151.63C243.62,-146.43 257.16,-139.77 268.5,-132 291.44,-116.27 313.71,-93.89 329.45,-76.48"/>
<polygon fill="#d46a6a" stroke="#d46a6a" stroke-width="1.5" points="331.48,-78.42 334.7,-70.57 327.29,-74.7 331.48,-78.42"/>
</g>
</g>
</svg>
