<?xml version="1.0" encoding="UTF-8" standalone="no"?>
<!DOCTYPE svg PUBLIC "-//W3C//DTD SVG 1.1//EN"
 "http://www.w3.org/Graphics/SVG/1.1/DTD/svg11.dtd">
<!-- Generated by graphviz version 14.1.5 (20260411.2331)
 -->
<!-- Title: SciVisJ.603.12.png Pages: 1 -->
<svg width="1086pt" height="375pt"
 viewBox="0.00 0.00 1086.00 375.00" xmlns="http://www.w3.org/2000/svg" xmlns:xlink="http://www.w3.org/1999/xlink">
<g id="graph0" class="graph" transform="scale(1 1) rotate(0) translate(4 371.25)">
<title>SciVisJ.603.12.png</title>
<polygon fill="white" stroke="none" points="-4,4 -4,-371.25 1082,-371.25 1082,4 -4,4"/>
<text xml:space="preserve" text-anchor="start" x="478.25" y="-346.95" font-family="Arial" font-weight="bold" font-size="14.00">SciVisJ.603.12.png</text>
<text xml:space="preserve" text-anchor="start" x="498.12" y="-327" font-family="Arial" font-size="11.00">Bar &#160;| &#160;VC = 0.67</text>
<path fill="#b8e6b8" stroke="none" d="M329.62,-302C329.62,-302 337.62,-302 337.62,-302 340.62,-302 343.62,-305 343.62,-308 343.62,-308 343.62,-314 343.62,-314 343.62,-317 340.62,-320 337.62,-320 337.62,-320 329.62,-320 329.62,-320 326.62,-320 323.62,-317 323.62,-314 323.62,-314 323.62,-308 323.62,-308 323.62,-305 326.62,-302 329.62,-302"/>
<path fill="none" stroke="black" d="M329.62,-302C329.62,-302 337.62,-302 337.62,-302 340.62,-302 343.62,-305 343.62,-308 343.62,-308 343.62,-314 343.62,-314 343.62,-317 340.62,-320 337.62,-320 337.62,-320 329.62,-320 329.62,-320 326.62,-320 323.62,-317 323.62,-314 323.62,-314 323.62,-308 323.62,-308 323.62,-305 326.62,-302 329.62,-302"/>
<text xml:space="preserve" text-anchor="start" x="332.12" y="-307.25" font-family="Arial" font-size="10.00"> </text>
<text xml:space="preserve" text-anchor="start" x="347.62" y="-307.25" font-family="Arial" font-size="10.00">Object</text>
<path fill="#c7b8e6" stroke="none" d="M386.12,-302C386.12,-302 394.12,-302 394.12,-302 397.12,-302 400.12,-305 400.12,-308 400.12,-308 400.12,-314 400.12,-314 400.12,-317 397.12,-320 394.12,-320 394.12,-320 386.12,-320 386.12,-320 383.12,-320 380.12,-317 380.12,-314 380.12,-314 380.12,-308 380.12,-308 380.12,-305 383.12,-302 386.12,-302"/>
<path fill="none" stroke="black" d="M386.12,-302C386.12,-302 394.12,-302 394.12,-302 397.12,-302 400.12,-305 400.12,-308 400.12,-308 400.12,-314 400.12,-314 400.12,-317 397.12,-320 394.12,-320 394.12,-320 386.12,-320 386.12,-320 383.12,-320 380.12,-317 380.12,-314 380.12,-314 380.12,-308 380.12,-308 380.12,-305 383.12,-302 386.12,-302"/>
<text xml:space="preserve" text-anchor="start" x="388.62" y="-307.25" font-family="Arial" font-size="10.00"> </text>
<text xml:space="preserve" text-anchor="start" x="404.12" y="-307.25" font-family="Arial" font-size="10.00">Attribute</text>
<path fill="#f5b8b8" stroke="none" d="M450.88,-302C450.88,-302 458.88,-302 458.88,-302 461.88,-302 464.88,-305 464.88,-308 464.88,-308 464.88,-314 464.88,-314 464.88,-317 461.88,-320 458.88,-320 458.88,-320 450.88,-320 450.88,-320 447.88,-320 444.88,-317 444.88,-314 444.88,-314 444.88,-308 444.88,-308 444.88,-305 447.88,-302 450.88,-302"/>
<path fill="none" stroke="black" d="M450.88,-302C450.88,-302 458.88,-302 458.88,-302 461.88,-302 464.88,-305 464.88,-308 464.88,-308 464.88,-314 464.88,-314 464.88,-317 461.88,-320 458.88,-320 458.88,-320 450.88,-320 450.88,-320 447.88,-320 444.88,-317 444.88,-314 444.88,-314 444.88,-308 444.88,-308 444.88,-305 447.88,-302 450.88,-302"/>
<text xml:space="preserve" text-anchor="start" x="453.38" y="-307.25" font-family="Arial" font-size="10.00"> </text>
<text xml:space="preserve" text-anchor="start" x="468.88" y="-307.25" font-family="Arial" font-size="10.00">Relationship</text>
<text xml:space="preserve" text-anchor="start" x="528.88" y="-308.5" font-family="Arial" font-weight="bold" font-size="10.00">(+)</text>
<text xml:space="preserve" text-anchor="start" x="540.88" y="-308.5" font-family="Arial" font-size="10.00"> increases complexity</text>
<text xml:space="preserve" text-anchor="start" x="642.12" y="-308.5" font-family="Arial" font-weight="bold" font-size="10.00">(−)</text>
<text xml:space="preserve" text-anchor="start" x="654.12" y="-308.5" font-family="Arial" font-size="10.00"> decreases complexity</text>
<!-- unknown.subplots -->
<g id="node1" class="node">
<title>unknown.subplots</title>
<path fill="#b8e6b8" stroke="#2c3e50" stroke-width="1.8" d="M602,-231C602,-231 572,-231 572,-231 566,-231 560,-225 560,-219 560,-219 560,-207 560,-207 560,-201 566,-195 572,-195 572,-195 602,-195 602,-195 608,-195 614,-201 614,-207 614,-207 614,-219 614,-219 614,-225 608,-231 602,-231"/>
<text xml:space="preserve" text-anchor="middle" x="587" y="-209.5" font-family="Arial" font-size="10.00" fill="#1a1a1a">subplots</text>
</g>
<!-- attr_0 -->
<g id="node6" class="node">
<title>attr_0</title>
<path fill="#c7b8e6" stroke="#7f8c8d" stroke-width="1.2" d="M787.75,-296C787.75,-296 669,-296 669,-296 663,-296 657,-290 657,-284 657,-284 657,-272 657,-272 657,-266 663,-260 669,-260 669,-260 787.75,-260 787.75,-260 793.75,-260 799.75,-266 799.75,-272 799.75,-272 799.75,-284 799.75,-284 799.75,-290 793.75,-296 787.75,-296"/>
<text xml:space="preserve" text-anchor="middle" x="728.38" y="-274.5" font-family="Arial" font-size="10.00" fill="#1a1a1a">(+) many graphs side by side</text>
</g>
<!-- unknown.subplots&#45;&gt;attr_0 -->
<g id="edge1" class="edge">
<title>unknown.subplots&#45;&gt;attr_0</title>
<path fill="none" stroke="#aaaaaa" d="M614.81,-225.97C627.56,-232.1 643.04,-239.49 657,-246 664.12,-249.32 671.65,-252.79 679.05,-256.18"/>
<polygon fill="#aaaaaa" stroke="#aaaaaa" points="677.62,-258.21 685,-258.89 679.65,-253.76 677.62,-258.21"/>
</g>
<!-- attr_5 -->
<g id="node7" class="node">
<title>attr_5</title>
<path fill="#c7b8e6" stroke="#7f8c8d" stroke-width="1.2" d="M771.62,-231C771.62,-231 685.12,-231 685.12,-231 679.12,-231 673.12,-225 673.12,-219 673.12,-219 673.12,-207 673.12,-207 673.12,-201 679.12,-195 685.12,-195 685.12,-195 771.62,-195 771.62,-195 777.62,-195 783.62,-201 783.62,-207 783.62,-207 783.62,-219 783.62,-219 783.62,-225 777.62,-231 771.62,-231"/>
<text xml:space="preserve" text-anchor="middle" x="728.38" y="-209.5" font-family="Arial" font-size="10.00" fill="#1a1a1a">(+) high subplot count</text>
</g>
<!-- unknown.subplots&#45;&gt;attr_5 -->
<g id="edge2" class="edge">
<title>unknown.subplots&#45;&gt;attr_5</title>
<path fill="none" stroke="#aaaaaa" d="M614.87,-213C628.94,-213 646.82,-213 664.15,-213"/>
<polygon fill="#aaaaaa" stroke="#aaaaaa" points="664.09,-215.45 671.09,-213 664.09,-210.55 664.09,-215.45"/>
</g>
<!-- rel_0 -->
<g id="node12" class="node">
<title>rel_0</title>
<path fill="#f5b8b8" stroke="#d46a6a" stroke-width="1.2" d="M745.38,-166C745.38,-166 711.38,-166 711.38,-166 705.38,-166 699.38,-160 699.38,-154 699.38,-154 699.38,-142 699.38,-142 699.38,-136 705.38,-130 711.38,-130 711.38,-130 745.38,-130 745.38,-130 751.38,-130 757.38,-136 757.38,-142 757.38,-142 757.38,-154 757.38,-154 757.38,-160 751.38,-166 745.38,-166"/>
<text xml:space="preserve" text-anchor="middle" x="728.38" y="-144.5" font-family="Arial" font-size="10.00" fill="#8b0000">increases</text>
</g>
<!-- unknown.subplots&#45;&gt;rel_0 -->
<g id="edge7" class="edge">
<title>unknown.subplots&#45;&gt;rel_0</title>
<path fill="none" stroke="#d46a6a" stroke-width="1.5" d="M614.87,-200.47C636.24,-190.5 666.38,-176.45 690.08,-165.39"/>
<polygon fill="#d46a6a" stroke="#d46a6a" stroke-width="1.5" points="691.03,-168.04 697.09,-162.12 688.66,-162.97 691.03,-168.04"/>
</g>
<!-- unknown.bar_section -->
<g id="node2" class="node">
<title>unknown.bar_section</title>
<path fill="#b8e6b8" stroke="#2c3e50" stroke-width="1.8" d="M341,-101C341,-101 301,-101 301,-101 295,-101 289,-95 289,-89 289,-89 289,-77 289,-77 289,-71 295,-65 301,-65 301,-65 341,-65 341,-65 347,-65 353,-71 353,-77 353,-77 353,-89 353,-89 353,-95 347,-101 341,-101"/>
<text xml:space="preserve" text-anchor="middle" x="321" y="-79.5" font-family="Arial" font-size="10.00" fill="#1a1a1a">bar section</text>
</g>
<!-- attr_1 -->
<g id="node8" class="node">
<title>attr_1</title>
<path fill="#c7b8e6" stroke="#7f8c8d" stroke-width="1.2" d="M505,-134C505,-134 408,-134 408,-134 402,-134 396,-128 396,-122 396,-122 396,-110 396,-110 396,-104 402,-98 408,-98 408,-98 505,-98 505,-98 511,-98 517,-104 517,-110 517,-110 517,-122 517,-122 517,-128 511,-134 505,-134"/>
<text xml:space="preserve" text-anchor="middle" x="456.5" y="-112.5" font-family="Arial" font-size="10.00" fill="#1a1a1a">(+) two distinct sections</text>
</g>
<!-- unknown.bar_section&#45;&gt;attr_1 -->
<g id="edge3" class="edge">
<title>unknown.bar_section&#45;&gt;attr_1</title>
<path fill="none" stroke="#aaaaaa" d="M353.64,-90.82C363.85,-93.34 375.59,-96.25 387.39,-99.16"/>
<polygon fill="#aaaaaa" stroke="#aaaaaa" points="386.7,-101.52 394.09,-100.82 387.88,-96.76 386.7,-101.52"/>
</g>
<!-- rel_3 -->
<g id="node15" class="node">
<title>rel_3</title>
<path fill="#f5b8b8" stroke="#d46a6a" stroke-width="1.2" d="M478.75,-69C478.75,-69 434.25,-69 434.25,-69 428.25,-69 422.25,-63 422.25,-57 422.25,-57 422.25,-45 422.25,-45 422.25,-39 428.25,-33 434.25,-33 434.25,-33 478.75,-33 478.75,-33 484.75,-33 490.75,-39 490.75,-45 490.75,-45 490.75,-57 490.75,-57 490.75,-63 484.75,-69 478.75,-69"/>
<text xml:space="preserve" text-anchor="middle" x="456.5" y="-47.5" font-family="Arial" font-size="10.00" fill="#8b0000">complicates</text>
</g>
<!-- unknown.bar_section&#45;&gt;rel_3 -->
<g id="edge13" class="edge">
<title>unknown.bar_section&#45;&gt;rel_3</title>
<path fill="none" stroke="#d46a6a" stroke-width="1.5" d="M353.64,-75.42C371.02,-71.25 392.85,-66.02 411.84,-61.47"/>
<polygon fill="#d46a6a" stroke="#d46a6a" stroke-width="1.5" points="412.42,-64.21 419.55,-59.62 411.12,-58.76 412.42,-64.21"/>
</g>
<!-- mark.bar -->
<g id="node3" class="node">
<title>mark.bar</title>
<path fill="#b8e6b8" stroke="#2c3e50" stroke-width="1.8" d="M602,-69C602,-69 572,-69 572,-69 566,-69 560,-63 560,-57 560,-57 560,-45 560,-45 560,-39 566,-33 572,-33 572,-33 602,-33 602,-33 608,-33 614,-39 614,-45 614,-45 614,-57 614,-57 614,-63 608,-69 602,-69"/>
<text xml:space="preserve" text-anchor="middle" x="587" y="-47.5" font-family="Arial" font-size="10.00" fill="#1a1a1a">bar</text>
</g>
<!-- attr_2 -->
<g id="node9" class="node">
<title>attr_2</title>
<path fill="#c7b8e6" stroke="#7f8c8d" stroke-width="1.2" d="M773.12,-101C773.12,-101 683.62,-101 683.62,-101 677.62,-101 671.62,-95 671.62,-89 671.62,-89 671.62,-77 671.62,-77 671.62,-71 677.62,-65 683.62,-65 683.62,-65 773.12,-65 773.12,-65 779.12,-65 785.12,-71 785.12,-77 785.12,-77 785.12,-89 785.12,-89 785.12,-95 779.12,-101 773.12,-101"/>
<text xml:space="preserve" text-anchor="middle" x="728.38" y="-79.5" font-family="Arial" font-size="10.00" fill="#1a1a1a">(+) varying bar lengths</text>
</g>
<!-- mark.bar&#45;&gt;attr_2 -->
<g id="edge4" class="edge">
<title>mark.bar&#45;&gt;attr_2</title>
<path fill="none" stroke="#aaaaaa" d="M614.87,-57.17C628.6,-60.32 645.96,-64.31 662.9,-68.2"/>
<polygon fill="#aaaaaa" stroke="#aaaaaa" points="662.32,-70.58 669.69,-69.76 663.41,-65.8 662.32,-70.58"/>
</g>
<!-- rel_1 -->
<g id="node13" class="node">
<title>rel_1</title>
<path fill="#f5b8b8" stroke="#d46a6a" stroke-width="1.2" d="M743.38,-36C743.38,-36 713.38,-36 713.38,-36 707.38,-36 701.38,-30 701.38,-24 701.38,-24 701.38,-12 701.38,-12 701.38,-6 707.38,0 713.38,0 713.38,0 743.38,0 743.38,0 749.38,0 755.38,-6 755.38,-12 755.38,-12 755.38,-24 755.38,-24 755.38,-30 749.38,-36 743.38,-36"/>
<text xml:space="preserve" text-anchor="middle" x="728.38" y="-14.5" font-family="Arial" font-size="10.00" fill="#8b0000">creates</text>
</g>
<!-- mark.bar&#45;&gt;rel_1 -->
<g id="edge9" class="edge">
<title>mark.bar&#45;&gt;rel_1</title>
<path fill="none" stroke="#d46a6a" stroke-width="1.5" d="M614.87,-44.64C636.61,-39.49 667.41,-32.2 691.29,-26.54"/>
<polygon fill="#d46a6a" stroke="#d46a6a" stroke-width="1.5" points="691.71,-29.32 698.85,-24.75 690.42,-23.87 691.71,-29.32"/>
</g>
<!-- text.axis_label -->
<g id="node4" class="node">
<title>text.axis_label</title>
<path fill="#b8e6b8" stroke="#2c3e50" stroke-width="1.8" d="M45.25,-133C45.25,-133 12,-133 12,-133 6,-133 0,-127 0,-121 0,-121 0,-109 0,-109 0,-103 6,-97 12,-97 12,-97 45.25,-97 45.25,-97 51.25,-97 57.25,-103 57.25,-109 57.25,-109 57.25,-121 57.25,-121 57.25,-127 51.25,-133 45.25,-133"/>
<text xml:space="preserve" text-anchor="middle" x="28.62" y="-111.5" font-family="Arial" font-size="10.00" fill="#1a1a1a">axis label</text>
</g>
<!-- attr_4 -->
<g id="node10" class="node">
<title>attr_4</title>
<path fill="#c7b8e6" stroke="#7f8c8d" stroke-width="1.2" d="M234,-166C234,-166 112.25,-166 112.25,-166 106.25,-166 100.25,-160 100.25,-154 100.25,-154 100.25,-142 100.25,-142 100.25,-136 106.25,-130 112.25,-130 112.25,-130 234,-130 234,-130 240,-130 246,-136 246,-142 246,-142 246,-154 246,-154 246,-160 240,-166 234,-166"/>
<text xml:space="preserve" text-anchor="middle" x="173.12" y="-144.5" font-family="Arial" font-size="10.00" fill="#1a1a1a">(+) unknown unlabeled details</text>
</g>
<!-- text.axis_label&#45;&gt;attr_4 -->
<g id="edge5" class="edge">
<title>text.axis_label&#45;&gt;attr_4</title>
<path fill="none" stroke="#aaaaaa" d="M58.12,-121.6C67.95,-123.88 79.51,-126.55 91.42,-129.31"/>
<polygon fill="#aaaaaa" stroke="#aaaaaa" points="90.87,-131.7 98.24,-130.89 91.97,-126.92 90.87,-131.7"/>
</g>
<!-- rel_2 -->
<g id="node14" class="node">
<title>rel_2</title>
<path fill="#f5b8b8" stroke="#d46a6a" stroke-width="1.2" d="M188.12,-101C188.12,-101 158.12,-101 158.12,-101 152.12,-101 146.12,-95 146.12,-89 146.12,-89 146.12,-77 146.12,-77 146.12,-71 152.12,-65 158.12,-65 158.12,-65 188.12,-65 188.12,-65 194.12,-65 200.12,-71 200.12,-77 200.12,-77 200.12,-89 200.12,-89 200.12,-95 194.12,-101 188.12,-101"/>
<text xml:space="preserve" text-anchor="middle" x="173.12" y="-79.5" font-family="Arial" font-size="10.00" fill="#8b0000">limits</text>
</g>
<!-- text.axis_label&#45;&gt;rel_2 -->
<g id="edge11" class="edge">
<title>text.axis_label&#45;&gt;rel_2</title>
<path fill="none" stroke="#d46a6a" stroke-width="1.5" d="M58.12,-108.6C80.43,-103.59 111.63,-96.58 135.75,-91.17"/>
<polygon fill="#d46a6a" stroke="#d46a6a" stroke-width="1.5" points="136.2,-93.94 143.39,-89.45 134.97,-88.47 136.2,-93.94"/>
</g>
<!-- structure.layout -->
<g id="node5" class="node">
<title>structure.layout</title>
<path fill="#b8e6b8" stroke="#2c3e50" stroke-width="1.8" d="M884.75,-101C884.75,-101 854.75,-101 854.75,-101 848.75,-101 842.75,-95 842.75,-89 842.75,-89 842.75,-77 842.75,-77 842.75,-71 848.75,-65 854.75,-65 854.75,-65 884.75,-65 884.75,-65 890.75,-65 896.75,-71 896.75,-77 896.75,-77 896.75,-89 896.75,-89 896.75,-95 890.75,-101 884.75,-101"/>
<text xml:space="preserve" text-anchor="middle" x="869.75" y="-79.5" font-family="Arial" font-size="10.00" fill="#1a1a1a">layout</text>
</g>
<!-- attr_3 -->
<g id="node11" class="node">
<title>attr_3</title>
<path fill="#c7b8e6" stroke="#7f8c8d" stroke-width="1.2" d="M1066,-101C1066,-101 951.75,-101 951.75,-101 945.75,-101 939.75,-95 939.75,-89 939.75,-89 939.75,-77 939.75,-77 939.75,-71 945.75,-65 951.75,-65 951.75,-65 1066,-65 1066,-65 1072,-65 1078,-71 1078,-77 1078,-77 1078,-89 1078,-89 1078,-95 1072,-101 1066,-101"/>
<text xml:space="preserve" text-anchor="middle" x="1008.88" y="-79.5" font-family="Arial" font-size="10.00" fill="#1a1a1a">(+) random lacking structure</text>
</g>
<!-- structure.layout&#45;&gt;attr_3 -->
<g id="edge6" class="edge">
<title>structure.layout&#45;&gt;attr_3</title>
<path fill="none" stroke="#aaaaaa" d="M897.51,-83C907.33,-83 918.99,-83 931,-83"/>
<polygon fill="#aaaaaa" stroke="#aaaaaa" points="930.84,-85.45 937.84,-83 930.84,-80.55 930.84,-85.45"/>
</g>
<!-- rel_0&#45;&gt;structure.layout -->
<g id="edge8" class="edge">
<title>rel_0&#45;&gt;structure.layout</title>
<path fill="none" stroke="#d46a6a" stroke-width="1.5" d="M757.85,-135.2C770.68,-129.4 786.01,-122.41 799.75,-116 810.55,-110.96 822.25,-105.4 832.9,-100.31"/>
<polygon fill="#d46a6a" stroke="#d46a6a" stroke-width="1.5" points="833.89,-102.94 839.89,-96.95 831.47,-97.89 833.89,-102.94"/>
</g>
<!-- rel_1&#45;&gt;structure.layout -->
<g id="edge10" class="edge">
<title>rel_1&#45;&gt;structure.layout</title>
<path fill="none" stroke="#d46a6a" stroke-width="1.5" d="M755.83,-29.88C769.05,-35.86 785.28,-43.25 799.75,-50 810.55,-55.04 822.25,-60.6 832.9,-65.69"/>
<polygon fill="#d46a6a" stroke="#d46a6a" stroke-width="1.5" points="831.47,-68.11 839.89,-69.05 833.89,-63.06 831.47,-68.11"/>
</g>
<!-- rel_2&#45;&gt;unknown.bar_section -->
<g id="edge12" class="edge">
<title>rel_2&#45;&gt;unknown.bar_section</title>
<path fill="none" stroke="#d46a6a" stroke-width="1.5" d="M200.54,-83C222.19,-83 253.22,-83 278.23,-83"/>
<polygon fill="#d46a6a" stroke="#d46a6a" stroke-width="1.5" points="277.92,-85.8 285.92,-83 277.92,-80.2 277.92,-85.8"/>
</g>
<!-- rel_3&#45;&gt;mark.bar -->
<g id="edge14" class="edge">
<title>rel_3&#45;&gt;mark.bar</title>
<path fill="none" stroke="#d46a6a" stroke-width="1.5" d="M491.26,-51C509.04,-51 530.87,-51 549.1,-51"/>
<polygon fill="#d46a6a" stroke="#d46a6a" stroke-width="1.5" points="549.08,-53.8 557.08,-51 549.08,-48.2 549.08,-53.8"/>
</g>
</g>
</svg>
