<?xml version="1.0" encoding="UTF-8" standalone="no"?>
<!DOCTYPE svg PUBLIC "-//W3C//DTD SVG 1.1//EN"
 "http://www.w3.org/Graphics/SVG/1.1/DTD/svg11.dtd">
<!-- Generated by graphviz version 14.1.5 (20260411.2331)
 -->
<!-- Title: SciVisJ.1043.12(4).png Pages: 1 -->
<svg width="1161pt" height="403pt"
 viewBox="0.00 0.00 1161.00 403.00" xmlns="http://www.w3.org/2000/svg" xmlns:xlink="http://www.w3.org/1999/xlink">
<g id="graph0" class="graph" transform="scale(1 1) rotate(0) translate(4 399.25)">
<title>SciVisJ.1043.12(4).png</title>
<polygon fill="white" stroke="none" points="-4,4 -4,-399.25 1156.75,-399.25 1156.75,4 -4,4"/>
<text xml:space="preserve" text-anchor="start" x="503.62" y="-374.95" font-family="Arial" font-weight="bold" font-size="14.00">SciVisJ.1043.12(4).png</text>
<text xml:space="preserve" text-anchor="start" x="504.75" y="-355" font-family="Arial" font-size="11.00">Cont.&#45;ColorPatn &#160;| &#160;VC = 0.44</text>
<path fill="#b8e6b8" stroke="none" d="M367,-330C367,-330 375,-330 375,-330 378,-330 381,-333 381,-336 381,-336 381,-342 381,-342 381,-345 378,-348 375,-348 375,-348 367,-348 367,-348 364,-348 361,-345 361,-342 361,-342 361,-336 361,-336 361,-333 364,-330 367,-330"/>
<path fill="none" stroke="black" d="M367,-330C367,-330 375,-330 375,-330 378,-330 381,-333 381,-336 381,-336 381,-342 381,-342 381,-345 378,-348 375,-348 375,-348 367,-348 367,-348 364,-348 361,-345 361,-342 361,-342 361,-336 361,-336 361,-333 364,-330 367,-330"/>
<text xml:space="preserve" text-anchor="start" x="369.5" y="-335.25" font-family="Arial" font-size="10.00"> </text>
<text xml:space="preserve" text-anchor="start" x="385" y="-335.25" font-family="Arial" font-size="10.00">Object</text>
<path fill="#c7b8e6" stroke="none" d="M423.5,-330C423.5,-330 431.5,-330 431.5,-330 434.5,-330 437.5,-333 437.5,-336 437.5,-336 437.5,-342 437.5,-342 437.5,-345 434.5,-348 431.5,-348 431.5,-348 423.5,-348 423.5,-348 420.5,-348 417.5,-345 417.5,-342 417.5,-342 417.5,-336 417.5,-336 417.5,-333 420.5,-330 423.5,-330"/>
<path fill="none" stroke="black" d="M423.5,-330C423.5,-330 431.5,-330 431.5,-330 434.5,-330 437.5,-333 437.5,-336 437.5,-336 437.5,-342 437.5,-342 437.5,-345 434.5,-348 431.5,-348 431.5,-348 423.5,-348 423.5,-348 420.5,-348 417.5,-345 417.5,-342 417.5,-342 417.5,-336 417.5,-336 417.5,-333 420.5,-330 423.5,-330"/>
<text xml:space="preserve" text-anchor="start" x="426" y="-335.25" font-family="Arial" font-size="10.00"> </text>
<text xml:space="preserve" text-anchor="start" x="441.5" y="-335.25" font-family="Arial" font-size="10.00">Attribute</text>
<path fill="#f5b8b8" stroke="none" d="M488.25,-330C488.25,-330 496.25,-330 496.25,-330 499.25,-330 502.25,-333 502.25,-336 502.25,-336 502.25,-342 502.25,-342 502.25,-345 499.25,-348 496.25,-348 496.25,-348 488.25,-348 488.25,-348 485.25,-348 482.25,-345 482.25,-342 482.25,-342 482.25,-336 482.25,-336 482.25,-333 485.25,-330 488.25,-330"/>
<path fill="none" stroke="black" d="M488.25,-330C488.25,-330 496.25,-330 496.25,-330 499.25,-330 502.25,-333 502.25,-336 502.25,-336 502.25,-342 502.25,-342 502.25,-345 499.25,-348 496.25,-348 496.25,-348 488.25,-348 488.25,-348 485.25,-348 482.25,-345 482.25,-342 482.25,-342 482.25,-336 482.25,-336 482.25,-333 485.25,-330 488.25,-330"/>
<text xml:space="preserve" text-anchor="start" x="490.75" y="-335.25" font-family="Arial" font-size="10.00"> </text>
<text xml:space="preserve" text-anchor="start" x="506.25" y="-335.25" font-family="Arial" font-size="10.00">Relationship</text>
<text xml:space="preserve" text-anchor="start" x="566.25" y="-336.5" font-family="Arial" font-weight="bold" font-size="10.00">(+)</text>
<text xml:space="preserve" text-anchor="start" x="578.25" y="-336.5" font-family="Arial" font-size="10.00"> increases complexity</text>
<text xml:space="preserve" text-anchor="start" x="679.5" y="-336.5" font-family="Arial" font-weight="bold" font-size="10.00">(−)</text>
<text xml:space="preserve" text-anchor="start" x="691.5" y="-336.5" font-family="Arial" font-size="10.00"> decreases complexity</text>
<!-- unknown.data_points -->
<g id="node1" class="node">
<title>unknown.data_points</title>
<path fill="#b8e6b8" stroke="#2c3e50" stroke-width="1.8" d="M651.75,-133C651.75,-133 611.75,-133 611.75,-133 605.75,-133 599.75,-127 599.75,-121 599.75,-121 599.75,-109 599.75,-109 599.75,-103 605.75,-97 611.75,-97 611.75,-97 651.75,-97 651.75,-97 657.75,-97 663.75,-103 663.75,-109 663.75,-109 663.75,-121 663.75,-121 663.75,-127 657.75,-133 651.75,-133"/>
<text xml:space="preserve" text-anchor="middle" x="631.75" y="-111.5" font-family="Arial" font-size="10.00" fill="#1a1a1a">data points</text>
</g>
<!-- attr_0 -->
<g id="node6" class="node">
<title>attr_0</title>
<path fill="#c7b8e6" stroke="#7f8c8d" stroke-width="1.2" d="M841.25,-231C841.25,-231 718.75,-231 718.75,-231 712.75,-231 706.75,-225 706.75,-219 706.75,-219 706.75,-207 706.75,-207 706.75,-201 712.75,-195 718.75,-195 718.75,-195 841.25,-195 841.25,-195 847.25,-195 853.25,-201 853.25,-207 853.25,-207 853.25,-219 853.25,-219 853.25,-225 847.25,-231 841.25,-231"/>
<text xml:space="preserve" text-anchor="middle" x="780" y="-209.5" font-family="Arial" font-size="10.00" fill="#1a1a1a">(+) densely overlapping points</text>
</g>
<!-- unknown.data_points&#45;&gt;attr_0 -->
<g id="edge1" class="edge">
<title>unknown.data_points&#45;&gt;attr_0</title>
<path fill="none" stroke="#aaaaaa" d="M650.59,-133.84C664.82,-148.1 685.77,-167.47 706.75,-181 712.18,-184.5 718.06,-187.8 724.04,-190.85"/>
<polygon fill="#aaaaaa" stroke="#aaaaaa" points="722.92,-193.02 730.28,-193.91 725.07,-188.62 722.92,-193.02"/>
</g>
<!-- attr_5 -->
<g id="node7" class="node">
<title>attr_5</title>
<path fill="#c7b8e6" stroke="#7f8c8d" stroke-width="1.2" d="M841.25,-166C841.25,-166 718.75,-166 718.75,-166 712.75,-166 706.75,-160 706.75,-154 706.75,-154 706.75,-142 706.75,-142 706.75,-136 712.75,-130 718.75,-130 718.75,-130 841.25,-130 841.25,-130 847.25,-130 853.25,-136 853.25,-142 853.25,-142 853.25,-154 853.25,-154 853.25,-160 847.25,-166 841.25,-166"/>
<text xml:space="preserve" text-anchor="middle" x="780" y="-144.5" font-family="Arial" font-size="10.00" fill="#1a1a1a">(+) hard to discern individually</text>
</g>
<!-- unknown.data_points&#45;&gt;attr_5 -->
<g id="edge2" class="edge">
<title>unknown.data_points&#45;&gt;attr_5</title>
<path fill="none" stroke="#aaaaaa" d="M664.48,-122.16C674.52,-124.42 686.1,-127.04 697.97,-129.72"/>
<polygon fill="#aaaaaa" stroke="#aaaaaa" points="697.37,-132.09 704.73,-131.24 698.45,-127.31 697.37,-132.09"/>
</g>
<!-- rel_1 -->
<g id="node14" class="node">
<title>rel_1</title>
<path fill="#f5b8b8" stroke="#d46a6a" stroke-width="1.2" d="M795.88,-101C795.88,-101 764.12,-101 764.12,-101 758.12,-101 752.12,-95 752.12,-89 752.12,-89 752.12,-77 752.12,-77 752.12,-71 758.12,-65 764.12,-65 764.12,-65 795.88,-65 795.88,-65 801.88,-65 807.88,-71 807.88,-77 807.88,-77 807.88,-89 807.88,-89 807.88,-95 801.88,-101 795.88,-101"/>
<text xml:space="preserve" text-anchor="middle" x="780" y="-79.5" font-family="Arial" font-size="10.00" fill="#8b0000">obscures</text>
</g>
<!-- unknown.data_points&#45;&gt;rel_1 -->
<g id="edge10" class="edge">
<title>unknown.data_points&#45;&gt;rel_1</title>
<path fill="none" stroke="#d46a6a" stroke-width="1.5" d="M664.48,-108.06C687.27,-103.07 718.06,-96.33 741.97,-91.1"/>
<polygon fill="#d46a6a" stroke="#d46a6a" stroke-width="1.5" points="742.32,-93.89 749.53,-89.45 741.12,-88.42 742.32,-93.89"/>
</g>
<!-- rel_4 -->
<g id="node17" class="node">
<title>rel_4</title>
<path fill="#f5b8b8" stroke="#d46a6a" stroke-width="1.2" d="M802.25,-36C802.25,-36 757.75,-36 757.75,-36 751.75,-36 745.75,-30 745.75,-24 745.75,-24 745.75,-12 745.75,-12 745.75,-6 751.75,0 757.75,0 757.75,0 802.25,0 802.25,0 808.25,0 814.25,-6 814.25,-12 814.25,-12 814.25,-24 814.25,-24 814.25,-30 808.25,-36 802.25,-36"/>
<text xml:space="preserve" text-anchor="middle" x="780" y="-14.5" font-family="Arial" font-size="10.00" fill="#8b0000">overwhelms</text>
</g>
<!-- unknown.data_points&#45;&gt;rel_4 -->
<g id="edge16" class="edge">
<title>unknown.data_points&#45;&gt;rel_4</title>
<path fill="none" stroke="#d46a6a" stroke-width="1.5" d="M651.33,-96.27C665.62,-82.55 686.31,-64.12 706.75,-51 715.81,-45.18 726.06,-39.85 735.93,-35.24"/>
<polygon fill="#d46a6a" stroke="#d46a6a" stroke-width="1.5" points="737.02,-37.82 743.16,-31.98 734.72,-32.71 737.02,-37.82"/>
</g>
<!-- unknown.color_scheme -->
<g id="node2" class="node">
<title>unknown.color_scheme</title>
<path fill="#b8e6b8" stroke="#2c3e50" stroke-width="1.8" d="M62.5,-228C62.5,-228 12,-228 12,-228 6,-228 0,-222 0,-216 0,-216 0,-204 0,-204 0,-198 6,-192 12,-192 12,-192 62.5,-192 62.5,-192 68.5,-192 74.5,-198 74.5,-204 74.5,-204 74.5,-216 74.5,-216 74.5,-222 68.5,-228 62.5,-228"/>
<text xml:space="preserve" text-anchor="middle" x="37.25" y="-206.5" font-family="Arial" font-size="10.00" fill="#1a1a1a">color scheme</text>
</g>
<!-- attr_1 -->
<g id="node8" class="node">
<title>attr_1</title>
<path fill="#c7b8e6" stroke="#7f8c8d" stroke-width="1.2" d="M224.25,-324C224.25,-324 130.25,-324 130.25,-324 124.25,-324 118.25,-318 118.25,-312 118.25,-312 118.25,-300 118.25,-300 118.25,-294 124.25,-288 130.25,-288 130.25,-288 224.25,-288 224.25,-288 230.25,-288 236.25,-294 236.25,-300 236.25,-300 236.25,-312 236.25,-312 236.25,-318 230.25,-324 224.25,-324"/>
<text xml:space="preserve" text-anchor="middle" x="177.25" y="-302.5" font-family="Arial" font-size="10.00" fill="#1a1a1a">(+) single color scheme</text>
</g>
<!-- unknown.color_scheme&#45;&gt;attr_1 -->
<g id="edge3" class="edge">
<title>unknown.color_scheme&#45;&gt;attr_1</title>
<path fill="none" stroke="#aaaaaa" d="M59.31,-228.75C74.83,-242.14 96.77,-260.15 117.5,-274 122.35,-277.24 127.55,-280.44 132.79,-283.49"/>
<polygon fill="#aaaaaa" stroke="#aaaaaa" points="131.3,-285.46 138.6,-286.79 133.73,-281.2 131.3,-285.46"/>
</g>
<!-- attr_2 -->
<g id="node9" class="node">
<title>attr_2</title>
<path fill="#c7b8e6" stroke="#7f8c8d" stroke-width="1.2" d="M225,-259C225,-259 129.5,-259 129.5,-259 123.5,-259 117.5,-253 117.5,-247 117.5,-247 117.5,-235 117.5,-235 117.5,-229 123.5,-223 129.5,-223 129.5,-223 225,-223 225,-223 231,-223 237,-229 237,-235 237,-235 237,-247 237,-247 237,-253 231,-259 225,-259"/>
<text xml:space="preserve" text-anchor="middle" x="177.25" y="-237.5" font-family="Arial" font-size="10.00" fill="#1a1a1a">(+) poor data separation</text>
</g>
<!-- unknown.color_scheme&#45;&gt;attr_2 -->
<g id="edge4" class="edge">
<title>unknown.color_scheme&#45;&gt;attr_2</title>
<path fill="none" stroke="#aaaaaa" d="M75.23,-218.31C85.68,-220.65 97.38,-223.28 109.01,-225.9"/>
<polygon fill="#aaaaaa" stroke="#aaaaaa" points="108.2,-228.22 115.56,-227.37 109.27,-223.44 108.2,-228.22"/>
</g>
<!-- rel_0 -->
<g id="node13" class="node">
<title>rel_0</title>
<path fill="#f5b8b8" stroke="#d46a6a" stroke-width="1.2" d="M353.75,-213C353.75,-213 292,-213 292,-213 286,-213 280,-207 280,-201 280,-201 280,-189 280,-189 280,-183 286,-177 292,-177 292,-177 353.75,-177 353.75,-177 359.75,-177 365.75,-183 365.75,-189 365.75,-189 365.75,-201 365.75,-201 365.75,-207 359.75,-213 353.75,-213"/>
<text xml:space="preserve" text-anchor="middle" x="322.88" y="-191.5" font-family="Arial" font-size="10.00" fill="#8b0000">fails to separate</text>
</g>
<!-- unknown.color_scheme&#45;&gt;rel_0 -->
<g id="edge8" class="edge">
<title>unknown.color_scheme&#45;&gt;rel_0</title>
<path fill="none" stroke="#d46a6a" stroke-width="1.5" d="M75.33,-208.04C124.95,-205.41 213.21,-200.75 269.57,-197.77"/>
<polygon fill="#d46a6a" stroke="#d46a6a" stroke-width="1.5" points="269.6,-200.57 277.44,-197.35 269.3,-194.98 269.6,-200.57"/>
</g>
<!-- rel_3 -->
<g id="node16" class="node">
<title>rel_3</title>
<path fill="#f5b8b8" stroke="#d46a6a" stroke-width="1.2" d="M224.25,-134C224.25,-134 130.25,-134 130.25,-134 124.25,-134 118.25,-128 118.25,-122 118.25,-122 118.25,-110 118.25,-110 118.25,-104 124.25,-98 130.25,-98 130.25,-98 224.25,-98 224.25,-98 230.25,-98 236.25,-104 236.25,-110 236.25,-110 236.25,-122 236.25,-122 236.25,-128 230.25,-134 224.25,-134"/>
<text xml:space="preserve" text-anchor="middle" x="177.25" y="-112.5" font-family="Arial" font-size="10.00" fill="#8b0000">hinders interpretation of</text>
</g>
<!-- unknown.color_scheme&#45;&gt;rel_3 -->
<g id="edge14" class="edge">
<title>unknown.color_scheme&#45;&gt;rel_3</title>
<path fill="none" stroke="#d46a6a" stroke-width="1.5" d="M65.84,-191.2C87.42,-176.51 117.57,-155.97 140.91,-140.07"/>
<polygon fill="#d46a6a" stroke="#d46a6a" stroke-width="1.5" points="142.26,-142.54 147.3,-135.72 139.11,-137.91 142.26,-142.54"/>
</g>
<!-- structure.pattern -->
<g id="node3" class="node">
<title>structure.pattern</title>
<path fill="#b8e6b8" stroke="#2c3e50" stroke-width="1.8" d="M337.88,-133C337.88,-133 307.88,-133 307.88,-133 301.88,-133 295.88,-127 295.88,-121 295.88,-121 295.88,-109 295.88,-109 295.88,-103 301.88,-97 307.88,-97 307.88,-97 337.88,-97 337.88,-97 343.88,-97 349.88,-103 349.88,-109 349.88,-109 349.88,-121 349.88,-121 349.88,-127 343.88,-133 337.88,-133"/>
<text xml:space="preserve" text-anchor="middle" x="322.88" y="-111.5" font-family="Arial" font-size="10.00" fill="#1a1a1a">pattern</text>
</g>
<!-- attr_3 -->
<g id="node10" class="node">
<title>attr_3</title>
<path fill="#c7b8e6" stroke="#7f8c8d" stroke-width="1.2" d="M526.38,-167C526.38,-167 439.12,-167 439.12,-167 433.12,-167 427.12,-161 427.12,-155 427.12,-155 427.12,-143 427.12,-143 427.12,-137 433.12,-131 439.12,-131 439.12,-131 526.38,-131 526.38,-131 532.38,-131 538.38,-137 538.38,-143 538.38,-143 538.38,-155 538.38,-155 538.38,-161 532.38,-167 526.38,-167"/>
<text xml:space="preserve" text-anchor="middle" x="482.75" y="-145.5" font-family="Arial" font-size="10.00" fill="#1a1a1a">(+) no obvious pattern</text>
</g>
<!-- structure.pattern&#45;&gt;attr_3 -->
<g id="edge5" class="edge">
<title>structure.pattern&#45;&gt;attr_3</title>
<path fill="none" stroke="#aaaaaa" d="M350.66,-120.77C369.23,-124.77 394.77,-130.27 418.38,-135.35"/>
<polygon fill="#aaaaaa" stroke="#aaaaaa" points="417.8,-137.73 425.16,-136.81 418.83,-132.94 417.8,-137.73"/>
</g>
<!-- attr_6 -->
<g id="node11" class="node">
<title>attr_6</title>
<path fill="#c7b8e6" stroke="#7f8c8d" stroke-width="1.2" d="M544.75,-102C544.75,-102 420.75,-102 420.75,-102 414.75,-102 408.75,-96 408.75,-90 408.75,-90 408.75,-78 408.75,-78 408.75,-72 414.75,-66 420.75,-66 420.75,-66 544.75,-66 544.75,-66 550.75,-66 556.75,-72 556.75,-78 556.75,-78 556.75,-90 556.75,-90 556.75,-96 550.75,-102 544.75,-102"/>
<text xml:space="preserve" text-anchor="middle" x="482.75" y="-80.5" font-family="Arial" font-size="10.00" fill="#1a1a1a">(+) ambiguous visual structure</text>
</g>
<!-- structure.pattern&#45;&gt;attr_6 -->
<g id="edge6" class="edge">
<title>structure.pattern&#45;&gt;attr_6</title>
<path fill="none" stroke="#aaaaaa" d="M350.66,-109.74C364.46,-107.03 382.13,-103.56 399.98,-100.06"/>
<polygon fill="#aaaaaa" stroke="#aaaaaa" points="400.31,-102.49 406.7,-98.74 399.36,-97.68 400.31,-102.49"/>
</g>
<!-- rel_2 -->
<g id="node15" class="node">
<title>rel_2</title>
<path fill="#f5b8b8" stroke="#d46a6a" stroke-width="1.2" d="M519.25,-37C519.25,-37 446.25,-37 446.25,-37 440.25,-37 434.25,-31 434.25,-25 434.25,-25 434.25,-13 434.25,-13 434.25,-7 440.25,-1 446.25,-1 446.25,-1 519.25,-1 519.25,-1 525.25,-1 531.25,-7 531.25,-13 531.25,-13 531.25,-25 531.25,-25 531.25,-31 525.25,-37 519.25,-37"/>
<text xml:space="preserve" text-anchor="middle" x="482.75" y="-15.5" font-family="Arial" font-size="10.00" fill="#8b0000">increases effort for</text>
</g>
<!-- structure.pattern&#45;&gt;rel_2 -->
<g id="edge12" class="edge">
<title>structure.pattern&#45;&gt;rel_2</title>
<path fill="none" stroke="#d46a6a" stroke-width="1.5" d="M346.37,-96.22C362.96,-82.89 386.45,-65.12 408.75,-52 414.77,-48.46 421.23,-45.04 427.73,-41.83"/>
<polygon fill="#d46a6a" stroke="#d46a6a" stroke-width="1.5" points="428.54,-44.55 434.54,-38.57 426.12,-39.5 428.54,-44.55"/>
</g>
<!-- unknown.boundary -->
<g id="node4" class="node">
<title>unknown.boundary</title>
<path fill="#b8e6b8" stroke="#2c3e50" stroke-width="1.8" d="M940,-68C940,-68 908.25,-68 908.25,-68 902.25,-68 896.25,-62 896.25,-56 896.25,-56 896.25,-44 896.25,-44 896.25,-38 902.25,-32 908.25,-32 908.25,-32 940,-32 940,-32 946,-32 952,-38 952,-44 952,-44 952,-56 952,-56 952,-62 946,-68 940,-68"/>
<text xml:space="preserve" text-anchor="middle" x="924.12" y="-46.5" font-family="Arial" font-size="10.00" fill="#1a1a1a">boundary</text>
</g>
<!-- attr_4 -->
<g id="node12" class="node">
<title>attr_4</title>
<path fill="#c7b8e6" stroke="#7f8c8d" stroke-width="1.2" d="M1140.75,-68C1140.75,-68 1007,-68 1007,-68 1001,-68 995,-62 995,-56 995,-56 995,-44 995,-44 995,-38 1001,-32 1007,-32 1007,-32 1140.75,-32 1140.75,-32 1146.75,-32 1152.75,-38 1152.75,-44 1152.75,-44 1152.75,-56 1152.75,-56 1152.75,-62 1146.75,-68 1140.75,-68"/>
<text xml:space="preserve" text-anchor="middle" x="1073.88" y="-46.5" font-family="Arial" font-size="10.00" fill="#1a1a1a">(+) indistinct element boundaries</text>
</g>
<!-- unknown.boundary&#45;&gt;attr_4 -->
<g id="edge7" class="edge">
<title>unknown.boundary&#45;&gt;attr_4</title>
<path fill="none" stroke="#aaaaaa" d="M952.57,-50C962.4,-50 974.08,-50 986.23,-50"/>
<polygon fill="#aaaaaa" stroke="#aaaaaa" points="986.19,-52.45 993.19,-50 986.19,-47.55 986.19,-52.45"/>
</g>
<!-- furniture.legend -->
<g id="node5" class="node">
<title>furniture.legend</title>
<path fill="#b8e6b8" stroke="#2c3e50" stroke-width="1.8" d="M52.25,-293C52.25,-293 22.25,-293 22.25,-293 16.25,-293 10.25,-287 10.25,-281 10.25,-281 10.25,-269 10.25,-269 10.25,-263 16.25,-257 22.25,-257 22.25,-257 52.25,-257 52.25,-257 58.25,-257 64.25,-263 64.25,-269 64.25,-269 64.25,-281 64.25,-281 64.25,-287 58.25,-293 52.25,-293"/>
<text xml:space="preserve" text-anchor="middle" x="37.25" y="-271.5" font-family="Arial" font-size="10.00" fill="#1a1a1a">legend</text>
</g>
<!-- rel_0&#45;&gt;unknown.data_points -->
<g id="edge9" class="edge">
<title>rel_0&#45;&gt;unknown.data_points</title>
<path fill="none" stroke="#d46a6a" stroke-width="1.5" d="M366.12,-200.83C414.27,-205.66 494.35,-208.07 556.75,-182 577.58,-173.29 596.38,-156.1 609.81,-141.3"/>
<polygon fill="#d46a6a" stroke="#d46a6a" stroke-width="1.5" points="611.68,-143.42 614.84,-135.56 607.47,-139.74 611.68,-143.42"/>
</g>
<!-- rel_1&#45;&gt;unknown.boundary -->
<g id="edge11" class="edge">
<title>rel_1&#45;&gt;unknown.boundary</title>
<path fill="none" stroke="#d46a6a" stroke-width="1.5" d="M808.4,-76.64C830.42,-71.52 861.58,-64.29 885.86,-58.65"/>
<polygon fill="#d46a6a" stroke="#d46a6a" stroke-width="1.5" points="886.44,-61.39 893.59,-56.86 885.17,-55.94 886.44,-61.39"/>
</g>
<!-- rel_2&#45;&gt;unknown.data_points -->
<g id="edge13" class="edge">
<title>rel_2&#45;&gt;unknown.data_points</title>
<path fill="none" stroke="#d46a6a" stroke-width="1.5" d="M529.95,-37.51C539.08,-41.82 548.41,-46.71 556.75,-52 573.67,-62.72 590.81,-77.05 604.32,-89.33"/>
<polygon fill="#d46a6a" stroke="#d46a6a" stroke-width="1.5" points="602.4,-91.36 610.17,-94.74 606.2,-87.25 602.4,-91.36"/>
</g>
<!-- rel_3&#45;&gt;structure.pattern -->
<g id="edge15" class="edge">
<title>rel_3&#45;&gt;structure.pattern</title>
<path fill="none" stroke="#d46a6a" stroke-width="1.5" d="M236.67,-115.59C253.04,-115.48 270.38,-115.36 285.11,-115.26"/>
<polygon fill="#d46a6a" stroke="#d46a6a" stroke-width="1.5" points="285.07,-118.06 293.05,-115.2 285.03,-112.46 285.07,-118.06"/>
</g>
<!-- rel_4&#45;&gt;unknown.boundary -->
<g id="edge17" class="edge">
<title>rel_4&#45;&gt;unknown.boundary</title>
<path fill="none" stroke="#d46a6a" stroke-width="1.5" d="M814.68,-25.58C835.94,-30.37 863.44,-36.56 885.43,-41.51"/>
<polygon fill="#d46a6a" stroke="#d46a6a" stroke-width="1.5" points="884.78,-44.24 893.2,-43.26 886.01,-38.77 884.78,-44.24"/>
</g>
</g>
</svg>
