<?xml version="1.0" encoding="UTF-8" standalone="no"?>
<!DOCTYPE svg PUBLIC "-//W3C//DTD SVG 1.1//EN"
 "http://www.w3.org/Graphics/SVG/1.1/DTD/svg11.dtd">
<!-- Generated by graphviz version 14.1.5 (20260411.2331)
 -->
<!-- Title: SciVisJ.1043.12(5).png Pages: 1 -->
<svg width="561pt" height="505pt"
 viewBox="0.00 0.00 561.00 505.00" xmlns="http://www.w3.org/2000/svg" xmlns:xlink="http://www.w3.org/1999/xlink">
<g id="graph0" class="graph" transform="scale(1 1) rotate(0) translate(4 501.25)">
<title>SciVisJ.1043.12(5).png</title>
<polygon fill="white" stroke="none" points="-4,4 -4,-501.25 557,-501.25 557,4 -4,4"/>
<text xml:space="preserve" text-anchor="start" x="203.75" y="-476.95" font-family="Arial" font-weight="bold" font-size="14.00">SciVisJ.1043.12(5).png</text>
<text xml:space="preserve" text-anchor="start" x="204.88" y="-457" font-family="Arial" font-size="11.00">Cont.&#45;ColorPatn &#160;| &#160;VC = 0.56</text>
<path fill="#b8e6b8" stroke="none" d="M67.12,-432C67.12,-432 75.12,-432 75.12,-432 78.12,-432 81.12,-435 81.12,-438 81.12,-438 81.12,-444 81.12,-444 81.12,-447 78.12,-450 75.12,-450 75.12,-450 67.12,-450 67.12,-450 64.12,-450 61.12,-447 61.12,-444 61.12,-444 61.12,-438 61.12,-438 61.12,-435 64.12,-432 67.12,-432"/>
<path fill="none" stroke="black" d="M67.12,-432C67.12,-432 75.12,-432 75.12,-432 78.12,-432 81.12,-435 81.12,-438 81.12,-438 81.12,-444 81.12,-444 81.12,-447 78.12,-450 75.12,-450 75.12,-450 67.12,-450 67.12,-450 64.12,-450 61.12,-447 61.12,-444 61.12,-444 61.12,-438 61.12,-438 61.12,-435 64.12,-432 67.12,-432"/>
<text xml:space="preserve" text-anchor="start" x="69.62" y="-437.25" font-family="Arial" font-size="10.00"> </text>
<text xml:space="preserve" text-anchor="start" x="85.12" y="-437.25" font-family="Arial" font-size="10.00">Object</text>
<path fill="#c7b8e6" stroke="none" d="M123.62,-432C123.62,-432 131.62,-432 131.62,-432 134.62,-432 137.62,-435 137.62,-438 137.62,-438 137.62,-444 137.62,-444 137.62,-447 134.62,-450 131.62,-450 131.62,-450 123.62,-450 123.62,-450 120.62,-450 117.62,-447 117.62,-444 117.62,-444 117.62,-438 117.62,-438 117.62,-435 120.62,-432 123.62,-432"/>
<path fill="none" stroke="black" d="M123.62,-432C123.62,-432 131.62,-432 131.62,-432 134.62,-432 137.62,-435 137.62,-438 137.62,-438 137.62,-444 137.62,-444 137.62,-447 134.62,-450 131.62,-450 131.62,-450 123.62,-450 123.62,-450 120.62,-450 117.62,-447 117.62,-444 117.62,-444 117.62,-438 117.62,-438 117.62,-435 120.62,-432 123.62,-432"/>
<text xml:space="preserve" text-anchor="start" x="126.12" y="-437.25" font-family="Arial" font-size="10.00"> </text>
<text xml:space="preserve" text-anchor="start" x="141.62" y="-437.25" font-family="Arial" font-size="10.00">Attribute</text>
<path fill="#f5b8b8" stroke="none" d="M188.38,-432C188.38,-432 196.38,-432 196.38,-432 199.38,-432 202.38,-435 202.38,-438 202.38,-438 202.38,-444 202.38,-444 202.38,-447 199.38,-450 196.38,-450 196.38,-450 188.38,-450 188.38,-450 185.38,-450 182.38,-447 182.38,-444 182.38,-444 182.38,-438 182.38,-438 182.38,-435 185.38,-432 188.38,-432"/>
<path fill="none" stroke="black" d="M188.38,-432C188.38,-432 196.38,-432 196.38,-432 199.38,-432 202.38,-435 202.38,-438 202.38,-438 202.38,-444 202.38,-444 202.38,-447 199.38,-450 196.38,-450 196.38,-450 188.38,-450 188.38,-450 185.38,-450 182.38,-447 182.38,-444 182.38,-444 182.38,-438 182.38,-438 182.38,-435 185.38,-432 188.38,-432"/>
<text xml:space="preserve" text-anchor="start" x="190.88" y="-437.25" font-family="Arial" font-size="10.00"> </text>
<text xml:space="preserve" text-anchor="start" x="206.38" y="-437.25" font-family="Arial" font-size="10.00">Relationship</text>
<text xml:space="preserve" text-anchor="start" x="266.38" y="-438.5" font-family="Arial" font-weight="bold" font-size="10.00">(+)</text>
<text xml:space="preserve" text-anchor="start" x="278.38" y="-438.5" font-family="Arial" font-size="10.00"> increases complexity</text>
<text xml:space="preserve" text-anchor="start" x="379.62" y="-438.5" font-family="Arial" font-weight="bold" font-size="10.00">(−)</text>
<text xml:space="preserve" text-anchor="start" x="391.62" y="-438.5" font-family="Arial" font-size="10.00"> decreases complexity</text>
<!-- furniture.legend -->
<g id="node1" class="node">
<title>furniture.legend</title>
<path fill="#b8e6b8" stroke="#2c3e50" stroke-width="1.8" d="M43.62,-231C43.62,-231 13.62,-231 13.62,-231 7.62,-231 1.62,-225 1.62,-219 1.62,-219 1.62,-207 1.62,-207 1.62,-201 7.62,-195 13.62,-195 13.62,-195 43.62,-195 43.62,-195 49.62,-195 55.62,-201 55.62,-207 55.62,-207 55.62,-219 55.62,-219 55.62,-225 49.62,-231 43.62,-231"/>
<text xml:space="preserve" text-anchor="middle" x="28.62" y="-209.5" font-family="Arial" font-size="10.00" fill="#1a1a1a">legend</text>
</g>
<!-- attr_0 -->
<g id="node6" class="node">
<title>attr_0</title>
<path fill="#c7b8e6" stroke="#7f8c8d" stroke-width="1.2" d="M214.88,-296C214.88,-296 130.62,-296 130.62,-296 124.62,-296 118.62,-290 118.62,-284 118.62,-284 118.62,-272 118.62,-272 118.62,-266 124.62,-260 130.62,-260 130.62,-260 214.88,-260 214.88,-260 220.88,-260 226.88,-266 226.88,-272 226.88,-272 226.88,-284 226.88,-284 226.88,-290 220.88,-296 214.88,-296"/>
<text xml:space="preserve" text-anchor="middle" x="172.75" y="-274.5" font-family="Arial" font-size="10.00" fill="#1a1a1a">(+) absent or missing</text>
</g>
<!-- furniture.legend&#45;&gt;attr_0 -->
<g id="edge1" class="edge">
<title>furniture.legend&#45;&gt;attr_0</title>
<path fill="none" stroke="#aaaaaa" d="M56.41,-225.64C69.59,-231.83 85.73,-239.36 100.25,-246 107.48,-249.31 115.15,-252.78 122.66,-256.16"/>
<polygon fill="#aaaaaa" stroke="#aaaaaa" points="121.34,-258.25 128.73,-258.88 123.35,-253.78 121.34,-258.25"/>
</g>
<!-- rel_0 -->
<g id="node11" class="node">
<title>rel_0</title>
<path fill="#f5b8b8" stroke="#d46a6a" stroke-width="1.2" d="M194.62,-231C194.62,-231 150.88,-231 150.88,-231 144.88,-231 138.88,-225 138.88,-219 138.88,-219 138.88,-207 138.88,-207 138.88,-201 144.88,-195 150.88,-195 150.88,-195 194.62,-195 194.62,-195 200.62,-195 206.62,-201 206.62,-207 206.62,-207 206.62,-219 206.62,-219 206.62,-225 200.62,-231 194.62,-231"/>
<text xml:space="preserve" text-anchor="middle" x="172.75" y="-209.5" font-family="Arial" font-size="10.00" fill="#8b0000">absent from</text>
</g>
<!-- furniture.legend&#45;&gt;rel_0 -->
<g id="edge6" class="edge">
<title>furniture.legend&#45;&gt;rel_0</title>
<path fill="none" stroke="#d46a6a" stroke-width="1.5" d="M56.36,-213C76.6,-213 104.83,-213 128.31,-213"/>
<polygon fill="#d46a6a" stroke="#d46a6a" stroke-width="1.5" points="128.1,-215.8 136.1,-213 128.1,-210.2 128.1,-215.8"/>
</g>
<!-- rel_2 -->
<g id="node13" class="node">
<title>rel_2</title>
<path fill="#f5b8b8" stroke="#d46a6a" stroke-width="1.2" d="M211.88,-166C211.88,-166 133.62,-166 133.62,-166 127.62,-166 121.62,-160 121.62,-154 121.62,-154 121.62,-142 121.62,-142 121.62,-136 127.62,-130 133.62,-130 133.62,-130 211.88,-130 211.88,-130 217.88,-130 223.88,-136 223.88,-142 223.88,-142 223.88,-154 223.88,-154 223.88,-160 217.88,-166 211.88,-166"/>
<text xml:space="preserve" text-anchor="middle" x="172.75" y="-144.5" font-family="Arial" font-size="10.00" fill="#8b0000">leaves undecodable</text>
</g>
<!-- furniture.legend&#45;&gt;rel_2 -->
<g id="edge10" class="edge">
<title>furniture.legend&#45;&gt;rel_2</title>
<path fill="none" stroke="#d46a6a" stroke-width="1.5" d="M56.36,-200.77C74.79,-192.34 99.85,-180.88 121.91,-170.79"/>
<polygon fill="#d46a6a" stroke="#d46a6a" stroke-width="1.5" points="122.98,-173.39 129.09,-167.51 120.65,-168.29 122.98,-173.39"/>
</g>
<!-- text.label -->
<g id="node2" class="node">
<title>text.label</title>
<path fill="#b8e6b8" stroke="#2c3e50" stroke-width="1.8" d="M43.62,-69C43.62,-69 13.62,-69 13.62,-69 7.62,-69 1.62,-63 1.62,-57 1.62,-57 1.62,-45 1.62,-45 1.62,-39 7.62,-33 13.62,-33 13.62,-33 43.62,-33 43.62,-33 49.62,-33 55.62,-39 55.62,-45 55.62,-45 55.62,-57 55.62,-57 55.62,-63 49.62,-69 43.62,-69"/>
<text xml:space="preserve" text-anchor="middle" x="28.62" y="-47.5" font-family="Arial" font-size="10.00" fill="#1a1a1a">text</text>
</g>
<!-- attr_1 -->
<g id="node7" class="node">
<title>attr_1</title>
<path fill="#c7b8e6" stroke="#7f8c8d" stroke-width="1.2" d="M233.25,-36C233.25,-36 112.25,-36 112.25,-36 106.25,-36 100.25,-30 100.25,-24 100.25,-24 100.25,-12 100.25,-12 100.25,-6 106.25,0 112.25,0 112.25,0 233.25,0 233.25,0 239.25,0 245.25,-6 245.25,-12 245.25,-12 245.25,-24 245.25,-24 245.25,-30 239.25,-36 233.25,-36"/>
<text xml:space="preserve" text-anchor="middle" x="172.75" y="-14.5" font-family="Arial" font-size="10.00" fill="#1a1a1a">(+) insufficient contextual text</text>
</g>
<!-- text.label&#45;&gt;attr_1 -->
<g id="edge2" class="edge">
<title>text.label&#45;&gt;attr_1</title>
<path fill="none" stroke="#aaaaaa" d="M56.36,-44.79C66.68,-42.4 79.08,-39.52 91.86,-36.55"/>
<polygon fill="#aaaaaa" stroke="#aaaaaa" points="92.12,-39 98.39,-35.03 91.01,-34.23 92.12,-39"/>
</g>
<!-- rel_1 -->
<g id="node12" class="node">
<title>rel_1</title>
<path fill="#f5b8b8" stroke="#d46a6a" stroke-width="1.2" d="M224.62,-101C224.62,-101 120.88,-101 120.88,-101 114.88,-101 108.88,-95 108.88,-89 108.88,-89 108.88,-77 108.88,-77 108.88,-71 114.88,-65 120.88,-65 120.88,-65 224.62,-65 224.62,-65 230.62,-65 236.62,-71 236.62,-77 236.62,-77 236.62,-89 236.62,-89 236.62,-95 230.62,-101 224.62,-101"/>
<text xml:space="preserve" text-anchor="middle" x="172.75" y="-79.5" font-family="Arial" font-size="10.00" fill="#8b0000">insufficient for interpreting</text>
</g>
<!-- text.label&#45;&gt;rel_1 -->
<g id="edge8" class="edge">
<title>text.label&#45;&gt;rel_1</title>
<path fill="none" stroke="#d46a6a" stroke-width="1.5" d="M56.36,-57.02C68.49,-59.75 83.5,-63.13 98.64,-66.54"/>
<polygon fill="#d46a6a" stroke="#d46a6a" stroke-width="1.5" points="97.94,-69.25 106.36,-68.28 99.17,-63.79 97.94,-69.25"/>
</g>
<!-- unknown.color_pattern -->
<g id="node3" class="node">
<title>unknown.color_pattern</title>
<path fill="#b8e6b8" stroke="#2c3e50" stroke-width="1.8" d="M346.25,-150C346.25,-150 300.25,-150 300.25,-150 294.25,-150 288.25,-144 288.25,-138 288.25,-138 288.25,-126 288.25,-126 288.25,-120 294.25,-114 300.25,-114 300.25,-114 346.25,-114 346.25,-114 352.25,-114 358.25,-120 358.25,-126 358.25,-126 358.25,-138 358.25,-138 358.25,-144 352.25,-150 346.25,-150"/>
<text xml:space="preserve" text-anchor="middle" x="323.25" y="-128.5" font-family="Arial" font-size="10.00" fill="#1a1a1a">color pattern</text>
</g>
<!-- attr_2 -->
<g id="node8" class="node">
<title>attr_2</title>
<path fill="#c7b8e6" stroke="#7f8c8d" stroke-width="1.2" d="M541,-150C541,-150 413.25,-150 413.25,-150 407.25,-150 401.25,-144 401.25,-138 401.25,-138 401.25,-126 401.25,-126 401.25,-120 407.25,-114 413.25,-114 413.25,-114 541,-114 541,-114 547,-114 553,-120 553,-126 553,-126 553,-138 553,-138 553,-144 547,-150 541,-150"/>
<text xml:space="preserve" text-anchor="middle" x="477.12" y="-128.5" font-family="Arial" font-size="10.00" fill="#1a1a1a">(+) undecodable without legend</text>
</g>
<!-- unknown.color_pattern&#45;&gt;attr_2 -->
<g id="edge3" class="edge">
<title>unknown.color_pattern&#45;&gt;attr_2</title>
<path fill="none" stroke="#aaaaaa" d="M359.09,-132C369.27,-132 380.85,-132 392.68,-132"/>
<polygon fill="#aaaaaa" stroke="#aaaaaa" points="392.38,-134.45 399.38,-132 392.38,-129.55 392.38,-134.45"/>
</g>
<!-- text.axis_label -->
<g id="node4" class="node">
<title>text.axis_label</title>
<path fill="#b8e6b8" stroke="#2c3e50" stroke-width="1.8" d="M45.25,-393C45.25,-393 12,-393 12,-393 6,-393 0,-387 0,-381 0,-381 0,-369 0,-369 0,-363 6,-357 12,-357 12,-357 45.25,-357 45.25,-357 51.25,-357 57.25,-363 57.25,-369 57.25,-369 57.25,-381 57.25,-381 57.25,-387 51.25,-393 45.25,-393"/>
<text xml:space="preserve" text-anchor="middle" x="28.62" y="-371.5" font-family="Arial" font-size="10.00" fill="#1a1a1a">axis label</text>
</g>
<!-- attr_3 -->
<g id="node9" class="node">
<title>attr_3</title>
<path fill="#c7b8e6" stroke="#7f8c8d" stroke-width="1.2" d="M207.38,-361C207.38,-361 138.12,-361 138.12,-361 132.12,-361 126.12,-355 126.12,-349 126.12,-349 126.12,-337 126.12,-337 126.12,-331 132.12,-325 138.12,-325 138.12,-325 207.38,-325 207.38,-325 213.38,-325 219.38,-331 219.38,-337 219.38,-337 219.38,-349 219.38,-349 219.38,-355 213.38,-361 207.38,-361"/>
<text xml:space="preserve" text-anchor="middle" x="172.75" y="-339.5" font-family="Arial" font-size="10.00" fill="#1a1a1a">(+) missing labels</text>
</g>
<!-- text.axis_label&#45;&gt;attr_3 -->
<g id="edge4" class="edge">
<title>text.axis_label&#45;&gt;attr_3</title>
<path fill="none" stroke="#aaaaaa" d="M58.04,-368.6C75.06,-364.77 97.25,-359.77 117.51,-355.21"/>
<polygon fill="#aaaaaa" stroke="#aaaaaa" points="117.99,-357.62 124.28,-353.69 116.91,-352.84 117.99,-357.62"/>
</g>
<!-- rel_3 -->
<g id="node14" class="node">
<title>rel_3</title>
<path fill="#f5b8b8" stroke="#d46a6a" stroke-width="1.2" d="M194.62,-426C194.62,-426 150.88,-426 150.88,-426 144.88,-426 138.88,-420 138.88,-414 138.88,-414 138.88,-402 138.88,-402 138.88,-396 144.88,-390 150.88,-390 150.88,-390 194.62,-390 194.62,-390 200.62,-390 206.62,-396 206.62,-402 206.62,-402 206.62,-414 206.62,-414 206.62,-420 200.62,-426 194.62,-426"/>
<text xml:space="preserve" text-anchor="middle" x="172.75" y="-404.5" font-family="Arial" font-size="10.00" fill="#8b0000">absent from</text>
</g>
<!-- text.axis_label&#45;&gt;rel_3 -->
<g id="edge12" class="edge">
<title>text.axis_label&#45;&gt;rel_3</title>
<path fill="none" stroke="#d46a6a" stroke-width="1.5" d="M58.04,-381.6C78.23,-386.28 105.69,-392.66 128.57,-397.97"/>
<polygon fill="#d46a6a" stroke="#d46a6a" stroke-width="1.5" points="127.75,-400.66 136.18,-399.74 129.02,-395.2 127.75,-400.66"/>
</g>
<!-- unknown.figure -->
<g id="node5" class="node">
<title>unknown.figure</title>
<path fill="#b8e6b8" stroke="#2c3e50" stroke-width="1.8" d="M338.25,-247C338.25,-247 308.25,-247 308.25,-247 302.25,-247 296.25,-241 296.25,-235 296.25,-235 296.25,-223 296.25,-223 296.25,-217 302.25,-211 308.25,-211 308.25,-211 338.25,-211 338.25,-211 344.25,-211 350.25,-217 350.25,-223 350.25,-223 350.25,-235 350.25,-235 350.25,-241 344.25,-247 338.25,-247"/>
<text xml:space="preserve" text-anchor="middle" x="323.25" y="-225.5" font-family="Arial" font-size="10.00" fill="#1a1a1a">figure</text>
</g>
<!-- attr_4 -->
<g id="node10" class="node">
<title>attr_4</title>
<path fill="#c7b8e6" stroke="#7f8c8d" stroke-width="1.2" d="M527.12,-247C527.12,-247 427.12,-247 427.12,-247 421.12,-247 415.12,-241 415.12,-235 415.12,-235 415.12,-223 415.12,-223 415.12,-217 421.12,-211 427.12,-211 427.12,-211 527.12,-211 527.12,-211 533.12,-211 539.12,-217 539.12,-223 539.12,-223 539.12,-235 539.12,-235 539.12,-241 533.12,-247 527.12,-247"/>
<text xml:space="preserve" text-anchor="middle" x="477.12" y="-225.5" font-family="Arial" font-size="10.00" fill="#1a1a1a">(+) difficult to understand</text>
</g>
<!-- unknown.figure&#45;&gt;attr_4 -->
<g id="edge5" class="edge">
<title>unknown.figure&#45;&gt;attr_4</title>
<path fill="none" stroke="#aaaaaa" d="M351.05,-229C366.48,-229 386.64,-229 406.26,-229"/>
<polygon fill="#aaaaaa" stroke="#aaaaaa" points="406.11,-231.45 413.11,-229 406.11,-226.55 406.11,-231.45"/>
</g>
<!-- rel_0&#45;&gt;unknown.figure -->
<g id="edge7" class="edge">
<title>rel_0&#45;&gt;unknown.figure</title>
<path fill="none" stroke="#d46a6a" stroke-width="1.5" d="M207.08,-216.59C230.32,-219.09 261.34,-222.44 285.33,-225.02"/>
<polygon fill="#d46a6a" stroke="#d46a6a" stroke-width="1.5" points="284.96,-227.8 293.21,-225.87 285.56,-222.23 284.96,-227.8"/>
</g>
<!-- rel_1&#45;&gt;unknown.color_pattern -->
<g id="edge9" class="edge">
<title>rel_1&#45;&gt;unknown.color_pattern</title>
<path fill="none" stroke="#d46a6a" stroke-width="1.5" d="M229.89,-101.52C245.79,-106.77 262.87,-112.41 277.97,-117.39"/>
<polygon fill="#d46a6a" stroke="#d46a6a" stroke-width="1.5" points="276.94,-120 285.41,-119.84 278.69,-114.68 276.94,-120"/>
</g>
<!-- rel_2&#45;&gt;unknown.color_pattern -->
<g id="edge11" class="edge">
<title>rel_2&#45;&gt;unknown.color_pattern</title>
<path fill="none" stroke="#d46a6a" stroke-width="1.5" d="M224.44,-142.54C241.7,-140.68 260.85,-138.62 277.59,-136.81"/>
<polygon fill="#d46a6a" stroke="#d46a6a" stroke-width="1.5" points="277.76,-139.61 285.42,-135.97 277.16,-134.04 277.76,-139.61"/>
</g>
<!-- rel_3&#45;&gt;unknown.figure -->
<g id="edge13" class="edge">
<title>rel_3&#45;&gt;unknown.figure</title>
<path fill="none" stroke="#d46a6a" stroke-width="1.5" d="M207.08,-398.37C220.15,-393.33 234.55,-386.06 245.25,-376 280.63,-342.74 302.8,-289.55 313.82,-257.09"/>
<polygon fill="#d46a6a" stroke="#d46a6a" stroke-width="1.5" points="316.35,-258.36 316.18,-249.89 311.03,-256.62 316.35,-258.36"/>
</g>
</g>
</svg>
