<?xml version="1.0" encoding="UTF-8" standalone="no"?>
<!DOCTYPE svg PUBLIC "-//W3C//DTD SVG 1.1//EN"
 "http://www.w3.org/Graphics/SVG/1.1/DTD/svg11.dtd">
<!-- Generated by graphviz version 14.1.5 (20260411.2331)
 -->
<!-- Title: SciVisJ.857.9.png Pages: 1 -->
<svg width="667pt" height="570pt"
 viewBox="0.00 0.00 667.00 570.00" xmlns="http://www.w3.org/2000/svg" xmlns:xlink="http://www.w3.org/1999/xlink">
<g id="graph0" class="graph" transform="scale(1 1) rotate(0) translate(4 566.25)">
<title>SciVisJ.857.9.png</title>
<polygon fill="white" stroke="none" points="-4,4 -4,-566.25 663,-566.25 663,4 -4,4"/>
<text xml:space="preserve" text-anchor="start" x="272.5" y="-541.95" font-family="Arial" font-weight="bold" font-size="14.00">SciVisJ.857.9.png</text>
<text xml:space="preserve" text-anchor="start" x="287.12" y="-522" font-family="Arial" font-size="11.00">Grid &#160;| &#160;VC = 0.53</text>
<path fill="#b8e6b8" stroke="none" d="M120.12,-497C120.12,-497 128.12,-497 128.12,-497 131.12,-497 134.12,-500 134.12,-503 134.12,-503 134.12,-509 134.12,-509 134.12,-512 131.12,-515 128.12,-515 128.12,-515 120.12,-515 120.12,-515 117.12,-515 114.12,-512 114.12,-509 114.12,-509 114.12,-503 114.12,-503 114.12,-500 117.12,-497 120.12,-497"/>
<path fill="none" stroke="black" d="M120.12,-497C120.12,-497 128.12,-497 128.12,-497 131.12,-497 134.12,-500 134.12,-503 134.12,-503 134.12,-509 134.12,-509 134.12,-512 131.12,-515 128.12,-515 128.12,-515 120.12,-515 120.12,-515 117.12,-515 114.12,-512 114.12,-509 114.12,-509 114.12,-503 114.12,-503 114.12,-500 117.12,-497 120.12,-497"/>
<text xml:space="preserve" text-anchor="start" x="122.62" y="-502.25" font-family="Arial" font-size="10.00"> </text>
<text xml:space="preserve" text-anchor="start" x="138.12" y="-502.25" font-family="Arial" font-size="10.00">Object</text>
<path fill="#c7b8e6" stroke="none" d="M176.62,-497C176.62,-497 184.62,-497 184.62,-497 187.62,-497 190.62,-500 190.62,-503 190.62,-503 190.62,-509 190.62,-509 190.62,-512 187.62,-515 184.62,-515 184.62,-515 176.62,-515 176.62,-515 173.62,-515 170.62,-512 170.62,-509 170.62,-509 170.62,-503 170.62,-503 170.62,-500 173.62,-497 176.62,-497"/>
<path fill="none" stroke="black" d="M176.62,-497C176.62,-497 184.62,-497 184.62,-497 187.62,-497 190.62,-500 190.62,-503 190.62,-503 190.62,-509 190.62,-509 190.62,-512 187.62,-515 184.62,-515 184.62,-515 176.62,-515 176.62,-515 173.62,-515 170.62,-512 170.62,-509 170.62,-509 170.62,-503 170.62,-503 170.62,-500 173.62,-497 176.62,-497"/>
<text xml:space="preserve" text-anchor="start" x="179.12" y="-502.25" font-family="Arial" font-size="10.00"> </text>
<text xml:space="preserve" text-anchor="start" x="194.62" y="-502.25" font-family="Arial" font-size="10.00">Attribute</text>
<path fill="#f5b8b8" stroke="none" d="M241.38,-497C241.38,-497 249.38,-497 249.38,-497 252.38,-497 255.38,-500 255.38,-503 255.38,-503 255.38,-509 255.38,-509 255.38,-512 252.38,-515 249.38,-515 249.38,-515 241.38,-515 241.38,-515 238.38,-515 235.38,-512 235.38,-509 235.38,-509 235.38,-503 235.38,-503 235.38,-500 238.38,-497 241.38,-497"/>
<path fill="none" stroke="black" d="M241.38,-497C241.38,-497 249.38,-497 249.38,-497 252.38,-497 255.38,-500 255.38,-503 255.38,-503 255.38,-509 255.38,-509 255.38,-512 252.38,-515 249.38,-515 249.38,-515 241.38,-515 241.38,-515 238.38,-515 235.38,-512 235.38,-509 235.38,-509 235.38,-503 235.38,-503 235.38,-500 238.38,-497 241.38,-497"/>
<text xml:space="preserve" text-anchor="start" x="243.88" y="-502.25" font-family="Arial" font-size="10.00"> </text>
<text xml:space="preserve" text-anchor="start" x="259.38" y="-502.25" font-family="Arial" font-size="10.00">Relationship</text>
<text xml:space="preserve" text-anchor="start" x="319.38" y="-503.5" font-family="Arial" font-weight="bold" font-size="10.00">(+)</text>
<text xml:space="preserve" text-anchor="start" x="331.38" y="-503.5" font-family="Arial" font-size="10.00"> increases complexity</text>
<text xml:space="preserve" text-anchor="start" x="432.62" y="-503.5" font-family="Arial" font-weight="bold" font-size="10.00">(−)</text>
<text xml:space="preserve" text-anchor="start" x="444.62" y="-503.5" font-family="Arial" font-size="10.00"> decreases complexity</text>
<!-- unknown.right_chart -->
<g id="node1" class="node">
<title>unknown.right_chart</title>
<path fill="#b8e6b8" stroke="#2c3e50" stroke-width="1.8" d="M349.25,-166C349.25,-166 313.75,-166 313.75,-166 307.75,-166 301.75,-160 301.75,-154 301.75,-154 301.75,-142 301.75,-142 301.75,-136 307.75,-130 313.75,-130 313.75,-130 349.25,-130 349.25,-130 355.25,-130 361.25,-136 361.25,-142 361.25,-142 361.25,-154 361.25,-154 361.25,-160 355.25,-166 349.25,-166"/>
<text xml:space="preserve" text-anchor="middle" x="331.5" y="-144.5" font-family="Arial" font-size="10.00" fill="#1a1a1a">right chart</text>
</g>
<!-- attr_0 -->
<g id="node7" class="node">
<title>attr_0</title>
<path fill="#c7b8e6" stroke="#7f8c8d" stroke-width="1.2" d="M529.75,-264C529.75,-264 436.5,-264 436.5,-264 430.5,-264 424.5,-258 424.5,-252 424.5,-252 424.5,-240 424.5,-240 424.5,-234 430.5,-228 436.5,-228 436.5,-228 529.75,-228 529.75,-228 535.75,-228 541.75,-234 541.75,-240 541.75,-240 541.75,-252 541.75,-252 541.75,-258 535.75,-264 529.75,-264"/>
<text xml:space="preserve" text-anchor="middle" x="483.12" y="-242.5" font-family="Arial" font-size="10.00" fill="#1a1a1a">(+) visually busy layout</text>
</g>
<!-- unknown.right_chart&#45;&gt;attr_0 -->
<g id="edge1" class="edge">
<title>unknown.right_chart&#45;&gt;attr_0</title>
<path fill="none" stroke="#aaaaaa" d="M349.31,-166.74C363,-181.13 383.4,-200.73 404.25,-214 409.92,-217.61 416.07,-220.96 422.34,-224.02"/>
<polygon fill="#aaaaaa" stroke="#aaaaaa" points="420.99,-226.09 428.36,-226.83 423.06,-221.65 420.99,-226.09"/>
</g>
<!-- attr_1 -->
<g id="node8" class="node">
<title>attr_1</title>
<path fill="#c7b8e6" stroke="#7f8c8d" stroke-width="1.2" d="M550,-199C550,-199 416.25,-199 416.25,-199 410.25,-199 404.25,-193 404.25,-187 404.25,-187 404.25,-175 404.25,-175 404.25,-169 410.25,-163 416.25,-163 416.25,-163 550,-163 550,-163 556,-163 562,-169 562,-175 562,-175 562,-187 562,-187 562,-193 556,-199 550,-199"/>
<text xml:space="preserve" text-anchor="middle" x="483.12" y="-177.5" font-family="Arial" font-size="10.00" fill="#1a1a1a">(+) not immediately recognizable</text>
</g>
<!-- unknown.right_chart&#45;&gt;attr_1 -->
<g id="edge2" class="edge">
<title>unknown.right_chart&#45;&gt;attr_1</title>
<path fill="none" stroke="#aaaaaa" d="M362.06,-154.52C372.05,-156.72 383.77,-159.31 395.89,-161.98"/>
<polygon fill="#aaaaaa" stroke="#aaaaaa" points="395.06,-164.31 402.43,-163.42 396.12,-159.52 395.06,-164.31"/>
</g>
<!-- attr_6 -->
<g id="node9" class="node">
<title>attr_6</title>
<path fill="#c7b8e6" stroke="#7f8c8d" stroke-width="1.2" d="M546.62,-134C546.62,-134 419.62,-134 419.62,-134 413.62,-134 407.62,-128 407.62,-122 407.62,-122 407.62,-110 407.62,-110 407.62,-104 413.62,-98 419.62,-98 419.62,-98 546.62,-98 546.62,-98 552.62,-98 558.62,-104 558.62,-110 558.62,-110 558.62,-122 558.62,-122 558.62,-128 552.62,-134 546.62,-134"/>
<text xml:space="preserve" text-anchor="middle" x="483.12" y="-112.5" font-family="Arial" font-size="10.00" fill="#1a1a1a">(+) higher complexity than map</text>
</g>
<!-- unknown.right_chart&#45;&gt;attr_6 -->
<g id="edge3" class="edge">
<title>unknown.right_chart&#45;&gt;attr_6</title>
<path fill="none" stroke="#aaaaaa" d="M362.06,-141.68C372.85,-139.37 385.65,-136.63 398.81,-133.82"/>
<polygon fill="#aaaaaa" stroke="#aaaaaa" points="399.22,-136.24 405.56,-132.38 398.2,-131.44 399.22,-136.24"/>
</g>
<!-- rel_3 -->
<g id="node17" class="node">
<title>rel_3</title>
<path fill="#f5b8b8" stroke="#d46a6a" stroke-width="1.2" d="M543.25,-69C543.25,-69 423,-69 423,-69 417,-69 411,-63 411,-57 411,-57 411,-45 411,-45 411,-39 417,-33 423,-33 423,-33 543.25,-33 543.25,-33 549.25,-33 555.25,-39 555.25,-45 555.25,-45 555.25,-57 555.25,-57 555.25,-63 549.25,-69 543.25,-69"/>
<text xml:space="preserve" text-anchor="middle" x="483.12" y="-47.5" font-family="Arial" font-size="10.00" fill="#8b0000">perceived more complex than</text>
</g>
<!-- unknown.right_chart&#45;&gt;rel_3 -->
<g id="edge14" class="edge">
<title>unknown.right_chart&#45;&gt;rel_3</title>
<path fill="none" stroke="#d46a6a" stroke-width="1.5" d="M350.02,-129.35C363.78,-115.5 383.94,-96.86 404.25,-84 410.13,-80.27 416.51,-76.79 423,-73.6"/>
<polygon fill="#d46a6a" stroke="#d46a6a" stroke-width="1.5" points="423.77,-76.33 429.82,-70.39 421.39,-71.26 423.77,-76.33"/>
</g>
<!-- unknown.color_palette -->
<g id="node2" class="node">
<title>unknown.color_palette</title>
<path fill="#b8e6b8" stroke="#2c3e50" stroke-width="1.8" d="M57.25,-393C57.25,-393 12,-393 12,-393 6,-393 0,-387 0,-381 0,-381 0,-369 0,-369 0,-363 6,-357 12,-357 12,-357 57.25,-357 57.25,-357 63.25,-357 69.25,-363 69.25,-369 69.25,-369 69.25,-381 69.25,-381 69.25,-387 63.25,-393 57.25,-393"/>
<text xml:space="preserve" text-anchor="middle" x="34.62" y="-371.5" font-family="Arial" font-size="10.00" fill="#1a1a1a">color palette</text>
</g>
<!-- attr_2 -->
<g id="node10" class="node">
<title>attr_2</title>
<path fill="#c7b8e6" stroke="#7f8c8d" stroke-width="1.2" d="M233.62,-491C233.62,-491 137.38,-491 137.38,-491 131.38,-491 125.38,-485 125.38,-479 125.38,-479 125.38,-467 125.38,-467 125.38,-461 131.38,-455 137.38,-455 137.38,-455 233.62,-455 233.62,-455 239.62,-455 245.62,-461 245.62,-467 245.62,-467 245.62,-479 245.62,-479 245.62,-485 239.62,-491 233.62,-491"/>
<text xml:space="preserve" text-anchor="middle" x="185.5" y="-469.5" font-family="Arial" font-size="10.00" fill="#1a1a1a">(+) weird unusual colors</text>
</g>
<!-- unknown.color_palette&#45;&gt;attr_2 -->
<g id="edge4" class="edge">
<title>unknown.color_palette&#45;&gt;attr_2</title>
<path fill="none" stroke="#aaaaaa" d="M54.21,-393.79C69.01,-408.02 90.73,-427.39 112.25,-441 117.71,-444.45 123.61,-447.72 129.6,-450.75"/>
<polygon fill="#aaaaaa" stroke="#aaaaaa" points="128.48,-452.93 135.85,-453.8 130.63,-448.53 128.48,-452.93"/>
</g>
<!-- attr_3 -->
<g id="node11" class="node">
<title>attr_3</title>
<path fill="#c7b8e6" stroke="#7f8c8d" stroke-width="1.2" d="M228.38,-426C228.38,-426 142.62,-426 142.62,-426 136.62,-426 130.62,-420 130.62,-414 130.62,-414 130.62,-402 130.62,-402 130.62,-396 136.62,-390 142.62,-390 142.62,-390 228.38,-390 228.38,-390 234.38,-390 240.38,-396 240.38,-402 240.38,-402 240.38,-414 240.38,-414 240.38,-420 234.38,-426 228.38,-426"/>
<text xml:space="preserve" text-anchor="middle" x="185.5" y="-404.5" font-family="Arial" font-size="10.00" fill="#1a1a1a">(+) throws off visually</text>
</g>
<!-- unknown.color_palette&#45;&gt;attr_3 -->
<g id="edge5" class="edge">
<title>unknown.color_palette&#45;&gt;attr_3</title>
<path fill="none" stroke="#aaaaaa" d="M69.78,-382.57C85.26,-386 104.08,-390.17 121.95,-394.14"/>
<polygon fill="#aaaaaa" stroke="#aaaaaa" points="121.24,-396.49 128.6,-395.61 122.3,-391.7 121.24,-396.49"/>
</g>
<!-- rel_0 -->
<g id="node14" class="node">
<title>rel_0</title>
<path fill="#f5b8b8" stroke="#d46a6a" stroke-width="1.2" d="M233.25,-296C233.25,-296 137.75,-296 137.75,-296 131.75,-296 125.75,-290 125.75,-284 125.75,-284 125.75,-272 125.75,-272 125.75,-266 131.75,-260 137.75,-260 137.75,-260 233.25,-260 233.25,-260 239.25,-260 245.25,-266 245.25,-272 245.25,-272 245.25,-284 245.25,-284 245.25,-290 239.25,-296 233.25,-296"/>
<text xml:space="preserve" text-anchor="middle" x="185.5" y="-274.5" font-family="Arial" font-size="10.00" fill="#8b0000">increases complexity of</text>
</g>
<!-- unknown.color_palette&#45;&gt;rel_0 -->
<g id="edge8" class="edge">
<title>unknown.color_palette&#45;&gt;rel_0</title>
<path fill="none" stroke="#d46a6a" stroke-width="1.5" d="M54.98,-356.32C69.83,-342.63 91.28,-324.21 112.25,-311 117.89,-307.44 123.99,-304.05 130.15,-300.89"/>
<polygon fill="#d46a6a" stroke="#d46a6a" stroke-width="1.5" points="131.23,-303.49 137.16,-297.44 128.75,-298.46 131.23,-303.49"/>
</g>
<!-- rel_4 -->
<g id="node18" class="node">
<title>rel_4</title>
<path fill="#f5b8b8" stroke="#d46a6a" stroke-width="1.2" d="M201.38,-361C201.38,-361 169.62,-361 169.62,-361 163.62,-361 157.62,-355 157.62,-349 157.62,-349 157.62,-337 157.62,-337 157.62,-331 163.62,-325 169.62,-325 169.62,-325 201.38,-325 201.38,-325 207.38,-325 213.38,-331 213.38,-337 213.38,-337 213.38,-349 213.38,-349 213.38,-355 207.38,-361 201.38,-361"/>
<text xml:space="preserve" text-anchor="middle" x="185.5" y="-339.5" font-family="Arial" font-size="10.00" fill="#8b0000">obscures</text>
</g>
<!-- unknown.color_palette&#45;&gt;rel_4 -->
<g id="edge16" class="edge">
<title>unknown.color_palette&#45;&gt;rel_4</title>
<path fill="none" stroke="#d46a6a" stroke-width="1.5" d="M69.78,-367.66C93.07,-362.65 123.88,-356.03 147.7,-350.91"/>
<polygon fill="#d46a6a" stroke="#d46a6a" stroke-width="1.5" points="147.99,-353.71 155.23,-349.29 146.82,-348.24 147.99,-353.71"/>
</g>
<!-- unknown.data_points -->
<g id="node3" class="node">
<title>unknown.data_points</title>
<path fill="#b8e6b8" stroke="#2c3e50" stroke-width="1.8" d="M54.62,-199C54.62,-199 14.62,-199 14.62,-199 8.62,-199 2.62,-193 2.62,-187 2.62,-187 2.62,-175 2.62,-175 2.62,-169 8.62,-163 14.62,-163 14.62,-163 54.62,-163 54.62,-163 60.62,-163 66.62,-169 66.62,-175 66.62,-175 66.62,-187 66.62,-187 66.62,-193 60.62,-199 54.62,-199"/>
<text xml:space="preserve" text-anchor="middle" x="34.62" y="-177.5" font-family="Arial" font-size="10.00" fill="#1a1a1a">data points</text>
</g>
<!-- attr_4 -->
<g id="node12" class="node">
<title>attr_4</title>
<path fill="#c7b8e6" stroke="#7f8c8d" stroke-width="1.2" d="M246.75,-231C246.75,-231 124.25,-231 124.25,-231 118.25,-231 112.25,-225 112.25,-219 112.25,-219 112.25,-207 112.25,-207 112.25,-201 118.25,-195 124.25,-195 124.25,-195 246.75,-195 246.75,-195 252.75,-195 258.75,-201 258.75,-207 258.75,-207 258.75,-219 258.75,-219 258.75,-225 252.75,-231 246.75,-231"/>
<text xml:space="preserve" text-anchor="middle" x="185.5" y="-209.5" font-family="Arial" font-size="10.00" fill="#1a1a1a">(+) multiple overlapping points</text>
</g>
<!-- unknown.data_points&#45;&gt;attr_4 -->
<g id="edge6" class="edge">
<title>unknown.data_points&#45;&gt;attr_4</title>
<path fill="none" stroke="#aaaaaa" d="M67.2,-187.79C78.08,-190.13 90.82,-192.86 103.82,-195.66"/>
<polygon fill="#aaaaaa" stroke="#aaaaaa" points="103.09,-198.01 110.45,-197.08 104.12,-193.22 103.09,-198.01"/>
</g>
<!-- rel_1 -->
<g id="node15" class="node">
<title>rel_1</title>
<path fill="#f5b8b8" stroke="#d46a6a" stroke-width="1.2" d="M207.75,-166C207.75,-166 163.25,-166 163.25,-166 157.25,-166 151.25,-160 151.25,-154 151.25,-154 151.25,-142 151.25,-142 151.25,-136 157.25,-130 163.25,-130 163.25,-130 207.75,-130 207.75,-130 213.75,-130 219.75,-136 219.75,-142 219.75,-142 219.75,-154 219.75,-154 219.75,-160 213.75,-166 207.75,-166"/>
<text xml:space="preserve" text-anchor="middle" x="185.5" y="-144.5" font-family="Arial" font-size="10.00" fill="#8b0000">overwhelms</text>
</g>
<!-- unknown.data_points&#45;&gt;rel_1 -->
<g id="edge10" class="edge">
<title>unknown.data_points&#45;&gt;rel_1</title>
<path fill="none" stroke="#d46a6a" stroke-width="1.5" d="M67.2,-174C88.71,-169.23 117.46,-162.86 141.11,-157.62"/>
<polygon fill="#d46a6a" stroke="#d46a6a" stroke-width="1.5" points="141.48,-160.4 148.69,-155.94 140.27,-154.94 141.48,-160.4"/>
</g>
<!-- unknown.numbers -->
<g id="node4" class="node">
<title>unknown.numbers</title>
<path fill="#b8e6b8" stroke="#2c3e50" stroke-width="1.8" d="M49.62,-69C49.62,-69 19.62,-69 19.62,-69 13.62,-69 7.62,-63 7.62,-57 7.62,-57 7.62,-45 7.62,-45 7.62,-39 13.62,-33 19.62,-33 19.62,-33 49.62,-33 49.62,-33 55.62,-33 61.62,-39 61.62,-45 61.62,-45 61.62,-57 61.62,-57 61.62,-63 55.62,-69 49.62,-69"/>
<text xml:space="preserve" text-anchor="middle" x="34.62" y="-47.5" font-family="Arial" font-size="10.00" fill="#1a1a1a">numbers</text>
</g>
<!-- attr_5 -->
<g id="node13" class="node">
<title>attr_5</title>
<path fill="#c7b8e6" stroke="#7f8c8d" stroke-width="1.2" d="M232.88,-101C232.88,-101 138.12,-101 138.12,-101 132.12,-101 126.12,-95 126.12,-89 126.12,-89 126.12,-77 126.12,-77 126.12,-71 132.12,-65 138.12,-65 138.12,-65 232.88,-65 232.88,-65 238.88,-65 244.88,-71 244.88,-77 244.88,-77 244.88,-89 244.88,-89 244.88,-95 238.88,-101 232.88,-101"/>
<text xml:space="preserve" text-anchor="middle" x="185.5" y="-79.5" font-family="Arial" font-size="10.00" fill="#1a1a1a">(+) high number density</text>
</g>
<!-- unknown.numbers&#45;&gt;attr_5 -->
<g id="edge7" class="edge">
<title>unknown.numbers&#45;&gt;attr_5</title>
<path fill="none" stroke="#aaaaaa" d="M62.24,-56.72C77.68,-60.04 97.88,-64.38 117.41,-68.58"/>
<polygon fill="#aaaaaa" stroke="#aaaaaa" points="116.88,-70.97 124.24,-70.05 117.91,-66.18 116.88,-70.97"/>
</g>
<!-- rel_2 -->
<g id="node16" class="node">
<title>rel_2</title>
<path fill="#f5b8b8" stroke="#d46a6a" stroke-width="1.2" d="M229.12,-36C229.12,-36 141.88,-36 141.88,-36 135.88,-36 129.88,-30 129.88,-24 129.88,-24 129.88,-12 129.88,-12 129.88,-6 135.88,0 141.88,0 141.88,0 229.12,0 229.12,0 235.12,0 241.12,-6 241.12,-12 241.12,-12 241.12,-24 241.12,-24 241.12,-30 235.12,-36 229.12,-36"/>
<text xml:space="preserve" text-anchor="middle" x="185.5" y="-14.5" font-family="Arial" font-size="10.00" fill="#8b0000">adds cognitive load to</text>
</g>
<!-- unknown.numbers&#45;&gt;rel_2 -->
<g id="edge12" class="edge">
<title>unknown.numbers&#45;&gt;rel_2</title>
<path fill="none" stroke="#d46a6a" stroke-width="1.5" d="M62.24,-45.1C78.27,-41.55 99.43,-36.86 119.63,-32.38"/>
<polygon fill="#d46a6a" stroke="#d46a6a" stroke-width="1.5" points="120.02,-35.16 127.23,-30.7 118.81,-29.69 120.02,-35.16"/>
</g>
<!-- whole.visualization -->
<g id="node5" class="node">
<title>whole.visualization</title>
<path fill="#b8e6b8" stroke="#2c3e50" stroke-width="1.8" d="M647,-69C647,-69 617,-69 617,-69 611,-69 605,-63 605,-57 605,-57 605,-45 605,-45 605,-39 611,-33 617,-33 617,-33 647,-33 647,-33 653,-33 659,-39 659,-45 659,-45 659,-57 659,-57 659,-63 653,-69 647,-69"/>
<text xml:space="preserve" text-anchor="middle" x="632" y="-47.5" font-family="Arial" font-size="10.00" fill="#1a1a1a">map</text>
</g>
<!-- furniture.legend -->
<g id="node6" class="node">
<title>furniture.legend</title>
<path fill="#b8e6b8" stroke="#2c3e50" stroke-width="1.8" d="M346.5,-361C346.5,-361 316.5,-361 316.5,-361 310.5,-361 304.5,-355 304.5,-349 304.5,-349 304.5,-337 304.5,-337 304.5,-331 310.5,-325 316.5,-325 316.5,-325 346.5,-325 346.5,-325 352.5,-325 358.5,-331 358.5,-337 358.5,-337 358.5,-349 358.5,-349 358.5,-355 352.5,-361 346.5,-361"/>
<text xml:space="preserve" text-anchor="middle" x="331.5" y="-339.5" font-family="Arial" font-size="10.00" fill="#1a1a1a">legend</text>
</g>
<!-- rel_0&#45;&gt;unknown.right_chart -->
<g id="edge9" class="edge">
<title>rel_0&#45;&gt;unknown.right_chart</title>
<path fill="none" stroke="#d46a6a" stroke-width="1.5" d="M237.43,-259.53C244.96,-255.66 252.34,-251.16 258.75,-246 283.04,-226.44 303.21,-196.78 315.91,-175.21"/>
<polygon fill="#d46a6a" stroke="#d46a6a" stroke-width="1.5" points="318.22,-176.82 319.76,-168.49 313.36,-174.04 318.22,-176.82"/>
</g>
<!-- rel_1&#45;&gt;unknown.right_chart -->
<g id="edge11" class="edge">
<title>rel_1&#45;&gt;unknown.right_chart</title>
<path fill="none" stroke="#d46a6a" stroke-width="1.5" d="M220.26,-148C241.36,-148 268.63,-148 290.77,-148"/>
<polygon fill="#d46a6a" stroke="#d46a6a" stroke-width="1.5" points="290.59,-150.8 298.59,-148 290.59,-145.2 290.59,-150.8"/>
</g>
<!-- rel_2&#45;&gt;unknown.right_chart -->
<g id="edge13" class="edge">
<title>rel_2&#45;&gt;unknown.right_chart</title>
<path fill="none" stroke="#d46a6a" stroke-width="1.5" d="M235.89,-36.47C243.95,-40.6 251.89,-45.44 258.75,-51 282.67,-70.39 302.78,-99.5 315.56,-120.77"/>
<polygon fill="#d46a6a" stroke="#d46a6a" stroke-width="1.5" points="312.98,-121.9 319.44,-127.39 317.82,-119.07 312.98,-121.9"/>
</g>
<!-- rel_3&#45;&gt;whole.visualization -->
<g id="edge15" class="edge">
<title>rel_3&#45;&gt;whole.visualization</title>
<path fill="none" stroke="#d46a6a" stroke-width="1.5" d="M555.84,-51C569.11,-51 582.45,-51 594.14,-51"/>
<polygon fill="#d46a6a" stroke="#d46a6a" stroke-width="1.5" points="594.08,-53.8 602.08,-51 594.08,-48.2 594.08,-53.8"/>
</g>
<!-- rel_4&#45;&gt;furniture.legend -->
<g id="edge17" class="edge">
<title>rel_4&#45;&gt;furniture.legend</title>
<path fill="none" stroke="#d46a6a" stroke-width="1.5" d="M213.92,-343C236.49,-343 268.68,-343 293.52,-343"/>
<polygon fill="#d46a6a" stroke="#d46a6a" stroke-width="1.5" points="293.4,-345.8 301.39,-343 293.39,-340.2 293.4,-345.8"/>
</g>
</g>
</svg>
