<?xml version="1.0" encoding="UTF-8" standalone="no"?>
<!DOCTYPE svg PUBLIC "-//W3C//DTD SVG 1.1//EN"
 "http://www.w3.org/Graphics/SVG/1.1/DTD/svg11.dtd">
<!-- Generated by graphviz version 14.1.5 (20260411.2331)
 -->
<!-- Title: SciVisJ.1819.4(5).png Pages: 1 -->
<svg width="838pt" height="462pt"
 viewBox="0.00 0.00 838.00 462.00" xmlns="http://www.w3.org/2000/svg" xmlns:xlink="http://www.w3.org/1999/xlink">
<g id="graph0" class="graph" transform="scale(1 1) rotate(0) translate(4 458.25)">
<title>SciVisJ.1819.4(5).png</title>
<polygon fill="white" stroke="none" points="-4,4 -4,-458.25 833.75,-458.25 833.75,4 -4,4"/>
<text xml:space="preserve" text-anchor="start" x="345.88" y="-433.95" font-family="Arial" font-weight="bold" font-size="14.00">SciVisJ.1819.4(5).png</text>
<text xml:space="preserve" text-anchor="start" x="343.25" y="-414" font-family="Arial" font-size="11.00">Cont.&#45;ColorPatn &#160;| &#160;VC = 0.59</text>
<path fill="#b8e6b8" stroke="none" d="M205.5,-389C205.5,-389 213.5,-389 213.5,-389 216.5,-389 219.5,-392 219.5,-395 219.5,-395 219.5,-401 219.5,-401 219.5,-404 216.5,-407 213.5,-407 213.5,-407 205.5,-407 205.5,-407 202.5,-407 199.5,-404 199.5,-401 199.5,-401 199.5,-395 199.5,-395 199.5,-392 202.5,-389 205.5,-389"/>
<path fill="none" stroke="black" d="M205.5,-389C205.5,-389 213.5,-389 213.5,-389 216.5,-389 219.5,-392 219.5,-395 219.5,-395 219.5,-401 219.5,-401 219.5,-404 216.5,-407 213.5,-407 213.5,-407 205.5,-407 205.5,-407 202.5,-407 199.5,-404 199.5,-401 199.5,-401 199.5,-395 199.5,-395 199.5,-392 202.5,-389 205.5,-389"/>
<text xml:space="preserve" text-anchor="start" x="208" y="-394.25" font-family="Arial" font-size="10.00"> </text>
<text xml:space="preserve" text-anchor="start" x="223.5" y="-394.25" font-family="Arial" font-size="10.00">Object</text>
<path fill="#c7b8e6" stroke="none" d="M262,-389C262,-389 270,-389 270,-389 273,-389 276,-392 276,-395 276,-395 276,-401 276,-401 276,-404 273,-407 270,-407 270,-407 262,-407 262,-407 259,-407 256,-404 256,-401 256,-401 256,-395 256,-395 256,-392 259,-389 262,-389"/>
<path fill="none" stroke="black" d="M262,-389C262,-389 270,-389 270,-389 273,-389 276,-392 276,-395 276,-395 276,-401 276,-401 276,-404 273,-407 270,-407 270,-407 262,-407 262,-407 259,-407 256,-404 256,-401 256,-401 256,-395 256,-395 256,-392 259,-389 262,-389"/>
<text xml:space="preserve" text-anchor="start" x="264.5" y="-394.25" font-family="Arial" font-size="10.00"> </text>
<text xml:space="preserve" text-anchor="start" x="280" y="-394.25" font-family="Arial" font-size="10.00">Attribute</text>
<path fill="#f5b8b8" stroke="none" d="M326.75,-389C326.75,-389 334.75,-389 334.75,-389 337.75,-389 340.75,-392 340.75,-395 340.75,-395 340.75,-401 340.75,-401 340.75,-404 337.75,-407 334.75,-407 334.75,-407 326.75,-407 326.75,-407 323.75,-407 320.75,-404 320.75,-401 320.75,-401 320.75,-395 320.75,-395 320.75,-392 323.75,-389 326.75,-389"/>
<path fill="none" stroke="black" d="M326.75,-389C326.75,-389 334.75,-389 334.75,-389 337.75,-389 340.75,-392 340.75,-395 340.75,-395 340.75,-401 340.75,-401 340.75,-404 337.75,-407 334.75,-407 334.75,-407 326.75,-407 326.75,-407 323.75,-407 320.75,-404 320.75,-401 320.75,-401 320.75,-395 320.75,-395 320.75,-392 323.75,-389 326.75,-389"/>
<text xml:space="preserve" text-anchor="start" x="329.25" y="-394.25" font-family="Arial" font-size="10.00"> </text>
<text xml:space="preserve" text-anchor="start" x="344.75" y="-394.25" font-family="Arial" font-size="10.00">Relationship</text>
<text xml:space="preserve" text-anchor="start" x="404.75" y="-395.5" font-family="Arial" font-weight="bold" font-size="10.00">(+)</text>
<text xml:space="preserve" text-anchor="start" x="416.75" y="-395.5" font-family="Arial" font-size="10.00"> increases complexity</text>
<text xml:space="preserve" text-anchor="start" x="518" y="-395.5" font-family="Arial" font-weight="bold" font-size="10.00">(−)</text>
<text xml:space="preserve" text-anchor="start" x="530" y="-395.5" font-family="Arial" font-size="10.00"> decreases complexity</text>
<!-- unknown.graphic -->
<g id="node1" class="node">
<title>unknown.graphic</title>
<path fill="#b8e6b8" stroke="#2c3e50" stroke-width="1.8" d="M649.25,-52C649.25,-52 619.25,-52 619.25,-52 613.25,-52 607.25,-46 607.25,-40 607.25,-40 607.25,-28 607.25,-28 607.25,-22 613.25,-16 619.25,-16 619.25,-16 649.25,-16 649.25,-16 655.25,-16 661.25,-22 661.25,-28 661.25,-28 661.25,-40 661.25,-40 661.25,-46 655.25,-52 649.25,-52"/>
<text xml:space="preserve" text-anchor="middle" x="634.25" y="-30.5" font-family="Arial" font-size="10.00" fill="#1a1a1a">graphic</text>
</g>
<!-- attr_0 -->
<g id="node6" class="node">
<title>attr_0</title>
<path fill="#c7b8e6" stroke="#7f8c8d" stroke-width="1.2" d="M817.75,-52C817.75,-52 716.25,-52 716.25,-52 710.25,-52 704.25,-46 704.25,-40 704.25,-40 704.25,-28 704.25,-28 704.25,-22 710.25,-16 716.25,-16 716.25,-16 817.75,-16 817.75,-16 823.75,-16 829.75,-22 829.75,-28 829.75,-28 829.75,-40 829.75,-40 829.75,-46 823.75,-52 817.75,-52"/>
<text xml:space="preserve" text-anchor="middle" x="767" y="-30.5" font-family="Arial" font-size="10.00" fill="#1a1a1a">(+) bottom left placement</text>
</g>
<!-- unknown.graphic&#45;&gt;attr_0 -->
<g id="edge1" class="edge">
<title>unknown.graphic&#45;&gt;attr_0</title>
<path fill="none" stroke="#aaaaaa" d="M662.02,-34C671.92,-34 683.65,-34 695.61,-34"/>
<polygon fill="#aaaaaa" stroke="#aaaaaa" points="695.39,-36.45 702.39,-34 695.39,-31.55 695.39,-36.45"/>
</g>
<!-- unknown.color_contrast -->
<g id="node2" class="node">
<title>unknown.color_contrast</title>
<path fill="#b8e6b8" stroke="#2c3e50" stroke-width="1.8" d="M63.25,-156C63.25,-156 12,-156 12,-156 6,-156 0,-150 0,-144 0,-144 0,-132 0,-132 0,-126 6,-120 12,-120 12,-120 63.25,-120 63.25,-120 69.25,-120 75.25,-126 75.25,-132 75.25,-132 75.25,-144 75.25,-144 75.25,-150 69.25,-156 63.25,-156"/>
<text xml:space="preserve" text-anchor="middle" x="37.62" y="-134.5" font-family="Arial" font-size="10.00" fill="#1a1a1a">color contrast</text>
</g>
<!-- attr_1 -->
<g id="node7" class="node">
<title>attr_1</title>
<path fill="#c7b8e6" stroke="#7f8c8d" stroke-width="1.2" d="M234.75,-253C234.75,-253 150.5,-253 150.5,-253 144.5,-253 138.5,-247 138.5,-241 138.5,-241 138.5,-229 138.5,-229 138.5,-223 144.5,-217 150.5,-217 150.5,-217 234.75,-217 234.75,-217 240.75,-217 246.75,-223 246.75,-229 246.75,-229 246.75,-241 246.75,-241 246.75,-247 240.75,-253 234.75,-253"/>
<text xml:space="preserve" text-anchor="middle" x="192.62" y="-231.5" font-family="Arial" font-size="10.00" fill="#1a1a1a">(+) low color contrast</text>
</g>
<!-- unknown.color_contrast&#45;&gt;attr_1 -->
<g id="edge2" class="edge">
<title>unknown.color_contrast&#45;&gt;attr_1</title>
<path fill="none" stroke="#aaaaaa" d="M58.42,-156.75C73.86,-170.72 96.32,-189.61 118.25,-203 124.05,-206.54 130.31,-209.89 136.64,-213"/>
<polygon fill="#aaaaaa" stroke="#aaaaaa" points="135.34,-215.1 142.72,-215.89 137.44,-210.67 135.34,-215.1"/>
</g>
<!-- attr_2 -->
<g id="node8" class="node">
<title>attr_2</title>
<path fill="#c7b8e6" stroke="#7f8c8d" stroke-width="1.2" d="M255,-188C255,-188 130.25,-188 130.25,-188 124.25,-188 118.25,-182 118.25,-176 118.25,-176 118.25,-164 118.25,-164 118.25,-158 124.25,-152 130.25,-152 130.25,-152 255,-152 255,-152 261,-152 267,-158 267,-164 267,-164 267,-176 267,-176 267,-182 261,-188 255,-188"/>
<text xml:space="preserve" text-anchor="middle" x="192.62" y="-166.5" font-family="Arial" font-size="10.00" fill="#1a1a1a">(+) unclear contrast separation</text>
</g>
<!-- unknown.color_contrast&#45;&gt;attr_2 -->
<g id="edge3" class="edge">
<title>unknown.color_contrast&#45;&gt;attr_2</title>
<path fill="none" stroke="#aaaaaa" d="M76.05,-145.83C86.33,-147.98 97.9,-150.4 109.64,-152.85"/>
<polygon fill="#aaaaaa" stroke="#aaaaaa" points="108.94,-155.21 116.29,-154.24 109.94,-150.41 108.94,-155.21"/>
</g>
<!-- rel_0 -->
<g id="node12" class="node">
<title>rel_0</title>
<path fill="#f5b8b8" stroke="#d46a6a" stroke-width="1.2" d="M226.12,-123C226.12,-123 159.12,-123 159.12,-123 153.12,-123 147.12,-117 147.12,-111 147.12,-111 147.12,-99 147.12,-99 147.12,-93 153.12,-87 159.12,-87 159.12,-87 226.12,-87 226.12,-87 232.12,-87 238.12,-93 238.12,-99 238.12,-99 238.12,-111 238.12,-111 238.12,-117 232.12,-123 226.12,-123"/>
<text xml:space="preserve" text-anchor="middle" x="192.62" y="-101.5" font-family="Arial" font-size="10.00" fill="#8b0000">reduces clarity of</text>
</g>
<!-- unknown.color_contrast&#45;&gt;rel_0 -->
<g id="edge7" class="edge">
<title>unknown.color_contrast&#45;&gt;rel_0</title>
<path fill="none" stroke="#d46a6a" stroke-width="1.5" d="M76.05,-129.93C94.29,-125.99 116.58,-121.19 136.7,-116.85"/>
<polygon fill="#d46a6a" stroke="#d46a6a" stroke-width="1.5" points="137.24,-119.6 144.47,-115.17 136.06,-114.12 137.24,-119.6"/>
</g>
<!-- rel_3 -->
<g id="node15" class="node">
<title>rel_3</title>
<path fill="#f5b8b8" stroke="#d46a6a" stroke-width="1.2" d="M360.88,-36C360.88,-36 329.12,-36 329.12,-36 323.12,-36 317.12,-30 317.12,-24 317.12,-24 317.12,-12 317.12,-12 317.12,-6 323.12,0 329.12,0 329.12,0 360.88,0 360.88,0 366.88,0 372.88,-6 372.88,-12 372.88,-12 372.88,-24 372.88,-24 372.88,-30 366.88,-36 360.88,-36"/>
<text xml:space="preserve" text-anchor="middle" x="345" y="-14.5" font-family="Arial" font-size="10.00" fill="#8b0000">obscures</text>
</g>
<!-- unknown.color_contrast&#45;&gt;rel_3 -->
<g id="edge13" class="edge">
<title>unknown.color_contrast&#45;&gt;rel_3</title>
<path fill="none" stroke="#d46a6a" stroke-width="1.5" d="M56.19,-119.32C71.27,-104.36 94.32,-83.96 118.25,-72 179.95,-41.16 260.07,-27.42 306.39,-21.7"/>
<polygon fill="#d46a6a" stroke="#d46a6a" stroke-width="1.5" points="306.7,-24.48 314.32,-20.77 306.04,-18.92 306.7,-24.48"/>
</g>
<!-- unknown.light_region -->
<g id="node3" class="node">
<title>unknown.light_region</title>
<path fill="#b8e6b8" stroke="#2c3e50" stroke-width="1.8" d="M57.25,-350C57.25,-350 18,-350 18,-350 12,-350 6,-344 6,-338 6,-338 6,-326 6,-326 6,-320 12,-314 18,-314 18,-314 57.25,-314 57.25,-314 63.25,-314 69.25,-320 69.25,-326 69.25,-326 69.25,-338 69.25,-338 69.25,-344 63.25,-350 57.25,-350"/>
<text xml:space="preserve" text-anchor="middle" x="37.62" y="-328.5" font-family="Arial" font-size="10.00" fill="#1a1a1a">light region</text>
</g>
<!-- attr_3 -->
<g id="node9" class="node">
<title>attr_3</title>
<path fill="#c7b8e6" stroke="#7f8c8d" stroke-width="1.2" d="M237.75,-383C237.75,-383 147.5,-383 147.5,-383 141.5,-383 135.5,-377 135.5,-371 135.5,-371 135.5,-359 135.5,-359 135.5,-353 141.5,-347 147.5,-347 147.5,-347 237.75,-347 237.75,-347 243.75,-347 249.75,-353 249.75,-359 249.75,-359 249.75,-371 249.75,-371 249.75,-377 243.75,-383 237.75,-383"/>
<text xml:space="preserve" text-anchor="middle" x="192.62" y="-361.5" font-family="Arial" font-size="10.00" fill="#1a1a1a">(+) indistinct from dark</text>
</g>
<!-- unknown.light_region&#45;&gt;attr_3 -->
<g id="edge4" class="edge">
<title>unknown.light_region&#45;&gt;attr_3</title>
<path fill="none" stroke="#aaaaaa" d="M69.96,-338.76C86.4,-342.3 107.18,-346.79 126.89,-351.04"/>
<polygon fill="#aaaaaa" stroke="#aaaaaa" points="126.13,-353.38 133.49,-352.46 127.16,-348.59 126.13,-353.38"/>
</g>
<!-- rel_1 -->
<g id="node13" class="node">
<title>rel_1</title>
<path fill="#f5b8b8" stroke="#d46a6a" stroke-width="1.2" d="M235.88,-318C235.88,-318 149.38,-318 149.38,-318 143.38,-318 137.38,-312 137.38,-306 137.38,-306 137.38,-294 137.38,-294 137.38,-288 143.38,-282 149.38,-282 149.38,-282 235.88,-282 235.88,-282 241.88,-282 247.88,-288 247.88,-294 247.88,-294 247.88,-306 247.88,-306 247.88,-312 241.88,-318 235.88,-318"/>
<text xml:space="preserve" text-anchor="middle" x="192.62" y="-296.5" font-family="Arial" font-size="10.00" fill="#8b0000">poorly separated from</text>
</g>
<!-- unknown.light_region&#45;&gt;rel_1 -->
<g id="edge9" class="edge">
<title>unknown.light_region&#45;&gt;rel_1</title>
<path fill="none" stroke="#d46a6a" stroke-width="1.5" d="M69.96,-325.45C86.41,-322.01 107.21,-317.66 126.93,-313.53"/>
<polygon fill="#d46a6a" stroke="#d46a6a" stroke-width="1.5" points="127.33,-316.31 134.59,-311.93 126.18,-310.83 127.33,-316.31"/>
</g>
<!-- unknown.dark_region -->
<g id="node4" class="node">
<title>unknown.dark_region</title>
<path fill="#b8e6b8" stroke="#2c3e50" stroke-width="1.8" d="M365,-318C365,-318 325,-318 325,-318 319,-318 313,-312 313,-306 313,-306 313,-294 313,-294 313,-288 319,-282 325,-282 325,-282 365,-282 365,-282 371,-282 377,-288 377,-294 377,-294 377,-306 377,-306 377,-312 371,-318 365,-318"/>
<text xml:space="preserve" text-anchor="middle" x="345" y="-296.5" font-family="Arial" font-size="10.00" fill="#1a1a1a">dark region</text>
</g>
<!-- unknown.color_pattern -->
<g id="node5" class="node">
<title>unknown.color_pattern</title>
<path fill="#b8e6b8" stroke="#2c3e50" stroke-width="1.8" d="M368,-132C368,-132 322,-132 322,-132 316,-132 310,-126 310,-120 310,-120 310,-108 310,-108 310,-102 316,-96 322,-96 322,-96 368,-96 368,-96 374,-96 380,-102 380,-108 380,-108 380,-120 380,-120 380,-126 374,-132 368,-132"/>
<text xml:space="preserve" text-anchor="middle" x="345" y="-110.5" font-family="Arial" font-size="10.00" fill="#1a1a1a">color pattern</text>
</g>
<!-- attr_4 -->
<g id="node10" class="node">
<title>attr_4</title>
<path fill="#c7b8e6" stroke="#7f8c8d" stroke-width="1.2" d="M528.25,-213C528.25,-213 459,-213 459,-213 453,-213 447,-207 447,-201 447,-201 447,-189 447,-189 447,-183 453,-177 459,-177 459,-177 528.25,-177 528.25,-177 534.25,-177 540.25,-183 540.25,-189 540.25,-189 540.25,-201 540.25,-201 540.25,-207 534.25,-213 528.25,-213"/>
<text xml:space="preserve" text-anchor="middle" x="493.62" y="-191.5" font-family="Arial" font-size="10.00" fill="#1a1a1a">(+) hard to look at</text>
</g>
<!-- unknown.color_pattern&#45;&gt;attr_4 -->
<g id="edge5" class="edge">
<title>unknown.color_pattern&#45;&gt;attr_4</title>
<path fill="none" stroke="#aaaaaa" d="M374.42,-132.81C388.75,-142.01 406.55,-153.01 423,-162 429.64,-165.63 436.74,-169.26 443.78,-172.72"/>
<polygon fill="#aaaaaa" stroke="#aaaaaa" points="442.64,-174.89 450,-175.74 444.77,-170.48 442.64,-174.89"/>
</g>
<!-- attr_5 -->
<g id="node11" class="node">
<title>attr_5</title>
<path fill="#c7b8e6" stroke="#7f8c8d" stroke-width="1.2" d="M552.25,-148C552.25,-148 435,-148 435,-148 429,-148 423,-142 423,-136 423,-136 423,-124 423,-124 423,-118 429,-112 435,-112 435,-112 552.25,-112 552.25,-112 558.25,-112 564.25,-118 564.25,-124 564.25,-124 564.25,-136 564.25,-136 564.25,-142 558.25,-148 552.25,-148"/>
<text xml:space="preserve" text-anchor="middle" x="493.62" y="-126.5" font-family="Arial" font-size="10.00" fill="#1a1a1a">(+) difficult color differentiatio</text>
</g>
<!-- unknown.color_pattern&#45;&gt;attr_5 -->
<g id="edge6" class="edge">
<title>unknown.color_pattern&#45;&gt;attr_5</title>
<path fill="none" stroke="#aaaaaa" d="M380.75,-117.79C391,-118.91 402.66,-120.18 414.49,-121.47"/>
<polygon fill="#aaaaaa" stroke="#aaaaaa" points="413.96,-123.88 421.18,-122.2 414.49,-119.01 413.96,-123.88"/>
</g>
<!-- rel_2 -->
<g id="node14" class="node">
<title>rel_2</title>
<path fill="#f5b8b8" stroke="#d46a6a" stroke-width="1.2" d="M530.12,-83C530.12,-83 457.12,-83 457.12,-83 451.12,-83 445.12,-77 445.12,-71 445.12,-71 445.12,-59 445.12,-59 445.12,-53 451.12,-47 457.12,-47 457.12,-47 530.12,-47 530.12,-47 536.12,-47 542.12,-53 542.12,-59 542.12,-59 542.12,-71 542.12,-71 542.12,-77 536.12,-83 530.12,-83"/>
<text xml:space="preserve" text-anchor="middle" x="493.62" y="-61.5" font-family="Arial" font-size="10.00" fill="#8b0000">increases effort for</text>
</g>
<!-- unknown.color_pattern&#45;&gt;rel_2 -->
<g id="edge11" class="edge">
<title>unknown.color_pattern&#45;&gt;rel_2</title>
<path fill="none" stroke="#d46a6a" stroke-width="1.5" d="M380.75,-102.39C396.9,-96.99 416.54,-90.43 434.83,-84.31"/>
<polygon fill="#d46a6a" stroke="#d46a6a" stroke-width="1.5" points="435.68,-86.98 442.38,-81.79 433.91,-81.67 435.68,-86.98"/>
</g>
<!-- rel_0&#45;&gt;unknown.color_pattern -->
<g id="edge8" class="edge">
<title>rel_0&#45;&gt;unknown.color_pattern</title>
<path fill="none" stroke="#d46a6a" stroke-width="1.5" d="M238.34,-107.68C257.56,-108.83 279.99,-110.17 299.22,-111.32"/>
<polygon fill="#d46a6a" stroke="#d46a6a" stroke-width="1.5" points="298.83,-114.1 306.98,-111.78 299.16,-108.51 298.83,-114.1"/>
</g>
<!-- rel_1&#45;&gt;unknown.dark_region -->
<g id="edge10" class="edge">
<title>rel_1&#45;&gt;unknown.dark_region</title>
<path fill="none" stroke="#d46a6a" stroke-width="1.5" d="M248.34,-300C266.14,-300 285.6,-300 302.3,-300"/>
<polygon fill="#d46a6a" stroke="#d46a6a" stroke-width="1.5" points="302.02,-302.8 310.02,-300 302.02,-297.2 302.02,-302.8"/>
</g>
<!-- rel_2&#45;&gt;unknown.graphic -->
<g id="edge12" class="edge">
<title>rel_2&#45;&gt;unknown.graphic</title>
<path fill="none" stroke="#d46a6a" stroke-width="1.5" d="M542.72,-54.24C560.46,-50.28 580.26,-45.85 596.81,-42.15"/>
<polygon fill="#d46a6a" stroke="#d46a6a" stroke-width="1.5" points="597.23,-44.92 604.43,-40.45 596.01,-39.46 597.23,-44.92"/>
</g>
<!-- rel_3&#45;&gt;unknown.graphic -->
<g id="edge14" class="edge">
<title>rel_3&#45;&gt;unknown.graphic</title>
<path fill="none" stroke="#d46a6a" stroke-width="1.5" d="M373.28,-19.52C425.2,-22.41 538.24,-28.71 596.66,-31.96"/>
<polygon fill="#d46a6a" stroke="#d46a6a" stroke-width="1.5" points="596.16,-34.74 604.3,-32.39 596.47,-29.15 596.16,-34.74"/>
</g>
</g>
</svg>
