<?xml version="1.0" encoding="UTF-8" standalone="no"?>
<!DOCTYPE svg PUBLIC "-//W3C//DTD SVG 1.1//EN"
 "http://www.w3.org/Graphics/SVG/1.1/DTD/svg11.dtd">
<!-- Generated by graphviz version 14.1.5 (20260411.2331)
 -->
<!-- Title: SciVisJ.980.12(2).png Pages: 1 -->
<svg width="526pt" height="635pt"
 viewBox="0.00 0.00 526.00 635.00" xmlns="http://www.w3.org/2000/svg" xmlns:xlink="http://www.w3.org/1999/xlink">
<g id="graph0" class="graph" transform="scale(1 1) rotate(0) translate(4 631.25)">
<title>SciVisJ.980.12(2).png</title>
<polygon fill="white" stroke="none" points="-4,4 -4,-631.25 522.25,-631.25 522.25,4 -4,4"/>
<text xml:space="preserve" text-anchor="start" x="190.12" y="-606.95" font-family="Arial" font-weight="bold" font-size="14.00">SciVisJ.980.12(2).png</text>
<text xml:space="preserve" text-anchor="start" x="213" y="-587" font-family="Arial" font-size="11.00">Glyph &#160;| &#160;VC = 0.77</text>
<path fill="#b8e6b8" stroke="none" d="M49.75,-562C49.75,-562 57.75,-562 57.75,-562 60.75,-562 63.75,-565 63.75,-568 63.75,-568 63.75,-574 63.75,-574 63.75,-577 60.75,-580 57.75,-580 57.75,-580 49.75,-580 49.75,-580 46.75,-580 43.75,-577 43.75,-574 43.75,-574 43.75,-568 43.75,-568 43.75,-565 46.75,-562 49.75,-562"/>
<path fill="none" stroke="black" d="M49.75,-562C49.75,-562 57.75,-562 57.75,-562 60.75,-562 63.75,-565 63.75,-568 63.75,-568 63.75,-574 63.75,-574 63.75,-577 60.75,-580 57.75,-580 57.75,-580 49.75,-580 49.75,-580 46.75,-580 43.75,-577 43.75,-574 43.75,-574 43.75,-568 43.75,-568 43.75,-565 46.75,-562 49.75,-562"/>
<text xml:space="preserve" text-anchor="start" x="52.25" y="-567.25" font-family="Arial" font-size="10.00"> </text>
<text xml:space="preserve" text-anchor="start" x="67.75" y="-567.25" font-family="Arial" font-size="10.00">Object</text>
<path fill="#c7b8e6" stroke="none" d="M106.25,-562C106.25,-562 114.25,-562 114.25,-562 117.25,-562 120.25,-565 120.25,-568 120.25,-568 120.25,-574 120.25,-574 120.25,-577 117.25,-580 114.25,-580 114.25,-580 106.25,-580 106.25,-580 103.25,-580 100.25,-577 100.25,-574 100.25,-574 100.25,-568 100.25,-568 100.25,-565 103.25,-562 106.25,-562"/>
<path fill="none" stroke="black" d="M106.25,-562C106.25,-562 114.25,-562 114.25,-562 117.25,-562 120.25,-565 120.25,-568 120.25,-568 120.25,-574 120.25,-574 120.25,-577 117.25,-580 114.25,-580 114.25,-580 106.25,-580 106.25,-580 103.25,-580 100.25,-577 100.25,-574 100.25,-574 100.25,-568 100.25,-568 100.25,-565 103.25,-562 106.25,-562"/>
<text xml:space="preserve" text-anchor="start" x="108.75" y="-567.25" font-family="Arial" font-size="10.00"> </text>
<text xml:space="preserve" text-anchor="start" x="124.25" y="-567.25" font-family="Arial" font-size="10.00">Attribute</text>
<path fill="#f5b8b8" stroke="none" d="M171,-562C171,-562 179,-562 179,-562 182,-562 185,-565 185,-568 185,-568 185,-574 185,-574 185,-577 182,-580 179,-580 179,-580 171,-580 171,-580 168,-580 165,-577 165,-574 165,-574 165,-568 165,-568 165,-565 168,-562 171,-562"/>
<path fill="none" stroke="black" d="M171,-562C171,-562 179,-562 179,-562 182,-562 185,-565 185,-568 185,-568 185,-574 185,-574 185,-577 182,-580 179,-580 179,-580 171,-580 171,-580 168,-580 165,-577 165,-574 165,-574 165,-568 165,-568 165,-565 168,-562 171,-562"/>
<text xml:space="preserve" text-anchor="start" x="173.5" y="-567.25" font-family="Arial" font-size="10.00"> </text>
<text xml:space="preserve" text-anchor="start" x="189" y="-567.25" font-family="Arial" font-size="10.00">Relationship</text>
<text xml:space="preserve" text-anchor="start" x="249" y="-568.5" font-family="Arial" font-weight="bold" font-size="10.00">(+)</text>
<text xml:space="preserve" text-anchor="start" x="261" y="-568.5" font-family="Arial" font-size="10.00"> increases complexity</text>
<text xml:space="preserve" text-anchor="start" x="362.25" y="-568.5" font-family="Arial" font-weight="bold" font-size="10.00">(−)</text>
<text xml:space="preserve" text-anchor="start" x="374.25" y="-568.5" font-family="Arial" font-size="10.00"> decreases complexity</text>
<!-- text.title -->
<g id="node1" class="node">
<title>text.title</title>
<path fill="#b8e6b8" stroke="#2c3e50" stroke-width="1.8" d="M43.62,-458C43.62,-458 13.62,-458 13.62,-458 7.62,-458 1.62,-452 1.62,-446 1.62,-446 1.62,-434 1.62,-434 1.62,-428 7.62,-422 13.62,-422 13.62,-422 43.62,-422 43.62,-422 49.62,-422 55.62,-428 55.62,-434 55.62,-434 55.62,-446 55.62,-446 55.62,-452 49.62,-458 43.62,-458"/>
<text xml:space="preserve" text-anchor="middle" x="28.62" y="-436.5" font-family="Arial" font-size="10.00" fill="#1a1a1a">title</text>
</g>
<!-- attr_0 -->
<g id="node7" class="node">
<title>attr_0</title>
<path fill="#c7b8e6" stroke="#7f8c8d" stroke-width="1.2" d="M215.62,-491C215.62,-491 117.88,-491 117.88,-491 111.88,-491 105.88,-485 105.88,-479 105.88,-479 105.88,-467 105.88,-467 105.88,-461 111.88,-455 117.88,-455 117.88,-455 215.62,-455 215.62,-455 221.62,-455 227.62,-461 227.62,-467 227.62,-467 227.62,-479 227.62,-479 227.62,-485 221.62,-491 215.62,-491"/>
<text xml:space="preserve" text-anchor="middle" x="166.75" y="-469.5" font-family="Arial" font-size="10.00" fill="#1a1a1a">(+) unclear topic context</text>
</g>
<!-- text.title&#45;&gt;attr_0 -->
<g id="edge1" class="edge">
<title>text.title&#45;&gt;attr_0</title>
<path fill="none" stroke="#aaaaaa" d="M56.52,-446.52C68.35,-449.39 82.84,-452.9 97.36,-456.42"/>
<polygon fill="#aaaaaa" stroke="#aaaaaa" points="96.55,-458.75 103.93,-458.01 97.71,-453.98 96.55,-458.75"/>
</g>
<!-- rel_0 -->
<g id="node13" class="node">
<title>rel_0</title>
<path fill="#f5b8b8" stroke="#d46a6a" stroke-width="1.2" d="M186.75,-426C186.75,-426 146.75,-426 146.75,-426 140.75,-426 134.75,-420 134.75,-414 134.75,-414 134.75,-402 134.75,-402 134.75,-396 140.75,-390 146.75,-390 146.75,-390 186.75,-390 186.75,-390 192.75,-390 198.75,-396 198.75,-402 198.75,-402 198.75,-414 198.75,-414 198.75,-420 192.75,-426 186.75,-426"/>
<text xml:space="preserve" text-anchor="middle" x="166.75" y="-404.5" font-family="Arial" font-size="10.00" fill="#8b0000">determines</text>
</g>
<!-- text.title&#45;&gt;rel_0 -->
<g id="edge7" class="edge">
<title>text.title&#45;&gt;rel_0</title>
<path fill="none" stroke="#d46a6a" stroke-width="1.5" d="M56.52,-433.68C76,-429.1 102.7,-422.82 124.82,-417.62"/>
<polygon fill="#d46a6a" stroke="#d46a6a" stroke-width="1.5" points="125.27,-420.39 132.41,-415.84 123.99,-414.94 125.27,-420.39"/>
</g>
<!-- property.color -->
<g id="node2" class="node">
<title>property.color</title>
<path fill="#b8e6b8" stroke="#2c3e50" stroke-width="1.8" d="M43.62,-328C43.62,-328 13.62,-328 13.62,-328 7.62,-328 1.62,-322 1.62,-316 1.62,-316 1.62,-304 1.62,-304 1.62,-298 7.62,-292 13.62,-292 13.62,-292 43.62,-292 43.62,-292 49.62,-292 55.62,-298 55.62,-304 55.62,-304 55.62,-316 55.62,-316 55.62,-322 49.62,-328 43.62,-328"/>
<text xml:space="preserve" text-anchor="middle" x="28.62" y="-306.5" font-family="Arial" font-size="10.00" fill="#1a1a1a">color</text>
</g>
<!-- attr_1 -->
<g id="node8" class="node">
<title>attr_1</title>
<path fill="#c7b8e6" stroke="#7f8c8d" stroke-width="1.2" d="M214.12,-361C214.12,-361 119.38,-361 119.38,-361 113.38,-361 107.38,-355 107.38,-349 107.38,-349 107.38,-337 107.38,-337 107.38,-331 113.38,-325 119.38,-325 119.38,-325 214.12,-325 214.12,-325 220.12,-325 226.12,-331 226.12,-337 226.12,-337 226.12,-349 226.12,-349 226.12,-355 220.12,-361 214.12,-361"/>
<text xml:space="preserve" text-anchor="middle" x="166.75" y="-339.5" font-family="Arial" font-size="10.00" fill="#1a1a1a">(−) distinct color variety</text>
</g>
<!-- property.color&#45;&gt;attr_1 -->
<g id="edge2" class="edge">
<title>property.color&#45;&gt;attr_1</title>
<path fill="none" stroke="#aaaaaa" d="M56.52,-316.52C68.68,-319.47 83.65,-323.1 98.56,-326.71"/>
<polygon fill="#aaaaaa" stroke="#aaaaaa" points="97.97,-329.09 105.35,-328.36 99.12,-324.33 97.97,-329.09"/>
</g>
<!-- rel_1 -->
<g id="node14" class="node">
<title>rel_1</title>
<path fill="#f5b8b8" stroke="#d46a6a" stroke-width="1.2" d="M189,-296C189,-296 144.5,-296 144.5,-296 138.5,-296 132.5,-290 132.5,-284 132.5,-284 132.5,-272 132.5,-272 132.5,-266 138.5,-260 144.5,-260 144.5,-260 189,-260 189,-260 195,-260 201,-266 201,-272 201,-272 201,-284 201,-284 201,-290 195,-296 189,-296"/>
<text xml:space="preserve" text-anchor="middle" x="166.75" y="-274.5" font-family="Arial" font-size="10.00" fill="#8b0000">encodes via</text>
</g>
<!-- property.color&#45;&gt;rel_1 -->
<g id="edge9" class="edge">
<title>property.color&#45;&gt;rel_1</title>
<path fill="none" stroke="#d46a6a" stroke-width="1.5" d="M56.52,-303.68C75.18,-299.29 100.46,-293.35 122,-288.29"/>
<polygon fill="#d46a6a" stroke="#d46a6a" stroke-width="1.5" points="122.55,-291.03 129.7,-286.48 121.27,-285.58 122.55,-291.03"/>
</g>
<!-- text.label -->
<g id="node3" class="node">
<title>text.label</title>
<path fill="#b8e6b8" stroke="#2c3e50" stroke-width="1.8" d="M43.62,-198C43.62,-198 13.62,-198 13.62,-198 7.62,-198 1.62,-192 1.62,-186 1.62,-186 1.62,-174 1.62,-174 1.62,-168 7.62,-162 13.62,-162 13.62,-162 43.62,-162 43.62,-162 49.62,-162 55.62,-168 55.62,-174 55.62,-174 55.62,-186 55.62,-186 55.62,-192 49.62,-198 43.62,-198"/>
<text xml:space="preserve" text-anchor="middle" x="28.62" y="-176.5" font-family="Arial" font-size="10.00" fill="#1a1a1a">text</text>
</g>
<!-- attr_2 -->
<g id="node9" class="node">
<title>attr_2</title>
<path fill="#c7b8e6" stroke="#7f8c8d" stroke-width="1.2" d="M210.38,-231C210.38,-231 123.12,-231 123.12,-231 117.12,-231 111.12,-225 111.12,-219 111.12,-219 111.12,-207 111.12,-207 111.12,-201 117.12,-195 123.12,-195 123.12,-195 210.38,-195 210.38,-195 216.38,-195 222.38,-201 222.38,-207 222.38,-207 222.38,-219 222.38,-219 222.38,-225 216.38,-231 210.38,-231"/>
<text xml:space="preserve" text-anchor="middle" x="166.75" y="-209.5" font-family="Arial" font-size="10.00" fill="#1a1a1a">(−) clear readable text</text>
</g>
<!-- text.label&#45;&gt;attr_2 -->
<g id="edge3" class="edge">
<title>text.label&#45;&gt;attr_2</title>
<path fill="none" stroke="#aaaaaa" d="M56.52,-186.52C69.84,-189.75 86.52,-193.79 102.81,-197.74"/>
<polygon fill="#aaaaaa" stroke="#aaaaaa" points="101.91,-200.04 109.29,-199.31 103.07,-195.28 101.91,-200.04"/>
</g>
<!-- rel_2 -->
<g id="node15" class="node">
<title>rel_2</title>
<path fill="#f5b8b8" stroke="#d46a6a" stroke-width="1.2" d="M216.75,-166C216.75,-166 116.75,-166 116.75,-166 110.75,-166 104.75,-160 104.75,-154 104.75,-154 104.75,-142 104.75,-142 104.75,-136 110.75,-130 116.75,-130 116.75,-130 216.75,-130 216.75,-130 222.75,-130 228.75,-136 228.75,-142 228.75,-142 228.75,-154 228.75,-154 228.75,-160 222.75,-166 216.75,-166"/>
<text xml:space="preserve" text-anchor="middle" x="166.75" y="-144.5" font-family="Arial" font-size="10.00" fill="#8b0000">supports interpretation of</text>
</g>
<!-- text.label&#45;&gt;rel_2 -->
<g id="edge11" class="edge">
<title>text.label&#45;&gt;rel_2</title>
<path fill="none" stroke="#d46a6a" stroke-width="1.5" d="M56.52,-173.68C67.55,-171.08 80.9,-167.95 94.42,-164.77"/>
<polygon fill="#d46a6a" stroke="#d46a6a" stroke-width="1.5" points="94.91,-167.53 102.06,-162.97 93.63,-162.08 94.91,-167.53"/>
</g>
<!-- unknown.glyph -->
<g id="node4" class="node">
<title>unknown.glyph</title>
<path fill="#b8e6b8" stroke="#2c3e50" stroke-width="1.8" d="M318.25,-231C318.25,-231 288.25,-231 288.25,-231 282.25,-231 276.25,-225 276.25,-219 276.25,-219 276.25,-207 276.25,-207 276.25,-201 282.25,-195 288.25,-195 288.25,-195 318.25,-195 318.25,-195 324.25,-195 330.25,-201 330.25,-207 330.25,-207 330.25,-219 330.25,-219 330.25,-225 324.25,-231 318.25,-231"/>
<text xml:space="preserve" text-anchor="middle" x="303.25" y="-209.5" font-family="Arial" font-size="10.00" fill="#1a1a1a">glyph</text>
</g>
<!-- attr_3 -->
<g id="node10" class="node">
<title>attr_3</title>
<path fill="#c7b8e6" stroke="#7f8c8d" stroke-width="1.2" d="M506.25,-231C506.25,-231 385.25,-231 385.25,-231 379.25,-231 373.25,-225 373.25,-219 373.25,-219 373.25,-207 373.25,-207 373.25,-201 379.25,-195 385.25,-195 385.25,-195 506.25,-195 506.25,-195 512.25,-195 518.25,-201 518.25,-207 518.25,-207 518.25,-219 518.25,-219 518.25,-225 512.25,-231 506.25,-231"/>
<text xml:space="preserve" text-anchor="middle" x="445.75" y="-209.5" font-family="Arial" font-size="10.00" fill="#1a1a1a">(+) requires domain familiarity</text>
</g>
<!-- unknown.glyph&#45;&gt;attr_3 -->
<g id="edge4" class="edge">
<title>unknown.glyph&#45;&gt;attr_3</title>
<path fill="none" stroke="#aaaaaa" d="M331.01,-213C340.78,-213 352.39,-213 364.41,-213"/>
<polygon fill="#aaaaaa" stroke="#aaaaaa" points="364.27,-215.45 371.27,-213 364.27,-210.55 364.27,-215.45"/>
</g>
<!-- furniture.legend -->
<g id="node5" class="node">
<title>furniture.legend</title>
<path fill="#b8e6b8" stroke="#2c3e50" stroke-width="1.8" d="M43.62,-556C43.62,-556 13.62,-556 13.62,-556 7.62,-556 1.62,-550 1.62,-544 1.62,-544 1.62,-532 1.62,-532 1.62,-526 7.62,-520 13.62,-520 13.62,-520 43.62,-520 43.62,-520 49.62,-520 55.62,-526 55.62,-532 55.62,-532 55.62,-544 55.62,-544 55.62,-550 49.62,-556 43.62,-556"/>
<text xml:space="preserve" text-anchor="middle" x="28.62" y="-534.5" font-family="Arial" font-size="10.00" fill="#1a1a1a">legend</text>
</g>
<!-- attr_4 -->
<g id="node11" class="node">
<title>attr_4</title>
<path fill="#c7b8e6" stroke="#7f8c8d" stroke-width="1.2" d="M221.25,-556C221.25,-556 112.25,-556 112.25,-556 106.25,-556 100.25,-550 100.25,-544 100.25,-544 100.25,-532 100.25,-532 100.25,-526 106.25,-520 112.25,-520 112.25,-520 221.25,-520 221.25,-520 227.25,-520 233.25,-526 233.25,-532 233.25,-532 233.25,-544 233.25,-544 233.25,-550 227.25,-556 221.25,-556"/>
<text xml:space="preserve" text-anchor="middle" x="166.75" y="-534.5" font-family="Arial" font-size="10.00" fill="#1a1a1a">(−) color arrangement clear</text>
</g>
<!-- furniture.legend&#45;&gt;attr_4 -->
<g id="edge5" class="edge">
<title>furniture.legend&#45;&gt;attr_4</title>
<path fill="none" stroke="#aaaaaa" d="M56.52,-538C66.75,-538 78.97,-538 91.48,-538"/>
<polygon fill="#aaaaaa" stroke="#aaaaaa" points="91.2,-540.45 98.2,-538 91.2,-535.55 91.2,-540.45"/>
</g>
<!-- text.axis_label -->
<g id="node6" class="node">
<title>text.axis_label</title>
<path fill="#b8e6b8" stroke="#2c3e50" stroke-width="1.8" d="M45.25,-68C45.25,-68 12,-68 12,-68 6,-68 0,-62 0,-56 0,-56 0,-44 0,-44 0,-38 6,-32 12,-32 12,-32 45.25,-32 45.25,-32 51.25,-32 57.25,-38 57.25,-44 57.25,-44 57.25,-56 57.25,-56 57.25,-62 51.25,-68 45.25,-68"/>
<text xml:space="preserve" text-anchor="middle" x="28.62" y="-46.5" font-family="Arial" font-size="10.00" fill="#1a1a1a">axis label</text>
</g>
<!-- attr_5 -->
<g id="node12" class="node">
<title>attr_5</title>
<path fill="#c7b8e6" stroke="#7f8c8d" stroke-width="1.2" d="M212.25,-101C212.25,-101 121.25,-101 121.25,-101 115.25,-101 109.25,-95 109.25,-89 109.25,-89 109.25,-77 109.25,-77 109.25,-71 115.25,-65 121.25,-65 121.25,-65 212.25,-65 212.25,-65 218.25,-65 224.25,-71 224.25,-77 224.25,-77 224.25,-89 224.25,-89 224.25,-95 218.25,-101 212.25,-101"/>
<text xml:space="preserve" text-anchor="middle" x="166.75" y="-79.5" font-family="Arial" font-size="10.00" fill="#1a1a1a">(+) label clarity needed</text>
</g>
<!-- text.axis_label&#45;&gt;attr_5 -->
<g id="edge6" class="edge">
<title>text.axis_label&#45;&gt;attr_5</title>
<path fill="none" stroke="#aaaaaa" d="M57.83,-56.84C70.36,-59.88 85.68,-63.59 100.79,-67.25"/>
<polygon fill="#aaaaaa" stroke="#aaaaaa" points="99.81,-69.54 107.19,-68.8 100.97,-64.77 99.81,-69.54"/>
</g>
<!-- rel_3 -->
<g id="node16" class="node">
<title>rel_3</title>
<path fill="#f5b8b8" stroke="#d46a6a" stroke-width="1.2" d="M208.5,-36C208.5,-36 125,-36 125,-36 119,-36 113,-30 113,-24 113,-24 113,-12 113,-12 113,-6 119,0 125,0 125,0 208.5,0 208.5,0 214.5,0 220.5,-6 220.5,-12 220.5,-12 220.5,-24 220.5,-24 220.5,-30 214.5,-36 208.5,-36"/>
<text xml:space="preserve" text-anchor="middle" x="166.75" y="-14.5" font-family="Arial" font-size="10.00" fill="#8b0000">requires expertise for</text>
</g>
<!-- text.axis_label&#45;&gt;rel_3 -->
<g id="edge13" class="edge">
<title>text.axis_label&#45;&gt;rel_3</title>
<path fill="none" stroke="#d46a6a" stroke-width="1.5" d="M57.83,-43.37C70.92,-40.29 87.05,-36.5 102.81,-32.8"/>
<polygon fill="#d46a6a" stroke="#d46a6a" stroke-width="1.5" points="103.19,-35.58 110.34,-31.03 101.91,-30.13 103.19,-35.58"/>
</g>
<!-- rel_0&#45;&gt;unknown.glyph -->
<g id="edge8" class="edge">
<title>rel_0&#45;&gt;unknown.glyph</title>
<path fill="none" stroke="#d46a6a" stroke-width="1.5" d="M199.02,-398.09C210.97,-393.03 223.94,-385.83 233.25,-376 269.7,-337.52 288.36,-276.91 296.65,-241.45"/>
<polygon fill="#d46a6a" stroke="#d46a6a" stroke-width="1.5" points="299.31,-242.36 298.32,-233.94 293.85,-241.14 299.31,-242.36"/>
</g>
<!-- rel_1&#45;&gt;unknown.glyph -->
<g id="edge10" class="edge">
<title>rel_1&#45;&gt;unknown.glyph</title>
<path fill="none" stroke="#d46a6a" stroke-width="1.5" d="M201.34,-261.77C221.09,-252.22 246.06,-240.16 266.21,-230.42"/>
<polygon fill="#d46a6a" stroke="#d46a6a" stroke-width="1.5" points="267.36,-232.97 273.35,-226.97 264.92,-227.93 267.36,-232.97"/>
</g>
<!-- rel_2&#45;&gt;unknown.glyph -->
<g id="edge12" class="edge">
<title>rel_2&#45;&gt;unknown.glyph</title>
<path fill="none" stroke="#d46a6a" stroke-width="1.5" d="M205.93,-166.45C224.93,-175.64 247.77,-186.67 266.44,-195.69"/>
<polygon fill="#d46a6a" stroke="#d46a6a" stroke-width="1.5" points="265.04,-198.13 273.46,-199.09 267.47,-193.08 265.04,-198.13"/>
</g>
<!-- rel_3&#45;&gt;unknown.glyph -->
<g id="edge14" class="edge">
<title>rel_3&#45;&gt;unknown.glyph</title>
<path fill="none" stroke="#d46a6a" stroke-width="1.5" d="M215.96,-36.45C222.29,-40.27 228.29,-44.76 233.25,-50 269.7,-88.48 288.36,-149.09 296.65,-184.55"/>
<polygon fill="#d46a6a" stroke="#d46a6a" stroke-width="1.5" points="293.85,-184.86 298.32,-192.06 299.31,-183.64 293.85,-184.86"/>
</g>
</g>
</svg>
