<?xml version="1.0" encoding="UTF-8" standalone="no"?>
<!DOCTYPE svg PUBLIC "-//W3C//DTD SVG 1.1//EN"
 "http://www.w3.org/Graphics/SVG/1.1/DTD/svg11.dtd">
<!-- Generated by graphviz version 14.1.5 (20260411.2331)
 -->
<!-- Title: SciVisJ.1005.1.png Pages: 1 -->
<svg width="556pt" height="505pt"
 viewBox="0.00 0.00 556.00 505.00" xmlns="http://www.w3.org/2000/svg" xmlns:xlink="http://www.w3.org/1999/xlink">
<g id="graph0" class="graph" transform="scale(1 1) rotate(0) translate(4 501.25)">
<title>SciVisJ.1005.1.png</title>
<polygon fill="white" stroke="none" points="-4,4 -4,-501.25 551.75,-501.25 551.75,4 -4,4"/>
<text xml:space="preserve" text-anchor="start" x="213.12" y="-476.95" font-family="Arial" font-weight="bold" font-size="14.00">SciVisJ.1005.1.png</text>
<text xml:space="preserve" text-anchor="start" x="231.5" y="-457" font-family="Arial" font-size="11.00">Grid &#160;| &#160;VC = 0.87</text>
<path fill="#b8e6b8" stroke="none" d="M64.5,-432C64.5,-432 72.5,-432 72.5,-432 75.5,-432 78.5,-435 78.5,-438 78.5,-438 78.5,-444 78.5,-444 78.5,-447 75.5,-450 72.5,-450 72.5,-450 64.5,-450 64.5,-450 61.5,-450 58.5,-447 58.5,-444 58.5,-444 58.5,-438 58.5,-438 58.5,-435 61.5,-432 64.5,-432"/>
<path fill="none" stroke="black" d="M64.5,-432C64.5,-432 72.5,-432 72.5,-432 75.5,-432 78.5,-435 78.5,-438 78.5,-438 78.5,-444 78.5,-444 78.5,-447 75.5,-450 72.5,-450 72.5,-450 64.5,-450 64.5,-450 61.5,-450 58.5,-447 58.5,-444 58.5,-444 58.5,-438 58.5,-438 58.5,-435 61.5,-432 64.5,-432"/>
<text xml:space="preserve" text-anchor="start" x="67" y="-437.25" font-family="Arial" font-size="10.00"> </text>
<text xml:space="preserve" text-anchor="start" x="82.5" y="-437.25" font-family="Arial" font-size="10.00">Object</text>
<path fill="#c7b8e6" stroke="none" d="M121,-432C121,-432 129,-432 129,-432 132,-432 135,-435 135,-438 135,-438 135,-444 135,-444 135,-447 132,-450 129,-450 129,-450 121,-450 121,-450 118,-450 115,-447 115,-444 115,-444 115,-438 115,-438 115,-435 118,-432 121,-432"/>
<path fill="none" stroke="black" d="M121,-432C121,-432 129,-432 129,-432 132,-432 135,-435 135,-438 135,-438 135,-444 135,-444 135,-447 132,-450 129,-450 129,-450 121,-450 121,-450 118,-450 115,-447 115,-444 115,-444 115,-438 115,-438 115,-435 118,-432 121,-432"/>
<text xml:space="preserve" text-anchor="start" x="123.5" y="-437.25" font-family="Arial" font-size="10.00"> </text>
<text xml:space="preserve" text-anchor="start" x="139" y="-437.25" font-family="Arial" font-size="10.00">Attribute</text>
<path fill="#f5b8b8" stroke="none" d="M185.75,-432C185.75,-432 193.75,-432 193.75,-432 196.75,-432 199.75,-435 199.75,-438 199.75,-438 199.75,-444 199.75,-444 199.75,-447 196.75,-450 193.75,-450 193.75,-450 185.75,-450 185.75,-450 182.75,-450 179.75,-447 179.75,-444 179.75,-444 179.75,-438 179.75,-438 179.75,-435 182.75,-432 185.75,-432"/>
<path fill="none" stroke="black" d="M185.75,-432C185.75,-432 193.75,-432 193.75,-432 196.75,-432 199.75,-435 199.75,-438 199.75,-438 199.75,-444 199.75,-444 199.75,-447 196.75,-450 193.75,-450 193.75,-450 185.75,-450 185.75,-450 182.75,-450 179.75,-447 179.75,-444 179.75,-444 179.75,-438 179.75,-438 179.75,-435 182.75,-432 185.75,-432"/>
<text xml:space="preserve" text-anchor="start" x="188.25" y="-437.25" font-family="Arial" font-size="10.00"> </text>
<text xml:space="preserve" text-anchor="start" x="203.75" y="-437.25" font-family="Arial" font-size="10.00">Relationship</text>
<text xml:space="preserve" text-anchor="start" x="263.75" y="-438.5" font-family="Arial" font-weight="bold" font-size="10.00">(+)</text>
<text xml:space="preserve" text-anchor="start" x="275.75" y="-438.5" font-family="Arial" font-size="10.00"> increases complexity</text>
<text xml:space="preserve" text-anchor="start" x="377" y="-438.5" font-family="Arial" font-weight="bold" font-size="10.00">(−)</text>
<text xml:space="preserve" text-anchor="start" x="389" y="-438.5" font-family="Arial" font-size="10.00"> decreases complexity</text>
<!-- unknown.background -->
<g id="node1" class="node">
<title>unknown.background</title>
<path fill="#b8e6b8" stroke="#2c3e50" stroke-width="1.8" d="M54.25,-231C54.25,-231 12,-231 12,-231 6,-231 0,-225 0,-219 0,-219 0,-207 0,-207 0,-201 6,-195 12,-195 12,-195 54.25,-195 54.25,-195 60.25,-195 66.25,-201 66.25,-207 66.25,-207 66.25,-219 66.25,-219 66.25,-225 60.25,-231 54.25,-231"/>
<text xml:space="preserve" text-anchor="middle" x="33.12" y="-209.5" font-family="Arial" font-size="10.00" fill="#1a1a1a">background</text>
</g>
<!-- attr_0 -->
<g id="node6" class="node">
<title>attr_0</title>
<path fill="#c7b8e6" stroke="#7f8c8d" stroke-width="1.2" d="M255,-296C255,-296 121.25,-296 121.25,-296 115.25,-296 109.25,-290 109.25,-284 109.25,-284 109.25,-272 109.25,-272 109.25,-266 115.25,-260 121.25,-260 121.25,-260 255,-260 255,-260 261,-260 267,-266 267,-272 267,-272 267,-284 267,-284 267,-290 261,-296 255,-296"/>
<text xml:space="preserve" text-anchor="middle" x="188.12" y="-274.5" font-family="Arial" font-size="10.00" fill="#1a1a1a">(+) excessively dark background</text>
</g>
<!-- unknown.background&#45;&gt;attr_0 -->
<g id="edge1" class="edge">
<title>unknown.background&#45;&gt;attr_0</title>
<path fill="none" stroke="#aaaaaa" d="M67.03,-227.03C80.16,-232.63 95.42,-239.12 109.25,-245 117.82,-248.64 126.93,-252.5 135.77,-256.25"/>
<polygon fill="#aaaaaa" stroke="#aaaaaa" points="134.67,-258.45 142.07,-258.92 136.58,-253.94 134.67,-258.45"/>
</g>
<!-- rel_0 -->
<g id="node12" class="node">
<title>rel_0</title>
<path fill="#f5b8b8" stroke="#d46a6a" stroke-width="1.2" d="M204,-231C204,-231 172.25,-231 172.25,-231 166.25,-231 160.25,-225 160.25,-219 160.25,-219 160.25,-207 160.25,-207 160.25,-201 166.25,-195 172.25,-195 172.25,-195 204,-195 204,-195 210,-195 216,-201 216,-207 216,-207 216,-219 216,-219 216,-225 210,-231 204,-231"/>
<text xml:space="preserve" text-anchor="middle" x="188.12" y="-209.5" font-family="Arial" font-size="10.00" fill="#8b0000">obscures</text>
</g>
<!-- unknown.background&#45;&gt;rel_0 -->
<g id="edge7" class="edge">
<title>unknown.background&#45;&gt;rel_0</title>
<path fill="none" stroke="#d46a6a" stroke-width="1.5" d="M66.95,-213C91.33,-213 124.63,-213 149.99,-213"/>
<polygon fill="#d46a6a" stroke="#d46a6a" stroke-width="1.5" points="149.7,-215.8 157.7,-213 149.7,-210.2 149.7,-215.8"/>
</g>
<!-- rel_2 -->
<g id="node14" class="node">
<title>rel_2</title>
<path fill="#f5b8b8" stroke="#d46a6a" stroke-width="1.2" d="M238.12,-166C238.12,-166 138.12,-166 138.12,-166 132.12,-166 126.12,-160 126.12,-154 126.12,-154 126.12,-142 126.12,-142 126.12,-136 132.12,-130 138.12,-130 138.12,-130 238.12,-130 238.12,-130 244.12,-130 250.12,-136 250.12,-142 250.12,-142 250.12,-154 250.12,-154 250.12,-160 244.12,-166 238.12,-166"/>
<text xml:space="preserve" text-anchor="middle" x="188.12" y="-144.5" font-family="Arial" font-size="10.00" fill="#8b0000">prevents interpretation of</text>
</g>
<!-- unknown.background&#45;&gt;rel_2 -->
<g id="edge11" class="edge">
<title>unknown.background&#45;&gt;rel_2</title>
<path fill="none" stroke="#d46a6a" stroke-width="1.5" d="M66.96,-198.37C80.08,-192.58 95.35,-185.91 109.25,-180 116.61,-176.87 124.39,-173.62 132.06,-170.43"/>
<polygon fill="#d46a6a" stroke="#d46a6a" stroke-width="1.5" points="132.92,-173.11 139.24,-167.47 130.78,-167.93 132.92,-173.11"/>
</g>
<!-- unknown.data_area -->
<g id="node2" class="node">
<title>unknown.data_area</title>
<path fill="#b8e6b8" stroke="#2c3e50" stroke-width="1.8" d="M354.5,-166C354.5,-166 322,-166 322,-166 316,-166 310,-160 310,-154 310,-154 310,-142 310,-142 310,-136 316,-130 322,-130 322,-130 354.5,-130 354.5,-130 360.5,-130 366.5,-136 366.5,-142 366.5,-142 366.5,-154 366.5,-154 366.5,-160 360.5,-166 354.5,-166"/>
<text xml:space="preserve" text-anchor="middle" x="338.25" y="-144.5" font-family="Arial" font-size="10.00" fill="#1a1a1a">data area</text>
</g>
<!-- attr_1 -->
<g id="node7" class="node">
<title>attr_1</title>
<path fill="#c7b8e6" stroke="#7f8c8d" stroke-width="1.2" d="M513.62,-199C513.62,-199 443.62,-199 443.62,-199 437.62,-199 431.62,-193 431.62,-187 431.62,-187 431.62,-175 431.62,-175 431.62,-169 437.62,-163 443.62,-163 443.62,-163 513.62,-163 513.62,-163 519.62,-163 525.62,-169 525.62,-175 525.62,-175 525.62,-187 525.62,-187 525.62,-193 519.62,-199 513.62,-199"/>
<text xml:space="preserve" text-anchor="middle" x="478.62" y="-177.5" font-family="Arial" font-size="10.00" fill="#1a1a1a">(+) no visible data</text>
</g>
<!-- unknown.data_area&#45;&gt;attr_1 -->
<g id="edge2" class="edge">
<title>unknown.data_area&#45;&gt;attr_1</title>
<path fill="none" stroke="#aaaaaa" d="M367.25,-154.68C383.28,-158.5 403.95,-163.43 423.06,-167.99"/>
<polygon fill="#aaaaaa" stroke="#aaaaaa" points="422.29,-170.32 429.67,-169.56 423.43,-165.56 422.29,-170.32"/>
</g>
<!-- attr_5 -->
<g id="node8" class="node">
<title>attr_5</title>
<path fill="#c7b8e6" stroke="#7f8c8d" stroke-width="1.2" d="M526.75,-134C526.75,-134 430.5,-134 430.5,-134 424.5,-134 418.5,-128 418.5,-122 418.5,-122 418.5,-110 418.5,-110 418.5,-104 424.5,-98 430.5,-98 430.5,-98 526.75,-98 526.75,-98 532.75,-98 538.75,-104 538.75,-110 538.75,-110 538.75,-122 538.75,-122 538.75,-128 532.75,-134 526.75,-134"/>
<text xml:space="preserve" text-anchor="middle" x="478.62" y="-112.5" font-family="Arial" font-size="10.00" fill="#1a1a1a">(+) indiscernible content</text>
</g>
<!-- unknown.data_area&#45;&gt;attr_5 -->
<g id="edge3" class="edge">
<title>unknown.data_area&#45;&gt;attr_5</title>
<path fill="none" stroke="#aaaaaa" d="M367.25,-141.52C379.69,-138.65 394.93,-135.12 410.06,-131.62"/>
<polygon fill="#aaaaaa" stroke="#aaaaaa" points="410.2,-134.11 416.47,-130.14 409.1,-129.33 410.2,-134.11"/>
</g>
<!-- property.color -->
<g id="node3" class="node">
<title>property.color</title>
<path fill="#b8e6b8" stroke="#2c3e50" stroke-width="1.8" d="M48.12,-393C48.12,-393 18.12,-393 18.12,-393 12.12,-393 6.12,-387 6.12,-381 6.12,-381 6.12,-369 6.12,-369 6.12,-363 12.12,-357 18.12,-357 18.12,-357 48.12,-357 48.12,-357 54.12,-357 60.12,-363 60.12,-369 60.12,-369 60.12,-381 60.12,-381 60.12,-387 54.12,-393 48.12,-393"/>
<text xml:space="preserve" text-anchor="middle" x="33.12" y="-371.5" font-family="Arial" font-size="10.00" fill="#1a1a1a">color</text>
</g>
<!-- attr_2 -->
<g id="node9" class="node">
<title>attr_2</title>
<path fill="#c7b8e6" stroke="#7f8c8d" stroke-width="1.2" d="M225.75,-426C225.75,-426 150.5,-426 150.5,-426 144.5,-426 138.5,-420 138.5,-414 138.5,-414 138.5,-402 138.5,-402 138.5,-396 144.5,-390 150.5,-390 150.5,-390 225.75,-390 225.75,-390 231.75,-390 237.75,-396 237.75,-402 237.75,-402 237.75,-414 237.75,-414 237.75,-420 231.75,-426 225.75,-426"/>
<text xml:space="preserve" text-anchor="middle" x="188.12" y="-404.5" font-family="Arial" font-size="10.00" fill="#1a1a1a">(+) unclear coloring</text>
</g>
<!-- property.color&#45;&gt;attr_2 -->
<g id="edge4" class="edge">
<title>property.color&#45;&gt;attr_2</title>
<path fill="none" stroke="#aaaaaa" d="M60.78,-380.75C79.77,-384.84 106.02,-390.51 129.68,-395.61"/>
<polygon fill="#aaaaaa" stroke="#aaaaaa" points="129.09,-397.99 136.45,-397.07 130.12,-393.2 129.09,-397.99"/>
</g>
<!-- rel_1 -->
<g id="node13" class="node">
<title>rel_1</title>
<path fill="#f5b8b8" stroke="#d46a6a" stroke-width="1.2" d="M229.12,-361C229.12,-361 147.12,-361 147.12,-361 141.12,-361 135.12,-355 135.12,-349 135.12,-349 135.12,-337 135.12,-337 135.12,-331 141.12,-325 147.12,-325 147.12,-325 229.12,-325 229.12,-325 235.12,-325 241.12,-331 241.12,-337 241.12,-337 241.12,-349 241.12,-349 241.12,-355 235.12,-361 229.12,-361"/>
<text xml:space="preserve" text-anchor="middle" x="188.12" y="-339.5" font-family="Arial" font-size="10.00" fill="#8b0000">hinders readability of</text>
</g>
<!-- property.color&#45;&gt;rel_1 -->
<g id="edge9" class="edge">
<title>property.color&#45;&gt;rel_1</title>
<path fill="none" stroke="#d46a6a" stroke-width="1.5" d="M60.78,-369.43C78.53,-365.71 102.62,-360.67 125,-355.99"/>
<polygon fill="#d46a6a" stroke="#d46a6a" stroke-width="1.5" points="125.33,-358.79 132.58,-354.41 124.18,-353.3 125.33,-358.79"/>
</g>
<!-- text.label -->
<g id="node4" class="node">
<title>text.label</title>
<path fill="#b8e6b8" stroke="#2c3e50" stroke-width="1.8" d="M353.25,-361C353.25,-361 323.25,-361 323.25,-361 317.25,-361 311.25,-355 311.25,-349 311.25,-349 311.25,-337 311.25,-337 311.25,-331 317.25,-325 323.25,-325 323.25,-325 353.25,-325 353.25,-325 359.25,-325 365.25,-331 365.25,-337 365.25,-337 365.25,-349 365.25,-349 365.25,-355 359.25,-361 353.25,-361"/>
<text xml:space="preserve" text-anchor="middle" x="338.25" y="-339.5" font-family="Arial" font-size="10.00" fill="#1a1a1a">label</text>
</g>
<!-- attr_3 -->
<g id="node10" class="node">
<title>attr_3</title>
<path fill="#c7b8e6" stroke="#7f8c8d" stroke-width="1.2" d="M535.75,-361C535.75,-361 421.5,-361 421.5,-361 415.5,-361 409.5,-355 409.5,-349 409.5,-349 409.5,-337 409.5,-337 409.5,-331 415.5,-325 421.5,-325 421.5,-325 535.75,-325 535.75,-325 541.75,-325 547.75,-331 547.75,-337 547.75,-337 547.75,-349 547.75,-349 547.75,-355 541.75,-361 535.75,-361"/>
<text xml:space="preserve" text-anchor="middle" x="478.62" y="-339.5" font-family="Arial" font-size="10.00" fill="#1a1a1a">(+) absent or invisible labels</text>
</g>
<!-- text.label&#45;&gt;attr_3 -->
<g id="edge5" class="edge">
<title>text.label&#45;&gt;attr_3</title>
<path fill="none" stroke="#aaaaaa" d="M365.93,-343C376.11,-343 388.29,-343 400.81,-343"/>
<polygon fill="#aaaaaa" stroke="#aaaaaa" points="400.56,-345.45 407.56,-343 400.56,-340.55 400.56,-345.45"/>
</g>
<!-- furniture.legend -->
<g id="node5" class="node">
<title>furniture.legend</title>
<path fill="#b8e6b8" stroke="#2c3e50" stroke-width="1.8" d="M48.12,-69C48.12,-69 18.12,-69 18.12,-69 12.12,-69 6.12,-63 6.12,-57 6.12,-57 6.12,-45 6.12,-45 6.12,-39 12.12,-33 18.12,-33 18.12,-33 48.12,-33 48.12,-33 54.12,-33 60.12,-39 60.12,-45 60.12,-45 60.12,-57 60.12,-57 60.12,-63 54.12,-69 48.12,-69"/>
<text xml:space="preserve" text-anchor="middle" x="33.12" y="-47.5" font-family="Arial" font-size="10.00" fill="#1a1a1a">legend</text>
</g>
<!-- attr_4 -->
<g id="node11" class="node">
<title>attr_4</title>
<path fill="#c7b8e6" stroke="#7f8c8d" stroke-width="1.2" d="M224.25,-101C224.25,-101 152,-101 152,-101 146,-101 140,-95 140,-89 140,-89 140,-77 140,-77 140,-71 146,-65 152,-65 152,-65 224.25,-65 224.25,-65 230.25,-65 236.25,-71 236.25,-77 236.25,-77 236.25,-89 236.25,-89 236.25,-95 230.25,-101 224.25,-101"/>
<text xml:space="preserve" text-anchor="middle" x="188.12" y="-79.5" font-family="Arial" font-size="10.00" fill="#1a1a1a">(+) missing legend</text>
</g>
<!-- furniture.legend&#45;&gt;attr_4 -->
<g id="edge6" class="edge">
<title>furniture.legend&#45;&gt;attr_4</title>
<path fill="none" stroke="#aaaaaa" d="M60.78,-56.57C80.24,-60.64 107.32,-66.31 131.42,-71.35"/>
<polygon fill="#aaaaaa" stroke="#aaaaaa" points="130.63,-73.69 137.99,-72.72 131.64,-68.89 130.63,-73.69"/>
</g>
<!-- rel_3 -->
<g id="node15" class="node">
<title>rel_3</title>
<path fill="#f5b8b8" stroke="#d46a6a" stroke-width="1.2" d="M213.38,-36C213.38,-36 162.88,-36 162.88,-36 156.88,-36 150.88,-30 150.88,-24 150.88,-24 150.88,-12 150.88,-12 150.88,-6 156.88,0 162.88,0 162.88,0 213.38,0 213.38,0 219.38,0 225.38,-6 225.38,-12 225.38,-12 225.38,-24 225.38,-24 225.38,-30 219.38,-36 213.38,-36"/>
<text xml:space="preserve" text-anchor="middle" x="188.12" y="-14.5" font-family="Arial" font-size="10.00" fill="#8b0000">fails to clarify</text>
</g>
<!-- furniture.legend&#45;&gt;rel_3 -->
<g id="edge13" class="edge">
<title>furniture.legend&#45;&gt;rel_3</title>
<path fill="none" stroke="#d46a6a" stroke-width="1.5" d="M60.78,-45.25C82.79,-40.5 114.56,-33.65 140.74,-28"/>
<polygon fill="#d46a6a" stroke="#d46a6a" stroke-width="1.5" points="141.02,-30.81 148.25,-26.39 139.84,-25.34 141.02,-30.81"/>
</g>
<!-- rel_0&#45;&gt;unknown.data_area -->
<g id="edge8" class="edge">
<title>rel_0&#45;&gt;unknown.data_area</title>
<path fill="none" stroke="#d46a6a" stroke-width="1.5" d="M216.59,-201.57C231.54,-195.3 250.33,-187.33 267,-180 277.82,-175.25 289.52,-169.97 300.21,-165.1"/>
<polygon fill="#d46a6a" stroke="#d46a6a" stroke-width="1.5" points="301.12,-167.76 307.23,-161.88 298.79,-162.67 301.12,-167.76"/>
</g>
<!-- rel_1&#45;&gt;text.label -->
<g id="edge10" class="edge">
<title>rel_1&#45;&gt;text.label</title>
<path fill="none" stroke="#d46a6a" stroke-width="1.5" d="M241.35,-343C260.75,-343 282.35,-343 300.14,-343"/>
<polygon fill="#d46a6a" stroke="#d46a6a" stroke-width="1.5" points="300.12,-345.8 308.12,-343 300.12,-340.2 300.12,-345.8"/>
</g>
<!-- rel_2&#45;&gt;unknown.data_area -->
<g id="edge12" class="edge">
<title>rel_2&#45;&gt;unknown.data_area</title>
<path fill="none" stroke="#d46a6a" stroke-width="1.5" d="M250.66,-148C267.03,-148 284.25,-148 298.98,-148"/>
<polygon fill="#d46a6a" stroke="#d46a6a" stroke-width="1.5" points="298.94,-150.8 306.94,-148 298.94,-145.2 298.94,-150.8"/>
</g>
<!-- rel_3&#45;&gt;unknown.data_area -->
<g id="edge14" class="edge">
<title>rel_3&#45;&gt;unknown.data_area</title>
<path fill="none" stroke="#d46a6a" stroke-width="1.5" d="M225.88,-28.33C239.7,-33.38 254.96,-40.48 267,-50 291.28,-69.21 310.95,-98.92 323.23,-120.6"/>
<polygon fill="#d46a6a" stroke="#d46a6a" stroke-width="1.5" points="320.64,-121.69 326.94,-127.35 325.54,-118.99 320.64,-121.69"/>
</g>
</g>
</svg>
