<?xml version="1.0" encoding="UTF-8" standalone="no"?>
<!DOCTYPE svg PUBLIC "-//W3C//DTD SVG 1.1//EN"
 "http://www.w3.org/Graphics/SVG/1.1/DTD/svg11.dtd">
<!-- Generated by graphviz version 14.1.5 (20260411.2331)
 -->
<!-- Title: SciVisJ.635.6.png Pages: 1 -->
<svg width="567pt" height="601pt"
 viewBox="0.00 0.00 567.00 601.00" xmlns="http://www.w3.org/2000/svg" xmlns:xlink="http://www.w3.org/1999/xlink">
<g id="graph0" class="graph" transform="scale(1 1) rotate(0) translate(4 597.25)">
<title>SciVisJ.635.6.png</title>
<polygon fill="white" stroke="none" points="-4,4 -4,-597.25 562.75,-597.25 562.75,4 -4,4"/>
<text xml:space="preserve" text-anchor="start" x="222.38" y="-572.95" font-family="Arial" font-weight="bold" font-size="14.00">SciVisJ.635.6.png</text>
<text xml:space="preserve" text-anchor="start" x="207.75" y="-553" font-family="Arial" font-size="11.00">Cont.&#45;ColorPatn &#160;| &#160;VC = 0.42</text>
<path fill="#b8e6b8" stroke="none" d="M70,-528C70,-528 78,-528 78,-528 81,-528 84,-531 84,-534 84,-534 84,-540 84,-540 84,-543 81,-546 78,-546 78,-546 70,-546 70,-546 67,-546 64,-543 64,-540 64,-540 64,-534 64,-534 64,-531 67,-528 70,-528"/>
<path fill="none" stroke="black" d="M70,-528C70,-528 78,-528 78,-528 81,-528 84,-531 84,-534 84,-534 84,-540 84,-540 84,-543 81,-546 78,-546 78,-546 70,-546 70,-546 67,-546 64,-543 64,-540 64,-540 64,-534 64,-534 64,-531 67,-528 70,-528"/>
<text xml:space="preserve" text-anchor="start" x="72.5" y="-533.25" font-family="Arial" font-size="10.00"> </text>
<text xml:space="preserve" text-anchor="start" x="88" y="-533.25" font-family="Arial" font-size="10.00">Object</text>
<path fill="#c7b8e6" stroke="none" d="M126.5,-528C126.5,-528 134.5,-528 134.5,-528 137.5,-528 140.5,-531 140.5,-534 140.5,-534 140.5,-540 140.5,-540 140.5,-543 137.5,-546 134.5,-546 134.5,-546 126.5,-546 126.5,-546 123.5,-546 120.5,-543 120.5,-540 120.5,-540 120.5,-534 120.5,-534 120.5,-531 123.5,-528 126.5,-528"/>
<path fill="none" stroke="black" d="M126.5,-528C126.5,-528 134.5,-528 134.5,-528 137.5,-528 140.5,-531 140.5,-534 140.5,-534 140.5,-540 140.5,-540 140.5,-543 137.5,-546 134.5,-546 134.5,-546 126.5,-546 126.5,-546 123.5,-546 120.5,-543 120.5,-540 120.5,-540 120.5,-534 120.5,-534 120.5,-531 123.5,-528 126.5,-528"/>
<text xml:space="preserve" text-anchor="start" x="129" y="-533.25" font-family="Arial" font-size="10.00"> </text>
<text xml:space="preserve" text-anchor="start" x="144.5" y="-533.25" font-family="Arial" font-size="10.00">Attribute</text>
<path fill="#f5b8b8" stroke="none" d="M191.25,-528C191.25,-528 199.25,-528 199.25,-528 202.25,-528 205.25,-531 205.25,-534 205.25,-534 205.25,-540 205.25,-540 205.25,-543 202.25,-546 199.25,-546 199.25,-546 191.25,-546 191.25,-546 188.25,-546 185.25,-543 185.25,-540 185.25,-540 185.25,-534 185.25,-534 185.25,-531 188.25,-528 191.25,-528"/>
<path fill="none" stroke="black" d="M191.25,-528C191.25,-528 199.25,-528 199.25,-528 202.25,-528 205.25,-531 205.25,-534 205.25,-534 205.25,-540 205.25,-540 205.25,-543 202.25,-546 199.25,-546 199.25,-546 191.25,-546 191.25,-546 188.25,-546 185.25,-543 185.25,-540 185.25,-540 185.25,-534 185.25,-534 185.25,-531 188.25,-528 191.25,-528"/>
<text xml:space="preserve" text-anchor="start" x="193.75" y="-533.25" font-family="Arial" font-size="10.00"> </text>
<text xml:space="preserve" text-anchor="start" x="209.25" y="-533.25" font-family="Arial" font-size="10.00">Relationship</text>
<text xml:space="preserve" text-anchor="start" x="269.25" y="-534.5" font-family="Arial" font-weight="bold" font-size="10.00">(+)</text>
<text xml:space="preserve" text-anchor="start" x="281.25" y="-534.5" font-family="Arial" font-size="10.00"> increases complexity</text>
<text xml:space="preserve" text-anchor="start" x="382.5" y="-534.5" font-family="Arial" font-weight="bold" font-size="10.00">(−)</text>
<text xml:space="preserve" text-anchor="start" x="394.5" y="-534.5" font-family="Arial" font-size="10.00"> decreases complexity</text>
<!-- unknown.color_scheme -->
<g id="node1" class="node">
<title>unknown.color_scheme</title>
<path fill="#b8e6b8" stroke="#2c3e50" stroke-width="1.8" d="M62.5,-231C62.5,-231 12,-231 12,-231 6,-231 0,-225 0,-219 0,-219 0,-207 0,-207 0,-201 6,-195 12,-195 12,-195 62.5,-195 62.5,-195 68.5,-195 74.5,-201 74.5,-207 74.5,-207 74.5,-219 74.5,-219 74.5,-225 68.5,-231 62.5,-231"/>
<text xml:space="preserve" text-anchor="middle" x="37.25" y="-209.5" font-family="Arial" font-size="10.00" fill="#1a1a1a">color scheme</text>
</g>
<!-- attr_0 -->
<g id="node7" class="node">
<title>attr_0</title>
<path fill="#c7b8e6" stroke="#7f8c8d" stroke-width="1.2" d="M227.62,-296C227.62,-296 154.62,-296 154.62,-296 148.62,-296 142.62,-290 142.62,-284 142.62,-284 142.62,-272 142.62,-272 142.62,-266 148.62,-260 154.62,-260 154.62,-260 227.62,-260 227.62,-260 233.62,-260 239.62,-266 239.62,-272 239.62,-272 239.62,-284 239.62,-284 239.62,-290 233.62,-296 227.62,-296"/>
<text xml:space="preserve" text-anchor="middle" x="191.12" y="-274.5" font-family="Arial" font-size="10.00" fill="#1a1a1a">(+) no white space</text>
</g>
<!-- unknown.color_scheme&#45;&gt;attr_0 -->
<g id="edge1" class="edge">
<title>unknown.color_scheme&#45;&gt;attr_0</title>
<path fill="none" stroke="#aaaaaa" d="M75.01,-228.73C94.25,-236.97 118.1,-247.17 139.09,-256.16"/>
<polygon fill="#aaaaaa" stroke="#aaaaaa" points="137.9,-258.31 145.29,-258.81 139.82,-253.81 137.9,-258.31"/>
</g>
<!-- attr_5 -->
<g id="node8" class="node">
<title>attr_5</title>
<path fill="#c7b8e6" stroke="#7f8c8d" stroke-width="1.2" d="M247.5,-231C247.5,-231 134.75,-231 134.75,-231 128.75,-231 122.75,-225 122.75,-219 122.75,-219 122.75,-207 122.75,-207 122.75,-201 128.75,-195 134.75,-195 134.75,-195 247.5,-195 247.5,-195 253.5,-195 259.5,-201 259.5,-207 259.5,-207 259.5,-219 259.5,-219 259.5,-225 253.5,-231 247.5,-231"/>
<text xml:space="preserve" text-anchor="middle" x="191.12" y="-209.5" font-family="Arial" font-size="10.00" fill="#1a1a1a">(+) highly contrasting colors</text>
</g>
<!-- unknown.color_scheme&#45;&gt;attr_5 -->
<g id="edge2" class="edge">
<title>unknown.color_scheme&#45;&gt;attr_5</title>
<path fill="none" stroke="#aaaaaa" d="M75.01,-213C86.79,-213 100.3,-213 113.82,-213"/>
<polygon fill="#aaaaaa" stroke="#aaaaaa" points="113.72,-215.45 120.72,-213 113.72,-210.55 113.72,-215.45"/>
</g>
<!-- rel_4 -->
<g id="node17" class="node">
<title>rel_4</title>
<path fill="#f5b8b8" stroke="#d46a6a" stroke-width="1.2" d="M213.38,-166C213.38,-166 168.88,-166 168.88,-166 162.88,-166 156.88,-160 156.88,-154 156.88,-154 156.88,-142 156.88,-142 156.88,-136 162.88,-130 168.88,-130 168.88,-130 213.38,-130 213.38,-130 219.38,-130 225.38,-136 225.38,-142 225.38,-142 225.38,-154 225.38,-154 225.38,-160 219.38,-166 213.38,-166"/>
<text xml:space="preserve" text-anchor="middle" x="191.12" y="-144.5" font-family="Arial" font-size="10.00" fill="#8b0000">overwhelms</text>
</g>
<!-- unknown.color_scheme&#45;&gt;rel_4 -->
<g id="edge15" class="edge">
<title>unknown.color_scheme&#45;&gt;rel_4</title>
<path fill="none" stroke="#d46a6a" stroke-width="1.5" d="M75.01,-197.27C96.68,-187.99 124.19,-176.22 146.89,-166.5"/>
<polygon fill="#d46a6a" stroke="#d46a6a" stroke-width="1.5" points="147.96,-169.09 154.21,-163.37 145.75,-163.95 147.96,-169.09"/>
</g>
<!-- property.color -->
<g id="node2" class="node">
<title>property.color</title>
<path fill="#b8e6b8" stroke="#2c3e50" stroke-width="1.8" d="M62.12,-491C62.12,-491 12.38,-491 12.38,-491 6.38,-491 0.38,-485 0.38,-479 0.38,-479 0.38,-467 0.38,-467 0.38,-461 6.38,-455 12.38,-455 12.38,-455 62.12,-455 62.12,-455 68.12,-455 74.12,-461 74.12,-467 74.12,-467 74.12,-479 74.12,-479 74.12,-485 68.12,-491 62.12,-491"/>
<text xml:space="preserve" text-anchor="middle" x="37.25" y="-469.5" font-family="Arial" font-size="10.00" fill="#1a1a1a">color shading</text>
</g>
<!-- attr_1 -->
<g id="node9" class="node">
<title>attr_1</title>
<path fill="#c7b8e6" stroke="#7f8c8d" stroke-width="1.2" d="M240.75,-491C240.75,-491 141.5,-491 141.5,-491 135.5,-491 129.5,-485 129.5,-479 129.5,-479 129.5,-467 129.5,-467 129.5,-461 135.5,-455 141.5,-455 141.5,-455 240.75,-455 240.75,-455 246.75,-455 252.75,-461 252.75,-467 252.75,-467 252.75,-479 252.75,-479 252.75,-485 246.75,-491 240.75,-491"/>
<text xml:space="preserve" text-anchor="middle" x="191.12" y="-469.5" font-family="Arial" font-size="10.00" fill="#1a1a1a">(+) multiple color shades</text>
</g>
<!-- property.color&#45;&gt;attr_1 -->
<g id="edge3" class="edge">
<title>property.color&#45;&gt;attr_1</title>
<path fill="none" stroke="#aaaaaa" d="M75.01,-473C88.84,-473 105.06,-473 120.89,-473"/>
<polygon fill="#aaaaaa" stroke="#aaaaaa" points="120.6,-475.45 127.6,-473 120.6,-470.55 120.6,-475.45"/>
</g>
<!-- rel_0 -->
<g id="node13" class="node">
<title>rel_0</title>
<path fill="#f5b8b8" stroke="#d46a6a" stroke-width="1.2" d="M208.12,-426C208.12,-426 174.12,-426 174.12,-426 168.12,-426 162.12,-420 162.12,-414 162.12,-414 162.12,-402 162.12,-402 162.12,-396 168.12,-390 174.12,-390 174.12,-390 208.12,-390 208.12,-390 214.12,-390 220.12,-396 220.12,-402 220.12,-402 220.12,-414 220.12,-414 220.12,-420 214.12,-426 208.12,-426"/>
<text xml:space="preserve" text-anchor="middle" x="191.12" y="-404.5" font-family="Arial" font-size="10.00" fill="#8b0000">increases</text>
</g>
<!-- property.color&#45;&gt;rel_0 -->
<g id="edge7" class="edge">
<title>property.color&#45;&gt;rel_0</title>
<path fill="none" stroke="#d46a6a" stroke-width="1.5" d="M75.01,-457.27C98.47,-447.23 128.79,-434.25 152.43,-424.13"/>
<polygon fill="#d46a6a" stroke="#d46a6a" stroke-width="1.5" points="153.44,-426.75 159.69,-421.02 151.24,-421.6 153.44,-426.75"/>
</g>
<!-- structure.pattern -->
<g id="node3" class="node">
<title>structure.pattern</title>
<path fill="#b8e6b8" stroke="#2c3e50" stroke-width="1.8" d="M52.25,-68C52.25,-68 22.25,-68 22.25,-68 16.25,-68 10.25,-62 10.25,-56 10.25,-56 10.25,-44 10.25,-44 10.25,-38 16.25,-32 22.25,-32 22.25,-32 52.25,-32 52.25,-32 58.25,-32 64.25,-38 64.25,-44 64.25,-44 64.25,-56 64.25,-56 64.25,-62 58.25,-68 52.25,-68"/>
<text xml:space="preserve" text-anchor="middle" x="37.25" y="-46.5" font-family="Arial" font-size="10.00" fill="#1a1a1a">pattern</text>
</g>
<!-- attr_2 -->
<g id="node10" class="node">
<title>attr_2</title>
<path fill="#c7b8e6" stroke="#7f8c8d" stroke-width="1.2" d="M252.75,-101C252.75,-101 129.5,-101 129.5,-101 123.5,-101 117.5,-95 117.5,-89 117.5,-89 117.5,-77 117.5,-77 117.5,-71 123.5,-65 129.5,-65 129.5,-65 252.75,-65 252.75,-65 258.75,-65 264.75,-71 264.75,-77 264.75,-77 264.75,-89 264.75,-89 264.75,-95 258.75,-101 252.75,-101"/>
<text xml:space="preserve" text-anchor="middle" x="191.12" y="-79.5" font-family="Arial" font-size="10.00" fill="#1a1a1a">(+) visually stimulating texture</text>
</g>
<!-- structure.pattern&#45;&gt;attr_2 -->
<g id="edge4" class="edge">
<title>structure.pattern&#45;&gt;attr_2</title>
<path fill="none" stroke="#aaaaaa" d="M65.05,-55.82C77.45,-58.52 92.92,-61.88 108.7,-65.31"/>
<polygon fill="#aaaaaa" stroke="#aaaaaa" points="108.13,-67.69 115.49,-66.78 109.17,-62.9 108.13,-67.69"/>
</g>
<!-- rel_2 -->
<g id="node15" class="node">
<title>rel_2</title>
<path fill="#f5b8b8" stroke="#d46a6a" stroke-width="1.2" d="M228.38,-36C228.38,-36 153.88,-36 153.88,-36 147.88,-36 141.88,-30 141.88,-24 141.88,-24 141.88,-12 141.88,-12 141.88,-6 147.88,0 153.88,0 153.88,0 228.38,0 228.38,0 234.38,0 240.38,-6 240.38,-12 240.38,-12 240.38,-24 240.38,-24 240.38,-30 234.38,-36 228.38,-36"/>
<text xml:space="preserve" text-anchor="middle" x="191.12" y="-14.5" font-family="Arial" font-size="10.00" fill="#8b0000">adds complexity to</text>
</g>
<!-- structure.pattern&#45;&gt;rel_2 -->
<g id="edge11" class="edge">
<title>structure.pattern&#45;&gt;rel_2</title>
<path fill="none" stroke="#d46a6a" stroke-width="1.5" d="M65.05,-44.35C83.45,-40.48 108.59,-35.18 131.5,-30.35"/>
<polygon fill="#d46a6a" stroke="#d46a6a" stroke-width="1.5" points="132.03,-33.1 139.28,-28.71 130.88,-27.62 132.03,-33.1"/>
</g>
<!-- unknown.background -->
<g id="node4" class="node">
<title>unknown.background</title>
<path fill="#b8e6b8" stroke="#2c3e50" stroke-width="1.8" d="M58.38,-361C58.38,-361 16.12,-361 16.12,-361 10.12,-361 4.12,-355 4.12,-349 4.12,-349 4.12,-337 4.12,-337 4.12,-331 10.12,-325 16.12,-325 16.12,-325 58.38,-325 58.38,-325 64.38,-325 70.38,-331 70.38,-337 70.38,-337 70.38,-349 70.38,-349 70.38,-355 64.38,-361 58.38,-361"/>
<text xml:space="preserve" text-anchor="middle" x="37.25" y="-339.5" font-family="Arial" font-size="10.00" fill="#1a1a1a">background</text>
</g>
<!-- rel_1 -->
<g id="node14" class="node">
<title>rel_1</title>
<path fill="#f5b8b8" stroke="#d46a6a" stroke-width="1.2" d="M246.75,-361C246.75,-361 135.5,-361 135.5,-361 129.5,-361 123.5,-355 123.5,-349 123.5,-349 123.5,-337 123.5,-337 123.5,-331 129.5,-325 135.5,-325 135.5,-325 246.75,-325 246.75,-325 252.75,-325 258.75,-331 258.75,-337 258.75,-337 258.75,-349 258.75,-349 258.75,-355 252.75,-361 246.75,-361"/>
<text xml:space="preserve" text-anchor="middle" x="191.12" y="-339.5" font-family="Arial" font-size="10.00" fill="#8b0000">eliminates whitespace from</text>
</g>
<!-- unknown.background&#45;&gt;rel_1 -->
<g id="edge9" class="edge">
<title>unknown.background&#45;&gt;rel_1</title>
<path fill="none" stroke="#d46a6a" stroke-width="1.5" d="M71.2,-343C83.54,-343 98.13,-343 112.79,-343"/>
<polygon fill="#d46a6a" stroke="#d46a6a" stroke-width="1.5" points="112.65,-345.8 120.65,-343 112.65,-340.2 112.65,-345.8"/>
</g>
<!-- content.data -->
<g id="node5" class="node">
<title>content.data</title>
<path fill="#b8e6b8" stroke="#2c3e50" stroke-width="1.8" d="M349.75,-101C349.75,-101 319.75,-101 319.75,-101 313.75,-101 307.75,-95 307.75,-89 307.75,-89 307.75,-77 307.75,-77 307.75,-71 313.75,-65 319.75,-65 319.75,-65 349.75,-65 349.75,-65 355.75,-65 361.75,-71 361.75,-77 361.75,-77 361.75,-89 361.75,-89 361.75,-95 355.75,-101 349.75,-101"/>
<text xml:space="preserve" text-anchor="middle" x="334.75" y="-79.5" font-family="Arial" font-size="10.00" fill="#1a1a1a">data</text>
</g>
<!-- attr_3 -->
<g id="node11" class="node">
<title>attr_3</title>
<path fill="#c7b8e6" stroke="#7f8c8d" stroke-width="1.2" d="M546.75,-101C546.75,-101 416.75,-101 416.75,-101 410.75,-101 404.75,-95 404.75,-89 404.75,-89 404.75,-77 404.75,-77 404.75,-71 410.75,-65 416.75,-65 416.75,-65 546.75,-65 546.75,-65 552.75,-65 558.75,-71 558.75,-77 558.75,-77 558.75,-89 558.75,-89 558.75,-95 552.75,-101 546.75,-101"/>
<text xml:space="preserve" text-anchor="middle" x="481.75" y="-79.5" font-family="Arial" font-size="10.00" fill="#1a1a1a">(+) dense information presented</text>
</g>
<!-- content.data&#45;&gt;attr_3 -->
<g id="edge5" class="edge">
<title>content.data&#45;&gt;attr_3</title>
<path fill="none" stroke="#aaaaaa" d="M362.35,-83C372.11,-83 383.76,-83 395.89,-83"/>
<polygon fill="#aaaaaa" stroke="#aaaaaa" points="395.83,-85.45 402.83,-83 395.83,-80.55 395.83,-85.45"/>
</g>
<!-- unknown.design -->
<g id="node6" class="node">
<title>unknown.design</title>
<path fill="#b8e6b8" stroke="#2c3e50" stroke-width="1.8" d="M349.75,-426C349.75,-426 319.75,-426 319.75,-426 313.75,-426 307.75,-420 307.75,-414 307.75,-414 307.75,-402 307.75,-402 307.75,-396 313.75,-390 319.75,-390 319.75,-390 349.75,-390 349.75,-390 355.75,-390 361.75,-396 361.75,-402 361.75,-402 361.75,-414 361.75,-414 361.75,-420 355.75,-426 349.75,-426"/>
<text xml:space="preserve" text-anchor="middle" x="334.75" y="-404.5" font-family="Arial" font-size="10.00" fill="#1a1a1a">design</text>
</g>
<!-- attr_4 -->
<g id="node12" class="node">
<title>attr_4</title>
<path fill="#c7b8e6" stroke="#7f8c8d" stroke-width="1.2" d="M533.62,-426C533.62,-426 429.88,-426 429.88,-426 423.88,-426 417.88,-420 417.88,-414 417.88,-414 417.88,-402 417.88,-402 417.88,-396 423.88,-390 429.88,-390 429.88,-390 533.62,-390 533.62,-390 539.62,-390 545.62,-396 545.62,-402 545.62,-402 545.62,-414 545.62,-414 545.62,-420 539.62,-426 533.62,-426"/>
<text xml:space="preserve" text-anchor="middle" x="481.75" y="-404.5" font-family="Arial" font-size="10.00" fill="#1a1a1a">(+) complex visual design</text>
</g>
<!-- unknown.design&#45;&gt;attr_4 -->
<g id="edge6" class="edge">
<title>unknown.design&#45;&gt;attr_4</title>
<path fill="none" stroke="#aaaaaa" d="M362.35,-408C375.62,-408 392.39,-408 409.1,-408"/>
<polygon fill="#aaaaaa" stroke="#aaaaaa" points="408.77,-410.45 415.77,-408 408.77,-405.55 408.77,-410.45"/>
</g>
<!-- rel_3 -->
<g id="node16" class="node">
<title>rel_3</title>
<path fill="#f5b8b8" stroke="#d46a6a" stroke-width="1.2" d="M504,-522C504,-522 459.5,-522 459.5,-522 453.5,-522 447.5,-516 447.5,-510 447.5,-510 447.5,-498 447.5,-498 447.5,-492 453.5,-486 459.5,-486 459.5,-486 504,-486 504,-486 510,-486 516,-492 516,-498 516,-498 516,-510 516,-510 516,-516 510,-522 504,-522"/>
<text xml:space="preserve" text-anchor="middle" x="481.75" y="-500.5" font-family="Arial" font-size="10.00" fill="#8b0000">encodes via</text>
</g>
<!-- unknown.design&#45;&gt;rel_3 -->
<g id="edge13" class="edge">
<title>unknown.design&#45;&gt;rel_3</title>
<path fill="none" stroke="#d46a6a" stroke-width="1.5" d="M362.35,-425.61C385.41,-440.88 419,-463.12 444.52,-480.02"/>
<polygon fill="#d46a6a" stroke="#d46a6a" stroke-width="1.5" points="442.73,-482.19 450.95,-484.27 445.82,-477.52 442.73,-482.19"/>
</g>
<!-- rel_0&#45;&gt;unknown.design -->
<g id="edge8" class="edge">
<title>rel_0&#45;&gt;unknown.design</title>
<path fill="none" stroke="#d46a6a" stroke-width="1.5" d="M220.44,-408C242.38,-408 272.96,-408 296.82,-408"/>
<polygon fill="#d46a6a" stroke="#d46a6a" stroke-width="1.5" points="296.65,-410.8 304.65,-408 296.65,-405.2 296.65,-410.8"/>
</g>
<!-- rel_1&#45;&gt;unknown.design -->
<g id="edge10" class="edge">
<title>rel_1&#45;&gt;unknown.design</title>
<path fill="none" stroke="#d46a6a" stroke-width="1.5" d="M232.87,-361.45C243.27,-366.17 254.43,-371.26 264.75,-376 275.52,-380.94 287.21,-386.35 297.86,-391.29"/>
<polygon fill="#d46a6a" stroke="#d46a6a" stroke-width="1.5" points="296.41,-393.7 304.84,-394.53 298.77,-388.63 296.41,-393.7"/>
</g>
<!-- rel_2&#45;&gt;content.data -->
<g id="edge12" class="edge">
<title>rel_2&#45;&gt;content.data</title>
<path fill="none" stroke="#d46a6a" stroke-width="1.5" d="M234.85,-36.56C244.7,-40.91 255.11,-45.57 264.75,-50 275.58,-54.97 287.29,-60.51 297.94,-65.61"/>
<polygon fill="#d46a6a" stroke="#d46a6a" stroke-width="1.5" points="296.5,-68.03 304.93,-68.97 298.93,-62.98 296.5,-68.03"/>
</g>
<!-- rel_3&#45;&gt;property.color -->
<g id="edge14" class="edge">
<title>rel_3&#45;&gt;property.color</title>
<path fill="none" stroke="#d46a6a" stroke-width="1.5" d="M447.01,-508.67C382.33,-516.64 236.7,-529.83 117.5,-506 106.31,-503.76 94.72,-499.91 83.98,-495.61"/>
<polygon fill="#d46a6a" stroke="#d46a6a" stroke-width="1.5" points="85.34,-493.15 76.88,-492.63 83.17,-498.31 85.34,-493.15"/>
</g>
<!-- rel_4&#45;&gt;content.data -->
<g id="edge16" class="edge">
<title>rel_4&#45;&gt;content.data</title>
<path fill="none" stroke="#d46a6a" stroke-width="1.5" d="M225.78,-132.77C238.05,-127.2 252.04,-120.84 264.75,-115 275.52,-110.06 287.21,-104.65 297.86,-99.71"/>
<polygon fill="#d46a6a" stroke="#d46a6a" stroke-width="1.5" points="298.77,-102.37 304.84,-96.47 296.41,-97.3 298.77,-102.37"/>
</g>
</g>
</svg>
