<?xml version="1.0" encoding="UTF-8" standalone="no"?>
<!DOCTYPE svg PUBLIC "-//W3C//DTD SVG 1.1//EN"
 "http://www.w3.org/Graphics/SVG/1.1/DTD/svg11.dtd">
<!-- Generated by graphviz version 14.1.5 (20260411.2331)
 -->
<!-- Title: SciVisJ.797.13(3).png Pages: 1 -->
<svg width="702pt" height="567pt"
 viewBox="0.00 0.00 702.00 567.00" xmlns="http://www.w3.org/2000/svg" xmlns:xlink="http://www.w3.org/1999/xlink">
<g id="graph0" class="graph" transform="scale(1 1) rotate(0) translate(4 563.25)">
<title>SciVisJ.797.13(3).png</title>
<polygon fill="white" stroke="none" points="-4,4 -4,-563.25 697.75,-563.25 697.75,4 -4,4"/>
<text xml:space="preserve" text-anchor="start" x="277.88" y="-538.95" font-family="Arial" font-weight="bold" font-size="14.00">SciVisJ.797.13(3).png</text>
<text xml:space="preserve" text-anchor="start" x="300.75" y="-519" font-family="Arial" font-size="11.00">Glyph &#160;| &#160;VC = 0.66</text>
<path fill="#b8e6b8" stroke="none" d="M137.5,-494C137.5,-494 145.5,-494 145.5,-494 148.5,-494 151.5,-497 151.5,-500 151.5,-500 151.5,-506 151.5,-506 151.5,-509 148.5,-512 145.5,-512 145.5,-512 137.5,-512 137.5,-512 134.5,-512 131.5,-509 131.5,-506 131.5,-506 131.5,-500 131.5,-500 131.5,-497 134.5,-494 137.5,-494"/>
<path fill="none" stroke="black" d="M137.5,-494C137.5,-494 145.5,-494 145.5,-494 148.5,-494 151.5,-497 151.5,-500 151.5,-500 151.5,-506 151.5,-506 151.5,-509 148.5,-512 145.5,-512 145.5,-512 137.5,-512 137.5,-512 134.5,-512 131.5,-509 131.5,-506 131.5,-506 131.5,-500 131.5,-500 131.5,-497 134.5,-494 137.5,-494"/>
<text xml:space="preserve" text-anchor="start" x="140" y="-499.25" font-family="Arial" font-size="10.00"> </text>
<text xml:space="preserve" text-anchor="start" x="155.5" y="-499.25" font-family="Arial" font-size="10.00">Object</text>
<path fill="#c7b8e6" stroke="none" d="M194,-494C194,-494 202,-494 202,-494 205,-494 208,-497 208,-500 208,-500 208,-506 208,-506 208,-509 205,-512 202,-512 202,-512 194,-512 194,-512 191,-512 188,-509 188,-506 188,-506 188,-500 188,-500 188,-497 191,-494 194,-494"/>
<path fill="none" stroke="black" d="M194,-494C194,-494 202,-494 202,-494 205,-494 208,-497 208,-500 208,-500 208,-506 208,-506 208,-509 205,-512 202,-512 202,-512 194,-512 194,-512 191,-512 188,-509 188,-506 188,-506 188,-500 188,-500 188,-497 191,-494 194,-494"/>
<text xml:space="preserve" text-anchor="start" x="196.5" y="-499.25" font-family="Arial" font-size="10.00"> </text>
<text xml:space="preserve" text-anchor="start" x="212" y="-499.25" font-family="Arial" font-size="10.00">Attribute</text>
<path fill="#f5b8b8" stroke="none" d="M258.75,-494C258.75,-494 266.75,-494 266.75,-494 269.75,-494 272.75,-497 272.75,-500 272.75,-500 272.75,-506 272.75,-506 272.75,-509 269.75,-512 266.75,-512 266.75,-512 258.75,-512 258.75,-512 255.75,-512 252.75,-509 252.75,-506 252.75,-506 252.75,-500 252.75,-500 252.75,-497 255.75,-494 258.75,-494"/>
<path fill="none" stroke="black" d="M258.75,-494C258.75,-494 266.75,-494 266.75,-494 269.75,-494 272.75,-497 272.75,-500 272.75,-500 272.75,-506 272.75,-506 272.75,-509 269.75,-512 266.75,-512 266.75,-512 258.75,-512 258.75,-512 255.75,-512 252.75,-509 252.75,-506 252.75,-506 252.75,-500 252.75,-500 252.75,-497 255.75,-494 258.75,-494"/>
<text xml:space="preserve" text-anchor="start" x="261.25" y="-499.25" font-family="Arial" font-size="10.00"> </text>
<text xml:space="preserve" text-anchor="start" x="276.75" y="-499.25" font-family="Arial" font-size="10.00">Relationship</text>
<text xml:space="preserve" text-anchor="start" x="336.75" y="-500.5" font-family="Arial" font-weight="bold" font-size="10.00">(+)</text>
<text xml:space="preserve" text-anchor="start" x="348.75" y="-500.5" font-family="Arial" font-size="10.00"> increases complexity</text>
<text xml:space="preserve" text-anchor="start" x="450" y="-500.5" font-family="Arial" font-weight="bold" font-size="10.00">(−)</text>
<text xml:space="preserve" text-anchor="start" x="462" y="-500.5" font-family="Arial" font-size="10.00"> decreases complexity</text>
<!-- unknown.glyph -->
<g id="node1" class="node">
<title>unknown.glyph</title>
<path fill="#b8e6b8" stroke="#2c3e50" stroke-width="1.8" d="M49.25,-134C49.25,-134 19.25,-134 19.25,-134 13.25,-134 7.25,-128 7.25,-122 7.25,-122 7.25,-110 7.25,-110 7.25,-104 13.25,-98 19.25,-98 19.25,-98 49.25,-98 49.25,-98 55.25,-98 61.25,-104 61.25,-110 61.25,-110 61.25,-122 61.25,-122 61.25,-128 55.25,-134 49.25,-134"/>
<text xml:space="preserve" text-anchor="middle" x="34.25" y="-112.5" font-family="Arial" font-size="10.00" fill="#1a1a1a">glyph</text>
</g>
<!-- attr_0 -->
<g id="node6" class="node">
<title>attr_0</title>
<path fill="#c7b8e6" stroke="#7f8c8d" stroke-width="1.2" d="M225.75,-231C225.75,-231 140,-231 140,-231 134,-231 128,-225 128,-219 128,-219 128,-207 128,-207 128,-201 134,-195 140,-195 140,-195 225.75,-195 225.75,-195 231.75,-195 237.75,-201 237.75,-207 237.75,-207 237.75,-219 237.75,-219 237.75,-225 231.75,-231 225.75,-231"/>
<text xml:space="preserve" text-anchor="middle" x="182.88" y="-209.5" font-family="Arial" font-size="10.00" fill="#1a1a1a">(+) high detail density</text>
</g>
<!-- unknown.glyph&#45;&gt;attr_0 -->
<g id="edge1" class="edge">
<title>unknown.glyph&#45;&gt;attr_0</title>
<path fill="none" stroke="#aaaaaa" d="M54.13,-134.72C68.88,-148.67 90.36,-167.56 111.5,-181 116.92,-184.44 122.76,-187.72 128.69,-190.76"/>
<polygon fill="#aaaaaa" stroke="#aaaaaa" points="127.5,-192.91 134.86,-193.82 129.68,-188.52 127.5,-192.91"/>
</g>
<!-- attr_5 -->
<g id="node7" class="node">
<title>attr_5</title>
<path fill="#c7b8e6" stroke="#7f8c8d" stroke-width="1.2" d="M232.12,-166C232.12,-166 133.62,-166 133.62,-166 127.62,-166 121.62,-160 121.62,-154 121.62,-154 121.62,-142 121.62,-142 121.62,-136 127.62,-130 133.62,-130 133.62,-130 232.12,-130 232.12,-130 238.12,-130 244.12,-136 244.12,-142 244.12,-142 244.12,-154 244.12,-154 244.12,-160 238.12,-166 232.12,-166"/>
<text xml:space="preserve" text-anchor="middle" x="182.88" y="-144.5" font-family="Arial" font-size="10.00" fill="#1a1a1a">(+) abstract visual forms</text>
</g>
<!-- unknown.glyph&#45;&gt;attr_5 -->
<g id="edge2" class="edge">
<title>unknown.glyph&#45;&gt;attr_5</title>
<path fill="none" stroke="#aaaaaa" d="M62.14,-121.87C76.48,-125 94.85,-129.01 112.86,-132.94"/>
<polygon fill="#aaaaaa" stroke="#aaaaaa" points="112.26,-135.31 119.62,-134.41 113.3,-130.53 112.26,-135.31"/>
</g>
<!-- rel_2 -->
<g id="node15" class="node">
<title>rel_2</title>
<path fill="#f5b8b8" stroke="#d46a6a" stroke-width="1.2" d="M224.62,-101C224.62,-101 141.12,-101 141.12,-101 135.12,-101 129.12,-95 129.12,-89 129.12,-89 129.12,-77 129.12,-77 129.12,-71 135.12,-65 141.12,-65 141.12,-65 224.62,-65 224.62,-65 230.62,-65 236.62,-71 236.62,-77 236.62,-77 236.62,-89 236.62,-89 236.62,-95 230.62,-101 224.62,-101"/>
<text xml:space="preserve" text-anchor="middle" x="182.88" y="-79.5" font-family="Arial" font-size="10.00" fill="#8b0000">requires expertise for</text>
</g>
<!-- unknown.glyph&#45;&gt;rel_2 -->
<g id="edge12" class="edge">
<title>unknown.glyph&#45;&gt;rel_2</title>
<path fill="none" stroke="#d46a6a" stroke-width="1.5" d="M62.14,-109.95C78.06,-106.37 98.93,-101.67 118.78,-97.2"/>
<polygon fill="#d46a6a" stroke="#d46a6a" stroke-width="1.5" points="119.32,-99.95 126.51,-95.46 118.09,-94.49 119.32,-99.95"/>
</g>
<!-- unknown.ranking_system -->
<g id="node2" class="node">
<title>unknown.ranking_system</title>
<path fill="#b8e6b8" stroke="#2c3e50" stroke-width="1.8" d="M368,-101C368,-101 309.25,-101 309.25,-101 303.25,-101 297.25,-95 297.25,-89 297.25,-89 297.25,-77 297.25,-77 297.25,-71 303.25,-65 309.25,-65 309.25,-65 368,-65 368,-65 374,-65 380,-71 380,-77 380,-77 380,-89 380,-89 380,-95 374,-101 368,-101"/>
<text xml:space="preserve" text-anchor="middle" x="338.62" y="-79.5" font-family="Arial" font-size="10.00" fill="#1a1a1a">ranking system</text>
</g>
<!-- attr_1 -->
<g id="node8" class="node">
<title>attr_1</title>
<path fill="#c7b8e6" stroke="#7f8c8d" stroke-width="1.2" d="M576.25,-231C576.25,-231 436.5,-231 436.5,-231 430.5,-231 424.5,-225 424.5,-219 424.5,-219 424.5,-207 424.5,-207 424.5,-201 430.5,-195 436.5,-195 436.5,-195 576.25,-195 576.25,-195 582.25,-195 588.25,-201 588.25,-207 588.25,-207 588.25,-219 588.25,-219 588.25,-225 582.25,-231 576.25,-231"/>
<text xml:space="preserve" text-anchor="middle" x="506.38" y="-209.5" font-family="Arial" font-size="10.00" fill="#1a1a1a">(+) uninterpretable ranking conven</text>
</g>
<!-- unknown.ranking_system&#45;&gt;attr_1 -->
<g id="edge3" class="edge">
<title>unknown.ranking_system&#45;&gt;attr_1</title>
<path fill="none" stroke="#aaaaaa" d="M351.31,-101.68C365.75,-123.42 392.24,-159.12 423,-181 428.1,-184.63 433.66,-187.91 439.42,-190.87"/>
<polygon fill="#aaaaaa" stroke="#aaaaaa" points="438.05,-192.93 445.42,-193.78 440.19,-188.52 438.05,-192.93"/>
</g>
<!-- attr_4 -->
<g id="node9" class="node">
<title>attr_4</title>
<path fill="#c7b8e6" stroke="#7f8c8d" stroke-width="1.2" d="M577.75,-166C577.75,-166 435,-166 435,-166 429,-166 423,-160 423,-154 423,-154 423,-142 423,-142 423,-136 429,-130 435,-130 435,-130 577.75,-130 577.75,-130 583.75,-130 589.75,-136 589.75,-142 589.75,-142 589.75,-154 589.75,-154 589.75,-160 583.75,-166 577.75,-166"/>
<text xml:space="preserve" text-anchor="middle" x="506.38" y="-144.5" font-family="Arial" font-size="10.00" fill="#1a1a1a">(+) requires specialized knowledge</text>
</g>
<!-- unknown.ranking_system&#45;&gt;attr_4 -->
<g id="edge4" class="edge">
<title>unknown.ranking_system&#45;&gt;attr_4</title>
<path fill="none" stroke="#aaaaaa" d="M380.6,-99.07C401.61,-107.31 427.49,-117.46 450.23,-126.37"/>
<polygon fill="#aaaaaa" stroke="#aaaaaa" points="449.31,-128.64 456.72,-128.92 451.1,-124.08 449.31,-128.64"/>
</g>
<!-- rel_0 -->
<g id="node13" class="node">
<title>rel_0</title>
<path fill="#f5b8b8" stroke="#d46a6a" stroke-width="1.2" d="M528.62,-36C528.62,-36 484.12,-36 484.12,-36 478.12,-36 472.12,-30 472.12,-24 472.12,-24 472.12,-12 472.12,-12 472.12,-6 478.12,0 484.12,0 484.12,0 528.62,0 528.62,0 534.62,0 540.62,-6 540.62,-12 540.62,-12 540.62,-24 540.62,-24 540.62,-30 534.62,-36 528.62,-36"/>
<text xml:space="preserve" text-anchor="middle" x="506.38" y="-14.5" font-family="Arial" font-size="10.00" fill="#8b0000">overwhelms</text>
</g>
<!-- unknown.ranking_system&#45;&gt;rel_0 -->
<g id="edge8" class="edge">
<title>unknown.ranking_system&#45;&gt;rel_0</title>
<path fill="none" stroke="#d46a6a" stroke-width="1.5" d="M380.74,-66.67C394.2,-61.34 409.23,-55.4 423,-50 435.75,-45 449.62,-39.6 462.28,-34.68"/>
<polygon fill="#d46a6a" stroke="#d46a6a" stroke-width="1.5" points="463.13,-37.36 469.57,-31.85 461.1,-32.14 463.13,-37.36"/>
</g>
<!-- rel_4 -->
<g id="node17" class="node">
<title>rel_4</title>
<path fill="#f5b8b8" stroke="#d46a6a" stroke-width="1.2" d="M542.88,-101C542.88,-101 469.88,-101 469.88,-101 463.88,-101 457.88,-95 457.88,-89 457.88,-89 457.88,-77 457.88,-77 457.88,-71 463.88,-65 469.88,-65 469.88,-65 542.88,-65 542.88,-65 548.88,-65 554.88,-71 554.88,-77 554.88,-77 554.88,-89 554.88,-89 554.88,-95 548.88,-101 542.88,-101"/>
<text xml:space="preserve" text-anchor="middle" x="506.38" y="-79.5" font-family="Arial" font-size="10.00" fill="#8b0000">increases effort for</text>
</g>
<!-- unknown.ranking_system&#45;&gt;rel_4 -->
<g id="edge16" class="edge">
<title>unknown.ranking_system&#45;&gt;rel_4</title>
<path fill="none" stroke="#d46a6a" stroke-width="1.5" d="M380.6,-83C400.71,-83 425.29,-83 447.29,-83"/>
<polygon fill="#d46a6a" stroke="#d46a6a" stroke-width="1.5" points="447.26,-85.8 455.26,-83 447.26,-80.2 447.26,-85.8"/>
</g>
<!-- unknown.image_icons -->
<g id="node3" class="node">
<title>unknown.image_icons</title>
<path fill="#b8e6b8" stroke="#2c3e50" stroke-width="1.8" d="M56.5,-390C56.5,-390 12,-390 12,-390 6,-390 0,-384 0,-378 0,-378 0,-366 0,-366 0,-360 6,-354 12,-354 12,-354 56.5,-354 56.5,-354 62.5,-354 68.5,-360 68.5,-366 68.5,-366 68.5,-378 68.5,-378 68.5,-384 62.5,-390 56.5,-390"/>
<text xml:space="preserve" text-anchor="middle" x="34.25" y="-368.5" font-family="Arial" font-size="10.00" fill="#1a1a1a">image icons</text>
</g>
<!-- attr_2 -->
<g id="node10" class="node">
<title>attr_2</title>
<path fill="#c7b8e6" stroke="#7f8c8d" stroke-width="1.2" d="M224.62,-488C224.62,-488 141.12,-488 141.12,-488 135.12,-488 129.12,-482 129.12,-476 129.12,-476 129.12,-464 129.12,-464 129.12,-458 135.12,-452 141.12,-452 141.12,-452 224.62,-452 224.62,-452 230.62,-452 236.62,-458 236.62,-464 236.62,-464 236.62,-476 236.62,-476 236.62,-482 230.62,-488 224.62,-488"/>
<text xml:space="preserve" text-anchor="middle" x="182.88" y="-466.5" font-family="Arial" font-size="10.00" fill="#1a1a1a">(+) difficult to decode</text>
</g>
<!-- unknown.image_icons&#45;&gt;attr_2 -->
<g id="edge5" class="edge">
<title>unknown.image_icons&#45;&gt;attr_2</title>
<path fill="none" stroke="#aaaaaa" d="M53.77,-390.74C68.5,-404.94 90.13,-424.3 111.5,-438 116.9,-441.46 122.74,-444.75 128.67,-447.8"/>
<polygon fill="#aaaaaa" stroke="#aaaaaa" points="127.48,-449.95 134.83,-450.87 129.66,-445.56 127.48,-449.95"/>
</g>
<!-- attr_6 -->
<g id="node11" class="node">
<title>attr_6</title>
<path fill="#c7b8e6" stroke="#7f8c8d" stroke-width="1.2" d="M242.25,-423C242.25,-423 123.5,-423 123.5,-423 117.5,-423 111.5,-417 111.5,-411 111.5,-411 111.5,-399 111.5,-399 111.5,-393 117.5,-387 123.5,-387 123.5,-387 242.25,-387 242.25,-387 248.25,-387 254.25,-393 254.25,-399 254.25,-399 254.25,-411 254.25,-411 254.25,-417 248.25,-423 242.25,-423"/>
<text xml:space="preserve" text-anchor="middle" x="182.88" y="-401.5" font-family="Arial" font-size="10.00" fill="#1a1a1a">(+) ambiguous representation</text>
</g>
<!-- unknown.image_icons&#45;&gt;attr_6 -->
<g id="edge6" class="edge">
<title>unknown.image_icons&#45;&gt;attr_6</title>
<path fill="none" stroke="#aaaaaa" d="M69.26,-379.65C79.43,-381.94 91.04,-384.56 102.84,-387.21"/>
<polygon fill="#aaaaaa" stroke="#aaaaaa" points="102.19,-389.58 109.56,-388.72 103.26,-384.8 102.19,-389.58"/>
</g>
<!-- rel_1 -->
<g id="node14" class="node">
<title>rel_1</title>
<path fill="#f5b8b8" stroke="#d46a6a" stroke-width="1.2" d="M198.75,-358C198.75,-358 167,-358 167,-358 161,-358 155,-352 155,-346 155,-346 155,-334 155,-334 155,-328 161,-322 167,-322 167,-322 198.75,-322 198.75,-322 204.75,-322 210.75,-328 210.75,-334 210.75,-334 210.75,-346 210.75,-346 210.75,-352 204.75,-358 198.75,-358"/>
<text xml:space="preserve" text-anchor="middle" x="182.88" y="-336.5" font-family="Arial" font-size="10.00" fill="#8b0000">obscures</text>
</g>
<!-- unknown.image_icons&#45;&gt;rel_1 -->
<g id="edge10" class="edge">
<title>unknown.image_icons&#45;&gt;rel_1</title>
<path fill="none" stroke="#d46a6a" stroke-width="1.5" d="M69.26,-364.58C91.81,-359.66 121.4,-353.2 144.59,-348.14"/>
<polygon fill="#d46a6a" stroke="#d46a6a" stroke-width="1.5" points="144.99,-350.92 152.21,-346.47 143.79,-345.45 144.99,-350.92"/>
</g>
<!-- furniture.legend -->
<g id="node4" class="node">
<title>furniture.legend</title>
<path fill="#b8e6b8" stroke="#2c3e50" stroke-width="1.8" d="M353.62,-358C353.62,-358 323.62,-358 323.62,-358 317.62,-358 311.62,-352 311.62,-346 311.62,-346 311.62,-334 311.62,-334 311.62,-328 317.62,-322 323.62,-322 323.62,-322 353.62,-322 353.62,-322 359.62,-322 365.62,-328 365.62,-334 365.62,-334 365.62,-346 365.62,-346 365.62,-352 359.62,-358 353.62,-358"/>
<text xml:space="preserve" text-anchor="middle" x="338.62" y="-336.5" font-family="Arial" font-size="10.00" fill="#1a1a1a">legend</text>
</g>
<!-- attr_3 -->
<g id="node12" class="node">
<title>attr_3</title>
<path fill="#c7b8e6" stroke="#7f8c8d" stroke-width="1.2" d="M559.38,-361C559.38,-361 453.38,-361 453.38,-361 447.38,-361 441.38,-355 441.38,-349 441.38,-349 441.38,-337 441.38,-337 441.38,-331 447.38,-325 453.38,-325 453.38,-325 559.38,-325 559.38,-325 565.38,-325 571.38,-331 571.38,-337 571.38,-337 571.38,-349 571.38,-349 571.38,-355 565.38,-361 559.38,-361"/>
<text xml:space="preserve" text-anchor="middle" x="506.38" y="-339.5" font-family="Arial" font-size="10.00" fill="#1a1a1a">(+) insufficient explanation</text>
</g>
<!-- furniture.legend&#45;&gt;attr_3 -->
<g id="edge7" class="edge">
<title>furniture.legend&#45;&gt;attr_3</title>
<path fill="none" stroke="#aaaaaa" d="M366.26,-340.48C384.26,-340.81 408.98,-341.26 432.59,-341.68"/>
<polygon fill="#aaaaaa" stroke="#aaaaaa" points="432.33,-344.13 439.37,-341.81 432.42,-339.23 432.33,-344.13"/>
</g>
<!-- rel_3 -->
<g id="node16" class="node">
<title>rel_3</title>
<path fill="#f5b8b8" stroke="#d46a6a" stroke-width="1.2" d="M531.62,-296C531.62,-296 481.12,-296 481.12,-296 475.12,-296 469.12,-290 469.12,-284 469.12,-284 469.12,-272 469.12,-272 469.12,-266 475.12,-260 481.12,-260 481.12,-260 531.62,-260 531.62,-260 537.62,-260 543.62,-266 543.62,-272 543.62,-272 543.62,-284 543.62,-284 543.62,-290 537.62,-296 531.62,-296"/>
<text xml:space="preserve" text-anchor="middle" x="506.38" y="-274.5" font-family="Arial" font-size="10.00" fill="#8b0000">fails to clarify</text>
</g>
<!-- furniture.legend&#45;&gt;rel_3 -->
<g id="edge14" class="edge">
<title>furniture.legend&#45;&gt;rel_3</title>
<path fill="none" stroke="#d46a6a" stroke-width="1.5" d="M366.26,-330.04C391.28,-320.68 429.25,-306.48 459.2,-295.27"/>
<polygon fill="#d46a6a" stroke="#d46a6a" stroke-width="1.5" points="459.98,-297.97 466.49,-292.55 458.02,-292.73 459.98,-297.97"/>
</g>
<!-- text.annotation -->
<g id="node5" class="node">
<title>text.annotation</title>
<path fill="#b8e6b8" stroke="#2c3e50" stroke-width="1.8" d="M681.75,-101C681.75,-101 644.75,-101 644.75,-101 638.75,-101 632.75,-95 632.75,-89 632.75,-89 632.75,-77 632.75,-77 632.75,-71 638.75,-65 644.75,-65 644.75,-65 681.75,-65 681.75,-65 687.75,-65 693.75,-71 693.75,-77 693.75,-77 693.75,-89 693.75,-89 693.75,-95 687.75,-101 681.75,-101"/>
<text xml:space="preserve" text-anchor="middle" x="663.25" y="-79.5" font-family="Arial" font-size="10.00" fill="#1a1a1a">annotation</text>
</g>
<!-- rel_0&#45;&gt;unknown.glyph -->
<g id="edge9" class="edge">
<title>rel_0&#45;&gt;unknown.glyph</title>
<path fill="none" stroke="#d46a6a" stroke-width="1.5" d="M471.58,-13.93C401.35,-6.9 235.81,2.16 111.5,-50 90.6,-58.77 71.34,-75.54 57.41,-89.98"/>
<polygon fill="#d46a6a" stroke="#d46a6a" stroke-width="1.5" points="55.58,-87.85 52.17,-95.61 59.68,-91.66 55.58,-87.85"/>
</g>
<!-- rel_1&#45;&gt;furniture.legend -->
<g id="edge11" class="edge">
<title>rel_1&#45;&gt;furniture.legend</title>
<path fill="none" stroke="#d46a6a" stroke-width="1.5" d="M211.01,-340C235.93,-340 273.07,-340 300.69,-340"/>
<polygon fill="#d46a6a" stroke="#d46a6a" stroke-width="1.5" points="300.49,-342.8 308.49,-340 300.49,-337.2 300.49,-342.8"/>
</g>
<!-- rel_2&#45;&gt;unknown.ranking_system -->
<g id="edge13" class="edge">
<title>rel_2&#45;&gt;unknown.ranking_system</title>
<path fill="none" stroke="#d46a6a" stroke-width="1.5" d="M237.22,-83C253.15,-83 270.59,-83 286.38,-83"/>
<polygon fill="#d46a6a" stroke="#d46a6a" stroke-width="1.5" points="286.23,-85.8 294.23,-83 286.23,-80.2 286.23,-85.8"/>
</g>
<!-- rel_3&#45;&gt;unknown.image_icons -->
<g id="edge15" class="edge">
<title>rel_3&#45;&gt;unknown.image_icons</title>
<path fill="none" stroke="#d46a6a" stroke-width="1.5" d="M468.66,-273.56C396.95,-266.42 234.54,-257.83 111.5,-308 91.06,-316.33 72.03,-332.29 58.1,-346.18"/>
<polygon fill="#d46a6a" stroke="#d46a6a" stroke-width="1.5" points="56.43,-343.88 52.87,-351.57 60.45,-347.77 56.43,-343.88"/>
</g>
<!-- rel_4&#45;&gt;text.annotation -->
<g id="edge17" class="edge">
<title>rel_4&#45;&gt;text.annotation</title>
<path fill="none" stroke="#d46a6a" stroke-width="1.5" d="M555.11,-83C576.45,-83 601.34,-83 621.76,-83"/>
<polygon fill="#d46a6a" stroke="#d46a6a" stroke-width="1.5" points="621.71,-85.8 629.71,-83 621.71,-80.2 621.71,-85.8"/>
</g>
</g>
</svg>
