<?xml version="1.0" encoding="UTF-8" standalone="no"?>
<!DOCTYPE svg PUBLIC "-//W3C//DTD SVG 1.1//EN"
 "http://www.w3.org/Graphics/SVG/1.1/DTD/svg11.dtd">
<!-- Generated by graphviz version 14.1.5 (20260411.2331)
 -->
<!-- Title: SciVisJ.821.16.png Pages: 1 -->
<svg width="578pt" height="375pt"
 viewBox="0.00 0.00 578.00 375.00" xmlns="http://www.w3.org/2000/svg" xmlns:xlink="http://www.w3.org/1999/xlink">
<g id="graph0" class="graph" transform="scale(1 1) rotate(0) translate(4 371.25)">
<title>SciVisJ.821.16.png</title>
<polygon fill="white" stroke="none" points="-4,4 -4,-371.25 574.25,-371.25 574.25,4 -4,4"/>
<text xml:space="preserve" text-anchor="start" x="224.38" y="-346.95" font-family="Arial" font-weight="bold" font-size="14.00">SciVisJ.821.16.png</text>
<text xml:space="preserve" text-anchor="start" x="239" y="-327" font-family="Arial" font-size="11.00">Glyph &#160;| &#160;VC = 0.72</text>
<path fill="#b8e6b8" stroke="none" d="M75.75,-302C75.75,-302 83.75,-302 83.75,-302 86.75,-302 89.75,-305 89.75,-308 89.75,-308 89.75,-314 89.75,-314 89.75,-317 86.75,-320 83.75,-320 83.75,-320 75.75,-320 75.75,-320 72.75,-320 69.75,-317 69.75,-314 69.75,-314 69.75,-308 69.75,-308 69.75,-305 72.75,-302 75.75,-302"/>
<path fill="none" stroke="black" d="M75.75,-302C75.75,-302 83.75,-302 83.75,-302 86.75,-302 89.75,-305 89.75,-308 89.75,-308 89.75,-314 89.75,-314 89.75,-317 86.75,-320 83.75,-320 83.75,-320 75.75,-320 75.75,-320 72.75,-320 69.75,-317 69.75,-314 69.75,-314 69.75,-308 69.75,-308 69.75,-305 72.75,-302 75.75,-302"/>
<text xml:space="preserve" text-anchor="start" x="78.25" y="-307.25" font-family="Arial" font-size="10.00"> </text>
<text xml:space="preserve" text-anchor="start" x="93.75" y="-307.25" font-family="Arial" font-size="10.00">Object</text>
<path fill="#c7b8e6" stroke="none" d="M132.25,-302C132.25,-302 140.25,-302 140.25,-302 143.25,-302 146.25,-305 146.25,-308 146.25,-308 146.25,-314 146.25,-314 146.25,-317 143.25,-320 140.25,-320 140.25,-320 132.25,-320 132.25,-320 129.25,-320 126.25,-317 126.25,-314 126.25,-314 126.25,-308 126.25,-308 126.25,-305 129.25,-302 132.25,-302"/>
<path fill="none" stroke="black" d="M132.25,-302C132.25,-302 140.25,-302 140.25,-302 143.25,-302 146.25,-305 146.25,-308 146.25,-308 146.25,-314 146.25,-314 146.25,-317 143.25,-320 140.25,-320 140.25,-320 132.25,-320 132.25,-320 129.25,-320 126.25,-317 126.25,-314 126.25,-314 126.25,-308 126.25,-308 126.25,-305 129.25,-302 132.25,-302"/>
<text xml:space="preserve" text-anchor="start" x="134.75" y="-307.25" font-family="Arial" font-size="10.00"> </text>
<text xml:space="preserve" text-anchor="start" x="150.25" y="-307.25" font-family="Arial" font-size="10.00">Attribute</text>
<path fill="#f5b8b8" stroke="none" d="M197,-302C197,-302 205,-302 205,-302 208,-302 211,-305 211,-308 211,-308 211,-314 211,-314 211,-317 208,-320 205,-320 205,-320 197,-320 197,-320 194,-320 191,-317 191,-314 191,-314 191,-308 191,-308 191,-305 194,-302 197,-302"/>
<path fill="none" stroke="black" d="M197,-302C197,-302 205,-302 205,-302 208,-302 211,-305 211,-308 211,-308 211,-314 211,-314 211,-317 208,-320 205,-320 205,-320 197,-320 197,-320 194,-320 191,-317 191,-314 191,-314 191,-308 191,-308 191,-305 194,-302 197,-302"/>
<text xml:space="preserve" text-anchor="start" x="199.5" y="-307.25" font-family="Arial" font-size="10.00"> </text>
<text xml:space="preserve" text-anchor="start" x="215" y="-307.25" font-family="Arial" font-size="10.00">Relationship</text>
<text xml:space="preserve" text-anchor="start" x="275" y="-308.5" font-family="Arial" font-weight="bold" font-size="10.00">(+)</text>
<text xml:space="preserve" text-anchor="start" x="287" y="-308.5" font-family="Arial" font-size="10.00"> increases complexity</text>
<text xml:space="preserve" text-anchor="start" x="388.25" y="-308.5" font-family="Arial" font-weight="bold" font-size="10.00">(−)</text>
<text xml:space="preserve" text-anchor="start" x="400.25" y="-308.5" font-family="Arial" font-size="10.00"> decreases complexity</text>
<!-- property.color -->
<g id="node1" class="node">
<title>property.color</title>
<path fill="#b8e6b8" stroke="#2c3e50" stroke-width="1.8" d="M42.88,-101C42.88,-101 12.88,-101 12.88,-101 6.88,-101 0.88,-95 0.88,-89 0.88,-89 0.88,-77 0.88,-77 0.88,-71 6.88,-65 12.88,-65 12.88,-65 42.88,-65 42.88,-65 48.88,-65 54.88,-71 54.88,-77 54.88,-77 54.88,-89 54.88,-89 54.88,-95 48.88,-101 42.88,-101"/>
<text xml:space="preserve" text-anchor="middle" x="27.88" y="-79.5" font-family="Arial" font-size="10.00" fill="#1a1a1a">color</text>
</g>
<!-- attr_0 -->
<g id="node5" class="node">
<title>attr_0</title>
<path fill="#c7b8e6" stroke="#7f8c8d" stroke-width="1.2" d="M222,-166C222,-166 122.75,-166 122.75,-166 116.75,-166 110.75,-160 110.75,-154 110.75,-154 110.75,-142 110.75,-142 110.75,-136 116.75,-130 122.75,-130 122.75,-130 222,-130 222,-130 228,-130 234,-136 234,-142 234,-142 234,-154 234,-154 234,-160 228,-166 222,-166"/>
<text xml:space="preserve" text-anchor="middle" x="172.38" y="-144.5" font-family="Arial" font-size="10.00" fill="#1a1a1a">(+) unclear color choices</text>
</g>
<!-- property.color&#45;&gt;attr_0 -->
<g id="edge1" class="edge">
<title>property.color&#45;&gt;attr_0</title>
<path fill="none" stroke="#aaaaaa" d="M55.74,-95.33C68.73,-101.28 84.55,-108.52 98.75,-115 106.66,-118.61 115.06,-122.43 123.23,-126.15"/>
<polygon fill="#aaaaaa" stroke="#aaaaaa" points="121.89,-128.23 129.27,-128.89 123.91,-123.77 121.89,-128.23"/>
</g>
<!-- rel_0 -->
<g id="node9" class="node">
<title>rel_0</title>
<path fill="#f5b8b8" stroke="#d46a6a" stroke-width="1.2" d="M188.25,-101C188.25,-101 156.5,-101 156.5,-101 150.5,-101 144.5,-95 144.5,-89 144.5,-89 144.5,-77 144.5,-77 144.5,-71 150.5,-65 156.5,-65 156.5,-65 188.25,-65 188.25,-65 194.25,-65 200.25,-71 200.25,-77 200.25,-77 200.25,-89 200.25,-89 200.25,-95 194.25,-101 188.25,-101"/>
<text xml:space="preserve" text-anchor="middle" x="172.38" y="-79.5" font-family="Arial" font-size="10.00" fill="#8b0000">obscures</text>
</g>
<!-- property.color&#45;&gt;rel_0 -->
<g id="edge5" class="edge">
<title>property.color&#45;&gt;rel_0</title>
<path fill="none" stroke="#d46a6a" stroke-width="1.5" d="M55.68,-83C77.83,-83 109.52,-83 134.14,-83"/>
<polygon fill="#d46a6a" stroke="#d46a6a" stroke-width="1.5" points="133.94,-85.8 141.94,-83 133.94,-80.2 133.94,-85.8"/>
</g>
<!-- rel_2 -->
<g id="node11" class="node">
<title>rel_2</title>
<path fill="#f5b8b8" stroke="#d46a6a" stroke-width="1.2" d="M234,-36C234,-36 110.75,-36 110.75,-36 104.75,-36 98.75,-30 98.75,-24 98.75,-24 98.75,-12 98.75,-12 98.75,-6 104.75,0 110.75,0 110.75,0 234,0 234,0 240,0 246,-6 246,-12 246,-12 246,-24 246,-24 246,-30 240,-36 234,-36"/>
<text xml:space="preserve" text-anchor="middle" x="172.38" y="-14.5" font-family="Arial" font-size="10.00" fill="#8b0000">increases processing effort for</text>
</g>
<!-- property.color&#45;&gt;rel_2 -->
<g id="edge9" class="edge">
<title>property.color&#45;&gt;rel_2</title>
<path fill="none" stroke="#d46a6a" stroke-width="1.5" d="M55.68,-70.14C68.65,-63.97 84.47,-56.52 98.75,-50 105.39,-46.97 112.38,-43.83 119.31,-40.75"/>
<polygon fill="#d46a6a" stroke="#d46a6a" stroke-width="1.5" points="120.41,-43.32 126.59,-37.52 118.14,-38.2 120.41,-43.32"/>
</g>
<!-- unknown.colormap -->
<g id="node2" class="node">
<title>unknown.colormap</title>
<path fill="#b8e6b8" stroke="#2c3e50" stroke-width="1.8" d="M43.75,-263C43.75,-263 12,-263 12,-263 6,-263 0,-257 0,-251 0,-251 0,-239 0,-239 0,-233 6,-227 12,-227 12,-227 43.75,-227 43.75,-227 49.75,-227 55.75,-233 55.75,-239 55.75,-239 55.75,-251 55.75,-251 55.75,-257 49.75,-263 43.75,-263"/>
<text xml:space="preserve" text-anchor="middle" x="27.88" y="-241.5" font-family="Arial" font-size="10.00" fill="#1a1a1a">colormap</text>
</g>
<!-- attr_1 -->
<g id="node6" class="node">
<title>attr_1</title>
<path fill="#c7b8e6" stroke="#7f8c8d" stroke-width="1.2" d="M231.38,-296C231.38,-296 113.38,-296 113.38,-296 107.38,-296 101.38,-290 101.38,-284 101.38,-284 101.38,-272 101.38,-272 101.38,-266 107.38,-260 113.38,-260 113.38,-260 231.38,-260 231.38,-260 237.38,-260 243.38,-266 243.38,-272 243.38,-272 243.38,-284 243.38,-284 243.38,-290 237.38,-296 231.38,-296"/>
<text xml:space="preserve" text-anchor="middle" x="172.38" y="-274.5" font-family="Arial" font-size="10.00" fill="#1a1a1a">(+) ambiguous color mapping</text>
</g>
<!-- unknown.colormap&#45;&gt;attr_1 -->
<g id="edge2" class="edge">
<title>unknown.colormap&#45;&gt;attr_1</title>
<path fill="none" stroke="#aaaaaa" d="M56.35,-251.36C66.93,-253.81 79.62,-256.75 92.64,-259.77"/>
<polygon fill="#aaaaaa" stroke="#aaaaaa" points="91.93,-262.12 99.3,-261.31 93.04,-257.34 91.93,-262.12"/>
</g>
<!-- rel_1 -->
<g id="node10" class="node">
<title>rel_1</title>
<path fill="#f5b8b8" stroke="#d46a6a" stroke-width="1.2" d="M214.12,-231C214.12,-231 130.62,-231 130.62,-231 124.62,-231 118.62,-225 118.62,-219 118.62,-219 118.62,-207 118.62,-207 118.62,-201 124.62,-195 130.62,-195 130.62,-195 214.12,-195 214.12,-195 220.12,-195 226.12,-201 226.12,-207 226.12,-207 226.12,-219 226.12,-219 226.12,-225 220.12,-231 214.12,-231"/>
<text xml:space="preserve" text-anchor="middle" x="172.38" y="-209.5" font-family="Arial" font-size="10.00" fill="#8b0000">requires expertise for</text>
</g>
<!-- unknown.colormap&#45;&gt;rel_1 -->
<g id="edge7" class="edge">
<title>unknown.colormap&#45;&gt;rel_1</title>
<path fill="none" stroke="#d46a6a" stroke-width="1.5" d="M56.35,-238.83C71.16,-235.5 90.09,-231.25 108.29,-227.17"/>
<polygon fill="#d46a6a" stroke="#d46a6a" stroke-width="1.5" points="108.89,-229.9 116.09,-225.42 107.67,-224.44 108.89,-229.9"/>
</g>
<!-- unknown.glyph -->
<g id="node3" class="node">
<title>unknown.glyph</title>
<path fill="#b8e6b8" stroke="#2c3e50" stroke-width="1.8" d="M343.5,-68C343.5,-68 313.5,-68 313.5,-68 307.5,-68 301.5,-62 301.5,-56 301.5,-56 301.5,-44 301.5,-44 301.5,-38 307.5,-32 313.5,-32 313.5,-32 343.5,-32 343.5,-32 349.5,-32 355.5,-38 355.5,-44 355.5,-44 355.5,-56 355.5,-56 355.5,-62 349.5,-68 343.5,-68"/>
<text xml:space="preserve" text-anchor="middle" x="328.5" y="-46.5" font-family="Arial" font-size="10.00" fill="#1a1a1a">glyph</text>
</g>
<!-- attr_2 -->
<g id="node7" class="node">
<title>attr_2</title>
<path fill="#c7b8e6" stroke="#7f8c8d" stroke-width="1.2" d="M558.25,-68C558.25,-68 423,-68 423,-68 417,-68 411,-62 411,-56 411,-56 411,-44 411,-44 411,-38 417,-32 423,-32 423,-32 558.25,-32 558.25,-32 564.25,-32 570.25,-38 570.25,-44 570.25,-44 570.25,-56 570.25,-56 570.25,-62 564.25,-68 558.25,-68"/>
<text xml:space="preserve" text-anchor="middle" x="490.62" y="-46.5" font-family="Arial" font-size="10.00" fill="#1a1a1a">(+) color dependent interpretation</text>
</g>
<!-- unknown.glyph&#45;&gt;attr_2 -->
<g id="edge3" class="edge">
<title>unknown.glyph&#45;&gt;attr_2</title>
<path fill="none" stroke="#aaaaaa" d="M356.3,-50C369.23,-50 385.55,-50 402.3,-50"/>
<polygon fill="#aaaaaa" stroke="#aaaaaa" points="402.03,-52.45 409.03,-50 402.03,-47.55 402.03,-52.45"/>
</g>
<!-- unknown.color_encoding -->
<g id="node4" class="node">
<title>unknown.color_encoding</title>
<path fill="#b8e6b8" stroke="#2c3e50" stroke-width="1.8" d="M356,-231C356,-231 301,-231 301,-231 295,-231 289,-225 289,-219 289,-219 289,-207 289,-207 289,-201 295,-195 301,-195 301,-195 356,-195 356,-195 362,-195 368,-201 368,-207 368,-207 368,-219 368,-219 368,-225 362,-231 356,-231"/>
<text xml:space="preserve" text-anchor="middle" x="328.5" y="-209.5" font-family="Arial" font-size="10.00" fill="#1a1a1a">color encoding</text>
</g>
<!-- attr_3 -->
<g id="node8" class="node">
<title>attr_3</title>
<path fill="#c7b8e6" stroke="#7f8c8d" stroke-width="1.2" d="M532.38,-231C532.38,-231 448.88,-231 448.88,-231 442.88,-231 436.88,-225 436.88,-219 436.88,-219 436.88,-207 436.88,-207 436.88,-201 442.88,-195 448.88,-195 448.88,-195 532.38,-195 532.38,-195 538.38,-195 544.38,-201 544.38,-207 544.38,-207 544.38,-219 544.38,-219 544.38,-225 538.38,-231 532.38,-231"/>
<text xml:space="preserve" text-anchor="middle" x="490.62" y="-209.5" font-family="Arial" font-size="10.00" fill="#1a1a1a">(+) difficult to decode</text>
</g>
<!-- unknown.color_encoding&#45;&gt;attr_3 -->
<g id="edge4" class="edge">
<title>unknown.color_encoding&#45;&gt;attr_3</title>
<path fill="none" stroke="#aaaaaa" d="M368.67,-213C386.49,-213 408.01,-213 427.93,-213"/>
<polygon fill="#aaaaaa" stroke="#aaaaaa" points="427.84,-215.45 434.84,-213 427.84,-210.55 427.84,-215.45"/>
</g>
<!-- rel_0&#45;&gt;unknown.glyph -->
<g id="edge6" class="edge">
<title>rel_0&#45;&gt;unknown.glyph</title>
<path fill="none" stroke="#d46a6a" stroke-width="1.5" d="M200.57,-77.18C225.74,-71.79 263.35,-63.74 291.09,-57.79"/>
<polygon fill="#d46a6a" stroke="#d46a6a" stroke-width="1.5" points="291.37,-60.6 298.61,-56.19 290.2,-55.12 291.37,-60.6"/>
</g>
<!-- rel_1&#45;&gt;unknown.color_encoding -->
<g id="edge8" class="edge">
<title>rel_1&#45;&gt;unknown.color_encoding</title>
<path fill="none" stroke="#d46a6a" stroke-width="1.5" d="M226.42,-213C243.29,-213 261.87,-213 278.45,-213"/>
<polygon fill="#d46a6a" stroke="#d46a6a" stroke-width="1.5" points="278.21,-215.8 286.21,-213 278.21,-210.2 278.21,-215.8"/>
</g>
<!-- rel_2&#45;&gt;unknown.glyph -->
<g id="edge10" class="edge">
<title>rel_2&#45;&gt;unknown.glyph</title>
<path fill="none" stroke="#d46a6a" stroke-width="1.5" d="M246.38,-33.16C261.88,-36.37 277.6,-39.64 291.02,-42.43"/>
<polygon fill="#d46a6a" stroke="#d46a6a" stroke-width="1.5" points="290.17,-45.11 298.57,-43.99 291.31,-39.63 290.17,-45.11"/>
</g>
</g>
</svg>
