<?xml version="1.0" encoding="UTF-8" standalone="no"?>
<!DOCTYPE svg PUBLIC "-//W3C//DTD SVG 1.1//EN"
 "http://www.w3.org/Graphics/SVG/1.1/DTD/svg11.dtd">
<!-- Generated by graphviz version 14.1.5 (20260411.2331)
 -->
<!-- Title: SciVisJ.822.12.png Pages: 1 -->
<svg width="801pt" height="368pt"
 viewBox="0.00 0.00 801.00 368.00" xmlns="http://www.w3.org/2000/svg" xmlns:xlink="http://www.w3.org/1999/xlink">
<g id="graph0" class="graph" transform="scale(1 1) rotate(0) translate(4 364.25)">
<title>SciVisJ.822.12.png</title>
<polygon fill="white" stroke="none" points="-4,4 -4,-364.25 796.5,-364.25 796.5,4 -4,4"/>
<text xml:space="preserve" text-anchor="start" x="335.5" y="-339.95" font-family="Arial" font-weight="bold" font-size="14.00">SciVisJ.822.12.png</text>
<text xml:space="preserve" text-anchor="start" x="353.88" y="-320" font-family="Arial" font-size="11.00">Grid &#160;| &#160;VC = 0.77</text>
<path fill="#b8e6b8" stroke="none" d="M186.88,-295C186.88,-295 194.88,-295 194.88,-295 197.88,-295 200.88,-298 200.88,-301 200.88,-301 200.88,-307 200.88,-307 200.88,-310 197.88,-313 194.88,-313 194.88,-313 186.88,-313 186.88,-313 183.88,-313 180.88,-310 180.88,-307 180.88,-307 180.88,-301 180.88,-301 180.88,-298 183.88,-295 186.88,-295"/>
<path fill="none" stroke="black" d="M186.88,-295C186.88,-295 194.88,-295 194.88,-295 197.88,-295 200.88,-298 200.88,-301 200.88,-301 200.88,-307 200.88,-307 200.88,-310 197.88,-313 194.88,-313 194.88,-313 186.88,-313 186.88,-313 183.88,-313 180.88,-310 180.88,-307 180.88,-307 180.88,-301 180.88,-301 180.88,-298 183.88,-295 186.88,-295"/>
<text xml:space="preserve" text-anchor="start" x="189.38" y="-300.25" font-family="Arial" font-size="10.00"> </text>
<text xml:space="preserve" text-anchor="start" x="204.88" y="-300.25" font-family="Arial" font-size="10.00">Object</text>
<path fill="#c7b8e6" stroke="none" d="M243.38,-295C243.38,-295 251.38,-295 251.38,-295 254.38,-295 257.38,-298 257.38,-301 257.38,-301 257.38,-307 257.38,-307 257.38,-310 254.38,-313 251.38,-313 251.38,-313 243.38,-313 243.38,-313 240.38,-313 237.38,-310 237.38,-307 237.38,-307 237.38,-301 237.38,-301 237.38,-298 240.38,-295 243.38,-295"/>
<path fill="none" stroke="black" d="M243.38,-295C243.38,-295 251.38,-295 251.38,-295 254.38,-295 257.38,-298 257.38,-301 257.38,-301 257.38,-307 257.38,-307 257.38,-310 254.38,-313 251.38,-313 251.38,-313 243.38,-313 243.38,-313 240.38,-313 237.38,-310 237.38,-307 237.38,-307 237.38,-301 237.38,-301 237.38,-298 240.38,-295 243.38,-295"/>
<text xml:space="preserve" text-anchor="start" x="245.88" y="-300.25" font-family="Arial" font-size="10.00"> </text>
<text xml:space="preserve" text-anchor="start" x="261.38" y="-300.25" font-family="Arial" font-size="10.00">Attribute</text>
<path fill="#f5b8b8" stroke="none" d="M308.12,-295C308.12,-295 316.12,-295 316.12,-295 319.12,-295 322.12,-298 322.12,-301 322.12,-301 322.12,-307 322.12,-307 322.12,-310 319.12,-313 316.12,-313 316.12,-313 308.12,-313 308.12,-313 305.12,-313 302.12,-310 302.12,-307 302.12,-307 302.12,-301 302.12,-301 302.12,-298 305.12,-295 308.12,-295"/>
<path fill="none" stroke="black" d="M308.12,-295C308.12,-295 316.12,-295 316.12,-295 319.12,-295 322.12,-298 322.12,-301 322.12,-301 322.12,-307 322.12,-307 322.12,-310 319.12,-313 316.12,-313 316.12,-313 308.12,-313 308.12,-313 305.12,-313 302.12,-310 302.12,-307 302.12,-307 302.12,-301 302.12,-301 302.12,-298 305.12,-295 308.12,-295"/>
<text xml:space="preserve" text-anchor="start" x="310.62" y="-300.25" font-family="Arial" font-size="10.00"> </text>
<text xml:space="preserve" text-anchor="start" x="326.12" y="-300.25" font-family="Arial" font-size="10.00">Relationship</text>
<text xml:space="preserve" text-anchor="start" x="386.12" y="-301.5" font-family="Arial" font-weight="bold" font-size="10.00">(+)</text>
<text xml:space="preserve" text-anchor="start" x="398.12" y="-301.5" font-family="Arial" font-size="10.00"> increases complexity</text>
<text xml:space="preserve" text-anchor="start" x="499.38" y="-301.5" font-family="Arial" font-weight="bold" font-size="10.00">(−)</text>
<text xml:space="preserve" text-anchor="start" x="511.38" y="-301.5" font-family="Arial" font-size="10.00"> decreases complexity</text>
<!-- property.color -->
<g id="node1" class="node">
<title>property.color</title>
<path fill="#b8e6b8" stroke="#2c3e50" stroke-width="1.8" d="M48.12,-162C48.12,-162 18.12,-162 18.12,-162 12.12,-162 6.12,-156 6.12,-150 6.12,-150 6.12,-138 6.12,-138 6.12,-132 12.12,-126 18.12,-126 18.12,-126 48.12,-126 48.12,-126 54.12,-126 60.12,-132 60.12,-138 60.12,-138 60.12,-150 60.12,-150 60.12,-156 54.12,-162 48.12,-162"/>
<text xml:space="preserve" text-anchor="middle" x="33.12" y="-140.5" font-family="Arial" font-size="10.00" fill="#1a1a1a">color</text>
</g>
<!-- attr_0 -->
<g id="node5" class="node">
<title>attr_0</title>
<path fill="#c7b8e6" stroke="#7f8c8d" stroke-width="1.2" d="M221.25,-224C221.25,-224 134.75,-224 134.75,-224 128.75,-224 122.75,-218 122.75,-212 122.75,-212 122.75,-200 122.75,-200 122.75,-194 128.75,-188 134.75,-188 134.75,-188 221.25,-188 221.25,-188 227.25,-188 233.25,-194 233.25,-200 233.25,-200 233.25,-212 233.25,-212 233.25,-218 227.25,-224 221.25,-224"/>
<text xml:space="preserve" text-anchor="middle" x="178" y="-202.5" font-family="Arial" font-size="10.00" fill="#1a1a1a">(+) dominant blue hue</text>
</g>
<!-- property.color&#45;&gt;attr_0 -->
<g id="edge1" class="edge">
<title>property.color&#45;&gt;attr_0</title>
<path fill="none" stroke="#aaaaaa" d="M61,-155.66C79.44,-163.66 104.47,-174.53 126.56,-184.11"/>
<polygon fill="#aaaaaa" stroke="#aaaaaa" points="125.45,-186.3 132.85,-186.84 127.41,-181.81 125.45,-186.3"/>
</g>
<!-- rel_0 -->
<g id="node9" class="node">
<title>rel_0</title>
<path fill="#f5b8b8" stroke="#d46a6a" stroke-width="1.2" d="M338.75,-163C338.75,-163 301.75,-163 301.75,-163 295.75,-163 289.75,-157 289.75,-151 289.75,-151 289.75,-139 289.75,-139 289.75,-133 295.75,-127 301.75,-127 301.75,-127 338.75,-127 338.75,-127 344.75,-127 350.75,-133 350.75,-139 350.75,-139 350.75,-151 350.75,-151 350.75,-157 344.75,-163 338.75,-163"/>
<text xml:space="preserve" text-anchor="middle" x="320.25" y="-141.5" font-family="Arial" font-size="10.00" fill="#8b0000">dominates</text>
</g>
<!-- property.color&#45;&gt;rel_0 -->
<g id="edge5" class="edge">
<title>property.color&#45;&gt;rel_0</title>
<path fill="none" stroke="#d46a6a" stroke-width="1.5" d="M60.95,-144.09C111.3,-144.27 220.19,-144.65 279.24,-144.86"/>
<polygon fill="#d46a6a" stroke="#d46a6a" stroke-width="1.5" points="279.03,-147.66 287.04,-144.89 279.05,-142.06 279.03,-147.66"/>
</g>
<!-- rel_1 -->
<g id="node10" class="node">
<title>rel_1</title>
<path fill="#f5b8b8" stroke="#d46a6a" stroke-width="1.2" d="M215.62,-99C215.62,-99 140.38,-99 140.38,-99 134.38,-99 128.38,-93 128.38,-87 128.38,-87 128.38,-75 128.38,-75 128.38,-69 134.38,-63 140.38,-63 140.38,-63 215.62,-63 215.62,-63 221.62,-63 227.62,-69 227.62,-75 227.62,-75 227.62,-87 227.62,-87 227.62,-93 221.62,-99 215.62,-99"/>
<text xml:space="preserve" text-anchor="middle" x="178" y="-77.5" font-family="Arial" font-size="10.00" fill="#8b0000">reduces contrast in</text>
</g>
<!-- property.color&#45;&gt;rel_1 -->
<g id="edge7" class="edge">
<title>property.color&#45;&gt;rel_1</title>
<path fill="none" stroke="#d46a6a" stroke-width="1.5" d="M61,-132.15C79.25,-124.1 103.96,-113.21 125.88,-103.54"/>
<polygon fill="#d46a6a" stroke="#d46a6a" stroke-width="1.5" points="126.81,-106.19 133,-100.4 124.55,-101.07 126.81,-106.19"/>
</g>
<!-- structure.grid -->
<g id="node2" class="node">
<title>structure.grid</title>
<path fill="#b8e6b8" stroke="#2c3e50" stroke-width="1.8" d="M335.25,-98C335.25,-98 305.25,-98 305.25,-98 299.25,-98 293.25,-92 293.25,-86 293.25,-86 293.25,-74 293.25,-74 293.25,-68 299.25,-62 305.25,-62 305.25,-62 335.25,-62 335.25,-62 341.25,-62 347.25,-68 347.25,-74 347.25,-74 347.25,-86 347.25,-86 347.25,-92 341.25,-98 335.25,-98"/>
<text xml:space="preserve" text-anchor="middle" x="320.25" y="-76.5" font-family="Arial" font-size="10.00" fill="#1a1a1a">grid</text>
</g>
<!-- attr_1 -->
<g id="node6" class="node">
<title>attr_1</title>
<path fill="#c7b8e6" stroke="#7f8c8d" stroke-width="1.2" d="M487,-101C487,-101 405.75,-101 405.75,-101 399.75,-101 393.75,-95 393.75,-89 393.75,-89 393.75,-77 393.75,-77 393.75,-71 399.75,-65 405.75,-65 405.75,-65 487,-65 487,-65 493,-65 499,-71 499,-77 499,-77 499,-89 499,-89 499,-95 493,-101 487,-101"/>
<text xml:space="preserve" text-anchor="middle" x="446.38" y="-79.5" font-family="Arial" font-size="10.00" fill="#1a1a1a">(+) grid based layout</text>
</g>
<!-- structure.grid&#45;&gt;attr_1 -->
<g id="edge2" class="edge">
<title>structure.grid&#45;&gt;attr_1</title>
<path fill="none" stroke="#aaaaaa" d="M347.88,-80.64C358.75,-80.91 371.8,-81.22 384.76,-81.54"/>
<polygon fill="#aaaaaa" stroke="#aaaaaa" points="384.67,-83.98 391.73,-81.7 384.79,-79.08 384.67,-83.98"/>
</g>
<!-- rel_2 -->
<g id="node11" class="node">
<title>rel_2</title>
<path fill="#f5b8b8" stroke="#d46a6a" stroke-width="1.2" d="M464.12,-36C464.12,-36 428.62,-36 428.62,-36 422.62,-36 416.62,-30 416.62,-24 416.62,-24 416.62,-12 416.62,-12 416.62,-6 422.62,0 428.62,0 428.62,0 464.12,0 464.12,0 470.12,0 476.12,-6 476.12,-12 476.12,-12 476.12,-24 476.12,-24 476.12,-30 470.12,-36 464.12,-36"/>
<text xml:space="preserve" text-anchor="middle" x="446.38" y="-14.5" font-family="Arial" font-size="10.00" fill="#8b0000">structures</text>
</g>
<!-- structure.grid&#45;&gt;rel_2 -->
<g id="edge9" class="edge">
<title>structure.grid&#45;&gt;rel_2</title>
<path fill="none" stroke="#d46a6a" stroke-width="1.5" d="M347.88,-66.7C365.14,-58.08 387.91,-46.71 407.1,-37.12"/>
<polygon fill="#d46a6a" stroke="#d46a6a" stroke-width="1.5" points="408.25,-39.67 414.16,-33.59 405.75,-34.66 408.25,-39.67"/>
</g>
<!-- unknown.background -->
<g id="node3" class="node">
<title>unknown.background</title>
<path fill="#b8e6b8" stroke="#2c3e50" stroke-width="1.8" d="M54.25,-289C54.25,-289 12,-289 12,-289 6,-289 0,-283 0,-277 0,-277 0,-265 0,-265 0,-259 6,-253 12,-253 12,-253 54.25,-253 54.25,-253 60.25,-253 66.25,-259 66.25,-265 66.25,-265 66.25,-277 66.25,-277 66.25,-283 60.25,-289 54.25,-289"/>
<text xml:space="preserve" text-anchor="middle" x="33.12" y="-267.5" font-family="Arial" font-size="10.00" fill="#1a1a1a">background</text>
</g>
<!-- attr_2 -->
<g id="node7" class="node">
<title>attr_2</title>
<path fill="#c7b8e6" stroke="#7f8c8d" stroke-width="1.2" d="M234.75,-289C234.75,-289 121.25,-289 121.25,-289 115.25,-289 109.25,-283 109.25,-277 109.25,-277 109.25,-265 109.25,-265 109.25,-259 115.25,-253 121.25,-253 121.25,-253 234.75,-253 234.75,-253 240.75,-253 246.75,-259 246.75,-265 246.75,-265 246.75,-277 246.75,-277 246.75,-283 240.75,-289 234.75,-289"/>
<text xml:space="preserve" text-anchor="middle" x="178" y="-267.5" font-family="Arial" font-size="10.00" fill="#1a1a1a">(+) low contrast background</text>
</g>
<!-- unknown.background&#45;&gt;attr_2 -->
<g id="edge3" class="edge">
<title>unknown.background&#45;&gt;attr_2</title>
<path fill="none" stroke="#aaaaaa" d="M66.9,-271C77.08,-271 88.75,-271 100.6,-271"/>
<polygon fill="#aaaaaa" stroke="#aaaaaa" points="100.31,-273.45 107.31,-271 100.31,-268.55 100.31,-273.45"/>
</g>
<!-- unknown.image_content -->
<g id="node4" class="node">
<title>unknown.image_content</title>
<path fill="#b8e6b8" stroke="#2c3e50" stroke-width="1.8" d="M607.5,-99C607.5,-99 554,-99 554,-99 548,-99 542,-93 542,-87 542,-87 542,-75 542,-75 542,-69 548,-63 554,-63 554,-63 607.5,-63 607.5,-63 613.5,-63 619.5,-69 619.5,-75 619.5,-75 619.5,-87 619.5,-87 619.5,-93 613.5,-99 607.5,-99"/>
<text xml:space="preserve" text-anchor="middle" x="580.75" y="-77.5" font-family="Arial" font-size="10.00" fill="#1a1a1a">image content</text>
</g>
<!-- attr_3 -->
<g id="node8" class="node">
<title>attr_3</title>
<path fill="#c7b8e6" stroke="#7f8c8d" stroke-width="1.2" d="M780.5,-99C780.5,-99 674.5,-99 674.5,-99 668.5,-99 662.5,-93 662.5,-87 662.5,-87 662.5,-75 662.5,-75 662.5,-69 668.5,-63 674.5,-63 674.5,-63 780.5,-63 780.5,-63 786.5,-63 792.5,-69 792.5,-75 792.5,-75 792.5,-87 792.5,-87 792.5,-93 786.5,-99 780.5,-99"/>
<text xml:space="preserve" text-anchor="middle" x="727.5" y="-77.5" font-family="Arial" font-size="10.00" fill="#1a1a1a">(+) abstract visual content</text>
</g>
<!-- unknown.image_content&#45;&gt;attr_3 -->
<g id="edge4" class="edge">
<title>unknown.image_content&#45;&gt;attr_3</title>
<path fill="none" stroke="#aaaaaa" d="M620.16,-81C630.54,-81 642.12,-81 653.72,-81"/>
<polygon fill="#aaaaaa" stroke="#aaaaaa" points="653.64,-83.45 660.64,-81 653.64,-78.55 653.64,-83.45"/>
</g>
<!-- rel_0&#45;&gt;unknown.image_content -->
<g id="edge6" class="edge">
<title>rel_0&#45;&gt;unknown.image_content</title>
<path fill="none" stroke="#d46a6a" stroke-width="1.5" d="M351.29,-142.08C387.02,-138.11 448.21,-129.76 499,-115 509.96,-111.81 521.43,-107.58 532.17,-103.18"/>
<polygon fill="#d46a6a" stroke="#d46a6a" stroke-width="1.5" points="533.01,-105.86 539.3,-100.17 530.84,-100.7 533.01,-105.86"/>
</g>
<!-- rel_1&#45;&gt;structure.grid -->
<g id="edge8" class="edge">
<title>rel_1&#45;&gt;structure.grid</title>
<path fill="none" stroke="#d46a6a" stroke-width="1.5" d="M228.05,-80.65C245.98,-80.52 265.93,-80.38 282.58,-80.26"/>
<polygon fill="#d46a6a" stroke="#d46a6a" stroke-width="1.5" points="282.23,-83.06 290.21,-80.21 282.19,-77.46 282.23,-83.06"/>
</g>
<!-- rel_2&#45;&gt;unknown.image_content -->
<g id="edge10" class="edge">
<title>rel_2&#45;&gt;unknown.image_content</title>
<path fill="none" stroke="#d46a6a" stroke-width="1.5" d="M476.43,-31.83C492.7,-39.57 513.41,-49.43 532.01,-58.28"/>
<polygon fill="#d46a6a" stroke="#d46a6a" stroke-width="1.5" points="530.74,-60.78 539.17,-61.69 533.15,-55.72 530.74,-60.78"/>
</g>
</g>
</svg>
