<?xml version="1.0" encoding="UTF-8" standalone="no"?>
<!DOCTYPE svg PUBLIC "-//W3C//DTD SVG 1.1//EN"
 "http://www.w3.org/Graphics/SVG/1.1/DTD/svg11.dtd">
<!-- Generated by graphviz version 14.1.5 (20260411.2331)
 -->
<!-- Title: SciVisJ.807.5(2).png Pages: 1 -->
<svg width="761pt" height="505pt"
 viewBox="0.00 0.00 761.00 505.00" xmlns="http://www.w3.org/2000/svg" xmlns:xlink="http://www.w3.org/1999/xlink">
<g id="graph0" class="graph" transform="scale(1 1) rotate(0) translate(4 501.25)">
<title>SciVisJ.807.5(2).png</title>
<polygon fill="white" stroke="none" points="-4,4 -4,-501.25 757,-501.25 757,4 -4,4"/>
<text xml:space="preserve" text-anchor="start" x="311.25" y="-476.95" font-family="Arial" font-weight="bold" font-size="14.00">SciVisJ.807.5(2).png</text>
<text xml:space="preserve" text-anchor="start" x="334.12" y="-457" font-family="Arial" font-size="11.00">Grid &#160;| &#160;VC = 0.54</text>
<path fill="#b8e6b8" stroke="none" d="M167.12,-432C167.12,-432 175.12,-432 175.12,-432 178.12,-432 181.12,-435 181.12,-438 181.12,-438 181.12,-444 181.12,-444 181.12,-447 178.12,-450 175.12,-450 175.12,-450 167.12,-450 167.12,-450 164.12,-450 161.12,-447 161.12,-444 161.12,-444 161.12,-438 161.12,-438 161.12,-435 164.12,-432 167.12,-432"/>
<path fill="none" stroke="black" d="M167.12,-432C167.12,-432 175.12,-432 175.12,-432 178.12,-432 181.12,-435 181.12,-438 181.12,-438 181.12,-444 181.12,-444 181.12,-447 178.12,-450 175.12,-450 175.12,-450 167.12,-450 167.12,-450 164.12,-450 161.12,-447 161.12,-444 161.12,-444 161.12,-438 161.12,-438 161.12,-435 164.12,-432 167.12,-432"/>
<text xml:space="preserve" text-anchor="start" x="169.62" y="-437.25" font-family="Arial" font-size="10.00"> </text>
<text xml:space="preserve" text-anchor="start" x="185.12" y="-437.25" font-family="Arial" font-size="10.00">Object</text>
<path fill="#c7b8e6" stroke="none" d="M223.62,-432C223.62,-432 231.62,-432 231.62,-432 234.62,-432 237.62,-435 237.62,-438 237.62,-438 237.62,-444 237.62,-444 237.62,-447 234.62,-450 231.62,-450 231.62,-450 223.62,-450 223.62,-450 220.62,-450 217.62,-447 217.62,-444 217.62,-444 217.62,-438 217.62,-438 217.62,-435 220.62,-432 223.62,-432"/>
<path fill="none" stroke="black" d="M223.62,-432C223.62,-432 231.62,-432 231.62,-432 234.62,-432 237.62,-435 237.62,-438 237.62,-438 237.62,-444 237.62,-444 237.62,-447 234.62,-450 231.62,-450 231.62,-450 223.62,-450 223.62,-450 220.62,-450 217.62,-447 217.62,-444 217.62,-444 217.62,-438 217.62,-438 217.62,-435 220.62,-432 223.62,-432"/>
<text xml:space="preserve" text-anchor="start" x="226.12" y="-437.25" font-family="Arial" font-size="10.00"> </text>
<text xml:space="preserve" text-anchor="start" x="241.62" y="-437.25" font-family="Arial" font-size="10.00">Attribute</text>
<path fill="#f5b8b8" stroke="none" d="M288.38,-432C288.38,-432 296.38,-432 296.38,-432 299.38,-432 302.38,-435 302.38,-438 302.38,-438 302.38,-444 302.38,-444 302.38,-447 299.38,-450 296.38,-450 296.38,-450 288.38,-450 288.38,-450 285.38,-450 282.38,-447 282.38,-444 282.38,-444 282.38,-438 282.38,-438 282.38,-435 285.38,-432 288.38,-432"/>
<path fill="none" stroke="black" d="M288.38,-432C288.38,-432 296.38,-432 296.38,-432 299.38,-432 302.38,-435 302.38,-438 302.38,-438 302.38,-444 302.38,-444 302.38,-447 299.38,-450 296.38,-450 296.38,-450 288.38,-450 288.38,-450 285.38,-450 282.38,-447 282.38,-444 282.38,-444 282.38,-438 282.38,-438 282.38,-435 285.38,-432 288.38,-432"/>
<text xml:space="preserve" text-anchor="start" x="290.88" y="-437.25" font-family="Arial" font-size="10.00"> </text>
<text xml:space="preserve" text-anchor="start" x="306.38" y="-437.25" font-family="Arial" font-size="10.00">Relationship</text>
<text xml:space="preserve" text-anchor="start" x="366.38" y="-438.5" font-family="Arial" font-weight="bold" font-size="10.00">(+)</text>
<text xml:space="preserve" text-anchor="start" x="378.38" y="-438.5" font-family="Arial" font-size="10.00"> increases complexity</text>
<text xml:space="preserve" text-anchor="start" x="479.62" y="-438.5" font-family="Arial" font-weight="bold" font-size="10.00">(−)</text>
<text xml:space="preserve" text-anchor="start" x="491.62" y="-438.5" font-family="Arial" font-size="10.00"> decreases complexity</text>
<!-- unknown.squares -->
<g id="node1" class="node">
<title>unknown.squares</title>
<path fill="#b8e6b8" stroke="#2c3e50" stroke-width="1.8" d="M576.25,-166C576.25,-166 546.25,-166 546.25,-166 540.25,-166 534.25,-160 534.25,-154 534.25,-154 534.25,-142 534.25,-142 534.25,-136 540.25,-130 546.25,-130 546.25,-130 576.25,-130 576.25,-130 582.25,-130 588.25,-136 588.25,-142 588.25,-142 588.25,-154 588.25,-154 588.25,-160 582.25,-166 576.25,-166"/>
<text xml:space="preserve" text-anchor="middle" x="561.25" y="-144.5" font-family="Arial" font-size="10.00" fill="#1a1a1a">squares</text>
</g>
<!-- attr_0 -->
<g id="node6" class="node">
<title>attr_0</title>
<path fill="#c7b8e6" stroke="#7f8c8d" stroke-width="1.2" d="M741,-199C741,-199 643.25,-199 643.25,-199 637.25,-199 631.25,-193 631.25,-187 631.25,-187 631.25,-175 631.25,-175 631.25,-169 637.25,-163 643.25,-163 643.25,-163 741,-163 741,-163 747,-163 753,-169 753,-175 753,-175 753,-187 753,-187 753,-193 747,-199 741,-199"/>
<text xml:space="preserve" text-anchor="middle" x="692.12" y="-177.5" font-family="Arial" font-size="10.00" fill="#1a1a1a">(−) few discrete squares</text>
</g>
<!-- unknown.squares&#45;&gt;attr_0 -->
<g id="edge1" class="edge">
<title>unknown.squares&#45;&gt;attr_0</title>
<path fill="none" stroke="#aaaaaa" d="M588.95,-154.84C598.93,-157.39 610.78,-160.43 622.8,-163.5"/>
<polygon fill="#aaaaaa" stroke="#aaaaaa" points="621.85,-165.79 629.24,-165.15 623.07,-161.04 621.85,-165.79"/>
</g>
<!-- attr_1 -->
<g id="node7" class="node">
<title>attr_1</title>
<path fill="#c7b8e6" stroke="#7f8c8d" stroke-width="1.2" d="M730.88,-134C730.88,-134 653.38,-134 653.38,-134 647.38,-134 641.38,-128 641.38,-122 641.38,-122 641.38,-110 641.38,-110 641.38,-104 647.38,-98 653.38,-98 653.38,-98 730.88,-98 730.88,-98 736.88,-98 742.88,-104 742.88,-110 742.88,-110 742.88,-122 742.88,-122 742.88,-128 736.88,-134 730.88,-134"/>
<text xml:space="preserve" text-anchor="middle" x="692.12" y="-112.5" font-family="Arial" font-size="10.00" fill="#1a1a1a">(−) easy to interpret</text>
</g>
<!-- unknown.squares&#45;&gt;attr_1 -->
<g id="edge2" class="edge">
<title>unknown.squares&#45;&gt;attr_1</title>
<path fill="none" stroke="#aaaaaa" d="M588.95,-141.37C601.76,-138.19 617.64,-134.25 633.03,-130.42"/>
<polygon fill="#aaaaaa" stroke="#aaaaaa" points="633.34,-132.87 639.55,-128.81 632.16,-128.12 633.34,-132.87"/>
</g>
<!-- unknown.axis -->
<g id="node2" class="node">
<title>unknown.axis</title>
<path fill="#b8e6b8" stroke="#2c3e50" stroke-width="1.8" d="M292.25,-361C292.25,-361 262.25,-361 262.25,-361 256.25,-361 250.25,-355 250.25,-349 250.25,-349 250.25,-337 250.25,-337 250.25,-331 256.25,-325 262.25,-325 262.25,-325 292.25,-325 292.25,-325 298.25,-325 304.25,-331 304.25,-337 304.25,-337 304.25,-349 304.25,-349 304.25,-355 298.25,-361 292.25,-361"/>
<text xml:space="preserve" text-anchor="middle" x="277.25" y="-339.5" font-family="Arial" font-size="10.00" fill="#1a1a1a">axis</text>
</g>
<!-- attr_2 -->
<g id="node8" class="node">
<title>attr_2</title>
<path fill="#c7b8e6" stroke="#7f8c8d" stroke-width="1.2" d="M463.12,-426C463.12,-426 378.88,-426 378.88,-426 372.88,-426 366.88,-420 366.88,-414 366.88,-414 366.88,-402 366.88,-402 366.88,-396 372.88,-390 378.88,-390 378.88,-390 463.12,-390 463.12,-390 469.12,-390 475.12,-396 475.12,-402 475.12,-402 475.12,-414 475.12,-414 475.12,-420 469.12,-426 463.12,-426"/>
<text xml:space="preserve" text-anchor="middle" x="421" y="-404.5" font-family="Arial" font-size="10.00" fill="#1a1a1a">(−) clear axis present</text>
</g>
<!-- unknown.axis&#45;&gt;attr_2 -->
<g id="edge3" class="edge">
<title>unknown.axis&#45;&gt;attr_2</title>
<path fill="none" stroke="#aaaaaa" d="M304.91,-355.23C323.79,-363.88 349.64,-375.73 372.05,-386.01"/>
<polygon fill="#aaaaaa" stroke="#aaaaaa" points="370.75,-388.11 378.13,-388.8 372.79,-383.66 370.75,-388.11"/>
</g>
<!-- attr_3 -->
<g id="node9" class="node">
<title>attr_3</title>
<path fill="#c7b8e6" stroke="#7f8c8d" stroke-width="1.2" d="M468.75,-361C468.75,-361 373.25,-361 373.25,-361 367.25,-361 361.25,-355 361.25,-349 361.25,-349 361.25,-337 361.25,-337 361.25,-331 367.25,-325 373.25,-325 373.25,-325 468.75,-325 468.75,-325 474.75,-325 480.75,-331 480.75,-337 480.75,-337 480.75,-349 480.75,-349 480.75,-355 474.75,-361 468.75,-361"/>
<text xml:space="preserve" text-anchor="middle" x="421" y="-339.5" font-family="Arial" font-size="10.00" fill="#1a1a1a">(−) easier to understand</text>
</g>
<!-- unknown.axis&#45;&gt;attr_3 -->
<g id="edge4" class="edge">
<title>unknown.axis&#45;&gt;attr_3</title>
<path fill="none" stroke="#aaaaaa" d="M304.91,-343C318.49,-343 335.67,-343 352.59,-343"/>
<polygon fill="#aaaaaa" stroke="#aaaaaa" points="352.34,-345.45 359.34,-343 352.34,-340.55 352.34,-345.45"/>
</g>
<!-- rel_0 -->
<g id="node13" class="node">
<title>rel_0</title>
<path fill="#f5b8b8" stroke="#d46a6a" stroke-width="1.2" d="M475.5,-296C475.5,-296 366.5,-296 366.5,-296 360.5,-296 354.5,-290 354.5,-284 354.5,-284 354.5,-272 354.5,-272 354.5,-266 360.5,-260 366.5,-260 366.5,-260 475.5,-260 475.5,-260 481.5,-260 487.5,-266 487.5,-272 487.5,-272 487.5,-284 487.5,-284 487.5,-290 481.5,-296 475.5,-296"/>
<text xml:space="preserve" text-anchor="middle" x="421" y="-274.5" font-family="Arial" font-size="10.00" fill="#8b0000">facilitates understanding of</text>
</g>
<!-- unknown.axis&#45;&gt;rel_0 -->
<g id="edge8" class="edge">
<title>unknown.axis&#45;&gt;rel_0</title>
<path fill="none" stroke="#d46a6a" stroke-width="1.5" d="M304.91,-330.77C323.3,-322.34 348.29,-310.88 370.29,-300.79"/>
<polygon fill="#d46a6a" stroke="#d46a6a" stroke-width="1.5" points="371.34,-303.39 377.44,-297.51 369,-298.3 371.34,-303.39"/>
</g>
<!-- property.color -->
<g id="node3" class="node">
<title>property.color</title>
<path fill="#b8e6b8" stroke="#2c3e50" stroke-width="1.8" d="M292.25,-199C292.25,-199 262.25,-199 262.25,-199 256.25,-199 250.25,-193 250.25,-187 250.25,-187 250.25,-175 250.25,-175 250.25,-169 256.25,-163 262.25,-163 262.25,-163 292.25,-163 292.25,-163 298.25,-163 304.25,-169 304.25,-175 304.25,-175 304.25,-187 304.25,-187 304.25,-193 298.25,-199 292.25,-199"/>
<text xml:space="preserve" text-anchor="middle" x="277.25" y="-177.5" font-family="Arial" font-size="10.00" fill="#1a1a1a">color</text>
</g>
<!-- attr_4 -->
<g id="node10" class="node">
<title>attr_4</title>
<path fill="#c7b8e6" stroke="#7f8c8d" stroke-width="1.2" d="M459,-231C459,-231 383,-231 383,-231 377,-231 371,-225 371,-219 371,-219 371,-207 371,-207 371,-201 377,-195 383,-195 383,-195 459,-195 459,-195 465,-195 471,-201 471,-207 471,-207 471,-219 471,-219 471,-225 465,-231 459,-231"/>
<text xml:space="preserve" text-anchor="middle" x="421" y="-209.5" font-family="Arial" font-size="10.00" fill="#1a1a1a">(−) few colors used</text>
</g>
<!-- property.color&#45;&gt;attr_4 -->
<g id="edge5" class="edge">
<title>property.color&#45;&gt;attr_4</title>
<path fill="none" stroke="#aaaaaa" d="M304.91,-187.02C321.12,-190.68 342.47,-195.5 362.38,-199.99"/>
<polygon fill="#aaaaaa" stroke="#aaaaaa" points="361.66,-202.34 369.03,-201.49 362.74,-197.56 361.66,-202.34"/>
</g>
<!-- rel_1 -->
<g id="node14" class="node">
<title>rel_1</title>
<path fill="#f5b8b8" stroke="#d46a6a" stroke-width="1.2" d="M479.25,-166C479.25,-166 362.75,-166 362.75,-166 356.75,-166 350.75,-160 350.75,-154 350.75,-154 350.75,-142 350.75,-142 350.75,-136 356.75,-130 362.75,-130 362.75,-130 479.25,-130 479.25,-130 485.25,-130 491.25,-136 491.25,-142 491.25,-142 491.25,-154 491.25,-154 491.25,-160 485.25,-166 479.25,-166"/>
<text xml:space="preserve" text-anchor="middle" x="421" y="-144.5" font-family="Arial" font-size="10.00" fill="#8b0000">reduces visual complexity of</text>
</g>
<!-- property.color&#45;&gt;rel_1 -->
<g id="edge10" class="edge">
<title>property.color&#45;&gt;rel_1</title>
<path fill="none" stroke="#d46a6a" stroke-width="1.5" d="M304.91,-174.79C315.27,-172.38 327.71,-169.48 340.54,-166.5"/>
<polygon fill="#d46a6a" stroke="#d46a6a" stroke-width="1.5" points="341.03,-169.26 348.19,-164.72 339.76,-163.8 341.03,-169.26"/>
</g>
<!-- unknown.grid_layout -->
<g id="node4" class="node">
<title>unknown.grid_layout</title>
<path fill="#b8e6b8" stroke="#2c3e50" stroke-width="1.8" d="M295.75,-69C295.75,-69 258.75,-69 258.75,-69 252.75,-69 246.75,-63 246.75,-57 246.75,-57 246.75,-45 246.75,-45 246.75,-39 252.75,-33 258.75,-33 258.75,-33 295.75,-33 295.75,-33 301.75,-33 307.75,-39 307.75,-45 307.75,-45 307.75,-57 307.75,-57 307.75,-63 301.75,-69 295.75,-69"/>
<text xml:space="preserve" text-anchor="middle" x="277.25" y="-47.5" font-family="Arial" font-size="10.00" fill="#1a1a1a">grid layout</text>
</g>
<!-- attr_5 -->
<g id="node11" class="node">
<title>attr_5</title>
<path fill="#c7b8e6" stroke="#7f8c8d" stroke-width="1.2" d="M468.75,-101C468.75,-101 373.25,-101 373.25,-101 367.25,-101 361.25,-95 361.25,-89 361.25,-89 361.25,-77 361.25,-77 361.25,-71 367.25,-65 373.25,-65 373.25,-65 468.75,-65 468.75,-65 474.75,-65 480.75,-71 480.75,-77 480.75,-77 480.75,-89 480.75,-89 480.75,-95 474.75,-101 468.75,-101"/>
<text xml:space="preserve" text-anchor="middle" x="421" y="-79.5" font-family="Arial" font-size="10.00" fill="#1a1a1a">(−) simple grid structure</text>
</g>
<!-- unknown.grid_layout&#45;&gt;attr_5 -->
<g id="edge6" class="edge">
<title>unknown.grid_layout&#45;&gt;attr_5</title>
<path fill="none" stroke="#aaaaaa" d="M308.31,-57.79C321.32,-60.72 337.12,-64.29 352.68,-67.8"/>
<polygon fill="#aaaaaa" stroke="#aaaaaa" points="351.94,-70.15 359.31,-69.3 353.02,-65.37 351.94,-70.15"/>
</g>
<!-- rel_2 -->
<g id="node15" class="node">
<title>rel_2</title>
<path fill="#f5b8b8" stroke="#d46a6a" stroke-width="1.2" d="M438,-36C438,-36 404,-36 404,-36 398,-36 392,-30 392,-24 392,-24 392,-12 392,-12 392,-6 398,0 404,0 404,0 438,0 438,0 444,0 450,-6 450,-12 450,-12 450,-24 450,-24 450,-30 444,-36 438,-36"/>
<text xml:space="preserve" text-anchor="middle" x="421" y="-14.5" font-family="Arial" font-size="10.00" fill="#8b0000">organizes</text>
</g>
<!-- unknown.grid_layout&#45;&gt;rel_2 -->
<g id="edge12" class="edge">
<title>unknown.grid_layout&#45;&gt;rel_2</title>
<path fill="none" stroke="#d46a6a" stroke-width="1.5" d="M308.31,-44C329.69,-39.02 358.59,-32.3 381.63,-26.93"/>
<polygon fill="#d46a6a" stroke="#d46a6a" stroke-width="1.5" points="382.06,-29.71 389.22,-25.17 380.79,-24.25 382.06,-29.71"/>
</g>
<!-- text.label -->
<g id="node5" class="node">
<title>text.label</title>
<path fill="#b8e6b8" stroke="#2c3e50" stroke-width="1.8" d="M42,-393C42,-393 12,-393 12,-393 6,-393 0,-387 0,-381 0,-381 0,-369 0,-369 0,-363 6,-357 12,-357 12,-357 42,-357 42,-357 48,-357 54,-363 54,-369 54,-369 54,-381 54,-381 54,-387 48,-393 42,-393"/>
<text xml:space="preserve" text-anchor="middle" x="27" y="-371.5" font-family="Arial" font-size="10.00" fill="#1a1a1a">label</text>
</g>
<!-- attr_6 -->
<g id="node12" class="node">
<title>attr_6</title>
<path fill="#c7b8e6" stroke="#7f8c8d" stroke-width="1.2" d="M191.75,-426C191.75,-426 109,-426 109,-426 103,-426 97,-420 97,-414 97,-414 97,-402 97,-402 97,-396 103,-390 109,-390 109,-390 191.75,-390 191.75,-390 197.75,-390 203.75,-396 203.75,-402 203.75,-402 203.75,-414 203.75,-414 203.75,-420 197.75,-426 191.75,-426"/>
<text xml:space="preserve" text-anchor="middle" x="150.38" y="-404.5" font-family="Arial" font-size="10.00" fill="#1a1a1a">(−) adequate labeling</text>
</g>
<!-- text.label&#45;&gt;attr_6 -->
<g id="edge7" class="edge">
<title>text.label&#45;&gt;attr_6</title>
<path fill="none" stroke="#aaaaaa" d="M54.64,-382.24C64.83,-385.01 76.91,-388.3 88.98,-391.58"/>
<polygon fill="#aaaaaa" stroke="#aaaaaa" points="88.03,-393.86 95.42,-393.33 89.31,-389.13 88.03,-393.86"/>
</g>
<!-- rel_3 -->
<g id="node16" class="node">
<title>rel_3</title>
<path fill="#f5b8b8" stroke="#d46a6a" stroke-width="1.2" d="M165.38,-361C165.38,-361 135.38,-361 135.38,-361 129.38,-361 123.38,-355 123.38,-349 123.38,-349 123.38,-337 123.38,-337 123.38,-331 129.38,-325 135.38,-325 135.38,-325 165.38,-325 165.38,-325 171.38,-325 177.38,-331 177.38,-337 177.38,-337 177.38,-349 177.38,-349 177.38,-355 171.38,-361 165.38,-361"/>
<text xml:space="preserve" text-anchor="middle" x="150.38" y="-339.5" font-family="Arial" font-size="10.00" fill="#8b0000">clarifies</text>
</g>
<!-- text.label&#45;&gt;rel_3 -->
<g id="edge14" class="edge">
<title>text.label&#45;&gt;rel_3</title>
<path fill="none" stroke="#d46a6a" stroke-width="1.5" d="M54.64,-367.98C71.79,-363.45 94.31,-357.52 113.09,-352.57"/>
<polygon fill="#d46a6a" stroke="#d46a6a" stroke-width="1.5" points="113.58,-355.33 120.61,-350.58 112.16,-349.92 113.58,-355.33"/>
</g>
<!-- rel_0&#45;&gt;unknown.squares -->
<g id="edge9" class="edge">
<title>rel_0&#45;&gt;unknown.squares</title>
<path fill="none" stroke="#d46a6a" stroke-width="1.5" d="M470.53,-259.59C477.87,-255.7 485.05,-251.17 491.25,-246 514.64,-226.5 533.83,-197.27 545.99,-175.8"/>
<polygon fill="#d46a6a" stroke="#d46a6a" stroke-width="1.5" points="548.42,-177.19 549.82,-168.83 543.51,-174.49 548.42,-177.19"/>
</g>
<!-- rel_1&#45;&gt;unknown.squares -->
<g id="edge11" class="edge">
<title>rel_1&#45;&gt;unknown.squares</title>
<path fill="none" stroke="#d46a6a" stroke-width="1.5" d="M491.53,-148C502.49,-148 513.44,-148 523.27,-148"/>
<polygon fill="#d46a6a" stroke="#d46a6a" stroke-width="1.5" points="523.18,-150.8 531.18,-148 523.18,-145.2 523.18,-150.8"/>
</g>
<!-- rel_2&#45;&gt;unknown.squares -->
<g id="edge13" class="edge">
<title>rel_2&#45;&gt;unknown.squares</title>
<path fill="none" stroke="#d46a6a" stroke-width="1.5" d="M450.52,-27.76C463.83,-33.22 479.32,-40.98 491.25,-51 514.41,-70.45 533.64,-99.36 545.86,-120.56"/>
<polygon fill="#d46a6a" stroke="#d46a6a" stroke-width="1.5" points="543.36,-121.82 549.71,-127.43 548.24,-119.08 543.36,-121.82"/>
</g>
<!-- rel_3&#45;&gt;unknown.axis -->
<g id="edge15" class="edge">
<title>rel_3&#45;&gt;unknown.axis</title>
<path fill="none" stroke="#d46a6a" stroke-width="1.5" d="M177.86,-343C195.7,-343 219.48,-343 239.2,-343"/>
<polygon fill="#d46a6a" stroke="#d46a6a" stroke-width="1.5" points="239.1,-345.8 247.1,-343 239.1,-340.2 239.1,-345.8"/>
</g>
</g>
</svg>
