<?xml version="1.0" encoding="UTF-8" standalone="no"?>
<!DOCTYPE svg PUBLIC "-//W3C//DTD SVG 1.1//EN"
 "http://www.w3.org/Graphics/SVG/1.1/DTD/svg11.dtd">
<!-- Generated by graphviz version 14.1.5 (20260411.2331)
 -->
<!-- Title: SciVisJ.980.9.png Pages: 1 -->
<svg width="785pt" height="440pt"
 viewBox="0.00 0.00 785.00 440.00" xmlns="http://www.w3.org/2000/svg" xmlns:xlink="http://www.w3.org/1999/xlink">
<g id="graph0" class="graph" transform="scale(1 1) rotate(0) translate(4 436.25)">
<title>SciVisJ.980.9.png</title>
<polygon fill="white" stroke="none" points="-4,4 -4,-436.25 780.5,-436.25 780.5,4 -4,4"/>
<text xml:space="preserve" text-anchor="start" x="331.25" y="-411.95" font-family="Arial" font-weight="bold" font-size="14.00">SciVisJ.980.9.png</text>
<text xml:space="preserve" text-anchor="start" x="342.12" y="-392" font-family="Arial" font-size="11.00">Glyph &#160;| &#160;VC = 0.32</text>
<path fill="#b8e6b8" stroke="none" d="M178.88,-367C178.88,-367 186.88,-367 186.88,-367 189.88,-367 192.88,-370 192.88,-373 192.88,-373 192.88,-379 192.88,-379 192.88,-382 189.88,-385 186.88,-385 186.88,-385 178.88,-385 178.88,-385 175.88,-385 172.88,-382 172.88,-379 172.88,-379 172.88,-373 172.88,-373 172.88,-370 175.88,-367 178.88,-367"/>
<path fill="none" stroke="black" d="M178.88,-367C178.88,-367 186.88,-367 186.88,-367 189.88,-367 192.88,-370 192.88,-373 192.88,-373 192.88,-379 192.88,-379 192.88,-382 189.88,-385 186.88,-385 186.88,-385 178.88,-385 178.88,-385 175.88,-385 172.88,-382 172.88,-379 172.88,-379 172.88,-373 172.88,-373 172.88,-370 175.88,-367 178.88,-367"/>
<text xml:space="preserve" text-anchor="start" x="181.38" y="-372.25" font-family="Arial" font-size="10.00"> </text>
<text xml:space="preserve" text-anchor="start" x="196.88" y="-372.25" font-family="Arial" font-size="10.00">Object</text>
<path fill="#c7b8e6" stroke="none" d="M235.38,-367C235.38,-367 243.38,-367 243.38,-367 246.38,-367 249.38,-370 249.38,-373 249.38,-373 249.38,-379 249.38,-379 249.38,-382 246.38,-385 243.38,-385 243.38,-385 235.38,-385 235.38,-385 232.38,-385 229.38,-382 229.38,-379 229.38,-379 229.38,-373 229.38,-373 229.38,-370 232.38,-367 235.38,-367"/>
<path fill="none" stroke="black" d="M235.38,-367C235.38,-367 243.38,-367 243.38,-367 246.38,-367 249.38,-370 249.38,-373 249.38,-373 249.38,-379 249.38,-379 249.38,-382 246.38,-385 243.38,-385 243.38,-385 235.38,-385 235.38,-385 232.38,-385 229.38,-382 229.38,-379 229.38,-379 229.38,-373 229.38,-373 229.38,-370 232.38,-367 235.38,-367"/>
<text xml:space="preserve" text-anchor="start" x="237.88" y="-372.25" font-family="Arial" font-size="10.00"> </text>
<text xml:space="preserve" text-anchor="start" x="253.38" y="-372.25" font-family="Arial" font-size="10.00">Attribute</text>
<path fill="#f5b8b8" stroke="none" d="M300.12,-367C300.12,-367 308.12,-367 308.12,-367 311.12,-367 314.12,-370 314.12,-373 314.12,-373 314.12,-379 314.12,-379 314.12,-382 311.12,-385 308.12,-385 308.12,-385 300.12,-385 300.12,-385 297.12,-385 294.12,-382 294.12,-379 294.12,-379 294.12,-373 294.12,-373 294.12,-370 297.12,-367 300.12,-367"/>
<path fill="none" stroke="black" d="M300.12,-367C300.12,-367 308.12,-367 308.12,-367 311.12,-367 314.12,-370 314.12,-373 314.12,-373 314.12,-379 314.12,-379 314.12,-382 311.12,-385 308.12,-385 308.12,-385 300.12,-385 300.12,-385 297.12,-385 294.12,-382 294.12,-379 294.12,-379 294.12,-373 294.12,-373 294.12,-370 297.12,-367 300.12,-367"/>
<text xml:space="preserve" text-anchor="start" x="302.62" y="-372.25" font-family="Arial" font-size="10.00"> </text>
<text xml:space="preserve" text-anchor="start" x="318.12" y="-372.25" font-family="Arial" font-size="10.00">Relationship</text>
<text xml:space="preserve" text-anchor="start" x="378.12" y="-373.5" font-family="Arial" font-weight="bold" font-size="10.00">(+)</text>
<text xml:space="preserve" text-anchor="start" x="390.12" y="-373.5" font-family="Arial" font-size="10.00"> increases complexity</text>
<text xml:space="preserve" text-anchor="start" x="491.38" y="-373.5" font-family="Arial" font-weight="bold" font-size="10.00">(−)</text>
<text xml:space="preserve" text-anchor="start" x="503.38" y="-373.5" font-family="Arial" font-size="10.00"> decreases complexity</text>
<!-- whole.visualization -->
<g id="node1" class="node">
<title>whole.visualization</title>
<path fill="#b8e6b8" stroke="#2c3e50" stroke-width="1.8" d="M316,-101C316,-101 286,-101 286,-101 280,-101 274,-95 274,-89 274,-89 274,-77 274,-77 274,-71 280,-65 286,-65 286,-65 316,-65 316,-65 322,-65 328,-71 328,-77 328,-77 328,-89 328,-89 328,-95 322,-101 316,-101"/>
<text xml:space="preserve" text-anchor="middle" x="301" y="-79.5" font-family="Arial" font-size="10.00" fill="#1a1a1a">map</text>
</g>
<!-- attr_0 -->
<g id="node7" class="node">
<title>attr_0</title>
<path fill="#c7b8e6" stroke="#7f8c8d" stroke-width="1.2" d="M497.25,-134C497.25,-134 383,-134 383,-134 377,-134 371,-128 371,-122 371,-122 371,-110 371,-110 371,-104 377,-98 383,-98 383,-98 497.25,-98 497.25,-98 503.25,-98 509.25,-104 509.25,-110 509.25,-110 509.25,-122 509.25,-122 509.25,-128 503.25,-134 497.25,-134"/>
<text xml:space="preserve" text-anchor="middle" x="440.12" y="-112.5" font-family="Arial" font-size="10.00" fill="#1a1a1a">(+) grey on dark background</text>
</g>
<!-- whole.visualization&#45;&gt;attr_0 -->
<g id="edge1" class="edge">
<title>whole.visualization&#45;&gt;attr_0</title>
<path fill="none" stroke="#aaaaaa" d="M328.76,-89.44C338.67,-91.83 350.47,-94.66 362.6,-97.58"/>
<polygon fill="#aaaaaa" stroke="#aaaaaa" points="361.75,-99.9 369.13,-99.16 362.9,-95.14 361.75,-99.9"/>
</g>
<!-- rel_0 -->
<g id="node13" class="node">
<title>rel_0</title>
<path fill="#f5b8b8" stroke="#d46a6a" stroke-width="1.2" d="M455.12,-69C455.12,-69 425.12,-69 425.12,-69 419.12,-69 413.12,-63 413.12,-57 413.12,-57 413.12,-45 413.12,-45 413.12,-39 419.12,-33 425.12,-33 425.12,-33 455.12,-33 455.12,-33 461.12,-33 467.12,-39 467.12,-45 467.12,-45 467.12,-57 467.12,-57 467.12,-63 461.12,-69 455.12,-69"/>
<text xml:space="preserve" text-anchor="middle" x="440.12" y="-47.5" font-family="Arial" font-size="10.00" fill="#8b0000">lacks</text>
</g>
<!-- whole.visualization&#45;&gt;rel_0 -->
<g id="edge7" class="edge">
<title>whole.visualization&#45;&gt;rel_0</title>
<path fill="none" stroke="#d46a6a" stroke-width="1.5" d="M328.76,-76.75C349.95,-71.81 379.74,-64.86 403.03,-59.42"/>
<polygon fill="#d46a6a" stroke="#d46a6a" stroke-width="1.5" points="403.53,-62.18 410.68,-57.64 402.26,-56.73 403.53,-62.18"/>
</g>
<!-- unknown.background -->
<g id="node2" class="node">
<title>unknown.background</title>
<path fill="#b8e6b8" stroke="#2c3e50" stroke-width="1.8" d="M61.75,-199C61.75,-199 19.5,-199 19.5,-199 13.5,-199 7.5,-193 7.5,-187 7.5,-187 7.5,-175 7.5,-175 7.5,-169 13.5,-163 19.5,-163 19.5,-163 61.75,-163 61.75,-163 67.75,-163 73.75,-169 73.75,-175 73.75,-175 73.75,-187 73.75,-187 73.75,-193 67.75,-199 61.75,-199"/>
<text xml:space="preserve" text-anchor="middle" x="40.62" y="-177.5" font-family="Arial" font-size="10.00" fill="#1a1a1a">background</text>
</g>
<!-- attr_1 -->
<g id="node8" class="node">
<title>attr_1</title>
<path fill="#c7b8e6" stroke="#7f8c8d" stroke-width="1.2" d="M218.62,-231C218.62,-231 136.62,-231 136.62,-231 130.62,-231 124.62,-225 124.62,-219 124.62,-219 124.62,-207 124.62,-207 124.62,-201 130.62,-195 136.62,-195 136.62,-195 218.62,-195 218.62,-195 224.62,-195 230.62,-201 230.62,-207 230.62,-207 230.62,-219 230.62,-219 230.62,-225 224.62,-231 218.62,-231"/>
<text xml:space="preserve" text-anchor="middle" x="177.62" y="-209.5" font-family="Arial" font-size="10.00" fill="#1a1a1a">(+) dark low contrast</text>
</g>
<!-- unknown.background&#45;&gt;attr_1 -->
<g id="edge2" class="edge">
<title>unknown.background&#45;&gt;attr_1</title>
<path fill="none" stroke="#aaaaaa" d="M74.65,-188.83C87.23,-191.81 101.99,-195.31 116.32,-198.71"/>
<polygon fill="#aaaaaa" stroke="#aaaaaa" points="115.37,-201 122.74,-200.23 116.5,-196.23 115.37,-201"/>
</g>
<!-- rel_1 -->
<g id="node14" class="node">
<title>rel_1</title>
<path fill="#f5b8b8" stroke="#d46a6a" stroke-width="1.2" d="M215.62,-166C215.62,-166 139.62,-166 139.62,-166 133.62,-166 127.62,-160 127.62,-154 127.62,-154 127.62,-142 127.62,-142 127.62,-136 133.62,-130 139.62,-130 139.62,-130 215.62,-130 215.62,-130 221.62,-130 227.62,-136 227.62,-142 227.62,-142 227.62,-154 227.62,-154 227.62,-160 221.62,-166 215.62,-166"/>
<text xml:space="preserve" text-anchor="middle" x="177.62" y="-144.5" font-family="Arial" font-size="10.00" fill="#8b0000">reduces contrast of</text>
</g>
<!-- unknown.background&#45;&gt;rel_1 -->
<g id="edge9" class="edge">
<title>unknown.background&#45;&gt;rel_1</title>
<path fill="none" stroke="#d46a6a" stroke-width="1.5" d="M74.65,-172.93C87.46,-169.8 102.54,-166.11 117.11,-162.55"/>
<polygon fill="#d46a6a" stroke="#d46a6a" stroke-width="1.5" points="117.77,-165.27 124.88,-160.65 116.44,-159.83 117.77,-165.27"/>
</g>
<!-- unknown.text_labels -->
<g id="node3" class="node">
<title>unknown.text_labels</title>
<path fill="#b8e6b8" stroke="#2c3e50" stroke-width="1.8" d="M59.12,-69C59.12,-69 22.12,-69 22.12,-69 16.12,-69 10.13,-63 10.13,-57 10.13,-57 10.13,-45 10.13,-45 10.13,-39 16.13,-33 22.13,-33 22.13,-33 59.12,-33 59.12,-33 65.12,-33 71.12,-39 71.12,-45 71.12,-45 71.12,-57 71.12,-57 71.12,-63 65.12,-69 59.12,-69"/>
<text xml:space="preserve" text-anchor="middle" x="40.62" y="-47.5" font-family="Arial" font-size="10.00" fill="#1a1a1a">text labels</text>
</g>
<!-- attr_2 -->
<g id="node9" class="node">
<title>attr_2</title>
<path fill="#c7b8e6" stroke="#7f8c8d" stroke-width="1.2" d="M213,-101C213,-101 142.25,-101 142.25,-101 136.25,-101 130.25,-95 130.25,-89 130.25,-89 130.25,-77 130.25,-77 130.25,-71 136.25,-65 142.25,-65 142.25,-65 213,-65 213,-65 219,-65 225,-71 225,-77 225,-77 225,-89 225,-89 225,-95 219,-101 213,-101"/>
<text xml:space="preserve" text-anchor="middle" x="177.62" y="-79.5" font-family="Arial" font-size="10.00" fill="#1a1a1a">(+) small font size</text>
</g>
<!-- unknown.text_labels&#45;&gt;attr_2 -->
<g id="edge3" class="edge">
<title>unknown.text_labels&#45;&gt;attr_2</title>
<path fill="none" stroke="#aaaaaa" d="M71.92,-58.18C86.55,-61.65 104.57,-65.92 121.52,-69.94"/>
<polygon fill="#aaaaaa" stroke="#aaaaaa" points="120.88,-72.3 128.26,-71.53 122.01,-67.54 120.88,-72.3"/>
</g>
<!-- rel_3 -->
<g id="node16" class="node">
<title>rel_3</title>
<path fill="#f5b8b8" stroke="#d46a6a" stroke-width="1.2" d="M218.62,-36C218.62,-36 136.62,-36 136.62,-36 130.62,-36 124.62,-30 124.62,-24 124.62,-24 124.62,-12 124.62,-12 124.62,-6 130.62,0 136.62,0 136.62,0 218.62,0 218.62,0 224.62,0 230.62,-6 230.62,-12 230.62,-12 230.62,-24 230.62,-24 230.62,-30 224.62,-36 218.62,-36"/>
<text xml:space="preserve" text-anchor="middle" x="177.62" y="-14.5" font-family="Arial" font-size="10.00" fill="#8b0000">hinders readability of</text>
</g>
<!-- unknown.text_labels&#45;&gt;rel_3 -->
<g id="edge13" class="edge">
<title>unknown.text_labels&#45;&gt;rel_3</title>
<path fill="none" stroke="#d46a6a" stroke-width="1.5" d="M71.92,-43.59C84.55,-40.51 99.7,-36.8 114.51,-33.18"/>
<polygon fill="#d46a6a" stroke="#d46a6a" stroke-width="1.5" points="114.84,-35.98 121.95,-31.37 113.51,-30.55 114.84,-35.98"/>
</g>
<!-- unknown.matrix_patterns -->
<g id="node4" class="node">
<title>unknown.matrix_patterns</title>
<path fill="#b8e6b8" stroke="#2c3e50" stroke-width="1.8" d="M69.25,-328C69.25,-328 12,-328 12,-328 6,-328 0,-322 0,-316 0,-316 0,-304 0,-304 0,-298 6,-292 12,-292 12,-292 69.25,-292 69.25,-292 75.25,-292 81.25,-298 81.25,-304 81.25,-304 81.25,-316 81.25,-316 81.25,-322 75.25,-328 69.25,-328"/>
<text xml:space="preserve" text-anchor="middle" x="40.62" y="-306.5" font-family="Arial" font-size="10.00" fill="#1a1a1a">matrix patterns</text>
</g>
<!-- attr_3 -->
<g id="node10" class="node">
<title>attr_3</title>
<path fill="#c7b8e6" stroke="#7f8c8d" stroke-width="1.2" d="M217.5,-361C217.5,-361 137.75,-361 137.75,-361 131.75,-361 125.75,-355 125.75,-349 125.75,-349 125.75,-337 125.75,-337 125.75,-331 131.75,-325 137.75,-325 137.75,-325 217.5,-325 217.5,-325 223.5,-325 229.5,-331 229.5,-337 229.5,-337 229.5,-349 229.5,-349 229.5,-355 223.5,-361 217.5,-361"/>
<text xml:space="preserve" text-anchor="middle" x="177.62" y="-339.5" font-family="Arial" font-size="10.00" fill="#1a1a1a">(−) clear 2x2 pattern</text>
</g>
<!-- unknown.matrix_patterns&#45;&gt;attr_3 -->
<g id="edge4" class="edge">
<title>unknown.matrix_patterns&#45;&gt;attr_3</title>
<path fill="none" stroke="#aaaaaa" d="M82.13,-319.9C93.24,-322.62 105.51,-325.62 117.43,-328.53"/>
<polygon fill="#aaaaaa" stroke="#aaaaaa" points="116.76,-330.89 124.14,-330.17 117.92,-326.13 116.76,-330.89"/>
</g>
<!-- rel_2 -->
<g id="node15" class="node">
<title>rel_2</title>
<path fill="#f5b8b8" stroke="#d46a6a" stroke-width="1.2" d="M219,-296C219,-296 136.25,-296 136.25,-296 130.25,-296 124.25,-290 124.25,-284 124.25,-284 124.25,-272 124.25,-272 124.25,-266 130.25,-260 136.25,-260 136.25,-260 219,-260 219,-260 225,-260 231,-266 231,-272 231,-272 231,-284 231,-284 231,-290 225,-296 219,-296"/>
<text xml:space="preserve" text-anchor="middle" x="177.62" y="-274.5" font-family="Arial" font-size="10.00" fill="#8b0000">supports decoding of</text>
</g>
<!-- unknown.matrix_patterns&#45;&gt;rel_2 -->
<g id="edge11" class="edge">
<title>unknown.matrix_patterns&#45;&gt;rel_2</title>
<path fill="none" stroke="#d46a6a" stroke-width="1.5" d="M82.13,-300.4C92.24,-298 103.31,-295.38 114.21,-292.79"/>
<polygon fill="#d46a6a" stroke="#d46a6a" stroke-width="1.5" points="114.79,-295.53 121.93,-290.97 113.5,-290.09 114.79,-295.53"/>
</g>
<!-- unknown.symbols -->
<g id="node5" class="node">
<title>unknown.symbols</title>
<path fill="#b8e6b8" stroke="#2c3e50" stroke-width="1.8" d="M316,-296C316,-296 286,-296 286,-296 280,-296 274,-290 274,-284 274,-284 274,-272 274,-272 274,-266 280,-260 286,-260 286,-260 316,-260 316,-260 322,-260 328,-266 328,-272 328,-272 328,-284 328,-284 328,-290 322,-296 316,-296"/>
<text xml:space="preserve" text-anchor="middle" x="301" y="-274.5" font-family="Arial" font-size="10.00" fill="#1a1a1a">symbols</text>
</g>
<!-- attr_4 -->
<g id="node11" class="node">
<title>attr_4</title>
<path fill="#c7b8e6" stroke="#7f8c8d" stroke-width="1.2" d="M485.25,-296C485.25,-296 395,-296 395,-296 389,-296 383,-290 383,-284 383,-284 383,-272 383,-272 383,-266 389,-260 395,-260 395,-260 485.25,-260 485.25,-260 491.25,-260 497.25,-266 497.25,-272 497.25,-272 497.25,-284 497.25,-284 497.25,-290 491.25,-296 485.25,-296"/>
<text xml:space="preserve" text-anchor="middle" x="440.12" y="-274.5" font-family="Arial" font-size="10.00" fill="#1a1a1a">(−) easily recognizable</text>
</g>
<!-- unknown.symbols&#45;&gt;attr_4 -->
<g id="edge5" class="edge">
<title>unknown.symbols&#45;&gt;attr_4</title>
<path fill="none" stroke="#aaaaaa" d="M328.76,-278C341.84,-278 358.19,-278 374.28,-278"/>
<polygon fill="#aaaaaa" stroke="#aaaaaa" points="374.13,-280.45 381.13,-278 374.13,-275.55 374.13,-280.45"/>
</g>
<!-- unknown.country_labels -->
<g id="node6" class="node">
<title>unknown.country_labels</title>
<path fill="#b8e6b8" stroke="#2c3e50" stroke-width="1.8" d="M617,-69C617,-69 564.25,-69 564.25,-69 558.25,-69 552.25,-63 552.25,-57 552.25,-57 552.25,-45 552.25,-45 552.25,-39 558.25,-33 564.25,-33 564.25,-33 617,-33 617,-33 623,-33 629,-39 629,-45 629,-45 629,-57 629,-57 629,-63 623,-69 617,-69"/>
<text xml:space="preserve" text-anchor="middle" x="590.62" y="-47.5" font-family="Arial" font-size="10.00" fill="#1a1a1a">country labels</text>
</g>
<!-- attr_5 -->
<g id="node12" class="node">
<title>attr_5</title>
<path fill="#c7b8e6" stroke="#7f8c8d" stroke-width="1.2" d="M764.5,-69C764.5,-69 684,-69 684,-69 678,-69 672,-63 672,-57 672,-57 672,-45 672,-45 672,-39 678,-33 684,-33 684,-33 764.5,-33 764.5,-33 770.5,-33 776.5,-39 776.5,-45 776.5,-45 776.5,-57 776.5,-57 776.5,-63 770.5,-69 764.5,-69"/>
<text xml:space="preserve" text-anchor="middle" x="724.25" y="-47.5" font-family="Arial" font-size="10.00" fill="#1a1a1a">(+) absent from map</text>
</g>
<!-- unknown.country_labels&#45;&gt;attr_5 -->
<g id="edge6" class="edge">
<title>unknown.country_labels&#45;&gt;attr_5</title>
<path fill="none" stroke="#aaaaaa" d="M629.7,-51C640.2,-51 651.87,-51 663.29,-51"/>
<polygon fill="#aaaaaa" stroke="#aaaaaa" points="663.04,-53.45 670.04,-51 663.04,-48.55 663.04,-53.45"/>
</g>
<!-- rel_0&#45;&gt;unknown.country_labels -->
<g id="edge8" class="edge">
<title>rel_0&#45;&gt;unknown.country_labels</title>
<path fill="none" stroke="#d46a6a" stroke-width="1.5" d="M467.67,-51C488.11,-51 516.92,-51 541.4,-51"/>
<polygon fill="#d46a6a" stroke="#d46a6a" stroke-width="1.5" points="541.32,-53.8 549.32,-51 541.32,-48.2 541.32,-53.8"/>
</g>
<!-- rel_1&#45;&gt;whole.visualization -->
<g id="edge10" class="edge">
<title>rel_1&#45;&gt;whole.visualization</title>
<path fill="none" stroke="#d46a6a" stroke-width="1.5" d="M213.08,-129.55C229.17,-120.93 248.29,-110.69 264.51,-102.01"/>
<polygon fill="#d46a6a" stroke="#d46a6a" stroke-width="1.5" points="265.44,-104.68 271.17,-98.44 262.8,-99.75 265.44,-104.68"/>
</g>
<!-- rel_2&#45;&gt;unknown.symbols -->
<g id="edge12" class="edge">
<title>rel_2&#45;&gt;unknown.symbols</title>
<path fill="none" stroke="#d46a6a" stroke-width="1.5" d="M231.51,-278C242.22,-278 253.27,-278 263.28,-278"/>
<polygon fill="#d46a6a" stroke="#d46a6a" stroke-width="1.5" points="263.01,-280.8 271.01,-278 263.01,-275.2 263.01,-280.8"/>
</g>
<!-- rel_3&#45;&gt;whole.visualization -->
<g id="edge14" class="edge">
<title>rel_3&#45;&gt;whole.visualization</title>
<path fill="none" stroke="#d46a6a" stroke-width="1.5" d="M213.08,-36.45C229.17,-45.07 248.29,-55.31 264.51,-63.99"/>
<polygon fill="#d46a6a" stroke="#d46a6a" stroke-width="1.5" points="262.8,-66.25 271.17,-67.56 265.44,-61.32 262.8,-66.25"/>
</g>
</g>
</svg>
