<?xml version="1.0" encoding="UTF-8" standalone="no"?>
<!DOCTYPE svg PUBLIC "-//W3C//DTD SVG 1.1//EN"
 "http://www.w3.org/Graphics/SVG/1.1/DTD/svg11.dtd">
<!-- Generated by graphviz version 14.1.5 (20260411.2331)
 -->
<!-- Title: SciVisJ.896.3.png Pages: 1 -->
<svg width="810pt" height="357pt"
 viewBox="0.00 0.00 810.00 357.00" xmlns="http://www.w3.org/2000/svg" xmlns:xlink="http://www.w3.org/1999/xlink">
<g id="graph0" class="graph" transform="scale(1 1) rotate(0) translate(4 353.4)">
<title>SciVisJ.896.3.png</title>
<polygon fill="white" stroke="none" points="-4,4 -4,-353.4 805.5,-353.4 805.5,4 -4,4"/>
<text xml:space="preserve" text-anchor="start" x="343.75" y="-329.1" font-family="Arial" font-weight="bold" font-size="14.00">SciVisJ.896.3.png</text>
<text xml:space="preserve" text-anchor="start" x="345.62" y="-309.15" font-family="Arial" font-size="11.00">Node&#45;link &#160;| &#160;VC = 0.71</text>
<path fill="#b8e6b8" stroke="none" d="M191.38,-284.15C191.38,-284.15 199.38,-284.15 199.38,-284.15 202.38,-284.15 205.38,-287.15 205.38,-290.15 205.38,-290.15 205.38,-296.15 205.38,-296.15 205.38,-299.15 202.38,-302.15 199.38,-302.15 199.38,-302.15 191.38,-302.15 191.38,-302.15 188.38,-302.15 185.38,-299.15 185.38,-296.15 185.38,-296.15 185.38,-290.15 185.38,-290.15 185.38,-287.15 188.38,-284.15 191.38,-284.15"/>
<path fill="none" stroke="black" d="M191.38,-284.15C191.38,-284.15 199.38,-284.15 199.38,-284.15 202.38,-284.15 205.38,-287.15 205.38,-290.15 205.38,-290.15 205.38,-296.15 205.38,-296.15 205.38,-299.15 202.38,-302.15 199.38,-302.15 199.38,-302.15 191.38,-302.15 191.38,-302.15 188.38,-302.15 185.38,-299.15 185.38,-296.15 185.38,-296.15 185.38,-290.15 185.38,-290.15 185.38,-287.15 188.38,-284.15 191.38,-284.15"/>
<text xml:space="preserve" text-anchor="start" x="193.88" y="-289.4" font-family="Arial" font-size="10.00"> </text>
<text xml:space="preserve" text-anchor="start" x="209.38" y="-289.4" font-family="Arial" font-size="10.00">Object</text>
<path fill="#c7b8e6" stroke="none" d="M247.88,-284.15C247.88,-284.15 255.88,-284.15 255.88,-284.15 258.88,-284.15 261.88,-287.15 261.88,-290.15 261.88,-290.15 261.88,-296.15 261.88,-296.15 261.88,-299.15 258.88,-302.15 255.88,-302.15 255.88,-302.15 247.88,-302.15 247.88,-302.15 244.88,-302.15 241.88,-299.15 241.88,-296.15 241.88,-296.15 241.88,-290.15 241.88,-290.15 241.88,-287.15 244.88,-284.15 247.88,-284.15"/>
<path fill="none" stroke="black" d="M247.88,-284.15C247.88,-284.15 255.88,-284.15 255.88,-284.15 258.88,-284.15 261.88,-287.15 261.88,-290.15 261.88,-290.15 261.88,-296.15 261.88,-296.15 261.88,-299.15 258.88,-302.15 255.88,-302.15 255.88,-302.15 247.88,-302.15 247.88,-302.15 244.88,-302.15 241.88,-299.15 241.88,-296.15 241.88,-296.15 241.88,-290.15 241.88,-290.15 241.88,-287.15 244.88,-284.15 247.88,-284.15"/>
<text xml:space="preserve" text-anchor="start" x="250.38" y="-289.4" font-family="Arial" font-size="10.00"> </text>
<text xml:space="preserve" text-anchor="start" x="265.88" y="-289.4" font-family="Arial" font-size="10.00">Attribute</text>
<path fill="#f5b8b8" stroke="none" d="M312.62,-284.15C312.62,-284.15 320.62,-284.15 320.62,-284.15 323.62,-284.15 326.62,-287.15 326.62,-290.15 326.62,-290.15 326.62,-296.15 326.62,-296.15 326.62,-299.15 323.62,-302.15 320.62,-302.15 320.62,-302.15 312.62,-302.15 312.62,-302.15 309.62,-302.15 306.62,-299.15 306.62,-296.15 306.62,-296.15 306.62,-290.15 306.62,-290.15 306.62,-287.15 309.62,-284.15 312.62,-284.15"/>
<path fill="none" stroke="black" d="M312.62,-284.15C312.62,-284.15 320.62,-284.15 320.62,-284.15 323.62,-284.15 326.62,-287.15 326.62,-290.15 326.62,-290.15 326.62,-296.15 326.62,-296.15 326.62,-299.15 323.62,-302.15 320.62,-302.15 320.62,-302.15 312.62,-302.15 312.62,-302.15 309.62,-302.15 306.62,-299.15 306.62,-296.15 306.62,-296.15 306.62,-290.15 306.62,-290.15 306.62,-287.15 309.62,-284.15 312.62,-284.15"/>
<text xml:space="preserve" text-anchor="start" x="315.12" y="-289.4" font-family="Arial" font-size="10.00"> </text>
<text xml:space="preserve" text-anchor="start" x="330.62" y="-289.4" font-family="Arial" font-size="10.00">Relationship</text>
<text xml:space="preserve" text-anchor="start" x="390.62" y="-290.65" font-family="Arial" font-weight="bold" font-size="10.00">(+)</text>
<text xml:space="preserve" text-anchor="start" x="402.62" y="-290.65" font-family="Arial" font-size="10.00"> increases complexity</text>
<text xml:space="preserve" text-anchor="start" x="503.88" y="-290.65" font-family="Arial" font-weight="bold" font-size="10.00">(−)</text>
<text xml:space="preserve" text-anchor="start" x="515.88" y="-290.65" font-family="Arial" font-size="10.00"> decreases complexity</text>
<!-- property.color -->
<g id="node1" class="node">
<title>property.color</title>
<path fill="#b8e6b8" stroke="#2c3e50" stroke-width="1.8" d="M42,-148.15C42,-148.15 12,-148.15 12,-148.15 6,-148.15 0,-142.15 0,-136.15 0,-136.15 0,-124.15 0,-124.15 0,-118.15 6,-112.15 12,-112.15 12,-112.15 42,-112.15 42,-112.15 48,-112.15 54,-118.15 54,-124.15 54,-124.15 54,-136.15 54,-136.15 54,-142.15 48,-148.15 42,-148.15"/>
<text xml:space="preserve" text-anchor="middle" x="27" y="-126.65" font-family="Arial" font-size="10.00" fill="#1a1a1a">color</text>
</g>
<!-- attr_0 -->
<g id="node5" class="node">
<title>attr_0</title>
<path fill="#c7b8e6" stroke="#7f8c8d" stroke-width="1.2" d="M198.5,-278.15C198.5,-278.15 121.75,-278.15 121.75,-278.15 115.75,-278.15 109.75,-272.15 109.75,-266.15 109.75,-266.15 109.75,-254.15 109.75,-254.15 109.75,-248.15 115.75,-242.15 121.75,-242.15 121.75,-242.15 198.5,-242.15 198.5,-242.15 204.5,-242.15 210.5,-248.15 210.5,-254.15 210.5,-254.15 210.5,-266.15 210.5,-266.15 210.5,-272.15 204.5,-278.15 198.5,-278.15"/>
<text xml:space="preserve" text-anchor="middle" x="160.12" y="-256.65" font-family="Arial" font-size="10.00" fill="#1a1a1a">(+) too many colors</text>
</g>
<!-- property.color&#45;&gt;attr_0 -->
<g id="edge1" class="edge">
<title>property.color&#45;&gt;attr_0</title>
<path fill="none" stroke="#aaaaaa" d="M37.51,-148.79C49.16,-170.16 70.64,-205.19 97,-228.15 100.69,-231.36 104.76,-234.36 109.01,-237.13"/>
<polygon fill="#aaaaaa" stroke="#aaaaaa" points="107.72,-239.22 114.97,-240.78 110.28,-235.04 107.72,-239.22"/>
</g>
<!-- attr_1 -->
<g id="node6" class="node">
<title>attr_1</title>
<path fill="#c7b8e6" stroke="#7f8c8d" stroke-width="1.2" d="M211.25,-213.15C211.25,-213.15 109,-213.15 109,-213.15 103,-213.15 97,-207.15 97,-201.15 97,-201.15 97,-189.15 97,-189.15 97,-183.15 103,-177.15 109,-177.15 109,-177.15 211.25,-177.15 211.25,-177.15 217.25,-177.15 223.25,-183.15 223.25,-189.15 223.25,-189.15 223.25,-201.15 223.25,-201.15 223.25,-207.15 217.25,-213.15 211.25,-213.15"/>
<text xml:space="preserve" text-anchor="middle" x="160.12" y="-191.65" font-family="Arial" font-size="10.00" fill="#1a1a1a">(+) unclear color meaning</text>
</g>
<!-- property.color&#45;&gt;attr_1 -->
<g id="edge2" class="edge">
<title>property.color&#45;&gt;attr_1</title>
<path fill="none" stroke="#aaaaaa" d="M54.85,-143.46C71.99,-151.96 94.63,-163.18 114.44,-173"/>
<polygon fill="#aaaaaa" stroke="#aaaaaa" points="113.16,-175.1 120.52,-176.01 115.33,-170.71 113.16,-175.1"/>
</g>
<!-- rel_0 -->
<g id="node10" class="node">
<title>rel_0</title>
<path fill="#f5b8b8" stroke="#d46a6a" stroke-width="1.2" d="M182.38,-148.15C182.38,-148.15 137.88,-148.15 137.88,-148.15 131.88,-148.15 125.88,-142.15 125.88,-136.15 125.88,-136.15 125.88,-124.15 125.88,-124.15 125.88,-118.15 131.88,-112.15 137.88,-112.15 137.88,-112.15 182.38,-112.15 182.38,-112.15 188.38,-112.15 194.38,-118.15 194.38,-124.15 194.38,-124.15 194.38,-136.15 194.38,-136.15 194.38,-142.15 188.38,-148.15 182.38,-148.15"/>
<text xml:space="preserve" text-anchor="middle" x="160.12" y="-126.65" font-family="Arial" font-size="10.00" fill="#8b0000">overwhelms</text>
</g>
<!-- property.color&#45;&gt;rel_0 -->
<g id="edge6" class="edge">
<title>property.color&#45;&gt;rel_0</title>
<path fill="none" stroke="#d46a6a" stroke-width="1.5" d="M54.85,-130.15C72.21,-130.15 95.2,-130.15 115.18,-130.15"/>
<polygon fill="#d46a6a" stroke="#d46a6a" stroke-width="1.5" points="115.03,-132.95 123.03,-130.15 115.03,-127.35 115.03,-132.95"/>
</g>
<!-- rel_2 -->
<g id="node12" class="node">
<title>rel_2</title>
<path fill="#f5b8b8" stroke="#d46a6a" stroke-width="1.2" d="M176,-83.15C176,-83.15 144.25,-83.15 144.25,-83.15 138.25,-83.15 132.25,-77.15 132.25,-71.15 132.25,-71.15 132.25,-59.15 132.25,-59.15 132.25,-53.15 138.25,-47.15 144.25,-47.15 144.25,-47.15 176,-47.15 176,-47.15 182,-47.15 188,-53.15 188,-59.15 188,-59.15 188,-71.15 188,-71.15 188,-77.15 182,-83.15 176,-83.15"/>
<text xml:space="preserve" text-anchor="middle" x="160.12" y="-61.65" font-family="Arial" font-size="10.00" fill="#8b0000">obscures</text>
</g>
<!-- property.color&#45;&gt;rel_2 -->
<g id="edge10" class="edge">
<title>property.color&#45;&gt;rel_2</title>
<path fill="none" stroke="#d46a6a" stroke-width="1.5" d="M54.85,-116.84C74.43,-107.13 101.19,-93.87 122.7,-83.21"/>
<polygon fill="#d46a6a" stroke="#d46a6a" stroke-width="1.5" points="123.9,-85.73 129.82,-79.67 121.41,-80.72 123.9,-85.73"/>
</g>
<!-- mark.node -->
<g id="node2" class="node">
<title>mark.node</title>
<path fill="#b8e6b8" stroke="#2c3e50" stroke-width="1.8" d="M308.25,-148.15C308.25,-148.15 278.25,-148.15 278.25,-148.15 272.25,-148.15 266.25,-142.15 266.25,-136.15 266.25,-136.15 266.25,-124.15 266.25,-124.15 266.25,-118.15 272.25,-112.15 278.25,-112.15 278.25,-112.15 308.25,-112.15 308.25,-112.15 314.25,-112.15 320.25,-118.15 320.25,-124.15 320.25,-124.15 320.25,-136.15 320.25,-136.15 320.25,-142.15 314.25,-148.15 308.25,-148.15"/>
<text xml:space="preserve" text-anchor="middle" x="293.25" y="-126.65" font-family="Arial" font-size="10.00" fill="#1a1a1a">node</text>
</g>
<!-- attr_3 -->
<g id="node7" class="node">
<title>attr_3</title>
<path fill="#c7b8e6" stroke="#7f8c8d" stroke-width="1.2" d="M495.5,-213.15C495.5,-213.15 375.25,-213.15 375.25,-213.15 369.25,-213.15 363.25,-207.15 363.25,-201.15 363.25,-201.15 363.25,-189.15 363.25,-189.15 363.25,-183.15 369.25,-177.15 375.25,-177.15 375.25,-177.15 495.5,-177.15 495.5,-177.15 501.5,-177.15 507.5,-183.15 507.5,-189.15 507.5,-189.15 507.5,-201.15 507.5,-201.15 507.5,-207.15 501.5,-213.15 495.5,-213.15"/>
<text xml:space="preserve" text-anchor="middle" x="435.38" y="-191.65" font-family="Arial" font-size="10.00" fill="#1a1a1a">(+) ambiguous color encoding</text>
</g>
<!-- mark.node&#45;&gt;attr_3 -->
<g id="edge3" class="edge">
<title>mark.node&#45;&gt;attr_3</title>
<path fill="none" stroke="#aaaaaa" d="M321.05,-143.15C333.8,-149.28 349.28,-156.67 363.25,-163.15 370.44,-166.48 378.05,-169.96 385.52,-173.35"/>
<polygon fill="#aaaaaa" stroke="#aaaaaa" points="384.16,-175.42 391.55,-176.07 386.18,-170.96 384.16,-175.42"/>
</g>
<!-- rel_3 -->
<g id="node13" class="node">
<title>rel_3</title>
<path fill="#f5b8b8" stroke="#d46a6a" stroke-width="1.2" d="M477.12,-148.15C477.12,-148.15 393.62,-148.15 393.62,-148.15 387.62,-148.15 381.62,-142.15 381.62,-136.15 381.62,-136.15 381.62,-124.15 381.62,-124.15 381.62,-118.15 387.62,-112.15 393.62,-112.15 393.62,-112.15 477.12,-112.15 477.12,-112.15 483.12,-112.15 489.12,-118.15 489.12,-124.15 489.12,-124.15 489.12,-136.15 489.12,-136.15 489.12,-142.15 483.12,-148.15 477.12,-148.15"/>
<text xml:space="preserve" text-anchor="middle" x="435.38" y="-126.65" font-family="Arial" font-size="10.00" fill="#8b0000">requires expertise for</text>
</g>
<!-- mark.node&#45;&gt;rel_3 -->
<g id="edge12" class="edge">
<title>mark.node&#45;&gt;rel_3</title>
<path fill="none" stroke="#d46a6a" stroke-width="1.5" d="M320.94,-130.15C335.14,-130.15 353.27,-130.15 370.84,-130.15"/>
<polygon fill="#d46a6a" stroke="#d46a6a" stroke-width="1.5" points="370.82,-132.95 378.82,-130.15 370.82,-127.35 370.82,-132.95"/>
</g>
<!-- furniture.legend -->
<g id="node3" class="node">
<title>furniture.legend</title>
<path fill="#b8e6b8" stroke="#2c3e50" stroke-width="1.8" d="M592.5,-132.15C592.5,-132.15 562.5,-132.15 562.5,-132.15 556.5,-132.15 550.5,-126.15 550.5,-120.15 550.5,-120.15 550.5,-108.15 550.5,-108.15 550.5,-102.15 556.5,-96.15 562.5,-96.15 562.5,-96.15 592.5,-96.15 592.5,-96.15 598.5,-96.15 604.5,-102.15 604.5,-108.15 604.5,-108.15 604.5,-120.15 604.5,-120.15 604.5,-126.15 598.5,-132.15 592.5,-132.15"/>
<text xml:space="preserve" text-anchor="middle" x="577.5" y="-110.65" font-family="Arial" font-size="10.00" fill="#1a1a1a">legend</text>
</g>
<!-- attr_2 -->
<g id="node8" class="node">
<title>attr_2</title>
<path fill="#c7b8e6" stroke="#7f8c8d" stroke-width="1.2" d="M789.5,-132.15C789.5,-132.15 659.5,-132.15 659.5,-132.15 653.5,-132.15 647.5,-126.15 647.5,-120.15 647.5,-120.15 647.5,-108.15 647.5,-108.15 647.5,-102.15 653.5,-96.15 659.5,-96.15 659.5,-96.15 789.5,-96.15 789.5,-96.15 795.5,-96.15 801.5,-102.15 801.5,-108.15 801.5,-108.15 801.5,-120.15 801.5,-120.15 801.5,-126.15 795.5,-132.15 789.5,-132.15"/>
<text xml:space="preserve" text-anchor="middle" x="724.5" y="-110.65" font-family="Arial" font-size="10.00" fill="#1a1a1a">(+) insufficient color explanation</text>
</g>
<!-- furniture.legend&#45;&gt;attr_2 -->
<g id="edge4" class="edge">
<title>furniture.legend&#45;&gt;attr_2</title>
<path fill="none" stroke="#aaaaaa" d="M605.1,-114.15C614.86,-114.15 626.51,-114.15 638.64,-114.15"/>
<polygon fill="#aaaaaa" stroke="#aaaaaa" points="638.58,-116.6 645.58,-114.15 638.58,-111.7 638.58,-116.6"/>
</g>
<!-- rel_1 -->
<g id="node11" class="node">
<title>rel_1</title>
<path fill="#f5b8b8" stroke="#d46a6a" stroke-width="1.2" d="M749.75,-52.15C749.75,-52.15 699.25,-52.15 699.25,-52.15 693.25,-52.15 687.25,-46.15 687.25,-40.15 687.25,-40.15 687.25,-28.15 687.25,-28.15 687.25,-22.15 693.25,-16.15 699.25,-16.15 699.25,-16.15 749.75,-16.15 749.75,-16.15 755.75,-16.15 761.75,-22.15 761.75,-28.15 761.75,-28.15 761.75,-40.15 761.75,-40.15 761.75,-46.15 755.75,-52.15 749.75,-52.15"/>
<text xml:space="preserve" text-anchor="middle" x="724.5" y="-30.65" font-family="Arial" font-size="10.00" fill="#8b0000">fails to clarify</text>
</g>
<!-- furniture.legend&#45;&gt;rel_1 -->
<g id="edge8" class="edge">
<title>furniture.legend&#45;&gt;rel_1</title>
<path fill="none" stroke="#d46a6a" stroke-width="1.5" d="M605.1,-99.48C626.36,-87.74 656.57,-71.08 681.15,-57.51"/>
<polygon fill="#d46a6a" stroke="#d46a6a" stroke-width="1.5" points="682.29,-60.08 687.94,-53.77 679.58,-55.18 682.29,-60.08"/>
</g>
<!-- structure.link -->
<g id="node4" class="node">
<title>structure.link</title>
<path fill="#b8e6b8" stroke="#2c3e50" stroke-width="1.8" d="M308.25,-83.15C308.25,-83.15 278.25,-83.15 278.25,-83.15 272.25,-83.15 266.25,-77.15 266.25,-71.15 266.25,-71.15 266.25,-59.15 266.25,-59.15 266.25,-53.15 272.25,-47.15 278.25,-47.15 278.25,-47.15 308.25,-47.15 308.25,-47.15 314.25,-47.15 320.25,-53.15 320.25,-59.15 320.25,-59.15 320.25,-71.15 320.25,-71.15 320.25,-77.15 314.25,-83.15 308.25,-83.15"/>
<text xml:space="preserve" text-anchor="middle" x="293.25" y="-61.65" font-family="Arial" font-size="10.00" fill="#1a1a1a">link</text>
</g>
<!-- attr_4 -->
<g id="node9" class="node">
<title>attr_4</title>
<path fill="#c7b8e6" stroke="#7f8c8d" stroke-width="1.2" d="M491.75,-83.15C491.75,-83.15 379,-83.15 379,-83.15 373,-83.15 367,-77.15 367,-71.15 367,-71.15 367,-59.15 367,-59.15 367,-53.15 373,-47.15 379,-47.15 379,-47.15 491.75,-47.15 491.75,-47.15 497.75,-47.15 503.75,-53.15 503.75,-59.15 503.75,-59.15 503.75,-71.15 503.75,-71.15 503.75,-77.15 497.75,-83.15 491.75,-83.15"/>
<text xml:space="preserve" text-anchor="middle" x="435.38" y="-61.65" font-family="Arial" font-size="10.00" fill="#1a1a1a">(+) dense node connections</text>
</g>
<!-- structure.link&#45;&gt;attr_4 -->
<g id="edge5" class="edge">
<title>structure.link&#45;&gt;attr_4</title>
<path fill="none" stroke="#aaaaaa" d="M320.94,-65.15C331.72,-65.15 344.77,-65.15 358.11,-65.15"/>
<polygon fill="#aaaaaa" stroke="#aaaaaa" points="357.93,-67.6 364.93,-65.15 357.93,-62.7 357.93,-67.6"/>
</g>
<!-- rel_0&#45;&gt;mark.node -->
<g id="edge7" class="edge">
<title>rel_0&#45;&gt;mark.node</title>
<path fill="none" stroke="#d46a6a" stroke-width="1.5" d="M194.89,-130.15C213.46,-130.15 236.52,-130.15 255.53,-130.15"/>
<polygon fill="#d46a6a" stroke="#d46a6a" stroke-width="1.5" points="255.35,-132.95 263.35,-130.15 255.35,-127.35 255.35,-132.95"/>
</g>
<!-- rel_1&#45;&gt;property.color -->
<g id="edge9" class="edge">
<title>rel_1&#45;&gt;property.color</title>
<path fill="none" stroke="#d46a6a" stroke-width="1.5" d="M686.92,-27.65C632.5,-18.56 526.87,-3.15 436.38,-3.15 292.25,-3.15 292.25,-3.15 292.25,-3.15 204.45,-3.15 171.73,12.93 97,-33.15 70.68,-49.38 51.55,-79.77 40.21,-102.23"/>
<polygon fill="#d46a6a" stroke="#d46a6a" stroke-width="1.5" points="37.77,-100.84 36.81,-109.26 42.81,-103.27 37.77,-100.84"/>
</g>
<!-- rel_2&#45;&gt;structure.link -->
<g id="edge11" class="edge">
<title>rel_2&#45;&gt;structure.link</title>
<path fill="none" stroke="#d46a6a" stroke-width="1.5" d="M188.29,-65.15C207.76,-65.15 234.21,-65.15 255.55,-65.15"/>
<polygon fill="#d46a6a" stroke="#d46a6a" stroke-width="1.5" points="255.29,-67.95 263.29,-65.15 255.29,-62.35 255.29,-67.95"/>
</g>
<!-- rel_3&#45;&gt;furniture.legend -->
<g id="edge13" class="edge">
<title>rel_3&#45;&gt;furniture.legend</title>
<path fill="none" stroke="#d46a6a" stroke-width="1.5" d="M489.35,-124.1C506.1,-122.19 524.24,-120.12 539.61,-118.36"/>
<polygon fill="#d46a6a" stroke="#d46a6a" stroke-width="1.5" points="539.87,-121.15 547.5,-117.46 539.23,-115.59 539.87,-121.15"/>
</g>
</g>
</svg>
