<?xml version="1.0" encoding="UTF-8" standalone="no"?>
<!DOCTYPE svg PUBLIC "-//W3C//DTD SVG 1.1//EN"
 "http://www.w3.org/Graphics/SVG/1.1/DTD/svg11.dtd">
<!-- Generated by graphviz version 14.1.5 (20260411.2331)
 -->
<!-- Title: SciVisC.49.5.png Pages: 1 -->
<svg width="795pt" height="537pt"
 viewBox="0.00 0.00 795.00 537.00" xmlns="http://www.w3.org/2000/svg" xmlns:xlink="http://www.w3.org/1999/xlink">
<g id="graph0" class="graph" transform="scale(1 1) rotate(0) translate(4 533.25)">
<title>SciVisC.49.5.png</title>
<polygon fill="white" stroke="none" points="-4,4 -4,-533.25 790.5,-533.25 790.5,4 -4,4"/>
<text xml:space="preserve" text-anchor="start" x="338.88" y="-508.95" font-family="Arial" font-weight="bold" font-size="14.00">SciVisC.49.5.png</text>
<text xml:space="preserve" text-anchor="start" x="347.12" y="-489" font-family="Arial" font-size="11.00">Glyph &#160;| &#160;VC = 0.55</text>
<path fill="#b8e6b8" stroke="none" d="M183.88,-464C183.88,-464 191.88,-464 191.88,-464 194.88,-464 197.88,-467 197.88,-470 197.88,-470 197.88,-476 197.88,-476 197.88,-479 194.88,-482 191.88,-482 191.88,-482 183.88,-482 183.88,-482 180.88,-482 177.88,-479 177.88,-476 177.88,-476 177.88,-470 177.88,-470 177.88,-467 180.88,-464 183.88,-464"/>
<path fill="none" stroke="black" d="M183.88,-464C183.88,-464 191.88,-464 191.88,-464 194.88,-464 197.88,-467 197.88,-470 197.88,-470 197.88,-476 197.88,-476 197.88,-479 194.88,-482 191.88,-482 191.88,-482 183.88,-482 183.88,-482 180.88,-482 177.88,-479 177.88,-476 177.88,-476 177.88,-470 177.88,-470 177.88,-467 180.88,-464 183.88,-464"/>
<text xml:space="preserve" text-anchor="start" x="186.38" y="-469.25" font-family="Arial" font-size="10.00"> </text>
<text xml:space="preserve" text-anchor="start" x="201.88" y="-469.25" font-family="Arial" font-size="10.00">Object</text>
<path fill="#c7b8e6" stroke="none" d="M240.38,-464C240.38,-464 248.38,-464 248.38,-464 251.38,-464 254.38,-467 254.38,-470 254.38,-470 254.38,-476 254.38,-476 254.38,-479 251.38,-482 248.38,-482 248.38,-482 240.38,-482 240.38,-482 237.38,-482 234.38,-479 234.38,-476 234.38,-476 234.38,-470 234.38,-470 234.38,-467 237.38,-464 240.38,-464"/>
<path fill="none" stroke="black" d="M240.38,-464C240.38,-464 248.38,-464 248.38,-464 251.38,-464 254.38,-467 254.38,-470 254.38,-470 254.38,-476 254.38,-476 254.38,-479 251.38,-482 248.38,-482 248.38,-482 240.38,-482 240.38,-482 237.38,-482 234.38,-479 234.38,-476 234.38,-476 234.38,-470 234.38,-470 234.38,-467 237.38,-464 240.38,-464"/>
<text xml:space="preserve" text-anchor="start" x="242.88" y="-469.25" font-family="Arial" font-size="10.00"> </text>
<text xml:space="preserve" text-anchor="start" x="258.38" y="-469.25" font-family="Arial" font-size="10.00">Attribute</text>
<path fill="#f5b8b8" stroke="none" d="M305.12,-464C305.12,-464 313.12,-464 313.12,-464 316.12,-464 319.12,-467 319.12,-470 319.12,-470 319.12,-476 319.12,-476 319.12,-479 316.12,-482 313.12,-482 313.12,-482 305.12,-482 305.12,-482 302.12,-482 299.12,-479 299.12,-476 299.12,-476 299.12,-470 299.12,-470 299.12,-467 302.12,-464 305.12,-464"/>
<path fill="none" stroke="black" d="M305.12,-464C305.12,-464 313.12,-464 313.12,-464 316.12,-464 319.12,-467 319.12,-470 319.12,-470 319.12,-476 319.12,-476 319.12,-479 316.12,-482 313.12,-482 313.12,-482 305.12,-482 305.12,-482 302.12,-482 299.12,-479 299.12,-476 299.12,-476 299.12,-470 299.12,-470 299.12,-467 302.12,-464 305.12,-464"/>
<text xml:space="preserve" text-anchor="start" x="307.62" y="-469.25" font-family="Arial" font-size="10.00"> </text>
<text xml:space="preserve" text-anchor="start" x="323.12" y="-469.25" font-family="Arial" font-size="10.00">Relationship</text>
<text xml:space="preserve" text-anchor="start" x="383.12" y="-470.5" font-family="Arial" font-weight="bold" font-size="10.00">(+)</text>
<text xml:space="preserve" text-anchor="start" x="395.12" y="-470.5" font-family="Arial" font-size="10.00"> increases complexity</text>
<text xml:space="preserve" text-anchor="start" x="496.38" y="-470.5" font-family="Arial" font-weight="bold" font-size="10.00">(−)</text>
<text xml:space="preserve" text-anchor="start" x="508.38" y="-470.5" font-family="Arial" font-size="10.00"> decreases complexity</text>
<!-- unknown.glyph -->
<g id="node1" class="node">
<title>unknown.glyph</title>
<path fill="#b8e6b8" stroke="#2c3e50" stroke-width="1.8" d="M345,-239C345,-239 315,-239 315,-239 309,-239 303,-233 303,-227 303,-227 303,-215 303,-215 303,-209 309,-203 315,-203 315,-203 345,-203 345,-203 351,-203 357,-209 357,-215 357,-215 357,-227 357,-227 357,-233 351,-239 345,-239"/>
<text xml:space="preserve" text-anchor="middle" x="330" y="-217.5" font-family="Arial" font-size="10.00" fill="#1a1a1a">glyph</text>
</g>
<!-- attr_4 -->
<g id="node7" class="node">
<title>attr_4</title>
<path fill="#c7b8e6" stroke="#7f8c8d" stroke-width="1.2" d="M504.62,-255C504.62,-255 429.38,-255 429.38,-255 423.38,-255 417.38,-249 417.38,-243 417.38,-243 417.38,-231 417.38,-231 417.38,-225 423.38,-219 429.38,-219 429.38,-219 504.62,-219 504.62,-219 510.62,-219 516.62,-225 516.62,-231 516.62,-231 516.62,-243 516.62,-243 516.62,-249 510.62,-255 504.62,-255"/>
<text xml:space="preserve" text-anchor="middle" x="467" y="-233.5" font-family="Arial" font-size="10.00" fill="#1a1a1a">(+) hard to interpret</text>
</g>
<!-- unknown.glyph&#45;&gt;attr_4 -->
<g id="edge1" class="edge">
<title>unknown.glyph&#45;&gt;attr_4</title>
<path fill="none" stroke="#aaaaaa" d="M357.67,-224.16C372.33,-225.9 391.11,-228.12 408.9,-230.23"/>
<polygon fill="#aaaaaa" stroke="#aaaaaa" points="408.24,-232.62 415.48,-231.01 408.82,-227.76 408.24,-232.62"/>
</g>
<!-- attr_6 -->
<g id="node8" class="node">
<title>attr_6</title>
<path fill="#c7b8e6" stroke="#7f8c8d" stroke-width="1.2" d="M512.5,-190C512.5,-190 421.5,-190 421.5,-190 415.5,-190 409.5,-184 409.5,-178 409.5,-178 409.5,-166 409.5,-166 409.5,-160 415.5,-154 421.5,-154 421.5,-154 512.5,-154 512.5,-154 518.5,-154 524.5,-160 524.5,-166 524.5,-166 524.5,-178 524.5,-178 524.5,-184 518.5,-190 512.5,-190"/>
<text xml:space="preserve" text-anchor="middle" x="467" y="-168.5" font-family="Arial" font-size="10.00" fill="#1a1a1a">(+) abstract glyph form</text>
</g>
<!-- unknown.glyph&#45;&gt;attr_6 -->
<g id="edge2" class="edge">
<title>unknown.glyph&#45;&gt;attr_6</title>
<path fill="none" stroke="#aaaaaa" d="M357.67,-211.32C371.8,-206.19 389.75,-199.68 406.95,-193.43"/>
<polygon fill="#aaaaaa" stroke="#aaaaaa" points="407.62,-195.8 413.37,-191.1 405.95,-191.19 407.62,-195.8"/>
</g>
<!-- property.color -->
<g id="node2" class="node">
<title>property.color</title>
<path fill="#b8e6b8" stroke="#2c3e50" stroke-width="1.8" d="M56,-133C56,-133 26,-133 26,-133 20,-133 14,-127 14,-121 14,-121 14,-109 14,-109 14,-103 20,-97 26,-97 26,-97 56,-97 56,-97 62,-97 68,-103 68,-109 68,-109 68,-121 68,-121 68,-127 62,-133 56,-133"/>
<text xml:space="preserve" text-anchor="middle" x="41" y="-111.5" font-family="Arial" font-size="10.00" fill="#1a1a1a">color</text>
</g>
<!-- attr_2 -->
<g id="node9" class="node">
<title>attr_2</title>
<path fill="#c7b8e6" stroke="#7f8c8d" stroke-width="1.2" d="M245.62,-133C245.62,-133 138.12,-133 138.12,-133 132.12,-133 126.12,-127 126.12,-121 126.12,-121 126.12,-109 126.12,-109 126.12,-103 132.12,-97 138.12,-97 138.12,-97 245.62,-97 245.62,-97 251.62,-97 257.62,-103 257.62,-109 257.62,-109 257.62,-121 257.62,-121 257.62,-127 251.62,-133 245.62,-133"/>
<text xml:space="preserve" text-anchor="middle" x="191.88" y="-111.5" font-family="Arial" font-size="10.00" fill="#1a1a1a">(+) excessive color variety</text>
</g>
<!-- property.color&#45;&gt;attr_2 -->
<g id="edge3" class="edge">
<title>property.color&#45;&gt;attr_2</title>
<path fill="none" stroke="#aaaaaa" d="M68.62,-115C82.47,-115 100.15,-115 117.74,-115"/>
<polygon fill="#aaaaaa" stroke="#aaaaaa" points="117.29,-117.45 124.29,-115 117.29,-112.55 117.29,-117.45"/>
</g>
<!-- rel_0 -->
<g id="node14" class="node">
<title>rel_0</title>
<path fill="#f5b8b8" stroke="#d46a6a" stroke-width="1.2" d="M214.12,-68C214.12,-68 169.62,-68 169.62,-68 163.62,-68 157.62,-62 157.62,-56 157.62,-56 157.62,-44 157.62,-44 157.62,-38 163.62,-32 169.62,-32 169.62,-32 214.12,-32 214.12,-32 220.12,-32 226.12,-38 226.12,-44 226.12,-44 226.12,-56 226.12,-56 226.12,-62 220.12,-68 214.12,-68"/>
<text xml:space="preserve" text-anchor="middle" x="191.88" y="-46.5" font-family="Arial" font-size="10.00" fill="#8b0000">overwhelms</text>
</g>
<!-- property.color&#45;&gt;rel_0 -->
<g id="edge8" class="edge">
<title>property.color&#45;&gt;rel_0</title>
<path fill="none" stroke="#d46a6a" stroke-width="1.5" d="M68.62,-103.38C90.66,-93.75 122.42,-79.89 148.04,-68.7"/>
<polygon fill="#d46a6a" stroke="#d46a6a" stroke-width="1.5" points="148.88,-71.39 155.09,-65.62 146.64,-66.26 148.88,-71.39"/>
</g>
<!-- rel_4 -->
<g id="node18" class="node">
<title>rel_4</title>
<path fill="#f5b8b8" stroke="#d46a6a" stroke-width="1.2" d="M217.5,-198C217.5,-198 166.25,-198 166.25,-198 160.25,-198 154.25,-192 154.25,-186 154.25,-186 154.25,-174 154.25,-174 154.25,-168 160.25,-162 166.25,-162 166.25,-162 217.5,-162 217.5,-162 223.5,-162 229.5,-168 229.5,-174 229.5,-174 229.5,-186 229.5,-186 229.5,-192 223.5,-198 217.5,-198"/>
<text xml:space="preserve" text-anchor="middle" x="191.88" y="-176.5" font-family="Arial" font-size="10.00" fill="#8b0000">contributes to</text>
</g>
<!-- property.color&#45;&gt;rel_4 -->
<g id="edge16" class="edge">
<title>property.color&#45;&gt;rel_4</title>
<path fill="none" stroke="#d46a6a" stroke-width="1.5" d="M68.62,-126.62C89.68,-135.82 119.6,-148.88 144.57,-159.78"/>
<polygon fill="#d46a6a" stroke="#d46a6a" stroke-width="1.5" points="143.33,-162.3 151.78,-162.93 145.57,-157.17 143.33,-162.3"/>
</g>
<!-- unknown.multiple_figures -->
<g id="node3" class="node">
<title>unknown.multiple_figures</title>
<path fill="#b8e6b8" stroke="#2c3e50" stroke-width="1.8" d="M70,-360C70,-360 12,-360 12,-360 6,-360 0,-354 0,-348 0,-348 0,-336 0,-336 0,-330 6,-324 12,-324 12,-324 70,-324 70,-324 76,-324 82,-330 82,-336 82,-336 82,-348 82,-348 82,-354 76,-360 70,-360"/>
<text xml:space="preserve" text-anchor="middle" x="41" y="-338.5" font-family="Arial" font-size="10.00" fill="#1a1a1a">multiple figures</text>
</g>
<!-- attr_0 -->
<g id="node10" class="node">
<title>attr_0</title>
<path fill="#c7b8e6" stroke="#7f8c8d" stroke-width="1.2" d="M246.75,-328C246.75,-328 137,-328 137,-328 131,-328 125,-322 125,-316 125,-316 125,-304 125,-304 125,-298 131,-292 137,-292 137,-292 246.75,-292 246.75,-292 252.75,-292 258.75,-298 258.75,-304 258.75,-304 258.75,-316 258.75,-316 258.75,-322 252.75,-328 246.75,-328"/>
<text xml:space="preserve" text-anchor="middle" x="191.88" y="-306.5" font-family="Arial" font-size="10.00" fill="#1a1a1a">(+) multiple varied subplots</text>
</g>
<!-- unknown.multiple_figures&#45;&gt;attr_0 -->
<g id="edge4" class="edge">
<title>unknown.multiple_figures&#45;&gt;attr_0</title>
<path fill="none" stroke="#aaaaaa" d="M82.68,-333.26C93.17,-331 104.8,-328.5 116.43,-326"/>
<polygon fill="#aaaaaa" stroke="#aaaaaa" points="116.66,-328.46 122.99,-324.59 115.63,-323.67 116.66,-328.46"/>
</g>
<!-- attr_1 -->
<g id="node11" class="node">
<title>attr_1</title>
<path fill="#c7b8e6" stroke="#7f8c8d" stroke-width="1.2" d="M243,-458C243,-458 140.75,-458 140.75,-458 134.75,-458 128.75,-452 128.75,-446 128.75,-446 128.75,-434 128.75,-434 128.75,-428 134.75,-422 140.75,-422 140.75,-422 243,-422 243,-422 249,-422 255,-428 255,-434 255,-434 255,-446 255,-446 255,-452 249,-458 243,-458"/>
<text xml:space="preserve" text-anchor="middle" x="191.88" y="-436.5" font-family="Arial" font-size="10.00" fill="#1a1a1a">(+) different volume sizes</text>
</g>
<!-- unknown.multiple_figures&#45;&gt;attr_1 -->
<g id="edge5" class="edge">
<title>unknown.multiple_figures&#45;&gt;attr_1</title>
<path fill="none" stroke="#aaaaaa" d="M62.88,-360.73C79.11,-374.76 102.57,-393.87 125,-408 130.37,-411.38 136.15,-414.66 141.98,-417.75"/>
<polygon fill="#aaaaaa" stroke="#aaaaaa" points="140.67,-419.83 148.01,-420.86 142.91,-415.48 140.67,-419.83"/>
</g>
<!-- rel_1 -->
<g id="node15" class="node">
<title>rel_1</title>
<path fill="#f5b8b8" stroke="#d46a6a" stroke-width="1.2" d="M246.38,-263C246.38,-263 137.38,-263 137.38,-263 131.38,-263 125.38,-257 125.38,-251 125.38,-251 125.38,-239 125.38,-239 125.38,-233 131.38,-227 137.38,-227 137.38,-227 246.38,-227 246.38,-227 252.38,-227 258.38,-233 258.38,-239 258.38,-239 258.38,-251 258.38,-251 258.38,-257 252.38,-263 246.38,-263"/>
<text xml:space="preserve" text-anchor="middle" x="191.88" y="-241.5" font-family="Arial" font-size="10.00" fill="#8b0000">increases processing effort</text>
</g>
<!-- unknown.multiple_figures&#45;&gt;rel_1 -->
<g id="edge10" class="edge">
<title>unknown.multiple_figures&#45;&gt;rel_1</title>
<path fill="none" stroke="#d46a6a" stroke-width="1.5" d="M64.04,-323.12C80.3,-309.67 103.27,-291.64 125,-278 130.33,-274.65 136.05,-271.37 141.81,-268.26"/>
<polygon fill="#d46a6a" stroke="#d46a6a" stroke-width="1.5" points="143.05,-270.77 148.82,-264.57 140.44,-265.81 143.05,-270.77"/>
</g>
<!-- rel_3 -->
<g id="node17" class="node">
<title>rel_3</title>
<path fill="#f5b8b8" stroke="#d46a6a" stroke-width="1.2" d="M233.62,-393C233.62,-393 150.12,-393 150.12,-393 144.12,-393 138.12,-387 138.12,-381 138.12,-381 138.12,-369 138.12,-369 138.12,-363 144.12,-357 150.12,-357 150.12,-357 233.62,-357 233.62,-357 239.62,-357 245.62,-363 245.62,-369 245.62,-369 245.62,-381 245.62,-381 245.62,-387 239.62,-393 233.62,-393"/>
<text xml:space="preserve" text-anchor="middle" x="191.88" y="-371.5" font-family="Arial" font-size="10.00" fill="#8b0000">requires expertise for</text>
</g>
<!-- unknown.multiple_figures&#45;&gt;rel_3 -->
<g id="edge14" class="edge">
<title>unknown.multiple_figures&#45;&gt;rel_3</title>
<path fill="none" stroke="#d46a6a" stroke-width="1.5" d="M82.68,-351.02C96.59,-354.1 112.5,-357.63 127.76,-361.01"/>
<polygon fill="#d46a6a" stroke="#d46a6a" stroke-width="1.5" points="127.03,-363.72 135.45,-362.71 128.25,-358.25 127.03,-363.72"/>
</g>
<!-- furniture.legend -->
<g id="node4" class="node">
<title>furniture.legend</title>
<path fill="#b8e6b8" stroke="#2c3e50" stroke-width="1.8" d="M345,-393C345,-393 315,-393 315,-393 309,-393 303,-387 303,-381 303,-381 303,-369 303,-369 303,-363 309,-357 315,-357 315,-357 345,-357 345,-357 351,-357 357,-363 357,-369 357,-369 357,-381 357,-381 357,-387 351,-393 345,-393"/>
<text xml:space="preserve" text-anchor="middle" x="330" y="-371.5" font-family="Arial" font-size="10.00" fill="#1a1a1a">legend</text>
</g>
<!-- unknown.data_area -->
<g id="node5" class="node">
<title>unknown.data_area</title>
<path fill="#b8e6b8" stroke="#2c3e50" stroke-width="1.8" d="M346.25,-68C346.25,-68 313.75,-68 313.75,-68 307.75,-68 301.75,-62 301.75,-56 301.75,-56 301.75,-44 301.75,-44 301.75,-38 307.75,-32 313.75,-32 313.75,-32 346.25,-32 346.25,-32 352.25,-32 358.25,-38 358.25,-44 358.25,-44 358.25,-56 358.25,-56 358.25,-62 352.25,-68 346.25,-68"/>
<text xml:space="preserve" text-anchor="middle" x="330" y="-46.5" font-family="Arial" font-size="10.00" fill="#1a1a1a">data area</text>
</g>
<!-- attr_3 -->
<g id="node12" class="node">
<title>attr_3</title>
<path fill="#c7b8e6" stroke="#7f8c8d" stroke-width="1.2" d="M520.75,-101C520.75,-101 413.25,-101 413.25,-101 407.25,-101 401.25,-95 401.25,-89 401.25,-89 401.25,-77 401.25,-77 401.25,-71 407.25,-65 413.25,-65 413.25,-65 520.75,-65 520.75,-65 526.75,-65 532.75,-71 532.75,-77 532.75,-77 532.75,-89 532.75,-89 532.75,-95 526.75,-101 520.75,-101"/>
<text xml:space="preserve" text-anchor="middle" x="467" y="-79.5" font-family="Arial" font-size="10.00" fill="#1a1a1a">(+) condensed dense zone</text>
</g>
<!-- unknown.data_area&#45;&gt;attr_3 -->
<g id="edge6" class="edge">
<title>unknown.data_area&#45;&gt;attr_3</title>
<path fill="none" stroke="#aaaaaa" d="M358.97,-56.84C368.98,-59.28 380.78,-62.17 392.83,-65.11"/>
<polygon fill="#aaaaaa" stroke="#aaaaaa" points="391.91,-67.41 399.29,-66.69 393.07,-62.65 391.91,-67.41"/>
</g>
<!-- rel_2 -->
<g id="node16" class="node">
<title>rel_2</title>
<path fill="#f5b8b8" stroke="#d46a6a" stroke-width="1.2" d="M482.88,-36C482.88,-36 451.12,-36 451.12,-36 445.12,-36 439.12,-30 439.12,-24 439.12,-24 439.12,-12 439.12,-12 439.12,-6 445.12,0 451.12,0 451.12,0 482.88,0 482.88,0 488.88,0 494.88,-6 494.88,-12 494.88,-12 494.88,-24 494.88,-24 494.88,-30 488.88,-36 482.88,-36"/>
<text xml:space="preserve" text-anchor="middle" x="467" y="-14.5" font-family="Arial" font-size="10.00" fill="#8b0000">obscures</text>
</g>
<!-- unknown.data_area&#45;&gt;rel_2 -->
<g id="edge12" class="edge">
<title>unknown.data_area&#45;&gt;rel_2</title>
<path fill="none" stroke="#d46a6a" stroke-width="1.5" d="M358.97,-43.37C379.2,-38.58 406.74,-32.05 428.81,-26.81"/>
<polygon fill="#d46a6a" stroke="#d46a6a" stroke-width="1.5" points="429.18,-29.61 436.32,-25.04 427.89,-24.16 429.18,-29.61"/>
</g>
<!-- text.annotation -->
<g id="node6" class="node">
<title>text.annotation</title>
<path fill="#b8e6b8" stroke="#2c3e50" stroke-width="1.8" d="M624.75,-36C624.75,-36 587.75,-36 587.75,-36 581.75,-36 575.75,-30 575.75,-24 575.75,-24 575.75,-12 575.75,-12 575.75,-6 581.75,0 587.75,0 587.75,0 624.75,0 624.75,0 630.75,0 636.75,-6 636.75,-12 636.75,-12 636.75,-24 636.75,-24 636.75,-30 630.75,-36 624.75,-36"/>
<text xml:space="preserve" text-anchor="middle" x="606.25" y="-14.5" font-family="Arial" font-size="10.00" fill="#1a1a1a">annotation</text>
</g>
<!-- attr_5 -->
<g id="node13" class="node">
<title>attr_5</title>
<path fill="#c7b8e6" stroke="#7f8c8d" stroke-width="1.2" d="M774.5,-36C774.5,-36 691.75,-36 691.75,-36 685.75,-36 679.75,-30 679.75,-24 679.75,-24 679.75,-12 679.75,-12 679.75,-6 685.75,0 691.75,0 691.75,0 774.5,0 774.5,0 780.5,0 786.5,-6 786.5,-12 786.5,-12 786.5,-24 786.5,-24 786.5,-30 780.5,-36 774.5,-36"/>
<text xml:space="preserve" text-anchor="middle" x="733.12" y="-14.5" font-family="Arial" font-size="10.00" fill="#1a1a1a">(+) insufficient clarity</text>
</g>
<!-- text.annotation&#45;&gt;attr_5 -->
<g id="edge7" class="edge">
<title>text.annotation&#45;&gt;attr_5</title>
<path fill="none" stroke="#aaaaaa" d="M637.48,-18C647.59,-18 659.24,-18 670.85,-18"/>
<polygon fill="#aaaaaa" stroke="#aaaaaa" points="670.75,-20.45 677.75,-18 670.75,-15.55 670.75,-20.45"/>
</g>
<!-- rel_0&#45;&gt;unknown.data_area -->
<g id="edge9" class="edge">
<title>rel_0&#45;&gt;unknown.data_area</title>
<path fill="none" stroke="#d46a6a" stroke-width="1.5" d="M226.52,-50C246.1,-50 270.83,-50 291.1,-50"/>
<polygon fill="#d46a6a" stroke="#d46a6a" stroke-width="1.5" points="290.96,-52.8 298.96,-50 290.96,-47.2 290.96,-52.8"/>
</g>
<!-- rel_1&#45;&gt;unknown.glyph -->
<g id="edge11" class="edge">
<title>rel_1&#45;&gt;unknown.glyph</title>
<path fill="none" stroke="#d46a6a" stroke-width="1.5" d="M258.94,-233.35C270.43,-231.33 281.98,-229.29 292.31,-227.47"/>
<polygon fill="#d46a6a" stroke="#d46a6a" stroke-width="1.5" points="292.55,-230.27 299.94,-226.12 291.57,-224.76 292.55,-230.27"/>
</g>
<!-- rel_2&#45;&gt;text.annotation -->
<g id="edge13" class="edge">
<title>rel_2&#45;&gt;text.annotation</title>
<path fill="none" stroke="#d46a6a" stroke-width="1.5" d="M495.44,-18C515.3,-18 542.45,-18 564.79,-18"/>
<polygon fill="#d46a6a" stroke="#d46a6a" stroke-width="1.5" points="564.72,-20.8 572.72,-18 564.72,-15.2 564.72,-20.8"/>
</g>
<!-- rel_3&#45;&gt;furniture.legend -->
<g id="edge15" class="edge">
<title>rel_3&#45;&gt;furniture.legend</title>
<path fill="none" stroke="#d46a6a" stroke-width="1.5" d="M245.89,-375C261.39,-375 277.99,-375 292.24,-375"/>
<polygon fill="#d46a6a" stroke="#d46a6a" stroke-width="1.5" points="291.88,-377.8 299.88,-375 291.88,-372.2 291.88,-377.8"/>
</g>
<!-- rel_4&#45;&gt;unknown.glyph -->
<g id="edge17" class="edge">
<title>rel_4&#45;&gt;unknown.glyph</title>
<path fill="none" stroke="#d46a6a" stroke-width="1.5" d="M230.07,-191.2C249.51,-197.06 273.21,-204.2 292.54,-210.02"/>
<polygon fill="#d46a6a" stroke="#d46a6a" stroke-width="1.5" points="291.57,-212.65 300.03,-212.28 293.18,-207.29 291.57,-212.65"/>
</g>
</g>
</svg>
