<?xml version="1.0" encoding="UTF-8" standalone="no"?>
<!DOCTYPE svg PUBLIC "-//W3C//DTD SVG 1.1//EN"
 "http://www.w3.org/Graphics/SVG/1.1/DTD/svg11.dtd">
<!-- Generated by graphviz version 14.1.5 (20260411.2331)
 -->
<!-- Title: SciVisJ.797.13.png Pages: 1 -->
<svg width="944pt" height="375pt"
 viewBox="0.00 0.00 944.00 375.00" xmlns="http://www.w3.org/2000/svg" xmlns:xlink="http://www.w3.org/1999/xlink">
<g id="graph0" class="graph" transform="scale(1 1) rotate(0) translate(4 371.25)">
<title>SciVisJ.797.13.png</title>
<polygon fill="white" stroke="none" points="-4,4 -4,-371.25 940,-371.25 940,4 -4,4"/>
<text xml:space="preserve" text-anchor="start" x="407.25" y="-346.95" font-family="Arial" font-weight="bold" font-size="14.00">SciVisJ.797.13.png</text>
<text xml:space="preserve" text-anchor="start" x="421.88" y="-327" font-family="Arial" font-size="11.00">Glyph &#160;| &#160;VC = 0.73</text>
<path fill="#b8e6b8" stroke="none" d="M258.62,-302C258.62,-302 266.62,-302 266.62,-302 269.62,-302 272.62,-305 272.62,-308 272.62,-308 272.62,-314 272.62,-314 272.62,-317 269.62,-320 266.62,-320 266.62,-320 258.62,-320 258.62,-320 255.62,-320 252.62,-317 252.62,-314 252.62,-314 252.62,-308 252.62,-308 252.62,-305 255.62,-302 258.62,-302"/>
<path fill="none" stroke="black" d="M258.62,-302C258.62,-302 266.62,-302 266.62,-302 269.62,-302 272.62,-305 272.62,-308 272.62,-308 272.62,-314 272.62,-314 272.62,-317 269.62,-320 266.62,-320 266.62,-320 258.62,-320 258.62,-320 255.62,-320 252.62,-317 252.62,-314 252.62,-314 252.62,-308 252.62,-308 252.62,-305 255.62,-302 258.62,-302"/>
<text xml:space="preserve" text-anchor="start" x="261.12" y="-307.25" font-family="Arial" font-size="10.00"> </text>
<text xml:space="preserve" text-anchor="start" x="276.62" y="-307.25" font-family="Arial" font-size="10.00">Object</text>
<path fill="#c7b8e6" stroke="none" d="M315.12,-302C315.12,-302 323.12,-302 323.12,-302 326.12,-302 329.12,-305 329.12,-308 329.12,-308 329.12,-314 329.12,-314 329.12,-317 326.12,-320 323.12,-320 323.12,-320 315.12,-320 315.12,-320 312.12,-320 309.12,-317 309.12,-314 309.12,-314 309.12,-308 309.12,-308 309.12,-305 312.12,-302 315.12,-302"/>
<path fill="none" stroke="black" d="M315.12,-302C315.12,-302 323.12,-302 323.12,-302 326.12,-302 329.12,-305 329.12,-308 329.12,-308 329.12,-314 329.12,-314 329.12,-317 326.12,-320 323.12,-320 323.12,-320 315.12,-320 315.12,-320 312.12,-320 309.12,-317 309.12,-314 309.12,-314 309.12,-308 309.12,-308 309.12,-305 312.12,-302 315.12,-302"/>
<text xml:space="preserve" text-anchor="start" x="317.62" y="-307.25" font-family="Arial" font-size="10.00"> </text>
<text xml:space="preserve" text-anchor="start" x="333.12" y="-307.25" font-family="Arial" font-size="10.00">Attribute</text>
<path fill="#f5b8b8" stroke="none" d="M379.88,-302C379.88,-302 387.88,-302 387.88,-302 390.88,-302 393.88,-305 393.88,-308 393.88,-308 393.88,-314 393.88,-314 393.88,-317 390.88,-320 387.88,-320 387.88,-320 379.88,-320 379.88,-320 376.88,-320 373.88,-317 373.88,-314 373.88,-314 373.88,-308 373.88,-308 373.88,-305 376.88,-302 379.88,-302"/>
<path fill="none" stroke="black" d="M379.88,-302C379.88,-302 387.88,-302 387.88,-302 390.88,-302 393.88,-305 393.88,-308 393.88,-308 393.88,-314 393.88,-314 393.88,-317 390.88,-320 387.88,-320 387.88,-320 379.88,-320 379.88,-320 376.88,-320 373.88,-317 373.88,-314 373.88,-314 373.88,-308 373.88,-308 373.88,-305 376.88,-302 379.88,-302"/>
<text xml:space="preserve" text-anchor="start" x="382.38" y="-307.25" font-family="Arial" font-size="10.00"> </text>
<text xml:space="preserve" text-anchor="start" x="397.88" y="-307.25" font-family="Arial" font-size="10.00">Relationship</text>
<text xml:space="preserve" text-anchor="start" x="457.88" y="-308.5" font-family="Arial" font-weight="bold" font-size="10.00">(+)</text>
<text xml:space="preserve" text-anchor="start" x="469.88" y="-308.5" font-family="Arial" font-size="10.00"> increases complexity</text>
<text xml:space="preserve" text-anchor="start" x="571.12" y="-308.5" font-family="Arial" font-weight="bold" font-size="10.00">(−)</text>
<text xml:space="preserve" text-anchor="start" x="583.12" y="-308.5" font-family="Arial" font-size="10.00"> decreases complexity</text>
<!-- unknown.glyph -->
<g id="node1" class="node">
<title>unknown.glyph</title>
<path fill="#b8e6b8" stroke="#2c3e50" stroke-width="1.8" d="M302,-263C302,-263 272,-263 272,-263 266,-263 260,-257 260,-251 260,-251 260,-239 260,-239 260,-233 266,-227 272,-227 272,-227 302,-227 302,-227 308,-227 314,-233 314,-239 314,-239 314,-251 314,-251 314,-257 308,-263 302,-263"/>
<text xml:space="preserve" text-anchor="middle" x="287" y="-241.5" font-family="Arial" font-size="10.00" fill="#1a1a1a">glyph</text>
</g>
<!-- attr_0 -->
<g id="node6" class="node">
<title>attr_0</title>
<path fill="#c7b8e6" stroke="#7f8c8d" stroke-width="1.2" d="M490.88,-296C490.88,-296 390.88,-296 390.88,-296 384.88,-296 378.88,-290 378.88,-284 378.88,-284 378.88,-272 378.88,-272 378.88,-266 384.88,-260 390.88,-260 390.88,-260 490.88,-260 490.88,-260 496.88,-260 502.88,-266 502.88,-272 502.88,-272 502.88,-284 502.88,-284 502.88,-290 496.88,-296 490.88,-296"/>
<text xml:space="preserve" text-anchor="middle" x="440.88" y="-274.5" font-family="Arial" font-size="10.00" fill="#1a1a1a">(+) unfamiliar visual form</text>
</g>
<!-- unknown.glyph&#45;&gt;attr_0 -->
<g id="edge1" class="edge">
<title>unknown.glyph&#45;&gt;attr_0</title>
<path fill="none" stroke="#aaaaaa" d="M314.8,-250.82C330.3,-254.19 350.57,-258.6 370.27,-262.88"/>
<polygon fill="#aaaaaa" stroke="#aaaaaa" points="369.53,-265.22 376.89,-264.31 370.57,-260.43 369.53,-265.22"/>
</g>
<!-- rel_0 -->
<g id="node11" class="node">
<title>rel_0</title>
<path fill="#f5b8b8" stroke="#d46a6a" stroke-width="1.2" d="M502.88,-231C502.88,-231 378.88,-231 378.88,-231 372.88,-231 366.88,-225 366.88,-219 366.88,-219 366.88,-207 366.88,-207 366.88,-201 372.88,-195 378.88,-195 378.88,-195 502.88,-195 502.88,-195 508.88,-195 514.88,-201 514.88,-207 514.88,-207 514.88,-219 514.88,-219 514.88,-225 508.88,-231 502.88,-231"/>
<text xml:space="preserve" text-anchor="middle" x="440.88" y="-209.5" font-family="Arial" font-size="10.00" fill="#8b0000">increases interpretive difficulty</text>
</g>
<!-- unknown.glyph&#45;&gt;rel_0 -->
<g id="edge6" class="edge">
<title>unknown.glyph&#45;&gt;rel_0</title>
<path fill="none" stroke="#d46a6a" stroke-width="1.5" d="M314.8,-239.35C326.68,-236.85 341.36,-233.76 356.45,-230.58"/>
<polygon fill="#d46a6a" stroke="#d46a6a" stroke-width="1.5" points="356.92,-233.34 364.17,-228.95 355.76,-227.86 356.92,-233.34"/>
</g>
<!-- whole.visualization -->
<g id="node2" class="node">
<title>whole.visualization</title>
<path fill="#b8e6b8" stroke="#2c3e50" stroke-width="1.8" d="M634.25,-133C634.25,-133 579.25,-133 579.25,-133 573.25,-133 567.25,-127 567.25,-121 567.25,-121 567.25,-109 567.25,-109 567.25,-103 573.25,-97 579.25,-97 579.25,-97 634.25,-97 634.25,-97 640.25,-97 646.25,-103 646.25,-109 646.25,-109 646.25,-121 646.25,-121 646.25,-127 640.25,-133 634.25,-133"/>
<text xml:space="preserve" text-anchor="middle" x="606.75" y="-111.5" font-family="Arial" font-size="10.00" fill="#1a1a1a">chart structure</text>
</g>
<!-- attr_1 -->
<g id="node7" class="node">
<title>attr_1</title>
<path fill="#c7b8e6" stroke="#7f8c8d" stroke-width="1.2" d="M820,-166C820,-166 701.25,-166 701.25,-166 695.25,-166 689.25,-160 689.25,-154 689.25,-154 689.25,-142 689.25,-142 689.25,-136 695.25,-130 701.25,-130 701.25,-130 820,-130 820,-130 826,-130 832,-136 832,-142 832,-142 832,-154 832,-154 832,-160 826,-166 820,-166"/>
<text xml:space="preserve" text-anchor="middle" x="760.62" y="-144.5" font-family="Arial" font-size="10.00" fill="#1a1a1a">(+) unconventional chart type</text>
</g>
<!-- whole.visualization&#45;&gt;attr_1 -->
<g id="edge2" class="edge">
<title>whole.visualization&#45;&gt;attr_1</title>
<path fill="none" stroke="#aaaaaa" d="M646.86,-123.5C657.29,-125.76 668.94,-128.29 680.68,-130.85"/>
<polygon fill="#aaaaaa" stroke="#aaaaaa" points="679.97,-133.2 687.33,-132.29 681.01,-128.41 679.97,-133.2"/>
</g>
<!-- rel_3 -->
<g id="node14" class="node">
<title>rel_3</title>
<path fill="#f5b8b8" stroke="#d46a6a" stroke-width="1.2" d="M782.88,-101C782.88,-101 738.38,-101 738.38,-101 732.38,-101 726.38,-95 726.38,-89 726.38,-89 726.38,-77 726.38,-77 726.38,-71 732.38,-65 738.38,-65 738.38,-65 782.88,-65 782.88,-65 788.88,-65 794.88,-71 794.88,-77 794.88,-77 794.88,-89 794.88,-89 794.88,-95 788.88,-101 782.88,-101"/>
<text xml:space="preserve" text-anchor="middle" x="760.62" y="-79.5" font-family="Arial" font-size="10.00" fill="#8b0000">overwhelms</text>
</g>
<!-- whole.visualization&#45;&gt;rel_3 -->
<g id="edge12" class="edge">
<title>whole.visualization&#45;&gt;rel_3</title>
<path fill="none" stroke="#d46a6a" stroke-width="1.5" d="M646.86,-106.76C667.95,-102.31 694.05,-96.82 715.82,-92.23"/>
<polygon fill="#d46a6a" stroke="#d46a6a" stroke-width="1.5" points="716.33,-94.98 723.58,-90.59 715.18,-89.5 716.33,-94.98"/>
</g>
<!-- unknown.encoding -->
<g id="node3" class="node">
<title>unknown.encoding</title>
<path fill="#b8e6b8" stroke="#2c3e50" stroke-width="1.8" d="M302.5,-101C302.5,-101 271.5,-101 271.5,-101 265.5,-101 259.5,-95 259.5,-89 259.5,-89 259.5,-77 259.5,-77 259.5,-71 265.5,-65 271.5,-65 271.5,-65 302.5,-65 302.5,-65 308.5,-65 314.5,-71 314.5,-77 314.5,-77 314.5,-89 314.5,-89 314.5,-95 308.5,-101 302.5,-101"/>
<text xml:space="preserve" text-anchor="middle" x="287" y="-79.5" font-family="Arial" font-size="10.00" fill="#1a1a1a">encoding</text>
</g>
<!-- attr_2 -->
<g id="node8" class="node">
<title>attr_2</title>
<path fill="#c7b8e6" stroke="#7f8c8d" stroke-width="1.2" d="M490.88,-166C490.88,-166 390.88,-166 390.88,-166 384.88,-166 378.88,-160 378.88,-154 378.88,-154 378.88,-142 378.88,-142 378.88,-136 384.88,-130 390.88,-130 390.88,-130 490.88,-130 490.88,-130 496.88,-130 502.88,-136 502.88,-142 502.88,-142 502.88,-154 502.88,-154 502.88,-160 496.88,-166 490.88,-166"/>
<text xml:space="preserve" text-anchor="middle" x="440.88" y="-144.5" font-family="Arial" font-size="10.00" fill="#1a1a1a">(+) unclear data mapping</text>
</g>
<!-- unknown.encoding&#45;&gt;attr_2 -->
<g id="edge3" class="edge">
<title>unknown.encoding&#45;&gt;attr_2</title>
<path fill="none" stroke="#aaaaaa" d="M315.19,-96.47C327.94,-102.64 343.39,-109.92 357.5,-116 365.59,-119.49 374.2,-123.02 382.68,-126.4"/>
<polygon fill="#aaaaaa" stroke="#aaaaaa" points="381.6,-128.61 389.01,-128.9 383.4,-124.05 381.6,-128.61"/>
</g>
<!-- attr_4 -->
<g id="node9" class="node">
<title>attr_4</title>
<path fill="#c7b8e6" stroke="#7f8c8d" stroke-width="1.2" d="M512.25,-101C512.25,-101 369.5,-101 369.5,-101 363.5,-101 357.5,-95 357.5,-89 357.5,-89 357.5,-77 357.5,-77 357.5,-71 363.5,-65 369.5,-65 369.5,-65 512.25,-65 512.25,-65 518.25,-65 524.25,-71 524.25,-77 524.25,-77 524.25,-89 524.25,-89 524.25,-95 518.25,-101 512.25,-101"/>
<text xml:space="preserve" text-anchor="middle" x="440.88" y="-79.5" font-family="Arial" font-size="10.00" fill="#1a1a1a">(+) requires specialized knowledge</text>
</g>
<!-- unknown.encoding&#45;&gt;attr_4 -->
<g id="edge4" class="edge">
<title>unknown.encoding&#45;&gt;attr_4</title>
<path fill="none" stroke="#aaaaaa" d="M315.15,-83C324.86,-83 336.41,-83 348.5,-83"/>
<polygon fill="#aaaaaa" stroke="#aaaaaa" points="348.43,-85.45 355.43,-83 348.43,-80.55 348.43,-85.45"/>
</g>
<!-- rel_1 -->
<g id="node12" class="node">
<title>rel_1</title>
<path fill="#f5b8b8" stroke="#d46a6a" stroke-width="1.2" d="M482.62,-36C482.62,-36 399.12,-36 399.12,-36 393.12,-36 387.12,-30 387.12,-24 387.12,-24 387.12,-12 387.12,-12 387.12,-6 393.12,0 399.12,0 399.12,0 482.62,0 482.62,0 488.62,0 494.62,-6 494.62,-12 494.62,-12 494.62,-24 494.62,-24 494.62,-30 488.62,-36 482.62,-36"/>
<text xml:space="preserve" text-anchor="middle" x="440.88" y="-14.5" font-family="Arial" font-size="10.00" fill="#8b0000">requires expertise for</text>
</g>
<!-- unknown.encoding&#45;&gt;rel_1 -->
<g id="edge8" class="edge">
<title>unknown.encoding&#45;&gt;rel_1</title>
<path fill="none" stroke="#d46a6a" stroke-width="1.5" d="M315.19,-69.53C327.94,-63.36 343.39,-56.08 357.5,-50 365.1,-46.73 373.14,-43.41 381.12,-40.22"/>
<polygon fill="#d46a6a" stroke="#d46a6a" stroke-width="1.5" points="381.9,-42.92 388.3,-37.38 379.84,-37.72 381.9,-42.92"/>
</g>
<!-- furniture.legend -->
<g id="node4" class="node">
<title>furniture.legend</title>
<path fill="#b8e6b8" stroke="#2c3e50" stroke-width="1.8" d="M42,-133C42,-133 12,-133 12,-133 6,-133 0,-127 0,-121 0,-121 0,-109 0,-109 0,-103 6,-97 12,-97 12,-97 42,-97 42,-97 48,-97 54,-103 54,-109 54,-109 54,-121 54,-121 54,-127 48,-133 42,-133"/>
<text xml:space="preserve" text-anchor="middle" x="27" y="-111.5" font-family="Arial" font-size="10.00" fill="#1a1a1a">legend</text>
</g>
<!-- attr_3 -->
<g id="node10" class="node">
<title>attr_3</title>
<path fill="#c7b8e6" stroke="#7f8c8d" stroke-width="1.2" d="M204.5,-166C204.5,-166 109,-166 109,-166 103,-166 97,-160 97,-154 97,-154 97,-142 97,-142 97,-136 103,-130 109,-130 109,-130 204.5,-130 204.5,-130 210.5,-130 216.5,-136 216.5,-142 216.5,-142 216.5,-154 216.5,-154 216.5,-160 210.5,-166 204.5,-166"/>
<text xml:space="preserve" text-anchor="middle" x="156.75" y="-144.5" font-family="Arial" font-size="10.00" fill="#1a1a1a">(+) insufficient guidance</text>
</g>
<!-- furniture.legend&#45;&gt;attr_3 -->
<g id="edge5" class="edge">
<title>furniture.legend&#45;&gt;attr_3</title>
<path fill="none" stroke="#aaaaaa" d="M54.78,-121.92C64.8,-124.51 76.69,-127.58 88.73,-130.69"/>
<polygon fill="#aaaaaa" stroke="#aaaaaa" points="87.79,-132.97 95.18,-132.35 89.01,-128.23 87.79,-132.97"/>
</g>
<!-- rel_2 -->
<g id="node13" class="node">
<title>rel_2</title>
<path fill="#f5b8b8" stroke="#d46a6a" stroke-width="1.2" d="M182,-101C182,-101 131.5,-101 131.5,-101 125.5,-101 119.5,-95 119.5,-89 119.5,-89 119.5,-77 119.5,-77 119.5,-71 125.5,-65 131.5,-65 131.5,-65 182,-65 182,-65 188,-65 194,-71 194,-77 194,-77 194,-89 194,-89 194,-95 188,-101 182,-101"/>
<text xml:space="preserve" text-anchor="middle" x="156.75" y="-79.5" font-family="Arial" font-size="10.00" fill="#8b0000">fails to clarify</text>
</g>
<!-- furniture.legend&#45;&gt;rel_2 -->
<g id="edge10" class="edge">
<title>furniture.legend&#45;&gt;rel_2</title>
<path fill="none" stroke="#d46a6a" stroke-width="1.5" d="M54.78,-108.29C70.58,-104.33 91.02,-99.21 109.38,-94.62"/>
<polygon fill="#d46a6a" stroke="#d46a6a" stroke-width="1.5" points="110.03,-97.34 117.11,-92.68 108.67,-91.91 110.03,-97.34"/>
</g>
<!-- text.annotation -->
<g id="node5" class="node">
<title>text.annotation</title>
<path fill="#b8e6b8" stroke="#2c3e50" stroke-width="1.8" d="M924,-101C924,-101 887,-101 887,-101 881,-101 875,-95 875,-89 875,-89 875,-77 875,-77 875,-71 881,-65 887,-65 887,-65 924,-65 924,-65 930,-65 936,-71 936,-77 936,-77 936,-89 936,-89 936,-95 930,-101 924,-101"/>
<text xml:space="preserve" text-anchor="middle" x="905.5" y="-79.5" font-family="Arial" font-size="10.00" fill="#1a1a1a">annotation</text>
</g>
<!-- rel_0&#45;&gt;whole.visualization -->
<g id="edge7" class="edge">
<title>rel_0&#45;&gt;whole.visualization</title>
<path fill="none" stroke="#d46a6a" stroke-width="1.5" d="M496.61,-194.5C506.07,-190.53 515.62,-186 524.25,-181 543.83,-169.64 563.62,-153.75 578.79,-140.41"/>
<polygon fill="#d46a6a" stroke="#d46a6a" stroke-width="1.5" points="580.49,-142.64 584.58,-135.21 576.76,-138.46 580.49,-142.64"/>
</g>
<!-- rel_1&#45;&gt;whole.visualization -->
<g id="edge9" class="edge">
<title>rel_1&#45;&gt;whole.visualization</title>
<path fill="none" stroke="#d46a6a" stroke-width="1.5" d="M494.83,-35.83C504.86,-39.97 515.07,-44.72 524.25,-50 543.62,-61.14 563.27,-76.66 578.42,-89.73"/>
<polygon fill="#d46a6a" stroke="#d46a6a" stroke-width="1.5" points="576.34,-91.64 584.2,-94.82 580.04,-87.43 576.34,-91.64"/>
</g>
<!-- rel_2&#45;&gt;unknown.encoding -->
<g id="edge11" class="edge">
<title>rel_2&#45;&gt;unknown.encoding</title>
<path fill="none" stroke="#d46a6a" stroke-width="1.5" d="M194.5,-83C211.42,-83 231.47,-83 248.48,-83"/>
<polygon fill="#d46a6a" stroke="#d46a6a" stroke-width="1.5" points="248.35,-85.8 256.35,-83 248.35,-80.2 248.35,-85.8"/>
</g>
<!-- rel_3&#45;&gt;text.annotation -->
<g id="edge13" class="edge">
<title>rel_3&#45;&gt;text.annotation</title>
<path fill="none" stroke="#d46a6a" stroke-width="1.5" d="M795.12,-83C815.68,-83 842.14,-83 863.88,-83"/>
<polygon fill="#d46a6a" stroke="#d46a6a" stroke-width="1.5" points="863.86,-85.8 871.86,-83 863.86,-80.2 863.86,-85.8"/>
</g>
</g>
</svg>
