<?xml version="1.0" encoding="UTF-8" standalone="no"?>
<!DOCTYPE svg PUBLIC "-//W3C//DTD SVG 1.1//EN"
 "http://www.w3.org/Graphics/SVG/1.1/DTD/svg11.dtd">
<!-- Generated by graphviz version 14.1.5 (20260411.2331)
 -->
<!-- Title: SciVisJ.877.8(2).png Pages: 1 -->
<svg width="1165pt" height="244pt"
 viewBox="0.00 0.00 1165.00 244.00" xmlns="http://www.w3.org/2000/svg" xmlns:xlink="http://www.w3.org/1999/xlink">
<g id="graph0" class="graph" transform="scale(1 1) rotate(0) translate(4 240.25)">
<title>SciVisJ.877.8(2).png</title>
<polygon fill="white" stroke="none" points="-4,4 -4,-240.25 1161,-240.25 1161,4 -4,4"/>
<text xml:space="preserve" text-anchor="start" x="513.25" y="-215.95" font-family="Arial" font-weight="bold" font-size="14.00">SciVisJ.877.8(2).png</text>
<text xml:space="preserve" text-anchor="start" x="532.38" y="-196" font-family="Arial" font-size="11.00">Glyph &#160;| &#160;VC = 0.68</text>
<path fill="#b8e6b8" stroke="none" d="M369.12,-171C369.12,-171 377.12,-171 377.12,-171 380.12,-171 383.12,-174 383.12,-177 383.12,-177 383.12,-183 383.12,-183 383.12,-186 380.12,-189 377.12,-189 377.12,-189 369.12,-189 369.12,-189 366.12,-189 363.12,-186 363.12,-183 363.12,-183 363.12,-177 363.12,-177 363.12,-174 366.12,-171 369.12,-171"/>
<path fill="none" stroke="black" d="M369.12,-171C369.12,-171 377.12,-171 377.12,-171 380.12,-171 383.12,-174 383.12,-177 383.12,-177 383.12,-183 383.12,-183 383.12,-186 380.12,-189 377.12,-189 377.12,-189 369.12,-189 369.12,-189 366.12,-189 363.12,-186 363.12,-183 363.12,-183 363.12,-177 363.12,-177 363.12,-174 366.12,-171 369.12,-171"/>
<text xml:space="preserve" text-anchor="start" x="371.62" y="-176.25" font-family="Arial" font-size="10.00"> </text>
<text xml:space="preserve" text-anchor="start" x="387.12" y="-176.25" font-family="Arial" font-size="10.00">Object</text>
<path fill="#c7b8e6" stroke="none" d="M425.62,-171C425.62,-171 433.62,-171 433.62,-171 436.62,-171 439.62,-174 439.62,-177 439.62,-177 439.62,-183 439.62,-183 439.62,-186 436.62,-189 433.62,-189 433.62,-189 425.62,-189 425.62,-189 422.62,-189 419.62,-186 419.62,-183 419.62,-183 419.62,-177 419.62,-177 419.62,-174 422.62,-171 425.62,-171"/>
<path fill="none" stroke="black" d="M425.62,-171C425.62,-171 433.62,-171 433.62,-171 436.62,-171 439.62,-174 439.62,-177 439.62,-177 439.62,-183 439.62,-183 439.62,-186 436.62,-189 433.62,-189 433.62,-189 425.62,-189 425.62,-189 422.62,-189 419.62,-186 419.62,-183 419.62,-183 419.62,-177 419.62,-177 419.62,-174 422.62,-171 425.62,-171"/>
<text xml:space="preserve" text-anchor="start" x="428.12" y="-176.25" font-family="Arial" font-size="10.00"> </text>
<text xml:space="preserve" text-anchor="start" x="443.62" y="-176.25" font-family="Arial" font-size="10.00">Attribute</text>
<path fill="#f5b8b8" stroke="none" d="M490.38,-171C490.38,-171 498.38,-171 498.38,-171 501.38,-171 504.38,-174 504.38,-177 504.38,-177 504.38,-183 504.38,-183 504.38,-186 501.38,-189 498.38,-189 498.38,-189 490.38,-189 490.38,-189 487.38,-189 484.38,-186 484.38,-183 484.38,-183 484.38,-177 484.38,-177 484.38,-174 487.38,-171 490.38,-171"/>
<path fill="none" stroke="black" d="M490.38,-171C490.38,-171 498.38,-171 498.38,-171 501.38,-171 504.38,-174 504.38,-177 504.38,-177 504.38,-183 504.38,-183 504.38,-186 501.38,-189 498.38,-189 498.38,-189 490.38,-189 490.38,-189 487.38,-189 484.38,-186 484.38,-183 484.38,-183 484.38,-177 484.38,-177 484.38,-174 487.38,-171 490.38,-171"/>
<text xml:space="preserve" text-anchor="start" x="492.88" y="-176.25" font-family="Arial" font-size="10.00"> </text>
<text xml:space="preserve" text-anchor="start" x="508.38" y="-176.25" font-family="Arial" font-size="10.00">Relationship</text>
<text xml:space="preserve" text-anchor="start" x="568.38" y="-177.5" font-family="Arial" font-weight="bold" font-size="10.00">(+)</text>
<text xml:space="preserve" text-anchor="start" x="580.38" y="-177.5" font-family="Arial" font-size="10.00"> increases complexity</text>
<text xml:space="preserve" text-anchor="start" x="681.62" y="-177.5" font-family="Arial" font-weight="bold" font-size="10.00">(−)</text>
<text xml:space="preserve" text-anchor="start" x="693.62" y="-177.5" font-family="Arial" font-size="10.00"> decreases complexity</text>
<!-- unknown.glyph -->
<g id="node1" class="node">
<title>unknown.glyph</title>
<path fill="#b8e6b8" stroke="#2c3e50" stroke-width="1.8" d="M656,-68C656,-68 626,-68 626,-68 620,-68 614,-62 614,-56 614,-56 614,-44 614,-44 614,-38 620,-32 626,-32 626,-32 656,-32 656,-32 662,-32 668,-38 668,-44 668,-44 668,-56 668,-56 668,-62 662,-68 656,-68"/>
<text xml:space="preserve" text-anchor="middle" x="641" y="-46.5" font-family="Arial" font-size="10.00" fill="#1a1a1a">glyph</text>
</g>
<!-- attr_1 -->
<g id="node5" class="node">
<title>attr_1</title>
<path fill="#c7b8e6" stroke="#7f8c8d" stroke-width="1.2" d="M848.5,-101C848.5,-101 723,-101 723,-101 717,-101 711,-95 711,-89 711,-89 711,-77 711,-77 711,-71 717,-65 723,-65 723,-65 848.5,-65 848.5,-65 854.5,-65 860.5,-71 860.5,-77 860.5,-77 860.5,-89 860.5,-89 860.5,-95 854.5,-101 848.5,-101"/>
<text xml:space="preserve" text-anchor="middle" x="785.75" y="-79.5" font-family="Arial" font-size="10.00" fill="#1a1a1a">(+) domain specific convention</text>
</g>
<!-- unknown.glyph&#45;&gt;attr_1 -->
<g id="edge1" class="edge">
<title>unknown.glyph&#45;&gt;attr_1</title>
<path fill="none" stroke="#aaaaaa" d="M668.85,-56.21C678.66,-58.47 690.33,-61.17 702.43,-63.97"/>
<polygon fill="#aaaaaa" stroke="#aaaaaa" points="701.58,-66.29 708.95,-65.48 702.69,-61.51 701.58,-66.29"/>
</g>
<!-- rel_2 -->
<g id="node11" class="node">
<title>rel_2</title>
<path fill="#f5b8b8" stroke="#d46a6a" stroke-width="1.2" d="M827.5,-36C827.5,-36 744,-36 744,-36 738,-36 732,-30 732,-24 732,-24 732,-12 732,-12 732,-6 738,0 744,0 744,0 827.5,0 827.5,0 833.5,0 839.5,-6 839.5,-12 839.5,-12 839.5,-24 839.5,-24 839.5,-30 833.5,-36 827.5,-36"/>
<text xml:space="preserve" text-anchor="middle" x="785.75" y="-14.5" font-family="Arial" font-size="10.00" fill="#8b0000">requires expertise for</text>
</g>
<!-- unknown.glyph&#45;&gt;rel_2 -->
<g id="edge9" class="edge">
<title>unknown.glyph&#45;&gt;rel_2</title>
<path fill="none" stroke="#d46a6a" stroke-width="1.5" d="M668.85,-43.98C683.77,-40.64 703.02,-36.32 721.53,-32.17"/>
<polygon fill="#d46a6a" stroke="#d46a6a" stroke-width="1.5" points="722,-34.94 729.19,-30.45 720.77,-29.47 722,-34.94"/>
</g>
<!-- unknown.wind_map_pattern -->
<g id="node2" class="node">
<title>unknown.wind_map_pattern</title>
<path fill="#b8e6b8" stroke="#2c3e50" stroke-width="1.8" d="M359,-100C359,-100 292,-100 292,-100 286,-100 280,-94 280,-88 280,-88 280,-76 280,-76 280,-70 286,-64 292,-64 292,-64 359,-64 359,-64 365,-64 371,-70 371,-76 371,-76 371,-88 371,-88 371,-94 365,-100 359,-100"/>
<text xml:space="preserve" text-anchor="middle" x="325.5" y="-78.5" font-family="Arial" font-size="10.00" fill="#1a1a1a">wind map pattern</text>
</g>
<!-- attr_0 -->
<g id="node6" class="node">
<title>attr_0</title>
<path fill="#c7b8e6" stroke="#7f8c8d" stroke-width="1.2" d="M544,-133C544,-133 441,-133 441,-133 435,-133 429,-127 429,-121 429,-121 429,-109 429,-109 429,-103 435,-97 441,-97 441,-97 544,-97 544,-97 550,-97 556,-103 556,-109 556,-109 556,-121 556,-121 556,-127 550,-133 544,-133"/>
<text xml:space="preserve" text-anchor="middle" x="492.5" y="-111.5" font-family="Arial" font-size="10.00" fill="#1a1a1a">(−) familiar representation</text>
</g>
<!-- unknown.wind_map_pattern&#45;&gt;attr_0 -->
<g id="edge2" class="edge">
<title>unknown.wind_map_pattern&#45;&gt;attr_0</title>
<path fill="none" stroke="#aaaaaa" d="M371.59,-91.02C386.67,-94.03 403.88,-97.48 420.46,-100.79"/>
<polygon fill="#aaaaaa" stroke="#aaaaaa" points="419.7,-103.14 427.05,-102.11 420.66,-98.33 419.7,-103.14"/>
</g>
<!-- rel_0 -->
<g id="node9" class="node">
<title>rel_0</title>
<path fill="#f5b8b8" stroke="#d46a6a" stroke-width="1.2" d="M559,-68C559,-68 426,-68 426,-68 420,-68 414,-62 414,-56 414,-56 414,-44 414,-44 414,-38 420,-32 426,-32 426,-32 559,-32 559,-32 565,-32 571,-38 571,-44 571,-44 571,-56 571,-56 571,-62 565,-68 559,-68"/>
<text xml:space="preserve" text-anchor="middle" x="492.5" y="-46.5" font-family="Arial" font-size="10.00" fill="#8b0000">reduces perceived complexity of</text>
</g>
<!-- unknown.wind_map_pattern&#45;&gt;rel_0 -->
<g id="edge5" class="edge">
<title>unknown.wind_map_pattern&#45;&gt;rel_0</title>
<path fill="none" stroke="#d46a6a" stroke-width="1.5" d="M371.59,-73.26C381.62,-71.31 392.6,-69.18 403.7,-67.03"/>
<polygon fill="#d46a6a" stroke="#d46a6a" stroke-width="1.5" points="403.92,-69.84 411.24,-65.57 402.85,-64.34 403.92,-69.84"/>
</g>
<!-- unknown.flow_lines -->
<g id="node3" class="node">
<title>unknown.flow_lines</title>
<path fill="#b8e6b8" stroke="#2c3e50" stroke-width="1.8" d="M45.25,-132C45.25,-132 12,-132 12,-132 6,-132 0,-126 0,-120 0,-120 0,-108 0,-108 0,-102 6,-96 12,-96 12,-96 45.25,-96 45.25,-96 51.25,-96 57.25,-102 57.25,-108 57.25,-108 57.25,-120 57.25,-120 57.25,-126 51.25,-132 45.25,-132"/>
<text xml:space="preserve" text-anchor="middle" x="28.62" y="-110.5" font-family="Arial" font-size="10.00" fill="#1a1a1a">flow lines</text>
</g>
<!-- attr_2 -->
<g id="node7" class="node">
<title>attr_2</title>
<path fill="#c7b8e6" stroke="#7f8c8d" stroke-width="1.2" d="M225,-165C225,-165 112.25,-165 112.25,-165 106.25,-165 100.25,-159 100.25,-153 100.25,-153 100.25,-141 100.25,-141 100.25,-135 106.25,-129 112.25,-129 112.25,-129 225,-129 225,-129 231,-129 237,-135 237,-141 237,-141 237,-153 237,-153 237,-159 231,-165 225,-165"/>
<text xml:space="preserve" text-anchor="middle" x="168.62" y="-143.5" font-family="Arial" font-size="10.00" fill="#1a1a1a">(−) recognizable flow marks</text>
</g>
<!-- unknown.flow_lines&#45;&gt;attr_2 -->
<g id="edge3" class="edge">
<title>unknown.flow_lines&#45;&gt;attr_2</title>
<path fill="none" stroke="#aaaaaa" d="M57.88,-120.76C67.91,-123.16 79.72,-125.98 91.82,-128.87"/>
<polygon fill="#aaaaaa" stroke="#aaaaaa" points="90.94,-131.18 98.32,-130.43 92.08,-126.42 90.94,-131.18"/>
</g>
<!-- rel_1 -->
<g id="node10" class="node">
<title>rel_1</title>
<path fill="#f5b8b8" stroke="#d46a6a" stroke-width="1.2" d="M187.12,-100C187.12,-100 150.12,-100 150.12,-100 144.12,-100 138.12,-94 138.12,-88 138.12,-88 138.12,-76 138.12,-76 138.12,-70 144.12,-64 150.12,-64 150.12,-64 187.12,-64 187.12,-64 193.12,-64 199.12,-70 199.12,-76 199.12,-76 199.12,-88 199.12,-88 199.12,-94 193.12,-100 187.12,-100"/>
<text xml:space="preserve" text-anchor="middle" x="168.62" y="-78.5" font-family="Arial" font-size="10.00" fill="#8b0000">resembles</text>
</g>
<!-- unknown.flow_lines&#45;&gt;rel_1 -->
<g id="edge7" class="edge">
<title>unknown.flow_lines&#45;&gt;rel_1</title>
<path fill="none" stroke="#d46a6a" stroke-width="1.5" d="M57.88,-107.45C78.13,-102.75 105.65,-96.37 128.08,-91.17"/>
<polygon fill="#d46a6a" stroke="#d46a6a" stroke-width="1.5" points="128.6,-93.92 135.76,-89.39 127.34,-88.47 128.6,-93.92"/>
</g>
<!-- unknown.overall_layout -->
<g id="node4" class="node">
<title>unknown.overall_layout</title>
<path fill="#b8e6b8" stroke="#2c3e50" stroke-width="1.8" d="M965.25,-36C965.25,-36 915.5,-36 915.5,-36 909.5,-36 903.5,-30 903.5,-24 903.5,-24 903.5,-12 903.5,-12 903.5,-6 909.5,0 915.5,0 915.5,0 965.25,0 965.25,0 971.25,0 977.25,-6 977.25,-12 977.25,-12 977.25,-24 977.25,-24 977.25,-30 971.25,-36 965.25,-36"/>
<text xml:space="preserve" text-anchor="middle" x="940.38" y="-14.5" font-family="Arial" font-size="10.00" fill="#1a1a1a">overall layout</text>
</g>
<!-- attr_3 -->
<g id="node8" class="node">
<title>attr_3</title>
<path fill="#c7b8e6" stroke="#7f8c8d" stroke-width="1.2" d="M1145,-36C1145,-36 1032.25,-36 1032.25,-36 1026.25,-36 1020.25,-30 1020.25,-24 1020.25,-24 1020.25,-12 1020.25,-12 1020.25,-6 1026.25,0 1032.25,0 1032.25,0 1145,0 1145,0 1151,0 1157,-6 1157,-12 1157,-12 1157,-24 1157,-24 1157,-30 1151,-36 1145,-36"/>
<text xml:space="preserve" text-anchor="middle" x="1088.62" y="-14.5" font-family="Arial" font-size="10.00" fill="#1a1a1a">(+) prior knowledge required</text>
</g>
<!-- unknown.overall_layout&#45;&gt;attr_3 -->
<g id="edge4" class="edge">
<title>unknown.overall_layout&#45;&gt;attr_3</title>
<path fill="none" stroke="#aaaaaa" d="M977.9,-18C988.11,-18 999.61,-18 1011.22,-18"/>
<polygon fill="#aaaaaa" stroke="#aaaaaa" points="1011.16,-20.45 1018.16,-18 1011.16,-15.55 1011.16,-20.45"/>
</g>
<!-- rel_0&#45;&gt;unknown.glyph -->
<g id="edge6" class="edge">
<title>rel_0&#45;&gt;unknown.glyph</title>
<path fill="none" stroke="#d46a6a" stroke-width="1.5" d="M571.47,-50C582.51,-50 593.4,-50 603.15,-50"/>
<polygon fill="#d46a6a" stroke="#d46a6a" stroke-width="1.5" points="602.95,-52.8 610.95,-50 602.95,-47.2 602.95,-52.8"/>
</g>
<!-- rel_1&#45;&gt;unknown.wind_map_pattern -->
<g id="edge8" class="edge">
<title>rel_1&#45;&gt;unknown.wind_map_pattern</title>
<path fill="none" stroke="#d46a6a" stroke-width="1.5" d="M199.49,-82C219.16,-82 245.54,-82 268.98,-82"/>
<polygon fill="#d46a6a" stroke="#d46a6a" stroke-width="1.5" points="268.9,-84.8 276.9,-82 268.9,-79.2 268.9,-84.8"/>
</g>
<!-- rel_2&#45;&gt;unknown.overall_layout -->
<g id="edge10" class="edge">
<title>rel_2&#45;&gt;unknown.overall_layout</title>
<path fill="none" stroke="#d46a6a" stroke-width="1.5" d="M839.7,-18C856.96,-18 875.97,-18 892.73,-18"/>
<polygon fill="#d46a6a" stroke="#d46a6a" stroke-width="1.5" points="892.57,-20.8 900.57,-18 892.57,-15.2 892.57,-20.8"/>
</g>
</g>
</svg>
