<?xml version="1.0" encoding="UTF-8" standalone="no"?>
<!DOCTYPE svg PUBLIC "-//W3C//DTD SVG 1.1//EN"
 "http://www.w3.org/Graphics/SVG/1.1/DTD/svg11.dtd">
<!-- Generated by graphviz version 14.1.5 (20260411.2331)
 -->
<!-- Title: SciVisJ.796.5(1).png Pages: 1 -->
<svg width="854pt" height="437pt"
 viewBox="0.00 0.00 854.00 437.00" xmlns="http://www.w3.org/2000/svg" xmlns:xlink="http://www.w3.org/1999/xlink">
<g id="graph0" class="graph" transform="scale(1 1) rotate(0) translate(4 433.25)">
<title>SciVisJ.796.5(1).png</title>
<polygon fill="white" stroke="none" points="-4,4 -4,-433.25 850.25,-433.25 850.25,4 -4,4"/>
<text xml:space="preserve" text-anchor="start" x="357.88" y="-408.95" font-family="Arial" font-weight="bold" font-size="14.00">SciVisJ.796.5(1).png</text>
<text xml:space="preserve" text-anchor="start" x="351.5" y="-389" font-family="Arial" font-size="11.00">Cont.&#45;ColorPatn &#160;| &#160;VC = 0.47</text>
<path fill="#b8e6b8" stroke="none" d="M213.75,-364C213.75,-364 221.75,-364 221.75,-364 224.75,-364 227.75,-367 227.75,-370 227.75,-370 227.75,-376 227.75,-376 227.75,-379 224.75,-382 221.75,-382 221.75,-382 213.75,-382 213.75,-382 210.75,-382 207.75,-379 207.75,-376 207.75,-376 207.75,-370 207.75,-370 207.75,-367 210.75,-364 213.75,-364"/>
<path fill="none" stroke="black" d="M213.75,-364C213.75,-364 221.75,-364 221.75,-364 224.75,-364 227.75,-367 227.75,-370 227.75,-370 227.75,-376 227.75,-376 227.75,-379 224.75,-382 221.75,-382 221.75,-382 213.75,-382 213.75,-382 210.75,-382 207.75,-379 207.75,-376 207.75,-376 207.75,-370 207.75,-370 207.75,-367 210.75,-364 213.75,-364"/>
<text xml:space="preserve" text-anchor="start" x="216.25" y="-369.25" font-family="Arial" font-size="10.00"> </text>
<text xml:space="preserve" text-anchor="start" x="231.75" y="-369.25" font-family="Arial" font-size="10.00">Object</text>
<path fill="#c7b8e6" stroke="none" d="M270.25,-364C270.25,-364 278.25,-364 278.25,-364 281.25,-364 284.25,-367 284.25,-370 284.25,-370 284.25,-376 284.25,-376 284.25,-379 281.25,-382 278.25,-382 278.25,-382 270.25,-382 270.25,-382 267.25,-382 264.25,-379 264.25,-376 264.25,-376 264.25,-370 264.25,-370 264.25,-367 267.25,-364 270.25,-364"/>
<path fill="none" stroke="black" d="M270.25,-364C270.25,-364 278.25,-364 278.25,-364 281.25,-364 284.25,-367 284.25,-370 284.25,-370 284.25,-376 284.25,-376 284.25,-379 281.25,-382 278.25,-382 278.25,-382 270.25,-382 270.25,-382 267.25,-382 264.25,-379 264.25,-376 264.25,-376 264.25,-370 264.25,-370 264.25,-367 267.25,-364 270.25,-364"/>
<text xml:space="preserve" text-anchor="start" x="272.75" y="-369.25" font-family="Arial" font-size="10.00"> </text>
<text xml:space="preserve" text-anchor="start" x="288.25" y="-369.25" font-family="Arial" font-size="10.00">Attribute</text>
<path fill="#f5b8b8" stroke="none" d="M335,-364C335,-364 343,-364 343,-364 346,-364 349,-367 349,-370 349,-370 349,-376 349,-376 349,-379 346,-382 343,-382 343,-382 335,-382 335,-382 332,-382 329,-379 329,-376 329,-376 329,-370 329,-370 329,-367 332,-364 335,-364"/>
<path fill="none" stroke="black" d="M335,-364C335,-364 343,-364 343,-364 346,-364 349,-367 349,-370 349,-370 349,-376 349,-376 349,-379 346,-382 343,-382 343,-382 335,-382 335,-382 332,-382 329,-379 329,-376 329,-376 329,-370 329,-370 329,-367 332,-364 335,-364"/>
<text xml:space="preserve" text-anchor="start" x="337.5" y="-369.25" font-family="Arial" font-size="10.00"> </text>
<text xml:space="preserve" text-anchor="start" x="353" y="-369.25" font-family="Arial" font-size="10.00">Relationship</text>
<text xml:space="preserve" text-anchor="start" x="413" y="-370.5" font-family="Arial" font-weight="bold" font-size="10.00">(+)</text>
<text xml:space="preserve" text-anchor="start" x="425" y="-370.5" font-family="Arial" font-size="10.00"> increases complexity</text>
<text xml:space="preserve" text-anchor="start" x="526.25" y="-370.5" font-family="Arial" font-weight="bold" font-size="10.00">(−)</text>
<text xml:space="preserve" text-anchor="start" x="538.25" y="-370.5" font-family="Arial" font-size="10.00"> decreases complexity</text>
<!-- unknown.color_pattern -->
<g id="node1" class="node">
<title>unknown.color_pattern</title>
<path fill="#b8e6b8" stroke="#2c3e50" stroke-width="1.8" d="M82.38,-130C82.38,-130 36.38,-130 36.38,-130 30.38,-130 24.38,-124 24.38,-118 24.38,-118 24.38,-106 24.38,-106 24.38,-100 30.38,-94 36.38,-94 36.38,-94 82.38,-94 82.38,-94 88.38,-94 94.38,-100 94.38,-106 94.38,-106 94.38,-118 94.38,-118 94.38,-124 88.38,-130 82.38,-130"/>
<text xml:space="preserve" text-anchor="middle" x="59.38" y="-108.5" font-family="Arial" font-size="10.00" fill="#1a1a1a">color pattern</text>
</g>
<!-- attr_0 -->
<g id="node6" class="node">
<title>attr_0</title>
<path fill="#c7b8e6" stroke="#7f8c8d" stroke-width="1.2" d="M279.75,-228C279.75,-228 176,-228 176,-228 170,-228 164,-222 164,-216 164,-216 164,-204 164,-204 164,-198 170,-192 176,-192 176,-192 279.75,-192 279.75,-192 285.75,-192 291.75,-198 291.75,-204 291.75,-204 291.75,-216 291.75,-216 291.75,-222 285.75,-228 279.75,-228"/>
<text xml:space="preserve" text-anchor="middle" x="227.88" y="-206.5" font-family="Arial" font-size="10.00" fill="#1a1a1a">(+) unfamiliar pattern type</text>
</g>
<!-- unknown.color_pattern&#45;&gt;attr_0 -->
<g id="edge1" class="edge">
<title>unknown.color_pattern&#45;&gt;attr_0</title>
<path fill="none" stroke="#aaaaaa" d="M87.88,-130.7C108.01,-144.13 136.16,-162.36 161.75,-177 168.05,-180.6 174.79,-184.25 181.47,-187.73"/>
<polygon fill="#aaaaaa" stroke="#aaaaaa" points="179.96,-189.71 187.31,-190.75 182.21,-185.36 179.96,-189.71"/>
</g>
<!-- attr_1 -->
<g id="node7" class="node">
<title>attr_1</title>
<path fill="#c7b8e6" stroke="#7f8c8d" stroke-width="1.2" d="M282,-163C282,-163 173.75,-163 173.75,-163 167.75,-163 161.75,-157 161.75,-151 161.75,-151 161.75,-139 161.75,-139 161.75,-133 167.75,-127 173.75,-127 173.75,-127 282,-127 282,-127 288,-127 294,-133 294,-139 294,-139 294,-151 294,-151 294,-157 288,-163 282,-163"/>
<text xml:space="preserve" text-anchor="middle" x="227.88" y="-141.5" font-family="Arial" font-size="10.00" fill="#1a1a1a">(+) unclear visual structure</text>
</g>
<!-- unknown.color_pattern&#45;&gt;attr_1 -->
<g id="edge2" class="edge">
<title>unknown.color_pattern&#45;&gt;attr_1</title>
<path fill="none" stroke="#aaaaaa" d="M94.87,-118.84C111.78,-122.19 132.84,-126.36 153.13,-130.38"/>
<polygon fill="#aaaaaa" stroke="#aaaaaa" points="152.63,-132.78 159.98,-131.74 153.59,-127.98 152.63,-132.78"/>
</g>
<!-- rel_2 -->
<g id="node14" class="node">
<title>rel_2</title>
<path fill="#f5b8b8" stroke="#d46a6a" stroke-width="1.2" d="M269.62,-98C269.62,-98 186.12,-98 186.12,-98 180.12,-98 174.12,-92 174.12,-86 174.12,-86 174.12,-74 174.12,-74 174.12,-68 180.12,-62 186.12,-62 186.12,-62 269.62,-62 269.62,-62 275.62,-62 281.62,-68 281.62,-74 281.62,-74 281.62,-86 281.62,-86 281.62,-92 275.62,-98 269.62,-98"/>
<text xml:space="preserve" text-anchor="middle" x="227.88" y="-76.5" font-family="Arial" font-size="10.00" fill="#8b0000">requires expertise for</text>
</g>
<!-- unknown.color_pattern&#45;&gt;rel_2 -->
<g id="edge11" class="edge">
<title>unknown.color_pattern&#45;&gt;rel_2</title>
<path fill="none" stroke="#d46a6a" stroke-width="1.5" d="M94.87,-105.37C114.79,-101.54 140.46,-96.61 163.86,-92.11"/>
<polygon fill="#d46a6a" stroke="#d46a6a" stroke-width="1.5" points="164.17,-94.9 171.5,-90.64 163.11,-89.4 164.17,-94.9"/>
</g>
<!-- text.axis_label -->
<g id="node2" class="node">
<title>text.axis_label</title>
<path fill="#b8e6b8" stroke="#2c3e50" stroke-width="1.8" d="M393.12,-293C393.12,-293 359.88,-293 359.88,-293 353.88,-293 347.88,-287 347.88,-281 347.88,-281 347.88,-269 347.88,-269 347.88,-263 353.88,-257 359.88,-257 359.88,-257 393.12,-257 393.12,-257 399.12,-257 405.12,-263 405.12,-269 405.12,-269 405.12,-281 405.12,-281 405.12,-287 399.12,-293 393.12,-293"/>
<text xml:space="preserve" text-anchor="middle" x="376.5" y="-271.5" font-family="Arial" font-size="10.00" fill="#1a1a1a">axis label</text>
</g>
<!-- attr_2 -->
<g id="node8" class="node">
<title>attr_2</title>
<path fill="#c7b8e6" stroke="#7f8c8d" stroke-width="1.2" d="M566.88,-293C566.88,-293 472.12,-293 472.12,-293 466.12,-293 460.12,-287 460.12,-281 460.12,-281 460.12,-269 460.12,-269 460.12,-263 466.12,-257 472.12,-257 472.12,-257 566.88,-257 566.88,-257 572.88,-257 578.88,-263 578.88,-269 578.88,-269 578.88,-281 578.88,-281 578.88,-287 572.88,-293 566.88,-293"/>
<text xml:space="preserve" text-anchor="middle" x="519.5" y="-271.5" font-family="Arial" font-size="10.00" fill="#1a1a1a">(+) absent metric labels</text>
</g>
<!-- text.axis_label&#45;&gt;attr_2 -->
<g id="edge3" class="edge">
<title>text.axis_label&#45;&gt;attr_2</title>
<path fill="none" stroke="#aaaaaa" d="M405.69,-275C418.9,-275 435.25,-275 451.37,-275"/>
<polygon fill="#aaaaaa" stroke="#aaaaaa" points="451.25,-277.45 458.25,-275 451.25,-272.55 451.25,-277.45"/>
</g>
<!-- furniture.legend -->
<g id="node3" class="node">
<title>furniture.legend</title>
<path fill="#b8e6b8" stroke="#2c3e50" stroke-width="1.8" d="M665,-98C665,-98 635,-98 635,-98 629,-98 623,-92 623,-86 623,-86 623,-74 623,-74 623,-68 629,-62 635,-62 635,-62 665,-62 665,-62 671,-62 677,-68 677,-74 677,-74 677,-86 677,-86 677,-92 671,-98 665,-98"/>
<text xml:space="preserve" text-anchor="middle" x="650" y="-76.5" font-family="Arial" font-size="10.00" fill="#1a1a1a">legend</text>
</g>
<!-- attr_3 -->
<g id="node9" class="node">
<title>attr_3</title>
<path fill="#c7b8e6" stroke="#7f8c8d" stroke-width="1.2" d="M834.25,-101C834.25,-101 732,-101 732,-101 726,-101 720,-95 720,-89 720,-89 720,-77 720,-77 720,-71 726,-65 732,-65 732,-65 834.25,-65 834.25,-65 840.25,-65 846.25,-71 846.25,-77 846.25,-77 846.25,-89 846.25,-89 846.25,-95 840.25,-101 834.25,-101"/>
<text xml:space="preserve" text-anchor="middle" x="783.12" y="-79.5" font-family="Arial" font-size="10.00" fill="#1a1a1a">(+) unclear color meaning</text>
</g>
<!-- furniture.legend&#45;&gt;attr_3 -->
<g id="edge4" class="edge">
<title>furniture.legend&#45;&gt;attr_3</title>
<path fill="none" stroke="#aaaaaa" d="M677.85,-80.61C687.71,-80.84 699.4,-81.11 711.31,-81.38"/>
<polygon fill="#aaaaaa" stroke="#aaaaaa" points="711.01,-83.82 718.07,-81.53 711.12,-78.92 711.01,-83.82"/>
</g>
<!-- rel_3 -->
<g id="node15" class="node">
<title>rel_3</title>
<path fill="#f5b8b8" stroke="#d46a6a" stroke-width="1.2" d="M808.38,-36C808.38,-36 757.88,-36 757.88,-36 751.88,-36 745.88,-30 745.88,-24 745.88,-24 745.88,-12 745.88,-12 745.88,-6 751.88,0 757.88,0 757.88,0 808.38,0 808.38,0 814.38,0 820.38,-6 820.38,-12 820.38,-12 820.38,-24 820.38,-24 820.38,-30 814.38,-36 808.38,-36"/>
<text xml:space="preserve" text-anchor="middle" x="783.12" y="-14.5" font-family="Arial" font-size="10.00" fill="#8b0000">fails to clarify</text>
</g>
<!-- furniture.legend&#45;&gt;rel_3 -->
<g id="edge13" class="edge">
<title>furniture.legend&#45;&gt;rel_3</title>
<path fill="none" stroke="#d46a6a" stroke-width="1.5" d="M677.85,-67.3C694.67,-59.35 716.78,-48.9 736.31,-39.66"/>
<polygon fill="#d46a6a" stroke="#d46a6a" stroke-width="1.5" points="737.28,-42.3 743.32,-36.35 734.89,-37.24 737.28,-42.3"/>
</g>
<!-- unknown.color_encoding -->
<g id="node4" class="node">
<title>unknown.color_encoding</title>
<path fill="#b8e6b8" stroke="#2c3e50" stroke-width="1.8" d="M404,-98C404,-98 349,-98 349,-98 343,-98 337,-92 337,-86 337,-86 337,-74 337,-74 337,-68 343,-62 349,-62 349,-62 404,-62 404,-62 410,-62 416,-68 416,-74 416,-74 416,-86 416,-86 416,-92 410,-98 404,-98"/>
<text xml:space="preserve" text-anchor="middle" x="376.5" y="-76.5" font-family="Arial" font-size="10.00" fill="#1a1a1a">color encoding</text>
</g>
<!-- attr_4 -->
<g id="node10" class="node">
<title>attr_4</title>
<path fill="#c7b8e6" stroke="#7f8c8d" stroke-width="1.2" d="M568,-163C568,-163 471,-163 471,-163 465,-163 459,-157 459,-151 459,-151 459,-139 459,-139 459,-133 465,-127 471,-127 471,-127 568,-127 568,-127 574,-127 580,-133 580,-139 580,-139 580,-151 580,-151 580,-157 574,-163 568,-163"/>
<text xml:space="preserve" text-anchor="middle" x="519.5" y="-141.5" font-family="Arial" font-size="10.00" fill="#1a1a1a">(+) ambiguous color role</text>
</g>
<!-- unknown.color_encoding&#45;&gt;attr_4 -->
<g id="edge5" class="edge">
<title>unknown.color_encoding&#45;&gt;attr_4</title>
<path fill="none" stroke="#aaaaaa" d="M416.78,-98.11C433.6,-105.86 453.4,-114.99 471.04,-123.12"/>
<polygon fill="#aaaaaa" stroke="#aaaaaa" points="469.7,-125.2 477.08,-125.91 471.75,-120.75 469.7,-125.2"/>
</g>
<!-- rel_1 -->
<g id="node13" class="node">
<title>rel_1</title>
<path fill="#f5b8b8" stroke="#d46a6a" stroke-width="1.2" d="M535.38,-98C535.38,-98 503.62,-98 503.62,-98 497.62,-98 491.62,-92 491.62,-86 491.62,-86 491.62,-74 491.62,-74 491.62,-68 497.62,-62 503.62,-62 503.62,-62 535.38,-62 535.38,-62 541.38,-62 547.38,-68 547.38,-74 547.38,-74 547.38,-86 547.38,-86 547.38,-92 541.38,-98 535.38,-98"/>
<text xml:space="preserve" text-anchor="middle" x="519.5" y="-76.5" font-family="Arial" font-size="10.00" fill="#8b0000">obscures</text>
</g>
<!-- unknown.color_encoding&#45;&gt;rel_1 -->
<g id="edge9" class="edge">
<title>unknown.color_encoding&#45;&gt;rel_1</title>
<path fill="none" stroke="#d46a6a" stroke-width="1.5" d="M416.78,-80C436.81,-80 461.05,-80 480.85,-80"/>
<polygon fill="#d46a6a" stroke="#d46a6a" stroke-width="1.5" points="480.77,-82.8 488.77,-80 480.77,-77.2 480.77,-82.8"/>
</g>
<!-- unknown.measurement_reference -->
<g id="node5" class="node">
<title>unknown.measurement_reference</title>
<path fill="#b8e6b8" stroke="#2c3e50" stroke-width="1.8" d="M106.75,-325C106.75,-325 12,-325 12,-325 6,-325 0,-319 0,-313 0,-313 0,-301 0,-301 0,-295 6,-289 12,-289 12,-289 106.75,-289 106.75,-289 112.75,-289 118.75,-295 118.75,-301 118.75,-301 118.75,-313 118.75,-313 118.75,-319 112.75,-325 106.75,-325"/>
<text xml:space="preserve" text-anchor="middle" x="59.38" y="-303.5" font-family="Arial" font-size="10.00" fill="#1a1a1a">measurement reference</text>
</g>
<!-- attr_5 -->
<g id="node11" class="node">
<title>attr_5</title>
<path fill="#c7b8e6" stroke="#7f8c8d" stroke-width="1.2" d="M280.88,-358C280.88,-358 174.88,-358 174.88,-358 168.88,-358 162.88,-352 162.88,-346 162.88,-346 162.88,-334 162.88,-334 162.88,-328 168.88,-322 174.88,-322 174.88,-322 280.88,-322 280.88,-322 286.88,-322 292.88,-328 292.88,-334 292.88,-334 292.88,-346 292.88,-346 292.88,-352 286.88,-358 280.88,-358"/>
<text xml:space="preserve" text-anchor="middle" x="227.88" y="-336.5" font-family="Arial" font-size="10.00" fill="#1a1a1a">(+) no measurement scale</text>
</g>
<!-- unknown.measurement_reference&#45;&gt;attr_5 -->
<g id="edge6" class="edge">
<title>unknown.measurement_reference&#45;&gt;attr_5</title>
<path fill="none" stroke="#aaaaaa" d="M119.55,-318.73C130.86,-320.97 142.83,-323.34 154.5,-325.66"/>
<polygon fill="#aaaaaa" stroke="#aaaaaa" points="153.7,-327.99 161.04,-326.95 154.65,-323.19 153.7,-327.99"/>
</g>
<!-- rel_0 -->
<g id="node12" class="node">
<title>rel_0</title>
<path fill="#f5b8b8" stroke="#d46a6a" stroke-width="1.2" d="M249.75,-293C249.75,-293 206,-293 206,-293 200,-293 194,-287 194,-281 194,-281 194,-269 194,-269 194,-263 200,-257 206,-257 206,-257 249.75,-257 249.75,-257 255.75,-257 261.75,-263 261.75,-269 261.75,-269 261.75,-281 261.75,-281 261.75,-287 255.75,-293 249.75,-293"/>
<text xml:space="preserve" text-anchor="middle" x="227.88" y="-271.5" font-family="Arial" font-size="10.00" fill="#8b0000">absent from</text>
</g>
<!-- unknown.measurement_reference&#45;&gt;rel_0 -->
<g id="edge7" class="edge">
<title>unknown.measurement_reference&#45;&gt;rel_0</title>
<path fill="none" stroke="#d46a6a" stroke-width="1.5" d="M119.55,-295.63C140.72,-291.56 164.16,-287.05 183.73,-283.29"/>
<polygon fill="#d46a6a" stroke="#d46a6a" stroke-width="1.5" points="184.01,-286.09 191.34,-281.83 182.96,-280.59 184.01,-286.09"/>
</g>
<!-- rel_0&#45;&gt;text.axis_label -->
<g id="edge8" class="edge">
<title>rel_0&#45;&gt;text.axis_label</title>
<path fill="none" stroke="#d46a6a" stroke-width="1.5" d="M262.15,-275C284.42,-275 313.81,-275 337.08,-275"/>
<polygon fill="#d46a6a" stroke="#d46a6a" stroke-width="1.5" points="337.02,-277.8 345.02,-275 337.02,-272.2 337.02,-277.8"/>
</g>
<!-- rel_1&#45;&gt;furniture.legend -->
<g id="edge10" class="edge">
<title>rel_1&#45;&gt;furniture.legend</title>
<path fill="none" stroke="#d46a6a" stroke-width="1.5" d="M547.75,-80C566.45,-80 591.48,-80 611.98,-80"/>
<polygon fill="#d46a6a" stroke="#d46a6a" stroke-width="1.5" points="611.96,-82.8 619.96,-80 611.96,-77.2 611.96,-82.8"/>
</g>
<!-- rel_2&#45;&gt;unknown.color_encoding -->
<g id="edge12" class="edge">
<title>rel_2&#45;&gt;unknown.color_encoding</title>
<path fill="none" stroke="#d46a6a" stroke-width="1.5" d="M282.22,-80C296.59,-80 312.06,-80 326.19,-80"/>
<polygon fill="#d46a6a" stroke="#d46a6a" stroke-width="1.5" points="325.94,-82.8 333.94,-80 325.94,-77.2 325.94,-82.8"/>
</g>
<!-- rel_3&#45;&gt;unknown.color_pattern -->
<g id="edge14" class="edge">
<title>rel_3&#45;&gt;unknown.color_pattern</title>
<path fill="none" stroke="#d46a6a" stroke-width="1.5" d="M745.3,-18C694.65,-18 600.67,-18 520.5,-18 375.5,-18 375.5,-18 375.5,-18 279.63,-18 251.73,-13.9 161.75,-47 136.11,-56.43 110.24,-73.17 91.04,-87.3"/>
<polygon fill="#d46a6a" stroke="#d46a6a" stroke-width="1.5" points="89.5,-84.95 84.8,-92 92.87,-89.42 89.5,-84.95"/>
</g>
</g>
</svg>
