<?xml version="1.0" encoding="UTF-8" standalone="no"?>
<!DOCTYPE svg PUBLIC "-//W3C//DTD SVG 1.1//EN"
 "http://www.w3.org/Graphics/SVG/1.1/DTD/svg11.dtd">
<!-- Generated by graphviz version 14.1.5 (20260411.2331)
 -->
<!-- Title: SciVisJ.1043.14.png Pages: 1 -->
<svg width="796pt" height="310pt"
 viewBox="0.00 0.00 796.00 310.00" xmlns="http://www.w3.org/2000/svg" xmlns:xlink="http://www.w3.org/1999/xlink">
<g id="graph0" class="graph" transform="scale(1 1) rotate(0) translate(4 306.25)">
<title>SciVisJ.1043.14.png</title>
<polygon fill="white" stroke="none" points="-4,4 -4,-306.25 791.75,-306.25 791.75,4 -4,4"/>
<text xml:space="preserve" text-anchor="start" x="329.38" y="-281.95" font-family="Arial" font-weight="bold" font-size="14.00">SciVisJ.1043.14.png</text>
<text xml:space="preserve" text-anchor="start" x="322.25" y="-262" font-family="Arial" font-size="11.00">Cont.&#45;ColorPatn &#160;| &#160;VC = 0.71</text>
<path fill="#b8e6b8" stroke="none" d="M184.5,-237C184.5,-237 192.5,-237 192.5,-237 195.5,-237 198.5,-240 198.5,-243 198.5,-243 198.5,-249 198.5,-249 198.5,-252 195.5,-255 192.5,-255 192.5,-255 184.5,-255 184.5,-255 181.5,-255 178.5,-252 178.5,-249 178.5,-249 178.5,-243 178.5,-243 178.5,-240 181.5,-237 184.5,-237"/>
<path fill="none" stroke="black" d="M184.5,-237C184.5,-237 192.5,-237 192.5,-237 195.5,-237 198.5,-240 198.5,-243 198.5,-243 198.5,-249 198.5,-249 198.5,-252 195.5,-255 192.5,-255 192.5,-255 184.5,-255 184.5,-255 181.5,-255 178.5,-252 178.5,-249 178.5,-249 178.5,-243 178.5,-243 178.5,-240 181.5,-237 184.5,-237"/>
<text xml:space="preserve" text-anchor="start" x="187" y="-242.25" font-family="Arial" font-size="10.00"> </text>
<text xml:space="preserve" text-anchor="start" x="202.5" y="-242.25" font-family="Arial" font-size="10.00">Object</text>
<path fill="#c7b8e6" stroke="none" d="M241,-237C241,-237 249,-237 249,-237 252,-237 255,-240 255,-243 255,-243 255,-249 255,-249 255,-252 252,-255 249,-255 249,-255 241,-255 241,-255 238,-255 235,-252 235,-249 235,-249 235,-243 235,-243 235,-240 238,-237 241,-237"/>
<path fill="none" stroke="black" d="M241,-237C241,-237 249,-237 249,-237 252,-237 255,-240 255,-243 255,-243 255,-249 255,-249 255,-252 252,-255 249,-255 249,-255 241,-255 241,-255 238,-255 235,-252 235,-249 235,-249 235,-243 235,-243 235,-240 238,-237 241,-237"/>
<text xml:space="preserve" text-anchor="start" x="243.5" y="-242.25" font-family="Arial" font-size="10.00"> </text>
<text xml:space="preserve" text-anchor="start" x="259" y="-242.25" font-family="Arial" font-size="10.00">Attribute</text>
<path fill="#f5b8b8" stroke="none" d="M305.75,-237C305.75,-237 313.75,-237 313.75,-237 316.75,-237 319.75,-240 319.75,-243 319.75,-243 319.75,-249 319.75,-249 319.75,-252 316.75,-255 313.75,-255 313.75,-255 305.75,-255 305.75,-255 302.75,-255 299.75,-252 299.75,-249 299.75,-249 299.75,-243 299.75,-243 299.75,-240 302.75,-237 305.75,-237"/>
<path fill="none" stroke="black" d="M305.75,-237C305.75,-237 313.75,-237 313.75,-237 316.75,-237 319.75,-240 319.75,-243 319.75,-243 319.75,-249 319.75,-249 319.75,-252 316.75,-255 313.75,-255 313.75,-255 305.75,-255 305.75,-255 302.75,-255 299.75,-252 299.75,-249 299.75,-249 299.75,-243 299.75,-243 299.75,-240 302.75,-237 305.75,-237"/>
<text xml:space="preserve" text-anchor="start" x="308.25" y="-242.25" font-family="Arial" font-size="10.00"> </text>
<text xml:space="preserve" text-anchor="start" x="323.75" y="-242.25" font-family="Arial" font-size="10.00">Relationship</text>
<text xml:space="preserve" text-anchor="start" x="383.75" y="-243.5" font-family="Arial" font-weight="bold" font-size="10.00">(+)</text>
<text xml:space="preserve" text-anchor="start" x="395.75" y="-243.5" font-family="Arial" font-size="10.00"> increases complexity</text>
<text xml:space="preserve" text-anchor="start" x="497" y="-243.5" font-family="Arial" font-weight="bold" font-size="10.00">(−)</text>
<text xml:space="preserve" text-anchor="start" x="509" y="-243.5" font-family="Arial" font-size="10.00"> decreases complexity</text>
<!-- unknown.color_palette -->
<g id="node1" class="node">
<title>unknown.color_palette</title>
<path fill="#b8e6b8" stroke="#2c3e50" stroke-width="1.8" d="M328.75,-133C328.75,-133 283.5,-133 283.5,-133 277.5,-133 271.5,-127 271.5,-121 271.5,-121 271.5,-109 271.5,-109 271.5,-103 277.5,-97 283.5,-97 283.5,-97 328.75,-97 328.75,-97 334.75,-97 340.75,-103 340.75,-109 340.75,-109 340.75,-121 340.75,-121 340.75,-127 334.75,-133 328.75,-133"/>
<text xml:space="preserve" text-anchor="middle" x="306.12" y="-111.5" font-family="Arial" font-size="10.00" fill="#1a1a1a">color palette</text>
</g>
<!-- attr_0 -->
<g id="node5" class="node">
<title>attr_0</title>
<path fill="#c7b8e6" stroke="#7f8c8d" stroke-width="1.2" d="M486,-231C486,-231 404.75,-231 404.75,-231 398.75,-231 392.75,-225 392.75,-219 392.75,-219 392.75,-207 392.75,-207 392.75,-201 398.75,-195 404.75,-195 404.75,-195 486,-195 486,-195 492,-195 498,-201 498,-207 498,-207 498,-219 498,-219 498,-225 492,-231 486,-231"/>
<text xml:space="preserve" text-anchor="middle" x="445.38" y="-209.5" font-family="Arial" font-size="10.00" fill="#1a1a1a">(+) high color variety</text>
</g>
<!-- unknown.color_palette&#45;&gt;attr_0 -->
<g id="edge1" class="edge">
<title>unknown.color_palette&#45;&gt;attr_0</title>
<path fill="none" stroke="#aaaaaa" d="M326.3,-133.67C341.23,-147.66 362.86,-166.76 383.75,-181 388.55,-184.27 393.72,-187.46 398.95,-190.48"/>
<polygon fill="#aaaaaa" stroke="#aaaaaa" points="397.47,-192.45 404.77,-193.74 399.86,-188.18 397.47,-192.45"/>
</g>
<!-- attr_1 -->
<g id="node6" class="node">
<title>attr_1</title>
<path fill="#c7b8e6" stroke="#7f8c8d" stroke-width="1.2" d="M495,-166C495,-166 395.75,-166 395.75,-166 389.75,-166 383.75,-160 383.75,-154 383.75,-154 383.75,-142 383.75,-142 383.75,-136 389.75,-130 395.75,-130 395.75,-130 495,-130 495,-130 501,-130 507,-136 507,-142 507,-142 507,-154 507,-154 507,-160 501,-166 495,-166"/>
<text xml:space="preserve" text-anchor="middle" x="445.38" y="-144.5" font-family="Arial" font-size="10.00" fill="#1a1a1a">(+) multiple distinct hues</text>
</g>
<!-- unknown.color_palette&#45;&gt;attr_1 -->
<g id="edge2" class="edge">
<title>unknown.color_palette&#45;&gt;attr_1</title>
<path fill="none" stroke="#aaaaaa" d="M341.4,-123.24C351.73,-125.72 363.45,-128.54 375.19,-131.36"/>
<polygon fill="#aaaaaa" stroke="#aaaaaa" points="374.45,-133.71 381.83,-132.96 375.6,-128.94 374.45,-133.71"/>
</g>
<!-- rel_0 -->
<g id="node10" class="node">
<title>rel_0</title>
<path fill="#f5b8b8" stroke="#d46a6a" stroke-width="1.2" d="M493.12,-101C493.12,-101 397.62,-101 397.62,-101 391.62,-101 385.62,-95 385.62,-89 385.62,-89 385.62,-77 385.62,-77 385.62,-71 391.62,-65 397.62,-65 397.62,-65 493.12,-65 493.12,-65 499.12,-65 505.12,-71 505.12,-77 505.12,-77 505.12,-89 505.12,-89 505.12,-95 499.12,-101 493.12,-101"/>
<text xml:space="preserve" text-anchor="middle" x="445.38" y="-79.5" font-family="Arial" font-size="10.00" fill="#8b0000">increases complexity of</text>
</g>
<!-- unknown.color_palette&#45;&gt;rel_0 -->
<g id="edge6" class="edge">
<title>unknown.color_palette&#45;&gt;rel_0</title>
<path fill="none" stroke="#d46a6a" stroke-width="1.5" d="M341.4,-107.01C351.76,-104.59 363.53,-101.85 375.31,-99.1"/>
<polygon fill="#d46a6a" stroke="#d46a6a" stroke-width="1.5" points="375.82,-101.86 382.97,-97.32 374.55,-96.41 375.82,-101.86"/>
</g>
<!-- rel_1 -->
<g id="node11" class="node">
<title>rel_1</title>
<path fill="#f5b8b8" stroke="#d46a6a" stroke-width="1.2" d="M494.25,-36C494.25,-36 396.5,-36 396.5,-36 390.5,-36 384.5,-30 384.5,-24 384.5,-24 384.5,-12 384.5,-12 384.5,-6 390.5,0 396.5,0 396.5,0 494.25,0 494.25,0 500.25,0 506.25,-6 506.25,-12 506.25,-12 506.25,-24 506.25,-24 506.25,-30 500.25,-36 494.25,-36"/>
<text xml:space="preserve" text-anchor="middle" x="445.38" y="-14.5" font-family="Arial" font-size="10.00" fill="#8b0000">requires differentiation in</text>
</g>
<!-- unknown.color_palette&#45;&gt;rel_1 -->
<g id="edge8" class="edge">
<title>unknown.color_palette&#45;&gt;rel_1</title>
<path fill="none" stroke="#d46a6a" stroke-width="1.5" d="M326.65,-96.35C341.6,-82.62 363.09,-63.97 383.75,-50 388.02,-47.12 392.57,-44.29 397.2,-41.59"/>
<polygon fill="#d46a6a" stroke="#d46a6a" stroke-width="1.5" points="398.55,-44.05 404.14,-37.68 395.8,-39.17 398.55,-44.05"/>
</g>
<!-- structure.pattern -->
<g id="node2" class="node">
<title>structure.pattern</title>
<path fill="#b8e6b8" stroke="#2c3e50" stroke-width="1.8" d="M42,-165C42,-165 12,-165 12,-165 6,-165 0,-159 0,-153 0,-153 0,-141 0,-141 0,-135 6,-129 12,-129 12,-129 42,-129 42,-129 48,-129 54,-135 54,-141 54,-141 54,-153 54,-153 54,-159 48,-165 42,-165"/>
<text xml:space="preserve" text-anchor="middle" x="27" y="-143.5" font-family="Arial" font-size="10.00" fill="#1a1a1a">pattern</text>
</g>
<!-- attr_2 -->
<g id="node7" class="node">
<title>attr_2</title>
<path fill="#c7b8e6" stroke="#7f8c8d" stroke-width="1.2" d="M216.5,-198C216.5,-198 109,-198 109,-198 103,-198 97,-192 97,-186 97,-186 97,-174 97,-174 97,-168 103,-162 109,-162 109,-162 216.5,-162 216.5,-162 222.5,-162 228.5,-168 228.5,-174 228.5,-174 228.5,-186 228.5,-186 228.5,-192 222.5,-198 216.5,-198"/>
<text xml:space="preserve" text-anchor="middle" x="162.75" y="-176.5" font-family="Arial" font-size="10.00" fill="#1a1a1a">(+) varied color distribution</text>
</g>
<!-- structure.pattern&#45;&gt;attr_2 -->
<g id="edge3" class="edge">
<title>structure.pattern&#45;&gt;attr_2</title>
<path fill="none" stroke="#aaaaaa" d="M54.74,-153.6C64.69,-156.05 76.51,-158.97 88.61,-161.95"/>
<polygon fill="#aaaaaa" stroke="#aaaaaa" points="87.73,-164.26 95.11,-163.56 88.9,-159.5 87.73,-164.26"/>
</g>
<!-- rel_2 -->
<g id="node12" class="node">
<title>rel_2</title>
<path fill="#f5b8b8" stroke="#d46a6a" stroke-width="1.2" d="M185,-133C185,-133 140.5,-133 140.5,-133 134.5,-133 128.5,-127 128.5,-121 128.5,-121 128.5,-109 128.5,-109 128.5,-103 134.5,-97 140.5,-97 140.5,-97 185,-97 185,-97 191,-97 197,-103 197,-109 197,-109 197,-121 197,-121 197,-127 191,-133 185,-133"/>
<text xml:space="preserve" text-anchor="middle" x="162.75" y="-111.5" font-family="Arial" font-size="10.00" fill="#8b0000">encoded via</text>
</g>
<!-- structure.pattern&#45;&gt;rel_2 -->
<g id="edge10" class="edge">
<title>structure.pattern&#45;&gt;rel_2</title>
<path fill="none" stroke="#d46a6a" stroke-width="1.5" d="M54.74,-140.6C72.83,-136.28 97.12,-130.46 117.99,-125.47"/>
<polygon fill="#d46a6a" stroke="#d46a6a" stroke-width="1.5" points="118.58,-128.21 125.71,-123.62 117.28,-122.76 118.58,-128.21"/>
</g>
<!-- furniture.legend -->
<g id="node3" class="node">
<title>furniture.legend</title>
<path fill="#b8e6b8" stroke="#2c3e50" stroke-width="1.8" d="M593.25,-36C593.25,-36 563.25,-36 563.25,-36 557.25,-36 551.25,-30 551.25,-24 551.25,-24 551.25,-12 551.25,-12 551.25,-6 557.25,0 563.25,0 563.25,0 593.25,0 593.25,0 599.25,0 605.25,-6 605.25,-12 605.25,-12 605.25,-24 605.25,-24 605.25,-30 599.25,-36 593.25,-36"/>
<text xml:space="preserve" text-anchor="middle" x="578.25" y="-14.5" font-family="Arial" font-size="10.00" fill="#1a1a1a">legend</text>
</g>
<!-- attr_3 -->
<g id="node8" class="node">
<title>attr_3</title>
<path fill="#c7b8e6" stroke="#7f8c8d" stroke-width="1.2" d="M762.25,-36C762.25,-36 675,-36 675,-36 669,-36 663,-30 663,-24 663,-24 663,-12 663,-12 663,-6 669,0 675,0 675,0 762.25,0 762.25,0 768.25,0 774.25,-6 774.25,-12 774.25,-12 774.25,-24 774.25,-24 774.25,-30 768.25,-36 762.25,-36"/>
<text xml:space="preserve" text-anchor="middle" x="718.62" y="-14.5" font-family="Arial" font-size="10.00" fill="#1a1a1a">(+) many color entries</text>
</g>
<!-- furniture.legend&#45;&gt;attr_3 -->
<g id="edge4" class="edge">
<title>furniture.legend&#45;&gt;attr_3</title>
<path fill="none" stroke="#aaaaaa" d="M605.93,-18C619.77,-18 637.3,-18 654.36,-18"/>
<polygon fill="#aaaaaa" stroke="#aaaaaa" points="654.16,-20.45 661.16,-18 654.16,-15.55 654.16,-20.45"/>
</g>
<!-- unknown.data_area -->
<g id="node4" class="node">
<title>unknown.data_area</title>
<path fill="#b8e6b8" stroke="#2c3e50" stroke-width="1.8" d="M594.5,-101C594.5,-101 562,-101 562,-101 556,-101 550,-95 550,-89 550,-89 550,-77 550,-77 550,-71 556,-65 562,-65 562,-65 594.5,-65 594.5,-65 600.5,-65 606.5,-71 606.5,-77 606.5,-77 606.5,-89 606.5,-89 606.5,-95 600.5,-101 594.5,-101"/>
<text xml:space="preserve" text-anchor="middle" x="578.25" y="-79.5" font-family="Arial" font-size="10.00" fill="#1a1a1a">data area</text>
</g>
<!-- attr_4 -->
<g id="node9" class="node">
<title>attr_4</title>
<path fill="#c7b8e6" stroke="#7f8c8d" stroke-width="1.2" d="M775.75,-101C775.75,-101 661.5,-101 661.5,-101 655.5,-101 649.5,-95 649.5,-89 649.5,-89 649.5,-77 649.5,-77 649.5,-71 655.5,-65 661.5,-65 661.5,-65 775.75,-65 775.75,-65 781.75,-65 787.75,-71 787.75,-77 787.75,-77 787.75,-89 787.75,-89 787.75,-95 781.75,-101 775.75,-101"/>
<text xml:space="preserve" text-anchor="middle" x="718.62" y="-79.5" font-family="Arial" font-size="10.00" fill="#1a1a1a">(+) dense color arrangement</text>
</g>
<!-- unknown.data_area&#45;&gt;attr_4 -->
<g id="edge5" class="edge">
<title>unknown.data_area&#45;&gt;attr_4</title>
<path fill="none" stroke="#aaaaaa" d="M607.25,-83C617.13,-83 628.78,-83 640.73,-83"/>
<polygon fill="#aaaaaa" stroke="#aaaaaa" points="640.53,-85.45 647.53,-83 640.53,-80.55 640.53,-85.45"/>
</g>
<!-- rel_0&#45;&gt;unknown.data_area -->
<g id="edge7" class="edge">
<title>rel_0&#45;&gt;unknown.data_area</title>
<path fill="none" stroke="#d46a6a" stroke-width="1.5" d="M505.69,-83C517.05,-83 528.66,-83 539.13,-83"/>
<polygon fill="#d46a6a" stroke="#d46a6a" stroke-width="1.5" points="538.9,-85.8 546.9,-83 538.9,-80.2 538.9,-85.8"/>
</g>
<!-- rel_1&#45;&gt;furniture.legend -->
<g id="edge9" class="edge">
<title>rel_1&#45;&gt;furniture.legend</title>
<path fill="none" stroke="#d46a6a" stroke-width="1.5" d="M506.83,-18C518.29,-18 529.94,-18 540.39,-18"/>
<polygon fill="#d46a6a" stroke="#d46a6a" stroke-width="1.5" points="540.11,-20.8 548.11,-18 540.11,-15.2 540.11,-20.8"/>
</g>
<!-- rel_2&#45;&gt;unknown.color_palette -->
<g id="edge11" class="edge">
<title>rel_2&#45;&gt;unknown.color_palette</title>
<path fill="none" stroke="#d46a6a" stroke-width="1.5" d="M197.25,-115C216.25,-115 240.26,-115 260.81,-115"/>
<polygon fill="#d46a6a" stroke="#d46a6a" stroke-width="1.5" points="260.61,-117.8 268.61,-115 260.61,-112.2 260.61,-117.8"/>
</g>
</g>
</svg>
