<?xml version="1.0" encoding="UTF-8" standalone="no"?>
<!DOCTYPE svg PUBLIC "-//W3C//DTD SVG 1.1//EN"
 "http://www.w3.org/Graphics/SVG/1.1/DTD/svg11.dtd">
<!-- Generated by graphviz version 14.1.5 (20260411.2331)
 -->
<!-- Title: SciVisJ.2664.2.png Pages: 1 -->
<svg width="866pt" height="598pt"
 viewBox="0.00 0.00 866.00 598.00" xmlns="http://www.w3.org/2000/svg" xmlns:xlink="http://www.w3.org/1999/xlink">
<g id="graph0" class="graph" transform="scale(1 1) rotate(0) translate(4 594.25)">
<title>SciVisJ.2664.2.png</title>
<polygon fill="white" stroke="none" points="-4,4 -4,-594.25 861.5,-594.25 861.5,4 -4,4"/>
<text xml:space="preserve" text-anchor="start" x="368" y="-569.95" font-family="Arial" font-weight="bold" font-size="14.00">SciVisJ.2664.2.png</text>
<text xml:space="preserve" text-anchor="start" x="382.62" y="-550" font-family="Arial" font-size="11.00">Glyph &#160;| &#160;VC = 0.74</text>
<path fill="#b8e6b8" stroke="none" d="M219.38,-525C219.38,-525 227.38,-525 227.38,-525 230.38,-525 233.38,-528 233.38,-531 233.38,-531 233.38,-537 233.38,-537 233.38,-540 230.38,-543 227.38,-543 227.38,-543 219.38,-543 219.38,-543 216.38,-543 213.38,-540 213.38,-537 213.38,-537 213.38,-531 213.38,-531 213.38,-528 216.38,-525 219.38,-525"/>
<path fill="none" stroke="black" d="M219.38,-525C219.38,-525 227.38,-525 227.38,-525 230.38,-525 233.38,-528 233.38,-531 233.38,-531 233.38,-537 233.38,-537 233.38,-540 230.38,-543 227.38,-543 227.38,-543 219.38,-543 219.38,-543 216.38,-543 213.38,-540 213.38,-537 213.38,-537 213.38,-531 213.38,-531 213.38,-528 216.38,-525 219.38,-525"/>
<text xml:space="preserve" text-anchor="start" x="221.88" y="-530.25" font-family="Arial" font-size="10.00"> </text>
<text xml:space="preserve" text-anchor="start" x="237.38" y="-530.25" font-family="Arial" font-size="10.00">Object</text>
<path fill="#c7b8e6" stroke="none" d="M275.88,-525C275.88,-525 283.88,-525 283.88,-525 286.88,-525 289.88,-528 289.88,-531 289.88,-531 289.88,-537 289.88,-537 289.88,-540 286.88,-543 283.88,-543 283.88,-543 275.88,-543 275.88,-543 272.88,-543 269.88,-540 269.88,-537 269.88,-537 269.88,-531 269.88,-531 269.88,-528 272.88,-525 275.88,-525"/>
<path fill="none" stroke="black" d="M275.88,-525C275.88,-525 283.88,-525 283.88,-525 286.88,-525 289.88,-528 289.88,-531 289.88,-531 289.88,-537 289.88,-537 289.88,-540 286.88,-543 283.88,-543 283.88,-543 275.88,-543 275.88,-543 272.88,-543 269.88,-540 269.88,-537 269.88,-537 269.88,-531 269.88,-531 269.88,-528 272.88,-525 275.88,-525"/>
<text xml:space="preserve" text-anchor="start" x="278.38" y="-530.25" font-family="Arial" font-size="10.00"> </text>
<text xml:space="preserve" text-anchor="start" x="293.88" y="-530.25" font-family="Arial" font-size="10.00">Attribute</text>
<path fill="#f5b8b8" stroke="none" d="M340.62,-525C340.62,-525 348.62,-525 348.62,-525 351.62,-525 354.62,-528 354.62,-531 354.62,-531 354.62,-537 354.62,-537 354.62,-540 351.62,-543 348.62,-543 348.62,-543 340.62,-543 340.62,-543 337.62,-543 334.62,-540 334.62,-537 334.62,-537 334.62,-531 334.62,-531 334.62,-528 337.62,-525 340.62,-525"/>
<path fill="none" stroke="black" d="M340.62,-525C340.62,-525 348.62,-525 348.62,-525 351.62,-525 354.62,-528 354.62,-531 354.62,-531 354.62,-537 354.62,-537 354.62,-540 351.62,-543 348.62,-543 348.62,-543 340.62,-543 340.62,-543 337.62,-543 334.62,-540 334.62,-537 334.62,-537 334.62,-531 334.62,-531 334.62,-528 337.62,-525 340.62,-525"/>
<text xml:space="preserve" text-anchor="start" x="343.12" y="-530.25" font-family="Arial" font-size="10.00"> </text>
<text xml:space="preserve" text-anchor="start" x="358.62" y="-530.25" font-family="Arial" font-size="10.00">Relationship</text>
<text xml:space="preserve" text-anchor="start" x="418.62" y="-531.5" font-family="Arial" font-weight="bold" font-size="10.00">(+)</text>
<text xml:space="preserve" text-anchor="start" x="430.62" y="-531.5" font-family="Arial" font-size="10.00"> increases complexity</text>
<text xml:space="preserve" text-anchor="start" x="531.88" y="-531.5" font-family="Arial" font-weight="bold" font-size="10.00">(−)</text>
<text xml:space="preserve" text-anchor="start" x="543.88" y="-531.5" font-family="Arial" font-size="10.00"> decreases complexity</text>
<!-- unknown.glyph -->
<g id="node1" class="node">
<title>unknown.glyph</title>
<path fill="#b8e6b8" stroke="#2c3e50" stroke-width="1.8" d="M323,-166C323,-166 293,-166 293,-166 287,-166 281,-160 281,-154 281,-154 281,-142 281,-142 281,-136 287,-130 293,-130 293,-130 323,-130 323,-130 329,-130 335,-136 335,-142 335,-142 335,-154 335,-154 335,-160 329,-166 323,-166"/>
<text xml:space="preserve" text-anchor="middle" x="308" y="-144.5" font-family="Arial" font-size="10.00" fill="#1a1a1a">glyph</text>
</g>
<!-- attr_0 -->
<g id="node6" class="node">
<title>attr_0</title>
<path fill="#c7b8e6" stroke="#7f8c8d" stroke-width="1.2" d="M512.62,-101C512.62,-101 412.62,-101 412.62,-101 406.62,-101 400.62,-95 400.62,-89 400.62,-89 400.62,-77 400.62,-77 400.62,-71 406.62,-65 412.62,-65 412.62,-65 512.62,-65 512.62,-65 518.62,-65 524.62,-71 524.62,-77 524.62,-77 524.62,-89 524.62,-89 524.62,-95 518.62,-101 512.62,-101"/>
<text xml:space="preserve" text-anchor="middle" x="462.62" y="-79.5" font-family="Arial" font-size="10.00" fill="#1a1a1a">(+) unfamiliar visual form</text>
</g>
<!-- unknown.glyph&#45;&gt;attr_0 -->
<g id="edge1" class="edge">
<title>unknown.glyph&#45;&gt;attr_0</title>
<path fill="none" stroke="#aaaaaa" d="M335.59,-136.68C356.17,-127.91 385.31,-115.5 410.39,-104.82"/>
<polygon fill="#aaaaaa" stroke="#aaaaaa" points="411.16,-107.16 416.64,-102.16 409.24,-102.65 411.16,-107.16"/>
</g>
<!-- attr_5 -->
<g id="node7" class="node">
<title>attr_5</title>
<path fill="#c7b8e6" stroke="#7f8c8d" stroke-width="1.2" d="M528,-231C528,-231 397.25,-231 397.25,-231 391.25,-231 385.25,-225 385.25,-219 385.25,-219 385.25,-207 385.25,-207 385.25,-201 391.25,-195 397.25,-195 397.25,-195 528,-195 528,-195 534,-195 540,-201 540,-207 540,-207 540,-219 540,-219 540,-225 534,-231 528,-231"/>
<text xml:space="preserve" text-anchor="middle" x="462.62" y="-209.5" font-family="Arial" font-size="10.00" fill="#1a1a1a">(+) unclear encoding convention</text>
</g>
<!-- unknown.glyph&#45;&gt;attr_5 -->
<g id="edge2" class="edge">
<title>unknown.glyph&#45;&gt;attr_5</title>
<path fill="none" stroke="#aaaaaa" d="M335.79,-159.68C350.39,-166.03 368.79,-173.99 385.25,-181 393.07,-184.33 401.35,-187.83 409.46,-191.24"/>
<polygon fill="#aaaaaa" stroke="#aaaaaa" points="408.37,-193.44 415.77,-193.89 410.26,-188.92 408.37,-193.44"/>
</g>
<!-- rel_1 -->
<g id="node14" class="node">
<title>rel_1</title>
<path fill="#f5b8b8" stroke="#d46a6a" stroke-width="1.2" d="M504.38,-166C504.38,-166 420.88,-166 420.88,-166 414.88,-166 408.88,-160 408.88,-154 408.88,-154 408.88,-142 408.88,-142 408.88,-136 414.88,-130 420.88,-130 420.88,-130 504.38,-130 504.38,-130 510.38,-130 516.38,-136 516.38,-142 516.38,-142 516.38,-154 516.38,-154 516.38,-160 510.38,-166 504.38,-166"/>
<text xml:space="preserve" text-anchor="middle" x="462.62" y="-144.5" font-family="Arial" font-size="10.00" fill="#8b0000">requires expertise for</text>
</g>
<!-- unknown.glyph&#45;&gt;rel_1 -->
<g id="edge13" class="edge">
<title>unknown.glyph&#45;&gt;rel_1</title>
<path fill="none" stroke="#d46a6a" stroke-width="1.5" d="M335.59,-148C352.99,-148 376.51,-148 398.51,-148"/>
<polygon fill="#d46a6a" stroke="#d46a6a" stroke-width="1.5" points="398.22,-150.8 406.22,-148 398.22,-145.2 398.22,-150.8"/>
</g>
<!-- rel_4 -->
<g id="node17" class="node">
<title>rel_4</title>
<path fill="#f5b8b8" stroke="#d46a6a" stroke-width="1.2" d="M479.62,-36C479.62,-36 445.62,-36 445.62,-36 439.62,-36 433.62,-30 433.62,-24 433.62,-24 433.62,-12 433.62,-12 433.62,-6 439.62,0 445.62,0 445.62,0 479.62,0 479.62,0 485.62,0 491.62,-6 491.62,-12 491.62,-12 491.62,-24 491.62,-24 491.62,-30 485.62,-36 479.62,-36"/>
<text xml:space="preserve" text-anchor="middle" x="462.62" y="-14.5" font-family="Arial" font-size="10.00" fill="#8b0000">increases</text>
</g>
<!-- unknown.glyph&#45;&gt;rel_4 -->
<g id="edge19" class="edge">
<title>unknown.glyph&#45;&gt;rel_4</title>
<path fill="none" stroke="#d46a6a" stroke-width="1.5" d="M319.73,-129.28C332.81,-107.87 356.74,-72.96 385.25,-51 396.76,-42.14 411.02,-35.14 424.08,-29.92"/>
<polygon fill="#d46a6a" stroke="#d46a6a" stroke-width="1.5" points="424.71,-32.67 431.21,-27.23 422.74,-27.43 424.71,-32.67"/>
</g>
<!-- furniture.legend -->
<g id="node2" class="node">
<title>furniture.legend</title>
<path fill="#b8e6b8" stroke="#2c3e50" stroke-width="1.8" d="M42,-421C42,-421 12,-421 12,-421 6,-421 0,-415 0,-409 0,-409 0,-397 0,-397 0,-391 6,-385 12,-385 12,-385 42,-385 42,-385 48,-385 54,-391 54,-397 54,-397 54,-409 54,-409 54,-415 48,-421 42,-421"/>
<text xml:space="preserve" text-anchor="middle" x="27" y="-399.5" font-family="Arial" font-size="10.00" fill="#1a1a1a">legend</text>
</g>
<!-- attr_1 -->
<g id="node8" class="node">
<title>attr_1</title>
<path fill="#c7b8e6" stroke="#7f8c8d" stroke-width="1.2" d="M213.88,-519C213.88,-519 113.88,-519 113.88,-519 107.88,-519 101.88,-513 101.88,-507 101.88,-507 101.88,-495 101.88,-495 101.88,-489 107.88,-483 113.88,-483 113.88,-483 213.88,-483 213.88,-483 219.88,-483 225.88,-489 225.88,-495 225.88,-495 225.88,-507 225.88,-507 225.88,-513 219.88,-519 213.88,-519"/>
<text xml:space="preserve" text-anchor="middle" x="163.88" y="-497.5" font-family="Arial" font-size="10.00" fill="#1a1a1a">(+) color encodes groups</text>
</g>
<!-- furniture.legend&#45;&gt;attr_1 -->
<g id="edge3" class="edge">
<title>furniture.legend&#45;&gt;attr_1</title>
<path fill="none" stroke="#aaaaaa" d="M54.79,-419.11C66.92,-430.19 81.89,-443.99 97,-454.5 109.74,-463.36 125.3,-471.05 138.11,-478.23"/>
<polygon fill="#aaaaaa" stroke="#aaaaaa" points="136.69,-480.24 143.97,-481.65 139.16,-476.01 136.69,-480.24"/>
</g>
<!-- furniture.legend&#45;&gt;attr_1 -->
<g id="edge6" class="edge">
<title>furniture.legend&#45;&gt;attr_1</title>
<path fill="none" stroke="#aaaaaa" d="M35.95,-421.64C47.13,-439 68.65,-462.36 94.75,-481.68"/>
<polygon fill="#aaaaaa" stroke="#aaaaaa" points="93.14,-483.54 100.26,-485.62 95.99,-479.55 93.14,-483.54"/>
</g>
<!-- attr_2 -->
<g id="node9" class="node">
<title>attr_2</title>
<path fill="#c7b8e6" stroke="#7f8c8d" stroke-width="1.2" d="M218.75,-454C218.75,-454 109,-454 109,-454 103,-454 97,-448 97,-442 97,-442 97,-430 97,-430 97,-424 103,-418 109,-418 109,-418 218.75,-418 218.75,-418 224.75,-418 230.75,-424 230.75,-430 230.75,-430 230.75,-442 230.75,-442 230.75,-448 224.75,-454 218.75,-454"/>
<text xml:space="preserve" text-anchor="middle" x="163.88" y="-432.5" font-family="Arial" font-size="10.00" fill="#1a1a1a">(+) insufficient for decoding</text>
</g>
<!-- furniture.legend&#45;&gt;attr_2 -->
<g id="edge4" class="edge">
<title>furniture.legend&#45;&gt;attr_2</title>
<path fill="none" stroke="#aaaaaa" d="M54.65,-400.65C72.96,-403.06 97.7,-408.64 118.9,-414.97"/>
<polygon fill="#aaaaaa" stroke="#aaaaaa" points="117.98,-417.25 125.39,-416.98 119.43,-412.57 117.98,-417.25"/>
</g>
<!-- furniture.legend&#45;&gt;attr_2 -->
<g id="edge7" class="edge">
<title>furniture.legend&#45;&gt;attr_2</title>
<path fill="none" stroke="#aaaaaa" d="M54.65,-418.39C64.6,-421.95 76.45,-425.5 88.59,-428.65"/>
<polygon fill="#aaaaaa" stroke="#aaaaaa" points="87.75,-430.96 95.13,-430.29 88.94,-426.21 87.75,-430.96"/>
</g>
<!-- attr_6 -->
<g id="node10" class="node">
<title>attr_6</title>
<path fill="#c7b8e6" stroke="#7f8c8d" stroke-width="1.2" d="M213.5,-389C213.5,-389 114.25,-389 114.25,-389 108.25,-389 102.25,-383 102.25,-377 102.25,-377 102.25,-365 102.25,-365 102.25,-359 108.25,-353 114.25,-353 114.25,-353 213.5,-353 213.5,-353 219.5,-353 225.5,-359 225.5,-365 225.5,-365 225.5,-377 225.5,-377 225.5,-383 219.5,-389 213.5,-389"/>
<text xml:space="preserve" text-anchor="middle" x="163.88" y="-367.5" font-family="Arial" font-size="10.00" fill="#1a1a1a">(+) multiple distinct hues</text>
</g>
<!-- furniture.legend&#45;&gt;attr_6 -->
<g id="edge5" class="edge">
<title>furniture.legend&#45;&gt;attr_6</title>
<path fill="none" stroke="#aaaaaa" d="M54.65,-387.81C65.94,-383.85 79.68,-379.92 93.53,-376.58"/>
<polygon fill="#aaaaaa" stroke="#aaaaaa" points="93.94,-379 100.2,-375.03 92.83,-374.23 93.94,-379"/>
</g>
<!-- furniture.legend&#45;&gt;attr_6 -->
<g id="edge8" class="edge">
<title>furniture.legend&#45;&gt;attr_6</title>
<path fill="none" stroke="#aaaaaa" d="M54.65,-405.54C72.75,-403.3 97.15,-397.99 118.19,-391.91"/>
<polygon fill="#aaaaaa" stroke="#aaaaaa" points="118.62,-394.34 124.62,-389.98 117.21,-389.64 118.62,-394.34"/>
</g>
<!-- rel_0 -->
<g id="node13" class="node">
<title>rel_0</title>
<path fill="#f5b8b8" stroke="#d46a6a" stroke-width="1.2" d="M330.25,-407C330.25,-407 285.75,-407 285.75,-407 279.75,-407 273.75,-401 273.75,-395 273.75,-395 273.75,-383 273.75,-383 273.75,-377 279.75,-371 285.75,-371 285.75,-371 330.25,-371 330.25,-371 336.25,-371 342.25,-377 342.25,-383 342.25,-383 342.25,-395 342.25,-395 342.25,-401 336.25,-407 330.25,-407"/>
<text xml:space="preserve" text-anchor="middle" x="308" y="-385.5" font-family="Arial" font-size="10.00" fill="#8b0000">encodes via</text>
</g>
<!-- furniture.legend&#45;&gt;rel_0 -->
<g id="edge11" class="edge">
<title>furniture.legend&#45;&gt;rel_0</title>
<path fill="none" stroke="#d46a6a" stroke-width="1.5" d="M41.46,-384.39C53.89,-368.93 73.88,-348.07 97,-339 152.34,-317.29 173.79,-321.99 230.75,-339 247.83,-344.1 264.64,-354.39 278.11,-364.32"/>
<polygon fill="#d46a6a" stroke="#d46a6a" stroke-width="1.5" points="276.19,-366.37 284.24,-369.02 279.6,-361.93 276.19,-366.37"/>
</g>
<!-- rel_2 -->
<g id="node15" class="node">
<title>rel_2</title>
<path fill="#f5b8b8" stroke="#d46a6a" stroke-width="1.2" d="M205.25,-232C205.25,-232 122.5,-232 122.5,-232 116.5,-232 110.5,-226 110.5,-220 110.5,-220 110.5,-208 110.5,-208 110.5,-202 116.5,-196 122.5,-196 122.5,-196 205.25,-196 205.25,-196 211.25,-196 217.25,-202 217.25,-208 217.25,-208 217.25,-220 217.25,-220 217.25,-226 211.25,-232 205.25,-232"/>
<text xml:space="preserve" text-anchor="middle" x="163.88" y="-210.5" font-family="Arial" font-size="10.00" fill="#8b0000">insufficiently clarifies</text>
</g>
<!-- furniture.legend&#45;&gt;rel_2 -->
<g id="edge15" class="edge">
<title>furniture.legend&#45;&gt;rel_2</title>
<path fill="none" stroke="#d46a6a" stroke-width="1.5" d="M37.69,-384.21C50.16,-360.65 73.08,-319.44 97,-287 109.31,-270.31 124.77,-253.02 137.62,-239.45"/>
<polygon fill="#d46a6a" stroke="#d46a6a" stroke-width="1.5" points="139.37,-241.68 142.89,-233.97 135.33,-237.8 139.37,-241.68"/>
</g>
<!-- mark.shape -->
<g id="node3" class="node">
<title>mark.shape</title>
<path fill="#b8e6b8" stroke="#2c3e50" stroke-width="1.8" d="M323,-327C323,-327 293,-327 293,-327 287,-327 281,-321 281,-315 281,-315 281,-303 281,-303 281,-297 287,-291 293,-291 293,-291 323,-291 323,-291 329,-291 335,-297 335,-303 335,-303 335,-315 335,-315 335,-321 329,-327 323,-327"/>
<text xml:space="preserve" text-anchor="middle" x="308" y="-305.5" font-family="Arial" font-size="10.00" fill="#1a1a1a">shape</text>
</g>
<!-- attr_3 -->
<g id="node11" class="node">
<title>attr_3</title>
<path fill="#c7b8e6" stroke="#7f8c8d" stroke-width="1.2" d="M511.88,-296C511.88,-296 413.38,-296 413.38,-296 407.38,-296 401.38,-290 401.38,-284 401.38,-284 401.38,-272 401.38,-272 401.38,-266 407.38,-260 413.38,-260 413.38,-260 511.88,-260 511.88,-260 517.88,-260 523.88,-266 523.88,-272 523.88,-272 523.88,-284 523.88,-284 523.88,-290 517.88,-296 511.88,-296"/>
<text xml:space="preserve" text-anchor="middle" x="462.62" y="-274.5" font-family="Arial" font-size="10.00" fill="#1a1a1a">(+) abstract glyph marks</text>
</g>
<!-- mark.shape&#45;&gt;attr_3 -->
<g id="edge9" class="edge">
<title>mark.shape&#45;&gt;attr_3</title>
<path fill="none" stroke="#aaaaaa" d="M335.59,-303.6C351.42,-300.38 372.32,-296.14 392.54,-292.03"/>
<polygon fill="#aaaaaa" stroke="#aaaaaa" points="392.99,-294.44 399.36,-290.65 392.01,-289.64 392.99,-294.44"/>
</g>
<!-- rel_3 -->
<g id="node16" class="node">
<title>rel_3</title>
<path fill="#f5b8b8" stroke="#d46a6a" stroke-width="1.2" d="M478.5,-361C478.5,-361 446.75,-361 446.75,-361 440.75,-361 434.75,-355 434.75,-349 434.75,-349 434.75,-337 434.75,-337 434.75,-331 440.75,-325 446.75,-325 446.75,-325 478.5,-325 478.5,-325 484.5,-325 490.5,-331 490.5,-337 490.5,-337 490.5,-349 490.5,-349 490.5,-355 484.5,-361 478.5,-361"/>
<text xml:space="preserve" text-anchor="middle" x="462.62" y="-339.5" font-family="Arial" font-size="10.00" fill="#8b0000">obscures</text>
</g>
<!-- mark.shape&#45;&gt;rel_3 -->
<g id="edge17" class="edge">
<title>mark.shape&#45;&gt;rel_3</title>
<path fill="none" stroke="#d46a6a" stroke-width="1.5" d="M335.59,-314.92C360.23,-320.41 397.13,-328.63 424.64,-334.76"/>
<polygon fill="#d46a6a" stroke="#d46a6a" stroke-width="1.5" points="423.68,-337.42 432.1,-336.42 424.9,-331.95 423.68,-337.42"/>
</g>
<!-- text.annotation -->
<g id="node4" class="node">
<title>text.annotation</title>
<path fill="#b8e6b8" stroke="#2c3e50" stroke-width="1.8" d="M642.5,-36C642.5,-36 605.5,-36 605.5,-36 599.5,-36 593.5,-30 593.5,-24 593.5,-24 593.5,-12 593.5,-12 593.5,-6 599.5,0 605.5,0 605.5,0 642.5,0 642.5,0 648.5,0 654.5,-6 654.5,-12 654.5,-12 654.5,-24 654.5,-24 654.5,-30 648.5,-36 642.5,-36"/>
<text xml:space="preserve" text-anchor="middle" x="624" y="-14.5" font-family="Arial" font-size="10.00" fill="#1a1a1a">annotation</text>
</g>
<!-- unknown.group_encoding -->
<g id="node5" class="node">
<title>unknown.group_encoding</title>
<path fill="#b8e6b8" stroke="#2c3e50" stroke-width="1.8" d="M653,-361C653,-361 595,-361 595,-361 589,-361 583,-355 583,-349 583,-349 583,-337 583,-337 583,-331 589,-325 595,-325 595,-325 653,-325 653,-325 659,-325 665,-331 665,-337 665,-337 665,-349 665,-349 665,-355 659,-361 653,-361"/>
<text xml:space="preserve" text-anchor="middle" x="624" y="-339.5" font-family="Arial" font-size="10.00" fill="#1a1a1a">group encoding</text>
</g>
<!-- attr_4 -->
<g id="node12" class="node">
<title>attr_4</title>
<path fill="#c7b8e6" stroke="#7f8c8d" stroke-width="1.2" d="M845.5,-361C845.5,-361 720,-361 720,-361 714,-361 708,-355 708,-349 708,-349 708,-337 708,-337 708,-331 714,-325 720,-325 720,-325 845.5,-325 845.5,-325 851.5,-325 857.5,-331 857.5,-337 857.5,-337 857.5,-349 857.5,-349 857.5,-355 851.5,-361 845.5,-361"/>
<text xml:space="preserve" text-anchor="middle" x="782.75" y="-339.5" font-family="Arial" font-size="10.00" fill="#1a1a1a">(+) requires domain knowledge</text>
</g>
<!-- unknown.group_encoding&#45;&gt;attr_4 -->
<g id="edge10" class="edge">
<title>unknown.group_encoding&#45;&gt;attr_4</title>
<path fill="none" stroke="#aaaaaa" d="M665.78,-343C676.07,-343 687.49,-343 699.04,-343"/>
<polygon fill="#aaaaaa" stroke="#aaaaaa" points="698.95,-345.45 705.95,-343 698.95,-340.55 698.95,-345.45"/>
</g>
<!-- rel_0&#45;&gt;unknown.group_encoding -->
<g id="edge12" class="edge">
<title>rel_0&#45;&gt;unknown.group_encoding</title>
<path fill="none" stroke="#d46a6a" stroke-width="1.5" d="M342.74,-390.46C388.14,-391.67 471.16,-391.2 540,-376 551.24,-373.52 562.95,-369.7 573.9,-365.53"/>
<polygon fill="#d46a6a" stroke="#d46a6a" stroke-width="1.5" points="574.78,-368.19 581.19,-362.63 572.72,-362.98 574.78,-368.19"/>
</g>
<!-- rel_1&#45;&gt;unknown.group_encoding -->
<g id="edge14" class="edge">
<title>rel_1&#45;&gt;unknown.group_encoding</title>
<path fill="none" stroke="#d46a6a" stroke-width="1.5" d="M516.68,-165.18C525.11,-169.46 533.25,-174.68 540,-181 579.78,-218.26 603.64,-278.84 614.96,-314.42"/>
<polygon fill="#d46a6a" stroke="#d46a6a" stroke-width="1.5" points="612.27,-315.17 617.29,-322 617.62,-313.53 612.27,-315.17"/>
</g>
<!-- rel_2&#45;&gt;unknown.glyph -->
<g id="edge16" class="edge">
<title>rel_2&#45;&gt;unknown.glyph</title>
<path fill="none" stroke="#d46a6a" stroke-width="1.5" d="M204.84,-195.44C225.68,-185.76 250.96,-174.02 271.16,-164.64"/>
<polygon fill="#d46a6a" stroke="#d46a6a" stroke-width="1.5" points="272.2,-167.25 278.28,-161.34 269.84,-162.17 272.2,-167.25"/>
</g>
<!-- rel_3&#45;&gt;unknown.group_encoding -->
<g id="edge18" class="edge">
<title>rel_3&#45;&gt;unknown.group_encoding</title>
<path fill="none" stroke="#d46a6a" stroke-width="1.5" d="M491.02,-343C513.28,-343 545.27,-343 572.19,-343"/>
<polygon fill="#d46a6a" stroke="#d46a6a" stroke-width="1.5" points="571.95,-345.8 579.95,-343 571.95,-340.2 571.95,-345.8"/>
</g>
<!-- rel_4&#45;&gt;text.annotation -->
<g id="edge20" class="edge">
<title>rel_4&#45;&gt;text.annotation</title>
<path fill="none" stroke="#d46a6a" stroke-width="1.5" d="M492.12,-18C517.4,-18 554.59,-18 582.88,-18"/>
<polygon fill="#d46a6a" stroke="#d46a6a" stroke-width="1.5" points="582.59,-20.8 590.59,-18 582.59,-15.2 582.59,-20.8"/>
</g>
</g>
</svg>
