<?xml version="1.0" encoding="UTF-8" standalone="no"?>
<!DOCTYPE svg PUBLIC "-//W3C//DTD SVG 1.1//EN"
 "http://www.w3.org/Graphics/SVG/1.1/DTD/svg11.dtd">
<!-- Generated by graphviz version 14.1.5 (20260411.2331)
 -->
<!-- Title: SciVisJ.796.18.png Pages: 1 -->
<svg width="548pt" height="570pt"
 viewBox="0.00 0.00 548.00 570.00" xmlns="http://www.w3.org/2000/svg" xmlns:xlink="http://www.w3.org/1999/xlink">
<g id="graph0" class="graph" transform="scale(1 1) rotate(0) translate(4 566.25)">
<title>SciVisJ.796.18.png</title>
<polygon fill="white" stroke="none" points="-4,4 -4,-566.25 544.25,-566.25 544.25,4 -4,4"/>
<text xml:space="preserve" text-anchor="start" x="209.38" y="-541.95" font-family="Arial" font-weight="bold" font-size="14.00">SciVisJ.796.18.png</text>
<text xml:space="preserve" text-anchor="start" x="198.5" y="-522" font-family="Arial" font-size="11.00">Cont.&#45;ColorPatn &#160;| &#160;VC = 0.51</text>
<path fill="#b8e6b8" stroke="none" d="M60.75,-497C60.75,-497 68.75,-497 68.75,-497 71.75,-497 74.75,-500 74.75,-503 74.75,-503 74.75,-509 74.75,-509 74.75,-512 71.75,-515 68.75,-515 68.75,-515 60.75,-515 60.75,-515 57.75,-515 54.75,-512 54.75,-509 54.75,-509 54.75,-503 54.75,-503 54.75,-500 57.75,-497 60.75,-497"/>
<path fill="none" stroke="black" d="M60.75,-497C60.75,-497 68.75,-497 68.75,-497 71.75,-497 74.75,-500 74.75,-503 74.75,-503 74.75,-509 74.75,-509 74.75,-512 71.75,-515 68.75,-515 68.75,-515 60.75,-515 60.75,-515 57.75,-515 54.75,-512 54.75,-509 54.75,-509 54.75,-503 54.75,-503 54.75,-500 57.75,-497 60.75,-497"/>
<text xml:space="preserve" text-anchor="start" x="63.25" y="-502.25" font-family="Arial" font-size="10.00"> </text>
<text xml:space="preserve" text-anchor="start" x="78.75" y="-502.25" font-family="Arial" font-size="10.00">Object</text>
<path fill="#c7b8e6" stroke="none" d="M117.25,-497C117.25,-497 125.25,-497 125.25,-497 128.25,-497 131.25,-500 131.25,-503 131.25,-503 131.25,-509 131.25,-509 131.25,-512 128.25,-515 125.25,-515 125.25,-515 117.25,-515 117.25,-515 114.25,-515 111.25,-512 111.25,-509 111.25,-509 111.25,-503 111.25,-503 111.25,-500 114.25,-497 117.25,-497"/>
<path fill="none" stroke="black" d="M117.25,-497C117.25,-497 125.25,-497 125.25,-497 128.25,-497 131.25,-500 131.25,-503 131.25,-503 131.25,-509 131.25,-509 131.25,-512 128.25,-515 125.25,-515 125.25,-515 117.25,-515 117.25,-515 114.25,-515 111.25,-512 111.25,-509 111.25,-509 111.25,-503 111.25,-503 111.25,-500 114.25,-497 117.25,-497"/>
<text xml:space="preserve" text-anchor="start" x="119.75" y="-502.25" font-family="Arial" font-size="10.00"> </text>
<text xml:space="preserve" text-anchor="start" x="135.25" y="-502.25" font-family="Arial" font-size="10.00">Attribute</text>
<path fill="#f5b8b8" stroke="none" d="M182,-497C182,-497 190,-497 190,-497 193,-497 196,-500 196,-503 196,-503 196,-509 196,-509 196,-512 193,-515 190,-515 190,-515 182,-515 182,-515 179,-515 176,-512 176,-509 176,-509 176,-503 176,-503 176,-500 179,-497 182,-497"/>
<path fill="none" stroke="black" d="M182,-497C182,-497 190,-497 190,-497 193,-497 196,-500 196,-503 196,-503 196,-509 196,-509 196,-512 193,-515 190,-515 190,-515 182,-515 182,-515 179,-515 176,-512 176,-509 176,-509 176,-503 176,-503 176,-500 179,-497 182,-497"/>
<text xml:space="preserve" text-anchor="start" x="184.5" y="-502.25" font-family="Arial" font-size="10.00"> </text>
<text xml:space="preserve" text-anchor="start" x="200" y="-502.25" font-family="Arial" font-size="10.00">Relationship</text>
<text xml:space="preserve" text-anchor="start" x="260" y="-503.5" font-family="Arial" font-weight="bold" font-size="10.00">(+)</text>
<text xml:space="preserve" text-anchor="start" x="272" y="-503.5" font-family="Arial" font-size="10.00"> increases complexity</text>
<text xml:space="preserve" text-anchor="start" x="373.25" y="-503.5" font-family="Arial" font-weight="bold" font-size="10.00">(−)</text>
<text xml:space="preserve" text-anchor="start" x="385.25" y="-503.5" font-family="Arial" font-size="10.00"> decreases complexity</text>
<!-- furniture.legend -->
<g id="node1" class="node">
<title>furniture.legend</title>
<path fill="#b8e6b8" stroke="#2c3e50" stroke-width="1.8" d="M46.62,-296C46.62,-296 16.62,-296 16.62,-296 10.62,-296 4.62,-290 4.62,-284 4.62,-284 4.62,-272 4.62,-272 4.62,-266 10.62,-260 16.62,-260 16.62,-260 46.62,-260 46.62,-260 52.62,-260 58.62,-266 58.62,-272 58.62,-272 58.62,-284 58.62,-284 58.62,-290 52.62,-296 46.62,-296"/>
<text xml:space="preserve" text-anchor="middle" x="31.62" y="-274.5" font-family="Arial" font-size="10.00" fill="#1a1a1a">legend</text>
</g>
<!-- attr_0 -->
<g id="node6" class="node">
<title>attr_0</title>
<path fill="#c7b8e6" stroke="#7f8c8d" stroke-width="1.2" d="M221.25,-426C221.25,-426 130.25,-426 130.25,-426 124.25,-426 118.25,-420 118.25,-414 118.25,-414 118.25,-402 118.25,-402 118.25,-396 124.25,-390 130.25,-390 130.25,-390 221.25,-390 221.25,-390 227.25,-390 233.25,-396 233.25,-402 233.25,-402 233.25,-414 233.25,-414 233.25,-420 227.25,-426 221.25,-426"/>
<text xml:space="preserve" text-anchor="middle" x="175.75" y="-404.5" font-family="Arial" font-size="10.00" fill="#1a1a1a">(+) missing data labels</text>
</g>
<!-- furniture.legend&#45;&gt;attr_0 -->
<g id="edge1" class="edge">
<title>furniture.legend&#45;&gt;attr_0</title>
<path fill="none" stroke="#aaaaaa" d="M42.9,-296.79C55.46,-318.31 78.49,-353.47 106.25,-376 110.5,-379.45 115.17,-382.62 120.03,-385.51"/>
<polygon fill="#aaaaaa" stroke="#aaaaaa" points="118.62,-387.53 125.92,-388.82 121.02,-383.26 118.62,-387.53"/>
</g>
<!-- attr_1 -->
<g id="node7" class="node">
<title>attr_1</title>
<path fill="#c7b8e6" stroke="#7f8c8d" stroke-width="1.2" d="M233.25,-361C233.25,-361 118.25,-361 118.25,-361 112.25,-361 106.25,-355 106.25,-349 106.25,-349 106.25,-337 106.25,-337 106.25,-331 112.25,-325 118.25,-325 118.25,-325 233.25,-325 233.25,-325 239.25,-325 245.25,-331 245.25,-337 245.25,-337 245.25,-349 245.25,-349 245.25,-355 239.25,-361 233.25,-361"/>
<text xml:space="preserve" text-anchor="middle" x="175.75" y="-339.5" font-family="Arial" font-size="10.00" fill="#1a1a1a">(+) too close to visualization</text>
</g>
<!-- furniture.legend&#45;&gt;attr_1 -->
<g id="edge2" class="edge">
<title>furniture.legend&#45;&gt;attr_1</title>
<path fill="none" stroke="#aaaaaa" d="M59.36,-290.23C78.29,-298.88 104.2,-310.73 126.68,-321.01"/>
<polygon fill="#aaaaaa" stroke="#aaaaaa" points="125.39,-323.12 132.77,-323.8 127.43,-318.66 125.39,-323.12"/>
</g>
<!-- rel_0 -->
<g id="node11" class="node">
<title>rel_0</title>
<path fill="#f5b8b8" stroke="#d46a6a" stroke-width="1.2" d="M204.75,-296C204.75,-296 146.75,-296 146.75,-296 140.75,-296 134.75,-290 134.75,-284 134.75,-284 134.75,-272 134.75,-272 134.75,-266 140.75,-260 146.75,-260 146.75,-260 204.75,-260 204.75,-260 210.75,-260 216.75,-266 216.75,-272 216.75,-272 216.75,-284 216.75,-284 216.75,-290 210.75,-296 204.75,-296"/>
<text xml:space="preserve" text-anchor="middle" x="175.75" y="-274.5" font-family="Arial" font-size="10.00" fill="#8b0000">lacks labels for</text>
</g>
<!-- furniture.legend&#45;&gt;rel_0 -->
<g id="edge6" class="edge">
<title>furniture.legend&#45;&gt;rel_0</title>
<path fill="none" stroke="#d46a6a" stroke-width="1.5" d="M59.36,-278C77.54,-278 102.18,-278 124.02,-278"/>
<polygon fill="#d46a6a" stroke="#d46a6a" stroke-width="1.5" points="123.88,-280.8 131.88,-278 123.88,-275.2 123.88,-280.8"/>
</g>
<!-- rel_1 -->
<g id="node12" class="node">
<title>rel_1</title>
<path fill="#f5b8b8" stroke="#d46a6a" stroke-width="1.2" d="M207,-231C207,-231 144.5,-231 144.5,-231 138.5,-231 132.5,-225 132.5,-219 132.5,-219 132.5,-207 132.5,-207 132.5,-201 138.5,-195 144.5,-195 144.5,-195 207,-195 207,-195 213,-195 219,-201 219,-207 219,-207 219,-219 219,-219 219,-225 213,-231 207,-231"/>
<text xml:space="preserve" text-anchor="middle" x="175.75" y="-209.5" font-family="Arial" font-size="10.00" fill="#8b0000">spatially crowds</text>
</g>
<!-- furniture.legend&#45;&gt;rel_1 -->
<g id="edge8" class="edge">
<title>furniture.legend&#45;&gt;rel_1</title>
<path fill="none" stroke="#d46a6a" stroke-width="1.5" d="M59.36,-265.77C77.79,-257.34 102.85,-245.88 124.91,-235.79"/>
<polygon fill="#d46a6a" stroke="#d46a6a" stroke-width="1.5" points="125.98,-238.39 132.09,-232.51 123.65,-233.29 125.98,-238.39"/>
</g>
<!-- rel_3 -->
<g id="node14" class="node">
<title>rel_3</title>
<path fill="#f5b8b8" stroke="#d46a6a" stroke-width="1.2" d="M229.88,-166C229.88,-166 121.62,-166 121.62,-166 115.62,-166 109.62,-160 109.62,-154 109.62,-154 109.62,-142 109.62,-142 109.62,-136 115.62,-130 121.62,-130 121.62,-130 229.88,-130 229.88,-130 235.88,-130 241.88,-136 241.88,-142 241.88,-142 241.88,-154 241.88,-154 241.88,-160 235.88,-166 229.88,-166"/>
<text xml:space="preserve" text-anchor="middle" x="175.75" y="-144.5" font-family="Arial" font-size="10.00" fill="#8b0000">increases effort to interpret</text>
</g>
<!-- furniture.legend&#45;&gt;rel_3 -->
<g id="edge12" class="edge">
<title>furniture.legend&#45;&gt;rel_3</title>
<path fill="none" stroke="#d46a6a" stroke-width="1.5" d="M42.9,-259.21C55.46,-237.69 78.49,-202.53 106.25,-180 110,-176.96 114.09,-174.12 118.34,-171.51"/>
<polygon fill="#d46a6a" stroke="#d46a6a" stroke-width="1.5" points="119.7,-173.96 125.27,-167.57 116.93,-169.09 119.7,-173.96"/>
</g>
<!-- unknown.data_labels -->
<g id="node2" class="node">
<title>unknown.data_labels</title>
<path fill="#b8e6b8" stroke="#2c3e50" stroke-width="1.8" d="M51.25,-68C51.25,-68 12,-68 12,-68 6,-68 0,-62 0,-56 0,-56 0,-44 0,-44 0,-38 6,-32 12,-32 12,-32 51.25,-32 51.25,-32 57.25,-32 63.25,-38 63.25,-44 63.25,-44 63.25,-56 63.25,-56 63.25,-62 57.25,-68 51.25,-68"/>
<text xml:space="preserve" text-anchor="middle" x="31.62" y="-46.5" font-family="Arial" font-size="10.00" fill="#1a1a1a">data labels</text>
</g>
<!-- attr_2 -->
<g id="node8" class="node">
<title>attr_2</title>
<path fill="#c7b8e6" stroke="#7f8c8d" stroke-width="1.2" d="M225.38,-101C225.38,-101 126.12,-101 126.12,-101 120.12,-101 114.12,-95 114.12,-89 114.12,-89 114.12,-77 114.12,-77 114.12,-71 120.12,-65 126.12,-65 126.12,-65 225.38,-65 225.38,-65 231.38,-65 237.38,-71 237.38,-77 237.38,-77 237.38,-89 237.38,-89 237.38,-95 231.38,-101 225.38,-101"/>
<text xml:space="preserve" text-anchor="middle" x="175.75" y="-79.5" font-family="Arial" font-size="10.00" fill="#1a1a1a">(+) unlabeled data points</text>
</g>
<!-- unknown.data_labels&#45;&gt;attr_2 -->
<g id="edge3" class="edge">
<title>unknown.data_labels&#45;&gt;attr_2</title>
<path fill="none" stroke="#aaaaaa" d="M63.81,-57.24C76.16,-60.11 90.87,-63.52 105.48,-66.92"/>
<polygon fill="#aaaaaa" stroke="#aaaaaa" points="104.73,-69.26 112.1,-68.45 105.83,-64.48 104.73,-69.26"/>
</g>
<!-- rel_2 -->
<g id="node13" class="node">
<title>rel_2</title>
<path fill="#f5b8b8" stroke="#d46a6a" stroke-width="1.2" d="M217.12,-36C217.12,-36 134.38,-36 134.38,-36 128.38,-36 122.38,-30 122.38,-24 122.38,-24 122.38,-12 122.38,-12 122.38,-6 128.38,0 134.38,0 134.38,0 217.12,0 217.12,0 223.12,0 229.12,-6 229.12,-12 229.12,-12 229.12,-24 229.12,-24 229.12,-30 223.12,-36 217.12,-36"/>
<text xml:space="preserve" text-anchor="middle" x="175.75" y="-14.5" font-family="Arial" font-size="10.00" fill="#8b0000">obscures meaning of</text>
</g>
<!-- unknown.data_labels&#45;&gt;rel_2 -->
<g id="edge10" class="edge">
<title>unknown.data_labels&#45;&gt;rel_2</title>
<path fill="none" stroke="#d46a6a" stroke-width="1.5" d="M63.81,-42.98C78.02,-39.78 95.37,-35.87 112.1,-32.11"/>
<polygon fill="#d46a6a" stroke="#d46a6a" stroke-width="1.5" points="112.44,-34.9 119.63,-30.41 111.21,-29.44 112.44,-34.9"/>
</g>
<!-- whole.visualization -->
<g id="node3" class="node">
<title>whole.visualization</title>
<path fill="#b8e6b8" stroke="#2c3e50" stroke-width="1.8" d="M346.25,-263C346.25,-263 300.25,-263 300.25,-263 294.25,-263 288.25,-257 288.25,-251 288.25,-251 288.25,-239 288.25,-239 288.25,-233 294.25,-227 300.25,-227 300.25,-227 346.25,-227 346.25,-227 352.25,-227 358.25,-233 358.25,-239 358.25,-239 358.25,-251 358.25,-251 358.25,-257 352.25,-263 346.25,-263"/>
<text xml:space="preserve" text-anchor="middle" x="323.25" y="-241.5" font-family="Arial" font-size="10.00" fill="#1a1a1a">visualization</text>
</g>
<!-- text.axis_label -->
<g id="node4" class="node">
<title>text.axis_label</title>
<path fill="#b8e6b8" stroke="#2c3e50" stroke-width="1.8" d="M48.25,-491C48.25,-491 15,-491 15,-491 9,-491 3,-485 3,-479 3,-479 3,-467 3,-467 3,-461 9,-455 15,-455 15,-455 48.25,-455 48.25,-455 54.25,-455 60.25,-461 60.25,-467 60.25,-467 60.25,-479 60.25,-479 60.25,-485 54.25,-491 48.25,-491"/>
<text xml:space="preserve" text-anchor="middle" x="31.62" y="-469.5" font-family="Arial" font-size="10.00" fill="#1a1a1a">axis label</text>
</g>
<!-- attr_3 -->
<g id="node9" class="node">
<title>attr_3</title>
<path fill="#c7b8e6" stroke="#7f8c8d" stroke-width="1.2" d="M220.12,-491C220.12,-491 131.38,-491 131.38,-491 125.38,-491 119.38,-485 119.38,-479 119.38,-479 119.38,-467 119.38,-467 119.38,-461 125.38,-455 131.38,-455 131.38,-455 220.12,-455 220.12,-455 226.12,-455 232.12,-461 232.12,-467 232.12,-467 232.12,-479 232.12,-479 232.12,-485 226.12,-491 220.12,-491"/>
<text xml:space="preserve" text-anchor="middle" x="175.75" y="-469.5" font-family="Arial" font-size="10.00" fill="#1a1a1a">(+) insufficient context</text>
</g>
<!-- text.axis_label&#45;&gt;attr_3 -->
<g id="edge4" class="edge">
<title>text.axis_label&#45;&gt;attr_3</title>
<path fill="none" stroke="#aaaaaa" d="M61.04,-473C75.32,-473 93.23,-473 110.59,-473"/>
<polygon fill="#aaaaaa" stroke="#aaaaaa" points="110.53,-475.45 117.53,-473 110.53,-470.55 110.53,-475.45"/>
</g>
<!-- unknown.color_pattern -->
<g id="node5" class="node">
<title>unknown.color_pattern</title>
<path fill="#b8e6b8" stroke="#2c3e50" stroke-width="1.8" d="M346.25,-101C346.25,-101 300.25,-101 300.25,-101 294.25,-101 288.25,-95 288.25,-89 288.25,-89 288.25,-77 288.25,-77 288.25,-71 294.25,-65 300.25,-65 300.25,-65 346.25,-65 346.25,-65 352.25,-65 358.25,-71 358.25,-77 358.25,-77 358.25,-89 358.25,-89 358.25,-95 352.25,-101 346.25,-101"/>
<text xml:space="preserve" text-anchor="middle" x="323.25" y="-79.5" font-family="Arial" font-size="10.00" fill="#1a1a1a">color pattern</text>
</g>
<!-- attr_4 -->
<g id="node10" class="node">
<title>attr_4</title>
<path fill="#c7b8e6" stroke="#7f8c8d" stroke-width="1.2" d="M528.25,-101C528.25,-101 413.25,-101 413.25,-101 407.25,-101 401.25,-95 401.25,-89 401.25,-89 401.25,-77 401.25,-77 401.25,-71 407.25,-65 413.25,-65 413.25,-65 528.25,-65 528.25,-65 534.25,-65 540.25,-71 540.25,-77 540.25,-77 540.25,-89 540.25,-89 540.25,-95 534.25,-101 528.25,-101"/>
<text xml:space="preserve" text-anchor="middle" x="470.75" y="-79.5" font-family="Arial" font-size="10.00" fill="#1a1a1a">(+) requires legend decoding</text>
</g>
<!-- unknown.color_pattern&#45;&gt;attr_4 -->
<g id="edge5" class="edge">
<title>unknown.color_pattern&#45;&gt;attr_4</title>
<path fill="none" stroke="#aaaaaa" d="M359.1,-83C369.25,-83 380.76,-83 392.43,-83"/>
<polygon fill="#aaaaaa" stroke="#aaaaaa" points="392.43,-85.45 399.43,-83 392.43,-80.55 392.43,-85.45"/>
</g>
<!-- rel_0&#45;&gt;whole.visualization -->
<g id="edge7" class="edge">
<title>rel_0&#45;&gt;whole.visualization</title>
<path fill="none" stroke="#d46a6a" stroke-width="1.5" d="M217.28,-268.81C235.95,-264.57 258.18,-259.53 277.36,-255.18"/>
<polygon fill="#d46a6a" stroke="#d46a6a" stroke-width="1.5" points="277.97,-257.91 285.15,-253.41 276.73,-252.45 277.97,-257.91"/>
</g>
<!-- rel_1&#45;&gt;whole.visualization -->
<g id="edge9" class="edge">
<title>rel_1&#45;&gt;whole.visualization</title>
<path fill="none" stroke="#d46a6a" stroke-width="1.5" d="M219.23,-222.34C237.63,-226.39 259.17,-231.13 277.79,-235.22"/>
<polygon fill="#d46a6a" stroke="#d46a6a" stroke-width="1.5" points="277.16,-237.95 285.58,-236.93 278.37,-232.48 277.16,-237.95"/>
</g>
<!-- rel_2&#45;&gt;unknown.color_pattern -->
<g id="edge11" class="edge">
<title>rel_2&#45;&gt;unknown.color_pattern</title>
<path fill="none" stroke="#d46a6a" stroke-width="1.5" d="M218.06,-36.45C236.97,-44.9 259.4,-54.92 278.6,-63.5"/>
<polygon fill="#d46a6a" stroke="#d46a6a" stroke-width="1.5" points="277.21,-65.95 285.66,-66.65 279.49,-60.83 277.21,-65.95"/>
</g>
<!-- rel_3&#45;&gt;unknown.color_pattern -->
<g id="edge13" class="edge">
<title>rel_3&#45;&gt;unknown.color_pattern</title>
<path fill="none" stroke="#d46a6a" stroke-width="1.5" d="M218.06,-129.55C236.97,-121.1 259.4,-111.08 278.6,-102.5"/>
<polygon fill="#d46a6a" stroke="#d46a6a" stroke-width="1.5" points="279.49,-105.17 285.66,-99.35 277.21,-100.05 279.49,-105.17"/>
</g>
</g>
</svg>
