<?xml version="1.0" encoding="UTF-8" standalone="no"?>
<!DOCTYPE svg PUBLIC "-//W3C//DTD SVG 1.1//EN"
 "http://www.w3.org/Graphics/SVG/1.1/DTD/svg11.dtd">
<!-- Generated by graphviz version 14.1.5 (20260411.2331)
 -->
<!-- Title: SciVisJ.728.14.png Pages: 1 -->
<svg width="1128pt" height="472pt"
 viewBox="0.00 0.00 1128.00 472.00" xmlns="http://www.w3.org/2000/svg" xmlns:xlink="http://www.w3.org/1999/xlink">
<g id="graph0" class="graph" transform="scale(1 1) rotate(0) translate(4 468.25)">
<title>SciVisJ.728.14.png</title>
<polygon fill="white" stroke="none" points="-4,4 -4,-468.25 1124.25,-468.25 1124.25,4 -4,4"/>
<text xml:space="preserve" text-anchor="start" x="499.38" y="-443.95" font-family="Arial" font-weight="bold" font-size="14.00">SciVisJ.728.14.png</text>
<text xml:space="preserve" text-anchor="start" x="517.75" y="-424" font-family="Arial" font-size="11.00">Grid &#160;| &#160;VC = 0.50</text>
<path fill="#b8e6b8" stroke="none" d="M350.75,-399C350.75,-399 358.75,-399 358.75,-399 361.75,-399 364.75,-402 364.75,-405 364.75,-405 364.75,-411 364.75,-411 364.75,-414 361.75,-417 358.75,-417 358.75,-417 350.75,-417 350.75,-417 347.75,-417 344.75,-414 344.75,-411 344.75,-411 344.75,-405 344.75,-405 344.75,-402 347.75,-399 350.75,-399"/>
<path fill="none" stroke="black" d="M350.75,-399C350.75,-399 358.75,-399 358.75,-399 361.75,-399 364.75,-402 364.75,-405 364.75,-405 364.75,-411 364.75,-411 364.75,-414 361.75,-417 358.75,-417 358.75,-417 350.75,-417 350.75,-417 347.75,-417 344.75,-414 344.75,-411 344.75,-411 344.75,-405 344.75,-405 344.75,-402 347.75,-399 350.75,-399"/>
<text xml:space="preserve" text-anchor="start" x="353.25" y="-404.25" font-family="Arial" font-size="10.00"> </text>
<text xml:space="preserve" text-anchor="start" x="368.75" y="-404.25" font-family="Arial" font-size="10.00">Object</text>
<path fill="#c7b8e6" stroke="none" d="M407.25,-399C407.25,-399 415.25,-399 415.25,-399 418.25,-399 421.25,-402 421.25,-405 421.25,-405 421.25,-411 421.25,-411 421.25,-414 418.25,-417 415.25,-417 415.25,-417 407.25,-417 407.25,-417 404.25,-417 401.25,-414 401.25,-411 401.25,-411 401.25,-405 401.25,-405 401.25,-402 404.25,-399 407.25,-399"/>
<path fill="none" stroke="black" d="M407.25,-399C407.25,-399 415.25,-399 415.25,-399 418.25,-399 421.25,-402 421.25,-405 421.25,-405 421.25,-411 421.25,-411 421.25,-414 418.25,-417 415.25,-417 415.25,-417 407.25,-417 407.25,-417 404.25,-417 401.25,-414 401.25,-411 401.25,-411 401.25,-405 401.25,-405 401.25,-402 404.25,-399 407.25,-399"/>
<text xml:space="preserve" text-anchor="start" x="409.75" y="-404.25" font-family="Arial" font-size="10.00"> </text>
<text xml:space="preserve" text-anchor="start" x="425.25" y="-404.25" font-family="Arial" font-size="10.00">Attribute</text>
<path fill="#f5b8b8" stroke="none" d="M472,-399C472,-399 480,-399 480,-399 483,-399 486,-402 486,-405 486,-405 486,-411 486,-411 486,-414 483,-417 480,-417 480,-417 472,-417 472,-417 469,-417 466,-414 466,-411 466,-411 466,-405 466,-405 466,-402 469,-399 472,-399"/>
<path fill="none" stroke="black" d="M472,-399C472,-399 480,-399 480,-399 483,-399 486,-402 486,-405 486,-405 486,-411 486,-411 486,-414 483,-417 480,-417 480,-417 472,-417 472,-417 469,-417 466,-414 466,-411 466,-411 466,-405 466,-405 466,-402 469,-399 472,-399"/>
<text xml:space="preserve" text-anchor="start" x="474.5" y="-404.25" font-family="Arial" font-size="10.00"> </text>
<text xml:space="preserve" text-anchor="start" x="490" y="-404.25" font-family="Arial" font-size="10.00">Relationship</text>
<text xml:space="preserve" text-anchor="start" x="550" y="-405.5" font-family="Arial" font-weight="bold" font-size="10.00">(+)</text>
<text xml:space="preserve" text-anchor="start" x="562" y="-405.5" font-family="Arial" font-size="10.00"> increases complexity</text>
<text xml:space="preserve" text-anchor="start" x="663.25" y="-405.5" font-family="Arial" font-weight="bold" font-size="10.00">(−)</text>
<text xml:space="preserve" text-anchor="start" x="675.25" y="-405.5" font-family="Arial" font-size="10.00"> decreases complexity</text>
<!-- unknown.color_scheme -->
<g id="node1" class="node">
<title>unknown.color_scheme</title>
<path fill="#b8e6b8" stroke="#2c3e50" stroke-width="1.8" d="M62.5,-328C62.5,-328 12,-328 12,-328 6,-328 0,-322 0,-316 0,-316 0,-304 0,-304 0,-298 6,-292 12,-292 12,-292 62.5,-292 62.5,-292 68.5,-292 74.5,-298 74.5,-304 74.5,-304 74.5,-316 74.5,-316 74.5,-322 68.5,-328 62.5,-328"/>
<text xml:space="preserve" text-anchor="middle" x="37.25" y="-306.5" font-family="Arial" font-size="10.00" fill="#1a1a1a">color scheme</text>
</g>
<!-- attr_0 -->
<g id="node7" class="node">
<title>attr_0</title>
<path fill="#c7b8e6" stroke="#7f8c8d" stroke-width="1.2" d="M236.25,-393C236.25,-393 152,-393 152,-393 146,-393 140,-387 140,-381 140,-381 140,-369 140,-369 140,-363 146,-357 152,-357 152,-357 236.25,-357 236.25,-357 242.25,-357 248.25,-363 248.25,-369 248.25,-369 248.25,-381 248.25,-381 248.25,-387 242.25,-393 236.25,-393"/>
<text xml:space="preserve" text-anchor="middle" x="194.12" y="-371.5" font-family="Arial" font-size="10.00" fill="#1a1a1a">(+) low color contrast</text>
</g>
<!-- unknown.color_scheme&#45;&gt;attr_0 -->
<g id="edge1" class="edge">
<title>unknown.color_scheme&#45;&gt;attr_0</title>
<path fill="none" stroke="#aaaaaa" d="M75.35,-325.57C95.03,-333.83 119.54,-344.12 141.1,-353.17"/>
<polygon fill="#aaaaaa" stroke="#aaaaaa" points="140.1,-355.4 147.5,-355.85 141.99,-350.88 140.1,-355.4"/>
</g>
<!-- attr_1 -->
<g id="node8" class="node">
<title>attr_1</title>
<path fill="#c7b8e6" stroke="#7f8c8d" stroke-width="1.2" d="M258.75,-328C258.75,-328 129.5,-328 129.5,-328 123.5,-328 117.5,-322 117.5,-316 117.5,-316 117.5,-304 117.5,-304 117.5,-298 123.5,-292 129.5,-292 129.5,-292 258.75,-292 258.75,-292 264.75,-292 270.75,-298 270.75,-304 270.75,-304 270.75,-316 270.75,-316 270.75,-322 264.75,-328 258.75,-328"/>
<text xml:space="preserve" text-anchor="middle" x="194.12" y="-306.5" font-family="Arial" font-size="10.00" fill="#1a1a1a">(+) similar colors hard to disting</text>
</g>
<!-- unknown.color_scheme&#45;&gt;attr_1 -->
<g id="edge2" class="edge">
<title>unknown.color_scheme&#45;&gt;attr_1</title>
<path fill="none" stroke="#aaaaaa" d="M75.35,-310C85.5,-310 96.94,-310 108.59,-310"/>
<polygon fill="#aaaaaa" stroke="#aaaaaa" points="108.59,-312.45 115.59,-310 108.59,-307.55 108.59,-312.45"/>
</g>
<!-- rel_0 -->
<g id="node14" class="node">
<title>rel_0</title>
<path fill="#f5b8b8" stroke="#d46a6a" stroke-width="1.2" d="M210,-263C210,-263 178.25,-263 178.25,-263 172.25,-263 166.25,-257 166.25,-251 166.25,-251 166.25,-239 166.25,-239 166.25,-233 172.25,-227 178.25,-227 178.25,-227 210,-227 210,-227 216,-227 222,-233 222,-239 222,-239 222,-251 222,-251 222,-257 216,-263 210,-263"/>
<text xml:space="preserve" text-anchor="middle" x="194.12" y="-241.5" font-family="Arial" font-size="10.00" fill="#8b0000">obscures</text>
</g>
<!-- unknown.color_scheme&#45;&gt;rel_0 -->
<g id="edge8" class="edge">
<title>unknown.color_scheme&#45;&gt;rel_0</title>
<path fill="none" stroke="#d46a6a" stroke-width="1.5" d="M75.35,-294.43C100,-284.09 132.21,-270.57 156.72,-260.28"/>
<polygon fill="#d46a6a" stroke="#d46a6a" stroke-width="1.5" points="157.65,-262.93 163.94,-257.25 155.48,-257.76 157.65,-262.93"/>
</g>
<!-- furniture.legend -->
<g id="node2" class="node">
<title>furniture.legend</title>
<path fill="#b8e6b8" stroke="#2c3e50" stroke-width="1.8" d="M52.25,-166C52.25,-166 22.25,-166 22.25,-166 16.25,-166 10.25,-160 10.25,-154 10.25,-154 10.25,-142 10.25,-142 10.25,-136 16.25,-130 22.25,-130 22.25,-130 52.25,-130 52.25,-130 58.25,-130 64.25,-136 64.25,-142 64.25,-142 64.25,-154 64.25,-154 64.25,-160 58.25,-166 52.25,-166"/>
<text xml:space="preserve" text-anchor="middle" x="37.25" y="-144.5" font-family="Arial" font-size="10.00" fill="#1a1a1a">legend</text>
</g>
<!-- attr_2 -->
<g id="node9" class="node">
<title>attr_2</title>
<path fill="#c7b8e6" stroke="#7f8c8d" stroke-width="1.2" d="M245.25,-198C245.25,-198 143,-198 143,-198 137,-198 131,-192 131,-186 131,-186 131,-174 131,-174 131,-168 137,-162 143,-162 143,-162 245.25,-162 245.25,-162 251.25,-162 257.25,-168 257.25,-174 257.25,-174 257.25,-186 257.25,-186 257.25,-192 251.25,-198 245.25,-198"/>
<text xml:space="preserve" text-anchor="middle" x="194.12" y="-176.5" font-family="Arial" font-size="10.00" fill="#1a1a1a">(−) clear and concise key</text>
</g>
<!-- furniture.legend&#45;&gt;attr_2 -->
<g id="edge3" class="edge">
<title>furniture.legend&#45;&gt;attr_2</title>
<path fill="none" stroke="#aaaaaa" d="M64.87,-153.5C80.83,-156.8 101.94,-161.16 122.42,-165.39"/>
<polygon fill="#aaaaaa" stroke="#aaaaaa" points="121.7,-167.74 129.05,-166.76 122.69,-162.94 121.7,-167.74"/>
</g>
<!-- rel_1 -->
<g id="node15" class="node">
<title>rel_1</title>
<path fill="#f5b8b8" stroke="#d46a6a" stroke-width="1.2" d="M238.12,-133C238.12,-133 150.12,-133 150.12,-133 144.12,-133 138.12,-127 138.12,-121 138.12,-121 138.12,-109 138.12,-109 138.12,-103 144.12,-97 150.12,-97 150.12,-97 238.12,-97 238.12,-97 244.12,-97 250.12,-103 250.12,-109 250.12,-109 250.12,-121 250.12,-121 250.12,-127 244.12,-133 238.12,-133"/>
<text xml:space="preserve" text-anchor="middle" x="194.12" y="-111.5" font-family="Arial" font-size="10.00" fill="#8b0000">reduces complexity of</text>
</g>
<!-- furniture.legend&#45;&gt;rel_1 -->
<g id="edge10" class="edge">
<title>furniture.legend&#45;&gt;rel_1</title>
<path fill="none" stroke="#d46a6a" stroke-width="1.5" d="M64.87,-142.33C82.2,-138.64 105.6,-133.65 127.67,-128.95"/>
<polygon fill="#d46a6a" stroke="#d46a6a" stroke-width="1.5" points="128.23,-131.69 135.47,-127.29 127.06,-126.21 128.23,-131.69"/>
</g>
<!-- unknown.text_content -->
<g id="node3" class="node">
<title>unknown.text_content</title>
<path fill="#b8e6b8" stroke="#2c3e50" stroke-width="1.8" d="M378.12,-198C378.12,-198 334.38,-198 334.38,-198 328.38,-198 322.38,-192 322.38,-186 322.38,-186 322.38,-174 322.38,-174 322.38,-168 328.38,-162 334.38,-162 334.38,-162 378.12,-162 378.12,-162 384.12,-162 390.12,-168 390.12,-174 390.12,-174 390.12,-186 390.12,-186 390.12,-192 384.12,-198 378.12,-198"/>
<text xml:space="preserve" text-anchor="middle" x="356.25" y="-176.5" font-family="Arial" font-size="10.00" fill="#1a1a1a">text content</text>
</g>
<!-- attr_3 -->
<g id="node10" class="node">
<title>attr_3</title>
<path fill="#c7b8e6" stroke="#7f8c8d" stroke-width="1.2" d="M559.75,-231C559.75,-231 453.75,-231 453.75,-231 447.75,-231 441.75,-225 441.75,-219 441.75,-219 441.75,-207 441.75,-207 441.75,-201 447.75,-195 453.75,-195 453.75,-195 559.75,-195 559.75,-195 565.75,-195 571.75,-201 571.75,-207 571.75,-207 571.75,-219 571.75,-219 571.75,-225 565.75,-231 559.75,-231"/>
<text xml:space="preserve" text-anchor="middle" x="506.75" y="-209.5" font-family="Arial" font-size="10.00" fill="#1a1a1a">(+) excessive text amount</text>
</g>
<!-- unknown.text_content&#45;&gt;attr_3 -->
<g id="edge4" class="edge">
<title>unknown.text_content&#45;&gt;attr_3</title>
<path fill="none" stroke="#aaaaaa" d="M390.95,-187.49C403.51,-190.28 418.31,-193.57 433.03,-196.84"/>
<polygon fill="#aaaaaa" stroke="#aaaaaa" points="432.34,-199.2 439.7,-198.32 433.4,-194.41 432.34,-199.2"/>
</g>
<!-- rel_2 -->
<g id="node16" class="node">
<title>rel_2</title>
<path fill="#f5b8b8" stroke="#d46a6a" stroke-width="1.2" d="M544,-166C544,-166 469.5,-166 469.5,-166 463.5,-166 457.5,-160 457.5,-154 457.5,-154 457.5,-142 457.5,-142 457.5,-136 463.5,-130 469.5,-130 469.5,-130 544,-130 544,-130 550,-130 556,-136 556,-142 556,-142 556,-154 556,-154 556,-160 550,-166 544,-166"/>
<text xml:space="preserve" text-anchor="middle" x="506.75" y="-144.5" font-family="Arial" font-size="10.00" fill="#8b0000">increases clutter in</text>
</g>
<!-- unknown.text_content&#45;&gt;rel_2 -->
<g id="edge12" class="edge">
<title>unknown.text_content&#45;&gt;rel_2</title>
<path fill="none" stroke="#d46a6a" stroke-width="1.5" d="M390.95,-172.74C407.56,-169.16 428.08,-164.74 447.16,-160.63"/>
<polygon fill="#d46a6a" stroke="#d46a6a" stroke-width="1.5" points="447.53,-163.41 454.76,-158.99 446.35,-157.94 447.53,-163.41"/>
</g>
<!-- structure.layout -->
<g id="node4" class="node">
<title>structure.layout</title>
<path fill="#b8e6b8" stroke="#2c3e50" stroke-width="1.8" d="M656.75,-101C656.75,-101 626.75,-101 626.75,-101 620.75,-101 614.75,-95 614.75,-89 614.75,-89 614.75,-77 614.75,-77 614.75,-71 620.75,-65 626.75,-65 626.75,-65 656.75,-65 656.75,-65 662.75,-65 668.75,-71 668.75,-77 668.75,-77 668.75,-89 668.75,-89 668.75,-95 662.75,-101 656.75,-101"/>
<text xml:space="preserve" text-anchor="middle" x="641.75" y="-79.5" font-family="Arial" font-size="10.00" fill="#1a1a1a">layout</text>
</g>
<!-- attr_4 -->
<g id="node11" class="node">
<title>attr_4</title>
<path fill="#c7b8e6" stroke="#7f8c8d" stroke-width="1.2" d="M826.75,-134C826.75,-134 723.75,-134 723.75,-134 717.75,-134 711.75,-128 711.75,-122 711.75,-122 711.75,-110 711.75,-110 711.75,-104 717.75,-98 723.75,-98 723.75,-98 826.75,-98 826.75,-98 832.75,-98 838.75,-104 838.75,-110 838.75,-110 838.75,-122 838.75,-122 838.75,-128 832.75,-134 826.75,-134"/>
<text xml:space="preserve" text-anchor="middle" x="775.25" y="-112.5" font-family="Arial" font-size="10.00" fill="#1a1a1a">(+) cramped dense layout</text>
</g>
<!-- structure.layout&#45;&gt;attr_4 -->
<g id="edge5" class="edge">
<title>structure.layout&#45;&gt;attr_4</title>
<path fill="none" stroke="#aaaaaa" d="M669.36,-89.68C679.33,-92.18 691.2,-95.16 703.3,-98.19"/>
<polygon fill="#aaaaaa" stroke="#aaaaaa" points="702.41,-100.5 709.79,-99.82 703.6,-95.74 702.41,-100.5"/>
</g>
<!-- rel_4 -->
<g id="node18" class="node">
<title>rel_4</title>
<path fill="#f5b8b8" stroke="#d46a6a" stroke-width="1.2" d="M816.25,-69C816.25,-69 734.25,-69 734.25,-69 728.25,-69 722.25,-63 722.25,-57 722.25,-57 722.25,-45 722.25,-45 722.25,-39 728.25,-33 734.25,-33 734.25,-33 816.25,-33 816.25,-33 822.25,-33 828.25,-39 828.25,-45 828.25,-45 828.25,-57 828.25,-57 828.25,-63 822.25,-69 816.25,-69"/>
<text xml:space="preserve" text-anchor="middle" x="775.25" y="-47.5" font-family="Arial" font-size="10.00" fill="#8b0000">hinders readability of</text>
</g>
<!-- structure.layout&#45;&gt;rel_4 -->
<g id="edge16" class="edge">
<title>structure.layout&#45;&gt;rel_4</title>
<path fill="none" stroke="#d46a6a" stroke-width="1.5" d="M669.36,-76.52C681.74,-73.51 697.02,-69.79 712.05,-66.14"/>
<polygon fill="#d46a6a" stroke="#d46a6a" stroke-width="1.5" points="712.54,-68.9 719.66,-64.29 711.22,-63.46 712.54,-68.9"/>
</g>
<!-- text.axis_label -->
<g id="node5" class="node">
<title>text.axis_label</title>
<path fill="#b8e6b8" stroke="#2c3e50" stroke-width="1.8" d="M927,-69C927,-69 893.75,-69 893.75,-69 887.75,-69 881.75,-63 881.75,-57 881.75,-57 881.75,-45 881.75,-45 881.75,-39 887.75,-33 893.75,-33 893.75,-33 927,-33 927,-33 933,-33 939,-39 939,-45 939,-45 939,-57 939,-57 939,-63 933,-69 927,-69"/>
<text xml:space="preserve" text-anchor="middle" x="910.38" y="-47.5" font-family="Arial" font-size="10.00" fill="#1a1a1a">axis label</text>
</g>
<!-- attr_5 -->
<g id="node12" class="node">
<title>attr_5</title>
<path fill="#c7b8e6" stroke="#7f8c8d" stroke-width="1.2" d="M1108.25,-69C1108.25,-69 994,-69 994,-69 988,-69 982,-63 982,-57 982,-57 982,-45 982,-45 982,-39 988,-33 994,-33 994,-33 1108.25,-33 1108.25,-33 1114.25,-33 1120.25,-39 1120.25,-45 1120.25,-45 1120.25,-57 1120.25,-57 1120.25,-63 1114.25,-69 1108.25,-69"/>
<text xml:space="preserve" text-anchor="middle" x="1051.12" y="-47.5" font-family="Arial" font-size="10.00" fill="#1a1a1a">(+) difficult font arrangement</text>
</g>
<!-- text.axis_label&#45;&gt;attr_5 -->
<g id="edge6" class="edge">
<title>text.axis_label&#45;&gt;attr_5</title>
<path fill="none" stroke="#aaaaaa" d="M939.79,-51C949.71,-51 961.37,-51 973.33,-51"/>
<polygon fill="#aaaaaa" stroke="#aaaaaa" points="973.12,-53.45 980.12,-51 973.12,-48.55 973.12,-53.45"/>
</g>
<!-- unknown.explanation_text -->
<g id="node6" class="node">
<title>unknown.explanation_text</title>
<path fill="#b8e6b8" stroke="#2c3e50" stroke-width="1.8" d="M386.75,-69C386.75,-69 325.75,-69 325.75,-69 319.75,-69 313.75,-63 313.75,-57 313.75,-57 313.75,-45 313.75,-45 313.75,-39 319.75,-33 325.75,-33 325.75,-33 386.75,-33 386.75,-33 392.75,-33 398.75,-39 398.75,-45 398.75,-45 398.75,-57 398.75,-57 398.75,-63 392.75,-69 386.75,-69"/>
<text xml:space="preserve" text-anchor="middle" x="356.25" y="-47.5" font-family="Arial" font-size="10.00" fill="#1a1a1a">explanation text</text>
</g>
<!-- attr_6 -->
<g id="node13" class="node">
<title>attr_6</title>
<path fill="#c7b8e6" stroke="#7f8c8d" stroke-width="1.2" d="M558.25,-101C558.25,-101 455.25,-101 455.25,-101 449.25,-101 443.25,-95 443.25,-89 443.25,-89 443.25,-77 443.25,-77 443.25,-71 449.25,-65 455.25,-65 455.25,-65 558.25,-65 558.25,-65 564.25,-65 570.25,-71 570.25,-77 570.25,-77 570.25,-89 570.25,-89 570.25,-95 564.25,-101 558.25,-101"/>
<text xml:space="preserve" text-anchor="middle" x="506.75" y="-79.5" font-family="Arial" font-size="10.00" fill="#1a1a1a">(+) requires much reading</text>
</g>
<!-- unknown.explanation_text&#45;&gt;attr_6 -->
<g id="edge7" class="edge">
<title>unknown.explanation_text&#45;&gt;attr_6</title>
<path fill="none" stroke="#aaaaaa" d="M399.41,-60.08C410.35,-62.44 422.43,-65.05 434.42,-67.63"/>
<polygon fill="#aaaaaa" stroke="#aaaaaa" points="433.85,-70.01 441.21,-69.09 434.88,-65.22 433.85,-70.01"/>
</g>
<!-- rel_3 -->
<g id="node17" class="node">
<title>rel_3</title>
<path fill="#f5b8b8" stroke="#d46a6a" stroke-width="1.2" d="M542.12,-36C542.12,-36 471.38,-36 471.38,-36 465.38,-36 459.38,-30 459.38,-24 459.38,-24 459.38,-12 459.38,-12 459.38,-6 465.38,0 471.38,0 471.38,0 542.12,0 542.12,0 548.12,0 554.12,-6 554.12,-12 554.12,-12 554.12,-24 554.12,-24 554.12,-30 548.12,-36 542.12,-36"/>
<text xml:space="preserve" text-anchor="middle" x="506.75" y="-14.5" font-family="Arial" font-size="10.00" fill="#8b0000">demands effort for</text>
</g>
<!-- unknown.explanation_text&#45;&gt;rel_3 -->
<g id="edge14" class="edge">
<title>unknown.explanation_text&#45;&gt;rel_3</title>
<path fill="none" stroke="#d46a6a" stroke-width="1.5" d="M399.41,-41.63C414.89,-38.19 432.68,-34.24 449.22,-30.56"/>
<polygon fill="#d46a6a" stroke="#d46a6a" stroke-width="1.5" points="449.37,-33.4 456.57,-28.93 448.16,-27.93 449.37,-33.4"/>
</g>
<!-- rel_0&#45;&gt;unknown.text_content -->
<g id="edge9" class="edge">
<title>rel_0&#45;&gt;unknown.text_content</title>
<path fill="none" stroke="#d46a6a" stroke-width="1.5" d="M222.29,-233.97C246.9,-223.98 283.58,-209.09 312.18,-197.48"/>
<polygon fill="#d46a6a" stroke="#d46a6a" stroke-width="1.5" points="313.08,-200.14 319.44,-194.54 310.98,-194.95 313.08,-200.14"/>
</g>
<!-- rel_1&#45;&gt;unknown.text_content -->
<g id="edge11" class="edge">
<title>rel_1&#45;&gt;unknown.text_content</title>
<path fill="none" stroke="#d46a6a" stroke-width="1.5" d="M240.58,-133.45C263.05,-142.57 290.03,-153.52 312.17,-162.51"/>
<polygon fill="#d46a6a" stroke="#d46a6a" stroke-width="1.5" points="311.08,-165.09 319.55,-165.51 313.19,-159.9 311.08,-165.09"/>
</g>
<!-- rel_2&#45;&gt;structure.layout -->
<g id="edge13" class="edge">
<title>rel_2&#45;&gt;structure.layout</title>
<path fill="none" stroke="#d46a6a" stroke-width="1.5" d="M545.51,-129.55C564.08,-120.47 586.36,-109.58 604.7,-100.62"/>
<polygon fill="#d46a6a" stroke="#d46a6a" stroke-width="1.5" points="605.89,-103.15 611.85,-97.13 603.43,-98.12 605.89,-103.15"/>
</g>
<!-- rel_3&#45;&gt;structure.layout -->
<g id="edge15" class="edge">
<title>rel_3&#45;&gt;structure.layout</title>
<path fill="none" stroke="#d46a6a" stroke-width="1.5" d="M545.51,-36.45C564.08,-45.53 586.36,-56.42 604.7,-65.38"/>
<polygon fill="#d46a6a" stroke="#d46a6a" stroke-width="1.5" points="603.43,-67.88 611.85,-68.87 605.89,-62.85 603.43,-67.88"/>
</g>
<!-- rel_4&#45;&gt;text.axis_label -->
<g id="edge17" class="edge">
<title>rel_4&#45;&gt;text.axis_label</title>
<path fill="none" stroke="#d46a6a" stroke-width="1.5" d="M828.48,-51C842.62,-51 857.67,-51 870.9,-51"/>
<polygon fill="#d46a6a" stroke="#d46a6a" stroke-width="1.5" points="870.8,-53.8 878.8,-51 870.8,-48.2 870.8,-53.8"/>
</g>
</g>
</svg>
