<?xml version="1.0" encoding="UTF-8" standalone="no"?>
<!DOCTYPE svg PUBLIC "-//W3C//DTD SVG 1.1//EN"
 "http://www.w3.org/Graphics/SVG/1.1/DTD/svg11.dtd">
<!-- Generated by graphviz version 14.1.5 (20260411.2331)
 -->
<!-- Title: SciVisJ.797.13(4).png Pages: 1 -->
<svg width="1408pt" height="342pt"
 viewBox="0.00 0.00 1408.00 342.00" xmlns="http://www.w3.org/2000/svg" xmlns:xlink="http://www.w3.org/1999/xlink">
<g id="graph0" class="graph" transform="scale(1 1) rotate(0) translate(4 338.25)">
<title>SciVisJ.797.13(4).png</title>
<polygon fill="white" stroke="none" points="-4,4 -4,-338.25 1404,-338.25 1404,4 -4,4"/>
<text xml:space="preserve" text-anchor="start" x="631" y="-313.95" font-family="Arial" font-weight="bold" font-size="14.00">SciVisJ.797.13(4).png</text>
<text xml:space="preserve" text-anchor="start" x="653.88" y="-294" font-family="Arial" font-size="11.00">Glyph &#160;| &#160;VC = 0.53</text>
<path fill="#b8e6b8" stroke="none" d="M490.62,-269C490.62,-269 498.62,-269 498.62,-269 501.62,-269 504.62,-272 504.62,-275 504.62,-275 504.62,-281 504.62,-281 504.62,-284 501.62,-287 498.62,-287 498.62,-287 490.62,-287 490.62,-287 487.62,-287 484.62,-284 484.62,-281 484.62,-281 484.62,-275 484.62,-275 484.62,-272 487.62,-269 490.62,-269"/>
<path fill="none" stroke="black" d="M490.62,-269C490.62,-269 498.62,-269 498.62,-269 501.62,-269 504.62,-272 504.62,-275 504.62,-275 504.62,-281 504.62,-281 504.62,-284 501.62,-287 498.62,-287 498.62,-287 490.62,-287 490.62,-287 487.62,-287 484.62,-284 484.62,-281 484.62,-281 484.62,-275 484.62,-275 484.62,-272 487.62,-269 490.62,-269"/>
<text xml:space="preserve" text-anchor="start" x="493.12" y="-274.25" font-family="Arial" font-size="10.00"> </text>
<text xml:space="preserve" text-anchor="start" x="508.62" y="-274.25" font-family="Arial" font-size="10.00">Object</text>
<path fill="#c7b8e6" stroke="none" d="M547.12,-269C547.12,-269 555.12,-269 555.12,-269 558.12,-269 561.12,-272 561.12,-275 561.12,-275 561.12,-281 561.12,-281 561.12,-284 558.12,-287 555.12,-287 555.12,-287 547.12,-287 547.12,-287 544.12,-287 541.12,-284 541.12,-281 541.12,-281 541.12,-275 541.12,-275 541.12,-272 544.12,-269 547.12,-269"/>
<path fill="none" stroke="black" d="M547.12,-269C547.12,-269 555.12,-269 555.12,-269 558.12,-269 561.12,-272 561.12,-275 561.12,-275 561.12,-281 561.12,-281 561.12,-284 558.12,-287 555.12,-287 555.12,-287 547.12,-287 547.12,-287 544.12,-287 541.12,-284 541.12,-281 541.12,-281 541.12,-275 541.12,-275 541.12,-272 544.12,-269 547.12,-269"/>
<text xml:space="preserve" text-anchor="start" x="549.62" y="-274.25" font-family="Arial" font-size="10.00"> </text>
<text xml:space="preserve" text-anchor="start" x="565.12" y="-274.25" font-family="Arial" font-size="10.00">Attribute</text>
<path fill="#f5b8b8" stroke="none" d="M611.88,-269C611.88,-269 619.88,-269 619.88,-269 622.88,-269 625.88,-272 625.88,-275 625.88,-275 625.88,-281 625.88,-281 625.88,-284 622.88,-287 619.88,-287 619.88,-287 611.88,-287 611.88,-287 608.88,-287 605.88,-284 605.88,-281 605.88,-281 605.88,-275 605.88,-275 605.88,-272 608.88,-269 611.88,-269"/>
<path fill="none" stroke="black" d="M611.88,-269C611.88,-269 619.88,-269 619.88,-269 622.88,-269 625.88,-272 625.88,-275 625.88,-275 625.88,-281 625.88,-281 625.88,-284 622.88,-287 619.88,-287 619.88,-287 611.88,-287 611.88,-287 608.88,-287 605.88,-284 605.88,-281 605.88,-281 605.88,-275 605.88,-275 605.88,-272 608.88,-269 611.88,-269"/>
<text xml:space="preserve" text-anchor="start" x="614.38" y="-274.25" font-family="Arial" font-size="10.00"> </text>
<text xml:space="preserve" text-anchor="start" x="629.88" y="-274.25" font-family="Arial" font-size="10.00">Relationship</text>
<text xml:space="preserve" text-anchor="start" x="689.88" y="-275.5" font-family="Arial" font-weight="bold" font-size="10.00">(+)</text>
<text xml:space="preserve" text-anchor="start" x="701.88" y="-275.5" font-family="Arial" font-size="10.00"> increases complexity</text>
<text xml:space="preserve" text-anchor="start" x="803.12" y="-275.5" font-family="Arial" font-weight="bold" font-size="10.00">(−)</text>
<text xml:space="preserve" text-anchor="start" x="815.12" y="-275.5" font-family="Arial" font-size="10.00"> decreases complexity</text>
<!-- unknown.glyph -->
<g id="node1" class="node">
<title>unknown.glyph</title>
<path fill="#b8e6b8" stroke="#2c3e50" stroke-width="1.8" d="M263.5,-198C263.5,-198 233.5,-198 233.5,-198 227.5,-198 221.5,-192 221.5,-186 221.5,-186 221.5,-174 221.5,-174 221.5,-168 227.5,-162 233.5,-162 233.5,-162 263.5,-162 263.5,-162 269.5,-162 275.5,-168 275.5,-174 275.5,-174 275.5,-186 275.5,-186 275.5,-192 269.5,-198 263.5,-198"/>
<text xml:space="preserve" text-anchor="middle" x="248.5" y="-176.5" font-family="Arial" font-size="10.00" fill="#1a1a1a">glyph</text>
</g>
<!-- attr_0 -->
<g id="node6" class="node">
<title>attr_0</title>
<path fill="#c7b8e6" stroke="#7f8c8d" stroke-width="1.2" d="M443.25,-263C443.25,-263 345.5,-263 345.5,-263 339.5,-263 333.5,-257 333.5,-251 333.5,-251 333.5,-239 333.5,-239 333.5,-233 339.5,-227 345.5,-227 345.5,-227 443.25,-227 443.25,-227 449.25,-227 455.25,-233 455.25,-239 455.25,-239 455.25,-251 455.25,-251 455.25,-257 449.25,-263 443.25,-263"/>
<text xml:space="preserve" text-anchor="middle" x="394.38" y="-241.5" font-family="Arial" font-size="10.00" fill="#1a1a1a">(+) unfamiliar glyph form</text>
</g>
<!-- unknown.glyph&#45;&gt;attr_0 -->
<g id="edge1" class="edge">
<title>unknown.glyph&#45;&gt;attr_0</title>
<path fill="none" stroke="#aaaaaa" d="M276.25,-193.12C288.98,-199.28 304.47,-206.65 318.5,-213 325.94,-216.37 333.83,-219.84 341.59,-223.21"/>
<polygon fill="#aaaaaa" stroke="#aaaaaa" points="340.5,-225.41 347.9,-225.93 342.44,-220.91 340.5,-225.41"/>
</g>
<!-- attr_1 -->
<g id="node7" class="node">
<title>attr_1</title>
<path fill="#c7b8e6" stroke="#7f8c8d" stroke-width="1.2" d="M458.25,-198C458.25,-198 330.5,-198 330.5,-198 324.5,-198 318.5,-192 318.5,-186 318.5,-186 318.5,-174 318.5,-174 318.5,-168 324.5,-162 330.5,-162 330.5,-162 458.25,-162 458.25,-162 464.25,-162 470.25,-168 470.25,-174 470.25,-174 470.25,-186 470.25,-186 470.25,-192 464.25,-198 458.25,-198"/>
<text xml:space="preserve" text-anchor="middle" x="394.38" y="-176.5" font-family="Arial" font-size="10.00" fill="#1a1a1a">(+) non standard representation</text>
</g>
<!-- unknown.glyph&#45;&gt;attr_1 -->
<g id="edge2" class="edge">
<title>unknown.glyph&#45;&gt;attr_1</title>
<path fill="none" stroke="#aaaaaa" d="M276.22,-180C286,-180 297.64,-180 309.74,-180"/>
<polygon fill="#aaaaaa" stroke="#aaaaaa" points="309.65,-182.45 316.65,-180 309.65,-177.55 309.65,-182.45"/>
</g>
<!-- rel_0 -->
<g id="node12" class="node">
<title>rel_0</title>
<path fill="#f5b8b8" stroke="#d46a6a" stroke-width="1.2" d="M437.25,-133C437.25,-133 351.5,-133 351.5,-133 345.5,-133 339.5,-127 339.5,-121 339.5,-121 339.5,-109 339.5,-109 339.5,-103 345.5,-97 351.5,-97 351.5,-97 437.25,-97 437.25,-97 443.25,-97 449.25,-103 449.25,-109 449.25,-109 449.25,-121 449.25,-121 449.25,-127 443.25,-133 437.25,-133"/>
<text xml:space="preserve" text-anchor="middle" x="394.38" y="-111.5" font-family="Arial" font-size="10.00" fill="#8b0000">lacks familiar referent</text>
</g>
<!-- unknown.glyph&#45;&gt;rel_0 -->
<g id="edge7" class="edge">
<title>unknown.glyph&#45;&gt;rel_0</title>
<path fill="none" stroke="#d46a6a" stroke-width="1.5" d="M276.25,-166.88C288.98,-160.72 304.47,-153.35 318.5,-147 325.47,-143.84 332.85,-140.59 340.14,-137.43"/>
<polygon fill="#d46a6a" stroke="#d46a6a" stroke-width="1.5" points="340.97,-140.11 347.21,-134.37 338.75,-134.97 340.97,-140.11"/>
</g>
<!-- unknown.visual_encoding -->
<g id="node2" class="node">
<title>unknown.visual_encoding</title>
<path fill="#b8e6b8" stroke="#2c3e50" stroke-width="1.8" d="M918,-101C918,-101 858.5,-101 858.5,-101 852.5,-101 846.5,-95 846.5,-89 846.5,-89 846.5,-77 846.5,-77 846.5,-71 852.5,-65 858.5,-65 858.5,-65 918,-65 918,-65 924,-65 930,-71 930,-77 930,-77 930,-89 930,-89 930,-95 924,-101 918,-101"/>
<text xml:space="preserve" text-anchor="middle" x="888.25" y="-79.5" font-family="Arial" font-size="10.00" fill="#1a1a1a">visual encoding</text>
</g>
<!-- attr_2 -->
<g id="node8" class="node">
<title>attr_2</title>
<path fill="#c7b8e6" stroke="#7f8c8d" stroke-width="1.2" d="M1106,-166C1106,-166 993.25,-166 993.25,-166 987.25,-166 981.25,-160 981.25,-154 981.25,-154 981.25,-142 981.25,-142 981.25,-136 987.25,-130 993.25,-130 993.25,-130 1106,-130 1106,-130 1112,-130 1118,-136 1118,-142 1118,-142 1118,-154 1118,-154 1118,-160 1112,-166 1106,-166"/>
<text xml:space="preserve" text-anchor="middle" x="1049.62" y="-144.5" font-family="Arial" font-size="10.00" fill="#1a1a1a">(+) uninterpretable encoding</text>
</g>
<!-- unknown.visual_encoding&#45;&gt;attr_2 -->
<g id="edge3" class="edge">
<title>unknown.visual_encoding&#45;&gt;attr_2</title>
<path fill="none" stroke="#aaaaaa" d="M930.71,-99.91C950.5,-107.98 974.43,-117.74 995.54,-126.35"/>
<polygon fill="#aaaaaa" stroke="#aaaaaa" points="994.36,-128.52 1001.77,-128.89 996.21,-123.98 994.36,-128.52"/>
</g>
<!-- attr_5 -->
<g id="node9" class="node">
<title>attr_5</title>
<path fill="#c7b8e6" stroke="#7f8c8d" stroke-width="1.2" d="M1114.25,-101C1114.25,-101 985,-101 985,-101 979,-101 973,-95 973,-89 973,-89 973,-77 973,-77 973,-71 979,-65 985,-65 985,-65 1114.25,-65 1114.25,-65 1120.25,-65 1126.25,-71 1126.25,-77 1126.25,-77 1126.25,-89 1126.25,-89 1126.25,-95 1120.25,-101 1114.25,-101"/>
<text xml:space="preserve" text-anchor="middle" x="1049.62" y="-79.5" font-family="Arial" font-size="10.00" fill="#1a1a1a">(+) high cognitive effort required</text>
</g>
<!-- unknown.visual_encoding&#45;&gt;attr_5 -->
<g id="edge4" class="edge">
<title>unknown.visual_encoding&#45;&gt;attr_5</title>
<path fill="none" stroke="#aaaaaa" d="M930.71,-83C941.02,-83 952.46,-83 964.04,-83"/>
<polygon fill="#aaaaaa" stroke="#aaaaaa" points="963.96,-85.45 970.96,-83 963.96,-80.55 963.96,-85.45"/>
</g>
<!-- rel_1 -->
<g id="node13" class="node">
<title>rel_1</title>
<path fill="#f5b8b8" stroke="#d46a6a" stroke-width="1.2" d="M1065.5,-36C1065.5,-36 1033.75,-36 1033.75,-36 1027.75,-36 1021.75,-30 1021.75,-24 1021.75,-24 1021.75,-12 1021.75,-12 1021.75,-6 1027.75,0 1033.75,0 1033.75,0 1065.5,0 1065.5,0 1071.5,0 1077.5,-6 1077.5,-12 1077.5,-12 1077.5,-24 1077.5,-24 1077.5,-30 1071.5,-36 1065.5,-36"/>
<text xml:space="preserve" text-anchor="middle" x="1049.62" y="-14.5" font-family="Arial" font-size="10.00" fill="#8b0000">obscures</text>
</g>
<!-- unknown.visual_encoding&#45;&gt;rel_1 -->
<g id="edge9" class="edge">
<title>unknown.visual_encoding&#45;&gt;rel_1</title>
<path fill="none" stroke="#d46a6a" stroke-width="1.5" d="M930.71,-66.09C955.95,-55.8 987.9,-42.77 1012.17,-32.87"/>
<polygon fill="#d46a6a" stroke="#d46a6a" stroke-width="1.5" points="1012.94,-35.58 1019.29,-29.96 1010.83,-30.39 1012.94,-35.58"/>
</g>
<!-- furniture.legend -->
<g id="node3" class="node">
<title>furniture.legend</title>
<path fill="#b8e6b8" stroke="#2c3e50" stroke-width="1.8" d="M1211.25,-36C1211.25,-36 1181.25,-36 1181.25,-36 1175.25,-36 1169.25,-30 1169.25,-24 1169.25,-24 1169.25,-12 1169.25,-12 1169.25,-6 1175.25,0 1181.25,0 1181.25,0 1211.25,0 1211.25,0 1217.25,0 1223.25,-6 1223.25,-12 1223.25,-12 1223.25,-24 1223.25,-24 1223.25,-30 1217.25,-36 1211.25,-36"/>
<text xml:space="preserve" text-anchor="middle" x="1196.25" y="-14.5" font-family="Arial" font-size="10.00" fill="#1a1a1a">legend</text>
</g>
<!-- attr_4 -->
<g id="node10" class="node">
<title>attr_4</title>
<path fill="#c7b8e6" stroke="#7f8c8d" stroke-width="1.2" d="M1388,-36C1388,-36 1278.25,-36 1278.25,-36 1272.25,-36 1266.25,-30 1266.25,-24 1266.25,-24 1266.25,-12 1266.25,-12 1266.25,-6 1272.25,0 1278.25,0 1278.25,0 1388,0 1388,0 1394,0 1400,-6 1400,-12 1400,-12 1400,-24 1400,-24 1400,-30 1394,-36 1388,-36"/>
<text xml:space="preserve" text-anchor="middle" x="1333.12" y="-14.5" font-family="Arial" font-size="10.00" fill="#1a1a1a">(+) insufficient for decoding</text>
</g>
<!-- furniture.legend&#45;&gt;attr_4 -->
<g id="edge5" class="edge">
<title>furniture.legend&#45;&gt;attr_4</title>
<path fill="none" stroke="#aaaaaa" d="M1223.9,-18C1233.75,-18 1245.47,-18 1257.5,-18"/>
<polygon fill="#aaaaaa" stroke="#aaaaaa" points="1257.34,-20.45 1264.34,-18 1257.34,-15.55 1257.34,-20.45"/>
</g>
<!-- text.annotation -->
<g id="node4" class="node">
<title>text.annotation</title>
<path fill="#b8e6b8" stroke="#2c3e50" stroke-width="1.8" d="M49,-198C49,-198 12,-198 12,-198 6,-198 0,-192 0,-186 0,-186 0,-174 0,-174 0,-168 6,-162 12,-162 12,-162 49,-162 49,-162 55,-162 61,-168 61,-174 61,-174 61,-186 61,-186 61,-192 55,-198 49,-198"/>
<text xml:space="preserve" text-anchor="middle" x="30.5" y="-176.5" font-family="Arial" font-size="10.00" fill="#1a1a1a">annotation</text>
</g>
<!-- rel_3 -->
<g id="node15" class="node">
<title>rel_3</title>
<path fill="#f5b8b8" stroke="#d46a6a" stroke-width="1.2" d="M166.5,-198C166.5,-198 116,-198 116,-198 110,-198 104,-192 104,-186 104,-186 104,-174 104,-174 104,-168 110,-162 116,-162 116,-162 166.5,-162 166.5,-162 172.5,-162 178.5,-168 178.5,-174 178.5,-174 178.5,-186 178.5,-186 178.5,-192 172.5,-198 166.5,-198"/>
<text xml:space="preserve" text-anchor="middle" x="141.25" y="-176.5" font-family="Arial" font-size="10.00" fill="#8b0000">fails to clarify</text>
</g>
<!-- text.annotation&#45;&gt;rel_3 -->
<g id="edge13" class="edge">
<title>text.annotation&#45;&gt;rel_3</title>
<path fill="none" stroke="#d46a6a" stroke-width="1.5" d="M61.79,-180C71.6,-180 82.73,-180 93.45,-180"/>
<polygon fill="#d46a6a" stroke="#d46a6a" stroke-width="1.5" points="93.28,-182.8 101.28,-180 93.28,-177.2 93.28,-182.8"/>
</g>
<!-- unknown.graphical_design -->
<g id="node5" class="node">
<title>unknown.graphical_design</title>
<path fill="#b8e6b8" stroke="#2c3e50" stroke-width="1.8" d="M587.75,-133C587.75,-133 525.25,-133 525.25,-133 519.25,-133 513.25,-127 513.25,-121 513.25,-121 513.25,-109 513.25,-109 513.25,-103 519.25,-97 525.25,-97 525.25,-97 587.75,-97 587.75,-97 593.75,-97 599.75,-103 599.75,-109 599.75,-109 599.75,-121 599.75,-121 599.75,-127 593.75,-133 587.75,-133"/>
<text xml:space="preserve" text-anchor="middle" x="556.5" y="-111.5" font-family="Arial" font-size="10.00" fill="#1a1a1a">graphical design</text>
</g>
<!-- attr_3 -->
<g id="node11" class="node">
<title>attr_3</title>
<path fill="#c7b8e6" stroke="#7f8c8d" stroke-width="1.2" d="M791.5,-166C791.5,-166 654.75,-166 654.75,-166 648.75,-166 642.75,-160 642.75,-154 642.75,-154 642.75,-142 642.75,-142 642.75,-136 648.75,-130 654.75,-130 654.75,-130 791.5,-130 791.5,-130 797.5,-130 803.5,-136 803.5,-142 803.5,-142 803.5,-154 803.5,-154 803.5,-160 797.5,-166 791.5,-166"/>
<text xml:space="preserve" text-anchor="middle" x="723.12" y="-144.5" font-family="Arial" font-size="10.00" fill="#1a1a1a">(+) unconventional design pattern</text>
</g>
<!-- unknown.graphical_design&#45;&gt;attr_3 -->
<g id="edge6" class="edge">
<title>unknown.graphical_design&#45;&gt;attr_3</title>
<path fill="none" stroke="#aaaaaa" d="M600.32,-123.58C610.77,-125.68 622.34,-128 634.05,-130.35"/>
<polygon fill="#aaaaaa" stroke="#aaaaaa" points="633.35,-132.7 640.7,-131.68 634.32,-127.9 633.35,-132.7"/>
</g>
<!-- rel_2 -->
<g id="node14" class="node">
<title>rel_2</title>
<path fill="#f5b8b8" stroke="#d46a6a" stroke-width="1.2" d="M764.88,-101C764.88,-101 681.38,-101 681.38,-101 675.38,-101 669.38,-95 669.38,-89 669.38,-89 669.38,-77 669.38,-77 669.38,-71 675.38,-65 681.38,-65 681.38,-65 764.88,-65 764.88,-65 770.88,-65 776.88,-71 776.88,-77 776.88,-77 776.88,-89 776.88,-89 776.88,-95 770.88,-101 764.88,-101"/>
<text xml:space="preserve" text-anchor="middle" x="723.12" y="-79.5" font-family="Arial" font-size="10.00" fill="#8b0000">requires expertise for</text>
</g>
<!-- unknown.graphical_design&#45;&gt;rel_2 -->
<g id="edge11" class="edge">
<title>unknown.graphical_design&#45;&gt;rel_2</title>
<path fill="none" stroke="#d46a6a" stroke-width="1.5" d="M600.32,-106.68C618.17,-103.21 639.27,-99.11 658.84,-95.3"/>
<polygon fill="#d46a6a" stroke="#d46a6a" stroke-width="1.5" points="659.37,-98.05 666.69,-93.78 658.3,-92.55 659.37,-98.05"/>
</g>
<!-- rel_0&#45;&gt;unknown.graphical_design -->
<g id="edge8" class="edge">
<title>rel_0&#45;&gt;unknown.graphical_design</title>
<path fill="none" stroke="#d46a6a" stroke-width="1.5" d="M449.59,-115C466.57,-115 485.29,-115 502.2,-115"/>
<polygon fill="#d46a6a" stroke="#d46a6a" stroke-width="1.5" points="502.2,-117.8 510.2,-115 502.2,-112.2 502.2,-117.8"/>
</g>
<!-- rel_1&#45;&gt;furniture.legend -->
<g id="edge10" class="edge">
<title>rel_1&#45;&gt;furniture.legend</title>
<path fill="none" stroke="#d46a6a" stroke-width="1.5" d="M1077.83,-18C1100.6,-18 1133.3,-18 1158.41,-18"/>
<polygon fill="#d46a6a" stroke="#d46a6a" stroke-width="1.5" points="1158.39,-20.8 1166.39,-18 1158.39,-15.2 1158.39,-20.8"/>
</g>
<!-- rel_2&#45;&gt;unknown.visual_encoding -->
<g id="edge12" class="edge">
<title>rel_2&#45;&gt;unknown.visual_encoding</title>
<path fill="none" stroke="#d46a6a" stroke-width="1.5" d="M777.09,-83C795.85,-83 816.92,-83 835.57,-83"/>
<polygon fill="#d46a6a" stroke="#d46a6a" stroke-width="1.5" points="835.38,-85.8 843.38,-83 835.38,-80.2 835.38,-85.8"/>
</g>
<!-- rel_3&#45;&gt;unknown.glyph -->
<g id="edge14" class="edge">
<title>rel_3&#45;&gt;unknown.glyph</title>
<path fill="none" stroke="#d46a6a" stroke-width="1.5" d="M179.06,-180C189.27,-180 200.35,-180 210.56,-180"/>
<polygon fill="#d46a6a" stroke="#d46a6a" stroke-width="1.5" points="210.55,-182.8 218.55,-180 210.55,-177.2 210.55,-182.8"/>
</g>
</g>
</svg>
