<?xml version="1.0" encoding="UTF-8" standalone="no"?>
<!DOCTYPE svg PUBLIC "-//W3C//DTD SVG 1.1//EN"
 "http://www.w3.org/Graphics/SVG/1.1/DTD/svg11.dtd">
<!-- Generated by graphviz version 14.1.5 (20260411.2331)
 -->
<!-- Title: SciVisJ.891.13.png Pages: 1 -->
<svg width="1310pt" height="308pt"
 viewBox="0.00 0.00 1310.00 308.00" xmlns="http://www.w3.org/2000/svg" xmlns:xlink="http://www.w3.org/1999/xlink">
<g id="graph0" class="graph" transform="scale(1 1) rotate(0) translate(4 304.25)">
<title>SciVisJ.891.13.png</title>
<polygon fill="white" stroke="none" points="-4,4 -4,-304.25 1305.5,-304.25 1305.5,4 -4,4"/>
<text xml:space="preserve" text-anchor="start" x="590" y="-279.95" font-family="Arial" font-weight="bold" font-size="14.00">SciVisJ.891.13.png</text>
<text xml:space="preserve" text-anchor="start" x="604.62" y="-260" font-family="Arial" font-size="11.00">Glyph &#160;| &#160;VC = 0.91</text>
<path fill="#b8e6b8" stroke="none" d="M441.38,-235C441.38,-235 449.38,-235 449.38,-235 452.38,-235 455.38,-238 455.38,-241 455.38,-241 455.38,-247 455.38,-247 455.38,-250 452.38,-253 449.38,-253 449.38,-253 441.38,-253 441.38,-253 438.38,-253 435.38,-250 435.38,-247 435.38,-247 435.38,-241 435.38,-241 435.38,-238 438.38,-235 441.38,-235"/>
<path fill="none" stroke="black" d="M441.38,-235C441.38,-235 449.38,-235 449.38,-235 452.38,-235 455.38,-238 455.38,-241 455.38,-241 455.38,-247 455.38,-247 455.38,-250 452.38,-253 449.38,-253 449.38,-253 441.38,-253 441.38,-253 438.38,-253 435.38,-250 435.38,-247 435.38,-247 435.38,-241 435.38,-241 435.38,-238 438.38,-235 441.38,-235"/>
<text xml:space="preserve" text-anchor="start" x="443.88" y="-240.25" font-family="Arial" font-size="10.00"> </text>
<text xml:space="preserve" text-anchor="start" x="459.38" y="-240.25" font-family="Arial" font-size="10.00">Object</text>
<path fill="#c7b8e6" stroke="none" d="M497.88,-235C497.88,-235 505.88,-235 505.88,-235 508.88,-235 511.88,-238 511.88,-241 511.88,-241 511.88,-247 511.88,-247 511.88,-250 508.88,-253 505.88,-253 505.88,-253 497.88,-253 497.88,-253 494.88,-253 491.88,-250 491.88,-247 491.88,-247 491.88,-241 491.88,-241 491.88,-238 494.88,-235 497.88,-235"/>
<path fill="none" stroke="black" d="M497.88,-235C497.88,-235 505.88,-235 505.88,-235 508.88,-235 511.88,-238 511.88,-241 511.88,-241 511.88,-247 511.88,-247 511.88,-250 508.88,-253 505.88,-253 505.88,-253 497.88,-253 497.88,-253 494.88,-253 491.88,-250 491.88,-247 491.88,-247 491.88,-241 491.88,-241 491.88,-238 494.88,-235 497.88,-235"/>
<text xml:space="preserve" text-anchor="start" x="500.38" y="-240.25" font-family="Arial" font-size="10.00"> </text>
<text xml:space="preserve" text-anchor="start" x="515.88" y="-240.25" font-family="Arial" font-size="10.00">Attribute</text>
<path fill="#f5b8b8" stroke="none" d="M562.62,-235C562.62,-235 570.62,-235 570.62,-235 573.62,-235 576.62,-238 576.62,-241 576.62,-241 576.62,-247 576.62,-247 576.62,-250 573.62,-253 570.62,-253 570.62,-253 562.62,-253 562.62,-253 559.62,-253 556.62,-250 556.62,-247 556.62,-247 556.62,-241 556.62,-241 556.62,-238 559.62,-235 562.62,-235"/>
<path fill="none" stroke="black" d="M562.62,-235C562.62,-235 570.62,-235 570.62,-235 573.62,-235 576.62,-238 576.62,-241 576.62,-241 576.62,-247 576.62,-247 576.62,-250 573.62,-253 570.62,-253 570.62,-253 562.62,-253 562.62,-253 559.62,-253 556.62,-250 556.62,-247 556.62,-247 556.62,-241 556.62,-241 556.62,-238 559.62,-235 562.62,-235"/>
<text xml:space="preserve" text-anchor="start" x="565.12" y="-240.25" font-family="Arial" font-size="10.00"> </text>
<text xml:space="preserve" text-anchor="start" x="580.62" y="-240.25" font-family="Arial" font-size="10.00">Relationship</text>
<text xml:space="preserve" text-anchor="start" x="640.62" y="-241.5" font-family="Arial" font-weight="bold" font-size="10.00">(+)</text>
<text xml:space="preserve" text-anchor="start" x="652.62" y="-241.5" font-family="Arial" font-size="10.00"> increases complexity</text>
<text xml:space="preserve" text-anchor="start" x="753.88" y="-241.5" font-family="Arial" font-weight="bold" font-size="10.00">(−)</text>
<text xml:space="preserve" text-anchor="start" x="765.88" y="-241.5" font-family="Arial" font-size="10.00"> decreases complexity</text>
<!-- unknown.glyph -->
<g id="node1" class="node">
<title>unknown.glyph</title>
<path fill="#b8e6b8" stroke="#2c3e50" stroke-width="1.8" d="M312.25,-164C312.25,-164 282.25,-164 282.25,-164 276.25,-164 270.25,-158 270.25,-152 270.25,-152 270.25,-140 270.25,-140 270.25,-134 276.25,-128 282.25,-128 282.25,-128 312.25,-128 312.25,-128 318.25,-128 324.25,-134 324.25,-140 324.25,-140 324.25,-152 324.25,-152 324.25,-158 318.25,-164 312.25,-164"/>
<text xml:space="preserve" text-anchor="middle" x="297.25" y="-142.5" font-family="Arial" font-size="10.00" fill="#1a1a1a">glyph</text>
</g>
<!-- attr_0 -->
<g id="node6" class="node">
<title>attr_0</title>
<path fill="#c7b8e6" stroke="#7f8c8d" stroke-width="1.2" d="M489.75,-226C489.75,-226 379.25,-226 379.25,-226 373.25,-226 367.25,-220 367.25,-214 367.25,-214 367.25,-202 367.25,-202 367.25,-196 373.25,-190 379.25,-190 379.25,-190 489.75,-190 489.75,-190 495.75,-190 501.75,-196 501.75,-202 501.75,-202 501.75,-214 501.75,-214 501.75,-220 495.75,-226 489.75,-226"/>
<text xml:space="preserve" text-anchor="middle" x="434.5" y="-204.5" font-family="Arial" font-size="10.00" fill="#1a1a1a">(+) numerous dense glyphs</text>
</g>
<!-- unknown.glyph&#45;&gt;attr_0 -->
<g id="edge1" class="edge">
<title>unknown.glyph&#45;&gt;attr_0</title>
<path fill="none" stroke="#aaaaaa" d="M324.97,-158.25C342.17,-166.13 365.03,-176.61 385.33,-185.92"/>
<polygon fill="#aaaaaa" stroke="#aaaaaa" points="384.21,-188.1 391.6,-188.79 386.25,-183.65 384.21,-188.1"/>
</g>
<!-- rel_0 -->
<g id="node12" class="node">
<title>rel_0</title>
<path fill="#f5b8b8" stroke="#d46a6a" stroke-width="1.2" d="M608,-165C608,-165 556.75,-165 556.75,-165 550.75,-165 544.75,-159 544.75,-153 544.75,-153 544.75,-141 544.75,-141 544.75,-135 550.75,-129 556.75,-129 556.75,-129 608,-129 608,-129 614,-129 620,-135 620,-141 620,-141 620,-153 620,-153 620,-159 614,-165 608,-165"/>
<text xml:space="preserve" text-anchor="middle" x="582.38" y="-143.5" font-family="Arial" font-size="10.00" fill="#8b0000">contributes to</text>
</g>
<!-- unknown.glyph&#45;&gt;rel_0 -->
<g id="edge7" class="edge">
<title>unknown.glyph&#45;&gt;rel_0</title>
<path fill="none" stroke="#d46a6a" stroke-width="1.5" d="M325.14,-146.09C373.29,-146.27 474.76,-146.62 534.56,-146.83"/>
<polygon fill="#d46a6a" stroke="#d46a6a" stroke-width="1.5" points="534.22,-149.63 542.23,-146.86 534.24,-144.03 534.22,-149.63"/>
</g>
<!-- rel_4 -->
<g id="node16" class="node">
<title>rel_4</title>
<path fill="#f5b8b8" stroke="#d46a6a" stroke-width="1.2" d="M467.25,-101C467.25,-101 401.75,-101 401.75,-101 395.75,-101 389.75,-95 389.75,-89 389.75,-89 389.75,-77 389.75,-77 389.75,-71 395.75,-65 401.75,-65 401.75,-65 467.25,-65 467.25,-65 473.25,-65 479.25,-71 479.25,-77 479.25,-77 479.25,-89 479.25,-89 479.25,-95 473.25,-101 467.25,-101"/>
<text xml:space="preserve" text-anchor="middle" x="434.5" y="-79.5" font-family="Arial" font-size="10.00" fill="#8b0000">requires effort for</text>
</g>
<!-- unknown.glyph&#45;&gt;rel_4 -->
<g id="edge15" class="edge">
<title>unknown.glyph&#45;&gt;rel_4</title>
<path fill="none" stroke="#d46a6a" stroke-width="1.5" d="M324.97,-133.55C341.99,-125.62 364.56,-115.11 384.7,-105.73"/>
<polygon fill="#d46a6a" stroke="#d46a6a" stroke-width="1.5" points="385.63,-108.39 391.7,-102.47 383.26,-103.31 385.63,-108.39"/>
</g>
<!-- structure.layout -->
<g id="node2" class="node">
<title>structure.layout</title>
<path fill="#b8e6b8" stroke="#2c3e50" stroke-width="1.8" d="M851,-101C851,-101 821,-101 821,-101 815,-101 809,-95 809,-89 809,-89 809,-77 809,-77 809,-71 815,-65 821,-65 821,-65 851,-65 851,-65 857,-65 863,-71 863,-77 863,-77 863,-89 863,-89 863,-95 857,-101 851,-101"/>
<text xml:space="preserve" text-anchor="middle" x="836" y="-79.5" font-family="Arial" font-size="10.00" fill="#1a1a1a">layout</text>
</g>
<!-- attr_1 -->
<g id="node7" class="node">
<title>attr_1</title>
<path fill="#c7b8e6" stroke="#7f8c8d" stroke-width="1.2" d="M1018,-166C1018,-166 918,-166 918,-166 912,-166 906,-160 906,-154 906,-154 906,-142 906,-142 906,-136 912,-130 918,-130 918,-130 1018,-130 1018,-130 1024,-130 1030,-136 1030,-142 1030,-142 1030,-154 1030,-154 1030,-160 1024,-166 1018,-166"/>
<text xml:space="preserve" text-anchor="middle" x="968" y="-144.5" font-family="Arial" font-size="10.00" fill="#1a1a1a">(−) familiar screen layout</text>
</g>
<!-- structure.layout&#45;&gt;attr_1 -->
<g id="edge2" class="edge">
<title>structure.layout&#45;&gt;attr_1</title>
<path fill="none" stroke="#aaaaaa" d="M863.62,-96.31C880.62,-104.81 903.06,-116.03 922.7,-125.85"/>
<polygon fill="#aaaaaa" stroke="#aaaaaa" points="921.36,-127.92 928.71,-128.86 923.55,-123.53 921.36,-127.92"/>
</g>
<!-- attr_2 -->
<g id="node8" class="node">
<title>attr_2</title>
<path fill="#c7b8e6" stroke="#7f8c8d" stroke-width="1.2" d="M1015.75,-101C1015.75,-101 920.25,-101 920.25,-101 914.25,-101 908.25,-95 908.25,-89 908.25,-89 908.25,-77 908.25,-77 908.25,-71 914.25,-65 920.25,-65 920.25,-65 1015.75,-65 1015.75,-65 1021.75,-65 1027.75,-71 1027.75,-77 1027.75,-77 1027.75,-89 1027.75,-89 1027.75,-95 1021.75,-101 1015.75,-101"/>
<text xml:space="preserve" text-anchor="middle" x="968" y="-79.5" font-family="Arial" font-size="10.00" fill="#1a1a1a">(+) visually busy overall</text>
</g>
<!-- structure.layout&#45;&gt;attr_2 -->
<g id="edge3" class="edge">
<title>structure.layout&#45;&gt;attr_2</title>
<path fill="none" stroke="#aaaaaa" d="M863.62,-83C874.1,-83 886.66,-83 899.35,-83"/>
<polygon fill="#aaaaaa" stroke="#aaaaaa" points="899.17,-85.45 906.17,-83 899.17,-80.55 899.17,-85.45"/>
</g>
<!-- rel_1 -->
<g id="node13" class="node">
<title>rel_1</title>
<path fill="#f5b8b8" stroke="#d46a6a" stroke-width="1.2" d="M986.5,-36C986.5,-36 949.5,-36 949.5,-36 943.5,-36 937.5,-30 937.5,-24 937.5,-24 937.5,-12 937.5,-12 937.5,-6 943.5,0 949.5,0 949.5,0 986.5,0 986.5,0 992.5,0 998.5,-6 998.5,-12 998.5,-12 998.5,-24 998.5,-24 998.5,-30 992.5,-36 986.5,-36"/>
<text xml:space="preserve" text-anchor="middle" x="968" y="-14.5" font-family="Arial" font-size="10.00" fill="#8b0000">resembles</text>
</g>
<!-- structure.layout&#45;&gt;rel_1 -->
<g id="edge9" class="edge">
<title>structure.layout&#45;&gt;rel_1</title>
<path fill="none" stroke="#d46a6a" stroke-width="1.5" d="M863.62,-69.69C882.26,-60.37 907.45,-47.77 928.3,-37.35"/>
<polygon fill="#d46a6a" stroke="#d46a6a" stroke-width="1.5" points="929.3,-39.98 935.21,-33.9 926.8,-34.97 929.3,-39.98"/>
</g>
<!-- mark.symbol -->
<g id="node3" class="node">
<title>mark.symbol</title>
<path fill="#b8e6b8" stroke="#2c3e50" stroke-width="1.8" d="M1115,-36C1115,-36 1085,-36 1085,-36 1079,-36 1073,-30 1073,-24 1073,-24 1073,-12 1073,-12 1073,-6 1079,0 1085,0 1085,0 1115,0 1115,0 1121,0 1127,-6 1127,-12 1127,-12 1127,-24 1127,-24 1127,-30 1121,-36 1115,-36"/>
<text xml:space="preserve" text-anchor="middle" x="1100" y="-14.5" font-family="Arial" font-size="10.00" fill="#1a1a1a">icon</text>
</g>
<!-- attr_3 -->
<g id="node9" class="node">
<title>attr_3</title>
<path fill="#c7b8e6" stroke="#7f8c8d" stroke-width="1.2" d="M1289.5,-36C1289.5,-36 1182,-36 1182,-36 1176,-36 1170,-30 1170,-24 1170,-24 1170,-12 1170,-12 1170,-6 1176,0 1182,0 1182,0 1289.5,0 1289.5,0 1295.5,0 1301.5,-6 1301.5,-12 1301.5,-12 1301.5,-24 1301.5,-24 1301.5,-30 1295.5,-36 1289.5,-36"/>
<text xml:space="preserve" text-anchor="middle" x="1235.75" y="-14.5" font-family="Arial" font-size="10.00" fill="#1a1a1a">(−) icon like representation</text>
</g>
<!-- mark.symbol&#45;&gt;attr_3 -->
<g id="edge4" class="edge">
<title>mark.symbol&#45;&gt;attr_3</title>
<path fill="none" stroke="#aaaaaa" d="M1127.74,-18C1137.59,-18 1149.28,-18 1161.26,-18"/>
<polygon fill="#aaaaaa" stroke="#aaaaaa" points="1161.07,-20.45 1168.07,-18 1161.07,-15.55 1161.07,-20.45"/>
</g>
<!-- unknown.text_label -->
<g id="node4" class="node">
<title>unknown.text_label</title>
<path fill="#b8e6b8" stroke="#2c3e50" stroke-width="1.8" d="M598.25,-100C598.25,-100 566.5,-100 566.5,-100 560.5,-100 554.5,-94 554.5,-88 554.5,-88 554.5,-76 554.5,-76 554.5,-70 560.5,-64 566.5,-64 566.5,-64 598.25,-64 598.25,-64 604.25,-64 610.25,-70 610.25,-76 610.25,-76 610.25,-88 610.25,-88 610.25,-94 604.25,-100 598.25,-100"/>
<text xml:space="preserve" text-anchor="middle" x="582.38" y="-78.5" font-family="Arial" font-size="10.00" fill="#1a1a1a">text label</text>
</g>
<!-- attr_4 -->
<g id="node10" class="node">
<title>attr_4</title>
<path fill="#c7b8e6" stroke="#7f8c8d" stroke-width="1.2" d="M754,-103C754,-103 675,-103 675,-103 669,-103 663,-97 663,-91 663,-91 663,-79 663,-79 663,-73 669,-67 675,-67 675,-67 754,-67 754,-67 760,-67 766,-73 766,-79 766,-79 766,-91 766,-91 766,-97 760,-103 754,-103"/>
<text xml:space="preserve" text-anchor="middle" x="714.5" y="-81.5" font-family="Arial" font-size="10.00" fill="#1a1a1a">(+) high text volume</text>
</g>
<!-- unknown.text_label&#45;&gt;attr_4 -->
<g id="edge5" class="edge">
<title>unknown.text_label&#45;&gt;attr_4</title>
<path fill="none" stroke="#aaaaaa" d="M610.97,-82.64C623.62,-82.93 639.14,-83.29 654.24,-83.63"/>
<polygon fill="#aaaaaa" stroke="#aaaaaa" points="654,-86.08 661.05,-83.79 654.11,-81.18 654,-86.08"/>
</g>
<!-- rel_2 -->
<g id="node14" class="node">
<title>rel_2</title>
<path fill="#f5b8b8" stroke="#d46a6a" stroke-width="1.2" d="M736.75,-38C736.75,-38 692.25,-38 692.25,-38 686.25,-38 680.25,-32 680.25,-26 680.25,-26 680.25,-14 680.25,-14 680.25,-8 686.25,-2 692.25,-2 692.25,-2 736.75,-2 736.75,-2 742.75,-2 748.75,-8 748.75,-14 748.75,-14 748.75,-26 748.75,-26 748.75,-32 742.75,-38 736.75,-38"/>
<text xml:space="preserve" text-anchor="middle" x="714.5" y="-16.5" font-family="Arial" font-size="10.00" fill="#8b0000">overwhelms</text>
</g>
<!-- unknown.text_label&#45;&gt;rel_2 -->
<g id="edge11" class="edge">
<title>unknown.text_label&#45;&gt;rel_2</title>
<path fill="none" stroke="#d46a6a" stroke-width="1.5" d="M610.97,-68.85C628.36,-60.57 651.17,-49.7 670.85,-40.32"/>
<polygon fill="#d46a6a" stroke="#d46a6a" stroke-width="1.5" points="671.87,-42.94 677.89,-36.97 669.46,-37.88 671.87,-42.94"/>
</g>
<!-- furniture.legend -->
<g id="node5" class="node">
<title>furniture.legend</title>
<path fill="#b8e6b8" stroke="#2c3e50" stroke-width="1.8" d="M49,-196C49,-196 12,-196 12,-196 6,-196 0,-190 0,-184 0,-184 0,-172 0,-172 0,-166 6,-160 12,-160 12,-160 49,-160 49,-160 55,-160 61,-166 61,-172 61,-172 61,-184 61,-184 61,-190 55,-196 49,-196"/>
<text xml:space="preserve" text-anchor="middle" x="30.5" y="-174.5" font-family="Arial" font-size="10.00" fill="#1a1a1a">color code</text>
</g>
<!-- attr_5 -->
<g id="node11" class="node">
<title>attr_5</title>
<path fill="#c7b8e6" stroke="#7f8c8d" stroke-width="1.2" d="M215.25,-229C215.25,-229 116,-229 116,-229 110,-229 104,-223 104,-217 104,-217 104,-205 104,-205 104,-199 110,-193 116,-193 116,-193 215.25,-193 215.25,-193 221.25,-193 227.25,-199 227.25,-205 227.25,-205 227.25,-217 227.25,-217 227.25,-223 221.25,-229 215.25,-229"/>
<text xml:space="preserve" text-anchor="middle" x="165.62" y="-207.5" font-family="Arial" font-size="10.00" fill="#1a1a1a">(+) varied color encoding</text>
</g>
<!-- furniture.legend&#45;&gt;attr_5 -->
<g id="edge6" class="edge">
<title>furniture.legend&#45;&gt;attr_5</title>
<path fill="none" stroke="#aaaaaa" d="M61.71,-185.49C71.81,-187.99 83.51,-190.89 95.34,-193.82"/>
<polygon fill="#aaaaaa" stroke="#aaaaaa" points="94.67,-196.18 102.05,-195.49 95.85,-191.43 94.67,-196.18"/>
</g>
<!-- rel_3 -->
<g id="node15" class="node">
<title>rel_3</title>
<path fill="#f5b8b8" stroke="#d46a6a" stroke-width="1.2" d="M187.88,-164C187.88,-164 143.38,-164 143.38,-164 137.38,-164 131.38,-158 131.38,-152 131.38,-152 131.38,-140 131.38,-140 131.38,-134 137.38,-128 143.38,-128 143.38,-128 187.88,-128 187.88,-128 193.88,-128 199.88,-134 199.88,-140 199.88,-140 199.88,-152 199.88,-152 199.88,-158 193.88,-164 187.88,-164"/>
<text xml:space="preserve" text-anchor="middle" x="165.62" y="-142.5" font-family="Arial" font-size="10.00" fill="#8b0000">encodes via</text>
</g>
<!-- furniture.legend&#45;&gt;rel_3 -->
<g id="edge13" class="edge">
<title>furniture.legend&#45;&gt;rel_3</title>
<path fill="none" stroke="#d46a6a" stroke-width="1.5" d="M61.71,-170.74C79.22,-166.53 101.56,-161.16 120.96,-156.5"/>
<polygon fill="#d46a6a" stroke="#d46a6a" stroke-width="1.5" points="121.46,-159.26 128.58,-154.66 120.15,-153.81 121.46,-159.26"/>
</g>
<!-- rel_0&#45;&gt;structure.layout -->
<g id="edge8" class="edge">
<title>rel_0&#45;&gt;structure.layout</title>
<path fill="none" stroke="#d46a6a" stroke-width="1.5" d="M620.51,-144.13C657.95,-140.49 717.05,-132.7 766,-117 777.21,-113.4 788.89,-108.25 799.37,-103.04"/>
<polygon fill="#d46a6a" stroke="#d46a6a" stroke-width="1.5" points="800.39,-105.67 806.22,-99.52 797.83,-100.69 800.39,-105.67"/>
</g>
<!-- rel_1&#45;&gt;mark.symbol -->
<g id="edge10" class="edge">
<title>rel_1&#45;&gt;mark.symbol</title>
<path fill="none" stroke="#d46a6a" stroke-width="1.5" d="M998.82,-18C1017.72,-18 1042.29,-18 1062.37,-18"/>
<polygon fill="#d46a6a" stroke="#d46a6a" stroke-width="1.5" points="1062.13,-20.8 1070.13,-18 1062.13,-15.2 1062.13,-20.8"/>
</g>
<!-- rel_2&#45;&gt;structure.layout -->
<g id="edge12" class="edge">
<title>rel_2&#45;&gt;structure.layout</title>
<path fill="none" stroke="#d46a6a" stroke-width="1.5" d="M749.11,-37.72C764.8,-45.99 783.5,-55.85 799.43,-64.25"/>
<polygon fill="#d46a6a" stroke="#d46a6a" stroke-width="1.5" points="798.06,-66.69 806.44,-67.94 800.67,-61.74 798.06,-66.69"/>
</g>
<!-- rel_3&#45;&gt;unknown.glyph -->
<g id="edge14" class="edge">
<title>rel_3&#45;&gt;unknown.glyph</title>
<path fill="none" stroke="#d46a6a" stroke-width="1.5" d="M200.34,-146C218.49,-146 240.89,-146 259.48,-146"/>
<polygon fill="#d46a6a" stroke="#d46a6a" stroke-width="1.5" points="259.38,-148.8 267.38,-146 259.38,-143.2 259.38,-148.8"/>
</g>
<!-- rel_4&#45;&gt;unknown.text_label -->
<g id="edge16" class="edge">
<title>rel_4&#45;&gt;unknown.text_label</title>
<path fill="none" stroke="#d46a6a" stroke-width="1.5" d="M479.66,-82.7C500.13,-82.56 524.21,-82.39 543.79,-82.26"/>
<polygon fill="#d46a6a" stroke="#d46a6a" stroke-width="1.5" points="543.62,-85.06 551.6,-82.2 543.58,-79.46 543.62,-85.06"/>
</g>
</g>
</svg>
