<?xml version="1.0" encoding="UTF-8" standalone="no"?>
<!DOCTYPE svg PUBLIC "-//W3C//DTD SVG 1.1//EN"
 "http://www.w3.org/Graphics/SVG/1.1/DTD/svg11.dtd">
<!-- Generated by graphviz version 14.1.5 (20260411.2331)
 -->
<!-- Title: treasuryL11_2.png Pages: 1 -->
<svg width="497pt" height="472pt"
 viewBox="0.00 0.00 497.00 472.00" xmlns="http://www.w3.org/2000/svg" xmlns:xlink="http://www.w3.org/1999/xlink">
<g id="graph0" class="graph" transform="scale(1 1) rotate(0) translate(4 468.25)">
<title>treasuryL11_2.png</title>
<polygon fill="white" stroke="none" points="-4,4 -4,-468.25 492.5,-468.25 492.5,4 -4,4"/>
<text xml:space="preserve" text-anchor="start" x="184.62" y="-443.95" font-family="Arial" font-weight="bold" font-size="14.00">treasuryL11_2.png</text>
<text xml:space="preserve" text-anchor="start" x="200.38" y="-424" font-family="Arial" font-size="11.00">Area &#160;| &#160;VC = 0.38</text>
<path fill="#b8e6b8" stroke="none" d="M34.88,-399C34.88,-399 42.88,-399 42.88,-399 45.88,-399 48.88,-402 48.88,-405 48.88,-405 48.88,-411 48.88,-411 48.88,-414 45.88,-417 42.88,-417 42.88,-417 34.88,-417 34.88,-417 31.88,-417 28.88,-414 28.88,-411 28.88,-411 28.88,-405 28.88,-405 28.88,-402 31.88,-399 34.88,-399"/>
<path fill="none" stroke="black" d="M34.88,-399C34.88,-399 42.88,-399 42.88,-399 45.88,-399 48.88,-402 48.88,-405 48.88,-405 48.88,-411 48.88,-411 48.88,-414 45.88,-417 42.88,-417 42.88,-417 34.88,-417 34.88,-417 31.88,-417 28.88,-414 28.88,-411 28.88,-411 28.88,-405 28.88,-405 28.88,-402 31.88,-399 34.88,-399"/>
<text xml:space="preserve" text-anchor="start" x="37.38" y="-404.25" font-family="Arial" font-size="10.00"> </text>
<text xml:space="preserve" text-anchor="start" x="52.88" y="-404.25" font-family="Arial" font-size="10.00">Object</text>
<path fill="#c7b8e6" stroke="none" d="M91.38,-399C91.38,-399 99.38,-399 99.38,-399 102.38,-399 105.38,-402 105.38,-405 105.38,-405 105.38,-411 105.38,-411 105.38,-414 102.38,-417 99.38,-417 99.38,-417 91.38,-417 91.38,-417 88.38,-417 85.38,-414 85.38,-411 85.38,-411 85.38,-405 85.38,-405 85.38,-402 88.38,-399 91.38,-399"/>
<path fill="none" stroke="black" d="M91.38,-399C91.38,-399 99.38,-399 99.38,-399 102.38,-399 105.38,-402 105.38,-405 105.38,-405 105.38,-411 105.38,-411 105.38,-414 102.38,-417 99.38,-417 99.38,-417 91.38,-417 91.38,-417 88.38,-417 85.38,-414 85.38,-411 85.38,-411 85.38,-405 85.38,-405 85.38,-402 88.38,-399 91.38,-399"/>
<text xml:space="preserve" text-anchor="start" x="93.88" y="-404.25" font-family="Arial" font-size="10.00"> </text>
<text xml:space="preserve" text-anchor="start" x="109.38" y="-404.25" font-family="Arial" font-size="10.00">Attribute</text>
<path fill="#f5b8b8" stroke="none" d="M156.12,-399C156.12,-399 164.12,-399 164.12,-399 167.12,-399 170.12,-402 170.12,-405 170.12,-405 170.12,-411 170.12,-411 170.12,-414 167.12,-417 164.12,-417 164.12,-417 156.12,-417 156.12,-417 153.12,-417 150.12,-414 150.12,-411 150.12,-411 150.12,-405 150.12,-405 150.12,-402 153.12,-399 156.12,-399"/>
<path fill="none" stroke="black" d="M156.12,-399C156.12,-399 164.12,-399 164.12,-399 167.12,-399 170.12,-402 170.12,-405 170.12,-405 170.12,-411 170.12,-411 170.12,-414 167.12,-417 164.12,-417 164.12,-417 156.12,-417 156.12,-417 153.12,-417 150.12,-414 150.12,-411 150.12,-411 150.12,-405 150.12,-405 150.12,-402 153.12,-399 156.12,-399"/>
<text xml:space="preserve" text-anchor="start" x="158.62" y="-404.25" font-family="Arial" font-size="10.00"> </text>
<text xml:space="preserve" text-anchor="start" x="174.12" y="-404.25" font-family="Arial" font-size="10.00">Relationship</text>
<text xml:space="preserve" text-anchor="start" x="234.12" y="-405.5" font-family="Arial" font-weight="bold" font-size="10.00">(+)</text>
<text xml:space="preserve" text-anchor="start" x="246.12" y="-405.5" font-family="Arial" font-size="10.00"> increases complexity</text>
<text xml:space="preserve" text-anchor="start" x="347.38" y="-405.5" font-family="Arial" font-weight="bold" font-size="10.00">(−)</text>
<text xml:space="preserve" text-anchor="start" x="359.38" y="-405.5" font-family="Arial" font-size="10.00"> decreases complexity</text>
<!-- unknown.area_chart -->
<g id="node1" class="node">
<title>unknown.area_chart</title>
<path fill="#b8e6b8" stroke="#2c3e50" stroke-width="1.8" d="M317.75,-166C317.75,-166 282.25,-166 282.25,-166 276.25,-166 270.25,-160 270.25,-154 270.25,-154 270.25,-142 270.25,-142 270.25,-136 276.25,-130 282.25,-130 282.25,-130 317.75,-130 317.75,-130 323.75,-130 329.75,-136 329.75,-142 329.75,-142 329.75,-154 329.75,-154 329.75,-160 323.75,-166 317.75,-166"/>
<text xml:space="preserve" text-anchor="middle" x="300" y="-144.5" font-family="Arial" font-size="10.00" fill="#1a1a1a">area chart</text>
</g>
<!-- attr_0 -->
<g id="node6" class="node">
<title>attr_0</title>
<path fill="#c7b8e6" stroke="#7f8c8d" stroke-width="1.2" d="M461.12,-199C461.12,-199 400.12,-199 400.12,-199 394.12,-199 388.12,-193 388.12,-187 388.12,-187 388.12,-175 388.12,-175 388.12,-169 394.12,-163 400.12,-163 400.12,-163 461.12,-163 461.12,-163 467.12,-163 473.12,-169 473.12,-175 473.12,-175 473.12,-187 473.12,-187 473.12,-193 467.12,-199 461.12,-199"/>
<text xml:space="preserve" text-anchor="middle" x="430.62" y="-177.5" font-family="Arial" font-size="10.00" fill="#1a1a1a">(−) easy to read</text>
</g>
<!-- unknown.area_chart&#45;&gt;attr_0 -->
<g id="edge1" class="edge">
<title>unknown.area_chart&#45;&gt;attr_0</title>
<path fill="none" stroke="#aaaaaa" d="M330.51,-155.57C345.04,-159.3 362.97,-163.9 379.56,-168.16"/>
<polygon fill="#aaaaaa" stroke="#aaaaaa" points="378.72,-170.47 386.11,-169.84 379.94,-165.72 378.72,-170.47"/>
</g>
<!-- attr_1 -->
<g id="node7" class="node">
<title>attr_1</title>
<path fill="#c7b8e6" stroke="#7f8c8d" stroke-width="1.2" d="M476.5,-134C476.5,-134 384.75,-134 384.75,-134 378.75,-134 372.75,-128 372.75,-122 372.75,-122 372.75,-110 372.75,-110 372.75,-104 378.75,-98 384.75,-98 384.75,-98 476.5,-98 476.5,-98 482.5,-98 488.5,-104 488.5,-110 488.5,-110 488.5,-122 488.5,-122 488.5,-128 482.5,-134 476.5,-134"/>
<text xml:space="preserve" text-anchor="middle" x="430.62" y="-112.5" font-family="Arial" font-size="10.00" fill="#1a1a1a">(−) clear data encoding</text>
</g>
<!-- unknown.area_chart&#45;&gt;attr_1 -->
<g id="edge2" class="edge">
<title>unknown.area_chart&#45;&gt;attr_1</title>
<path fill="none" stroke="#aaaaaa" d="M330.51,-140.66C340.63,-138.14 352.4,-135.21 364.22,-132.27"/>
<polygon fill="#aaaaaa" stroke="#aaaaaa" points="364.72,-134.67 370.93,-130.6 363.54,-129.92 364.72,-134.67"/>
</g>
<!-- text.axis_label -->
<g id="node2" class="node">
<title>text.axis_label</title>
<path fill="#b8e6b8" stroke="#2c3e50" stroke-width="1.8" d="M45.25,-328C45.25,-328 12,-328 12,-328 6,-328 0,-322 0,-316 0,-316 0,-304 0,-304 0,-298 6,-292 12,-292 12,-292 45.25,-292 45.25,-292 51.25,-292 57.25,-298 57.25,-304 57.25,-304 57.25,-316 57.25,-316 57.25,-322 51.25,-328 45.25,-328"/>
<text xml:space="preserve" text-anchor="middle" x="28.62" y="-306.5" font-family="Arial" font-size="10.00" fill="#1a1a1a">axis label</text>
</g>
<!-- attr_2 -->
<g id="node8" class="node">
<title>attr_2</title>
<path fill="#c7b8e6" stroke="#7f8c8d" stroke-width="1.2" d="M199.88,-361C199.88,-361 127.62,-361 127.62,-361 121.62,-361 115.62,-355 115.62,-349 115.62,-349 115.62,-337 115.62,-337 115.62,-331 121.62,-325 127.62,-325 127.62,-325 199.88,-325 199.88,-325 205.88,-325 211.88,-331 211.88,-337 211.88,-337 211.88,-349 211.88,-349 211.88,-355 205.88,-361 199.88,-361"/>
<text xml:space="preserve" text-anchor="middle" x="163.75" y="-339.5" font-family="Arial" font-size="10.00" fill="#1a1a1a">(−) readable labels</text>
</g>
<!-- text.axis_label&#45;&gt;attr_2 -->
<g id="edge3" class="edge">
<title>text.axis_label&#45;&gt;attr_2</title>
<path fill="none" stroke="#aaaaaa" d="M57.86,-317C72.16,-320.54 90.03,-324.97 106.96,-329.17"/>
<polygon fill="#aaaaaa" stroke="#aaaaaa" points="106.32,-331.54 113.7,-330.84 107.5,-326.78 106.32,-331.54"/>
</g>
<!-- rel_0 -->
<g id="node11" class="node">
<title>rel_0</title>
<path fill="#f5b8b8" stroke="#d46a6a" stroke-width="1.2" d="M213.75,-296C213.75,-296 113.75,-296 113.75,-296 107.75,-296 101.75,-290 101.75,-284 101.75,-284 101.75,-272 101.75,-272 101.75,-266 107.75,-260 113.75,-260 113.75,-260 213.75,-260 213.75,-260 219.75,-260 225.75,-266 225.75,-272 225.75,-272 225.75,-284 225.75,-284 225.75,-290 219.75,-296 213.75,-296"/>
<text xml:space="preserve" text-anchor="middle" x="163.75" y="-274.5" font-family="Arial" font-size="10.00" fill="#8b0000">supports interpretation of</text>
</g>
<!-- text.axis_label&#45;&gt;rel_0 -->
<g id="edge6" class="edge">
<title>text.axis_label&#45;&gt;rel_0</title>
<path fill="none" stroke="#d46a6a" stroke-width="1.5" d="M57.86,-303.21C67.91,-300.8 79.74,-297.95 91.76,-295.06"/>
<polygon fill="#d46a6a" stroke="#d46a6a" stroke-width="1.5" points="92.09,-297.87 99.21,-293.27 90.78,-292.42 92.09,-297.87"/>
</g>
<!-- furniture.legend -->
<g id="node3" class="node">
<title>furniture.legend</title>
<path fill="#b8e6b8" stroke="#2c3e50" stroke-width="1.8" d="M43.62,-69C43.62,-69 13.62,-69 13.62,-69 7.62,-69 1.62,-63 1.62,-57 1.62,-57 1.62,-45 1.62,-45 1.62,-39 7.62,-33 13.62,-33 13.62,-33 43.62,-33 43.62,-33 49.62,-33 55.62,-39 55.62,-45 55.62,-45 55.62,-57 55.62,-57 55.62,-63 49.62,-69 43.62,-69"/>
<text xml:space="preserve" text-anchor="middle" x="28.62" y="-47.5" font-family="Arial" font-size="10.00" fill="#1a1a1a">legend</text>
</g>
<!-- attr_4 -->
<g id="node9" class="node">
<title>attr_4</title>
<path fill="#c7b8e6" stroke="#7f8c8d" stroke-width="1.2" d="M215.25,-101C215.25,-101 112.25,-101 112.25,-101 106.25,-101 100.25,-95 100.25,-89 100.25,-89 100.25,-77 100.25,-77 100.25,-71 106.25,-65 112.25,-65 112.25,-65 215.25,-65 215.25,-65 221.25,-65 227.25,-71 227.25,-77 227.25,-77 227.25,-89 227.25,-89 227.25,-95 221.25,-101 215.25,-101"/>
<text xml:space="preserve" text-anchor="middle" x="163.75" y="-79.5" font-family="Arial" font-size="10.00" fill="#1a1a1a">(−) straightforward legend</text>
</g>
<!-- furniture.legend&#45;&gt;attr_4 -->
<g id="edge4" class="edge">
<title>furniture.legend&#45;&gt;attr_4</title>
<path fill="none" stroke="#aaaaaa" d="M56.24,-57.4C66.68,-59.91 79.18,-62.91 91.9,-65.97"/>
<polygon fill="#aaaaaa" stroke="#aaaaaa" points="90.98,-68.27 98.36,-67.52 92.12,-63.5 90.98,-68.27"/>
</g>
<!-- rel_2 -->
<g id="node13" class="node">
<title>rel_2</title>
<path fill="#f5b8b8" stroke="#d46a6a" stroke-width="1.2" d="M178.75,-36C178.75,-36 148.75,-36 148.75,-36 142.75,-36 136.75,-30 136.75,-24 136.75,-24 136.75,-12 136.75,-12 136.75,-6 142.75,0 148.75,0 148.75,0 178.75,0 178.75,0 184.75,0 190.75,-6 190.75,-12 190.75,-12 190.75,-24 190.75,-24 190.75,-30 184.75,-36 178.75,-36"/>
<text xml:space="preserve" text-anchor="middle" x="163.75" y="-14.5" font-family="Arial" font-size="10.00" fill="#8b0000">clarifies</text>
</g>
<!-- furniture.legend&#45;&gt;rel_2 -->
<g id="edge10" class="edge">
<title>furniture.legend&#45;&gt;rel_2</title>
<path fill="none" stroke="#d46a6a" stroke-width="1.5" d="M56.24,-44.4C76.38,-39.41 104.25,-32.5 126.43,-27"/>
<polygon fill="#d46a6a" stroke="#d46a6a" stroke-width="1.5" points="126.88,-29.78 133.97,-25.13 125.53,-24.34 126.88,-29.78"/>
</g>
<!-- property.color -->
<g id="node4" class="node">
<title>property.color</title>
<path fill="#b8e6b8" stroke="#2c3e50" stroke-width="1.8" d="M43.62,-199C43.62,-199 13.62,-199 13.62,-199 7.62,-199 1.62,-193 1.62,-187 1.62,-187 1.62,-175 1.62,-175 1.62,-169 7.62,-163 13.62,-163 13.62,-163 43.62,-163 43.62,-163 49.62,-163 55.62,-169 55.62,-175 55.62,-175 55.62,-187 55.62,-187 55.62,-193 49.62,-199 43.62,-199"/>
<text xml:space="preserve" text-anchor="middle" x="28.62" y="-177.5" font-family="Arial" font-size="10.00" fill="#1a1a1a">color</text>
</g>
<!-- attr_3 -->
<g id="node10" class="node">
<title>attr_3</title>
<path fill="#c7b8e6" stroke="#7f8c8d" stroke-width="1.2" d="M214.12,-231C214.12,-231 113.38,-231 113.38,-231 107.38,-231 101.38,-225 101.38,-219 101.38,-219 101.38,-207 101.38,-207 101.38,-201 107.38,-195 113.38,-195 113.38,-195 214.12,-195 214.12,-195 220.12,-195 226.12,-201 226.12,-207 226.12,-207 226.12,-219 226.12,-219 226.12,-225 220.12,-231 214.12,-231"/>
<text xml:space="preserve" text-anchor="middle" x="163.75" y="-209.5" font-family="Arial" font-size="10.00" fill="#1a1a1a">(−) distinguishable colors</text>
</g>
<!-- property.color&#45;&gt;attr_3 -->
<g id="edge5" class="edge">
<title>property.color&#45;&gt;attr_3</title>
<path fill="none" stroke="#aaaaaa" d="M56.24,-187.4C66.93,-189.97 79.79,-193.06 92.82,-196.19"/>
<polygon fill="#aaaaaa" stroke="#aaaaaa" points="92.09,-198.53 99.47,-197.79 93.23,-193.77 92.09,-198.53"/>
</g>
<!-- rel_1 -->
<g id="node12" class="node">
<title>rel_1</title>
<path fill="#f5b8b8" stroke="#d46a6a" stroke-width="1.2" d="M210,-166C210,-166 117.5,-166 117.5,-166 111.5,-166 105.5,-160 105.5,-154 105.5,-154 105.5,-142 105.5,-142 105.5,-136 111.5,-130 117.5,-130 117.5,-130 210,-130 210,-130 216,-130 222,-136 222,-142 222,-142 222,-154 222,-154 222,-160 216,-166 210,-166"/>
<text xml:space="preserve" text-anchor="middle" x="163.75" y="-144.5" font-family="Arial" font-size="10.00" fill="#8b0000">enhances readability of</text>
</g>
<!-- property.color&#45;&gt;rel_1 -->
<g id="edge8" class="edge">
<title>property.color&#45;&gt;rel_1</title>
<path fill="none" stroke="#d46a6a" stroke-width="1.5" d="M56.24,-174.4C67.65,-171.57 81.54,-168.13 95.47,-164.68"/>
<polygon fill="#d46a6a" stroke="#d46a6a" stroke-width="1.5" points="95.79,-167.48 102.89,-162.84 94.45,-162.05 95.79,-167.48"/>
</g>
<!-- text.title -->
<g id="node5" class="node">
<title>text.title</title>
<path fill="#b8e6b8" stroke="#2c3e50" stroke-width="1.8" d="M43.62,-393C43.62,-393 13.62,-393 13.62,-393 7.62,-393 1.62,-387 1.62,-381 1.62,-381 1.62,-369 1.62,-369 1.62,-363 7.62,-357 13.62,-357 13.62,-357 43.62,-357 43.62,-357 49.62,-357 55.62,-363 55.62,-369 55.62,-369 55.62,-381 55.62,-381 55.62,-387 49.62,-393 43.62,-393"/>
<text xml:space="preserve" text-anchor="middle" x="28.62" y="-371.5" font-family="Arial" font-size="10.00" fill="#1a1a1a">title</text>
</g>
<!-- rel_0&#45;&gt;unknown.area_chart -->
<g id="edge7" class="edge">
<title>rel_0&#45;&gt;unknown.area_chart</title>
<path fill="none" stroke="#d46a6a" stroke-width="1.5" d="M207.47,-259.54C214.44,-255.59 221.31,-251.06 227.25,-246 250.84,-225.89 270.99,-196.56 283.88,-175.23"/>
<polygon fill="#d46a6a" stroke="#d46a6a" stroke-width="1.5" points="286.15,-176.9 287.8,-168.59 281.32,-174.06 286.15,-176.9"/>
</g>
<!-- rel_1&#45;&gt;unknown.area_chart -->
<g id="edge9" class="edge">
<title>rel_1&#45;&gt;unknown.area_chart</title>
<path fill="none" stroke="#d46a6a" stroke-width="1.5" d="M222.46,-148C234.87,-148 247.71,-148 259.25,-148"/>
<polygon fill="#d46a6a" stroke="#d46a6a" stroke-width="1.5" points="259.16,-150.8 267.16,-148 259.16,-145.2 259.16,-150.8"/>
</g>
<!-- rel_2&#45;&gt;unknown.area_chart -->
<g id="edge11" class="edge">
<title>rel_2&#45;&gt;unknown.area_chart</title>
<path fill="none" stroke="#d46a6a" stroke-width="1.5" d="M191.31,-28.78C203.09,-34.34 216.64,-41.88 227.25,-51 250.36,-70.86 270.38,-99.47 283.35,-120.47"/>
<polygon fill="#d46a6a" stroke="#d46a6a" stroke-width="1.5" points="280.94,-121.89 287.46,-127.3 285.73,-119 280.94,-121.89"/>
</g>
</g>
</svg>
