<?xml version="1.0" encoding="UTF-8" standalone="no"?>
<!DOCTYPE svg PUBLIC "-//W3C//DTD SVG 1.1//EN"
 "http://www.w3.org/Graphics/SVG/1.1/DTD/svg11.dtd">
<!-- Generated by graphviz version 14.1.5 (20260411.2331)
 -->
<!-- Title: v483_n7390_14_f3.png Pages: 1 -->
<svg width="1199pt" height="440pt"
 viewBox="0.00 0.00 1199.00 440.00" xmlns="http://www.w3.org/2000/svg" xmlns:xlink="http://www.w3.org/1999/xlink">
<g id="graph0" class="graph" transform="scale(1 1) rotate(0) translate(4 436.25)">
<title>v483_n7390_14_f3.png</title>
<polygon fill="white" stroke="none" points="-4,4 -4,-436.25 1194.75,-436.25 1194.75,4 -4,4"/>
<text xml:space="preserve" text-anchor="start" x="522.25" y="-411.95" font-family="Arial" font-weight="bold" font-size="14.00">v483_n7390_14_f3.png</text>
<text xml:space="preserve" text-anchor="start" x="540.25" y="-392" font-family="Arial" font-size="11.00">Node&#45;link &#160;| &#160;VC = 0.70</text>
<path fill="#b8e6b8" stroke="none" d="M386,-367C386,-367 394,-367 394,-367 397,-367 400,-370 400,-373 400,-373 400,-379 400,-379 400,-382 397,-385 394,-385 394,-385 386,-385 386,-385 383,-385 380,-382 380,-379 380,-379 380,-373 380,-373 380,-370 383,-367 386,-367"/>
<path fill="none" stroke="black" d="M386,-367C386,-367 394,-367 394,-367 397,-367 400,-370 400,-373 400,-373 400,-379 400,-379 400,-382 397,-385 394,-385 394,-385 386,-385 386,-385 383,-385 380,-382 380,-379 380,-379 380,-373 380,-373 380,-370 383,-367 386,-367"/>
<text xml:space="preserve" text-anchor="start" x="388.5" y="-372.25" font-family="Arial" font-size="10.00"> </text>
<text xml:space="preserve" text-anchor="start" x="404" y="-372.25" font-family="Arial" font-size="10.00">Object</text>
<path fill="#c7b8e6" stroke="none" d="M442.5,-367C442.5,-367 450.5,-367 450.5,-367 453.5,-367 456.5,-370 456.5,-373 456.5,-373 456.5,-379 456.5,-379 456.5,-382 453.5,-385 450.5,-385 450.5,-385 442.5,-385 442.5,-385 439.5,-385 436.5,-382 436.5,-379 436.5,-379 436.5,-373 436.5,-373 436.5,-370 439.5,-367 442.5,-367"/>
<path fill="none" stroke="black" d="M442.5,-367C442.5,-367 450.5,-367 450.5,-367 453.5,-367 456.5,-370 456.5,-373 456.5,-373 456.5,-379 456.5,-379 456.5,-382 453.5,-385 450.5,-385 450.5,-385 442.5,-385 442.5,-385 439.5,-385 436.5,-382 436.5,-379 436.5,-379 436.5,-373 436.5,-373 436.5,-370 439.5,-367 442.5,-367"/>
<text xml:space="preserve" text-anchor="start" x="445" y="-372.25" font-family="Arial" font-size="10.00"> </text>
<text xml:space="preserve" text-anchor="start" x="460.5" y="-372.25" font-family="Arial" font-size="10.00">Attribute</text>
<path fill="#f5b8b8" stroke="none" d="M507.25,-367C507.25,-367 515.25,-367 515.25,-367 518.25,-367 521.25,-370 521.25,-373 521.25,-373 521.25,-379 521.25,-379 521.25,-382 518.25,-385 515.25,-385 515.25,-385 507.25,-385 507.25,-385 504.25,-385 501.25,-382 501.25,-379 501.25,-379 501.25,-373 501.25,-373 501.25,-370 504.25,-367 507.25,-367"/>
<path fill="none" stroke="black" d="M507.25,-367C507.25,-367 515.25,-367 515.25,-367 518.25,-367 521.25,-370 521.25,-373 521.25,-373 521.25,-379 521.25,-379 521.25,-382 518.25,-385 515.25,-385 515.25,-385 507.25,-385 507.25,-385 504.25,-385 501.25,-382 501.25,-379 501.25,-379 501.25,-373 501.25,-373 501.25,-370 504.25,-367 507.25,-367"/>
<text xml:space="preserve" text-anchor="start" x="509.75" y="-372.25" font-family="Arial" font-size="10.00"> </text>
<text xml:space="preserve" text-anchor="start" x="525.25" y="-372.25" font-family="Arial" font-size="10.00">Relationship</text>
<text xml:space="preserve" text-anchor="start" x="585.25" y="-373.5" font-family="Arial" font-weight="bold" font-size="10.00">(+)</text>
<text xml:space="preserve" text-anchor="start" x="597.25" y="-373.5" font-family="Arial" font-size="10.00"> increases complexity</text>
<text xml:space="preserve" text-anchor="start" x="698.5" y="-373.5" font-family="Arial" font-weight="bold" font-size="10.00">(−)</text>
<text xml:space="preserve" text-anchor="start" x="710.5" y="-373.5" font-family="Arial" font-size="10.00"> decreases complexity</text>
<!-- unknown.phylogenetic_tree -->
<g id="node1" class="node">
<title>unknown.phylogenetic_tree</title>
<path fill="#b8e6b8" stroke="#2c3e50" stroke-width="1.8" d="M659,-134C659,-134 592.75,-134 592.75,-134 586.75,-134 580.75,-128 580.75,-122 580.75,-122 580.75,-110 580.75,-110 580.75,-104 586.75,-98 592.75,-98 592.75,-98 659,-98 659,-98 665,-98 671,-104 671,-110 671,-110 671,-122 671,-122 671,-128 665,-134 659,-134"/>
<text xml:space="preserve" text-anchor="middle" x="625.88" y="-112.5" font-family="Arial" font-size="10.00" fill="#1a1a1a">phylogenetic tree</text>
</g>
<!-- attr_0 -->
<g id="node6" class="node">
<title>attr_0</title>
<path fill="#c7b8e6" stroke="#7f8c8d" stroke-width="1.2" d="M849.25,-231C849.25,-231 740.25,-231 740.25,-231 734.25,-231 728.25,-225 728.25,-219 728.25,-219 728.25,-207 728.25,-207 728.25,-201 734.25,-195 740.25,-195 740.25,-195 849.25,-195 849.25,-195 855.25,-195 861.25,-201 861.25,-207 861.25,-207 861.25,-219 861.25,-219 861.25,-225 855.25,-231 849.25,-231"/>
<text xml:space="preserve" text-anchor="middle" x="794.75" y="-209.5" font-family="Arial" font-size="10.00" fill="#1a1a1a">(+) domain specific biology</text>
</g>
<!-- unknown.phylogenetic_tree&#45;&gt;attr_0 -->
<g id="edge1" class="edge">
<title>unknown.phylogenetic_tree&#45;&gt;attr_0</title>
<path fill="none" stroke="#aaaaaa" d="M648.7,-134.8C665.7,-148.8 690.3,-167.7 714,-181 720.4,-184.59 727.29,-187.98 734.24,-191.12"/>
<polygon fill="#aaaaaa" stroke="#aaaaaa" points="733,-193.26 740.4,-193.82 734.97,-188.77 733,-193.26"/>
</g>
<!-- attr_1 -->
<g id="node7" class="node">
<title>attr_1</title>
<path fill="#c7b8e6" stroke="#7f8c8d" stroke-width="1.2" d="M863.5,-166C863.5,-166 726,-166 726,-166 720,-166 714,-160 714,-154 714,-154 714,-142 714,-142 714,-136 720,-130 726,-130 726,-130 863.5,-130 863.5,-130 869.5,-130 875.5,-136 875.5,-142 875.5,-142 875.5,-154 875.5,-154 875.5,-160 869.5,-166 863.5,-166"/>
<text xml:space="preserve" text-anchor="middle" x="794.75" y="-144.5" font-family="Arial" font-size="10.00" fill="#1a1a1a">(+) complex hierarchical structure</text>
</g>
<!-- unknown.phylogenetic_tree&#45;&gt;attr_1 -->
<g id="edge2" class="edge">
<title>unknown.phylogenetic_tree&#45;&gt;attr_1</title>
<path fill="none" stroke="#aaaaaa" d="M671.59,-124.58C682.11,-126.59 693.67,-128.81 705.36,-131.05"/>
<polygon fill="#aaaaaa" stroke="#aaaaaa" points="704.65,-133.41 711.98,-132.32 705.57,-128.6 704.65,-133.41"/>
</g>
<!-- attr_6 -->
<g id="node8" class="node">
<title>attr_6</title>
<path fill="#c7b8e6" stroke="#7f8c8d" stroke-width="1.2" d="M855.25,-101C855.25,-101 734.25,-101 734.25,-101 728.25,-101 722.25,-95 722.25,-89 722.25,-89 722.25,-77 722.25,-77 722.25,-71 728.25,-65 734.25,-65 734.25,-65 855.25,-65 855.25,-65 861.25,-65 867.25,-71 867.25,-77 867.25,-77 867.25,-89 867.25,-89 867.25,-95 861.25,-101 855.25,-101"/>
<text xml:space="preserve" text-anchor="middle" x="794.75" y="-79.5" font-family="Arial" font-size="10.00" fill="#1a1a1a">(+) requires expert knowledge</text>
</g>
<!-- unknown.phylogenetic_tree&#45;&gt;attr_6 -->
<g id="edge3" class="edge">
<title>unknown.phylogenetic_tree&#45;&gt;attr_6</title>
<path fill="none" stroke="#aaaaaa" d="M671.59,-107.16C684.63,-104.58 699.28,-101.68 713.79,-98.81"/>
<polygon fill="#aaaaaa" stroke="#aaaaaa" points="713.95,-101.28 720.34,-97.52 713,-96.47 713.95,-101.28"/>
</g>
<!-- rel_2 -->
<g id="node15" class="node">
<title>rel_2</title>
<path fill="#f5b8b8" stroke="#d46a6a" stroke-width="1.2" d="M836.5,-36C836.5,-36 753,-36 753,-36 747,-36 741,-30 741,-24 741,-24 741,-12 741,-12 741,-6 747,0 753,0 753,0 836.5,0 836.5,0 842.5,0 848.5,-6 848.5,-12 848.5,-12 848.5,-24 848.5,-24 848.5,-30 842.5,-36 836.5,-36"/>
<text xml:space="preserve" text-anchor="middle" x="794.75" y="-14.5" font-family="Arial" font-size="10.00" fill="#8b0000">requires expertise for</text>
</g>
<!-- unknown.phylogenetic_tree&#45;&gt;rel_2 -->
<g id="edge12" class="edge">
<title>unknown.phylogenetic_tree&#45;&gt;rel_2</title>
<path fill="none" stroke="#d46a6a" stroke-width="1.5" d="M648.3,-97.18C665.28,-82.92 690.05,-63.55 714,-50 719.84,-46.69 726.1,-43.56 732.44,-40.64"/>
<polygon fill="#d46a6a" stroke="#d46a6a" stroke-width="1.5" points="733.49,-43.24 739.68,-37.44 731.23,-38.11 733.49,-43.24"/>
</g>
<!-- unknown.branch -->
<g id="node2" class="node">
<title>unknown.branch</title>
<path fill="#b8e6b8" stroke="#2c3e50" stroke-width="1.8" d="M640.88,-328C640.88,-328 610.88,-328 610.88,-328 604.88,-328 598.88,-322 598.88,-316 598.88,-316 598.88,-304 598.88,-304 598.88,-298 604.88,-292 610.88,-292 610.88,-292 640.88,-292 640.88,-292 646.88,-292 652.88,-298 652.88,-304 652.88,-304 652.88,-316 652.88,-316 652.88,-322 646.88,-328 640.88,-328"/>
<text xml:space="preserve" text-anchor="middle" x="625.88" y="-306.5" font-family="Arial" font-size="10.00" fill="#1a1a1a">branch</text>
</g>
<!-- attr_2 -->
<g id="node9" class="node">
<title>attr_2</title>
<path fill="#c7b8e6" stroke="#7f8c8d" stroke-width="1.2" d="M855.62,-361C855.62,-361 733.88,-361 733.88,-361 727.88,-361 721.88,-355 721.88,-349 721.88,-349 721.88,-337 721.88,-337 721.88,-331 727.88,-325 733.88,-325 733.88,-325 855.62,-325 855.62,-325 861.62,-325 867.62,-331 867.62,-337 867.62,-337 867.62,-349 867.62,-349 867.62,-355 861.62,-361 855.62,-361"/>
<text xml:space="preserve" text-anchor="middle" x="794.75" y="-339.5" font-family="Arial" font-size="10.00" fill="#1a1a1a">(+) numerous branching paths</text>
</g>
<!-- unknown.branch&#45;&gt;attr_2 -->
<g id="edge4" class="edge">
<title>unknown.branch&#45;&gt;attr_2</title>
<path fill="none" stroke="#aaaaaa" d="M653.69,-315.3C670.03,-318.53 691.85,-322.85 713.4,-327.11"/>
<polygon fill="#aaaaaa" stroke="#aaaaaa" points="712.81,-329.49 720.15,-328.44 713.76,-324.68 712.81,-329.49"/>
</g>
<!-- rel_0 -->
<g id="node13" class="node">
<title>rel_0</title>
<path fill="#f5b8b8" stroke="#d46a6a" stroke-width="1.2" d="M817,-296C817,-296 772.5,-296 772.5,-296 766.5,-296 760.5,-290 760.5,-284 760.5,-284 760.5,-272 760.5,-272 760.5,-266 766.5,-260 772.5,-260 772.5,-260 817,-260 817,-260 823,-260 829,-266 829,-272 829,-272 829,-284 829,-284 829,-290 823,-296 817,-296"/>
<text xml:space="preserve" text-anchor="middle" x="794.75" y="-274.5" font-family="Arial" font-size="10.00" fill="#8b0000">encodes via</text>
</g>
<!-- unknown.branch&#45;&gt;rel_0 -->
<g id="edge8" class="edge">
<title>unknown.branch&#45;&gt;rel_0</title>
<path fill="none" stroke="#d46a6a" stroke-width="1.5" d="M653.69,-304.86C679.68,-299.87 719.55,-292.23 750.11,-286.37"/>
<polygon fill="#d46a6a" stroke="#d46a6a" stroke-width="1.5" points="750.53,-289.14 757.86,-284.88 749.48,-283.64 750.53,-289.14"/>
</g>
<!-- mark.node -->
<g id="node3" class="node">
<title>mark.node</title>
<path fill="#b8e6b8" stroke="#2c3e50" stroke-width="1.8" d="M42,-198C42,-198 12,-198 12,-198 6,-198 0,-192 0,-186 0,-186 0,-174 0,-174 0,-168 6,-162 12,-162 12,-162 42,-162 42,-162 48,-162 54,-168 54,-174 54,-174 54,-186 54,-186 54,-192 48,-198 42,-198"/>
<text xml:space="preserve" text-anchor="middle" x="27" y="-176.5" font-family="Arial" font-size="10.00" fill="#1a1a1a">node</text>
</g>
<!-- attr_3 -->
<g id="node10" class="node">
<title>attr_3</title>
<path fill="#c7b8e6" stroke="#7f8c8d" stroke-width="1.2" d="M219.5,-231C219.5,-231 109,-231 109,-231 103,-231 97,-225 97,-219 97,-219 97,-207 97,-207 97,-201 103,-195 109,-195 109,-195 219.5,-195 219.5,-195 225.5,-195 231.5,-201 231.5,-207 231.5,-207 231.5,-219 231.5,-219 231.5,-225 225.5,-231 219.5,-231"/>
<text xml:space="preserve" text-anchor="middle" x="164.25" y="-209.5" font-family="Arial" font-size="10.00" fill="#1a1a1a">(+) many divergence points</text>
</g>
<!-- mark.node&#45;&gt;attr_3 -->
<g id="edge5" class="edge">
<title>mark.node&#45;&gt;attr_3</title>
<path fill="none" stroke="#aaaaaa" d="M54.72,-186.52C64.64,-188.94 76.43,-191.82 88.53,-194.77"/>
<polygon fill="#aaaaaa" stroke="#aaaaaa" points="87.66,-197.08 95.04,-196.36 88.82,-192.32 87.66,-197.08"/>
</g>
<!-- rel_1 -->
<g id="node14" class="node">
<title>rel_1</title>
<path fill="#f5b8b8" stroke="#d46a6a" stroke-width="1.2" d="M186.5,-166C186.5,-166 142,-166 142,-166 136,-166 130,-160 130,-154 130,-154 130,-142 130,-142 130,-136 136,-130 142,-130 142,-130 186.5,-130 186.5,-130 192.5,-130 198.5,-136 198.5,-142 198.5,-142 198.5,-154 198.5,-154 198.5,-160 192.5,-166 186.5,-166"/>
<text xml:space="preserve" text-anchor="middle" x="164.25" y="-144.5" font-family="Arial" font-size="10.00" fill="#8b0000">overwhelms</text>
</g>
<!-- mark.node&#45;&gt;rel_1 -->
<g id="edge10" class="edge">
<title>mark.node&#45;&gt;rel_1</title>
<path fill="none" stroke="#d46a6a" stroke-width="1.5" d="M54.72,-173.68C73.33,-169.28 98.56,-163.31 120.01,-158.23"/>
<polygon fill="#d46a6a" stroke="#d46a6a" stroke-width="1.5" points="120.52,-160.99 127.66,-156.42 119.23,-155.54 120.52,-160.99"/>
</g>
<!-- unknown.species_label -->
<g id="node4" class="node">
<title>unknown.species_label</title>
<path fill="#b8e6b8" stroke="#2c3e50" stroke-width="1.8" d="M335.5,-166C335.5,-166 286.5,-166 286.5,-166 280.5,-166 274.5,-160 274.5,-154 274.5,-154 274.5,-142 274.5,-142 274.5,-136 280.5,-130 286.5,-130 286.5,-130 335.5,-130 335.5,-130 341.5,-130 347.5,-136 347.5,-142 347.5,-142 347.5,-154 347.5,-154 347.5,-160 341.5,-166 335.5,-166"/>
<text xml:space="preserve" text-anchor="middle" x="311" y="-144.5" font-family="Arial" font-size="10.00" fill="#1a1a1a">species label</text>
</g>
<!-- attr_4 -->
<g id="node11" class="node">
<title>attr_4</title>
<path fill="#c7b8e6" stroke="#7f8c8d" stroke-width="1.2" d="M525.75,-199C525.75,-199 402.5,-199 402.5,-199 396.5,-199 390.5,-193 390.5,-187 390.5,-187 390.5,-175 390.5,-175 390.5,-169 396.5,-163 402.5,-163 402.5,-163 525.75,-163 525.75,-163 531.75,-163 537.75,-169 537.75,-175 537.75,-175 537.75,-187 537.75,-187 537.75,-193 531.75,-199 525.75,-199"/>
<text xml:space="preserve" text-anchor="middle" x="464.12" y="-177.5" font-family="Arial" font-size="10.00" fill="#1a1a1a">(+) dense species annotations</text>
</g>
<!-- unknown.species_label&#45;&gt;attr_4 -->
<g id="edge6" class="edge">
<title>unknown.species_label&#45;&gt;attr_4</title>
<path fill="none" stroke="#aaaaaa" d="M348.2,-155.9C358.49,-158.15 370.12,-160.69 381.95,-163.27"/>
<polygon fill="#aaaaaa" stroke="#aaaaaa" points="381.31,-165.64 388.67,-164.74 382.35,-160.85 381.31,-165.64"/>
</g>
<!-- rel_3 -->
<g id="node16" class="node">
<title>rel_3</title>
<path fill="#f5b8b8" stroke="#d46a6a" stroke-width="1.2" d="M518.62,-134C518.62,-134 409.62,-134 409.62,-134 403.62,-134 397.62,-128 397.62,-122 397.62,-122 397.62,-110 397.62,-110 397.62,-104 403.62,-98 409.62,-98 409.62,-98 518.62,-98 518.62,-98 524.62,-98 530.62,-104 530.62,-110 530.62,-110 530.62,-122 530.62,-122 530.62,-128 524.62,-134 518.62,-134"/>
<text xml:space="preserve" text-anchor="middle" x="464.12" y="-112.5" font-family="Arial" font-size="10.00" fill="#8b0000">increases processing effort</text>
</g>
<!-- unknown.species_label&#45;&gt;rel_3 -->
<g id="edge14" class="edge">
<title>unknown.species_label&#45;&gt;rel_3</title>
<path fill="none" stroke="#d46a6a" stroke-width="1.5" d="M348.2,-140.34C360,-137.84 373.59,-134.96 387.19,-132.08"/>
<polygon fill="#d46a6a" stroke="#d46a6a" stroke-width="1.5" points="387.6,-134.85 394.85,-130.46 386.44,-129.38 387.6,-134.85"/>
</g>
<!-- unknown.lineage_path -->
<g id="node5" class="node">
<title>unknown.lineage_path</title>
<path fill="#b8e6b8" stroke="#2c3e50" stroke-width="1.8" d="M975,-166C975,-166 930.5,-166 930.5,-166 924.5,-166 918.5,-160 918.5,-154 918.5,-154 918.5,-142 918.5,-142 918.5,-136 924.5,-130 930.5,-130 930.5,-130 975,-130 975,-130 981,-130 987,-136 987,-142 987,-142 987,-154 987,-154 987,-160 981,-166 975,-166"/>
<text xml:space="preserve" text-anchor="middle" x="952.75" y="-144.5" font-family="Arial" font-size="10.00" fill="#1a1a1a">lineage path</text>
</g>
<!-- attr_5 -->
<g id="node12" class="node">
<title>attr_5</title>
<path fill="#c7b8e6" stroke="#7f8c8d" stroke-width="1.2" d="M1178.75,-166C1178.75,-166 1042,-166 1042,-166 1036,-166 1030,-160 1030,-154 1030,-154 1030,-142 1030,-142 1030,-136 1036,-130 1042,-130 1042,-130 1178.75,-130 1178.75,-130 1184.75,-130 1190.75,-136 1190.75,-142 1190.75,-142 1190.75,-154 1190.75,-154 1190.75,-160 1184.75,-166 1178.75,-166"/>
<text xml:space="preserve" text-anchor="middle" x="1110.38" y="-144.5" font-family="Arial" font-size="10.00" fill="#1a1a1a">(+) complex evolutionary tracking</text>
</g>
<!-- unknown.lineage_path&#45;&gt;attr_5 -->
<g id="edge7" class="edge">
<title>unknown.lineage_path&#45;&gt;attr_5</title>
<path fill="none" stroke="#aaaaaa" d="M987.52,-148C997.69,-148 1009.35,-148 1021.35,-148"/>
<polygon fill="#aaaaaa" stroke="#aaaaaa" points="1021.18,-150.45 1028.18,-148 1021.18,-145.55 1021.18,-150.45"/>
</g>
<!-- rel_0&#45;&gt;unknown.lineage_path -->
<g id="edge9" class="edge">
<title>rel_0&#45;&gt;unknown.lineage_path</title>
<path fill="none" stroke="#d46a6a" stroke-width="1.5" d="M829.21,-268.96C844.31,-263.83 861.8,-256.32 875.5,-246 900.96,-226.82 922.45,-197.1 936.06,-175.41"/>
<polygon fill="#d46a6a" stroke="#d46a6a" stroke-width="1.5" points="938.44,-176.89 940.22,-168.61 933.66,-173.98 938.44,-176.89"/>
</g>
<!-- rel_1&#45;&gt;unknown.species_label -->
<g id="edge11" class="edge">
<title>rel_1&#45;&gt;unknown.species_label</title>
<path fill="none" stroke="#d46a6a" stroke-width="1.5" d="M198.82,-148C218.13,-148 242.67,-148 263.77,-148"/>
<polygon fill="#d46a6a" stroke="#d46a6a" stroke-width="1.5" points="263.55,-150.8 271.55,-148 263.55,-145.2 263.55,-150.8"/>
</g>
<!-- rel_2&#45;&gt;unknown.lineage_path -->
<g id="edge13" class="edge">
<title>rel_2&#45;&gt;unknown.lineage_path</title>
<path fill="none" stroke="#d46a6a" stroke-width="1.5" d="M848.92,-34.74C858.25,-38.93 867.52,-43.99 875.5,-50 900.96,-69.18 922.45,-98.9 936.06,-120.59"/>
<polygon fill="#d46a6a" stroke="#d46a6a" stroke-width="1.5" points="933.66,-122.02 940.22,-127.39 938.44,-119.11 933.66,-122.02"/>
</g>
<!-- rel_3&#45;&gt;unknown.phylogenetic_tree -->
<g id="edge15" class="edge">
<title>rel_3&#45;&gt;unknown.phylogenetic_tree</title>
<path fill="none" stroke="#d46a6a" stroke-width="1.5" d="M531.02,-116C543.92,-116 557.31,-116 569.8,-116"/>
<polygon fill="#d46a6a" stroke="#d46a6a" stroke-width="1.5" points="569.79,-118.8 577.79,-116 569.79,-113.2 569.79,-118.8"/>
</g>
</g>
</svg>
