<?xml version="1.0" encoding="UTF-8" standalone="no"?>
<!DOCTYPE svg PUBLIC "-//W3C//DTD SVG 1.1//EN"
 "http://www.w3.org/Graphics/SVG/1.1/DTD/svg11.dtd">
<!-- Generated by graphviz version 14.1.5 (20260411.2331)
 -->
<!-- Title: v484_n7392_9_f3.png Pages: 1 -->
<svg width="556pt" height="499pt"
 viewBox="0.00 0.00 556.00 499.00" xmlns="http://www.w3.org/2000/svg" xmlns:xlink="http://www.w3.org/1999/xlink">
<g id="graph0" class="graph" transform="scale(1 1) rotate(0) translate(4 495.25)">
<title>v484_n7392_9_f3.png</title>
<polygon fill="white" stroke="none" points="-4,4 -4,-495.25 552.25,-495.25 552.25,4 -4,4"/>
<text xml:space="preserve" text-anchor="start" x="204.75" y="-470.95" font-family="Arial" font-weight="bold" font-size="14.00">v484_n7392_9_f3.png</text>
<text xml:space="preserve" text-anchor="start" x="231.75" y="-451" font-family="Arial" font-size="11.00">Line &#160;| &#160;VC = 0.67</text>
<path fill="#b8e6b8" stroke="none" d="M64.75,-426C64.75,-426 72.75,-426 72.75,-426 75.75,-426 78.75,-429 78.75,-432 78.75,-432 78.75,-438 78.75,-438 78.75,-441 75.75,-444 72.75,-444 72.75,-444 64.75,-444 64.75,-444 61.75,-444 58.75,-441 58.75,-438 58.75,-438 58.75,-432 58.75,-432 58.75,-429 61.75,-426 64.75,-426"/>
<path fill="none" stroke="black" d="M64.75,-426C64.75,-426 72.75,-426 72.75,-426 75.75,-426 78.75,-429 78.75,-432 78.75,-432 78.75,-438 78.75,-438 78.75,-441 75.75,-444 72.75,-444 72.75,-444 64.75,-444 64.75,-444 61.75,-444 58.75,-441 58.75,-438 58.75,-438 58.75,-432 58.75,-432 58.75,-429 61.75,-426 64.75,-426"/>
<text xml:space="preserve" text-anchor="start" x="67.25" y="-431.25" font-family="Arial" font-size="10.00"> </text>
<text xml:space="preserve" text-anchor="start" x="82.75" y="-431.25" font-family="Arial" font-size="10.00">Object</text>
<path fill="#c7b8e6" stroke="none" d="M121.25,-426C121.25,-426 129.25,-426 129.25,-426 132.25,-426 135.25,-429 135.25,-432 135.25,-432 135.25,-438 135.25,-438 135.25,-441 132.25,-444 129.25,-444 129.25,-444 121.25,-444 121.25,-444 118.25,-444 115.25,-441 115.25,-438 115.25,-438 115.25,-432 115.25,-432 115.25,-429 118.25,-426 121.25,-426"/>
<path fill="none" stroke="black" d="M121.25,-426C121.25,-426 129.25,-426 129.25,-426 132.25,-426 135.25,-429 135.25,-432 135.25,-432 135.25,-438 135.25,-438 135.25,-441 132.25,-444 129.25,-444 129.25,-444 121.25,-444 121.25,-444 118.25,-444 115.25,-441 115.25,-438 115.25,-438 115.25,-432 115.25,-432 115.25,-429 118.25,-426 121.25,-426"/>
<text xml:space="preserve" text-anchor="start" x="123.75" y="-431.25" font-family="Arial" font-size="10.00"> </text>
<text xml:space="preserve" text-anchor="start" x="139.25" y="-431.25" font-family="Arial" font-size="10.00">Attribute</text>
<path fill="#f5b8b8" stroke="none" d="M186,-426C186,-426 194,-426 194,-426 197,-426 200,-429 200,-432 200,-432 200,-438 200,-438 200,-441 197,-444 194,-444 194,-444 186,-444 186,-444 183,-444 180,-441 180,-438 180,-438 180,-432 180,-432 180,-429 183,-426 186,-426"/>
<path fill="none" stroke="black" d="M186,-426C186,-426 194,-426 194,-426 197,-426 200,-429 200,-432 200,-432 200,-438 200,-438 200,-441 197,-444 194,-444 194,-444 186,-444 186,-444 183,-444 180,-441 180,-438 180,-438 180,-432 180,-432 180,-429 183,-426 186,-426"/>
<text xml:space="preserve" text-anchor="start" x="188.5" y="-431.25" font-family="Arial" font-size="10.00"> </text>
<text xml:space="preserve" text-anchor="start" x="204" y="-431.25" font-family="Arial" font-size="10.00">Relationship</text>
<text xml:space="preserve" text-anchor="start" x="264" y="-432.5" font-family="Arial" font-weight="bold" font-size="10.00">(+)</text>
<text xml:space="preserve" text-anchor="start" x="276" y="-432.5" font-family="Arial" font-size="10.00"> increases complexity</text>
<text xml:space="preserve" text-anchor="start" x="377.25" y="-432.5" font-family="Arial" font-weight="bold" font-size="10.00">(−)</text>
<text xml:space="preserve" text-anchor="start" x="389.25" y="-432.5" font-family="Arial" font-size="10.00"> decreases complexity</text>
<!-- unknown.lines -->
<g id="node1" class="node">
<title>unknown.lines</title>
<path fill="#b8e6b8" stroke="#2c3e50" stroke-width="1.8" d="M54.88,-296C54.88,-296 24.88,-296 24.88,-296 18.88,-296 12.88,-290 12.88,-284 12.88,-284 12.88,-272 12.88,-272 12.88,-266 18.88,-260 24.88,-260 24.88,-260 54.88,-260 54.88,-260 60.88,-260 66.88,-266 66.88,-272 66.88,-272 66.88,-284 66.88,-284 66.88,-290 60.88,-296 54.88,-296"/>
<text xml:space="preserve" text-anchor="middle" x="39.88" y="-274.5" font-family="Arial" font-size="10.00" fill="#1a1a1a">lines</text>
</g>
<!-- attr_0 -->
<g id="node6" class="node">
<title>attr_0</title>
<path fill="#c7b8e6" stroke="#7f8c8d" stroke-width="1.2" d="M246.38,-296C246.38,-296 139.62,-296 139.62,-296 133.62,-296 127.62,-290 127.62,-284 127.62,-284 127.62,-272 127.62,-272 127.62,-266 133.62,-260 139.62,-260 139.62,-260 246.38,-260 246.38,-260 252.38,-260 258.38,-266 258.38,-272 258.38,-272 258.38,-284 258.38,-284 258.38,-290 252.38,-296 246.38,-296"/>
<text xml:space="preserve" text-anchor="middle" x="193" y="-274.5" font-family="Arial" font-size="10.00" fill="#1a1a1a">(+) many overlapping lines</text>
</g>
<!-- unknown.lines&#45;&gt;attr_0 -->
<g id="edge1" class="edge">
<title>unknown.lines&#45;&gt;attr_0</title>
<path fill="none" stroke="#aaaaaa" d="M67.55,-278C81.95,-278 100.5,-278 118.87,-278"/>
<polygon fill="#aaaaaa" stroke="#aaaaaa" points="118.76,-280.45 125.76,-278 118.76,-275.55 118.76,-280.45"/>
</g>
<!-- attr_1 -->
<g id="node7" class="node">
<title>attr_1</title>
<path fill="#c7b8e6" stroke="#7f8c8d" stroke-width="1.2" d="M248.25,-231C248.25,-231 137.75,-231 137.75,-231 131.75,-231 125.75,-225 125.75,-219 125.75,-219 125.75,-207 125.75,-207 125.75,-201 131.75,-195 137.75,-195 137.75,-195 248.25,-195 248.25,-195 254.25,-195 260.25,-201 260.25,-207 260.25,-207 260.25,-219 260.25,-219 260.25,-225 254.25,-231 248.25,-231"/>
<text xml:space="preserve" text-anchor="middle" x="193" y="-209.5" font-family="Arial" font-size="10.00" fill="#1a1a1a">(+) multiple different results</text>
</g>
<!-- unknown.lines&#45;&gt;attr_1 -->
<g id="edge2" class="edge">
<title>unknown.lines&#45;&gt;attr_1</title>
<path fill="none" stroke="#aaaaaa" d="M67.55,-266.53C87.97,-257.74 116.75,-245.36 141.49,-234.72"/>
<polygon fill="#aaaaaa" stroke="#aaaaaa" points="142.17,-237.1 147.64,-232.08 140.24,-232.6 142.17,-237.1"/>
</g>
<!-- rel_0 -->
<g id="node11" class="node">
<title>rel_0</title>
<path fill="#f5b8b8" stroke="#d46a6a" stroke-width="1.2" d="M230.25,-166C230.25,-166 155.75,-166 155.75,-166 149.75,-166 143.75,-160 143.75,-154 143.75,-154 143.75,-142 143.75,-142 143.75,-136 149.75,-130 155.75,-130 155.75,-130 230.25,-130 230.25,-130 236.25,-130 242.25,-136 242.25,-142 242.25,-142 242.25,-154 242.25,-154 242.25,-160 236.25,-166 230.25,-166"/>
<text xml:space="preserve" text-anchor="middle" x="193" y="-144.5" font-family="Arial" font-size="10.00" fill="#8b0000">increases clutter in</text>
</g>
<!-- unknown.lines&#45;&gt;rel_0 -->
<g id="edge6" class="edge">
<title>unknown.lines&#45;&gt;rel_0</title>
<path fill="none" stroke="#d46a6a" stroke-width="1.5" d="M52.77,-259.25C67.16,-237.78 93.19,-202.65 122.75,-180 126.79,-176.91 131.17,-174.02 135.7,-171.35"/>
<polygon fill="#d46a6a" stroke="#d46a6a" stroke-width="1.5" points="136.91,-173.89 142.57,-167.58 134.21,-168.98 136.91,-173.89"/>
</g>
<!-- rel_2 -->
<g id="node13" class="node">
<title>rel_2</title>
<path fill="#f5b8b8" stroke="#d46a6a" stroke-width="1.2" d="M250.88,-420C250.88,-420 135.12,-420 135.12,-420 129.12,-420 123.12,-414 123.12,-408 123.12,-408 123.12,-396 123.12,-396 123.12,-390 129.12,-384 135.12,-384 135.12,-384 250.88,-384 250.88,-384 256.88,-384 262.88,-390 262.88,-396 262.88,-396 262.88,-408 262.88,-408 262.88,-414 256.88,-420 250.88,-420"/>
<text xml:space="preserve" text-anchor="middle" x="193" y="-398.5" font-family="Arial" font-size="10.00" fill="#8b0000">requires effort to differentiate</text>
</g>
<!-- unknown.lines&#45;&gt;rel_2 -->
<g id="edge10" class="edge">
<title>unknown.lines&#45;&gt;rel_2</title>
<path fill="none" stroke="#d46a6a" stroke-width="1.5" d="M64.05,-296.58C69.36,-301.14 74.88,-306.11 79.75,-311 100.68,-332 100.02,-342.97 122.75,-362 129.79,-367.89 137.8,-373.41 145.83,-378.35"/>
<polygon fill="#d46a6a" stroke="#d46a6a" stroke-width="1.5" points="144.23,-380.65 152.54,-382.32 147.08,-375.83 144.23,-380.65"/>
</g>
<!-- unknown.scale_numbers -->
<g id="node2" class="node">
<title>unknown.scale_numbers</title>
<path fill="#b8e6b8" stroke="#2c3e50" stroke-width="1.8" d="M67.75,-69C67.75,-69 12,-69 12,-69 6,-69 0,-63 0,-57 0,-57 0,-45 0,-45 0,-39 6,-33 12,-33 12,-33 67.75,-33 67.75,-33 73.75,-33 79.75,-39 79.75,-45 79.75,-45 79.75,-57 79.75,-57 79.75,-63 73.75,-69 67.75,-69"/>
<text xml:space="preserve" text-anchor="middle" x="39.88" y="-47.5" font-family="Arial" font-size="10.00" fill="#1a1a1a">scale numbers</text>
</g>
<!-- attr_2 -->
<g id="node8" class="node">
<title>attr_2</title>
<path fill="#c7b8e6" stroke="#7f8c8d" stroke-width="1.2" d="M251.25,-36C251.25,-36 134.75,-36 134.75,-36 128.75,-36 122.75,-30 122.75,-24 122.75,-24 122.75,-12 122.75,-12 122.75,-6 128.75,0 134.75,0 134.75,0 251.25,0 251.25,0 257.25,0 263.25,-6 263.25,-12 263.25,-12 263.25,-24 263.25,-24 263.25,-30 257.25,-36 251.25,-36"/>
<text xml:space="preserve" text-anchor="middle" x="193" y="-14.5" font-family="Arial" font-size="10.00" fill="#1a1a1a">(+) numerous scale numbers</text>
</g>
<!-- unknown.scale_numbers&#45;&gt;attr_2 -->
<g id="edge3" class="edge">
<title>unknown.scale_numbers&#45;&gt;attr_2</title>
<path fill="none" stroke="#aaaaaa" d="M80.58,-42.33C90.96,-40.06 102.5,-37.54 114.12,-35.01"/>
<polygon fill="#aaaaaa" stroke="#aaaaaa" points="114.37,-37.46 120.69,-33.57 113.33,-32.67 114.37,-37.46"/>
</g>
<!-- rel_1 -->
<g id="node12" class="node">
<title>rel_1</title>
<path fill="#f5b8b8" stroke="#d46a6a" stroke-width="1.2" d="M215.25,-101C215.25,-101 170.75,-101 170.75,-101 164.75,-101 158.75,-95 158.75,-89 158.75,-89 158.75,-77 158.75,-77 158.75,-71 164.75,-65 170.75,-65 170.75,-65 215.25,-65 215.25,-65 221.25,-65 227.25,-71 227.25,-77 227.25,-77 227.25,-89 227.25,-89 227.25,-95 221.25,-101 215.25,-101"/>
<text xml:space="preserve" text-anchor="middle" x="193" y="-79.5" font-family="Arial" font-size="10.00" fill="#8b0000">overwhelms</text>
</g>
<!-- unknown.scale_numbers&#45;&gt;rel_1 -->
<g id="edge8" class="edge">
<title>unknown.scale_numbers&#45;&gt;rel_1</title>
<path fill="none" stroke="#d46a6a" stroke-width="1.5" d="M80.58,-59.41C101.42,-63.82 126.99,-69.23 148.38,-73.76"/>
<polygon fill="#d46a6a" stroke="#d46a6a" stroke-width="1.5" points="147.56,-76.45 155.97,-75.37 148.72,-70.97 147.56,-76.45"/>
</g>
<!-- text.axis_label -->
<g id="node3" class="node">
<title>text.axis_label</title>
<path fill="#b8e6b8" stroke="#2c3e50" stroke-width="1.8" d="M56.5,-361C56.5,-361 23.25,-361 23.25,-361 17.25,-361 11.25,-355 11.25,-349 11.25,-349 11.25,-337 11.25,-337 11.25,-331 17.25,-325 23.25,-325 23.25,-325 56.5,-325 56.5,-325 62.5,-325 68.5,-331 68.5,-337 68.5,-337 68.5,-349 68.5,-349 68.5,-355 62.5,-361 56.5,-361"/>
<text xml:space="preserve" text-anchor="middle" x="39.88" y="-339.5" font-family="Arial" font-size="10.00" fill="#1a1a1a">axis label</text>
</g>
<!-- furniture.legend -->
<g id="node4" class="node">
<title>furniture.legend</title>
<path fill="#b8e6b8" stroke="#2c3e50" stroke-width="1.8" d="M348.25,-420C348.25,-420 318.25,-420 318.25,-420 312.25,-420 306.25,-414 306.25,-408 306.25,-408 306.25,-396 306.25,-396 306.25,-390 312.25,-384 318.25,-384 318.25,-384 348.25,-384 348.25,-384 354.25,-384 360.25,-390 360.25,-396 360.25,-396 360.25,-408 360.25,-408 360.25,-414 354.25,-420 348.25,-420"/>
<text xml:space="preserve" text-anchor="middle" x="333.25" y="-398.5" font-family="Arial" font-size="10.00" fill="#1a1a1a">legend</text>
</g>
<!-- attr_4 -->
<g id="node9" class="node">
<title>attr_4</title>
<path fill="#c7b8e6" stroke="#7f8c8d" stroke-width="1.2" d="M525.38,-420C525.38,-420 426.12,-420 426.12,-420 420.12,-420 414.12,-414 414.12,-408 414.12,-408 414.12,-396 414.12,-396 414.12,-390 420.12,-384 426.12,-384 426.12,-384 525.38,-384 525.38,-384 531.38,-384 537.38,-390 537.38,-396 537.38,-396 537.38,-408 537.38,-408 537.38,-414 531.38,-420 525.38,-420"/>
<text xml:space="preserve" text-anchor="middle" x="475.75" y="-398.5" font-family="Arial" font-size="10.00" fill="#1a1a1a">(+) multiple entries listed</text>
</g>
<!-- furniture.legend&#45;&gt;attr_4 -->
<g id="edge4" class="edge">
<title>furniture.legend&#45;&gt;attr_4</title>
<path fill="none" stroke="#aaaaaa" d="M361.01,-402C373.75,-402 389.65,-402 405.48,-402"/>
<polygon fill="#aaaaaa" stroke="#aaaaaa" points="405.22,-404.45 412.22,-402 405.22,-399.55 405.22,-404.45"/>
</g>
<!-- whole.visualization -->
<g id="node5" class="node">
<title>whole.visualization</title>
<path fill="#b8e6b8" stroke="#2c3e50" stroke-width="1.8" d="M348.25,-166C348.25,-166 318.25,-166 318.25,-166 312.25,-166 306.25,-160 306.25,-154 306.25,-154 306.25,-142 306.25,-142 306.25,-136 312.25,-130 318.25,-130 318.25,-130 348.25,-130 348.25,-130 354.25,-130 360.25,-136 360.25,-142 360.25,-142 360.25,-154 360.25,-154 360.25,-160 354.25,-166 348.25,-166"/>
<text xml:space="preserve" text-anchor="middle" x="333.25" y="-144.5" font-family="Arial" font-size="10.00" fill="#1a1a1a">chart</text>
</g>
<!-- attr_3 -->
<g id="node10" class="node">
<title>attr_3</title>
<path fill="#c7b8e6" stroke="#7f8c8d" stroke-width="1.2" d="M536.25,-166C536.25,-166 415.25,-166 415.25,-166 409.25,-166 403.25,-160 403.25,-154 403.25,-154 403.25,-142 403.25,-142 403.25,-136 409.25,-130 415.25,-130 415.25,-130 536.25,-130 536.25,-130 542.25,-130 548.25,-136 548.25,-142 548.25,-142 548.25,-154 548.25,-154 548.25,-160 542.25,-166 536.25,-166"/>
<text xml:space="preserve" text-anchor="middle" x="475.75" y="-144.5" font-family="Arial" font-size="10.00" fill="#1a1a1a">(+) dense combined elements</text>
</g>
<!-- whole.visualization&#45;&gt;attr_3 -->
<g id="edge5" class="edge">
<title>whole.visualization&#45;&gt;attr_3</title>
<path fill="none" stroke="#aaaaaa" d="M361.01,-148C370.78,-148 382.39,-148 394.41,-148"/>
<polygon fill="#aaaaaa" stroke="#aaaaaa" points="394.27,-150.45 401.27,-148 394.27,-145.55 394.27,-150.45"/>
</g>
<!-- rel_3 -->
<g id="node14" class="node">
<title>rel_3</title>
<path fill="#f5b8b8" stroke="#d46a6a" stroke-width="1.2" d="M498,-293C498,-293 453.5,-293 453.5,-293 447.5,-293 441.5,-287 441.5,-281 441.5,-281 441.5,-269 441.5,-269 441.5,-263 447.5,-257 453.5,-257 453.5,-257 498,-257 498,-257 504,-257 510,-263 510,-269 510,-269 510,-281 510,-281 510,-287 504,-293 498,-293"/>
<text xml:space="preserve" text-anchor="middle" x="475.75" y="-271.5" font-family="Arial" font-size="10.00" fill="#8b0000">encodes via</text>
</g>
<!-- whole.visualization&#45;&gt;rel_3 -->
<g id="edge12" class="edge">
<title>whole.visualization&#45;&gt;rel_3</title>
<path fill="none" stroke="#d46a6a" stroke-width="1.5" d="M354.98,-166.74C379.3,-188.72 419.72,-225.26 446.79,-249.73"/>
<polygon fill="#d46a6a" stroke="#d46a6a" stroke-width="1.5" points="444.89,-251.79 452.71,-255.07 448.65,-247.63 444.89,-251.79"/>
</g>
<!-- rel_0&#45;&gt;whole.visualization -->
<g id="edge7" class="edge">
<title>rel_0&#45;&gt;whole.visualization</title>
<path fill="none" stroke="#d46a6a" stroke-width="1.5" d="M242.74,-148C260.09,-148 279.31,-148 295.49,-148"/>
<polygon fill="#d46a6a" stroke="#d46a6a" stroke-width="1.5" points="295.35,-150.8 303.35,-148 295.35,-145.2 295.35,-150.8"/>
</g>
<!-- rel_1&#45;&gt;whole.visualization -->
<g id="edge9" class="edge">
<title>rel_1&#45;&gt;whole.visualization</title>
<path fill="none" stroke="#d46a6a" stroke-width="1.5" d="M227.5,-98.37C238.87,-103.62 251.62,-109.53 263.25,-115 274.03,-120.07 285.73,-125.64 296.38,-130.73"/>
<polygon fill="#d46a6a" stroke="#d46a6a" stroke-width="1.5" points="294.95,-133.15 303.37,-134.09 297.37,-128.1 294.95,-133.15"/>
</g>
<!-- rel_2&#45;&gt;furniture.legend -->
<g id="edge11" class="edge">
<title>rel_2&#45;&gt;furniture.legend</title>
<path fill="none" stroke="#d46a6a" stroke-width="1.5" d="M263.12,-402C274.35,-402 285.57,-402 295.61,-402"/>
<polygon fill="#d46a6a" stroke="#d46a6a" stroke-width="1.5" points="295.32,-404.8 303.32,-402 295.32,-399.2 295.32,-404.8"/>
</g>
<!-- rel_3&#45;&gt;unknown.lines -->
<g id="edge13" class="edge">
<title>rel_3&#45;&gt;unknown.lines</title>
<path fill="none" stroke="#d46a6a" stroke-width="1.5" d="M440.97,-284.97C377.91,-302.14 238.24,-333.4 122.75,-311 107.23,-307.99 90.91,-302.04 76.97,-296.02"/>
<polygon fill="#d46a6a" stroke="#d46a6a" stroke-width="1.5" points="78.25,-293.53 69.81,-292.8 75.96,-298.63 78.25,-293.53"/>
</g>
</g>
</svg>
