<?xml version="1.0" encoding="UTF-8" standalone="no"?>
<!DOCTYPE svg PUBLIC "-//W3C//DTD SVG 1.1//EN"
 "http://www.w3.org/Graphics/SVG/1.1/DTD/svg11.dtd">
<!-- Generated by graphviz version 14.1.5 (20260411.2331)
 -->
<!-- Title: v485_n7400_14_f2.png Pages: 1 -->
<svg width="519pt" height="570pt"
 viewBox="0.00 0.00 519.00 570.00" xmlns="http://www.w3.org/2000/svg" xmlns:xlink="http://www.w3.org/1999/xlink">
<g id="graph0" class="graph" transform="scale(1 1) rotate(0) translate(4 566.25)">
<title>v485_n7400_14_f2.png</title>
<polygon fill="white" stroke="none" points="-4,4 -4,-566.25 515,-566.25 515,4 -4,4"/>
<text xml:space="preserve" text-anchor="start" x="182.38" y="-541.95" font-family="Arial" font-weight="bold" font-size="14.00">v485_n7400_14_f2.png</text>
<text xml:space="preserve" text-anchor="start" x="210.88" y="-522" font-family="Arial" font-size="11.00">Point &#160;| &#160;VC = 0.82</text>
<path fill="#b8e6b8" stroke="none" d="M46.12,-497C46.12,-497 54.12,-497 54.12,-497 57.12,-497 60.12,-500 60.12,-503 60.12,-503 60.12,-509 60.12,-509 60.12,-512 57.12,-515 54.12,-515 54.12,-515 46.12,-515 46.12,-515 43.12,-515 40.12,-512 40.12,-509 40.12,-509 40.12,-503 40.12,-503 40.12,-500 43.12,-497 46.12,-497"/>
<path fill="none" stroke="black" d="M46.12,-497C46.12,-497 54.12,-497 54.12,-497 57.12,-497 60.12,-500 60.12,-503 60.12,-503 60.12,-509 60.12,-509 60.12,-512 57.12,-515 54.12,-515 54.12,-515 46.12,-515 46.12,-515 43.12,-515 40.12,-512 40.12,-509 40.12,-509 40.12,-503 40.12,-503 40.12,-500 43.12,-497 46.12,-497"/>
<text xml:space="preserve" text-anchor="start" x="48.62" y="-502.25" font-family="Arial" font-size="10.00"> </text>
<text xml:space="preserve" text-anchor="start" x="64.12" y="-502.25" font-family="Arial" font-size="10.00">Object</text>
<path fill="#c7b8e6" stroke="none" d="M102.62,-497C102.62,-497 110.62,-497 110.62,-497 113.62,-497 116.62,-500 116.62,-503 116.62,-503 116.62,-509 116.62,-509 116.62,-512 113.62,-515 110.62,-515 110.62,-515 102.62,-515 102.62,-515 99.62,-515 96.62,-512 96.62,-509 96.62,-509 96.62,-503 96.62,-503 96.62,-500 99.62,-497 102.62,-497"/>
<path fill="none" stroke="black" d="M102.62,-497C102.62,-497 110.62,-497 110.62,-497 113.62,-497 116.62,-500 116.62,-503 116.62,-503 116.62,-509 116.62,-509 116.62,-512 113.62,-515 110.62,-515 110.62,-515 102.62,-515 102.62,-515 99.62,-515 96.62,-512 96.62,-509 96.62,-509 96.62,-503 96.62,-503 96.62,-500 99.62,-497 102.62,-497"/>
<text xml:space="preserve" text-anchor="start" x="105.12" y="-502.25" font-family="Arial" font-size="10.00"> </text>
<text xml:space="preserve" text-anchor="start" x="120.62" y="-502.25" font-family="Arial" font-size="10.00">Attribute</text>
<path fill="#f5b8b8" stroke="none" d="M167.38,-497C167.38,-497 175.38,-497 175.38,-497 178.38,-497 181.38,-500 181.38,-503 181.38,-503 181.38,-509 181.38,-509 181.38,-512 178.38,-515 175.38,-515 175.38,-515 167.38,-515 167.38,-515 164.38,-515 161.38,-512 161.38,-509 161.38,-509 161.38,-503 161.38,-503 161.38,-500 164.38,-497 167.38,-497"/>
<path fill="none" stroke="black" d="M167.38,-497C167.38,-497 175.38,-497 175.38,-497 178.38,-497 181.38,-500 181.38,-503 181.38,-503 181.38,-509 181.38,-509 181.38,-512 178.38,-515 175.38,-515 175.38,-515 167.38,-515 167.38,-515 164.38,-515 161.38,-512 161.38,-509 161.38,-509 161.38,-503 161.38,-503 161.38,-500 164.38,-497 167.38,-497"/>
<text xml:space="preserve" text-anchor="start" x="169.88" y="-502.25" font-family="Arial" font-size="10.00"> </text>
<text xml:space="preserve" text-anchor="start" x="185.38" y="-502.25" font-family="Arial" font-size="10.00">Relationship</text>
<text xml:space="preserve" text-anchor="start" x="245.38" y="-503.5" font-family="Arial" font-weight="bold" font-size="10.00">(+)</text>
<text xml:space="preserve" text-anchor="start" x="257.38" y="-503.5" font-family="Arial" font-size="10.00"> increases complexity</text>
<text xml:space="preserve" text-anchor="start" x="358.62" y="-503.5" font-family="Arial" font-weight="bold" font-size="10.00">(−)</text>
<text xml:space="preserve" text-anchor="start" x="370.62" y="-503.5" font-family="Arial" font-size="10.00"> decreases complexity</text>
<!-- unknown.data_points -->
<g id="node1" class="node">
<title>unknown.data_points</title>
<path fill="#b8e6b8" stroke="#2c3e50" stroke-width="1.8" d="M52,-361C52,-361 12,-361 12,-361 6,-361 0,-355 0,-349 0,-349 0,-337 0,-337 0,-331 6,-325 12,-325 12,-325 52,-325 52,-325 58,-325 64,-331 64,-337 64,-337 64,-349 64,-349 64,-355 58,-361 52,-361"/>
<text xml:space="preserve" text-anchor="middle" x="32" y="-339.5" font-family="Arial" font-size="10.00" fill="#1a1a1a">data points</text>
</g>
<!-- attr_0 -->
<g id="node6" class="node">
<title>attr_0</title>
<path fill="#c7b8e6" stroke="#7f8c8d" stroke-width="1.2" d="M216.38,-426C216.38,-426 127.62,-426 127.62,-426 121.62,-426 115.62,-420 115.62,-414 115.62,-414 115.62,-402 115.62,-402 115.62,-396 121.62,-390 127.62,-390 127.62,-390 216.38,-390 216.38,-390 222.38,-390 228.38,-396 228.38,-402 228.38,-402 228.38,-414 228.38,-414 228.38,-420 222.38,-426 216.38,-426"/>
<text xml:space="preserve" text-anchor="middle" x="172" y="-404.5" font-family="Arial" font-size="10.00" fill="#1a1a1a">(+) excessive quantity</text>
</g>
<!-- unknown.data_points&#45;&gt;attr_0 -->
<g id="edge1" class="edge">
<title>unknown.data_points&#45;&gt;attr_0</title>
<path fill="none" stroke="#aaaaaa" d="M64.66,-357.91C82.22,-366.18 104.4,-376.63 123.96,-385.84"/>
<polygon fill="#aaaaaa" stroke="#aaaaaa" points="122.84,-388.03 130.22,-388.79 124.93,-383.59 122.84,-388.03"/>
</g>
<!-- rel_0 -->
<g id="node11" class="node">
<title>rel_0</title>
<path fill="#f5b8b8" stroke="#d46a6a" stroke-width="1.2" d="M194.25,-361C194.25,-361 149.75,-361 149.75,-361 143.75,-361 137.75,-355 137.75,-349 137.75,-349 137.75,-337 137.75,-337 137.75,-331 143.75,-325 149.75,-325 149.75,-325 194.25,-325 194.25,-325 200.25,-325 206.25,-331 206.25,-337 206.25,-337 206.25,-349 206.25,-349 206.25,-355 200.25,-361 194.25,-361"/>
<text xml:space="preserve" text-anchor="middle" x="172" y="-339.5" font-family="Arial" font-size="10.00" fill="#8b0000">overwhelms</text>
</g>
<!-- unknown.data_points&#45;&gt;rel_0 -->
<g id="edge6" class="edge">
<title>unknown.data_points&#45;&gt;rel_0</title>
<path fill="none" stroke="#d46a6a" stroke-width="1.5" d="M64.66,-343C83.31,-343 107.17,-343 127.57,-343"/>
<polygon fill="#d46a6a" stroke="#d46a6a" stroke-width="1.5" points="127.29,-345.8 135.29,-343 127.29,-340.2 127.29,-345.8"/>
</g>
<!-- rel_3 -->
<g id="node14" class="node">
<title>rel_3</title>
<path fill="#f5b8b8" stroke="#d46a6a" stroke-width="1.2" d="M187,-296C187,-296 157,-296 157,-296 151,-296 145,-290 145,-284 145,-284 145,-272 145,-272 145,-266 151,-260 157,-260 157,-260 187,-260 187,-260 193,-260 199,-266 199,-272 199,-272 199,-284 199,-284 199,-290 193,-296 187,-296"/>
<text xml:space="preserve" text-anchor="middle" x="172" y="-274.5" font-family="Arial" font-size="10.00" fill="#8b0000">clutters</text>
</g>
<!-- unknown.data_points&#45;&gt;rel_3 -->
<g id="edge12" class="edge">
<title>unknown.data_points&#45;&gt;rel_3</title>
<path fill="none" stroke="#d46a6a" stroke-width="1.5" d="M64.66,-328.09C85.73,-318.16 113.45,-305.11 135.31,-294.81"/>
<polygon fill="#d46a6a" stroke="#d46a6a" stroke-width="1.5" points="136.49,-297.35 142.53,-291.41 134.1,-292.28 136.49,-297.35"/>
</g>
<!-- unknown.shapes -->
<g id="node2" class="node">
<title>unknown.shapes</title>
<path fill="#b8e6b8" stroke="#2c3e50" stroke-width="1.8" d="M47,-198C47,-198 17,-198 17,-198 11,-198 5,-192 5,-186 5,-186 5,-174 5,-174 5,-168 11,-162 17,-162 17,-162 47,-162 47,-162 53,-162 59,-168 59,-174 59,-174 59,-186 59,-186 59,-192 53,-198 47,-198"/>
<text xml:space="preserve" text-anchor="middle" x="32" y="-176.5" font-family="Arial" font-size="10.00" fill="#1a1a1a">shapes</text>
</g>
<!-- attr_1 -->
<g id="node7" class="node">
<title>attr_1</title>
<path fill="#c7b8e6" stroke="#7f8c8d" stroke-width="1.2" d="M220.5,-231C220.5,-231 123.5,-231 123.5,-231 117.5,-231 111.5,-225 111.5,-219 111.5,-219 111.5,-207 111.5,-207 111.5,-201 117.5,-195 123.5,-195 123.5,-195 220.5,-195 220.5,-195 226.5,-195 232.5,-201 232.5,-207 232.5,-207 232.5,-219 232.5,-219 232.5,-225 226.5,-231 220.5,-231"/>
<text xml:space="preserve" text-anchor="middle" x="172" y="-209.5" font-family="Arial" font-size="10.00" fill="#1a1a1a">(+) multiple shape types</text>
</g>
<!-- unknown.shapes&#45;&gt;attr_1 -->
<g id="edge2" class="edge">
<title>unknown.shapes&#45;&gt;attr_1</title>
<path fill="none" stroke="#aaaaaa" d="M59.61,-186.36C72.08,-189.35 87.57,-193.05 102.99,-196.74"/>
<polygon fill="#aaaaaa" stroke="#aaaaaa" points="102.19,-199.06 109.56,-198.31 103.33,-194.3 102.19,-199.06"/>
</g>
<!-- rel_1 -->
<g id="node12" class="node">
<title>rel_1</title>
<path fill="#f5b8b8" stroke="#d46a6a" stroke-width="1.2" d="M225,-166C225,-166 119,-166 119,-166 113,-166 107,-160 107,-154 107,-154 107,-142 107,-142 107,-136 113,-130 119,-130 119,-130 225,-130 225,-130 231,-130 237,-136 237,-142 237,-142 237,-154 237,-154 237,-160 231,-166 225,-166"/>
<text xml:space="preserve" text-anchor="middle" x="172" y="-144.5" font-family="Arial" font-size="10.00" fill="#8b0000">increases interpretive load</text>
</g>
<!-- unknown.shapes&#45;&gt;rel_1 -->
<g id="edge8" class="edge">
<title>unknown.shapes&#45;&gt;rel_1</title>
<path fill="none" stroke="#d46a6a" stroke-width="1.5" d="M59.61,-173.83C70.39,-171.33 83.42,-168.31 96.71,-165.23"/>
<polygon fill="#d46a6a" stroke="#d46a6a" stroke-width="1.5" points="97.03,-168.03 104.2,-163.49 95.77,-162.57 97.03,-168.03"/>
</g>
<!-- unknown.text_labels -->
<g id="node3" class="node">
<title>unknown.text_labels</title>
<path fill="#b8e6b8" stroke="#2c3e50" stroke-width="1.8" d="M50.5,-68C50.5,-68 13.5,-68 13.5,-68 7.5,-68 1.5,-62 1.5,-56 1.5,-56 1.5,-44 1.5,-44 1.5,-38 7.5,-32 13.5,-32 13.5,-32 50.5,-32 50.5,-32 56.5,-32 62.5,-38 62.5,-44 62.5,-44 62.5,-56 62.5,-56 62.5,-62 56.5,-68 50.5,-68"/>
<text xml:space="preserve" text-anchor="middle" x="32" y="-46.5" font-family="Arial" font-size="10.00" fill="#1a1a1a">text labels</text>
</g>
<!-- attr_2 -->
<g id="node8" class="node">
<title>attr_2</title>
<path fill="#c7b8e6" stroke="#7f8c8d" stroke-width="1.2" d="M207.38,-101C207.38,-101 136.62,-101 136.62,-101 130.62,-101 124.62,-95 124.62,-89 124.62,-89 124.62,-77 124.62,-77 124.62,-71 130.62,-65 136.62,-65 136.62,-65 207.38,-65 207.38,-65 213.38,-65 219.38,-71 219.38,-77 219.38,-77 219.38,-89 219.38,-89 219.38,-95 213.38,-101 207.38,-101"/>
<text xml:space="preserve" text-anchor="middle" x="172" y="-79.5" font-family="Arial" font-size="10.00" fill="#1a1a1a">(+) small font size</text>
</g>
<!-- unknown.text_labels&#45;&gt;attr_2 -->
<g id="edge3" class="edge">
<title>unknown.text_labels&#45;&gt;attr_2</title>
<path fill="none" stroke="#aaaaaa" d="M63.28,-57.24C78.77,-60.94 98.09,-65.57 116.08,-69.87"/>
<polygon fill="#aaaaaa" stroke="#aaaaaa" points="115.39,-72.22 122.76,-71.47 116.52,-67.45 115.39,-72.22"/>
</g>
<!-- rel_2 -->
<g id="node13" class="node">
<title>rel_2</title>
<path fill="#f5b8b8" stroke="#d46a6a" stroke-width="1.2" d="M214.5,-36C214.5,-36 129.5,-36 129.5,-36 123.5,-36 117.5,-30 117.5,-24 117.5,-24 117.5,-12 117.5,-12 117.5,-6 123.5,0 129.5,0 129.5,0 214.5,0 214.5,0 220.5,0 226.5,-6 226.5,-12 226.5,-12 226.5,-24 226.5,-24 226.5,-30 220.5,-36 214.5,-36"/>
<text xml:space="preserve" text-anchor="middle" x="172" y="-14.5" font-family="Arial" font-size="10.00" fill="#8b0000">reduces readability of</text>
</g>
<!-- unknown.text_labels&#45;&gt;rel_2 -->
<g id="edge10" class="edge">
<title>unknown.text_labels&#45;&gt;rel_2</title>
<path fill="none" stroke="#d46a6a" stroke-width="1.5" d="M63.28,-42.98C76.24,-39.97 91.88,-36.35 107.18,-32.8"/>
<polygon fill="#d46a6a" stroke="#d46a6a" stroke-width="1.5" points="107.78,-35.53 114.94,-31 106.52,-30.08 107.78,-35.53"/>
</g>
<!-- furniture.legend -->
<g id="node4" class="node">
<title>furniture.legend</title>
<path fill="#b8e6b8" stroke="#2c3e50" stroke-width="1.8" d="M47,-491C47,-491 17,-491 17,-491 11,-491 5,-485 5,-479 5,-479 5,-467 5,-467 5,-461 11,-455 17,-455 17,-455 47,-455 47,-455 53,-455 59,-461 59,-467 59,-467 59,-479 59,-479 59,-485 53,-491 47,-491"/>
<text xml:space="preserve" text-anchor="middle" x="32" y="-469.5" font-family="Arial" font-size="10.00" fill="#1a1a1a">legend</text>
</g>
<!-- attr_4 -->
<g id="node9" class="node">
<title>attr_4</title>
<path fill="#c7b8e6" stroke="#7f8c8d" stroke-width="1.2" d="M222,-491C222,-491 122,-491 122,-491 116,-491 110,-485 110,-479 110,-479 110,-467 110,-467 110,-461 116,-455 122,-455 122,-455 222,-455 222,-455 228,-455 234,-461 234,-467 234,-467 234,-479 234,-479 234,-485 228,-491 222,-491"/>
<text xml:space="preserve" text-anchor="middle" x="172" y="-469.5" font-family="Arial" font-size="10.00" fill="#1a1a1a">(+) dense symbol entries</text>
</g>
<!-- furniture.legend&#45;&gt;attr_4 -->
<g id="edge4" class="edge">
<title>furniture.legend&#45;&gt;attr_4</title>
<path fill="none" stroke="#aaaaaa" d="M59.61,-473C71.64,-473 86.47,-473 101.34,-473"/>
<polygon fill="#aaaaaa" stroke="#aaaaaa" points="101.08,-475.45 108.08,-473 101.08,-470.55 101.08,-475.45"/>
</g>
<!-- unknown.overall_layout -->
<g id="node5" class="node">
<title>unknown.overall_layout</title>
<path fill="#b8e6b8" stroke="#2c3e50" stroke-width="1.8" d="M341.75,-231C341.75,-231 292,-231 292,-231 286,-231 280,-225 280,-219 280,-219 280,-207 280,-207 280,-201 286,-195 292,-195 292,-195 341.75,-195 341.75,-195 347.75,-195 353.75,-201 353.75,-207 353.75,-207 353.75,-219 353.75,-219 353.75,-225 347.75,-231 341.75,-231"/>
<text xml:space="preserve" text-anchor="middle" x="316.88" y="-209.5" font-family="Arial" font-size="10.00" fill="#1a1a1a">overall layout</text>
</g>
<!-- attr_3 -->
<g id="node10" class="node">
<title>attr_3</title>
<path fill="#c7b8e6" stroke="#7f8c8d" stroke-width="1.2" d="M499,-231C499,-231 408.75,-231 408.75,-231 402.75,-231 396.75,-225 396.75,-219 396.75,-219 396.75,-207 396.75,-207 396.75,-201 402.75,-195 408.75,-195 408.75,-195 499,-195 499,-195 505,-195 511,-201 511,-207 511,-207 511,-219 511,-219 511,-225 505,-231 499,-231"/>
<text xml:space="preserve" text-anchor="middle" x="453.88" y="-209.5" font-family="Arial" font-size="10.00" fill="#1a1a1a">(+) too many elements</text>
</g>
<!-- unknown.overall_layout&#45;&gt;attr_3 -->
<g id="edge5" class="edge">
<title>unknown.overall_layout&#45;&gt;attr_3</title>
<path fill="none" stroke="#aaaaaa" d="M354.41,-213C364.78,-213 376.39,-213 387.9,-213"/>
<polygon fill="#aaaaaa" stroke="#aaaaaa" points="387.74,-215.45 394.74,-213 387.74,-210.55 387.74,-215.45"/>
</g>
<!-- rel_0&#45;&gt;unknown.overall_layout -->
<g id="edge7" class="edge">
<title>rel_0&#45;&gt;unknown.overall_layout</title>
<path fill="none" stroke="#d46a6a" stroke-width="1.5" d="M206.53,-329.58C216.86,-324.59 227.91,-318.33 237,-311 262.11,-290.76 284.49,-261.27 298.94,-239.93"/>
<polygon fill="#d46a6a" stroke="#d46a6a" stroke-width="1.5" points="301.11,-241.72 303.19,-233.51 296.44,-238.63 301.11,-241.72"/>
</g>
<!-- rel_1&#45;&gt;unknown.overall_layout -->
<g id="edge9" class="edge">
<title>rel_1&#45;&gt;unknown.overall_layout</title>
<path fill="none" stroke="#d46a6a" stroke-width="1.5" d="M213.56,-166.45C231.12,-174.44 251.77,-183.84 269.9,-192.08"/>
<polygon fill="#d46a6a" stroke="#d46a6a" stroke-width="1.5" points="268.61,-194.57 277.06,-195.34 270.93,-189.48 268.61,-194.57"/>
</g>
<!-- rel_2&#45;&gt;unknown.overall_layout -->
<g id="edge11" class="edge">
<title>rel_2&#45;&gt;unknown.overall_layout</title>
<path fill="none" stroke="#d46a6a" stroke-width="1.5" d="M219.22,-36.42C225.68,-40.27 231.85,-44.78 237,-50 275.09,-88.59 297.66,-149.17 308.33,-184.59"/>
<polygon fill="#d46a6a" stroke="#d46a6a" stroke-width="1.5" points="305.6,-185.22 310.51,-192.12 310.97,-183.66 305.6,-185.22"/>
</g>
<!-- rel_3&#45;&gt;unknown.overall_layout -->
<g id="edge13" class="edge">
<title>rel_3&#45;&gt;unknown.overall_layout</title>
<path fill="none" stroke="#d46a6a" stroke-width="1.5" d="M199.54,-265.93C219.26,-256.96 246.65,-244.49 269.9,-233.92"/>
<polygon fill="#d46a6a" stroke="#d46a6a" stroke-width="1.5" points="271.06,-236.47 277.18,-230.6 268.74,-231.37 271.06,-236.47"/>
</g>
</g>
</svg>
