<?xml version="1.0" encoding="UTF-8" standalone="no"?>
<!DOCTYPE svg PUBLIC "-//W3C//DTD SVG 1.1//EN"
 "http://www.w3.org/Graphics/SVG/1.1/DTD/svg11.dtd">
<!-- Generated by graphviz version 14.1.5 (20260411.2331)
 -->
<!-- Title: v485_n7396_14_f4.png Pages: 1 -->
<svg width="852pt" height="440pt"
 viewBox="0.00 0.00 852.00 440.00" xmlns="http://www.w3.org/2000/svg" xmlns:xlink="http://www.w3.org/1999/xlink">
<g id="graph0" class="graph" transform="scale(1 1) rotate(0) translate(4 436.25)">
<title>v485_n7396_14_f4.png</title>
<polygon fill="white" stroke="none" points="-4,4 -4,-436.25 847.5,-436.25 847.5,4 -4,4"/>
<text xml:space="preserve" text-anchor="start" x="348.62" y="-411.95" font-family="Arial" font-weight="bold" font-size="14.00">v485_n7396_14_f4.png</text>
<text xml:space="preserve" text-anchor="start" x="377.12" y="-392" font-family="Arial" font-size="11.00">Point &#160;| &#160;VC = 0.63</text>
<path fill="#b8e6b8" stroke="none" d="M212.38,-367C212.38,-367 220.38,-367 220.38,-367 223.38,-367 226.38,-370 226.38,-373 226.38,-373 226.38,-379 226.38,-379 226.38,-382 223.38,-385 220.38,-385 220.38,-385 212.38,-385 212.38,-385 209.38,-385 206.38,-382 206.38,-379 206.38,-379 206.38,-373 206.38,-373 206.38,-370 209.38,-367 212.38,-367"/>
<path fill="none" stroke="black" d="M212.38,-367C212.38,-367 220.38,-367 220.38,-367 223.38,-367 226.38,-370 226.38,-373 226.38,-373 226.38,-379 226.38,-379 226.38,-382 223.38,-385 220.38,-385 220.38,-385 212.38,-385 212.38,-385 209.38,-385 206.38,-382 206.38,-379 206.38,-379 206.38,-373 206.38,-373 206.38,-370 209.38,-367 212.38,-367"/>
<text xml:space="preserve" text-anchor="start" x="214.88" y="-372.25" font-family="Arial" font-size="10.00"> </text>
<text xml:space="preserve" text-anchor="start" x="230.38" y="-372.25" font-family="Arial" font-size="10.00">Object</text>
<path fill="#c7b8e6" stroke="none" d="M268.88,-367C268.88,-367 276.88,-367 276.88,-367 279.88,-367 282.88,-370 282.88,-373 282.88,-373 282.88,-379 282.88,-379 282.88,-382 279.88,-385 276.88,-385 276.88,-385 268.88,-385 268.88,-385 265.88,-385 262.88,-382 262.88,-379 262.88,-379 262.88,-373 262.88,-373 262.88,-370 265.88,-367 268.88,-367"/>
<path fill="none" stroke="black" d="M268.88,-367C268.88,-367 276.88,-367 276.88,-367 279.88,-367 282.88,-370 282.88,-373 282.88,-373 282.88,-379 282.88,-379 282.88,-382 279.88,-385 276.88,-385 276.88,-385 268.88,-385 268.88,-385 265.88,-385 262.88,-382 262.88,-379 262.88,-379 262.88,-373 262.88,-373 262.88,-370 265.88,-367 268.88,-367"/>
<text xml:space="preserve" text-anchor="start" x="271.38" y="-372.25" font-family="Arial" font-size="10.00"> </text>
<text xml:space="preserve" text-anchor="start" x="286.88" y="-372.25" font-family="Arial" font-size="10.00">Attribute</text>
<path fill="#f5b8b8" stroke="none" d="M333.62,-367C333.62,-367 341.62,-367 341.62,-367 344.62,-367 347.62,-370 347.62,-373 347.62,-373 347.62,-379 347.62,-379 347.62,-382 344.62,-385 341.62,-385 341.62,-385 333.62,-385 333.62,-385 330.62,-385 327.62,-382 327.62,-379 327.62,-379 327.62,-373 327.62,-373 327.62,-370 330.62,-367 333.62,-367"/>
<path fill="none" stroke="black" d="M333.62,-367C333.62,-367 341.62,-367 341.62,-367 344.62,-367 347.62,-370 347.62,-373 347.62,-373 347.62,-379 347.62,-379 347.62,-382 344.62,-385 341.62,-385 341.62,-385 333.62,-385 333.62,-385 330.62,-385 327.62,-382 327.62,-379 327.62,-379 327.62,-373 327.62,-373 327.62,-370 330.62,-367 333.62,-367"/>
<text xml:space="preserve" text-anchor="start" x="336.12" y="-372.25" font-family="Arial" font-size="10.00"> </text>
<text xml:space="preserve" text-anchor="start" x="351.62" y="-372.25" font-family="Arial" font-size="10.00">Relationship</text>
<text xml:space="preserve" text-anchor="start" x="411.62" y="-373.5" font-family="Arial" font-weight="bold" font-size="10.00">(+)</text>
<text xml:space="preserve" text-anchor="start" x="423.62" y="-373.5" font-family="Arial" font-size="10.00"> increases complexity</text>
<text xml:space="preserve" text-anchor="start" x="524.88" y="-373.5" font-family="Arial" font-weight="bold" font-size="10.00">(−)</text>
<text xml:space="preserve" text-anchor="start" x="536.88" y="-373.5" font-family="Arial" font-size="10.00"> decreases complexity</text>
<!-- unknown.data_points -->
<g id="node1" class="node">
<title>unknown.data_points</title>
<path fill="#b8e6b8" stroke="#2c3e50" stroke-width="1.8" d="M52,-328C52,-328 12,-328 12,-328 6,-328 0,-322 0,-316 0,-316 0,-304 0,-304 0,-298 6,-292 12,-292 12,-292 52,-292 52,-292 58,-292 64,-298 64,-304 64,-304 64,-316 64,-316 64,-322 58,-328 52,-328"/>
<text xml:space="preserve" text-anchor="middle" x="32" y="-306.5" font-family="Arial" font-size="10.00" fill="#1a1a1a">data points</text>
</g>
<!-- attr_0 -->
<g id="node7" class="node">
<title>attr_0</title>
<path fill="#c7b8e6" stroke="#7f8c8d" stroke-width="1.2" d="M216.75,-361C216.75,-361 119,-361 119,-361 113,-361 107,-355 107,-349 107,-349 107,-337 107,-337 107,-331 113,-325 119,-325 119,-325 216.75,-325 216.75,-325 222.75,-325 228.75,-331 228.75,-337 228.75,-337 228.75,-349 228.75,-349 228.75,-355 222.75,-361 216.75,-361"/>
<text xml:space="preserve" text-anchor="middle" x="167.88" y="-339.5" font-family="Arial" font-size="10.00" fill="#1a1a1a">(+) dense layered marks</text>
</g>
<!-- unknown.data_points&#45;&gt;attr_0 -->
<g id="edge1" class="edge">
<title>unknown.data_points&#45;&gt;attr_0</title>
<path fill="none" stroke="#aaaaaa" d="M64.73,-317.82C74.9,-320.33 86.6,-323.21 98.36,-326.11"/>
<polygon fill="#aaaaaa" stroke="#aaaaaa" points="97.64,-328.46 105.03,-327.75 98.81,-323.7 97.64,-328.46"/>
</g>
<!-- rel_2 -->
<g id="node15" class="node">
<title>rel_2</title>
<path fill="#f5b8b8" stroke="#d46a6a" stroke-width="1.2" d="M190.12,-296C190.12,-296 145.62,-296 145.62,-296 139.62,-296 133.62,-290 133.62,-284 133.62,-284 133.62,-272 133.62,-272 133.62,-266 139.62,-260 145.62,-260 145.62,-260 190.12,-260 190.12,-260 196.12,-260 202.12,-266 202.12,-272 202.12,-272 202.12,-284 202.12,-284 202.12,-290 196.12,-296 190.12,-296"/>
<text xml:space="preserve" text-anchor="middle" x="167.88" y="-274.5" font-family="Arial" font-size="10.00" fill="#8b0000">overwhelms</text>
</g>
<!-- unknown.data_points&#45;&gt;rel_2 -->
<g id="edge11" class="edge">
<title>unknown.data_points&#45;&gt;rel_2</title>
<path fill="none" stroke="#d46a6a" stroke-width="1.5" d="M64.73,-302.42C82.16,-298.25 104.05,-293.02 123.09,-288.47"/>
<polygon fill="#d46a6a" stroke="#d46a6a" stroke-width="1.5" points="123.7,-291.2 130.83,-286.62 122.4,-285.75 123.7,-291.2"/>
</g>
<!-- unknown.fine_detail -->
<g id="node2" class="node">
<title>unknown.fine_detail</title>
<path fill="#b8e6b8" stroke="#2c3e50" stroke-width="1.8" d="M49,-166C49,-166 15,-166 15,-166 9,-166 3,-160 3,-154 3,-154 3,-142 3,-142 3,-136 9,-130 15,-130 15,-130 49,-130 49,-130 55,-130 61,-136 61,-142 61,-142 61,-154 61,-154 61,-160 55,-166 49,-166"/>
<text xml:space="preserve" text-anchor="middle" x="32" y="-144.5" font-family="Arial" font-size="10.00" fill="#1a1a1a">fine detail</text>
</g>
<!-- attr_1 -->
<g id="node8" class="node">
<title>attr_1</title>
<path fill="#c7b8e6" stroke="#7f8c8d" stroke-width="1.2" d="M214.5,-231C214.5,-231 121.25,-231 121.25,-231 115.25,-231 109.25,-225 109.25,-219 109.25,-219 109.25,-207 109.25,-207 109.25,-201 115.25,-195 121.25,-195 121.25,-195 214.5,-195 214.5,-195 220.5,-195 226.5,-201 226.5,-207 226.5,-207 226.5,-219 226.5,-219 226.5,-225 220.5,-231 214.5,-231"/>
<text xml:space="preserve" text-anchor="middle" x="167.88" y="-209.5" font-family="Arial" font-size="10.00" fill="#1a1a1a">(+) high precision detail</text>
</g>
<!-- unknown.fine_detail&#45;&gt;attr_1 -->
<g id="edge2" class="edge">
<title>unknown.fine_detail&#45;&gt;attr_1</title>
<path fill="none" stroke="#aaaaaa" d="M61.72,-161.94C79.09,-170.38 101.63,-181.32 121.38,-190.91"/>
<polygon fill="#aaaaaa" stroke="#aaaaaa" points="120.07,-193 127.44,-193.85 122.21,-188.59 120.07,-193"/>
</g>
<!-- rel_0 -->
<g id="node13" class="node">
<title>rel_0</title>
<path fill="#f5b8b8" stroke="#d46a6a" stroke-width="1.2" d="M184.88,-101C184.88,-101 150.88,-101 150.88,-101 144.88,-101 138.88,-95 138.88,-89 138.88,-89 138.88,-77 138.88,-77 138.88,-71 144.88,-65 150.88,-65 150.88,-65 184.88,-65 184.88,-65 190.88,-65 196.88,-71 196.88,-77 196.88,-77 196.88,-89 196.88,-89 196.88,-95 190.88,-101 184.88,-101"/>
<text xml:space="preserve" text-anchor="middle" x="167.88" y="-79.5" font-family="Arial" font-size="10.00" fill="#8b0000">increases</text>
</g>
<!-- unknown.fine_detail&#45;&gt;rel_0 -->
<g id="edge7" class="edge">
<title>unknown.fine_detail&#45;&gt;rel_0</title>
<path fill="none" stroke="#d46a6a" stroke-width="1.5" d="M61.72,-134.06C81.53,-124.44 108.06,-111.56 129.51,-101.14"/>
<polygon fill="#d46a6a" stroke="#d46a6a" stroke-width="1.5" points="130.65,-103.7 136.62,-97.69 128.2,-98.66 130.65,-103.7"/>
</g>
<!-- rel_4 -->
<g id="node17" class="node">
<title>rel_4</title>
<path fill="#f5b8b8" stroke="#d46a6a" stroke-width="1.2" d="M193.5,-166C193.5,-166 142.25,-166 142.25,-166 136.25,-166 130.25,-160 130.25,-154 130.25,-154 130.25,-142 130.25,-142 130.25,-136 136.25,-130 142.25,-130 142.25,-130 193.5,-130 193.5,-130 199.5,-130 205.5,-136 205.5,-142 205.5,-142 205.5,-154 205.5,-154 205.5,-160 199.5,-166 193.5,-166"/>
<text xml:space="preserve" text-anchor="middle" x="167.88" y="-144.5" font-family="Arial" font-size="10.00" fill="#8b0000">contributes to</text>
</g>
<!-- unknown.fine_detail&#45;&gt;rel_4 -->
<g id="edge15" class="edge">
<title>unknown.fine_detail&#45;&gt;rel_4</title>
<path fill="none" stroke="#d46a6a" stroke-width="1.5" d="M61.72,-148C78.65,-148 100.49,-148 119.88,-148"/>
<polygon fill="#d46a6a" stroke="#d46a6a" stroke-width="1.5" points="119.78,-150.8 127.78,-148 119.78,-145.2 119.78,-150.8"/>
</g>
<!-- unknown.visual_encoding -->
<g id="node3" class="node">
<title>unknown.visual_encoding</title>
<path fill="#b8e6b8" stroke="#2c3e50" stroke-width="1.8" d="M343.25,-101C343.25,-101 283.75,-101 283.75,-101 277.75,-101 271.75,-95 271.75,-89 271.75,-89 271.75,-77 271.75,-77 271.75,-71 277.75,-65 283.75,-65 283.75,-65 343.25,-65 343.25,-65 349.25,-65 355.25,-71 355.25,-77 355.25,-77 355.25,-89 355.25,-89 355.25,-95 349.25,-101 343.25,-101"/>
<text xml:space="preserve" text-anchor="middle" x="313.5" y="-79.5" font-family="Arial" font-size="10.00" fill="#1a1a1a">visual encoding</text>
</g>
<!-- attr_2 -->
<g id="node9" class="node">
<title>attr_2</title>
<path fill="#c7b8e6" stroke="#7f8c8d" stroke-width="1.2" d="M535,-166C535,-166 410.25,-166 410.25,-166 404.25,-166 398.25,-160 398.25,-154 398.25,-154 398.25,-142 398.25,-142 398.25,-136 404.25,-130 410.25,-130 410.25,-130 535,-130 535,-130 541,-130 547,-136 547,-142 547,-142 547,-154 547,-154 547,-160 541,-166 535,-166"/>
<text xml:space="preserve" text-anchor="middle" x="472.62" y="-144.5" font-family="Arial" font-size="10.00" fill="#1a1a1a">(+) intricate encoding structure</text>
</g>
<!-- unknown.visual_encoding&#45;&gt;attr_2 -->
<g id="edge3" class="edge">
<title>unknown.visual_encoding&#45;&gt;attr_2</title>
<path fill="none" stroke="#aaaaaa" d="M355.78,-100.08C375.13,-108.08 398.41,-117.71 419.01,-126.23"/>
<polygon fill="#aaaaaa" stroke="#aaaaaa" points="417.95,-128.45 425.36,-128.86 419.83,-123.92 417.95,-128.45"/>
</g>
<!-- rel_1 -->
<g id="node14" class="node">
<title>rel_1</title>
<path fill="#f5b8b8" stroke="#d46a6a" stroke-width="1.2" d="M512.12,-101C512.12,-101 433.12,-101 433.12,-101 427.12,-101 421.12,-95 421.12,-89 421.12,-89 421.12,-77 421.12,-77 421.12,-71 427.12,-65 433.12,-65 433.12,-65 512.12,-65 512.12,-65 518.12,-65 524.12,-71 524.12,-77 524.12,-77 524.12,-89 524.12,-89 524.12,-95 518.12,-101 512.12,-101"/>
<text xml:space="preserve" text-anchor="middle" x="472.62" y="-79.5" font-family="Arial" font-size="10.00" fill="#8b0000">demands effort from</text>
</g>
<!-- unknown.visual_encoding&#45;&gt;rel_1 -->
<g id="edge9" class="edge">
<title>unknown.visual_encoding&#45;&gt;rel_1</title>
<path fill="none" stroke="#d46a6a" stroke-width="1.5" d="M355.78,-83C372.58,-83 392.35,-83 410.74,-83"/>
<polygon fill="#d46a6a" stroke="#d46a6a" stroke-width="1.5" points="410.53,-85.8 418.53,-83 410.53,-80.2 410.53,-85.8"/>
</g>
<!-- rel_3 -->
<g id="node16" class="node">
<title>rel_3</title>
<path fill="#f5b8b8" stroke="#d46a6a" stroke-width="1.2" d="M514.38,-36C514.38,-36 430.88,-36 430.88,-36 424.88,-36 418.88,-30 418.88,-24 418.88,-24 418.88,-12 418.88,-12 418.88,-6 424.88,0 430.88,0 430.88,0 514.38,0 514.38,0 520.38,0 526.38,-6 526.38,-12 526.38,-12 526.38,-24 526.38,-24 526.38,-30 520.38,-36 514.38,-36"/>
<text xml:space="preserve" text-anchor="middle" x="472.62" y="-14.5" font-family="Arial" font-size="10.00" fill="#8b0000">requires expertise for</text>
</g>
<!-- unknown.visual_encoding&#45;&gt;rel_3 -->
<g id="edge13" class="edge">
<title>unknown.visual_encoding&#45;&gt;rel_3</title>
<path fill="none" stroke="#d46a6a" stroke-width="1.5" d="M355.78,-65.92C374.62,-58.13 397.18,-48.8 417.37,-40.44"/>
<polygon fill="#d46a6a" stroke="#d46a6a" stroke-width="1.5" points="418.34,-43.07 424.66,-37.43 416.2,-37.9 418.34,-43.07"/>
</g>
<!-- text.annotation -->
<g id="node4" class="node">
<title>text.annotation</title>
<path fill="#b8e6b8" stroke="#2c3e50" stroke-width="1.8" d="M639,-101C639,-101 602,-101 602,-101 596,-101 590,-95 590,-89 590,-89 590,-77 590,-77 590,-71 596,-65 602,-65 602,-65 639,-65 639,-65 645,-65 651,-71 651,-77 651,-77 651,-89 651,-89 651,-95 645,-101 639,-101"/>
<text xml:space="preserve" text-anchor="middle" x="620.5" y="-79.5" font-family="Arial" font-size="10.00" fill="#1a1a1a">annotation</text>
</g>
<!-- attr_3 -->
<g id="node10" class="node">
<title>attr_3</title>
<path fill="#c7b8e6" stroke="#7f8c8d" stroke-width="1.2" d="M822.88,-101C822.88,-101 714.62,-101 714.62,-101 708.62,-101 702.62,-95 702.62,-89 702.62,-89 702.62,-77 702.62,-77 702.62,-71 708.62,-65 714.62,-65 714.62,-65 822.88,-65 822.88,-65 828.88,-65 834.88,-71 834.88,-77 834.88,-77 834.88,-89 834.88,-89 834.88,-95 828.88,-101 822.88,-101"/>
<text xml:space="preserve" text-anchor="middle" x="768.75" y="-79.5" font-family="Arial" font-size="10.00" fill="#1a1a1a">(+) requires careful reading</text>
</g>
<!-- text.annotation&#45;&gt;attr_3 -->
<g id="edge4" class="edge">
<title>text.annotation&#45;&gt;attr_3</title>
<path fill="none" stroke="#aaaaaa" d="M651.8,-83C664.16,-83 679.03,-83 693.94,-83"/>
<polygon fill="#aaaaaa" stroke="#aaaaaa" points="693.7,-85.45 700.7,-83 693.7,-80.55 693.7,-85.45"/>
</g>
<!-- unknown.axes -->
<g id="node5" class="node">
<title>unknown.axes</title>
<path fill="#b8e6b8" stroke="#2c3e50" stroke-width="1.8" d="M635.5,-36C635.5,-36 605.5,-36 605.5,-36 599.5,-36 593.5,-30 593.5,-24 593.5,-24 593.5,-12 593.5,-12 593.5,-6 599.5,0 605.5,0 605.5,0 635.5,0 635.5,0 641.5,0 647.5,-6 647.5,-12 647.5,-12 647.5,-24 647.5,-24 647.5,-30 641.5,-36 635.5,-36"/>
<text xml:space="preserve" text-anchor="middle" x="620.5" y="-14.5" font-family="Arial" font-size="10.00" fill="#1a1a1a">axes</text>
</g>
<!-- attr_4 -->
<g id="node11" class="node">
<title>attr_4</title>
<path fill="#c7b8e6" stroke="#7f8c8d" stroke-width="1.2" d="M831.5,-36C831.5,-36 706,-36 706,-36 700,-36 694,-30 694,-24 694,-24 694,-12 694,-12 694,-6 700,0 706,0 706,0 831.5,0 831.5,0 837.5,0 843.5,-6 843.5,-12 843.5,-12 843.5,-24 843.5,-24 843.5,-30 837.5,-36 831.5,-36"/>
<text xml:space="preserve" text-anchor="middle" x="768.75" y="-14.5" font-family="Arial" font-size="10.00" fill="#1a1a1a">(+) complex scale organization</text>
</g>
<!-- unknown.axes&#45;&gt;attr_4 -->
<g id="edge5" class="edge">
<title>unknown.axes&#45;&gt;attr_4</title>
<path fill="none" stroke="#aaaaaa" d="M648.32,-18C658.98,-18 671.86,-18 685.16,-18"/>
<polygon fill="#aaaaaa" stroke="#aaaaaa" points="684.97,-20.45 691.97,-18 684.97,-15.55 684.97,-20.45"/>
</g>
<!-- structure.layout -->
<g id="node6" class="node">
<title>structure.layout</title>
<path fill="#b8e6b8" stroke="#2c3e50" stroke-width="1.8" d="M328.5,-263C328.5,-263 298.5,-263 298.5,-263 292.5,-263 286.5,-257 286.5,-251 286.5,-251 286.5,-239 286.5,-239 286.5,-233 292.5,-227 298.5,-227 298.5,-227 328.5,-227 328.5,-227 334.5,-227 340.5,-233 340.5,-239 340.5,-239 340.5,-251 340.5,-251 340.5,-257 334.5,-263 328.5,-263"/>
<text xml:space="preserve" text-anchor="middle" x="313.5" y="-241.5" font-family="Arial" font-size="10.00" fill="#1a1a1a">layout</text>
</g>
<!-- attr_5 -->
<g id="node12" class="node">
<title>attr_5</title>
<path fill="#c7b8e6" stroke="#7f8c8d" stroke-width="1.2" d="M526.75,-263C526.75,-263 418.5,-263 418.5,-263 412.5,-263 406.5,-257 406.5,-251 406.5,-251 406.5,-239 406.5,-239 406.5,-233 412.5,-227 418.5,-227 418.5,-227 526.75,-227 526.75,-227 532.75,-227 538.75,-233 538.75,-239 538.75,-239 538.75,-251 538.75,-251 538.75,-257 532.75,-263 526.75,-263"/>
<text xml:space="preserve" text-anchor="middle" x="472.62" y="-241.5" font-family="Arial" font-size="10.00" fill="#1a1a1a">(+) visually involved layout</text>
</g>
<!-- structure.layout&#45;&gt;attr_5 -->
<g id="edge6" class="edge">
<title>structure.layout&#45;&gt;attr_5</title>
<path fill="none" stroke="#aaaaaa" d="M341.15,-245C356.85,-245 377.56,-245 397.83,-245"/>
<polygon fill="#aaaaaa" stroke="#aaaaaa" points="397.66,-247.45 404.66,-245 397.66,-242.55 397.66,-247.45"/>
</g>
<!-- rel_0&#45;&gt;unknown.visual_encoding -->
<g id="edge8" class="edge">
<title>rel_0&#45;&gt;unknown.visual_encoding</title>
<path fill="none" stroke="#d46a6a" stroke-width="1.5" d="M197.25,-83C215.46,-83 239.63,-83 261.14,-83"/>
<polygon fill="#d46a6a" stroke="#d46a6a" stroke-width="1.5" points="260.85,-85.8 268.85,-83 260.85,-80.2 260.85,-85.8"/>
</g>
<!-- rel_1&#45;&gt;text.annotation -->
<g id="edge10" class="edge">
<title>rel_1&#45;&gt;text.annotation</title>
<path fill="none" stroke="#d46a6a" stroke-width="1.5" d="M524.64,-83C542.47,-83 562.22,-83 579.07,-83"/>
<polygon fill="#d46a6a" stroke="#d46a6a" stroke-width="1.5" points="578.87,-85.8 586.87,-83 578.87,-80.2 578.87,-85.8"/>
</g>
<!-- rel_2&#45;&gt;structure.layout -->
<g id="edge12" class="edge">
<title>rel_2&#45;&gt;structure.layout</title>
<path fill="none" stroke="#d46a6a" stroke-width="1.5" d="M202.55,-270.26C224.55,-265.21 253.28,-258.61 275.85,-253.42"/>
<polygon fill="#d46a6a" stroke="#d46a6a" stroke-width="1.5" points="276.36,-256.18 283.53,-251.66 275.11,-250.72 276.36,-256.18"/>
</g>
<!-- rel_3&#45;&gt;unknown.axes -->
<g id="edge14" class="edge">
<title>rel_3&#45;&gt;unknown.axes</title>
<path fill="none" stroke="#d46a6a" stroke-width="1.5" d="M526.7,-18C545.32,-18 565.81,-18 582.79,-18"/>
<polygon fill="#d46a6a" stroke="#d46a6a" stroke-width="1.5" points="582.59,-20.8 590.59,-18 582.59,-15.2 582.59,-20.8"/>
</g>
<!-- rel_4&#45;&gt;structure.layout -->
<g id="edge16" class="edge">
<title>rel_4&#45;&gt;structure.layout</title>
<path fill="none" stroke="#d46a6a" stroke-width="1.5" d="M204.53,-166.51C212.63,-171.03 221.1,-176.01 228.75,-181 247.02,-192.92 266.44,-207.62 281.97,-219.92"/>
<polygon fill="#d46a6a" stroke="#d46a6a" stroke-width="1.5" points="279.94,-221.89 287.94,-224.69 283.44,-217.51 279.94,-221.89"/>
</g>
</g>
</svg>
