<?xml version="1.0" encoding="UTF-8" standalone="no"?>
<!DOCTYPE svg PUBLIC "-//W3C//DTD SVG 1.1//EN"
 "http://www.w3.org/Graphics/SVG/1.1/DTD/svg11.dtd">
<!-- Generated by graphviz version 14.1.5 (20260411.2331)
 -->
<!-- Title: v487_n7407_7_f2.png Pages: 1 -->
<svg width="1106pt" height="310pt"
 viewBox="0.00 0.00 1106.00 310.00" xmlns="http://www.w3.org/2000/svg" xmlns:xlink="http://www.w3.org/1999/xlink">
<g id="graph0" class="graph" transform="scale(1 1) rotate(0) translate(4 306.25)">
<title>v487_n7407_7_f2.png</title>
<polygon fill="white" stroke="none" points="-4,4 -4,-306.25 1102,-306.25 1102,4 -4,4"/>
<text xml:space="preserve" text-anchor="start" x="479.62" y="-281.95" font-family="Arial" font-weight="bold" font-size="14.00">v487_n7407_7_f2.png</text>
<text xml:space="preserve" text-anchor="start" x="506.62" y="-262" font-family="Arial" font-size="11.00">Grid &#160;| &#160;VC = 0.85</text>
<path fill="#b8e6b8" stroke="none" d="M339.62,-237C339.62,-237 347.62,-237 347.62,-237 350.62,-237 353.62,-240 353.62,-243 353.62,-243 353.62,-249 353.62,-249 353.62,-252 350.62,-255 347.62,-255 347.62,-255 339.62,-255 339.62,-255 336.62,-255 333.62,-252 333.62,-249 333.62,-249 333.62,-243 333.62,-243 333.62,-240 336.62,-237 339.62,-237"/>
<path fill="none" stroke="black" d="M339.62,-237C339.62,-237 347.62,-237 347.62,-237 350.62,-237 353.62,-240 353.62,-243 353.62,-243 353.62,-249 353.62,-249 353.62,-252 350.62,-255 347.62,-255 347.62,-255 339.62,-255 339.62,-255 336.62,-255 333.62,-252 333.62,-249 333.62,-249 333.62,-243 333.62,-243 333.62,-240 336.62,-237 339.62,-237"/>
<text xml:space="preserve" text-anchor="start" x="342.12" y="-242.25" font-family="Arial" font-size="10.00"> </text>
<text xml:space="preserve" text-anchor="start" x="357.62" y="-242.25" font-family="Arial" font-size="10.00">Object</text>
<path fill="#c7b8e6" stroke="none" d="M396.12,-237C396.12,-237 404.12,-237 404.12,-237 407.12,-237 410.12,-240 410.12,-243 410.12,-243 410.12,-249 410.12,-249 410.12,-252 407.12,-255 404.12,-255 404.12,-255 396.12,-255 396.12,-255 393.12,-255 390.12,-252 390.12,-249 390.12,-249 390.12,-243 390.12,-243 390.12,-240 393.12,-237 396.12,-237"/>
<path fill="none" stroke="black" d="M396.12,-237C396.12,-237 404.12,-237 404.12,-237 407.12,-237 410.12,-240 410.12,-243 410.12,-243 410.12,-249 410.12,-249 410.12,-252 407.12,-255 404.12,-255 404.12,-255 396.12,-255 396.12,-255 393.12,-255 390.12,-252 390.12,-249 390.12,-249 390.12,-243 390.12,-243 390.12,-240 393.12,-237 396.12,-237"/>
<text xml:space="preserve" text-anchor="start" x="398.62" y="-242.25" font-family="Arial" font-size="10.00"> </text>
<text xml:space="preserve" text-anchor="start" x="414.12" y="-242.25" font-family="Arial" font-size="10.00">Attribute</text>
<path fill="#f5b8b8" stroke="none" d="M460.88,-237C460.88,-237 468.88,-237 468.88,-237 471.88,-237 474.88,-240 474.88,-243 474.88,-243 474.88,-249 474.88,-249 474.88,-252 471.88,-255 468.88,-255 468.88,-255 460.88,-255 460.88,-255 457.88,-255 454.88,-252 454.88,-249 454.88,-249 454.88,-243 454.88,-243 454.88,-240 457.88,-237 460.88,-237"/>
<path fill="none" stroke="black" d="M460.88,-237C460.88,-237 468.88,-237 468.88,-237 471.88,-237 474.88,-240 474.88,-243 474.88,-243 474.88,-249 474.88,-249 474.88,-252 471.88,-255 468.88,-255 468.88,-255 460.88,-255 460.88,-255 457.88,-255 454.88,-252 454.88,-249 454.88,-249 454.88,-243 454.88,-243 454.88,-240 457.88,-237 460.88,-237"/>
<text xml:space="preserve" text-anchor="start" x="463.38" y="-242.25" font-family="Arial" font-size="10.00"> </text>
<text xml:space="preserve" text-anchor="start" x="478.88" y="-242.25" font-family="Arial" font-size="10.00">Relationship</text>
<text xml:space="preserve" text-anchor="start" x="538.88" y="-243.5" font-family="Arial" font-weight="bold" font-size="10.00">(+)</text>
<text xml:space="preserve" text-anchor="start" x="550.88" y="-243.5" font-family="Arial" font-size="10.00"> increases complexity</text>
<text xml:space="preserve" text-anchor="start" x="652.12" y="-243.5" font-family="Arial" font-weight="bold" font-size="10.00">(−)</text>
<text xml:space="preserve" text-anchor="start" x="664.12" y="-243.5" font-family="Arial" font-size="10.00"> decreases complexity</text>
<!-- unknown.grid_table -->
<g id="node1" class="node">
<title>unknown.grid_table</title>
<path fill="#b8e6b8" stroke="#2c3e50" stroke-width="1.8" d="M44.5,-198C44.5,-198 12.75,-198 12.75,-198 6.75,-198 0.75,-192 0.75,-186 0.75,-186 0.75,-174 0.75,-174 0.75,-168 6.75,-162 12.75,-162 12.75,-162 44.5,-162 44.5,-162 50.5,-162 56.5,-168 56.5,-174 56.5,-174 56.5,-186 56.5,-186 56.5,-192 50.5,-198 44.5,-198"/>
<text xml:space="preserve" text-anchor="middle" x="28.62" y="-176.5" font-family="Arial" font-size="10.00" fill="#1a1a1a">grid table</text>
</g>
<!-- attr_0 -->
<g id="node6" class="node">
<title>attr_0</title>
<path fill="#c7b8e6" stroke="#7f8c8d" stroke-width="1.2" d="M234.75,-231C234.75,-231 112.25,-231 112.25,-231 106.25,-231 100.25,-225 100.25,-219 100.25,-219 100.25,-207 100.25,-207 100.25,-201 106.25,-195 112.25,-195 112.25,-195 234.75,-195 234.75,-195 240.75,-195 246.75,-201 246.75,-207 246.75,-207 246.75,-219 246.75,-219 246.75,-225 240.75,-231 234.75,-231"/>
<text xml:space="preserve" text-anchor="middle" x="173.5" y="-209.5" font-family="Arial" font-size="10.00" fill="#1a1a1a">(−) organized tabular structure</text>
</g>
<!-- unknown.grid_table&#45;&gt;attr_0 -->
<g id="edge1" class="edge">
<title>unknown.grid_table&#45;&gt;attr_0</title>
<path fill="none" stroke="#aaaaaa" d="M57.17,-186.36C67.28,-188.7 79.31,-191.48 91.72,-194.34"/>
<polygon fill="#aaaaaa" stroke="#aaaaaa" points="91.06,-196.71 98.44,-195.89 92.17,-191.93 91.06,-196.71"/>
</g>
<!-- rel_1 -->
<g id="node12" class="node">
<title>rel_1</title>
<path fill="#f5b8b8" stroke="#d46a6a" stroke-width="1.2" d="M190.5,-166C190.5,-166 156.5,-166 156.5,-166 150.5,-166 144.5,-160 144.5,-154 144.5,-154 144.5,-142 144.5,-142 144.5,-136 150.5,-130 156.5,-130 156.5,-130 190.5,-130 190.5,-130 196.5,-130 202.5,-136 202.5,-142 202.5,-142 202.5,-154 202.5,-154 202.5,-160 196.5,-166 190.5,-166"/>
<text xml:space="preserve" text-anchor="middle" x="173.5" y="-144.5" font-family="Arial" font-size="10.00" fill="#8b0000">organizes</text>
</g>
<!-- unknown.grid_table&#45;&gt;rel_1 -->
<g id="edge8" class="edge">
<title>unknown.grid_table&#45;&gt;rel_1</title>
<path fill="none" stroke="#d46a6a" stroke-width="1.5" d="M57.17,-173.83C79.03,-168.94 109.83,-162.04 134.1,-156.6"/>
<polygon fill="#d46a6a" stroke="#d46a6a" stroke-width="1.5" points="134.65,-159.35 141.84,-154.87 133.42,-153.88 134.65,-159.35"/>
</g>
<!-- unknown.color_key -->
<g id="node2" class="node">
<title>unknown.color_key</title>
<path fill="#b8e6b8" stroke="#2c3e50" stroke-width="1.8" d="M624,-69C624,-69 592.25,-69 592.25,-69 586.25,-69 580.25,-63 580.25,-57 580.25,-57 580.25,-45 580.25,-45 580.25,-39 586.25,-33 592.25,-33 592.25,-33 624,-33 624,-33 630,-33 636,-39 636,-45 636,-45 636,-57 636,-57 636,-63 630,-69 624,-69"/>
<text xml:space="preserve" text-anchor="middle" x="608.12" y="-47.5" font-family="Arial" font-size="10.00" fill="#1a1a1a">color key</text>
</g>
<!-- attr_1 -->
<g id="node7" class="node">
<title>attr_1</title>
<path fill="#c7b8e6" stroke="#7f8c8d" stroke-width="1.2" d="M803,-102C803,-102 691,-102 691,-102 685,-102 679,-96 679,-90 679,-90 679,-78 679,-78 679,-72 685,-66 691,-66 691,-66 803,-66 803,-66 809,-66 815,-72 815,-78 815,-78 815,-90 815,-90 815,-96 809,-102 803,-102"/>
<text xml:space="preserve" text-anchor="middle" x="747" y="-80.5" font-family="Arial" font-size="10.00" fill="#1a1a1a">(−) color meaning explained</text>
</g>
<!-- unknown.color_key&#45;&gt;attr_1 -->
<g id="edge2" class="edge">
<title>unknown.color_key&#45;&gt;attr_1</title>
<path fill="none" stroke="#aaaaaa" d="M636.82,-57.68C646.66,-60.05 658.26,-62.85 670.17,-65.72"/>
<polygon fill="#aaaaaa" stroke="#aaaaaa" points="669.59,-68.1 676.97,-67.36 670.74,-63.33 669.59,-68.1"/>
</g>
<!-- rel_0 -->
<g id="node11" class="node">
<title>rel_0</title>
<path fill="#f5b8b8" stroke="#d46a6a" stroke-width="1.2" d="M762,-37C762,-37 732,-37 732,-37 726,-37 720,-31 720,-25 720,-25 720,-13 720,-13 720,-7 726,-1 732,-1 732,-1 762,-1 762,-1 768,-1 774,-7 774,-13 774,-13 774,-25 774,-25 774,-31 768,-37 762,-37"/>
<text xml:space="preserve" text-anchor="middle" x="747" y="-15.5" font-family="Arial" font-size="10.00" fill="#8b0000">decodes</text>
</g>
<!-- unknown.color_key&#45;&gt;rel_0 -->
<g id="edge6" class="edge">
<title>unknown.color_key&#45;&gt;rel_0</title>
<path fill="none" stroke="#d46a6a" stroke-width="1.5" d="M636.82,-44.52C657.92,-39.59 687.13,-32.76 710.03,-27.41"/>
<polygon fill="#d46a6a" stroke="#d46a6a" stroke-width="1.5" points="710.37,-30.2 717.52,-25.66 709.1,-24.75 710.37,-30.2"/>
</g>
<!-- text.axis_label -->
<g id="node3" class="node">
<title>text.axis_label</title>
<path fill="#b8e6b8" stroke="#2c3e50" stroke-width="1.8" d="M45.25,-69C45.25,-69 12,-69 12,-69 6,-69 0,-63 0,-57 0,-57 0,-45 0,-45 0,-39 6,-33 12,-33 12,-33 45.25,-33 45.25,-33 51.25,-33 57.25,-39 57.25,-45 57.25,-45 57.25,-57 57.25,-57 57.25,-63 51.25,-69 45.25,-69"/>
<text xml:space="preserve" text-anchor="middle" x="28.62" y="-47.5" font-family="Arial" font-size="10.00" fill="#1a1a1a">axis label</text>
</g>
<!-- attr_2 -->
<g id="node8" class="node">
<title>attr_2</title>
<path fill="#c7b8e6" stroke="#7f8c8d" stroke-width="1.2" d="M227.62,-101C227.62,-101 119.38,-101 119.38,-101 113.38,-101 107.38,-95 107.38,-89 107.38,-89 107.38,-77 107.38,-77 107.38,-71 113.38,-65 119.38,-65 119.38,-65 227.62,-65 227.62,-65 233.62,-65 239.62,-71 239.62,-77 239.62,-77 239.62,-89 239.62,-89 239.62,-95 233.62,-101 227.62,-101"/>
<text xml:space="preserve" text-anchor="middle" x="173.5" y="-79.5" font-family="Arial" font-size="10.00" fill="#1a1a1a">(−) present and descriptive</text>
</g>
<!-- text.axis_label&#45;&gt;attr_2 -->
<g id="edge3" class="edge">
<title>text.axis_label&#45;&gt;attr_2</title>
<path fill="none" stroke="#aaaaaa" d="M57.85,-57.32C69.72,-59.98 84.14,-63.21 98.7,-66.47"/>
<polygon fill="#aaaaaa" stroke="#aaaaaa" points="97.93,-68.81 105.3,-67.95 99.01,-64.03 97.93,-68.81"/>
</g>
<!-- rel_2 -->
<g id="node13" class="node">
<title>rel_2</title>
<path fill="#f5b8b8" stroke="#d46a6a" stroke-width="1.2" d="M223.5,-36C223.5,-36 123.5,-36 123.5,-36 117.5,-36 111.5,-30 111.5,-24 111.5,-24 111.5,-12 111.5,-12 111.5,-6 117.5,0 123.5,0 123.5,0 223.5,0 223.5,0 229.5,0 235.5,-6 235.5,-12 235.5,-12 235.5,-24 235.5,-24 235.5,-30 229.5,-36 223.5,-36"/>
<text xml:space="preserve" text-anchor="middle" x="173.5" y="-14.5" font-family="Arial" font-size="10.00" fill="#8b0000">supports interpretation of</text>
</g>
<!-- text.axis_label&#45;&gt;rel_2 -->
<g id="edge10" class="edge">
<title>text.axis_label&#45;&gt;rel_2</title>
<path fill="none" stroke="#d46a6a" stroke-width="1.5" d="M57.85,-44.48C70.45,-41.57 85.91,-38 101.36,-34.43"/>
<polygon fill="#d46a6a" stroke="#d46a6a" stroke-width="1.5" points="101.57,-37.26 108.73,-32.73 100.31,-31.8 101.57,-37.26"/>
</g>
<!-- unknown.color_encoding -->
<g id="node4" class="node">
<title>unknown.color_encoding</title>
<path fill="#b8e6b8" stroke="#2c3e50" stroke-width="1.8" d="M925,-37C925,-37 870,-37 870,-37 864,-37 858,-31 858,-25 858,-25 858,-13 858,-13 858,-7 864,-1 870,-1 870,-1 925,-1 925,-1 931,-1 937,-7 937,-13 937,-13 937,-25 937,-25 937,-31 931,-37 925,-37"/>
<text xml:space="preserve" text-anchor="middle" x="897.5" y="-15.5" font-family="Arial" font-size="10.00" fill="#1a1a1a">color encoding</text>
</g>
<!-- attr_3 -->
<g id="node9" class="node">
<title>attr_3</title>
<path fill="#c7b8e6" stroke="#7f8c8d" stroke-width="1.2" d="M1086,-37C1086,-37 992,-37 992,-37 986,-37 980,-31 980,-25 980,-25 980,-13 980,-13 980,-7 986,-1 992,-1 992,-1 1086,-1 1086,-1 1092,-1 1098,-7 1098,-13 1098,-13 1098,-25 1098,-25 1098,-31 1092,-37 1086,-37"/>
<text xml:space="preserve" text-anchor="middle" x="1039" y="-15.5" font-family="Arial" font-size="10.00" fill="#1a1a1a">(+) multiple colors used</text>
</g>
<!-- unknown.color_encoding&#45;&gt;attr_3 -->
<g id="edge4" class="edge">
<title>unknown.color_encoding&#45;&gt;attr_3</title>
<path fill="none" stroke="#aaaaaa" d="M937.73,-19C948.17,-19 959.75,-19 971.22,-19"/>
<polygon fill="#aaaaaa" stroke="#aaaaaa" points="971.02,-21.45 978.02,-19 971.02,-16.55 971.02,-21.45"/>
</g>
<!-- unknown.data_content -->
<g id="node5" class="node">
<title>unknown.data_content</title>
<path fill="#b8e6b8" stroke="#2c3e50" stroke-width="1.8" d="M347.75,-101C347.75,-101 301.75,-101 301.75,-101 295.75,-101 289.75,-95 289.75,-89 289.75,-89 289.75,-77 289.75,-77 289.75,-71 295.75,-65 301.75,-65 301.75,-65 347.75,-65 347.75,-65 353.75,-65 359.75,-71 359.75,-77 359.75,-77 359.75,-89 359.75,-89 359.75,-95 353.75,-101 347.75,-101"/>
<text xml:space="preserve" text-anchor="middle" x="324.75" y="-79.5" font-family="Arial" font-size="10.00" fill="#1a1a1a">data content</text>
</g>
<!-- attr_4 -->
<g id="node10" class="node">
<title>attr_4</title>
<path fill="#c7b8e6" stroke="#7f8c8d" stroke-width="1.2" d="M525.25,-134C525.25,-134 414.75,-134 414.75,-134 408.75,-134 402.75,-128 402.75,-122 402.75,-122 402.75,-110 402.75,-110 402.75,-104 408.75,-98 414.75,-98 414.75,-98 525.25,-98 525.25,-98 531.25,-98 537.25,-104 537.25,-110 537.25,-110 537.25,-122 537.25,-122 537.25,-128 531.25,-134 525.25,-134"/>
<text xml:space="preserve" text-anchor="middle" x="470" y="-112.5" font-family="Arial" font-size="10.00" fill="#1a1a1a">(+) high information volume</text>
</g>
<!-- unknown.data_content&#45;&gt;attr_4 -->
<g id="edge5" class="edge">
<title>unknown.data_content&#45;&gt;attr_4</title>
<path fill="none" stroke="#aaaaaa" d="M360.43,-90.99C370.72,-93.36 382.42,-96.05 394.23,-98.77"/>
<polygon fill="#aaaaaa" stroke="#aaaaaa" points="393.56,-101.13 400.93,-100.32 394.66,-96.36 393.56,-101.13"/>
</g>
<!-- rel_3 -->
<g id="node14" class="node">
<title>rel_3</title>
<path fill="#f5b8b8" stroke="#d46a6a" stroke-width="1.2" d="M514.75,-69C514.75,-69 425.25,-69 425.25,-69 419.25,-69 413.25,-63 413.25,-57 413.25,-57 413.25,-45 413.25,-45 413.25,-39 419.25,-33 425.25,-33 425.25,-33 514.75,-33 514.75,-33 520.75,-33 526.75,-39 526.75,-45 526.75,-45 526.75,-57 526.75,-57 526.75,-63 520.75,-69 514.75,-69"/>
<text xml:space="preserve" text-anchor="middle" x="470" y="-47.5" font-family="Arial" font-size="10.00" fill="#8b0000">requires effort to parse</text>
</g>
<!-- unknown.data_content&#45;&gt;rel_3 -->
<g id="edge12" class="edge">
<title>unknown.data_content&#45;&gt;rel_3</title>
<path fill="none" stroke="#d46a6a" stroke-width="1.5" d="M360.43,-75.25C373.33,-72.37 388.44,-69 403.22,-65.69"/>
<polygon fill="#d46a6a" stroke="#d46a6a" stroke-width="1.5" points="403.44,-68.51 410.64,-64.04 402.22,-63.05 403.44,-68.51"/>
</g>
<!-- rel_0&#45;&gt;unknown.color_encoding -->
<g id="edge7" class="edge">
<title>rel_0&#45;&gt;unknown.color_encoding</title>
<path fill="none" stroke="#d46a6a" stroke-width="1.5" d="M774.55,-19C794.7,-19 822.97,-19 847.22,-19"/>
<polygon fill="#d46a6a" stroke="#d46a6a" stroke-width="1.5" points="847.06,-21.8 855.06,-19 847.06,-16.2 847.06,-21.8"/>
</g>
<!-- rel_1&#45;&gt;unknown.data_content -->
<g id="edge9" class="edge">
<title>rel_1&#45;&gt;unknown.data_content</title>
<path fill="none" stroke="#d46a6a" stroke-width="1.5" d="M202.92,-135.62C224.6,-126.18 254.84,-113.01 279.65,-102.21"/>
<polygon fill="#d46a6a" stroke="#d46a6a" stroke-width="1.5" points="280.57,-104.86 286.78,-99.1 278.33,-99.73 280.57,-104.86"/>
</g>
<!-- rel_2&#45;&gt;unknown.data_content -->
<g id="edge11" class="edge">
<title>rel_2&#45;&gt;unknown.data_content</title>
<path fill="none" stroke="#d46a6a" stroke-width="1.5" d="M216.87,-36.45C236.66,-45.07 260.2,-55.32 280.14,-64.01"/>
<polygon fill="#d46a6a" stroke="#d46a6a" stroke-width="1.5" points="278.78,-66.47 287.23,-67.1 281.02,-61.34 278.78,-66.47"/>
</g>
<!-- rel_3&#45;&gt;unknown.color_key -->
<g id="edge13" class="edge">
<title>rel_3&#45;&gt;unknown.color_key</title>
<path fill="none" stroke="#d46a6a" stroke-width="1.5" d="M527.15,-51C541.37,-51 556.3,-51 569.36,-51"/>
<polygon fill="#d46a6a" stroke="#d46a6a" stroke-width="1.5" points="569.12,-53.8 577.12,-51 569.12,-48.2 569.12,-53.8"/>
</g>
</g>
</svg>
