<?xml version="1.0" encoding="UTF-8" standalone="no"?>
<!DOCTYPE svg PUBLIC "-//W3C//DTD SVG 1.1//EN"
 "http://www.w3.org/Graphics/SVG/1.1/DTD/svg11.dtd">
<!-- Generated by graphviz version 14.1.5 (20260411.2331)
 -->
<!-- Title: v487_n7405_7_f1.png Pages: 1 -->
<svg width="769pt" height="440pt"
 viewBox="0.00 0.00 769.00 440.00" xmlns="http://www.w3.org/2000/svg" xmlns:xlink="http://www.w3.org/1999/xlink">
<g id="graph0" class="graph" transform="scale(1 1) rotate(0) translate(4 436.25)">
<title>v487_n7405_7_f1.png</title>
<polygon fill="white" stroke="none" points="-4,4 -4,-436.25 764.75,-436.25 764.75,4 -4,4"/>
<text xml:space="preserve" text-anchor="start" x="311" y="-411.95" font-family="Arial" font-weight="bold" font-size="14.00">v487_n7405_7_f1.png</text>
<text xml:space="preserve" text-anchor="start" x="338" y="-392" font-family="Arial" font-size="11.00">Line &#160;| &#160;VC = 0.80</text>
<path fill="#b8e6b8" stroke="none" d="M171,-367C171,-367 179,-367 179,-367 182,-367 185,-370 185,-373 185,-373 185,-379 185,-379 185,-382 182,-385 179,-385 179,-385 171,-385 171,-385 168,-385 165,-382 165,-379 165,-379 165,-373 165,-373 165,-370 168,-367 171,-367"/>
<path fill="none" stroke="black" d="M171,-367C171,-367 179,-367 179,-367 182,-367 185,-370 185,-373 185,-373 185,-379 185,-379 185,-382 182,-385 179,-385 179,-385 171,-385 171,-385 168,-385 165,-382 165,-379 165,-379 165,-373 165,-373 165,-370 168,-367 171,-367"/>
<text xml:space="preserve" text-anchor="start" x="173.5" y="-372.25" font-family="Arial" font-size="10.00"> </text>
<text xml:space="preserve" text-anchor="start" x="189" y="-372.25" font-family="Arial" font-size="10.00">Object</text>
<path fill="#c7b8e6" stroke="none" d="M227.5,-367C227.5,-367 235.5,-367 235.5,-367 238.5,-367 241.5,-370 241.5,-373 241.5,-373 241.5,-379 241.5,-379 241.5,-382 238.5,-385 235.5,-385 235.5,-385 227.5,-385 227.5,-385 224.5,-385 221.5,-382 221.5,-379 221.5,-379 221.5,-373 221.5,-373 221.5,-370 224.5,-367 227.5,-367"/>
<path fill="none" stroke="black" d="M227.5,-367C227.5,-367 235.5,-367 235.5,-367 238.5,-367 241.5,-370 241.5,-373 241.5,-373 241.5,-379 241.5,-379 241.5,-382 238.5,-385 235.5,-385 235.5,-385 227.5,-385 227.5,-385 224.5,-385 221.5,-382 221.5,-379 221.5,-379 221.5,-373 221.5,-373 221.5,-370 224.5,-367 227.5,-367"/>
<text xml:space="preserve" text-anchor="start" x="230" y="-372.25" font-family="Arial" font-size="10.00"> </text>
<text xml:space="preserve" text-anchor="start" x="245.5" y="-372.25" font-family="Arial" font-size="10.00">Attribute</text>
<path fill="#f5b8b8" stroke="none" d="M292.25,-367C292.25,-367 300.25,-367 300.25,-367 303.25,-367 306.25,-370 306.25,-373 306.25,-373 306.25,-379 306.25,-379 306.25,-382 303.25,-385 300.25,-385 300.25,-385 292.25,-385 292.25,-385 289.25,-385 286.25,-382 286.25,-379 286.25,-379 286.25,-373 286.25,-373 286.25,-370 289.25,-367 292.25,-367"/>
<path fill="none" stroke="black" d="M292.25,-367C292.25,-367 300.25,-367 300.25,-367 303.25,-367 306.25,-370 306.25,-373 306.25,-373 306.25,-379 306.25,-379 306.25,-382 303.25,-385 300.25,-385 300.25,-385 292.25,-385 292.25,-385 289.25,-385 286.25,-382 286.25,-379 286.25,-379 286.25,-373 286.25,-373 286.25,-370 289.25,-367 292.25,-367"/>
<text xml:space="preserve" text-anchor="start" x="294.75" y="-372.25" font-family="Arial" font-size="10.00"> </text>
<text xml:space="preserve" text-anchor="start" x="310.25" y="-372.25" font-family="Arial" font-size="10.00">Relationship</text>
<text xml:space="preserve" text-anchor="start" x="370.25" y="-373.5" font-family="Arial" font-weight="bold" font-size="10.00">(+)</text>
<text xml:space="preserve" text-anchor="start" x="382.25" y="-373.5" font-family="Arial" font-size="10.00"> increases complexity</text>
<text xml:space="preserve" text-anchor="start" x="483.5" y="-373.5" font-family="Arial" font-weight="bold" font-size="10.00">(−)</text>
<text xml:space="preserve" text-anchor="start" x="495.5" y="-373.5" font-family="Arial" font-size="10.00"> decreases complexity</text>
<!-- unknown.error_bars -->
<g id="node1" class="node">
<title>unknown.error_bars</title>
<path fill="#b8e6b8" stroke="#2c3e50" stroke-width="1.8" d="M45.25,-133C45.25,-133 12,-133 12,-133 6,-133 0,-127 0,-121 0,-121 0,-109 0,-109 0,-103 6,-97 12,-97 12,-97 45.25,-97 45.25,-97 51.25,-97 57.25,-103 57.25,-109 57.25,-109 57.25,-121 57.25,-121 57.25,-127 51.25,-133 45.25,-133"/>
<text xml:space="preserve" text-anchor="middle" x="28.62" y="-111.5" font-family="Arial" font-size="10.00" fill="#1a1a1a">error bars</text>
</g>
<!-- attr_0 -->
<g id="node6" class="node">
<title>attr_0</title>
<path fill="#c7b8e6" stroke="#7f8c8d" stroke-width="1.2" d="M217.88,-231C217.88,-231 119.38,-231 119.38,-231 113.38,-231 107.38,-225 107.38,-219 107.38,-219 107.38,-207 107.38,-207 107.38,-201 113.38,-195 119.38,-195 119.38,-195 217.88,-195 217.88,-195 223.88,-195 229.88,-201 229.88,-207 229.88,-207 229.88,-219 229.88,-219 229.88,-225 223.88,-231 217.88,-231"/>
<text xml:space="preserve" text-anchor="middle" x="168.62" y="-209.5" font-family="Arial" font-size="10.00" fill="#1a1a1a">(+) bidirectional up down</text>
</g>
<!-- unknown.error_bars&#45;&gt;attr_0 -->
<g id="edge1" class="edge">
<title>unknown.error_bars&#45;&gt;attr_0</title>
<path fill="none" stroke="#aaaaaa" d="M46.98,-133.66C60.57,-147.58 80.44,-166.46 100.25,-180 105.81,-183.8 111.88,-187.42 118.02,-190.77"/>
<polygon fill="#aaaaaa" stroke="#aaaaaa" points="116.56,-192.77 123.9,-193.86 118.85,-188.43 116.56,-192.77"/>
</g>
<!-- attr_1 -->
<g id="node7" class="node">
<title>attr_1</title>
<path fill="#c7b8e6" stroke="#7f8c8d" stroke-width="1.2" d="M211.88,-166C211.88,-166 125.38,-166 125.38,-166 119.38,-166 113.38,-160 113.38,-154 113.38,-154 113.38,-142 113.38,-142 113.38,-136 119.38,-130 125.38,-130 125.38,-130 211.88,-130 211.88,-130 217.88,-130 223.88,-136 223.88,-142 223.88,-142 223.88,-154 223.88,-154 223.88,-160 217.88,-166 211.88,-166"/>
<text xml:space="preserve" text-anchor="middle" x="168.62" y="-144.5" font-family="Arial" font-size="10.00" fill="#1a1a1a">(+) adds visual clutter</text>
</g>
<!-- unknown.error_bars&#45;&gt;attr_1 -->
<g id="edge2" class="edge">
<title>unknown.error_bars&#45;&gt;attr_1</title>
<path fill="none" stroke="#aaaaaa" d="M57.88,-121.76C71.51,-125.01 88.43,-129.06 104.87,-132.99"/>
<polygon fill="#aaaaaa" stroke="#aaaaaa" points="104.04,-135.31 111.42,-134.56 105.18,-130.55 104.04,-135.31"/>
</g>
<!-- rel_0 -->
<g id="node11" class="node">
<title>rel_0</title>
<path fill="#f5b8b8" stroke="#d46a6a" stroke-width="1.2" d="M225,-101C225,-101 112.25,-101 112.25,-101 106.25,-101 100.25,-95 100.25,-89 100.25,-89 100.25,-77 100.25,-77 100.25,-71 106.25,-65 112.25,-65 112.25,-65 225,-65 225,-65 231,-65 237,-71 237,-77 237,-77 237,-89 237,-89 237,-95 231,-101 225,-101"/>
<text xml:space="preserve" text-anchor="middle" x="168.62" y="-79.5" font-family="Arial" font-size="10.00" fill="#8b0000">increases visual complexity</text>
</g>
<!-- unknown.error_bars&#45;&gt;rel_0 -->
<g id="edge6" class="edge">
<title>unknown.error_bars&#45;&gt;rel_0</title>
<path fill="none" stroke="#d46a6a" stroke-width="1.5" d="M57.88,-108.45C67.43,-106.23 78.6,-103.64 90.1,-100.98"/>
<polygon fill="#d46a6a" stroke="#d46a6a" stroke-width="1.5" points="90.42,-103.78 97.58,-99.24 89.16,-98.32 90.42,-103.78"/>
</g>
<!-- rel_2 -->
<g id="node13" class="node">
<title>rel_2</title>
<path fill="#f5b8b8" stroke="#d46a6a" stroke-width="1.2" d="M184.5,-36C184.5,-36 152.75,-36 152.75,-36 146.75,-36 140.75,-30 140.75,-24 140.75,-24 140.75,-12 140.75,-12 140.75,-6 146.75,0 152.75,0 152.75,0 184.5,0 184.5,0 190.5,0 196.5,-6 196.5,-12 196.5,-12 196.5,-24 196.5,-24 196.5,-30 190.5,-36 184.5,-36"/>
<text xml:space="preserve" text-anchor="middle" x="168.62" y="-14.5" font-family="Arial" font-size="10.00" fill="#8b0000">obscures</text>
</g>
<!-- unknown.error_bars&#45;&gt;rel_2 -->
<g id="edge10" class="edge">
<title>unknown.error_bars&#45;&gt;rel_2</title>
<path fill="none" stroke="#d46a6a" stroke-width="1.5" d="M46.93,-96.27C60.5,-82.31 80.36,-63.42 100.25,-50 109.78,-43.57 120.81,-37.75 131.15,-32.89"/>
<polygon fill="#d46a6a" stroke="#d46a6a" stroke-width="1.5" points="132.18,-35.49 138.32,-29.64 129.87,-30.39 132.18,-35.49"/>
</g>
<!-- text.label -->
<g id="node2" class="node">
<title>text.label</title>
<path fill="#b8e6b8" stroke="#2c3e50" stroke-width="1.8" d="M322,-296C322,-296 292,-296 292,-296 286,-296 280,-290 280,-284 280,-284 280,-272 280,-272 280,-266 286,-260 292,-260 292,-260 322,-260 322,-260 328,-260 334,-266 334,-272 334,-272 334,-284 334,-284 334,-290 328,-296 322,-296"/>
<text xml:space="preserve" text-anchor="middle" x="307" y="-274.5" font-family="Arial" font-size="10.00" fill="#1a1a1a">text</text>
</g>
<!-- attr_2 -->
<g id="node8" class="node">
<title>attr_2</title>
<path fill="#c7b8e6" stroke="#7f8c8d" stroke-width="1.2" d="M489.75,-328C489.75,-328 389,-328 389,-328 383,-328 377,-322 377,-316 377,-316 377,-304 377,-304 377,-298 383,-292 389,-292 389,-292 489.75,-292 489.75,-292 495.75,-292 501.75,-298 501.75,-304 501.75,-304 501.75,-316 501.75,-316 501.75,-322 495.75,-328 489.75,-328"/>
<text xml:space="preserve" text-anchor="middle" x="439.38" y="-306.5" font-family="Arial" font-size="10.00" fill="#1a1a1a">(+) requires reading effort</text>
</g>
<!-- text.label&#45;&gt;attr_2 -->
<g id="edge3" class="edge">
<title>text.label&#45;&gt;attr_2</title>
<path fill="none" stroke="#aaaaaa" d="M334.7,-284.55C344.66,-287 356.49,-289.9 368.53,-292.86"/>
<polygon fill="#aaaaaa" stroke="#aaaaaa" points="367.61,-295.15 374.99,-294.44 368.77,-290.39 367.61,-295.15"/>
</g>
<!-- rel_1 -->
<g id="node12" class="node">
<title>rel_1</title>
<path fill="#f5b8b8" stroke="#d46a6a" stroke-width="1.2" d="M472.5,-263C472.5,-263 406.25,-263 406.25,-263 400.25,-263 394.25,-257 394.25,-251 394.25,-251 394.25,-239 394.25,-239 394.25,-233 400.25,-227 406.25,-227 406.25,-227 472.5,-227 472.5,-227 478.5,-227 484.5,-233 484.5,-239 484.5,-239 484.5,-251 484.5,-251 484.5,-257 478.5,-263 472.5,-263"/>
<text xml:space="preserve" text-anchor="middle" x="439.38" y="-241.5" font-family="Arial" font-size="10.00" fill="#8b0000">demands reading</text>
</g>
<!-- text.label&#45;&gt;rel_1 -->
<g id="edge8" class="edge">
<title>text.label&#45;&gt;rel_1</title>
<path fill="none" stroke="#d46a6a" stroke-width="1.5" d="M334.7,-271.24C348.9,-267.65 366.89,-263.09 383.89,-258.79"/>
<polygon fill="#d46a6a" stroke="#d46a6a" stroke-width="1.5" points="384.47,-261.53 391.54,-256.85 383.1,-256.1 384.47,-261.53"/>
</g>
<!-- mark.line -->
<g id="node3" class="node">
<title>mark.line</title>
<path fill="#b8e6b8" stroke="#2c3e50" stroke-width="1.8" d="M322,-69C322,-69 292,-69 292,-69 286,-69 280,-63 280,-57 280,-57 280,-45 280,-45 280,-39 286,-33 292,-33 292,-33 322,-33 322,-33 328,-33 334,-39 334,-45 334,-45 334,-57 334,-57 334,-63 328,-69 322,-69"/>
<text xml:space="preserve" text-anchor="middle" x="307" y="-47.5" font-family="Arial" font-size="10.00" fill="#1a1a1a">line</text>
</g>
<!-- text.axis_label -->
<g id="node4" class="node">
<title>text.axis_label</title>
<path fill="#b8e6b8" stroke="#2c3e50" stroke-width="1.8" d="M590,-263C590,-263 556.75,-263 556.75,-263 550.75,-263 544.75,-257 544.75,-251 544.75,-251 544.75,-239 544.75,-239 544.75,-233 550.75,-227 556.75,-227 556.75,-227 590,-227 590,-227 596,-227 602,-233 602,-239 602,-239 602,-251 602,-251 602,-257 596,-263 590,-263"/>
<text xml:space="preserve" text-anchor="middle" x="573.38" y="-241.5" font-family="Arial" font-size="10.00" fill="#1a1a1a">axis label</text>
</g>
<!-- attr_3 -->
<g id="node9" class="node">
<title>attr_3</title>
<path fill="#c7b8e6" stroke="#7f8c8d" stroke-width="1.2" d="M748.75,-263C748.75,-263 657,-263 657,-263 651,-263 645,-257 645,-251 645,-251 645,-239 645,-239 645,-233 651,-227 657,-227 657,-227 748.75,-227 748.75,-227 754.75,-227 760.75,-233 760.75,-239 760.75,-239 760.75,-251 760.75,-251 760.75,-257 754.75,-263 748.75,-263"/>
<text xml:space="preserve" text-anchor="middle" x="702.88" y="-241.5" font-family="Arial" font-size="10.00" fill="#1a1a1a">(+) dense label content</text>
</g>
<!-- text.axis_label&#45;&gt;attr_3 -->
<g id="edge4" class="edge">
<title>text.axis_label&#45;&gt;attr_3</title>
<path fill="none" stroke="#aaaaaa" d="M602.67,-245C612.75,-245 624.55,-245 636.43,-245"/>
<polygon fill="#aaaaaa" stroke="#aaaaaa" points="636.14,-247.45 643.14,-245 636.14,-242.55 636.14,-247.45"/>
</g>
<!-- furniture.legend -->
<g id="node5" class="node">
<title>furniture.legend</title>
<path fill="#b8e6b8" stroke="#2c3e50" stroke-width="1.8" d="M43.62,-328C43.62,-328 13.62,-328 13.62,-328 7.62,-328 1.62,-322 1.62,-316 1.62,-316 1.62,-304 1.62,-304 1.62,-298 7.62,-292 13.62,-292 13.62,-292 43.62,-292 43.62,-292 49.62,-292 55.62,-298 55.62,-304 55.62,-304 55.62,-316 55.62,-316 55.62,-322 49.62,-328 43.62,-328"/>
<text xml:space="preserve" text-anchor="middle" x="28.62" y="-306.5" font-family="Arial" font-size="10.00" fill="#1a1a1a">legend</text>
</g>
<!-- attr_4 -->
<g id="node10" class="node">
<title>attr_4</title>
<path fill="#c7b8e6" stroke="#7f8c8d" stroke-width="1.2" d="M219,-361C219,-361 118.25,-361 118.25,-361 112.25,-361 106.25,-355 106.25,-349 106.25,-349 106.25,-337 106.25,-337 106.25,-331 112.25,-325 118.25,-325 118.25,-325 219,-325 219,-325 225,-325 231,-331 231,-337 231,-337 231,-349 231,-349 231,-355 225,-361 219,-361"/>
<text xml:space="preserve" text-anchor="middle" x="168.62" y="-339.5" font-family="Arial" font-size="10.00" fill="#1a1a1a">(+) requires interpretation</text>
</g>
<!-- furniture.legend&#45;&gt;attr_4 -->
<g id="edge5" class="edge">
<title>furniture.legend&#45;&gt;attr_4</title>
<path fill="none" stroke="#aaaaaa" d="M56.23,-316.36C68.19,-319.22 82.93,-322.75 97.72,-326.28"/>
<polygon fill="#aaaaaa" stroke="#aaaaaa" points="97.08,-328.65 104.46,-327.89 98.22,-323.88 97.08,-328.65"/>
</g>
<!-- rel_3 -->
<g id="node14" class="node">
<title>rel_3</title>
<path fill="#f5b8b8" stroke="#d46a6a" stroke-width="1.2" d="M210.38,-296C210.38,-296 126.88,-296 126.88,-296 120.88,-296 114.88,-290 114.88,-284 114.88,-284 114.88,-272 114.88,-272 114.88,-266 120.88,-260 126.88,-260 126.88,-260 210.38,-260 210.38,-260 216.38,-260 222.38,-266 222.38,-272 222.38,-272 222.38,-284 222.38,-284 222.38,-290 216.38,-296 210.38,-296"/>
<text xml:space="preserve" text-anchor="middle" x="168.62" y="-274.5" font-family="Arial" font-size="10.00" fill="#8b0000">requires expertise for</text>
</g>
<!-- furniture.legend&#45;&gt;rel_3 -->
<g id="edge12" class="edge">
<title>furniture.legend&#45;&gt;rel_3</title>
<path fill="none" stroke="#d46a6a" stroke-width="1.5" d="M56.23,-303.83C70.05,-300.63 87.56,-296.56 104.59,-292.62"/>
<polygon fill="#d46a6a" stroke="#d46a6a" stroke-width="1.5" points="105.16,-295.36 112.32,-290.82 103.89,-289.9 105.16,-295.36"/>
</g>
<!-- rel_0&#45;&gt;mark.line -->
<g id="edge7" class="edge">
<title>rel_0&#45;&gt;mark.line</title>
<path fill="none" stroke="#d46a6a" stroke-width="1.5" d="M237.41,-67.09C248.43,-64.51 259.46,-61.92 269.35,-59.6"/>
<polygon fill="#d46a6a" stroke="#d46a6a" stroke-width="1.5" points="269.84,-62.36 276.99,-57.81 268.56,-56.91 269.84,-62.36"/>
</g>
<!-- rel_1&#45;&gt;text.axis_label -->
<g id="edge9" class="edge">
<title>rel_1&#45;&gt;text.axis_label</title>
<path fill="none" stroke="#d46a6a" stroke-width="1.5" d="M485.06,-245C500.86,-245 518.49,-245 533.74,-245"/>
<polygon fill="#d46a6a" stroke="#d46a6a" stroke-width="1.5" points="533.6,-247.8 541.6,-245 533.6,-242.2 533.6,-247.8"/>
</g>
<!-- rel_2&#45;&gt;mark.line -->
<g id="edge11" class="edge">
<title>rel_2&#45;&gt;mark.line</title>
<path fill="none" stroke="#d46a6a" stroke-width="1.5" d="M196.89,-24.6C217.75,-29.65 246.71,-36.65 269.55,-42.18"/>
<polygon fill="#d46a6a" stroke="#d46a6a" stroke-width="1.5" points="268.6,-44.83 277.04,-43.99 269.92,-39.39 268.6,-44.83"/>
</g>
<!-- rel_3&#45;&gt;text.label -->
<g id="edge13" class="edge">
<title>rel_3&#45;&gt;text.label</title>
<path fill="none" stroke="#d46a6a" stroke-width="1.5" d="M222.74,-278C238.27,-278 254.89,-278 269.17,-278"/>
<polygon fill="#d46a6a" stroke="#d46a6a" stroke-width="1.5" points="268.83,-280.8 276.83,-278 268.83,-275.2 268.83,-280.8"/>
</g>
</g>
</svg>
