<?xml version="1.0" encoding="UTF-8" standalone="no"?>
<!DOCTYPE svg PUBLIC "-//W3C//DTD SVG 1.1//EN"
 "http://www.w3.org/Graphics/SVG/1.1/DTD/svg11.dtd">
<!-- Generated by graphviz version 14.1.5 (20260411.2331)
 -->
<!-- Title: v487_n7407_14_f4.png Pages: 1 -->
<svg width="937pt" height="500pt"
 viewBox="0.00 0.00 937.00 500.00" xmlns="http://www.w3.org/2000/svg" xmlns:xlink="http://www.w3.org/1999/xlink">
<g id="graph0" class="graph" transform="scale(1 1) rotate(0) translate(4 496.25)">
<title>v487_n7407_14_f4.png</title>
<polygon fill="white" stroke="none" points="-4,4 -4,-496.25 932.75,-496.25 932.75,4 -4,4"/>
<text xml:space="preserve" text-anchor="start" x="391.25" y="-471.95" font-family="Arial" font-weight="bold" font-size="14.00">v487_n7407_14_f4.png</text>
<text xml:space="preserve" text-anchor="start" x="419.75" y="-452" font-family="Arial" font-size="11.00">Point &#160;| &#160;VC = 0.74</text>
<path fill="#b8e6b8" stroke="none" d="M255,-427C255,-427 263,-427 263,-427 266,-427 269,-430 269,-433 269,-433 269,-439 269,-439 269,-442 266,-445 263,-445 263,-445 255,-445 255,-445 252,-445 249,-442 249,-439 249,-439 249,-433 249,-433 249,-430 252,-427 255,-427"/>
<path fill="none" stroke="black" d="M255,-427C255,-427 263,-427 263,-427 266,-427 269,-430 269,-433 269,-433 269,-439 269,-439 269,-442 266,-445 263,-445 263,-445 255,-445 255,-445 252,-445 249,-442 249,-439 249,-439 249,-433 249,-433 249,-430 252,-427 255,-427"/>
<text xml:space="preserve" text-anchor="start" x="257.5" y="-432.25" font-family="Arial" font-size="10.00"> </text>
<text xml:space="preserve" text-anchor="start" x="273" y="-432.25" font-family="Arial" font-size="10.00">Object</text>
<path fill="#c7b8e6" stroke="none" d="M311.5,-427C311.5,-427 319.5,-427 319.5,-427 322.5,-427 325.5,-430 325.5,-433 325.5,-433 325.5,-439 325.5,-439 325.5,-442 322.5,-445 319.5,-445 319.5,-445 311.5,-445 311.5,-445 308.5,-445 305.5,-442 305.5,-439 305.5,-439 305.5,-433 305.5,-433 305.5,-430 308.5,-427 311.5,-427"/>
<path fill="none" stroke="black" d="M311.5,-427C311.5,-427 319.5,-427 319.5,-427 322.5,-427 325.5,-430 325.5,-433 325.5,-433 325.5,-439 325.5,-439 325.5,-442 322.5,-445 319.5,-445 319.5,-445 311.5,-445 311.5,-445 308.5,-445 305.5,-442 305.5,-439 305.5,-439 305.5,-433 305.5,-433 305.5,-430 308.5,-427 311.5,-427"/>
<text xml:space="preserve" text-anchor="start" x="314" y="-432.25" font-family="Arial" font-size="10.00"> </text>
<text xml:space="preserve" text-anchor="start" x="329.5" y="-432.25" font-family="Arial" font-size="10.00">Attribute</text>
<path fill="#f5b8b8" stroke="none" d="M376.25,-427C376.25,-427 384.25,-427 384.25,-427 387.25,-427 390.25,-430 390.25,-433 390.25,-433 390.25,-439 390.25,-439 390.25,-442 387.25,-445 384.25,-445 384.25,-445 376.25,-445 376.25,-445 373.25,-445 370.25,-442 370.25,-439 370.25,-439 370.25,-433 370.25,-433 370.25,-430 373.25,-427 376.25,-427"/>
<path fill="none" stroke="black" d="M376.25,-427C376.25,-427 384.25,-427 384.25,-427 387.25,-427 390.25,-430 390.25,-433 390.25,-433 390.25,-439 390.25,-439 390.25,-442 387.25,-445 384.25,-445 384.25,-445 376.25,-445 376.25,-445 373.25,-445 370.25,-442 370.25,-439 370.25,-439 370.25,-433 370.25,-433 370.25,-430 373.25,-427 376.25,-427"/>
<text xml:space="preserve" text-anchor="start" x="378.75" y="-432.25" font-family="Arial" font-size="10.00"> </text>
<text xml:space="preserve" text-anchor="start" x="394.25" y="-432.25" font-family="Arial" font-size="10.00">Relationship</text>
<text xml:space="preserve" text-anchor="start" x="454.25" y="-433.5" font-family="Arial" font-weight="bold" font-size="10.00">(+)</text>
<text xml:space="preserve" text-anchor="start" x="466.25" y="-433.5" font-family="Arial" font-size="10.00"> increases complexity</text>
<text xml:space="preserve" text-anchor="start" x="567.5" y="-433.5" font-family="Arial" font-weight="bold" font-size="10.00">(−)</text>
<text xml:space="preserve" text-anchor="start" x="579.5" y="-433.5" font-family="Arial" font-size="10.00"> decreases complexity</text>
<!-- unknown.data_points -->
<g id="node1" class="node">
<title>unknown.data_points</title>
<path fill="#b8e6b8" stroke="#2c3e50" stroke-width="1.8" d="M409.25,-101C409.25,-101 369.25,-101 369.25,-101 363.25,-101 357.25,-95 357.25,-89 357.25,-89 357.25,-77 357.25,-77 357.25,-71 363.25,-65 369.25,-65 369.25,-65 409.25,-65 409.25,-65 415.25,-65 421.25,-71 421.25,-77 421.25,-77 421.25,-89 421.25,-89 421.25,-95 415.25,-101 409.25,-101"/>
<text xml:space="preserve" text-anchor="middle" x="389.25" y="-79.5" font-family="Arial" font-size="10.00" fill="#1a1a1a">data points</text>
</g>
<!-- attr_4 -->
<g id="node7" class="node">
<title>attr_4</title>
<path fill="#c7b8e6" stroke="#7f8c8d" stroke-width="1.2" d="M624.25,-101C624.25,-101 498,-101 498,-101 492,-101 486,-95 486,-89 486,-89 486,-77 486,-77 486,-71 492,-65 498,-65 498,-65 624.25,-65 624.25,-65 630.25,-65 636.25,-71 636.25,-77 636.25,-77 636.25,-89 636.25,-89 636.25,-95 630.25,-101 624.25,-101"/>
<text xml:space="preserve" text-anchor="middle" x="561.12" y="-79.5" font-family="Arial" font-size="10.00" fill="#1a1a1a">(+) moderate visual complexity</text>
</g>
<!-- unknown.data_points&#45;&gt;attr_4 -->
<g id="edge1" class="edge">
<title>unknown.data_points&#45;&gt;attr_4</title>
<path fill="none" stroke="#aaaaaa" d="M421.8,-83C437.59,-83 457.51,-83 477.28,-83"/>
<polygon fill="#aaaaaa" stroke="#aaaaaa" points="477.21,-85.45 484.21,-83 477.21,-80.55 477.21,-85.45"/>
</g>
<!-- unknown.shape_encoding -->
<g id="node2" class="node">
<title>unknown.shape_encoding</title>
<path fill="#b8e6b8" stroke="#2c3e50" stroke-width="1.8" d="M72.25,-69C72.25,-69 12,-69 12,-69 6,-69 0,-63 0,-57 0,-57 0,-45 0,-45 0,-39 6,-33 12,-33 12,-33 72.25,-33 72.25,-33 78.25,-33 84.25,-39 84.25,-45 84.25,-45 84.25,-57 84.25,-57 84.25,-63 78.25,-69 72.25,-69"/>
<text xml:space="preserve" text-anchor="middle" x="42.12" y="-47.5" font-family="Arial" font-size="10.00" fill="#1a1a1a">shape encoding</text>
</g>
<!-- attr_0 -->
<g id="node8" class="node">
<title>attr_0</title>
<path fill="#c7b8e6" stroke="#7f8c8d" stroke-width="1.2" d="M280.5,-101C280.5,-101 139.25,-101 139.25,-101 133.25,-101 127.25,-95 127.25,-89 127.25,-89 127.25,-77 127.25,-77 127.25,-71 133.25,-65 139.25,-65 139.25,-65 280.5,-65 280.5,-65 286.5,-65 292.5,-71 292.5,-77 292.5,-77 292.5,-89 292.5,-89 292.5,-95 286.5,-101 280.5,-101"/>
<text xml:space="preserve" text-anchor="middle" x="209.88" y="-79.5" font-family="Arial" font-size="10.00" fill="#1a1a1a">(−) distinguishable shapes present</text>
</g>
<!-- unknown.shape_encoding&#45;&gt;attr_0 -->
<g id="edge2" class="edge">
<title>unknown.shape_encoding&#45;&gt;attr_0</title>
<path fill="none" stroke="#aaaaaa" d="M84.95,-59.07C95.31,-61.08 106.82,-63.3 118.53,-65.56"/>
<polygon fill="#aaaaaa" stroke="#aaaaaa" points="117.84,-67.92 125.17,-66.84 118.77,-63.11 117.84,-67.92"/>
</g>
<!-- rel_2 -->
<g id="node15" class="node">
<title>rel_2</title>
<path fill="#f5b8b8" stroke="#d46a6a" stroke-width="1.2" d="M250.88,-36C250.88,-36 168.88,-36 168.88,-36 162.88,-36 156.88,-30 156.88,-24 156.88,-24 156.88,-12 156.88,-12 156.88,-6 162.88,0 168.88,0 168.88,0 250.88,0 250.88,0 256.88,0 262.88,-6 262.88,-12 262.88,-12 262.88,-24 262.88,-24 262.88,-30 256.88,-36 250.88,-36"/>
<text xml:space="preserve" text-anchor="middle" x="209.88" y="-14.5" font-family="Arial" font-size="10.00" fill="#8b0000">aids differentiation of</text>
</g>
<!-- unknown.shape_encoding&#45;&gt;rel_2 -->
<g id="edge11" class="edge">
<title>unknown.shape_encoding&#45;&gt;rel_2</title>
<path fill="none" stroke="#d46a6a" stroke-width="1.5" d="M84.95,-42.67C103.58,-38.96 125.9,-34.52 146.44,-30.43"/>
<polygon fill="#d46a6a" stroke="#d46a6a" stroke-width="1.5" points="146.83,-33.21 154.13,-28.9 145.74,-27.71 146.83,-33.21"/>
</g>
<!-- unknown.color_encoding -->
<g id="node3" class="node">
<title>unknown.color_encoding</title>
<path fill="#b8e6b8" stroke="#2c3e50" stroke-width="1.8" d="M416.75,-357C416.75,-357 361.75,-357 361.75,-357 355.75,-357 349.75,-351 349.75,-345 349.75,-345 349.75,-333 349.75,-333 349.75,-327 355.75,-321 361.75,-321 361.75,-321 416.75,-321 416.75,-321 422.75,-321 428.75,-327 428.75,-333 428.75,-333 428.75,-345 428.75,-345 428.75,-351 422.75,-357 416.75,-357"/>
<text xml:space="preserve" text-anchor="middle" x="389.25" y="-335.5" font-family="Arial" font-size="10.00" fill="#1a1a1a">color encoding</text>
</g>
<!-- attr_1 -->
<g id="node9" class="node">
<title>attr_1</title>
<path fill="#c7b8e6" stroke="#7f8c8d" stroke-width="1.2" d="M612.25,-419C612.25,-419 510,-419 510,-419 504,-419 498,-413 498,-407 498,-407 498,-395 498,-395 498,-389 504,-383 510,-383 510,-383 612.25,-383 612.25,-383 618.25,-383 624.25,-389 624.25,-395 624.25,-395 624.25,-407 624.25,-407 624.25,-413 618.25,-419 612.25,-419"/>
<text xml:space="preserve" text-anchor="middle" x="561.12" y="-397.5" font-family="Arial" font-size="10.00" fill="#1a1a1a">(+) unclear color mapping</text>
</g>
<!-- unknown.color_encoding&#45;&gt;attr_1 -->
<g id="edge3" class="edge">
<title>unknown.color_encoding&#45;&gt;attr_1</title>
<path fill="none" stroke="#aaaaaa" d="M429.65,-353.38C450.96,-361.16 477.7,-370.92 501.42,-379.57"/>
<polygon fill="#aaaaaa" stroke="#aaaaaa" points="500.49,-381.84 507.91,-381.94 502.17,-377.24 500.49,-381.84"/>
</g>
<!-- rel_3 -->
<g id="node16" class="node">
<title>rel_3</title>
<path fill="#f5b8b8" stroke="#d46a6a" stroke-width="1.2" d="M601.75,-354C601.75,-354 520.5,-354 520.5,-354 514.5,-354 508.5,-348 508.5,-342 508.5,-342 508.5,-330 508.5,-330 508.5,-324 514.5,-318 520.5,-318 520.5,-318 601.75,-318 601.75,-318 607.75,-318 613.75,-324 613.75,-330 613.75,-330 613.75,-342 613.75,-342 613.75,-348 607.75,-354 601.75,-354"/>
<text xml:space="preserve" text-anchor="middle" x="561.12" y="-332.5" font-family="Arial" font-size="10.00" fill="#8b0000">partially encodes via</text>
</g>
<!-- unknown.color_encoding&#45;&gt;rel_3 -->
<g id="edge13" class="edge">
<title>unknown.color_encoding&#45;&gt;rel_3</title>
<path fill="none" stroke="#d46a6a" stroke-width="1.5" d="M429.65,-338.3C449.97,-337.95 475.23,-337.5 498.09,-337.1"/>
<polygon fill="#d46a6a" stroke="#d46a6a" stroke-width="1.5" points="497.84,-339.9 505.79,-336.96 497.74,-334.3 497.84,-339.9"/>
</g>
<!-- text.axis_label -->
<g id="node4" class="node">
<title>text.axis_label</title>
<path fill="#b8e6b8" stroke="#2c3e50" stroke-width="1.8" d="M58.75,-199C58.75,-199 25.5,-199 25.5,-199 19.5,-199 13.5,-193 13.5,-187 13.5,-187 13.5,-175 13.5,-175 13.5,-169 19.5,-163 25.5,-163 25.5,-163 58.75,-163 58.75,-163 64.75,-163 70.75,-169 70.75,-175 70.75,-175 70.75,-187 70.75,-187 70.75,-193 64.75,-199 58.75,-199"/>
<text xml:space="preserve" text-anchor="middle" x="42.12" y="-177.5" font-family="Arial" font-size="10.00" fill="#1a1a1a">axis label</text>
</g>
<!-- attr_2 -->
<g id="node10" class="node">
<title>attr_2</title>
<path fill="#c7b8e6" stroke="#7f8c8d" stroke-width="1.2" d="M254.25,-231C254.25,-231 165.5,-231 165.5,-231 159.5,-231 153.5,-225 153.5,-219 153.5,-219 153.5,-207 153.5,-207 153.5,-201 159.5,-195 165.5,-195 165.5,-195 254.25,-195 254.25,-195 260.25,-195 266.25,-201 266.25,-207 266.25,-207 266.25,-219 266.25,-219 266.25,-225 260.25,-231 254.25,-231"/>
<text xml:space="preserve" text-anchor="middle" x="209.88" y="-209.5" font-family="Arial" font-size="10.00" fill="#1a1a1a">(−) axis meaning clear</text>
</g>
<!-- text.axis_label&#45;&gt;attr_2 -->
<g id="edge4" class="edge">
<title>text.axis_label&#45;&gt;attr_2</title>
<path fill="none" stroke="#aaaaaa" d="M71.62,-186.5C91.75,-190.39 119.54,-195.75 144.85,-200.64"/>
<polygon fill="#aaaaaa" stroke="#aaaaaa" points="144.15,-203 151.48,-201.92 145.08,-198.19 144.15,-203"/>
</g>
<!-- rel_0 -->
<g id="node13" class="node">
<title>rel_0</title>
<path fill="#f5b8b8" stroke="#d46a6a" stroke-width="1.2" d="M224.88,-166C224.88,-166 194.88,-166 194.88,-166 188.88,-166 182.88,-160 182.88,-154 182.88,-154 182.88,-142 182.88,-142 182.88,-136 188.88,-130 194.88,-130 194.88,-130 224.88,-130 224.88,-130 230.88,-130 236.88,-136 236.88,-142 236.88,-142 236.88,-154 236.88,-154 236.88,-160 230.88,-166 224.88,-166"/>
<text xml:space="preserve" text-anchor="middle" x="209.88" y="-144.5" font-family="Arial" font-size="10.00" fill="#8b0000">clarifies</text>
</g>
<!-- text.axis_label&#45;&gt;rel_0 -->
<g id="edge7" class="edge">
<title>text.axis_label&#45;&gt;rel_0</title>
<path fill="none" stroke="#d46a6a" stroke-width="1.5" d="M71.62,-175.33C99.56,-169.76 142.27,-161.26 172.61,-155.22"/>
<polygon fill="#d46a6a" stroke="#d46a6a" stroke-width="1.5" points="172.87,-158.02 180.17,-153.72 171.77,-152.53 172.87,-158.02"/>
</g>
<!-- furniture.legend -->
<g id="node5" class="node">
<title>furniture.legend</title>
<path fill="#b8e6b8" stroke="#2c3e50" stroke-width="1.8" d="M721.25,-323C721.25,-323 691.25,-323 691.25,-323 685.25,-323 679.25,-317 679.25,-311 679.25,-311 679.25,-299 679.25,-299 679.25,-293 685.25,-287 691.25,-287 691.25,-287 721.25,-287 721.25,-287 727.25,-287 733.25,-293 733.25,-299 733.25,-299 733.25,-311 733.25,-311 733.25,-317 727.25,-323 721.25,-323"/>
<text xml:space="preserve" text-anchor="middle" x="706.25" y="-301.5" font-family="Arial" font-size="10.00" fill="#1a1a1a">legend</text>
</g>
<!-- attr_5 -->
<g id="node11" class="node">
<title>attr_5</title>
<path fill="#c7b8e6" stroke="#7f8c8d" stroke-width="1.2" d="M916.75,-323C916.75,-323 788.25,-323 788.25,-323 782.25,-323 776.25,-317 776.25,-311 776.25,-311 776.25,-299 776.25,-299 776.25,-293 782.25,-287 788.25,-287 788.25,-287 916.75,-287 916.75,-287 922.75,-287 928.75,-293 928.75,-299 928.75,-299 928.75,-311 928.75,-311 928.75,-317 922.75,-323 916.75,-323"/>
<text xml:space="preserve" text-anchor="middle" x="852.5" y="-301.5" font-family="Arial" font-size="10.00" fill="#1a1a1a">(+) partially interpretable legend</text>
</g>
<!-- furniture.legend&#45;&gt;attr_5 -->
<g id="edge5" class="edge">
<title>furniture.legend&#45;&gt;attr_5</title>
<path fill="none" stroke="#aaaaaa" d="M734.04,-305C743.78,-305 755.36,-305 767.4,-305"/>
<polygon fill="#aaaaaa" stroke="#aaaaaa" points="767.28,-307.45 774.28,-305 767.28,-302.55 767.28,-307.45"/>
</g>
<!-- unknown.colormap -->
<g id="node6" class="node">
<title>unknown.colormap</title>
<path fill="#b8e6b8" stroke="#2c3e50" stroke-width="1.8" d="M58,-356C58,-356 26.25,-356 26.25,-356 20.25,-356 14.25,-350 14.25,-344 14.25,-344 14.25,-332 14.25,-332 14.25,-326 20.25,-320 26.25,-320 26.25,-320 58,-320 58,-320 64,-320 70,-326 70,-332 70,-332 70,-344 70,-344 70,-350 64,-356 58,-356"/>
<text xml:space="preserve" text-anchor="middle" x="42.12" y="-334.5" font-family="Arial" font-size="10.00" fill="#1a1a1a">colormap</text>
</g>
<!-- attr_3 -->
<g id="node12" class="node">
<title>attr_3</title>
<path fill="#c7b8e6" stroke="#7f8c8d" stroke-width="1.2" d="M279.38,-421C279.38,-421 140.38,-421 140.38,-421 134.38,-421 128.38,-415 128.38,-409 128.38,-409 128.38,-397 128.38,-397 128.38,-391 134.38,-385 140.38,-385 140.38,-385 279.38,-385 279.38,-385 285.38,-385 291.38,-391 291.38,-397 291.38,-397 291.38,-409 291.38,-409 291.38,-415 285.38,-421 279.38,-421"/>
<text xml:space="preserve" text-anchor="middle" x="209.88" y="-399.5" font-family="Arial" font-size="10.00" fill="#1a1a1a">(+) ambiguous colormap encoding</text>
</g>
<!-- unknown.colormap&#45;&gt;attr_3 -->
<g id="edge6" class="edge">
<title>unknown.colormap&#45;&gt;attr_3</title>
<path fill="none" stroke="#aaaaaa" d="M70.87,-348.88C93.44,-357.73 126.01,-370.5 153.84,-381.42"/>
<polygon fill="#aaaaaa" stroke="#aaaaaa" points="152.73,-383.61 160.14,-383.89 154.52,-379.05 152.73,-383.61"/>
</g>
<!-- rel_1 -->
<g id="node14" class="node">
<title>rel_1</title>
<path fill="#f5b8b8" stroke="#d46a6a" stroke-width="1.2" d="M225.75,-356C225.75,-356 194,-356 194,-356 188,-356 182,-350 182,-344 182,-344 182,-332 182,-332 182,-326 188,-320 194,-320 194,-320 225.75,-320 225.75,-320 231.75,-320 237.75,-326 237.75,-332 237.75,-332 237.75,-344 237.75,-344 237.75,-350 231.75,-356 225.75,-356"/>
<text xml:space="preserve" text-anchor="middle" x="209.88" y="-334.5" font-family="Arial" font-size="10.00" fill="#8b0000">obscures</text>
</g>
<!-- unknown.colormap&#45;&gt;rel_1 -->
<g id="edge9" class="edge">
<title>unknown.colormap&#45;&gt;rel_1</title>
<path fill="none" stroke="#d46a6a" stroke-width="1.5" d="M70.87,-338C98.4,-338 140.8,-338 171.33,-338"/>
<polygon fill="#d46a6a" stroke="#d46a6a" stroke-width="1.5" points="171.32,-340.8 179.32,-338 171.32,-335.2 171.32,-340.8"/>
</g>
<!-- rel_4 -->
<g id="node17" class="node">
<title>rel_4</title>
<path fill="#f5b8b8" stroke="#d46a6a" stroke-width="1.2" d="M431,-292C431,-292 347.5,-292 347.5,-292 341.5,-292 335.5,-286 335.5,-280 335.5,-280 335.5,-268 335.5,-268 335.5,-262 341.5,-256 347.5,-256 347.5,-256 431,-256 431,-256 437,-256 443,-262 443,-268 443,-268 443,-280 443,-280 443,-286 437,-292 431,-292"/>
<text xml:space="preserve" text-anchor="middle" x="389.25" y="-270.5" font-family="Arial" font-size="10.00" fill="#8b0000">requires expertise for</text>
</g>
<!-- unknown.colormap&#45;&gt;rel_4 -->
<g id="edge15" class="edge">
<title>unknown.colormap&#45;&gt;rel_4</title>
<path fill="none" stroke="#d46a6a" stroke-width="1.5" d="M70.63,-325.61C86.8,-318.81 107.84,-310.81 127.25,-306 193.65,-289.56 271.74,-281.4 325.08,-277.46"/>
<polygon fill="#d46a6a" stroke="#d46a6a" stroke-width="1.5" points="325.03,-280.27 332.82,-276.91 324.64,-274.69 325.03,-280.27"/>
</g>
<!-- rel_0&#45;&gt;unknown.data_points -->
<g id="edge8" class="edge">
<title>rel_0&#45;&gt;unknown.data_points</title>
<path fill="none" stroke="#d46a6a" stroke-width="1.5" d="M237.43,-138.27C266.37,-127.66 313.05,-110.56 346.81,-98.18"/>
<polygon fill="#d46a6a" stroke="#d46a6a" stroke-width="1.5" points="347.73,-100.83 354.28,-95.45 345.8,-95.57 347.73,-100.83"/>
</g>
<!-- rel_1&#45;&gt;unknown.color_encoding -->
<g id="edge10" class="edge">
<title>rel_1&#45;&gt;unknown.color_encoding</title>
<path fill="none" stroke="#d46a6a" stroke-width="1.5" d="M238.2,-338.15C264.95,-338.3 306.29,-338.54 338.82,-338.72"/>
<polygon fill="#d46a6a" stroke="#d46a6a" stroke-width="1.5" points="338.75,-341.52 346.77,-338.77 338.78,-335.92 338.75,-341.52"/>
</g>
<!-- rel_2&#45;&gt;unknown.data_points -->
<g id="edge12" class="edge">
<title>rel_2&#45;&gt;unknown.data_points</title>
<path fill="none" stroke="#d46a6a" stroke-width="1.5" d="M261.23,-36.45C288.38,-46.4 321.48,-58.53 347.07,-67.91"/>
<polygon fill="#d46a6a" stroke="#d46a6a" stroke-width="1.5" points="345.88,-70.46 354.36,-70.58 347.81,-65.2 345.88,-70.46"/>
</g>
<!-- rel_3&#45;&gt;furniture.legend -->
<g id="edge14" class="edge">
<title>rel_3&#45;&gt;furniture.legend</title>
<path fill="none" stroke="#d46a6a" stroke-width="1.5" d="M614.2,-324.72C632.34,-320.79 652.28,-316.47 668.87,-312.88"/>
<polygon fill="#d46a6a" stroke="#d46a6a" stroke-width="1.5" points="669.27,-315.66 676.5,-311.23 668.09,-310.18 669.27,-315.66"/>
</g>
<!-- rel_4&#45;&gt;furniture.legend -->
<g id="edge16" class="edge">
<title>rel_4&#45;&gt;furniture.legend</title>
<path fill="none" stroke="#d46a6a" stroke-width="1.5" d="M443.33,-279.22C507.24,-285.51 612.9,-295.91 668.48,-301.38"/>
<polygon fill="#d46a6a" stroke="#d46a6a" stroke-width="1.5" points="668.08,-304.16 676.31,-302.15 668.63,-298.58 668.08,-304.16"/>
</g>
</g>
</svg>
