<?xml version="1.0" encoding="UTF-8" standalone="no"?>
<!DOCTYPE svg PUBLIC "-//W3C//DTD SVG 1.1//EN"
 "http://www.w3.org/Graphics/SVG/1.1/DTD/svg11.dtd">
<!-- Generated by graphviz version 14.1.5 (20260411.2331)
 -->
<!-- Title: v487_n7406_13_f2.png Pages: 1 -->
<svg width="862pt" height="531pt"
 viewBox="0.00 0.00 862.00 531.00" xmlns="http://www.w3.org/2000/svg" xmlns:xlink="http://www.w3.org/1999/xlink">
<g id="graph0" class="graph" transform="scale(1 1) rotate(0) translate(4 527.25)">
<title>v487_n7406_13_f2.png</title>
<polygon fill="white" stroke="none" points="-4,4 -4,-527.25 857.75,-527.25 857.75,4 -4,4"/>
<text xml:space="preserve" text-anchor="start" x="353.75" y="-502.95" font-family="Arial" font-weight="bold" font-size="14.00">v487_n7406_13_f2.png</text>
<text xml:space="preserve" text-anchor="start" x="382.25" y="-483" font-family="Arial" font-size="11.00">Point &#160;| &#160;VC = 0.74</text>
<path fill="#b8e6b8" stroke="none" d="M217.5,-458C217.5,-458 225.5,-458 225.5,-458 228.5,-458 231.5,-461 231.5,-464 231.5,-464 231.5,-470 231.5,-470 231.5,-473 228.5,-476 225.5,-476 225.5,-476 217.5,-476 217.5,-476 214.5,-476 211.5,-473 211.5,-470 211.5,-470 211.5,-464 211.5,-464 211.5,-461 214.5,-458 217.5,-458"/>
<path fill="none" stroke="black" d="M217.5,-458C217.5,-458 225.5,-458 225.5,-458 228.5,-458 231.5,-461 231.5,-464 231.5,-464 231.5,-470 231.5,-470 231.5,-473 228.5,-476 225.5,-476 225.5,-476 217.5,-476 217.5,-476 214.5,-476 211.5,-473 211.5,-470 211.5,-470 211.5,-464 211.5,-464 211.5,-461 214.5,-458 217.5,-458"/>
<text xml:space="preserve" text-anchor="start" x="220" y="-463.25" font-family="Arial" font-size="10.00"> </text>
<text xml:space="preserve" text-anchor="start" x="235.5" y="-463.25" font-family="Arial" font-size="10.00">Object</text>
<path fill="#c7b8e6" stroke="none" d="M274,-458C274,-458 282,-458 282,-458 285,-458 288,-461 288,-464 288,-464 288,-470 288,-470 288,-473 285,-476 282,-476 282,-476 274,-476 274,-476 271,-476 268,-473 268,-470 268,-470 268,-464 268,-464 268,-461 271,-458 274,-458"/>
<path fill="none" stroke="black" d="M274,-458C274,-458 282,-458 282,-458 285,-458 288,-461 288,-464 288,-464 288,-470 288,-470 288,-473 285,-476 282,-476 282,-476 274,-476 274,-476 271,-476 268,-473 268,-470 268,-470 268,-464 268,-464 268,-461 271,-458 274,-458"/>
<text xml:space="preserve" text-anchor="start" x="276.5" y="-463.25" font-family="Arial" font-size="10.00"> </text>
<text xml:space="preserve" text-anchor="start" x="292" y="-463.25" font-family="Arial" font-size="10.00">Attribute</text>
<path fill="#f5b8b8" stroke="none" d="M338.75,-458C338.75,-458 346.75,-458 346.75,-458 349.75,-458 352.75,-461 352.75,-464 352.75,-464 352.75,-470 352.75,-470 352.75,-473 349.75,-476 346.75,-476 346.75,-476 338.75,-476 338.75,-476 335.75,-476 332.75,-473 332.75,-470 332.75,-470 332.75,-464 332.75,-464 332.75,-461 335.75,-458 338.75,-458"/>
<path fill="none" stroke="black" d="M338.75,-458C338.75,-458 346.75,-458 346.75,-458 349.75,-458 352.75,-461 352.75,-464 352.75,-464 352.75,-470 352.75,-470 352.75,-473 349.75,-476 346.75,-476 346.75,-476 338.75,-476 338.75,-476 335.75,-476 332.75,-473 332.75,-470 332.75,-470 332.75,-464 332.75,-464 332.75,-461 335.75,-458 338.75,-458"/>
<text xml:space="preserve" text-anchor="start" x="341.25" y="-463.25" font-family="Arial" font-size="10.00"> </text>
<text xml:space="preserve" text-anchor="start" x="356.75" y="-463.25" font-family="Arial" font-size="10.00">Relationship</text>
<text xml:space="preserve" text-anchor="start" x="416.75" y="-464.5" font-family="Arial" font-weight="bold" font-size="10.00">(+)</text>
<text xml:space="preserve" text-anchor="start" x="428.75" y="-464.5" font-family="Arial" font-size="10.00"> increases complexity</text>
<text xml:space="preserve" text-anchor="start" x="530" y="-464.5" font-family="Arial" font-weight="bold" font-size="10.00">(−)</text>
<text xml:space="preserve" text-anchor="start" x="542" y="-464.5" font-family="Arial" font-size="10.00"> decreases complexity</text>
<!-- unknown.animal_shapes -->
<g id="node1" class="node">
<title>unknown.animal_shapes</title>
<path fill="#b8e6b8" stroke="#2c3e50" stroke-width="1.8" d="M67,-101C67,-101 12,-101 12,-101 6,-101 0,-95 0,-89 0,-89 0,-77 0,-77 0,-71 6,-65 12,-65 12,-65 67,-65 67,-65 73,-65 79,-71 79,-77 79,-77 79,-89 79,-89 79,-95 73,-101 67,-101"/>
<text xml:space="preserve" text-anchor="middle" x="39.5" y="-79.5" font-family="Arial" font-size="10.00" fill="#1a1a1a">animal shapes</text>
</g>
<!-- attr_0 -->
<g id="node8" class="node">
<title>attr_0</title>
<path fill="#c7b8e6" stroke="#7f8c8d" stroke-width="1.2" d="M240.75,-133C240.75,-133 139.25,-133 139.25,-133 133.25,-133 127.25,-127 127.25,-121 127.25,-121 127.25,-109 127.25,-109 127.25,-103 133.25,-97 139.25,-97 139.25,-97 240.75,-97 240.75,-97 246.75,-97 252.75,-103 252.75,-109 252.75,-109 252.75,-121 252.75,-121 252.75,-127 246.75,-133 240.75,-133"/>
<text xml:space="preserve" text-anchor="middle" x="190" y="-111.5" font-family="Arial" font-size="10.00" fill="#1a1a1a">(+) domain specific icons</text>
</g>
<!-- unknown.animal_shapes&#45;&gt;attr_0 -->
<g id="edge1" class="edge">
<title>unknown.animal_shapes&#45;&gt;attr_0</title>
<path fill="none" stroke="#aaaaaa" d="M79.52,-91.41C91.47,-93.98 105.01,-96.9 118.4,-99.79"/>
<polygon fill="#aaaaaa" stroke="#aaaaaa" points="117.86,-102.18 125.22,-101.26 118.89,-97.39 117.86,-102.18"/>
</g>
<!-- rel_1 -->
<g id="node16" class="node">
<title>rel_1</title>
<path fill="#f5b8b8" stroke="#d46a6a" stroke-width="1.2" d="M217.88,-68C217.88,-68 162.12,-68 162.12,-68 156.12,-68 150.12,-62 150.12,-56 150.12,-56 150.12,-44 150.12,-44 150.12,-38 156.12,-32 162.12,-32 162.12,-32 217.88,-32 217.88,-32 223.88,-32 229.88,-38 229.88,-44 229.88,-44 229.88,-56 229.88,-56 229.88,-62 223.88,-68 217.88,-68"/>
<text xml:space="preserve" text-anchor="middle" x="190" y="-46.5" font-family="Arial" font-size="10.00" fill="#8b0000">co occurs with</text>
</g>
<!-- unknown.animal_shapes&#45;&gt;rel_1 -->
<g id="edge10" class="edge">
<title>unknown.animal_shapes&#45;&gt;rel_1</title>
<path fill="none" stroke="#d46a6a" stroke-width="1.5" d="M79.52,-74.33C97.96,-70.23 120.17,-65.29 139.76,-60.94"/>
<polygon fill="#d46a6a" stroke="#d46a6a" stroke-width="1.5" points="140.31,-63.69 147.51,-59.22 139.1,-58.22 140.31,-63.69"/>
</g>
<!-- unknown.abstract_shapes -->
<g id="node2" class="node">
<title>unknown.abstract_shapes</title>
<path fill="#b8e6b8" stroke="#2c3e50" stroke-width="1.8" d="M374.75,-68C374.75,-68 313,-68 313,-68 307,-68 301,-62 301,-56 301,-56 301,-44 301,-44 301,-38 307,-32 313,-32 313,-32 374.75,-32 374.75,-32 380.75,-32 386.75,-38 386.75,-44 386.75,-44 386.75,-56 386.75,-56 386.75,-62 380.75,-68 374.75,-68"/>
<text xml:space="preserve" text-anchor="middle" x="343.88" y="-46.5" font-family="Arial" font-size="10.00" fill="#1a1a1a">abstract shapes</text>
</g>
<!-- attr_1 -->
<g id="node9" class="node">
<title>attr_1</title>
<path fill="#c7b8e6" stroke="#7f8c8d" stroke-width="1.2" d="M564.25,-101C564.25,-101 441.75,-101 441.75,-101 435.75,-101 429.75,-95 429.75,-89 429.75,-89 429.75,-77 429.75,-77 429.75,-71 435.75,-65 441.75,-65 441.75,-65 564.25,-65 564.25,-65 570.25,-65 576.25,-71 576.25,-77 576.25,-77 576.25,-89 576.25,-89 576.25,-95 570.25,-101 564.25,-101"/>
<text xml:space="preserve" text-anchor="middle" x="503" y="-79.5" font-family="Arial" font-size="10.00" fill="#1a1a1a">(+) non representational forms</text>
</g>
<!-- unknown.abstract_shapes&#45;&gt;attr_1 -->
<g id="edge2" class="edge">
<title>unknown.abstract_shapes&#45;&gt;attr_1</title>
<path fill="none" stroke="#aaaaaa" d="M387.4,-58.93C397.88,-61.13 409.46,-63.56 421.11,-66.01"/>
<polygon fill="#aaaaaa" stroke="#aaaaaa" points="420.34,-68.35 427.69,-67.39 421.34,-63.56 420.34,-68.35"/>
</g>
<!-- rel_2 -->
<g id="node17" class="node">
<title>rel_2</title>
<path fill="#f5b8b8" stroke="#d46a6a" stroke-width="1.2" d="M518.88,-36C518.88,-36 487.12,-36 487.12,-36 481.12,-36 475.12,-30 475.12,-24 475.12,-24 475.12,-12 475.12,-12 475.12,-6 481.12,0 487.12,0 487.12,0 518.88,0 518.88,0 524.88,0 530.88,-6 530.88,-12 530.88,-12 530.88,-24 530.88,-24 530.88,-30 524.88,-36 518.88,-36"/>
<text xml:space="preserve" text-anchor="middle" x="503" y="-14.5" font-family="Arial" font-size="10.00" fill="#8b0000">obscures</text>
</g>
<!-- unknown.abstract_shapes&#45;&gt;rel_2 -->
<g id="edge12" class="edge">
<title>unknown.abstract_shapes&#45;&gt;rel_2</title>
<path fill="none" stroke="#d46a6a" stroke-width="1.5" d="M387.4,-41.34C411.62,-36.41 441.68,-30.28 464.94,-25.55"/>
<polygon fill="#d46a6a" stroke="#d46a6a" stroke-width="1.5" points="465.27,-28.34 472.55,-24 464.16,-22.85 465.27,-28.34"/>
</g>
<!-- unknown.dots -->
<g id="node3" class="node">
<title>unknown.dots</title>
<path fill="#b8e6b8" stroke="#2c3e50" stroke-width="1.8" d="M358.88,-198C358.88,-198 328.88,-198 328.88,-198 322.88,-198 316.88,-192 316.88,-186 316.88,-186 316.88,-174 316.88,-174 316.88,-168 322.88,-162 328.88,-162 328.88,-162 358.88,-162 358.88,-162 364.88,-162 370.88,-168 370.88,-174 370.88,-174 370.88,-186 370.88,-186 370.88,-192 364.88,-198 358.88,-198"/>
<text xml:space="preserve" text-anchor="middle" x="343.88" y="-176.5" font-family="Arial" font-size="10.00" fill="#1a1a1a">dots</text>
</g>
<!-- attr_2 -->
<g id="node10" class="node">
<title>attr_2</title>
<path fill="#c7b8e6" stroke="#7f8c8d" stroke-width="1.2" d="M563.88,-198C563.88,-198 442.12,-198 442.12,-198 436.12,-198 430.12,-192 430.12,-186 430.12,-186 430.12,-174 430.12,-174 430.12,-168 436.12,-162 442.12,-162 442.12,-162 563.88,-162 563.88,-162 569.88,-162 575.88,-168 575.88,-174 575.88,-174 575.88,-186 575.88,-186 575.88,-192 569.88,-198 563.88,-198"/>
<text xml:space="preserve" text-anchor="middle" x="503" y="-176.5" font-family="Arial" font-size="10.00" fill="#1a1a1a">(+) multiple mark types mixed</text>
</g>
<!-- unknown.dots&#45;&gt;attr_2 -->
<g id="edge3" class="edge">
<title>unknown.dots&#45;&gt;attr_2</title>
<path fill="none" stroke="#aaaaaa" d="M371.53,-180C385.5,-180 403.43,-180 421.51,-180"/>
<polygon fill="#aaaaaa" stroke="#aaaaaa" points="421.29,-182.45 428.29,-180 421.29,-177.55 421.29,-182.45"/>
</g>
<!-- unknown.lines -->
<g id="node4" class="node">
<title>unknown.lines</title>
<path fill="#b8e6b8" stroke="#2c3e50" stroke-width="1.8" d="M54.5,-231C54.5,-231 24.5,-231 24.5,-231 18.5,-231 12.5,-225 12.5,-219 12.5,-219 12.5,-207 12.5,-207 12.5,-201 18.5,-195 24.5,-195 24.5,-195 54.5,-195 54.5,-195 60.5,-195 66.5,-201 66.5,-207 66.5,-207 66.5,-219 66.5,-219 66.5,-225 60.5,-231 54.5,-231"/>
<text xml:space="preserve" text-anchor="middle" x="39.5" y="-209.5" font-family="Arial" font-size="10.00" fill="#1a1a1a">lines</text>
</g>
<!-- attr_3 -->
<g id="node11" class="node">
<title>attr_3</title>
<path fill="#c7b8e6" stroke="#7f8c8d" stroke-width="1.2" d="M246,-263C246,-263 134,-263 134,-263 128,-263 122,-257 122,-251 122,-251 122,-239 122,-239 122,-233 128,-227 134,-227 134,-227 246,-227 246,-227 252,-227 258,-233 258,-239 258,-239 258,-251 258,-251 258,-257 252,-263 246,-263"/>
<text xml:space="preserve" text-anchor="middle" x="190" y="-241.5" font-family="Arial" font-size="10.00" fill="#1a1a1a">(+) overlapping with shapes</text>
</g>
<!-- unknown.lines&#45;&gt;attr_3 -->
<g id="edge4" class="edge">
<title>unknown.lines&#45;&gt;attr_3</title>
<path fill="none" stroke="#aaaaaa" d="M67.39,-218.79C80.46,-221.61 96.9,-225.15 113.42,-228.71"/>
<polygon fill="#aaaaaa" stroke="#aaaaaa" points="112.69,-231.06 120.04,-230.14 113.72,-226.27 112.69,-231.06"/>
</g>
<!-- rel_3 -->
<g id="node18" class="node">
<title>rel_3</title>
<path fill="#f5b8b8" stroke="#d46a6a" stroke-width="1.2" d="M214.88,-198C214.88,-198 165.12,-198 165.12,-198 159.12,-198 153.12,-192 153.12,-186 153.12,-186 153.12,-174 153.12,-174 153.12,-168 159.12,-162 165.12,-162 165.12,-162 214.88,-162 214.88,-162 220.88,-162 226.88,-168 226.88,-174 226.88,-174 226.88,-186 226.88,-186 226.88,-192 220.88,-198 214.88,-198"/>
<text xml:space="preserve" text-anchor="middle" x="190" y="-176.5" font-family="Arial" font-size="10.00" fill="#8b0000">overlaps with</text>
</g>
<!-- unknown.lines&#45;&gt;rel_3 -->
<g id="edge14" class="edge">
<title>unknown.lines&#45;&gt;rel_3</title>
<path fill="none" stroke="#d46a6a" stroke-width="1.5" d="M67.39,-207.02C88.33,-202.37 117.89,-195.8 142.62,-190.31"/>
<polygon fill="#d46a6a" stroke="#d46a6a" stroke-width="1.5" points="143.11,-193.07 150.31,-188.6 141.9,-187.6 143.11,-193.07"/>
</g>
<!-- furniture.legend -->
<g id="node5" class="node">
<title>furniture.legend</title>
<path fill="#b8e6b8" stroke="#2c3e50" stroke-width="1.8" d="M54.5,-387C54.5,-387 24.5,-387 24.5,-387 18.5,-387 12.5,-381 12.5,-375 12.5,-375 12.5,-363 12.5,-363 12.5,-357 18.5,-351 24.5,-351 24.5,-351 54.5,-351 54.5,-351 60.5,-351 66.5,-357 66.5,-363 66.5,-363 66.5,-375 66.5,-375 66.5,-381 60.5,-387 54.5,-387"/>
<text xml:space="preserve" text-anchor="middle" x="39.5" y="-365.5" font-family="Arial" font-size="10.00" fill="#1a1a1a">legend</text>
</g>
<!-- attr_4 -->
<g id="node12" class="node">
<title>attr_4</title>
<path fill="#c7b8e6" stroke="#7f8c8d" stroke-width="1.2" d="M238.5,-452C238.5,-452 141.5,-452 141.5,-452 135.5,-452 129.5,-446 129.5,-440 129.5,-440 129.5,-428 129.5,-428 129.5,-422 135.5,-416 141.5,-416 141.5,-416 238.5,-416 238.5,-416 244.5,-416 250.5,-422 250.5,-428 250.5,-428 250.5,-440 250.5,-440 250.5,-446 244.5,-452 238.5,-452"/>
<text xml:space="preserve" text-anchor="middle" x="190" y="-430.5" font-family="Arial" font-size="10.00" fill="#1a1a1a">(+) absent or insufficient</text>
</g>
<!-- furniture.legend&#45;&gt;attr_4 -->
<g id="edge5" class="edge">
<title>furniture.legend&#45;&gt;attr_4</title>
<path fill="none" stroke="#aaaaaa" d="M67.39,-380.77C87.3,-389.49 115.01,-401.61 138.95,-412.09"/>
<polygon fill="#aaaaaa" stroke="#aaaaaa" points="137.79,-414.26 145.19,-414.82 139.76,-409.77 137.79,-414.26"/>
</g>
<!-- rel_0 -->
<g id="node15" class="node">
<title>rel_0</title>
<path fill="#f5b8b8" stroke="#d46a6a" stroke-width="1.2" d="M243,-387C243,-387 137,-387 137,-387 131,-387 125,-381 125,-375 125,-375 125,-363 125,-363 125,-357 131,-351 137,-351 137,-351 243,-351 243,-351 249,-351 255,-357 255,-363 255,-363 255,-375 255,-375 255,-381 249,-387 243,-387"/>
<text xml:space="preserve" text-anchor="middle" x="190" y="-365.5" font-family="Arial" font-size="10.00" fill="#8b0000">increases interpretive load</text>
</g>
<!-- furniture.legend&#45;&gt;rel_0 -->
<g id="edge8" class="edge">
<title>furniture.legend&#45;&gt;rel_0</title>
<path fill="none" stroke="#d46a6a" stroke-width="1.5" d="M67.39,-369C80.81,-369 97.76,-369 114.72,-369"/>
<polygon fill="#d46a6a" stroke="#d46a6a" stroke-width="1.5" points="114.41,-371.8 122.41,-369 114.41,-366.2 114.41,-371.8"/>
</g>
<!-- unknown.color_encoding -->
<g id="node6" class="node">
<title>unknown.color_encoding</title>
<path fill="#b8e6b8" stroke="#2c3e50" stroke-width="1.8" d="M371.38,-387C371.38,-387 316.38,-387 316.38,-387 310.38,-387 304.38,-381 304.38,-375 304.38,-375 304.38,-363 304.38,-363 304.38,-357 310.38,-351 316.38,-351 316.38,-351 371.38,-351 371.38,-351 377.38,-351 383.38,-357 383.38,-363 383.38,-363 383.38,-375 383.38,-375 383.38,-381 377.38,-387 371.38,-387"/>
<text xml:space="preserve" text-anchor="middle" x="343.88" y="-365.5" font-family="Arial" font-size="10.00" fill="#1a1a1a">color encoding</text>
</g>
<!-- attr_5 -->
<g id="node13" class="node">
<title>attr_5</title>
<path fill="#c7b8e6" stroke="#7f8c8d" stroke-width="1.2" d="M548.88,-390C548.88,-390 457.12,-390 457.12,-390 451.12,-390 445.12,-384 445.12,-378 445.12,-378 445.12,-366 445.12,-366 445.12,-360 451.12,-354 457.12,-354 457.12,-354 548.88,-354 548.88,-354 554.88,-354 560.88,-360 560.88,-366 560.88,-366 560.88,-378 560.88,-378 560.88,-384 554.88,-390 548.88,-390"/>
<text xml:space="preserve" text-anchor="middle" x="503" y="-368.5" font-family="Arial" font-size="10.00" fill="#1a1a1a">(+) varied colors mixed</text>
</g>
<!-- unknown.color_encoding&#45;&gt;attr_5 -->
<g id="edge6" class="edge">
<title>unknown.color_encoding&#45;&gt;attr_5</title>
<path fill="none" stroke="#aaaaaa" d="M384.12,-369.75C399.96,-370.05 418.68,-370.41 436.48,-370.75"/>
<polygon fill="#aaaaaa" stroke="#aaaaaa" points="436.02,-373.19 443.07,-370.87 436.12,-368.29 436.02,-373.19"/>
</g>
<!-- rel_4 -->
<g id="node19" class="node">
<title>rel_4</title>
<path fill="#f5b8b8" stroke="#d46a6a" stroke-width="1.2" d="M544.75,-325C544.75,-325 461.25,-325 461.25,-325 455.25,-325 449.25,-319 449.25,-313 449.25,-313 449.25,-301 449.25,-301 449.25,-295 455.25,-289 461.25,-289 461.25,-289 544.75,-289 544.75,-289 550.75,-289 556.75,-295 556.75,-301 556.75,-301 556.75,-313 556.75,-313 556.75,-319 550.75,-325 544.75,-325"/>
<text xml:space="preserve" text-anchor="middle" x="503" y="-303.5" font-family="Arial" font-size="10.00" fill="#8b0000">requires expertise for</text>
</g>
<!-- unknown.color_encoding&#45;&gt;rel_4 -->
<g id="edge16" class="edge">
<title>unknown.color_encoding&#45;&gt;rel_4</title>
<path fill="none" stroke="#d46a6a" stroke-width="1.5" d="M384.12,-353.51C402.64,-346.21 425.08,-337.35 445.4,-329.33"/>
<polygon fill="#d46a6a" stroke="#d46a6a" stroke-width="1.5" points="446.34,-331.97 452.76,-326.43 444.29,-326.76 446.34,-331.97"/>
</g>
<!-- unknown.numbers -->
<g id="node7" class="node">
<title>unknown.numbers</title>
<path fill="#b8e6b8" stroke="#2c3e50" stroke-width="1.8" d="M661.25,-36C661.25,-36 631.25,-36 631.25,-36 625.25,-36 619.25,-30 619.25,-24 619.25,-24 619.25,-12 619.25,-12 619.25,-6 625.25,0 631.25,0 631.25,0 661.25,0 661.25,0 667.25,0 673.25,-6 673.25,-12 673.25,-12 673.25,-24 673.25,-24 673.25,-30 667.25,-36 661.25,-36"/>
<text xml:space="preserve" text-anchor="middle" x="646.25" y="-14.5" font-family="Arial" font-size="10.00" fill="#1a1a1a">numbers</text>
</g>
<!-- attr_6 -->
<g id="node14" class="node">
<title>attr_6</title>
<path fill="#c7b8e6" stroke="#7f8c8d" stroke-width="1.2" d="M841.75,-36C841.75,-36 728.25,-36 728.25,-36 722.25,-36 716.25,-30 716.25,-24 716.25,-24 716.25,-12 716.25,-12 716.25,-6 722.25,0 728.25,0 728.25,0 841.75,0 841.75,0 847.75,0 853.75,-6 853.75,-12 853.75,-12 853.75,-24 853.75,-24 853.75,-30 847.75,-36 841.75,-36"/>
<text xml:space="preserve" text-anchor="middle" x="785" y="-14.5" font-family="Arial" font-size="10.00" fill="#1a1a1a">(+) dense numerical content</text>
</g>
<!-- unknown.numbers&#45;&gt;attr_6 -->
<g id="edge7" class="edge">
<title>unknown.numbers&#45;&gt;attr_6</title>
<path fill="none" stroke="#aaaaaa" d="M673.94,-18C683.73,-18 695.36,-18 707.34,-18"/>
<polygon fill="#aaaaaa" stroke="#aaaaaa" points="707.15,-20.45 714.15,-18 707.15,-15.55 707.15,-20.45"/>
</g>
<!-- rel_0&#45;&gt;unknown.color_encoding -->
<g id="edge9" class="edge">
<title>rel_0&#45;&gt;unknown.color_encoding</title>
<path fill="none" stroke="#d46a6a" stroke-width="1.5" d="M255.41,-369C268.29,-369 281.63,-369 293.89,-369"/>
<polygon fill="#d46a6a" stroke="#d46a6a" stroke-width="1.5" points="293.63,-371.8 301.63,-369 293.63,-366.2 293.63,-371.8"/>
</g>
<!-- rel_1&#45;&gt;unknown.abstract_shapes -->
<g id="edge11" class="edge">
<title>rel_1&#45;&gt;unknown.abstract_shapes</title>
<path fill="none" stroke="#d46a6a" stroke-width="1.5" stroke-dasharray="5,2" d="M230.11,-50C251.56,-50 278.17,-50 300.16,-50"/>
</g>
<!-- rel_2&#45;&gt;unknown.numbers -->
<g id="edge13" class="edge">
<title>rel_2&#45;&gt;unknown.numbers</title>
<path fill="none" stroke="#d46a6a" stroke-width="1.5" d="M531.23,-18C553.16,-18 584.2,-18 608.36,-18"/>
<polygon fill="#d46a6a" stroke="#d46a6a" stroke-width="1.5" points="608.31,-20.8 616.31,-18 608.31,-15.2 608.31,-20.8"/>
</g>
<!-- rel_3&#45;&gt;unknown.dots -->
<g id="edge15" class="edge">
<title>rel_3&#45;&gt;unknown.dots</title>
<path fill="none" stroke="#d46a6a" stroke-width="1.5" stroke-dasharray="5,2" d="M227.38,-180C254.76,-180 291.66,-180 316.31,-180"/>
</g>
<!-- rel_4&#45;&gt;furniture.legend -->
<g id="edge17" class="edge">
<title>rel_4&#45;&gt;furniture.legend</title>
<path fill="none" stroke="#d46a6a" stroke-width="1.5" d="M448.7,-306.29C374.49,-306.41 236.3,-310.66 122,-337 106.72,-340.52 90.51,-346.4 76.61,-352.17"/>
<polygon fill="#d46a6a" stroke="#d46a6a" stroke-width="1.5" points="75.74,-349.5 69.48,-355.22 77.94,-354.65 75.74,-349.5"/>
</g>
</g>
</svg>
