<?xml version="1.0" encoding="UTF-8" standalone="no"?>
<!DOCTYPE svg PUBLIC "-//W3C//DTD SVG 1.1//EN"
 "http://www.w3.org/Graphics/SVG/1.1/DTD/svg11.dtd">
<!-- Generated by graphviz version 14.1.5 (20260411.2331)
 -->
<!-- Title: v488_n7410_15_f3.png Pages: 1 -->
<svg width="554pt" height="700pt"
 viewBox="0.00 0.00 554.00 700.00" xmlns="http://www.w3.org/2000/svg" xmlns:xlink="http://www.w3.org/1999/xlink">
<g id="graph0" class="graph" transform="scale(1 1) rotate(0) translate(4 696.25)">
<title>v488_n7410_15_f3.png</title>
<polygon fill="white" stroke="none" points="-4,4 -4,-696.25 550,-696.25 550,4 -4,4"/>
<text xml:space="preserve" text-anchor="start" x="199.88" y="-671.95" font-family="Arial" font-weight="bold" font-size="14.00">v488_n7410_15_f3.png</text>
<text xml:space="preserve" text-anchor="start" x="217.88" y="-652" font-family="Arial" font-size="11.00">Node&#45;link &#160;| &#160;VC = 0.65</text>
<path fill="#b8e6b8" stroke="none" d="M63.62,-627C63.62,-627 71.62,-627 71.62,-627 74.62,-627 77.62,-630 77.62,-633 77.62,-633 77.62,-639 77.62,-639 77.62,-642 74.62,-645 71.62,-645 71.62,-645 63.62,-645 63.62,-645 60.62,-645 57.62,-642 57.62,-639 57.62,-639 57.62,-633 57.62,-633 57.62,-630 60.62,-627 63.62,-627"/>
<path fill="none" stroke="black" d="M63.62,-627C63.62,-627 71.62,-627 71.62,-627 74.62,-627 77.62,-630 77.62,-633 77.62,-633 77.62,-639 77.62,-639 77.62,-642 74.62,-645 71.62,-645 71.62,-645 63.62,-645 63.62,-645 60.62,-645 57.62,-642 57.62,-639 57.62,-639 57.62,-633 57.62,-633 57.62,-630 60.62,-627 63.62,-627"/>
<text xml:space="preserve" text-anchor="start" x="66.12" y="-632.25" font-family="Arial" font-size="10.00"> </text>
<text xml:space="preserve" text-anchor="start" x="81.62" y="-632.25" font-family="Arial" font-size="10.00">Object</text>
<path fill="#c7b8e6" stroke="none" d="M120.12,-627C120.12,-627 128.12,-627 128.12,-627 131.12,-627 134.12,-630 134.12,-633 134.12,-633 134.12,-639 134.12,-639 134.12,-642 131.12,-645 128.12,-645 128.12,-645 120.12,-645 120.12,-645 117.12,-645 114.12,-642 114.12,-639 114.12,-639 114.12,-633 114.12,-633 114.12,-630 117.12,-627 120.12,-627"/>
<path fill="none" stroke="black" d="M120.12,-627C120.12,-627 128.12,-627 128.12,-627 131.12,-627 134.12,-630 134.12,-633 134.12,-633 134.12,-639 134.12,-639 134.12,-642 131.12,-645 128.12,-645 128.12,-645 120.12,-645 120.12,-645 117.12,-645 114.12,-642 114.12,-639 114.12,-639 114.12,-633 114.12,-633 114.12,-630 117.12,-627 120.12,-627"/>
<text xml:space="preserve" text-anchor="start" x="122.62" y="-632.25" font-family="Arial" font-size="10.00"> </text>
<text xml:space="preserve" text-anchor="start" x="138.12" y="-632.25" font-family="Arial" font-size="10.00">Attribute</text>
<path fill="#f5b8b8" stroke="none" d="M184.88,-627C184.88,-627 192.88,-627 192.88,-627 195.88,-627 198.88,-630 198.88,-633 198.88,-633 198.88,-639 198.88,-639 198.88,-642 195.88,-645 192.88,-645 192.88,-645 184.88,-645 184.88,-645 181.88,-645 178.88,-642 178.88,-639 178.88,-639 178.88,-633 178.88,-633 178.88,-630 181.88,-627 184.88,-627"/>
<path fill="none" stroke="black" d="M184.88,-627C184.88,-627 192.88,-627 192.88,-627 195.88,-627 198.88,-630 198.88,-633 198.88,-633 198.88,-639 198.88,-639 198.88,-642 195.88,-645 192.88,-645 192.88,-645 184.88,-645 184.88,-645 181.88,-645 178.88,-642 178.88,-639 178.88,-639 178.88,-633 178.88,-633 178.88,-630 181.88,-627 184.88,-627"/>
<text xml:space="preserve" text-anchor="start" x="187.38" y="-632.25" font-family="Arial" font-size="10.00"> </text>
<text xml:space="preserve" text-anchor="start" x="202.88" y="-632.25" font-family="Arial" font-size="10.00">Relationship</text>
<text xml:space="preserve" text-anchor="start" x="262.88" y="-633.5" font-family="Arial" font-weight="bold" font-size="10.00">(+)</text>
<text xml:space="preserve" text-anchor="start" x="274.88" y="-633.5" font-family="Arial" font-size="10.00"> increases complexity</text>
<text xml:space="preserve" text-anchor="start" x="376.12" y="-633.5" font-family="Arial" font-weight="bold" font-size="10.00">(−)</text>
<text xml:space="preserve" text-anchor="start" x="388.12" y="-633.5" font-family="Arial" font-size="10.00"> decreases complexity</text>
<!-- unknown.node_labels -->
<g id="node1" class="node">
<title>unknown.node_labels</title>
<path fill="#b8e6b8" stroke="#2c3e50" stroke-width="1.8" d="M53.5,-328C53.5,-328 12,-328 12,-328 6,-328 0,-322 0,-316 0,-316 0,-304 0,-304 0,-298 6,-292 12,-292 12,-292 53.5,-292 53.5,-292 59.5,-292 65.5,-298 65.5,-304 65.5,-304 65.5,-316 65.5,-316 65.5,-322 59.5,-328 53.5,-328"/>
<text xml:space="preserve" text-anchor="middle" x="32.75" y="-306.5" font-family="Arial" font-size="10.00" fill="#1a1a1a">node labels</text>
</g>
<!-- attr_0 -->
<g id="node7" class="node">
<title>attr_0</title>
<path fill="#c7b8e6" stroke="#7f8c8d" stroke-width="1.2" d="M241.88,-361C241.88,-361 133.62,-361 133.62,-361 127.62,-361 121.62,-355 121.62,-349 121.62,-349 121.62,-337 121.62,-337 121.62,-331 127.62,-325 133.62,-325 133.62,-325 241.88,-325 241.88,-325 247.88,-325 253.88,-331 253.88,-337 253.88,-337 253.88,-349 253.88,-349 253.88,-355 247.88,-361 241.88,-361"/>
<text xml:space="preserve" text-anchor="middle" x="187.75" y="-339.5" font-family="Arial" font-size="10.00" fill="#1a1a1a">(+) dense text small space</text>
</g>
<!-- unknown.node_labels&#45;&gt;attr_0 -->
<g id="edge1" class="edge">
<title>unknown.node_labels&#45;&gt;attr_0</title>
<path fill="none" stroke="#aaaaaa" d="M66.2,-317C79.99,-319.97 96.69,-323.57 113.2,-327.14"/>
<polygon fill="#aaaaaa" stroke="#aaaaaa" points="112.44,-329.48 119.8,-328.56 113.47,-324.69 112.44,-329.48"/>
</g>
<!-- rel_2 -->
<g id="node16" class="node">
<title>rel_2</title>
<path fill="#f5b8b8" stroke="#d46a6a" stroke-width="1.2" d="M203.25,-296C203.25,-296 172.25,-296 172.25,-296 166.25,-296 160.25,-290 160.25,-284 160.25,-284 160.25,-272 160.25,-272 160.25,-266 166.25,-260 172.25,-260 172.25,-260 203.25,-260 203.25,-260 209.25,-260 215.25,-266 215.25,-272 215.25,-272 215.25,-284 215.25,-284 215.25,-290 209.25,-296 203.25,-296"/>
<text xml:space="preserve" text-anchor="middle" x="187.75" y="-274.5" font-family="Arial" font-size="10.00" fill="#8b0000">densifies</text>
</g>
<!-- unknown.node_labels&#45;&gt;rel_2 -->
<g id="edge12" class="edge">
<title>unknown.node_labels&#45;&gt;rel_2</title>
<path fill="none" stroke="#d46a6a" stroke-width="1.5" d="M66.2,-303.21C90.71,-298.09 124.39,-291.04 149.91,-285.7"/>
<polygon fill="#d46a6a" stroke="#d46a6a" stroke-width="1.5" points="150.48,-288.45 157.73,-284.07 149.33,-282.97 150.48,-288.45"/>
</g>
<!-- property.color -->
<g id="node2" class="node">
<title>property.color</title>
<path fill="#b8e6b8" stroke="#2c3e50" stroke-width="1.8" d="M47.75,-133C47.75,-133 17.75,-133 17.75,-133 11.75,-133 5.75,-127 5.75,-121 5.75,-121 5.75,-109 5.75,-109 5.75,-103 11.75,-97 17.75,-97 17.75,-97 47.75,-97 47.75,-97 53.75,-97 59.75,-103 59.75,-109 59.75,-109 59.75,-121 59.75,-121 59.75,-127 53.75,-133 47.75,-133"/>
<text xml:space="preserve" text-anchor="middle" x="32.75" y="-111.5" font-family="Arial" font-size="10.00" fill="#1a1a1a">color</text>
</g>
<!-- attr_1 -->
<g id="node8" class="node">
<title>attr_1</title>
<path fill="#c7b8e6" stroke="#7f8c8d" stroke-width="1.2" d="M228.38,-231C228.38,-231 147.12,-231 147.12,-231 141.12,-231 135.12,-225 135.12,-219 135.12,-219 135.12,-207 135.12,-207 135.12,-201 141.12,-195 147.12,-195 147.12,-195 228.38,-195 228.38,-195 234.38,-195 240.38,-201 240.38,-207 240.38,-207 240.38,-219 240.38,-219 240.38,-225 234.38,-231 228.38,-231"/>
<text xml:space="preserve" text-anchor="middle" x="187.75" y="-209.5" font-family="Arial" font-size="10.00" fill="#1a1a1a">(+) high color variety</text>
</g>
<!-- property.color&#45;&gt;attr_1 -->
<g id="edge2" class="edge">
<title>property.color&#45;&gt;attr_1</title>
<path fill="none" stroke="#aaaaaa" d="M51.79,-133.62C66.17,-147.71 87.34,-166.81 108.5,-180 114.84,-183.95 121.74,-187.63 128.72,-190.99"/>
<polygon fill="#aaaaaa" stroke="#aaaaaa" points="127.56,-193.15 134.94,-193.88 129.62,-188.71 127.56,-193.15"/>
</g>
<!-- attr_2 -->
<g id="node9" class="node">
<title>attr_2</title>
<path fill="#c7b8e6" stroke="#7f8c8d" stroke-width="1.2" d="M255,-166C255,-166 120.5,-166 120.5,-166 114.5,-166 108.5,-160 108.5,-154 108.5,-154 108.5,-142 108.5,-142 108.5,-136 114.5,-130 120.5,-130 120.5,-130 255,-130 255,-130 261,-130 267,-136 267,-142 267,-142 267,-154 267,-154 267,-160 261,-166 255,-166"/>
<text xml:space="preserve" text-anchor="middle" x="187.75" y="-144.5" font-family="Arial" font-size="10.00" fill="#1a1a1a">(+) very different from each other</text>
</g>
<!-- property.color&#45;&gt;attr_2 -->
<g id="edge3" class="edge">
<title>property.color&#45;&gt;attr_2</title>
<path fill="none" stroke="#aaaaaa" d="M60.4,-120.75C71.74,-123.19 85.67,-126.2 100.09,-129.31"/>
<polygon fill="#aaaaaa" stroke="#aaaaaa" points="99.3,-131.65 106.66,-130.73 100.34,-126.86 99.3,-131.65"/>
</g>
<!-- rel_0 -->
<g id="node14" class="node">
<title>rel_0</title>
<path fill="#f5b8b8" stroke="#d46a6a" stroke-width="1.2" d="M210,-101C210,-101 165.5,-101 165.5,-101 159.5,-101 153.5,-95 153.5,-89 153.5,-89 153.5,-77 153.5,-77 153.5,-71 159.5,-65 165.5,-65 165.5,-65 210,-65 210,-65 216,-65 222,-71 222,-77 222,-77 222,-89 222,-89 222,-95 216,-101 210,-101"/>
<text xml:space="preserve" text-anchor="middle" x="187.75" y="-79.5" font-family="Arial" font-size="10.00" fill="#8b0000">overwhelms</text>
</g>
<!-- property.color&#45;&gt;rel_0 -->
<g id="edge8" class="edge">
<title>property.color&#45;&gt;rel_0</title>
<path fill="none" stroke="#d46a6a" stroke-width="1.5" d="M60.4,-109.43C83.18,-104.66 116.39,-97.72 143.05,-92.14"/>
<polygon fill="#d46a6a" stroke="#d46a6a" stroke-width="1.5" points="143.43,-94.92 150.69,-90.54 142.29,-89.44 143.43,-94.92"/>
</g>
<!-- rel_4 -->
<g id="node18" class="node">
<title>rel_4</title>
<path fill="#f5b8b8" stroke="#d46a6a" stroke-width="1.2" d="M250.5,-36C250.5,-36 125,-36 125,-36 119,-36 113,-30 113,-24 113,-24 113,-12 113,-12 113,-6 119,0 125,0 125,0 250.5,0 250.5,0 256.5,0 262.5,-6 262.5,-12 262.5,-12 262.5,-24 262.5,-24 262.5,-30 256.5,-36 250.5,-36"/>
<text xml:space="preserve" text-anchor="middle" x="187.75" y="-14.5" font-family="Arial" font-size="10.00" fill="#8b0000">creates sense of complexity in</text>
</g>
<!-- property.color&#45;&gt;rel_4 -->
<g id="edge16" class="edge">
<title>property.color&#45;&gt;rel_4</title>
<path fill="none" stroke="#d46a6a" stroke-width="1.5" d="M51.75,-96.31C66.11,-82.19 87.27,-63.08 108.5,-50 113.83,-46.72 119.56,-43.64 125.4,-40.79"/>
<polygon fill="#d46a6a" stroke="#d46a6a" stroke-width="1.5" points="126.5,-43.37 132.58,-37.46 124.14,-38.29 126.5,-43.37"/>
</g>
<!-- unknown.edges -->
<g id="node3" class="node">
<title>unknown.edges</title>
<path fill="#b8e6b8" stroke="#2c3e50" stroke-width="1.8" d="M47.75,-458C47.75,-458 17.75,-458 17.75,-458 11.75,-458 5.75,-452 5.75,-446 5.75,-446 5.75,-434 5.75,-434 5.75,-428 11.75,-422 17.75,-422 17.75,-422 47.75,-422 47.75,-422 53.75,-422 59.75,-428 59.75,-434 59.75,-434 59.75,-446 59.75,-446 59.75,-452 53.75,-458 47.75,-458"/>
<text xml:space="preserve" text-anchor="middle" x="32.75" y="-436.5" font-family="Arial" font-size="10.00" fill="#1a1a1a">edges</text>
</g>
<!-- attr_3 -->
<g id="node10" class="node">
<title>attr_3</title>
<path fill="#c7b8e6" stroke="#7f8c8d" stroke-width="1.2" d="M237.38,-556C237.38,-556 138.12,-556 138.12,-556 132.12,-556 126.12,-550 126.12,-544 126.12,-544 126.12,-532 126.12,-532 126.12,-526 132.12,-520 138.12,-520 138.12,-520 237.38,-520 237.38,-520 243.38,-520 249.38,-526 249.38,-532 249.38,-532 249.38,-544 249.38,-544 249.38,-550 243.38,-556 237.38,-556"/>
<text xml:space="preserve" text-anchor="middle" x="187.75" y="-534.5" font-family="Arial" font-size="10.00" fill="#1a1a1a">(+) many branching lines</text>
</g>
<!-- unknown.edges&#45;&gt;attr_3 -->
<g id="edge4" class="edge">
<title>unknown.edges&#45;&gt;attr_3</title>
<path fill="none" stroke="#aaaaaa" d="M51.4,-458.7C65.73,-473.07 87.03,-492.67 108.5,-506 114.33,-509.62 120.63,-512.98 127.05,-516.06"/>
<polygon fill="#aaaaaa" stroke="#aaaaaa" points="125.85,-518.21 133.23,-518.91 127.9,-513.76 125.85,-518.21"/>
</g>
<!-- rel_1 -->
<g id="node15" class="node">
<title>rel_1</title>
<path fill="#f5b8b8" stroke="#d46a6a" stroke-width="1.2" d="M225,-491C225,-491 150.5,-491 150.5,-491 144.5,-491 138.5,-485 138.5,-479 138.5,-479 138.5,-467 138.5,-467 138.5,-461 144.5,-455 150.5,-455 150.5,-455 225,-455 225,-455 231,-455 237,-461 237,-467 237,-467 237,-479 237,-479 237,-485 231,-491 225,-491"/>
<text xml:space="preserve" text-anchor="middle" x="187.75" y="-469.5" font-family="Arial" font-size="10.00" fill="#8b0000">increases clutter in</text>
</g>
<!-- unknown.edges&#45;&gt;rel_1 -->
<g id="edge10" class="edge">
<title>unknown.edges&#45;&gt;rel_1</title>
<path fill="none" stroke="#d46a6a" stroke-width="1.5" d="M60.4,-445.75C79.13,-449.79 104.92,-455.35 128.32,-460.4"/>
<polygon fill="#d46a6a" stroke="#d46a6a" stroke-width="1.5" points="127.54,-463.09 135.95,-462.04 128.72,-457.62 127.54,-463.09"/>
</g>
<!-- rel_3 -->
<g id="node17" class="node">
<title>rel_3</title>
<path fill="#f5b8b8" stroke="#d46a6a" stroke-width="1.2" d="M214.88,-426C214.88,-426 160.62,-426 160.62,-426 154.62,-426 148.62,-420 148.62,-414 148.62,-414 148.62,-402 148.62,-402 148.62,-396 154.62,-390 160.62,-390 160.62,-390 214.88,-390 214.88,-390 220.88,-390 226.88,-396 226.88,-402 226.88,-402 226.88,-414 226.88,-414 226.88,-420 220.88,-426 214.88,-426"/>
<text xml:space="preserve" text-anchor="middle" x="187.75" y="-404.5" font-family="Arial" font-size="10.00" fill="#8b0000">branches from</text>
</g>
<!-- unknown.edges&#45;&gt;rel_3 -->
<g id="edge14" class="edge">
<title>unknown.edges&#45;&gt;rel_3</title>
<path fill="none" stroke="#d46a6a" stroke-width="1.5" d="M60.4,-425.94C81.79,-419.03 112.39,-412.06 138.12,-407.96"/>
<polygon fill="#d46a6a" stroke="#d46a6a" stroke-width="1.5" points="138.32,-410.77 145.83,-406.83 137.5,-405.23 138.32,-410.77"/>
</g>
<!-- unknown.nodes -->
<g id="node4" class="node">
<title>unknown.nodes</title>
<path fill="#b8e6b8" stroke="#2c3e50" stroke-width="1.8" d="M352,-491C352,-491 322,-491 322,-491 316,-491 310,-485 310,-479 310,-479 310,-467 310,-467 310,-461 316,-455 322,-455 322,-455 352,-455 352,-455 358,-455 364,-461 364,-467 364,-467 364,-479 364,-479 364,-485 358,-491 352,-491"/>
<text xml:space="preserve" text-anchor="middle" x="337" y="-469.5" font-family="Arial" font-size="10.00" fill="#1a1a1a">nodes</text>
</g>
<!-- attr_4 -->
<g id="node11" class="node">
<title>attr_4</title>
<path fill="#c7b8e6" stroke="#7f8c8d" stroke-width="1.2" d="M534,-491C534,-491 419,-491 419,-491 413,-491 407,-485 407,-479 407,-479 407,-467 407,-467 407,-461 413,-455 419,-455 419,-455 534,-455 534,-455 540,-455 546,-461 546,-467 546,-467 546,-479 546,-479 546,-485 540,-491 534,-491"/>
<text xml:space="preserve" text-anchor="middle" x="476.5" y="-469.5" font-family="Arial" font-size="10.00" fill="#1a1a1a">(+) overlapping dense nodes</text>
</g>
<!-- unknown.nodes&#45;&gt;attr_4 -->
<g id="edge5" class="edge">
<title>unknown.nodes&#45;&gt;attr_4</title>
<path fill="none" stroke="#aaaaaa" d="M364.84,-473C374.62,-473 386.23,-473 398.19,-473"/>
<polygon fill="#aaaaaa" stroke="#aaaaaa" points="397.99,-475.45 404.99,-473 397.99,-470.55 397.99,-475.45"/>
</g>
<!-- structure.layout -->
<g id="node5" class="node">
<title>structure.layout</title>
<path fill="#b8e6b8" stroke="#2c3e50" stroke-width="1.8" d="M352,-101C352,-101 322,-101 322,-101 316,-101 310,-95 310,-89 310,-89 310,-77 310,-77 310,-71 316,-65 322,-65 322,-65 352,-65 352,-65 358,-65 364,-71 364,-77 364,-77 364,-89 364,-89 364,-95 358,-101 352,-101"/>
<text xml:space="preserve" text-anchor="middle" x="337" y="-79.5" font-family="Arial" font-size="10.00" fill="#1a1a1a">layout</text>
</g>
<!-- attr_5 -->
<g id="node12" class="node">
<title>attr_5</title>
<path fill="#c7b8e6" stroke="#7f8c8d" stroke-width="1.2" d="M519,-101C519,-101 434,-101 434,-101 428,-101 422,-95 422,-89 422,-89 422,-77 422,-77 422,-71 428,-65 434,-65 434,-65 519,-65 519,-65 525,-65 531,-71 531,-77 531,-77 531,-89 531,-89 531,-95 525,-101 519,-101"/>
<text xml:space="preserve" text-anchor="middle" x="476.5" y="-79.5" font-family="Arial" font-size="10.00" fill="#1a1a1a">(+) busy arrangement</text>
</g>
<!-- structure.layout&#45;&gt;attr_5 -->
<g id="edge6" class="edge">
<title>structure.layout&#45;&gt;attr_5</title>
<path fill="none" stroke="#aaaaaa" d="M364.84,-83C378.67,-83 396.17,-83 413.14,-83"/>
<polygon fill="#aaaaaa" stroke="#aaaaaa" points="412.9,-85.45 419.9,-83 412.9,-80.55 412.9,-85.45"/>
</g>
<!-- text.label -->
<g id="node6" class="node">
<title>text.label</title>
<path fill="#b8e6b8" stroke="#2c3e50" stroke-width="1.8" d="M47.75,-621C47.75,-621 17.75,-621 17.75,-621 11.75,-621 5.75,-615 5.75,-609 5.75,-609 5.75,-597 5.75,-597 5.75,-591 11.75,-585 17.75,-585 17.75,-585 47.75,-585 47.75,-585 53.75,-585 59.75,-591 59.75,-597 59.75,-597 59.75,-609 59.75,-609 59.75,-615 53.75,-621 47.75,-621"/>
<text xml:space="preserve" text-anchor="middle" x="32.75" y="-599.5" font-family="Arial" font-size="10.00" fill="#1a1a1a">text</text>
</g>
<!-- attr_6 -->
<g id="node13" class="node">
<title>attr_6</title>
<path fill="#c7b8e6" stroke="#7f8c8d" stroke-width="1.2" d="M219.38,-621C219.38,-621 156.12,-621 156.12,-621 150.12,-621 144.12,-615 144.12,-609 144.12,-609 144.12,-597 144.12,-597 144.12,-591 150.12,-585 156.12,-585 156.12,-585 219.38,-585 219.38,-585 225.38,-585 231.38,-591 231.38,-597 231.38,-597 231.38,-609 231.38,-609 231.38,-615 225.38,-621 219.38,-621"/>
<text xml:space="preserve" text-anchor="middle" x="187.75" y="-599.5" font-family="Arial" font-size="10.00" fill="#1a1a1a">(+) lots of words</text>
</g>
<!-- text.label&#45;&gt;attr_6 -->
<g id="edge7" class="edge">
<title>text.label&#45;&gt;attr_6</title>
<path fill="none" stroke="#aaaaaa" d="M60.4,-603C81.02,-603 110.18,-603 135.3,-603"/>
<polygon fill="#aaaaaa" stroke="#aaaaaa" points="135.13,-605.45 142.13,-603 135.13,-600.55 135.13,-605.45"/>
</g>
<!-- rel_0&#45;&gt;structure.layout -->
<g id="edge9" class="edge">
<title>rel_0&#45;&gt;structure.layout</title>
<path fill="none" stroke="#d46a6a" stroke-width="1.5" d="M222.53,-83C245.36,-83 275.5,-83 298.97,-83"/>
<polygon fill="#d46a6a" stroke="#d46a6a" stroke-width="1.5" points="298.97,-85.8 306.97,-83 298.97,-80.2 298.97,-85.8"/>
</g>
<!-- rel_1&#45;&gt;unknown.nodes -->
<g id="edge11" class="edge">
<title>rel_1&#45;&gt;unknown.nodes</title>
<path fill="none" stroke="#d46a6a" stroke-width="1.5" d="M237.37,-473C257.49,-473 280.44,-473 299.14,-473"/>
<polygon fill="#d46a6a" stroke="#d46a6a" stroke-width="1.5" points="299.05,-475.8 307.05,-473 299.05,-470.2 299.05,-475.8"/>
</g>
<!-- rel_2&#45;&gt;structure.layout -->
<g id="edge13" class="edge">
<title>rel_2&#45;&gt;structure.layout</title>
<path fill="none" stroke="#d46a6a" stroke-width="1.5" d="M215.59,-272.16C232.22,-267.33 253.01,-258.95 267,-245 304.35,-207.78 322.69,-147.18 330.68,-111.6"/>
<polygon fill="#d46a6a" stroke="#d46a6a" stroke-width="1.5" points="333.36,-112.47 332.29,-104.06 327.89,-111.3 333.36,-112.47"/>
</g>
<!-- rel_3&#45;&gt;unknown.edges -->
<g id="edge15" class="edge">
<title>rel_3&#45;&gt;unknown.edges</title>
<path fill="none" stroke="#d46a6a" stroke-width="1.5" d="M148.07,-425.68C124.21,-432.43 93.78,-438.74 70.32,-441.79"/>
<polygon fill="#d46a6a" stroke="#d46a6a" stroke-width="1.5" points="70.29,-438.97 62.66,-442.66 70.92,-444.53 70.29,-438.97"/>
</g>
<!-- rel_4&#45;&gt;structure.layout -->
<g id="edge17" class="edge">
<title>rel_4&#45;&gt;structure.layout</title>
<path fill="none" stroke="#d46a6a" stroke-width="1.5" d="M235.28,-36.51C245.76,-40.82 256.8,-45.48 267,-50 277.89,-54.83 289.62,-60.32 300.27,-65.43"/>
<polygon fill="#d46a6a" stroke="#d46a6a" stroke-width="1.5" points="298.83,-67.84 307.25,-68.8 301.27,-62.8 298.83,-67.84"/>
</g>
</g>
</svg>
