<?xml version="1.0" encoding="UTF-8" standalone="no"?>
<!DOCTYPE svg PUBLIC "-//W3C//DTD SVG 1.1//EN"
 "http://www.w3.org/Graphics/SVG/1.1/DTD/svg11.dtd">
<!-- Generated by graphviz version 14.1.5 (20260411.2331)
 -->
<!-- Title: v488_n7412_9_f1.png Pages: 1 -->
<svg width="1109pt" height="310pt"
 viewBox="0.00 0.00 1109.00 310.00" xmlns="http://www.w3.org/2000/svg" xmlns:xlink="http://www.w3.org/1999/xlink">
<g id="graph0" class="graph" transform="scale(1 1) rotate(0) translate(4 306.25)">
<title>v488_n7412_9_f1.png</title>
<polygon fill="white" stroke="none" points="-4,4 -4,-306.25 1104.5,-306.25 1104.5,4 -4,4"/>
<text xml:space="preserve" text-anchor="start" x="480.88" y="-281.95" font-family="Arial" font-weight="bold" font-size="14.00">v488_n7412_9_f1.png</text>
<text xml:space="preserve" text-anchor="start" x="506.38" y="-262" font-family="Arial" font-size="11.00">Area &#160;| &#160;VC = 0.67</text>
<path fill="#b8e6b8" stroke="none" d="M340.88,-237C340.88,-237 348.88,-237 348.88,-237 351.88,-237 354.88,-240 354.88,-243 354.88,-243 354.88,-249 354.88,-249 354.88,-252 351.88,-255 348.88,-255 348.88,-255 340.88,-255 340.88,-255 337.88,-255 334.88,-252 334.88,-249 334.88,-249 334.88,-243 334.88,-243 334.88,-240 337.88,-237 340.88,-237"/>
<path fill="none" stroke="black" d="M340.88,-237C340.88,-237 348.88,-237 348.88,-237 351.88,-237 354.88,-240 354.88,-243 354.88,-243 354.88,-249 354.88,-249 354.88,-252 351.88,-255 348.88,-255 348.88,-255 340.88,-255 340.88,-255 337.88,-255 334.88,-252 334.88,-249 334.88,-249 334.88,-243 334.88,-243 334.88,-240 337.88,-237 340.88,-237"/>
<text xml:space="preserve" text-anchor="start" x="343.38" y="-242.25" font-family="Arial" font-size="10.00"> </text>
<text xml:space="preserve" text-anchor="start" x="358.88" y="-242.25" font-family="Arial" font-size="10.00">Object</text>
<path fill="#c7b8e6" stroke="none" d="M397.38,-237C397.38,-237 405.38,-237 405.38,-237 408.38,-237 411.38,-240 411.38,-243 411.38,-243 411.38,-249 411.38,-249 411.38,-252 408.38,-255 405.38,-255 405.38,-255 397.38,-255 397.38,-255 394.38,-255 391.38,-252 391.38,-249 391.38,-249 391.38,-243 391.38,-243 391.38,-240 394.38,-237 397.38,-237"/>
<path fill="none" stroke="black" d="M397.38,-237C397.38,-237 405.38,-237 405.38,-237 408.38,-237 411.38,-240 411.38,-243 411.38,-243 411.38,-249 411.38,-249 411.38,-252 408.38,-255 405.38,-255 405.38,-255 397.38,-255 397.38,-255 394.38,-255 391.38,-252 391.38,-249 391.38,-249 391.38,-243 391.38,-243 391.38,-240 394.38,-237 397.38,-237"/>
<text xml:space="preserve" text-anchor="start" x="399.88" y="-242.25" font-family="Arial" font-size="10.00"> </text>
<text xml:space="preserve" text-anchor="start" x="415.38" y="-242.25" font-family="Arial" font-size="10.00">Attribute</text>
<path fill="#f5b8b8" stroke="none" d="M462.12,-237C462.12,-237 470.12,-237 470.12,-237 473.12,-237 476.12,-240 476.12,-243 476.12,-243 476.12,-249 476.12,-249 476.12,-252 473.12,-255 470.12,-255 470.12,-255 462.12,-255 462.12,-255 459.12,-255 456.12,-252 456.12,-249 456.12,-249 456.12,-243 456.12,-243 456.12,-240 459.12,-237 462.12,-237"/>
<path fill="none" stroke="black" d="M462.12,-237C462.12,-237 470.12,-237 470.12,-237 473.12,-237 476.12,-240 476.12,-243 476.12,-243 476.12,-249 476.12,-249 476.12,-252 473.12,-255 470.12,-255 470.12,-255 462.12,-255 462.12,-255 459.12,-255 456.12,-252 456.12,-249 456.12,-249 456.12,-243 456.12,-243 456.12,-240 459.12,-237 462.12,-237"/>
<text xml:space="preserve" text-anchor="start" x="464.62" y="-242.25" font-family="Arial" font-size="10.00"> </text>
<text xml:space="preserve" text-anchor="start" x="480.12" y="-242.25" font-family="Arial" font-size="10.00">Relationship</text>
<text xml:space="preserve" text-anchor="start" x="540.12" y="-243.5" font-family="Arial" font-weight="bold" font-size="10.00">(+)</text>
<text xml:space="preserve" text-anchor="start" x="552.12" y="-243.5" font-family="Arial" font-size="10.00"> increases complexity</text>
<text xml:space="preserve" text-anchor="start" x="653.38" y="-243.5" font-family="Arial" font-weight="bold" font-size="10.00">(−)</text>
<text xml:space="preserve" text-anchor="start" x="665.38" y="-243.5" font-family="Arial" font-size="10.00"> decreases complexity</text>
<!-- unknown.area_chart -->
<g id="node1" class="node">
<title>unknown.area_chart</title>
<path fill="#b8e6b8" stroke="#2c3e50" stroke-width="1.8" d="M625.25,-101C625.25,-101 589.75,-101 589.75,-101 583.75,-101 577.75,-95 577.75,-89 577.75,-89 577.75,-77 577.75,-77 577.75,-71 583.75,-65 589.75,-65 589.75,-65 625.25,-65 625.25,-65 631.25,-65 637.25,-71 637.25,-77 637.25,-77 637.25,-89 637.25,-89 637.25,-95 631.25,-101 625.25,-101"/>
<text xml:space="preserve" text-anchor="middle" x="607.5" y="-79.5" font-family="Arial" font-size="10.00" fill="#1a1a1a">area chart</text>
</g>
<!-- attr_0 -->
<g id="node6" class="node">
<title>attr_0</title>
<path fill="#c7b8e6" stroke="#7f8c8d" stroke-width="1.2" d="M799,-134C799,-134 692.25,-134 692.25,-134 686.25,-134 680.25,-128 680.25,-122 680.25,-122 680.25,-110 680.25,-110 680.25,-104 686.25,-98 692.25,-98 692.25,-98 799,-98 799,-98 805,-98 811,-104 811,-110 811,-110 811,-122 811,-122 811,-128 805,-134 799,-134"/>
<text xml:space="preserve" text-anchor="middle" x="745.62" y="-112.5" font-family="Arial" font-size="10.00" fill="#1a1a1a">(+) high overall complexity</text>
</g>
<!-- unknown.area_chart&#45;&gt;attr_0 -->
<g id="edge1" class="edge">
<title>unknown.area_chart&#45;&gt;attr_0</title>
<path fill="none" stroke="#aaaaaa" d="M638.04,-90.16C648.01,-92.58 659.63,-95.4 671.46,-98.26"/>
<polygon fill="#aaaaaa" stroke="#aaaaaa" points="670.81,-100.63 678.19,-99.9 671.97,-95.86 670.81,-100.63"/>
</g>
<!-- rel_2 -->
<g id="node13" class="node">
<title>rel_2</title>
<path fill="#f5b8b8" stroke="#d46a6a" stroke-width="1.2" d="M761.5,-69C761.5,-69 729.75,-69 729.75,-69 723.75,-69 717.75,-63 717.75,-57 717.75,-57 717.75,-45 717.75,-45 717.75,-39 723.75,-33 729.75,-33 729.75,-33 761.5,-33 761.5,-33 767.5,-33 773.5,-39 773.5,-45 773.5,-45 773.5,-57 773.5,-57 773.5,-63 767.5,-69 761.5,-69"/>
<text xml:space="preserve" text-anchor="middle" x="745.62" y="-47.5" font-family="Arial" font-size="10.00" fill="#8b0000">demands</text>
</g>
<!-- unknown.area_chart&#45;&gt;rel_2 -->
<g id="edge10" class="edge">
<title>unknown.area_chart&#45;&gt;rel_2</title>
<path fill="none" stroke="#d46a6a" stroke-width="1.5" d="M638.04,-76.06C658.42,-71.26 685.68,-64.86 707.53,-59.72"/>
<polygon fill="#d46a6a" stroke="#d46a6a" stroke-width="1.5" points="708.1,-62.46 715.25,-57.91 706.82,-57.01 708.1,-62.46"/>
</g>
<!-- unknown.data_series -->
<g id="node2" class="node">
<title>unknown.data_series</title>
<path fill="#b8e6b8" stroke="#2c3e50" stroke-width="1.8" d="M323.12,-198C323.12,-198 283.12,-198 283.12,-198 277.12,-198 271.12,-192 271.12,-186 271.12,-186 271.12,-174 271.12,-174 271.12,-168 277.12,-162 283.12,-162 283.12,-162 323.12,-162 323.12,-162 329.12,-162 335.12,-168 335.12,-174 335.12,-174 335.12,-186 335.12,-186 335.12,-192 329.12,-198 323.12,-198"/>
<text xml:space="preserve" text-anchor="middle" x="303.12" y="-176.5" font-family="Arial" font-size="10.00" fill="#1a1a1a">data series</text>
</g>
<!-- attr_1 -->
<g id="node7" class="node">
<title>attr_1</title>
<path fill="#c7b8e6" stroke="#7f8c8d" stroke-width="1.2" d="M522.75,-231C522.75,-231 400.25,-231 400.25,-231 394.25,-231 388.25,-225 388.25,-219 388.25,-219 388.25,-207 388.25,-207 388.25,-201 394.25,-195 400.25,-195 400.25,-195 522.75,-195 522.75,-195 528.75,-195 534.75,-201 534.75,-207 534.75,-207 534.75,-219 534.75,-219 534.75,-225 528.75,-231 522.75,-231"/>
<text xml:space="preserve" text-anchor="middle" x="461.5" y="-209.5" font-family="Arial" font-size="10.00" fill="#1a1a1a">(+) multiple overlapping series</text>
</g>
<!-- unknown.data_series&#45;&gt;attr_1 -->
<g id="edge2" class="edge">
<title>unknown.data_series&#45;&gt;attr_1</title>
<path fill="none" stroke="#aaaaaa" d="M335.77,-186.68C348.61,-189.39 364.09,-192.65 379.71,-195.95"/>
<polygon fill="#aaaaaa" stroke="#aaaaaa" points="379.04,-198.31 386.39,-197.36 380.05,-193.52 379.04,-198.31"/>
</g>
<!-- rel_0 -->
<g id="node11" class="node">
<title>rel_0</title>
<path fill="#f5b8b8" stroke="#d46a6a" stroke-width="1.2" d="M478.5,-166C478.5,-166 444.5,-166 444.5,-166 438.5,-166 432.5,-160 432.5,-154 432.5,-154 432.5,-142 432.5,-142 432.5,-136 438.5,-130 444.5,-130 444.5,-130 478.5,-130 478.5,-130 484.5,-130 490.5,-136 490.5,-142 490.5,-142 490.5,-154 490.5,-154 490.5,-160 484.5,-166 478.5,-166"/>
<text xml:space="preserve" text-anchor="middle" x="461.5" y="-144.5" font-family="Arial" font-size="10.00" fill="#8b0000">increases</text>
</g>
<!-- unknown.data_series&#45;&gt;rel_0 -->
<g id="edge6" class="edge">
<title>unknown.data_series&#45;&gt;rel_0</title>
<path fill="none" stroke="#d46a6a" stroke-width="1.5" d="M335.77,-173.52C360.78,-168.41 395.77,-161.25 422.33,-155.81"/>
<polygon fill="#d46a6a" stroke="#d46a6a" stroke-width="1.5" points="422.56,-158.62 429.83,-154.28 421.43,-153.14 422.56,-158.62"/>
</g>
<!-- unknown.visual_elements -->
<g id="node3" class="node">
<title>unknown.visual_elements</title>
<path fill="#b8e6b8" stroke="#2c3e50" stroke-width="1.8" d="M333.25,-69C333.25,-69 273,-69 273,-69 267,-69 261,-63 261,-57 261,-57 261,-45 261,-45 261,-39 267,-33 273,-33 273,-33 333.25,-33 333.25,-33 339.25,-33 345.25,-39 345.25,-45 345.25,-45 345.25,-57 345.25,-57 345.25,-63 339.25,-69 333.25,-69"/>
<text xml:space="preserve" text-anchor="middle" x="303.12" y="-47.5" font-family="Arial" font-size="10.00" fill="#1a1a1a">visual elements</text>
</g>
<!-- attr_2 -->
<g id="node8" class="node">
<title>attr_2</title>
<path fill="#c7b8e6" stroke="#7f8c8d" stroke-width="1.2" d="M506.25,-101C506.25,-101 416.75,-101 416.75,-101 410.75,-101 404.75,-95 404.75,-89 404.75,-89 404.75,-77 404.75,-77 404.75,-71 410.75,-65 416.75,-65 416.75,-65 506.25,-65 506.25,-65 512.25,-65 518.25,-71 518.25,-77 518.25,-77 518.25,-89 518.25,-89 518.25,-95 512.25,-101 506.25,-101"/>
<text xml:space="preserve" text-anchor="middle" x="461.5" y="-79.5" font-family="Arial" font-size="10.00" fill="#1a1a1a">(+) high element count</text>
</g>
<!-- unknown.visual_elements&#45;&gt;attr_2 -->
<g id="edge3" class="edge">
<title>unknown.visual_elements&#45;&gt;attr_2</title>
<path fill="none" stroke="#aaaaaa" d="M346.03,-59.58C361.42,-62.73 379.23,-66.37 396.14,-69.83"/>
<polygon fill="#aaaaaa" stroke="#aaaaaa" points="395.53,-72.2 402.88,-71.21 396.51,-67.4 395.53,-72.2"/>
</g>
<!-- rel_1 -->
<g id="node12" class="node">
<title>rel_1</title>
<path fill="#f5b8b8" stroke="#d46a6a" stroke-width="1.2" d="M483.75,-36C483.75,-36 439.25,-36 439.25,-36 433.25,-36 427.25,-30 427.25,-24 427.25,-24 427.25,-12 427.25,-12 427.25,-6 433.25,0 439.25,0 439.25,0 483.75,0 483.75,0 489.75,0 495.75,-6 495.75,-12 495.75,-12 495.75,-24 495.75,-24 495.75,-30 489.75,-36 483.75,-36"/>
<text xml:space="preserve" text-anchor="middle" x="461.5" y="-14.5" font-family="Arial" font-size="10.00" fill="#8b0000">overwhelms</text>
</g>
<!-- unknown.visual_elements&#45;&gt;rel_1 -->
<g id="edge8" class="edge">
<title>unknown.visual_elements&#45;&gt;rel_1</title>
<path fill="none" stroke="#d46a6a" stroke-width="1.5" d="M346.03,-42.16C368,-37.52 394.87,-31.85 417.06,-27.17"/>
<polygon fill="#d46a6a" stroke="#d46a6a" stroke-width="1.5" points="417.42,-29.95 424.67,-25.56 416.27,-24.47 417.42,-29.95"/>
</g>
<!-- furniture.legend -->
<g id="node4" class="node">
<title>furniture.legend</title>
<path fill="#b8e6b8" stroke="#2c3e50" stroke-width="1.8" d="M42,-101C42,-101 12,-101 12,-101 6,-101 0,-95 0,-89 0,-89 0,-77 0,-77 0,-71 6,-65 12,-65 12,-65 42,-65 42,-65 48,-65 54,-71 54,-77 54,-77 54,-89 54,-89 54,-95 48,-101 42,-101"/>
<text xml:space="preserve" text-anchor="middle" x="27" y="-79.5" font-family="Arial" font-size="10.00" fill="#1a1a1a">legend</text>
</g>
<!-- attr_3 -->
<g id="node9" class="node">
<title>attr_3</title>
<path fill="#c7b8e6" stroke="#7f8c8d" stroke-width="1.2" d="M206,-134C206,-134 109,-134 109,-134 103,-134 97,-128 97,-122 97,-122 97,-110 97,-110 97,-104 103,-98 109,-98 109,-98 206,-98 206,-98 212,-98 218,-104 218,-110 218,-110 218,-122 218,-122 218,-128 212,-134 206,-134"/>
<text xml:space="preserve" text-anchor="middle" x="157.5" y="-112.5" font-family="Arial" font-size="10.00" fill="#1a1a1a">(+) dense legend entries</text>
</g>
<!-- furniture.legend&#45;&gt;attr_3 -->
<g id="edge4" class="edge">
<title>furniture.legend&#45;&gt;attr_3</title>
<path fill="none" stroke="#aaaaaa" d="M54.63,-89.84C64.64,-92.41 76.53,-95.46 88.59,-98.56"/>
<polygon fill="#aaaaaa" stroke="#aaaaaa" points="87.67,-100.85 95.06,-100.22 88.89,-96.11 87.67,-100.85"/>
</g>
<!-- rel_3 -->
<g id="node14" class="node">
<title>rel_3</title>
<path fill="#f5b8b8" stroke="#d46a6a" stroke-width="1.2" d="M172.5,-69C172.5,-69 142.5,-69 142.5,-69 136.5,-69 130.5,-63 130.5,-57 130.5,-57 130.5,-45 130.5,-45 130.5,-39 136.5,-33 142.5,-33 142.5,-33 172.5,-33 172.5,-33 178.5,-33 184.5,-39 184.5,-45 184.5,-45 184.5,-57 184.5,-57 184.5,-63 178.5,-69 172.5,-69"/>
<text xml:space="preserve" text-anchor="middle" x="157.5" y="-47.5" font-family="Arial" font-size="10.00" fill="#8b0000">adds to</text>
</g>
<!-- furniture.legend&#45;&gt;rel_3 -->
<g id="edge12" class="edge">
<title>furniture.legend&#45;&gt;rel_3</title>
<path fill="none" stroke="#d46a6a" stroke-width="1.5" d="M54.63,-76.37C73.58,-71.65 99.27,-65.25 120.12,-60.06"/>
<polygon fill="#d46a6a" stroke="#d46a6a" stroke-width="1.5" points="120.62,-62.82 127.71,-58.17 119.27,-57.39 120.62,-62.82"/>
</g>
<!-- unknown.axes -->
<g id="node5" class="node">
<title>unknown.axes</title>
<path fill="#b8e6b8" stroke="#2c3e50" stroke-width="1.8" d="M896,-69C896,-69 866,-69 866,-69 860,-69 854,-63 854,-57 854,-57 854,-45 854,-45 854,-39 860,-33 866,-33 866,-33 896,-33 896,-33 902,-33 908,-39 908,-45 908,-45 908,-57 908,-57 908,-63 902,-69 896,-69"/>
<text xml:space="preserve" text-anchor="middle" x="881" y="-47.5" font-family="Arial" font-size="10.00" fill="#1a1a1a">axes</text>
</g>
<!-- attr_4 -->
<g id="node10" class="node">
<title>attr_4</title>
<path fill="#c7b8e6" stroke="#7f8c8d" stroke-width="1.2" d="M1088.5,-69C1088.5,-69 963,-69 963,-69 957,-69 951,-63 951,-57 951,-57 951,-45 951,-45 951,-39 957,-33 963,-33 963,-33 1088.5,-33 1088.5,-33 1094.5,-33 1100.5,-39 1100.5,-45 1100.5,-45 1100.5,-57 1100.5,-57 1100.5,-63 1094.5,-69 1088.5,-69"/>
<text xml:space="preserve" text-anchor="middle" x="1025.75" y="-47.5" font-family="Arial" font-size="10.00" fill="#1a1a1a">(+) requires interpretation effort</text>
</g>
<!-- unknown.axes&#45;&gt;attr_4 -->
<g id="edge5" class="edge">
<title>unknown.axes&#45;&gt;attr_4</title>
<path fill="none" stroke="#aaaaaa" d="M908.85,-51C918.56,-51 930.11,-51 942.08,-51"/>
<polygon fill="#aaaaaa" stroke="#aaaaaa" points="941.92,-53.45 948.92,-51 941.92,-48.55 941.92,-53.45"/>
</g>
<!-- rel_0&#45;&gt;unknown.area_chart -->
<g id="edge7" class="edge">
<title>rel_0&#45;&gt;unknown.area_chart</title>
<path fill="none" stroke="#d46a6a" stroke-width="1.5" d="M491.02,-135.48C504.33,-129.61 520.37,-122.49 534.75,-116 545.48,-111.16 557.08,-105.85 567.76,-100.94"/>
<polygon fill="#d46a6a" stroke="#d46a6a" stroke-width="1.5" points="568.71,-103.58 574.81,-97.69 566.37,-98.5 568.71,-103.58"/>
</g>
<!-- rel_1&#45;&gt;unknown.area_chart -->
<g id="edge9" class="edge">
<title>rel_1&#45;&gt;unknown.area_chart</title>
<path fill="none" stroke="#d46a6a" stroke-width="1.5" d="M496,-32.72C508.21,-38.12 522.12,-44.3 534.75,-50 545.48,-54.84 557.08,-60.15 567.76,-65.06"/>
<polygon fill="#d46a6a" stroke="#d46a6a" stroke-width="1.5" points="566.37,-67.5 574.81,-68.31 568.71,-62.42 566.37,-67.5"/>
</g>
<!-- rel_2&#45;&gt;unknown.axes -->
<g id="edge11" class="edge">
<title>rel_2&#45;&gt;unknown.axes</title>
<path fill="none" stroke="#d46a6a" stroke-width="1.5" d="M773.94,-51C793.85,-51 821.05,-51 842.93,-51"/>
<polygon fill="#d46a6a" stroke="#d46a6a" stroke-width="1.5" points="842.91,-53.8 850.91,-51 842.91,-48.2 842.91,-53.8"/>
</g>
<!-- rel_3&#45;&gt;unknown.visual_elements -->
<g id="edge13" class="edge">
<title>rel_3&#45;&gt;unknown.visual_elements</title>
<path fill="none" stroke="#d46a6a" stroke-width="1.5" d="M184.84,-51C203.02,-51 227.8,-51 249.9,-51"/>
<polygon fill="#d46a6a" stroke="#d46a6a" stroke-width="1.5" points="249.89,-53.8 257.89,-51 249.89,-48.2 249.89,-53.8"/>
</g>
</g>
</svg>
