<?xml version="1.0" encoding="UTF-8" standalone="no"?>
<!DOCTYPE svg PUBLIC "-//W3C//DTD SVG 1.1//EN"
 "http://www.w3.org/Graphics/SVG/1.1/DTD/svg11.dtd">
<!-- Generated by graphviz version 14.1.5 (20260411.2331)
 -->
<!-- Title: v488_n7413_12_f2.png Pages: 1 -->
<svg width="849pt" height="505pt"
 viewBox="0.00 0.00 849.00 505.00" xmlns="http://www.w3.org/2000/svg" xmlns:xlink="http://www.w3.org/1999/xlink">
<g id="graph0" class="graph" transform="scale(1 1) rotate(0) translate(4 501.25)">
<title>v488_n7413_12_f2.png</title>
<polygon fill="white" stroke="none" points="-4,4 -4,-501.25 845.25,-501.25 845.25,4 -4,4"/>
<text xml:space="preserve" text-anchor="start" x="347.5" y="-476.95" font-family="Arial" font-weight="bold" font-size="14.00">v488_n7413_12_f2.png</text>
<text xml:space="preserve" text-anchor="start" x="376" y="-457" font-family="Arial" font-size="11.00">Point &#160;| &#160;VC = 0.59</text>
<path fill="#b8e6b8" stroke="none" d="M211.25,-432C211.25,-432 219.25,-432 219.25,-432 222.25,-432 225.25,-435 225.25,-438 225.25,-438 225.25,-444 225.25,-444 225.25,-447 222.25,-450 219.25,-450 219.25,-450 211.25,-450 211.25,-450 208.25,-450 205.25,-447 205.25,-444 205.25,-444 205.25,-438 205.25,-438 205.25,-435 208.25,-432 211.25,-432"/>
<path fill="none" stroke="black" d="M211.25,-432C211.25,-432 219.25,-432 219.25,-432 222.25,-432 225.25,-435 225.25,-438 225.25,-438 225.25,-444 225.25,-444 225.25,-447 222.25,-450 219.25,-450 219.25,-450 211.25,-450 211.25,-450 208.25,-450 205.25,-447 205.25,-444 205.25,-444 205.25,-438 205.25,-438 205.25,-435 208.25,-432 211.25,-432"/>
<text xml:space="preserve" text-anchor="start" x="213.75" y="-437.25" font-family="Arial" font-size="10.00"> </text>
<text xml:space="preserve" text-anchor="start" x="229.25" y="-437.25" font-family="Arial" font-size="10.00">Object</text>
<path fill="#c7b8e6" stroke="none" d="M267.75,-432C267.75,-432 275.75,-432 275.75,-432 278.75,-432 281.75,-435 281.75,-438 281.75,-438 281.75,-444 281.75,-444 281.75,-447 278.75,-450 275.75,-450 275.75,-450 267.75,-450 267.75,-450 264.75,-450 261.75,-447 261.75,-444 261.75,-444 261.75,-438 261.75,-438 261.75,-435 264.75,-432 267.75,-432"/>
<path fill="none" stroke="black" d="M267.75,-432C267.75,-432 275.75,-432 275.75,-432 278.75,-432 281.75,-435 281.75,-438 281.75,-438 281.75,-444 281.75,-444 281.75,-447 278.75,-450 275.75,-450 275.75,-450 267.75,-450 267.75,-450 264.75,-450 261.75,-447 261.75,-444 261.75,-444 261.75,-438 261.75,-438 261.75,-435 264.75,-432 267.75,-432"/>
<text xml:space="preserve" text-anchor="start" x="270.25" y="-437.25" font-family="Arial" font-size="10.00"> </text>
<text xml:space="preserve" text-anchor="start" x="285.75" y="-437.25" font-family="Arial" font-size="10.00">Attribute</text>
<path fill="#f5b8b8" stroke="none" d="M332.5,-432C332.5,-432 340.5,-432 340.5,-432 343.5,-432 346.5,-435 346.5,-438 346.5,-438 346.5,-444 346.5,-444 346.5,-447 343.5,-450 340.5,-450 340.5,-450 332.5,-450 332.5,-450 329.5,-450 326.5,-447 326.5,-444 326.5,-444 326.5,-438 326.5,-438 326.5,-435 329.5,-432 332.5,-432"/>
<path fill="none" stroke="black" d="M332.5,-432C332.5,-432 340.5,-432 340.5,-432 343.5,-432 346.5,-435 346.5,-438 346.5,-438 346.5,-444 346.5,-444 346.5,-447 343.5,-450 340.5,-450 340.5,-450 332.5,-450 332.5,-450 329.5,-450 326.5,-447 326.5,-444 326.5,-444 326.5,-438 326.5,-438 326.5,-435 329.5,-432 332.5,-432"/>
<text xml:space="preserve" text-anchor="start" x="335" y="-437.25" font-family="Arial" font-size="10.00"> </text>
<text xml:space="preserve" text-anchor="start" x="350.5" y="-437.25" font-family="Arial" font-size="10.00">Relationship</text>
<text xml:space="preserve" text-anchor="start" x="410.5" y="-438.5" font-family="Arial" font-weight="bold" font-size="10.00">(+)</text>
<text xml:space="preserve" text-anchor="start" x="422.5" y="-438.5" font-family="Arial" font-size="10.00"> increases complexity</text>
<text xml:space="preserve" text-anchor="start" x="523.75" y="-438.5" font-family="Arial" font-weight="bold" font-size="10.00">(−)</text>
<text xml:space="preserve" text-anchor="start" x="535.75" y="-438.5" font-family="Arial" font-size="10.00"> decreases complexity</text>
<!-- unknown.data_points -->
<g id="node1" class="node">
<title>unknown.data_points</title>
<path fill="#b8e6b8" stroke="#2c3e50" stroke-width="1.8" d="M365.75,-231C365.75,-231 325.75,-231 325.75,-231 319.75,-231 313.75,-225 313.75,-219 313.75,-219 313.75,-207 313.75,-207 313.75,-201 319.75,-195 325.75,-195 325.75,-195 365.75,-195 365.75,-195 371.75,-195 377.75,-201 377.75,-207 377.75,-207 377.75,-219 377.75,-219 377.75,-225 371.75,-231 365.75,-231"/>
<text xml:space="preserve" text-anchor="middle" x="345.75" y="-209.5" font-family="Arial" font-size="10.00" fill="#1a1a1a">data points</text>
</g>
<!-- attr_0 -->
<g id="node7" class="node">
<title>attr_0</title>
<path fill="#c7b8e6" stroke="#7f8c8d" stroke-width="1.2" d="M548.5,-263C548.5,-263 432.75,-263 432.75,-263 426.75,-263 420.75,-257 420.75,-251 420.75,-251 420.75,-239 420.75,-239 420.75,-233 426.75,-227 432.75,-227 432.75,-227 548.5,-227 548.5,-227 554.5,-227 560.5,-233 560.5,-239 560.5,-239 560.5,-251 560.5,-251 560.5,-257 554.5,-263 548.5,-263"/>
<text xml:space="preserve" text-anchor="middle" x="490.62" y="-241.5" font-family="Arial" font-size="10.00" fill="#1a1a1a">(+) high density many points</text>
</g>
<!-- unknown.data_points&#45;&gt;attr_0 -->
<g id="edge1" class="edge">
<title>unknown.data_points&#45;&gt;attr_0</title>
<path fill="none" stroke="#aaaaaa" d="M378.46,-220.1C388.54,-222.36 400.18,-224.97 412.04,-227.62"/>
<polygon fill="#aaaaaa" stroke="#aaaaaa" points="411.43,-230 418.8,-229.14 412.5,-225.22 411.43,-230"/>
</g>
<!-- rel_0 -->
<g id="node13" class="node">
<title>rel_0</title>
<path fill="#f5b8b8" stroke="#d46a6a" stroke-width="1.2" d="M505.62,-198C505.62,-198 475.62,-198 475.62,-198 469.62,-198 463.62,-192 463.62,-186 463.62,-186 463.62,-174 463.62,-174 463.62,-168 469.62,-162 475.62,-162 475.62,-162 505.62,-162 505.62,-162 511.62,-162 517.62,-168 517.62,-174 517.62,-174 517.62,-186 517.62,-186 517.62,-192 511.62,-198 505.62,-198"/>
<text xml:space="preserve" text-anchor="middle" x="490.62" y="-176.5" font-family="Arial" font-size="10.00" fill="#8b0000">creates</text>
</g>
<!-- unknown.data_points&#45;&gt;rel_0 -->
<g id="edge7" class="edge">
<title>unknown.data_points&#45;&gt;rel_0</title>
<path fill="none" stroke="#d46a6a" stroke-width="1.5" d="M378.46,-205.68C400.66,-200.55 430.36,-193.69 453.48,-188.35"/>
<polygon fill="#d46a6a" stroke="#d46a6a" stroke-width="1.5" points="453.89,-191.13 461.06,-186.6 452.63,-185.67 453.89,-191.13"/>
</g>
<!-- unknown.shape_markers -->
<g id="node2" class="node">
<title>unknown.shape_markers</title>
<path fill="#b8e6b8" stroke="#2c3e50" stroke-width="1.8" d="M68.5,-101C68.5,-101 12,-101 12,-101 6,-101 0,-95 0,-89 0,-89 0,-77 0,-77 0,-71 6,-65 12,-65 12,-65 68.5,-65 68.5,-65 74.5,-65 80.5,-71 80.5,-77 80.5,-77 80.5,-89 80.5,-89 80.5,-95 74.5,-101 68.5,-101"/>
<text xml:space="preserve" text-anchor="middle" x="40.25" y="-79.5" font-family="Arial" font-size="10.00" fill="#1a1a1a">shape markers</text>
</g>
<!-- attr_1 -->
<g id="node8" class="node">
<title>attr_1</title>
<path fill="#c7b8e6" stroke="#7f8c8d" stroke-width="1.2" d="M252,-166C252,-166 142.25,-166 142.25,-166 136.25,-166 130.25,-160 130.25,-154 130.25,-154 130.25,-142 130.25,-142 130.25,-136 136.25,-130 142.25,-130 142.25,-130 252,-130 252,-130 258,-130 264,-136 264,-142 264,-142 264,-154 264,-154 264,-160 258,-166 252,-166"/>
<text xml:space="preserve" text-anchor="middle" x="197.12" y="-144.5" font-family="Arial" font-size="10.00" fill="#1a1a1a">(+) multiple distinct shapes</text>
</g>
<!-- unknown.shape_markers&#45;&gt;attr_1 -->
<g id="edge2" class="edge">
<title>unknown.shape_markers&#45;&gt;attr_1</title>
<path fill="none" stroke="#aaaaaa" d="M81.13,-99.74C100.37,-107.81 123.68,-117.59 144.27,-126.24"/>
<polygon fill="#aaaaaa" stroke="#aaaaaa" points="143.21,-128.45 150.62,-128.9 145.11,-123.93 143.21,-128.45"/>
</g>
<!-- rel_1 -->
<g id="node14" class="node">
<title>rel_1</title>
<path fill="#f5b8b8" stroke="#d46a6a" stroke-width="1.2" d="M254.62,-36C254.62,-36 139.62,-36 139.62,-36 133.62,-36 127.62,-30 127.62,-24 127.62,-24 127.62,-12 127.62,-12 127.62,-6 133.62,0 139.62,0 139.62,0 254.62,0 254.62,0 260.62,0 266.62,-6 266.62,-12 266.62,-12 266.62,-24 266.62,-24 266.62,-30 260.62,-36 254.62,-36"/>
<text xml:space="preserve" text-anchor="middle" x="197.12" y="-14.5" font-family="Arial" font-size="10.00" fill="#8b0000">increases decoding effort for</text>
</g>
<!-- unknown.shape_markers&#45;&gt;rel_1 -->
<g id="edge9" class="edge">
<title>unknown.shape_markers&#45;&gt;rel_1</title>
<path fill="none" stroke="#d46a6a" stroke-width="1.5" d="M81.13,-66.26C99.86,-58.4 122.45,-48.92 142.63,-40.45"/>
<polygon fill="#d46a6a" stroke="#d46a6a" stroke-width="1.5" points="143.63,-43.07 149.92,-37.39 141.46,-37.91 143.63,-43.07"/>
</g>
<!-- rel_4 -->
<g id="node17" class="node">
<title>rel_4</title>
<path fill="#f5b8b8" stroke="#d46a6a" stroke-width="1.2" d="M228.38,-101C228.38,-101 165.88,-101 165.88,-101 159.88,-101 153.88,-95 153.88,-89 153.88,-89 153.88,-77 153.88,-77 153.88,-71 159.88,-65 165.88,-65 165.88,-65 228.38,-65 228.38,-65 234.38,-65 240.38,-71 240.38,-77 240.38,-77 240.38,-89 240.38,-89 240.38,-95 234.38,-101 228.38,-101"/>
<text xml:space="preserve" text-anchor="middle" x="197.12" y="-79.5" font-family="Arial" font-size="10.00" fill="#8b0000">varies alongside</text>
</g>
<!-- unknown.shape_markers&#45;&gt;rel_4 -->
<g id="edge15" class="edge">
<title>unknown.shape_markers&#45;&gt;rel_4</title>
<path fill="none" stroke="#d46a6a" stroke-width="1.5" d="M81.13,-83C100.07,-83 122.96,-83 143.32,-83"/>
<polygon fill="#d46a6a" stroke="#d46a6a" stroke-width="1.5" points="143.12,-85.8 151.12,-83 143.12,-80.2 143.12,-85.8"/>
</g>
<!-- unknown.numbers -->
<g id="node3" class="node">
<title>unknown.numbers</title>
<path fill="#b8e6b8" stroke="#2c3e50" stroke-width="1.8" d="M55.25,-264C55.25,-264 25.25,-264 25.25,-264 19.25,-264 13.25,-258 13.25,-252 13.25,-252 13.25,-240 13.25,-240 13.25,-234 19.25,-228 25.25,-228 25.25,-228 55.25,-228 55.25,-228 61.25,-228 67.25,-234 67.25,-240 67.25,-240 67.25,-252 67.25,-252 67.25,-258 61.25,-264 55.25,-264"/>
<text xml:space="preserve" text-anchor="middle" x="40.25" y="-242.5" font-family="Arial" font-size="10.00" fill="#1a1a1a">numbers</text>
</g>
<!-- attr_2 -->
<g id="node9" class="node">
<title>attr_2</title>
<path fill="#c7b8e6" stroke="#7f8c8d" stroke-width="1.2" d="M258.75,-296C258.75,-296 135.5,-296 135.5,-296 129.5,-296 123.5,-290 123.5,-284 123.5,-284 123.5,-272 123.5,-272 123.5,-266 129.5,-260 135.5,-260 135.5,-260 258.75,-260 258.75,-260 264.75,-260 270.75,-266 270.75,-272 270.75,-272 270.75,-284 270.75,-284 270.75,-290 264.75,-296 258.75,-296"/>
<text xml:space="preserve" text-anchor="middle" x="197.12" y="-274.5" font-family="Arial" font-size="10.00" fill="#1a1a1a">(+) ambiguous numeric values</text>
</g>
<!-- unknown.numbers&#45;&gt;attr_2 -->
<g id="edge3" class="edge">
<title>unknown.numbers&#45;&gt;attr_2</title>
<path fill="none" stroke="#aaaaaa" d="M67.87,-251.5C81.03,-254.22 97.69,-257.66 114.61,-261.16"/>
<polygon fill="#aaaaaa" stroke="#aaaaaa" points="114.09,-263.55 121.44,-262.57 115.08,-258.75 114.09,-263.55"/>
</g>
<!-- rel_3 -->
<g id="node16" class="node">
<title>rel_3</title>
<path fill="#f5b8b8" stroke="#d46a6a" stroke-width="1.2" d="M243.38,-231C243.38,-231 150.88,-231 150.88,-231 144.88,-231 138.88,-225 138.88,-219 138.88,-219 138.88,-207 138.88,-207 138.88,-201 144.88,-195 150.88,-195 150.88,-195 243.38,-195 243.38,-195 249.38,-195 255.38,-201 255.38,-207 255.38,-207 255.38,-219 255.38,-219 255.38,-225 249.38,-231 243.38,-231"/>
<text xml:space="preserve" text-anchor="middle" x="197.12" y="-209.5" font-family="Arial" font-size="10.00" fill="#8b0000">introduces ambiguity in</text>
</g>
<!-- unknown.numbers&#45;&gt;rel_3 -->
<g id="edge13" class="edge">
<title>unknown.numbers&#45;&gt;rel_3</title>
<path fill="none" stroke="#d46a6a" stroke-width="1.5" d="M67.87,-240.33C84.67,-236.75 107.19,-231.95 128.66,-227.38"/>
<polygon fill="#d46a6a" stroke="#d46a6a" stroke-width="1.5" points="128.97,-230.17 136.21,-225.77 127.8,-224.7 128.97,-230.17"/>
</g>
<!-- unknown.text_labels -->
<g id="node4" class="node">
<title>unknown.text_labels</title>
<path fill="#b8e6b8" stroke="#2c3e50" stroke-width="1.8" d="M58.75,-393C58.75,-393 21.75,-393 21.75,-393 15.75,-393 9.75,-387 9.75,-381 9.75,-381 9.75,-369 9.75,-369 9.75,-363 15.75,-357 21.75,-357 21.75,-357 58.75,-357 58.75,-357 64.75,-357 70.75,-363 70.75,-369 70.75,-369 70.75,-381 70.75,-381 70.75,-387 64.75,-393 58.75,-393"/>
<text xml:space="preserve" text-anchor="middle" x="40.25" y="-371.5" font-family="Arial" font-size="10.00" fill="#1a1a1a">text labels</text>
</g>
<!-- attr_3 -->
<g id="node10" class="node">
<title>attr_3</title>
<path fill="#c7b8e6" stroke="#7f8c8d" stroke-width="1.2" d="M250.12,-426C250.12,-426 144.12,-426 144.12,-426 138.12,-426 132.12,-420 132.12,-414 132.12,-414 132.12,-402 132.12,-402 132.12,-396 138.12,-390 144.12,-390 144.12,-390 250.12,-390 250.12,-390 256.12,-390 262.12,-396 262.12,-402 262.12,-402 262.12,-414 262.12,-414 262.12,-420 256.12,-426 250.12,-426"/>
<text xml:space="preserve" text-anchor="middle" x="197.12" y="-404.5" font-family="Arial" font-size="10.00" fill="#1a1a1a">(+) many words to decode</text>
</g>
<!-- unknown.text_labels&#45;&gt;attr_3 -->
<g id="edge4" class="edge">
<title>unknown.text_labels&#45;&gt;attr_3</title>
<path fill="none" stroke="#aaaaaa" d="M71.48,-381.44C86.5,-384.64 105.35,-388.66 123.81,-392.59"/>
<polygon fill="#aaaaaa" stroke="#aaaaaa" points="122.85,-394.89 130.21,-393.95 123.87,-390.1 122.85,-394.89"/>
</g>
<!-- rel_2 -->
<g id="node15" class="node">
<title>rel_2</title>
<path fill="#f5b8b8" stroke="#d46a6a" stroke-width="1.2" d="M241.12,-361C241.12,-361 153.12,-361 153.12,-361 147.12,-361 141.12,-355 141.12,-349 141.12,-349 141.12,-337 141.12,-337 141.12,-331 147.12,-325 153.12,-325 153.12,-325 241.12,-325 241.12,-325 247.12,-325 253.12,-331 253.12,-337 253.12,-337 253.12,-349 253.12,-349 253.12,-355 247.12,-361 241.12,-361"/>
<text xml:space="preserve" text-anchor="middle" x="197.12" y="-339.5" font-family="Arial" font-size="10.00" fill="#8b0000">slows interpretation of</text>
</g>
<!-- unknown.text_labels&#45;&gt;rel_2 -->
<g id="edge11" class="edge">
<title>unknown.text_labels&#45;&gt;rel_2</title>
<path fill="none" stroke="#d46a6a" stroke-width="1.5" d="M71.48,-368.75C88.35,-365.27 110.05,-360.78 130.61,-356.54"/>
<polygon fill="#d46a6a" stroke="#d46a6a" stroke-width="1.5" points="131.09,-359.3 138.36,-354.94 129.96,-353.81 131.09,-359.3"/>
</g>
<!-- unknown.orange_box -->
<g id="node5" class="node">
<title>unknown.orange_box</title>
<path fill="#b8e6b8" stroke="#2c3e50" stroke-width="1.8" d="M655.5,-198C655.5,-198 615.5,-198 615.5,-198 609.5,-198 603.5,-192 603.5,-186 603.5,-186 603.5,-174 603.5,-174 603.5,-168 609.5,-162 615.5,-162 615.5,-162 655.5,-162 655.5,-162 661.5,-162 667.5,-168 667.5,-174 667.5,-174 667.5,-186 667.5,-186 667.5,-192 661.5,-198 655.5,-198"/>
<text xml:space="preserve" text-anchor="middle" x="635.5" y="-176.5" font-family="Arial" font-size="10.00" fill="#1a1a1a">orange box</text>
</g>
<!-- attr_4 -->
<g id="node11" class="node">
<title>attr_4</title>
<path fill="#c7b8e6" stroke="#7f8c8d" stroke-width="1.2" d="M829.25,-198C829.25,-198 722.5,-198 722.5,-198 716.5,-198 710.5,-192 710.5,-186 710.5,-186 710.5,-174 710.5,-174 710.5,-168 716.5,-162 722.5,-162 722.5,-162 829.25,-162 829.25,-162 835.25,-162 841.25,-168 841.25,-174 841.25,-174 841.25,-186 841.25,-186 841.25,-192 835.25,-198 829.25,-198"/>
<text xml:space="preserve" text-anchor="middle" x="775.88" y="-176.5" font-family="Arial" font-size="10.00" fill="#1a1a1a">(+) highlights dense region</text>
</g>
<!-- unknown.orange_box&#45;&gt;attr_4 -->
<g id="edge5" class="edge">
<title>unknown.orange_box&#45;&gt;attr_4</title>
<path fill="none" stroke="#aaaaaa" d="M668.25,-180C678.26,-180 689.78,-180 701.45,-180"/>
<polygon fill="#aaaaaa" stroke="#aaaaaa" points="701.45,-182.45 708.45,-180 701.45,-177.55 701.45,-182.45"/>
</g>
<!-- furniture.legend -->
<g id="node6" class="node">
<title>furniture.legend</title>
<path fill="#b8e6b8" stroke="#2c3e50" stroke-width="1.8" d="M360.75,-36C360.75,-36 330.75,-36 330.75,-36 324.75,-36 318.75,-30 318.75,-24 318.75,-24 318.75,-12 318.75,-12 318.75,-6 324.75,0 330.75,0 330.75,0 360.75,0 360.75,0 366.75,0 372.75,-6 372.75,-12 372.75,-12 372.75,-24 372.75,-24 372.75,-30 366.75,-36 360.75,-36"/>
<text xml:space="preserve" text-anchor="middle" x="345.75" y="-14.5" font-family="Arial" font-size="10.00" fill="#1a1a1a">legend</text>
</g>
<!-- attr_5 -->
<g id="node12" class="node">
<title>attr_5</title>
<path fill="#c7b8e6" stroke="#7f8c8d" stroke-width="1.2" d="M544.75,-36C544.75,-36 436.5,-36 436.5,-36 430.5,-36 424.5,-30 424.5,-24 424.5,-24 424.5,-12 424.5,-12 424.5,-6 430.5,0 436.5,0 436.5,0 544.75,0 544.75,0 550.75,0 556.75,-6 556.75,-12 556.75,-12 556.75,-24 556.75,-24 556.75,-30 550.75,-36 544.75,-36"/>
<text xml:space="preserve" text-anchor="middle" x="490.62" y="-14.5" font-family="Arial" font-size="10.00" fill="#1a1a1a">(+) requires decoding effort</text>
</g>
<!-- furniture.legend&#45;&gt;attr_5 -->
<g id="edge6" class="edge">
<title>furniture.legend&#45;&gt;attr_5</title>
<path fill="none" stroke="#aaaaaa" d="M373.62,-18C385.7,-18 400.59,-18 415.64,-18"/>
<polygon fill="#aaaaaa" stroke="#aaaaaa" points="415.49,-20.45 422.49,-18 415.49,-15.55 415.49,-20.45"/>
</g>
<!-- rel_0&#45;&gt;unknown.orange_box -->
<g id="edge8" class="edge">
<title>rel_0&#45;&gt;unknown.orange_box</title>
<path fill="none" stroke="#d46a6a" stroke-width="1.5" d="M518.16,-180C538.97,-180 568.33,-180 592.34,-180"/>
<polygon fill="#d46a6a" stroke="#d46a6a" stroke-width="1.5" points="592.34,-182.8 600.34,-180 592.34,-177.2 592.34,-182.8"/>
</g>
<!-- rel_1&#45;&gt;furniture.legend -->
<g id="edge10" class="edge">
<title>rel_1&#45;&gt;furniture.legend</title>
<path fill="none" stroke="#d46a6a" stroke-width="1.5" d="M267.14,-18C281.3,-18 295.68,-18 308.14,-18"/>
<polygon fill="#d46a6a" stroke="#d46a6a" stroke-width="1.5" points="307.85,-20.8 315.85,-18 307.85,-15.2 307.85,-20.8"/>
</g>
<!-- rel_2&#45;&gt;unknown.data_points -->
<g id="edge12" class="edge">
<title>rel_2&#45;&gt;unknown.data_points</title>
<path fill="none" stroke="#d46a6a" stroke-width="1.5" d="M249.25,-324.47C256.83,-320.61 264.27,-316.13 270.75,-311 295.32,-291.55 316.08,-262.12 329.29,-240.59"/>
<polygon fill="#d46a6a" stroke="#d46a6a" stroke-width="1.5" points="331.62,-242.15 333.32,-233.85 326.81,-239.28 331.62,-242.15"/>
</g>
<!-- rel_3&#45;&gt;unknown.data_points -->
<g id="edge14" class="edge">
<title>rel_3&#45;&gt;unknown.data_points</title>
<path fill="none" stroke="#d46a6a" stroke-width="1.5" d="M255.65,-213C271.56,-213 288.51,-213 303.3,-213"/>
<polygon fill="#d46a6a" stroke="#d46a6a" stroke-width="1.5" points="302.89,-215.8 310.89,-213 302.89,-210.2 302.89,-215.8"/>
</g>
<!-- rel_4&#45;&gt;unknown.data_points -->
<g id="edge16" class="edge">
<title>rel_4&#45;&gt;unknown.data_points</title>
<path fill="none" stroke="#d46a6a" stroke-width="1.5" d="M240.86,-98.2C251.23,-102.99 261.87,-108.92 270.75,-116 295.1,-135.4 315.89,-164.51 329.17,-185.77"/>
<polygon fill="#d46a6a" stroke="#d46a6a" stroke-width="1.5" points="326.66,-187.04 333.21,-192.42 331.45,-184.13 326.66,-187.04"/>
</g>
</g>
</svg>
