<?xml version="1.0" encoding="UTF-8" standalone="no"?>
<!DOCTYPE svg PUBLIC "-//W3C//DTD SVG 1.1//EN"
 "http://www.w3.org/Graphics/SVG/1.1/DTD/svg11.dtd">
<!-- Generated by graphviz version 14.1.5 (20260411.2331)
 -->
<!-- Title: v490_n7418_12_f3.png Pages: 1 -->
<svg width="886pt" height="570pt"
 viewBox="0.00 0.00 886.00 570.00" xmlns="http://www.w3.org/2000/svg" xmlns:xlink="http://www.w3.org/1999/xlink">
<g id="graph0" class="graph" transform="scale(1 1) rotate(0) translate(4 566.25)">
<title>v490_n7418_12_f3.png</title>
<polygon fill="white" stroke="none" points="-4,4 -4,-566.25 882,-566.25 882,4 -4,4"/>
<text xml:space="preserve" text-anchor="start" x="365.88" y="-541.95" font-family="Arial" font-weight="bold" font-size="14.00">v490_n7418_12_f3.png</text>
<text xml:space="preserve" text-anchor="start" x="396.62" y="-522" font-family="Arial" font-size="11.00">Line &#160;| &#160;VC = 0.73</text>
<path fill="#b8e6b8" stroke="none" d="M229.62,-497C229.62,-497 237.62,-497 237.62,-497 240.62,-497 243.62,-500 243.62,-503 243.62,-503 243.62,-509 243.62,-509 243.62,-512 240.62,-515 237.62,-515 237.62,-515 229.62,-515 229.62,-515 226.62,-515 223.62,-512 223.62,-509 223.62,-509 223.62,-503 223.62,-503 223.62,-500 226.62,-497 229.62,-497"/>
<path fill="none" stroke="black" d="M229.62,-497C229.62,-497 237.62,-497 237.62,-497 240.62,-497 243.62,-500 243.62,-503 243.62,-503 243.62,-509 243.62,-509 243.62,-512 240.62,-515 237.62,-515 237.62,-515 229.62,-515 229.62,-515 226.62,-515 223.62,-512 223.62,-509 223.62,-509 223.62,-503 223.62,-503 223.62,-500 226.62,-497 229.62,-497"/>
<text xml:space="preserve" text-anchor="start" x="232.12" y="-502.25" font-family="Arial" font-size="10.00"> </text>
<text xml:space="preserve" text-anchor="start" x="247.62" y="-502.25" font-family="Arial" font-size="10.00">Object</text>
<path fill="#c7b8e6" stroke="none" d="M286.12,-497C286.12,-497 294.12,-497 294.12,-497 297.12,-497 300.12,-500 300.12,-503 300.12,-503 300.12,-509 300.12,-509 300.12,-512 297.12,-515 294.12,-515 294.12,-515 286.12,-515 286.12,-515 283.12,-515 280.12,-512 280.12,-509 280.12,-509 280.12,-503 280.12,-503 280.12,-500 283.12,-497 286.12,-497"/>
<path fill="none" stroke="black" d="M286.12,-497C286.12,-497 294.12,-497 294.12,-497 297.12,-497 300.12,-500 300.12,-503 300.12,-503 300.12,-509 300.12,-509 300.12,-512 297.12,-515 294.12,-515 294.12,-515 286.12,-515 286.12,-515 283.12,-515 280.12,-512 280.12,-509 280.12,-509 280.12,-503 280.12,-503 280.12,-500 283.12,-497 286.12,-497"/>
<text xml:space="preserve" text-anchor="start" x="288.62" y="-502.25" font-family="Arial" font-size="10.00"> </text>
<text xml:space="preserve" text-anchor="start" x="304.12" y="-502.25" font-family="Arial" font-size="10.00">Attribute</text>
<path fill="#f5b8b8" stroke="none" d="M350.88,-497C350.88,-497 358.88,-497 358.88,-497 361.88,-497 364.88,-500 364.88,-503 364.88,-503 364.88,-509 364.88,-509 364.88,-512 361.88,-515 358.88,-515 358.88,-515 350.88,-515 350.88,-515 347.88,-515 344.88,-512 344.88,-509 344.88,-509 344.88,-503 344.88,-503 344.88,-500 347.88,-497 350.88,-497"/>
<path fill="none" stroke="black" d="M350.88,-497C350.88,-497 358.88,-497 358.88,-497 361.88,-497 364.88,-500 364.88,-503 364.88,-503 364.88,-509 364.88,-509 364.88,-512 361.88,-515 358.88,-515 358.88,-515 350.88,-515 350.88,-515 347.88,-515 344.88,-512 344.88,-509 344.88,-509 344.88,-503 344.88,-503 344.88,-500 347.88,-497 350.88,-497"/>
<text xml:space="preserve" text-anchor="start" x="353.38" y="-502.25" font-family="Arial" font-size="10.00"> </text>
<text xml:space="preserve" text-anchor="start" x="368.88" y="-502.25" font-family="Arial" font-size="10.00">Relationship</text>
<text xml:space="preserve" text-anchor="start" x="428.88" y="-503.5" font-family="Arial" font-weight="bold" font-size="10.00">(+)</text>
<text xml:space="preserve" text-anchor="start" x="440.88" y="-503.5" font-family="Arial" font-size="10.00"> increases complexity</text>
<text xml:space="preserve" text-anchor="start" x="542.12" y="-503.5" font-family="Arial" font-weight="bold" font-size="10.00">(−)</text>
<text xml:space="preserve" text-anchor="start" x="554.12" y="-503.5" font-family="Arial" font-size="10.00"> decreases complexity</text>
<!-- mark.line -->
<g id="node1" class="node">
<title>mark.line</title>
<path fill="#b8e6b8" stroke="#2c3e50" stroke-width="1.8" d="M368.25,-198C368.25,-198 338.25,-198 338.25,-198 332.25,-198 326.25,-192 326.25,-186 326.25,-186 326.25,-174 326.25,-174 326.25,-168 332.25,-162 338.25,-162 338.25,-162 368.25,-162 368.25,-162 374.25,-162 380.25,-168 380.25,-174 380.25,-174 380.25,-186 380.25,-186 380.25,-192 374.25,-198 368.25,-198"/>
<text xml:space="preserve" text-anchor="middle" x="353.25" y="-176.5" font-family="Arial" font-size="10.00" fill="#1a1a1a">line</text>
</g>
<!-- attr_3 -->
<g id="node7" class="node">
<title>attr_3</title>
<path fill="#c7b8e6" stroke="#7f8c8d" stroke-width="1.2" d="M577.75,-198C577.75,-198 452.25,-198 452.25,-198 446.25,-198 440.25,-192 440.25,-186 440.25,-186 440.25,-174 440.25,-174 440.25,-168 446.25,-162 452.25,-162 452.25,-162 577.75,-162 577.75,-162 583.75,-162 589.75,-168 589.75,-174 589.75,-174 589.75,-186 589.75,-186 589.75,-192 583.75,-198 577.75,-198"/>
<text xml:space="preserve" text-anchor="middle" x="515" y="-176.5" font-family="Arial" font-size="10.00" fill="#1a1a1a">(+) multiple overlapping curves</text>
</g>
<!-- mark.line&#45;&gt;attr_3 -->
<g id="edge1" class="edge">
<title>mark.line&#45;&gt;attr_3</title>
<path fill="none" stroke="#aaaaaa" d="M380.99,-180C395.08,-180 413.22,-180 431.54,-180"/>
<polygon fill="#aaaaaa" stroke="#aaaaaa" points="431.44,-182.45 438.44,-180 431.44,-177.55 431.44,-182.45"/>
</g>
<!-- unknown.data_point -->
<g id="node2" class="node">
<title>unknown.data_point</title>
<path fill="#b8e6b8" stroke="#2c3e50" stroke-width="1.8" d="M55,-458C55,-458 20.25,-458 20.25,-458 14.25,-458 8.25,-452 8.25,-446 8.25,-446 8.25,-434 8.25,-434 8.25,-428 14.25,-422 20.25,-422 20.25,-422 55,-422 55,-422 61,-422 67,-428 67,-434 67,-434 67,-446 67,-446 67,-452 61,-458 55,-458"/>
<text xml:space="preserve" text-anchor="middle" x="37.62" y="-436.5" font-family="Arial" font-size="10.00" fill="#1a1a1a">data point</text>
</g>
<!-- attr_0 -->
<g id="node8" class="node">
<title>attr_0</title>
<path fill="#c7b8e6" stroke="#7f8c8d" stroke-width="1.2" d="M242.62,-491C242.62,-491 141.88,-491 141.88,-491 135.88,-491 129.88,-485 129.88,-479 129.88,-479 129.88,-467 129.88,-467 129.88,-461 135.88,-455 141.88,-455 141.88,-455 242.62,-455 242.62,-455 248.62,-455 254.62,-461 254.62,-467 254.62,-467 254.62,-479 254.62,-479 254.62,-485 248.62,-491 242.62,-491"/>
<text xml:space="preserve" text-anchor="middle" x="192.25" y="-469.5" font-family="Arial" font-size="10.00" fill="#1a1a1a">(+) numerous data points</text>
</g>
<!-- unknown.data_point&#45;&gt;attr_0 -->
<g id="edge2" class="edge">
<title>unknown.data_point&#45;&gt;attr_0</title>
<path fill="none" stroke="#aaaaaa" d="M67.69,-446.28C82.91,-449.58 102.26,-453.76 121.11,-457.83"/>
<polygon fill="#aaaaaa" stroke="#aaaaaa" points="120.59,-460.23 127.95,-459.31 121.62,-455.44 120.59,-460.23"/>
</g>
<!-- rel_2 -->
<g id="node16" class="node">
<title>rel_2</title>
<path fill="#f5b8b8" stroke="#d46a6a" stroke-width="1.2" d="M214.5,-426C214.5,-426 170,-426 170,-426 164,-426 158,-420 158,-414 158,-414 158,-402 158,-402 158,-396 164,-390 170,-390 170,-390 214.5,-390 214.5,-390 220.5,-390 226.5,-396 226.5,-402 226.5,-402 226.5,-414 226.5,-414 226.5,-420 220.5,-426 214.5,-426"/>
<text xml:space="preserve" text-anchor="middle" x="192.25" y="-404.5" font-family="Arial" font-size="10.00" fill="#8b0000">overwhelms</text>
</g>
<!-- unknown.data_point&#45;&gt;rel_2 -->
<g id="edge14" class="edge">
<title>unknown.data_point&#45;&gt;rel_2</title>
<path fill="none" stroke="#d46a6a" stroke-width="1.5" d="M67.69,-433.91C90.29,-429.17 122.01,-422.52 147.65,-417.14"/>
<polygon fill="#d46a6a" stroke="#d46a6a" stroke-width="1.5" points="148.02,-419.92 155.28,-415.54 146.88,-414.44 148.02,-419.92"/>
</g>
<!-- unknown.shape_marker -->
<g id="node3" class="node">
<title>unknown.shape_marker</title>
<path fill="#b8e6b8" stroke="#2c3e50" stroke-width="1.8" d="M63.25,-328C63.25,-328 12,-328 12,-328 6,-328 0,-322 0,-316 0,-316 0,-304 0,-304 0,-298 6,-292 12,-292 12,-292 63.25,-292 63.25,-292 69.25,-292 75.25,-298 75.25,-304 75.25,-304 75.25,-316 75.25,-316 75.25,-322 69.25,-328 63.25,-328"/>
<text xml:space="preserve" text-anchor="middle" x="37.62" y="-306.5" font-family="Arial" font-size="10.00" fill="#1a1a1a">shape marker</text>
</g>
<!-- attr_1 -->
<g id="node9" class="node">
<title>attr_1</title>
<path fill="#c7b8e6" stroke="#7f8c8d" stroke-width="1.2" d="M246,-361C246,-361 138.5,-361 138.5,-361 132.5,-361 126.5,-355 126.5,-349 126.5,-349 126.5,-337 126.5,-337 126.5,-331 132.5,-325 138.5,-325 138.5,-325 246,-325 246,-325 252,-325 258,-331 258,-337 258,-337 258,-349 258,-349 258,-355 252,-361 246,-361"/>
<text xml:space="preserve" text-anchor="middle" x="192.25" y="-339.5" font-family="Arial" font-size="10.00" fill="#1a1a1a">(+) varied complex shapes</text>
</g>
<!-- unknown.shape_marker&#45;&gt;attr_1 -->
<g id="edge3" class="edge">
<title>unknown.shape_marker&#45;&gt;attr_1</title>
<path fill="none" stroke="#aaaaaa" d="M75.96,-318.07C88.69,-320.83 103.41,-324.01 117.97,-327.16"/>
<polygon fill="#aaaaaa" stroke="#aaaaaa" points="117.19,-329.49 124.55,-328.58 118.23,-324.71 117.19,-329.49"/>
</g>
<!-- rel_0 -->
<g id="node14" class="node">
<title>rel_0</title>
<path fill="#f5b8b8" stroke="#d46a6a" stroke-width="1.2" d="M248.62,-296C248.62,-296 135.88,-296 135.88,-296 129.88,-296 123.88,-290 123.88,-284 123.88,-284 123.88,-272 123.88,-272 123.88,-266 129.88,-260 135.88,-260 135.88,-260 248.62,-260 248.62,-260 254.62,-260 260.62,-266 260.62,-272 260.62,-272 260.62,-284 260.62,-284 260.62,-290 254.62,-296 248.62,-296"/>
<text xml:space="preserve" text-anchor="middle" x="192.25" y="-274.5" font-family="Arial" font-size="10.00" fill="#8b0000">increases visual complexity</text>
</g>
<!-- unknown.shape_marker&#45;&gt;rel_0 -->
<g id="edge10" class="edge">
<title>unknown.shape_marker&#45;&gt;rel_0</title>
<path fill="none" stroke="#d46a6a" stroke-width="1.5" d="M75.96,-302.17C87.35,-299.78 100.33,-297.06 113.37,-294.33"/>
<polygon fill="#d46a6a" stroke="#d46a6a" stroke-width="1.5" points="113.85,-297.09 121.1,-292.71 112.7,-291.61 113.85,-297.09"/>
</g>
<!-- furniture.legend -->
<g id="node4" class="node">
<title>furniture.legend</title>
<path fill="#b8e6b8" stroke="#2c3e50" stroke-width="1.8" d="M52.62,-166C52.62,-166 22.62,-166 22.62,-166 16.62,-166 10.62,-160 10.62,-154 10.62,-154 10.62,-142 10.62,-142 10.62,-136 16.62,-130 22.62,-130 22.62,-130 52.62,-130 52.62,-130 58.62,-130 64.62,-136 64.62,-142 64.62,-142 64.62,-154 64.62,-154 64.62,-160 58.62,-166 52.62,-166"/>
<text xml:space="preserve" text-anchor="middle" x="37.62" y="-144.5" font-family="Arial" font-size="10.00" fill="#1a1a1a">legend</text>
</g>
<!-- attr_2 -->
<g id="node10" class="node">
<title>attr_2</title>
<path fill="#c7b8e6" stroke="#7f8c8d" stroke-width="1.2" d="M232.88,-231C232.88,-231 151.62,-231 151.62,-231 145.62,-231 139.62,-225 139.62,-219 139.62,-219 139.62,-207 139.62,-207 139.62,-201 145.62,-195 151.62,-195 151.62,-195 232.88,-195 232.88,-195 238.88,-195 244.88,-201 244.88,-207 244.88,-207 244.88,-219 244.88,-219 244.88,-225 238.88,-231 232.88,-231"/>
<text xml:space="preserve" text-anchor="middle" x="192.25" y="-209.5" font-family="Arial" font-size="10.00" fill="#1a1a1a">(+) high color variety</text>
</g>
<!-- furniture.legend&#45;&gt;attr_2 -->
<g id="edge4" class="edge">
<title>furniture.legend&#45;&gt;attr_2</title>
<path fill="none" stroke="#aaaaaa" d="M65.21,-150.84C91.55,-159.05 131.9,-176.06 159.81,-190.62"/>
<polygon fill="#aaaaaa" stroke="#aaaaaa" points="158.32,-192.6 165.65,-193.74 160.63,-188.28 158.32,-192.6"/>
</g>
<!-- furniture.legend&#45;&gt;attr_2 -->
<g id="edge6" class="edge">
<title>furniture.legend&#45;&gt;attr_2</title>
<path fill="none" stroke="#aaaaaa" d="M63.49,-166.87C81.85,-176.93 107.66,-188.71 131.28,-198.11"/>
<polygon fill="#aaaaaa" stroke="#aaaaaa" points="130.37,-200.38 137.78,-200.65 132.15,-195.82 130.37,-200.38"/>
</g>
<!-- attr_5 -->
<g id="node11" class="node">
<title>attr_5</title>
<path fill="#c7b8e6" stroke="#7f8c8d" stroke-width="1.2" d="M254.25,-166C254.25,-166 130.25,-166 130.25,-166 124.25,-166 118.25,-160 118.25,-154 118.25,-154 118.25,-142 118.25,-142 118.25,-136 124.25,-130 130.25,-130 130.25,-130 254.25,-130 254.25,-130 260.25,-130 266.25,-136 266.25,-142 266.25,-142 266.25,-154 266.25,-154 266.25,-160 260.25,-166 254.25,-166"/>
<text xml:space="preserve" text-anchor="middle" x="192.25" y="-144.5" font-family="Arial" font-size="10.00" fill="#1a1a1a">(+) requires referencing legend</text>
</g>
<!-- furniture.legend&#45;&gt;attr_5 -->
<g id="edge5" class="edge">
<title>furniture.legend&#45;&gt;attr_5</title>
<path fill="none" stroke="#aaaaaa" d="M65.21,-139.51C77.72,-138.09 93.39,-137.3 109.38,-137.15"/>
<polygon fill="#aaaaaa" stroke="#aaaaaa" points="109.25,-139.6 116.25,-137.14 109.24,-134.7 109.25,-139.6"/>
</g>
<!-- furniture.legend&#45;&gt;attr_5 -->
<g id="edge7" class="edge">
<title>furniture.legend&#45;&gt;attr_5</title>
<path fill="none" stroke="#aaaaaa" d="M65.21,-156.49C77.72,-157.91 93.39,-158.7 109.38,-158.85"/>
<polygon fill="#aaaaaa" stroke="#aaaaaa" points="109.24,-161.3 116.25,-158.86 109.25,-156.4 109.24,-161.3"/>
</g>
<!-- rel_1 -->
<g id="node15" class="node">
<title>rel_1</title>
<path fill="#f5b8b8" stroke="#d46a6a" stroke-width="1.2" d="M216,-101C216,-101 168.5,-101 168.5,-101 162.5,-101 156.5,-95 156.5,-89 156.5,-89 156.5,-77 156.5,-77 156.5,-71 162.5,-65 168.5,-65 168.5,-65 216,-65 216,-65 222,-65 228,-71 228,-77 228,-77 228,-89 228,-89 228,-95 222,-101 216,-101"/>
<text xml:space="preserve" text-anchor="middle" x="192.25" y="-79.5" font-family="Arial" font-size="10.00" fill="#8b0000">differentiates</text>
</g>
<!-- furniture.legend&#45;&gt;rel_1 -->
<g id="edge12" class="edge">
<title>furniture.legend&#45;&gt;rel_1</title>
<path fill="none" stroke="#d46a6a" stroke-width="1.5" d="M65.21,-136.68C87.65,-127.12 120.25,-113.24 146.67,-101.98"/>
<polygon fill="#d46a6a" stroke="#d46a6a" stroke-width="1.5" points="147.75,-104.57 154.01,-98.86 145.55,-99.42 147.75,-104.57"/>
</g>
<!-- rel_4 -->
<g id="node18" class="node">
<title>rel_4</title>
<path fill="#f5b8b8" stroke="#d46a6a" stroke-width="1.2" d="M214.5,-36C214.5,-36 170,-36 170,-36 164,-36 158,-30 158,-24 158,-24 158,-12 158,-12 158,-6 164,0 170,0 170,0 214.5,0 214.5,0 220.5,0 226.5,-6 226.5,-12 226.5,-12 226.5,-24 226.5,-24 226.5,-30 220.5,-36 214.5,-36"/>
<text xml:space="preserve" text-anchor="middle" x="192.25" y="-14.5" font-family="Arial" font-size="10.00" fill="#8b0000">encodes via</text>
</g>
<!-- furniture.legend&#45;&gt;rel_4 -->
<g id="edge18" class="edge">
<title>furniture.legend&#45;&gt;rel_4</title>
<path fill="none" stroke="#d46a6a" stroke-width="1.5" d="M44.6,-129.49C56.43,-103.82 84.59,-61.13 118.25,-35.5 127.18,-28.7 137.79,-22.99 148.11,-18.83"/>
<polygon fill="#d46a6a" stroke="#d46a6a" stroke-width="1.5" points="148.74,-21.58 155.32,-16.23 146.84,-16.31 148.74,-21.58"/>
</g>
<!-- text.axis_label -->
<g id="node5" class="node">
<title>text.axis_label</title>
<path fill="#b8e6b8" stroke="#2c3e50" stroke-width="1.8" d="M678,-393C678,-393 644.75,-393 644.75,-393 638.75,-393 632.75,-387 632.75,-381 632.75,-381 632.75,-369 632.75,-369 632.75,-363 638.75,-357 644.75,-357 644.75,-357 678,-357 678,-357 684,-357 690,-363 690,-369 690,-369 690,-381 690,-381 690,-387 684,-393 678,-393"/>
<text xml:space="preserve" text-anchor="middle" x="661.38" y="-371.5" font-family="Arial" font-size="10.00" fill="#1a1a1a">axis label</text>
</g>
<!-- attr_6 -->
<g id="node12" class="node">
<title>attr_6</title>
<path fill="#c7b8e6" stroke="#7f8c8d" stroke-width="1.2" d="M866,-393C866,-393 745,-393 745,-393 739,-393 733,-387 733,-381 733,-381 733,-369 733,-369 733,-363 739,-357 745,-357 745,-357 866,-357 866,-357 872,-357 878,-363 878,-369 878,-369 878,-381 878,-381 878,-387 872,-393 866,-393"/>
<text xml:space="preserve" text-anchor="middle" x="805.5" y="-371.5" font-family="Arial" font-size="10.00" fill="#1a1a1a">(+) moderate label complexity</text>
</g>
<!-- text.axis_label&#45;&gt;attr_6 -->
<g id="edge8" class="edge">
<title>text.axis_label&#45;&gt;attr_6</title>
<path fill="none" stroke="#aaaaaa" d="M690.79,-375C700.67,-375 712.28,-375 724.25,-375"/>
<polygon fill="#aaaaaa" stroke="#aaaaaa" points="724.06,-377.45 731.06,-375 724.06,-372.55 724.06,-377.45"/>
</g>
<!-- unknown.information_layer -->
<g id="node6" class="node">
<title>unknown.information_layer</title>
<path fill="#b8e6b8" stroke="#2c3e50" stroke-width="1.8" d="M385.25,-426C385.25,-426 321.25,-426 321.25,-426 315.25,-426 309.25,-420 309.25,-414 309.25,-414 309.25,-402 309.25,-402 309.25,-396 315.25,-390 321.25,-390 321.25,-390 385.25,-390 385.25,-390 391.25,-390 397.25,-396 397.25,-402 397.25,-402 397.25,-414 397.25,-414 397.25,-420 391.25,-426 385.25,-426"/>
<text xml:space="preserve" text-anchor="middle" x="353.25" y="-404.5" font-family="Arial" font-size="10.00" fill="#1a1a1a">information layer</text>
</g>
<!-- attr_4 -->
<g id="node13" class="node">
<title>attr_4</title>
<path fill="#c7b8e6" stroke="#7f8c8d" stroke-width="1.2" d="M574.38,-458C574.38,-458 455.62,-458 455.62,-458 449.62,-458 443.62,-452 443.62,-446 443.62,-446 443.62,-434 443.62,-434 443.62,-428 449.62,-422 455.62,-422 455.62,-422 574.38,-422 574.38,-422 580.38,-422 586.38,-428 586.38,-434 586.38,-434 586.38,-446 586.38,-446 586.38,-452 580.38,-458 574.38,-458"/>
<text xml:space="preserve" text-anchor="middle" x="515" y="-436.5" font-family="Arial" font-size="10.00" fill="#1a1a1a">(+) dense layered information</text>
</g>
<!-- unknown.information_layer&#45;&gt;attr_4 -->
<g id="edge9" class="edge">
<title>unknown.information_layer&#45;&gt;attr_4</title>
<path fill="none" stroke="#aaaaaa" d="M397.9,-416.74C409.35,-419.04 422.05,-421.58 434.73,-424.12"/>
<polygon fill="#aaaaaa" stroke="#aaaaaa" points="434.22,-426.52 441.56,-425.49 435.18,-421.71 434.22,-426.52"/>
</g>
<!-- rel_3 -->
<g id="node17" class="node">
<title>rel_3</title>
<path fill="#f5b8b8" stroke="#d46a6a" stroke-width="1.2" d="M556.75,-393C556.75,-393 473.25,-393 473.25,-393 467.25,-393 461.25,-387 461.25,-381 461.25,-381 461.25,-369 461.25,-369 461.25,-363 467.25,-357 473.25,-357 473.25,-357 556.75,-357 556.75,-357 562.75,-357 568.75,-363 568.75,-369 568.75,-369 568.75,-381 568.75,-381 568.75,-387 562.75,-393 556.75,-393"/>
<text xml:space="preserve" text-anchor="middle" x="515" y="-371.5" font-family="Arial" font-size="10.00" fill="#8b0000">requires expertise for</text>
</g>
<!-- unknown.information_layer&#45;&gt;rel_3 -->
<g id="edge16" class="edge">
<title>unknown.information_layer&#45;&gt;rel_3</title>
<path fill="none" stroke="#d46a6a" stroke-width="1.5" d="M397.9,-398.98C414.27,-395.6 433.21,-391.69 450.99,-388.02"/>
<polygon fill="#d46a6a" stroke="#d46a6a" stroke-width="1.5" points="451.23,-390.83 458.5,-386.47 450.1,-385.34 451.23,-390.83"/>
</g>
<!-- rel_0&#45;&gt;mark.line -->
<g id="edge11" class="edge">
<title>rel_0&#45;&gt;mark.line</title>
<path fill="none" stroke="#d46a6a" stroke-width="1.5" d="M240.04,-259.5C248.94,-255.42 258.03,-250.86 266.25,-246 286.44,-234.07 307.35,-218.11 323.5,-204.88"/>
<polygon fill="#d46a6a" stroke="#d46a6a" stroke-width="1.5" points="324.91,-207.35 329.27,-200.08 321.33,-203.04 324.91,-207.35"/>
</g>
<!-- rel_1&#45;&gt;mark.line -->
<g id="edge13" class="edge">
<title>rel_1&#45;&gt;mark.line</title>
<path fill="none" stroke="#d46a6a" stroke-width="1.5" d="M228.24,-96.37C240.56,-101.59 254.31,-108 266.25,-115 286.05,-126.61 306.61,-142.01 322.67,-154.9"/>
<polygon fill="#d46a6a" stroke="#d46a6a" stroke-width="1.5" points="320.89,-157.07 328.86,-159.95 324.43,-152.73 320.89,-157.07"/>
</g>
<!-- rel_2&#45;&gt;unknown.information_layer -->
<g id="edge15" class="edge">
<title>rel_2&#45;&gt;unknown.information_layer</title>
<path fill="none" stroke="#d46a6a" stroke-width="1.5" d="M226.97,-408C247.7,-408 274.72,-408 298.36,-408"/>
<polygon fill="#d46a6a" stroke="#d46a6a" stroke-width="1.5" points="298.33,-410.8 306.33,-408 298.33,-405.2 298.33,-410.8"/>
</g>
<!-- rel_3&#45;&gt;text.axis_label -->
<g id="edge17" class="edge">
<title>rel_3&#45;&gt;text.axis_label</title>
<path fill="none" stroke="#d46a6a" stroke-width="1.5" d="M569.35,-375C586.75,-375 605.71,-375 621.8,-375"/>
<polygon fill="#d46a6a" stroke="#d46a6a" stroke-width="1.5" points="621.65,-377.8 629.65,-375 621.65,-372.2 621.65,-377.8"/>
</g>
<!-- rel_4&#45;&gt;furniture.legend -->
<g id="edge19" class="edge">
<title>rel_4&#45;&gt;furniture.legend</title>
<path fill="none" stroke="#d46a6a" stroke-width="1.5" d="M169.69,-36.49C154.34,-44.17 133.77,-52.68 118.25,-64.5 97.08,-80.62 78.08,-103.5 63.95,-121.54"/>
<polygon fill="#d46a6a" stroke="#d46a6a" stroke-width="1.5" points="61.9,-119.62 59.21,-127.66 66.32,-123.05 61.9,-119.62"/>
</g>
</g>
</svg>
