<?xml version="1.0" encoding="UTF-8" standalone="no"?>
<!DOCTYPE svg PUBLIC "-//W3C//DTD SVG 1.1//EN"
 "http://www.w3.org/Graphics/SVG/1.1/DTD/svg11.dtd">
<!-- Generated by graphviz version 14.1.5 (20260411.2331)
 -->
<!-- Title: VASTC.115.5.png Pages: 1 -->
<svg width="793pt" height="407pt"
 viewBox="0.00 0.00 793.00 407.00" xmlns="http://www.w3.org/2000/svg" xmlns:xlink="http://www.w3.org/1999/xlink">
<g id="graph0" class="graph" transform="scale(1 1) rotate(0) translate(4 403.25)">
<title>VASTC.115.5.png</title>
<polygon fill="white" stroke="none" points="-4,4 -4,-403.25 788.75,-403.25 788.75,4 -4,4"/>
<text xml:space="preserve" text-anchor="start" x="337.25" y="-378.95" font-family="Arial" font-weight="bold" font-size="14.00">VASTC.115.5.png</text>
<text xml:space="preserve" text-anchor="start" x="350" y="-359" font-family="Arial" font-size="11.00">Grid &#160;| &#160;VC = 0.91</text>
<path fill="#b8e6b8" stroke="none" d="M183,-334C183,-334 191,-334 191,-334 194,-334 197,-337 197,-340 197,-340 197,-346 197,-346 197,-349 194,-352 191,-352 191,-352 183,-352 183,-352 180,-352 177,-349 177,-346 177,-346 177,-340 177,-340 177,-337 180,-334 183,-334"/>
<path fill="none" stroke="black" d="M183,-334C183,-334 191,-334 191,-334 194,-334 197,-337 197,-340 197,-340 197,-346 197,-346 197,-349 194,-352 191,-352 191,-352 183,-352 183,-352 180,-352 177,-349 177,-346 177,-346 177,-340 177,-340 177,-337 180,-334 183,-334"/>
<text xml:space="preserve" text-anchor="start" x="185.5" y="-339.25" font-family="Arial" font-size="10.00"> </text>
<text xml:space="preserve" text-anchor="start" x="201" y="-339.25" font-family="Arial" font-size="10.00">Object</text>
<path fill="#c7b8e6" stroke="none" d="M239.5,-334C239.5,-334 247.5,-334 247.5,-334 250.5,-334 253.5,-337 253.5,-340 253.5,-340 253.5,-346 253.5,-346 253.5,-349 250.5,-352 247.5,-352 247.5,-352 239.5,-352 239.5,-352 236.5,-352 233.5,-349 233.5,-346 233.5,-346 233.5,-340 233.5,-340 233.5,-337 236.5,-334 239.5,-334"/>
<path fill="none" stroke="black" d="M239.5,-334C239.5,-334 247.5,-334 247.5,-334 250.5,-334 253.5,-337 253.5,-340 253.5,-340 253.5,-346 253.5,-346 253.5,-349 250.5,-352 247.5,-352 247.5,-352 239.5,-352 239.5,-352 236.5,-352 233.5,-349 233.5,-346 233.5,-346 233.5,-340 233.5,-340 233.5,-337 236.5,-334 239.5,-334"/>
<text xml:space="preserve" text-anchor="start" x="242" y="-339.25" font-family="Arial" font-size="10.00"> </text>
<text xml:space="preserve" text-anchor="start" x="257.5" y="-339.25" font-family="Arial" font-size="10.00">Attribute</text>
<path fill="#f5b8b8" stroke="none" d="M304.25,-334C304.25,-334 312.25,-334 312.25,-334 315.25,-334 318.25,-337 318.25,-340 318.25,-340 318.25,-346 318.25,-346 318.25,-349 315.25,-352 312.25,-352 312.25,-352 304.25,-352 304.25,-352 301.25,-352 298.25,-349 298.25,-346 298.25,-346 298.25,-340 298.25,-340 298.25,-337 301.25,-334 304.25,-334"/>
<path fill="none" stroke="black" d="M304.25,-334C304.25,-334 312.25,-334 312.25,-334 315.25,-334 318.25,-337 318.25,-340 318.25,-340 318.25,-346 318.25,-346 318.25,-349 315.25,-352 312.25,-352 312.25,-352 304.25,-352 304.25,-352 301.25,-352 298.25,-349 298.25,-346 298.25,-346 298.25,-340 298.25,-340 298.25,-337 301.25,-334 304.25,-334"/>
<text xml:space="preserve" text-anchor="start" x="306.75" y="-339.25" font-family="Arial" font-size="10.00"> </text>
<text xml:space="preserve" text-anchor="start" x="322.25" y="-339.25" font-family="Arial" font-size="10.00">Relationship</text>
<text xml:space="preserve" text-anchor="start" x="382.25" y="-340.5" font-family="Arial" font-weight="bold" font-size="10.00">(+)</text>
<text xml:space="preserve" text-anchor="start" x="394.25" y="-340.5" font-family="Arial" font-size="10.00"> increases complexity</text>
<text xml:space="preserve" text-anchor="start" x="495.5" y="-340.5" font-family="Arial" font-weight="bold" font-size="10.00">(−)</text>
<text xml:space="preserve" text-anchor="start" x="507.5" y="-340.5" font-family="Arial" font-size="10.00"> decreases complexity</text>
<!-- unknown.subplots -->
<g id="node1" class="node">
<title>unknown.subplots</title>
<path fill="#b8e6b8" stroke="#2c3e50" stroke-width="1.8" d="M42,-295C42,-295 12,-295 12,-295 6,-295 0,-289 0,-283 0,-283 0,-271 0,-271 0,-265 6,-259 12,-259 12,-259 42,-259 42,-259 48,-259 54,-265 54,-271 54,-271 54,-283 54,-283 54,-289 48,-295 42,-295"/>
<text xml:space="preserve" text-anchor="middle" x="27" y="-273.5" font-family="Arial" font-size="10.00" fill="#1a1a1a">subplots</text>
</g>
<!-- attr_0 -->
<g id="node6" class="node">
<title>attr_0</title>
<path fill="#c7b8e6" stroke="#7f8c8d" stroke-width="1.2" d="M219.5,-328C219.5,-328 109,-328 109,-328 103,-328 97,-322 97,-316 97,-316 97,-304 97,-304 97,-298 103,-292 109,-292 109,-292 219.5,-292 219.5,-292 225.5,-292 231.5,-298 231.5,-304 231.5,-304 231.5,-316 231.5,-316 231.5,-322 225.5,-328 219.5,-328"/>
<text xml:space="preserve" text-anchor="middle" x="164.25" y="-306.5" font-family="Arial" font-size="10.00" fill="#1a1a1a">(+) multiple images present</text>
</g>
<!-- unknown.subplots&#45;&gt;attr_0 -->
<g id="edge1" class="edge">
<title>unknown.subplots&#45;&gt;attr_0</title>
<path fill="none" stroke="#aaaaaa" d="M54.72,-283.52C64.64,-285.94 76.43,-288.82 88.53,-291.77"/>
<polygon fill="#aaaaaa" stroke="#aaaaaa" points="87.66,-294.08 95.04,-293.36 88.82,-289.32 87.66,-294.08"/>
</g>
<!-- rel_0 -->
<g id="node11" class="node">
<title>rel_0</title>
<path fill="#f5b8b8" stroke="#d46a6a" stroke-width="1.2" d="M181.25,-263C181.25,-263 147.25,-263 147.25,-263 141.25,-263 135.25,-257 135.25,-251 135.25,-251 135.25,-239 135.25,-239 135.25,-233 141.25,-227 147.25,-227 147.25,-227 181.25,-227 181.25,-227 187.25,-227 193.25,-233 193.25,-239 193.25,-239 193.25,-251 193.25,-251 193.25,-257 187.25,-263 181.25,-263"/>
<text xml:space="preserve" text-anchor="middle" x="164.25" y="-241.5" font-family="Arial" font-size="10.00" fill="#8b0000">increases</text>
</g>
<!-- unknown.subplots&#45;&gt;rel_0 -->
<g id="edge6" class="edge">
<title>unknown.subplots&#45;&gt;rel_0</title>
<path fill="none" stroke="#d46a6a" stroke-width="1.5" d="M54.72,-270.68C74.75,-265.94 102.44,-259.39 124.84,-254.09"/>
<polygon fill="#d46a6a" stroke="#d46a6a" stroke-width="1.5" points="125.37,-256.84 132.51,-252.27 124.08,-251.39 125.37,-256.84"/>
</g>
<!-- unknown.shapes -->
<g id="node2" class="node">
<title>unknown.shapes</title>
<path fill="#b8e6b8" stroke="#2c3e50" stroke-width="1.8" d="M42,-166C42,-166 12,-166 12,-166 6,-166 0,-160 0,-154 0,-154 0,-142 0,-142 0,-136 6,-130 12,-130 12,-130 42,-130 42,-130 48,-130 54,-136 54,-142 54,-142 54,-154 54,-154 54,-160 48,-166 42,-166"/>
<text xml:space="preserve" text-anchor="middle" x="27" y="-144.5" font-family="Arial" font-size="10.00" fill="#1a1a1a">shapes</text>
</g>
<!-- attr_1 -->
<g id="node7" class="node">
<title>attr_1</title>
<path fill="#c7b8e6" stroke="#7f8c8d" stroke-width="1.2" d="M216.5,-198C216.5,-198 112,-198 112,-198 106,-198 100,-192 100,-186 100,-186 100,-174 100,-174 100,-168 106,-162 112,-162 112,-162 216.5,-162 216.5,-162 222.5,-162 228.5,-168 228.5,-174 228.5,-174 228.5,-186 228.5,-186 228.5,-192 222.5,-198 216.5,-198"/>
<text xml:space="preserve" text-anchor="middle" x="164.25" y="-176.5" font-family="Arial" font-size="10.00" fill="#1a1a1a">(+) multiple varied shapes</text>
</g>
<!-- unknown.shapes&#45;&gt;attr_1 -->
<g id="edge2" class="edge">
<title>unknown.shapes&#45;&gt;attr_1</title>
<path fill="none" stroke="#aaaaaa" d="M54.72,-154.32C65.43,-156.86 78.33,-159.91 91.45,-163.01"/>
<polygon fill="#aaaaaa" stroke="#aaaaaa" points="90.77,-165.37 98.15,-164.6 91.9,-160.6 90.77,-165.37"/>
</g>
<!-- rel_2 -->
<g id="node13" class="node">
<title>rel_2</title>
<path fill="#f5b8b8" stroke="#d46a6a" stroke-width="1.2" d="M189.88,-133C189.88,-133 138.62,-133 138.62,-133 132.62,-133 126.62,-127 126.62,-121 126.62,-121 126.62,-109 126.62,-109 126.62,-103 132.62,-97 138.62,-97 138.62,-97 189.88,-97 189.88,-97 195.88,-97 201.88,-103 201.88,-109 201.88,-109 201.88,-121 201.88,-121 201.88,-127 195.88,-133 189.88,-133"/>
<text xml:space="preserve" text-anchor="middle" x="164.25" y="-111.5" font-family="Arial" font-size="10.00" fill="#8b0000">contributes to</text>
</g>
<!-- unknown.shapes&#45;&gt;rel_2 -->
<g id="edge10" class="edge">
<title>unknown.shapes&#45;&gt;rel_2</title>
<path fill="none" stroke="#d46a6a" stroke-width="1.5" d="M54.72,-141.48C72.25,-137.2 95.66,-131.49 116.25,-126.47"/>
<polygon fill="#d46a6a" stroke="#d46a6a" stroke-width="1.5" points="116.78,-129.22 123.88,-124.61 115.45,-123.78 116.78,-129.22"/>
</g>
<!-- property.color -->
<g id="node3" class="node">
<title>property.color</title>
<path fill="#b8e6b8" stroke="#2c3e50" stroke-width="1.8" d="M320,-69C320,-69 290,-69 290,-69 284,-69 278,-63 278,-57 278,-57 278,-45 278,-45 278,-39 284,-33 290,-33 290,-33 320,-33 320,-33 326,-33 332,-39 332,-45 332,-45 332,-57 332,-57 332,-63 326,-69 320,-69"/>
<text xml:space="preserve" text-anchor="middle" x="305" y="-47.5" font-family="Arial" font-size="10.00" fill="#1a1a1a">color</text>
</g>
<!-- attr_2 -->
<g id="node8" class="node">
<title>attr_2</title>
<path fill="#c7b8e6" stroke="#7f8c8d" stroke-width="1.2" d="M492,-101C492,-101 398,-101 398,-101 392,-101 386,-95 386,-89 386,-89 386,-77 386,-77 386,-71 392,-65 398,-65 398,-65 492,-65 492,-65 498,-65 504,-71 504,-77 504,-77 504,-89 504,-89 504,-95 498,-101 492,-101"/>
<text xml:space="preserve" text-anchor="middle" x="445" y="-79.5" font-family="Arial" font-size="10.00" fill="#1a1a1a">(+) multiple colors used</text>
</g>
<!-- property.color&#45;&gt;attr_2 -->
<g id="edge3" class="edge">
<title>property.color&#45;&gt;attr_2</title>
<path fill="none" stroke="#aaaaaa" d="M332.61,-57.17C345.41,-60.14 361.4,-63.85 377.23,-67.52"/>
<polygon fill="#aaaaaa" stroke="#aaaaaa" points="376.63,-69.89 384,-69.09 377.74,-65.12 376.63,-69.89"/>
</g>
<!-- rel_1 -->
<g id="node12" class="node">
<title>rel_1</title>
<path fill="#f5b8b8" stroke="#d46a6a" stroke-width="1.2" d="M467.25,-36C467.25,-36 422.75,-36 422.75,-36 416.75,-36 410.75,-30 410.75,-24 410.75,-24 410.75,-12 410.75,-12 410.75,-6 416.75,0 422.75,0 422.75,0 467.25,0 467.25,0 473.25,0 479.25,-6 479.25,-12 479.25,-12 479.25,-24 479.25,-24 479.25,-30 473.25,-36 467.25,-36"/>
<text xml:space="preserve" text-anchor="middle" x="445" y="-14.5" font-family="Arial" font-size="10.00" fill="#8b0000">overwhelms</text>
</g>
<!-- property.color&#45;&gt;rel_1 -->
<g id="edge8" class="edge">
<title>property.color&#45;&gt;rel_1</title>
<path fill="none" stroke="#d46a6a" stroke-width="1.5" d="M332.61,-44.64C351.83,-40.04 378.22,-33.73 400.48,-28.41"/>
<polygon fill="#d46a6a" stroke="#d46a6a" stroke-width="1.5" points="401.05,-31.15 408.18,-26.57 399.74,-25.7 401.05,-31.15"/>
</g>
<!-- unknown.grid_layout -->
<g id="node4" class="node">
<title>unknown.grid_layout</title>
<path fill="#b8e6b8" stroke="#2c3e50" stroke-width="1.8" d="M323.5,-198C323.5,-198 286.5,-198 286.5,-198 280.5,-198 274.5,-192 274.5,-186 274.5,-186 274.5,-174 274.5,-174 274.5,-168 280.5,-162 286.5,-162 286.5,-162 323.5,-162 323.5,-162 329.5,-162 335.5,-168 335.5,-174 335.5,-174 335.5,-186 335.5,-186 335.5,-192 329.5,-198 323.5,-198"/>
<text xml:space="preserve" text-anchor="middle" x="305" y="-176.5" font-family="Arial" font-size="10.00" fill="#1a1a1a">grid layout</text>
</g>
<!-- attr_3 -->
<g id="node9" class="node">
<title>attr_3</title>
<path fill="#c7b8e6" stroke="#7f8c8d" stroke-width="1.2" d="M499.5,-231C499.5,-231 390.5,-231 390.5,-231 384.5,-231 378.5,-225 378.5,-219 378.5,-219 378.5,-207 378.5,-207 378.5,-201 384.5,-195 390.5,-195 390.5,-195 499.5,-195 499.5,-195 505.5,-195 511.5,-201 511.5,-207 511.5,-207 511.5,-219 511.5,-219 511.5,-225 505.5,-231 499.5,-231"/>
<text xml:space="preserve" text-anchor="middle" x="445" y="-209.5" font-family="Arial" font-size="10.00" fill="#1a1a1a">(+) dense grid arrangement</text>
</g>
<!-- unknown.grid_layout&#45;&gt;attr_3 -->
<g id="edge4" class="edge">
<title>unknown.grid_layout&#45;&gt;attr_3</title>
<path fill="none" stroke="#aaaaaa" d="M336.28,-187.24C346.34,-189.65 358.02,-192.44 369.9,-195.28"/>
<polygon fill="#aaaaaa" stroke="#aaaaaa" points="369.29,-197.65 376.67,-196.9 370.43,-192.89 369.29,-197.65"/>
</g>
<!-- rel_3 -->
<g id="node14" class="node">
<title>rel_3</title>
<path fill="#f5b8b8" stroke="#d46a6a" stroke-width="1.2" d="M477.75,-166C477.75,-166 412.25,-166 412.25,-166 406.25,-166 400.25,-160 400.25,-154 400.25,-154 400.25,-142 400.25,-142 400.25,-136 406.25,-130 412.25,-130 412.25,-130 477.75,-130 477.75,-130 483.75,-130 489.75,-136 489.75,-142 489.75,-142 489.75,-154 489.75,-154 489.75,-160 483.75,-166 477.75,-166"/>
<text xml:space="preserve" text-anchor="middle" x="445" y="-144.5" font-family="Arial" font-size="10.00" fill="#8b0000">requires effort for</text>
</g>
<!-- unknown.grid_layout&#45;&gt;rel_3 -->
<g id="edge12" class="edge">
<title>unknown.grid_layout&#45;&gt;rel_3</title>
<path fill="none" stroke="#d46a6a" stroke-width="1.5" d="M336.28,-172.98C352.02,-169.33 371.72,-164.76 389.96,-160.53"/>
<polygon fill="#d46a6a" stroke="#d46a6a" stroke-width="1.5" points="390.53,-163.27 397.69,-158.74 389.26,-157.82 390.53,-163.27"/>
</g>
<!-- unknown.global_pattern -->
<g id="node5" class="node">
<title>unknown.global_pattern</title>
<path fill="#b8e6b8" stroke="#2c3e50" stroke-width="1.8" d="M617,-101C617,-101 566.5,-101 566.5,-101 560.5,-101 554.5,-95 554.5,-89 554.5,-89 554.5,-77 554.5,-77 554.5,-71 560.5,-65 566.5,-65 566.5,-65 617,-65 617,-65 623,-65 629,-71 629,-77 629,-77 629,-89 629,-89 629,-95 623,-101 617,-101"/>
<text xml:space="preserve" text-anchor="middle" x="591.75" y="-79.5" font-family="Arial" font-size="10.00" fill="#1a1a1a">global pattern</text>
</g>
<!-- attr_4 -->
<g id="node10" class="node">
<title>attr_4</title>
<path fill="#c7b8e6" stroke="#7f8c8d" stroke-width="1.2" d="M772.75,-101C772.75,-101 684,-101 684,-101 678,-101 672,-95 672,-89 672,-89 672,-77 672,-77 672,-71 678,-65 684,-65 684,-65 772.75,-65 772.75,-65 778.75,-65 784.75,-71 784.75,-77 784.75,-77 784.75,-89 784.75,-89 784.75,-95 778.75,-101 772.75,-101"/>
<text xml:space="preserve" text-anchor="middle" x="728.38" y="-79.5" font-family="Arial" font-size="10.00" fill="#1a1a1a">(+) macro global scale</text>
</g>
<!-- unknown.global_pattern&#45;&gt;attr_4 -->
<g id="edge5" class="edge">
<title>unknown.global_pattern&#45;&gt;attr_4</title>
<path fill="none" stroke="#aaaaaa" d="M629.89,-83C640.23,-83 651.76,-83 663.17,-83"/>
<polygon fill="#aaaaaa" stroke="#aaaaaa" points="662.92,-85.45 669.92,-83 662.92,-80.55 662.92,-85.45"/>
</g>
<!-- rel_0&#45;&gt;unknown.grid_layout -->
<g id="edge7" class="edge">
<title>rel_0&#45;&gt;unknown.grid_layout</title>
<path fill="none" stroke="#d46a6a" stroke-width="1.5" d="M193.66,-231.69C214.15,-222.09 242.06,-209.02 264.69,-198.42"/>
<polygon fill="#d46a6a" stroke="#d46a6a" stroke-width="1.5" points="265.59,-201.09 271.65,-195.16 263.21,-196.02 265.59,-201.09"/>
</g>
<!-- rel_1&#45;&gt;unknown.global_pattern -->
<g id="edge9" class="edge">
<title>rel_1&#45;&gt;unknown.global_pattern</title>
<path fill="none" stroke="#d46a6a" stroke-width="1.5" d="M479.57,-33.08C498.92,-41.77 523.53,-52.82 544.67,-62.31"/>
<polygon fill="#d46a6a" stroke="#d46a6a" stroke-width="1.5" points="543.29,-64.76 551.73,-65.48 545.58,-59.65 543.29,-64.76"/>
</g>
<!-- rel_2&#45;&gt;unknown.grid_layout -->
<g id="edge11" class="edge">
<title>rel_2&#45;&gt;unknown.grid_layout</title>
<path fill="none" stroke="#d46a6a" stroke-width="1.5" d="M202.43,-132.42C221.61,-141.4 245,-152.36 264.51,-161.5"/>
<polygon fill="#d46a6a" stroke="#d46a6a" stroke-width="1.5" points="263.24,-164 271.67,-164.86 265.62,-158.93 263.24,-164"/>
</g>
<!-- rel_3&#45;&gt;unknown.global_pattern -->
<g id="edge13" class="edge">
<title>rel_3&#45;&gt;unknown.global_pattern</title>
<path fill="none" stroke="#d46a6a" stroke-width="1.5" d="M487.09,-129.55C505.11,-121.46 526.33,-111.93 544.87,-103.6"/>
<polygon fill="#d46a6a" stroke="#d46a6a" stroke-width="1.5" points="545.78,-106.26 551.93,-100.43 543.49,-101.15 545.78,-106.26"/>
</g>
</g>
</svg>
