<?xml version="1.0" encoding="UTF-8" standalone="no"?>
<!DOCTYPE svg PUBLIC "-//W3C//DTD SVG 1.1//EN"
 "http://www.w3.org/Graphics/SVG/1.1/DTD/svg11.dtd">
<!-- Generated by graphviz version 14.1.5 (20260411.2331)
 -->
<!-- Title: VASTC.115.2.png Pages: 1 -->
<svg width="763pt" height="505pt"
 viewBox="0.00 0.00 763.00 505.00" xmlns="http://www.w3.org/2000/svg" xmlns:xlink="http://www.w3.org/1999/xlink">
<g id="graph0" class="graph" transform="scale(1 1) rotate(0) translate(4 501.25)">
<title>VASTC.115.2.png</title>
<polygon fill="white" stroke="none" points="-4,4 -4,-501.25 759.25,-501.25 759.25,4 -4,4"/>
<text xml:space="preserve" text-anchor="start" x="322.5" y="-476.95" font-family="Arial" font-weight="bold" font-size="14.00">VASTC.115.2.png</text>
<text xml:space="preserve" text-anchor="start" x="335.25" y="-457" font-family="Arial" font-size="11.00">Grid &#160;| &#160;VC = 0.82</text>
<path fill="#b8e6b8" stroke="none" d="M168.25,-432C168.25,-432 176.25,-432 176.25,-432 179.25,-432 182.25,-435 182.25,-438 182.25,-438 182.25,-444 182.25,-444 182.25,-447 179.25,-450 176.25,-450 176.25,-450 168.25,-450 168.25,-450 165.25,-450 162.25,-447 162.25,-444 162.25,-444 162.25,-438 162.25,-438 162.25,-435 165.25,-432 168.25,-432"/>
<path fill="none" stroke="black" d="M168.25,-432C168.25,-432 176.25,-432 176.25,-432 179.25,-432 182.25,-435 182.25,-438 182.25,-438 182.25,-444 182.25,-444 182.25,-447 179.25,-450 176.25,-450 176.25,-450 168.25,-450 168.25,-450 165.25,-450 162.25,-447 162.25,-444 162.25,-444 162.25,-438 162.25,-438 162.25,-435 165.25,-432 168.25,-432"/>
<text xml:space="preserve" text-anchor="start" x="170.75" y="-437.25" font-family="Arial" font-size="10.00"> </text>
<text xml:space="preserve" text-anchor="start" x="186.25" y="-437.25" font-family="Arial" font-size="10.00">Object</text>
<path fill="#c7b8e6" stroke="none" d="M224.75,-432C224.75,-432 232.75,-432 232.75,-432 235.75,-432 238.75,-435 238.75,-438 238.75,-438 238.75,-444 238.75,-444 238.75,-447 235.75,-450 232.75,-450 232.75,-450 224.75,-450 224.75,-450 221.75,-450 218.75,-447 218.75,-444 218.75,-444 218.75,-438 218.75,-438 218.75,-435 221.75,-432 224.75,-432"/>
<path fill="none" stroke="black" d="M224.75,-432C224.75,-432 232.75,-432 232.75,-432 235.75,-432 238.75,-435 238.75,-438 238.75,-438 238.75,-444 238.75,-444 238.75,-447 235.75,-450 232.75,-450 232.75,-450 224.75,-450 224.75,-450 221.75,-450 218.75,-447 218.75,-444 218.75,-444 218.75,-438 218.75,-438 218.75,-435 221.75,-432 224.75,-432"/>
<text xml:space="preserve" text-anchor="start" x="227.25" y="-437.25" font-family="Arial" font-size="10.00"> </text>
<text xml:space="preserve" text-anchor="start" x="242.75" y="-437.25" font-family="Arial" font-size="10.00">Attribute</text>
<path fill="#f5b8b8" stroke="none" d="M289.5,-432C289.5,-432 297.5,-432 297.5,-432 300.5,-432 303.5,-435 303.5,-438 303.5,-438 303.5,-444 303.5,-444 303.5,-447 300.5,-450 297.5,-450 297.5,-450 289.5,-450 289.5,-450 286.5,-450 283.5,-447 283.5,-444 283.5,-444 283.5,-438 283.5,-438 283.5,-435 286.5,-432 289.5,-432"/>
<path fill="none" stroke="black" d="M289.5,-432C289.5,-432 297.5,-432 297.5,-432 300.5,-432 303.5,-435 303.5,-438 303.5,-438 303.5,-444 303.5,-444 303.5,-447 300.5,-450 297.5,-450 297.5,-450 289.5,-450 289.5,-450 286.5,-450 283.5,-447 283.5,-444 283.5,-444 283.5,-438 283.5,-438 283.5,-435 286.5,-432 289.5,-432"/>
<text xml:space="preserve" text-anchor="start" x="292" y="-437.25" font-family="Arial" font-size="10.00"> </text>
<text xml:space="preserve" text-anchor="start" x="307.5" y="-437.25" font-family="Arial" font-size="10.00">Relationship</text>
<text xml:space="preserve" text-anchor="start" x="367.5" y="-438.5" font-family="Arial" font-weight="bold" font-size="10.00">(+)</text>
<text xml:space="preserve" text-anchor="start" x="379.5" y="-438.5" font-family="Arial" font-size="10.00"> increases complexity</text>
<text xml:space="preserve" text-anchor="start" x="480.75" y="-438.5" font-family="Arial" font-weight="bold" font-size="10.00">(−)</text>
<text xml:space="preserve" text-anchor="start" x="492.75" y="-438.5" font-family="Arial" font-size="10.00"> decreases complexity</text>
<!-- furniture.legend -->
<g id="node1" class="node">
<title>furniture.legend</title>
<path fill="#b8e6b8" stroke="#2c3e50" stroke-width="1.8" d="M42,-296C42,-296 12,-296 12,-296 6,-296 0,-290 0,-284 0,-284 0,-272 0,-272 0,-266 6,-260 12,-260 12,-260 42,-260 42,-260 48,-260 54,-266 54,-272 54,-272 54,-284 54,-284 54,-290 48,-296 42,-296"/>
<text xml:space="preserve" text-anchor="middle" x="27" y="-274.5" font-family="Arial" font-size="10.00" fill="#1a1a1a">legend</text>
</g>
<!-- attr_0 -->
<g id="node5" class="node">
<title>attr_0</title>
<path fill="#c7b8e6" stroke="#7f8c8d" stroke-width="1.2" d="M221,-426C221,-426 116.5,-426 116.5,-426 110.5,-426 104.5,-420 104.5,-414 104.5,-414 104.5,-402 104.5,-402 104.5,-396 110.5,-390 116.5,-390 116.5,-390 221,-390 221,-390 227,-390 233,-396 233,-402 233,-402 233,-414 233,-414 233,-420 227,-426 221,-426"/>
<text xml:space="preserve" text-anchor="middle" x="168.75" y="-404.5" font-family="Arial" font-size="10.00" fill="#1a1a1a">(+) multiple distinct colors</text>
</g>
<!-- furniture.legend&#45;&gt;attr_0 -->
<g id="edge1" class="edge">
<title>furniture.legend&#45;&gt;attr_0</title>
<path fill="none" stroke="#aaaaaa" d="M43.84,-296.56C56.02,-315.36 74.55,-342.93 97,-361.5 109.27,-371.65 125.28,-379.25 138.97,-385.91"/>
<polygon fill="#aaaaaa" stroke="#aaaaaa" points="137.57,-387.95 144.94,-388.85 139.74,-383.56 137.57,-387.95"/>
</g>
<!-- furniture.legend&#45;&gt;attr_0 -->
<g id="edge7" class="edge">
<title>furniture.legend&#45;&gt;attr_0</title>
<path fill="none" stroke="#aaaaaa" d="M32.86,-296.52C42.55,-322.2 66.05,-364.9 97,-390.5 97.14,-390.62 97.29,-390.74 97.43,-390.85"/>
<polygon fill="#aaaaaa" stroke="#aaaaaa" points="95.91,-392.78 102.99,-394.99 98.84,-388.85 95.91,-392.78"/>
</g>
<!-- attr_1 -->
<g id="node6" class="node">
<title>attr_1</title>
<path fill="#c7b8e6" stroke="#7f8c8d" stroke-width="1.2" d="M219.88,-361C219.88,-361 117.62,-361 117.62,-361 111.62,-361 105.62,-355 105.62,-349 105.62,-349 105.62,-337 105.62,-337 105.62,-331 111.62,-325 117.62,-325 117.62,-325 219.88,-325 219.88,-325 225.88,-325 231.88,-331 231.88,-337 231.88,-337 231.88,-349 231.88,-349 231.88,-355 225.88,-361 219.88,-361"/>
<text xml:space="preserve" text-anchor="middle" x="168.75" y="-339.5" font-family="Arial" font-size="10.00" fill="#1a1a1a">(+) unclear color mapping</text>
</g>
<!-- furniture.legend&#45;&gt;attr_1 -->
<g id="edge2" class="edge">
<title>furniture.legend&#45;&gt;attr_1</title>
<path fill="none" stroke="#aaaaaa" d="M54.81,-277.83C67.56,-282.62 83.03,-290 97,-296.5 112.78,-303.84 130.64,-311.92 144.46,-319.98"/>
<polygon fill="#aaaaaa" stroke="#aaaaaa" points="143.16,-322.05 150.4,-323.65 145.74,-317.89 143.16,-322.05"/>
</g>
<!-- furniture.legend&#45;&gt;attr_1 -->
<g id="edge8" class="edge">
<title>furniture.legend&#45;&gt;attr_1</title>
<path fill="none" stroke="#aaaaaa" d="M43.3,-296.78C57.26,-306.68 78.46,-316.87 97,-325.5 97.17,-325.58 97.34,-325.66 97.5,-325.73"/>
<polygon fill="#aaaaaa" stroke="#aaaaaa" points="96.46,-327.95 103.84,-328.66 98.51,-323.5 96.46,-327.95"/>
</g>
<!-- attr_5 -->
<g id="node7" class="node">
<title>attr_5</title>
<path fill="#c7b8e6" stroke="#7f8c8d" stroke-width="1.2" d="M228.5,-296C228.5,-296 109,-296 109,-296 103,-296 97,-290 97,-284 97,-284 97,-272 97,-272 97,-266 103,-260 109,-260 109,-260 228.5,-260 228.5,-260 234.5,-260 240.5,-266 240.5,-272 240.5,-272 240.5,-284 240.5,-284 240.5,-290 234.5,-296 228.5,-296"/>
<text xml:space="preserve" text-anchor="middle" x="168.75" y="-274.5" font-family="Arial" font-size="10.00" fill="#1a1a1a">(+) requires cross referencing</text>
</g>
<!-- furniture.legend&#45;&gt;attr_5 -->
<g id="edge3" class="edge">
<title>furniture.legend&#45;&gt;attr_5</title>
<path fill="none" stroke="#aaaaaa" d="M54.61,-269.24C64.4,-268.13 76.04,-267.46 88.08,-267.22"/>
<polygon fill="#aaaaaa" stroke="#aaaaaa" points="87.98,-269.67 94.95,-267.14 87.92,-264.77 87.98,-269.67"/>
</g>
<!-- furniture.legend&#45;&gt;attr_5 -->
<g id="edge9" class="edge">
<title>furniture.legend&#45;&gt;attr_5</title>
<path fill="none" stroke="#aaaaaa" d="M54.61,-286.76C64.4,-287.87 76.04,-288.54 88.08,-288.78"/>
<polygon fill="#aaaaaa" stroke="#aaaaaa" points="87.92,-291.23 94.95,-288.86 87.98,-286.33 87.92,-291.23"/>
</g>
<!-- rel_0 -->
<g id="node11" class="node">
<title>rel_0</title>
<path fill="#f5b8b8" stroke="#d46a6a" stroke-width="1.2" d="M213.5,-231C213.5,-231 124,-231 124,-231 118,-231 112,-225 112,-219 112,-219 112,-207 112,-207 112,-201 118,-195 124,-195 124,-195 213.5,-195 213.5,-195 219.5,-195 225.5,-201 225.5,-207 225.5,-207 225.5,-219 225.5,-219 225.5,-225 219.5,-231 213.5,-231"/>
<text xml:space="preserve" text-anchor="middle" x="168.75" y="-209.5" font-family="Arial" font-size="10.00" fill="#8b0000">increases ambiguity in</text>
</g>
<!-- furniture.legend&#45;&gt;rel_0 -->
<g id="edge10" class="edge">
<title>furniture.legend&#45;&gt;rel_0</title>
<path fill="none" stroke="#d46a6a" stroke-width="1.5" d="M54.61,-265.62C72.77,-257.18 97.35,-245.74 118.96,-235.69"/>
<polygon fill="#d46a6a" stroke="#d46a6a" stroke-width="1.5" points="119.88,-238.35 125.95,-232.44 117.52,-233.28 119.88,-238.35"/>
</g>
<!-- rel_3 -->
<g id="node14" class="node">
<title>rel_3</title>
<path fill="#f5b8b8" stroke="#d46a6a" stroke-width="1.2" d="M210.5,-166C210.5,-166 127,-166 127,-166 121,-166 115,-160 115,-154 115,-154 115,-142 115,-142 115,-136 121,-130 127,-130 127,-130 210.5,-130 210.5,-130 216.5,-130 222.5,-136 222.5,-142 222.5,-142 222.5,-154 222.5,-154 222.5,-160 216.5,-166 210.5,-166"/>
<text xml:space="preserve" text-anchor="middle" x="168.75" y="-144.5" font-family="Arial" font-size="10.00" fill="#8b0000">requires expertise for</text>
</g>
<!-- furniture.legend&#45;&gt;rel_3 -->
<g id="edge16" class="edge">
<title>furniture.legend&#45;&gt;rel_3</title>
<path fill="none" stroke="#d46a6a" stroke-width="1.5" d="M33.06,-259.22C42.94,-233.76 66.51,-191.89 97,-166.5 99.82,-164.15 102.84,-161.93 105.98,-159.85"/>
<polygon fill="#d46a6a" stroke="#d46a6a" stroke-width="1.5" points="107.17,-162.4 112.58,-155.87 104.28,-157.6 107.17,-162.4"/>
</g>
<!-- text.title -->
<g id="node2" class="node">
<title>text.title</title>
<path fill="#b8e6b8" stroke="#2c3e50" stroke-width="1.8" d="M42,-69C42,-69 12,-69 12,-69 6,-69 0,-63 0,-57 0,-57 0,-45 0,-45 0,-39 6,-33 12,-33 12,-33 42,-33 42,-33 48,-33 54,-39 54,-45 54,-45 54,-57 54,-57 54,-63 48,-69 42,-69"/>
<text xml:space="preserve" text-anchor="middle" x="27" y="-47.5" font-family="Arial" font-size="10.00" fill="#1a1a1a">title</text>
</g>
<!-- attr_2 -->
<g id="node8" class="node">
<title>attr_2</title>
<path fill="#c7b8e6" stroke="#7f8c8d" stroke-width="1.2" d="M210.5,-101C210.5,-101 127,-101 127,-101 121,-101 115,-95 115,-89 115,-89 115,-77 115,-77 115,-71 121,-65 127,-65 127,-65 210.5,-65 210.5,-65 216.5,-65 222.5,-71 222.5,-77 222.5,-77 222.5,-89 222.5,-89 222.5,-95 216.5,-101 210.5,-101"/>
<text xml:space="preserve" text-anchor="middle" x="168.75" y="-79.5" font-family="Arial" font-size="10.00" fill="#1a1a1a">(+) titles on all points</text>
</g>
<!-- text.title&#45;&gt;attr_2 -->
<g id="edge4" class="edge">
<title>text.title&#45;&gt;attr_2</title>
<path fill="none" stroke="#aaaaaa" d="M54.61,-57.09C69.31,-60.46 88.22,-64.79 106.35,-68.94"/>
<polygon fill="#aaaaaa" stroke="#aaaaaa" points="105.76,-71.32 113.13,-70.49 106.86,-66.54 105.76,-71.32"/>
</g>
<!-- rel_1 -->
<g id="node12" class="node">
<title>rel_1</title>
<path fill="#f5b8b8" stroke="#d46a6a" stroke-width="1.2" d="M207.88,-36C207.88,-36 129.62,-36 129.62,-36 123.62,-36 117.62,-30 117.62,-24 117.62,-24 117.62,-12 117.62,-12 117.62,-6 123.62,0 129.62,0 129.62,0 207.88,0 207.88,0 213.88,0 219.88,-6 219.88,-12 219.88,-12 219.88,-24 219.88,-24 219.88,-30 213.88,-36 207.88,-36"/>
<text xml:space="preserve" text-anchor="middle" x="168.75" y="-14.5" font-family="Arial" font-size="10.00" fill="#8b0000">adds text volume to</text>
</g>
<!-- text.title&#45;&gt;rel_1 -->
<g id="edge12" class="edge">
<title>text.title&#45;&gt;rel_1</title>
<path fill="none" stroke="#d46a6a" stroke-width="1.5" d="M54.61,-44.72C69.58,-41.18 88.92,-36.61 107.36,-32.26"/>
<polygon fill="#d46a6a" stroke="#d46a6a" stroke-width="1.5" points="107.83,-35.03 114.98,-30.46 106.55,-29.58 107.83,-35.03"/>
</g>
<!-- unknown.data_point -->
<g id="node3" class="node">
<title>unknown.data_point</title>
<path fill="#b8e6b8" stroke="#2c3e50" stroke-width="1.8" d="M330.25,-133C330.25,-133 295.5,-133 295.5,-133 289.5,-133 283.5,-127 283.5,-121 283.5,-121 283.5,-109 283.5,-109 283.5,-103 289.5,-97 295.5,-97 295.5,-97 330.25,-97 330.25,-97 336.25,-97 342.25,-103 342.25,-109 342.25,-109 342.25,-121 342.25,-121 342.25,-127 336.25,-133 330.25,-133"/>
<text xml:space="preserve" text-anchor="middle" x="312.88" y="-111.5" font-family="Arial" font-size="10.00" fill="#1a1a1a">data point</text>
</g>
<!-- attr_3 -->
<g id="node9" class="node">
<title>attr_3</title>
<path fill="#c7b8e6" stroke="#7f8c8d" stroke-width="1.2" d="M498,-166C498,-166 397.25,-166 397.25,-166 391.25,-166 385.25,-160 385.25,-154 385.25,-154 385.25,-142 385.25,-142 385.25,-136 391.25,-130 397.25,-130 397.25,-130 498,-130 498,-130 504,-130 510,-136 510,-142 510,-142 510,-154 510,-154 510,-160 504,-166 498,-166"/>
<text xml:space="preserve" text-anchor="middle" x="447.62" y="-144.5" font-family="Arial" font-size="10.00" fill="#1a1a1a">(+) numerous data points</text>
</g>
<!-- unknown.data_point&#45;&gt;attr_3 -->
<g id="edge5" class="edge">
<title>unknown.data_point&#45;&gt;attr_3</title>
<path fill="none" stroke="#aaaaaa" d="M343.01,-122.24C353.05,-124.74 364.78,-127.65 376.66,-130.61"/>
<polygon fill="#aaaaaa" stroke="#aaaaaa" points="376.04,-132.98 383.43,-132.29 377.23,-128.22 376.04,-132.98"/>
</g>
<!-- rel_2 -->
<g id="node13" class="node">
<title>rel_2</title>
<path fill="#f5b8b8" stroke="#d46a6a" stroke-width="1.2" d="M464.62,-101C464.62,-101 430.62,-101 430.62,-101 424.62,-101 418.62,-95 418.62,-89 418.62,-89 418.62,-77 418.62,-77 418.62,-71 424.62,-65 430.62,-65 430.62,-65 464.62,-65 464.62,-65 470.62,-65 476.62,-71 476.62,-77 476.62,-77 476.62,-89 476.62,-89 476.62,-95 470.62,-101 464.62,-101"/>
<text xml:space="preserve" text-anchor="middle" x="447.62" y="-79.5" font-family="Arial" font-size="10.00" fill="#8b0000">populates</text>
</g>
<!-- unknown.data_point&#45;&gt;rel_2 -->
<g id="edge14" class="edge">
<title>unknown.data_point&#45;&gt;rel_2</title>
<path fill="none" stroke="#d46a6a" stroke-width="1.5" d="M343.01,-107.98C362.29,-103.33 387.77,-97.19 408.64,-92.16"/>
<polygon fill="#d46a6a" stroke="#d46a6a" stroke-width="1.5" points="409.14,-94.92 416.26,-90.32 407.83,-89.47 409.14,-94.92"/>
</g>
<!-- structure.grid -->
<g id="node4" class="node">
<title>structure.grid</title>
<path fill="#b8e6b8" stroke="#2c3e50" stroke-width="1.8" d="M595,-101C595,-101 565,-101 565,-101 559,-101 553,-95 553,-89 553,-89 553,-77 553,-77 553,-71 559,-65 565,-65 565,-65 595,-65 595,-65 601,-65 607,-71 607,-77 607,-77 607,-89 607,-89 607,-95 601,-101 595,-101"/>
<text xml:space="preserve" text-anchor="middle" x="580" y="-79.5" font-family="Arial" font-size="10.00" fill="#1a1a1a">grid</text>
</g>
<!-- attr_4 -->
<g id="node10" class="node">
<title>attr_4</title>
<path fill="#c7b8e6" stroke="#7f8c8d" stroke-width="1.2" d="M743.25,-101C743.25,-101 662,-101 662,-101 656,-101 650,-95 650,-89 650,-89 650,-77 650,-77 650,-71 656,-65 662,-65 662,-65 743.25,-65 743.25,-65 749.25,-65 755.25,-71 755.25,-77 755.25,-77 755.25,-89 755.25,-89 755.25,-95 749.25,-101 743.25,-101"/>
<text xml:space="preserve" text-anchor="middle" x="702.62" y="-79.5" font-family="Arial" font-size="10.00" fill="#1a1a1a">(+) dense grid layout</text>
</g>
<!-- structure.grid&#45;&gt;attr_4 -->
<g id="edge6" class="edge">
<title>structure.grid&#45;&gt;attr_4</title>
<path fill="none" stroke="#aaaaaa" d="M607.77,-83C617.81,-83 629.66,-83 641.51,-83"/>
<polygon fill="#aaaaaa" stroke="#aaaaaa" points="641.17,-85.45 648.17,-83 641.17,-80.55 641.17,-85.45"/>
</g>
<!-- rel_0&#45;&gt;unknown.data_point -->
<g id="edge11" class="edge">
<title>rel_0&#45;&gt;unknown.data_point</title>
<path fill="none" stroke="#d46a6a" stroke-width="1.5" d="M216.56,-194.41C224.79,-190.43 233.08,-185.92 240.5,-181 257.71,-169.59 274.77,-154.01 287.9,-140.85"/>
<polygon fill="#d46a6a" stroke="#d46a6a" stroke-width="1.5" points="289.58,-143.14 293.17,-135.46 285.58,-139.22 289.58,-143.14"/>
</g>
<!-- rel_1&#45;&gt;unknown.data_point -->
<g id="edge13" class="edge">
<title>rel_1&#45;&gt;unknown.data_point</title>
<path fill="none" stroke="#d46a6a" stroke-width="1.5" d="M214.61,-36.48C223.45,-40.8 232.47,-45.7 240.5,-51 257.1,-61.96 273.76,-76.64 286.81,-89.18"/>
<polygon fill="#d46a6a" stroke="#d46a6a" stroke-width="1.5" points="284.74,-91.08 292.42,-94.68 288.66,-87.08 284.74,-91.08"/>
</g>
<!-- rel_2&#45;&gt;structure.grid -->
<g id="edge15" class="edge">
<title>rel_2&#45;&gt;structure.grid</title>
<path fill="none" stroke="#d46a6a" stroke-width="1.5" d="M476.91,-83C496.01,-83 521.39,-83 542.08,-83"/>
<polygon fill="#d46a6a" stroke="#d46a6a" stroke-width="1.5" points="541.83,-85.8 549.83,-83 541.83,-80.2 541.83,-85.8"/>
</g>
<!-- rel_3&#45;&gt;furniture.legend -->
<g id="edge17" class="edge">
<title>rel_3&#45;&gt;furniture.legend</title>
<path fill="none" stroke="#d46a6a" stroke-width="1.5" d="M146.95,-166.5C131.94,-174.38 111.79,-183.18 97,-195.5 78.03,-211.3 61.74,-233.47 49.76,-251.16"/>
<polygon fill="#d46a6a" stroke="#d46a6a" stroke-width="1.5" points="47.61,-249.34 45.49,-257.55 52.27,-252.45 47.61,-249.34"/>
</g>
</g>
</svg>
