<?xml version="1.0" encoding="UTF-8" standalone="no"?>
<!DOCTYPE svg PUBLIC "-//W3C//DTD SVG 1.1//EN"
 "http://www.w3.org/Graphics/SVG/1.1/DTD/svg11.dtd">
<!-- Generated by graphviz version 14.1.5 (20260411.2331)
 -->
<!-- Title: VASTJ.1698.5(4).png Pages: 1 -->
<svg width="1252pt" height="310pt"
 viewBox="0.00 0.00 1252.00 310.00" xmlns="http://www.w3.org/2000/svg" xmlns:xlink="http://www.w3.org/1999/xlink">
<g id="graph0" class="graph" transform="scale(1 1) rotate(0) translate(4 306.25)">
<title>VASTJ.1698.5(4).png</title>
<polygon fill="white" stroke="none" points="-4,4 -4,-306.25 1248,-306.25 1248,4 -4,4"/>
<text xml:space="preserve" text-anchor="start" x="555.62" y="-281.95" font-family="Arial" font-weight="bold" font-size="14.00">VASTJ.1698.5(4).png</text>
<text xml:space="preserve" text-anchor="start" x="566.88" y="-262" font-family="Arial" font-size="11.00">Node&#45;link &#160;| &#160;VC = 0.95</text>
<path fill="#b8e6b8" stroke="none" d="M412.62,-237C412.62,-237 420.62,-237 420.62,-237 423.62,-237 426.62,-240 426.62,-243 426.62,-243 426.62,-249 426.62,-249 426.62,-252 423.62,-255 420.62,-255 420.62,-255 412.62,-255 412.62,-255 409.62,-255 406.62,-252 406.62,-249 406.62,-249 406.62,-243 406.62,-243 406.62,-240 409.62,-237 412.62,-237"/>
<path fill="none" stroke="black" d="M412.62,-237C412.62,-237 420.62,-237 420.62,-237 423.62,-237 426.62,-240 426.62,-243 426.62,-243 426.62,-249 426.62,-249 426.62,-252 423.62,-255 420.62,-255 420.62,-255 412.62,-255 412.62,-255 409.62,-255 406.62,-252 406.62,-249 406.62,-249 406.62,-243 406.62,-243 406.62,-240 409.62,-237 412.62,-237"/>
<text xml:space="preserve" text-anchor="start" x="415.12" y="-242.25" font-family="Arial" font-size="10.00"> </text>
<text xml:space="preserve" text-anchor="start" x="430.62" y="-242.25" font-family="Arial" font-size="10.00">Object</text>
<path fill="#c7b8e6" stroke="none" d="M469.12,-237C469.12,-237 477.12,-237 477.12,-237 480.12,-237 483.12,-240 483.12,-243 483.12,-243 483.12,-249 483.12,-249 483.12,-252 480.12,-255 477.12,-255 477.12,-255 469.12,-255 469.12,-255 466.12,-255 463.12,-252 463.12,-249 463.12,-249 463.12,-243 463.12,-243 463.12,-240 466.12,-237 469.12,-237"/>
<path fill="none" stroke="black" d="M469.12,-237C469.12,-237 477.12,-237 477.12,-237 480.12,-237 483.12,-240 483.12,-243 483.12,-243 483.12,-249 483.12,-249 483.12,-252 480.12,-255 477.12,-255 477.12,-255 469.12,-255 469.12,-255 466.12,-255 463.12,-252 463.12,-249 463.12,-249 463.12,-243 463.12,-243 463.12,-240 466.12,-237 469.12,-237"/>
<text xml:space="preserve" text-anchor="start" x="471.62" y="-242.25" font-family="Arial" font-size="10.00"> </text>
<text xml:space="preserve" text-anchor="start" x="487.12" y="-242.25" font-family="Arial" font-size="10.00">Attribute</text>
<path fill="#f5b8b8" stroke="none" d="M533.88,-237C533.88,-237 541.88,-237 541.88,-237 544.88,-237 547.88,-240 547.88,-243 547.88,-243 547.88,-249 547.88,-249 547.88,-252 544.88,-255 541.88,-255 541.88,-255 533.88,-255 533.88,-255 530.88,-255 527.88,-252 527.88,-249 527.88,-249 527.88,-243 527.88,-243 527.88,-240 530.88,-237 533.88,-237"/>
<path fill="none" stroke="black" d="M533.88,-237C533.88,-237 541.88,-237 541.88,-237 544.88,-237 547.88,-240 547.88,-243 547.88,-243 547.88,-249 547.88,-249 547.88,-252 544.88,-255 541.88,-255 541.88,-255 533.88,-255 533.88,-255 530.88,-255 527.88,-252 527.88,-249 527.88,-249 527.88,-243 527.88,-243 527.88,-240 530.88,-237 533.88,-237"/>
<text xml:space="preserve" text-anchor="start" x="536.38" y="-242.25" font-family="Arial" font-size="10.00"> </text>
<text xml:space="preserve" text-anchor="start" x="551.88" y="-242.25" font-family="Arial" font-size="10.00">Relationship</text>
<text xml:space="preserve" text-anchor="start" x="611.88" y="-243.5" font-family="Arial" font-weight="bold" font-size="10.00">(+)</text>
<text xml:space="preserve" text-anchor="start" x="623.88" y="-243.5" font-family="Arial" font-size="10.00"> increases complexity</text>
<text xml:space="preserve" text-anchor="start" x="725.12" y="-243.5" font-family="Arial" font-weight="bold" font-size="10.00">(−)</text>
<text xml:space="preserve" text-anchor="start" x="737.12" y="-243.5" font-family="Arial" font-size="10.00"> decreases complexity</text>
<!-- unknown.lines -->
<g id="node1" class="node">
<title>unknown.lines</title>
<path fill="#b8e6b8" stroke="#2c3e50" stroke-width="1.8" d="M42,-166C42,-166 12,-166 12,-166 6,-166 0,-160 0,-154 0,-154 0,-142 0,-142 0,-136 6,-130 12,-130 12,-130 42,-130 42,-130 48,-130 54,-136 54,-142 54,-142 54,-154 54,-154 54,-160 48,-166 42,-166"/>
<text xml:space="preserve" text-anchor="middle" x="27" y="-144.5" font-family="Arial" font-size="10.00" fill="#1a1a1a">lines</text>
</g>
<!-- attr_0 -->
<g id="node7" class="node">
<title>attr_0</title>
<path fill="#c7b8e6" stroke="#7f8c8d" stroke-width="1.2" d="M239,-231C239,-231 109,-231 109,-231 103,-231 97,-225 97,-219 97,-219 97,-207 97,-207 97,-201 103,-195 109,-195 109,-195 239,-195 239,-195 245,-195 251,-201 251,-207 251,-207 251,-219 251,-219 251,-225 245,-231 239,-231"/>
<text xml:space="preserve" text-anchor="middle" x="174" y="-209.5" font-family="Arial" font-size="10.00" fill="#1a1a1a">(+) heavily crossing overlapping</text>
</g>
<!-- unknown.lines&#45;&gt;attr_0 -->
<g id="edge1" class="edge">
<title>unknown.lines&#45;&gt;attr_0</title>
<path fill="none" stroke="#aaaaaa" d="M54.73,-161.15C67.47,-167.32 82.95,-174.69 97,-181 104.44,-184.34 112.34,-187.79 120.12,-191.12"/>
<polygon fill="#aaaaaa" stroke="#aaaaaa" points="119.04,-193.32 126.44,-193.81 120.96,-188.81 119.04,-193.32"/>
</g>
<!-- rel_0 -->
<g id="node14" class="node">
<title>rel_0</title>
<path fill="#f5b8b8" stroke="#d46a6a" stroke-width="1.2" d="M189,-166C189,-166 159,-166 159,-166 153,-166 147,-160 147,-154 147,-154 147,-142 147,-142 147,-136 153,-130 159,-130 159,-130 189,-130 189,-130 195,-130 201,-136 201,-142 201,-142 201,-154 201,-154 201,-160 195,-166 189,-166"/>
<text xml:space="preserve" text-anchor="middle" x="174" y="-144.5" font-family="Arial" font-size="10.00" fill="#8b0000">creates</text>
</g>
<!-- unknown.lines&#45;&gt;rel_0 -->
<g id="edge8" class="edge">
<title>unknown.lines&#45;&gt;rel_0</title>
<path fill="none" stroke="#d46a6a" stroke-width="1.5" d="M54.6,-148C77.59,-148 111.05,-148 136.54,-148"/>
<polygon fill="#d46a6a" stroke="#d46a6a" stroke-width="1.5" points="136.3,-150.8 144.3,-148 136.3,-145.2 136.3,-150.8"/>
</g>
<!-- rel_3 -->
<g id="node17" class="node">
<title>rel_3</title>
<path fill="#f5b8b8" stroke="#d46a6a" stroke-width="1.2" d="M189.88,-101C189.88,-101 158.12,-101 158.12,-101 152.12,-101 146.12,-95 146.12,-89 146.12,-89 146.12,-77 146.12,-77 146.12,-71 152.12,-65 158.12,-65 158.12,-65 189.88,-65 189.88,-65 195.88,-65 201.88,-71 201.88,-77 201.88,-77 201.88,-89 201.88,-89 201.88,-95 195.88,-101 189.88,-101"/>
<text xml:space="preserve" text-anchor="middle" x="174" y="-79.5" font-family="Arial" font-size="10.00" fill="#8b0000">obscures</text>
</g>
<!-- unknown.lines&#45;&gt;rel_3 -->
<g id="edge14" class="edge">
<title>unknown.lines&#45;&gt;rel_3</title>
<path fill="none" stroke="#d46a6a" stroke-width="1.5" d="M54.73,-134.85C67.47,-128.68 82.95,-121.31 97,-115 109.8,-109.25 123.94,-103.21 136.52,-97.95"/>
<polygon fill="#d46a6a" stroke="#d46a6a" stroke-width="1.5" points="137.37,-100.62 143.68,-94.96 135.22,-95.45 137.37,-100.62"/>
</g>
<!-- unknown.nodes -->
<g id="node2" class="node">
<title>unknown.nodes</title>
<path fill="#b8e6b8" stroke="#2c3e50" stroke-width="1.8" d="M344.75,-101C344.75,-101 314.75,-101 314.75,-101 308.75,-101 302.75,-95 302.75,-89 302.75,-89 302.75,-77 302.75,-77 302.75,-71 308.75,-65 314.75,-65 314.75,-65 344.75,-65 344.75,-65 350.75,-65 356.75,-71 356.75,-77 356.75,-77 356.75,-89 356.75,-89 356.75,-95 350.75,-101 344.75,-101"/>
<text xml:space="preserve" text-anchor="middle" x="329.75" y="-79.5" font-family="Arial" font-size="10.00" fill="#1a1a1a">nodes</text>
</g>
<!-- attr_5 -->
<g id="node8" class="node">
<title>attr_5</title>
<path fill="#c7b8e6" stroke="#7f8c8d" stroke-width="1.2" d="M518.62,-101C518.62,-101 432.12,-101 432.12,-101 426.12,-101 420.12,-95 420.12,-89 420.12,-89 420.12,-77 420.12,-77 420.12,-71 426.12,-65 432.12,-65 432.12,-65 518.62,-65 518.62,-65 524.62,-65 530.62,-71 530.62,-77 530.62,-77 530.62,-89 530.62,-89 530.62,-95 524.62,-101 518.62,-101"/>
<text xml:space="preserve" text-anchor="middle" x="475.38" y="-79.5" font-family="Arial" font-size="10.00" fill="#1a1a1a">(+) high node quantity</text>
</g>
<!-- unknown.nodes&#45;&gt;attr_5 -->
<g id="edge2" class="edge">
<title>unknown.nodes&#45;&gt;attr_5</title>
<path fill="none" stroke="#aaaaaa" d="M357.43,-83C372.62,-83 392.35,-83 411.26,-83"/>
<polygon fill="#aaaaaa" stroke="#aaaaaa" points="411.07,-85.45 418.07,-83 411.07,-80.55 411.07,-85.45"/>
</g>
<!-- structure.layout -->
<g id="node3" class="node">
<title>structure.layout</title>
<path fill="#b8e6b8" stroke="#2c3e50" stroke-width="1.8" d="M627.25,-166C627.25,-166 597.25,-166 597.25,-166 591.25,-166 585.25,-160 585.25,-154 585.25,-154 585.25,-142 585.25,-142 585.25,-136 591.25,-130 597.25,-130 597.25,-130 627.25,-130 627.25,-130 633.25,-130 639.25,-136 639.25,-142 639.25,-142 639.25,-154 639.25,-154 639.25,-160 633.25,-166 627.25,-166"/>
<text xml:space="preserve" text-anchor="middle" x="612.25" y="-144.5" font-family="Arial" font-size="10.00" fill="#1a1a1a">layout</text>
</g>
<!-- attr_2 -->
<g id="node9" class="node">
<title>attr_2</title>
<path fill="#c7b8e6" stroke="#7f8c8d" stroke-width="1.2" d="M816.75,-231C816.75,-231 694.25,-231 694.25,-231 688.25,-231 682.25,-225 682.25,-219 682.25,-219 682.25,-207 682.25,-207 682.25,-201 688.25,-195 694.25,-195 694.25,-195 816.75,-195 816.75,-195 822.75,-195 828.75,-201 828.75,-207 828.75,-207 828.75,-219 828.75,-219 828.75,-225 822.75,-231 816.75,-231"/>
<text xml:space="preserve" text-anchor="middle" x="755.5" y="-209.5" font-family="Arial" font-size="10.00" fill="#1a1a1a">(+) disorganized spatial layout</text>
</g>
<!-- structure.layout&#45;&gt;attr_2 -->
<g id="edge3" class="edge">
<title>structure.layout&#45;&gt;attr_2</title>
<path fill="none" stroke="#aaaaaa" d="M640.03,-161.03C652.78,-167.18 668.26,-174.56 682.25,-181 689.45,-184.31 697.07,-187.76 704.57,-191.11"/>
<polygon fill="#aaaaaa" stroke="#aaaaaa" points="703.23,-193.2 710.62,-193.81 705.22,-188.72 703.23,-193.2"/>
</g>
<!-- attr_6 -->
<g id="node10" class="node">
<title>attr_6</title>
<path fill="#c7b8e6" stroke="#7f8c8d" stroke-width="1.2" d="M799.12,-166C799.12,-166 711.88,-166 711.88,-166 705.88,-166 699.88,-160 699.88,-154 699.88,-154 699.88,-142 699.88,-142 699.88,-136 705.88,-130 711.88,-130 711.88,-130 799.12,-130 799.12,-130 805.12,-130 811.12,-136 811.12,-142 811.12,-142 811.12,-154 811.12,-154 811.12,-160 805.12,-166 799.12,-166"/>
<text xml:space="preserve" text-anchor="middle" x="755.5" y="-144.5" font-family="Arial" font-size="10.00" fill="#1a1a1a">(+) difficult to interpret</text>
</g>
<!-- structure.layout&#45;&gt;attr_6 -->
<g id="edge4" class="edge">
<title>structure.layout&#45;&gt;attr_6</title>
<path fill="none" stroke="#aaaaaa" d="M639.82,-148C654.37,-148 673.08,-148 691.15,-148"/>
<polygon fill="#aaaaaa" stroke="#aaaaaa" points="690.87,-150.45 697.87,-148 690.87,-145.55 690.87,-150.45"/>
</g>
<!-- rel_4 -->
<g id="node18" class="node">
<title>rel_4</title>
<path fill="#f5b8b8" stroke="#d46a6a" stroke-width="1.2" d="M772.5,-101C772.5,-101 738.5,-101 738.5,-101 732.5,-101 726.5,-95 726.5,-89 726.5,-89 726.5,-77 726.5,-77 726.5,-71 732.5,-65 738.5,-65 738.5,-65 772.5,-65 772.5,-65 778.5,-65 784.5,-71 784.5,-77 784.5,-77 784.5,-89 784.5,-89 784.5,-95 778.5,-101 772.5,-101"/>
<text xml:space="preserve" text-anchor="middle" x="755.5" y="-79.5" font-family="Arial" font-size="10.00" fill="#8b0000">increases</text>
</g>
<!-- structure.layout&#45;&gt;rel_4 -->
<g id="edge16" class="edge">
<title>structure.layout&#45;&gt;rel_4</title>
<path fill="none" stroke="#d46a6a" stroke-width="1.5" d="M640.03,-134.97C652.78,-128.82 668.26,-121.44 682.25,-115 693.45,-109.84 705.68,-104.37 716.85,-99.43"/>
<polygon fill="#d46a6a" stroke="#d46a6a" stroke-width="1.5" points="717.66,-102.13 723.85,-96.34 715.4,-97 717.66,-102.13"/>
</g>
<!-- unknown.intersections -->
<g id="node4" class="node">
<title>unknown.intersections</title>
<path fill="#b8e6b8" stroke="#2c3e50" stroke-width="1.8" d="M353.5,-166C353.5,-166 306,-166 306,-166 300,-166 294,-160 294,-154 294,-154 294,-142 294,-142 294,-136 300,-130 306,-130 306,-130 353.5,-130 353.5,-130 359.5,-130 365.5,-136 365.5,-142 365.5,-142 365.5,-154 365.5,-154 365.5,-160 359.5,-166 353.5,-166"/>
<text xml:space="preserve" text-anchor="middle" x="329.75" y="-144.5" font-family="Arial" font-size="10.00" fill="#1a1a1a">intersections</text>
</g>
<!-- attr_1 -->
<g id="node11" class="node">
<title>attr_1</title>
<path fill="#c7b8e6" stroke="#7f8c8d" stroke-width="1.2" d="M530.25,-231C530.25,-231 420.5,-231 420.5,-231 414.5,-231 408.5,-225 408.5,-219 408.5,-219 408.5,-207 408.5,-207 408.5,-201 414.5,-195 420.5,-195 420.5,-195 530.25,-195 530.25,-195 536.25,-195 542.25,-201 542.25,-207 542.25,-207 542.25,-219 542.25,-219 542.25,-225 536.25,-231 530.25,-231"/>
<text xml:space="preserve" text-anchor="middle" x="475.38" y="-209.5" font-family="Arial" font-size="10.00" fill="#1a1a1a">(+) dense line intersections</text>
</g>
<!-- unknown.intersections&#45;&gt;attr_1 -->
<g id="edge5" class="edge">
<title>unknown.intersections&#45;&gt;attr_1</title>
<path fill="none" stroke="#aaaaaa" d="M366.25,-164.07C384.22,-172.2 406.3,-182.19 425.82,-191.02"/>
<polygon fill="#aaaaaa" stroke="#aaaaaa" points="424.67,-193.19 432.06,-193.85 426.69,-188.73 424.67,-193.19"/>
</g>
<!-- rel_1 -->
<g id="node15" class="node">
<title>rel_1</title>
<path fill="#f5b8b8" stroke="#d46a6a" stroke-width="1.2" d="M497.62,-166C497.62,-166 453.12,-166 453.12,-166 447.12,-166 441.12,-160 441.12,-154 441.12,-154 441.12,-142 441.12,-142 441.12,-136 447.12,-130 453.12,-130 453.12,-130 497.62,-130 497.62,-130 503.62,-130 509.62,-136 509.62,-142 509.62,-142 509.62,-154 509.62,-154 509.62,-160 503.62,-166 497.62,-166"/>
<text xml:space="preserve" text-anchor="middle" x="475.38" y="-144.5" font-family="Arial" font-size="10.00" fill="#8b0000">overwhelms</text>
</g>
<!-- unknown.intersections&#45;&gt;rel_1 -->
<g id="edge10" class="edge">
<title>unknown.intersections&#45;&gt;rel_1</title>
<path fill="none" stroke="#d46a6a" stroke-width="1.5" d="M366.25,-148C385.72,-148 410.03,-148 430.66,-148"/>
<polygon fill="#d46a6a" stroke="#d46a6a" stroke-width="1.5" points="430.49,-150.8 438.49,-148 430.49,-145.2 430.49,-150.8"/>
</g>
<!-- unknown.network_structure -->
<g id="node5" class="node">
<title>unknown.network_structure</title>
<path fill="#b8e6b8" stroke="#2c3e50" stroke-width="1.8" d="M951.5,-101C951.5,-101 883.75,-101 883.75,-101 877.75,-101 871.75,-95 871.75,-89 871.75,-89 871.75,-77 871.75,-77 871.75,-71 877.75,-65 883.75,-65 883.75,-65 951.5,-65 951.5,-65 957.5,-65 963.5,-71 963.5,-77 963.5,-77 963.5,-89 963.5,-89 963.5,-95 957.5,-101 951.5,-101"/>
<text xml:space="preserve" text-anchor="middle" x="917.62" y="-79.5" font-family="Arial" font-size="10.00" fill="#1a1a1a">network structure</text>
</g>
<!-- attr_3 -->
<g id="node12" class="node">
<title>attr_3</title>
<path fill="#c7b8e6" stroke="#7f8c8d" stroke-width="1.2" d="M1135,-166C1135,-166 1018.5,-166 1018.5,-166 1012.5,-166 1006.5,-160 1006.5,-154 1006.5,-154 1006.5,-142 1006.5,-142 1006.5,-136 1012.5,-130 1018.5,-130 1018.5,-130 1135,-130 1135,-130 1141,-130 1147,-136 1147,-142 1147,-142 1147,-154 1147,-154 1147,-160 1141,-166 1135,-166"/>
<text xml:space="preserve" text-anchor="middle" x="1076.75" y="-144.5" font-family="Arial" font-size="10.00" fill="#1a1a1a">(+) granular deep information</text>
</g>
<!-- unknown.network_structure&#45;&gt;attr_3 -->
<g id="edge6" class="edge">
<title>unknown.network_structure&#45;&gt;attr_3</title>
<path fill="none" stroke="#aaaaaa" d="M964.07,-101.8C982.55,-109.45 1004.03,-118.33 1023.18,-126.25"/>
<polygon fill="#aaaaaa" stroke="#aaaaaa" points="1022.14,-128.48 1029.55,-128.89 1024.02,-123.95 1022.14,-128.48"/>
</g>
<!-- attr_4 -->
<g id="node13" class="node">
<title>attr_4</title>
<path fill="#c7b8e6" stroke="#7f8c8d" stroke-width="1.2" d="M1133.5,-101C1133.5,-101 1020,-101 1020,-101 1014,-101 1008,-95 1008,-89 1008,-89 1008,-77 1008,-77 1008,-71 1014,-65 1020,-65 1020,-65 1133.5,-65 1133.5,-65 1139.5,-65 1145.5,-71 1145.5,-77 1145.5,-77 1145.5,-89 1145.5,-89 1145.5,-95 1139.5,-101 1133.5,-101"/>
<text xml:space="preserve" text-anchor="middle" x="1076.75" y="-79.5" font-family="Arial" font-size="10.00" fill="#1a1a1a">(+) unfamiliar representation</text>
</g>
<!-- unknown.network_structure&#45;&gt;attr_4 -->
<g id="edge7" class="edge">
<title>unknown.network_structure&#45;&gt;attr_4</title>
<path fill="none" stroke="#aaaaaa" d="M964.07,-83C975.12,-83 987.23,-83 999.28,-83"/>
<polygon fill="#aaaaaa" stroke="#aaaaaa" points="999.09,-85.45 1006.09,-83 999.09,-80.55 999.09,-85.45"/>
</g>
<!-- rel_2 -->
<g id="node16" class="node">
<title>rel_2</title>
<path fill="#f5b8b8" stroke="#d46a6a" stroke-width="1.2" d="M1118.5,-36C1118.5,-36 1035,-36 1035,-36 1029,-36 1023,-30 1023,-24 1023,-24 1023,-12 1023,-12 1023,-6 1029,0 1035,0 1035,0 1118.5,0 1118.5,0 1124.5,0 1130.5,-6 1130.5,-12 1130.5,-12 1130.5,-24 1130.5,-24 1130.5,-30 1124.5,-36 1118.5,-36"/>
<text xml:space="preserve" text-anchor="middle" x="1076.75" y="-14.5" font-family="Arial" font-size="10.00" fill="#8b0000">requires expertise for</text>
</g>
<!-- unknown.network_structure&#45;&gt;rel_2 -->
<g id="edge12" class="edge">
<title>unknown.network_structure&#45;&gt;rel_2</title>
<path fill="none" stroke="#d46a6a" stroke-width="1.5" d="M964.07,-64.2C982.06,-56.76 1002.88,-48.14 1021.64,-40.38"/>
<polygon fill="#d46a6a" stroke="#d46a6a" stroke-width="1.5" points="1022.53,-43.05 1028.85,-37.4 1020.39,-37.87 1022.53,-43.05"/>
</g>
<!-- unknown.labels -->
<g id="node6" class="node">
<title>unknown.labels</title>
<path fill="#b8e6b8" stroke="#2c3e50" stroke-width="1.8" d="M1232,-36C1232,-36 1202,-36 1202,-36 1196,-36 1190,-30 1190,-24 1190,-24 1190,-12 1190,-12 1190,-6 1196,0 1202,0 1202,0 1232,0 1232,0 1238,0 1244,-6 1244,-12 1244,-12 1244,-24 1244,-24 1244,-30 1238,-36 1232,-36"/>
<text xml:space="preserve" text-anchor="middle" x="1217" y="-14.5" font-family="Arial" font-size="10.00" fill="#1a1a1a">labels</text>
</g>
<!-- rel_0&#45;&gt;unknown.intersections -->
<g id="edge9" class="edge">
<title>rel_0&#45;&gt;unknown.intersections</title>
<path fill="none" stroke="#d46a6a" stroke-width="1.5" d="M201.43,-148C223.79,-148 256.34,-148 282.94,-148"/>
<polygon fill="#d46a6a" stroke="#d46a6a" stroke-width="1.5" points="282.9,-150.8 290.9,-148 282.9,-145.2 282.9,-150.8"/>
</g>
<!-- rel_1&#45;&gt;structure.layout -->
<g id="edge11" class="edge">
<title>rel_1&#45;&gt;structure.layout</title>
<path fill="none" stroke="#d46a6a" stroke-width="1.5" d="M510.06,-148C529.73,-148 554.56,-148 574.7,-148"/>
<polygon fill="#d46a6a" stroke="#d46a6a" stroke-width="1.5" points="574.48,-150.8 582.48,-148 574.48,-145.2 574.48,-150.8"/>
</g>
<!-- rel_2&#45;&gt;unknown.labels -->
<g id="edge13" class="edge">
<title>rel_2&#45;&gt;unknown.labels</title>
<path fill="none" stroke="#d46a6a" stroke-width="1.5" d="M1130.81,-18C1146.86,-18 1164.14,-18 1178.91,-18"/>
<polygon fill="#d46a6a" stroke="#d46a6a" stroke-width="1.5" points="1178.9,-20.8 1186.9,-18 1178.9,-15.2 1178.9,-20.8"/>
</g>
<!-- rel_3&#45;&gt;unknown.nodes -->
<g id="edge15" class="edge">
<title>rel_3&#45;&gt;unknown.nodes</title>
<path fill="none" stroke="#d46a6a" stroke-width="1.5" d="M202.13,-83C227.05,-83 264.2,-83 291.81,-83"/>
<polygon fill="#d46a6a" stroke="#d46a6a" stroke-width="1.5" points="291.62,-85.8 299.62,-83 291.62,-80.2 291.62,-85.8"/>
</g>
<!-- rel_4&#45;&gt;unknown.network_structure -->
<g id="edge17" class="edge">
<title>rel_4&#45;&gt;unknown.network_structure</title>
<path fill="none" stroke="#d46a6a" stroke-width="1.5" d="M784.76,-83C805.84,-83 835.32,-83 861.07,-83"/>
<polygon fill="#d46a6a" stroke="#d46a6a" stroke-width="1.5" points="860.82,-85.8 868.82,-83 860.82,-80.2 860.82,-85.8"/>
</g>
</g>
</svg>
