<?xml version="1.0" encoding="UTF-8" standalone="no"?>
<!DOCTYPE svg PUBLIC "-//W3C//DTD SVG 1.1//EN"
 "http://www.w3.org/Graphics/SVG/1.1/DTD/svg11.dtd">
<!-- Generated by graphviz version 14.1.5 (20260411.2331)
 -->
<!-- Title: VASTC.183.14(1).png Pages: 1 -->
<svg width="823pt" height="245pt"
 viewBox="0.00 0.00 823.00 245.00" xmlns="http://www.w3.org/2000/svg" xmlns:xlink="http://www.w3.org/1999/xlink">
<g id="graph0" class="graph" transform="scale(1 1) rotate(0) translate(4 241.25)">
<title>VASTC.183.14(1).png</title>
<polygon fill="white" stroke="none" points="-4,4 -4,-241.25 819,-241.25 819,4 -4,4"/>
<text xml:space="preserve" text-anchor="start" x="340" y="-216.95" font-family="Arial" font-weight="bold" font-size="14.00">VASTC.183.14(1).png</text>
<text xml:space="preserve" text-anchor="start" x="365.5" y="-197" font-family="Arial" font-size="11.00">Text &#160;| &#160;VC = 0.62</text>
<path fill="#b8e6b8" stroke="none" d="M198.12,-172C198.12,-172 206.12,-172 206.12,-172 209.12,-172 212.12,-175 212.12,-178 212.12,-178 212.12,-184 212.12,-184 212.12,-187 209.12,-190 206.12,-190 206.12,-190 198.12,-190 198.12,-190 195.12,-190 192.12,-187 192.12,-184 192.12,-184 192.12,-178 192.12,-178 192.12,-175 195.12,-172 198.12,-172"/>
<path fill="none" stroke="black" d="M198.12,-172C198.12,-172 206.12,-172 206.12,-172 209.12,-172 212.12,-175 212.12,-178 212.12,-178 212.12,-184 212.12,-184 212.12,-187 209.12,-190 206.12,-190 206.12,-190 198.12,-190 198.12,-190 195.12,-190 192.12,-187 192.12,-184 192.12,-184 192.12,-178 192.12,-178 192.12,-175 195.12,-172 198.12,-172"/>
<text xml:space="preserve" text-anchor="start" x="200.62" y="-177.25" font-family="Arial" font-size="10.00"> </text>
<text xml:space="preserve" text-anchor="start" x="216.12" y="-177.25" font-family="Arial" font-size="10.00">Object</text>
<path fill="#c7b8e6" stroke="none" d="M254.62,-172C254.62,-172 262.62,-172 262.62,-172 265.62,-172 268.62,-175 268.62,-178 268.62,-178 268.62,-184 268.62,-184 268.62,-187 265.62,-190 262.62,-190 262.62,-190 254.62,-190 254.62,-190 251.62,-190 248.62,-187 248.62,-184 248.62,-184 248.62,-178 248.62,-178 248.62,-175 251.62,-172 254.62,-172"/>
<path fill="none" stroke="black" d="M254.62,-172C254.62,-172 262.62,-172 262.62,-172 265.62,-172 268.62,-175 268.62,-178 268.62,-178 268.62,-184 268.62,-184 268.62,-187 265.62,-190 262.62,-190 262.62,-190 254.62,-190 254.62,-190 251.62,-190 248.62,-187 248.62,-184 248.62,-184 248.62,-178 248.62,-178 248.62,-175 251.62,-172 254.62,-172"/>
<text xml:space="preserve" text-anchor="start" x="257.12" y="-177.25" font-family="Arial" font-size="10.00"> </text>
<text xml:space="preserve" text-anchor="start" x="272.62" y="-177.25" font-family="Arial" font-size="10.00">Attribute</text>
<path fill="#f5b8b8" stroke="none" d="M319.38,-172C319.38,-172 327.38,-172 327.38,-172 330.38,-172 333.38,-175 333.38,-178 333.38,-178 333.38,-184 333.38,-184 333.38,-187 330.38,-190 327.38,-190 327.38,-190 319.38,-190 319.38,-190 316.38,-190 313.38,-187 313.38,-184 313.38,-184 313.38,-178 313.38,-178 313.38,-175 316.38,-172 319.38,-172"/>
<path fill="none" stroke="black" d="M319.38,-172C319.38,-172 327.38,-172 327.38,-172 330.38,-172 333.38,-175 333.38,-178 333.38,-178 333.38,-184 333.38,-184 333.38,-187 330.38,-190 327.38,-190 327.38,-190 319.38,-190 319.38,-190 316.38,-190 313.38,-187 313.38,-184 313.38,-184 313.38,-178 313.38,-178 313.38,-175 316.38,-172 319.38,-172"/>
<text xml:space="preserve" text-anchor="start" x="321.88" y="-177.25" font-family="Arial" font-size="10.00"> </text>
<text xml:space="preserve" text-anchor="start" x="337.38" y="-177.25" font-family="Arial" font-size="10.00">Relationship</text>
<text xml:space="preserve" text-anchor="start" x="397.38" y="-178.5" font-family="Arial" font-weight="bold" font-size="10.00">(+)</text>
<text xml:space="preserve" text-anchor="start" x="409.38" y="-178.5" font-family="Arial" font-size="10.00"> increases complexity</text>
<text xml:space="preserve" text-anchor="start" x="510.62" y="-178.5" font-family="Arial" font-weight="bold" font-size="10.00">(−)</text>
<text xml:space="preserve" text-anchor="start" x="522.62" y="-178.5" font-family="Arial" font-size="10.00"> decreases complexity</text>
<!-- text.label -->
<g id="node1" class="node">
<title>text.label</title>
<path fill="#b8e6b8" stroke="#2c3e50" stroke-width="1.8" d="M42,-99C42,-99 12,-99 12,-99 6,-99 0,-93 0,-87 0,-87 0,-75 0,-75 0,-69 6,-63 12,-63 12,-63 42,-63 42,-63 48,-63 54,-69 54,-75 54,-75 54,-87 54,-87 54,-93 48,-99 42,-99"/>
<text xml:space="preserve" text-anchor="middle" x="27" y="-77.5" font-family="Arial" font-size="10.00" fill="#1a1a1a">text</text>
</g>
<!-- attr_1 -->
<g id="node4" class="node">
<title>attr_1</title>
<path fill="#c7b8e6" stroke="#7f8c8d" stroke-width="1.2" d="M245.75,-164C245.75,-164 109,-164 109,-164 103,-164 97,-158 97,-152 97,-152 97,-140 97,-140 97,-134 103,-128 109,-128 109,-128 245.75,-128 245.75,-128 251.75,-128 257.75,-134 257.75,-140 257.75,-140 257.75,-152 257.75,-152 257.75,-158 251.75,-164 245.75,-164"/>
<text xml:space="preserve" text-anchor="middle" x="177.38" y="-142.5" font-family="Arial" font-size="10.00" fill="#1a1a1a">(−) partially understandable conte</text>
</g>
<!-- text.label&#45;&gt;attr_1 -->
<g id="edge1" class="edge">
<title>text.label&#45;&gt;attr_1</title>
<path fill="none" stroke="#aaaaaa" d="M54.69,-94.25C67.41,-100.44 82.9,-107.79 97,-114 104.83,-117.45 113.16,-120.96 121.36,-124.34"/>
<polygon fill="#aaaaaa" stroke="#aaaaaa" points="120.35,-126.58 127.76,-126.96 122.21,-122.04 120.35,-126.58"/>
</g>
<!-- rel_1 -->
<g id="node8" class="node">
<title>rel_1</title>
<path fill="#f5b8b8" stroke="#d46a6a" stroke-width="1.2" d="M199.62,-99C199.62,-99 155.12,-99 155.12,-99 149.12,-99 143.12,-93 143.12,-87 143.12,-87 143.12,-75 143.12,-75 143.12,-69 149.12,-63 155.12,-63 155.12,-63 199.62,-63 199.62,-63 205.62,-63 211.62,-69 211.62,-75 211.62,-75 211.62,-87 211.62,-87 211.62,-93 205.62,-99 199.62,-99"/>
<text xml:space="preserve" text-anchor="middle" x="177.38" y="-77.5" font-family="Arial" font-size="10.00" fill="#8b0000">encodes via</text>
</g>
<!-- text.label&#45;&gt;rel_1 -->
<g id="edge6" class="edge">
<title>text.label&#45;&gt;rel_1</title>
<path fill="none" stroke="#d46a6a" stroke-width="1.5" d="M54.87,-81C76.52,-81 107.4,-81 132.62,-81"/>
<polygon fill="#d46a6a" stroke="#d46a6a" stroke-width="1.5" points="132.4,-83.8 140.4,-81 132.4,-78.2 132.4,-83.8"/>
</g>
<!-- unknown.words -->
<g id="node2" class="node">
<title>unknown.words</title>
<path fill="#b8e6b8" stroke="#2c3e50" stroke-width="1.8" d="M342.75,-100C342.75,-100 312.75,-100 312.75,-100 306.75,-100 300.75,-94 300.75,-88 300.75,-88 300.75,-76 300.75,-76 300.75,-70 306.75,-64 312.75,-64 312.75,-64 342.75,-64 342.75,-64 348.75,-64 354.75,-70 354.75,-76 354.75,-76 354.75,-88 354.75,-88 354.75,-94 348.75,-100 342.75,-100"/>
<text xml:space="preserve" text-anchor="middle" x="327.75" y="-78.5" font-family="Arial" font-size="10.00" fill="#1a1a1a">words</text>
</g>
<!-- attr_0 -->
<g id="node5" class="node">
<title>attr_0</title>
<path fill="#c7b8e6" stroke="#7f8c8d" stroke-width="1.2" d="M535.25,-166C535.25,-166 409.75,-166 409.75,-166 403.75,-166 397.75,-160 397.75,-154 397.75,-154 397.75,-142 397.75,-142 397.75,-136 403.75,-130 409.75,-130 409.75,-130 535.25,-130 535.25,-130 541.25,-130 547.25,-136 547.25,-142 547.25,-142 547.25,-154 547.25,-154 547.25,-160 541.25,-166 535.25,-166"/>
<text xml:space="preserve" text-anchor="middle" x="472.5" y="-144.5" font-family="Arial" font-size="10.00" fill="#1a1a1a">(−) recognizable familiar words</text>
</g>
<!-- unknown.words&#45;&gt;attr_0 -->
<g id="edge2" class="edge">
<title>unknown.words&#45;&gt;attr_0</title>
<path fill="none" stroke="#aaaaaa" d="M355.47,-95.54C368.21,-101.9 383.69,-109.49 397.75,-116 405.06,-119.39 412.83,-122.87 420.48,-126.24"/>
<polygon fill="#aaaaaa" stroke="#aaaaaa" points="419.28,-128.39 426.67,-128.96 421.24,-123.9 419.28,-128.39"/>
</g>
<!-- rel_0 -->
<g id="node7" class="node">
<title>rel_0</title>
<path fill="#f5b8b8" stroke="#d46a6a" stroke-width="1.2" d="M487.5,-101C487.5,-101 457.5,-101 457.5,-101 451.5,-101 445.5,-95 445.5,-89 445.5,-89 445.5,-77 445.5,-77 445.5,-71 451.5,-65 457.5,-65 457.5,-65 487.5,-65 487.5,-65 493.5,-65 499.5,-71 499.5,-77 499.5,-77 499.5,-89 499.5,-89 499.5,-95 493.5,-101 487.5,-101"/>
<text xml:space="preserve" text-anchor="middle" x="472.5" y="-79.5" font-family="Arial" font-size="10.00" fill="#8b0000">reduces</text>
</g>
<!-- unknown.words&#45;&gt;rel_0 -->
<g id="edge4" class="edge">
<title>unknown.words&#45;&gt;rel_0</title>
<path fill="none" stroke="#d46a6a" stroke-width="1.5" d="M355.6,-82.19C378.07,-82.35 410.35,-82.57 435.14,-82.75"/>
<polygon fill="#d46a6a" stroke="#d46a6a" stroke-width="1.5" points="434.96,-85.54 442.98,-82.8 435,-79.94 434.96,-85.54"/>
</g>
<!-- rel_2 -->
<g id="node9" class="node">
<title>rel_2</title>
<path fill="#f5b8b8" stroke="#d46a6a" stroke-width="1.2" d="M513.88,-36C513.88,-36 431.12,-36 431.12,-36 425.12,-36 419.12,-30 419.12,-24 419.12,-24 419.12,-12 419.12,-12 419.12,-6 425.12,0 431.12,0 431.12,0 513.88,0 513.88,0 519.88,0 525.88,-6 525.88,-12 525.88,-12 525.88,-24 525.88,-24 525.88,-30 519.88,-36 513.88,-36"/>
<text xml:space="preserve" text-anchor="middle" x="472.5" y="-14.5" font-family="Arial" font-size="10.00" fill="#8b0000">supports decoding of</text>
</g>
<!-- unknown.words&#45;&gt;rel_2 -->
<g id="edge8" class="edge">
<title>unknown.words&#45;&gt;rel_2</title>
<path fill="none" stroke="#d46a6a" stroke-width="1.5" d="M355.62,-69.92C368.38,-64.18 383.85,-57.23 397.75,-51 405.21,-47.65 413.1,-44.12 420.83,-40.66"/>
<polygon fill="#d46a6a" stroke="#d46a6a" stroke-width="1.5" points="421.92,-43.24 428.08,-37.42 419.63,-38.13 421.92,-43.24"/>
</g>
<!-- structure.layout -->
<g id="node3" class="node">
<title>structure.layout</title>
<path fill="#b8e6b8" stroke="#2c3e50" stroke-width="1.8" d="M632.25,-101C632.25,-101 602.25,-101 602.25,-101 596.25,-101 590.25,-95 590.25,-89 590.25,-89 590.25,-77 590.25,-77 590.25,-71 596.25,-65 602.25,-65 602.25,-65 632.25,-65 632.25,-65 638.25,-65 644.25,-71 644.25,-77 644.25,-77 644.25,-89 644.25,-89 644.25,-95 638.25,-101 632.25,-101"/>
<text xml:space="preserve" text-anchor="middle" x="617.25" y="-79.5" font-family="Arial" font-size="10.00" fill="#1a1a1a">layout</text>
</g>
<!-- attr_2 -->
<g id="node6" class="node">
<title>attr_2</title>
<path fill="#c7b8e6" stroke="#7f8c8d" stroke-width="1.2" d="M803,-101C803,-101 699.25,-101 699.25,-101 693.25,-101 687.25,-95 687.25,-89 687.25,-89 687.25,-77 687.25,-77 687.25,-71 693.25,-65 699.25,-65 699.25,-65 803,-65 803,-65 809,-65 815,-71 815,-77 815,-77 815,-89 815,-89 815,-95 809,-101 803,-101"/>
<text xml:space="preserve" text-anchor="middle" x="751.12" y="-79.5" font-family="Arial" font-size="10.00" fill="#1a1a1a">(−) text based visual form</text>
</g>
<!-- structure.layout&#45;&gt;attr_2 -->
<g id="edge3" class="edge">
<title>structure.layout&#45;&gt;attr_2</title>
<path fill="none" stroke="#aaaaaa" d="M644.94,-83C654.78,-83 666.46,-83 678.4,-83"/>
<polygon fill="#aaaaaa" stroke="#aaaaaa" points="678.17,-85.45 685.17,-83 678.17,-80.55 678.17,-85.45"/>
</g>
<!-- rel_0&#45;&gt;structure.layout -->
<g id="edge5" class="edge">
<title>rel_0&#45;&gt;structure.layout</title>
<path fill="none" stroke="#d46a6a" stroke-width="1.5" d="M500.02,-83C522.31,-83 554.42,-83 579.25,-83"/>
<polygon fill="#d46a6a" stroke="#d46a6a" stroke-width="1.5" points="579.12,-85.8 587.12,-83 579.12,-80.2 579.12,-85.8"/>
</g>
<!-- rel_1&#45;&gt;unknown.words -->
<g id="edge7" class="edge">
<title>rel_1&#45;&gt;unknown.words</title>
<path fill="none" stroke="#d46a6a" stroke-width="1.5" d="M212.04,-81.23C235.28,-81.38 266.17,-81.59 290.04,-81.75"/>
<polygon fill="#d46a6a" stroke="#d46a6a" stroke-width="1.5" points="289.84,-84.55 297.86,-81.81 289.88,-78.95 289.84,-84.55"/>
</g>
<!-- rel_2&#45;&gt;text.label -->
<g id="edge9" class="edge">
<title>rel_2&#45;&gt;text.label</title>
<path fill="none" stroke="#d46a6a" stroke-width="1.5" d="M418.73,-16.61C345.31,-15.96 208.8,-19.45 97,-49 85.86,-51.95 74.29,-56.6 63.89,-61.46"/>
<polygon fill="#d46a6a" stroke="#d46a6a" stroke-width="1.5" points="62.71,-58.92 56.75,-64.94 65.16,-63.95 62.71,-58.92"/>
</g>
</g>
</svg>
