<?xml version="1.0" encoding="UTF-8" standalone="no"?>
<!DOCTYPE svg PUBLIC "-//W3C//DTD SVG 1.1//EN"
 "http://www.w3.org/Graphics/SVG/1.1/DTD/svg11.dtd">
<!-- Generated by graphviz version 14.1.5 (20260411.2331)
 -->
<!-- Title: VASTJ.1.10.png Pages: 1 -->
<svg width="876pt" height="375pt"
 viewBox="0.00 0.00 876.00 375.00" xmlns="http://www.w3.org/2000/svg" xmlns:xlink="http://www.w3.org/1999/xlink">
<g id="graph0" class="graph" transform="scale(1 1) rotate(0) translate(4 371.25)">
<title>VASTJ.1.10.png</title>
<polygon fill="white" stroke="none" points="-4,4 -4,-371.25 872.25,-371.25 872.25,4 -4,4"/>
<text xml:space="preserve" text-anchor="start" x="383.5" y="-346.95" font-family="Arial" font-weight="bold" font-size="14.00">VASTJ.1.10.png</text>
<text xml:space="preserve" text-anchor="start" x="379" y="-327" font-family="Arial" font-size="11.00">Node&#45;link &#160;| &#160;VC = 0.84</text>
<path fill="#b8e6b8" stroke="none" d="M224.75,-302C224.75,-302 232.75,-302 232.75,-302 235.75,-302 238.75,-305 238.75,-308 238.75,-308 238.75,-314 238.75,-314 238.75,-317 235.75,-320 232.75,-320 232.75,-320 224.75,-320 224.75,-320 221.75,-320 218.75,-317 218.75,-314 218.75,-314 218.75,-308 218.75,-308 218.75,-305 221.75,-302 224.75,-302"/>
<path fill="none" stroke="black" d="M224.75,-302C224.75,-302 232.75,-302 232.75,-302 235.75,-302 238.75,-305 238.75,-308 238.75,-308 238.75,-314 238.75,-314 238.75,-317 235.75,-320 232.75,-320 232.75,-320 224.75,-320 224.75,-320 221.75,-320 218.75,-317 218.75,-314 218.75,-314 218.75,-308 218.75,-308 218.75,-305 221.75,-302 224.75,-302"/>
<text xml:space="preserve" text-anchor="start" x="227.25" y="-307.25" font-family="Arial" font-size="10.00"> </text>
<text xml:space="preserve" text-anchor="start" x="242.75" y="-307.25" font-family="Arial" font-size="10.00">Object</text>
<path fill="#c7b8e6" stroke="none" d="M281.25,-302C281.25,-302 289.25,-302 289.25,-302 292.25,-302 295.25,-305 295.25,-308 295.25,-308 295.25,-314 295.25,-314 295.25,-317 292.25,-320 289.25,-320 289.25,-320 281.25,-320 281.25,-320 278.25,-320 275.25,-317 275.25,-314 275.25,-314 275.25,-308 275.25,-308 275.25,-305 278.25,-302 281.25,-302"/>
<path fill="none" stroke="black" d="M281.25,-302C281.25,-302 289.25,-302 289.25,-302 292.25,-302 295.25,-305 295.25,-308 295.25,-308 295.25,-314 295.25,-314 295.25,-317 292.25,-320 289.25,-320 289.25,-320 281.25,-320 281.25,-320 278.25,-320 275.25,-317 275.25,-314 275.25,-314 275.25,-308 275.25,-308 275.25,-305 278.25,-302 281.25,-302"/>
<text xml:space="preserve" text-anchor="start" x="283.75" y="-307.25" font-family="Arial" font-size="10.00"> </text>
<text xml:space="preserve" text-anchor="start" x="299.25" y="-307.25" font-family="Arial" font-size="10.00">Attribute</text>
<path fill="#f5b8b8" stroke="none" d="M346,-302C346,-302 354,-302 354,-302 357,-302 360,-305 360,-308 360,-308 360,-314 360,-314 360,-317 357,-320 354,-320 354,-320 346,-320 346,-320 343,-320 340,-317 340,-314 340,-314 340,-308 340,-308 340,-305 343,-302 346,-302"/>
<path fill="none" stroke="black" d="M346,-302C346,-302 354,-302 354,-302 357,-302 360,-305 360,-308 360,-308 360,-314 360,-314 360,-317 357,-320 354,-320 354,-320 346,-320 346,-320 343,-320 340,-317 340,-314 340,-314 340,-308 340,-308 340,-305 343,-302 346,-302"/>
<text xml:space="preserve" text-anchor="start" x="348.5" y="-307.25" font-family="Arial" font-size="10.00"> </text>
<text xml:space="preserve" text-anchor="start" x="364" y="-307.25" font-family="Arial" font-size="10.00">Relationship</text>
<text xml:space="preserve" text-anchor="start" x="424" y="-308.5" font-family="Arial" font-weight="bold" font-size="10.00">(+)</text>
<text xml:space="preserve" text-anchor="start" x="436" y="-308.5" font-family="Arial" font-size="10.00"> increases complexity</text>
<text xml:space="preserve" text-anchor="start" x="537.25" y="-308.5" font-family="Arial" font-weight="bold" font-size="10.00">(−)</text>
<text xml:space="preserve" text-anchor="start" x="549.25" y="-308.5" font-family="Arial" font-size="10.00"> decreases complexity</text>
<!-- unknown.highlighted_node -->
<g id="node1" class="node">
<title>unknown.highlighted_node</title>
<path fill="#b8e6b8" stroke="#2c3e50" stroke-width="1.8" d="M74.5,-231C74.5,-231 12,-231 12,-231 6,-231 0,-225 0,-219 0,-219 0,-207 0,-207 0,-201 6,-195 12,-195 12,-195 74.5,-195 74.5,-195 80.5,-195 86.5,-201 86.5,-207 86.5,-207 86.5,-219 86.5,-219 86.5,-225 80.5,-231 74.5,-231"/>
<text xml:space="preserve" text-anchor="middle" x="43.25" y="-209.5" font-family="Arial" font-size="10.00" fill="#1a1a1a">highlighted node</text>
</g>
<!-- attr_0 -->
<g id="node6" class="node">
<title>attr_0</title>
<path fill="#c7b8e6" stroke="#7f8c8d" stroke-width="1.2" d="M259.88,-166C259.88,-166 164.38,-166 164.38,-166 158.38,-166 152.38,-160 152.38,-154 152.38,-154 152.38,-142 152.38,-142 152.38,-136 158.38,-130 164.38,-130 164.38,-130 259.88,-130 259.88,-130 265.88,-130 271.88,-136 271.88,-142 271.88,-142 271.88,-154 271.88,-154 271.88,-160 265.88,-166 259.88,-166"/>
<text xml:space="preserve" text-anchor="middle" x="212.12" y="-144.5" font-family="Arial" font-size="10.00" fill="#1a1a1a">(+) excessively detailed</text>
</g>
<!-- unknown.highlighted_node&#45;&gt;attr_0 -->
<g id="edge1" class="edge">
<title>unknown.highlighted_node&#45;&gt;attr_0</title>
<path fill="none" stroke="#aaaaaa" d="M87.22,-196.26C108.13,-188.12 133.51,-178.23 155.84,-169.54"/>
<polygon fill="#aaaaaa" stroke="#aaaaaa" points="156.55,-171.89 162.18,-167.06 154.77,-167.32 156.55,-171.89"/>
</g>
<!-- rel_0 -->
<g id="node11" class="node">
<title>rel_0</title>
<path fill="#f5b8b8" stroke="#d46a6a" stroke-width="1.2" d="M234.38,-231C234.38,-231 189.88,-231 189.88,-231 183.88,-231 177.88,-225 177.88,-219 177.88,-219 177.88,-207 177.88,-207 177.88,-201 183.88,-195 189.88,-195 189.88,-195 234.38,-195 234.38,-195 240.38,-195 246.38,-201 246.38,-207 246.38,-207 246.38,-219 246.38,-219 246.38,-225 240.38,-231 234.38,-231"/>
<text xml:space="preserve" text-anchor="middle" x="212.12" y="-209.5" font-family="Arial" font-size="10.00" fill="#8b0000">overwhelms</text>
</g>
<!-- unknown.highlighted_node&#45;&gt;rel_0 -->
<g id="edge6" class="edge">
<title>unknown.highlighted_node&#45;&gt;rel_0</title>
<path fill="none" stroke="#d46a6a" stroke-width="1.5" d="M87.22,-213C111.81,-213 142.59,-213 167.32,-213"/>
<polygon fill="#d46a6a" stroke="#d46a6a" stroke-width="1.5" points="167.24,-215.8 175.24,-213 167.24,-210.2 167.24,-215.8"/>
</g>
<!-- rel_2 -->
<g id="node13" class="node">
<title>rel_2</title>
<path fill="#f5b8b8" stroke="#d46a6a" stroke-width="1.2" d="M238.88,-296C238.88,-296 185.38,-296 185.38,-296 179.38,-296 173.38,-290 173.38,-284 173.38,-284 173.38,-272 173.38,-272 173.38,-266 179.38,-260 185.38,-260 185.38,-260 238.88,-260 238.88,-260 244.88,-260 250.88,-266 250.88,-272 250.88,-272 250.88,-284 250.88,-284 250.88,-290 244.88,-296 238.88,-296"/>
<text xml:space="preserve" text-anchor="middle" x="212.12" y="-274.5" font-family="Arial" font-size="10.00" fill="#8b0000">contrasts with</text>
</g>
<!-- unknown.highlighted_node&#45;&gt;rel_2 -->
<g id="edge10" class="edge">
<title>unknown.highlighted_node&#45;&gt;rel_2</title>
<path fill="none" stroke="#d46a6a" stroke-width="1.5" d="M87.22,-229.74C110.58,-238.84 139.53,-250.11 163.56,-259.47"/>
<polygon fill="#d46a6a" stroke="#d46a6a" stroke-width="1.5" points="162.26,-261.97 170.73,-262.27 164.3,-256.75 162.26,-261.97"/>
</g>
<!-- unknown.node_links -->
<g id="node2" class="node">
<title>unknown.node_links</title>
<path fill="#b8e6b8" stroke="#2c3e50" stroke-width="1.8" d="M61.38,-69C61.38,-69 25.12,-69 25.12,-69 19.12,-69 13.12,-63 13.12,-57 13.12,-57 13.12,-45 13.12,-45 13.12,-39 19.12,-33 25.12,-33 25.12,-33 61.38,-33 61.38,-33 67.38,-33 73.38,-39 73.38,-45 73.38,-45 73.38,-57 73.38,-57 73.38,-63 67.38,-69 61.38,-69"/>
<text xml:space="preserve" text-anchor="middle" x="43.25" y="-47.5" font-family="Arial" font-size="10.00" fill="#1a1a1a">node links</text>
</g>
<!-- attr_1 -->
<g id="node7" class="node">
<title>attr_1</title>
<path fill="#c7b8e6" stroke="#7f8c8d" stroke-width="1.2" d="M282.75,-36C282.75,-36 141.5,-36 141.5,-36 135.5,-36 129.5,-30 129.5,-24 129.5,-24 129.5,-12 129.5,-12 129.5,-6 135.5,0 141.5,0 141.5,0 282.75,0 282.75,0 288.75,0 294.75,-6 294.75,-12 294.75,-12 294.75,-24 294.75,-24 294.75,-30 288.75,-36 282.75,-36"/>
<text xml:space="preserve" text-anchor="middle" x="212.12" y="-14.5" font-family="Arial" font-size="10.00" fill="#1a1a1a">(+) dense overlapping connections</text>
</g>
<!-- unknown.node_links&#45;&gt;attr_1 -->
<g id="edge2" class="edge">
<title>unknown.node_links&#45;&gt;attr_1</title>
<path fill="none" stroke="#aaaaaa" d="M74.08,-45.1C87.38,-42.47 103.82,-39.22 120.64,-35.89"/>
<polygon fill="#aaaaaa" stroke="#aaaaaa" points="121.05,-38.31 127.44,-34.55 120.1,-33.5 121.05,-38.31"/>
</g>
<!-- rel_1 -->
<g id="node12" class="node">
<title>rel_1</title>
<path fill="#f5b8b8" stroke="#d46a6a" stroke-width="1.2" d="M228,-101C228,-101 196.25,-101 196.25,-101 190.25,-101 184.25,-95 184.25,-89 184.25,-89 184.25,-77 184.25,-77 184.25,-71 190.25,-65 196.25,-65 196.25,-65 228,-65 228,-65 234,-65 240,-71 240,-77 240,-77 240,-89 240,-89 240,-95 234,-101 228,-101"/>
<text xml:space="preserve" text-anchor="middle" x="212.12" y="-79.5" font-family="Arial" font-size="10.00" fill="#8b0000">obscures</text>
</g>
<!-- unknown.node_links&#45;&gt;rel_1 -->
<g id="edge8" class="edge">
<title>unknown.node_links&#45;&gt;rel_1</title>
<path fill="none" stroke="#d46a6a" stroke-width="1.5" d="M74.08,-56.72C102.05,-62.08 143.94,-70.12 174.04,-75.89"/>
<polygon fill="#d46a6a" stroke="#d46a6a" stroke-width="1.5" points="173.15,-78.57 181.53,-77.33 174.2,-73.07 173.15,-78.57"/>
</g>
<!-- unknown.detail_information -->
<g id="node3" class="node">
<title>unknown.detail_information</title>
<path fill="#b8e6b8" stroke="#2c3e50" stroke-width="1.8" d="M416,-149C416,-149 349.75,-149 349.75,-149 343.75,-149 337.75,-143 337.75,-137 337.75,-137 337.75,-125 337.75,-125 337.75,-119 343.75,-113 349.75,-113 349.75,-113 416,-113 416,-113 422,-113 428,-119 428,-125 428,-125 428,-137 428,-137 428,-143 422,-149 416,-149"/>
<text xml:space="preserve" text-anchor="middle" x="382.88" y="-127.5" font-family="Arial" font-size="10.00" fill="#1a1a1a">detail information</text>
</g>
<!-- attr_2 -->
<g id="node8" class="node">
<title>attr_2</title>
<path fill="#c7b8e6" stroke="#7f8c8d" stroke-width="1.2" d="M569.12,-182C569.12,-182 499.12,-182 499.12,-182 493.12,-182 487.12,-176 487.12,-170 487.12,-170 487.12,-158 487.12,-158 487.12,-152 493.12,-146 499.12,-146 499.12,-146 569.12,-146 569.12,-146 575.12,-146 581.12,-152 581.12,-158 581.12,-158 581.12,-170 581.12,-170 581.12,-176 575.12,-182 569.12,-182"/>
<text xml:space="preserve" text-anchor="middle" x="534.12" y="-160.5" font-family="Arial" font-size="10.00" fill="#1a1a1a">(+) hard to extract</text>
</g>
<!-- unknown.detail_information&#45;&gt;attr_2 -->
<g id="edge3" class="edge">
<title>unknown.detail_information&#45;&gt;attr_2</title>
<path fill="none" stroke="#aaaaaa" d="M428.65,-140.9C444.37,-144.38 462.2,-148.32 478.63,-151.95"/>
<polygon fill="#aaaaaa" stroke="#aaaaaa" points="477.72,-154.26 485.09,-153.38 478.78,-149.47 477.72,-154.26"/>
</g>
<!-- rel_3 -->
<g id="node14" class="node">
<title>rel_3</title>
<path fill="#f5b8b8" stroke="#d46a6a" stroke-width="1.2" d="M570.62,-117C570.62,-117 497.62,-117 497.62,-117 491.62,-117 485.62,-111 485.62,-105 485.62,-105 485.62,-93 485.62,-93 485.62,-87 491.62,-81 497.62,-81 497.62,-81 570.62,-81 570.62,-81 576.62,-81 582.62,-87 582.62,-93 582.62,-93 582.62,-105 582.62,-105 582.62,-111 576.62,-117 570.62,-117"/>
<text xml:space="preserve" text-anchor="middle" x="534.12" y="-95.5" font-family="Arial" font-size="10.00" fill="#8b0000">increases effort for</text>
</g>
<!-- unknown.detail_information&#45;&gt;rel_3 -->
<g id="edge12" class="edge">
<title>unknown.detail_information&#45;&gt;rel_3</title>
<path fill="none" stroke="#d46a6a" stroke-width="1.5" d="M428.65,-121.4C443.31,-118.26 459.79,-114.72 475.27,-111.4"/>
<polygon fill="#d46a6a" stroke="#d46a6a" stroke-width="1.5" points="475.8,-114.15 483.04,-109.74 474.63,-108.68 475.8,-114.15"/>
</g>
<!-- unknown.other_nodes -->
<g id="node4" class="node">
<title>unknown.other_nodes</title>
<path fill="#b8e6b8" stroke="#2c3e50" stroke-width="1.8" d="M404.38,-296C404.38,-296 361.38,-296 361.38,-296 355.38,-296 349.38,-290 349.38,-284 349.38,-284 349.38,-272 349.38,-272 349.38,-266 355.38,-260 361.38,-260 361.38,-260 404.38,-260 404.38,-260 410.38,-260 416.38,-266 416.38,-272 416.38,-272 416.38,-284 416.38,-284 416.38,-290 410.38,-296 404.38,-296"/>
<text xml:space="preserve" text-anchor="middle" x="382.88" y="-274.5" font-family="Arial" font-size="10.00" fill="#1a1a1a">other nodes</text>
</g>
<!-- attr_3 -->
<g id="node9" class="node">
<title>attr_3</title>
<path fill="#c7b8e6" stroke="#7f8c8d" stroke-width="1.2" d="M585.25,-296C585.25,-296 483,-296 483,-296 477,-296 471,-290 471,-284 471,-284 471,-272 471,-272 471,-266 477,-260 483,-260 483,-260 585.25,-260 585.25,-260 591.25,-260 597.25,-266 597.25,-272 597.25,-272 597.25,-284 597.25,-284 597.25,-290 591.25,-296 585.25,-296"/>
<text xml:space="preserve" text-anchor="middle" x="534.12" y="-274.5" font-family="Arial" font-size="10.00" fill="#1a1a1a">(−) comparatively simpler</text>
</g>
<!-- unknown.other_nodes&#45;&gt;attr_3 -->
<g id="edge4" class="edge">
<title>unknown.other_nodes&#45;&gt;attr_3</title>
<path fill="none" stroke="#aaaaaa" d="M417,-278C430.45,-278 446.55,-278 462.41,-278"/>
<polygon fill="#aaaaaa" stroke="#aaaaaa" points="462.15,-280.45 469.15,-278 462.15,-275.55 462.15,-280.45"/>
</g>
<!-- unknown.overall_layout -->
<g id="node5" class="node">
<title>unknown.overall_layout</title>
<path fill="#b8e6b8" stroke="#2c3e50" stroke-width="1.8" d="M702,-117C702,-117 652.25,-117 652.25,-117 646.25,-117 640.25,-111 640.25,-105 640.25,-105 640.25,-93 640.25,-93 640.25,-87 646.25,-81 652.25,-81 652.25,-81 702,-81 702,-81 708,-81 714,-87 714,-93 714,-93 714,-105 714,-105 714,-111 708,-117 702,-117"/>
<text xml:space="preserve" text-anchor="middle" x="677.12" y="-95.5" font-family="Arial" font-size="10.00" fill="#1a1a1a">overall layout</text>
</g>
<!-- attr_4 -->
<g id="node10" class="node">
<title>attr_4</title>
<path fill="#c7b8e6" stroke="#7f8c8d" stroke-width="1.2" d="M856.25,-117C856.25,-117 769,-117 769,-117 763,-117 757,-111 757,-105 757,-105 757,-93 757,-93 757,-87 763,-81 769,-81 769,-81 856.25,-81 856.25,-81 862.25,-81 868.25,-87 868.25,-93 868.25,-93 868.25,-105 868.25,-105 868.25,-111 862.25,-117 856.25,-117"/>
<text xml:space="preserve" text-anchor="middle" x="812.62" y="-95.5" font-family="Arial" font-size="10.00" fill="#1a1a1a">(+) difficult to interpret</text>
</g>
<!-- unknown.overall_layout&#45;&gt;attr_4 -->
<g id="edge5" class="edge">
<title>unknown.overall_layout&#45;&gt;attr_4</title>
<path fill="none" stroke="#aaaaaa" d="M714.6,-99C725.04,-99 736.73,-99 748.28,-99"/>
<polygon fill="#aaaaaa" stroke="#aaaaaa" points="748.14,-101.45 755.14,-99 748.14,-96.55 748.14,-101.45"/>
</g>
<!-- rel_0&#45;&gt;unknown.detail_information -->
<g id="edge7" class="edge">
<title>rel_0&#45;&gt;unknown.detail_information</title>
<path fill="none" stroke="#d46a6a" stroke-width="1.5" d="M246.91,-200.47C261.77,-194.66 279.32,-187.42 294.75,-180 310.55,-172.4 327.45,-163.17 342.12,-154.77"/>
<polygon fill="#d46a6a" stroke="#d46a6a" stroke-width="1.5" points="343.44,-157.24 348.97,-150.82 340.64,-152.39 343.44,-157.24"/>
</g>
<!-- rel_1&#45;&gt;unknown.detail_information -->
<g id="edge9" class="edge">
<title>rel_1&#45;&gt;unknown.detail_information</title>
<path fill="none" stroke="#d46a6a" stroke-width="1.5" d="M240.24,-90.71C263.68,-97.38 298.27,-107.22 327.41,-115.51"/>
<polygon fill="#d46a6a" stroke="#d46a6a" stroke-width="1.5" points="326.41,-118.13 334.87,-117.63 327.94,-112.75 326.41,-118.13"/>
</g>
<!-- rel_2&#45;&gt;unknown.other_nodes -->
<g id="edge11" class="edge">
<title>rel_2&#45;&gt;unknown.other_nodes</title>
<path fill="none" stroke="#d46a6a" stroke-width="1.5" d="M251.42,-278C277.37,-278 311.72,-278 338.65,-278"/>
<polygon fill="#d46a6a" stroke="#d46a6a" stroke-width="1.5" points="338.31,-280.8 346.31,-278 338.31,-275.2 338.31,-280.8"/>
</g>
<!-- rel_3&#45;&gt;unknown.overall_layout -->
<g id="edge13" class="edge">
<title>rel_3&#45;&gt;unknown.overall_layout</title>
<path fill="none" stroke="#d46a6a" stroke-width="1.5" d="M582.86,-99C597.92,-99 614.53,-99 629.51,-99"/>
<polygon fill="#d46a6a" stroke="#d46a6a" stroke-width="1.5" points="629.31,-101.8 637.31,-99 629.31,-96.2 629.31,-101.8"/>
</g>
</g>
</svg>
