<?xml version="1.0" encoding="UTF-8" standalone="no"?>
<!DOCTYPE svg PUBLIC "-//W3C//DTD SVG 1.1//EN"
 "http://www.w3.org/Graphics/SVG/1.1/DTD/svg11.dtd">
<!-- Generated by graphviz version 14.1.5 (20260411.2331)
 -->
<!-- Title: VASTC.107.10.png Pages: 1 -->
<svg width="1103pt" height="310pt"
 viewBox="0.00 0.00 1103.00 310.00" xmlns="http://www.w3.org/2000/svg" xmlns:xlink="http://www.w3.org/1999/xlink">
<g id="graph0" class="graph" transform="scale(1 1) rotate(0) translate(4 306.25)">
<title>VASTC.107.10.png</title>
<polygon fill="white" stroke="none" points="-4,4 -4,-306.25 1099,-306.25 1099,4 -4,4"/>
<text xml:space="preserve" text-anchor="start" x="488.25" y="-281.95" font-family="Arial" font-weight="bold" font-size="14.00">VASTC.107.10.png</text>
<text xml:space="preserve" text-anchor="start" x="503.62" y="-262" font-family="Arial" font-size="11.00">Area &#160;| &#160;VC = 0.63</text>
<path fill="#b8e6b8" stroke="none" d="M338.12,-237C338.12,-237 346.12,-237 346.12,-237 349.12,-237 352.12,-240 352.12,-243 352.12,-243 352.12,-249 352.12,-249 352.12,-252 349.12,-255 346.12,-255 346.12,-255 338.12,-255 338.12,-255 335.12,-255 332.12,-252 332.12,-249 332.12,-249 332.12,-243 332.12,-243 332.12,-240 335.12,-237 338.12,-237"/>
<path fill="none" stroke="black" d="M338.12,-237C338.12,-237 346.12,-237 346.12,-237 349.12,-237 352.12,-240 352.12,-243 352.12,-243 352.12,-249 352.12,-249 352.12,-252 349.12,-255 346.12,-255 346.12,-255 338.12,-255 338.12,-255 335.12,-255 332.12,-252 332.12,-249 332.12,-249 332.12,-243 332.12,-243 332.12,-240 335.12,-237 338.12,-237"/>
<text xml:space="preserve" text-anchor="start" x="340.62" y="-242.25" font-family="Arial" font-size="10.00"> </text>
<text xml:space="preserve" text-anchor="start" x="356.12" y="-242.25" font-family="Arial" font-size="10.00">Object</text>
<path fill="#c7b8e6" stroke="none" d="M394.62,-237C394.62,-237 402.62,-237 402.62,-237 405.62,-237 408.62,-240 408.62,-243 408.62,-243 408.62,-249 408.62,-249 408.62,-252 405.62,-255 402.62,-255 402.62,-255 394.62,-255 394.62,-255 391.62,-255 388.62,-252 388.62,-249 388.62,-249 388.62,-243 388.62,-243 388.62,-240 391.62,-237 394.62,-237"/>
<path fill="none" stroke="black" d="M394.62,-237C394.62,-237 402.62,-237 402.62,-237 405.62,-237 408.62,-240 408.62,-243 408.62,-243 408.62,-249 408.62,-249 408.62,-252 405.62,-255 402.62,-255 402.62,-255 394.62,-255 394.62,-255 391.62,-255 388.62,-252 388.62,-249 388.62,-249 388.62,-243 388.62,-243 388.62,-240 391.62,-237 394.62,-237"/>
<text xml:space="preserve" text-anchor="start" x="397.12" y="-242.25" font-family="Arial" font-size="10.00"> </text>
<text xml:space="preserve" text-anchor="start" x="412.62" y="-242.25" font-family="Arial" font-size="10.00">Attribute</text>
<path fill="#f5b8b8" stroke="none" d="M459.38,-237C459.38,-237 467.38,-237 467.38,-237 470.38,-237 473.38,-240 473.38,-243 473.38,-243 473.38,-249 473.38,-249 473.38,-252 470.38,-255 467.38,-255 467.38,-255 459.38,-255 459.38,-255 456.38,-255 453.38,-252 453.38,-249 453.38,-249 453.38,-243 453.38,-243 453.38,-240 456.38,-237 459.38,-237"/>
<path fill="none" stroke="black" d="M459.38,-237C459.38,-237 467.38,-237 467.38,-237 470.38,-237 473.38,-240 473.38,-243 473.38,-243 473.38,-249 473.38,-249 473.38,-252 470.38,-255 467.38,-255 467.38,-255 459.38,-255 459.38,-255 456.38,-255 453.38,-252 453.38,-249 453.38,-249 453.38,-243 453.38,-243 453.38,-240 456.38,-237 459.38,-237"/>
<text xml:space="preserve" text-anchor="start" x="461.88" y="-242.25" font-family="Arial" font-size="10.00"> </text>
<text xml:space="preserve" text-anchor="start" x="477.38" y="-242.25" font-family="Arial" font-size="10.00">Relationship</text>
<text xml:space="preserve" text-anchor="start" x="537.38" y="-243.5" font-family="Arial" font-weight="bold" font-size="10.00">(+)</text>
<text xml:space="preserve" text-anchor="start" x="549.38" y="-243.5" font-family="Arial" font-size="10.00"> increases complexity</text>
<text xml:space="preserve" text-anchor="start" x="650.62" y="-243.5" font-family="Arial" font-weight="bold" font-size="10.00">(−)</text>
<text xml:space="preserve" text-anchor="start" x="662.62" y="-243.5" font-family="Arial" font-size="10.00"> decreases complexity</text>
<!-- mark.area -->
<g id="node1" class="node">
<title>mark.area</title>
<path fill="#b8e6b8" stroke="#2c3e50" stroke-width="1.8" d="M356.75,-36C356.75,-36 316,-36 316,-36 310,-36 304,-30 304,-24 304,-24 304,-12 304,-12 304,-6 310,0 316,0 316,0 356.75,0 356.75,0 362.75,0 368.75,-6 368.75,-12 368.75,-12 368.75,-24 368.75,-24 368.75,-30 362.75,-36 356.75,-36"/>
<text xml:space="preserve" text-anchor="middle" x="336.38" y="-14.5" font-family="Arial" font-size="10.00" fill="#1a1a1a">area marks</text>
</g>
<!-- attr_0 -->
<g id="node7" class="node">
<title>attr_0</title>
<path fill="#c7b8e6" stroke="#7f8c8d" stroke-width="1.2" d="M534.25,-36C534.25,-36 423.75,-36 423.75,-36 417.75,-36 411.75,-30 411.75,-24 411.75,-24 411.75,-12 411.75,-12 411.75,-6 417.75,0 423.75,0 423.75,0 534.25,0 534.25,0 540.25,0 546.25,-6 546.25,-12 546.25,-12 546.25,-24 546.25,-24 546.25,-30 540.25,-36 534.25,-36"/>
<text xml:space="preserve" text-anchor="middle" x="479" y="-14.5" font-family="Arial" font-size="10.00" fill="#1a1a1a">(+) high information density</text>
</g>
<!-- mark.area&#45;&gt;attr_0 -->
<g id="edge1" class="edge">
<title>mark.area&#45;&gt;attr_0</title>
<path fill="none" stroke="#aaaaaa" d="M369.64,-18C379.62,-18 391.07,-18 402.7,-18"/>
<polygon fill="#aaaaaa" stroke="#aaaaaa" points="402.67,-20.45 409.67,-18 402.67,-15.55 402.67,-20.45"/>
</g>
<!-- property.color -->
<g id="node2" class="node">
<title>property.color</title>
<path fill="#b8e6b8" stroke="#2c3e50" stroke-width="1.8" d="M351.38,-166C351.38,-166 321.38,-166 321.38,-166 315.38,-166 309.38,-160 309.38,-154 309.38,-154 309.38,-142 309.38,-142 309.38,-136 315.38,-130 321.38,-130 321.38,-130 351.38,-130 351.38,-130 357.38,-130 363.38,-136 363.38,-142 363.38,-142 363.38,-154 363.38,-154 363.38,-160 357.38,-166 351.38,-166"/>
<text xml:space="preserve" text-anchor="middle" x="336.38" y="-144.5" font-family="Arial" font-size="10.00" fill="#1a1a1a">color</text>
</g>
<!-- attr_1 -->
<g id="node8" class="node">
<title>attr_1</title>
<path fill="#c7b8e6" stroke="#7f8c8d" stroke-width="1.2" d="M530.12,-199C530.12,-199 427.88,-199 427.88,-199 421.88,-199 415.88,-193 415.88,-187 415.88,-187 415.88,-175 415.88,-175 415.88,-169 421.88,-163 427.88,-163 427.88,-163 530.12,-163 530.12,-163 536.12,-163 542.12,-169 542.12,-175 542.12,-175 542.12,-187 542.12,-187 542.12,-193 536.12,-199 530.12,-199"/>
<text xml:space="preserve" text-anchor="middle" x="479" y="-177.5" font-family="Arial" font-size="10.00" fill="#1a1a1a">(+) unclear color mapping</text>
</g>
<!-- property.color&#45;&gt;attr_1 -->
<g id="edge2" class="edge">
<title>property.color&#45;&gt;attr_1</title>
<path fill="none" stroke="#aaaaaa" d="M364.16,-154.28C376.57,-157.2 391.98,-160.81 407.4,-164.43"/>
<polygon fill="#aaaaaa" stroke="#aaaaaa" points="406.61,-166.76 413.98,-165.98 407.73,-161.99 406.61,-166.76"/>
</g>
<!-- rel_0 -->
<g id="node13" class="node">
<title>rel_0</title>
<path fill="#f5b8b8" stroke="#d46a6a" stroke-width="1.2" d="M494.88,-134C494.88,-134 463.12,-134 463.12,-134 457.12,-134 451.12,-128 451.12,-122 451.12,-122 451.12,-110 451.12,-110 451.12,-104 457.12,-98 463.12,-98 463.12,-98 494.88,-98 494.88,-98 500.88,-98 506.88,-104 506.88,-110 506.88,-110 506.88,-122 506.88,-122 506.88,-128 500.88,-134 494.88,-134"/>
<text xml:space="preserve" text-anchor="middle" x="479" y="-112.5" font-family="Arial" font-size="10.00" fill="#8b0000">obscures</text>
</g>
<!-- property.color&#45;&gt;rel_0 -->
<g id="edge7" class="edge">
<title>property.color&#45;&gt;rel_0</title>
<path fill="none" stroke="#d46a6a" stroke-width="1.5" d="M364.16,-141.91C385.91,-136.96 416.83,-129.92 440.96,-124.43"/>
<polygon fill="#d46a6a" stroke="#d46a6a" stroke-width="1.5" points="441.45,-127.19 448.63,-122.68 440.2,-121.73 441.45,-127.19"/>
</g>
<!-- unknown.colormap -->
<g id="node3" class="node">
<title>unknown.colormap</title>
<path fill="#b8e6b8" stroke="#2c3e50" stroke-width="1.8" d="M46.38,-198C46.38,-198 14.62,-198 14.62,-198 8.62,-198 2.62,-192 2.62,-186 2.62,-186 2.62,-174 2.62,-174 2.62,-168 8.62,-162 14.62,-162 14.62,-162 46.38,-162 46.38,-162 52.38,-162 58.38,-168 58.38,-174 58.38,-174 58.38,-186 58.38,-186 58.38,-192 52.38,-198 46.38,-198"/>
<text xml:space="preserve" text-anchor="middle" x="30.5" y="-176.5" font-family="Arial" font-size="10.00" fill="#1a1a1a">colormap</text>
</g>
<!-- attr_2 -->
<g id="node9" class="node">
<title>attr_2</title>
<path fill="#c7b8e6" stroke="#7f8c8d" stroke-width="1.2" d="M242.62,-231C242.62,-231 122.38,-231 122.38,-231 116.38,-231 110.38,-225 110.38,-219 110.38,-219 110.38,-207 110.38,-207 110.38,-201 116.38,-195 122.38,-195 122.38,-195 242.62,-195 242.62,-195 248.62,-195 254.62,-201 254.62,-207 254.62,-207 254.62,-219 254.62,-219 254.62,-225 248.62,-231 242.62,-231"/>
<text xml:space="preserve" text-anchor="middle" x="182.5" y="-209.5" font-family="Arial" font-size="10.00" fill="#1a1a1a">(+) ambiguous color encoding</text>
</g>
<!-- unknown.colormap&#45;&gt;attr_2 -->
<g id="edge3" class="edge">
<title>unknown.colormap&#45;&gt;attr_2</title>
<path fill="none" stroke="#aaaaaa" d="M59.01,-186.05C71.26,-188.75 86.37,-192.07 101.75,-195.45"/>
<polygon fill="#aaaaaa" stroke="#aaaaaa" points="100.96,-197.79 108.32,-196.9 102.01,-193 100.96,-197.79"/>
</g>
<!-- rel_2 -->
<g id="node15" class="node">
<title>rel_2</title>
<path fill="#f5b8b8" stroke="#d46a6a" stroke-width="1.2" d="M240,-166C240,-166 125,-166 125,-166 119,-166 113,-160 113,-154 113,-154 113,-142 113,-142 113,-136 119,-130 125,-130 125,-130 240,-130 240,-130 246,-130 252,-136 252,-142 252,-142 252,-154 252,-154 252,-160 246,-166 240,-166"/>
<text xml:space="preserve" text-anchor="middle" x="182.5" y="-144.5" font-family="Arial" font-size="10.00" fill="#8b0000">complicates interpretation of</text>
</g>
<!-- unknown.colormap&#45;&gt;rel_2 -->
<g id="edge11" class="edge">
<title>unknown.colormap&#45;&gt;rel_2</title>
<path fill="none" stroke="#d46a6a" stroke-width="1.5" d="M59.01,-174.13C71.55,-171.46 87.09,-168.14 102.85,-164.78"/>
<polygon fill="#d46a6a" stroke="#d46a6a" stroke-width="1.5" points="103.21,-167.56 110.45,-163.16 102.04,-162.09 103.21,-167.56"/>
</g>
<!-- unknown.data_detail -->
<g id="node4" class="node">
<title>unknown.data_detail</title>
<path fill="#b8e6b8" stroke="#2c3e50" stroke-width="1.8" d="M638.25,-134C638.25,-134 601.25,-134 601.25,-134 595.25,-134 589.25,-128 589.25,-122 589.25,-122 589.25,-110 589.25,-110 589.25,-104 595.25,-98 601.25,-98 601.25,-98 638.25,-98 638.25,-98 644.25,-98 650.25,-104 650.25,-110 650.25,-110 650.25,-122 650.25,-122 650.25,-128 644.25,-134 638.25,-134"/>
<text xml:space="preserve" text-anchor="middle" x="619.75" y="-112.5" font-family="Arial" font-size="10.00" fill="#1a1a1a">data detail</text>
</g>
<!-- attr_3 -->
<g id="node10" class="node">
<title>attr_3</title>
<path fill="#c7b8e6" stroke="#7f8c8d" stroke-width="1.2" d="M815.75,-167C815.75,-167 705.25,-167 705.25,-167 699.25,-167 693.25,-161 693.25,-155 693.25,-155 693.25,-143 693.25,-143 693.25,-137 699.25,-131 705.25,-131 705.25,-131 815.75,-131 815.75,-131 821.75,-131 827.75,-137 827.75,-143 827.75,-143 827.75,-155 827.75,-155 827.75,-161 821.75,-167 815.75,-167"/>
<text xml:space="preserve" text-anchor="middle" x="760.5" y="-145.5" font-family="Arial" font-size="10.00" fill="#1a1a1a">(+) many detailed elements</text>
</g>
<!-- unknown.data_detail&#45;&gt;attr_3 -->
<g id="edge4" class="edge">
<title>unknown.data_detail&#45;&gt;attr_3</title>
<path fill="none" stroke="#aaaaaa" d="M650.86,-123.16C660.89,-125.55 672.57,-128.32 684.46,-131.15"/>
<polygon fill="#aaaaaa" stroke="#aaaaaa" points="683.87,-133.53 691.24,-132.77 685,-128.76 683.87,-133.53"/>
</g>
<!-- rel_3 -->
<g id="node16" class="node">
<title>rel_3</title>
<path fill="#f5b8b8" stroke="#d46a6a" stroke-width="1.2" d="M782.75,-102C782.75,-102 738.25,-102 738.25,-102 732.25,-102 726.25,-96 726.25,-90 726.25,-90 726.25,-78 726.25,-78 726.25,-72 732.25,-66 738.25,-66 738.25,-66 782.75,-66 782.75,-66 788.75,-66 794.75,-72 794.75,-78 794.75,-78 794.75,-90 794.75,-90 794.75,-96 788.75,-102 782.75,-102"/>
<text xml:space="preserve" text-anchor="middle" x="760.5" y="-80.5" font-family="Arial" font-size="10.00" fill="#8b0000">overwhelms</text>
</g>
<!-- unknown.data_detail&#45;&gt;rel_3 -->
<g id="edge13" class="edge">
<title>unknown.data_detail&#45;&gt;rel_3</title>
<path fill="none" stroke="#d46a6a" stroke-width="1.5" d="M650.86,-109.06C669.98,-104.64 695.05,-98.86 716.29,-93.97"/>
<polygon fill="#d46a6a" stroke="#d46a6a" stroke-width="1.5" points="716.67,-96.75 723.84,-92.23 715.41,-91.29 716.67,-96.75"/>
</g>
<!-- unknown.draw_style -->
<g id="node5" class="node">
<title>unknown.draw_style</title>
<path fill="#b8e6b8" stroke="#2c3e50" stroke-width="1.8" d="M49,-68C49,-68 12,-68 12,-68 6,-68 0,-62 0,-56 0,-56 0,-44 0,-44 0,-38 6,-32 12,-32 12,-32 49,-32 49,-32 55,-32 61,-38 61,-44 61,-44 61,-56 61,-56 61,-62 55,-68 49,-68"/>
<text xml:space="preserve" text-anchor="middle" x="30.5" y="-46.5" font-family="Arial" font-size="10.00" fill="#1a1a1a">draw style</text>
</g>
<!-- attr_4 -->
<g id="node11" class="node">
<title>attr_4</title>
<path fill="#c7b8e6" stroke="#7f8c8d" stroke-width="1.2" d="M249,-101C249,-101 116,-101 116,-101 110,-101 104,-95 104,-89 104,-89 104,-77 104,-77 104,-71 110,-65 116,-65 116,-65 249,-65 249,-65 255,-65 261,-71 261,-77 261,-77 261,-89 261,-89 261,-95 255,-101 249,-101"/>
<text xml:space="preserve" text-anchor="middle" x="182.5" y="-79.5" font-family="Arial" font-size="10.00" fill="#1a1a1a">(+) unconventional drawing style</text>
</g>
<!-- unknown.draw_style&#45;&gt;attr_4 -->
<g id="edge5" class="edge">
<title>unknown.draw_style&#45;&gt;attr_4</title>
<path fill="none" stroke="#aaaaaa" d="M61.85,-56.68C71.73,-58.85 83.23,-61.38 95.12,-64"/>
<polygon fill="#aaaaaa" stroke="#aaaaaa" points="94.56,-66.38 101.93,-65.49 95.62,-61.6 94.56,-66.38"/>
</g>
<!-- rel_1 -->
<g id="node14" class="node">
<title>rel_1</title>
<path fill="#f5b8b8" stroke="#d46a6a" stroke-width="1.2" d="M238.88,-36C238.88,-36 126.12,-36 126.12,-36 120.12,-36 114.12,-30 114.12,-24 114.12,-24 114.12,-12 114.12,-12 114.12,-6 120.12,0 126.12,0 126.12,0 238.88,0 238.88,0 244.88,0 250.88,-6 250.88,-12 250.88,-12 250.88,-24 250.88,-24 250.88,-30 244.88,-36 238.88,-36"/>
<text xml:space="preserve" text-anchor="middle" x="182.5" y="-14.5" font-family="Arial" font-size="10.00" fill="#8b0000">increases visual complexity</text>
</g>
<!-- unknown.draw_style&#45;&gt;rel_1 -->
<g id="edge9" class="edge">
<title>unknown.draw_style&#45;&gt;rel_1</title>
<path fill="none" stroke="#d46a6a" stroke-width="1.5" d="M61.85,-43.52C74.14,-40.9 88.95,-37.74 103.89,-34.56"/>
<polygon fill="#d46a6a" stroke="#d46a6a" stroke-width="1.5" points="104.24,-37.34 111.48,-32.94 103.07,-31.87 104.24,-37.34"/>
</g>
<!-- text.axis_label -->
<g id="node6" class="node">
<title>text.axis_label</title>
<path fill="#b8e6b8" stroke="#2c3e50" stroke-width="1.8" d="M916,-102C916,-102 882.75,-102 882.75,-102 876.75,-102 870.75,-96 870.75,-90 870.75,-90 870.75,-78 870.75,-78 870.75,-72 876.75,-66 882.75,-66 882.75,-66 916,-66 916,-66 922,-66 928,-72 928,-78 928,-78 928,-90 928,-90 928,-96 922,-102 916,-102"/>
<text xml:space="preserve" text-anchor="middle" x="899.38" y="-80.5" font-family="Arial" font-size="10.00" fill="#1a1a1a">axis label</text>
</g>
<!-- attr_5 -->
<g id="node12" class="node">
<title>attr_5</title>
<path fill="#c7b8e6" stroke="#7f8c8d" stroke-width="1.2" d="M1083,-102C1083,-102 983,-102 983,-102 977,-102 971,-96 971,-90 971,-90 971,-78 971,-78 971,-72 977,-66 983,-66 983,-66 1083,-66 1083,-66 1089,-66 1095,-72 1095,-78 1095,-78 1095,-90 1095,-90 1095,-96 1089,-102 1083,-102"/>
<text xml:space="preserve" text-anchor="middle" x="1033" y="-80.5" font-family="Arial" font-size="10.00" fill="#1a1a1a">(−) moderate label clarity</text>
</g>
<!-- text.axis_label&#45;&gt;attr_5 -->
<g id="edge6" class="edge">
<title>text.axis_label&#45;&gt;attr_5</title>
<path fill="none" stroke="#aaaaaa" d="M928.61,-84C938.62,-84 950.36,-84 962.28,-84"/>
<polygon fill="#aaaaaa" stroke="#aaaaaa" points="962.03,-86.45 969.03,-84 962.03,-81.55 962.03,-86.45"/>
</g>
<!-- rel_0&#45;&gt;unknown.data_detail -->
<g id="edge8" class="edge">
<title>rel_0&#45;&gt;unknown.data_detail</title>
<path fill="none" stroke="#d46a6a" stroke-width="1.5" d="M507.41,-116C527.68,-116 555.61,-116 578.43,-116"/>
<polygon fill="#d46a6a" stroke="#d46a6a" stroke-width="1.5" points="578.23,-118.8 586.23,-116 578.23,-113.2 578.23,-118.8"/>
</g>
<!-- rel_1&#45;&gt;mark.area -->
<g id="edge10" class="edge">
<title>rel_1&#45;&gt;mark.area</title>
<path fill="none" stroke="#d46a6a" stroke-width="1.5" d="M251.44,-18C265.65,-18 280.24,-18 293.18,-18"/>
<polygon fill="#d46a6a" stroke="#d46a6a" stroke-width="1.5" points="292.9,-20.8 300.9,-18 292.9,-15.2 292.9,-20.8"/>
</g>
<!-- rel_2&#45;&gt;property.color -->
<g id="edge12" class="edge">
<title>rel_2&#45;&gt;property.color</title>
<path fill="none" stroke="#d46a6a" stroke-width="1.5" d="M252.33,-148C268.21,-148 284.52,-148 298.43,-148"/>
<polygon fill="#d46a6a" stroke="#d46a6a" stroke-width="1.5" points="298.28,-150.8 306.28,-148 298.28,-145.2 298.28,-150.8"/>
</g>
<!-- rel_3&#45;&gt;text.axis_label -->
<g id="edge14" class="edge">
<title>rel_3&#45;&gt;text.axis_label</title>
<path fill="none" stroke="#d46a6a" stroke-width="1.5" d="M795.33,-84C814.88,-84 839.55,-84 859.84,-84"/>
<polygon fill="#d46a6a" stroke="#d46a6a" stroke-width="1.5" points="859.74,-86.8 867.74,-84 859.74,-81.2 859.74,-86.8"/>
</g>
</g>
</svg>
