<?xml version="1.0" encoding="UTF-8" standalone="no"?>
<!DOCTYPE svg PUBLIC "-//W3C//DTD SVG 1.1//EN"
 "http://www.w3.org/Graphics/SVG/1.1/DTD/svg11.dtd">
<!-- Generated by graphviz version 14.1.5 (20260411.2331)
 -->
<!-- Title: VASTJ.270.11.png Pages: 1 -->
<svg width="1062pt" height="343pt"
 viewBox="0.00 0.00 1062.00 343.00" xmlns="http://www.w3.org/2000/svg" xmlns:xlink="http://www.w3.org/1999/xlink">
<g id="graph0" class="graph" transform="scale(1 1) rotate(0) translate(4 339.25)">
<title>VASTJ.270.11.png</title>
<polygon fill="white" stroke="none" points="-4,4 -4,-339.25 1057.75,-339.25 1057.75,4 -4,4"/>
<text xml:space="preserve" text-anchor="start" x="469.12" y="-314.95" font-family="Arial" font-weight="bold" font-size="14.00">VASTJ.270.11.png</text>
<text xml:space="preserve" text-anchor="start" x="484.5" y="-295" font-family="Arial" font-size="11.00">Grid &#160;| &#160;VC = 0.78</text>
<path fill="#b8e6b8" stroke="none" d="M317.5,-270C317.5,-270 325.5,-270 325.5,-270 328.5,-270 331.5,-273 331.5,-276 331.5,-276 331.5,-282 331.5,-282 331.5,-285 328.5,-288 325.5,-288 325.5,-288 317.5,-288 317.5,-288 314.5,-288 311.5,-285 311.5,-282 311.5,-282 311.5,-276 311.5,-276 311.5,-273 314.5,-270 317.5,-270"/>
<path fill="none" stroke="black" d="M317.5,-270C317.5,-270 325.5,-270 325.5,-270 328.5,-270 331.5,-273 331.5,-276 331.5,-276 331.5,-282 331.5,-282 331.5,-285 328.5,-288 325.5,-288 325.5,-288 317.5,-288 317.5,-288 314.5,-288 311.5,-285 311.5,-282 311.5,-282 311.5,-276 311.5,-276 311.5,-273 314.5,-270 317.5,-270"/>
<text xml:space="preserve" text-anchor="start" x="320" y="-275.25" font-family="Arial" font-size="10.00"> </text>
<text xml:space="preserve" text-anchor="start" x="335.5" y="-275.25" font-family="Arial" font-size="10.00">Object</text>
<path fill="#c7b8e6" stroke="none" d="M374,-270C374,-270 382,-270 382,-270 385,-270 388,-273 388,-276 388,-276 388,-282 388,-282 388,-285 385,-288 382,-288 382,-288 374,-288 374,-288 371,-288 368,-285 368,-282 368,-282 368,-276 368,-276 368,-273 371,-270 374,-270"/>
<path fill="none" stroke="black" d="M374,-270C374,-270 382,-270 382,-270 385,-270 388,-273 388,-276 388,-276 388,-282 388,-282 388,-285 385,-288 382,-288 382,-288 374,-288 374,-288 371,-288 368,-285 368,-282 368,-282 368,-276 368,-276 368,-273 371,-270 374,-270"/>
<text xml:space="preserve" text-anchor="start" x="376.5" y="-275.25" font-family="Arial" font-size="10.00"> </text>
<text xml:space="preserve" text-anchor="start" x="392" y="-275.25" font-family="Arial" font-size="10.00">Attribute</text>
<path fill="#f5b8b8" stroke="none" d="M438.75,-270C438.75,-270 446.75,-270 446.75,-270 449.75,-270 452.75,-273 452.75,-276 452.75,-276 452.75,-282 452.75,-282 452.75,-285 449.75,-288 446.75,-288 446.75,-288 438.75,-288 438.75,-288 435.75,-288 432.75,-285 432.75,-282 432.75,-282 432.75,-276 432.75,-276 432.75,-273 435.75,-270 438.75,-270"/>
<path fill="none" stroke="black" d="M438.75,-270C438.75,-270 446.75,-270 446.75,-270 449.75,-270 452.75,-273 452.75,-276 452.75,-276 452.75,-282 452.75,-282 452.75,-285 449.75,-288 446.75,-288 446.75,-288 438.75,-288 438.75,-288 435.75,-288 432.75,-285 432.75,-282 432.75,-282 432.75,-276 432.75,-276 432.75,-273 435.75,-270 438.75,-270"/>
<text xml:space="preserve" text-anchor="start" x="441.25" y="-275.25" font-family="Arial" font-size="10.00"> </text>
<text xml:space="preserve" text-anchor="start" x="456.75" y="-275.25" font-family="Arial" font-size="10.00">Relationship</text>
<text xml:space="preserve" text-anchor="start" x="516.75" y="-276.5" font-family="Arial" font-weight="bold" font-size="10.00">(+)</text>
<text xml:space="preserve" text-anchor="start" x="528.75" y="-276.5" font-family="Arial" font-size="10.00"> increases complexity</text>
<text xml:space="preserve" text-anchor="start" x="630" y="-276.5" font-family="Arial" font-weight="bold" font-size="10.00">(−)</text>
<text xml:space="preserve" text-anchor="start" x="642" y="-276.5" font-family="Arial" font-size="10.00"> decreases complexity</text>
<!-- unknown.grid_cells -->
<g id="node1" class="node">
<title>unknown.grid_cells</title>
<path fill="#b8e6b8" stroke="#2c3e50" stroke-width="1.8" d="M304.75,-134C304.75,-134 273.75,-134 273.75,-134 267.75,-134 261.75,-128 261.75,-122 261.75,-122 261.75,-110 261.75,-110 261.75,-104 267.75,-98 273.75,-98 273.75,-98 304.75,-98 304.75,-98 310.75,-98 316.75,-104 316.75,-110 316.75,-110 316.75,-122 316.75,-122 316.75,-128 310.75,-134 304.75,-134"/>
<text xml:space="preserve" text-anchor="middle" x="289.25" y="-112.5" font-family="Arial" font-size="10.00" fill="#1a1a1a">grid cells</text>
</g>
<!-- attr_1 -->
<g id="node6" class="node">
<title>attr_1</title>
<path fill="#c7b8e6" stroke="#7f8c8d" stroke-width="1.2" d="M483,-166C483,-166 371.75,-166 371.75,-166 365.75,-166 359.75,-160 359.75,-154 359.75,-154 359.75,-142 359.75,-142 359.75,-136 365.75,-130 371.75,-130 371.75,-130 483,-130 483,-130 489,-130 495,-136 495,-142 495,-142 495,-154 495,-154 495,-160 489,-166 483,-166"/>
<text xml:space="preserve" text-anchor="middle" x="427.38" y="-144.5" font-family="Arial" font-size="10.00" fill="#1a1a1a">(+) many discrete elements</text>
</g>
<!-- unknown.grid_cells&#45;&gt;attr_1 -->
<g id="edge1" class="edge">
<title>unknown.grid_cells&#45;&gt;attr_1</title>
<path fill="none" stroke="#aaaaaa" d="M317.47,-122.4C327.4,-124.73 339.17,-127.5 351.24,-130.34"/>
<polygon fill="#aaaaaa" stroke="#aaaaaa" points="350.35,-132.64 357.72,-131.86 351.47,-127.87 350.35,-132.64"/>
</g>
<!-- rel_3 -->
<g id="node15" class="node">
<title>rel_3</title>
<path fill="#f5b8b8" stroke="#d46a6a" stroke-width="1.2" d="M453,-101C453,-101 401.75,-101 401.75,-101 395.75,-101 389.75,-95 389.75,-89 389.75,-89 389.75,-77 389.75,-77 389.75,-71 395.75,-65 401.75,-65 401.75,-65 453,-65 453,-65 459,-65 465,-71 465,-77 465,-77 465,-89 465,-89 465,-95 459,-101 453,-101"/>
<text xml:space="preserve" text-anchor="middle" x="427.38" y="-79.5" font-family="Arial" font-size="10.00" fill="#8b0000">contributes to</text>
</g>
<!-- unknown.grid_cells&#45;&gt;rel_3 -->
<g id="edge13" class="edge">
<title>unknown.grid_cells&#45;&gt;rel_3</title>
<path fill="none" stroke="#d46a6a" stroke-width="1.5" d="M317.47,-109.4C335.21,-105.1 358.81,-99.38 379.51,-94.36"/>
<polygon fill="#d46a6a" stroke="#d46a6a" stroke-width="1.5" points="380.08,-97.1 387.2,-92.5 378.76,-91.66 380.08,-97.1"/>
</g>
<!-- property.color -->
<g id="node2" class="node">
<title>property.color</title>
<path fill="#b8e6b8" stroke="#2c3e50" stroke-width="1.8" d="M42,-166C42,-166 12,-166 12,-166 6,-166 0,-160 0,-154 0,-154 0,-142 0,-142 0,-136 6,-130 12,-130 12,-130 42,-130 42,-130 48,-130 54,-136 54,-142 54,-142 54,-154 54,-154 54,-160 48,-166 42,-166"/>
<text xml:space="preserve" text-anchor="middle" x="27" y="-144.5" font-family="Arial" font-size="10.00" fill="#1a1a1a">color</text>
</g>
<!-- attr_2 -->
<g id="node7" class="node">
<title>attr_2</title>
<path fill="#c7b8e6" stroke="#7f8c8d" stroke-width="1.2" d="M200,-264C200,-264 115.75,-264 115.75,-264 109.75,-264 103.75,-258 103.75,-252 103.75,-252 103.75,-240 103.75,-240 103.75,-234 109.75,-228 115.75,-228 115.75,-228 200,-228 200,-228 206,-228 212,-234 212,-240 212,-240 212,-252 212,-252 212,-258 206,-264 200,-264"/>
<text xml:space="preserve" text-anchor="middle" x="157.88" y="-242.5" font-family="Arial" font-size="10.00" fill="#1a1a1a">(+) low color contrast</text>
</g>
<!-- property.color&#45;&gt;attr_2 -->
<g id="edge2" class="edge">
<title>property.color&#45;&gt;attr_2</title>
<path fill="none" stroke="#aaaaaa" d="M44.97,-166.8C58.25,-180.86 77.67,-199.99 97,-214 101.49,-217.25 106.35,-220.39 111.29,-223.34"/>
<polygon fill="#aaaaaa" stroke="#aaaaaa" points="109.96,-225.41 117.25,-226.78 112.41,-221.16 109.96,-225.41"/>
</g>
<!-- attr_3 -->
<g id="node8" class="node">
<title>attr_3</title>
<path fill="#c7b8e6" stroke="#7f8c8d" stroke-width="1.2" d="M206.75,-199C206.75,-199 109,-199 109,-199 103,-199 97,-193 97,-187 97,-187 97,-175 97,-175 97,-169 103,-163 109,-163 109,-163 206.75,-163 206.75,-163 212.75,-163 218.75,-169 218.75,-175 218.75,-175 218.75,-187 218.75,-187 218.75,-193 212.75,-199 206.75,-199"/>
<text xml:space="preserve" text-anchor="middle" x="157.88" y="-177.5" font-family="Arial" font-size="10.00" fill="#1a1a1a">(+) poor color separation</text>
</g>
<!-- property.color&#45;&gt;attr_3 -->
<g id="edge3" class="edge">
<title>property.color&#45;&gt;attr_3</title>
<path fill="none" stroke="#aaaaaa" d="M54.7,-154.84C64.68,-157.39 76.53,-160.43 88.55,-163.5"/>
<polygon fill="#aaaaaa" stroke="#aaaaaa" points="87.6,-165.79 94.99,-165.15 88.82,-161.04 87.6,-165.79"/>
</g>
<!-- rel_0 -->
<g id="node12" class="node">
<title>rel_0</title>
<path fill="#f5b8b8" stroke="#d46a6a" stroke-width="1.2" d="M203,-134C203,-134 112.75,-134 112.75,-134 106.75,-134 100.75,-128 100.75,-122 100.75,-122 100.75,-110 100.75,-110 100.75,-104 106.75,-98 112.75,-98 112.75,-98 203,-98 203,-98 209,-98 215,-104 215,-110 215,-110 215,-122 215,-122 215,-128 209,-134 203,-134"/>
<text xml:space="preserve" text-anchor="middle" x="157.88" y="-112.5" font-family="Arial" font-size="10.00" fill="#8b0000">reduces separability of</text>
</g>
<!-- property.color&#45;&gt;rel_0 -->
<g id="edge7" class="edge">
<title>property.color&#45;&gt;rel_0</title>
<path fill="none" stroke="#d46a6a" stroke-width="1.5" d="M54.7,-141.37C65.22,-138.76 77.81,-135.63 90.49,-132.48"/>
<polygon fill="#d46a6a" stroke="#d46a6a" stroke-width="1.5" points="90.89,-135.27 97.98,-130.62 89.54,-129.83 90.89,-135.27"/>
</g>
<!-- rel_2 -->
<g id="node14" class="node">
<title>rel_2</title>
<path fill="#f5b8b8" stroke="#d46a6a" stroke-width="1.2" d="M200,-69C200,-69 115.75,-69 115.75,-69 109.75,-69 103.75,-63 103.75,-57 103.75,-57 103.75,-45 103.75,-45 103.75,-39 109.75,-33 115.75,-33 115.75,-33 200,-33 200,-33 206,-33 212,-39 212,-45 212,-45 212,-57 212,-57 212,-63 206,-69 200,-69"/>
<text xml:space="preserve" text-anchor="middle" x="157.88" y="-47.5" font-family="Arial" font-size="10.00" fill="#8b0000">increases difficulty of</text>
</g>
<!-- property.color&#45;&gt;rel_2 -->
<g id="edge11" class="edge">
<title>property.color&#45;&gt;rel_2</title>
<path fill="none" stroke="#d46a6a" stroke-width="1.5" d="M45.68,-129.31C59.02,-115.79 78.2,-97.59 97,-84 101.45,-80.78 106.25,-77.65 111.12,-74.68"/>
<polygon fill="#d46a6a" stroke="#d46a6a" stroke-width="1.5" points="112.47,-77.13 117.95,-70.67 109.64,-72.31 112.47,-77.13"/>
</g>
<!-- content.data -->
<g id="node3" class="node">
<title>content.data</title>
<path fill="#b8e6b8" stroke="#2c3e50" stroke-width="1.8" d="M580,-101C580,-101 550,-101 550,-101 544,-101 538,-95 538,-89 538,-89 538,-77 538,-77 538,-71 544,-65 550,-65 550,-65 580,-65 580,-65 586,-65 592,-71 592,-77 592,-77 592,-89 592,-89 592,-95 586,-101 580,-101"/>
<text xml:space="preserve" text-anchor="middle" x="565" y="-79.5" font-family="Arial" font-size="10.00" fill="#1a1a1a">data</text>
</g>
<!-- attr_0 -->
<g id="node9" class="node">
<title>attr_0</title>
<path fill="#c7b8e6" stroke="#7f8c8d" stroke-width="1.2" d="M757.5,-166C757.5,-166 647,-166 647,-166 641,-166 635,-160 635,-154 635,-154 635,-142 635,-142 635,-136 641,-130 647,-130 647,-130 757.5,-130 757.5,-130 763.5,-130 769.5,-136 769.5,-142 769.5,-142 769.5,-154 769.5,-154 769.5,-160 763.5,-166 757.5,-166"/>
<text xml:space="preserve" text-anchor="middle" x="702.25" y="-144.5" font-family="Arial" font-size="10.00" fill="#1a1a1a">(+) high information volume</text>
</g>
<!-- content.data&#45;&gt;attr_0 -->
<g id="edge4" class="edge">
<title>content.data&#45;&gt;attr_0</title>
<path fill="none" stroke="#aaaaaa" d="M592.72,-95.84C610.55,-104.41 634.45,-115.9 655.28,-125.91"/>
<polygon fill="#aaaaaa" stroke="#aaaaaa" points="654.07,-128.04 661.44,-128.87 656.19,-123.63 654.07,-128.04"/>
</g>
<!-- attr_5 -->
<g id="node10" class="node">
<title>attr_5</title>
<path fill="#c7b8e6" stroke="#7f8c8d" stroke-width="1.2" d="M746.62,-101C746.62,-101 657.88,-101 657.88,-101 651.88,-101 645.88,-95 645.88,-89 645.88,-89 645.88,-77 645.88,-77 645.88,-71 651.88,-65 657.88,-65 657.88,-65 746.62,-65 746.62,-65 752.62,-65 758.62,-71 758.62,-77 758.62,-77 758.62,-89 758.62,-89 758.62,-95 752.62,-101 746.62,-101"/>
<text xml:space="preserve" text-anchor="middle" x="702.25" y="-79.5" font-family="Arial" font-size="10.00" fill="#1a1a1a">(+) widely spread data</text>
</g>
<!-- content.data&#45;&gt;attr_5 -->
<g id="edge5" class="edge">
<title>content.data&#45;&gt;attr_5</title>
<path fill="none" stroke="#aaaaaa" d="M592.72,-83C605.57,-83 621.58,-83 637.31,-83"/>
<polygon fill="#aaaaaa" stroke="#aaaaaa" points="636.99,-85.45 643.99,-83 636.99,-80.55 636.99,-85.45"/>
</g>
<!-- rel_1 -->
<g id="node13" class="node">
<title>rel_1</title>
<path fill="#f5b8b8" stroke="#d46a6a" stroke-width="1.2" d="M724.5,-36C724.5,-36 680,-36 680,-36 674,-36 668,-30 668,-24 668,-24 668,-12 668,-12 668,-6 674,0 680,0 680,0 724.5,0 724.5,0 730.5,0 736.5,-6 736.5,-12 736.5,-12 736.5,-24 736.5,-24 736.5,-30 730.5,-36 724.5,-36"/>
<text xml:space="preserve" text-anchor="middle" x="702.25" y="-14.5" font-family="Arial" font-size="10.00" fill="#8b0000">overwhelms</text>
</g>
<!-- content.data&#45;&gt;rel_1 -->
<g id="edge9" class="edge">
<title>content.data&#45;&gt;rel_1</title>
<path fill="none" stroke="#d46a6a" stroke-width="1.5" d="M592.72,-70.16C611.58,-61.09 637.24,-48.76 658.88,-38.36"/>
<polygon fill="#d46a6a" stroke="#d46a6a" stroke-width="1.5" points="659.83,-41.01 665.83,-35.02 657.4,-35.97 659.83,-41.01"/>
</g>
<!-- furniture.legend -->
<g id="node4" class="node">
<title>furniture.legend</title>
<path fill="#b8e6b8" stroke="#2c3e50" stroke-width="1.8" d="M854.5,-36C854.5,-36 824.5,-36 824.5,-36 818.5,-36 812.5,-30 812.5,-24 812.5,-24 812.5,-12 812.5,-12 812.5,-6 818.5,0 824.5,0 824.5,0 854.5,0 854.5,0 860.5,0 866.5,-6 866.5,-12 866.5,-12 866.5,-24 866.5,-24 866.5,-30 860.5,-36 854.5,-36"/>
<text xml:space="preserve" text-anchor="middle" x="839.5" y="-14.5" font-family="Arial" font-size="10.00" fill="#1a1a1a">legend</text>
</g>
<!-- attr_4 -->
<g id="node11" class="node">
<title>attr_4</title>
<path fill="#c7b8e6" stroke="#7f8c8d" stroke-width="1.2" d="M1041.75,-36C1041.75,-36 921.5,-36 921.5,-36 915.5,-36 909.5,-30 909.5,-24 909.5,-24 909.5,-12 909.5,-12 909.5,-6 915.5,0 921.5,0 921.5,0 1041.75,0 1041.75,0 1047.75,0 1053.75,-6 1053.75,-12 1053.75,-12 1053.75,-24 1053.75,-24 1053.75,-30 1047.75,-36 1041.75,-36"/>
<text xml:space="preserve" text-anchor="middle" x="981.62" y="-14.5" font-family="Arial" font-size="10.00" fill="#1a1a1a">(+) ambiguous color encoding</text>
</g>
<!-- furniture.legend&#45;&gt;attr_4 -->
<g id="edge6" class="edge">
<title>furniture.legend&#45;&gt;attr_4</title>
<path fill="none" stroke="#aaaaaa" d="M867.19,-18C876.99,-18 888.67,-18 900.74,-18"/>
<polygon fill="#aaaaaa" stroke="#aaaaaa" points="900.63,-20.45 907.63,-18 900.63,-15.55 900.63,-20.45"/>
</g>
<!-- text.label -->
<g id="node5" class="node">
<title>text.label</title>
<path fill="#b8e6b8" stroke="#2c3e50" stroke-width="1.8" d="M304.25,-69C304.25,-69 274.25,-69 274.25,-69 268.25,-69 262.25,-63 262.25,-57 262.25,-57 262.25,-45 262.25,-45 262.25,-39 268.25,-33 274.25,-33 274.25,-33 304.25,-33 304.25,-33 310.25,-33 316.25,-39 316.25,-45 316.25,-45 316.25,-57 316.25,-57 316.25,-63 310.25,-69 304.25,-69"/>
<text xml:space="preserve" text-anchor="middle" x="289.25" y="-47.5" font-family="Arial" font-size="10.00" fill="#1a1a1a">text</text>
</g>
<!-- rel_0&#45;&gt;unknown.grid_cells -->
<g id="edge8" class="edge">
<title>rel_0&#45;&gt;unknown.grid_cells</title>
<path fill="none" stroke="#d46a6a" stroke-width="1.5" d="M215.24,-116C227.32,-116 239.79,-116 250.93,-116"/>
<polygon fill="#d46a6a" stroke="#d46a6a" stroke-width="1.5" points="250.88,-118.8 258.88,-116 250.88,-113.2 250.88,-118.8"/>
</g>
<!-- rel_1&#45;&gt;furniture.legend -->
<g id="edge10" class="edge">
<title>rel_1&#45;&gt;furniture.legend</title>
<path fill="none" stroke="#d46a6a" stroke-width="1.5" d="M737.03,-18C756.75,-18 781.65,-18 801.84,-18"/>
<polygon fill="#d46a6a" stroke="#d46a6a" stroke-width="1.5" points="801.65,-20.8 809.65,-18 801.65,-15.2 801.65,-20.8"/>
</g>
<!-- rel_2&#45;&gt;text.label -->
<g id="edge12" class="edge">
<title>rel_2&#45;&gt;text.label</title>
<path fill="none" stroke="#d46a6a" stroke-width="1.5" d="M212.24,-51C225.38,-51 239.16,-51 251.32,-51"/>
<polygon fill="#d46a6a" stroke="#d46a6a" stroke-width="1.5" points="251.27,-53.8 259.27,-51 251.27,-48.2 251.27,-53.8"/>
</g>
<!-- rel_3&#45;&gt;content.data -->
<g id="edge14" class="edge">
<title>rel_3&#45;&gt;content.data</title>
<path fill="none" stroke="#d46a6a" stroke-width="1.5" d="M465.44,-83C484.63,-83 507.99,-83 527.15,-83"/>
<polygon fill="#d46a6a" stroke="#d46a6a" stroke-width="1.5" points="527.04,-85.8 535.04,-83 527.04,-80.2 527.04,-85.8"/>
</g>
</g>
</svg>
