<?xml version="1.0" encoding="UTF-8" standalone="no"?>
<!DOCTYPE svg PUBLIC "-//W3C//DTD SVG 1.1//EN"
 "http://www.w3.org/Graphics/SVG/1.1/DTD/svg11.dtd">
<!-- Generated by graphviz version 14.1.5 (20260411.2331)
 -->
<!-- Title: VASTC.107.8.png Pages: 1 -->
<svg width="998pt" height="356pt"
 viewBox="0.00 0.00 998.00 356.00" xmlns="http://www.w3.org/2000/svg" xmlns:xlink="http://www.w3.org/1999/xlink">
<g id="graph0" class="graph" transform="scale(1 1) rotate(0) translate(4 352.25)">
<title>VASTC.107.8.png</title>
<polygon fill="white" stroke="none" points="-4,4 -4,-352.25 994.25,-352.25 994.25,4 -4,4"/>
<text xml:space="preserve" text-anchor="start" x="439.62" y="-327.95" font-family="Arial" font-weight="bold" font-size="14.00">VASTC.107.8.png</text>
<text xml:space="preserve" text-anchor="start" x="423.5" y="-308" font-family="Arial" font-size="11.00">Cont.&#45;ColorPatn &#160;| &#160;VC = 0.59</text>
<path fill="#b8e6b8" stroke="none" d="M285.75,-283C285.75,-283 293.75,-283 293.75,-283 296.75,-283 299.75,-286 299.75,-289 299.75,-289 299.75,-295 299.75,-295 299.75,-298 296.75,-301 293.75,-301 293.75,-301 285.75,-301 285.75,-301 282.75,-301 279.75,-298 279.75,-295 279.75,-295 279.75,-289 279.75,-289 279.75,-286 282.75,-283 285.75,-283"/>
<path fill="none" stroke="black" d="M285.75,-283C285.75,-283 293.75,-283 293.75,-283 296.75,-283 299.75,-286 299.75,-289 299.75,-289 299.75,-295 299.75,-295 299.75,-298 296.75,-301 293.75,-301 293.75,-301 285.75,-301 285.75,-301 282.75,-301 279.75,-298 279.75,-295 279.75,-295 279.75,-289 279.75,-289 279.75,-286 282.75,-283 285.75,-283"/>
<text xml:space="preserve" text-anchor="start" x="288.25" y="-288.25" font-family="Arial" font-size="10.00"> </text>
<text xml:space="preserve" text-anchor="start" x="303.75" y="-288.25" font-family="Arial" font-size="10.00">Object</text>
<path fill="#c7b8e6" stroke="none" d="M342.25,-283C342.25,-283 350.25,-283 350.25,-283 353.25,-283 356.25,-286 356.25,-289 356.25,-289 356.25,-295 356.25,-295 356.25,-298 353.25,-301 350.25,-301 350.25,-301 342.25,-301 342.25,-301 339.25,-301 336.25,-298 336.25,-295 336.25,-295 336.25,-289 336.25,-289 336.25,-286 339.25,-283 342.25,-283"/>
<path fill="none" stroke="black" d="M342.25,-283C342.25,-283 350.25,-283 350.25,-283 353.25,-283 356.25,-286 356.25,-289 356.25,-289 356.25,-295 356.25,-295 356.25,-298 353.25,-301 350.25,-301 350.25,-301 342.25,-301 342.25,-301 339.25,-301 336.25,-298 336.25,-295 336.25,-295 336.25,-289 336.25,-289 336.25,-286 339.25,-283 342.25,-283"/>
<text xml:space="preserve" text-anchor="start" x="344.75" y="-288.25" font-family="Arial" font-size="10.00"> </text>
<text xml:space="preserve" text-anchor="start" x="360.25" y="-288.25" font-family="Arial" font-size="10.00">Attribute</text>
<path fill="#f5b8b8" stroke="none" d="M407,-283C407,-283 415,-283 415,-283 418,-283 421,-286 421,-289 421,-289 421,-295 421,-295 421,-298 418,-301 415,-301 415,-301 407,-301 407,-301 404,-301 401,-298 401,-295 401,-295 401,-289 401,-289 401,-286 404,-283 407,-283"/>
<path fill="none" stroke="black" d="M407,-283C407,-283 415,-283 415,-283 418,-283 421,-286 421,-289 421,-289 421,-295 421,-295 421,-298 418,-301 415,-301 415,-301 407,-301 407,-301 404,-301 401,-298 401,-295 401,-295 401,-289 401,-289 401,-286 404,-283 407,-283"/>
<text xml:space="preserve" text-anchor="start" x="409.5" y="-288.25" font-family="Arial" font-size="10.00"> </text>
<text xml:space="preserve" text-anchor="start" x="425" y="-288.25" font-family="Arial" font-size="10.00">Relationship</text>
<text xml:space="preserve" text-anchor="start" x="485" y="-289.5" font-family="Arial" font-weight="bold" font-size="10.00">(+)</text>
<text xml:space="preserve" text-anchor="start" x="497" y="-289.5" font-family="Arial" font-size="10.00"> increases complexity</text>
<text xml:space="preserve" text-anchor="start" x="598.25" y="-289.5" font-family="Arial" font-weight="bold" font-size="10.00">(−)</text>
<text xml:space="preserve" text-anchor="start" x="610.25" y="-289.5" font-family="Arial" font-size="10.00"> decreases complexity</text>
<!-- unknown.color_pattern -->
<g id="node1" class="node">
<title>unknown.color_pattern</title>
<path fill="#b8e6b8" stroke="#2c3e50" stroke-width="1.8" d="M353.75,-147C353.75,-147 307.75,-147 307.75,-147 301.75,-147 295.75,-141 295.75,-135 295.75,-135 295.75,-123 295.75,-123 295.75,-117 301.75,-111 307.75,-111 307.75,-111 353.75,-111 353.75,-111 359.75,-111 365.75,-117 365.75,-123 365.75,-123 365.75,-135 365.75,-135 365.75,-141 359.75,-147 353.75,-147"/>
<text xml:space="preserve" text-anchor="middle" x="330.75" y="-125.5" font-family="Arial" font-size="10.00" fill="#1a1a1a">color pattern</text>
</g>
<!-- attr_2 -->
<g id="node6" class="node">
<title>attr_2</title>
<path fill="#c7b8e6" stroke="#7f8c8d" stroke-width="1.2" d="M546.25,-277C546.25,-277 420.75,-277 420.75,-277 414.75,-277 408.75,-271 408.75,-265 408.75,-265 408.75,-253 408.75,-253 408.75,-247 414.75,-241 420.75,-241 420.75,-241 546.25,-241 546.25,-241 552.25,-241 558.25,-247 558.25,-253 558.25,-253 558.25,-265 558.25,-265 558.25,-271 552.25,-277 546.25,-277"/>
<text xml:space="preserve" text-anchor="middle" x="483.5" y="-255.5" font-family="Arial" font-size="10.00" fill="#1a1a1a">(+) visually disorienting pattern</text>
</g>
<!-- unknown.color_pattern&#45;&gt;attr_2 -->
<g id="edge1" class="edge">
<title>unknown.color_pattern&#45;&gt;attr_2</title>
<path fill="none" stroke="#aaaaaa" d="M342.35,-147.52C355.51,-169.11 379.8,-204.66 408.75,-227 413.2,-230.44 418.09,-233.58 423.15,-236.45"/>
<polygon fill="#aaaaaa" stroke="#aaaaaa" points="422,-238.61 429.33,-239.73 424.3,-234.29 422,-238.61"/>
</g>
<!-- attr_4 -->
<g id="node7" class="node">
<title>attr_4</title>
<path fill="#c7b8e6" stroke="#7f8c8d" stroke-width="1.2" d="M535.75,-212C535.75,-212 431.25,-212 431.25,-212 425.25,-212 419.25,-206 419.25,-200 419.25,-200 419.25,-188 419.25,-188 419.25,-182 425.25,-176 431.25,-176 431.25,-176 535.75,-176 535.75,-176 541.75,-176 547.75,-182 547.75,-188 547.75,-188 547.75,-200 547.75,-200 547.75,-206 541.75,-212 535.75,-212"/>
<text xml:space="preserve" text-anchor="middle" x="483.5" y="-190.5" font-family="Arial" font-size="10.00" fill="#1a1a1a">(+) unclear color encoding</text>
</g>
<!-- unknown.color_pattern&#45;&gt;attr_4 -->
<g id="edge2" class="edge">
<title>unknown.color_pattern&#45;&gt;attr_4</title>
<path fill="none" stroke="#aaaaaa" d="M366.34,-143.91C385.69,-152.26 410.18,-162.82 431.68,-172.09"/>
<polygon fill="#aaaaaa" stroke="#aaaaaa" points="430.66,-174.32 438.06,-174.84 432.6,-169.82 430.66,-174.32"/>
</g>
<!-- rel_1 -->
<g id="node13" class="node">
<title>rel_1</title>
<path fill="#f5b8b8" stroke="#d46a6a" stroke-width="1.2" d="M505.75,-147C505.75,-147 461.25,-147 461.25,-147 455.25,-147 449.25,-141 449.25,-135 449.25,-135 449.25,-123 449.25,-123 449.25,-117 455.25,-111 461.25,-111 461.25,-111 505.75,-111 505.75,-111 511.75,-111 517.75,-117 517.75,-123 517.75,-123 517.75,-135 517.75,-135 517.75,-141 511.75,-147 505.75,-147"/>
<text xml:space="preserve" text-anchor="middle" x="483.5" y="-125.5" font-family="Arial" font-size="10.00" fill="#8b0000">overwhelms</text>
</g>
<!-- unknown.color_pattern&#45;&gt;rel_1 -->
<g id="edge9" class="edge">
<title>unknown.color_pattern&#45;&gt;rel_1</title>
<path fill="none" stroke="#d46a6a" stroke-width="1.5" d="M366.34,-129C387.82,-129 415.63,-129 438.65,-129"/>
<polygon fill="#d46a6a" stroke="#d46a6a" stroke-width="1.5" points="438.58,-131.8 446.58,-129 438.58,-126.2 438.58,-131.8"/>
</g>
<!-- rel_4 -->
<g id="node16" class="node">
<title>rel_4</title>
<path fill="#f5b8b8" stroke="#d46a6a" stroke-width="1.2" d="M530.5,-82C530.5,-82 436.5,-82 436.5,-82 430.5,-82 424.5,-76 424.5,-70 424.5,-70 424.5,-58 424.5,-58 424.5,-52 430.5,-46 436.5,-46 436.5,-46 530.5,-46 530.5,-46 536.5,-46 542.5,-52 542.5,-58 542.5,-58 542.5,-70 542.5,-70 542.5,-76 536.5,-82 530.5,-82"/>
<text xml:space="preserve" text-anchor="middle" x="483.5" y="-60.5" font-family="Arial" font-size="10.00" fill="#8b0000">hinders interpretation of</text>
</g>
<!-- unknown.color_pattern&#45;&gt;rel_4 -->
<g id="edge15" class="edge">
<title>unknown.color_pattern&#45;&gt;rel_4</title>
<path fill="none" stroke="#d46a6a" stroke-width="1.5" d="M366.34,-114.09C385.27,-105.93 409.11,-95.65 430.26,-86.53"/>
<polygon fill="#d46a6a" stroke="#d46a6a" stroke-width="1.5" points="431.13,-89.2 437.36,-83.46 428.91,-84.06 431.13,-89.2"/>
</g>
<!-- unknown.color_palette -->
<g id="node2" class="node">
<title>unknown.color_palette</title>
<path fill="#b8e6b8" stroke="#2c3e50" stroke-width="1.8" d="M57.25,-147C57.25,-147 12,-147 12,-147 6,-147 0,-141 0,-135 0,-135 0,-123 0,-123 0,-117 6,-111 12,-111 12,-111 57.25,-111 57.25,-111 63.25,-111 69.25,-117 69.25,-123 69.25,-123 69.25,-135 69.25,-135 69.25,-141 63.25,-147 57.25,-147"/>
<text xml:space="preserve" text-anchor="middle" x="34.62" y="-125.5" font-family="Arial" font-size="10.00" fill="#1a1a1a">color palette</text>
</g>
<!-- attr_0 -->
<g id="node8" class="node">
<title>attr_0</title>
<path fill="#c7b8e6" stroke="#7f8c8d" stroke-width="1.2" d="M224.62,-245C224.62,-245 140.38,-245 140.38,-245 134.38,-245 128.38,-239 128.38,-233 128.38,-233 128.38,-221 128.38,-221 128.38,-215 134.38,-209 140.38,-209 140.38,-209 224.62,-209 224.62,-209 230.62,-209 236.62,-215 236.62,-221 236.62,-221 236.62,-233 236.62,-233 236.62,-239 230.62,-245 224.62,-245"/>
<text xml:space="preserve" text-anchor="middle" x="182.5" y="-223.5" font-family="Arial" font-size="10.00" fill="#1a1a1a">(+) low color contrast</text>
</g>
<!-- unknown.color_palette&#45;&gt;attr_0 -->
<g id="edge3" class="edge">
<title>unknown.color_palette&#45;&gt;attr_0</title>
<path fill="none" stroke="#aaaaaa" d="M54.28,-147.69C69.1,-161.88 90.84,-181.22 112.25,-195 117.57,-198.43 123.33,-201.69 129.16,-204.73"/>
<polygon fill="#aaaaaa" stroke="#aaaaaa" points="127.86,-206.82 135.21,-207.78 130.06,-202.44 127.86,-206.82"/>
</g>
<!-- attr_1 -->
<g id="node9" class="node">
<title>attr_1</title>
<path fill="#c7b8e6" stroke="#7f8c8d" stroke-width="1.2" d="M240.38,-180C240.38,-180 124.62,-180 124.62,-180 118.62,-180 112.62,-174 112.62,-168 112.62,-168 112.62,-156 112.62,-156 112.62,-150 118.62,-144 124.62,-144 124.62,-144 240.38,-144 240.38,-144 246.38,-144 252.38,-150 252.38,-156 252.38,-156 252.38,-168 252.38,-168 252.38,-174 246.38,-180 240.38,-180"/>
<text xml:space="preserve" text-anchor="middle" x="182.5" y="-158.5" font-family="Arial" font-size="10.00" fill="#1a1a1a">(+) hard to distinguish colors</text>
</g>
<!-- unknown.color_palette&#45;&gt;attr_1 -->
<g id="edge4" class="edge">
<title>unknown.color_palette&#45;&gt;attr_1</title>
<path fill="none" stroke="#aaaaaa" d="M69.83,-136.74C80.16,-139.07 91.95,-141.74 103.91,-144.45"/>
<polygon fill="#aaaaaa" stroke="#aaaaaa" points="103.36,-146.83 110.73,-145.99 104.44,-142.06 103.36,-146.83"/>
</g>
<!-- rel_0 -->
<g id="node12" class="node">
<title>rel_0</title>
<path fill="#f5b8b8" stroke="#d46a6a" stroke-width="1.2" d="M240.75,-115C240.75,-115 124.25,-115 124.25,-115 118.25,-115 112.25,-109 112.25,-103 112.25,-103 112.25,-91 112.25,-91 112.25,-85 118.25,-79 124.25,-79 124.25,-79 240.75,-79 240.75,-79 246.75,-79 252.75,-85 252.75,-91 252.75,-91 252.75,-103 252.75,-103 252.75,-109 246.75,-115 240.75,-115"/>
<text xml:space="preserve" text-anchor="middle" x="182.5" y="-93.5" font-family="Arial" font-size="10.00" fill="#8b0000">causes perceptual confusion</text>
</g>
<!-- unknown.color_palette&#45;&gt;rel_0 -->
<g id="edge7" class="edge">
<title>unknown.color_palette&#45;&gt;rel_0</title>
<path fill="none" stroke="#d46a6a" stroke-width="1.5" d="M69.83,-121.5C79.6,-119.35 90.67,-116.92 101.96,-114.45"/>
<polygon fill="#d46a6a" stroke="#d46a6a" stroke-width="1.5" points="102.48,-117.2 109.69,-112.75 101.28,-111.73 102.48,-117.2"/>
</g>
<!-- rel_2 -->
<g id="node14" class="node">
<title>rel_2</title>
<path fill="#f5b8b8" stroke="#d46a6a" stroke-width="1.2" d="M346.62,-51C346.62,-51 314.88,-51 314.88,-51 308.88,-51 302.88,-45 302.88,-39 302.88,-39 302.88,-27 302.88,-27 302.88,-21 308.88,-15 314.88,-15 314.88,-15 346.62,-15 346.62,-15 352.62,-15 358.62,-21 358.62,-27 358.62,-27 358.62,-39 358.62,-39 358.62,-45 352.62,-51 346.62,-51"/>
<text xml:space="preserve" text-anchor="middle" x="330.75" y="-29.5" font-family="Arial" font-size="10.00" fill="#8b0000">obscures</text>
</g>
<!-- unknown.color_palette&#45;&gt;rel_2 -->
<g id="edge11" class="edge">
<title>unknown.color_palette&#45;&gt;rel_2</title>
<path fill="none" stroke="#d46a6a" stroke-width="1.5" d="M52.24,-110.34C66.59,-95.5 88.68,-75.55 112.25,-65 171.27,-38.58 247.43,-33.11 292.19,-32.44"/>
<polygon fill="#d46a6a" stroke="#d46a6a" stroke-width="1.5" points="292.08,-35.24 300.06,-32.38 292.04,-29.64 292.08,-35.24"/>
</g>
<!-- unknown.visual_elements -->
<g id="node3" class="node">
<title>unknown.visual_elements</title>
<path fill="#b8e6b8" stroke="#2c3e50" stroke-width="1.8" d="M673.5,-147C673.5,-147 613.25,-147 613.25,-147 607.25,-147 601.25,-141 601.25,-135 601.25,-135 601.25,-123 601.25,-123 601.25,-117 607.25,-111 613.25,-111 613.25,-111 673.5,-111 673.5,-111 679.5,-111 685.5,-117 685.5,-123 685.5,-123 685.5,-135 685.5,-135 685.5,-141 679.5,-147 673.5,-147"/>
<text xml:space="preserve" text-anchor="middle" x="643.38" y="-125.5" font-family="Arial" font-size="10.00" fill="#1a1a1a">visual elements</text>
</g>
<!-- attr_3 -->
<g id="node10" class="node">
<title>attr_3</title>
<path fill="#c7b8e6" stroke="#7f8c8d" stroke-width="1.2" d="M869,-197C869,-197 740.5,-197 740.5,-197 734.5,-197 728.5,-191 728.5,-185 728.5,-185 728.5,-173 728.5,-173 728.5,-167 734.5,-161 740.5,-161 740.5,-161 869,-161 869,-161 875,-161 881,-167 881,-173 881,-173 881,-185 881,-185 881,-191 875,-197 869,-197"/>
<text xml:space="preserve" text-anchor="middle" x="804.75" y="-175.5" font-family="Arial" font-size="10.00" fill="#1a1a1a">(+) dense overlapping elements</text>
</g>
<!-- unknown.visual_elements&#45;&gt;attr_3 -->
<g id="edge5" class="edge">
<title>unknown.visual_elements&#45;&gt;attr_3</title>
<path fill="none" stroke="#aaaaaa" d="M686.25,-142.14C701.68,-146.98 719.58,-152.6 736.69,-157.96"/>
<polygon fill="#aaaaaa" stroke="#aaaaaa" points="735.62,-160.19 743.03,-159.95 737.09,-155.52 735.62,-160.19"/>
</g>
<!-- rel_3 -->
<g id="node15" class="node">
<title>rel_3</title>
<path fill="#f5b8b8" stroke="#d46a6a" stroke-width="1.2" d="M859.25,-132C859.25,-132 750.25,-132 750.25,-132 744.25,-132 738.25,-126 738.25,-120 738.25,-120 738.25,-108 738.25,-108 738.25,-102 744.25,-96 750.25,-96 750.25,-96 859.25,-96 859.25,-96 865.25,-96 871.25,-102 871.25,-108 871.25,-108 871.25,-120 871.25,-120 871.25,-126 865.25,-132 859.25,-132"/>
<text xml:space="preserve" text-anchor="middle" x="804.75" y="-110.5" font-family="Arial" font-size="10.00" fill="#8b0000">increases processing effort</text>
</g>
<!-- unknown.visual_elements&#45;&gt;rel_3 -->
<g id="edge13" class="edge">
<title>unknown.visual_elements&#45;&gt;rel_3</title>
<path fill="none" stroke="#d46a6a" stroke-width="1.5" d="M686.25,-125.06C699.06,-123.85 713.57,-122.49 727.92,-121.14"/>
<polygon fill="#d46a6a" stroke="#d46a6a" stroke-width="1.5" points="727.84,-123.96 735.54,-120.42 727.31,-118.38 727.84,-123.96"/>
</g>
<!-- furniture.legend -->
<g id="node4" class="node">
<title>furniture.legend</title>
<path fill="#b8e6b8" stroke="#2c3e50" stroke-width="1.8" d="M658.38,-36C658.38,-36 628.38,-36 628.38,-36 622.38,-36 616.38,-30 616.38,-24 616.38,-24 616.38,-12 616.38,-12 616.38,-6 622.38,0 628.38,0 628.38,0 658.38,0 658.38,0 664.38,0 670.38,-6 670.38,-12 670.38,-12 670.38,-24 670.38,-24 670.38,-30 664.38,-36 658.38,-36"/>
<text xml:space="preserve" text-anchor="middle" x="643.38" y="-14.5" font-family="Arial" font-size="10.00" fill="#1a1a1a">legend</text>
</g>
<!-- attr_5 -->
<g id="node11" class="node">
<title>attr_5</title>
<path fill="#c7b8e6" stroke="#7f8c8d" stroke-width="1.2" d="M867.5,-36C867.5,-36 742,-36 742,-36 736,-36 730,-30 730,-24 730,-24 730,-12 730,-12 730,-6 736,0 742,0 742,0 867.5,0 867.5,0 873.5,0 879.5,-6 879.5,-12 879.5,-12 879.5,-24 879.5,-24 879.5,-30 873.5,-36 867.5,-36"/>
<text xml:space="preserve" text-anchor="middle" x="804.75" y="-14.5" font-family="Arial" font-size="10.00" fill="#1a1a1a">(+) insufficient color separation</text>
</g>
<!-- furniture.legend&#45;&gt;attr_5 -->
<g id="edge6" class="edge">
<title>furniture.legend&#45;&gt;attr_5</title>
<path fill="none" stroke="#aaaaaa" d="M671.05,-18C685.04,-18 703.01,-18 721.18,-18"/>
<polygon fill="#aaaaaa" stroke="#aaaaaa" points="721.02,-20.45 728.02,-18 721.02,-15.55 721.02,-20.45"/>
</g>
<!-- unknown.background -->
<g id="node5" class="node">
<title>unknown.background</title>
<path fill="#b8e6b8" stroke="#2c3e50" stroke-width="1.8" d="M978.25,-132C978.25,-132 936,-132 936,-132 930,-132 924,-126 924,-120 924,-120 924,-108 924,-108 924,-102 930,-96 936,-96 936,-96 978.25,-96 978.25,-96 984.25,-96 990.25,-102 990.25,-108 990.25,-108 990.25,-120 990.25,-120 990.25,-126 984.25,-132 978.25,-132"/>
<text xml:space="preserve" text-anchor="middle" x="957.12" y="-110.5" font-family="Arial" font-size="10.00" fill="#1a1a1a">background</text>
</g>
<!-- rel_0&#45;&gt;unknown.color_pattern -->
<g id="edge8" class="edge">
<title>rel_0&#45;&gt;unknown.color_pattern</title>
<path fill="none" stroke="#d46a6a" stroke-width="1.5" d="M253.2,-112.25C264.12,-114.64 275.15,-117.05 285.3,-119.27"/>
<polygon fill="#d46a6a" stroke="#d46a6a" stroke-width="1.5" points="284.49,-121.96 292.91,-120.94 285.69,-116.49 284.49,-121.96"/>
</g>
<!-- rel_1&#45;&gt;unknown.visual_elements -->
<g id="edge10" class="edge">
<title>rel_1&#45;&gt;unknown.visual_elements</title>
<path fill="none" stroke="#d46a6a" stroke-width="1.5" d="M517.98,-129C539.05,-129 566.67,-129 590.53,-129"/>
<polygon fill="#d46a6a" stroke="#d46a6a" stroke-width="1.5" points="590.22,-131.8 598.22,-129 590.22,-126.2 590.22,-131.8"/>
</g>
<!-- rel_2&#45;&gt;furniture.legend -->
<g id="edge12" class="edge">
<title>rel_2&#45;&gt;furniture.legend</title>
<path fill="none" stroke="#d46a6a" stroke-width="1.5" d="M359.04,-31.68C415,-28.98 542.74,-22.81 605.79,-19.77"/>
<polygon fill="#d46a6a" stroke="#d46a6a" stroke-width="1.5" points="605.57,-22.58 613.43,-19.4 605.3,-16.99 605.57,-22.58"/>
</g>
<!-- rel_3&#45;&gt;unknown.background -->
<g id="edge14" class="edge">
<title>rel_3&#45;&gt;unknown.background</title>
<path fill="none" stroke="#d46a6a" stroke-width="1.5" d="M871.71,-114C885.78,-114 900.29,-114 913.23,-114"/>
<polygon fill="#d46a6a" stroke="#d46a6a" stroke-width="1.5" points="912.95,-116.8 920.95,-114 912.95,-111.2 912.95,-116.8"/>
</g>
<!-- rel_4&#45;&gt;furniture.legend -->
<g id="edge16" class="edge">
<title>rel_4&#45;&gt;furniture.legend</title>
<path fill="none" stroke="#d46a6a" stroke-width="1.5" d="M542.84,-47C563.98,-40.84 587.25,-34.06 605.97,-28.61"/>
<polygon fill="#d46a6a" stroke="#d46a6a" stroke-width="1.5" points="606.5,-31.37 613.4,-26.44 604.94,-25.99 606.5,-31.37"/>
</g>
</g>
</svg>
