<?xml version="1.0" encoding="UTF-8" standalone="no"?>
<!DOCTYPE svg PUBLIC "-//W3C//DTD SVG 1.1//EN"
 "http://www.w3.org/Graphics/SVG/1.1/DTD/svg11.dtd">
<!-- Generated by graphviz version 14.1.5 (20260411.2331)
 -->
<!-- Title: VASTJ.111.5.png Pages: 1 -->
<svg width="818pt" height="310pt"
 viewBox="0.00 0.00 818.00 310.00" xmlns="http://www.w3.org/2000/svg" xmlns:xlink="http://www.w3.org/1999/xlink">
<g id="graph0" class="graph" transform="scale(1 1) rotate(0) translate(4 306.25)">
<title>VASTJ.111.5.png</title>
<polygon fill="white" stroke="none" points="-4,4 -4,-306.25 814,-306.25 814,4 -4,4"/>
<text xml:space="preserve" text-anchor="start" x="351.38" y="-281.95" font-family="Arial" font-weight="bold" font-size="14.00">VASTJ.111.5.png</text>
<text xml:space="preserve" text-anchor="start" x="349.88" y="-262" font-family="Arial" font-size="11.00">Node&#45;link &#160;| &#160;VC = 0.53</text>
<path fill="#b8e6b8" stroke="none" d="M195.62,-237C195.62,-237 203.62,-237 203.62,-237 206.62,-237 209.62,-240 209.62,-243 209.62,-243 209.62,-249 209.62,-249 209.62,-252 206.62,-255 203.62,-255 203.62,-255 195.62,-255 195.62,-255 192.62,-255 189.62,-252 189.62,-249 189.62,-249 189.62,-243 189.62,-243 189.62,-240 192.62,-237 195.62,-237"/>
<path fill="none" stroke="black" d="M195.62,-237C195.62,-237 203.62,-237 203.62,-237 206.62,-237 209.62,-240 209.62,-243 209.62,-243 209.62,-249 209.62,-249 209.62,-252 206.62,-255 203.62,-255 203.62,-255 195.62,-255 195.62,-255 192.62,-255 189.62,-252 189.62,-249 189.62,-249 189.62,-243 189.62,-243 189.62,-240 192.62,-237 195.62,-237"/>
<text xml:space="preserve" text-anchor="start" x="198.12" y="-242.25" font-family="Arial" font-size="10.00"> </text>
<text xml:space="preserve" text-anchor="start" x="213.62" y="-242.25" font-family="Arial" font-size="10.00">Object</text>
<path fill="#c7b8e6" stroke="none" d="M252.12,-237C252.12,-237 260.12,-237 260.12,-237 263.12,-237 266.12,-240 266.12,-243 266.12,-243 266.12,-249 266.12,-249 266.12,-252 263.12,-255 260.12,-255 260.12,-255 252.12,-255 252.12,-255 249.12,-255 246.12,-252 246.12,-249 246.12,-249 246.12,-243 246.12,-243 246.12,-240 249.12,-237 252.12,-237"/>
<path fill="none" stroke="black" d="M252.12,-237C252.12,-237 260.12,-237 260.12,-237 263.12,-237 266.12,-240 266.12,-243 266.12,-243 266.12,-249 266.12,-249 266.12,-252 263.12,-255 260.12,-255 260.12,-255 252.12,-255 252.12,-255 249.12,-255 246.12,-252 246.12,-249 246.12,-249 246.12,-243 246.12,-243 246.12,-240 249.12,-237 252.12,-237"/>
<text xml:space="preserve" text-anchor="start" x="254.62" y="-242.25" font-family="Arial" font-size="10.00"> </text>
<text xml:space="preserve" text-anchor="start" x="270.12" y="-242.25" font-family="Arial" font-size="10.00">Attribute</text>
<path fill="#f5b8b8" stroke="none" d="M316.88,-237C316.88,-237 324.88,-237 324.88,-237 327.88,-237 330.88,-240 330.88,-243 330.88,-243 330.88,-249 330.88,-249 330.88,-252 327.88,-255 324.88,-255 324.88,-255 316.88,-255 316.88,-255 313.88,-255 310.88,-252 310.88,-249 310.88,-249 310.88,-243 310.88,-243 310.88,-240 313.88,-237 316.88,-237"/>
<path fill="none" stroke="black" d="M316.88,-237C316.88,-237 324.88,-237 324.88,-237 327.88,-237 330.88,-240 330.88,-243 330.88,-243 330.88,-249 330.88,-249 330.88,-252 327.88,-255 324.88,-255 324.88,-255 316.88,-255 316.88,-255 313.88,-255 310.88,-252 310.88,-249 310.88,-249 310.88,-243 310.88,-243 310.88,-240 313.88,-237 316.88,-237"/>
<text xml:space="preserve" text-anchor="start" x="319.38" y="-242.25" font-family="Arial" font-size="10.00"> </text>
<text xml:space="preserve" text-anchor="start" x="334.88" y="-242.25" font-family="Arial" font-size="10.00">Relationship</text>
<text xml:space="preserve" text-anchor="start" x="394.88" y="-243.5" font-family="Arial" font-weight="bold" font-size="10.00">(+)</text>
<text xml:space="preserve" text-anchor="start" x="406.88" y="-243.5" font-family="Arial" font-size="10.00"> increases complexity</text>
<text xml:space="preserve" text-anchor="start" x="508.12" y="-243.5" font-family="Arial" font-weight="bold" font-size="10.00">(−)</text>
<text xml:space="preserve" text-anchor="start" x="520.12" y="-243.5" font-family="Arial" font-size="10.00"> decreases complexity</text>
<!-- mark.node -->
<g id="node1" class="node">
<title>mark.node</title>
<path fill="#b8e6b8" stroke="#2c3e50" stroke-width="1.8" d="M307.5,-166C307.5,-166 277.5,-166 277.5,-166 271.5,-166 265.5,-160 265.5,-154 265.5,-154 265.5,-142 265.5,-142 265.5,-136 271.5,-130 277.5,-130 277.5,-130 307.5,-130 307.5,-130 313.5,-130 319.5,-136 319.5,-142 319.5,-142 319.5,-154 319.5,-154 319.5,-160 313.5,-166 307.5,-166"/>
<text xml:space="preserve" text-anchor="middle" x="292.5" y="-144.5" font-family="Arial" font-size="10.00" fill="#1a1a1a">node</text>
</g>
<!-- attr_0 -->
<g id="node6" class="node">
<title>attr_0</title>
<path fill="#c7b8e6" stroke="#7f8c8d" stroke-width="1.2" d="M498.12,-231C498.12,-231 383.12,-231 383.12,-231 377.12,-231 371.12,-225 371.12,-219 371.12,-219 371.12,-207 371.12,-207 371.12,-201 377.12,-195 383.12,-195 383.12,-195 498.12,-195 498.12,-195 504.12,-195 510.12,-201 510.12,-207 510.12,-207 510.12,-219 510.12,-219 510.12,-225 504.12,-231 498.12,-231"/>
<text xml:space="preserve" text-anchor="middle" x="440.62" y="-209.5" font-family="Arial" font-size="10.00" fill="#1a1a1a">(+) overlapping dense nodes</text>
</g>
<!-- mark.node&#45;&gt;attr_0 -->
<g id="edge1" class="edge">
<title>mark.node&#45;&gt;attr_0</title>
<path fill="none" stroke="#aaaaaa" d="M320.22,-161.18C332.95,-167.36 348.43,-174.72 362.5,-181 370.05,-184.37 378.06,-187.82 385.95,-191.16"/>
<polygon fill="#aaaaaa" stroke="#aaaaaa" points="384.98,-193.41 392.38,-193.86 386.88,-188.89 384.98,-193.41"/>
</g>
<!-- rel_1 -->
<g id="node12" class="node">
<title>rel_1</title>
<path fill="#f5b8b8" stroke="#d46a6a" stroke-width="1.2" d="M460.25,-166C460.25,-166 421,-166 421,-166 415,-166 409,-160 409,-154 409,-154 409,-142 409,-142 409,-136 415,-130 421,-130 421,-130 460.25,-130 460.25,-130 466.25,-130 472.25,-136 472.25,-142 472.25,-142 472.25,-154 472.25,-154 472.25,-160 466.25,-166 460.25,-166"/>
<text xml:space="preserve" text-anchor="middle" x="440.62" y="-144.5" font-family="Arial" font-size="10.00" fill="#8b0000">mixes with</text>
</g>
<!-- mark.node&#45;&gt;rel_1 -->
<g id="edge8" class="edge">
<title>mark.node&#45;&gt;rel_1</title>
<path fill="none" stroke="#d46a6a" stroke-width="1.5" d="M320.3,-148C342.17,-148 373.43,-148 398.47,-148"/>
<polygon fill="#d46a6a" stroke="#d46a6a" stroke-width="1.5" points="398.16,-150.8 406.16,-148 398.16,-145.2 398.16,-150.8"/>
</g>
<!-- structure.link -->
<g id="node2" class="node">
<title>structure.link</title>
<path fill="#b8e6b8" stroke="#2c3e50" stroke-width="1.8" d="M42,-166C42,-166 12,-166 12,-166 6,-166 0,-160 0,-154 0,-154 0,-142 0,-142 0,-136 6,-130 12,-130 12,-130 42,-130 42,-130 48,-130 54,-136 54,-142 54,-142 54,-154 54,-154 54,-160 48,-166 42,-166"/>
<text xml:space="preserve" text-anchor="middle" x="27" y="-144.5" font-family="Arial" font-size="10.00" fill="#1a1a1a">link</text>
</g>
<!-- attr_1 -->
<g id="node7" class="node">
<title>attr_1</title>
<path fill="#c7b8e6" stroke="#7f8c8d" stroke-width="1.2" d="M210.5,-231C210.5,-231 109,-231 109,-231 103,-231 97,-225 97,-219 97,-219 97,-207 97,-207 97,-201 103,-195 109,-195 109,-195 210.5,-195 210.5,-195 216.5,-195 222.5,-201 222.5,-207 222.5,-207 222.5,-219 222.5,-219 222.5,-225 216.5,-231 210.5,-231"/>
<text xml:space="preserve" text-anchor="middle" x="159.75" y="-209.5" font-family="Arial" font-size="10.00" fill="#1a1a1a">(+) tangled crossing links</text>
</g>
<!-- structure.link&#45;&gt;attr_1 -->
<g id="edge2" class="edge">
<title>structure.link&#45;&gt;attr_1</title>
<path fill="none" stroke="#aaaaaa" d="M54.77,-161.31C71.87,-169.81 94.44,-181.03 114.19,-190.85"/>
<polygon fill="#aaaaaa" stroke="#aaaaaa" points="112.89,-192.94 120.25,-193.86 115.07,-188.55 112.89,-192.94"/>
</g>
<!-- rel_0 -->
<g id="node11" class="node">
<title>rel_0</title>
<path fill="#f5b8b8" stroke="#d46a6a" stroke-width="1.2" d="M175.62,-166C175.62,-166 143.88,-166 143.88,-166 137.88,-166 131.88,-160 131.88,-154 131.88,-154 131.88,-142 131.88,-142 131.88,-136 137.88,-130 143.88,-130 143.88,-130 175.62,-130 175.62,-130 181.62,-130 187.62,-136 187.62,-142 187.62,-142 187.62,-154 187.62,-154 187.62,-160 181.62,-166 175.62,-166"/>
<text xml:space="preserve" text-anchor="middle" x="159.75" y="-144.5" font-family="Arial" font-size="10.00" fill="#8b0000">obscures</text>
</g>
<!-- structure.link&#45;&gt;rel_0 -->
<g id="edge6" class="edge">
<title>structure.link&#45;&gt;rel_0</title>
<path fill="none" stroke="#d46a6a" stroke-width="1.5" d="M54.77,-148C74.04,-148 100.26,-148 121.56,-148"/>
<polygon fill="#d46a6a" stroke="#d46a6a" stroke-width="1.5" points="121.29,-150.8 129.29,-148 121.29,-145.2 121.29,-150.8"/>
</g>
<!-- rel_3 -->
<g id="node14" class="node">
<title>rel_3</title>
<path fill="#f5b8b8" stroke="#d46a6a" stroke-width="1.2" d="M182,-101C182,-101 137.5,-101 137.5,-101 131.5,-101 125.5,-95 125.5,-89 125.5,-89 125.5,-77 125.5,-77 125.5,-71 131.5,-65 137.5,-65 137.5,-65 182,-65 182,-65 188,-65 194,-71 194,-77 194,-77 194,-89 194,-89 194,-95 188,-101 182,-101"/>
<text xml:space="preserve" text-anchor="middle" x="159.75" y="-79.5" font-family="Arial" font-size="10.00" fill="#8b0000">overwhelms</text>
</g>
<!-- structure.link&#45;&gt;rel_3 -->
<g id="edge12" class="edge">
<title>structure.link&#45;&gt;rel_3</title>
<path fill="none" stroke="#d46a6a" stroke-width="1.5" d="M54.77,-134.69C72.4,-125.93 95.85,-114.27 116.02,-104.24"/>
<polygon fill="#d46a6a" stroke="#d46a6a" stroke-width="1.5" points="117.08,-106.84 122.99,-100.78 114.58,-101.83 117.08,-106.84"/>
</g>
<!-- text.label -->
<g id="node3" class="node">
<title>text.label</title>
<path fill="#b8e6b8" stroke="#2c3e50" stroke-width="1.8" d="M607.25,-166C607.25,-166 577.25,-166 577.25,-166 571.25,-166 565.25,-160 565.25,-154 565.25,-154 565.25,-142 565.25,-142 565.25,-136 571.25,-130 577.25,-130 577.25,-130 607.25,-130 607.25,-130 613.25,-130 619.25,-136 619.25,-142 619.25,-142 619.25,-154 619.25,-154 619.25,-160 613.25,-166 607.25,-166"/>
<text xml:space="preserve" text-anchor="middle" x="592.25" y="-144.5" font-family="Arial" font-size="10.00" fill="#1a1a1a">label</text>
</g>
<!-- attr_2 -->
<g id="node8" class="node">
<title>attr_2</title>
<path fill="#c7b8e6" stroke="#7f8c8d" stroke-width="1.2" d="M790.5,-166C790.5,-166 685.25,-166 685.25,-166 679.25,-166 673.25,-160 673.25,-154 673.25,-154 673.25,-142 673.25,-142 673.25,-136 679.25,-130 685.25,-130 685.25,-130 790.5,-130 790.5,-130 796.5,-130 802.5,-136 802.5,-142 802.5,-142 802.5,-154 802.5,-154 802.5,-160 796.5,-166 790.5,-166"/>
<text xml:space="preserve" text-anchor="middle" x="737.88" y="-144.5" font-family="Arial" font-size="10.00" fill="#1a1a1a">(+) mixed with data points</text>
</g>
<!-- text.label&#45;&gt;attr_2 -->
<g id="edge3" class="edge">
<title>text.label&#45;&gt;attr_2</title>
<path fill="none" stroke="#aaaaaa" d="M619.93,-148C632.64,-148 648.52,-148 664.45,-148"/>
<polygon fill="#aaaaaa" stroke="#aaaaaa" points="664.25,-150.45 671.25,-148 664.25,-145.55 664.25,-150.45"/>
</g>
<!-- structure.layout -->
<g id="node4" class="node">
<title>structure.layout</title>
<path fill="#b8e6b8" stroke="#2c3e50" stroke-width="1.8" d="M307.5,-101C307.5,-101 277.5,-101 277.5,-101 271.5,-101 265.5,-95 265.5,-89 265.5,-89 265.5,-77 265.5,-77 265.5,-71 271.5,-65 277.5,-65 277.5,-65 307.5,-65 307.5,-65 313.5,-65 319.5,-71 319.5,-77 319.5,-77 319.5,-89 319.5,-89 319.5,-95 313.5,-101 307.5,-101"/>
<text xml:space="preserve" text-anchor="middle" x="292.5" y="-79.5" font-family="Arial" font-size="10.00" fill="#1a1a1a">layout</text>
</g>
<!-- attr_3 -->
<g id="node9" class="node">
<title>attr_3</title>
<path fill="#c7b8e6" stroke="#7f8c8d" stroke-width="1.2" d="M506.75,-101C506.75,-101 374.5,-101 374.5,-101 368.5,-101 362.5,-95 362.5,-89 362.5,-89 362.5,-77 362.5,-77 362.5,-71 368.5,-65 374.5,-65 374.5,-65 506.75,-65 506.75,-65 512.75,-65 518.75,-71 518.75,-77 518.75,-77 518.75,-89 518.75,-89 518.75,-95 512.75,-101 506.75,-101"/>
<text xml:space="preserve" text-anchor="middle" x="440.62" y="-79.5" font-family="Arial" font-size="10.00" fill="#1a1a1a">(+) not immediately interpretable</text>
</g>
<!-- structure.layout&#45;&gt;attr_3 -->
<g id="edge4" class="edge">
<title>structure.layout&#45;&gt;attr_3</title>
<path fill="none" stroke="#aaaaaa" d="M320.3,-83C330.01,-83 341.57,-83 353.61,-83"/>
<polygon fill="#aaaaaa" stroke="#aaaaaa" points="353.49,-85.45 360.49,-83 353.49,-80.55 353.49,-85.45"/>
</g>
<!-- rel_2 -->
<g id="node13" class="node">
<title>rel_2</title>
<path fill="#f5b8b8" stroke="#d46a6a" stroke-width="1.2" d="M455.62,-36C455.62,-36 425.62,-36 425.62,-36 419.62,-36 413.62,-30 413.62,-24 413.62,-24 413.62,-12 413.62,-12 413.62,-6 419.62,0 425.62,0 425.62,0 455.62,0 455.62,0 461.62,0 467.62,-6 467.62,-12 467.62,-12 467.62,-24 467.62,-24 467.62,-30 461.62,-36 455.62,-36"/>
<text xml:space="preserve" text-anchor="middle" x="440.62" y="-14.5" font-family="Arial" font-size="10.00" fill="#8b0000">hinders</text>
</g>
<!-- structure.layout&#45;&gt;rel_2 -->
<g id="edge10" class="edge">
<title>structure.layout&#45;&gt;rel_2</title>
<path fill="none" stroke="#d46a6a" stroke-width="1.5" d="M320.28,-70.35C333.03,-64.39 348.51,-57.24 362.5,-51 375.99,-44.99 390.89,-38.56 403.97,-32.99"/>
<polygon fill="#d46a6a" stroke="#d46a6a" stroke-width="1.5" points="404.77,-35.7 411.04,-29.99 402.58,-30.54 404.77,-35.7"/>
</g>
<!-- furniture.legend -->
<g id="node5" class="node">
<title>furniture.legend</title>
<path fill="#b8e6b8" stroke="#2c3e50" stroke-width="1.8" d="M610.75,-36C610.75,-36 573.75,-36 573.75,-36 567.75,-36 561.75,-30 561.75,-24 561.75,-24 561.75,-12 561.75,-12 561.75,-6 567.75,0 573.75,0 573.75,0 610.75,0 610.75,0 616.75,0 622.75,-6 622.75,-12 622.75,-12 622.75,-24 622.75,-24 622.75,-30 616.75,-36 610.75,-36"/>
<text xml:space="preserve" text-anchor="middle" x="592.25" y="-14.5" font-family="Arial" font-size="10.00" fill="#1a1a1a">color code</text>
</g>
<!-- attr_4 -->
<g id="node10" class="node">
<title>attr_4</title>
<path fill="#c7b8e6" stroke="#7f8c8d" stroke-width="1.2" d="M798,-36C798,-36 677.75,-36 677.75,-36 671.75,-36 665.75,-30 665.75,-24 665.75,-24 665.75,-12 665.75,-12 665.75,-6 671.75,0 677.75,0 677.75,0 798,0 798,0 804,0 810,-6 810,-12 810,-12 810,-24 810,-24 810,-30 804,-36 798,-36"/>
<text xml:space="preserve" text-anchor="middle" x="737.88" y="-14.5" font-family="Arial" font-size="10.00" fill="#1a1a1a">(+) unclear encoding meaning</text>
</g>
<!-- furniture.legend&#45;&gt;attr_4 -->
<g id="edge5" class="edge">
<title>furniture.legend&#45;&gt;attr_4</title>
<path fill="none" stroke="#aaaaaa" d="M623.36,-18C633.38,-18 645.07,-18 657.05,-18"/>
<polygon fill="#aaaaaa" stroke="#aaaaaa" points="656.87,-20.45 663.87,-18 656.87,-15.55 656.87,-20.45"/>
</g>
<!-- rel_0&#45;&gt;mark.node -->
<g id="edge7" class="edge">
<title>rel_0&#45;&gt;mark.node</title>
<path fill="none" stroke="#d46a6a" stroke-width="1.5" d="M188.16,-148C207.51,-148 233.64,-148 254.79,-148"/>
<polygon fill="#d46a6a" stroke="#d46a6a" stroke-width="1.5" points="254.75,-150.8 262.75,-148 254.75,-145.2 254.75,-150.8"/>
</g>
<!-- rel_1&#45;&gt;text.label -->
<g id="edge9" class="edge">
<title>rel_1&#45;&gt;text.label</title>
<path fill="none" stroke="#d46a6a" stroke-width="1.5" d="M472.63,-148C496.44,-148 529.41,-148 554.54,-148"/>
<polygon fill="#d46a6a" stroke="#d46a6a" stroke-width="1.5" points="554.52,-150.8 562.52,-148 554.52,-145.2 554.52,-150.8"/>
</g>
<!-- rel_2&#45;&gt;furniture.legend -->
<g id="edge11" class="edge">
<title>rel_2&#45;&gt;furniture.legend</title>
<path fill="none" stroke="#d46a6a" stroke-width="1.5" d="M468.03,-18C490.99,-18 524.61,-18 550.93,-18"/>
<polygon fill="#d46a6a" stroke="#d46a6a" stroke-width="1.5" points="550.72,-20.8 558.72,-18 550.72,-15.2 550.72,-20.8"/>
</g>
<!-- rel_3&#45;&gt;structure.layout -->
<g id="edge13" class="edge">
<title>rel_3&#45;&gt;structure.layout</title>
<path fill="none" stroke="#d46a6a" stroke-width="1.5" d="M194.42,-83C212.94,-83 235.93,-83 254.89,-83"/>
<polygon fill="#d46a6a" stroke="#d46a6a" stroke-width="1.5" points="254.68,-85.8 262.68,-83 254.68,-80.2 254.68,-85.8"/>
</g>
</g>
</svg>
