<?xml version="1.0" encoding="UTF-8" standalone="no"?>
<!DOCTYPE svg PUBLIC "-//W3C//DTD SVG 1.1//EN"
 "http://www.w3.org/Graphics/SVG/1.1/DTD/svg11.dtd">
<!-- Generated by graphviz version 14.1.5 (20260411.2331)
 -->
<!-- Title: VASTJ.1.7.png Pages: 1 -->
<svg width="817pt" height="375pt"
 viewBox="0.00 0.00 817.00 375.00" xmlns="http://www.w3.org/2000/svg" xmlns:xlink="http://www.w3.org/1999/xlink">
<g id="graph0" class="graph" transform="scale(1 1) rotate(0) translate(4 371.25)">
<title>VASTJ.1.7.png</title>
<polygon fill="white" stroke="none" points="-4,4 -4,-371.25 813.25,-371.25 813.25,4 -4,4"/>
<text xml:space="preserve" text-anchor="start" x="357.75" y="-346.95" font-family="Arial" font-weight="bold" font-size="14.00">VASTJ.1.7.png</text>
<text xml:space="preserve" text-anchor="start" x="349.5" y="-327" font-family="Arial" font-size="11.00">Node&#45;link &#160;| &#160;VC = 0.83</text>
<path fill="#b8e6b8" stroke="none" d="M195.25,-302C195.25,-302 203.25,-302 203.25,-302 206.25,-302 209.25,-305 209.25,-308 209.25,-308 209.25,-314 209.25,-314 209.25,-317 206.25,-320 203.25,-320 203.25,-320 195.25,-320 195.25,-320 192.25,-320 189.25,-317 189.25,-314 189.25,-314 189.25,-308 189.25,-308 189.25,-305 192.25,-302 195.25,-302"/>
<path fill="none" stroke="black" d="M195.25,-302C195.25,-302 203.25,-302 203.25,-302 206.25,-302 209.25,-305 209.25,-308 209.25,-308 209.25,-314 209.25,-314 209.25,-317 206.25,-320 203.25,-320 203.25,-320 195.25,-320 195.25,-320 192.25,-320 189.25,-317 189.25,-314 189.25,-314 189.25,-308 189.25,-308 189.25,-305 192.25,-302 195.25,-302"/>
<text xml:space="preserve" text-anchor="start" x="197.75" y="-307.25" font-family="Arial" font-size="10.00"> </text>
<text xml:space="preserve" text-anchor="start" x="213.25" y="-307.25" font-family="Arial" font-size="10.00">Object</text>
<path fill="#c7b8e6" stroke="none" d="M251.75,-302C251.75,-302 259.75,-302 259.75,-302 262.75,-302 265.75,-305 265.75,-308 265.75,-308 265.75,-314 265.75,-314 265.75,-317 262.75,-320 259.75,-320 259.75,-320 251.75,-320 251.75,-320 248.75,-320 245.75,-317 245.75,-314 245.75,-314 245.75,-308 245.75,-308 245.75,-305 248.75,-302 251.75,-302"/>
<path fill="none" stroke="black" d="M251.75,-302C251.75,-302 259.75,-302 259.75,-302 262.75,-302 265.75,-305 265.75,-308 265.75,-308 265.75,-314 265.75,-314 265.75,-317 262.75,-320 259.75,-320 259.75,-320 251.75,-320 251.75,-320 248.75,-320 245.75,-317 245.75,-314 245.75,-314 245.75,-308 245.75,-308 245.75,-305 248.75,-302 251.75,-302"/>
<text xml:space="preserve" text-anchor="start" x="254.25" y="-307.25" font-family="Arial" font-size="10.00"> </text>
<text xml:space="preserve" text-anchor="start" x="269.75" y="-307.25" font-family="Arial" font-size="10.00">Attribute</text>
<path fill="#f5b8b8" stroke="none" d="M316.5,-302C316.5,-302 324.5,-302 324.5,-302 327.5,-302 330.5,-305 330.5,-308 330.5,-308 330.5,-314 330.5,-314 330.5,-317 327.5,-320 324.5,-320 324.5,-320 316.5,-320 316.5,-320 313.5,-320 310.5,-317 310.5,-314 310.5,-314 310.5,-308 310.5,-308 310.5,-305 313.5,-302 316.5,-302"/>
<path fill="none" stroke="black" d="M316.5,-302C316.5,-302 324.5,-302 324.5,-302 327.5,-302 330.5,-305 330.5,-308 330.5,-308 330.5,-314 330.5,-314 330.5,-317 327.5,-320 324.5,-320 324.5,-320 316.5,-320 316.5,-320 313.5,-320 310.5,-317 310.5,-314 310.5,-314 310.5,-308 310.5,-308 310.5,-305 313.5,-302 316.5,-302"/>
<text xml:space="preserve" text-anchor="start" x="319" y="-307.25" font-family="Arial" font-size="10.00"> </text>
<text xml:space="preserve" text-anchor="start" x="334.5" y="-307.25" font-family="Arial" font-size="10.00">Relationship</text>
<text xml:space="preserve" text-anchor="start" x="394.5" y="-308.5" font-family="Arial" font-weight="bold" font-size="10.00">(+)</text>
<text xml:space="preserve" text-anchor="start" x="406.5" y="-308.5" font-family="Arial" font-size="10.00"> increases complexity</text>
<text xml:space="preserve" text-anchor="start" x="507.75" y="-308.5" font-family="Arial" font-weight="bold" font-size="10.00">(−)</text>
<text xml:space="preserve" text-anchor="start" x="519.75" y="-308.5" font-family="Arial" font-size="10.00"> decreases complexity</text>
<!-- mark.node -->
<g id="node1" class="node">
<title>mark.node</title>
<path fill="#b8e6b8" stroke="#2c3e50" stroke-width="1.8" d="M640.75,-36C640.75,-36 610.75,-36 610.75,-36 604.75,-36 598.75,-30 598.75,-24 598.75,-24 598.75,-12 598.75,-12 598.75,-6 604.75,0 610.75,0 610.75,0 640.75,0 640.75,0 646.75,0 652.75,-6 652.75,-12 652.75,-12 652.75,-24 652.75,-24 652.75,-30 646.75,-36 640.75,-36"/>
<text xml:space="preserve" text-anchor="middle" x="625.75" y="-14.5" font-family="Arial" font-size="10.00" fill="#1a1a1a">node</text>
</g>
<!-- attr_2 -->
<g id="node5" class="node">
<title>attr_2</title>
<path fill="#c7b8e6" stroke="#7f8c8d" stroke-width="1.2" d="M797.25,-36C797.25,-36 707.75,-36 707.75,-36 701.75,-36 695.75,-30 695.75,-24 695.75,-24 695.75,-12 695.75,-12 695.75,-6 701.75,0 707.75,0 707.75,0 797.25,0 797.25,0 803.25,0 809.25,-6 809.25,-12 809.25,-12 809.25,-24 809.25,-24 809.25,-30 803.25,-36 797.25,-36"/>
<text xml:space="preserve" text-anchor="middle" x="752.5" y="-14.5" font-family="Arial" font-size="10.00" fill="#1a1a1a">(+) high element count</text>
</g>
<!-- mark.node&#45;&gt;attr_2 -->
<g id="edge1" class="edge">
<title>mark.node&#45;&gt;attr_2</title>
<path fill="none" stroke="#aaaaaa" d="M653.51,-18C663.46,-18 675.22,-18 687.09,-18"/>
<polygon fill="#aaaaaa" stroke="#aaaaaa" points="686.78,-20.45 693.78,-18 686.78,-15.55 686.78,-20.45"/>
</g>
<!-- structure.layout -->
<g id="node2" class="node">
<title>structure.layout</title>
<path fill="#b8e6b8" stroke="#2c3e50" stroke-width="1.8" d="M334.75,-101C334.75,-101 304.75,-101 304.75,-101 298.75,-101 292.75,-95 292.75,-89 292.75,-89 292.75,-77 292.75,-77 292.75,-71 298.75,-65 304.75,-65 304.75,-65 334.75,-65 334.75,-65 340.75,-65 346.75,-71 346.75,-77 346.75,-77 346.75,-89 346.75,-89 346.75,-95 340.75,-101 334.75,-101"/>
<text xml:space="preserve" text-anchor="middle" x="319.75" y="-79.5" font-family="Arial" font-size="10.00" fill="#1a1a1a">layout</text>
</g>
<!-- attr_1 -->
<g id="node6" class="node">
<title>attr_1</title>
<path fill="#c7b8e6" stroke="#7f8c8d" stroke-width="1.2" d="M543.75,-166C543.75,-166 401.75,-166 401.75,-166 395.75,-166 389.75,-160 389.75,-154 389.75,-154 389.75,-142 389.75,-142 389.75,-136 395.75,-130 401.75,-130 401.75,-130 543.75,-130 543.75,-130 549.75,-130 555.75,-136 555.75,-142 555.75,-142 555.75,-154 555.75,-154 555.75,-160 549.75,-166 543.75,-166"/>
<text xml:space="preserve" text-anchor="middle" x="472.75" y="-144.5" font-family="Arial" font-size="10.00" fill="#1a1a1a">(+) disorganized spatial arrangeme</text>
</g>
<!-- structure.layout&#45;&gt;attr_1 -->
<g id="edge2" class="edge">
<title>structure.layout&#45;&gt;attr_1</title>
<path fill="none" stroke="#aaaaaa" d="M347.41,-96.32C360.13,-102.52 375.62,-109.87 389.75,-116 397.8,-119.49 406.37,-123.03 414.81,-126.41"/>
<polygon fill="#aaaaaa" stroke="#aaaaaa" points="413.69,-128.6 421.1,-128.91 415.5,-124.05 413.69,-128.6"/>
</g>
<!-- attr_4 -->
<g id="node7" class="node">
<title>attr_4</title>
<path fill="#c7b8e6" stroke="#7f8c8d" stroke-width="1.2" d="M528.75,-101C528.75,-101 416.75,-101 416.75,-101 410.75,-101 404.75,-95 404.75,-89 404.75,-89 404.75,-77 404.75,-77 404.75,-71 410.75,-65 416.75,-65 416.75,-65 528.75,-65 528.75,-65 534.75,-65 540.75,-71 540.75,-77 540.75,-77 540.75,-89 540.75,-89 540.75,-95 534.75,-101 528.75,-101"/>
<text xml:space="preserve" text-anchor="middle" x="472.75" y="-79.5" font-family="Arial" font-size="10.00" fill="#1a1a1a">(+) lacks coherent structure</text>
</g>
<!-- structure.layout&#45;&gt;attr_4 -->
<g id="edge3" class="edge">
<title>structure.layout&#45;&gt;attr_4</title>
<path fill="none" stroke="#aaaaaa" d="M347.4,-83C361,-83 378.32,-83 395.68,-83"/>
<polygon fill="#aaaaaa" stroke="#aaaaaa" points="395.67,-85.45 402.67,-83 395.67,-80.55 395.67,-85.45"/>
</g>
<!-- rel_1 -->
<g id="node11" class="node">
<title>rel_1</title>
<path fill="#f5b8b8" stroke="#d46a6a" stroke-width="1.2" d="M487.75,-36C487.75,-36 457.75,-36 457.75,-36 451.75,-36 445.75,-30 445.75,-24 445.75,-24 445.75,-12 445.75,-12 445.75,-6 451.75,0 457.75,0 457.75,0 487.75,0 487.75,0 493.75,0 499.75,-6 499.75,-12 499.75,-12 499.75,-24 499.75,-24 499.75,-30 493.75,-36 487.75,-36"/>
<text xml:space="preserve" text-anchor="middle" x="472.75" y="-14.5" font-family="Arial" font-size="10.00" fill="#8b0000">prolongs</text>
</g>
<!-- structure.layout&#45;&gt;rel_1 -->
<g id="edge8" class="edge">
<title>structure.layout&#45;&gt;rel_1</title>
<path fill="none" stroke="#d46a6a" stroke-width="1.5" d="M347.41,-69.68C360.13,-63.48 375.62,-56.13 389.75,-50 404.67,-43.53 421.36,-36.91 435.77,-31.38"/>
<polygon fill="#d46a6a" stroke="#d46a6a" stroke-width="1.5" points="436.73,-34.01 443.21,-28.55 434.73,-28.78 436.73,-34.01"/>
</g>
<!-- unknown.picture_icon -->
<g id="node3" class="node">
<title>unknown.picture_icon</title>
<path fill="#b8e6b8" stroke="#2c3e50" stroke-width="1.8" d="M54.25,-198C54.25,-198 12,-198 12,-198 6,-198 0,-192 0,-186 0,-186 0,-174 0,-174 0,-168 6,-162 12,-162 12,-162 54.25,-162 54.25,-162 60.25,-162 66.25,-168 66.25,-174 66.25,-174 66.25,-186 66.25,-186 66.25,-192 60.25,-198 54.25,-198"/>
<text xml:space="preserve" text-anchor="middle" x="33.12" y="-176.5" font-family="Arial" font-size="10.00" fill="#1a1a1a">picture icon</text>
</g>
<!-- attr_0 -->
<g id="node8" class="node">
<title>attr_0</title>
<path fill="#c7b8e6" stroke="#7f8c8d" stroke-width="1.2" d="M234,-296C234,-296 125,-296 125,-296 119,-296 113,-290 113,-284 113,-284 113,-272 113,-272 113,-266 119,-260 125,-260 125,-260 234,-260 234,-260 240,-260 246,-266 246,-272 246,-272 246,-284 246,-284 246,-290 240,-296 234,-296"/>
<text xml:space="preserve" text-anchor="middle" x="179.5" y="-274.5" font-family="Arial" font-size="10.00" fill="#1a1a1a">(+) scattered across space</text>
</g>
<!-- unknown.picture_icon&#45;&gt;attr_0 -->
<g id="edge4" class="edge">
<title>unknown.picture_icon&#45;&gt;attr_0</title>
<path fill="none" stroke="#aaaaaa" d="M52.35,-198.72C66.85,-212.92 88.15,-232.27 109.25,-246 114.56,-249.45 120.3,-252.73 126.13,-255.78"/>
<polygon fill="#aaaaaa" stroke="#aaaaaa" points="124.82,-257.87 132.17,-258.84 127.03,-253.5 124.82,-257.87"/>
</g>
<!-- attr_3 -->
<g id="node9" class="node">
<title>attr_3</title>
<path fill="#c7b8e6" stroke="#7f8c8d" stroke-width="1.2" d="M237.75,-231C237.75,-231 121.25,-231 121.25,-231 115.25,-231 109.25,-225 109.25,-219 109.25,-219 109.25,-207 109.25,-207 109.25,-201 115.25,-195 121.25,-195 121.25,-195 237.75,-195 237.75,-195 243.75,-195 249.75,-201 249.75,-207 249.75,-207 249.75,-219 249.75,-219 249.75,-225 243.75,-231 237.75,-231"/>
<text xml:space="preserve" text-anchor="middle" x="179.5" y="-209.5" font-family="Arial" font-size="10.00" fill="#1a1a1a">(+) requires longer scan time</text>
</g>
<!-- unknown.picture_icon&#45;&gt;attr_3 -->
<g id="edge5" class="edge">
<title>unknown.picture_icon&#45;&gt;attr_3</title>
<path fill="none" stroke="#aaaaaa" d="M66.89,-187.49C77.03,-189.81 88.66,-192.47 100.51,-195.17"/>
<polygon fill="#aaaaaa" stroke="#aaaaaa" points="99.88,-197.54 107.25,-196.71 100.97,-192.77 99.88,-197.54"/>
</g>
<!-- rel_0 -->
<g id="node10" class="node">
<title>rel_0</title>
<path fill="#f5b8b8" stroke="#d46a6a" stroke-width="1.2" d="M196.5,-166C196.5,-166 162.5,-166 162.5,-166 156.5,-166 150.5,-160 150.5,-154 150.5,-154 150.5,-142 150.5,-142 150.5,-136 156.5,-130 162.5,-130 162.5,-130 196.5,-130 196.5,-130 202.5,-130 208.5,-136 208.5,-142 208.5,-142 208.5,-154 208.5,-154 208.5,-160 202.5,-166 196.5,-166"/>
<text xml:space="preserve" text-anchor="middle" x="179.5" y="-144.5" font-family="Arial" font-size="10.00" fill="#8b0000">increases</text>
</g>
<!-- unknown.picture_icon&#45;&gt;rel_0 -->
<g id="edge6" class="edge">
<title>unknown.picture_icon&#45;&gt;rel_0</title>
<path fill="none" stroke="#d46a6a" stroke-width="1.5" d="M66.89,-172.74C88.77,-167.89 117.63,-161.49 140.53,-156.42"/>
<polygon fill="#d46a6a" stroke="#d46a6a" stroke-width="1.5" points="140.83,-159.22 148.04,-154.75 139.62,-153.75 140.83,-159.22"/>
</g>
<!-- rel_2 -->
<g id="node12" class="node">
<title>rel_2</title>
<path fill="#f5b8b8" stroke="#d46a6a" stroke-width="1.2" d="M205.12,-101C205.12,-101 153.88,-101 153.88,-101 147.88,-101 141.88,-95 141.88,-89 141.88,-89 141.88,-77 141.88,-77 141.88,-71 147.88,-65 153.88,-65 153.88,-65 205.12,-65 205.12,-65 211.12,-65 217.12,-71 217.12,-77 217.12,-77 217.12,-89 217.12,-89 217.12,-95 211.12,-101 205.12,-101"/>
<text xml:space="preserve" text-anchor="middle" x="179.5" y="-79.5" font-family="Arial" font-size="10.00" fill="#8b0000">contributes to</text>
</g>
<!-- unknown.picture_icon&#45;&gt;rel_2 -->
<g id="edge10" class="edge">
<title>unknown.picture_icon&#45;&gt;rel_2</title>
<path fill="none" stroke="#d46a6a" stroke-width="1.5" d="M53.4,-161.1C67.95,-147.48 88.83,-129.23 109.25,-116 116.48,-111.31 124.48,-106.89 132.39,-102.89"/>
<polygon fill="#d46a6a" stroke="#d46a6a" stroke-width="1.5" points="133.59,-105.42 139.55,-99.4 131.14,-100.39 133.59,-105.42"/>
</g>
<!-- structure.link -->
<g id="node4" class="node">
<title>structure.link</title>
<path fill="#b8e6b8" stroke="#2c3e50" stroke-width="1.8" d="M334.75,-166C334.75,-166 304.75,-166 304.75,-166 298.75,-166 292.75,-160 292.75,-154 292.75,-154 292.75,-142 292.75,-142 292.75,-136 298.75,-130 304.75,-130 304.75,-130 334.75,-130 334.75,-130 340.75,-130 346.75,-136 346.75,-142 346.75,-142 346.75,-154 346.75,-154 346.75,-160 340.75,-166 334.75,-166"/>
<text xml:space="preserve" text-anchor="middle" x="319.75" y="-144.5" font-family="Arial" font-size="10.00" fill="#1a1a1a">link</text>
</g>
<!-- rel_0&#45;&gt;structure.link -->
<g id="edge7" class="edge">
<title>rel_0&#45;&gt;structure.link</title>
<path fill="none" stroke="#d46a6a" stroke-width="1.5" d="M208.81,-148C229.91,-148 258.91,-148 281.83,-148"/>
<polygon fill="#d46a6a" stroke="#d46a6a" stroke-width="1.5" points="281.62,-150.8 289.62,-148 281.62,-145.2 281.62,-150.8"/>
</g>
<!-- rel_1&#45;&gt;mark.node -->
<g id="edge9" class="edge">
<title>rel_1&#45;&gt;mark.node</title>
<path fill="none" stroke="#d46a6a" stroke-width="1.5" d="M500.05,-18C524.4,-18 560.85,-18 588.06,-18"/>
<polygon fill="#d46a6a" stroke="#d46a6a" stroke-width="1.5" points="587.72,-20.8 595.72,-18 587.72,-15.2 587.72,-20.8"/>
</g>
<!-- rel_2&#45;&gt;structure.layout -->
<g id="edge11" class="edge">
<title>rel_2&#45;&gt;structure.layout</title>
<path fill="none" stroke="#d46a6a" stroke-width="1.5" d="M217.55,-83C237.48,-83 261.99,-83 281.89,-83"/>
<polygon fill="#d46a6a" stroke="#d46a6a" stroke-width="1.5" points="281.85,-85.8 289.85,-83 281.85,-80.2 281.85,-85.8"/>
</g>
</g>
</svg>
