<?xml version="1.0" encoding="UTF-8" standalone="no"?>
<!DOCTYPE svg PUBLIC "-//W3C//DTD SVG 1.1//EN"
 "http://www.w3.org/Graphics/SVG/1.1/DTD/svg11.dtd">
<!-- Generated by graphviz version 14.1.5 (20260411.2331)
 -->
<!-- Title: VASTJ.51.7.png Pages: 1 -->
<svg width="799pt" height="439pt"
 viewBox="0.00 0.00 799.00 439.00" xmlns="http://www.w3.org/2000/svg" xmlns:xlink="http://www.w3.org/1999/xlink">
<g id="graph0" class="graph" transform="scale(1 1) rotate(0) translate(4 435.25)">
<title>VASTJ.51.7.png</title>
<polygon fill="white" stroke="none" points="-4,4 -4,-435.25 794.75,-435.25 794.75,4 -4,4"/>
<text xml:space="preserve" text-anchor="start" x="344.75" y="-410.95" font-family="Arial" font-weight="bold" font-size="14.00">VASTJ.51.7.png</text>
<text xml:space="preserve" text-anchor="start" x="350.75" y="-391" font-family="Arial" font-size="11.00">Point &#160;| &#160;VC = 0.37</text>
<path fill="#b8e6b8" stroke="none" d="M186,-366C186,-366 194,-366 194,-366 197,-366 200,-369 200,-372 200,-372 200,-378 200,-378 200,-381 197,-384 194,-384 194,-384 186,-384 186,-384 183,-384 180,-381 180,-378 180,-378 180,-372 180,-372 180,-369 183,-366 186,-366"/>
<path fill="none" stroke="black" d="M186,-366C186,-366 194,-366 194,-366 197,-366 200,-369 200,-372 200,-372 200,-378 200,-378 200,-381 197,-384 194,-384 194,-384 186,-384 186,-384 183,-384 180,-381 180,-378 180,-378 180,-372 180,-372 180,-369 183,-366 186,-366"/>
<text xml:space="preserve" text-anchor="start" x="188.5" y="-371.25" font-family="Arial" font-size="10.00"> </text>
<text xml:space="preserve" text-anchor="start" x="204" y="-371.25" font-family="Arial" font-size="10.00">Object</text>
<path fill="#c7b8e6" stroke="none" d="M242.5,-366C242.5,-366 250.5,-366 250.5,-366 253.5,-366 256.5,-369 256.5,-372 256.5,-372 256.5,-378 256.5,-378 256.5,-381 253.5,-384 250.5,-384 250.5,-384 242.5,-384 242.5,-384 239.5,-384 236.5,-381 236.5,-378 236.5,-378 236.5,-372 236.5,-372 236.5,-369 239.5,-366 242.5,-366"/>
<path fill="none" stroke="black" d="M242.5,-366C242.5,-366 250.5,-366 250.5,-366 253.5,-366 256.5,-369 256.5,-372 256.5,-372 256.5,-378 256.5,-378 256.5,-381 253.5,-384 250.5,-384 250.5,-384 242.5,-384 242.5,-384 239.5,-384 236.5,-381 236.5,-378 236.5,-378 236.5,-372 236.5,-372 236.5,-369 239.5,-366 242.5,-366"/>
<text xml:space="preserve" text-anchor="start" x="245" y="-371.25" font-family="Arial" font-size="10.00"> </text>
<text xml:space="preserve" text-anchor="start" x="260.5" y="-371.25" font-family="Arial" font-size="10.00">Attribute</text>
<path fill="#f5b8b8" stroke="none" d="M307.25,-366C307.25,-366 315.25,-366 315.25,-366 318.25,-366 321.25,-369 321.25,-372 321.25,-372 321.25,-378 321.25,-378 321.25,-381 318.25,-384 315.25,-384 315.25,-384 307.25,-384 307.25,-384 304.25,-384 301.25,-381 301.25,-378 301.25,-378 301.25,-372 301.25,-372 301.25,-369 304.25,-366 307.25,-366"/>
<path fill="none" stroke="black" d="M307.25,-366C307.25,-366 315.25,-366 315.25,-366 318.25,-366 321.25,-369 321.25,-372 321.25,-372 321.25,-378 321.25,-378 321.25,-381 318.25,-384 315.25,-384 315.25,-384 307.25,-384 307.25,-384 304.25,-384 301.25,-381 301.25,-378 301.25,-378 301.25,-372 301.25,-372 301.25,-369 304.25,-366 307.25,-366"/>
<text xml:space="preserve" text-anchor="start" x="309.75" y="-371.25" font-family="Arial" font-size="10.00"> </text>
<text xml:space="preserve" text-anchor="start" x="325.25" y="-371.25" font-family="Arial" font-size="10.00">Relationship</text>
<text xml:space="preserve" text-anchor="start" x="385.25" y="-372.5" font-family="Arial" font-weight="bold" font-size="10.00">(+)</text>
<text xml:space="preserve" text-anchor="start" x="397.25" y="-372.5" font-family="Arial" font-size="10.00"> increases complexity</text>
<text xml:space="preserve" text-anchor="start" x="498.5" y="-372.5" font-family="Arial" font-weight="bold" font-size="10.00">(−)</text>
<text xml:space="preserve" text-anchor="start" x="510.5" y="-372.5" font-family="Arial" font-size="10.00"> decreases complexity</text>
<!-- unknown.data_points -->
<g id="node1" class="node">
<title>unknown.data_points</title>
<path fill="#b8e6b8" stroke="#2c3e50" stroke-width="1.8" d="M323,-133C323,-133 283,-133 283,-133 277,-133 271,-127 271,-121 271,-121 271,-109 271,-109 271,-103 277,-97 283,-97 283,-97 323,-97 323,-97 329,-97 335,-103 335,-109 335,-109 335,-121 335,-121 335,-127 329,-133 323,-133"/>
<text xml:space="preserve" text-anchor="middle" x="303" y="-111.5" font-family="Arial" font-size="10.00" fill="#1a1a1a">data points</text>
</g>
<!-- attr_0 -->
<g id="node7" class="node">
<title>attr_0</title>
<path fill="#c7b8e6" stroke="#7f8c8d" stroke-width="1.2" d="M499.38,-198C499.38,-198 393.38,-198 393.38,-198 387.38,-198 381.38,-192 381.38,-186 381.38,-186 381.38,-174 381.38,-174 381.38,-168 387.38,-162 393.38,-162 393.38,-162 499.38,-162 499.38,-162 505.38,-162 511.38,-168 511.38,-174 511.38,-174 511.38,-186 511.38,-186 511.38,-192 505.38,-198 499.38,-198"/>
<text xml:space="preserve" text-anchor="middle" x="446.38" y="-176.5" font-family="Arial" font-size="10.00" fill="#1a1a1a">(+) moderate point density</text>
</g>
<!-- unknown.data_points&#45;&gt;attr_0 -->
<g id="edge1" class="edge">
<title>unknown.data_points&#45;&gt;attr_0</title>
<path fill="none" stroke="#aaaaaa" d="M335.73,-129.59C353.92,-137.95 377.12,-148.62 397.49,-157.98"/>
<polygon fill="#aaaaaa" stroke="#aaaaaa" points="396.38,-160.17 403.76,-160.87 398.43,-155.72 396.38,-160.17"/>
</g>
<!-- attr_1 -->
<g id="node8" class="node">
<title>attr_1</title>
<path fill="#c7b8e6" stroke="#7f8c8d" stroke-width="1.2" d="M502.75,-133C502.75,-133 390,-133 390,-133 384,-133 378,-127 378,-121 378,-121 378,-109 378,-109 378,-103 384,-97 390,-97 390,-97 502.75,-97 502.75,-97 508.75,-97 514.75,-103 514.75,-109 514.75,-109 514.75,-121 514.75,-121 514.75,-127 508.75,-133 502.75,-133"/>
<text xml:space="preserve" text-anchor="middle" x="446.38" y="-111.5" font-family="Arial" font-size="10.00" fill="#1a1a1a">(+) requires detailed reading</text>
</g>
<!-- unknown.data_points&#45;&gt;attr_1 -->
<g id="edge2" class="edge">
<title>unknown.data_points&#45;&gt;attr_1</title>
<path fill="none" stroke="#aaaaaa" d="M335.73,-115C345.85,-115 357.52,-115 369.39,-115"/>
<polygon fill="#aaaaaa" stroke="#aaaaaa" points="369.11,-117.45 376.11,-115 369.11,-112.55 369.11,-117.45"/>
</g>
<!-- rel_0 -->
<g id="node13" class="node">
<title>rel_0</title>
<path fill="#f5b8b8" stroke="#d46a6a" stroke-width="1.2" d="M488.5,-68C488.5,-68 404.25,-68 404.25,-68 398.25,-68 392.25,-62 392.25,-56 392.25,-56 392.25,-44 392.25,-44 392.25,-38 398.25,-32 404.25,-32 404.25,-32 488.5,-32 488.5,-32 494.5,-32 500.5,-38 500.5,-44 500.5,-44 500.5,-56 500.5,-56 500.5,-62 494.5,-68 488.5,-68"/>
<text xml:space="preserve" text-anchor="middle" x="446.38" y="-46.5" font-family="Arial" font-size="10.00" fill="#8b0000">requires effort to read</text>
</g>
<!-- unknown.data_points&#45;&gt;rel_0 -->
<g id="edge7" class="edge">
<title>unknown.data_points&#45;&gt;rel_0</title>
<path fill="none" stroke="#d46a6a" stroke-width="1.5" d="M335.73,-100.41C353.44,-92.27 375.89,-81.95 395.86,-72.76"/>
<polygon fill="#d46a6a" stroke="#d46a6a" stroke-width="1.5" points="396.98,-75.33 403.07,-69.45 394.64,-70.25 396.98,-75.33"/>
</g>
<!-- unknown.axes -->
<g id="node2" class="node">
<title>unknown.axes</title>
<path fill="#b8e6b8" stroke="#2c3e50" stroke-width="1.8" d="M43.62,-68C43.62,-68 13.62,-68 13.62,-68 7.62,-68 1.62,-62 1.62,-56 1.62,-56 1.62,-44 1.62,-44 1.62,-38 7.62,-32 13.62,-32 13.62,-32 43.62,-32 43.62,-32 49.62,-32 55.62,-38 55.62,-44 55.62,-44 55.62,-56 55.62,-56 55.62,-62 49.62,-68 43.62,-68"/>
<text xml:space="preserve" text-anchor="middle" x="28.62" y="-46.5" font-family="Arial" font-size="10.00" fill="#1a1a1a">axes</text>
</g>
<!-- rel_3 -->
<g id="node16" class="node">
<title>rel_3</title>
<path fill="#f5b8b8" stroke="#d46a6a" stroke-width="1.2" d="M181.12,-68C181.12,-68 147.12,-68 147.12,-68 141.12,-68 135.12,-62 135.12,-56 135.12,-56 135.12,-44 135.12,-44 135.12,-38 141.12,-32 147.12,-32 147.12,-32 181.12,-32 181.12,-32 187.12,-32 193.12,-38 193.12,-44 193.12,-44 193.12,-56 193.12,-56 193.12,-62 187.12,-68 181.12,-68"/>
<text xml:space="preserve" text-anchor="middle" x="164.12" y="-46.5" font-family="Arial" font-size="10.00" fill="#8b0000">organizes</text>
</g>
<!-- unknown.axes&#45;&gt;rel_3 -->
<g id="edge13" class="edge">
<title>unknown.axes&#45;&gt;rel_3</title>
<path fill="none" stroke="#d46a6a" stroke-width="1.5" d="M56.32,-50C75.89,-50 102.76,-50 124.65,-50"/>
<polygon fill="#d46a6a" stroke="#d46a6a" stroke-width="1.5" points="124.36,-52.8 132.36,-50 124.36,-47.2 124.36,-52.8"/>
</g>
<!-- text.axis_label -->
<g id="node3" class="node">
<title>text.axis_label</title>
<path fill="#b8e6b8" stroke="#2c3e50" stroke-width="1.8" d="M45.25,-295C45.25,-295 12,-295 12,-295 6,-295 0,-289 0,-283 0,-283 0,-271 0,-271 0,-265 6,-259 12,-259 12,-259 45.25,-259 45.25,-259 51.25,-259 57.25,-265 57.25,-271 57.25,-271 57.25,-283 57.25,-283 57.25,-289 51.25,-295 45.25,-295"/>
<text xml:space="preserve" text-anchor="middle" x="28.62" y="-273.5" font-family="Arial" font-size="10.00" fill="#1a1a1a">axis label</text>
</g>
<!-- attr_2 -->
<g id="node9" class="node">
<title>attr_2</title>
<path fill="#c7b8e6" stroke="#7f8c8d" stroke-width="1.2" d="M207.38,-328C207.38,-328 120.88,-328 120.88,-328 114.88,-328 108.88,-322 108.88,-316 108.88,-316 108.88,-304 108.88,-304 108.88,-298 114.88,-292 120.88,-292 120.88,-292 207.38,-292 207.38,-292 213.38,-292 219.38,-298 219.38,-304 219.38,-304 219.38,-316 219.38,-316 219.38,-322 213.38,-328 207.38,-328"/>
<text xml:space="preserve" text-anchor="middle" x="164.12" y="-306.5" font-family="Arial" font-size="10.00" fill="#1a1a1a">(−) readable label text</text>
</g>
<!-- text.axis_label&#45;&gt;attr_2 -->
<g id="edge3" class="edge">
<title>text.axis_label&#45;&gt;attr_2</title>
<path fill="none" stroke="#aaaaaa" d="M57.94,-284C70.34,-287.06 85.42,-290.79 100.25,-294.46"/>
<polygon fill="#aaaaaa" stroke="#aaaaaa" points="99.59,-296.82 106.97,-296.12 100.76,-292.06 99.59,-296.82"/>
</g>
<!-- rel_1 -->
<g id="node14" class="node">
<title>rel_1</title>
<path fill="#f5b8b8" stroke="#d46a6a" stroke-width="1.2" d="M205.5,-263C205.5,-263 122.75,-263 122.75,-263 116.75,-263 110.75,-257 110.75,-251 110.75,-251 110.75,-239 110.75,-239 110.75,-233 116.75,-227 122.75,-227 122.75,-227 205.5,-227 205.5,-227 211.5,-227 217.5,-233 217.5,-239 217.5,-239 217.5,-251 217.5,-251 217.5,-257 211.5,-263 205.5,-263"/>
<text xml:space="preserve" text-anchor="middle" x="164.12" y="-241.5" font-family="Arial" font-size="10.00" fill="#8b0000">supports decoding of</text>
</g>
<!-- text.axis_label&#45;&gt;rel_1 -->
<g id="edge9" class="edge">
<title>text.axis_label&#45;&gt;rel_1</title>
<path fill="none" stroke="#d46a6a" stroke-width="1.5" d="M57.94,-270.21C70.43,-267.22 85.65,-263.57 100.59,-259.99"/>
<polygon fill="#d46a6a" stroke="#d46a6a" stroke-width="1.5" points="101,-262.77 108.12,-258.18 99.69,-257.33 101,-262.77"/>
</g>
<!-- furniture.legend -->
<g id="node4" class="node">
<title>furniture.legend</title>
<path fill="#b8e6b8" stroke="#2c3e50" stroke-width="1.8" d="M43.62,-166C43.62,-166 13.62,-166 13.62,-166 7.62,-166 1.62,-160 1.62,-154 1.62,-154 1.62,-142 1.62,-142 1.62,-136 7.62,-130 13.62,-130 13.62,-130 43.62,-130 43.62,-130 49.62,-130 55.62,-136 55.62,-142 55.62,-142 55.62,-154 55.62,-154 55.62,-160 49.62,-166 43.62,-166"/>
<text xml:space="preserve" text-anchor="middle" x="28.62" y="-144.5" font-family="Arial" font-size="10.00" fill="#1a1a1a">legend</text>
</g>
<!-- attr_3 -->
<g id="node10" class="node">
<title>attr_3</title>
<path fill="#c7b8e6" stroke="#7f8c8d" stroke-width="1.2" d="M216,-198C216,-198 112.25,-198 112.25,-198 106.25,-198 100.25,-192 100.25,-186 100.25,-186 100.25,-174 100.25,-174 100.25,-168 106.25,-162 112.25,-162 112.25,-162 216,-162 216,-162 222,-162 228,-168 228,-174 228,-174 228,-186 228,-186 228,-192 222,-198 216,-198"/>
<text xml:space="preserve" text-anchor="middle" x="164.12" y="-176.5" font-family="Arial" font-size="10.00" fill="#1a1a1a">(−) supports interpretation</text>
</g>
<!-- furniture.legend&#45;&gt;attr_3 -->
<g id="edge4" class="edge">
<title>furniture.legend&#45;&gt;attr_3</title>
<path fill="none" stroke="#aaaaaa" d="M56.32,-154.4C66.62,-156.87 78.94,-159.82 91.49,-162.83"/>
<polygon fill="#aaaaaa" stroke="#aaaaaa" points="90.9,-165.21 98.28,-164.46 92.04,-160.44 90.9,-165.21"/>
</g>
<!-- rel_2 -->
<g id="node15" class="node">
<title>rel_2</title>
<path fill="#f5b8b8" stroke="#d46a6a" stroke-width="1.2" d="M204.38,-133C204.38,-133 123.88,-133 123.88,-133 117.88,-133 111.88,-127 111.88,-121 111.88,-121 111.88,-109 111.88,-109 111.88,-103 117.88,-97 123.88,-97 123.88,-97 204.38,-97 204.38,-97 210.38,-97 216.38,-103 216.38,-109 216.38,-109 216.38,-121 216.38,-121 216.38,-127 210.38,-133 204.38,-133"/>
<text xml:space="preserve" text-anchor="middle" x="164.12" y="-111.5" font-family="Arial" font-size="10.00" fill="#8b0000">aids interpretation of</text>
</g>
<!-- furniture.legend&#45;&gt;rel_2 -->
<g id="edge11" class="edge">
<title>furniture.legend&#45;&gt;rel_2</title>
<path fill="none" stroke="#d46a6a" stroke-width="1.5" d="M56.32,-141.4C69.36,-138.18 85.65,-134.15 101.54,-130.22"/>
<polygon fill="#d46a6a" stroke="#d46a6a" stroke-width="1.5" points="102.05,-132.98 109.14,-128.34 100.7,-127.55 102.05,-132.98"/>
</g>
<!-- text.title -->
<g id="node5" class="node">
<title>text.title</title>
<path fill="#b8e6b8" stroke="#2c3e50" stroke-width="1.8" d="M43.62,-360C43.62,-360 13.62,-360 13.62,-360 7.62,-360 1.62,-354 1.62,-348 1.62,-348 1.62,-336 1.62,-336 1.62,-330 7.62,-324 13.62,-324 13.62,-324 43.62,-324 43.62,-324 49.62,-324 55.62,-330 55.62,-336 55.62,-336 55.62,-348 55.62,-348 55.62,-354 49.62,-360 43.62,-360"/>
<text xml:space="preserve" text-anchor="middle" x="28.62" y="-338.5" font-family="Arial" font-size="10.00" fill="#1a1a1a">title</text>
</g>
<!-- structure.layout -->
<g id="node6" class="node">
<title>structure.layout</title>
<path fill="#b8e6b8" stroke="#2c3e50" stroke-width="1.8" d="M599.75,-68C599.75,-68 569.75,-68 569.75,-68 563.75,-68 557.75,-62 557.75,-56 557.75,-56 557.75,-44 557.75,-44 557.75,-38 563.75,-32 569.75,-32 569.75,-32 599.75,-32 599.75,-32 605.75,-32 611.75,-38 611.75,-44 611.75,-44 611.75,-56 611.75,-56 611.75,-62 605.75,-68 599.75,-68"/>
<text xml:space="preserve" text-anchor="middle" x="584.75" y="-46.5" font-family="Arial" font-size="10.00" fill="#1a1a1a">layout</text>
</g>
<!-- attr_4 -->
<g id="node11" class="node">
<title>attr_4</title>
<path fill="#c7b8e6" stroke="#7f8c8d" stroke-width="1.2" d="M778.75,-101C778.75,-101 666.75,-101 666.75,-101 660.75,-101 654.75,-95 654.75,-89 654.75,-89 654.75,-77 654.75,-77 654.75,-71 660.75,-65 666.75,-65 666.75,-65 778.75,-65 778.75,-65 784.75,-65 790.75,-71 790.75,-77 790.75,-77 790.75,-89 790.75,-89 790.75,-95 784.75,-101 778.75,-101"/>
<text xml:space="preserve" text-anchor="middle" x="722.75" y="-79.5" font-family="Arial" font-size="10.00" fill="#1a1a1a">(−) generally intuitive layout</text>
</g>
<!-- structure.layout&#45;&gt;attr_4 -->
<g id="edge5" class="edge">
<title>structure.layout&#45;&gt;attr_4</title>
<path fill="none" stroke="#aaaaaa" d="M612.62,-56.52C622.53,-58.92 634.3,-61.78 646.38,-64.71"/>
<polygon fill="#aaaaaa" stroke="#aaaaaa" points="645.5,-67.02 652.88,-66.29 646.66,-62.26 645.5,-67.02"/>
</g>
<!-- attr_5 -->
<g id="node12" class="node">
<title>attr_5</title>
<path fill="#c7b8e6" stroke="#7f8c8d" stroke-width="1.2" d="M778.38,-36C778.38,-36 667.12,-36 667.12,-36 661.12,-36 655.12,-30 655.12,-24 655.12,-24 655.12,-12 655.12,-12 655.12,-6 661.12,0 667.12,0 667.12,0 778.38,0 778.38,0 784.38,0 790.38,-6 790.38,-12 790.38,-12 790.38,-24 790.38,-24 790.38,-30 784.38,-36 778.38,-36"/>
<text xml:space="preserve" text-anchor="middle" x="722.75" y="-14.5" font-family="Arial" font-size="10.00" fill="#1a1a1a">(+) moderate analysis effort</text>
</g>
<!-- structure.layout&#45;&gt;attr_5 -->
<g id="edge6" class="edge">
<title>structure.layout&#45;&gt;attr_5</title>
<path fill="none" stroke="#aaaaaa" d="M612.62,-43.68C622.59,-41.33 634.45,-38.54 646.62,-35.68"/>
<polygon fill="#aaaaaa" stroke="#aaaaaa" points="646.91,-38.13 653.17,-34.14 645.79,-33.36 646.91,-38.13"/>
</g>
<!-- rel_0&#45;&gt;structure.layout -->
<g id="edge8" class="edge">
<title>rel_0&#45;&gt;structure.layout</title>
<path fill="none" stroke="#d46a6a" stroke-width="1.5" d="M500.88,-50C516.37,-50 532.93,-50 547.14,-50"/>
<polygon fill="#d46a6a" stroke="#d46a6a" stroke-width="1.5" points="546.75,-52.8 554.75,-50 546.75,-47.2 546.75,-52.8"/>
</g>
<!-- rel_1&#45;&gt;unknown.data_points -->
<g id="edge10" class="edge">
<title>rel_1&#45;&gt;unknown.data_points</title>
<path fill="none" stroke="#d46a6a" stroke-width="1.5" d="M208.04,-226.5C215.06,-222.55 221.99,-218.03 228,-213 252.02,-192.87 272.86,-163.55 286.24,-142.22"/>
<polygon fill="#d46a6a" stroke="#d46a6a" stroke-width="1.5" points="288.53,-143.84 290.33,-135.56 283.76,-140.92 288.53,-143.84"/>
</g>
<!-- rel_2&#45;&gt;unknown.data_points -->
<g id="edge12" class="edge">
<title>rel_2&#45;&gt;unknown.data_points</title>
<path fill="none" stroke="#d46a6a" stroke-width="1.5" d="M216.87,-115C231.23,-115 246.63,-115 260.33,-115"/>
<polygon fill="#d46a6a" stroke="#d46a6a" stroke-width="1.5" points="260.16,-117.8 268.16,-115 260.16,-112.2 260.16,-117.8"/>
</g>
<!-- rel_3&#45;&gt;unknown.data_points -->
<g id="edge14" class="edge">
<title>rel_3&#45;&gt;unknown.data_points</title>
<path fill="none" stroke="#d46a6a" stroke-width="1.5" d="M193.49,-63.47C213.08,-72.77 239.44,-85.29 261.28,-95.66"/>
<polygon fill="#d46a6a" stroke="#d46a6a" stroke-width="1.5" points="259.85,-98.08 268.28,-98.98 262.25,-93.02 259.85,-98.08"/>
</g>
</g>
</svg>
