<?xml version="1.0" encoding="UTF-8" standalone="no"?>
<!DOCTYPE svg PUBLIC "-//W3C//DTD SVG 1.1//EN"
 "http://www.w3.org/Graphics/SVG/1.1/DTD/svg11.dtd">
<!-- Generated by graphviz version 14.1.5 (20260411.2331)
 -->
<!-- Title: VASTJ.1612.1.png Pages: 1 -->
<svg width="763pt" height="375pt"
 viewBox="0.00 0.00 763.00 375.00" xmlns="http://www.w3.org/2000/svg" xmlns:xlink="http://www.w3.org/1999/xlink">
<g id="graph0" class="graph" transform="scale(1 1) rotate(0) translate(4 371.25)">
<title>VASTJ.1612.1.png</title>
<polygon fill="white" stroke="none" points="-4,4 -4,-371.25 758.5,-371.25 758.5,4 -4,4"/>
<text xml:space="preserve" text-anchor="start" x="319.12" y="-346.95" font-family="Arial" font-weight="bold" font-size="14.00">VASTJ.1612.1.png</text>
<text xml:space="preserve" text-anchor="start" x="335.25" y="-327" font-family="Arial" font-size="11.00">Text &#160;| &#160;VC = 0.93</text>
<path fill="#b8e6b8" stroke="none" d="M167.88,-302C167.88,-302 175.88,-302 175.88,-302 178.88,-302 181.88,-305 181.88,-308 181.88,-308 181.88,-314 181.88,-314 181.88,-317 178.88,-320 175.88,-320 175.88,-320 167.88,-320 167.88,-320 164.88,-320 161.88,-317 161.88,-314 161.88,-314 161.88,-308 161.88,-308 161.88,-305 164.88,-302 167.88,-302"/>
<path fill="none" stroke="black" d="M167.88,-302C167.88,-302 175.88,-302 175.88,-302 178.88,-302 181.88,-305 181.88,-308 181.88,-308 181.88,-314 181.88,-314 181.88,-317 178.88,-320 175.88,-320 175.88,-320 167.88,-320 167.88,-320 164.88,-320 161.88,-317 161.88,-314 161.88,-314 161.88,-308 161.88,-308 161.88,-305 164.88,-302 167.88,-302"/>
<text xml:space="preserve" text-anchor="start" x="170.38" y="-307.25" font-family="Arial" font-size="10.00"> </text>
<text xml:space="preserve" text-anchor="start" x="185.88" y="-307.25" font-family="Arial" font-size="10.00">Object</text>
<path fill="#c7b8e6" stroke="none" d="M224.38,-302C224.38,-302 232.38,-302 232.38,-302 235.38,-302 238.38,-305 238.38,-308 238.38,-308 238.38,-314 238.38,-314 238.38,-317 235.38,-320 232.38,-320 232.38,-320 224.38,-320 224.38,-320 221.38,-320 218.38,-317 218.38,-314 218.38,-314 218.38,-308 218.38,-308 218.38,-305 221.38,-302 224.38,-302"/>
<path fill="none" stroke="black" d="M224.38,-302C224.38,-302 232.38,-302 232.38,-302 235.38,-302 238.38,-305 238.38,-308 238.38,-308 238.38,-314 238.38,-314 238.38,-317 235.38,-320 232.38,-320 232.38,-320 224.38,-320 224.38,-320 221.38,-320 218.38,-317 218.38,-314 218.38,-314 218.38,-308 218.38,-308 218.38,-305 221.38,-302 224.38,-302"/>
<text xml:space="preserve" text-anchor="start" x="226.88" y="-307.25" font-family="Arial" font-size="10.00"> </text>
<text xml:space="preserve" text-anchor="start" x="242.38" y="-307.25" font-family="Arial" font-size="10.00">Attribute</text>
<path fill="#f5b8b8" stroke="none" d="M289.12,-302C289.12,-302 297.12,-302 297.12,-302 300.12,-302 303.12,-305 303.12,-308 303.12,-308 303.12,-314 303.12,-314 303.12,-317 300.12,-320 297.12,-320 297.12,-320 289.12,-320 289.12,-320 286.12,-320 283.12,-317 283.12,-314 283.12,-314 283.12,-308 283.12,-308 283.12,-305 286.12,-302 289.12,-302"/>
<path fill="none" stroke="black" d="M289.12,-302C289.12,-302 297.12,-302 297.12,-302 300.12,-302 303.12,-305 303.12,-308 303.12,-308 303.12,-314 303.12,-314 303.12,-317 300.12,-320 297.12,-320 297.12,-320 289.12,-320 289.12,-320 286.12,-320 283.12,-317 283.12,-314 283.12,-314 283.12,-308 283.12,-308 283.12,-305 286.12,-302 289.12,-302"/>
<text xml:space="preserve" text-anchor="start" x="291.62" y="-307.25" font-family="Arial" font-size="10.00"> </text>
<text xml:space="preserve" text-anchor="start" x="307.12" y="-307.25" font-family="Arial" font-size="10.00">Relationship</text>
<text xml:space="preserve" text-anchor="start" x="367.12" y="-308.5" font-family="Arial" font-weight="bold" font-size="10.00">(+)</text>
<text xml:space="preserve" text-anchor="start" x="379.12" y="-308.5" font-family="Arial" font-size="10.00"> increases complexity</text>
<text xml:space="preserve" text-anchor="start" x="480.38" y="-308.5" font-family="Arial" font-weight="bold" font-size="10.00">(−)</text>
<text xml:space="preserve" text-anchor="start" x="492.38" y="-308.5" font-family="Arial" font-size="10.00"> decreases complexity</text>
<!-- unknown.words -->
<g id="node1" class="node">
<title>unknown.words</title>
<path fill="#b8e6b8" stroke="#2c3e50" stroke-width="1.8" d="M302.38,-101C302.38,-101 272.38,-101 272.38,-101 266.38,-101 260.38,-95 260.38,-89 260.38,-89 260.38,-77 260.38,-77 260.38,-71 266.38,-65 272.38,-65 272.38,-65 302.38,-65 302.38,-65 308.38,-65 314.38,-71 314.38,-77 314.38,-77 314.38,-89 314.38,-89 314.38,-95 308.38,-101 302.38,-101"/>
<text xml:space="preserve" text-anchor="middle" x="287.38" y="-79.5" font-family="Arial" font-size="10.00" fill="#1a1a1a">words</text>
</g>
<!-- attr_0 -->
<g id="node5" class="node">
<title>attr_0</title>
<path fill="#c7b8e6" stroke="#7f8c8d" stroke-width="1.2" d="M459.75,-166C459.75,-166 392,-166 392,-166 386,-166 380,-160 380,-154 380,-154 380,-142 380,-142 380,-136 386,-130 392,-130 392,-130 459.75,-130 459.75,-130 465.75,-130 471.75,-136 471.75,-142 471.75,-142 471.75,-154 471.75,-154 471.75,-160 465.75,-166 459.75,-166"/>
<text xml:space="preserve" text-anchor="middle" x="425.88" y="-144.5" font-family="Arial" font-size="10.00" fill="#1a1a1a">(+) difficult to see</text>
</g>
<!-- unknown.words&#45;&gt;attr_0 -->
<g id="edge1" class="edge">
<title>unknown.words&#45;&gt;attr_0</title>
<path fill="none" stroke="#aaaaaa" d="M315.02,-95.69C332.98,-104.24 357.17,-115.76 378.27,-125.81"/>
<polygon fill="#aaaaaa" stroke="#aaaaaa" points="377.15,-127.99 384.53,-128.79 379.26,-123.57 377.15,-127.99"/>
</g>
<!-- attr_3 -->
<g id="node6" class="node">
<title>attr_3</title>
<path fill="#c7b8e6" stroke="#7f8c8d" stroke-width="1.2" d="M470.25,-101C470.25,-101 381.5,-101 381.5,-101 375.5,-101 369.5,-95 369.5,-89 369.5,-89 369.5,-77 369.5,-77 369.5,-71 375.5,-65 381.5,-65 381.5,-65 470.25,-65 470.25,-65 476.25,-65 482.25,-71 482.25,-77 482.25,-77 482.25,-89 482.25,-89 482.25,-95 476.25,-101 470.25,-101"/>
<text xml:space="preserve" text-anchor="middle" x="425.88" y="-79.5" font-family="Arial" font-size="10.00" fill="#1a1a1a">(+) low visual contrast</text>
</g>
<!-- unknown.words&#45;&gt;attr_3 -->
<g id="edge2" class="edge">
<title>unknown.words&#45;&gt;attr_3</title>
<path fill="none" stroke="#aaaaaa" d="M315.02,-83C328.1,-83 344.48,-83 360.57,-83"/>
<polygon fill="#aaaaaa" stroke="#aaaaaa" points="360.42,-85.45 367.42,-83 360.42,-80.55 360.42,-85.45"/>
</g>
<!-- rel_3 -->
<g id="node13" class="node">
<title>rel_3</title>
<path fill="#f5b8b8" stroke="#d46a6a" stroke-width="1.2" d="M476.25,-36C476.25,-36 375.5,-36 375.5,-36 369.5,-36 363.5,-30 363.5,-24 363.5,-24 363.5,-12 363.5,-12 363.5,-6 369.5,0 375.5,0 375.5,0 476.25,0 476.25,0 482.25,0 488.25,-6 488.25,-12 488.25,-12 488.25,-24 488.25,-24 488.25,-30 482.25,-36 476.25,-36"/>
<text xml:space="preserve" text-anchor="middle" x="425.88" y="-14.5" font-family="Arial" font-size="10.00" fill="#8b0000">requires effort to interpret</text>
</g>
<!-- unknown.words&#45;&gt;rel_3 -->
<g id="edge12" class="edge">
<title>unknown.words&#45;&gt;rel_3</title>
<path fill="none" stroke="#d46a6a" stroke-width="1.5" d="M315.02,-70.31C332.59,-61.95 356.11,-50.74 376.88,-40.85"/>
<polygon fill="#d46a6a" stroke="#d46a6a" stroke-width="1.5" points="377.82,-43.51 383.84,-37.54 375.42,-38.45 377.82,-43.51"/>
</g>
<!-- property.color -->
<g id="node2" class="node">
<title>property.color</title>
<path fill="#b8e6b8" stroke="#2c3e50" stroke-width="1.8" d="M42,-134C42,-134 12,-134 12,-134 6,-134 0,-128 0,-122 0,-122 0,-110 0,-110 0,-104 6,-98 12,-98 12,-98 42,-98 42,-98 48,-98 54,-104 54,-110 54,-110 54,-122 54,-122 54,-128 48,-134 42,-134"/>
<text xml:space="preserve" text-anchor="middle" x="27" y="-112.5" font-family="Arial" font-size="10.00" fill="#1a1a1a">color</text>
</g>
<!-- attr_1 -->
<g id="node7" class="node">
<title>attr_1</title>
<path fill="#c7b8e6" stroke="#7f8c8d" stroke-width="1.2" d="M197.38,-199C197.38,-199 110.88,-199 110.88,-199 104.88,-199 98.88,-193 98.88,-187 98.88,-187 98.88,-175 98.88,-175 98.88,-169 104.88,-163 110.88,-163 110.88,-163 197.38,-163 197.38,-163 203.38,-163 209.38,-169 209.38,-175 209.38,-175 209.38,-187 209.38,-187 209.38,-193 203.38,-199 197.38,-199"/>
<text xml:space="preserve" text-anchor="middle" x="154.12" y="-177.5" font-family="Arial" font-size="10.00" fill="#1a1a1a">(+) two distinct colors</text>
</g>
<!-- property.color&#45;&gt;attr_1 -->
<g id="edge3" class="edge">
<title>property.color&#45;&gt;attr_1</title>
<path fill="none" stroke="#aaaaaa" d="M54.84,-129.94C71.07,-138.37 92.12,-149.31 110.58,-158.9"/>
<polygon fill="#aaaaaa" stroke="#aaaaaa" points="109.09,-160.88 116.43,-161.94 111.35,-156.54 109.09,-160.88"/>
</g>
<!-- rel_0 -->
<g id="node10" class="node">
<title>rel_0</title>
<path fill="#f5b8b8" stroke="#d46a6a" stroke-width="1.2" d="M170,-134C170,-134 138.25,-134 138.25,-134 132.25,-134 126.25,-128 126.25,-122 126.25,-122 126.25,-110 126.25,-110 126.25,-104 132.25,-98 138.25,-98 138.25,-98 170,-98 170,-98 176,-98 182,-104 182,-110 182,-110 182,-122 182,-122 182,-128 176,-134 170,-134"/>
<text xml:space="preserve" text-anchor="middle" x="154.12" y="-112.5" font-family="Arial" font-size="10.00" fill="#8b0000">obscures</text>
</g>
<!-- property.color&#45;&gt;rel_0 -->
<g id="edge6" class="edge">
<title>property.color&#45;&gt;rel_0</title>
<path fill="none" stroke="#d46a6a" stroke-width="1.5" d="M54.84,-116C72.62,-116 96.17,-116 115.77,-116"/>
<polygon fill="#d46a6a" stroke="#d46a6a" stroke-width="1.5" points="115.62,-118.8 123.62,-116 115.62,-113.2 115.62,-118.8"/>
</g>
<!-- rel_2 -->
<g id="node12" class="node">
<title>rel_2</title>
<path fill="#f5b8b8" stroke="#d46a6a" stroke-width="1.2" d="M199.25,-69C199.25,-69 109,-69 109,-69 103,-69 97,-63 97,-57 97,-57 97,-45 97,-45 97,-39 103,-33 109,-33 109,-33 199.25,-33 199.25,-33 205.25,-33 211.25,-39 211.25,-45 211.25,-45 211.25,-57 211.25,-57 211.25,-63 205.25,-69 199.25,-69"/>
<text xml:space="preserve" text-anchor="middle" x="154.12" y="-47.5" font-family="Arial" font-size="10.00" fill="#8b0000">increases ambiguity of</text>
</g>
<!-- property.color&#45;&gt;rel_2 -->
<g id="edge10" class="edge">
<title>property.color&#45;&gt;rel_2</title>
<path fill="none" stroke="#d46a6a" stroke-width="1.5" d="M54.84,-102.06C70.64,-93.85 91.01,-83.27 109.1,-73.87"/>
<polygon fill="#d46a6a" stroke="#d46a6a" stroke-width="1.5" points="109.95,-76.59 115.76,-70.41 107.37,-71.62 109.95,-76.59"/>
</g>
<!-- text.label -->
<g id="node3" class="node">
<title>text.label</title>
<path fill="#b8e6b8" stroke="#2c3e50" stroke-width="1.8" d="M573.25,-133C573.25,-133 543.25,-133 543.25,-133 537.25,-133 531.25,-127 531.25,-121 531.25,-121 531.25,-109 531.25,-109 531.25,-103 537.25,-97 543.25,-97 543.25,-97 573.25,-97 573.25,-97 579.25,-97 585.25,-103 585.25,-109 585.25,-109 585.25,-121 585.25,-121 585.25,-127 579.25,-133 573.25,-133"/>
<text xml:space="preserve" text-anchor="middle" x="558.25" y="-111.5" font-family="Arial" font-size="10.00" fill="#1a1a1a">text</text>
</g>
<!-- attr_2 -->
<g id="node8" class="node">
<title>attr_2</title>
<path fill="#c7b8e6" stroke="#7f8c8d" stroke-width="1.2" d="M742.5,-133C742.5,-133 640.25,-133 640.25,-133 634.25,-133 628.25,-127 628.25,-121 628.25,-121 628.25,-109 628.25,-109 628.25,-103 634.25,-97 640.25,-97 640.25,-97 742.5,-97 742.5,-97 748.5,-97 754.5,-103 754.5,-109 754.5,-109 754.5,-121 754.5,-121 754.5,-127 748.5,-133 742.5,-133"/>
<text xml:space="preserve" text-anchor="middle" x="691.38" y="-111.5" font-family="Arial" font-size="10.00" fill="#1a1a1a">(+) unclear word relations</text>
</g>
<!-- text.label&#45;&gt;attr_2 -->
<g id="edge4" class="edge">
<title>text.label&#45;&gt;attr_2</title>
<path fill="none" stroke="#aaaaaa" d="M586.1,-115C595.96,-115 607.65,-115 619.56,-115"/>
<polygon fill="#aaaaaa" stroke="#aaaaaa" points="619.32,-117.45 626.32,-115 619.32,-112.55 619.32,-117.45"/>
</g>
<!-- unknown.background -->
<g id="node4" class="node">
<title>unknown.background</title>
<path fill="#b8e6b8" stroke="#2c3e50" stroke-width="1.8" d="M308.5,-263C308.5,-263 266.25,-263 266.25,-263 260.25,-263 254.25,-257 254.25,-251 254.25,-251 254.25,-239 254.25,-239 254.25,-233 260.25,-227 266.25,-227 266.25,-227 308.5,-227 308.5,-227 314.5,-227 320.5,-233 320.5,-239 320.5,-239 320.5,-251 320.5,-251 320.5,-257 314.5,-263 308.5,-263"/>
<text xml:space="preserve" text-anchor="middle" x="287.38" y="-241.5" font-family="Arial" font-size="10.00" fill="#1a1a1a">background</text>
</g>
<!-- attr_4 -->
<g id="node9" class="node">
<title>attr_4</title>
<path fill="#c7b8e6" stroke="#7f8c8d" stroke-width="1.2" d="M475.5,-296C475.5,-296 376.25,-296 376.25,-296 370.25,-296 364.25,-290 364.25,-284 364.25,-284 364.25,-272 364.25,-272 364.25,-266 370.25,-260 376.25,-260 376.25,-260 475.5,-260 475.5,-260 481.5,-260 487.5,-266 487.5,-272 487.5,-272 487.5,-284 487.5,-284 487.5,-290 481.5,-296 475.5,-296"/>
<text xml:space="preserve" text-anchor="middle" x="425.88" y="-274.5" font-family="Arial" font-size="10.00" fill="#1a1a1a">(+) reduces text legibility</text>
</g>
<!-- unknown.background&#45;&gt;attr_4 -->
<g id="edge5" class="edge">
<title>unknown.background&#45;&gt;attr_4</title>
<path fill="none" stroke="#aaaaaa" d="M321.07,-252.9C331.62,-255.45 343.73,-258.38 355.88,-261.32"/>
<polygon fill="#aaaaaa" stroke="#aaaaaa" points="355,-263.63 362.38,-262.89 356.15,-258.87 355,-263.63"/>
</g>
<!-- rel_1 -->
<g id="node11" class="node">
<title>rel_1</title>
<path fill="#f5b8b8" stroke="#d46a6a" stroke-width="1.2" d="M468.38,-231C468.38,-231 383.38,-231 383.38,-231 377.38,-231 371.38,-225 371.38,-219 371.38,-219 371.38,-207 371.38,-207 371.38,-201 377.38,-195 383.38,-195 383.38,-195 468.38,-195 468.38,-195 474.38,-195 480.38,-201 480.38,-207 480.38,-207 480.38,-219 480.38,-219 480.38,-225 474.38,-231 468.38,-231"/>
<text xml:space="preserve" text-anchor="middle" x="425.88" y="-209.5" font-family="Arial" font-size="10.00" fill="#8b0000">reduces readability of</text>
</g>
<!-- unknown.background&#45;&gt;rel_1 -->
<g id="edge8" class="edge">
<title>unknown.background&#45;&gt;rel_1</title>
<path fill="none" stroke="#d46a6a" stroke-width="1.5" d="M321.07,-237.34C333.07,-234.52 347.09,-231.23 360.89,-228"/>
<polygon fill="#d46a6a" stroke="#d46a6a" stroke-width="1.5" points="361.5,-230.73 368.65,-226.18 360.22,-225.28 361.5,-230.73"/>
</g>
<!-- rel_0&#45;&gt;unknown.words -->
<g id="edge7" class="edge">
<title>rel_0&#45;&gt;unknown.words</title>
<path fill="none" stroke="#d46a6a" stroke-width="1.5" d="M182.32,-109.16C201.9,-104.24 228.52,-97.55 249.93,-92.16"/>
<polygon fill="#d46a6a" stroke="#d46a6a" stroke-width="1.5" points="250.39,-94.94 257.46,-90.27 249.02,-89.5 250.39,-94.94"/>
</g>
<!-- rel_1&#45;&gt;text.label -->
<g id="edge9" class="edge">
<title>rel_1&#45;&gt;text.label</title>
<path fill="none" stroke="#d46a6a" stroke-width="1.5" d="M466.49,-194.45C473.95,-190.38 481.51,-185.83 488.25,-181 504.47,-169.38 520.69,-154.09 533.33,-141.16"/>
<polygon fill="#d46a6a" stroke="#d46a6a" stroke-width="1.5" points="535.24,-143.21 538.75,-135.5 531.2,-139.33 535.24,-143.21"/>
</g>
<!-- rel_2&#45;&gt;unknown.words -->
<g id="edge11" class="edge">
<title>rel_2&#45;&gt;unknown.words</title>
<path fill="none" stroke="#d46a6a" stroke-width="1.5" d="M211.55,-64.76C224.45,-67.9 237.83,-71.16 249.64,-74.04"/>
<polygon fill="#d46a6a" stroke="#d46a6a" stroke-width="1.5" points="248.94,-76.75 257.37,-75.93 250.26,-71.31 248.94,-76.75"/>
</g>
<!-- rel_3&#45;&gt;text.label -->
<g id="edge13" class="edge">
<title>rel_3&#45;&gt;text.label</title>
<path fill="none" stroke="#d46a6a" stroke-width="1.5" d="M466.46,-36.59C473.92,-40.66 481.49,-45.2 488.25,-50 504.28,-61.4 520.39,-76.33 533,-89"/>
<polygon fill="#d46a6a" stroke="#d46a6a" stroke-width="1.5" points="530.82,-90.77 538.41,-94.53 534.82,-86.86 530.82,-90.77"/>
</g>
</g>
</svg>
