<?xml version="1.0" encoding="UTF-8" standalone="no"?>
<!DOCTYPE svg PUBLIC "-//W3C//DTD SVG 1.1//EN"
 "http://www.w3.org/Graphics/SVG/1.1/DTD/svg11.dtd">
<!-- Generated by graphviz version 14.1.5 (20260411.2331)
 -->
<!-- Title: VASTJ.1612.1(4).png Pages: 1 -->
<svg width="810pt" height="440pt"
 viewBox="0.00 0.00 810.00 440.00" xmlns="http://www.w3.org/2000/svg" xmlns:xlink="http://www.w3.org/1999/xlink">
<g id="graph0" class="graph" transform="scale(1 1) rotate(0) translate(4 436.25)">
<title>VASTJ.1612.1(4).png</title>
<polygon fill="white" stroke="none" points="-4,4 -4,-436.25 805.75,-436.25 805.75,4 -4,4"/>
<text xml:space="preserve" text-anchor="start" x="334.5" y="-411.95" font-family="Arial" font-weight="bold" font-size="14.00">VASTJ.1612.1(4).png</text>
<text xml:space="preserve" text-anchor="start" x="358.88" y="-392" font-family="Arial" font-size="11.00">Text &#160;| &#160;VC = 0.81</text>
<path fill="#b8e6b8" stroke="none" d="M191.5,-367C191.5,-367 199.5,-367 199.5,-367 202.5,-367 205.5,-370 205.5,-373 205.5,-373 205.5,-379 205.5,-379 205.5,-382 202.5,-385 199.5,-385 199.5,-385 191.5,-385 191.5,-385 188.5,-385 185.5,-382 185.5,-379 185.5,-379 185.5,-373 185.5,-373 185.5,-370 188.5,-367 191.5,-367"/>
<path fill="none" stroke="black" d="M191.5,-367C191.5,-367 199.5,-367 199.5,-367 202.5,-367 205.5,-370 205.5,-373 205.5,-373 205.5,-379 205.5,-379 205.5,-382 202.5,-385 199.5,-385 199.5,-385 191.5,-385 191.5,-385 188.5,-385 185.5,-382 185.5,-379 185.5,-379 185.5,-373 185.5,-373 185.5,-370 188.5,-367 191.5,-367"/>
<text xml:space="preserve" text-anchor="start" x="194" y="-372.25" font-family="Arial" font-size="10.00"> </text>
<text xml:space="preserve" text-anchor="start" x="209.5" y="-372.25" font-family="Arial" font-size="10.00">Object</text>
<path fill="#c7b8e6" stroke="none" d="M248,-367C248,-367 256,-367 256,-367 259,-367 262,-370 262,-373 262,-373 262,-379 262,-379 262,-382 259,-385 256,-385 256,-385 248,-385 248,-385 245,-385 242,-382 242,-379 242,-379 242,-373 242,-373 242,-370 245,-367 248,-367"/>
<path fill="none" stroke="black" d="M248,-367C248,-367 256,-367 256,-367 259,-367 262,-370 262,-373 262,-373 262,-379 262,-379 262,-382 259,-385 256,-385 256,-385 248,-385 248,-385 245,-385 242,-382 242,-379 242,-379 242,-373 242,-373 242,-370 245,-367 248,-367"/>
<text xml:space="preserve" text-anchor="start" x="250.5" y="-372.25" font-family="Arial" font-size="10.00"> </text>
<text xml:space="preserve" text-anchor="start" x="266" y="-372.25" font-family="Arial" font-size="10.00">Attribute</text>
<path fill="#f5b8b8" stroke="none" d="M312.75,-367C312.75,-367 320.75,-367 320.75,-367 323.75,-367 326.75,-370 326.75,-373 326.75,-373 326.75,-379 326.75,-379 326.75,-382 323.75,-385 320.75,-385 320.75,-385 312.75,-385 312.75,-385 309.75,-385 306.75,-382 306.75,-379 306.75,-379 306.75,-373 306.75,-373 306.75,-370 309.75,-367 312.75,-367"/>
<path fill="none" stroke="black" d="M312.75,-367C312.75,-367 320.75,-367 320.75,-367 323.75,-367 326.75,-370 326.75,-373 326.75,-373 326.75,-379 326.75,-379 326.75,-382 323.75,-385 320.75,-385 320.75,-385 312.75,-385 312.75,-385 309.75,-385 306.75,-382 306.75,-379 306.75,-379 306.75,-373 306.75,-373 306.75,-370 309.75,-367 312.75,-367"/>
<text xml:space="preserve" text-anchor="start" x="315.25" y="-372.25" font-family="Arial" font-size="10.00"> </text>
<text xml:space="preserve" text-anchor="start" x="330.75" y="-372.25" font-family="Arial" font-size="10.00">Relationship</text>
<text xml:space="preserve" text-anchor="start" x="390.75" y="-373.5" font-family="Arial" font-weight="bold" font-size="10.00">(+)</text>
<text xml:space="preserve" text-anchor="start" x="402.75" y="-373.5" font-family="Arial" font-size="10.00"> increases complexity</text>
<text xml:space="preserve" text-anchor="start" x="504" y="-373.5" font-family="Arial" font-weight="bold" font-size="10.00">(−)</text>
<text xml:space="preserve" text-anchor="start" x="516" y="-373.5" font-family="Arial" font-size="10.00"> decreases complexity</text>
<!-- unknown.words -->
<g id="node1" class="node">
<title>unknown.words</title>
<path fill="#b8e6b8" stroke="#2c3e50" stroke-width="1.8" d="M607.75,-101C607.75,-101 577.75,-101 577.75,-101 571.75,-101 565.75,-95 565.75,-89 565.75,-89 565.75,-77 565.75,-77 565.75,-71 571.75,-65 577.75,-65 577.75,-65 607.75,-65 607.75,-65 613.75,-65 619.75,-71 619.75,-77 619.75,-77 619.75,-89 619.75,-89 619.75,-95 613.75,-101 607.75,-101"/>
<text xml:space="preserve" text-anchor="middle" x="592.75" y="-79.5" font-family="Arial" font-size="10.00" fill="#1a1a1a">words</text>
</g>
<!-- attr_0 -->
<g id="node7" class="node">
<title>attr_0</title>
<path fill="#c7b8e6" stroke="#7f8c8d" stroke-width="1.2" d="M789.75,-101C789.75,-101 674.75,-101 674.75,-101 668.75,-101 662.75,-95 662.75,-89 662.75,-89 662.75,-77 662.75,-77 662.75,-71 668.75,-65 674.75,-65 674.75,-65 789.75,-65 789.75,-65 795.75,-65 801.75,-71 801.75,-77 801.75,-77 801.75,-89 801.75,-89 801.75,-95 795.75,-101 789.75,-101"/>
<text xml:space="preserve" text-anchor="middle" x="732.25" y="-79.5" font-family="Arial" font-size="10.00" fill="#1a1a1a">(+) dense overlapping words</text>
</g>
<!-- unknown.words&#45;&gt;attr_0 -->
<g id="edge1" class="edge">
<title>unknown.words&#45;&gt;attr_0</title>
<path fill="none" stroke="#aaaaaa" d="M620.59,-83C630.37,-83 641.98,-83 653.94,-83"/>
<polygon fill="#aaaaaa" stroke="#aaaaaa" points="653.74,-85.45 660.74,-83 653.74,-80.55 653.74,-85.45"/>
</g>
<!-- unknown.font_size -->
<g id="node2" class="node">
<title>unknown.font_size</title>
<path fill="#b8e6b8" stroke="#2c3e50" stroke-width="1.8" d="M42,-328C42,-328 12,-328 12,-328 6,-328 0,-322 0,-316 0,-316 0,-304 0,-304 0,-298 6,-292 12,-292 12,-292 42,-292 42,-292 48,-292 54,-298 54,-304 54,-304 54,-316 54,-316 54,-322 48,-328 42,-328"/>
<text xml:space="preserve" text-anchor="middle" x="27" y="-306.5" font-family="Arial" font-size="10.00" fill="#1a1a1a">font size</text>
</g>
<!-- attr_1 -->
<g id="node8" class="node">
<title>attr_1</title>
<path fill="#c7b8e6" stroke="#7f8c8d" stroke-width="1.2" d="M198.88,-361C198.88,-361 128.12,-361 128.12,-361 122.12,-361 116.12,-355 116.12,-349 116.12,-349 116.12,-337 116.12,-337 116.12,-331 122.12,-325 128.12,-325 128.12,-325 198.88,-325 198.88,-325 204.88,-325 210.88,-331 210.88,-337 210.88,-337 210.88,-349 210.88,-349 210.88,-355 204.88,-361 198.88,-361"/>
<text xml:space="preserve" text-anchor="middle" x="163.5" y="-339.5" font-family="Arial" font-size="10.00" fill="#1a1a1a">(+) small font size</text>
</g>
<!-- unknown.font_size&#45;&gt;attr_1 -->
<g id="edge2" class="edge">
<title>unknown.font_size&#45;&gt;attr_1</title>
<path fill="none" stroke="#aaaaaa" d="M54.89,-316.6C69.99,-320.3 89.38,-325.06 107.54,-329.51"/>
<polygon fill="#aaaaaa" stroke="#aaaaaa" points="106.92,-331.89 114.3,-331.17 108.09,-327.13 106.92,-331.89"/>
</g>
<!-- rel_3 -->
<g id="node16" class="node">
<title>rel_3</title>
<path fill="#f5b8b8" stroke="#d46a6a" stroke-width="1.2" d="M200,-296C200,-296 127,-296 127,-296 121,-296 115,-290 115,-284 115,-284 115,-272 115,-272 115,-266 121,-260 127,-260 127,-260 200,-260 200,-260 206,-260 212,-266 212,-272 212,-272 212,-284 212,-284 212,-290 206,-296 200,-296"/>
<text xml:space="preserve" text-anchor="middle" x="163.5" y="-274.5" font-family="Arial" font-size="10.00" fill="#8b0000">increases effort for</text>
</g>
<!-- unknown.font_size&#45;&gt;rel_3 -->
<g id="edge13" class="edge">
<title>unknown.font_size&#45;&gt;rel_3</title>
<path fill="none" stroke="#d46a6a" stroke-width="1.5" d="M54.89,-303.6C69.25,-300.18 87.51,-295.84 104.89,-291.71"/>
<polygon fill="#d46a6a" stroke="#d46a6a" stroke-width="1.5" points="105.08,-294.54 112.21,-289.96 103.78,-289.09 105.08,-294.54"/>
</g>
<!-- unknown.color_encoding -->
<g id="node3" class="node">
<title>unknown.color_encoding</title>
<path fill="#b8e6b8" stroke="#2c3e50" stroke-width="1.8" d="M340.75,-69C340.75,-69 285.75,-69 285.75,-69 279.75,-69 273.75,-63 273.75,-57 273.75,-57 273.75,-45 273.75,-45 273.75,-39 279.75,-33 285.75,-33 285.75,-33 340.75,-33 340.75,-33 346.75,-33 352.75,-39 352.75,-45 352.75,-45 352.75,-57 352.75,-57 352.75,-63 346.75,-69 340.75,-69"/>
<text xml:space="preserve" text-anchor="middle" x="313.25" y="-47.5" font-family="Arial" font-size="10.00" fill="#1a1a1a">color encoding</text>
</g>
<!-- attr_2 -->
<g id="node9" class="node">
<title>attr_2</title>
<path fill="#c7b8e6" stroke="#7f8c8d" stroke-width="1.2" d="M510.75,-101C510.75,-101 408.5,-101 408.5,-101 402.5,-101 396.5,-95 396.5,-89 396.5,-89 396.5,-77 396.5,-77 396.5,-71 402.5,-65 408.5,-65 408.5,-65 510.75,-65 510.75,-65 516.75,-65 522.75,-71 522.75,-77 522.75,-77 522.75,-89 522.75,-89 522.75,-95 516.75,-101 510.75,-101"/>
<text xml:space="preserve" text-anchor="middle" x="459.62" y="-79.5" font-family="Arial" font-size="10.00" fill="#1a1a1a">(+) unclear color meaning</text>
</g>
<!-- unknown.color_encoding&#45;&gt;attr_2 -->
<g id="edge3" class="edge">
<title>unknown.color_encoding&#45;&gt;attr_2</title>
<path fill="none" stroke="#aaaaaa" d="M353.32,-59.66C364.04,-62.04 376.01,-64.69 387.92,-67.33"/>
<polygon fill="#aaaaaa" stroke="#aaaaaa" points="387.3,-69.7 394.66,-68.82 388.36,-64.92 387.3,-69.7"/>
</g>
<!-- rel_1 -->
<g id="node14" class="node">
<title>rel_1</title>
<path fill="#f5b8b8" stroke="#d46a6a" stroke-width="1.2" d="M475.5,-36C475.5,-36 443.75,-36 443.75,-36 437.75,-36 431.75,-30 431.75,-24 431.75,-24 431.75,-12 431.75,-12 431.75,-6 437.75,0 443.75,0 443.75,0 475.5,0 475.5,0 481.5,0 487.5,-6 487.5,-12 487.5,-12 487.5,-24 487.5,-24 487.5,-30 481.5,-36 475.5,-36"/>
<text xml:space="preserve" text-anchor="middle" x="459.62" y="-14.5" font-family="Arial" font-size="10.00" fill="#8b0000">obscures</text>
</g>
<!-- unknown.color_encoding&#45;&gt;rel_1 -->
<g id="edge9" class="edge">
<title>unknown.color_encoding&#45;&gt;rel_1</title>
<path fill="none" stroke="#d46a6a" stroke-width="1.5" d="M353.32,-42.07C374.56,-37.21 400.69,-31.24 421.61,-26.46"/>
<polygon fill="#d46a6a" stroke="#d46a6a" stroke-width="1.5" points="422.02,-29.24 429.2,-24.73 420.77,-23.78 422.02,-29.24"/>
</g>
<!-- unknown.text_orientation -->
<g id="node4" class="node">
<title>unknown.text_orientation</title>
<path fill="#b8e6b8" stroke="#2c3e50" stroke-width="1.8" d="M341.5,-198C341.5,-198 285,-198 285,-198 279,-198 273,-192 273,-186 273,-186 273,-174 273,-174 273,-168 279,-162 285,-162 285,-162 341.5,-162 341.5,-162 347.5,-162 353.5,-168 353.5,-174 353.5,-174 353.5,-186 353.5,-186 353.5,-192 347.5,-198 341.5,-198"/>
<text xml:space="preserve" text-anchor="middle" x="313.25" y="-176.5" font-family="Arial" font-size="10.00" fill="#1a1a1a">text orientation</text>
</g>
<!-- attr_3 -->
<g id="node10" class="node">
<title>attr_3</title>
<path fill="#c7b8e6" stroke="#7f8c8d" stroke-width="1.2" d="M505.88,-231C505.88,-231 413.38,-231 413.38,-231 407.38,-231 401.38,-225 401.38,-219 401.38,-219 401.38,-207 401.38,-207 401.38,-201 407.38,-195 413.38,-195 413.38,-195 505.88,-195 505.88,-195 511.88,-195 517.88,-201 517.88,-207 517.88,-207 517.88,-219 517.88,-219 517.88,-225 511.88,-231 505.88,-231"/>
<text xml:space="preserve" text-anchor="middle" x="459.62" y="-209.5" font-family="Arial" font-size="10.00" fill="#1a1a1a">(+) varied word rotation</text>
</g>
<!-- unknown.text_orientation&#45;&gt;attr_3 -->
<g id="edge4" class="edge">
<title>unknown.text_orientation&#45;&gt;attr_3</title>
<path fill="none" stroke="#aaaaaa" d="M354.08,-189.1C366.04,-191.84 379.49,-194.91 392.66,-197.92"/>
<polygon fill="#aaaaaa" stroke="#aaaaaa" points="391.97,-200.28 399.34,-199.45 393.06,-195.5 391.97,-200.28"/>
</g>
<!-- rel_0 -->
<g id="node13" class="node">
<title>rel_0</title>
<path fill="#f5b8b8" stroke="#d46a6a" stroke-width="1.2" d="M502.12,-166C502.12,-166 417.12,-166 417.12,-166 411.12,-166 405.12,-160 405.12,-154 405.12,-154 405.12,-142 405.12,-142 405.12,-136 411.12,-130 417.12,-130 417.12,-130 502.12,-130 502.12,-130 508.12,-130 514.12,-136 514.12,-142 514.12,-142 514.12,-154 514.12,-154 514.12,-160 508.12,-166 502.12,-166"/>
<text xml:space="preserve" text-anchor="middle" x="459.62" y="-144.5" font-family="Arial" font-size="10.00" fill="#8b0000">reduces readability of</text>
</g>
<!-- unknown.text_orientation&#45;&gt;rel_0 -->
<g id="edge7" class="edge">
<title>unknown.text_orientation&#45;&gt;rel_0</title>
<path fill="none" stroke="#d46a6a" stroke-width="1.5" d="M354.08,-171.17C366.64,-168.39 380.85,-165.24 394.65,-162.18"/>
<polygon fill="#d46a6a" stroke="#d46a6a" stroke-width="1.5" points="395.18,-164.93 402.38,-160.47 393.97,-159.46 395.18,-164.93"/>
</g>
<!-- furniture.legend -->
<g id="node5" class="node">
<title>furniture.legend</title>
<path fill="#b8e6b8" stroke="#2c3e50" stroke-width="1.8" d="M42,-102C42,-102 12,-102 12,-102 6,-102 0,-96 0,-90 0,-90 0,-78 0,-78 0,-72 6,-66 12,-66 12,-66 42,-66 42,-66 48,-66 54,-72 54,-78 54,-78 54,-90 54,-90 54,-96 48,-102 42,-102"/>
<text xml:space="preserve" text-anchor="middle" x="27" y="-80.5" font-family="Arial" font-size="10.00" fill="#1a1a1a">legend</text>
</g>
<!-- attr_4 -->
<g id="node11" class="node">
<title>attr_4</title>
<path fill="#c7b8e6" stroke="#7f8c8d" stroke-width="1.2" d="M218,-134C218,-134 109,-134 109,-134 103,-134 97,-128 97,-122 97,-122 97,-110 97,-110 97,-104 103,-98 109,-98 109,-98 218,-98 218,-98 224,-98 230,-104 230,-110 230,-110 230,-122 230,-122 230,-128 224,-134 218,-134"/>
<text xml:space="preserve" text-anchor="middle" x="163.5" y="-112.5" font-family="Arial" font-size="10.00" fill="#1a1a1a">(+) insufficient color legend</text>
</g>
<!-- furniture.legend&#45;&gt;attr_4 -->
<g id="edge5" class="edge">
<title>furniture.legend&#45;&gt;attr_4</title>
<path fill="none" stroke="#aaaaaa" d="M54.89,-90.4C64.67,-92.73 76.26,-95.48 88.14,-98.31"/>
<polygon fill="#aaaaaa" stroke="#aaaaaa" points="87.55,-100.69 94.93,-99.92 88.69,-95.92 87.55,-100.69"/>
</g>
<!-- rel_2 -->
<g id="node15" class="node">
<title>rel_2</title>
<path fill="#f5b8b8" stroke="#d46a6a" stroke-width="1.2" d="M188.75,-69C188.75,-69 138.25,-69 138.25,-69 132.25,-69 126.25,-63 126.25,-57 126.25,-57 126.25,-45 126.25,-45 126.25,-39 132.25,-33 138.25,-33 138.25,-33 188.75,-33 188.75,-33 194.75,-33 200.75,-39 200.75,-45 200.75,-45 200.75,-57 200.75,-57 200.75,-63 194.75,-69 188.75,-69"/>
<text xml:space="preserve" text-anchor="middle" x="163.5" y="-47.5" font-family="Arial" font-size="10.00" fill="#8b0000">fails to clarify</text>
</g>
<!-- furniture.legend&#45;&gt;rel_2 -->
<g id="edge11" class="edge">
<title>furniture.legend&#45;&gt;rel_2</title>
<path fill="none" stroke="#d46a6a" stroke-width="1.5" d="M54.89,-77.4C72.35,-73.12 95.57,-67.42 115.97,-62.42"/>
<polygon fill="#d46a6a" stroke="#d46a6a" stroke-width="1.5" points="116.41,-65.19 123.51,-60.57 115.08,-59.75 116.41,-65.19"/>
</g>
<!-- structure.layout -->
<g id="node6" class="node">
<title>structure.layout</title>
<path fill="#b8e6b8" stroke="#2c3e50" stroke-width="1.8" d="M328.25,-296C328.25,-296 298.25,-296 298.25,-296 292.25,-296 286.25,-290 286.25,-284 286.25,-284 286.25,-272 286.25,-272 286.25,-266 292.25,-260 298.25,-260 298.25,-260 328.25,-260 328.25,-260 334.25,-260 340.25,-266 340.25,-272 340.25,-272 340.25,-284 340.25,-284 340.25,-290 334.25,-296 328.25,-296"/>
<text xml:space="preserve" text-anchor="middle" x="313.25" y="-274.5" font-family="Arial" font-size="10.00" fill="#1a1a1a">layout</text>
</g>
<!-- attr_5 -->
<g id="node12" class="node">
<title>attr_5</title>
<path fill="#c7b8e6" stroke="#7f8c8d" stroke-width="1.2" d="M497.25,-296C497.25,-296 422,-296 422,-296 416,-296 410,-290 410,-284 410,-284 410,-272 410,-272 410,-266 416,-260 422,-260 422,-260 497.25,-260 497.25,-260 503.25,-260 509.25,-266 509.25,-272 509.25,-272 509.25,-284 509.25,-284 509.25,-290 503.25,-296 497.25,-296"/>
<text xml:space="preserve" text-anchor="middle" x="459.62" y="-274.5" font-family="Arial" font-size="10.00" fill="#1a1a1a">(+) hard to interpret</text>
</g>
<!-- structure.layout&#45;&gt;attr_5 -->
<g id="edge6" class="edge">
<title>structure.layout&#45;&gt;attr_5</title>
<path fill="none" stroke="#aaaaaa" d="M341.07,-278C357.91,-278 380.3,-278 401.01,-278"/>
<polygon fill="#aaaaaa" stroke="#aaaaaa" points="400.94,-280.45 407.94,-278 400.94,-275.55 400.94,-280.45"/>
</g>
<!-- rel_0&#45;&gt;unknown.words -->
<g id="edge8" class="edge">
<title>rel_0&#45;&gt;unknown.words</title>
<path fill="none" stroke="#d46a6a" stroke-width="1.5" d="M497.85,-129.55C516.03,-120.53 537.81,-109.74 555.82,-100.81"/>
<polygon fill="#d46a6a" stroke="#d46a6a" stroke-width="1.5" points="556.9,-103.4 562.82,-97.34 554.41,-98.39 556.9,-103.4"/>
</g>
<!-- rel_1&#45;&gt;unknown.words -->
<g id="edge10" class="edge">
<title>rel_1&#45;&gt;unknown.words</title>
<path fill="none" stroke="#d46a6a" stroke-width="1.5" d="M487.79,-31.47C507.53,-41.25 534.43,-54.58 555.92,-65.24"/>
<polygon fill="#d46a6a" stroke="#d46a6a" stroke-width="1.5" points="554.62,-67.72 563.03,-68.76 557.11,-62.7 554.62,-67.72"/>
</g>
<!-- rel_2&#45;&gt;unknown.color_encoding -->
<g id="edge12" class="edge">
<title>rel_2&#45;&gt;unknown.color_encoding</title>
<path fill="none" stroke="#d46a6a" stroke-width="1.5" d="M201.02,-51C219.74,-51 242.79,-51 263.05,-51"/>
<polygon fill="#d46a6a" stroke="#d46a6a" stroke-width="1.5" points="262.77,-53.8 270.77,-51 262.77,-48.2 262.77,-53.8"/>
</g>
<!-- rel_3&#45;&gt;structure.layout -->
<g id="edge14" class="edge">
<title>rel_3&#45;&gt;structure.layout</title>
<path fill="none" stroke="#d46a6a" stroke-width="1.5" d="M212.47,-278C232.95,-278 256.46,-278 275.52,-278"/>
<polygon fill="#d46a6a" stroke="#d46a6a" stroke-width="1.5" points="275.33,-280.8 283.33,-278 275.33,-275.2 275.33,-280.8"/>
</g>
</g>
</svg>
