<?xml version="1.0" encoding="UTF-8" standalone="no"?>
<!DOCTYPE svg PUBLIC "-//W3C//DTD SVG 1.1//EN"
 "http://www.w3.org/Graphics/SVG/1.1/DTD/svg11.dtd">
<!-- Generated by graphviz version 14.1.5 (20260411.2331)
 -->
<!-- Title: VASTJ.1720.12.png Pages: 1 -->
<svg width="992pt" height="309pt"
 viewBox="0.00 0.00 992.00 309.00" xmlns="http://www.w3.org/2000/svg" xmlns:xlink="http://www.w3.org/1999/xlink">
<g id="graph0" class="graph" transform="scale(1 1) rotate(0) translate(4 305.25)">
<title>VASTJ.1720.12.png</title>
<polygon fill="white" stroke="none" points="-4,4 -4,-305.25 987.75,-305.25 987.75,4 -4,4"/>
<text xml:space="preserve" text-anchor="start" x="430" y="-280.95" font-family="Arial" font-weight="bold" font-size="14.00">VASTJ.1720.12.png</text>
<text xml:space="preserve" text-anchor="start" x="427.38" y="-261" font-family="Arial" font-size="11.00">Bar and point &#160;| &#160;VC = 0.46</text>
<path fill="#b8e6b8" stroke="none" d="M282.5,-236C282.5,-236 290.5,-236 290.5,-236 293.5,-236 296.5,-239 296.5,-242 296.5,-242 296.5,-248 296.5,-248 296.5,-251 293.5,-254 290.5,-254 290.5,-254 282.5,-254 282.5,-254 279.5,-254 276.5,-251 276.5,-248 276.5,-248 276.5,-242 276.5,-242 276.5,-239 279.5,-236 282.5,-236"/>
<path fill="none" stroke="black" d="M282.5,-236C282.5,-236 290.5,-236 290.5,-236 293.5,-236 296.5,-239 296.5,-242 296.5,-242 296.5,-248 296.5,-248 296.5,-251 293.5,-254 290.5,-254 290.5,-254 282.5,-254 282.5,-254 279.5,-254 276.5,-251 276.5,-248 276.5,-248 276.5,-242 276.5,-242 276.5,-239 279.5,-236 282.5,-236"/>
<text xml:space="preserve" text-anchor="start" x="285" y="-241.25" font-family="Arial" font-size="10.00"> </text>
<text xml:space="preserve" text-anchor="start" x="300.5" y="-241.25" font-family="Arial" font-size="10.00">Object</text>
<path fill="#c7b8e6" stroke="none" d="M339,-236C339,-236 347,-236 347,-236 350,-236 353,-239 353,-242 353,-242 353,-248 353,-248 353,-251 350,-254 347,-254 347,-254 339,-254 339,-254 336,-254 333,-251 333,-248 333,-248 333,-242 333,-242 333,-239 336,-236 339,-236"/>
<path fill="none" stroke="black" d="M339,-236C339,-236 347,-236 347,-236 350,-236 353,-239 353,-242 353,-242 353,-248 353,-248 353,-251 350,-254 347,-254 347,-254 339,-254 339,-254 336,-254 333,-251 333,-248 333,-248 333,-242 333,-242 333,-239 336,-236 339,-236"/>
<text xml:space="preserve" text-anchor="start" x="341.5" y="-241.25" font-family="Arial" font-size="10.00"> </text>
<text xml:space="preserve" text-anchor="start" x="357" y="-241.25" font-family="Arial" font-size="10.00">Attribute</text>
<path fill="#f5b8b8" stroke="none" d="M403.75,-236C403.75,-236 411.75,-236 411.75,-236 414.75,-236 417.75,-239 417.75,-242 417.75,-242 417.75,-248 417.75,-248 417.75,-251 414.75,-254 411.75,-254 411.75,-254 403.75,-254 403.75,-254 400.75,-254 397.75,-251 397.75,-248 397.75,-248 397.75,-242 397.75,-242 397.75,-239 400.75,-236 403.75,-236"/>
<path fill="none" stroke="black" d="M403.75,-236C403.75,-236 411.75,-236 411.75,-236 414.75,-236 417.75,-239 417.75,-242 417.75,-242 417.75,-248 417.75,-248 417.75,-251 414.75,-254 411.75,-254 411.75,-254 403.75,-254 403.75,-254 400.75,-254 397.75,-251 397.75,-248 397.75,-248 397.75,-242 397.75,-242 397.75,-239 400.75,-236 403.75,-236"/>
<text xml:space="preserve" text-anchor="start" x="406.25" y="-241.25" font-family="Arial" font-size="10.00"> </text>
<text xml:space="preserve" text-anchor="start" x="421.75" y="-241.25" font-family="Arial" font-size="10.00">Relationship</text>
<text xml:space="preserve" text-anchor="start" x="481.75" y="-242.5" font-family="Arial" font-weight="bold" font-size="10.00">(+)</text>
<text xml:space="preserve" text-anchor="start" x="493.75" y="-242.5" font-family="Arial" font-size="10.00"> increases complexity</text>
<text xml:space="preserve" text-anchor="start" x="595" y="-242.5" font-family="Arial" font-weight="bold" font-size="10.00">(−)</text>
<text xml:space="preserve" text-anchor="start" x="607" y="-242.5" font-family="Arial" font-size="10.00"> decreases complexity</text>
<!-- mark.bar -->
<g id="node1" class="node">
<title>mark.bar</title>
<path fill="#b8e6b8" stroke="#2c3e50" stroke-width="1.8" d="M42,-165C42,-165 12,-165 12,-165 6,-165 0,-159 0,-153 0,-153 0,-141 0,-141 0,-135 6,-129 12,-129 12,-129 42,-129 42,-129 48,-129 54,-135 54,-141 54,-141 54,-153 54,-153 54,-159 48,-165 42,-165"/>
<text xml:space="preserve" text-anchor="middle" x="27" y="-143.5" font-family="Arial" font-size="10.00" fill="#1a1a1a">bar</text>
</g>
<!-- attr_0 -->
<g id="node6" class="node">
<title>attr_0</title>
<path fill="#c7b8e6" stroke="#7f8c8d" stroke-width="1.2" d="M188.75,-198C188.75,-198 109,-198 109,-198 103,-198 97,-192 97,-186 97,-186 97,-174 97,-174 97,-168 103,-162 109,-162 109,-162 188.75,-162 188.75,-162 194.75,-162 200.75,-168 200.75,-174 200.75,-174 200.75,-186 200.75,-186 200.75,-192 194.75,-198 188.75,-198"/>
<text xml:space="preserve" text-anchor="middle" x="148.88" y="-176.5" font-family="Arial" font-size="10.00" fill="#1a1a1a">(−) few bars present</text>
</g>
<!-- mark.bar&#45;&gt;attr_0 -->
<g id="edge1" class="edge">
<title>mark.bar&#45;&gt;attr_0</title>
<path fill="none" stroke="#aaaaaa" d="M54.6,-154.32C64.79,-157.13 76.86,-160.45 88.87,-163.76"/>
<polygon fill="#aaaaaa" stroke="#aaaaaa" points="87.89,-166.03 95.28,-165.52 89.19,-161.3 87.89,-166.03"/>
</g>
<!-- rel_0 -->
<g id="node11" class="node">
<title>rel_0</title>
<path fill="#f5b8b8" stroke="#d46a6a" stroke-width="1.2" d="M173.75,-133C173.75,-133 124,-133 124,-133 118,-133 112,-127 112,-121 112,-121 112,-109 112,-109 112,-103 118,-97 124,-97 124,-97 173.75,-97 173.75,-97 179.75,-97 185.75,-103 185.75,-109 185.75,-109 185.75,-121 185.75,-121 185.75,-127 179.75,-133 173.75,-133"/>
<text xml:space="preserve" text-anchor="middle" x="148.88" y="-111.5" font-family="Arial" font-size="10.00" fill="#8b0000">contains little</text>
</g>
<!-- mark.bar&#45;&gt;rel_0 -->
<g id="edge6" class="edge">
<title>mark.bar&#45;&gt;rel_0</title>
<path fill="none" stroke="#d46a6a" stroke-width="1.5" d="M54.6,-139.9C68.54,-136.18 86.01,-131.52 102.04,-127.24"/>
<polygon fill="#d46a6a" stroke="#d46a6a" stroke-width="1.5" points="102.6,-129.99 109.6,-125.22 101.15,-124.57 102.6,-129.99"/>
</g>
<!-- unknown.data_point -->
<g id="node2" class="node">
<title>unknown.data_point</title>
<path fill="#b8e6b8" stroke="#2c3e50" stroke-width="1.8" d="M290.5,-133C290.5,-133 255.75,-133 255.75,-133 249.75,-133 243.75,-127 243.75,-121 243.75,-121 243.75,-109 243.75,-109 243.75,-103 249.75,-97 255.75,-97 255.75,-97 290.5,-97 290.5,-97 296.5,-97 302.5,-103 302.5,-109 302.5,-109 302.5,-121 302.5,-121 302.5,-127 296.5,-133 290.5,-133"/>
<text xml:space="preserve" text-anchor="middle" x="273.12" y="-111.5" font-family="Arial" font-size="10.00" fill="#1a1a1a">data point</text>
</g>
<!-- attr_1 -->
<g id="node7" class="node">
<title>attr_1</title>
<path fill="#c7b8e6" stroke="#7f8c8d" stroke-width="1.2" d="M444.75,-166C444.75,-166 357.5,-166 357.5,-166 351.5,-166 345.5,-160 345.5,-154 345.5,-154 345.5,-142 345.5,-142 345.5,-136 351.5,-130 357.5,-130 357.5,-130 444.75,-130 444.75,-130 450.75,-130 456.75,-136 456.75,-142 456.75,-142 456.75,-154 456.75,-154 456.75,-160 450.75,-166 444.75,-166"/>
<text xml:space="preserve" text-anchor="middle" x="401.12" y="-144.5" font-family="Arial" font-size="10.00" fill="#1a1a1a">(−) sparse data points</text>
</g>
<!-- unknown.data_point&#45;&gt;attr_1 -->
<g id="edge2" class="edge">
<title>unknown.data_point&#45;&gt;attr_1</title>
<path fill="none" stroke="#aaaaaa" d="M303.35,-122.65C313.45,-125.3 325.19,-128.38 336.95,-131.45"/>
<polygon fill="#aaaaaa" stroke="#aaaaaa" points="336.21,-133.79 343.6,-133.2 337.45,-129.05 336.21,-133.79"/>
</g>
<!-- rel_2 -->
<g id="node13" class="node">
<title>rel_2</title>
<path fill="#f5b8b8" stroke="#d46a6a" stroke-width="1.2" d="M442.88,-101C442.88,-101 359.38,-101 359.38,-101 353.38,-101 347.38,-95 347.38,-89 347.38,-89 347.38,-77 347.38,-77 347.38,-71 353.38,-65 359.38,-65 359.38,-65 442.88,-65 442.88,-65 448.88,-65 454.88,-71 454.88,-77 454.88,-77 454.88,-89 454.88,-89 454.88,-95 448.88,-101 442.88,-101"/>
<text xml:space="preserve" text-anchor="middle" x="401.12" y="-79.5" font-family="Arial" font-size="10.00" fill="#8b0000">requires low effort for</text>
</g>
<!-- unknown.data_point&#45;&gt;rel_2 -->
<g id="edge10" class="edge">
<title>unknown.data_point&#45;&gt;rel_2</title>
<path fill="none" stroke="#d46a6a" stroke-width="1.5" d="M303.35,-107.58C313.46,-105.01 325.22,-102.02 336.98,-99.04"/>
<polygon fill="#d46a6a" stroke="#d46a6a" stroke-width="1.5" points="337.56,-101.78 344.63,-97.09 336.18,-96.35 337.56,-101.78"/>
</g>
<!-- text.axis_label -->
<g id="node3" class="node">
<title>text.axis_label</title>
<path fill="#b8e6b8" stroke="#2c3e50" stroke-width="1.8" d="M833.25,-36C833.25,-36 800,-36 800,-36 794,-36 788,-30 788,-24 788,-24 788,-12 788,-12 788,-6 794,0 800,0 800,0 833.25,0 833.25,0 839.25,0 845.25,-6 845.25,-12 845.25,-12 845.25,-24 845.25,-24 845.25,-30 839.25,-36 833.25,-36"/>
<text xml:space="preserve" text-anchor="middle" x="816.62" y="-14.5" font-family="Arial" font-size="10.00" fill="#1a1a1a">axis label</text>
</g>
<!-- attr_3 -->
<g id="node8" class="node">
<title>attr_3</title>
<path fill="#c7b8e6" stroke="#7f8c8d" stroke-width="1.2" d="M971.75,-36C971.75,-36 900.25,-36 900.25,-36 894.25,-36 888.25,-30 888.25,-24 888.25,-24 888.25,-12 888.25,-12 888.25,-6 894.25,0 900.25,0 900.25,0 971.75,0 971.75,0 977.75,0 983.75,-6 983.75,-12 983.75,-12 983.75,-24 983.75,-24 983.75,-30 977.75,-36 971.75,-36"/>
<text xml:space="preserve" text-anchor="middle" x="936" y="-14.5" font-family="Arial" font-size="10.00" fill="#1a1a1a">(−) simple labeling</text>
</g>
<!-- text.axis_label&#45;&gt;attr_3 -->
<g id="edge3" class="edge">
<title>text.axis_label&#45;&gt;attr_3</title>
<path fill="none" stroke="#aaaaaa" d="M846.04,-18C856.19,-18 868.01,-18 879.66,-18"/>
<polygon fill="#aaaaaa" stroke="#aaaaaa" points="879.56,-20.45 886.56,-18 879.56,-15.55 879.56,-20.45"/>
</g>
<!-- furniture.legend -->
<g id="node4" class="node">
<title>furniture.legend</title>
<path fill="#b8e6b8" stroke="#2c3e50" stroke-width="1.8" d="M42,-230C42,-230 12,-230 12,-230 6,-230 0,-224 0,-218 0,-218 0,-206 0,-206 0,-200 6,-194 12,-194 12,-194 42,-194 42,-194 48,-194 54,-200 54,-206 54,-206 54,-218 54,-218 54,-224 48,-230 42,-230"/>
<text xml:space="preserve" text-anchor="middle" x="27" y="-208.5" font-family="Arial" font-size="10.00" fill="#1a1a1a">legend</text>
</g>
<!-- unknown.overall_layout -->
<g id="node5" class="node">
<title>unknown.overall_layout</title>
<path fill="#b8e6b8" stroke="#2c3e50" stroke-width="1.8" d="M561.5,-101C561.5,-101 511.75,-101 511.75,-101 505.75,-101 499.75,-95 499.75,-89 499.75,-89 499.75,-77 499.75,-77 499.75,-71 505.75,-65 511.75,-65 511.75,-65 561.5,-65 561.5,-65 567.5,-65 573.5,-71 573.5,-77 573.5,-77 573.5,-89 573.5,-89 573.5,-95 567.5,-101 561.5,-101"/>
<text xml:space="preserve" text-anchor="middle" x="536.62" y="-79.5" font-family="Arial" font-size="10.00" fill="#1a1a1a">overall layout</text>
</g>
<!-- attr_2 -->
<g id="node9" class="node">
<title>attr_2</title>
<path fill="#c7b8e6" stroke="#7f8c8d" stroke-width="1.2" d="M733,-166C733,-166 628.5,-166 628.5,-166 622.5,-166 616.5,-160 616.5,-154 616.5,-154 616.5,-142 616.5,-142 616.5,-136 622.5,-130 628.5,-130 628.5,-130 733,-130 733,-130 739,-130 745,-136 745,-142 745,-142 745,-154 745,-154 745,-160 739,-166 733,-166"/>
<text xml:space="preserve" text-anchor="middle" x="680.75" y="-144.5" font-family="Arial" font-size="10.00" fill="#1a1a1a">(−) minimal visual content</text>
</g>
<!-- unknown.overall_layout&#45;&gt;attr_2 -->
<g id="edge4" class="edge">
<title>unknown.overall_layout&#45;&gt;attr_2</title>
<path fill="none" stroke="#aaaaaa" d="M574.23,-99.74C591.8,-107.78 613.08,-117.51 631.91,-126.12"/>
<polygon fill="#aaaaaa" stroke="#aaaaaa" points="630.51,-128.17 637.89,-128.86 632.55,-123.72 630.51,-128.17"/>
</g>
<!-- attr_4 -->
<g id="node10" class="node">
<title>attr_4</title>
<path fill="#c7b8e6" stroke="#7f8c8d" stroke-width="1.2" d="M721,-101C721,-101 640.5,-101 640.5,-101 634.5,-101 628.5,-95 628.5,-89 628.5,-89 628.5,-77 628.5,-77 628.5,-71 634.5,-65 640.5,-65 640.5,-65 721,-65 721,-65 727,-65 733,-71 733,-77 733,-77 733,-89 733,-89 733,-95 727,-101 721,-101"/>
<text xml:space="preserve" text-anchor="middle" x="680.75" y="-79.5" font-family="Arial" font-size="10.00" fill="#1a1a1a">(−) low visual clutter</text>
</g>
<!-- unknown.overall_layout&#45;&gt;attr_4 -->
<g id="edge5" class="edge">
<title>unknown.overall_layout&#45;&gt;attr_4</title>
<path fill="none" stroke="#aaaaaa" d="M574.23,-83C588.04,-83 604.14,-83 619.54,-83"/>
<polygon fill="#aaaaaa" stroke="#aaaaaa" points="619.49,-85.45 626.49,-83 619.49,-80.55 619.49,-85.45"/>
</g>
<!-- rel_1 -->
<g id="node12" class="node">
<title>rel_1</title>
<path fill="#f5b8b8" stroke="#d46a6a" stroke-width="1.2" d="M713.5,-36C713.5,-36 648,-36 648,-36 642,-36 636,-30 636,-24 636,-24 636,-12 636,-12 636,-6 642,0 648,0 648,0 713.5,0 713.5,0 719.5,0 725.5,-6 725.5,-12 725.5,-12 725.5,-24 725.5,-24 725.5,-30 719.5,-36 713.5,-36"/>
<text xml:space="preserve" text-anchor="middle" x="680.75" y="-14.5" font-family="Arial" font-size="10.00" fill="#8b0000">conveys minimal</text>
</g>
<!-- unknown.overall_layout&#45;&gt;rel_1 -->
<g id="edge8" class="edge">
<title>unknown.overall_layout&#45;&gt;rel_1</title>
<path fill="none" stroke="#d46a6a" stroke-width="1.5" d="M574.23,-66.26C591.25,-58.47 611.76,-49.09 630.16,-40.68"/>
<polygon fill="#d46a6a" stroke="#d46a6a" stroke-width="1.5" points="631.09,-43.33 637.2,-37.46 628.76,-38.24 631.09,-43.33"/>
</g>
<!-- rel_0&#45;&gt;unknown.data_point -->
<g id="edge7" class="edge">
<title>rel_0&#45;&gt;unknown.data_point</title>
<path fill="none" stroke="#d46a6a" stroke-width="1.5" d="M186.22,-115C200.98,-115 218.05,-115 233.07,-115"/>
<polygon fill="#d46a6a" stroke="#d46a6a" stroke-width="1.5" points="232.81,-117.8 240.81,-115 232.81,-112.2 232.81,-117.8"/>
</g>
<!-- rel_1&#45;&gt;text.axis_label -->
<g id="edge9" class="edge">
<title>rel_1&#45;&gt;text.axis_label</title>
<path fill="none" stroke="#d46a6a" stroke-width="1.5" d="M725.96,-18C742.58,-18 761.32,-18 777.35,-18"/>
<polygon fill="#d46a6a" stroke="#d46a6a" stroke-width="1.5" points="777.18,-20.8 785.18,-18 777.18,-15.2 777.18,-20.8"/>
</g>
<!-- rel_2&#45;&gt;unknown.overall_layout -->
<g id="edge11" class="edge">
<title>rel_2&#45;&gt;unknown.overall_layout</title>
<path fill="none" stroke="#d46a6a" stroke-width="1.5" d="M455.27,-83C466.4,-83 478.06,-83 488.93,-83"/>
<polygon fill="#d46a6a" stroke="#d46a6a" stroke-width="1.5" points="488.81,-85.8 496.81,-83 488.81,-80.2 488.81,-85.8"/>
</g>
</g>
</svg>
