<?xml version="1.0" encoding="UTF-8" standalone="no"?>
<!DOCTYPE svg PUBLIC "-//W3C//DTD SVG 1.1//EN"
 "http://www.w3.org/Graphics/SVG/1.1/DTD/svg11.dtd">
<!-- Generated by graphviz version 14.1.5 (20260411.2331)
 -->
<!-- Title: VASTC.59.11(1).png Pages: 1 -->
<svg width="806pt" height="437pt"
 viewBox="0.00 0.00 806.00 437.00" xmlns="http://www.w3.org/2000/svg" xmlns:xlink="http://www.w3.org/1999/xlink">
<g id="graph0" class="graph" transform="scale(1 1) rotate(0) translate(4 433.25)">
<title>VASTC.59.11(1).png</title>
<polygon fill="white" stroke="none" points="-4,4 -4,-433.25 802,-433.25 802,4 -4,4"/>
<text xml:space="preserve" text-anchor="start" x="335.62" y="-408.95" font-family="Arial" font-weight="bold" font-size="14.00">VASTC.59.11(1).png</text>
<text xml:space="preserve" text-anchor="start" x="356.62" y="-389" font-family="Arial" font-size="11.00">Grid &#160;| &#160;VC = 0.53</text>
<path fill="#b8e6b8" stroke="none" d="M189.62,-364C189.62,-364 197.62,-364 197.62,-364 200.62,-364 203.62,-367 203.62,-370 203.62,-370 203.62,-376 203.62,-376 203.62,-379 200.62,-382 197.62,-382 197.62,-382 189.62,-382 189.62,-382 186.62,-382 183.62,-379 183.62,-376 183.62,-376 183.62,-370 183.62,-370 183.62,-367 186.62,-364 189.62,-364"/>
<path fill="none" stroke="black" d="M189.62,-364C189.62,-364 197.62,-364 197.62,-364 200.62,-364 203.62,-367 203.62,-370 203.62,-370 203.62,-376 203.62,-376 203.62,-379 200.62,-382 197.62,-382 197.62,-382 189.62,-382 189.62,-382 186.62,-382 183.62,-379 183.62,-376 183.62,-376 183.62,-370 183.62,-370 183.62,-367 186.62,-364 189.62,-364"/>
<text xml:space="preserve" text-anchor="start" x="192.12" y="-369.25" font-family="Arial" font-size="10.00"> </text>
<text xml:space="preserve" text-anchor="start" x="207.62" y="-369.25" font-family="Arial" font-size="10.00">Object</text>
<path fill="#c7b8e6" stroke="none" d="M246.12,-364C246.12,-364 254.12,-364 254.12,-364 257.12,-364 260.12,-367 260.12,-370 260.12,-370 260.12,-376 260.12,-376 260.12,-379 257.12,-382 254.12,-382 254.12,-382 246.12,-382 246.12,-382 243.12,-382 240.12,-379 240.12,-376 240.12,-376 240.12,-370 240.12,-370 240.12,-367 243.12,-364 246.12,-364"/>
<path fill="none" stroke="black" d="M246.12,-364C246.12,-364 254.12,-364 254.12,-364 257.12,-364 260.12,-367 260.12,-370 260.12,-370 260.12,-376 260.12,-376 260.12,-379 257.12,-382 254.12,-382 254.12,-382 246.12,-382 246.12,-382 243.12,-382 240.12,-379 240.12,-376 240.12,-376 240.12,-370 240.12,-370 240.12,-367 243.12,-364 246.12,-364"/>
<text xml:space="preserve" text-anchor="start" x="248.62" y="-369.25" font-family="Arial" font-size="10.00"> </text>
<text xml:space="preserve" text-anchor="start" x="264.12" y="-369.25" font-family="Arial" font-size="10.00">Attribute</text>
<path fill="#f5b8b8" stroke="none" d="M310.88,-364C310.88,-364 318.88,-364 318.88,-364 321.88,-364 324.88,-367 324.88,-370 324.88,-370 324.88,-376 324.88,-376 324.88,-379 321.88,-382 318.88,-382 318.88,-382 310.88,-382 310.88,-382 307.88,-382 304.88,-379 304.88,-376 304.88,-376 304.88,-370 304.88,-370 304.88,-367 307.88,-364 310.88,-364"/>
<path fill="none" stroke="black" d="M310.88,-364C310.88,-364 318.88,-364 318.88,-364 321.88,-364 324.88,-367 324.88,-370 324.88,-370 324.88,-376 324.88,-376 324.88,-379 321.88,-382 318.88,-382 318.88,-382 310.88,-382 310.88,-382 307.88,-382 304.88,-379 304.88,-376 304.88,-376 304.88,-370 304.88,-370 304.88,-367 307.88,-364 310.88,-364"/>
<text xml:space="preserve" text-anchor="start" x="313.38" y="-369.25" font-family="Arial" font-size="10.00"> </text>
<text xml:space="preserve" text-anchor="start" x="328.88" y="-369.25" font-family="Arial" font-size="10.00">Relationship</text>
<text xml:space="preserve" text-anchor="start" x="388.88" y="-370.5" font-family="Arial" font-weight="bold" font-size="10.00">(+)</text>
<text xml:space="preserve" text-anchor="start" x="400.88" y="-370.5" font-family="Arial" font-size="10.00"> increases complexity</text>
<text xml:space="preserve" text-anchor="start" x="502.12" y="-370.5" font-family="Arial" font-weight="bold" font-size="10.00">(−)</text>
<text xml:space="preserve" text-anchor="start" x="514.12" y="-370.5" font-family="Arial" font-size="10.00"> decreases complexity</text>
<!-- unknown.grid_cells -->
<g id="node1" class="node">
<title>unknown.grid_cells</title>
<path fill="#b8e6b8" stroke="#2c3e50" stroke-width="1.8" d="M325.75,-101C325.75,-101 294.75,-101 294.75,-101 288.75,-101 282.75,-95 282.75,-89 282.75,-89 282.75,-77 282.75,-77 282.75,-71 288.75,-65 294.75,-65 294.75,-65 325.75,-65 325.75,-65 331.75,-65 337.75,-71 337.75,-77 337.75,-77 337.75,-89 337.75,-89 337.75,-95 331.75,-101 325.75,-101"/>
<text xml:space="preserve" text-anchor="middle" x="310.25" y="-79.5" font-family="Arial" font-size="10.00" fill="#1a1a1a">grid cells</text>
</g>
<!-- attr_0 -->
<g id="node6" class="node">
<title>attr_0</title>
<path fill="#c7b8e6" stroke="#7f8c8d" stroke-width="1.2" d="M492,-166C492,-166 402.5,-166 402.5,-166 396.5,-166 390.5,-160 390.5,-154 390.5,-154 390.5,-142 390.5,-142 390.5,-136 396.5,-130 402.5,-130 402.5,-130 492,-130 492,-130 498,-130 504,-136 504,-142 504,-142 504,-154 504,-154 504,-160 498,-166 492,-166"/>
<text xml:space="preserve" text-anchor="middle" x="447.25" y="-144.5" font-family="Arial" font-size="10.00" fill="#1a1a1a">(+) high element count</text>
</g>
<!-- unknown.grid_cells&#45;&gt;attr_0 -->
<g id="edge1" class="edge">
<title>unknown.grid_cells&#45;&gt;attr_0</title>
<path fill="none" stroke="#aaaaaa" d="M338.57,-96.15C356.27,-104.68 379.77,-115.99 400.3,-125.88"/>
<polygon fill="#aaaaaa" stroke="#aaaaaa" points="398.98,-127.96 406.35,-128.79 401.11,-123.55 398.98,-127.96"/>
</g>
<!-- attr_4 -->
<g id="node7" class="node">
<title>attr_4</title>
<path fill="#c7b8e6" stroke="#7f8c8d" stroke-width="1.2" d="M501.75,-101C501.75,-101 392.75,-101 392.75,-101 386.75,-101 380.75,-95 380.75,-89 380.75,-89 380.75,-77 380.75,-77 380.75,-71 386.75,-65 392.75,-65 392.75,-65 501.75,-65 501.75,-65 507.75,-65 513.75,-71 513.75,-77 513.75,-77 513.75,-89 513.75,-89 513.75,-95 507.75,-101 501.75,-101"/>
<text xml:space="preserve" text-anchor="middle" x="447.25" y="-79.5" font-family="Arial" font-size="10.00" fill="#1a1a1a">(+) requires extended effort</text>
</g>
<!-- unknown.grid_cells&#45;&gt;attr_4 -->
<g id="edge2" class="edge">
<title>unknown.grid_cells&#45;&gt;attr_4</title>
<path fill="none" stroke="#aaaaaa" d="M338.57,-83C348.4,-83 360.01,-83 371.91,-83"/>
<polygon fill="#aaaaaa" stroke="#aaaaaa" points="371.67,-85.45 378.67,-83 371.67,-80.55 371.67,-85.45"/>
</g>
<!-- rel_2 -->
<g id="node14" class="node">
<title>rel_2</title>
<path fill="#f5b8b8" stroke="#d46a6a" stroke-width="1.2" d="M489,-36C489,-36 405.5,-36 405.5,-36 399.5,-36 393.5,-30 393.5,-24 393.5,-24 393.5,-12 393.5,-12 393.5,-6 399.5,0 405.5,0 405.5,0 489,0 489,0 495,0 501,-6 501,-12 501,-12 501,-24 501,-24 501,-30 495,-36 489,-36"/>
<text xml:space="preserve" text-anchor="middle" x="447.25" y="-14.5" font-family="Arial" font-size="10.00" fill="#8b0000">requires expertise for</text>
</g>
<!-- unknown.grid_cells&#45;&gt;rel_2 -->
<g id="edge11" class="edge">
<title>unknown.grid_cells&#45;&gt;rel_2</title>
<path fill="none" stroke="#d46a6a" stroke-width="1.5" d="M338.57,-69.85C355.81,-61.55 378.54,-50.6 398.68,-40.91"/>
<polygon fill="#d46a6a" stroke="#d46a6a" stroke-width="1.5" points="399.68,-43.53 405.67,-37.54 397.25,-38.49 399.68,-43.53"/>
</g>
<!-- property.color -->
<g id="node2" class="node">
<title>property.color</title>
<path fill="#b8e6b8" stroke="#2c3e50" stroke-width="1.8" d="M42,-134C42,-134 12,-134 12,-134 6,-134 0,-128 0,-122 0,-122 0,-110 0,-110 0,-104 6,-98 12,-98 12,-98 42,-98 42,-98 48,-98 54,-104 54,-110 54,-110 54,-122 54,-122 54,-128 48,-134 42,-134"/>
<text xml:space="preserve" text-anchor="middle" x="27" y="-112.5" font-family="Arial" font-size="10.00" fill="#1a1a1a">color</text>
</g>
<!-- attr_1 -->
<g id="node8" class="node">
<title>attr_1</title>
<path fill="#c7b8e6" stroke="#7f8c8d" stroke-width="1.2" d="M214.62,-166C214.62,-166 122.12,-166 122.12,-166 116.12,-166 110.12,-160 110.12,-154 110.12,-154 110.12,-142 110.12,-142 110.12,-136 116.12,-130 122.12,-130 122.12,-130 214.62,-130 214.62,-130 220.62,-130 226.62,-136 226.62,-142 226.62,-142 226.62,-154 226.62,-154 226.62,-160 220.62,-166 214.62,-166"/>
<text xml:space="preserve" text-anchor="middle" x="168.38" y="-144.5" font-family="Arial" font-size="10.00" fill="#1a1a1a">(+) high contrast colors</text>
</g>
<!-- property.color&#45;&gt;attr_1 -->
<g id="edge3" class="edge">
<title>property.color&#45;&gt;attr_1</title>
<path fill="none" stroke="#aaaaaa" d="M54.87,-122.17C68.26,-125.24 85.1,-129.11 101.64,-132.91"/>
<polygon fill="#aaaaaa" stroke="#aaaaaa" points="100.87,-135.24 108.24,-134.42 101.97,-130.47 100.87,-135.24"/>
</g>
<!-- rel_1 -->
<g id="node13" class="node">
<title>rel_1</title>
<path fill="#f5b8b8" stroke="#d46a6a" stroke-width="1.2" d="M213.12,-101C213.12,-101 123.62,-101 123.62,-101 117.62,-101 111.62,-95 111.62,-89 111.62,-89 111.62,-77 111.62,-77 111.62,-71 117.62,-65 123.62,-65 123.62,-65 213.12,-65 213.12,-65 219.12,-65 225.12,-71 225.12,-77 225.12,-77 225.12,-89 225.12,-89 225.12,-95 219.12,-101 213.12,-101"/>
<text xml:space="preserve" text-anchor="middle" x="168.38" y="-79.5" font-family="Arial" font-size="10.00" fill="#8b0000">increases confusion in</text>
</g>
<!-- property.color&#45;&gt;rel_1 -->
<g id="edge9" class="edge">
<title>property.color&#45;&gt;rel_1</title>
<path fill="none" stroke="#d46a6a" stroke-width="1.5" d="M54.87,-109.64C68.23,-106.47 85.01,-102.5 101.51,-98.59"/>
<polygon fill="#d46a6a" stroke="#d46a6a" stroke-width="1.5" points="101.81,-101.4 108.95,-96.83 100.52,-95.95 101.81,-101.4"/>
</g>
<!-- content.data -->
<g id="node3" class="node">
<title>content.data</title>
<path fill="#b8e6b8" stroke="#2c3e50" stroke-width="1.8" d="M42,-293C42,-293 12,-293 12,-293 6,-293 0,-287 0,-281 0,-281 0,-269 0,-269 0,-263 6,-257 12,-257 12,-257 42,-257 42,-257 48,-257 54,-263 54,-269 54,-269 54,-281 54,-281 54,-287 48,-293 42,-293"/>
<text xml:space="preserve" text-anchor="middle" x="27" y="-271.5" font-family="Arial" font-size="10.00" fill="#1a1a1a">data</text>
</g>
<!-- attr_2 -->
<g id="node9" class="node">
<title>attr_2</title>
<path fill="#c7b8e6" stroke="#7f8c8d" stroke-width="1.2" d="M227.75,-358C227.75,-358 109,-358 109,-358 103,-358 97,-352 97,-346 97,-346 97,-334 97,-334 97,-328 103,-322 109,-322 109,-322 227.75,-322 227.75,-322 233.75,-322 239.75,-328 239.75,-334 239.75,-334 239.75,-346 239.75,-346 239.75,-352 233.75,-358 227.75,-358"/>
<text xml:space="preserve" text-anchor="middle" x="168.38" y="-336.5" font-family="Arial" font-size="10.00" fill="#1a1a1a">(+) dense information volume</text>
</g>
<!-- content.data&#45;&gt;attr_2 -->
<g id="edge4" class="edge">
<title>content.data&#45;&gt;attr_2</title>
<path fill="none" stroke="#aaaaaa" d="M54.81,-287.97C67.56,-294.1 83.04,-301.49 97,-308 104.12,-311.32 111.65,-314.79 119.05,-318.18"/>
<polygon fill="#aaaaaa" stroke="#aaaaaa" points="117.62,-320.21 125,-320.89 119.65,-315.76 117.62,-320.21"/>
</g>
<!-- rel_0 -->
<g id="node12" class="node">
<title>rel_0</title>
<path fill="#f5b8b8" stroke="#d46a6a" stroke-width="1.2" d="M190.62,-293C190.62,-293 146.12,-293 146.12,-293 140.12,-293 134.12,-287 134.12,-281 134.12,-281 134.12,-269 134.12,-269 134.12,-263 140.12,-257 146.12,-257 146.12,-257 190.62,-257 190.62,-257 196.62,-257 202.62,-263 202.62,-269 202.62,-269 202.62,-281 202.62,-281 202.62,-287 196.62,-293 190.62,-293"/>
<text xml:space="preserve" text-anchor="middle" x="168.38" y="-271.5" font-family="Arial" font-size="10.00" fill="#8b0000">overwhelms</text>
</g>
<!-- content.data&#45;&gt;rel_0 -->
<g id="edge7" class="edge">
<title>content.data&#45;&gt;rel_0</title>
<path fill="none" stroke="#d46a6a" stroke-width="1.5" d="M54.87,-275C74.35,-275 101.12,-275 123.66,-275"/>
<polygon fill="#d46a6a" stroke="#d46a6a" stroke-width="1.5" points="123.41,-277.8 131.41,-275 123.41,-272.2 123.41,-277.8"/>
</g>
<!-- structure.layout -->
<g id="node4" class="node">
<title>structure.layout</title>
<path fill="#b8e6b8" stroke="#2c3e50" stroke-width="1.8" d="M325.25,-293C325.25,-293 295.25,-293 295.25,-293 289.25,-293 283.25,-287 283.25,-281 283.25,-281 283.25,-269 283.25,-269 283.25,-263 289.25,-257 295.25,-257 295.25,-257 325.25,-257 325.25,-257 331.25,-257 337.25,-263 337.25,-269 337.25,-269 337.25,-281 337.25,-281 337.25,-287 331.25,-293 325.25,-293"/>
<text xml:space="preserve" text-anchor="middle" x="310.25" y="-271.5" font-family="Arial" font-size="10.00" fill="#1a1a1a">layout</text>
</g>
<!-- attr_3 -->
<g id="node10" class="node">
<title>attr_3</title>
<path fill="#c7b8e6" stroke="#7f8c8d" stroke-width="1.2" d="M495,-296C495,-296 399.5,-296 399.5,-296 393.5,-296 387.5,-290 387.5,-284 387.5,-284 387.5,-272 387.5,-272 387.5,-266 393.5,-260 399.5,-260 399.5,-260 495,-260 495,-260 501,-260 507,-266 507,-272 507,-272 507,-284 507,-284 507,-290 501,-296 495,-296"/>
<text xml:space="preserve" text-anchor="middle" x="447.25" y="-274.5" font-family="Arial" font-size="10.00" fill="#1a1a1a">(+) lacks clear structure</text>
</g>
<!-- structure.layout&#45;&gt;attr_3 -->
<g id="edge5" class="edge">
<title>structure.layout&#45;&gt;attr_3</title>
<path fill="none" stroke="#aaaaaa" d="M337.92,-275.59C349.68,-275.85 364.08,-276.17 378.49,-276.49"/>
<polygon fill="#aaaaaa" stroke="#aaaaaa" points="378.4,-278.94 385.45,-276.65 378.51,-274.04 378.4,-278.94"/>
</g>
<!-- rel_3 -->
<g id="node15" class="node">
<title>rel_3</title>
<path fill="#f5b8b8" stroke="#d46a6a" stroke-width="1.2" d="M463.12,-231C463.12,-231 431.38,-231 431.38,-231 425.38,-231 419.38,-225 419.38,-219 419.38,-219 419.38,-207 419.38,-207 419.38,-201 425.38,-195 431.38,-195 431.38,-195 463.12,-195 463.12,-195 469.12,-195 475.12,-201 475.12,-207 475.12,-207 475.12,-219 475.12,-219 475.12,-225 469.12,-231 463.12,-231"/>
<text xml:space="preserve" text-anchor="middle" x="447.25" y="-209.5" font-family="Arial" font-size="10.00" fill="#8b0000">obscures</text>
</g>
<!-- structure.layout&#45;&gt;rel_3 -->
<g id="edge13" class="edge">
<title>structure.layout&#45;&gt;rel_3</title>
<path fill="none" stroke="#d46a6a" stroke-width="1.5" d="M337.92,-262.75C358.5,-253.3 387.18,-240.13 409.86,-229.71"/>
<polygon fill="#d46a6a" stroke="#d46a6a" stroke-width="1.5" points="411.01,-232.27 417.11,-226.38 408.67,-227.18 411.01,-232.27"/>
</g>
<!-- furniture.legend -->
<g id="node5" class="node">
<title>furniture.legend</title>
<path fill="#b8e6b8" stroke="#2c3e50" stroke-width="1.8" d="M598.75,-36C598.75,-36 568.75,-36 568.75,-36 562.75,-36 556.75,-30 556.75,-24 556.75,-24 556.75,-12 556.75,-12 556.75,-6 562.75,0 568.75,0 568.75,0 598.75,0 598.75,0 604.75,0 610.75,-6 610.75,-12 610.75,-12 610.75,-24 610.75,-24 610.75,-30 604.75,-36 598.75,-36"/>
<text xml:space="preserve" text-anchor="middle" x="583.75" y="-14.5" font-family="Arial" font-size="10.00" fill="#1a1a1a">legend</text>
</g>
<!-- attr_5 -->
<g id="node11" class="node">
<title>attr_5</title>
<path fill="#c7b8e6" stroke="#7f8c8d" stroke-width="1.2" d="M786,-36C786,-36 665.75,-36 665.75,-36 659.75,-36 653.75,-30 653.75,-24 653.75,-24 653.75,-12 653.75,-12 653.75,-6 659.75,0 665.75,0 665.75,0 786,0 786,0 792,0 798,-6 798,-12 798,-12 798,-24 798,-24 798,-30 792,-36 786,-36"/>
<text xml:space="preserve" text-anchor="middle" x="725.88" y="-14.5" font-family="Arial" font-size="10.00" fill="#1a1a1a">(+) unclear encoding mapping</text>
</g>
<!-- furniture.legend&#45;&gt;attr_5 -->
<g id="edge6" class="edge">
<title>furniture.legend&#45;&gt;attr_5</title>
<path fill="none" stroke="#aaaaaa" d="M611.44,-18C621.24,-18 632.92,-18 644.99,-18"/>
<polygon fill="#aaaaaa" stroke="#aaaaaa" points="644.88,-20.45 651.88,-18 644.88,-15.55 644.88,-20.45"/>
</g>
<!-- rel_0&#45;&gt;structure.layout -->
<g id="edge8" class="edge">
<title>rel_0&#45;&gt;structure.layout</title>
<path fill="none" stroke="#d46a6a" stroke-width="1.5" d="M202.88,-275C223.85,-275 250.9,-275 272.47,-275"/>
<polygon fill="#d46a6a" stroke="#d46a6a" stroke-width="1.5" points="272.29,-277.8 280.29,-275 272.29,-272.2 272.29,-277.8"/>
</g>
<!-- rel_1&#45;&gt;unknown.grid_cells -->
<g id="edge10" class="edge">
<title>rel_1&#45;&gt;unknown.grid_cells</title>
<path fill="none" stroke="#d46a6a" stroke-width="1.5" d="M225.46,-83C241.12,-83 257.74,-83 272.02,-83"/>
<polygon fill="#d46a6a" stroke="#d46a6a" stroke-width="1.5" points="271.68,-85.8 279.68,-83 271.68,-80.2 271.68,-85.8"/>
</g>
<!-- rel_2&#45;&gt;furniture.legend -->
<g id="edge12" class="edge">
<title>rel_2&#45;&gt;furniture.legend</title>
<path fill="none" stroke="#d46a6a" stroke-width="1.5" d="M501.41,-18C516.39,-18 532.34,-18 546.12,-18"/>
<polygon fill="#d46a6a" stroke="#d46a6a" stroke-width="1.5" points="545.91,-20.8 553.91,-18 545.91,-15.2 545.91,-20.8"/>
</g>
<!-- rel_3&#45;&gt;content.data -->
<g id="edge14" class="edge">
<title>rel_3&#45;&gt;content.data</title>
<path fill="none" stroke="#d46a6a" stroke-width="1.5" d="M418.98,-212.16C359.42,-211.01 213.74,-211.95 97,-243 85.86,-245.96 74.3,-250.62 63.89,-255.48"/>
<polygon fill="#d46a6a" stroke="#d46a6a" stroke-width="1.5" points="62.72,-252.94 56.75,-258.96 65.17,-257.98 62.72,-252.94"/>
</g>
</g>
</svg>
