<?xml version="1.0" encoding="UTF-8" standalone="no"?>
<!DOCTYPE svg PUBLIC "-//W3C//DTD SVG 1.1//EN"
 "http://www.w3.org/Graphics/SVG/1.1/DTD/svg11.dtd">
<!-- Generated by graphviz version 14.1.5 (20260411.2331)
 -->
<!-- Title: VASTC.1.12.png Pages: 1 -->
<svg width="511pt" height="570pt"
 viewBox="0.00 0.00 511.00 570.00" xmlns="http://www.w3.org/2000/svg" xmlns:xlink="http://www.w3.org/1999/xlink">
<g id="graph0" class="graph" transform="scale(1 1) rotate(0) translate(4 566.25)">
<title>VASTC.1.12.png</title>
<polygon fill="white" stroke="none" points="-4,4 -4,-566.25 507.25,-566.25 507.25,4 -4,4"/>
<text xml:space="preserve" text-anchor="start" x="199.88" y="-541.95" font-family="Arial" font-weight="bold" font-size="14.00">VASTC.1.12.png</text>
<text xml:space="preserve" text-anchor="start" x="209.25" y="-522" font-family="Arial" font-size="11.00">Line &#160;| &#160;VC = 0.46</text>
<path fill="#b8e6b8" stroke="none" d="M42.25,-497C42.25,-497 50.25,-497 50.25,-497 53.25,-497 56.25,-500 56.25,-503 56.25,-503 56.25,-509 56.25,-509 56.25,-512 53.25,-515 50.25,-515 50.25,-515 42.25,-515 42.25,-515 39.25,-515 36.25,-512 36.25,-509 36.25,-509 36.25,-503 36.25,-503 36.25,-500 39.25,-497 42.25,-497"/>
<path fill="none" stroke="black" d="M42.25,-497C42.25,-497 50.25,-497 50.25,-497 53.25,-497 56.25,-500 56.25,-503 56.25,-503 56.25,-509 56.25,-509 56.25,-512 53.25,-515 50.25,-515 50.25,-515 42.25,-515 42.25,-515 39.25,-515 36.25,-512 36.25,-509 36.25,-509 36.25,-503 36.25,-503 36.25,-500 39.25,-497 42.25,-497"/>
<text xml:space="preserve" text-anchor="start" x="44.75" y="-502.25" font-family="Arial" font-size="10.00"> </text>
<text xml:space="preserve" text-anchor="start" x="60.25" y="-502.25" font-family="Arial" font-size="10.00">Object</text>
<path fill="#c7b8e6" stroke="none" d="M98.75,-497C98.75,-497 106.75,-497 106.75,-497 109.75,-497 112.75,-500 112.75,-503 112.75,-503 112.75,-509 112.75,-509 112.75,-512 109.75,-515 106.75,-515 106.75,-515 98.75,-515 98.75,-515 95.75,-515 92.75,-512 92.75,-509 92.75,-509 92.75,-503 92.75,-503 92.75,-500 95.75,-497 98.75,-497"/>
<path fill="none" stroke="black" d="M98.75,-497C98.75,-497 106.75,-497 106.75,-497 109.75,-497 112.75,-500 112.75,-503 112.75,-503 112.75,-509 112.75,-509 112.75,-512 109.75,-515 106.75,-515 106.75,-515 98.75,-515 98.75,-515 95.75,-515 92.75,-512 92.75,-509 92.75,-509 92.75,-503 92.75,-503 92.75,-500 95.75,-497 98.75,-497"/>
<text xml:space="preserve" text-anchor="start" x="101.25" y="-502.25" font-family="Arial" font-size="10.00"> </text>
<text xml:space="preserve" text-anchor="start" x="116.75" y="-502.25" font-family="Arial" font-size="10.00">Attribute</text>
<path fill="#f5b8b8" stroke="none" d="M163.5,-497C163.5,-497 171.5,-497 171.5,-497 174.5,-497 177.5,-500 177.5,-503 177.5,-503 177.5,-509 177.5,-509 177.5,-512 174.5,-515 171.5,-515 171.5,-515 163.5,-515 163.5,-515 160.5,-515 157.5,-512 157.5,-509 157.5,-509 157.5,-503 157.5,-503 157.5,-500 160.5,-497 163.5,-497"/>
<path fill="none" stroke="black" d="M163.5,-497C163.5,-497 171.5,-497 171.5,-497 174.5,-497 177.5,-500 177.5,-503 177.5,-503 177.5,-509 177.5,-509 177.5,-512 174.5,-515 171.5,-515 171.5,-515 163.5,-515 163.5,-515 160.5,-515 157.5,-512 157.5,-509 157.5,-509 157.5,-503 157.5,-503 157.5,-500 160.5,-497 163.5,-497"/>
<text xml:space="preserve" text-anchor="start" x="166" y="-502.25" font-family="Arial" font-size="10.00"> </text>
<text xml:space="preserve" text-anchor="start" x="181.5" y="-502.25" font-family="Arial" font-size="10.00">Relationship</text>
<text xml:space="preserve" text-anchor="start" x="241.5" y="-503.5" font-family="Arial" font-weight="bold" font-size="10.00">(+)</text>
<text xml:space="preserve" text-anchor="start" x="253.5" y="-503.5" font-family="Arial" font-size="10.00"> increases complexity</text>
<text xml:space="preserve" text-anchor="start" x="354.75" y="-503.5" font-family="Arial" font-weight="bold" font-size="10.00">(−)</text>
<text xml:space="preserve" text-anchor="start" x="366.75" y="-503.5" font-family="Arial" font-size="10.00"> decreases complexity</text>
<!-- unknown.x_axis -->
<g id="node1" class="node">
<title>unknown.x_axis</title>
<path fill="#b8e6b8" stroke="#2c3e50" stroke-width="1.8" d="M42,-100C42,-100 12,-100 12,-100 6,-100 0,-94 0,-88 0,-88 0,-76 0,-76 0,-70 6,-64 12,-64 12,-64 42,-64 42,-64 48,-64 54,-70 54,-76 54,-76 54,-88 54,-88 54,-94 48,-100 42,-100"/>
<text xml:space="preserve" text-anchor="middle" x="27" y="-78.5" font-family="Arial" font-size="10.00" fill="#1a1a1a">x axis</text>
</g>
<!-- attr_0 -->
<g id="node6" class="node">
<title>attr_0</title>
<path fill="#c7b8e6" stroke="#7f8c8d" stroke-width="1.2" d="M203.75,-165C203.75,-165 116.5,-165 116.5,-165 110.5,-165 104.5,-159 104.5,-153 104.5,-153 104.5,-141 104.5,-141 104.5,-135 110.5,-129 116.5,-129 116.5,-129 203.75,-129 203.75,-129 209.75,-129 215.75,-135 215.75,-141 215.75,-141 215.75,-153 215.75,-153 215.75,-159 209.75,-165 203.75,-165"/>
<text xml:space="preserve" text-anchor="middle" x="160.12" y="-143.5" font-family="Arial" font-size="10.00" fill="#1a1a1a">(+) difficult to interpret</text>
</g>
<!-- unknown.x_axis&#45;&gt;attr_0 -->
<g id="edge1" class="edge">
<title>unknown.x_axis&#45;&gt;attr_0</title>
<path fill="none" stroke="#aaaaaa" d="M54.85,-95.31C71.99,-103.81 94.63,-115.03 114.44,-124.85"/>
<polygon fill="#aaaaaa" stroke="#aaaaaa" points="113.16,-126.95 120.52,-127.86 115.33,-122.56 113.16,-126.95"/>
</g>
<!-- rel_3 -->
<g id="node16" class="node">
<title>rel_3</title>
<path fill="#f5b8b8" stroke="#d46a6a" stroke-width="1.2" d="M182.38,-100C182.38,-100 137.88,-100 137.88,-100 131.88,-100 125.88,-94 125.88,-88 125.88,-88 125.88,-76 125.88,-76 125.88,-70 131.88,-64 137.88,-64 137.88,-64 182.38,-64 182.38,-64 188.38,-64 194.38,-70 194.38,-76 194.38,-76 194.38,-88 194.38,-88 194.38,-94 188.38,-100 182.38,-100"/>
<text xml:space="preserve" text-anchor="middle" x="160.12" y="-78.5" font-family="Arial" font-size="10.00" fill="#8b0000">overwhelms</text>
</g>
<!-- unknown.x_axis&#45;&gt;rel_3 -->
<g id="edge14" class="edge">
<title>unknown.x_axis&#45;&gt;rel_3</title>
<path fill="none" stroke="#d46a6a" stroke-width="1.5" d="M54.85,-82C72.21,-82 95.2,-82 115.18,-82"/>
<polygon fill="#d46a6a" stroke="#d46a6a" stroke-width="1.5" points="115.03,-84.8 123.03,-82 115.03,-79.2 115.03,-84.8"/>
</g>
<!-- text.axis_label -->
<g id="node2" class="node">
<title>text.axis_label</title>
<path fill="#b8e6b8" stroke="#2c3e50" stroke-width="1.8" d="M315.25,-101C315.25,-101 282,-101 282,-101 276,-101 270,-95 270,-89 270,-89 270,-77 270,-77 270,-71 276,-65 282,-65 282,-65 315.25,-65 315.25,-65 321.25,-65 327.25,-71 327.25,-77 327.25,-77 327.25,-89 327.25,-89 327.25,-95 321.25,-101 315.25,-101"/>
<text xml:space="preserve" text-anchor="middle" x="298.62" y="-79.5" font-family="Arial" font-size="10.00" fill="#1a1a1a">axis label</text>
</g>
<!-- attr_1 -->
<g id="node7" class="node">
<title>attr_1</title>
<path fill="#c7b8e6" stroke="#7f8c8d" stroke-width="1.2" d="M468,-166C468,-166 409.25,-166 409.25,-166 403.25,-166 397.25,-160 397.25,-154 397.25,-154 397.25,-142 397.25,-142 397.25,-136 403.25,-130 409.25,-130 409.25,-130 468,-130 468,-130 474,-130 480,-136 480,-142 480,-142 480,-154 480,-154 480,-160 474,-166 468,-166"/>
<text xml:space="preserve" text-anchor="middle" x="438.62" y="-144.5" font-family="Arial" font-size="10.00" fill="#1a1a1a">(+) hard to read</text>
</g>
<!-- text.axis_label&#45;&gt;attr_1 -->
<g id="edge2" class="edge">
<title>text.axis_label&#45;&gt;attr_1</title>
<path fill="none" stroke="#aaaaaa" d="M327.88,-96.31C345.93,-104.81 369.78,-116.04 390.63,-125.86"/>
<polygon fill="#aaaaaa" stroke="#aaaaaa" points="389.41,-128 396.79,-128.77 391.5,-123.57 389.41,-128"/>
</g>
<!-- attr_5 -->
<g id="node8" class="node">
<title>attr_5</title>
<path fill="#c7b8e6" stroke="#7f8c8d" stroke-width="1.2" d="M491.25,-101C491.25,-101 386,-101 386,-101 380,-101 374,-95 374,-89 374,-89 374,-77 374,-77 374,-71 380,-65 386,-65 386,-65 491.25,-65 491.25,-65 497.25,-65 503.25,-71 503.25,-77 503.25,-77 503.25,-89 503.25,-89 503.25,-95 497.25,-101 491.25,-101"/>
<text xml:space="preserve" text-anchor="middle" x="438.62" y="-79.5" font-family="Arial" font-size="10.00" fill="#1a1a1a">(+) complex bottom labels</text>
</g>
<!-- text.axis_label&#45;&gt;attr_5 -->
<g id="edge3" class="edge">
<title>text.axis_label&#45;&gt;attr_5</title>
<path fill="none" stroke="#aaaaaa" d="M327.88,-83C338.86,-83 351.97,-83 365.25,-83"/>
<polygon fill="#aaaaaa" stroke="#aaaaaa" points="365,-85.45 372,-83 365,-80.55 365,-85.45"/>
</g>
<!-- rel_0 -->
<g id="node13" class="node">
<title>rel_0</title>
<path fill="#f5b8b8" stroke="#d46a6a" stroke-width="1.2" d="M480.75,-36C480.75,-36 396.5,-36 396.5,-36 390.5,-36 384.5,-30 384.5,-24 384.5,-24 384.5,-12 384.5,-12 384.5,-6 390.5,0 396.5,0 396.5,0 480.75,0 480.75,0 486.75,0 492.75,-6 492.75,-12 492.75,-12 492.75,-24 492.75,-24 492.75,-30 486.75,-36 480.75,-36"/>
<text xml:space="preserve" text-anchor="middle" x="438.62" y="-14.5" font-family="Arial" font-size="10.00" fill="#8b0000">increases difficulty of</text>
</g>
<!-- text.axis_label&#45;&gt;rel_0 -->
<g id="edge8" class="edge">
<title>text.axis_label&#45;&gt;rel_0</title>
<path fill="none" stroke="#d46a6a" stroke-width="1.5" d="M327.88,-69.69C345.46,-61.41 368.53,-50.55 388.97,-40.91"/>
<polygon fill="#d46a6a" stroke="#d46a6a" stroke-width="1.5" points="390.06,-43.5 396.1,-37.56 387.67,-38.43 390.06,-43.5"/>
</g>
<!-- mark.line -->
<g id="node3" class="node">
<title>mark.line</title>
<path fill="#b8e6b8" stroke="#2c3e50" stroke-width="1.8" d="M42,-458C42,-458 12,-458 12,-458 6,-458 0,-452 0,-446 0,-446 0,-434 0,-434 0,-428 6,-422 12,-422 12,-422 42,-422 42,-422 48,-422 54,-428 54,-434 54,-434 54,-446 54,-446 54,-452 48,-458 42,-458"/>
<text xml:space="preserve" text-anchor="middle" x="27" y="-436.5" font-family="Arial" font-size="10.00" fill="#1a1a1a">line</text>
</g>
<!-- attr_2 -->
<g id="node9" class="node">
<title>attr_2</title>
<path fill="#c7b8e6" stroke="#7f8c8d" stroke-width="1.2" d="M211.25,-491C211.25,-491 109,-491 109,-491 103,-491 97,-485 97,-479 97,-479 97,-467 97,-467 97,-461 103,-455 109,-455 109,-455 211.25,-455 211.25,-455 217.25,-455 223.25,-461 223.25,-467 223.25,-467 223.25,-479 223.25,-479 223.25,-485 217.25,-491 211.25,-491"/>
<text xml:space="preserve" text-anchor="middle" x="160.12" y="-469.5" font-family="Arial" font-size="10.00" fill="#1a1a1a">(+) small dense elements</text>
</g>
<!-- mark.line&#45;&gt;attr_2 -->
<g id="edge4" class="edge">
<title>mark.line&#45;&gt;attr_2</title>
<path fill="none" stroke="#aaaaaa" d="M54.85,-446.76C64.81,-449.26 76.62,-452.24 88.66,-455.27"/>
<polygon fill="#aaaaaa" stroke="#aaaaaa" points="87.73,-457.56 95.11,-456.89 88.92,-452.81 87.73,-457.56"/>
</g>
<!-- rel_1 -->
<g id="node14" class="node">
<title>rel_1</title>
<path fill="#f5b8b8" stroke="#d46a6a" stroke-width="1.2" d="M204.88,-426C204.88,-426 115.38,-426 115.38,-426 109.38,-426 103.38,-420 103.38,-414 103.38,-414 103.38,-402 103.38,-402 103.38,-396 109.38,-390 115.38,-390 115.38,-390 204.88,-390 204.88,-390 210.88,-390 216.88,-396 216.88,-402 216.88,-402 216.88,-414 216.88,-414 216.88,-420 210.88,-426 204.88,-426"/>
<text xml:space="preserve" text-anchor="middle" x="160.12" y="-404.5" font-family="Arial" font-size="10.00" fill="#8b0000">requires effort to parse</text>
</g>
<!-- mark.line&#45;&gt;rel_1 -->
<g id="edge10" class="edge">
<title>mark.line&#45;&gt;rel_1</title>
<path fill="none" stroke="#d46a6a" stroke-width="1.5" d="M54.85,-433.45C66.01,-430.73 79.49,-427.43 93,-424.14"/>
<polygon fill="#d46a6a" stroke="#d46a6a" stroke-width="1.5" points="93.5,-426.9 100.61,-422.28 92.18,-421.46 93.5,-426.9"/>
</g>
<!-- text.label -->
<g id="node4" class="node">
<title>text.label</title>
<path fill="#b8e6b8" stroke="#2c3e50" stroke-width="1.8" d="M42,-296C42,-296 12,-296 12,-296 6,-296 0,-290 0,-284 0,-284 0,-272 0,-272 0,-266 6,-260 12,-260 12,-260 42,-260 42,-260 48,-260 54,-266 54,-272 54,-272 54,-284 54,-284 54,-290 48,-296 42,-296"/>
<text xml:space="preserve" text-anchor="middle" x="27" y="-274.5" font-family="Arial" font-size="10.00" fill="#1a1a1a">text</text>
</g>
<!-- attr_3 -->
<g id="node10" class="node">
<title>attr_3</title>
<path fill="#c7b8e6" stroke="#7f8c8d" stroke-width="1.2" d="M206,-361C206,-361 114.25,-361 114.25,-361 108.25,-361 102.25,-355 102.25,-349 102.25,-349 102.25,-337 102.25,-337 102.25,-331 108.25,-325 114.25,-325 114.25,-325 206,-325 206,-325 212,-325 218,-331 218,-337 218,-337 218,-349 218,-349 218,-355 212,-361 206,-361"/>
<text xml:space="preserve" text-anchor="middle" x="160.12" y="-339.5" font-family="Arial" font-size="10.00" fill="#1a1a1a">(+) unfamiliar concepts</text>
</g>
<!-- text.label&#45;&gt;attr_3 -->
<g id="edge5" class="edge">
<title>text.label&#45;&gt;attr_3</title>
<path fill="none" stroke="#aaaaaa" d="M54.85,-291.31C71.99,-299.81 94.63,-311.03 114.44,-320.85"/>
<polygon fill="#aaaaaa" stroke="#aaaaaa" points="113.16,-322.95 120.52,-323.86 115.33,-318.56 113.16,-322.95"/>
</g>
<!-- attr_6 -->
<g id="node11" class="node">
<title>attr_6</title>
<path fill="#c7b8e6" stroke="#7f8c8d" stroke-width="1.2" d="M206,-296C206,-296 114.25,-296 114.25,-296 108.25,-296 102.25,-290 102.25,-284 102.25,-284 102.25,-272 102.25,-272 102.25,-266 108.25,-260 114.25,-260 114.25,-260 206,-260 206,-260 212,-260 218,-266 218,-272 218,-272 218,-284 218,-284 218,-290 212,-296 206,-296"/>
<text xml:space="preserve" text-anchor="middle" x="160.12" y="-274.5" font-family="Arial" font-size="10.00" fill="#1a1a1a">(+) high cognitive effort</text>
</g>
<!-- text.label&#45;&gt;attr_6 -->
<g id="edge6" class="edge">
<title>text.label&#45;&gt;attr_6</title>
<path fill="none" stroke="#aaaaaa" d="M54.85,-278C66.08,-278 79.67,-278 93.28,-278"/>
<polygon fill="#aaaaaa" stroke="#aaaaaa" points="93.22,-280.45 100.22,-278 93.22,-275.55 93.22,-280.45"/>
</g>
<!-- rel_2 -->
<g id="node15" class="node">
<title>rel_2</title>
<path fill="#f5b8b8" stroke="#d46a6a" stroke-width="1.2" d="M176,-231C176,-231 144.25,-231 144.25,-231 138.25,-231 132.25,-225 132.25,-219 132.25,-219 132.25,-207 132.25,-207 132.25,-201 138.25,-195 144.25,-195 144.25,-195 176,-195 176,-195 182,-195 188,-201 188,-207 188,-207 188,-219 188,-219 188,-225 182,-231 176,-231"/>
<text xml:space="preserve" text-anchor="middle" x="160.12" y="-209.5" font-family="Arial" font-size="10.00" fill="#8b0000">obscures</text>
</g>
<!-- text.label&#45;&gt;rel_2 -->
<g id="edge12" class="edge">
<title>text.label&#45;&gt;rel_2</title>
<path fill="none" stroke="#d46a6a" stroke-width="1.5" d="M54.85,-264.69C74.43,-254.98 101.19,-241.72 122.7,-231.06"/>
<polygon fill="#d46a6a" stroke="#d46a6a" stroke-width="1.5" points="123.9,-233.59 129.82,-227.52 121.41,-228.57 123.9,-233.59"/>
</g>
<!-- unknown.data_marks -->
<g id="node5" class="node">
<title>unknown.data_marks</title>
<path fill="#b8e6b8" stroke="#2c3e50" stroke-width="1.8" d="M319,-231C319,-231 278.25,-231 278.25,-231 272.25,-231 266.25,-225 266.25,-219 266.25,-219 266.25,-207 266.25,-207 266.25,-201 272.25,-195 278.25,-195 278.25,-195 319,-195 319,-195 325,-195 331,-201 331,-207 331,-207 331,-219 331,-219 331,-225 325,-231 319,-231"/>
<text xml:space="preserve" text-anchor="middle" x="298.62" y="-209.5" font-family="Arial" font-size="10.00" fill="#1a1a1a">data marks</text>
</g>
<!-- attr_4 -->
<g id="node12" class="node">
<title>attr_4</title>
<path fill="#c7b8e6" stroke="#7f8c8d" stroke-width="1.2" d="M489.75,-231C489.75,-231 387.5,-231 387.5,-231 381.5,-231 375.5,-225 375.5,-219 375.5,-219 375.5,-207 375.5,-207 375.5,-201 381.5,-195 387.5,-195 387.5,-195 489.75,-195 489.75,-195 495.75,-195 501.75,-201 501.75,-207 501.75,-207 501.75,-219 501.75,-219 501.75,-225 495.75,-231 489.75,-231"/>
<text xml:space="preserve" text-anchor="middle" x="438.62" y="-209.5" font-family="Arial" font-size="10.00" fill="#1a1a1a">(+) difficult to differentiate</text>
</g>
<!-- unknown.data_marks&#45;&gt;attr_4 -->
<g id="edge7" class="edge">
<title>unknown.data_marks&#45;&gt;attr_4</title>
<path fill="none" stroke="#aaaaaa" d="M331.63,-213C342.18,-213 354.36,-213 366.62,-213"/>
<polygon fill="#aaaaaa" stroke="#aaaaaa" points="366.6,-215.45 373.6,-213 366.6,-210.55 366.6,-215.45"/>
</g>
<!-- rel_0&#45;&gt;unknown.x_axis -->
<g id="edge9" class="edge">
<title>rel_0&#45;&gt;unknown.x_axis</title>
<path fill="none" stroke="#d46a6a" stroke-width="1.5" d="M384.07,-17.07C316.09,-17.2 195.76,-21.83 97,-49 85.71,-52.11 74.01,-56.99 63.53,-62.05"/>
<polygon fill="#d46a6a" stroke="#d46a6a" stroke-width="1.5" points="62.58,-59.39 56.69,-65.49 65.1,-64.4 62.58,-59.39"/>
</g>
<!-- rel_1&#45;&gt;unknown.data_marks -->
<g id="edge11" class="edge">
<title>rel_1&#45;&gt;unknown.data_marks</title>
<path fill="none" stroke="#d46a6a" stroke-width="1.5" d="M206.1,-389.52C212.35,-385.67 218.31,-381.18 223.25,-376 260.27,-337.17 281.17,-276.68 290.86,-241.33"/>
<polygon fill="#d46a6a" stroke="#d46a6a" stroke-width="1.5" points="293.51,-242.29 292.83,-233.84 288.09,-240.87 293.51,-242.29"/>
</g>
<!-- rel_2&#45;&gt;unknown.data_marks -->
<g id="edge13" class="edge">
<title>rel_2&#45;&gt;unknown.data_marks</title>
<path fill="none" stroke="#d46a6a" stroke-width="1.5" d="M188.42,-213C207.63,-213 233.71,-213 255.56,-213"/>
<polygon fill="#d46a6a" stroke="#d46a6a" stroke-width="1.5" points="255.31,-215.8 263.31,-213 255.31,-210.2 255.31,-215.8"/>
</g>
<!-- rel_3&#45;&gt;text.axis_label -->
<g id="edge15" class="edge">
<title>rel_3&#45;&gt;text.axis_label</title>
<path fill="none" stroke="#d46a6a" stroke-width="1.5" d="M194.87,-82.25C214.36,-82.39 238.96,-82.57 259.2,-82.72"/>
<polygon fill="#d46a6a" stroke="#d46a6a" stroke-width="1.5" points="259.04,-85.52 267.06,-82.78 259.08,-79.92 259.04,-85.52"/>
</g>
</g>
</svg>
