<?xml version="1.0" encoding="UTF-8" standalone="no"?>
<!DOCTYPE svg PUBLIC "-//W3C//DTD SVG 1.1//EN"
 "http://www.w3.org/Graphics/SVG/1.1/DTD/svg11.dtd">
<!-- Generated by graphviz version 14.1.5 (20260411.2331)
 -->
<!-- Title: VASTJ.1407.9.png Pages: 1 -->
<svg width="882pt" height="505pt"
 viewBox="0.00 0.00 882.00 505.00" xmlns="http://www.w3.org/2000/svg" xmlns:xlink="http://www.w3.org/1999/xlink">
<g id="graph0" class="graph" transform="scale(1 1) rotate(0) translate(4 501.25)">
<title>VASTJ.1407.9.png</title>
<polygon fill="white" stroke="none" points="-4,4 -4,-501.25 878.25,-501.25 878.25,4 -4,4"/>
<text xml:space="preserve" text-anchor="start" x="379" y="-476.95" font-family="Arial" font-weight="bold" font-size="14.00">VASTJ.1407.9.png</text>
<text xml:space="preserve" text-anchor="start" x="382" y="-457" font-family="Arial" font-size="11.00">Node&#45;link &#160;| &#160;VC = 0.63</text>
<path fill="#b8e6b8" stroke="none" d="M227.75,-432C227.75,-432 235.75,-432 235.75,-432 238.75,-432 241.75,-435 241.75,-438 241.75,-438 241.75,-444 241.75,-444 241.75,-447 238.75,-450 235.75,-450 235.75,-450 227.75,-450 227.75,-450 224.75,-450 221.75,-447 221.75,-444 221.75,-444 221.75,-438 221.75,-438 221.75,-435 224.75,-432 227.75,-432"/>
<path fill="none" stroke="black" d="M227.75,-432C227.75,-432 235.75,-432 235.75,-432 238.75,-432 241.75,-435 241.75,-438 241.75,-438 241.75,-444 241.75,-444 241.75,-447 238.75,-450 235.75,-450 235.75,-450 227.75,-450 227.75,-450 224.75,-450 221.75,-447 221.75,-444 221.75,-444 221.75,-438 221.75,-438 221.75,-435 224.75,-432 227.75,-432"/>
<text xml:space="preserve" text-anchor="start" x="230.25" y="-437.25" font-family="Arial" font-size="10.00"> </text>
<text xml:space="preserve" text-anchor="start" x="245.75" y="-437.25" font-family="Arial" font-size="10.00">Object</text>
<path fill="#c7b8e6" stroke="none" d="M284.25,-432C284.25,-432 292.25,-432 292.25,-432 295.25,-432 298.25,-435 298.25,-438 298.25,-438 298.25,-444 298.25,-444 298.25,-447 295.25,-450 292.25,-450 292.25,-450 284.25,-450 284.25,-450 281.25,-450 278.25,-447 278.25,-444 278.25,-444 278.25,-438 278.25,-438 278.25,-435 281.25,-432 284.25,-432"/>
<path fill="none" stroke="black" d="M284.25,-432C284.25,-432 292.25,-432 292.25,-432 295.25,-432 298.25,-435 298.25,-438 298.25,-438 298.25,-444 298.25,-444 298.25,-447 295.25,-450 292.25,-450 292.25,-450 284.25,-450 284.25,-450 281.25,-450 278.25,-447 278.25,-444 278.25,-444 278.25,-438 278.25,-438 278.25,-435 281.25,-432 284.25,-432"/>
<text xml:space="preserve" text-anchor="start" x="286.75" y="-437.25" font-family="Arial" font-size="10.00"> </text>
<text xml:space="preserve" text-anchor="start" x="302.25" y="-437.25" font-family="Arial" font-size="10.00">Attribute</text>
<path fill="#f5b8b8" stroke="none" d="M349,-432C349,-432 357,-432 357,-432 360,-432 363,-435 363,-438 363,-438 363,-444 363,-444 363,-447 360,-450 357,-450 357,-450 349,-450 349,-450 346,-450 343,-447 343,-444 343,-444 343,-438 343,-438 343,-435 346,-432 349,-432"/>
<path fill="none" stroke="black" d="M349,-432C349,-432 357,-432 357,-432 360,-432 363,-435 363,-438 363,-438 363,-444 363,-444 363,-447 360,-450 357,-450 357,-450 349,-450 349,-450 346,-450 343,-447 343,-444 343,-444 343,-438 343,-438 343,-435 346,-432 349,-432"/>
<text xml:space="preserve" text-anchor="start" x="351.5" y="-437.25" font-family="Arial" font-size="10.00"> </text>
<text xml:space="preserve" text-anchor="start" x="367" y="-437.25" font-family="Arial" font-size="10.00">Relationship</text>
<text xml:space="preserve" text-anchor="start" x="427" y="-438.5" font-family="Arial" font-weight="bold" font-size="10.00">(+)</text>
<text xml:space="preserve" text-anchor="start" x="439" y="-438.5" font-family="Arial" font-size="10.00"> increases complexity</text>
<text xml:space="preserve" text-anchor="start" x="540.25" y="-438.5" font-family="Arial" font-weight="bold" font-size="10.00">(−)</text>
<text xml:space="preserve" text-anchor="start" x="552.25" y="-438.5" font-family="Arial" font-size="10.00"> decreases complexity</text>
<!-- unknown.lines -->
<g id="node1" class="node">
<title>unknown.lines</title>
<path fill="#b8e6b8" stroke="#2c3e50" stroke-width="1.8" d="M352.88,-101C352.88,-101 322.88,-101 322.88,-101 316.88,-101 310.88,-95 310.88,-89 310.88,-89 310.88,-77 310.88,-77 310.88,-71 316.88,-65 322.88,-65 322.88,-65 352.88,-65 352.88,-65 358.88,-65 364.88,-71 364.88,-77 364.88,-77 364.88,-89 364.88,-89 364.88,-95 358.88,-101 352.88,-101"/>
<text xml:space="preserve" text-anchor="middle" x="337.88" y="-79.5" font-family="Arial" font-size="10.00" fill="#1a1a1a">lines</text>
</g>
<!-- attr_0 -->
<g id="node7" class="node">
<title>attr_0</title>
<path fill="#c7b8e6" stroke="#7f8c8d" stroke-width="1.2" d="M538,-166C538,-166 423.75,-166 423.75,-166 417.75,-166 411.75,-160 411.75,-154 411.75,-154 411.75,-142 411.75,-142 411.75,-136 417.75,-130 423.75,-130 423.75,-130 538,-130 538,-130 544,-130 550,-136 550,-142 550,-142 550,-154 550,-154 550,-160 544,-166 538,-166"/>
<text xml:space="preserve" text-anchor="middle" x="480.88" y="-144.5" font-family="Arial" font-size="10.00" fill="#1a1a1a">(+) excessive crossing lines</text>
</g>
<!-- unknown.lines&#45;&gt;attr_0 -->
<g id="edge1" class="edge">
<title>unknown.lines&#45;&gt;attr_0</title>
<path fill="none" stroke="#aaaaaa" d="M365.73,-95.38C384.45,-104.01 409.95,-115.77 432.1,-125.98"/>
<polygon fill="#aaaaaa" stroke="#aaaaaa" points="431.02,-128.18 438.41,-128.88 433.08,-123.73 431.02,-128.18"/>
</g>
<!-- attr_1 -->
<g id="node8" class="node">
<title>attr_1</title>
<path fill="#c7b8e6" stroke="#7f8c8d" stroke-width="1.2" d="M516.25,-101C516.25,-101 445.5,-101 445.5,-101 439.5,-101 433.5,-95 433.5,-89 433.5,-89 433.5,-77 433.5,-77 433.5,-71 439.5,-65 445.5,-65 445.5,-65 516.25,-65 516.25,-65 522.25,-65 528.25,-71 528.25,-77 528.25,-77 528.25,-89 528.25,-89 528.25,-95 522.25,-101 516.25,-101"/>
<text xml:space="preserve" text-anchor="middle" x="480.88" y="-79.5" font-family="Arial" font-size="10.00" fill="#1a1a1a">(+) too many lines</text>
</g>
<!-- unknown.lines&#45;&gt;attr_1 -->
<g id="edge2" class="edge">
<title>unknown.lines&#45;&gt;attr_1</title>
<path fill="none" stroke="#aaaaaa" d="M365.73,-83C382.44,-83 404.55,-83 424.86,-83"/>
<polygon fill="#aaaaaa" stroke="#aaaaaa" points="424.62,-85.45 431.62,-83 424.62,-80.55 424.62,-85.45"/>
</g>
<!-- rel_0 -->
<g id="node14" class="node">
<title>rel_0</title>
<path fill="#f5b8b8" stroke="#d46a6a" stroke-width="1.2" d="M495.88,-36C495.88,-36 465.88,-36 465.88,-36 459.88,-36 453.88,-30 453.88,-24 453.88,-24 453.88,-12 453.88,-12 453.88,-6 459.88,0 465.88,0 465.88,0 495.88,0 495.88,0 501.88,0 507.88,-6 507.88,-12 507.88,-12 507.88,-24 507.88,-24 507.88,-30 501.88,-36 495.88,-36"/>
<text xml:space="preserve" text-anchor="middle" x="480.88" y="-14.5" font-family="Arial" font-size="10.00" fill="#8b0000">creates</text>
</g>
<!-- unknown.lines&#45;&gt;rel_0 -->
<g id="edge8" class="edge">
<title>unknown.lines&#45;&gt;rel_0</title>
<path fill="none" stroke="#d46a6a" stroke-width="1.5" d="M365.73,-70.62C388.02,-60.35 419.91,-45.65 444.31,-34.39"/>
<polygon fill="#d46a6a" stroke="#d46a6a" stroke-width="1.5" points="445.44,-36.96 451.54,-31.06 443.1,-31.87 445.44,-36.96"/>
</g>
<!-- property.color -->
<g id="node2" class="node">
<title>property.color</title>
<path fill="#b8e6b8" stroke="#2c3e50" stroke-width="1.8" d="M61.75,-134C61.75,-134 12,-134 12,-134 6,-134 0,-128 0,-122 0,-122 0,-110 0,-110 0,-104 6,-98 12,-98 12,-98 61.75,-98 61.75,-98 67.75,-98 73.75,-104 73.75,-110 73.75,-110 73.75,-122 73.75,-122 73.75,-128 67.75,-134 61.75,-134"/>
<text xml:space="preserve" text-anchor="middle" x="36.88" y="-112.5" font-family="Arial" font-size="10.00" fill="#1a1a1a">color shading</text>
</g>
<!-- attr_2 -->
<g id="node9" class="node">
<title>attr_2</title>
<path fill="#c7b8e6" stroke="#7f8c8d" stroke-width="1.2" d="M252.75,-166C252.75,-166 128.75,-166 128.75,-166 122.75,-166 116.75,-160 116.75,-154 116.75,-154 116.75,-142 116.75,-142 116.75,-136 122.75,-130 128.75,-130 128.75,-130 252.75,-130 252.75,-130 258.75,-130 264.75,-136 264.75,-142 264.75,-142 264.75,-154 264.75,-154 264.75,-160 258.75,-166 252.75,-166"/>
<text xml:space="preserve" text-anchor="middle" x="190.75" y="-144.5" font-family="Arial" font-size="10.00" fill="#1a1a1a">(+) similar yet different shades</text>
</g>
<!-- property.color&#45;&gt;attr_2 -->
<g id="edge3" class="edge">
<title>property.color&#45;&gt;attr_2</title>
<path fill="none" stroke="#aaaaaa" d="M74.64,-123.75C84.91,-125.91 96.5,-128.35 108.27,-130.83"/>
<polygon fill="#aaaaaa" stroke="#aaaaaa" points="107.59,-133.19 114.95,-132.24 108.6,-128.4 107.59,-133.19"/>
</g>
<!-- rel_3 -->
<g id="node17" class="node">
<title>rel_3</title>
<path fill="#f5b8b8" stroke="#d46a6a" stroke-width="1.2" d="M206.62,-101C206.62,-101 174.88,-101 174.88,-101 168.88,-101 162.88,-95 162.88,-89 162.88,-89 162.88,-77 162.88,-77 162.88,-71 168.88,-65 174.88,-65 174.88,-65 206.62,-65 206.62,-65 212.62,-65 218.62,-71 218.62,-77 218.62,-77 218.62,-89 218.62,-89 218.62,-95 212.62,-101 206.62,-101"/>
<text xml:space="preserve" text-anchor="middle" x="190.75" y="-79.5" font-family="Arial" font-size="10.00" fill="#8b0000">obscures</text>
</g>
<!-- property.color&#45;&gt;rel_3 -->
<g id="edge14" class="edge">
<title>property.color&#45;&gt;rel_3</title>
<path fill="none" stroke="#d46a6a" stroke-width="1.5" d="M74.64,-108.01C98.19,-102.89 128.67,-96.27 152.35,-91.13"/>
<polygon fill="#d46a6a" stroke="#d46a6a" stroke-width="1.5" points="152.93,-93.87 160.15,-89.43 151.74,-88.39 152.93,-93.87"/>
</g>
<!-- unknown.text_labels -->
<g id="node3" class="node">
<title>unknown.text_labels</title>
<path fill="#b8e6b8" stroke="#2c3e50" stroke-width="1.8" d="M55.38,-295C55.38,-295 18.38,-295 18.38,-295 12.38,-295 6.38,-289 6.38,-283 6.38,-283 6.38,-271 6.38,-271 6.38,-265 12.38,-259 18.38,-259 18.38,-259 55.38,-259 55.38,-259 61.38,-259 67.38,-265 67.38,-271 67.38,-271 67.38,-283 67.38,-283 67.38,-289 61.38,-295 55.38,-295"/>
<text xml:space="preserve" text-anchor="middle" x="36.88" y="-273.5" font-family="Arial" font-size="10.00" fill="#1a1a1a">text labels</text>
</g>
<!-- attr_3 -->
<g id="node10" class="node">
<title>attr_3</title>
<path fill="#c7b8e6" stroke="#7f8c8d" stroke-width="1.2" d="M243.38,-328C243.38,-328 138.12,-328 138.12,-328 132.12,-328 126.12,-322 126.12,-316 126.12,-316 126.12,-304 126.12,-304 126.12,-298 132.12,-292 138.12,-292 138.12,-292 243.38,-292 243.38,-292 249.38,-292 255.38,-298 255.38,-304 255.38,-304 255.38,-316 255.38,-316 255.38,-322 249.38,-328 243.38,-328"/>
<text xml:space="preserve" text-anchor="middle" x="190.75" y="-306.5" font-family="Arial" font-size="10.00" fill="#1a1a1a">(+) embedded within chart</text>
</g>
<!-- unknown.text_labels&#45;&gt;attr_3 -->
<g id="edge4" class="edge">
<title>unknown.text_labels&#45;&gt;attr_3</title>
<path fill="none" stroke="#aaaaaa" d="M68.24,-283.6C82.51,-286.7 100.17,-290.54 117.58,-294.32"/>
<polygon fill="#aaaaaa" stroke="#aaaaaa" points="116.7,-296.63 124.06,-295.73 117.74,-291.85 116.7,-296.63"/>
</g>
<!-- rel_1 -->
<g id="node15" class="node">
<title>rel_1</title>
<path fill="#f5b8b8" stroke="#d46a6a" stroke-width="1.2" d="M215.62,-263C215.62,-263 165.88,-263 165.88,-263 159.88,-263 153.88,-257 153.88,-251 153.88,-251 153.88,-239 153.88,-239 153.88,-233 159.88,-227 165.88,-227 165.88,-227 215.62,-227 215.62,-227 221.62,-227 227.62,-233 227.62,-239 227.62,-239 227.62,-251 227.62,-251 227.62,-257 221.62,-263 215.62,-263"/>
<text xml:space="preserve" text-anchor="middle" x="190.75" y="-241.5" font-family="Arial" font-size="10.00" fill="#8b0000">overlaps with</text>
</g>
<!-- unknown.text_labels&#45;&gt;rel_1 -->
<g id="edge10" class="edge">
<title>unknown.text_labels&#45;&gt;rel_1</title>
<path fill="none" stroke="#d46a6a" stroke-width="1.5" d="M68.24,-270.6C89.85,-266.05 119.27,-259.85 143.75,-254.69"/>
<polygon fill="#d46a6a" stroke="#d46a6a" stroke-width="1.5" points="144.08,-257.48 151.33,-253.1 142.92,-252.01 144.08,-257.48"/>
</g>
<!-- unknown.scale_axis -->
<g id="node4" class="node">
<title>unknown.scale_axis</title>
<path fill="#b8e6b8" stroke="#2c3e50" stroke-width="1.8" d="M356,-393C356,-393 319.75,-393 319.75,-393 313.75,-393 307.75,-387 307.75,-381 307.75,-381 307.75,-369 307.75,-369 307.75,-363 313.75,-357 319.75,-357 319.75,-357 356,-357 356,-357 362,-357 368,-363 368,-369 368,-369 368,-381 368,-381 368,-387 362,-393 356,-393"/>
<text xml:space="preserve" text-anchor="middle" x="337.88" y="-371.5" font-family="Arial" font-size="10.00" fill="#1a1a1a">scale axis</text>
</g>
<!-- attr_4 -->
<g id="node11" class="node">
<title>attr_4</title>
<path fill="#c7b8e6" stroke="#7f8c8d" stroke-width="1.2" d="M538.75,-426C538.75,-426 423,-426 423,-426 417,-426 411,-420 411,-414 411,-414 411,-402 411,-402 411,-396 417,-390 423,-390 423,-390 538.75,-390 538.75,-390 544.75,-390 550.75,-396 550.75,-402 550.75,-402 550.75,-414 550.75,-414 550.75,-420 544.75,-426 538.75,-426"/>
<text xml:space="preserve" text-anchor="middle" x="480.88" y="-404.5" font-family="Arial" font-size="10.00" fill="#1a1a1a">(+) multiple scale references</text>
</g>
<!-- unknown.scale_axis&#45;&gt;attr_4 -->
<g id="edge5" class="edge">
<title>unknown.scale_axis&#45;&gt;attr_4</title>
<path fill="none" stroke="#aaaaaa" d="M368.78,-382C378.76,-384.34 390.39,-387.06 402.3,-389.84"/>
<polygon fill="#aaaaaa" stroke="#aaaaaa" points="401.71,-392.22 409.09,-391.43 402.83,-387.45 401.71,-392.22"/>
</g>
<!-- rel_2 -->
<g id="node16" class="node">
<title>rel_2</title>
<path fill="#f5b8b8" stroke="#d46a6a" stroke-width="1.2" d="M517.38,-361C517.38,-361 444.38,-361 444.38,-361 438.38,-361 432.38,-355 432.38,-349 432.38,-349 432.38,-337 432.38,-337 432.38,-331 438.38,-325 444.38,-325 444.38,-325 517.38,-325 517.38,-325 523.38,-325 529.38,-331 529.38,-337 529.38,-337 529.38,-349 529.38,-349 529.38,-355 523.38,-361 517.38,-361"/>
<text xml:space="preserve" text-anchor="middle" x="480.88" y="-339.5" font-family="Arial" font-size="10.00" fill="#8b0000">increases effort for</text>
</g>
<!-- unknown.scale_axis&#45;&gt;rel_2 -->
<g id="edge12" class="edge">
<title>unknown.scale_axis&#45;&gt;rel_2</title>
<path fill="none" stroke="#d46a6a" stroke-width="1.5" d="M368.78,-368.21C384.26,-364.7 403.71,-360.29 421.98,-356.14"/>
<polygon fill="#d46a6a" stroke="#d46a6a" stroke-width="1.5" points="422.59,-358.87 429.77,-354.37 421.35,-353.41 422.59,-358.87"/>
</g>
<!-- unknown.sections -->
<g id="node5" class="node">
<title>unknown.sections</title>
<path fill="#b8e6b8" stroke="#2c3e50" stroke-width="1.8" d="M352.88,-263C352.88,-263 322.88,-263 322.88,-263 316.88,-263 310.88,-257 310.88,-251 310.88,-251 310.88,-239 310.88,-239 310.88,-233 316.88,-227 322.88,-227 322.88,-227 352.88,-227 352.88,-227 358.88,-227 364.88,-233 364.88,-239 364.88,-239 364.88,-251 364.88,-251 364.88,-257 358.88,-263 352.88,-263"/>
<text xml:space="preserve" text-anchor="middle" x="337.88" y="-241.5" font-family="Arial" font-size="10.00" fill="#1a1a1a">sections</text>
</g>
<!-- attr_5 -->
<g id="node12" class="node">
<title>attr_5</title>
<path fill="#c7b8e6" stroke="#7f8c8d" stroke-width="1.2" d="M524.5,-296C524.5,-296 437.25,-296 437.25,-296 431.25,-296 425.25,-290 425.25,-284 425.25,-284 425.25,-272 425.25,-272 425.25,-266 431.25,-260 437.25,-260 437.25,-260 524.5,-260 524.5,-260 530.5,-260 536.5,-266 536.5,-272 536.5,-272 536.5,-284 536.5,-284 536.5,-290 530.5,-296 524.5,-296"/>
<text xml:space="preserve" text-anchor="middle" x="480.88" y="-274.5" font-family="Arial" font-size="10.00" fill="#1a1a1a">(+) too many sections</text>
</g>
<!-- unknown.sections&#45;&gt;attr_5 -->
<g id="edge6" class="edge">
<title>unknown.sections&#45;&gt;attr_5</title>
<path fill="none" stroke="#aaaaaa" d="M365.73,-251.28C380.21,-254.67 398.74,-259.01 416.64,-263.2"/>
<polygon fill="#aaaaaa" stroke="#aaaaaa" points="415.96,-265.56 423.33,-264.77 417.08,-260.79 415.96,-265.56"/>
</g>
<!-- rel_4 -->
<g id="node18" class="node">
<title>rel_4</title>
<path fill="#f5b8b8" stroke="#d46a6a" stroke-width="1.2" d="M503.12,-231C503.12,-231 458.62,-231 458.62,-231 452.62,-231 446.62,-225 446.62,-219 446.62,-219 446.62,-207 446.62,-207 446.62,-201 452.62,-195 458.62,-195 458.62,-195 503.12,-195 503.12,-195 509.12,-195 515.12,-201 515.12,-207 515.12,-207 515.12,-219 515.12,-219 515.12,-225 509.12,-231 503.12,-231"/>
<text xml:space="preserve" text-anchor="middle" x="480.88" y="-209.5" font-family="Arial" font-size="10.00" fill="#8b0000">overwhelms</text>
</g>
<!-- unknown.sections&#45;&gt;rel_4 -->
<g id="edge16" class="edge">
<title>unknown.sections&#45;&gt;rel_4</title>
<path fill="none" stroke="#d46a6a" stroke-width="1.5" d="M365.73,-238.91C385.63,-234.39 413.19,-228.13 436.25,-222.9"/>
<polygon fill="#d46a6a" stroke="#d46a6a" stroke-width="1.5" points="436.75,-225.66 443.93,-221.16 435.51,-220.2 436.75,-225.66"/>
</g>
<!-- unknown.overall_layout -->
<g id="node6" class="node">
<title>unknown.overall_layout</title>
<path fill="#b8e6b8" stroke="#2c3e50" stroke-width="1.8" d="M655.5,-231C655.5,-231 605.75,-231 605.75,-231 599.75,-231 593.75,-225 593.75,-219 593.75,-219 593.75,-207 593.75,-207 593.75,-201 599.75,-195 605.75,-195 605.75,-195 655.5,-195 655.5,-195 661.5,-195 667.5,-201 667.5,-207 667.5,-207 667.5,-219 667.5,-219 667.5,-225 661.5,-231 655.5,-231"/>
<text xml:space="preserve" text-anchor="middle" x="630.62" y="-209.5" font-family="Arial" font-size="10.00" fill="#1a1a1a">overall layout</text>
</g>
<!-- attr_6 -->
<g id="node13" class="node">
<title>attr_6</title>
<path fill="#c7b8e6" stroke="#7f8c8d" stroke-width="1.2" d="M862.25,-231C862.25,-231 722.5,-231 722.5,-231 716.5,-231 710.5,-225 710.5,-219 710.5,-219 710.5,-207 710.5,-207 710.5,-201 716.5,-195 722.5,-195 722.5,-195 862.25,-195 862.25,-195 868.25,-195 874.25,-201 874.25,-207 874.25,-207 874.25,-219 874.25,-219 874.25,-225 868.25,-231 862.25,-231"/>
<text xml:space="preserve" text-anchor="middle" x="792.38" y="-209.5" font-family="Arial" font-size="10.00" fill="#1a1a1a">(+) compiled disorganized structur</text>
</g>
<!-- unknown.overall_layout&#45;&gt;attr_6 -->
<g id="edge7" class="edge">
<title>unknown.overall_layout&#45;&gt;attr_6</title>
<path fill="none" stroke="#aaaaaa" d="M668.27,-213C678.45,-213 689.97,-213 701.78,-213"/>
<polygon fill="#aaaaaa" stroke="#aaaaaa" points="701.47,-215.45 708.47,-213 701.47,-210.55 701.47,-215.45"/>
</g>
<!-- rel_0&#45;&gt;unknown.overall_layout -->
<g id="edge9" class="edge">
<title>rel_0&#45;&gt;unknown.overall_layout</title>
<path fill="none" stroke="#d46a6a" stroke-width="1.5" d="M508.3,-25.48C522.31,-30.54 539,-38.44 550.75,-50 589.39,-88.04 611.77,-148.81 622.26,-184.42"/>
<polygon fill="#d46a6a" stroke="#d46a6a" stroke-width="1.5" points="619.53,-185.06 624.4,-191.99 624.92,-183.53 619.53,-185.06"/>
</g>
<!-- rel_1&#45;&gt;unknown.sections -->
<g id="edge11" class="edge">
<title>rel_1&#45;&gt;unknown.sections</title>
<path fill="none" stroke="#d46a6a" stroke-width="1.5" stroke-dasharray="5,2" d="M228,-245C253.52,-245 287.12,-245 310.2,-245"/>
</g>
<!-- rel_2&#45;&gt;unknown.overall_layout -->
<g id="edge13" class="edge">
<title>rel_2&#45;&gt;unknown.overall_layout</title>
<path fill="none" stroke="#d46a6a" stroke-width="1.5" d="M529.5,-324.4C536.95,-320.51 544.31,-316.04 550.75,-311 576.15,-291.13 598.49,-261.58 612.85,-240.12"/>
<polygon fill="#d46a6a" stroke="#d46a6a" stroke-width="1.5" points="615.04,-241.89 617.07,-233.66 610.35,-238.82 615.04,-241.89"/>
</g>
<!-- rel_3&#45;&gt;unknown.lines -->
<g id="edge15" class="edge">
<title>rel_3&#45;&gt;unknown.lines</title>
<path fill="none" stroke="#d46a6a" stroke-width="1.5" d="M219.05,-83C242,-83 275,-83 300.25,-83"/>
<polygon fill="#d46a6a" stroke="#d46a6a" stroke-width="1.5" points="299.92,-85.8 307.92,-83 299.92,-80.2 299.92,-85.8"/>
</g>
<!-- rel_4&#45;&gt;unknown.overall_layout -->
<g id="edge17" class="edge">
<title>rel_4&#45;&gt;unknown.overall_layout</title>
<path fill="none" stroke="#d46a6a" stroke-width="1.5" d="M515.4,-213C535.32,-213 560.88,-213 582.78,-213"/>
<polygon fill="#d46a6a" stroke="#d46a6a" stroke-width="1.5" points="582.59,-215.8 590.59,-213 582.59,-210.2 582.59,-215.8"/>
</g>
</g>
</svg>
