<?xml version="1.0" encoding="UTF-8" standalone="no"?>
<!DOCTYPE svg PUBLIC "-//W3C//DTD SVG 1.1//EN"
 "http://www.w3.org/Graphics/SVG/1.1/DTD/svg11.dtd">
<!-- Generated by graphviz version 14.1.5 (20260411.2331)
 -->
<!-- Title: VASTC.51.6.png Pages: 1 -->
<svg width="790pt" height="342pt"
 viewBox="0.00 0.00 790.00 342.00" xmlns="http://www.w3.org/2000/svg" xmlns:xlink="http://www.w3.org/1999/xlink">
<g id="graph0" class="graph" transform="scale(1 1) rotate(0) translate(4 338.25)">
<title>VASTC.51.6.png</title>
<polygon fill="white" stroke="none" points="-4,4 -4,-338.25 785.5,-338.25 785.5,4 -4,4"/>
<text xml:space="preserve" text-anchor="start" x="339" y="-313.95" font-family="Arial" font-weight="bold" font-size="14.00">VASTC.51.6.png</text>
<text xml:space="preserve" text-anchor="start" x="349.88" y="-294" font-family="Arial" font-size="11.00">Bar &#160;| &#160;VC = 0.35</text>
<path fill="#b8e6b8" stroke="none" d="M181.38,-269C181.38,-269 189.38,-269 189.38,-269 192.38,-269 195.38,-272 195.38,-275 195.38,-275 195.38,-281 195.38,-281 195.38,-284 192.38,-287 189.38,-287 189.38,-287 181.38,-287 181.38,-287 178.38,-287 175.38,-284 175.38,-281 175.38,-281 175.38,-275 175.38,-275 175.38,-272 178.38,-269 181.38,-269"/>
<path fill="none" stroke="black" d="M181.38,-269C181.38,-269 189.38,-269 189.38,-269 192.38,-269 195.38,-272 195.38,-275 195.38,-275 195.38,-281 195.38,-281 195.38,-284 192.38,-287 189.38,-287 189.38,-287 181.38,-287 181.38,-287 178.38,-287 175.38,-284 175.38,-281 175.38,-281 175.38,-275 175.38,-275 175.38,-272 178.38,-269 181.38,-269"/>
<text xml:space="preserve" text-anchor="start" x="183.88" y="-274.25" font-family="Arial" font-size="10.00"> </text>
<text xml:space="preserve" text-anchor="start" x="199.38" y="-274.25" font-family="Arial" font-size="10.00">Object</text>
<path fill="#c7b8e6" stroke="none" d="M237.88,-269C237.88,-269 245.88,-269 245.88,-269 248.88,-269 251.88,-272 251.88,-275 251.88,-275 251.88,-281 251.88,-281 251.88,-284 248.88,-287 245.88,-287 245.88,-287 237.88,-287 237.88,-287 234.88,-287 231.88,-284 231.88,-281 231.88,-281 231.88,-275 231.88,-275 231.88,-272 234.88,-269 237.88,-269"/>
<path fill="none" stroke="black" d="M237.88,-269C237.88,-269 245.88,-269 245.88,-269 248.88,-269 251.88,-272 251.88,-275 251.88,-275 251.88,-281 251.88,-281 251.88,-284 248.88,-287 245.88,-287 245.88,-287 237.88,-287 237.88,-287 234.88,-287 231.88,-284 231.88,-281 231.88,-281 231.88,-275 231.88,-275 231.88,-272 234.88,-269 237.88,-269"/>
<text xml:space="preserve" text-anchor="start" x="240.38" y="-274.25" font-family="Arial" font-size="10.00"> </text>
<text xml:space="preserve" text-anchor="start" x="255.88" y="-274.25" font-family="Arial" font-size="10.00">Attribute</text>
<path fill="#f5b8b8" stroke="none" d="M302.62,-269C302.62,-269 310.62,-269 310.62,-269 313.62,-269 316.62,-272 316.62,-275 316.62,-275 316.62,-281 316.62,-281 316.62,-284 313.62,-287 310.62,-287 310.62,-287 302.62,-287 302.62,-287 299.62,-287 296.62,-284 296.62,-281 296.62,-281 296.62,-275 296.62,-275 296.62,-272 299.62,-269 302.62,-269"/>
<path fill="none" stroke="black" d="M302.62,-269C302.62,-269 310.62,-269 310.62,-269 313.62,-269 316.62,-272 316.62,-275 316.62,-275 316.62,-281 316.62,-281 316.62,-284 313.62,-287 310.62,-287 310.62,-287 302.62,-287 302.62,-287 299.62,-287 296.62,-284 296.62,-281 296.62,-281 296.62,-275 296.62,-275 296.62,-272 299.62,-269 302.62,-269"/>
<text xml:space="preserve" text-anchor="start" x="305.12" y="-274.25" font-family="Arial" font-size="10.00"> </text>
<text xml:space="preserve" text-anchor="start" x="320.62" y="-274.25" font-family="Arial" font-size="10.00">Relationship</text>
<text xml:space="preserve" text-anchor="start" x="380.62" y="-275.5" font-family="Arial" font-weight="bold" font-size="10.00">(+)</text>
<text xml:space="preserve" text-anchor="start" x="392.62" y="-275.5" font-family="Arial" font-size="10.00"> increases complexity</text>
<text xml:space="preserve" text-anchor="start" x="493.88" y="-275.5" font-family="Arial" font-weight="bold" font-size="10.00">(−)</text>
<text xml:space="preserve" text-anchor="start" x="505.88" y="-275.5" font-family="Arial" font-size="10.00"> decreases complexity</text>
<!-- mark.bar -->
<g id="node1" class="node">
<title>mark.bar</title>
<path fill="#b8e6b8" stroke="#2c3e50" stroke-width="1.8" d="M580,-101C580,-101 550,-101 550,-101 544,-101 538,-95 538,-89 538,-89 538,-77 538,-77 538,-71 544,-65 550,-65 550,-65 580,-65 580,-65 586,-65 592,-71 592,-77 592,-77 592,-89 592,-89 592,-95 586,-101 580,-101"/>
<text xml:space="preserve" text-anchor="middle" x="565" y="-79.5" font-family="Arial" font-size="10.00" fill="#1a1a1a">bar</text>
</g>
<!-- attr_0 -->
<g id="node6" class="node">
<title>attr_0</title>
<path fill="#c7b8e6" stroke="#7f8c8d" stroke-width="1.2" d="M769.5,-101C769.5,-101 647,-101 647,-101 641,-101 635,-95 635,-89 635,-89 635,-77 635,-77 635,-71 641,-65 647,-65 647,-65 769.5,-65 769.5,-65 775.5,-65 781.5,-71 781.5,-77 781.5,-77 781.5,-89 781.5,-89 781.5,-95 775.5,-101 769.5,-101"/>
<text xml:space="preserve" text-anchor="middle" x="708.25" y="-79.5" font-family="Arial" font-size="10.00" fill="#1a1a1a">(−) sparse information content</text>
</g>
<!-- mark.bar&#45;&gt;attr_0 -->
<g id="edge1" class="edge">
<title>mark.bar&#45;&gt;attr_0</title>
<path fill="none" stroke="#aaaaaa" d="M592.57,-83C602.37,-83 614.06,-83 626.17,-83"/>
<polygon fill="#aaaaaa" stroke="#aaaaaa" points="626.09,-85.45 633.09,-83 626.09,-80.55 626.09,-85.45"/>
</g>
<!-- property.color -->
<g id="node2" class="node">
<title>property.color</title>
<path fill="#b8e6b8" stroke="#2c3e50" stroke-width="1.8" d="M313.75,-198C313.75,-198 283.75,-198 283.75,-198 277.75,-198 271.75,-192 271.75,-186 271.75,-186 271.75,-174 271.75,-174 271.75,-168 277.75,-162 283.75,-162 283.75,-162 313.75,-162 313.75,-162 319.75,-162 325.75,-168 325.75,-174 325.75,-174 325.75,-186 325.75,-186 325.75,-192 319.75,-198 313.75,-198"/>
<text xml:space="preserve" text-anchor="middle" x="298.75" y="-176.5" font-family="Arial" font-size="10.00" fill="#1a1a1a">color</text>
</g>
<!-- attr_1 -->
<g id="node7" class="node">
<title>attr_1</title>
<path fill="#c7b8e6" stroke="#7f8c8d" stroke-width="1.2" d="M483,-231C483,-231 380.75,-231 380.75,-231 374.75,-231 368.75,-225 368.75,-219 368.75,-219 368.75,-207 368.75,-207 368.75,-201 374.75,-195 380.75,-195 380.75,-195 483,-195 483,-195 489,-195 495,-201 495,-207 495,-207 495,-219 495,-219 495,-225 489,-231 483,-231"/>
<text xml:space="preserve" text-anchor="middle" x="431.88" y="-209.5" font-family="Arial" font-size="10.00" fill="#1a1a1a">(+) unclear color meaning</text>
</g>
<!-- property.color&#45;&gt;attr_1 -->
<g id="edge2" class="edge">
<title>property.color&#45;&gt;attr_1</title>
<path fill="none" stroke="#aaaaaa" d="M326.6,-186.76C336.56,-189.26 348.37,-192.24 360.41,-195.27"/>
<polygon fill="#aaaaaa" stroke="#aaaaaa" points="359.48,-197.56 366.86,-196.89 360.67,-192.81 359.48,-197.56"/>
</g>
<!-- rel_0 -->
<g id="node11" class="node">
<title>rel_0</title>
<path fill="#f5b8b8" stroke="#d46a6a" stroke-width="1.2" d="M466.5,-166C466.5,-166 397.25,-166 397.25,-166 391.25,-166 385.25,-160 385.25,-154 385.25,-154 385.25,-142 385.25,-142 385.25,-136 391.25,-130 397.25,-130 397.25,-130 466.5,-130 466.5,-130 472.5,-130 478.5,-136 478.5,-142 478.5,-142 478.5,-154 478.5,-154 478.5,-160 472.5,-166 466.5,-166"/>
<text xml:space="preserve" text-anchor="middle" x="431.88" y="-144.5" font-family="Arial" font-size="10.00" fill="#8b0000">lacks meaning for</text>
</g>
<!-- property.color&#45;&gt;rel_0 -->
<g id="edge6" class="edge">
<title>property.color&#45;&gt;rel_0</title>
<path fill="none" stroke="#d46a6a" stroke-width="1.5" d="M326.6,-173.45C340.57,-170.04 358.19,-165.74 374.95,-161.65"/>
<polygon fill="#d46a6a" stroke="#d46a6a" stroke-width="1.5" points="375.37,-164.43 382.48,-159.81 374.04,-158.99 375.37,-164.43"/>
</g>
<!-- text.axis_label -->
<g id="node3" class="node">
<title>text.axis_label</title>
<path fill="#b8e6b8" stroke="#2c3e50" stroke-width="1.8" d="M45.25,-85C45.25,-85 12,-85 12,-85 6,-85 0,-79 0,-73 0,-73 0,-61 0,-61 0,-55 6,-49 12,-49 12,-49 45.25,-49 45.25,-49 51.25,-49 57.25,-55 57.25,-61 57.25,-61 57.25,-73 57.25,-73 57.25,-79 51.25,-85 45.25,-85"/>
<text xml:space="preserve" text-anchor="middle" x="28.62" y="-63.5" font-family="Arial" font-size="10.00" fill="#1a1a1a">axis label</text>
</g>
<!-- attr_2 -->
<g id="node8" class="node">
<title>attr_2</title>
<path fill="#c7b8e6" stroke="#7f8c8d" stroke-width="1.2" d="M216.75,-117C216.75,-117 112.25,-117 112.25,-117 106.25,-117 100.25,-111 100.25,-105 100.25,-105 100.25,-93 100.25,-93 100.25,-87 106.25,-81 112.25,-81 112.25,-81 216.75,-81 216.75,-81 222.75,-81 228.75,-87 228.75,-93 228.75,-93 228.75,-105 228.75,-105 228.75,-111 222.75,-117 216.75,-117"/>
<text xml:space="preserve" text-anchor="middle" x="164.5" y="-95.5" font-family="Arial" font-size="10.00" fill="#1a1a1a">(+) missing context labels</text>
</g>
<!-- text.axis_label&#45;&gt;attr_2 -->
<g id="edge3" class="edge">
<title>text.axis_label&#45;&gt;attr_2</title>
<path fill="none" stroke="#aaaaaa" d="M58.02,-73.79C67.99,-76.17 79.71,-78.97 91.63,-81.82"/>
<polygon fill="#aaaaaa" stroke="#aaaaaa" points="91.05,-84.2 98.42,-83.44 92.18,-79.43 91.05,-84.2"/>
</g>
<!-- rel_1 -->
<g id="node12" class="node">
<title>rel_1</title>
<path fill="#f5b8b8" stroke="#d46a6a" stroke-width="1.2" d="M205.5,-52C205.5,-52 123.5,-52 123.5,-52 117.5,-52 111.5,-46 111.5,-40 111.5,-40 111.5,-28 111.5,-28 111.5,-22 117.5,-16 123.5,-16 123.5,-16 205.5,-16 205.5,-16 211.5,-16 217.5,-22 217.5,-28 217.5,-28 217.5,-40 217.5,-40 217.5,-46 211.5,-52 205.5,-52"/>
<text xml:space="preserve" text-anchor="middle" x="164.5" y="-30.5" font-family="Arial" font-size="10.00" fill="#8b0000">fails to contextualize</text>
</g>
<!-- text.axis_label&#45;&gt;rel_1 -->
<g id="edge8" class="edge">
<title>text.axis_label&#45;&gt;rel_1</title>
<path fill="none" stroke="#d46a6a" stroke-width="1.5" d="M58.02,-60C70.67,-56.88 86.12,-53.08 101.24,-49.35"/>
<polygon fill="#d46a6a" stroke="#d46a6a" stroke-width="1.5" points="101.8,-52.09 108.89,-47.46 100.46,-46.66 101.8,-52.09"/>
</g>
<!-- furniture.legend -->
<g id="node4" class="node">
<title>furniture.legend</title>
<path fill="#b8e6b8" stroke="#2c3e50" stroke-width="1.8" d="M43.62,-230C43.62,-230 13.62,-230 13.62,-230 7.62,-230 1.62,-224 1.62,-218 1.62,-218 1.62,-206 1.62,-206 1.62,-200 7.62,-194 13.62,-194 13.62,-194 43.62,-194 43.62,-194 49.62,-194 55.62,-200 55.62,-206 55.62,-206 55.62,-218 55.62,-218 55.62,-224 49.62,-230 43.62,-230"/>
<text xml:space="preserve" text-anchor="middle" x="28.62" y="-208.5" font-family="Arial" font-size="10.00" fill="#1a1a1a">legend</text>
</g>
<!-- attr_3 -->
<g id="node9" class="node">
<title>attr_3</title>
<path fill="#c7b8e6" stroke="#7f8c8d" stroke-width="1.2" d="M213,-263C213,-263 116,-263 116,-263 110,-263 104,-257 104,-251 104,-251 104,-239 104,-239 104,-233 110,-227 116,-227 116,-227 213,-227 213,-227 219,-227 225,-233 225,-239 225,-239 225,-251 225,-251 225,-257 219,-263 213,-263"/>
<text xml:space="preserve" text-anchor="middle" x="164.5" y="-241.5" font-family="Arial" font-size="10.00" fill="#1a1a1a">(+) absent or insufficient</text>
</g>
<!-- furniture.legend&#45;&gt;attr_3 -->
<g id="edge4" class="edge">
<title>furniture.legend&#45;&gt;attr_3</title>
<path fill="none" stroke="#aaaaaa" d="M56.39,-218.6C67.75,-221.4 81.55,-224.8 95.42,-228.22"/>
<polygon fill="#aaaaaa" stroke="#aaaaaa" points="94.72,-230.57 102.1,-229.86 95.89,-225.81 94.72,-230.57"/>
</g>
<!-- rel_3 -->
<g id="node14" class="node">
<title>rel_3</title>
<path fill="#f5b8b8" stroke="#d46a6a" stroke-width="1.2" d="M192,-198C192,-198 137,-198 137,-198 131,-198 125,-192 125,-186 125,-186 125,-174 125,-174 125,-168 131,-162 137,-162 137,-162 192,-162 192,-162 198,-162 204,-168 204,-174 204,-174 204,-186 204,-186 204,-192 198,-198 192,-198"/>
<text xml:space="preserve" text-anchor="middle" x="164.5" y="-176.5" font-family="Arial" font-size="10.00" fill="#8b0000">fails to explain</text>
</g>
<!-- furniture.legend&#45;&gt;rel_3 -->
<g id="edge12" class="edge">
<title>furniture.legend&#45;&gt;rel_3</title>
<path fill="none" stroke="#d46a6a" stroke-width="1.5" d="M56.39,-205.6C73.11,-201.61 95.12,-196.35 114.84,-191.63"/>
<polygon fill="#d46a6a" stroke="#d46a6a" stroke-width="1.5" points="115.26,-194.41 122.39,-189.83 113.96,-188.96 115.26,-194.41"/>
</g>
<!-- unknown.numbers -->
<g id="node5" class="node">
<title>unknown.numbers</title>
<path fill="#b8e6b8" stroke="#2c3e50" stroke-width="1.8" d="M313.75,-52C313.75,-52 283.75,-52 283.75,-52 277.75,-52 271.75,-46 271.75,-40 271.75,-40 271.75,-28 271.75,-28 271.75,-22 277.75,-16 283.75,-16 283.75,-16 313.75,-16 313.75,-16 319.75,-16 325.75,-22 325.75,-28 325.75,-28 325.75,-40 325.75,-40 325.75,-46 319.75,-52 313.75,-52"/>
<text xml:space="preserve" text-anchor="middle" x="298.75" y="-30.5" font-family="Arial" font-size="10.00" fill="#1a1a1a">numbers</text>
</g>
<!-- attr_4 -->
<g id="node10" class="node">
<title>attr_4</title>
<path fill="#c7b8e6" stroke="#7f8c8d" stroke-width="1.2" d="M483,-101C483,-101 380.75,-101 380.75,-101 374.75,-101 368.75,-95 368.75,-89 368.75,-89 368.75,-77 368.75,-77 368.75,-71 374.75,-65 380.75,-65 380.75,-65 483,-65 483,-65 489,-65 495,-71 495,-77 495,-77 495,-89 495,-89 495,-95 489,-101 483,-101"/>
<text xml:space="preserve" text-anchor="middle" x="431.88" y="-79.5" font-family="Arial" font-size="10.00" fill="#1a1a1a">(+) uninterpretable values</text>
</g>
<!-- unknown.numbers&#45;&gt;attr_4 -->
<g id="edge5" class="edge">
<title>unknown.numbers&#45;&gt;attr_4</title>
<path fill="none" stroke="#aaaaaa" d="M326.6,-44.03C340.12,-49.09 357.07,-55.42 373.34,-61.5"/>
<polygon fill="#aaaaaa" stroke="#aaaaaa" points="372.43,-63.77 379.84,-63.93 374.14,-59.18 372.43,-63.77"/>
</g>
<!-- rel_2 -->
<g id="node13" class="node">
<title>rel_2</title>
<path fill="#f5b8b8" stroke="#d46a6a" stroke-width="1.2" d="M447.75,-36C447.75,-36 416,-36 416,-36 410,-36 404,-30 404,-24 404,-24 404,-12 404,-12 404,-6 410,0 416,0 416,0 447.75,0 447.75,0 453.75,0 459.75,-6 459.75,-12 459.75,-12 459.75,-24 459.75,-24 459.75,-30 453.75,-36 447.75,-36"/>
<text xml:space="preserve" text-anchor="middle" x="431.88" y="-14.5" font-family="Arial" font-size="10.00" fill="#8b0000">obscures</text>
</g>
<!-- unknown.numbers&#45;&gt;rel_2 -->
<g id="edge10" class="edge">
<title>unknown.numbers&#45;&gt;rel_2</title>
<path fill="none" stroke="#d46a6a" stroke-width="1.5" d="M326.6,-30.72C345.92,-28.37 372.22,-25.16 393.58,-22.55"/>
<polygon fill="#d46a6a" stroke="#d46a6a" stroke-width="1.5" points="393.75,-25.35 401.36,-21.6 393.07,-19.79 393.75,-25.35"/>
</g>
<!-- rel_0&#45;&gt;mark.bar -->
<g id="edge7" class="edge">
<title>rel_0&#45;&gt;mark.bar</title>
<path fill="none" stroke="#d46a6a" stroke-width="1.5" d="M470.1,-129.55C488.28,-120.53 510.06,-109.74 528.07,-100.81"/>
<polygon fill="#d46a6a" stroke="#d46a6a" stroke-width="1.5" points="529.15,-103.4 535.07,-97.34 526.66,-98.39 529.15,-103.4"/>
</g>
<!-- rel_1&#45;&gt;unknown.numbers -->
<g id="edge9" class="edge">
<title>rel_1&#45;&gt;unknown.numbers</title>
<path fill="none" stroke="#d46a6a" stroke-width="1.5" d="M217.77,-34C232.13,-34 247.39,-34 260.7,-34"/>
<polygon fill="#d46a6a" stroke="#d46a6a" stroke-width="1.5" points="260.63,-36.8 268.63,-34 260.63,-31.2 260.63,-36.8"/>
</g>
<!-- rel_2&#45;&gt;mark.bar -->
<g id="edge11" class="edge">
<title>rel_2&#45;&gt;mark.bar</title>
<path fill="none" stroke="#d46a6a" stroke-width="1.5" d="M460.04,-31.47C479.78,-41.25 506.68,-54.58 528.17,-65.24"/>
<polygon fill="#d46a6a" stroke="#d46a6a" stroke-width="1.5" points="526.87,-67.72 535.28,-68.76 529.36,-62.7 526.87,-67.72"/>
</g>
<!-- rel_3&#45;&gt;property.color -->
<g id="edge13" class="edge">
<title>rel_3&#45;&gt;property.color</title>
<path fill="none" stroke="#d46a6a" stroke-width="1.5" d="M204.46,-180C222.43,-180 243.62,-180 261.27,-180"/>
<polygon fill="#d46a6a" stroke="#d46a6a" stroke-width="1.5" points="260.93,-182.8 268.93,-180 260.93,-177.2 260.93,-182.8"/>
</g>
</g>
</svg>
