<?xml version="1.0" encoding="UTF-8" standalone="no"?>
<!DOCTYPE svg PUBLIC "-//W3C//DTD SVG 1.1//EN"
 "http://www.w3.org/Graphics/SVG/1.1/DTD/svg11.dtd">
<!-- Generated by graphviz version 14.1.5 (20260411.2331)
 -->
<!-- Title: VASTJ.1139.4.png Pages: 1 -->
<svg width="1402pt" height="310pt"
 viewBox="0.00 0.00 1402.00 310.00" xmlns="http://www.w3.org/2000/svg" xmlns:xlink="http://www.w3.org/1999/xlink">
<g id="graph0" class="graph" transform="scale(1 1) rotate(0) translate(4 306.25)">
<title>VASTJ.1139.4.png</title>
<polygon fill="white" stroke="none" points="-4,4 -4,-306.25 1398,-306.25 1398,4 -4,4"/>
<text xml:space="preserve" text-anchor="start" x="639.25" y="-281.95" font-family="Arial" font-weight="bold" font-size="14.00">VASTJ.1139.4.png</text>
<text xml:space="preserve" text-anchor="start" x="654.62" y="-262" font-family="Arial" font-size="11.00">Grid &#160;| &#160;VC = 0.62</text>
<path fill="#b8e6b8" stroke="none" d="M487.62,-237C487.62,-237 495.62,-237 495.62,-237 498.62,-237 501.62,-240 501.62,-243 501.62,-243 501.62,-249 501.62,-249 501.62,-252 498.62,-255 495.62,-255 495.62,-255 487.62,-255 487.62,-255 484.62,-255 481.62,-252 481.62,-249 481.62,-249 481.62,-243 481.62,-243 481.62,-240 484.62,-237 487.62,-237"/>
<path fill="none" stroke="black" d="M487.62,-237C487.62,-237 495.62,-237 495.62,-237 498.62,-237 501.62,-240 501.62,-243 501.62,-243 501.62,-249 501.62,-249 501.62,-252 498.62,-255 495.62,-255 495.62,-255 487.62,-255 487.62,-255 484.62,-255 481.62,-252 481.62,-249 481.62,-249 481.62,-243 481.62,-243 481.62,-240 484.62,-237 487.62,-237"/>
<text xml:space="preserve" text-anchor="start" x="490.12" y="-242.25" font-family="Arial" font-size="10.00"> </text>
<text xml:space="preserve" text-anchor="start" x="505.62" y="-242.25" font-family="Arial" font-size="10.00">Object</text>
<path fill="#c7b8e6" stroke="none" d="M544.12,-237C544.12,-237 552.12,-237 552.12,-237 555.12,-237 558.12,-240 558.12,-243 558.12,-243 558.12,-249 558.12,-249 558.12,-252 555.12,-255 552.12,-255 552.12,-255 544.12,-255 544.12,-255 541.12,-255 538.12,-252 538.12,-249 538.12,-249 538.12,-243 538.12,-243 538.12,-240 541.12,-237 544.12,-237"/>
<path fill="none" stroke="black" d="M544.12,-237C544.12,-237 552.12,-237 552.12,-237 555.12,-237 558.12,-240 558.12,-243 558.12,-243 558.12,-249 558.12,-249 558.12,-252 555.12,-255 552.12,-255 552.12,-255 544.12,-255 544.12,-255 541.12,-255 538.12,-252 538.12,-249 538.12,-249 538.12,-243 538.12,-243 538.12,-240 541.12,-237 544.12,-237"/>
<text xml:space="preserve" text-anchor="start" x="546.62" y="-242.25" font-family="Arial" font-size="10.00"> </text>
<text xml:space="preserve" text-anchor="start" x="562.12" y="-242.25" font-family="Arial" font-size="10.00">Attribute</text>
<path fill="#f5b8b8" stroke="none" d="M608.88,-237C608.88,-237 616.88,-237 616.88,-237 619.88,-237 622.88,-240 622.88,-243 622.88,-243 622.88,-249 622.88,-249 622.88,-252 619.88,-255 616.88,-255 616.88,-255 608.88,-255 608.88,-255 605.88,-255 602.88,-252 602.88,-249 602.88,-249 602.88,-243 602.88,-243 602.88,-240 605.88,-237 608.88,-237"/>
<path fill="none" stroke="black" d="M608.88,-237C608.88,-237 616.88,-237 616.88,-237 619.88,-237 622.88,-240 622.88,-243 622.88,-243 622.88,-249 622.88,-249 622.88,-252 619.88,-255 616.88,-255 616.88,-255 608.88,-255 608.88,-255 605.88,-255 602.88,-252 602.88,-249 602.88,-249 602.88,-243 602.88,-243 602.88,-240 605.88,-237 608.88,-237"/>
<text xml:space="preserve" text-anchor="start" x="611.38" y="-242.25" font-family="Arial" font-size="10.00"> </text>
<text xml:space="preserve" text-anchor="start" x="626.88" y="-242.25" font-family="Arial" font-size="10.00">Relationship</text>
<text xml:space="preserve" text-anchor="start" x="686.88" y="-243.5" font-family="Arial" font-weight="bold" font-size="10.00">(+)</text>
<text xml:space="preserve" text-anchor="start" x="698.88" y="-243.5" font-family="Arial" font-size="10.00"> increases complexity</text>
<text xml:space="preserve" text-anchor="start" x="800.12" y="-243.5" font-family="Arial" font-weight="bold" font-size="10.00">(−)</text>
<text xml:space="preserve" text-anchor="start" x="812.12" y="-243.5" font-family="Arial" font-size="10.00"> decreases complexity</text>
<!-- unknown.color_palette -->
<g id="node1" class="node">
<title>unknown.color_palette</title>
<path fill="#b8e6b8" stroke="#2c3e50" stroke-width="1.8" d="M57.25,-133C57.25,-133 12,-133 12,-133 6,-133 0,-127 0,-121 0,-121 0,-109 0,-109 0,-103 6,-97 12,-97 12,-97 57.25,-97 57.25,-97 63.25,-97 69.25,-103 69.25,-109 69.25,-109 69.25,-121 69.25,-121 69.25,-127 63.25,-133 57.25,-133"/>
<text xml:space="preserve" text-anchor="middle" x="34.62" y="-111.5" font-family="Arial" font-size="10.00" fill="#1a1a1a">color palette</text>
</g>
<!-- attr_0 -->
<g id="node6" class="node">
<title>attr_0</title>
<path fill="#c7b8e6" stroke="#7f8c8d" stroke-width="1.2" d="M211.12,-231C211.12,-231 129.88,-231 129.88,-231 123.88,-231 117.88,-225 117.88,-219 117.88,-219 117.88,-207 117.88,-207 117.88,-201 123.88,-195 129.88,-195 129.88,-195 211.12,-195 211.12,-195 217.12,-195 223.12,-201 223.12,-207 223.12,-207 223.12,-219 223.12,-219 223.12,-225 217.12,-231 211.12,-231"/>
<text xml:space="preserve" text-anchor="middle" x="170.5" y="-209.5" font-family="Arial" font-size="10.00" fill="#1a1a1a">(+) high color variety</text>
</g>
<!-- unknown.color_palette&#45;&gt;attr_0 -->
<g id="edge1" class="edge">
<title>unknown.color_palette&#45;&gt;attr_0</title>
<path fill="none" stroke="#aaaaaa" d="M55.21,-133.81C70.18,-147.7 91.68,-166.61 112.25,-181 116.76,-184.16 121.62,-187.26 126.52,-190.23"/>
<polygon fill="#aaaaaa" stroke="#aaaaaa" points="125.12,-192.25 132.4,-193.68 127.6,-188.02 125.12,-192.25"/>
</g>
<!-- attr_1 -->
<g id="node7" class="node">
<title>attr_1</title>
<path fill="#c7b8e6" stroke="#7f8c8d" stroke-width="1.2" d="M216.75,-166C216.75,-166 124.25,-166 124.25,-166 118.25,-166 112.25,-160 112.25,-154 112.25,-154 112.25,-142 112.25,-142 112.25,-136 118.25,-130 124.25,-130 124.25,-130 216.75,-130 216.75,-130 222.75,-130 228.75,-136 228.75,-142 228.75,-142 228.75,-154 228.75,-154 228.75,-160 222.75,-166 216.75,-166"/>
<text xml:space="preserve" text-anchor="middle" x="170.5" y="-144.5" font-family="Arial" font-size="10.00" fill="#1a1a1a">(+) high contrast colors</text>
</g>
<!-- unknown.color_palette&#45;&gt;attr_1 -->
<g id="edge2" class="edge">
<title>unknown.color_palette&#45;&gt;attr_1</title>
<path fill="none" stroke="#aaaaaa" d="M70.1,-123.5C80.42,-126.04 92.11,-128.92 103.74,-131.79"/>
<polygon fill="#aaaaaa" stroke="#aaaaaa" points="102.92,-134.11 110.3,-133.41 104.09,-129.35 102.92,-134.11"/>
</g>
<!-- rel_0 -->
<g id="node12" class="node">
<title>rel_0</title>
<path fill="#f5b8b8" stroke="#d46a6a" stroke-width="1.2" d="M207.75,-101C207.75,-101 133.25,-101 133.25,-101 127.25,-101 121.25,-95 121.25,-89 121.25,-89 121.25,-77 121.25,-77 121.25,-71 127.25,-65 133.25,-65 133.25,-65 207.75,-65 207.75,-65 213.75,-65 219.75,-71 219.75,-77 219.75,-77 219.75,-89 219.75,-89 219.75,-95 213.75,-101 207.75,-101"/>
<text xml:space="preserve" text-anchor="middle" x="170.5" y="-79.5" font-family="Arial" font-size="10.00" fill="#8b0000">increases clutter in</text>
</g>
<!-- unknown.color_palette&#45;&gt;rel_0 -->
<g id="edge7" class="edge">
<title>unknown.color_palette&#45;&gt;rel_0</title>
<path fill="none" stroke="#d46a6a" stroke-width="1.5" d="M70.1,-106.76C82.63,-103.77 97.16,-100.29 111.17,-96.94"/>
<polygon fill="#d46a6a" stroke="#d46a6a" stroke-width="1.5" points="111.42,-99.76 118.55,-95.18 110.12,-94.31 111.42,-99.76"/>
</g>
<!-- rel_1 -->
<g id="node13" class="node">
<title>rel_1</title>
<path fill="#f5b8b8" stroke="#d46a6a" stroke-width="1.2" d="M335,-37C335,-37 283.75,-37 283.75,-37 277.75,-37 271.75,-31 271.75,-25 271.75,-25 271.75,-13 271.75,-13 271.75,-7 277.75,-1 283.75,-1 283.75,-1 335,-1 335,-1 341,-1 347,-7 347,-13 347,-13 347,-25 347,-25 347,-31 341,-37 335,-37"/>
<text xml:space="preserve" text-anchor="middle" x="309.38" y="-15.5" font-family="Arial" font-size="10.00" fill="#8b0000">contributes to</text>
</g>
<!-- unknown.color_palette&#45;&gt;rel_1 -->
<g id="edge9" class="edge">
<title>unknown.color_palette&#45;&gt;rel_1</title>
<path fill="none" stroke="#d46a6a" stroke-width="1.5" d="M52.57,-96.13C66.95,-81.39 88.92,-61.67 112.25,-51 159.98,-29.18 220.23,-21.99 261.27,-19.75"/>
<polygon fill="#d46a6a" stroke="#d46a6a" stroke-width="1.5" points="261.14,-22.56 269,-19.39 260.88,-16.97 261.14,-22.56"/>
</g>
<!-- unknown.grid_cells -->
<g id="node2" class="node">
<title>unknown.grid_cells</title>
<path fill="#b8e6b8" stroke="#2c3e50" stroke-width="1.8" d="M324.88,-102C324.88,-102 293.88,-102 293.88,-102 287.88,-102 281.88,-96 281.88,-90 281.88,-90 281.88,-78 281.88,-78 281.88,-72 287.88,-66 293.88,-66 293.88,-66 324.88,-66 324.88,-66 330.88,-66 336.88,-72 336.88,-78 336.88,-78 336.88,-90 336.88,-90 336.88,-96 330.88,-102 324.88,-102"/>
<text xml:space="preserve" text-anchor="middle" x="309.38" y="-80.5" font-family="Arial" font-size="10.00" fill="#1a1a1a">grid cells</text>
</g>
<!-- attr_2 -->
<g id="node8" class="node">
<title>attr_2</title>
<path fill="#c7b8e6" stroke="#7f8c8d" stroke-width="1.2" d="M507.25,-165C507.25,-165 402,-165 402,-165 396,-165 390,-159 390,-153 390,-153 390,-141 390,-141 390,-135 396,-129 402,-129 402,-129 507.25,-129 507.25,-129 513.25,-129 519.25,-135 519.25,-141 519.25,-141 519.25,-153 519.25,-153 519.25,-159 513.25,-165 507.25,-165"/>
<text xml:space="preserve" text-anchor="middle" x="454.62" y="-143.5" font-family="Arial" font-size="10.00" fill="#1a1a1a">(+) dense mixed elements</text>
</g>
<!-- unknown.grid_cells&#45;&gt;attr_2 -->
<g id="edge3" class="edge">
<title>unknown.grid_cells&#45;&gt;attr_2</title>
<path fill="none" stroke="#aaaaaa" d="M337.66,-96C356.32,-104.21 381.6,-115.33 403.8,-125.09"/>
<polygon fill="#aaaaaa" stroke="#aaaaaa" points="402.73,-127.29 410.12,-127.87 404.7,-122.81 402.73,-127.29"/>
</g>
<!-- rel_3 -->
<g id="node15" class="node">
<title>rel_3</title>
<path fill="#f5b8b8" stroke="#d46a6a" stroke-width="1.2" d="M469.62,-100C469.62,-100 439.62,-100 439.62,-100 433.62,-100 427.62,-94 427.62,-88 427.62,-88 427.62,-76 427.62,-76 427.62,-70 433.62,-64 439.62,-64 439.62,-64 469.62,-64 469.62,-64 475.62,-64 481.62,-70 481.62,-76 481.62,-76 481.62,-88 481.62,-88 481.62,-94 475.62,-100 469.62,-100"/>
<text xml:space="preserve" text-anchor="middle" x="454.62" y="-78.5" font-family="Arial" font-size="10.00" fill="#8b0000">creates</text>
</g>
<!-- unknown.grid_cells&#45;&gt;rel_3 -->
<g id="edge13" class="edge">
<title>unknown.grid_cells&#45;&gt;rel_3</title>
<path fill="none" stroke="#d46a6a" stroke-width="1.5" d="M337.66,-83.62C360.24,-83.3 392.53,-82.85 417.31,-82.51"/>
<polygon fill="#d46a6a" stroke="#d46a6a" stroke-width="1.5" points="417.18,-85.31 425.14,-82.4 417.1,-79.71 417.18,-85.31"/>
</g>
<!-- structure.layout -->
<g id="node3" class="node">
<title>structure.layout</title>
<path fill="#b8e6b8" stroke="#2c3e50" stroke-width="1.8" d="M887,-68C887,-68 857,-68 857,-68 851,-68 845,-62 845,-56 845,-56 845,-44 845,-44 845,-38 851,-32 857,-32 857,-32 887,-32 887,-32 893,-32 899,-38 899,-44 899,-44 899,-56 899,-56 899,-62 893,-68 887,-68"/>
<text xml:space="preserve" text-anchor="middle" x="872" y="-46.5" font-family="Arial" font-size="10.00" fill="#1a1a1a">layout</text>
</g>
<!-- attr_3 -->
<g id="node9" class="node">
<title>attr_3</title>
<path fill="#c7b8e6" stroke="#7f8c8d" stroke-width="1.2" d="M1101.25,-101C1101.25,-101 954,-101 954,-101 948,-101 942,-95 942,-89 942,-89 942,-77 942,-77 942,-71 948,-65 954,-65 954,-65 1101.25,-65 1101.25,-65 1107.25,-65 1113.25,-71 1113.25,-77 1113.25,-77 1113.25,-89 1113.25,-89 1113.25,-95 1107.25,-101 1101.25,-101"/>
<text xml:space="preserve" text-anchor="middle" x="1027.62" y="-79.5" font-family="Arial" font-size="10.00" fill="#1a1a1a">(+) messy disorganized appearance</text>
</g>
<!-- structure.layout&#45;&gt;attr_3 -->
<g id="edge4" class="edge">
<title>structure.layout&#45;&gt;attr_3</title>
<path fill="none" stroke="#aaaaaa" d="M899.76,-55.75C909.49,-57.84 921.12,-60.34 933.33,-62.96"/>
<polygon fill="#aaaaaa" stroke="#aaaaaa" points="932.59,-65.31 939.95,-64.38 933.62,-60.52 932.59,-65.31"/>
</g>
<!-- rel_2 -->
<g id="node14" class="node">
<title>rel_2</title>
<path fill="#f5b8b8" stroke="#d46a6a" stroke-width="1.2" d="M1062.25,-36C1062.25,-36 993,-36 993,-36 987,-36 981,-30 981,-24 981,-24 981,-12 981,-12 981,-6 987,0 993,0 993,0 1062.25,0 1062.25,0 1068.25,0 1074.25,-6 1074.25,-12 1074.25,-12 1074.25,-24 1074.25,-24 1074.25,-30 1068.25,-36 1062.25,-36"/>
<text xml:space="preserve" text-anchor="middle" x="1027.62" y="-14.5" font-family="Arial" font-size="10.00" fill="#8b0000">reduces appeal of</text>
</g>
<!-- structure.layout&#45;&gt;rel_2 -->
<g id="edge11" class="edge">
<title>structure.layout&#45;&gt;rel_2</title>
<path fill="none" stroke="#d46a6a" stroke-width="1.5" d="M899.76,-44.43C919.33,-40.35 946.57,-34.67 970.8,-29.63"/>
<polygon fill="#d46a6a" stroke="#d46a6a" stroke-width="1.5" points="971.13,-32.42 978.39,-28.05 969.99,-26.94 971.13,-32.42"/>
</g>
<!-- unknown.background -->
<g id="node4" class="node">
<title>unknown.background</title>
<path fill="#b8e6b8" stroke="#2c3e50" stroke-width="1.8" d="M1210.5,-36C1210.5,-36 1168.25,-36 1168.25,-36 1162.25,-36 1156.25,-30 1156.25,-24 1156.25,-24 1156.25,-12 1156.25,-12 1156.25,-6 1162.25,0 1168.25,0 1168.25,0 1210.5,0 1210.5,0 1216.5,0 1222.5,-6 1222.5,-12 1222.5,-12 1222.5,-24 1222.5,-24 1222.5,-30 1216.5,-36 1210.5,-36"/>
<text xml:space="preserve" text-anchor="middle" x="1189.38" y="-14.5" font-family="Arial" font-size="10.00" fill="#1a1a1a">background</text>
</g>
<!-- attr_4 -->
<g id="node10" class="node">
<title>attr_4</title>
<path fill="#c7b8e6" stroke="#7f8c8d" stroke-width="1.2" d="M1382,-36C1382,-36 1277.5,-36 1277.5,-36 1271.5,-36 1265.5,-30 1265.5,-24 1265.5,-24 1265.5,-12 1265.5,-12 1265.5,-6 1271.5,0 1277.5,0 1277.5,0 1382,0 1382,0 1388,0 1394,-6 1394,-12 1394,-12 1394,-24 1394,-24 1394,-30 1388,-36 1382,-36"/>
<text xml:space="preserve" text-anchor="middle" x="1329.75" y="-14.5" font-family="Arial" font-size="10.00" fill="#1a1a1a">(+) less visually attractive</text>
</g>
<!-- unknown.background&#45;&gt;attr_4 -->
<g id="edge5" class="edge">
<title>unknown.background&#45;&gt;attr_4</title>
<path fill="none" stroke="#aaaaaa" d="M1223.17,-18C1233.26,-18 1244.81,-18 1256.47,-18"/>
<polygon fill="#aaaaaa" stroke="#aaaaaa" points="1256.45,-20.45 1263.45,-18 1256.45,-15.55 1256.45,-20.45"/>
</g>
<!-- structure.pattern -->
<g id="node5" class="node">
<title>structure.pattern</title>
<path fill="#b8e6b8" stroke="#2c3e50" stroke-width="1.8" d="M604.25,-100C604.25,-100 574.25,-100 574.25,-100 568.25,-100 562.25,-94 562.25,-88 562.25,-88 562.25,-76 562.25,-76 562.25,-70 568.25,-64 574.25,-64 574.25,-64 604.25,-64 604.25,-64 610.25,-64 616.25,-70 616.25,-76 616.25,-76 616.25,-88 616.25,-88 616.25,-94 610.25,-100 604.25,-100"/>
<text xml:space="preserve" text-anchor="middle" x="589.25" y="-78.5" font-family="Arial" font-size="10.00" fill="#1a1a1a">pattern</text>
</g>
<!-- attr_5 -->
<g id="node11" class="node">
<title>attr_5</title>
<path fill="#c7b8e6" stroke="#7f8c8d" stroke-width="1.2" d="M790,-164C790,-164 671.25,-164 671.25,-164 665.25,-164 659.25,-158 659.25,-152 659.25,-152 659.25,-140 659.25,-140 659.25,-134 665.25,-128 671.25,-128 671.25,-128 790,-128 790,-128 796,-128 802,-134 802,-140 802,-140 802,-152 802,-152 802,-158 796,-164 790,-164"/>
<text xml:space="preserve" text-anchor="middle" x="730.62" y="-142.5" font-family="Arial" font-size="10.00" fill="#1a1a1a">(+) intermingled noisy pattern</text>
</g>
<!-- structure.pattern&#45;&gt;attr_5 -->
<g id="edge6" class="edge">
<title>structure.pattern&#45;&gt;attr_5</title>
<path fill="none" stroke="#aaaaaa" d="M617.1,-94.51C629.86,-100.44 645.33,-107.61 659.25,-114 666.39,-117.28 673.93,-120.73 681.34,-124.1"/>
<polygon fill="#aaaaaa" stroke="#aaaaaa" points="679.9,-126.14 687.29,-126.81 681.93,-121.68 679.9,-126.14"/>
</g>
<!-- rel_4 -->
<g id="node16" class="node">
<title>rel_4</title>
<path fill="#f5b8b8" stroke="#d46a6a" stroke-width="1.2" d="M752.88,-99C752.88,-99 708.38,-99 708.38,-99 702.38,-99 696.38,-93 696.38,-87 696.38,-87 696.38,-75 696.38,-75 696.38,-69 702.38,-63 708.38,-63 708.38,-63 752.88,-63 752.88,-63 758.88,-63 764.88,-69 764.88,-75 764.88,-75 764.88,-87 764.88,-87 764.88,-93 758.88,-99 752.88,-99"/>
<text xml:space="preserve" text-anchor="middle" x="730.62" y="-77.5" font-family="Arial" font-size="10.00" fill="#8b0000">overwhelms</text>
</g>
<!-- structure.pattern&#45;&gt;rel_4 -->
<g id="edge15" class="edge">
<title>structure.pattern&#45;&gt;rel_4</title>
<path fill="none" stroke="#d46a6a" stroke-width="1.5" d="M617.12,-81.81C636.6,-81.67 663.37,-81.48 685.91,-81.31"/>
<polygon fill="#d46a6a" stroke="#d46a6a" stroke-width="1.5" points="685.68,-84.12 693.66,-81.26 685.64,-78.52 685.68,-84.12"/>
</g>
<!-- rel_0&#45;&gt;unknown.grid_cells -->
<g id="edge8" class="edge">
<title>rel_0&#45;&gt;unknown.grid_cells</title>
<path fill="none" stroke="#d46a6a" stroke-width="1.5" d="M220.14,-83.36C236.91,-83.48 255.41,-83.61 271.12,-83.73"/>
<polygon fill="#d46a6a" stroke="#d46a6a" stroke-width="1.5" points="270.71,-86.52 278.73,-83.78 270.75,-80.92 270.71,-86.52"/>
</g>
<!-- rel_1&#45;&gt;structure.layout -->
<g id="edge10" class="edge">
<title>rel_1&#45;&gt;structure.layout</title>
<path fill="none" stroke="#d46a6a" stroke-width="1.5" d="M347.59,-21.06C449.63,-26.7 732.95,-42.37 834.33,-47.97"/>
<polygon fill="#d46a6a" stroke="#d46a6a" stroke-width="1.5" points="833.99,-50.76 842.13,-48.4 834.3,-45.17 833.99,-50.76"/>
</g>
<!-- rel_2&#45;&gt;unknown.background -->
<g id="edge12" class="edge">
<title>rel_2&#45;&gt;unknown.background</title>
<path fill="none" stroke="#d46a6a" stroke-width="1.5" d="M1074.83,-18C1097.11,-18 1123.66,-18 1145.48,-18"/>
<polygon fill="#d46a6a" stroke="#d46a6a" stroke-width="1.5" points="1145.19,-20.8 1153.19,-18 1145.19,-15.2 1145.19,-20.8"/>
</g>
<!-- rel_3&#45;&gt;structure.pattern -->
<g id="edge14" class="edge">
<title>rel_3&#45;&gt;structure.pattern</title>
<path fill="none" stroke="#d46a6a" stroke-width="1.5" d="M482.14,-82C502.11,-82 529.72,-82 551.77,-82"/>
<polygon fill="#d46a6a" stroke="#d46a6a" stroke-width="1.5" points="551.51,-84.8 559.51,-82 551.51,-79.2 551.51,-84.8"/>
</g>
<!-- rel_4&#45;&gt;structure.layout -->
<g id="edge16" class="edge">
<title>rel_4&#45;&gt;structure.layout</title>
<path fill="none" stroke="#d46a6a" stroke-width="1.5" d="M765.36,-73.5C786.27,-68.85 813.13,-62.87 834.53,-58.11"/>
<polygon fill="#d46a6a" stroke="#d46a6a" stroke-width="1.5" points="835.13,-60.85 842.33,-56.38 833.91,-55.38 835.13,-60.85"/>
</g>
</g>
</svg>
