<?xml version="1.0" encoding="UTF-8" standalone="no"?>
<!DOCTYPE svg PUBLIC "-//W3C//DTD SVG 1.1//EN"
 "http://www.w3.org/Graphics/SVG/1.1/DTD/svg11.dtd">
<!-- Generated by graphviz version 14.1.5 (20260411.2331)
 -->
<!-- Title: VASTJ.1764.2.png Pages: 1 -->
<svg width="1076pt" height="342pt"
 viewBox="0.00 0.00 1076.00 342.00" xmlns="http://www.w3.org/2000/svg" xmlns:xlink="http://www.w3.org/1999/xlink">
<g id="graph0" class="graph" transform="scale(1 1) rotate(0) translate(4 338.25)">
<title>VASTJ.1764.2.png</title>
<polygon fill="white" stroke="none" points="-4,4 -4,-338.25 1071.5,-338.25 1071.5,4 -4,4"/>
<text xml:space="preserve" text-anchor="start" x="475.62" y="-313.95" font-family="Arial" font-weight="bold" font-size="14.00">VASTJ.1764.2.png</text>
<text xml:space="preserve" text-anchor="start" x="491.38" y="-294" font-family="Arial" font-size="11.00">Grid &#160;| &#160;VC = 0.61</text>
<path fill="#b8e6b8" stroke="none" d="M324.38,-269C324.38,-269 332.38,-269 332.38,-269 335.38,-269 338.38,-272 338.38,-275 338.38,-275 338.38,-281 338.38,-281 338.38,-284 335.38,-287 332.38,-287 332.38,-287 324.38,-287 324.38,-287 321.38,-287 318.38,-284 318.38,-281 318.38,-281 318.38,-275 318.38,-275 318.38,-272 321.38,-269 324.38,-269"/>
<path fill="none" stroke="black" d="M324.38,-269C324.38,-269 332.38,-269 332.38,-269 335.38,-269 338.38,-272 338.38,-275 338.38,-275 338.38,-281 338.38,-281 338.38,-284 335.38,-287 332.38,-287 332.38,-287 324.38,-287 324.38,-287 321.38,-287 318.38,-284 318.38,-281 318.38,-281 318.38,-275 318.38,-275 318.38,-272 321.38,-269 324.38,-269"/>
<text xml:space="preserve" text-anchor="start" x="326.88" y="-274.25" font-family="Arial" font-size="10.00"> </text>
<text xml:space="preserve" text-anchor="start" x="342.38" y="-274.25" font-family="Arial" font-size="10.00">Object</text>
<path fill="#c7b8e6" stroke="none" d="M380.88,-269C380.88,-269 388.88,-269 388.88,-269 391.88,-269 394.88,-272 394.88,-275 394.88,-275 394.88,-281 394.88,-281 394.88,-284 391.88,-287 388.88,-287 388.88,-287 380.88,-287 380.88,-287 377.88,-287 374.88,-284 374.88,-281 374.88,-281 374.88,-275 374.88,-275 374.88,-272 377.88,-269 380.88,-269"/>
<path fill="none" stroke="black" d="M380.88,-269C380.88,-269 388.88,-269 388.88,-269 391.88,-269 394.88,-272 394.88,-275 394.88,-275 394.88,-281 394.88,-281 394.88,-284 391.88,-287 388.88,-287 388.88,-287 380.88,-287 380.88,-287 377.88,-287 374.88,-284 374.88,-281 374.88,-281 374.88,-275 374.88,-275 374.88,-272 377.88,-269 380.88,-269"/>
<text xml:space="preserve" text-anchor="start" x="383.38" y="-274.25" font-family="Arial" font-size="10.00"> </text>
<text xml:space="preserve" text-anchor="start" x="398.88" y="-274.25" font-family="Arial" font-size="10.00">Attribute</text>
<path fill="#f5b8b8" stroke="none" d="M445.62,-269C445.62,-269 453.62,-269 453.62,-269 456.62,-269 459.62,-272 459.62,-275 459.62,-275 459.62,-281 459.62,-281 459.62,-284 456.62,-287 453.62,-287 453.62,-287 445.62,-287 445.62,-287 442.62,-287 439.62,-284 439.62,-281 439.62,-281 439.62,-275 439.62,-275 439.62,-272 442.62,-269 445.62,-269"/>
<path fill="none" stroke="black" d="M445.62,-269C445.62,-269 453.62,-269 453.62,-269 456.62,-269 459.62,-272 459.62,-275 459.62,-275 459.62,-281 459.62,-281 459.62,-284 456.62,-287 453.62,-287 453.62,-287 445.62,-287 445.62,-287 442.62,-287 439.62,-284 439.62,-281 439.62,-281 439.62,-275 439.62,-275 439.62,-272 442.62,-269 445.62,-269"/>
<text xml:space="preserve" text-anchor="start" x="448.12" y="-274.25" font-family="Arial" font-size="10.00"> </text>
<text xml:space="preserve" text-anchor="start" x="463.62" y="-274.25" font-family="Arial" font-size="10.00">Relationship</text>
<text xml:space="preserve" text-anchor="start" x="523.62" y="-275.5" font-family="Arial" font-weight="bold" font-size="10.00">(+)</text>
<text xml:space="preserve" text-anchor="start" x="535.62" y="-275.5" font-family="Arial" font-size="10.00"> increases complexity</text>
<text xml:space="preserve" text-anchor="start" x="636.88" y="-275.5" font-family="Arial" font-weight="bold" font-size="10.00">(−)</text>
<text xml:space="preserve" text-anchor="start" x="648.88" y="-275.5" font-family="Arial" font-size="10.00"> decreases complexity</text>
<!-- structure.grid -->
<g id="node1" class="node">
<title>structure.grid</title>
<path fill="#b8e6b8" stroke="#2c3e50" stroke-width="1.8" d="M301,-198C301,-198 271,-198 271,-198 265,-198 259,-192 259,-186 259,-186 259,-174 259,-174 259,-168 265,-162 271,-162 271,-162 301,-162 301,-162 307,-162 313,-168 313,-174 313,-174 313,-186 313,-186 313,-192 307,-198 301,-198"/>
<text xml:space="preserve" text-anchor="middle" x="286" y="-176.5" font-family="Arial" font-size="10.00" fill="#1a1a1a">grid</text>
</g>
<!-- attr_2 -->
<g id="node6" class="node">
<title>attr_2</title>
<path fill="#c7b8e6" stroke="#7f8c8d" stroke-width="1.2" d="M458.62,-198C458.62,-198 383.38,-198 383.38,-198 377.38,-198 371.38,-192 371.38,-186 371.38,-186 371.38,-174 371.38,-174 371.38,-168 377.38,-162 383.38,-162 383.38,-162 458.62,-162 458.62,-162 464.62,-162 470.62,-168 470.62,-174 470.62,-174 470.62,-186 470.62,-186 470.62,-192 464.62,-198 458.62,-198"/>
<text xml:space="preserve" text-anchor="middle" x="421" y="-176.5" font-family="Arial" font-size="10.00" fill="#1a1a1a">(+) hard to interpret</text>
</g>
<!-- structure.grid&#45;&gt;attr_2 -->
<g id="edge1" class="edge">
<title>structure.grid&#45;&gt;attr_2</title>
<path fill="none" stroke="#aaaaaa" d="M313.59,-180C327.67,-180 345.52,-180 362.57,-180"/>
<polygon fill="#aaaaaa" stroke="#aaaaaa" points="362.33,-182.45 369.33,-180 362.33,-177.55 362.33,-182.45"/>
</g>
<!-- property.color -->
<g id="node2" class="node">
<title>property.color</title>
<path fill="#b8e6b8" stroke="#2c3e50" stroke-width="1.8" d="M590.75,-68C590.75,-68 541,-68 541,-68 535,-68 529,-62 529,-56 529,-56 529,-44 529,-44 529,-38 535,-32 541,-32 541,-32 590.75,-32 590.75,-32 596.75,-32 602.75,-38 602.75,-44 602.75,-44 602.75,-56 602.75,-56 602.75,-62 596.75,-68 590.75,-68"/>
<text xml:space="preserve" text-anchor="middle" x="565.88" y="-46.5" font-family="Arial" font-size="10.00" fill="#1a1a1a">color shading</text>
</g>
<!-- attr_0 -->
<g id="node7" class="node">
<title>attr_0</title>
<path fill="#c7b8e6" stroke="#7f8c8d" stroke-width="1.2" d="M778,-101C778,-101 657.75,-101 657.75,-101 651.75,-101 645.75,-95 645.75,-89 645.75,-89 645.75,-77 645.75,-77 645.75,-71 651.75,-65 657.75,-65 657.75,-65 778,-65 778,-65 784,-65 790,-71 790,-77 790,-77 790,-89 790,-89 790,-95 784,-101 778,-101"/>
<text xml:space="preserve" text-anchor="middle" x="717.88" y="-79.5" font-family="Arial" font-size="10.00" fill="#1a1a1a">(+) ambiguous color encoding</text>
</g>
<!-- property.color&#45;&gt;attr_0 -->
<g id="edge2" class="edge">
<title>property.color&#45;&gt;attr_0</title>
<path fill="none" stroke="#aaaaaa" d="M603.57,-58.07C613.86,-60.34 625.46,-62.89 637.22,-65.48"/>
<polygon fill="#aaaaaa" stroke="#aaaaaa" points="636.53,-67.83 643.89,-66.94 637.58,-63.05 636.53,-67.83"/>
</g>
<!-- rel_2 -->
<g id="node13" class="node">
<title>rel_2</title>
<path fill="#f5b8b8" stroke="#d46a6a" stroke-width="1.2" d="M754.38,-36C754.38,-36 681.38,-36 681.38,-36 675.38,-36 669.38,-30 669.38,-24 669.38,-24 669.38,-12 669.38,-12 669.38,-6 675.38,0 681.38,0 681.38,0 754.38,0 754.38,0 760.38,0 766.38,-6 766.38,-12 766.38,-12 766.38,-24 766.38,-24 766.38,-30 760.38,-36 754.38,-36"/>
<text xml:space="preserve" text-anchor="middle" x="717.88" y="-14.5" font-family="Arial" font-size="10.00" fill="#8b0000">increases effort for</text>
</g>
<!-- property.color&#45;&gt;rel_2 -->
<g id="edge10" class="edge">
<title>property.color&#45;&gt;rel_2</title>
<path fill="none" stroke="#d46a6a" stroke-width="1.5" d="M603.57,-42.17C620.26,-38.61 640.41,-34.31 659.06,-30.33"/>
<polygon fill="#d46a6a" stroke="#d46a6a" stroke-width="1.5" points="659.48,-33.11 666.72,-28.7 658.31,-27.63 659.48,-33.11"/>
</g>
<!-- unknown.half_shading -->
<g id="node3" class="node">
<title>unknown.half_shading</title>
<path fill="#b8e6b8" stroke="#2c3e50" stroke-width="1.8" d="M56.5,-198C56.5,-198 12,-198 12,-198 6,-198 0,-192 0,-186 0,-186 0,-174 0,-174 0,-168 6,-162 12,-162 12,-162 56.5,-162 56.5,-162 62.5,-162 68.5,-168 68.5,-174 68.5,-174 68.5,-186 68.5,-186 68.5,-192 62.5,-198 56.5,-198"/>
<text xml:space="preserve" text-anchor="middle" x="34.25" y="-176.5" font-family="Arial" font-size="10.00" fill="#1a1a1a">half shading</text>
</g>
<!-- attr_1 -->
<g id="node8" class="node">
<title>attr_1</title>
<path fill="#c7b8e6" stroke="#7f8c8d" stroke-width="1.2" d="M204,-263C204,-263 123.5,-263 123.5,-263 117.5,-263 111.5,-257 111.5,-251 111.5,-251 111.5,-239 111.5,-239 111.5,-233 117.5,-227 123.5,-227 123.5,-227 204,-227 204,-227 210,-227 216,-233 216,-239 216,-239 216,-251 216,-251 216,-257 210,-263 204,-263"/>
<text xml:space="preserve" text-anchor="middle" x="163.75" y="-241.5" font-family="Arial" font-size="10.00" fill="#1a1a1a">(+) unclear partial fill</text>
</g>
<!-- unknown.half_shading&#45;&gt;attr_1 -->
<g id="edge3" class="edge">
<title>unknown.half_shading&#45;&gt;attr_1</title>
<path fill="none" stroke="#aaaaaa" d="M69.08,-197.25C84.44,-205.08 102.79,-214.43 119.16,-222.78"/>
<polygon fill="#aaaaaa" stroke="#aaaaaa" points="117.83,-224.85 125.17,-225.84 120.05,-220.48 117.83,-224.85"/>
</g>
<!-- rel_0 -->
<g id="node11" class="node">
<title>rel_0</title>
<path fill="#f5b8b8" stroke="#d46a6a" stroke-width="1.2" d="M203.25,-198C203.25,-198 124.25,-198 124.25,-198 118.25,-198 112.25,-192 112.25,-186 112.25,-186 112.25,-174 112.25,-174 112.25,-168 118.25,-162 124.25,-162 124.25,-162 203.25,-162 203.25,-162 209.25,-162 215.25,-168 215.25,-174 215.25,-174 215.25,-186 215.25,-186 215.25,-192 209.25,-198 203.25,-198"/>
<text xml:space="preserve" text-anchor="middle" x="163.75" y="-176.5" font-family="Arial" font-size="10.00" fill="#8b0000">causes confusion in</text>
</g>
<!-- unknown.half_shading&#45;&gt;rel_0 -->
<g id="edge6" class="edge">
<title>unknown.half_shading&#45;&gt;rel_0</title>
<path fill="none" stroke="#d46a6a" stroke-width="1.5" d="M69.08,-180C79.14,-180 90.47,-180 101.7,-180"/>
<polygon fill="#d46a6a" stroke="#d46a6a" stroke-width="1.5" points="101.67,-182.8 109.67,-180 101.67,-177.2 101.67,-182.8"/>
</g>
<!-- rel_3 -->
<g id="node14" class="node">
<title>rel_3</title>
<path fill="#f5b8b8" stroke="#d46a6a" stroke-width="1.2" d="M179.62,-133C179.62,-133 147.88,-133 147.88,-133 141.88,-133 135.88,-127 135.88,-121 135.88,-121 135.88,-109 135.88,-109 135.88,-103 141.88,-97 147.88,-97 147.88,-97 179.62,-97 179.62,-97 185.62,-97 191.62,-103 191.62,-109 191.62,-109 191.62,-121 191.62,-121 191.62,-127 185.62,-133 179.62,-133"/>
<text xml:space="preserve" text-anchor="middle" x="163.75" y="-111.5" font-family="Arial" font-size="10.00" fill="#8b0000">obscures</text>
</g>
<!-- unknown.half_shading&#45;&gt;rel_3 -->
<g id="edge12" class="edge">
<title>unknown.half_shading&#45;&gt;rel_3</title>
<path fill="none" stroke="#d46a6a" stroke-width="1.5" d="M69.08,-162.75C86.8,-153.72 108.5,-142.66 126.55,-133.45"/>
<polygon fill="#d46a6a" stroke="#d46a6a" stroke-width="1.5" points="127.74,-135.99 133.6,-129.86 125.2,-131 127.74,-135.99"/>
</g>
<!-- furniture.legend -->
<g id="node4" class="node">
<title>furniture.legend</title>
<path fill="#b8e6b8" stroke="#2c3e50" stroke-width="1.8" d="M301,-133C301,-133 271,-133 271,-133 265,-133 259,-127 259,-121 259,-121 259,-109 259,-109 259,-103 265,-97 271,-97 271,-97 301,-97 301,-97 307,-97 313,-103 313,-109 313,-109 313,-121 313,-121 313,-127 307,-133 301,-133"/>
<text xml:space="preserve" text-anchor="middle" x="286" y="-111.5" font-family="Arial" font-size="10.00" fill="#1a1a1a">legend</text>
</g>
<!-- attr_3 -->
<g id="node9" class="node">
<title>attr_3</title>
<path fill="#c7b8e6" stroke="#7f8c8d" stroke-width="1.2" d="M474,-133C474,-133 368,-133 368,-133 362,-133 356,-127 356,-121 356,-121 356,-109 356,-109 356,-103 362,-97 368,-97 368,-97 474,-97 474,-97 480,-97 486,-103 486,-109 486,-109 486,-121 486,-121 486,-127 480,-133 474,-133"/>
<text xml:space="preserve" text-anchor="middle" x="421" y="-111.5" font-family="Arial" font-size="10.00" fill="#1a1a1a">(+) insufficient explanation</text>
</g>
<!-- furniture.legend&#45;&gt;attr_3 -->
<g id="edge4" class="edge">
<title>furniture.legend&#45;&gt;attr_3</title>
<path fill="none" stroke="#aaaaaa" d="M313.59,-115C323.45,-115 335.16,-115 347.15,-115"/>
<polygon fill="#aaaaaa" stroke="#aaaaaa" points="346.96,-117.45 353.96,-115 346.96,-112.55 346.96,-117.45"/>
</g>
<!-- rel_1 -->
<g id="node12" class="node">
<title>rel_1</title>
<path fill="#f5b8b8" stroke="#d46a6a" stroke-width="1.2" d="M446.25,-68C446.25,-68 395.75,-68 395.75,-68 389.75,-68 383.75,-62 383.75,-56 383.75,-56 383.75,-44 383.75,-44 383.75,-38 389.75,-32 395.75,-32 395.75,-32 446.25,-32 446.25,-32 452.25,-32 458.25,-38 458.25,-44 458.25,-44 458.25,-56 458.25,-56 458.25,-62 452.25,-68 446.25,-68"/>
<text xml:space="preserve" text-anchor="middle" x="421" y="-46.5" font-family="Arial" font-size="10.00" fill="#8b0000">fails to clarify</text>
</g>
<!-- furniture.legend&#45;&gt;rel_1 -->
<g id="edge8" class="edge">
<title>furniture.legend&#45;&gt;rel_1</title>
<path fill="none" stroke="#d46a6a" stroke-width="1.5" d="M313.59,-102C330.95,-93.52 354.06,-82.23 374.31,-72.33"/>
<polygon fill="#d46a6a" stroke="#d46a6a" stroke-width="1.5" points="375.38,-74.92 381.34,-68.9 372.92,-69.89 375.38,-74.92"/>
</g>
<!-- unknown.diagram -->
<g id="node5" class="node">
<title>unknown.diagram</title>
<path fill="#b8e6b8" stroke="#2c3e50" stroke-width="1.8" d="M875,-36C875,-36 845,-36 845,-36 839,-36 833,-30 833,-24 833,-24 833,-12 833,-12 833,-6 839,0 845,0 845,0 875,0 875,0 881,0 887,-6 887,-12 887,-12 887,-24 887,-24 887,-30 881,-36 875,-36"/>
<text xml:space="preserve" text-anchor="middle" x="860" y="-14.5" font-family="Arial" font-size="10.00" fill="#1a1a1a">diagram</text>
</g>
<!-- attr_4 -->
<g id="node10" class="node">
<title>attr_4</title>
<path fill="#c7b8e6" stroke="#7f8c8d" stroke-width="1.2" d="M1055.5,-36C1055.5,-36 942,-36 942,-36 936,-36 930,-30 930,-24 930,-24 930,-12 930,-12 930,-6 936,0 942,0 942,0 1055.5,0 1055.5,0 1061.5,0 1067.5,-6 1067.5,-12 1067.5,-12 1067.5,-24 1067.5,-24 1067.5,-30 1061.5,-36 1055.5,-36"/>
<text xml:space="preserve" text-anchor="middle" x="998.75" y="-14.5" font-family="Arial" font-size="10.00" fill="#1a1a1a">(+) unfamiliar representation</text>
</g>
<!-- unknown.diagram&#45;&gt;attr_4 -->
<g id="edge5" class="edge">
<title>unknown.diagram&#45;&gt;attr_4</title>
<path fill="none" stroke="#aaaaaa" d="M887.69,-18C897.48,-18 909.11,-18 921.09,-18"/>
<polygon fill="#aaaaaa" stroke="#aaaaaa" points="920.9,-20.45 927.9,-18 920.9,-15.55 920.9,-20.45"/>
</g>
<!-- rel_0&#45;&gt;structure.grid -->
<g id="edge7" class="edge">
<title>rel_0&#45;&gt;structure.grid</title>
<path fill="none" stroke="#d46a6a" stroke-width="1.5" d="M215.75,-180C226.58,-180 237.82,-180 248.01,-180"/>
<polygon fill="#d46a6a" stroke="#d46a6a" stroke-width="1.5" points="247.92,-182.8 255.92,-180 247.92,-177.2 247.92,-182.8"/>
</g>
<!-- rel_1&#45;&gt;property.color -->
<g id="edge9" class="edge">
<title>rel_1&#45;&gt;property.color</title>
<path fill="none" stroke="#d46a6a" stroke-width="1.5" d="M458.79,-50C476.88,-50 498.87,-50 518.12,-50"/>
<polygon fill="#d46a6a" stroke="#d46a6a" stroke-width="1.5" points="517.94,-52.8 525.94,-50 517.94,-47.2 517.94,-52.8"/>
</g>
<!-- rel_2&#45;&gt;unknown.diagram -->
<g id="edge11" class="edge">
<title>rel_2&#45;&gt;unknown.diagram</title>
<path fill="none" stroke="#d46a6a" stroke-width="1.5" d="M766.71,-18C784.83,-18 805.16,-18 822.12,-18"/>
<polygon fill="#d46a6a" stroke="#d46a6a" stroke-width="1.5" points="821.93,-20.8 829.93,-18 821.93,-15.2 821.93,-20.8"/>
</g>
<!-- rel_3&#45;&gt;furniture.legend -->
<g id="edge13" class="edge">
<title>rel_3&#45;&gt;furniture.legend</title>
<path fill="none" stroke="#d46a6a" stroke-width="1.5" d="M192.04,-115C208.6,-115 229.97,-115 248.04,-115"/>
<polygon fill="#d46a6a" stroke="#d46a6a" stroke-width="1.5" points="247.97,-117.8 255.97,-115 247.97,-112.2 247.97,-117.8"/>
</g>
</g>
</svg>
