<?xml version="1.0" encoding="UTF-8" standalone="no"?>
<!DOCTYPE svg PUBLIC "-//W3C//DTD SVG 1.1//EN"
 "http://www.w3.org/Graphics/SVG/1.1/DTD/svg11.dtd">
<!-- Generated by graphviz version 14.1.5 (20260411.2331)
 -->
<!-- Title: VASTJ.1374.4.png Pages: 1 -->
<svg width="837pt" height="277pt"
 viewBox="0.00 0.00 837.00 277.00" xmlns="http://www.w3.org/2000/svg" xmlns:xlink="http://www.w3.org/1999/xlink">
<g id="graph0" class="graph" transform="scale(1 1) rotate(0) translate(4 273.25)">
<title>VASTJ.1374.4.png</title>
<polygon fill="white" stroke="none" points="-4,4 -4,-273.25 832.5,-273.25 832.5,4 -4,4"/>
<text xml:space="preserve" text-anchor="start" x="356.12" y="-248.95" font-family="Arial" font-weight="bold" font-size="14.00">VASTJ.1374.4.png</text>
<text xml:space="preserve" text-anchor="start" x="373.38" y="-229" font-family="Arial" font-size="11.00">Bar &#160;| &#160;VC = 0.56</text>
<path fill="#b8e6b8" stroke="none" d="M204.88,-204C204.88,-204 212.88,-204 212.88,-204 215.88,-204 218.88,-207 218.88,-210 218.88,-210 218.88,-216 218.88,-216 218.88,-219 215.88,-222 212.88,-222 212.88,-222 204.88,-222 204.88,-222 201.88,-222 198.88,-219 198.88,-216 198.88,-216 198.88,-210 198.88,-210 198.88,-207 201.88,-204 204.88,-204"/>
<path fill="none" stroke="black" d="M204.88,-204C204.88,-204 212.88,-204 212.88,-204 215.88,-204 218.88,-207 218.88,-210 218.88,-210 218.88,-216 218.88,-216 218.88,-219 215.88,-222 212.88,-222 212.88,-222 204.88,-222 204.88,-222 201.88,-222 198.88,-219 198.88,-216 198.88,-216 198.88,-210 198.88,-210 198.88,-207 201.88,-204 204.88,-204"/>
<text xml:space="preserve" text-anchor="start" x="207.38" y="-209.25" font-family="Arial" font-size="10.00"> </text>
<text xml:space="preserve" text-anchor="start" x="222.88" y="-209.25" font-family="Arial" font-size="10.00">Object</text>
<path fill="#c7b8e6" stroke="none" d="M261.38,-204C261.38,-204 269.38,-204 269.38,-204 272.38,-204 275.38,-207 275.38,-210 275.38,-210 275.38,-216 275.38,-216 275.38,-219 272.38,-222 269.38,-222 269.38,-222 261.38,-222 261.38,-222 258.38,-222 255.38,-219 255.38,-216 255.38,-216 255.38,-210 255.38,-210 255.38,-207 258.38,-204 261.38,-204"/>
<path fill="none" stroke="black" d="M261.38,-204C261.38,-204 269.38,-204 269.38,-204 272.38,-204 275.38,-207 275.38,-210 275.38,-210 275.38,-216 275.38,-216 275.38,-219 272.38,-222 269.38,-222 269.38,-222 261.38,-222 261.38,-222 258.38,-222 255.38,-219 255.38,-216 255.38,-216 255.38,-210 255.38,-210 255.38,-207 258.38,-204 261.38,-204"/>
<text xml:space="preserve" text-anchor="start" x="263.88" y="-209.25" font-family="Arial" font-size="10.00"> </text>
<text xml:space="preserve" text-anchor="start" x="279.38" y="-209.25" font-family="Arial" font-size="10.00">Attribute</text>
<path fill="#f5b8b8" stroke="none" d="M326.12,-204C326.12,-204 334.12,-204 334.12,-204 337.12,-204 340.12,-207 340.12,-210 340.12,-210 340.12,-216 340.12,-216 340.12,-219 337.12,-222 334.12,-222 334.12,-222 326.12,-222 326.12,-222 323.12,-222 320.12,-219 320.12,-216 320.12,-216 320.12,-210 320.12,-210 320.12,-207 323.12,-204 326.12,-204"/>
<path fill="none" stroke="black" d="M326.12,-204C326.12,-204 334.12,-204 334.12,-204 337.12,-204 340.12,-207 340.12,-210 340.12,-210 340.12,-216 340.12,-216 340.12,-219 337.12,-222 334.12,-222 334.12,-222 326.12,-222 326.12,-222 323.12,-222 320.12,-219 320.12,-216 320.12,-216 320.12,-210 320.12,-210 320.12,-207 323.12,-204 326.12,-204"/>
<text xml:space="preserve" text-anchor="start" x="328.62" y="-209.25" font-family="Arial" font-size="10.00"> </text>
<text xml:space="preserve" text-anchor="start" x="344.12" y="-209.25" font-family="Arial" font-size="10.00">Relationship</text>
<text xml:space="preserve" text-anchor="start" x="404.12" y="-210.5" font-family="Arial" font-weight="bold" font-size="10.00">(+)</text>
<text xml:space="preserve" text-anchor="start" x="416.12" y="-210.5" font-family="Arial" font-size="10.00"> increases complexity</text>
<text xml:space="preserve" text-anchor="start" x="517.38" y="-210.5" font-family="Arial" font-weight="bold" font-size="10.00">(−)</text>
<text xml:space="preserve" text-anchor="start" x="529.38" y="-210.5" font-family="Arial" font-size="10.00"> decreases complexity</text>
<!-- mark.bar -->
<g id="node1" class="node">
<title>mark.bar</title>
<path fill="#b8e6b8" stroke="#2c3e50" stroke-width="1.8" d="M289,-133C289,-133 259,-133 259,-133 253,-133 247,-127 247,-121 247,-121 247,-109 247,-109 247,-103 253,-97 259,-97 259,-97 289,-97 289,-97 295,-97 301,-103 301,-109 301,-109 301,-121 301,-121 301,-127 295,-133 289,-133"/>
<text xml:space="preserve" text-anchor="middle" x="274" y="-111.5" font-family="Arial" font-size="10.00" fill="#1a1a1a">bar</text>
</g>
<!-- attr_0 -->
<g id="node5" class="node">
<title>attr_0</title>
<path fill="#c7b8e6" stroke="#7f8c8d" stroke-width="1.2" d="M433.5,-166C433.5,-166 356,-166 356,-166 350,-166 344,-160 344,-154 344,-154 344,-142 344,-142 344,-136 350,-130 356,-130 356,-130 433.5,-130 433.5,-130 439.5,-130 445.5,-136 445.5,-142 445.5,-142 445.5,-154 445.5,-154 445.5,-160 439.5,-166 433.5,-166"/>
<text xml:space="preserve" text-anchor="middle" x="394.75" y="-144.5" font-family="Arial" font-size="10.00" fill="#1a1a1a">(−) familiar bar form</text>
</g>
<!-- mark.bar&#45;&gt;attr_0 -->
<g id="edge1" class="edge">
<title>mark.bar&#45;&gt;attr_0</title>
<path fill="none" stroke="#aaaaaa" d="M301.65,-122.41C311.76,-125.22 323.72,-128.54 335.6,-131.84"/>
<polygon fill="#aaaaaa" stroke="#aaaaaa" points="334.94,-134.2 342.34,-133.71 336.25,-129.48 334.94,-134.2"/>
</g>
<!-- rel_0 -->
<g id="node9" class="node">
<title>rel_0</title>
<path fill="#f5b8b8" stroke="#d46a6a" stroke-width="1.2" d="M409.75,-101C409.75,-101 379.75,-101 379.75,-101 373.75,-101 367.75,-95 367.75,-89 367.75,-89 367.75,-77 367.75,-77 367.75,-71 373.75,-65 379.75,-65 379.75,-65 409.75,-65 409.75,-65 415.75,-65 421.75,-71 421.75,-77 421.75,-77 421.75,-89 421.75,-89 421.75,-95 415.75,-101 409.75,-101"/>
<text xml:space="preserve" text-anchor="middle" x="394.75" y="-79.5" font-family="Arial" font-size="10.00" fill="#8b0000">supports</text>
</g>
<!-- mark.bar&#45;&gt;rel_0 -->
<g id="edge5" class="edge">
<title>mark.bar&#45;&gt;rel_0</title>
<path fill="none" stroke="#d46a6a" stroke-width="1.5" d="M301.65,-107.82C318.07,-103.39 339.36,-97.66 357.33,-92.81"/>
<polygon fill="#d46a6a" stroke="#d46a6a" stroke-width="1.5" points="358,-95.53 365,-90.75 356.54,-90.13 358,-95.53"/>
</g>
<!-- text.axis_label -->
<g id="node2" class="node">
<title>text.axis_label</title>
<path fill="#b8e6b8" stroke="#2c3e50" stroke-width="1.8" d="M45.25,-165C45.25,-165 12,-165 12,-165 6,-165 0,-159 0,-153 0,-153 0,-141 0,-141 0,-135 6,-129 12,-129 12,-129 45.25,-129 45.25,-129 51.25,-129 57.25,-135 57.25,-141 57.25,-141 57.25,-153 57.25,-153 57.25,-159 51.25,-165 45.25,-165"/>
<text xml:space="preserve" text-anchor="middle" x="28.62" y="-143.5" font-family="Arial" font-size="10.00" fill="#1a1a1a">axis label</text>
</g>
<!-- attr_3 -->
<g id="node6" class="node">
<title>attr_3</title>
<path fill="#c7b8e6" stroke="#7f8c8d" stroke-width="1.2" d="M192,-198C192,-198 112.25,-198 112.25,-198 106.25,-198 100.25,-192 100.25,-186 100.25,-186 100.25,-174 100.25,-174 100.25,-168 106.25,-162 112.25,-162 112.25,-162 192,-162 192,-162 198,-162 204,-168 204,-174 204,-174 204,-186 204,-186 204,-192 198,-198 192,-198"/>
<text xml:space="preserve" text-anchor="middle" x="152.12" y="-176.5" font-family="Arial" font-size="10.00" fill="#1a1a1a">(−) readable labeling</text>
</g>
<!-- text.axis_label&#45;&gt;attr_3 -->
<g id="edge2" class="edge">
<title>text.axis_label&#45;&gt;attr_3</title>
<path fill="none" stroke="#aaaaaa" d="M58.11,-154.74C68.26,-157.49 80.09,-160.71 91.85,-163.9"/>
<polygon fill="#aaaaaa" stroke="#aaaaaa" points="91.1,-166.24 98.5,-165.71 92.39,-161.51 91.1,-166.24"/>
</g>
<!-- rel_2 -->
<g id="node11" class="node">
<title>rel_2</title>
<path fill="#f5b8b8" stroke="#d46a6a" stroke-width="1.2" d="M167.12,-133C167.12,-133 137.12,-133 137.12,-133 131.12,-133 125.12,-127 125.12,-121 125.12,-121 125.12,-109 125.12,-109 125.12,-103 131.12,-97 137.12,-97 137.12,-97 167.12,-97 167.12,-97 173.12,-97 179.12,-103 179.12,-109 179.12,-109 179.12,-121 179.12,-121 179.12,-127 173.12,-133 167.12,-133"/>
<text xml:space="preserve" text-anchor="middle" x="152.12" y="-111.5" font-family="Arial" font-size="10.00" fill="#8b0000">clarifies</text>
</g>
<!-- text.axis_label&#45;&gt;rel_2 -->
<g id="edge9" class="edge">
<title>text.axis_label&#45;&gt;rel_2</title>
<path fill="none" stroke="#d46a6a" stroke-width="1.5" d="M58.11,-139.5C75.16,-135.01 96.97,-129.26 115.19,-124.46"/>
<polygon fill="#d46a6a" stroke="#d46a6a" stroke-width="1.5" points="115.67,-127.23 122.7,-122.49 114.25,-121.82 115.67,-127.23"/>
</g>
<!-- furniture.legend -->
<g id="node3" class="node">
<title>furniture.legend</title>
<path fill="#b8e6b8" stroke="#2c3e50" stroke-width="1.8" d="M816.5,-36C816.5,-36 786.5,-36 786.5,-36 780.5,-36 774.5,-30 774.5,-24 774.5,-24 774.5,-12 774.5,-12 774.5,-6 780.5,0 786.5,0 786.5,0 816.5,0 816.5,0 822.5,0 828.5,-6 828.5,-12 828.5,-12 828.5,-24 828.5,-24 828.5,-30 822.5,-36 816.5,-36"/>
<text xml:space="preserve" text-anchor="middle" x="801.5" y="-14.5" font-family="Arial" font-size="10.00" fill="#1a1a1a">legend</text>
</g>
<!-- unknown.chart_layout -->
<g id="node4" class="node">
<title>unknown.chart_layout</title>
<path fill="#b8e6b8" stroke="#2c3e50" stroke-width="1.8" d="M543.5,-101C543.5,-101 500.5,-101 500.5,-101 494.5,-101 488.5,-95 488.5,-89 488.5,-89 488.5,-77 488.5,-77 488.5,-71 494.5,-65 500.5,-65 500.5,-65 543.5,-65 543.5,-65 549.5,-65 555.5,-71 555.5,-77 555.5,-77 555.5,-89 555.5,-89 555.5,-95 549.5,-101 543.5,-101"/>
<text xml:space="preserve" text-anchor="middle" x="522" y="-79.5" font-family="Arial" font-size="10.00" fill="#1a1a1a">chart layout</text>
</g>
<!-- attr_1 -->
<g id="node7" class="node">
<title>attr_1</title>
<path fill="#c7b8e6" stroke="#7f8c8d" stroke-width="1.2" d="M719.5,-166C719.5,-166 610.5,-166 610.5,-166 604.5,-166 598.5,-160 598.5,-154 598.5,-154 598.5,-142 598.5,-142 598.5,-136 604.5,-130 610.5,-130 610.5,-130 719.5,-130 719.5,-130 725.5,-130 731.5,-136 731.5,-142 731.5,-142 731.5,-154 731.5,-154 731.5,-160 725.5,-166 719.5,-166"/>
<text xml:space="preserve" text-anchor="middle" x="665" y="-144.5" font-family="Arial" font-size="10.00" fill="#1a1a1a">(−) standard representation</text>
</g>
<!-- unknown.chart_layout&#45;&gt;attr_1 -->
<g id="edge3" class="edge">
<title>unknown.chart_layout&#45;&gt;attr_1</title>
<path fill="none" stroke="#aaaaaa" d="M556.06,-98.24C573.95,-106.49 596.38,-116.83 616.14,-125.94"/>
<polygon fill="#aaaaaa" stroke="#aaaaaa" points="615.1,-128.16 622.49,-128.86 617.15,-123.71 615.1,-128.16"/>
</g>
<!-- attr_2 -->
<g id="node8" class="node">
<title>attr_2</title>
<path fill="#c7b8e6" stroke="#7f8c8d" stroke-width="1.2" d="M716.5,-101C716.5,-101 613.5,-101 613.5,-101 607.5,-101 601.5,-95 601.5,-89 601.5,-89 601.5,-77 601.5,-77 601.5,-71 607.5,-65 613.5,-65 613.5,-65 716.5,-65 716.5,-65 722.5,-65 728.5,-71 728.5,-77 728.5,-77 728.5,-89 728.5,-89 728.5,-95 722.5,-101 716.5,-101"/>
<text xml:space="preserve" text-anchor="middle" x="665" y="-79.5" font-family="Arial" font-size="10.00" fill="#1a1a1a">(−) conventional structure</text>
</g>
<!-- unknown.chart_layout&#45;&gt;attr_2 -->
<g id="edge4" class="edge">
<title>unknown.chart_layout&#45;&gt;attr_2</title>
<path fill="none" stroke="#aaaaaa" d="M556.06,-83C567.08,-83 579.81,-83 592.59,-83"/>
<polygon fill="#aaaaaa" stroke="#aaaaaa" points="592.46,-85.45 599.46,-83 592.46,-80.55 592.46,-85.45"/>
</g>
<!-- rel_1 -->
<g id="node10" class="node">
<title>rel_1</title>
<path fill="#f5b8b8" stroke="#d46a6a" stroke-width="1.2" d="M680,-36C680,-36 650,-36 650,-36 644,-36 638,-30 638,-24 638,-24 638,-12 638,-12 638,-6 644,0 650,0 650,0 680,0 680,0 686,0 692,-6 692,-12 692,-12 692,-24 692,-24 692,-30 686,-36 680,-36"/>
<text xml:space="preserve" text-anchor="middle" x="665" y="-14.5" font-family="Arial" font-size="10.00" fill="#8b0000">reduces</text>
</g>
<!-- unknown.chart_layout&#45;&gt;rel_1 -->
<g id="edge7" class="edge">
<title>unknown.chart_layout&#45;&gt;rel_1</title>
<path fill="none" stroke="#d46a6a" stroke-width="1.5" d="M556.06,-67.76C577.85,-57.71 606.37,-44.57 628.62,-34.31"/>
<polygon fill="#d46a6a" stroke="#d46a6a" stroke-width="1.5" points="629.58,-36.95 635.67,-31.06 627.24,-31.86 629.58,-36.95"/>
</g>
<!-- rel_0&#45;&gt;unknown.chart_layout -->
<g id="edge6" class="edge">
<title>rel_0&#45;&gt;unknown.chart_layout</title>
<path fill="none" stroke="#d46a6a" stroke-width="1.5" d="M422.31,-83C438.35,-83 459.19,-83 477.57,-83"/>
<polygon fill="#d46a6a" stroke="#d46a6a" stroke-width="1.5" points="477.5,-85.8 485.5,-83 477.5,-80.2 477.5,-85.8"/>
</g>
<!-- rel_1&#45;&gt;furniture.legend -->
<g id="edge8" class="edge">
<title>rel_1&#45;&gt;furniture.legend</title>
<path fill="none" stroke="#d46a6a" stroke-width="1.5" d="M692.57,-18C712.93,-18 741.25,-18 763.77,-18"/>
<polygon fill="#d46a6a" stroke="#d46a6a" stroke-width="1.5" points="763.71,-20.8 771.71,-18 763.71,-15.2 763.71,-20.8"/>
</g>
<!-- rel_2&#45;&gt;mark.bar -->
<g id="edge10" class="edge">
<title>rel_2&#45;&gt;mark.bar</title>
<path fill="none" stroke="#d46a6a" stroke-width="1.5" d="M179.43,-115C196.1,-115 217.9,-115 236.27,-115"/>
<polygon fill="#d46a6a" stroke="#d46a6a" stroke-width="1.5" points="236.07,-117.8 244.07,-115 236.07,-112.2 236.07,-117.8"/>
</g>
</g>
</svg>
