<?xml version="1.0" encoding="UTF-8" standalone="no"?>
<!DOCTYPE svg PUBLIC "-//W3C//DTD SVG 1.1//EN"
 "http://www.w3.org/Graphics/SVG/1.1/DTD/svg11.dtd">
<!-- Generated by graphviz version 14.1.5 (20260411.2331)
 -->
<!-- Title: VASTJ.200.8.png Pages: 1 -->
<svg width="893pt" height="440pt"
 viewBox="0.00 0.00 893.00 440.00" xmlns="http://www.w3.org/2000/svg" xmlns:xlink="http://www.w3.org/1999/xlink">
<g id="graph0" class="graph" transform="scale(1 1) rotate(0) translate(4 436.25)">
<title>VASTJ.200.8.png</title>
<polygon fill="white" stroke="none" points="-4,4 -4,-436.25 888.75,-436.25 888.75,4 -4,4"/>
<text xml:space="preserve" text-anchor="start" x="388" y="-411.95" font-family="Arial" font-weight="bold" font-size="14.00">VASTJ.200.8.png</text>
<text xml:space="preserve" text-anchor="start" x="387.25" y="-392" font-family="Arial" font-size="11.00">Node&#45;link &#160;| &#160;VC = 0.78</text>
<path fill="#b8e6b8" stroke="none" d="M233,-367C233,-367 241,-367 241,-367 244,-367 247,-370 247,-373 247,-373 247,-379 247,-379 247,-382 244,-385 241,-385 241,-385 233,-385 233,-385 230,-385 227,-382 227,-379 227,-379 227,-373 227,-373 227,-370 230,-367 233,-367"/>
<path fill="none" stroke="black" d="M233,-367C233,-367 241,-367 241,-367 244,-367 247,-370 247,-373 247,-373 247,-379 247,-379 247,-382 244,-385 241,-385 241,-385 233,-385 233,-385 230,-385 227,-382 227,-379 227,-379 227,-373 227,-373 227,-370 230,-367 233,-367"/>
<text xml:space="preserve" text-anchor="start" x="235.5" y="-372.25" font-family="Arial" font-size="10.00"> </text>
<text xml:space="preserve" text-anchor="start" x="251" y="-372.25" font-family="Arial" font-size="10.00">Object</text>
<path fill="#c7b8e6" stroke="none" d="M289.5,-367C289.5,-367 297.5,-367 297.5,-367 300.5,-367 303.5,-370 303.5,-373 303.5,-373 303.5,-379 303.5,-379 303.5,-382 300.5,-385 297.5,-385 297.5,-385 289.5,-385 289.5,-385 286.5,-385 283.5,-382 283.5,-379 283.5,-379 283.5,-373 283.5,-373 283.5,-370 286.5,-367 289.5,-367"/>
<path fill="none" stroke="black" d="M289.5,-367C289.5,-367 297.5,-367 297.5,-367 300.5,-367 303.5,-370 303.5,-373 303.5,-373 303.5,-379 303.5,-379 303.5,-382 300.5,-385 297.5,-385 297.5,-385 289.5,-385 289.5,-385 286.5,-385 283.5,-382 283.5,-379 283.5,-379 283.5,-373 283.5,-373 283.5,-370 286.5,-367 289.5,-367"/>
<text xml:space="preserve" text-anchor="start" x="292" y="-372.25" font-family="Arial" font-size="10.00"> </text>
<text xml:space="preserve" text-anchor="start" x="307.5" y="-372.25" font-family="Arial" font-size="10.00">Attribute</text>
<path fill="#f5b8b8" stroke="none" d="M354.25,-367C354.25,-367 362.25,-367 362.25,-367 365.25,-367 368.25,-370 368.25,-373 368.25,-373 368.25,-379 368.25,-379 368.25,-382 365.25,-385 362.25,-385 362.25,-385 354.25,-385 354.25,-385 351.25,-385 348.25,-382 348.25,-379 348.25,-379 348.25,-373 348.25,-373 348.25,-370 351.25,-367 354.25,-367"/>
<path fill="none" stroke="black" d="M354.25,-367C354.25,-367 362.25,-367 362.25,-367 365.25,-367 368.25,-370 368.25,-373 368.25,-373 368.25,-379 368.25,-379 368.25,-382 365.25,-385 362.25,-385 362.25,-385 354.25,-385 354.25,-385 351.25,-385 348.25,-382 348.25,-379 348.25,-379 348.25,-373 348.25,-373 348.25,-370 351.25,-367 354.25,-367"/>
<text xml:space="preserve" text-anchor="start" x="356.75" y="-372.25" font-family="Arial" font-size="10.00"> </text>
<text xml:space="preserve" text-anchor="start" x="372.25" y="-372.25" font-family="Arial" font-size="10.00">Relationship</text>
<text xml:space="preserve" text-anchor="start" x="432.25" y="-373.5" font-family="Arial" font-weight="bold" font-size="10.00">(+)</text>
<text xml:space="preserve" text-anchor="start" x="444.25" y="-373.5" font-family="Arial" font-size="10.00"> increases complexity</text>
<text xml:space="preserve" text-anchor="start" x="545.5" y="-373.5" font-family="Arial" font-weight="bold" font-size="10.00">(−)</text>
<text xml:space="preserve" text-anchor="start" x="557.5" y="-373.5" font-family="Arial" font-size="10.00"> decreases complexity</text>
<!-- unknown.lines -->
<g id="node1" class="node">
<title>unknown.lines</title>
<path fill="#b8e6b8" stroke="#2c3e50" stroke-width="1.8" d="M594,-101C594,-101 564,-101 564,-101 558,-101 552,-95 552,-89 552,-89 552,-77 552,-77 552,-71 558,-65 564,-65 564,-65 594,-65 594,-65 600,-65 606,-71 606,-77 606,-77 606,-89 606,-89 606,-95 600,-101 594,-101"/>
<text xml:space="preserve" text-anchor="middle" x="579" y="-79.5" font-family="Arial" font-size="10.00" fill="#1a1a1a">lines</text>
</g>
<!-- attr_0 -->
<g id="node7" class="node">
<title>attr_0</title>
<path fill="#c7b8e6" stroke="#7f8c8d" stroke-width="1.2" d="M760,-166C760,-166 682.5,-166 682.5,-166 676.5,-166 670.5,-160 670.5,-154 670.5,-154 670.5,-142 670.5,-142 670.5,-136 676.5,-130 682.5,-130 682.5,-130 760,-130 760,-130 766,-130 772,-136 772,-142 772,-142 772,-154 772,-154 772,-160 766,-166 760,-166"/>
<text xml:space="preserve" text-anchor="middle" x="721.25" y="-144.5" font-family="Arial" font-size="10.00" fill="#1a1a1a">(+) difficult to follow</text>
</g>
<!-- unknown.lines&#45;&gt;attr_0 -->
<g id="edge1" class="edge">
<title>unknown.lines&#45;&gt;attr_0</title>
<path fill="none" stroke="#aaaaaa" d="M606.71,-95.38C625.34,-104.01 650.7,-115.77 672.73,-125.98"/>
<polygon fill="#aaaaaa" stroke="#aaaaaa" points="671.61,-128.16 679,-128.88 673.68,-123.71 671.61,-128.16"/>
</g>
<!-- attr_1 -->
<g id="node8" class="node">
<title>attr_1</title>
<path fill="#c7b8e6" stroke="#7f8c8d" stroke-width="1.2" d="M775.75,-101C775.75,-101 666.75,-101 666.75,-101 660.75,-101 654.75,-95 654.75,-89 654.75,-89 654.75,-77 654.75,-77 654.75,-71 660.75,-65 666.75,-65 666.75,-65 775.75,-65 775.75,-65 781.75,-65 787.75,-71 787.75,-77 787.75,-77 787.75,-89 787.75,-89 787.75,-95 781.75,-101 775.75,-101"/>
<text xml:space="preserve" text-anchor="middle" x="721.25" y="-79.5" font-family="Arial" font-size="10.00" fill="#1a1a1a">(+) dense overlapping lines</text>
</g>
<!-- unknown.lines&#45;&gt;attr_1 -->
<g id="edge2" class="edge">
<title>unknown.lines&#45;&gt;attr_1</title>
<path fill="none" stroke="#aaaaaa" d="M606.71,-83C618.07,-83 631.94,-83 646.03,-83"/>
<polygon fill="#aaaaaa" stroke="#aaaaaa" points="645.82,-85.45 652.82,-83 645.82,-80.55 645.82,-85.45"/>
</g>
<!-- rel_1 -->
<g id="node15" class="node">
<title>rel_1</title>
<path fill="#f5b8b8" stroke="#d46a6a" stroke-width="1.2" d="M743.5,-36C743.5,-36 699,-36 699,-36 693,-36 687,-30 687,-24 687,-24 687,-12 687,-12 687,-6 693,0 699,0 699,0 743.5,0 743.5,0 749.5,0 755.5,-6 755.5,-12 755.5,-12 755.5,-24 755.5,-24 755.5,-30 749.5,-36 743.5,-36"/>
<text xml:space="preserve" text-anchor="middle" x="721.25" y="-14.5" font-family="Arial" font-size="10.00" fill="#8b0000">overwhelms</text>
</g>
<!-- unknown.lines&#45;&gt;rel_1 -->
<g id="edge10" class="edge">
<title>unknown.lines&#45;&gt;rel_1</title>
<path fill="none" stroke="#d46a6a" stroke-width="1.5" d="M606.71,-70.62C626.62,-61.39 654.22,-48.6 677.23,-37.94"/>
<polygon fill="#d46a6a" stroke="#d46a6a" stroke-width="1.5" points="678.3,-40.53 684.38,-34.62 675.95,-35.45 678.3,-40.53"/>
</g>
<!-- unknown.node_labels -->
<g id="node2" class="node">
<title>unknown.node_labels</title>
<path fill="#b8e6b8" stroke="#2c3e50" stroke-width="1.8" d="M599.75,-296C599.75,-296 558.25,-296 558.25,-296 552.25,-296 546.25,-290 546.25,-284 546.25,-284 546.25,-272 546.25,-272 546.25,-266 552.25,-260 558.25,-260 558.25,-260 599.75,-260 599.75,-260 605.75,-260 611.75,-266 611.75,-272 611.75,-272 611.75,-284 611.75,-284 611.75,-290 605.75,-296 599.75,-296"/>
<text xml:space="preserve" text-anchor="middle" x="579" y="-274.5" font-family="Arial" font-size="10.00" fill="#1a1a1a">node labels</text>
</g>
<!-- attr_2 -->
<g id="node9" class="node">
<title>attr_2</title>
<path fill="#c7b8e6" stroke="#7f8c8d" stroke-width="1.2" d="M761.12,-361C761.12,-361 681.38,-361 681.38,-361 675.38,-361 669.38,-355 669.38,-349 669.38,-349 669.38,-337 669.38,-337 669.38,-331 675.38,-325 681.38,-325 681.38,-325 761.12,-325 761.12,-325 767.12,-325 773.12,-331 773.12,-337 773.12,-337 773.12,-349 773.12,-349 773.12,-355 767.12,-361 761.12,-361"/>
<text xml:space="preserve" text-anchor="middle" x="721.25" y="-339.5" font-family="Arial" font-size="10.00" fill="#1a1a1a">(+) too small to read</text>
</g>
<!-- unknown.node_labels&#45;&gt;attr_2 -->
<g id="edge3" class="edge">
<title>unknown.node_labels&#45;&gt;attr_2</title>
<path fill="none" stroke="#aaaaaa" d="M612.53,-293.08C630.32,-301.32 652.69,-311.69 672.43,-320.84"/>
<polygon fill="#aaaaaa" stroke="#aaaaaa" points="671.38,-323.05 678.76,-323.77 673.44,-318.6 671.38,-323.05"/>
</g>
<!-- attr_3 -->
<g id="node10" class="node">
<title>attr_3</title>
<path fill="#c7b8e6" stroke="#7f8c8d" stroke-width="1.2" d="M762.62,-296C762.62,-296 679.88,-296 679.88,-296 673.88,-296 667.88,-290 667.88,-284 667.88,-284 667.88,-272 667.88,-272 667.88,-266 673.88,-260 679.88,-260 679.88,-260 762.62,-260 762.62,-260 768.62,-260 774.62,-266 774.62,-272 774.62,-272 774.62,-284 774.62,-284 774.62,-290 768.62,-296 762.62,-296"/>
<text xml:space="preserve" text-anchor="middle" x="721.25" y="-274.5" font-family="Arial" font-size="10.00" fill="#1a1a1a">(+) rotated small font</text>
</g>
<!-- unknown.node_labels&#45;&gt;attr_3 -->
<g id="edge4" class="edge">
<title>unknown.node_labels&#45;&gt;attr_3</title>
<path fill="none" stroke="#aaaaaa" d="M612.53,-278C626.38,-278 643.01,-278 659.01,-278"/>
<polygon fill="#aaaaaa" stroke="#aaaaaa" points="658.79,-280.45 665.79,-278 658.79,-275.55 658.79,-280.45"/>
</g>
<!-- rel_3 -->
<g id="node17" class="node">
<title>rel_3</title>
<path fill="#f5b8b8" stroke="#d46a6a" stroke-width="1.2" d="M767.5,-231C767.5,-231 675,-231 675,-231 669,-231 663,-225 663,-219 663,-219 663,-207 663,-207 663,-201 669,-195 675,-195 675,-195 767.5,-195 767.5,-195 773.5,-195 779.5,-201 779.5,-207 779.5,-207 779.5,-219 779.5,-219 779.5,-225 773.5,-231 767.5,-231"/>
<text xml:space="preserve" text-anchor="middle" x="721.25" y="-209.5" font-family="Arial" font-size="10.00" fill="#8b0000">hinders identification of</text>
</g>
<!-- unknown.node_labels&#45;&gt;rel_3 -->
<g id="edge14" class="edge">
<title>unknown.node_labels&#45;&gt;rel_3</title>
<path fill="none" stroke="#d46a6a" stroke-width="1.5" d="M612.53,-262.92C629.84,-254.9 651.5,-244.86 670.85,-235.9"/>
<polygon fill="#d46a6a" stroke="#d46a6a" stroke-width="1.5" points="671.99,-238.45 678.07,-232.55 669.63,-233.37 671.99,-238.45"/>
</g>
<!-- furniture.legend -->
<g id="node3" class="node">
<title>furniture.legend</title>
<path fill="#b8e6b8" stroke="#2c3e50" stroke-width="1.8" d="M42,-101C42,-101 12,-101 12,-101 6,-101 0,-95 0,-89 0,-89 0,-77 0,-77 0,-71 6,-65 12,-65 12,-65 42,-65 42,-65 48,-65 54,-71 54,-77 54,-77 54,-89 54,-89 54,-95 48,-101 42,-101"/>
<text xml:space="preserve" text-anchor="middle" x="27" y="-79.5" font-family="Arial" font-size="10.00" fill="#1a1a1a">legend</text>
</g>
<!-- attr_4 -->
<g id="node11" class="node">
<title>attr_4</title>
<path fill="#c7b8e6" stroke="#7f8c8d" stroke-width="1.2" d="M195.5,-134C195.5,-134 109,-134 109,-134 103,-134 97,-128 97,-122 97,-122 97,-110 97,-110 97,-104 103,-98 109,-98 109,-98 195.5,-98 195.5,-98 201.5,-98 207.5,-104 207.5,-110 207.5,-110 207.5,-122 207.5,-122 207.5,-128 201.5,-134 195.5,-134"/>
<text xml:space="preserve" text-anchor="middle" x="152.25" y="-112.5" font-family="Arial" font-size="10.00" fill="#1a1a1a">(+) absent color guide</text>
</g>
<!-- furniture.legend&#45;&gt;attr_4 -->
<g id="edge5" class="edge">
<title>furniture.legend&#45;&gt;attr_4</title>
<path fill="none" stroke="#aaaaaa" d="M54.74,-90.16C64.7,-92.83 76.46,-95.97 88.28,-99.14"/>
<polygon fill="#aaaaaa" stroke="#aaaaaa" points="87.6,-101.49 95,-100.94 88.87,-96.76 87.6,-101.49"/>
</g>
<!-- rel_0 -->
<g id="node14" class="node">
<title>rel_0</title>
<path fill="#f5b8b8" stroke="#d46a6a" stroke-width="1.2" d="M184.25,-69C184.25,-69 120.25,-69 120.25,-69 114.25,-69 108.25,-63 108.25,-57 108.25,-57 108.25,-45 108.25,-45 108.25,-39 114.25,-33 120.25,-33 120.25,-33 184.25,-33 184.25,-33 190.25,-33 196.25,-39 196.25,-45 196.25,-45 196.25,-57 196.25,-57 196.25,-63 190.25,-69 184.25,-69"/>
<text xml:space="preserve" text-anchor="middle" x="152.25" y="-47.5" font-family="Arial" font-size="10.00" fill="#8b0000">absent obscures</text>
</g>
<!-- furniture.legend&#45;&gt;rel_0 -->
<g id="edge8" class="edge">
<title>furniture.legend&#45;&gt;rel_0</title>
<path fill="none" stroke="#d46a6a" stroke-width="1.5" d="M54.74,-76.06C67.52,-72.74 83.28,-68.65 98.33,-64.74"/>
<polygon fill="#d46a6a" stroke="#d46a6a" stroke-width="1.5" points="98.85,-67.5 105.89,-62.78 97.44,-62.08 98.85,-67.5"/>
</g>
<!-- unknown.color_encoding -->
<g id="node4" class="node">
<title>unknown.color_encoding</title>
<path fill="#b8e6b8" stroke="#2c3e50" stroke-width="1.8" d="M319.75,-69C319.75,-69 264.75,-69 264.75,-69 258.75,-69 252.75,-63 252.75,-57 252.75,-57 252.75,-45 252.75,-45 252.75,-39 258.75,-33 264.75,-33 264.75,-33 319.75,-33 319.75,-33 325.75,-33 331.75,-39 331.75,-45 331.75,-45 331.75,-57 331.75,-57 331.75,-63 325.75,-69 319.75,-69"/>
<text xml:space="preserve" text-anchor="middle" x="292.25" y="-47.5" font-family="Arial" font-size="10.00" fill="#1a1a1a">color encoding</text>
</g>
<!-- attr_5 -->
<g id="node12" class="node">
<title>attr_5</title>
<path fill="#c7b8e6" stroke="#7f8c8d" stroke-width="1.2" d="M491.25,-101C491.25,-101 389,-101 389,-101 383,-101 377,-95 377,-89 377,-89 377,-77 377,-77 377,-71 383,-65 389,-65 389,-65 491.25,-65 491.25,-65 497.25,-65 503.25,-71 503.25,-77 503.25,-77 503.25,-89 503.25,-89 503.25,-95 497.25,-101 491.25,-101"/>
<text xml:space="preserve" text-anchor="middle" x="440.12" y="-79.5" font-family="Arial" font-size="10.00" fill="#1a1a1a">(+) unclear color meaning</text>
</g>
<!-- unknown.color_encoding&#45;&gt;attr_5 -->
<g id="edge6" class="edge">
<title>unknown.color_encoding&#45;&gt;attr_5</title>
<path fill="none" stroke="#aaaaaa" d="M332.34,-59.58C343.49,-62.02 355.99,-64.76 368.4,-67.49"/>
<polygon fill="#aaaaaa" stroke="#aaaaaa" points="367.69,-69.84 375.06,-68.95 368.74,-65.05 367.69,-69.84"/>
</g>
<!-- rel_4 -->
<g id="node18" class="node">
<title>rel_4</title>
<path fill="#f5b8b8" stroke="#d46a6a" stroke-width="1.2" d="M481.88,-36C481.88,-36 398.38,-36 398.38,-36 392.38,-36 386.38,-30 386.38,-24 386.38,-24 386.38,-12 386.38,-12 386.38,-6 392.38,0 398.38,0 398.38,0 481.88,0 481.88,0 487.88,0 493.88,-6 493.88,-12 493.88,-12 493.88,-24 493.88,-24 493.88,-30 487.88,-36 481.88,-36"/>
<text xml:space="preserve" text-anchor="middle" x="440.12" y="-14.5" font-family="Arial" font-size="10.00" fill="#8b0000">requires expertise for</text>
</g>
<!-- unknown.color_encoding&#45;&gt;rel_4 -->
<g id="edge16" class="edge">
<title>unknown.color_encoding&#45;&gt;rel_4</title>
<path fill="none" stroke="#d46a6a" stroke-width="1.5" d="M332.34,-42.16C345.84,-39.1 361.33,-35.6 376.24,-32.22"/>
<polygon fill="#d46a6a" stroke="#d46a6a" stroke-width="1.5" points="376.54,-35.03 383.72,-30.53 375.3,-29.57 376.54,-35.03"/>
</g>
<!-- unknown.layout_structure -->
<g id="node5" class="node">
<title>unknown.layout_structure</title>
<path fill="#b8e6b8" stroke="#2c3e50" stroke-width="1.8" d="M322,-198C322,-198 262.5,-198 262.5,-198 256.5,-198 250.5,-192 250.5,-186 250.5,-186 250.5,-174 250.5,-174 250.5,-168 256.5,-162 262.5,-162 262.5,-162 322,-162 322,-162 328,-162 334,-168 334,-174 334,-174 334,-186 334,-186 334,-192 328,-198 322,-198"/>
<text xml:space="preserve" text-anchor="middle" x="292.25" y="-176.5" font-family="Arial" font-size="10.00" fill="#1a1a1a">layout structure</text>
</g>
<!-- attr_6 -->
<g id="node13" class="node">
<title>attr_6</title>
<path fill="#c7b8e6" stroke="#7f8c8d" stroke-width="1.2" d="M488.25,-231C488.25,-231 392,-231 392,-231 386,-231 380,-225 380,-219 380,-219 380,-207 380,-207 380,-201 386,-195 392,-195 392,-195 488.25,-195 488.25,-195 494.25,-195 500.25,-201 500.25,-207 500.25,-207 500.25,-219 500.25,-219 500.25,-225 494.25,-231 488.25,-231"/>
<text xml:space="preserve" text-anchor="middle" x="440.12" y="-209.5" font-family="Arial" font-size="10.00" fill="#1a1a1a">(+) no ordering structure</text>
</g>
<!-- unknown.layout_structure&#45;&gt;attr_6 -->
<g id="edge7" class="edge">
<title>unknown.layout_structure&#45;&gt;attr_6</title>
<path fill="none" stroke="#aaaaaa" d="M334.66,-189.37C346.13,-191.96 358.89,-194.85 371.44,-197.69"/>
<polygon fill="#aaaaaa" stroke="#aaaaaa" points="370.8,-200.05 378.16,-199.21 371.88,-195.28 370.8,-200.05"/>
</g>
<!-- rel_2 -->
<g id="node16" class="node">
<title>rel_2</title>
<path fill="#f5b8b8" stroke="#d46a6a" stroke-width="1.2" d="M476.62,-166C476.62,-166 403.62,-166 403.62,-166 397.62,-166 391.62,-160 391.62,-154 391.62,-154 391.62,-142 391.62,-142 391.62,-136 397.62,-130 403.62,-130 403.62,-130 476.62,-130 476.62,-130 482.62,-130 488.62,-136 488.62,-142 488.62,-142 488.62,-154 488.62,-154 488.62,-160 482.62,-166 476.62,-166"/>
<text xml:space="preserve" text-anchor="middle" x="440.12" y="-144.5" font-family="Arial" font-size="10.00" fill="#8b0000">increases effort for</text>
</g>
<!-- unknown.layout_structure&#45;&gt;rel_2 -->
<g id="edge12" class="edge">
<title>unknown.layout_structure&#45;&gt;rel_2</title>
<path fill="none" stroke="#d46a6a" stroke-width="1.5" d="M334.66,-170.92C349.24,-167.72 365.9,-164.06 381.57,-160.63"/>
<polygon fill="#d46a6a" stroke="#d46a6a" stroke-width="1.5" points="381.74,-163.46 388.95,-159.01 380.54,-157.99 381.74,-163.46"/>
</g>
<!-- unknown.nodes -->
<g id="node6" class="node">
<title>unknown.nodes</title>
<path fill="#b8e6b8" stroke="#2c3e50" stroke-width="1.8" d="M872.75,-133C872.75,-133 842.75,-133 842.75,-133 836.75,-133 830.75,-127 830.75,-121 830.75,-121 830.75,-109 830.75,-109 830.75,-103 836.75,-97 842.75,-97 842.75,-97 872.75,-97 872.75,-97 878.75,-97 884.75,-103 884.75,-109 884.75,-109 884.75,-121 884.75,-121 884.75,-127 878.75,-133 872.75,-133"/>
<text xml:space="preserve" text-anchor="middle" x="857.75" y="-111.5" font-family="Arial" font-size="10.00" fill="#1a1a1a">nodes</text>
</g>
<!-- rel_0&#45;&gt;unknown.color_encoding -->
<g id="edge9" class="edge">
<title>rel_0&#45;&gt;unknown.color_encoding</title>
<path fill="none" stroke="#d46a6a" stroke-width="1.5" d="M196.54,-51C210.92,-51 227.05,-51 241.86,-51"/>
<polygon fill="#d46a6a" stroke="#d46a6a" stroke-width="1.5" points="241.6,-53.8 249.6,-51 241.6,-48.2 241.6,-53.8"/>
</g>
<!-- rel_1&#45;&gt;unknown.nodes -->
<g id="edge11" class="edge">
<title>rel_1&#45;&gt;unknown.nodes</title>
<path fill="none" stroke="#d46a6a" stroke-width="1.5" d="M755.99,-32.1C766.53,-37.12 777.96,-43.23 787.75,-50 804.04,-61.27 820.27,-76.31 832.89,-89.09"/>
<polygon fill="#d46a6a" stroke="#d46a6a" stroke-width="1.5" points="830.72,-90.87 838.3,-94.67 834.74,-86.98 830.72,-90.87"/>
</g>
<!-- rel_2&#45;&gt;unknown.lines -->
<g id="edge13" class="edge">
<title>rel_2&#45;&gt;unknown.lines</title>
<path fill="none" stroke="#d46a6a" stroke-width="1.5" d="M479.98,-129.55C499.45,-120.3 522.88,-109.17 541.95,-100.12"/>
<polygon fill="#d46a6a" stroke="#d46a6a" stroke-width="1.5" points="543.13,-102.66 549.15,-96.7 540.72,-97.6 543.13,-102.66"/>
</g>
<!-- rel_3&#45;&gt;unknown.nodes -->
<g id="edge15" class="edge">
<title>rel_3&#45;&gt;unknown.nodes</title>
<path fill="none" stroke="#d46a6a" stroke-width="1.5" d="M764.92,-194.54C772.76,-190.49 780.69,-185.92 787.75,-181 804.23,-169.51 820.58,-154.1 833.22,-141.07"/>
<polygon fill="#d46a6a" stroke="#d46a6a" stroke-width="1.5" points="835.16,-143.09 838.64,-135.36 831.1,-139.23 835.16,-143.09"/>
</g>
<!-- rel_4&#45;&gt;unknown.lines -->
<g id="edge17" class="edge">
<title>rel_4&#45;&gt;unknown.lines</title>
<path fill="none" stroke="#d46a6a" stroke-width="1.5" d="M479.98,-36.45C499.45,-45.7 522.88,-56.83 541.95,-65.88"/>
<polygon fill="#d46a6a" stroke="#d46a6a" stroke-width="1.5" points="540.72,-68.4 549.15,-69.3 543.13,-63.34 540.72,-68.4"/>
</g>
</g>
</svg>
