<?xml version="1.0" encoding="UTF-8" standalone="no"?>
<!DOCTYPE svg PUBLIC "-//W3C//DTD SVG 1.1//EN"
 "http://www.w3.org/Graphics/SVG/1.1/DTD/svg11.dtd">
<!-- Generated by graphviz version 14.1.5 (20260411.2331)
 -->
<!-- Title: VASTJ.1612.1(3).png Pages: 1 -->
<svg width="563pt" height="505pt"
 viewBox="0.00 0.00 563.00 505.00" xmlns="http://www.w3.org/2000/svg" xmlns:xlink="http://www.w3.org/1999/xlink">
<g id="graph0" class="graph" transform="scale(1 1) rotate(0) translate(4 501.25)">
<title>VASTJ.1612.1(3).png</title>
<polygon fill="white" stroke="none" points="-4,4 -4,-501.25 558.5,-501.25 558.5,4 -4,4"/>
<text xml:space="preserve" text-anchor="start" x="210.88" y="-476.95" font-family="Arial" font-weight="bold" font-size="14.00">VASTJ.1612.1(3).png</text>
<text xml:space="preserve" text-anchor="start" x="235.25" y="-457" font-family="Arial" font-size="11.00">Text &#160;| &#160;VC = 0.68</text>
<path fill="#b8e6b8" stroke="none" d="M67.88,-432C67.88,-432 75.88,-432 75.88,-432 78.88,-432 81.88,-435 81.88,-438 81.88,-438 81.88,-444 81.88,-444 81.88,-447 78.88,-450 75.88,-450 75.88,-450 67.88,-450 67.88,-450 64.88,-450 61.88,-447 61.88,-444 61.88,-444 61.88,-438 61.88,-438 61.88,-435 64.88,-432 67.88,-432"/>
<path fill="none" stroke="black" d="M67.88,-432C67.88,-432 75.88,-432 75.88,-432 78.88,-432 81.88,-435 81.88,-438 81.88,-438 81.88,-444 81.88,-444 81.88,-447 78.88,-450 75.88,-450 75.88,-450 67.88,-450 67.88,-450 64.88,-450 61.88,-447 61.88,-444 61.88,-444 61.88,-438 61.88,-438 61.88,-435 64.88,-432 67.88,-432"/>
<text xml:space="preserve" text-anchor="start" x="70.38" y="-437.25" font-family="Arial" font-size="10.00"> </text>
<text xml:space="preserve" text-anchor="start" x="85.88" y="-437.25" font-family="Arial" font-size="10.00">Object</text>
<path fill="#c7b8e6" stroke="none" d="M124.38,-432C124.38,-432 132.38,-432 132.38,-432 135.38,-432 138.38,-435 138.38,-438 138.38,-438 138.38,-444 138.38,-444 138.38,-447 135.38,-450 132.38,-450 132.38,-450 124.38,-450 124.38,-450 121.38,-450 118.38,-447 118.38,-444 118.38,-444 118.38,-438 118.38,-438 118.38,-435 121.38,-432 124.38,-432"/>
<path fill="none" stroke="black" d="M124.38,-432C124.38,-432 132.38,-432 132.38,-432 135.38,-432 138.38,-435 138.38,-438 138.38,-438 138.38,-444 138.38,-444 138.38,-447 135.38,-450 132.38,-450 132.38,-450 124.38,-450 124.38,-450 121.38,-450 118.38,-447 118.38,-444 118.38,-444 118.38,-438 118.38,-438 118.38,-435 121.38,-432 124.38,-432"/>
<text xml:space="preserve" text-anchor="start" x="126.88" y="-437.25" font-family="Arial" font-size="10.00"> </text>
<text xml:space="preserve" text-anchor="start" x="142.38" y="-437.25" font-family="Arial" font-size="10.00">Attribute</text>
<path fill="#f5b8b8" stroke="none" d="M189.12,-432C189.12,-432 197.12,-432 197.12,-432 200.12,-432 203.12,-435 203.12,-438 203.12,-438 203.12,-444 203.12,-444 203.12,-447 200.12,-450 197.12,-450 197.12,-450 189.12,-450 189.12,-450 186.12,-450 183.12,-447 183.12,-444 183.12,-444 183.12,-438 183.12,-438 183.12,-435 186.12,-432 189.12,-432"/>
<path fill="none" stroke="black" d="M189.12,-432C189.12,-432 197.12,-432 197.12,-432 200.12,-432 203.12,-435 203.12,-438 203.12,-438 203.12,-444 203.12,-444 203.12,-447 200.12,-450 197.12,-450 197.12,-450 189.12,-450 189.12,-450 186.12,-450 183.12,-447 183.12,-444 183.12,-444 183.12,-438 183.12,-438 183.12,-435 186.12,-432 189.12,-432"/>
<text xml:space="preserve" text-anchor="start" x="191.62" y="-437.25" font-family="Arial" font-size="10.00"> </text>
<text xml:space="preserve" text-anchor="start" x="207.12" y="-437.25" font-family="Arial" font-size="10.00">Relationship</text>
<text xml:space="preserve" text-anchor="start" x="267.12" y="-438.5" font-family="Arial" font-weight="bold" font-size="10.00">(+)</text>
<text xml:space="preserve" text-anchor="start" x="279.12" y="-438.5" font-family="Arial" font-size="10.00"> increases complexity</text>
<text xml:space="preserve" text-anchor="start" x="380.38" y="-438.5" font-family="Arial" font-weight="bold" font-size="10.00">(−)</text>
<text xml:space="preserve" text-anchor="start" x="392.38" y="-438.5" font-family="Arial" font-size="10.00"> decreases complexity</text>
<!-- unknown.text_elements -->
<g id="node1" class="node">
<title>unknown.text_elements</title>
<path fill="#b8e6b8" stroke="#2c3e50" stroke-width="1.8" d="M63.25,-361C63.25,-361 12,-361 12,-361 6,-361 0,-355 0,-349 0,-349 0,-337 0,-337 0,-331 6,-325 12,-325 12,-325 63.25,-325 63.25,-325 69.25,-325 75.25,-331 75.25,-337 75.25,-337 75.25,-349 75.25,-349 75.25,-355 69.25,-361 63.25,-361"/>
<text xml:space="preserve" text-anchor="middle" x="37.62" y="-339.5" font-family="Arial" font-size="10.00" fill="#1a1a1a">text elements</text>
</g>
<!-- attr_0 -->
<g id="node6" class="node">
<title>attr_0</title>
<path fill="#c7b8e6" stroke="#7f8c8d" stroke-width="1.2" d="M261.75,-361C261.75,-361 130.25,-361 130.25,-361 124.25,-361 118.25,-355 118.25,-349 118.25,-349 118.25,-337 118.25,-337 118.25,-331 124.25,-325 130.25,-325 130.25,-325 261.75,-325 261.75,-325 267.75,-325 273.75,-331 273.75,-337 273.75,-337 273.75,-349 273.75,-349 273.75,-355 267.75,-361 261.75,-361"/>
<text xml:space="preserve" text-anchor="middle" x="196" y="-339.5" font-family="Arial" font-size="10.00" fill="#1a1a1a">(+) intermingled mixed elements</text>
</g>
<!-- unknown.text_elements&#45;&gt;attr_0 -->
<g id="edge1" class="edge">
<title>unknown.text_elements&#45;&gt;attr_0</title>
<path fill="none" stroke="#aaaaaa" d="M76.08,-343C86.36,-343 97.94,-343 109.74,-343"/>
<polygon fill="#aaaaaa" stroke="#aaaaaa" points="109.41,-345.45 116.41,-343 109.41,-340.55 109.41,-345.45"/>
</g>
<!-- rel_0 -->
<g id="node11" class="node">
<title>rel_0</title>
<path fill="#f5b8b8" stroke="#d46a6a" stroke-width="1.2" d="M211,-296C211,-296 181,-296 181,-296 175,-296 169,-290 169,-284 169,-284 169,-272 169,-272 169,-266 175,-260 181,-260 181,-260 211,-260 211,-260 217,-260 223,-266 223,-272 223,-272 223,-284 223,-284 223,-290 217,-296 211,-296"/>
<text xml:space="preserve" text-anchor="middle" x="196" y="-274.5" font-family="Arial" font-size="10.00" fill="#8b0000">creates</text>
</g>
<!-- unknown.text_elements&#45;&gt;rel_0 -->
<g id="edge6" class="edge">
<title>unknown.text_elements&#45;&gt;rel_0</title>
<path fill="none" stroke="#d46a6a" stroke-width="1.5" d="M76.08,-327.43C101.29,-316.95 134.33,-303.22 159.19,-292.89"/>
<polygon fill="#d46a6a" stroke="#d46a6a" stroke-width="1.5" points="160.21,-295.5 166.52,-289.84 158.06,-290.32 160.21,-295.5"/>
</g>
<!-- rel_3 -->
<g id="node14" class="node">
<title>rel_3</title>
<path fill="#f5b8b8" stroke="#d46a6a" stroke-width="1.2" d="M211.88,-426C211.88,-426 180.12,-426 180.12,-426 174.12,-426 168.12,-420 168.12,-414 168.12,-414 168.12,-402 168.12,-402 168.12,-396 174.12,-390 180.12,-390 180.12,-390 211.88,-390 211.88,-390 217.88,-390 223.88,-396 223.88,-402 223.88,-402 223.88,-414 223.88,-414 223.88,-420 217.88,-426 211.88,-426"/>
<text xml:space="preserve" text-anchor="middle" x="196" y="-404.5" font-family="Arial" font-size="10.00" fill="#8b0000">obscures</text>
</g>
<!-- unknown.text_elements&#45;&gt;rel_3 -->
<g id="edge12" class="edge">
<title>unknown.text_elements&#45;&gt;rel_3</title>
<path fill="none" stroke="#d46a6a" stroke-width="1.5" d="M76.08,-358.57C100.97,-368.91 133.49,-382.43 158.24,-392.72"/>
<polygon fill="#d46a6a" stroke="#d46a6a" stroke-width="1.5" points="157.09,-395.27 165.55,-395.76 159.24,-390.1 157.09,-395.27"/>
</g>
<!-- unknown.visual_layout -->
<g id="node2" class="node">
<title>unknown.visual_layout</title>
<path fill="#b8e6b8" stroke="#2c3e50" stroke-width="1.8" d="M375.5,-231C375.5,-231 328.75,-231 328.75,-231 322.75,-231 316.75,-225 316.75,-219 316.75,-219 316.75,-207 316.75,-207 316.75,-201 322.75,-195 328.75,-195 328.75,-195 375.5,-195 375.5,-195 381.5,-195 387.5,-201 387.5,-207 387.5,-207 387.5,-219 387.5,-219 387.5,-225 381.5,-231 375.5,-231"/>
<text xml:space="preserve" text-anchor="middle" x="352.12" y="-209.5" font-family="Arial" font-size="10.00" fill="#1a1a1a">visual layout</text>
</g>
<!-- attr_1 -->
<g id="node7" class="node">
<title>attr_1</title>
<path fill="#c7b8e6" stroke="#7f8c8d" stroke-width="1.2" d="M542.5,-231C542.5,-231 442.5,-231 442.5,-231 436.5,-231 430.5,-225 430.5,-219 430.5,-219 430.5,-207 430.5,-207 430.5,-201 436.5,-195 442.5,-195 442.5,-195 542.5,-195 542.5,-195 548.5,-195 554.5,-201 554.5,-207 554.5,-207 554.5,-219 554.5,-219 554.5,-225 548.5,-231 542.5,-231"/>
<text xml:space="preserve" text-anchor="middle" x="492.5" y="-209.5" font-family="Arial" font-size="10.00" fill="#1a1a1a">(+) difficult to understand</text>
</g>
<!-- unknown.visual_layout&#45;&gt;attr_1 -->
<g id="edge2" class="edge">
<title>unknown.visual_layout&#45;&gt;attr_1</title>
<path fill="none" stroke="#aaaaaa" d="M388.04,-213C398.29,-213 409.87,-213 421.49,-213"/>
<polygon fill="#aaaaaa" stroke="#aaaaaa" points="421.42,-215.45 428.42,-213 421.42,-210.55 421.42,-215.45"/>
</g>
<!-- unknown.data_content -->
<g id="node3" class="node">
<title>unknown.data_content</title>
<path fill="#b8e6b8" stroke="#2c3e50" stroke-width="1.8" d="M60.62,-199C60.62,-199 14.63,-199 14.63,-199 8.62,-199 2.62,-193 2.62,-187 2.62,-187 2.62,-175 2.62,-175 2.62,-169 8.62,-163 14.62,-163 14.62,-163 60.62,-163 60.62,-163 66.62,-163 72.62,-169 72.62,-175 72.62,-175 72.62,-187 72.62,-187 72.62,-193 66.62,-199 60.62,-199"/>
<text xml:space="preserve" text-anchor="middle" x="37.62" y="-177.5" font-family="Arial" font-size="10.00" fill="#1a1a1a">data content</text>
</g>
<!-- attr_2 -->
<g id="node8" class="node">
<title>attr_2</title>
<path fill="#c7b8e6" stroke="#7f8c8d" stroke-width="1.2" d="M250.5,-166C250.5,-166 141.5,-166 141.5,-166 135.5,-166 129.5,-160 129.5,-154 129.5,-154 129.5,-142 129.5,-142 129.5,-136 135.5,-130 141.5,-130 141.5,-130 250.5,-130 250.5,-130 256.5,-130 262.5,-136 262.5,-142 262.5,-142 262.5,-154 262.5,-154 262.5,-160 256.5,-166 250.5,-166"/>
<text xml:space="preserve" text-anchor="middle" x="196" y="-144.5" font-family="Arial" font-size="10.00" fill="#1a1a1a">(+) many elements present</text>
</g>
<!-- unknown.data_content&#45;&gt;attr_2 -->
<g id="edge3" class="edge">
<title>unknown.data_content&#45;&gt;attr_2</title>
<path fill="none" stroke="#aaaaaa" d="M73.33,-173.68C87.4,-170.71 104.23,-167.15 120.82,-163.65"/>
<polygon fill="#aaaaaa" stroke="#aaaaaa" points="121.11,-166.1 127.45,-162.26 120.09,-161.3 121.11,-166.1"/>
</g>
<!-- rel_1 -->
<g id="node12" class="node">
<title>rel_1</title>
<path fill="#f5b8b8" stroke="#d46a6a" stroke-width="1.2" d="M218.25,-231C218.25,-231 173.75,-231 173.75,-231 167.75,-231 161.75,-225 161.75,-219 161.75,-219 161.75,-207 161.75,-207 161.75,-201 167.75,-195 173.75,-195 173.75,-195 218.25,-195 218.25,-195 224.25,-195 230.25,-201 230.25,-207 230.25,-207 230.25,-219 230.25,-219 230.25,-225 224.25,-231 218.25,-231"/>
<text xml:space="preserve" text-anchor="middle" x="196" y="-209.5" font-family="Arial" font-size="10.00" fill="#8b0000">overwhelms</text>
</g>
<!-- unknown.data_content&#45;&gt;rel_1 -->
<g id="edge8" class="edge">
<title>unknown.data_content&#45;&gt;rel_1</title>
<path fill="none" stroke="#d46a6a" stroke-width="1.5" d="M73.33,-188.1C96.34,-192.81 126.73,-199.03 151.37,-204.07"/>
<polygon fill="#d46a6a" stroke="#d46a6a" stroke-width="1.5" points="150.58,-206.77 158.97,-205.63 151.7,-201.28 150.58,-206.77"/>
</g>
<!-- unknown.annotations -->
<g id="node4" class="node">
<title>unknown.annotations</title>
<path fill="#b8e6b8" stroke="#2c3e50" stroke-width="1.8" d="M373.25,-426C373.25,-426 331,-426 331,-426 325,-426 319,-420 319,-414 319,-414 319,-402 319,-402 319,-396 325,-390 331,-390 331,-390 373.25,-390 373.25,-390 379.25,-390 385.25,-396 385.25,-402 385.25,-402 385.25,-414 385.25,-414 385.25,-420 379.25,-426 373.25,-426"/>
<text xml:space="preserve" text-anchor="middle" x="352.12" y="-404.5" font-family="Arial" font-size="10.00" fill="#1a1a1a">annotations</text>
</g>
<!-- attr_4 -->
<g id="node9" class="node">
<title>attr_4</title>
<path fill="#c7b8e6" stroke="#7f8c8d" stroke-width="1.2" d="M530.12,-426C530.12,-426 454.88,-426 454.88,-426 448.88,-426 442.88,-420 442.88,-414 442.88,-414 442.88,-402 442.88,-402 442.88,-396 448.88,-390 454.88,-390 454.88,-390 530.12,-390 530.12,-390 536.12,-390 542.12,-396 542.12,-402 542.12,-402 542.12,-414 542.12,-414 542.12,-420 536.12,-426 530.12,-426"/>
<text xml:space="preserve" text-anchor="middle" x="492.5" y="-404.5" font-family="Arial" font-size="10.00" fill="#1a1a1a">(+) hard to interpret</text>
</g>
<!-- unknown.annotations&#45;&gt;attr_4 -->
<g id="edge4" class="edge">
<title>unknown.annotations&#45;&gt;attr_4</title>
<path fill="none" stroke="#aaaaaa" d="M385.92,-408C400.28,-408 417.56,-408 433.95,-408"/>
<polygon fill="#aaaaaa" stroke="#aaaaaa" points="433.9,-410.45 440.9,-408 433.9,-405.55 433.9,-410.45"/>
</g>
<!-- unknown.structure -->
<g id="node5" class="node">
<title>unknown.structure</title>
<path fill="#b8e6b8" stroke="#2c3e50" stroke-width="1.8" d="M52.75,-69C52.75,-69 22.5,-69 22.5,-69 16.5,-69 10.5,-63 10.5,-57 10.5,-57 10.5,-45 10.5,-45 10.5,-39 16.5,-33 22.5,-33 22.5,-33 52.75,-33 52.75,-33 58.75,-33 64.75,-39 64.75,-45 64.75,-45 64.75,-57 64.75,-57 64.75,-63 58.75,-69 52.75,-69"/>
<text xml:space="preserve" text-anchor="middle" x="37.62" y="-47.5" font-family="Arial" font-size="10.00" fill="#1a1a1a">structure</text>
</g>
<!-- attr_3 -->
<g id="node10" class="node">
<title>attr_3</title>
<path fill="#c7b8e6" stroke="#7f8c8d" stroke-width="1.2" d="M252,-36C252,-36 140,-36 140,-36 134,-36 128,-30 128,-24 128,-24 128,-12 128,-12 128,-6 134,0 140,0 140,0 252,0 252,0 258,0 264,-6 264,-12 264,-12 264,-24 264,-24 264,-30 258,-36 252,-36"/>
<text xml:space="preserve" text-anchor="middle" x="196" y="-14.5" font-family="Arial" font-size="10.00" fill="#1a1a1a">(+) lacks coherent structure</text>
</g>
<!-- unknown.structure&#45;&gt;attr_3 -->
<g id="edge5" class="edge">
<title>unknown.structure&#45;&gt;attr_3</title>
<path fill="none" stroke="#aaaaaa" d="M65.51,-45.33C80.48,-42.17 99.96,-38.06 119.23,-33.99"/>
<polygon fill="#aaaaaa" stroke="#aaaaaa" points="119.64,-36.41 125.99,-32.56 118.63,-31.61 119.64,-36.41"/>
</g>
<!-- rel_2 -->
<g id="node13" class="node">
<title>rel_2</title>
<path fill="#f5b8b8" stroke="#d46a6a" stroke-width="1.2" d="M213,-101C213,-101 179,-101 179,-101 173,-101 167,-95 167,-89 167,-89 167,-77 167,-77 167,-71 173,-65 179,-65 179,-65 213,-65 213,-65 219,-65 225,-71 225,-77 225,-77 225,-89 225,-89 225,-95 219,-101 213,-101"/>
<text xml:space="preserve" text-anchor="middle" x="196" y="-79.5" font-family="Arial" font-size="10.00" fill="#8b0000">increases</text>
</g>
<!-- unknown.structure&#45;&gt;rel_2 -->
<g id="edge10" class="edge">
<title>unknown.structure&#45;&gt;rel_2</title>
<path fill="none" stroke="#d46a6a" stroke-width="1.5" d="M65.51,-56.5C90.63,-61.64 128.4,-69.37 156.67,-75.16"/>
<polygon fill="#d46a6a" stroke="#d46a6a" stroke-width="1.5" points="156,-77.88 164.4,-76.74 157.12,-72.39 156,-77.88"/>
</g>
<!-- rel_0&#45;&gt;unknown.visual_layout -->
<g id="edge7" class="edge">
<title>rel_0&#45;&gt;unknown.visual_layout</title>
<path fill="none" stroke="#d46a6a" stroke-width="1.5" d="M223.5,-266.83C246.36,-257.18 279.86,-243.05 306.8,-231.69"/>
<polygon fill="#d46a6a" stroke="#d46a6a" stroke-width="1.5" points="307.66,-234.37 313.94,-228.68 305.48,-229.21 307.66,-234.37"/>
</g>
<!-- rel_1&#45;&gt;unknown.visual_layout -->
<g id="edge9" class="edge">
<title>rel_1&#45;&gt;unknown.visual_layout</title>
<path fill="none" stroke="#d46a6a" stroke-width="1.5" d="M230.82,-213C252.92,-213 282.03,-213 306.08,-213"/>
<polygon fill="#d46a6a" stroke="#d46a6a" stroke-width="1.5" points="305.77,-215.8 313.77,-213 305.77,-210.2 305.77,-215.8"/>
</g>
<!-- rel_2&#45;&gt;unknown.visual_layout -->
<g id="edge11" class="edge">
<title>rel_2&#45;&gt;unknown.visual_layout</title>
<path fill="none" stroke="#d46a6a" stroke-width="1.5" d="M225.43,-91C240.73,-96.21 259.37,-104.1 273.75,-115 299.41,-134.45 321.34,-164.32 335.23,-185.98"/>
<polygon fill="#d46a6a" stroke="#d46a6a" stroke-width="1.5" points="332.69,-187.18 339.3,-192.48 337.43,-184.21 332.69,-187.18"/>
</g>
<!-- rel_3&#45;&gt;unknown.annotations -->
<g id="edge13" class="edge">
<title>rel_3&#45;&gt;unknown.annotations</title>
<path fill="none" stroke="#d46a6a" stroke-width="1.5" d="M224.2,-408C247.49,-408 281.44,-408 308.37,-408"/>
<polygon fill="#d46a6a" stroke="#d46a6a" stroke-width="1.5" points="308.04,-410.8 316.04,-408 308.04,-405.2 308.04,-410.8"/>
</g>
</g>
</svg>
