<?xml version="1.0" encoding="UTF-8" standalone="no"?>
<!DOCTYPE svg PUBLIC "-//W3C//DTD SVG 1.1//EN"
 "http://www.w3.org/Graphics/SVG/1.1/DTD/svg11.dtd">
<!-- Generated by graphviz version 14.1.5 (20260411.2331)
 -->
<!-- Title: VASTJ.432.6.png Pages: 1 -->
<svg width="526pt" height="505pt"
 viewBox="0.00 0.00 526.00 505.00" xmlns="http://www.w3.org/2000/svg" xmlns:xlink="http://www.w3.org/1999/xlink">
<g id="graph0" class="graph" transform="scale(1 1) rotate(0) translate(4 501.25)">
<title>VASTJ.432.6.png</title>
<polygon fill="white" stroke="none" points="-4,4 -4,-501.25 521.5,-501.25 521.5,4 -4,4"/>
<text xml:space="preserve" text-anchor="start" x="204.38" y="-476.95" font-family="Arial" font-weight="bold" font-size="14.00">VASTJ.432.6.png</text>
<text xml:space="preserve" text-anchor="start" x="217.88" y="-457" font-family="Arial" font-size="11.00">Bar &#160;| &#160;VC = 0.30</text>
<path fill="#b8e6b8" stroke="none" d="M49.38,-432C49.38,-432 57.38,-432 57.38,-432 60.38,-432 63.38,-435 63.38,-438 63.38,-438 63.38,-444 63.38,-444 63.38,-447 60.38,-450 57.38,-450 57.38,-450 49.38,-450 49.38,-450 46.38,-450 43.38,-447 43.38,-444 43.38,-444 43.38,-438 43.38,-438 43.38,-435 46.38,-432 49.38,-432"/>
<path fill="none" stroke="black" d="M49.38,-432C49.38,-432 57.38,-432 57.38,-432 60.38,-432 63.38,-435 63.38,-438 63.38,-438 63.38,-444 63.38,-444 63.38,-447 60.38,-450 57.38,-450 57.38,-450 49.38,-450 49.38,-450 46.38,-450 43.38,-447 43.38,-444 43.38,-444 43.38,-438 43.38,-438 43.38,-435 46.38,-432 49.38,-432"/>
<text xml:space="preserve" text-anchor="start" x="51.88" y="-437.25" font-family="Arial" font-size="10.00"> </text>
<text xml:space="preserve" text-anchor="start" x="67.38" y="-437.25" font-family="Arial" font-size="10.00">Object</text>
<path fill="#c7b8e6" stroke="none" d="M105.88,-432C105.88,-432 113.88,-432 113.88,-432 116.88,-432 119.88,-435 119.88,-438 119.88,-438 119.88,-444 119.88,-444 119.88,-447 116.88,-450 113.88,-450 113.88,-450 105.88,-450 105.88,-450 102.88,-450 99.88,-447 99.88,-444 99.88,-444 99.88,-438 99.88,-438 99.88,-435 102.88,-432 105.88,-432"/>
<path fill="none" stroke="black" d="M105.88,-432C105.88,-432 113.88,-432 113.88,-432 116.88,-432 119.88,-435 119.88,-438 119.88,-438 119.88,-444 119.88,-444 119.88,-447 116.88,-450 113.88,-450 113.88,-450 105.88,-450 105.88,-450 102.88,-450 99.88,-447 99.88,-444 99.88,-444 99.88,-438 99.88,-438 99.88,-435 102.88,-432 105.88,-432"/>
<text xml:space="preserve" text-anchor="start" x="108.38" y="-437.25" font-family="Arial" font-size="10.00"> </text>
<text xml:space="preserve" text-anchor="start" x="123.88" y="-437.25" font-family="Arial" font-size="10.00">Attribute</text>
<path fill="#f5b8b8" stroke="none" d="M170.62,-432C170.62,-432 178.62,-432 178.62,-432 181.62,-432 184.62,-435 184.62,-438 184.62,-438 184.62,-444 184.62,-444 184.62,-447 181.62,-450 178.62,-450 178.62,-450 170.62,-450 170.62,-450 167.62,-450 164.62,-447 164.62,-444 164.62,-444 164.62,-438 164.62,-438 164.62,-435 167.62,-432 170.62,-432"/>
<path fill="none" stroke="black" d="M170.62,-432C170.62,-432 178.62,-432 178.62,-432 181.62,-432 184.62,-435 184.62,-438 184.62,-438 184.62,-444 184.62,-444 184.62,-447 181.62,-450 178.62,-450 178.62,-450 170.62,-450 170.62,-450 167.62,-450 164.62,-447 164.62,-444 164.62,-444 164.62,-438 164.62,-438 164.62,-435 167.62,-432 170.62,-432"/>
<text xml:space="preserve" text-anchor="start" x="173.12" y="-437.25" font-family="Arial" font-size="10.00"> </text>
<text xml:space="preserve" text-anchor="start" x="188.62" y="-437.25" font-family="Arial" font-size="10.00">Relationship</text>
<text xml:space="preserve" text-anchor="start" x="248.62" y="-438.5" font-family="Arial" font-weight="bold" font-size="10.00">(+)</text>
<text xml:space="preserve" text-anchor="start" x="260.62" y="-438.5" font-family="Arial" font-size="10.00"> increases complexity</text>
<text xml:space="preserve" text-anchor="start" x="361.88" y="-438.5" font-family="Arial" font-weight="bold" font-size="10.00">(−)</text>
<text xml:space="preserve" text-anchor="start" x="373.88" y="-438.5" font-family="Arial" font-size="10.00"> decreases complexity</text>
<!-- mark.bar -->
<g id="node1" class="node">
<title>mark.bar</title>
<path fill="#b8e6b8" stroke="#2c3e50" stroke-width="1.8" d="M333.25,-231C333.25,-231 303.25,-231 303.25,-231 297.25,-231 291.25,-225 291.25,-219 291.25,-219 291.25,-207 291.25,-207 291.25,-201 297.25,-195 303.25,-195 303.25,-195 333.25,-195 333.25,-195 339.25,-195 345.25,-201 345.25,-207 345.25,-207 345.25,-219 345.25,-219 345.25,-225 339.25,-231 333.25,-231"/>
<text xml:space="preserve" text-anchor="middle" x="318.25" y="-209.5" font-family="Arial" font-size="10.00" fill="#1a1a1a">bar</text>
</g>
<!-- attr_0 -->
<g id="node5" class="node">
<title>attr_0</title>
<path fill="#c7b8e6" stroke="#7f8c8d" stroke-width="1.2" d="M505.5,-231C505.5,-231 400.25,-231 400.25,-231 394.25,-231 388.25,-225 388.25,-219 388.25,-219 388.25,-207 388.25,-207 388.25,-201 394.25,-195 400.25,-195 400.25,-195 505.5,-195 505.5,-195 511.5,-195 517.5,-201 517.5,-207 517.5,-207 517.5,-219 517.5,-219 517.5,-225 511.5,-231 505.5,-231"/>
<text xml:space="preserve" text-anchor="middle" x="452.88" y="-209.5" font-family="Arial" font-size="10.00" fill="#1a1a1a">(−) clearly readable marks</text>
</g>
<!-- mark.bar&#45;&gt;attr_0 -->
<g id="edge1" class="edge">
<title>mark.bar&#45;&gt;attr_0</title>
<path fill="none" stroke="#aaaaaa" d="M346.09,-213C355.93,-213 367.59,-213 379.52,-213"/>
<polygon fill="#aaaaaa" stroke="#aaaaaa" points="379.28,-215.45 386.28,-213 379.28,-210.55 379.28,-215.45"/>
</g>
<!-- text.axis_label -->
<g id="node2" class="node">
<title>text.axis_label</title>
<path fill="#b8e6b8" stroke="#2c3e50" stroke-width="1.8" d="M53.5,-393C53.5,-393 20.25,-393 20.25,-393 14.25,-393 8.25,-387 8.25,-381 8.25,-381 8.25,-369 8.25,-369 8.25,-363 14.25,-357 20.25,-357 20.25,-357 53.5,-357 53.5,-357 59.5,-357 65.5,-363 65.5,-369 65.5,-369 65.5,-381 65.5,-381 65.5,-387 59.5,-393 53.5,-393"/>
<text xml:space="preserve" text-anchor="middle" x="36.88" y="-371.5" font-family="Arial" font-size="10.00" fill="#1a1a1a">axis label</text>
</g>
<!-- attr_1 -->
<g id="node6" class="node">
<title>attr_1</title>
<path fill="#c7b8e6" stroke="#7f8c8d" stroke-width="1.2" d="M236.25,-426C236.25,-426 128.75,-426 128.75,-426 122.75,-426 116.75,-420 116.75,-414 116.75,-414 116.75,-402 116.75,-402 116.75,-396 122.75,-390 128.75,-390 128.75,-390 236.25,-390 236.25,-390 242.25,-390 248.25,-396 248.25,-402 248.25,-402 248.25,-414 248.25,-414 248.25,-420 242.25,-426 236.25,-426"/>
<text xml:space="preserve" text-anchor="middle" x="182.5" y="-404.5" font-family="Arial" font-size="10.00" fill="#1a1a1a">(−) straightforward labeling</text>
</g>
<!-- text.axis_label&#45;&gt;attr_1 -->
<g id="edge2" class="edge">
<title>text.axis_label&#45;&gt;attr_1</title>
<path fill="none" stroke="#aaaaaa" d="M66.25,-381.52C78.39,-384.31 93.18,-387.71 108.07,-391.13"/>
<polygon fill="#aaaaaa" stroke="#aaaaaa" points="107.49,-393.51 114.86,-392.69 108.58,-388.73 107.49,-393.51"/>
</g>
<!-- rel_0 -->
<g id="node10" class="node">
<title>rel_0</title>
<path fill="#f5b8b8" stroke="#d46a6a" stroke-width="1.2" d="M220.12,-361C220.12,-361 144.88,-361 144.88,-361 138.88,-361 132.88,-355 132.88,-349 132.88,-349 132.88,-337 132.88,-337 132.88,-331 138.88,-325 144.88,-325 144.88,-325 220.12,-325 220.12,-325 226.12,-325 232.12,-331 232.12,-337 232.12,-337 232.12,-349 232.12,-349 232.12,-355 226.12,-361 220.12,-361"/>
<text xml:space="preserve" text-anchor="middle" x="182.5" y="-339.5" font-family="Arial" font-size="10.00" fill="#8b0000">supports reading of</text>
</g>
<!-- text.axis_label&#45;&gt;rel_0 -->
<g id="edge6" class="edge">
<title>text.axis_label&#45;&gt;rel_0</title>
<path fill="none" stroke="#d46a6a" stroke-width="1.5" d="M66.25,-368.68C82.33,-365.09 103.07,-360.47 122.51,-356.14"/>
<polygon fill="#d46a6a" stroke="#d46a6a" stroke-width="1.5" points="123.11,-358.88 130.31,-354.41 121.89,-353.41 123.11,-358.88"/>
</g>
<!-- furniture.legend -->
<g id="node3" class="node">
<title>furniture.legend</title>
<path fill="#b8e6b8" stroke="#2c3e50" stroke-width="1.8" d="M51.88,-264C51.88,-264 21.88,-264 21.88,-264 15.88,-264 9.88,-258 9.88,-252 9.88,-252 9.88,-240 9.88,-240 9.88,-234 15.88,-228 21.88,-228 21.88,-228 51.88,-228 51.88,-228 57.88,-228 63.88,-234 63.88,-240 63.88,-240 63.88,-252 63.88,-252 63.88,-258 57.88,-264 51.88,-264"/>
<text xml:space="preserve" text-anchor="middle" x="36.88" y="-242.5" font-family="Arial" font-size="10.00" fill="#1a1a1a">legend</text>
</g>
<!-- attr_2 -->
<g id="node7" class="node">
<title>attr_2</title>
<path fill="#c7b8e6" stroke="#7f8c8d" stroke-width="1.2" d="M221.25,-296C221.25,-296 143.75,-296 143.75,-296 137.75,-296 131.75,-290 131.75,-284 131.75,-284 131.75,-272 131.75,-272 131.75,-266 137.75,-260 143.75,-260 143.75,-260 221.25,-260 221.25,-260 227.25,-260 233.25,-266 233.25,-272 233.25,-272 233.25,-284 233.25,-284 233.25,-290 227.25,-296 221.25,-296"/>
<text xml:space="preserve" text-anchor="middle" x="182.5" y="-274.5" font-family="Arial" font-size="10.00" fill="#1a1a1a">(−) easy to interpret</text>
</g>
<!-- furniture.legend&#45;&gt;attr_2 -->
<g id="edge3" class="edge">
<title>furniture.legend&#45;&gt;attr_2</title>
<path fill="none" stroke="#aaaaaa" d="M64.55,-251.94C81.02,-255.61 102.82,-260.47 123.13,-265"/>
<polygon fill="#aaaaaa" stroke="#aaaaaa" points="122.58,-267.38 129.94,-266.51 123.65,-262.6 122.58,-267.38"/>
</g>
<!-- rel_1 -->
<g id="node11" class="node">
<title>rel_1</title>
<path fill="#f5b8b8" stroke="#d46a6a" stroke-width="1.2" d="M197.5,-231C197.5,-231 167.5,-231 167.5,-231 161.5,-231 155.5,-225 155.5,-219 155.5,-219 155.5,-207 155.5,-207 155.5,-201 161.5,-195 167.5,-195 167.5,-195 197.5,-195 197.5,-195 203.5,-195 209.5,-201 209.5,-207 209.5,-207 209.5,-219 209.5,-219 209.5,-225 203.5,-231 197.5,-231"/>
<text xml:space="preserve" text-anchor="middle" x="182.5" y="-209.5" font-family="Arial" font-size="10.00" fill="#8b0000">clarifies</text>
</g>
<!-- furniture.legend&#45;&gt;rel_1 -->
<g id="edge8" class="edge">
<title>furniture.legend&#45;&gt;rel_1</title>
<path fill="none" stroke="#d46a6a" stroke-width="1.5" d="M64.55,-239.87C87.23,-234.66 119.99,-227.13 145.08,-221.37"/>
<polygon fill="#d46a6a" stroke="#d46a6a" stroke-width="1.5" points="145.58,-224.13 152.75,-219.61 144.33,-218.67 145.58,-224.13"/>
</g>
<!-- unknown.overall_layout -->
<g id="node4" class="node">
<title>unknown.overall_layout</title>
<path fill="#b8e6b8" stroke="#2c3e50" stroke-width="1.8" d="M61.75,-101C61.75,-101 12,-101 12,-101 6,-101 0,-95 0,-89 0,-89 0,-77 0,-77 0,-71 6,-65 12,-65 12,-65 61.75,-65 61.75,-65 67.75,-65 73.75,-71 73.75,-77 73.75,-77 73.75,-89 73.75,-89 73.75,-95 67.75,-101 61.75,-101"/>
<text xml:space="preserve" text-anchor="middle" x="36.88" y="-79.5" font-family="Arial" font-size="10.00" fill="#1a1a1a">overall layout</text>
</g>
<!-- attr_3 -->
<g id="node8" class="node">
<title>attr_3</title>
<path fill="#c7b8e6" stroke="#7f8c8d" stroke-width="1.2" d="M232.88,-166C232.88,-166 132.12,-166 132.12,-166 126.12,-166 120.12,-160 120.12,-154 120.12,-154 120.12,-142 120.12,-142 120.12,-136 126.12,-130 132.12,-130 132.12,-130 232.88,-130 232.88,-130 238.88,-130 244.88,-136 244.88,-142 244.88,-142 244.88,-154 244.88,-154 244.88,-160 238.88,-166 232.88,-166"/>
<text xml:space="preserve" text-anchor="middle" x="182.5" y="-144.5" font-family="Arial" font-size="10.00" fill="#1a1a1a">(−) low visual complexity</text>
</g>
<!-- unknown.overall_layout&#45;&gt;attr_3 -->
<g id="edge4" class="edge">
<title>unknown.overall_layout&#45;&gt;attr_3</title>
<path fill="none" stroke="#aaaaaa" d="M74.49,-99.57C92.24,-107.6 113.8,-117.36 132.91,-126.01"/>
<polygon fill="#aaaaaa" stroke="#aaaaaa" points="131.88,-128.23 139.27,-128.89 133.9,-123.77 131.88,-128.23"/>
</g>
<!-- attr_4 -->
<g id="node9" class="node">
<title>attr_4</title>
<path fill="#c7b8e6" stroke="#7f8c8d" stroke-width="1.2" d="M236.25,-101C236.25,-101 128.75,-101 128.75,-101 122.75,-101 116.75,-95 116.75,-89 116.75,-89 116.75,-77 116.75,-77 116.75,-71 122.75,-65 128.75,-65 128.75,-65 236.25,-65 236.25,-65 242.25,-65 248.25,-71 248.25,-77 248.25,-77 248.25,-89 248.25,-89 248.25,-95 242.25,-101 236.25,-101"/>
<text xml:space="preserve" text-anchor="middle" x="182.5" y="-79.5" font-family="Arial" font-size="10.00" fill="#1a1a1a">(−) minimal cognitive effort</text>
</g>
<!-- unknown.overall_layout&#45;&gt;attr_4 -->
<g id="edge5" class="edge">
<title>unknown.overall_layout&#45;&gt;attr_4</title>
<path fill="none" stroke="#aaaaaa" d="M74.49,-83C84.72,-83 96.22,-83 107.79,-83"/>
<polygon fill="#aaaaaa" stroke="#aaaaaa" points="107.69,-85.45 114.69,-83 107.69,-80.55 107.69,-85.45"/>
</g>
<!-- rel_2 -->
<g id="node12" class="node">
<title>rel_2</title>
<path fill="#f5b8b8" stroke="#d46a6a" stroke-width="1.2" d="M199.5,-36C199.5,-36 165.5,-36 165.5,-36 159.5,-36 153.5,-30 153.5,-24 153.5,-24 153.5,-12 153.5,-12 153.5,-6 159.5,0 165.5,0 165.5,0 199.5,0 199.5,0 205.5,0 211.5,-6 211.5,-12 211.5,-12 211.5,-24 211.5,-24 211.5,-30 205.5,-36 199.5,-36"/>
<text xml:space="preserve" text-anchor="middle" x="182.5" y="-14.5" font-family="Arial" font-size="10.00" fill="#8b0000">facilitates</text>
</g>
<!-- unknown.overall_layout&#45;&gt;rel_2 -->
<g id="edge10" class="edge">
<title>unknown.overall_layout&#45;&gt;rel_2</title>
<path fill="none" stroke="#d46a6a" stroke-width="1.5" d="M74.49,-66.43C95.77,-56.8 122.54,-44.68 143.98,-34.98"/>
<polygon fill="#d46a6a" stroke="#d46a6a" stroke-width="1.5" points="144.91,-37.63 151.04,-31.78 142.6,-32.53 144.91,-37.63"/>
</g>
<!-- rel_0&#45;&gt;mark.bar -->
<g id="edge7" class="edge">
<title>rel_0&#45;&gt;mark.bar</title>
<path fill="none" stroke="#d46a6a" stroke-width="1.5" d="M228.52,-324.43C235.5,-320.54 242.35,-316.06 248.25,-311 271.38,-291.19 290.61,-262.01 302.85,-240.64"/>
<polygon fill="#d46a6a" stroke="#d46a6a" stroke-width="1.5" points="305.26,-242.05 306.7,-233.7 300.37,-239.33 305.26,-242.05"/>
</g>
<!-- rel_1&#45;&gt;mark.bar -->
<g id="edge9" class="edge">
<title>rel_1&#45;&gt;mark.bar</title>
<path fill="none" stroke="#d46a6a" stroke-width="1.5" d="M209.92,-213C230.04,-213 257.96,-213 280.29,-213"/>
<polygon fill="#d46a6a" stroke="#d46a6a" stroke-width="1.5" points="280.15,-215.8 288.15,-213 280.15,-210.2 280.15,-215.8"/>
</g>
<!-- rel_2&#45;&gt;mark.bar -->
<g id="edge11" class="edge">
<title>rel_2&#45;&gt;mark.bar</title>
<path fill="none" stroke="#d46a6a" stroke-width="1.5" d="M211.78,-27.35C224.28,-32.66 238.35,-40.39 248.25,-51 284.14,-89.44 302.95,-149.37 311.43,-184.55"/>
<polygon fill="#d46a6a" stroke="#d46a6a" stroke-width="1.5" points="308.62,-184.81 313.14,-191.98 314.08,-183.56 308.62,-184.81"/>
</g>
</g>
</svg>
