<?xml version="1.0" encoding="UTF-8" standalone="no"?>
<!DOCTYPE svg PUBLIC "-//W3C//DTD SVG 1.1//EN"
 "http://www.w3.org/Graphics/SVG/1.1/DTD/svg11.dtd">
<!-- Generated by graphviz version 14.1.5 (20260411.2331)
 -->
<!-- Title: VASTJ.432.7.png Pages: 1 -->
<svg width="785pt" height="342pt"
 viewBox="0.00 0.00 785.00 342.00" xmlns="http://www.w3.org/2000/svg" xmlns:xlink="http://www.w3.org/1999/xlink">
<g id="graph0" class="graph" transform="scale(1 1) rotate(0) translate(4 338.25)">
<title>VASTJ.432.7.png</title>
<polygon fill="white" stroke="none" points="-4,4 -4,-338.25 780.5,-338.25 780.5,4 -4,4"/>
<text xml:space="preserve" text-anchor="start" x="333.88" y="-313.95" font-family="Arial" font-weight="bold" font-size="14.00">VASTJ.432.7.png</text>
<text xml:space="preserve" text-anchor="start" x="345.88" y="-294" font-family="Arial" font-size="11.00">Line &#160;| &#160;VC = 0.40</text>
<path fill="#b8e6b8" stroke="none" d="M178.88,-269C178.88,-269 186.88,-269 186.88,-269 189.88,-269 192.88,-272 192.88,-275 192.88,-275 192.88,-281 192.88,-281 192.88,-284 189.88,-287 186.88,-287 186.88,-287 178.88,-287 178.88,-287 175.88,-287 172.88,-284 172.88,-281 172.88,-281 172.88,-275 172.88,-275 172.88,-272 175.88,-269 178.88,-269"/>
<path fill="none" stroke="black" d="M178.88,-269C178.88,-269 186.88,-269 186.88,-269 189.88,-269 192.88,-272 192.88,-275 192.88,-275 192.88,-281 192.88,-281 192.88,-284 189.88,-287 186.88,-287 186.88,-287 178.88,-287 178.88,-287 175.88,-287 172.88,-284 172.88,-281 172.88,-281 172.88,-275 172.88,-275 172.88,-272 175.88,-269 178.88,-269"/>
<text xml:space="preserve" text-anchor="start" x="181.38" y="-274.25" font-family="Arial" font-size="10.00"> </text>
<text xml:space="preserve" text-anchor="start" x="196.88" y="-274.25" font-family="Arial" font-size="10.00">Object</text>
<path fill="#c7b8e6" stroke="none" d="M235.38,-269C235.38,-269 243.38,-269 243.38,-269 246.38,-269 249.38,-272 249.38,-275 249.38,-275 249.38,-281 249.38,-281 249.38,-284 246.38,-287 243.38,-287 243.38,-287 235.38,-287 235.38,-287 232.38,-287 229.38,-284 229.38,-281 229.38,-281 229.38,-275 229.38,-275 229.38,-272 232.38,-269 235.38,-269"/>
<path fill="none" stroke="black" d="M235.38,-269C235.38,-269 243.38,-269 243.38,-269 246.38,-269 249.38,-272 249.38,-275 249.38,-275 249.38,-281 249.38,-281 249.38,-284 246.38,-287 243.38,-287 243.38,-287 235.38,-287 235.38,-287 232.38,-287 229.38,-284 229.38,-281 229.38,-281 229.38,-275 229.38,-275 229.38,-272 232.38,-269 235.38,-269"/>
<text xml:space="preserve" text-anchor="start" x="237.88" y="-274.25" font-family="Arial" font-size="10.00"> </text>
<text xml:space="preserve" text-anchor="start" x="253.38" y="-274.25" font-family="Arial" font-size="10.00">Attribute</text>
<path fill="#f5b8b8" stroke="none" d="M300.12,-269C300.12,-269 308.12,-269 308.12,-269 311.12,-269 314.12,-272 314.12,-275 314.12,-275 314.12,-281 314.12,-281 314.12,-284 311.12,-287 308.12,-287 308.12,-287 300.12,-287 300.12,-287 297.12,-287 294.12,-284 294.12,-281 294.12,-281 294.12,-275 294.12,-275 294.12,-272 297.12,-269 300.12,-269"/>
<path fill="none" stroke="black" d="M300.12,-269C300.12,-269 308.12,-269 308.12,-269 311.12,-269 314.12,-272 314.12,-275 314.12,-275 314.12,-281 314.12,-281 314.12,-284 311.12,-287 308.12,-287 308.12,-287 300.12,-287 300.12,-287 297.12,-287 294.12,-284 294.12,-281 294.12,-281 294.12,-275 294.12,-275 294.12,-272 297.12,-269 300.12,-269"/>
<text xml:space="preserve" text-anchor="start" x="302.62" y="-274.25" font-family="Arial" font-size="10.00"> </text>
<text xml:space="preserve" text-anchor="start" x="318.12" y="-274.25" font-family="Arial" font-size="10.00">Relationship</text>
<text xml:space="preserve" text-anchor="start" x="378.12" y="-275.5" font-family="Arial" font-weight="bold" font-size="10.00">(+)</text>
<text xml:space="preserve" text-anchor="start" x="390.12" y="-275.5" font-family="Arial" font-size="10.00"> increases complexity</text>
<text xml:space="preserve" text-anchor="start" x="491.38" y="-275.5" font-family="Arial" font-weight="bold" font-size="10.00">(−)</text>
<text xml:space="preserve" text-anchor="start" x="503.38" y="-275.5" font-family="Arial" font-size="10.00"> decreases complexity</text>
<!-- unknown.line_chart -->
<g id="node1" class="node">
<title>unknown.line_chart</title>
<path fill="#b8e6b8" stroke="#2c3e50" stroke-width="1.8" d="M557.75,-101C557.75,-101 526,-101 526,-101 520,-101 514,-95 514,-89 514,-89 514,-77 514,-77 514,-71 520,-65 526,-65 526,-65 557.75,-65 557.75,-65 563.75,-65 569.75,-71 569.75,-77 569.75,-77 569.75,-89 569.75,-89 569.75,-95 563.75,-101 557.75,-101"/>
<text xml:space="preserve" text-anchor="middle" x="541.88" y="-79.5" font-family="Arial" font-size="10.00" fill="#1a1a1a">line chart</text>
</g>
<!-- attr_0 -->
<g id="node5" class="node">
<title>attr_0</title>
<path fill="#c7b8e6" stroke="#7f8c8d" stroke-width="1.2" d="M764.5,-134C764.5,-134 624.75,-134 624.75,-134 618.75,-134 612.75,-128 612.75,-122 612.75,-122 612.75,-110 612.75,-110 612.75,-104 618.75,-98 624.75,-98 624.75,-98 764.5,-98 764.5,-98 770.5,-98 776.5,-104 776.5,-110 776.5,-110 776.5,-122 776.5,-122 776.5,-128 770.5,-134 764.5,-134"/>
<text xml:space="preserve" text-anchor="middle" x="694.62" y="-112.5" font-family="Arial" font-size="10.00" fill="#1a1a1a">(−) straightforward low complexity</text>
</g>
<!-- unknown.line_chart&#45;&gt;attr_0 -->
<g id="edge1" class="edge">
<title>unknown.line_chart&#45;&gt;attr_0</title>
<path fill="none" stroke="#aaaaaa" d="M570.52,-89.05C580.36,-91.2 592.03,-93.76 604.21,-96.43"/>
<polygon fill="#aaaaaa" stroke="#aaaaaa" points="603.43,-98.76 610.79,-97.87 604.48,-93.98 603.43,-98.76"/>
</g>
<!-- attr_4 -->
<g id="node6" class="node">
<title>attr_4</title>
<path fill="#c7b8e6" stroke="#7f8c8d" stroke-width="1.2" d="M737.88,-69C737.88,-69 651.38,-69 651.38,-69 645.38,-69 639.38,-63 639.38,-57 639.38,-57 639.38,-45 639.38,-45 639.38,-39 645.38,-33 651.38,-33 651.38,-33 737.88,-33 737.88,-33 743.88,-33 749.88,-39 749.88,-45 749.88,-45 749.88,-57 749.88,-57 749.88,-63 743.88,-69 737.88,-69"/>
<text xml:space="preserve" text-anchor="middle" x="694.62" y="-47.5" font-family="Arial" font-size="10.00" fill="#1a1a1a">(−) low element count</text>
</g>
<!-- unknown.line_chart&#45;&gt;attr_4 -->
<g id="edge2" class="edge">
<title>unknown.line_chart&#45;&gt;attr_4</title>
<path fill="none" stroke="#aaaaaa" d="M570.52,-77.13C587.41,-73.55 609.72,-68.81 630.71,-64.36"/>
<polygon fill="#aaaaaa" stroke="#aaaaaa" points="631.16,-66.76 637.5,-62.91 630.14,-61.97 631.16,-66.76"/>
</g>
<!-- mark.line -->
<g id="node2" class="node">
<title>mark.line</title>
<path fill="#b8e6b8" stroke="#2c3e50" stroke-width="1.8" d="M42,-230C42,-230 12,-230 12,-230 6,-230 0,-224 0,-218 0,-218 0,-206 0,-206 0,-200 6,-194 12,-194 12,-194 42,-194 42,-194 48,-194 54,-200 54,-206 54,-206 54,-218 54,-218 54,-224 48,-230 42,-230"/>
<text xml:space="preserve" text-anchor="middle" x="27" y="-208.5" font-family="Arial" font-size="10.00" fill="#1a1a1a">line</text>
</g>
<!-- attr_1 -->
<g id="node7" class="node">
<title>attr_1</title>
<path fill="#c7b8e6" stroke="#7f8c8d" stroke-width="1.2" d="M193.25,-263C193.25,-263 109,-263 109,-263 103,-263 97,-257 97,-251 97,-251 97,-239 97,-239 97,-233 103,-227 109,-227 109,-227 193.25,-227 193.25,-227 199.25,-227 205.25,-233 205.25,-239 205.25,-239 205.25,-251 205.25,-251 205.25,-257 199.25,-263 193.25,-263"/>
<text xml:space="preserve" text-anchor="middle" x="151.12" y="-241.5" font-family="Arial" font-size="10.00" fill="#1a1a1a">(−) simple clear trend</text>
</g>
<!-- mark.line&#45;&gt;attr_1 -->
<g id="edge3" class="edge">
<title>mark.line&#45;&gt;attr_1</title>
<path fill="none" stroke="#aaaaaa" d="M54.8,-219.24C64.84,-221.96 76.71,-225.16 88.6,-228.38"/>
<polygon fill="#aaaaaa" stroke="#aaaaaa" points="87.96,-230.74 95.35,-230.2 89.23,-226.01 87.96,-230.74"/>
</g>
<!-- rel_0 -->
<g id="node10" class="node">
<title>rel_0</title>
<path fill="#f5b8b8" stroke="#d46a6a" stroke-width="1.2" d="M166.12,-198C166.12,-198 136.12,-198 136.12,-198 130.12,-198 124.12,-192 124.12,-186 124.12,-186 124.12,-174 124.12,-174 124.12,-168 130.12,-162 136.12,-162 136.12,-162 166.12,-162 166.12,-162 172.12,-162 178.12,-168 178.12,-174 178.12,-174 178.12,-186 178.12,-186 178.12,-192 172.12,-198 166.12,-198"/>
<text xml:space="preserve" text-anchor="middle" x="151.12" y="-176.5" font-family="Arial" font-size="10.00" fill="#8b0000">conveys</text>
</g>
<!-- mark.line&#45;&gt;rel_0 -->
<g id="edge6" class="edge">
<title>mark.line&#45;&gt;rel_0</title>
<path fill="none" stroke="#d46a6a" stroke-width="1.5" d="M54.8,-204.98C72.18,-200.42 95.03,-194.44 114.01,-189.46"/>
<polygon fill="#d46a6a" stroke="#d46a6a" stroke-width="1.5" points="114.58,-192.21 121.61,-187.47 113.16,-186.79 114.58,-192.21"/>
</g>
<!-- text.axis_label -->
<g id="node3" class="node">
<title>text.axis_label</title>
<path fill="#b8e6b8" stroke="#2c3e50" stroke-width="1.8" d="M298.75,-69C298.75,-69 265.5,-69 265.5,-69 259.5,-69 253.5,-63 253.5,-57 253.5,-57 253.5,-45 253.5,-45 253.5,-39 259.5,-33 265.5,-33 265.5,-33 298.75,-33 298.75,-33 304.75,-33 310.75,-39 310.75,-45 310.75,-45 310.75,-57 310.75,-57 310.75,-63 304.75,-69 298.75,-69"/>
<text xml:space="preserve" text-anchor="middle" x="282.12" y="-47.5" font-family="Arial" font-size="10.00" fill="#1a1a1a">axis label</text>
</g>
<!-- attr_2 -->
<g id="node8" class="node">
<title>attr_2</title>
<path fill="#c7b8e6" stroke="#7f8c8d" stroke-width="1.2" d="M445.5,-101C445.5,-101 384.5,-101 384.5,-101 378.5,-101 372.5,-95 372.5,-89 372.5,-89 372.5,-77 372.5,-77 372.5,-71 378.5,-65 384.5,-65 384.5,-65 445.5,-65 445.5,-65 451.5,-65 457.5,-71 457.5,-77 457.5,-77 457.5,-89 457.5,-89 457.5,-95 451.5,-101 445.5,-101"/>
<text xml:space="preserve" text-anchor="middle" x="415" y="-79.5" font-family="Arial" font-size="10.00" fill="#1a1a1a">(−) easy to read</text>
</g>
<!-- text.axis_label&#45;&gt;attr_2 -->
<g id="edge4" class="edge">
<title>text.axis_label&#45;&gt;attr_2</title>
<path fill="none" stroke="#aaaaaa" d="M311.52,-57.94C326.84,-61.69 346.2,-66.42 363.96,-70.76"/>
<polygon fill="#aaaaaa" stroke="#aaaaaa" points="363.13,-73.08 370.51,-72.37 364.3,-68.32 363.13,-73.08"/>
</g>
<!-- rel_2 -->
<g id="node12" class="node">
<title>rel_2</title>
<path fill="#f5b8b8" stroke="#d46a6a" stroke-width="1.2" d="M459,-36C459,-36 371,-36 371,-36 365,-36 359,-30 359,-24 359,-24 359,-12 359,-12 359,-6 365,0 371,0 371,0 459,0 459,0 465,0 471,-6 471,-12 471,-12 471,-24 471,-24 471,-30 465,-36 459,-36"/>
<text xml:space="preserve" text-anchor="middle" x="415" y="-14.5" font-family="Arial" font-size="10.00" fill="#8b0000">supports readability of</text>
</g>
<!-- text.axis_label&#45;&gt;rel_2 -->
<g id="edge10" class="edge">
<title>text.axis_label&#45;&gt;rel_2</title>
<path fill="none" stroke="#d46a6a" stroke-width="1.5" d="M311.52,-43.84C322.49,-41.08 335.52,-37.79 348.55,-34.5"/>
<polygon fill="#d46a6a" stroke="#d46a6a" stroke-width="1.5" points="349.21,-37.23 356.28,-32.55 347.84,-31.8 349.21,-37.23"/>
</g>
<!-- structure.pattern -->
<g id="node4" class="node">
<title>structure.pattern</title>
<path fill="#b8e6b8" stroke="#2c3e50" stroke-width="1.8" d="M304,-198C304,-198 260.25,-198 260.25,-198 254.25,-198 248.25,-192 248.25,-186 248.25,-186 248.25,-174 248.25,-174 248.25,-168 254.25,-162 260.25,-162 260.25,-162 304,-162 304,-162 310,-162 316,-168 316,-174 316,-174 316,-186 316,-186 316,-192 310,-198 304,-198"/>
<text xml:space="preserve" text-anchor="middle" x="282.12" y="-176.5" font-family="Arial" font-size="10.00" fill="#1a1a1a">data pattern</text>
</g>
<!-- attr_3 -->
<g id="node9" class="node">
<title>attr_3</title>
<path fill="#c7b8e6" stroke="#7f8c8d" stroke-width="1.2" d="M451.88,-231C451.88,-231 378.12,-231 378.12,-231 372.12,-231 366.12,-225 366.12,-219 366.12,-219 366.12,-207 366.12,-207 366.12,-201 372.12,-195 378.12,-195 378.12,-195 451.88,-195 451.88,-195 457.88,-195 463.88,-201 463.88,-207 463.88,-207 463.88,-219 463.88,-219 463.88,-225 457.88,-231 451.88,-231"/>
<text xml:space="preserve" text-anchor="middle" x="415" y="-209.5" font-family="Arial" font-size="10.00" fill="#1a1a1a">(−) intuitive pattern</text>
</g>
<!-- structure.pattern&#45;&gt;attr_3 -->
<g id="edge5" class="edge">
<title>structure.pattern&#45;&gt;attr_3</title>
<path fill="none" stroke="#aaaaaa" d="M316.83,-188.5C329.24,-191.63 343.66,-195.26 357.53,-198.76"/>
<polygon fill="#aaaaaa" stroke="#aaaaaa" points="356.76,-201.09 364.14,-200.43 357.95,-196.34 356.76,-201.09"/>
</g>
<!-- rel_1 -->
<g id="node11" class="node">
<title>rel_1</title>
<path fill="#f5b8b8" stroke="#d46a6a" stroke-width="1.2" d="M430,-166C430,-166 400,-166 400,-166 394,-166 388,-160 388,-154 388,-154 388,-142 388,-142 388,-136 394,-130 400,-130 400,-130 430,-130 430,-130 436,-130 442,-136 442,-142 442,-142 442,-154 442,-154 442,-160 436,-166 430,-166"/>
<text xml:space="preserve" text-anchor="middle" x="415" y="-144.5" font-family="Arial" font-size="10.00" fill="#8b0000">reduces</text>
</g>
<!-- structure.pattern&#45;&gt;rel_1 -->
<g id="edge8" class="edge">
<title>structure.pattern&#45;&gt;rel_1</title>
<path fill="none" stroke="#d46a6a" stroke-width="1.5" d="M316.83,-171.76C335.45,-167.21 358.59,-161.55 377.61,-156.9"/>
<polygon fill="#d46a6a" stroke="#d46a6a" stroke-width="1.5" points="378.11,-159.66 385.22,-155.04 376.78,-154.22 378.11,-159.66"/>
</g>
<!-- rel_0&#45;&gt;structure.pattern -->
<g id="edge7" class="edge">
<title>rel_0&#45;&gt;structure.pattern</title>
<path fill="none" stroke="#d46a6a" stroke-width="1.5" d="M178.54,-180C195.41,-180 217.7,-180 237.19,-180"/>
<polygon fill="#d46a6a" stroke="#d46a6a" stroke-width="1.5" points="237.1,-182.8 245.1,-180 237.1,-177.2 237.1,-182.8"/>
</g>
<!-- rel_1&#45;&gt;unknown.line_chart -->
<g id="edge9" class="edge">
<title>rel_1&#45;&gt;unknown.line_chart</title>
<path fill="none" stroke="#d46a6a" stroke-width="1.5" d="M442.48,-134.22C460.41,-124.89 484.33,-112.43 504.09,-102.15"/>
<polygon fill="#d46a6a" stroke="#d46a6a" stroke-width="1.5" points="505.31,-104.67 511.12,-98.49 502.73,-99.7 505.31,-104.67"/>
</g>
<!-- rel_2&#45;&gt;unknown.line_chart -->
<g id="edge11" class="edge">
<title>rel_2&#45;&gt;unknown.line_chart</title>
<path fill="none" stroke="#d46a6a" stroke-width="1.5" d="M451.45,-36.45C468,-45.07 487.68,-55.31 504.36,-63.99"/>
<polygon fill="#d46a6a" stroke="#d46a6a" stroke-width="1.5" points="502.87,-66.38 511.26,-67.59 505.46,-61.41 502.87,-66.38"/>
</g>
</g>
</svg>
