<?xml version="1.0" encoding="UTF-8" standalone="no"?>
<!DOCTYPE svg PUBLIC "-//W3C//DTD SVG 1.1//EN"
 "http://www.w3.org/Graphics/SVG/1.1/DTD/svg11.dtd">
<!-- Generated by graphviz version 14.1.5 (20260411.2331)
 -->
<!-- Title: VASTJ.1720.4.png Pages: 1 -->
<svg width="735pt" height="310pt"
 viewBox="0.00 0.00 735.00 310.00" xmlns="http://www.w3.org/2000/svg" xmlns:xlink="http://www.w3.org/1999/xlink">
<g id="graph0" class="graph" transform="scale(1 1) rotate(0) translate(4 306.25)">
<title>VASTJ.1720.4.png</title>
<polygon fill="white" stroke="none" points="-4,4 -4,-306.25 730.75,-306.25 730.75,4 -4,4"/>
<text xml:space="preserve" text-anchor="start" x="305.25" y="-281.95" font-family="Arial" font-weight="bold" font-size="14.00">VASTJ.1720.4.png</text>
<text xml:space="preserve" text-anchor="start" x="322.5" y="-262" font-family="Arial" font-size="11.00">Bar &#160;| &#160;VC = 0.29</text>
<path fill="#b8e6b8" stroke="none" d="M154,-237C154,-237 162,-237 162,-237 165,-237 168,-240 168,-243 168,-243 168,-249 168,-249 168,-252 165,-255 162,-255 162,-255 154,-255 154,-255 151,-255 148,-252 148,-249 148,-249 148,-243 148,-243 148,-240 151,-237 154,-237"/>
<path fill="none" stroke="black" d="M154,-237C154,-237 162,-237 162,-237 165,-237 168,-240 168,-243 168,-243 168,-249 168,-249 168,-252 165,-255 162,-255 162,-255 154,-255 154,-255 151,-255 148,-252 148,-249 148,-249 148,-243 148,-243 148,-240 151,-237 154,-237"/>
<text xml:space="preserve" text-anchor="start" x="156.5" y="-242.25" font-family="Arial" font-size="10.00"> </text>
<text xml:space="preserve" text-anchor="start" x="172" y="-242.25" font-family="Arial" font-size="10.00">Object</text>
<path fill="#c7b8e6" stroke="none" d="M210.5,-237C210.5,-237 218.5,-237 218.5,-237 221.5,-237 224.5,-240 224.5,-243 224.5,-243 224.5,-249 224.5,-249 224.5,-252 221.5,-255 218.5,-255 218.5,-255 210.5,-255 210.5,-255 207.5,-255 204.5,-252 204.5,-249 204.5,-249 204.5,-243 204.5,-243 204.5,-240 207.5,-237 210.5,-237"/>
<path fill="none" stroke="black" d="M210.5,-237C210.5,-237 218.5,-237 218.5,-237 221.5,-237 224.5,-240 224.5,-243 224.5,-243 224.5,-249 224.5,-249 224.5,-252 221.5,-255 218.5,-255 218.5,-255 210.5,-255 210.5,-255 207.5,-255 204.5,-252 204.5,-249 204.5,-249 204.5,-243 204.5,-243 204.5,-240 207.5,-237 210.5,-237"/>
<text xml:space="preserve" text-anchor="start" x="213" y="-242.25" font-family="Arial" font-size="10.00"> </text>
<text xml:space="preserve" text-anchor="start" x="228.5" y="-242.25" font-family="Arial" font-size="10.00">Attribute</text>
<path fill="#f5b8b8" stroke="none" d="M275.25,-237C275.25,-237 283.25,-237 283.25,-237 286.25,-237 289.25,-240 289.25,-243 289.25,-243 289.25,-249 289.25,-249 289.25,-252 286.25,-255 283.25,-255 283.25,-255 275.25,-255 275.25,-255 272.25,-255 269.25,-252 269.25,-249 269.25,-249 269.25,-243 269.25,-243 269.25,-240 272.25,-237 275.25,-237"/>
<path fill="none" stroke="black" d="M275.25,-237C275.25,-237 283.25,-237 283.25,-237 286.25,-237 289.25,-240 289.25,-243 289.25,-243 289.25,-249 289.25,-249 289.25,-252 286.25,-255 283.25,-255 283.25,-255 275.25,-255 275.25,-255 272.25,-255 269.25,-252 269.25,-249 269.25,-249 269.25,-243 269.25,-243 269.25,-240 272.25,-237 275.25,-237"/>
<text xml:space="preserve" text-anchor="start" x="277.75" y="-242.25" font-family="Arial" font-size="10.00"> </text>
<text xml:space="preserve" text-anchor="start" x="293.25" y="-242.25" font-family="Arial" font-size="10.00">Relationship</text>
<text xml:space="preserve" text-anchor="start" x="353.25" y="-243.5" font-family="Arial" font-weight="bold" font-size="10.00">(+)</text>
<text xml:space="preserve" text-anchor="start" x="365.25" y="-243.5" font-family="Arial" font-size="10.00"> increases complexity</text>
<text xml:space="preserve" text-anchor="start" x="466.5" y="-243.5" font-family="Arial" font-weight="bold" font-size="10.00">(−)</text>
<text xml:space="preserve" text-anchor="start" x="478.5" y="-243.5" font-family="Arial" font-size="10.00"> decreases complexity</text>
<!-- mark.bar -->
<g id="node1" class="node">
<title>mark.bar</title>
<path fill="#b8e6b8" stroke="#2c3e50" stroke-width="1.8" d="M42,-133C42,-133 12,-133 12,-133 6,-133 0,-127 0,-121 0,-121 0,-109 0,-109 0,-103 6,-97 12,-97 12,-97 42,-97 42,-97 48,-97 54,-103 54,-109 54,-109 54,-121 54,-121 54,-127 48,-133 42,-133"/>
<text xml:space="preserve" text-anchor="middle" x="27" y="-111.5" font-family="Arial" font-size="10.00" fill="#1a1a1a">bar</text>
</g>
<!-- attr_0 -->
<g id="node5" class="node">
<title>attr_0</title>
<path fill="#c7b8e6" stroke="#7f8c8d" stroke-width="1.2" d="M201.5,-198C201.5,-198 109,-198 109,-198 103,-198 97,-192 97,-186 97,-186 97,-174 97,-174 97,-168 103,-162 109,-162 109,-162 201.5,-162 201.5,-162 207.5,-162 213.5,-168 213.5,-174 213.5,-174 213.5,-186 213.5,-186 213.5,-192 207.5,-198 201.5,-198"/>
<text xml:space="preserve" text-anchor="middle" x="155.25" y="-176.5" font-family="Arial" font-size="10.00" fill="#1a1a1a">(−) simple familiar form</text>
</g>
<!-- mark.bar&#45;&gt;attr_0 -->
<g id="edge1" class="edge">
<title>mark.bar&#45;&gt;attr_0</title>
<path fill="none" stroke="#aaaaaa" d="M54.77,-128.78C71.13,-137.21 92.43,-148.17 111.12,-157.8"/>
<polygon fill="#aaaaaa" stroke="#aaaaaa" points="109.72,-159.83 117.06,-160.85 111.96,-155.47 109.72,-159.83"/>
</g>
<!-- rel_0 -->
<g id="node10" class="node">
<title>rel_0</title>
<path fill="#f5b8b8" stroke="#d46a6a" stroke-width="1.2" d="M170.25,-133C170.25,-133 140.25,-133 140.25,-133 134.25,-133 128.25,-127 128.25,-121 128.25,-121 128.25,-109 128.25,-109 128.25,-103 134.25,-97 140.25,-97 140.25,-97 170.25,-97 170.25,-97 176.25,-97 182.25,-103 182.25,-109 182.25,-109 182.25,-121 182.25,-121 182.25,-127 176.25,-133 170.25,-133"/>
<text xml:space="preserve" text-anchor="middle" x="155.25" y="-111.5" font-family="Arial" font-size="10.00" fill="#8b0000">supports</text>
</g>
<!-- mark.bar&#45;&gt;rel_0 -->
<g id="edge6" class="edge">
<title>mark.bar&#45;&gt;rel_0</title>
<path fill="none" stroke="#d46a6a" stroke-width="1.5" d="M54.77,-115C73.14,-115 97.74,-115 117.88,-115"/>
<polygon fill="#d46a6a" stroke="#d46a6a" stroke-width="1.5" points="117.68,-117.8 125.68,-115 117.68,-112.2 117.68,-117.8"/>
</g>
<!-- rel_2 -->
<g id="node12" class="node">
<title>rel_2</title>
<path fill="#f5b8b8" stroke="#d46a6a" stroke-width="1.2" d="M177.5,-68C177.5,-68 133,-68 133,-68 127,-68 121,-62 121,-56 121,-56 121,-44 121,-44 121,-38 127,-32 133,-32 133,-32 177.5,-32 177.5,-32 183.5,-32 189.5,-38 189.5,-44 189.5,-44 189.5,-56 189.5,-56 189.5,-62 183.5,-68 177.5,-68"/>
<text xml:space="preserve" text-anchor="middle" x="155.25" y="-46.5" font-family="Arial" font-size="10.00" fill="#8b0000">encodes via</text>
</g>
<!-- mark.bar&#45;&gt;rel_2 -->
<g id="edge10" class="edge">
<title>mark.bar&#45;&gt;rel_2</title>
<path fill="none" stroke="#d46a6a" stroke-width="1.5" d="M54.77,-101.22C71.32,-92.7 92.92,-81.58 111.76,-71.87"/>
<polygon fill="#d46a6a" stroke="#d46a6a" stroke-width="1.5" points="112.91,-74.43 118.74,-68.28 110.35,-69.45 112.91,-74.43"/>
</g>
<!-- text.axis_label -->
<g id="node2" class="node">
<title>text.axis_label</title>
<path fill="#b8e6b8" stroke="#2c3e50" stroke-width="1.8" d="M552.25,-36C552.25,-36 519,-36 519,-36 513,-36 507,-30 507,-24 507,-24 507,-12 507,-12 507,-6 513,0 519,0 519,0 552.25,0 552.25,0 558.25,0 564.25,-6 564.25,-12 564.25,-12 564.25,-24 564.25,-24 564.25,-30 558.25,-36 552.25,-36"/>
<text xml:space="preserve" text-anchor="middle" x="535.62" y="-14.5" font-family="Arial" font-size="10.00" fill="#1a1a1a">axis label</text>
</g>
<!-- attr_3 -->
<g id="node6" class="node">
<title>attr_3</title>
<path fill="#c7b8e6" stroke="#7f8c8d" stroke-width="1.2" d="M714.75,-36C714.75,-36 619.25,-36 619.25,-36 613.25,-36 607.25,-30 607.25,-24 607.25,-24 607.25,-12 607.25,-12 607.25,-6 613.25,0 619.25,0 619.25,0 714.75,0 714.75,0 720.75,0 726.75,-6 726.75,-12 726.75,-12 726.75,-24 726.75,-24 726.75,-30 720.75,-36 714.75,-36"/>
<text xml:space="preserve" text-anchor="middle" x="667" y="-14.5" font-family="Arial" font-size="10.00" fill="#1a1a1a">(−) minimal text present</text>
</g>
<!-- text.axis_label&#45;&gt;attr_3 -->
<g id="edge2" class="edge">
<title>text.axis_label&#45;&gt;attr_3</title>
<path fill="none" stroke="#aaaaaa" d="M565.02,-18C575.05,-18 586.8,-18 598.68,-18"/>
<polygon fill="#aaaaaa" stroke="#aaaaaa" points="598.38,-20.45 605.38,-18 598.38,-15.55 598.38,-20.45"/>
</g>
<!-- whole.visualization -->
<g id="node3" class="node">
<title>whole.visualization</title>
<path fill="#b8e6b8" stroke="#2c3e50" stroke-width="1.8" d="M298.5,-133C298.5,-133 268.5,-133 268.5,-133 262.5,-133 256.5,-127 256.5,-121 256.5,-121 256.5,-109 256.5,-109 256.5,-103 262.5,-97 268.5,-97 268.5,-97 298.5,-97 298.5,-97 304.5,-97 310.5,-103 310.5,-109 310.5,-109 310.5,-121 310.5,-121 310.5,-127 304.5,-133 298.5,-133"/>
<text xml:space="preserve" text-anchor="middle" x="283.5" y="-111.5" font-family="Arial" font-size="10.00" fill="#1a1a1a">chart</text>
</g>
<!-- attr_1 -->
<g id="node7" class="node">
<title>attr_1</title>
<path fill="#c7b8e6" stroke="#7f8c8d" stroke-width="1.2" d="M447.5,-231C447.5,-231 370,-231 370,-231 364,-231 358,-225 358,-219 358,-219 358,-207 358,-207 358,-201 364,-195 370,-195 370,-195 447.5,-195 447.5,-195 453.5,-195 459.5,-201 459.5,-207 459.5,-207 459.5,-219 459.5,-219 459.5,-225 453.5,-231 447.5,-231"/>
<text xml:space="preserve" text-anchor="middle" x="408.75" y="-209.5" font-family="Arial" font-size="10.00" fill="#1a1a1a">(−) easy to interpret</text>
</g>
<!-- whole.visualization&#45;&gt;attr_1 -->
<g id="edge3" class="edge">
<title>whole.visualization&#45;&gt;attr_1</title>
<path fill="none" stroke="#aaaaaa" d="M301.92,-133.86C315.29,-147.77 334.6,-166.69 353.5,-181 357.62,-184.12 362.07,-187.18 366.58,-190.09"/>
<polygon fill="#aaaaaa" stroke="#aaaaaa" points="365.17,-192.1 372.4,-193.73 367.77,-187.94 365.17,-192.1"/>
</g>
<!-- attr_2 -->
<g id="node8" class="node">
<title>attr_2</title>
<path fill="#c7b8e6" stroke="#7f8c8d" stroke-width="1.2" d="M452,-166C452,-166 365.5,-166 365.5,-166 359.5,-166 353.5,-160 353.5,-154 353.5,-154 353.5,-142 353.5,-142 353.5,-136 359.5,-130 365.5,-130 365.5,-130 452,-130 452,-130 458,-130 464,-136 464,-142 464,-142 464,-154 464,-154 464,-160 458,-166 452,-166"/>
<text xml:space="preserve" text-anchor="middle" x="408.75" y="-144.5" font-family="Arial" font-size="10.00" fill="#1a1a1a">(−) low element count</text>
</g>
<!-- whole.visualization&#45;&gt;attr_2 -->
<g id="edge4" class="edge">
<title>whole.visualization&#45;&gt;attr_2</title>
<path fill="none" stroke="#aaaaaa" d="M311.24,-122.16C321.2,-124.83 332.96,-127.97 344.78,-131.14"/>
<polygon fill="#aaaaaa" stroke="#aaaaaa" points="344.1,-133.49 351.5,-132.94 345.37,-128.76 344.1,-133.49"/>
</g>
<!-- attr_4 -->
<g id="node9" class="node">
<title>attr_4</title>
<path fill="#c7b8e6" stroke="#7f8c8d" stroke-width="1.2" d="M451.25,-101C451.25,-101 366.25,-101 366.25,-101 360.25,-101 354.25,-95 354.25,-89 354.25,-89 354.25,-77 354.25,-77 354.25,-71 360.25,-65 366.25,-65 366.25,-65 451.25,-65 451.25,-65 457.25,-65 463.25,-71 463.25,-77 463.25,-77 463.25,-89 463.25,-89 463.25,-95 457.25,-101 451.25,-101"/>
<text xml:space="preserve" text-anchor="middle" x="408.75" y="-79.5" font-family="Arial" font-size="10.00" fill="#1a1a1a">(−) familiar chart type</text>
</g>
<!-- whole.visualization&#45;&gt;attr_4 -->
<g id="edge5" class="edge">
<title>whole.visualization&#45;&gt;attr_4</title>
<path fill="none" stroke="#aaaaaa" d="M311.24,-108.06C321.46,-105.4 333.6,-102.25 345.75,-99.1"/>
<polygon fill="#aaaaaa" stroke="#aaaaaa" points="346.09,-101.54 352.25,-97.41 344.86,-96.8 346.09,-101.54"/>
</g>
<!-- rel_1 -->
<g id="node11" class="node">
<title>rel_1</title>
<path fill="#f5b8b8" stroke="#d46a6a" stroke-width="1.2" d="M443.38,-36C443.38,-36 374.12,-36 374.12,-36 368.12,-36 362.12,-30 362.12,-24 362.12,-24 362.12,-12 362.12,-12 362.12,-6 368.12,0 374.12,0 374.12,0 443.38,0 443.38,0 449.38,0 455.38,-6 455.38,-12 455.38,-12 455.38,-24 455.38,-24 455.38,-30 449.38,-36 443.38,-36"/>
<text xml:space="preserve" text-anchor="middle" x="408.75" y="-14.5" font-family="Arial" font-size="10.00" fill="#8b0000">requires low effort</text>
</g>
<!-- whole.visualization&#45;&gt;rel_1 -->
<g id="edge8" class="edge">
<title>whole.visualization&#45;&gt;rel_1</title>
<path fill="none" stroke="#d46a6a" stroke-width="1.5" d="M302.64,-96.27C316.06,-82.89 335.12,-64.89 353.5,-51 357.57,-47.92 361.95,-44.88 366.38,-41.96"/>
<polygon fill="#d46a6a" stroke="#d46a6a" stroke-width="1.5" points="367.77,-44.39 373,-37.73 364.75,-39.67 367.77,-44.39"/>
</g>
<!-- furniture.legend -->
<g id="node4" class="node">
<title>furniture.legend</title>
<path fill="#b8e6b8" stroke="#2c3e50" stroke-width="1.8" d="M298.5,-68C298.5,-68 268.5,-68 268.5,-68 262.5,-68 256.5,-62 256.5,-56 256.5,-56 256.5,-44 256.5,-44 256.5,-38 262.5,-32 268.5,-32 268.5,-32 298.5,-32 298.5,-32 304.5,-32 310.5,-38 310.5,-44 310.5,-44 310.5,-56 310.5,-56 310.5,-62 304.5,-68 298.5,-68"/>
<text xml:space="preserve" text-anchor="middle" x="283.5" y="-46.5" font-family="Arial" font-size="10.00" fill="#1a1a1a">legend</text>
</g>
<!-- rel_0&#45;&gt;whole.visualization -->
<g id="edge7" class="edge">
<title>rel_0&#45;&gt;whole.visualization</title>
<path fill="none" stroke="#d46a6a" stroke-width="1.5" d="M182.72,-115C200.94,-115 225.41,-115 245.55,-115"/>
<polygon fill="#d46a6a" stroke="#d46a6a" stroke-width="1.5" points="245.36,-117.8 253.36,-115 245.36,-112.2 245.36,-117.8"/>
</g>
<!-- rel_1&#45;&gt;text.axis_label -->
<g id="edge9" class="edge">
<title>rel_1&#45;&gt;text.axis_label</title>
<path fill="none" stroke="#d46a6a" stroke-width="1.5" d="M455.89,-18C469.14,-18 483.43,-18 496.16,-18"/>
<polygon fill="#d46a6a" stroke="#d46a6a" stroke-width="1.5" points="496.16,-20.8 504.16,-18 496.16,-15.2 496.16,-20.8"/>
</g>
<!-- rel_2&#45;&gt;furniture.legend -->
<g id="edge11" class="edge">
<title>rel_2&#45;&gt;furniture.legend</title>
<path fill="none" stroke="#d46a6a" stroke-width="1.5" d="M190.08,-50C207.3,-50 228.26,-50 245.85,-50"/>
<polygon fill="#d46a6a" stroke="#d46a6a" stroke-width="1.5" points="245.51,-52.8 253.51,-50 245.51,-47.2 245.51,-52.8"/>
</g>
</g>
</svg>
