<?xml version="1.0" encoding="UTF-8" standalone="no"?>
<!DOCTYPE svg PUBLIC "-//W3C//DTD SVG 1.1//EN"
 "http://www.w3.org/Graphics/SVG/1.1/DTD/svg11.dtd">
<!-- Generated by graphviz version 14.1.5 (20260411.2331)
 -->
<!-- Title: VASTJ.1763.9.png Pages: 1 -->
<svg width="857pt" height="374pt"
 viewBox="0.00 0.00 857.00 374.00" xmlns="http://www.w3.org/2000/svg" xmlns:xlink="http://www.w3.org/1999/xlink">
<g id="graph0" class="graph" transform="scale(1 1) rotate(0) translate(4 370.25)">
<title>VASTJ.1763.9.png</title>
<polygon fill="white" stroke="none" points="-4,4 -4,-370.25 852.75,-370.25 852.75,4 -4,4"/>
<text xml:space="preserve" text-anchor="start" x="366.25" y="-345.95" font-family="Arial" font-weight="bold" font-size="14.00">VASTJ.1763.9.png</text>
<text xml:space="preserve" text-anchor="start" x="358.75" y="-326" font-family="Arial" font-size="11.00">Area and Text &#160;| &#160;VC = 0.74</text>
<path fill="#b8e6b8" stroke="none" d="M215,-301C215,-301 223,-301 223,-301 226,-301 229,-304 229,-307 229,-307 229,-313 229,-313 229,-316 226,-319 223,-319 223,-319 215,-319 215,-319 212,-319 209,-316 209,-313 209,-313 209,-307 209,-307 209,-304 212,-301 215,-301"/>
<path fill="none" stroke="black" d="M215,-301C215,-301 223,-301 223,-301 226,-301 229,-304 229,-307 229,-307 229,-313 229,-313 229,-316 226,-319 223,-319 223,-319 215,-319 215,-319 212,-319 209,-316 209,-313 209,-313 209,-307 209,-307 209,-304 212,-301 215,-301"/>
<text xml:space="preserve" text-anchor="start" x="217.5" y="-306.25" font-family="Arial" font-size="10.00"> </text>
<text xml:space="preserve" text-anchor="start" x="233" y="-306.25" font-family="Arial" font-size="10.00">Object</text>
<path fill="#c7b8e6" stroke="none" d="M271.5,-301C271.5,-301 279.5,-301 279.5,-301 282.5,-301 285.5,-304 285.5,-307 285.5,-307 285.5,-313 285.5,-313 285.5,-316 282.5,-319 279.5,-319 279.5,-319 271.5,-319 271.5,-319 268.5,-319 265.5,-316 265.5,-313 265.5,-313 265.5,-307 265.5,-307 265.5,-304 268.5,-301 271.5,-301"/>
<path fill="none" stroke="black" d="M271.5,-301C271.5,-301 279.5,-301 279.5,-301 282.5,-301 285.5,-304 285.5,-307 285.5,-307 285.5,-313 285.5,-313 285.5,-316 282.5,-319 279.5,-319 279.5,-319 271.5,-319 271.5,-319 268.5,-319 265.5,-316 265.5,-313 265.5,-313 265.5,-307 265.5,-307 265.5,-304 268.5,-301 271.5,-301"/>
<text xml:space="preserve" text-anchor="start" x="274" y="-306.25" font-family="Arial" font-size="10.00"> </text>
<text xml:space="preserve" text-anchor="start" x="289.5" y="-306.25" font-family="Arial" font-size="10.00">Attribute</text>
<path fill="#f5b8b8" stroke="none" d="M336.25,-301C336.25,-301 344.25,-301 344.25,-301 347.25,-301 350.25,-304 350.25,-307 350.25,-307 350.25,-313 350.25,-313 350.25,-316 347.25,-319 344.25,-319 344.25,-319 336.25,-319 336.25,-319 333.25,-319 330.25,-316 330.25,-313 330.25,-313 330.25,-307 330.25,-307 330.25,-304 333.25,-301 336.25,-301"/>
<path fill="none" stroke="black" d="M336.25,-301C336.25,-301 344.25,-301 344.25,-301 347.25,-301 350.25,-304 350.25,-307 350.25,-307 350.25,-313 350.25,-313 350.25,-316 347.25,-319 344.25,-319 344.25,-319 336.25,-319 336.25,-319 333.25,-319 330.25,-316 330.25,-313 330.25,-313 330.25,-307 330.25,-307 330.25,-304 333.25,-301 336.25,-301"/>
<text xml:space="preserve" text-anchor="start" x="338.75" y="-306.25" font-family="Arial" font-size="10.00"> </text>
<text xml:space="preserve" text-anchor="start" x="354.25" y="-306.25" font-family="Arial" font-size="10.00">Relationship</text>
<text xml:space="preserve" text-anchor="start" x="414.25" y="-307.5" font-family="Arial" font-weight="bold" font-size="10.00">(+)</text>
<text xml:space="preserve" text-anchor="start" x="426.25" y="-307.5" font-family="Arial" font-size="10.00"> increases complexity</text>
<text xml:space="preserve" text-anchor="start" x="527.5" y="-307.5" font-family="Arial" font-weight="bold" font-size="10.00">(−)</text>
<text xml:space="preserve" text-anchor="start" x="539.5" y="-307.5" font-family="Arial" font-size="10.00"> decreases complexity</text>
<!-- unknown.area_graph -->
<g id="node1" class="node">
<title>unknown.area_graph</title>
<path fill="#b8e6b8" stroke="#2c3e50" stroke-width="1.8" d="M346.62,-100C346.62,-100 308.88,-100 308.88,-100 302.88,-100 296.88,-94 296.88,-88 296.88,-88 296.88,-76 296.88,-76 296.88,-70 302.88,-64 308.88,-64 308.88,-64 346.62,-64 346.62,-64 352.62,-64 358.62,-70 358.62,-76 358.62,-76 358.62,-88 358.62,-88 358.62,-94 352.62,-100 346.62,-100"/>
<text xml:space="preserve" text-anchor="middle" x="327.75" y="-78.5" font-family="Arial" font-size="10.00" fill="#1a1a1a">area graph</text>
</g>
<!-- attr_0 -->
<g id="node6" class="node">
<title>attr_0</title>
<path fill="#c7b8e6" stroke="#7f8c8d" stroke-width="1.2" d="M539.5,-165C539.5,-165 424.5,-165 424.5,-165 418.5,-165 412.5,-159 412.5,-153 412.5,-153 412.5,-141 412.5,-141 412.5,-135 418.5,-129 424.5,-129 424.5,-129 539.5,-129 539.5,-129 545.5,-129 551.5,-135 551.5,-141 551.5,-141 551.5,-153 551.5,-153 551.5,-159 545.5,-165 539.5,-165"/>
<text xml:space="preserve" text-anchor="middle" x="482" y="-143.5" font-family="Arial" font-size="10.00" fill="#1a1a1a">(+) complex generation logic</text>
</g>
<!-- unknown.area_graph&#45;&gt;attr_0 -->
<g id="edge1" class="edge">
<title>unknown.area_graph&#45;&gt;attr_0</title>
<path fill="none" stroke="#aaaaaa" d="M359.19,-95C379.39,-103.62 406.38,-115.14 429.83,-125.15"/>
<polygon fill="#aaaaaa" stroke="#aaaaaa" points="428.84,-127.4 436.24,-127.89 430.76,-122.89 428.84,-127.4"/>
</g>
<!-- rel_3 -->
<g id="node15" class="node">
<title>rel_3</title>
<path fill="#f5b8b8" stroke="#d46a6a" stroke-width="1.2" d="M504.25,-100C504.25,-100 459.75,-100 459.75,-100 453.75,-100 447.75,-94 447.75,-88 447.75,-88 447.75,-76 447.75,-76 447.75,-70 453.75,-64 459.75,-64 459.75,-64 504.25,-64 504.25,-64 510.25,-64 516.25,-70 516.25,-76 516.25,-76 516.25,-88 516.25,-88 516.25,-94 510.25,-100 504.25,-100"/>
<text xml:space="preserve" text-anchor="middle" x="482" y="-78.5" font-family="Arial" font-size="10.00" fill="#8b0000">overwhelms</text>
</g>
<!-- unknown.area_graph&#45;&gt;rel_3 -->
<g id="edge13" class="edge">
<title>unknown.area_graph&#45;&gt;rel_3</title>
<path fill="none" stroke="#d46a6a" stroke-width="1.5" d="M359.19,-82C381.54,-82 412.22,-82 437.2,-82"/>
<polygon fill="#d46a6a" stroke="#d46a6a" stroke-width="1.5" points="436.89,-84.8 444.89,-82 436.89,-79.2 436.89,-84.8"/>
</g>
<!-- unknown.value_labels -->
<g id="node2" class="node">
<title>unknown.value_labels</title>
<path fill="#b8e6b8" stroke="#2c3e50" stroke-width="1.8" d="M650.25,-100C650.25,-100 606.5,-100 606.5,-100 600.5,-100 594.5,-94 594.5,-88 594.5,-88 594.5,-76 594.5,-76 594.5,-70 600.5,-64 606.5,-64 606.5,-64 650.25,-64 650.25,-64 656.25,-64 662.25,-70 662.25,-76 662.25,-76 662.25,-88 662.25,-88 662.25,-94 656.25,-100 650.25,-100"/>
<text xml:space="preserve" text-anchor="middle" x="628.38" y="-78.5" font-family="Arial" font-size="10.00" fill="#1a1a1a">value labels</text>
</g>
<!-- attr_1 -->
<g id="node7" class="node">
<title>attr_1</title>
<path fill="#c7b8e6" stroke="#7f8c8d" stroke-width="1.2" d="M831.88,-166C831.88,-166 722.12,-166 722.12,-166 716.12,-166 710.12,-160 710.12,-154 710.12,-154 710.12,-142 710.12,-142 710.12,-136 716.12,-130 722.12,-130 722.12,-130 831.88,-130 831.88,-130 837.88,-130 843.88,-136 843.88,-142 843.88,-142 843.88,-154 843.88,-154 843.88,-160 837.88,-166 831.88,-166"/>
<text xml:space="preserve" text-anchor="middle" x="777" y="-144.5" font-family="Arial" font-size="10.00" fill="#1a1a1a">(+) value graphic alignment</text>
</g>
<!-- unknown.value_labels&#45;&gt;attr_1 -->
<g id="edge2" class="edge">
<title>unknown.value_labels&#45;&gt;attr_1</title>
<path fill="none" stroke="#aaaaaa" d="M663.01,-97.14C682.06,-105.72 706.23,-116.59 727.32,-126.09"/>
<polygon fill="#aaaaaa" stroke="#aaaaaa" points="726.17,-128.26 733.55,-128.89 728.18,-123.79 726.17,-128.26"/>
</g>
<!-- attr_5 -->
<g id="node8" class="node">
<title>attr_5</title>
<path fill="#c7b8e6" stroke="#7f8c8d" stroke-width="1.2" d="M836.75,-101C836.75,-101 717.25,-101 717.25,-101 711.25,-101 705.25,-95 705.25,-89 705.25,-89 705.25,-77 705.25,-77 705.25,-71 711.25,-65 717.25,-65 717.25,-65 836.75,-65 836.75,-65 842.75,-65 848.75,-71 848.75,-77 848.75,-77 848.75,-89 848.75,-89 848.75,-95 842.75,-101 836.75,-101"/>
<text xml:space="preserve" text-anchor="middle" x="777" y="-79.5" font-family="Arial" font-size="10.00" fill="#1a1a1a">(+) requires cross referencing</text>
</g>
<!-- unknown.value_labels&#45;&gt;attr_5 -->
<g id="edge3" class="edge">
<title>unknown.value_labels&#45;&gt;attr_5</title>
<path fill="none" stroke="#aaaaaa" d="M663.01,-82.23C673.18,-82.3 684.8,-82.38 696.64,-82.46"/>
<polygon fill="#aaaaaa" stroke="#aaaaaa" points="696.32,-84.91 703.34,-82.5 696.36,-80.01 696.32,-84.91"/>
</g>
<!-- rel_1 -->
<g id="node13" class="node">
<title>rel_1</title>
<path fill="#f5b8b8" stroke="#d46a6a" stroke-width="1.2" d="M823.25,-36C823.25,-36 730.75,-36 730.75,-36 724.75,-36 718.75,-30 718.75,-24 718.75,-24 718.75,-12 718.75,-12 718.75,-6 724.75,0 730.75,0 730.75,0 823.25,0 823.25,0 829.25,0 835.25,-6 835.25,-12 835.25,-12 835.25,-24 835.25,-24 835.25,-30 829.25,-36 823.25,-36"/>
<text xml:space="preserve" text-anchor="middle" x="777" y="-14.5" font-family="Arial" font-size="10.00" fill="#8b0000">requires alignment with</text>
</g>
<!-- unknown.value_labels&#45;&gt;rel_1 -->
<g id="edge9" class="edge">
<title>unknown.value_labels&#45;&gt;rel_1</title>
<path fill="none" stroke="#d46a6a" stroke-width="1.5" d="M663.01,-67.32C681.2,-59.38 704.04,-49.41 724.42,-40.51"/>
<polygon fill="#d46a6a" stroke="#d46a6a" stroke-width="1.5" points="725.29,-43.19 731.5,-37.42 723.05,-38.06 725.29,-43.19"/>
</g>
<!-- unknown.bar_length -->
<g id="node3" class="node">
<title>unknown.bar_length</title>
<path fill="#b8e6b8" stroke="#2c3e50" stroke-width="1.8" d="M49.38,-133C49.38,-133 14.62,-133 14.62,-133 8.62,-133 2.62,-127 2.62,-121 2.62,-121 2.62,-109 2.62,-109 2.62,-103 8.62,-97 14.62,-97 14.62,-97 49.38,-97 49.38,-97 55.38,-97 61.38,-103 61.38,-109 61.38,-109 61.38,-121 61.38,-121 61.38,-127 55.38,-133 49.38,-133"/>
<text xml:space="preserve" text-anchor="middle" x="32" y="-111.5" font-family="Arial" font-size="10.00" fill="#1a1a1a">bar length</text>
</g>
<!-- attr_2 -->
<g id="node9" class="node">
<title>attr_2</title>
<path fill="#c7b8e6" stroke="#7f8c8d" stroke-width="1.2" d="M231,-165C231,-165 119,-165 119,-165 113,-165 107,-159 107,-153 107,-153 107,-141 107,-141 107,-135 113,-129 119,-129 119,-129 231,-129 231,-129 237,-129 243,-135 243,-141 243,-141 243,-153 243,-153 243,-159 237,-165 231,-165"/>
<text xml:space="preserve" text-anchor="middle" x="175" y="-143.5" font-family="Arial" font-size="10.00" fill="#1a1a1a">(+) variable length encoding</text>
</g>
<!-- unknown.bar_length&#45;&gt;attr_2 -->
<g id="edge4" class="edge">
<title>unknown.bar_length&#45;&gt;attr_2</title>
<path fill="none" stroke="#aaaaaa" d="M62.22,-121.63C72.9,-124.06 85.55,-126.93 98.42,-129.85"/>
<polygon fill="#aaaaaa" stroke="#aaaaaa" points="97.6,-132.17 104.97,-131.33 98.68,-127.39 97.6,-132.17"/>
</g>
<!-- rel_0 -->
<g id="node12" class="node">
<title>rel_0</title>
<path fill="#f5b8b8" stroke="#d46a6a" stroke-width="1.2" d="M197.25,-100C197.25,-100 152.75,-100 152.75,-100 146.75,-100 140.75,-94 140.75,-88 140.75,-88 140.75,-76 140.75,-76 140.75,-70 146.75,-64 152.75,-64 152.75,-64 197.25,-64 197.25,-64 203.25,-64 209.25,-70 209.25,-76 209.25,-76 209.25,-88 209.25,-88 209.25,-94 203.25,-100 197.25,-100"/>
<text xml:space="preserve" text-anchor="middle" x="175" y="-78.5" font-family="Arial" font-size="10.00" fill="#8b0000">encodes via</text>
</g>
<!-- unknown.bar_length&#45;&gt;rel_0 -->
<g id="edge7" class="edge">
<title>unknown.bar_length&#45;&gt;rel_0</title>
<path fill="none" stroke="#d46a6a" stroke-width="1.5" d="M62.22,-108.16C81.94,-103.55 108.33,-97.37 130.51,-92.18"/>
<polygon fill="#d46a6a" stroke="#d46a6a" stroke-width="1.5" points="131,-94.94 138.15,-90.39 129.73,-89.49 131,-94.94"/>
</g>
<!-- unknown.data_points -->
<g id="node4" class="node">
<title>unknown.data_points</title>
<path fill="#b8e6b8" stroke="#2c3e50" stroke-width="1.8" d="M52,-262C52,-262 12,-262 12,-262 6,-262 0,-256 0,-250 0,-250 0,-238 0,-238 0,-232 6,-226 12,-226 12,-226 52,-226 52,-226 58,-226 64,-232 64,-238 64,-238 64,-250 64,-250 64,-256 58,-262 52,-262"/>
<text xml:space="preserve" text-anchor="middle" x="32" y="-240.5" font-family="Arial" font-size="10.00" fill="#1a1a1a">data points</text>
</g>
<!-- attr_3 -->
<g id="node10" class="node">
<title>attr_3</title>
<path fill="#c7b8e6" stroke="#7f8c8d" stroke-width="1.2" d="M220.88,-295C220.88,-295 129.12,-295 129.12,-295 123.12,-295 117.12,-289 117.12,-283 117.12,-283 117.12,-271 117.12,-271 117.12,-265 123.12,-259 129.12,-259 129.12,-259 220.88,-259 220.88,-259 226.88,-259 232.88,-265 232.88,-271 232.88,-271 232.88,-283 232.88,-283 232.88,-289 226.88,-295 220.88,-295"/>
<text xml:space="preserve" text-anchor="middle" x="175" y="-273.5" font-family="Arial" font-size="10.00" fill="#1a1a1a">(+) multiple data points</text>
</g>
<!-- unknown.data_points&#45;&gt;attr_3 -->
<g id="edge5" class="edge">
<title>unknown.data_points&#45;&gt;attr_3</title>
<path fill="none" stroke="#aaaaaa" d="M64.64,-251.41C77.71,-254.46 93.37,-258.13 108.7,-261.72"/>
<polygon fill="#aaaaaa" stroke="#aaaaaa" points="107.82,-264.03 115.19,-263.24 108.94,-259.26 107.82,-264.03"/>
</g>
<!-- rel_2 -->
<g id="node14" class="node">
<title>rel_2</title>
<path fill="#f5b8b8" stroke="#d46a6a" stroke-width="1.2" d="M222.75,-230C222.75,-230 127.25,-230 127.25,-230 121.25,-230 115.25,-224 115.25,-218 115.25,-218 115.25,-206 115.25,-206 115.25,-200 121.25,-194 127.25,-194 127.25,-194 222.75,-194 222.75,-194 228.75,-194 234.75,-200 234.75,-206 234.75,-206 234.75,-218 234.75,-218 234.75,-224 228.75,-230 222.75,-230"/>
<text xml:space="preserve" text-anchor="middle" x="175" y="-208.5" font-family="Arial" font-size="10.00" fill="#8b0000">increases complexity of</text>
</g>
<!-- unknown.data_points&#45;&gt;rel_2 -->
<g id="edge11" class="edge">
<title>unknown.data_points&#45;&gt;rel_2</title>
<path fill="none" stroke="#d46a6a" stroke-width="1.5" d="M64.64,-236.82C76.65,-234.09 90.84,-230.87 104.96,-227.67"/>
<polygon fill="#d46a6a" stroke="#d46a6a" stroke-width="1.5" points="105.29,-230.46 112.48,-225.96 104.05,-225 105.29,-230.46"/>
</g>
<!-- unknown.layout_structure -->
<g id="node5" class="node">
<title>unknown.layout_structure</title>
<path fill="#b8e6b8" stroke="#2c3e50" stroke-width="1.8" d="M357.5,-230C357.5,-230 298,-230 298,-230 292,-230 286,-224 286,-218 286,-218 286,-206 286,-206 286,-200 292,-194 298,-194 298,-194 357.5,-194 357.5,-194 363.5,-194 369.5,-200 369.5,-206 369.5,-206 369.5,-218 369.5,-218 369.5,-224 363.5,-230 357.5,-230"/>
<text xml:space="preserve" text-anchor="middle" x="327.75" y="-208.5" font-family="Arial" font-size="10.00" fill="#1a1a1a">layout structure</text>
</g>
<!-- attr_4 -->
<g id="node11" class="node">
<title>attr_4</title>
<path fill="#c7b8e6" stroke="#7f8c8d" stroke-width="1.2" d="M535,-230C535,-230 429,-230 429,-230 423,-230 417,-224 417,-218 417,-218 417,-206 417,-206 417,-200 423,-194 429,-194 429,-194 535,-194 535,-194 541,-194 547,-200 547,-206 547,-206 547,-218 547,-218 547,-224 541,-230 535,-230"/>
<text xml:space="preserve" text-anchor="middle" x="482" y="-208.5" font-family="Arial" font-size="10.00" fill="#1a1a1a">(+) left side more complex</text>
</g>
<!-- unknown.layout_structure&#45;&gt;attr_4 -->
<g id="edge6" class="edge">
<title>unknown.layout_structure&#45;&gt;attr_4</title>
<path fill="none" stroke="#aaaaaa" d="M370.35,-212C382.05,-212 395.13,-212 408.09,-212"/>
<polygon fill="#aaaaaa" stroke="#aaaaaa" points="408.06,-214.45 415.06,-212 408.06,-209.55 408.06,-214.45"/>
</g>
<!-- rel_0&#45;&gt;unknown.area_graph -->
<g id="edge8" class="edge">
<title>rel_0&#45;&gt;unknown.area_graph</title>
<path fill="none" stroke="#d46a6a" stroke-width="1.5" d="M209.83,-82C232.37,-82 262.1,-82 285.95,-82"/>
<polygon fill="#d46a6a" stroke="#d46a6a" stroke-width="1.5" points="285.84,-84.8 293.84,-82 285.84,-79.2 285.84,-84.8"/>
</g>
<!-- rel_1&#45;&gt;unknown.area_graph -->
<g id="edge10" class="edge">
<title>rel_1&#45;&gt;unknown.area_graph</title>
<path fill="none" stroke="#d46a6a" stroke-width="1.5" d="M718.22,-17.8C645.82,-18.71 518.41,-24.18 412.5,-49 397.79,-52.45 382.24,-58 368.59,-63.57"/>
<polygon fill="#d46a6a" stroke="#d46a6a" stroke-width="1.5" points="367.86,-60.84 361.57,-66.53 370.03,-66 367.86,-60.84"/>
</g>
<!-- rel_2&#45;&gt;unknown.layout_structure -->
<g id="edge12" class="edge">
<title>rel_2&#45;&gt;unknown.layout_structure</title>
<path fill="none" stroke="#d46a6a" stroke-width="1.5" d="M235.15,-212C248.43,-212 262.41,-212 275.34,-212"/>
<polygon fill="#d46a6a" stroke="#d46a6a" stroke-width="1.5" points="275.18,-214.8 283.18,-212 275.18,-209.2 275.18,-214.8"/>
</g>
<!-- rel_3&#45;&gt;unknown.value_labels -->
<g id="edge14" class="edge">
<title>rel_3&#45;&gt;unknown.value_labels</title>
<path fill="none" stroke="#d46a6a" stroke-width="1.5" d="M516.85,-82C536.76,-82 562.16,-82 583.58,-82"/>
<polygon fill="#d46a6a" stroke="#d46a6a" stroke-width="1.5" points="583.47,-84.8 591.47,-82 583.47,-79.2 583.47,-84.8"/>
</g>
</g>
</svg>
