<?xml version="1.0" encoding="UTF-8" standalone="no"?>
<!DOCTYPE svg PUBLIC "-//W3C//DTD SVG 1.1//EN"
 "http://www.w3.org/Graphics/SVG/1.1/DTD/svg11.dtd">
<!-- Generated by graphviz version 14.1.5 (20260411.2331)
 -->
<!-- Title: VASTJ.828.7.png Pages: 1 -->
<svg width="791pt" height="440pt"
 viewBox="0.00 0.00 791.00 440.00" xmlns="http://www.w3.org/2000/svg" xmlns:xlink="http://www.w3.org/1999/xlink">
<g id="graph0" class="graph" transform="scale(1 1) rotate(0) translate(4 436.25)">
<title>VASTJ.828.7.png</title>
<polygon fill="white" stroke="none" points="-4,4 -4,-436.25 787.25,-436.25 787.25,4 -4,4"/>
<text xml:space="preserve" text-anchor="start" x="337.25" y="-411.95" font-family="Arial" font-weight="bold" font-size="14.00">VASTJ.828.7.png</text>
<text xml:space="preserve" text-anchor="start" x="347.75" y="-392" font-family="Arial" font-size="11.00">Area &#160;| &#160;VC = 0.47</text>
<path fill="#b8e6b8" stroke="none" d="M182.25,-367C182.25,-367 190.25,-367 190.25,-367 193.25,-367 196.25,-370 196.25,-373 196.25,-373 196.25,-379 196.25,-379 196.25,-382 193.25,-385 190.25,-385 190.25,-385 182.25,-385 182.25,-385 179.25,-385 176.25,-382 176.25,-379 176.25,-379 176.25,-373 176.25,-373 176.25,-370 179.25,-367 182.25,-367"/>
<path fill="none" stroke="black" d="M182.25,-367C182.25,-367 190.25,-367 190.25,-367 193.25,-367 196.25,-370 196.25,-373 196.25,-373 196.25,-379 196.25,-379 196.25,-382 193.25,-385 190.25,-385 190.25,-385 182.25,-385 182.25,-385 179.25,-385 176.25,-382 176.25,-379 176.25,-379 176.25,-373 176.25,-373 176.25,-370 179.25,-367 182.25,-367"/>
<text xml:space="preserve" text-anchor="start" x="184.75" y="-372.25" font-family="Arial" font-size="10.00"> </text>
<text xml:space="preserve" text-anchor="start" x="200.25" y="-372.25" font-family="Arial" font-size="10.00">Object</text>
<path fill="#c7b8e6" stroke="none" d="M238.75,-367C238.75,-367 246.75,-367 246.75,-367 249.75,-367 252.75,-370 252.75,-373 252.75,-373 252.75,-379 252.75,-379 252.75,-382 249.75,-385 246.75,-385 246.75,-385 238.75,-385 238.75,-385 235.75,-385 232.75,-382 232.75,-379 232.75,-379 232.75,-373 232.75,-373 232.75,-370 235.75,-367 238.75,-367"/>
<path fill="none" stroke="black" d="M238.75,-367C238.75,-367 246.75,-367 246.75,-367 249.75,-367 252.75,-370 252.75,-373 252.75,-373 252.75,-379 252.75,-379 252.75,-382 249.75,-385 246.75,-385 246.75,-385 238.75,-385 238.75,-385 235.75,-385 232.75,-382 232.75,-379 232.75,-379 232.75,-373 232.75,-373 232.75,-370 235.75,-367 238.75,-367"/>
<text xml:space="preserve" text-anchor="start" x="241.25" y="-372.25" font-family="Arial" font-size="10.00"> </text>
<text xml:space="preserve" text-anchor="start" x="256.75" y="-372.25" font-family="Arial" font-size="10.00">Attribute</text>
<path fill="#f5b8b8" stroke="none" d="M303.5,-367C303.5,-367 311.5,-367 311.5,-367 314.5,-367 317.5,-370 317.5,-373 317.5,-373 317.5,-379 317.5,-379 317.5,-382 314.5,-385 311.5,-385 311.5,-385 303.5,-385 303.5,-385 300.5,-385 297.5,-382 297.5,-379 297.5,-379 297.5,-373 297.5,-373 297.5,-370 300.5,-367 303.5,-367"/>
<path fill="none" stroke="black" d="M303.5,-367C303.5,-367 311.5,-367 311.5,-367 314.5,-367 317.5,-370 317.5,-373 317.5,-373 317.5,-379 317.5,-379 317.5,-382 314.5,-385 311.5,-385 311.5,-385 303.5,-385 303.5,-385 300.5,-385 297.5,-382 297.5,-379 297.5,-379 297.5,-373 297.5,-373 297.5,-370 300.5,-367 303.5,-367"/>
<text xml:space="preserve" text-anchor="start" x="306" y="-372.25" font-family="Arial" font-size="10.00"> </text>
<text xml:space="preserve" text-anchor="start" x="321.5" y="-372.25" font-family="Arial" font-size="10.00">Relationship</text>
<text xml:space="preserve" text-anchor="start" x="381.5" y="-373.5" font-family="Arial" font-weight="bold" font-size="10.00">(+)</text>
<text xml:space="preserve" text-anchor="start" x="393.5" y="-373.5" font-family="Arial" font-size="10.00"> increases complexity</text>
<text xml:space="preserve" text-anchor="start" x="494.75" y="-373.5" font-family="Arial" font-weight="bold" font-size="10.00">(−)</text>
<text xml:space="preserve" text-anchor="start" x="506.75" y="-373.5" font-family="Arial" font-size="10.00"> decreases complexity</text>
<!-- unknown.area_chart -->
<g id="node1" class="node">
<title>unknown.area_chart</title>
<path fill="#b8e6b8" stroke="#2c3e50" stroke-width="1.8" d="M624.5,-166C624.5,-166 589,-166 589,-166 583,-166 577,-160 577,-154 577,-154 577,-142 577,-142 577,-136 583,-130 589,-130 589,-130 624.5,-130 624.5,-130 630.5,-130 636.5,-136 636.5,-142 636.5,-142 636.5,-154 636.5,-154 636.5,-160 630.5,-166 624.5,-166"/>
<text xml:space="preserve" text-anchor="middle" x="606.75" y="-144.5" font-family="Arial" font-size="10.00" fill="#1a1a1a">area chart</text>
</g>
<!-- attr_4 -->
<g id="node6" class="node">
<title>attr_4</title>
<path fill="#c7b8e6" stroke="#7f8c8d" stroke-width="1.2" d="M771.25,-166C771.25,-166 691.5,-166 691.5,-166 685.5,-166 679.5,-160 679.5,-154 679.5,-154 679.5,-142 679.5,-142 679.5,-136 685.5,-130 691.5,-130 691.5,-130 771.25,-130 771.25,-130 777.25,-130 783.25,-136 783.25,-142 783.25,-142 783.25,-154 783.25,-154 783.25,-160 777.25,-166 771.25,-166"/>
<text xml:space="preserve" text-anchor="middle" x="731.38" y="-144.5" font-family="Arial" font-size="10.00" fill="#1a1a1a">(−) simple area form</text>
</g>
<!-- unknown.area_chart&#45;&gt;attr_4 -->
<g id="edge1" class="edge">
<title>unknown.area_chart&#45;&gt;attr_4</title>
<path fill="none" stroke="#aaaaaa" d="M637.12,-148C647.27,-148 659.04,-148 670.73,-148"/>
<polygon fill="#aaaaaa" stroke="#aaaaaa" points="670.69,-150.45 677.69,-148 670.69,-145.55 670.69,-150.45"/>
</g>
<!-- property.color -->
<g id="node2" class="node">
<title>property.color</title>
<path fill="#b8e6b8" stroke="#2c3e50" stroke-width="1.8" d="M339.25,-263C339.25,-263 309.25,-263 309.25,-263 303.25,-263 297.25,-257 297.25,-251 297.25,-251 297.25,-239 297.25,-239 297.25,-233 303.25,-227 309.25,-227 309.25,-227 339.25,-227 339.25,-227 345.25,-227 351.25,-233 351.25,-239 351.25,-239 351.25,-251 351.25,-251 351.25,-257 345.25,-263 339.25,-263"/>
<text xml:space="preserve" text-anchor="middle" x="324.25" y="-241.5" font-family="Arial" font-size="10.00" fill="#1a1a1a">color</text>
</g>
<!-- attr_1 -->
<g id="node7" class="node">
<title>attr_1</title>
<path fill="#c7b8e6" stroke="#7f8c8d" stroke-width="1.2" d="M506.25,-231C506.25,-231 422,-231 422,-231 416,-231 410,-225 410,-219 410,-219 410,-207 410,-207 410,-201 416,-195 422,-195 422,-195 506.25,-195 506.25,-195 512.25,-195 518.25,-201 518.25,-207 518.25,-207 518.25,-219 518.25,-219 518.25,-225 512.25,-231 506.25,-231"/>
<text xml:space="preserve" text-anchor="middle" x="464.12" y="-209.5" font-family="Arial" font-size="10.00" fill="#1a1a1a">(−) low color contrast</text>
</g>
<!-- property.color&#45;&gt;attr_1 -->
<g id="edge2" class="edge">
<title>property.color&#45;&gt;attr_1</title>
<path fill="none" stroke="#aaaaaa" d="M351.83,-238.83C366.02,-235.54 384.1,-231.34 401.55,-227.29"/>
<polygon fill="#aaaaaa" stroke="#aaaaaa" points="401.77,-229.76 408.04,-225.79 400.66,-224.98 401.77,-229.76"/>
</g>
<!-- attr_2 -->
<g id="node8" class="node">
<title>attr_2</title>
<path fill="#c7b8e6" stroke="#7f8c8d" stroke-width="1.2" d="M522,-166C522,-166 406.25,-166 406.25,-166 400.25,-166 394.25,-160 394.25,-154 394.25,-154 394.25,-142 394.25,-142 394.25,-136 400.25,-130 406.25,-130 406.25,-130 522,-130 522,-130 528,-130 534,-136 534,-142 534,-142 534,-154 534,-154 534,-160 528,-166 522,-166"/>
<text xml:space="preserve" text-anchor="middle" x="464.12" y="-144.5" font-family="Arial" font-size="10.00" fill="#1a1a1a">(+) hard to distinguish colors</text>
</g>
<!-- property.color&#45;&gt;attr_2 -->
<g id="edge3" class="edge">
<title>property.color&#45;&gt;attr_2</title>
<path fill="none" stroke="#aaaaaa" d="M342.42,-226.28C355.67,-212.57 374.93,-194.14 394.25,-181 399.84,-177.19 405.95,-173.59 412.13,-170.27"/>
<polygon fill="#aaaaaa" stroke="#aaaaaa" points="412.97,-172.59 418.06,-167.19 410.71,-168.24 412.97,-172.59"/>
</g>
<!-- rel_0 -->
<g id="node11" class="node">
<title>rel_0</title>
<path fill="#f5b8b8" stroke="#d46a6a" stroke-width="1.2" d="M501.75,-296C501.75,-296 426.5,-296 426.5,-296 420.5,-296 414.5,-290 414.5,-284 414.5,-284 414.5,-272 414.5,-272 414.5,-266 420.5,-260 426.5,-260 426.5,-260 501.75,-260 501.75,-260 507.75,-260 513.75,-266 513.75,-272 513.75,-272 513.75,-284 513.75,-284 513.75,-290 507.75,-296 501.75,-296"/>
<text xml:space="preserve" text-anchor="middle" x="464.12" y="-274.5" font-family="Arial" font-size="10.00" fill="#8b0000">reduces contrast in</text>
</g>
<!-- property.color&#45;&gt;rel_0 -->
<g id="edge6" class="edge">
<title>property.color&#45;&gt;rel_0</title>
<path fill="none" stroke="#d46a6a" stroke-width="1.5" d="M351.83,-251.36C366.69,-254.92 385.83,-259.5 404.03,-263.86"/>
<polygon fill="#d46a6a" stroke="#d46a6a" stroke-width="1.5" points="403.38,-266.58 411.81,-265.72 404.68,-261.13 403.38,-266.58"/>
</g>
<!-- rel_3 -->
<g id="node14" class="node">
<title>rel_3</title>
<path fill="#f5b8b8" stroke="#d46a6a" stroke-width="1.2" d="M480,-361C480,-361 448.25,-361 448.25,-361 442.25,-361 436.25,-355 436.25,-349 436.25,-349 436.25,-337 436.25,-337 436.25,-331 442.25,-325 448.25,-325 448.25,-325 480,-325 480,-325 486,-325 492,-331 492,-337 492,-337 492,-349 492,-349 492,-355 486,-361 480,-361"/>
<text xml:space="preserve" text-anchor="middle" x="464.12" y="-339.5" font-family="Arial" font-size="10.00" fill="#8b0000">obscures</text>
</g>
<!-- property.color&#45;&gt;rel_3 -->
<g id="edge12" class="edge">
<title>property.color&#45;&gt;rel_3</title>
<path fill="none" stroke="#d46a6a" stroke-width="1.5" d="M341.72,-263.82C354.9,-278.07 374.4,-297.45 394.25,-311 404.19,-317.79 415.79,-323.8 426.62,-328.73"/>
<polygon fill="#d46a6a" stroke="#d46a6a" stroke-width="1.5" points="425.33,-331.22 433.78,-331.87 427.58,-326.09 425.33,-331.22"/>
</g>
<!-- content.data -->
<g id="node3" class="node">
<title>content.data</title>
<path fill="#b8e6b8" stroke="#2c3e50" stroke-width="1.8" d="M339.25,-69C339.25,-69 309.25,-69 309.25,-69 303.25,-69 297.25,-63 297.25,-57 297.25,-57 297.25,-45 297.25,-45 297.25,-39 303.25,-33 309.25,-33 309.25,-33 339.25,-33 339.25,-33 345.25,-33 351.25,-39 351.25,-45 351.25,-45 351.25,-57 351.25,-57 351.25,-63 345.25,-69 339.25,-69"/>
<text xml:space="preserve" text-anchor="middle" x="324.25" y="-47.5" font-family="Arial" font-size="10.00" fill="#1a1a1a">data</text>
</g>
<!-- attr_0 -->
<g id="node9" class="node">
<title>attr_0</title>
<path fill="#c7b8e6" stroke="#7f8c8d" stroke-width="1.2" d="M511.5,-101C511.5,-101 416.75,-101 416.75,-101 410.75,-101 404.75,-95 404.75,-89 404.75,-89 404.75,-77 404.75,-77 404.75,-71 410.75,-65 416.75,-65 416.75,-65 511.5,-65 511.5,-65 517.5,-65 523.5,-71 523.5,-77 523.5,-77 523.5,-89 523.5,-89 523.5,-95 517.5,-101 511.5,-101"/>
<text xml:space="preserve" text-anchor="middle" x="464.12" y="-79.5" font-family="Arial" font-size="10.00" fill="#1a1a1a">(−) sparse minimal data</text>
</g>
<!-- content.data&#45;&gt;attr_0 -->
<g id="edge4" class="edge">
<title>content.data&#45;&gt;attr_0</title>
<path fill="none" stroke="#aaaaaa" d="M351.83,-57.17C364.56,-60.12 380.43,-63.81 396.17,-67.46"/>
<polygon fill="#aaaaaa" stroke="#aaaaaa" points="395.52,-69.82 402.89,-69.02 396.63,-65.05 395.52,-69.82"/>
</g>
<!-- rel_1 -->
<g id="node12" class="node">
<title>rel_1</title>
<path fill="#f5b8b8" stroke="#d46a6a" stroke-width="1.2" d="M511.88,-36C511.88,-36 416.38,-36 416.38,-36 410.38,-36 404.38,-30 404.38,-24 404.38,-24 404.38,-12 404.38,-12 404.38,-6 410.38,0 416.38,0 416.38,0 511.88,0 511.88,0 517.88,0 523.88,-6 523.88,-12 523.88,-12 523.88,-24 523.88,-24 523.88,-30 517.88,-36 511.88,-36"/>
<text xml:space="preserve" text-anchor="middle" x="464.12" y="-14.5" font-family="Arial" font-size="10.00" fill="#8b0000">provides little content in</text>
</g>
<!-- content.data&#45;&gt;rel_1 -->
<g id="edge8" class="edge">
<title>content.data&#45;&gt;rel_1</title>
<path fill="none" stroke="#d46a6a" stroke-width="1.5" d="M351.83,-44.64C363.97,-41.73 378.96,-38.15 393.96,-34.55"/>
<polygon fill="#d46a6a" stroke="#d46a6a" stroke-width="1.5" points="394.45,-37.32 401.58,-32.73 393.15,-31.87 394.45,-37.32"/>
</g>
<!-- unknown.graphic_form -->
<g id="node4" class="node">
<title>unknown.graphic_form</title>
<path fill="#b8e6b8" stroke="#2c3e50" stroke-width="1.8" d="M58,-101C58,-101 12,-101 12,-101 6,-101 0,-95 0,-89 0,-89 0,-77 0,-77 0,-71 6,-65 12,-65 12,-65 58,-65 58,-65 64,-65 70,-71 70,-77 70,-77 70,-89 70,-89 70,-95 64,-101 58,-101"/>
<text xml:space="preserve" text-anchor="middle" x="35" y="-79.5" font-family="Arial" font-size="10.00" fill="#1a1a1a">graphic form</text>
</g>
<!-- attr_3 -->
<g id="node10" class="node">
<title>attr_3</title>
<path fill="#c7b8e6" stroke="#7f8c8d" stroke-width="1.2" d="M242.25,-134C242.25,-134 125,-134 125,-134 119,-134 113,-128 113,-122 113,-122 113,-110 113,-110 113,-104 119,-98 125,-98 125,-98 242.25,-98 242.25,-98 248.25,-98 254.25,-104 254.25,-110 254.25,-110 254.25,-122 254.25,-122 254.25,-128 248.25,-134 242.25,-134"/>
<text xml:space="preserve" text-anchor="middle" x="183.62" y="-112.5" font-family="Arial" font-size="10.00" fill="#1a1a1a">(−) visually dominant graphic</text>
</g>
<!-- unknown.graphic_form&#45;&gt;attr_3 -->
<g id="edge5" class="edge">
<title>unknown.graphic_form&#45;&gt;attr_3</title>
<path fill="none" stroke="#aaaaaa" d="M70.75,-90.82C81,-93.13 92.66,-95.75 104.49,-98.41"/>
<polygon fill="#aaaaaa" stroke="#aaaaaa" points="103.84,-100.78 111.21,-99.93 104.92,-96 103.84,-100.78"/>
</g>
<!-- rel_2 -->
<g id="node13" class="node">
<title>rel_2</title>
<path fill="#f5b8b8" stroke="#d46a6a" stroke-width="1.2" d="M213,-69C213,-69 154.25,-69 154.25,-69 148.25,-69 142.25,-63 142.25,-57 142.25,-57 142.25,-45 142.25,-45 142.25,-39 148.25,-33 154.25,-33 154.25,-33 213,-33 213,-33 219,-33 225,-39 225,-45 225,-45 225,-57 225,-57 225,-63 219,-69 213,-69"/>
<text xml:space="preserve" text-anchor="middle" x="183.62" y="-47.5" font-family="Arial" font-size="10.00" fill="#8b0000">dominates over</text>
</g>
<!-- unknown.graphic_form&#45;&gt;rel_2 -->
<g id="edge10" class="edge">
<title>unknown.graphic_form&#45;&gt;rel_2</title>
<path fill="none" stroke="#d46a6a" stroke-width="1.5" d="M70.75,-75.42C89,-71.43 111.72,-66.47 131.91,-62.07"/>
<polygon fill="#d46a6a" stroke="#d46a6a" stroke-width="1.5" points="132.45,-64.82 139.67,-60.38 131.25,-59.35 132.45,-64.82"/>
</g>
<!-- text.axis_label -->
<g id="node5" class="node">
<title>text.axis_label</title>
<path fill="#b8e6b8" stroke="#2c3e50" stroke-width="1.8" d="M623.38,-361C623.38,-361 590.12,-361 590.12,-361 584.12,-361 578.12,-355 578.12,-349 578.12,-349 578.12,-337 578.12,-337 578.12,-331 584.12,-325 590.12,-325 590.12,-325 623.38,-325 623.38,-325 629.38,-325 635.38,-331 635.38,-337 635.38,-337 635.38,-349 635.38,-349 635.38,-355 629.38,-361 623.38,-361"/>
<text xml:space="preserve" text-anchor="middle" x="606.75" y="-339.5" font-family="Arial" font-size="10.00" fill="#1a1a1a">axis label</text>
</g>
<!-- rel_0&#45;&gt;unknown.area_chart -->
<g id="edge7" class="edge">
<title>rel_0&#45;&gt;unknown.area_chart</title>
<path fill="none" stroke="#d46a6a" stroke-width="1.5" d="M513.31,-259.46C520.62,-255.59 527.78,-251.1 534,-246 557.97,-226.34 578.07,-196.95 590.84,-175.48"/>
<polygon fill="#d46a6a" stroke="#d46a6a" stroke-width="1.5" points="593.13,-177.11 594.72,-168.78 588.29,-174.3 593.13,-177.11"/>
</g>
<!-- rel_1&#45;&gt;unknown.area_chart -->
<g id="edge9" class="edge">
<title>rel_1&#45;&gt;unknown.area_chart</title>
<path fill="none" stroke="#d46a6a" stroke-width="1.5" d="M513.31,-36.54C520.62,-40.41 527.78,-44.9 534,-50 557.97,-69.66 578.07,-99.05 590.84,-120.52"/>
<polygon fill="#d46a6a" stroke="#d46a6a" stroke-width="1.5" points="588.29,-121.7 594.72,-127.22 593.13,-118.89 588.29,-121.7"/>
</g>
<!-- rel_2&#45;&gt;content.data -->
<g id="edge11" class="edge">
<title>rel_2&#45;&gt;content.data</title>
<path fill="none" stroke="#d46a6a" stroke-width="1.5" d="M225.47,-51C244.78,-51 267.67,-51 286.45,-51"/>
<polygon fill="#d46a6a" stroke="#d46a6a" stroke-width="1.5" points="286.42,-53.8 294.42,-51 286.42,-48.2 286.42,-53.8"/>
</g>
<!-- rel_3&#45;&gt;text.axis_label -->
<g id="edge13" class="edge">
<title>rel_3&#45;&gt;text.axis_label</title>
<path fill="none" stroke="#d46a6a" stroke-width="1.5" d="M492.57,-343C513.88,-343 543.68,-343 567.35,-343"/>
<polygon fill="#d46a6a" stroke="#d46a6a" stroke-width="1.5" points="567.14,-345.8 575.14,-343 567.14,-340.2 567.14,-345.8"/>
</g>
</g>
</svg>
