<?xml version="1.0" encoding="UTF-8" standalone="no"?>
<!DOCTYPE svg PUBLIC "-//W3C//DTD SVG 1.1//EN"
 "http://www.w3.org/Graphics/SVG/1.1/DTD/svg11.dtd">
<!-- Generated by graphviz version 14.1.5 (20260411.2331)
 -->
<!-- Title: VASTC.1.8.png Pages: 1 -->
<svg width="804pt" height="342pt"
 viewBox="0.00 0.00 804.00 342.00" xmlns="http://www.w3.org/2000/svg" xmlns:xlink="http://www.w3.org/1999/xlink">
<g id="graph0" class="graph" transform="scale(1 1) rotate(0) translate(4 338.25)">
<title>VASTC.1.8.png</title>
<polygon fill="white" stroke="none" points="-4,4 -4,-338.25 799.75,-338.25 799.75,4 -4,4"/>
<text xml:space="preserve" text-anchor="start" x="349.88" y="-313.95" font-family="Arial" font-weight="bold" font-size="14.00">VASTC.1.8.png</text>
<text xml:space="preserve" text-anchor="start" x="355.5" y="-294" font-family="Arial" font-size="11.00">Grid &#160;| &#160;VC = 0.73</text>
<path fill="#b8e6b8" stroke="none" d="M188.5,-269C188.5,-269 196.5,-269 196.5,-269 199.5,-269 202.5,-272 202.5,-275 202.5,-275 202.5,-281 202.5,-281 202.5,-284 199.5,-287 196.5,-287 196.5,-287 188.5,-287 188.5,-287 185.5,-287 182.5,-284 182.5,-281 182.5,-281 182.5,-275 182.5,-275 182.5,-272 185.5,-269 188.5,-269"/>
<path fill="none" stroke="black" d="M188.5,-269C188.5,-269 196.5,-269 196.5,-269 199.5,-269 202.5,-272 202.5,-275 202.5,-275 202.5,-281 202.5,-281 202.5,-284 199.5,-287 196.5,-287 196.5,-287 188.5,-287 188.5,-287 185.5,-287 182.5,-284 182.5,-281 182.5,-281 182.5,-275 182.5,-275 182.5,-272 185.5,-269 188.5,-269"/>
<text xml:space="preserve" text-anchor="start" x="191" y="-274.25" font-family="Arial" font-size="10.00"> </text>
<text xml:space="preserve" text-anchor="start" x="206.5" y="-274.25" font-family="Arial" font-size="10.00">Object</text>
<path fill="#c7b8e6" stroke="none" d="M245,-269C245,-269 253,-269 253,-269 256,-269 259,-272 259,-275 259,-275 259,-281 259,-281 259,-284 256,-287 253,-287 253,-287 245,-287 245,-287 242,-287 239,-284 239,-281 239,-281 239,-275 239,-275 239,-272 242,-269 245,-269"/>
<path fill="none" stroke="black" d="M245,-269C245,-269 253,-269 253,-269 256,-269 259,-272 259,-275 259,-275 259,-281 259,-281 259,-284 256,-287 253,-287 253,-287 245,-287 245,-287 242,-287 239,-284 239,-281 239,-281 239,-275 239,-275 239,-272 242,-269 245,-269"/>
<text xml:space="preserve" text-anchor="start" x="247.5" y="-274.25" font-family="Arial" font-size="10.00"> </text>
<text xml:space="preserve" text-anchor="start" x="263" y="-274.25" font-family="Arial" font-size="10.00">Attribute</text>
<path fill="#f5b8b8" stroke="none" d="M309.75,-269C309.75,-269 317.75,-269 317.75,-269 320.75,-269 323.75,-272 323.75,-275 323.75,-275 323.75,-281 323.75,-281 323.75,-284 320.75,-287 317.75,-287 317.75,-287 309.75,-287 309.75,-287 306.75,-287 303.75,-284 303.75,-281 303.75,-281 303.75,-275 303.75,-275 303.75,-272 306.75,-269 309.75,-269"/>
<path fill="none" stroke="black" d="M309.75,-269C309.75,-269 317.75,-269 317.75,-269 320.75,-269 323.75,-272 323.75,-275 323.75,-275 323.75,-281 323.75,-281 323.75,-284 320.75,-287 317.75,-287 317.75,-287 309.75,-287 309.75,-287 306.75,-287 303.75,-284 303.75,-281 303.75,-281 303.75,-275 303.75,-275 303.75,-272 306.75,-269 309.75,-269"/>
<text xml:space="preserve" text-anchor="start" x="312.25" y="-274.25" font-family="Arial" font-size="10.00"> </text>
<text xml:space="preserve" text-anchor="start" x="327.75" y="-274.25" font-family="Arial" font-size="10.00">Relationship</text>
<text xml:space="preserve" text-anchor="start" x="387.75" y="-275.5" font-family="Arial" font-weight="bold" font-size="10.00">(+)</text>
<text xml:space="preserve" text-anchor="start" x="399.75" y="-275.5" font-family="Arial" font-size="10.00"> increases complexity</text>
<text xml:space="preserve" text-anchor="start" x="501" y="-275.5" font-family="Arial" font-weight="bold" font-size="10.00">(−)</text>
<text xml:space="preserve" text-anchor="start" x="513" y="-275.5" font-family="Arial" font-size="10.00"> decreases complexity</text>
<!-- structure.grid -->
<g id="node1" class="node">
<title>structure.grid</title>
<path fill="#b8e6b8" stroke="#2c3e50" stroke-width="1.8" d="M596.5,-133C596.5,-133 566.5,-133 566.5,-133 560.5,-133 554.5,-127 554.5,-121 554.5,-121 554.5,-109 554.5,-109 554.5,-103 560.5,-97 566.5,-97 566.5,-97 596.5,-97 596.5,-97 602.5,-97 608.5,-103 608.5,-109 608.5,-109 608.5,-121 608.5,-121 608.5,-127 602.5,-133 596.5,-133"/>
<text xml:space="preserve" text-anchor="middle" x="581.5" y="-111.5" font-family="Arial" font-size="10.00" fill="#1a1a1a">grid</text>
</g>
<!-- attr_4 -->
<g id="node6" class="node">
<title>attr_4</title>
<path fill="#c7b8e6" stroke="#7f8c8d" stroke-width="1.2" d="M783.75,-133C783.75,-133 663.5,-133 663.5,-133 657.5,-133 651.5,-127 651.5,-121 651.5,-121 651.5,-109 651.5,-109 651.5,-103 657.5,-97 663.5,-97 663.5,-97 783.75,-97 783.75,-97 789.75,-97 795.75,-103 795.75,-109 795.75,-109 795.75,-121 795.75,-121 795.75,-127 789.75,-133 783.75,-133"/>
<text xml:space="preserve" text-anchor="middle" x="723.62" y="-111.5" font-family="Arial" font-size="10.00" fill="#1a1a1a">(+) spatially congested layout</text>
</g>
<!-- structure.grid&#45;&gt;attr_4 -->
<g id="edge1" class="edge">
<title>structure.grid&#45;&gt;attr_4</title>
<path fill="none" stroke="#aaaaaa" d="M609.19,-115C618.99,-115 630.67,-115 642.74,-115"/>
<polygon fill="#aaaaaa" stroke="#aaaaaa" points="642.63,-117.45 649.63,-115 642.63,-112.55 642.63,-117.45"/>
</g>
<!-- text.label -->
<g id="node2" class="node">
<title>text.label</title>
<path fill="#b8e6b8" stroke="#2c3e50" stroke-width="1.8" d="M42,-198C42,-198 12,-198 12,-198 6,-198 0,-192 0,-186 0,-186 0,-174 0,-174 0,-168 6,-162 12,-162 12,-162 42,-162 42,-162 48,-162 54,-168 54,-174 54,-174 54,-186 54,-186 54,-192 48,-198 42,-198"/>
<text xml:space="preserve" text-anchor="middle" x="27" y="-176.5" font-family="Arial" font-size="10.00" fill="#1a1a1a">text</text>
</g>
<!-- attr_0 -->
<g id="node7" class="node">
<title>attr_0</title>
<path fill="#c7b8e6" stroke="#7f8c8d" stroke-width="1.2" d="M197.38,-231C197.38,-231 118.38,-231 118.38,-231 112.38,-231 106.38,-225 106.38,-219 106.38,-219 106.38,-207 106.38,-207 106.38,-201 112.38,-195 118.38,-195 118.38,-195 197.38,-195 197.38,-195 203.38,-195 209.38,-201 209.38,-207 209.38,-207 209.38,-219 209.38,-219 209.38,-225 203.38,-231 197.38,-231"/>
<text xml:space="preserve" text-anchor="middle" x="157.88" y="-209.5" font-family="Arial" font-size="10.00" fill="#1a1a1a">(+) high text volume</text>
</g>
<!-- text.label&#45;&gt;attr_0 -->
<g id="edge2" class="edge">
<title>text.label&#45;&gt;attr_0</title>
<path fill="none" stroke="#aaaaaa" d="M54.7,-186.84C67.32,-190.07 82.92,-194.06 98.1,-197.95"/>
<polygon fill="#aaaaaa" stroke="#aaaaaa" points="97.13,-200.23 104.52,-199.59 98.34,-195.48 97.13,-200.23"/>
</g>
<!-- rel_1 -->
<g id="node12" class="node">
<title>rel_1</title>
<path fill="#f5b8b8" stroke="#d46a6a" stroke-width="1.2" d="M180.12,-166C180.12,-166 135.62,-166 135.62,-166 129.62,-166 123.62,-160 123.62,-154 123.62,-154 123.62,-142 123.62,-142 123.62,-136 129.62,-130 135.62,-130 135.62,-130 180.12,-130 180.12,-130 186.12,-130 192.12,-136 192.12,-142 192.12,-142 192.12,-154 192.12,-154 192.12,-160 186.12,-166 180.12,-166"/>
<text xml:space="preserve" text-anchor="middle" x="157.88" y="-144.5" font-family="Arial" font-size="10.00" fill="#8b0000">overwhelms</text>
</g>
<!-- text.label&#45;&gt;rel_1 -->
<g id="edge8" class="edge">
<title>text.label&#45;&gt;rel_1</title>
<path fill="none" stroke="#d46a6a" stroke-width="1.5" d="M54.7,-173.37C71.65,-169.16 93.99,-163.62 113.45,-158.78"/>
<polygon fill="#d46a6a" stroke="#d46a6a" stroke-width="1.5" points="114.02,-161.53 121.11,-156.88 112.67,-156.09 114.02,-161.53"/>
</g>
<!-- property.color -->
<g id="node3" class="node">
<title>property.color</title>
<path fill="#b8e6b8" stroke="#2c3e50" stroke-width="1.8" d="M308.75,-230C308.75,-230 278.75,-230 278.75,-230 272.75,-230 266.75,-224 266.75,-218 266.75,-218 266.75,-206 266.75,-206 266.75,-200 272.75,-194 278.75,-194 278.75,-194 308.75,-194 308.75,-194 314.75,-194 320.75,-200 320.75,-206 320.75,-206 320.75,-218 320.75,-218 320.75,-224 314.75,-230 308.75,-230"/>
<text xml:space="preserve" text-anchor="middle" x="293.75" y="-208.5" font-family="Arial" font-size="10.00" fill="#1a1a1a">color</text>
</g>
<!-- attr_1 -->
<g id="node8" class="node">
<title>attr_1</title>
<path fill="#c7b8e6" stroke="#7f8c8d" stroke-width="1.2" d="M492.75,-263C492.75,-263 387.5,-263 387.5,-263 381.5,-263 375.5,-257 375.5,-251 375.5,-251 375.5,-239 375.5,-239 375.5,-233 381.5,-227 387.5,-227 387.5,-227 492.75,-227 492.75,-227 498.75,-227 504.75,-233 504.75,-239 504.75,-239 504.75,-251 504.75,-251 504.75,-257 498.75,-263 492.75,-263"/>
<text xml:space="preserve" text-anchor="middle" x="440.12" y="-241.5" font-family="Arial" font-size="10.00" fill="#1a1a1a">(+) multiple colors present</text>
</g>
<!-- property.color&#45;&gt;attr_1 -->
<g id="edge3" class="edge">
<title>property.color&#45;&gt;attr_1</title>
<path fill="none" stroke="#aaaaaa" d="M321.57,-218.13C334.53,-221.09 350.78,-224.81 367.02,-228.52"/>
<polygon fill="#aaaaaa" stroke="#aaaaaa" points="366.14,-230.83 373.51,-230 367.23,-226.05 366.14,-230.83"/>
</g>
<!-- rel_0 -->
<g id="node11" class="node">
<title>rel_0</title>
<path fill="#f5b8b8" stroke="#d46a6a" stroke-width="1.2" d="M487.88,-198C487.88,-198 392.38,-198 392.38,-198 386.38,-198 380.38,-192 380.38,-186 380.38,-186 380.38,-174 380.38,-174 380.38,-168 386.38,-162 392.38,-162 392.38,-162 487.88,-162 487.88,-162 493.88,-162 499.88,-168 499.88,-174 499.88,-174 499.88,-186 499.88,-186 499.88,-192 493.88,-198 487.88,-198"/>
<text xml:space="preserve" text-anchor="middle" x="440.12" y="-176.5" font-family="Arial" font-size="10.00" fill="#8b0000">increases complexity of</text>
</g>
<!-- property.color&#45;&gt;rel_0 -->
<g id="edge6" class="edge">
<title>property.color&#45;&gt;rel_0</title>
<path fill="none" stroke="#d46a6a" stroke-width="1.5" d="M321.57,-206.06C335.4,-202.99 352.96,-199.1 370.27,-195.26"/>
<polygon fill="#d46a6a" stroke="#d46a6a" stroke-width="1.5" points="370.42,-198.1 377.62,-193.63 369.21,-192.63 370.42,-198.1"/>
</g>
<!-- structure.panel -->
<g id="node4" class="node">
<title>structure.panel</title>
<path fill="#b8e6b8" stroke="#2c3e50" stroke-width="1.8" d="M42,-69C42,-69 12,-69 12,-69 6,-69 0,-63 0,-57 0,-57 0,-45 0,-45 0,-39 6,-33 12,-33 12,-33 42,-33 42,-33 48,-33 54,-39 54,-45 54,-45 54,-57 54,-57 54,-63 48,-69 42,-69"/>
<text xml:space="preserve" text-anchor="middle" x="27" y="-47.5" font-family="Arial" font-size="10.00" fill="#1a1a1a">box</text>
</g>
<!-- attr_2 -->
<g id="node9" class="node">
<title>attr_2</title>
<path fill="#c7b8e6" stroke="#7f8c8d" stroke-width="1.2" d="M206.75,-101C206.75,-101 109,-101 109,-101 103,-101 97,-95 97,-89 97,-89 97,-77 97,-77 97,-71 103,-65 109,-65 109,-65 206.75,-65 206.75,-65 212.75,-65 218.75,-71 218.75,-77 218.75,-77 218.75,-89 218.75,-89 218.75,-95 212.75,-101 206.75,-101"/>
<text xml:space="preserve" text-anchor="middle" x="157.88" y="-79.5" font-family="Arial" font-size="10.00" fill="#1a1a1a">(+) many discrete boxes</text>
</g>
<!-- structure.panel&#45;&gt;attr_2 -->
<g id="edge4" class="edge">
<title>structure.panel&#45;&gt;attr_2</title>
<path fill="none" stroke="#aaaaaa" d="M54.7,-57.63C64.59,-60.08 76.3,-62.99 88.21,-65.95"/>
<polygon fill="#aaaaaa" stroke="#aaaaaa" points="87.61,-68.32 94.99,-67.63 88.79,-63.57 87.61,-68.32"/>
</g>
<!-- rel_2 -->
<g id="node13" class="node">
<title>rel_2</title>
<path fill="#f5b8b8" stroke="#d46a6a" stroke-width="1.2" d="M183.5,-36C183.5,-36 132.25,-36 132.25,-36 126.25,-36 120.25,-30 120.25,-24 120.25,-24 120.25,-12 120.25,-12 120.25,-6 126.25,0 132.25,0 132.25,0 183.5,0 183.5,0 189.5,0 195.5,-6 195.5,-12 195.5,-12 195.5,-24 195.5,-24 195.5,-30 189.5,-36 183.5,-36"/>
<text xml:space="preserve" text-anchor="middle" x="157.88" y="-14.5" font-family="Arial" font-size="10.00" fill="#8b0000">contributes to</text>
</g>
<!-- structure.panel&#45;&gt;rel_2 -->
<g id="edge10" class="edge">
<title>structure.panel&#45;&gt;rel_2</title>
<path fill="none" stroke="#d46a6a" stroke-width="1.5" d="M54.7,-44.16C70.7,-40.07 91.49,-34.74 110.14,-29.97"/>
<polygon fill="#d46a6a" stroke="#d46a6a" stroke-width="1.5" points="110.69,-32.72 117.75,-28.02 109.3,-27.29 110.69,-32.72"/>
</g>
<!-- content.data -->
<g id="node5" class="node">
<title>content.data</title>
<path fill="#b8e6b8" stroke="#2c3e50" stroke-width="1.8" d="M313.75,-101C313.75,-101 273.75,-101 273.75,-101 267.75,-101 261.75,-95 261.75,-89 261.75,-89 261.75,-77 261.75,-77 261.75,-71 267.75,-65 273.75,-65 273.75,-65 313.75,-65 313.75,-65 319.75,-65 325.75,-71 325.75,-77 325.75,-77 325.75,-89 325.75,-89 325.75,-95 319.75,-101 313.75,-101"/>
<text xml:space="preserve" text-anchor="middle" x="293.75" y="-79.5" font-family="Arial" font-size="10.00" fill="#1a1a1a">information</text>
</g>
<!-- attr_3 -->
<g id="node10" class="node">
<title>attr_3</title>
<path fill="#c7b8e6" stroke="#7f8c8d" stroke-width="1.2" d="M499.5,-133C499.5,-133 380.75,-133 380.75,-133 374.75,-133 368.75,-127 368.75,-121 368.75,-121 368.75,-109 368.75,-109 368.75,-103 374.75,-97 380.75,-97 380.75,-97 499.5,-97 499.5,-97 505.5,-97 511.5,-103 511.5,-109 511.5,-109 511.5,-121 511.5,-121 511.5,-127 505.5,-133 499.5,-133"/>
<text xml:space="preserve" text-anchor="middle" x="440.12" y="-111.5" font-family="Arial" font-size="10.00" fill="#1a1a1a">(+) dense layered information</text>
</g>
<!-- content.data&#45;&gt;attr_3 -->
<g id="edge5" class="edge">
<title>content.data&#45;&gt;attr_3</title>
<path fill="none" stroke="#aaaaaa" d="M326.43,-90.02C336.48,-92.25 348.08,-94.82 359.93,-97.45"/>
<polygon fill="#aaaaaa" stroke="#aaaaaa" points="359.32,-99.82 366.68,-98.94 360.38,-95.04 359.32,-99.82"/>
</g>
<!-- rel_3 -->
<g id="node14" class="node">
<title>rel_3</title>
<path fill="#f5b8b8" stroke="#d46a6a" stroke-width="1.2" d="M490.88,-68C490.88,-68 389.38,-68 389.38,-68 383.38,-68 377.38,-62 377.38,-56 377.38,-56 377.38,-44 377.38,-44 377.38,-38 383.38,-32 389.38,-32 389.38,-32 490.88,-32 490.88,-32 496.88,-32 502.88,-38 502.88,-44 502.88,-44 502.88,-56 502.88,-56 502.88,-62 496.88,-68 490.88,-68"/>
<text xml:space="preserve" text-anchor="middle" x="440.12" y="-46.5" font-family="Arial" font-size="10.00" fill="#8b0000">requires processing effort</text>
</g>
<!-- content.data&#45;&gt;rel_3 -->
<g id="edge12" class="edge">
<title>content.data&#45;&gt;rel_3</title>
<path fill="none" stroke="#d46a6a" stroke-width="1.5" d="M326.43,-75.76C338.51,-73 352.81,-69.73 367.11,-66.46"/>
<polygon fill="#d46a6a" stroke="#d46a6a" stroke-width="1.5" points="367.59,-69.22 374.77,-64.71 366.34,-63.76 367.59,-69.22"/>
</g>
<!-- rel_0&#45;&gt;structure.grid -->
<g id="edge7" class="edge">
<title>rel_0&#45;&gt;structure.grid</title>
<path fill="none" stroke="#d46a6a" stroke-width="1.5" d="M482.12,-161.52C491.77,-157.12 502.01,-152.43 511.5,-148 522.3,-142.96 534,-137.4 544.65,-132.31"/>
<polygon fill="#d46a6a" stroke="#d46a6a" stroke-width="1.5" points="545.64,-134.94 551.64,-128.95 543.22,-129.89 545.64,-134.94"/>
</g>
<!-- rel_1&#45;&gt;content.data -->
<g id="edge9" class="edge">
<title>rel_1&#45;&gt;content.data</title>
<path fill="none" stroke="#d46a6a" stroke-width="1.5" d="M192.66,-131.6C210.76,-122.81 233.2,-111.91 252.24,-102.67"/>
<polygon fill="#d46a6a" stroke="#d46a6a" stroke-width="1.5" points="253.26,-105.29 259.24,-99.27 250.82,-100.25 253.26,-105.29"/>
</g>
<!-- rel_2&#45;&gt;content.data -->
<g id="edge11" class="edge">
<title>rel_2&#45;&gt;content.data</title>
<path fill="none" stroke="#d46a6a" stroke-width="1.5" d="M195.81,-35.93C213.21,-44.38 234.02,-54.48 251.89,-63.16"/>
<polygon fill="#d46a6a" stroke="#d46a6a" stroke-width="1.5" points="250.47,-65.59 258.89,-66.56 252.92,-60.55 250.47,-65.59"/>
</g>
<!-- rel_3&#45;&gt;structure.grid -->
<g id="edge13" class="edge">
<title>rel_3&#45;&gt;structure.grid</title>
<path fill="none" stroke="#d46a6a" stroke-width="1.5" d="M480.69,-68.45C500.75,-77.81 524.93,-89.08 544.46,-98.19"/>
<polygon fill="#d46a6a" stroke="#d46a6a" stroke-width="1.5" points="543.15,-100.67 551.59,-101.51 545.52,-95.6 543.15,-100.67"/>
</g>
</g>
</svg>
