<?xml version="1.0" encoding="UTF-8" standalone="no"?>
<!DOCTYPE svg PUBLIC "-//W3C//DTD SVG 1.1//EN"
 "http://www.w3.org/Graphics/SVG/1.1/DTD/svg11.dtd">
<!-- Generated by graphviz version 14.1.5 (20260411.2331)
 -->
<!-- Title: VASTJ.101.1.png Pages: 1 -->
<svg width="504pt" height="570pt"
 viewBox="0.00 0.00 504.00 570.00" xmlns="http://www.w3.org/2000/svg" xmlns:xlink="http://www.w3.org/1999/xlink">
<g id="graph0" class="graph" transform="scale(1 1) rotate(0) translate(4 566.25)">
<title>VASTJ.101.1.png</title>
<polygon fill="white" stroke="none" points="-4,4 -4,-566.25 499.5,-566.25 499.5,4 -4,4"/>
<text xml:space="preserve" text-anchor="start" x="193.38" y="-541.95" font-family="Arial" font-weight="bold" font-size="14.00">VASTJ.101.1.png</text>
<text xml:space="preserve" text-anchor="start" x="206.88" y="-522" font-family="Arial" font-size="11.00">Bar &#160;| &#160;VC = 0.74</text>
<path fill="#b8e6b8" stroke="none" d="M38.38,-497C38.38,-497 46.38,-497 46.38,-497 49.38,-497 52.38,-500 52.38,-503 52.38,-503 52.38,-509 52.38,-509 52.38,-512 49.38,-515 46.38,-515 46.38,-515 38.38,-515 38.38,-515 35.38,-515 32.38,-512 32.38,-509 32.38,-509 32.38,-503 32.38,-503 32.38,-500 35.38,-497 38.38,-497"/>
<path fill="none" stroke="black" d="M38.38,-497C38.38,-497 46.38,-497 46.38,-497 49.38,-497 52.38,-500 52.38,-503 52.38,-503 52.38,-509 52.38,-509 52.38,-512 49.38,-515 46.38,-515 46.38,-515 38.38,-515 38.38,-515 35.38,-515 32.38,-512 32.38,-509 32.38,-509 32.38,-503 32.38,-503 32.38,-500 35.38,-497 38.38,-497"/>
<text xml:space="preserve" text-anchor="start" x="40.88" y="-502.25" font-family="Arial" font-size="10.00"> </text>
<text xml:space="preserve" text-anchor="start" x="56.38" y="-502.25" font-family="Arial" font-size="10.00">Object</text>
<path fill="#c7b8e6" stroke="none" d="M94.88,-497C94.88,-497 102.88,-497 102.88,-497 105.88,-497 108.88,-500 108.88,-503 108.88,-503 108.88,-509 108.88,-509 108.88,-512 105.88,-515 102.88,-515 102.88,-515 94.88,-515 94.88,-515 91.88,-515 88.88,-512 88.88,-509 88.88,-509 88.88,-503 88.88,-503 88.88,-500 91.88,-497 94.88,-497"/>
<path fill="none" stroke="black" d="M94.88,-497C94.88,-497 102.88,-497 102.88,-497 105.88,-497 108.88,-500 108.88,-503 108.88,-503 108.88,-509 108.88,-509 108.88,-512 105.88,-515 102.88,-515 102.88,-515 94.88,-515 94.88,-515 91.88,-515 88.88,-512 88.88,-509 88.88,-509 88.88,-503 88.88,-503 88.88,-500 91.88,-497 94.88,-497"/>
<text xml:space="preserve" text-anchor="start" x="97.38" y="-502.25" font-family="Arial" font-size="10.00"> </text>
<text xml:space="preserve" text-anchor="start" x="112.88" y="-502.25" font-family="Arial" font-size="10.00">Attribute</text>
<path fill="#f5b8b8" stroke="none" d="M159.62,-497C159.62,-497 167.62,-497 167.62,-497 170.62,-497 173.62,-500 173.62,-503 173.62,-503 173.62,-509 173.62,-509 173.62,-512 170.62,-515 167.62,-515 167.62,-515 159.62,-515 159.62,-515 156.62,-515 153.62,-512 153.62,-509 153.62,-509 153.62,-503 153.62,-503 153.62,-500 156.62,-497 159.62,-497"/>
<path fill="none" stroke="black" d="M159.62,-497C159.62,-497 167.62,-497 167.62,-497 170.62,-497 173.62,-500 173.62,-503 173.62,-503 173.62,-509 173.62,-509 173.62,-512 170.62,-515 167.62,-515 167.62,-515 159.62,-515 159.62,-515 156.62,-515 153.62,-512 153.62,-509 153.62,-509 153.62,-503 153.62,-503 153.62,-500 156.62,-497 159.62,-497"/>
<text xml:space="preserve" text-anchor="start" x="162.12" y="-502.25" font-family="Arial" font-size="10.00"> </text>
<text xml:space="preserve" text-anchor="start" x="177.62" y="-502.25" font-family="Arial" font-size="10.00">Relationship</text>
<text xml:space="preserve" text-anchor="start" x="237.62" y="-503.5" font-family="Arial" font-weight="bold" font-size="10.00">(+)</text>
<text xml:space="preserve" text-anchor="start" x="249.62" y="-503.5" font-family="Arial" font-size="10.00"> increases complexity</text>
<text xml:space="preserve" text-anchor="start" x="350.88" y="-503.5" font-family="Arial" font-weight="bold" font-size="10.00">(−)</text>
<text xml:space="preserve" text-anchor="start" x="362.88" y="-503.5" font-family="Arial" font-size="10.00"> decreases complexity</text>
<!-- mark.bar -->
<g id="node1" class="node">
<title>mark.bar</title>
<path fill="#b8e6b8" stroke="#2c3e50" stroke-width="1.8" d="M321.75,-166C321.75,-166 291.75,-166 291.75,-166 285.75,-166 279.75,-160 279.75,-154 279.75,-154 279.75,-142 279.75,-142 279.75,-136 285.75,-130 291.75,-130 291.75,-130 321.75,-130 321.75,-130 327.75,-130 333.75,-136 333.75,-142 333.75,-142 333.75,-154 333.75,-154 333.75,-160 327.75,-166 321.75,-166"/>
<text xml:space="preserve" text-anchor="middle" x="306.75" y="-144.5" font-family="Arial" font-size="10.00" fill="#1a1a1a">bar</text>
</g>
<!-- attr_3 -->
<g id="node6" class="node">
<title>attr_3</title>
<path fill="#c7b8e6" stroke="#7f8c8d" stroke-width="1.2" d="M474.88,-166C474.88,-166 397.38,-166 397.38,-166 391.38,-166 385.38,-160 385.38,-154 385.38,-154 385.38,-142 385.38,-142 385.38,-136 391.38,-130 397.38,-130 397.38,-130 474.88,-130 474.88,-130 480.88,-130 486.88,-136 486.88,-142 486.88,-142 486.88,-154 486.88,-154 486.88,-160 480.88,-166 474.88,-166"/>
<text xml:space="preserve" text-anchor="middle" x="436.12" y="-144.5" font-family="Arial" font-size="10.00" fill="#1a1a1a">(+) varied bar forms</text>
</g>
<!-- mark.bar&#45;&gt;attr_3 -->
<g id="edge1" class="edge">
<title>mark.bar&#45;&gt;attr_3</title>
<path fill="none" stroke="#aaaaaa" d="M334.45,-148C346.76,-148 361.89,-148 376.65,-148"/>
<polygon fill="#aaaaaa" stroke="#aaaaaa" points="376.28,-150.45 383.28,-148 376.28,-145.55 376.28,-150.45"/>
</g>
<!-- property.color -->
<g id="node2" class="node">
<title>property.color</title>
<path fill="#b8e6b8" stroke="#2c3e50" stroke-width="1.8" d="M42,-393C42,-393 12,-393 12,-393 6,-393 0,-387 0,-381 0,-381 0,-369 0,-369 0,-363 6,-357 12,-357 12,-357 42,-357 42,-357 48,-357 54,-363 54,-369 54,-369 54,-381 54,-381 54,-387 48,-393 42,-393"/>
<text xml:space="preserve" text-anchor="middle" x="27" y="-371.5" font-family="Arial" font-size="10.00" fill="#1a1a1a">color</text>
</g>
<!-- attr_0 -->
<g id="node7" class="node">
<title>attr_0</title>
<path fill="#c7b8e6" stroke="#7f8c8d" stroke-width="1.2" d="M207.5,-491C207.5,-491 126.25,-491 126.25,-491 120.25,-491 114.25,-485 114.25,-479 114.25,-479 114.25,-467 114.25,-467 114.25,-461 120.25,-455 126.25,-455 126.25,-455 207.5,-455 207.5,-455 213.5,-455 219.5,-461 219.5,-467 219.5,-467 219.5,-479 219.5,-479 219.5,-485 213.5,-491 207.5,-491"/>
<text xml:space="preserve" text-anchor="middle" x="166.88" y="-469.5" font-family="Arial" font-size="10.00" fill="#1a1a1a">(+) high color variety</text>
</g>
<!-- property.color&#45;&gt;attr_0 -->
<g id="edge2" class="edge">
<title>property.color&#45;&gt;attr_0</title>
<path fill="none" stroke="#aaaaaa" d="M44.47,-393.82C57.65,-408.07 77.15,-427.45 97,-441 102.13,-444.5 107.7,-447.8 113.39,-450.85"/>
<polygon fill="#aaaaaa" stroke="#aaaaaa" points="111.92,-452.85 119.27,-453.88 114.17,-448.5 111.92,-452.85"/>
</g>
<!-- attr_1 -->
<g id="node8" class="node">
<title>attr_1</title>
<path fill="#c7b8e6" stroke="#7f8c8d" stroke-width="1.2" d="M216.5,-426C216.5,-426 117.25,-426 117.25,-426 111.25,-426 105.25,-420 105.25,-414 105.25,-414 105.25,-402 105.25,-402 105.25,-396 111.25,-390 117.25,-390 117.25,-390 216.5,-390 216.5,-390 222.5,-390 228.5,-396 228.5,-402 228.5,-402 228.5,-414 228.5,-414 228.5,-420 222.5,-426 216.5,-426"/>
<text xml:space="preserve" text-anchor="middle" x="166.88" y="-404.5" font-family="Arial" font-size="10.00" fill="#1a1a1a">(+) multiple distinct hues</text>
</g>
<!-- property.color&#45;&gt;attr_1 -->
<g id="edge3" class="edge">
<title>property.color&#45;&gt;attr_1</title>
<path fill="none" stroke="#aaaaaa" d="M54.58,-381.36C66.78,-384.28 81.86,-387.89 96.94,-391.5"/>
<polygon fill="#aaaaaa" stroke="#aaaaaa" points="95.96,-393.79 103.34,-393.03 97.1,-389.02 95.96,-393.79"/>
</g>
<!-- rel_0 -->
<g id="node12" class="node">
<title>rel_0</title>
<path fill="#f5b8b8" stroke="#d46a6a" stroke-width="1.2" d="M214.62,-296C214.62,-296 119.12,-296 119.12,-296 113.12,-296 107.12,-290 107.12,-284 107.12,-284 107.12,-272 107.12,-272 107.12,-266 113.12,-260 119.12,-260 119.12,-260 214.62,-260 214.62,-260 220.62,-260 226.62,-266 226.62,-272 226.62,-272 226.62,-284 226.62,-284 226.62,-290 220.62,-296 214.62,-296"/>
<text xml:space="preserve" text-anchor="middle" x="166.88" y="-274.5" font-family="Arial" font-size="10.00" fill="#8b0000">increases complexity of</text>
</g>
<!-- property.color&#45;&gt;rel_0 -->
<g id="edge7" class="edge">
<title>property.color&#45;&gt;rel_0</title>
<path fill="none" stroke="#d46a6a" stroke-width="1.5" d="M45.17,-356.28C58.42,-342.57 77.68,-324.14 97,-311 102.11,-307.53 107.64,-304.22 113.27,-301.14"/>
<polygon fill="#d46a6a" stroke="#d46a6a" stroke-width="1.5" points="114.35,-303.74 120.14,-297.55 111.75,-298.78 114.35,-303.74"/>
</g>
<!-- rel_3 -->
<g id="node15" class="node">
<title>rel_3</title>
<path fill="#f5b8b8" stroke="#d46a6a" stroke-width="1.2" d="M208.62,-361C208.62,-361 125.12,-361 125.12,-361 119.12,-361 113.12,-355 113.12,-349 113.12,-349 113.12,-337 113.12,-337 113.12,-331 119.12,-325 125.12,-325 125.12,-325 208.62,-325 208.62,-325 214.62,-325 220.62,-331 220.62,-337 220.62,-337 220.62,-349 220.62,-349 220.62,-355 214.62,-361 208.62,-361"/>
<text xml:space="preserve" text-anchor="middle" x="166.88" y="-339.5" font-family="Arial" font-size="10.00" fill="#8b0000">requires expertise for</text>
</g>
<!-- property.color&#45;&gt;rel_3 -->
<g id="edge13" class="edge">
<title>property.color&#45;&gt;rel_3</title>
<path fill="none" stroke="#d46a6a" stroke-width="1.5" d="M54.58,-368.83C68.32,-365.64 85.72,-361.6 102.66,-357.67"/>
<polygon fill="#d46a6a" stroke="#d46a6a" stroke-width="1.5" points="103.17,-360.43 110.33,-355.89 101.91,-354.97 103.17,-360.43"/>
</g>
<!-- mark.shape -->
<g id="node3" class="node">
<title>mark.shape</title>
<path fill="#b8e6b8" stroke="#2c3e50" stroke-width="1.8" d="M42,-199C42,-199 12,-199 12,-199 6,-199 0,-193 0,-187 0,-187 0,-175 0,-175 0,-169 6,-163 12,-163 12,-163 42,-163 42,-163 48,-163 54,-169 54,-175 54,-175 54,-187 54,-187 54,-193 48,-199 42,-199"/>
<text xml:space="preserve" text-anchor="middle" x="27" y="-177.5" font-family="Arial" font-size="10.00" fill="#1a1a1a">shape</text>
</g>
<!-- attr_2 -->
<g id="node9" class="node">
<title>attr_2</title>
<path fill="#c7b8e6" stroke="#7f8c8d" stroke-width="1.2" d="M224.75,-231C224.75,-231 109,-231 109,-231 103,-231 97,-225 97,-219 97,-219 97,-207 97,-207 97,-201 103,-195 109,-195 109,-195 224.75,-195 224.75,-195 230.75,-195 236.75,-201 236.75,-207 236.75,-207 236.75,-219 236.75,-219 236.75,-225 230.75,-231 224.75,-231"/>
<text xml:space="preserve" text-anchor="middle" x="166.88" y="-209.5" font-family="Arial" font-size="10.00" fill="#1a1a1a">(+) complex irregular shapes</text>
</g>
<!-- mark.shape&#45;&gt;attr_2 -->
<g id="edge4" class="edge">
<title>mark.shape&#45;&gt;attr_2</title>
<path fill="none" stroke="#aaaaaa" d="M54.58,-187.17C64.47,-189.46 76.25,-192.2 88.39,-195.02"/>
<polygon fill="#aaaaaa" stroke="#aaaaaa" points="87.56,-197.34 94.93,-196.53 88.67,-192.57 87.56,-197.34"/>
</g>
<!-- rel_1 -->
<g id="node13" class="node">
<title>rel_1</title>
<path fill="#f5b8b8" stroke="#d46a6a" stroke-width="1.2" d="M189.12,-166C189.12,-166 144.62,-166 144.62,-166 138.62,-166 132.62,-160 132.62,-154 132.62,-154 132.62,-142 132.62,-142 132.62,-136 138.62,-130 144.62,-130 144.62,-130 189.12,-130 189.12,-130 195.12,-130 201.12,-136 201.12,-142 201.12,-142 201.12,-154 201.12,-154 201.12,-160 195.12,-166 189.12,-166"/>
<text xml:space="preserve" text-anchor="middle" x="166.88" y="-144.5" font-family="Arial" font-size="10.00" fill="#8b0000">overwhelms</text>
</g>
<!-- mark.shape&#45;&gt;rel_1 -->
<g id="edge9" class="edge">
<title>mark.shape&#45;&gt;rel_1</title>
<path fill="none" stroke="#d46a6a" stroke-width="1.5" d="M54.58,-174.64C73.72,-170.06 99.97,-163.78 122.16,-158.46"/>
<polygon fill="#d46a6a" stroke="#d46a6a" stroke-width="1.5" points="122.7,-161.21 129.83,-156.63 121.4,-155.77 122.7,-161.21"/>
</g>
<!-- furniture.legend -->
<g id="node4" class="node">
<title>furniture.legend</title>
<path fill="#b8e6b8" stroke="#2c3e50" stroke-width="1.8" d="M321.75,-361C321.75,-361 291.75,-361 291.75,-361 285.75,-361 279.75,-355 279.75,-349 279.75,-349 279.75,-337 279.75,-337 279.75,-331 285.75,-325 291.75,-325 291.75,-325 321.75,-325 321.75,-325 327.75,-325 333.75,-331 333.75,-337 333.75,-337 333.75,-349 333.75,-349 333.75,-355 327.75,-361 321.75,-361"/>
<text xml:space="preserve" text-anchor="middle" x="306.75" y="-339.5" font-family="Arial" font-size="10.00" fill="#1a1a1a">legend</text>
</g>
<!-- attr_5 -->
<g id="node10" class="node">
<title>attr_5</title>
<path fill="#c7b8e6" stroke="#7f8c8d" stroke-width="1.2" d="M483.5,-361C483.5,-361 388.75,-361 388.75,-361 382.75,-361 376.75,-355 376.75,-349 376.75,-349 376.75,-337 376.75,-337 376.75,-331 382.75,-325 388.75,-325 388.75,-325 483.5,-325 483.5,-325 489.5,-325 495.5,-331 495.5,-337 495.5,-337 495.5,-349 495.5,-349 495.5,-355 489.5,-361 483.5,-361"/>
<text xml:space="preserve" text-anchor="middle" x="436.12" y="-339.5" font-family="Arial" font-size="10.00" fill="#1a1a1a">(+) many legend entries</text>
</g>
<!-- furniture.legend&#45;&gt;attr_5 -->
<g id="edge5" class="edge">
<title>furniture.legend&#45;&gt;attr_5</title>
<path fill="none" stroke="#aaaaaa" d="M334.45,-343C344.35,-343 356.07,-343 367.96,-343"/>
<polygon fill="#aaaaaa" stroke="#aaaaaa" points="367.68,-345.45 374.68,-343 367.68,-340.55 367.68,-345.45"/>
</g>
<!-- structure.pattern -->
<g id="node5" class="node">
<title>structure.pattern</title>
<path fill="#b8e6b8" stroke="#2c3e50" stroke-width="1.8" d="M42,-69C42,-69 12,-69 12,-69 6,-69 0,-63 0,-57 0,-57 0,-45 0,-45 0,-39 6,-33 12,-33 12,-33 42,-33 42,-33 48,-33 54,-39 54,-45 54,-45 54,-57 54,-57 54,-63 48,-69 42,-69"/>
<text xml:space="preserve" text-anchor="middle" x="27" y="-47.5" font-family="Arial" font-size="10.00" fill="#1a1a1a">pattern</text>
</g>
<!-- attr_4 -->
<g id="node11" class="node">
<title>attr_4</title>
<path fill="#c7b8e6" stroke="#7f8c8d" stroke-width="1.2" d="M219.5,-101C219.5,-101 114.25,-101 114.25,-101 108.25,-101 102.25,-95 102.25,-89 102.25,-89 102.25,-77 102.25,-77 102.25,-71 108.25,-65 114.25,-65 114.25,-65 219.5,-65 219.5,-65 225.5,-65 231.5,-71 231.5,-77 231.5,-77 231.5,-89 231.5,-89 231.5,-95 225.5,-101 219.5,-101"/>
<text xml:space="preserve" text-anchor="middle" x="166.88" y="-79.5" font-family="Arial" font-size="10.00" fill="#1a1a1a">(+) diverse visual patterns</text>
</g>
<!-- structure.pattern&#45;&gt;attr_4 -->
<g id="edge6" class="edge">
<title>structure.pattern&#45;&gt;attr_4</title>
<path fill="none" stroke="#aaaaaa" d="M54.58,-57.17C65.9,-59.8 79.7,-63 93.68,-66.24"/>
<polygon fill="#aaaaaa" stroke="#aaaaaa" points="93.07,-68.62 100.45,-67.81 94.18,-63.84 93.07,-68.62"/>
</g>
<!-- rel_2 -->
<g id="node14" class="node">
<title>rel_2</title>
<path fill="#f5b8b8" stroke="#d46a6a" stroke-width="1.2" d="M204.12,-36C204.12,-36 129.62,-36 129.62,-36 123.62,-36 117.62,-30 117.62,-24 117.62,-24 117.62,-12 117.62,-12 117.62,-6 123.62,0 129.62,0 129.62,0 204.12,0 204.12,0 210.12,0 216.12,-6 216.12,-12 216.12,-12 216.12,-24 216.12,-24 216.12,-30 210.12,-36 204.12,-36"/>
<text xml:space="preserve" text-anchor="middle" x="166.88" y="-14.5" font-family="Arial" font-size="10.00" fill="#8b0000">adds complexity to</text>
</g>
<!-- structure.pattern&#45;&gt;rel_2 -->
<g id="edge11" class="edge">
<title>structure.pattern&#45;&gt;rel_2</title>
<path fill="none" stroke="#d46a6a" stroke-width="1.5" d="M54.58,-44.64C69.57,-41.05 88.93,-36.42 107.28,-32.02"/>
<polygon fill="#d46a6a" stroke="#d46a6a" stroke-width="1.5" points="107.71,-34.8 114.84,-30.22 106.41,-29.35 107.71,-34.8"/>
</g>
<!-- rel_0&#45;&gt;mark.bar -->
<g id="edge8" class="edge">
<title>rel_0&#45;&gt;mark.bar</title>
<path fill="none" stroke="#d46a6a" stroke-width="1.5" d="M216.14,-259.56C223.44,-255.67 230.58,-251.16 236.75,-246 260.12,-226.47 279.32,-197.25 291.48,-175.79"/>
<polygon fill="#d46a6a" stroke="#d46a6a" stroke-width="1.5" points="293.91,-177.18 295.31,-168.82 289,-174.48 293.91,-177.18"/>
</g>
<!-- rel_1&#45;&gt;mark.bar -->
<g id="edge10" class="edge">
<title>rel_1&#45;&gt;mark.bar</title>
<path fill="none" stroke="#d46a6a" stroke-width="1.5" d="M201.6,-148C222.06,-148 248.18,-148 269.14,-148"/>
<polygon fill="#d46a6a" stroke="#d46a6a" stroke-width="1.5" points="269,-150.8 277,-148 269,-145.2 269,-150.8"/>
</g>
<!-- rel_2&#45;&gt;mark.bar -->
<g id="edge12" class="edge">
<title>rel_2&#45;&gt;mark.bar</title>
<path fill="none" stroke="#d46a6a" stroke-width="1.5" d="M214.67,-36.43C222.47,-40.59 230.16,-45.45 236.75,-51 259.89,-70.48 279.12,-99.38 291.35,-120.57"/>
<polygon fill="#d46a6a" stroke="#d46a6a" stroke-width="1.5" points="288.85,-121.83 295.2,-127.44 293.73,-119.09 288.85,-121.83"/>
</g>
<!-- rel_3&#45;&gt;furniture.legend -->
<g id="edge14" class="edge">
<title>rel_3&#45;&gt;furniture.legend</title>
<path fill="none" stroke="#d46a6a" stroke-width="1.5" d="M221.18,-343C237.16,-343 254.32,-343 268.97,-343"/>
<polygon fill="#d46a6a" stroke="#d46a6a" stroke-width="1.5" points="268.88,-345.8 276.88,-343 268.88,-340.2 268.88,-345.8"/>
</g>
</g>
</svg>
