<?xml version="1.0" encoding="UTF-8" standalone="no"?>
<!DOCTYPE svg PUBLIC "-//W3C//DTD SVG 1.1//EN"
 "http://www.w3.org/Graphics/SVG/1.1/DTD/svg11.dtd">
<!-- Generated by graphviz version 14.1.5 (20260411.2331)
 -->
<!-- Title: VASTJ.870.4.png Pages: 1 -->
<svg width="552pt" height="567pt"
 viewBox="0.00 0.00 552.00 567.00" xmlns="http://www.w3.org/2000/svg" xmlns:xlink="http://www.w3.org/1999/xlink">
<g id="graph0" class="graph" transform="scale(1 1) rotate(0) translate(4 563.25)">
<title>VASTJ.870.4.png</title>
<polygon fill="white" stroke="none" points="-4,4 -4,-563.25 548,-563.25 548,4 -4,4"/>
<text xml:space="preserve" text-anchor="start" x="217.62" y="-538.95" font-family="Arial" font-weight="bold" font-size="14.00">VASTJ.870.4.png</text>
<text xml:space="preserve" text-anchor="start" x="229.62" y="-519" font-family="Arial" font-size="11.00">Grid &#160;| &#160;VC = 0.48</text>
<path fill="#b8e6b8" stroke="none" d="M62.62,-494C62.62,-494 70.62,-494 70.62,-494 73.62,-494 76.62,-497 76.62,-500 76.62,-500 76.62,-506 76.62,-506 76.62,-509 73.62,-512 70.62,-512 70.62,-512 62.62,-512 62.62,-512 59.62,-512 56.62,-509 56.62,-506 56.62,-506 56.62,-500 56.62,-500 56.62,-497 59.62,-494 62.62,-494"/>
<path fill="none" stroke="black" d="M62.62,-494C62.62,-494 70.62,-494 70.62,-494 73.62,-494 76.62,-497 76.62,-500 76.62,-500 76.62,-506 76.62,-506 76.62,-509 73.62,-512 70.62,-512 70.62,-512 62.62,-512 62.62,-512 59.62,-512 56.62,-509 56.62,-506 56.62,-506 56.62,-500 56.62,-500 56.62,-497 59.62,-494 62.62,-494"/>
<text xml:space="preserve" text-anchor="start" x="65.12" y="-499.25" font-family="Arial" font-size="10.00"> </text>
<text xml:space="preserve" text-anchor="start" x="80.62" y="-499.25" font-family="Arial" font-size="10.00">Object</text>
<path fill="#c7b8e6" stroke="none" d="M119.12,-494C119.12,-494 127.12,-494 127.12,-494 130.12,-494 133.12,-497 133.12,-500 133.12,-500 133.12,-506 133.12,-506 133.12,-509 130.12,-512 127.12,-512 127.12,-512 119.12,-512 119.12,-512 116.12,-512 113.12,-509 113.12,-506 113.12,-506 113.12,-500 113.12,-500 113.12,-497 116.12,-494 119.12,-494"/>
<path fill="none" stroke="black" d="M119.12,-494C119.12,-494 127.12,-494 127.12,-494 130.12,-494 133.12,-497 133.12,-500 133.12,-500 133.12,-506 133.12,-506 133.12,-509 130.12,-512 127.12,-512 127.12,-512 119.12,-512 119.12,-512 116.12,-512 113.12,-509 113.12,-506 113.12,-506 113.12,-500 113.12,-500 113.12,-497 116.12,-494 119.12,-494"/>
<text xml:space="preserve" text-anchor="start" x="121.62" y="-499.25" font-family="Arial" font-size="10.00"> </text>
<text xml:space="preserve" text-anchor="start" x="137.12" y="-499.25" font-family="Arial" font-size="10.00">Attribute</text>
<path fill="#f5b8b8" stroke="none" d="M183.88,-494C183.88,-494 191.88,-494 191.88,-494 194.88,-494 197.88,-497 197.88,-500 197.88,-500 197.88,-506 197.88,-506 197.88,-509 194.88,-512 191.88,-512 191.88,-512 183.88,-512 183.88,-512 180.88,-512 177.88,-509 177.88,-506 177.88,-506 177.88,-500 177.88,-500 177.88,-497 180.88,-494 183.88,-494"/>
<path fill="none" stroke="black" d="M183.88,-494C183.88,-494 191.88,-494 191.88,-494 194.88,-494 197.88,-497 197.88,-500 197.88,-500 197.88,-506 197.88,-506 197.88,-509 194.88,-512 191.88,-512 191.88,-512 183.88,-512 183.88,-512 180.88,-512 177.88,-509 177.88,-506 177.88,-506 177.88,-500 177.88,-500 177.88,-497 180.88,-494 183.88,-494"/>
<text xml:space="preserve" text-anchor="start" x="186.38" y="-499.25" font-family="Arial" font-size="10.00"> </text>
<text xml:space="preserve" text-anchor="start" x="201.88" y="-499.25" font-family="Arial" font-size="10.00">Relationship</text>
<text xml:space="preserve" text-anchor="start" x="261.88" y="-500.5" font-family="Arial" font-weight="bold" font-size="10.00">(+)</text>
<text xml:space="preserve" text-anchor="start" x="273.88" y="-500.5" font-family="Arial" font-size="10.00"> increases complexity</text>
<text xml:space="preserve" text-anchor="start" x="375.12" y="-500.5" font-family="Arial" font-weight="bold" font-size="10.00">(−)</text>
<text xml:space="preserve" text-anchor="start" x="387.12" y="-500.5" font-family="Arial" font-size="10.00"> decreases complexity</text>
<!-- structure.grid -->
<g id="node1" class="node">
<title>structure.grid</title>
<path fill="#b8e6b8" stroke="#2c3e50" stroke-width="1.8" d="M45.5,-130C45.5,-130 15.5,-130 15.5,-130 9.5,-130 3.5,-124 3.5,-118 3.5,-118 3.5,-106 3.5,-106 3.5,-100 9.5,-94 15.5,-94 15.5,-94 45.5,-94 45.5,-94 51.5,-94 57.5,-100 57.5,-106 57.5,-106 57.5,-118 57.5,-118 57.5,-124 51.5,-130 45.5,-130"/>
<text xml:space="preserve" text-anchor="middle" x="30.5" y="-108.5" font-family="Arial" font-size="10.00" fill="#1a1a1a">grid</text>
</g>
<!-- attr_0 -->
<g id="node5" class="node">
<title>attr_0</title>
<path fill="#c7b8e6" stroke="#7f8c8d" stroke-width="1.2" d="M238.5,-228C238.5,-228 116,-228 116,-228 110,-228 104,-222 104,-216 104,-216 104,-204 104,-204 104,-198 110,-192 116,-192 116,-192 238.5,-192 238.5,-192 244.5,-192 250.5,-198 250.5,-204 250.5,-204 250.5,-216 250.5,-216 250.5,-222 244.5,-228 238.5,-228"/>
<text xml:space="preserve" text-anchor="middle" x="177.25" y="-206.5" font-family="Arial" font-size="10.00" fill="#1a1a1a">(−) organized regular structure</text>
</g>
<!-- structure.grid&#45;&gt;attr_0 -->
<g id="edge1" class="edge">
<title>structure.grid&#45;&gt;attr_0</title>
<path fill="none" stroke="#aaaaaa" d="M49.29,-130.78C63.24,-144.77 83.63,-163.67 104,-177 109.8,-180.8 116.12,-184.38 122.52,-187.68"/>
<polygon fill="#aaaaaa" stroke="#aaaaaa" points="121.33,-189.83 128.69,-190.75 123.51,-185.44 121.33,-189.83"/>
</g>
<!-- attr_5 -->
<g id="node6" class="node">
<title>attr_5</title>
<path fill="#c7b8e6" stroke="#7f8c8d" stroke-width="1.2" d="M226.12,-163C226.12,-163 128.38,-163 128.38,-163 122.38,-163 116.38,-157 116.38,-151 116.38,-151 116.38,-139 116.38,-139 116.38,-133 122.38,-127 128.38,-127 128.38,-127 226.12,-127 226.12,-127 232.12,-127 238.12,-133 238.12,-139 238.12,-139 238.12,-151 238.12,-151 238.12,-157 232.12,-163 226.12,-163"/>
<text xml:space="preserve" text-anchor="middle" x="177.25" y="-141.5" font-family="Arial" font-size="10.00" fill="#1a1a1a">(−) low interpretive effort</text>
</g>
<!-- structure.grid&#45;&gt;attr_5 -->
<g id="edge2" class="edge">
<title>structure.grid&#45;&gt;attr_5</title>
<path fill="none" stroke="#aaaaaa" d="M58.39,-118.13C72.43,-121.33 90.3,-125.41 107.87,-129.41"/>
<polygon fill="#aaaaaa" stroke="#aaaaaa" points="107.05,-131.74 114.42,-130.9 108.14,-126.96 107.05,-131.74"/>
</g>
<!-- rel_3 -->
<g id="node14" class="node">
<title>rel_3</title>
<path fill="#f5b8b8" stroke="#d46a6a" stroke-width="1.2" d="M194.25,-98C194.25,-98 160.25,-98 160.25,-98 154.25,-98 148.25,-92 148.25,-86 148.25,-86 148.25,-74 148.25,-74 148.25,-68 154.25,-62 160.25,-62 160.25,-62 194.25,-62 194.25,-62 200.25,-62 206.25,-68 206.25,-74 206.25,-74 206.25,-86 206.25,-86 206.25,-92 200.25,-98 194.25,-98"/>
<text xml:space="preserve" text-anchor="middle" x="177.25" y="-76.5" font-family="Arial" font-size="10.00" fill="#8b0000">facilitates</text>
</g>
<!-- structure.grid&#45;&gt;rel_3 -->
<g id="edge15" class="edge">
<title>structure.grid&#45;&gt;rel_3</title>
<path fill="none" stroke="#d46a6a" stroke-width="1.5" d="M58.39,-106.06C80.74,-101.12 112.81,-94.02 137.86,-88.49"/>
<polygon fill="#d46a6a" stroke="#d46a6a" stroke-width="1.5" points="138.35,-91.25 145.56,-86.79 137.14,-85.78 138.35,-91.25"/>
</g>
<!-- structure.cell -->
<g id="node2" class="node">
<title>structure.cell</title>
<path fill="#b8e6b8" stroke="#2c3e50" stroke-width="1.8" d="M337.12,-358C337.12,-358 307.12,-358 307.12,-358 301.12,-358 295.12,-352 295.12,-346 295.12,-346 295.12,-334 295.12,-334 295.12,-328 301.12,-322 307.12,-322 307.12,-322 337.12,-322 337.12,-322 343.12,-322 349.12,-328 349.12,-334 349.12,-334 349.12,-346 349.12,-346 349.12,-352 343.12,-358 337.12,-358"/>
<text xml:space="preserve" text-anchor="middle" x="322.12" y="-336.5" font-family="Arial" font-size="10.00" fill="#1a1a1a">cell</text>
</g>
<!-- attr_1 -->
<g id="node7" class="node">
<title>attr_1</title>
<path fill="#c7b8e6" stroke="#7f8c8d" stroke-width="1.2" d="M532,-358C532,-358 405.75,-358 405.75,-358 399.75,-358 393.75,-352 393.75,-346 393.75,-346 393.75,-334 393.75,-334 393.75,-328 399.75,-322 405.75,-322 405.75,-322 532,-322 532,-322 538,-322 544,-328 544,-334 544,-334 544,-346 544,-346 544,-352 538,-358 532,-358"/>
<text xml:space="preserve" text-anchor="middle" x="468.88" y="-336.5" font-family="Arial" font-size="10.00" fill="#1a1a1a">(−) clearly distinguishable cells</text>
</g>
<!-- structure.cell&#45;&gt;attr_1 -->
<g id="edge3" class="edge">
<title>structure.cell&#45;&gt;attr_1</title>
<path fill="none" stroke="#aaaaaa" d="M350.01,-340C360.21,-340 372.43,-340 385.08,-340"/>
<polygon fill="#aaaaaa" stroke="#aaaaaa" points="384.93,-342.45 391.93,-340 384.93,-337.55 384.93,-342.45"/>
</g>
<!-- text.axis_label -->
<g id="node3" class="node">
<title>text.axis_label</title>
<path fill="#b8e6b8" stroke="#2c3e50" stroke-width="1.8" d="M338.75,-98C338.75,-98 305.5,-98 305.5,-98 299.5,-98 293.5,-92 293.5,-86 293.5,-86 293.5,-74 293.5,-74 293.5,-68 299.5,-62 305.5,-62 305.5,-62 338.75,-62 338.75,-62 344.75,-62 350.75,-68 350.75,-74 350.75,-74 350.75,-86 350.75,-86 350.75,-92 344.75,-98 338.75,-98"/>
<text xml:space="preserve" text-anchor="middle" x="322.12" y="-76.5" font-family="Arial" font-size="10.00" fill="#1a1a1a">axis label</text>
</g>
<!-- attr_2 -->
<g id="node8" class="node">
<title>attr_2</title>
<path fill="#c7b8e6" stroke="#7f8c8d" stroke-width="1.2" d="M505,-101C505,-101 432.75,-101 432.75,-101 426.75,-101 420.75,-95 420.75,-89 420.75,-89 420.75,-77 420.75,-77 420.75,-71 426.75,-65 432.75,-65 432.75,-65 505,-65 505,-65 511,-65 517,-71 517,-77 517,-77 517,-89 517,-89 517,-95 511,-101 505,-101"/>
<text xml:space="preserve" text-anchor="middle" x="468.88" y="-79.5" font-family="Arial" font-size="10.00" fill="#1a1a1a">(−) readable labels</text>
</g>
<!-- text.axis_label&#45;&gt;attr_2 -->
<g id="edge4" class="edge">
<title>text.axis_label&#45;&gt;attr_2</title>
<path fill="none" stroke="#aaaaaa" d="M351.38,-80.59C368.59,-80.94 391.18,-81.41 411.89,-81.84"/>
<polygon fill="#aaaaaa" stroke="#aaaaaa" points="411.75,-84.29 418.8,-81.98 411.86,-79.39 411.75,-84.29"/>
</g>
<!-- rel_1 -->
<g id="node12" class="node">
<title>rel_1</title>
<path fill="#f5b8b8" stroke="#d46a6a" stroke-width="1.2" d="M483.88,-36C483.88,-36 453.88,-36 453.88,-36 447.88,-36 441.88,-30 441.88,-24 441.88,-24 441.88,-12 441.88,-12 441.88,-6 447.88,0 453.88,0 453.88,0 483.88,0 483.88,0 489.88,0 495.88,-6 495.88,-12 495.88,-12 495.88,-24 495.88,-24 495.88,-30 489.88,-36 483.88,-36"/>
<text xml:space="preserve" text-anchor="middle" x="468.88" y="-14.5" font-family="Arial" font-size="10.00" fill="#8b0000">clarifies</text>
</g>
<!-- text.axis_label&#45;&gt;rel_1 -->
<g id="edge11" class="edge">
<title>text.axis_label&#45;&gt;rel_1</title>
<path fill="none" stroke="#d46a6a" stroke-width="1.5" d="M351.38,-67.9C374.58,-57.96 407.56,-43.84 432.51,-33.15"/>
<polygon fill="#d46a6a" stroke="#d46a6a" stroke-width="1.5" points="433.3,-35.85 439.56,-30.13 431.1,-30.71 433.3,-35.85"/>
</g>
<!-- furniture.legend -->
<g id="node4" class="node">
<title>furniture.legend</title>
<path fill="#b8e6b8" stroke="#2c3e50" stroke-width="1.8" d="M49,-423C49,-423 12,-423 12,-423 6,-423 0,-417 0,-411 0,-411 0,-399 0,-399 0,-393 6,-387 12,-387 12,-387 49,-387 49,-387 55,-387 61,-393 61,-399 61,-399 61,-411 61,-411 61,-417 55,-423 49,-423"/>
<text xml:space="preserve" text-anchor="middle" x="30.5" y="-401.5" font-family="Arial" font-size="10.00" fill="#1a1a1a">color code</text>
</g>
<!-- attr_3 -->
<g id="node9" class="node">
<title>attr_3</title>
<path fill="#c7b8e6" stroke="#7f8c8d" stroke-width="1.2" d="M218.62,-488C218.62,-488 135.88,-488 135.88,-488 129.88,-488 123.88,-482 123.88,-476 123.88,-476 123.88,-464 123.88,-464 123.88,-458 129.88,-452 135.88,-452 135.88,-452 218.62,-452 218.62,-452 224.62,-452 230.62,-458 230.62,-464 230.62,-464 230.62,-476 230.62,-476 230.62,-482 224.62,-488 218.62,-488"/>
<text xml:space="preserve" text-anchor="middle" x="177.25" y="-466.5" font-family="Arial" font-size="10.00" fill="#1a1a1a">(−) easy to reference</text>
</g>
<!-- furniture.legend&#45;&gt;attr_3 -->
<g id="edge5" class="edge">
<title>furniture.legend&#45;&gt;attr_3</title>
<path fill="none" stroke="#aaaaaa" d="M61.8,-405.53C74.79,-410.3 90.12,-417.27 104,-423.5 120.41,-430.87 138.97,-439.09 153.17,-447.3"/>
<polygon fill="#aaaaaa" stroke="#aaaaaa" points="151.62,-449.22 158.87,-450.79 154.18,-445.05 151.62,-449.22"/>
</g>
<!-- furniture.legend&#45;&gt;attr_3 -->
<g id="edge7" class="edge">
<title>furniture.legend&#45;&gt;attr_3</title>
<path fill="none" stroke="#aaaaaa" d="M47.6,-423.73C62.28,-433.61 84.57,-443.78 104,-452.5 107.81,-454.21 111.74,-455.97 115.71,-457.71"/>
<polygon fill="#aaaaaa" stroke="#aaaaaa" points="114.56,-459.89 121.96,-460.43 116.52,-455.4 114.56,-459.89"/>
</g>
<!-- attr_4 -->
<g id="node10" class="node">
<title>attr_4</title>
<path fill="#c7b8e6" stroke="#7f8c8d" stroke-width="1.2" d="M227.25,-423C227.25,-423 127.25,-423 127.25,-423 121.25,-423 115.25,-417 115.25,-411 115.25,-411 115.25,-399 115.25,-399 115.25,-393 121.25,-387 127.25,-387 127.25,-387 227.25,-387 227.25,-387 233.25,-387 239.25,-393 239.25,-399 239.25,-399 239.25,-411 239.25,-411 239.25,-417 233.25,-423 227.25,-423"/>
<text xml:space="preserve" text-anchor="middle" x="177.25" y="-401.5" font-family="Arial" font-size="10.00" fill="#1a1a1a">(−) clear color separation</text>
</g>
<!-- furniture.legend&#45;&gt;attr_4 -->
<g id="edge6" class="edge">
<title>furniture.legend&#45;&gt;attr_4</title>
<path fill="none" stroke="#aaaaaa" d="M61.84,-395.95C74.98,-394.66 90.93,-394.05 106.71,-394.13"/>
<polygon fill="#aaaaaa" stroke="#aaaaaa" points="106.38,-396.58 113.41,-394.22 106.44,-391.68 106.38,-396.58"/>
</g>
<!-- furniture.legend&#45;&gt;attr_4 -->
<g id="edge8" class="edge">
<title>furniture.legend&#45;&gt;attr_4</title>
<path fill="none" stroke="#aaaaaa" d="M61.84,-414.05C74.98,-415.34 90.93,-415.95 106.71,-415.87"/>
<polygon fill="#aaaaaa" stroke="#aaaaaa" points="106.44,-418.32 113.41,-415.78 106.38,-413.42 106.44,-418.32"/>
</g>
<!-- rel_0 -->
<g id="node11" class="node">
<title>rel_0</title>
<path fill="#f5b8b8" stroke="#d46a6a" stroke-width="1.2" d="M218.62,-358C218.62,-358 135.88,-358 135.88,-358 129.88,-358 123.88,-352 123.88,-346 123.88,-346 123.88,-334 123.88,-334 123.88,-328 129.88,-322 135.88,-322 135.88,-322 218.62,-322 218.62,-322 224.62,-322 230.62,-328 230.62,-334 230.62,-334 230.62,-346 230.62,-346 230.62,-352 224.62,-358 218.62,-358"/>
<text xml:space="preserve" text-anchor="middle" x="177.25" y="-336.5" font-family="Arial" font-size="10.00" fill="#8b0000">supports decoding of</text>
</g>
<!-- furniture.legend&#45;&gt;rel_0 -->
<g id="edge9" class="edge">
<title>furniture.legend&#45;&gt;rel_0</title>
<path fill="none" stroke="#d46a6a" stroke-width="1.5" d="M61.84,-391.37C80.33,-383.07 104.42,-372.26 125.72,-362.69"/>
<polygon fill="#d46a6a" stroke="#d46a6a" stroke-width="1.5" points="126.74,-365.3 132.89,-359.47 124.45,-360.19 126.74,-365.3"/>
</g>
<!-- rel_2 -->
<g id="node13" class="node">
<title>rel_2</title>
<path fill="#f5b8b8" stroke="#d46a6a" stroke-width="1.2" d="M218.25,-293C218.25,-293 136.25,-293 136.25,-293 130.25,-293 124.25,-287 124.25,-281 124.25,-281 124.25,-269 124.25,-269 124.25,-263 130.25,-257 136.25,-257 136.25,-257 218.25,-257 218.25,-257 224.25,-257 230.25,-263 230.25,-269 230.25,-269 230.25,-281 230.25,-281 230.25,-287 224.25,-293 218.25,-293"/>
<text xml:space="preserve" text-anchor="middle" x="177.25" y="-271.5" font-family="Arial" font-size="10.00" fill="#8b0000">reduces ambiguity in</text>
</g>
<!-- furniture.legend&#45;&gt;rel_2 -->
<g id="edge13" class="edge">
<title>furniture.legend&#45;&gt;rel_2</title>
<path fill="none" stroke="#d46a6a" stroke-width="1.5" d="M36.94,-386.21C47.51,-360.73 72.58,-318.84 104,-293.5 107.48,-290.7 111.23,-288.08 115.13,-285.66"/>
<polygon fill="#d46a6a" stroke="#d46a6a" stroke-width="1.5" points="116.3,-288.22 121.89,-281.85 113.55,-283.34 116.3,-288.22"/>
</g>
<!-- rel_0&#45;&gt;structure.cell -->
<g id="edge10" class="edge">
<title>rel_0&#45;&gt;structure.cell</title>
<path fill="none" stroke="#d46a6a" stroke-width="1.5" d="M231.05,-340C248.78,-340 268.17,-340 284.4,-340"/>
<polygon fill="#d46a6a" stroke="#d46a6a" stroke-width="1.5" points="284.28,-342.8 292.28,-340 284.28,-337.2 284.28,-342.8"/>
</g>
<!-- rel_1&#45;&gt;structure.grid -->
<g id="edge12" class="edge">
<title>rel_1&#45;&gt;structure.grid</title>
<path fill="none" stroke="#d46a6a" stroke-width="1.5" d="M441.38,-14.54C379.4,-7.6 221.36,3.34 104,-47 84.21,-55.49 66.16,-71.63 53.02,-85.7"/>
<polygon fill="#d46a6a" stroke="#d46a6a" stroke-width="1.5" points="51.02,-83.73 47.76,-91.55 55.19,-87.47 51.02,-83.73"/>
</g>
<!-- rel_2&#45;&gt;furniture.legend -->
<g id="edge14" class="edge">
<title>rel_2&#45;&gt;furniture.legend</title>
<path fill="none" stroke="#d46a6a" stroke-width="1.5" d="M155.1,-293.52C139.8,-301.4 119.24,-310.21 104,-322.5 84.45,-338.27 67.36,-360.44 54.69,-378.13"/>
<polygon fill="#d46a6a" stroke="#d46a6a" stroke-width="1.5" points="52.48,-376.41 50.15,-384.56 57.05,-379.64 52.48,-376.41"/>
</g>
<!-- rel_3&#45;&gt;text.axis_label -->
<g id="edge16" class="edge">
<title>rel_3&#45;&gt;text.axis_label</title>
<path fill="none" stroke="#d46a6a" stroke-width="1.5" d="M206.82,-80C228.53,-80 258.61,-80 282.47,-80"/>
<polygon fill="#d46a6a" stroke="#d46a6a" stroke-width="1.5" points="282.33,-82.8 290.33,-80 282.33,-77.2 282.33,-82.8"/>
</g>
</g>
</svg>
