<?xml version="1.0" encoding="UTF-8" standalone="no"?>
<!DOCTYPE svg PUBLIC "-//W3C//DTD SVG 1.1//EN"
 "http://www.w3.org/Graphics/SVG/1.1/DTD/svg11.dtd">
<!-- Generated by graphviz version 14.1.5 (20260411.2331)
 -->
<!-- Title: VASTC.81.3(2).png Pages: 1 -->
<svg width="747pt" height="375pt"
 viewBox="0.00 0.00 747.00 375.00" xmlns="http://www.w3.org/2000/svg" xmlns:xlink="http://www.w3.org/1999/xlink">
<g id="graph0" class="graph" transform="scale(1 1) rotate(0) translate(4 371.25)">
<title>VASTC.81.3(2).png</title>
<polygon fill="white" stroke="none" points="-4,4 -4,-371.25 743.25,-371.25 743.25,4 -4,4"/>
<text xml:space="preserve" text-anchor="start" x="309.62" y="-346.95" font-family="Arial" font-weight="bold" font-size="14.00">VASTC.81.3(2).png</text>
<text xml:space="preserve" text-anchor="start" x="323.5" y="-327" font-family="Arial" font-size="11.00">Glyph &#160;| &#160;VC = 0.28</text>
<path fill="#b8e6b8" stroke="none" d="M160.25,-302C160.25,-302 168.25,-302 168.25,-302 171.25,-302 174.25,-305 174.25,-308 174.25,-308 174.25,-314 174.25,-314 174.25,-317 171.25,-320 168.25,-320 168.25,-320 160.25,-320 160.25,-320 157.25,-320 154.25,-317 154.25,-314 154.25,-314 154.25,-308 154.25,-308 154.25,-305 157.25,-302 160.25,-302"/>
<path fill="none" stroke="black" d="M160.25,-302C160.25,-302 168.25,-302 168.25,-302 171.25,-302 174.25,-305 174.25,-308 174.25,-308 174.25,-314 174.25,-314 174.25,-317 171.25,-320 168.25,-320 168.25,-320 160.25,-320 160.25,-320 157.25,-320 154.25,-317 154.25,-314 154.25,-314 154.25,-308 154.25,-308 154.25,-305 157.25,-302 160.25,-302"/>
<text xml:space="preserve" text-anchor="start" x="162.75" y="-307.25" font-family="Arial" font-size="10.00"> </text>
<text xml:space="preserve" text-anchor="start" x="178.25" y="-307.25" font-family="Arial" font-size="10.00">Object</text>
<path fill="#c7b8e6" stroke="none" d="M216.75,-302C216.75,-302 224.75,-302 224.75,-302 227.75,-302 230.75,-305 230.75,-308 230.75,-308 230.75,-314 230.75,-314 230.75,-317 227.75,-320 224.75,-320 224.75,-320 216.75,-320 216.75,-320 213.75,-320 210.75,-317 210.75,-314 210.75,-314 210.75,-308 210.75,-308 210.75,-305 213.75,-302 216.75,-302"/>
<path fill="none" stroke="black" d="M216.75,-302C216.75,-302 224.75,-302 224.75,-302 227.75,-302 230.75,-305 230.75,-308 230.75,-308 230.75,-314 230.75,-314 230.75,-317 227.75,-320 224.75,-320 224.75,-320 216.75,-320 216.75,-320 213.75,-320 210.75,-317 210.75,-314 210.75,-314 210.75,-308 210.75,-308 210.75,-305 213.75,-302 216.75,-302"/>
<text xml:space="preserve" text-anchor="start" x="219.25" y="-307.25" font-family="Arial" font-size="10.00"> </text>
<text xml:space="preserve" text-anchor="start" x="234.75" y="-307.25" font-family="Arial" font-size="10.00">Attribute</text>
<path fill="#f5b8b8" stroke="none" d="M281.5,-302C281.5,-302 289.5,-302 289.5,-302 292.5,-302 295.5,-305 295.5,-308 295.5,-308 295.5,-314 295.5,-314 295.5,-317 292.5,-320 289.5,-320 289.5,-320 281.5,-320 281.5,-320 278.5,-320 275.5,-317 275.5,-314 275.5,-314 275.5,-308 275.5,-308 275.5,-305 278.5,-302 281.5,-302"/>
<path fill="none" stroke="black" d="M281.5,-302C281.5,-302 289.5,-302 289.5,-302 292.5,-302 295.5,-305 295.5,-308 295.5,-308 295.5,-314 295.5,-314 295.5,-317 292.5,-320 289.5,-320 289.5,-320 281.5,-320 281.5,-320 278.5,-320 275.5,-317 275.5,-314 275.5,-314 275.5,-308 275.5,-308 275.5,-305 278.5,-302 281.5,-302"/>
<text xml:space="preserve" text-anchor="start" x="284" y="-307.25" font-family="Arial" font-size="10.00"> </text>
<text xml:space="preserve" text-anchor="start" x="299.5" y="-307.25" font-family="Arial" font-size="10.00">Relationship</text>
<text xml:space="preserve" text-anchor="start" x="359.5" y="-308.5" font-family="Arial" font-weight="bold" font-size="10.00">(+)</text>
<text xml:space="preserve" text-anchor="start" x="371.5" y="-308.5" font-family="Arial" font-size="10.00"> increases complexity</text>
<text xml:space="preserve" text-anchor="start" x="472.75" y="-308.5" font-family="Arial" font-weight="bold" font-size="10.00">(−)</text>
<text xml:space="preserve" text-anchor="start" x="484.75" y="-308.5" font-family="Arial" font-size="10.00"> decreases complexity</text>
<!-- mark.shape -->
<g id="node1" class="node">
<title>mark.shape</title>
<path fill="#b8e6b8" stroke="#2c3e50" stroke-width="1.8" d="M42,-231C42,-231 12,-231 12,-231 6,-231 0,-225 0,-219 0,-219 0,-207 0,-207 0,-201 6,-195 12,-195 12,-195 42,-195 42,-195 48,-195 54,-201 54,-207 54,-207 54,-219 54,-219 54,-225 48,-231 42,-231"/>
<text xml:space="preserve" text-anchor="middle" x="27" y="-209.5" font-family="Arial" font-size="10.00" fill="#1a1a1a">shape</text>
</g>
<!-- attr_0 -->
<g id="node6" class="node">
<title>attr_0</title>
<path fill="#c7b8e6" stroke="#7f8c8d" stroke-width="1.2" d="M213.5,-296C213.5,-296 109,-296 109,-296 103,-296 97,-290 97,-284 97,-284 97,-272 97,-272 97,-266 103,-260 109,-260 109,-260 213.5,-260 213.5,-260 219.5,-260 225.5,-266 225.5,-272 225.5,-272 225.5,-284 225.5,-284 225.5,-290 219.5,-296 213.5,-296"/>
<text xml:space="preserve" text-anchor="middle" x="161.25" y="-274.5" font-family="Arial" font-size="10.00" fill="#1a1a1a">(−) simple distinct shapes</text>
</g>
<!-- mark.shape&#45;&gt;attr_0 -->
<g id="edge1" class="edge">
<title>mark.shape&#45;&gt;attr_0</title>
<path fill="none" stroke="#aaaaaa" d="M54.76,-226.15C72.03,-234.64 94.93,-245.89 114.98,-255.75"/>
<polygon fill="#aaaaaa" stroke="#aaaaaa" points="113.78,-257.89 121.14,-258.78 115.94,-253.49 113.78,-257.89"/>
</g>
<!-- rel_0 -->
<g id="node11" class="node">
<title>rel_0</title>
<path fill="#f5b8b8" stroke="#d46a6a" stroke-width="1.2" d="M176.25,-231C176.25,-231 146.25,-231 146.25,-231 140.25,-231 134.25,-225 134.25,-219 134.25,-219 134.25,-207 134.25,-207 134.25,-201 140.25,-195 146.25,-195 146.25,-195 176.25,-195 176.25,-195 182.25,-195 188.25,-201 188.25,-207 188.25,-207 188.25,-219 188.25,-219 188.25,-225 182.25,-231 176.25,-231"/>
<text xml:space="preserve" text-anchor="middle" x="161.25" y="-209.5" font-family="Arial" font-size="10.00" fill="#8b0000">reduces</text>
</g>
<!-- mark.shape&#45;&gt;rel_0 -->
<g id="edge6" class="edge">
<title>mark.shape&#45;&gt;rel_0</title>
<path fill="none" stroke="#d46a6a" stroke-width="1.5" d="M54.76,-213C74.61,-213 101.9,-213 123.75,-213"/>
<polygon fill="#d46a6a" stroke="#d46a6a" stroke-width="1.5" points="123.71,-215.8 131.71,-213 123.71,-210.2 123.71,-215.8"/>
</g>
<!-- rel_2 -->
<g id="node13" class="node">
<title>rel_2</title>
<path fill="#f5b8b8" stroke="#d46a6a" stroke-width="1.2" d="M183.5,-166C183.5,-166 139,-166 139,-166 133,-166 127,-160 127,-154 127,-154 127,-142 127,-142 127,-136 133,-130 139,-130 139,-130 183.5,-130 183.5,-130 189.5,-130 195.5,-136 195.5,-142 195.5,-142 195.5,-154 195.5,-154 195.5,-160 189.5,-166 183.5,-166"/>
<text xml:space="preserve" text-anchor="middle" x="161.25" y="-144.5" font-family="Arial" font-size="10.00" fill="#8b0000">encodes via</text>
</g>
<!-- mark.shape&#45;&gt;rel_2 -->
<g id="edge10" class="edge">
<title>mark.shape&#45;&gt;rel_2</title>
<path fill="none" stroke="#d46a6a" stroke-width="1.5" d="M54.76,-199.85C72.7,-191.03 96.7,-179.23 117.28,-169.12"/>
<polygon fill="#d46a6a" stroke="#d46a6a" stroke-width="1.5" points="118.48,-171.65 124.43,-165.61 116.01,-166.62 118.48,-171.65"/>
</g>
<!-- property.color -->
<g id="node2" class="node">
<title>property.color</title>
<path fill="#b8e6b8" stroke="#2c3e50" stroke-width="1.8" d="M42,-69C42,-69 12,-69 12,-69 6,-69 0,-63 0,-57 0,-57 0,-45 0,-45 0,-39 6,-33 12,-33 12,-33 42,-33 42,-33 48,-33 54,-39 54,-45 54,-45 54,-57 54,-57 54,-63 48,-69 42,-69"/>
<text xml:space="preserve" text-anchor="middle" x="27" y="-47.5" font-family="Arial" font-size="10.00" fill="#1a1a1a">color</text>
</g>
<!-- attr_1 -->
<g id="node7" class="node">
<title>attr_1</title>
<path fill="#c7b8e6" stroke="#7f8c8d" stroke-width="1.2" d="M204.5,-101C204.5,-101 118,-101 118,-101 112,-101 106,-95 106,-89 106,-89 106,-77 106,-77 106,-71 112,-65 118,-65 118,-65 204.5,-65 204.5,-65 210.5,-65 216.5,-71 216.5,-77 216.5,-77 216.5,-89 216.5,-89 216.5,-95 210.5,-101 204.5,-101"/>
<text xml:space="preserve" text-anchor="middle" x="161.25" y="-79.5" font-family="Arial" font-size="10.00" fill="#1a1a1a">(−) limited color range</text>
</g>
<!-- property.color&#45;&gt;attr_1 -->
<g id="edge2" class="edge">
<title>property.color&#45;&gt;attr_1</title>
<path fill="none" stroke="#aaaaaa" d="M54.76,-57.48C67.23,-60.49 82.64,-64.22 97.78,-67.89"/>
<polygon fill="#aaaaaa" stroke="#aaaaaa" points="96.81,-70.17 104.19,-69.44 97.97,-65.41 96.81,-70.17"/>
</g>
<!-- rel_1 -->
<g id="node12" class="node">
<title>rel_1</title>
<path fill="#f5b8b8" stroke="#d46a6a" stroke-width="1.2" d="M177.88,-36C177.88,-36 144.62,-36 144.62,-36 138.62,-36 132.62,-30 132.62,-24 132.62,-24 132.62,-12 132.62,-12 132.62,-6 138.62,0 144.62,0 144.62,0 177.88,0 177.88,0 183.88,0 189.88,-6 189.88,-12 189.88,-12 189.88,-24 189.88,-24 189.88,-30 183.88,-36 177.88,-36"/>
<text xml:space="preserve" text-anchor="middle" x="161.25" y="-14.5" font-family="Arial" font-size="10.00" fill="#8b0000">simplifies</text>
</g>
<!-- property.color&#45;&gt;rel_1 -->
<g id="edge8" class="edge">
<title>property.color&#45;&gt;rel_1</title>
<path fill="none" stroke="#d46a6a" stroke-width="1.5" d="M54.76,-44.32C74.18,-39.48 100.72,-32.86 122.31,-27.47"/>
<polygon fill="#d46a6a" stroke="#d46a6a" stroke-width="1.5" points="122.87,-30.21 129.95,-25.56 121.51,-24.78 122.87,-30.21"/>
</g>
<!-- unknown.glyph -->
<g id="node3" class="node">
<title>unknown.glyph</title>
<path fill="#b8e6b8" stroke="#2c3e50" stroke-width="1.8" d="M310.5,-69C310.5,-69 280.5,-69 280.5,-69 274.5,-69 268.5,-63 268.5,-57 268.5,-57 268.5,-45 268.5,-45 268.5,-39 274.5,-33 280.5,-33 280.5,-33 310.5,-33 310.5,-33 316.5,-33 322.5,-39 322.5,-45 322.5,-45 322.5,-57 322.5,-57 322.5,-63 316.5,-69 310.5,-69"/>
<text xml:space="preserve" text-anchor="middle" x="295.5" y="-47.5" font-family="Arial" font-size="10.00" fill="#1a1a1a">glyph</text>
</g>
<!-- attr_2 -->
<g id="node8" class="node">
<title>attr_2</title>
<path fill="#c7b8e6" stroke="#7f8c8d" stroke-width="1.2" d="M474.5,-69C474.5,-69 377.5,-69 377.5,-69 371.5,-69 365.5,-63 365.5,-57 365.5,-57 365.5,-45 365.5,-45 365.5,-39 371.5,-33 377.5,-33 377.5,-33 474.5,-33 474.5,-33 480.5,-33 486.5,-39 486.5,-45 486.5,-45 486.5,-57 486.5,-57 486.5,-63 480.5,-69 474.5,-69"/>
<text xml:space="preserve" text-anchor="middle" x="426" y="-47.5" font-family="Arial" font-size="10.00" fill="#1a1a1a">(−) low element quantity</text>
</g>
<!-- unknown.glyph&#45;&gt;attr_2 -->
<g id="edge3" class="edge">
<title>unknown.glyph&#45;&gt;attr_2</title>
<path fill="none" stroke="#aaaaaa" d="M323.13,-51C333.04,-51 344.8,-51 356.75,-51"/>
<polygon fill="#aaaaaa" stroke="#aaaaaa" points="356.51,-53.45 363.51,-51 356.51,-48.55 356.51,-53.45"/>
</g>
<!-- furniture.legend -->
<g id="node4" class="node">
<title>furniture.legend</title>
<path fill="#b8e6b8" stroke="#2c3e50" stroke-width="1.8" d="M571.5,-199C571.5,-199 541.5,-199 541.5,-199 535.5,-199 529.5,-193 529.5,-187 529.5,-187 529.5,-175 529.5,-175 529.5,-169 535.5,-163 541.5,-163 541.5,-163 571.5,-163 571.5,-163 577.5,-163 583.5,-169 583.5,-175 583.5,-175 583.5,-187 583.5,-187 583.5,-193 577.5,-199 571.5,-199"/>
<text xml:space="preserve" text-anchor="middle" x="556.5" y="-177.5" font-family="Arial" font-size="10.00" fill="#1a1a1a">legend</text>
</g>
<!-- attr_4 -->
<g id="node9" class="node">
<title>attr_4</title>
<path fill="#c7b8e6" stroke="#7f8c8d" stroke-width="1.2" d="M727.25,-199C727.25,-199 638.5,-199 638.5,-199 632.5,-199 626.5,-193 626.5,-187 626.5,-187 626.5,-175 626.5,-175 626.5,-169 632.5,-163 638.5,-163 638.5,-163 727.25,-163 727.25,-163 733.25,-163 739.25,-169 739.25,-175 739.25,-175 739.25,-187 739.25,-187 739.25,-193 733.25,-199 727.25,-199"/>
<text xml:space="preserve" text-anchor="middle" x="682.88" y="-177.5" font-family="Arial" font-size="10.00" fill="#1a1a1a">(−) minimal text labels</text>
</g>
<!-- furniture.legend&#45;&gt;attr_4 -->
<g id="edge4" class="edge">
<title>furniture.legend&#45;&gt;attr_4</title>
<path fill="none" stroke="#aaaaaa" d="M584.18,-181C594.16,-181 605.96,-181 617.86,-181"/>
<polygon fill="#aaaaaa" stroke="#aaaaaa" points="617.58,-183.45 624.58,-181 617.58,-178.55 617.58,-183.45"/>
</g>
<!-- structure.layout -->
<g id="node5" class="node">
<title>structure.layout</title>
<path fill="#b8e6b8" stroke="#2c3e50" stroke-width="1.8" d="M310.5,-231C310.5,-231 280.5,-231 280.5,-231 274.5,-231 268.5,-225 268.5,-219 268.5,-219 268.5,-207 268.5,-207 268.5,-201 274.5,-195 280.5,-195 280.5,-195 310.5,-195 310.5,-195 316.5,-195 322.5,-201 322.5,-207 322.5,-207 322.5,-219 322.5,-219 322.5,-225 316.5,-231 310.5,-231"/>
<text xml:space="preserve" text-anchor="middle" x="295.5" y="-209.5" font-family="Arial" font-size="10.00" fill="#1a1a1a">layout</text>
</g>
<!-- attr_3 -->
<g id="node10" class="node">
<title>attr_3</title>
<path fill="#c7b8e6" stroke="#7f8c8d" stroke-width="1.2" d="M471.5,-264C471.5,-264 380.5,-264 380.5,-264 374.5,-264 368.5,-258 368.5,-252 368.5,-252 368.5,-240 368.5,-240 368.5,-234 374.5,-228 380.5,-228 380.5,-228 471.5,-228 471.5,-228 477.5,-228 483.5,-234 483.5,-240 483.5,-240 483.5,-252 483.5,-252 483.5,-258 477.5,-264 471.5,-264"/>
<text xml:space="preserve" text-anchor="middle" x="426" y="-242.5" font-family="Arial" font-size="10.00" fill="#1a1a1a">(−) simple clean layout</text>
</g>
<!-- structure.layout&#45;&gt;attr_3 -->
<g id="edge5" class="edge">
<title>structure.layout&#45;&gt;attr_3</title>
<path fill="none" stroke="#aaaaaa" d="M323.13,-219.84C333.9,-222.6 346.86,-225.93 359.86,-229.27"/>
<polygon fill="#aaaaaa" stroke="#aaaaaa" points="359.09,-231.6 366.48,-230.97 360.31,-226.86 359.09,-231.6"/>
</g>
<!-- rel_3 -->
<g id="node14" class="node">
<title>rel_3</title>
<path fill="#f5b8b8" stroke="#d46a6a" stroke-width="1.2" d="M441,-199C441,-199 411,-199 411,-199 405,-199 399,-193 399,-187 399,-187 399,-175 399,-175 399,-169 405,-163 411,-163 411,-163 441,-163 441,-163 447,-163 453,-169 453,-175 453,-175 453,-187 453,-187 453,-193 447,-199 441,-199"/>
<text xml:space="preserve" text-anchor="middle" x="426" y="-177.5" font-family="Arial" font-size="10.00" fill="#8b0000">lowers</text>
</g>
<!-- structure.layout&#45;&gt;rel_3 -->
<g id="edge12" class="edge">
<title>structure.layout&#45;&gt;rel_3</title>
<path fill="none" stroke="#d46a6a" stroke-width="1.5" d="M323.13,-206.37C342.08,-201.65 367.77,-195.25 388.62,-190.06"/>
<polygon fill="#d46a6a" stroke="#d46a6a" stroke-width="1.5" points="389.12,-192.82 396.21,-188.17 387.77,-187.39 389.12,-192.82"/>
</g>
<!-- rel_0&#45;&gt;structure.layout -->
<g id="edge7" class="edge">
<title>rel_0&#45;&gt;structure.layout</title>
<path fill="none" stroke="#d46a6a" stroke-width="1.5" d="M188.69,-213C208.39,-213 235.53,-213 257.39,-213"/>
<polygon fill="#d46a6a" stroke="#d46a6a" stroke-width="1.5" points="257.38,-215.8 265.38,-213 257.38,-210.2 257.38,-215.8"/>
</g>
<!-- rel_1&#45;&gt;unknown.glyph -->
<g id="edge9" class="edge">
<title>rel_1&#45;&gt;unknown.glyph</title>
<path fill="none" stroke="#d46a6a" stroke-width="1.5" d="M190.3,-25C210.06,-29.93 236.72,-36.58 258.12,-41.92"/>
<polygon fill="#d46a6a" stroke="#d46a6a" stroke-width="1.5" points="257.2,-44.58 265.64,-43.8 258.56,-39.15 257.2,-44.58"/>
</g>
<!-- rel_2&#45;&gt;unknown.glyph -->
<g id="edge11" class="edge">
<title>rel_2&#45;&gt;unknown.glyph</title>
<path fill="none" stroke="#d46a6a" stroke-width="1.5" d="M195.78,-133.27C205.69,-128.34 216.33,-122.43 225.5,-116 241.72,-104.62 257.94,-89.57 270.57,-76.82"/>
<polygon fill="#d46a6a" stroke="#d46a6a" stroke-width="1.5" points="272.42,-78.94 275.99,-71.25 268.41,-75.03 272.42,-78.94"/>
</g>
<!-- rel_3&#45;&gt;furniture.legend -->
<g id="edge13" class="edge">
<title>rel_3&#45;&gt;furniture.legend</title>
<path fill="none" stroke="#d46a6a" stroke-width="1.5" d="M453.31,-181C472.16,-181 497.79,-181 518.66,-181"/>
<polygon fill="#d46a6a" stroke="#d46a6a" stroke-width="1.5" points="518.51,-183.8 526.51,-181 518.51,-178.2 518.51,-183.8"/>
</g>
</g>
</svg>
