<?xml version="1.0" encoding="UTF-8" standalone="no"?>
<!DOCTYPE svg PUBLIC "-//W3C//DTD SVG 1.1//EN"
 "http://www.w3.org/Graphics/SVG/1.1/DTD/svg11.dtd">
<!-- Generated by graphviz version 14.1.5 (20260411.2331)
 -->
<!-- Title: VASTC.59.11(2).png Pages: 1 -->
<svg width="760pt" height="310pt"
 viewBox="0.00 0.00 760.00 310.00" xmlns="http://www.w3.org/2000/svg" xmlns:xlink="http://www.w3.org/1999/xlink">
<g id="graph0" class="graph" transform="scale(1 1) rotate(0) translate(4 306.25)">
<title>VASTC.59.11(2).png</title>
<polygon fill="white" stroke="none" points="-4,4 -4,-306.25 756,-306.25 756,4 -4,4"/>
<text xml:space="preserve" text-anchor="start" x="312.62" y="-281.95" font-family="Arial" font-weight="bold" font-size="14.00">VASTC.59.11(2).png</text>
<text xml:space="preserve" text-anchor="start" x="334" y="-262" font-family="Arial" font-size="11.00">Text &#160;| &#160;VC = 0.84</text>
<path fill="#b8e6b8" stroke="none" d="M166.62,-237C166.62,-237 174.62,-237 174.62,-237 177.62,-237 180.62,-240 180.62,-243 180.62,-243 180.62,-249 180.62,-249 180.62,-252 177.62,-255 174.62,-255 174.62,-255 166.62,-255 166.62,-255 163.62,-255 160.62,-252 160.62,-249 160.62,-249 160.62,-243 160.62,-243 160.62,-240 163.62,-237 166.62,-237"/>
<path fill="none" stroke="black" d="M166.62,-237C166.62,-237 174.62,-237 174.62,-237 177.62,-237 180.62,-240 180.62,-243 180.62,-243 180.62,-249 180.62,-249 180.62,-252 177.62,-255 174.62,-255 174.62,-255 166.62,-255 166.62,-255 163.62,-255 160.62,-252 160.62,-249 160.62,-249 160.62,-243 160.62,-243 160.62,-240 163.62,-237 166.62,-237"/>
<text xml:space="preserve" text-anchor="start" x="169.12" y="-242.25" font-family="Arial" font-size="10.00"> </text>
<text xml:space="preserve" text-anchor="start" x="184.62" y="-242.25" font-family="Arial" font-size="10.00">Object</text>
<path fill="#c7b8e6" stroke="none" d="M223.12,-237C223.12,-237 231.12,-237 231.12,-237 234.12,-237 237.12,-240 237.12,-243 237.12,-243 237.12,-249 237.12,-249 237.12,-252 234.12,-255 231.12,-255 231.12,-255 223.12,-255 223.12,-255 220.12,-255 217.12,-252 217.12,-249 217.12,-249 217.12,-243 217.12,-243 217.12,-240 220.12,-237 223.12,-237"/>
<path fill="none" stroke="black" d="M223.12,-237C223.12,-237 231.12,-237 231.12,-237 234.12,-237 237.12,-240 237.12,-243 237.12,-243 237.12,-249 237.12,-249 237.12,-252 234.12,-255 231.12,-255 231.12,-255 223.12,-255 223.12,-255 220.12,-255 217.12,-252 217.12,-249 217.12,-249 217.12,-243 217.12,-243 217.12,-240 220.12,-237 223.12,-237"/>
<text xml:space="preserve" text-anchor="start" x="225.62" y="-242.25" font-family="Arial" font-size="10.00"> </text>
<text xml:space="preserve" text-anchor="start" x="241.12" y="-242.25" font-family="Arial" font-size="10.00">Attribute</text>
<path fill="#f5b8b8" stroke="none" d="M287.88,-237C287.88,-237 295.88,-237 295.88,-237 298.88,-237 301.88,-240 301.88,-243 301.88,-243 301.88,-249 301.88,-249 301.88,-252 298.88,-255 295.88,-255 295.88,-255 287.88,-255 287.88,-255 284.88,-255 281.88,-252 281.88,-249 281.88,-249 281.88,-243 281.88,-243 281.88,-240 284.88,-237 287.88,-237"/>
<path fill="none" stroke="black" d="M287.88,-237C287.88,-237 295.88,-237 295.88,-237 298.88,-237 301.88,-240 301.88,-243 301.88,-243 301.88,-249 301.88,-249 301.88,-252 298.88,-255 295.88,-255 295.88,-255 287.88,-255 287.88,-255 284.88,-255 281.88,-252 281.88,-249 281.88,-249 281.88,-243 281.88,-243 281.88,-240 284.88,-237 287.88,-237"/>
<text xml:space="preserve" text-anchor="start" x="290.38" y="-242.25" font-family="Arial" font-size="10.00"> </text>
<text xml:space="preserve" text-anchor="start" x="305.88" y="-242.25" font-family="Arial" font-size="10.00">Relationship</text>
<text xml:space="preserve" text-anchor="start" x="365.88" y="-243.5" font-family="Arial" font-weight="bold" font-size="10.00">(+)</text>
<text xml:space="preserve" text-anchor="start" x="377.88" y="-243.5" font-family="Arial" font-size="10.00"> increases complexity</text>
<text xml:space="preserve" text-anchor="start" x="479.12" y="-243.5" font-family="Arial" font-weight="bold" font-size="10.00">(−)</text>
<text xml:space="preserve" text-anchor="start" x="491.12" y="-243.5" font-family="Arial" font-size="10.00"> decreases complexity</text>
<!-- text.label -->
<g id="node1" class="node">
<title>text.label</title>
<path fill="#b8e6b8" stroke="#2c3e50" stroke-width="1.8" d="M297,-101C297,-101 267,-101 267,-101 261,-101 255,-95 255,-89 255,-89 255,-77 255,-77 255,-71 261,-65 267,-65 267,-65 297,-65 297,-65 303,-65 309,-71 309,-77 309,-77 309,-89 309,-89 309,-95 303,-101 297,-101"/>
<text xml:space="preserve" text-anchor="middle" x="282" y="-79.5" font-family="Arial" font-size="10.00" fill="#1a1a1a">text</text>
</g>
<!-- attr_0 -->
<g id="node5" class="node">
<title>attr_0</title>
<path fill="#c7b8e6" stroke="#7f8c8d" stroke-width="1.2" d="M443.75,-166C443.75,-166 364,-166 364,-166 358,-166 352,-160 352,-154 352,-154 352,-142 352,-142 352,-136 358,-130 364,-130 364,-130 443.75,-130 443.75,-130 449.75,-130 455.75,-136 455.75,-142 455.75,-142 455.75,-154 455.75,-154 455.75,-160 449.75,-166 443.75,-166"/>
<text xml:space="preserve" text-anchor="middle" x="403.88" y="-144.5" font-family="Arial" font-size="10.00" fill="#1a1a1a">(+) too small to read</text>
</g>
<!-- text.label&#45;&gt;attr_0 -->
<g id="edge1" class="edge">
<title>text.label&#45;&gt;attr_0</title>
<path fill="none" stroke="#aaaaaa" d="M309.6,-97.43C324.81,-105.67 344.22,-116.2 361.39,-125.51"/>
<polygon fill="#aaaaaa" stroke="#aaaaaa" points="359.94,-127.51 367.26,-128.69 362.28,-123.2 359.94,-127.51"/>
</g>
<!-- attr_4 -->
<g id="node6" class="node">
<title>attr_4</title>
<path fill="#c7b8e6" stroke="#7f8c8d" stroke-width="1.2" d="M443.38,-101C443.38,-101 364.38,-101 364.38,-101 358.38,-101 352.38,-95 352.38,-89 352.38,-89 352.38,-77 352.38,-77 352.38,-71 358.38,-65 364.38,-65 364.38,-65 443.38,-65 443.38,-65 449.38,-65 455.38,-71 455.38,-77 455.38,-77 455.38,-89 455.38,-89 455.38,-95 449.38,-101 443.38,-101"/>
<text xml:space="preserve" text-anchor="middle" x="403.88" y="-79.5" font-family="Arial" font-size="10.00" fill="#1a1a1a">(+) high text density</text>
</g>
<!-- text.label&#45;&gt;attr_4 -->
<g id="edge2" class="edge">
<title>text.label&#45;&gt;attr_4</title>
<path fill="none" stroke="#aaaaaa" d="M309.6,-83C319.8,-83 331.89,-83 343.93,-83"/>
<polygon fill="#aaaaaa" stroke="#aaaaaa" points="343.71,-85.45 350.71,-83 343.71,-80.55 343.71,-85.45"/>
</g>
<!-- rel_1 -->
<g id="node11" class="node">
<title>rel_1</title>
<path fill="#f5b8b8" stroke="#d46a6a" stroke-width="1.2" d="M440.38,-36C440.38,-36 367.38,-36 367.38,-36 361.38,-36 355.38,-30 355.38,-24 355.38,-24 355.38,-12 355.38,-12 355.38,-6 361.38,0 367.38,0 367.38,0 440.38,0 440.38,0 446.38,0 452.38,-6 452.38,-12 452.38,-12 452.38,-24 452.38,-24 452.38,-30 446.38,-36 440.38,-36"/>
<text xml:space="preserve" text-anchor="middle" x="403.88" y="-14.5" font-family="Arial" font-size="10.00" fill="#8b0000">increases effort for</text>
</g>
<!-- text.label&#45;&gt;rel_1 -->
<g id="edge8" class="edge">
<title>text.label&#45;&gt;rel_1</title>
<path fill="none" stroke="#d46a6a" stroke-width="1.5" d="M309.6,-68.57C324.41,-60.55 343.19,-50.37 360.01,-41.24"/>
<polygon fill="#d46a6a" stroke="#d46a6a" stroke-width="1.5" points="360.9,-43.95 366.6,-37.67 358.23,-39.02 360.9,-43.95"/>
</g>
<!-- unknown.font -->
<g id="node2" class="node">
<title>unknown.font</title>
<path fill="#b8e6b8" stroke="#2c3e50" stroke-width="1.8" d="M42,-198C42,-198 12,-198 12,-198 6,-198 0,-192 0,-186 0,-186 0,-174 0,-174 0,-168 6,-162 12,-162 12,-162 42,-162 42,-162 48,-162 54,-168 54,-174 54,-174 54,-186 54,-186 54,-192 48,-198 42,-198"/>
<text xml:space="preserve" text-anchor="middle" x="27" y="-176.5" font-family="Arial" font-size="10.00" fill="#1a1a1a">font</text>
</g>
<!-- attr_1 -->
<g id="node7" class="node">
<title>attr_1</title>
<path fill="#c7b8e6" stroke="#7f8c8d" stroke-width="1.2" d="M189.88,-231C189.88,-231 119.12,-231 119.12,-231 113.12,-231 107.12,-225 107.12,-219 107.12,-219 107.12,-207 107.12,-207 107.12,-201 113.12,-195 119.12,-195 119.12,-195 189.88,-195 189.88,-195 195.88,-195 201.88,-201 201.88,-207 201.88,-207 201.88,-219 201.88,-219 201.88,-225 195.88,-231 189.88,-231"/>
<text xml:space="preserve" text-anchor="middle" x="154.5" y="-209.5" font-family="Arial" font-size="10.00" fill="#1a1a1a">(+) small font size</text>
</g>
<!-- unknown.font&#45;&gt;attr_1 -->
<g id="edge3" class="edge">
<title>unknown.font&#45;&gt;attr_1</title>
<path fill="none" stroke="#aaaaaa" d="M54.62,-187C67.48,-190.38 83.42,-194.57 98.72,-198.6"/>
<polygon fill="#aaaaaa" stroke="#aaaaaa" points="97.79,-200.88 105.18,-200.29 99.04,-196.15 97.79,-200.88"/>
</g>
<!-- rel_0 -->
<g id="node10" class="node">
<title>rel_0</title>
<path fill="#f5b8b8" stroke="#d46a6a" stroke-width="1.2" d="M192.5,-166C192.5,-166 116.5,-166 116.5,-166 110.5,-166 104.5,-160 104.5,-154 104.5,-154 104.5,-142 104.5,-142 104.5,-136 110.5,-130 116.5,-130 116.5,-130 192.5,-130 192.5,-130 198.5,-130 204.5,-136 204.5,-142 204.5,-142 204.5,-154 204.5,-154 204.5,-160 198.5,-166 192.5,-166"/>
<text xml:space="preserve" text-anchor="middle" x="154.5" y="-144.5" font-family="Arial" font-size="10.00" fill="#8b0000">reduces legibility of</text>
</g>
<!-- unknown.font&#45;&gt;rel_0 -->
<g id="edge6" class="edge">
<title>unknown.font&#45;&gt;rel_0</title>
<path fill="none" stroke="#d46a6a" stroke-width="1.5" d="M54.62,-173.21C66.31,-170.23 80.54,-166.6 94.52,-163.04"/>
<polygon fill="#d46a6a" stroke="#d46a6a" stroke-width="1.5" points="94.86,-165.84 101.92,-161.15 93.48,-160.41 94.86,-165.84"/>
</g>
<!-- unknown.word -->
<g id="node3" class="node">
<title>unknown.word</title>
<path fill="#b8e6b8" stroke="#2c3e50" stroke-width="1.8" d="M42,-69C42,-69 12,-69 12,-69 6,-69 0,-63 0,-57 0,-57 0,-45 0,-45 0,-39 6,-33 12,-33 12,-33 42,-33 42,-33 48,-33 54,-39 54,-45 54,-45 54,-57 54,-57 54,-63 48,-69 42,-69"/>
<text xml:space="preserve" text-anchor="middle" x="27" y="-47.5" font-family="Arial" font-size="10.00" fill="#1a1a1a">word</text>
</g>
<!-- attr_2 -->
<g id="node8" class="node">
<title>attr_2</title>
<path fill="#c7b8e6" stroke="#7f8c8d" stroke-width="1.2" d="M200,-101C200,-101 109,-101 109,-101 103,-101 97,-95 97,-89 97,-89 97,-77 97,-77 97,-71 103,-65 109,-65 109,-65 200,-65 200,-65 206,-65 212,-71 212,-77 212,-77 212,-89 212,-89 212,-95 206,-101 200,-101"/>
<text xml:space="preserve" text-anchor="middle" x="154.5" y="-79.5" font-family="Arial" font-size="10.00" fill="#1a1a1a">(+) unreadable wording</text>
</g>
<!-- unknown.word&#45;&gt;attr_2 -->
<g id="edge4" class="edge">
<title>unknown.word&#45;&gt;attr_2</title>
<path fill="none" stroke="#aaaaaa" d="M54.62,-57.79C64.55,-60.32 76.33,-63.32 88.22,-66.36"/>
<polygon fill="#aaaaaa" stroke="#aaaaaa" points="87.6,-68.72 94.99,-68.08 88.81,-63.98 87.6,-68.72"/>
</g>
<!-- rel_2 -->
<g id="node12" class="node">
<title>rel_2</title>
<path fill="#f5b8b8" stroke="#d46a6a" stroke-width="1.2" d="M170.38,-36C170.38,-36 138.62,-36 138.62,-36 132.62,-36 126.62,-30 126.62,-24 126.62,-24 126.62,-12 126.62,-12 126.62,-6 132.62,0 138.62,0 138.62,0 170.38,0 170.38,0 176.38,0 182.38,-6 182.38,-12 182.38,-12 182.38,-24 182.38,-24 182.38,-30 176.38,-36 170.38,-36"/>
<text xml:space="preserve" text-anchor="middle" x="154.5" y="-14.5" font-family="Arial" font-size="10.00" fill="#8b0000">obscures</text>
</g>
<!-- unknown.word&#45;&gt;rel_2 -->
<g id="edge10" class="edge">
<title>unknown.word&#45;&gt;rel_2</title>
<path fill="none" stroke="#d46a6a" stroke-width="1.5" d="M54.62,-44C72.51,-39.3 96.34,-33.03 116.13,-27.83"/>
<polygon fill="#d46a6a" stroke="#d46a6a" stroke-width="1.5" points="116.83,-30.54 123.86,-25.79 115.41,-25.12 116.83,-30.54"/>
</g>
<!-- structure.layout -->
<g id="node4" class="node">
<title>structure.layout</title>
<path fill="#b8e6b8" stroke="#2c3e50" stroke-width="1.8" d="M540.75,-36C540.75,-36 510.75,-36 510.75,-36 504.75,-36 498.75,-30 498.75,-24 498.75,-24 498.75,-12 498.75,-12 498.75,-6 504.75,0 510.75,0 510.75,0 540.75,0 540.75,0 546.75,0 552.75,-6 552.75,-12 552.75,-12 552.75,-24 552.75,-24 552.75,-30 546.75,-36 540.75,-36"/>
<text xml:space="preserve" text-anchor="middle" x="525.75" y="-14.5" font-family="Arial" font-size="10.00" fill="#1a1a1a">layout</text>
</g>
<!-- attr_3 -->
<g id="node9" class="node">
<title>attr_3</title>
<path fill="#c7b8e6" stroke="#7f8c8d" stroke-width="1.2" d="M740,-36C740,-36 607.75,-36 607.75,-36 601.75,-36 595.75,-30 595.75,-24 595.75,-24 595.75,-12 595.75,-12 595.75,-6 601.75,0 607.75,0 607.75,0 740,0 740,0 746,0 752,-6 752,-12 752,-12 752,-24 752,-24 752,-30 746,-36 740,-36"/>
<text xml:space="preserve" text-anchor="middle" x="673.88" y="-14.5" font-family="Arial" font-size="10.00" fill="#1a1a1a">(+) visually inaccessible content</text>
</g>
<!-- structure.layout&#45;&gt;attr_3 -->
<g id="edge5" class="edge">
<title>structure.layout&#45;&gt;attr_3</title>
<path fill="none" stroke="#aaaaaa" d="M553.55,-18C563.26,-18 574.82,-18 586.86,-18"/>
<polygon fill="#aaaaaa" stroke="#aaaaaa" points="586.74,-20.45 593.74,-18 586.74,-15.55 586.74,-20.45"/>
</g>
<!-- rel_0&#45;&gt;text.label -->
<g id="edge7" class="edge">
<title>rel_0&#45;&gt;text.label</title>
<path fill="none" stroke="#d46a6a" stroke-width="1.5" d="M191.13,-129.55C208.13,-120.74 228.41,-110.24 245.41,-101.44"/>
<polygon fill="#d46a6a" stroke="#d46a6a" stroke-width="1.5" points="246.63,-103.95 252.45,-97.79 244.06,-98.98 246.63,-103.95"/>
</g>
<!-- rel_1&#45;&gt;structure.layout -->
<g id="edge9" class="edge">
<title>rel_1&#45;&gt;structure.layout</title>
<path fill="none" stroke="#d46a6a" stroke-width="1.5" d="M452.94,-18C464.59,-18 476.86,-18 487.9,-18"/>
<polygon fill="#d46a6a" stroke="#d46a6a" stroke-width="1.5" points="487.78,-20.8 495.78,-18 487.78,-15.2 487.78,-20.8"/>
</g>
<!-- rel_2&#45;&gt;text.label -->
<g id="edge11" class="edge">
<title>rel_2&#45;&gt;text.label</title>
<path fill="none" stroke="#d46a6a" stroke-width="1.5" d="M182.73,-32.1C201.03,-41.58 225.33,-54.17 245.19,-64.45"/>
<polygon fill="#d46a6a" stroke="#d46a6a" stroke-width="1.5" points="243.85,-66.91 252.24,-68.1 246.42,-61.94 243.85,-66.91"/>
</g>
</g>
</svg>
