<?xml version="1.0" encoding="UTF-8" standalone="no"?>
<!DOCTYPE svg PUBLIC "-//W3C//DTD SVG 1.1//EN"
 "http://www.w3.org/Graphics/SVG/1.1/DTD/svg11.dtd">
<!-- Generated by graphviz version 14.1.5 (20260411.2331)
 -->
<!-- Title: vis278.png Pages: 1 -->
<svg width="789pt" height="440pt"
 viewBox="0.00 0.00 789.00 440.00" xmlns="http://www.w3.org/2000/svg" xmlns:xlink="http://www.w3.org/1999/xlink">
<g id="graph0" class="graph" transform="scale(1 1) rotate(0) translate(4 436.25)">
<title>vis278.png</title>
<polygon fill="white" stroke="none" points="-4,4 -4,-436.25 784.5,-436.25 784.5,4 -4,4"/>
<text xml:space="preserve" text-anchor="start" x="355.38" y="-411.95" font-family="Arial" font-weight="bold" font-size="14.00">vis278.png</text>
<text xml:space="preserve" text-anchor="start" x="346.38" y="-392" font-family="Arial" font-size="11.00">Area &#160;| &#160;VC = 0.87</text>
<path fill="#b8e6b8" stroke="none" d="M180.88,-367C180.88,-367 188.88,-367 188.88,-367 191.88,-367 194.88,-370 194.88,-373 194.88,-373 194.88,-379 194.88,-379 194.88,-382 191.88,-385 188.88,-385 188.88,-385 180.88,-385 180.88,-385 177.88,-385 174.88,-382 174.88,-379 174.88,-379 174.88,-373 174.88,-373 174.88,-370 177.88,-367 180.88,-367"/>
<path fill="none" stroke="black" d="M180.88,-367C180.88,-367 188.88,-367 188.88,-367 191.88,-367 194.88,-370 194.88,-373 194.88,-373 194.88,-379 194.88,-379 194.88,-382 191.88,-385 188.88,-385 188.88,-385 180.88,-385 180.88,-385 177.88,-385 174.88,-382 174.88,-379 174.88,-379 174.88,-373 174.88,-373 174.88,-370 177.88,-367 180.88,-367"/>
<text xml:space="preserve" text-anchor="start" x="183.38" y="-372.25" font-family="Arial" font-size="10.00"> </text>
<text xml:space="preserve" text-anchor="start" x="198.88" y="-372.25" font-family="Arial" font-size="10.00">Object</text>
<path fill="#c7b8e6" stroke="none" d="M237.38,-367C237.38,-367 245.38,-367 245.38,-367 248.38,-367 251.38,-370 251.38,-373 251.38,-373 251.38,-379 251.38,-379 251.38,-382 248.38,-385 245.38,-385 245.38,-385 237.38,-385 237.38,-385 234.38,-385 231.38,-382 231.38,-379 231.38,-379 231.38,-373 231.38,-373 231.38,-370 234.38,-367 237.38,-367"/>
<path fill="none" stroke="black" d="M237.38,-367C237.38,-367 245.38,-367 245.38,-367 248.38,-367 251.38,-370 251.38,-373 251.38,-373 251.38,-379 251.38,-379 251.38,-382 248.38,-385 245.38,-385 245.38,-385 237.38,-385 237.38,-385 234.38,-385 231.38,-382 231.38,-379 231.38,-379 231.38,-373 231.38,-373 231.38,-370 234.38,-367 237.38,-367"/>
<text xml:space="preserve" text-anchor="start" x="239.88" y="-372.25" font-family="Arial" font-size="10.00"> </text>
<text xml:space="preserve" text-anchor="start" x="255.38" y="-372.25" font-family="Arial" font-size="10.00">Attribute</text>
<path fill="#f5b8b8" stroke="none" d="M302.12,-367C302.12,-367 310.12,-367 310.12,-367 313.12,-367 316.12,-370 316.12,-373 316.12,-373 316.12,-379 316.12,-379 316.12,-382 313.12,-385 310.12,-385 310.12,-385 302.12,-385 302.12,-385 299.12,-385 296.12,-382 296.12,-379 296.12,-379 296.12,-373 296.12,-373 296.12,-370 299.12,-367 302.12,-367"/>
<path fill="none" stroke="black" d="M302.12,-367C302.12,-367 310.12,-367 310.12,-367 313.12,-367 316.12,-370 316.12,-373 316.12,-373 316.12,-379 316.12,-379 316.12,-382 313.12,-385 310.12,-385 310.12,-385 302.12,-385 302.12,-385 299.12,-385 296.12,-382 296.12,-379 296.12,-379 296.12,-373 296.12,-373 296.12,-370 299.12,-367 302.12,-367"/>
<text xml:space="preserve" text-anchor="start" x="304.62" y="-372.25" font-family="Arial" font-size="10.00"> </text>
<text xml:space="preserve" text-anchor="start" x="320.12" y="-372.25" font-family="Arial" font-size="10.00">Relationship</text>
<text xml:space="preserve" text-anchor="start" x="380.12" y="-373.5" font-family="Arial" font-weight="bold" font-size="10.00">(+)</text>
<text xml:space="preserve" text-anchor="start" x="392.12" y="-373.5" font-family="Arial" font-size="10.00"> increases complexity</text>
<text xml:space="preserve" text-anchor="start" x="493.38" y="-373.5" font-family="Arial" font-weight="bold" font-size="10.00">(−)</text>
<text xml:space="preserve" text-anchor="start" x="505.38" y="-373.5" font-family="Arial" font-size="10.00"> decreases complexity</text>
<!-- mark.area -->
<g id="node1" class="node">
<title>mark.area</title>
<path fill="#b8e6b8" stroke="#2c3e50" stroke-width="1.8" d="M332.75,-166C332.75,-166 292.75,-166 292.75,-166 286.75,-166 280.75,-160 280.75,-154 280.75,-154 280.75,-142 280.75,-142 280.75,-136 286.75,-130 292.75,-130 292.75,-130 332.75,-130 332.75,-130 338.75,-130 344.75,-136 344.75,-142 344.75,-142 344.75,-154 344.75,-154 344.75,-160 338.75,-166 332.75,-166"/>
<text xml:space="preserve" text-anchor="middle" x="312.75" y="-144.5" font-family="Arial" font-size="10.00" fill="#1a1a1a">area shape</text>
</g>
<!-- attr_1 -->
<g id="node6" class="node">
<title>attr_1</title>
<path fill="#c7b8e6" stroke="#7f8c8d" stroke-width="1.2" d="M484.75,-199C484.75,-199 399.75,-199 399.75,-199 393.75,-199 387.75,-193 387.75,-187 387.75,-187 387.75,-175 387.75,-175 387.75,-169 393.75,-163 399.75,-163 399.75,-163 484.75,-163 484.75,-163 490.75,-163 496.75,-169 496.75,-175 496.75,-175 496.75,-187 496.75,-187 496.75,-193 490.75,-199 484.75,-199"/>
<text xml:space="preserve" text-anchor="middle" x="442.25" y="-177.5" font-family="Arial" font-size="10.00" fill="#1a1a1a">(−) simple area forms</text>
</g>
<!-- mark.area&#45;&gt;attr_1 -->
<g id="edge1" class="edge">
<title>mark.area&#45;&gt;attr_1</title>
<path fill="none" stroke="#aaaaaa" d="M345.59,-156.24C355.9,-158.91 367.71,-161.97 379.43,-165"/>
<polygon fill="#aaaaaa" stroke="#aaaaaa" points="378.65,-167.33 386.05,-166.71 379.88,-162.59 378.65,-167.33"/>
</g>
<!-- rel_1 -->
<g id="node12" class="node">
<title>rel_1</title>
<path fill="#f5b8b8" stroke="#d46a6a" stroke-width="1.2" d="M457.25,-134C457.25,-134 427.25,-134 427.25,-134 421.25,-134 415.25,-128 415.25,-122 415.25,-122 415.25,-110 415.25,-110 415.25,-104 421.25,-98 427.25,-98 427.25,-98 457.25,-98 457.25,-98 463.25,-98 469.25,-104 469.25,-110 469.25,-110 469.25,-122 469.25,-122 469.25,-128 463.25,-134 457.25,-134"/>
<text xml:space="preserve" text-anchor="middle" x="442.25" y="-112.5" font-family="Arial" font-size="10.00" fill="#8b0000">reduces</text>
</g>
<!-- mark.area&#45;&gt;rel_1 -->
<g id="edge8" class="edge">
<title>mark.area&#45;&gt;rel_1</title>
<path fill="none" stroke="#d46a6a" stroke-width="1.5" d="M345.59,-140.01C363.64,-135.48 386.29,-129.79 405.01,-125.09"/>
<polygon fill="#d46a6a" stroke="#d46a6a" stroke-width="1.5" points="405.68,-127.81 412.76,-123.15 404.32,-122.38 405.68,-127.81"/>
</g>
<!-- mark.line -->
<g id="node2" class="node">
<title>mark.line</title>
<path fill="#b8e6b8" stroke="#2c3e50" stroke-width="1.8" d="M43.62,-328C43.62,-328 13.62,-328 13.62,-328 7.62,-328 1.62,-322 1.62,-316 1.62,-316 1.62,-304 1.62,-304 1.62,-298 7.62,-292 13.62,-292 13.62,-292 43.62,-292 43.62,-292 49.62,-292 55.62,-298 55.62,-304 55.62,-304 55.62,-316 55.62,-316 55.62,-322 49.62,-328 43.62,-328"/>
<text xml:space="preserve" text-anchor="middle" x="28.62" y="-306.5" font-family="Arial" font-size="10.00" fill="#1a1a1a">line</text>
</g>
<!-- attr_0 -->
<g id="node7" class="node">
<title>attr_0</title>
<path fill="#c7b8e6" stroke="#7f8c8d" stroke-width="1.2" d="M213.38,-361C213.38,-361 124.62,-361 124.62,-361 118.62,-361 112.62,-355 112.62,-349 112.62,-349 112.62,-337 112.62,-337 112.62,-331 118.62,-325 124.62,-325 124.62,-325 213.38,-325 213.38,-325 219.38,-325 225.38,-331 225.38,-337 225.38,-337 225.38,-349 225.38,-349 225.38,-355 219.38,-361 213.38,-361"/>
<text xml:space="preserve" text-anchor="middle" x="169" y="-339.5" font-family="Arial" font-size="10.00" fill="#1a1a1a">(−) clean smooth lines</text>
</g>
<!-- mark.line&#45;&gt;attr_0 -->
<g id="edge2" class="edge">
<title>mark.line&#45;&gt;attr_0</title>
<path fill="none" stroke="#aaaaaa" d="M56.31,-316.36C69.94,-319.61 87.17,-323.72 103.99,-327.73"/>
<polygon fill="#aaaaaa" stroke="#aaaaaa" points="103.34,-330.1 110.72,-329.34 104.48,-325.33 103.34,-330.1"/>
</g>
<!-- rel_0 -->
<g id="node11" class="node">
<title>rel_0</title>
<path fill="#f5b8b8" stroke="#d46a6a" stroke-width="1.2" d="M207.75,-296C207.75,-296 130.25,-296 130.25,-296 124.25,-296 118.25,-290 118.25,-284 118.25,-284 118.25,-272 118.25,-272 118.25,-266 124.25,-260 130.25,-260 130.25,-260 207.75,-260 207.75,-260 213.75,-260 219.75,-266 219.75,-272 219.75,-272 219.75,-284 219.75,-284 219.75,-290 213.75,-296 207.75,-296"/>
<text xml:space="preserve" text-anchor="middle" x="169" y="-274.5" font-family="Arial" font-size="10.00" fill="#8b0000">defines boundary of</text>
</g>
<!-- mark.line&#45;&gt;rel_0 -->
<g id="edge6" class="edge">
<title>mark.line&#45;&gt;rel_0</title>
<path fill="none" stroke="#d46a6a" stroke-width="1.5" d="M56.31,-303.83C71.02,-300.43 89.91,-296.06 107.96,-291.88"/>
<polygon fill="#d46a6a" stroke="#d46a6a" stroke-width="1.5" points="108.5,-294.63 115.66,-290.1 107.24,-289.18 108.5,-294.63"/>
</g>
<!-- text.axis_label -->
<g id="node3" class="node">
<title>text.axis_label</title>
<path fill="#b8e6b8" stroke="#2c3e50" stroke-width="1.8" d="M45.25,-199C45.25,-199 12,-199 12,-199 6,-199 0,-193 0,-187 0,-187 0,-175 0,-175 0,-169 6,-163 12,-163 12,-163 45.25,-163 45.25,-163 51.25,-163 57.25,-169 57.25,-175 57.25,-175 57.25,-187 57.25,-187 57.25,-193 51.25,-199 45.25,-199"/>
<text xml:space="preserve" text-anchor="middle" x="28.62" y="-177.5" font-family="Arial" font-size="10.00" fill="#1a1a1a">axis label</text>
</g>
<!-- attr_3 -->
<g id="node8" class="node">
<title>attr_3</title>
<path fill="#c7b8e6" stroke="#7f8c8d" stroke-width="1.2" d="M210.75,-231C210.75,-231 127.25,-231 127.25,-231 121.25,-231 115.25,-225 115.25,-219 115.25,-219 115.25,-207 115.25,-207 115.25,-201 121.25,-195 127.25,-195 127.25,-195 210.75,-195 210.75,-195 216.75,-195 222.75,-201 222.75,-207 222.75,-207 222.75,-219 222.75,-219 222.75,-225 216.75,-231 210.75,-231"/>
<text xml:space="preserve" text-anchor="middle" x="169" y="-209.5" font-family="Arial" font-size="10.00" fill="#1a1a1a">(−) minimal label text</text>
</g>
<!-- text.axis_label&#45;&gt;attr_3 -->
<g id="edge3" class="edge">
<title>text.axis_label&#45;&gt;attr_3</title>
<path fill="none" stroke="#aaaaaa" d="M57.96,-187.55C72.03,-190.81 89.6,-194.87 106.55,-198.79"/>
<polygon fill="#aaaaaa" stroke="#aaaaaa" points="105.95,-201.17 113.33,-200.36 107.06,-196.39 105.95,-201.17"/>
</g>
<!-- rel_2 -->
<g id="node13" class="node">
<title>rel_2</title>
<path fill="#f5b8b8" stroke="#d46a6a" stroke-width="1.2" d="M219,-166C219,-166 119,-166 119,-166 113,-166 107,-160 107,-154 107,-154 107,-142 107,-142 107,-136 113,-130 119,-130 119,-130 219,-130 219,-130 225,-130 231,-136 231,-142 231,-142 231,-154 231,-154 231,-160 225,-166 219,-166"/>
<text xml:space="preserve" text-anchor="middle" x="169" y="-144.5" font-family="Arial" font-size="10.00" fill="#8b0000">supports interpretation of</text>
</g>
<!-- text.axis_label&#45;&gt;rel_2 -->
<g id="edge10" class="edge">
<title>text.axis_label&#45;&gt;rel_2</title>
<path fill="none" stroke="#d46a6a" stroke-width="1.5" d="M57.96,-174.24C69.29,-171.54 82.89,-168.3 96.6,-165.03"/>
<polygon fill="#d46a6a" stroke="#d46a6a" stroke-width="1.5" points="97.24,-167.75 104.37,-163.17 95.94,-162.31 97.24,-167.75"/>
</g>
<!-- furniture.legend -->
<g id="node4" class="node">
<title>furniture.legend</title>
<path fill="#b8e6b8" stroke="#2c3e50" stroke-width="1.8" d="M43.62,-69C43.62,-69 13.62,-69 13.62,-69 7.62,-69 1.62,-63 1.62,-57 1.62,-57 1.62,-45 1.62,-45 1.62,-39 7.62,-33 13.62,-33 13.62,-33 43.62,-33 43.62,-33 49.62,-33 55.62,-39 55.62,-45 55.62,-45 55.62,-57 55.62,-57 55.62,-63 49.62,-69 43.62,-69"/>
<text xml:space="preserve" text-anchor="middle" x="28.62" y="-47.5" font-family="Arial" font-size="10.00" fill="#1a1a1a">legend</text>
</g>
<!-- attr_4 -->
<g id="node9" class="node">
<title>attr_4</title>
<path fill="#c7b8e6" stroke="#7f8c8d" stroke-width="1.2" d="M225.75,-101C225.75,-101 112.25,-101 112.25,-101 106.25,-101 100.25,-95 100.25,-89 100.25,-89 100.25,-77 100.25,-77 100.25,-71 106.25,-65 112.25,-65 112.25,-65 225.75,-65 225.75,-65 231.75,-65 237.75,-71 237.75,-77 237.75,-77 237.75,-89 237.75,-89 237.75,-95 231.75,-101 225.75,-101"/>
<text xml:space="preserve" text-anchor="middle" x="169" y="-79.5" font-family="Arial" font-size="10.00" fill="#1a1a1a">(−) straightforward encoding</text>
</g>
<!-- furniture.legend&#45;&gt;attr_4 -->
<g id="edge4" class="edge">
<title>furniture.legend&#45;&gt;attr_4</title>
<path fill="none" stroke="#aaaaaa" d="M56.31,-57.17C66.65,-59.56 79.06,-62.43 91.79,-65.37"/>
<polygon fill="#aaaaaa" stroke="#aaaaaa" points="90.89,-67.68 98.26,-66.87 91.99,-62.91 90.89,-67.68"/>
</g>
<!-- rel_3 -->
<g id="node14" class="node">
<title>rel_3</title>
<path fill="#f5b8b8" stroke="#d46a6a" stroke-width="1.2" d="M184,-36C184,-36 154,-36 154,-36 148,-36 142,-30 142,-24 142,-24 142,-12 142,-12 142,-6 148,0 154,0 154,0 184,0 184,0 190,0 196,-6 196,-12 196,-12 196,-24 196,-24 196,-30 190,-36 184,-36"/>
<text xml:space="preserve" text-anchor="middle" x="169" y="-14.5" font-family="Arial" font-size="10.00" fill="#8b0000">clarifies</text>
</g>
<!-- furniture.legend&#45;&gt;rel_3 -->
<g id="edge12" class="edge">
<title>furniture.legend&#45;&gt;rel_3</title>
<path fill="none" stroke="#d46a6a" stroke-width="1.5" d="M56.31,-44.64C77.75,-39.52 108.08,-32.29 131.72,-26.65"/>
<polygon fill="#d46a6a" stroke="#d46a6a" stroke-width="1.5" points="132.06,-29.45 139.19,-24.87 130.76,-24 132.06,-29.45"/>
</g>
<!-- unknown.background -->
<g id="node5" class="node">
<title>unknown.background</title>
<path fill="#b8e6b8" stroke="#2c3e50" stroke-width="1.8" d="M594,-134C594,-134 551.75,-134 551.75,-134 545.75,-134 539.75,-128 539.75,-122 539.75,-122 539.75,-110 539.75,-110 539.75,-104 545.75,-98 551.75,-98 551.75,-98 594,-98 594,-98 600,-98 606,-104 606,-110 606,-110 606,-122 606,-122 606,-128 600,-134 594,-134"/>
<text xml:space="preserve" text-anchor="middle" x="572.88" y="-112.5" font-family="Arial" font-size="10.00" fill="#1a1a1a">background</text>
</g>
<!-- attr_2 -->
<g id="node10" class="node">
<title>attr_2</title>
<path fill="#c7b8e6" stroke="#7f8c8d" stroke-width="1.2" d="M768.5,-134C768.5,-134 661,-134 661,-134 655,-134 649,-128 649,-122 649,-122 649,-110 649,-110 649,-104 655,-98 661,-98 661,-98 768.5,-98 768.5,-98 774.5,-98 780.5,-104 780.5,-110 780.5,-110 780.5,-122 780.5,-122 780.5,-128 774.5,-134 768.5,-134"/>
<text xml:space="preserve" text-anchor="middle" x="714.75" y="-112.5" font-family="Arial" font-size="10.00" fill="#1a1a1a">(−) uncluttered whitespace</text>
</g>
<!-- unknown.background&#45;&gt;attr_2 -->
<g id="edge5" class="edge">
<title>unknown.background&#45;&gt;attr_2</title>
<path fill="none" stroke="#aaaaaa" d="M606.67,-116C616.74,-116 628.26,-116 639.92,-116"/>
<polygon fill="#aaaaaa" stroke="#aaaaaa" points="639.91,-118.45 646.91,-116 639.91,-113.55 639.91,-118.45"/>
</g>
<!-- rel_0&#45;&gt;mark.area -->
<g id="edge7" class="edge">
<title>rel_0&#45;&gt;mark.area</title>
<path fill="none" stroke="#d46a6a" stroke-width="1.5" d="M216.97,-259.49C224.29,-255.59 231.49,-251.09 237.75,-246 262.07,-226.23 282.86,-196.85 296.15,-175.42"/>
<polygon fill="#d46a6a" stroke="#d46a6a" stroke-width="1.5" points="298.46,-177.01 300.21,-168.71 293.67,-174.11 298.46,-177.01"/>
</g>
<!-- rel_1&#45;&gt;unknown.background -->
<g id="edge9" class="edge">
<title>rel_1&#45;&gt;unknown.background</title>
<path fill="none" stroke="#d46a6a" stroke-width="1.5" d="M469.59,-116C486.66,-116 509.29,-116 528.93,-116"/>
<polygon fill="#d46a6a" stroke="#d46a6a" stroke-width="1.5" points="528.9,-118.8 536.9,-116 528.9,-113.2 528.9,-118.8"/>
</g>
<!-- rel_2&#45;&gt;mark.area -->
<g id="edge11" class="edge">
<title>rel_2&#45;&gt;mark.area</title>
<path fill="none" stroke="#d46a6a" stroke-width="1.5" d="M231.35,-148C244.31,-148 257.71,-148 269.76,-148"/>
<polygon fill="#d46a6a" stroke="#d46a6a" stroke-width="1.5" points="269.69,-150.8 277.69,-148 269.69,-145.2 269.69,-150.8"/>
</g>
<!-- rel_3&#45;&gt;mark.area -->
<g id="edge13" class="edge">
<title>rel_3&#45;&gt;mark.area</title>
<path fill="none" stroke="#d46a6a" stroke-width="1.5" d="M196.43,-27.48C209.7,-33.05 225.5,-40.97 237.75,-51 261.7,-70.61 282.42,-99.44 295.79,-120.57"/>
<polygon fill="#d46a6a" stroke="#d46a6a" stroke-width="1.5" points="293.28,-121.84 299.87,-127.17 298.05,-118.9 293.28,-121.84"/>
</g>
</g>
</svg>
