<?xml version="1.0" encoding="UTF-8" standalone="no"?>
<!DOCTYPE svg PUBLIC "-//W3C//DTD SVG 1.1//EN"
 "http://www.w3.org/Graphics/SVG/1.1/DTD/svg11.dtd">
<!-- Generated by graphviz version 14.1.5 (20260411.2331)
 -->
<!-- Title: vis3.png Pages: 1 -->
<svg width="864pt" height="440pt"
 viewBox="0.00 0.00 864.00 440.00" xmlns="http://www.w3.org/2000/svg" xmlns:xlink="http://www.w3.org/1999/xlink">
<g id="graph0" class="graph" transform="scale(1 1) rotate(0) translate(4 436.25)">
<title>vis3.png</title>
<polygon fill="white" stroke="none" points="-4,4 -4,-436.25 859.5,-436.25 859.5,4 -4,4"/>
<text xml:space="preserve" text-anchor="start" x="400.38" y="-411.95" font-family="Arial" font-weight="bold" font-size="14.00">vis3.png</text>
<text xml:space="preserve" text-anchor="start" x="383.88" y="-392" font-family="Arial" font-size="11.00">Area &#160;| &#160;VC = 0.70</text>
<path fill="#b8e6b8" stroke="none" d="M218.38,-367C218.38,-367 226.38,-367 226.38,-367 229.38,-367 232.38,-370 232.38,-373 232.38,-373 232.38,-379 232.38,-379 232.38,-382 229.38,-385 226.38,-385 226.38,-385 218.38,-385 218.38,-385 215.38,-385 212.38,-382 212.38,-379 212.38,-379 212.38,-373 212.38,-373 212.38,-370 215.38,-367 218.38,-367"/>
<path fill="none" stroke="black" d="M218.38,-367C218.38,-367 226.38,-367 226.38,-367 229.38,-367 232.38,-370 232.38,-373 232.38,-373 232.38,-379 232.38,-379 232.38,-382 229.38,-385 226.38,-385 226.38,-385 218.38,-385 218.38,-385 215.38,-385 212.38,-382 212.38,-379 212.38,-379 212.38,-373 212.38,-373 212.38,-370 215.38,-367 218.38,-367"/>
<text xml:space="preserve" text-anchor="start" x="220.88" y="-372.25" font-family="Arial" font-size="10.00"> </text>
<text xml:space="preserve" text-anchor="start" x="236.38" y="-372.25" font-family="Arial" font-size="10.00">Object</text>
<path fill="#c7b8e6" stroke="none" d="M274.88,-367C274.88,-367 282.88,-367 282.88,-367 285.88,-367 288.88,-370 288.88,-373 288.88,-373 288.88,-379 288.88,-379 288.88,-382 285.88,-385 282.88,-385 282.88,-385 274.88,-385 274.88,-385 271.88,-385 268.88,-382 268.88,-379 268.88,-379 268.88,-373 268.88,-373 268.88,-370 271.88,-367 274.88,-367"/>
<path fill="none" stroke="black" d="M274.88,-367C274.88,-367 282.88,-367 282.88,-367 285.88,-367 288.88,-370 288.88,-373 288.88,-373 288.88,-379 288.88,-379 288.88,-382 285.88,-385 282.88,-385 282.88,-385 274.88,-385 274.88,-385 271.88,-385 268.88,-382 268.88,-379 268.88,-379 268.88,-373 268.88,-373 268.88,-370 271.88,-367 274.88,-367"/>
<text xml:space="preserve" text-anchor="start" x="277.38" y="-372.25" font-family="Arial" font-size="10.00"> </text>
<text xml:space="preserve" text-anchor="start" x="292.88" y="-372.25" font-family="Arial" font-size="10.00">Attribute</text>
<path fill="#f5b8b8" stroke="none" d="M339.62,-367C339.62,-367 347.62,-367 347.62,-367 350.62,-367 353.62,-370 353.62,-373 353.62,-373 353.62,-379 353.62,-379 353.62,-382 350.62,-385 347.62,-385 347.62,-385 339.62,-385 339.62,-385 336.62,-385 333.62,-382 333.62,-379 333.62,-379 333.62,-373 333.62,-373 333.62,-370 336.62,-367 339.62,-367"/>
<path fill="none" stroke="black" d="M339.62,-367C339.62,-367 347.62,-367 347.62,-367 350.62,-367 353.62,-370 353.62,-373 353.62,-373 353.62,-379 353.62,-379 353.62,-382 350.62,-385 347.62,-385 347.62,-385 339.62,-385 339.62,-385 336.62,-385 333.62,-382 333.62,-379 333.62,-379 333.62,-373 333.62,-373 333.62,-370 336.62,-367 339.62,-367"/>
<text xml:space="preserve" text-anchor="start" x="342.12" y="-372.25" font-family="Arial" font-size="10.00"> </text>
<text xml:space="preserve" text-anchor="start" x="357.62" y="-372.25" font-family="Arial" font-size="10.00">Relationship</text>
<text xml:space="preserve" text-anchor="start" x="417.62" y="-373.5" font-family="Arial" font-weight="bold" font-size="10.00">(+)</text>
<text xml:space="preserve" text-anchor="start" x="429.62" y="-373.5" font-family="Arial" font-size="10.00"> increases complexity</text>
<text xml:space="preserve" text-anchor="start" x="530.88" y="-373.5" font-family="Arial" font-weight="bold" font-size="10.00">(−)</text>
<text xml:space="preserve" text-anchor="start" x="542.88" y="-373.5" font-family="Arial" font-size="10.00"> decreases complexity</text>
<!-- unknown.color_scheme -->
<g id="node1" class="node">
<title>unknown.color_scheme</title>
<path fill="#b8e6b8" stroke="#2c3e50" stroke-width="1.8" d="M62.5,-296C62.5,-296 12,-296 12,-296 6,-296 0,-290 0,-284 0,-284 0,-272 0,-272 0,-266 6,-260 12,-260 12,-260 62.5,-260 62.5,-260 68.5,-260 74.5,-266 74.5,-272 74.5,-272 74.5,-284 74.5,-284 74.5,-290 68.5,-296 62.5,-296"/>
<text xml:space="preserve" text-anchor="middle" x="37.25" y="-274.5" font-family="Arial" font-size="10.00" fill="#1a1a1a">color scheme</text>
</g>
<!-- attr_0 -->
<g id="node7" class="node">
<title>attr_0</title>
<path fill="#c7b8e6" stroke="#7f8c8d" stroke-width="1.2" d="M245.25,-231C245.25,-231 137.75,-231 137.75,-231 131.75,-231 125.75,-225 125.75,-219 125.75,-219 125.75,-207 125.75,-207 125.75,-201 131.75,-195 137.75,-195 137.75,-195 245.25,-195 245.25,-195 251.25,-195 257.25,-201 257.25,-207 257.25,-207 257.25,-219 257.25,-219 257.25,-225 251.25,-231 245.25,-231"/>
<text xml:space="preserve" text-anchor="middle" x="191.5" y="-209.5" font-family="Arial" font-size="10.00" fill="#1a1a1a">(+) multiple color schemes</text>
</g>
<!-- unknown.color_scheme&#45;&gt;attr_0 -->
<g id="edge1" class="edge">
<title>unknown.color_scheme&#45;&gt;attr_0</title>
<path fill="none" stroke="#aaaaaa" d="M75.11,-262.27C94.39,-254.03 118.3,-243.83 139.34,-234.84"/>
<polygon fill="#aaaaaa" stroke="#aaaaaa" points="140.09,-237.19 145.56,-232.19 138.16,-232.68 140.09,-237.19"/>
</g>
<!-- rel_0 -->
<g id="node13" class="node">
<title>rel_0</title>
<path fill="#f5b8b8" stroke="#d46a6a" stroke-width="1.2" d="M253.5,-296C253.5,-296 129.5,-296 129.5,-296 123.5,-296 117.5,-290 117.5,-284 117.5,-284 117.5,-272 117.5,-272 117.5,-266 123.5,-260 129.5,-260 129.5,-260 253.5,-260 253.5,-260 259.5,-260 265.5,-266 265.5,-272 265.5,-272 265.5,-284 265.5,-284 265.5,-290 259.5,-296 253.5,-296"/>
<text xml:space="preserve" text-anchor="middle" x="191.5" y="-274.5" font-family="Arial" font-size="10.00" fill="#8b0000">increases interpretive difficulty</text>
</g>
<!-- unknown.color_scheme&#45;&gt;rel_0 -->
<g id="edge7" class="edge">
<title>unknown.color_scheme&#45;&gt;rel_0</title>
<path fill="none" stroke="#d46a6a" stroke-width="1.5" d="M75.11,-278C84.81,-278 95.68,-278 106.77,-278"/>
<polygon fill="#d46a6a" stroke="#d46a6a" stroke-width="1.5" points="106.72,-280.8 114.72,-278 106.72,-275.2 106.72,-280.8"/>
</g>
<!-- rel_3 -->
<g id="node16" class="node">
<title>rel_3</title>
<path fill="#f5b8b8" stroke="#d46a6a" stroke-width="1.2" d="M213.75,-361C213.75,-361 169.25,-361 169.25,-361 163.25,-361 157.25,-355 157.25,-349 157.25,-349 157.25,-337 157.25,-337 157.25,-331 163.25,-325 169.25,-325 169.25,-325 213.75,-325 213.75,-325 219.75,-325 225.75,-331 225.75,-337 225.75,-337 225.75,-349 225.75,-349 225.75,-355 219.75,-361 213.75,-361"/>
<text xml:space="preserve" text-anchor="middle" x="191.5" y="-339.5" font-family="Arial" font-size="10.00" fill="#8b0000">overwhelms</text>
</g>
<!-- unknown.color_scheme&#45;&gt;rel_3 -->
<g id="edge13" class="edge">
<title>unknown.color_scheme&#45;&gt;rel_3</title>
<path fill="none" stroke="#d46a6a" stroke-width="1.5" d="M75.11,-293.73C96.9,-303.04 124.6,-314.87 147.4,-324.6"/>
<polygon fill="#d46a6a" stroke="#d46a6a" stroke-width="1.5" points="146.3,-327.17 154.76,-327.74 148.5,-322.02 146.3,-327.17"/>
</g>
<!-- unknown.shading -->
<g id="node2" class="node">
<title>unknown.shading</title>
<path fill="#b8e6b8" stroke="#2c3e50" stroke-width="1.8" d="M52.25,-134C52.25,-134 22.25,-134 22.25,-134 16.25,-134 10.25,-128 10.25,-122 10.25,-122 10.25,-110 10.25,-110 10.25,-104 16.25,-98 22.25,-98 22.25,-98 52.25,-98 52.25,-98 58.25,-98 64.25,-104 64.25,-110 64.25,-110 64.25,-122 64.25,-122 64.25,-128 58.25,-134 52.25,-134"/>
<text xml:space="preserve" text-anchor="middle" x="37.25" y="-112.5" font-family="Arial" font-size="10.00" fill="#1a1a1a">shading</text>
</g>
<!-- attr_1 -->
<g id="node8" class="node">
<title>attr_1</title>
<path fill="#c7b8e6" stroke="#7f8c8d" stroke-width="1.2" d="M244.12,-101C244.12,-101 138.88,-101 138.88,-101 132.88,-101 126.88,-95 126.88,-89 126.88,-89 126.88,-77 126.88,-77 126.88,-71 132.88,-65 138.88,-65 138.88,-65 244.12,-65 244.12,-65 250.12,-65 256.12,-71 256.12,-77 256.12,-77 256.12,-89 256.12,-89 256.12,-95 250.12,-101 244.12,-101"/>
<text xml:space="preserve" text-anchor="middle" x="191.5" y="-79.5" font-family="Arial" font-size="10.00" fill="#1a1a1a">(+) varied shade gradation</text>
</g>
<!-- unknown.shading&#45;&gt;attr_1 -->
<g id="edge2" class="edge">
<title>unknown.shading&#45;&gt;attr_1</title>
<path fill="none" stroke="#aaaaaa" d="M65.12,-110.18C80.06,-106.94 99.43,-102.74 118.47,-98.61"/>
<polygon fill="#aaaaaa" stroke="#aaaaaa" points="118.79,-101.05 125.11,-97.17 117.75,-96.26 118.79,-101.05"/>
</g>
<!-- rel_1 -->
<g id="node14" class="node">
<title>rel_1</title>
<path fill="#f5b8b8" stroke="#d46a6a" stroke-width="1.2" d="M207.38,-166C207.38,-166 175.62,-166 175.62,-166 169.62,-166 163.62,-160 163.62,-154 163.62,-154 163.62,-142 163.62,-142 163.62,-136 169.62,-130 175.62,-130 175.62,-130 207.38,-130 207.38,-130 213.38,-130 219.38,-136 219.38,-142 219.38,-142 219.38,-154 219.38,-154 219.38,-160 213.38,-166 207.38,-166"/>
<text xml:space="preserve" text-anchor="middle" x="191.5" y="-144.5" font-family="Arial" font-size="10.00" fill="#8b0000">obscures</text>
</g>
<!-- unknown.shading&#45;&gt;rel_1 -->
<g id="edge9" class="edge">
<title>unknown.shading&#45;&gt;rel_1</title>
<path fill="none" stroke="#d46a6a" stroke-width="1.5" d="M65.12,-121.65C89.57,-126.79 125.9,-134.42 153.17,-140.15"/>
<polygon fill="#d46a6a" stroke="#d46a6a" stroke-width="1.5" points="152.5,-142.88 160.91,-141.78 153.66,-137.39 152.5,-142.88"/>
</g>
<!-- unknown.font -->
<g id="node3" class="node">
<title>unknown.font</title>
<path fill="#b8e6b8" stroke="#2c3e50" stroke-width="1.8" d="M353.25,-68C353.25,-68 323.25,-68 323.25,-68 317.25,-68 311.25,-62 311.25,-56 311.25,-56 311.25,-44 311.25,-44 311.25,-38 317.25,-32 323.25,-32 323.25,-32 353.25,-32 353.25,-32 359.25,-32 365.25,-38 365.25,-44 365.25,-44 365.25,-56 365.25,-56 365.25,-62 359.25,-68 353.25,-68"/>
<text xml:space="preserve" text-anchor="middle" x="338.25" y="-46.5" font-family="Arial" font-size="10.00" fill="#1a1a1a">font</text>
</g>
<!-- attr_2 -->
<g id="node9" class="node">
<title>attr_2</title>
<path fill="#c7b8e6" stroke="#7f8c8d" stroke-width="1.2" d="M532.75,-36C532.75,-36 446.25,-36 446.25,-36 440.25,-36 434.25,-30 434.25,-24 434.25,-24 434.25,-12 434.25,-12 434.25,-6 440.25,0 446.25,0 446.25,0 532.75,0 532.75,0 538.75,0 544.75,-6 544.75,-12 544.75,-12 544.75,-24 544.75,-24 544.75,-30 538.75,-36 532.75,-36"/>
<text xml:space="preserve" text-anchor="middle" x="489.5" y="-14.5" font-family="Arial" font-size="10.00" fill="#1a1a1a">(+) differing font sizes</text>
</g>
<!-- unknown.font&#45;&gt;attr_2 -->
<g id="edge3" class="edge">
<title>unknown.font&#45;&gt;attr_2</title>
<path fill="none" stroke="#aaaaaa" d="M365.93,-44.28C382.59,-40.71 404.77,-35.95 425.68,-31.47"/>
<polygon fill="#aaaaaa" stroke="#aaaaaa" points="426.11,-33.88 432.44,-30.02 425.08,-29.09 426.11,-33.88"/>
</g>
<!-- rel_2 -->
<g id="node15" class="node">
<title>rel_2</title>
<path fill="#f5b8b8" stroke="#d46a6a" stroke-width="1.2" d="M534.62,-101C534.62,-101 444.38,-101 444.38,-101 438.38,-101 432.38,-95 432.38,-89 432.38,-89 432.38,-77 432.38,-77 432.38,-71 438.38,-65 444.38,-65 444.38,-65 534.62,-65 534.62,-65 540.62,-65 546.62,-71 546.62,-77 546.62,-77 546.62,-89 546.62,-89 546.62,-95 540.62,-101 534.62,-101"/>
<text xml:space="preserve" text-anchor="middle" x="489.5" y="-79.5" font-family="Arial" font-size="10.00" fill="#8b0000">complicates reading of</text>
</g>
<!-- unknown.font&#45;&gt;rel_2 -->
<g id="edge11" class="edge">
<title>unknown.font&#45;&gt;rel_2</title>
<path fill="none" stroke="#d46a6a" stroke-width="1.5" d="M365.93,-55.9C381.64,-59.37 402.26,-63.93 422.1,-68.32"/>
<polygon fill="#d46a6a" stroke="#d46a6a" stroke-width="1.5" points="421.43,-71.04 429.85,-70.03 422.64,-65.57 421.43,-71.04"/>
</g>
<!-- unknown.area_chart -->
<g id="node4" class="node">
<title>unknown.area_chart</title>
<path fill="#b8e6b8" stroke="#2c3e50" stroke-width="1.8" d="M356,-231C356,-231 320.5,-231 320.5,-231 314.5,-231 308.5,-225 308.5,-219 308.5,-219 308.5,-207 308.5,-207 308.5,-201 314.5,-195 320.5,-195 320.5,-195 356,-195 356,-195 362,-195 368,-201 368,-207 368,-207 368,-219 368,-219 368,-225 362,-231 356,-231"/>
<text xml:space="preserve" text-anchor="middle" x="338.25" y="-209.5" font-family="Arial" font-size="10.00" fill="#1a1a1a">area chart</text>
</g>
<!-- attr_3 -->
<g id="node10" class="node">
<title>attr_3</title>
<path fill="#c7b8e6" stroke="#7f8c8d" stroke-width="1.2" d="M556,-166C556,-166 423,-166 423,-166 417,-166 411,-160 411,-154 411,-154 411,-142 411,-142 411,-136 417,-130 423,-130 423,-130 556,-130 556,-130 562,-130 568,-136 568,-142 568,-142 568,-154 568,-154 568,-160 562,-166 556,-166"/>
<text xml:space="preserve" text-anchor="middle" x="489.5" y="-144.5" font-family="Arial" font-size="10.00" fill="#1a1a1a">(+) requires extended interpretati</text>
</g>
<!-- unknown.area_chart&#45;&gt;attr_3 -->
<g id="edge4" class="edge">
<title>unknown.area_chart&#45;&gt;attr_3</title>
<path fill="none" stroke="#aaaaaa" d="M368.8,-199.09C381.71,-193.1 397.05,-186.09 411,-180 418.79,-176.6 427.05,-173.09 435.17,-169.7"/>
<polygon fill="#aaaaaa" stroke="#aaaaaa" points="435.97,-172.02 441.49,-167.07 434.08,-167.49 435.97,-172.02"/>
</g>
<!-- attr_4 -->
<g id="node11" class="node">
<title>attr_4</title>
<path fill="#c7b8e6" stroke="#7f8c8d" stroke-width="1.2" d="M551.88,-296C551.88,-296 427.12,-296 427.12,-296 421.12,-296 415.12,-290 415.12,-284 415.12,-284 415.12,-272 415.12,-272 415.12,-266 421.12,-260 427.12,-260 427.12,-260 551.88,-260 551.88,-260 557.88,-260 563.88,-266 563.88,-272 563.88,-272 563.88,-284 563.88,-284 563.88,-290 557.88,-296 551.88,-296"/>
<text xml:space="preserve" text-anchor="middle" x="489.5" y="-274.5" font-family="Arial" font-size="10.00" fill="#1a1a1a">(+) visually layered complexity</text>
</g>
<!-- unknown.area_chart&#45;&gt;attr_4 -->
<g id="edge5" class="edge">
<title>unknown.area_chart&#45;&gt;attr_4</title>
<path fill="none" stroke="#aaaaaa" d="M368.8,-226.91C381.71,-232.9 397.05,-239.91 411,-246 418.79,-249.4 427.05,-252.91 435.17,-256.3"/>
<polygon fill="#aaaaaa" stroke="#aaaaaa" points="434.08,-258.51 441.49,-258.93 435.97,-253.98 434.08,-258.51"/>
</g>
<!-- rel_4 -->
<g id="node17" class="node">
<title>rel_4</title>
<path fill="#f5b8b8" stroke="#d46a6a" stroke-width="1.2" d="M553.38,-231C553.38,-231 425.62,-231 425.62,-231 419.62,-231 413.62,-225 413.62,-219 413.62,-219 413.62,-207 413.62,-207 413.62,-201 419.62,-195 425.62,-195 425.62,-195 553.38,-195 553.38,-195 559.38,-195 565.38,-201 565.38,-207 565.38,-207 565.38,-219 565.38,-219 565.38,-225 559.38,-231 553.38,-231"/>
<text xml:space="preserve" text-anchor="middle" x="489.5" y="-209.5" font-family="Arial" font-size="10.00" fill="#8b0000">requires longer processing than</text>
</g>
<!-- unknown.area_chart&#45;&gt;rel_4 -->
<g id="edge15" class="edge">
<title>unknown.area_chart&#45;&gt;rel_4</title>
<path fill="none" stroke="#d46a6a" stroke-width="1.5" d="M368.74,-213C378.93,-213 390.91,-213 403.3,-213"/>
<polygon fill="#d46a6a" stroke="#d46a6a" stroke-width="1.5" points="403.02,-215.8 411.02,-213 403.02,-210.2 403.02,-215.8"/>
</g>
<!-- furniture.legend -->
<g id="node5" class="node">
<title>furniture.legend</title>
<path fill="#b8e6b8" stroke="#2c3e50" stroke-width="1.8" d="M353.25,-361C353.25,-361 323.25,-361 323.25,-361 317.25,-361 311.25,-355 311.25,-349 311.25,-349 311.25,-337 311.25,-337 311.25,-331 317.25,-325 323.25,-325 323.25,-325 353.25,-325 353.25,-325 359.25,-325 365.25,-331 365.25,-337 365.25,-337 365.25,-349 365.25,-349 365.25,-355 359.25,-361 353.25,-361"/>
<text xml:space="preserve" text-anchor="middle" x="338.25" y="-339.5" font-family="Arial" font-size="10.00" fill="#1a1a1a">legend</text>
</g>
<!-- text.axis_label -->
<g id="node6" class="node">
<title>text.axis_label</title>
<path fill="#b8e6b8" stroke="#2c3e50" stroke-width="1.8" d="M656.25,-166C656.25,-166 623,-166 623,-166 617,-166 611,-160 611,-154 611,-154 611,-142 611,-142 611,-136 617,-130 623,-130 623,-130 656.25,-130 656.25,-130 662.25,-130 668.25,-136 668.25,-142 668.25,-142 668.25,-154 668.25,-154 668.25,-160 662.25,-166 656.25,-166"/>
<text xml:space="preserve" text-anchor="middle" x="639.62" y="-144.5" font-family="Arial" font-size="10.00" fill="#1a1a1a">axis label</text>
</g>
<!-- attr_5 -->
<g id="node12" class="node">
<title>attr_5</title>
<path fill="#c7b8e6" stroke="#7f8c8d" stroke-width="1.2" d="M843.5,-166C843.5,-166 723.25,-166 723.25,-166 717.25,-166 711.25,-160 711.25,-154 711.25,-154 711.25,-142 711.25,-142 711.25,-136 717.25,-130 723.25,-130 723.25,-130 843.5,-130 843.5,-130 849.5,-130 855.5,-136 855.5,-142 855.5,-142 855.5,-154 855.5,-154 855.5,-160 849.5,-166 843.5,-166"/>
<text xml:space="preserve" text-anchor="middle" x="783.38" y="-144.5" font-family="Arial" font-size="10.00" fill="#1a1a1a">(+) inconsistent text structure</text>
</g>
<!-- text.axis_label&#45;&gt;attr_5 -->
<g id="edge6" class="edge">
<title>text.axis_label&#45;&gt;attr_5</title>
<path fill="none" stroke="#aaaaaa" d="M668.97,-148C678.88,-148 690.56,-148 702.58,-148"/>
<polygon fill="#aaaaaa" stroke="#aaaaaa" points="702.42,-150.45 709.42,-148 702.42,-145.55 702.42,-150.45"/>
</g>
<!-- rel_0&#45;&gt;unknown.area_chart -->
<g id="edge8" class="edge">
<title>rel_0&#45;&gt;unknown.area_chart</title>
<path fill="none" stroke="#d46a6a" stroke-width="1.5" d="M235.02,-259.52C245.03,-255.12 255.65,-250.42 265.5,-246 276.24,-241.18 287.84,-235.88 298.53,-230.96"/>
<polygon fill="#d46a6a" stroke="#d46a6a" stroke-width="1.5" points="299.48,-233.61 305.57,-227.72 297.13,-228.52 299.48,-233.61"/>
</g>
<!-- rel_1&#45;&gt;unknown.area_chart -->
<g id="edge10" class="edge">
<title>rel_1&#45;&gt;unknown.area_chart</title>
<path fill="none" stroke="#d46a6a" stroke-width="1.5" d="M219.94,-159.89C233.65,-165.86 250.48,-173.25 265.5,-180 276.24,-184.82 287.84,-190.12 298.53,-195.04"/>
<polygon fill="#d46a6a" stroke="#d46a6a" stroke-width="1.5" points="297.13,-197.48 305.57,-198.28 299.48,-192.39 297.13,-197.48"/>
</g>
<!-- rel_2&#45;&gt;text.axis_label -->
<g id="edge12" class="edge">
<title>rel_2&#45;&gt;text.axis_label</title>
<path fill="none" stroke="#d46a6a" stroke-width="1.5" d="M536.13,-101.44C546.64,-105.79 557.74,-110.49 568,-115 578.83,-119.76 590.49,-125.12 601.16,-130.11"/>
<polygon fill="#d46a6a" stroke="#d46a6a" stroke-width="1.5" points="599.75,-132.54 608.18,-133.41 602.14,-127.47 599.75,-132.54"/>
</g>
<!-- rel_3&#45;&gt;furniture.legend -->
<g id="edge14" class="edge">
<title>rel_3&#45;&gt;furniture.legend</title>
<path fill="none" stroke="#d46a6a" stroke-width="1.5" d="M226.07,-343C248.38,-343 277.67,-343 300.58,-343"/>
<polygon fill="#d46a6a" stroke="#d46a6a" stroke-width="1.5" points="300.35,-345.8 308.35,-343 300.35,-340.2 300.35,-345.8"/>
</g>
<!-- rel_4&#45;&gt;text.axis_label -->
<g id="edge16" class="edge">
<title>rel_4&#45;&gt;text.axis_label</title>
<path fill="none" stroke="#d46a6a" stroke-width="1.5" d="M534.43,-194.5C545.41,-189.82 557.16,-184.76 568,-180 578.77,-175.27 590.42,-170.04 601.09,-165.2"/>
<polygon fill="#d46a6a" stroke="#d46a6a" stroke-width="1.5" points="601.98,-167.87 608.1,-162.01 599.66,-162.77 601.98,-167.87"/>
</g>
</g>
</svg>
