<?xml version="1.0" encoding="UTF-8" standalone="no"?>
<!DOCTYPE svg PUBLIC "-//W3C//DTD SVG 1.1//EN"
 "http://www.w3.org/Graphics/SVG/1.1/DTD/svg11.dtd">
<!-- Generated by graphviz version 14.1.5 (20260411.2331)
 -->
<!-- Title: vis393.png Pages: 1 -->
<svg width="1110pt" height="309pt"
 viewBox="0.00 0.00 1110.00 309.00" xmlns="http://www.w3.org/2000/svg" xmlns:xlink="http://www.w3.org/1999/xlink">
<g id="graph0" class="graph" transform="scale(1 1) rotate(0) translate(4 305.25)">
<title>vis393.png</title>
<polygon fill="white" stroke="none" points="-4,4 -4,-305.25 1106,-305.25 1106,4 -4,4"/>
<text xml:space="preserve" text-anchor="start" x="516.12" y="-280.95" font-family="Arial" font-weight="bold" font-size="14.00">vis393.png</text>
<text xml:space="preserve" text-anchor="start" x="508.62" y="-261" font-family="Arial" font-size="11.00">Grid &#160;| &#160;VC = 0.60</text>
<path fill="#b8e6b8" stroke="none" d="M341.62,-236C341.62,-236 349.62,-236 349.62,-236 352.62,-236 355.62,-239 355.62,-242 355.62,-242 355.62,-248 355.62,-248 355.62,-251 352.62,-254 349.62,-254 349.62,-254 341.62,-254 341.62,-254 338.62,-254 335.62,-251 335.62,-248 335.62,-248 335.62,-242 335.62,-242 335.62,-239 338.62,-236 341.62,-236"/>
<path fill="none" stroke="black" d="M341.62,-236C341.62,-236 349.62,-236 349.62,-236 352.62,-236 355.62,-239 355.62,-242 355.62,-242 355.62,-248 355.62,-248 355.62,-251 352.62,-254 349.62,-254 349.62,-254 341.62,-254 341.62,-254 338.62,-254 335.62,-251 335.62,-248 335.62,-248 335.62,-242 335.62,-242 335.62,-239 338.62,-236 341.62,-236"/>
<text xml:space="preserve" text-anchor="start" x="344.12" y="-241.25" font-family="Arial" font-size="10.00"> </text>
<text xml:space="preserve" text-anchor="start" x="359.62" y="-241.25" font-family="Arial" font-size="10.00">Object</text>
<path fill="#c7b8e6" stroke="none" d="M398.12,-236C398.12,-236 406.12,-236 406.12,-236 409.12,-236 412.12,-239 412.12,-242 412.12,-242 412.12,-248 412.12,-248 412.12,-251 409.12,-254 406.12,-254 406.12,-254 398.12,-254 398.12,-254 395.12,-254 392.12,-251 392.12,-248 392.12,-248 392.12,-242 392.12,-242 392.12,-239 395.12,-236 398.12,-236"/>
<path fill="none" stroke="black" d="M398.12,-236C398.12,-236 406.12,-236 406.12,-236 409.12,-236 412.12,-239 412.12,-242 412.12,-242 412.12,-248 412.12,-248 412.12,-251 409.12,-254 406.12,-254 406.12,-254 398.12,-254 398.12,-254 395.12,-254 392.12,-251 392.12,-248 392.12,-248 392.12,-242 392.12,-242 392.12,-239 395.12,-236 398.12,-236"/>
<text xml:space="preserve" text-anchor="start" x="400.62" y="-241.25" font-family="Arial" font-size="10.00"> </text>
<text xml:space="preserve" text-anchor="start" x="416.12" y="-241.25" font-family="Arial" font-size="10.00">Attribute</text>
<path fill="#f5b8b8" stroke="none" d="M462.88,-236C462.88,-236 470.88,-236 470.88,-236 473.88,-236 476.88,-239 476.88,-242 476.88,-242 476.88,-248 476.88,-248 476.88,-251 473.88,-254 470.88,-254 470.88,-254 462.88,-254 462.88,-254 459.88,-254 456.88,-251 456.88,-248 456.88,-248 456.88,-242 456.88,-242 456.88,-239 459.88,-236 462.88,-236"/>
<path fill="none" stroke="black" d="M462.88,-236C462.88,-236 470.88,-236 470.88,-236 473.88,-236 476.88,-239 476.88,-242 476.88,-242 476.88,-248 476.88,-248 476.88,-251 473.88,-254 470.88,-254 470.88,-254 462.88,-254 462.88,-254 459.88,-254 456.88,-251 456.88,-248 456.88,-248 456.88,-242 456.88,-242 456.88,-239 459.88,-236 462.88,-236"/>
<text xml:space="preserve" text-anchor="start" x="465.38" y="-241.25" font-family="Arial" font-size="10.00"> </text>
<text xml:space="preserve" text-anchor="start" x="480.88" y="-241.25" font-family="Arial" font-size="10.00">Relationship</text>
<text xml:space="preserve" text-anchor="start" x="540.88" y="-242.5" font-family="Arial" font-weight="bold" font-size="10.00">(+)</text>
<text xml:space="preserve" text-anchor="start" x="552.88" y="-242.5" font-family="Arial" font-size="10.00"> increases complexity</text>
<text xml:space="preserve" text-anchor="start" x="654.12" y="-242.5" font-family="Arial" font-weight="bold" font-size="10.00">(−)</text>
<text xml:space="preserve" text-anchor="start" x="666.12" y="-242.5" font-family="Arial" font-size="10.00"> decreases complexity</text>
<!-- structure.grid -->
<g id="node1" class="node">
<title>structure.grid</title>
<path fill="#b8e6b8" stroke="#2c3e50" stroke-width="1.8" d="M302.25,-132C302.25,-132 272.25,-132 272.25,-132 266.25,-132 260.25,-126 260.25,-120 260.25,-120 260.25,-108 260.25,-108 260.25,-102 266.25,-96 272.25,-96 272.25,-96 302.25,-96 302.25,-96 308.25,-96 314.25,-102 314.25,-108 314.25,-108 314.25,-120 314.25,-120 314.25,-126 308.25,-132 302.25,-132"/>
<text xml:space="preserve" text-anchor="middle" x="287.25" y="-110.5" font-family="Arial" font-size="10.00" fill="#1a1a1a">grid</text>
</g>
<!-- attr_0 -->
<g id="node6" class="node">
<title>attr_0</title>
<path fill="#c7b8e6" stroke="#7f8c8d" stroke-width="1.2" d="M494.75,-230C494.75,-230 369.25,-230 369.25,-230 363.25,-230 357.25,-224 357.25,-218 357.25,-218 357.25,-206 357.25,-206 357.25,-200 363.25,-194 369.25,-194 369.25,-194 494.75,-194 494.75,-194 500.75,-194 506.75,-200 506.75,-206 506.75,-206 506.75,-218 506.75,-218 506.75,-224 500.75,-230 494.75,-230"/>
<text xml:space="preserve" text-anchor="middle" x="432" y="-208.5" font-family="Arial" font-size="10.00" fill="#1a1a1a">(+) multiple visual components</text>
</g>
<!-- structure.grid&#45;&gt;attr_0 -->
<g id="edge1" class="edge">
<title>structure.grid&#45;&gt;attr_0</title>
<path fill="none" stroke="#aaaaaa" d="M304.35,-132.67C317.48,-147.03 337.09,-166.61 357.25,-180 362.56,-183.53 368.33,-186.82 374.22,-189.84"/>
<polygon fill="#aaaaaa" stroke="#aaaaaa" points="373,-191.97 380.36,-192.86 375.16,-187.57 373,-191.97"/>
</g>
<!-- attr_5 -->
<g id="node7" class="node">
<title>attr_5</title>
<path fill="#c7b8e6" stroke="#7f8c8d" stroke-width="1.2" d="M485,-165C485,-165 379,-165 379,-165 373,-165 367,-159 367,-153 367,-153 367,-141 367,-141 367,-135 373,-129 379,-129 379,-129 485,-129 485,-129 491,-129 497,-135 497,-141 497,-141 497,-153 497,-153 497,-159 491,-165 485,-165"/>
<text xml:space="preserve" text-anchor="middle" x="432" y="-143.5" font-family="Arial" font-size="10.00" fill="#1a1a1a">(+) complex at first glance</text>
</g>
<!-- structure.grid&#45;&gt;attr_5 -->
<g id="edge2" class="edge">
<title>structure.grid&#45;&gt;attr_5</title>
<path fill="none" stroke="#aaaaaa" d="M315.1,-120.21C327.55,-123.08 343.01,-126.66 358.53,-130.25"/>
<polygon fill="#aaaaaa" stroke="#aaaaaa" points="357.79,-132.59 365.17,-131.78 358.9,-127.82 357.79,-132.59"/>
</g>
<!-- rel_1 -->
<g id="node13" class="node">
<title>rel_1</title>
<path fill="#f5b8b8" stroke="#d46a6a" stroke-width="1.2" d="M447,-100C447,-100 417,-100 417,-100 411,-100 405,-94 405,-88 405,-88 405,-76 405,-76 405,-70 411,-64 417,-64 417,-64 447,-64 447,-64 453,-64 459,-70 459,-76 459,-76 459,-88 459,-88 459,-94 453,-100 447,-100"/>
<text xml:space="preserve" text-anchor="middle" x="432" y="-78.5" font-family="Arial" font-size="10.00" fill="#8b0000">contains</text>
</g>
<!-- structure.grid&#45;&gt;rel_1 -->
<g id="edge9" class="edge">
<title>structure.grid&#45;&gt;rel_1</title>
<path fill="none" stroke="#d46a6a" stroke-width="1.5" d="M315.1,-107.98C337.67,-102.92 370.14,-95.64 394.97,-90.08"/>
<polygon fill="#d46a6a" stroke="#d46a6a" stroke-width="1.5" points="395.34,-92.86 402.54,-88.38 394.12,-87.4 395.34,-92.86"/>
</g>
<!-- unknown.components -->
<g id="node2" class="node">
<title>unknown.components</title>
<path fill="#b8e6b8" stroke="#2c3e50" stroke-width="1.8" d="M893,-100C893,-100 847.75,-100 847.75,-100 841.75,-100 835.75,-94 835.75,-88 835.75,-88 835.75,-76 835.75,-76 835.75,-70 841.75,-64 847.75,-64 847.75,-64 893,-64 893,-64 899,-64 905,-70 905,-76 905,-76 905,-88 905,-88 905,-94 899,-100 893,-100"/>
<text xml:space="preserve" text-anchor="middle" x="870.38" y="-78.5" font-family="Arial" font-size="10.00" fill="#1a1a1a">components</text>
</g>
<!-- attr_1 -->
<g id="node8" class="node">
<title>attr_1</title>
<path fill="#c7b8e6" stroke="#7f8c8d" stroke-width="1.2" d="M1090,-166C1090,-166 960,-166 960,-166 954,-166 948,-160 948,-154 948,-154 948,-142 948,-142 948,-136 954,-130 960,-130 960,-130 1090,-130 1090,-130 1096,-130 1102,-136 1102,-142 1102,-142 1102,-154 1102,-154 1102,-160 1096,-166 1090,-166"/>
<text xml:space="preserve" text-anchor="middle" x="1025" y="-144.5" font-family="Arial" font-size="10.00" fill="#1a1a1a">(+) requires more understanding</text>
</g>
<!-- unknown.components&#45;&gt;attr_1 -->
<g id="edge3" class="edge">
<title>unknown.components&#45;&gt;attr_1</title>
<path fill="none" stroke="#aaaaaa" d="M905.64,-97.37C918.86,-103.26 934.11,-109.99 948,-116 955.85,-119.39 964.17,-122.94 972.32,-126.4"/>
<polygon fill="#aaaaaa" stroke="#aaaaaa" points="970.94,-128.47 978.34,-128.94 972.84,-123.96 970.94,-128.47"/>
</g>
<!-- attr_2 -->
<g id="node9" class="node">
<title>attr_2</title>
<path fill="#c7b8e6" stroke="#7f8c8d" stroke-width="1.2" d="M1083.25,-101C1083.25,-101 966.75,-101 966.75,-101 960.75,-101 954.75,-95 954.75,-89 954.75,-89 954.75,-77 954.75,-77 954.75,-71 960.75,-65 966.75,-65 966.75,-65 1083.25,-65 1083.25,-65 1089.25,-65 1095.25,-71 1095.25,-77 1095.25,-77 1095.25,-89 1095.25,-89 1095.25,-95 1089.25,-101 1083.25,-101"/>
<text xml:space="preserve" text-anchor="middle" x="1025" y="-79.5" font-family="Arial" font-size="10.00" fill="#1a1a1a">(+) layered information depth</text>
</g>
<!-- unknown.components&#45;&gt;attr_2 -->
<g id="edge4" class="edge">
<title>unknown.components&#45;&gt;attr_2</title>
<path fill="none" stroke="#aaaaaa" d="M905.63,-82.22C917.68,-82.3 931.76,-82.4 945.92,-82.49"/>
<polygon fill="#aaaaaa" stroke="#aaaaaa" points="945.73,-84.94 952.74,-82.53 945.76,-80.04 945.73,-84.94"/>
</g>
<!-- rel_0 -->
<g id="node12" class="node">
<title>rel_0</title>
<path fill="#f5b8b8" stroke="#d46a6a" stroke-width="1.2" d="M1047.25,-36C1047.25,-36 1002.75,-36 1002.75,-36 996.75,-36 990.75,-30 990.75,-24 990.75,-24 990.75,-12 990.75,-12 990.75,-6 996.75,0 1002.75,0 1002.75,0 1047.25,0 1047.25,0 1053.25,0 1059.25,-6 1059.25,-12 1059.25,-12 1059.25,-24 1059.25,-24 1059.25,-30 1053.25,-36 1047.25,-36"/>
<text xml:space="preserve" text-anchor="middle" x="1025" y="-14.5" font-family="Arial" font-size="10.00" fill="#8b0000">overwhelms</text>
</g>
<!-- unknown.components&#45;&gt;rel_0 -->
<g id="edge7" class="edge">
<title>unknown.components&#45;&gt;rel_0</title>
<path fill="none" stroke="#d46a6a" stroke-width="1.5" d="M905.63,-67.64C927.97,-58.27 957.32,-45.96 981.2,-35.95"/>
<polygon fill="#d46a6a" stroke="#d46a6a" stroke-width="1.5" points="982,-38.65 988.29,-32.97 979.83,-33.48 982,-38.65"/>
</g>
<!-- unknown.labels -->
<g id="node3" class="node">
<title>unknown.labels</title>
<path fill="#b8e6b8" stroke="#2c3e50" stroke-width="1.8" d="M42,-164C42,-164 12,-164 12,-164 6,-164 0,-158 0,-152 0,-152 0,-140 0,-140 0,-134 6,-128 12,-128 12,-128 42,-128 42,-128 48,-128 54,-134 54,-140 54,-140 54,-152 54,-152 54,-158 48,-164 42,-164"/>
<text xml:space="preserve" text-anchor="middle" x="27" y="-142.5" font-family="Arial" font-size="10.00" fill="#1a1a1a">labels</text>
</g>
<!-- attr_4 -->
<g id="node10" class="node">
<title>attr_4</title>
<path fill="#c7b8e6" stroke="#7f8c8d" stroke-width="1.2" d="M205.25,-197C205.25,-197 109,-197 109,-197 103,-197 97,-191 97,-185 97,-185 97,-173 97,-173 97,-167 103,-161 109,-161 109,-161 205.25,-161 205.25,-161 211.25,-161 217.25,-167 217.25,-173 217.25,-173 217.25,-185 217.25,-185 217.25,-191 211.25,-197 205.25,-197"/>
<text xml:space="preserve" text-anchor="middle" x="157.12" y="-175.5" font-family="Arial" font-size="10.00" fill="#1a1a1a">(+) multiple label entries</text>
</g>
<!-- unknown.labels&#45;&gt;attr_4 -->
<g id="edge5" class="edge">
<title>unknown.labels&#45;&gt;attr_4</title>
<path fill="none" stroke="#aaaaaa" d="M54.86,-152.92C64.76,-155.47 76.47,-158.48 88.35,-161.54"/>
<polygon fill="#aaaaaa" stroke="#aaaaaa" points="87.72,-163.91 95.11,-163.29 88.95,-159.17 87.72,-163.91"/>
</g>
<!-- rel_3 -->
<g id="node15" class="node">
<title>rel_3</title>
<path fill="#f5b8b8" stroke="#d46a6a" stroke-width="1.2" d="M197,-132C197,-132 117.25,-132 117.25,-132 111.25,-132 105.25,-126 105.25,-120 105.25,-120 105.25,-108 105.25,-108 105.25,-102 111.25,-96 117.25,-96 117.25,-96 197,-96 197,-96 203,-96 209,-102 209,-108 209,-108 209,-120 209,-120 209,-126 203,-132 197,-132"/>
<text xml:space="preserve" text-anchor="middle" x="157.12" y="-110.5" font-family="Arial" font-size="10.00" fill="#8b0000">adds reading load to</text>
</g>
<!-- unknown.labels&#45;&gt;rel_3 -->
<g id="edge13" class="edge">
<title>unknown.labels&#45;&gt;rel_3</title>
<path fill="none" stroke="#d46a6a" stroke-width="1.5" d="M54.86,-139.29C66.6,-136.36 80.9,-132.79 95.01,-129.26"/>
<polygon fill="#d46a6a" stroke="#d46a6a" stroke-width="1.5" points="95.43,-132.05 102.51,-127.39 94.07,-126.61 95.43,-132.05"/>
</g>
<!-- furniture.legend -->
<g id="node4" class="node">
<title>furniture.legend</title>
<path fill="#b8e6b8" stroke="#2c3e50" stroke-width="1.8" d="M42,-229C42,-229 12,-229 12,-229 6,-229 0,-223 0,-217 0,-217 0,-205 0,-205 0,-199 6,-193 12,-193 12,-193 42,-193 42,-193 48,-193 54,-199 54,-205 54,-205 54,-217 54,-217 54,-223 48,-229 42,-229"/>
<text xml:space="preserve" text-anchor="middle" x="27" y="-207.5" font-family="Arial" font-size="10.00" fill="#1a1a1a">legend</text>
</g>
<!-- unknown.data_cells -->
<g id="node5" class="node">
<title>unknown.data_cells</title>
<path fill="#b8e6b8" stroke="#2c3e50" stroke-width="1.8" d="M595.75,-100C595.75,-100 561.75,-100 561.75,-100 555.75,-100 549.75,-94 549.75,-88 549.75,-88 549.75,-76 549.75,-76 549.75,-70 555.75,-64 561.75,-64 561.75,-64 595.75,-64 595.75,-64 601.75,-64 607.75,-70 607.75,-76 607.75,-76 607.75,-88 607.75,-88 607.75,-94 601.75,-100 595.75,-100"/>
<text xml:space="preserve" text-anchor="middle" x="578.75" y="-78.5" font-family="Arial" font-size="10.00" fill="#1a1a1a">data cells</text>
</g>
<!-- attr_3 -->
<g id="node11" class="node">
<title>attr_3</title>
<path fill="#c7b8e6" stroke="#7f8c8d" stroke-width="1.2" d="M777.75,-165C777.75,-165 665.75,-165 665.75,-165 659.75,-165 653.75,-159 653.75,-153 653.75,-153 653.75,-141 653.75,-141 653.75,-135 659.75,-129 665.75,-129 665.75,-129 777.75,-129 777.75,-129 783.75,-129 789.75,-135 789.75,-141 789.75,-141 789.75,-153 789.75,-153 789.75,-159 783.75,-165 777.75,-165"/>
<text xml:space="preserve" text-anchor="middle" x="721.75" y="-143.5" font-family="Arial" font-size="10.00" fill="#1a1a1a">(+) dense data arrangement</text>
</g>
<!-- unknown.data_cells&#45;&gt;attr_3 -->
<g id="edge6" class="edge">
<title>unknown.data_cells&#45;&gt;attr_3</title>
<path fill="none" stroke="#aaaaaa" d="M608.4,-95.37C621.33,-101.39 636.8,-108.57 650.75,-115 657.85,-118.27 665.36,-121.72 672.72,-125.09"/>
<polygon fill="#aaaaaa" stroke="#aaaaaa" points="671.25,-127.11 678.64,-127.8 673.29,-122.66 671.25,-127.11"/>
</g>
<!-- rel_2 -->
<g id="node14" class="node">
<title>rel_2</title>
<path fill="#f5b8b8" stroke="#d46a6a" stroke-width="1.2" d="M780.75,-100C780.75,-100 662.75,-100 662.75,-100 656.75,-100 650.75,-94 650.75,-88 650.75,-88 650.75,-76 650.75,-76 650.75,-70 656.75,-64 662.75,-64 662.75,-64 780.75,-64 780.75,-64 786.75,-64 792.75,-70 792.75,-76 792.75,-76 792.75,-88 792.75,-88 792.75,-94 786.75,-100 780.75,-100"/>
<text xml:space="preserve" text-anchor="middle" x="721.75" y="-78.5" font-family="Arial" font-size="10.00" fill="#8b0000">increases interpretation effort</text>
</g>
<!-- unknown.data_cells&#45;&gt;rel_2 -->
<g id="edge11" class="edge">
<title>unknown.data_cells&#45;&gt;rel_2</title>
<path fill="none" stroke="#d46a6a" stroke-width="1.5" d="M608.62,-82C618.03,-82 628.98,-82 640.28,-82"/>
<polygon fill="#d46a6a" stroke="#d46a6a" stroke-width="1.5" points="640,-84.8 648,-82 640,-79.2 640,-84.8"/>
</g>
<!-- rel_0&#45;&gt;structure.grid -->
<g id="edge8" class="edge">
<title>rel_0&#45;&gt;structure.grid</title>
<path fill="none" stroke="#d46a6a" stroke-width="1.5" d="M990.57,-18.18C934.98,-18.47 820.03,-19 722.75,-19 577.75,-19 577.75,-19 577.75,-19 478.85,-19 446.5,-6.39 357.25,-49 338.45,-57.97 321.38,-73.96 308.92,-87.83"/>
<polygon fill="#d46a6a" stroke="#d46a6a" stroke-width="1.5" points="307.09,-85.67 303.97,-93.55 311.32,-89.33 307.09,-85.67"/>
</g>
<!-- rel_1&#45;&gt;unknown.data_cells -->
<g id="edge10" class="edge">
<title>rel_1&#45;&gt;unknown.data_cells</title>
<path fill="none" stroke="#d46a6a" stroke-width="1.5" d="M459.55,-82C481.79,-82 513.83,-82 538.94,-82"/>
<polygon fill="#d46a6a" stroke="#d46a6a" stroke-width="1.5" points="538.62,-84.8 546.62,-82 538.62,-79.2 538.62,-84.8"/>
</g>
<!-- rel_2&#45;&gt;unknown.components -->
<g id="edge12" class="edge">
<title>rel_2&#45;&gt;unknown.components</title>
<path fill="none" stroke="#d46a6a" stroke-width="1.5" d="M793.06,-82C803.86,-82 814.74,-82 824.78,-82"/>
<polygon fill="#d46a6a" stroke="#d46a6a" stroke-width="1.5" points="824.62,-84.8 832.62,-82 824.62,-79.2 824.62,-84.8"/>
</g>
<!-- rel_3&#45;&gt;structure.grid -->
<g id="edge14" class="edge">
<title>rel_3&#45;&gt;structure.grid</title>
<path fill="none" stroke="#d46a6a" stroke-width="1.5" d="M209.5,-114C222.88,-114 237.03,-114 249.49,-114"/>
<polygon fill="#d46a6a" stroke="#d46a6a" stroke-width="1.5" points="249.23,-116.8 257.23,-114 249.23,-111.2 249.23,-116.8"/>
</g>
</g>
</svg>
