<?xml version="1.0" encoding="UTF-8" standalone="no"?>
<!DOCTYPE svg PUBLIC "-//W3C//DTD SVG 1.1//EN"
 "http://www.w3.org/Graphics/SVG/1.1/DTD/svg11.dtd">
<!-- Generated by graphviz version 14.1.5 (20260411.2331)
 -->
<!-- Title: vis567.png Pages: 1 -->
<svg width="950pt" height="504pt"
 viewBox="0.00 0.00 950.00 504.00" xmlns="http://www.w3.org/2000/svg" xmlns:xlink="http://www.w3.org/1999/xlink">
<g id="graph0" class="graph" transform="scale(1 1) rotate(0) translate(4 500.25)">
<title>vis567.png</title>
<polygon fill="white" stroke="none" points="-4,4 -4,-500.25 946.25,-500.25 946.25,4 -4,4"/>
<text xml:space="preserve" text-anchor="start" x="436.25" y="-475.95" font-family="Arial" font-weight="bold" font-size="14.00">vis567.png</text>
<text xml:space="preserve" text-anchor="start" x="416" y="-456" font-family="Arial" font-size="11.00">Node&#45;link &#160;| &#160;VC = 0.93</text>
<path fill="#b8e6b8" stroke="none" d="M261.75,-431C261.75,-431 269.75,-431 269.75,-431 272.75,-431 275.75,-434 275.75,-437 275.75,-437 275.75,-443 275.75,-443 275.75,-446 272.75,-449 269.75,-449 269.75,-449 261.75,-449 261.75,-449 258.75,-449 255.75,-446 255.75,-443 255.75,-443 255.75,-437 255.75,-437 255.75,-434 258.75,-431 261.75,-431"/>
<path fill="none" stroke="black" d="M261.75,-431C261.75,-431 269.75,-431 269.75,-431 272.75,-431 275.75,-434 275.75,-437 275.75,-437 275.75,-443 275.75,-443 275.75,-446 272.75,-449 269.75,-449 269.75,-449 261.75,-449 261.75,-449 258.75,-449 255.75,-446 255.75,-443 255.75,-443 255.75,-437 255.75,-437 255.75,-434 258.75,-431 261.75,-431"/>
<text xml:space="preserve" text-anchor="start" x="264.25" y="-436.25" font-family="Arial" font-size="10.00"> </text>
<text xml:space="preserve" text-anchor="start" x="279.75" y="-436.25" font-family="Arial" font-size="10.00">Object</text>
<path fill="#c7b8e6" stroke="none" d="M318.25,-431C318.25,-431 326.25,-431 326.25,-431 329.25,-431 332.25,-434 332.25,-437 332.25,-437 332.25,-443 332.25,-443 332.25,-446 329.25,-449 326.25,-449 326.25,-449 318.25,-449 318.25,-449 315.25,-449 312.25,-446 312.25,-443 312.25,-443 312.25,-437 312.25,-437 312.25,-434 315.25,-431 318.25,-431"/>
<path fill="none" stroke="black" d="M318.25,-431C318.25,-431 326.25,-431 326.25,-431 329.25,-431 332.25,-434 332.25,-437 332.25,-437 332.25,-443 332.25,-443 332.25,-446 329.25,-449 326.25,-449 326.25,-449 318.25,-449 318.25,-449 315.25,-449 312.25,-446 312.25,-443 312.25,-443 312.25,-437 312.25,-437 312.25,-434 315.25,-431 318.25,-431"/>
<text xml:space="preserve" text-anchor="start" x="320.75" y="-436.25" font-family="Arial" font-size="10.00"> </text>
<text xml:space="preserve" text-anchor="start" x="336.25" y="-436.25" font-family="Arial" font-size="10.00">Attribute</text>
<path fill="#f5b8b8" stroke="none" d="M383,-431C383,-431 391,-431 391,-431 394,-431 397,-434 397,-437 397,-437 397,-443 397,-443 397,-446 394,-449 391,-449 391,-449 383,-449 383,-449 380,-449 377,-446 377,-443 377,-443 377,-437 377,-437 377,-434 380,-431 383,-431"/>
<path fill="none" stroke="black" d="M383,-431C383,-431 391,-431 391,-431 394,-431 397,-434 397,-437 397,-437 397,-443 397,-443 397,-446 394,-449 391,-449 391,-449 383,-449 383,-449 380,-449 377,-446 377,-443 377,-443 377,-437 377,-437 377,-434 380,-431 383,-431"/>
<text xml:space="preserve" text-anchor="start" x="385.5" y="-436.25" font-family="Arial" font-size="10.00"> </text>
<text xml:space="preserve" text-anchor="start" x="401" y="-436.25" font-family="Arial" font-size="10.00">Relationship</text>
<text xml:space="preserve" text-anchor="start" x="461" y="-437.5" font-family="Arial" font-weight="bold" font-size="10.00">(+)</text>
<text xml:space="preserve" text-anchor="start" x="473" y="-437.5" font-family="Arial" font-size="10.00"> increases complexity</text>
<text xml:space="preserve" text-anchor="start" x="574.25" y="-437.5" font-family="Arial" font-weight="bold" font-size="10.00">(−)</text>
<text xml:space="preserve" text-anchor="start" x="586.25" y="-437.5" font-family="Arial" font-size="10.00"> decreases complexity</text>
<!-- unknown.node_link_diagram -->
<g id="node1" class="node">
<title>unknown.node_link_diagram</title>
<path fill="#b8e6b8" stroke="#2c3e50" stroke-width="1.8" d="M80.5,-165C80.5,-165 12,-165 12,-165 6,-165 0,-159 0,-153 0,-153 0,-141 0,-141 0,-135 6,-129 12,-129 12,-129 80.5,-129 80.5,-129 86.5,-129 92.5,-135 92.5,-141 92.5,-141 92.5,-153 92.5,-153 92.5,-159 86.5,-165 80.5,-165"/>
<text xml:space="preserve" text-anchor="middle" x="46.25" y="-143.5" font-family="Arial" font-size="10.00" fill="#1a1a1a">node link diagram</text>
</g>
<!-- attr_0 -->
<g id="node6" class="node">
<title>attr_0</title>
<path fill="#c7b8e6" stroke="#7f8c8d" stroke-width="1.2" d="M272.62,-295C272.62,-295 151.62,-295 151.62,-295 145.62,-295 139.62,-289 139.62,-283 139.62,-283 139.62,-271 139.62,-271 139.62,-265 145.62,-259 151.62,-259 151.62,-259 272.62,-259 272.62,-259 278.62,-259 284.62,-265 284.62,-271 284.62,-271 284.62,-283 284.62,-283 284.62,-289 278.62,-295 272.62,-295"/>
<text xml:space="preserve" text-anchor="middle" x="212.12" y="-273.5" font-family="Arial" font-size="10.00" fill="#1a1a1a">(+) completely uninterpretable</text>
</g>
<!-- unknown.node_link_diagram&#45;&gt;attr_0 -->
<g id="edge1" class="edge">
<title>unknown.node_link_diagram&#45;&gt;attr_0</title>
<path fill="none" stroke="#aaaaaa" d="M60.35,-165.61C76.12,-186.9 104.42,-221.71 135.5,-244 141.02,-247.96 147.1,-251.58 153.32,-254.86"/>
<polygon fill="#aaaaaa" stroke="#aaaaaa" points="151.98,-256.93 159.33,-257.87 154.17,-252.55 151.98,-256.93"/>
</g>
<!-- attr_1 -->
<g id="node7" class="node">
<title>attr_1</title>
<path fill="#c7b8e6" stroke="#7f8c8d" stroke-width="1.2" d="M268.88,-230C268.88,-230 155.38,-230 155.38,-230 149.38,-230 143.38,-224 143.38,-218 143.38,-218 143.38,-206 143.38,-206 143.38,-200 149.38,-194 155.38,-194 155.38,-194 268.88,-194 268.88,-194 274.88,-194 280.88,-200 280.88,-206 280.88,-206 280.88,-218 280.88,-218 280.88,-224 274.88,-230 268.88,-230"/>
<text xml:space="preserve" text-anchor="middle" x="212.12" y="-208.5" font-family="Arial" font-size="10.00" fill="#1a1a1a">(+) unfamiliar representation</text>
</g>
<!-- unknown.node_link_diagram&#45;&gt;attr_1 -->
<g id="edge2" class="edge">
<title>unknown.node_link_diagram&#45;&gt;attr_1</title>
<path fill="none" stroke="#aaaaaa" d="M93.33,-165.28C112.98,-173.07 136.04,-182.22 156.53,-190.35"/>
<polygon fill="#aaaaaa" stroke="#aaaaaa" points="155.43,-192.55 162.84,-192.85 157.24,-187.99 155.43,-192.55"/>
</g>
<!-- attr_6 -->
<g id="node8" class="node">
<title>attr_6</title>
<path fill="#c7b8e6" stroke="#7f8c8d" stroke-width="1.2" d="M276.75,-165C276.75,-165 147.5,-165 147.5,-165 141.5,-165 135.5,-159 135.5,-153 135.5,-153 135.5,-141 135.5,-141 135.5,-135 141.5,-129 147.5,-129 147.5,-129 276.75,-129 276.75,-129 282.75,-129 288.75,-135 288.75,-141 288.75,-141 288.75,-153 288.75,-153 288.75,-159 282.75,-165 276.75,-165"/>
<text xml:space="preserve" text-anchor="middle" x="212.12" y="-143.5" font-family="Arial" font-size="10.00" fill="#1a1a1a">(+) high cognitive effort required</text>
</g>
<!-- unknown.node_link_diagram&#45;&gt;attr_6 -->
<g id="edge3" class="edge">
<title>unknown.node_link_diagram&#45;&gt;attr_6</title>
<path fill="none" stroke="#aaaaaa" d="M93.33,-147C103.77,-147 115.17,-147 126.64,-147"/>
<polygon fill="#aaaaaa" stroke="#aaaaaa" points="126.48,-149.45 133.48,-147 126.48,-144.55 126.48,-149.45"/>
</g>
<!-- rel_0 -->
<g id="node13" class="node">
<title>rel_0</title>
<path fill="#f5b8b8" stroke="#d46a6a" stroke-width="1.2" d="M253.88,-100C253.88,-100 170.38,-100 170.38,-100 164.38,-100 158.38,-94 158.38,-88 158.38,-88 158.38,-76 158.38,-76 158.38,-70 164.38,-64 170.38,-64 170.38,-64 253.88,-64 253.88,-64 259.88,-64 265.88,-70 265.88,-76 265.88,-76 265.88,-88 265.88,-88 265.88,-94 259.88,-100 253.88,-100"/>
<text xml:space="preserve" text-anchor="middle" x="212.12" y="-78.5" font-family="Arial" font-size="10.00" fill="#8b0000">requires expertise for</text>
</g>
<!-- unknown.node_link_diagram&#45;&gt;rel_0 -->
<g id="edge8" class="edge">
<title>unknown.node_link_diagram&#45;&gt;rel_0</title>
<path fill="none" stroke="#d46a6a" stroke-width="1.5" d="M93.33,-128.72C112.46,-121.14 134.83,-112.26 154.9,-104.3"/>
<polygon fill="#d46a6a" stroke="#d46a6a" stroke-width="1.5" points="155.73,-106.98 162.14,-101.43 153.67,-101.78 155.73,-106.98"/>
</g>
<!-- rel_3 -->
<g id="node16" class="node">
<title>rel_3</title>
<path fill="#f5b8b8" stroke="#d46a6a" stroke-width="1.2" d="M488.75,-36C488.75,-36 343.75,-36 343.75,-36 337.75,-36 331.75,-30 331.75,-24 331.75,-24 331.75,-12 331.75,-12 331.75,-6 337.75,0 343.75,0 343.75,0 488.75,0 488.75,0 494.75,0 500.75,-6 500.75,-12 500.75,-12 500.75,-24 500.75,-24 500.75,-30 494.75,-36 488.75,-36"/>
<text xml:space="preserve" text-anchor="middle" x="416.25" y="-14.5" font-family="Arial" font-size="10.00" fill="#8b0000">prevents common sense reading of</text>
</g>
<!-- unknown.node_link_diagram&#45;&gt;rel_3 -->
<g id="edge14" class="edge">
<title>unknown.node_link_diagram&#45;&gt;rel_3</title>
<path fill="none" stroke="#d46a6a" stroke-width="1.5" d="M57.95,-128.48C72.35,-105.48 100.26,-67.08 135.5,-49 192.51,-19.75 264.51,-12.33 321.19,-12.05"/>
<polygon fill="#d46a6a" stroke="#d46a6a" stroke-width="1.5" points="320.95,-14.85 328.96,-12.07 320.97,-9.25 320.95,-14.85"/>
</g>
<!-- unknown.nodes -->
<g id="node2" class="node">
<title>unknown.nodes</title>
<path fill="#b8e6b8" stroke="#2c3e50" stroke-width="1.8" d="M431.25,-360C431.25,-360 401.25,-360 401.25,-360 395.25,-360 389.25,-354 389.25,-348 389.25,-348 389.25,-336 389.25,-336 389.25,-330 395.25,-324 401.25,-324 401.25,-324 431.25,-324 431.25,-324 437.25,-324 443.25,-330 443.25,-336 443.25,-336 443.25,-348 443.25,-348 443.25,-354 437.25,-360 431.25,-360"/>
<text xml:space="preserve" text-anchor="middle" x="416.25" y="-338.5" font-family="Arial" font-size="10.00" fill="#1a1a1a">nodes</text>
</g>
<!-- attr_3 -->
<g id="node9" class="node">
<title>attr_3</title>
<path fill="#c7b8e6" stroke="#7f8c8d" stroke-width="1.2" d="M670.75,-360C670.75,-360 555.75,-360 555.75,-360 549.75,-360 543.75,-354 543.75,-348 543.75,-348 543.75,-336 543.75,-336 543.75,-330 549.75,-324 555.75,-324 555.75,-324 670.75,-324 670.75,-324 676.75,-324 682.75,-330 682.75,-336 682.75,-336 682.75,-348 682.75,-348 682.75,-354 676.75,-360 670.75,-360"/>
<text xml:space="preserve" text-anchor="middle" x="613.25" y="-338.5" font-family="Arial" font-size="10.00" fill="#1a1a1a">(+) abstract unfamiliar forms</text>
</g>
<!-- unknown.nodes&#45;&gt;attr_3 -->
<g id="edge4" class="edge">
<title>unknown.nodes&#45;&gt;attr_3</title>
<path fill="none" stroke="#aaaaaa" d="M443.96,-342C467.51,-342 503.04,-342 535.39,-342"/>
<polygon fill="#aaaaaa" stroke="#aaaaaa" points="535.02,-344.45 542.02,-342 535.02,-339.55 535.02,-344.45"/>
</g>
<!-- unknown.edges -->
<g id="node3" class="node">
<title>unknown.edges</title>
<path fill="#b8e6b8" stroke="#2c3e50" stroke-width="1.8" d="M61.25,-392C61.25,-392 31.25,-392 31.25,-392 25.25,-392 19.25,-386 19.25,-380 19.25,-380 19.25,-368 19.25,-368 19.25,-362 25.25,-356 31.25,-356 31.25,-356 61.25,-356 61.25,-356 67.25,-356 73.25,-362 73.25,-368 73.25,-368 73.25,-380 73.25,-380 73.25,-386 67.25,-392 61.25,-392"/>
<text xml:space="preserve" text-anchor="middle" x="46.25" y="-370.5" font-family="Arial" font-size="10.00" fill="#1a1a1a">edges</text>
</g>
<!-- attr_4 -->
<g id="node10" class="node">
<title>attr_4</title>
<path fill="#c7b8e6" stroke="#7f8c8d" stroke-width="1.2" d="M272.25,-425C272.25,-425 152,-425 152,-425 146,-425 140,-419 140,-413 140,-413 140,-401 140,-401 140,-395 146,-389 152,-389 152,-389 272.25,-389 272.25,-389 278.25,-389 284.25,-395 284.25,-401 284.25,-401 284.25,-413 284.25,-413 284.25,-419 278.25,-425 272.25,-425"/>
<text xml:space="preserve" text-anchor="middle" x="212.12" y="-403.5" font-family="Arial" font-size="10.00" fill="#1a1a1a">(+) unclear relational meaning</text>
</g>
<!-- unknown.edges&#45;&gt;attr_4 -->
<g id="edge5" class="edge">
<title>unknown.edges&#45;&gt;attr_4</title>
<path fill="none" stroke="#aaaaaa" d="M73.94,-379.38C89.72,-382.55 110.6,-386.76 131.31,-390.93"/>
<polygon fill="#aaaaaa" stroke="#aaaaaa" points="130.7,-393.3 138.05,-392.28 131.67,-388.5 130.7,-393.3"/>
</g>
<!-- rel_2 -->
<g id="node15" class="node">
<title>rel_2</title>
<path fill="#f5b8b8" stroke="#d46a6a" stroke-width="1.2" d="M234.38,-360C234.38,-360 189.88,-360 189.88,-360 183.88,-360 177.88,-354 177.88,-348 177.88,-348 177.88,-336 177.88,-336 177.88,-330 183.88,-324 189.88,-324 189.88,-324 234.38,-324 234.38,-324 240.38,-324 246.38,-330 246.38,-336 246.38,-336 246.38,-348 246.38,-348 246.38,-354 240.38,-360 234.38,-360"/>
<text xml:space="preserve" text-anchor="middle" x="212.12" y="-338.5" font-family="Arial" font-size="10.00" fill="#8b0000">overwhelms</text>
</g>
<!-- unknown.edges&#45;&gt;rel_2 -->
<g id="edge12" class="edge">
<title>unknown.edges&#45;&gt;rel_2</title>
<path fill="none" stroke="#d46a6a" stroke-width="1.5" d="M73.94,-368.79C99.29,-363.84 137.82,-356.31 167.61,-350.5"/>
<polygon fill="#d46a6a" stroke="#d46a6a" stroke-width="1.5" points="167.8,-353.31 175.11,-349.03 166.72,-347.82 167.8,-353.31"/>
</g>
<!-- unknown.labels -->
<g id="node4" class="node">
<title>unknown.labels</title>
<path fill="#b8e6b8" stroke="#2c3e50" stroke-width="1.8" d="M767.75,-67C767.75,-67 737.75,-67 737.75,-67 731.75,-67 725.75,-61 725.75,-55 725.75,-55 725.75,-43 725.75,-43 725.75,-37 731.75,-31 737.75,-31 737.75,-31 767.75,-31 767.75,-31 773.75,-31 779.75,-37 779.75,-43 779.75,-43 779.75,-55 779.75,-55 779.75,-61 773.75,-67 767.75,-67"/>
<text xml:space="preserve" text-anchor="middle" x="752.75" y="-45.5" font-family="Arial" font-size="10.00" fill="#1a1a1a">labels</text>
</g>
<!-- attr_5 -->
<g id="node11" class="node">
<title>attr_5</title>
<path fill="#c7b8e6" stroke="#7f8c8d" stroke-width="1.2" d="M930.25,-67C930.25,-67 834.75,-67 834.75,-67 828.75,-67 822.75,-61 822.75,-55 822.75,-55 822.75,-43 822.75,-43 822.75,-37 828.75,-31 834.75,-31 834.75,-31 930.25,-31 930.25,-31 936.25,-31 942.25,-37 942.25,-43 942.25,-43 942.25,-55 942.25,-55 942.25,-61 936.25,-67 930.25,-67"/>
<text xml:space="preserve" text-anchor="middle" x="882.5" y="-45.5" font-family="Arial" font-size="10.00" fill="#1a1a1a">(+) insufficient guidance</text>
</g>
<!-- unknown.labels&#45;&gt;attr_5 -->
<g id="edge6" class="edge">
<title>unknown.labels&#45;&gt;attr_5</title>
<path fill="none" stroke="#aaaaaa" d="M780.53,-49C790.46,-49 802.22,-49 814.13,-49"/>
<polygon fill="#aaaaaa" stroke="#aaaaaa" points="813.88,-51.45 820.88,-49 813.88,-46.55 813.88,-51.45"/>
</g>
<!-- unknown.visual_encoding -->
<g id="node5" class="node">
<title>unknown.visual_encoding</title>
<path fill="#b8e6b8" stroke="#2c3e50" stroke-width="1.8" d="M446,-101C446,-101 386.5,-101 386.5,-101 380.5,-101 374.5,-95 374.5,-89 374.5,-89 374.5,-77 374.5,-77 374.5,-71 380.5,-65 386.5,-65 386.5,-65 446,-65 446,-65 452,-65 458,-71 458,-77 458,-77 458,-89 458,-89 458,-95 452,-101 446,-101"/>
<text xml:space="preserve" text-anchor="middle" x="416.25" y="-79.5" font-family="Arial" font-size="10.00" fill="#1a1a1a">visual encoding</text>
</g>
<!-- attr_2 -->
<g id="node12" class="node">
<title>attr_2</title>
<path fill="#c7b8e6" stroke="#7f8c8d" stroke-width="1.2" d="M660.25,-163C660.25,-163 566.25,-163 566.25,-163 560.25,-163 554.25,-157 554.25,-151 554.25,-151 554.25,-139 554.25,-139 554.25,-133 560.25,-127 566.25,-127 566.25,-127 660.25,-127 660.25,-127 666.25,-127 672.25,-133 672.25,-139 672.25,-139 672.25,-151 672.25,-151 672.25,-157 666.25,-163 660.25,-163"/>
<text xml:space="preserve" text-anchor="middle" x="613.25" y="-141.5" font-family="Arial" font-size="10.00" fill="#1a1a1a">(+) no intuitive meaning</text>
</g>
<!-- unknown.visual_encoding&#45;&gt;attr_2 -->
<g id="edge7" class="edge">
<title>unknown.visual_encoding&#45;&gt;attr_2</title>
<path fill="none" stroke="#aaaaaa" d="M458.6,-96.15C483.95,-104.21 516.97,-114.71 545.9,-123.9"/>
<polygon fill="#aaaaaa" stroke="#aaaaaa" points="545.09,-126.22 552.5,-126 546.57,-121.55 545.09,-126.22"/>
</g>
<!-- rel_1 -->
<g id="node14" class="node">
<title>rel_1</title>
<path fill="#f5b8b8" stroke="#d46a6a" stroke-width="1.2" d="M629.12,-98C629.12,-98 597.38,-98 597.38,-98 591.38,-98 585.38,-92 585.38,-86 585.38,-86 585.38,-74 585.38,-74 585.38,-68 591.38,-62 597.38,-62 597.38,-62 629.12,-62 629.12,-62 635.12,-62 641.12,-68 641.12,-74 641.12,-74 641.12,-86 641.12,-86 641.12,-92 635.12,-98 629.12,-98"/>
<text xml:space="preserve" text-anchor="middle" x="613.25" y="-76.5" font-family="Arial" font-size="10.00" fill="#8b0000">obscures</text>
</g>
<!-- unknown.visual_encoding&#45;&gt;rel_1 -->
<g id="edge10" class="edge">
<title>unknown.visual_encoding&#45;&gt;rel_1</title>
<path fill="none" stroke="#d46a6a" stroke-width="1.5" d="M458.6,-82.36C493,-81.83 541.55,-81.09 574.81,-80.58"/>
<polygon fill="#d46a6a" stroke="#d46a6a" stroke-width="1.5" points="574.81,-83.38 582.77,-80.45 574.73,-77.78 574.81,-83.38"/>
</g>
<!-- rel_0&#45;&gt;unknown.visual_encoding -->
<g id="edge9" class="edge">
<title>rel_0&#45;&gt;unknown.visual_encoding</title>
<path fill="none" stroke="#d46a6a" stroke-width="1.5" d="M266.23,-82.26C296.26,-82.41 333.64,-82.6 363.45,-82.74"/>
<polygon fill="#d46a6a" stroke="#d46a6a" stroke-width="1.5" points="363.37,-85.54 371.39,-82.78 363.4,-79.94 363.37,-85.54"/>
</g>
<!-- rel_1&#45;&gt;unknown.labels -->
<g id="edge11" class="edge">
<title>rel_1&#45;&gt;unknown.labels</title>
<path fill="none" stroke="#d46a6a" stroke-width="1.5" d="M641.42,-73.88C662.55,-69.11 692.08,-62.45 715.28,-57.22"/>
<polygon fill="#d46a6a" stroke="#d46a6a" stroke-width="1.5" points="715.71,-60 722.89,-55.51 714.47,-54.53 715.71,-60"/>
</g>
<!-- rel_2&#45;&gt;unknown.nodes -->
<g id="edge13" class="edge">
<title>rel_2&#45;&gt;unknown.nodes</title>
<path fill="none" stroke="#d46a6a" stroke-width="1.5" d="M246.96,-342C283.32,-342 340.94,-342 378.42,-342"/>
<polygon fill="#d46a6a" stroke="#d46a6a" stroke-width="1.5" points="378.16,-344.8 386.16,-342 378.16,-339.2 378.16,-344.8"/>
</g>
<!-- rel_3&#45;&gt;unknown.labels -->
<g id="edge15" class="edge">
<title>rel_3&#45;&gt;unknown.labels</title>
<path fill="none" stroke="#d46a6a" stroke-width="1.5" d="M501.23,-25.78C570.03,-32.16 664.07,-40.87 715.13,-45.61"/>
<polygon fill="#d46a6a" stroke="#d46a6a" stroke-width="1.5" points="714.56,-48.37 722.78,-46.32 715.08,-42.79 714.56,-48.37"/>
</g>
</g>
</svg>
