<?xml version="1.0" encoding="UTF-8" standalone="no"?>
<!DOCTYPE svg PUBLIC "-//W3C//DTD SVG 1.1//EN"
 "http://www.w3.org/Graphics/SVG/1.1/DTD/svg11.dtd">
<!-- Generated by graphviz version 14.1.5 (20260411.2331)
 -->
<!-- Title: vis673.png Pages: 1 -->
<svg width="882pt" height="369pt"
 viewBox="0.00 0.00 882.00 369.00" xmlns="http://www.w3.org/2000/svg" xmlns:xlink="http://www.w3.org/1999/xlink">
<g id="graph0" class="graph" transform="scale(1 1) rotate(0) translate(4 365.25)">
<title>vis673.png</title>
<polygon fill="white" stroke="none" points="-4,4 -4,-365.25 877.75,-365.25 877.75,4 -4,4"/>
<text xml:space="preserve" text-anchor="start" x="402" y="-340.95" font-family="Arial" font-weight="bold" font-size="14.00">vis673.png</text>
<text xml:space="preserve" text-anchor="start" x="381.75" y="-321" font-family="Arial" font-size="11.00">Node&#45;link &#160;| &#160;VC = 0.79</text>
<path fill="#b8e6b8" stroke="none" d="M227.5,-296C227.5,-296 235.5,-296 235.5,-296 238.5,-296 241.5,-299 241.5,-302 241.5,-302 241.5,-308 241.5,-308 241.5,-311 238.5,-314 235.5,-314 235.5,-314 227.5,-314 227.5,-314 224.5,-314 221.5,-311 221.5,-308 221.5,-308 221.5,-302 221.5,-302 221.5,-299 224.5,-296 227.5,-296"/>
<path fill="none" stroke="black" d="M227.5,-296C227.5,-296 235.5,-296 235.5,-296 238.5,-296 241.5,-299 241.5,-302 241.5,-302 241.5,-308 241.5,-308 241.5,-311 238.5,-314 235.5,-314 235.5,-314 227.5,-314 227.5,-314 224.5,-314 221.5,-311 221.5,-308 221.5,-308 221.5,-302 221.5,-302 221.5,-299 224.5,-296 227.5,-296"/>
<text xml:space="preserve" text-anchor="start" x="230" y="-301.25" font-family="Arial" font-size="10.00"> </text>
<text xml:space="preserve" text-anchor="start" x="245.5" y="-301.25" font-family="Arial" font-size="10.00">Object</text>
<path fill="#c7b8e6" stroke="none" d="M284,-296C284,-296 292,-296 292,-296 295,-296 298,-299 298,-302 298,-302 298,-308 298,-308 298,-311 295,-314 292,-314 292,-314 284,-314 284,-314 281,-314 278,-311 278,-308 278,-308 278,-302 278,-302 278,-299 281,-296 284,-296"/>
<path fill="none" stroke="black" d="M284,-296C284,-296 292,-296 292,-296 295,-296 298,-299 298,-302 298,-302 298,-308 298,-308 298,-311 295,-314 292,-314 292,-314 284,-314 284,-314 281,-314 278,-311 278,-308 278,-308 278,-302 278,-302 278,-299 281,-296 284,-296"/>
<text xml:space="preserve" text-anchor="start" x="286.5" y="-301.25" font-family="Arial" font-size="10.00"> </text>
<text xml:space="preserve" text-anchor="start" x="302" y="-301.25" font-family="Arial" font-size="10.00">Attribute</text>
<path fill="#f5b8b8" stroke="none" d="M348.75,-296C348.75,-296 356.75,-296 356.75,-296 359.75,-296 362.75,-299 362.75,-302 362.75,-302 362.75,-308 362.75,-308 362.75,-311 359.75,-314 356.75,-314 356.75,-314 348.75,-314 348.75,-314 345.75,-314 342.75,-311 342.75,-308 342.75,-308 342.75,-302 342.75,-302 342.75,-299 345.75,-296 348.75,-296"/>
<path fill="none" stroke="black" d="M348.75,-296C348.75,-296 356.75,-296 356.75,-296 359.75,-296 362.75,-299 362.75,-302 362.75,-302 362.75,-308 362.75,-308 362.75,-311 359.75,-314 356.75,-314 356.75,-314 348.75,-314 348.75,-314 345.75,-314 342.75,-311 342.75,-308 342.75,-308 342.75,-302 342.75,-302 342.75,-299 345.75,-296 348.75,-296"/>
<text xml:space="preserve" text-anchor="start" x="351.25" y="-301.25" font-family="Arial" font-size="10.00"> </text>
<text xml:space="preserve" text-anchor="start" x="366.75" y="-301.25" font-family="Arial" font-size="10.00">Relationship</text>
<text xml:space="preserve" text-anchor="start" x="426.75" y="-302.5" font-family="Arial" font-weight="bold" font-size="10.00">(+)</text>
<text xml:space="preserve" text-anchor="start" x="438.75" y="-302.5" font-family="Arial" font-size="10.00"> increases complexity</text>
<text xml:space="preserve" text-anchor="start" x="540" y="-302.5" font-family="Arial" font-weight="bold" font-size="10.00">(−)</text>
<text xml:space="preserve" text-anchor="start" x="552" y="-302.5" font-family="Arial" font-size="10.00"> decreases complexity</text>
<!-- mark.node -->
<g id="node1" class="node">
<title>mark.node</title>
<path fill="#b8e6b8" stroke="#2c3e50" stroke-width="1.8" d="M42,-69C42,-69 12,-69 12,-69 6,-69 0,-63 0,-57 0,-57 0,-45 0,-45 0,-39 6,-33 12,-33 12,-33 42,-33 42,-33 48,-33 54,-39 54,-45 54,-45 54,-57 54,-57 54,-63 48,-69 42,-69"/>
<text xml:space="preserve" text-anchor="middle" x="27" y="-47.5" font-family="Arial" font-size="10.00" fill="#1a1a1a">node</text>
</g>
<!-- attr_0 -->
<g id="node6" class="node">
<title>attr_0</title>
<path fill="#c7b8e6" stroke="#7f8c8d" stroke-width="1.2" d="M225.88,-101C225.88,-101 117.62,-101 117.62,-101 111.62,-101 105.62,-95 105.62,-89 105.62,-89 105.62,-77 105.62,-77 105.62,-71 111.62,-65 117.62,-65 117.62,-65 225.88,-65 225.88,-65 231.88,-65 237.88,-71 237.88,-77 237.88,-77 237.88,-89 237.88,-89 237.88,-95 231.88,-101 225.88,-101"/>
<text xml:space="preserve" text-anchor="middle" x="171.75" y="-79.5" font-family="Arial" font-size="10.00" fill="#1a1a1a">(+) numerous dense nodes</text>
</g>
<!-- mark.node&#45;&gt;attr_0 -->
<g id="edge1" class="edge">
<title>mark.node&#45;&gt;attr_0</title>
<path fill="none" stroke="#aaaaaa" d="M54.85,-57.02C67.02,-59.75 82.07,-63.12 97.25,-66.52"/>
<polygon fill="#aaaaaa" stroke="#aaaaaa" points="96.34,-68.83 103.71,-67.97 97.42,-64.05 96.34,-68.83"/>
</g>
<!-- rel_2 -->
<g id="node13" class="node">
<title>rel_2</title>
<path fill="#f5b8b8" stroke="#d46a6a" stroke-width="1.2" d="M194,-36C194,-36 149.5,-36 149.5,-36 143.5,-36 137.5,-30 137.5,-24 137.5,-24 137.5,-12 137.5,-12 137.5,-6 143.5,0 149.5,0 149.5,0 194,0 194,0 200,0 206,-6 206,-12 206,-12 206,-24 206,-24 206,-30 200,-36 194,-36"/>
<text xml:space="preserve" text-anchor="middle" x="171.75" y="-14.5" font-family="Arial" font-size="10.00" fill="#8b0000">overwhelms</text>
</g>
<!-- mark.node&#45;&gt;rel_2 -->
<g id="edge10" class="edge">
<title>mark.node&#45;&gt;rel_2</title>
<path fill="none" stroke="#d46a6a" stroke-width="1.5" d="M54.85,-44.79C75.2,-40.09 103.6,-33.52 127.19,-28.07"/>
<polygon fill="#d46a6a" stroke="#d46a6a" stroke-width="1.5" points="127.59,-30.85 134.75,-26.32 126.33,-25.4 127.59,-30.85"/>
</g>
<!-- unknown.edge -->
<g id="node2" class="node">
<title>unknown.edge</title>
<path fill="#b8e6b8" stroke="#2c3e50" stroke-width="1.8" d="M42,-225C42,-225 12,-225 12,-225 6,-225 0,-219 0,-213 0,-213 0,-201 0,-201 0,-195 6,-189 12,-189 12,-189 42,-189 42,-189 48,-189 54,-195 54,-201 54,-201 54,-213 54,-213 54,-219 48,-225 42,-225"/>
<text xml:space="preserve" text-anchor="middle" x="27" y="-203.5" font-family="Arial" font-size="10.00" fill="#1a1a1a">edge</text>
</g>
<!-- attr_1 -->
<g id="node7" class="node">
<title>attr_1</title>
<path fill="#c7b8e6" stroke="#7f8c8d" stroke-width="1.2" d="M234.5,-290C234.5,-290 109,-290 109,-290 103,-290 97,-284 97,-278 97,-278 97,-266 97,-266 97,-260 103,-254 109,-254 109,-254 234.5,-254 234.5,-254 240.5,-254 246.5,-260 246.5,-266 246.5,-266 246.5,-278 246.5,-278 246.5,-284 240.5,-290 234.5,-290"/>
<text xml:space="preserve" text-anchor="middle" x="171.75" y="-268.5" font-family="Arial" font-size="10.00" fill="#1a1a1a">(+) overlapping crossing edges</text>
</g>
<!-- unknown.edge&#45;&gt;attr_1 -->
<g id="edge2" class="edge">
<title>unknown.edge&#45;&gt;attr_1</title>
<path fill="none" stroke="#aaaaaa" d="M54.76,-220.08C67.5,-226.24 82.98,-233.61 97,-240 104.33,-243.34 112.11,-246.81 119.76,-250.17"/>
<polygon fill="#aaaaaa" stroke="#aaaaaa" points="118.56,-252.32 125.96,-252.88 120.53,-247.83 118.56,-252.32"/>
</g>
<!-- rel_0 -->
<g id="node11" class="node">
<title>rel_0</title>
<path fill="#f5b8b8" stroke="#d46a6a" stroke-width="1.2" d="M186.75,-225C186.75,-225 156.75,-225 156.75,-225 150.75,-225 144.75,-219 144.75,-213 144.75,-213 144.75,-201 144.75,-201 144.75,-195 150.75,-189 156.75,-189 156.75,-189 186.75,-189 186.75,-189 192.75,-189 198.75,-195 198.75,-201 198.75,-201 198.75,-213 198.75,-213 198.75,-219 192.75,-225 186.75,-225"/>
<text xml:space="preserve" text-anchor="middle" x="171.75" y="-203.5" font-family="Arial" font-size="10.00" fill="#8b0000">clutters</text>
</g>
<!-- unknown.edge&#45;&gt;rel_0 -->
<g id="edge6" class="edge">
<title>unknown.edge&#45;&gt;rel_0</title>
<path fill="none" stroke="#d46a6a" stroke-width="1.5" d="M54.85,-207C77.32,-207 109.6,-207 134.39,-207"/>
<polygon fill="#d46a6a" stroke="#d46a6a" stroke-width="1.5" points="134.23,-209.8 142.23,-207 134.23,-204.2 134.23,-209.8"/>
</g>
<!-- structure.layout -->
<g id="node3" class="node">
<title>structure.layout</title>
<path fill="#b8e6b8" stroke="#2c3e50" stroke-width="1.8" d="M331.5,-225C331.5,-225 301.5,-225 301.5,-225 295.5,-225 289.5,-219 289.5,-213 289.5,-213 289.5,-201 289.5,-201 289.5,-195 295.5,-189 301.5,-189 301.5,-189 331.5,-189 331.5,-189 337.5,-189 343.5,-195 343.5,-201 343.5,-201 343.5,-213 343.5,-213 343.5,-219 337.5,-225 331.5,-225"/>
<text xml:space="preserve" text-anchor="middle" x="316.5" y="-203.5" font-family="Arial" font-size="10.00" fill="#1a1a1a">layout</text>
</g>
<!-- attr_2 -->
<g id="node8" class="node">
<title>attr_2</title>
<path fill="#c7b8e6" stroke="#7f8c8d" stroke-width="1.2" d="M505.62,-290C505.62,-290 407.88,-290 407.88,-290 401.88,-290 395.88,-284 395.88,-278 395.88,-278 395.88,-266 395.88,-266 395.88,-260 401.88,-254 407.88,-254 407.88,-254 505.62,-254 505.62,-254 511.62,-254 517.62,-260 517.62,-266 517.62,-266 517.62,-278 517.62,-278 517.62,-284 511.62,-290 505.62,-290"/>
<text xml:space="preserve" text-anchor="middle" x="456.75" y="-268.5" font-family="Arial" font-size="10.00" fill="#1a1a1a">(−) intuitive familiar form</text>
</g>
<!-- structure.layout&#45;&gt;attr_2 -->
<g id="edge3" class="edge">
<title>structure.layout&#45;&gt;attr_2</title>
<path fill="none" stroke="#aaaaaa" d="M344.33,-219.93C357.09,-226.06 372.56,-233.45 386.5,-240 393.37,-243.23 400.63,-246.61 407.76,-249.92"/>
<polygon fill="#aaaaaa" stroke="#aaaaaa" points="406.67,-252.12 414.05,-252.84 408.73,-247.67 406.67,-252.12"/>
</g>
<!-- rel_1 -->
<g id="node12" class="node">
<title>rel_1</title>
<path fill="#f5b8b8" stroke="#d46a6a" stroke-width="1.2" d="M515,-225C515,-225 398.5,-225 398.5,-225 392.5,-225 386.5,-219 386.5,-213 386.5,-213 386.5,-201 386.5,-201 386.5,-195 392.5,-189 398.5,-189 398.5,-189 515,-189 515,-189 521,-189 527,-195 527,-201 527,-201 527,-213 527,-213 527,-219 521,-225 515,-225"/>
<text xml:space="preserve" text-anchor="middle" x="456.75" y="-203.5" font-family="Arial" font-size="10.00" fill="#8b0000">reduces interpretive difficulty</text>
</g>
<!-- structure.layout&#45;&gt;rel_1 -->
<g id="edge8" class="edge">
<title>structure.layout&#45;&gt;rel_1</title>
<path fill="none" stroke="#d46a6a" stroke-width="1.5" d="M344.16,-207C353.5,-207 364.54,-207 375.97,-207"/>
<polygon fill="#d46a6a" stroke="#d46a6a" stroke-width="1.5" points="375.82,-209.8 383.82,-207 375.82,-204.2 375.82,-209.8"/>
</g>
<!-- text.label -->
<g id="node4" class="node">
<title>text.label</title>
<path fill="#b8e6b8" stroke="#2c3e50" stroke-width="1.8" d="M331.5,-36C331.5,-36 301.5,-36 301.5,-36 295.5,-36 289.5,-30 289.5,-24 289.5,-24 289.5,-12 289.5,-12 289.5,-6 295.5,0 301.5,0 301.5,0 331.5,0 331.5,0 337.5,0 343.5,-6 343.5,-12 343.5,-12 343.5,-24 343.5,-24 343.5,-30 337.5,-36 331.5,-36"/>
<text xml:space="preserve" text-anchor="middle" x="316.5" y="-14.5" font-family="Arial" font-size="10.00" fill="#1a1a1a">label</text>
</g>
<!-- attr_3 -->
<g id="node9" class="node">
<title>attr_3</title>
<path fill="#c7b8e6" stroke="#7f8c8d" stroke-width="1.2" d="M507.88,-36C507.88,-36 405.62,-36 405.62,-36 399.62,-36 393.62,-30 393.62,-24 393.62,-24 393.62,-12 393.62,-12 393.62,-6 399.62,0 405.62,0 405.62,0 507.88,0 507.88,0 513.88,0 519.88,-6 519.88,-12 519.88,-12 519.88,-24 519.88,-24 519.88,-30 513.88,-36 507.88,-36"/>
<text xml:space="preserve" text-anchor="middle" x="456.75" y="-14.5" font-family="Arial" font-size="10.00" fill="#1a1a1a">(+) sparse label coverage</text>
</g>
<!-- text.label&#45;&gt;attr_3 -->
<g id="edge4" class="edge">
<title>text.label&#45;&gt;attr_3</title>
<path fill="none" stroke="#aaaaaa" d="M344.16,-18C355.83,-18 370.15,-18 384.58,-18"/>
<polygon fill="#aaaaaa" stroke="#aaaaaa" points="384.56,-20.45 391.56,-18 384.56,-15.55 384.56,-20.45"/>
</g>
<!-- unknown.network_structure -->
<g id="node5" class="node">
<title>unknown.network_structure</title>
<path fill="#b8e6b8" stroke="#2c3e50" stroke-width="1.8" d="M649.75,-225C649.75,-225 582,-225 582,-225 576,-225 570,-219 570,-213 570,-213 570,-201 570,-201 570,-195 576,-189 582,-189 582,-189 649.75,-189 649.75,-189 655.75,-189 661.75,-195 661.75,-201 661.75,-201 661.75,-213 661.75,-213 661.75,-219 655.75,-225 649.75,-225"/>
<text xml:space="preserve" text-anchor="middle" x="615.88" y="-203.5" font-family="Arial" font-size="10.00" fill="#1a1a1a">network structure</text>
</g>
<!-- attr_4 -->
<g id="node10" class="node">
<title>attr_4</title>
<path fill="#c7b8e6" stroke="#7f8c8d" stroke-width="1.2" d="M861.75,-228C861.75,-228 716.75,-228 716.75,-228 710.75,-228 704.75,-222 704.75,-216 704.75,-216 704.75,-204 704.75,-204 704.75,-198 710.75,-192 716.75,-192 716.75,-192 861.75,-192 861.75,-192 867.75,-192 873.75,-198 873.75,-204 873.75,-204 873.75,-216 873.75,-216 873.75,-222 867.75,-228 861.75,-228"/>
<text xml:space="preserve" text-anchor="middle" x="789.25" y="-206.5" font-family="Arial" font-size="10.00" fill="#1a1a1a">(+) complex interconnected topolog</text>
</g>
<!-- unknown.network_structure&#45;&gt;attr_4 -->
<g id="edge5" class="edge">
<title>unknown.network_structure&#45;&gt;attr_4</title>
<path fill="none" stroke="#aaaaaa" d="M662.35,-207.8C672.8,-207.98 684.29,-208.18 695.94,-208.38"/>
<polygon fill="#aaaaaa" stroke="#aaaaaa" points="695.88,-210.83 702.92,-208.51 695.97,-205.93 695.88,-210.83"/>
</g>
<!-- rel_3 -->
<g id="node14" class="node">
<title>rel_3</title>
<path fill="#f5b8b8" stroke="#d46a6a" stroke-width="1.2" d="M832.88,-163C832.88,-163 745.62,-163 745.62,-163 739.62,-163 733.62,-157 733.62,-151 733.62,-151 733.62,-139 733.62,-139 733.62,-133 739.62,-127 745.62,-127 745.62,-127 832.88,-127 832.88,-127 838.88,-127 844.88,-133 844.88,-139 844.88,-139 844.88,-151 844.88,-151 844.88,-157 838.88,-163 832.88,-163"/>
<text xml:space="preserve" text-anchor="middle" x="789.25" y="-141.5" font-family="Arial" font-size="10.00" fill="#8b0000">requires effort to trace</text>
</g>
<!-- unknown.network_structure&#45;&gt;rel_3 -->
<g id="edge12" class="edge">
<title>unknown.network_structure&#45;&gt;rel_3</title>
<path fill="none" stroke="#d46a6a" stroke-width="1.5" d="M662.35,-190.55C682.39,-183.3 706.23,-174.67 727.74,-166.89"/>
<polygon fill="#d46a6a" stroke="#d46a6a" stroke-width="1.5" points="728.41,-169.63 734.98,-164.27 726.5,-164.36 728.41,-169.63"/>
</g>
<!-- rel_0&#45;&gt;structure.layout -->
<g id="edge7" class="edge">
<title>rel_0&#45;&gt;structure.layout</title>
<path fill="none" stroke="#d46a6a" stroke-width="1.5" d="M199.27,-207C221.56,-207 253.67,-207 278.5,-207"/>
<polygon fill="#d46a6a" stroke="#d46a6a" stroke-width="1.5" points="278.37,-209.8 286.37,-207 278.37,-204.2 278.37,-209.8"/>
</g>
<!-- rel_1&#45;&gt;unknown.network_structure -->
<g id="edge9" class="edge">
<title>rel_1&#45;&gt;unknown.network_structure</title>
<path fill="none" stroke="#d46a6a" stroke-width="1.5" d="M527.58,-207C538.16,-207 548.94,-207 559.16,-207"/>
<polygon fill="#d46a6a" stroke="#d46a6a" stroke-width="1.5" points="558.9,-209.8 566.9,-207 558.9,-204.2 558.9,-209.8"/>
</g>
<!-- rel_2&#45;&gt;text.label -->
<g id="edge11" class="edge">
<title>rel_2&#45;&gt;text.label</title>
<path fill="none" stroke="#d46a6a" stroke-width="1.5" d="M206.58,-18C228.36,-18 256.66,-18 278.95,-18"/>
<polygon fill="#d46a6a" stroke="#d46a6a" stroke-width="1.5" points="278.77,-20.8 286.77,-18 278.77,-15.2 278.77,-20.8"/>
</g>
<!-- rel_3&#45;&gt;unknown.edge -->
<g id="edge13" class="edge">
<title>rel_3&#45;&gt;unknown.edge</title>
<path fill="none" stroke="#d46a6a" stroke-width="1.5" d="M733.28,-145C667.69,-145 554.72,-145 457.75,-145 315.5,-145 315.5,-145 315.5,-145 217.48,-145 191.06,-147.41 97,-175 85.94,-178.24 74.4,-183 64,-187.85"/>
<polygon fill="#d46a6a" stroke="#d46a6a" stroke-width="1.5" points="62.83,-185.3 56.85,-191.31 65.27,-190.34 62.83,-185.3"/>
</g>
</g>
</svg>
