<?xml version="1.0" encoding="UTF-8" standalone="no"?>
<!DOCTYPE svg PUBLIC "-//W3C//DTD SVG 1.1//EN"
 "http://www.w3.org/Graphics/SVG/1.1/DTD/svg11.dtd">
<!-- Generated by graphviz version 14.1.5 (20260411.2331)
 -->
<!-- Title: vis737.png Pages: 1 -->
<svg width="823pt" height="440pt"
 viewBox="0.00 0.00 823.00 440.00" xmlns="http://www.w3.org/2000/svg" xmlns:xlink="http://www.w3.org/1999/xlink">
<g id="graph0" class="graph" transform="scale(1 1) rotate(0) translate(4 436.25)">
<title>vis737.png</title>
<polygon fill="white" stroke="none" points="-4,4 -4,-436.25 819.25,-436.25 819.25,4 -4,4"/>
<text xml:space="preserve" text-anchor="start" x="372.75" y="-411.95" font-family="Arial" font-weight="bold" font-size="14.00">vis737.png</text>
<text xml:space="preserve" text-anchor="start" x="352.5" y="-392" font-family="Arial" font-size="11.00">Node&#45;link &#160;| &#160;VC = 0.71</text>
<path fill="#b8e6b8" stroke="none" d="M198.25,-367C198.25,-367 206.25,-367 206.25,-367 209.25,-367 212.25,-370 212.25,-373 212.25,-373 212.25,-379 212.25,-379 212.25,-382 209.25,-385 206.25,-385 206.25,-385 198.25,-385 198.25,-385 195.25,-385 192.25,-382 192.25,-379 192.25,-379 192.25,-373 192.25,-373 192.25,-370 195.25,-367 198.25,-367"/>
<path fill="none" stroke="black" d="M198.25,-367C198.25,-367 206.25,-367 206.25,-367 209.25,-367 212.25,-370 212.25,-373 212.25,-373 212.25,-379 212.25,-379 212.25,-382 209.25,-385 206.25,-385 206.25,-385 198.25,-385 198.25,-385 195.25,-385 192.25,-382 192.25,-379 192.25,-379 192.25,-373 192.25,-373 192.25,-370 195.25,-367 198.25,-367"/>
<text xml:space="preserve" text-anchor="start" x="200.75" y="-372.25" font-family="Arial" font-size="10.00"> </text>
<text xml:space="preserve" text-anchor="start" x="216.25" y="-372.25" font-family="Arial" font-size="10.00">Object</text>
<path fill="#c7b8e6" stroke="none" d="M254.75,-367C254.75,-367 262.75,-367 262.75,-367 265.75,-367 268.75,-370 268.75,-373 268.75,-373 268.75,-379 268.75,-379 268.75,-382 265.75,-385 262.75,-385 262.75,-385 254.75,-385 254.75,-385 251.75,-385 248.75,-382 248.75,-379 248.75,-379 248.75,-373 248.75,-373 248.75,-370 251.75,-367 254.75,-367"/>
<path fill="none" stroke="black" d="M254.75,-367C254.75,-367 262.75,-367 262.75,-367 265.75,-367 268.75,-370 268.75,-373 268.75,-373 268.75,-379 268.75,-379 268.75,-382 265.75,-385 262.75,-385 262.75,-385 254.75,-385 254.75,-385 251.75,-385 248.75,-382 248.75,-379 248.75,-379 248.75,-373 248.75,-373 248.75,-370 251.75,-367 254.75,-367"/>
<text xml:space="preserve" text-anchor="start" x="257.25" y="-372.25" font-family="Arial" font-size="10.00"> </text>
<text xml:space="preserve" text-anchor="start" x="272.75" y="-372.25" font-family="Arial" font-size="10.00">Attribute</text>
<path fill="#f5b8b8" stroke="none" d="M319.5,-367C319.5,-367 327.5,-367 327.5,-367 330.5,-367 333.5,-370 333.5,-373 333.5,-373 333.5,-379 333.5,-379 333.5,-382 330.5,-385 327.5,-385 327.5,-385 319.5,-385 319.5,-385 316.5,-385 313.5,-382 313.5,-379 313.5,-379 313.5,-373 313.5,-373 313.5,-370 316.5,-367 319.5,-367"/>
<path fill="none" stroke="black" d="M319.5,-367C319.5,-367 327.5,-367 327.5,-367 330.5,-367 333.5,-370 333.5,-373 333.5,-373 333.5,-379 333.5,-379 333.5,-382 330.5,-385 327.5,-385 327.5,-385 319.5,-385 319.5,-385 316.5,-385 313.5,-382 313.5,-379 313.5,-379 313.5,-373 313.5,-373 313.5,-370 316.5,-367 319.5,-367"/>
<text xml:space="preserve" text-anchor="start" x="322" y="-372.25" font-family="Arial" font-size="10.00"> </text>
<text xml:space="preserve" text-anchor="start" x="337.5" y="-372.25" font-family="Arial" font-size="10.00">Relationship</text>
<text xml:space="preserve" text-anchor="start" x="397.5" y="-373.5" font-family="Arial" font-weight="bold" font-size="10.00">(+)</text>
<text xml:space="preserve" text-anchor="start" x="409.5" y="-373.5" font-family="Arial" font-size="10.00"> increases complexity</text>
<text xml:space="preserve" text-anchor="start" x="510.75" y="-373.5" font-family="Arial" font-weight="bold" font-size="10.00">(−)</text>
<text xml:space="preserve" text-anchor="start" x="522.75" y="-373.5" font-family="Arial" font-size="10.00"> decreases complexity</text>
<!-- property.color -->
<g id="node1" class="node">
<title>property.color</title>
<path fill="#b8e6b8" stroke="#2c3e50" stroke-width="1.8" d="M315.12,-101C315.12,-101 285.12,-101 285.12,-101 279.12,-101 273.12,-95 273.12,-89 273.12,-89 273.12,-77 273.12,-77 273.12,-71 279.12,-65 285.12,-65 285.12,-65 315.12,-65 315.12,-65 321.12,-65 327.12,-71 327.12,-77 327.12,-77 327.12,-89 327.12,-89 327.12,-95 321.12,-101 315.12,-101"/>
<text xml:space="preserve" text-anchor="middle" x="300.12" y="-79.5" font-family="Arial" font-size="10.00" fill="#1a1a1a">color</text>
</g>
<!-- attr_0 -->
<g id="node6" class="node">
<title>attr_0</title>
<path fill="#c7b8e6" stroke="#7f8c8d" stroke-width="1.2" d="M518.25,-166C518.25,-166 383.75,-166 383.75,-166 377.75,-166 371.75,-160 371.75,-154 371.75,-154 371.75,-142 371.75,-142 371.75,-136 377.75,-130 383.75,-130 383.75,-130 518.25,-130 518.25,-130 524.25,-130 530.25,-136 530.25,-142 530.25,-142 530.25,-154 530.25,-154 530.25,-160 524.25,-166 518.25,-166"/>
<text xml:space="preserve" text-anchor="middle" x="451" y="-144.5" font-family="Arial" font-size="10.00" fill="#1a1a1a">(+) similar indistinguishable shad</text>
</g>
<!-- property.color&#45;&gt;attr_0 -->
<g id="edge1" class="edge">
<title>property.color&#45;&gt;attr_0</title>
<path fill="none" stroke="#aaaaaa" d="M327.81,-95.85C340.97,-102.08 357.12,-109.6 371.75,-116 379.49,-119.39 387.71,-122.87 395.8,-126.24"/>
<polygon fill="#aaaaaa" stroke="#aaaaaa" points="394.7,-128.43 402.1,-128.84 396.57,-123.9 394.7,-128.43"/>
</g>
<!-- attr_1 -->
<g id="node7" class="node">
<title>attr_1</title>
<path fill="#c7b8e6" stroke="#7f8c8d" stroke-width="1.2" d="M496.12,-101C496.12,-101 405.88,-101 405.88,-101 399.88,-101 393.88,-95 393.88,-89 393.88,-89 393.88,-77 393.88,-77 393.88,-71 399.88,-65 405.88,-65 405.88,-65 496.12,-65 496.12,-65 502.12,-65 508.12,-71 508.12,-77 508.12,-77 508.12,-89 508.12,-89 508.12,-95 502.12,-101 496.12,-101"/>
<text xml:space="preserve" text-anchor="middle" x="451" y="-79.5" font-family="Arial" font-size="10.00" fill="#1a1a1a">(+) hard to differentiate</text>
</g>
<!-- property.color&#45;&gt;attr_1 -->
<g id="edge2" class="edge">
<title>property.color&#45;&gt;attr_1</title>
<path fill="none" stroke="#aaaaaa" d="M327.74,-83C343.77,-83 364.92,-83 385.12,-83"/>
<polygon fill="#aaaaaa" stroke="#aaaaaa" points="384.88,-85.45 391.88,-83 384.88,-80.55 384.88,-85.45"/>
</g>
<!-- rel_0 -->
<g id="node12" class="node">
<title>rel_0</title>
<path fill="#f5b8b8" stroke="#d46a6a" stroke-width="1.2" d="M466.88,-36C466.88,-36 435.12,-36 435.12,-36 429.12,-36 423.12,-30 423.12,-24 423.12,-24 423.12,-12 423.12,-12 423.12,-6 429.12,0 435.12,0 435.12,0 466.88,0 466.88,0 472.88,0 478.88,-6 478.88,-12 478.88,-12 478.88,-24 478.88,-24 478.88,-30 472.88,-36 466.88,-36"/>
<text xml:space="preserve" text-anchor="middle" x="451" y="-14.5" font-family="Arial" font-size="10.00" fill="#8b0000">obscures</text>
</g>
<!-- property.color&#45;&gt;rel_0 -->
<g id="edge7" class="edge">
<title>property.color&#45;&gt;rel_0</title>
<path fill="none" stroke="#d46a6a" stroke-width="1.5" d="M327.81,-70.15C340.97,-63.92 357.12,-56.4 371.75,-50 385.27,-44.08 400.25,-37.87 413.45,-32.52"/>
<polygon fill="#d46a6a" stroke="#d46a6a" stroke-width="1.5" points="414.23,-35.22 420.6,-29.63 412.13,-30.03 414.23,-35.22"/>
</g>
<!-- text.axis_label -->
<g id="node2" class="node">
<title>text.axis_label</title>
<path fill="#b8e6b8" stroke="#2c3e50" stroke-width="1.8" d="M316.75,-296C316.75,-296 283.5,-296 283.5,-296 277.5,-296 271.5,-290 271.5,-284 271.5,-284 271.5,-272 271.5,-272 271.5,-266 277.5,-260 283.5,-260 283.5,-260 316.75,-260 316.75,-260 322.75,-260 328.75,-266 328.75,-272 328.75,-272 328.75,-284 328.75,-284 328.75,-290 322.75,-296 316.75,-296"/>
<text xml:space="preserve" text-anchor="middle" x="300.12" y="-274.5" font-family="Arial" font-size="10.00" fill="#1a1a1a">axis label</text>
</g>
<!-- attr_2 -->
<g id="node8" class="node">
<title>attr_2</title>
<path fill="#c7b8e6" stroke="#7f8c8d" stroke-width="1.2" d="M493.88,-361C493.88,-361 408.12,-361 408.12,-361 402.12,-361 396.12,-355 396.12,-349 396.12,-349 396.12,-337 396.12,-337 396.12,-331 402.12,-325 408.12,-325 408.12,-325 493.88,-325 493.88,-325 499.88,-325 505.88,-331 505.88,-337 505.88,-337 505.88,-349 505.88,-349 505.88,-355 499.88,-361 493.88,-361"/>
<text xml:space="preserve" text-anchor="middle" x="451" y="-339.5" font-family="Arial" font-size="10.00" fill="#1a1a1a">(+) absent axis labels</text>
</g>
<!-- text.axis_label&#45;&gt;attr_2 -->
<g id="edge3" class="edge">
<title>text.axis_label&#45;&gt;attr_2</title>
<path fill="none" stroke="#aaaaaa" d="M329.5,-291.65C342.34,-297.72 357.74,-304.87 371.75,-311 379.49,-314.39 387.71,-317.87 395.8,-321.24"/>
<polygon fill="#aaaaaa" stroke="#aaaaaa" points="394.7,-323.43 402.1,-323.84 396.57,-318.9 394.7,-323.43"/>
</g>
<!-- rel_1 -->
<g id="node13" class="node">
<title>rel_1</title>
<path fill="#f5b8b8" stroke="#d46a6a" stroke-width="1.2" d="M483.38,-231C483.38,-231 418.62,-231 418.62,-231 412.62,-231 406.62,-225 406.62,-219 406.62,-219 406.62,-207 406.62,-207 406.62,-201 412.62,-195 418.62,-195 418.62,-195 483.38,-195 483.38,-195 489.38,-195 495.38,-201 495.38,-207 495.38,-207 495.38,-219 495.38,-219 495.38,-225 489.38,-231 483.38,-231"/>
<text xml:space="preserve" text-anchor="middle" x="451" y="-209.5" font-family="Arial" font-size="10.00" fill="#8b0000">lacks context for</text>
</g>
<!-- text.axis_label&#45;&gt;rel_1 -->
<g id="edge9" class="edge">
<title>text.axis_label&#45;&gt;rel_1</title>
<path fill="none" stroke="#d46a6a" stroke-width="1.5" d="M329.57,-264.91C342.42,-259.04 357.81,-252.09 371.75,-246 379.8,-242.48 388.34,-238.81 396.71,-235.25"/>
<polygon fill="#d46a6a" stroke="#d46a6a" stroke-width="1.5" points="397.68,-237.88 403.95,-232.18 395.49,-232.73 397.68,-237.88"/>
</g>
<!-- rel_3 -->
<g id="node15" class="node">
<title>rel_3</title>
<path fill="#f5b8b8" stroke="#d46a6a" stroke-width="1.2" d="M487.5,-296C487.5,-296 414.5,-296 414.5,-296 408.5,-296 402.5,-290 402.5,-284 402.5,-284 402.5,-272 402.5,-272 402.5,-266 408.5,-260 414.5,-260 414.5,-260 487.5,-260 487.5,-260 493.5,-260 499.5,-266 499.5,-272 499.5,-272 499.5,-284 499.5,-284 499.5,-290 493.5,-296 487.5,-296"/>
<text xml:space="preserve" text-anchor="middle" x="451" y="-274.5" font-family="Arial" font-size="10.00" fill="#8b0000">increases effort for</text>
</g>
<!-- text.axis_label&#45;&gt;rel_3 -->
<g id="edge13" class="edge">
<title>text.axis_label&#45;&gt;rel_3</title>
<path fill="none" stroke="#d46a6a" stroke-width="1.5" d="M329.48,-278C347.18,-278 370.6,-278 392.09,-278"/>
<polygon fill="#d46a6a" stroke="#d46a6a" stroke-width="1.5" points="391.86,-280.8 399.86,-278 391.86,-275.2 391.86,-280.8"/>
</g>
<!-- mark.node -->
<g id="node3" class="node">
<title>mark.node</title>
<path fill="#b8e6b8" stroke="#2c3e50" stroke-width="1.8" d="M615.25,-134C615.25,-134 585.25,-134 585.25,-134 579.25,-134 573.25,-128 573.25,-122 573.25,-122 573.25,-110 573.25,-110 573.25,-104 579.25,-98 585.25,-98 585.25,-98 615.25,-98 615.25,-98 621.25,-98 627.25,-104 627.25,-110 627.25,-110 627.25,-122 627.25,-122 627.25,-128 621.25,-134 615.25,-134"/>
<text xml:space="preserve" text-anchor="middle" x="600.25" y="-112.5" font-family="Arial" font-size="10.00" fill="#1a1a1a">node</text>
</g>
<!-- attr_4 -->
<g id="node9" class="node">
<title>attr_4</title>
<path fill="#c7b8e6" stroke="#7f8c8d" stroke-width="1.2" d="M803.25,-134C803.25,-134 682.25,-134 682.25,-134 676.25,-134 670.25,-128 670.25,-122 670.25,-122 670.25,-110 670.25,-110 670.25,-104 676.25,-98 682.25,-98 682.25,-98 803.25,-98 803.25,-98 809.25,-98 815.25,-104 815.25,-110 815.25,-110 815.25,-122 815.25,-122 815.25,-128 809.25,-134 803.25,-134"/>
<text xml:space="preserve" text-anchor="middle" x="742.75" y="-112.5" font-family="Arial" font-size="10.00" fill="#1a1a1a">(+) unclear semantic meaning</text>
</g>
<!-- mark.node&#45;&gt;attr_4 -->
<g id="edge4" class="edge">
<title>mark.node&#45;&gt;attr_4</title>
<path fill="none" stroke="#aaaaaa" d="M628.01,-116C637.78,-116 649.39,-116 661.41,-116"/>
<polygon fill="#aaaaaa" stroke="#aaaaaa" points="661.27,-118.45 668.27,-116 661.27,-113.55 661.27,-118.45"/>
</g>
<!-- furniture.legend -->
<g id="node4" class="node">
<title>furniture.legend</title>
<path fill="#b8e6b8" stroke="#2c3e50" stroke-width="1.8" d="M42,-133C42,-133 12,-133 12,-133 6,-133 0,-127 0,-121 0,-121 0,-109 0,-109 0,-103 6,-97 12,-97 12,-97 42,-97 42,-97 48,-97 54,-103 54,-109 54,-109 54,-121 54,-121 54,-127 48,-133 42,-133"/>
<text xml:space="preserve" text-anchor="middle" x="27" y="-111.5" font-family="Arial" font-size="10.00" fill="#1a1a1a">legend</text>
</g>
<!-- attr_3 -->
<g id="node10" class="node">
<title>attr_3</title>
<path fill="#c7b8e6" stroke="#7f8c8d" stroke-width="1.2" d="M216.5,-166C216.5,-166 109,-166 109,-166 103,-166 97,-160 97,-154 97,-154 97,-142 97,-142 97,-136 103,-130 109,-130 109,-130 216.5,-130 216.5,-130 222.5,-130 228.5,-136 228.5,-142 228.5,-142 228.5,-154 228.5,-154 228.5,-160 222.5,-166 216.5,-166"/>
<text xml:space="preserve" text-anchor="middle" x="162.75" y="-144.5" font-family="Arial" font-size="10.00" fill="#1a1a1a">(+) missing legend context</text>
</g>
<!-- furniture.legend&#45;&gt;attr_3 -->
<g id="edge5" class="edge">
<title>furniture.legend&#45;&gt;attr_3</title>
<path fill="none" stroke="#aaaaaa" d="M54.74,-121.6C64.69,-124.05 76.51,-126.97 88.61,-129.95"/>
<polygon fill="#aaaaaa" stroke="#aaaaaa" points="87.73,-132.26 95.11,-131.56 88.9,-127.5 87.73,-132.26"/>
</g>
<!-- rel_2 -->
<g id="node14" class="node">
<title>rel_2</title>
<path fill="#f5b8b8" stroke="#d46a6a" stroke-width="1.2" d="M188,-101C188,-101 137.5,-101 137.5,-101 131.5,-101 125.5,-95 125.5,-89 125.5,-89 125.5,-77 125.5,-77 125.5,-71 131.5,-65 137.5,-65 137.5,-65 188,-65 188,-65 194,-65 200,-71 200,-77 200,-77 200,-89 200,-89 200,-95 194,-101 188,-101"/>
<text xml:space="preserve" text-anchor="middle" x="162.75" y="-79.5" font-family="Arial" font-size="10.00" fill="#8b0000">fails to clarify</text>
</g>
<!-- furniture.legend&#45;&gt;rel_2 -->
<g id="edge11" class="edge">
<title>furniture.legend&#45;&gt;rel_2</title>
<path fill="none" stroke="#d46a6a" stroke-width="1.5" d="M54.74,-108.6C71.96,-104.48 94.81,-99.02 114.97,-94.19"/>
<polygon fill="#d46a6a" stroke="#d46a6a" stroke-width="1.5" points="115.58,-96.92 122.71,-92.34 114.28,-91.48 115.58,-96.92"/>
</g>
<!-- structure.link -->
<g id="node5" class="node">
<title>structure.link</title>
<path fill="#b8e6b8" stroke="#2c3e50" stroke-width="1.8" d="M615.25,-296C615.25,-296 585.25,-296 585.25,-296 579.25,-296 573.25,-290 573.25,-284 573.25,-284 573.25,-272 573.25,-272 573.25,-266 579.25,-260 585.25,-260 585.25,-260 615.25,-260 615.25,-260 621.25,-260 627.25,-266 627.25,-272 627.25,-272 627.25,-284 627.25,-284 627.25,-290 621.25,-296 615.25,-296"/>
<text xml:space="preserve" text-anchor="middle" x="600.25" y="-274.5" font-family="Arial" font-size="10.00" fill="#1a1a1a">link</text>
</g>
<!-- attr_5 -->
<g id="node11" class="node">
<title>attr_5</title>
<path fill="#c7b8e6" stroke="#7f8c8d" stroke-width="1.2" d="M790.88,-296C790.88,-296 694.62,-296 694.62,-296 688.62,-296 682.62,-290 682.62,-284 682.62,-284 682.62,-272 682.62,-272 682.62,-266 688.62,-260 694.62,-260 694.62,-260 790.88,-260 790.88,-260 796.88,-260 802.88,-266 802.88,-272 802.88,-272 802.88,-284 802.88,-284 802.88,-290 796.88,-296 790.88,-296"/>
<text xml:space="preserve" text-anchor="middle" x="742.75" y="-274.5" font-family="Arial" font-size="10.00" fill="#1a1a1a">(+) ambiguous encoding</text>
</g>
<!-- structure.link&#45;&gt;attr_5 -->
<g id="edge6" class="edge">
<title>structure.link&#45;&gt;attr_5</title>
<path fill="none" stroke="#aaaaaa" d="M628.01,-278C641.09,-278 657.5,-278 673.74,-278"/>
<polygon fill="#aaaaaa" stroke="#aaaaaa" points="673.69,-280.45 680.69,-278 673.69,-275.55 673.69,-280.45"/>
</g>
<!-- rel_0&#45;&gt;mark.node -->
<g id="edge8" class="edge">
<title>rel_0&#45;&gt;mark.node</title>
<path fill="none" stroke="#d46a6a" stroke-width="1.5" d="M479.31,-26.33C494.93,-31.77 514.49,-39.77 530.25,-50 547.22,-61.01 563.69,-76.53 576.28,-89.75"/>
<polygon fill="#d46a6a" stroke="#d46a6a" stroke-width="1.5" points="574.18,-91.6 581.68,-95.55 578.28,-87.78 574.18,-91.6"/>
</g>
<!-- rel_1&#45;&gt;mark.node -->
<g id="edge10" class="edge">
<title>rel_1&#45;&gt;mark.node</title>
<path fill="none" stroke="#d46a6a" stroke-width="1.5" d="M495.65,-198.45C507.32,-193.68 519.64,-187.83 530.25,-181 547.02,-170.2 563.38,-155.06 575.96,-142.1"/>
<polygon fill="#d46a6a" stroke="#d46a6a" stroke-width="1.5" points="577.87,-144.16 581.34,-136.43 573.8,-140.31 577.87,-144.16"/>
</g>
<!-- rel_2&#45;&gt;property.color -->
<g id="edge12" class="edge">
<title>rel_2&#45;&gt;property.color</title>
<path fill="none" stroke="#d46a6a" stroke-width="1.5" d="M200.38,-83C219.54,-83 242.94,-83 262.15,-83"/>
<polygon fill="#d46a6a" stroke="#d46a6a" stroke-width="1.5" points="262.07,-85.8 270.07,-83 262.07,-80.2 262.07,-85.8"/>
</g>
<!-- rel_3&#45;&gt;structure.link -->
<g id="edge14" class="edge">
<title>rel_3&#45;&gt;structure.link</title>
<path fill="none" stroke="#d46a6a" stroke-width="1.5" d="M499.81,-278C520.21,-278 543.65,-278 562.64,-278"/>
<polygon fill="#d46a6a" stroke="#d46a6a" stroke-width="1.5" points="562.42,-280.8 570.42,-278 562.42,-275.2 562.42,-280.8"/>
</g>
</g>
</svg>
