<?xml version="1.0" encoding="UTF-8" standalone="no"?>
<!DOCTYPE svg PUBLIC "-//W3C//DTD SVG 1.1//EN"
 "http://www.w3.org/Graphics/SVG/1.1/DTD/svg11.dtd">
<!-- Generated by graphviz version 14.1.5 (20260411.2331)
 -->
<!-- Title: vis853.png Pages: 1 -->
<svg width="812pt" height="440pt"
 viewBox="0.00 0.00 812.00 440.00" xmlns="http://www.w3.org/2000/svg" xmlns:xlink="http://www.w3.org/1999/xlink">
<g id="graph0" class="graph" transform="scale(1 1) rotate(0) translate(4 436.25)">
<title>vis853.png</title>
<polygon fill="white" stroke="none" points="-4,4 -4,-436.25 807.75,-436.25 807.75,4 -4,4"/>
<text xml:space="preserve" text-anchor="start" x="367" y="-411.95" font-family="Arial" font-weight="bold" font-size="14.00">vis853.png</text>
<text xml:space="preserve" text-anchor="start" x="358" y="-392" font-family="Arial" font-size="11.00">Area &#160;| &#160;VC = 0.71</text>
<path fill="#b8e6b8" stroke="none" d="M192.5,-367C192.5,-367 200.5,-367 200.5,-367 203.5,-367 206.5,-370 206.5,-373 206.5,-373 206.5,-379 206.5,-379 206.5,-382 203.5,-385 200.5,-385 200.5,-385 192.5,-385 192.5,-385 189.5,-385 186.5,-382 186.5,-379 186.5,-379 186.5,-373 186.5,-373 186.5,-370 189.5,-367 192.5,-367"/>
<path fill="none" stroke="black" d="M192.5,-367C192.5,-367 200.5,-367 200.5,-367 203.5,-367 206.5,-370 206.5,-373 206.5,-373 206.5,-379 206.5,-379 206.5,-382 203.5,-385 200.5,-385 200.5,-385 192.5,-385 192.5,-385 189.5,-385 186.5,-382 186.5,-379 186.5,-379 186.5,-373 186.5,-373 186.5,-370 189.5,-367 192.5,-367"/>
<text xml:space="preserve" text-anchor="start" x="195" y="-372.25" font-family="Arial" font-size="10.00"> </text>
<text xml:space="preserve" text-anchor="start" x="210.5" y="-372.25" font-family="Arial" font-size="10.00">Object</text>
<path fill="#c7b8e6" stroke="none" d="M249,-367C249,-367 257,-367 257,-367 260,-367 263,-370 263,-373 263,-373 263,-379 263,-379 263,-382 260,-385 257,-385 257,-385 249,-385 249,-385 246,-385 243,-382 243,-379 243,-379 243,-373 243,-373 243,-370 246,-367 249,-367"/>
<path fill="none" stroke="black" d="M249,-367C249,-367 257,-367 257,-367 260,-367 263,-370 263,-373 263,-373 263,-379 263,-379 263,-382 260,-385 257,-385 257,-385 249,-385 249,-385 246,-385 243,-382 243,-379 243,-379 243,-373 243,-373 243,-370 246,-367 249,-367"/>
<text xml:space="preserve" text-anchor="start" x="251.5" y="-372.25" font-family="Arial" font-size="10.00"> </text>
<text xml:space="preserve" text-anchor="start" x="267" y="-372.25" font-family="Arial" font-size="10.00">Attribute</text>
<path fill="#f5b8b8" stroke="none" d="M313.75,-367C313.75,-367 321.75,-367 321.75,-367 324.75,-367 327.75,-370 327.75,-373 327.75,-373 327.75,-379 327.75,-379 327.75,-382 324.75,-385 321.75,-385 321.75,-385 313.75,-385 313.75,-385 310.75,-385 307.75,-382 307.75,-379 307.75,-379 307.75,-373 307.75,-373 307.75,-370 310.75,-367 313.75,-367"/>
<path fill="none" stroke="black" d="M313.75,-367C313.75,-367 321.75,-367 321.75,-367 324.75,-367 327.75,-370 327.75,-373 327.75,-373 327.75,-379 327.75,-379 327.75,-382 324.75,-385 321.75,-385 321.75,-385 313.75,-385 313.75,-385 310.75,-385 307.75,-382 307.75,-379 307.75,-379 307.75,-373 307.75,-373 307.75,-370 310.75,-367 313.75,-367"/>
<text xml:space="preserve" text-anchor="start" x="316.25" y="-372.25" font-family="Arial" font-size="10.00"> </text>
<text xml:space="preserve" text-anchor="start" x="331.75" y="-372.25" font-family="Arial" font-size="10.00">Relationship</text>
<text xml:space="preserve" text-anchor="start" x="391.75" y="-373.5" font-family="Arial" font-weight="bold" font-size="10.00">(+)</text>
<text xml:space="preserve" text-anchor="start" x="403.75" y="-373.5" font-family="Arial" font-size="10.00"> increases complexity</text>
<text xml:space="preserve" text-anchor="start" x="505" y="-373.5" font-family="Arial" font-weight="bold" font-size="10.00">(−)</text>
<text xml:space="preserve" text-anchor="start" x="517" y="-373.5" font-family="Arial" font-size="10.00"> decreases complexity</text>
<!-- property.color -->
<g id="node1" class="node">
<title>property.color</title>
<path fill="#b8e6b8" stroke="#2c3e50" stroke-width="1.8" d="M54.88,-328C54.88,-328 24.88,-328 24.88,-328 18.88,-328 12.88,-322 12.88,-316 12.88,-316 12.88,-304 12.88,-304 12.88,-298 18.88,-292 24.88,-292 24.88,-292 54.88,-292 54.88,-292 60.88,-292 66.88,-298 66.88,-304 66.88,-304 66.88,-316 66.88,-316 66.88,-322 60.88,-328 54.88,-328"/>
<text xml:space="preserve" text-anchor="middle" x="39.88" y="-306.5" font-family="Arial" font-size="10.00" fill="#1a1a1a">color</text>
</g>
<!-- attr_0 -->
<g id="node6" class="node">
<title>attr_0</title>
<path fill="#c7b8e6" stroke="#7f8c8d" stroke-width="1.2" d="M236.25,-361C236.25,-361 155,-361 155,-361 149,-361 143,-355 143,-349 143,-349 143,-337 143,-337 143,-331 149,-325 155,-325 155,-325 236.25,-325 236.25,-325 242.25,-325 248.25,-331 248.25,-337 248.25,-337 248.25,-349 248.25,-349 248.25,-355 242.25,-361 236.25,-361"/>
<text xml:space="preserve" text-anchor="middle" x="195.62" y="-339.5" font-family="Arial" font-size="10.00" fill="#1a1a1a">(+) unclear colormap</text>
</g>
<!-- property.color&#45;&gt;attr_0 -->
<g id="edge1" class="edge">
<title>property.color&#45;&gt;attr_0</title>
<path fill="none" stroke="#aaaaaa" d="M67.66,-315.75C86.13,-319.71 111.43,-325.14 134.59,-330.11"/>
<polygon fill="#aaaaaa" stroke="#aaaaaa" points="133.84,-332.46 141.2,-331.53 134.87,-327.67 133.84,-332.46"/>
</g>
<!-- rel_2 -->
<g id="node13" class="node">
<title>rel_2</title>
<path fill="#f5b8b8" stroke="#d46a6a" stroke-width="1.2" d="M240.38,-296C240.38,-296 150.88,-296 150.88,-296 144.88,-296 138.88,-290 138.88,-284 138.88,-284 138.88,-272 138.88,-272 138.88,-266 144.88,-260 150.88,-260 150.88,-260 240.38,-260 240.38,-260 246.38,-260 252.38,-266 252.38,-272 252.38,-272 252.38,-284 252.38,-284 252.38,-290 246.38,-296 240.38,-296"/>
<text xml:space="preserve" text-anchor="middle" x="195.62" y="-274.5" font-family="Arial" font-size="10.00" fill="#8b0000">increases ambiguity in</text>
</g>
<!-- property.color&#45;&gt;rel_2 -->
<g id="edge10" class="edge">
<title>property.color&#45;&gt;rel_2</title>
<path fill="none" stroke="#d46a6a" stroke-width="1.5" d="M67.66,-304.43C84.59,-300.9 107.27,-296.18 128.78,-291.7"/>
<polygon fill="#d46a6a" stroke="#d46a6a" stroke-width="1.5" points="129.07,-294.5 136.33,-290.13 127.93,-289.02 129.07,-294.5"/>
</g>
<!-- unknown.text_label -->
<g id="node2" class="node">
<title>unknown.text_label</title>
<path fill="#b8e6b8" stroke="#2c3e50" stroke-width="1.8" d="M55.75,-199C55.75,-199 24,-199 24,-199 18,-199 12,-193 12,-187 12,-187 12,-175 12,-175 12,-169 18,-163 24,-163 24,-163 55.75,-163 55.75,-163 61.75,-163 67.75,-169 67.75,-175 67.75,-175 67.75,-187 67.75,-187 67.75,-193 61.75,-199 55.75,-199"/>
<text xml:space="preserve" text-anchor="middle" x="39.88" y="-177.5" font-family="Arial" font-size="10.00" fill="#1a1a1a">text label</text>
</g>
<!-- attr_1 -->
<g id="node7" class="node">
<title>attr_1</title>
<path fill="#c7b8e6" stroke="#7f8c8d" stroke-width="1.2" d="M241.88,-231C241.88,-231 149.38,-231 149.38,-231 143.38,-231 137.38,-225 137.38,-219 137.38,-219 137.38,-207 137.38,-207 137.38,-201 143.38,-195 149.38,-195 149.38,-195 241.88,-195 241.88,-195 247.88,-195 253.88,-201 253.88,-207 253.88,-207 253.88,-219 253.88,-219 253.88,-225 247.88,-231 241.88,-231"/>
<text xml:space="preserve" text-anchor="middle" x="195.62" y="-209.5" font-family="Arial" font-size="10.00" fill="#1a1a1a">(+) very small font size</text>
</g>
<!-- unknown.text_label&#45;&gt;attr_1 -->
<g id="edge2" class="edge">
<title>unknown.text_label&#45;&gt;attr_1</title>
<path fill="none" stroke="#aaaaaa" d="M68.36,-186.72C85.21,-190.23 107.55,-194.88 128.75,-199.29"/>
<polygon fill="#aaaaaa" stroke="#aaaaaa" points="127.97,-201.63 135.32,-200.66 128.97,-196.83 127.97,-201.63"/>
</g>
<!-- rel_0 -->
<g id="node11" class="node">
<title>rel_0</title>
<path fill="#f5b8b8" stroke="#d46a6a" stroke-width="1.2" d="M226.88,-166C226.88,-166 164.38,-166 164.38,-166 158.38,-166 152.38,-160 152.38,-154 152.38,-154 152.38,-142 152.38,-142 152.38,-136 158.38,-130 164.38,-130 164.38,-130 226.88,-130 226.88,-130 232.88,-130 238.88,-136 238.88,-142 238.88,-142 238.88,-154 238.88,-154 238.88,-160 232.88,-166 226.88,-166"/>
<text xml:space="preserve" text-anchor="middle" x="195.62" y="-144.5" font-family="Arial" font-size="10.00" fill="#8b0000">harder to read in</text>
</g>
<!-- unknown.text_label&#45;&gt;rel_0 -->
<g id="edge6" class="edge">
<title>unknown.text_label&#45;&gt;rel_0</title>
<path fill="none" stroke="#d46a6a" stroke-width="1.5" d="M68.36,-175.1C88.78,-170.72 117.27,-164.6 142.01,-159.29"/>
<polygon fill="#d46a6a" stroke="#d46a6a" stroke-width="1.5" points="142.55,-162.04 149.78,-157.63 141.37,-156.57 142.55,-162.04"/>
</g>
<!-- unknown.image_element -->
<g id="node3" class="node">
<title>unknown.image_element</title>
<path fill="#b8e6b8" stroke="#2c3e50" stroke-width="1.8" d="M67.75,-69C67.75,-69 12,-69 12,-69 6,-69 0,-63 0,-57 0,-57 0,-45 0,-45 0,-39 6,-33 12,-33 12,-33 67.75,-33 67.75,-33 73.75,-33 79.75,-39 79.75,-45 79.75,-45 79.75,-57 79.75,-57 79.75,-63 73.75,-69 67.75,-69"/>
<text xml:space="preserve" text-anchor="middle" x="39.88" y="-47.5" font-family="Arial" font-size="10.00" fill="#1a1a1a">image element</text>
</g>
<!-- attr_2 -->
<g id="node8" class="node">
<title>attr_2</title>
<path fill="#c7b8e6" stroke="#7f8c8d" stroke-width="1.2" d="M256.5,-101C256.5,-101 134.75,-101 134.75,-101 128.75,-101 122.75,-95 122.75,-89 122.75,-89 122.75,-77 122.75,-77 122.75,-71 128.75,-65 134.75,-65 134.75,-65 256.5,-65 256.5,-65 262.5,-65 268.5,-71 268.5,-77 268.5,-77 268.5,-89 268.5,-89 268.5,-95 262.5,-101 256.5,-101"/>
<text xml:space="preserve" text-anchor="middle" x="195.62" y="-79.5" font-family="Arial" font-size="10.00" fill="#1a1a1a">(+) embedded images present</text>
</g>
<!-- unknown.image_element&#45;&gt;attr_2 -->
<g id="edge3" class="edge">
<title>unknown.image_element&#45;&gt;attr_2</title>
<path fill="none" stroke="#aaaaaa" d="M80.47,-59.24C90.88,-61.41 102.49,-63.82 114.22,-66.26"/>
<polygon fill="#aaaaaa" stroke="#aaaaaa" points="113.5,-68.62 120.85,-67.65 114.5,-63.82 113.5,-68.62"/>
</g>
<!-- rel_3 -->
<g id="node14" class="node">
<title>rel_3</title>
<path fill="#f5b8b8" stroke="#d46a6a" stroke-width="1.2" d="M232.88,-36C232.88,-36 158.38,-36 158.38,-36 152.38,-36 146.38,-30 146.38,-24 146.38,-24 146.38,-12 146.38,-12 146.38,-6 152.38,0 158.38,0 158.38,0 232.88,0 232.88,0 238.88,0 244.88,-6 244.88,-12 244.88,-12 244.88,-24 244.88,-24 244.88,-30 238.88,-36 232.88,-36"/>
<text xml:space="preserve" text-anchor="middle" x="195.62" y="-14.5" font-family="Arial" font-size="10.00" fill="#8b0000">adds complexity to</text>
</g>
<!-- unknown.image_element&#45;&gt;rel_3 -->
<g id="edge12" class="edge">
<title>unknown.image_element&#45;&gt;rel_3</title>
<path fill="none" stroke="#d46a6a" stroke-width="1.5" d="M80.47,-42.5C97.36,-38.88 117.43,-34.57 135.99,-30.59"/>
<polygon fill="#d46a6a" stroke="#d46a6a" stroke-width="1.5" points="136.37,-33.37 143.6,-28.95 135.19,-27.89 136.37,-33.37"/>
</g>
<!-- unknown.left_panel -->
<g id="node4" class="node">
<title>unknown.left_panel</title>
<path fill="#b8e6b8" stroke="#2c3e50" stroke-width="1.8" d="M355.25,-166C355.25,-166 323.5,-166 323.5,-166 317.5,-166 311.5,-160 311.5,-154 311.5,-154 311.5,-142 311.5,-142 311.5,-136 317.5,-130 323.5,-130 323.5,-130 355.25,-130 355.25,-130 361.25,-130 367.25,-136 367.25,-142 367.25,-142 367.25,-154 367.25,-154 367.25,-160 361.25,-166 355.25,-166"/>
<text xml:space="preserve" text-anchor="middle" x="339.38" y="-144.5" font-family="Arial" font-size="10.00" fill="#1a1a1a">left panel</text>
</g>
<!-- attr_3 -->
<g id="node9" class="node">
<title>attr_3</title>
<path fill="#c7b8e6" stroke="#7f8c8d" stroke-width="1.2" d="M530.5,-199C530.5,-199 422.25,-199 422.25,-199 416.25,-199 410.25,-193 410.25,-187 410.25,-187 410.25,-175 410.25,-175 410.25,-169 416.25,-163 422.25,-163 422.25,-163 530.5,-163 530.5,-163 536.5,-163 542.5,-169 542.5,-175 542.5,-175 542.5,-187 542.5,-187 542.5,-193 536.5,-199 530.5,-199"/>
<text xml:space="preserve" text-anchor="middle" x="476.38" y="-177.5" font-family="Arial" font-size="10.00" fill="#1a1a1a">(+) small text dense layout</text>
</g>
<!-- unknown.left_panel&#45;&gt;attr_3 -->
<g id="edge4" class="edge">
<title>unknown.left_panel&#45;&gt;attr_3</title>
<path fill="none" stroke="#aaaaaa" d="M368.02,-154.76C378.02,-157.2 389.83,-160.09 401.91,-163.04"/>
<polygon fill="#aaaaaa" stroke="#aaaaaa" points="401.01,-165.34 408.39,-164.63 402.17,-160.58 401.01,-165.34"/>
</g>
<!-- rel_1 -->
<g id="node12" class="node">
<title>rel_1</title>
<path fill="#f5b8b8" stroke="#d46a6a" stroke-width="1.2" d="M503.12,-134C503.12,-134 449.62,-134 449.62,-134 443.62,-134 437.62,-128 437.62,-122 437.62,-122 437.62,-110 437.62,-110 437.62,-104 443.62,-98 449.62,-98 449.62,-98 503.12,-98 503.12,-98 509.12,-98 515.12,-104 515.12,-110 515.12,-110 515.12,-122 515.12,-122 515.12,-128 509.12,-134 503.12,-134"/>
<text xml:space="preserve" text-anchor="middle" x="476.38" y="-112.5" font-family="Arial" font-size="10.00" fill="#8b0000">contrasts with</text>
</g>
<!-- unknown.left_panel&#45;&gt;rel_1 -->
<g id="edge8" class="edge">
<title>unknown.left_panel&#45;&gt;rel_1</title>
<path fill="none" stroke="#d46a6a" stroke-width="1.5" d="M368.02,-141.45C385.11,-137.4 407.52,-132.09 427.43,-127.36"/>
<polygon fill="#d46a6a" stroke="#d46a6a" stroke-width="1.5" points="427.93,-130.12 435.07,-125.55 426.64,-124.68 427.93,-130.12"/>
</g>
<!-- unknown.right_panel -->
<g id="node5" class="node">
<title>unknown.right_panel</title>
<path fill="#b8e6b8" stroke="#2c3e50" stroke-width="1.8" d="M634.5,-134C634.5,-134 597.5,-134 597.5,-134 591.5,-134 585.5,-128 585.5,-122 585.5,-122 585.5,-110 585.5,-110 585.5,-104 591.5,-98 597.5,-98 597.5,-98 634.5,-98 634.5,-98 640.5,-98 646.5,-104 646.5,-110 646.5,-110 646.5,-122 646.5,-122 646.5,-128 640.5,-134 634.5,-134"/>
<text xml:space="preserve" text-anchor="middle" x="616" y="-112.5" font-family="Arial" font-size="10.00" fill="#1a1a1a">right panel</text>
</g>
<!-- attr_4 -->
<g id="node10" class="node">
<title>attr_4</title>
<path fill="#c7b8e6" stroke="#7f8c8d" stroke-width="1.2" d="M791.75,-134C791.75,-134 701.5,-134 701.5,-134 695.5,-134 689.5,-128 689.5,-122 689.5,-122 689.5,-110 689.5,-110 689.5,-104 695.5,-98 701.5,-98 701.5,-98 791.75,-98 791.75,-98 797.75,-98 803.75,-104 803.75,-110 803.75,-110 803.75,-122 803.75,-122 803.75,-128 797.75,-134 791.75,-134"/>
<text xml:space="preserve" text-anchor="middle" x="746.62" y="-112.5" font-family="Arial" font-size="10.00" fill="#1a1a1a">(−) larger readable text</text>
</g>
<!-- unknown.right_panel&#45;&gt;attr_4 -->
<g id="edge5" class="edge">
<title>unknown.right_panel&#45;&gt;attr_4</title>
<path fill="none" stroke="#aaaaaa" d="M647.16,-116C657.25,-116 668.94,-116 680.65,-116"/>
<polygon fill="#aaaaaa" stroke="#aaaaaa" points="680.64,-118.45 687.64,-116 680.64,-113.55 680.64,-118.45"/>
</g>
<!-- rel_0&#45;&gt;unknown.left_panel -->
<g id="edge7" class="edge">
<title>rel_0&#45;&gt;unknown.left_panel</title>
<path fill="none" stroke="#d46a6a" stroke-width="1.5" d="M239.15,-148C258.7,-148 281.68,-148 300.6,-148"/>
<polygon fill="#d46a6a" stroke="#d46a6a" stroke-width="1.5" points="300.38,-150.8 308.38,-148 300.38,-145.2 300.38,-150.8"/>
</g>
<!-- rel_1&#45;&gt;unknown.right_panel -->
<g id="edge9" class="edge">
<title>rel_1&#45;&gt;unknown.right_panel</title>
<path fill="none" stroke="#d46a6a" stroke-width="1.5" d="M515.71,-116C534.01,-116 555.92,-116 574.5,-116"/>
<polygon fill="#d46a6a" stroke="#d46a6a" stroke-width="1.5" points="574.44,-118.8 582.44,-116 574.44,-113.2 574.44,-118.8"/>
</g>
<!-- rel_2&#45;&gt;unknown.left_panel -->
<g id="edge11" class="edge">
<title>rel_2&#45;&gt;unknown.left_panel</title>
<path fill="none" stroke="#d46a6a" stroke-width="1.5" d="M247.35,-259.57C254.83,-255.7 262.15,-251.19 268.5,-246 292.32,-226.53 311.85,-197.05 324.15,-175.5"/>
<polygon fill="#d46a6a" stroke="#d46a6a" stroke-width="1.5" points="326.6,-176.86 328.02,-168.51 321.7,-174.15 326.6,-176.86"/>
</g>
<!-- rel_3&#45;&gt;unknown.left_panel -->
<g id="edge13" class="edge">
<title>rel_3&#45;&gt;unknown.left_panel</title>
<path fill="none" stroke="#d46a6a" stroke-width="1.5" d="M245.44,-36.23C253.58,-40.41 261.61,-45.33 268.5,-51 291.95,-70.3 311.43,-99.23 323.81,-120.48"/>
<polygon fill="#d46a6a" stroke="#d46a6a" stroke-width="1.5" points="321.33,-121.79 327.71,-127.37 326.21,-119.03 321.33,-121.79"/>
</g>
</g>
</svg>
