<?xml version="1.0" encoding="UTF-8" standalone="no"?>
<!DOCTYPE svg PUBLIC "-//W3C//DTD SVG 1.1//EN"
 "http://www.w3.org/Graphics/SVG/1.1/DTD/svg11.dtd">
<!-- Generated by graphviz version 14.1.5 (20260411.2331)
 -->
<!-- Title: VisC.77.17.png Pages: 1 -->
<svg width="535pt" height="440pt"
 viewBox="0.00 0.00 535.00 440.00" xmlns="http://www.w3.org/2000/svg" xmlns:xlink="http://www.w3.org/1999/xlink">
<g id="graph0" class="graph" transform="scale(1 1) rotate(0) translate(4 436.25)">
<title>VisC.77.17.png</title>
<polygon fill="white" stroke="none" points="-4,4 -4,-436.25 531.25,-436.25 531.25,4 -4,4"/>
<text xml:space="preserve" text-anchor="start" x="215.62" y="-411.95" font-family="Arial" font-weight="bold" font-size="14.00">VisC.77.17.png</text>
<text xml:space="preserve" text-anchor="start" x="208.5" y="-392" font-family="Arial" font-size="11.00">Node&#45;link &#160;| &#160;VC = 0.51</text>
<path fill="#b8e6b8" stroke="none" d="M54.25,-367C54.25,-367 62.25,-367 62.25,-367 65.25,-367 68.25,-370 68.25,-373 68.25,-373 68.25,-379 68.25,-379 68.25,-382 65.25,-385 62.25,-385 62.25,-385 54.25,-385 54.25,-385 51.25,-385 48.25,-382 48.25,-379 48.25,-379 48.25,-373 48.25,-373 48.25,-370 51.25,-367 54.25,-367"/>
<path fill="none" stroke="black" d="M54.25,-367C54.25,-367 62.25,-367 62.25,-367 65.25,-367 68.25,-370 68.25,-373 68.25,-373 68.25,-379 68.25,-379 68.25,-382 65.25,-385 62.25,-385 62.25,-385 54.25,-385 54.25,-385 51.25,-385 48.25,-382 48.25,-379 48.25,-379 48.25,-373 48.25,-373 48.25,-370 51.25,-367 54.25,-367"/>
<text xml:space="preserve" text-anchor="start" x="56.75" y="-372.25" font-family="Arial" font-size="10.00"> </text>
<text xml:space="preserve" text-anchor="start" x="72.25" y="-372.25" font-family="Arial" font-size="10.00">Object</text>
<path fill="#c7b8e6" stroke="none" d="M110.75,-367C110.75,-367 118.75,-367 118.75,-367 121.75,-367 124.75,-370 124.75,-373 124.75,-373 124.75,-379 124.75,-379 124.75,-382 121.75,-385 118.75,-385 118.75,-385 110.75,-385 110.75,-385 107.75,-385 104.75,-382 104.75,-379 104.75,-379 104.75,-373 104.75,-373 104.75,-370 107.75,-367 110.75,-367"/>
<path fill="none" stroke="black" d="M110.75,-367C110.75,-367 118.75,-367 118.75,-367 121.75,-367 124.75,-370 124.75,-373 124.75,-373 124.75,-379 124.75,-379 124.75,-382 121.75,-385 118.75,-385 118.75,-385 110.75,-385 110.75,-385 107.75,-385 104.75,-382 104.75,-379 104.75,-379 104.75,-373 104.75,-373 104.75,-370 107.75,-367 110.75,-367"/>
<text xml:space="preserve" text-anchor="start" x="113.25" y="-372.25" font-family="Arial" font-size="10.00"> </text>
<text xml:space="preserve" text-anchor="start" x="128.75" y="-372.25" font-family="Arial" font-size="10.00">Attribute</text>
<path fill="#f5b8b8" stroke="none" d="M175.5,-367C175.5,-367 183.5,-367 183.5,-367 186.5,-367 189.5,-370 189.5,-373 189.5,-373 189.5,-379 189.5,-379 189.5,-382 186.5,-385 183.5,-385 183.5,-385 175.5,-385 175.5,-385 172.5,-385 169.5,-382 169.5,-379 169.5,-379 169.5,-373 169.5,-373 169.5,-370 172.5,-367 175.5,-367"/>
<path fill="none" stroke="black" d="M175.5,-367C175.5,-367 183.5,-367 183.5,-367 186.5,-367 189.5,-370 189.5,-373 189.5,-373 189.5,-379 189.5,-379 189.5,-382 186.5,-385 183.5,-385 183.5,-385 175.5,-385 175.5,-385 172.5,-385 169.5,-382 169.5,-379 169.5,-379 169.5,-373 169.5,-373 169.5,-370 172.5,-367 175.5,-367"/>
<text xml:space="preserve" text-anchor="start" x="178" y="-372.25" font-family="Arial" font-size="10.00"> </text>
<text xml:space="preserve" text-anchor="start" x="193.5" y="-372.25" font-family="Arial" font-size="10.00">Relationship</text>
<text xml:space="preserve" text-anchor="start" x="253.5" y="-373.5" font-family="Arial" font-weight="bold" font-size="10.00">(+)</text>
<text xml:space="preserve" text-anchor="start" x="265.5" y="-373.5" font-family="Arial" font-size="10.00"> increases complexity</text>
<text xml:space="preserve" text-anchor="start" x="366.75" y="-373.5" font-family="Arial" font-weight="bold" font-size="10.00">(−)</text>
<text xml:space="preserve" text-anchor="start" x="378.75" y="-373.5" font-family="Arial" font-size="10.00"> decreases complexity</text>
<!-- whole.visualization -->
<g id="node1" class="node">
<title>whole.visualization</title>
<path fill="#b8e6b8" stroke="#2c3e50" stroke-width="1.8" d="M45.5,-133C45.5,-133 15.5,-133 15.5,-133 9.5,-133 3.5,-127 3.5,-121 3.5,-121 3.5,-109 3.5,-109 3.5,-103 9.5,-97 15.5,-97 15.5,-97 45.5,-97 45.5,-97 51.5,-97 57.5,-103 57.5,-109 57.5,-109 57.5,-121 57.5,-121 57.5,-127 51.5,-133 45.5,-133"/>
<text xml:space="preserve" text-anchor="middle" x="30.5" y="-111.5" font-family="Arial" font-size="10.00" fill="#1a1a1a">graph</text>
</g>
<!-- attr_0 -->
<g id="node6" class="node">
<title>attr_0</title>
<path fill="#c7b8e6" stroke="#7f8c8d" stroke-width="1.2" d="M240.75,-231C240.75,-231 116,-231 116,-231 110,-231 104,-225 104,-219 104,-219 104,-207 104,-207 104,-201 110,-195 116,-195 116,-195 240.75,-195 240.75,-195 246.75,-195 252.75,-201 252.75,-207 252.75,-207 252.75,-219 252.75,-219 252.75,-225 246.75,-231 240.75,-231"/>
<text xml:space="preserve" text-anchor="middle" x="178.38" y="-209.5" font-family="Arial" font-size="10.00" fill="#1a1a1a">(+) three dimensional structure</text>
</g>
<!-- whole.visualization&#45;&gt;attr_0 -->
<g id="edge1" class="edge">
<title>whole.visualization&#45;&gt;attr_0</title>
<path fill="none" stroke="#aaaaaa" d="M49.27,-133.82C63.21,-147.82 83.6,-166.73 104,-180 109.89,-183.83 116.3,-187.43 122.8,-190.74"/>
<polygon fill="#aaaaaa" stroke="#aaaaaa" points="121.72,-192.94 129.08,-193.83 123.88,-188.54 121.72,-192.94"/>
</g>
<!-- attr_1 -->
<g id="node7" class="node">
<title>attr_1</title>
<path fill="#c7b8e6" stroke="#7f8c8d" stroke-width="1.2" d="M222,-166C222,-166 134.75,-166 134.75,-166 128.75,-166 122.75,-160 122.75,-154 122.75,-154 122.75,-142 122.75,-142 122.75,-136 128.75,-130 134.75,-130 134.75,-130 222,-130 222,-130 228,-130 234,-136 234,-142 234,-142 234,-154 234,-154 234,-160 228,-166 222,-166"/>
<text xml:space="preserve" text-anchor="middle" x="178.38" y="-144.5" font-family="Arial" font-size="10.00" fill="#1a1a1a">(+) difficult to interpret</text>
</g>
<!-- whole.visualization&#45;&gt;attr_1 -->
<g id="edge2" class="edge">
<title>whole.visualization&#45;&gt;attr_1</title>
<path fill="none" stroke="#aaaaaa" d="M58.26,-121.05C74.02,-124.62 94.66,-129.29 114.33,-133.74"/>
<polygon fill="#aaaaaa" stroke="#aaaaaa" points="113.54,-136.07 120.91,-135.23 114.63,-131.29 113.54,-136.07"/>
</g>
<!-- rel_0 -->
<g id="node11" class="node">
<title>rel_0</title>
<path fill="#f5b8b8" stroke="#d46a6a" stroke-width="1.2" d="M226.88,-101C226.88,-101 129.88,-101 129.88,-101 123.88,-101 117.88,-95 117.88,-89 117.88,-89 117.88,-77 117.88,-77 117.88,-71 123.88,-65 129.88,-65 129.88,-65 226.88,-65 226.88,-65 232.88,-65 238.88,-71 238.88,-77 238.88,-77 238.88,-89 238.88,-89 238.88,-95 232.88,-101 226.88,-101"/>
<text xml:space="preserve" text-anchor="middle" x="178.38" y="-79.5" font-family="Arial" font-size="10.00" fill="#8b0000">increases cognitive load</text>
</g>
<!-- whole.visualization&#45;&gt;rel_0 -->
<g id="edge6" class="edge">
<title>whole.visualization&#45;&gt;rel_0</title>
<path fill="none" stroke="#d46a6a" stroke-width="1.5" d="M58.26,-109.13C72.27,-106.06 90.16,-102.13 107.78,-98.27"/>
<polygon fill="#d46a6a" stroke="#d46a6a" stroke-width="1.5" points="108.09,-101.07 115.3,-96.62 106.89,-95.6 108.09,-101.07"/>
</g>
<!-- rel_2 -->
<g id="node13" class="node">
<title>rel_2</title>
<path fill="#f5b8b8" stroke="#d46a6a" stroke-width="1.2" d="M220.12,-36C220.12,-36 136.62,-36 136.62,-36 130.62,-36 124.62,-30 124.62,-24 124.62,-24 124.62,-12 124.62,-12 124.62,-6 130.62,0 136.62,0 136.62,0 220.12,0 220.12,0 226.12,0 232.12,-6 232.12,-12 232.12,-12 232.12,-24 232.12,-24 232.12,-30 226.12,-36 220.12,-36"/>
<text xml:space="preserve" text-anchor="middle" x="178.38" y="-14.5" font-family="Arial" font-size="10.00" fill="#8b0000">requires expertise for</text>
</g>
<!-- whole.visualization&#45;&gt;rel_2 -->
<g id="edge10" class="edge">
<title>whole.visualization&#45;&gt;rel_2</title>
<path fill="none" stroke="#d46a6a" stroke-width="1.5" d="M49.23,-96.12C63.14,-82.08 83.52,-63.16 104,-50 108.94,-46.82 114.26,-43.82 119.68,-41.03"/>
<polygon fill="#d46a6a" stroke="#d46a6a" stroke-width="1.5" points="120.88,-43.56 126.83,-37.52 118.41,-38.53 120.88,-43.56"/>
</g>
<!-- mark.node -->
<g id="node2" class="node">
<title>mark.node</title>
<path fill="#b8e6b8" stroke="#2c3e50" stroke-width="1.8" d="M337.75,-296C337.75,-296 307.75,-296 307.75,-296 301.75,-296 295.75,-290 295.75,-284 295.75,-284 295.75,-272 295.75,-272 295.75,-266 301.75,-260 307.75,-260 307.75,-260 337.75,-260 337.75,-260 343.75,-260 349.75,-266 349.75,-272 349.75,-272 349.75,-284 349.75,-284 349.75,-290 343.75,-296 337.75,-296"/>
<text xml:space="preserve" text-anchor="middle" x="322.75" y="-274.5" font-family="Arial" font-size="10.00" fill="#1a1a1a">node</text>
</g>
<!-- structure.link -->
<g id="node3" class="node">
<title>structure.link</title>
<path fill="#b8e6b8" stroke="#2c3e50" stroke-width="1.8" d="M337.75,-36C337.75,-36 307.75,-36 307.75,-36 301.75,-36 295.75,-30 295.75,-24 295.75,-24 295.75,-12 295.75,-12 295.75,-6 301.75,0 307.75,0 307.75,0 337.75,0 337.75,0 343.75,0 349.75,-6 349.75,-12 349.75,-12 349.75,-24 349.75,-24 349.75,-30 343.75,-36 337.75,-36"/>
<text xml:space="preserve" text-anchor="middle" x="322.75" y="-14.5" font-family="Arial" font-size="10.00" fill="#1a1a1a">link</text>
</g>
<!-- attr_2 -->
<g id="node8" class="node">
<title>attr_2</title>
<path fill="#c7b8e6" stroke="#7f8c8d" stroke-width="1.2" d="M515.25,-36C515.25,-36 404.75,-36 404.75,-36 398.75,-36 392.75,-30 392.75,-24 392.75,-24 392.75,-12 392.75,-12 392.75,-6 398.75,0 404.75,0 404.75,0 515.25,0 515.25,0 521.25,0 527.25,-6 527.25,-12 527.25,-12 527.25,-24 527.25,-24 527.25,-30 521.25,-36 515.25,-36"/>
<text xml:space="preserve" text-anchor="middle" x="460" y="-14.5" font-family="Arial" font-size="10.00" fill="#1a1a1a">(+) depth occlusion present</text>
</g>
<!-- structure.link&#45;&gt;attr_2 -->
<g id="edge3" class="edge">
<title>structure.link&#45;&gt;attr_2</title>
<path fill="none" stroke="#aaaaaa" d="M350.47,-18C360.29,-18 371.96,-18 383.93,-18"/>
<polygon fill="#aaaaaa" stroke="#aaaaaa" points="383.75,-20.45 390.75,-18 383.75,-15.55 383.75,-20.45"/>
</g>
<!-- unknown.depth_axis -->
<g id="node4" class="node">
<title>unknown.depth_axis</title>
<path fill="#b8e6b8" stroke="#2c3e50" stroke-width="1.8" d="M49,-328C49,-328 12,-328 12,-328 6,-328 0,-322 0,-316 0,-316 0,-304 0,-304 0,-298 6,-292 12,-292 12,-292 49,-292 49,-292 55,-292 61,-298 61,-304 61,-304 61,-316 61,-316 61,-322 55,-328 49,-328"/>
<text xml:space="preserve" text-anchor="middle" x="30.5" y="-306.5" font-family="Arial" font-size="10.00" fill="#1a1a1a">depth axis</text>
</g>
<!-- attr_3 -->
<g id="node9" class="node">
<title>attr_3</title>
<path fill="#c7b8e6" stroke="#7f8c8d" stroke-width="1.2" d="M230.62,-361C230.62,-361 126.12,-361 126.12,-361 120.13,-361 114.12,-355 114.12,-349 114.12,-349 114.12,-337 114.12,-337 114.12,-331 120.12,-325 126.12,-325 126.12,-325 230.62,-325 230.62,-325 236.62,-325 242.62,-331 242.62,-337 242.62,-337 242.62,-349 242.62,-349 242.62,-355 236.62,-361 230.62,-361"/>
<text xml:space="preserve" text-anchor="middle" x="178.38" y="-339.5" font-family="Arial" font-size="10.00" fill="#1a1a1a">(+) adds spatial ambiguity</text>
</g>
<!-- unknown.depth_axis&#45;&gt;attr_3 -->
<g id="edge4" class="edge">
<title>unknown.depth_axis&#45;&gt;attr_3</title>
<path fill="none" stroke="#aaaaaa" d="M61.73,-316.84C74.59,-319.75 90.19,-323.28 105.71,-326.79"/>
<polygon fill="#aaaaaa" stroke="#aaaaaa" points="104.96,-329.13 112.33,-328.29 106.04,-324.35 104.96,-329.13"/>
</g>
<!-- rel_1 -->
<g id="node12" class="node">
<title>rel_1</title>
<path fill="#f5b8b8" stroke="#d46a6a" stroke-width="1.2" d="M194.25,-296C194.25,-296 162.5,-296 162.5,-296 156.5,-296 150.5,-290 150.5,-284 150.5,-284 150.5,-272 150.5,-272 150.5,-266 156.5,-260 162.5,-260 162.5,-260 194.25,-260 194.25,-260 200.25,-260 206.25,-266 206.25,-272 206.25,-272 206.25,-284 206.25,-284 206.25,-290 200.25,-296 194.25,-296"/>
<text xml:space="preserve" text-anchor="middle" x="178.38" y="-274.5" font-family="Arial" font-size="10.00" fill="#8b0000">obscures</text>
</g>
<!-- unknown.depth_axis&#45;&gt;rel_1 -->
<g id="edge8" class="edge">
<title>unknown.depth_axis&#45;&gt;rel_1</title>
<path fill="none" stroke="#d46a6a" stroke-width="1.5" d="M61.73,-303.37C84.51,-298.37 115.87,-291.49 140.19,-286.16"/>
<polygon fill="#d46a6a" stroke="#d46a6a" stroke-width="1.5" points="140.71,-288.91 147.92,-284.46 139.51,-283.44 140.71,-288.91"/>
</g>
<!-- structure.layout -->
<g id="node5" class="node">
<title>structure.layout</title>
<path fill="#b8e6b8" stroke="#2c3e50" stroke-width="1.8" d="M337.75,-101C337.75,-101 307.75,-101 307.75,-101 301.75,-101 295.75,-95 295.75,-89 295.75,-89 295.75,-77 295.75,-77 295.75,-71 301.75,-65 307.75,-65 307.75,-65 337.75,-65 337.75,-65 343.75,-65 349.75,-71 349.75,-77 349.75,-77 349.75,-89 349.75,-89 349.75,-95 343.75,-101 337.75,-101"/>
<text xml:space="preserve" text-anchor="middle" x="322.75" y="-79.5" font-family="Arial" font-size="10.00" fill="#1a1a1a">layout</text>
</g>
<!-- attr_4 -->
<g id="node10" class="node">
<title>attr_4</title>
<path fill="#c7b8e6" stroke="#7f8c8d" stroke-width="1.2" d="M513,-101C513,-101 407,-101 407,-101 401,-101 395,-95 395,-89 395,-89 395,-77 395,-77 395,-71 401,-65 407,-65 407,-65 513,-65 513,-65 519,-65 525,-71 525,-77 525,-77 525,-89 525,-89 525,-95 519,-101 513,-101"/>
<text xml:space="preserve" text-anchor="middle" x="460" y="-79.5" font-family="Arial" font-size="10.00" fill="#1a1a1a">(+) non standard 3d layout</text>
</g>
<!-- structure.layout&#45;&gt;attr_4 -->
<g id="edge5" class="edge">
<title>structure.layout&#45;&gt;attr_4</title>
<path fill="none" stroke="#aaaaaa" d="M350.47,-83C360.89,-83 373.39,-83 386.13,-83"/>
<polygon fill="#aaaaaa" stroke="#aaaaaa" points="386.01,-85.45 393.01,-83 386.01,-80.55 386.01,-85.45"/>
</g>
<!-- rel_0&#45;&gt;structure.layout -->
<g id="edge7" class="edge">
<title>rel_0&#45;&gt;structure.layout</title>
<path fill="none" stroke="#d46a6a" stroke-width="1.5" d="M239.34,-83C254.85,-83 271.08,-83 285,-83"/>
<polygon fill="#d46a6a" stroke="#d46a6a" stroke-width="1.5" points="284.87,-85.8 292.87,-83 284.87,-80.2 284.87,-85.8"/>
</g>
<!-- rel_1&#45;&gt;mark.node -->
<g id="edge9" class="edge">
<title>rel_1&#45;&gt;mark.node</title>
<path fill="none" stroke="#d46a6a" stroke-width="1.5" d="M206.83,-278C229.03,-278 260.5,-278 284.89,-278"/>
<polygon fill="#d46a6a" stroke="#d46a6a" stroke-width="1.5" points="284.6,-280.8 292.6,-278 284.6,-275.2 284.6,-280.8"/>
</g>
<!-- rel_2&#45;&gt;structure.link -->
<g id="edge11" class="edge">
<title>rel_2&#45;&gt;structure.link</title>
<path fill="none" stroke="#d46a6a" stroke-width="1.5" d="M232.39,-18C249.9,-18 268.98,-18 285,-18"/>
<polygon fill="#d46a6a" stroke="#d46a6a" stroke-width="1.5" points="284.77,-20.8 292.77,-18 284.77,-15.2 284.77,-20.8"/>
</g>
</g>
</svg>
