<?xml version="1.0" encoding="UTF-8" standalone="no"?>
<!DOCTYPE svg PUBLIC "-//W3C//DTD SVG 1.1//EN"
 "http://www.w3.org/Graphics/SVG/1.1/DTD/svg11.dtd">
<!-- Generated by graphviz version 14.1.5 (20260411.2331)
 -->
<!-- Title: VisC.29.16.png Pages: 1 -->
<svg width="729pt" height="375pt"
 viewBox="0.00 0.00 729.00 375.00" xmlns="http://www.w3.org/2000/svg" xmlns:xlink="http://www.w3.org/1999/xlink">
<g id="graph0" class="graph" transform="scale(1 1) rotate(0) translate(4 371.25)">
<title>VisC.29.16.png</title>
<polygon fill="white" stroke="none" points="-4,4 -4,-371.25 724.75,-371.25 724.75,4 -4,4"/>
<text xml:space="preserve" text-anchor="start" x="312.38" y="-346.95" font-family="Arial" font-weight="bold" font-size="14.00">VisC.29.16.png</text>
<text xml:space="preserve" text-anchor="start" x="318" y="-327" font-family="Arial" font-size="11.00">Line &#160;| &#160;VC = 0.45</text>
<path fill="#b8e6b8" stroke="none" d="M151,-302C151,-302 159,-302 159,-302 162,-302 165,-305 165,-308 165,-308 165,-314 165,-314 165,-317 162,-320 159,-320 159,-320 151,-320 151,-320 148,-320 145,-317 145,-314 145,-314 145,-308 145,-308 145,-305 148,-302 151,-302"/>
<path fill="none" stroke="black" d="M151,-302C151,-302 159,-302 159,-302 162,-302 165,-305 165,-308 165,-308 165,-314 165,-314 165,-317 162,-320 159,-320 159,-320 151,-320 151,-320 148,-320 145,-317 145,-314 145,-314 145,-308 145,-308 145,-305 148,-302 151,-302"/>
<text xml:space="preserve" text-anchor="start" x="153.5" y="-307.25" font-family="Arial" font-size="10.00"> </text>
<text xml:space="preserve" text-anchor="start" x="169" y="-307.25" font-family="Arial" font-size="10.00">Object</text>
<path fill="#c7b8e6" stroke="none" d="M207.5,-302C207.5,-302 215.5,-302 215.5,-302 218.5,-302 221.5,-305 221.5,-308 221.5,-308 221.5,-314 221.5,-314 221.5,-317 218.5,-320 215.5,-320 215.5,-320 207.5,-320 207.5,-320 204.5,-320 201.5,-317 201.5,-314 201.5,-314 201.5,-308 201.5,-308 201.5,-305 204.5,-302 207.5,-302"/>
<path fill="none" stroke="black" d="M207.5,-302C207.5,-302 215.5,-302 215.5,-302 218.5,-302 221.5,-305 221.5,-308 221.5,-308 221.5,-314 221.5,-314 221.5,-317 218.5,-320 215.5,-320 215.5,-320 207.5,-320 207.5,-320 204.5,-320 201.5,-317 201.5,-314 201.5,-314 201.5,-308 201.5,-308 201.5,-305 204.5,-302 207.5,-302"/>
<text xml:space="preserve" text-anchor="start" x="210" y="-307.25" font-family="Arial" font-size="10.00"> </text>
<text xml:space="preserve" text-anchor="start" x="225.5" y="-307.25" font-family="Arial" font-size="10.00">Attribute</text>
<path fill="#f5b8b8" stroke="none" d="M272.25,-302C272.25,-302 280.25,-302 280.25,-302 283.25,-302 286.25,-305 286.25,-308 286.25,-308 286.25,-314 286.25,-314 286.25,-317 283.25,-320 280.25,-320 280.25,-320 272.25,-320 272.25,-320 269.25,-320 266.25,-317 266.25,-314 266.25,-314 266.25,-308 266.25,-308 266.25,-305 269.25,-302 272.25,-302"/>
<path fill="none" stroke="black" d="M272.25,-302C272.25,-302 280.25,-302 280.25,-302 283.25,-302 286.25,-305 286.25,-308 286.25,-308 286.25,-314 286.25,-314 286.25,-317 283.25,-320 280.25,-320 280.25,-320 272.25,-320 272.25,-320 269.25,-320 266.25,-317 266.25,-314 266.25,-314 266.25,-308 266.25,-308 266.25,-305 269.25,-302 272.25,-302"/>
<text xml:space="preserve" text-anchor="start" x="274.75" y="-307.25" font-family="Arial" font-size="10.00"> </text>
<text xml:space="preserve" text-anchor="start" x="290.25" y="-307.25" font-family="Arial" font-size="10.00">Relationship</text>
<text xml:space="preserve" text-anchor="start" x="350.25" y="-308.5" font-family="Arial" font-weight="bold" font-size="10.00">(+)</text>
<text xml:space="preserve" text-anchor="start" x="362.25" y="-308.5" font-family="Arial" font-size="10.00"> increases complexity</text>
<text xml:space="preserve" text-anchor="start" x="463.5" y="-308.5" font-family="Arial" font-weight="bold" font-size="10.00">(−)</text>
<text xml:space="preserve" text-anchor="start" x="475.5" y="-308.5" font-family="Arial" font-size="10.00"> decreases complexity</text>
<!-- mark.line -->
<g id="node1" class="node">
<title>mark.line</title>
<path fill="#b8e6b8" stroke="#2c3e50" stroke-width="1.8" d="M571,-166C571,-166 541,-166 541,-166 535,-166 529,-160 529,-154 529,-154 529,-142 529,-142 529,-136 535,-130 541,-130 541,-130 571,-130 571,-130 577,-130 583,-136 583,-142 583,-142 583,-154 583,-154 583,-160 577,-166 571,-166"/>
<text xml:space="preserve" text-anchor="middle" x="556" y="-144.5" font-family="Arial" font-size="10.00" fill="#1a1a1a">line</text>
</g>
<!-- attr_3 -->
<g id="node6" class="node">
<title>attr_3</title>
<path fill="#c7b8e6" stroke="#7f8c8d" stroke-width="1.2" d="M708.75,-166C708.75,-166 638,-166 638,-166 632,-166 626,-160 626,-154 626,-154 626,-142 626,-142 626,-136 632,-130 638,-130 638,-130 708.75,-130 708.75,-130 714.75,-130 720.75,-136 720.75,-142 720.75,-142 720.75,-154 720.75,-154 720.75,-160 714.75,-166 708.75,-166"/>
<text xml:space="preserve" text-anchor="middle" x="673.38" y="-144.5" font-family="Arial" font-size="10.00" fill="#1a1a1a">(−) basic line form</text>
</g>
<!-- mark.line&#45;&gt;attr_3 -->
<g id="edge1" class="edge">
<title>mark.line&#45;&gt;attr_3</title>
<path fill="none" stroke="#aaaaaa" d="M583.76,-148C593.72,-148 605.43,-148 617.02,-148"/>
<polygon fill="#aaaaaa" stroke="#aaaaaa" points="616.89,-150.45 623.89,-148 616.89,-145.55 616.89,-150.45"/>
</g>
<!-- text.axis_label -->
<g id="node2" class="node">
<title>text.axis_label</title>
<path fill="#b8e6b8" stroke="#2c3e50" stroke-width="1.8" d="M45.25,-199C45.25,-199 12,-199 12,-199 6,-199 0,-193 0,-187 0,-187 0,-175 0,-175 0,-169 6,-163 12,-163 12,-163 45.25,-163 45.25,-163 51.25,-163 57.25,-169 57.25,-175 57.25,-175 57.25,-187 57.25,-187 57.25,-193 51.25,-199 45.25,-199"/>
<text xml:space="preserve" text-anchor="middle" x="28.62" y="-177.5" font-family="Arial" font-size="10.00" fill="#1a1a1a">axis label</text>
</g>
<!-- attr_2 -->
<g id="node7" class="node">
<title>attr_2</title>
<path fill="#c7b8e6" stroke="#7f8c8d" stroke-width="1.2" d="M201.75,-232C201.75,-232 112.25,-232 112.25,-232 106.25,-232 100.25,-226 100.25,-220 100.25,-220 100.25,-208 100.25,-208 100.25,-202 106.25,-196 112.25,-196 112.25,-196 201.75,-196 201.75,-196 207.75,-196 213.75,-202 213.75,-208 213.75,-208 213.75,-220 213.75,-220 213.75,-226 207.75,-232 201.75,-232"/>
<text xml:space="preserve" text-anchor="middle" x="157" y="-210.5" font-family="Arial" font-size="10.00" fill="#1a1a1a">(+) insufficient labeling</text>
</g>
<!-- text.axis_label&#45;&gt;attr_2 -->
<g id="edge2" class="edge">
<title>text.axis_label&#45;&gt;attr_2</title>
<path fill="none" stroke="#aaaaaa" d="M57.99,-188.41C68.04,-191.03 79.8,-194.1 91.62,-197.19"/>
<polygon fill="#aaaaaa" stroke="#aaaaaa" points="90.93,-199.54 98.32,-198.94 92.17,-194.8 90.93,-199.54"/>
</g>
<!-- rel_0 -->
<g id="node11" class="node">
<title>rel_0</title>
<path fill="#f5b8b8" stroke="#d46a6a" stroke-width="1.2" d="M182.25,-167C182.25,-167 131.75,-167 131.75,-167 125.75,-167 119.75,-161 119.75,-155 119.75,-155 119.75,-143 119.75,-143 119.75,-137 125.75,-131 131.75,-131 131.75,-131 182.25,-131 182.25,-131 188.25,-131 194.25,-137 194.25,-143 194.25,-143 194.25,-155 194.25,-155 194.25,-161 188.25,-167 182.25,-167"/>
<text xml:space="preserve" text-anchor="middle" x="157" y="-145.5" font-family="Arial" font-size="10.00" fill="#8b0000">fails to clarify</text>
</g>
<!-- text.axis_label&#45;&gt;rel_0 -->
<g id="edge6" class="edge">
<title>text.axis_label&#45;&gt;rel_0</title>
<path fill="none" stroke="#d46a6a" stroke-width="1.5" d="M57.99,-173.82C73.19,-169.97 92.32,-165.13 109.62,-160.74"/>
<polygon fill="#d46a6a" stroke="#d46a6a" stroke-width="1.5" points="110.29,-163.46 117.36,-158.78 108.92,-158.03 110.29,-163.46"/>
</g>
<!-- text.title -->
<g id="node3" class="node">
<title>text.title</title>
<path fill="#b8e6b8" stroke="#2c3e50" stroke-width="1.8" d="M298.75,-296C298.75,-296 268.75,-296 268.75,-296 262.75,-296 256.75,-290 256.75,-284 256.75,-284 256.75,-272 256.75,-272 256.75,-266 262.75,-260 268.75,-260 268.75,-260 298.75,-260 298.75,-260 304.75,-260 310.75,-266 310.75,-272 310.75,-272 310.75,-284 310.75,-284 310.75,-290 304.75,-296 298.75,-296"/>
<text xml:space="preserve" text-anchor="middle" x="283.75" y="-274.5" font-family="Arial" font-size="10.00" fill="#1a1a1a">title</text>
</g>
<!-- rel_1 -->
<g id="node12" class="node">
<title>rel_1</title>
<path fill="#f5b8b8" stroke="#d46a6a" stroke-width="1.2" d="M462.38,-296C462.38,-296 377.38,-296 377.38,-296 371.38,-296 365.38,-290 365.38,-284 365.38,-284 365.38,-272 365.38,-272 365.38,-266 371.38,-260 377.38,-260 377.38,-260 462.38,-260 462.38,-260 468.38,-260 474.38,-266 474.38,-272 474.38,-272 474.38,-284 474.38,-284 474.38,-290 468.38,-296 462.38,-296"/>
<text xml:space="preserve" text-anchor="middle" x="419.88" y="-274.5" font-family="Arial" font-size="10.00" fill="#8b0000">insufficiently explains</text>
</g>
<!-- text.title&#45;&gt;rel_1 -->
<g id="edge8" class="edge">
<title>text.title&#45;&gt;rel_1</title>
<path fill="none" stroke="#d46a6a" stroke-width="1.5" d="M311.57,-278C324.11,-278 339.63,-278 354.94,-278"/>
<polygon fill="#d46a6a" stroke="#d46a6a" stroke-width="1.5" points="354.66,-280.8 362.66,-278 354.66,-275.2 354.66,-280.8"/>
</g>
<!-- furniture.legend -->
<g id="node4" class="node">
<title>furniture.legend</title>
<path fill="#b8e6b8" stroke="#2c3e50" stroke-width="1.8" d="M43.62,-102C43.62,-102 13.62,-102 13.62,-102 7.62,-102 1.62,-96 1.62,-90 1.62,-90 1.62,-78 1.62,-78 1.62,-72 7.62,-66 13.62,-66 13.62,-66 43.62,-66 43.62,-66 49.62,-66 55.62,-72 55.62,-78 55.62,-78 55.62,-90 55.62,-90 55.62,-96 49.62,-102 43.62,-102"/>
<text xml:space="preserve" text-anchor="middle" x="28.62" y="-80.5" font-family="Arial" font-size="10.00" fill="#1a1a1a">legend</text>
</g>
<!-- rel_3 -->
<g id="node14" class="node">
<title>rel_3</title>
<path fill="#f5b8b8" stroke="#d46a6a" stroke-width="1.2" d="M189,-102C189,-102 125,-102 125,-102 119,-102 113,-96 113,-90 113,-90 113,-78 113,-78 113,-72 119,-66 125,-66 125,-66 189,-66 189,-66 195,-66 201,-72 201,-78 201,-78 201,-90 201,-90 201,-96 195,-102 189,-102"/>
<text xml:space="preserve" text-anchor="middle" x="157" y="-80.5" font-family="Arial" font-size="10.00" fill="#8b0000">does not resolve</text>
</g>
<!-- furniture.legend&#45;&gt;rel_3 -->
<g id="edge12" class="edge">
<title>furniture.legend&#45;&gt;rel_3</title>
<path fill="none" stroke="#d46a6a" stroke-width="1.5" d="M56.43,-84C69.99,-84 86.94,-84 102.99,-84"/>
<polygon fill="#d46a6a" stroke="#d46a6a" stroke-width="1.5" points="102.56,-86.8 110.56,-84 102.56,-81.2 102.56,-86.8"/>
</g>
<!-- whole.visualization -->
<g id="node5" class="node">
<title>whole.visualization</title>
<path fill="#b8e6b8" stroke="#2c3e50" stroke-width="1.8" d="M298.75,-134C298.75,-134 268.75,-134 268.75,-134 262.75,-134 256.75,-128 256.75,-122 256.75,-122 256.75,-110 256.75,-110 256.75,-104 262.75,-98 268.75,-98 268.75,-98 298.75,-98 298.75,-98 304.75,-98 310.75,-104 310.75,-110 310.75,-110 310.75,-122 310.75,-122 310.75,-128 304.75,-134 298.75,-134"/>
<text xml:space="preserve" text-anchor="middle" x="283.75" y="-112.5" font-family="Arial" font-size="10.00" fill="#1a1a1a">graph</text>
</g>
<!-- attr_0 -->
<g id="node8" class="node">
<title>attr_0</title>
<path fill="#c7b8e6" stroke="#7f8c8d" stroke-width="1.2" d="M458.25,-231C458.25,-231 381.5,-231 381.5,-231 375.5,-231 369.5,-225 369.5,-219 369.5,-219 369.5,-207 369.5,-207 369.5,-201 375.5,-195 381.5,-195 381.5,-195 458.25,-195 458.25,-195 464.25,-195 470.25,-201 470.25,-207 470.25,-207 470.25,-219 470.25,-219 470.25,-225 464.25,-231 458.25,-231"/>
<text xml:space="preserve" text-anchor="middle" x="419.88" y="-209.5" font-family="Arial" font-size="10.00" fill="#1a1a1a">(−) simple structure</text>
</g>
<!-- whole.visualization&#45;&gt;attr_0 -->
<g id="edge3" class="edge">
<title>whole.visualization&#45;&gt;attr_0</title>
<path fill="none" stroke="#aaaaaa" d="M301.63,-134.69C314.88,-148.62 334.27,-167.5 353.75,-181 358.59,-184.36 363.83,-187.55 369.17,-190.54"/>
<polygon fill="#aaaaaa" stroke="#aaaaaa" points="367.83,-192.59 375.15,-193.75 370.15,-188.28 367.83,-192.59"/>
</g>
<!-- attr_1 -->
<g id="node9" class="node">
<title>attr_1</title>
<path fill="#c7b8e6" stroke="#7f8c8d" stroke-width="1.2" d="M460.5,-166C460.5,-166 379.25,-166 379.25,-166 373.25,-166 367.25,-160 367.25,-154 367.25,-154 367.25,-142 367.25,-142 367.25,-136 373.25,-130 379.25,-130 379.25,-130 460.5,-130 460.5,-130 466.5,-130 472.5,-136 472.5,-142 472.5,-142 472.5,-154 472.5,-154 472.5,-160 466.5,-166 460.5,-166"/>
<text xml:space="preserve" text-anchor="middle" x="419.88" y="-144.5" font-family="Arial" font-size="10.00" fill="#1a1a1a">(+) unclear message</text>
</g>
<!-- whole.visualization&#45;&gt;attr_1 -->
<g id="edge4" class="edge">
<title>whole.visualization&#45;&gt;attr_1</title>
<path fill="none" stroke="#aaaaaa" d="M311.57,-122.4C325.17,-125.64 342.27,-129.72 358.8,-133.67"/>
<polygon fill="#aaaaaa" stroke="#aaaaaa" points="358,-136 365.38,-135.24 359.14,-131.23 358,-136"/>
</g>
<!-- attr_4 -->
<g id="node10" class="node">
<title>attr_4</title>
<path fill="#c7b8e6" stroke="#7f8c8d" stroke-width="1.2" d="M474,-101C474,-101 365.75,-101 365.75,-101 359.75,-101 353.75,-95 353.75,-89 353.75,-89 353.75,-77 353.75,-77 353.75,-71 359.75,-65 365.75,-65 365.75,-65 474,-65 474,-65 480,-65 486,-71 486,-77 486,-77 486,-89 486,-89 486,-95 480,-101 474,-101"/>
<text xml:space="preserve" text-anchor="middle" x="419.88" y="-79.5" font-family="Arial" font-size="10.00" fill="#1a1a1a">(+) confusing interpretation</text>
</g>
<!-- whole.visualization&#45;&gt;attr_4 -->
<g id="edge5" class="edge">
<title>whole.visualization&#45;&gt;attr_4</title>
<path fill="none" stroke="#aaaaaa" d="M311.57,-109.4C321.48,-106.96 333.25,-104.07 345.3,-101.1"/>
<polygon fill="#aaaaaa" stroke="#aaaaaa" points="345.56,-103.56 351.77,-99.51 344.39,-98.8 345.56,-103.56"/>
</g>
<!-- rel_2 -->
<g id="node13" class="node">
<title>rel_2</title>
<path fill="#f5b8b8" stroke="#d46a6a" stroke-width="1.2" d="M457.12,-36C457.12,-36 382.62,-36 382.62,-36 376.62,-36 370.62,-30 370.62,-24 370.62,-24 370.62,-12 370.62,-12 370.62,-6 376.62,0 382.62,0 382.62,0 457.12,0 457.12,0 463.12,0 469.12,-6 469.12,-12 469.12,-12 469.12,-24 469.12,-24 469.12,-30 463.12,-36 457.12,-36"/>
<text xml:space="preserve" text-anchor="middle" x="419.88" y="-14.5" font-family="Arial" font-size="10.00" fill="#8b0000">appears simple yet</text>
</g>
<!-- whole.visualization&#45;&gt;rel_2 -->
<g id="edge10" class="edge">
<title>whole.visualization&#45;&gt;rel_2</title>
<path fill="none" stroke="#d46a6a" stroke-width="1.5" d="M301.31,-97.3C314.53,-83.11 334.05,-63.77 353.75,-50 358.14,-46.93 362.86,-44 367.7,-41.25"/>
<polygon fill="#d46a6a" stroke="#d46a6a" stroke-width="1.5" points="368.77,-43.85 374.46,-37.57 366.09,-38.93 368.77,-43.85"/>
</g>
<!-- rel_0&#45;&gt;whole.visualization -->
<g id="edge7" class="edge">
<title>rel_0&#45;&gt;whole.visualization</title>
<path fill="none" stroke="#d46a6a" stroke-width="1.5" d="M194.75,-139.28C211.06,-134.96 230.2,-129.9 246.45,-125.6"/>
<polygon fill="#d46a6a" stroke="#d46a6a" stroke-width="1.5" points="246.94,-128.37 253.96,-123.62 245.51,-122.96 246.94,-128.37"/>
</g>
<!-- rel_1&#45;&gt;mark.line -->
<g id="edge9" class="edge">
<title>rel_1&#45;&gt;mark.line</title>
<path fill="none" stroke="#d46a6a" stroke-width="1.5" d="M466.16,-259.46C473.18,-255.57 480.06,-251.07 486,-246 509.15,-226.22 528.38,-197.03 540.61,-175.65"/>
<polygon fill="#d46a6a" stroke="#d46a6a" stroke-width="1.5" points="543.03,-177.07 544.46,-168.71 538.13,-174.35 543.03,-177.07"/>
</g>
<!-- rel_2&#45;&gt;mark.line -->
<g id="edge11" class="edge">
<title>rel_2&#45;&gt;mark.line</title>
<path fill="none" stroke="#d46a6a" stroke-width="1.5" d="M466.16,-36.54C473.18,-40.43 480.06,-44.93 486,-50 509.15,-69.78 528.38,-98.97 540.61,-120.35"/>
<polygon fill="#d46a6a" stroke="#d46a6a" stroke-width="1.5" points="538.13,-121.65 544.46,-127.29 543.03,-118.93 538.13,-121.65"/>
</g>
<!-- rel_3&#45;&gt;whole.visualization -->
<g id="edge13" class="edge">
<title>rel_3&#45;&gt;whole.visualization</title>
<path fill="none" stroke="#d46a6a" stroke-width="1.5" d="M201.28,-95.1C215.89,-98.85 232.05,-102.99 246.1,-106.6"/>
<polygon fill="#d46a6a" stroke="#d46a6a" stroke-width="1.5" points="245.25,-109.27 253.7,-108.55 246.65,-103.85 245.25,-109.27"/>
</g>
</g>
</svg>
