<?xml version="1.0" encoding="UTF-8" standalone="no"?>
<!DOCTYPE svg PUBLIC "-//W3C//DTD SVG 1.1//EN"
 "http://www.w3.org/Graphics/SVG/1.1/DTD/svg11.dtd">
<!-- Generated by graphviz version 14.1.5 (20260411.2331)
 -->
<!-- Title: VisC.559.6.png Pages: 1 -->
<svg width="1442pt" height="404pt"
 viewBox="0.00 0.00 1442.00 404.00" xmlns="http://www.w3.org/2000/svg" xmlns:xlink="http://www.w3.org/1999/xlink">
<g id="graph0" class="graph" transform="scale(1 1) rotate(0) translate(4 400.25)">
<title>VisC.559.6.png</title>
<polygon fill="white" stroke="none" points="-4,4 -4,-400.25 1437.5,-400.25 1437.5,4 -4,4"/>
<text xml:space="preserve" text-anchor="start" x="668.75" y="-375.95" font-family="Arial" font-weight="bold" font-size="14.00">VisC.559.6.png</text>
<text xml:space="preserve" text-anchor="start" x="670.62" y="-356" font-family="Arial" font-size="11.00">Glyph &#160;| &#160;VC = 0.51</text>
<path fill="#b8e6b8" stroke="none" d="M507.38,-331C507.38,-331 515.38,-331 515.38,-331 518.38,-331 521.38,-334 521.38,-337 521.38,-337 521.38,-343 521.38,-343 521.38,-346 518.38,-349 515.38,-349 515.38,-349 507.38,-349 507.38,-349 504.38,-349 501.38,-346 501.38,-343 501.38,-343 501.38,-337 501.38,-337 501.38,-334 504.38,-331 507.38,-331"/>
<path fill="none" stroke="black" d="M507.38,-331C507.38,-331 515.38,-331 515.38,-331 518.38,-331 521.38,-334 521.38,-337 521.38,-337 521.38,-343 521.38,-343 521.38,-346 518.38,-349 515.38,-349 515.38,-349 507.38,-349 507.38,-349 504.38,-349 501.38,-346 501.38,-343 501.38,-343 501.38,-337 501.38,-337 501.38,-334 504.38,-331 507.38,-331"/>
<text xml:space="preserve" text-anchor="start" x="509.88" y="-336.25" font-family="Arial" font-size="10.00"> </text>
<text xml:space="preserve" text-anchor="start" x="525.38" y="-336.25" font-family="Arial" font-size="10.00">Object</text>
<path fill="#c7b8e6" stroke="none" d="M563.88,-331C563.88,-331 571.88,-331 571.88,-331 574.88,-331 577.88,-334 577.88,-337 577.88,-337 577.88,-343 577.88,-343 577.88,-346 574.88,-349 571.88,-349 571.88,-349 563.88,-349 563.88,-349 560.88,-349 557.88,-346 557.88,-343 557.88,-343 557.88,-337 557.88,-337 557.88,-334 560.88,-331 563.88,-331"/>
<path fill="none" stroke="black" d="M563.88,-331C563.88,-331 571.88,-331 571.88,-331 574.88,-331 577.88,-334 577.88,-337 577.88,-337 577.88,-343 577.88,-343 577.88,-346 574.88,-349 571.88,-349 571.88,-349 563.88,-349 563.88,-349 560.88,-349 557.88,-346 557.88,-343 557.88,-343 557.88,-337 557.88,-337 557.88,-334 560.88,-331 563.88,-331"/>
<text xml:space="preserve" text-anchor="start" x="566.38" y="-336.25" font-family="Arial" font-size="10.00"> </text>
<text xml:space="preserve" text-anchor="start" x="581.88" y="-336.25" font-family="Arial" font-size="10.00">Attribute</text>
<path fill="#f5b8b8" stroke="none" d="M628.62,-331C628.62,-331 636.62,-331 636.62,-331 639.62,-331 642.62,-334 642.62,-337 642.62,-337 642.62,-343 642.62,-343 642.62,-346 639.62,-349 636.62,-349 636.62,-349 628.62,-349 628.62,-349 625.62,-349 622.62,-346 622.62,-343 622.62,-343 622.62,-337 622.62,-337 622.62,-334 625.62,-331 628.62,-331"/>
<path fill="none" stroke="black" d="M628.62,-331C628.62,-331 636.62,-331 636.62,-331 639.62,-331 642.62,-334 642.62,-337 642.62,-337 642.62,-343 642.62,-343 642.62,-346 639.62,-349 636.62,-349 636.62,-349 628.62,-349 628.62,-349 625.62,-349 622.62,-346 622.62,-343 622.62,-343 622.62,-337 622.62,-337 622.62,-334 625.62,-331 628.62,-331"/>
<text xml:space="preserve" text-anchor="start" x="631.12" y="-336.25" font-family="Arial" font-size="10.00"> </text>
<text xml:space="preserve" text-anchor="start" x="646.62" y="-336.25" font-family="Arial" font-size="10.00">Relationship</text>
<text xml:space="preserve" text-anchor="start" x="706.62" y="-337.5" font-family="Arial" font-weight="bold" font-size="10.00">(+)</text>
<text xml:space="preserve" text-anchor="start" x="718.62" y="-337.5" font-family="Arial" font-size="10.00"> increases complexity</text>
<text xml:space="preserve" text-anchor="start" x="819.88" y="-337.5" font-family="Arial" font-weight="bold" font-size="10.00">(−)</text>
<text xml:space="preserve" text-anchor="start" x="831.88" y="-337.5" font-family="Arial" font-size="10.00"> decreases complexity</text>
<!-- unknown.arrows -->
<g id="node1" class="node">
<title>unknown.arrows</title>
<path fill="#b8e6b8" stroke="#2c3e50" stroke-width="1.8" d="M597.25,-163C597.25,-163 567.25,-163 567.25,-163 561.25,-163 555.25,-157 555.25,-151 555.25,-151 555.25,-139 555.25,-139 555.25,-133 561.25,-127 567.25,-127 567.25,-127 597.25,-127 597.25,-127 603.25,-127 609.25,-133 609.25,-139 609.25,-139 609.25,-151 609.25,-151 609.25,-157 603.25,-163 597.25,-163"/>
<text xml:space="preserve" text-anchor="middle" x="582.25" y="-141.5" font-family="Arial" font-size="10.00" fill="#1a1a1a">arrows</text>
</g>
<!-- attr_0 -->
<g id="node7" class="node">
<title>attr_0</title>
<path fill="#c7b8e6" stroke="#7f8c8d" stroke-width="1.2" d="M792,-228C792,-228 664.25,-228 664.25,-228 658.25,-228 652.25,-222 652.25,-216 652.25,-216 652.25,-204 652.25,-204 652.25,-198 658.25,-192 664.25,-192 664.25,-192 792,-192 792,-192 798,-192 804,-198 804,-204 804,-204 804,-216 804,-216 804,-222 798,-228 792,-228"/>
<text xml:space="preserve" text-anchor="middle" x="728.12" y="-206.5" font-family="Arial" font-size="10.00" fill="#1a1a1a">(+) multiple conflicting direction</text>
</g>
<!-- unknown.arrows&#45;&gt;attr_0 -->
<g id="edge1" class="edge">
<title>unknown.arrows&#45;&gt;attr_0</title>
<path fill="none" stroke="#aaaaaa" d="M610.07,-157.58C622.82,-163.53 638.29,-170.69 652.25,-177 660.28,-180.63 668.81,-184.44 677.13,-188.12"/>
<polygon fill="#aaaaaa" stroke="#aaaaaa" points="675.92,-190.27 683.31,-190.86 677.9,-185.78 675.92,-190.27"/>
</g>
<!-- attr_1 -->
<g id="node8" class="node">
<title>attr_1</title>
<path fill="#c7b8e6" stroke="#7f8c8d" stroke-width="1.2" d="M791.25,-163C791.25,-163 665,-163 665,-163 659,-163 653,-157 653,-151 653,-151 653,-139 653,-139 653,-133 659,-127 665,-127 665,-127 791.25,-127 791.25,-127 797.25,-127 803.25,-133 803.25,-139 803.25,-139 803.25,-151 803.25,-151 803.25,-157 797.25,-163 791.25,-163"/>
<text xml:space="preserve" text-anchor="middle" x="728.12" y="-141.5" font-family="Arial" font-size="10.00" fill="#1a1a1a">(+) no apparent directional flow</text>
</g>
<!-- unknown.arrows&#45;&gt;attr_1 -->
<g id="edge2" class="edge">
<title>unknown.arrows&#45;&gt;attr_1</title>
<path fill="none" stroke="#aaaaaa" d="M609.97,-145C619.97,-145 631.93,-145 644.33,-145"/>
<polygon fill="#aaaaaa" stroke="#aaaaaa" points="644.02,-147.45 651.02,-145 644.02,-142.55 644.02,-147.45"/>
</g>
<!-- rel_0 -->
<g id="node14" class="node">
<title>rel_0</title>
<path fill="#f5b8b8" stroke="#d46a6a" stroke-width="1.2" d="M768,-98C768,-98 688.25,-98 688.25,-98 682.25,-98 676.25,-92 676.25,-86 676.25,-86 676.25,-74 676.25,-74 676.25,-68 682.25,-62 688.25,-62 688.25,-62 768,-62 768,-62 774,-62 780,-68 780,-74 780,-74 780,-86 780,-86 780,-92 774,-98 768,-98"/>
<text xml:space="preserve" text-anchor="middle" x="728.12" y="-76.5" font-family="Arial" font-size="10.00" fill="#8b0000">creates confusion in</text>
</g>
<!-- unknown.arrows&#45;&gt;rel_0 -->
<g id="edge8" class="edge">
<title>unknown.arrows&#45;&gt;rel_0</title>
<path fill="none" stroke="#d46a6a" stroke-width="1.5" d="M610,-131.88C622.73,-125.72 638.22,-118.35 652.25,-112 659.22,-108.84 666.6,-105.59 673.89,-102.43"/>
<polygon fill="#d46a6a" stroke="#d46a6a" stroke-width="1.5" points="674.72,-105.11 680.96,-99.37 672.5,-99.97 674.72,-105.11"/>
</g>
<!-- unknown.letters -->
<g id="node2" class="node">
<title>unknown.letters</title>
<path fill="#b8e6b8" stroke="#2c3e50" stroke-width="1.8" d="M43.62,-227C43.62,-227 13.62,-227 13.62,-227 7.62,-227 1.62,-221 1.62,-215 1.62,-215 1.62,-203 1.62,-203 1.62,-197 7.62,-191 13.62,-191 13.62,-191 43.62,-191 43.62,-191 49.62,-191 55.62,-197 55.62,-203 55.62,-203 55.62,-215 55.62,-215 55.62,-221 49.62,-227 43.62,-227"/>
<text xml:space="preserve" text-anchor="middle" x="28.62" y="-205.5" font-family="Arial" font-size="10.00" fill="#1a1a1a">letters</text>
</g>
<!-- attr_2 -->
<g id="node9" class="node">
<title>attr_2</title>
<path fill="#c7b8e6" stroke="#7f8c8d" stroke-width="1.2" d="M232.5,-260C232.5,-260 119,-260 119,-260 113,-260 107,-254 107,-248 107,-248 107,-236 107,-236 107,-230 113,-224 119,-224 119,-224 232.5,-224 232.5,-224 238.5,-224 244.5,-230 244.5,-236 244.5,-236 244.5,-248 244.5,-248 244.5,-254 238.5,-260 232.5,-260"/>
<text xml:space="preserve" text-anchor="middle" x="175.75" y="-238.5" font-family="Arial" font-size="10.00" fill="#1a1a1a">(+) random unlabeled letters</text>
</g>
<!-- unknown.letters&#45;&gt;attr_2 -->
<g id="edge3" class="edge">
<title>unknown.letters&#45;&gt;attr_2</title>
<path fill="none" stroke="#aaaaaa" d="M56.24,-215.05C68.37,-217.81 83.4,-221.23 98.64,-224.69"/>
<polygon fill="#aaaaaa" stroke="#aaaaaa" points="97.77,-227.01 105.14,-226.17 98.86,-222.23 97.77,-227.01"/>
</g>
<!-- rel_2 -->
<g id="node16" class="node">
<title>rel_2</title>
<path fill="#f5b8b8" stroke="#d46a6a" stroke-width="1.2" d="M208.12,-195C208.12,-195 143.38,-195 143.38,-195 137.38,-195 131.38,-189 131.38,-183 131.38,-183 131.38,-171 131.38,-171 131.38,-165 137.38,-159 143.38,-159 143.38,-159 208.12,-159 208.12,-159 214.12,-159 220.12,-165 220.12,-171 220.12,-171 220.12,-183 220.12,-183 220.12,-189 214.12,-195 208.12,-195"/>
<text xml:space="preserve" text-anchor="middle" x="175.75" y="-173.5" font-family="Arial" font-size="10.00" fill="#8b0000">lacks context for</text>
</g>
<!-- unknown.letters&#45;&gt;rel_2 -->
<g id="edge12" class="edge">
<title>unknown.letters&#45;&gt;rel_2</title>
<path fill="none" stroke="#d46a6a" stroke-width="1.5" d="M56.24,-203.13C74.34,-199.14 98.91,-193.72 120.99,-188.85"/>
<polygon fill="#d46a6a" stroke="#d46a6a" stroke-width="1.5" points="121.5,-191.61 128.7,-187.15 120.29,-186.14 121.5,-191.61"/>
</g>
<!-- unknown.glyph_elements -->
<g id="node3" class="node">
<title>unknown.glyph_elements</title>
<path fill="#b8e6b8" stroke="#2c3e50" stroke-width="1.8" d="M1216.25,-98C1216.25,-98 1158.25,-98 1158.25,-98 1152.25,-98 1146.25,-92 1146.25,-86 1146.25,-86 1146.25,-74 1146.25,-74 1146.25,-68 1152.25,-62 1158.25,-62 1158.25,-62 1216.25,-62 1216.25,-62 1222.25,-62 1228.25,-68 1228.25,-74 1228.25,-74 1228.25,-86 1228.25,-86 1228.25,-92 1222.25,-98 1216.25,-98"/>
<text xml:space="preserve" text-anchor="middle" x="1187.25" y="-76.5" font-family="Arial" font-size="10.00" fill="#1a1a1a">glyph elements</text>
</g>
<!-- attr_3 -->
<g id="node10" class="node">
<title>attr_3</title>
<path fill="#c7b8e6" stroke="#7f8c8d" stroke-width="1.2" d="M1421.5,-101C1421.5,-101 1283.25,-101 1283.25,-101 1277.25,-101 1271.25,-95 1271.25,-89 1271.25,-89 1271.25,-77 1271.25,-77 1271.25,-71 1277.25,-65 1283.25,-65 1283.25,-65 1421.5,-65 1421.5,-65 1427.5,-65 1433.5,-71 1433.5,-77 1433.5,-77 1433.5,-89 1433.5,-89 1433.5,-95 1427.5,-101 1421.5,-101"/>
<text xml:space="preserve" text-anchor="middle" x="1352.38" y="-79.5" font-family="Arial" font-size="10.00" fill="#1a1a1a">(+) too many interacting elements</text>
</g>
<!-- unknown.glyph_elements&#45;&gt;attr_3 -->
<g id="edge4" class="edge">
<title>unknown.glyph_elements&#45;&gt;attr_3</title>
<path fill="none" stroke="#aaaaaa" d="M1228.99,-80.75C1239.24,-80.94 1250.65,-81.15 1262.27,-81.36"/>
<polygon fill="#aaaaaa" stroke="#aaaaaa" points="1262.2,-83.81 1269.24,-81.49 1262.29,-78.91 1262.2,-83.81"/>
</g>
<!-- rel_1 -->
<g id="node15" class="node">
<title>rel_1</title>
<path fill="#f5b8b8" stroke="#d46a6a" stroke-width="1.2" d="M1374.62,-36C1374.62,-36 1330.12,-36 1330.12,-36 1324.12,-36 1318.12,-30 1318.12,-24 1318.12,-24 1318.12,-12 1318.12,-12 1318.12,-6 1324.12,0 1330.12,0 1330.12,0 1374.62,0 1374.62,0 1380.62,0 1386.62,-6 1386.62,-12 1386.62,-12 1386.62,-24 1386.62,-24 1386.62,-30 1380.62,-36 1374.62,-36"/>
<text xml:space="preserve" text-anchor="middle" x="1352.38" y="-14.5" font-family="Arial" font-size="10.00" fill="#8b0000">overwhelms</text>
</g>
<!-- unknown.glyph_elements&#45;&gt;rel_1 -->
<g id="edge10" class="edge">
<title>unknown.glyph_elements&#45;&gt;rel_1</title>
<path fill="none" stroke="#d46a6a" stroke-width="1.5" d="M1228.99,-64.51C1253.15,-55.33 1283.75,-43.7 1308.31,-34.37"/>
<polygon fill="#d46a6a" stroke="#d46a6a" stroke-width="1.5" points="1309.13,-37.05 1315.62,-31.59 1307.14,-31.82 1309.13,-37.05"/>
</g>
<!-- furniture.legend -->
<g id="node4" class="node">
<title>furniture.legend</title>
<path fill="#b8e6b8" stroke="#2c3e50" stroke-width="1.8" d="M336.25,-195C336.25,-195 306.25,-195 306.25,-195 300.25,-195 294.25,-189 294.25,-183 294.25,-183 294.25,-171 294.25,-171 294.25,-165 300.25,-159 306.25,-159 306.25,-159 336.25,-159 336.25,-159 342.25,-159 348.25,-165 348.25,-171 348.25,-171 348.25,-183 348.25,-183 348.25,-189 342.25,-195 336.25,-195"/>
<text xml:space="preserve" text-anchor="middle" x="321.25" y="-173.5" font-family="Arial" font-size="10.00" fill="#1a1a1a">legend</text>
</g>
<!-- attr_4 -->
<g id="node11" class="node">
<title>attr_4</title>
<path fill="#c7b8e6" stroke="#7f8c8d" stroke-width="1.2" d="M500.25,-228C500.25,-228 403.25,-228 403.25,-228 397.25,-228 391.25,-222 391.25,-216 391.25,-216 391.25,-204 391.25,-204 391.25,-198 397.25,-192 403.25,-192 403.25,-192 500.25,-192 500.25,-192 506.25,-192 512.25,-198 512.25,-204 512.25,-204 512.25,-216 512.25,-216 512.25,-222 506.25,-228 500.25,-228"/>
<text xml:space="preserve" text-anchor="middle" x="451.75" y="-206.5" font-family="Arial" font-size="10.00" fill="#1a1a1a">(+) absent or insufficient</text>
</g>
<!-- furniture.legend&#45;&gt;attr_4 -->
<g id="edge5" class="edge">
<title>furniture.legend&#45;&gt;attr_4</title>
<path fill="none" stroke="#aaaaaa" d="M348.88,-183.84C358.89,-186.41 370.78,-189.46 382.84,-192.56"/>
<polygon fill="#aaaaaa" stroke="#aaaaaa" points="381.92,-194.85 389.31,-194.22 383.14,-190.11 381.92,-194.85"/>
</g>
<!-- rel_3 -->
<g id="node17" class="node">
<title>rel_3</title>
<path fill="#f5b8b8" stroke="#d46a6a" stroke-width="1.2" d="M479.62,-163C479.62,-163 423.88,-163 423.88,-163 417.88,-163 411.88,-157 411.88,-151 411.88,-151 411.88,-139 411.88,-139 411.88,-133 417.88,-127 423.88,-127 423.88,-127 479.62,-127 479.62,-127 485.62,-127 491.62,-133 491.62,-139 491.62,-139 491.62,-151 491.62,-151 491.62,-157 485.62,-163 479.62,-163"/>
<text xml:space="preserve" text-anchor="middle" x="451.75" y="-141.5" font-family="Arial" font-size="10.00" fill="#8b0000">fails to decode</text>
</g>
<!-- furniture.legend&#45;&gt;rel_3 -->
<g id="edge14" class="edge">
<title>furniture.legend&#45;&gt;rel_3</title>
<path fill="none" stroke="#d46a6a" stroke-width="1.5" d="M348.88,-170.37C364.13,-166.57 383.76,-161.68 401.71,-157.21"/>
<polygon fill="#d46a6a" stroke="#d46a6a" stroke-width="1.5" points="402.18,-159.98 409.27,-155.33 400.83,-154.55 402.18,-159.98"/>
</g>
<!-- text.axis_label -->
<g id="node5" class="node">
<title>text.axis_label</title>
<path fill="#b8e6b8" stroke="#2c3e50" stroke-width="1.8" d="M45.25,-325C45.25,-325 12,-325 12,-325 6,-325 0,-319 0,-313 0,-313 0,-301 0,-301 0,-295 6,-289 12,-289 12,-289 45.25,-289 45.25,-289 51.25,-289 57.25,-295 57.25,-301 57.25,-301 57.25,-313 57.25,-313 57.25,-319 51.25,-325 45.25,-325"/>
<text xml:space="preserve" text-anchor="middle" x="28.62" y="-303.5" font-family="Arial" font-size="10.00" fill="#1a1a1a">axis label</text>
</g>
<!-- attr_5 -->
<g id="node12" class="node">
<title>attr_5</title>
<path fill="#c7b8e6" stroke="#7f8c8d" stroke-width="1.2" d="M239.25,-325C239.25,-325 112.25,-325 112.25,-325 106.25,-325 100.25,-319 100.25,-313 100.25,-313 100.25,-301 100.25,-301 100.25,-295 106.25,-289 112.25,-289 112.25,-289 239.25,-289 239.25,-289 245.25,-289 251.25,-295 251.25,-301 251.25,-301 251.25,-313 251.25,-313 251.25,-319 245.25,-325 239.25,-325"/>
<text xml:space="preserve" text-anchor="middle" x="175.75" y="-303.5" font-family="Arial" font-size="10.00" fill="#1a1a1a">(+) missing numeric references</text>
</g>
<!-- text.axis_label&#45;&gt;attr_5 -->
<g id="edge6" class="edge">
<title>text.axis_label&#45;&gt;attr_5</title>
<path fill="none" stroke="#aaaaaa" d="M57.95,-307C67.8,-307 79.41,-307 91.43,-307"/>
<polygon fill="#aaaaaa" stroke="#aaaaaa" points="91.28,-309.45 98.28,-307 91.28,-304.55 91.28,-309.45"/>
</g>
<!-- structure.layout -->
<g id="node6" class="node">
<title>structure.layout</title>
<path fill="#b8e6b8" stroke="#2c3e50" stroke-width="1.8" d="M889,-98C889,-98 859,-98 859,-98 853,-98 847,-92 847,-86 847,-86 847,-74 847,-74 847,-68 853,-62 859,-62 859,-62 889,-62 889,-62 895,-62 901,-68 901,-74 901,-74 901,-86 901,-86 901,-92 895,-98 889,-98"/>
<text xml:space="preserve" text-anchor="middle" x="874" y="-76.5" font-family="Arial" font-size="10.00" fill="#1a1a1a">layout</text>
</g>
<!-- attr_6 -->
<g id="node13" class="node">
<title>attr_6</title>
<path fill="#c7b8e6" stroke="#7f8c8d" stroke-width="1.2" d="M1091.25,-163C1091.25,-163 956,-163 956,-163 950,-163 944,-157 944,-151 944,-151 944,-139 944,-139 944,-133 950,-127 956,-127 956,-127 1091.25,-127 1091.25,-127 1097.25,-127 1103.25,-133 1103.25,-139 1103.25,-139 1103.25,-151 1103.25,-151 1103.25,-157 1097.25,-163 1091.25,-163"/>
<text xml:space="preserve" text-anchor="middle" x="1023.62" y="-141.5" font-family="Arial" font-size="10.00" fill="#1a1a1a">(+) messy disorganized structure</text>
</g>
<!-- structure.layout&#45;&gt;attr_6 -->
<g id="edge7" class="edge">
<title>structure.layout&#45;&gt;attr_6</title>
<path fill="none" stroke="#aaaaaa" d="M901.77,-92.69C914.51,-98.66 929.99,-105.81 944,-112 952.38,-115.7 961.3,-119.54 970.01,-123.23"/>
<polygon fill="#aaaaaa" stroke="#aaaaaa" points="968.8,-125.38 976.2,-125.85 970.71,-120.87 968.8,-125.38"/>
</g>
<!-- rel_4 -->
<g id="node18" class="node">
<title>rel_4</title>
<path fill="#f5b8b8" stroke="#d46a6a" stroke-width="1.2" d="M1040.62,-98C1040.62,-98 1006.62,-98 1006.62,-98 1000.62,-98 994.62,-92 994.62,-86 994.62,-86 994.62,-74 994.62,-74 994.62,-68 1000.62,-62 1006.62,-62 1006.62,-62 1040.62,-62 1040.62,-62 1046.62,-62 1052.62,-68 1052.62,-74 1052.62,-74 1052.62,-86 1052.62,-86 1052.62,-92 1046.62,-98 1040.62,-98"/>
<text xml:space="preserve" text-anchor="middle" x="1023.62" y="-76.5" font-family="Arial" font-size="10.00" fill="#8b0000">increases</text>
</g>
<!-- structure.layout&#45;&gt;rel_4 -->
<g id="edge16" class="edge">
<title>structure.layout&#45;&gt;rel_4</title>
<path fill="none" stroke="#d46a6a" stroke-width="1.5" d="M901.73,-80C924.66,-80 958,-80 983.86,-80"/>
<polygon fill="#d46a6a" stroke="#d46a6a" stroke-width="1.5" points="983.81,-82.8 991.8,-80 983.8,-77.2 983.81,-82.8"/>
</g>
<!-- rel_0&#45;&gt;structure.layout -->
<g id="edge9" class="edge">
<title>rel_0&#45;&gt;structure.layout</title>
<path fill="none" stroke="#d46a6a" stroke-width="1.5" d="M780.26,-80C798.72,-80 819.18,-80 836.17,-80"/>
<polygon fill="#d46a6a" stroke="#d46a6a" stroke-width="1.5" points="835.99,-82.8 843.99,-80 835.99,-77.2 835.99,-82.8"/>
</g>
<!-- rel_1&#45;&gt;structure.layout -->
<g id="edge11" class="edge">
<title>rel_1&#45;&gt;structure.layout</title>
<path fill="none" stroke="#d46a6a" stroke-width="1.5" d="M1317.68,-16.21C1247.05,-13.36 1078.87,-11.33 944,-47 932.68,-49.99 920.97,-54.84 910.49,-59.91"/>
<polygon fill="#d46a6a" stroke="#d46a6a" stroke-width="1.5" points="909.54,-57.25 903.66,-63.35 912.06,-62.25 909.54,-57.25"/>
</g>
<!-- rel_2&#45;&gt;furniture.legend -->
<g id="edge13" class="edge">
<title>rel_2&#45;&gt;furniture.legend</title>
<path fill="none" stroke="#d46a6a" stroke-width="1.5" d="M220.58,-177C240.75,-177 264.41,-177 283.61,-177"/>
<polygon fill="#d46a6a" stroke="#d46a6a" stroke-width="1.5" points="283.5,-179.8 291.5,-177 283.5,-174.2 283.5,-179.8"/>
</g>
<!-- rel_3&#45;&gt;unknown.arrows -->
<g id="edge15" class="edge">
<title>rel_3&#45;&gt;unknown.arrows</title>
<path fill="none" stroke="#d46a6a" stroke-width="1.5" d="M492,-145C508.75,-145 528.18,-145 544.63,-145"/>
<polygon fill="#d46a6a" stroke="#d46a6a" stroke-width="1.5" points="544.16,-147.8 552.16,-145 544.16,-142.2 544.16,-147.8"/>
</g>
<!-- rel_4&#45;&gt;unknown.glyph_elements -->
<g id="edge17" class="edge">
<title>rel_4&#45;&gt;unknown.glyph_elements</title>
<path fill="none" stroke="#d46a6a" stroke-width="1.5" d="M1053.15,-80C1075.89,-80 1108.31,-80 1135.46,-80"/>
<polygon fill="#d46a6a" stroke="#d46a6a" stroke-width="1.5" points="1135.31,-82.8 1143.31,-80 1135.31,-77.2 1135.31,-82.8"/>
</g>
</g>
</svg>
