<?xml version="1.0" encoding="UTF-8" standalone="no"?>
<!DOCTYPE svg PUBLIC "-//W3C//DTD SVG 1.1//EN"
 "http://www.w3.org/Graphics/SVG/1.1/DTD/svg11.dtd">
<!-- Generated by graphviz version 14.1.5 (20260411.2331)
 -->
<!-- Title: VisC.249.6.png Pages: 1 -->
<svg width="516pt" height="440pt"
 viewBox="0.00 0.00 516.00 440.00" xmlns="http://www.w3.org/2000/svg" xmlns:xlink="http://www.w3.org/1999/xlink">
<g id="graph0" class="graph" transform="scale(1 1) rotate(0) translate(4 436.25)">
<title>VisC.249.6.png</title>
<polygon fill="white" stroke="none" points="-4,4 -4,-436.25 511.75,-436.25 511.75,4 -4,4"/>
<text xml:space="preserve" text-anchor="start" x="205.88" y="-411.95" font-family="Arial" font-weight="bold" font-size="14.00">VisC.249.6.png</text>
<text xml:space="preserve" text-anchor="start" x="207.75" y="-392" font-family="Arial" font-size="11.00">Glyph &#160;| &#160;VC = 0.64</text>
<path fill="#b8e6b8" stroke="none" d="M44.5,-367C44.5,-367 52.5,-367 52.5,-367 55.5,-367 58.5,-370 58.5,-373 58.5,-373 58.5,-379 58.5,-379 58.5,-382 55.5,-385 52.5,-385 52.5,-385 44.5,-385 44.5,-385 41.5,-385 38.5,-382 38.5,-379 38.5,-379 38.5,-373 38.5,-373 38.5,-370 41.5,-367 44.5,-367"/>
<path fill="none" stroke="black" d="M44.5,-367C44.5,-367 52.5,-367 52.5,-367 55.5,-367 58.5,-370 58.5,-373 58.5,-373 58.5,-379 58.5,-379 58.5,-382 55.5,-385 52.5,-385 52.5,-385 44.5,-385 44.5,-385 41.5,-385 38.5,-382 38.5,-379 38.5,-379 38.5,-373 38.5,-373 38.5,-370 41.5,-367 44.5,-367"/>
<text xml:space="preserve" text-anchor="start" x="47" y="-372.25" font-family="Arial" font-size="10.00"> </text>
<text xml:space="preserve" text-anchor="start" x="62.5" y="-372.25" font-family="Arial" font-size="10.00">Object</text>
<path fill="#c7b8e6" stroke="none" d="M101,-367C101,-367 109,-367 109,-367 112,-367 115,-370 115,-373 115,-373 115,-379 115,-379 115,-382 112,-385 109,-385 109,-385 101,-385 101,-385 98,-385 95,-382 95,-379 95,-379 95,-373 95,-373 95,-370 98,-367 101,-367"/>
<path fill="none" stroke="black" d="M101,-367C101,-367 109,-367 109,-367 112,-367 115,-370 115,-373 115,-373 115,-379 115,-379 115,-382 112,-385 109,-385 109,-385 101,-385 101,-385 98,-385 95,-382 95,-379 95,-379 95,-373 95,-373 95,-370 98,-367 101,-367"/>
<text xml:space="preserve" text-anchor="start" x="103.5" y="-372.25" font-family="Arial" font-size="10.00"> </text>
<text xml:space="preserve" text-anchor="start" x="119" y="-372.25" font-family="Arial" font-size="10.00">Attribute</text>
<path fill="#f5b8b8" stroke="none" d="M165.75,-367C165.75,-367 173.75,-367 173.75,-367 176.75,-367 179.75,-370 179.75,-373 179.75,-373 179.75,-379 179.75,-379 179.75,-382 176.75,-385 173.75,-385 173.75,-385 165.75,-385 165.75,-385 162.75,-385 159.75,-382 159.75,-379 159.75,-379 159.75,-373 159.75,-373 159.75,-370 162.75,-367 165.75,-367"/>
<path fill="none" stroke="black" d="M165.75,-367C165.75,-367 173.75,-367 173.75,-367 176.75,-367 179.75,-370 179.75,-373 179.75,-373 179.75,-379 179.75,-379 179.75,-382 176.75,-385 173.75,-385 173.75,-385 165.75,-385 165.75,-385 162.75,-385 159.75,-382 159.75,-379 159.75,-379 159.75,-373 159.75,-373 159.75,-370 162.75,-367 165.75,-367"/>
<text xml:space="preserve" text-anchor="start" x="168.25" y="-372.25" font-family="Arial" font-size="10.00"> </text>
<text xml:space="preserve" text-anchor="start" x="183.75" y="-372.25" font-family="Arial" font-size="10.00">Relationship</text>
<text xml:space="preserve" text-anchor="start" x="243.75" y="-373.5" font-family="Arial" font-weight="bold" font-size="10.00">(+)</text>
<text xml:space="preserve" text-anchor="start" x="255.75" y="-373.5" font-family="Arial" font-size="10.00"> increases complexity</text>
<text xml:space="preserve" text-anchor="start" x="357" y="-373.5" font-family="Arial" font-weight="bold" font-size="10.00">(−)</text>
<text xml:space="preserve" text-anchor="start" x="369" y="-373.5" font-family="Arial" font-size="10.00"> decreases complexity</text>
<!-- unknown.spirals -->
<g id="node1" class="node">
<title>unknown.spirals</title>
<path fill="#b8e6b8" stroke="#2c3e50" stroke-width="1.8" d="M42,-296C42,-296 12,-296 12,-296 6,-296 0,-290 0,-284 0,-284 0,-272 0,-272 0,-266 6,-260 12,-260 12,-260 42,-260 42,-260 48,-260 54,-266 54,-272 54,-272 54,-284 54,-284 54,-290 48,-296 42,-296"/>
<text xml:space="preserve" text-anchor="middle" x="27" y="-274.5" font-family="Arial" font-size="10.00" fill="#1a1a1a">spirals</text>
</g>
<!-- attr_0 -->
<g id="node5" class="node">
<title>attr_0</title>
<path fill="#c7b8e6" stroke="#7f8c8d" stroke-width="1.2" d="M205.25,-361C205.25,-361 126.25,-361 126.25,-361 120.25,-361 114.25,-355 114.25,-349 114.25,-349 114.25,-337 114.25,-337 114.25,-331 120.25,-325 126.25,-325 126.25,-325 205.25,-325 205.25,-325 211.25,-325 217.25,-331 217.25,-337 217.25,-337 217.25,-349 217.25,-349 217.25,-355 211.25,-361 205.25,-361"/>
<text xml:space="preserve" text-anchor="middle" x="165.75" y="-339.5" font-family="Arial" font-size="10.00" fill="#1a1a1a">(+) too many spirals</text>
</g>
<!-- unknown.spirals&#45;&gt;attr_0 -->
<g id="edge1" class="edge">
<title>unknown.spirals&#45;&gt;attr_0</title>
<path fill="none" stroke="#aaaaaa" d="M54.86,-290.88C67.62,-296.99 83.09,-304.39 97,-311 103.73,-314.2 110.84,-317.57 117.82,-320.87"/>
<polygon fill="#aaaaaa" stroke="#aaaaaa" points="116.58,-323 123.96,-323.77 118.68,-318.57 116.58,-323"/>
</g>
<!-- rel_0 -->
<g id="node10" class="node">
<title>rel_0</title>
<path fill="#f5b8b8" stroke="#d46a6a" stroke-width="1.2" d="M188,-231C188,-231 143.5,-231 143.5,-231 137.5,-231 131.5,-225 131.5,-219 131.5,-219 131.5,-207 131.5,-207 131.5,-201 137.5,-195 143.5,-195 143.5,-195 188,-195 188,-195 194,-195 200,-201 200,-207 200,-207 200,-219 200,-219 200,-225 194,-231 188,-231"/>
<text xml:space="preserve" text-anchor="middle" x="165.75" y="-209.5" font-family="Arial" font-size="10.00" fill="#8b0000">overwhelms</text>
</g>
<!-- unknown.spirals&#45;&gt;rel_0 -->
<g id="edge6" class="edge">
<title>unknown.spirals&#45;&gt;rel_0</title>
<path fill="none" stroke="#d46a6a" stroke-width="1.5" d="M54.69,-265.31C73.8,-256.23 99.94,-243.81 121.95,-233.34"/>
<polygon fill="#d46a6a" stroke="#d46a6a" stroke-width="1.5" points="123.02,-235.94 129.04,-229.97 120.62,-230.88 123.02,-235.94"/>
</g>
<!-- rel_1 -->
<g id="node11" class="node">
<title>rel_1</title>
<path fill="#f5b8b8" stroke="#d46a6a" stroke-width="1.2" d="M214.25,-296C214.25,-296 117.25,-296 117.25,-296 111.25,-296 105.25,-290 105.25,-284 105.25,-284 105.25,-272 105.25,-272 105.25,-266 111.25,-260 117.25,-260 117.25,-260 214.25,-260 214.25,-260 220.25,-260 226.25,-266 226.25,-272 226.25,-272 226.25,-284 226.25,-284 226.25,-290 220.25,-296 214.25,-296"/>
<text xml:space="preserve" text-anchor="middle" x="165.75" y="-274.5" font-family="Arial" font-size="10.00" fill="#8b0000">increases cognitive load</text>
</g>
<!-- unknown.spirals&#45;&gt;rel_1 -->
<g id="edge8" class="edge">
<title>unknown.spirals&#45;&gt;rel_1</title>
<path fill="none" stroke="#d46a6a" stroke-width="1.5" d="M54.69,-278C66.31,-278 80.53,-278 94.84,-278"/>
<polygon fill="#d46a6a" stroke="#d46a6a" stroke-width="1.5" points="94.46,-280.8 102.46,-278 94.46,-275.2 94.46,-280.8"/>
</g>
<!-- unknown.glyph -->
<g id="node2" class="node">
<title>unknown.glyph</title>
<path fill="#b8e6b8" stroke="#2c3e50" stroke-width="1.8" d="M42,-101C42,-101 12,-101 12,-101 6,-101 0,-95 0,-89 0,-89 0,-77 0,-77 0,-71 6,-65 12,-65 12,-65 42,-65 42,-65 48,-65 54,-71 54,-77 54,-77 54,-89 54,-89 54,-95 48,-101 42,-101"/>
<text xml:space="preserve" text-anchor="middle" x="27" y="-79.5" font-family="Arial" font-size="10.00" fill="#1a1a1a">glyph</text>
</g>
<!-- attr_1 -->
<g id="node6" class="node">
<title>attr_1</title>
<path fill="#c7b8e6" stroke="#7f8c8d" stroke-width="1.2" d="M211.25,-166C211.25,-166 120.25,-166 120.25,-166 114.25,-166 108.25,-160 108.25,-154 108.25,-154 108.25,-142 108.25,-142 108.25,-136 114.25,-130 120.25,-130 120.25,-130 211.25,-130 211.25,-130 217.25,-130 223.25,-136 223.25,-142 223.25,-142 223.25,-154 223.25,-154 223.25,-160 217.25,-166 211.25,-166"/>
<text xml:space="preserve" text-anchor="middle" x="165.75" y="-144.5" font-family="Arial" font-size="10.00" fill="#1a1a1a">(+) abstract spiral form</text>
</g>
<!-- unknown.glyph&#45;&gt;attr_1 -->
<g id="edge2" class="edge">
<title>unknown.glyph&#45;&gt;attr_1</title>
<path fill="none" stroke="#aaaaaa" d="M54.69,-95.69C72.69,-104.24 96.92,-115.76 118.06,-125.81"/>
<polygon fill="#aaaaaa" stroke="#aaaaaa" points="116.96,-128 124.33,-128.79 119.06,-123.57 116.96,-128"/>
</g>
<!-- attr_4 -->
<g id="node7" class="node">
<title>attr_4</title>
<path fill="#c7b8e6" stroke="#7f8c8d" stroke-width="1.2" d="M222.5,-101C222.5,-101 109,-101 109,-101 103,-101 97,-95 97,-89 97,-89 97,-77 97,-77 97,-71 103,-65 109,-65 109,-65 222.5,-65 222.5,-65 228.5,-65 234.5,-71 234.5,-77 234.5,-77 234.5,-89 234.5,-89 234.5,-95 228.5,-101 222.5,-101"/>
<text xml:space="preserve" text-anchor="middle" x="165.75" y="-79.5" font-family="Arial" font-size="10.00" fill="#1a1a1a">(+) unfamiliar encoding form</text>
</g>
<!-- unknown.glyph&#45;&gt;attr_4 -->
<g id="edge3" class="edge">
<title>unknown.glyph&#45;&gt;attr_4</title>
<path fill="none" stroke="#aaaaaa" d="M54.69,-83C64.48,-83 76.11,-83 88.09,-83"/>
<polygon fill="#aaaaaa" stroke="#aaaaaa" points="87.9,-85.45 94.9,-83 87.9,-80.55 87.9,-85.45"/>
</g>
<!-- rel_2 -->
<g id="node12" class="node">
<title>rel_2</title>
<path fill="#f5b8b8" stroke="#d46a6a" stroke-width="1.2" d="M207.5,-36C207.5,-36 124,-36 124,-36 118,-36 112,-30 112,-24 112,-24 112,-12 112,-12 112,-6 118,0 124,0 124,0 207.5,0 207.5,0 213.5,0 219.5,-6 219.5,-12 219.5,-12 219.5,-24 219.5,-24 219.5,-30 213.5,-36 207.5,-36"/>
<text xml:space="preserve" text-anchor="middle" x="165.75" y="-14.5" font-family="Arial" font-size="10.00" fill="#8b0000">requires expertise for</text>
</g>
<!-- unknown.glyph&#45;&gt;rel_2 -->
<g id="edge10" class="edge">
<title>unknown.glyph&#45;&gt;rel_2</title>
<path fill="none" stroke="#d46a6a" stroke-width="1.5" d="M54.86,-70.12C67.62,-64.01 83.09,-56.61 97,-50 103.3,-47.01 109.93,-43.86 116.48,-40.76"/>
<polygon fill="#d46a6a" stroke="#d46a6a" stroke-width="1.5" points="117.24,-43.5 123.27,-37.55 114.85,-38.44 117.24,-43.5"/>
</g>
<!-- structure.layout -->
<g id="node3" class="node">
<title>structure.layout</title>
<path fill="#b8e6b8" stroke="#2c3e50" stroke-width="1.8" d="M320.75,-133C320.75,-133 290.75,-133 290.75,-133 284.75,-133 278.75,-127 278.75,-121 278.75,-121 278.75,-109 278.75,-109 278.75,-103 284.75,-97 290.75,-97 290.75,-97 320.75,-97 320.75,-97 326.75,-97 332.75,-103 332.75,-109 332.75,-109 332.75,-121 332.75,-121 332.75,-127 326.75,-133 320.75,-133"/>
<text xml:space="preserve" text-anchor="middle" x="305.75" y="-111.5" font-family="Arial" font-size="10.00" fill="#1a1a1a">layout</text>
</g>
<!-- attr_2 -->
<g id="node8" class="node">
<title>attr_2</title>
<path fill="#c7b8e6" stroke="#7f8c8d" stroke-width="1.2" d="M495.75,-133C495.75,-133 389,-133 389,-133 383,-133 377,-127 377,-121 377,-121 377,-109 377,-109 377,-103 383,-97 389,-97 389,-97 495.75,-97 495.75,-97 501.75,-97 507.75,-103 507.75,-109 507.75,-109 507.75,-121 507.75,-121 507.75,-127 501.75,-133 495.75,-133"/>
<text xml:space="preserve" text-anchor="middle" x="442.38" y="-111.5" font-family="Arial" font-size="10.00" fill="#1a1a1a">(+) densely packed glyphs</text>
</g>
<!-- structure.layout&#45;&gt;attr_2 -->
<g id="edge4" class="edge">
<title>structure.layout&#45;&gt;attr_2</title>
<path fill="none" stroke="#aaaaaa" d="M333.35,-115C343.59,-115 355.86,-115 368.38,-115"/>
<polygon fill="#aaaaaa" stroke="#aaaaaa" points="368.12,-117.45 375.12,-115 368.12,-112.55 368.12,-117.45"/>
</g>
<!-- unknown.data_area -->
<g id="node4" class="node">
<title>unknown.data_area</title>
<path fill="#b8e6b8" stroke="#2c3e50" stroke-width="1.8" d="M322,-296C322,-296 289.5,-296 289.5,-296 283.5,-296 277.5,-290 277.5,-284 277.5,-284 277.5,-272 277.5,-272 277.5,-266 283.5,-260 289.5,-260 289.5,-260 322,-260 322,-260 328,-260 334,-266 334,-272 334,-272 334,-284 334,-284 334,-290 328,-296 322,-296"/>
<text xml:space="preserve" text-anchor="middle" x="305.75" y="-274.5" font-family="Arial" font-size="10.00" fill="#1a1a1a">data area</text>
</g>
<!-- attr_3 -->
<g id="node9" class="node">
<title>attr_3</title>
<path fill="#c7b8e6" stroke="#7f8c8d" stroke-width="1.2" d="M487.12,-296C487.12,-296 397.62,-296 397.62,-296 391.62,-296 385.62,-290 385.62,-284 385.62,-284 385.62,-272 385.62,-272 385.62,-266 391.62,-260 397.62,-260 397.62,-260 487.12,-260 487.12,-260 493.12,-260 499.12,-266 499.12,-272 499.12,-272 499.12,-284 499.12,-284 499.12,-290 493.12,-296 487.12,-296"/>
<text xml:space="preserve" text-anchor="middle" x="442.38" y="-274.5" font-family="Arial" font-size="10.00" fill="#1a1a1a">(+) high element count</text>
</g>
<!-- unknown.data_area&#45;&gt;attr_3 -->
<g id="edge5" class="edge">
<title>unknown.data_area&#45;&gt;attr_3</title>
<path fill="none" stroke="#aaaaaa" d="M334.64,-278C346.99,-278 362.07,-278 376.96,-278"/>
<polygon fill="#aaaaaa" stroke="#aaaaaa" points="376.68,-280.45 383.68,-278 376.68,-275.55 376.68,-280.45"/>
</g>
<!-- rel_0&#45;&gt;structure.layout -->
<g id="edge7" class="edge">
<title>rel_0&#45;&gt;structure.layout</title>
<path fill="none" stroke="#d46a6a" stroke-width="1.5" d="M200.57,-198.91C211.76,-193.64 224.03,-187.17 234.5,-180 251.01,-168.71 267.52,-153.66 280.39,-140.89"/>
<polygon fill="#d46a6a" stroke="#d46a6a" stroke-width="1.5" points="282.29,-142.95 285.92,-135.3 278.31,-139.02 282.29,-142.95"/>
</g>
<!-- rel_1&#45;&gt;unknown.data_area -->
<g id="edge9" class="edge">
<title>rel_1&#45;&gt;unknown.data_area</title>
<path fill="none" stroke="#d46a6a" stroke-width="1.5" d="M226.48,-278C240.13,-278 254.29,-278 266.74,-278"/>
<polygon fill="#d46a6a" stroke="#d46a6a" stroke-width="1.5" points="266.48,-280.8 274.48,-278 266.48,-275.2 266.48,-280.8"/>
</g>
<!-- rel_2&#45;&gt;structure.layout -->
<g id="edge11" class="edge">
<title>rel_2&#45;&gt;structure.layout</title>
<path fill="none" stroke="#d46a6a" stroke-width="1.5" d="M211.2,-36.6C219.19,-40.61 227.28,-45.12 234.5,-50 251.08,-61.19 267.6,-76.23 280.45,-89.02"/>
<polygon fill="#d46a6a" stroke="#d46a6a" stroke-width="1.5" points="278.36,-90.9 285.97,-94.63 282.35,-86.97 278.36,-90.9"/>
</g>
</g>
</svg>
