<?xml version="1.0" encoding="UTF-8" standalone="no"?>
<!DOCTYPE svg PUBLIC "-//W3C//DTD SVG 1.1//EN"
 "http://www.w3.org/Graphics/SVG/1.1/DTD/svg11.dtd">
<!-- Generated by graphviz version 14.1.5 (20260411.2331)
 -->
<!-- Title: VisC.375.2.png Pages: 1 -->
<svg width="1362pt" height="338pt"
 viewBox="0.00 0.00 1362.00 338.00" xmlns="http://www.w3.org/2000/svg" xmlns:xlink="http://www.w3.org/1999/xlink">
<g id="graph0" class="graph" transform="scale(1 1) rotate(0) translate(4 334.25)">
<title>VisC.375.2.png</title>
<polygon fill="white" stroke="none" points="-4,4 -4,-334.25 1358.25,-334.25 1358.25,4 -4,4"/>
<text xml:space="preserve" text-anchor="start" x="629.12" y="-309.95" font-family="Arial" font-weight="bold" font-size="14.00">VisC.375.2.png</text>
<text xml:space="preserve" text-anchor="start" x="632.5" y="-290" font-family="Arial" font-size="11.00">Point &#160;| &#160;VC = 0.76</text>
<path fill="#b8e6b8" stroke="none" d="M467.75,-265C467.75,-265 475.75,-265 475.75,-265 478.75,-265 481.75,-268 481.75,-271 481.75,-271 481.75,-277 481.75,-277 481.75,-280 478.75,-283 475.75,-283 475.75,-283 467.75,-283 467.75,-283 464.75,-283 461.75,-280 461.75,-277 461.75,-277 461.75,-271 461.75,-271 461.75,-268 464.75,-265 467.75,-265"/>
<path fill="none" stroke="black" d="M467.75,-265C467.75,-265 475.75,-265 475.75,-265 478.75,-265 481.75,-268 481.75,-271 481.75,-271 481.75,-277 481.75,-277 481.75,-280 478.75,-283 475.75,-283 475.75,-283 467.75,-283 467.75,-283 464.75,-283 461.75,-280 461.75,-277 461.75,-277 461.75,-271 461.75,-271 461.75,-268 464.75,-265 467.75,-265"/>
<text xml:space="preserve" text-anchor="start" x="470.25" y="-270.25" font-family="Arial" font-size="10.00"> </text>
<text xml:space="preserve" text-anchor="start" x="485.75" y="-270.25" font-family="Arial" font-size="10.00">Object</text>
<path fill="#c7b8e6" stroke="none" d="M524.25,-265C524.25,-265 532.25,-265 532.25,-265 535.25,-265 538.25,-268 538.25,-271 538.25,-271 538.25,-277 538.25,-277 538.25,-280 535.25,-283 532.25,-283 532.25,-283 524.25,-283 524.25,-283 521.25,-283 518.25,-280 518.25,-277 518.25,-277 518.25,-271 518.25,-271 518.25,-268 521.25,-265 524.25,-265"/>
<path fill="none" stroke="black" d="M524.25,-265C524.25,-265 532.25,-265 532.25,-265 535.25,-265 538.25,-268 538.25,-271 538.25,-271 538.25,-277 538.25,-277 538.25,-280 535.25,-283 532.25,-283 532.25,-283 524.25,-283 524.25,-283 521.25,-283 518.25,-280 518.25,-277 518.25,-277 518.25,-271 518.25,-271 518.25,-268 521.25,-265 524.25,-265"/>
<text xml:space="preserve" text-anchor="start" x="526.75" y="-270.25" font-family="Arial" font-size="10.00"> </text>
<text xml:space="preserve" text-anchor="start" x="542.25" y="-270.25" font-family="Arial" font-size="10.00">Attribute</text>
<path fill="#f5b8b8" stroke="none" d="M589,-265C589,-265 597,-265 597,-265 600,-265 603,-268 603,-271 603,-271 603,-277 603,-277 603,-280 600,-283 597,-283 597,-283 589,-283 589,-283 586,-283 583,-280 583,-277 583,-277 583,-271 583,-271 583,-268 586,-265 589,-265"/>
<path fill="none" stroke="black" d="M589,-265C589,-265 597,-265 597,-265 600,-265 603,-268 603,-271 603,-271 603,-277 603,-277 603,-280 600,-283 597,-283 597,-283 589,-283 589,-283 586,-283 583,-280 583,-277 583,-277 583,-271 583,-271 583,-268 586,-265 589,-265"/>
<text xml:space="preserve" text-anchor="start" x="591.5" y="-270.25" font-family="Arial" font-size="10.00"> </text>
<text xml:space="preserve" text-anchor="start" x="607" y="-270.25" font-family="Arial" font-size="10.00">Relationship</text>
<text xml:space="preserve" text-anchor="start" x="667" y="-271.5" font-family="Arial" font-weight="bold" font-size="10.00">(+)</text>
<text xml:space="preserve" text-anchor="start" x="679" y="-271.5" font-family="Arial" font-size="10.00"> increases complexity</text>
<text xml:space="preserve" text-anchor="start" x="780.25" y="-271.5" font-family="Arial" font-weight="bold" font-size="10.00">(−)</text>
<text xml:space="preserve" text-anchor="start" x="792.25" y="-271.5" font-family="Arial" font-size="10.00"> decreases complexity</text>
<!-- unknown.data_points -->
<g id="node1" class="node">
<title>unknown.data_points</title>
<path fill="#b8e6b8" stroke="#2c3e50" stroke-width="1.8" d="M917.25,-130C917.25,-130 877.25,-130 877.25,-130 871.25,-130 865.25,-124 865.25,-118 865.25,-118 865.25,-106 865.25,-106 865.25,-100 871.25,-94 877.25,-94 877.25,-94 917.25,-94 917.25,-94 923.25,-94 929.25,-100 929.25,-106 929.25,-106 929.25,-118 929.25,-118 929.25,-124 923.25,-130 917.25,-130"/>
<text xml:space="preserve" text-anchor="middle" x="897.25" y="-108.5" font-family="Arial" font-size="10.00" fill="#1a1a1a">data points</text>
</g>
<!-- attr_0 -->
<g id="node6" class="node">
<title>attr_0</title>
<path fill="#c7b8e6" stroke="#7f8c8d" stroke-width="1.2" d="M1084.25,-228C1084.25,-228 994.75,-228 994.75,-228 988.75,-228 982.75,-222 982.75,-216 982.75,-216 982.75,-204 982.75,-204 982.75,-198 988.75,-192 994.75,-192 994.75,-192 1084.25,-192 1084.25,-192 1090.25,-192 1096.25,-198 1096.25,-204 1096.25,-204 1096.25,-216 1096.25,-216 1096.25,-222 1090.25,-228 1084.25,-228"/>
<text xml:space="preserve" text-anchor="middle" x="1039.5" y="-206.5" font-family="Arial" font-size="10.00" fill="#1a1a1a">(+) dense many points</text>
</g>
<!-- unknown.data_points&#45;&gt;attr_0 -->
<g id="edge1" class="edge">
<title>unknown.data_points&#45;&gt;attr_0</title>
<path fill="none" stroke="#aaaaaa" d="M916.22,-130.64C930.51,-144.8 951.5,-164.13 972.25,-178 977.4,-181.44 982.98,-184.73 988.64,-187.8"/>
<polygon fill="#aaaaaa" stroke="#aaaaaa" points="987.15,-189.78 994.48,-190.86 989.42,-185.44 987.15,-189.78"/>
</g>
<!-- attr_1 -->
<g id="node7" class="node">
<title>attr_1</title>
<path fill="#c7b8e6" stroke="#7f8c8d" stroke-width="1.2" d="M1094.75,-163C1094.75,-163 984.25,-163 984.25,-163 978.25,-163 972.25,-157 972.25,-151 972.25,-151 972.25,-139 972.25,-139 972.25,-133 978.25,-127 984.25,-127 984.25,-127 1094.75,-127 1094.75,-127 1100.75,-127 1106.75,-133 1106.75,-139 1106.75,-139 1106.75,-151 1106.75,-151 1106.75,-157 1100.75,-163 1094.75,-163"/>
<text xml:space="preserve" text-anchor="middle" x="1039.5" y="-141.5" font-family="Arial" font-size="10.00" fill="#1a1a1a">(+) rich overlapping dataset</text>
</g>
<!-- unknown.data_points&#45;&gt;attr_1 -->
<g id="edge2" class="edge">
<title>unknown.data_points&#45;&gt;attr_1</title>
<path fill="none" stroke="#aaaaaa" d="M930.07,-119.49C940.19,-121.87 951.83,-124.61 963.66,-127.39"/>
<polygon fill="#aaaaaa" stroke="#aaaaaa" points="963.01,-129.75 970.38,-128.97 964.13,-124.98 963.01,-129.75"/>
</g>
<!-- rel_0 -->
<g id="node12" class="node">
<title>rel_0</title>
<path fill="#f5b8b8" stroke="#d46a6a" stroke-width="1.2" d="M1054.5,-98C1054.5,-98 1024.5,-98 1024.5,-98 1018.5,-98 1012.5,-92 1012.5,-86 1012.5,-86 1012.5,-74 1012.5,-74 1012.5,-68 1018.5,-62 1024.5,-62 1024.5,-62 1054.5,-62 1054.5,-62 1060.5,-62 1066.5,-68 1066.5,-74 1066.5,-74 1066.5,-86 1066.5,-86 1066.5,-92 1060.5,-98 1054.5,-98"/>
<text xml:space="preserve" text-anchor="middle" x="1039.5" y="-76.5" font-family="Arial" font-size="10.00" fill="#8b0000">creates</text>
</g>
<!-- unknown.data_points&#45;&gt;rel_0 -->
<g id="edge7" class="edge">
<title>unknown.data_points&#45;&gt;rel_0</title>
<path fill="none" stroke="#d46a6a" stroke-width="1.5" d="M930.07,-104.74C951.52,-99.85 979.86,-93.38 1002.19,-88.28"/>
<polygon fill="#d46a6a" stroke="#d46a6a" stroke-width="1.5" points="1002.59,-91.07 1009.76,-86.56 1001.34,-85.61 1002.59,-91.07"/>
</g>
<!-- unknown.color_encoding -->
<g id="node2" class="node">
<title>unknown.color_encoding</title>
<path fill="#b8e6b8" stroke="#2c3e50" stroke-width="1.8" d="M67,-226C67,-226 12,-226 12,-226 6,-226 0,-220 0,-214 0,-214 0,-202 0,-202 0,-196 6,-190 12,-190 12,-190 67,-190 67,-190 73,-190 79,-196 79,-202 79,-202 79,-214 79,-214 79,-220 73,-226 67,-226"/>
<text xml:space="preserve" text-anchor="middle" x="39.5" y="-204.5" font-family="Arial" font-size="10.00" fill="#1a1a1a">color encoding</text>
</g>
<!-- attr_2 -->
<g id="node8" class="node">
<title>attr_2</title>
<path fill="#c7b8e6" stroke="#7f8c8d" stroke-width="1.2" d="M215.25,-259C215.25,-259 134,-259 134,-259 128,-259 122,-253 122,-247 122,-247 122,-235 122,-235 122,-229 128,-223 134,-223 134,-223 215.25,-223 215.25,-223 221.25,-223 227.25,-229 227.25,-235 227.25,-235 227.25,-247 227.25,-247 227.25,-253 221.25,-259 215.25,-259"/>
<text xml:space="preserve" text-anchor="middle" x="174.62" y="-237.5" font-family="Arial" font-size="10.00" fill="#1a1a1a">(+) high color variety</text>
</g>
<!-- unknown.color_encoding&#45;&gt;attr_2 -->
<g id="edge3" class="edge">
<title>unknown.color_encoding&#45;&gt;attr_2</title>
<path fill="none" stroke="#aaaaaa" d="M79.72,-217.72C90.44,-220.38 102.3,-223.32 113.89,-226.19"/>
<polygon fill="#aaaaaa" stroke="#aaaaaa" points="112.99,-228.49 120.38,-227.8 114.17,-223.74 112.99,-228.49"/>
</g>
<!-- rel_1 -->
<g id="node13" class="node">
<title>rel_1</title>
<path fill="#f5b8b8" stroke="#d46a6a" stroke-width="1.2" d="M196.88,-194C196.88,-194 152.38,-194 152.38,-194 146.38,-194 140.38,-188 140.38,-182 140.38,-182 140.38,-170 140.38,-170 140.38,-164 146.38,-158 152.38,-158 152.38,-158 196.88,-158 196.88,-158 202.88,-158 208.88,-164 208.88,-170 208.88,-170 208.88,-182 208.88,-182 208.88,-188 202.88,-194 196.88,-194"/>
<text xml:space="preserve" text-anchor="middle" x="174.62" y="-172.5" font-family="Arial" font-size="10.00" fill="#8b0000">encodes via</text>
</g>
<!-- unknown.color_encoding&#45;&gt;rel_1 -->
<g id="edge9" class="edge">
<title>unknown.color_encoding&#45;&gt;rel_1</title>
<path fill="none" stroke="#d46a6a" stroke-width="1.5" d="M79.72,-198.57C95.6,-194.76 113.99,-190.33 130.27,-186.42"/>
<polygon fill="#d46a6a" stroke="#d46a6a" stroke-width="1.5" points="130.75,-189.18 137.88,-184.59 129.45,-183.74 130.75,-189.18"/>
</g>
<!-- unknown.shape_encoding -->
<g id="node3" class="node">
<title>unknown.shape_encoding</title>
<path fill="#b8e6b8" stroke="#2c3e50" stroke-width="1.8" d="M342.5,-194C342.5,-194 282.25,-194 282.25,-194 276.25,-194 270.25,-188 270.25,-182 270.25,-182 270.25,-170 270.25,-170 270.25,-164 276.25,-158 282.25,-158 282.25,-158 342.5,-158 342.5,-158 348.5,-158 354.5,-164 354.5,-170 354.5,-170 354.5,-182 354.5,-182 354.5,-188 348.5,-194 342.5,-194"/>
<text xml:space="preserve" text-anchor="middle" x="312.38" y="-172.5" font-family="Arial" font-size="10.00" fill="#1a1a1a">shape encoding</text>
</g>
<!-- attr_3 -->
<g id="node9" class="node">
<title>attr_3</title>
<path fill="#c7b8e6" stroke="#7f8c8d" stroke-width="1.2" d="M517,-227C517,-227 409.5,-227 409.5,-227 403.5,-227 397.5,-221 397.5,-215 397.5,-215 397.5,-203 397.5,-203 397.5,-197 403.5,-191 409.5,-191 409.5,-191 517,-191 517,-191 523,-191 529,-197 529,-203 529,-203 529,-215 529,-215 529,-221 523,-227 517,-227"/>
<text xml:space="preserve" text-anchor="middle" x="463.25" y="-205.5" font-family="Arial" font-size="10.00" fill="#1a1a1a">(+) multiple shape subsets</text>
</g>
<!-- unknown.shape_encoding&#45;&gt;attr_3 -->
<g id="edge4" class="edge">
<title>unknown.shape_encoding&#45;&gt;attr_3</title>
<path fill="none" stroke="#aaaaaa" d="M355.24,-185.28C365.79,-187.62 377.43,-190.2 389.03,-192.77"/>
<polygon fill="#aaaaaa" stroke="#aaaaaa" points="388.2,-195.1 395.56,-194.22 389.26,-190.31 388.2,-195.1"/>
</g>
<!-- rel_4 -->
<g id="node16" class="node">
<title>rel_4</title>
<path fill="#f5b8b8" stroke="#d46a6a" stroke-width="1.2" d="M513.62,-162C513.62,-162 412.88,-162 412.88,-162 406.88,-162 400.88,-156 400.88,-150 400.88,-150 400.88,-138 400.88,-138 400.88,-132 406.88,-126 412.88,-126 412.88,-126 513.62,-126 513.62,-126 519.62,-126 525.62,-132 525.62,-138 525.62,-138 525.62,-150 525.62,-150 525.62,-156 519.62,-162 513.62,-162"/>
<text xml:space="preserve" text-anchor="middle" x="463.25" y="-140.5" font-family="Arial" font-size="10.00" fill="#8b0000">increases decoding effort</text>
</g>
<!-- unknown.shape_encoding&#45;&gt;rel_4 -->
<g id="edge15" class="edge">
<title>unknown.shape_encoding&#45;&gt;rel_4</title>
<path fill="none" stroke="#d46a6a" stroke-width="1.5" d="M355.24,-167C366.3,-164.62 378.56,-161.99 390.71,-159.38"/>
<polygon fill="#d46a6a" stroke="#d46a6a" stroke-width="1.5" points="390.96,-162.19 398.19,-157.77 389.78,-156.71 390.96,-162.19"/>
</g>
<!-- unknown.y_axis -->
<g id="node4" class="node">
<title>unknown.y_axis</title>
<path fill="#b8e6b8" stroke="#2c3e50" stroke-width="1.8" d="M1191.75,-98C1191.75,-98 1161.75,-98 1161.75,-98 1155.75,-98 1149.75,-92 1149.75,-86 1149.75,-86 1149.75,-74 1149.75,-74 1149.75,-68 1155.75,-62 1161.75,-62 1161.75,-62 1191.75,-62 1191.75,-62 1197.75,-62 1203.75,-68 1203.75,-74 1203.75,-74 1203.75,-86 1203.75,-86 1203.75,-92 1197.75,-98 1191.75,-98"/>
<text xml:space="preserve" text-anchor="middle" x="1176.75" y="-76.5" font-family="Arial" font-size="10.00" fill="#1a1a1a">y axis</text>
</g>
<!-- attr_4 -->
<g id="node10" class="node">
<title>attr_4</title>
<path fill="#c7b8e6" stroke="#7f8c8d" stroke-width="1.2" d="M1336.62,-101C1336.62,-101 1264.38,-101 1264.38,-101 1258.38,-101 1252.38,-95 1252.38,-89 1252.38,-89 1252.38,-77 1252.38,-77 1252.38,-71 1258.38,-65 1264.38,-65 1264.38,-65 1336.62,-65 1336.62,-65 1342.62,-65 1348.62,-71 1348.62,-77 1348.62,-77 1348.62,-89 1348.62,-89 1348.62,-95 1342.62,-101 1336.62,-101"/>
<text xml:space="preserve" text-anchor="middle" x="1300.5" y="-79.5" font-family="Arial" font-size="10.00" fill="#1a1a1a">(+) nonlinear scale</text>
</g>
<!-- unknown.y_axis&#45;&gt;attr_4 -->
<g id="edge5" class="edge">
<title>unknown.y_axis&#45;&gt;attr_4</title>
<path fill="none" stroke="#aaaaaa" d="M1204.47,-80.66C1216.06,-80.94 1230.1,-81.29 1243.79,-81.63"/>
<polygon fill="#aaaaaa" stroke="#aaaaaa" points="1243.67,-84.07 1250.72,-81.8 1243.79,-79.18 1243.67,-84.07"/>
</g>
<!-- rel_3 -->
<g id="node15" class="node">
<title>rel_3</title>
<path fill="#f5b8b8" stroke="#d46a6a" stroke-width="1.2" d="M1342.25,-36C1342.25,-36 1258.75,-36 1258.75,-36 1252.75,-36 1246.75,-30 1246.75,-24 1246.75,-24 1246.75,-12 1246.75,-12 1246.75,-6 1252.75,0 1258.75,0 1258.75,0 1342.25,0 1342.25,0 1348.25,0 1354.25,-6 1354.25,-12 1354.25,-12 1354.25,-24 1354.25,-24 1354.25,-30 1348.25,-36 1342.25,-36"/>
<text xml:space="preserve" text-anchor="middle" x="1300.5" y="-14.5" font-family="Arial" font-size="10.00" fill="#8b0000">requires expertise for</text>
</g>
<!-- unknown.y_axis&#45;&gt;rel_3 -->
<g id="edge13" class="edge">
<title>unknown.y_axis&#45;&gt;rel_3</title>
<path fill="none" stroke="#d46a6a" stroke-width="1.5" d="M1204.47,-66.39C1219,-59 1237.36,-49.64 1254.07,-41.13"/>
<polygon fill="#d46a6a" stroke="#d46a6a" stroke-width="1.5" points="1255.26,-43.67 1261.12,-37.54 1252.72,-38.68 1255.26,-43.67"/>
</g>
<!-- furniture.legend -->
<g id="node5" class="node">
<title>furniture.legend</title>
<path fill="#b8e6b8" stroke="#2c3e50" stroke-width="1.8" d="M614,-162C614,-162 584,-162 584,-162 578,-162 572,-156 572,-150 572,-150 572,-138 572,-138 572,-132 578,-126 584,-126 584,-126 614,-126 614,-126 620,-126 626,-132 626,-138 626,-138 626,-150 626,-150 626,-156 620,-162 614,-162"/>
<text xml:space="preserve" text-anchor="middle" x="599" y="-140.5" font-family="Arial" font-size="10.00" fill="#1a1a1a">legend</text>
</g>
<!-- attr_5 -->
<g id="node11" class="node">
<title>attr_5</title>
<path fill="#c7b8e6" stroke="#7f8c8d" stroke-width="1.2" d="M810.25,-195C810.25,-195 681,-195 681,-195 675,-195 669,-189 669,-183 669,-183 669,-171 669,-171 669,-165 675,-159 681,-159 681,-159 810.25,-159 810.25,-159 816.25,-159 822.25,-165 822.25,-171 822.25,-171 822.25,-183 822.25,-183 822.25,-189 816.25,-195 810.25,-195"/>
<text xml:space="preserve" text-anchor="middle" x="745.62" y="-173.5" font-family="Arial" font-size="10.00" fill="#1a1a1a">(+) adds interpretive complexity</text>
</g>
<!-- furniture.legend&#45;&gt;attr_5 -->
<g id="edge6" class="edge">
<title>furniture.legend&#45;&gt;attr_5</title>
<path fill="none" stroke="#aaaaaa" d="M626.86,-150.13C636.65,-152.36 648.3,-155.02 660.41,-157.78"/>
<polygon fill="#aaaaaa" stroke="#aaaaaa" points="659.57,-160.1 666.94,-159.27 660.66,-155.33 659.57,-160.1"/>
</g>
<!-- rel_2 -->
<g id="node14" class="node">
<title>rel_2</title>
<path fill="#f5b8b8" stroke="#d46a6a" stroke-width="1.2" d="M767.88,-130C767.88,-130 723.38,-130 723.38,-130 717.38,-130 711.38,-124 711.38,-118 711.38,-118 711.38,-106 711.38,-106 711.38,-100 717.38,-94 723.38,-94 723.38,-94 767.88,-94 767.88,-94 773.88,-94 779.88,-100 779.88,-106 779.88,-106 779.88,-118 779.88,-118 779.88,-124 773.88,-130 767.88,-130"/>
<text xml:space="preserve" text-anchor="middle" x="745.62" y="-108.5" font-family="Arial" font-size="10.00" fill="#8b0000">overwhelms</text>
</g>
<!-- furniture.legend&#45;&gt;rel_2 -->
<g id="edge11" class="edge">
<title>furniture.legend&#45;&gt;rel_2</title>
<path fill="none" stroke="#d46a6a" stroke-width="1.5" d="M626.86,-138.06C647.66,-133.45 676.9,-126.98 701.04,-121.64"/>
<polygon fill="#d46a6a" stroke="#d46a6a" stroke-width="1.5" points="701.61,-124.39 708.81,-119.92 700.4,-118.92 701.61,-124.39"/>
</g>
<!-- rel_0&#45;&gt;unknown.y_axis -->
<g id="edge8" class="edge">
<title>rel_0&#45;&gt;unknown.y_axis</title>
<path fill="none" stroke="#d46a6a" stroke-width="1.5" d="M1066.9,-80C1087.43,-80 1116.16,-80 1138.95,-80"/>
<polygon fill="#d46a6a" stroke="#d46a6a" stroke-width="1.5" points="1138.69,-82.8 1146.69,-80 1138.69,-77.2 1138.69,-82.8"/>
</g>
<!-- rel_1&#45;&gt;unknown.shape_encoding -->
<g id="edge10" class="edge">
<title>rel_1&#45;&gt;unknown.shape_encoding</title>
<path fill="none" stroke="#d46a6a" stroke-width="1.5" d="M209.18,-176C224.27,-176 242.42,-176 259.21,-176"/>
<polygon fill="#d46a6a" stroke="#d46a6a" stroke-width="1.5" points="259.19,-178.8 267.19,-176 259.19,-173.2 259.19,-178.8"/>
</g>
<!-- rel_2&#45;&gt;unknown.data_points -->
<g id="edge12" class="edge">
<title>rel_2&#45;&gt;unknown.data_points</title>
<path fill="none" stroke="#d46a6a" stroke-width="1.5" d="M780.2,-112C802.19,-112 831.1,-112 854.56,-112"/>
<polygon fill="#d46a6a" stroke="#d46a6a" stroke-width="1.5" points="854.3,-114.8 862.3,-112 854.3,-109.2 854.3,-114.8"/>
</g>
<!-- rel_3&#45;&gt;unknown.data_points -->
<g id="edge14" class="edge">
<title>rel_3&#45;&gt;unknown.data_points</title>
<path fill="none" stroke="#d46a6a" stroke-width="1.5" d="M1246.34,-12.86C1179.5,-8.57 1062.57,-8.33 972.25,-47 952.22,-55.58 933.8,-71.71 920.35,-85.77"/>
<polygon fill="#d46a6a" stroke="#d46a6a" stroke-width="1.5" points="918.31,-83.85 914.94,-91.63 922.43,-87.64 918.31,-83.85"/>
</g>
<!-- rel_4&#45;&gt;furniture.legend -->
<g id="edge16" class="edge">
<title>rel_4&#45;&gt;furniture.legend</title>
<path fill="none" stroke="#d46a6a" stroke-width="1.5" d="M526.04,-144C538.07,-144 550.32,-144 561.23,-144"/>
<polygon fill="#d46a6a" stroke="#d46a6a" stroke-width="1.5" points="560.95,-146.8 568.95,-144 560.95,-141.2 560.95,-146.8"/>
</g>
</g>
</svg>
