<?xml version="1.0" encoding="UTF-8" standalone="no"?>
<!DOCTYPE svg PUBLIC "-//W3C//DTD SVG 1.1//EN"
 "http://www.w3.org/Graphics/SVG/1.1/DTD/svg11.dtd">
<!-- Generated by graphviz version 14.1.5 (20260411.2331)
 -->
<!-- Title: VisC.147.8(2).png Pages: 1 -->
<svg width="484pt" height="567pt"
 viewBox="0.00 0.00 484.00 567.00" xmlns="http://www.w3.org/2000/svg" xmlns:xlink="http://www.w3.org/1999/xlink">
<g id="graph0" class="graph" transform="scale(1 1) rotate(0) translate(4 563.25)">
<title>VisC.147.8(2).png</title>
<polygon fill="white" stroke="none" points="-4,4 -4,-563.25 480.25,-563.25 480.25,4 -4,4"/>
<text xml:space="preserve" text-anchor="start" x="181.88" y="-538.95" font-family="Arial" font-weight="bold" font-size="14.00">VisC.147.8(2).png</text>
<text xml:space="preserve" text-anchor="start" x="195.75" y="-519" font-family="Arial" font-size="11.00">Grid &#160;| &#160;VC = 0.40</text>
<path fill="#b8e6b8" stroke="none" d="M28.75,-494C28.75,-494 36.75,-494 36.75,-494 39.75,-494 42.75,-497 42.75,-500 42.75,-500 42.75,-506 42.75,-506 42.75,-509 39.75,-512 36.75,-512 36.75,-512 28.75,-512 28.75,-512 25.75,-512 22.75,-509 22.75,-506 22.75,-506 22.75,-500 22.75,-500 22.75,-497 25.75,-494 28.75,-494"/>
<path fill="none" stroke="black" d="M28.75,-494C28.75,-494 36.75,-494 36.75,-494 39.75,-494 42.75,-497 42.75,-500 42.75,-500 42.75,-506 42.75,-506 42.75,-509 39.75,-512 36.75,-512 36.75,-512 28.75,-512 28.75,-512 25.75,-512 22.75,-509 22.75,-506 22.75,-506 22.75,-500 22.75,-500 22.75,-497 25.75,-494 28.75,-494"/>
<text xml:space="preserve" text-anchor="start" x="31.25" y="-499.25" font-family="Arial" font-size="10.00"> </text>
<text xml:space="preserve" text-anchor="start" x="46.75" y="-499.25" font-family="Arial" font-size="10.00">Object</text>
<path fill="#c7b8e6" stroke="none" d="M85.25,-494C85.25,-494 93.25,-494 93.25,-494 96.25,-494 99.25,-497 99.25,-500 99.25,-500 99.25,-506 99.25,-506 99.25,-509 96.25,-512 93.25,-512 93.25,-512 85.25,-512 85.25,-512 82.25,-512 79.25,-509 79.25,-506 79.25,-506 79.25,-500 79.25,-500 79.25,-497 82.25,-494 85.25,-494"/>
<path fill="none" stroke="black" d="M85.25,-494C85.25,-494 93.25,-494 93.25,-494 96.25,-494 99.25,-497 99.25,-500 99.25,-500 99.25,-506 99.25,-506 99.25,-509 96.25,-512 93.25,-512 93.25,-512 85.25,-512 85.25,-512 82.25,-512 79.25,-509 79.25,-506 79.25,-506 79.25,-500 79.25,-500 79.25,-497 82.25,-494 85.25,-494"/>
<text xml:space="preserve" text-anchor="start" x="87.75" y="-499.25" font-family="Arial" font-size="10.00"> </text>
<text xml:space="preserve" text-anchor="start" x="103.25" y="-499.25" font-family="Arial" font-size="10.00">Attribute</text>
<path fill="#f5b8b8" stroke="none" d="M150,-494C150,-494 158,-494 158,-494 161,-494 164,-497 164,-500 164,-500 164,-506 164,-506 164,-509 161,-512 158,-512 158,-512 150,-512 150,-512 147,-512 144,-509 144,-506 144,-506 144,-500 144,-500 144,-497 147,-494 150,-494"/>
<path fill="none" stroke="black" d="M150,-494C150,-494 158,-494 158,-494 161,-494 164,-497 164,-500 164,-500 164,-506 164,-506 164,-509 161,-512 158,-512 158,-512 150,-512 150,-512 147,-512 144,-509 144,-506 144,-506 144,-500 144,-500 144,-497 147,-494 150,-494"/>
<text xml:space="preserve" text-anchor="start" x="152.5" y="-499.25" font-family="Arial" font-size="10.00"> </text>
<text xml:space="preserve" text-anchor="start" x="168" y="-499.25" font-family="Arial" font-size="10.00">Relationship</text>
<text xml:space="preserve" text-anchor="start" x="228" y="-500.5" font-family="Arial" font-weight="bold" font-size="10.00">(+)</text>
<text xml:space="preserve" text-anchor="start" x="240" y="-500.5" font-family="Arial" font-size="10.00"> increases complexity</text>
<text xml:space="preserve" text-anchor="start" x="341.25" y="-500.5" font-family="Arial" font-weight="bold" font-size="10.00">(−)</text>
<text xml:space="preserve" text-anchor="start" x="353.25" y="-500.5" font-family="Arial" font-size="10.00"> decreases complexity</text>
<!-- mark.symbol -->
<g id="node1" class="node">
<title>mark.symbol</title>
<path fill="#b8e6b8" stroke="#2c3e50" stroke-width="1.8" d="M42,-361C42,-361 12,-361 12,-361 6,-361 0,-355 0,-349 0,-349 0,-337 0,-337 0,-331 6,-325 12,-325 12,-325 42,-325 42,-325 48,-325 54,-331 54,-337 54,-337 54,-349 54,-349 54,-355 48,-361 42,-361"/>
<text xml:space="preserve" text-anchor="middle" x="27" y="-339.5" font-family="Arial" font-size="10.00" fill="#1a1a1a">symbol</text>
</g>
<!-- attr_0 -->
<g id="node5" class="node">
<title>attr_0</title>
<path fill="#c7b8e6" stroke="#7f8c8d" stroke-width="1.2" d="M197,-296C197,-296 121,-296 121,-296 115,-296 109,-290 109,-284 109,-284 109,-272 109,-272 109,-266 115,-260 121,-260 121,-260 197,-260 197,-260 203,-260 209,-266 209,-272 209,-272 209,-284 209,-284 209,-290 203,-296 197,-296"/>
<text xml:space="preserve" text-anchor="middle" x="159" y="-274.5" font-family="Arial" font-size="10.00" fill="#1a1a1a">(+) purpose unclear</text>
</g>
<!-- mark.symbol&#45;&gt;attr_0 -->
<g id="edge1" class="edge">
<title>mark.symbol&#45;&gt;attr_0</title>
<path fill="none" stroke="#aaaaaa" d="M54.62,-329.69C71.62,-321.19 94.06,-309.97 113.7,-300.15"/>
<polygon fill="#aaaaaa" stroke="#aaaaaa" points="114.55,-302.47 119.71,-297.14 112.36,-298.08 114.55,-302.47"/>
</g>
<!-- attr_3 -->
<g id="node6" class="node">
<title>attr_3</title>
<path fill="#c7b8e6" stroke="#7f8c8d" stroke-width="1.2" d="M209,-231C209,-231 109,-231 109,-231 103,-231 97,-225 97,-219 97,-219 97,-207 97,-207 97,-201 103,-195 109,-195 109,-195 209,-195 209,-195 215,-195 221,-201 221,-207 221,-207 221,-219 221,-219 221,-225 215,-231 209,-231"/>
<text xml:space="preserve" text-anchor="middle" x="159" y="-209.5" font-family="Arial" font-size="10.00" fill="#1a1a1a">(+) unfamiliar visual form</text>
</g>
<!-- mark.symbol&#45;&gt;attr_3 -->
<g id="edge2" class="edge">
<title>mark.symbol&#45;&gt;attr_3</title>
<path fill="none" stroke="#aaaaaa" d="M37.85,-324.27C49.66,-303.18 71.15,-268.87 97,-246 101.12,-242.36 105.71,-238.96 110.48,-235.84"/>
<polygon fill="#aaaaaa" stroke="#aaaaaa" points="111.59,-238.03 116.26,-232.27 109.02,-233.87 111.59,-238.03"/>
</g>
<!-- rel_0 -->
<g id="node10" class="node">
<title>rel_0</title>
<path fill="#f5b8b8" stroke="#d46a6a" stroke-width="1.2" d="M198.12,-485C198.12,-485 119.88,-485 119.88,-485 113.88,-485 107.88,-479 107.88,-473 107.88,-473 107.88,-461 107.88,-461 107.88,-455 113.88,-449 119.88,-449 119.88,-449 198.12,-449 198.12,-449 204.12,-449 210.12,-455 210.12,-461 210.12,-461 210.12,-473 210.12,-473 210.12,-479 204.12,-485 198.12,-485"/>
<text xml:space="preserve" text-anchor="middle" x="159" y="-463.5" font-family="Arial" font-size="10.00" fill="#8b0000">lacks explanation in</text>
</g>
<!-- mark.symbol&#45;&gt;rel_0 -->
<g id="edge6" class="edge">
<title>mark.symbol&#45;&gt;rel_0</title>
<path fill="none" stroke="#d46a6a" stroke-width="1.5" d="M40.84,-361.75C53.73,-379.75 74.81,-407.08 97,-427 103.3,-432.66 110.47,-438.09 117.62,-443.02"/>
<polygon fill="#d46a6a" stroke="#d46a6a" stroke-width="1.5" points="115.86,-445.21 124.07,-447.31 118.96,-440.55 115.86,-445.21"/>
</g>
<!-- rel_3 -->
<g id="node13" class="node">
<title>rel_3</title>
<path fill="#f5b8b8" stroke="#d46a6a" stroke-width="1.2" d="M195.5,-361C195.5,-361 122.5,-361 122.5,-361 116.5,-361 110.5,-355 110.5,-349 110.5,-349 110.5,-337 110.5,-337 110.5,-331 116.5,-325 122.5,-325 122.5,-325 195.5,-325 195.5,-325 201.5,-325 207.5,-331 207.5,-337 207.5,-337 207.5,-349 207.5,-349 207.5,-355 201.5,-361 195.5,-361"/>
<text xml:space="preserve" text-anchor="middle" x="159" y="-339.5" font-family="Arial" font-size="10.00" fill="#8b0000">increases effort for</text>
</g>
<!-- mark.symbol&#45;&gt;rel_3 -->
<g id="edge12" class="edge">
<title>mark.symbol&#45;&gt;rel_3</title>
<path fill="none" stroke="#d46a6a" stroke-width="1.5" d="M54.62,-343C67.72,-343 84.06,-343 99.86,-343"/>
<polygon fill="#d46a6a" stroke="#d46a6a" stroke-width="1.5" points="99.85,-345.8 107.85,-343 99.85,-340.2 99.85,-345.8"/>
</g>
<!-- unknown.shading -->
<g id="node2" class="node">
<title>unknown.shading</title>
<path fill="#b8e6b8" stroke="#2c3e50" stroke-width="1.8" d="M42,-101C42,-101 12,-101 12,-101 6,-101 0,-95 0,-89 0,-89 0,-77 0,-77 0,-71 6,-65 12,-65 12,-65 42,-65 42,-65 48,-65 54,-71 54,-77 54,-77 54,-89 54,-89 54,-95 48,-101 42,-101"/>
<text xml:space="preserve" text-anchor="middle" x="27" y="-79.5" font-family="Arial" font-size="10.00" fill="#1a1a1a">shading</text>
</g>
<!-- attr_1 -->
<g id="node7" class="node">
<title>attr_1</title>
<path fill="#c7b8e6" stroke="#7f8c8d" stroke-width="1.2" d="M208.25,-36C208.25,-36 109.75,-36 109.75,-36 103.75,-36 97.75,-30 97.75,-24 97.75,-24 97.75,-12 97.75,-12 97.75,-6 103.75,0 109.75,0 109.75,0 208.25,0 208.25,0 214.25,0 220.25,-6 220.25,-12 220.25,-12 220.25,-24 220.25,-24 220.25,-30 214.25,-36 208.25,-36"/>
<text xml:space="preserve" text-anchor="middle" x="159" y="-14.5" font-family="Arial" font-size="10.00" fill="#1a1a1a">(+) meaning unexplained</text>
</g>
<!-- unknown.shading&#45;&gt;attr_1 -->
<g id="edge3" class="edge">
<title>unknown.shading&#45;&gt;attr_1</title>
<path fill="none" stroke="#aaaaaa" d="M54.62,-69.69C71.62,-61.19 94.06,-49.97 113.7,-40.15"/>
<polygon fill="#aaaaaa" stroke="#aaaaaa" points="114.55,-42.47 119.71,-37.14 112.36,-38.08 114.55,-42.47"/>
</g>
<!-- attr_4 -->
<g id="node8" class="node">
<title>attr_4</title>
<path fill="#c7b8e6" stroke="#7f8c8d" stroke-width="1.2" d="M207.12,-166C207.12,-166 110.88,-166 110.88,-166 104.88,-166 98.88,-160 98.88,-154 98.88,-154 98.88,-142 98.88,-142 98.88,-136 104.88,-130 110.88,-130 110.88,-130 207.12,-130 207.12,-130 213.12,-130 219.12,-136 219.12,-142 219.12,-142 219.12,-154 219.12,-154 219.12,-160 213.12,-166 207.12,-166"/>
<text xml:space="preserve" text-anchor="middle" x="159" y="-144.5" font-family="Arial" font-size="10.00" fill="#1a1a1a">(+) ambiguous encoding</text>
</g>
<!-- unknown.shading&#45;&gt;attr_4 -->
<g id="edge4" class="edge">
<title>unknown.shading&#45;&gt;attr_4</title>
<path fill="none" stroke="#aaaaaa" d="M54.62,-96.31C71.62,-104.81 94.06,-116.03 113.7,-125.85"/>
<polygon fill="#aaaaaa" stroke="#aaaaaa" points="112.36,-127.92 119.71,-128.86 114.55,-123.53 112.36,-127.92"/>
</g>
<!-- rel_1 -->
<g id="node11" class="node">
<title>rel_1</title>
<path fill="#f5b8b8" stroke="#d46a6a" stroke-width="1.2" d="M200,-101C200,-101 118,-101 118,-101 112,-101 106,-95 106,-89 106,-89 106,-77 106,-77 106,-71 112,-65 118,-65 118,-65 200,-65 200,-65 206,-65 212,-71 212,-77 212,-77 212,-89 212,-89 212,-95 206,-101 200,-101"/>
<text xml:space="preserve" text-anchor="middle" x="159" y="-79.5" font-family="Arial" font-size="10.00" fill="#8b0000">obscures meaning in</text>
</g>
<!-- unknown.shading&#45;&gt;rel_1 -->
<g id="edge8" class="edge">
<title>unknown.shading&#45;&gt;rel_1</title>
<path fill="none" stroke="#d46a6a" stroke-width="1.5" d="M54.62,-83C66.57,-83 81.22,-83 95.69,-83"/>
<polygon fill="#d46a6a" stroke="#d46a6a" stroke-width="1.5" points="95.37,-85.8 103.37,-83 95.37,-80.2 95.37,-85.8"/>
</g>
<!-- furniture.legend -->
<g id="node3" class="node">
<title>furniture.legend</title>
<path fill="#b8e6b8" stroke="#2c3e50" stroke-width="1.8" d="M307.25,-485C307.25,-485 277.25,-485 277.25,-485 271.25,-485 265.25,-479 265.25,-473 265.25,-473 265.25,-461 265.25,-461 265.25,-455 271.25,-449 277.25,-449 277.25,-449 307.25,-449 307.25,-449 313.25,-449 319.25,-455 319.25,-461 319.25,-461 319.25,-473 319.25,-473 319.25,-479 313.25,-485 307.25,-485"/>
<text xml:space="preserve" text-anchor="middle" x="292.25" y="-463.5" font-family="Arial" font-size="10.00" fill="#1a1a1a">legend</text>
</g>
<!-- attr_2 -->
<g id="node9" class="node">
<title>attr_2</title>
<path fill="#c7b8e6" stroke="#7f8c8d" stroke-width="1.2" d="M464.25,-488C464.25,-488 375.5,-488 375.5,-488 369.5,-488 363.5,-482 363.5,-476 363.5,-476 363.5,-464 363.5,-464 363.5,-458 369.5,-452 375.5,-452 375.5,-452 464.25,-452 464.25,-452 470.25,-452 476.25,-458 476.25,-464 476.25,-464 476.25,-476 476.25,-476 476.25,-482 470.25,-488 464.25,-488"/>
<text xml:space="preserve" text-anchor="middle" x="419.88" y="-466.5" font-family="Arial" font-size="10.00" fill="#1a1a1a">(+) insufficient context</text>
</g>
<!-- furniture.legend&#45;&gt;attr_2 -->
<g id="edge5" class="edge">
<title>furniture.legend&#45;&gt;attr_2</title>
<path fill="none" stroke="#aaaaaa" d="M319.89,-467.64C330.13,-467.88 342.32,-468.17 354.58,-468.46"/>
<polygon fill="#aaaaaa" stroke="#aaaaaa" points="354.49,-470.91 361.55,-468.63 354.61,-466.01 354.49,-470.91"/>
</g>
<!-- rel_2 -->
<g id="node12" class="node">
<title>rel_2</title>
<path fill="#f5b8b8" stroke="#d46a6a" stroke-width="1.2" d="M445.12,-423C445.12,-423 394.62,-423 394.62,-423 388.62,-423 382.62,-417 382.62,-411 382.62,-411 382.62,-399 382.62,-399 382.62,-393 388.62,-387 394.62,-387 394.62,-387 445.12,-387 445.12,-387 451.12,-387 457.12,-393 457.12,-399 457.12,-399 457.12,-411 457.12,-411 457.12,-417 451.12,-423 445.12,-423"/>
<text xml:space="preserve" text-anchor="middle" x="419.88" y="-401.5" font-family="Arial" font-size="10.00" fill="#8b0000">fails to clarify</text>
</g>
<!-- furniture.legend&#45;&gt;rel_2 -->
<g id="edge10" class="edge">
<title>furniture.legend&#45;&gt;rel_2</title>
<path fill="none" stroke="#d46a6a" stroke-width="1.5" d="M319.89,-453.85C335.35,-446.22 355.24,-436.41 373.13,-427.58"/>
<polygon fill="#d46a6a" stroke="#d46a6a" stroke-width="1.5" points="374.29,-430.12 380.23,-424.07 371.82,-425.1 374.29,-430.12"/>
</g>
<!-- unknown.data_area -->
<g id="node4" class="node">
<title>unknown.data_area</title>
<path fill="#b8e6b8" stroke="#2c3e50" stroke-width="1.8" d="M308.5,-231C308.5,-231 276,-231 276,-231 270,-231 264,-225 264,-219 264,-219 264,-207 264,-207 264,-201 270,-195 276,-195 276,-195 308.5,-195 308.5,-195 314.5,-195 320.5,-201 320.5,-207 320.5,-207 320.5,-219 320.5,-219 320.5,-225 314.5,-231 308.5,-231"/>
<text xml:space="preserve" text-anchor="middle" x="292.25" y="-209.5" font-family="Arial" font-size="10.00" fill="#1a1a1a">data area</text>
</g>
<!-- rel_0&#45;&gt;furniture.legend -->
<g id="edge7" class="edge">
<title>rel_0&#45;&gt;furniture.legend</title>
<path fill="none" stroke="#d46a6a" stroke-width="1.5" d="M210.37,-467C225.12,-467 240.95,-467 254.67,-467"/>
<polygon fill="#d46a6a" stroke="#d46a6a" stroke-width="1.5" points="254.42,-469.8 262.42,-467 254.42,-464.2 254.42,-469.8"/>
</g>
<!-- rel_1&#45;&gt;unknown.data_area -->
<g id="edge9" class="edge">
<title>rel_1&#45;&gt;unknown.data_area</title>
<path fill="none" stroke="#d46a6a" stroke-width="1.5" d="M200.41,-101.52C207.65,-105.74 214.84,-110.6 221,-116 243.74,-135.94 263.32,-164.54 275.99,-185.52"/>
<polygon fill="#d46a6a" stroke="#d46a6a" stroke-width="1.5" points="273.52,-186.85 280,-192.33 278.35,-184.01 273.52,-186.85"/>
</g>
<!-- rel_2&#45;&gt;mark.symbol -->
<g id="edge11" class="edge">
<title>rel_2&#45;&gt;mark.symbol</title>
<path fill="none" stroke="#d46a6a" stroke-width="1.5" d="M382.41,-405.88C321.95,-406.42 197.63,-403.63 97,-376 85.71,-372.9 74.01,-368.02 63.53,-362.96"/>
<polygon fill="#d46a6a" stroke="#d46a6a" stroke-width="1.5" points="65.1,-360.61 56.69,-359.52 62.58,-365.61 65.1,-360.61"/>
</g>
<!-- rel_3&#45;&gt;unknown.data_area -->
<g id="edge13" class="edge">
<title>rel_3&#45;&gt;unknown.data_area</title>
<path fill="none" stroke="#d46a6a" stroke-width="1.5" d="M201.72,-324.48C208.53,-320.54 215.23,-316.02 221,-311 244.11,-290.89 263.76,-261.75 276.35,-240.47"/>
<polygon fill="#d46a6a" stroke="#d46a6a" stroke-width="1.5" points="278.76,-241.89 280.33,-233.56 273.91,-239.1 278.76,-241.89"/>
</g>
</g>
</svg>
