<?xml version="1.0" encoding="UTF-8" standalone="no"?>
<!DOCTYPE svg PUBLIC "-//W3C//DTD SVG 1.1//EN"
 "http://www.w3.org/Graphics/SVG/1.1/DTD/svg11.dtd">
<!-- Generated by graphviz version 14.1.5 (20260411.2331)
 -->
<!-- Title: VisC.389.1(3).png Pages: 1 -->
<svg width="834pt" height="440pt"
 viewBox="0.00 0.00 834.00 440.00" xmlns="http://www.w3.org/2000/svg" xmlns:xlink="http://www.w3.org/1999/xlink">
<g id="graph0" class="graph" transform="scale(1 1) rotate(0) translate(4 436.25)">
<title>VisC.389.1(3).png</title>
<polygon fill="white" stroke="none" points="-4,4 -4,-436.25 830,-436.25 830,4 -4,4"/>
<text xml:space="preserve" text-anchor="start" x="356.75" y="-411.95" font-family="Arial" font-weight="bold" font-size="14.00">VisC.389.1(3).png</text>
<text xml:space="preserve" text-anchor="start" x="357.88" y="-392" font-family="Arial" font-size="11.00">Node&#45;link &#160;| &#160;VC = 0.55</text>
<path fill="#b8e6b8" stroke="none" d="M203.62,-367C203.62,-367 211.62,-367 211.62,-367 214.62,-367 217.62,-370 217.62,-373 217.62,-373 217.62,-379 217.62,-379 217.62,-382 214.62,-385 211.62,-385 211.62,-385 203.62,-385 203.62,-385 200.62,-385 197.62,-382 197.62,-379 197.62,-379 197.62,-373 197.62,-373 197.62,-370 200.62,-367 203.62,-367"/>
<path fill="none" stroke="black" d="M203.62,-367C203.62,-367 211.62,-367 211.62,-367 214.62,-367 217.62,-370 217.62,-373 217.62,-373 217.62,-379 217.62,-379 217.62,-382 214.62,-385 211.62,-385 211.62,-385 203.62,-385 203.62,-385 200.62,-385 197.62,-382 197.62,-379 197.62,-379 197.62,-373 197.62,-373 197.62,-370 200.62,-367 203.62,-367"/>
<text xml:space="preserve" text-anchor="start" x="206.12" y="-372.25" font-family="Arial" font-size="10.00"> </text>
<text xml:space="preserve" text-anchor="start" x="221.62" y="-372.25" font-family="Arial" font-size="10.00">Object</text>
<path fill="#c7b8e6" stroke="none" d="M260.12,-367C260.12,-367 268.12,-367 268.12,-367 271.12,-367 274.12,-370 274.12,-373 274.12,-373 274.12,-379 274.12,-379 274.12,-382 271.12,-385 268.12,-385 268.12,-385 260.12,-385 260.12,-385 257.12,-385 254.12,-382 254.12,-379 254.12,-379 254.12,-373 254.12,-373 254.12,-370 257.12,-367 260.12,-367"/>
<path fill="none" stroke="black" d="M260.12,-367C260.12,-367 268.12,-367 268.12,-367 271.12,-367 274.12,-370 274.12,-373 274.12,-373 274.12,-379 274.12,-379 274.12,-382 271.12,-385 268.12,-385 268.12,-385 260.12,-385 260.12,-385 257.12,-385 254.12,-382 254.12,-379 254.12,-379 254.12,-373 254.12,-373 254.12,-370 257.12,-367 260.12,-367"/>
<text xml:space="preserve" text-anchor="start" x="262.62" y="-372.25" font-family="Arial" font-size="10.00"> </text>
<text xml:space="preserve" text-anchor="start" x="278.12" y="-372.25" font-family="Arial" font-size="10.00">Attribute</text>
<path fill="#f5b8b8" stroke="none" d="M324.88,-367C324.88,-367 332.88,-367 332.88,-367 335.88,-367 338.88,-370 338.88,-373 338.88,-373 338.88,-379 338.88,-379 338.88,-382 335.88,-385 332.88,-385 332.88,-385 324.88,-385 324.88,-385 321.88,-385 318.88,-382 318.88,-379 318.88,-379 318.88,-373 318.88,-373 318.88,-370 321.88,-367 324.88,-367"/>
<path fill="none" stroke="black" d="M324.88,-367C324.88,-367 332.88,-367 332.88,-367 335.88,-367 338.88,-370 338.88,-373 338.88,-373 338.88,-379 338.88,-379 338.88,-382 335.88,-385 332.88,-385 332.88,-385 324.88,-385 324.88,-385 321.88,-385 318.88,-382 318.88,-379 318.88,-379 318.88,-373 318.88,-373 318.88,-370 321.88,-367 324.88,-367"/>
<text xml:space="preserve" text-anchor="start" x="327.38" y="-372.25" font-family="Arial" font-size="10.00"> </text>
<text xml:space="preserve" text-anchor="start" x="342.88" y="-372.25" font-family="Arial" font-size="10.00">Relationship</text>
<text xml:space="preserve" text-anchor="start" x="402.88" y="-373.5" font-family="Arial" font-weight="bold" font-size="10.00">(+)</text>
<text xml:space="preserve" text-anchor="start" x="414.88" y="-373.5" font-family="Arial" font-size="10.00"> increases complexity</text>
<text xml:space="preserve" text-anchor="start" x="516.12" y="-373.5" font-family="Arial" font-weight="bold" font-size="10.00">(−)</text>
<text xml:space="preserve" text-anchor="start" x="528.12" y="-373.5" font-family="Arial" font-size="10.00"> decreases complexity</text>
<!-- unknown.left_graph -->
<g id="node1" class="node">
<title>unknown.left_graph</title>
<path fill="#b8e6b8" stroke="#2c3e50" stroke-width="1.8" d="M345.25,-166C345.25,-166 312.75,-166 312.75,-166 306.75,-166 300.75,-160 300.75,-154 300.75,-154 300.75,-142 300.75,-142 300.75,-136 306.75,-130 312.75,-130 312.75,-130 345.25,-130 345.25,-130 351.25,-130 357.25,-136 357.25,-142 357.25,-142 357.25,-154 357.25,-154 357.25,-160 351.25,-166 345.25,-166"/>
<text xml:space="preserve" text-anchor="middle" x="329" y="-144.5" font-family="Arial" font-size="10.00" fill="#1a1a1a">left graph</text>
</g>
<!-- attr_0 -->
<g id="node6" class="node">
<title>attr_0</title>
<path fill="#c7b8e6" stroke="#7f8c8d" stroke-width="1.2" d="M546,-231C546,-231 412.25,-231 412.25,-231 406.25,-231 400.25,-225 400.25,-219 400.25,-219 400.25,-207 400.25,-207 400.25,-201 406.25,-195 412.25,-195 412.25,-195 546,-195 546,-195 552,-195 558,-201 558,-207 558,-207 558,-219 558,-219 558,-225 552,-231 546,-231"/>
<text xml:space="preserve" text-anchor="middle" x="479.12" y="-209.5" font-family="Arial" font-size="10.00" fill="#1a1a1a">(+) less straightforward structure</text>
</g>
<!-- unknown.left_graph&#45;&gt;attr_0 -->
<g id="edge1" class="edge">
<title>unknown.left_graph&#45;&gt;attr_0</title>
<path fill="none" stroke="#aaaaaa" d="M357.89,-161.49C370.72,-167.59 386.19,-174.81 400.25,-181 408.03,-184.43 416.3,-187.95 424.44,-191.34"/>
<polygon fill="#aaaaaa" stroke="#aaaaaa" points="423.04,-193.42 430.45,-193.84 424.92,-188.89 423.04,-193.42"/>
</g>
<!-- attr_1 -->
<g id="node7" class="node">
<title>attr_1</title>
<path fill="#c7b8e6" stroke="#7f8c8d" stroke-width="1.2" d="M526.88,-166C526.88,-166 431.38,-166 431.38,-166 425.38,-166 419.38,-160 419.38,-154 419.38,-154 419.38,-142 419.38,-142 419.38,-136 425.38,-130 431.38,-130 431.38,-130 526.88,-130 526.88,-130 532.88,-130 538.88,-136 538.88,-142 538.88,-142 538.88,-154 538.88,-154 538.88,-160 532.88,-166 526.88,-166"/>
<text xml:space="preserve" text-anchor="middle" x="479.12" y="-144.5" font-family="Arial" font-size="10.00" fill="#1a1a1a">(+) more details present</text>
</g>
<!-- unknown.left_graph&#45;&gt;attr_1 -->
<g id="edge2" class="edge">
<title>unknown.left_graph&#45;&gt;attr_1</title>
<path fill="none" stroke="#aaaaaa" d="M357.86,-148C372.76,-148 391.81,-148 410.33,-148"/>
<polygon fill="#aaaaaa" stroke="#aaaaaa" points="410.28,-150.45 417.28,-148 410.28,-145.55 410.28,-150.45"/>
</g>
<!-- rel_0 -->
<g id="node12" class="node">
<title>rel_0</title>
<path fill="#f5b8b8" stroke="#d46a6a" stroke-width="1.2" d="M522,-101C522,-101 436.25,-101 436.25,-101 430.25,-101 424.25,-95 424.25,-89 424.25,-89 424.25,-77 424.25,-77 424.25,-71 430.25,-65 436.25,-65 436.25,-65 522,-65 522,-65 528,-65 534,-71 534,-77 534,-77 534,-89 534,-89 534,-95 528,-101 522,-101"/>
<text xml:space="preserve" text-anchor="middle" x="479.12" y="-79.5" font-family="Arial" font-size="10.00" fill="#8b0000">is more complex than</text>
</g>
<!-- unknown.left_graph&#45;&gt;rel_0 -->
<g id="edge7" class="edge">
<title>unknown.left_graph&#45;&gt;rel_0</title>
<path fill="none" stroke="#d46a6a" stroke-width="1.5" d="M357.95,-135.06C370.8,-129.17 386.26,-122.15 400.25,-116 408.16,-112.52 416.55,-108.9 424.78,-105.38"/>
<polygon fill="#d46a6a" stroke="#d46a6a" stroke-width="1.5" points="425.62,-108.07 431.88,-102.36 423.42,-102.92 425.62,-108.07"/>
</g>
<!-- unknown.right_graph -->
<g id="node2" class="node">
<title>unknown.right_graph</title>
<path fill="#b8e6b8" stroke="#2c3e50" stroke-width="1.8" d="M650.75,-101C650.75,-101 613,-101 613,-101 607,-101 601,-95 601,-89 601,-89 601,-77 601,-77 601,-71 607,-65 613,-65 613,-65 650.75,-65 650.75,-65 656.75,-65 662.75,-71 662.75,-77 662.75,-77 662.75,-89 662.75,-89 662.75,-95 656.75,-101 650.75,-101"/>
<text xml:space="preserve" text-anchor="middle" x="631.88" y="-79.5" font-family="Arial" font-size="10.00" fill="#1a1a1a">right graph</text>
</g>
<!-- attr_2 -->
<g id="node8" class="node">
<title>attr_2</title>
<path fill="#c7b8e6" stroke="#7f8c8d" stroke-width="1.2" d="M814,-101C814,-101 717.75,-101 717.75,-101 711.75,-101 705.75,-95 705.75,-89 705.75,-89 705.75,-77 705.75,-77 705.75,-71 711.75,-65 717.75,-65 717.75,-65 814,-65 814,-65 820,-65 826,-71 826,-77 826,-77 826,-89 826,-89 826,-95 820,-101 814,-101"/>
<text xml:space="preserve" text-anchor="middle" x="765.88" y="-79.5" font-family="Arial" font-size="10.00" fill="#1a1a1a">(−) simpler less detailed</text>
</g>
<!-- unknown.right_graph&#45;&gt;attr_2 -->
<g id="edge3" class="edge">
<title>unknown.right_graph&#45;&gt;attr_2</title>
<path fill="none" stroke="#aaaaaa" d="M663.49,-83C673.54,-83 685.15,-83 696.84,-83"/>
<polygon fill="#aaaaaa" stroke="#aaaaaa" points="696.83,-85.45 703.83,-83 696.83,-80.55 696.83,-85.45"/>
</g>
<!-- unknown.nodes -->
<g id="node3" class="node">
<title>unknown.nodes</title>
<path fill="#b8e6b8" stroke="#2c3e50" stroke-width="1.8" d="M42,-199C42,-199 12,-199 12,-199 6,-199 0,-193 0,-187 0,-187 0,-175 0,-175 0,-169 6,-163 12,-163 12,-163 42,-163 42,-163 48,-163 54,-169 54,-175 54,-175 54,-187 54,-187 54,-193 48,-199 42,-199"/>
<text xml:space="preserve" text-anchor="middle" x="27" y="-177.5" font-family="Arial" font-size="10.00" fill="#1a1a1a">nodes</text>
</g>
<!-- attr_3 -->
<g id="node9" class="node">
<title>attr_3</title>
<path fill="#c7b8e6" stroke="#7f8c8d" stroke-width="1.2" d="M245.75,-231C245.75,-231 109,-231 109,-231 103,-231 97,-225 97,-219 97,-219 97,-207 97,-207 97,-201 103,-195 109,-195 109,-195 245.75,-195 245.75,-195 251.75,-195 257.75,-201 257.75,-207 257.75,-207 257.75,-219 257.75,-219 257.75,-225 251.75,-231 245.75,-231"/>
<text xml:space="preserve" text-anchor="middle" x="177.38" y="-209.5" font-family="Arial" font-size="10.00" fill="#1a1a1a">(+) multiple interconnected nodes</text>
</g>
<!-- unknown.nodes&#45;&gt;attr_3 -->
<g id="edge4" class="edge">
<title>unknown.nodes&#45;&gt;attr_3</title>
<path fill="none" stroke="#aaaaaa" d="M54.87,-186.79C64.67,-188.91 76.35,-191.43 88.55,-194.06"/>
<polygon fill="#aaaaaa" stroke="#aaaaaa" points="87.78,-196.4 95.14,-195.48 88.81,-191.61 87.78,-196.4"/>
</g>
<!-- rel_2 -->
<g id="node14" class="node">
<title>rel_2</title>
<path fill="#f5b8b8" stroke="#d46a6a" stroke-width="1.2" d="M221.75,-166C221.75,-166 133,-166 133,-166 127,-166 121,-160 121,-154 121,-154 121,-142 121,-142 121,-136 127,-130 133,-130 133,-130 221.75,-130 221.75,-130 227.75,-130 233.75,-136 233.75,-142 233.75,-142 233.75,-154 233.75,-154 233.75,-160 227.75,-166 221.75,-166"/>
<text xml:space="preserve" text-anchor="middle" x="177.38" y="-144.5" font-family="Arial" font-size="10.00" fill="#8b0000">contributes to detail of</text>
</g>
<!-- unknown.nodes&#45;&gt;rel_2 -->
<g id="edge11" class="edge">
<title>unknown.nodes&#45;&gt;rel_2</title>
<path fill="none" stroke="#d46a6a" stroke-width="1.5" d="M54.87,-175.02C70.52,-171.54 90.98,-166.99 110.64,-162.62"/>
<polygon fill="#d46a6a" stroke="#d46a6a" stroke-width="1.5" points="111.09,-165.39 118.3,-160.92 109.88,-159.92 111.09,-165.39"/>
</g>
<!-- unknown.edges -->
<g id="node4" class="node">
<title>unknown.edges</title>
<path fill="#b8e6b8" stroke="#2c3e50" stroke-width="1.8" d="M42,-328C42,-328 12,-328 12,-328 6,-328 0,-322 0,-316 0,-316 0,-304 0,-304 0,-298 6,-292 12,-292 12,-292 42,-292 42,-292 48,-292 54,-298 54,-304 54,-304 54,-316 54,-316 54,-322 48,-328 42,-328"/>
<text xml:space="preserve" text-anchor="middle" x="27" y="-306.5" font-family="Arial" font-size="10.00" fill="#1a1a1a">edges</text>
</g>
<!-- attr_4 -->
<g id="node10" class="node">
<title>attr_4</title>
<path fill="#c7b8e6" stroke="#7f8c8d" stroke-width="1.2" d="M223.62,-361C223.62,-361 131.12,-361 131.12,-361 125.12,-361 119.12,-355 119.12,-349 119.12,-349 119.12,-337 119.12,-337 119.12,-331 125.12,-325 131.12,-325 131.12,-325 223.62,-325 223.62,-325 229.62,-325 235.62,-331 235.62,-337 235.62,-337 235.62,-349 235.62,-349 235.62,-355 229.62,-361 223.62,-361"/>
<text xml:space="preserve" text-anchor="middle" x="177.38" y="-339.5" font-family="Arial" font-size="10.00" fill="#1a1a1a">(+) dense link structure</text>
</g>
<!-- unknown.edges&#45;&gt;attr_4 -->
<g id="edge5" class="edge">
<title>unknown.edges&#45;&gt;attr_4</title>
<path fill="none" stroke="#aaaaaa" d="M54.87,-315.98C70.5,-319.45 90.95,-324 110.6,-328.37"/>
<polygon fill="#aaaaaa" stroke="#aaaaaa" points="109.82,-330.71 117.18,-329.83 110.88,-325.92 109.82,-330.71"/>
</g>
<!-- rel_1 -->
<g id="node13" class="node">
<title>rel_1</title>
<path fill="#f5b8b8" stroke="#d46a6a" stroke-width="1.2" d="M214.62,-296C214.62,-296 140.12,-296 140.12,-296 134.12,-296 128.12,-290 128.12,-284 128.12,-284 128.12,-272 128.12,-272 128.12,-266 134.12,-260 140.12,-260 140.12,-260 214.62,-260 214.62,-260 220.62,-260 226.62,-266 226.62,-272 226.62,-272 226.62,-284 226.62,-284 226.62,-290 220.62,-296 214.62,-296"/>
<text xml:space="preserve" text-anchor="middle" x="177.38" y="-274.5" font-family="Arial" font-size="10.00" fill="#8b0000">increases clutter in</text>
</g>
<!-- unknown.edges&#45;&gt;rel_1 -->
<g id="edge9" class="edge">
<title>unknown.edges&#45;&gt;rel_1</title>
<path fill="none" stroke="#d46a6a" stroke-width="1.5" d="M54.87,-304.21C72.47,-300.41 96.16,-295.3 117.95,-290.6"/>
<polygon fill="#d46a6a" stroke="#d46a6a" stroke-width="1.5" points="118.35,-293.38 125.58,-288.95 117.17,-287.9 118.35,-293.38"/>
</g>
<!-- structure.layout -->
<g id="node5" class="node">
<title>structure.layout</title>
<path fill="#b8e6b8" stroke="#2c3e50" stroke-width="1.8" d="M42,-69C42,-69 12,-69 12,-69 6,-69 0,-63 0,-57 0,-57 0,-45 0,-45 0,-39 6,-33 12,-33 12,-33 42,-33 42,-33 48,-33 54,-39 54,-45 54,-45 54,-57 54,-57 54,-63 48,-69 42,-69"/>
<text xml:space="preserve" text-anchor="middle" x="27" y="-47.5" font-family="Arial" font-size="10.00" fill="#1a1a1a">layout</text>
</g>
<!-- attr_5 -->
<g id="node11" class="node">
<title>attr_5</title>
<path fill="#c7b8e6" stroke="#7f8c8d" stroke-width="1.2" d="M234.88,-101C234.88,-101 119.88,-101 119.88,-101 113.88,-101 107.88,-95 107.88,-89 107.88,-89 107.88,-77 107.88,-77 107.88,-71 113.88,-65 119.88,-65 119.88,-65 234.88,-65 234.88,-65 240.88,-65 246.88,-71 246.88,-77 246.88,-77 246.88,-89 246.88,-89 246.88,-95 240.88,-101 234.88,-101"/>
<text xml:space="preserve" text-anchor="middle" x="177.38" y="-79.5" font-family="Arial" font-size="10.00" fill="#1a1a1a">(+) non intuitive organization</text>
</g>
<!-- structure.layout&#45;&gt;attr_5 -->
<g id="edge6" class="edge">
<title>structure.layout&#45;&gt;attr_5</title>
<path fill="none" stroke="#aaaaaa" d="M54.87,-56.79C67.46,-59.51 83.16,-62.9 99.06,-66.33"/>
<polygon fill="#aaaaaa" stroke="#aaaaaa" points="98.54,-68.72 105.9,-67.8 99.57,-63.93 98.54,-68.72"/>
</g>
<!-- rel_3 -->
<g id="node15" class="node">
<title>rel_3</title>
<path fill="#f5b8b8" stroke="#d46a6a" stroke-width="1.2" d="M219.88,-36C219.88,-36 134.88,-36 134.88,-36 128.88,-36 122.88,-30 122.88,-24 122.88,-24 122.88,-12 122.88,-12 122.88,-6 128.88,0 134.88,0 134.88,0 219.88,0 219.88,0 225.88,0 231.88,-6 231.88,-12 231.88,-12 231.88,-24 231.88,-24 231.88,-30 225.88,-36 219.88,-36"/>
<text xml:space="preserve" text-anchor="middle" x="177.38" y="-14.5" font-family="Arial" font-size="10.00" fill="#8b0000">reduces readability of</text>
</g>
<!-- structure.layout&#45;&gt;rel_3 -->
<g id="edge13" class="edge">
<title>structure.layout&#45;&gt;rel_3</title>
<path fill="none" stroke="#d46a6a" stroke-width="1.5" d="M54.87,-45.02C71.02,-41.43 92.3,-36.7 112.53,-32.2"/>
<polygon fill="#d46a6a" stroke="#d46a6a" stroke-width="1.5" points="112.94,-34.98 120.14,-30.51 111.72,-29.51 112.94,-34.98"/>
</g>
<!-- rel_0&#45;&gt;unknown.right_graph -->
<g id="edge8" class="edge">
<title>rel_0&#45;&gt;unknown.right_graph</title>
<path fill="none" stroke="#d46a6a" stroke-width="1.5" d="M534.55,-83C552.85,-83 572.94,-83 590.01,-83"/>
<polygon fill="#d46a6a" stroke="#d46a6a" stroke-width="1.5" points="589.94,-85.8 597.94,-83 589.94,-80.2 589.94,-85.8"/>
</g>
<!-- rel_1&#45;&gt;unknown.left_graph -->
<g id="edge10" class="edge">
<title>rel_1&#45;&gt;unknown.left_graph</title>
<path fill="none" stroke="#d46a6a" stroke-width="1.5" d="M226.92,-263.49C237.71,-258.93 248.64,-253.16 257.75,-246 282.09,-226.87 301.75,-197.14 314.02,-175.44"/>
<polygon fill="#d46a6a" stroke="#d46a6a" stroke-width="1.5" points="316.33,-177.04 317.72,-168.68 311.42,-174.35 316.33,-177.04"/>
</g>
<!-- rel_2&#45;&gt;unknown.left_graph -->
<g id="edge12" class="edge">
<title>rel_2&#45;&gt;unknown.left_graph</title>
<path fill="none" stroke="#d46a6a" stroke-width="1.5" d="M234.09,-148C252.67,-148 272.93,-148 289.86,-148"/>
<polygon fill="#d46a6a" stroke="#d46a6a" stroke-width="1.5" points="289.66,-150.8 297.66,-148 289.66,-145.2 289.66,-150.8"/>
</g>
<!-- rel_3&#45;&gt;unknown.left_graph -->
<g id="edge14" class="edge">
<title>rel_3&#45;&gt;unknown.left_graph</title>
<path fill="none" stroke="#d46a6a" stroke-width="1.5" d="M232.29,-35.65C241.28,-39.9 250.14,-44.98 257.75,-51 281.62,-69.87 301.16,-98.87 313.51,-120.24"/>
<polygon fill="#d46a6a" stroke="#d46a6a" stroke-width="1.5" points="311.05,-121.58 317.41,-127.19 315.94,-118.85 311.05,-121.58"/>
</g>
</g>
</svg>
