<?xml version="1.0" encoding="UTF-8" standalone="no"?>
<!DOCTYPE svg PUBLIC "-//W3C//DTD SVG 1.1//EN"
 "http://www.w3.org/Graphics/SVG/1.1/DTD/svg11.dtd">
<!-- Generated by graphviz version 14.1.5 (20260411.2331)
 -->
<!-- Title: VisC.383.7.png Pages: 1 -->
<svg width="1130pt" height="310pt"
 viewBox="0.00 0.00 1130.00 310.00" xmlns="http://www.w3.org/2000/svg" xmlns:xlink="http://www.w3.org/1999/xlink">
<g id="graph0" class="graph" transform="scale(1 1) rotate(0) translate(4 306.25)">
<title>VisC.383.7.png</title>
<polygon fill="white" stroke="none" points="-4,4 -4,-306.25 1125.75,-306.25 1125.75,4 -4,4"/>
<text xml:space="preserve" text-anchor="start" x="512.88" y="-281.95" font-family="Arial" font-weight="bold" font-size="14.00">VisC.383.7.png</text>
<text xml:space="preserve" text-anchor="start" x="505.75" y="-262" font-family="Arial" font-size="11.00">Node&#45;link &#160;| &#160;VC = 0.92</text>
<path fill="#b8e6b8" stroke="none" d="M351.5,-237C351.5,-237 359.5,-237 359.5,-237 362.5,-237 365.5,-240 365.5,-243 365.5,-243 365.5,-249 365.5,-249 365.5,-252 362.5,-255 359.5,-255 359.5,-255 351.5,-255 351.5,-255 348.5,-255 345.5,-252 345.5,-249 345.5,-249 345.5,-243 345.5,-243 345.5,-240 348.5,-237 351.5,-237"/>
<path fill="none" stroke="black" d="M351.5,-237C351.5,-237 359.5,-237 359.5,-237 362.5,-237 365.5,-240 365.5,-243 365.5,-243 365.5,-249 365.5,-249 365.5,-252 362.5,-255 359.5,-255 359.5,-255 351.5,-255 351.5,-255 348.5,-255 345.5,-252 345.5,-249 345.5,-249 345.5,-243 345.5,-243 345.5,-240 348.5,-237 351.5,-237"/>
<text xml:space="preserve" text-anchor="start" x="354" y="-242.25" font-family="Arial" font-size="10.00"> </text>
<text xml:space="preserve" text-anchor="start" x="369.5" y="-242.25" font-family="Arial" font-size="10.00">Object</text>
<path fill="#c7b8e6" stroke="none" d="M408,-237C408,-237 416,-237 416,-237 419,-237 422,-240 422,-243 422,-243 422,-249 422,-249 422,-252 419,-255 416,-255 416,-255 408,-255 408,-255 405,-255 402,-252 402,-249 402,-249 402,-243 402,-243 402,-240 405,-237 408,-237"/>
<path fill="none" stroke="black" d="M408,-237C408,-237 416,-237 416,-237 419,-237 422,-240 422,-243 422,-243 422,-249 422,-249 422,-252 419,-255 416,-255 416,-255 408,-255 408,-255 405,-255 402,-252 402,-249 402,-249 402,-243 402,-243 402,-240 405,-237 408,-237"/>
<text xml:space="preserve" text-anchor="start" x="410.5" y="-242.25" font-family="Arial" font-size="10.00"> </text>
<text xml:space="preserve" text-anchor="start" x="426" y="-242.25" font-family="Arial" font-size="10.00">Attribute</text>
<path fill="#f5b8b8" stroke="none" d="M472.75,-237C472.75,-237 480.75,-237 480.75,-237 483.75,-237 486.75,-240 486.75,-243 486.75,-243 486.75,-249 486.75,-249 486.75,-252 483.75,-255 480.75,-255 480.75,-255 472.75,-255 472.75,-255 469.75,-255 466.75,-252 466.75,-249 466.75,-249 466.75,-243 466.75,-243 466.75,-240 469.75,-237 472.75,-237"/>
<path fill="none" stroke="black" d="M472.75,-237C472.75,-237 480.75,-237 480.75,-237 483.75,-237 486.75,-240 486.75,-243 486.75,-243 486.75,-249 486.75,-249 486.75,-252 483.75,-255 480.75,-255 480.75,-255 472.75,-255 472.75,-255 469.75,-255 466.75,-252 466.75,-249 466.75,-249 466.75,-243 466.75,-243 466.75,-240 469.75,-237 472.75,-237"/>
<text xml:space="preserve" text-anchor="start" x="475.25" y="-242.25" font-family="Arial" font-size="10.00"> </text>
<text xml:space="preserve" text-anchor="start" x="490.75" y="-242.25" font-family="Arial" font-size="10.00">Relationship</text>
<text xml:space="preserve" text-anchor="start" x="550.75" y="-243.5" font-family="Arial" font-weight="bold" font-size="10.00">(+)</text>
<text xml:space="preserve" text-anchor="start" x="562.75" y="-243.5" font-family="Arial" font-size="10.00"> increases complexity</text>
<text xml:space="preserve" text-anchor="start" x="664" y="-243.5" font-family="Arial" font-weight="bold" font-size="10.00">(−)</text>
<text xml:space="preserve" text-anchor="start" x="676" y="-243.5" font-family="Arial" font-size="10.00"> decreases complexity</text>
<!-- unknown.node_cluster -->
<g id="node1" class="node">
<title>unknown.node_cluster</title>
<path fill="#b8e6b8" stroke="#2c3e50" stroke-width="1.8" d="M314.12,-36C314.12,-36 268.88,-36 268.88,-36 262.88,-36 256.88,-30 256.88,-24 256.88,-24 256.88,-12 256.88,-12 256.88,-6 262.88,0 268.88,0 268.88,0 314.12,0 314.12,0 320.12,0 326.12,-6 326.12,-12 326.12,-12 326.12,-24 326.12,-24 326.12,-30 320.12,-36 314.12,-36"/>
<text xml:space="preserve" text-anchor="middle" x="291.5" y="-14.5" font-family="Arial" font-size="10.00" fill="#1a1a1a">node cluster</text>
</g>
<!-- attr_5 -->
<g id="node7" class="node">
<title>attr_5</title>
<path fill="#c7b8e6" stroke="#7f8c8d" stroke-width="1.2" d="M503.25,-36C503.25,-36 390.5,-36 390.5,-36 384.5,-36 378.5,-30 378.5,-24 378.5,-24 378.5,-12 378.5,-12 378.5,-6 384.5,0 390.5,0 390.5,0 503.25,0 503.25,0 509.25,0 515.25,-6 515.25,-12 515.25,-12 515.25,-24 515.25,-24 515.25,-30 509.25,-36 503.25,-36"/>
<text xml:space="preserve" text-anchor="middle" x="446.88" y="-14.5" font-family="Arial" font-size="10.00" fill="#1a1a1a">(+) many overlapping nodes</text>
</g>
<!-- unknown.node_cluster&#45;&gt;attr_5 -->
<g id="edge1" class="edge">
<title>unknown.node_cluster&#45;&gt;attr_5</title>
<path fill="none" stroke="#aaaaaa" d="M326.92,-18C339.66,-18 354.67,-18 369.65,-18"/>
<polygon fill="#aaaaaa" stroke="#aaaaaa" points="369.45,-20.45 376.45,-18 369.45,-15.55 369.45,-20.45"/>
</g>
<!-- unknown.dense_region -->
<g id="node2" class="node">
<title>unknown.dense_region</title>
<path fill="#b8e6b8" stroke="#2c3e50" stroke-width="1.8" d="M315.25,-166C315.25,-166 267.75,-166 267.75,-166 261.75,-166 255.75,-160 255.75,-154 255.75,-154 255.75,-142 255.75,-142 255.75,-136 261.75,-130 267.75,-130 267.75,-130 315.25,-130 315.25,-130 321.25,-130 327.25,-136 327.25,-142 327.25,-142 327.25,-154 327.25,-154 327.25,-160 321.25,-166 315.25,-166"/>
<text xml:space="preserve" text-anchor="middle" x="291.5" y="-144.5" font-family="Arial" font-size="10.00" fill="#1a1a1a">dense region</text>
</g>
<!-- attr_0 -->
<g id="node8" class="node">
<title>attr_0</title>
<path fill="#c7b8e6" stroke="#7f8c8d" stroke-width="1.2" d="M490.88,-199C490.88,-199 402.88,-199 402.88,-199 396.88,-199 390.88,-193 390.88,-187 390.88,-187 390.88,-175 390.88,-175 390.88,-169 396.88,-163 402.88,-163 402.88,-163 490.88,-163 490.88,-163 496.88,-163 502.88,-169 502.88,-175 502.88,-175 502.88,-187 502.88,-187 502.88,-193 496.88,-199 490.88,-199"/>
<text xml:space="preserve" text-anchor="middle" x="446.88" y="-177.5" font-family="Arial" font-size="10.00" fill="#1a1a1a">(+) darker denser area</text>
</g>
<!-- unknown.dense_region&#45;&gt;attr_0 -->
<g id="edge2" class="edge">
<title>unknown.dense_region&#45;&gt;attr_0</title>
<path fill="none" stroke="#aaaaaa" d="M328.07,-155.65C344.26,-159.14 363.91,-163.36 382.48,-167.36"/>
<polygon fill="#aaaaaa" stroke="#aaaaaa" points="381.53,-169.66 388.89,-168.74 382.56,-164.87 381.53,-169.66"/>
</g>
<!-- rel_0 -->
<g id="node14" class="node">
<title>rel_0</title>
<path fill="#f5b8b8" stroke="#d46a6a" stroke-width="1.2" d="M511.5,-134C511.5,-134 382.25,-134 382.25,-134 376.25,-134 370.25,-128 370.25,-122 370.25,-122 370.25,-110 370.25,-110 370.25,-104 376.25,-98 382.25,-98 382.25,-98 511.5,-98 511.5,-98 517.5,-98 523.5,-104 523.5,-110 523.5,-110 523.5,-122 523.5,-122 523.5,-128 517.5,-134 511.5,-134"/>
<text xml:space="preserve" text-anchor="middle" x="446.88" y="-112.5" font-family="Arial" font-size="10.00" fill="#8b0000">increases perceived complexity</text>
</g>
<!-- unknown.dense_region&#45;&gt;rel_0 -->
<g id="edge8" class="edge">
<title>unknown.dense_region&#45;&gt;rel_0</title>
<path fill="none" stroke="#d46a6a" stroke-width="1.5" d="M328.07,-140.58C337.79,-138.55 348.76,-136.26 360,-133.92"/>
<polygon fill="#d46a6a" stroke="#d46a6a" stroke-width="1.5" points="360.44,-136.69 367.7,-132.31 359.29,-131.2 360.44,-136.69"/>
</g>
<!-- unknown.edges -->
<g id="node3" class="node">
<title>unknown.edges</title>
<path fill="#b8e6b8" stroke="#2c3e50" stroke-width="1.8" d="M42,-198C42,-198 12,-198 12,-198 6,-198 0,-192 0,-186 0,-186 0,-174 0,-174 0,-168 6,-162 12,-162 12,-162 42,-162 42,-162 48,-162 54,-168 54,-174 54,-174 54,-186 54,-186 54,-192 48,-198 42,-198"/>
<text xml:space="preserve" text-anchor="middle" x="27" y="-176.5" font-family="Arial" font-size="10.00" fill="#1a1a1a">edges</text>
</g>
<!-- attr_2 -->
<g id="node9" class="node">
<title>attr_2</title>
<path fill="#c7b8e6" stroke="#7f8c8d" stroke-width="1.2" d="M196.62,-231C196.62,-231 113.12,-231 113.12,-231 107.12,-231 101.12,-225 101.12,-219 101.12,-219 101.12,-207 101.12,-207 101.12,-201 107.12,-195 113.12,-195 113.12,-195 196.62,-195 196.62,-195 202.62,-195 208.62,-201 208.62,-207 208.62,-207 208.62,-219 208.62,-219 208.62,-225 202.62,-231 196.62,-231"/>
<text xml:space="preserve" text-anchor="middle" x="154.88" y="-209.5" font-family="Arial" font-size="10.00" fill="#1a1a1a">(+) high edge density</text>
</g>
<!-- unknown.edges&#45;&gt;attr_2 -->
<g id="edge3" class="edge">
<title>unknown.edges&#45;&gt;attr_2</title>
<path fill="none" stroke="#aaaaaa" d="M54.69,-187C65.92,-189.94 79.47,-193.49 92.9,-197.01"/>
<polygon fill="#aaaaaa" stroke="#aaaaaa" points="91.92,-199.29 99.31,-198.7 93.16,-194.55 91.92,-199.29"/>
</g>
<!-- rel_3 -->
<g id="node17" class="node">
<title>rel_3</title>
<path fill="#f5b8b8" stroke="#d46a6a" stroke-width="1.2" d="M200.75,-166C200.75,-166 109,-166 109,-166 103,-166 97,-160 97,-154 97,-154 97,-142 97,-142 97,-136 103,-130 109,-130 109,-130 200.75,-130 200.75,-130 206.75,-130 212.75,-136 212.75,-142 212.75,-142 212.75,-154 212.75,-154 212.75,-160 206.75,-166 200.75,-166"/>
<text xml:space="preserve" text-anchor="middle" x="154.88" y="-144.5" font-family="Arial" font-size="10.00" fill="#8b0000">contributes to clutter in</text>
</g>
<!-- unknown.edges&#45;&gt;rel_3 -->
<g id="edge14" class="edge">
<title>unknown.edges&#45;&gt;rel_3</title>
<path fill="none" stroke="#d46a6a" stroke-width="1.5" d="M54.69,-173.21C64.28,-170.78 75.57,-167.91 87.02,-164.99"/>
<polygon fill="#d46a6a" stroke="#d46a6a" stroke-width="1.5" points="87.39,-167.79 94.46,-163.11 86.01,-162.36 87.39,-167.79"/>
</g>
<!-- unknown.vanishing_point -->
<g id="node4" class="node">
<title>unknown.vanishing_point</title>
<path fill="#b8e6b8" stroke="#2c3e50" stroke-width="1.8" d="M937.5,-135C937.5,-135 880.25,-135 880.25,-135 874.25,-135 868.25,-129 868.25,-123 868.25,-123 868.25,-111 868.25,-111 868.25,-105 874.25,-99 880.25,-99 880.25,-99 937.5,-99 937.5,-99 943.5,-99 949.5,-105 949.5,-111 949.5,-111 949.5,-123 949.5,-123 949.5,-129 943.5,-135 937.5,-135"/>
<text xml:space="preserve" text-anchor="middle" x="908.88" y="-113.5" font-family="Arial" font-size="10.00" fill="#1a1a1a">vanishing point</text>
</g>
<!-- attr_1 -->
<g id="node10" class="node">
<title>attr_1</title>
<path fill="#c7b8e6" stroke="#7f8c8d" stroke-width="1.2" d="M1109.75,-201C1109.75,-201 1004.5,-201 1004.5,-201 998.5,-201 992.5,-195 992.5,-189 992.5,-189 992.5,-177 992.5,-177 992.5,-171 998.5,-165 1004.5,-165 1004.5,-165 1109.75,-165 1109.75,-165 1115.75,-165 1121.75,-171 1121.75,-177 1121.75,-177 1121.75,-189 1121.75,-189 1121.75,-195 1115.75,-201 1109.75,-201"/>
<text xml:space="preserve" text-anchor="middle" x="1057.12" y="-179.5" font-family="Arial" font-size="10.00" fill="#1a1a1a">(+) receding horizon depth</text>
</g>
<!-- unknown.vanishing_point&#45;&gt;attr_1 -->
<g id="edge4" class="edge">
<title>unknown.vanishing_point&#45;&gt;attr_1</title>
<path fill="none" stroke="#aaaaaa" d="M950.23,-135.21C968.06,-143.26 989.19,-152.79 1007.85,-161.22"/>
<polygon fill="#aaaaaa" stroke="#aaaaaa" points="1006.38,-163.24 1013.76,-163.88 1008.39,-158.77 1006.38,-163.24"/>
</g>
<!-- attr_6 -->
<g id="node11" class="node">
<title>attr_6</title>
<path fill="#c7b8e6" stroke="#7f8c8d" stroke-width="1.2" d="M1109.75,-136C1109.75,-136 1004.5,-136 1004.5,-136 998.5,-136 992.5,-130 992.5,-124 992.5,-124 992.5,-112 992.5,-112 992.5,-106 998.5,-100 1004.5,-100 1004.5,-100 1109.75,-100 1109.75,-100 1115.75,-100 1121.75,-106 1121.75,-112 1121.75,-112 1121.75,-124 1121.75,-124 1121.75,-130 1115.75,-136 1109.75,-136"/>
<text xml:space="preserve" text-anchor="middle" x="1057.12" y="-114.5" font-family="Arial" font-size="10.00" fill="#1a1a1a">(+) pseudo 3d perspective</text>
</g>
<!-- unknown.vanishing_point&#45;&gt;attr_6 -->
<g id="edge5" class="edge">
<title>unknown.vanishing_point&#45;&gt;attr_6</title>
<path fill="none" stroke="#aaaaaa" d="M950.23,-117.28C960.64,-117.35 972.16,-117.43 983.67,-117.5"/>
<polygon fill="#aaaaaa" stroke="#aaaaaa" points="983.49,-119.95 990.51,-117.55 983.53,-115.05 983.49,-119.95"/>
</g>
<!-- rel_1 -->
<g id="node15" class="node">
<title>rel_1</title>
<path fill="#f5b8b8" stroke="#d46a6a" stroke-width="1.2" d="M1087.25,-71C1087.25,-71 1027,-71 1027,-71 1021,-71 1015,-65 1015,-59 1015,-59 1015,-47 1015,-47 1015,-41 1021,-35 1027,-35 1027,-35 1087.25,-35 1087.25,-35 1093.25,-35 1099.25,-41 1099.25,-47 1099.25,-47 1099.25,-59 1099.25,-59 1099.25,-65 1093.25,-71 1087.25,-71"/>
<text xml:space="preserve" text-anchor="middle" x="1057.12" y="-49.5" font-family="Arial" font-size="10.00" fill="#8b0000">implies depth in</text>
</g>
<!-- unknown.vanishing_point&#45;&gt;rel_1 -->
<g id="edge10" class="edge">
<title>unknown.vanishing_point&#45;&gt;rel_1</title>
<path fill="none" stroke="#d46a6a" stroke-width="1.5" d="M950.23,-99.34C967.29,-91.88 987.36,-83.09 1005.4,-75.2"/>
<polygon fill="#d46a6a" stroke="#d46a6a" stroke-width="1.5" points="1006.35,-77.84 1012.55,-72.07 1004.1,-72.71 1006.35,-77.84"/>
</g>
<!-- property.color -->
<g id="node5" class="node">
<title>property.color</title>
<path fill="#b8e6b8" stroke="#2c3e50" stroke-width="1.8" d="M42,-68C42,-68 12,-68 12,-68 6,-68 0,-62 0,-56 0,-56 0,-44 0,-44 0,-38 6,-32 12,-32 12,-32 42,-32 42,-32 48,-32 54,-38 54,-44 54,-44 54,-56 54,-56 54,-62 48,-68 42,-68"/>
<text xml:space="preserve" text-anchor="middle" x="27" y="-46.5" font-family="Arial" font-size="10.00" fill="#1a1a1a">color</text>
</g>
<!-- attr_3 -->
<g id="node12" class="node">
<title>attr_3</title>
<path fill="#c7b8e6" stroke="#7f8c8d" stroke-width="1.2" d="M192.5,-101C192.5,-101 117.25,-101 117.25,-101 111.25,-101 105.25,-95 105.25,-89 105.25,-89 105.25,-77 105.25,-77 105.25,-71 111.25,-65 117.25,-65 117.25,-65 192.5,-65 192.5,-65 198.5,-65 204.5,-71 204.5,-77 204.5,-77 204.5,-89 204.5,-89 204.5,-95 198.5,-101 192.5,-101"/>
<text xml:space="preserve" text-anchor="middle" x="154.88" y="-79.5" font-family="Arial" font-size="10.00" fill="#1a1a1a">(+) unclear coloring</text>
</g>
<!-- property.color&#45;&gt;attr_3 -->
<g id="edge6" class="edge">
<title>property.color&#45;&gt;attr_3</title>
<path fill="none" stroke="#aaaaaa" d="M54.69,-57C66.99,-60.22 82.1,-64.18 96.77,-68.03"/>
<polygon fill="#aaaaaa" stroke="#aaaaaa" points="96,-70.36 103.4,-69.77 97.25,-65.62 96,-70.36"/>
</g>
<!-- rel_2 -->
<g id="node16" class="node">
<title>rel_2</title>
<path fill="#f5b8b8" stroke="#d46a6a" stroke-width="1.2" d="M170.75,-36C170.75,-36 139,-36 139,-36 133,-36 127,-30 127,-24 127,-24 127,-12 127,-12 127,-6 133,0 139,0 139,0 170.75,0 170.75,0 176.75,0 182.75,-6 182.75,-12 182.75,-12 182.75,-24 182.75,-24 182.75,-30 176.75,-36 170.75,-36"/>
<text xml:space="preserve" text-anchor="middle" x="154.88" y="-14.5" font-family="Arial" font-size="10.00" fill="#8b0000">obscures</text>
</g>
<!-- property.color&#45;&gt;rel_2 -->
<g id="edge12" class="edge">
<title>property.color&#45;&gt;rel_2</title>
<path fill="none" stroke="#d46a6a" stroke-width="1.5" d="M54.69,-43.21C72.85,-38.6 97.1,-32.43 117.07,-27.36"/>
<polygon fill="#d46a6a" stroke="#d46a6a" stroke-width="1.5" points="117.52,-30.13 124.58,-25.45 116.14,-24.7 117.52,-30.13"/>
</g>
<!-- unknown.layout_structure -->
<g id="node6" class="node">
<title>unknown.layout_structure</title>
<path fill="#b8e6b8" stroke="#2c3e50" stroke-width="1.8" d="M638,-134C638,-134 578.5,-134 578.5,-134 572.5,-134 566.5,-128 566.5,-122 566.5,-122 566.5,-110 566.5,-110 566.5,-104 572.5,-98 578.5,-98 578.5,-98 638,-98 638,-98 644,-98 650,-104 650,-110 650,-110 650,-122 650,-122 650,-128 644,-134 638,-134"/>
<text xml:space="preserve" text-anchor="middle" x="608.25" y="-112.5" font-family="Arial" font-size="10.00" fill="#1a1a1a">layout structure</text>
</g>
<!-- attr_4 -->
<g id="node13" class="node">
<title>attr_4</title>
<path fill="#c7b8e6" stroke="#7f8c8d" stroke-width="1.2" d="M813.25,-199C813.25,-199 705,-199 705,-199 699,-199 693,-193 693,-187 693,-187 693,-175 693,-175 693,-169 699,-163 705,-163 705,-163 813.25,-163 813.25,-163 819.25,-163 825.25,-169 825.25,-175 825.25,-175 825.25,-187 825.25,-187 825.25,-193 819.25,-199 813.25,-199"/>
<text xml:space="preserve" text-anchor="middle" x="759.12" y="-177.5" font-family="Arial" font-size="10.00" fill="#1a1a1a">(+) complex spatial pattern</text>
</g>
<!-- unknown.layout_structure&#45;&gt;attr_4 -->
<g id="edge7" class="edge">
<title>unknown.layout_structure&#45;&gt;attr_4</title>
<path fill="none" stroke="#aaaaaa" d="M650.72,-134.11C668.57,-141.9 689.59,-151.08 708.28,-159.24"/>
<polygon fill="#aaaaaa" stroke="#aaaaaa" points="706.8,-161.26 714.2,-161.82 708.76,-156.77 706.8,-161.26"/>
</g>
<!-- rel_4 -->
<g id="node18" class="node">
<title>rel_4</title>
<path fill="#f5b8b8" stroke="#d46a6a" stroke-width="1.2" d="M800.88,-134C800.88,-134 717.38,-134 717.38,-134 711.38,-134 705.38,-128 705.38,-122 705.38,-122 705.38,-110 705.38,-110 705.38,-104 711.38,-98 717.38,-98 717.38,-98 800.88,-98 800.88,-98 806.88,-98 812.88,-104 812.88,-110 812.88,-110 812.88,-122 812.88,-122 812.88,-128 806.88,-134 800.88,-134"/>
<text xml:space="preserve" text-anchor="middle" x="759.12" y="-112.5" font-family="Arial" font-size="10.00" fill="#8b0000">requires expertise for</text>
</g>
<!-- unknown.layout_structure&#45;&gt;rel_4 -->
<g id="edge16" class="edge">
<title>unknown.layout_structure&#45;&gt;rel_4</title>
<path fill="none" stroke="#d46a6a" stroke-width="1.5" d="M650.72,-116C664.35,-116 679.83,-116 694.71,-116"/>
<polygon fill="#d46a6a" stroke="#d46a6a" stroke-width="1.5" points="694.61,-118.8 702.61,-116 694.61,-113.2 694.61,-118.8"/>
</g>
<!-- rel_0&#45;&gt;unknown.layout_structure -->
<g id="edge9" class="edge">
<title>rel_0&#45;&gt;unknown.layout_structure</title>
<path fill="none" stroke="#d46a6a" stroke-width="1.5" d="M523.83,-116C534.54,-116 545.34,-116 555.45,-116"/>
<polygon fill="#d46a6a" stroke="#d46a6a" stroke-width="1.5" points="555.44,-118.8 563.44,-116 555.44,-113.2 555.44,-118.8"/>
</g>
<!-- rel_1&#45;&gt;unknown.layout_structure -->
<g id="edge11" class="edge">
<title>rel_1&#45;&gt;unknown.layout_structure</title>
<path fill="none" stroke="#d46a6a" stroke-width="1.5" d="M1014.43,-52.8C946.3,-53.31 807.25,-57.84 693,-84 682.2,-86.47 670.92,-90.05 660.28,-93.92"/>
<polygon fill="#d46a6a" stroke="#d46a6a" stroke-width="1.5" points="659.33,-91.28 652.83,-96.73 661.31,-96.52 659.33,-91.28"/>
</g>
<!-- rel_2&#45;&gt;unknown.node_cluster -->
<g id="edge13" class="edge">
<title>rel_2&#45;&gt;unknown.node_cluster</title>
<path fill="none" stroke="#d46a6a" stroke-width="1.5" d="M183.12,-18C201.13,-18 225.15,-18 245.91,-18"/>
<polygon fill="#d46a6a" stroke="#d46a6a" stroke-width="1.5" points="245.84,-20.8 253.84,-18 245.84,-15.2 245.84,-20.8"/>
</g>
<!-- rel_3&#45;&gt;unknown.dense_region -->
<g id="edge15" class="edge">
<title>rel_3&#45;&gt;unknown.dense_region</title>
<path fill="none" stroke="#d46a6a" stroke-width="1.5" d="M212.97,-148C223.72,-148 234.82,-148 245.15,-148"/>
<polygon fill="#d46a6a" stroke="#d46a6a" stroke-width="1.5" points="244.91,-150.8 252.91,-148 244.91,-145.2 244.91,-150.8"/>
</g>
<!-- rel_4&#45;&gt;unknown.vanishing_point -->
<g id="edge17" class="edge">
<title>rel_4&#45;&gt;unknown.vanishing_point</title>
<path fill="none" stroke="#d46a6a" stroke-width="1.5" d="M813.47,-116.36C827.83,-116.46 843.33,-116.56 857.52,-116.66"/>
<polygon fill="#d46a6a" stroke="#d46a6a" stroke-width="1.5" points="857.31,-119.46 865.33,-116.71 857.35,-113.86 857.31,-119.46"/>
</g>
</g>
</svg>
