<?xml version="1.0" encoding="UTF-8" standalone="no"?>
<!DOCTYPE svg PUBLIC "-//W3C//DTD SVG 1.1//EN"
 "http://www.w3.org/Graphics/SVG/1.1/DTD/svg11.dtd">
<!-- Generated by graphviz version 14.1.5 (20260411.2331)
 -->
<!-- Title: VisC.87.8.png Pages: 1 -->
<svg width="573pt" height="499pt"
 viewBox="0.00 0.00 573.00 499.00" xmlns="http://www.w3.org/2000/svg" xmlns:xlink="http://www.w3.org/1999/xlink">
<g id="graph0" class="graph" transform="scale(1 1) rotate(0) translate(4 495.25)">
<title>VisC.87.8.png</title>
<polygon fill="white" stroke="none" points="-4,4 -4,-495.25 569,-495.25 569,4 -4,4"/>
<text xml:space="preserve" text-anchor="start" x="238.25" y="-470.95" font-family="Arial" font-weight="bold" font-size="14.00">VisC.87.8.png</text>
<text xml:space="preserve" text-anchor="start" x="240.12" y="-451" font-family="Arial" font-size="11.00">Line &#160;| &#160;VC = 0.43</text>
<path fill="#b8e6b8" stroke="none" d="M73.12,-426C73.12,-426 81.12,-426 81.12,-426 84.12,-426 87.12,-429 87.12,-432 87.12,-432 87.12,-438 87.12,-438 87.12,-441 84.12,-444 81.12,-444 81.12,-444 73.12,-444 73.12,-444 70.12,-444 67.12,-441 67.12,-438 67.12,-438 67.12,-432 67.12,-432 67.12,-429 70.12,-426 73.12,-426"/>
<path fill="none" stroke="black" d="M73.12,-426C73.12,-426 81.12,-426 81.12,-426 84.12,-426 87.12,-429 87.12,-432 87.12,-432 87.12,-438 87.12,-438 87.12,-441 84.12,-444 81.12,-444 81.12,-444 73.12,-444 73.12,-444 70.12,-444 67.12,-441 67.12,-438 67.12,-438 67.12,-432 67.12,-432 67.12,-429 70.12,-426 73.12,-426"/>
<text xml:space="preserve" text-anchor="start" x="75.62" y="-431.25" font-family="Arial" font-size="10.00"> </text>
<text xml:space="preserve" text-anchor="start" x="91.12" y="-431.25" font-family="Arial" font-size="10.00">Object</text>
<path fill="#c7b8e6" stroke="none" d="M129.62,-426C129.62,-426 137.62,-426 137.62,-426 140.62,-426 143.62,-429 143.62,-432 143.62,-432 143.62,-438 143.62,-438 143.62,-441 140.62,-444 137.62,-444 137.62,-444 129.62,-444 129.62,-444 126.62,-444 123.62,-441 123.62,-438 123.62,-438 123.62,-432 123.62,-432 123.62,-429 126.62,-426 129.62,-426"/>
<path fill="none" stroke="black" d="M129.62,-426C129.62,-426 137.62,-426 137.62,-426 140.62,-426 143.62,-429 143.62,-432 143.62,-432 143.62,-438 143.62,-438 143.62,-441 140.62,-444 137.62,-444 137.62,-444 129.62,-444 129.62,-444 126.62,-444 123.62,-441 123.62,-438 123.62,-438 123.62,-432 123.62,-432 123.62,-429 126.62,-426 129.62,-426"/>
<text xml:space="preserve" text-anchor="start" x="132.12" y="-431.25" font-family="Arial" font-size="10.00"> </text>
<text xml:space="preserve" text-anchor="start" x="147.62" y="-431.25" font-family="Arial" font-size="10.00">Attribute</text>
<path fill="#f5b8b8" stroke="none" d="M194.38,-426C194.38,-426 202.38,-426 202.38,-426 205.38,-426 208.38,-429 208.38,-432 208.38,-432 208.38,-438 208.38,-438 208.38,-441 205.38,-444 202.38,-444 202.38,-444 194.38,-444 194.38,-444 191.38,-444 188.38,-441 188.38,-438 188.38,-438 188.38,-432 188.38,-432 188.38,-429 191.38,-426 194.38,-426"/>
<path fill="none" stroke="black" d="M194.38,-426C194.38,-426 202.38,-426 202.38,-426 205.38,-426 208.38,-429 208.38,-432 208.38,-432 208.38,-438 208.38,-438 208.38,-441 205.38,-444 202.38,-444 202.38,-444 194.38,-444 194.38,-444 191.38,-444 188.38,-441 188.38,-438 188.38,-438 188.38,-432 188.38,-432 188.38,-429 191.38,-426 194.38,-426"/>
<text xml:space="preserve" text-anchor="start" x="196.88" y="-431.25" font-family="Arial" font-size="10.00"> </text>
<text xml:space="preserve" text-anchor="start" x="212.38" y="-431.25" font-family="Arial" font-size="10.00">Relationship</text>
<text xml:space="preserve" text-anchor="start" x="272.38" y="-432.5" font-family="Arial" font-weight="bold" font-size="10.00">(+)</text>
<text xml:space="preserve" text-anchor="start" x="284.38" y="-432.5" font-family="Arial" font-size="10.00"> increases complexity</text>
<text xml:space="preserve" text-anchor="start" x="385.62" y="-432.5" font-family="Arial" font-weight="bold" font-size="10.00">(−)</text>
<text xml:space="preserve" text-anchor="start" x="397.62" y="-432.5" font-family="Arial" font-size="10.00"> decreases complexity</text>
<!-- unknown.x_axis -->
<g id="node1" class="node">
<title>unknown.x_axis</title>
<path fill="#b8e6b8" stroke="#2c3e50" stroke-width="1.8" d="M350.62,-36C350.62,-36 320.62,-36 320.62,-36 314.62,-36 308.62,-30 308.62,-24 308.62,-24 308.62,-12 308.62,-12 308.62,-6 314.62,0 320.62,0 320.62,0 350.62,0 350.62,0 356.62,0 362.62,-6 362.62,-12 362.62,-12 362.62,-24 362.62,-24 362.62,-30 356.62,-36 350.62,-36"/>
<text xml:space="preserve" text-anchor="middle" x="335.62" y="-14.5" font-family="Arial" font-size="10.00" fill="#1a1a1a">x axis</text>
</g>
<!-- attr_0 -->
<g id="node7" class="node">
<title>attr_0</title>
<path fill="#c7b8e6" stroke="#7f8c8d" stroke-width="1.2" d="M537.25,-36C537.25,-36 438,-36 438,-36 432,-36 426,-30 426,-24 426,-24 426,-12 426,-12 426,-6 432,0 438,0 438,0 537.25,0 537.25,0 543.25,0 549.25,-6 549.25,-12 549.25,-12 549.25,-24 549.25,-24 549.25,-30 543.25,-36 537.25,-36"/>
<text xml:space="preserve" text-anchor="middle" x="487.62" y="-14.5" font-family="Arial" font-size="10.00" fill="#1a1a1a">(−) clear numerical scale</text>
</g>
<!-- unknown.x_axis&#45;&gt;attr_0 -->
<g id="edge1" class="edge">
<title>unknown.x_axis&#45;&gt;attr_0</title>
<path fill="none" stroke="#aaaaaa" d="M363.44,-18C378.49,-18 398.03,-18 417.09,-18"/>
<polygon fill="#aaaaaa" stroke="#aaaaaa" points="416.99,-20.45 423.99,-18 416.99,-15.55 416.99,-20.45"/>
</g>
<!-- unknown.y_axis -->
<g id="node2" class="node">
<title>unknown.y_axis</title>
<path fill="#b8e6b8" stroke="#2c3e50" stroke-width="1.8" d="M350.62,-166C350.62,-166 320.62,-166 320.62,-166 314.62,-166 308.62,-160 308.62,-154 308.62,-154 308.62,-142 308.62,-142 308.62,-136 314.62,-130 320.62,-130 320.62,-130 350.62,-130 350.62,-130 356.62,-130 362.62,-136 362.62,-142 362.62,-142 362.62,-154 362.62,-154 362.62,-160 356.62,-166 350.62,-166"/>
<text xml:space="preserve" text-anchor="middle" x="335.62" y="-144.5" font-family="Arial" font-size="10.00" fill="#1a1a1a">y axis</text>
</g>
<!-- attr_1 -->
<g id="node8" class="node">
<title>attr_1</title>
<path fill="#c7b8e6" stroke="#7f8c8d" stroke-width="1.2" d="M539.88,-166C539.88,-166 435.38,-166 435.38,-166 429.38,-166 423.38,-160 423.38,-154 423.38,-154 423.38,-142 423.38,-142 423.38,-136 429.38,-130 435.38,-130 435.38,-130 539.88,-130 539.88,-130 545.88,-130 551.88,-136 551.88,-142 551.88,-142 551.88,-154 551.88,-154 551.88,-160 545.88,-166 539.88,-166"/>
<text xml:space="preserve" text-anchor="middle" x="487.62" y="-144.5" font-family="Arial" font-size="10.00" fill="#1a1a1a">(−) precisely named scale</text>
</g>
<!-- unknown.y_axis&#45;&gt;attr_1 -->
<g id="edge2" class="edge">
<title>unknown.y_axis&#45;&gt;attr_1</title>
<path fill="none" stroke="#aaaaaa" d="M363.44,-148C377.84,-148 396.34,-148 414.61,-148"/>
<polygon fill="#aaaaaa" stroke="#aaaaaa" points="414.46,-150.45 421.46,-148 414.46,-145.55 414.46,-150.45"/>
</g>
<!-- unknown.solid_line -->
<g id="node3" class="node">
<title>unknown.solid_line</title>
<path fill="#b8e6b8" stroke="#2c3e50" stroke-width="1.8" d="M50.5,-355C50.5,-355 20.25,-355 20.25,-355 14.25,-355 8.25,-349 8.25,-343 8.25,-343 8.25,-331 8.25,-331 8.25,-325 14.25,-319 20.25,-319 20.25,-319 50.5,-319 50.5,-319 56.5,-319 62.5,-325 62.5,-331 62.5,-331 62.5,-343 62.5,-343 62.5,-349 56.5,-355 50.5,-355"/>
<text xml:space="preserve" text-anchor="middle" x="35.38" y="-333.5" font-family="Arial" font-size="10.00" fill="#1a1a1a">solid line</text>
</g>
<!-- attr_2 -->
<g id="node9" class="node">
<title>attr_2</title>
<path fill="#c7b8e6" stroke="#7f8c8d" stroke-width="1.2" d="M237.38,-420C237.38,-420 137.38,-420 137.38,-420 131.38,-420 125.38,-414 125.38,-408 125.38,-408 125.38,-396 125.38,-396 125.38,-390 131.38,-384 137.38,-384 137.38,-384 237.38,-384 237.38,-384 243.38,-384 249.38,-390 249.38,-396 249.38,-396 249.38,-408 249.38,-408 249.38,-414 243.38,-420 237.38,-420"/>
<text xml:space="preserve" text-anchor="middle" x="187.38" y="-398.5" font-family="Arial" font-size="10.00" fill="#1a1a1a">(−) continuous solid form</text>
</g>
<!-- unknown.solid_line&#45;&gt;attr_2 -->
<g id="edge3" class="edge">
<title>unknown.solid_line&#45;&gt;attr_2</title>
<path fill="none" stroke="#aaaaaa" d="M63.19,-348.62C83.34,-357.35 111.54,-369.57 135.87,-380.12"/>
<polygon fill="#aaaaaa" stroke="#aaaaaa" points="134.84,-382.34 142.23,-382.87 136.78,-377.84 134.84,-382.34"/>
</g>
<!-- rel_3 -->
<g id="node16" class="node">
<title>rel_3</title>
<path fill="#f5b8b8" stroke="#d46a6a" stroke-width="1.2" d="M212.25,-355C212.25,-355 162.5,-355 162.5,-355 156.5,-355 150.5,-349 150.5,-343 150.5,-343 150.5,-331 150.5,-331 150.5,-325 156.5,-319 162.5,-319 162.5,-319 212.25,-319 212.25,-319 218.25,-319 224.25,-325 224.25,-331 224.25,-331 224.25,-343 224.25,-343 224.25,-349 218.25,-355 212.25,-355"/>
<text xml:space="preserve" text-anchor="middle" x="187.38" y="-333.5" font-family="Arial" font-size="10.00" fill="#8b0000">coexists with</text>
</g>
<!-- unknown.solid_line&#45;&gt;rel_3 -->
<g id="edge13" class="edge">
<title>unknown.solid_line&#45;&gt;rel_3</title>
<path fill="none" stroke="#d46a6a" stroke-width="1.5" d="M63.19,-337C84.45,-337 114.66,-337 139.84,-337"/>
<polygon fill="#d46a6a" stroke="#d46a6a" stroke-width="1.5" points="139.66,-339.8 147.66,-337 139.66,-334.2 139.66,-339.8"/>
</g>
<!-- unknown.striped_line -->
<g id="node4" class="node">
<title>unknown.striped_line</title>
<path fill="#b8e6b8" stroke="#2c3e50" stroke-width="1.8" d="M355.25,-355C355.25,-355 316,-355 316,-355 310,-355 304,-349 304,-343 304,-343 304,-331 304,-331 304,-325 310,-319 316,-319 316,-319 355.25,-319 355.25,-319 361.25,-319 367.25,-325 367.25,-331 367.25,-331 367.25,-343 367.25,-343 367.25,-349 361.25,-355 355.25,-355"/>
<text xml:space="preserve" text-anchor="middle" x="335.62" y="-333.5" font-family="Arial" font-size="10.00" fill="#1a1a1a">striped line</text>
</g>
<!-- attr_3 -->
<g id="node10" class="node">
<title>attr_3</title>
<path fill="#c7b8e6" stroke="#7f8c8d" stroke-width="1.2" d="M543.25,-358C543.25,-358 432,-358 432,-358 426,-358 420,-352 420,-346 420,-346 420,-334 420,-334 420,-328 426,-322 432,-322 432,-322 543.25,-322 543.25,-322 549.25,-322 555.25,-328 555.25,-334 555.25,-334 555.25,-346 555.25,-346 555.25,-352 549.25,-358 543.25,-358"/>
<text xml:space="preserve" text-anchor="middle" x="487.62" y="-336.5" font-family="Arial" font-size="10.00" fill="#1a1a1a">(+) striped texture encoding</text>
</g>
<!-- unknown.striped_line&#45;&gt;attr_3 -->
<g id="edge4" class="edge">
<title>unknown.striped_line&#45;&gt;attr_3</title>
<path fill="none" stroke="#aaaaaa" d="M368.07,-337.63C380.75,-337.88 395.98,-338.19 411.23,-338.49"/>
<polygon fill="#aaaaaa" stroke="#aaaaaa" points="411.13,-340.94 418.18,-338.63 411.23,-336.04 411.13,-340.94"/>
</g>
<!-- rel_0 -->
<g id="node13" class="node">
<title>rel_0</title>
<path fill="#f5b8b8" stroke="#d46a6a" stroke-width="1.2" d="M553,-293C553,-293 422.25,-293 422.25,-293 416.25,-293 410.25,-287 410.25,-281 410.25,-281 410.25,-269 410.25,-269 410.25,-263 416.25,-257 422.25,-257 422.25,-257 553,-257 553,-257 559,-257 565,-263 565,-269 565,-269 565,-281 565,-281 565,-287 559,-293 553,-293"/>
<text xml:space="preserve" text-anchor="middle" x="487.62" y="-271.5" font-family="Arial" font-size="10.00" fill="#8b0000">increases visual distinctiveness</text>
</g>
<!-- unknown.striped_line&#45;&gt;rel_0 -->
<g id="edge7" class="edge">
<title>unknown.striped_line&#45;&gt;rel_0</title>
<path fill="none" stroke="#d46a6a" stroke-width="1.5" d="M368.07,-324C386.7,-316.3 410.83,-306.33 432.44,-297.4"/>
<polygon fill="#d46a6a" stroke="#d46a6a" stroke-width="1.5" points="433.43,-300.02 439.75,-294.37 431.29,-294.84 433.43,-300.02"/>
</g>
<!-- text.axis_label -->
<g id="node5" class="node">
<title>text.axis_label</title>
<path fill="#b8e6b8" stroke="#2c3e50" stroke-width="1.8" d="M52,-69C52,-69 18.75,-69 18.75,-69 12.75,-69 6.75,-63 6.75,-57 6.75,-57 6.75,-45 6.75,-45 6.75,-39 12.75,-33 18.75,-33 18.75,-33 52,-33 52,-33 58,-33 64,-39 64,-45 64,-45 64,-57 64,-57 64,-63 58,-69 52,-69"/>
<text xml:space="preserve" text-anchor="middle" x="35.38" y="-47.5" font-family="Arial" font-size="10.00" fill="#1a1a1a">axis label</text>
</g>
<!-- attr_4 -->
<g id="node11" class="node">
<title>attr_4</title>
<path fill="#c7b8e6" stroke="#7f8c8d" stroke-width="1.2" d="M249,-101C249,-101 125.75,-101 125.75,-101 119.75,-101 113.75,-95 113.75,-89 113.75,-89 113.75,-77 113.75,-77 113.75,-71 119.75,-65 125.75,-65 125.75,-65 249,-65 249,-65 255,-65 261,-71 261,-77 261,-77 261,-89 261,-89 261,-95 255,-101 249,-101"/>
<text xml:space="preserve" text-anchor="middle" x="187.38" y="-79.5" font-family="Arial" font-size="10.00" fill="#1a1a1a">(−) descriptive precise naming</text>
</g>
<!-- text.axis_label&#45;&gt;attr_4 -->
<g id="edge5" class="edge">
<title>text.axis_label&#45;&gt;attr_4</title>
<path fill="none" stroke="#aaaaaa" d="M64.59,-57.02C76.33,-59.52 90.62,-62.57 105.23,-65.69"/>
<polygon fill="#aaaaaa" stroke="#aaaaaa" points="104.52,-68.04 111.88,-67.11 105.54,-63.25 104.52,-68.04"/>
</g>
<!-- rel_1 -->
<g id="node14" class="node">
<title>rel_1</title>
<path fill="#f5b8b8" stroke="#d46a6a" stroke-width="1.2" d="M228.75,-36C228.75,-36 146,-36 146,-36 140,-36 134,-30 134,-24 134,-24 134,-12 134,-12 134,-6 140,0 146,0 146,0 228.75,0 228.75,0 234.75,0 240.75,-6 240.75,-12 240.75,-12 240.75,-24 240.75,-24 240.75,-30 234.75,-36 228.75,-36"/>
<text xml:space="preserve" text-anchor="middle" x="187.38" y="-14.5" font-family="Arial" font-size="10.00" fill="#8b0000">reduces ambiguity of</text>
</g>
<!-- text.axis_label&#45;&gt;rel_1 -->
<g id="edge9" class="edge">
<title>text.axis_label&#45;&gt;rel_1</title>
<path fill="none" stroke="#d46a6a" stroke-width="1.5" d="M64.59,-44.79C81.29,-41.12 103.15,-36.31 123.72,-31.78"/>
<polygon fill="#d46a6a" stroke="#d46a6a" stroke-width="1.5" points="124.27,-34.53 131.48,-30.08 123.06,-29.06 124.27,-34.53"/>
</g>
<!-- unknown.scale_values -->
<g id="node6" class="node">
<title>unknown.scale_values</title>
<path fill="#b8e6b8" stroke="#2c3e50" stroke-width="1.8" d="M58.75,-199C58.75,-199 12,-199 12,-199 6,-199 0,-193 0,-187 0,-187 0,-175 0,-175 0,-169 6,-163 12,-163 12,-163 58.75,-163 58.75,-163 64.75,-163 70.75,-169 70.75,-175 70.75,-175 70.75,-187 70.75,-187 70.75,-193 64.75,-199 58.75,-199"/>
<text xml:space="preserve" text-anchor="middle" x="35.38" y="-177.5" font-family="Arial" font-size="10.00" fill="#1a1a1a">scale values</text>
</g>
<!-- attr_5 -->
<g id="node12" class="node">
<title>attr_5</title>
<path fill="#c7b8e6" stroke="#7f8c8d" stroke-width="1.2" d="M243.75,-231C243.75,-231 131,-231 131,-231 125,-231 119,-225 119,-219 119,-219 119,-207 119,-207 119,-201 125,-195 131,-195 131,-195 243.75,-195 243.75,-195 249.75,-195 255.75,-201 255.75,-207 255.75,-207 255.75,-219 255.75,-219 255.75,-225 249.75,-231 243.75,-231"/>
<text xml:space="preserve" text-anchor="middle" x="187.38" y="-209.5" font-family="Arial" font-size="10.00" fill="#1a1a1a">(−) readable numeric values</text>
</g>
<!-- unknown.scale_values&#45;&gt;attr_5 -->
<g id="edge6" class="edge">
<title>unknown.scale_values&#45;&gt;attr_5</title>
<path fill="none" stroke="#aaaaaa" d="M71.54,-188.5C83.27,-191 96.83,-193.9 110.42,-196.8"/>
<polygon fill="#aaaaaa" stroke="#aaaaaa" points="109.59,-199.12 116.94,-198.19 110.61,-194.33 109.59,-199.12"/>
</g>
<!-- rel_2 -->
<g id="node15" class="node">
<title>rel_2</title>
<path fill="#f5b8b8" stroke="#d46a6a" stroke-width="1.2" d="M225,-166C225,-166 149.75,-166 149.75,-166 143.75,-166 137.75,-160 137.75,-154 137.75,-154 137.75,-142 137.75,-142 137.75,-136 143.75,-130 149.75,-130 149.75,-130 225,-130 225,-130 231,-130 237,-136 237,-142 237,-142 237,-154 237,-154 237,-160 231,-166 225,-166"/>
<text xml:space="preserve" text-anchor="middle" x="187.38" y="-144.5" font-family="Arial" font-size="10.00" fill="#8b0000">supports reading of</text>
</g>
<!-- unknown.scale_values&#45;&gt;rel_2 -->
<g id="edge11" class="edge">
<title>unknown.scale_values&#45;&gt;rel_2</title>
<path fill="none" stroke="#d46a6a" stroke-width="1.5" d="M71.54,-173.26C88.13,-169.61 108.38,-165.16 127.23,-161.01"/>
<polygon fill="#d46a6a" stroke="#d46a6a" stroke-width="1.5" points="127.8,-163.75 135.01,-159.3 126.6,-158.28 127.8,-163.75"/>
</g>
<!-- rel_0&#45;&gt;unknown.solid_line -->
<g id="edge8" class="edge">
<title>rel_0&#45;&gt;unknown.solid_line</title>
<path fill="none" stroke="#d46a6a" stroke-width="1.5" d="M409.83,-274.25C333.67,-275.11 214.14,-280.83 113.75,-305 99.9,-308.33 85.31,-313.81 72.58,-319.29"/>
<polygon fill="#d46a6a" stroke="#d46a6a" stroke-width="1.5" points="71.49,-316.71 65.33,-322.53 73.77,-321.82 71.49,-316.71"/>
</g>
<!-- rel_1&#45;&gt;unknown.x_axis -->
<g id="edge10" class="edge">
<title>rel_1&#45;&gt;unknown.x_axis</title>
<path fill="none" stroke="#d46a6a" stroke-width="1.5" d="M241.17,-18C259.88,-18 280.5,-18 297.61,-18"/>
<polygon fill="#d46a6a" stroke="#d46a6a" stroke-width="1.5" points="297.49,-20.8 305.49,-18 297.49,-15.2 297.49,-20.8"/>
</g>
<!-- rel_2&#45;&gt;unknown.y_axis -->
<g id="edge12" class="edge">
<title>rel_2&#45;&gt;unknown.y_axis</title>
<path fill="none" stroke="#d46a6a" stroke-width="1.5" d="M237.48,-148C257.18,-148 279.5,-148 297.77,-148"/>
<polygon fill="#d46a6a" stroke="#d46a6a" stroke-width="1.5" points="297.74,-150.8 305.74,-148 297.74,-145.2 297.74,-150.8"/>
</g>
<!-- rel_3&#45;&gt;unknown.striped_line -->
<g id="edge14" class="edge">
<title>rel_3&#45;&gt;unknown.striped_line</title>
<path fill="none" stroke="#d46a6a" stroke-width="1.5" d="M224.53,-337C245.32,-337 271.52,-337 293.14,-337"/>
<polygon fill="#d46a6a" stroke="#d46a6a" stroke-width="1.5" points="293.08,-339.8 301.08,-337 293.08,-334.2 293.08,-339.8"/>
</g>
</g>
</svg>
