<?xml version="1.0" encoding="UTF-8" standalone="no"?>
<!DOCTYPE svg PUBLIC "-//W3C//DTD SVG 1.1//EN"
 "http://www.w3.org/Graphics/SVG/1.1/DTD/svg11.dtd">
<!-- Generated by graphviz version 14.1.5 (20260411.2331)
 -->
<!-- Title: VisC.599.6.png Pages: 1 -->
<svg width="809pt" height="498pt"
 viewBox="0.00 0.00 809.00 498.00" xmlns="http://www.w3.org/2000/svg" xmlns:xlink="http://www.w3.org/1999/xlink">
<g id="graph0" class="graph" transform="scale(1 1) rotate(0) translate(4 494.25)">
<title>VisC.599.6.png</title>
<polygon fill="white" stroke="none" points="-4,4 -4,-494.25 804.75,-494.25 804.75,4 -4,4"/>
<text xml:space="preserve" text-anchor="start" x="352.38" y="-469.95" font-family="Arial" font-weight="bold" font-size="14.00">VisC.599.6.png</text>
<text xml:space="preserve" text-anchor="start" x="328.75" y="-450" font-family="Arial" font-size="11.00">Cont.&#45;ColorPatn &#160;| &#160;VC = 0.53</text>
<path fill="#b8e6b8" stroke="none" d="M191,-425C191,-425 199,-425 199,-425 202,-425 205,-428 205,-431 205,-431 205,-437 205,-437 205,-440 202,-443 199,-443 199,-443 191,-443 191,-443 188,-443 185,-440 185,-437 185,-437 185,-431 185,-431 185,-428 188,-425 191,-425"/>
<path fill="none" stroke="black" d="M191,-425C191,-425 199,-425 199,-425 202,-425 205,-428 205,-431 205,-431 205,-437 205,-437 205,-440 202,-443 199,-443 199,-443 191,-443 191,-443 188,-443 185,-440 185,-437 185,-437 185,-431 185,-431 185,-428 188,-425 191,-425"/>
<text xml:space="preserve" text-anchor="start" x="193.5" y="-430.25" font-family="Arial" font-size="10.00"> </text>
<text xml:space="preserve" text-anchor="start" x="209" y="-430.25" font-family="Arial" font-size="10.00">Object</text>
<path fill="#c7b8e6" stroke="none" d="M247.5,-425C247.5,-425 255.5,-425 255.5,-425 258.5,-425 261.5,-428 261.5,-431 261.5,-431 261.5,-437 261.5,-437 261.5,-440 258.5,-443 255.5,-443 255.5,-443 247.5,-443 247.5,-443 244.5,-443 241.5,-440 241.5,-437 241.5,-437 241.5,-431 241.5,-431 241.5,-428 244.5,-425 247.5,-425"/>
<path fill="none" stroke="black" d="M247.5,-425C247.5,-425 255.5,-425 255.5,-425 258.5,-425 261.5,-428 261.5,-431 261.5,-431 261.5,-437 261.5,-437 261.5,-440 258.5,-443 255.5,-443 255.5,-443 247.5,-443 247.5,-443 244.5,-443 241.5,-440 241.5,-437 241.5,-437 241.5,-431 241.5,-431 241.5,-428 244.5,-425 247.5,-425"/>
<text xml:space="preserve" text-anchor="start" x="250" y="-430.25" font-family="Arial" font-size="10.00"> </text>
<text xml:space="preserve" text-anchor="start" x="265.5" y="-430.25" font-family="Arial" font-size="10.00">Attribute</text>
<path fill="#f5b8b8" stroke="none" d="M312.25,-425C312.25,-425 320.25,-425 320.25,-425 323.25,-425 326.25,-428 326.25,-431 326.25,-431 326.25,-437 326.25,-437 326.25,-440 323.25,-443 320.25,-443 320.25,-443 312.25,-443 312.25,-443 309.25,-443 306.25,-440 306.25,-437 306.25,-437 306.25,-431 306.25,-431 306.25,-428 309.25,-425 312.25,-425"/>
<path fill="none" stroke="black" d="M312.25,-425C312.25,-425 320.25,-425 320.25,-425 323.25,-425 326.25,-428 326.25,-431 326.25,-431 326.25,-437 326.25,-437 326.25,-440 323.25,-443 320.25,-443 320.25,-443 312.25,-443 312.25,-443 309.25,-443 306.25,-440 306.25,-437 306.25,-437 306.25,-431 306.25,-431 306.25,-428 309.25,-425 312.25,-425"/>
<text xml:space="preserve" text-anchor="start" x="314.75" y="-430.25" font-family="Arial" font-size="10.00"> </text>
<text xml:space="preserve" text-anchor="start" x="330.25" y="-430.25" font-family="Arial" font-size="10.00">Relationship</text>
<text xml:space="preserve" text-anchor="start" x="390.25" y="-431.5" font-family="Arial" font-weight="bold" font-size="10.00">(+)</text>
<text xml:space="preserve" text-anchor="start" x="402.25" y="-431.5" font-family="Arial" font-size="10.00"> increases complexity</text>
<text xml:space="preserve" text-anchor="start" x="503.5" y="-431.5" font-family="Arial" font-weight="bold" font-size="10.00">(−)</text>
<text xml:space="preserve" text-anchor="start" x="515.5" y="-431.5" font-family="Arial" font-size="10.00"> decreases complexity</text>
<!-- unknown.wavy_lines -->
<g id="node1" class="node">
<title>unknown.wavy_lines</title>
<path fill="#b8e6b8" stroke="#2c3e50" stroke-width="1.8" d="M50.5,-292C50.5,-292 12,-292 12,-292 6,-292 0,-286 0,-280 0,-280 0,-268 0,-268 0,-262 6,-256 12,-256 12,-256 50.5,-256 50.5,-256 56.5,-256 62.5,-262 62.5,-268 62.5,-268 62.5,-280 62.5,-280 62.5,-286 56.5,-292 50.5,-292"/>
<text xml:space="preserve" text-anchor="middle" x="31.25" y="-270.5" font-family="Arial" font-size="10.00" fill="#1a1a1a">wavy lines</text>
</g>
<!-- attr_0 -->
<g id="node7" class="node">
<title>attr_0</title>
<path fill="#c7b8e6" stroke="#7f8c8d" stroke-width="1.2" d="M223.12,-354C223.12,-354 126.12,-354 126.12,-354 120.12,-354 114.12,-348 114.12,-342 114.12,-342 114.12,-330 114.12,-330 114.12,-324 120.12,-318 126.12,-318 126.12,-318 223.12,-318 223.12,-318 229.12,-318 235.12,-324 235.12,-330 235.12,-330 235.12,-342 235.12,-342 235.12,-348 229.12,-354 223.12,-354"/>
<text xml:space="preserve" text-anchor="middle" x="174.62" y="-332.5" font-family="Arial" font-size="10.00" fill="#1a1a1a">(+) curved irregular lines</text>
</g>
<!-- unknown.wavy_lines&#45;&gt;attr_0 -->
<g id="edge1" class="edge">
<title>unknown.wavy_lines&#45;&gt;attr_0</title>
<path fill="none" stroke="#aaaaaa" d="M63.28,-287.61C81.01,-295.38 103.66,-305.32 123.82,-314.16"/>
<polygon fill="#aaaaaa" stroke="#aaaaaa" points="122.63,-316.31 130.02,-316.88 124.6,-311.82 122.63,-316.31"/>
</g>
<!-- rel_0 -->
<g id="node13" class="node">
<title>rel_0</title>
<path fill="#f5b8b8" stroke="#d46a6a" stroke-width="1.2" d="M337.62,-293C337.62,-293 305.88,-293 305.88,-293 299.88,-293 293.88,-287 293.88,-281 293.88,-281 293.88,-269 293.88,-269 293.88,-263 299.88,-257 305.88,-257 305.88,-257 337.62,-257 337.62,-257 343.62,-257 349.62,-263 349.62,-269 349.62,-269 349.62,-281 349.62,-281 349.62,-287 343.62,-293 337.62,-293"/>
<text xml:space="preserve" text-anchor="middle" x="321.75" y="-271.5" font-family="Arial" font-size="10.00" fill="#8b0000">obscures</text>
</g>
<!-- unknown.wavy_lines&#45;&gt;rel_0 -->
<g id="edge7" class="edge">
<title>unknown.wavy_lines&#45;&gt;rel_0</title>
<path fill="none" stroke="#d46a6a" stroke-width="1.5" d="M63.4,-274.11C116.89,-274.29 226,-274.67 283.46,-274.87"/>
<polygon fill="#d46a6a" stroke="#d46a6a" stroke-width="1.5" points="283.28,-277.67 291.29,-274.9 283.3,-272.07 283.28,-277.67"/>
</g>
<!-- rel_4 -->
<g id="node17" class="node">
<title>rel_4</title>
<path fill="#f5b8b8" stroke="#d46a6a" stroke-width="1.2" d="M196.88,-229C196.88,-229 152.38,-229 152.38,-229 146.38,-229 140.38,-223 140.38,-217 140.38,-217 140.38,-205 140.38,-205 140.38,-199 146.38,-193 152.38,-193 152.38,-193 196.88,-193 196.88,-193 202.88,-193 208.88,-199 208.88,-205 208.88,-205 208.88,-217 208.88,-217 208.88,-223 202.88,-229 196.88,-229"/>
<text xml:space="preserve" text-anchor="middle" x="174.62" y="-207.5" font-family="Arial" font-size="10.00" fill="#8b0000">overwhelms</text>
</g>
<!-- unknown.wavy_lines&#45;&gt;rel_4 -->
<g id="edge15" class="edge">
<title>unknown.wavy_lines&#45;&gt;rel_4</title>
<path fill="none" stroke="#d46a6a" stroke-width="1.5" d="M63.28,-260.17C83.03,-251.37 108.89,-239.85 130.62,-230.17"/>
<polygon fill="#d46a6a" stroke="#d46a6a" stroke-width="1.5" points="131.71,-232.74 137.88,-226.93 129.43,-227.63 131.71,-232.74"/>
</g>
<!-- text.axis_label -->
<g id="node2" class="node">
<title>text.axis_label</title>
<path fill="#b8e6b8" stroke="#2c3e50" stroke-width="1.8" d="M338.38,-228C338.38,-228 305.12,-228 305.12,-228 299.12,-228 293.12,-222 293.12,-216 293.12,-216 293.12,-204 293.12,-204 293.12,-198 299.12,-192 305.12,-192 305.12,-192 338.38,-192 338.38,-192 344.38,-192 350.38,-198 350.38,-204 350.38,-204 350.38,-216 350.38,-216 350.38,-222 344.38,-228 338.38,-228"/>
<text xml:space="preserve" text-anchor="middle" x="321.75" y="-206.5" font-family="Arial" font-size="10.00" fill="#1a1a1a">axis label</text>
</g>
<!-- attr_1 -->
<g id="node8" class="node">
<title>attr_1</title>
<path fill="#c7b8e6" stroke="#7f8c8d" stroke-width="1.2" d="M514.75,-231C514.75,-231 411.75,-231 411.75,-231 405.75,-231 399.75,-225 399.75,-219 399.75,-219 399.75,-207 399.75,-207 399.75,-201 405.75,-195 411.75,-195 411.75,-195 514.75,-195 514.75,-195 520.75,-195 526.75,-201 526.75,-207 526.75,-207 526.75,-219 526.75,-219 526.75,-225 520.75,-231 514.75,-231"/>
<text xml:space="preserve" text-anchor="middle" x="463.25" y="-209.5" font-family="Arial" font-size="10.00" fill="#1a1a1a">(+) insufficient axis labels</text>
</g>
<!-- text.axis_label&#45;&gt;attr_1 -->
<g id="edge2" class="edge">
<title>text.axis_label&#45;&gt;attr_1</title>
<path fill="none" stroke="#aaaaaa" d="M350.98,-210.61C362.63,-210.86 376.7,-211.16 390.87,-211.46"/>
<polygon fill="#aaaaaa" stroke="#aaaaaa" points="390.63,-213.91 397.69,-211.61 390.74,-209.01 390.63,-213.91"/>
</g>
<!-- rel_1 -->
<g id="node14" class="node">
<title>rel_1</title>
<path fill="#f5b8b8" stroke="#d46a6a" stroke-width="1.2" d="M488.5,-166C488.5,-166 438,-166 438,-166 432,-166 426,-160 426,-154 426,-154 426,-142 426,-142 426,-136 432,-130 438,-130 438,-130 488.5,-130 488.5,-130 494.5,-130 500.5,-136 500.5,-142 500.5,-142 500.5,-154 500.5,-154 500.5,-160 494.5,-166 488.5,-166"/>
<text xml:space="preserve" text-anchor="middle" x="463.25" y="-144.5" font-family="Arial" font-size="10.00" fill="#8b0000">fails to clarify</text>
</g>
<!-- text.axis_label&#45;&gt;rel_1 -->
<g id="edge9" class="edge">
<title>text.axis_label&#45;&gt;rel_1</title>
<path fill="none" stroke="#d46a6a" stroke-width="1.5" d="M350.98,-197.45C369.7,-189.13 394.71,-178.02 416.27,-168.44"/>
<polygon fill="#d46a6a" stroke="#d46a6a" stroke-width="1.5" points="417.33,-171.03 423.51,-165.22 415.06,-165.91 417.33,-171.03"/>
</g>
<!-- unknown.data_points -->
<g id="node3" class="node">
<title>unknown.data_points</title>
<path fill="#b8e6b8" stroke="#2c3e50" stroke-width="1.8" d="M621.75,-166C621.75,-166 581.75,-166 581.75,-166 575.75,-166 569.75,-160 569.75,-154 569.75,-154 569.75,-142 569.75,-142 569.75,-136 575.75,-130 581.75,-130 581.75,-130 621.75,-130 621.75,-130 627.75,-130 633.75,-136 633.75,-142 633.75,-142 633.75,-154 633.75,-154 633.75,-160 627.75,-166 621.75,-166"/>
<text xml:space="preserve" text-anchor="middle" x="601.75" y="-144.5" font-family="Arial" font-size="10.00" fill="#1a1a1a">data points</text>
</g>
<!-- attr_2 -->
<g id="node9" class="node">
<title>attr_2</title>
<path fill="#c7b8e6" stroke="#7f8c8d" stroke-width="1.2" d="M788.75,-166C788.75,-166 688.75,-166 688.75,-166 682.75,-166 676.75,-160 676.75,-154 676.75,-154 676.75,-142 676.75,-142 676.75,-136 682.75,-130 688.75,-130 688.75,-130 788.75,-130 788.75,-130 794.75,-130 800.75,-136 800.75,-142 800.75,-142 800.75,-154 800.75,-154 800.75,-160 794.75,-166 788.75,-166"/>
<text xml:space="preserve" text-anchor="middle" x="738.75" y="-144.5" font-family="Arial" font-size="10.00" fill="#1a1a1a">(+) no exact point values</text>
</g>
<!-- unknown.data_points&#45;&gt;attr_2 -->
<g id="edge3" class="edge">
<title>unknown.data_points&#45;&gt;attr_2</title>
<path fill="none" stroke="#aaaaaa" d="M634.4,-148C644.6,-148 656.33,-148 668.15,-148"/>
<polygon fill="#aaaaaa" stroke="#aaaaaa" points="667.81,-150.45 674.81,-148 667.81,-145.55 667.81,-150.45"/>
</g>
<!-- furniture.legend -->
<g id="node4" class="node">
<title>furniture.legend</title>
<path fill="#b8e6b8" stroke="#2c3e50" stroke-width="1.8" d="M46.25,-99C46.25,-99 16.25,-99 16.25,-99 10.25,-99 4.25,-93 4.25,-87 4.25,-87 4.25,-75 4.25,-75 4.25,-69 10.25,-63 16.25,-63 16.25,-63 46.25,-63 46.25,-63 52.25,-63 58.25,-69 58.25,-75 58.25,-75 58.25,-87 58.25,-87 58.25,-93 52.25,-99 46.25,-99"/>
<text xml:space="preserve" text-anchor="middle" x="31.25" y="-77.5" font-family="Arial" font-size="10.00" fill="#1a1a1a">legend</text>
</g>
<!-- attr_3 -->
<g id="node10" class="node">
<title>attr_3</title>
<path fill="#c7b8e6" stroke="#7f8c8d" stroke-width="1.2" d="M228.38,-132C228.38,-132 120.88,-132 120.88,-132 114.88,-132 108.88,-126 108.88,-120 108.88,-120 108.88,-108 108.88,-108 108.88,-102 114.88,-96 120.88,-96 120.88,-96 228.38,-96 228.38,-96 234.38,-96 240.38,-102 240.38,-108 240.38,-108 240.38,-120 240.38,-120 240.38,-126 234.38,-132 228.38,-132"/>
<text xml:space="preserve" text-anchor="middle" x="174.62" y="-110.5" font-family="Arial" font-size="10.00" fill="#1a1a1a">(+) minimal legend context</text>
</g>
<!-- furniture.legend&#45;&gt;attr_3 -->
<g id="edge4" class="edge">
<title>furniture.legend&#45;&gt;attr_3</title>
<path fill="none" stroke="#aaaaaa" d="M58.84,-87.21C70.72,-89.98 85.36,-93.4 100.17,-96.85"/>
<polygon fill="#aaaaaa" stroke="#aaaaaa" points="99.55,-99.22 106.92,-98.43 100.66,-94.45 99.55,-99.22"/>
</g>
<!-- rel_2 -->
<g id="node15" class="node">
<title>rel_2</title>
<path fill="#f5b8b8" stroke="#d46a6a" stroke-width="1.2" d="M207,-67C207,-67 142.25,-67 142.25,-67 136.25,-67 130.25,-61 130.25,-55 130.25,-55 130.25,-43 130.25,-43 130.25,-37 136.25,-31 142.25,-31 142.25,-31 207,-31 207,-31 213,-31 219,-37 219,-43 219,-43 219,-55 219,-55 219,-61 213,-67 207,-67"/>
<text xml:space="preserve" text-anchor="middle" x="174.62" y="-45.5" font-family="Arial" font-size="10.00" fill="#8b0000">lacks context for</text>
</g>
<!-- furniture.legend&#45;&gt;rel_2 -->
<g id="edge11" class="edge">
<title>furniture.legend&#45;&gt;rel_2</title>
<path fill="none" stroke="#d46a6a" stroke-width="1.5" d="M58.84,-74.98C76.1,-71.07 99.21,-65.84 120.16,-61.1"/>
<polygon fill="#d46a6a" stroke="#d46a6a" stroke-width="1.5" points="120.53,-63.89 127.71,-59.39 119.29,-58.43 120.53,-63.89"/>
</g>
<!-- text.annotation -->
<g id="node5" class="node">
<title>text.annotation</title>
<path fill="#b8e6b8" stroke="#2c3e50" stroke-width="1.8" d="M49.75,-419C49.75,-419 12.75,-419 12.75,-419 6.75,-419 0.75,-413 0.75,-407 0.75,-407 0.75,-395 0.75,-395 0.75,-389 6.75,-383 12.75,-383 12.75,-383 49.75,-383 49.75,-383 55.75,-383 61.75,-389 61.75,-395 61.75,-395 61.75,-407 61.75,-407 61.75,-413 55.75,-419 49.75,-419"/>
<text xml:space="preserve" text-anchor="middle" x="31.25" y="-397.5" font-family="Arial" font-size="10.00" fill="#1a1a1a">annotation</text>
</g>
<!-- attr_4 -->
<g id="node11" class="node">
<title>attr_4</title>
<path fill="#c7b8e6" stroke="#7f8c8d" stroke-width="1.2" d="M231.75,-419C231.75,-419 117.5,-419 117.5,-419 111.5,-419 105.5,-413 105.5,-407 105.5,-407 105.5,-395 105.5,-395 105.5,-389 111.5,-383 117.5,-383 117.5,-383 231.75,-383 231.75,-383 237.75,-383 243.75,-389 243.75,-395 243.75,-395 243.75,-407 243.75,-407 243.75,-413 237.75,-419 231.75,-419"/>
<text xml:space="preserve" text-anchor="middle" x="174.62" y="-397.5" font-family="Arial" font-size="10.00" fill="#1a1a1a">(+) only letters and numbers</text>
</g>
<!-- text.annotation&#45;&gt;attr_4 -->
<g id="edge5" class="edge">
<title>text.annotation&#45;&gt;attr_4</title>
<path fill="none" stroke="#aaaaaa" d="M62.58,-401C72.73,-401 84.55,-401 96.62,-401"/>
<polygon fill="#aaaaaa" stroke="#aaaaaa" points="96.49,-403.45 103.49,-401 96.49,-398.55 96.49,-403.45"/>
</g>
<!-- unknown.color_pattern -->
<g id="node6" class="node">
<title>unknown.color_pattern</title>
<path fill="#b8e6b8" stroke="#2c3e50" stroke-width="1.8" d="M344.75,-67C344.75,-67 298.75,-67 298.75,-67 292.75,-67 286.75,-61 286.75,-55 286.75,-55 286.75,-43 286.75,-43 286.75,-37 292.75,-31 298.75,-31 298.75,-31 344.75,-31 344.75,-31 350.75,-31 356.75,-37 356.75,-43 356.75,-43 356.75,-55 356.75,-55 356.75,-61 350.75,-67 344.75,-67"/>
<text xml:space="preserve" text-anchor="middle" x="321.75" y="-45.5" font-family="Arial" font-size="10.00" fill="#1a1a1a">color pattern</text>
</g>
<!-- attr_5 -->
<g id="node12" class="node">
<title>attr_5</title>
<path fill="#c7b8e6" stroke="#7f8c8d" stroke-width="1.2" d="M512.88,-101C512.88,-101 413.62,-101 413.62,-101 407.62,-101 401.62,-95 401.62,-89 401.62,-89 401.62,-77 401.62,-77 401.62,-71 407.62,-65 413.62,-65 413.62,-65 512.88,-65 512.88,-65 518.88,-65 524.88,-71 524.88,-77 524.88,-77 524.88,-89 524.88,-89 524.88,-95 518.88,-101 512.88,-101"/>
<text xml:space="preserve" text-anchor="middle" x="463.25" y="-79.5" font-family="Arial" font-size="10.00" fill="#1a1a1a">(+) abstract color pattern</text>
</g>
<!-- unknown.color_pattern&#45;&gt;attr_5 -->
<g id="edge6" class="edge">
<title>unknown.color_pattern&#45;&gt;attr_5</title>
<path fill="none" stroke="#aaaaaa" d="M357.59,-57.49C368.45,-60.14 380.83,-63.15 393.17,-66.16"/>
<polygon fill="#aaaaaa" stroke="#aaaaaa" points="392.42,-68.5 399.8,-67.78 393.58,-63.74 392.42,-68.5"/>
</g>
<!-- rel_3 -->
<g id="node16" class="node">
<title>rel_3</title>
<path fill="#f5b8b8" stroke="#d46a6a" stroke-width="1.2" d="M505.38,-36C505.38,-36 421.12,-36 421.12,-36 415.12,-36 409.12,-30 409.12,-24 409.12,-24 409.12,-12 409.12,-12 409.12,-6 415.12,0 421.12,0 421.12,0 505.38,0 505.38,0 511.38,0 517.38,-6 517.38,-12 517.38,-12 517.38,-24 517.38,-24 517.38,-30 511.38,-36 505.38,-36"/>
<text xml:space="preserve" text-anchor="middle" x="463.25" y="-14.5" font-family="Arial" font-size="10.00" fill="#8b0000">increases difficulty of</text>
</g>
<!-- unknown.color_pattern&#45;&gt;rel_3 -->
<g id="edge13" class="edge">
<title>unknown.color_pattern&#45;&gt;rel_3</title>
<path fill="none" stroke="#d46a6a" stroke-width="1.5" d="M357.59,-41.26C370.12,-38.47 384.66,-35.24 398.86,-32.09"/>
<polygon fill="#d46a6a" stroke="#d46a6a" stroke-width="1.5" points="399.18,-34.88 406.38,-30.42 397.96,-29.42 399.18,-34.88"/>
</g>
<!-- rel_0&#45;&gt;unknown.data_points -->
<g id="edge8" class="edge">
<title>rel_0&#45;&gt;unknown.data_points</title>
<path fill="none" stroke="#d46a6a" stroke-width="1.5" d="M349.96,-277.22C391.19,-279.29 470.62,-278.08 526.75,-245 554.18,-228.84 574.9,-198.22 587.35,-175.69"/>
<polygon fill="#d46a6a" stroke="#d46a6a" stroke-width="1.5" points="589.67,-177.28 590.95,-168.9 584.73,-174.66 589.67,-177.28"/>
</g>
<!-- rel_1&#45;&gt;unknown.data_points -->
<g id="edge10" class="edge">
<title>rel_1&#45;&gt;unknown.data_points</title>
<path fill="none" stroke="#d46a6a" stroke-width="1.5" d="M500.83,-148C518.74,-148 540.38,-148 558.94,-148"/>
<polygon fill="#d46a6a" stroke="#d46a6a" stroke-width="1.5" points="558.9,-150.8 566.9,-148 558.9,-145.2 558.9,-150.8"/>
</g>
<!-- rel_2&#45;&gt;unknown.color_pattern -->
<g id="edge12" class="edge">
<title>rel_2&#45;&gt;unknown.color_pattern</title>
<path fill="none" stroke="#d46a6a" stroke-width="1.5" d="M219.56,-49C237.41,-49 258.02,-49 275.96,-49"/>
<polygon fill="#d46a6a" stroke="#d46a6a" stroke-width="1.5" points="275.9,-51.8 283.9,-49 275.9,-46.2 275.9,-51.8"/>
</g>
<!-- rel_3&#45;&gt;unknown.data_points -->
<g id="edge14" class="edge">
<title>rel_3&#45;&gt;unknown.data_points</title>
<path fill="none" stroke="#d46a6a" stroke-width="1.5" d="M506.9,-36.53C513.88,-40.47 520.78,-44.98 526.75,-50 550.75,-70.16 571.59,-99.48 584.98,-120.79"/>
<polygon fill="#d46a6a" stroke="#d46a6a" stroke-width="1.5" points="582.49,-122.1 589.06,-127.45 587.27,-119.17 582.49,-122.1"/>
</g>
<!-- rel_4&#45;&gt;text.axis_label -->
<g id="edge16" class="edge">
<title>rel_4&#45;&gt;text.axis_label</title>
<path fill="none" stroke="#d46a6a" stroke-width="1.5" d="M209.28,-210.77C231.21,-210.62 259.87,-210.42 282.64,-210.26"/>
<polygon fill="#d46a6a" stroke="#d46a6a" stroke-width="1.5" points="282.39,-213.06 290.37,-210.21 282.35,-207.46 282.39,-213.06"/>
</g>
</g>
</svg>
