<?xml version="1.0" encoding="UTF-8" standalone="no"?>
<!DOCTYPE svg PUBLIC "-//W3C//DTD SVG 1.1//EN"
 "http://www.w3.org/Graphics/SVG/1.1/DTD/svg11.dtd">
<!-- Generated by graphviz version 14.1.5 (20260411.2331)
 -->
<!-- Title: VisC.163.2.png Pages: 1 -->
<svg width="547pt" height="505pt"
 viewBox="0.00 0.00 547.00 505.00" xmlns="http://www.w3.org/2000/svg" xmlns:xlink="http://www.w3.org/1999/xlink">
<g id="graph0" class="graph" transform="scale(1 1) rotate(0) translate(4 501.25)">
<title>VisC.163.2.png</title>
<polygon fill="white" stroke="none" points="-4,4 -4,-501.25 542.75,-501.25 542.75,4 -4,4"/>
<text xml:space="preserve" text-anchor="start" x="221.38" y="-476.95" font-family="Arial" font-weight="bold" font-size="14.00">VisC.163.2.png</text>
<text xml:space="preserve" text-anchor="start" x="227" y="-457" font-family="Arial" font-size="11.00">Line &#160;| &#160;VC = 0.55</text>
<path fill="#b8e6b8" stroke="none" d="M60,-432C60,-432 68,-432 68,-432 71,-432 74,-435 74,-438 74,-438 74,-444 74,-444 74,-447 71,-450 68,-450 68,-450 60,-450 60,-450 57,-450 54,-447 54,-444 54,-444 54,-438 54,-438 54,-435 57,-432 60,-432"/>
<path fill="none" stroke="black" d="M60,-432C60,-432 68,-432 68,-432 71,-432 74,-435 74,-438 74,-438 74,-444 74,-444 74,-447 71,-450 68,-450 68,-450 60,-450 60,-450 57,-450 54,-447 54,-444 54,-444 54,-438 54,-438 54,-435 57,-432 60,-432"/>
<text xml:space="preserve" text-anchor="start" x="62.5" y="-437.25" font-family="Arial" font-size="10.00"> </text>
<text xml:space="preserve" text-anchor="start" x="78" y="-437.25" font-family="Arial" font-size="10.00">Object</text>
<path fill="#c7b8e6" stroke="none" d="M116.5,-432C116.5,-432 124.5,-432 124.5,-432 127.5,-432 130.5,-435 130.5,-438 130.5,-438 130.5,-444 130.5,-444 130.5,-447 127.5,-450 124.5,-450 124.5,-450 116.5,-450 116.5,-450 113.5,-450 110.5,-447 110.5,-444 110.5,-444 110.5,-438 110.5,-438 110.5,-435 113.5,-432 116.5,-432"/>
<path fill="none" stroke="black" d="M116.5,-432C116.5,-432 124.5,-432 124.5,-432 127.5,-432 130.5,-435 130.5,-438 130.5,-438 130.5,-444 130.5,-444 130.5,-447 127.5,-450 124.5,-450 124.5,-450 116.5,-450 116.5,-450 113.5,-450 110.5,-447 110.5,-444 110.5,-444 110.5,-438 110.5,-438 110.5,-435 113.5,-432 116.5,-432"/>
<text xml:space="preserve" text-anchor="start" x="119" y="-437.25" font-family="Arial" font-size="10.00"> </text>
<text xml:space="preserve" text-anchor="start" x="134.5" y="-437.25" font-family="Arial" font-size="10.00">Attribute</text>
<path fill="#f5b8b8" stroke="none" d="M181.25,-432C181.25,-432 189.25,-432 189.25,-432 192.25,-432 195.25,-435 195.25,-438 195.25,-438 195.25,-444 195.25,-444 195.25,-447 192.25,-450 189.25,-450 189.25,-450 181.25,-450 181.25,-450 178.25,-450 175.25,-447 175.25,-444 175.25,-444 175.25,-438 175.25,-438 175.25,-435 178.25,-432 181.25,-432"/>
<path fill="none" stroke="black" d="M181.25,-432C181.25,-432 189.25,-432 189.25,-432 192.25,-432 195.25,-435 195.25,-438 195.25,-438 195.25,-444 195.25,-444 195.25,-447 192.25,-450 189.25,-450 189.25,-450 181.25,-450 181.25,-450 178.25,-450 175.25,-447 175.25,-444 175.25,-444 175.25,-438 175.25,-438 175.25,-435 178.25,-432 181.25,-432"/>
<text xml:space="preserve" text-anchor="start" x="183.75" y="-437.25" font-family="Arial" font-size="10.00"> </text>
<text xml:space="preserve" text-anchor="start" x="199.25" y="-437.25" font-family="Arial" font-size="10.00">Relationship</text>
<text xml:space="preserve" text-anchor="start" x="259.25" y="-438.5" font-family="Arial" font-weight="bold" font-size="10.00">(+)</text>
<text xml:space="preserve" text-anchor="start" x="271.25" y="-438.5" font-family="Arial" font-size="10.00"> increases complexity</text>
<text xml:space="preserve" text-anchor="start" x="372.5" y="-438.5" font-family="Arial" font-weight="bold" font-size="10.00">(−)</text>
<text xml:space="preserve" text-anchor="start" x="384.5" y="-438.5" font-family="Arial" font-size="10.00"> decreases complexity</text>
<!-- unknown.curved_lines -->
<g id="node1" class="node">
<title>unknown.curved_lines</title>
<path fill="#b8e6b8" stroke="#2c3e50" stroke-width="1.8" d="M331.25,-121C331.25,-121 286.75,-121 286.75,-121 280.75,-121 274.75,-115 274.75,-109 274.75,-109 274.75,-97 274.75,-97 274.75,-91 280.75,-85 286.75,-85 286.75,-85 331.25,-85 331.25,-85 337.25,-85 343.25,-91 343.25,-97 343.25,-97 343.25,-109 343.25,-109 343.25,-115 337.25,-121 331.25,-121"/>
<text xml:space="preserve" text-anchor="middle" x="309" y="-99.5" font-family="Arial" font-size="10.00" fill="#1a1a1a">curved lines</text>
</g>
<!-- attr_0 -->
<g id="node6" class="node">
<title>attr_0</title>
<path fill="#c7b8e6" stroke="#7f8c8d" stroke-width="1.2" d="M511,-154C511,-154 414.75,-154 414.75,-154 408.75,-154 402.75,-148 402.75,-142 402.75,-142 402.75,-130 402.75,-130 402.75,-124 408.75,-118 414.75,-118 414.75,-118 511,-118 511,-118 517,-118 523,-124 523,-130 523,-130 523,-142 523,-142 523,-148 517,-154 511,-154"/>
<text xml:space="preserve" text-anchor="middle" x="462.88" y="-132.5" font-family="Arial" font-size="10.00" fill="#1a1a1a">(+) multiple curved lines</text>
</g>
<!-- unknown.curved_lines&#45;&gt;attr_0 -->
<g id="edge1" class="edge">
<title>unknown.curved_lines&#45;&gt;attr_0</title>
<path fill="none" stroke="#aaaaaa" d="M344.08,-110.41C358.95,-113.64 376.93,-117.54 394.31,-121.32"/>
<polygon fill="#aaaaaa" stroke="#aaaaaa" points="393.4,-123.63 400.76,-122.72 394.44,-118.84 393.4,-123.63"/>
</g>
<!-- attr_1 -->
<g id="node7" class="node">
<title>attr_1</title>
<path fill="#c7b8e6" stroke="#7f8c8d" stroke-width="1.2" d="M526.75,-89C526.75,-89 399,-89 399,-89 393,-89 387,-83 387,-77 387,-77 387,-65 387,-65 387,-59 393,-53 399,-53 399,-53 526.75,-53 526.75,-53 532.75,-53 538.75,-59 538.75,-65 538.75,-65 538.75,-77 538.75,-77 538.75,-83 532.75,-89 526.75,-89"/>
<text xml:space="preserve" text-anchor="middle" x="462.88" y="-67.5" font-family="Arial" font-size="10.00" fill="#1a1a1a">(+) lacks distinguishing context</text>
</g>
<!-- unknown.curved_lines&#45;&gt;attr_1 -->
<g id="edge2" class="edge">
<title>unknown.curved_lines&#45;&gt;attr_1</title>
<path fill="none" stroke="#aaaaaa" d="M344.08,-95.82C354.49,-93.63 366.41,-91.11 378.59,-88.55"/>
<polygon fill="#aaaaaa" stroke="#aaaaaa" points="378.8,-91.01 385.14,-87.17 377.79,-86.21 378.8,-91.01"/>
</g>
<!-- furniture.legend -->
<g id="node2" class="node">
<title>furniture.legend</title>
<path fill="#b8e6b8" stroke="#2c3e50" stroke-width="1.8" d="M45.5,-231C45.5,-231 15.5,-231 15.5,-231 9.5,-231 3.5,-225 3.5,-219 3.5,-219 3.5,-207 3.5,-207 3.5,-201 9.5,-195 15.5,-195 15.5,-195 45.5,-195 45.5,-195 51.5,-195 57.5,-201 57.5,-207 57.5,-207 57.5,-219 57.5,-219 57.5,-225 51.5,-231 45.5,-231"/>
<text xml:space="preserve" text-anchor="middle" x="30.5" y="-209.5" font-family="Arial" font-size="10.00" fill="#1a1a1a">legend</text>
</g>
<!-- attr_2 -->
<g id="node8" class="node">
<title>attr_2</title>
<path fill="#c7b8e6" stroke="#7f8c8d" stroke-width="1.2" d="M209.25,-296C209.25,-296 125.75,-296 125.75,-296 119.75,-296 113.75,-290 113.75,-284 113.75,-284 113.75,-272 113.75,-272 113.75,-266 119.75,-260 125.75,-260 125.75,-260 209.25,-260 209.25,-260 215.25,-260 221.25,-266 221.25,-272 221.25,-272 221.25,-284 221.25,-284 221.25,-290 215.25,-296 209.25,-296"/>
<text xml:space="preserve" text-anchor="middle" x="167.5" y="-274.5" font-family="Arial" font-size="10.00" fill="#1a1a1a">(+) absent from chart</text>
</g>
<!-- furniture.legend&#45;&gt;attr_2 -->
<g id="edge3" class="edge">
<title>furniture.legend&#45;&gt;attr_2</title>
<path fill="none" stroke="#aaaaaa" d="M58.17,-225.84C75.97,-234.41 99.82,-245.9 120.62,-255.91"/>
<polygon fill="#aaaaaa" stroke="#aaaaaa" points="119.39,-258.04 126.76,-258.87 121.52,-253.62 119.39,-258.04"/>
</g>
<!-- rel_0 -->
<g id="node13" class="node">
<title>rel_0</title>
<path fill="#f5b8b8" stroke="#d46a6a" stroke-width="1.2" d="M219,-166C219,-166 116,-166 116,-166 110,-166 104,-160 104,-154 104,-154 104,-142 104,-142 104,-136 110,-130 116,-130 116,-130 219,-130 219,-130 225,-130 231,-136 231,-142 231,-142 231,-154 231,-154 231,-160 225,-166 219,-166"/>
<text xml:space="preserve" text-anchor="middle" x="167.5" y="-144.5" font-family="Arial" font-size="10.00" fill="#8b0000">absent causing confusion</text>
</g>
<!-- furniture.legend&#45;&gt;rel_0 -->
<g id="edge8" class="edge">
<title>furniture.legend&#45;&gt;rel_0</title>
<path fill="none" stroke="#d46a6a" stroke-width="1.5" d="M58.17,-200.16C75.5,-191.82 98.57,-180.71 118.97,-170.88"/>
<polygon fill="#d46a6a" stroke="#d46a6a" stroke-width="1.5" points="120.09,-173.46 126.08,-167.46 117.66,-168.41 120.09,-173.46"/>
</g>
<!-- rel_2 -->
<g id="node15" class="node">
<title>rel_2</title>
<path fill="#f5b8b8" stroke="#d46a6a" stroke-width="1.2" d="M209.62,-231C209.62,-231 125.38,-231 125.38,-231 119.38,-231 113.38,-225 113.38,-219 113.38,-219 113.38,-207 113.38,-207 113.38,-201 119.38,-195 125.38,-195 125.38,-195 209.62,-195 209.62,-195 215.62,-195 221.62,-201 221.62,-207 221.62,-207 221.62,-219 221.62,-219 221.62,-225 215.62,-231 209.62,-231"/>
<text xml:space="preserve" text-anchor="middle" x="167.5" y="-209.5" font-family="Arial" font-size="10.00" fill="#8b0000">increases difficulty of</text>
</g>
<!-- furniture.legend&#45;&gt;rel_2 -->
<g id="edge12" class="edge">
<title>furniture.legend&#45;&gt;rel_2</title>
<path fill="none" stroke="#d46a6a" stroke-width="1.5" d="M58.17,-213C70.97,-213 86.9,-213 102.57,-213"/>
<polygon fill="#d46a6a" stroke="#d46a6a" stroke-width="1.5" points="102.53,-215.8 110.53,-213 102.53,-210.2 102.53,-215.8"/>
</g>
<!-- text.axis_label -->
<g id="node3" class="node">
<title>text.axis_label</title>
<path fill="#b8e6b8" stroke="#2c3e50" stroke-width="1.8" d="M47.12,-69C47.12,-69 13.88,-69 13.88,-69 7.88,-69 1.88,-63 1.88,-57 1.88,-57 1.88,-45 1.88,-45 1.88,-39 7.88,-33 13.88,-33 13.88,-33 47.12,-33 47.12,-33 53.12,-33 59.12,-39 59.12,-45 59.12,-45 59.12,-57 59.12,-57 59.12,-63 53.12,-69 47.12,-69"/>
<text xml:space="preserve" text-anchor="middle" x="30.5" y="-47.5" font-family="Arial" font-size="10.00" fill="#1a1a1a">axis label</text>
</g>
<!-- attr_3 -->
<g id="node9" class="node">
<title>attr_3</title>
<path fill="#c7b8e6" stroke="#7f8c8d" stroke-width="1.2" d="M212.25,-36C212.25,-36 122.75,-36 122.75,-36 116.75,-36 110.75,-30 110.75,-24 110.75,-24 110.75,-12 110.75,-12 110.75,-6 116.75,0 122.75,0 122.75,0 212.25,0 212.25,0 218.25,0 224.25,-6 224.25,-12 224.25,-12 224.25,-24 224.25,-24 224.25,-30 218.25,-36 212.25,-36"/>
<text xml:space="preserve" text-anchor="middle" x="167.5" y="-14.5" font-family="Arial" font-size="10.00" fill="#1a1a1a">(+) insufficient labeling</text>
</g>
<!-- text.axis_label&#45;&gt;attr_3 -->
<g id="edge4" class="edge">
<title>text.axis_label&#45;&gt;attr_3</title>
<path fill="none" stroke="#aaaaaa" d="M59.8,-44.08C72.2,-41.05 87.29,-37.36 102.18,-33.72"/>
<polygon fill="#aaaaaa" stroke="#aaaaaa" points="102.72,-36.11 108.94,-32.07 101.56,-31.35 102.72,-36.11"/>
</g>
<!-- rel_1 -->
<g id="node14" class="node">
<title>rel_1</title>
<path fill="#f5b8b8" stroke="#d46a6a" stroke-width="1.2" d="M195,-101C195,-101 140,-101 140,-101 134,-101 128,-95 128,-89 128,-89 128,-77 128,-77 128,-71 134,-65 140,-65 140,-65 195,-65 195,-65 201,-65 207,-71 207,-77 207,-77 207,-89 207,-89 207,-95 201,-101 195,-101"/>
<text xml:space="preserve" text-anchor="middle" x="167.5" y="-79.5" font-family="Arial" font-size="10.00" fill="#8b0000">fails to explain</text>
</g>
<!-- text.axis_label&#45;&gt;rel_1 -->
<g id="edge10" class="edge">
<title>text.axis_label&#45;&gt;rel_1</title>
<path fill="none" stroke="#d46a6a" stroke-width="1.5" d="M59.8,-57.71C76.52,-61.67 98.16,-66.8 117.57,-71.4"/>
<polygon fill="#d46a6a" stroke="#d46a6a" stroke-width="1.5" points="116.85,-74.11 125.28,-73.23 118.14,-68.66 116.85,-74.11"/>
</g>
<!-- text.annotation -->
<g id="node4" class="node">
<title>text.annotation</title>
<path fill="#b8e6b8" stroke="#2c3e50" stroke-width="1.8" d="M49,-393C49,-393 12,-393 12,-393 6,-393 0,-387 0,-381 0,-381 0,-369 0,-369 0,-363 6,-357 12,-357 12,-357 49,-357 49,-357 55,-357 61,-363 61,-369 61,-369 61,-381 61,-381 61,-387 55,-393 49,-393"/>
<text xml:space="preserve" text-anchor="middle" x="30.5" y="-371.5" font-family="Arial" font-size="10.00" fill="#1a1a1a">annotation</text>
</g>
<!-- attr_4 -->
<g id="node10" class="node">
<title>attr_4</title>
<path fill="#c7b8e6" stroke="#7f8c8d" stroke-width="1.2" d="M213.38,-361C213.38,-361 121.62,-361 121.62,-361 115.62,-361 109.62,-355 109.62,-349 109.62,-349 109.62,-337 109.62,-337 109.62,-331 115.62,-325 121.62,-325 121.62,-325 213.38,-325 213.38,-325 219.38,-325 225.38,-331 225.38,-337 225.38,-337 225.38,-349 225.38,-349 225.38,-355 219.38,-361 213.38,-361"/>
<text xml:space="preserve" text-anchor="middle" x="167.5" y="-339.5" font-family="Arial" font-size="10.00" fill="#1a1a1a">(+) no contextual detail</text>
</g>
<!-- text.annotation&#45;&gt;attr_4 -->
<g id="edge5" class="edge">
<title>text.annotation&#45;&gt;attr_4</title>
<path fill="none" stroke="#aaaaaa" d="M61.8,-367.82C73.49,-365.05 87.36,-361.76 101.11,-358.5"/>
<polygon fill="#aaaaaa" stroke="#aaaaaa" points="101.45,-360.94 107.7,-356.94 100.32,-356.17 101.45,-360.94"/>
</g>
<!-- rel_3 -->
<g id="node16" class="node">
<title>rel_3</title>
<path fill="#f5b8b8" stroke="#d46a6a" stroke-width="1.2" d="M191.62,-426C191.62,-426 143.38,-426 143.38,-426 137.38,-426 131.38,-420 131.38,-414 131.38,-414 131.38,-402 131.38,-402 131.38,-396 137.38,-390 143.38,-390 143.38,-390 191.62,-390 191.62,-390 197.62,-390 203.62,-396 203.62,-402 203.62,-402 203.62,-414 203.62,-414 203.62,-420 197.62,-426 191.62,-426"/>
<text xml:space="preserve" text-anchor="middle" x="167.5" y="-404.5" font-family="Arial" font-size="10.00" fill="#8b0000">missing from</text>
</g>
<!-- text.annotation&#45;&gt;rel_3 -->
<g id="edge14" class="edge">
<title>text.annotation&#45;&gt;rel_3</title>
<path fill="none" stroke="#d46a6a" stroke-width="1.5" d="M61.8,-382.41C79.27,-386.68 101.59,-392.13 121.12,-396.91"/>
<polygon fill="#d46a6a" stroke="#d46a6a" stroke-width="1.5" points="120.41,-399.61 128.84,-398.79 121.74,-394.17 120.41,-399.61"/>
</g>
<!-- whole.visualization -->
<g id="node5" class="node">
<title>whole.visualization</title>
<path fill="#b8e6b8" stroke="#2c3e50" stroke-width="1.8" d="M332,-255C332,-255 286,-255 286,-255 280,-255 274,-249 274,-243 274,-243 274,-231 274,-231 274,-225 280,-219 286,-219 286,-219 332,-219 332,-219 338,-219 344,-225 344,-231 344,-231 344,-243 344,-243 344,-249 338,-255 332,-255"/>
<text xml:space="preserve" text-anchor="middle" x="309" y="-233.5" font-family="Arial" font-size="10.00" fill="#1a1a1a">visualization</text>
</g>
<!-- attr_5 -->
<g id="node11" class="node">
<title>attr_5</title>
<path fill="#c7b8e6" stroke="#7f8c8d" stroke-width="1.2" d="M522.25,-300C522.25,-300 403.5,-300 403.5,-300 397.5,-300 391.5,-294 391.5,-288 391.5,-288 391.5,-276 391.5,-276 391.5,-270 397.5,-264 403.5,-264 403.5,-264 522.25,-264 522.25,-264 528.25,-264 534.25,-270 534.25,-276 534.25,-276 534.25,-288 534.25,-288 534.25,-294 528.25,-300 522.25,-300"/>
<text xml:space="preserve" text-anchor="middle" x="462.88" y="-278.5" font-family="Arial" font-size="10.00" fill="#1a1a1a">(+) confusing without context</text>
</g>
<!-- whole.visualization&#45;&gt;attr_5 -->
<g id="edge6" class="edge">
<title>whole.visualization&#45;&gt;attr_5</title>
<path fill="none" stroke="#aaaaaa" d="M344.84,-247.32C358.69,-251.43 375.15,-256.3 391.28,-261.08"/>
<polygon fill="#aaaaaa" stroke="#aaaaaa" points="390.3,-263.35 397.71,-262.99 391.7,-258.65 390.3,-263.35"/>
</g>
<!-- attr_6 -->
<g id="node12" class="node">
<title>attr_6</title>
<path fill="#c7b8e6" stroke="#7f8c8d" stroke-width="1.2" d="M506.5,-235C506.5,-235 419.25,-235 419.25,-235 413.25,-235 407.25,-229 407.25,-223 407.25,-223 407.25,-211 407.25,-211 407.25,-205 413.25,-199 419.25,-199 419.25,-199 506.5,-199 506.5,-199 512.5,-199 518.5,-205 518.5,-211 518.5,-211 518.5,-223 518.5,-223 518.5,-229 512.5,-235 506.5,-235"/>
<text xml:space="preserve" text-anchor="middle" x="462.88" y="-213.5" font-family="Arial" font-size="10.00" fill="#1a1a1a">(−) sparse information</text>
</g>
<!-- whole.visualization&#45;&gt;attr_6 -->
<g id="edge7" class="edge">
<title>whole.visualization&#45;&gt;attr_6</title>
<path fill="none" stroke="#aaaaaa" d="M344.84,-232.41C360.72,-230.32 380.02,-227.78 398.33,-225.37"/>
<polygon fill="#aaaaaa" stroke="#aaaaaa" points="398.54,-227.81 405.16,-224.47 397.9,-222.95 398.54,-227.81"/>
</g>
<!-- rel_0&#45;&gt;unknown.curved_lines -->
<g id="edge9" class="edge">
<title>rel_0&#45;&gt;unknown.curved_lines</title>
<path fill="none" stroke="#d46a6a" stroke-width="1.5" d="M226.05,-129.44C238.96,-125.27 252.44,-120.92 264.66,-116.98"/>
<polygon fill="#d46a6a" stroke="#d46a6a" stroke-width="1.5" points="265.24,-119.74 271.99,-114.62 263.52,-114.41 265.24,-119.74"/>
</g>
<!-- rel_1&#45;&gt;unknown.curved_lines -->
<g id="edge11" class="edge">
<title>rel_1&#45;&gt;unknown.curved_lines</title>
<path fill="none" stroke="#d46a6a" stroke-width="1.5" d="M207.36,-88.57C224.96,-91.09 245.86,-94.09 264.03,-96.7"/>
<polygon fill="#d46a6a" stroke="#d46a6a" stroke-width="1.5" points="263.53,-99.45 271.84,-97.82 264.32,-93.91 263.53,-99.45"/>
</g>
<!-- rel_2&#45;&gt;whole.visualization -->
<g id="edge13" class="edge">
<title>rel_2&#45;&gt;whole.visualization</title>
<path fill="none" stroke="#d46a6a" stroke-width="1.5" d="M222.04,-222.21C235.75,-224.57 250.35,-227.08 263.55,-229.35"/>
<polygon fill="#d46a6a" stroke="#d46a6a" stroke-width="1.5" points="262.74,-232.05 271.1,-230.65 263.69,-226.54 262.74,-232.05"/>
</g>
<!-- rel_3&#45;&gt;whole.visualization -->
<g id="edge15" class="edge">
<title>rel_3&#45;&gt;whole.visualization</title>
<path fill="none" stroke="#d46a6a" stroke-width="1.5" d="M203.96,-394.38C213.5,-389.57 223.29,-383.46 231,-376 263.73,-344.32 286.28,-295.67 298.16,-265.13"/>
<polygon fill="#d46a6a" stroke="#d46a6a" stroke-width="1.5" points="300.63,-266.49 300.84,-258.02 295.39,-264.52 300.63,-266.49"/>
</g>
</g>
</svg>
