<?xml version="1.0" encoding="UTF-8" standalone="no"?>
<!DOCTYPE svg PUBLIC "-//W3C//DTD SVG 1.1//EN"
 "http://www.w3.org/Graphics/SVG/1.1/DTD/svg11.dtd">
<!-- Generated by graphviz version 14.1.5 (20260411.2331)
 -->
<!-- Title: VisC.375.9(2).png Pages: 1 -->
<svg width="762pt" height="342pt"
 viewBox="0.00 0.00 762.00 342.00" xmlns="http://www.w3.org/2000/svg" xmlns:xlink="http://www.w3.org/1999/xlink">
<g id="graph0" class="graph" transform="scale(1 1) rotate(0) translate(4 338.25)">
<title>VisC.375.9(2).png</title>
<polygon fill="white" stroke="none" points="-4,4 -4,-338.25 757.75,-338.25 757.75,4 -4,4"/>
<text xml:space="preserve" text-anchor="start" x="320.62" y="-313.95" font-family="Arial" font-weight="bold" font-size="14.00">VisC.375.9(2).png</text>
<text xml:space="preserve" text-anchor="start" x="321.75" y="-294" font-family="Arial" font-size="11.00">Node&#45;link &#160;| &#160;VC = 0.40</text>
<path fill="#b8e6b8" stroke="none" d="M167.5,-269C167.5,-269 175.5,-269 175.5,-269 178.5,-269 181.5,-272 181.5,-275 181.5,-275 181.5,-281 181.5,-281 181.5,-284 178.5,-287 175.5,-287 175.5,-287 167.5,-287 167.5,-287 164.5,-287 161.5,-284 161.5,-281 161.5,-281 161.5,-275 161.5,-275 161.5,-272 164.5,-269 167.5,-269"/>
<path fill="none" stroke="black" d="M167.5,-269C167.5,-269 175.5,-269 175.5,-269 178.5,-269 181.5,-272 181.5,-275 181.5,-275 181.5,-281 181.5,-281 181.5,-284 178.5,-287 175.5,-287 175.5,-287 167.5,-287 167.5,-287 164.5,-287 161.5,-284 161.5,-281 161.5,-281 161.5,-275 161.5,-275 161.5,-272 164.5,-269 167.5,-269"/>
<text xml:space="preserve" text-anchor="start" x="170" y="-274.25" font-family="Arial" font-size="10.00"> </text>
<text xml:space="preserve" text-anchor="start" x="185.5" y="-274.25" font-family="Arial" font-size="10.00">Object</text>
<path fill="#c7b8e6" stroke="none" d="M224,-269C224,-269 232,-269 232,-269 235,-269 238,-272 238,-275 238,-275 238,-281 238,-281 238,-284 235,-287 232,-287 232,-287 224,-287 224,-287 221,-287 218,-284 218,-281 218,-281 218,-275 218,-275 218,-272 221,-269 224,-269"/>
<path fill="none" stroke="black" d="M224,-269C224,-269 232,-269 232,-269 235,-269 238,-272 238,-275 238,-275 238,-281 238,-281 238,-284 235,-287 232,-287 232,-287 224,-287 224,-287 221,-287 218,-284 218,-281 218,-281 218,-275 218,-275 218,-272 221,-269 224,-269"/>
<text xml:space="preserve" text-anchor="start" x="226.5" y="-274.25" font-family="Arial" font-size="10.00"> </text>
<text xml:space="preserve" text-anchor="start" x="242" y="-274.25" font-family="Arial" font-size="10.00">Attribute</text>
<path fill="#f5b8b8" stroke="none" d="M288.75,-269C288.75,-269 296.75,-269 296.75,-269 299.75,-269 302.75,-272 302.75,-275 302.75,-275 302.75,-281 302.75,-281 302.75,-284 299.75,-287 296.75,-287 296.75,-287 288.75,-287 288.75,-287 285.75,-287 282.75,-284 282.75,-281 282.75,-281 282.75,-275 282.75,-275 282.75,-272 285.75,-269 288.75,-269"/>
<path fill="none" stroke="black" d="M288.75,-269C288.75,-269 296.75,-269 296.75,-269 299.75,-269 302.75,-272 302.75,-275 302.75,-275 302.75,-281 302.75,-281 302.75,-284 299.75,-287 296.75,-287 296.75,-287 288.75,-287 288.75,-287 285.75,-287 282.75,-284 282.75,-281 282.75,-281 282.75,-275 282.75,-275 282.75,-272 285.75,-269 288.75,-269"/>
<text xml:space="preserve" text-anchor="start" x="291.25" y="-274.25" font-family="Arial" font-size="10.00"> </text>
<text xml:space="preserve" text-anchor="start" x="306.75" y="-274.25" font-family="Arial" font-size="10.00">Relationship</text>
<text xml:space="preserve" text-anchor="start" x="366.75" y="-275.5" font-family="Arial" font-weight="bold" font-size="10.00">(+)</text>
<text xml:space="preserve" text-anchor="start" x="378.75" y="-275.5" font-family="Arial" font-size="10.00"> increases complexity</text>
<text xml:space="preserve" text-anchor="start" x="480" y="-275.5" font-family="Arial" font-weight="bold" font-size="10.00">(−)</text>
<text xml:space="preserve" text-anchor="start" x="492" y="-275.5" font-family="Arial" font-size="10.00"> decreases complexity</text>
<!-- mark.node -->
<g id="node1" class="node">
<title>mark.node</title>
<path fill="#b8e6b8" stroke="#2c3e50" stroke-width="1.8" d="M574,-36C574,-36 544,-36 544,-36 538,-36 532,-30 532,-24 532,-24 532,-12 532,-12 532,-6 538,0 544,0 544,0 574,0 574,0 580,0 586,-6 586,-12 586,-12 586,-24 586,-24 586,-30 580,-36 574,-36"/>
<text xml:space="preserve" text-anchor="middle" x="559" y="-14.5" font-family="Arial" font-size="10.00" fill="#1a1a1a">node</text>
</g>
<!-- attr_3 -->
<g id="node6" class="node">
<title>attr_3</title>
<path fill="#c7b8e6" stroke="#7f8c8d" stroke-width="1.2" d="M741.75,-36C741.75,-36 641,-36 641,-36 635,-36 629,-30 629,-24 629,-24 629,-12 629,-12 629,-6 635,0 641,0 641,0 741.75,0 741.75,0 747.75,0 753.75,-6 753.75,-12 753.75,-12 753.75,-24 753.75,-24 753.75,-30 747.75,-36 741.75,-36"/>
<text xml:space="preserve" text-anchor="middle" x="691.38" y="-14.5" font-family="Arial" font-size="10.00" fill="#1a1a1a">(−) distinguishable shape</text>
</g>
<!-- mark.node&#45;&gt;attr_3 -->
<g id="edge1" class="edge">
<title>mark.node&#45;&gt;attr_3</title>
<path fill="none" stroke="#aaaaaa" d="M586.7,-18C596.56,-18 608.26,-18 620.19,-18"/>
<polygon fill="#aaaaaa" stroke="#aaaaaa" points="619.94,-20.45 626.94,-18 619.94,-15.55 619.94,-20.45"/>
</g>
<!-- structure.link -->
<g id="node2" class="node">
<title>structure.link</title>
<path fill="#b8e6b8" stroke="#2c3e50" stroke-width="1.8" d="M288.12,-198C288.12,-198 258.12,-198 258.12,-198 252.12,-198 246.12,-192 246.12,-186 246.12,-186 246.12,-174 246.12,-174 246.12,-168 252.12,-162 258.12,-162 258.12,-162 288.12,-162 288.12,-162 294.12,-162 300.12,-168 300.12,-174 300.12,-174 300.12,-186 300.12,-186 300.12,-192 294.12,-198 288.12,-198"/>
<text xml:space="preserve" text-anchor="middle" x="273.12" y="-176.5" font-family="Arial" font-size="10.00" fill="#1a1a1a">link</text>
</g>
<!-- attr_4 -->
<g id="node7" class="node">
<title>attr_4</title>
<path fill="#c7b8e6" stroke="#7f8c8d" stroke-width="1.2" d="M477,-198C477,-198 357.5,-198 357.5,-198 351.5,-198 345.5,-192 345.5,-186 345.5,-186 345.5,-174 345.5,-174 345.5,-168 351.5,-162 357.5,-162 357.5,-162 477,-162 477,-162 483,-162 489,-168 489,-174 489,-174 489,-186 489,-186 489,-192 483,-198 477,-198"/>
<text xml:space="preserve" text-anchor="middle" x="417.25" y="-176.5" font-family="Arial" font-size="10.00" fill="#1a1a1a">(−) clear connection structure</text>
</g>
<!-- structure.link&#45;&gt;attr_4 -->
<g id="edge2" class="edge">
<title>structure.link&#45;&gt;attr_4</title>
<path fill="none" stroke="#aaaaaa" d="M300.86,-180C311.21,-180 323.66,-180 336.49,-180"/>
<polygon fill="#aaaaaa" stroke="#aaaaaa" points="336.45,-182.45 343.45,-180 336.45,-177.55 336.45,-182.45"/>
</g>
<!-- unknown.data_point -->
<g id="node3" class="node">
<title>unknown.data_point</title>
<path fill="#b8e6b8" stroke="#2c3e50" stroke-width="1.8" d="M290.5,-52C290.5,-52 255.75,-52 255.75,-52 249.75,-52 243.75,-46 243.75,-40 243.75,-40 243.75,-28 243.75,-28 243.75,-22 249.75,-16 255.75,-16 255.75,-16 290.5,-16 290.5,-16 296.5,-16 302.5,-22 302.5,-28 302.5,-28 302.5,-40 302.5,-40 302.5,-46 296.5,-52 290.5,-52"/>
<text xml:space="preserve" text-anchor="middle" x="273.12" y="-30.5" font-family="Arial" font-size="10.00" fill="#1a1a1a">data point</text>
</g>
<!-- attr_0 -->
<g id="node8" class="node">
<title>attr_0</title>
<path fill="#c7b8e6" stroke="#7f8c8d" stroke-width="1.2" d="M471.38,-101C471.38,-101 363.12,-101 363.12,-101 357.12,-101 351.12,-95 351.12,-89 351.12,-89 351.12,-77 351.12,-77 351.12,-71 357.12,-65 363.12,-65 363.12,-65 471.38,-65 471.38,-65 477.38,-65 483.38,-71 483.38,-77 483.38,-77 483.38,-89 483.38,-89 483.38,-95 477.38,-101 471.38,-101"/>
<text xml:space="preserve" text-anchor="middle" x="417.25" y="-79.5" font-family="Arial" font-size="10.00" fill="#1a1a1a">(−) clearly visible positions</text>
</g>
<!-- unknown.data_point&#45;&gt;attr_0 -->
<g id="edge3" class="edge">
<title>unknown.data_point&#45;&gt;attr_0</title>
<path fill="none" stroke="#aaaaaa" d="M303.23,-44.03C318.15,-49.18 336.92,-55.65 354.85,-61.83"/>
<polygon fill="#aaaaaa" stroke="#aaaaaa" points="353.63,-64 361.04,-63.97 355.22,-59.37 353.63,-64"/>
</g>
<!-- rel_1 -->
<g id="node12" class="node">
<title>rel_1</title>
<path fill="#f5b8b8" stroke="#d46a6a" stroke-width="1.2" d="M439.5,-36C439.5,-36 395,-36 395,-36 389,-36 383,-30 383,-24 383,-24 383,-12 383,-12 383,-6 389,0 395,0 395,0 439.5,0 439.5,0 445.5,0 451.5,-6 451.5,-12 451.5,-12 451.5,-24 451.5,-24 451.5,-30 445.5,-36 439.5,-36"/>
<text xml:space="preserve" text-anchor="middle" x="417.25" y="-14.5" font-family="Arial" font-size="10.00" fill="#8b0000">encodes via</text>
</g>
<!-- unknown.data_point&#45;&gt;rel_1 -->
<g id="edge8" class="edge">
<title>unknown.data_point&#45;&gt;rel_1</title>
<path fill="none" stroke="#d46a6a" stroke-width="1.5" d="M303.23,-30.72C323.16,-28.48 349.95,-25.46 372.45,-22.93"/>
<polygon fill="#d46a6a" stroke="#d46a6a" stroke-width="1.5" points="372.55,-25.74 380.18,-22.06 371.92,-20.17 372.55,-25.74"/>
</g>
<!-- structure.layout -->
<g id="node4" class="node">
<title>structure.layout</title>
<path fill="#b8e6b8" stroke="#2c3e50" stroke-width="1.8" d="M42,-84C42,-84 12,-84 12,-84 6,-84 0,-78 0,-72 0,-72 0,-60 0,-60 0,-54 6,-48 12,-48 12,-48 42,-48 42,-48 48,-48 54,-54 54,-60 54,-60 54,-72 54,-72 54,-78 48,-84 42,-84"/>
<text xml:space="preserve" text-anchor="middle" x="27" y="-62.5" font-family="Arial" font-size="10.00" fill="#1a1a1a">layout</text>
</g>
<!-- attr_1 -->
<g id="node9" class="node">
<title>attr_1</title>
<path fill="#c7b8e6" stroke="#7f8c8d" stroke-width="1.2" d="M187.62,-117C187.62,-117 110.12,-117 110.12,-117 104.12,-117 98.12,-111 98.12,-105 98.12,-105 98.12,-93 98.12,-93 98.12,-87 104.12,-81 110.12,-81 110.12,-81 187.62,-81 187.62,-81 193.62,-81 199.62,-87 199.62,-93 199.62,-93 199.62,-105 199.62,-105 199.62,-111 193.62,-117 187.62,-117"/>
<text xml:space="preserve" text-anchor="middle" x="148.88" y="-95.5" font-family="Arial" font-size="10.00" fill="#1a1a1a">(−) easy to interpret</text>
</g>
<!-- structure.layout&#45;&gt;attr_1 -->
<g id="edge4" class="edge">
<title>structure.layout&#45;&gt;attr_1</title>
<path fill="none" stroke="#aaaaaa" d="M54.6,-73.32C65.02,-76.19 77.39,-79.6 89.68,-82.98"/>
<polygon fill="#aaaaaa" stroke="#aaaaaa" points="88.85,-85.29 96.25,-84.79 90.15,-80.57 88.85,-85.29"/>
</g>
<!-- rel_0 -->
<g id="node11" class="node">
<title>rel_0</title>
<path fill="#f5b8b8" stroke="#d46a6a" stroke-width="1.2" d="M188.75,-52C188.75,-52 109,-52 109,-52 103,-52 97,-46 97,-40 97,-40 97,-28 97,-28 97,-22 103,-16 109,-16 109,-16 188.75,-16 188.75,-16 194.75,-16 200.75,-22 200.75,-28 200.75,-28 200.75,-40 200.75,-40 200.75,-46 194.75,-52 188.75,-52"/>
<text xml:space="preserve" text-anchor="middle" x="148.88" y="-30.5" font-family="Arial" font-size="10.00" fill="#8b0000">facilitates reading of</text>
</g>
<!-- structure.layout&#45;&gt;rel_0 -->
<g id="edge6" class="edge">
<title>structure.layout&#45;&gt;rel_0</title>
<path fill="none" stroke="#d46a6a" stroke-width="1.5" d="M54.6,-58.9C64.3,-56.31 75.71,-53.26 87.16,-50.21"/>
<polygon fill="#d46a6a" stroke="#d46a6a" stroke-width="1.5" points="87.54,-53 94.55,-48.23 86.1,-47.59 87.54,-53"/>
</g>
<!-- mark.element -->
<g id="node5" class="node">
<title>mark.element</title>
<path fill="#b8e6b8" stroke="#2c3e50" stroke-width="1.8" d="M42,-230C42,-230 12,-230 12,-230 6,-230 0,-224 0,-218 0,-218 0,-206 0,-206 0,-200 6,-194 12,-194 12,-194 42,-194 42,-194 48,-194 54,-200 54,-206 54,-206 54,-218 54,-218 54,-224 48,-230 42,-230"/>
<text xml:space="preserve" text-anchor="middle" x="27" y="-208.5" font-family="Arial" font-size="10.00" fill="#1a1a1a">element</text>
</g>
<!-- attr_2 -->
<g id="node10" class="node">
<title>attr_2</title>
<path fill="#c7b8e6" stroke="#7f8c8d" stroke-width="1.2" d="M186.88,-263C186.88,-263 110.88,-263 110.88,-263 104.88,-263 98.88,-257 98.88,-251 98.88,-251 98.88,-239 98.88,-239 98.88,-233 104.88,-227 110.88,-227 110.88,-227 186.88,-227 186.88,-227 192.88,-227 198.88,-233 198.88,-239 198.88,-239 198.88,-251 198.88,-251 198.88,-257 192.88,-263 186.88,-263"/>
<text xml:space="preserve" text-anchor="middle" x="148.88" y="-241.5" font-family="Arial" font-size="10.00" fill="#1a1a1a">(−) two points each</text>
</g>
<!-- mark.element&#45;&gt;attr_2 -->
<g id="edge5" class="edge">
<title>mark.element&#45;&gt;attr_2</title>
<path fill="none" stroke="#aaaaaa" d="M54.6,-219.32C65.24,-222.25 77.93,-225.75 90.48,-229.2"/>
<polygon fill="#aaaaaa" stroke="#aaaaaa" points="89.82,-231.56 97.21,-231.05 91.12,-226.83 89.82,-231.56"/>
</g>
<!-- rel_2 -->
<g id="node13" class="node">
<title>rel_2</title>
<path fill="#f5b8b8" stroke="#d46a6a" stroke-width="1.2" d="M174.12,-198C174.12,-198 123.62,-198 123.62,-198 117.62,-198 111.62,-192 111.62,-186 111.62,-186 111.62,-174 111.62,-174 111.62,-168 117.62,-162 123.62,-162 123.62,-162 174.12,-162 174.12,-162 180.12,-162 186.12,-168 186.12,-174 186.12,-174 186.12,-186 186.12,-186 186.12,-192 180.12,-198 174.12,-198"/>
<text xml:space="preserve" text-anchor="middle" x="148.88" y="-176.5" font-family="Arial" font-size="10.00" fill="#8b0000">connected by</text>
</g>
<!-- mark.element&#45;&gt;rel_2 -->
<g id="edge10" class="edge">
<title>mark.element&#45;&gt;rel_2</title>
<path fill="none" stroke="#d46a6a" stroke-width="1.5" d="M54.6,-204.9C68.43,-201.21 85.72,-196.59 101.65,-192.34"/>
<polygon fill="#d46a6a" stroke="#d46a6a" stroke-width="1.5" points="102.14,-195.11 109.15,-190.34 100.7,-189.7 102.14,-195.11"/>
</g>
<!-- rel_0&#45;&gt;unknown.data_point -->
<g id="edge7" class="edge">
<title>rel_0&#45;&gt;unknown.data_point</title>
<path fill="none" stroke="#d46a6a" stroke-width="1.5" d="M201.01,-34C211.7,-34 222.8,-34 232.96,-34"/>
<polygon fill="#d46a6a" stroke="#d46a6a" stroke-width="1.5" points="232.89,-36.8 240.89,-34 232.89,-31.2 232.89,-36.8"/>
</g>
<!-- rel_1&#45;&gt;mark.node -->
<g id="edge9" class="edge">
<title>rel_1&#45;&gt;mark.node</title>
<path fill="none" stroke="#d46a6a" stroke-width="1.5" d="M452.08,-18C473.04,-18 499.97,-18 521.43,-18"/>
<polygon fill="#d46a6a" stroke="#d46a6a" stroke-width="1.5" points="521.2,-20.8 529.2,-18 521.2,-15.2 521.2,-20.8"/>
</g>
<!-- rel_2&#45;&gt;structure.link -->
<g id="edge11" class="edge">
<title>rel_2&#45;&gt;structure.link</title>
<path fill="none" stroke="#d46a6a" stroke-width="1.5" d="M186.55,-180C201.98,-180 219.9,-180 235.34,-180"/>
<polygon fill="#d46a6a" stroke="#d46a6a" stroke-width="1.5" points="235.3,-182.8 243.3,-180 235.3,-177.2 235.3,-182.8"/>
</g>
</g>
</svg>
