<?xml version="1.0" encoding="UTF-8" standalone="no"?>
<!DOCTYPE svg PUBLIC "-//W3C//DTD SVG 1.1//EN"
 "http://www.w3.org/Graphics/SVG/1.1/DTD/svg11.dtd">
<!-- Generated by graphviz version 14.1.5 (20260411.2331)
 -->
<!-- Title: VisC.248.3.png Pages: 1 -->
<svg width="794pt" height="376pt"
 viewBox="0.00 0.00 794.00 376.00" xmlns="http://www.w3.org/2000/svg" xmlns:xlink="http://www.w3.org/1999/xlink">
<g id="graph0" class="graph" transform="scale(1 1) rotate(0) translate(4 372.25)">
<title>VisC.248.3.png</title>
<polygon fill="white" stroke="none" points="-4,4 -4,-372.25 789.5,-372.25 789.5,4 -4,4"/>
<text xml:space="preserve" text-anchor="start" x="344.75" y="-347.95" font-family="Arial" font-weight="bold" font-size="14.00">VisC.248.3.png</text>
<text xml:space="preserve" text-anchor="start" x="346.62" y="-328" font-family="Arial" font-size="11.00">Glyph &#160;| &#160;VC = 0.67</text>
<path fill="#b8e6b8" stroke="none" d="M183.38,-303C183.38,-303 191.38,-303 191.38,-303 194.38,-303 197.38,-306 197.38,-309 197.38,-309 197.38,-315 197.38,-315 197.38,-318 194.38,-321 191.38,-321 191.38,-321 183.38,-321 183.38,-321 180.38,-321 177.38,-318 177.38,-315 177.38,-315 177.38,-309 177.38,-309 177.38,-306 180.38,-303 183.38,-303"/>
<path fill="none" stroke="black" d="M183.38,-303C183.38,-303 191.38,-303 191.38,-303 194.38,-303 197.38,-306 197.38,-309 197.38,-309 197.38,-315 197.38,-315 197.38,-318 194.38,-321 191.38,-321 191.38,-321 183.38,-321 183.38,-321 180.38,-321 177.38,-318 177.38,-315 177.38,-315 177.38,-309 177.38,-309 177.38,-306 180.38,-303 183.38,-303"/>
<text xml:space="preserve" text-anchor="start" x="185.88" y="-308.25" font-family="Arial" font-size="10.00"> </text>
<text xml:space="preserve" text-anchor="start" x="201.38" y="-308.25" font-family="Arial" font-size="10.00">Object</text>
<path fill="#c7b8e6" stroke="none" d="M239.88,-303C239.88,-303 247.88,-303 247.88,-303 250.88,-303 253.88,-306 253.88,-309 253.88,-309 253.88,-315 253.88,-315 253.88,-318 250.88,-321 247.88,-321 247.88,-321 239.88,-321 239.88,-321 236.88,-321 233.88,-318 233.88,-315 233.88,-315 233.88,-309 233.88,-309 233.88,-306 236.88,-303 239.88,-303"/>
<path fill="none" stroke="black" d="M239.88,-303C239.88,-303 247.88,-303 247.88,-303 250.88,-303 253.88,-306 253.88,-309 253.88,-309 253.88,-315 253.88,-315 253.88,-318 250.88,-321 247.88,-321 247.88,-321 239.88,-321 239.88,-321 236.88,-321 233.88,-318 233.88,-315 233.88,-315 233.88,-309 233.88,-309 233.88,-306 236.88,-303 239.88,-303"/>
<text xml:space="preserve" text-anchor="start" x="242.38" y="-308.25" font-family="Arial" font-size="10.00"> </text>
<text xml:space="preserve" text-anchor="start" x="257.88" y="-308.25" font-family="Arial" font-size="10.00">Attribute</text>
<path fill="#f5b8b8" stroke="none" d="M304.62,-303C304.62,-303 312.62,-303 312.62,-303 315.62,-303 318.62,-306 318.62,-309 318.62,-309 318.62,-315 318.62,-315 318.62,-318 315.62,-321 312.62,-321 312.62,-321 304.62,-321 304.62,-321 301.62,-321 298.62,-318 298.62,-315 298.62,-315 298.62,-309 298.62,-309 298.62,-306 301.62,-303 304.62,-303"/>
<path fill="none" stroke="black" d="M304.62,-303C304.62,-303 312.62,-303 312.62,-303 315.62,-303 318.62,-306 318.62,-309 318.62,-309 318.62,-315 318.62,-315 318.62,-318 315.62,-321 312.62,-321 312.62,-321 304.62,-321 304.62,-321 301.62,-321 298.62,-318 298.62,-315 298.62,-315 298.62,-309 298.62,-309 298.62,-306 301.62,-303 304.62,-303"/>
<text xml:space="preserve" text-anchor="start" x="307.12" y="-308.25" font-family="Arial" font-size="10.00"> </text>
<text xml:space="preserve" text-anchor="start" x="322.62" y="-308.25" font-family="Arial" font-size="10.00">Relationship</text>
<text xml:space="preserve" text-anchor="start" x="382.62" y="-309.5" font-family="Arial" font-weight="bold" font-size="10.00">(+)</text>
<text xml:space="preserve" text-anchor="start" x="394.62" y="-309.5" font-family="Arial" font-size="10.00"> increases complexity</text>
<text xml:space="preserve" text-anchor="start" x="495.88" y="-309.5" font-family="Arial" font-weight="bold" font-size="10.00">(−)</text>
<text xml:space="preserve" text-anchor="start" x="507.88" y="-309.5" font-family="Arial" font-size="10.00"> decreases complexity</text>
<!-- unknown.left_glyph -->
<g id="node1" class="node">
<title>unknown.left_glyph</title>
<path fill="#b8e6b8" stroke="#2c3e50" stroke-width="1.8" d="M323.88,-134C323.88,-134 292.12,-134 292.12,-134 286.12,-134 280.12,-128 280.12,-122 280.12,-122 280.12,-110 280.12,-110 280.12,-104 286.12,-98 292.12,-98 292.12,-98 323.88,-98 323.88,-98 329.88,-98 335.88,-104 335.88,-110 335.88,-110 335.88,-122 335.88,-122 335.88,-128 329.88,-134 323.88,-134"/>
<text xml:space="preserve" text-anchor="middle" x="308" y="-112.5" font-family="Arial" font-size="10.00" fill="#1a1a1a">left glyph</text>
</g>
<!-- attr_0 -->
<g id="node6" class="node">
<title>attr_0</title>
<path fill="#c7b8e6" stroke="#7f8c8d" stroke-width="1.2" d="M484.12,-231C484.12,-231 414.12,-231 414.12,-231 408.12,-231 402.12,-225 402.12,-219 402.12,-219 402.12,-207 402.12,-207 402.12,-201 408.12,-195 414.12,-195 414.12,-195 484.12,-195 484.12,-195 490.12,-195 496.12,-201 496.12,-207 496.12,-207 496.12,-219 496.12,-219 496.12,-225 490.12,-231 484.12,-231"/>
<text xml:space="preserve" text-anchor="middle" x="449.12" y="-209.5" font-family="Arial" font-size="10.00" fill="#1a1a1a">(+) high fine detail</text>
</g>
<!-- unknown.left_glyph&#45;&gt;attr_0 -->
<g id="edge1" class="edge">
<title>unknown.left_glyph&#45;&gt;attr_0</title>
<path fill="none" stroke="#aaaaaa" d="M327.88,-134.83C342.37,-148.67 363.29,-167.35 383.75,-181 388.75,-184.33 394.14,-187.55 399.6,-190.56"/>
<polygon fill="#aaaaaa" stroke="#aaaaaa" points="398.4,-192.7 405.73,-193.84 400.71,-188.38 398.4,-192.7"/>
</g>
<!-- attr_1 -->
<g id="node7" class="node">
<title>attr_1</title>
<path fill="#c7b8e6" stroke="#7f8c8d" stroke-width="1.2" d="M495,-166C495,-166 403.25,-166 403.25,-166 397.25,-166 391.25,-160 391.25,-154 391.25,-154 391.25,-142 391.25,-142 391.25,-136 397.25,-130 403.25,-130 403.25,-130 495,-130 495,-130 501,-130 507,-136 507,-142 507,-142 507,-154 507,-154 507,-160 501,-166 495,-166"/>
<text xml:space="preserve" text-anchor="middle" x="449.12" y="-144.5" font-family="Arial" font-size="10.00" fill="#1a1a1a">(+) dense space usage</text>
</g>
<!-- unknown.left_glyph&#45;&gt;attr_1 -->
<g id="edge2" class="edge">
<title>unknown.left_glyph&#45;&gt;attr_1</title>
<path fill="none" stroke="#aaaaaa" d="M336.49,-122.32C349.83,-125.39 366.47,-129.22 382.8,-132.98"/>
<polygon fill="#aaaaaa" stroke="#aaaaaa" points="381.93,-135.29 389.3,-134.47 383.03,-130.51 381.93,-135.29"/>
</g>
<!-- attr_5 -->
<g id="node8" class="node">
<title>attr_5</title>
<path fill="#c7b8e6" stroke="#7f8c8d" stroke-width="1.2" d="M502.5,-101C502.5,-101 395.75,-101 395.75,-101 389.75,-101 383.75,-95 383.75,-89 383.75,-89 383.75,-77 383.75,-77 383.75,-71 389.75,-65 395.75,-65 395.75,-65 502.5,-65 502.5,-65 508.5,-65 514.5,-71 514.5,-77 514.5,-77 514.5,-89 514.5,-89 514.5,-95 508.5,-101 502.5,-101"/>
<text xml:space="preserve" text-anchor="middle" x="449.12" y="-79.5" font-family="Arial" font-size="10.00" fill="#1a1a1a">(+) more elements present</text>
</g>
<!-- unknown.left_glyph&#45;&gt;attr_5 -->
<g id="edge3" class="edge">
<title>unknown.left_glyph&#45;&gt;attr_5</title>
<path fill="none" stroke="#aaaaaa" d="M336.49,-109.48C347.74,-106.81 361.35,-103.58 375.13,-100.31"/>
<polygon fill="#aaaaaa" stroke="#aaaaaa" points="375.54,-102.74 381.78,-98.74 374.41,-97.97 375.54,-102.74"/>
</g>
<!-- rel_3 -->
<g id="node16" class="node">
<title>rel_3</title>
<path fill="#f5b8b8" stroke="#d46a6a" stroke-width="1.2" d="M499.88,-36C499.88,-36 398.38,-36 398.38,-36 392.38,-36 386.38,-30 386.38,-24 386.38,-24 386.38,-12 386.38,-12 386.38,-6 392.38,0 398.38,0 398.38,0 499.88,0 499.88,0 505.88,0 511.88,-6 511.88,-12 511.88,-12 511.88,-24 511.88,-24 511.88,-30 505.88,-36 499.88,-36"/>
<text xml:space="preserve" text-anchor="middle" x="449.12" y="-14.5" font-family="Arial" font-size="10.00" fill="#8b0000">contains more detail than</text>
</g>
<!-- unknown.left_glyph&#45;&gt;rel_3 -->
<g id="edge14" class="edge">
<title>unknown.left_glyph&#45;&gt;rel_3</title>
<path fill="none" stroke="#d46a6a" stroke-width="1.5" d="M327.93,-97.24C342.44,-83.45 363.38,-64.78 383.75,-51 388.8,-47.58 394.25,-44.27 399.77,-41.16"/>
<polygon fill="#d46a6a" stroke="#d46a6a" stroke-width="1.5" points="400.77,-43.8 406.46,-37.51 398.09,-38.88 400.77,-43.8"/>
</g>
<!-- unknown.right_glyph -->
<g id="node2" class="node">
<title>unknown.right_glyph</title>
<path fill="#b8e6b8" stroke="#2c3e50" stroke-width="1.8" d="M606.5,-166C606.5,-166 569.5,-166 569.5,-166 563.5,-166 557.5,-160 557.5,-154 557.5,-154 557.5,-142 557.5,-142 557.5,-136 563.5,-130 569.5,-130 569.5,-130 606.5,-130 606.5,-130 612.5,-130 618.5,-136 618.5,-142 618.5,-142 618.5,-154 618.5,-154 618.5,-160 612.5,-166 606.5,-166"/>
<text xml:space="preserve" text-anchor="middle" x="588" y="-144.5" font-family="Arial" font-size="10.00" fill="#1a1a1a">right glyph</text>
</g>
<!-- attr_3 -->
<g id="node9" class="node">
<title>attr_3</title>
<path fill="#c7b8e6" stroke="#7f8c8d" stroke-width="1.2" d="M773.5,-166C773.5,-166 673.5,-166 673.5,-166 667.5,-166 661.5,-160 661.5,-154 661.5,-154 661.5,-142 661.5,-142 661.5,-136 667.5,-130 673.5,-130 673.5,-130 773.5,-130 773.5,-130 779.5,-130 785.5,-136 785.5,-142 785.5,-142 785.5,-154 785.5,-154 785.5,-160 779.5,-166 773.5,-166"/>
<text xml:space="preserve" text-anchor="middle" x="723.5" y="-144.5" font-family="Arial" font-size="10.00" fill="#1a1a1a">(−) sparse unused space</text>
</g>
<!-- unknown.right_glyph&#45;&gt;attr_3 -->
<g id="edge4" class="edge">
<title>unknown.right_glyph&#45;&gt;attr_3</title>
<path fill="none" stroke="#aaaaaa" d="M619.29,-148C629.26,-148 640.79,-148 652.46,-148"/>
<polygon fill="#aaaaaa" stroke="#aaaaaa" points="652.44,-150.45 659.44,-148 652.44,-145.55 652.44,-150.45"/>
</g>
<!-- unknown.lines -->
<g id="node3" class="node">
<title>unknown.lines</title>
<path fill="#b8e6b8" stroke="#2c3e50" stroke-width="1.8" d="M42,-264C42,-264 12,-264 12,-264 6,-264 0,-258 0,-252 0,-252 0,-240 0,-240 0,-234 6,-228 12,-228 12,-228 42,-228 42,-228 48,-228 54,-234 54,-240 54,-240 54,-252 54,-252 54,-258 48,-264 42,-264"/>
<text xml:space="preserve" text-anchor="middle" x="27" y="-242.5" font-family="Arial" font-size="10.00" fill="#1a1a1a">lines</text>
</g>
<!-- attr_2 -->
<g id="node10" class="node">
<title>attr_2</title>
<path fill="#c7b8e6" stroke="#7f8c8d" stroke-width="1.2" d="M215.38,-297C215.38,-297 113.88,-297 113.88,-297 107.88,-297 101.88,-291 101.88,-285 101.88,-285 101.88,-273 101.88,-273 101.88,-267 107.88,-261 113.88,-261 113.88,-261 215.38,-261 215.38,-261 221.38,-261 227.38,-267 227.38,-273 227.38,-273 227.38,-285 227.38,-285 227.38,-291 221.38,-297 215.38,-297"/>
<text xml:space="preserve" text-anchor="middle" x="164.62" y="-275.5" font-family="Arial" font-size="10.00" fill="#1a1a1a">(+) precise line thickness</text>
</g>
<!-- unknown.lines&#45;&gt;attr_2 -->
<g id="edge5" class="edge">
<title>unknown.lines&#45;&gt;attr_2</title>
<path fill="none" stroke="#aaaaaa" d="M54.8,-252.52C66.02,-255.25 79.66,-258.57 93.42,-261.92"/>
<polygon fill="#aaaaaa" stroke="#aaaaaa" points="92.67,-264.26 100.05,-263.53 93.83,-259.5 92.67,-264.26"/>
</g>
<!-- rel_0 -->
<g id="node13" class="node">
<title>rel_0</title>
<path fill="#f5b8b8" stroke="#d46a6a" stroke-width="1.2" d="M212.38,-232C212.38,-232 116.88,-232 116.88,-232 110.88,-232 104.88,-226 104.88,-220 104.88,-220 104.88,-208 104.88,-208 104.88,-202 110.88,-196 116.88,-196 116.88,-196 212.38,-196 212.38,-196 218.38,-196 224.38,-202 224.38,-208 224.38,-208 224.38,-220 224.38,-220 224.38,-226 218.38,-232 212.38,-232"/>
<text xml:space="preserve" text-anchor="middle" x="164.62" y="-210.5" font-family="Arial" font-size="10.00" fill="#8b0000">increases complexity of</text>
</g>
<!-- unknown.lines&#45;&gt;rel_0 -->
<g id="edge8" class="edge">
<title>unknown.lines&#45;&gt;rel_0</title>
<path fill="none" stroke="#d46a6a" stroke-width="1.5" d="M54.8,-239.68C66.34,-236.95 80.42,-233.63 94.57,-230.29"/>
<polygon fill="#d46a6a" stroke="#d46a6a" stroke-width="1.5" points="94.99,-233.07 102.14,-228.51 93.71,-227.62 94.99,-233.07"/>
</g>
<!-- unknown.whitespace -->
<g id="node4" class="node">
<title>unknown.whitespace</title>
<path fill="#b8e6b8" stroke="#2c3e50" stroke-width="1.8" d="M328.75,-296C328.75,-296 287.25,-296 287.25,-296 281.25,-296 275.25,-290 275.25,-284 275.25,-284 275.25,-272 275.25,-272 275.25,-266 281.25,-260 287.25,-260 287.25,-260 328.75,-260 328.75,-260 334.75,-260 340.75,-266 340.75,-272 340.75,-272 340.75,-284 340.75,-284 340.75,-290 334.75,-296 328.75,-296"/>
<text xml:space="preserve" text-anchor="middle" x="308" y="-274.5" font-family="Arial" font-size="10.00" fill="#1a1a1a">whitespace</text>
</g>
<!-- rel_1 -->
<g id="node14" class="node">
<title>rel_1</title>
<path fill="#f5b8b8" stroke="#d46a6a" stroke-width="1.2" d="M484.88,-296C484.88,-296 413.38,-296 413.38,-296 407.38,-296 401.38,-290 401.38,-284 401.38,-284 401.38,-272 401.38,-272 401.38,-266 407.38,-260 413.38,-260 413.38,-260 484.88,-260 484.88,-260 490.88,-260 496.88,-266 496.88,-272 496.88,-272 496.88,-284 496.88,-284 496.88,-290 490.88,-296 484.88,-296"/>
<text xml:space="preserve" text-anchor="middle" x="449.12" y="-274.5" font-family="Arial" font-size="10.00" fill="#8b0000">reduces density in</text>
</g>
<!-- unknown.whitespace&#45;&gt;rel_1 -->
<g id="edge10" class="edge">
<title>unknown.whitespace&#45;&gt;rel_1</title>
<path fill="none" stroke="#d46a6a" stroke-width="1.5" d="M341.62,-278C356.25,-278 373.96,-278 390.69,-278"/>
<polygon fill="#d46a6a" stroke="#d46a6a" stroke-width="1.5" points="390.68,-280.8 398.68,-278 390.68,-275.2 390.68,-280.8"/>
</g>
<!-- structure.pattern -->
<g id="node5" class="node">
<title>structure.pattern</title>
<path fill="#b8e6b8" stroke="#2c3e50" stroke-width="1.8" d="M42,-102C42,-102 12,-102 12,-102 6,-102 0,-96 0,-90 0,-90 0,-78 0,-78 0,-72 6,-66 12,-66 12,-66 42,-66 42,-66 48,-66 54,-72 54,-78 54,-78 54,-90 54,-90 54,-96 48,-102 42,-102"/>
<text xml:space="preserve" text-anchor="middle" x="27" y="-80.5" font-family="Arial" font-size="10.00" fill="#1a1a1a">pattern</text>
</g>
<!-- attr_4 -->
<g id="node11" class="node">
<title>attr_4</title>
<path fill="#c7b8e6" stroke="#7f8c8d" stroke-width="1.2" d="M219.5,-167C219.5,-167 109.75,-167 109.75,-167 103.75,-167 97.75,-161 97.75,-155 97.75,-155 97.75,-143 97.75,-143 97.75,-137 103.75,-131 109.75,-131 109.75,-131 219.5,-131 219.5,-131 225.5,-131 231.5,-137 231.5,-143 231.5,-143 231.5,-155 231.5,-155 231.5,-161 225.5,-167 219.5,-167"/>
<text xml:space="preserve" text-anchor="middle" x="164.62" y="-145.5" font-family="Arial" font-size="10.00" fill="#1a1a1a">(−) holistic pleasing pattern</text>
</g>
<!-- structure.pattern&#45;&gt;attr_4 -->
<g id="edge6" class="edge">
<title>structure.pattern&#45;&gt;attr_4</title>
<path fill="none" stroke="#aaaaaa" d="M54.8,-96.84C72.67,-105.41 96.64,-116.9 117.53,-126.91"/>
<polygon fill="#aaaaaa" stroke="#aaaaaa" points="116.34,-129.05 123.71,-129.87 118.45,-124.63 116.34,-129.05"/>
</g>
<!-- attr_6 -->
<g id="node12" class="node">
<title>attr_6</title>
<path fill="#c7b8e6" stroke="#7f8c8d" stroke-width="1.2" d="M220.25,-102C220.25,-102 109,-102 109,-102 103,-102 97,-96 97,-90 97,-90 97,-78 97,-78 97,-72 103,-66 109,-66 109,-66 220.25,-66 220.25,-66 226.25,-66 232.25,-72 232.25,-78 232.25,-78 232.25,-90 232.25,-90 232.25,-96 226.25,-102 220.25,-102"/>
<text xml:space="preserve" text-anchor="middle" x="164.62" y="-80.5" font-family="Arial" font-size="10.00" fill="#1a1a1a">(−) familiar overall structure</text>
</g>
<!-- structure.pattern&#45;&gt;attr_6 -->
<g id="edge7" class="edge">
<title>structure.pattern&#45;&gt;attr_6</title>
<path fill="none" stroke="#aaaaaa" d="M54.8,-84C64.58,-84 76.19,-84 88.12,-84"/>
<polygon fill="#aaaaaa" stroke="#aaaaaa" points="87.9,-86.45 94.9,-84 87.9,-81.55 87.9,-86.45"/>
</g>
<!-- rel_2 -->
<g id="node15" class="node">
<title>rel_2</title>
<path fill="#f5b8b8" stroke="#d46a6a" stroke-width="1.2" d="M219.12,-37C219.12,-37 110.12,-37 110.12,-37 104.12,-37 98.12,-31 98.12,-25 98.12,-25 98.12,-13 98.12,-13 98.12,-7 104.12,-1 110.12,-1 110.12,-1 219.12,-1 219.12,-1 225.12,-1 231.12,-7 231.12,-13 231.12,-13 231.12,-25 231.12,-25 231.12,-31 225.12,-37 219.12,-37"/>
<text xml:space="preserve" text-anchor="middle" x="164.62" y="-15.5" font-family="Arial" font-size="10.00" fill="#8b0000">facilitates understanding of</text>
</g>
<!-- structure.pattern&#45;&gt;rel_2 -->
<g id="edge12" class="edge">
<title>structure.pattern&#45;&gt;rel_2</title>
<path fill="none" stroke="#d46a6a" stroke-width="1.5" d="M54.8,-71.16C72.2,-62.82 95.38,-51.71 115.88,-41.88"/>
<polygon fill="#d46a6a" stroke="#d46a6a" stroke-width="1.5" points="117.02,-44.44 123.02,-38.46 114.6,-39.39 117.02,-44.44"/>
</g>
<!-- rel_0&#45;&gt;unknown.left_glyph -->
<g id="edge9" class="edge">
<title>rel_0&#45;&gt;unknown.left_glyph</title>
<path fill="none" stroke="#d46a6a" stroke-width="1.5" d="M208.53,-195.55C216.63,-191.47 224.87,-186.89 232.25,-182 249.9,-170.29 267.75,-154.7 281.58,-141.61"/>
<polygon fill="#d46a6a" stroke="#d46a6a" stroke-width="1.5" points="283.37,-143.78 287.19,-136.21 279.49,-139.75 283.37,-143.78"/>
</g>
<!-- rel_1&#45;&gt;unknown.right_glyph -->
<g id="edge11" class="edge">
<title>rel_1&#45;&gt;unknown.right_glyph</title>
<path fill="none" stroke="#d46a6a" stroke-width="1.5" d="M494.45,-259.47C501.52,-255.55 508.47,-251.05 514.5,-246 538.34,-226.02 558.71,-196.67 571.73,-175.3"/>
<polygon fill="#d46a6a" stroke="#d46a6a" stroke-width="1.5" points="574.01,-176.94 575.69,-168.63 569.2,-174.08 574.01,-176.94"/>
</g>
<!-- rel_2&#45;&gt;unknown.left_glyph -->
<g id="edge13" class="edge">
<title>rel_2&#45;&gt;unknown.left_glyph</title>
<path fill="none" stroke="#d46a6a" stroke-width="1.5" d="M207.04,-37.52C215.59,-41.89 224.39,-46.8 232.25,-52 249.33,-63.29 266.79,-78.03 280.54,-90.52"/>
<polygon fill="#d46a6a" stroke="#d46a6a" stroke-width="1.5" points="278.33,-92.28 286.1,-95.65 282.12,-88.16 278.33,-92.28"/>
</g>
<!-- rel_3&#45;&gt;unknown.right_glyph -->
<g id="edge15" class="edge">
<title>rel_3&#45;&gt;unknown.right_glyph</title>
<path fill="none" stroke="#d46a6a" stroke-width="1.5" d="M493.07,-36.52C500.6,-40.72 508.07,-45.57 514.5,-51 537.97,-70.82 558.27,-99.62 571.37,-120.69"/>
<polygon fill="#d46a6a" stroke="#d46a6a" stroke-width="1.5" points="568.81,-121.87 575.35,-127.25 573.6,-118.96 568.81,-121.87"/>
</g>
</g>
</svg>
