<?xml version="1.0" encoding="UTF-8" standalone="no"?>
<!DOCTYPE svg PUBLIC "-//W3C//DTD SVG 1.1//EN"
 "http://www.w3.org/Graphics/SVG/1.1/DTD/svg11.dtd">
<!-- Generated by graphviz version 14.1.5 (20260411.2331)
 -->
<!-- Title: VisC.263.7.png Pages: 1 -->
<svg width="506pt" height="570pt"
 viewBox="0.00 0.00 506.00 570.00" xmlns="http://www.w3.org/2000/svg" xmlns:xlink="http://www.w3.org/1999/xlink">
<g id="graph0" class="graph" transform="scale(1 1) rotate(0) translate(4 566.25)">
<title>VisC.263.7.png</title>
<polygon fill="white" stroke="none" points="-4,4 -4,-566.25 502,-566.25 502,4 -4,4"/>
<text xml:space="preserve" text-anchor="start" x="201" y="-541.95" font-family="Arial" font-weight="bold" font-size="14.00">VisC.263.7.png</text>
<text xml:space="preserve" text-anchor="start" x="206.62" y="-522" font-family="Arial" font-size="11.00">Line &#160;| &#160;VC = 0.57</text>
<path fill="#b8e6b8" stroke="none" d="M39.62,-497C39.62,-497 47.62,-497 47.62,-497 50.62,-497 53.62,-500 53.62,-503 53.62,-503 53.62,-509 53.62,-509 53.62,-512 50.62,-515 47.62,-515 47.62,-515 39.62,-515 39.62,-515 36.62,-515 33.62,-512 33.62,-509 33.62,-509 33.62,-503 33.62,-503 33.62,-500 36.62,-497 39.62,-497"/>
<path fill="none" stroke="black" d="M39.62,-497C39.62,-497 47.62,-497 47.62,-497 50.62,-497 53.62,-500 53.62,-503 53.62,-503 53.62,-509 53.62,-509 53.62,-512 50.62,-515 47.62,-515 47.62,-515 39.62,-515 39.62,-515 36.62,-515 33.62,-512 33.62,-509 33.62,-509 33.62,-503 33.62,-503 33.62,-500 36.62,-497 39.62,-497"/>
<text xml:space="preserve" text-anchor="start" x="42.12" y="-502.25" font-family="Arial" font-size="10.00"> </text>
<text xml:space="preserve" text-anchor="start" x="57.62" y="-502.25" font-family="Arial" font-size="10.00">Object</text>
<path fill="#c7b8e6" stroke="none" d="M96.12,-497C96.12,-497 104.12,-497 104.12,-497 107.12,-497 110.12,-500 110.12,-503 110.12,-503 110.12,-509 110.12,-509 110.12,-512 107.12,-515 104.12,-515 104.12,-515 96.12,-515 96.12,-515 93.12,-515 90.12,-512 90.12,-509 90.12,-509 90.12,-503 90.12,-503 90.12,-500 93.12,-497 96.12,-497"/>
<path fill="none" stroke="black" d="M96.12,-497C96.12,-497 104.12,-497 104.12,-497 107.12,-497 110.12,-500 110.12,-503 110.12,-503 110.12,-509 110.12,-509 110.12,-512 107.12,-515 104.12,-515 104.12,-515 96.12,-515 96.12,-515 93.12,-515 90.12,-512 90.12,-509 90.12,-509 90.12,-503 90.12,-503 90.12,-500 93.12,-497 96.12,-497"/>
<text xml:space="preserve" text-anchor="start" x="98.62" y="-502.25" font-family="Arial" font-size="10.00"> </text>
<text xml:space="preserve" text-anchor="start" x="114.12" y="-502.25" font-family="Arial" font-size="10.00">Attribute</text>
<path fill="#f5b8b8" stroke="none" d="M160.88,-497C160.88,-497 168.88,-497 168.88,-497 171.88,-497 174.88,-500 174.88,-503 174.88,-503 174.88,-509 174.88,-509 174.88,-512 171.88,-515 168.88,-515 168.88,-515 160.88,-515 160.88,-515 157.88,-515 154.88,-512 154.88,-509 154.88,-509 154.88,-503 154.88,-503 154.88,-500 157.88,-497 160.88,-497"/>
<path fill="none" stroke="black" d="M160.88,-497C160.88,-497 168.88,-497 168.88,-497 171.88,-497 174.88,-500 174.88,-503 174.88,-503 174.88,-509 174.88,-509 174.88,-512 171.88,-515 168.88,-515 168.88,-515 160.88,-515 160.88,-515 157.88,-515 154.88,-512 154.88,-509 154.88,-509 154.88,-503 154.88,-503 154.88,-500 157.88,-497 160.88,-497"/>
<text xml:space="preserve" text-anchor="start" x="163.38" y="-502.25" font-family="Arial" font-size="10.00"> </text>
<text xml:space="preserve" text-anchor="start" x="178.88" y="-502.25" font-family="Arial" font-size="10.00">Relationship</text>
<text xml:space="preserve" text-anchor="start" x="238.88" y="-503.5" font-family="Arial" font-weight="bold" font-size="10.00">(+)</text>
<text xml:space="preserve" text-anchor="start" x="250.88" y="-503.5" font-family="Arial" font-size="10.00"> increases complexity</text>
<text xml:space="preserve" text-anchor="start" x="352.12" y="-503.5" font-family="Arial" font-weight="bold" font-size="10.00">(−)</text>
<text xml:space="preserve" text-anchor="start" x="364.12" y="-503.5" font-family="Arial" font-size="10.00"> decreases complexity</text>
<!-- mark.line -->
<g id="node1" class="node">
<title>mark.line</title>
<path fill="#b8e6b8" stroke="#2c3e50" stroke-width="1.8" d="M330.88,-199C330.88,-199 300.88,-199 300.88,-199 294.88,-199 288.88,-193 288.88,-187 288.88,-187 288.88,-175 288.88,-175 288.88,-169 294.88,-163 300.88,-163 300.88,-163 330.88,-163 330.88,-163 336.88,-163 342.88,-169 342.88,-175 342.88,-175 342.88,-187 342.88,-187 342.88,-193 336.88,-199 330.88,-199"/>
<text xml:space="preserve" text-anchor="middle" x="315.88" y="-177.5" font-family="Arial" font-size="10.00" fill="#1a1a1a">line</text>
</g>
<!-- attr_3 -->
<g id="node6" class="node">
<title>attr_3</title>
<path fill="#c7b8e6" stroke="#7f8c8d" stroke-width="1.2" d="M486,-199C486,-199 399.5,-199 399.5,-199 393.5,-199 387.5,-193 387.5,-187 387.5,-187 387.5,-175 387.5,-175 387.5,-169 393.5,-163 399.5,-163 399.5,-163 486,-163 486,-163 492,-163 498,-169 498,-175 498,-175 498,-187 498,-187 498,-193 492,-199 486,-199"/>
<text xml:space="preserve" text-anchor="middle" x="442.75" y="-177.5" font-family="Arial" font-size="10.00" fill="#1a1a1a">(+) hard to distinguish</text>
</g>
<!-- mark.line&#45;&gt;attr_3 -->
<g id="edge1" class="edge">
<title>mark.line&#45;&gt;attr_3</title>
<path fill="none" stroke="#aaaaaa" d="M343.66,-181C353.97,-181 366.23,-181 378.52,-181"/>
<polygon fill="#aaaaaa" stroke="#aaaaaa" points="378.5,-183.45 385.5,-181 378.5,-178.55 378.5,-183.45"/>
</g>
<!-- property.color -->
<g id="node2" class="node">
<title>property.color</title>
<path fill="#b8e6b8" stroke="#2c3e50" stroke-width="1.8" d="M42,-134C42,-134 12,-134 12,-134 6,-134 0,-128 0,-122 0,-122 0,-110 0,-110 0,-104 6,-98 12,-98 12,-98 42,-98 42,-98 48,-98 54,-104 54,-110 54,-110 54,-122 54,-122 54,-128 48,-134 42,-134"/>
<text xml:space="preserve" text-anchor="middle" x="27" y="-112.5" font-family="Arial" font-size="10.00" fill="#1a1a1a">color</text>
</g>
<!-- attr_1 -->
<g id="node7" class="node">
<title>attr_1</title>
<path fill="#c7b8e6" stroke="#7f8c8d" stroke-width="1.2" d="M211.25,-231C211.25,-231 130,-231 130,-231 124,-231 118,-225 118,-219 118,-219 118,-207 118,-207 118,-201 124,-195 130,-195 130,-195 211.25,-195 211.25,-195 217.25,-195 223.25,-201 223.25,-207 223.25,-207 223.25,-219 223.25,-219 223.25,-225 217.25,-231 211.25,-231"/>
<text xml:space="preserve" text-anchor="middle" x="170.62" y="-209.5" font-family="Arial" font-size="10.00" fill="#1a1a1a">(+) poor color choice</text>
</g>
<!-- property.color&#45;&gt;attr_1 -->
<g id="edge2" class="edge">
<title>property.color&#45;&gt;attr_1</title>
<path fill="none" stroke="#aaaaaa" d="M44.45,-134.63C57.61,-148.71 77.11,-167.82 97,-181 102.25,-184.48 107.94,-187.74 113.74,-190.74"/>
<polygon fill="#aaaaaa" stroke="#aaaaaa" points="112.42,-192.82 119.78,-193.73 114.6,-188.43 112.42,-192.82"/>
</g>
<!-- attr_2 -->
<g id="node8" class="node">
<title>attr_2</title>
<path fill="#c7b8e6" stroke="#7f8c8d" stroke-width="1.2" d="M221,-166C221,-166 120.25,-166 120.25,-166 114.25,-166 108.25,-160 108.25,-154 108.25,-154 108.25,-142 108.25,-142 108.25,-136 114.25,-130 120.25,-130 120.25,-130 221,-130 221,-130 227,-130 233,-136 233,-142 233,-142 233,-154 233,-154 233,-160 227,-166 221,-166"/>
<text xml:space="preserve" text-anchor="middle" x="170.62" y="-144.5" font-family="Arial" font-size="10.00" fill="#1a1a1a">(+) unclear color contrast</text>
</g>
<!-- property.color&#45;&gt;attr_2 -->
<g id="edge3" class="edge">
<title>property.color&#45;&gt;attr_2</title>
<path fill="none" stroke="#aaaaaa" d="M54.64,-122.02C67.58,-124.94 83.81,-128.61 99.96,-132.26"/>
<polygon fill="#aaaaaa" stroke="#aaaaaa" points="99.02,-134.56 106.38,-133.71 100.1,-129.78 99.02,-134.56"/>
</g>
<!-- rel_1 -->
<g id="node14" class="node">
<title>rel_1</title>
<path fill="#f5b8b8" stroke="#d46a6a" stroke-width="1.2" d="M217.62,-101C217.62,-101 123.62,-101 123.62,-101 117.62,-101 111.62,-95 111.62,-89 111.62,-89 111.62,-77 111.62,-77 111.62,-71 117.62,-65 123.62,-65 123.62,-65 217.62,-65 217.62,-65 223.62,-65 229.62,-71 229.62,-77 229.62,-77 229.62,-89 229.62,-89 229.62,-95 223.62,-101 217.62,-101"/>
<text xml:space="preserve" text-anchor="middle" x="170.62" y="-79.5" font-family="Arial" font-size="10.00" fill="#8b0000">hinders interpretation of</text>
</g>
<!-- property.color&#45;&gt;rel_1 -->
<g id="edge10" class="edge">
<title>property.color&#45;&gt;rel_1</title>
<path fill="none" stroke="#d46a6a" stroke-width="1.5" d="M54.64,-109.79C67.97,-106.69 84.77,-102.77 101.39,-98.9"/>
<polygon fill="#d46a6a" stroke="#d46a6a" stroke-width="1.5" points="101.76,-101.69 108.91,-97.15 100.49,-96.23 101.76,-101.69"/>
</g>
<!-- rel_3 -->
<g id="node16" class="node">
<title>rel_3</title>
<path fill="#f5b8b8" stroke="#d46a6a" stroke-width="1.2" d="M204.12,-36C204.12,-36 137.12,-36 137.12,-36 131.12,-36 125.12,-30 125.12,-24 125.12,-24 125.12,-12 125.12,-12 125.12,-6 131.12,0 137.12,0 137.12,0 204.12,0 204.12,0 210.12,0 216.12,-6 216.12,-12 216.12,-12 216.12,-24 216.12,-24 216.12,-30 210.12,-36 204.12,-36"/>
<text xml:space="preserve" text-anchor="middle" x="170.62" y="-14.5" font-family="Arial" font-size="10.00" fill="#8b0000">reduces clarity of</text>
</g>
<!-- property.color&#45;&gt;rel_3 -->
<g id="edge14" class="edge">
<title>property.color&#45;&gt;rel_3</title>
<path fill="none" stroke="#d46a6a" stroke-width="1.5" d="M44.77,-97.14C57.95,-83.12 77.32,-64.21 97,-51 102.85,-47.07 109.24,-43.41 115.73,-40.05"/>
<polygon fill="#d46a6a" stroke="#d46a6a" stroke-width="1.5" points="116.63,-42.72 122.57,-36.67 114.15,-37.7 116.63,-42.72"/>
</g>
<!-- unknown.pixel -->
<g id="node3" class="node">
<title>unknown.pixel</title>
<path fill="#b8e6b8" stroke="#2c3e50" stroke-width="1.8" d="M42,-393C42,-393 12,-393 12,-393 6,-393 0,-387 0,-381 0,-381 0,-369 0,-369 0,-363 6,-357 12,-357 12,-357 42,-357 42,-357 48,-357 54,-363 54,-369 54,-369 54,-381 54,-381 54,-387 48,-393 42,-393"/>
<text xml:space="preserve" text-anchor="middle" x="27" y="-371.5" font-family="Arial" font-size="10.00" fill="#1a1a1a">pixel</text>
</g>
<!-- attr_0 -->
<g id="node9" class="node">
<title>attr_0</title>
<path fill="#c7b8e6" stroke="#7f8c8d" stroke-width="1.2" d="M225.12,-491C225.12,-491 116.12,-491 116.12,-491 110.12,-491 104.12,-485 104.12,-479 104.12,-479 104.12,-467 104.12,-467 104.12,-461 110.12,-455 116.12,-455 116.12,-455 225.12,-455 225.12,-455 231.12,-455 237.12,-461 237.12,-467 237.12,-467 237.12,-479 237.12,-479 237.12,-485 231.12,-491 225.12,-491"/>
<text xml:space="preserve" text-anchor="middle" x="170.62" y="-469.5" font-family="Arial" font-size="10.00" fill="#1a1a1a">(+) low resolution pixelated</text>
</g>
<!-- unknown.pixel&#45;&gt;attr_0 -->
<g id="edge4" class="edge">
<title>unknown.pixel&#45;&gt;attr_0</title>
<path fill="none" stroke="#aaaaaa" d="M44.12,-393.64C57.26,-407.98 76.88,-427.55 97,-441 102.24,-444.5 107.92,-447.77 113.72,-450.78"/>
<polygon fill="#aaaaaa" stroke="#aaaaaa" points="112.39,-452.85 119.75,-453.78 114.57,-448.47 112.39,-452.85"/>
</g>
<!-- attr_5 -->
<g id="node10" class="node">
<title>attr_5</title>
<path fill="#c7b8e6" stroke="#7f8c8d" stroke-width="1.2" d="M227,-426C227,-426 114.25,-426 114.25,-426 108.25,-426 102.25,-420 102.25,-414 102.25,-414 102.25,-402 102.25,-402 102.25,-396 108.25,-390 114.25,-390 114.25,-390 227,-390 227,-390 233,-390 239,-396 239,-402 239,-402 239,-414 239,-414 239,-420 233,-426 227,-426"/>
<text xml:space="preserve" text-anchor="middle" x="170.62" y="-404.5" font-family="Arial" font-size="10.00" fill="#1a1a1a">(+) visually degraded marks</text>
</g>
<!-- unknown.pixel&#45;&gt;attr_5 -->
<g id="edge5" class="edge">
<title>unknown.pixel&#45;&gt;attr_5</title>
<path fill="none" stroke="#aaaaaa" d="M54.64,-381.21C65.89,-383.83 79.62,-387.03 93.63,-390.29"/>
<polygon fill="#aaaaaa" stroke="#aaaaaa" points="93.04,-392.67 100.41,-391.87 94.15,-387.9 93.04,-392.67"/>
</g>
<!-- rel_0 -->
<g id="node13" class="node">
<title>rel_0</title>
<path fill="#f5b8b8" stroke="#d46a6a" stroke-width="1.2" d="M186.5,-296C186.5,-296 154.75,-296 154.75,-296 148.75,-296 142.75,-290 142.75,-284 142.75,-284 142.75,-272 142.75,-272 142.75,-266 148.75,-260 154.75,-260 154.75,-260 186.5,-260 186.5,-260 192.5,-260 198.5,-266 198.5,-272 198.5,-272 198.5,-284 198.5,-284 198.5,-290 192.5,-296 186.5,-296"/>
<text xml:space="preserve" text-anchor="middle" x="170.62" y="-274.5" font-family="Arial" font-size="10.00" fill="#8b0000">obscures</text>
</g>
<!-- unknown.pixel&#45;&gt;rel_0 -->
<g id="edge8" class="edge">
<title>unknown.pixel&#45;&gt;rel_0</title>
<path fill="none" stroke="#d46a6a" stroke-width="1.5" d="M45.09,-356.17C58.3,-342.4 77.55,-323.94 97,-311 108.1,-303.61 121.12,-297.12 133.05,-291.88"/>
<polygon fill="#d46a6a" stroke="#d46a6a" stroke-width="1.5" points="133.95,-294.54 140.23,-288.85 131.77,-289.38 133.95,-294.54"/>
</g>
<!-- rel_2 -->
<g id="node15" class="node">
<title>rel_2</title>
<path fill="#f5b8b8" stroke="#d46a6a" stroke-width="1.2" d="M232.25,-361C232.25,-361 109,-361 109,-361 103,-361 97,-355 97,-349 97,-349 97,-337 97,-337 97,-331 103,-325 109,-325 109,-325 232.25,-325 232.25,-325 238.25,-325 244.25,-331 244.25,-337 244.25,-337 244.25,-349 244.25,-349 244.25,-355 238.25,-361 232.25,-361"/>
<text xml:space="preserve" text-anchor="middle" x="170.62" y="-339.5" font-family="Arial" font-size="10.00" fill="#8b0000">increases processing effort for</text>
</g>
<!-- unknown.pixel&#45;&gt;rel_2 -->
<g id="edge12" class="edge">
<title>unknown.pixel&#45;&gt;rel_2</title>
<path fill="none" stroke="#d46a6a" stroke-width="1.5" d="M54.64,-368.98C64.03,-366.86 75.14,-364.35 86.7,-361.74"/>
<polygon fill="#d46a6a" stroke="#d46a6a" stroke-width="1.5" points="87.09,-364.52 94.27,-360.03 85.85,-359.06 87.09,-364.52"/>
</g>
<!-- furniture.legend -->
<g id="node4" class="node">
<title>furniture.legend</title>
<path fill="#b8e6b8" stroke="#2c3e50" stroke-width="1.8" d="M330.88,-361C330.88,-361 300.88,-361 300.88,-361 294.88,-361 288.88,-355 288.88,-349 288.88,-349 288.88,-337 288.88,-337 288.88,-331 294.88,-325 300.88,-325 300.88,-325 330.88,-325 330.88,-325 336.88,-325 342.88,-331 342.88,-337 342.88,-337 342.88,-349 342.88,-349 342.88,-355 336.88,-361 330.88,-361"/>
<text xml:space="preserve" text-anchor="middle" x="315.88" y="-339.5" font-family="Arial" font-size="10.00" fill="#1a1a1a">legend</text>
</g>
<!-- attr_4 -->
<g id="node11" class="node">
<title>attr_4</title>
<path fill="#c7b8e6" stroke="#7f8c8d" stroke-width="1.2" d="M484.12,-361C484.12,-361 401.38,-361 401.38,-361 395.38,-361 389.38,-355 389.38,-349 389.38,-349 389.38,-337 389.38,-337 389.38,-331 395.38,-325 401.38,-325 401.38,-325 484.12,-325 484.12,-325 490.12,-325 496.12,-331 496.12,-337 496.12,-337 496.12,-349 496.12,-349 496.12,-355 490.12,-361 484.12,-361"/>
<text xml:space="preserve" text-anchor="middle" x="442.75" y="-339.5" font-family="Arial" font-size="10.00" fill="#1a1a1a">(+) insufficient clarity</text>
</g>
<!-- furniture.legend&#45;&gt;attr_4 -->
<g id="edge6" class="edge">
<title>furniture.legend&#45;&gt;attr_4</title>
<path fill="none" stroke="#aaaaaa" d="M343.66,-343C354.48,-343 367.44,-343 380.35,-343"/>
<polygon fill="#aaaaaa" stroke="#aaaaaa" points="380.28,-345.45 387.28,-343 380.28,-340.55 380.28,-345.45"/>
</g>
<!-- text.axis_label -->
<g id="node5" class="node">
<title>text.axis_label</title>
<path fill="#b8e6b8" stroke="#2c3e50" stroke-width="1.8" d="M332.5,-36C332.5,-36 299.25,-36 299.25,-36 293.25,-36 287.25,-30 287.25,-24 287.25,-24 287.25,-12 287.25,-12 287.25,-6 293.25,0 299.25,0 299.25,0 332.5,0 332.5,0 338.5,0 344.5,-6 344.5,-12 344.5,-12 344.5,-24 344.5,-24 344.5,-30 338.5,-36 332.5,-36"/>
<text xml:space="preserve" text-anchor="middle" x="315.88" y="-14.5" font-family="Arial" font-size="10.00" fill="#1a1a1a">axis label</text>
</g>
<!-- attr_6 -->
<g id="node12" class="node">
<title>attr_6</title>
<path fill="#c7b8e6" stroke="#7f8c8d" stroke-width="1.2" d="M480.38,-36C480.38,-36 405.12,-36 405.12,-36 399.12,-36 393.12,-30 393.12,-24 393.12,-24 393.12,-12 393.12,-12 393.12,-6 399.12,0 405.12,0 405.12,0 480.38,0 480.38,0 486.38,0 492.38,-6 492.38,-12 492.38,-12 492.38,-24 492.38,-24 492.38,-30 486.38,-36 480.38,-36"/>
<text xml:space="preserve" text-anchor="middle" x="442.75" y="-14.5" font-family="Arial" font-size="10.00" fill="#1a1a1a">(+) hard to interpret</text>
</g>
<!-- text.axis_label&#45;&gt;attr_6 -->
<g id="edge7" class="edge">
<title>text.axis_label&#45;&gt;attr_6</title>
<path fill="none" stroke="#aaaaaa" d="M345.21,-18C356.89,-18 370.87,-18 384.51,-18"/>
<polygon fill="#aaaaaa" stroke="#aaaaaa" points="384.43,-20.45 391.43,-18 384.43,-15.55 384.43,-20.45"/>
</g>
<!-- rel_0&#45;&gt;mark.line -->
<g id="edge9" class="edge">
<title>rel_0&#45;&gt;mark.line</title>
<path fill="none" stroke="#d46a6a" stroke-width="1.5" d="M198.93,-268.44C213.03,-262.9 230.18,-255.2 244.25,-246 261.03,-235.02 277.65,-219.99 290.54,-207.15"/>
<polygon fill="#d46a6a" stroke="#d46a6a" stroke-width="1.5" points="292.48,-209.18 296.09,-201.51 288.48,-205.25 292.48,-209.18"/>
</g>
<!-- rel_1&#45;&gt;mark.line -->
<g id="edge11" class="edge">
<title>rel_1&#45;&gt;mark.line</title>
<path fill="none" stroke="#d46a6a" stroke-width="1.5" d="M218.13,-101.47C227.08,-105.75 236.17,-110.64 244.25,-116 260.97,-127.08 277.58,-142.11 290.49,-154.93"/>
<polygon fill="#d46a6a" stroke="#d46a6a" stroke-width="1.5" points="288.43,-156.83 296.04,-160.56 292.42,-152.89 288.43,-156.83"/>
</g>
<!-- rel_2&#45;&gt;furniture.legend -->
<g id="edge13" class="edge">
<title>rel_2&#45;&gt;furniture.legend</title>
<path fill="none" stroke="#d46a6a" stroke-width="1.5" d="M244.51,-343C256.1,-343 267.65,-343 277.94,-343"/>
<polygon fill="#d46a6a" stroke="#d46a6a" stroke-width="1.5" points="277.89,-345.8 285.89,-343 277.89,-340.2 277.89,-345.8"/>
</g>
<!-- rel_3&#45;&gt;text.axis_label -->
<g id="edge15" class="edge">
<title>rel_3&#45;&gt;text.axis_label</title>
<path fill="none" stroke="#d46a6a" stroke-width="1.5" d="M216.56,-18C235.85,-18 258.16,-18 276.65,-18"/>
<polygon fill="#d46a6a" stroke="#d46a6a" stroke-width="1.5" points="276.49,-20.8 284.49,-18 276.49,-15.2 276.49,-20.8"/>
</g>
</g>
</svg>
