<?xml version="1.0" encoding="UTF-8" standalone="no"?>
<!DOCTYPE svg PUBLIC "-//W3C//DTD SVG 1.1//EN"
 "http://www.w3.org/Graphics/SVG/1.1/DTD/svg11.dtd">
<!-- Generated by graphviz version 14.1.5 (20260411.2331)
 -->
<!-- Title: VisC.11.12(2).png Pages: 1 -->
<svg width="835pt" height="505pt"
 viewBox="0.00 0.00 835.00 505.00" xmlns="http://www.w3.org/2000/svg" xmlns:xlink="http://www.w3.org/1999/xlink">
<g id="graph0" class="graph" transform="scale(1 1) rotate(0) translate(4 501.25)">
<title>VisC.11.12(2).png</title>
<polygon fill="white" stroke="none" points="-4,4 -4,-501.25 830.75,-501.25 830.75,4 -4,4"/>
<text xml:space="preserve" text-anchor="start" x="357.5" y="-476.95" font-family="Arial" font-weight="bold" font-size="14.00">VisC.11.12(2).png</text>
<text xml:space="preserve" text-anchor="start" x="358.25" y="-457" font-family="Arial" font-size="11.00">Node&#45;link &#160;| &#160;VC = 0.79</text>
<path fill="#b8e6b8" stroke="none" d="M204,-432C204,-432 212,-432 212,-432 215,-432 218,-435 218,-438 218,-438 218,-444 218,-444 218,-447 215,-450 212,-450 212,-450 204,-450 204,-450 201,-450 198,-447 198,-444 198,-444 198,-438 198,-438 198,-435 201,-432 204,-432"/>
<path fill="none" stroke="black" d="M204,-432C204,-432 212,-432 212,-432 215,-432 218,-435 218,-438 218,-438 218,-444 218,-444 218,-447 215,-450 212,-450 212,-450 204,-450 204,-450 201,-450 198,-447 198,-444 198,-444 198,-438 198,-438 198,-435 201,-432 204,-432"/>
<text xml:space="preserve" text-anchor="start" x="206.5" y="-437.25" font-family="Arial" font-size="10.00"> </text>
<text xml:space="preserve" text-anchor="start" x="222" y="-437.25" font-family="Arial" font-size="10.00">Object</text>
<path fill="#c7b8e6" stroke="none" d="M260.5,-432C260.5,-432 268.5,-432 268.5,-432 271.5,-432 274.5,-435 274.5,-438 274.5,-438 274.5,-444 274.5,-444 274.5,-447 271.5,-450 268.5,-450 268.5,-450 260.5,-450 260.5,-450 257.5,-450 254.5,-447 254.5,-444 254.5,-444 254.5,-438 254.5,-438 254.5,-435 257.5,-432 260.5,-432"/>
<path fill="none" stroke="black" d="M260.5,-432C260.5,-432 268.5,-432 268.5,-432 271.5,-432 274.5,-435 274.5,-438 274.5,-438 274.5,-444 274.5,-444 274.5,-447 271.5,-450 268.5,-450 268.5,-450 260.5,-450 260.5,-450 257.5,-450 254.5,-447 254.5,-444 254.5,-444 254.5,-438 254.5,-438 254.5,-435 257.5,-432 260.5,-432"/>
<text xml:space="preserve" text-anchor="start" x="263" y="-437.25" font-family="Arial" font-size="10.00"> </text>
<text xml:space="preserve" text-anchor="start" x="278.5" y="-437.25" font-family="Arial" font-size="10.00">Attribute</text>
<path fill="#f5b8b8" stroke="none" d="M325.25,-432C325.25,-432 333.25,-432 333.25,-432 336.25,-432 339.25,-435 339.25,-438 339.25,-438 339.25,-444 339.25,-444 339.25,-447 336.25,-450 333.25,-450 333.25,-450 325.25,-450 325.25,-450 322.25,-450 319.25,-447 319.25,-444 319.25,-444 319.25,-438 319.25,-438 319.25,-435 322.25,-432 325.25,-432"/>
<path fill="none" stroke="black" d="M325.25,-432C325.25,-432 333.25,-432 333.25,-432 336.25,-432 339.25,-435 339.25,-438 339.25,-438 339.25,-444 339.25,-444 339.25,-447 336.25,-450 333.25,-450 333.25,-450 325.25,-450 325.25,-450 322.25,-450 319.25,-447 319.25,-444 319.25,-444 319.25,-438 319.25,-438 319.25,-435 322.25,-432 325.25,-432"/>
<text xml:space="preserve" text-anchor="start" x="327.75" y="-437.25" font-family="Arial" font-size="10.00"> </text>
<text xml:space="preserve" text-anchor="start" x="343.25" y="-437.25" font-family="Arial" font-size="10.00">Relationship</text>
<text xml:space="preserve" text-anchor="start" x="403.25" y="-438.5" font-family="Arial" font-weight="bold" font-size="10.00">(+)</text>
<text xml:space="preserve" text-anchor="start" x="415.25" y="-438.5" font-family="Arial" font-size="10.00"> increases complexity</text>
<text xml:space="preserve" text-anchor="start" x="516.5" y="-438.5" font-family="Arial" font-weight="bold" font-size="10.00">(−)</text>
<text xml:space="preserve" text-anchor="start" x="528.5" y="-438.5" font-family="Arial" font-size="10.00"> decreases complexity</text>
<!-- unknown.lines -->
<g id="node1" class="node">
<title>unknown.lines</title>
<path fill="#b8e6b8" stroke="#2c3e50" stroke-width="1.8" d="M45.5,-133C45.5,-133 15.5,-133 15.5,-133 9.5,-133 3.5,-127 3.5,-121 3.5,-121 3.5,-109 3.5,-109 3.5,-103 9.5,-97 15.5,-97 15.5,-97 45.5,-97 45.5,-97 51.5,-97 57.5,-103 57.5,-109 57.5,-109 57.5,-121 57.5,-121 57.5,-127 51.5,-133 45.5,-133"/>
<text xml:space="preserve" text-anchor="middle" x="30.5" y="-111.5" font-family="Arial" font-size="10.00" fill="#1a1a1a">lines</text>
</g>
<!-- attr_0 -->
<g id="node7" class="node">
<title>attr_0</title>
<path fill="#c7b8e6" stroke="#7f8c8d" stroke-width="1.2" d="M235.5,-231C235.5,-231 116,-231 116,-231 110,-231 104,-225 104,-219 104,-219 104,-207 104,-207 104,-201 110,-195 116,-195 116,-195 235.5,-195 235.5,-195 241.5,-195 247.5,-201 247.5,-207 247.5,-207 247.5,-219 247.5,-219 247.5,-225 241.5,-231 235.5,-231"/>
<text xml:space="preserve" text-anchor="middle" x="175.75" y="-209.5" font-family="Arial" font-size="10.00" fill="#1a1a1a">(+) overlapping crossing lines</text>
</g>
<!-- unknown.lines&#45;&gt;attr_0 -->
<g id="edge1" class="edge">
<title>unknown.lines&#45;&gt;attr_0</title>
<path fill="none" stroke="#aaaaaa" d="M49.32,-133.73C63.29,-147.7 83.69,-166.58 104,-180 109.77,-183.81 116.05,-187.41 122.41,-190.74"/>
<polygon fill="#aaaaaa" stroke="#aaaaaa" points="121.18,-192.87 128.54,-193.83 123.39,-188.49 121.18,-192.87"/>
</g>
<!-- attr_1 -->
<g id="node8" class="node">
<title>attr_1</title>
<path fill="#c7b8e6" stroke="#7f8c8d" stroke-width="1.2" d="M228.38,-166C228.38,-166 123.12,-166 123.12,-166 117.12,-166 111.12,-160 111.12,-154 111.12,-154 111.12,-142 111.12,-142 111.12,-136 117.12,-130 123.12,-130 123.12,-130 228.38,-130 228.38,-130 234.38,-130 240.38,-136 240.38,-142 240.38,-142 240.38,-154 240.38,-154 240.38,-160 234.38,-166 228.38,-166"/>
<text xml:space="preserve" text-anchor="middle" x="175.75" y="-144.5" font-family="Arial" font-size="10.00" fill="#1a1a1a">(+) multiple layered routes</text>
</g>
<!-- unknown.lines&#45;&gt;attr_1 -->
<g id="edge2" class="edge">
<title>unknown.lines&#45;&gt;attr_1</title>
<path fill="none" stroke="#aaaaaa" d="M58.11,-121.13C70.79,-124.05 86.63,-127.7 102.51,-131.36"/>
<polygon fill="#aaaaaa" stroke="#aaaaaa" points="101.96,-133.75 109.33,-132.93 103.06,-128.97 101.96,-133.75"/>
</g>
<!-- rel_0 -->
<g id="node14" class="node">
<title>rel_0</title>
<path fill="#f5b8b8" stroke="#d46a6a" stroke-width="1.2" d="M191.62,-101C191.62,-101 159.88,-101 159.88,-101 153.88,-101 147.88,-95 147.88,-89 147.88,-89 147.88,-77 147.88,-77 147.88,-71 153.88,-65 159.88,-65 159.88,-65 191.62,-65 191.62,-65 197.62,-65 203.62,-71 203.62,-77 203.62,-77 203.62,-89 203.62,-89 203.62,-95 197.62,-101 191.62,-101"/>
<text xml:space="preserve" text-anchor="middle" x="175.75" y="-79.5" font-family="Arial" font-size="10.00" fill="#8b0000">obscures</text>
</g>
<!-- unknown.lines&#45;&gt;rel_0 -->
<g id="edge8" class="edge">
<title>unknown.lines&#45;&gt;rel_0</title>
<path fill="none" stroke="#d46a6a" stroke-width="1.5" d="M58.11,-109.06C80.44,-104.07 112.58,-96.89 137.48,-91.33"/>
<polygon fill="#d46a6a" stroke="#d46a6a" stroke-width="1.5" points="137.9,-94.1 145.09,-89.62 136.67,-88.64 137.9,-94.1"/>
</g>
<!-- rel_2 -->
<g id="node16" class="node">
<title>rel_2</title>
<path fill="#f5b8b8" stroke="#d46a6a" stroke-width="1.2" d="M218.62,-36C218.62,-36 132.88,-36 132.88,-36 126.88,-36 120.88,-30 120.88,-24 120.88,-24 120.88,-12 120.88,-12 120.88,-6 126.88,0 132.88,0 132.88,0 218.62,0 218.62,0 224.62,0 230.62,-6 230.62,-12 230.62,-12 230.62,-24 230.62,-24 230.62,-30 224.62,-36 218.62,-36"/>
<text xml:space="preserve" text-anchor="middle" x="175.75" y="-14.5" font-family="Arial" font-size="10.00" fill="#8b0000">hinders distinguishing</text>
</g>
<!-- unknown.lines&#45;&gt;rel_2 -->
<g id="edge12" class="edge">
<title>unknown.lines&#45;&gt;rel_2</title>
<path fill="none" stroke="#d46a6a" stroke-width="1.5" d="M49.28,-96.2C63.22,-82.2 83.61,-63.3 104,-50 108.85,-46.84 114.06,-43.84 119.37,-41.03"/>
<polygon fill="#d46a6a" stroke="#d46a6a" stroke-width="1.5" points="120.46,-43.62 126.35,-37.53 117.94,-38.62 120.46,-43.62"/>
</g>
<!-- unknown.nodes -->
<g id="node2" class="node">
<title>unknown.nodes</title>
<path fill="#b8e6b8" stroke="#2c3e50" stroke-width="1.8" d="M332.5,-69C332.5,-69 302.5,-69 302.5,-69 296.5,-69 290.5,-63 290.5,-57 290.5,-57 290.5,-45 290.5,-45 290.5,-39 296.5,-33 302.5,-33 302.5,-33 332.5,-33 332.5,-33 338.5,-33 344.5,-39 344.5,-45 344.5,-45 344.5,-57 344.5,-57 344.5,-63 338.5,-69 332.5,-69"/>
<text xml:space="preserve" text-anchor="middle" x="317.5" y="-47.5" font-family="Arial" font-size="10.00" fill="#1a1a1a">nodes</text>
</g>
<!-- unknown.network -->
<g id="node3" class="node">
<title>unknown.network</title>
<path fill="#b8e6b8" stroke="#2c3e50" stroke-width="1.8" d="M332.5,-296C332.5,-296 302.5,-296 302.5,-296 296.5,-296 290.5,-290 290.5,-284 290.5,-284 290.5,-272 290.5,-272 290.5,-266 296.5,-260 302.5,-260 302.5,-260 332.5,-260 332.5,-260 338.5,-260 344.5,-266 344.5,-272 344.5,-272 344.5,-284 344.5,-284 344.5,-290 338.5,-296 332.5,-296"/>
<text xml:space="preserve" text-anchor="middle" x="317.5" y="-274.5" font-family="Arial" font-size="10.00" fill="#1a1a1a">network</text>
</g>
<!-- attr_2 -->
<g id="node9" class="node">
<title>attr_2</title>
<path fill="#c7b8e6" stroke="#7f8c8d" stroke-width="1.2" d="M517.12,-394C517.12,-394 402.12,-394 402.12,-394 396.12,-394 390.12,-388 390.12,-382 390.12,-382 390.12,-370 390.12,-370 390.12,-364 396.12,-358 402.12,-358 402.12,-358 517.12,-358 517.12,-358 523.12,-358 529.12,-364 529.12,-370 529.12,-370 529.12,-382 529.12,-382 529.12,-388 523.12,-394 517.12,-394"/>
<text xml:space="preserve" text-anchor="middle" x="459.62" y="-372.5" font-family="Arial" font-size="10.00" fill="#1a1a1a">(+) visually intricate network</text>
</g>
<!-- unknown.network&#45;&gt;attr_2 -->
<g id="edge3" class="edge">
<title>unknown.network&#45;&gt;attr_2</title>
<path fill="none" stroke="#aaaaaa" d="M334.92,-296.89C348.08,-311.18 367.57,-330.57 387.5,-344 392.71,-347.51 398.37,-350.8 404.14,-353.83"/>
<polygon fill="#aaaaaa" stroke="#aaaaaa" points="402.79,-355.89 410.14,-356.86 404.99,-351.52 402.79,-355.89"/>
</g>
<!-- attr_5 -->
<g id="node10" class="node">
<title>attr_5</title>
<path fill="#c7b8e6" stroke="#7f8c8d" stroke-width="1.2" d="M519.75,-329C519.75,-329 399.5,-329 399.5,-329 393.5,-329 387.5,-323 387.5,-317 387.5,-317 387.5,-305 387.5,-305 387.5,-299 393.5,-293 399.5,-293 399.5,-293 519.75,-293 519.75,-293 525.75,-293 531.75,-299 531.75,-305 531.75,-305 531.75,-317 531.75,-317 531.75,-323 525.75,-329 519.75,-329"/>
<text xml:space="preserve" text-anchor="middle" x="459.62" y="-307.5" font-family="Arial" font-size="10.00" fill="#1a1a1a">(+) multiple relationship types</text>
</g>
<!-- unknown.network&#45;&gt;attr_5 -->
<g id="edge4" class="edge">
<title>unknown.network&#45;&gt;attr_5</title>
<path fill="none" stroke="#aaaaaa" d="M345.19,-284.28C355.09,-286.62 366.89,-289.4 379.09,-292.27"/>
<polygon fill="#aaaaaa" stroke="#aaaaaa" points="378.3,-294.6 385.67,-293.82 379.42,-289.83 378.3,-294.6"/>
</g>
<!-- rel_4 -->
<g id="node18" class="node">
<title>rel_4</title>
<path fill="#f5b8b8" stroke="#d46a6a" stroke-width="1.2" d="M481.88,-264C481.88,-264 437.38,-264 437.38,-264 431.38,-264 425.38,-258 425.38,-252 425.38,-252 425.38,-240 425.38,-240 425.38,-234 431.38,-228 437.38,-228 437.38,-228 481.88,-228 481.88,-228 487.88,-228 493.88,-234 493.88,-240 493.88,-240 493.88,-252 493.88,-252 493.88,-258 487.88,-264 481.88,-264"/>
<text xml:space="preserve" text-anchor="middle" x="459.62" y="-242.5" font-family="Arial" font-size="10.00" fill="#8b0000">overwhelms</text>
</g>
<!-- unknown.network&#45;&gt;rel_4 -->
<g id="edge16" class="edge">
<title>unknown.network&#45;&gt;rel_4</title>
<path fill="none" stroke="#d46a6a" stroke-width="1.5" d="M345.19,-271.91C364.9,-267.4 392.17,-261.18 415.03,-255.96"/>
<polygon fill="#d46a6a" stroke="#d46a6a" stroke-width="1.5" points="415.46,-258.73 422.63,-254.22 414.21,-253.27 415.46,-258.73"/>
</g>
<!-- unknown.highlight -->
<g id="node4" class="node">
<title>unknown.highlight</title>
<path fill="#b8e6b8" stroke="#2c3e50" stroke-width="1.8" d="M45.5,-426C45.5,-426 15.5,-426 15.5,-426 9.5,-426 3.5,-420 3.5,-414 3.5,-414 3.5,-402 3.5,-402 3.5,-396 9.5,-390 15.5,-390 15.5,-390 45.5,-390 45.5,-390 51.5,-390 57.5,-396 57.5,-402 57.5,-402 57.5,-414 57.5,-414 57.5,-420 51.5,-426 45.5,-426"/>
<text xml:space="preserve" text-anchor="middle" x="30.5" y="-404.5" font-family="Arial" font-size="10.00" fill="#1a1a1a">highlight</text>
</g>
<!-- attr_6 -->
<g id="node11" class="node">
<title>attr_6</title>
<path fill="#c7b8e6" stroke="#7f8c8d" stroke-width="1.2" d="M231,-426C231,-426 120.5,-426 120.5,-426 114.5,-426 108.5,-420 108.5,-414 108.5,-414 108.5,-402 108.5,-402 108.5,-396 114.5,-390 120.5,-390 120.5,-390 231,-390 231,-390 237,-390 243,-396 243,-402 243,-402 243,-414 243,-414 243,-420 237,-426 231,-426"/>
<text xml:space="preserve" text-anchor="middle" x="175.75" y="-404.5" font-family="Arial" font-size="10.00" fill="#1a1a1a">(−) orange highlight present</text>
</g>
<!-- unknown.highlight&#45;&gt;attr_6 -->
<g id="edge5" class="edge">
<title>unknown.highlight&#45;&gt;attr_6</title>
<path fill="none" stroke="#aaaaaa" d="M58.11,-408C70.06,-408 84.81,-408 99.77,-408"/>
<polygon fill="#aaaaaa" stroke="#aaaaaa" points="99.56,-410.45 106.56,-408 99.56,-405.55 99.56,-410.45"/>
</g>
<!-- unknown.text_labels -->
<g id="node5" class="node">
<title>unknown.text_labels</title>
<path fill="#b8e6b8" stroke="#2c3e50" stroke-width="1.8" d="M49,-328C49,-328 12,-328 12,-328 6,-328 0,-322 0,-316 0,-316 0,-304 0,-304 0,-298 6,-292 12,-292 12,-292 49,-292 49,-292 55,-292 61,-298 61,-304 61,-304 61,-316 61,-316 61,-322 55,-328 49,-328"/>
<text xml:space="preserve" text-anchor="middle" x="30.5" y="-306.5" font-family="Arial" font-size="10.00" fill="#1a1a1a">text labels</text>
</g>
<!-- attr_3 -->
<g id="node12" class="node">
<title>attr_3</title>
<path fill="#c7b8e6" stroke="#7f8c8d" stroke-width="1.2" d="M221.25,-361C221.25,-361 130.25,-361 130.25,-361 124.25,-361 118.25,-355 118.25,-349 118.25,-349 118.25,-337 118.25,-337 118.25,-331 124.25,-325 130.25,-325 130.25,-325 221.25,-325 221.25,-325 227.25,-325 233.25,-331 233.25,-337 233.25,-337 233.25,-349 233.25,-349 233.25,-355 227.25,-361 221.25,-361"/>
<text xml:space="preserve" text-anchor="middle" x="175.75" y="-339.5" font-family="Arial" font-size="10.00" fill="#1a1a1a">(+) sparse text context</text>
</g>
<!-- unknown.text_labels&#45;&gt;attr_3 -->
<g id="edge6" class="edge">
<title>unknown.text_labels&#45;&gt;attr_3</title>
<path fill="none" stroke="#aaaaaa" d="M61.88,-317C75.85,-320.22 93.01,-324.17 109.68,-328.01"/>
<polygon fill="#aaaaaa" stroke="#aaaaaa" points="108.97,-330.36 116.34,-329.54 110.07,-325.58 108.97,-330.36"/>
</g>
<!-- rel_3 -->
<g id="node17" class="node">
<title>rel_3</title>
<path fill="#f5b8b8" stroke="#d46a6a" stroke-width="1.2" d="M218.25,-296C218.25,-296 133.25,-296 133.25,-296 127.25,-296 121.25,-290 121.25,-284 121.25,-284 121.25,-272 121.25,-272 121.25,-266 127.25,-260 133.25,-260 133.25,-260 218.25,-260 218.25,-260 224.25,-260 230.25,-266 230.25,-272 230.25,-272 230.25,-284 230.25,-284 230.25,-290 224.25,-296 218.25,-296"/>
<text xml:space="preserve" text-anchor="middle" x="175.75" y="-274.5" font-family="Arial" font-size="10.00" fill="#8b0000">insufficiently explains</text>
</g>
<!-- unknown.text_labels&#45;&gt;rel_3 -->
<g id="edge14" class="edge">
<title>unknown.text_labels&#45;&gt;rel_3</title>
<path fill="none" stroke="#d46a6a" stroke-width="1.5" d="M61.88,-303.21C76.16,-300.02 93.76,-296.09 110.77,-292.29"/>
<polygon fill="#d46a6a" stroke="#d46a6a" stroke-width="1.5" points="111.28,-295.05 118.48,-290.57 110.06,-289.58 111.28,-295.05"/>
</g>
<!-- unknown.intersections -->
<g id="node6" class="node">
<title>unknown.intersections</title>
<path fill="#b8e6b8" stroke="#2c3e50" stroke-width="1.8" d="M634.25,-264C634.25,-264 586.75,-264 586.75,-264 580.75,-264 574.75,-258 574.75,-252 574.75,-252 574.75,-240 574.75,-240 574.75,-234 580.75,-228 586.75,-228 586.75,-228 634.25,-228 634.25,-228 640.25,-228 646.25,-234 646.25,-240 646.25,-240 646.25,-252 646.25,-252 646.25,-258 640.25,-264 634.25,-264"/>
<text xml:space="preserve" text-anchor="middle" x="610.5" y="-242.5" font-family="Arial" font-size="10.00" fill="#1a1a1a">intersections</text>
</g>
<!-- attr_4 -->
<g id="node13" class="node">
<title>attr_4</title>
<path fill="#c7b8e6" stroke="#7f8c8d" stroke-width="1.2" d="M814.75,-267C814.75,-267 701.25,-267 701.25,-267 695.25,-267 689.25,-261 689.25,-255 689.25,-255 689.25,-243 689.25,-243 689.25,-237 695.25,-231 701.25,-231 701.25,-231 814.75,-231 814.75,-231 820.75,-231 826.75,-237 826.75,-243 826.75,-243 826.75,-255 826.75,-255 826.75,-261 820.75,-267 814.75,-267"/>
<text xml:space="preserve" text-anchor="middle" x="758" y="-245.5" font-family="Arial" font-size="10.00" fill="#1a1a1a">(+) dense intersecting paths</text>
</g>
<!-- unknown.intersections&#45;&gt;attr_4 -->
<g id="edge7" class="edge">
<title>unknown.intersections&#45;&gt;attr_4</title>
<path fill="none" stroke="#aaaaaa" d="M647.09,-246.73C657.25,-246.94 668.72,-247.18 680.33,-247.42"/>
<polygon fill="#aaaaaa" stroke="#aaaaaa" points="680.23,-249.87 687.28,-247.56 680.33,-244.97 680.23,-249.87"/>
</g>
<!-- rel_1 -->
<g id="node15" class="node">
<title>rel_1</title>
<path fill="#f5b8b8" stroke="#d46a6a" stroke-width="1.2" d="M812.5,-202C812.5,-202 703.5,-202 703.5,-202 697.5,-202 691.5,-196 691.5,-190 691.5,-190 691.5,-178 691.5,-178 691.5,-172 697.5,-166 703.5,-166 703.5,-166 812.5,-166 812.5,-166 818.5,-166 824.5,-172 824.5,-178 824.5,-178 824.5,-190 824.5,-190 824.5,-196 818.5,-202 812.5,-202"/>
<text xml:space="preserve" text-anchor="middle" x="758" y="-180.5" font-family="Arial" font-size="10.00" fill="#8b0000">increases processing effort</text>
</g>
<!-- unknown.intersections&#45;&gt;rel_1 -->
<g id="edge10" class="edge">
<title>unknown.intersections&#45;&gt;rel_1</title>
<path fill="none" stroke="#d46a6a" stroke-width="1.5" d="M647.09,-230.83C664.22,-223.53 685.11,-214.63 704.05,-206.56"/>
<polygon fill="#d46a6a" stroke="#d46a6a" stroke-width="1.5" points="705.11,-209.15 711.38,-203.44 702.92,-204 705.11,-209.15"/>
</g>
<!-- rel_0&#45;&gt;unknown.nodes -->
<g id="edge9" class="edge">
<title>rel_0&#45;&gt;unknown.nodes</title>
<path fill="none" stroke="#d46a6a" stroke-width="1.5" d="M204.03,-76.75C225.71,-71.79 256.25,-64.8 280.03,-59.35"/>
<polygon fill="#d46a6a" stroke="#d46a6a" stroke-width="1.5" points="280.38,-62.14 287.55,-57.63 279.13,-56.68 280.38,-62.14"/>
</g>
<!-- rel_1&#45;&gt;unknown.network -->
<g id="edge11" class="edge">
<title>rel_1&#45;&gt;unknown.network</title>
<path fill="none" stroke="#d46a6a" stroke-width="1.5" d="M691.07,-176.41C614.58,-170.41 486.34,-169.22 387.5,-213 368.33,-221.49 351.15,-237.63 338.73,-251.7"/>
<polygon fill="#d46a6a" stroke="#d46a6a" stroke-width="1.5" points="336.84,-249.6 333.8,-257.51 341.11,-253.22 336.84,-249.6"/>
</g>
<!-- rel_2&#45;&gt;unknown.nodes -->
<g id="edge13" class="edge">
<title>rel_2&#45;&gt;unknown.nodes</title>
<path fill="none" stroke="#d46a6a" stroke-width="1.5" d="M231.18,-30.85C247.5,-34.71 264.99,-38.84 279.87,-42.35"/>
<polygon fill="#d46a6a" stroke="#d46a6a" stroke-width="1.5" points="279.06,-45.04 287.49,-44.15 280.35,-39.59 279.06,-45.04"/>
</g>
<!-- rel_3&#45;&gt;unknown.network -->
<g id="edge15" class="edge">
<title>rel_3&#45;&gt;unknown.network</title>
<path fill="none" stroke="#d46a6a" stroke-width="1.5" d="M230.78,-278C247.26,-278 264.97,-278 280,-278"/>
<polygon fill="#d46a6a" stroke="#d46a6a" stroke-width="1.5" points="279.65,-280.8 287.65,-278 279.65,-275.2 279.65,-280.8"/>
</g>
<!-- rel_4&#45;&gt;unknown.intersections -->
<g id="edge17" class="edge">
<title>rel_4&#45;&gt;unknown.intersections</title>
<path fill="none" stroke="#d46a6a" stroke-width="1.5" d="M494.41,-246C515.01,-246 541.62,-246 564.06,-246"/>
<polygon fill="#d46a6a" stroke="#d46a6a" stroke-width="1.5" points="563.77,-248.8 571.77,-246 563.77,-243.2 563.77,-248.8"/>
</g>
</g>
</svg>
