<?xml version="1.0" encoding="UTF-8" standalone="no"?>
<!DOCTYPE svg PUBLIC "-//W3C//DTD SVG 1.1//EN"
 "http://www.w3.org/Graphics/SVG/1.1/DTD/svg11.dtd">
<!-- Generated by graphviz version 14.1.5 (20260411.2331)
 -->
<!-- Title: VisC.171.4.png Pages: 1 -->
<svg width="679pt" height="570pt"
 viewBox="0.00 0.00 679.00 570.00" xmlns="http://www.w3.org/2000/svg" xmlns:xlink="http://www.w3.org/1999/xlink">
<g id="graph0" class="graph" transform="scale(1 1) rotate(0) translate(4 566.25)">
<title>VisC.171.4.png</title>
<polygon fill="white" stroke="none" points="-4,4 -4,-566.25 675,-566.25 675,4 -4,4"/>
<text xml:space="preserve" text-anchor="start" x="287.5" y="-541.95" font-family="Arial" font-weight="bold" font-size="14.00">VisC.171.4.png</text>
<text xml:space="preserve" text-anchor="start" x="293.12" y="-522" font-family="Arial" font-size="11.00">Line &#160;| &#160;VC = 0.46</text>
<path fill="#b8e6b8" stroke="none" d="M126.12,-497C126.12,-497 134.12,-497 134.12,-497 137.12,-497 140.12,-500 140.12,-503 140.12,-503 140.12,-509 140.12,-509 140.12,-512 137.12,-515 134.12,-515 134.12,-515 126.12,-515 126.12,-515 123.12,-515 120.12,-512 120.12,-509 120.12,-509 120.12,-503 120.12,-503 120.12,-500 123.12,-497 126.12,-497"/>
<path fill="none" stroke="black" d="M126.12,-497C126.12,-497 134.12,-497 134.12,-497 137.12,-497 140.12,-500 140.12,-503 140.12,-503 140.12,-509 140.12,-509 140.12,-512 137.12,-515 134.12,-515 134.12,-515 126.12,-515 126.12,-515 123.12,-515 120.12,-512 120.12,-509 120.12,-509 120.12,-503 120.12,-503 120.12,-500 123.12,-497 126.12,-497"/>
<text xml:space="preserve" text-anchor="start" x="128.62" y="-502.25" font-family="Arial" font-size="10.00"> </text>
<text xml:space="preserve" text-anchor="start" x="144.12" y="-502.25" font-family="Arial" font-size="10.00">Object</text>
<path fill="#c7b8e6" stroke="none" d="M182.62,-497C182.62,-497 190.62,-497 190.62,-497 193.62,-497 196.62,-500 196.62,-503 196.62,-503 196.62,-509 196.62,-509 196.62,-512 193.62,-515 190.62,-515 190.62,-515 182.62,-515 182.62,-515 179.62,-515 176.62,-512 176.62,-509 176.62,-509 176.62,-503 176.62,-503 176.62,-500 179.62,-497 182.62,-497"/>
<path fill="none" stroke="black" d="M182.62,-497C182.62,-497 190.62,-497 190.62,-497 193.62,-497 196.62,-500 196.62,-503 196.62,-503 196.62,-509 196.62,-509 196.62,-512 193.62,-515 190.62,-515 190.62,-515 182.62,-515 182.62,-515 179.62,-515 176.62,-512 176.62,-509 176.62,-509 176.62,-503 176.62,-503 176.62,-500 179.62,-497 182.62,-497"/>
<text xml:space="preserve" text-anchor="start" x="185.12" y="-502.25" font-family="Arial" font-size="10.00"> </text>
<text xml:space="preserve" text-anchor="start" x="200.62" y="-502.25" font-family="Arial" font-size="10.00">Attribute</text>
<path fill="#f5b8b8" stroke="none" d="M247.38,-497C247.38,-497 255.38,-497 255.38,-497 258.38,-497 261.38,-500 261.38,-503 261.38,-503 261.38,-509 261.38,-509 261.38,-512 258.38,-515 255.38,-515 255.38,-515 247.38,-515 247.38,-515 244.38,-515 241.38,-512 241.38,-509 241.38,-509 241.38,-503 241.38,-503 241.38,-500 244.38,-497 247.38,-497"/>
<path fill="none" stroke="black" d="M247.38,-497C247.38,-497 255.38,-497 255.38,-497 258.38,-497 261.38,-500 261.38,-503 261.38,-503 261.38,-509 261.38,-509 261.38,-512 258.38,-515 255.38,-515 255.38,-515 247.38,-515 247.38,-515 244.38,-515 241.38,-512 241.38,-509 241.38,-509 241.38,-503 241.38,-503 241.38,-500 244.38,-497 247.38,-497"/>
<text xml:space="preserve" text-anchor="start" x="249.88" y="-502.25" font-family="Arial" font-size="10.00"> </text>
<text xml:space="preserve" text-anchor="start" x="265.38" y="-502.25" font-family="Arial" font-size="10.00">Relationship</text>
<text xml:space="preserve" text-anchor="start" x="325.38" y="-503.5" font-family="Arial" font-weight="bold" font-size="10.00">(+)</text>
<text xml:space="preserve" text-anchor="start" x="337.38" y="-503.5" font-family="Arial" font-size="10.00"> increases complexity</text>
<text xml:space="preserve" text-anchor="start" x="438.62" y="-503.5" font-family="Arial" font-weight="bold" font-size="10.00">(−)</text>
<text xml:space="preserve" text-anchor="start" x="450.62" y="-503.5" font-family="Arial" font-size="10.00"> decreases complexity</text>
<!-- unknown.y_axis -->
<g id="node1" class="node">
<title>unknown.y_axis</title>
<path fill="#b8e6b8" stroke="#2c3e50" stroke-width="1.8" d="M363.38,-296C363.38,-296 333.38,-296 333.38,-296 327.38,-296 321.38,-290 321.38,-284 321.38,-284 321.38,-272 321.38,-272 321.38,-266 327.38,-260 333.38,-260 333.38,-260 363.38,-260 363.38,-260 369.38,-260 375.38,-266 375.38,-272 375.38,-272 375.38,-284 375.38,-284 375.38,-290 369.38,-296 363.38,-296"/>
<text xml:space="preserve" text-anchor="middle" x="348.38" y="-274.5" font-family="Arial" font-size="10.00" fill="#1a1a1a">y axis</text>
</g>
<!-- attr_5 -->
<g id="node7" class="node">
<title>attr_5</title>
<path fill="#c7b8e6" stroke="#7f8c8d" stroke-width="1.2" d="M551.88,-296C551.88,-296 442.12,-296 442.12,-296 436.12,-296 430.12,-290 430.12,-284 430.12,-284 430.12,-272 430.12,-272 430.12,-266 436.12,-260 442.12,-260 442.12,-260 551.88,-260 551.88,-260 557.88,-260 563.88,-266 563.88,-272 563.88,-272 563.88,-284 563.88,-284 563.88,-290 557.88,-296 551.88,-296"/>
<text xml:space="preserve" text-anchor="middle" x="497" y="-274.5" font-family="Arial" font-size="10.00" fill="#1a1a1a">(+) no measurement metric</text>
</g>
<!-- unknown.y_axis&#45;&gt;attr_5 -->
<g id="edge1" class="edge">
<title>unknown.y_axis&#45;&gt;attr_5</title>
<path fill="none" stroke="#aaaaaa" d="M376.27,-278C389.08,-278 405.11,-278 421.23,-278"/>
<polygon fill="#aaaaaa" stroke="#aaaaaa" points="421.14,-280.45 428.14,-278 421.14,-275.55 421.14,-280.45"/>
</g>
<!-- text.axis_label -->
<g id="node2" class="node">
<title>text.axis_label</title>
<path fill="#b8e6b8" stroke="#2c3e50" stroke-width="1.8" d="M365,-361C365,-361 331.75,-361 331.75,-361 325.75,-361 319.75,-355 319.75,-349 319.75,-349 319.75,-337 319.75,-337 319.75,-331 325.75,-325 331.75,-325 331.75,-325 365,-325 365,-325 371,-325 377,-331 377,-337 377,-337 377,-349 377,-349 377,-355 371,-361 365,-361"/>
<text xml:space="preserve" text-anchor="middle" x="348.38" y="-339.5" font-family="Arial" font-size="10.00" fill="#1a1a1a">axis label</text>
</g>
<!-- attr_0 -->
<g id="node8" class="node">
<title>attr_0</title>
<path fill="#c7b8e6" stroke="#7f8c8d" stroke-width="1.2" d="M562,-426C562,-426 432,-426 432,-426 426,-426 420,-420 420,-414 420,-414 420,-402 420,-402 420,-396 426,-390 432,-390 432,-390 562,-390 562,-390 568,-390 574,-396 574,-402 574,-402 574,-414 574,-414 574,-420 568,-426 562,-426"/>
<text xml:space="preserve" text-anchor="middle" x="497" y="-404.5" font-family="Arial" font-size="10.00" fill="#1a1a1a">(+) missing or insufficient labels</text>
</g>
<!-- text.axis_label&#45;&gt;attr_0 -->
<g id="edge2" class="edge">
<title>text.axis_label&#45;&gt;attr_0</title>
<path fill="none" stroke="#aaaaaa" d="M377.78,-356.58C390.62,-362.64 406.02,-369.79 420,-376 427.56,-379.35 435.57,-382.82 443.45,-386.19"/>
<polygon fill="#aaaaaa" stroke="#aaaaaa" points="442.47,-388.43 449.88,-388.91 444.39,-383.92 442.47,-388.43"/>
</g>
<!-- rel_1 -->
<g id="node14" class="node">
<title>rel_1</title>
<path fill="#f5b8b8" stroke="#d46a6a" stroke-width="1.2" d="M529.38,-361C529.38,-361 464.62,-361 464.62,-361 458.62,-361 452.62,-355 452.62,-349 452.62,-349 452.62,-337 452.62,-337 452.62,-331 458.62,-325 464.62,-325 464.62,-325 529.38,-325 529.38,-325 535.38,-325 541.38,-331 541.38,-337 541.38,-337 541.38,-349 541.38,-349 541.38,-355 535.38,-361 529.38,-361"/>
<text xml:space="preserve" text-anchor="middle" x="497" y="-339.5" font-family="Arial" font-size="10.00" fill="#8b0000">lacks context for</text>
</g>
<!-- text.axis_label&#45;&gt;rel_1 -->
<g id="edge9" class="edge">
<title>text.axis_label&#45;&gt;rel_1</title>
<path fill="none" stroke="#d46a6a" stroke-width="1.5" d="M377.65,-343C395.89,-343 420.22,-343 442.07,-343"/>
<polygon fill="#d46a6a" stroke="#d46a6a" stroke-width="1.5" points="441.96,-345.8 449.96,-343 441.96,-340.2 441.96,-345.8"/>
</g>
<!-- unknown.scientific_notation -->
<g id="node3" class="node">
<title>unknown.scientific_notation</title>
<path fill="#b8e6b8" stroke="#2c3e50" stroke-width="1.8" d="M80.5,-393C80.5,-393 12,-393 12,-393 6,-393 0,-387 0,-381 0,-381 0,-369 0,-369 0,-363 6,-357 12,-357 12,-357 80.5,-357 80.5,-357 86.5,-357 92.5,-363 92.5,-369 92.5,-369 92.5,-381 92.5,-381 92.5,-387 86.5,-393 80.5,-393"/>
<text xml:space="preserve" text-anchor="middle" x="46.25" y="-371.5" font-family="Arial" font-size="10.00" fill="#1a1a1a">scientific notation</text>
</g>
<!-- attr_1 -->
<g id="node9" class="node">
<title>attr_1</title>
<path fill="#c7b8e6" stroke="#7f8c8d" stroke-width="1.2" d="M264.75,-491C264.75,-491 147.5,-491 147.5,-491 141.5,-491 135.5,-485 135.5,-479 135.5,-479 135.5,-467 135.5,-467 135.5,-461 141.5,-455 147.5,-455 147.5,-455 264.75,-455 264.75,-455 270.75,-455 276.75,-461 276.75,-467 276.75,-467 276.75,-479 276.75,-479 276.75,-485 270.75,-491 264.75,-491"/>
<text xml:space="preserve" text-anchor="middle" x="206.12" y="-469.5" font-family="Arial" font-size="10.00" fill="#1a1a1a">(+) unfamiliar numeric format</text>
</g>
<!-- unknown.scientific_notation&#45;&gt;attr_1 -->
<g id="edge3" class="edge">
<title>unknown.scientific_notation&#45;&gt;attr_1</title>
<path fill="none" stroke="#aaaaaa" d="M69.55,-393.76C86.86,-407.8 111.82,-426.92 135.5,-441 141.25,-444.42 147.43,-447.73 153.65,-450.85"/>
<polygon fill="#aaaaaa" stroke="#aaaaaa" points="152.22,-452.87 159.59,-453.74 154.37,-448.47 152.22,-452.87"/>
</g>
<!-- attr_2 -->
<g id="node10" class="node">
<title>attr_2</title>
<path fill="#c7b8e6" stroke="#7f8c8d" stroke-width="1.2" d="M251.25,-426C251.25,-426 161,-426 161,-426 155,-426 149,-420 149,-414 149,-414 149,-402 149,-402 149,-396 155,-390 161,-390 161,-390 251.25,-390 251.25,-390 257.25,-390 263.25,-396 263.25,-402 263.25,-402 263.25,-414 263.25,-414 263.25,-420 257.25,-426 251.25,-426"/>
<text xml:space="preserve" text-anchor="middle" x="206.12" y="-404.5" font-family="Arial" font-size="10.00" fill="#1a1a1a">(+) confusing to reader</text>
</g>
<!-- unknown.scientific_notation&#45;&gt;attr_2 -->
<g id="edge4" class="edge">
<title>unknown.scientific_notation&#45;&gt;attr_2</title>
<path fill="none" stroke="#aaaaaa" d="M93.34,-384.63C108.06,-387.71 124.65,-391.18 140.44,-394.48"/>
<polygon fill="#aaaaaa" stroke="#aaaaaa" points="139.78,-396.84 147.13,-395.88 140.78,-392.05 139.78,-396.84"/>
</g>
<!-- rel_0 -->
<g id="node13" class="node">
<title>rel_0</title>
<path fill="#f5b8b8" stroke="#d46a6a" stroke-width="1.2" d="M222,-361C222,-361 190.25,-361 190.25,-361 184.25,-361 178.25,-355 178.25,-349 178.25,-349 178.25,-337 178.25,-337 178.25,-331 184.25,-325 190.25,-325 190.25,-325 222,-325 222,-325 228,-325 234,-331 234,-337 234,-337 234,-349 234,-349 234,-355 228,-361 222,-361"/>
<text xml:space="preserve" text-anchor="middle" x="206.12" y="-339.5" font-family="Arial" font-size="10.00" fill="#8b0000">obscures</text>
</g>
<!-- unknown.scientific_notation&#45;&gt;rel_0 -->
<g id="edge7" class="edge">
<title>unknown.scientific_notation&#45;&gt;rel_0</title>
<path fill="none" stroke="#d46a6a" stroke-width="1.5" d="M93.34,-365.66C117.17,-360.83 145.87,-355.01 168.22,-350.48"/>
<polygon fill="#d46a6a" stroke="#d46a6a" stroke-width="1.5" points="168.5,-353.28 175.78,-348.95 167.38,-347.79 168.5,-353.28"/>
</g>
<!-- rel_4 -->
<g id="node17" class="node">
<title>rel_4</title>
<path fill="#f5b8b8" stroke="#d46a6a" stroke-width="1.2" d="M247.88,-296C247.88,-296 164.38,-296 164.38,-296 158.38,-296 152.38,-290 152.38,-284 152.38,-284 152.38,-272 152.38,-272 152.38,-266 158.38,-260 164.38,-260 164.38,-260 247.88,-260 247.88,-260 253.88,-260 259.88,-266 259.88,-272 259.88,-272 259.88,-284 259.88,-284 259.88,-290 253.88,-296 247.88,-296"/>
<text xml:space="preserve" text-anchor="middle" x="206.12" y="-274.5" font-family="Arial" font-size="10.00" fill="#8b0000">requires expertise for</text>
</g>
<!-- unknown.scientific_notation&#45;&gt;rel_4 -->
<g id="edge15" class="edge">
<title>unknown.scientific_notation&#45;&gt;rel_4</title>
<path fill="none" stroke="#d46a6a" stroke-width="1.5" d="M70.41,-356.38C87.76,-342.9 112.38,-324.7 135.5,-311 141.3,-307.56 147.51,-304.2 153.75,-301.02"/>
<polygon fill="#d46a6a" stroke="#d46a6a" stroke-width="1.5" points="154.91,-303.57 160.84,-297.5 152.43,-298.55 154.91,-303.57"/>
</g>
<!-- furniture.legend -->
<g id="node4" class="node">
<title>furniture.legend</title>
<path fill="#b8e6b8" stroke="#2c3e50" stroke-width="1.8" d="M363.38,-199C363.38,-199 333.38,-199 333.38,-199 327.38,-199 321.38,-193 321.38,-187 321.38,-187 321.38,-175 321.38,-175 321.38,-169 327.38,-163 333.38,-163 333.38,-163 363.38,-163 363.38,-163 369.38,-163 375.38,-169 375.38,-175 375.38,-175 375.38,-187 375.38,-187 375.38,-193 369.38,-199 363.38,-199"/>
<text xml:space="preserve" text-anchor="middle" x="348.38" y="-177.5" font-family="Arial" font-size="10.00" fill="#1a1a1a">legend</text>
</g>
<!-- attr_3 -->
<g id="node11" class="node">
<title>attr_3</title>
<path fill="#c7b8e6" stroke="#7f8c8d" stroke-width="1.2" d="M538,-231C538,-231 456,-231 456,-231 450,-231 444,-225 444,-219 444,-219 444,-207 444,-207 444,-201 450,-195 456,-195 456,-195 538,-195 538,-195 544,-195 550,-201 550,-207 550,-207 550,-219 550,-219 550,-225 544,-231 538,-231"/>
<text xml:space="preserve" text-anchor="middle" x="497" y="-209.5" font-family="Arial" font-size="10.00" fill="#1a1a1a">(+) absent or unclear</text>
</g>
<!-- furniture.legend&#45;&gt;attr_3 -->
<g id="edge5" class="edge">
<title>furniture.legend&#45;&gt;attr_3</title>
<path fill="none" stroke="#aaaaaa" d="M376.27,-186.87C392.84,-190.49 414.78,-195.27 435.35,-199.76"/>
<polygon fill="#aaaaaa" stroke="#aaaaaa" points="434.61,-202.11 441.97,-201.21 435.65,-197.32 434.61,-202.11"/>
</g>
<!-- rel_2 -->
<g id="node15" class="node">
<title>rel_2</title>
<path fill="#f5b8b8" stroke="#d46a6a" stroke-width="1.2" d="M522.25,-166C522.25,-166 471.75,-166 471.75,-166 465.75,-166 459.75,-160 459.75,-154 459.75,-154 459.75,-142 459.75,-142 459.75,-136 465.75,-130 471.75,-130 471.75,-130 522.25,-130 522.25,-130 528.25,-130 534.25,-136 534.25,-142 534.25,-142 534.25,-154 534.25,-154 534.25,-160 528.25,-166 522.25,-166"/>
<text xml:space="preserve" text-anchor="middle" x="497" y="-144.5" font-family="Arial" font-size="10.00" fill="#8b0000">fails to clarify</text>
</g>
<!-- furniture.legend&#45;&gt;rel_2 -->
<g id="edge11" class="edge">
<title>furniture.legend&#45;&gt;rel_2</title>
<path fill="none" stroke="#d46a6a" stroke-width="1.5" d="M376.27,-174.95C396.76,-170.34 425.47,-163.87 449.64,-158.43"/>
<polygon fill="#d46a6a" stroke="#d46a6a" stroke-width="1.5" points="449.93,-161.24 457.12,-156.75 448.7,-155.77 449.93,-161.24"/>
</g>
<!-- mark.line -->
<g id="node5" class="node">
<title>mark.line</title>
<path fill="#b8e6b8" stroke="#2c3e50" stroke-width="1.8" d="M659,-166C659,-166 629,-166 629,-166 623,-166 617,-160 617,-154 617,-154 617,-142 617,-142 617,-136 623,-130 629,-130 629,-130 659,-130 659,-130 665,-130 671,-136 671,-142 671,-142 671,-154 671,-154 671,-160 665,-166 659,-166"/>
<text xml:space="preserve" text-anchor="middle" x="644" y="-144.5" font-family="Arial" font-size="10.00" fill="#1a1a1a">line</text>
</g>
<!-- text.title -->
<g id="node6" class="node">
<title>text.title</title>
<path fill="#b8e6b8" stroke="#2c3e50" stroke-width="1.8" d="M363.38,-69C363.38,-69 333.38,-69 333.38,-69 327.38,-69 321.38,-63 321.38,-57 321.38,-57 321.38,-45 321.38,-45 321.38,-39 327.38,-33 333.38,-33 333.38,-33 363.38,-33 363.38,-33 369.38,-33 375.38,-39 375.38,-45 375.38,-45 375.38,-57 375.38,-57 375.38,-63 369.38,-69 363.38,-69"/>
<text xml:space="preserve" text-anchor="middle" x="348.38" y="-47.5" font-family="Arial" font-size="10.00" fill="#1a1a1a">title</text>
</g>
<!-- attr_4 -->
<g id="node12" class="node">
<title>attr_4</title>
<path fill="#c7b8e6" stroke="#7f8c8d" stroke-width="1.2" d="M535,-101C535,-101 459,-101 459,-101 453,-101 447,-95 447,-89 447,-89 447,-77 447,-77 447,-71 453,-65 459,-65 459,-65 535,-65 535,-65 541,-65 547,-71 547,-77 547,-77 547,-89 547,-89 547,-95 541,-101 535,-101"/>
<text xml:space="preserve" text-anchor="middle" x="497" y="-79.5" font-family="Arial" font-size="10.00" fill="#1a1a1a">(+) missing context</text>
</g>
<!-- text.title&#45;&gt;attr_4 -->
<g id="edge6" class="edge">
<title>text.title&#45;&gt;attr_4</title>
<path fill="none" stroke="#aaaaaa" d="M376.27,-56.87C393.64,-60.66 416.93,-65.74 438.34,-70.42"/>
<polygon fill="#aaaaaa" stroke="#aaaaaa" points="437.6,-72.76 444.96,-71.86 438.64,-67.97 437.6,-72.76"/>
</g>
<!-- rel_3 -->
<g id="node16" class="node">
<title>rel_3</title>
<path fill="#f5b8b8" stroke="#d46a6a" stroke-width="1.2" d="M527.88,-36C527.88,-36 466.12,-36 466.12,-36 460.12,-36 454.12,-30 454.12,-24 454.12,-24 454.12,-12 454.12,-12 454.12,-6 460.12,0 466.12,0 466.12,0 527.88,0 527.88,0 533.88,0 539.88,-6 539.88,-12 539.88,-12 539.88,-24 539.88,-24 539.88,-30 533.88,-36 527.88,-36"/>
<text xml:space="preserve" text-anchor="middle" x="497" y="-14.5" font-family="Arial" font-size="10.00" fill="#8b0000">omits subject of</text>
</g>
<!-- text.title&#45;&gt;rel_3 -->
<g id="edge13" class="edge">
<title>text.title&#45;&gt;rel_3</title>
<path fill="none" stroke="#d46a6a" stroke-width="1.5" d="M376.27,-44.95C395.14,-40.7 420.97,-34.89 443.82,-29.74"/>
<polygon fill="#d46a6a" stroke="#d46a6a" stroke-width="1.5" points="444.33,-32.5 451.52,-28.01 443.1,-27.04 444.33,-32.5"/>
</g>
<!-- rel_0&#45;&gt;text.axis_label -->
<g id="edge8" class="edge">
<title>rel_0&#45;&gt;text.axis_label</title>
<path fill="none" stroke="#d46a6a" stroke-width="1.5" d="M234.5,-343C255.75,-343 285.47,-343 309.08,-343"/>
<polygon fill="#d46a6a" stroke="#d46a6a" stroke-width="1.5" points="308.84,-345.8 316.84,-343 308.84,-340.2 308.84,-345.8"/>
</g>
<!-- rel_1&#45;&gt;mark.line -->
<g id="edge10" class="edge">
<title>rel_1&#45;&gt;mark.line</title>
<path fill="none" stroke="#d46a6a" stroke-width="1.5" d="M541.71,-331.24C553.32,-326.46 565.08,-319.9 574,-311 611.61,-273.46 629.9,-212.26 637.8,-176.49"/>
<polygon fill="#d46a6a" stroke="#d46a6a" stroke-width="1.5" points="640.49,-177.32 639.38,-168.91 635.01,-176.17 640.49,-177.32"/>
</g>
<!-- rel_2&#45;&gt;mark.line -->
<g id="edge12" class="edge">
<title>rel_2&#45;&gt;mark.line</title>
<path fill="none" stroke="#d46a6a" stroke-width="1.5" d="M534.59,-148C556.51,-148 584.28,-148 606.23,-148"/>
<polygon fill="#d46a6a" stroke="#d46a6a" stroke-width="1.5" points="606.22,-150.8 614.22,-148 606.22,-145.2 606.22,-150.8"/>
</g>
<!-- rel_3&#45;&gt;mark.line -->
<g id="edge14" class="edge">
<title>rel_3&#45;&gt;mark.line</title>
<path fill="none" stroke="#d46a6a" stroke-width="1.5" d="M540.13,-31.52C551.84,-36.49 564.05,-42.94 574,-51 597.5,-70.04 616.68,-99.01 628.8,-120.34"/>
<polygon fill="#d46a6a" stroke="#d46a6a" stroke-width="1.5" points="626.3,-121.6 632.61,-127.26 631.2,-118.9 626.3,-121.6"/>
</g>
<!-- rel_4&#45;&gt;unknown.y_axis -->
<g id="edge16" class="edge">
<title>rel_4&#45;&gt;unknown.y_axis</title>
<path fill="none" stroke="#d46a6a" stroke-width="1.5" d="M260.15,-278C276.91,-278 295.07,-278 310.45,-278"/>
<polygon fill="#d46a6a" stroke="#d46a6a" stroke-width="1.5" points="310.34,-280.8 318.34,-278 310.34,-275.2 310.34,-280.8"/>
</g>
</g>
</svg>
