<?xml version="1.0" encoding="UTF-8" standalone="no"?>
<!DOCTYPE svg PUBLIC "-//W3C//DTD SVG 1.1//EN"
 "http://www.w3.org/Graphics/SVG/1.1/DTD/svg11.dtd">
<!-- Generated by graphviz version 14.1.5 (20260411.2331)
 -->
<!-- Title: VisC.199.5.png Pages: 1 -->
<svg width="752pt" height="440pt"
 viewBox="0.00 0.00 752.00 440.00" xmlns="http://www.w3.org/2000/svg" xmlns:xlink="http://www.w3.org/1999/xlink">
<g id="graph0" class="graph" transform="scale(1 1) rotate(0) translate(4 436.25)">
<title>VisC.199.5.png</title>
<polygon fill="white" stroke="none" points="-4,4 -4,-436.25 747.5,-436.25 747.5,4 -4,4"/>
<text xml:space="preserve" text-anchor="start" x="323.75" y="-411.95" font-family="Arial" font-weight="bold" font-size="14.00">VisC.199.5.png</text>
<text xml:space="preserve" text-anchor="start" x="329.38" y="-392" font-family="Arial" font-size="11.00">Line &#160;| &#160;VC = 0.26</text>
<path fill="#b8e6b8" stroke="none" d="M162.38,-367C162.38,-367 170.38,-367 170.38,-367 173.38,-367 176.38,-370 176.38,-373 176.38,-373 176.38,-379 176.38,-379 176.38,-382 173.38,-385 170.38,-385 170.38,-385 162.38,-385 162.38,-385 159.38,-385 156.38,-382 156.38,-379 156.38,-379 156.38,-373 156.38,-373 156.38,-370 159.38,-367 162.38,-367"/>
<path fill="none" stroke="black" d="M162.38,-367C162.38,-367 170.38,-367 170.38,-367 173.38,-367 176.38,-370 176.38,-373 176.38,-373 176.38,-379 176.38,-379 176.38,-382 173.38,-385 170.38,-385 170.38,-385 162.38,-385 162.38,-385 159.38,-385 156.38,-382 156.38,-379 156.38,-379 156.38,-373 156.38,-373 156.38,-370 159.38,-367 162.38,-367"/>
<text xml:space="preserve" text-anchor="start" x="164.88" y="-372.25" font-family="Arial" font-size="10.00"> </text>
<text xml:space="preserve" text-anchor="start" x="180.38" y="-372.25" font-family="Arial" font-size="10.00">Object</text>
<path fill="#c7b8e6" stroke="none" d="M218.88,-367C218.88,-367 226.88,-367 226.88,-367 229.88,-367 232.88,-370 232.88,-373 232.88,-373 232.88,-379 232.88,-379 232.88,-382 229.88,-385 226.88,-385 226.88,-385 218.88,-385 218.88,-385 215.88,-385 212.88,-382 212.88,-379 212.88,-379 212.88,-373 212.88,-373 212.88,-370 215.88,-367 218.88,-367"/>
<path fill="none" stroke="black" d="M218.88,-367C218.88,-367 226.88,-367 226.88,-367 229.88,-367 232.88,-370 232.88,-373 232.88,-373 232.88,-379 232.88,-379 232.88,-382 229.88,-385 226.88,-385 226.88,-385 218.88,-385 218.88,-385 215.88,-385 212.88,-382 212.88,-379 212.88,-379 212.88,-373 212.88,-373 212.88,-370 215.88,-367 218.88,-367"/>
<text xml:space="preserve" text-anchor="start" x="221.38" y="-372.25" font-family="Arial" font-size="10.00"> </text>
<text xml:space="preserve" text-anchor="start" x="236.88" y="-372.25" font-family="Arial" font-size="10.00">Attribute</text>
<path fill="#f5b8b8" stroke="none" d="M283.62,-367C283.62,-367 291.62,-367 291.62,-367 294.62,-367 297.62,-370 297.62,-373 297.62,-373 297.62,-379 297.62,-379 297.62,-382 294.62,-385 291.62,-385 291.62,-385 283.62,-385 283.62,-385 280.62,-385 277.62,-382 277.62,-379 277.62,-379 277.62,-373 277.62,-373 277.62,-370 280.62,-367 283.62,-367"/>
<path fill="none" stroke="black" d="M283.62,-367C283.62,-367 291.62,-367 291.62,-367 294.62,-367 297.62,-370 297.62,-373 297.62,-373 297.62,-379 297.62,-379 297.62,-382 294.62,-385 291.62,-385 291.62,-385 283.62,-385 283.62,-385 280.62,-385 277.62,-382 277.62,-379 277.62,-379 277.62,-373 277.62,-373 277.62,-370 280.62,-367 283.62,-367"/>
<text xml:space="preserve" text-anchor="start" x="286.12" y="-372.25" font-family="Arial" font-size="10.00"> </text>
<text xml:space="preserve" text-anchor="start" x="301.62" y="-372.25" font-family="Arial" font-size="10.00">Relationship</text>
<text xml:space="preserve" text-anchor="start" x="361.62" y="-373.5" font-family="Arial" font-weight="bold" font-size="10.00">(+)</text>
<text xml:space="preserve" text-anchor="start" x="373.62" y="-373.5" font-family="Arial" font-size="10.00"> increases complexity</text>
<text xml:space="preserve" text-anchor="start" x="474.88" y="-373.5" font-family="Arial" font-weight="bold" font-size="10.00">(−)</text>
<text xml:space="preserve" text-anchor="start" x="486.88" y="-373.5" font-family="Arial" font-size="10.00"> decreases complexity</text>
<!-- mark.line -->
<g id="node1" class="node">
<title>mark.line</title>
<path fill="#b8e6b8" stroke="#2c3e50" stroke-width="1.8" d="M262.62,-69C262.62,-69 232.62,-69 232.62,-69 226.62,-69 220.62,-63 220.62,-57 220.62,-57 220.62,-45 220.62,-45 220.62,-39 226.62,-33 232.62,-33 232.62,-33 262.62,-33 262.62,-33 268.62,-33 274.62,-39 274.62,-45 274.62,-45 274.62,-57 274.62,-57 274.62,-63 268.62,-69 262.62,-69"/>
<text xml:space="preserve" text-anchor="middle" x="247.62" y="-47.5" font-family="Arial" font-size="10.00" fill="#1a1a1a">line</text>
</g>
<!-- attr_0 -->
<g id="node6" class="node">
<title>attr_0</title>
<path fill="#c7b8e6" stroke="#7f8c8d" stroke-width="1.2" d="M429.38,-101C429.38,-101 336.88,-101 336.88,-101 330.88,-101 324.88,-95 324.88,-89 324.88,-89 324.88,-77 324.88,-77 324.88,-71 330.88,-65 336.88,-65 336.88,-65 429.38,-65 429.38,-65 435.38,-65 441.38,-71 441.38,-77 441.38,-77 441.38,-89 441.38,-89 441.38,-95 435.38,-101 429.38,-101"/>
<text xml:space="preserve" text-anchor="middle" x="383.12" y="-79.5" font-family="Arial" font-size="10.00" fill="#1a1a1a">(−) clear simple pattern</text>
</g>
<!-- mark.line&#45;&gt;attr_0 -->
<g id="edge1" class="edge">
<title>mark.line&#45;&gt;attr_0</title>
<path fill="none" stroke="#aaaaaa" d="M275.32,-57.4C287.2,-60.25 301.76,-63.74 316.27,-67.21"/>
<polygon fill="#aaaaaa" stroke="#aaaaaa" points="315.45,-69.54 322.83,-68.79 316.59,-64.77 315.45,-69.54"/>
</g>
<!-- rel_0 -->
<g id="node11" class="node">
<title>rel_0</title>
<path fill="#f5b8b8" stroke="#d46a6a" stroke-width="1.2" d="M398.12,-36C398.12,-36 368.12,-36 368.12,-36 362.12,-36 356.12,-30 356.12,-24 356.12,-24 356.12,-12 356.12,-12 356.12,-6 362.12,0 368.12,0 368.12,0 398.12,0 398.12,0 404.12,0 410.12,-6 410.12,-12 410.12,-12 410.12,-24 410.12,-24 410.12,-30 404.12,-36 398.12,-36"/>
<text xml:space="preserve" text-anchor="middle" x="383.12" y="-14.5" font-family="Arial" font-size="10.00" fill="#8b0000">supports</text>
</g>
<!-- mark.line&#45;&gt;rel_0 -->
<g id="edge6" class="edge">
<title>mark.line&#45;&gt;rel_0</title>
<path fill="none" stroke="#d46a6a" stroke-width="1.5" d="M275.32,-44.4C295.64,-39.38 323.83,-32.41 346.14,-26.89"/>
<polygon fill="#d46a6a" stroke="#d46a6a" stroke-width="1.5" points="346.63,-29.66 353.73,-25.02 345.29,-24.22 346.63,-29.66"/>
</g>
<!-- text.axis_label -->
<g id="node2" class="node">
<title>text.axis_label</title>
<path fill="#b8e6b8" stroke="#2c3e50" stroke-width="1.8" d="M264.25,-328C264.25,-328 231,-328 231,-328 225,-328 219,-322 219,-316 219,-316 219,-304 219,-304 219,-298 225,-292 231,-292 231,-292 264.25,-292 264.25,-292 270.25,-292 276.25,-298 276.25,-304 276.25,-304 276.25,-316 276.25,-316 276.25,-322 270.25,-328 264.25,-328"/>
<text xml:space="preserve" text-anchor="middle" x="247.62" y="-306.5" font-family="Arial" font-size="10.00" fill="#1a1a1a">axis label</text>
</g>
<!-- attr_1 -->
<g id="node7" class="node">
<title>attr_1</title>
<path fill="#c7b8e6" stroke="#7f8c8d" stroke-width="1.2" d="M426.38,-361C426.38,-361 339.88,-361 339.88,-361 333.88,-361 327.88,-355 327.88,-349 327.88,-349 327.88,-337 327.88,-337 327.88,-331 333.88,-325 339.88,-325 339.88,-325 426.38,-325 426.38,-325 432.38,-325 438.38,-331 438.38,-337 438.38,-337 438.38,-349 438.38,-349 438.38,-355 432.38,-361 426.38,-361"/>
<text xml:space="preserve" text-anchor="middle" x="383.12" y="-339.5" font-family="Arial" font-size="10.00" fill="#1a1a1a">(−) readable label text</text>
</g>
<!-- text.axis_label&#45;&gt;attr_1 -->
<g id="edge2" class="edge">
<title>text.axis_label&#45;&gt;attr_1</title>
<path fill="none" stroke="#aaaaaa" d="M276.94,-317C289.34,-320.06 304.42,-323.79 319.25,-327.46"/>
<polygon fill="#aaaaaa" stroke="#aaaaaa" points="318.59,-329.82 325.97,-329.12 319.76,-325.06 318.59,-329.82"/>
</g>
<!-- rel_1 -->
<g id="node12" class="node">
<title>rel_1</title>
<path fill="#f5b8b8" stroke="#d46a6a" stroke-width="1.2" d="M398.12,-296C398.12,-296 368.12,-296 368.12,-296 362.12,-296 356.12,-290 356.12,-284 356.12,-284 356.12,-272 356.12,-272 356.12,-266 362.12,-260 368.12,-260 368.12,-260 398.12,-260 398.12,-260 404.12,-260 410.12,-266 410.12,-272 410.12,-272 410.12,-284 410.12,-284 410.12,-290 404.12,-296 398.12,-296"/>
<text xml:space="preserve" text-anchor="middle" x="383.12" y="-274.5" font-family="Arial" font-size="10.00" fill="#8b0000">clarifies</text>
</g>
<!-- text.axis_label&#45;&gt;rel_1 -->
<g id="edge8" class="edge">
<title>text.axis_label&#45;&gt;rel_1</title>
<path fill="none" stroke="#d46a6a" stroke-width="1.5" d="M276.94,-303.21C297.02,-298.4 324.15,-291.9 345.83,-286.7"/>
<polygon fill="#d46a6a" stroke="#d46a6a" stroke-width="1.5" points="346.34,-289.46 353.46,-284.87 345.03,-284.01 346.34,-289.46"/>
</g>
<!-- furniture.legend -->
<g id="node3" class="node">
<title>furniture.legend</title>
<path fill="#b8e6b8" stroke="#2c3e50" stroke-width="1.8" d="M262.62,-199C262.62,-199 232.62,-199 232.62,-199 226.62,-199 220.62,-193 220.62,-187 220.62,-187 220.62,-175 220.62,-175 220.62,-169 226.62,-163 232.62,-163 232.62,-163 262.62,-163 262.62,-163 268.62,-163 274.62,-169 274.62,-175 274.62,-175 274.62,-187 274.62,-187 274.62,-193 268.62,-199 262.62,-199"/>
<text xml:space="preserve" text-anchor="middle" x="247.62" y="-177.5" font-family="Arial" font-size="10.00" fill="#1a1a1a">legend</text>
</g>
<!-- attr_2 -->
<g id="node8" class="node">
<title>attr_2</title>
<path fill="#c7b8e6" stroke="#7f8c8d" stroke-width="1.2" d="M435,-231C435,-231 331.25,-231 331.25,-231 325.25,-231 319.25,-225 319.25,-219 319.25,-219 319.25,-207 319.25,-207 319.25,-201 325.25,-195 331.25,-195 331.25,-195 435,-195 435,-195 441,-195 447,-201 447,-207 447,-207 447,-219 447,-219 447,-225 441,-231 435,-231"/>
<text xml:space="preserve" text-anchor="middle" x="383.12" y="-209.5" font-family="Arial" font-size="10.00" fill="#1a1a1a">(−) easily decoded legend</text>
</g>
<!-- furniture.legend&#45;&gt;attr_2 -->
<g id="edge3" class="edge">
<title>furniture.legend&#45;&gt;attr_2</title>
<path fill="none" stroke="#aaaaaa" d="M275.32,-187.4C285.62,-189.87 297.94,-192.82 310.49,-195.83"/>
<polygon fill="#aaaaaa" stroke="#aaaaaa" points="309.9,-198.21 317.28,-197.46 311.04,-193.44 309.9,-198.21"/>
</g>
<!-- rel_2 -->
<g id="node13" class="node">
<title>rel_2</title>
<path fill="#f5b8b8" stroke="#d46a6a" stroke-width="1.2" d="M415.88,-166C415.88,-166 350.38,-166 350.38,-166 344.38,-166 338.38,-160 338.38,-154 338.38,-154 338.38,-142 338.38,-142 338.38,-136 344.38,-130 350.38,-130 350.38,-130 415.88,-130 415.88,-130 421.88,-130 427.88,-136 427.88,-142 427.88,-142 427.88,-154 427.88,-154 427.88,-160 421.88,-166 415.88,-166"/>
<text xml:space="preserve" text-anchor="middle" x="383.12" y="-144.5" font-family="Arial" font-size="10.00" fill="#8b0000">reduces effort for</text>
</g>
<!-- furniture.legend&#45;&gt;rel_2 -->
<g id="edge10" class="edge">
<title>furniture.legend&#45;&gt;rel_2</title>
<path fill="none" stroke="#d46a6a" stroke-width="1.5" d="M275.32,-174.4C290.41,-170.67 309.83,-165.87 327.96,-161.39"/>
<polygon fill="#d46a6a" stroke="#d46a6a" stroke-width="1.5" points="328.57,-164.12 335.66,-159.48 327.23,-158.69 328.57,-164.12"/>
</g>
<!-- text.title -->
<g id="node4" class="node">
<title>text.title</title>
<path fill="#b8e6b8" stroke="#2c3e50" stroke-width="1.8" d="M42,-69C42,-69 12,-69 12,-69 6,-69 0,-63 0,-57 0,-57 0,-45 0,-45 0,-39 6,-33 12,-33 12,-33 42,-33 42,-33 48,-33 54,-39 54,-45 54,-45 54,-57 54,-57 54,-63 48,-69 42,-69"/>
<text xml:space="preserve" text-anchor="middle" x="27" y="-47.5" font-family="Arial" font-size="10.00" fill="#1a1a1a">title</text>
</g>
<!-- rel_3 -->
<g id="node14" class="node">
<title>rel_3</title>
<path fill="#f5b8b8" stroke="#d46a6a" stroke-width="1.2" d="M164,-69C164,-69 109,-69 109,-69 103,-69 97,-63 97,-57 97,-57 97,-45 97,-45 97,-39 103,-33 109,-33 109,-33 164,-33 164,-33 170,-33 176,-39 176,-45 176,-45 176,-57 176,-57 176,-63 170,-69 164,-69"/>
<text xml:space="preserve" text-anchor="middle" x="136.5" y="-47.5" font-family="Arial" font-size="10.00" fill="#8b0000">contextualizes</text>
</g>
<!-- text.title&#45;&gt;rel_3 -->
<g id="edge12" class="edge">
<title>text.title&#45;&gt;rel_3</title>
<path fill="none" stroke="#d46a6a" stroke-width="1.5" d="M54.85,-51C64.37,-51 75.41,-51 86.2,-51"/>
<polygon fill="#d46a6a" stroke="#d46a6a" stroke-width="1.5" points="86.15,-53.8 94.15,-51 86.15,-48.2 86.15,-53.8"/>
</g>
<!-- unknown.overall_layout -->
<g id="node5" class="node">
<title>unknown.overall_layout</title>
<path fill="#b8e6b8" stroke="#2c3e50" stroke-width="1.8" d="M551.75,-166C551.75,-166 502,-166 502,-166 496,-166 490,-160 490,-154 490,-154 490,-142 490,-142 490,-136 496,-130 502,-130 502,-130 551.75,-130 551.75,-130 557.75,-130 563.75,-136 563.75,-142 563.75,-142 563.75,-154 563.75,-154 563.75,-160 557.75,-166 551.75,-166"/>
<text xml:space="preserve" text-anchor="middle" x="526.88" y="-144.5" font-family="Arial" font-size="10.00" fill="#1a1a1a">overall layout</text>
</g>
<!-- attr_3 -->
<g id="node9" class="node">
<title>attr_3</title>
<path fill="#c7b8e6" stroke="#7f8c8d" stroke-width="1.2" d="M719.5,-199C719.5,-199 630.75,-199 630.75,-199 624.75,-199 618.75,-193 618.75,-187 618.75,-187 618.75,-175 618.75,-175 618.75,-169 624.75,-163 630.75,-163 630.75,-163 719.5,-163 719.5,-163 725.5,-163 731.5,-169 731.5,-175 731.5,-175 731.5,-187 731.5,-187 731.5,-193 725.5,-199 719.5,-199"/>
<text xml:space="preserve" text-anchor="middle" x="675.12" y="-177.5" font-family="Arial" font-size="10.00" fill="#1a1a1a">(−) low cognitive effort</text>
</g>
<!-- unknown.overall_layout&#45;&gt;attr_3 -->
<g id="edge4" class="edge">
<title>unknown.overall_layout&#45;&gt;attr_3</title>
<path fill="none" stroke="#aaaaaa" d="M564.4,-156.24C578.24,-159.36 594.42,-163.02 610.05,-166.54"/>
<polygon fill="#aaaaaa" stroke="#aaaaaa" points="609.31,-168.89 616.68,-168.04 610.39,-164.11 609.31,-168.89"/>
</g>
<!-- attr_4 -->
<g id="node10" class="node">
<title>attr_4</title>
<path fill="#c7b8e6" stroke="#7f8c8d" stroke-width="1.2" d="M731.5,-134C731.5,-134 618.75,-134 618.75,-134 612.75,-134 606.75,-128 606.75,-122 606.75,-122 606.75,-110 606.75,-110 606.75,-104 612.75,-98 618.75,-98 618.75,-98 731.5,-98 731.5,-98 737.5,-98 743.5,-104 743.5,-110 743.5,-110 743.5,-122 743.5,-122 743.5,-128 737.5,-134 731.5,-134"/>
<text xml:space="preserve" text-anchor="middle" x="675.12" y="-112.5" font-family="Arial" font-size="10.00" fill="#1a1a1a">(−) straightforward structure</text>
</g>
<!-- unknown.overall_layout&#45;&gt;attr_4 -->
<g id="edge5" class="edge">
<title>unknown.overall_layout&#45;&gt;attr_4</title>
<path fill="none" stroke="#aaaaaa" d="M564.4,-140.01C574.71,-137.75 586.33,-135.21 598.05,-132.64"/>
<polygon fill="#aaaaaa" stroke="#aaaaaa" points="598.38,-135.08 604.69,-131.19 597.33,-130.3 598.38,-135.08"/>
</g>
<!-- rel_0&#45;&gt;unknown.overall_layout -->
<g id="edge7" class="edge">
<title>rel_0&#45;&gt;unknown.overall_layout</title>
<path fill="none" stroke="#d46a6a" stroke-width="1.5" d="M410.69,-28.49C422.51,-33.89 436.16,-41.2 447,-50 472.04,-70.33 494.43,-99.81 508.9,-121.12"/>
<polygon fill="#d46a6a" stroke="#d46a6a" stroke-width="1.5" points="506.4,-122.42 513.16,-127.53 511.07,-119.32 506.4,-122.42"/>
</g>
<!-- rel_1&#45;&gt;unknown.overall_layout -->
<g id="edge9" class="edge">
<title>rel_1&#45;&gt;unknown.overall_layout</title>
<path fill="none" stroke="#d46a6a" stroke-width="1.5" d="M410.69,-267.51C422.51,-262.11 436.16,-254.8 447,-246 472.04,-225.67 494.43,-196.19 508.9,-174.88"/>
<polygon fill="#d46a6a" stroke="#d46a6a" stroke-width="1.5" points="511.07,-176.68 513.16,-168.47 506.4,-173.58 511.07,-176.68"/>
</g>
<!-- rel_2&#45;&gt;unknown.overall_layout -->
<g id="edge11" class="edge">
<title>rel_2&#45;&gt;unknown.overall_layout</title>
<path fill="none" stroke="#d46a6a" stroke-width="1.5" d="M428.2,-148C444.49,-148 462.99,-148 479.48,-148"/>
<polygon fill="#d46a6a" stroke="#d46a6a" stroke-width="1.5" points="479.17,-150.8 487.17,-148 479.17,-145.2 479.17,-150.8"/>
</g>
<!-- rel_3&#45;&gt;mark.line -->
<g id="edge13" class="edge">
<title>rel_3&#45;&gt;mark.line</title>
<path fill="none" stroke="#d46a6a" stroke-width="1.5" d="M176.59,-51C187.32,-51 198.93,-51 209.54,-51"/>
<polygon fill="#d46a6a" stroke="#d46a6a" stroke-width="1.5" points="209.49,-53.8 217.49,-51 209.49,-48.2 209.49,-53.8"/>
</g>
</g>
</svg>
