<?xml version="1.0" encoding="UTF-8" standalone="no"?>
<!DOCTYPE svg PUBLIC "-//W3C//DTD SVG 1.1//EN"
 "http://www.w3.org/Graphics/SVG/1.1/DTD/svg11.dtd">
<!-- Generated by graphviz version 14.1.5 (20260411.2331)
 -->
<!-- Title: VisC.233.3(2).png Pages: 1 -->
<svg width="668pt" height="528pt"
 viewBox="0.00 0.00 668.00 528.00" xmlns="http://www.w3.org/2000/svg" xmlns:xlink="http://www.w3.org/1999/xlink">
<g id="graph0" class="graph" transform="scale(1 1) rotate(0) translate(4 524.25)">
<title>VisC.233.3(2).png</title>
<polygon fill="white" stroke="none" points="-4,4 -4,-524.25 664,-524.25 664,4 -4,4"/>
<text xml:space="preserve" text-anchor="start" x="273.75" y="-499.95" font-family="Arial" font-weight="bold" font-size="14.00">VisC.233.3(2).png</text>
<text xml:space="preserve" text-anchor="start" x="258.38" y="-480" font-family="Arial" font-size="11.00">Cont.&#45;ColorPatn &#160;| &#160;VC = 0.59</text>
<path fill="#b8e6b8" stroke="none" d="M120.62,-455C120.62,-455 128.62,-455 128.62,-455 131.62,-455 134.62,-458 134.62,-461 134.62,-461 134.62,-467 134.62,-467 134.62,-470 131.62,-473 128.62,-473 128.62,-473 120.62,-473 120.62,-473 117.62,-473 114.62,-470 114.62,-467 114.62,-467 114.62,-461 114.62,-461 114.62,-458 117.62,-455 120.62,-455"/>
<path fill="none" stroke="black" d="M120.62,-455C120.62,-455 128.62,-455 128.62,-455 131.62,-455 134.62,-458 134.62,-461 134.62,-461 134.62,-467 134.62,-467 134.62,-470 131.62,-473 128.62,-473 128.62,-473 120.62,-473 120.62,-473 117.62,-473 114.62,-470 114.62,-467 114.62,-467 114.62,-461 114.62,-461 114.62,-458 117.62,-455 120.62,-455"/>
<text xml:space="preserve" text-anchor="start" x="123.12" y="-460.25" font-family="Arial" font-size="10.00"> </text>
<text xml:space="preserve" text-anchor="start" x="138.62" y="-460.25" font-family="Arial" font-size="10.00">Object</text>
<path fill="#c7b8e6" stroke="none" d="M177.12,-455C177.12,-455 185.12,-455 185.12,-455 188.12,-455 191.12,-458 191.12,-461 191.12,-461 191.12,-467 191.12,-467 191.12,-470 188.12,-473 185.12,-473 185.12,-473 177.12,-473 177.12,-473 174.12,-473 171.12,-470 171.12,-467 171.12,-467 171.12,-461 171.12,-461 171.12,-458 174.12,-455 177.12,-455"/>
<path fill="none" stroke="black" d="M177.12,-455C177.12,-455 185.12,-455 185.12,-455 188.12,-455 191.12,-458 191.12,-461 191.12,-461 191.12,-467 191.12,-467 191.12,-470 188.12,-473 185.12,-473 185.12,-473 177.12,-473 177.12,-473 174.12,-473 171.12,-470 171.12,-467 171.12,-467 171.12,-461 171.12,-461 171.12,-458 174.12,-455 177.12,-455"/>
<text xml:space="preserve" text-anchor="start" x="179.62" y="-460.25" font-family="Arial" font-size="10.00"> </text>
<text xml:space="preserve" text-anchor="start" x="195.12" y="-460.25" font-family="Arial" font-size="10.00">Attribute</text>
<path fill="#f5b8b8" stroke="none" d="M241.88,-455C241.88,-455 249.88,-455 249.88,-455 252.88,-455 255.88,-458 255.88,-461 255.88,-461 255.88,-467 255.88,-467 255.88,-470 252.88,-473 249.88,-473 249.88,-473 241.88,-473 241.88,-473 238.88,-473 235.88,-470 235.88,-467 235.88,-467 235.88,-461 235.88,-461 235.88,-458 238.88,-455 241.88,-455"/>
<path fill="none" stroke="black" d="M241.88,-455C241.88,-455 249.88,-455 249.88,-455 252.88,-455 255.88,-458 255.88,-461 255.88,-461 255.88,-467 255.88,-467 255.88,-470 252.88,-473 249.88,-473 249.88,-473 241.88,-473 241.88,-473 238.88,-473 235.88,-470 235.88,-467 235.88,-467 235.88,-461 235.88,-461 235.88,-458 238.88,-455 241.88,-455"/>
<text xml:space="preserve" text-anchor="start" x="244.38" y="-460.25" font-family="Arial" font-size="10.00"> </text>
<text xml:space="preserve" text-anchor="start" x="259.88" y="-460.25" font-family="Arial" font-size="10.00">Relationship</text>
<text xml:space="preserve" text-anchor="start" x="319.88" y="-461.5" font-family="Arial" font-weight="bold" font-size="10.00">(+)</text>
<text xml:space="preserve" text-anchor="start" x="331.88" y="-461.5" font-family="Arial" font-size="10.00"> increases complexity</text>
<text xml:space="preserve" text-anchor="start" x="433.12" y="-461.5" font-family="Arial" font-weight="bold" font-size="10.00">(−)</text>
<text xml:space="preserve" text-anchor="start" x="445.12" y="-461.5" font-family="Arial" font-size="10.00"> decreases complexity</text>
<!-- unknown.circles -->
<g id="node1" class="node">
<title>unknown.circles</title>
<path fill="#b8e6b8" stroke="#2c3e50" stroke-width="1.8" d="M52.25,-111C52.25,-111 22.25,-111 22.25,-111 16.25,-111 10.25,-105 10.25,-99 10.25,-99 10.25,-87 10.25,-87 10.25,-81 16.25,-75 22.25,-75 22.25,-75 52.25,-75 52.25,-75 58.25,-75 64.25,-81 64.25,-87 64.25,-87 64.25,-99 64.25,-99 64.25,-105 58.25,-111 52.25,-111"/>
<text xml:space="preserve" text-anchor="middle" x="37.25" y="-89.5" font-family="Arial" font-size="10.00" fill="#1a1a1a">circles</text>
</g>
<!-- attr_0 -->
<g id="node6" class="node">
<title>attr_0</title>
<path fill="#c7b8e6" stroke="#7f8c8d" stroke-width="1.2" d="M239.25,-176C239.25,-176 134,-176 134,-176 128,-176 122,-170 122,-164 122,-164 122,-152 122,-152 122,-146 128,-140 134,-140 134,-140 239.25,-140 239.25,-140 245.25,-140 251.25,-146 251.25,-152 251.25,-152 251.25,-164 251.25,-164 251.25,-170 245.25,-176 239.25,-176"/>
<text xml:space="preserve" text-anchor="middle" x="186.62" y="-154.5" font-family="Arial" font-size="10.00" fill="#1a1a1a">(+) high quantity elements</text>
</g>
<!-- unknown.circles&#45;&gt;attr_0 -->
<g id="edge1" class="edge">
<title>unknown.circles&#45;&gt;attr_0</title>
<path fill="none" stroke="#aaaaaa" d="M64.94,-104.77C84.7,-113.49 112.2,-125.61 135.95,-136.09"/>
<polygon fill="#aaaaaa" stroke="#aaaaaa" points="134.74,-138.24 142.14,-138.82 136.72,-133.75 134.74,-138.24"/>
</g>
<!-- rel_0 -->
<g id="node12" class="node">
<title>rel_0</title>
<path fill="#f5b8b8" stroke="#d46a6a" stroke-width="1.2" d="M201.62,-111C201.62,-111 171.62,-111 171.62,-111 165.62,-111 159.62,-105 159.62,-99 159.62,-99 159.62,-87 159.62,-87 159.62,-81 165.62,-75 171.62,-75 171.62,-75 201.62,-75 201.62,-75 207.62,-75 213.62,-81 213.62,-87 213.62,-87 213.62,-99 213.62,-99 213.62,-105 207.62,-111 201.62,-111"/>
<text xml:space="preserve" text-anchor="middle" x="186.62" y="-89.5" font-family="Arial" font-size="10.00" fill="#8b0000">forms</text>
</g>
<!-- unknown.circles&#45;&gt;rel_0 -->
<g id="edge7" class="edge">
<title>unknown.circles&#45;&gt;rel_0</title>
<path fill="none" stroke="#d46a6a" stroke-width="1.5" d="M64.94,-93C88.41,-93 122.81,-93 148.88,-93"/>
<polygon fill="#d46a6a" stroke="#d46a6a" stroke-width="1.5" points="148.86,-95.8 156.86,-93 148.86,-90.2 148.86,-95.8"/>
</g>
<!-- rel_4 -->
<g id="node16" class="node">
<title>rel_4</title>
<path fill="#f5b8b8" stroke="#d46a6a" stroke-width="1.2" d="M359,-36C359,-36 315.25,-36 315.25,-36 309.25,-36 303.25,-30 303.25,-24 303.25,-24 303.25,-12 303.25,-12 303.25,-6 309.25,0 315.25,0 315.25,0 359,0 359,0 365,0 371,-6 371,-12 371,-12 371,-24 371,-24 371,-30 365,-36 359,-36"/>
<text xml:space="preserve" text-anchor="middle" x="337.12" y="-14.5" font-family="Arial" font-size="10.00" fill="#8b0000">densely fills</text>
</g>
<!-- unknown.circles&#45;&gt;rel_4 -->
<g id="edge15" class="edge">
<title>unknown.circles&#45;&gt;rel_4</title>
<path fill="none" stroke="#d46a6a" stroke-width="1.5" d="M64.89,-80.3C80.04,-73.49 99.52,-65.41 117.5,-60 177.07,-42.08 248.16,-30.09 292.74,-23.66"/>
<polygon fill="#d46a6a" stroke="#d46a6a" stroke-width="1.5" points="292.87,-26.47 300.4,-22.57 292.09,-20.92 292.87,-26.47"/>
</g>
<!-- structure.pattern -->
<g id="node2" class="node">
<title>structure.pattern</title>
<path fill="#b8e6b8" stroke="#2c3e50" stroke-width="1.8" d="M352.12,-116C352.12,-116 322.12,-116 322.12,-116 316.12,-116 310.12,-110 310.12,-104 310.12,-104 310.12,-92 310.12,-92 310.12,-86 316.12,-80 322.12,-80 322.12,-80 352.12,-80 352.12,-80 358.12,-80 364.12,-86 364.12,-92 364.12,-92 364.12,-104 364.12,-104 364.12,-110 358.12,-116 352.12,-116"/>
<text xml:space="preserve" text-anchor="middle" x="337.12" y="-94.5" font-family="Arial" font-size="10.00" fill="#1a1a1a">pattern</text>
</g>
<!-- attr_1 -->
<g id="node7" class="node">
<title>attr_1</title>
<path fill="#c7b8e6" stroke="#7f8c8d" stroke-width="1.2" d="M537.62,-215C537.62,-215 439.12,-215 439.12,-215 433.12,-215 427.12,-209 427.12,-203 427.12,-203 427.12,-191 427.12,-191 427.12,-185 433.12,-179 439.12,-179 439.12,-179 537.62,-179 537.62,-179 543.62,-179 549.62,-185 549.62,-191 549.62,-191 549.62,-203 549.62,-203 549.62,-209 543.62,-215 537.62,-215"/>
<text xml:space="preserve" text-anchor="middle" x="488.38" y="-193.5" font-family="Arial" font-size="10.00" fill="#1a1a1a">(+) non repeating pattern</text>
</g>
<!-- structure.pattern&#45;&gt;attr_1 -->
<g id="edge2" class="edge">
<title>structure.pattern&#45;&gt;attr_1</title>
<path fill="none" stroke="#aaaaaa" d="M357.48,-116.62C373.11,-131.01 396.1,-150.8 418.5,-165 423.9,-168.42 429.73,-171.7 435.63,-174.76"/>
<polygon fill="#aaaaaa" stroke="#aaaaaa" points="434.41,-176.89 441.76,-177.84 436.6,-172.51 434.41,-176.89"/>
</g>
<!-- attr_5 -->
<g id="node8" class="node">
<title>attr_5</title>
<path fill="#c7b8e6" stroke="#7f8c8d" stroke-width="1.2" d="M546.25,-150C546.25,-150 430.5,-150 430.5,-150 424.5,-150 418.5,-144 418.5,-138 418.5,-138 418.5,-126 418.5,-126 418.5,-120 424.5,-114 430.5,-114 430.5,-114 546.25,-114 546.25,-114 552.25,-114 558.25,-120 558.25,-126 558.25,-126 558.25,-138 558.25,-138 558.25,-144 552.25,-150 546.25,-150"/>
<text xml:space="preserve" text-anchor="middle" x="488.38" y="-128.5" font-family="Arial" font-size="10.00" fill="#1a1a1a">(+) requires careful decoding</text>
</g>
<!-- structure.pattern&#45;&gt;attr_5 -->
<g id="edge3" class="edge">
<title>structure.pattern&#45;&gt;attr_5</title>
<path fill="none" stroke="#aaaaaa" d="M364.81,-104.08C377.63,-107 393.74,-110.67 410.01,-114.38"/>
<polygon fill="#aaaaaa" stroke="#aaaaaa" points="409.16,-116.69 416.53,-115.86 410.25,-111.92 409.16,-116.69"/>
</g>
<!-- rel_2 -->
<g id="node14" class="node">
<title>rel_2</title>
<path fill="#f5b8b8" stroke="#d46a6a" stroke-width="1.2" d="M536.12,-85C536.12,-85 440.62,-85 440.62,-85 434.62,-85 428.62,-79 428.62,-73 428.62,-73 428.62,-61 428.62,-61 428.62,-55 434.62,-49 440.62,-49 440.62,-49 536.12,-49 536.12,-49 542.12,-49 548.12,-55 548.12,-61 548.12,-61 548.12,-73 548.12,-73 548.12,-79 542.12,-85 536.12,-85"/>
<text xml:space="preserve" text-anchor="middle" x="488.38" y="-63.5" font-family="Arial" font-size="10.00" fill="#8b0000">increases complexity of</text>
</g>
<!-- structure.pattern&#45;&gt;rel_2 -->
<g id="edge11" class="edge">
<title>structure.pattern&#45;&gt;rel_2</title>
<path fill="none" stroke="#d46a6a" stroke-width="1.5" d="M364.81,-92.46C379.8,-89.34 399.27,-85.3 418.27,-81.35"/>
<polygon fill="#d46a6a" stroke="#d46a6a" stroke-width="1.5" points="418.64,-84.14 425.91,-79.77 417.5,-78.65 418.64,-84.14"/>
</g>
<!-- unknown.color_gradient -->
<g id="node3" class="node">
<title>unknown.color_gradient</title>
<path fill="#b8e6b8" stroke="#2c3e50" stroke-width="1.8" d="M62.5,-351C62.5,-351 12,-351 12,-351 6,-351 0,-345 0,-339 0,-339 0,-327 0,-327 0,-321 6,-315 12,-315 12,-315 62.5,-315 62.5,-315 68.5,-315 74.5,-321 74.5,-327 74.5,-327 74.5,-339 74.5,-339 74.5,-345 68.5,-351 62.5,-351"/>
<text xml:space="preserve" text-anchor="middle" x="37.25" y="-329.5" font-family="Arial" font-size="10.00" fill="#1a1a1a">color gradient</text>
</g>
<!-- attr_2 -->
<g id="node9" class="node">
<title>attr_2</title>
<path fill="#c7b8e6" stroke="#7f8c8d" stroke-width="1.2" d="M239.25,-449C239.25,-449 134,-449 134,-449 128,-449 122,-443 122,-437 122,-437 122,-425 122,-425 122,-419 128,-413 134,-413 134,-413 239.25,-413 239.25,-413 245.25,-413 251.25,-419 251.25,-425 251.25,-425 251.25,-437 251.25,-437 251.25,-443 245.25,-449 239.25,-449"/>
<text xml:space="preserve" text-anchor="middle" x="186.62" y="-427.5" font-family="Arial" font-size="10.00" fill="#1a1a1a">(+) black to white gradient</text>
</g>
<!-- unknown.color_gradient&#45;&gt;attr_2 -->
<g id="edge4" class="edge">
<title>unknown.color_gradient&#45;&gt;attr_2</title>
<path fill="none" stroke="#aaaaaa" d="M57.99,-351.9C73.39,-366 95.75,-385.16 117.5,-399 122.85,-402.4 128.62,-405.67 134.45,-408.72"/>
<polygon fill="#aaaaaa" stroke="#aaaaaa" points="133.15,-410.81 140.51,-411.79 135.37,-406.44 133.15,-410.81"/>
</g>
<!-- attr_3 -->
<g id="node10" class="node">
<title>attr_3</title>
<path fill="#c7b8e6" stroke="#7f8c8d" stroke-width="1.2" d="M243.75,-384C243.75,-384 129.5,-384 129.5,-384 123.5,-384 117.5,-378 117.5,-372 117.5,-372 117.5,-360 117.5,-360 117.5,-354 123.5,-348 129.5,-348 129.5,-348 243.75,-348 243.75,-348 249.75,-348 255.75,-354 255.75,-360 255.75,-360 255.75,-372 255.75,-372 255.75,-378 249.75,-384 243.75,-384"/>
<text xml:space="preserve" text-anchor="middle" x="186.62" y="-362.5" font-family="Arial" font-size="10.00" fill="#1a1a1a">(+) frequent color transitions</text>
</g>
<!-- unknown.color_gradient&#45;&gt;attr_3 -->
<g id="edge5" class="edge">
<title>unknown.color_gradient&#45;&gt;attr_3</title>
<path fill="none" stroke="#aaaaaa" d="M75.06,-341.24C85.45,-343.57 97.16,-346.19 108.97,-348.84"/>
<polygon fill="#aaaaaa" stroke="#aaaaaa" points="108.3,-351.2 115.67,-350.34 109.37,-346.42 108.3,-351.2"/>
</g>
<!-- rel_1 -->
<g id="node13" class="node">
<title>rel_1</title>
<path fill="#f5b8b8" stroke="#d46a6a" stroke-width="1.2" d="M208.88,-319C208.88,-319 164.38,-319 164.38,-319 158.38,-319 152.38,-313 152.38,-307 152.38,-307 152.38,-295 152.38,-295 152.38,-289 158.38,-283 164.38,-283 164.38,-283 208.88,-283 208.88,-283 214.88,-283 220.88,-289 220.88,-295 220.88,-295 220.88,-307 220.88,-307 220.88,-313 214.88,-319 208.88,-319"/>
<text xml:space="preserve" text-anchor="middle" x="186.62" y="-297.5" font-family="Arial" font-size="10.00" fill="#8b0000">encodes via</text>
</g>
<!-- unknown.color_gradient&#45;&gt;rel_1 -->
<g id="edge9" class="edge">
<title>unknown.color_gradient&#45;&gt;rel_1</title>
<path fill="none" stroke="#d46a6a" stroke-width="1.5" d="M75.06,-325.01C95.37,-320.6 120.72,-315.09 142.03,-310.47"/>
<polygon fill="#d46a6a" stroke="#d46a6a" stroke-width="1.5" points="142.36,-313.26 149.59,-308.83 141.17,-307.79 142.36,-313.26"/>
</g>
<!-- rel_3 -->
<g id="node15" class="node">
<title>rel_3</title>
<path fill="#f5b8b8" stroke="#d46a6a" stroke-width="1.2" d="M208.88,-254C208.88,-254 164.38,-254 164.38,-254 158.38,-254 152.38,-248 152.38,-242 152.38,-242 152.38,-230 152.38,-230 152.38,-224 158.38,-218 164.38,-218 164.38,-218 208.88,-218 208.88,-218 214.88,-218 220.88,-224 220.88,-230 220.88,-230 220.88,-242 220.88,-242 220.88,-248 214.88,-254 208.88,-254"/>
<text xml:space="preserve" text-anchor="middle" x="186.62" y="-232.5" font-family="Arial" font-size="10.00" fill="#8b0000">overwhelms</text>
</g>
<!-- unknown.color_gradient&#45;&gt;rel_3 -->
<g id="edge13" class="edge">
<title>unknown.color_gradient&#45;&gt;rel_3</title>
<path fill="none" stroke="#d46a6a" stroke-width="1.5" d="M58.78,-314.23C74.23,-300.67 96.29,-282.45 117.5,-269 125.41,-263.99 134.19,-259.21 142.74,-254.92"/>
<polygon fill="#d46a6a" stroke="#d46a6a" stroke-width="1.5" points="143.88,-257.48 149.85,-251.47 141.43,-252.45 143.88,-257.48"/>
</g>
<!-- unknown.left_image -->
<g id="node4" class="node">
<title>unknown.left_image</title>
<path fill="#b8e6b8" stroke="#2c3e50" stroke-width="1.8" d="M648,-54C648,-54 613.25,-54 613.25,-54 607.25,-54 601.25,-48 601.25,-42 601.25,-42 601.25,-30 601.25,-30 601.25,-24 607.25,-18 613.25,-18 613.25,-18 648,-18 648,-18 654,-18 660,-24 660,-30 660,-30 660,-42 660,-42 660,-48 654,-54 648,-54"/>
<text xml:space="preserve" text-anchor="middle" x="630.62" y="-32.5" font-family="Arial" font-size="10.00" fill="#1a1a1a">left image</text>
</g>
<!-- unknown.data_encoding -->
<g id="node5" class="node">
<title>unknown.data_encoding</title>
<path fill="#b8e6b8" stroke="#2c3e50" stroke-width="1.8" d="M363.5,-288C363.5,-288 310.75,-288 310.75,-288 304.75,-288 298.75,-282 298.75,-276 298.75,-276 298.75,-264 298.75,-264 298.75,-258 304.75,-252 310.75,-252 310.75,-252 363.5,-252 363.5,-252 369.5,-252 375.5,-258 375.5,-264 375.5,-264 375.5,-276 375.5,-276 375.5,-282 369.5,-288 363.5,-288"/>
<text xml:space="preserve" text-anchor="middle" x="337.12" y="-266.5" font-family="Arial" font-size="10.00" fill="#1a1a1a">data encoding</text>
</g>
<!-- attr_4 -->
<g id="node11" class="node">
<title>attr_4</title>
<path fill="#c7b8e6" stroke="#7f8c8d" stroke-width="1.2" d="M543.25,-288C543.25,-288 433.5,-288 433.5,-288 427.5,-288 421.5,-282 421.5,-276 421.5,-276 421.5,-264 421.5,-264 421.5,-258 427.5,-252 433.5,-252 433.5,-252 543.25,-252 543.25,-252 549.25,-252 555.25,-258 555.25,-264 555.25,-264 555.25,-276 555.25,-276 555.25,-282 549.25,-288 543.25,-288"/>
<text xml:space="preserve" text-anchor="middle" x="488.38" y="-266.5" font-family="Arial" font-size="10.00" fill="#1a1a1a">(+) all elements meaningful</text>
</g>
<!-- unknown.data_encoding&#45;&gt;attr_4 -->
<g id="edge6" class="edge">
<title>unknown.data_encoding&#45;&gt;attr_4</title>
<path fill="none" stroke="#aaaaaa" d="M376.17,-270C387.37,-270 400.02,-270 412.67,-270"/>
<polygon fill="#aaaaaa" stroke="#aaaaaa" points="412.46,-272.45 419.46,-270 412.46,-267.55 412.46,-272.45"/>
</g>
<!-- rel_0&#45;&gt;structure.pattern -->
<g id="edge8" class="edge">
<title>rel_0&#45;&gt;structure.pattern</title>
<path fill="none" stroke="#d46a6a" stroke-width="1.5" d="M214.17,-93.89C237.89,-94.69 272.86,-95.87 299.28,-96.76"/>
<polygon fill="#d46a6a" stroke="#d46a6a" stroke-width="1.5" points="298.95,-99.55 307.04,-97.02 299.14,-93.95 298.95,-99.55"/>
</g>
<!-- rel_1&#45;&gt;unknown.data_encoding -->
<g id="edge10" class="edge">
<title>rel_1&#45;&gt;unknown.data_encoding</title>
<path fill="none" stroke="#d46a6a" stroke-width="1.5" d="M221.32,-293.97C241.14,-289.83 266.51,-284.53 288.36,-279.97"/>
<polygon fill="#d46a6a" stroke="#d46a6a" stroke-width="1.5" points="288.63,-282.77 295.89,-278.4 287.49,-277.29 288.63,-282.77"/>
</g>
<!-- rel_2&#45;&gt;unknown.left_image -->
<g id="edge12" class="edge">
<title>rel_2&#45;&gt;unknown.left_image</title>
<path fill="none" stroke="#d46a6a" stroke-width="1.5" d="M548.45,-53.94C562.62,-50.81 577.42,-47.54 590.44,-44.66"/>
<polygon fill="#d46a6a" stroke="#d46a6a" stroke-width="1.5" points="591.02,-47.4 598.23,-42.94 589.82,-41.93 591.02,-47.4"/>
</g>
<!-- rel_3&#45;&gt;unknown.data_encoding -->
<g id="edge14" class="edge">
<title>rel_3&#45;&gt;unknown.data_encoding</title>
<path fill="none" stroke="#d46a6a" stroke-width="1.5" d="M221.32,-243.72C241.14,-248.25 266.51,-254.06 288.36,-259.06"/>
<polygon fill="#d46a6a" stroke="#d46a6a" stroke-width="1.5" points="287.48,-261.73 295.9,-260.79 288.73,-256.28 287.48,-261.73"/>
</g>
<!-- rel_4&#45;&gt;unknown.left_image -->
<g id="edge16" class="edge">
<title>rel_4&#45;&gt;unknown.left_image</title>
<path fill="none" stroke="#d46a6a" stroke-width="1.5" d="M371.56,-20.06C425.77,-23.41 532.55,-30.01 590.31,-33.57"/>
<polygon fill="#d46a6a" stroke="#d46a6a" stroke-width="1.5" points="590.07,-36.36 598.23,-34.06 590.42,-30.77 590.07,-36.36"/>
</g>
</g>
</svg>
