<?xml version="1.0" encoding="UTF-8" standalone="no"?>
<!DOCTYPE svg PUBLIC "-//W3C//DTD SVG 1.1//EN"
 "http://www.w3.org/Graphics/SVG/1.1/DTD/svg11.dtd">
<!-- Generated by graphviz version 14.1.5 (20260411.2331)
 -->
<!-- Title: VisC.375.5.png Pages: 1 -->
<svg width="839pt" height="440pt"
 viewBox="0.00 0.00 839.00 440.00" xmlns="http://www.w3.org/2000/svg" xmlns:xlink="http://www.w3.org/1999/xlink">
<g id="graph0" class="graph" transform="scale(1 1) rotate(0) translate(4 436.25)">
<title>VisC.375.5.png</title>
<polygon fill="white" stroke="none" points="-4,4 -4,-436.25 835,-436.25 835,4 -4,4"/>
<text xml:space="preserve" text-anchor="start" x="367.5" y="-411.95" font-family="Arial" font-weight="bold" font-size="14.00">VisC.375.5.png</text>
<text xml:space="preserve" text-anchor="start" x="373.12" y="-392" font-family="Arial" font-size="11.00">Line &#160;| &#160;VC = 0.74</text>
<path fill="#b8e6b8" stroke="none" d="M206.12,-367C206.12,-367 214.12,-367 214.12,-367 217.12,-367 220.12,-370 220.12,-373 220.12,-373 220.12,-379 220.12,-379 220.12,-382 217.12,-385 214.12,-385 214.12,-385 206.12,-385 206.12,-385 203.12,-385 200.12,-382 200.12,-379 200.12,-379 200.12,-373 200.12,-373 200.12,-370 203.12,-367 206.12,-367"/>
<path fill="none" stroke="black" d="M206.12,-367C206.12,-367 214.12,-367 214.12,-367 217.12,-367 220.12,-370 220.12,-373 220.12,-373 220.12,-379 220.12,-379 220.12,-382 217.12,-385 214.12,-385 214.12,-385 206.12,-385 206.12,-385 203.12,-385 200.12,-382 200.12,-379 200.12,-379 200.12,-373 200.12,-373 200.12,-370 203.12,-367 206.12,-367"/>
<text xml:space="preserve" text-anchor="start" x="208.62" y="-372.25" font-family="Arial" font-size="10.00"> </text>
<text xml:space="preserve" text-anchor="start" x="224.12" y="-372.25" font-family="Arial" font-size="10.00">Object</text>
<path fill="#c7b8e6" stroke="none" d="M262.62,-367C262.62,-367 270.62,-367 270.62,-367 273.62,-367 276.62,-370 276.62,-373 276.62,-373 276.62,-379 276.62,-379 276.62,-382 273.62,-385 270.62,-385 270.62,-385 262.62,-385 262.62,-385 259.62,-385 256.62,-382 256.62,-379 256.62,-379 256.62,-373 256.62,-373 256.62,-370 259.62,-367 262.62,-367"/>
<path fill="none" stroke="black" d="M262.62,-367C262.62,-367 270.62,-367 270.62,-367 273.62,-367 276.62,-370 276.62,-373 276.62,-373 276.62,-379 276.62,-379 276.62,-382 273.62,-385 270.62,-385 270.62,-385 262.62,-385 262.62,-385 259.62,-385 256.62,-382 256.62,-379 256.62,-379 256.62,-373 256.62,-373 256.62,-370 259.62,-367 262.62,-367"/>
<text xml:space="preserve" text-anchor="start" x="265.12" y="-372.25" font-family="Arial" font-size="10.00"> </text>
<text xml:space="preserve" text-anchor="start" x="280.62" y="-372.25" font-family="Arial" font-size="10.00">Attribute</text>
<path fill="#f5b8b8" stroke="none" d="M327.38,-367C327.38,-367 335.38,-367 335.38,-367 338.38,-367 341.38,-370 341.38,-373 341.38,-373 341.38,-379 341.38,-379 341.38,-382 338.38,-385 335.38,-385 335.38,-385 327.38,-385 327.38,-385 324.38,-385 321.38,-382 321.38,-379 321.38,-379 321.38,-373 321.38,-373 321.38,-370 324.38,-367 327.38,-367"/>
<path fill="none" stroke="black" d="M327.38,-367C327.38,-367 335.38,-367 335.38,-367 338.38,-367 341.38,-370 341.38,-373 341.38,-373 341.38,-379 341.38,-379 341.38,-382 338.38,-385 335.38,-385 335.38,-385 327.38,-385 327.38,-385 324.38,-385 321.38,-382 321.38,-379 321.38,-379 321.38,-373 321.38,-373 321.38,-370 324.38,-367 327.38,-367"/>
<text xml:space="preserve" text-anchor="start" x="329.88" y="-372.25" font-family="Arial" font-size="10.00"> </text>
<text xml:space="preserve" text-anchor="start" x="345.38" y="-372.25" font-family="Arial" font-size="10.00">Relationship</text>
<text xml:space="preserve" text-anchor="start" x="405.38" y="-373.5" font-family="Arial" font-weight="bold" font-size="10.00">(+)</text>
<text xml:space="preserve" text-anchor="start" x="417.38" y="-373.5" font-family="Arial" font-size="10.00"> increases complexity</text>
<text xml:space="preserve" text-anchor="start" x="518.62" y="-373.5" font-family="Arial" font-weight="bold" font-size="10.00">(−)</text>
<text xml:space="preserve" text-anchor="start" x="530.62" y="-373.5" font-family="Arial" font-size="10.00"> decreases complexity</text>
<!-- unknown.lines -->
<g id="node1" class="node">
<title>unknown.lines</title>
<path fill="#b8e6b8" stroke="#2c3e50" stroke-width="1.8" d="M42,-231C42,-231 12,-231 12,-231 6,-231 0,-225 0,-219 0,-219 0,-207 0,-207 0,-201 6,-195 12,-195 12,-195 42,-195 42,-195 48,-195 54,-201 54,-207 54,-207 54,-219 54,-219 54,-225 48,-231 42,-231"/>
<text xml:space="preserve" text-anchor="middle" x="27" y="-209.5" font-family="Arial" font-size="10.00" fill="#1a1a1a">lines</text>
</g>
<!-- attr_0 -->
<g id="node5" class="node">
<title>attr_0</title>
<path fill="#c7b8e6" stroke="#7f8c8d" stroke-width="1.2" d="M243.5,-361C243.5,-361 109,-361 109,-361 103,-361 97,-355 97,-349 97,-349 97,-337 97,-337 97,-331 103,-325 109,-325 109,-325 243.5,-325 243.5,-325 249.5,-325 255.5,-331 255.5,-337 255.5,-337 255.5,-349 255.5,-349 255.5,-355 249.5,-361 243.5,-361"/>
<text xml:space="preserve" text-anchor="middle" x="176.25" y="-339.5" font-family="Arial" font-size="10.00" fill="#1a1a1a">(+) indistinguishable overlapping </text>
</g>
<!-- unknown.lines&#45;&gt;attr_0 -->
<g id="edge1" class="edge">
<title>unknown.lines&#45;&gt;attr_0</title>
<path fill="none" stroke="#aaaaaa" d="M36.96,-231.67C48.24,-253.4 69.5,-289.09 97,-311 101.4,-314.5 106.23,-317.67 111.27,-320.53"/>
<polygon fill="#aaaaaa" stroke="#aaaaaa" points="110.1,-322.69 117.43,-323.8 112.39,-318.36 110.1,-322.69"/>
</g>
<!-- attr_1 -->
<g id="node6" class="node">
<title>attr_1</title>
<path fill="#c7b8e6" stroke="#7f8c8d" stroke-width="1.2" d="M227.38,-296C227.38,-296 125.12,-296 125.12,-296 119.12,-296 113.12,-290 113.12,-284 113.12,-284 113.12,-272 113.12,-272 113.12,-266 119.12,-260 125.12,-260 125.12,-260 227.38,-260 227.38,-260 233.38,-260 239.38,-266 239.38,-272 239.38,-272 239.38,-284 239.38,-284 239.38,-290 233.38,-296 227.38,-296"/>
<text xml:space="preserve" text-anchor="middle" x="176.25" y="-274.5" font-family="Arial" font-size="10.00" fill="#1a1a1a">(+) difficult to differentiate</text>
</g>
<!-- unknown.lines&#45;&gt;attr_1 -->
<g id="edge2" class="edge">
<title>unknown.lines&#45;&gt;attr_1</title>
<path fill="none" stroke="#aaaaaa" d="M54.7,-226.21C67.43,-232.4 82.92,-239.76 97,-246 104.81,-249.46 113.11,-253 121.28,-256.41"/>
<polygon fill="#aaaaaa" stroke="#aaaaaa" points="119.92,-258.49 127.32,-258.91 121.79,-253.97 119.92,-258.49"/>
</g>
<!-- rel_0 -->
<g id="node10" class="node">
<title>rel_0</title>
<path fill="#f5b8b8" stroke="#d46a6a" stroke-width="1.2" d="M191.25,-231C191.25,-231 161.25,-231 161.25,-231 155.25,-231 149.25,-225 149.25,-219 149.25,-219 149.25,-207 149.25,-207 149.25,-201 155.25,-195 161.25,-195 161.25,-195 191.25,-195 191.25,-195 197.25,-195 203.25,-201 203.25,-207 203.25,-207 203.25,-219 203.25,-219 203.25,-225 197.25,-231 191.25,-231"/>
<text xml:space="preserve" text-anchor="middle" x="176.25" y="-209.5" font-family="Arial" font-size="10.00" fill="#8b0000">causes</text>
</g>
<!-- unknown.lines&#45;&gt;rel_0 -->
<g id="edge8" class="edge">
<title>unknown.lines&#45;&gt;rel_0</title>
<path fill="none" stroke="#d46a6a" stroke-width="1.5" d="M54.67,-213C78.12,-213 112.49,-213 138.54,-213"/>
<polygon fill="#d46a6a" stroke="#d46a6a" stroke-width="1.5" points="138.51,-215.8 146.51,-213 138.51,-210.2 138.51,-215.8"/>
</g>
<!-- rel_3 -->
<g id="node13" class="node">
<title>rel_3</title>
<path fill="#f5b8b8" stroke="#d46a6a" stroke-width="1.2" d="M198.5,-166C198.5,-166 154,-166 154,-166 148,-166 142,-160 142,-154 142,-154 142,-142 142,-142 142,-136 148,-130 154,-130 154,-130 198.5,-130 198.5,-130 204.5,-130 210.5,-136 210.5,-142 210.5,-142 210.5,-154 210.5,-154 210.5,-160 204.5,-166 198.5,-166"/>
<text xml:space="preserve" text-anchor="middle" x="176.25" y="-144.5" font-family="Arial" font-size="10.00" fill="#8b0000">overwhelms</text>
</g>
<!-- unknown.lines&#45;&gt;rel_3 -->
<g id="edge14" class="edge">
<title>unknown.lines&#45;&gt;rel_3</title>
<path fill="none" stroke="#d46a6a" stroke-width="1.5" d="M54.77,-200.32C67.51,-194.35 82.99,-187.2 97,-181 108.38,-175.97 120.75,-170.66 132.24,-165.82"/>
<polygon fill="#d46a6a" stroke="#d46a6a" stroke-width="1.5" points="133.25,-168.43 139.54,-162.75 131.08,-163.27 133.25,-168.43"/>
</g>
<!-- furniture.legend -->
<g id="node2" class="node">
<title>furniture.legend</title>
<path fill="#b8e6b8" stroke="#2c3e50" stroke-width="1.8" d="M347.5,-166C347.5,-166 310.5,-166 310.5,-166 304.5,-166 298.5,-160 298.5,-154 298.5,-154 298.5,-142 298.5,-142 298.5,-136 304.5,-130 310.5,-130 310.5,-130 347.5,-130 347.5,-130 353.5,-130 359.5,-136 359.5,-142 359.5,-142 359.5,-154 359.5,-154 359.5,-160 353.5,-166 347.5,-166"/>
<text xml:space="preserve" text-anchor="middle" x="329" y="-144.5" font-family="Arial" font-size="10.00" fill="#1a1a1a">color code</text>
</g>
<!-- attr_2 -->
<g id="node7" class="node">
<title>attr_2</title>
<path fill="#c7b8e6" stroke="#7f8c8d" stroke-width="1.2" d="M551.25,-231C551.25,-231 414.5,-231 414.5,-231 408.5,-231 402.5,-225 402.5,-219 402.5,-219 402.5,-207 402.5,-207 402.5,-201 408.5,-195 414.5,-195 414.5,-195 551.25,-195 551.25,-195 557.25,-195 563.25,-201 563.25,-207 563.25,-207 563.25,-219 563.25,-219 563.25,-225 557.25,-231 551.25,-231"/>
<text xml:space="preserve" text-anchor="middle" x="482.88" y="-209.5" font-family="Arial" font-size="10.00" fill="#1a1a1a">(+) technically present but unclea</text>
</g>
<!-- furniture.legend&#45;&gt;attr_2 -->
<g id="edge3" class="edge">
<title>furniture.legend&#45;&gt;attr_2</title>
<path fill="none" stroke="#aaaaaa" d="M360.2,-148.76C373.17,-153.57 388.52,-160.5 402.5,-166.5 420.45,-174.2 440.9,-182.43 456.55,-190.58"/>
<polygon fill="#aaaaaa" stroke="#aaaaaa" points="455.17,-192.62 462.49,-193.85 457.53,-188.33 455.17,-192.62"/>
</g>
<!-- furniture.legend&#45;&gt;attr_2 -->
<g id="edge5" class="edge">
<title>furniture.legend&#45;&gt;attr_2</title>
<path fill="none" stroke="#aaaaaa" d="M346.04,-166.89C358.74,-175.55 377.19,-184.41 394.64,-192.09"/>
<polygon fill="#aaaaaa" stroke="#aaaaaa" points="393.26,-194.16 400.65,-194.7 395.21,-189.66 393.26,-194.16"/>
</g>
<!-- attr_3 -->
<g id="node8" class="node">
<title>attr_3</title>
<path fill="#c7b8e6" stroke="#7f8c8d" stroke-width="1.2" d="M540.38,-166C540.38,-166 425.38,-166 425.38,-166 419.38,-166 413.38,-160 413.38,-154 413.38,-154 413.38,-142 413.38,-142 413.38,-136 419.38,-130 425.38,-130 425.38,-130 540.38,-130 540.38,-130 546.38,-130 552.38,-136 552.38,-142 552.38,-142 552.38,-154 552.38,-154 552.38,-160 546.38,-166 540.38,-166"/>
<text xml:space="preserve" text-anchor="middle" x="482.88" y="-144.5" font-family="Arial" font-size="10.00" fill="#1a1a1a">(+) unintuitive color mapping</text>
</g>
<!-- furniture.legend&#45;&gt;attr_3 -->
<g id="edge4" class="edge">
<title>furniture.legend&#45;&gt;attr_3</title>
<path fill="none" stroke="#aaaaaa" d="M360.37,-139.1C373.27,-137.82 388.95,-137.16 404.71,-137.13"/>
<polygon fill="#aaaaaa" stroke="#aaaaaa" points="404.41,-139.57 411.43,-137.16 404.44,-134.67 404.41,-139.57"/>
</g>
<!-- furniture.legend&#45;&gt;attr_3 -->
<g id="edge6" class="edge">
<title>furniture.legend&#45;&gt;attr_3</title>
<path fill="none" stroke="#aaaaaa" d="M360.37,-156.9C373.27,-158.18 388.95,-158.84 404.71,-158.87"/>
<polygon fill="#aaaaaa" stroke="#aaaaaa" points="404.44,-161.33 411.43,-158.84 404.41,-156.43 404.44,-161.33"/>
</g>
<!-- rel_1 -->
<g id="node11" class="node">
<title>rel_1</title>
<path fill="#f5b8b8" stroke="#d46a6a" stroke-width="1.2" d="M508.12,-36C508.12,-36 457.62,-36 457.62,-36 451.62,-36 445.62,-30 445.62,-24 445.62,-24 445.62,-12 445.62,-12 445.62,-6 451.62,0 457.62,0 457.62,0 508.12,0 508.12,0 514.12,0 520.12,-6 520.12,-12 520.12,-12 520.12,-24 520.12,-24 520.12,-30 514.12,-36 508.12,-36"/>
<text xml:space="preserve" text-anchor="middle" x="482.88" y="-14.5" font-family="Arial" font-size="10.00" fill="#8b0000">fails to clarify</text>
</g>
<!-- furniture.legend&#45;&gt;rel_1 -->
<g id="edge10" class="edge">
<title>furniture.legend&#45;&gt;rel_1</title>
<path fill="none" stroke="#d46a6a" stroke-width="1.5" d="M339.93,-129.19C352.12,-107.69 374.63,-72.7 402.5,-51 412.34,-43.34 424.22,-37.16 435.76,-32.31"/>
<polygon fill="#d46a6a" stroke="#d46a6a" stroke-width="1.5" points="436.78,-34.92 443.2,-29.39 434.73,-29.71 436.78,-34.92"/>
</g>
<!-- rel_2 -->
<g id="node12" class="node">
<title>rel_2</title>
<path fill="#f5b8b8" stroke="#d46a6a" stroke-width="1.2" d="M525.38,-101C525.38,-101 440.38,-101 440.38,-101 434.38,-101 428.38,-95 428.38,-89 428.38,-89 428.38,-77 428.38,-77 428.38,-71 434.38,-65 440.38,-65 440.38,-65 525.38,-65 525.38,-65 531.38,-65 537.38,-71 537.38,-77 537.38,-77 537.38,-89 537.38,-89 537.38,-95 531.38,-101 525.38,-101"/>
<text xml:space="preserve" text-anchor="middle" x="482.88" y="-79.5" font-family="Arial" font-size="10.00" fill="#8b0000">insufficiently explains</text>
</g>
<!-- furniture.legend&#45;&gt;rel_2 -->
<g id="edge12" class="edge">
<title>furniture.legend&#45;&gt;rel_2</title>
<path fill="none" stroke="#d46a6a" stroke-width="1.5" d="M360.27,-134.46C373.25,-128.71 388.59,-121.96 402.5,-116 410.57,-112.54 419.13,-108.93 427.52,-105.41"/>
<polygon fill="#d46a6a" stroke="#d46a6a" stroke-width="1.5" points="428.49,-108.04 434.79,-102.38 426.33,-102.88 428.49,-108.04"/>
</g>
<!-- text.axis_label -->
<g id="node3" class="node">
<title>text.axis_label</title>
<path fill="#b8e6b8" stroke="#2c3e50" stroke-width="1.8" d="M345.62,-231C345.62,-231 312.38,-231 312.38,-231 306.38,-231 300.38,-225 300.38,-219 300.38,-219 300.38,-207 300.38,-207 300.38,-201 306.38,-195 312.38,-195 312.38,-195 345.62,-195 345.62,-195 351.62,-195 357.62,-201 357.62,-207 357.62,-207 357.62,-219 357.62,-219 357.62,-225 351.62,-231 345.62,-231"/>
<text xml:space="preserve" text-anchor="middle" x="329" y="-209.5" font-family="Arial" font-size="10.00" fill="#1a1a1a">axis label</text>
</g>
<!-- text.title -->
<g id="node4" class="node">
<title>text.title</title>
<path fill="#b8e6b8" stroke="#2c3e50" stroke-width="1.8" d="M648.25,-101C648.25,-101 618.25,-101 618.25,-101 612.25,-101 606.25,-95 606.25,-89 606.25,-89 606.25,-77 606.25,-77 606.25,-71 612.25,-65 618.25,-65 618.25,-65 648.25,-65 648.25,-65 654.25,-65 660.25,-71 660.25,-77 660.25,-77 660.25,-89 660.25,-89 660.25,-95 654.25,-101 648.25,-101"/>
<text xml:space="preserve" text-anchor="middle" x="633.25" y="-79.5" font-family="Arial" font-size="10.00" fill="#1a1a1a">title</text>
</g>
<!-- attr_4 -->
<g id="node9" class="node">
<title>attr_4</title>
<path fill="#c7b8e6" stroke="#7f8c8d" stroke-width="1.2" d="M819,-101C819,-101 715.25,-101 715.25,-101 709.25,-101 703.25,-95 703.25,-89 703.25,-89 703.25,-77 703.25,-77 703.25,-71 709.25,-65 715.25,-65 715.25,-65 819,-65 819,-65 825,-65 831,-71 831,-77 831,-77 831,-89 831,-89 831,-95 825,-101 819,-101"/>
<text xml:space="preserve" text-anchor="middle" x="767.12" y="-79.5" font-family="Arial" font-size="10.00" fill="#1a1a1a">(+) unclear subject matter</text>
</g>
<!-- text.title&#45;&gt;attr_4 -->
<g id="edge7" class="edge">
<title>text.title&#45;&gt;attr_4</title>
<path fill="none" stroke="#aaaaaa" d="M660.94,-83C670.78,-83 682.46,-83 694.4,-83"/>
<polygon fill="#aaaaaa" stroke="#aaaaaa" points="694.17,-85.45 701.17,-83 694.17,-80.55 694.17,-85.45"/>
</g>
<!-- rel_0&#45;&gt;text.axis_label -->
<g id="edge9" class="edge">
<title>rel_0&#45;&gt;text.axis_label</title>
<path fill="none" stroke="#d46a6a" stroke-width="1.5" d="M203.51,-213C227.19,-213 262.33,-213 289.24,-213"/>
<polygon fill="#d46a6a" stroke="#d46a6a" stroke-width="1.5" points="289.21,-215.8 297.21,-213 289.21,-210.2 289.21,-215.8"/>
</g>
<!-- rel_1&#45;&gt;unknown.lines -->
<g id="edge11" class="edge">
<title>rel_1&#45;&gt;unknown.lines</title>
<path fill="none" stroke="#d46a6a" stroke-width="1.5" d="M445.06,-19.12C372.31,-23 207.62,-40.18 97,-116 71.64,-133.38 52.46,-163.31 40.83,-185.34"/>
<polygon fill="#d46a6a" stroke="#d46a6a" stroke-width="1.5" points="38.47,-183.81 37.35,-192.22 43.46,-186.35 38.47,-183.81"/>
</g>
<!-- rel_2&#45;&gt;text.title -->
<g id="edge13" class="edge">
<title>rel_2&#45;&gt;text.title</title>
<path fill="none" stroke="#d46a6a" stroke-width="1.5" d="M537.86,-83C557.12,-83 578.34,-83 595.77,-83"/>
<polygon fill="#d46a6a" stroke="#d46a6a" stroke-width="1.5" points="595.29,-85.8 603.29,-83 595.29,-80.2 595.29,-85.8"/>
</g>
<!-- rel_3&#45;&gt;furniture.legend -->
<g id="edge15" class="edge">
<title>rel_3&#45;&gt;furniture.legend</title>
<path fill="none" stroke="#d46a6a" stroke-width="1.5" d="M211.08,-148C233.69,-148 263.55,-148 287.44,-148"/>
<polygon fill="#d46a6a" stroke="#d46a6a" stroke-width="1.5" points="287.34,-150.8 295.34,-148 287.34,-145.2 287.34,-150.8"/>
</g>
</g>
</svg>
