<?xml version="1.0" encoding="UTF-8" standalone="no"?>
<!DOCTYPE svg PUBLIC "-//W3C//DTD SVG 1.1//EN"
 "http://www.w3.org/Graphics/SVG/1.1/DTD/svg11.dtd">
<!-- Generated by graphviz version 14.1.5 (20260411.2331)
 -->
<!-- Title: VisJ.1197.5(4).png Pages: 1 -->
<svg width="843pt" height="440pt"
 viewBox="0.00 0.00 843.00 440.00" xmlns="http://www.w3.org/2000/svg" xmlns:xlink="http://www.w3.org/1999/xlink">
<g id="graph0" class="graph" transform="scale(1 1) rotate(0) translate(4 436.25)">
<title>VisJ.1197.5(4).png</title>
<polygon fill="white" stroke="none" points="-4,4 -4,-436.25 838.75,-436.25 838.75,4 -4,4"/>
<text xml:space="preserve" text-anchor="start" x="358.88" y="-411.95" font-family="Arial" font-weight="bold" font-size="14.00">VisJ.1197.5(4).png</text>
<text xml:space="preserve" text-anchor="start" x="371.25" y="-392" font-family="Arial" font-size="11.00">Glyph &#160;| &#160;VC = 0.72</text>
<path fill="#b8e6b8" stroke="none" d="M208,-367C208,-367 216,-367 216,-367 219,-367 222,-370 222,-373 222,-373 222,-379 222,-379 222,-382 219,-385 216,-385 216,-385 208,-385 208,-385 205,-385 202,-382 202,-379 202,-379 202,-373 202,-373 202,-370 205,-367 208,-367"/>
<path fill="none" stroke="black" d="M208,-367C208,-367 216,-367 216,-367 219,-367 222,-370 222,-373 222,-373 222,-379 222,-379 222,-382 219,-385 216,-385 216,-385 208,-385 208,-385 205,-385 202,-382 202,-379 202,-379 202,-373 202,-373 202,-370 205,-367 208,-367"/>
<text xml:space="preserve" text-anchor="start" x="210.5" y="-372.25" font-family="Arial" font-size="10.00"> </text>
<text xml:space="preserve" text-anchor="start" x="226" y="-372.25" font-family="Arial" font-size="10.00">Object</text>
<path fill="#c7b8e6" stroke="none" d="M264.5,-367C264.5,-367 272.5,-367 272.5,-367 275.5,-367 278.5,-370 278.5,-373 278.5,-373 278.5,-379 278.5,-379 278.5,-382 275.5,-385 272.5,-385 272.5,-385 264.5,-385 264.5,-385 261.5,-385 258.5,-382 258.5,-379 258.5,-379 258.5,-373 258.5,-373 258.5,-370 261.5,-367 264.5,-367"/>
<path fill="none" stroke="black" d="M264.5,-367C264.5,-367 272.5,-367 272.5,-367 275.5,-367 278.5,-370 278.5,-373 278.5,-373 278.5,-379 278.5,-379 278.5,-382 275.5,-385 272.5,-385 272.5,-385 264.5,-385 264.5,-385 261.5,-385 258.5,-382 258.5,-379 258.5,-379 258.5,-373 258.5,-373 258.5,-370 261.5,-367 264.5,-367"/>
<text xml:space="preserve" text-anchor="start" x="267" y="-372.25" font-family="Arial" font-size="10.00"> </text>
<text xml:space="preserve" text-anchor="start" x="282.5" y="-372.25" font-family="Arial" font-size="10.00">Attribute</text>
<path fill="#f5b8b8" stroke="none" d="M329.25,-367C329.25,-367 337.25,-367 337.25,-367 340.25,-367 343.25,-370 343.25,-373 343.25,-373 343.25,-379 343.25,-379 343.25,-382 340.25,-385 337.25,-385 337.25,-385 329.25,-385 329.25,-385 326.25,-385 323.25,-382 323.25,-379 323.25,-379 323.25,-373 323.25,-373 323.25,-370 326.25,-367 329.25,-367"/>
<path fill="none" stroke="black" d="M329.25,-367C329.25,-367 337.25,-367 337.25,-367 340.25,-367 343.25,-370 343.25,-373 343.25,-373 343.25,-379 343.25,-379 343.25,-382 340.25,-385 337.25,-385 337.25,-385 329.25,-385 329.25,-385 326.25,-385 323.25,-382 323.25,-379 323.25,-379 323.25,-373 323.25,-373 323.25,-370 326.25,-367 329.25,-367"/>
<text xml:space="preserve" text-anchor="start" x="331.75" y="-372.25" font-family="Arial" font-size="10.00"> </text>
<text xml:space="preserve" text-anchor="start" x="347.25" y="-372.25" font-family="Arial" font-size="10.00">Relationship</text>
<text xml:space="preserve" text-anchor="start" x="407.25" y="-373.5" font-family="Arial" font-weight="bold" font-size="10.00">(+)</text>
<text xml:space="preserve" text-anchor="start" x="419.25" y="-373.5" font-family="Arial" font-size="10.00"> increases complexity</text>
<text xml:space="preserve" text-anchor="start" x="520.5" y="-373.5" font-family="Arial" font-weight="bold" font-size="10.00">(−)</text>
<text xml:space="preserve" text-anchor="start" x="532.5" y="-373.5" font-family="Arial" font-size="10.00"> decreases complexity</text>
<!-- unknown.glyph -->
<g id="node1" class="node">
<title>unknown.glyph</title>
<path fill="#b8e6b8" stroke="#2c3e50" stroke-width="1.8" d="M348.25,-198C348.25,-198 318.25,-198 318.25,-198 312.25,-198 306.25,-192 306.25,-186 306.25,-186 306.25,-174 306.25,-174 306.25,-168 312.25,-162 318.25,-162 318.25,-162 348.25,-162 348.25,-162 354.25,-162 360.25,-168 360.25,-174 360.25,-174 360.25,-186 360.25,-186 360.25,-192 354.25,-198 348.25,-198"/>
<text xml:space="preserve" text-anchor="middle" x="333.25" y="-176.5" font-family="Arial" font-size="10.00" fill="#1a1a1a">glyph</text>
</g>
<!-- attr_1 -->
<g id="node6" class="node">
<title>attr_1</title>
<path fill="#c7b8e6" stroke="#7f8c8d" stroke-width="1.2" d="M530.25,-361C530.25,-361 418.25,-361 418.25,-361 412.25,-361 406.25,-355 406.25,-349 406.25,-349 406.25,-337 406.25,-337 406.25,-331 412.25,-325 418.25,-325 418.25,-325 530.25,-325 530.25,-325 536.25,-325 542.25,-331 542.25,-337 542.25,-337 542.25,-349 542.25,-349 542.25,-355 536.25,-361 530.25,-361"/>
<text xml:space="preserve" text-anchor="middle" x="474.25" y="-339.5" font-family="Arial" font-size="10.00" fill="#1a1a1a">(+) non decodable encoding</text>
</g>
<!-- unknown.glyph&#45;&gt;attr_1 -->
<g id="edge1" class="edge">
<title>unknown.glyph&#45;&gt;attr_1</title>
<path fill="none" stroke="#aaaaaa" d="M339.69,-198.45C348.72,-226.21 369.26,-278.86 403.25,-311 406.8,-314.35 410.75,-317.4 414.93,-320.16"/>
<polygon fill="#aaaaaa" stroke="#aaaaaa" points="413.6,-322.22 420.85,-323.75 416.14,-318.03 413.6,-322.22"/>
</g>
<!-- attr_2 -->
<g id="node7" class="node">
<title>attr_2</title>
<path fill="#c7b8e6" stroke="#7f8c8d" stroke-width="1.2" d="M522.75,-296C522.75,-296 425.75,-296 425.75,-296 419.75,-296 413.75,-290 413.75,-284 413.75,-284 413.75,-272 413.75,-272 413.75,-266 419.75,-260 425.75,-260 425.75,-260 522.75,-260 522.75,-260 528.75,-260 534.75,-266 534.75,-272 534.75,-272 534.75,-284 534.75,-284 534.75,-290 528.75,-296 522.75,-296"/>
<text xml:space="preserve" text-anchor="middle" x="474.25" y="-274.5" font-family="Arial" font-size="10.00" fill="#1a1a1a">(+) unfamiliar glyph type</text>
</g>
<!-- unknown.glyph&#45;&gt;attr_2 -->
<g id="edge2" class="edge">
<title>unknown.glyph&#45;&gt;attr_2</title>
<path fill="none" stroke="#aaaaaa" d="M350.7,-198.85C363.86,-213.13 383.36,-232.51 403.25,-246 408.38,-249.48 413.95,-252.75 419.64,-255.77"/>
<polygon fill="#aaaaaa" stroke="#aaaaaa" points="418.17,-257.78 425.52,-258.78 420.4,-253.41 418.17,-257.78"/>
</g>
<!-- attr_6 -->
<g id="node8" class="node">
<title>attr_6</title>
<path fill="#c7b8e6" stroke="#7f8c8d" stroke-width="1.2" d="M531.75,-231C531.75,-231 416.75,-231 416.75,-231 410.75,-231 404.75,-225 404.75,-219 404.75,-219 404.75,-207 404.75,-207 404.75,-201 410.75,-195 416.75,-195 416.75,-195 531.75,-195 531.75,-195 537.75,-195 543.75,-201 543.75,-207 543.75,-207 543.75,-219 543.75,-219 543.75,-225 537.75,-231 531.75,-231"/>
<text xml:space="preserve" text-anchor="middle" x="474.25" y="-209.5" font-family="Arial" font-size="10.00" fill="#1a1a1a">(+) high interpretive difficulty</text>
</g>
<!-- unknown.glyph&#45;&gt;attr_6 -->
<g id="edge3" class="edge">
<title>unknown.glyph&#45;&gt;attr_6</title>
<path fill="none" stroke="#aaaaaa" d="M361.05,-186.36C371.37,-188.81 383.75,-191.75 396.45,-194.77"/>
<polygon fill="#aaaaaa" stroke="#aaaaaa" points="395.54,-197.07 402.91,-196.3 396.67,-192.3 395.54,-197.07"/>
</g>
<!-- rel_1 -->
<g id="node14" class="node">
<title>rel_1</title>
<path fill="#f5b8b8" stroke="#d46a6a" stroke-width="1.2" d="M496.5,-166C496.5,-166 452,-166 452,-166 446,-166 440,-160 440,-154 440,-154 440,-142 440,-142 440,-136 446,-130 452,-130 452,-130 496.5,-130 496.5,-130 502.5,-130 508.5,-136 508.5,-142 508.5,-142 508.5,-154 508.5,-154 508.5,-160 502.5,-166 496.5,-166"/>
<text xml:space="preserve" text-anchor="middle" x="474.25" y="-144.5" font-family="Arial" font-size="10.00" fill="#8b0000">overwhelms</text>
</g>
<!-- unknown.glyph&#45;&gt;rel_1 -->
<g id="edge10" class="edge">
<title>unknown.glyph&#45;&gt;rel_1</title>
<path fill="none" stroke="#d46a6a" stroke-width="1.5" d="M361.05,-173.83C380.48,-169.36 407.18,-163.21 429.66,-158.04"/>
<polygon fill="#d46a6a" stroke="#d46a6a" stroke-width="1.5" points="430.27,-160.77 437.43,-156.25 429.01,-155.31 430.27,-160.77"/>
</g>
<!-- rel_3 -->
<g id="node16" class="node">
<title>rel_3</title>
<path fill="#f5b8b8" stroke="#d46a6a" stroke-width="1.2" d="M516,-101C516,-101 432.5,-101 432.5,-101 426.5,-101 420.5,-95 420.5,-89 420.5,-89 420.5,-77 420.5,-77 420.5,-71 426.5,-65 432.5,-65 432.5,-65 516,-65 516,-65 522,-65 528,-71 528,-77 528,-77 528,-89 528,-89 528,-95 522,-101 516,-101"/>
<text xml:space="preserve" text-anchor="middle" x="474.25" y="-79.5" font-family="Arial" font-size="10.00" fill="#8b0000">requires expertise for</text>
</g>
<!-- unknown.glyph&#45;&gt;rel_3 -->
<g id="edge14" class="edge">
<title>unknown.glyph&#45;&gt;rel_3</title>
<path fill="none" stroke="#d46a6a" stroke-width="1.5" d="M351.4,-161.24C364.63,-147.52 383.89,-129.08 403.25,-116 408.44,-112.5 414.06,-109.17 419.77,-106.08"/>
<polygon fill="#d46a6a" stroke="#d46a6a" stroke-width="1.5" points="420.96,-108.62 426.78,-102.47 418.39,-103.65 420.96,-108.62"/>
</g>
<!-- unknown.blob_shape -->
<g id="node2" class="node">
<title>unknown.blob_shape</title>
<path fill="#b8e6b8" stroke="#2c3e50" stroke-width="1.8" d="M51.25,-222C51.25,-222 12,-222 12,-222 6,-222 0,-216 0,-210 0,-210 0,-198 0,-198 0,-192 6,-186 12,-186 12,-186 51.25,-186 51.25,-186 57.25,-186 63.25,-192 63.25,-198 63.25,-198 63.25,-210 63.25,-210 63.25,-216 57.25,-222 51.25,-222"/>
<text xml:space="preserve" text-anchor="middle" x="31.62" y="-200.5" font-family="Arial" font-size="10.00" fill="#1a1a1a">blob shape</text>
</g>
<!-- attr_0 -->
<g id="node9" class="node">
<title>attr_0</title>
<path fill="#c7b8e6" stroke="#7f8c8d" stroke-width="1.2" d="M251.25,-320C251.25,-320 118.25,-320 118.25,-320 112.25,-320 106.25,-314 106.25,-308 106.25,-308 106.25,-296 106.25,-296 106.25,-290 112.25,-284 118.25,-284 118.25,-284 251.25,-284 251.25,-284 257.25,-284 263.25,-290 263.25,-296 263.25,-296 263.25,-308 263.25,-308 263.25,-314 257.25,-320 251.25,-320"/>
<text xml:space="preserve" text-anchor="middle" x="184.75" y="-298.5" font-family="Arial" font-size="10.00" fill="#1a1a1a">(+) unrecognizable abstract form</text>
</g>
<!-- unknown.blob_shape&#45;&gt;attr_0 -->
<g id="edge4" class="edge">
<title>unknown.blob_shape&#45;&gt;attr_0</title>
<path fill="none" stroke="#aaaaaa" d="M49.97,-222.7C64.07,-237.07 85.03,-256.66 106.25,-270 112.01,-273.62 118.24,-276.98 124.59,-280.06"/>
<polygon fill="#aaaaaa" stroke="#aaaaaa" points="123.33,-282.18 130.71,-282.91 125.4,-277.74 123.33,-282.18"/>
</g>
<!-- attr_5 -->
<g id="node10" class="node">
<title>attr_5</title>
<path fill="#c7b8e6" stroke="#7f8c8d" stroke-width="1.2" d="M243.75,-255C243.75,-255 125.75,-255 125.75,-255 119.75,-255 113.75,-249 113.75,-243 113.75,-243 113.75,-231 113.75,-231 113.75,-225 119.75,-219 125.75,-219 125.75,-219 243.75,-219 243.75,-219 249.75,-219 255.75,-225 255.75,-231 255.75,-231 255.75,-243 255.75,-243 255.75,-249 249.75,-255 243.75,-255"/>
<text xml:space="preserve" text-anchor="middle" x="184.75" y="-233.5" font-family="Arial" font-size="10.00" fill="#1a1a1a">(+) visually disordered marks</text>
</g>
<!-- unknown.blob_shape&#45;&gt;attr_5 -->
<g id="edge5" class="edge">
<title>unknown.blob_shape&#45;&gt;attr_5</title>
<path fill="none" stroke="#aaaaaa" d="M63.94,-210.84C76.05,-213.48 90.5,-216.64 105.1,-219.83"/>
<polygon fill="#aaaaaa" stroke="#aaaaaa" points="104.38,-222.18 111.74,-221.28 105.42,-217.39 104.38,-222.18"/>
</g>
<!-- rel_0 -->
<g id="node13" class="node">
<title>rel_0</title>
<path fill="#f5b8b8" stroke="#d46a6a" stroke-width="1.2" d="M200.62,-190C200.62,-190 168.88,-190 168.88,-190 162.88,-190 156.88,-184 156.88,-178 156.88,-178 156.88,-166 156.88,-166 156.88,-160 162.88,-154 168.88,-154 168.88,-154 200.62,-154 200.62,-154 206.62,-154 212.62,-160 212.62,-166 212.62,-166 212.62,-178 212.62,-178 212.62,-184 206.62,-190 200.62,-190"/>
<text xml:space="preserve" text-anchor="middle" x="184.75" y="-168.5" font-family="Arial" font-size="10.00" fill="#8b0000">obscures</text>
</g>
<!-- unknown.blob_shape&#45;&gt;rel_0 -->
<g id="edge8" class="edge">
<title>unknown.blob_shape&#45;&gt;rel_0</title>
<path fill="none" stroke="#d46a6a" stroke-width="1.5" d="M63.94,-197.37C87.95,-192.29 121.17,-185.25 146.54,-179.88"/>
<polygon fill="#d46a6a" stroke="#d46a6a" stroke-width="1.5" points="147.06,-182.63 154.31,-178.23 145.9,-177.15 147.06,-182.63"/>
</g>
<!-- rel_2 -->
<g id="node15" class="node">
<title>rel_2</title>
<path fill="#f5b8b8" stroke="#d46a6a" stroke-width="1.2" d="M238.88,-109C238.88,-109 130.62,-109 130.62,-109 124.62,-109 118.62,-103 118.62,-97 118.62,-97 118.62,-85 118.62,-85 118.62,-79 124.62,-73 130.62,-73 130.62,-73 238.88,-73 238.88,-73 244.88,-73 250.88,-79 250.88,-85 250.88,-85 250.88,-97 250.88,-97 250.88,-103 244.88,-109 238.88,-109"/>
<text xml:space="preserve" text-anchor="middle" x="184.75" y="-87.5" font-family="Arial" font-size="10.00" fill="#8b0000">lacks correspondence with</text>
</g>
<!-- unknown.blob_shape&#45;&gt;rel_2 -->
<g id="edge12" class="edge">
<title>unknown.blob_shape&#45;&gt;rel_2</title>
<path fill="none" stroke="#d46a6a" stroke-width="1.5" d="M52.56,-185.21C66.99,-171.97 87.23,-154.15 106.25,-140 117.97,-131.28 131.24,-122.52 143.44,-114.87"/>
<polygon fill="#d46a6a" stroke="#d46a6a" stroke-width="1.5" points="144.85,-117.29 150.18,-110.7 141.9,-112.53 144.85,-117.29"/>
</g>
<!-- text.label -->
<g id="node3" class="node">
<title>text.label</title>
<path fill="#b8e6b8" stroke="#2c3e50" stroke-width="1.8" d="M630.25,-166C630.25,-166 600.25,-166 600.25,-166 594.25,-166 588.25,-160 588.25,-154 588.25,-154 588.25,-142 588.25,-142 588.25,-136 594.25,-130 600.25,-130 600.25,-130 630.25,-130 630.25,-130 636.25,-130 642.25,-136 642.25,-142 642.25,-142 642.25,-154 642.25,-154 642.25,-160 636.25,-166 630.25,-166"/>
<text xml:space="preserve" text-anchor="middle" x="615.25" y="-144.5" font-family="Arial" font-size="10.00" fill="#1a1a1a">label</text>
</g>
<!-- attr_3 -->
<g id="node11" class="node">
<title>attr_3</title>
<path fill="#c7b8e6" stroke="#7f8c8d" stroke-width="1.2" d="M822.75,-166C822.75,-166 697.25,-166 697.25,-166 691.25,-166 685.25,-160 685.25,-154 685.25,-154 685.25,-142 685.25,-142 685.25,-136 691.25,-130 697.25,-130 697.25,-130 822.75,-130 822.75,-130 828.75,-130 834.75,-136 834.75,-142 834.75,-142 834.75,-154 834.75,-154 834.75,-160 828.75,-166 822.75,-166"/>
<text xml:space="preserve" text-anchor="middle" x="760" y="-144.5" font-family="Arial" font-size="10.00" fill="#1a1a1a">(+) absent or insufficient labels</text>
</g>
<!-- text.label&#45;&gt;attr_3 -->
<g id="edge6" class="edge">
<title>text.label&#45;&gt;attr_3</title>
<path fill="none" stroke="#aaaaaa" d="M643.1,-148C652.81,-148 664.36,-148 676.33,-148"/>
<polygon fill="#aaaaaa" stroke="#aaaaaa" points="676.17,-150.45 683.17,-148 676.17,-145.55 676.17,-150.45"/>
</g>
<!-- furniture.legend -->
<g id="node4" class="node">
<title>furniture.legend</title>
<path fill="#b8e6b8" stroke="#2c3e50" stroke-width="1.8" d="M348.25,-77C348.25,-77 318.25,-77 318.25,-77 312.25,-77 306.25,-71 306.25,-65 306.25,-65 306.25,-53 306.25,-53 306.25,-47 312.25,-41 318.25,-41 318.25,-41 348.25,-41 348.25,-41 354.25,-41 360.25,-47 360.25,-53 360.25,-53 360.25,-65 360.25,-65 360.25,-71 354.25,-77 348.25,-77"/>
<text xml:space="preserve" text-anchor="middle" x="333.25" y="-55.5" font-family="Arial" font-size="10.00" fill="#1a1a1a">legend</text>
</g>
<!-- attr_4 -->
<g id="node12" class="node">
<title>attr_4</title>
<path fill="#c7b8e6" stroke="#7f8c8d" stroke-width="1.2" d="M533.25,-36C533.25,-36 415.25,-36 415.25,-36 409.25,-36 403.25,-30 403.25,-24 403.25,-24 403.25,-12 403.25,-12 403.25,-6 409.25,0 415.25,0 415.25,0 533.25,0 533.25,0 539.25,0 545.25,-6 545.25,-12 545.25,-12 545.25,-24 545.25,-24 545.25,-30 539.25,-36 533.25,-36"/>
<text xml:space="preserve" text-anchor="middle" x="474.25" y="-14.5" font-family="Arial" font-size="10.00" fill="#1a1a1a">(+) missing or unclear legend</text>
</g>
<!-- furniture.legend&#45;&gt;attr_4 -->
<g id="edge7" class="edge">
<title>furniture.legend&#45;&gt;attr_4</title>
<path fill="none" stroke="#aaaaaa" d="M361.05,-51.09C372.9,-47.6 387.45,-43.31 402.1,-38.99"/>
<polygon fill="#aaaaaa" stroke="#aaaaaa" points="402.76,-41.35 408.78,-37.02 401.37,-36.65 402.76,-41.35"/>
</g>
<!-- text.title -->
<g id="node5" class="node">
<title>text.title</title>
<path fill="#b8e6b8" stroke="#2c3e50" stroke-width="1.8" d="M630.25,-101C630.25,-101 600.25,-101 600.25,-101 594.25,-101 588.25,-95 588.25,-89 588.25,-89 588.25,-77 588.25,-77 588.25,-71 594.25,-65 600.25,-65 600.25,-65 630.25,-65 630.25,-65 636.25,-65 642.25,-71 642.25,-77 642.25,-77 642.25,-89 642.25,-89 642.25,-95 636.25,-101 630.25,-101"/>
<text xml:space="preserve" text-anchor="middle" x="615.25" y="-79.5" font-family="Arial" font-size="10.00" fill="#1a1a1a">title</text>
</g>
<!-- rel_0&#45;&gt;unknown.glyph -->
<g id="edge9" class="edge">
<title>rel_0&#45;&gt;unknown.glyph</title>
<path fill="none" stroke="#d46a6a" stroke-width="1.5" d="M212.96,-173.49C236.23,-174.76 269.93,-176.6 295.58,-178"/>
<polygon fill="#d46a6a" stroke="#d46a6a" stroke-width="1.5" points="295.27,-180.78 303.41,-178.43 295.58,-175.19 295.27,-180.78"/>
</g>
<!-- rel_1&#45;&gt;text.label -->
<g id="edge11" class="edge">
<title>rel_1&#45;&gt;text.label</title>
<path fill="none" stroke="#d46a6a" stroke-width="1.5" d="M508.9,-148C529.52,-148 555.94,-148 577.16,-148"/>
<polygon fill="#d46a6a" stroke="#d46a6a" stroke-width="1.5" points="577.15,-150.8 585.15,-148 577.15,-145.2 577.15,-150.8"/>
</g>
<!-- rel_2&#45;&gt;furniture.legend -->
<g id="edge13" class="edge">
<title>rel_2&#45;&gt;furniture.legend</title>
<path fill="none" stroke="#d46a6a" stroke-width="1.5" d="M251.29,-76.68C266.59,-73.34 282.34,-69.9 295.84,-66.95"/>
<polygon fill="#d46a6a" stroke="#d46a6a" stroke-width="1.5" points="296.24,-69.73 303.45,-65.29 295.04,-64.26 296.24,-69.73"/>
</g>
<!-- rel_3&#45;&gt;text.title -->
<g id="edge15" class="edge">
<title>rel_3&#45;&gt;text.title</title>
<path fill="none" stroke="#d46a6a" stroke-width="1.5" d="M528.59,-83C545.02,-83 562.71,-83 577.73,-83"/>
<polygon fill="#d46a6a" stroke="#d46a6a" stroke-width="1.5" points="577.38,-85.8 585.38,-83 577.38,-80.2 577.38,-85.8"/>
</g>
</g>
</svg>
