<?xml version="1.0" encoding="UTF-8" standalone="no"?>
<!DOCTYPE svg PUBLIC "-//W3C//DTD SVG 1.1//EN"
 "http://www.w3.org/Graphics/SVG/1.1/DTD/svg11.dtd">
<!-- Generated by graphviz version 14.1.5 (20260411.2331)
 -->
<!-- Title: VisJ.1949.18(3).png Pages: 1 -->
<svg width="857pt" height="407pt"
 viewBox="0.00 0.00 857.00 407.00" xmlns="http://www.w3.org/2000/svg" xmlns:xlink="http://www.w3.org/1999/xlink">
<g id="graph0" class="graph" transform="scale(1 1) rotate(0) translate(4 403.25)">
<title>VisJ.1949.18(3).png</title>
<polygon fill="white" stroke="none" points="-4,4 -4,-403.25 852.5,-403.25 852.5,4 -4,4"/>
<text xml:space="preserve" text-anchor="start" x="361.62" y="-378.95" font-family="Arial" font-weight="bold" font-size="14.00">VisJ.1949.18(3).png</text>
<text xml:space="preserve" text-anchor="start" x="378.12" y="-359" font-family="Arial" font-size="11.00">Glyph &#160;| &#160;VC = 0.57</text>
<path fill="#b8e6b8" stroke="none" d="M214.88,-334C214.88,-334 222.88,-334 222.88,-334 225.88,-334 228.88,-337 228.88,-340 228.88,-340 228.88,-346 228.88,-346 228.88,-349 225.88,-352 222.88,-352 222.88,-352 214.88,-352 214.88,-352 211.88,-352 208.88,-349 208.88,-346 208.88,-346 208.88,-340 208.88,-340 208.88,-337 211.88,-334 214.88,-334"/>
<path fill="none" stroke="black" d="M214.88,-334C214.88,-334 222.88,-334 222.88,-334 225.88,-334 228.88,-337 228.88,-340 228.88,-340 228.88,-346 228.88,-346 228.88,-349 225.88,-352 222.88,-352 222.88,-352 214.88,-352 214.88,-352 211.88,-352 208.88,-349 208.88,-346 208.88,-346 208.88,-340 208.88,-340 208.88,-337 211.88,-334 214.88,-334"/>
<text xml:space="preserve" text-anchor="start" x="217.38" y="-339.25" font-family="Arial" font-size="10.00"> </text>
<text xml:space="preserve" text-anchor="start" x="232.88" y="-339.25" font-family="Arial" font-size="10.00">Object</text>
<path fill="#c7b8e6" stroke="none" d="M271.38,-334C271.38,-334 279.38,-334 279.38,-334 282.38,-334 285.38,-337 285.38,-340 285.38,-340 285.38,-346 285.38,-346 285.38,-349 282.38,-352 279.38,-352 279.38,-352 271.38,-352 271.38,-352 268.38,-352 265.38,-349 265.38,-346 265.38,-346 265.38,-340 265.38,-340 265.38,-337 268.38,-334 271.38,-334"/>
<path fill="none" stroke="black" d="M271.38,-334C271.38,-334 279.38,-334 279.38,-334 282.38,-334 285.38,-337 285.38,-340 285.38,-340 285.38,-346 285.38,-346 285.38,-349 282.38,-352 279.38,-352 279.38,-352 271.38,-352 271.38,-352 268.38,-352 265.38,-349 265.38,-346 265.38,-346 265.38,-340 265.38,-340 265.38,-337 268.38,-334 271.38,-334"/>
<text xml:space="preserve" text-anchor="start" x="273.88" y="-339.25" font-family="Arial" font-size="10.00"> </text>
<text xml:space="preserve" text-anchor="start" x="289.38" y="-339.25" font-family="Arial" font-size="10.00">Attribute</text>
<path fill="#f5b8b8" stroke="none" d="M336.12,-334C336.12,-334 344.12,-334 344.12,-334 347.12,-334 350.12,-337 350.12,-340 350.12,-340 350.12,-346 350.12,-346 350.12,-349 347.12,-352 344.12,-352 344.12,-352 336.12,-352 336.12,-352 333.12,-352 330.12,-349 330.12,-346 330.12,-346 330.12,-340 330.12,-340 330.12,-337 333.12,-334 336.12,-334"/>
<path fill="none" stroke="black" d="M336.12,-334C336.12,-334 344.12,-334 344.12,-334 347.12,-334 350.12,-337 350.12,-340 350.12,-340 350.12,-346 350.12,-346 350.12,-349 347.12,-352 344.12,-352 344.12,-352 336.12,-352 336.12,-352 333.12,-352 330.12,-349 330.12,-346 330.12,-346 330.12,-340 330.12,-340 330.12,-337 333.12,-334 336.12,-334"/>
<text xml:space="preserve" text-anchor="start" x="338.62" y="-339.25" font-family="Arial" font-size="10.00"> </text>
<text xml:space="preserve" text-anchor="start" x="354.12" y="-339.25" font-family="Arial" font-size="10.00">Relationship</text>
<text xml:space="preserve" text-anchor="start" x="414.12" y="-340.5" font-family="Arial" font-weight="bold" font-size="10.00">(+)</text>
<text xml:space="preserve" text-anchor="start" x="426.12" y="-340.5" font-family="Arial" font-size="10.00"> increases complexity</text>
<text xml:space="preserve" text-anchor="start" x="527.38" y="-340.5" font-family="Arial" font-weight="bold" font-size="10.00">(−)</text>
<text xml:space="preserve" text-anchor="start" x="539.38" y="-340.5" font-family="Arial" font-size="10.00"> decreases complexity</text>
<!-- unknown.background -->
<g id="node1" class="node">
<title>unknown.background</title>
<path fill="#b8e6b8" stroke="#2c3e50" stroke-width="1.8" d="M54.25,-101C54.25,-101 12,-101 12,-101 6,-101 0,-95 0,-89 0,-89 0,-77 0,-77 0,-71 6,-65 12,-65 12,-65 54.25,-65 54.25,-65 60.25,-65 66.25,-71 66.25,-77 66.25,-77 66.25,-89 66.25,-89 66.25,-95 60.25,-101 54.25,-101"/>
<text xml:space="preserve" text-anchor="middle" x="33.12" y="-79.5" font-family="Arial" font-size="10.00" fill="#1a1a1a">background</text>
</g>
<!-- attr_0 -->
<g id="node7" class="node">
<title>attr_0</title>
<path fill="#c7b8e6" stroke="#7f8c8d" stroke-width="1.2" d="M223.5,-166C223.5,-166 121.25,-166 121.25,-166 115.25,-166 109.25,-160 109.25,-154 109.25,-154 109.25,-142 109.25,-142 109.25,-136 115.25,-130 121.25,-130 121.25,-130 223.5,-130 223.5,-130 229.5,-130 235.5,-136 235.5,-142 235.5,-142 235.5,-154 235.5,-154 235.5,-160 229.5,-166 223.5,-166"/>
<text xml:space="preserve" text-anchor="middle" x="172.38" y="-144.5" font-family="Arial" font-size="10.00" fill="#1a1a1a">(−) white improves clarity</text>
</g>
<!-- unknown.background&#45;&gt;attr_0 -->
<g id="edge1" class="edge">
<title>unknown.background&#45;&gt;attr_0</title>
<path fill="none" stroke="#aaaaaa" d="M67,-98.57C84.22,-106.72 105.6,-116.85 124.52,-125.81"/>
<polygon fill="#aaaaaa" stroke="#aaaaaa" points="123.44,-128.01 130.81,-128.79 125.53,-123.58 123.44,-128.01"/>
</g>
<!-- rel_0 -->
<g id="node13" class="node">
<title>rel_0</title>
<path fill="#f5b8b8" stroke="#d46a6a" stroke-width="1.2" d="M214.12,-101C214.12,-101 130.62,-101 130.62,-101 124.62,-101 118.62,-95 118.62,-89 118.62,-89 118.62,-77 118.62,-77 118.62,-71 124.62,-65 130.62,-65 130.62,-65 214.12,-65 214.12,-65 220.12,-65 226.12,-71 226.12,-77 226.12,-77 226.12,-89 226.12,-89 226.12,-95 220.12,-101 214.12,-101"/>
<text xml:space="preserve" text-anchor="middle" x="172.38" y="-79.5" font-family="Arial" font-size="10.00" fill="#8b0000">enhances visibility of</text>
</g>
<!-- unknown.background&#45;&gt;rel_0 -->
<g id="edge7" class="edge">
<title>unknown.background&#45;&gt;rel_0</title>
<path fill="none" stroke="#d46a6a" stroke-width="1.5" d="M67,-83C79.32,-83 93.76,-83 107.92,-83"/>
<polygon fill="#d46a6a" stroke="#d46a6a" stroke-width="1.5" points="107.87,-85.8 115.87,-83 107.87,-80.2 107.87,-85.8"/>
</g>
<!-- rel_1 -->
<g id="node14" class="node">
<title>rel_1</title>
<path fill="#f5b8b8" stroke="#d46a6a" stroke-width="1.2" d="M214.12,-36C214.12,-36 130.62,-36 130.62,-36 124.62,-36 118.62,-30 118.62,-24 118.62,-24 118.62,-12 118.62,-12 118.62,-6 124.62,0 130.62,0 130.62,0 214.12,0 214.12,0 220.12,0 226.12,-6 226.12,-12 226.12,-12 226.12,-24 226.12,-24 226.12,-30 220.12,-36 214.12,-36"/>
<text xml:space="preserve" text-anchor="middle" x="172.38" y="-14.5" font-family="Arial" font-size="10.00" fill="#8b0000">enhances visibility of</text>
</g>
<!-- unknown.background&#45;&gt;rel_1 -->
<g id="edge9" class="edge">
<title>unknown.background&#45;&gt;rel_1</title>
<path fill="none" stroke="#d46a6a" stroke-width="1.5" d="M67,-67.43C83.76,-59.49 104.46,-49.69 123,-40.91"/>
<polygon fill="#d46a6a" stroke="#d46a6a" stroke-width="1.5" points="124.1,-43.49 130.13,-37.53 121.7,-38.43 124.1,-43.49"/>
</g>
<!-- furniture.legend -->
<g id="node2" class="node">
<title>furniture.legend</title>
<path fill="#b8e6b8" stroke="#2c3e50" stroke-width="1.8" d="M320.5,-36C320.5,-36 290.5,-36 290.5,-36 284.5,-36 278.5,-30 278.5,-24 278.5,-24 278.5,-12 278.5,-12 278.5,-6 284.5,0 290.5,0 290.5,0 320.5,0 320.5,0 326.5,0 332.5,-6 332.5,-12 332.5,-12 332.5,-24 332.5,-24 332.5,-30 326.5,-36 320.5,-36"/>
<text xml:space="preserve" text-anchor="middle" x="305.5" y="-14.5" font-family="Arial" font-size="10.00" fill="#1a1a1a">legend</text>
</g>
<!-- attr_1 -->
<g id="node8" class="node">
<title>attr_1</title>
<path fill="#c7b8e6" stroke="#7f8c8d" stroke-width="1.2" d="M507,-36C507,-36 413.75,-36 413.75,-36 407.75,-36 401.75,-30 401.75,-24 401.75,-24 401.75,-12 401.75,-12 401.75,-6 407.75,0 413.75,0 413.75,0 507,0 507,0 513,0 519,-6 519,-12 519,-12 519,-24 519,-24 519,-30 513,-36 507,-36"/>
<text xml:space="preserve" text-anchor="middle" x="460.38" y="-14.5" font-family="Arial" font-size="10.00" fill="#1a1a1a">(−) visible and readable</text>
</g>
<!-- furniture.legend&#45;&gt;attr_1 -->
<g id="edge2" class="edge">
<title>furniture.legend&#45;&gt;attr_1</title>
<path fill="none" stroke="#aaaaaa" d="M333.13,-18C349.74,-18 371.92,-18 393.05,-18"/>
<polygon fill="#aaaaaa" stroke="#aaaaaa" points="392.88,-20.45 399.88,-18 392.88,-15.55 392.88,-20.45"/>
</g>
<!-- unknown.numbers -->
<g id="node3" class="node">
<title>unknown.numbers</title>
<path fill="#b8e6b8" stroke="#2c3e50" stroke-width="1.8" d="M320.5,-101C320.5,-101 290.5,-101 290.5,-101 284.5,-101 278.5,-95 278.5,-89 278.5,-89 278.5,-77 278.5,-77 278.5,-71 284.5,-65 290.5,-65 290.5,-65 320.5,-65 320.5,-65 326.5,-65 332.5,-71 332.5,-77 332.5,-77 332.5,-89 332.5,-89 332.5,-95 326.5,-101 320.5,-101"/>
<text xml:space="preserve" text-anchor="middle" x="305.5" y="-79.5" font-family="Arial" font-size="10.00" fill="#1a1a1a">numbers</text>
</g>
<!-- structure.pattern -->
<g id="node4" class="node">
<title>structure.pattern</title>
<path fill="#b8e6b8" stroke="#2c3e50" stroke-width="1.8" d="M320.5,-231C320.5,-231 290.5,-231 290.5,-231 284.5,-231 278.5,-225 278.5,-219 278.5,-219 278.5,-207 278.5,-207 278.5,-201 284.5,-195 290.5,-195 290.5,-195 320.5,-195 320.5,-195 326.5,-195 332.5,-201 332.5,-207 332.5,-207 332.5,-219 332.5,-219 332.5,-225 326.5,-231 320.5,-231"/>
<text xml:space="preserve" text-anchor="middle" x="305.5" y="-209.5" font-family="Arial" font-size="10.00" fill="#1a1a1a">pattern</text>
</g>
<!-- attr_2 -->
<g id="node9" class="node">
<title>attr_2</title>
<path fill="#c7b8e6" stroke="#7f8c8d" stroke-width="1.2" d="M533.25,-328C533.25,-328 387.5,-328 387.5,-328 381.5,-328 375.5,-322 375.5,-316 375.5,-316 375.5,-304 375.5,-304 375.5,-298 381.5,-292 387.5,-292 387.5,-292 533.25,-292 533.25,-292 539.25,-292 545.25,-298 545.25,-304 545.25,-304 545.25,-316 545.25,-316 545.25,-322 539.25,-328 533.25,-328"/>
<text xml:space="preserve" text-anchor="middle" x="460.38" y="-306.5" font-family="Arial" font-size="10.00" fill="#1a1a1a">(+) mesmerizing ambiguous pattern</text>
</g>
<!-- structure.pattern&#45;&gt;attr_2 -->
<g id="edge3" class="edge">
<title>structure.pattern&#45;&gt;attr_2</title>
<path fill="none" stroke="#aaaaaa" d="M322.49,-231.62C335.56,-245.89 355.14,-265.24 375.5,-278 381.38,-281.69 387.76,-285.06 394.28,-288.12"/>
<polygon fill="#aaaaaa" stroke="#aaaaaa" points="393.21,-290.33 400.6,-290.95 395.21,-285.85 393.21,-290.33"/>
</g>
<!-- attr_5 -->
<g id="node10" class="node">
<title>attr_5</title>
<path fill="#c7b8e6" stroke="#7f8c8d" stroke-width="1.2" d="M522,-263C522,-263 398.75,-263 398.75,-263 392.75,-263 386.75,-257 386.75,-251 386.75,-251 386.75,-239 386.75,-239 386.75,-233 392.75,-227 398.75,-227 398.75,-227 522,-227 522,-227 528,-227 534,-233 534,-239 534,-239 534,-251 534,-251 534,-257 528,-263 522,-263"/>
<text xml:space="preserve" text-anchor="middle" x="460.38" y="-241.5" font-family="Arial" font-size="10.00" fill="#1a1a1a">(+) unfamiliar pattern structure</text>
</g>
<!-- structure.pattern&#45;&gt;attr_5 -->
<g id="edge4" class="edge">
<title>structure.pattern&#45;&gt;attr_5</title>
<path fill="none" stroke="#aaaaaa" d="M333.13,-218.57C345.92,-221.25 362.01,-224.62 378.38,-228.05"/>
<polygon fill="#aaaaaa" stroke="#aaaaaa" points="377.59,-230.38 384.94,-229.42 378.59,-225.59 377.59,-230.38"/>
</g>
<!-- rel_2 -->
<g id="node15" class="node">
<title>rel_2</title>
<path fill="#f5b8b8" stroke="#d46a6a" stroke-width="1.2" d="M514.5,-198C514.5,-198 406.25,-198 406.25,-198 400.25,-198 394.25,-192 394.25,-186 394.25,-186 394.25,-174 394.25,-174 394.25,-168 400.25,-162 406.25,-162 406.25,-162 514.5,-162 514.5,-162 520.5,-162 526.5,-168 526.5,-174 526.5,-174 526.5,-186 526.5,-186 526.5,-192 520.5,-198 514.5,-198"/>
<text xml:space="preserve" text-anchor="middle" x="460.38" y="-176.5" font-family="Arial" font-size="10.00" fill="#8b0000">increases cognitive load of</text>
</g>
<!-- structure.pattern&#45;&gt;rel_2 -->
<g id="edge11" class="edge">
<title>structure.pattern&#45;&gt;rel_2</title>
<path fill="none" stroke="#d46a6a" stroke-width="1.5" d="M333.13,-207.25C347.41,-204.17 365.81,-200.2 384.12,-196.25"/>
<polygon fill="#d46a6a" stroke="#d46a6a" stroke-width="1.5" points="384.5,-199.03 391.73,-194.6 383.32,-193.55 384.5,-199.03"/>
</g>
<!-- property.color -->
<g id="node5" class="node">
<title>property.color</title>
<path fill="#b8e6b8" stroke="#2c3e50" stroke-width="1.8" d="M48.12,-263C48.12,-263 18.12,-263 18.12,-263 12.12,-263 6.12,-257 6.12,-251 6.12,-251 6.12,-239 6.12,-239 6.12,-233 12.12,-227 18.12,-227 18.12,-227 48.12,-227 48.12,-227 54.12,-227 60.12,-233 60.12,-239 60.12,-239 60.12,-251 60.12,-251 60.12,-257 54.12,-263 48.12,-263"/>
<text xml:space="preserve" text-anchor="middle" x="33.12" y="-241.5" font-family="Arial" font-size="10.00" fill="#1a1a1a">color</text>
</g>
<!-- attr_3 -->
<g id="node11" class="node">
<title>attr_3</title>
<path fill="#c7b8e6" stroke="#7f8c8d" stroke-width="1.2" d="M216.75,-296C216.75,-296 128,-296 128,-296 122,-296 116,-290 116,-284 116,-284 116,-272 116,-272 116,-266 122,-260 128,-260 128,-260 216.75,-260 216.75,-260 222.75,-260 228.75,-266 228.75,-272 228.75,-272 228.75,-284 228.75,-284 228.75,-290 222.75,-296 216.75,-296"/>
<text xml:space="preserve" text-anchor="middle" x="172.38" y="-274.5" font-family="Arial" font-size="10.00" fill="#1a1a1a">(+) high color intensity</text>
</g>
<!-- property.color&#45;&gt;attr_3 -->
<g id="edge5" class="edge">
<title>property.color&#45;&gt;attr_3</title>
<path fill="none" stroke="#aaaaaa" d="M60.91,-251.44C74.26,-254.65 91.01,-258.68 107.4,-262.62"/>
<polygon fill="#aaaaaa" stroke="#aaaaaa" points="106.56,-264.94 113.94,-264.19 107.7,-260.17 106.56,-264.94"/>
</g>
<!-- rel_3 -->
<g id="node16" class="node">
<title>rel_3</title>
<path fill="#f5b8b8" stroke="#d46a6a" stroke-width="1.2" d="M198,-231C198,-231 146.75,-231 146.75,-231 140.75,-231 134.75,-225 134.75,-219 134.75,-219 134.75,-207 134.75,-207 134.75,-201 140.75,-195 146.75,-195 146.75,-195 198,-195 198,-195 204,-195 210,-201 210,-207 210,-207 210,-219 210,-219 210,-225 204,-231 198,-231"/>
<text xml:space="preserve" text-anchor="middle" x="172.38" y="-209.5" font-family="Arial" font-size="10.00" fill="#8b0000">contributes to</text>
</g>
<!-- property.color&#45;&gt;rel_3 -->
<g id="edge13" class="edge">
<title>property.color&#45;&gt;rel_3</title>
<path fill="none" stroke="#d46a6a" stroke-width="1.5" d="M60.91,-238.75C78.96,-234.55 103.26,-228.88 124.46,-223.94"/>
<polygon fill="#d46a6a" stroke="#d46a6a" stroke-width="1.5" points="124.9,-226.71 132.06,-222.17 123.63,-221.26 124.9,-226.71"/>
</g>
<!-- unknown.glyph_elements -->
<g id="node6" class="node">
<title>unknown.glyph_elements</title>
<path fill="#b8e6b8" stroke="#2c3e50" stroke-width="1.8" d="M658.25,-198C658.25,-198 600.25,-198 600.25,-198 594.25,-198 588.25,-192 588.25,-186 588.25,-186 588.25,-174 588.25,-174 588.25,-168 594.25,-162 600.25,-162 600.25,-162 658.25,-162 658.25,-162 664.25,-162 670.25,-168 670.25,-174 670.25,-174 670.25,-186 670.25,-186 670.25,-192 664.25,-198 658.25,-198"/>
<text xml:space="preserve" text-anchor="middle" x="629.25" y="-176.5" font-family="Arial" font-size="10.00" fill="#1a1a1a">glyph elements</text>
</g>
<!-- attr_4 -->
<g id="node12" class="node">
<title>attr_4</title>
<path fill="#c7b8e6" stroke="#7f8c8d" stroke-width="1.2" d="M836.5,-201C836.5,-201 725.25,-201 725.25,-201 719.25,-201 713.25,-195 713.25,-189 713.25,-189 713.25,-177 713.25,-177 713.25,-171 719.25,-165 725.25,-165 725.25,-165 836.5,-165 836.5,-165 842.5,-165 848.5,-171 848.5,-177 848.5,-177 848.5,-189 848.5,-189 848.5,-195 842.5,-201 836.5,-201"/>
<text xml:space="preserve" text-anchor="middle" x="780.88" y="-179.5" font-family="Arial" font-size="10.00" fill="#1a1a1a">(+) many discrete elements</text>
</g>
<!-- unknown.glyph_elements&#45;&gt;attr_4 -->
<g id="edge6" class="edge">
<title>unknown.glyph_elements&#45;&gt;attr_4</title>
<path fill="none" stroke="#aaaaaa" d="M671.14,-180.82C681.51,-181.03 692.99,-181.26 704.49,-181.49"/>
<polygon fill="#aaaaaa" stroke="#aaaaaa" points="704.28,-183.93 711.33,-181.63 704.38,-179.04 704.28,-183.93"/>
</g>
<!-- rel_4 -->
<g id="node17" class="node">
<title>rel_4</title>
<path fill="#f5b8b8" stroke="#d46a6a" stroke-width="1.2" d="M803.12,-136C803.12,-136 758.62,-136 758.62,-136 752.62,-136 746.62,-130 746.62,-124 746.62,-124 746.62,-112 746.62,-112 746.62,-106 752.62,-100 758.62,-100 758.62,-100 803.12,-100 803.12,-100 809.12,-100 815.12,-106 815.12,-112 815.12,-112 815.12,-124 815.12,-124 815.12,-130 809.12,-136 803.12,-136"/>
<text xml:space="preserve" text-anchor="middle" x="780.88" y="-114.5" font-family="Arial" font-size="10.00" fill="#8b0000">overwhelms</text>
</g>
<!-- unknown.glyph_elements&#45;&gt;rel_4 -->
<g id="edge15" class="edge">
<title>unknown.glyph_elements&#45;&gt;rel_4</title>
<path fill="none" stroke="#d46a6a" stroke-width="1.5" d="M671.14,-163.06C691.45,-154.64 716.01,-144.47 736.64,-135.92"/>
<polygon fill="#d46a6a" stroke="#d46a6a" stroke-width="1.5" points="737.69,-138.51 744.01,-132.86 735.55,-133.34 737.69,-138.51"/>
</g>
<!-- rel_0&#45;&gt;unknown.numbers -->
<g id="edge8" class="edge">
<title>rel_0&#45;&gt;unknown.numbers</title>
<path fill="none" stroke="#d46a6a" stroke-width="1.5" d="M226.71,-83C240.45,-83 254.93,-83 267.62,-83"/>
<polygon fill="#d46a6a" stroke="#d46a6a" stroke-width="1.5" points="267.54,-85.8 275.54,-83 267.54,-80.2 267.54,-85.8"/>
</g>
<!-- rel_1&#45;&gt;furniture.legend -->
<g id="edge10" class="edge">
<title>rel_1&#45;&gt;furniture.legend</title>
<path fill="none" stroke="#d46a6a" stroke-width="1.5" d="M226.71,-18C240.45,-18 254.93,-18 267.62,-18"/>
<polygon fill="#d46a6a" stroke="#d46a6a" stroke-width="1.5" points="267.54,-20.8 275.54,-18 267.54,-15.2 267.54,-20.8"/>
</g>
<!-- rel_2&#45;&gt;unknown.glyph_elements -->
<g id="edge12" class="edge">
<title>rel_2&#45;&gt;unknown.glyph_elements</title>
<path fill="none" stroke="#d46a6a" stroke-width="1.5" d="M526.85,-180C543.63,-180 561.42,-180 577.35,-180"/>
<polygon fill="#d46a6a" stroke="#d46a6a" stroke-width="1.5" points="577.24,-182.8 585.24,-180 577.24,-177.2 577.24,-182.8"/>
</g>
<!-- rel_3&#45;&gt;structure.pattern -->
<g id="edge14" class="edge">
<title>rel_3&#45;&gt;structure.pattern</title>
<path fill="none" stroke="#d46a6a" stroke-width="1.5" d="M210.6,-213C228.45,-213 249.77,-213 267.58,-213"/>
<polygon fill="#d46a6a" stroke="#d46a6a" stroke-width="1.5" points="267.33,-215.8 275.33,-213 267.33,-210.2 267.33,-215.8"/>
</g>
<!-- rel_4&#45;&gt;structure.pattern -->
<g id="edge16" class="edge">
<title>rel_4&#45;&gt;structure.pattern</title>
<path fill="none" stroke="#d46a6a" stroke-width="1.5" d="M746.08,-113.02C674.26,-103.99 502.58,-90.65 375.5,-147 356.07,-155.62 338.79,-172.17 326.38,-186.54"/>
<polygon fill="#d46a6a" stroke="#d46a6a" stroke-width="1.5" points="324.4,-184.53 321.45,-192.48 328.71,-188.11 324.4,-184.53"/>
</g>
</g>
</svg>
