<?xml version="1.0" encoding="UTF-8" standalone="no"?>
<!DOCTYPE svg PUBLIC "-//W3C//DTD SVG 1.1//EN"
 "http://www.w3.org/Graphics/SVG/1.1/DTD/svg11.dtd">
<!-- Generated by graphviz version 14.1.5 (20260411.2331)
 -->
<!-- Title: VisJ.1595.6(2).png Pages: 1 -->
<svg width="633pt" height="700pt"
 viewBox="0.00 0.00 633.00 700.00" xmlns="http://www.w3.org/2000/svg" xmlns:xlink="http://www.w3.org/1999/xlink">
<g id="graph0" class="graph" transform="scale(1 1) rotate(0) translate(4 696.25)">
<title>VisJ.1595.6(2).png</title>
<polygon fill="white" stroke="none" points="-4,4 -4,-696.25 629,-696.25 629,4 -4,4"/>
<text xml:space="preserve" text-anchor="start" x="253.62" y="-671.95" font-family="Arial" font-weight="bold" font-size="14.00">VisJ.1595.6(2).png</text>
<text xml:space="preserve" text-anchor="start" x="266.38" y="-652" font-family="Arial" font-size="11.00">Glyph &#160;| &#160;VC = 0.54</text>
<path fill="#b8e6b8" stroke="none" d="M103.12,-627C103.12,-627 111.12,-627 111.12,-627 114.12,-627 117.12,-630 117.12,-633 117.12,-633 117.12,-639 117.12,-639 117.12,-642 114.12,-645 111.12,-645 111.12,-645 103.12,-645 103.12,-645 100.12,-645 97.12,-642 97.12,-639 97.12,-639 97.12,-633 97.12,-633 97.12,-630 100.12,-627 103.12,-627"/>
<path fill="none" stroke="black" d="M103.12,-627C103.12,-627 111.12,-627 111.12,-627 114.12,-627 117.12,-630 117.12,-633 117.12,-633 117.12,-639 117.12,-639 117.12,-642 114.12,-645 111.12,-645 111.12,-645 103.12,-645 103.12,-645 100.12,-645 97.12,-642 97.12,-639 97.12,-639 97.12,-633 97.12,-633 97.12,-630 100.12,-627 103.12,-627"/>
<text xml:space="preserve" text-anchor="start" x="105.62" y="-632.25" font-family="Arial" font-size="10.00"> </text>
<text xml:space="preserve" text-anchor="start" x="121.12" y="-632.25" font-family="Arial" font-size="10.00">Object</text>
<path fill="#c7b8e6" stroke="none" d="M159.62,-627C159.62,-627 167.62,-627 167.62,-627 170.62,-627 173.62,-630 173.62,-633 173.62,-633 173.62,-639 173.62,-639 173.62,-642 170.62,-645 167.62,-645 167.62,-645 159.62,-645 159.62,-645 156.62,-645 153.62,-642 153.62,-639 153.62,-639 153.62,-633 153.62,-633 153.62,-630 156.62,-627 159.62,-627"/>
<path fill="none" stroke="black" d="M159.62,-627C159.62,-627 167.62,-627 167.62,-627 170.62,-627 173.62,-630 173.62,-633 173.62,-633 173.62,-639 173.62,-639 173.62,-642 170.62,-645 167.62,-645 167.62,-645 159.62,-645 159.62,-645 156.62,-645 153.62,-642 153.62,-639 153.62,-639 153.62,-633 153.62,-633 153.62,-630 156.62,-627 159.62,-627"/>
<text xml:space="preserve" text-anchor="start" x="162.12" y="-632.25" font-family="Arial" font-size="10.00"> </text>
<text xml:space="preserve" text-anchor="start" x="177.62" y="-632.25" font-family="Arial" font-size="10.00">Attribute</text>
<path fill="#f5b8b8" stroke="none" d="M224.38,-627C224.38,-627 232.38,-627 232.38,-627 235.38,-627 238.38,-630 238.38,-633 238.38,-633 238.38,-639 238.38,-639 238.38,-642 235.38,-645 232.38,-645 232.38,-645 224.38,-645 224.38,-645 221.38,-645 218.38,-642 218.38,-639 218.38,-639 218.38,-633 218.38,-633 218.38,-630 221.38,-627 224.38,-627"/>
<path fill="none" stroke="black" d="M224.38,-627C224.38,-627 232.38,-627 232.38,-627 235.38,-627 238.38,-630 238.38,-633 238.38,-633 238.38,-639 238.38,-639 238.38,-642 235.38,-645 232.38,-645 232.38,-645 224.38,-645 224.38,-645 221.38,-645 218.38,-642 218.38,-639 218.38,-639 218.38,-633 218.38,-633 218.38,-630 221.38,-627 224.38,-627"/>
<text xml:space="preserve" text-anchor="start" x="226.88" y="-632.25" font-family="Arial" font-size="10.00"> </text>
<text xml:space="preserve" text-anchor="start" x="242.38" y="-632.25" font-family="Arial" font-size="10.00">Relationship</text>
<text xml:space="preserve" text-anchor="start" x="302.38" y="-633.5" font-family="Arial" font-weight="bold" font-size="10.00">(+)</text>
<text xml:space="preserve" text-anchor="start" x="314.38" y="-633.5" font-family="Arial" font-size="10.00"> increases complexity</text>
<text xml:space="preserve" text-anchor="start" x="415.62" y="-633.5" font-family="Arial" font-weight="bold" font-size="10.00">(−)</text>
<text xml:space="preserve" text-anchor="start" x="427.62" y="-633.5" font-family="Arial" font-size="10.00"> decreases complexity</text>
<!-- unknown.glyph_diagram -->
<g id="node1" class="node">
<title>unknown.glyph_diagram</title>
<path fill="#b8e6b8" stroke="#2c3e50" stroke-width="1.8" d="M418.25,-231C418.25,-231 365.5,-231 365.5,-231 359.5,-231 353.5,-225 353.5,-219 353.5,-219 353.5,-207 353.5,-207 353.5,-201 359.5,-195 365.5,-195 365.5,-195 418.25,-195 418.25,-195 424.25,-195 430.25,-201 430.25,-207 430.25,-207 430.25,-219 430.25,-219 430.25,-225 424.25,-231 418.25,-231"/>
<text xml:space="preserve" text-anchor="middle" x="391.88" y="-209.5" font-family="Arial" font-size="10.00" fill="#1a1a1a">glyph diagram</text>
</g>
<!-- attr_0 -->
<g id="node8" class="node">
<title>attr_0</title>
<path fill="#c7b8e6" stroke="#7f8c8d" stroke-width="1.2" d="M613,-231C613,-231 485.25,-231 485.25,-231 479.25,-231 473.25,-225 473.25,-219 473.25,-219 473.25,-207 473.25,-207 473.25,-201 479.25,-195 485.25,-195 485.25,-195 613,-195 613,-195 619,-195 625,-201 625,-207 625,-207 625,-219 625,-219 625,-225 619,-231 613,-231"/>
<text xml:space="preserve" text-anchor="middle" x="549.12" y="-209.5" font-family="Arial" font-size="10.00" fill="#1a1a1a">(+) unfamiliar visual convention</text>
</g>
<!-- unknown.glyph_diagram&#45;&gt;attr_0 -->
<g id="edge1" class="edge">
<title>unknown.glyph_diagram&#45;&gt;attr_0</title>
<path fill="none" stroke="#aaaaaa" d="M430.85,-213C441.21,-213 452.85,-213 464.68,-213"/>
<polygon fill="#aaaaaa" stroke="#aaaaaa" points="464.37,-215.45 471.37,-213 464.37,-210.55 464.37,-215.45"/>
</g>
<!-- unknown.dashed_box -->
<g id="node2" class="node">
<title>unknown.dashed_box</title>
<path fill="#b8e6b8" stroke="#2c3e50" stroke-width="1.8" d="M71.5,-69C71.5,-69 29.25,-69 29.25,-69 23.25,-69 17.25,-63 17.25,-57 17.25,-57 17.25,-45 17.25,-45 17.25,-39 23.25,-33 29.25,-33 29.25,-33 71.5,-33 71.5,-33 77.5,-33 83.5,-39 83.5,-45 83.5,-45 83.5,-57 83.5,-57 83.5,-63 77.5,-69 71.5,-69"/>
<text xml:space="preserve" text-anchor="middle" x="50.38" y="-47.5" font-family="Arial" font-size="10.00" fill="#1a1a1a">dashed box</text>
</g>
<!-- attr_1 -->
<g id="node9" class="node">
<title>attr_1</title>
<path fill="#c7b8e6" stroke="#7f8c8d" stroke-width="1.2" d="M294.38,-101C294.38,-101 159.88,-101 159.88,-101 153.88,-101 147.88,-95 147.88,-89 147.88,-89 147.88,-77 147.88,-77 147.88,-71 153.88,-65 159.88,-65 159.88,-65 294.38,-65 294.38,-65 300.38,-65 306.38,-71 306.38,-77 306.38,-77 306.38,-89 306.38,-89 306.38,-95 300.38,-101 294.38,-101"/>
<text xml:space="preserve" text-anchor="middle" x="227.12" y="-79.5" font-family="Arial" font-size="10.00" fill="#1a1a1a">(+) ambiguous boundary element</text>
</g>
<!-- unknown.dashed_box&#45;&gt;attr_1 -->
<g id="edge2" class="edge">
<title>unknown.dashed_box&#45;&gt;attr_1</title>
<path fill="none" stroke="#aaaaaa" d="M84.24,-57.02C99.9,-59.89 119.45,-63.47 138.98,-67.04"/>
<polygon fill="#aaaaaa" stroke="#aaaaaa" points="138.52,-69.45 145.85,-68.3 139.41,-64.63 138.52,-69.45"/>
</g>
<!-- rel_4 -->
<g id="node19" class="node">
<title>rel_4</title>
<path fill="#f5b8b8" stroke="#d46a6a" stroke-width="1.2" d="M280.5,-36C280.5,-36 173.75,-36 173.75,-36 167.75,-36 161.75,-30 161.75,-24 161.75,-24 161.75,-12 161.75,-12 161.75,-6 167.75,0 173.75,0 173.75,0 280.5,0 280.5,0 286.5,0 292.5,-6 292.5,-12 292.5,-12 292.5,-24 292.5,-24 292.5,-30 286.5,-36 280.5,-36"/>
<text xml:space="preserve" text-anchor="middle" x="227.12" y="-14.5" font-family="Arial" font-size="10.00" fill="#8b0000">contributes to confusion in</text>
</g>
<!-- unknown.dashed_box&#45;&gt;rel_4 -->
<g id="edge16" class="edge">
<title>unknown.dashed_box&#45;&gt;rel_4</title>
<path fill="none" stroke="#d46a6a" stroke-width="1.5" d="M84.24,-44.79C103.19,-41.22 127.83,-36.56 151.24,-32.14"/>
<polygon fill="#d46a6a" stroke="#d46a6a" stroke-width="1.5" points="151.61,-34.92 158.95,-30.68 150.57,-29.42 151.61,-34.92"/>
</g>
<!-- unknown.text_labels -->
<g id="node3" class="node">
<title>unknown.text_labels</title>
<path fill="#b8e6b8" stroke="#2c3e50" stroke-width="1.8" d="M68.88,-199C68.88,-199 31.88,-199 31.88,-199 25.88,-199 19.88,-193 19.88,-187 19.88,-187 19.88,-175 19.88,-175 19.88,-169 25.88,-163 31.88,-163 31.88,-163 68.88,-163 68.88,-163 74.88,-163 80.88,-169 80.88,-175 80.88,-175 80.88,-187 80.88,-187 80.88,-193 74.88,-199 68.88,-199"/>
<text xml:space="preserve" text-anchor="middle" x="50.38" y="-177.5" font-family="Arial" font-size="10.00" fill="#1a1a1a">text labels</text>
</g>
<!-- attr_2 -->
<g id="node10" class="node">
<title>attr_2</title>
<path fill="#c7b8e6" stroke="#7f8c8d" stroke-width="1.2" d="M266.25,-231C266.25,-231 188,-231 188,-231 182,-231 176,-225 176,-219 176,-219 176,-207 176,-207 176,-201 182,-195 188,-195 188,-195 266.25,-195 266.25,-195 272.25,-195 278.25,-201 278.25,-207 278.25,-207 278.25,-219 278.25,-219 278.25,-225 272.25,-231 266.25,-231"/>
<text xml:space="preserve" text-anchor="middle" x="227.12" y="-209.5" font-family="Arial" font-size="10.00" fill="#1a1a1a">(+) hard to read text</text>
</g>
<!-- unknown.text_labels&#45;&gt;attr_2 -->
<g id="edge3" class="edge">
<title>unknown.text_labels&#45;&gt;attr_2</title>
<path fill="none" stroke="#aaaaaa" d="M81.42,-186.5C105.05,-190.83 138.71,-196.99 167.62,-202.29"/>
<polygon fill="#aaaaaa" stroke="#aaaaaa" points="166.82,-204.63 174.15,-203.48 167.71,-199.81 166.82,-204.63"/>
</g>
<!-- rel_2 -->
<g id="node17" class="node">
<title>rel_2</title>
<path fill="#f5b8b8" stroke="#d46a6a" stroke-width="1.2" d="M269.62,-166C269.62,-166 184.62,-166 184.62,-166 178.62,-166 172.62,-160 172.62,-154 172.62,-154 172.62,-142 172.62,-142 172.62,-136 178.62,-130 184.62,-130 184.62,-130 269.62,-130 269.62,-130 275.62,-130 281.62,-136 281.62,-142 281.62,-142 281.62,-154 281.62,-154 281.62,-160 275.62,-166 269.62,-166"/>
<text xml:space="preserve" text-anchor="middle" x="227.12" y="-144.5" font-family="Arial" font-size="10.00" fill="#8b0000">reduces readability of</text>
</g>
<!-- unknown.text_labels&#45;&gt;rel_2 -->
<g id="edge12" class="edge">
<title>unknown.text_labels&#45;&gt;rel_2</title>
<path fill="none" stroke="#d46a6a" stroke-width="1.5" d="M81.42,-175.33C103.58,-171.14 134.55,-165.29 162.16,-160.08"/>
<polygon fill="#d46a6a" stroke="#d46a6a" stroke-width="1.5" points="162.58,-162.85 169.92,-158.61 161.54,-157.35 162.58,-162.85"/>
</g>
<!-- unknown.color_scheme -->
<g id="node4" class="node">
<title>unknown.color_scheme</title>
<path fill="#b8e6b8" stroke="#2c3e50" stroke-width="1.8" d="M75.62,-588C75.62,-588 25.12,-588 25.12,-588 19.12,-588 13.12,-582 13.12,-576 13.12,-576 13.12,-564 13.12,-564 13.12,-558 19.12,-552 25.12,-552 25.12,-552 75.62,-552 75.62,-552 81.62,-552 87.62,-558 87.62,-564 87.62,-564 87.62,-576 87.62,-576 87.62,-582 81.62,-588 75.62,-588"/>
<text xml:space="preserve" text-anchor="middle" x="50.38" y="-566.5" font-family="Arial" font-size="10.00" fill="#1a1a1a">color scheme</text>
</g>
<!-- attr_3 -->
<g id="node11" class="node">
<title>attr_3</title>
<path fill="#c7b8e6" stroke="#7f8c8d" stroke-width="1.2" d="M279.75,-621C279.75,-621 174.5,-621 174.5,-621 168.5,-621 162.5,-615 162.5,-609 162.5,-609 162.5,-597 162.5,-597 162.5,-591 168.5,-585 174.5,-585 174.5,-585 279.75,-585 279.75,-585 285.75,-585 291.75,-591 291.75,-597 291.75,-597 291.75,-609 291.75,-609 291.75,-615 285.75,-621 279.75,-621"/>
<text xml:space="preserve" text-anchor="middle" x="227.12" y="-599.5" font-family="Arial" font-size="10.00" fill="#1a1a1a">(+) multiple colors present</text>
</g>
<!-- unknown.color_scheme&#45;&gt;attr_3 -->
<g id="edge4" class="edge">
<title>unknown.color_scheme&#45;&gt;attr_3</title>
<path fill="none" stroke="#aaaaaa" d="M88.43,-577C107.44,-580.59 131.27,-585.09 153.73,-589.33"/>
<polygon fill="#aaaaaa" stroke="#aaaaaa" points="153.11,-591.71 160.44,-590.6 154.02,-586.89 153.11,-591.71"/>
</g>
<!-- rel_3 -->
<g id="node18" class="node">
<title>rel_3</title>
<path fill="#f5b8b8" stroke="#d46a6a" stroke-width="1.2" d="M284.62,-556C284.62,-556 169.62,-556 169.62,-556 163.62,-556 157.62,-550 157.62,-544 157.62,-544 157.62,-532 157.62,-532 157.62,-526 163.62,-520 169.62,-520 169.62,-520 284.62,-520 284.62,-520 290.62,-520 296.62,-526 296.62,-532 296.62,-532 296.62,-544 296.62,-544 296.62,-550 290.62,-556 284.62,-556"/>
<text xml:space="preserve" text-anchor="middle" x="227.12" y="-534.5" font-family="Arial" font-size="10.00" fill="#8b0000">complicates interpretation of</text>
</g>
<!-- unknown.color_scheme&#45;&gt;rel_3 -->
<g id="edge14" class="edge">
<title>unknown.color_scheme&#45;&gt;rel_3</title>
<path fill="none" stroke="#d46a6a" stroke-width="1.5" d="M88.43,-563.21C105.65,-560.06 126.83,-556.18 147.36,-552.42"/>
<polygon fill="#d46a6a" stroke="#d46a6a" stroke-width="1.5" points="147.77,-555.19 155.14,-551 146.77,-549.69 147.77,-555.19"/>
</g>
<!-- unknown.dotted_lines -->
<g id="node5" class="node">
<title>unknown.dotted_lines</title>
<path fill="#b8e6b8" stroke="#2c3e50" stroke-width="1.8" d="M71.5,-329C71.5,-329 29.25,-329 29.25,-329 23.25,-329 17.25,-323 17.25,-317 17.25,-317 17.25,-305 17.25,-305 17.25,-299 23.25,-293 29.25,-293 29.25,-293 71.5,-293 71.5,-293 77.5,-293 83.5,-299 83.5,-305 83.5,-305 83.5,-317 83.5,-317 83.5,-323 77.5,-329 71.5,-329"/>
<text xml:space="preserve" text-anchor="middle" x="50.38" y="-307.5" font-family="Arial" font-size="10.00" fill="#1a1a1a">dotted lines</text>
</g>
<!-- attr_4 -->
<g id="node12" class="node">
<title>attr_4</title>
<path fill="#c7b8e6" stroke="#7f8c8d" stroke-width="1.2" d="M280.5,-361C280.5,-361 173.75,-361 173.75,-361 167.75,-361 161.75,-355 161.75,-349 161.75,-349 161.75,-337 161.75,-337 161.75,-331 167.75,-325 173.75,-325 173.75,-325 280.5,-325 280.5,-325 286.5,-325 292.5,-331 292.5,-337 292.5,-337 292.5,-349 292.5,-349 292.5,-355 286.5,-361 280.5,-361"/>
<text xml:space="preserve" text-anchor="middle" x="227.12" y="-339.5" font-family="Arial" font-size="10.00" fill="#1a1a1a">(+) confusing dashed lines</text>
</g>
<!-- unknown.dotted_lines&#45;&gt;attr_4 -->
<g id="edge5" class="edge">
<title>unknown.dotted_lines&#45;&gt;attr_4</title>
<path fill="none" stroke="#aaaaaa" d="M84.24,-317.02C103.61,-320.57 128.93,-325.2 152.81,-329.57"/>
<polygon fill="#aaaaaa" stroke="#aaaaaa" points="152.37,-331.98 159.7,-330.84 153.25,-327.16 152.37,-331.98"/>
</g>
<!-- rel_1 -->
<g id="node16" class="node">
<title>rel_1</title>
<path fill="#f5b8b8" stroke="#d46a6a" stroke-width="1.2" d="M243,-296C243,-296 211.25,-296 211.25,-296 205.25,-296 199.25,-290 199.25,-284 199.25,-284 199.25,-272 199.25,-272 199.25,-266 205.25,-260 211.25,-260 211.25,-260 243,-260 243,-260 249,-260 255,-266 255,-272 255,-272 255,-284 255,-284 255,-290 249,-296 243,-296"/>
<text xml:space="preserve" text-anchor="middle" x="227.12" y="-274.5" font-family="Arial" font-size="10.00" fill="#8b0000">obscures</text>
</g>
<!-- unknown.dotted_lines&#45;&gt;rel_1 -->
<g id="edge10" class="edge">
<title>unknown.dotted_lines&#45;&gt;rel_1</title>
<path fill="none" stroke="#d46a6a" stroke-width="1.5" d="M84.24,-304.79C114,-299.17 157.8,-290.9 188.85,-285.04"/>
<polygon fill="#d46a6a" stroke="#d46a6a" stroke-width="1.5" points="189.28,-287.81 196.62,-283.57 188.24,-282.3 189.28,-287.81"/>
</g>
<!-- unknown.coordinate_equation -->
<g id="node6" class="node">
<title>unknown.coordinate_equation</title>
<path fill="#b8e6b8" stroke="#2c3e50" stroke-width="1.8" d="M88.75,-459C88.75,-459 12,-459 12,-459 6,-459 0,-453 0,-447 0,-447 0,-435 0,-435 0,-429 6,-423 12,-423 12,-423 88.75,-423 88.75,-423 94.75,-423 100.75,-429 100.75,-435 100.75,-435 100.75,-447 100.75,-447 100.75,-453 94.75,-459 88.75,-459"/>
<text xml:space="preserve" text-anchor="middle" x="50.38" y="-437.5" font-family="Arial" font-size="10.00" fill="#1a1a1a">coordinate equation</text>
</g>
<!-- attr_5 -->
<g id="node13" class="node">
<title>attr_5</title>
<path fill="#c7b8e6" stroke="#7f8c8d" stroke-width="1.2" d="M298.5,-491C298.5,-491 155.75,-491 155.75,-491 149.75,-491 143.75,-485 143.75,-479 143.75,-479 143.75,-467 143.75,-467 143.75,-461 149.75,-455 155.75,-455 155.75,-455 298.5,-455 298.5,-455 304.5,-455 310.5,-461 310.5,-467 310.5,-467 310.5,-479 310.5,-479 310.5,-485 304.5,-491 298.5,-491"/>
<text xml:space="preserve" text-anchor="middle" x="227.12" y="-469.5" font-family="Arial" font-size="10.00" fill="#1a1a1a">(+) requires specialized knowledge</text>
</g>
<!-- unknown.coordinate_equation&#45;&gt;attr_5 -->
<g id="edge6" class="edge">
<title>unknown.coordinate_equation&#45;&gt;attr_5</title>
<path fill="none" stroke="#aaaaaa" d="M101.45,-450.17C112.1,-452.12 123.67,-454.24 135.31,-456.37"/>
<polygon fill="#aaaaaa" stroke="#aaaaaa" points="134.56,-458.72 141.89,-457.57 135.44,-453.9 134.56,-458.72"/>
</g>
<!-- rel_0 -->
<g id="node15" class="node">
<title>rel_0</title>
<path fill="#f5b8b8" stroke="#d46a6a" stroke-width="1.2" d="M275.62,-426C275.62,-426 178.62,-426 178.62,-426 172.62,-426 166.62,-420 166.62,-414 166.62,-414 166.62,-402 166.62,-402 166.62,-396 172.62,-390 178.62,-390 178.62,-390 275.62,-390 275.62,-390 281.62,-390 287.62,-396 287.62,-402 287.62,-402 287.62,-414 287.62,-414 287.62,-420 281.62,-426 275.62,-426"/>
<text xml:space="preserve" text-anchor="middle" x="227.12" y="-404.5" font-family="Arial" font-size="10.00" fill="#8b0000">increases cognitive load</text>
</g>
<!-- unknown.coordinate_equation&#45;&gt;rel_0 -->
<g id="edge8" class="edge">
<title>unknown.coordinate_equation&#45;&gt;rel_0</title>
<path fill="none" stroke="#d46a6a" stroke-width="1.5" d="M101.45,-431.54C118.47,-428.33 137.81,-424.68 156.1,-421.22"/>
<polygon fill="#d46a6a" stroke="#d46a6a" stroke-width="1.5" points="156.56,-423.99 163.9,-419.75 155.52,-418.48 156.56,-423.99"/>
</g>
<!-- unknown.shapes -->
<g id="node7" class="node">
<title>unknown.shapes</title>
<path fill="#b8e6b8" stroke="#2c3e50" stroke-width="1.8" d="M406.88,-556C406.88,-556 376.88,-556 376.88,-556 370.88,-556 364.88,-550 364.88,-544 364.88,-544 364.88,-532 364.88,-532 364.88,-526 370.88,-520 376.88,-520 376.88,-520 406.88,-520 406.88,-520 412.88,-520 418.88,-526 418.88,-532 418.88,-532 418.88,-544 418.88,-544 418.88,-550 412.88,-556 406.88,-556"/>
<text xml:space="preserve" text-anchor="middle" x="391.88" y="-534.5" font-family="Arial" font-size="10.00" fill="#1a1a1a">shapes</text>
</g>
<!-- attr_6 -->
<g id="node14" class="node">
<title>attr_6</title>
<path fill="#c7b8e6" stroke="#7f8c8d" stroke-width="1.2" d="M599.12,-556C599.12,-556 499.12,-556 499.12,-556 493.12,-556 487.12,-550 487.12,-544 487.12,-544 487.12,-532 487.12,-532 487.12,-526 493.12,-520 499.12,-520 499.12,-520 599.12,-520 599.12,-520 605.12,-520 611.12,-526 611.12,-532 611.12,-532 611.12,-544 611.12,-544 611.12,-550 605.12,-556 599.12,-556"/>
<text xml:space="preserve" text-anchor="middle" x="549.12" y="-534.5" font-family="Arial" font-size="10.00" fill="#1a1a1a">(+) varied shapes spread</text>
</g>
<!-- unknown.shapes&#45;&gt;attr_6 -->
<g id="edge7" class="edge">
<title>unknown.shapes&#45;&gt;attr_6</title>
<path fill="none" stroke="#aaaaaa" d="M419.56,-538C435.87,-538 457.53,-538 478.43,-538"/>
<polygon fill="#aaaaaa" stroke="#aaaaaa" points="478.18,-540.45 485.18,-538 478.18,-535.55 478.18,-540.45"/>
</g>
<!-- rel_0&#45;&gt;unknown.glyph_diagram -->
<g id="edge9" class="edge">
<title>rel_0&#45;&gt;unknown.glyph_diagram</title>
<path fill="none" stroke="#d46a6a" stroke-width="1.5" d="M287.95,-390.19C296.12,-386.07 303.94,-381.06 310.5,-375 350.39,-338.17 373.06,-277.17 383.58,-241.47"/>
<polygon fill="#d46a6a" stroke="#d46a6a" stroke-width="1.5" points="386.25,-242.33 385.72,-233.87 380.86,-240.8 386.25,-242.33"/>
</g>
<!-- rel_1&#45;&gt;unknown.glyph_diagram -->
<g id="edge11" class="edge">
<title>rel_1&#45;&gt;unknown.glyph_diagram</title>
<path fill="none" stroke="#d46a6a" stroke-width="1.5" d="M255.37,-267.12C279.35,-257.54 314.81,-243.38 343.45,-231.94"/>
<polygon fill="#d46a6a" stroke="#d46a6a" stroke-width="1.5" points="344.37,-234.59 350.76,-229.02 342.29,-229.39 344.37,-234.59"/>
</g>
<!-- rel_2&#45;&gt;unknown.glyph_diagram -->
<g id="edge13" class="edge">
<title>rel_2&#45;&gt;unknown.glyph_diagram</title>
<path fill="none" stroke="#d46a6a" stroke-width="1.5" d="M276.1,-166.46C287.4,-170.86 299.39,-175.56 310.5,-180 321.23,-184.28 332.73,-188.96 343.58,-193.41"/>
<polygon fill="#d46a6a" stroke="#d46a6a" stroke-width="1.5" points="342.35,-195.93 350.81,-196.38 344.48,-190.75 342.35,-195.93"/>
</g>
<!-- rel_3&#45;&gt;unknown.shapes -->
<g id="edge15" class="edge">
<title>rel_3&#45;&gt;unknown.shapes</title>
<path fill="none" stroke="#d46a6a" stroke-width="1.5" d="M297.15,-538C316.8,-538 337.45,-538 354.34,-538"/>
<polygon fill="#d46a6a" stroke="#d46a6a" stroke-width="1.5" points="354.06,-540.8 362.06,-538 354.06,-535.2 354.06,-540.8"/>
</g>
<!-- rel_4&#45;&gt;unknown.glyph_diagram -->
<g id="edge17" class="edge">
<title>rel_4&#45;&gt;unknown.glyph_diagram</title>
<path fill="none" stroke="#d46a6a" stroke-width="1.5" d="M290.9,-36.53C297.99,-40.27 304.73,-44.71 310.5,-50 350.73,-86.86 373.29,-148.3 383.69,-184.29"/>
<polygon fill="#d46a6a" stroke="#d46a6a" stroke-width="1.5" points="380.98,-185.01 385.81,-191.97 386.38,-183.51 380.98,-185.01"/>
</g>
</g>
</svg>
