<?xml version="1.0" encoding="UTF-8" standalone="no"?>
<!DOCTYPE svg PUBLIC "-//W3C//DTD SVG 1.1//EN"
 "http://www.w3.org/Graphics/SVG/1.1/DTD/svg11.dtd">
<!-- Generated by graphviz version 14.1.5 (20260411.2331)
 -->
<!-- Title: VisJ.1197.5(3).png Pages: 1 -->
<svg width="891pt" height="505pt"
 viewBox="0.00 0.00 891.00 505.00" xmlns="http://www.w3.org/2000/svg" xmlns:xlink="http://www.w3.org/1999/xlink">
<g id="graph0" class="graph" transform="scale(1 1) rotate(0) translate(4 501.25)">
<title>VisJ.1197.5(3).png</title>
<polygon fill="white" stroke="none" points="-4,4 -4,-501.25 887.25,-501.25 887.25,4 -4,4"/>
<text xml:space="preserve" text-anchor="start" x="383.12" y="-476.95" font-family="Arial" font-weight="bold" font-size="14.00">VisJ.1197.5(3).png</text>
<text xml:space="preserve" text-anchor="start" x="395.5" y="-457" font-family="Arial" font-size="11.00">Glyph &#160;| &#160;VC = 0.76</text>
<path fill="#b8e6b8" stroke="none" d="M232.25,-432C232.25,-432 240.25,-432 240.25,-432 243.25,-432 246.25,-435 246.25,-438 246.25,-438 246.25,-444 246.25,-444 246.25,-447 243.25,-450 240.25,-450 240.25,-450 232.25,-450 232.25,-450 229.25,-450 226.25,-447 226.25,-444 226.25,-444 226.25,-438 226.25,-438 226.25,-435 229.25,-432 232.25,-432"/>
<path fill="none" stroke="black" d="M232.25,-432C232.25,-432 240.25,-432 240.25,-432 243.25,-432 246.25,-435 246.25,-438 246.25,-438 246.25,-444 246.25,-444 246.25,-447 243.25,-450 240.25,-450 240.25,-450 232.25,-450 232.25,-450 229.25,-450 226.25,-447 226.25,-444 226.25,-444 226.25,-438 226.25,-438 226.25,-435 229.25,-432 232.25,-432"/>
<text xml:space="preserve" text-anchor="start" x="234.75" y="-437.25" font-family="Arial" font-size="10.00"> </text>
<text xml:space="preserve" text-anchor="start" x="250.25" y="-437.25" font-family="Arial" font-size="10.00">Object</text>
<path fill="#c7b8e6" stroke="none" d="M288.75,-432C288.75,-432 296.75,-432 296.75,-432 299.75,-432 302.75,-435 302.75,-438 302.75,-438 302.75,-444 302.75,-444 302.75,-447 299.75,-450 296.75,-450 296.75,-450 288.75,-450 288.75,-450 285.75,-450 282.75,-447 282.75,-444 282.75,-444 282.75,-438 282.75,-438 282.75,-435 285.75,-432 288.75,-432"/>
<path fill="none" stroke="black" d="M288.75,-432C288.75,-432 296.75,-432 296.75,-432 299.75,-432 302.75,-435 302.75,-438 302.75,-438 302.75,-444 302.75,-444 302.75,-447 299.75,-450 296.75,-450 296.75,-450 288.75,-450 288.75,-450 285.75,-450 282.75,-447 282.75,-444 282.75,-444 282.75,-438 282.75,-438 282.75,-435 285.75,-432 288.75,-432"/>
<text xml:space="preserve" text-anchor="start" x="291.25" y="-437.25" font-family="Arial" font-size="10.00"> </text>
<text xml:space="preserve" text-anchor="start" x="306.75" y="-437.25" font-family="Arial" font-size="10.00">Attribute</text>
<path fill="#f5b8b8" stroke="none" d="M353.5,-432C353.5,-432 361.5,-432 361.5,-432 364.5,-432 367.5,-435 367.5,-438 367.5,-438 367.5,-444 367.5,-444 367.5,-447 364.5,-450 361.5,-450 361.5,-450 353.5,-450 353.5,-450 350.5,-450 347.5,-447 347.5,-444 347.5,-444 347.5,-438 347.5,-438 347.5,-435 350.5,-432 353.5,-432"/>
<path fill="none" stroke="black" d="M353.5,-432C353.5,-432 361.5,-432 361.5,-432 364.5,-432 367.5,-435 367.5,-438 367.5,-438 367.5,-444 367.5,-444 367.5,-447 364.5,-450 361.5,-450 361.5,-450 353.5,-450 353.5,-450 350.5,-450 347.5,-447 347.5,-444 347.5,-444 347.5,-438 347.5,-438 347.5,-435 350.5,-432 353.5,-432"/>
<text xml:space="preserve" text-anchor="start" x="356" y="-437.25" font-family="Arial" font-size="10.00"> </text>
<text xml:space="preserve" text-anchor="start" x="371.5" y="-437.25" font-family="Arial" font-size="10.00">Relationship</text>
<text xml:space="preserve" text-anchor="start" x="431.5" y="-438.5" font-family="Arial" font-weight="bold" font-size="10.00">(+)</text>
<text xml:space="preserve" text-anchor="start" x="443.5" y="-438.5" font-family="Arial" font-size="10.00"> increases complexity</text>
<text xml:space="preserve" text-anchor="start" x="544.75" y="-438.5" font-family="Arial" font-weight="bold" font-size="10.00">(−)</text>
<text xml:space="preserve" text-anchor="start" x="556.75" y="-438.5" font-family="Arial" font-size="10.00"> decreases complexity</text>
<!-- unknown.cubes -->
<g id="node1" class="node">
<title>unknown.cubes</title>
<path fill="#b8e6b8" stroke="#2c3e50" stroke-width="1.8" d="M52.62,-198C52.62,-198 22.62,-198 22.62,-198 16.62,-198 10.62,-192 10.62,-186 10.62,-186 10.62,-174 10.62,-174 10.62,-168 16.62,-162 22.62,-162 22.62,-162 52.62,-162 52.62,-162 58.62,-162 64.62,-168 64.62,-174 64.62,-174 64.62,-186 64.62,-186 64.62,-192 58.62,-198 52.62,-198"/>
<text xml:space="preserve" text-anchor="middle" x="37.62" y="-176.5" font-family="Arial" font-size="10.00" fill="#1a1a1a">cubes</text>
</g>
<!-- attr_0 -->
<g id="node7" class="node">
<title>attr_0</title>
<path fill="#c7b8e6" stroke="#7f8c8d" stroke-width="1.2" d="M261.75,-296C261.75,-296 130.25,-296 130.25,-296 124.25,-296 118.25,-290 118.25,-284 118.25,-284 118.25,-272 118.25,-272 118.25,-266 124.25,-260 130.25,-260 130.25,-260 261.75,-260 261.75,-260 267.75,-260 273.75,-266 273.75,-272 273.75,-272 273.75,-284 273.75,-284 273.75,-290 267.75,-296 261.75,-296"/>
<text xml:space="preserve" text-anchor="middle" x="196" y="-274.5" font-family="Arial" font-size="10.00" fill="#1a1a1a">(+) numerous overlapping cubes</text>
</g>
<!-- unknown.cubes&#45;&gt;attr_0 -->
<g id="edge1" class="edge">
<title>unknown.cubes&#45;&gt;attr_0</title>
<path fill="none" stroke="#aaaaaa" d="M58.4,-198.78C73.83,-212.77 96.28,-231.67 118.25,-245 124.72,-248.92 131.73,-252.62 138.8,-256.01"/>
<polygon fill="#aaaaaa" stroke="#aaaaaa" points="137.73,-258.21 145.11,-258.94 139.79,-253.77 137.73,-258.21"/>
</g>
<!-- attr_6 -->
<g id="node8" class="node">
<title>attr_6</title>
<path fill="#c7b8e6" stroke="#7f8c8d" stroke-width="1.2" d="M241.12,-231C241.12,-231 150.88,-231 150.88,-231 144.88,-231 138.88,-225 138.88,-219 138.88,-219 138.88,-207 138.88,-207 138.88,-201 144.88,-195 150.88,-195 150.88,-195 241.12,-195 241.12,-195 247.12,-195 253.12,-201 253.12,-207 253.12,-207 253.12,-219 253.12,-219 253.12,-225 247.12,-231 241.12,-231"/>
<text xml:space="preserve" text-anchor="middle" x="196" y="-209.5" font-family="Arial" font-size="10.00" fill="#1a1a1a">(+) difficult to visualize</text>
</g>
<!-- unknown.cubes&#45;&gt;attr_6 -->
<g id="edge2" class="edge">
<title>unknown.cubes&#45;&gt;attr_6</title>
<path fill="none" stroke="#aaaaaa" d="M65.51,-185.67C83.32,-189.43 107.49,-194.53 130.12,-199.31"/>
<polygon fill="#aaaaaa" stroke="#aaaaaa" points="129.54,-201.69 136.9,-200.74 130.55,-196.9 129.54,-201.69"/>
</g>
<!-- rel_0 -->
<g id="node14" class="node">
<title>rel_0</title>
<path fill="#f5b8b8" stroke="#d46a6a" stroke-width="1.2" d="M218.25,-166C218.25,-166 173.75,-166 173.75,-166 167.75,-166 161.75,-160 161.75,-154 161.75,-154 161.75,-142 161.75,-142 161.75,-136 167.75,-130 173.75,-130 173.75,-130 218.25,-130 218.25,-130 224.25,-130 230.25,-136 230.25,-142 230.25,-142 230.25,-154 230.25,-154 230.25,-160 224.25,-166 218.25,-166"/>
<text xml:space="preserve" text-anchor="middle" x="196" y="-144.5" font-family="Arial" font-size="10.00" fill="#8b0000">overwhelms</text>
</g>
<!-- unknown.cubes&#45;&gt;rel_0 -->
<g id="edge8" class="edge">
<title>unknown.cubes&#45;&gt;rel_0</title>
<path fill="none" stroke="#d46a6a" stroke-width="1.5" d="M65.51,-174.5C89.15,-169.66 124,-162.53 151.59,-156.88"/>
<polygon fill="#d46a6a" stroke="#d46a6a" stroke-width="1.5" points="151.89,-159.68 159.17,-155.33 150.77,-154.19 151.89,-159.68"/>
</g>
<!-- rel_4 -->
<g id="node18" class="node">
<title>rel_4</title>
<path fill="#f5b8b8" stroke="#d46a6a" stroke-width="1.2" d="M240.75,-101C240.75,-101 151.25,-101 151.25,-101 145.25,-101 139.25,-95 139.25,-89 139.25,-89 139.25,-77 139.25,-77 139.25,-71 145.25,-65 151.25,-65 151.25,-65 240.75,-65 240.75,-65 246.75,-65 252.75,-71 252.75,-77 252.75,-77 252.75,-89 252.75,-89 252.75,-95 246.75,-101 240.75,-101"/>
<text xml:space="preserve" text-anchor="middle" x="196" y="-79.5" font-family="Arial" font-size="10.00" fill="#8b0000">requires effort to parse</text>
</g>
<!-- unknown.cubes&#45;&gt;rel_4 -->
<g id="edge16" class="edge">
<title>unknown.cubes&#45;&gt;rel_4</title>
<path fill="none" stroke="#d46a6a" stroke-width="1.5" d="M58.35,-161.15C73.77,-147.12 96.21,-128.21 118.25,-115 123.82,-111.66 129.81,-108.5 135.89,-105.57"/>
<polygon fill="#d46a6a" stroke="#d46a6a" stroke-width="1.5" points="136.69,-108.29 142.78,-102.39 134.34,-103.21 136.69,-108.29"/>
</g>
<!-- unknown.glyph_shapes -->
<g id="node2" class="node">
<title>unknown.glyph_shapes</title>
<path fill="#b8e6b8" stroke="#2c3e50" stroke-width="1.8" d="M378.5,-361C378.5,-361 328.75,-361 328.75,-361 322.75,-361 316.75,-355 316.75,-349 316.75,-349 316.75,-337 316.75,-337 316.75,-331 322.75,-325 328.75,-325 328.75,-325 378.5,-325 378.5,-325 384.5,-325 390.5,-331 390.5,-337 390.5,-337 390.5,-349 390.5,-349 390.5,-355 384.5,-361 378.5,-361"/>
<text xml:space="preserve" text-anchor="middle" x="353.62" y="-339.5" font-family="Arial" font-size="10.00" fill="#1a1a1a">glyph shapes</text>
</g>
<!-- attr_1 -->
<g id="node9" class="node">
<title>attr_1</title>
<path fill="#c7b8e6" stroke="#7f8c8d" stroke-width="1.2" d="M554.5,-361C554.5,-361 465.75,-361 465.75,-361 459.75,-361 453.75,-355 453.75,-349 453.75,-349 453.75,-337 453.75,-337 453.75,-331 459.75,-325 465.75,-325 465.75,-325 554.5,-325 554.5,-325 560.5,-325 566.5,-331 566.5,-337 566.5,-337 566.5,-349 566.5,-349 566.5,-355 560.5,-361 554.5,-361"/>
<text xml:space="preserve" text-anchor="middle" x="510.12" y="-339.5" font-family="Arial" font-size="10.00" fill="#1a1a1a">(+) fine layered details</text>
</g>
<!-- unknown.glyph_shapes&#45;&gt;attr_1 -->
<g id="edge3" class="edge">
<title>unknown.glyph_shapes&#45;&gt;attr_1</title>
<path fill="none" stroke="#aaaaaa" d="M391.24,-343C407.33,-343 426.72,-343 445.08,-343"/>
<polygon fill="#aaaaaa" stroke="#aaaaaa" points="444.92,-345.45 451.92,-343 444.92,-340.55 444.92,-345.45"/>
</g>
<!-- unknown.texture_layers -->
<g id="node3" class="node">
<title>unknown.texture_layers</title>
<path fill="#b8e6b8" stroke="#2c3e50" stroke-width="1.8" d="M63.25,-393C63.25,-393 12,-393 12,-393 6,-393 0,-387 0,-381 0,-381 0,-369 0,-369 0,-363 6,-357 12,-357 12,-357 63.25,-357 63.25,-357 69.25,-357 75.25,-363 75.25,-369 75.25,-369 75.25,-381 75.25,-381 75.25,-387 69.25,-393 63.25,-393"/>
<text xml:space="preserve" text-anchor="middle" x="37.62" y="-371.5" font-family="Arial" font-size="10.00" fill="#1a1a1a">texture layers</text>
</g>
<!-- attr_2 -->
<g id="node10" class="node">
<title>attr_2</title>
<path fill="#c7b8e6" stroke="#7f8c8d" stroke-width="1.2" d="M253.88,-426C253.88,-426 138.12,-426 138.12,-426 132.12,-426 126.12,-420 126.12,-414 126.12,-414 126.12,-402 126.12,-402 126.12,-396 132.12,-390 138.12,-390 138.12,-390 253.88,-390 253.88,-390 259.88,-390 265.88,-396 265.88,-402 265.88,-402 265.88,-414 265.88,-414 265.88,-420 259.88,-426 253.88,-426"/>
<text xml:space="preserve" text-anchor="middle" x="196" y="-404.5" font-family="Arial" font-size="10.00" fill="#1a1a1a">(+) stimulating visual texture</text>
</g>
<!-- unknown.texture_layers&#45;&gt;attr_2 -->
<g id="edge4" class="edge">
<title>unknown.texture_layers&#45;&gt;attr_2</title>
<path fill="none" stroke="#aaaaaa" d="M76.08,-382.9C88.66,-385.56 103.19,-388.63 117.68,-391.68"/>
<polygon fill="#aaaaaa" stroke="#aaaaaa" points="116.88,-394.02 124.23,-393.07 117.89,-389.22 116.88,-394.02"/>
</g>
<!-- rel_2 -->
<g id="node16" class="node">
<title>rel_2</title>
<path fill="#f5b8b8" stroke="#d46a6a" stroke-width="1.2" d="M221.62,-361C221.62,-361 170.38,-361 170.38,-361 164.38,-361 158.38,-355 158.38,-349 158.38,-349 158.38,-337 158.38,-337 158.38,-331 164.38,-325 170.38,-325 170.38,-325 221.62,-325 221.62,-325 227.62,-325 233.62,-331 233.62,-337 233.62,-337 233.62,-349 233.62,-349 233.62,-355 227.62,-361 221.62,-361"/>
<text xml:space="preserve" text-anchor="middle" x="196" y="-339.5" font-family="Arial" font-size="10.00" fill="#8b0000">contributes to</text>
</g>
<!-- unknown.texture_layers&#45;&gt;rel_2 -->
<g id="edge12" class="edge">
<title>unknown.texture_layers&#45;&gt;rel_2</title>
<path fill="none" stroke="#d46a6a" stroke-width="1.5" d="M76.08,-367.34C97.65,-362.92 124.95,-357.33 147.95,-352.63"/>
<polygon fill="#d46a6a" stroke="#d46a6a" stroke-width="1.5" points="148.35,-355.4 155.63,-351.06 147.23,-349.92 148.35,-355.4"/>
</g>
<!-- unknown.context_label -->
<g id="node4" class="node">
<title>unknown.context_label</title>
<path fill="#b8e6b8" stroke="#2c3e50" stroke-width="1.8" d="M377.38,-166C377.38,-166 329.88,-166 329.88,-166 323.88,-166 317.88,-160 317.88,-154 317.88,-154 317.88,-142 317.88,-142 317.88,-136 323.88,-130 329.88,-130 329.88,-130 377.38,-130 377.38,-130 383.38,-130 389.38,-136 389.38,-142 389.38,-142 389.38,-154 389.38,-154 389.38,-160 383.38,-166 377.38,-166"/>
<text xml:space="preserve" text-anchor="middle" x="353.62" y="-144.5" font-family="Arial" font-size="10.00" fill="#1a1a1a">context label</text>
</g>
<!-- attr_3 -->
<g id="node11" class="node">
<title>attr_3</title>
<path fill="#c7b8e6" stroke="#7f8c8d" stroke-width="1.2" d="M567.62,-231C567.62,-231 452.62,-231 452.62,-231 446.62,-231 440.62,-225 440.62,-219 440.62,-219 440.62,-207 440.62,-207 440.62,-201 446.62,-195 452.62,-195 452.62,-195 567.62,-195 567.62,-195 573.62,-195 579.62,-201 579.62,-207 579.62,-207 579.62,-219 579.62,-219 579.62,-225 573.62,-231 567.62,-231"/>
<text xml:space="preserve" text-anchor="middle" x="510.12" y="-209.5" font-family="Arial" font-size="10.00" fill="#1a1a1a">(+) absent context reference</text>
</g>
<!-- unknown.context_label&#45;&gt;attr_3 -->
<g id="edge5" class="edge">
<title>unknown.context_label&#45;&gt;attr_3</title>
<path fill="none" stroke="#aaaaaa" d="M390.07,-162.91C409.99,-171.29 435.23,-181.91 457.33,-191.21"/>
<polygon fill="#aaaaaa" stroke="#aaaaaa" points="456.2,-193.39 463.61,-193.85 458.1,-188.88 456.2,-193.39"/>
</g>
<!-- rel_3 -->
<g id="node17" class="node">
<title>rel_3</title>
<path fill="#f5b8b8" stroke="#d46a6a" stroke-width="1.2" d="M546.62,-166C546.62,-166 473.62,-166 473.62,-166 467.62,-166 461.62,-160 461.62,-154 461.62,-154 461.62,-142 461.62,-142 461.62,-136 467.62,-130 473.62,-130 473.62,-130 546.62,-130 546.62,-130 552.62,-130 558.62,-136 558.62,-142 558.62,-142 558.62,-154 558.62,-154 558.62,-160 552.62,-166 546.62,-166"/>
<text xml:space="preserve" text-anchor="middle" x="510.12" y="-144.5" font-family="Arial" font-size="10.00" fill="#8b0000">lacks reference for</text>
</g>
<!-- unknown.context_label&#45;&gt;rel_3 -->
<g id="edge14" class="edge">
<title>unknown.context_label&#45;&gt;rel_3</title>
<path fill="none" stroke="#d46a6a" stroke-width="1.5" d="M390.07,-148C408.13,-148 430.56,-148 451.06,-148"/>
<polygon fill="#d46a6a" stroke="#d46a6a" stroke-width="1.5" points="450.99,-150.8 458.99,-148 450.99,-145.2 450.99,-150.8"/>
</g>
<!-- unknown.3d_structure -->
<g id="node5" class="node">
<title>unknown.3d_structure</title>
<path fill="#b8e6b8" stroke="#2c3e50" stroke-width="1.8" d="M375.5,-101C375.5,-101 331.75,-101 331.75,-101 325.75,-101 319.75,-95 319.75,-89 319.75,-89 319.75,-77 319.75,-77 319.75,-71 325.75,-65 331.75,-65 331.75,-65 375.5,-65 375.5,-65 381.5,-65 387.5,-71 387.5,-77 387.5,-77 387.5,-89 387.5,-89 387.5,-95 381.5,-101 375.5,-101"/>
<text xml:space="preserve" text-anchor="middle" x="353.62" y="-79.5" font-family="Arial" font-size="10.00" fill="#1a1a1a">3d structure</text>
</g>
<!-- attr_4 -->
<g id="node12" class="node">
<title>attr_4</title>
<path fill="#c7b8e6" stroke="#7f8c8d" stroke-width="1.2" d="M572.88,-101C572.88,-101 447.38,-101 447.38,-101 441.38,-101 435.38,-95 435.38,-89 435.38,-89 435.38,-77 435.38,-77 435.38,-71 441.38,-65 447.38,-65 447.38,-65 572.88,-65 572.88,-65 578.88,-65 584.88,-71 584.88,-77 584.88,-77 584.88,-89 584.88,-89 584.88,-95 578.88,-101 572.88,-101"/>
<text xml:space="preserve" text-anchor="middle" x="510.12" y="-79.5" font-family="Arial" font-size="10.00" fill="#1a1a1a">(+) three dimensional encoding</text>
</g>
<!-- unknown.3d_structure&#45;&gt;attr_4 -->
<g id="edge6" class="edge">
<title>unknown.3d_structure&#45;&gt;attr_4</title>
<path fill="none" stroke="#aaaaaa" d="M388.15,-83C399.61,-83 413,-83 426.6,-83"/>
<polygon fill="#aaaaaa" stroke="#aaaaaa" points="426.56,-85.45 433.56,-83 426.56,-80.55 426.56,-85.45"/>
</g>
<!-- rel_1 -->
<g id="node15" class="node">
<title>rel_1</title>
<path fill="#f5b8b8" stroke="#d46a6a" stroke-width="1.2" d="M574.75,-36C574.75,-36 445.5,-36 445.5,-36 439.5,-36 433.5,-30 433.5,-24 433.5,-24 433.5,-12 433.5,-12 433.5,-6 439.5,0 445.5,0 445.5,0 574.75,0 574.75,0 580.75,0 586.75,-6 586.75,-12 586.75,-12 586.75,-24 586.75,-24 586.75,-30 580.75,-36 574.75,-36"/>
<text xml:space="preserve" text-anchor="middle" x="510.12" y="-14.5" font-family="Arial" font-size="10.00" fill="#8b0000">increases perceived complexity</text>
</g>
<!-- unknown.3d_structure&#45;&gt;rel_1 -->
<g id="edge10" class="edge">
<title>unknown.3d_structure&#45;&gt;rel_1</title>
<path fill="none" stroke="#d46a6a" stroke-width="1.5" d="M388.15,-68.9C407.87,-60.6 433.27,-49.91 455.7,-40.48"/>
<polygon fill="#d46a6a" stroke="#d46a6a" stroke-width="1.5" points="456.72,-43.09 463.01,-37.4 454.55,-37.92 456.72,-43.09"/>
</g>
<!-- unknown.right_panel -->
<g id="node6" class="node">
<title>unknown.right_panel</title>
<path fill="#b8e6b8" stroke="#2c3e50" stroke-width="1.8" d="M678.75,-101C678.75,-101 641.75,-101 641.75,-101 635.75,-101 629.75,-95 629.75,-89 629.75,-89 629.75,-77 629.75,-77 629.75,-71 635.75,-65 641.75,-65 641.75,-65 678.75,-65 678.75,-65 684.75,-65 690.75,-71 690.75,-77 690.75,-77 690.75,-89 690.75,-89 690.75,-95 684.75,-101 678.75,-101"/>
<text xml:space="preserve" text-anchor="middle" x="660.25" y="-79.5" font-family="Arial" font-size="10.00" fill="#1a1a1a">right panel</text>
</g>
<!-- attr_5 -->
<g id="node13" class="node">
<title>attr_5</title>
<path fill="#c7b8e6" stroke="#7f8c8d" stroke-width="1.2" d="M871.25,-101C871.25,-101 745.75,-101 745.75,-101 739.75,-101 733.75,-95 733.75,-89 733.75,-89 733.75,-77 733.75,-77 733.75,-71 739.75,-65 745.75,-65 745.75,-65 871.25,-65 871.25,-65 877.25,-65 883.25,-71 883.25,-77 883.25,-77 883.25,-89 883.25,-89 883.25,-95 877.25,-101 871.25,-101"/>
<text xml:space="preserve" text-anchor="middle" x="808.5" y="-79.5" font-family="Arial" font-size="10.00" fill="#1a1a1a">(+) more data more complexity</text>
</g>
<!-- unknown.right_panel&#45;&gt;attr_5 -->
<g id="edge7" class="edge">
<title>unknown.right_panel&#45;&gt;attr_5</title>
<path fill="none" stroke="#aaaaaa" d="M691.55,-83C701.48,-83 713.03,-83 724.92,-83"/>
<polygon fill="#aaaaaa" stroke="#aaaaaa" points="724.67,-85.45 731.67,-83 724.67,-80.55 724.67,-85.45"/>
</g>
<!-- rel_0&#45;&gt;unknown.context_label -->
<g id="edge9" class="edge">
<title>rel_0&#45;&gt;unknown.context_label</title>
<path fill="none" stroke="#d46a6a" stroke-width="1.5" d="M230.77,-148C253.06,-148 282.55,-148 306.93,-148"/>
<polygon fill="#d46a6a" stroke="#d46a6a" stroke-width="1.5" points="306.76,-150.8 314.76,-148 306.76,-145.2 306.76,-150.8"/>
</g>
<!-- rel_1&#45;&gt;unknown.right_panel -->
<g id="edge11" class="edge">
<title>rel_1&#45;&gt;unknown.right_panel</title>
<path fill="none" stroke="#d46a6a" stroke-width="1.5" d="M555.6,-36.58C565.85,-40.93 576.7,-45.59 586.75,-50 597.52,-54.73 609.14,-59.96 619.86,-64.84"/>
<polygon fill="#d46a6a" stroke="#d46a6a" stroke-width="1.5" points="618.49,-67.29 626.93,-68.07 620.82,-62.2 618.49,-67.29"/>
</g>
<!-- rel_2&#45;&gt;unknown.glyph_shapes -->
<g id="edge13" class="edge">
<title>rel_2&#45;&gt;unknown.glyph_shapes</title>
<path fill="none" stroke="#d46a6a" stroke-width="1.5" d="M233.88,-343C255.39,-343 282.74,-343 305.77,-343"/>
<polygon fill="#d46a6a" stroke="#d46a6a" stroke-width="1.5" points="305.74,-345.8 313.74,-343 305.74,-340.2 305.74,-345.8"/>
</g>
<!-- rel_3&#45;&gt;unknown.right_panel -->
<g id="edge15" class="edge">
<title>rel_3&#45;&gt;unknown.right_panel</title>
<path fill="none" stroke="#d46a6a" stroke-width="1.5" d="M553.54,-129.53C564.37,-124.8 575.99,-119.72 586.75,-115 597.47,-110.3 609.07,-105.18 619.78,-100.46"/>
<polygon fill="#d46a6a" stroke="#d46a6a" stroke-width="1.5" points="620.66,-103.13 626.85,-97.34 618.4,-98.01 620.66,-103.13"/>
</g>
<!-- rel_4&#45;&gt;unknown.3d_structure -->
<g id="edge17" class="edge">
<title>rel_4&#45;&gt;unknown.3d_structure</title>
<path fill="none" stroke="#d46a6a" stroke-width="1.5" d="M253.18,-83C271.67,-83 291.93,-83 309.3,-83"/>
<polygon fill="#d46a6a" stroke="#d46a6a" stroke-width="1.5" points="308.9,-85.8 316.9,-83 308.9,-80.2 308.9,-85.8"/>
</g>
</g>
</svg>
