<?xml version="1.0" encoding="UTF-8" standalone="no"?>
<!DOCTYPE svg PUBLIC "-//W3C//DTD SVG 1.1//EN"
 "http://www.w3.org/Graphics/SVG/1.1/DTD/svg11.dtd">
<!-- Generated by graphviz version 14.1.5 (20260411.2331)
 -->
<!-- Title: VisJ.1499.5.png Pages: 1 -->
<svg width="1027pt" height="244pt"
 viewBox="0.00 0.00 1027.00 244.00" xmlns="http://www.w3.org/2000/svg" xmlns:xlink="http://www.w3.org/1999/xlink">
<g id="graph0" class="graph" transform="scale(1 1) rotate(0) translate(4 240.25)">
<title>VisJ.1499.5.png</title>
<polygon fill="white" stroke="none" points="-4,4 -4,-240.25 1022.75,-240.25 1022.75,4 -4,4"/>
<text xml:space="preserve" text-anchor="start" x="458.75" y="-215.95" font-family="Arial" font-weight="bold" font-size="14.00">VisJ.1499.5.png</text>
<text xml:space="preserve" text-anchor="start" x="463.25" y="-196" font-family="Arial" font-size="11.00">Glyph &#160;| &#160;VC = 0.74</text>
<path fill="#b8e6b8" stroke="none" d="M300,-171C300,-171 308,-171 308,-171 311,-171 314,-174 314,-177 314,-177 314,-183 314,-183 314,-186 311,-189 308,-189 308,-189 300,-189 300,-189 297,-189 294,-186 294,-183 294,-183 294,-177 294,-177 294,-174 297,-171 300,-171"/>
<path fill="none" stroke="black" d="M300,-171C300,-171 308,-171 308,-171 311,-171 314,-174 314,-177 314,-177 314,-183 314,-183 314,-186 311,-189 308,-189 308,-189 300,-189 300,-189 297,-189 294,-186 294,-183 294,-183 294,-177 294,-177 294,-174 297,-171 300,-171"/>
<text xml:space="preserve" text-anchor="start" x="302.5" y="-176.25" font-family="Arial" font-size="10.00"> </text>
<text xml:space="preserve" text-anchor="start" x="318" y="-176.25" font-family="Arial" font-size="10.00">Object</text>
<path fill="#c7b8e6" stroke="none" d="M356.5,-171C356.5,-171 364.5,-171 364.5,-171 367.5,-171 370.5,-174 370.5,-177 370.5,-177 370.5,-183 370.5,-183 370.5,-186 367.5,-189 364.5,-189 364.5,-189 356.5,-189 356.5,-189 353.5,-189 350.5,-186 350.5,-183 350.5,-183 350.5,-177 350.5,-177 350.5,-174 353.5,-171 356.5,-171"/>
<path fill="none" stroke="black" d="M356.5,-171C356.5,-171 364.5,-171 364.5,-171 367.5,-171 370.5,-174 370.5,-177 370.5,-177 370.5,-183 370.5,-183 370.5,-186 367.5,-189 364.5,-189 364.5,-189 356.5,-189 356.5,-189 353.5,-189 350.5,-186 350.5,-183 350.5,-183 350.5,-177 350.5,-177 350.5,-174 353.5,-171 356.5,-171"/>
<text xml:space="preserve" text-anchor="start" x="359" y="-176.25" font-family="Arial" font-size="10.00"> </text>
<text xml:space="preserve" text-anchor="start" x="374.5" y="-176.25" font-family="Arial" font-size="10.00">Attribute</text>
<path fill="#f5b8b8" stroke="none" d="M421.25,-171C421.25,-171 429.25,-171 429.25,-171 432.25,-171 435.25,-174 435.25,-177 435.25,-177 435.25,-183 435.25,-183 435.25,-186 432.25,-189 429.25,-189 429.25,-189 421.25,-189 421.25,-189 418.25,-189 415.25,-186 415.25,-183 415.25,-183 415.25,-177 415.25,-177 415.25,-174 418.25,-171 421.25,-171"/>
<path fill="none" stroke="black" d="M421.25,-171C421.25,-171 429.25,-171 429.25,-171 432.25,-171 435.25,-174 435.25,-177 435.25,-177 435.25,-183 435.25,-183 435.25,-186 432.25,-189 429.25,-189 429.25,-189 421.25,-189 421.25,-189 418.25,-189 415.25,-186 415.25,-183 415.25,-183 415.25,-177 415.25,-177 415.25,-174 418.25,-171 421.25,-171"/>
<text xml:space="preserve" text-anchor="start" x="423.75" y="-176.25" font-family="Arial" font-size="10.00"> </text>
<text xml:space="preserve" text-anchor="start" x="439.25" y="-176.25" font-family="Arial" font-size="10.00">Relationship</text>
<text xml:space="preserve" text-anchor="start" x="499.25" y="-177.5" font-family="Arial" font-weight="bold" font-size="10.00">(+)</text>
<text xml:space="preserve" text-anchor="start" x="511.25" y="-177.5" font-family="Arial" font-size="10.00"> increases complexity</text>
<text xml:space="preserve" text-anchor="start" x="612.5" y="-177.5" font-family="Arial" font-weight="bold" font-size="10.00">(−)</text>
<text xml:space="preserve" text-anchor="start" x="624.5" y="-177.5" font-family="Arial" font-size="10.00"> decreases complexity</text>
<!-- unknown.glyph -->
<g id="node1" class="node">
<title>unknown.glyph</title>
<path fill="#b8e6b8" stroke="#2c3e50" stroke-width="1.8" d="M330.25,-100C330.25,-100 300.25,-100 300.25,-100 294.25,-100 288.25,-94 288.25,-88 288.25,-88 288.25,-76 288.25,-76 288.25,-70 294.25,-64 300.25,-64 300.25,-64 330.25,-64 330.25,-64 336.25,-64 342.25,-70 342.25,-76 342.25,-76 342.25,-88 342.25,-88 342.25,-94 336.25,-100 330.25,-100"/>
<text xml:space="preserve" text-anchor="middle" x="315.25" y="-78.5" font-family="Arial" font-size="10.00" fill="#1a1a1a">glyph</text>
</g>
<!-- attr_0 -->
<g id="node5" class="node">
<title>attr_0</title>
<path fill="#c7b8e6" stroke="#7f8c8d" stroke-width="1.2" d="M468,-133C468,-133 397.25,-133 397.25,-133 391.25,-133 385.25,-127 385.25,-121 385.25,-121 385.25,-109 385.25,-109 385.25,-103 391.25,-97 397.25,-97 397.25,-97 468,-97 468,-97 474,-97 480,-103 480,-109 480,-109 480,-121 480,-121 480,-127 474,-133 468,-133"/>
<text xml:space="preserve" text-anchor="middle" x="432.62" y="-111.5" font-family="Arial" font-size="10.00" fill="#1a1a1a">(+) difficult to read</text>
</g>
<!-- unknown.glyph&#45;&gt;attr_0 -->
<g id="edge1" class="edge">
<title>unknown.glyph&#45;&gt;attr_0</title>
<path fill="none" stroke="#aaaaaa" d="M343.01,-89.65C353.07,-92.53 364.91,-95.92 376.61,-99.26"/>
<polygon fill="#aaaaaa" stroke="#aaaaaa" points="375.8,-101.58 383.2,-101.15 377.14,-96.87 375.8,-101.58"/>
</g>
<!-- rel_0 -->
<g id="node9" class="node">
<title>rel_0</title>
<path fill="#f5b8b8" stroke="#d46a6a" stroke-width="1.2" d="M449.62,-68C449.62,-68 415.62,-68 415.62,-68 409.62,-68 403.62,-62 403.62,-56 403.62,-56 403.62,-44 403.62,-44 403.62,-38 409.62,-32 415.62,-32 415.62,-32 449.62,-32 449.62,-32 455.62,-32 461.62,-38 461.62,-44 461.62,-44 461.62,-56 461.62,-56 461.62,-62 455.62,-68 449.62,-68"/>
<text xml:space="preserve" text-anchor="middle" x="432.62" y="-46.5" font-family="Arial" font-size="10.00" fill="#8b0000">increases</text>
</g>
<!-- unknown.glyph&#45;&gt;rel_0 -->
<g id="edge5" class="edge">
<title>unknown.glyph&#45;&gt;rel_0</title>
<path fill="none" stroke="#d46a6a" stroke-width="1.5" d="M343.01,-74.58C358.15,-70.38 377.31,-65.06 393.95,-60.45"/>
<polygon fill="#d46a6a" stroke="#d46a6a" stroke-width="1.5" points="394.25,-63.27 401.21,-58.43 392.76,-57.87 394.25,-63.27"/>
</g>
<!-- unknown.visual_encoding -->
<g id="node2" class="node">
<title>unknown.visual_encoding</title>
<path fill="#b8e6b8" stroke="#2c3e50" stroke-width="1.8" d="M594.5,-68C594.5,-68 535,-68 535,-68 529,-68 523,-62 523,-56 523,-56 523,-44 523,-44 523,-38 529,-32 535,-32 535,-32 594.5,-32 594.5,-32 600.5,-32 606.5,-38 606.5,-44 606.5,-44 606.5,-56 606.5,-56 606.5,-62 600.5,-68 594.5,-68"/>
<text xml:space="preserve" text-anchor="middle" x="564.75" y="-46.5" font-family="Arial" font-size="10.00" fill="#1a1a1a">visual encoding</text>
</g>
<!-- attr_1 -->
<g id="node6" class="node">
<title>attr_1</title>
<path fill="#c7b8e6" stroke="#7f8c8d" stroke-width="1.2" d="M754.75,-101C754.75,-101 661.5,-101 661.5,-101 655.5,-101 649.5,-95 649.5,-89 649.5,-89 649.5,-77 649.5,-77 649.5,-71 655.5,-65 661.5,-65 661.5,-65 754.75,-65 754.75,-65 760.75,-65 766.75,-71 766.75,-77 766.75,-77 766.75,-89 766.75,-89 766.75,-95 760.75,-101 754.75,-101"/>
<text xml:space="preserve" text-anchor="middle" x="708.12" y="-79.5" font-family="Arial" font-size="10.00" fill="#1a1a1a">(+) low clarity encoding</text>
</g>
<!-- unknown.visual_encoding&#45;&gt;attr_1 -->
<g id="edge2" class="edge">
<title>unknown.visual_encoding&#45;&gt;attr_1</title>
<path fill="none" stroke="#aaaaaa" d="M607.02,-59.63C617.68,-62.12 629.43,-64.86 641.01,-67.57"/>
<polygon fill="#aaaaaa" stroke="#aaaaaa" points="640.14,-69.88 647.52,-69.09 641.26,-65.11 640.14,-69.88"/>
</g>
<!-- rel_1 -->
<g id="node10" class="node">
<title>rel_1</title>
<path fill="#f5b8b8" stroke="#d46a6a" stroke-width="1.2" d="M724,-36C724,-36 692.25,-36 692.25,-36 686.25,-36 680.25,-30 680.25,-24 680.25,-24 680.25,-12 680.25,-12 680.25,-6 686.25,0 692.25,0 692.25,0 724,0 724,0 730,0 736,-6 736,-12 736,-12 736,-24 736,-24 736,-30 730,-36 724,-36"/>
<text xml:space="preserve" text-anchor="middle" x="708.12" y="-14.5" font-family="Arial" font-size="10.00" fill="#8b0000">obscures</text>
</g>
<!-- unknown.visual_encoding&#45;&gt;rel_1 -->
<g id="edge7" class="edge">
<title>unknown.visual_encoding&#45;&gt;rel_1</title>
<path fill="none" stroke="#d46a6a" stroke-width="1.5" d="M607.02,-40.66C626.92,-36.15 650.6,-30.79 669.93,-26.42"/>
<polygon fill="#d46a6a" stroke="#d46a6a" stroke-width="1.5" points="670.49,-29.16 677.67,-24.67 669.25,-23.7 670.49,-29.16"/>
</g>
<!-- structure.layout -->
<g id="node3" class="node">
<title>structure.layout</title>
<path fill="#b8e6b8" stroke="#2c3e50" stroke-width="1.8" d="M851.75,-36C851.75,-36 821.75,-36 821.75,-36 815.75,-36 809.75,-30 809.75,-24 809.75,-24 809.75,-12 809.75,-12 809.75,-6 815.75,0 821.75,0 821.75,0 851.75,0 851.75,0 857.75,0 863.75,-6 863.75,-12 863.75,-12 863.75,-24 863.75,-24 863.75,-30 857.75,-36 851.75,-36"/>
<text xml:space="preserve" text-anchor="middle" x="836.75" y="-14.5" font-family="Arial" font-size="10.00" fill="#1a1a1a">layout</text>
</g>
<!-- attr_2 -->
<g id="node7" class="node">
<title>attr_2</title>
<path fill="#c7b8e6" stroke="#7f8c8d" stroke-width="1.2" d="M1006.75,-36C1006.75,-36 918.75,-36 918.75,-36 912.75,-36 906.75,-30 906.75,-24 906.75,-24 906.75,-12 906.75,-12 906.75,-6 912.75,0 918.75,0 918.75,0 1006.75,0 1006.75,0 1012.75,0 1018.75,-6 1018.75,-12 1018.75,-12 1018.75,-24 1018.75,-24 1018.75,-30 1012.75,-36 1006.75,-36"/>
<text xml:space="preserve" text-anchor="middle" x="962.75" y="-14.5" font-family="Arial" font-size="10.00" fill="#1a1a1a">(+) visually congested</text>
</g>
<!-- structure.layout&#45;&gt;attr_2 -->
<g id="edge3" class="edge">
<title>structure.layout&#45;&gt;attr_2</title>
<path fill="none" stroke="#aaaaaa" d="M864.35,-18C874.35,-18 886.21,-18 898.14,-18"/>
<polygon fill="#aaaaaa" stroke="#aaaaaa" points="897.87,-20.45 904.87,-18 897.87,-15.55 897.87,-20.45"/>
</g>
<!-- unknown.comparison_target -->
<g id="node4" class="node">
<title>unknown.comparison_target</title>
<path fill="#b8e6b8" stroke="#2c3e50" stroke-width="1.8" d="M82,-132C82,-132 12,-132 12,-132 6,-132 0,-126 0,-120 0,-120 0,-108 0,-108 0,-102 6,-96 12,-96 12,-96 82,-96 82,-96 88,-96 94,-102 94,-108 94,-108 94,-120 94,-120 94,-126 88,-132 82,-132"/>
<text xml:space="preserve" text-anchor="middle" x="47" y="-110.5" font-family="Arial" font-size="10.00" fill="#1a1a1a">comparison target</text>
</g>
<!-- attr_3 -->
<g id="node8" class="node">
<title>attr_3</title>
<path fill="#c7b8e6" stroke="#7f8c8d" stroke-width="1.2" d="M233.25,-165C233.25,-165 149,-165 149,-165 143,-165 137,-159 137,-153 137,-153 137,-141 137,-141 137,-135 143,-129 149,-129 149,-129 233.25,-129 233.25,-129 239.25,-129 245.25,-135 245.25,-141 245.25,-141 245.25,-153 245.25,-153 245.25,-159 239.25,-165 233.25,-165"/>
<text xml:space="preserve" text-anchor="middle" x="191.12" y="-143.5" font-family="Arial" font-size="10.00" fill="#1a1a1a">(−) easier to perceive</text>
</g>
<!-- unknown.comparison_target&#45;&gt;attr_3 -->
<g id="edge4" class="edge">
<title>unknown.comparison_target&#45;&gt;attr_3</title>
<path fill="none" stroke="#aaaaaa" d="M94.54,-124.81C105.35,-127.32 117.03,-130.03 128.38,-132.66"/>
<polygon fill="#aaaaaa" stroke="#aaaaaa" points="127.73,-135.03 135.1,-134.22 128.84,-130.25 127.73,-135.03"/>
</g>
<!-- rel_2 -->
<g id="node11" class="node">
<title>rel_2</title>
<path fill="#f5b8b8" stroke="#d46a6a" stroke-width="1.2" d="M217.88,-100C217.88,-100 164.38,-100 164.38,-100 158.38,-100 152.38,-94 152.38,-88 152.38,-88 152.38,-76 152.38,-76 152.38,-70 158.38,-64 164.38,-64 164.38,-64 217.88,-64 217.88,-64 223.88,-64 229.88,-70 229.88,-76 229.88,-76 229.88,-88 229.88,-88 229.88,-94 223.88,-100 217.88,-100"/>
<text xml:space="preserve" text-anchor="middle" x="191.12" y="-78.5" font-family="Arial" font-size="10.00" fill="#8b0000">contrasts with</text>
</g>
<!-- unknown.comparison_target&#45;&gt;rel_2 -->
<g id="edge9" class="edge">
<title>unknown.comparison_target&#45;&gt;rel_2</title>
<path fill="none" stroke="#d46a6a" stroke-width="1.5" d="M94.54,-103.52C109.81,-100.08 126.81,-96.26 142.18,-92.79"/>
<polygon fill="#d46a6a" stroke="#d46a6a" stroke-width="1.5" points="142.62,-95.57 149.81,-91.08 141.39,-90.1 142.62,-95.57"/>
</g>
<!-- rel_0&#45;&gt;unknown.visual_encoding -->
<g id="edge6" class="edge">
<title>rel_0&#45;&gt;unknown.visual_encoding</title>
<path fill="none" stroke="#d46a6a" stroke-width="1.5" d="M462.18,-50C476.94,-50 495.41,-50 512.53,-50"/>
<polygon fill="#d46a6a" stroke="#d46a6a" stroke-width="1.5" points="512.15,-52.8 520.15,-50 512.15,-47.2 512.15,-52.8"/>
</g>
<!-- rel_1&#45;&gt;structure.layout -->
<g id="edge8" class="edge">
<title>rel_1&#45;&gt;structure.layout</title>
<path fill="none" stroke="#d46a6a" stroke-width="1.5" d="M736.29,-18C754.61,-18 778.99,-18 799.04,-18"/>
<polygon fill="#d46a6a" stroke="#d46a6a" stroke-width="1.5" points="798.8,-20.8 806.79,-18 798.79,-15.2 798.8,-20.8"/>
</g>
<!-- rel_2&#45;&gt;unknown.glyph -->
<g id="edge10" class="edge">
<title>rel_2&#45;&gt;unknown.glyph</title>
<path fill="none" stroke="#d46a6a" stroke-width="1.5" d="M230.43,-82C245.55,-82 262.84,-82 277.77,-82"/>
<polygon fill="#d46a6a" stroke="#d46a6a" stroke-width="1.5" points="277.41,-84.8 285.41,-82 277.41,-79.2 277.41,-84.8"/>
</g>
</g>
</svg>
