<?xml version="1.0" encoding="UTF-8" standalone="no"?>
<!DOCTYPE svg PUBLIC "-//W3C//DTD SVG 1.1//EN"
 "http://www.w3.org/Graphics/SVG/1.1/DTD/svg11.dtd">
<!-- Generated by graphviz version 14.1.5 (20260411.2331)
 -->
<!-- Title: VisJ.1949.18.png Pages: 1 -->
<svg width="1154pt" height="433pt"
 viewBox="0.00 0.00 1154.00 433.00" xmlns="http://www.w3.org/2000/svg" xmlns:xlink="http://www.w3.org/1999/xlink">
<g id="graph0" class="graph" transform="scale(1 1) rotate(0) translate(4 429.25)">
<title>VisJ.1949.18.png</title>
<polygon fill="white" stroke="none" points="-4,4 -4,-429.25 1149.5,-429.25 1149.5,4 -4,4"/>
<text xml:space="preserve" text-anchor="start" x="518.38" y="-404.95" font-family="Arial" font-weight="bold" font-size="14.00">VisJ.1949.18.png</text>
<text xml:space="preserve" text-anchor="start" x="526.62" y="-385" font-family="Arial" font-size="11.00">Glyph &#160;| &#160;VC = 0.63</text>
<path fill="#b8e6b8" stroke="none" d="M363.38,-360C363.38,-360 371.38,-360 371.38,-360 374.38,-360 377.38,-363 377.38,-366 377.38,-366 377.38,-372 377.38,-372 377.38,-375 374.38,-378 371.38,-378 371.38,-378 363.38,-378 363.38,-378 360.38,-378 357.38,-375 357.38,-372 357.38,-372 357.38,-366 357.38,-366 357.38,-363 360.38,-360 363.38,-360"/>
<path fill="none" stroke="black" d="M363.38,-360C363.38,-360 371.38,-360 371.38,-360 374.38,-360 377.38,-363 377.38,-366 377.38,-366 377.38,-372 377.38,-372 377.38,-375 374.38,-378 371.38,-378 371.38,-378 363.38,-378 363.38,-378 360.38,-378 357.38,-375 357.38,-372 357.38,-372 357.38,-366 357.38,-366 357.38,-363 360.38,-360 363.38,-360"/>
<text xml:space="preserve" text-anchor="start" x="365.88" y="-365.25" font-family="Arial" font-size="10.00"> </text>
<text xml:space="preserve" text-anchor="start" x="381.38" y="-365.25" font-family="Arial" font-size="10.00">Object</text>
<path fill="#c7b8e6" stroke="none" d="M419.88,-360C419.88,-360 427.88,-360 427.88,-360 430.88,-360 433.88,-363 433.88,-366 433.88,-366 433.88,-372 433.88,-372 433.88,-375 430.88,-378 427.88,-378 427.88,-378 419.88,-378 419.88,-378 416.88,-378 413.88,-375 413.88,-372 413.88,-372 413.88,-366 413.88,-366 413.88,-363 416.88,-360 419.88,-360"/>
<path fill="none" stroke="black" d="M419.88,-360C419.88,-360 427.88,-360 427.88,-360 430.88,-360 433.88,-363 433.88,-366 433.88,-366 433.88,-372 433.88,-372 433.88,-375 430.88,-378 427.88,-378 427.88,-378 419.88,-378 419.88,-378 416.88,-378 413.88,-375 413.88,-372 413.88,-372 413.88,-366 413.88,-366 413.88,-363 416.88,-360 419.88,-360"/>
<text xml:space="preserve" text-anchor="start" x="422.38" y="-365.25" font-family="Arial" font-size="10.00"> </text>
<text xml:space="preserve" text-anchor="start" x="437.88" y="-365.25" font-family="Arial" font-size="10.00">Attribute</text>
<path fill="#f5b8b8" stroke="none" d="M484.62,-360C484.62,-360 492.62,-360 492.62,-360 495.62,-360 498.62,-363 498.62,-366 498.62,-366 498.62,-372 498.62,-372 498.62,-375 495.62,-378 492.62,-378 492.62,-378 484.62,-378 484.62,-378 481.62,-378 478.62,-375 478.62,-372 478.62,-372 478.62,-366 478.62,-366 478.62,-363 481.62,-360 484.62,-360"/>
<path fill="none" stroke="black" d="M484.62,-360C484.62,-360 492.62,-360 492.62,-360 495.62,-360 498.62,-363 498.62,-366 498.62,-366 498.62,-372 498.62,-372 498.62,-375 495.62,-378 492.62,-378 492.62,-378 484.62,-378 484.62,-378 481.62,-378 478.62,-375 478.62,-372 478.62,-372 478.62,-366 478.62,-366 478.62,-363 481.62,-360 484.62,-360"/>
<text xml:space="preserve" text-anchor="start" x="487.12" y="-365.25" font-family="Arial" font-size="10.00"> </text>
<text xml:space="preserve" text-anchor="start" x="502.62" y="-365.25" font-family="Arial" font-size="10.00">Relationship</text>
<text xml:space="preserve" text-anchor="start" x="562.62" y="-366.5" font-family="Arial" font-weight="bold" font-size="10.00">(+)</text>
<text xml:space="preserve" text-anchor="start" x="574.62" y="-366.5" font-family="Arial" font-size="10.00"> increases complexity</text>
<text xml:space="preserve" text-anchor="start" x="675.88" y="-366.5" font-family="Arial" font-weight="bold" font-size="10.00">(−)</text>
<text xml:space="preserve" text-anchor="start" x="687.88" y="-366.5" font-family="Arial" font-size="10.00"> decreases complexity</text>
<!-- unknown.glyph -->
<g id="node1" class="node">
<title>unknown.glyph</title>
<path fill="#b8e6b8" stroke="#2c3e50" stroke-width="1.8" d="M935,-101C935,-101 905,-101 905,-101 899,-101 893,-95 893,-89 893,-89 893,-77 893,-77 893,-71 899,-65 905,-65 905,-65 935,-65 935,-65 941,-65 947,-71 947,-77 947,-77 947,-89 947,-89 947,-95 941,-101 935,-101"/>
<text xml:space="preserve" text-anchor="middle" x="920" y="-79.5" font-family="Arial" font-size="10.00" fill="#1a1a1a">glyph</text>
</g>
<!-- attr_4 -->
<g id="node6" class="node">
<title>attr_4</title>
<path fill="#c7b8e6" stroke="#7f8c8d" stroke-width="1.2" d="M1133.5,-101C1133.5,-101 1002,-101 1002,-101 996,-101 990,-95 990,-89 990,-89 990,-77 990,-77 990,-71 996,-65 1002,-65 1002,-65 1133.5,-65 1133.5,-65 1139.5,-65 1145.5,-71 1145.5,-77 1145.5,-77 1145.5,-89 1145.5,-89 1145.5,-95 1139.5,-101 1133.5,-101"/>
<text xml:space="preserve" text-anchor="middle" x="1067.75" y="-79.5" font-family="Arial" font-size="10.00" fill="#1a1a1a">(+) subtle inter glyph differences</text>
</g>
<!-- unknown.glyph&#45;&gt;attr_4 -->
<g id="edge1" class="edge">
<title>unknown.glyph&#45;&gt;attr_4</title>
<path fill="none" stroke="#aaaaaa" d="M947.73,-83C957.48,-83 969.1,-83 981.2,-83"/>
<polygon fill="#aaaaaa" stroke="#aaaaaa" points="981.13,-85.45 988.13,-83 981.13,-80.55 981.13,-85.45"/>
</g>
<!-- mark.shape -->
<g id="node2" class="node">
<title>mark.shape</title>
<path fill="#b8e6b8" stroke="#2c3e50" stroke-width="1.8" d="M42,-292C42,-292 12,-292 12,-292 6,-292 0,-286 0,-280 0,-280 0,-268 0,-268 0,-262 6,-256 12,-256 12,-256 42,-256 42,-256 48,-256 54,-262 54,-268 54,-268 54,-280 54,-280 54,-286 48,-292 42,-292"/>
<text xml:space="preserve" text-anchor="middle" x="27" y="-270.5" font-family="Arial" font-size="10.00" fill="#1a1a1a">shape</text>
</g>
<!-- attr_1 -->
<g id="node7" class="node">
<title>attr_1</title>
<path fill="#c7b8e6" stroke="#7f8c8d" stroke-width="1.2" d="M203,-354C203,-354 109,-354 109,-354 103,-354 97,-348 97,-342 97,-342 97,-330 97,-330 97,-324 103,-318 109,-318 109,-318 203,-318 203,-318 209,-318 215,-324 215,-330 215,-330 215,-342 215,-342 215,-348 209,-354 203,-354"/>
<text xml:space="preserve" text-anchor="middle" x="156" y="-332.5" font-family="Arial" font-size="10.00" fill="#1a1a1a">(+) varied overall shape</text>
</g>
<!-- mark.shape&#45;&gt;attr_1 -->
<g id="edge2" class="edge">
<title>mark.shape&#45;&gt;attr_1</title>
<path fill="none" stroke="#aaaaaa" d="M54.62,-287C70.68,-294.83 91.54,-305.02 110.09,-314.07"/>
<polygon fill="#aaaaaa" stroke="#aaaaaa" points="108.61,-316.08 115.97,-316.95 110.76,-311.67 108.61,-316.08"/>
</g>
<!-- rel_0 -->
<g id="node12" class="node">
<title>rel_0</title>
<path fill="#f5b8b8" stroke="#d46a6a" stroke-width="1.2" d="M326.88,-293C326.88,-293 276.38,-293 276.38,-293 270.38,-293 264.38,-287 264.38,-281 264.38,-281 264.38,-269 264.38,-269 264.38,-263 270.38,-257 276.38,-257 276.38,-257 326.88,-257 326.88,-257 332.88,-257 338.88,-263 338.88,-269 338.88,-269 338.88,-281 338.88,-281 338.88,-287 332.88,-293 326.88,-293"/>
<text xml:space="preserve" text-anchor="middle" x="301.62" y="-271.5" font-family="Arial" font-size="10.00" fill="#8b0000">varies across</text>
</g>
<!-- mark.shape&#45;&gt;rel_0 -->
<g id="edge7" class="edge">
<title>mark.shape&#45;&gt;rel_0</title>
<path fill="none" stroke="#d46a6a" stroke-width="1.5" d="M54.64,-274.1C100.9,-274.27 196.63,-274.62 254.07,-274.83"/>
<polygon fill="#d46a6a" stroke="#d46a6a" stroke-width="1.5" points="253.71,-277.63 261.72,-274.86 253.73,-272.03 253.71,-277.63"/>
</g>
<!-- rel_4 -->
<g id="node16" class="node">
<title>rel_4</title>
<path fill="#f5b8b8" stroke="#d46a6a" stroke-width="1.2" d="M201.5,-229C201.5,-229 110.5,-229 110.5,-229 104.5,-229 98.5,-223 98.5,-217 98.5,-217 98.5,-205 98.5,-205 98.5,-199 104.5,-193 110.5,-193 110.5,-193 201.5,-193 201.5,-193 207.5,-193 213.5,-199 213.5,-205 213.5,-205 213.5,-217 213.5,-217 213.5,-223 207.5,-229 201.5,-229"/>
<text xml:space="preserve" text-anchor="middle" x="156" y="-207.5" font-family="Arial" font-size="10.00" fill="#8b0000">requires comparison of</text>
</g>
<!-- mark.shape&#45;&gt;rel_4 -->
<g id="edge15" class="edge">
<title>mark.shape&#45;&gt;rel_4</title>
<path fill="none" stroke="#d46a6a" stroke-width="1.5" d="M54.62,-260.79C70.38,-252.98 90.76,-242.87 109.04,-233.8"/>
<polygon fill="#d46a6a" stroke="#d46a6a" stroke-width="1.5" points="109.86,-236.52 115.78,-230.45 107.37,-231.5 109.86,-236.52"/>
</g>
<!-- unknown.color_distribution -->
<g id="node3" class="node">
<title>unknown.color_distribution</title>
<path fill="#b8e6b8" stroke="#2c3e50" stroke-width="1.8" d="M333.25,-228C333.25,-228 270,-228 270,-228 264,-228 258,-222 258,-216 258,-216 258,-204 258,-204 258,-198 264,-192 270,-192 270,-192 333.25,-192 333.25,-192 339.25,-192 345.25,-198 345.25,-204 345.25,-204 345.25,-216 345.25,-216 345.25,-222 339.25,-228 333.25,-228"/>
<text xml:space="preserve" text-anchor="middle" x="301.62" y="-206.5" font-family="Arial" font-size="10.00" fill="#1a1a1a">color distribution</text>
</g>
<!-- attr_2 -->
<g id="node8" class="node">
<title>attr_2</title>
<path fill="#c7b8e6" stroke="#7f8c8d" stroke-width="1.2" d="M520.12,-231C520.12,-231 405.88,-231 405.88,-231 399.88,-231 393.88,-225 393.88,-219 393.88,-219 393.88,-207 393.88,-207 393.88,-201 399.88,-195 405.88,-195 405.88,-195 520.12,-195 520.12,-195 526.12,-195 532.12,-201 532.12,-207 532.12,-207 532.12,-219 532.12,-219 532.12,-225 526.12,-231 520.12,-231"/>
<text xml:space="preserve" text-anchor="middle" x="463" y="-209.5" font-family="Arial" font-size="10.00" fill="#1a1a1a">(+) varied color arrangement</text>
</g>
<!-- unknown.color_distribution&#45;&gt;attr_2 -->
<g id="edge3" class="edge">
<title>unknown.color_distribution&#45;&gt;attr_2</title>
<path fill="none" stroke="#aaaaaa" d="M345.75,-210.81C357.89,-211.04 371.48,-211.3 384.96,-211.55"/>
<polygon fill="#aaaaaa" stroke="#aaaaaa" points="384.77,-214 391.81,-211.68 384.86,-209.1 384.77,-214"/>
</g>
<!-- rel_1 -->
<g id="node13" class="node">
<title>rel_1</title>
<path fill="#f5b8b8" stroke="#d46a6a" stroke-width="1.2" d="M486.75,-166C486.75,-166 439.25,-166 439.25,-166 433.25,-166 427.25,-160 427.25,-154 427.25,-154 427.25,-142 427.25,-142 427.25,-136 433.25,-130 439.25,-130 439.25,-130 486.75,-130 486.75,-130 492.75,-130 498.75,-136 498.75,-142 498.75,-142 498.75,-154 498.75,-154 498.75,-160 492.75,-166 486.75,-166"/>
<text xml:space="preserve" text-anchor="middle" x="463" y="-144.5" font-family="Arial" font-size="10.00" fill="#8b0000">differentiates</text>
</g>
<!-- unknown.color_distribution&#45;&gt;rel_1 -->
<g id="edge9" class="edge">
<title>unknown.color_distribution&#45;&gt;rel_1</title>
<path fill="none" stroke="#d46a6a" stroke-width="1.5" d="M345.75,-193.22C368.02,-184.56 395.14,-174.01 417.59,-165.28"/>
<polygon fill="#d46a6a" stroke="#d46a6a" stroke-width="1.5" points="418.34,-167.99 424.78,-162.48 416.31,-162.77 418.34,-167.99"/>
</g>
<!-- unknown.layout_position -->
<g id="node4" class="node">
<title>unknown.layout_position</title>
<path fill="#b8e6b8" stroke="#2c3e50" stroke-width="1.8" d="M329.12,-69C329.12,-69 274.12,-69 274.12,-69 268.12,-69 262.12,-63 262.12,-57 262.12,-57 262.12,-45 262.12,-45 262.12,-39 268.12,-33 274.12,-33 274.12,-33 329.12,-33 329.12,-33 335.12,-33 341.12,-39 341.12,-45 341.12,-45 341.12,-57 341.12,-57 341.12,-63 335.12,-69 329.12,-69"/>
<text xml:space="preserve" text-anchor="middle" x="301.62" y="-47.5" font-family="Arial" font-size="10.00" fill="#1a1a1a">layout position</text>
</g>
<!-- attr_3 -->
<g id="node9" class="node">
<title>attr_3</title>
<path fill="#c7b8e6" stroke="#7f8c8d" stroke-width="1.2" d="M525.75,-101C525.75,-101 400.25,-101 400.25,-101 394.25,-101 388.25,-95 388.25,-89 388.25,-89 388.25,-77 388.25,-77 388.25,-71 394.25,-65 400.25,-65 400.25,-65 525.75,-65 525.75,-65 531.75,-65 537.75,-71 537.75,-77 537.75,-77 537.75,-89 537.75,-89 537.75,-95 531.75,-101 525.75,-101"/>
<text xml:space="preserve" text-anchor="middle" x="463" y="-79.5" font-family="Arial" font-size="10.00" fill="#1a1a1a">(+) distributed spatial locations</text>
</g>
<!-- unknown.layout_position&#45;&gt;attr_3 -->
<g id="edge4" class="edge">
<title>unknown.layout_position&#45;&gt;attr_3</title>
<path fill="none" stroke="#aaaaaa" d="M342.02,-58.91C353.55,-61.22 366.6,-63.85 379.75,-66.48"/>
<polygon fill="#aaaaaa" stroke="#aaaaaa" points="379.1,-68.85 386.45,-67.83 380.07,-64.05 379.1,-68.85"/>
</g>
<!-- rel_2 -->
<g id="node14" class="node">
<title>rel_2</title>
<path fill="#f5b8b8" stroke="#d46a6a" stroke-width="1.2" d="M481.5,-36C481.5,-36 444.5,-36 444.5,-36 438.5,-36 432.5,-30 432.5,-24 432.5,-24 432.5,-12 432.5,-12 432.5,-6 438.5,0 444.5,0 444.5,0 481.5,0 481.5,0 487.5,0 493.5,-6 493.5,-12 493.5,-12 493.5,-24 493.5,-24 493.5,-30 487.5,-36 481.5,-36"/>
<text xml:space="preserve" text-anchor="middle" x="463" y="-14.5" font-family="Arial" font-size="10.00" fill="#8b0000">distributes</text>
</g>
<!-- unknown.layout_position&#45;&gt;rel_2 -->
<g id="edge11" class="edge">
<title>unknown.layout_position&#45;&gt;rel_2</title>
<path fill="none" stroke="#d46a6a" stroke-width="1.5" d="M342.02,-42.84C366.38,-37.8 397.55,-31.34 422.02,-26.28"/>
<polygon fill="#d46a6a" stroke="#d46a6a" stroke-width="1.5" points="422.57,-29.02 429.83,-24.66 421.43,-23.54 422.57,-29.02"/>
</g>
<!-- unknown.multiple_figures -->
<g id="node5" class="node">
<title>unknown.multiple_figures</title>
<path fill="#b8e6b8" stroke="#2c3e50" stroke-width="1.8" d="M650.75,-166C650.75,-166 592.75,-166 592.75,-166 586.75,-166 580.75,-160 580.75,-154 580.75,-154 580.75,-142 580.75,-142 580.75,-136 586.75,-130 592.75,-130 592.75,-130 650.75,-130 650.75,-130 656.75,-130 662.75,-136 662.75,-142 662.75,-142 662.75,-154 662.75,-154 662.75,-160 656.75,-166 650.75,-166"/>
<text xml:space="preserve" text-anchor="middle" x="621.75" y="-144.5" font-family="Arial" font-size="10.00" fill="#1a1a1a">multiple figures</text>
</g>
<!-- attr_0 -->
<g id="node10" class="node">
<title>attr_0</title>
<path fill="#c7b8e6" stroke="#7f8c8d" stroke-width="1.2" d="M838,-231C838,-231 717.75,-231 717.75,-231 711.75,-231 705.75,-225 705.75,-219 705.75,-219 705.75,-207 705.75,-207 705.75,-201 711.75,-195 717.75,-195 717.75,-195 838,-195 838,-195 844,-195 850,-201 850,-207 850,-207 850,-219 850,-219 850,-225 844,-231 838,-231"/>
<text xml:space="preserve" text-anchor="middle" x="777.88" y="-209.5" font-family="Arial" font-size="10.00" fill="#1a1a1a">(+) multiple distinct instances</text>
</g>
<!-- unknown.multiple_figures&#45;&gt;attr_0 -->
<g id="edge5" class="edge">
<title>unknown.multiple_figures&#45;&gt;attr_0</title>
<path fill="none" stroke="#aaaaaa" d="M663.65,-165.25C682.46,-173.18 705,-182.69 725,-191.12"/>
<polygon fill="#aaaaaa" stroke="#aaaaaa" points="724.01,-193.37 731.42,-193.83 725.92,-188.85 724.01,-193.37"/>
</g>
<!-- attr_5 -->
<g id="node11" class="node">
<title>attr_5</title>
<path fill="#c7b8e6" stroke="#7f8c8d" stroke-width="1.2" d="M827.12,-166C827.12,-166 728.62,-166 728.62,-166 722.62,-166 716.62,-160 716.62,-154 716.62,-154 716.62,-142 716.62,-142 716.62,-136 722.62,-130 728.62,-130 728.62,-130 827.12,-130 827.12,-130 833.12,-130 839.12,-136 839.12,-142 839.12,-142 839.12,-154 839.12,-154 839.12,-160 833.12,-166 827.12,-166"/>
<text xml:space="preserve" text-anchor="middle" x="777.88" y="-144.5" font-family="Arial" font-size="10.00" fill="#1a1a1a">(+) slight visual variation</text>
</g>
<!-- unknown.multiple_figures&#45;&gt;attr_5 -->
<g id="edge6" class="edge">
<title>unknown.multiple_figures&#45;&gt;attr_5</title>
<path fill="none" stroke="#aaaaaa" d="M663.65,-148C677.19,-148 692.66,-148 707.73,-148"/>
<polygon fill="#aaaaaa" stroke="#aaaaaa" points="707.53,-150.45 714.53,-148 707.53,-145.55 707.53,-150.45"/>
</g>
<!-- rel_3 -->
<g id="node15" class="node">
<title>rel_3</title>
<path fill="#f5b8b8" stroke="#d46a6a" stroke-width="1.2" d="M794.88,-101C794.88,-101 760.88,-101 760.88,-101 754.88,-101 748.88,-95 748.88,-89 748.88,-89 748.88,-77 748.88,-77 748.88,-71 754.88,-65 760.88,-65 760.88,-65 794.88,-65 794.88,-65 800.88,-65 806.88,-71 806.88,-77 806.88,-77 806.88,-89 806.88,-89 806.88,-95 800.88,-101 794.88,-101"/>
<text xml:space="preserve" text-anchor="middle" x="777.88" y="-79.5" font-family="Arial" font-size="10.00" fill="#8b0000">increases</text>
</g>
<!-- unknown.multiple_figures&#45;&gt;rel_3 -->
<g id="edge13" class="edge">
<title>unknown.multiple_figures&#45;&gt;rel_3</title>
<path fill="none" stroke="#d46a6a" stroke-width="1.5" d="M663.65,-130.75C687.06,-120.88 716.23,-108.58 739.09,-98.93"/>
<polygon fill="#d46a6a" stroke="#d46a6a" stroke-width="1.5" points="740.1,-101.55 746.38,-95.86 737.92,-96.39 740.1,-101.55"/>
</g>
<!-- rel_0&#45;&gt;unknown.multiple_figures -->
<g id="edge8" class="edge">
<title>rel_0&#45;&gt;unknown.multiple_figures</title>
<path fill="none" stroke="#d46a6a" stroke-width="1.5" d="M339.33,-278.4C387.8,-281.2 474.43,-280.22 537.75,-246 567.53,-229.91 591.19,-198.43 605.5,-175.47"/>
<polygon fill="#d46a6a" stroke="#d46a6a" stroke-width="1.5" points="607.8,-177.08 609.53,-168.79 603.01,-174.19 607.8,-177.08"/>
</g>
<!-- rel_1&#45;&gt;unknown.multiple_figures -->
<g id="edge10" class="edge">
<title>rel_1&#45;&gt;unknown.multiple_figures</title>
<path fill="none" stroke="#d46a6a" stroke-width="1.5" d="M499.18,-148C520.01,-148 546.77,-148 569.88,-148"/>
<polygon fill="#d46a6a" stroke="#d46a6a" stroke-width="1.5" points="569.6,-150.8 577.6,-148 569.6,-145.2 569.6,-150.8"/>
</g>
<!-- rel_2&#45;&gt;unknown.multiple_figures -->
<g id="edge12" class="edge">
<title>rel_2&#45;&gt;unknown.multiple_figures</title>
<path fill="none" stroke="#d46a6a" stroke-width="1.5" d="M493.99,-27.93C508.07,-33.44 524.6,-41.17 537.75,-51 563.96,-70.59 587.55,-99.85 602.82,-121.11"/>
<polygon fill="#d46a6a" stroke="#d46a6a" stroke-width="1.5" points="600.45,-122.6 607.34,-127.54 605.03,-119.38 600.45,-122.6"/>
</g>
<!-- rel_3&#45;&gt;unknown.glyph -->
<g id="edge14" class="edge">
<title>rel_3&#45;&gt;unknown.glyph</title>
<path fill="none" stroke="#d46a6a" stroke-width="1.5" d="M807.23,-83C828.73,-83 858.47,-83 881.86,-83"/>
<polygon fill="#d46a6a" stroke="#d46a6a" stroke-width="1.5" points="881.84,-85.8 889.84,-83 881.84,-80.2 881.84,-85.8"/>
</g>
<!-- rel_4&#45;&gt;unknown.color_distribution -->
<g id="edge16" class="edge">
<title>rel_4&#45;&gt;unknown.color_distribution</title>
<path fill="none" stroke="#d46a6a" stroke-width="1.5" d="M213.76,-210.6C224.7,-210.53 236.12,-210.45 246.95,-210.37"/>
<polygon fill="#d46a6a" stroke="#d46a6a" stroke-width="1.5" points="246.87,-213.17 254.85,-210.32 246.83,-207.57 246.87,-213.17"/>
</g>
</g>
</svg>
