<?xml version="1.0" encoding="UTF-8" standalone="no"?>
<!DOCTYPE svg PUBLIC "-//W3C//DTD SVG 1.1//EN"
 "http://www.w3.org/Graphics/SVG/1.1/DTD/svg11.dtd">
<!-- Generated by graphviz version 14.1.5 (20260411.2331)
 -->
<!-- Title: VisJ.1197.5.png Pages: 1 -->
<svg width="1122pt" height="375pt"
 viewBox="0.00 0.00 1122.00 375.00" xmlns="http://www.w3.org/2000/svg" xmlns:xlink="http://www.w3.org/1999/xlink">
<g id="graph0" class="graph" transform="scale(1 1) rotate(0) translate(4 371.25)">
<title>VisJ.1197.5.png</title>
<polygon fill="white" stroke="none" points="-4,4 -4,-371.25 1117.75,-371.25 1117.75,4 -4,4"/>
<text xml:space="preserve" text-anchor="start" x="506.62" y="-346.95" font-family="Arial" font-weight="bold" font-size="14.00">VisJ.1197.5.png</text>
<text xml:space="preserve" text-anchor="start" x="510.75" y="-327" font-family="Arial" font-size="11.00">Glyph &#160;| &#160;VC = 0.70</text>
<path fill="#b8e6b8" stroke="none" d="M347.5,-302C347.5,-302 355.5,-302 355.5,-302 358.5,-302 361.5,-305 361.5,-308 361.5,-308 361.5,-314 361.5,-314 361.5,-317 358.5,-320 355.5,-320 355.5,-320 347.5,-320 347.5,-320 344.5,-320 341.5,-317 341.5,-314 341.5,-314 341.5,-308 341.5,-308 341.5,-305 344.5,-302 347.5,-302"/>
<path fill="none" stroke="black" d="M347.5,-302C347.5,-302 355.5,-302 355.5,-302 358.5,-302 361.5,-305 361.5,-308 361.5,-308 361.5,-314 361.5,-314 361.5,-317 358.5,-320 355.5,-320 355.5,-320 347.5,-320 347.5,-320 344.5,-320 341.5,-317 341.5,-314 341.5,-314 341.5,-308 341.5,-308 341.5,-305 344.5,-302 347.5,-302"/>
<text xml:space="preserve" text-anchor="start" x="350" y="-307.25" font-family="Arial" font-size="10.00"> </text>
<text xml:space="preserve" text-anchor="start" x="365.5" y="-307.25" font-family="Arial" font-size="10.00">Object</text>
<path fill="#c7b8e6" stroke="none" d="M404,-302C404,-302 412,-302 412,-302 415,-302 418,-305 418,-308 418,-308 418,-314 418,-314 418,-317 415,-320 412,-320 412,-320 404,-320 404,-320 401,-320 398,-317 398,-314 398,-314 398,-308 398,-308 398,-305 401,-302 404,-302"/>
<path fill="none" stroke="black" d="M404,-302C404,-302 412,-302 412,-302 415,-302 418,-305 418,-308 418,-308 418,-314 418,-314 418,-317 415,-320 412,-320 412,-320 404,-320 404,-320 401,-320 398,-317 398,-314 398,-314 398,-308 398,-308 398,-305 401,-302 404,-302"/>
<text xml:space="preserve" text-anchor="start" x="406.5" y="-307.25" font-family="Arial" font-size="10.00"> </text>
<text xml:space="preserve" text-anchor="start" x="422" y="-307.25" font-family="Arial" font-size="10.00">Attribute</text>
<path fill="#f5b8b8" stroke="none" d="M468.75,-302C468.75,-302 476.75,-302 476.75,-302 479.75,-302 482.75,-305 482.75,-308 482.75,-308 482.75,-314 482.75,-314 482.75,-317 479.75,-320 476.75,-320 476.75,-320 468.75,-320 468.75,-320 465.75,-320 462.75,-317 462.75,-314 462.75,-314 462.75,-308 462.75,-308 462.75,-305 465.75,-302 468.75,-302"/>
<path fill="none" stroke="black" d="M468.75,-302C468.75,-302 476.75,-302 476.75,-302 479.75,-302 482.75,-305 482.75,-308 482.75,-308 482.75,-314 482.75,-314 482.75,-317 479.75,-320 476.75,-320 476.75,-320 468.75,-320 468.75,-320 465.75,-320 462.75,-317 462.75,-314 462.75,-314 462.75,-308 462.75,-308 462.75,-305 465.75,-302 468.75,-302"/>
<text xml:space="preserve" text-anchor="start" x="471.25" y="-307.25" font-family="Arial" font-size="10.00"> </text>
<text xml:space="preserve" text-anchor="start" x="486.75" y="-307.25" font-family="Arial" font-size="10.00">Relationship</text>
<text xml:space="preserve" text-anchor="start" x="546.75" y="-308.5" font-family="Arial" font-weight="bold" font-size="10.00">(+)</text>
<text xml:space="preserve" text-anchor="start" x="558.75" y="-308.5" font-family="Arial" font-size="10.00"> increases complexity</text>
<text xml:space="preserve" text-anchor="start" x="660" y="-308.5" font-family="Arial" font-weight="bold" font-size="10.00">(−)</text>
<text xml:space="preserve" text-anchor="start" x="672" y="-308.5" font-family="Arial" font-size="10.00"> decreases complexity</text>
<!-- unknown.glyph -->
<g id="node1" class="node">
<title>unknown.glyph</title>
<path fill="#b8e6b8" stroke="#2c3e50" stroke-width="1.8" d="M649,-133C649,-133 619,-133 619,-133 613,-133 607,-127 607,-121 607,-121 607,-109 607,-109 607,-103 613,-97 619,-97 619,-97 649,-97 649,-97 655,-97 661,-103 661,-109 661,-109 661,-121 661,-121 661,-127 655,-133 649,-133"/>
<text xml:space="preserve" text-anchor="middle" x="634" y="-111.5" font-family="Arial" font-size="10.00" fill="#1a1a1a">glyph</text>
</g>
<!-- attr_2 -->
<g id="node6" class="node">
<title>attr_2</title>
<path fill="#c7b8e6" stroke="#7f8c8d" stroke-width="1.2" d="M820.5,-198C820.5,-198 716,-198 716,-198 710,-198 704,-192 704,-186 704,-186 704,-174 704,-174 704,-168 710,-162 716,-162 716,-162 820.5,-162 820.5,-162 826.5,-162 832.5,-168 832.5,-174 832.5,-174 832.5,-186 832.5,-186 832.5,-192 826.5,-198 820.5,-198"/>
<text xml:space="preserve" text-anchor="middle" x="768.25" y="-176.5" font-family="Arial" font-size="10.00" fill="#1a1a1a">(+) complex abstract form</text>
</g>
<!-- unknown.glyph&#45;&gt;attr_2 -->
<g id="edge1" class="edge">
<title>unknown.glyph&#45;&gt;attr_2</title>
<path fill="none" stroke="#aaaaaa" d="M661.76,-128.15C679.03,-136.64 701.93,-147.89 721.98,-157.75"/>
<polygon fill="#aaaaaa" stroke="#aaaaaa" points="720.78,-159.89 728.14,-160.78 722.94,-155.49 720.78,-159.89"/>
</g>
<!-- attr_5 -->
<g id="node7" class="node">
<title>attr_5</title>
<path fill="#c7b8e6" stroke="#7f8c8d" stroke-width="1.2" d="M816.75,-133C816.75,-133 719.75,-133 719.75,-133 713.75,-133 707.75,-127 707.75,-121 707.75,-121 707.75,-109 707.75,-109 707.75,-103 713.75,-97 719.75,-97 719.75,-97 816.75,-97 816.75,-97 822.75,-97 828.75,-103 828.75,-109 828.75,-109 828.75,-121 828.75,-121 828.75,-127 822.75,-133 816.75,-133"/>
<text xml:space="preserve" text-anchor="middle" x="768.25" y="-111.5" font-family="Arial" font-size="10.00" fill="#1a1a1a">(+) unfamiliar glyph type</text>
</g>
<!-- unknown.glyph&#45;&gt;attr_5 -->
<g id="edge2" class="edge">
<title>unknown.glyph&#45;&gt;attr_5</title>
<path fill="none" stroke="#aaaaaa" d="M661.76,-115C672.64,-115 685.75,-115 698.97,-115"/>
<polygon fill="#aaaaaa" stroke="#aaaaaa" points="698.69,-117.45 705.69,-115 698.69,-112.55 698.69,-117.45"/>
</g>
<!-- rel_2 -->
<g id="node15" class="node">
<title>rel_2</title>
<path fill="#f5b8b8" stroke="#d46a6a" stroke-width="1.2" d="M790.5,-68C790.5,-68 746,-68 746,-68 740,-68 734,-62 734,-56 734,-56 734,-44 734,-44 734,-38 740,-32 746,-32 746,-32 790.5,-32 790.5,-32 796.5,-32 802.5,-38 802.5,-44 802.5,-44 802.5,-56 802.5,-56 802.5,-62 796.5,-68 790.5,-68"/>
<text xml:space="preserve" text-anchor="middle" x="768.25" y="-46.5" font-family="Arial" font-size="10.00" fill="#8b0000">overwhelms</text>
</g>
<!-- unknown.glyph&#45;&gt;rel_2 -->
<g id="edge12" class="edge">
<title>unknown.glyph&#45;&gt;rel_2</title>
<path fill="none" stroke="#d46a6a" stroke-width="1.5" d="M661.76,-101.85C679.7,-93.03 703.7,-81.23 724.28,-71.12"/>
<polygon fill="#d46a6a" stroke="#d46a6a" stroke-width="1.5" points="725.48,-73.65 731.43,-67.61 723.01,-68.62 725.48,-73.65"/>
</g>
<!-- property.color -->
<g id="node2" class="node">
<title>property.color</title>
<path fill="#b8e6b8" stroke="#2c3e50" stroke-width="1.8" d="M344.5,-134C344.5,-134 314.5,-134 314.5,-134 308.5,-134 302.5,-128 302.5,-122 302.5,-122 302.5,-110 302.5,-110 302.5,-104 308.5,-98 314.5,-98 314.5,-98 344.5,-98 344.5,-98 350.5,-98 356.5,-104 356.5,-110 356.5,-110 356.5,-122 356.5,-122 356.5,-128 350.5,-134 344.5,-134"/>
<text xml:space="preserve" text-anchor="middle" x="329.5" y="-112.5" font-family="Arial" font-size="10.00" fill="#1a1a1a">color</text>
</g>
<!-- attr_1 -->
<g id="node8" class="node">
<title>attr_1</title>
<path fill="#c7b8e6" stroke="#7f8c8d" stroke-width="1.2" d="M522.38,-166C522.38,-166 441.12,-166 441.12,-166 435.12,-166 429.12,-160 429.12,-154 429.12,-154 429.12,-142 429.12,-142 429.12,-136 435.12,-130 441.12,-130 441.12,-130 522.38,-130 522.38,-130 528.38,-130 534.38,-136 534.38,-142 534.38,-142 534.38,-154 534.38,-154 534.38,-160 528.38,-166 522.38,-166"/>
<text xml:space="preserve" text-anchor="middle" x="481.75" y="-144.5" font-family="Arial" font-size="10.00" fill="#1a1a1a">(+) unclear colormap</text>
</g>
<!-- property.color&#45;&gt;attr_1 -->
<g id="edge3" class="edge">
<title>property.color&#45;&gt;attr_1</title>
<path fill="none" stroke="#aaaaaa" d="M357.36,-121.72C374.88,-125.45 398.46,-130.47 420.32,-135.13"/>
<polygon fill="#aaaaaa" stroke="#aaaaaa" points="419.75,-137.51 427.11,-136.58 420.78,-132.72 419.75,-137.51"/>
</g>
<!-- attr_4 -->
<g id="node9" class="node">
<title>attr_4</title>
<path fill="#c7b8e6" stroke="#7f8c8d" stroke-width="1.2" d="M526.5,-101C526.5,-101 437,-101 437,-101 431,-101 425,-95 425,-89 425,-89 425,-77 425,-77 425,-71 431,-65 437,-65 437,-65 526.5,-65 526.5,-65 532.5,-65 538.5,-71 538.5,-77 538.5,-77 538.5,-89 538.5,-89 538.5,-95 532.5,-101 526.5,-101"/>
<text xml:space="preserve" text-anchor="middle" x="481.75" y="-79.5" font-family="Arial" font-size="10.00" fill="#1a1a1a">(+) many distinct hues</text>
</g>
<!-- property.color&#45;&gt;attr_4 -->
<g id="edge4" class="edge">
<title>property.color&#45;&gt;attr_4</title>
<path fill="none" stroke="#aaaaaa" d="M357.36,-110.1C373.83,-106.48 395.66,-101.69 416.38,-97.14"/>
<polygon fill="#aaaaaa" stroke="#aaaaaa" points="416.77,-99.56 423.08,-95.67 415.72,-94.77 416.77,-99.56"/>
</g>
<!-- rel_1 -->
<g id="node14" class="node">
<title>rel_1</title>
<path fill="#f5b8b8" stroke="#d46a6a" stroke-width="1.2" d="M497.62,-36C497.62,-36 465.88,-36 465.88,-36 459.88,-36 453.88,-30 453.88,-24 453.88,-24 453.88,-12 453.88,-12 453.88,-6 459.88,0 465.88,0 465.88,0 497.62,0 497.62,0 503.62,0 509.62,-6 509.62,-12 509.62,-12 509.62,-24 509.62,-24 509.62,-30 503.62,-36 497.62,-36"/>
<text xml:space="preserve" text-anchor="middle" x="481.75" y="-14.5" font-family="Arial" font-size="10.00" fill="#8b0000">obscures</text>
</g>
<!-- property.color&#45;&gt;rel_1 -->
<g id="edge10" class="edge">
<title>property.color&#45;&gt;rel_1</title>
<path fill="none" stroke="#d46a6a" stroke-width="1.5" d="M346.48,-97.14C359.54,-82.68 379.11,-63.04 399.5,-50 413.09,-41.3 429.43,-34.31 443.87,-29.1"/>
<polygon fill="#d46a6a" stroke="#d46a6a" stroke-width="1.5" points="444.72,-31.77 451.37,-26.52 442.9,-26.48 444.72,-31.77"/>
</g>
<!-- unknown.data_points -->
<g id="node3" class="node">
<title>unknown.data_points</title>
<path fill="#b8e6b8" stroke="#2c3e50" stroke-width="1.8" d="M52,-223C52,-223 12,-223 12,-223 6,-223 0,-217 0,-211 0,-211 0,-199 0,-199 0,-193 6,-187 12,-187 12,-187 52,-187 52,-187 58,-187 64,-193 64,-199 64,-199 64,-211 64,-211 64,-217 58,-223 52,-223"/>
<text xml:space="preserve" text-anchor="middle" x="32" y="-201.5" font-family="Arial" font-size="10.00" fill="#1a1a1a">data points</text>
</g>
<!-- attr_0 -->
<g id="node10" class="node">
<title>attr_0</title>
<path fill="#c7b8e6" stroke="#7f8c8d" stroke-width="1.2" d="M247.5,-288C247.5,-288 119,-288 119,-288 113,-288 107,-282 107,-276 107,-276 107,-264 107,-264 107,-258 113,-252 119,-252 119,-252 247.5,-252 247.5,-252 253.5,-252 259.5,-258 259.5,-264 259.5,-264 259.5,-276 259.5,-276 259.5,-282 253.5,-288 247.5,-288"/>
<text xml:space="preserve" text-anchor="middle" x="183.25" y="-266.5" font-family="Arial" font-size="10.00" fill="#1a1a1a">(+) dense overlapping elements</text>
</g>
<!-- unknown.data_points&#45;&gt;attr_0 -->
<g id="edge5" class="edge">
<title>unknown.data_points&#45;&gt;attr_0</title>
<path fill="none" stroke="#aaaaaa" d="M64.64,-219.25C77.73,-225.11 93.07,-231.93 107,-238 114.77,-241.39 123.01,-244.93 131.08,-248.38"/>
<polygon fill="#aaaaaa" stroke="#aaaaaa" points="129.63,-250.43 137.03,-250.92 131.56,-245.92 129.63,-250.43"/>
</g>
<!-- rel_0 -->
<g id="node13" class="node">
<title>rel_0</title>
<path fill="#f5b8b8" stroke="#d46a6a" stroke-width="1.2" d="M198.25,-223C198.25,-223 168.25,-223 168.25,-223 162.25,-223 156.25,-217 156.25,-211 156.25,-211 156.25,-199 156.25,-199 156.25,-193 162.25,-187 168.25,-187 168.25,-187 198.25,-187 198.25,-187 204.25,-187 210.25,-193 210.25,-199 210.25,-199 210.25,-211 210.25,-211 210.25,-217 204.25,-223 198.25,-223"/>
<text xml:space="preserve" text-anchor="middle" x="183.25" y="-201.5" font-family="Arial" font-size="10.00" fill="#8b0000">creates</text>
</g>
<!-- unknown.data_points&#45;&gt;rel_0 -->
<g id="edge8" class="edge">
<title>unknown.data_points&#45;&gt;rel_0</title>
<path fill="none" stroke="#d46a6a" stroke-width="1.5" d="M64.65,-205C88.46,-205 121.12,-205 145.99,-205"/>
<polygon fill="#d46a6a" stroke="#d46a6a" stroke-width="1.5" points="145.84,-207.8 153.84,-205 145.84,-202.2 145.84,-207.8"/>
</g>
<!-- rel_3 -->
<g id="node16" class="node">
<title>rel_3</title>
<path fill="#f5b8b8" stroke="#d46a6a" stroke-width="1.2" d="M200.25,-142C200.25,-142 166.25,-142 166.25,-142 160.25,-142 154.25,-136 154.25,-130 154.25,-130 154.25,-118 154.25,-118 154.25,-112 160.25,-106 166.25,-106 166.25,-106 200.25,-106 200.25,-106 206.25,-106 212.25,-112 212.25,-118 212.25,-118 212.25,-130 212.25,-130 212.25,-136 206.25,-142 200.25,-142"/>
<text xml:space="preserve" text-anchor="middle" x="183.25" y="-120.5" font-family="Arial" font-size="10.00" fill="#8b0000">increases</text>
</g>
<!-- unknown.data_points&#45;&gt;rel_3 -->
<g id="edge14" class="edge">
<title>unknown.data_points&#45;&gt;rel_3</title>
<path fill="none" stroke="#d46a6a" stroke-width="1.5" d="M64.65,-187.82C88.12,-175.08 120.2,-157.67 144.93,-144.26"/>
<polygon fill="#d46a6a" stroke="#d46a6a" stroke-width="1.5" points="145.98,-146.87 151.68,-140.59 143.31,-141.95 145.98,-146.87"/>
</g>
<!-- structure.layout -->
<g id="node4" class="node">
<title>structure.layout</title>
<path fill="#b8e6b8" stroke="#2c3e50" stroke-width="1.8" d="M344.5,-231C344.5,-231 314.5,-231 314.5,-231 308.5,-231 302.5,-225 302.5,-219 302.5,-219 302.5,-207 302.5,-207 302.5,-201 308.5,-195 314.5,-195 314.5,-195 344.5,-195 344.5,-195 350.5,-195 356.5,-201 356.5,-207 356.5,-207 356.5,-219 356.5,-219 356.5,-225 350.5,-231 344.5,-231"/>
<text xml:space="preserve" text-anchor="middle" x="329.5" y="-209.5" font-family="Arial" font-size="10.00" fill="#1a1a1a">layout</text>
</g>
<!-- attr_3 -->
<g id="node11" class="node">
<title>attr_3</title>
<path fill="#c7b8e6" stroke="#7f8c8d" stroke-width="1.2" d="M552,-296C552,-296 411.5,-296 411.5,-296 405.5,-296 399.5,-290 399.5,-284 399.5,-284 399.5,-272 399.5,-272 399.5,-266 405.5,-260 411.5,-260 411.5,-260 552,-260 552,-260 558,-260 564,-266 564,-272 564,-272 564,-284 564,-284 564,-290 558,-296 552,-296"/>
<text xml:space="preserve" text-anchor="middle" x="481.75" y="-274.5" font-family="Arial" font-size="10.00" fill="#1a1a1a">(+) congested spatial arrangement</text>
</g>
<!-- structure.layout&#45;&gt;attr_3 -->
<g id="edge6" class="edge">
<title>structure.layout&#45;&gt;attr_3</title>
<path fill="none" stroke="#aaaaaa" d="M357.17,-226.3C369.89,-232.5 385.38,-239.85 399.5,-246 407.4,-249.44 415.8,-252.93 424.08,-256.28"/>
<polygon fill="#aaaaaa" stroke="#aaaaaa" points="423.16,-258.55 430.56,-258.87 424.98,-254 423.16,-258.55"/>
</g>
<!-- rel_4 -->
<g id="node17" class="node">
<title>rel_4</title>
<path fill="#f5b8b8" stroke="#d46a6a" stroke-width="1.2" d="M523.5,-231C523.5,-231 440,-231 440,-231 434,-231 428,-225 428,-219 428,-219 428,-207 428,-207 428,-201 434,-195 440,-195 440,-195 523.5,-195 523.5,-195 529.5,-195 535.5,-201 535.5,-207 535.5,-207 535.5,-219 535.5,-219 535.5,-225 529.5,-231 523.5,-231"/>
<text xml:space="preserve" text-anchor="middle" x="481.75" y="-209.5" font-family="Arial" font-size="10.00" fill="#8b0000">requires expertise for</text>
</g>
<!-- structure.layout&#45;&gt;rel_4 -->
<g id="edge16" class="edge">
<title>structure.layout&#45;&gt;rel_4</title>
<path fill="none" stroke="#d46a6a" stroke-width="1.5" d="M357.36,-213C374.12,-213 396.43,-213 417.47,-213"/>
<polygon fill="#d46a6a" stroke="#d46a6a" stroke-width="1.5" points="417.4,-215.8 425.4,-213 417.4,-210.2 417.4,-215.8"/>
</g>
<!-- furniture.legend -->
<g id="node5" class="node">
<title>furniture.legend</title>
<path fill="#b8e6b8" stroke="#2c3e50" stroke-width="1.8" d="M917.5,-68C917.5,-68 887.5,-68 887.5,-68 881.5,-68 875.5,-62 875.5,-56 875.5,-56 875.5,-44 875.5,-44 875.5,-38 881.5,-32 887.5,-32 887.5,-32 917.5,-32 917.5,-32 923.5,-32 929.5,-38 929.5,-44 929.5,-44 929.5,-56 929.5,-56 929.5,-62 923.5,-68 917.5,-68"/>
<text xml:space="preserve" text-anchor="middle" x="902.5" y="-46.5" font-family="Arial" font-size="10.00" fill="#1a1a1a">legend</text>
</g>
<!-- attr_6 -->
<g id="node12" class="node">
<title>attr_6</title>
<path fill="#c7b8e6" stroke="#7f8c8d" stroke-width="1.2" d="M1101.75,-68C1101.75,-68 984.5,-68 984.5,-68 978.5,-68 972.5,-62 972.5,-56 972.5,-56 972.5,-44 972.5,-44 972.5,-38 978.5,-32 984.5,-32 984.5,-32 1101.75,-32 1101.75,-32 1107.75,-32 1113.75,-38 1113.75,-44 1113.75,-44 1113.75,-56 1113.75,-56 1113.75,-62 1107.75,-68 1101.75,-68"/>
<text xml:space="preserve" text-anchor="middle" x="1043.12" y="-46.5" font-family="Arial" font-size="10.00" fill="#1a1a1a">(+) insufficient color mapping</text>
</g>
<!-- furniture.legend&#45;&gt;attr_6 -->
<g id="edge7" class="edge">
<title>furniture.legend&#45;&gt;attr_6</title>
<path fill="none" stroke="#aaaaaa" d="M930.23,-50C940.01,-50 951.64,-50 963.64,-50"/>
<polygon fill="#aaaaaa" stroke="#aaaaaa" points="963.47,-52.45 970.47,-50 963.47,-47.55 963.47,-52.45"/>
</g>
<!-- rel_0&#45;&gt;structure.layout -->
<g id="edge9" class="edge">
<title>rel_0&#45;&gt;structure.layout</title>
<path fill="none" stroke="#d46a6a" stroke-width="1.5" d="M210.71,-206.47C233.44,-207.73 266.45,-209.56 291.75,-210.96"/>
<polygon fill="#d46a6a" stroke="#d46a6a" stroke-width="1.5" points="291.31,-213.74 299.45,-211.39 291.62,-208.15 291.31,-213.74"/>
</g>
<!-- rel_1&#45;&gt;unknown.glyph -->
<g id="edge11" class="edge">
<title>rel_1&#45;&gt;unknown.glyph</title>
<path fill="none" stroke="#d46a6a" stroke-width="1.5" d="M509.95,-25.83C526.35,-31.23 547.23,-39.36 564,-50 580.84,-60.69 597.21,-75.83 609.77,-88.8"/>
<polygon fill="#d46a6a" stroke="#d46a6a" stroke-width="1.5" points="607.61,-90.6 615.14,-94.5 611.68,-86.76 607.61,-90.6"/>
</g>
<!-- rel_2&#45;&gt;furniture.legend -->
<g id="edge13" class="edge">
<title>rel_2&#45;&gt;furniture.legend</title>
<path fill="none" stroke="#d46a6a" stroke-width="1.5" d="M802.96,-50C821.82,-50 845.34,-50 864.68,-50"/>
<polygon fill="#d46a6a" stroke="#d46a6a" stroke-width="1.5" points="864.66,-52.8 872.66,-50 864.66,-47.2 864.66,-52.8"/>
</g>
<!-- rel_3&#45;&gt;property.color -->
<g id="edge15" class="edge">
<title>rel_3&#45;&gt;property.color</title>
<path fill="none" stroke="#d46a6a" stroke-width="1.5" d="M212.75,-122.42C235.45,-121.16 267.39,-119.39 291.97,-118.03"/>
<polygon fill="#d46a6a" stroke="#d46a6a" stroke-width="1.5" points="291.91,-120.83 299.74,-117.6 291.6,-115.24 291.91,-120.83"/>
</g>
<!-- rel_4&#45;&gt;unknown.glyph -->
<g id="edge17" class="edge">
<title>rel_4&#45;&gt;unknown.glyph</title>
<path fill="none" stroke="#d46a6a" stroke-width="1.5" d="M535.8,-195.56C545.51,-191.42 555.32,-186.56 564,-181 581.04,-170.1 597.52,-154.59 610.09,-141.34"/>
<polygon fill="#d46a6a" stroke="#d46a6a" stroke-width="1.5" points="612.1,-143.3 615.48,-135.53 607.99,-139.49 612.1,-143.3"/>
</g>
</g>
</svg>
