<?xml version="1.0" encoding="UTF-8" standalone="no"?>
<!DOCTYPE svg PUBLIC "-//W3C//DTD SVG 1.1//EN"
 "http://www.w3.org/Graphics/SVG/1.1/DTD/svg11.dtd">
<!-- Generated by graphviz version 14.1.5 (20260411.2331)
 -->
<!-- Title: VisJ.1949.4(3).png Pages: 1 -->
<svg width="831pt" height="440pt"
 viewBox="0.00 0.00 831.00 440.00" xmlns="http://www.w3.org/2000/svg" xmlns:xlink="http://www.w3.org/1999/xlink">
<g id="graph0" class="graph" transform="scale(1 1) rotate(0) translate(4 436.25)">
<title>VisJ.1949.4(3).png</title>
<polygon fill="white" stroke="none" points="-4,4 -4,-436.25 827.25,-436.25 827.25,4 -4,4"/>
<text xml:space="preserve" text-anchor="start" x="352.75" y="-411.95" font-family="Arial" font-weight="bold" font-size="14.00">VisJ.1949.4(3).png</text>
<text xml:space="preserve" text-anchor="start" x="365.5" y="-392" font-family="Arial" font-size="11.00">Glyph &#160;| &#160;VC = 0.64</text>
<path fill="#b8e6b8" stroke="none" d="M202.25,-367C202.25,-367 210.25,-367 210.25,-367 213.25,-367 216.25,-370 216.25,-373 216.25,-373 216.25,-379 216.25,-379 216.25,-382 213.25,-385 210.25,-385 210.25,-385 202.25,-385 202.25,-385 199.25,-385 196.25,-382 196.25,-379 196.25,-379 196.25,-373 196.25,-373 196.25,-370 199.25,-367 202.25,-367"/>
<path fill="none" stroke="black" d="M202.25,-367C202.25,-367 210.25,-367 210.25,-367 213.25,-367 216.25,-370 216.25,-373 216.25,-373 216.25,-379 216.25,-379 216.25,-382 213.25,-385 210.25,-385 210.25,-385 202.25,-385 202.25,-385 199.25,-385 196.25,-382 196.25,-379 196.25,-379 196.25,-373 196.25,-373 196.25,-370 199.25,-367 202.25,-367"/>
<text xml:space="preserve" text-anchor="start" x="204.75" y="-372.25" font-family="Arial" font-size="10.00"> </text>
<text xml:space="preserve" text-anchor="start" x="220.25" y="-372.25" font-family="Arial" font-size="10.00">Object</text>
<path fill="#c7b8e6" stroke="none" d="M258.75,-367C258.75,-367 266.75,-367 266.75,-367 269.75,-367 272.75,-370 272.75,-373 272.75,-373 272.75,-379 272.75,-379 272.75,-382 269.75,-385 266.75,-385 266.75,-385 258.75,-385 258.75,-385 255.75,-385 252.75,-382 252.75,-379 252.75,-379 252.75,-373 252.75,-373 252.75,-370 255.75,-367 258.75,-367"/>
<path fill="none" stroke="black" d="M258.75,-367C258.75,-367 266.75,-367 266.75,-367 269.75,-367 272.75,-370 272.75,-373 272.75,-373 272.75,-379 272.75,-379 272.75,-382 269.75,-385 266.75,-385 266.75,-385 258.75,-385 258.75,-385 255.75,-385 252.75,-382 252.75,-379 252.75,-379 252.75,-373 252.75,-373 252.75,-370 255.75,-367 258.75,-367"/>
<text xml:space="preserve" text-anchor="start" x="261.25" y="-372.25" font-family="Arial" font-size="10.00"> </text>
<text xml:space="preserve" text-anchor="start" x="276.75" y="-372.25" font-family="Arial" font-size="10.00">Attribute</text>
<path fill="#f5b8b8" stroke="none" d="M323.5,-367C323.5,-367 331.5,-367 331.5,-367 334.5,-367 337.5,-370 337.5,-373 337.5,-373 337.5,-379 337.5,-379 337.5,-382 334.5,-385 331.5,-385 331.5,-385 323.5,-385 323.5,-385 320.5,-385 317.5,-382 317.5,-379 317.5,-379 317.5,-373 317.5,-373 317.5,-370 320.5,-367 323.5,-367"/>
<path fill="none" stroke="black" d="M323.5,-367C323.5,-367 331.5,-367 331.5,-367 334.5,-367 337.5,-370 337.5,-373 337.5,-373 337.5,-379 337.5,-379 337.5,-382 334.5,-385 331.5,-385 331.5,-385 323.5,-385 323.5,-385 320.5,-385 317.5,-382 317.5,-379 317.5,-379 317.5,-373 317.5,-373 317.5,-370 320.5,-367 323.5,-367"/>
<text xml:space="preserve" text-anchor="start" x="326" y="-372.25" font-family="Arial" font-size="10.00"> </text>
<text xml:space="preserve" text-anchor="start" x="341.5" y="-372.25" font-family="Arial" font-size="10.00">Relationship</text>
<text xml:space="preserve" text-anchor="start" x="401.5" y="-373.5" font-family="Arial" font-weight="bold" font-size="10.00">(+)</text>
<text xml:space="preserve" text-anchor="start" x="413.5" y="-373.5" font-family="Arial" font-size="10.00"> increases complexity</text>
<text xml:space="preserve" text-anchor="start" x="514.75" y="-373.5" font-family="Arial" font-weight="bold" font-size="10.00">(−)</text>
<text xml:space="preserve" text-anchor="start" x="526.75" y="-373.5" font-family="Arial" font-size="10.00"> decreases complexity</text>
<!-- unknown.glyph -->
<g id="node1" class="node">
<title>unknown.glyph</title>
<path fill="#b8e6b8" stroke="#2c3e50" stroke-width="1.8" d="M309,-263C309,-263 279,-263 279,-263 273,-263 267,-257 267,-251 267,-251 267,-239 267,-239 267,-233 273,-227 279,-227 279,-227 309,-227 309,-227 315,-227 321,-233 321,-239 321,-239 321,-251 321,-251 321,-257 315,-263 309,-263"/>
<text xml:space="preserve" text-anchor="middle" x="294" y="-241.5" font-family="Arial" font-size="10.00" fill="#1a1a1a">glyph</text>
</g>
<!-- attr_0 -->
<g id="node6" class="node">
<title>attr_0</title>
<path fill="#c7b8e6" stroke="#7f8c8d" stroke-width="1.2" d="M486.25,-361C486.25,-361 399,-361 399,-361 393,-361 387,-355 387,-349 387,-349 387,-337 387,-337 387,-331 393,-325 399,-325 399,-325 486.25,-325 486.25,-325 492.25,-325 498.25,-331 498.25,-337 498.25,-337 498.25,-349 498.25,-349 498.25,-355 492.25,-361 486.25,-361"/>
<text xml:space="preserve" text-anchor="middle" x="442.62" y="-339.5" font-family="Arial" font-size="10.00" fill="#1a1a1a">(+) difficult to interpret</text>
</g>
<!-- unknown.glyph&#45;&gt;attr_0 -->
<g id="edge1" class="edge">
<title>unknown.glyph&#45;&gt;attr_0</title>
<path fill="none" stroke="#aaaaaa" d="M311.19,-263.75C324.39,-278.15 344.13,-297.76 364.5,-311 370.09,-314.63 376.16,-318 382.36,-321.07"/>
<polygon fill="#aaaaaa" stroke="#aaaaaa" points="380.93,-323.1 388.31,-323.88 383.03,-318.67 380.93,-323.1"/>
</g>
<!-- attr_1 -->
<g id="node7" class="node">
<title>attr_1</title>
<path fill="#c7b8e6" stroke="#7f8c8d" stroke-width="1.2" d="M489.25,-296C489.25,-296 396,-296 396,-296 390,-296 384,-290 384,-284 384,-284 384,-272 384,-272 384,-266 390,-260 396,-260 396,-260 489.25,-260 489.25,-260 495.25,-260 501.25,-266 501.25,-272 501.25,-272 501.25,-284 501.25,-284 501.25,-290 495.25,-296 489.25,-296"/>
<text xml:space="preserve" text-anchor="middle" x="442.62" y="-274.5" font-family="Arial" font-size="10.00" fill="#1a1a1a">(+) abstract visual form</text>
</g>
<!-- unknown.glyph&#45;&gt;attr_1 -->
<g id="edge2" class="edge">
<title>unknown.glyph&#45;&gt;attr_1</title>
<path fill="none" stroke="#aaaaaa" d="M321.89,-251.05C337.01,-254.46 356.61,-258.87 375.55,-263.13"/>
<polygon fill="#aaaaaa" stroke="#aaaaaa" points="374.77,-265.46 382.14,-264.61 375.84,-260.68 374.77,-265.46"/>
</g>
<!-- rel_0 -->
<g id="node11" class="node">
<title>rel_0</title>
<path fill="#f5b8b8" stroke="#d46a6a" stroke-width="1.2" d="M458.5,-231C458.5,-231 426.75,-231 426.75,-231 420.75,-231 414.75,-225 414.75,-219 414.75,-219 414.75,-207 414.75,-207 414.75,-201 420.75,-195 426.75,-195 426.75,-195 458.5,-195 458.5,-195 464.5,-195 470.5,-201 470.5,-207 470.5,-207 470.5,-219 470.5,-219 470.5,-225 464.5,-231 458.5,-231"/>
<text xml:space="preserve" text-anchor="middle" x="442.62" y="-209.5" font-family="Arial" font-size="10.00" fill="#8b0000">obscures</text>
</g>
<!-- unknown.glyph&#45;&gt;rel_0 -->
<g id="edge6" class="edge">
<title>unknown.glyph&#45;&gt;rel_0</title>
<path fill="none" stroke="#d46a6a" stroke-width="1.5" d="M321.89,-239.13C345.1,-234.07 378.86,-226.7 404.61,-221.08"/>
<polygon fill="#d46a6a" stroke="#d46a6a" stroke-width="1.5" points="404.97,-223.87 412.19,-219.42 403.77,-218.39 404.97,-223.87"/>
</g>
<!-- rel_3 -->
<g id="node14" class="node">
<title>rel_3</title>
<path fill="#f5b8b8" stroke="#d46a6a" stroke-width="1.2" d="M484.38,-166C484.38,-166 400.88,-166 400.88,-166 394.88,-166 388.88,-160 388.88,-154 388.88,-154 388.88,-142 388.88,-142 388.88,-136 394.88,-130 400.88,-130 400.88,-130 484.38,-130 484.38,-130 490.38,-130 496.38,-136 496.38,-142 496.38,-142 496.38,-154 496.38,-154 496.38,-160 490.38,-166 484.38,-166"/>
<text xml:space="preserve" text-anchor="middle" x="442.62" y="-144.5" font-family="Arial" font-size="10.00" fill="#8b0000">requires expertise for</text>
</g>
<!-- unknown.glyph&#45;&gt;rel_3 -->
<g id="edge12" class="edge">
<title>unknown.glyph&#45;&gt;rel_3</title>
<path fill="none" stroke="#d46a6a" stroke-width="1.5" d="M311.88,-226.34C325.16,-212.48 344.67,-193.83 364.5,-181 370.09,-177.39 376.14,-174.01 382.3,-170.9"/>
<polygon fill="#d46a6a" stroke="#d46a6a" stroke-width="1.5" points="383.34,-173.51 389.34,-167.53 380.92,-168.46 383.34,-173.51"/>
</g>
<!-- unknown.encoding -->
<g id="node2" class="node">
<title>unknown.encoding</title>
<path fill="#b8e6b8" stroke="#2c3e50" stroke-width="1.8" d="M309.5,-69C309.5,-69 278.5,-69 278.5,-69 272.5,-69 266.5,-63 266.5,-57 266.5,-57 266.5,-45 266.5,-45 266.5,-39 272.5,-33 278.5,-33 278.5,-33 309.5,-33 309.5,-33 315.5,-33 321.5,-39 321.5,-45 321.5,-45 321.5,-57 321.5,-57 321.5,-63 315.5,-69 309.5,-69"/>
<text xml:space="preserve" text-anchor="middle" x="294" y="-47.5" font-family="Arial" font-size="10.00" fill="#1a1a1a">encoding</text>
</g>
<!-- attr_2 -->
<g id="node8" class="node">
<title>attr_2</title>
<path fill="#c7b8e6" stroke="#7f8c8d" stroke-width="1.2" d="M508.75,-101C508.75,-101 376.5,-101 376.5,-101 370.5,-101 364.5,-95 364.5,-89 364.5,-89 364.5,-77 364.5,-77 364.5,-71 370.5,-65 376.5,-65 376.5,-65 508.75,-65 508.75,-65 514.75,-65 520.75,-71 520.75,-77 520.75,-77 520.75,-89 520.75,-89 520.75,-95 514.75,-101 508.75,-101"/>
<text xml:space="preserve" text-anchor="middle" x="442.62" y="-79.5" font-family="Arial" font-size="10.00" fill="#1a1a1a">(+) unclear data correspondence</text>
</g>
<!-- unknown.encoding&#45;&gt;attr_2 -->
<g id="edge3" class="edge">
<title>unknown.encoding&#45;&gt;attr_2</title>
<path fill="none" stroke="#aaaaaa" d="M322.24,-56.94C332.09,-59.09 343.8,-61.65 355.99,-64.31"/>
<polygon fill="#aaaaaa" stroke="#aaaaaa" points="355.21,-66.65 362.57,-65.75 356.25,-61.86 355.21,-66.65"/>
</g>
<!-- rel_1 -->
<g id="node12" class="node">
<title>rel_1</title>
<path fill="#f5b8b8" stroke="#d46a6a" stroke-width="1.2" d="M470.5,-36C470.5,-36 414.75,-36 414.75,-36 408.75,-36 402.75,-30 402.75,-24 402.75,-24 402.75,-12 402.75,-12 402.75,-6 408.75,0 414.75,0 414.75,0 470.5,0 470.5,0 476.5,0 482.5,-6 482.5,-12 482.5,-12 482.5,-24 482.5,-24 482.5,-30 476.5,-36 470.5,-36"/>
<text xml:space="preserve" text-anchor="middle" x="442.62" y="-14.5" font-family="Arial" font-size="10.00" fill="#8b0000">fails to convey</text>
</g>
<!-- unknown.encoding&#45;&gt;rel_1 -->
<g id="edge8" class="edge">
<title>unknown.encoding&#45;&gt;rel_1</title>
<path fill="none" stroke="#d46a6a" stroke-width="1.5" d="M322.24,-44.87C341.95,-40.43 369.13,-34.32 392.58,-29.04"/>
<polygon fill="#d46a6a" stroke="#d46a6a" stroke-width="1.5" points="392.96,-31.82 400.15,-27.33 391.73,-26.36 392.96,-31.82"/>
</g>
<!-- furniture.legend -->
<g id="node3" class="node">
<title>furniture.legend</title>
<path fill="#b8e6b8" stroke="#2c3e50" stroke-width="1.8" d="M45.5,-101C45.5,-101 15.5,-101 15.5,-101 9.5,-101 3.5,-95 3.5,-89 3.5,-89 3.5,-77 3.5,-77 3.5,-71 9.5,-65 15.5,-65 15.5,-65 45.5,-65 45.5,-65 51.5,-65 57.5,-71 57.5,-77 57.5,-77 57.5,-89 57.5,-89 57.5,-95 51.5,-101 45.5,-101"/>
<text xml:space="preserve" text-anchor="middle" x="30.5" y="-79.5" font-family="Arial" font-size="10.00" fill="#1a1a1a">legend</text>
</g>
<!-- attr_3 -->
<g id="node9" class="node">
<title>attr_3</title>
<path fill="#c7b8e6" stroke="#7f8c8d" stroke-width="1.2" d="M211.5,-134C211.5,-134 116,-134 116,-134 110,-134 104,-128 104,-122 104,-122 104,-110 104,-110 104,-104 110,-98 116,-98 116,-98 211.5,-98 211.5,-98 217.5,-98 223.5,-104 223.5,-110 223.5,-110 223.5,-122 223.5,-122 223.5,-128 217.5,-134 211.5,-134"/>
<text xml:space="preserve" text-anchor="middle" x="163.75" y="-112.5" font-family="Arial" font-size="10.00" fill="#1a1a1a">(+) insufficient guidance</text>
</g>
<!-- furniture.legend&#45;&gt;attr_3 -->
<g id="edge4" class="edge">
<title>furniture.legend&#45;&gt;attr_3</title>
<path fill="none" stroke="#aaaaaa" d="M58.38,-89.76C69.18,-92.47 82.17,-95.74 95.26,-99.03"/>
<polygon fill="#aaaaaa" stroke="#aaaaaa" points="94.55,-101.38 101.94,-100.71 95.75,-96.63 94.55,-101.38"/>
</g>
<!-- rel_2 -->
<g id="node13" class="node">
<title>rel_2</title>
<path fill="#f5b8b8" stroke="#d46a6a" stroke-width="1.2" d="M207.38,-69C207.38,-69 120.12,-69 120.12,-69 114.12,-69 108.12,-63 108.12,-57 108.12,-57 108.12,-45 108.12,-45 108.12,-39 114.12,-33 120.12,-33 120.12,-33 207.38,-33 207.38,-33 213.38,-33 219.38,-39 219.38,-45 219.38,-45 219.38,-57 219.38,-57 219.38,-63 213.38,-69 207.38,-69"/>
<text xml:space="preserve" text-anchor="middle" x="163.75" y="-47.5" font-family="Arial" font-size="10.00" fill="#8b0000">inadequately supports</text>
</g>
<!-- furniture.legend&#45;&gt;rel_2 -->
<g id="edge10" class="edge">
<title>furniture.legend&#45;&gt;rel_2</title>
<path fill="none" stroke="#d46a6a" stroke-width="1.5" d="M58.38,-76.45C69.95,-73.62 84.04,-70.19 98.07,-66.77"/>
<polygon fill="#d46a6a" stroke="#d46a6a" stroke-width="1.5" points="98.42,-69.57 105.53,-64.95 97.1,-64.13 98.42,-69.57"/>
</g>
<!-- text.annotation -->
<g id="node4" class="node">
<title>text.annotation</title>
<path fill="#b8e6b8" stroke="#2c3e50" stroke-width="1.8" d="M49,-166C49,-166 12,-166 12,-166 6,-166 0,-160 0,-154 0,-154 0,-142 0,-142 0,-136 6,-130 12,-130 12,-130 49,-130 49,-130 55,-130 61,-136 61,-142 61,-142 61,-154 61,-154 61,-160 55,-166 49,-166"/>
<text xml:space="preserve" text-anchor="middle" x="30.5" y="-144.5" font-family="Arial" font-size="10.00" fill="#1a1a1a">annotation</text>
</g>
<!-- unknown.message -->
<g id="node5" class="node">
<title>unknown.message</title>
<path fill="#b8e6b8" stroke="#2c3e50" stroke-width="1.8" d="M607.5,-166C607.5,-166 575.75,-166 575.75,-166 569.75,-166 563.75,-160 563.75,-154 563.75,-154 563.75,-142 563.75,-142 563.75,-136 569.75,-130 575.75,-130 575.75,-130 607.5,-130 607.5,-130 613.5,-130 619.5,-136 619.5,-142 619.5,-142 619.5,-154 619.5,-154 619.5,-160 613.5,-166 607.5,-166"/>
<text xml:space="preserve" text-anchor="middle" x="591.62" y="-144.5" font-family="Arial" font-size="10.00" fill="#1a1a1a">message</text>
</g>
<!-- attr_4 -->
<g id="node10" class="node">
<title>attr_4</title>
<path fill="#c7b8e6" stroke="#7f8c8d" stroke-width="1.2" d="M811.25,-166C811.25,-166 674.5,-166 674.5,-166 668.5,-166 662.5,-160 662.5,-154 662.5,-154 662.5,-142 662.5,-142 662.5,-136 668.5,-130 674.5,-130 674.5,-130 811.25,-130 811.25,-130 817.25,-130 823.25,-136 823.25,-142 823.25,-142 823.25,-154 823.25,-154 823.25,-160 817.25,-166 811.25,-166"/>
<text xml:space="preserve" text-anchor="middle" x="742.88" y="-144.5" font-family="Arial" font-size="10.00" fill="#1a1a1a">(+) ambiguous intended message</text>
</g>
<!-- unknown.message&#45;&gt;attr_4 -->
<g id="edge5" class="edge">
<title>unknown.message&#45;&gt;attr_4</title>
<path fill="none" stroke="#aaaaaa" d="M620.35,-148C630.07,-148 641.59,-148 653.59,-148"/>
<polygon fill="#aaaaaa" stroke="#aaaaaa" points="653.45,-150.45 660.45,-148 653.45,-145.55 653.45,-150.45"/>
</g>
<!-- rel_0&#45;&gt;unknown.message -->
<g id="edge7" class="edge">
<title>rel_0&#45;&gt;unknown.message</title>
<path fill="none" stroke="#d46a6a" stroke-width="1.5" d="M470.89,-202.06C485.71,-196.02 504.32,-188.28 520.75,-181 531.56,-176.21 543.22,-170.8 553.85,-165.77"/>
<polygon fill="#d46a6a" stroke="#d46a6a" stroke-width="1.5" points="554.81,-168.41 560.83,-162.45 552.41,-163.36 554.81,-168.41"/>
</g>
<!-- rel_1&#45;&gt;unknown.message -->
<g id="edge9" class="edge">
<title>rel_1&#45;&gt;unknown.message</title>
<path fill="none" stroke="#d46a6a" stroke-width="1.5" d="M482.79,-29.41C495.73,-34.39 509.64,-41.15 520.75,-50 544.92,-69.24 564.49,-98.96 576.7,-120.62"/>
<polygon fill="#d46a6a" stroke="#d46a6a" stroke-width="1.5" points="574.09,-121.69 580.38,-127.37 579,-119 574.09,-121.69"/>
</g>
<!-- rel_2&#45;&gt;unknown.encoding -->
<g id="edge11" class="edge">
<title>rel_2&#45;&gt;unknown.encoding</title>
<path fill="none" stroke="#d46a6a" stroke-width="1.5" d="M219.88,-51C231.92,-51 244.39,-51 255.55,-51"/>
<polygon fill="#d46a6a" stroke="#d46a6a" stroke-width="1.5" points="255.52,-53.8 263.52,-51 255.52,-48.2 255.52,-53.8"/>
</g>
<!-- rel_3&#45;&gt;unknown.message -->
<g id="edge13" class="edge">
<title>rel_3&#45;&gt;unknown.message</title>
<path fill="none" stroke="#d46a6a" stroke-width="1.5" d="M496.7,-148C515.36,-148 535.92,-148 553.05,-148"/>
<polygon fill="#d46a6a" stroke="#d46a6a" stroke-width="1.5" points="552.94,-150.8 560.94,-148 552.94,-145.2 552.94,-150.8"/>
</g>
</g>
</svg>
