<?xml version="1.0" encoding="UTF-8" standalone="no"?>
<!DOCTYPE svg PUBLIC "-//W3C//DTD SVG 1.1//EN"
 "http://www.w3.org/Graphics/SVG/1.1/DTD/svg11.dtd">
<!-- Generated by graphviz version 14.1.5 (20260411.2331)
 -->
<!-- Title: VisJ.1949.7(2).png Pages: 1 -->
<svg width="556pt" height="440pt"
 viewBox="0.00 0.00 556.00 440.00" xmlns="http://www.w3.org/2000/svg" xmlns:xlink="http://www.w3.org/1999/xlink">
<g id="graph0" class="graph" transform="scale(1 1) rotate(0) translate(4 436.25)">
<title>VisJ.1949.7(2).png</title>
<polygon fill="white" stroke="none" points="-4,4 -4,-436.25 551.75,-436.25 551.75,4 -4,4"/>
<text xml:space="preserve" text-anchor="start" x="215" y="-411.95" font-family="Arial" font-weight="bold" font-size="14.00">VisJ.1949.7(2).png</text>
<text xml:space="preserve" text-anchor="start" x="227.75" y="-392" font-family="Arial" font-size="11.00">Glyph &#160;| &#160;VC = 0.51</text>
<path fill="#b8e6b8" stroke="none" d="M64.5,-367C64.5,-367 72.5,-367 72.5,-367 75.5,-367 78.5,-370 78.5,-373 78.5,-373 78.5,-379 78.5,-379 78.5,-382 75.5,-385 72.5,-385 72.5,-385 64.5,-385 64.5,-385 61.5,-385 58.5,-382 58.5,-379 58.5,-379 58.5,-373 58.5,-373 58.5,-370 61.5,-367 64.5,-367"/>
<path fill="none" stroke="black" d="M64.5,-367C64.5,-367 72.5,-367 72.5,-367 75.5,-367 78.5,-370 78.5,-373 78.5,-373 78.5,-379 78.5,-379 78.5,-382 75.5,-385 72.5,-385 72.5,-385 64.5,-385 64.5,-385 61.5,-385 58.5,-382 58.5,-379 58.5,-379 58.5,-373 58.5,-373 58.5,-370 61.5,-367 64.5,-367"/>
<text xml:space="preserve" text-anchor="start" x="67" y="-372.25" font-family="Arial" font-size="10.00"> </text>
<text xml:space="preserve" text-anchor="start" x="82.5" y="-372.25" font-family="Arial" font-size="10.00">Object</text>
<path fill="#c7b8e6" stroke="none" d="M121,-367C121,-367 129,-367 129,-367 132,-367 135,-370 135,-373 135,-373 135,-379 135,-379 135,-382 132,-385 129,-385 129,-385 121,-385 121,-385 118,-385 115,-382 115,-379 115,-379 115,-373 115,-373 115,-370 118,-367 121,-367"/>
<path fill="none" stroke="black" d="M121,-367C121,-367 129,-367 129,-367 132,-367 135,-370 135,-373 135,-373 135,-379 135,-379 135,-382 132,-385 129,-385 129,-385 121,-385 121,-385 118,-385 115,-382 115,-379 115,-379 115,-373 115,-373 115,-370 118,-367 121,-367"/>
<text xml:space="preserve" text-anchor="start" x="123.5" y="-372.25" font-family="Arial" font-size="10.00"> </text>
<text xml:space="preserve" text-anchor="start" x="139" y="-372.25" font-family="Arial" font-size="10.00">Attribute</text>
<path fill="#f5b8b8" stroke="none" d="M185.75,-367C185.75,-367 193.75,-367 193.75,-367 196.75,-367 199.75,-370 199.75,-373 199.75,-373 199.75,-379 199.75,-379 199.75,-382 196.75,-385 193.75,-385 193.75,-385 185.75,-385 185.75,-385 182.75,-385 179.75,-382 179.75,-379 179.75,-379 179.75,-373 179.75,-373 179.75,-370 182.75,-367 185.75,-367"/>
<path fill="none" stroke="black" d="M185.75,-367C185.75,-367 193.75,-367 193.75,-367 196.75,-367 199.75,-370 199.75,-373 199.75,-373 199.75,-379 199.75,-379 199.75,-382 196.75,-385 193.75,-385 193.75,-385 185.75,-385 185.75,-385 182.75,-385 179.75,-382 179.75,-379 179.75,-379 179.75,-373 179.75,-373 179.75,-370 182.75,-367 185.75,-367"/>
<text xml:space="preserve" text-anchor="start" x="188.25" y="-372.25" font-family="Arial" font-size="10.00"> </text>
<text xml:space="preserve" text-anchor="start" x="203.75" y="-372.25" font-family="Arial" font-size="10.00">Relationship</text>
<text xml:space="preserve" text-anchor="start" x="263.75" y="-373.5" font-family="Arial" font-weight="bold" font-size="10.00">(+)</text>
<text xml:space="preserve" text-anchor="start" x="275.75" y="-373.5" font-family="Arial" font-size="10.00"> increases complexity</text>
<text xml:space="preserve" text-anchor="start" x="377" y="-373.5" font-family="Arial" font-weight="bold" font-size="10.00">(−)</text>
<text xml:space="preserve" text-anchor="start" x="389" y="-373.5" font-family="Arial" font-size="10.00"> decreases complexity</text>
<!-- unknown.glyph -->
<g id="node1" class="node">
<title>unknown.glyph</title>
<path fill="#b8e6b8" stroke="#2c3e50" stroke-width="1.8" d="M47,-198C47,-198 17,-198 17,-198 11,-198 5,-192 5,-186 5,-186 5,-174 5,-174 5,-168 11,-162 17,-162 17,-162 47,-162 47,-162 53,-162 59,-168 59,-174 59,-174 59,-186 59,-186 59,-192 53,-198 47,-198"/>
<text xml:space="preserve" text-anchor="middle" x="32" y="-176.5" font-family="Arial" font-size="10.00" fill="#1a1a1a">glyph</text>
</g>
<!-- attr_0 -->
<g id="node6" class="node">
<title>attr_0</title>
<path fill="#c7b8e6" stroke="#7f8c8d" stroke-width="1.2" d="M252,-231C252,-231 119,-231 119,-231 113,-231 107,-225 107,-219 107,-219 107,-207 107,-207 107,-201 113,-195 119,-195 119,-195 252,-195 252,-195 258,-195 264,-201 264,-207 264,-207 264,-219 264,-219 264,-225 258,-231 252,-231"/>
<text xml:space="preserve" text-anchor="middle" x="185.5" y="-209.5" font-family="Arial" font-size="10.00" fill="#1a1a1a">(+) childlike informal appearance</text>
</g>
<!-- unknown.glyph&#45;&gt;attr_0 -->
<g id="edge1" class="edge">
<title>unknown.glyph&#45;&gt;attr_0</title>
<path fill="none" stroke="#aaaaaa" d="M59.74,-185.82C70.81,-188.24 84.34,-191.18 98.35,-194.24"/>
<polygon fill="#aaaaaa" stroke="#aaaaaa" points="97.81,-196.62 105.17,-195.72 98.85,-191.84 97.81,-196.62"/>
</g>
<!-- rel_1 -->
<g id="node12" class="node">
<title>rel_1</title>
<path fill="#f5b8b8" stroke="#d46a6a" stroke-width="1.2" d="M227.25,-166C227.25,-166 143.75,-166 143.75,-166 137.75,-166 131.75,-160 131.75,-154 131.75,-154 131.75,-142 131.75,-142 131.75,-136 137.75,-130 143.75,-130 143.75,-130 227.25,-130 227.25,-130 233.25,-130 239.25,-136 239.25,-142 239.25,-142 239.25,-154 239.25,-154 239.25,-160 233.25,-166 227.25,-166"/>
<text xml:space="preserve" text-anchor="middle" x="185.5" y="-144.5" font-family="Arial" font-size="10.00" fill="#8b0000">requires expertise for</text>
</g>
<!-- unknown.glyph&#45;&gt;rel_1 -->
<g id="edge8" class="edge">
<title>unknown.glyph&#45;&gt;rel_1</title>
<path fill="none" stroke="#d46a6a" stroke-width="1.5" d="M59.74,-174.35C76.9,-170.73 99.95,-165.86 121.56,-161.29"/>
<polygon fill="#d46a6a" stroke="#d46a6a" stroke-width="1.5" points="121.9,-164.09 129.14,-159.69 120.74,-158.61 121.9,-164.09"/>
</g>
<!-- mark.shape -->
<g id="node2" class="node">
<title>mark.shape</title>
<path fill="#b8e6b8" stroke="#2c3e50" stroke-width="1.8" d="M47,-68C47,-68 17,-68 17,-68 11,-68 5,-62 5,-56 5,-56 5,-44 5,-44 5,-38 11,-32 17,-32 17,-32 47,-32 47,-32 53,-32 59,-38 59,-44 59,-44 59,-56 59,-56 59,-62 53,-68 47,-68"/>
<text xml:space="preserve" text-anchor="middle" x="32" y="-46.5" font-family="Arial" font-size="10.00" fill="#1a1a1a">shape</text>
</g>
<!-- attr_1 -->
<g id="node7" class="node">
<title>attr_1</title>
<path fill="#c7b8e6" stroke="#7f8c8d" stroke-width="1.2" d="M243.38,-101C243.38,-101 127.62,-101 127.62,-101 121.62,-101 115.62,-95 115.62,-89 115.62,-89 115.62,-77 115.62,-77 115.62,-71 121.62,-65 127.62,-65 127.62,-65 243.38,-65 243.38,-65 249.38,-65 255.38,-71 255.38,-77 255.38,-77 255.38,-89 255.38,-89 255.38,-95 249.38,-101 243.38,-101"/>
<text xml:space="preserve" text-anchor="middle" x="185.5" y="-79.5" font-family="Arial" font-size="10.00" fill="#1a1a1a">(+) irregular unfamiliar shape</text>
</g>
<!-- mark.shape&#45;&gt;attr_1 -->
<g id="edge2" class="edge">
<title>mark.shape&#45;&gt;attr_1</title>
<path fill="none" stroke="#aaaaaa" d="M59.74,-55.82C73.02,-58.72 89.83,-62.38 106.78,-66.07"/>
<polygon fill="#aaaaaa" stroke="#aaaaaa" points="106.25,-68.46 113.61,-67.56 107.29,-63.68 106.25,-68.46"/>
</g>
<!-- rel_0 -->
<g id="node11" class="node">
<title>rel_0</title>
<path fill="#f5b8b8" stroke="#d46a6a" stroke-width="1.2" d="M200.5,-36C200.5,-36 170.5,-36 170.5,-36 164.5,-36 158.5,-30 158.5,-24 158.5,-24 158.5,-12 158.5,-12 158.5,-6 164.5,0 170.5,0 170.5,0 200.5,0 200.5,0 206.5,0 212.5,-6 212.5,-12 212.5,-12 212.5,-24 212.5,-24 212.5,-30 206.5,-36 200.5,-36"/>
<text xml:space="preserve" text-anchor="middle" x="185.5" y="-14.5" font-family="Arial" font-size="10.00" fill="#8b0000">reduces</text>
</g>
<!-- mark.shape&#45;&gt;rel_0 -->
<g id="edge6" class="edge">
<title>mark.shape&#45;&gt;rel_0</title>
<path fill="none" stroke="#d46a6a" stroke-width="1.5" d="M59.74,-44.35C84.29,-39.17 120.89,-31.44 148.1,-25.69"/>
<polygon fill="#d46a6a" stroke="#d46a6a" stroke-width="1.5" points="148.56,-28.45 155.81,-24.06 147.4,-22.97 148.56,-28.45"/>
</g>
<!-- unknown.encoding -->
<g id="node3" class="node">
<title>unknown.encoding</title>
<path fill="#b8e6b8" stroke="#2c3e50" stroke-width="1.8" d="M350,-101C350,-101 319,-101 319,-101 313,-101 307,-95 307,-89 307,-89 307,-77 307,-77 307,-71 313,-65 319,-65 319,-65 350,-65 350,-65 356,-65 362,-71 362,-77 362,-77 362,-89 362,-89 362,-95 356,-101 350,-101"/>
<text xml:space="preserve" text-anchor="middle" x="334.5" y="-79.5" font-family="Arial" font-size="10.00" fill="#1a1a1a">encoding</text>
</g>
<!-- attr_2 -->
<g id="node8" class="node">
<title>attr_2</title>
<path fill="#c7b8e6" stroke="#7f8c8d" stroke-width="1.2" d="M535.75,-101C535.75,-101 417,-101 417,-101 411,-101 405,-95 405,-89 405,-89 405,-77 405,-77 405,-71 411,-65 417,-65 417,-65 535.75,-65 535.75,-65 541.75,-65 547.75,-71 547.75,-77 547.75,-77 547.75,-89 547.75,-89 547.75,-95 541.75,-101 535.75,-101"/>
<text xml:space="preserve" text-anchor="middle" x="476.38" y="-79.5" font-family="Arial" font-size="10.00" fill="#1a1a1a">(+) non standard conventions</text>
</g>
<!-- unknown.encoding&#45;&gt;attr_2 -->
<g id="edge3" class="edge">
<title>unknown.encoding&#45;&gt;attr_2</title>
<path fill="none" stroke="#aaaaaa" d="M362.8,-83C372.62,-83 384.25,-83 396.25,-83"/>
<polygon fill="#aaaaaa" stroke="#aaaaaa" points="396.09,-85.45 403.09,-83 396.09,-80.55 396.09,-85.45"/>
</g>
<!-- text.label -->
<g id="node4" class="node">
<title>text.label</title>
<path fill="#b8e6b8" stroke="#2c3e50" stroke-width="1.8" d="M349.5,-296C349.5,-296 319.5,-296 319.5,-296 313.5,-296 307.5,-290 307.5,-284 307.5,-284 307.5,-272 307.5,-272 307.5,-266 313.5,-260 319.5,-260 319.5,-260 349.5,-260 349.5,-260 355.5,-260 361.5,-266 361.5,-272 361.5,-272 361.5,-284 361.5,-284 361.5,-290 355.5,-296 349.5,-296"/>
<text xml:space="preserve" text-anchor="middle" x="334.5" y="-274.5" font-family="Arial" font-size="10.00" fill="#1a1a1a">label</text>
</g>
<!-- attr_4 -->
<g id="node9" class="node">
<title>attr_4</title>
<path fill="#c7b8e6" stroke="#7f8c8d" stroke-width="1.2" d="M523.38,-296C523.38,-296 429.38,-296 429.38,-296 423.38,-296 417.38,-290 417.38,-284 417.38,-284 417.38,-272 417.38,-272 417.38,-266 423.38,-260 429.38,-260 429.38,-260 523.38,-260 523.38,-260 529.38,-260 535.38,-266 535.38,-272 535.38,-272 535.38,-284 535.38,-284 535.38,-290 529.38,-296 523.38,-296"/>
<text xml:space="preserve" text-anchor="middle" x="476.38" y="-274.5" font-family="Arial" font-size="10.00" fill="#1a1a1a">(+) ambiguous meaning</text>
</g>
<!-- text.label&#45;&gt;attr_4 -->
<g id="edge4" class="edge">
<title>text.label&#45;&gt;attr_4</title>
<path fill="none" stroke="#aaaaaa" d="M362.14,-278C375.49,-278 392.31,-278 408.88,-278"/>
<polygon fill="#aaaaaa" stroke="#aaaaaa" points="408.46,-280.45 415.46,-278 408.46,-275.55 408.46,-280.45"/>
</g>
<!-- unknown.visual_form -->
<g id="node5" class="node">
<title>unknown.visual_form</title>
<path fill="#b8e6b8" stroke="#2c3e50" stroke-width="1.8" d="M52,-328C52,-328 12,-328 12,-328 6,-328 0,-322 0,-316 0,-316 0,-304 0,-304 0,-298 6,-292 12,-292 12,-292 52,-292 52,-292 58,-292 64,-298 64,-304 64,-304 64,-316 64,-316 64,-322 58,-328 52,-328"/>
<text xml:space="preserve" text-anchor="middle" x="32" y="-306.5" font-family="Arial" font-size="10.00" fill="#1a1a1a">visual form</text>
</g>
<!-- attr_3 -->
<g id="node10" class="node">
<title>attr_3</title>
<path fill="#c7b8e6" stroke="#7f8c8d" stroke-width="1.2" d="M252,-361C252,-361 119,-361 119,-361 113,-361 107,-355 107,-349 107,-349 107,-337 107,-337 107,-331 113,-325 119,-325 119,-325 252,-325 252,-325 258,-325 264,-331 264,-337 264,-337 264,-349 264,-349 264,-355 258,-361 252,-361"/>
<text xml:space="preserve" text-anchor="middle" x="185.5" y="-339.5" font-family="Arial" font-size="10.00" fill="#1a1a1a">(+) abstract non representational</text>
</g>
<!-- unknown.visual_form&#45;&gt;attr_3 -->
<g id="edge5" class="edge">
<title>unknown.visual_form&#45;&gt;attr_3</title>
<path fill="none" stroke="#aaaaaa" d="M64.76,-316.92C74.77,-319.1 86.35,-321.62 98.28,-324.22"/>
<polygon fill="#aaaaaa" stroke="#aaaaaa" points="97.74,-326.61 105.11,-325.71 98.79,-321.82 97.74,-326.61"/>
</g>
<!-- rel_2 -->
<g id="node13" class="node">
<title>rel_2</title>
<path fill="#f5b8b8" stroke="#d46a6a" stroke-width="1.2" d="M207.75,-296C207.75,-296 163.25,-296 163.25,-296 157.25,-296 151.25,-290 151.25,-284 151.25,-284 151.25,-272 151.25,-272 151.25,-266 157.25,-260 163.25,-260 163.25,-260 207.75,-260 207.75,-260 213.75,-260 219.75,-266 219.75,-272 219.75,-272 219.75,-284 219.75,-284 219.75,-290 213.75,-296 207.75,-296"/>
<text xml:space="preserve" text-anchor="middle" x="185.5" y="-274.5" font-family="Arial" font-size="10.00" fill="#8b0000">overwhelms</text>
</g>
<!-- unknown.visual_form&#45;&gt;rel_2 -->
<g id="edge10" class="edge">
<title>unknown.visual_form&#45;&gt;rel_2</title>
<path fill="none" stroke="#d46a6a" stroke-width="1.5" d="M64.76,-303.29C86.78,-298.64 116.38,-292.39 140.64,-287.26"/>
<polygon fill="#d46a6a" stroke="#d46a6a" stroke-width="1.5" points="141.21,-290.01 148.46,-285.61 140.05,-284.53 141.21,-290.01"/>
</g>
<!-- rel_0&#45;&gt;unknown.encoding -->
<g id="edge7" class="edge">
<title>rel_0&#45;&gt;unknown.encoding</title>
<path fill="none" stroke="#d46a6a" stroke-width="1.5" d="M212.83,-28.48C227.9,-34.57 247.1,-42.5 264,-50 274.86,-54.82 286.56,-60.27 297.21,-65.34"/>
<polygon fill="#d46a6a" stroke="#d46a6a" stroke-width="1.5" points="295.78,-67.75 304.21,-68.68 298.2,-62.7 295.78,-67.75"/>
</g>
<!-- rel_1&#45;&gt;unknown.encoding -->
<g id="edge9" class="edge">
<title>rel_1&#45;&gt;unknown.encoding</title>
<path fill="none" stroke="#d46a6a" stroke-width="1.5" d="M230.45,-129.55C241.43,-124.86 253.17,-119.8 264,-115 274.8,-110.21 286.49,-104.89 297.14,-99.98"/>
<polygon fill="#d46a6a" stroke="#d46a6a" stroke-width="1.5" points="298.04,-102.65 304.12,-96.75 295.69,-97.57 298.04,-102.65"/>
</g>
<!-- rel_2&#45;&gt;text.label -->
<g id="edge11" class="edge">
<title>rel_2&#45;&gt;text.label</title>
<path fill="none" stroke="#d46a6a" stroke-width="1.5" d="M220.22,-278C243.01,-278 273.1,-278 296.54,-278"/>
<polygon fill="#d46a6a" stroke="#d46a6a" stroke-width="1.5" points="296.52,-280.8 304.52,-278 296.52,-275.2 296.52,-280.8"/>
</g>
</g>
</svg>
