<?xml version="1.0" encoding="UTF-8" standalone="no"?>
<!DOCTYPE svg PUBLIC "-//W3C//DTD SVG 1.1//EN"
 "http://www.w3.org/Graphics/SVG/1.1/DTD/svg11.dtd">
<!-- Generated by graphviz version 14.1.5 (20260411.2331)
 -->
<!-- Title: VisJ.1329.1(4).png Pages: 1 -->
<svg width="689pt" height="505pt"
 viewBox="0.00 0.00 689.00 505.00" xmlns="http://www.w3.org/2000/svg" xmlns:xlink="http://www.w3.org/1999/xlink">
<g id="graph0" class="graph" transform="scale(1 1) rotate(0) translate(4 501.25)">
<title>VisJ.1329.1(4).png</title>
<polygon fill="white" stroke="none" points="-4,4 -4,-501.25 685.25,-501.25 685.25,4 -4,4"/>
<text xml:space="preserve" text-anchor="start" x="281.75" y="-476.95" font-family="Arial" font-weight="bold" font-size="14.00">VisJ.1329.1(4).png</text>
<text xml:space="preserve" text-anchor="start" x="294.5" y="-457" font-family="Arial" font-size="11.00">Glyph &#160;| &#160;VC = 0.64</text>
<path fill="#b8e6b8" stroke="none" d="M131.25,-432C131.25,-432 139.25,-432 139.25,-432 142.25,-432 145.25,-435 145.25,-438 145.25,-438 145.25,-444 145.25,-444 145.25,-447 142.25,-450 139.25,-450 139.25,-450 131.25,-450 131.25,-450 128.25,-450 125.25,-447 125.25,-444 125.25,-444 125.25,-438 125.25,-438 125.25,-435 128.25,-432 131.25,-432"/>
<path fill="none" stroke="black" d="M131.25,-432C131.25,-432 139.25,-432 139.25,-432 142.25,-432 145.25,-435 145.25,-438 145.25,-438 145.25,-444 145.25,-444 145.25,-447 142.25,-450 139.25,-450 139.25,-450 131.25,-450 131.25,-450 128.25,-450 125.25,-447 125.25,-444 125.25,-444 125.25,-438 125.25,-438 125.25,-435 128.25,-432 131.25,-432"/>
<text xml:space="preserve" text-anchor="start" x="133.75" y="-437.25" font-family="Arial" font-size="10.00"> </text>
<text xml:space="preserve" text-anchor="start" x="149.25" y="-437.25" font-family="Arial" font-size="10.00">Object</text>
<path fill="#c7b8e6" stroke="none" d="M187.75,-432C187.75,-432 195.75,-432 195.75,-432 198.75,-432 201.75,-435 201.75,-438 201.75,-438 201.75,-444 201.75,-444 201.75,-447 198.75,-450 195.75,-450 195.75,-450 187.75,-450 187.75,-450 184.75,-450 181.75,-447 181.75,-444 181.75,-444 181.75,-438 181.75,-438 181.75,-435 184.75,-432 187.75,-432"/>
<path fill="none" stroke="black" d="M187.75,-432C187.75,-432 195.75,-432 195.75,-432 198.75,-432 201.75,-435 201.75,-438 201.75,-438 201.75,-444 201.75,-444 201.75,-447 198.75,-450 195.75,-450 195.75,-450 187.75,-450 187.75,-450 184.75,-450 181.75,-447 181.75,-444 181.75,-444 181.75,-438 181.75,-438 181.75,-435 184.75,-432 187.75,-432"/>
<text xml:space="preserve" text-anchor="start" x="190.25" y="-437.25" font-family="Arial" font-size="10.00"> </text>
<text xml:space="preserve" text-anchor="start" x="205.75" y="-437.25" font-family="Arial" font-size="10.00">Attribute</text>
<path fill="#f5b8b8" stroke="none" d="M252.5,-432C252.5,-432 260.5,-432 260.5,-432 263.5,-432 266.5,-435 266.5,-438 266.5,-438 266.5,-444 266.5,-444 266.5,-447 263.5,-450 260.5,-450 260.5,-450 252.5,-450 252.5,-450 249.5,-450 246.5,-447 246.5,-444 246.5,-444 246.5,-438 246.5,-438 246.5,-435 249.5,-432 252.5,-432"/>
<path fill="none" stroke="black" d="M252.5,-432C252.5,-432 260.5,-432 260.5,-432 263.5,-432 266.5,-435 266.5,-438 266.5,-438 266.5,-444 266.5,-444 266.5,-447 263.5,-450 260.5,-450 260.5,-450 252.5,-450 252.5,-450 249.5,-450 246.5,-447 246.5,-444 246.5,-444 246.5,-438 246.5,-438 246.5,-435 249.5,-432 252.5,-432"/>
<text xml:space="preserve" text-anchor="start" x="255" y="-437.25" font-family="Arial" font-size="10.00"> </text>
<text xml:space="preserve" text-anchor="start" x="270.5" y="-437.25" font-family="Arial" font-size="10.00">Relationship</text>
<text xml:space="preserve" text-anchor="start" x="330.5" y="-438.5" font-family="Arial" font-weight="bold" font-size="10.00">(+)</text>
<text xml:space="preserve" text-anchor="start" x="342.5" y="-438.5" font-family="Arial" font-size="10.00"> increases complexity</text>
<text xml:space="preserve" text-anchor="start" x="443.75" y="-438.5" font-family="Arial" font-weight="bold" font-size="10.00">(−)</text>
<text xml:space="preserve" text-anchor="start" x="455.75" y="-438.5" font-family="Arial" font-size="10.00"> decreases complexity</text>
<!-- unknown.glyph_shapes -->
<g id="node1" class="node">
<title>unknown.glyph_shapes</title>
<path fill="#b8e6b8" stroke="#2c3e50" stroke-width="1.8" d="M348.25,-101C348.25,-101 298.5,-101 298.5,-101 292.5,-101 286.5,-95 286.5,-89 286.5,-89 286.5,-77 286.5,-77 286.5,-71 292.5,-65 298.5,-65 298.5,-65 348.25,-65 348.25,-65 354.25,-65 360.25,-71 360.25,-77 360.25,-77 360.25,-89 360.25,-89 360.25,-95 354.25,-101 348.25,-101"/>
<text xml:space="preserve" text-anchor="middle" x="323.38" y="-79.5" font-family="Arial" font-size="10.00" fill="#1a1a1a">glyph shapes</text>
</g>
<!-- attr_0 -->
<g id="node6" class="node">
<title>attr_0</title>
<path fill="#c7b8e6" stroke="#7f8c8d" stroke-width="1.2" d="M555.75,-166C555.75,-166 448.25,-166 448.25,-166 442.25,-166 436.25,-160 436.25,-154 436.25,-154 436.25,-142 436.25,-142 436.25,-136 442.25,-130 448.25,-130 448.25,-130 555.75,-130 555.75,-130 561.75,-130 567.75,-136 567.75,-142 567.75,-142 567.75,-154 567.75,-154 567.75,-160 561.75,-166 555.75,-166"/>
<text xml:space="preserve" text-anchor="middle" x="502" y="-144.5" font-family="Arial" font-size="10.00" fill="#1a1a1a">(+) unclear shape meaning</text>
</g>
<!-- unknown.glyph_shapes&#45;&gt;attr_0 -->
<g id="edge1" class="edge">
<title>unknown.glyph_shapes&#45;&gt;attr_0</title>
<path fill="none" stroke="#aaaaaa" d="M360.97,-96.47C384.61,-105.17 415.87,-116.67 442.86,-126.61"/>
<polygon fill="#aaaaaa" stroke="#aaaaaa" points="441.88,-128.86 449.3,-128.97 443.58,-124.26 441.88,-128.86"/>
</g>
<!-- attr_1 -->
<g id="node7" class="node">
<title>attr_1</title>
<path fill="#c7b8e6" stroke="#7f8c8d" stroke-width="1.2" d="M559.5,-101C559.5,-101 444.5,-101 444.5,-101 438.5,-101 432.5,-95 432.5,-89 432.5,-89 432.5,-77 432.5,-77 432.5,-71 438.5,-65 444.5,-65 444.5,-65 559.5,-65 559.5,-65 565.5,-65 571.5,-71 571.5,-77 571.5,-77 571.5,-89 571.5,-89 571.5,-95 565.5,-101 559.5,-101"/>
<text xml:space="preserve" text-anchor="middle" x="502" y="-79.5" font-family="Arial" font-size="10.00" fill="#1a1a1a">(+) abstract unfamiliar forms</text>
</g>
<!-- unknown.glyph_shapes&#45;&gt;attr_1 -->
<g id="edge2" class="edge">
<title>unknown.glyph_shapes&#45;&gt;attr_1</title>
<path fill="none" stroke="#aaaaaa" d="M360.97,-83C379.16,-83 401.87,-83 423.67,-83"/>
<polygon fill="#aaaaaa" stroke="#aaaaaa" points="423.45,-85.45 430.45,-83 423.45,-80.55 423.45,-85.45"/>
</g>
<!-- rel_0 -->
<g id="node11" class="node">
<title>rel_0</title>
<path fill="#f5b8b8" stroke="#d46a6a" stroke-width="1.2" d="M517.88,-36C517.88,-36 486.12,-36 486.12,-36 480.12,-36 474.12,-30 474.12,-24 474.12,-24 474.12,-12 474.12,-12 474.12,-6 480.12,0 486.12,0 486.12,0 517.88,0 517.88,0 523.88,0 529.88,-6 529.88,-12 529.88,-12 529.88,-24 529.88,-24 529.88,-30 523.88,-36 517.88,-36"/>
<text xml:space="preserve" text-anchor="middle" x="502" y="-14.5" font-family="Arial" font-size="10.00" fill="#8b0000">confuses</text>
</g>
<!-- unknown.glyph_shapes&#45;&gt;rel_0 -->
<g id="edge6" class="edge">
<title>unknown.glyph_shapes&#45;&gt;rel_0</title>
<path fill="none" stroke="#d46a6a" stroke-width="1.5" d="M360.97,-69.53C391.24,-58.39 434.03,-42.65 464.32,-31.5"/>
<polygon fill="#d46a6a" stroke="#d46a6a" stroke-width="1.5" points="465.02,-34.23 471.56,-28.84 463.08,-28.97 465.02,-34.23"/>
</g>
<!-- unknown.movement_animation -->
<g id="node2" class="node">
<title>unknown.movement_animation</title>
<path fill="#b8e6b8" stroke="#2c3e50" stroke-width="1.8" d="M364.75,-393C364.75,-393 282,-393 282,-393 276,-393 270,-387 270,-381 270,-381 270,-369 270,-369 270,-363 276,-357 282,-357 282,-357 364.75,-357 364.75,-357 370.75,-357 376.75,-363 376.75,-369 376.75,-369 376.75,-381 376.75,-381 376.75,-387 370.75,-393 364.75,-393"/>
<text xml:space="preserve" text-anchor="middle" x="323.38" y="-371.5" font-family="Arial" font-size="10.00" fill="#1a1a1a">movement animation</text>
</g>
<!-- attr_2 -->
<g id="node8" class="node">
<title>attr_2</title>
<path fill="#c7b8e6" stroke="#7f8c8d" stroke-width="1.2" d="M562.12,-426C562.12,-426 441.88,-426 441.88,-426 435.88,-426 429.88,-420 429.88,-414 429.88,-414 429.88,-402 429.88,-402 429.88,-396 435.88,-390 441.88,-390 441.88,-390 562.12,-390 562.12,-390 568.12,-390 574.12,-396 574.12,-402 574.12,-402 574.12,-414 574.12,-414 574.12,-420 568.12,-426 562.12,-426"/>
<text xml:space="preserve" text-anchor="middle" x="502" y="-404.5" font-family="Arial" font-size="10.00" fill="#1a1a1a">(+) unclear movement pattern</text>
</g>
<!-- unknown.movement_animation&#45;&gt;attr_2 -->
<g id="edge3" class="edge">
<title>unknown.movement_animation&#45;&gt;attr_2</title>
<path fill="none" stroke="#aaaaaa" d="M377.37,-384.9C391.17,-387.48 406.35,-390.32 421.21,-393.09"/>
<polygon fill="#aaaaaa" stroke="#aaaaaa" points="420.6,-395.47 427.93,-394.35 421.5,-390.65 420.6,-395.47"/>
</g>
<!-- rel_1 -->
<g id="node12" class="node">
<title>rel_1</title>
<path fill="#f5b8b8" stroke="#d46a6a" stroke-width="1.2" d="M524.25,-361C524.25,-361 479.75,-361 479.75,-361 473.75,-361 467.75,-355 467.75,-349 467.75,-349 467.75,-337 467.75,-337 467.75,-331 473.75,-325 479.75,-325 479.75,-325 524.25,-325 524.25,-325 530.25,-325 536.25,-331 536.25,-337 536.25,-337 536.25,-349 536.25,-349 536.25,-355 530.25,-361 524.25,-361"/>
<text xml:space="preserve" text-anchor="middle" x="502" y="-339.5" font-family="Arial" font-size="10.00" fill="#8b0000">overwhelms</text>
</g>
<!-- unknown.movement_animation&#45;&gt;rel_1 -->
<g id="edge8" class="edge">
<title>unknown.movement_animation&#45;&gt;rel_1</title>
<path fill="none" stroke="#d46a6a" stroke-width="1.5" d="M377.37,-365.4C402.89,-360.78 433.11,-355.3 457.29,-350.92"/>
<polygon fill="#d46a6a" stroke="#d46a6a" stroke-width="1.5" points="457.65,-353.7 465.02,-349.52 456.65,-348.19 457.65,-353.7"/>
</g>
<!-- furniture.legend -->
<g id="node3" class="node">
<title>furniture.legend</title>
<path fill="#b8e6b8" stroke="#2c3e50" stroke-width="1.8" d="M42,-133C42,-133 12,-133 12,-133 6,-133 0,-127 0,-121 0,-121 0,-109 0,-109 0,-103 6,-97 12,-97 12,-97 42,-97 42,-97 48,-97 54,-103 54,-109 54,-109 54,-121 54,-121 54,-127 48,-133 42,-133"/>
<text xml:space="preserve" text-anchor="middle" x="27" y="-111.5" font-family="Arial" font-size="10.00" fill="#1a1a1a">legend</text>
</g>
<!-- attr_3 -->
<g id="node9" class="node">
<title>attr_3</title>
<path fill="#c7b8e6" stroke="#7f8c8d" stroke-width="1.2" d="M215,-166C215,-166 109,-166 109,-166 103,-166 97,-160 97,-154 97,-154 97,-142 97,-142 97,-136 103,-130 109,-130 109,-130 215,-130 215,-130 221,-130 227,-136 227,-142 227,-142 227,-154 227,-154 227,-160 221,-166 215,-166"/>
<text xml:space="preserve" text-anchor="middle" x="162" y="-144.5" font-family="Arial" font-size="10.00" fill="#1a1a1a">(+) insufficient explanation</text>
</g>
<!-- furniture.legend&#45;&gt;attr_3 -->
<g id="edge4" class="edge">
<title>furniture.legend&#45;&gt;attr_3</title>
<path fill="none" stroke="#aaaaaa" d="M54.59,-121.6C64.54,-124.07 76.39,-127.01 88.49,-130.01"/>
<polygon fill="#aaaaaa" stroke="#aaaaaa" points="87.62,-132.32 95,-131.62 88.8,-127.56 87.62,-132.32"/>
</g>
<!-- rel_2 -->
<g id="node13" class="node">
<title>rel_2</title>
<path fill="#f5b8b8" stroke="#d46a6a" stroke-width="1.2" d="M187.25,-101C187.25,-101 136.75,-101 136.75,-101 130.75,-101 124.75,-95 124.75,-89 124.75,-89 124.75,-77 124.75,-77 124.75,-71 130.75,-65 136.75,-65 136.75,-65 187.25,-65 187.25,-65 193.25,-65 199.25,-71 199.25,-77 199.25,-77 199.25,-89 199.25,-89 199.25,-95 193.25,-101 187.25,-101"/>
<text xml:space="preserve" text-anchor="middle" x="162" y="-79.5" font-family="Arial" font-size="10.00" fill="#8b0000">fails to clarify</text>
</g>
<!-- furniture.legend&#45;&gt;rel_2 -->
<g id="edge10" class="edge">
<title>furniture.legend&#45;&gt;rel_2</title>
<path fill="none" stroke="#d46a6a" stroke-width="1.5" d="M54.59,-108.6C71.72,-104.48 94.44,-99.02 114.48,-94.19"/>
<polygon fill="#d46a6a" stroke="#d46a6a" stroke-width="1.5" points="115.05,-96.94 122.17,-92.34 113.74,-91.49 115.05,-96.94"/>
</g>
<!-- unknown.encoding -->
<g id="node4" class="node">
<title>unknown.encoding</title>
<path fill="#b8e6b8" stroke="#2c3e50" stroke-width="1.8" d="M338.88,-264C338.88,-264 307.88,-264 307.88,-264 301.88,-264 295.88,-258 295.88,-252 295.88,-252 295.88,-240 295.88,-240 295.88,-234 301.88,-228 307.88,-228 307.88,-228 338.88,-228 338.88,-228 344.88,-228 350.88,-234 350.88,-240 350.88,-240 350.88,-252 350.88,-252 350.88,-258 344.88,-264 338.88,-264"/>
<text xml:space="preserve" text-anchor="middle" x="323.38" y="-242.5" font-family="Arial" font-size="10.00" fill="#1a1a1a">encoding</text>
</g>
<!-- attr_4 -->
<g id="node10" class="node">
<title>attr_4</title>
<path fill="#c7b8e6" stroke="#7f8c8d" stroke-width="1.2" d="M572.25,-296C572.25,-296 431.75,-296 431.75,-296 425.75,-296 419.75,-290 419.75,-284 419.75,-284 419.75,-272 419.75,-272 419.75,-266 425.75,-260 431.75,-260 431.75,-260 572.25,-260 572.25,-260 578.25,-260 584.25,-266 584.25,-272 584.25,-272 584.25,-284 584.25,-284 584.25,-290 578.25,-296 572.25,-296"/>
<text xml:space="preserve" text-anchor="middle" x="502" y="-274.5" font-family="Arial" font-size="10.00" fill="#1a1a1a">(+) non decodable visual encoding</text>
</g>
<!-- unknown.encoding&#45;&gt;attr_4 -->
<g id="edge5" class="edge">
<title>unknown.encoding&#45;&gt;attr_4</title>
<path fill="none" stroke="#aaaaaa" d="M351.59,-250.93C367.8,-253.87 389.41,-257.78 411.15,-261.72"/>
<polygon fill="#aaaaaa" stroke="#aaaaaa" points="410.66,-264.12 417.98,-262.96 411.53,-259.3 410.66,-264.12"/>
</g>
<!-- rel_3 -->
<g id="node14" class="node">
<title>rel_3</title>
<path fill="#f5b8b8" stroke="#d46a6a" stroke-width="1.2" d="M543.75,-231C543.75,-231 460.25,-231 460.25,-231 454.25,-231 448.25,-225 448.25,-219 448.25,-219 448.25,-207 448.25,-207 448.25,-201 454.25,-195 460.25,-195 460.25,-195 543.75,-195 543.75,-195 549.75,-195 555.75,-201 555.75,-207 555.75,-207 555.75,-219 555.75,-219 555.75,-225 549.75,-231 543.75,-231"/>
<text xml:space="preserve" text-anchor="middle" x="502" y="-209.5" font-family="Arial" font-size="10.00" fill="#8b0000">requires expertise for</text>
</g>
<!-- unknown.encoding&#45;&gt;rel_3 -->
<g id="edge12" class="edge">
<title>unknown.encoding&#45;&gt;rel_3</title>
<path fill="none" stroke="#d46a6a" stroke-width="1.5" d="M351.59,-240.92C374.54,-236.63 408.29,-230.32 437.91,-224.79"/>
<polygon fill="#d46a6a" stroke="#d46a6a" stroke-width="1.5" points="438.19,-227.58 445.54,-223.36 437.16,-222.08 438.19,-227.58"/>
</g>
<!-- unknown.viewer -->
<g id="node5" class="node">
<title>unknown.viewer</title>
<path fill="#b8e6b8" stroke="#2c3e50" stroke-width="1.8" d="M669.25,-231C669.25,-231 639.25,-231 639.25,-231 633.25,-231 627.25,-225 627.25,-219 627.25,-219 627.25,-207 627.25,-207 627.25,-201 633.25,-195 639.25,-195 639.25,-195 669.25,-195 669.25,-195 675.25,-195 681.25,-201 681.25,-207 681.25,-207 681.25,-219 681.25,-219 681.25,-225 675.25,-231 669.25,-231"/>
<text xml:space="preserve" text-anchor="middle" x="654.25" y="-209.5" font-family="Arial" font-size="10.00" fill="#1a1a1a">viewer</text>
</g>
<!-- rel_0&#45;&gt;unknown.viewer -->
<g id="edge7" class="edge">
<title>rel_0&#45;&gt;unknown.viewer</title>
<path fill="none" stroke="#d46a6a" stroke-width="1.5" d="M530.47,-23.11C547.8,-27.59 569.6,-35.71 584.25,-50 622.3,-87.1 640.43,-148.45 648.19,-184.37"/>
<polygon fill="#d46a6a" stroke="#d46a6a" stroke-width="1.5" points="645.4,-184.71 649.74,-191.99 650.89,-183.59 645.4,-184.71"/>
</g>
<!-- rel_1&#45;&gt;unknown.viewer -->
<g id="edge9" class="edge">
<title>rel_1&#45;&gt;unknown.viewer</title>
<path fill="none" stroke="#d46a6a" stroke-width="1.5" d="M536.52,-334.64C552.14,-329.59 570.31,-321.96 584.25,-311 608.33,-292.07 627.53,-262.5 639.51,-240.79"/>
<polygon fill="#d46a6a" stroke="#d46a6a" stroke-width="1.5" points="641.98,-242.11 643.27,-233.74 637.03,-239.48 641.98,-242.11"/>
</g>
<!-- rel_2&#45;&gt;unknown.glyph_shapes -->
<g id="edge11" class="edge">
<title>rel_2&#45;&gt;unknown.glyph_shapes</title>
<path fill="none" stroke="#d46a6a" stroke-width="1.5" d="M199.56,-83C222.16,-83 251.38,-83 275.64,-83"/>
<polygon fill="#d46a6a" stroke="#d46a6a" stroke-width="1.5" points="275.44,-85.8 283.44,-83 275.44,-80.2 275.44,-85.8"/>
</g>
<!-- rel_3&#45;&gt;unknown.viewer -->
<g id="edge13" class="edge">
<title>rel_3&#45;&gt;unknown.viewer</title>
<path fill="none" stroke="#d46a6a" stroke-width="1.5" d="M555.97,-213C575.89,-213 598.09,-213 616.24,-213"/>
<polygon fill="#d46a6a" stroke="#d46a6a" stroke-width="1.5" points="616.15,-215.8 624.15,-213 616.15,-210.2 616.15,-215.8"/>
</g>
</g>
</svg>
