<?xml version="1.0" encoding="UTF-8" standalone="no"?>
<!DOCTYPE svg PUBLIC "-//W3C//DTD SVG 1.1//EN"
 "http://www.w3.org/Graphics/SVG/1.1/DTD/svg11.dtd">
<!-- Generated by graphviz version 14.1.5 (20260411.2331)
 -->
<!-- Title: VisJ.1541.1(2).png Pages: 1 -->
<svg width="903pt" height="570pt"
 viewBox="0.00 0.00 903.00 570.00" xmlns="http://www.w3.org/2000/svg" xmlns:xlink="http://www.w3.org/1999/xlink">
<g id="graph0" class="graph" transform="scale(1 1) rotate(0) translate(4 566.25)">
<title>VisJ.1541.1(2).png</title>
<polygon fill="white" stroke="none" points="-4,4 -4,-566.25 898.5,-566.25 898.5,4 -4,4"/>
<text xml:space="preserve" text-anchor="start" x="388.38" y="-541.95" font-family="Arial" font-weight="bold" font-size="14.00">VisJ.1541.1(2).png</text>
<text xml:space="preserve" text-anchor="start" x="375.62" y="-522" font-family="Arial" font-size="11.00">Cont.&#45;ColorPatn &#160;| &#160;VC = 0.77</text>
<path fill="#b8e6b8" stroke="none" d="M237.88,-497C237.88,-497 245.88,-497 245.88,-497 248.88,-497 251.88,-500 251.88,-503 251.88,-503 251.88,-509 251.88,-509 251.88,-512 248.88,-515 245.88,-515 245.88,-515 237.88,-515 237.88,-515 234.88,-515 231.88,-512 231.88,-509 231.88,-509 231.88,-503 231.88,-503 231.88,-500 234.88,-497 237.88,-497"/>
<path fill="none" stroke="black" d="M237.88,-497C237.88,-497 245.88,-497 245.88,-497 248.88,-497 251.88,-500 251.88,-503 251.88,-503 251.88,-509 251.88,-509 251.88,-512 248.88,-515 245.88,-515 245.88,-515 237.88,-515 237.88,-515 234.88,-515 231.88,-512 231.88,-509 231.88,-509 231.88,-503 231.88,-503 231.88,-500 234.88,-497 237.88,-497"/>
<text xml:space="preserve" text-anchor="start" x="240.38" y="-502.25" font-family="Arial" font-size="10.00"> </text>
<text xml:space="preserve" text-anchor="start" x="255.88" y="-502.25" font-family="Arial" font-size="10.00">Object</text>
<path fill="#c7b8e6" stroke="none" d="M294.38,-497C294.38,-497 302.38,-497 302.38,-497 305.38,-497 308.38,-500 308.38,-503 308.38,-503 308.38,-509 308.38,-509 308.38,-512 305.38,-515 302.38,-515 302.38,-515 294.38,-515 294.38,-515 291.38,-515 288.38,-512 288.38,-509 288.38,-509 288.38,-503 288.38,-503 288.38,-500 291.38,-497 294.38,-497"/>
<path fill="none" stroke="black" d="M294.38,-497C294.38,-497 302.38,-497 302.38,-497 305.38,-497 308.38,-500 308.38,-503 308.38,-503 308.38,-509 308.38,-509 308.38,-512 305.38,-515 302.38,-515 302.38,-515 294.38,-515 294.38,-515 291.38,-515 288.38,-512 288.38,-509 288.38,-509 288.38,-503 288.38,-503 288.38,-500 291.38,-497 294.38,-497"/>
<text xml:space="preserve" text-anchor="start" x="296.88" y="-502.25" font-family="Arial" font-size="10.00"> </text>
<text xml:space="preserve" text-anchor="start" x="312.38" y="-502.25" font-family="Arial" font-size="10.00">Attribute</text>
<path fill="#f5b8b8" stroke="none" d="M359.12,-497C359.12,-497 367.12,-497 367.12,-497 370.12,-497 373.12,-500 373.12,-503 373.12,-503 373.12,-509 373.12,-509 373.12,-512 370.12,-515 367.12,-515 367.12,-515 359.12,-515 359.12,-515 356.12,-515 353.12,-512 353.12,-509 353.12,-509 353.12,-503 353.12,-503 353.12,-500 356.12,-497 359.12,-497"/>
<path fill="none" stroke="black" d="M359.12,-497C359.12,-497 367.12,-497 367.12,-497 370.12,-497 373.12,-500 373.12,-503 373.12,-503 373.12,-509 373.12,-509 373.12,-512 370.12,-515 367.12,-515 367.12,-515 359.12,-515 359.12,-515 356.12,-515 353.12,-512 353.12,-509 353.12,-509 353.12,-503 353.12,-503 353.12,-500 356.12,-497 359.12,-497"/>
<text xml:space="preserve" text-anchor="start" x="361.62" y="-502.25" font-family="Arial" font-size="10.00"> </text>
<text xml:space="preserve" text-anchor="start" x="377.12" y="-502.25" font-family="Arial" font-size="10.00">Relationship</text>
<text xml:space="preserve" text-anchor="start" x="437.12" y="-503.5" font-family="Arial" font-weight="bold" font-size="10.00">(+)</text>
<text xml:space="preserve" text-anchor="start" x="449.12" y="-503.5" font-family="Arial" font-size="10.00"> increases complexity</text>
<text xml:space="preserve" text-anchor="start" x="550.38" y="-503.5" font-family="Arial" font-weight="bold" font-size="10.00">(−)</text>
<text xml:space="preserve" text-anchor="start" x="562.38" y="-503.5" font-family="Arial" font-size="10.00"> decreases complexity</text>
<!-- unknown.color_pattern -->
<g id="node1" class="node">
<title>unknown.color_pattern</title>
<path fill="#b8e6b8" stroke="#2c3e50" stroke-width="1.8" d="M58,-426C58,-426 12,-426 12,-426 6,-426 0,-420 0,-414 0,-414 0,-402 0,-402 0,-396 6,-390 12,-390 12,-390 58,-390 58,-390 64,-390 70,-396 70,-402 70,-402 70,-414 70,-414 70,-420 64,-426 58,-426"/>
<text xml:space="preserve" text-anchor="middle" x="35" y="-404.5" font-family="Arial" font-size="10.00" fill="#1a1a1a">color pattern</text>
</g>
<!-- attr_1 -->
<g id="node6" class="node">
<title>attr_1</title>
<path fill="#c7b8e6" stroke="#7f8c8d" stroke-width="1.2" d="M259.5,-491C259.5,-491 125,-491 125,-491 119,-491 113,-485 113,-479 113,-479 113,-467 113,-467 113,-461 119,-455 125,-455 125,-455 259.5,-455 259.5,-455 265.5,-455 271.5,-461 271.5,-467 271.5,-467 271.5,-479 271.5,-479 271.5,-485 265.5,-491 259.5,-491"/>
<text xml:space="preserve" text-anchor="middle" x="192.25" y="-469.5" font-family="Arial" font-size="10.00" fill="#1a1a1a">(+) messy intermingled elements</text>
</g>
<!-- unknown.color_pattern&#45;&gt;attr_1 -->
<g id="edge1" class="edge">
<title>unknown.color_pattern&#45;&gt;attr_1</title>
<path fill="none" stroke="#aaaaaa" d="M70.83,-423.07C84.02,-428.74 99.18,-435.21 113,-441 121.08,-444.39 129.66,-447.93 138.05,-451.38"/>
<polygon fill="#aaaaaa" stroke="#aaaaaa" points="136.88,-453.55 144.28,-453.94 138.74,-449.02 136.88,-453.55"/>
</g>
<!-- attr_5 -->
<g id="node7" class="node">
<title>attr_5</title>
<path fill="#c7b8e6" stroke="#7f8c8d" stroke-width="1.2" d="M256.88,-426C256.88,-426 127.62,-426 127.62,-426 121.62,-426 115.62,-420 115.62,-414 115.62,-414 115.62,-402 115.62,-402 115.62,-396 121.62,-390 127.62,-390 127.62,-390 256.88,-390 256.88,-390 262.88,-390 268.88,-396 268.88,-402 268.88,-402 268.88,-414 268.88,-414 268.88,-420 262.88,-426 256.88,-426"/>
<text xml:space="preserve" text-anchor="middle" x="192.25" y="-404.5" font-family="Arial" font-size="10.00" fill="#1a1a1a">(+) ambiguous pattern encoding</text>
</g>
<!-- unknown.color_pattern&#45;&gt;attr_5 -->
<g id="edge2" class="edge">
<title>unknown.color_pattern&#45;&gt;attr_5</title>
<path fill="none" stroke="#aaaaaa" d="M70.84,-408C81.69,-408 94.17,-408 106.89,-408"/>
<polygon fill="#aaaaaa" stroke="#aaaaaa" points="106.76,-410.45 113.76,-408 106.76,-405.55 106.76,-410.45"/>
</g>
<!-- rel_3 -->
<g id="node15" class="node">
<title>rel_3</title>
<path fill="#f5b8b8" stroke="#d46a6a" stroke-width="1.2" d="M217.88,-361C217.88,-361 166.62,-361 166.62,-361 160.62,-361 154.62,-355 154.62,-349 154.62,-349 154.62,-337 154.62,-337 154.62,-331 160.62,-325 166.62,-325 166.62,-325 217.88,-325 217.88,-325 223.88,-325 229.88,-331 229.88,-337 229.88,-337 229.88,-349 229.88,-349 229.88,-355 223.88,-361 217.88,-361"/>
<text xml:space="preserve" text-anchor="middle" x="192.25" y="-339.5" font-family="Arial" font-size="10.00" fill="#8b0000">contributes to</text>
</g>
<!-- unknown.color_pattern&#45;&gt;rel_3 -->
<g id="edge13" class="edge">
<title>unknown.color_pattern&#45;&gt;rel_3</title>
<path fill="none" stroke="#d46a6a" stroke-width="1.5" d="M70.84,-393.41C92.7,-384.26 121.15,-372.35 144.9,-362.4"/>
<polygon fill="#d46a6a" stroke="#d46a6a" stroke-width="1.5" points="145.7,-365.11 151.99,-359.44 143.53,-359.94 145.7,-365.11"/>
</g>
<!-- unknown.noise -->
<g id="node2" class="node">
<title>unknown.noise</title>
<path fill="#b8e6b8" stroke="#2c3e50" stroke-width="1.8" d="M370.88,-361C370.88,-361 340.88,-361 340.88,-361 334.88,-361 328.88,-355 328.88,-349 328.88,-349 328.88,-337 328.88,-337 328.88,-331 334.88,-325 340.88,-325 340.88,-325 370.88,-325 370.88,-325 376.88,-325 382.88,-331 382.88,-337 382.88,-337 382.88,-349 382.88,-349 382.88,-355 376.88,-361 370.88,-361"/>
<text xml:space="preserve" text-anchor="middle" x="355.88" y="-339.5" font-family="Arial" font-size="10.00" fill="#1a1a1a">noise</text>
</g>
<!-- attr_0 -->
<g id="node8" class="node">
<title>attr_0</title>
<path fill="#c7b8e6" stroke="#7f8c8d" stroke-width="1.2" d="M572.5,-426C572.5,-426 466.5,-426 466.5,-426 460.5,-426 454.5,-420 454.5,-414 454.5,-414 454.5,-402 454.5,-402 454.5,-396 460.5,-390 466.5,-390 466.5,-390 572.5,-390 572.5,-390 578.5,-390 584.5,-396 584.5,-402 584.5,-402 584.5,-414 584.5,-414 584.5,-420 578.5,-426 572.5,-426"/>
<text xml:space="preserve" text-anchor="middle" x="519.5" y="-404.5" font-family="Arial" font-size="10.00" fill="#1a1a1a">(+) excessive visual noise</text>
</g>
<!-- unknown.noise&#45;&gt;attr_0 -->
<g id="edge3" class="edge">
<title>unknown.noise&#45;&gt;attr_0</title>
<path fill="none" stroke="#aaaaaa" d="M383.56,-353.73C405.61,-362.6 437.6,-375.47 464.9,-386.44"/>
<polygon fill="#aaaaaa" stroke="#aaaaaa" points="463.65,-388.58 471.06,-388.92 465.48,-384.04 463.65,-388.58"/>
</g>
<!-- rel_0 -->
<g id="node12" class="node">
<title>rel_0</title>
<path fill="#f5b8b8" stroke="#d46a6a" stroke-width="1.2" d="M572.5,-361C572.5,-361 466.5,-361 466.5,-361 460.5,-361 454.5,-355 454.5,-349 454.5,-349 454.5,-337 454.5,-337 454.5,-331 460.5,-325 466.5,-325 466.5,-325 572.5,-325 572.5,-325 578.5,-325 584.5,-331 584.5,-337 584.5,-337 584.5,-349 584.5,-349 584.5,-355 578.5,-361 572.5,-361"/>
<text xml:space="preserve" text-anchor="middle" x="519.5" y="-339.5" font-family="Arial" font-size="10.00" fill="#8b0000">increases processing time</text>
</g>
<!-- unknown.noise&#45;&gt;rel_0 -->
<g id="edge7" class="edge">
<title>unknown.noise&#45;&gt;rel_0</title>
<path fill="none" stroke="#d46a6a" stroke-width="1.5" d="M383.56,-343C400.13,-343 422.31,-343 443.89,-343"/>
<polygon fill="#d46a6a" stroke="#d46a6a" stroke-width="1.5" points="443.81,-345.8 451.81,-343 443.81,-340.2 443.81,-345.8"/>
</g>
<!-- rel_1 -->
<g id="node13" class="node">
<title>rel_1</title>
<path fill="#f5b8b8" stroke="#d46a6a" stroke-width="1.2" d="M535.38,-296C535.38,-296 503.62,-296 503.62,-296 497.62,-296 491.62,-290 491.62,-284 491.62,-284 491.62,-272 491.62,-272 491.62,-266 497.62,-260 503.62,-260 503.62,-260 535.38,-260 535.38,-260 541.38,-260 547.38,-266 547.38,-272 547.38,-272 547.38,-284 547.38,-284 547.38,-290 541.38,-296 535.38,-296"/>
<text xml:space="preserve" text-anchor="middle" x="519.5" y="-274.5" font-family="Arial" font-size="10.00" fill="#8b0000">obscures</text>
</g>
<!-- unknown.noise&#45;&gt;rel_1 -->
<g id="edge9" class="edge">
<title>unknown.noise&#45;&gt;rel_1</title>
<path fill="none" stroke="#d46a6a" stroke-width="1.5" d="M383.56,-332.27C410.42,-321.46 452.05,-304.72 481.96,-292.69"/>
<polygon fill="#d46a6a" stroke="#d46a6a" stroke-width="1.5" points="482.75,-295.4 489.12,-289.81 480.66,-290.2 482.75,-295.4"/>
</g>
<!-- unknown.color_hue -->
<g id="node3" class="node">
<title>unknown.color_hue</title>
<path fill="#b8e6b8" stroke="#2c3e50" stroke-width="1.8" d="M371.75,-199C371.75,-199 340,-199 340,-199 334,-199 328,-193 328,-187 328,-187 328,-175 328,-175 328,-169 334,-163 340,-163 340,-163 371.75,-163 371.75,-163 377.75,-163 383.75,-169 383.75,-175 383.75,-175 383.75,-187 383.75,-187 383.75,-193 377.75,-199 371.75,-199"/>
<text xml:space="preserve" text-anchor="middle" x="355.88" y="-177.5" font-family="Arial" font-size="10.00" fill="#1a1a1a">color hue</text>
</g>
<!-- attr_2 -->
<g id="node9" class="node">
<title>attr_2</title>
<path fill="#c7b8e6" stroke="#7f8c8d" stroke-width="1.2" d="M577.38,-231C577.38,-231 461.62,-231 461.62,-231 455.62,-231 449.62,-225 449.62,-219 449.62,-219 449.62,-207 449.62,-207 449.62,-201 455.62,-195 461.62,-195 461.62,-195 577.38,-195 577.38,-195 583.38,-195 589.38,-201 589.38,-207 589.38,-207 589.38,-219 589.38,-219 589.38,-225 583.38,-231 577.38,-231"/>
<text xml:space="preserve" text-anchor="middle" x="519.5" y="-209.5" font-family="Arial" font-size="10.00" fill="#1a1a1a">(−) provides contextual cues</text>
</g>
<!-- unknown.color_hue&#45;&gt;attr_2 -->
<g id="edge4" class="edge">
<title>unknown.color_hue&#45;&gt;attr_2</title>
<path fill="none" stroke="#aaaaaa" d="M384.29,-186.43C399.97,-189.53 420.49,-193.59 440.75,-197.61"/>
<polygon fill="#aaaaaa" stroke="#aaaaaa" points="440.28,-200.01 447.62,-198.97 441.23,-195.2 440.28,-200.01"/>
</g>
<!-- rel_2 -->
<g id="node14" class="node">
<title>rel_2</title>
<path fill="#f5b8b8" stroke="#d46a6a" stroke-width="1.2" d="M552.62,-166C552.62,-166 486.38,-166 486.38,-166 480.38,-166 474.38,-160 474.38,-154 474.38,-154 474.38,-142 474.38,-142 474.38,-136 480.38,-130 486.38,-130 486.38,-130 552.62,-130 552.62,-130 558.62,-130 564.62,-136 564.62,-142 564.62,-142 564.62,-154 564.62,-154 564.62,-160 558.62,-166 552.62,-166"/>
<text xml:space="preserve" text-anchor="middle" x="519.5" y="-144.5" font-family="Arial" font-size="10.00" fill="#8b0000">partially supports</text>
</g>
<!-- unknown.color_hue&#45;&gt;rel_2 -->
<g id="edge11" class="edge">
<title>unknown.color_hue&#45;&gt;rel_2</title>
<path fill="none" stroke="#d46a6a" stroke-width="1.5" d="M384.29,-175.4C406.01,-170.97 437.05,-164.63 463.81,-159.17"/>
<polygon fill="#d46a6a" stroke="#d46a6a" stroke-width="1.5" points="464.32,-161.92 471.6,-157.58 463.2,-156.43 464.32,-161.92"/>
</g>
<!-- unknown.image_content -->
<g id="node4" class="node">
<title>unknown.image_content</title>
<path fill="#b8e6b8" stroke="#2c3e50" stroke-width="1.8" d="M707.25,-231C707.25,-231 653.75,-231 653.75,-231 647.75,-231 641.75,-225 641.75,-219 641.75,-219 641.75,-207 641.75,-207 641.75,-201 647.75,-195 653.75,-195 653.75,-195 707.25,-195 707.25,-195 713.25,-195 719.25,-201 719.25,-207 719.25,-207 719.25,-219 719.25,-219 719.25,-225 713.25,-231 707.25,-231"/>
<text xml:space="preserve" text-anchor="middle" x="680.5" y="-209.5" font-family="Arial" font-size="10.00" fill="#1a1a1a">image content</text>
</g>
<!-- attr_3 -->
<g id="node10" class="node">
<title>attr_3</title>
<path fill="#c7b8e6" stroke="#7f8c8d" stroke-width="1.2" d="M882.5,-231C882.5,-231 774.25,-231 774.25,-231 768.25,-231 762.25,-225 762.25,-219 762.25,-219 762.25,-207 762.25,-207 762.25,-201 768.25,-195 774.25,-195 774.25,-195 882.5,-195 882.5,-195 888.5,-195 894.5,-201 894.5,-207 894.5,-207 894.5,-219 894.5,-219 894.5,-225 888.5,-231 882.5,-231"/>
<text xml:space="preserve" text-anchor="middle" x="828.38" y="-209.5" font-family="Arial" font-size="10.00" fill="#1a1a1a">(+) unclear image portrayal</text>
</g>
<!-- unknown.image_content&#45;&gt;attr_3 -->
<g id="edge5" class="edge">
<title>unknown.image_content&#45;&gt;attr_3</title>
<path fill="none" stroke="#aaaaaa" d="M719.83,-213C730.15,-213 741.68,-213 753.25,-213"/>
<polygon fill="#aaaaaa" stroke="#aaaaaa" points="753.15,-215.45 760.15,-213 753.15,-210.55 753.15,-215.45"/>
</g>
<!-- unknown.visual_structure -->
<g id="node5" class="node">
<title>unknown.visual_structure</title>
<path fill="#b8e6b8" stroke="#2c3e50" stroke-width="1.8" d="M385.25,-69C385.25,-69 326.5,-69 326.5,-69 320.5,-69 314.5,-63 314.5,-57 314.5,-57 314.5,-45 314.5,-45 314.5,-39 320.5,-33 326.5,-33 326.5,-33 385.25,-33 385.25,-33 391.25,-33 397.25,-39 397.25,-45 397.25,-45 397.25,-57 397.25,-57 397.25,-63 391.25,-69 385.25,-69"/>
<text xml:space="preserve" text-anchor="middle" x="355.88" y="-47.5" font-family="Arial" font-size="10.00" fill="#1a1a1a">visual structure</text>
</g>
<!-- attr_4 -->
<g id="node11" class="node">
<title>attr_4</title>
<path fill="#c7b8e6" stroke="#7f8c8d" stroke-width="1.2" d="M586.75,-101C586.75,-101 452.25,-101 452.25,-101 446.25,-101 440.25,-95 440.25,-89 440.25,-89 440.25,-77 440.25,-77 440.25,-71 446.25,-65 452.25,-65 452.25,-65 586.75,-65 586.75,-65 592.75,-65 598.75,-71 598.75,-77 598.75,-77 598.75,-89 598.75,-89 598.75,-95 592.75,-101 586.75,-101"/>
<text xml:space="preserve" text-anchor="middle" x="519.5" y="-79.5" font-family="Arial" font-size="10.00" fill="#1a1a1a">(+) requires extended processing</text>
</g>
<!-- unknown.visual_structure&#45;&gt;attr_4 -->
<g id="edge6" class="edge">
<title>unknown.visual_structure&#45;&gt;attr_4</title>
<path fill="none" stroke="#aaaaaa" d="M398.08,-59.16C408.49,-61.22 420.06,-63.51 431.81,-65.84"/>
<polygon fill="#aaaaaa" stroke="#aaaaaa" points="431.12,-68.2 438.47,-67.15 432.07,-63.39 431.12,-68.2"/>
</g>
<!-- rel_4 -->
<g id="node16" class="node">
<title>rel_4</title>
<path fill="#f5b8b8" stroke="#d46a6a" stroke-width="1.2" d="M575.12,-36C575.12,-36 463.88,-36 463.88,-36 457.88,-36 451.88,-30 451.88,-24 451.88,-24 451.88,-12 451.88,-12 451.88,-6 457.88,0 463.88,0 463.88,0 575.12,0 575.12,0 581.12,0 587.12,-6 587.12,-12 587.12,-12 587.12,-24 587.12,-24 587.12,-30 581.12,-36 575.12,-36"/>
<text xml:space="preserve" text-anchor="middle" x="519.5" y="-14.5" font-family="Arial" font-size="10.00" fill="#8b0000">lacks coherent organization</text>
</g>
<!-- unknown.visual_structure&#45;&gt;rel_4 -->
<g id="edge15" class="edge">
<title>unknown.visual_structure&#45;&gt;rel_4</title>
<path fill="none" stroke="#d46a6a" stroke-width="1.5" d="M398.08,-42.59C411.35,-39.88 426.52,-36.78 441.51,-33.72"/>
<polygon fill="#d46a6a" stroke="#d46a6a" stroke-width="1.5" points="441.81,-36.52 449.09,-32.17 440.69,-31.03 441.81,-36.52"/>
</g>
<!-- rel_0&#45;&gt;unknown.image_content -->
<g id="edge8" class="edge">
<title>rel_0&#45;&gt;unknown.image_content</title>
<path fill="none" stroke="#d46a6a" stroke-width="1.5" d="M575.81,-324.44C583.86,-320.6 591.78,-316.14 598.75,-311 625.11,-291.58 648.07,-261.7 662.7,-240.04"/>
<polygon fill="#d46a6a" stroke="#d46a6a" stroke-width="1.5" points="664.94,-241.72 667,-233.5 660.27,-238.64 664.94,-241.72"/>
</g>
<!-- rel_1&#45;&gt;unknown.image_content -->
<g id="edge10" class="edge">
<title>rel_1&#45;&gt;unknown.image_content</title>
<path fill="none" stroke="#d46a6a" stroke-width="1.5" d="M547.83,-266.83C570.79,-257.44 604.13,-243.81 631.52,-232.62"/>
<polygon fill="#d46a6a" stroke="#d46a6a" stroke-width="1.5" points="632.48,-235.25 638.83,-229.63 630.36,-230.06 632.48,-235.25"/>
</g>
<!-- rel_2&#45;&gt;unknown.image_content -->
<g id="edge12" class="edge">
<title>rel_2&#45;&gt;unknown.image_content</title>
<path fill="none" stroke="#d46a6a" stroke-width="1.5" d="M565.21,-166.28C585.92,-174.75 610.56,-184.82 631.64,-193.43"/>
<polygon fill="#d46a6a" stroke="#d46a6a" stroke-width="1.5" points="630.49,-195.99 638.95,-196.42 632.6,-190.8 630.49,-195.99"/>
</g>
<!-- rel_3&#45;&gt;unknown.noise -->
<g id="edge14" class="edge">
<title>rel_3&#45;&gt;unknown.noise</title>
<path fill="none" stroke="#d46a6a" stroke-width="1.5" d="M230.33,-343C256.66,-343 291.85,-343 318.11,-343"/>
<polygon fill="#d46a6a" stroke="#d46a6a" stroke-width="1.5" points="317.78,-345.8 325.78,-343 317.78,-340.2 317.78,-345.8"/>
</g>
<!-- rel_4&#45;&gt;unknown.image_content -->
<g id="edge16" class="edge">
<title>rel_4&#45;&gt;unknown.image_content</title>
<path fill="none" stroke="#d46a6a" stroke-width="1.5" d="M577.73,-36.39C585.34,-40.42 592.62,-45.25 598.75,-51 638.27,-88.09 661.19,-148.74 671.94,-184.36"/>
<polygon fill="#d46a6a" stroke="#d46a6a" stroke-width="1.5" points="669.23,-185.05 674.14,-191.95 674.6,-183.49 669.23,-185.05"/>
</g>
</g>
</svg>
