<?xml version="1.0" encoding="UTF-8" standalone="no"?>
<!DOCTYPE svg PUBLIC "-//W3C//DTD SVG 1.1//EN"
 "http://www.w3.org/Graphics/SVG/1.1/DTD/svg11.dtd">
<!-- Generated by graphviz version 14.1.5 (20260411.2331)
 -->
<!-- Title: VisJ.1421.5(2).png Pages: 1 -->
<svg width="828pt" height="375pt"
 viewBox="0.00 0.00 828.00 375.00" xmlns="http://www.w3.org/2000/svg" xmlns:xlink="http://www.w3.org/1999/xlink">
<g id="graph0" class="graph" transform="scale(1 1) rotate(0) translate(4 371.25)">
<title>VisJ.1421.5(2).png</title>
<polygon fill="white" stroke="none" points="-4,4 -4,-371.25 823.5,-371.25 823.5,4 -4,4"/>
<text xml:space="preserve" text-anchor="start" x="350.88" y="-346.95" font-family="Arial" font-weight="bold" font-size="14.00">VisJ.1421.5(2).png</text>
<text xml:space="preserve" text-anchor="start" x="363.62" y="-327" font-family="Arial" font-size="11.00">Glyph &#160;| &#160;VC = 0.34</text>
<path fill="#b8e6b8" stroke="none" d="M200.38,-302C200.38,-302 208.38,-302 208.38,-302 211.38,-302 214.38,-305 214.38,-308 214.38,-308 214.38,-314 214.38,-314 214.38,-317 211.38,-320 208.38,-320 208.38,-320 200.38,-320 200.38,-320 197.38,-320 194.38,-317 194.38,-314 194.38,-314 194.38,-308 194.38,-308 194.38,-305 197.38,-302 200.38,-302"/>
<path fill="none" stroke="black" d="M200.38,-302C200.38,-302 208.38,-302 208.38,-302 211.38,-302 214.38,-305 214.38,-308 214.38,-308 214.38,-314 214.38,-314 214.38,-317 211.38,-320 208.38,-320 208.38,-320 200.38,-320 200.38,-320 197.38,-320 194.38,-317 194.38,-314 194.38,-314 194.38,-308 194.38,-308 194.38,-305 197.38,-302 200.38,-302"/>
<text xml:space="preserve" text-anchor="start" x="202.88" y="-307.25" font-family="Arial" font-size="10.00"> </text>
<text xml:space="preserve" text-anchor="start" x="218.38" y="-307.25" font-family="Arial" font-size="10.00">Object</text>
<path fill="#c7b8e6" stroke="none" d="M256.88,-302C256.88,-302 264.88,-302 264.88,-302 267.88,-302 270.88,-305 270.88,-308 270.88,-308 270.88,-314 270.88,-314 270.88,-317 267.88,-320 264.88,-320 264.88,-320 256.88,-320 256.88,-320 253.88,-320 250.88,-317 250.88,-314 250.88,-314 250.88,-308 250.88,-308 250.88,-305 253.88,-302 256.88,-302"/>
<path fill="none" stroke="black" d="M256.88,-302C256.88,-302 264.88,-302 264.88,-302 267.88,-302 270.88,-305 270.88,-308 270.88,-308 270.88,-314 270.88,-314 270.88,-317 267.88,-320 264.88,-320 264.88,-320 256.88,-320 256.88,-320 253.88,-320 250.88,-317 250.88,-314 250.88,-314 250.88,-308 250.88,-308 250.88,-305 253.88,-302 256.88,-302"/>
<text xml:space="preserve" text-anchor="start" x="259.38" y="-307.25" font-family="Arial" font-size="10.00"> </text>
<text xml:space="preserve" text-anchor="start" x="274.88" y="-307.25" font-family="Arial" font-size="10.00">Attribute</text>
<path fill="#f5b8b8" stroke="none" d="M321.62,-302C321.62,-302 329.62,-302 329.62,-302 332.62,-302 335.62,-305 335.62,-308 335.62,-308 335.62,-314 335.62,-314 335.62,-317 332.62,-320 329.62,-320 329.62,-320 321.62,-320 321.62,-320 318.62,-320 315.62,-317 315.62,-314 315.62,-314 315.62,-308 315.62,-308 315.62,-305 318.62,-302 321.62,-302"/>
<path fill="none" stroke="black" d="M321.62,-302C321.62,-302 329.62,-302 329.62,-302 332.62,-302 335.62,-305 335.62,-308 335.62,-308 335.62,-314 335.62,-314 335.62,-317 332.62,-320 329.62,-320 329.62,-320 321.62,-320 321.62,-320 318.62,-320 315.62,-317 315.62,-314 315.62,-314 315.62,-308 315.62,-308 315.62,-305 318.62,-302 321.62,-302"/>
<text xml:space="preserve" text-anchor="start" x="324.12" y="-307.25" font-family="Arial" font-size="10.00"> </text>
<text xml:space="preserve" text-anchor="start" x="339.62" y="-307.25" font-family="Arial" font-size="10.00">Relationship</text>
<text xml:space="preserve" text-anchor="start" x="399.62" y="-308.5" font-family="Arial" font-weight="bold" font-size="10.00">(+)</text>
<text xml:space="preserve" text-anchor="start" x="411.62" y="-308.5" font-family="Arial" font-size="10.00"> increases complexity</text>
<text xml:space="preserve" text-anchor="start" x="512.88" y="-308.5" font-family="Arial" font-weight="bold" font-size="10.00">(−)</text>
<text xml:space="preserve" text-anchor="start" x="524.88" y="-308.5" font-family="Arial" font-size="10.00"> decreases complexity</text>
<!-- furniture.legend -->
<g id="node1" class="node">
<title>furniture.legend</title>
<path fill="#b8e6b8" stroke="#2c3e50" stroke-width="1.8" d="M45.5,-231C45.5,-231 15.5,-231 15.5,-231 9.5,-231 3.5,-225 3.5,-219 3.5,-219 3.5,-207 3.5,-207 3.5,-201 9.5,-195 15.5,-195 15.5,-195 45.5,-195 45.5,-195 51.5,-195 57.5,-201 57.5,-207 57.5,-207 57.5,-219 57.5,-219 57.5,-225 51.5,-231 45.5,-231"/>
<text xml:space="preserve" text-anchor="middle" x="30.5" y="-209.5" font-family="Arial" font-size="10.00" fill="#1a1a1a">legend</text>
</g>
<!-- attr_0 -->
<g id="node6" class="node">
<title>attr_0</title>
<path fill="#c7b8e6" stroke="#7f8c8d" stroke-width="1.2" d="M224.25,-296C224.25,-296 140,-296 140,-296 134,-296 128,-290 128,-284 128,-284 128,-272 128,-272 128,-266 134,-260 140,-260 140,-260 224.25,-260 224.25,-260 230.25,-260 236.25,-266 236.25,-272 236.25,-272 236.25,-284 236.25,-284 236.25,-290 230.25,-296 224.25,-296"/>
<text xml:space="preserve" text-anchor="middle" x="182.12" y="-274.5" font-family="Arial" font-size="10.00" fill="#1a1a1a">(+) absent or missing</text>
</g>
<!-- furniture.legend&#45;&gt;attr_0 -->
<g id="edge1" class="edge">
<title>furniture.legend&#45;&gt;attr_0</title>
<path fill="none" stroke="#aaaaaa" d="M58.26,-225.44C71.9,-231.72 88.78,-239.38 104,-246 111.84,-249.41 120.15,-252.94 128.32,-256.37"/>
<polygon fill="#aaaaaa" stroke="#aaaaaa" points="126.95,-258.45 134.35,-258.89 128.84,-253.93 126.95,-258.45"/>
</g>
<!-- rel_0 -->
<g id="node11" class="node">
<title>rel_0</title>
<path fill="#f5b8b8" stroke="#d46a6a" stroke-width="1.2" d="M206.25,-231C206.25,-231 158,-231 158,-231 152,-231 146,-225 146,-219 146,-219 146,-207 146,-207 146,-201 152,-195 158,-195 158,-195 206.25,-195 206.25,-195 212.25,-195 218.25,-201 218.25,-207 218.25,-207 218.25,-219 218.25,-219 218.25,-225 212.25,-231 206.25,-231"/>
<text xml:space="preserve" text-anchor="middle" x="182.12" y="-209.5" font-family="Arial" font-size="10.00" fill="#8b0000">missing from</text>
</g>
<!-- furniture.legend&#45;&gt;rel_0 -->
<g id="edge6" class="edge">
<title>furniture.legend&#45;&gt;rel_0</title>
<path fill="none" stroke="#d46a6a" stroke-width="1.5" d="M58.25,-213C79.67,-213 110.22,-213 135.49,-213"/>
<polygon fill="#d46a6a" stroke="#d46a6a" stroke-width="1.5" points="135.33,-215.8 143.33,-213 135.33,-210.2 135.33,-215.8"/>
</g>
<!-- rel_1 -->
<g id="node12" class="node">
<title>rel_1</title>
<path fill="#f5b8b8" stroke="#d46a6a" stroke-width="1.2" d="M224.25,-166C224.25,-166 140,-166 140,-166 134,-166 128,-160 128,-154 128,-154 128,-142 128,-142 128,-136 134,-130 140,-130 140,-130 224.25,-130 224.25,-130 230.25,-130 236.25,-136 236.25,-142 236.25,-142 236.25,-154 236.25,-154 236.25,-160 230.25,-166 224.25,-166"/>
<text xml:space="preserve" text-anchor="middle" x="182.12" y="-144.5" font-family="Arial" font-size="10.00" fill="#8b0000">increases difficulty of</text>
</g>
<!-- furniture.legend&#45;&gt;rel_1 -->
<g id="edge8" class="edge">
<title>furniture.legend&#45;&gt;rel_1</title>
<path fill="none" stroke="#d46a6a" stroke-width="1.5" d="M58.32,-201.07C71.98,-195.02 88.86,-187.58 104,-181 111.78,-177.62 120,-174.07 128.08,-170.6"/>
<polygon fill="#d46a6a" stroke="#d46a6a" stroke-width="1.5" points="129.11,-173.21 135.36,-167.48 126.9,-168.06 129.11,-173.21"/>
</g>
<!-- unknown.glyph -->
<g id="node2" class="node">
<title>unknown.glyph</title>
<path fill="#b8e6b8" stroke="#2c3e50" stroke-width="1.8" d="M345.75,-231C345.75,-231 315.75,-231 315.75,-231 309.75,-231 303.75,-225 303.75,-219 303.75,-219 303.75,-207 303.75,-207 303.75,-201 309.75,-195 315.75,-195 315.75,-195 345.75,-195 345.75,-195 351.75,-195 357.75,-201 357.75,-207 357.75,-207 357.75,-219 357.75,-219 357.75,-225 351.75,-231 345.75,-231"/>
<text xml:space="preserve" text-anchor="middle" x="330.75" y="-209.5" font-family="Arial" font-size="10.00" fill="#1a1a1a">glyph</text>
</g>
<!-- attr_1 -->
<g id="node7" class="node">
<title>attr_1</title>
<path fill="#c7b8e6" stroke="#7f8c8d" stroke-width="1.2" d="M550.75,-264C550.75,-264 413.25,-264 413.25,-264 407.25,-264 401.25,-258 401.25,-252 401.25,-252 401.25,-240 401.25,-240 401.25,-234 407.25,-228 413.25,-228 413.25,-228 550.75,-228 550.75,-228 556.75,-228 562.75,-234 562.75,-240 562.75,-240 562.75,-252 562.75,-252 562.75,-258 556.75,-264 550.75,-264"/>
<text xml:space="preserve" text-anchor="middle" x="482" y="-242.5" font-family="Arial" font-size="10.00" fill="#1a1a1a">(+) uninterpretable without contex</text>
</g>
<!-- unknown.glyph&#45;&gt;attr_1 -->
<g id="edge2" class="edge">
<title>unknown.glyph&#45;&gt;attr_1</title>
<path fill="none" stroke="#aaaaaa" d="M358.43,-218.9C368.34,-221.09 380.2,-223.71 392.58,-226.45"/>
<polygon fill="#aaaaaa" stroke="#aaaaaa" points="391.94,-228.82 399.3,-227.94 392.99,-224.03 391.94,-228.82"/>
</g>
<!-- rel_2 -->
<g id="node13" class="node">
<title>rel_2</title>
<path fill="#f5b8b8" stroke="#d46a6a" stroke-width="1.2" d="M518.5,-199C518.5,-199 445.5,-199 445.5,-199 439.5,-199 433.5,-193 433.5,-187 433.5,-187 433.5,-175 433.5,-175 433.5,-169 439.5,-163 445.5,-163 445.5,-163 518.5,-163 518.5,-163 524.5,-163 530.5,-169 530.5,-175 530.5,-175 530.5,-187 530.5,-187 530.5,-193 524.5,-199 518.5,-199"/>
<text xml:space="preserve" text-anchor="middle" x="482" y="-177.5" font-family="Arial" font-size="10.00" fill="#8b0000">lacks reference for</text>
</g>
<!-- unknown.glyph&#45;&gt;rel_2 -->
<g id="edge10" class="edge">
<title>unknown.glyph&#45;&gt;rel_2</title>
<path fill="none" stroke="#d46a6a" stroke-width="1.5" d="M358.43,-207.28C376.47,-203.41 401,-198.15 423.37,-193.36"/>
<polygon fill="#d46a6a" stroke="#d46a6a" stroke-width="1.5" points="423.67,-196.15 430.91,-191.74 422.5,-190.68 423.67,-196.15"/>
</g>
<!-- text.axis_label -->
<g id="node3" class="node">
<title>text.axis_label</title>
<path fill="#b8e6b8" stroke="#2c3e50" stroke-width="1.8" d="M651,-199C651,-199 617.75,-199 617.75,-199 611.75,-199 605.75,-193 605.75,-187 605.75,-187 605.75,-175 605.75,-175 605.75,-169 611.75,-163 617.75,-163 617.75,-163 651,-163 651,-163 657,-163 663,-169 663,-175 663,-175 663,-187 663,-187 663,-193 657,-199 651,-199"/>
<text xml:space="preserve" text-anchor="middle" x="634.38" y="-177.5" font-family="Arial" font-size="10.00" fill="#1a1a1a">axis label</text>
</g>
<!-- attr_2 -->
<g id="node8" class="node">
<title>attr_2</title>
<path fill="#c7b8e6" stroke="#7f8c8d" stroke-width="1.2" d="M807.5,-199C807.5,-199 718,-199 718,-199 712,-199 706,-193 706,-187 706,-187 706,-175 706,-175 706,-169 712,-163 718,-163 718,-163 807.5,-163 807.5,-163 813.5,-163 819.5,-169 819.5,-175 819.5,-175 819.5,-187 819.5,-187 819.5,-193 813.5,-199 807.5,-199"/>
<text xml:space="preserve" text-anchor="middle" x="762.75" y="-177.5" font-family="Arial" font-size="10.00" fill="#1a1a1a">(+) insufficient labeling</text>
</g>
<!-- text.axis_label&#45;&gt;attr_2 -->
<g id="edge3" class="edge">
<title>text.axis_label&#45;&gt;attr_2</title>
<path fill="none" stroke="#aaaaaa" d="M663.74,-181C673.69,-181 685.32,-181 697.03,-181"/>
<polygon fill="#aaaaaa" stroke="#aaaaaa" points="697.02,-183.45 704.02,-181 697.02,-178.55 697.02,-183.45"/>
</g>
<!-- text.annotation -->
<g id="node4" class="node">
<title>text.annotation</title>
<path fill="#b8e6b8" stroke="#2c3e50" stroke-width="1.8" d="M49,-69C49,-69 12,-69 12,-69 6,-69 0,-63 0,-57 0,-57 0,-45 0,-45 0,-39 6,-33 12,-33 12,-33 49,-33 49,-33 55,-33 61,-39 61,-45 61,-45 61,-57 61,-57 61,-63 55,-69 49,-69"/>
<text xml:space="preserve" text-anchor="middle" x="30.5" y="-47.5" font-family="Arial" font-size="10.00" fill="#1a1a1a">annotation</text>
</g>
<!-- attr_3 -->
<g id="node9" class="node">
<title>attr_3</title>
<path fill="#c7b8e6" stroke="#7f8c8d" stroke-width="1.2" d="M248.25,-101C248.25,-101 116,-101 116,-101 110,-101 104,-95 104,-89 104,-89 104,-77 104,-77 104,-71 110,-65 116,-65 116,-65 248.25,-65 248.25,-65 254.25,-65 260.25,-71 260.25,-77 260.25,-77 260.25,-89 260.25,-89 260.25,-95 254.25,-101 248.25,-101"/>
<text xml:space="preserve" text-anchor="middle" x="182.12" y="-79.5" font-family="Arial" font-size="10.00" fill="#1a1a1a">(+) missing contextual reference</text>
</g>
<!-- text.annotation&#45;&gt;attr_3 -->
<g id="edge4" class="edge">
<title>text.annotation&#45;&gt;attr_3</title>
<path fill="none" stroke="#aaaaaa" d="M61.78,-57.48C71.7,-59.6 83.26,-62.07 95.22,-64.63"/>
<polygon fill="#aaaaaa" stroke="#aaaaaa" points="94.7,-67.02 102.06,-66.09 95.72,-62.23 94.7,-67.02"/>
</g>
<!-- rel_3 -->
<g id="node14" class="node">
<title>rel_3</title>
<path fill="#f5b8b8" stroke="#d46a6a" stroke-width="1.2" d="M211.12,-36C211.12,-36 153.12,-36 153.12,-36 147.12,-36 141.12,-30 141.12,-24 141.12,-24 141.12,-12 141.12,-12 141.12,-6 147.12,0 153.12,0 153.12,0 211.12,0 211.12,0 217.12,0 223.12,-6 223.12,-12 223.12,-12 223.12,-24 223.12,-24 223.12,-30 217.12,-36 211.12,-36"/>
<text xml:space="preserve" text-anchor="middle" x="182.12" y="-14.5" font-family="Arial" font-size="10.00" fill="#8b0000">absent causing</text>
</g>
<!-- text.annotation&#45;&gt;rel_3 -->
<g id="edge12" class="edge">
<title>text.annotation&#45;&gt;rel_3</title>
<path fill="none" stroke="#d46a6a" stroke-width="1.5" d="M61.78,-44.32C81.57,-39.96 107.89,-34.15 130.77,-29.1"/>
<polygon fill="#d46a6a" stroke="#d46a6a" stroke-width="1.5" points="131.25,-31.87 138.46,-27.41 130.05,-26.4 131.25,-31.87"/>
</g>
<!-- unknown.encoding -->
<g id="node5" class="node">
<title>unknown.encoding</title>
<path fill="#b8e6b8" stroke="#2c3e50" stroke-width="1.8" d="M346.25,-69C346.25,-69 315.25,-69 315.25,-69 309.25,-69 303.25,-63 303.25,-57 303.25,-57 303.25,-45 303.25,-45 303.25,-39 309.25,-33 315.25,-33 315.25,-33 346.25,-33 346.25,-33 352.25,-33 358.25,-39 358.25,-45 358.25,-45 358.25,-57 358.25,-57 358.25,-63 352.25,-69 346.25,-69"/>
<text xml:space="preserve" text-anchor="middle" x="330.75" y="-47.5" font-family="Arial" font-size="10.00" fill="#1a1a1a">encoding</text>
</g>
<!-- attr_4 -->
<g id="node10" class="node">
<title>attr_4</title>
<path fill="#c7b8e6" stroke="#7f8c8d" stroke-width="1.2" d="M535.38,-69C535.38,-69 428.62,-69 428.62,-69 422.62,-69 416.62,-63 416.62,-57 416.62,-57 416.62,-45 416.62,-45 416.62,-39 422.62,-33 428.62,-33 428.62,-33 535.38,-33 535.38,-33 541.38,-33 547.38,-39 547.38,-45 547.38,-45 547.38,-57 547.38,-57 547.38,-63 541.38,-69 535.38,-69"/>
<text xml:space="preserve" text-anchor="middle" x="482" y="-47.5" font-family="Arial" font-size="10.00" fill="#1a1a1a">(+) unclear visual meaning</text>
</g>
<!-- unknown.encoding&#45;&gt;attr_4 -->
<g id="edge5" class="edge">
<title>unknown.encoding&#45;&gt;attr_4</title>
<path fill="none" stroke="#aaaaaa" d="M359.12,-51C372.94,-51 390.42,-51 407.8,-51"/>
<polygon fill="#aaaaaa" stroke="#aaaaaa" points="407.79,-53.45 414.79,-51 407.79,-48.55 407.79,-53.45"/>
</g>
<!-- rel_0&#45;&gt;unknown.glyph -->
<g id="edge7" class="edge">
<title>rel_0&#45;&gt;unknown.glyph</title>
<path fill="none" stroke="#d46a6a" stroke-width="1.5" d="M218.62,-213C241.11,-213 270.14,-213 292.89,-213"/>
<polygon fill="#d46a6a" stroke="#d46a6a" stroke-width="1.5" points="292.58,-215.8 300.58,-213 292.58,-210.2 292.58,-215.8"/>
</g>
<!-- rel_1&#45;&gt;unknown.encoding -->
<g id="edge9" class="edge">
<title>rel_1&#45;&gt;unknown.encoding</title>
<path fill="none" stroke="#d46a6a" stroke-width="1.5" d="M235.04,-129.48C243.73,-125.54 252.45,-121.03 260.25,-116 277.08,-105.15 293.55,-90 306.24,-77.06"/>
<polygon fill="#d46a6a" stroke="#d46a6a" stroke-width="1.5" points="308.16,-79.1 311.67,-71.38 304.11,-75.23 308.16,-79.1"/>
</g>
<!-- rel_2&#45;&gt;text.axis_label -->
<g id="edge11" class="edge">
<title>rel_2&#45;&gt;text.axis_label</title>
<path fill="none" stroke="#d46a6a" stroke-width="1.5" d="M530.99,-181C551.69,-181 575.55,-181 595.04,-181"/>
<polygon fill="#d46a6a" stroke="#d46a6a" stroke-width="1.5" points="594.8,-183.8 602.8,-181 594.8,-178.2 594.8,-183.8"/>
</g>
<!-- rel_3&#45;&gt;unknown.encoding -->
<g id="edge13" class="edge">
<title>rel_3&#45;&gt;unknown.encoding</title>
<path fill="none" stroke="#d46a6a" stroke-width="1.5" d="M223.58,-27.1C245.14,-31.96 271.49,-37.89 292.54,-42.62"/>
<polygon fill="#d46a6a" stroke="#d46a6a" stroke-width="1.5" points="291.77,-45.32 300.19,-44.35 293,-39.86 291.77,-45.32"/>
</g>
</g>
</svg>
