<?xml version="1.0" encoding="UTF-8" standalone="no"?>
<!DOCTYPE svg PUBLIC "-//W3C//DTD SVG 1.1//EN"
 "http://www.w3.org/Graphics/SVG/1.1/DTD/svg11.dtd">
<!-- Generated by graphviz version 14.1.5 (20260411.2331)
 -->
<!-- Title: visMost325.png Pages: 1 -->
<svg width="1088pt" height="440pt"
 viewBox="0.00 0.00 1088.00 440.00" xmlns="http://www.w3.org/2000/svg" xmlns:xlink="http://www.w3.org/1999/xlink">
<g id="graph0" class="graph" transform="scale(1 1) rotate(0) translate(4 436.25)">
<title>visMost325.png</title>
<polygon fill="white" stroke="none" points="-4,4 -4,-436.25 1083.5,-436.25 1083.5,4 -4,4"/>
<text xml:space="preserve" text-anchor="start" x="488.75" y="-411.95" font-family="Arial" font-weight="bold" font-size="14.00">visMost325.png</text>
<text xml:space="preserve" text-anchor="start" x="495.88" y="-392" font-family="Arial" font-size="11.00">Area &#160;| &#160;VC = 0.61</text>
<path fill="#b8e6b8" stroke="none" d="M330.38,-367C330.38,-367 338.38,-367 338.38,-367 341.38,-367 344.38,-370 344.38,-373 344.38,-373 344.38,-379 344.38,-379 344.38,-382 341.38,-385 338.38,-385 338.38,-385 330.38,-385 330.38,-385 327.38,-385 324.38,-382 324.38,-379 324.38,-379 324.38,-373 324.38,-373 324.38,-370 327.38,-367 330.38,-367"/>
<path fill="none" stroke="black" d="M330.38,-367C330.38,-367 338.38,-367 338.38,-367 341.38,-367 344.38,-370 344.38,-373 344.38,-373 344.38,-379 344.38,-379 344.38,-382 341.38,-385 338.38,-385 338.38,-385 330.38,-385 330.38,-385 327.38,-385 324.38,-382 324.38,-379 324.38,-379 324.38,-373 324.38,-373 324.38,-370 327.38,-367 330.38,-367"/>
<text xml:space="preserve" text-anchor="start" x="332.88" y="-372.25" font-family="Arial" font-size="10.00"> </text>
<text xml:space="preserve" text-anchor="start" x="348.38" y="-372.25" font-family="Arial" font-size="10.00">Object</text>
<path fill="#c7b8e6" stroke="none" d="M386.88,-367C386.88,-367 394.88,-367 394.88,-367 397.88,-367 400.88,-370 400.88,-373 400.88,-373 400.88,-379 400.88,-379 400.88,-382 397.88,-385 394.88,-385 394.88,-385 386.88,-385 386.88,-385 383.88,-385 380.88,-382 380.88,-379 380.88,-379 380.88,-373 380.88,-373 380.88,-370 383.88,-367 386.88,-367"/>
<path fill="none" stroke="black" d="M386.88,-367C386.88,-367 394.88,-367 394.88,-367 397.88,-367 400.88,-370 400.88,-373 400.88,-373 400.88,-379 400.88,-379 400.88,-382 397.88,-385 394.88,-385 394.88,-385 386.88,-385 386.88,-385 383.88,-385 380.88,-382 380.88,-379 380.88,-379 380.88,-373 380.88,-373 380.88,-370 383.88,-367 386.88,-367"/>
<text xml:space="preserve" text-anchor="start" x="389.38" y="-372.25" font-family="Arial" font-size="10.00"> </text>
<text xml:space="preserve" text-anchor="start" x="404.88" y="-372.25" font-family="Arial" font-size="10.00">Attribute</text>
<path fill="#f5b8b8" stroke="none" d="M451.62,-367C451.62,-367 459.62,-367 459.62,-367 462.62,-367 465.62,-370 465.62,-373 465.62,-373 465.62,-379 465.62,-379 465.62,-382 462.62,-385 459.62,-385 459.62,-385 451.62,-385 451.62,-385 448.62,-385 445.62,-382 445.62,-379 445.62,-379 445.62,-373 445.62,-373 445.62,-370 448.62,-367 451.62,-367"/>
<path fill="none" stroke="black" d="M451.62,-367C451.62,-367 459.62,-367 459.62,-367 462.62,-367 465.62,-370 465.62,-373 465.62,-373 465.62,-379 465.62,-379 465.62,-382 462.62,-385 459.62,-385 459.62,-385 451.62,-385 451.62,-385 448.62,-385 445.62,-382 445.62,-379 445.62,-379 445.62,-373 445.62,-373 445.62,-370 448.62,-367 451.62,-367"/>
<text xml:space="preserve" text-anchor="start" x="454.12" y="-372.25" font-family="Arial" font-size="10.00"> </text>
<text xml:space="preserve" text-anchor="start" x="469.62" y="-372.25" font-family="Arial" font-size="10.00">Relationship</text>
<text xml:space="preserve" text-anchor="start" x="529.62" y="-373.5" font-family="Arial" font-weight="bold" font-size="10.00">(+)</text>
<text xml:space="preserve" text-anchor="start" x="541.62" y="-373.5" font-family="Arial" font-size="10.00"> increases complexity</text>
<text xml:space="preserve" text-anchor="start" x="642.88" y="-373.5" font-family="Arial" font-weight="bold" font-size="10.00">(−)</text>
<text xml:space="preserve" text-anchor="start" x="654.88" y="-373.5" font-family="Arial" font-size="10.00"> decreases complexity</text>
<!-- whole.visualization -->
<g id="node1" class="node">
<title>whole.visualization</title>
<path fill="#b8e6b8" stroke="#2c3e50" stroke-width="1.8" d="M608.75,-166C608.75,-166 578.75,-166 578.75,-166 572.75,-166 566.75,-160 566.75,-154 566.75,-154 566.75,-142 566.75,-142 566.75,-136 572.75,-130 578.75,-130 578.75,-130 608.75,-130 608.75,-130 614.75,-130 620.75,-136 620.75,-142 620.75,-142 620.75,-154 620.75,-154 620.75,-160 614.75,-166 608.75,-166"/>
<text xml:space="preserve" text-anchor="middle" x="593.75" y="-144.5" font-family="Arial" font-size="10.00" fill="#1a1a1a">map</text>
</g>
<!-- attr_3 -->
<g id="node7" class="node">
<title>attr_3</title>
<path fill="#c7b8e6" stroke="#7f8c8d" stroke-width="1.2" d="M799,-231C799,-231 675.75,-231 675.75,-231 669.75,-231 663.75,-225 663.75,-219 663.75,-219 663.75,-207 663.75,-207 663.75,-201 669.75,-195 675.75,-195 675.75,-195 799,-195 799,-195 805,-195 811,-201 811,-207 811,-207 811,-219 811,-219 811,-225 805,-231 799,-231"/>
<text xml:space="preserve" text-anchor="middle" x="737.38" y="-209.5" font-family="Arial" font-size="10.00" fill="#1a1a1a">(+) domain specific geography</text>
</g>
<!-- whole.visualization&#45;&gt;attr_3 -->
<g id="edge1" class="edge">
<title>whole.visualization&#45;&gt;attr_3</title>
<path fill="none" stroke="#aaaaaa" d="M621.53,-161.05C634.27,-167.19 649.75,-174.57 663.75,-181 670.98,-184.32 678.64,-187.77 686.18,-191.13"/>
<polygon fill="#aaaaaa" stroke="#aaaaaa" points="684.87,-193.23 692.27,-193.82 686.86,-188.75 684.87,-193.23"/>
</g>
<!-- attr_5 -->
<g id="node8" class="node">
<title>attr_5</title>
<path fill="#c7b8e6" stroke="#7f8c8d" stroke-width="1.2" d="M777.25,-166C777.25,-166 697.5,-166 697.5,-166 691.5,-166 685.5,-160 685.5,-154 685.5,-154 685.5,-142 685.5,-142 685.5,-136 691.5,-130 697.5,-130 697.5,-130 777.25,-130 777.25,-130 783.25,-130 789.25,-136 789.25,-142 789.25,-142 789.25,-154 789.25,-154 789.25,-160 783.25,-166 777.25,-166"/>
<text xml:space="preserve" text-anchor="middle" x="737.38" y="-144.5" font-family="Arial" font-size="10.00" fill="#1a1a1a">(+) high visual detail</text>
</g>
<!-- whole.visualization&#45;&gt;attr_5 -->
<g id="edge2" class="edge">
<title>whole.visualization&#45;&gt;attr_5</title>
<path fill="none" stroke="#aaaaaa" d="M621.39,-148C636.95,-148 657.26,-148 676.47,-148"/>
<polygon fill="#aaaaaa" stroke="#aaaaaa" points="676.39,-150.45 683.39,-148 676.39,-145.55 676.39,-150.45"/>
</g>
<!-- rel_4 -->
<g id="node18" class="node">
<title>rel_4</title>
<path fill="#f5b8b8" stroke="#d46a6a" stroke-width="1.2" d="M779.12,-101C779.12,-101 695.62,-101 695.62,-101 689.62,-101 683.62,-95 683.62,-89 683.62,-89 683.62,-77 683.62,-77 683.62,-71 689.62,-65 695.62,-65 695.62,-65 779.12,-65 779.12,-65 785.12,-65 791.12,-71 791.12,-77 791.12,-77 791.12,-89 791.12,-89 791.12,-95 785.12,-101 779.12,-101"/>
<text xml:space="preserve" text-anchor="middle" x="737.38" y="-79.5" font-family="Arial" font-size="10.00" fill="#8b0000">requires expertise for</text>
</g>
<!-- whole.visualization&#45;&gt;rel_4 -->
<g id="edge16" class="edge">
<title>whole.visualization&#45;&gt;rel_4</title>
<path fill="none" stroke="#d46a6a" stroke-width="1.5" d="M621.6,-135.49C634.36,-129.56 649.83,-122.39 663.75,-116 671.09,-112.63 678.85,-109.09 686.46,-105.62"/>
<polygon fill="#d46a6a" stroke="#d46a6a" stroke-width="1.5" points="687.45,-108.25 693.57,-102.39 685.13,-103.15 687.45,-108.25"/>
</g>
<!-- unknown.continent_color -->
<g id="node2" class="node">
<title>unknown.continent_color</title>
<path fill="#b8e6b8" stroke="#2c3e50" stroke-width="1.8" d="M325.25,-199C325.25,-199 269.5,-199 269.5,-199 263.5,-199 257.5,-193 257.5,-187 257.5,-187 257.5,-175 257.5,-175 257.5,-169 263.5,-163 269.5,-163 269.5,-163 325.25,-163 325.25,-163 331.25,-163 337.25,-169 337.25,-175 337.25,-175 337.25,-187 337.25,-187 337.25,-193 331.25,-199 325.25,-199"/>
<text xml:space="preserve" text-anchor="middle" x="297.38" y="-177.5" font-family="Arial" font-size="10.00" fill="#1a1a1a">continent color</text>
</g>
<!-- attr_0 -->
<g id="node9" class="node">
<title>attr_0</title>
<path fill="#c7b8e6" stroke="#7f8c8d" stroke-width="1.2" d="M500.5,-231C500.5,-231 407.25,-231 407.25,-231 401.25,-231 395.25,-225 395.25,-219 395.25,-219 395.25,-207 395.25,-207 395.25,-201 401.25,-195 407.25,-195 407.25,-195 500.5,-195 500.5,-195 506.5,-195 512.5,-201 512.5,-207 512.5,-207 512.5,-219 512.5,-219 512.5,-225 506.5,-231 500.5,-231"/>
<text xml:space="preserve" text-anchor="middle" x="453.88" y="-209.5" font-family="Arial" font-size="10.00" fill="#1a1a1a">(+) detailed colorization</text>
</g>
<!-- unknown.continent_color&#45;&gt;attr_0 -->
<g id="edge3" class="edge">
<title>unknown.continent_color&#45;&gt;attr_0</title>
<path fill="none" stroke="#aaaaaa" d="M337.76,-189.16C352.67,-192.24 370.07,-195.85 386.77,-199.31"/>
<polygon fill="#aaaaaa" stroke="#aaaaaa" points="386.06,-201.66 393.41,-200.68 387.05,-196.86 386.06,-201.66"/>
</g>
<!-- rel_1 -->
<g id="node15" class="node">
<title>rel_1</title>
<path fill="#f5b8b8" stroke="#d46a6a" stroke-width="1.2" d="M491.12,-166C491.12,-166 416.62,-166 416.62,-166 410.62,-166 404.62,-160 404.62,-154 404.62,-154 404.62,-142 404.62,-142 404.62,-136 410.62,-130 416.62,-130 416.62,-130 491.12,-130 491.12,-130 497.12,-130 503.12,-136 503.12,-142 503.12,-142 503.12,-154 503.12,-154 503.12,-160 497.12,-166 491.12,-166"/>
<text xml:space="preserve" text-anchor="middle" x="453.88" y="-144.5" font-family="Arial" font-size="10.00" fill="#8b0000">adds complexity to</text>
</g>
<!-- unknown.continent_color&#45;&gt;rel_1 -->
<g id="edge10" class="edge">
<title>unknown.continent_color&#45;&gt;rel_1</title>
<path fill="none" stroke="#d46a6a" stroke-width="1.5" d="M337.76,-172.59C354.89,-168.93 375.31,-164.57 394.17,-160.54"/>
<polygon fill="#d46a6a" stroke="#d46a6a" stroke-width="1.5" points="394.7,-163.29 401.94,-158.88 393.53,-157.81 394.7,-163.29"/>
</g>
<!-- unknown.small_table -->
<g id="node3" class="node">
<title>unknown.small_table</title>
<path fill="#b8e6b8" stroke="#2c3e50" stroke-width="1.8" d="M317,-69C317,-69 277.75,-69 277.75,-69 271.75,-69 265.75,-63 265.75,-57 265.75,-57 265.75,-45 265.75,-45 265.75,-39 271.75,-33 277.75,-33 277.75,-33 317,-33 317,-33 323,-33 329,-39 329,-45 329,-45 329,-57 329,-57 329,-63 323,-69 317,-69"/>
<text xml:space="preserve" text-anchor="middle" x="297.38" y="-47.5" font-family="Arial" font-size="10.00" fill="#1a1a1a">small table</text>
</g>
<!-- attr_1 -->
<g id="node10" class="node">
<title>attr_1</title>
<path fill="#c7b8e6" stroke="#7f8c8d" stroke-width="1.2" d="M511.75,-101C511.75,-101 396,-101 396,-101 390,-101 384,-95 384,-89 384,-89 384,-77 384,-77 384,-71 390,-65 396,-65 396,-65 511.75,-65 511.75,-65 517.75,-65 523.75,-71 523.75,-77 523.75,-77 523.75,-89 523.75,-89 523.75,-95 517.75,-101 511.75,-101"/>
<text xml:space="preserve" text-anchor="middle" x="453.88" y="-79.5" font-family="Arial" font-size="10.00" fill="#1a1a1a">(+) small embedded element</text>
</g>
<!-- unknown.small_table&#45;&gt;attr_1 -->
<g id="edge4" class="edge">
<title>unknown.small_table&#45;&gt;attr_1</title>
<path fill="none" stroke="#aaaaaa" d="M329.64,-57.48C343.05,-60.25 359.37,-63.63 375.69,-67.01"/>
<polygon fill="#aaaaaa" stroke="#aaaaaa" points="374.85,-69.34 382.2,-68.36 375.85,-64.54 374.85,-69.34"/>
</g>
<!-- rel_3 -->
<g id="node17" class="node">
<title>rel_3</title>
<path fill="#f5b8b8" stroke="#d46a6a" stroke-width="1.2" d="M491.12,-36C491.12,-36 416.62,-36 416.62,-36 410.62,-36 404.62,-30 404.62,-24 404.62,-24 404.62,-12 404.62,-12 404.62,-6 410.62,0 416.62,0 416.62,0 491.12,0 491.12,0 497.12,0 503.12,-6 503.12,-12 503.12,-12 503.12,-24 503.12,-24 503.12,-30 497.12,-36 491.12,-36"/>
<text xml:space="preserve" text-anchor="middle" x="453.88" y="-14.5" font-family="Arial" font-size="10.00" fill="#8b0000">increases clutter in</text>
</g>
<!-- unknown.small_table&#45;&gt;rel_3 -->
<g id="edge14" class="edge">
<title>unknown.small_table&#45;&gt;rel_3</title>
<path fill="none" stroke="#d46a6a" stroke-width="1.5" d="M329.64,-44.32C348.22,-40.35 372.38,-35.19 394.38,-30.49"/>
<polygon fill="#d46a6a" stroke="#d46a6a" stroke-width="1.5" points="394.85,-33.26 402.09,-28.85 393.68,-27.78 394.85,-33.26"/>
</g>
<!-- unknown.small_text -->
<g id="node4" class="node">
<title>unknown.small_text</title>
<path fill="#b8e6b8" stroke="#2c3e50" stroke-width="1.8" d="M46.75,-101C46.75,-101 12,-101 12,-101 6,-101 0,-95 0,-89 0,-89 0,-77 0,-77 0,-71 6,-65 12,-65 12,-65 46.75,-65 46.75,-65 52.75,-65 58.75,-71 58.75,-77 58.75,-77 58.75,-89 58.75,-89 58.75,-95 52.75,-101 46.75,-101"/>
<text xml:space="preserve" text-anchor="middle" x="29.38" y="-79.5" font-family="Arial" font-size="10.00" fill="#1a1a1a">small text</text>
</g>
<!-- attr_2 -->
<g id="node11" class="node">
<title>attr_2</title>
<path fill="#c7b8e6" stroke="#7f8c8d" stroke-width="1.2" d="M187.88,-134C187.88,-134 124.62,-134 124.62,-134 118.62,-134 112.62,-128 112.62,-122 112.62,-122 112.62,-110 112.62,-110 112.62,-104 118.62,-98 124.62,-98 124.62,-98 187.88,-98 187.88,-98 193.88,-98 199.88,-104 199.88,-110 199.88,-110 199.88,-122 199.88,-122 199.88,-128 193.88,-134 187.88,-134"/>
<text xml:space="preserve" text-anchor="middle" x="156.25" y="-112.5" font-family="Arial" font-size="10.00" fill="#1a1a1a">(+) tiny font size</text>
</g>
<!-- unknown.small_text&#45;&gt;attr_2 -->
<g id="edge5" class="edge">
<title>unknown.small_text&#45;&gt;attr_2</title>
<path fill="none" stroke="#aaaaaa" d="M59.34,-90.65C72.71,-94.19 89,-98.49 104.32,-102.54"/>
<polygon fill="#aaaaaa" stroke="#aaaaaa" points="103.37,-104.83 110.77,-104.25 104.63,-100.09 103.37,-104.83"/>
</g>
<!-- rel_2 -->
<g id="node16" class="node">
<title>rel_2</title>
<path fill="#f5b8b8" stroke="#d46a6a" stroke-width="1.2" d="M198.75,-69C198.75,-69 113.75,-69 113.75,-69 107.75,-69 101.75,-63 101.75,-57 101.75,-57 101.75,-45 101.75,-45 101.75,-39 107.75,-33 113.75,-33 113.75,-33 198.75,-33 198.75,-33 204.75,-33 210.75,-39 210.75,-45 210.75,-45 210.75,-57 210.75,-57 210.75,-63 204.75,-69 198.75,-69"/>
<text xml:space="preserve" text-anchor="middle" x="156.25" y="-47.5" font-family="Arial" font-size="10.00" fill="#8b0000">reduces readability of</text>
</g>
<!-- unknown.small_text&#45;&gt;rel_2 -->
<g id="edge12" class="edge">
<title>unknown.small_text&#45;&gt;rel_2</title>
<path fill="none" stroke="#d46a6a" stroke-width="1.5" d="M59.34,-75.58C69.03,-73.09 80.26,-70.22 91.54,-67.33"/>
<polygon fill="#d46a6a" stroke="#d46a6a" stroke-width="1.5" points="92.18,-70.05 99.23,-65.36 90.79,-64.63 92.18,-70.05"/>
</g>
<!-- furniture.legend -->
<g id="node5" class="node">
<title>furniture.legend</title>
<path fill="#b8e6b8" stroke="#2c3e50" stroke-width="1.8" d="M896,-101C896,-101 866,-101 866,-101 860,-101 854,-95 854,-89 854,-89 854,-77 854,-77 854,-71 860,-65 866,-65 866,-65 896,-65 896,-65 902,-65 908,-71 908,-77 908,-77 908,-89 908,-89 908,-95 902,-101 896,-101"/>
<text xml:space="preserve" text-anchor="middle" x="881" y="-79.5" font-family="Arial" font-size="10.00" fill="#1a1a1a">legend</text>
</g>
<!-- attr_6 -->
<g id="node12" class="node">
<title>attr_6</title>
<path fill="#c7b8e6" stroke="#7f8c8d" stroke-width="1.2" d="M1067.5,-101C1067.5,-101 963,-101 963,-101 957,-101 951,-95 951,-89 951,-89 951,-77 951,-77 951,-71 957,-65 963,-65 963,-65 1067.5,-65 1067.5,-65 1073.5,-65 1079.5,-71 1079.5,-77 1079.5,-77 1079.5,-89 1079.5,-89 1079.5,-95 1073.5,-101 1067.5,-101"/>
<text xml:space="preserve" text-anchor="middle" x="1015.25" y="-79.5" font-family="Arial" font-size="10.00" fill="#1a1a1a">(+) unclear color encoding</text>
</g>
<!-- furniture.legend&#45;&gt;attr_6 -->
<g id="edge6" class="edge">
<title>furniture.legend&#45;&gt;attr_6</title>
<path fill="none" stroke="#aaaaaa" d="M908.76,-83C918.64,-83 930.35,-83 942.32,-83"/>
<polygon fill="#aaaaaa" stroke="#aaaaaa" points="942.11,-85.45 949.11,-83 942.11,-80.55 942.11,-85.45"/>
</g>
<!-- unknown.overall_darkness -->
<g id="node6" class="node">
<title>unknown.overall_darkness</title>
<path fill="#b8e6b8" stroke="#2c3e50" stroke-width="1.8" d="M329,-328C329,-328 265.75,-328 265.75,-328 259.75,-328 253.75,-322 253.75,-316 253.75,-316 253.75,-304 253.75,-304 253.75,-298 259.75,-292 265.75,-292 265.75,-292 329,-292 329,-292 335,-292 341,-298 341,-304 341,-304 341,-316 341,-316 341,-322 335,-328 329,-328"/>
<text xml:space="preserve" text-anchor="middle" x="297.38" y="-306.5" font-family="Arial" font-size="10.00" fill="#1a1a1a">overall darkness</text>
</g>
<!-- attr_4 -->
<g id="node13" class="node">
<title>attr_4</title>
<path fill="#c7b8e6" stroke="#7f8c8d" stroke-width="1.2" d="M492.62,-361C492.62,-361 415.12,-361 415.12,-361 409.12,-361 403.12,-355 403.12,-349 403.12,-349 403.12,-337 403.12,-337 403.12,-331 409.12,-325 415.12,-325 415.12,-325 492.62,-325 492.62,-325 498.62,-325 504.62,-331 504.62,-337 504.62,-337 504.62,-349 504.62,-349 504.62,-355 498.62,-361 492.62,-361"/>
<text xml:space="preserve" text-anchor="middle" x="453.88" y="-339.5" font-family="Arial" font-size="10.00" fill="#1a1a1a">(+) dark hard to see</text>
</g>
<!-- unknown.overall_darkness&#45;&gt;attr_4 -->
<g id="edge7" class="edge">
<title>unknown.overall_darkness&#45;&gt;attr_4</title>
<path fill="none" stroke="#aaaaaa" d="M341.82,-319.28C358.23,-322.78 377.17,-326.83 394.72,-330.58"/>
<polygon fill="#aaaaaa" stroke="#aaaaaa" points="393.83,-332.89 401.18,-331.96 394.85,-328.1 393.83,-332.89"/>
</g>
<!-- rel_0 -->
<g id="node14" class="node">
<title>rel_0</title>
<path fill="#f5b8b8" stroke="#d46a6a" stroke-width="1.2" d="M496,-296C496,-296 411.75,-296 411.75,-296 405.75,-296 399.75,-290 399.75,-284 399.75,-284 399.75,-272 399.75,-272 399.75,-266 405.75,-260 411.75,-260 411.75,-260 496,-260 496,-260 502,-260 508,-266 508,-272 508,-272 508,-284 508,-284 508,-290 502,-296 496,-296"/>
<text xml:space="preserve" text-anchor="middle" x="453.88" y="-274.5" font-family="Arial" font-size="10.00" fill="#8b0000">increases difficulty of</text>
</g>
<!-- unknown.overall_darkness&#45;&gt;rel_0 -->
<g id="edge8" class="edge">
<title>unknown.overall_darkness&#45;&gt;rel_0</title>
<path fill="none" stroke="#d46a6a" stroke-width="1.5" d="M341.82,-301C356.61,-297.94 373.44,-294.45 389.46,-291.13"/>
<polygon fill="#d46a6a" stroke="#d46a6a" stroke-width="1.5" points="389.82,-293.92 397.08,-289.56 388.68,-288.44 389.82,-293.92"/>
</g>
<!-- rel_0&#45;&gt;whole.visualization -->
<g id="edge9" class="edge">
<title>rel_0&#45;&gt;whole.visualization</title>
<path fill="none" stroke="#d46a6a" stroke-width="1.5" d="M503.14,-259.56C510.44,-255.67 517.58,-251.16 523.75,-246 547.12,-226.47 566.32,-197.25 578.48,-175.79"/>
<polygon fill="#d46a6a" stroke="#d46a6a" stroke-width="1.5" points="580.91,-177.18 582.31,-168.82 576,-174.48 580.91,-177.18"/>
</g>
<!-- rel_1&#45;&gt;whole.visualization -->
<g id="edge11" class="edge">
<title>rel_1&#45;&gt;whole.visualization</title>
<path fill="none" stroke="#d46a6a" stroke-width="1.5" d="M503.48,-148C520.78,-148 539.96,-148 556.09,-148"/>
<polygon fill="#d46a6a" stroke="#d46a6a" stroke-width="1.5" points="555.93,-150.8 563.93,-148 555.93,-145.2 555.93,-150.8"/>
</g>
<!-- rel_2&#45;&gt;unknown.small_table -->
<g id="edge13" class="edge">
<title>rel_2&#45;&gt;unknown.small_table</title>
<path fill="none" stroke="#d46a6a" stroke-width="1.5" d="M211.04,-51C225.54,-51 241.01,-51 254.74,-51"/>
<polygon fill="#d46a6a" stroke="#d46a6a" stroke-width="1.5" points="254.58,-53.8 262.58,-51 254.58,-48.2 254.58,-53.8"/>
</g>
<!-- rel_3&#45;&gt;whole.visualization -->
<g id="edge15" class="edge">
<title>rel_3&#45;&gt;whole.visualization</title>
<path fill="none" stroke="#d46a6a" stroke-width="1.5" d="M503.14,-36.44C510.44,-40.33 517.58,-44.84 523.75,-50 547.12,-69.53 566.32,-98.75 578.48,-120.21"/>
<polygon fill="#d46a6a" stroke="#d46a6a" stroke-width="1.5" points="576,-121.52 582.31,-127.18 580.91,-118.82 576,-121.52"/>
</g>
<!-- rel_4&#45;&gt;furniture.legend -->
<g id="edge17" class="edge">
<title>rel_4&#45;&gt;furniture.legend</title>
<path fill="none" stroke="#d46a6a" stroke-width="1.5" d="M791.51,-83C808.77,-83 827.52,-83 843.3,-83"/>
<polygon fill="#d46a6a" stroke="#d46a6a" stroke-width="1.5" points="842.93,-85.8 850.93,-83 842.93,-80.2 842.93,-85.8"/>
</g>
</g>
</svg>
