<?xml version="1.0" encoding="UTF-8" standalone="no"?>
<!DOCTYPE svg PUBLIC "-//W3C//DTD SVG 1.1//EN"
 "http://www.w3.org/Graphics/SVG/1.1/DTD/svg11.dtd">
<!-- Generated by graphviz version 14.1.5 (20260411.2331)
 -->
<!-- Title: visMost54.png Pages: 1 -->
<svg width="526pt" height="570pt"
 viewBox="0.00 0.00 526.00 570.00" xmlns="http://www.w3.org/2000/svg" xmlns:xlink="http://www.w3.org/1999/xlink">
<g id="graph0" class="graph" transform="scale(1 1) rotate(0) translate(4 566.25)">
<title>visMost54.png</title>
<polygon fill="white" stroke="none" points="-4,4 -4,-566.25 521.75,-566.25 521.75,4 -4,4"/>
<text xml:space="preserve" text-anchor="start" x="211.62" y="-541.95" font-family="Arial" font-weight="bold" font-size="14.00">visMost54.png</text>
<text xml:space="preserve" text-anchor="start" x="218" y="-522" font-family="Arial" font-size="11.00">Bar &#160;| &#160;VC = 0.79</text>
<path fill="#b8e6b8" stroke="none" d="M49.5,-497C49.5,-497 57.5,-497 57.5,-497 60.5,-497 63.5,-500 63.5,-503 63.5,-503 63.5,-509 63.5,-509 63.5,-512 60.5,-515 57.5,-515 57.5,-515 49.5,-515 49.5,-515 46.5,-515 43.5,-512 43.5,-509 43.5,-509 43.5,-503 43.5,-503 43.5,-500 46.5,-497 49.5,-497"/>
<path fill="none" stroke="black" d="M49.5,-497C49.5,-497 57.5,-497 57.5,-497 60.5,-497 63.5,-500 63.5,-503 63.5,-503 63.5,-509 63.5,-509 63.5,-512 60.5,-515 57.5,-515 57.5,-515 49.5,-515 49.5,-515 46.5,-515 43.5,-512 43.5,-509 43.5,-509 43.5,-503 43.5,-503 43.5,-500 46.5,-497 49.5,-497"/>
<text xml:space="preserve" text-anchor="start" x="52" y="-502.25" font-family="Arial" font-size="10.00"> </text>
<text xml:space="preserve" text-anchor="start" x="67.5" y="-502.25" font-family="Arial" font-size="10.00">Object</text>
<path fill="#c7b8e6" stroke="none" d="M106,-497C106,-497 114,-497 114,-497 117,-497 120,-500 120,-503 120,-503 120,-509 120,-509 120,-512 117,-515 114,-515 114,-515 106,-515 106,-515 103,-515 100,-512 100,-509 100,-509 100,-503 100,-503 100,-500 103,-497 106,-497"/>
<path fill="none" stroke="black" d="M106,-497C106,-497 114,-497 114,-497 117,-497 120,-500 120,-503 120,-503 120,-509 120,-509 120,-512 117,-515 114,-515 114,-515 106,-515 106,-515 103,-515 100,-512 100,-509 100,-509 100,-503 100,-503 100,-500 103,-497 106,-497"/>
<text xml:space="preserve" text-anchor="start" x="108.5" y="-502.25" font-family="Arial" font-size="10.00"> </text>
<text xml:space="preserve" text-anchor="start" x="124" y="-502.25" font-family="Arial" font-size="10.00">Attribute</text>
<path fill="#f5b8b8" stroke="none" d="M170.75,-497C170.75,-497 178.75,-497 178.75,-497 181.75,-497 184.75,-500 184.75,-503 184.75,-503 184.75,-509 184.75,-509 184.75,-512 181.75,-515 178.75,-515 178.75,-515 170.75,-515 170.75,-515 167.75,-515 164.75,-512 164.75,-509 164.75,-509 164.75,-503 164.75,-503 164.75,-500 167.75,-497 170.75,-497"/>
<path fill="none" stroke="black" d="M170.75,-497C170.75,-497 178.75,-497 178.75,-497 181.75,-497 184.75,-500 184.75,-503 184.75,-503 184.75,-509 184.75,-509 184.75,-512 181.75,-515 178.75,-515 178.75,-515 170.75,-515 170.75,-515 167.75,-515 164.75,-512 164.75,-509 164.75,-509 164.75,-503 164.75,-503 164.75,-500 167.75,-497 170.75,-497"/>
<text xml:space="preserve" text-anchor="start" x="173.25" y="-502.25" font-family="Arial" font-size="10.00"> </text>
<text xml:space="preserve" text-anchor="start" x="188.75" y="-502.25" font-family="Arial" font-size="10.00">Relationship</text>
<text xml:space="preserve" text-anchor="start" x="248.75" y="-503.5" font-family="Arial" font-weight="bold" font-size="10.00">(+)</text>
<text xml:space="preserve" text-anchor="start" x="260.75" y="-503.5" font-family="Arial" font-size="10.00"> increases complexity</text>
<text xml:space="preserve" text-anchor="start" x="362" y="-503.5" font-family="Arial" font-weight="bold" font-size="10.00">(−)</text>
<text xml:space="preserve" text-anchor="start" x="374" y="-503.5" font-family="Arial" font-size="10.00"> decreases complexity</text>
<!-- unknown.bars -->
<g id="node1" class="node">
<title>unknown.bars</title>
<path fill="#b8e6b8" stroke="#2c3e50" stroke-width="1.8" d="M328.12,-69C328.12,-69 298.12,-69 298.12,-69 292.12,-69 286.12,-63 286.12,-57 286.12,-57 286.12,-45 286.12,-45 286.12,-39 292.12,-33 298.12,-33 298.12,-33 328.12,-33 328.12,-33 334.12,-33 340.12,-39 340.12,-45 340.12,-45 340.12,-57 340.12,-57 340.12,-63 334.12,-69 328.12,-69"/>
<text xml:space="preserve" text-anchor="middle" x="313.12" y="-47.5" font-family="Arial" font-size="10.00" fill="#1a1a1a">bars</text>
</g>
<!-- attr_2 -->
<g id="node7" class="node">
<title>attr_2</title>
<path fill="#c7b8e6" stroke="#7f8c8d" stroke-width="1.2" d="M505.75,-69C505.75,-69 396.75,-69 396.75,-69 390.75,-69 384.75,-63 384.75,-57 384.75,-57 384.75,-45 384.75,-45 384.75,-39 390.75,-33 396.75,-33 396.75,-33 505.75,-33 505.75,-33 511.75,-33 517.75,-39 517.75,-45 517.75,-45 517.75,-57 517.75,-57 517.75,-63 511.75,-69 505.75,-69"/>
<text xml:space="preserve" text-anchor="middle" x="451.25" y="-47.5" font-family="Arial" font-size="10.00" fill="#1a1a1a">(+) numerous bar elements</text>
</g>
<!-- unknown.bars&#45;&gt;attr_2 -->
<g id="edge1" class="edge">
<title>unknown.bars&#45;&gt;attr_2</title>
<path fill="none" stroke="#aaaaaa" d="M341.02,-51C351.25,-51 363.47,-51 375.98,-51"/>
<polygon fill="#aaaaaa" stroke="#aaaaaa" points="375.7,-53.45 382.7,-51 375.7,-48.55 375.7,-53.45"/>
</g>
<!-- unknown.lines -->
<g id="node2" class="node">
<title>unknown.lines</title>
<path fill="#b8e6b8" stroke="#2c3e50" stroke-width="1.8" d="M45.5,-101C45.5,-101 15.5,-101 15.5,-101 9.5,-101 3.5,-95 3.5,-89 3.5,-89 3.5,-77 3.5,-77 3.5,-71 9.5,-65 15.5,-65 15.5,-65 45.5,-65 45.5,-65 51.5,-65 57.5,-71 57.5,-77 57.5,-77 57.5,-89 57.5,-89 57.5,-95 51.5,-101 45.5,-101"/>
<text xml:space="preserve" text-anchor="middle" x="30.5" y="-79.5" font-family="Arial" font-size="10.00" fill="#1a1a1a">lines</text>
</g>
<!-- attr_0 -->
<g id="node8" class="node">
<title>attr_0</title>
<path fill="#c7b8e6" stroke="#7f8c8d" stroke-width="1.2" d="M226.12,-166C226.12,-166 119.38,-166 119.38,-166 113.38,-166 107.38,-160 107.38,-154 107.38,-154 107.38,-142 107.38,-142 107.38,-136 113.38,-130 119.38,-130 119.38,-130 226.12,-130 226.12,-130 232.12,-130 238.12,-136 238.12,-142 238.12,-142 238.12,-154 238.12,-154 238.12,-160 232.12,-166 226.12,-166"/>
<text xml:space="preserve" text-anchor="middle" x="172.75" y="-144.5" font-family="Arial" font-size="10.00" fill="#1a1a1a">(+) many overlapping lines</text>
</g>
<!-- unknown.lines&#45;&gt;attr_0 -->
<g id="edge2" class="edge">
<title>unknown.lines&#45;&gt;attr_0</title>
<path fill="none" stroke="#aaaaaa" d="M58.21,-95.38C76.84,-104.01 102.2,-115.77 124.23,-125.98"/>
<polygon fill="#aaaaaa" stroke="#aaaaaa" points="123.11,-128.16 130.5,-128.88 125.18,-123.71 123.11,-128.16"/>
</g>
<!-- rel_0 -->
<g id="node13" class="node">
<title>rel_0</title>
<path fill="#f5b8b8" stroke="#d46a6a" stroke-width="1.2" d="M221.25,-101C221.25,-101 124.25,-101 124.25,-101 118.25,-101 112.25,-95 112.25,-89 112.25,-89 112.25,-77 112.25,-77 112.25,-71 118.25,-65 124.25,-65 124.25,-65 221.25,-65 221.25,-65 227.25,-65 233.25,-71 233.25,-77 233.25,-77 233.25,-89 233.25,-89 233.25,-95 227.25,-101 221.25,-101"/>
<text xml:space="preserve" text-anchor="middle" x="172.75" y="-79.5" font-family="Arial" font-size="10.00" fill="#8b0000">increases visual density</text>
</g>
<!-- unknown.lines&#45;&gt;rel_0 -->
<g id="edge7" class="edge">
<title>unknown.lines&#45;&gt;rel_0</title>
<path fill="none" stroke="#d46a6a" stroke-width="1.5" d="M58.21,-83C70.66,-83 86.13,-83 101.59,-83"/>
<polygon fill="#d46a6a" stroke="#d46a6a" stroke-width="1.5" points="101.45,-85.8 109.45,-83 101.45,-80.2 101.45,-85.8"/>
</g>
<!-- rel_3 -->
<g id="node16" class="node">
<title>rel_3</title>
<path fill="#f5b8b8" stroke="#d46a6a" stroke-width="1.2" d="M188.62,-36C188.62,-36 156.88,-36 156.88,-36 150.88,-36 144.88,-30 144.88,-24 144.88,-24 144.88,-12 144.88,-12 144.88,-6 150.88,0 156.88,0 156.88,0 188.62,0 188.62,0 194.62,0 200.62,-6 200.62,-12 200.62,-12 200.62,-24 200.62,-24 200.62,-30 194.62,-36 188.62,-36"/>
<text xml:space="preserve" text-anchor="middle" x="172.75" y="-14.5" font-family="Arial" font-size="10.00" fill="#8b0000">obscures</text>
</g>
<!-- unknown.lines&#45;&gt;rel_3 -->
<g id="edge13" class="edge">
<title>unknown.lines&#45;&gt;rel_3</title>
<path fill="none" stroke="#d46a6a" stroke-width="1.5" d="M58.21,-70.62C80.1,-60.48 111.3,-46.02 135.45,-34.82"/>
<polygon fill="#d46a6a" stroke="#d46a6a" stroke-width="1.5" points="136.52,-37.41 142.6,-31.51 134.17,-32.33 136.52,-37.41"/>
</g>
<!-- unknown.text_labels -->
<g id="node3" class="node">
<title>unknown.text_labels</title>
<path fill="#b8e6b8" stroke="#2c3e50" stroke-width="1.8" d="M49,-296C49,-296 12,-296 12,-296 6,-296 0,-290 0,-284 0,-284 0,-272 0,-272 0,-266 6,-260 12,-260 12,-260 49,-260 49,-260 55,-260 61,-266 61,-272 61,-272 61,-284 61,-284 61,-290 55,-296 49,-296"/>
<text xml:space="preserve" text-anchor="middle" x="30.5" y="-274.5" font-family="Arial" font-size="10.00" fill="#1a1a1a">text labels</text>
</g>
<!-- attr_1 -->
<g id="node9" class="node">
<title>attr_1</title>
<path fill="#c7b8e6" stroke="#7f8c8d" stroke-width="1.2" d="M212.25,-361C212.25,-361 133.25,-361 133.25,-361 127.25,-361 121.25,-355 121.25,-349 121.25,-349 121.25,-337 121.25,-337 121.25,-331 127.25,-325 133.25,-325 133.25,-325 212.25,-325 212.25,-325 218.25,-325 224.25,-331 224.25,-337 224.25,-337 224.25,-349 224.25,-349 224.25,-355 218.25,-361 212.25,-361"/>
<text xml:space="preserve" text-anchor="middle" x="172.75" y="-339.5" font-family="Arial" font-size="10.00" fill="#1a1a1a">(+) high text volume</text>
</g>
<!-- unknown.text_labels&#45;&gt;attr_1 -->
<g id="edge3" class="edge">
<title>unknown.text_labels&#45;&gt;attr_1</title>
<path fill="none" stroke="#aaaaaa" d="M61.59,-291.94C79.87,-300.42 103.61,-311.42 124.36,-321.04"/>
<polygon fill="#aaaaaa" stroke="#aaaaaa" points="123.11,-323.16 130.49,-323.88 125.17,-318.71 123.11,-323.16"/>
</g>
<!-- attr_4 -->
<g id="node10" class="node">
<title>attr_4</title>
<path fill="#c7b8e6" stroke="#7f8c8d" stroke-width="1.2" d="M229.5,-296C229.5,-296 116,-296 116,-296 110,-296 104,-290 104,-284 104,-284 104,-272 104,-272 104,-266 110,-260 116,-260 116,-260 229.5,-260 229.5,-260 235.5,-260 241.5,-266 241.5,-272 241.5,-272 241.5,-284 241.5,-284 241.5,-290 235.5,-296 229.5,-296"/>
<text xml:space="preserve" text-anchor="middle" x="172.75" y="-274.5" font-family="Arial" font-size="10.00" fill="#1a1a1a">(+) dense label arrangement</text>
</g>
<!-- unknown.text_labels&#45;&gt;attr_4 -->
<g id="edge4" class="edge">
<title>unknown.text_labels&#45;&gt;attr_4</title>
<path fill="none" stroke="#aaaaaa" d="M61.59,-278C71.66,-278 83.39,-278 95.36,-278"/>
<polygon fill="#aaaaaa" stroke="#aaaaaa" points="95.16,-280.45 102.16,-278 95.16,-275.55 95.16,-280.45"/>
</g>
<!-- rel_1 -->
<g id="node14" class="node">
<title>rel_1</title>
<path fill="#f5b8b8" stroke="#d46a6a" stroke-width="1.2" d="M195,-231C195,-231 150.5,-231 150.5,-231 144.5,-231 138.5,-225 138.5,-219 138.5,-219 138.5,-207 138.5,-207 138.5,-201 144.5,-195 150.5,-195 150.5,-195 195,-195 195,-195 201,-195 207,-201 207,-207 207,-207 207,-219 207,-219 207,-225 201,-231 195,-231"/>
<text xml:space="preserve" text-anchor="middle" x="172.75" y="-209.5" font-family="Arial" font-size="10.00" fill="#8b0000">overwhelms</text>
</g>
<!-- unknown.text_labels&#45;&gt;rel_1 -->
<g id="edge9" class="edge">
<title>unknown.text_labels&#45;&gt;rel_1</title>
<path fill="none" stroke="#d46a6a" stroke-width="1.5" d="M61.59,-264.06C81.24,-254.95 107.19,-242.92 128.97,-232.82"/>
<polygon fill="#d46a6a" stroke="#d46a6a" stroke-width="1.5" points="129.88,-235.49 135.96,-229.59 127.53,-230.41 129.88,-235.49"/>
</g>
<!-- text.axis_label -->
<g id="node4" class="node">
<title>text.axis_label</title>
<path fill="#b8e6b8" stroke="#2c3e50" stroke-width="1.8" d="M329.75,-231C329.75,-231 296.5,-231 296.5,-231 290.5,-231 284.5,-225 284.5,-219 284.5,-219 284.5,-207 284.5,-207 284.5,-201 290.5,-195 296.5,-195 296.5,-195 329.75,-195 329.75,-195 335.75,-195 341.75,-201 341.75,-207 341.75,-207 341.75,-219 341.75,-219 341.75,-225 335.75,-231 329.75,-231"/>
<text xml:space="preserve" text-anchor="middle" x="313.12" y="-209.5" font-family="Arial" font-size="10.00" fill="#1a1a1a">axis label</text>
</g>
<!-- text.title -->
<g id="node5" class="node">
<title>text.title</title>
<path fill="#b8e6b8" stroke="#2c3e50" stroke-width="1.8" d="M45.5,-458C45.5,-458 15.5,-458 15.5,-458 9.5,-458 3.5,-452 3.5,-446 3.5,-446 3.5,-434 3.5,-434 3.5,-428 9.5,-422 15.5,-422 15.5,-422 45.5,-422 45.5,-422 51.5,-422 57.5,-428 57.5,-434 57.5,-434 57.5,-446 57.5,-446 57.5,-452 51.5,-458 45.5,-458"/>
<text xml:space="preserve" text-anchor="middle" x="30.5" y="-436.5" font-family="Arial" font-size="10.00" fill="#1a1a1a">title</text>
</g>
<!-- attr_3 -->
<g id="node11" class="node">
<title>attr_3</title>
<path fill="#c7b8e6" stroke="#7f8c8d" stroke-width="1.2" d="M222.38,-491C222.38,-491 123.12,-491 123.12,-491 117.12,-491 111.12,-485 111.12,-479 111.12,-479 111.12,-467 111.12,-467 111.12,-461 117.12,-455 123.12,-455 123.12,-455 222.38,-455 222.38,-455 228.38,-455 234.38,-461 234.38,-467 234.38,-467 234.38,-479 234.38,-479 234.38,-485 228.38,-491 222.38,-491"/>
<text xml:space="preserve" text-anchor="middle" x="172.75" y="-469.5" font-family="Arial" font-size="10.00" fill="#1a1a1a">(+) domain specific topic</text>
</g>
<!-- text.title&#45;&gt;attr_3 -->
<g id="edge5" class="edge">
<title>text.title&#45;&gt;attr_3</title>
<path fill="none" stroke="#aaaaaa" d="M58.21,-446.28C70.87,-449.26 86.63,-452.97 102.35,-456.67"/>
<polygon fill="#aaaaaa" stroke="#aaaaaa" points="101.7,-459.03 109.08,-458.25 102.82,-454.26 101.7,-459.03"/>
</g>
<!-- rel_2 -->
<g id="node15" class="node">
<title>rel_2</title>
<path fill="#f5b8b8" stroke="#d46a6a" stroke-width="1.2" d="M214.5,-426C214.5,-426 131,-426 131,-426 125,-426 119,-420 119,-414 119,-414 119,-402 119,-402 119,-396 125,-390 131,-390 131,-390 214.5,-390 214.5,-390 220.5,-390 226.5,-396 226.5,-402 226.5,-402 226.5,-414 226.5,-414 226.5,-420 220.5,-426 214.5,-426"/>
<text xml:space="preserve" text-anchor="middle" x="172.75" y="-404.5" font-family="Arial" font-size="10.00" fill="#8b0000">requires expertise for</text>
</g>
<!-- text.title&#45;&gt;rel_2 -->
<g id="edge11" class="edge">
<title>text.title&#45;&gt;rel_2</title>
<path fill="none" stroke="#d46a6a" stroke-width="1.5" d="M58.21,-433.91C72.56,-430.63 90.91,-426.44 108.65,-422.4"/>
<polygon fill="#d46a6a" stroke="#d46a6a" stroke-width="1.5" points="109.03,-425.18 116.21,-420.67 107.78,-419.72 109.03,-425.18"/>
</g>
<!-- furniture.legend -->
<g id="node6" class="node">
<title>furniture.legend</title>
<path fill="#b8e6b8" stroke="#2c3e50" stroke-width="1.8" d="M328.12,-426C328.12,-426 298.12,-426 298.12,-426 292.12,-426 286.12,-420 286.12,-414 286.12,-414 286.12,-402 286.12,-402 286.12,-396 292.12,-390 298.12,-390 298.12,-390 328.12,-390 328.12,-390 334.12,-390 340.12,-396 340.12,-402 340.12,-402 340.12,-414 340.12,-414 340.12,-420 334.12,-426 328.12,-426"/>
<text xml:space="preserve" text-anchor="middle" x="313.12" y="-404.5" font-family="Arial" font-size="10.00" fill="#1a1a1a">legend</text>
</g>
<!-- attr_5 -->
<g id="node12" class="node">
<title>attr_5</title>
<path fill="#c7b8e6" stroke="#7f8c8d" stroke-width="1.2" d="M502.75,-426C502.75,-426 399.75,-426 399.75,-426 393.75,-426 387.75,-420 387.75,-414 387.75,-414 387.75,-402 387.75,-402 387.75,-396 393.75,-390 399.75,-390 399.75,-390 502.75,-390 502.75,-390 508.75,-390 514.75,-396 514.75,-402 514.75,-402 514.75,-414 514.75,-414 514.75,-420 508.75,-426 502.75,-426"/>
<text xml:space="preserve" text-anchor="middle" x="451.25" y="-404.5" font-family="Arial" font-size="10.00" fill="#1a1a1a">(+) additional text context</text>
</g>
<!-- furniture.legend&#45;&gt;attr_5 -->
<g id="edge6" class="edge">
<title>furniture.legend&#45;&gt;attr_5</title>
<path fill="none" stroke="#aaaaaa" d="M341.02,-408C352.06,-408 365.4,-408 378.93,-408"/>
<polygon fill="#aaaaaa" stroke="#aaaaaa" points="378.84,-410.45 385.84,-408 378.84,-405.55 378.84,-410.45"/>
</g>
<!-- rel_0&#45;&gt;unknown.bars -->
<g id="edge8" class="edge">
<title>rel_0&#45;&gt;unknown.bars</title>
<path fill="none" stroke="#d46a6a" stroke-width="1.5" d="M233.64,-69.15C247.93,-65.85 262.76,-62.41 275.64,-59.44"/>
<polygon fill="#d46a6a" stroke="#d46a6a" stroke-width="1.5" points="276.12,-62.2 283.28,-57.67 274.85,-56.75 276.12,-62.2"/>
</g>
<!-- rel_1&#45;&gt;text.axis_label -->
<g id="edge10" class="edge">
<title>rel_1&#45;&gt;text.axis_label</title>
<path fill="none" stroke="#d46a6a" stroke-width="1.5" d="M207.25,-213C227.23,-213 252.68,-213 273.5,-213"/>
<polygon fill="#d46a6a" stroke="#d46a6a" stroke-width="1.5" points="273.34,-215.8 281.34,-213 273.34,-210.2 273.34,-215.8"/>
</g>
<!-- rel_2&#45;&gt;furniture.legend -->
<g id="edge12" class="edge">
<title>rel_2&#45;&gt;furniture.legend</title>
<path fill="none" stroke="#d46a6a" stroke-width="1.5" d="M226.85,-408C242.92,-408 260.22,-408 275,-408"/>
<polygon fill="#d46a6a" stroke="#d46a6a" stroke-width="1.5" points="275,-410.8 283,-408 275,-405.2 275,-410.8"/>
</g>
<!-- rel_3&#45;&gt;unknown.bars -->
<g id="edge14" class="edge">
<title>rel_3&#45;&gt;unknown.bars</title>
<path fill="none" stroke="#d46a6a" stroke-width="1.5" d="M201.09,-24.52C222.36,-29.59 252.08,-36.68 275.42,-42.25"/>
<polygon fill="#d46a6a" stroke="#d46a6a" stroke-width="1.5" points="274.67,-44.95 283.11,-44.08 275.97,-39.5 274.67,-44.95"/>
</g>
</g>
</svg>
