<?xml version="1.0" encoding="UTF-8" standalone="no"?>
<!DOCTYPE svg PUBLIC "-//W3C//DTD SVG 1.1//EN"
 "http://www.w3.org/Graphics/SVG/1.1/DTD/svg11.dtd">
<!-- Generated by graphviz version 14.1.5 (20260411.2331)
 -->
<!-- Title: visMost393.png Pages: 1 -->
<svg width="601pt" height="375pt"
 viewBox="0.00 0.00 601.00 375.00" xmlns="http://www.w3.org/2000/svg" xmlns:xlink="http://www.w3.org/1999/xlink">
<g id="graph0" class="graph" transform="scale(1 1) rotate(0) translate(4 371.25)">
<title>visMost393.png</title>
<polygon fill="white" stroke="none" points="-4,4 -4,-371.25 597,-371.25 597,4 -4,4"/>
<text xml:space="preserve" text-anchor="start" x="245.5" y="-346.95" font-family="Arial" font-weight="bold" font-size="14.00">visMost393.png</text>
<text xml:space="preserve" text-anchor="start" x="252.62" y="-327" font-family="Arial" font-size="11.00">Area &#160;| &#160;VC = 0.73</text>
<path fill="#b8e6b8" stroke="none" d="M87.12,-302C87.12,-302 95.12,-302 95.12,-302 98.12,-302 101.12,-305 101.12,-308 101.12,-308 101.12,-314 101.12,-314 101.12,-317 98.12,-320 95.12,-320 95.12,-320 87.12,-320 87.12,-320 84.12,-320 81.12,-317 81.12,-314 81.12,-314 81.12,-308 81.12,-308 81.12,-305 84.12,-302 87.12,-302"/>
<path fill="none" stroke="black" d="M87.12,-302C87.12,-302 95.12,-302 95.12,-302 98.12,-302 101.12,-305 101.12,-308 101.12,-308 101.12,-314 101.12,-314 101.12,-317 98.12,-320 95.12,-320 95.12,-320 87.12,-320 87.12,-320 84.12,-320 81.12,-317 81.12,-314 81.12,-314 81.12,-308 81.12,-308 81.12,-305 84.12,-302 87.12,-302"/>
<text xml:space="preserve" text-anchor="start" x="89.62" y="-307.25" font-family="Arial" font-size="10.00"> </text>
<text xml:space="preserve" text-anchor="start" x="105.12" y="-307.25" font-family="Arial" font-size="10.00">Object</text>
<path fill="#c7b8e6" stroke="none" d="M143.62,-302C143.62,-302 151.62,-302 151.62,-302 154.62,-302 157.62,-305 157.62,-308 157.62,-308 157.62,-314 157.62,-314 157.62,-317 154.62,-320 151.62,-320 151.62,-320 143.62,-320 143.62,-320 140.62,-320 137.62,-317 137.62,-314 137.62,-314 137.62,-308 137.62,-308 137.62,-305 140.62,-302 143.62,-302"/>
<path fill="none" stroke="black" d="M143.62,-302C143.62,-302 151.62,-302 151.62,-302 154.62,-302 157.62,-305 157.62,-308 157.62,-308 157.62,-314 157.62,-314 157.62,-317 154.62,-320 151.62,-320 151.62,-320 143.62,-320 143.62,-320 140.62,-320 137.62,-317 137.62,-314 137.62,-314 137.62,-308 137.62,-308 137.62,-305 140.62,-302 143.62,-302"/>
<text xml:space="preserve" text-anchor="start" x="146.12" y="-307.25" font-family="Arial" font-size="10.00"> </text>
<text xml:space="preserve" text-anchor="start" x="161.62" y="-307.25" font-family="Arial" font-size="10.00">Attribute</text>
<path fill="#f5b8b8" stroke="none" d="M208.38,-302C208.38,-302 216.38,-302 216.38,-302 219.38,-302 222.38,-305 222.38,-308 222.38,-308 222.38,-314 222.38,-314 222.38,-317 219.38,-320 216.38,-320 216.38,-320 208.38,-320 208.38,-320 205.38,-320 202.38,-317 202.38,-314 202.38,-314 202.38,-308 202.38,-308 202.38,-305 205.38,-302 208.38,-302"/>
<path fill="none" stroke="black" d="M208.38,-302C208.38,-302 216.38,-302 216.38,-302 219.38,-302 222.38,-305 222.38,-308 222.38,-308 222.38,-314 222.38,-314 222.38,-317 219.38,-320 216.38,-320 216.38,-320 208.38,-320 208.38,-320 205.38,-320 202.38,-317 202.38,-314 202.38,-314 202.38,-308 202.38,-308 202.38,-305 205.38,-302 208.38,-302"/>
<text xml:space="preserve" text-anchor="start" x="210.88" y="-307.25" font-family="Arial" font-size="10.00"> </text>
<text xml:space="preserve" text-anchor="start" x="226.38" y="-307.25" font-family="Arial" font-size="10.00">Relationship</text>
<text xml:space="preserve" text-anchor="start" x="286.38" y="-308.5" font-family="Arial" font-weight="bold" font-size="10.00">(+)</text>
<text xml:space="preserve" text-anchor="start" x="298.38" y="-308.5" font-family="Arial" font-size="10.00"> increases complexity</text>
<text xml:space="preserve" text-anchor="start" x="399.62" y="-308.5" font-family="Arial" font-weight="bold" font-size="10.00">(−)</text>
<text xml:space="preserve" text-anchor="start" x="411.62" y="-308.5" font-family="Arial" font-size="10.00"> decreases complexity</text>
<!-- unknown.area_chart -->
<g id="node1" class="node">
<title>unknown.area_chart</title>
<path fill="#b8e6b8" stroke="#2c3e50" stroke-width="1.8" d="M319.25,-101C319.25,-101 283.75,-101 283.75,-101 277.75,-101 271.75,-95 271.75,-89 271.75,-89 271.75,-77 271.75,-77 271.75,-71 277.75,-65 283.75,-65 283.75,-65 319.25,-65 319.25,-65 325.25,-65 331.25,-71 331.25,-77 331.25,-77 331.25,-89 331.25,-89 331.25,-95 325.25,-101 319.25,-101"/>
<text xml:space="preserve" text-anchor="middle" x="301.5" y="-79.5" font-family="Arial" font-size="10.00" fill="#1a1a1a">area chart</text>
</g>
<!-- attr_0 -->
<g id="node6" class="node">
<title>attr_0</title>
<path fill="#c7b8e6" stroke="#7f8c8d" stroke-width="1.2" d="M484,-166C484,-166 386.25,-166 386.25,-166 380.25,-166 374.25,-160 374.25,-154 374.25,-154 374.25,-142 374.25,-142 374.25,-136 380.25,-130 386.25,-130 386.25,-130 484,-130 484,-130 490,-130 496,-136 496,-142 496,-142 496,-154 496,-154 496,-160 490,-166 484,-166"/>
<text xml:space="preserve" text-anchor="middle" x="435.12" y="-144.5" font-family="Arial" font-size="10.00" fill="#1a1a1a">(−) simple to understand</text>
</g>
<!-- unknown.area_chart&#45;&gt;attr_0 -->
<g id="edge1" class="edge">
<title>unknown.area_chart&#45;&gt;attr_0</title>
<path fill="none" stroke="#aaaaaa" d="M332.04,-97.59C348.83,-105.88 370.19,-116.43 389.04,-125.73"/>
<polygon fill="#aaaaaa" stroke="#aaaaaa" points="387.94,-127.93 395.31,-128.83 390.11,-123.53 387.94,-127.93"/>
</g>
<!-- attr_1 -->
<g id="node7" class="node">
<title>attr_1</title>
<path fill="#c7b8e6" stroke="#7f8c8d" stroke-width="1.2" d="M484,-101C484,-101 386.25,-101 386.25,-101 380.25,-101 374.25,-95 374.25,-89 374.25,-89 374.25,-77 374.25,-77 374.25,-71 380.25,-65 386.25,-65 386.25,-65 484,-65 484,-65 490,-65 496,-71 496,-77 496,-77 496,-89 496,-89 496,-95 490,-101 484,-101"/>
<text xml:space="preserve" text-anchor="middle" x="435.12" y="-79.5" font-family="Arial" font-size="10.00" fill="#1a1a1a">(−) clear visual structure</text>
</g>
<!-- unknown.area_chart&#45;&gt;attr_1 -->
<g id="edge2" class="edge">
<title>unknown.area_chart&#45;&gt;attr_1</title>
<path fill="none" stroke="#aaaaaa" d="M332.04,-83C341.98,-83 353.53,-83 365.21,-83"/>
<polygon fill="#aaaaaa" stroke="#aaaaaa" points="365.2,-85.45 372.2,-83 365.2,-80.55 365.2,-85.45"/>
</g>
<!-- rel_2 -->
<g id="node13" class="node">
<title>rel_2</title>
<path fill="#f5b8b8" stroke="#d46a6a" stroke-width="1.2" d="M476.88,-36C476.88,-36 393.38,-36 393.38,-36 387.38,-36 381.38,-30 381.38,-24 381.38,-24 381.38,-12 381.38,-12 381.38,-6 387.38,0 393.38,0 393.38,0 476.88,0 476.88,0 482.88,0 488.88,-6 488.88,-12 488.88,-12 488.88,-24 488.88,-24 488.88,-30 482.88,-36 476.88,-36"/>
<text xml:space="preserve" text-anchor="middle" x="435.12" y="-14.5" font-family="Arial" font-size="10.00" fill="#8b0000">requires low effort for</text>
</g>
<!-- unknown.area_chart&#45;&gt;rel_2 -->
<g id="edge10" class="edge">
<title>unknown.area_chart&#45;&gt;rel_2</title>
<path fill="none" stroke="#d46a6a" stroke-width="1.5" d="M332.04,-68.41C348.38,-60.34 369.06,-50.13 387.52,-41.01"/>
<polygon fill="#d46a6a" stroke="#d46a6a" stroke-width="1.5" points="388.69,-43.56 394.63,-37.51 386.21,-38.54 388.69,-43.56"/>
</g>
<!-- text.axis_label -->
<g id="node2" class="node">
<title>text.axis_label</title>
<path fill="#b8e6b8" stroke="#2c3e50" stroke-width="1.8" d="M45.25,-68C45.25,-68 12,-68 12,-68 6,-68 0,-62 0,-56 0,-56 0,-44 0,-44 0,-38 6,-32 12,-32 12,-32 45.25,-32 45.25,-32 51.25,-32 57.25,-38 57.25,-44 57.25,-44 57.25,-56 57.25,-56 57.25,-62 51.25,-68 45.25,-68"/>
<text xml:space="preserve" text-anchor="middle" x="28.62" y="-46.5" font-family="Arial" font-size="10.00" fill="#1a1a1a">axis label</text>
</g>
<!-- attr_2 -->
<g id="node8" class="node">
<title>attr_2</title>
<path fill="#c7b8e6" stroke="#7f8c8d" stroke-width="1.2" d="M200.62,-101C200.62,-101 128.38,-101 128.38,-101 122.38,-101 116.38,-95 116.38,-89 116.38,-89 116.38,-77 116.38,-77 116.38,-71 122.38,-65 128.38,-65 128.38,-65 200.62,-65 200.62,-65 206.62,-65 212.62,-71 212.62,-77 212.62,-77 212.62,-89 212.62,-89 212.62,-95 206.62,-101 200.62,-101"/>
<text xml:space="preserve" text-anchor="middle" x="164.5" y="-79.5" font-family="Arial" font-size="10.00" fill="#1a1a1a">(−) readable labels</text>
</g>
<!-- text.axis_label&#45;&gt;attr_2 -->
<g id="edge3" class="edge">
<title>text.axis_label&#45;&gt;attr_2</title>
<path fill="none" stroke="#aaaaaa" d="M58.02,-57C72.59,-60.59 90.87,-65.1 108.09,-69.34"/>
<polygon fill="#aaaaaa" stroke="#aaaaaa" points="107.07,-71.61 114.45,-70.91 108.24,-66.85 107.07,-71.61"/>
</g>
<!-- rel_1 -->
<g id="node12" class="node">
<title>rel_1</title>
<path fill="#f5b8b8" stroke="#d46a6a" stroke-width="1.2" d="M202.12,-36C202.12,-36 126.88,-36 126.88,-36 120.88,-36 114.88,-30 114.88,-24 114.88,-24 114.88,-12 114.88,-12 114.88,-6 120.88,0 126.88,0 126.88,0 202.12,0 202.12,0 208.12,0 214.12,-6 214.12,-12 214.12,-12 214.12,-24 214.12,-24 214.12,-30 208.12,-36 202.12,-36"/>
<text xml:space="preserve" text-anchor="middle" x="164.5" y="-14.5" font-family="Arial" font-size="10.00" fill="#8b0000">supports reading of</text>
</g>
<!-- text.axis_label&#45;&gt;rel_1 -->
<g id="edge8" class="edge">
<title>text.axis_label&#45;&gt;rel_1</title>
<path fill="none" stroke="#d46a6a" stroke-width="1.5" d="M58.02,-43.21C71.56,-39.98 88.28,-35.98 104.4,-32.13"/>
<polygon fill="#d46a6a" stroke="#d46a6a" stroke-width="1.5" points="104.98,-34.87 112.11,-30.28 103.68,-29.42 104.98,-34.87"/>
</g>
<!-- furniture.legend -->
<g id="node3" class="node">
<title>furniture.legend</title>
<path fill="#b8e6b8" stroke="#2c3e50" stroke-width="1.8" d="M43.62,-296C43.62,-296 13.62,-296 13.62,-296 7.62,-296 1.62,-290 1.62,-284 1.62,-284 1.62,-272 1.62,-272 1.62,-266 7.62,-260 13.62,-260 13.62,-260 43.62,-260 43.62,-260 49.62,-260 55.62,-266 55.62,-272 55.62,-272 55.62,-284 55.62,-284 55.62,-290 49.62,-296 43.62,-296"/>
<text xml:space="preserve" text-anchor="middle" x="28.62" y="-274.5" font-family="Arial" font-size="10.00" fill="#1a1a1a">legend</text>
</g>
<!-- attr_4 -->
<g id="node9" class="node">
<title>attr_4</title>
<path fill="#c7b8e6" stroke="#7f8c8d" stroke-width="1.2" d="M216.75,-296C216.75,-296 112.25,-296 112.25,-296 106.25,-296 100.25,-290 100.25,-284 100.25,-284 100.25,-272 100.25,-272 100.25,-266 106.25,-260 112.25,-260 112.25,-260 216.75,-260 216.75,-260 222.75,-260 228.75,-266 228.75,-272 228.75,-272 228.75,-284 228.75,-284 228.75,-290 222.75,-296 216.75,-296"/>
<text xml:space="preserve" text-anchor="middle" x="164.5" y="-274.5" font-family="Arial" font-size="10.00" fill="#1a1a1a">(−) minimal legend entries</text>
</g>
<!-- furniture.legend&#45;&gt;attr_4 -->
<g id="edge4" class="edge">
<title>furniture.legend&#45;&gt;attr_4</title>
<path fill="none" stroke="#aaaaaa" d="M56.39,-278C66.66,-278 78.93,-278 91.43,-278"/>
<polygon fill="#aaaaaa" stroke="#aaaaaa" points="91.15,-280.45 98.15,-278 91.15,-275.55 91.15,-280.45"/>
</g>
<!-- property.color -->
<g id="node4" class="node">
<title>property.color</title>
<path fill="#b8e6b8" stroke="#2c3e50" stroke-width="1.8" d="M43.62,-198C43.62,-198 13.62,-198 13.62,-198 7.62,-198 1.62,-192 1.62,-186 1.62,-186 1.62,-174 1.62,-174 1.62,-168 7.62,-162 13.62,-162 13.62,-162 43.62,-162 43.62,-162 49.62,-162 55.62,-168 55.62,-174 55.62,-174 55.62,-186 55.62,-186 55.62,-192 49.62,-198 43.62,-198"/>
<text xml:space="preserve" text-anchor="middle" x="28.62" y="-176.5" font-family="Arial" font-size="10.00" fill="#1a1a1a">color</text>
</g>
<!-- attr_3 -->
<g id="node10" class="node">
<title>attr_3</title>
<path fill="#c7b8e6" stroke="#7f8c8d" stroke-width="1.2" d="M214.88,-231C214.88,-231 114.12,-231 114.12,-231 108.12,-231 102.12,-225 102.12,-219 102.12,-219 102.12,-207 102.12,-207 102.12,-201 108.12,-195 114.12,-195 114.12,-195 214.88,-195 214.88,-195 220.88,-195 226.88,-201 226.88,-207 226.88,-207 226.88,-219 226.88,-219 226.88,-225 220.88,-231 214.88,-231"/>
<text xml:space="preserve" text-anchor="middle" x="164.5" y="-209.5" font-family="Arial" font-size="10.00" fill="#1a1a1a">(−) distinguishable colors</text>
</g>
<!-- property.color&#45;&gt;attr_3 -->
<g id="edge5" class="edge">
<title>property.color&#45;&gt;attr_3</title>
<path fill="none" stroke="#aaaaaa" d="M56.39,-186.6C67.2,-189.26 80.22,-192.47 93.41,-195.72"/>
<polygon fill="#aaaaaa" stroke="#aaaaaa" points="92.77,-198.09 100.15,-197.38 93.94,-193.33 92.77,-198.09"/>
</g>
<!-- rel_0 -->
<g id="node11" class="node">
<title>rel_0</title>
<path fill="#f5b8b8" stroke="#d46a6a" stroke-width="1.2" d="M196.12,-166C196.12,-166 132.88,-166 132.88,-166 126.88,-166 120.88,-160 120.88,-154 120.88,-154 120.88,-142 120.88,-142 120.88,-136 126.88,-130 132.88,-130 132.88,-130 196.12,-130 196.12,-130 202.12,-130 208.12,-136 208.12,-142 208.12,-142 208.12,-154 208.12,-154 208.12,-160 202.12,-166 196.12,-166"/>
<text xml:space="preserve" text-anchor="middle" x="164.5" y="-144.5" font-family="Arial" font-size="10.00" fill="#8b0000">aids decoding of</text>
</g>
<!-- property.color&#45;&gt;rel_0 -->
<g id="edge6" class="edge">
<title>property.color&#45;&gt;rel_0</title>
<path fill="none" stroke="#d46a6a" stroke-width="1.5" d="M56.39,-173.6C71.92,-169.89 92.01,-165.09 110.6,-160.64"/>
<polygon fill="#d46a6a" stroke="#d46a6a" stroke-width="1.5" points="111.1,-163.4 118.23,-158.82 109.8,-157.96 111.1,-163.4"/>
</g>
<!-- text.title -->
<g id="node5" class="node">
<title>text.title</title>
<path fill="#b8e6b8" stroke="#2c3e50" stroke-width="1.8" d="M581,-36C581,-36 551,-36 551,-36 545,-36 539,-30 539,-24 539,-24 539,-12 539,-12 539,-6 545,0 551,0 551,0 581,0 581,0 587,0 593,-6 593,-12 593,-12 593,-24 593,-24 593,-30 587,-36 581,-36"/>
<text xml:space="preserve" text-anchor="middle" x="566" y="-14.5" font-family="Arial" font-size="10.00" fill="#1a1a1a">title</text>
</g>
<!-- rel_0&#45;&gt;unknown.area_chart -->
<g id="edge7" class="edge">
<title>rel_0&#45;&gt;unknown.area_chart</title>
<path fill="none" stroke="#d46a6a" stroke-width="1.5" d="M203.82,-129.55C222.01,-120.79 243.7,-110.35 261.92,-101.57"/>
<polygon fill="#d46a6a" stroke="#d46a6a" stroke-width="1.5" points="263.06,-104.13 269.05,-98.14 260.63,-99.09 263.06,-104.13"/>
</g>
<!-- rel_1&#45;&gt;unknown.area_chart -->
<g id="edge9" class="edge">
<title>rel_1&#45;&gt;unknown.area_chart</title>
<path fill="none" stroke="#d46a6a" stroke-width="1.5" d="M203.82,-36.45C222.01,-45.21 243.7,-55.65 261.92,-64.43"/>
<polygon fill="#d46a6a" stroke="#d46a6a" stroke-width="1.5" points="260.63,-66.91 269.05,-67.86 263.06,-61.87 260.63,-66.91"/>
</g>
<!-- rel_2&#45;&gt;text.title -->
<g id="edge11" class="edge">
<title>rel_2&#45;&gt;text.title</title>
<path fill="none" stroke="#d46a6a" stroke-width="1.5" d="M489.29,-18C502.37,-18 516.1,-18 528.21,-18"/>
<polygon fill="#d46a6a" stroke="#d46a6a" stroke-width="1.5" points="528.12,-20.8 536.12,-18 528.12,-15.2 528.12,-20.8"/>
</g>
</g>
</svg>
