<?xml version="1.0" encoding="UTF-8" standalone="no"?>
<!DOCTYPE svg PUBLIC "-//W3C//DTD SVG 1.1//EN"
 "http://www.w3.org/Graphics/SVG/1.1/DTD/svg11.dtd">
<!-- Generated by graphviz version 14.1.5 (20260411.2331)
 -->
<!-- Title: visMost460.png Pages: 1 -->
<svg width="915pt" height="310pt"
 viewBox="0.00 0.00 915.00 310.00" xmlns="http://www.w3.org/2000/svg" xmlns:xlink="http://www.w3.org/1999/xlink">
<g id="graph0" class="graph" transform="scale(1 1) rotate(0) translate(4 306.25)">
<title>visMost460.png</title>
<polygon fill="white" stroke="none" points="-4,4 -4,-306.25 910.5,-306.25 910.5,4 -4,4"/>
<text xml:space="preserve" text-anchor="start" x="402.25" y="-281.95" font-family="Arial" font-weight="bold" font-size="14.00">visMost460.png</text>
<text xml:space="preserve" text-anchor="start" x="408.62" y="-262" font-family="Arial" font-size="11.00">Point &#160;| &#160;VC = 0.57</text>
<path fill="#b8e6b8" stroke="none" d="M243.88,-237C243.88,-237 251.88,-237 251.88,-237 254.88,-237 257.88,-240 257.88,-243 257.88,-243 257.88,-249 257.88,-249 257.88,-252 254.88,-255 251.88,-255 251.88,-255 243.88,-255 243.88,-255 240.88,-255 237.88,-252 237.88,-249 237.88,-249 237.88,-243 237.88,-243 237.88,-240 240.88,-237 243.88,-237"/>
<path fill="none" stroke="black" d="M243.88,-237C243.88,-237 251.88,-237 251.88,-237 254.88,-237 257.88,-240 257.88,-243 257.88,-243 257.88,-249 257.88,-249 257.88,-252 254.88,-255 251.88,-255 251.88,-255 243.88,-255 243.88,-255 240.88,-255 237.88,-252 237.88,-249 237.88,-249 237.88,-243 237.88,-243 237.88,-240 240.88,-237 243.88,-237"/>
<text xml:space="preserve" text-anchor="start" x="246.38" y="-242.25" font-family="Arial" font-size="10.00"> </text>
<text xml:space="preserve" text-anchor="start" x="261.88" y="-242.25" font-family="Arial" font-size="10.00">Object</text>
<path fill="#c7b8e6" stroke="none" d="M300.38,-237C300.38,-237 308.38,-237 308.38,-237 311.38,-237 314.38,-240 314.38,-243 314.38,-243 314.38,-249 314.38,-249 314.38,-252 311.38,-255 308.38,-255 308.38,-255 300.38,-255 300.38,-255 297.38,-255 294.38,-252 294.38,-249 294.38,-249 294.38,-243 294.38,-243 294.38,-240 297.38,-237 300.38,-237"/>
<path fill="none" stroke="black" d="M300.38,-237C300.38,-237 308.38,-237 308.38,-237 311.38,-237 314.38,-240 314.38,-243 314.38,-243 314.38,-249 314.38,-249 314.38,-252 311.38,-255 308.38,-255 308.38,-255 300.38,-255 300.38,-255 297.38,-255 294.38,-252 294.38,-249 294.38,-249 294.38,-243 294.38,-243 294.38,-240 297.38,-237 300.38,-237"/>
<text xml:space="preserve" text-anchor="start" x="302.88" y="-242.25" font-family="Arial" font-size="10.00"> </text>
<text xml:space="preserve" text-anchor="start" x="318.38" y="-242.25" font-family="Arial" font-size="10.00">Attribute</text>
<path fill="#f5b8b8" stroke="none" d="M365.12,-237C365.12,-237 373.12,-237 373.12,-237 376.12,-237 379.12,-240 379.12,-243 379.12,-243 379.12,-249 379.12,-249 379.12,-252 376.12,-255 373.12,-255 373.12,-255 365.12,-255 365.12,-255 362.12,-255 359.12,-252 359.12,-249 359.12,-249 359.12,-243 359.12,-243 359.12,-240 362.12,-237 365.12,-237"/>
<path fill="none" stroke="black" d="M365.12,-237C365.12,-237 373.12,-237 373.12,-237 376.12,-237 379.12,-240 379.12,-243 379.12,-243 379.12,-249 379.12,-249 379.12,-252 376.12,-255 373.12,-255 373.12,-255 365.12,-255 365.12,-255 362.12,-255 359.12,-252 359.12,-249 359.12,-249 359.12,-243 359.12,-243 359.12,-240 362.12,-237 365.12,-237"/>
<text xml:space="preserve" text-anchor="start" x="367.62" y="-242.25" font-family="Arial" font-size="10.00"> </text>
<text xml:space="preserve" text-anchor="start" x="383.12" y="-242.25" font-family="Arial" font-size="10.00">Relationship</text>
<text xml:space="preserve" text-anchor="start" x="443.12" y="-243.5" font-family="Arial" font-weight="bold" font-size="10.00">(+)</text>
<text xml:space="preserve" text-anchor="start" x="455.12" y="-243.5" font-family="Arial" font-size="10.00"> increases complexity</text>
<text xml:space="preserve" text-anchor="start" x="556.38" y="-243.5" font-family="Arial" font-weight="bold" font-size="10.00">(−)</text>
<text xml:space="preserve" text-anchor="start" x="568.38" y="-243.5" font-family="Arial" font-size="10.00"> decreases complexity</text>
<!-- unknown.data_points -->
<g id="node1" class="node">
<title>unknown.data_points</title>
<path fill="#b8e6b8" stroke="#2c3e50" stroke-width="1.8" d="M62.12,-69C62.12,-69 22.12,-69 22.12,-69 16.12,-69 10.12,-63 10.12,-57 10.12,-57 10.12,-45 10.12,-45 10.12,-39 16.12,-33 22.12,-33 22.12,-33 62.12,-33 62.12,-33 68.12,-33 74.12,-39 74.12,-45 74.12,-45 74.12,-57 74.12,-57 74.12,-63 68.12,-69 62.12,-69"/>
<text xml:space="preserve" text-anchor="middle" x="42.12" y="-47.5" font-family="Arial" font-size="10.00" fill="#1a1a1a">data points</text>
</g>
<!-- attr_0 -->
<g id="node6" class="node">
<title>attr_0</title>
<path fill="#c7b8e6" stroke="#7f8c8d" stroke-width="1.2" d="M246.38,-101C246.38,-101 150.88,-101 150.88,-101 144.88,-101 138.88,-95 138.88,-89 138.88,-89 138.88,-77 138.88,-77 138.88,-71 144.88,-65 150.88,-65 150.88,-65 246.38,-65 246.38,-65 252.38,-65 258.38,-71 258.38,-77 258.38,-77 258.38,-89 258.38,-89 258.38,-95 252.38,-101 246.38,-101"/>
<text xml:space="preserve" text-anchor="middle" x="198.62" y="-79.5" font-family="Arial" font-size="10.00" fill="#1a1a1a">(+) many points present</text>
</g>
<!-- unknown.data_points&#45;&gt;attr_0 -->
<g id="edge1" class="edge">
<title>unknown.data_points&#45;&gt;attr_0</title>
<path fill="none" stroke="#aaaaaa" d="M74.76,-57.55C90.83,-60.88 111,-65.06 130.32,-69.06"/>
<polygon fill="#aaaaaa" stroke="#aaaaaa" points="129.71,-71.43 137.06,-70.46 130.7,-66.64 129.71,-71.43"/>
</g>
<!-- rel_3 -->
<g id="node14" class="node">
<title>rel_3</title>
<path fill="#f5b8b8" stroke="#d46a6a" stroke-width="1.2" d="M220.88,-36C220.88,-36 176.38,-36 176.38,-36 170.38,-36 164.38,-30 164.38,-24 164.38,-24 164.38,-12 164.38,-12 164.38,-6 170.38,0 176.38,0 176.38,0 220.88,0 220.88,0 226.88,0 232.88,-6 232.88,-12 232.88,-12 232.88,-24 232.88,-24 232.88,-30 226.88,-36 220.88,-36"/>
<text xml:space="preserve" text-anchor="middle" x="198.62" y="-14.5" font-family="Arial" font-size="10.00" fill="#8b0000">overwhelms</text>
</g>
<!-- unknown.data_points&#45;&gt;rel_3 -->
<g id="edge12" class="edge">
<title>unknown.data_points&#45;&gt;rel_3</title>
<path fill="none" stroke="#d46a6a" stroke-width="1.5" d="M74.76,-44.24C97.58,-39.37 128.66,-32.73 153.85,-27.35"/>
<polygon fill="#d46a6a" stroke="#d46a6a" stroke-width="1.5" points="154.43,-30.09 161.67,-25.68 153.26,-24.61 154.43,-30.09"/>
</g>
<!-- whole.visualization -->
<g id="node2" class="node">
<title>whole.visualization</title>
<path fill="#b8e6b8" stroke="#2c3e50" stroke-width="1.8" d="M371.62,-36C371.62,-36 341.62,-36 341.62,-36 335.62,-36 329.62,-30 329.62,-24 329.62,-24 329.62,-12 329.62,-12 329.62,-6 335.62,0 341.62,0 341.62,0 371.62,0 371.62,0 377.62,0 383.62,-6 383.62,-12 383.62,-12 383.62,-24 383.62,-24 383.62,-30 377.62,-36 371.62,-36"/>
<text xml:space="preserve" text-anchor="middle" x="356.62" y="-14.5" font-family="Arial" font-size="10.00" fill="#1a1a1a">chart</text>
</g>
<!-- attr_3 -->
<g id="node7" class="node">
<title>attr_3</title>
<path fill="#c7b8e6" stroke="#7f8c8d" stroke-width="1.2" d="M562.75,-36C562.75,-36 458.25,-36 458.25,-36 452.25,-36 446.25,-30 446.25,-24 446.25,-24 446.25,-12 446.25,-12 446.25,-6 452.25,0 458.25,0 458.25,0 562.75,0 562.75,0 568.75,0 574.75,-6 574.75,-12 574.75,-12 574.75,-24 574.75,-24 574.75,-30 568.75,-36 562.75,-36"/>
<text xml:space="preserve" text-anchor="middle" x="510.5" y="-14.5" font-family="Arial" font-size="10.00" fill="#1a1a1a">(+) high cognitive tracking</text>
</g>
<!-- whole.visualization&#45;&gt;attr_3 -->
<g id="edge2" class="edge">
<title>whole.visualization&#45;&gt;attr_3</title>
<path fill="none" stroke="#aaaaaa" d="M384.43,-18C399.26,-18 418.48,-18 437.39,-18"/>
<polygon fill="#aaaaaa" stroke="#aaaaaa" points="437.23,-20.45 444.23,-18 437.23,-15.55 437.23,-20.45"/>
</g>
<!-- unknown.visual_elements -->
<g id="node3" class="node">
<title>unknown.visual_elements</title>
<path fill="#b8e6b8" stroke="#2c3e50" stroke-width="1.8" d="M72.25,-198C72.25,-198 12,-198 12,-198 6,-198 0,-192 0,-186 0,-186 0,-174 0,-174 0,-168 6,-162 12,-162 12,-162 72.25,-162 72.25,-162 78.25,-162 84.25,-168 84.25,-174 84.25,-174 84.25,-186 84.25,-186 84.25,-192 78.25,-198 72.25,-198"/>
<text xml:space="preserve" text-anchor="middle" x="42.12" y="-176.5" font-family="Arial" font-size="10.00" fill="#1a1a1a">visual elements</text>
</g>
<!-- attr_2 -->
<g id="node8" class="node">
<title>attr_2</title>
<path fill="#c7b8e6" stroke="#7f8c8d" stroke-width="1.2" d="M258,-231C258,-231 139.25,-231 139.25,-231 133.25,-231 127.25,-225 127.25,-219 127.25,-219 127.25,-207 127.25,-207 127.25,-201 133.25,-195 139.25,-195 139.25,-195 258,-195 258,-195 264,-195 270,-201 270,-207 270,-207 270,-219 270,-219 270,-225 264,-231 258,-231"/>
<text xml:space="preserve" text-anchor="middle" x="198.62" y="-209.5" font-family="Arial" font-size="10.00" fill="#1a1a1a">(+) multiple elements present</text>
</g>
<!-- unknown.visual_elements&#45;&gt;attr_2 -->
<g id="edge3" class="edge">
<title>unknown.visual_elements&#45;&gt;attr_2</title>
<path fill="none" stroke="#aaaaaa" d="M84.93,-188.93C95.46,-191.18 107.11,-193.67 118.81,-196.17"/>
<polygon fill="#aaaaaa" stroke="#aaaaaa" points="118.07,-198.51 125.42,-197.58 119.09,-193.72 118.07,-198.51"/>
</g>
<!-- rel_1 -->
<g id="node12" class="node">
<title>rel_1</title>
<path fill="#f5b8b8" stroke="#d46a6a" stroke-width="1.2" d="M252.38,-166C252.38,-166 144.88,-166 144.88,-166 138.88,-166 132.88,-160 132.88,-154 132.88,-154 132.88,-142 132.88,-142 132.88,-136 138.88,-130 144.88,-130 144.88,-130 252.38,-130 252.38,-130 258.38,-130 264.38,-136 264.38,-142 264.38,-142 264.38,-154 264.38,-154 264.38,-160 258.38,-166 252.38,-166"/>
<text xml:space="preserve" text-anchor="middle" x="198.62" y="-144.5" font-family="Arial" font-size="10.00" fill="#8b0000">increases cognitive load in</text>
</g>
<!-- unknown.visual_elements&#45;&gt;rel_1 -->
<g id="edge8" class="edge">
<title>unknown.visual_elements&#45;&gt;rel_1</title>
<path fill="none" stroke="#d46a6a" stroke-width="1.5" d="M84.93,-171.34C96.61,-168.92 109.67,-166.22 122.65,-163.53"/>
<polygon fill="#d46a6a" stroke="#d46a6a" stroke-width="1.5" points="123.04,-166.31 130.3,-161.94 121.9,-160.82 123.04,-166.31"/>
</g>
<!-- unknown.highlighted_chart -->
<g id="node4" class="node">
<title>unknown.highlighted_chart</title>
<path fill="#b8e6b8" stroke="#2c3e50" stroke-width="1.8" d="M388.25,-166C388.25,-166 325,-166 325,-166 319,-166 313,-160 313,-154 313,-154 313,-142 313,-142 313,-136 319,-130 325,-130 325,-130 388.25,-130 388.25,-130 394.25,-130 400.25,-136 400.25,-142 400.25,-142 400.25,-154 400.25,-154 400.25,-160 394.25,-166 388.25,-166"/>
<text xml:space="preserve" text-anchor="middle" x="356.62" y="-144.5" font-family="Arial" font-size="10.00" fill="#1a1a1a">highlighted chart</text>
</g>
<!-- attr_1 -->
<g id="node9" class="node">
<title>attr_1</title>
<path fill="#c7b8e6" stroke="#7f8c8d" stroke-width="1.2" d="M561.62,-231C561.62,-231 459.38,-231 459.38,-231 453.38,-231 447.38,-225 447.38,-219 447.38,-219 447.38,-207 447.38,-207 447.38,-201 453.38,-195 459.38,-195 459.38,-195 561.62,-195 561.62,-195 567.62,-195 573.62,-201 573.62,-207 573.62,-207 573.62,-219 573.62,-219 573.62,-225 567.62,-231 561.62,-231"/>
<text xml:space="preserve" text-anchor="middle" x="510.5" y="-209.5" font-family="Arial" font-size="10.00" fill="#1a1a1a">(+) more aspects to track</text>
</g>
<!-- unknown.highlighted_chart&#45;&gt;attr_1 -->
<g id="edge4" class="edge">
<title>unknown.highlighted_chart&#45;&gt;attr_1</title>
<path fill="none" stroke="#aaaaaa" d="M401.15,-166.63C419.02,-174.27 439.84,-183.18 458.42,-191.14"/>
<polygon fill="#aaaaaa" stroke="#aaaaaa" points="457.44,-193.39 464.84,-193.89 459.37,-188.88 457.44,-193.39"/>
</g>
<!-- rel_0 -->
<g id="node11" class="node">
<title>rel_0</title>
<path fill="#f5b8b8" stroke="#d46a6a" stroke-width="1.2" d="M565.75,-166C565.75,-166 455.25,-166 455.25,-166 449.25,-166 443.25,-160 443.25,-154 443.25,-154 443.25,-142 443.25,-142 443.25,-136 449.25,-130 455.25,-130 455.25,-130 565.75,-130 565.75,-130 571.75,-130 577.75,-136 577.75,-142 577.75,-142 577.75,-154 577.75,-154 577.75,-160 571.75,-166 565.75,-166"/>
<text xml:space="preserve" text-anchor="middle" x="510.5" y="-144.5" font-family="Arial" font-size="10.00" fill="#8b0000">requires more tracking than</text>
</g>
<!-- unknown.highlighted_chart&#45;&gt;rel_0 -->
<g id="edge6" class="edge">
<title>unknown.highlighted_chart&#45;&gt;rel_0</title>
<path fill="none" stroke="#d46a6a" stroke-width="1.5" d="M401.15,-148C411.08,-148 421.92,-148 432.79,-148"/>
<polygon fill="#d46a6a" stroke="#d46a6a" stroke-width="1.5" points="432.47,-150.8 440.47,-148 432.47,-145.2 432.47,-150.8"/>
</g>
<!-- unknown.comparison_chart -->
<g id="node5" class="node">
<title>unknown.comparison_chart</title>
<path fill="#b8e6b8" stroke="#2c3e50" stroke-width="1.8" d="M699.75,-166C699.75,-166 632.75,-166 632.75,-166 626.75,-166 620.75,-160 620.75,-154 620.75,-154 620.75,-142 620.75,-142 620.75,-136 626.75,-130 632.75,-130 632.75,-130 699.75,-130 699.75,-130 705.75,-130 711.75,-136 711.75,-142 711.75,-142 711.75,-154 711.75,-154 711.75,-160 705.75,-166 699.75,-166"/>
<text xml:space="preserve" text-anchor="middle" x="666.25" y="-144.5" font-family="Arial" font-size="10.00" fill="#1a1a1a">comparison chart</text>
</g>
<!-- attr_4 -->
<g id="node10" class="node">
<title>attr_4</title>
<path fill="#c7b8e6" stroke="#7f8c8d" stroke-width="1.2" d="M894.5,-169C894.5,-169 766.75,-169 766.75,-169 760.75,-169 754.75,-163 754.75,-157 754.75,-157 754.75,-145 754.75,-145 754.75,-139 760.75,-133 766.75,-133 766.75,-133 894.5,-133 894.5,-133 900.5,-133 906.5,-139 906.5,-145 906.5,-145 906.5,-157 906.5,-157 906.5,-163 900.5,-169 894.5,-169"/>
<text xml:space="preserve" text-anchor="middle" x="830.62" y="-147.5" font-family="Arial" font-size="10.00" fill="#1a1a1a">(+) additional complexity layers</text>
</g>
<!-- unknown.comparison_chart&#45;&gt;attr_4 -->
<g id="edge5" class="edge">
<title>unknown.comparison_chart&#45;&gt;attr_4</title>
<path fill="none" stroke="#aaaaaa" d="M712.48,-148.84C722.9,-149.03 734.31,-149.24 745.79,-149.45"/>
<polygon fill="#aaaaaa" stroke="#aaaaaa" points="745.6,-151.9 752.64,-149.58 745.69,-147 745.6,-151.9"/>
</g>
<!-- rel_2 -->
<g id="node13" class="node">
<title>rel_2</title>
<path fill="#f5b8b8" stroke="#d46a6a" stroke-width="1.2" d="M889.62,-104C889.62,-104 771.62,-104 771.62,-104 765.62,-104 759.62,-98 759.62,-92 759.62,-92 759.62,-80 759.62,-80 759.62,-74 765.62,-68 771.62,-68 771.62,-68 889.62,-68 889.62,-68 895.62,-68 901.62,-74 901.62,-80 901.62,-80 901.62,-92 901.62,-92 901.62,-98 895.62,-104 889.62,-104"/>
<text xml:space="preserve" text-anchor="middle" x="830.62" y="-82.5" font-family="Arial" font-size="10.00" fill="#8b0000">contains more elements than</text>
</g>
<!-- unknown.comparison_chart&#45;&gt;rel_2 -->
<g id="edge10" class="edge">
<title>unknown.comparison_chart&#45;&gt;rel_2</title>
<path fill="none" stroke="#d46a6a" stroke-width="1.5" d="M712.48,-130.73C730.79,-123.74 752.15,-115.58 771.58,-108.16"/>
<polygon fill="#d46a6a" stroke="#d46a6a" stroke-width="1.5" points="772.35,-110.87 778.82,-105.4 770.35,-105.64 772.35,-110.87"/>
</g>
<!-- rel_0&#45;&gt;unknown.comparison_chart -->
<g id="edge7" class="edge">
<title>rel_0&#45;&gt;unknown.comparison_chart</title>
<path fill="none" stroke="#d46a6a" stroke-width="1.5" d="M578.04,-148C588.63,-148 599.49,-148 609.79,-148"/>
<polygon fill="#d46a6a" stroke="#d46a6a" stroke-width="1.5" points="609.61,-150.8 617.61,-148 609.6,-145.2 609.61,-150.8"/>
</g>
<!-- rel_1&#45;&gt;unknown.highlighted_chart -->
<g id="edge9" class="edge">
<title>rel_1&#45;&gt;unknown.highlighted_chart</title>
<path fill="none" stroke="#d46a6a" stroke-width="1.5" d="M264.88,-148C277.4,-148 290.38,-148 302.46,-148"/>
<polygon fill="#d46a6a" stroke="#d46a6a" stroke-width="1.5" points="302.11,-150.8 310.11,-148 302.11,-145.2 302.11,-150.8"/>
</g>
<!-- rel_2&#45;&gt;unknown.highlighted_chart -->
<g id="edge11" class="edge">
<title>rel_2&#45;&gt;unknown.highlighted_chart</title>
<path fill="none" stroke="#d46a6a" stroke-width="1.5" d="M759.31,-85.59C681.21,-86.48 551.81,-92 443.25,-116 432.45,-118.39 421.19,-121.84 410.52,-125.61"/>
<polygon fill="#d46a6a" stroke="#d46a6a" stroke-width="1.5" points="409.59,-122.97 403.04,-128.36 411.52,-128.23 409.59,-122.97"/>
</g>
<!-- rel_3&#45;&gt;whole.visualization -->
<g id="edge13" class="edge">
<title>rel_3&#45;&gt;whole.visualization</title>
<path fill="none" stroke="#d46a6a" stroke-width="1.5" d="M233.47,-18C258.68,-18 293.05,-18 318.91,-18"/>
<polygon fill="#d46a6a" stroke="#d46a6a" stroke-width="1.5" points="318.8,-20.8 326.8,-18 318.8,-15.2 318.8,-20.8"/>
</g>
</g>
</svg>
