<?xml version="1.0" encoding="UTF-8" standalone="no"?>
<!DOCTYPE svg PUBLIC "-//W3C//DTD SVG 1.1//EN"
 "http://www.w3.org/Graphics/SVG/1.1/DTD/svg11.dtd">
<!-- Generated by graphviz version 14.1.5 (20260411.2331)
 -->
<!-- Title: whoB09_1.png Pages: 1 -->
<svg width="1075pt" height="374pt"
 viewBox="0.00 0.00 1075.00 374.00" xmlns="http://www.w3.org/2000/svg" xmlns:xlink="http://www.w3.org/1999/xlink">
<g id="graph0" class="graph" transform="scale(1 1) rotate(0) translate(4 370.25)">
<title>whoB09_1.png</title>
<polygon fill="white" stroke="none" points="-4,4 -4,-370.25 1071.25,-370.25 1071.25,4 -4,4"/>
<text xml:space="preserve" text-anchor="start" x="485.62" y="-345.95" font-family="Arial" font-weight="bold" font-size="14.00">whoB09_1.png</text>
<text xml:space="preserve" text-anchor="start" x="491.25" y="-326" font-family="Arial" font-size="11.00">Line &#160;| &#160;VC = 0.49</text>
<path fill="#b8e6b8" stroke="none" d="M324.25,-301C324.25,-301 332.25,-301 332.25,-301 335.25,-301 338.25,-304 338.25,-307 338.25,-307 338.25,-313 338.25,-313 338.25,-316 335.25,-319 332.25,-319 332.25,-319 324.25,-319 324.25,-319 321.25,-319 318.25,-316 318.25,-313 318.25,-313 318.25,-307 318.25,-307 318.25,-304 321.25,-301 324.25,-301"/>
<path fill="none" stroke="black" d="M324.25,-301C324.25,-301 332.25,-301 332.25,-301 335.25,-301 338.25,-304 338.25,-307 338.25,-307 338.25,-313 338.25,-313 338.25,-316 335.25,-319 332.25,-319 332.25,-319 324.25,-319 324.25,-319 321.25,-319 318.25,-316 318.25,-313 318.25,-313 318.25,-307 318.25,-307 318.25,-304 321.25,-301 324.25,-301"/>
<text xml:space="preserve" text-anchor="start" x="326.75" y="-306.25" font-family="Arial" font-size="10.00"> </text>
<text xml:space="preserve" text-anchor="start" x="342.25" y="-306.25" font-family="Arial" font-size="10.00">Object</text>
<path fill="#c7b8e6" stroke="none" d="M380.75,-301C380.75,-301 388.75,-301 388.75,-301 391.75,-301 394.75,-304 394.75,-307 394.75,-307 394.75,-313 394.75,-313 394.75,-316 391.75,-319 388.75,-319 388.75,-319 380.75,-319 380.75,-319 377.75,-319 374.75,-316 374.75,-313 374.75,-313 374.75,-307 374.75,-307 374.75,-304 377.75,-301 380.75,-301"/>
<path fill="none" stroke="black" d="M380.75,-301C380.75,-301 388.75,-301 388.75,-301 391.75,-301 394.75,-304 394.75,-307 394.75,-307 394.75,-313 394.75,-313 394.75,-316 391.75,-319 388.75,-319 388.75,-319 380.75,-319 380.75,-319 377.75,-319 374.75,-316 374.75,-313 374.75,-313 374.75,-307 374.75,-307 374.75,-304 377.75,-301 380.75,-301"/>
<text xml:space="preserve" text-anchor="start" x="383.25" y="-306.25" font-family="Arial" font-size="10.00"> </text>
<text xml:space="preserve" text-anchor="start" x="398.75" y="-306.25" font-family="Arial" font-size="10.00">Attribute</text>
<path fill="#f5b8b8" stroke="none" d="M445.5,-301C445.5,-301 453.5,-301 453.5,-301 456.5,-301 459.5,-304 459.5,-307 459.5,-307 459.5,-313 459.5,-313 459.5,-316 456.5,-319 453.5,-319 453.5,-319 445.5,-319 445.5,-319 442.5,-319 439.5,-316 439.5,-313 439.5,-313 439.5,-307 439.5,-307 439.5,-304 442.5,-301 445.5,-301"/>
<path fill="none" stroke="black" d="M445.5,-301C445.5,-301 453.5,-301 453.5,-301 456.5,-301 459.5,-304 459.5,-307 459.5,-307 459.5,-313 459.5,-313 459.5,-316 456.5,-319 453.5,-319 453.5,-319 445.5,-319 445.5,-319 442.5,-319 439.5,-316 439.5,-313 439.5,-313 439.5,-307 439.5,-307 439.5,-304 442.5,-301 445.5,-301"/>
<text xml:space="preserve" text-anchor="start" x="448" y="-306.25" font-family="Arial" font-size="10.00"> </text>
<text xml:space="preserve" text-anchor="start" x="463.5" y="-306.25" font-family="Arial" font-size="10.00">Relationship</text>
<text xml:space="preserve" text-anchor="start" x="523.5" y="-307.5" font-family="Arial" font-weight="bold" font-size="10.00">(+)</text>
<text xml:space="preserve" text-anchor="start" x="535.5" y="-307.5" font-family="Arial" font-size="10.00"> increases complexity</text>
<text xml:space="preserve" text-anchor="start" x="636.75" y="-307.5" font-family="Arial" font-weight="bold" font-size="10.00">(−)</text>
<text xml:space="preserve" text-anchor="start" x="648.75" y="-307.5" font-family="Arial" font-size="10.00"> decreases complexity</text>
<!-- unknown.lines -->
<g id="node1" class="node">
<title>unknown.lines</title>
<path fill="#b8e6b8" stroke="#2c3e50" stroke-width="1.8" d="M315.75,-84C315.75,-84 285.75,-84 285.75,-84 279.75,-84 273.75,-78 273.75,-72 273.75,-72 273.75,-60 273.75,-60 273.75,-54 279.75,-48 285.75,-48 285.75,-48 315.75,-48 315.75,-48 321.75,-48 327.75,-54 327.75,-60 327.75,-60 327.75,-72 327.75,-72 327.75,-78 321.75,-84 315.75,-84"/>
<text xml:space="preserve" text-anchor="middle" x="300.75" y="-62.5" font-family="Arial" font-size="10.00" fill="#1a1a1a">lines</text>
</g>
<!-- attr_0 -->
<g id="node7" class="node">
<title>attr_0</title>
<path fill="#c7b8e6" stroke="#7f8c8d" stroke-width="1.2" d="M499.25,-133C499.25,-133 382.75,-133 382.75,-133 376.75,-133 370.75,-127 370.75,-121 370.75,-121 370.75,-109 370.75,-109 370.75,-103 376.75,-97 382.75,-97 382.75,-97 499.25,-97 499.25,-97 505.25,-97 511.25,-103 511.25,-109 511.25,-109 511.25,-121 511.25,-121 511.25,-127 505.25,-133 499.25,-133"/>
<text xml:space="preserve" text-anchor="middle" x="441" y="-111.5" font-family="Arial" font-size="10.00" fill="#1a1a1a">(+) multiple overlapping lines</text>
</g>
<!-- unknown.lines&#45;&gt;attr_0 -->
<g id="edge1" class="edge">
<title>unknown.lines&#45;&gt;attr_0</title>
<path fill="none" stroke="#aaaaaa" d="M328.41,-75.45C343.1,-80.66 361.97,-87.34 380,-93.73"/>
<polygon fill="#aaaaaa" stroke="#aaaaaa" points="378.82,-95.91 386.23,-95.94 380.45,-91.3 378.82,-95.91"/>
</g>
<!-- rel_3 -->
<g id="node16" class="node">
<title>rel_3</title>
<path fill="#f5b8b8" stroke="#d46a6a" stroke-width="1.2" d="M466.62,-68C466.62,-68 415.38,-68 415.38,-68 409.38,-68 403.38,-62 403.38,-56 403.38,-56 403.38,-44 403.38,-44 403.38,-38 409.38,-32 415.38,-32 415.38,-32 466.62,-32 466.62,-32 472.62,-32 478.62,-38 478.62,-44 478.62,-44 478.62,-56 478.62,-56 478.62,-62 472.62,-68 466.62,-68"/>
<text xml:space="preserve" text-anchor="middle" x="441" y="-46.5" font-family="Arial" font-size="10.00" fill="#8b0000">contributes to</text>
</g>
<!-- unknown.lines&#45;&gt;rel_3 -->
<g id="edge13" class="edge">
<title>unknown.lines&#45;&gt;rel_3</title>
<path fill="none" stroke="#d46a6a" stroke-width="1.5" d="M328.41,-62.92C346.69,-60.8 371.46,-57.93 393.01,-55.44"/>
<polygon fill="#d46a6a" stroke="#d46a6a" stroke-width="1.5" points="393.09,-58.25 400.72,-54.55 392.45,-52.68 393.09,-58.25"/>
</g>
<!-- unknown.numbers -->
<g id="node2" class="node">
<title>unknown.numbers</title>
<path fill="#b8e6b8" stroke="#2c3e50" stroke-width="1.8" d="M315.75,-230C315.75,-230 285.75,-230 285.75,-230 279.75,-230 273.75,-224 273.75,-218 273.75,-218 273.75,-206 273.75,-206 273.75,-200 279.75,-194 285.75,-194 285.75,-194 315.75,-194 315.75,-194 321.75,-194 327.75,-200 327.75,-206 327.75,-206 327.75,-218 327.75,-218 327.75,-224 321.75,-230 315.75,-230"/>
<text xml:space="preserve" text-anchor="middle" x="300.75" y="-208.5" font-family="Arial" font-size="10.00" fill="#1a1a1a">numbers</text>
</g>
<!-- attr_1 -->
<g id="node8" class="node">
<title>attr_1</title>
<path fill="#c7b8e6" stroke="#7f8c8d" stroke-width="1.2" d="M494.38,-230C494.38,-230 387.62,-230 387.62,-230 381.62,-230 375.62,-224 375.62,-218 375.62,-218 375.62,-206 375.62,-206 375.62,-200 381.62,-194 387.62,-194 387.62,-194 494.38,-194 494.38,-194 500.38,-194 506.38,-200 506.38,-206 506.38,-206 506.38,-218 506.38,-218 506.38,-224 500.38,-230 494.38,-230"/>
<text xml:space="preserve" text-anchor="middle" x="441" y="-208.5" font-family="Arial" font-size="10.00" fill="#1a1a1a">(+) dense numerical labels</text>
</g>
<!-- unknown.numbers&#45;&gt;attr_1 -->
<g id="edge2" class="edge">
<title>unknown.numbers&#45;&gt;attr_1</title>
<path fill="none" stroke="#aaaaaa" d="M328.41,-212C339.62,-212 353.27,-212 367.13,-212"/>
<polygon fill="#aaaaaa" stroke="#aaaaaa" points="366.78,-214.45 373.78,-212 366.78,-209.55 366.78,-214.45"/>
</g>
<!-- property.color -->
<g id="node3" class="node">
<title>property.color</title>
<path fill="#b8e6b8" stroke="#2c3e50" stroke-width="1.8" d="M42,-116C42,-116 12,-116 12,-116 6,-116 0,-110 0,-104 0,-104 0,-92 0,-92 0,-86 6,-80 12,-80 12,-80 42,-80 42,-80 48,-80 54,-86 54,-92 54,-92 54,-104 54,-104 54,-110 48,-116 42,-116"/>
<text xml:space="preserve" text-anchor="middle" x="27" y="-94.5" font-family="Arial" font-size="10.00" fill="#1a1a1a">color</text>
</g>
<!-- attr_2 -->
<g id="node9" class="node">
<title>attr_2</title>
<path fill="#c7b8e6" stroke="#7f8c8d" stroke-width="1.2" d="M218.75,-149C218.75,-149 109,-149 109,-149 103,-149 97,-143 97,-137 97,-137 97,-125 97,-125 97,-119 103,-113 109,-113 109,-113 218.75,-113 218.75,-113 224.75,-113 230.75,-119 230.75,-125 230.75,-125 230.75,-137 230.75,-137 230.75,-143 224.75,-149 218.75,-149"/>
<text xml:space="preserve" text-anchor="middle" x="163.88" y="-127.5" font-family="Arial" font-size="10.00" fill="#1a1a1a">(+) no meaningful encoding</text>
</g>
<!-- property.color&#45;&gt;attr_2 -->
<g id="edge3" class="edge">
<title>property.color&#45;&gt;attr_2</title>
<path fill="none" stroke="#aaaaaa" d="M54.65,-104.52C64.6,-106.95 76.45,-109.85 88.59,-112.83"/>
<polygon fill="#aaaaaa" stroke="#aaaaaa" points="87.75,-115.14 95.13,-114.43 88.91,-110.38 87.75,-115.14"/>
</g>
<!-- rel_0 -->
<g id="node13" class="node">
<title>rel_0</title>
<path fill="#f5b8b8" stroke="#d46a6a" stroke-width="1.2" d="M191.75,-84C191.75,-84 136,-84 136,-84 130,-84 124,-78 124,-72 124,-72 124,-60 124,-60 124,-54 130,-48 136,-48 136,-48 191.75,-48 191.75,-48 197.75,-48 203.75,-54 203.75,-60 203.75,-60 203.75,-72 203.75,-72 203.75,-78 197.75,-84 191.75,-84"/>
<text xml:space="preserve" text-anchor="middle" x="163.88" y="-62.5" font-family="Arial" font-size="10.00" fill="#8b0000">fails to encode</text>
</g>
<!-- property.color&#45;&gt;rel_0 -->
<g id="edge7" class="edge">
<title>property.color&#45;&gt;rel_0</title>
<path fill="none" stroke="#d46a6a" stroke-width="1.5" d="M54.65,-91.68C71.46,-87.69 93.69,-82.41 113.63,-77.68"/>
<polygon fill="#d46a6a" stroke="#d46a6a" stroke-width="1.5" points="114.15,-80.44 121.29,-75.87 112.86,-74.99 114.15,-80.44"/>
</g>
<!-- unknown.axes -->
<g id="node4" class="node">
<title>unknown.axes</title>
<path fill="#b8e6b8" stroke="#2c3e50" stroke-width="1.8" d="M42,-262C42,-262 12,-262 12,-262 6,-262 0,-256 0,-250 0,-250 0,-238 0,-238 0,-232 6,-226 12,-226 12,-226 42,-226 42,-226 48,-226 54,-232 54,-238 54,-238 54,-250 54,-250 54,-256 48,-262 42,-262"/>
<text xml:space="preserve" text-anchor="middle" x="27" y="-240.5" font-family="Arial" font-size="10.00" fill="#1a1a1a">axes</text>
</g>
<!-- attr_3 -->
<g id="node10" class="node">
<title>attr_3</title>
<path fill="#c7b8e6" stroke="#7f8c8d" stroke-width="1.2" d="M215,-295C215,-295 112.75,-295 112.75,-295 106.75,-295 100.75,-289 100.75,-283 100.75,-283 100.75,-271 100.75,-271 100.75,-265 106.75,-259 112.75,-259 112.75,-259 215,-259 215,-259 221,-259 227,-265 227,-271 227,-271 227,-283 227,-283 227,-289 221,-295 215,-295"/>
<text xml:space="preserve" text-anchor="middle" x="163.88" y="-273.5" font-family="Arial" font-size="10.00" fill="#1a1a1a">(+) multiple different axes</text>
</g>
<!-- unknown.axes&#45;&gt;attr_3 -->
<g id="edge4" class="edge">
<title>unknown.axes&#45;&gt;attr_3</title>
<path fill="none" stroke="#aaaaaa" d="M54.65,-250.52C65.62,-253.2 78.9,-256.45 92.35,-259.74"/>
<polygon fill="#aaaaaa" stroke="#aaaaaa" points="91.42,-262.04 98.8,-261.32 92.58,-257.28 91.42,-262.04"/>
</g>
<!-- rel_1 -->
<g id="node14" class="node">
<title>rel_1</title>
<path fill="#f5b8b8" stroke="#d46a6a" stroke-width="1.2" d="M211.62,-230C211.62,-230 116.12,-230 116.12,-230 110.12,-230 104.12,-224 104.12,-218 104.12,-218 104.12,-206 104.12,-206 104.12,-200 110.12,-194 116.12,-194 116.12,-194 211.62,-194 211.62,-194 217.62,-194 223.62,-200 223.62,-206 223.62,-206 223.62,-218 223.62,-218 223.62,-224 217.62,-230 211.62,-230"/>
<text xml:space="preserve" text-anchor="middle" x="163.88" y="-208.5" font-family="Arial" font-size="10.00" fill="#8b0000">increases complexity of</text>
</g>
<!-- unknown.axes&#45;&gt;rel_1 -->
<g id="edge9" class="edge">
<title>unknown.axes&#45;&gt;rel_1</title>
<path fill="none" stroke="#d46a6a" stroke-width="1.5" d="M54.65,-237.68C66.06,-234.97 79.97,-231.67 93.97,-228.35"/>
<polygon fill="#d46a6a" stroke="#d46a6a" stroke-width="1.5" points="94.3,-231.15 101.44,-226.58 93.01,-225.7 94.3,-231.15"/>
</g>
<!-- furniture.legend -->
<g id="node5" class="node">
<title>furniture.legend</title>
<path fill="#b8e6b8" stroke="#2c3e50" stroke-width="1.8" d="M886,-36C886,-36 856,-36 856,-36 850,-36 844,-30 844,-24 844,-24 844,-12 844,-12 844,-6 850,0 856,0 856,0 886,0 886,0 892,0 898,-6 898,-12 898,-12 898,-24 898,-24 898,-30 892,-36 886,-36"/>
<text xml:space="preserve" text-anchor="middle" x="871" y="-14.5" font-family="Arial" font-size="10.00" fill="#1a1a1a">legend</text>
</g>
<!-- attr_5 -->
<g id="node11" class="node">
<title>attr_5</title>
<path fill="#c7b8e6" stroke="#7f8c8d" stroke-width="1.2" d="M1055.25,-36C1055.25,-36 953,-36 953,-36 947,-36 941,-30 941,-24 941,-24 941,-12 941,-12 941,-6 947,0 953,0 953,0 1055.25,0 1055.25,0 1061.25,0 1067.25,-6 1067.25,-12 1067.25,-12 1067.25,-24 1067.25,-24 1067.25,-30 1061.25,-36 1055.25,-36"/>
<text xml:space="preserve" text-anchor="middle" x="1004.12" y="-14.5" font-family="Arial" font-size="10.00" fill="#1a1a1a">(+) unclear color mapping</text>
</g>
<!-- furniture.legend&#45;&gt;attr_5 -->
<g id="edge5" class="edge">
<title>furniture.legend&#45;&gt;attr_5</title>
<path fill="none" stroke="#aaaaaa" d="M898.85,-18C908.71,-18 920.4,-18 932.31,-18"/>
<polygon fill="#aaaaaa" stroke="#aaaaaa" points="932.07,-20.45 939.07,-18 932.07,-15.55 932.07,-20.45"/>
</g>
<!-- unknown.data_elements -->
<g id="node6" class="node">
<title>unknown.data_elements</title>
<path fill="#b8e6b8" stroke="#2c3e50" stroke-width="1.8" d="M619.75,-68C619.75,-68 566.25,-68 566.25,-68 560.25,-68 554.25,-62 554.25,-56 554.25,-56 554.25,-44 554.25,-44 554.25,-38 560.25,-32 566.25,-32 566.25,-32 619.75,-32 619.75,-32 625.75,-32 631.75,-38 631.75,-44 631.75,-44 631.75,-56 631.75,-56 631.75,-62 625.75,-68 619.75,-68"/>
<text xml:space="preserve" text-anchor="middle" x="593" y="-46.5" font-family="Arial" font-size="10.00" fill="#1a1a1a">data elements</text>
</g>
<!-- attr_4 -->
<g id="node12" class="node">
<title>attr_4</title>
<path fill="#c7b8e6" stroke="#7f8c8d" stroke-width="1.2" d="M789,-101C789,-101 686.75,-101 686.75,-101 680.75,-101 674.75,-95 674.75,-89 674.75,-89 674.75,-77 674.75,-77 674.75,-71 680.75,-65 686.75,-65 686.75,-65 789,-65 789,-65 795,-65 801,-71 801,-77 801,-77 801,-89 801,-89 801,-95 795,-101 789,-101"/>
<text xml:space="preserve" text-anchor="middle" x="737.88" y="-79.5" font-family="Arial" font-size="10.00" fill="#1a1a1a">(+) many visual elements</text>
</g>
<!-- unknown.data_elements&#45;&gt;attr_4 -->
<g id="edge6" class="edge">
<title>unknown.data_elements&#45;&gt;attr_4</title>
<path fill="none" stroke="#aaaaaa" d="M632.29,-58.84C642.76,-61.26 654.46,-63.97 666.14,-66.66"/>
<polygon fill="#aaaaaa" stroke="#aaaaaa" points="665.35,-69 672.73,-68.18 666.46,-64.22 665.35,-69"/>
</g>
<!-- rel_2 -->
<g id="node15" class="node">
<title>rel_2</title>
<path fill="#f5b8b8" stroke="#d46a6a" stroke-width="1.2" d="M760.12,-36C760.12,-36 715.62,-36 715.62,-36 709.62,-36 703.62,-30 703.62,-24 703.62,-24 703.62,-12 703.62,-12 703.62,-6 709.62,0 715.62,0 715.62,0 760.12,0 760.12,0 766.12,0 772.12,-6 772.12,-12 772.12,-12 772.12,-24 772.12,-24 772.12,-30 766.12,-36 760.12,-36"/>
<text xml:space="preserve" text-anchor="middle" x="737.88" y="-14.5" font-family="Arial" font-size="10.00" fill="#8b0000">overwhelms</text>
</g>
<!-- unknown.data_elements&#45;&gt;rel_2 -->
<g id="edge11" class="edge">
<title>unknown.data_elements&#45;&gt;rel_2</title>
<path fill="none" stroke="#d46a6a" stroke-width="1.5" d="M632.29,-41.42C651.15,-37.2 673.98,-32.09 693.49,-27.72"/>
<polygon fill="#d46a6a" stroke="#d46a6a" stroke-width="1.5" points="693.94,-30.49 701.13,-26.01 692.71,-25.02 693.94,-30.49"/>
</g>
<!-- rel_0&#45;&gt;unknown.lines -->
<g id="edge8" class="edge">
<title>rel_0&#45;&gt;unknown.lines</title>
<path fill="none" stroke="#d46a6a" stroke-width="1.5" d="M204.25,-66C222.71,-66 244.58,-66 262.74,-66"/>
<polygon fill="#d46a6a" stroke="#d46a6a" stroke-width="1.5" points="262.67,-68.8 270.67,-66 262.67,-63.2 262.67,-68.8"/>
</g>
<!-- rel_1&#45;&gt;unknown.numbers -->
<g id="edge10" class="edge">
<title>rel_1&#45;&gt;unknown.numbers</title>
<path fill="none" stroke="#d46a6a" stroke-width="1.5" d="M224.03,-212C237.28,-212 250.96,-212 262.99,-212"/>
<polygon fill="#d46a6a" stroke="#d46a6a" stroke-width="1.5" points="262.81,-214.8 270.81,-212 262.81,-209.2 262.81,-214.8"/>
</g>
<!-- rel_2&#45;&gt;furniture.legend -->
<g id="edge12" class="edge">
<title>rel_2&#45;&gt;furniture.legend</title>
<path fill="none" stroke="#d46a6a" stroke-width="1.5" d="M772.64,-18C791.21,-18 814.27,-18 833.28,-18"/>
<polygon fill="#d46a6a" stroke="#d46a6a" stroke-width="1.5" points="833.1,-20.8 841.1,-18 833.1,-15.2 833.1,-20.8"/>
</g>
<!-- rel_3&#45;&gt;unknown.data_elements -->
<g id="edge14" class="edge">
<title>rel_3&#45;&gt;unknown.data_elements</title>
<path fill="none" stroke="#d46a6a" stroke-width="1.5" d="M479.08,-50C498.45,-50 522.4,-50 543.25,-50"/>
<polygon fill="#d46a6a" stroke="#d46a6a" stroke-width="1.5" points="543.25,-52.8 551.25,-50 543.25,-47.2 543.25,-52.8"/>
</g>
</g>
</svg>
