<?xml version="1.0" encoding="UTF-8" standalone="no"?>
<!DOCTYPE svg PUBLIC "-//W3C//DTD SVG 1.1//EN"
 "http://www.w3.org/Graphics/SVG/1.1/DTD/svg11.dtd">
<!-- Generated by graphviz version 14.1.5 (20260411.2331)
 -->
<!-- Title: whoB32_1.png Pages: 1 -->
<svg width="854pt" height="499pt"
 viewBox="0.00 0.00 854.00 499.00" xmlns="http://www.w3.org/2000/svg" xmlns:xlink="http://www.w3.org/1999/xlink">
<g id="graph0" class="graph" transform="scale(1 1) rotate(0) translate(4 495.25)">
<title>whoB32_1.png</title>
<polygon fill="white" stroke="none" points="-4,4 -4,-495.25 849.5,-495.25 849.5,4 -4,4"/>
<text xml:space="preserve" text-anchor="start" x="374.75" y="-470.95" font-family="Arial" font-weight="bold" font-size="14.00">whoB32_1.png</text>
<text xml:space="preserve" text-anchor="start" x="381.88" y="-451" font-family="Arial" font-size="11.00">Bar &#160;| &#160;VC = 0.42</text>
<path fill="#b8e6b8" stroke="none" d="M213.38,-426C213.38,-426 221.38,-426 221.38,-426 224.38,-426 227.38,-429 227.38,-432 227.38,-432 227.38,-438 227.38,-438 227.38,-441 224.38,-444 221.38,-444 221.38,-444 213.38,-444 213.38,-444 210.38,-444 207.38,-441 207.38,-438 207.38,-438 207.38,-432 207.38,-432 207.38,-429 210.38,-426 213.38,-426"/>
<path fill="none" stroke="black" d="M213.38,-426C213.38,-426 221.38,-426 221.38,-426 224.38,-426 227.38,-429 227.38,-432 227.38,-432 227.38,-438 227.38,-438 227.38,-441 224.38,-444 221.38,-444 221.38,-444 213.38,-444 213.38,-444 210.38,-444 207.38,-441 207.38,-438 207.38,-438 207.38,-432 207.38,-432 207.38,-429 210.38,-426 213.38,-426"/>
<text xml:space="preserve" text-anchor="start" x="215.88" y="-431.25" font-family="Arial" font-size="10.00"> </text>
<text xml:space="preserve" text-anchor="start" x="231.38" y="-431.25" font-family="Arial" font-size="10.00">Object</text>
<path fill="#c7b8e6" stroke="none" d="M269.88,-426C269.88,-426 277.88,-426 277.88,-426 280.88,-426 283.88,-429 283.88,-432 283.88,-432 283.88,-438 283.88,-438 283.88,-441 280.88,-444 277.88,-444 277.88,-444 269.88,-444 269.88,-444 266.88,-444 263.88,-441 263.88,-438 263.88,-438 263.88,-432 263.88,-432 263.88,-429 266.88,-426 269.88,-426"/>
<path fill="none" stroke="black" d="M269.88,-426C269.88,-426 277.88,-426 277.88,-426 280.88,-426 283.88,-429 283.88,-432 283.88,-432 283.88,-438 283.88,-438 283.88,-441 280.88,-444 277.88,-444 277.88,-444 269.88,-444 269.88,-444 266.88,-444 263.88,-441 263.88,-438 263.88,-438 263.88,-432 263.88,-432 263.88,-429 266.88,-426 269.88,-426"/>
<text xml:space="preserve" text-anchor="start" x="272.38" y="-431.25" font-family="Arial" font-size="10.00"> </text>
<text xml:space="preserve" text-anchor="start" x="287.88" y="-431.25" font-family="Arial" font-size="10.00">Attribute</text>
<path fill="#f5b8b8" stroke="none" d="M334.62,-426C334.62,-426 342.62,-426 342.62,-426 345.62,-426 348.62,-429 348.62,-432 348.62,-432 348.62,-438 348.62,-438 348.62,-441 345.62,-444 342.62,-444 342.62,-444 334.62,-444 334.62,-444 331.62,-444 328.62,-441 328.62,-438 328.62,-438 328.62,-432 328.62,-432 328.62,-429 331.62,-426 334.62,-426"/>
<path fill="none" stroke="black" d="M334.62,-426C334.62,-426 342.62,-426 342.62,-426 345.62,-426 348.62,-429 348.62,-432 348.62,-432 348.62,-438 348.62,-438 348.62,-441 345.62,-444 342.62,-444 342.62,-444 334.62,-444 334.62,-444 331.62,-444 328.62,-441 328.62,-438 328.62,-438 328.62,-432 328.62,-432 328.62,-429 331.62,-426 334.62,-426"/>
<text xml:space="preserve" text-anchor="start" x="337.12" y="-431.25" font-family="Arial" font-size="10.00"> </text>
<text xml:space="preserve" text-anchor="start" x="352.62" y="-431.25" font-family="Arial" font-size="10.00">Relationship</text>
<text xml:space="preserve" text-anchor="start" x="412.62" y="-432.5" font-family="Arial" font-weight="bold" font-size="10.00">(+)</text>
<text xml:space="preserve" text-anchor="start" x="424.62" y="-432.5" font-family="Arial" font-size="10.00"> increases complexity</text>
<text xml:space="preserve" text-anchor="start" x="525.88" y="-432.5" font-family="Arial" font-weight="bold" font-size="10.00">(−)</text>
<text xml:space="preserve" text-anchor="start" x="537.88" y="-432.5" font-family="Arial" font-size="10.00"> decreases complexity</text>
<!-- mark.bar -->
<g id="node1" class="node">
<title>mark.bar</title>
<path fill="#b8e6b8" stroke="#2c3e50" stroke-width="1.8" d="M346.5,-262C346.5,-262 316.5,-262 316.5,-262 310.5,-262 304.5,-256 304.5,-250 304.5,-250 304.5,-238 304.5,-238 304.5,-232 310.5,-226 316.5,-226 316.5,-226 346.5,-226 346.5,-226 352.5,-226 358.5,-232 358.5,-238 358.5,-238 358.5,-250 358.5,-250 358.5,-256 352.5,-262 346.5,-262"/>
<text xml:space="preserve" text-anchor="middle" x="331.5" y="-240.5" font-family="Arial" font-size="10.00" fill="#1a1a1a">bar</text>
</g>
<!-- attr_3 -->
<g id="node6" class="node">
<title>attr_3</title>
<path fill="#c7b8e6" stroke="#7f8c8d" stroke-width="1.2" d="M546.25,-296C546.25,-296 438,-296 438,-296 432,-296 426,-290 426,-284 426,-284 426,-272 426,-272 426,-266 432,-260 438,-260 438,-260 546.25,-260 546.25,-260 552.25,-260 558.25,-266 558.25,-272 558.25,-272 558.25,-284 558.25,-284 558.25,-290 552.25,-296 546.25,-296"/>
<text xml:space="preserve" text-anchor="middle" x="492.12" y="-274.5" font-family="Arial" font-size="10.00" fill="#1a1a1a">(+) hard to distinguish bars</text>
</g>
<!-- mark.bar&#45;&gt;attr_3 -->
<g id="edge1" class="edge">
<title>mark.bar&#45;&gt;attr_3</title>
<path fill="none" stroke="#aaaaaa" d="M359.05,-249.69C375.09,-253.13 396.4,-257.7 417.21,-262.16"/>
<polygon fill="#aaaaaa" stroke="#aaaaaa" points="416.62,-264.54 423.98,-263.61 417.64,-259.74 416.62,-264.54"/>
</g>
<!-- rel_3 -->
<g id="node15" class="node">
<title>rel_3</title>
<path fill="#f5b8b8" stroke="#d46a6a" stroke-width="1.2" d="M533.88,-231C533.88,-231 450.38,-231 450.38,-231 444.38,-231 438.38,-225 438.38,-219 438.38,-219 438.38,-207 438.38,-207 438.38,-201 444.38,-195 450.38,-195 450.38,-195 533.88,-195 533.88,-195 539.88,-195 545.88,-201 545.88,-207 545.88,-207 545.88,-219 545.88,-219 545.88,-225 539.88,-231 533.88,-231"/>
<text xml:space="preserve" text-anchor="middle" x="492.12" y="-209.5" font-family="Arial" font-size="10.00" fill="#8b0000">requires expertise for</text>
</g>
<!-- mark.bar&#45;&gt;rel_3 -->
<g id="edge13" class="edge">
<title>mark.bar&#45;&gt;rel_3</title>
<path fill="none" stroke="#d46a6a" stroke-width="1.5" d="M359.05,-238.81C377.89,-235.13 403.99,-230.03 428.02,-225.33"/>
<polygon fill="#d46a6a" stroke="#d46a6a" stroke-width="1.5" points="428.27,-228.14 435.58,-223.85 427.19,-222.64 428.27,-228.14"/>
</g>
<!-- property.color -->
<g id="node2" class="node">
<title>property.color</title>
<path fill="#b8e6b8" stroke="#2c3e50" stroke-width="1.8" d="M43.62,-263C43.62,-263 13.62,-263 13.62,-263 7.62,-263 1.62,-257 1.62,-251 1.62,-251 1.62,-239 1.62,-239 1.62,-233 7.62,-227 13.62,-227 13.62,-227 43.62,-227 43.62,-227 49.62,-227 55.62,-233 55.62,-239 55.62,-239 55.62,-251 55.62,-251 55.62,-257 49.62,-263 43.62,-263"/>
<text xml:space="preserve" text-anchor="middle" x="28.62" y="-241.5" font-family="Arial" font-size="10.00" fill="#1a1a1a">color</text>
</g>
<!-- attr_0 -->
<g id="node7" class="node">
<title>attr_0</title>
<path fill="#c7b8e6" stroke="#7f8c8d" stroke-width="1.2" d="M210.75,-231C210.75,-231 126.5,-231 126.5,-231 120.5,-231 114.5,-225 114.5,-219 114.5,-219 114.5,-207 114.5,-207 114.5,-201 120.5,-195 126.5,-195 126.5,-195 210.75,-195 210.75,-195 216.75,-195 222.75,-201 222.75,-207 222.75,-207 222.75,-219 222.75,-219 222.75,-225 216.75,-231 210.75,-231"/>
<text xml:space="preserve" text-anchor="middle" x="168.62" y="-209.5" font-family="Arial" font-size="10.00" fill="#1a1a1a">(+) low color contrast</text>
</g>
<!-- property.color&#45;&gt;attr_0 -->
<g id="edge2" class="edge">
<title>property.color&#45;&gt;attr_0</title>
<path fill="none" stroke="#aaaaaa" d="M56.23,-238.83C70.43,-235.54 88.53,-231.34 106,-227.29"/>
<polygon fill="#aaaaaa" stroke="#aaaaaa" points="106.22,-229.75 112.49,-225.79 105.11,-224.98 106.22,-229.75"/>
</g>
<!-- attr_1 -->
<g id="node8" class="node">
<title>attr_1</title>
<path fill="#c7b8e6" stroke="#7f8c8d" stroke-width="1.2" d="M208.88,-166C208.88,-166 128.38,-166 128.38,-166 122.38,-166 116.38,-160 116.38,-154 116.38,-154 116.38,-142 116.38,-142 116.38,-136 122.38,-130 128.38,-130 128.38,-130 208.88,-130 208.88,-130 214.88,-130 220.88,-136 220.88,-142 220.88,-142 220.88,-154 220.88,-154 220.88,-160 214.88,-166 208.88,-166"/>
<text xml:space="preserve" text-anchor="middle" x="168.62" y="-144.5" font-family="Arial" font-size="10.00" fill="#1a1a1a">(+) similar blue hues</text>
</g>
<!-- property.color&#45;&gt;attr_1 -->
<g id="edge3" class="edge">
<title>property.color&#45;&gt;attr_1</title>
<path fill="none" stroke="#aaaaaa" d="M46.93,-226.27C60.5,-212.31 80.36,-193.42 100.25,-180 105.38,-176.54 110.95,-173.25 116.6,-170.2"/>
<polygon fill="#aaaaaa" stroke="#aaaaaa" points="117.37,-172.56 122.45,-167.15 115.11,-168.21 117.37,-172.56"/>
</g>
<!-- rel_0 -->
<g id="node12" class="node">
<title>rel_0</title>
<path fill="#f5b8b8" stroke="#d46a6a" stroke-width="1.2" d="M225,-296C225,-296 112.25,-296 112.25,-296 106.25,-296 100.25,-290 100.25,-284 100.25,-284 100.25,-272 100.25,-272 100.25,-266 106.25,-260 112.25,-260 112.25,-260 225,-260 225,-260 231,-260 237,-266 237,-272 237,-272 237,-284 237,-284 237,-290 231,-296 225,-296"/>
<text xml:space="preserve" text-anchor="middle" x="168.62" y="-274.5" font-family="Arial" font-size="10.00" fill="#8b0000">reduces distinguishability of</text>
</g>
<!-- property.color&#45;&gt;rel_0 -->
<g id="edge7" class="edge">
<title>property.color&#45;&gt;rel_0</title>
<path fill="none" stroke="#d46a6a" stroke-width="1.5" d="M56.23,-251.36C66.12,-253.73 77.91,-256.55 90.05,-259.45"/>
<polygon fill="#d46a6a" stroke="#d46a6a" stroke-width="1.5" points="89.2,-262.12 97.63,-261.26 90.5,-256.68 89.2,-262.12"/>
</g>
<!-- rel_2 -->
<g id="node14" class="node">
<title>rel_2</title>
<path fill="#f5b8b8" stroke="#d46a6a" stroke-width="1.2" d="M371,-358C371,-358 292,-358 292,-358 286,-358 280,-352 280,-346 280,-346 280,-334 280,-334 280,-328 286,-322 292,-322 292,-322 371,-322 371,-322 377,-322 383,-328 383,-334 383,-334 383,-346 383,-346 383,-352 377,-358 371,-358"/>
<text xml:space="preserve" text-anchor="middle" x="331.5" y="-336.5" font-family="Arial" font-size="10.00" fill="#8b0000">causes ambiguity in</text>
</g>
<!-- property.color&#45;&gt;rel_2 -->
<g id="edge11" class="edge">
<title>property.color&#45;&gt;rel_2</title>
<path fill="none" stroke="#d46a6a" stroke-width="1.5" d="M43.94,-263.77C56.86,-279.21 77.31,-300.24 100.25,-311 153.61,-336.02 221.16,-341.91 269.26,-342.37"/>
<polygon fill="#d46a6a" stroke="#d46a6a" stroke-width="1.5" points="269.25,-345.17 277.26,-342.39 269.26,-339.57 269.25,-345.17"/>
</g>
<!-- text.label -->
<g id="node3" class="node">
<title>text.label</title>
<path fill="#b8e6b8" stroke="#2c3e50" stroke-width="1.8" d="M43.62,-68C43.62,-68 13.62,-68 13.62,-68 7.62,-68 1.62,-62 1.62,-56 1.62,-56 1.62,-44 1.62,-44 1.62,-38 7.62,-32 13.62,-32 13.62,-32 43.62,-32 43.62,-32 49.62,-32 55.62,-38 55.62,-44 55.62,-44 55.62,-56 55.62,-56 55.62,-62 49.62,-68 43.62,-68"/>
<text xml:space="preserve" text-anchor="middle" x="28.62" y="-46.5" font-family="Arial" font-size="10.00" fill="#1a1a1a">text</text>
</g>
<!-- attr_2 -->
<g id="node9" class="node">
<title>attr_2</title>
<path fill="#c7b8e6" stroke="#7f8c8d" stroke-width="1.2" d="M208.12,-101C208.12,-101 129.12,-101 129.12,-101 123.12,-101 117.12,-95 117.12,-89 117.12,-89 117.12,-77 117.12,-77 117.12,-71 123.12,-65 129.12,-65 129.12,-65 208.12,-65 208.12,-65 214.12,-65 220.12,-71 220.12,-77 220.12,-77 220.12,-89 220.12,-89 220.12,-95 214.12,-101 208.12,-101"/>
<text xml:space="preserve" text-anchor="middle" x="168.62" y="-79.5" font-family="Arial" font-size="10.00" fill="#1a1a1a">(+) high text volume</text>
</g>
<!-- text.label&#45;&gt;attr_2 -->
<g id="edge4" class="edge">
<title>text.label&#45;&gt;attr_2</title>
<path fill="none" stroke="#aaaaaa" d="M56.23,-56.36C71.24,-59.95 90.62,-64.59 108.99,-68.98"/>
<polygon fill="#aaaaaa" stroke="#aaaaaa" points="107.94,-71.25 115.32,-70.49 109.08,-66.48 107.94,-71.25"/>
</g>
<!-- rel_1 -->
<g id="node13" class="node">
<title>rel_1</title>
<path fill="#f5b8b8" stroke="#d46a6a" stroke-width="1.2" d="M216.38,-36C216.38,-36 120.88,-36 120.88,-36 114.88,-36 108.88,-30 108.88,-24 108.88,-24 108.88,-12 108.88,-12 108.88,-6 114.88,0 120.88,0 120.88,0 216.38,0 216.38,0 222.38,0 228.38,-6 228.38,-12 228.38,-12 228.38,-24 228.38,-24 228.38,-30 222.38,-36 216.38,-36"/>
<text xml:space="preserve" text-anchor="middle" x="168.62" y="-14.5" font-family="Arial" font-size="10.00" fill="#8b0000">increases complexity of</text>
</g>
<!-- text.label&#45;&gt;rel_1 -->
<g id="edge9" class="edge">
<title>text.label&#45;&gt;rel_1</title>
<path fill="none" stroke="#d46a6a" stroke-width="1.5" d="M56.23,-43.83C68.44,-41 83.54,-37.5 98.63,-34"/>
<polygon fill="#d46a6a" stroke="#d46a6a" stroke-width="1.5" points="99.15,-36.75 106.31,-32.22 97.89,-31.3 99.15,-36.75"/>
</g>
<!-- furniture.legend -->
<g id="node4" class="node">
<title>furniture.legend</title>
<path fill="#b8e6b8" stroke="#2c3e50" stroke-width="1.8" d="M643.25,-294C643.25,-294 613.25,-294 613.25,-294 607.25,-294 601.25,-288 601.25,-282 601.25,-282 601.25,-270 601.25,-270 601.25,-264 607.25,-258 613.25,-258 613.25,-258 643.25,-258 643.25,-258 649.25,-258 655.25,-264 655.25,-270 655.25,-270 655.25,-282 655.25,-282 655.25,-288 649.25,-294 643.25,-294"/>
<text xml:space="preserve" text-anchor="middle" x="628.25" y="-272.5" font-family="Arial" font-size="10.00" fill="#1a1a1a">legend</text>
</g>
<!-- attr_4 -->
<g id="node10" class="node">
<title>attr_4</title>
<path fill="#c7b8e6" stroke="#7f8c8d" stroke-width="1.2" d="M833.5,-294C833.5,-294 710.25,-294 710.25,-294 704.25,-294 698.25,-288 698.25,-282 698.25,-282 698.25,-270 698.25,-270 698.25,-264 704.25,-258 710.25,-258 710.25,-258 833.5,-258 833.5,-258 839.5,-258 845.5,-264 845.5,-270 845.5,-270 845.5,-282 845.5,-282 845.5,-288 839.5,-294 833.5,-294"/>
<text xml:space="preserve" text-anchor="middle" x="771.88" y="-272.5" font-family="Arial" font-size="10.00" fill="#1a1a1a">(+) poorly differentiable entries</text>
</g>
<!-- furniture.legend&#45;&gt;attr_4 -->
<g id="edge5" class="edge">
<title>furniture.legend&#45;&gt;attr_4</title>
<path fill="none" stroke="#aaaaaa" d="M655.89,-276C665.65,-276 677.29,-276 689.34,-276"/>
<polygon fill="#aaaaaa" stroke="#aaaaaa" points="689.23,-278.45 696.23,-276 689.23,-273.55 689.23,-278.45"/>
</g>
<!-- text.axis_label -->
<g id="node5" class="node">
<title>text.axis_label</title>
<path fill="#b8e6b8" stroke="#2c3e50" stroke-width="1.8" d="M45.25,-420C45.25,-420 12,-420 12,-420 6,-420 0,-414 0,-408 0,-408 0,-396 0,-396 0,-390 6,-384 12,-384 12,-384 45.25,-384 45.25,-384 51.25,-384 57.25,-390 57.25,-396 57.25,-396 57.25,-408 57.25,-408 57.25,-414 51.25,-420 45.25,-420"/>
<text xml:space="preserve" text-anchor="middle" x="28.62" y="-398.5" font-family="Arial" font-size="10.00" fill="#1a1a1a">axis label</text>
</g>
<!-- attr_5 -->
<g id="node11" class="node">
<title>attr_5</title>
<path fill="#c7b8e6" stroke="#7f8c8d" stroke-width="1.2" d="M222,-420C222,-420 115.25,-420 115.25,-420 109.25,-420 103.25,-414 103.25,-408 103.25,-408 103.25,-396 103.25,-396 103.25,-390 109.25,-384 115.25,-384 115.25,-384 222,-384 222,-384 228,-384 234,-390 234,-396 234,-396 234,-408 234,-408 234,-414 228,-420 222,-420"/>
<text xml:space="preserve" text-anchor="middle" x="168.62" y="-398.5" font-family="Arial" font-size="10.00" fill="#1a1a1a">(+) adds visual complexity</text>
</g>
<!-- text.axis_label&#45;&gt;attr_5 -->
<g id="edge6" class="edge">
<title>text.axis_label&#45;&gt;attr_5</title>
<path fill="none" stroke="#aaaaaa" d="M57.88,-402C68.56,-402 81.26,-402 94.17,-402"/>
<polygon fill="#aaaaaa" stroke="#aaaaaa" points="94.15,-404.45 101.15,-402 94.15,-399.55 94.15,-404.45"/>
</g>
<!-- rel_0&#45;&gt;mark.bar -->
<g id="edge8" class="edge">
<title>rel_0&#45;&gt;mark.bar</title>
<path fill="none" stroke="#d46a6a" stroke-width="1.5" d="M237.38,-263.68C256.73,-259.59 277.07,-255.29 293.8,-251.76"/>
<polygon fill="#d46a6a" stroke="#d46a6a" stroke-width="1.5" points="294.23,-254.53 301.48,-250.13 293.07,-249.05 294.23,-254.53"/>
</g>
<!-- rel_1&#45;&gt;mark.bar -->
<g id="edge10" class="edge">
<title>rel_1&#45;&gt;mark.bar</title>
<path fill="none" stroke="#d46a6a" stroke-width="1.5" d="M218.98,-36.51C225.52,-40.32 231.77,-44.8 237,-50 284.78,-97.51 311.63,-174.28 323.33,-215.56"/>
<polygon fill="#d46a6a" stroke="#d46a6a" stroke-width="1.5" points="320.57,-216.08 325.39,-223.06 325.98,-214.61 320.57,-216.08"/>
</g>
<!-- rel_2&#45;&gt;furniture.legend -->
<g id="edge12" class="edge">
<title>rel_2&#45;&gt;furniture.legend</title>
<path fill="none" stroke="#d46a6a" stroke-width="1.5" d="M383.31,-338.41C429.76,-335.8 499.9,-328.96 558.25,-311 569.57,-307.52 581.28,-302.28 591.76,-296.91"/>
<polygon fill="#d46a6a" stroke="#d46a6a" stroke-width="1.5" points="592.87,-299.5 598.62,-293.27 590.24,-294.55 592.87,-299.5"/>
</g>
<!-- rel_3&#45;&gt;furniture.legend -->
<g id="edge14" class="edge">
<title>rel_3&#45;&gt;furniture.legend</title>
<path fill="none" stroke="#d46a6a" stroke-width="1.5" d="M532.64,-231.56C551.33,-240.34 573.47,-250.74 591.63,-259.27"/>
<polygon fill="#d46a6a" stroke="#d46a6a" stroke-width="1.5" points="590.24,-261.71 598.68,-262.58 592.63,-256.64 590.24,-261.71"/>
</g>
</g>
</svg>
