<?xml version="1.0" encoding="UTF-8" standalone="no"?>
<!DOCTYPE svg PUBLIC "-//W3C//DTD SVG 1.1//EN"
 "http://www.w3.org/Graphics/SVG/1.1/DTD/svg11.dtd">
<!-- Generated by graphviz version 14.1.5 (20260411.2331)
 -->
<!-- Title: whoB17_1.png Pages: 1 -->
<svg width="541pt" height="505pt"
 viewBox="0.00 0.00 541.00 505.00" xmlns="http://www.w3.org/2000/svg" xmlns:xlink="http://www.w3.org/1999/xlink">
<g id="graph0" class="graph" transform="scale(1 1) rotate(0) translate(4 501.25)">
<title>whoB17_1.png</title>
<polygon fill="white" stroke="none" points="-4,4 -4,-501.25 537.25,-501.25 537.25,4 -4,4"/>
<text xml:space="preserve" text-anchor="start" x="218.62" y="-476.95" font-family="Arial" font-weight="bold" font-size="14.00">whoB17_1.png</text>
<text xml:space="preserve" text-anchor="start" x="225.75" y="-457" font-family="Arial" font-size="11.00">Bar &#160;| &#160;VC = 0.52</text>
<path fill="#b8e6b8" stroke="none" d="M57.25,-432C57.25,-432 65.25,-432 65.25,-432 68.25,-432 71.25,-435 71.25,-438 71.25,-438 71.25,-444 71.25,-444 71.25,-447 68.25,-450 65.25,-450 65.25,-450 57.25,-450 57.25,-450 54.25,-450 51.25,-447 51.25,-444 51.25,-444 51.25,-438 51.25,-438 51.25,-435 54.25,-432 57.25,-432"/>
<path fill="none" stroke="black" d="M57.25,-432C57.25,-432 65.25,-432 65.25,-432 68.25,-432 71.25,-435 71.25,-438 71.25,-438 71.25,-444 71.25,-444 71.25,-447 68.25,-450 65.25,-450 65.25,-450 57.25,-450 57.25,-450 54.25,-450 51.25,-447 51.25,-444 51.25,-444 51.25,-438 51.25,-438 51.25,-435 54.25,-432 57.25,-432"/>
<text xml:space="preserve" text-anchor="start" x="59.75" y="-437.25" font-family="Arial" font-size="10.00"> </text>
<text xml:space="preserve" text-anchor="start" x="75.25" y="-437.25" font-family="Arial" font-size="10.00">Object</text>
<path fill="#c7b8e6" stroke="none" d="M113.75,-432C113.75,-432 121.75,-432 121.75,-432 124.75,-432 127.75,-435 127.75,-438 127.75,-438 127.75,-444 127.75,-444 127.75,-447 124.75,-450 121.75,-450 121.75,-450 113.75,-450 113.75,-450 110.75,-450 107.75,-447 107.75,-444 107.75,-444 107.75,-438 107.75,-438 107.75,-435 110.75,-432 113.75,-432"/>
<path fill="none" stroke="black" d="M113.75,-432C113.75,-432 121.75,-432 121.75,-432 124.75,-432 127.75,-435 127.75,-438 127.75,-438 127.75,-444 127.75,-444 127.75,-447 124.75,-450 121.75,-450 121.75,-450 113.75,-450 113.75,-450 110.75,-450 107.75,-447 107.75,-444 107.75,-444 107.75,-438 107.75,-438 107.75,-435 110.75,-432 113.75,-432"/>
<text xml:space="preserve" text-anchor="start" x="116.25" y="-437.25" font-family="Arial" font-size="10.00"> </text>
<text xml:space="preserve" text-anchor="start" x="131.75" y="-437.25" font-family="Arial" font-size="10.00">Attribute</text>
<path fill="#f5b8b8" stroke="none" d="M178.5,-432C178.5,-432 186.5,-432 186.5,-432 189.5,-432 192.5,-435 192.5,-438 192.5,-438 192.5,-444 192.5,-444 192.5,-447 189.5,-450 186.5,-450 186.5,-450 178.5,-450 178.5,-450 175.5,-450 172.5,-447 172.5,-444 172.5,-444 172.5,-438 172.5,-438 172.5,-435 175.5,-432 178.5,-432"/>
<path fill="none" stroke="black" d="M178.5,-432C178.5,-432 186.5,-432 186.5,-432 189.5,-432 192.5,-435 192.5,-438 192.5,-438 192.5,-444 192.5,-444 192.5,-447 189.5,-450 186.5,-450 186.5,-450 178.5,-450 178.5,-450 175.5,-450 172.5,-447 172.5,-444 172.5,-444 172.5,-438 172.5,-438 172.5,-435 175.5,-432 178.5,-432"/>
<text xml:space="preserve" text-anchor="start" x="181" y="-437.25" font-family="Arial" font-size="10.00"> </text>
<text xml:space="preserve" text-anchor="start" x="196.5" y="-437.25" font-family="Arial" font-size="10.00">Relationship</text>
<text xml:space="preserve" text-anchor="start" x="256.5" y="-438.5" font-family="Arial" font-weight="bold" font-size="10.00">(+)</text>
<text xml:space="preserve" text-anchor="start" x="268.5" y="-438.5" font-family="Arial" font-size="10.00"> increases complexity</text>
<text xml:space="preserve" text-anchor="start" x="369.75" y="-438.5" font-family="Arial" font-weight="bold" font-size="10.00">(−)</text>
<text xml:space="preserve" text-anchor="start" x="381.75" y="-438.5" font-family="Arial" font-size="10.00"> decreases complexity</text>
<!-- mark.bar -->
<g id="node1" class="node">
<title>mark.bar</title>
<path fill="#b8e6b8" stroke="#2c3e50" stroke-width="1.8" d="M342.25,-166C342.25,-166 312.25,-166 312.25,-166 306.25,-166 300.25,-160 300.25,-154 300.25,-154 300.25,-142 300.25,-142 300.25,-136 306.25,-130 312.25,-130 312.25,-130 342.25,-130 342.25,-130 348.25,-130 354.25,-136 354.25,-142 354.25,-142 354.25,-154 354.25,-154 354.25,-160 348.25,-166 342.25,-166"/>
<text xml:space="preserve" text-anchor="middle" x="327.25" y="-144.5" font-family="Arial" font-size="10.00" fill="#1a1a1a">bar</text>
</g>
<!-- attr_0 -->
<g id="node6" class="node">
<title>attr_0</title>
<path fill="#c7b8e6" stroke="#7f8c8d" stroke-width="1.2" d="M521.25,-166C521.25,-166 409.25,-166 409.25,-166 403.25,-166 397.25,-160 397.25,-154 397.25,-154 397.25,-142 397.25,-142 397.25,-136 403.25,-130 409.25,-130 409.25,-130 521.25,-130 521.25,-130 527.25,-130 533.25,-136 533.25,-142 533.25,-142 533.25,-154 533.25,-154 533.25,-160 527.25,-166 521.25,-166"/>
<text xml:space="preserve" text-anchor="middle" x="465.25" y="-144.5" font-family="Arial" font-size="10.00" fill="#1a1a1a">(+) moderate element count</text>
</g>
<!-- mark.bar&#45;&gt;attr_0 -->
<g id="edge1" class="edge">
<title>mark.bar&#45;&gt;attr_0</title>
<path fill="none" stroke="#aaaaaa" d="M355.12,-148C364.93,-148 376.57,-148 388.54,-148"/>
<polygon fill="#aaaaaa" stroke="#aaaaaa" points="388.34,-150.45 395.34,-148 388.34,-145.55 388.34,-150.45"/>
</g>
<!-- text.axis_label -->
<g id="node2" class="node">
<title>text.axis_label</title>
<path fill="#b8e6b8" stroke="#2c3e50" stroke-width="1.8" d="M45.25,-198C45.25,-198 12,-198 12,-198 6,-198 0,-192 0,-186 0,-186 0,-174 0,-174 0,-168 6,-162 12,-162 12,-162 45.25,-162 45.25,-162 51.25,-162 57.25,-168 57.25,-174 57.25,-174 57.25,-186 57.25,-186 57.25,-192 51.25,-198 45.25,-198"/>
<text xml:space="preserve" text-anchor="middle" x="28.62" y="-176.5" font-family="Arial" font-size="10.00" fill="#1a1a1a">axis label</text>
</g>
<!-- attr_1 -->
<g id="node7" class="node">
<title>attr_1</title>
<path fill="#c7b8e6" stroke="#7f8c8d" stroke-width="1.2" d="M232.88,-231C232.88,-231 124.62,-231 124.62,-231 118.62,-231 112.62,-225 112.62,-219 112.62,-219 112.62,-207 112.62,-207 112.62,-201 118.62,-195 124.62,-195 124.62,-195 232.88,-195 232.88,-195 238.88,-195 244.88,-201 244.88,-207 244.88,-207 244.88,-219 244.88,-219 244.88,-225 238.88,-231 232.88,-231"/>
<text xml:space="preserve" text-anchor="middle" x="178.75" y="-209.5" font-family="Arial" font-size="10.00" fill="#1a1a1a">(+) requires careful reading</text>
</g>
<!-- text.axis_label&#45;&gt;attr_1 -->
<g id="edge2" class="edge">
<title>text.axis_label&#45;&gt;attr_1</title>
<path fill="none" stroke="#aaaaaa" d="M57.83,-186.28C71.11,-189.24 87.62,-192.92 104.1,-196.59"/>
<polygon fill="#aaaaaa" stroke="#aaaaaa" points="103.34,-198.93 110.7,-198.06 104.4,-194.15 103.34,-198.93"/>
</g>
<!-- rel_1 -->
<g id="node12" class="node">
<title>rel_1</title>
<path fill="#f5b8b8" stroke="#d46a6a" stroke-width="1.2" d="M215.25,-166C215.25,-166 142.25,-166 142.25,-166 136.25,-166 130.25,-160 130.25,-154 130.25,-154 130.25,-142 130.25,-142 130.25,-136 136.25,-130 142.25,-130 142.25,-130 215.25,-130 215.25,-130 221.25,-130 227.25,-136 227.25,-142 227.25,-142 227.25,-154 227.25,-154 227.25,-160 221.25,-166 215.25,-166"/>
<text xml:space="preserve" text-anchor="middle" x="178.75" y="-144.5" font-family="Arial" font-size="10.00" fill="#8b0000">increases effort for</text>
</g>
<!-- text.axis_label&#45;&gt;rel_1 -->
<g id="edge8" class="edge">
<title>text.axis_label&#45;&gt;rel_1</title>
<path fill="none" stroke="#d46a6a" stroke-width="1.5" d="M57.83,-173.91C75.37,-170.12 98.56,-165.11 119.87,-160.5"/>
<polygon fill="#d46a6a" stroke="#d46a6a" stroke-width="1.5" points="120.38,-163.26 127.61,-158.83 119.2,-157.79 120.38,-163.26"/>
</g>
<!-- furniture.legend -->
<g id="node3" class="node">
<title>furniture.legend</title>
<path fill="#b8e6b8" stroke="#2c3e50" stroke-width="1.8" d="M43.62,-328C43.62,-328 13.62,-328 13.62,-328 7.62,-328 1.62,-322 1.62,-316 1.62,-316 1.62,-304 1.62,-304 1.62,-298 7.62,-292 13.62,-292 13.62,-292 43.62,-292 43.62,-292 49.62,-292 55.62,-298 55.62,-304 55.62,-304 55.62,-316 55.62,-316 55.62,-322 49.62,-328 43.62,-328"/>
<text xml:space="preserve" text-anchor="middle" x="28.62" y="-306.5" font-family="Arial" font-size="10.00" fill="#1a1a1a">legend</text>
</g>
<!-- attr_2 -->
<g id="node8" class="node">
<title>attr_2</title>
<path fill="#c7b8e6" stroke="#7f8c8d" stroke-width="1.2" d="M232.88,-361C232.88,-361 124.62,-361 124.62,-361 118.62,-361 112.62,-355 112.62,-349 112.62,-349 112.62,-337 112.62,-337 112.62,-331 118.62,-325 124.62,-325 124.62,-325 232.88,-325 232.88,-325 238.88,-325 244.88,-331 244.88,-337 244.88,-337 244.88,-349 244.88,-349 244.88,-355 238.88,-361 232.88,-361"/>
<text xml:space="preserve" text-anchor="middle" x="178.75" y="-339.5" font-family="Arial" font-size="10.00" fill="#1a1a1a">(+) adds interpretation load</text>
</g>
<!-- furniture.legend&#45;&gt;attr_2 -->
<g id="edge3" class="edge">
<title>furniture.legend&#45;&gt;attr_2</title>
<path fill="none" stroke="#aaaaaa" d="M56.45,-315.98C70.04,-319 87.28,-322.84 104.46,-326.67"/>
<polygon fill="#aaaaaa" stroke="#aaaaaa" points="103.49,-328.97 110.85,-328.1 104.56,-324.18 103.49,-328.97"/>
</g>
<!-- rel_0 -->
<g id="node11" class="node">
<title>rel_0</title>
<path fill="#f5b8b8" stroke="#d46a6a" stroke-width="1.2" d="M216.38,-296C216.38,-296 141.12,-296 141.12,-296 135.12,-296 129.12,-290 129.12,-284 129.12,-284 129.12,-272 129.12,-272 129.12,-266 135.12,-260 141.12,-260 141.12,-260 216.38,-260 216.38,-260 222.38,-260 228.38,-266 228.38,-272 228.38,-272 228.38,-284 228.38,-284 228.38,-290 222.38,-296 216.38,-296"/>
<text xml:space="preserve" text-anchor="middle" x="178.75" y="-274.5" font-family="Arial" font-size="10.00" fill="#8b0000">requires reading for</text>
</g>
<!-- furniture.legend&#45;&gt;rel_0 -->
<g id="edge6" class="edge">
<title>furniture.legend&#45;&gt;rel_0</title>
<path fill="none" stroke="#d46a6a" stroke-width="1.5" d="M56.45,-304.21C73.87,-300.44 97.28,-295.38 118.89,-290.72"/>
<polygon fill="#d46a6a" stroke="#d46a6a" stroke-width="1.5" points="119.21,-293.51 126.44,-289.08 118.03,-288.04 119.21,-293.51"/>
</g>
<!-- text.label -->
<g id="node4" class="node">
<title>text.label</title>
<path fill="#b8e6b8" stroke="#2c3e50" stroke-width="1.8" d="M43.62,-68C43.62,-68 13.62,-68 13.62,-68 7.62,-68 1.62,-62 1.62,-56 1.62,-56 1.62,-44 1.62,-44 1.62,-38 7.62,-32 13.62,-32 13.62,-32 43.62,-32 43.62,-32 49.62,-32 55.62,-38 55.62,-44 55.62,-44 55.62,-56 55.62,-56 55.62,-62 49.62,-68 43.62,-68"/>
<text xml:space="preserve" text-anchor="middle" x="28.62" y="-46.5" font-family="Arial" font-size="10.00" fill="#1a1a1a">text</text>
</g>
<!-- attr_3 -->
<g id="node9" class="node">
<title>attr_3</title>
<path fill="#c7b8e6" stroke="#7f8c8d" stroke-width="1.2" d="M229.5,-101C229.5,-101 128,-101 128,-101 122,-101 116,-95 116,-89 116,-89 116,-77 116,-77 116,-71 122,-65 128,-65 128,-65 229.5,-65 229.5,-65 235.5,-65 241.5,-71 241.5,-77 241.5,-77 241.5,-89 241.5,-89 241.5,-95 235.5,-101 229.5,-101"/>
<text xml:space="preserve" text-anchor="middle" x="178.75" y="-79.5" font-family="Arial" font-size="10.00" fill="#1a1a1a">(+) moderate text volume</text>
</g>
<!-- text.label&#45;&gt;attr_3 -->
<g id="edge4" class="edge">
<title>text.label&#45;&gt;attr_3</title>
<path fill="none" stroke="#aaaaaa" d="M56.45,-55.98C70.76,-59.17 89.12,-63.25 107.2,-67.28"/>
<polygon fill="#aaaaaa" stroke="#aaaaaa" points="106.62,-69.66 113.99,-68.8 107.69,-64.88 106.62,-69.66"/>
</g>
<!-- rel_2 -->
<g id="node13" class="node">
<title>rel_2</title>
<path fill="#f5b8b8" stroke="#d46a6a" stroke-width="1.2" d="M228.75,-36C228.75,-36 128.75,-36 128.75,-36 122.75,-36 116.75,-30 116.75,-24 116.75,-24 116.75,-12 116.75,-12 116.75,-6 122.75,0 128.75,0 128.75,0 228.75,0 228.75,0 234.75,0 240.75,-6 240.75,-12 240.75,-12 240.75,-24 240.75,-24 240.75,-30 234.75,-36 228.75,-36"/>
<text xml:space="preserve" text-anchor="middle" x="178.75" y="-14.5" font-family="Arial" font-size="10.00" fill="#8b0000">supports interpretation of</text>
</g>
<!-- text.label&#45;&gt;rel_2 -->
<g id="edge10" class="edge">
<title>text.label&#45;&gt;rel_2</title>
<path fill="none" stroke="#d46a6a" stroke-width="1.5" d="M56.45,-44.21C70.59,-41.15 88.67,-37.24 106.53,-33.39"/>
<polygon fill="#d46a6a" stroke="#d46a6a" stroke-width="1.5" points="106.96,-36.16 114.18,-31.73 105.77,-30.68 106.96,-36.16"/>
</g>
<!-- property.color -->
<g id="node5" class="node">
<title>property.color</title>
<path fill="#b8e6b8" stroke="#2c3e50" stroke-width="1.8" d="M43.62,-426C43.62,-426 13.62,-426 13.62,-426 7.62,-426 1.62,-420 1.62,-414 1.62,-414 1.62,-402 1.62,-402 1.62,-396 7.62,-390 13.62,-390 13.62,-390 43.62,-390 43.62,-390 49.62,-390 55.62,-396 55.62,-402 55.62,-402 55.62,-414 55.62,-414 55.62,-420 49.62,-426 43.62,-426"/>
<text xml:space="preserve" text-anchor="middle" x="28.62" y="-404.5" font-family="Arial" font-size="10.00" fill="#1a1a1a">color</text>
</g>
<!-- attr_4 -->
<g id="node10" class="node">
<title>attr_4</title>
<path fill="#c7b8e6" stroke="#7f8c8d" stroke-width="1.2" d="M245.25,-426C245.25,-426 112.25,-426 112.25,-426 106.25,-426 100.25,-420 100.25,-414 100.25,-414 100.25,-402 100.25,-402 100.25,-396 106.25,-390 112.25,-390 112.25,-390 245.25,-390 245.25,-390 251.25,-390 257.25,-396 257.25,-402 257.25,-402 257.25,-414 257.25,-414 257.25,-420 251.25,-426 245.25,-426"/>
<text xml:space="preserve" text-anchor="middle" x="178.75" y="-404.5" font-family="Arial" font-size="10.00" fill="#1a1a1a">(−) distinguishable color scheme</text>
</g>
<!-- property.color&#45;&gt;attr_4 -->
<g id="edge5" class="edge">
<title>property.color&#45;&gt;attr_4</title>
<path fill="none" stroke="#aaaaaa" d="M56.45,-408C66.57,-408 78.71,-408 91.35,-408"/>
<polygon fill="#aaaaaa" stroke="#aaaaaa" points="91.19,-410.45 98.19,-408 91.19,-405.55 91.19,-410.45"/>
</g>
<!-- rel_0&#45;&gt;mark.bar -->
<g id="edge7" class="edge">
<title>rel_0&#45;&gt;mark.bar</title>
<path fill="none" stroke="#d46a6a" stroke-width="1.5" d="M228.81,-262.68C238.81,-258.24 248.84,-252.73 257.25,-246 281.18,-226.87 300.4,-197.33 312.42,-175.69"/>
<polygon fill="#d46a6a" stroke="#d46a6a" stroke-width="1.5" points="314.88,-177.03 316.2,-168.65 309.95,-174.37 314.88,-177.03"/>
</g>
<!-- rel_1&#45;&gt;mark.bar -->
<g id="edge9" class="edge">
<title>rel_1&#45;&gt;mark.bar</title>
<path fill="none" stroke="#d46a6a" stroke-width="1.5" d="M227.72,-148C247.76,-148 270.69,-148 289.37,-148"/>
<polygon fill="#d46a6a" stroke="#d46a6a" stroke-width="1.5" points="289.29,-150.8 297.28,-148 289.28,-145.2 289.29,-150.8"/>
</g>
<!-- rel_2&#45;&gt;mark.bar -->
<g id="edge11" class="edge">
<title>rel_2&#45;&gt;mark.bar</title>
<path fill="none" stroke="#d46a6a" stroke-width="1.5" d="M235.69,-36.55C243.33,-40.36 250.77,-44.82 257.25,-50 281.18,-69.13 300.4,-98.67 312.42,-120.31"/>
<polygon fill="#d46a6a" stroke="#d46a6a" stroke-width="1.5" points="309.95,-121.63 316.2,-127.35 314.88,-118.97 309.95,-121.63"/>
</g>
</g>
</svg>
