<?xml version="1.0" encoding="UTF-8" standalone="no"?>
<!DOCTYPE svg PUBLIC "-//W3C//DTD SVG 1.1//EN"
 "http://www.w3.org/Graphics/SVG/1.1/DTD/svg11.dtd">
<!-- Generated by graphviz version 14.1.5 (20260411.2331)
 -->
<!-- Title: whoI19.png Pages: 1 -->
<svg width="572pt" height="505pt"
 viewBox="0.00 0.00 572.00 505.00" xmlns="http://www.w3.org/2000/svg" xmlns:xlink="http://www.w3.org/1999/xlink">
<g id="graph0" class="graph" transform="scale(1 1) rotate(0) translate(4 501.25)">
<title>whoI19.png</title>
<polygon fill="white" stroke="none" points="-4,4 -4,-501.25 568.25,-501.25 568.25,4 -4,4"/>
<text xml:space="preserve" text-anchor="start" x="244.62" y="-476.95" font-family="Arial" font-weight="bold" font-size="14.00">whoI19.png</text>
<text xml:space="preserve" text-anchor="start" x="239.75" y="-457" font-family="Arial" font-size="11.00">Line &#160;| &#160;VC = 0.49</text>
<path fill="#b8e6b8" stroke="none" d="M72.75,-432C72.75,-432 80.75,-432 80.75,-432 83.75,-432 86.75,-435 86.75,-438 86.75,-438 86.75,-444 86.75,-444 86.75,-447 83.75,-450 80.75,-450 80.75,-450 72.75,-450 72.75,-450 69.75,-450 66.75,-447 66.75,-444 66.75,-444 66.75,-438 66.75,-438 66.75,-435 69.75,-432 72.75,-432"/>
<path fill="none" stroke="black" d="M72.75,-432C72.75,-432 80.75,-432 80.75,-432 83.75,-432 86.75,-435 86.75,-438 86.75,-438 86.75,-444 86.75,-444 86.75,-447 83.75,-450 80.75,-450 80.75,-450 72.75,-450 72.75,-450 69.75,-450 66.75,-447 66.75,-444 66.75,-444 66.75,-438 66.75,-438 66.75,-435 69.75,-432 72.75,-432"/>
<text xml:space="preserve" text-anchor="start" x="75.25" y="-437.25" font-family="Arial" font-size="10.00"> </text>
<text xml:space="preserve" text-anchor="start" x="90.75" y="-437.25" font-family="Arial" font-size="10.00">Object</text>
<path fill="#c7b8e6" stroke="none" d="M129.25,-432C129.25,-432 137.25,-432 137.25,-432 140.25,-432 143.25,-435 143.25,-438 143.25,-438 143.25,-444 143.25,-444 143.25,-447 140.25,-450 137.25,-450 137.25,-450 129.25,-450 129.25,-450 126.25,-450 123.25,-447 123.25,-444 123.25,-444 123.25,-438 123.25,-438 123.25,-435 126.25,-432 129.25,-432"/>
<path fill="none" stroke="black" d="M129.25,-432C129.25,-432 137.25,-432 137.25,-432 140.25,-432 143.25,-435 143.25,-438 143.25,-438 143.25,-444 143.25,-444 143.25,-447 140.25,-450 137.25,-450 137.25,-450 129.25,-450 129.25,-450 126.25,-450 123.25,-447 123.25,-444 123.25,-444 123.25,-438 123.25,-438 123.25,-435 126.25,-432 129.25,-432"/>
<text xml:space="preserve" text-anchor="start" x="131.75" y="-437.25" font-family="Arial" font-size="10.00"> </text>
<text xml:space="preserve" text-anchor="start" x="147.25" y="-437.25" font-family="Arial" font-size="10.00">Attribute</text>
<path fill="#f5b8b8" stroke="none" d="M194,-432C194,-432 202,-432 202,-432 205,-432 208,-435 208,-438 208,-438 208,-444 208,-444 208,-447 205,-450 202,-450 202,-450 194,-450 194,-450 191,-450 188,-447 188,-444 188,-444 188,-438 188,-438 188,-435 191,-432 194,-432"/>
<path fill="none" stroke="black" d="M194,-432C194,-432 202,-432 202,-432 205,-432 208,-435 208,-438 208,-438 208,-444 208,-444 208,-447 205,-450 202,-450 202,-450 194,-450 194,-450 191,-450 188,-447 188,-444 188,-444 188,-438 188,-438 188,-435 191,-432 194,-432"/>
<text xml:space="preserve" text-anchor="start" x="196.5" y="-437.25" font-family="Arial" font-size="10.00"> </text>
<text xml:space="preserve" text-anchor="start" x="212" y="-437.25" font-family="Arial" font-size="10.00">Relationship</text>
<text xml:space="preserve" text-anchor="start" x="272" y="-438.5" font-family="Arial" font-weight="bold" font-size="10.00">(+)</text>
<text xml:space="preserve" text-anchor="start" x="284" y="-438.5" font-family="Arial" font-size="10.00"> increases complexity</text>
<text xml:space="preserve" text-anchor="start" x="385.25" y="-438.5" font-family="Arial" font-weight="bold" font-size="10.00">(−)</text>
<text xml:space="preserve" text-anchor="start" x="397.25" y="-438.5" font-family="Arial" font-size="10.00"> decreases complexity</text>
<!-- mark.line -->
<g id="node1" class="node">
<title>mark.line</title>
<path fill="#b8e6b8" stroke="#2c3e50" stroke-width="1.8" d="M50,-328C50,-328 20,-328 20,-328 14,-328 8,-322 8,-316 8,-316 8,-304 8,-304 8,-298 14,-292 20,-292 20,-292 50,-292 50,-292 56,-292 62,-298 62,-304 62,-304 62,-316 62,-316 62,-322 56,-328 50,-328"/>
<text xml:space="preserve" text-anchor="middle" x="35" y="-306.5" font-family="Arial" font-size="10.00" fill="#1a1a1a">line</text>
</g>
<!-- attr_4 -->
<g id="node6" class="node">
<title>attr_4</title>
<path fill="#c7b8e6" stroke="#7f8c8d" stroke-width="1.2" d="M217.88,-361C217.88,-361 136.62,-361 136.62,-361 130.62,-361 124.62,-355 124.62,-349 124.62,-349 124.62,-337 124.62,-337 124.62,-331 130.62,-325 136.62,-325 136.62,-325 217.88,-325 217.88,-325 223.88,-325 229.88,-331 229.88,-337 229.88,-337 229.88,-349 229.88,-349 229.88,-355 223.88,-361 217.88,-361"/>
<text xml:space="preserve" text-anchor="middle" x="177.25" y="-339.5" font-family="Arial" font-size="10.00" fill="#1a1a1a">(−) sparse data lines</text>
</g>
<!-- mark.line&#45;&gt;attr_4 -->
<g id="edge1" class="edge">
<title>mark.line&#45;&gt;attr_4</title>
<path fill="none" stroke="#aaaaaa" d="M62.71,-316.28C77.8,-319.84 97.32,-324.43 115.9,-328.8"/>
<polygon fill="#aaaaaa" stroke="#aaaaaa" points="115.22,-331.16 122.6,-330.38 116.35,-326.39 115.22,-331.16"/>
</g>
<!-- rel_3 -->
<g id="node15" class="node">
<title>rel_3</title>
<path fill="#f5b8b8" stroke="#d46a6a" stroke-width="1.2" d="M192.25,-296C192.25,-296 162.25,-296 162.25,-296 156.25,-296 150.25,-290 150.25,-284 150.25,-284 150.25,-272 150.25,-272 150.25,-266 156.25,-260 162.25,-260 162.25,-260 192.25,-260 192.25,-260 198.25,-260 204.25,-266 204.25,-272 204.25,-272 204.25,-284 204.25,-284 204.25,-290 198.25,-296 192.25,-296"/>
<text xml:space="preserve" text-anchor="middle" x="177.25" y="-274.5" font-family="Arial" font-size="10.00" fill="#8b0000">supports</text>
</g>
<!-- mark.line&#45;&gt;rel_3 -->
<g id="edge13" class="edge">
<title>mark.line&#45;&gt;rel_3</title>
<path fill="none" stroke="#d46a6a" stroke-width="1.5" d="M62.71,-303.91C84.69,-298.89 116.04,-291.74 140.23,-286.22"/>
<polygon fill="#d46a6a" stroke="#d46a6a" stroke-width="1.5" points="140.72,-288.98 147.9,-284.47 139.48,-283.52 140.72,-288.98"/>
</g>
<!-- unknown.axes -->
<g id="node2" class="node">
<title>unknown.axes</title>
<path fill="#b8e6b8" stroke="#2c3e50" stroke-width="1.8" d="M50,-68C50,-68 20,-68 20,-68 14,-68 8,-62 8,-56 8,-56 8,-44 8,-44 8,-38 14,-32 20,-32 20,-32 50,-32 50,-32 56,-32 62,-38 62,-44 62,-44 62,-56 62,-56 62,-62 56,-68 50,-68"/>
<text xml:space="preserve" text-anchor="middle" x="35" y="-46.5" font-family="Arial" font-size="10.00" fill="#1a1a1a">axes</text>
</g>
<!-- attr_1 -->
<g id="node7" class="node">
<title>attr_1</title>
<path fill="#c7b8e6" stroke="#7f8c8d" stroke-width="1.2" d="M222.38,-101C222.38,-101 132.12,-101 132.12,-101 126.12,-101 120.12,-95 120.12,-89 120.12,-89 120.12,-77 120.12,-77 120.12,-71 126.12,-65 132.12,-65 132.12,-65 222.38,-65 222.38,-65 228.38,-65 234.38,-71 234.38,-77 234.38,-77 234.38,-89 234.38,-89 234.38,-95 228.38,-101 222.38,-101"/>
<text xml:space="preserve" text-anchor="middle" x="177.25" y="-79.5" font-family="Arial" font-size="10.00" fill="#1a1a1a">(−) fewer axes present</text>
</g>
<!-- unknown.axes&#45;&gt;attr_1 -->
<g id="edge2" class="edge">
<title>unknown.axes&#45;&gt;attr_1</title>
<path fill="none" stroke="#aaaaaa" d="M62.71,-56.28C76.7,-59.58 94.49,-63.76 111.82,-67.84"/>
<polygon fill="#aaaaaa" stroke="#aaaaaa" points="110.88,-70.14 118.26,-69.35 112.01,-65.37 110.88,-70.14"/>
</g>
<!-- rel_1 -->
<g id="node13" class="node">
<title>rel_1</title>
<path fill="#f5b8b8" stroke="#d46a6a" stroke-width="1.2" d="M193.88,-36C193.88,-36 160.62,-36 160.62,-36 154.62,-36 148.62,-30 148.62,-24 148.62,-24 148.62,-12 148.62,-12 148.62,-6 154.62,0 160.62,0 160.62,0 193.88,0 193.88,0 199.88,0 205.88,-6 205.88,-12 205.88,-12 205.88,-24 205.88,-24 205.88,-30 199.88,-36 193.88,-36"/>
<text xml:space="preserve" text-anchor="middle" x="177.25" y="-14.5" font-family="Arial" font-size="10.00" fill="#8b0000">simplifies</text>
</g>
<!-- unknown.axes&#45;&gt;rel_1 -->
<g id="edge9" class="edge">
<title>unknown.axes&#45;&gt;rel_1</title>
<path fill="none" stroke="#d46a6a" stroke-width="1.5" d="M62.71,-43.91C84.13,-39.02 114.46,-32.1 138.38,-26.64"/>
<polygon fill="#d46a6a" stroke="#d46a6a" stroke-width="1.5" points="138.81,-29.42 145.98,-24.91 137.56,-23.96 138.81,-29.42"/>
</g>
<!-- unknown.country_data -->
<g id="node3" class="node">
<title>unknown.country_data</title>
<path fill="#b8e6b8" stroke="#2c3e50" stroke-width="1.8" d="M58,-198C58,-198 12,-198 12,-198 6,-198 0,-192 0,-186 0,-186 0,-174 0,-174 0,-168 6,-162 12,-162 12,-162 58,-162 58,-162 64,-162 70,-168 70,-174 70,-174 70,-186 70,-186 70,-192 64,-198 58,-198"/>
<text xml:space="preserve" text-anchor="middle" x="35" y="-176.5" font-family="Arial" font-size="10.00" fill="#1a1a1a">country data</text>
</g>
<!-- attr_0 -->
<g id="node8" class="node">
<title>attr_0</title>
<path fill="#c7b8e6" stroke="#7f8c8d" stroke-width="1.2" d="M226.12,-231C226.12,-231 128.38,-231 128.38,-231 122.38,-231 116.38,-225 116.38,-219 116.38,-219 116.38,-207 116.38,-207 116.38,-201 122.38,-195 128.38,-195 128.38,-195 226.12,-195 226.12,-195 232.12,-195 238.12,-201 238.12,-207 238.12,-207 238.12,-219 238.12,-219 238.12,-225 232.12,-231 226.12,-231"/>
<text xml:space="preserve" text-anchor="middle" x="177.25" y="-209.5" font-family="Arial" font-size="10.00" fill="#1a1a1a">(−) limited country count</text>
</g>
<!-- unknown.country_data&#45;&gt;attr_0 -->
<g id="edge3" class="edge">
<title>unknown.country_data&#45;&gt;attr_0</title>
<path fill="none" stroke="#aaaaaa" d="M70.67,-188.16C82.02,-190.83 95.06,-193.9 108.01,-196.94"/>
<polygon fill="#aaaaaa" stroke="#aaaaaa" points="107.19,-199.27 114.57,-198.49 108.32,-194.5 107.19,-199.27"/>
</g>
<!-- rel_0 -->
<g id="node12" class="node">
<title>rel_0</title>
<path fill="#f5b8b8" stroke="#d46a6a" stroke-width="1.2" d="M192.25,-166C192.25,-166 162.25,-166 162.25,-166 156.25,-166 150.25,-160 150.25,-154 150.25,-154 150.25,-142 150.25,-142 150.25,-136 156.25,-130 162.25,-130 162.25,-130 192.25,-130 192.25,-130 198.25,-130 204.25,-136 204.25,-142 204.25,-142 204.25,-154 204.25,-154 204.25,-160 198.25,-166 192.25,-166"/>
<text xml:space="preserve" text-anchor="middle" x="177.25" y="-144.5" font-family="Arial" font-size="10.00" fill="#8b0000">reduces</text>
</g>
<!-- unknown.country_data&#45;&gt;rel_0 -->
<g id="edge7" class="edge">
<title>unknown.country_data&#45;&gt;rel_0</title>
<path fill="none" stroke="#d46a6a" stroke-width="1.5" d="M70.67,-172.09C91.72,-167.29 118.56,-161.16 139.91,-156.29"/>
<polygon fill="#d46a6a" stroke="#d46a6a" stroke-width="1.5" points="140.51,-159.03 147.68,-154.52 139.26,-153.57 140.51,-159.03"/>
</g>
<!-- furniture.legend -->
<g id="node4" class="node">
<title>furniture.legend</title>
<path fill="#b8e6b8" stroke="#2c3e50" stroke-width="1.8" d="M50,-426C50,-426 20,-426 20,-426 14,-426 8,-420 8,-414 8,-414 8,-402 8,-402 8,-396 14,-390 20,-390 20,-390 50,-390 50,-390 56,-390 62,-396 62,-402 62,-402 62,-414 62,-414 62,-420 56,-426 50,-426"/>
<text xml:space="preserve" text-anchor="middle" x="35" y="-404.5" font-family="Arial" font-size="10.00" fill="#1a1a1a">legend</text>
</g>
<!-- attr_5 -->
<g id="node9" class="node">
<title>attr_5</title>
<path fill="#c7b8e6" stroke="#7f8c8d" stroke-width="1.2" d="M229.5,-426C229.5,-426 125,-426 125,-426 119,-426 113,-420 113,-414 113,-414 113,-402 113,-402 113,-396 119,-390 125,-390 125,-390 229.5,-390 229.5,-390 235.5,-390 241.5,-396 241.5,-402 241.5,-402 241.5,-414 241.5,-414 241.5,-420 235.5,-426 229.5,-426"/>
<text xml:space="preserve" text-anchor="middle" x="177.25" y="-404.5" font-family="Arial" font-size="10.00" fill="#1a1a1a">(−) minimal legend entries</text>
</g>
<!-- furniture.legend&#45;&gt;attr_5 -->
<g id="edge4" class="edge">
<title>furniture.legend&#45;&gt;attr_5</title>
<path fill="none" stroke="#aaaaaa" d="M62.71,-408C74.71,-408 89.52,-408 104.42,-408"/>
<polygon fill="#aaaaaa" stroke="#aaaaaa" points="104.18,-410.45 111.18,-408 104.18,-405.55 104.18,-410.45"/>
</g>
<!-- unknown.overall_chart -->
<g id="node5" class="node">
<title>unknown.overall_chart</title>
<path fill="#b8e6b8" stroke="#2c3e50" stroke-width="1.8" d="M341.75,-166C341.75,-166 296.5,-166 296.5,-166 290.5,-166 284.5,-160 284.5,-154 284.5,-154 284.5,-142 284.5,-142 284.5,-136 290.5,-130 296.5,-130 296.5,-130 341.75,-130 341.75,-130 347.75,-130 353.75,-136 353.75,-142 353.75,-142 353.75,-154 353.75,-154 353.75,-160 347.75,-166 341.75,-166"/>
<text xml:space="preserve" text-anchor="middle" x="319.12" y="-144.5" font-family="Arial" font-size="10.00" fill="#1a1a1a">overall chart</text>
</g>
<!-- attr_2 -->
<g id="node10" class="node">
<title>attr_2</title>
<path fill="#c7b8e6" stroke="#7f8c8d" stroke-width="1.2" d="M525.62,-264C525.62,-264 435.38,-264 435.38,-264 429.38,-264 423.38,-258 423.38,-252 423.38,-252 423.38,-240 423.38,-240 423.38,-234 429.38,-228 435.38,-228 435.38,-228 525.62,-228 525.62,-228 531.62,-228 537.62,-234 537.62,-240 537.62,-240 537.62,-252 537.62,-252 537.62,-258 531.62,-264 525.62,-264"/>
<text xml:space="preserve" text-anchor="middle" x="480.5" y="-242.5" font-family="Arial" font-size="10.00" fill="#1a1a1a">(−) easy to understand</text>
</g>
<!-- unknown.overall_chart&#45;&gt;attr_2 -->
<g id="edge5" class="edge">
<title>unknown.overall_chart&#45;&gt;attr_2</title>
<path fill="none" stroke="#aaaaaa" d="M338.23,-166.78C352.93,-181.21 374.76,-200.82 396.75,-214 402.96,-217.72 409.68,-221.16 416.51,-224.28"/>
<polygon fill="#aaaaaa" stroke="#aaaaaa" points="415.17,-226.37 422.56,-226.94 417.14,-221.88 415.17,-226.37"/>
</g>
<!-- attr_3 -->
<g id="node11" class="node">
<title>attr_3</title>
<path fill="#c7b8e6" stroke="#7f8c8d" stroke-width="1.2" d="M552.25,-199C552.25,-199 408.75,-199 408.75,-199 402.75,-199 396.75,-193 396.75,-187 396.75,-187 396.75,-175 396.75,-175 396.75,-169 402.75,-163 408.75,-163 408.75,-163 552.25,-163 552.25,-163 558.25,-163 564.25,-169 564.25,-175 564.25,-175 564.25,-187 564.25,-187 564.25,-193 558.25,-199 552.25,-199"/>
<text xml:space="preserve" text-anchor="middle" x="480.5" y="-177.5" font-family="Arial" font-size="10.00" fill="#1a1a1a">(−) low domain knowledge required</text>
</g>
<!-- unknown.overall_chart&#45;&gt;attr_3 -->
<g id="edge6" class="edge">
<title>unknown.overall_chart&#45;&gt;attr_3</title>
<path fill="none" stroke="#aaaaaa" d="M354.31,-155.08C364.42,-157.17 376,-159.57 387.94,-162.04"/>
<polygon fill="#aaaaaa" stroke="#aaaaaa" points="387.41,-164.43 394.76,-163.45 388.41,-159.64 387.41,-164.43"/>
</g>
<!-- rel_2 -->
<g id="node14" class="node">
<title>rel_2</title>
<path fill="#f5b8b8" stroke="#d46a6a" stroke-width="1.2" d="M522.25,-134C522.25,-134 438.75,-134 438.75,-134 432.75,-134 426.75,-128 426.75,-122 426.75,-122 426.75,-110 426.75,-110 426.75,-104 432.75,-98 438.75,-98 438.75,-98 522.25,-98 522.25,-98 528.25,-98 534.25,-104 534.25,-110 534.25,-110 534.25,-122 534.25,-122 534.25,-128 528.25,-134 522.25,-134"/>
<text xml:space="preserve" text-anchor="middle" x="480.5" y="-112.5" font-family="Arial" font-size="10.00" fill="#8b0000">requires low effort for</text>
</g>
<!-- unknown.overall_chart&#45;&gt;rel_2 -->
<g id="edge11" class="edge">
<title>unknown.overall_chart&#45;&gt;rel_2</title>
<path fill="none" stroke="#d46a6a" stroke-width="1.5" d="M354.31,-132.02C372.4,-126.81 395.18,-121.72 416.33,-118.02"/>
<polygon fill="#d46a6a" stroke="#d46a6a" stroke-width="1.5" points="416.57,-120.82 424,-116.74 415.65,-115.29 416.57,-120.82"/>
</g>
<!-- rel_0&#45;&gt;unknown.overall_chart -->
<g id="edge8" class="edge">
<title>rel_0&#45;&gt;unknown.overall_chart</title>
<path fill="none" stroke="#d46a6a" stroke-width="1.5" d="M204.56,-148C223.98,-148 250.88,-148 273.62,-148"/>
<polygon fill="#d46a6a" stroke="#d46a6a" stroke-width="1.5" points="273.46,-150.8 281.46,-148 273.46,-145.2 273.46,-150.8"/>
</g>
<!-- rel_1&#45;&gt;unknown.overall_chart -->
<g id="edge10" class="edge">
<title>rel_1&#45;&gt;unknown.overall_chart</title>
<path fill="none" stroke="#d46a6a" stroke-width="1.5" d="M206.3,-28.97C217.89,-34.29 231.04,-41.41 241.5,-50 266.03,-70.15 287.65,-99.48 301.62,-120.79"/>
<polygon fill="#d46a6a" stroke="#d46a6a" stroke-width="1.5" points="299.23,-122.25 305.9,-127.47 303.94,-119.23 299.23,-122.25"/>
</g>
<!-- rel_2&#45;&gt;unknown.overall_chart -->
<g id="edge12" class="edge">
<title>rel_2&#45;&gt;unknown.overall_chart</title>
<path fill="none" stroke="#d46a6a" stroke-width="1.5" d="M435.95,-134.56C413.66,-140.44 386.59,-145.88 364.23,-148.99"/>
<polygon fill="#d46a6a" stroke="#d46a6a" stroke-width="1.5" points="364.15,-146.18 356.57,-149.96 364.86,-151.74 364.15,-146.18"/>
</g>
<!-- rel_3&#45;&gt;unknown.overall_chart -->
<g id="edge14" class="edge">
<title>rel_3&#45;&gt;unknown.overall_chart</title>
<path fill="none" stroke="#d46a6a" stroke-width="1.5" d="M204.72,-267.75C216.69,-262.35 230.57,-254.98 241.5,-246 266.03,-225.85 287.65,-196.52 301.62,-175.21"/>
<polygon fill="#d46a6a" stroke="#d46a6a" stroke-width="1.5" points="303.94,-176.77 305.9,-168.53 299.23,-173.75 303.94,-176.77"/>
</g>
</g>
</svg>
