<?xml version="1.0" encoding="UTF-8" standalone="no"?>
<!DOCTYPE svg PUBLIC "-//W3C//DTD SVG 1.1//EN"
 "http://www.w3.org/Graphics/SVG/1.1/DTD/svg11.dtd">
<!-- Generated by graphviz version 14.1.5 (20260411.2331)
 -->
<!-- Title: whoJ48_2.png Pages: 1 -->
<svg width="843pt" height="342pt"
 viewBox="0.00 0.00 843.00 342.00" xmlns="http://www.w3.org/2000/svg" xmlns:xlink="http://www.w3.org/1999/xlink">
<g id="graph0" class="graph" transform="scale(1 1) rotate(0) translate(4 338.25)">
<title>whoJ48_2.png</title>
<polygon fill="white" stroke="none" points="-4,4 -4,-338.25 839.25,-338.25 839.25,4 -4,4"/>
<text xml:space="preserve" text-anchor="start" x="370.75" y="-313.95" font-family="Arial" font-weight="bold" font-size="14.00">whoJ48_2.png</text>
<text xml:space="preserve" text-anchor="start" x="373.75" y="-294" font-family="Arial" font-size="11.00">Area &#160;| &#160;VC = 0.60</text>
<path fill="#b8e6b8" stroke="none" d="M208.25,-269C208.25,-269 216.25,-269 216.25,-269 219.25,-269 222.25,-272 222.25,-275 222.25,-275 222.25,-281 222.25,-281 222.25,-284 219.25,-287 216.25,-287 216.25,-287 208.25,-287 208.25,-287 205.25,-287 202.25,-284 202.25,-281 202.25,-281 202.25,-275 202.25,-275 202.25,-272 205.25,-269 208.25,-269"/>
<path fill="none" stroke="black" d="M208.25,-269C208.25,-269 216.25,-269 216.25,-269 219.25,-269 222.25,-272 222.25,-275 222.25,-275 222.25,-281 222.25,-281 222.25,-284 219.25,-287 216.25,-287 216.25,-287 208.25,-287 208.25,-287 205.25,-287 202.25,-284 202.25,-281 202.25,-281 202.25,-275 202.25,-275 202.25,-272 205.25,-269 208.25,-269"/>
<text xml:space="preserve" text-anchor="start" x="210.75" y="-274.25" font-family="Arial" font-size="10.00"> </text>
<text xml:space="preserve" text-anchor="start" x="226.25" y="-274.25" font-family="Arial" font-size="10.00">Object</text>
<path fill="#c7b8e6" stroke="none" d="M264.75,-269C264.75,-269 272.75,-269 272.75,-269 275.75,-269 278.75,-272 278.75,-275 278.75,-275 278.75,-281 278.75,-281 278.75,-284 275.75,-287 272.75,-287 272.75,-287 264.75,-287 264.75,-287 261.75,-287 258.75,-284 258.75,-281 258.75,-281 258.75,-275 258.75,-275 258.75,-272 261.75,-269 264.75,-269"/>
<path fill="none" stroke="black" d="M264.75,-269C264.75,-269 272.75,-269 272.75,-269 275.75,-269 278.75,-272 278.75,-275 278.75,-275 278.75,-281 278.75,-281 278.75,-284 275.75,-287 272.75,-287 272.75,-287 264.75,-287 264.75,-287 261.75,-287 258.75,-284 258.75,-281 258.75,-281 258.75,-275 258.75,-275 258.75,-272 261.75,-269 264.75,-269"/>
<text xml:space="preserve" text-anchor="start" x="267.25" y="-274.25" font-family="Arial" font-size="10.00"> </text>
<text xml:space="preserve" text-anchor="start" x="282.75" y="-274.25" font-family="Arial" font-size="10.00">Attribute</text>
<path fill="#f5b8b8" stroke="none" d="M329.5,-269C329.5,-269 337.5,-269 337.5,-269 340.5,-269 343.5,-272 343.5,-275 343.5,-275 343.5,-281 343.5,-281 343.5,-284 340.5,-287 337.5,-287 337.5,-287 329.5,-287 329.5,-287 326.5,-287 323.5,-284 323.5,-281 323.5,-281 323.5,-275 323.5,-275 323.5,-272 326.5,-269 329.5,-269"/>
<path fill="none" stroke="black" d="M329.5,-269C329.5,-269 337.5,-269 337.5,-269 340.5,-269 343.5,-272 343.5,-275 343.5,-275 343.5,-281 343.5,-281 343.5,-284 340.5,-287 337.5,-287 337.5,-287 329.5,-287 329.5,-287 326.5,-287 323.5,-284 323.5,-281 323.5,-281 323.5,-275 323.5,-275 323.5,-272 326.5,-269 329.5,-269"/>
<text xml:space="preserve" text-anchor="start" x="332" y="-274.25" font-family="Arial" font-size="10.00"> </text>
<text xml:space="preserve" text-anchor="start" x="347.5" y="-274.25" font-family="Arial" font-size="10.00">Relationship</text>
<text xml:space="preserve" text-anchor="start" x="407.5" y="-275.5" font-family="Arial" font-weight="bold" font-size="10.00">(+)</text>
<text xml:space="preserve" text-anchor="start" x="419.5" y="-275.5" font-family="Arial" font-size="10.00"> increases complexity</text>
<text xml:space="preserve" text-anchor="start" x="520.75" y="-275.5" font-family="Arial" font-weight="bold" font-size="10.00">(−)</text>
<text xml:space="preserve" text-anchor="start" x="532.75" y="-275.5" font-family="Arial" font-size="10.00"> decreases complexity</text>
<!-- unknown.color_encoding -->
<g id="node1" class="node">
<title>unknown.color_encoding</title>
<path fill="#b8e6b8" stroke="#2c3e50" stroke-width="1.8" d="M359,-52C359,-52 304,-52 304,-52 298,-52 292,-46 292,-40 292,-40 292,-28 292,-28 292,-22 298,-16 304,-16 304,-16 359,-16 359,-16 365,-16 371,-22 371,-28 371,-28 371,-40 371,-40 371,-46 365,-52 359,-52"/>
<text xml:space="preserve" text-anchor="middle" x="331.5" y="-30.5" font-family="Arial" font-size="10.00" fill="#1a1a1a">color encoding</text>
</g>
<!-- attr_0 -->
<g id="node6" class="node">
<title>attr_0</title>
<path fill="#c7b8e6" stroke="#7f8c8d" stroke-width="1.2" d="M547,-101C547,-101 426,-101 426,-101 420,-101 414,-95 414,-89 414,-89 414,-77 414,-77 414,-71 420,-65 426,-65 426,-65 547,-65 547,-65 553,-65 559,-71 559,-77 559,-77 559,-89 559,-89 559,-95 553,-101 547,-101"/>
<text xml:space="preserve" text-anchor="middle" x="486.5" y="-79.5" font-family="Arial" font-size="10.00" fill="#1a1a1a">(−) clearly interpretable colors</text>
</g>
<!-- unknown.color_encoding&#45;&gt;attr_0 -->
<g id="edge1" class="edge">
<title>unknown.color_encoding&#45;&gt;attr_0</title>
<path fill="none" stroke="#aaaaaa" d="M371.5,-46.49C386.11,-51.17 403.14,-56.62 419.52,-61.87"/>
<polygon fill="#aaaaaa" stroke="#aaaaaa" points="418.64,-64.16 426.05,-63.96 420.13,-59.49 418.64,-64.16"/>
</g>
<!-- rel_1 -->
<g id="node12" class="node">
<title>rel_1</title>
<path fill="#f5b8b8" stroke="#d46a6a" stroke-width="1.2" d="M508.75,-36C508.75,-36 464.25,-36 464.25,-36 458.25,-36 452.25,-30 452.25,-24 452.25,-24 452.25,-12 452.25,-12 452.25,-6 458.25,0 464.25,0 464.25,0 508.75,0 508.75,0 514.75,0 520.75,-6 520.75,-12 520.75,-12 520.75,-24 520.75,-24 520.75,-30 514.75,-36 508.75,-36"/>
<text xml:space="preserve" text-anchor="middle" x="486.5" y="-14.5" font-family="Arial" font-size="10.00" fill="#8b0000">encodes via</text>
</g>
<!-- unknown.color_encoding&#45;&gt;rel_1 -->
<g id="edge8" class="edge">
<title>unknown.color_encoding&#45;&gt;rel_1</title>
<path fill="none" stroke="#d46a6a" stroke-width="1.5" d="M371.5,-29.92C392.9,-27.68 419.51,-24.9 441.63,-22.59"/>
<polygon fill="#d46a6a" stroke="#d46a6a" stroke-width="1.5" points="441.84,-25.38 449.51,-21.76 441.26,-19.81 441.84,-25.38"/>
</g>
<!-- furniture.legend -->
<g id="node2" class="node">
<title>furniture.legend</title>
<path fill="#b8e6b8" stroke="#2c3e50" stroke-width="1.8" d="M49.62,-85C49.62,-85 19.62,-85 19.62,-85 13.62,-85 7.62,-79 7.62,-73 7.62,-73 7.62,-61 7.62,-61 7.62,-55 13.62,-49 19.62,-49 19.62,-49 49.62,-49 49.62,-49 55.62,-49 61.62,-55 61.62,-61 61.62,-61 61.62,-73 61.62,-73 61.62,-79 55.62,-85 49.62,-85"/>
<text xml:space="preserve" text-anchor="middle" x="34.62" y="-63.5" font-family="Arial" font-size="10.00" fill="#1a1a1a">legend</text>
</g>
<!-- attr_1 -->
<g id="node7" class="node">
<title>attr_1</title>
<path fill="#c7b8e6" stroke="#7f8c8d" stroke-width="1.2" d="M231.38,-117C231.38,-117 129.88,-117 129.88,-117 123.88,-117 117.88,-111 117.88,-105 117.88,-105 117.88,-93 117.88,-93 117.88,-87 123.88,-81 129.88,-81 129.88,-81 231.38,-81 231.38,-81 237.38,-81 243.38,-87 243.38,-93 243.38,-93 243.38,-105 243.38,-105 243.38,-111 237.38,-117 231.38,-117"/>
<text xml:space="preserve" text-anchor="middle" x="180.62" y="-95.5" font-family="Arial" font-size="10.00" fill="#1a1a1a">(−) sufficient color legend</text>
</g>
<!-- furniture.legend&#45;&gt;attr_1 -->
<g id="edge2" class="edge">
<title>furniture.legend&#45;&gt;attr_1</title>
<path fill="none" stroke="#aaaaaa" d="M62.37,-72.94C75.72,-75.91 92.56,-79.65 109.29,-83.37"/>
<polygon fill="#aaaaaa" stroke="#aaaaaa" points="108.63,-85.73 115.99,-84.86 109.69,-80.95 108.63,-85.73"/>
</g>
<!-- rel_0 -->
<g id="node11" class="node">
<title>rel_0</title>
<path fill="#f5b8b8" stroke="#d46a6a" stroke-width="1.2" d="M195.62,-52C195.62,-52 165.62,-52 165.62,-52 159.62,-52 153.62,-46 153.62,-40 153.62,-40 153.62,-28 153.62,-28 153.62,-22 159.62,-16 165.62,-16 165.62,-16 195.62,-16 195.62,-16 201.62,-16 207.62,-22 207.62,-28 207.62,-28 207.62,-40 207.62,-40 207.62,-46 201.62,-52 195.62,-52"/>
<text xml:space="preserve" text-anchor="middle" x="180.62" y="-30.5" font-family="Arial" font-size="10.00" fill="#8b0000">clarifies</text>
</g>
<!-- furniture.legend&#45;&gt;rel_0 -->
<g id="edge6" class="edge">
<title>furniture.legend&#45;&gt;rel_0</title>
<path fill="none" stroke="#d46a6a" stroke-width="1.5" d="M62.37,-60.87C85.25,-55.63 118.37,-48.04 143.58,-42.26"/>
<polygon fill="#d46a6a" stroke="#d46a6a" stroke-width="1.5" points="144.12,-45.01 151.29,-40.49 142.87,-39.55 144.12,-45.01"/>
</g>
<!-- whole.visualization -->
<g id="node3" class="node">
<title>whole.visualization</title>
<path fill="#b8e6b8" stroke="#2c3e50" stroke-width="1.8" d="M346.5,-198C346.5,-198 316.5,-198 316.5,-198 310.5,-198 304.5,-192 304.5,-186 304.5,-186 304.5,-174 304.5,-174 304.5,-168 310.5,-162 316.5,-162 316.5,-162 346.5,-162 346.5,-162 352.5,-162 358.5,-168 358.5,-174 358.5,-174 358.5,-186 358.5,-186 358.5,-192 352.5,-198 346.5,-198"/>
<text xml:space="preserve" text-anchor="middle" x="331.5" y="-176.5" font-family="Arial" font-size="10.00" fill="#1a1a1a">map</text>
</g>
<!-- attr_2 -->
<g id="node8" class="node">
<title>attr_2</title>
<path fill="#c7b8e6" stroke="#7f8c8d" stroke-width="1.2" d="M546.25,-231C546.25,-231 426.75,-231 426.75,-231 420.75,-231 414.75,-225 414.75,-219 414.75,-219 414.75,-207 414.75,-207 414.75,-201 420.75,-195 426.75,-195 426.75,-195 546.25,-195 546.25,-195 552.25,-195 558.25,-201 558.25,-207 558.25,-207 558.25,-219 558.25,-219 558.25,-225 552.25,-231 546.25,-231"/>
<text xml:space="preserve" text-anchor="middle" x="486.5" y="-209.5" font-family="Arial" font-size="10.00" fill="#1a1a1a">(+) domain specific map form</text>
</g>
<!-- whole.visualization&#45;&gt;attr_2 -->
<g id="edge3" class="edge">
<title>whole.visualization&#45;&gt;attr_2</title>
<path fill="none" stroke="#aaaaaa" d="M359.15,-185.75C372.51,-188.63 389.47,-192.29 406.59,-195.98"/>
<polygon fill="#aaaaaa" stroke="#aaaaaa" points="405.62,-198.28 412.98,-197.36 406.65,-193.49 405.62,-198.28"/>
</g>
<!-- rel_2 -->
<g id="node13" class="node">
<title>rel_2</title>
<path fill="#f5b8b8" stroke="#d46a6a" stroke-width="1.2" d="M528.25,-166C528.25,-166 444.75,-166 444.75,-166 438.75,-166 432.75,-160 432.75,-154 432.75,-154 432.75,-142 432.75,-142 432.75,-136 438.75,-130 444.75,-130 444.75,-130 528.25,-130 528.25,-130 534.25,-130 540.25,-136 540.25,-142 540.25,-142 540.25,-154 540.25,-154 540.25,-160 534.25,-166 528.25,-166"/>
<text xml:space="preserve" text-anchor="middle" x="486.5" y="-144.5" font-family="Arial" font-size="10.00" fill="#8b0000">requires expertise for</text>
</g>
<!-- whole.visualization&#45;&gt;rel_2 -->
<g id="edge10" class="edge">
<title>whole.visualization&#45;&gt;rel_2</title>
<path fill="none" stroke="#d46a6a" stroke-width="1.5" d="M359.15,-174.43C376.6,-170.78 400.17,-165.85 422.23,-161.23"/>
<polygon fill="#d46a6a" stroke="#d46a6a" stroke-width="1.5" points="422.76,-163.98 430.01,-159.6 421.61,-158.5 422.76,-163.98"/>
</g>
<!-- unknown.area_regions -->
<g id="node4" class="node">
<title>unknown.area_regions</title>
<path fill="#b8e6b8" stroke="#2c3e50" stroke-width="1.8" d="M659.25,-101C659.25,-101 614,-101 614,-101 608,-101 602,-95 602,-89 602,-89 602,-77 602,-77 602,-71 608,-65 614,-65 614,-65 659.25,-65 659.25,-65 665.25,-65 671.25,-71 671.25,-77 671.25,-77 671.25,-89 671.25,-89 671.25,-95 665.25,-101 659.25,-101"/>
<text xml:space="preserve" text-anchor="middle" x="636.62" y="-79.5" font-family="Arial" font-size="10.00" fill="#1a1a1a">area regions</text>
</g>
<!-- attr_3 -->
<g id="node9" class="node">
<title>attr_3</title>
<path fill="#c7b8e6" stroke="#7f8c8d" stroke-width="1.2" d="M823.25,-101C823.25,-101 726.25,-101 726.25,-101 720.25,-101 714.25,-95 714.25,-89 714.25,-89 714.25,-77 714.25,-77 714.25,-71 720.25,-65 726.25,-65 726.25,-65 823.25,-65 823.25,-65 829.25,-65 835.25,-71 835.25,-77 835.25,-77 835.25,-89 835.25,-89 835.25,-95 829.25,-101 823.25,-101"/>
<text xml:space="preserve" text-anchor="middle" x="774.75" y="-79.5" font-family="Arial" font-size="10.00" fill="#1a1a1a">(−) distinct color regions</text>
</g>
<!-- unknown.area_regions&#45;&gt;attr_3 -->
<g id="edge4" class="edge">
<title>unknown.area_regions&#45;&gt;attr_3</title>
<path fill="none" stroke="#aaaaaa" d="M671.98,-83C682.18,-83 693.74,-83 705.31,-83"/>
<polygon fill="#aaaaaa" stroke="#aaaaaa" points="705.2,-85.45 712.2,-83 705.2,-80.55 705.2,-85.45"/>
</g>
<!-- unknown.color_palette -->
<g id="node5" class="node">
<title>unknown.color_palette</title>
<path fill="#b8e6b8" stroke="#2c3e50" stroke-width="1.8" d="M57.25,-230C57.25,-230 12,-230 12,-230 6,-230 0,-224 0,-218 0,-218 0,-206 0,-206 0,-200 6,-194 12,-194 12,-194 57.25,-194 57.25,-194 63.25,-194 69.25,-200 69.25,-206 69.25,-206 69.25,-218 69.25,-218 69.25,-224 63.25,-230 57.25,-230"/>
<text xml:space="preserve" text-anchor="middle" x="34.62" y="-208.5" font-family="Arial" font-size="10.00" fill="#1a1a1a">color palette</text>
</g>
<!-- attr_4 -->
<g id="node10" class="node">
<title>attr_4</title>
<path fill="#c7b8e6" stroke="#7f8c8d" stroke-width="1.2" d="M237,-263C237,-263 124.25,-263 124.25,-263 118.25,-263 112.25,-257 112.25,-251 112.25,-251 112.25,-239 112.25,-239 112.25,-233 118.25,-227 124.25,-227 124.25,-227 237,-227 237,-227 243,-227 249,-233 249,-239 249,-239 249,-251 249,-251 249,-257 243,-263 237,-263"/>
<text xml:space="preserve" text-anchor="middle" x="180.62" y="-241.5" font-family="Arial" font-size="10.00" fill="#1a1a1a">(−) clear color differentiation</text>
</g>
<!-- unknown.color_palette&#45;&gt;attr_4 -->
<g id="edge5" class="edge">
<title>unknown.color_palette&#45;&gt;attr_4</title>
<path fill="none" stroke="#aaaaaa" d="M70.12,-219.9C80.32,-222.24 91.93,-224.9 103.67,-227.59"/>
<polygon fill="#aaaaaa" stroke="#aaaaaa" points="102.97,-229.95 110.34,-229.12 104.06,-225.17 102.97,-229.95"/>
</g>
<!-- rel_3 -->
<g id="node14" class="node">
<title>rel_3</title>
<path fill="#f5b8b8" stroke="#d46a6a" stroke-width="1.2" d="M230.62,-198C230.62,-198 130.62,-198 130.62,-198 124.62,-198 118.62,-192 118.62,-186 118.62,-186 118.62,-174 118.62,-174 118.62,-168 124.62,-162 130.62,-162 130.62,-162 230.62,-162 230.62,-162 236.62,-162 242.62,-168 242.62,-174 242.62,-174 242.62,-186 242.62,-186 242.62,-192 236.62,-198 230.62,-198"/>
<text xml:space="preserve" text-anchor="middle" x="180.62" y="-176.5" font-family="Arial" font-size="10.00" fill="#8b0000">supports interpretation of</text>
</g>
<!-- unknown.color_palette&#45;&gt;rel_3 -->
<g id="edge12" class="edge">
<title>unknown.color_palette&#45;&gt;rel_3</title>
<path fill="none" stroke="#d46a6a" stroke-width="1.5" d="M70.12,-204.34C81.7,-201.76 95.08,-198.79 108.42,-195.82"/>
<polygon fill="#d46a6a" stroke="#d46a6a" stroke-width="1.5" points="108.69,-198.63 115.89,-194.16 107.47,-193.17 108.69,-198.63"/>
</g>
<!-- rel_0&#45;&gt;unknown.color_encoding -->
<g id="edge7" class="edge">
<title>rel_0&#45;&gt;unknown.color_encoding</title>
<path fill="none" stroke="#d46a6a" stroke-width="1.5" d="M207.9,-34C228.13,-34 256.68,-34 281.14,-34"/>
<polygon fill="#d46a6a" stroke="#d46a6a" stroke-width="1.5" points="281.07,-36.8 289.07,-34 281.07,-31.2 281.07,-36.8"/>
</g>
<!-- rel_1&#45;&gt;unknown.area_regions -->
<g id="edge9" class="edge">
<title>rel_1&#45;&gt;unknown.area_regions</title>
<path fill="none" stroke="#d46a6a" stroke-width="1.5" d="M521.11,-32.75C542.02,-41.93 569.14,-53.83 591.74,-63.74"/>
<polygon fill="#d46a6a" stroke="#d46a6a" stroke-width="1.5" points="590.59,-66.29 599.04,-66.95 592.84,-61.17 590.59,-66.29"/>
</g>
<!-- rel_2&#45;&gt;unknown.area_regions -->
<g id="edge11" class="edge">
<title>rel_2&#45;&gt;unknown.area_regions</title>
<path fill="none" stroke="#d46a6a" stroke-width="1.5" d="M529.55,-129.55C549.1,-120.97 572.34,-110.77 592.08,-102.11"/>
<polygon fill="#d46a6a" stroke="#d46a6a" stroke-width="1.5" points="593.17,-104.69 599.37,-98.91 590.92,-99.56 593.17,-104.69"/>
</g>
<!-- rel_3&#45;&gt;whole.visualization -->
<g id="edge13" class="edge">
<title>rel_3&#45;&gt;whole.visualization</title>
<path fill="none" stroke="#d46a6a" stroke-width="1.5" d="M243.04,-180C260.22,-180 278.35,-180 293.63,-180"/>
<polygon fill="#d46a6a" stroke="#d46a6a" stroke-width="1.5" points="293.43,-182.8 301.43,-180 293.43,-177.2 293.43,-182.8"/>
</g>
</g>
</svg>
