<?xml version="1.0" encoding="UTF-8" standalone="no"?>
<!DOCTYPE svg PUBLIC "-//W3C//DTD SVG 1.1//EN"
 "http://www.w3.org/Graphics/SVG/1.1/DTD/svg11.dtd">
<!-- Generated by graphviz version 14.1.5 (20260411.2331)
 -->
<!-- Title: whoK16_3.png Pages: 1 -->
<svg width="848pt" height="372pt"
 viewBox="0.00 0.00 848.00 372.00" xmlns="http://www.w3.org/2000/svg" xmlns:xlink="http://www.w3.org/1999/xlink">
<g id="graph0" class="graph" transform="scale(1 1) rotate(0) translate(4 368.25)">
<title>whoK16_3.png</title>
<polygon fill="white" stroke="none" points="-4,4 -4,-368.25 844.25,-368.25 844.25,4 -4,4"/>
<text xml:space="preserve" text-anchor="start" x="372.12" y="-343.95" font-family="Arial" font-weight="bold" font-size="14.00">whoK16_3.png</text>
<text xml:space="preserve" text-anchor="start" x="376.25" y="-324" font-family="Arial" font-size="11.00">Area &#160;| &#160;VC = 0.50</text>
<path fill="#b8e6b8" stroke="none" d="M210.75,-299C210.75,-299 218.75,-299 218.75,-299 221.75,-299 224.75,-302 224.75,-305 224.75,-305 224.75,-311 224.75,-311 224.75,-314 221.75,-317 218.75,-317 218.75,-317 210.75,-317 210.75,-317 207.75,-317 204.75,-314 204.75,-311 204.75,-311 204.75,-305 204.75,-305 204.75,-302 207.75,-299 210.75,-299"/>
<path fill="none" stroke="black" d="M210.75,-299C210.75,-299 218.75,-299 218.75,-299 221.75,-299 224.75,-302 224.75,-305 224.75,-305 224.75,-311 224.75,-311 224.75,-314 221.75,-317 218.75,-317 218.75,-317 210.75,-317 210.75,-317 207.75,-317 204.75,-314 204.75,-311 204.75,-311 204.75,-305 204.75,-305 204.75,-302 207.75,-299 210.75,-299"/>
<text xml:space="preserve" text-anchor="start" x="213.25" y="-304.25" font-family="Arial" font-size="10.00"> </text>
<text xml:space="preserve" text-anchor="start" x="228.75" y="-304.25" font-family="Arial" font-size="10.00">Object</text>
<path fill="#c7b8e6" stroke="none" d="M267.25,-299C267.25,-299 275.25,-299 275.25,-299 278.25,-299 281.25,-302 281.25,-305 281.25,-305 281.25,-311 281.25,-311 281.25,-314 278.25,-317 275.25,-317 275.25,-317 267.25,-317 267.25,-317 264.25,-317 261.25,-314 261.25,-311 261.25,-311 261.25,-305 261.25,-305 261.25,-302 264.25,-299 267.25,-299"/>
<path fill="none" stroke="black" d="M267.25,-299C267.25,-299 275.25,-299 275.25,-299 278.25,-299 281.25,-302 281.25,-305 281.25,-305 281.25,-311 281.25,-311 281.25,-314 278.25,-317 275.25,-317 275.25,-317 267.25,-317 267.25,-317 264.25,-317 261.25,-314 261.25,-311 261.25,-311 261.25,-305 261.25,-305 261.25,-302 264.25,-299 267.25,-299"/>
<text xml:space="preserve" text-anchor="start" x="269.75" y="-304.25" font-family="Arial" font-size="10.00"> </text>
<text xml:space="preserve" text-anchor="start" x="285.25" y="-304.25" font-family="Arial" font-size="10.00">Attribute</text>
<path fill="#f5b8b8" stroke="none" d="M332,-299C332,-299 340,-299 340,-299 343,-299 346,-302 346,-305 346,-305 346,-311 346,-311 346,-314 343,-317 340,-317 340,-317 332,-317 332,-317 329,-317 326,-314 326,-311 326,-311 326,-305 326,-305 326,-302 329,-299 332,-299"/>
<path fill="none" stroke="black" d="M332,-299C332,-299 340,-299 340,-299 343,-299 346,-302 346,-305 346,-305 346,-311 346,-311 346,-314 343,-317 340,-317 340,-317 332,-317 332,-317 329,-317 326,-314 326,-311 326,-311 326,-305 326,-305 326,-302 329,-299 332,-299"/>
<text xml:space="preserve" text-anchor="start" x="334.5" y="-304.25" font-family="Arial" font-size="10.00"> </text>
<text xml:space="preserve" text-anchor="start" x="350" y="-304.25" font-family="Arial" font-size="10.00">Relationship</text>
<text xml:space="preserve" text-anchor="start" x="410" y="-305.5" font-family="Arial" font-weight="bold" font-size="10.00">(+)</text>
<text xml:space="preserve" text-anchor="start" x="422" y="-305.5" font-family="Arial" font-size="10.00"> increases complexity</text>
<text xml:space="preserve" text-anchor="start" x="523.25" y="-305.5" font-family="Arial" font-weight="bold" font-size="10.00">(−)</text>
<text xml:space="preserve" text-anchor="start" x="535.25" y="-305.5" font-family="Arial" font-size="10.00"> decreases complexity</text>
<!-- unknown.area_chart -->
<g id="node1" class="node">
<title>unknown.area_chart</title>
<path fill="#b8e6b8" stroke="#2c3e50" stroke-width="1.8" d="M380.75,-98C380.75,-98 345.25,-98 345.25,-98 339.25,-98 333.25,-92 333.25,-86 333.25,-86 333.25,-74 333.25,-74 333.25,-68 339.25,-62 345.25,-62 345.25,-62 380.75,-62 380.75,-62 386.75,-62 392.75,-68 392.75,-74 392.75,-74 392.75,-86 392.75,-86 392.75,-92 386.75,-98 380.75,-98"/>
<text xml:space="preserve" text-anchor="middle" x="363" y="-76.5" font-family="Arial" font-size="10.00" fill="#1a1a1a">area chart</text>
</g>
<!-- attr_0 -->
<g id="node6" class="node">
<title>attr_0</title>
<path fill="#c7b8e6" stroke="#7f8c8d" stroke-width="1.2" d="M574,-163C574,-163 447.75,-163 447.75,-163 441.75,-163 435.75,-157 435.75,-151 435.75,-151 435.75,-139 435.75,-139 435.75,-133 441.75,-127 447.75,-127 447.75,-127 574,-127 574,-127 580,-127 586,-133 586,-139 586,-139 586,-151 586,-151 586,-157 580,-163 574,-163"/>
<text xml:space="preserve" text-anchor="middle" x="510.88" y="-141.5" font-family="Arial" font-size="10.00" fill="#1a1a1a">(+) moderate visual complexity</text>
</g>
<!-- unknown.area_chart&#45;&gt;attr_0 -->
<g id="edge1" class="edge">
<title>unknown.area_chart&#45;&gt;attr_0</title>
<path fill="none" stroke="#aaaaaa" d="M393.32,-93.08C406.32,-98.88 421.8,-105.78 435.75,-112 443.83,-115.6 452.4,-119.42 460.74,-123.13"/>
<polygon fill="#aaaaaa" stroke="#aaaaaa" points="459.54,-125.28 466.93,-125.89 461.54,-120.8 459.54,-125.28"/>
</g>
<!-- rel_0 -->
<g id="node11" class="node">
<title>rel_0</title>
<path fill="#f5b8b8" stroke="#d46a6a" stroke-width="1.2" d="M533.88,-98C533.88,-98 487.88,-98 487.88,-98 481.88,-98 475.88,-92 475.88,-86 475.88,-86 475.88,-74 475.88,-74 475.88,-68 481.88,-62 487.88,-62 487.88,-62 533.88,-62 533.88,-62 539.88,-62 545.88,-68 545.88,-74 545.88,-74 545.88,-86 545.88,-86 545.88,-92 539.88,-98 533.88,-98"/>
<text xml:space="preserve" text-anchor="middle" x="510.88" y="-76.5" font-family="Arial" font-size="10.00" fill="#8b0000">compared to</text>
</g>
<!-- unknown.area_chart&#45;&gt;rel_0 -->
<g id="edge6" class="edge">
<title>unknown.area_chart&#45;&gt;rel_0</title>
<path fill="none" stroke="#d46a6a" stroke-width="1.5" d="M393.52,-80C414.19,-80 442.17,-80 465.51,-80"/>
<polygon fill="#d46a6a" stroke="#d46a6a" stroke-width="1.5" points="465.26,-82.8 473.26,-80 465.26,-77.2 465.26,-82.8"/>
</g>
<!-- unknown.pie_chart -->
<g id="node2" class="node">
<title>unknown.pie_chart</title>
<path fill="#b8e6b8" stroke="#2c3e50" stroke-width="1.8" d="M671,-98C671,-98 641,-98 641,-98 635,-98 629,-92 629,-86 629,-86 629,-74 629,-74 629,-68 635,-62 641,-62 641,-62 671,-62 671,-62 677,-62 683,-68 683,-74 683,-74 683,-86 683,-86 683,-92 677,-98 671,-98"/>
<text xml:space="preserve" text-anchor="middle" x="656" y="-76.5" font-family="Arial" font-size="10.00" fill="#1a1a1a">pie chart</text>
</g>
<!-- attr_1 -->
<g id="node7" class="node">
<title>attr_1</title>
<path fill="#c7b8e6" stroke="#7f8c8d" stroke-width="1.2" d="M826,-101C826,-101 740.25,-101 740.25,-101 734.25,-101 728.25,-95 728.25,-89 728.25,-89 728.25,-77 728.25,-77 728.25,-71 734.25,-65 740.25,-65 740.25,-65 826,-65 826,-65 832,-65 838,-71 838,-77 838,-77 838,-89 838,-89 838,-95 832,-101 826,-101"/>
<text xml:space="preserve" text-anchor="middle" x="783.12" y="-79.5" font-family="Arial" font-size="10.00" fill="#1a1a1a">(−) simpler chart form</text>
</g>
<!-- unknown.pie_chart&#45;&gt;attr_1 -->
<g id="edge2" class="edge">
<title>unknown.pie_chart&#45;&gt;attr_1</title>
<path fill="none" stroke="#aaaaaa" d="M683.84,-80.64C694.39,-80.9 706.97,-81.2 719.55,-81.5"/>
<polygon fill="#aaaaaa" stroke="#aaaaaa" points="719.22,-83.94 726.28,-81.66 719.34,-79.04 719.22,-83.94"/>
</g>
<!-- rel_2 -->
<g id="node13" class="node">
<title>rel_2</title>
<path fill="#f5b8b8" stroke="#d46a6a" stroke-width="1.2" d="M828.25,-36C828.25,-36 738,-36 738,-36 732,-36 726,-30 726,-24 726,-24 726,-12 726,-12 726,-6 732,0 738,0 738,0 828.25,0 828.25,0 834.25,0 840.25,-6 840.25,-12 840.25,-12 840.25,-24 840.25,-24 840.25,-30 834.25,-36 828.25,-36"/>
<text xml:space="preserve" text-anchor="middle" x="783.12" y="-14.5" font-family="Arial" font-size="10.00" fill="#8b0000">perceived simpler than</text>
</g>
<!-- unknown.pie_chart&#45;&gt;rel_2 -->
<g id="edge10" class="edge">
<title>unknown.pie_chart&#45;&gt;rel_2</title>
<path fill="none" stroke="#d46a6a" stroke-width="1.5" d="M683.84,-66.7C699.01,-59.19 718.38,-49.58 735.92,-40.9"/>
<polygon fill="#d46a6a" stroke="#d46a6a" stroke-width="1.5" points="736.93,-43.52 742.85,-37.46 734.44,-38.5 736.93,-43.52"/>
</g>
<!-- unknown.encoding_technique -->
<g id="node3" class="node">
<title>unknown.encoding_technique</title>
<path fill="#b8e6b8" stroke="#2c3e50" stroke-width="1.8" d="M88,-131C88,-131 12,-131 12,-131 6,-131 0,-125 0,-119 0,-119 0,-107 0,-107 0,-101 6,-95 12,-95 12,-95 88,-95 88,-95 94,-95 100,-101 100,-107 100,-107 100,-119 100,-119 100,-125 94,-131 88,-131"/>
<text xml:space="preserve" text-anchor="middle" x="50" y="-109.5" font-family="Arial" font-size="10.00" fill="#1a1a1a">encoding technique</text>
</g>
<!-- attr_2 -->
<g id="node8" class="node">
<title>attr_2</title>
<path fill="#c7b8e6" stroke="#7f8c8d" stroke-width="1.2" d="M278.25,-163C278.25,-163 155,-163 155,-163 149,-163 143,-157 143,-151 143,-151 143,-139 143,-139 143,-133 149,-127 155,-127 155,-127 278.25,-127 278.25,-127 284.25,-127 290.25,-133 290.25,-139 290.25,-139 290.25,-151 290.25,-151 290.25,-157 284.25,-163 278.25,-163"/>
<text xml:space="preserve" text-anchor="middle" x="216.62" y="-141.5" font-family="Arial" font-size="10.00" fill="#1a1a1a">(+) specific technique required</text>
</g>
<!-- unknown.encoding_technique&#45;&gt;attr_2 -->
<g id="edge3" class="edge">
<title>unknown.encoding_technique&#45;&gt;attr_2</title>
<path fill="none" stroke="#aaaaaa" d="M100.84,-122.69C111.42,-124.75 122.86,-126.97 134.28,-129.19"/>
<polygon fill="#aaaaaa" stroke="#aaaaaa" points="133.75,-131.58 141.09,-130.51 134.68,-126.77 133.75,-131.58"/>
</g>
<!-- rel_1 -->
<g id="node12" class="node">
<title>rel_1</title>
<path fill="#f5b8b8" stroke="#d46a6a" stroke-width="1.2" d="M253.12,-98C253.12,-98 180.12,-98 180.12,-98 174.12,-98 168.12,-92 168.12,-86 168.12,-86 168.12,-74 168.12,-74 168.12,-68 174.12,-62 180.12,-62 180.12,-62 253.12,-62 253.12,-62 259.12,-62 265.12,-68 265.12,-74 265.12,-74 265.12,-86 265.12,-86 265.12,-92 259.12,-98 253.12,-98"/>
<text xml:space="preserve" text-anchor="middle" x="216.62" y="-76.5" font-family="Arial" font-size="10.00" fill="#8b0000">increases effort for</text>
</g>
<!-- unknown.encoding_technique&#45;&gt;rel_1 -->
<g id="edge8" class="edge">
<title>unknown.encoding_technique&#45;&gt;rel_1</title>
<path fill="none" stroke="#d46a6a" stroke-width="1.5" d="M100.84,-103.01C118.81,-99.41 139.24,-95.31 157.83,-91.59"/>
<polygon fill="#d46a6a" stroke="#d46a6a" stroke-width="1.5" points="158.13,-94.38 165.42,-90.06 157.03,-88.89 158.13,-94.38"/>
</g>
<!-- unknown.data_regions -->
<g id="node4" class="node">
<title>unknown.data_regions</title>
<path fill="#b8e6b8" stroke="#2c3e50" stroke-width="1.8" d="M72.62,-260C72.62,-260 27.38,-260 27.38,-260 21.38,-260 15.38,-254 15.38,-248 15.38,-248 15.38,-236 15.38,-236 15.38,-230 21.38,-224 27.38,-224 27.38,-224 72.62,-224 72.62,-224 78.62,-224 84.62,-230 84.62,-236 84.62,-236 84.62,-248 84.62,-248 84.62,-254 78.62,-260 72.62,-260"/>
<text xml:space="preserve" text-anchor="middle" x="50" y="-238.5" font-family="Arial" font-size="10.00" fill="#1a1a1a">data regions</text>
</g>
<!-- attr_3 -->
<g id="node9" class="node">
<title>attr_3</title>
<path fill="#c7b8e6" stroke="#7f8c8d" stroke-width="1.2" d="M267.75,-293C267.75,-293 165.5,-293 165.5,-293 159.5,-293 153.5,-287 153.5,-281 153.5,-281 153.5,-269 153.5,-269 153.5,-263 159.5,-257 165.5,-257 165.5,-257 267.75,-257 267.75,-257 273.75,-257 279.75,-263 279.75,-269 279.75,-269 279.75,-281 279.75,-281 279.75,-287 273.75,-293 267.75,-293"/>
<text xml:space="preserve" text-anchor="middle" x="216.62" y="-271.5" font-family="Arial" font-size="10.00" fill="#1a1a1a">(+) layered area encoding</text>
</g>
<!-- unknown.data_regions&#45;&gt;attr_3 -->
<g id="edge4" class="edge">
<title>unknown.data_regions&#45;&gt;attr_3</title>
<path fill="none" stroke="#aaaaaa" d="M85.51,-248.92C102.82,-252.39 124.45,-256.72 145.08,-260.86"/>
<polygon fill="#aaaaaa" stroke="#aaaaaa" points="144.4,-263.22 151.74,-262.19 145.36,-258.42 144.4,-263.22"/>
</g>
<!-- rel_3 -->
<g id="node14" class="node">
<title>rel_3</title>
<path fill="#f5b8b8" stroke="#d46a6a" stroke-width="1.2" d="M238.88,-228C238.88,-228 194.38,-228 194.38,-228 188.38,-228 182.38,-222 182.38,-216 182.38,-216 182.38,-204 182.38,-204 182.38,-198 188.38,-192 194.38,-192 194.38,-192 238.88,-192 238.88,-192 244.88,-192 250.88,-198 250.88,-204 250.88,-204 250.88,-216 250.88,-216 250.88,-222 244.88,-228 238.88,-228"/>
<text xml:space="preserve" text-anchor="middle" x="216.62" y="-206.5" font-family="Arial" font-size="10.00" fill="#8b0000">encodes via</text>
</g>
<!-- unknown.data_regions&#45;&gt;rel_3 -->
<g id="edge12" class="edge">
<title>unknown.data_regions&#45;&gt;rel_3</title>
<path fill="none" stroke="#d46a6a" stroke-width="1.5" d="M85.51,-235.29C110.68,-230.4 144.96,-223.74 172.02,-218.48"/>
<polygon fill="#d46a6a" stroke="#d46a6a" stroke-width="1.5" points="172.46,-221.24 179.78,-216.97 171.39,-215.75 172.46,-221.24"/>
</g>
<!-- unknown.axes -->
<g id="node5" class="node">
<title>unknown.axes</title>
<path fill="#b8e6b8" stroke="#2c3e50" stroke-width="1.8" d="M378,-228C378,-228 348,-228 348,-228 342,-228 336,-222 336,-216 336,-216 336,-204 336,-204 336,-198 342,-192 348,-192 348,-192 378,-192 378,-192 384,-192 390,-198 390,-204 390,-204 390,-216 390,-216 390,-222 384,-228 378,-228"/>
<text xml:space="preserve" text-anchor="middle" x="363" y="-206.5" font-family="Arial" font-size="10.00" fill="#1a1a1a">axes</text>
</g>
<!-- attr_4 -->
<g id="node10" class="node">
<title>attr_4</title>
<path fill="#c7b8e6" stroke="#7f8c8d" stroke-width="1.2" d="M565.75,-228C565.75,-228 456,-228 456,-228 450,-228 444,-222 444,-216 444,-216 444,-204 444,-204 444,-198 450,-192 456,-192 456,-192 565.75,-192 565.75,-192 571.75,-192 577.75,-198 577.75,-204 577.75,-204 577.75,-216 577.75,-216 577.75,-222 571.75,-228 565.75,-228"/>
<text xml:space="preserve" text-anchor="middle" x="510.88" y="-206.5" font-family="Arial" font-size="10.00" fill="#1a1a1a">(+) positional scale present</text>
</g>
<!-- unknown.axes&#45;&gt;attr_4 -->
<g id="edge5" class="edge">
<title>unknown.axes&#45;&gt;attr_4</title>
<path fill="none" stroke="#aaaaaa" d="M390.76,-210C403.43,-210 419.27,-210 435.22,-210"/>
<polygon fill="#aaaaaa" stroke="#aaaaaa" points="435.04,-212.45 442.04,-210 435.04,-207.55 435.04,-212.45"/>
</g>
<!-- rel_0&#45;&gt;unknown.pie_chart -->
<g id="edge7" class="edge">
<title>rel_0&#45;&gt;unknown.pie_chart</title>
<path fill="none" stroke="#d46a6a" stroke-width="1.5" d="M546.16,-80C567.86,-80 595.91,-80 618.1,-80"/>
<polygon fill="#d46a6a" stroke="#d46a6a" stroke-width="1.5" points="617.88,-82.8 625.88,-80 617.88,-77.2 617.88,-82.8"/>
</g>
<!-- rel_1&#45;&gt;unknown.area_chart -->
<g id="edge9" class="edge">
<title>rel_1&#45;&gt;unknown.area_chart</title>
<path fill="none" stroke="#d46a6a" stroke-width="1.5" d="M265.7,-80C284.21,-80 305.12,-80 322.71,-80"/>
<polygon fill="#d46a6a" stroke="#d46a6a" stroke-width="1.5" points="322.37,-82.8 330.37,-80 322.37,-77.2 322.37,-82.8"/>
</g>
<!-- rel_2&#45;&gt;unknown.area_chart -->
<g id="edge11" class="edge">
<title>rel_2&#45;&gt;unknown.area_chart</title>
<path fill="none" stroke="#d46a6a" stroke-width="1.5" d="M725.63,-16.78C656.21,-16.63 535.4,-20.78 435.75,-47 424.68,-49.91 413.21,-54.43 402.77,-59.2"/>
<polygon fill="#d46a6a" stroke="#d46a6a" stroke-width="1.5" points="401.57,-56.67 395.56,-62.64 403.98,-61.72 401.57,-56.67"/>
</g>
<!-- rel_3&#45;&gt;unknown.axes -->
<g id="edge13" class="edge">
<title>rel_3&#45;&gt;unknown.axes</title>
<path fill="none" stroke="#d46a6a" stroke-width="1.5" d="M251.47,-210C273.49,-210 302.21,-210 324.86,-210"/>
<polygon fill="#d46a6a" stroke="#d46a6a" stroke-width="1.5" points="324.84,-212.8 332.84,-210 324.84,-207.2 324.84,-212.8"/>
</g>
</g>
</svg>
