<?xml version="1.0" encoding="UTF-8" standalone="no"?>
<!DOCTYPE svg PUBLIC "-//W3C//DTD SVG 1.1//EN"
 "http://www.w3.org/Graphics/SVG/1.1/DTD/svg11.dtd">
<!-- Generated by graphviz version 14.1.5 (20260411.2331)
 -->
<!-- Title: whoK27_2.png Pages: 1 -->
<svg width="821pt" height="456pt"
 viewBox="0.00 0.00 821.00 456.00" xmlns="http://www.w3.org/2000/svg" xmlns:xlink="http://www.w3.org/1999/xlink">
<g id="graph0" class="graph" transform="scale(1 1) rotate(0) translate(4 452.25)">
<title>whoK27_2.png</title>
<polygon fill="white" stroke="none" points="-4,4 -4,-452.25 817.25,-452.25 817.25,4 -4,4"/>
<text xml:space="preserve" text-anchor="start" x="358.62" y="-427.95" font-family="Arial" font-weight="bold" font-size="14.00">whoK27_2.png</text>
<text xml:space="preserve" text-anchor="start" x="364.25" y="-408" font-family="Arial" font-size="11.00">Line &#160;| &#160;VC = 0.38</text>
<path fill="#b8e6b8" stroke="none" d="M197.25,-383C197.25,-383 205.25,-383 205.25,-383 208.25,-383 211.25,-386 211.25,-389 211.25,-389 211.25,-395 211.25,-395 211.25,-398 208.25,-401 205.25,-401 205.25,-401 197.25,-401 197.25,-401 194.25,-401 191.25,-398 191.25,-395 191.25,-395 191.25,-389 191.25,-389 191.25,-386 194.25,-383 197.25,-383"/>
<path fill="none" stroke="black" d="M197.25,-383C197.25,-383 205.25,-383 205.25,-383 208.25,-383 211.25,-386 211.25,-389 211.25,-389 211.25,-395 211.25,-395 211.25,-398 208.25,-401 205.25,-401 205.25,-401 197.25,-401 197.25,-401 194.25,-401 191.25,-398 191.25,-395 191.25,-395 191.25,-389 191.25,-389 191.25,-386 194.25,-383 197.25,-383"/>
<text xml:space="preserve" text-anchor="start" x="199.75" y="-388.25" font-family="Arial" font-size="10.00"> </text>
<text xml:space="preserve" text-anchor="start" x="215.25" y="-388.25" font-family="Arial" font-size="10.00">Object</text>
<path fill="#c7b8e6" stroke="none" d="M253.75,-383C253.75,-383 261.75,-383 261.75,-383 264.75,-383 267.75,-386 267.75,-389 267.75,-389 267.75,-395 267.75,-395 267.75,-398 264.75,-401 261.75,-401 261.75,-401 253.75,-401 253.75,-401 250.75,-401 247.75,-398 247.75,-395 247.75,-395 247.75,-389 247.75,-389 247.75,-386 250.75,-383 253.75,-383"/>
<path fill="none" stroke="black" d="M253.75,-383C253.75,-383 261.75,-383 261.75,-383 264.75,-383 267.75,-386 267.75,-389 267.75,-389 267.75,-395 267.75,-395 267.75,-398 264.75,-401 261.75,-401 261.75,-401 253.75,-401 253.75,-401 250.75,-401 247.75,-398 247.75,-395 247.75,-395 247.75,-389 247.75,-389 247.75,-386 250.75,-383 253.75,-383"/>
<text xml:space="preserve" text-anchor="start" x="256.25" y="-388.25" font-family="Arial" font-size="10.00"> </text>
<text xml:space="preserve" text-anchor="start" x="271.75" y="-388.25" font-family="Arial" font-size="10.00">Attribute</text>
<path fill="#f5b8b8" stroke="none" d="M318.5,-383C318.5,-383 326.5,-383 326.5,-383 329.5,-383 332.5,-386 332.5,-389 332.5,-389 332.5,-395 332.5,-395 332.5,-398 329.5,-401 326.5,-401 326.5,-401 318.5,-401 318.5,-401 315.5,-401 312.5,-398 312.5,-395 312.5,-395 312.5,-389 312.5,-389 312.5,-386 315.5,-383 318.5,-383"/>
<path fill="none" stroke="black" d="M318.5,-383C318.5,-383 326.5,-383 326.5,-383 329.5,-383 332.5,-386 332.5,-389 332.5,-389 332.5,-395 332.5,-395 332.5,-398 329.5,-401 326.5,-401 326.5,-401 318.5,-401 318.5,-401 315.5,-401 312.5,-398 312.5,-395 312.5,-395 312.5,-389 312.5,-389 312.5,-386 315.5,-383 318.5,-383"/>
<text xml:space="preserve" text-anchor="start" x="321" y="-388.25" font-family="Arial" font-size="10.00"> </text>
<text xml:space="preserve" text-anchor="start" x="336.5" y="-388.25" font-family="Arial" font-size="10.00">Relationship</text>
<text xml:space="preserve" text-anchor="start" x="396.5" y="-389.5" font-family="Arial" font-weight="bold" font-size="10.00">(+)</text>
<text xml:space="preserve" text-anchor="start" x="408.5" y="-389.5" font-family="Arial" font-size="10.00"> increases complexity</text>
<text xml:space="preserve" text-anchor="start" x="509.75" y="-389.5" font-family="Arial" font-weight="bold" font-size="10.00">(−)</text>
<text xml:space="preserve" text-anchor="start" x="521.75" y="-389.5" font-family="Arial" font-size="10.00"> decreases complexity</text>
<!-- text.axis_label -->
<g id="node1" class="node">
<title>text.axis_label</title>
<path fill="#b8e6b8" stroke="#2c3e50" stroke-width="1.8" d="M45.25,-76C45.25,-76 12,-76 12,-76 6,-76 0,-70 0,-64 0,-64 0,-52 0,-52 0,-46 6,-40 12,-40 12,-40 45.25,-40 45.25,-40 51.25,-40 57.25,-46 57.25,-52 57.25,-52 57.25,-64 57.25,-64 57.25,-70 51.25,-76 45.25,-76"/>
<text xml:space="preserve" text-anchor="middle" x="28.62" y="-54.5" font-family="Arial" font-size="10.00" fill="#1a1a1a">axis label</text>
</g>
<!-- attr_0 -->
<g id="node7" class="node">
<title>attr_0</title>
<path fill="#c7b8e6" stroke="#7f8c8d" stroke-width="1.2" d="M219.38,-109C219.38,-109 129.88,-109 129.88,-109 123.88,-109 117.88,-103 117.88,-97 117.88,-97 117.88,-85 117.88,-85 117.88,-79 123.88,-73 129.88,-73 129.88,-73 219.38,-73 219.38,-73 225.38,-73 231.38,-79 231.38,-85 231.38,-85 231.38,-97 231.38,-97 231.38,-103 225.38,-109 219.38,-109"/>
<text xml:space="preserve" text-anchor="middle" x="174.62" y="-87.5" font-family="Arial" font-size="10.00" fill="#1a1a1a">(+) short cryptic labels</text>
</g>
<!-- text.axis_label&#45;&gt;attr_0 -->
<g id="edge1" class="edge">
<title>text.axis_label&#45;&gt;attr_0</title>
<path fill="none" stroke="#aaaaaa" d="M58.07,-64.52C72.79,-67.89 91.39,-72.15 109.34,-76.27"/>
<polygon fill="#aaaaaa" stroke="#aaaaaa" points="108.68,-78.63 116.05,-77.81 109.78,-73.85 108.68,-78.63"/>
</g>
<!-- rel_0 -->
<g id="node13" class="node">
<title>rel_0</title>
<path fill="#f5b8b8" stroke="#d46a6a" stroke-width="1.2" d="M229.12,-44C229.12,-44 120.12,-44 120.12,-44 114.12,-44 108.12,-38 108.12,-32 108.12,-32 108.12,-20 108.12,-20 108.12,-14 114.12,-8 120.12,-8 120.12,-8 229.12,-8 229.12,-8 235.12,-8 241.12,-14 241.12,-20 241.12,-20 241.12,-32 241.12,-32 241.12,-38 235.12,-44 229.12,-44"/>
<text xml:space="preserve" text-anchor="middle" x="174.62" y="-22.5" font-family="Arial" font-size="10.00" fill="#8b0000">increases processing effort</text>
</g>
<!-- text.axis_label&#45;&gt;rel_0 -->
<g id="edge7" class="edge">
<title>text.axis_label&#45;&gt;rel_0</title>
<path fill="none" stroke="#d46a6a" stroke-width="1.5" d="M58.07,-51.68C69.66,-49.1 83.66,-45.99 97.86,-42.84"/>
<polygon fill="#d46a6a" stroke="#d46a6a" stroke-width="1.5" points="98.27,-45.61 105.47,-41.15 97.05,-40.15 98.27,-45.61"/>
</g>
<!-- unknown.metric_text -->
<g id="node2" class="node">
<title>unknown.metric_text</title>
<path fill="#b8e6b8" stroke="#2c3e50" stroke-width="1.8" d="M342.5,-44C342.5,-44 304,-44 304,-44 298,-44 292,-38 292,-32 292,-32 292,-20 292,-20 292,-14 298,-8 304,-8 304,-8 342.5,-8 342.5,-8 348.5,-8 354.5,-14 354.5,-20 354.5,-20 354.5,-32 354.5,-32 354.5,-38 348.5,-44 342.5,-44"/>
<text xml:space="preserve" text-anchor="middle" x="323.25" y="-22.5" font-family="Arial" font-size="10.00" fill="#1a1a1a">metric text</text>
</g>
<!-- attr_1 -->
<g id="node8" class="node">
<title>attr_1</title>
<path fill="#c7b8e6" stroke="#7f8c8d" stroke-width="1.2" d="M535,-101C535,-101 409.5,-101 409.5,-101 403.5,-101 397.5,-95 397.5,-89 397.5,-89 397.5,-77 397.5,-77 397.5,-71 403.5,-65 409.5,-65 409.5,-65 535,-65 535,-65 541,-65 547,-71 547,-77 547,-77 547,-89 547,-89 547,-95 541,-101 535,-101"/>
<text xml:space="preserve" text-anchor="middle" x="472.25" y="-79.5" font-family="Arial" font-size="10.00" fill="#1a1a1a">(+) requires domain knowledge</text>
</g>
<!-- unknown.metric_text&#45;&gt;attr_1 -->
<g id="edge2" class="edge">
<title>unknown.metric_text&#45;&gt;attr_1</title>
<path fill="none" stroke="#aaaaaa" d="M355.07,-37.95C372.61,-44.75 395.12,-53.48 415.64,-61.44"/>
<polygon fill="#aaaaaa" stroke="#aaaaaa" points="414.58,-63.65 421.99,-63.9 416.35,-59.08 414.58,-63.65"/>
</g>
<!-- rel_2 -->
<g id="node15" class="node">
<title>rel_2</title>
<path fill="#f5b8b8" stroke="#d46a6a" stroke-width="1.2" d="M513.62,-36C513.62,-36 430.88,-36 430.88,-36 424.88,-36 418.88,-30 418.88,-24 418.88,-24 418.88,-12 418.88,-12 418.88,-6 424.88,0 430.88,0 430.88,0 513.62,0 513.62,0 519.62,0 525.62,-6 525.62,-12 525.62,-12 525.62,-24 525.62,-24 525.62,-30 519.62,-36 513.62,-36"/>
<text xml:space="preserve" text-anchor="middle" x="472.25" y="-14.5" font-family="Arial" font-size="10.00" fill="#8b0000">obscures meaning of</text>
</g>
<!-- unknown.metric_text&#45;&gt;rel_2 -->
<g id="edge11" class="edge">
<title>unknown.metric_text&#45;&gt;rel_2</title>
<path fill="none" stroke="#d46a6a" stroke-width="1.5" d="M355.07,-24.32C370.55,-23.48 389.91,-22.43 408.35,-21.42"/>
<polygon fill="#d46a6a" stroke="#d46a6a" stroke-width="1.5" points="408.37,-24.23 416.21,-21 408.07,-18.63 408.37,-24.23"/>
</g>
<!-- unknown.date_axis -->
<g id="node3" class="node">
<title>unknown.date_axis</title>
<path fill="#b8e6b8" stroke="#2c3e50" stroke-width="1.8" d="M44.5,-344C44.5,-344 12.75,-344 12.75,-344 6.75,-344 0.75,-338 0.75,-332 0.75,-332 0.75,-320 0.75,-320 0.75,-314 6.75,-308 12.75,-308 12.75,-308 44.5,-308 44.5,-308 50.5,-308 56.5,-314 56.5,-320 56.5,-320 56.5,-332 56.5,-332 56.5,-338 50.5,-344 44.5,-344"/>
<text xml:space="preserve" text-anchor="middle" x="28.62" y="-322.5" font-family="Arial" font-size="10.00" fill="#1a1a1a">date axis</text>
</g>
<!-- attr_2 -->
<g id="node9" class="node">
<title>attr_2</title>
<path fill="#c7b8e6" stroke="#7f8c8d" stroke-width="1.2" d="M211.5,-377C211.5,-377 137.75,-377 137.75,-377 131.75,-377 125.75,-371 125.75,-365 125.75,-365 125.75,-353 125.75,-353 125.75,-347 131.75,-341 137.75,-341 137.75,-341 211.5,-341 211.5,-341 217.5,-341 223.5,-347 223.5,-353 223.5,-353 223.5,-365 223.5,-365 223.5,-371 217.5,-377 211.5,-377"/>
<text xml:space="preserve" text-anchor="middle" x="174.62" y="-355.5" font-family="Arial" font-size="10.00" fill="#1a1a1a">(−) easy to identify</text>
</g>
<!-- unknown.date_axis&#45;&gt;attr_2 -->
<g id="edge3" class="edge">
<title>unknown.date_axis&#45;&gt;attr_2</title>
<path fill="none" stroke="#aaaaaa" d="M57.39,-332.36C74.35,-336.25 96.64,-341.36 117.17,-346.06"/>
<polygon fill="#aaaaaa" stroke="#aaaaaa" points="116.39,-348.4 123.76,-347.57 117.49,-343.62 116.39,-348.4"/>
</g>
<!-- rel_1 -->
<g id="node14" class="node">
<title>rel_1</title>
<path fill="#f5b8b8" stroke="#d46a6a" stroke-width="1.2" d="M218.62,-312C218.62,-312 130.62,-312 130.62,-312 124.62,-312 118.62,-306 118.62,-300 118.62,-300 118.62,-288 118.62,-288 118.62,-282 124.62,-276 130.62,-276 130.62,-276 218.62,-276 218.62,-276 224.62,-276 230.62,-282 230.62,-288 230.62,-288 230.62,-300 230.62,-300 230.62,-306 224.62,-312 218.62,-312"/>
<text xml:space="preserve" text-anchor="middle" x="174.62" y="-290.5" font-family="Arial" font-size="10.00" fill="#8b0000">reduces complexity of</text>
</g>
<!-- unknown.date_axis&#45;&gt;rel_1 -->
<g id="edge9" class="edge">
<title>unknown.date_axis&#45;&gt;rel_1</title>
<path fill="none" stroke="#d46a6a" stroke-width="1.5" d="M57.39,-319.83C71.94,-316.6 90.42,-312.49 108.35,-308.51"/>
<polygon fill="#d46a6a" stroke="#d46a6a" stroke-width="1.5" points="108.8,-311.27 116,-306.8 107.59,-305.81 108.8,-311.27"/>
</g>
<!-- mark.line -->
<g id="node4" class="node">
<title>mark.line</title>
<path fill="#b8e6b8" stroke="#2c3e50" stroke-width="1.8" d="M338.25,-198C338.25,-198 308.25,-198 308.25,-198 302.25,-198 296.25,-192 296.25,-186 296.25,-186 296.25,-174 296.25,-174 296.25,-168 302.25,-162 308.25,-162 308.25,-162 338.25,-162 338.25,-162 344.25,-162 350.25,-168 350.25,-174 350.25,-174 350.25,-186 350.25,-186 350.25,-192 344.25,-198 338.25,-198"/>
<text xml:space="preserve" text-anchor="middle" x="323.25" y="-176.5" font-family="Arial" font-size="10.00" fill="#1a1a1a">line</text>
</g>
<!-- attr_3 -->
<g id="node10" class="node">
<title>attr_3</title>
<path fill="#c7b8e6" stroke="#7f8c8d" stroke-width="1.2" d="M511.75,-198C511.75,-198 432.75,-198 432.75,-198 426.75,-198 420.75,-192 420.75,-186 420.75,-186 420.75,-174 420.75,-174 420.75,-168 426.75,-162 432.75,-162 432.75,-162 511.75,-162 511.75,-162 517.75,-162 523.75,-168 523.75,-174 523.75,-174 523.75,-186 523.75,-186 523.75,-192 517.75,-198 511.75,-198"/>
<text xml:space="preserve" text-anchor="middle" x="472.25" y="-176.5" font-family="Arial" font-size="10.00" fill="#1a1a1a">(−) clear visual form</text>
</g>
<!-- mark.line&#45;&gt;attr_3 -->
<g id="edge4" class="edge">
<title>mark.line&#45;&gt;attr_3</title>
<path fill="none" stroke="#aaaaaa" d="M350.87,-180C367.96,-180 390.86,-180 412.09,-180"/>
<polygon fill="#aaaaaa" stroke="#aaaaaa" points="411.93,-182.45 418.93,-180 411.93,-177.55 411.93,-182.45"/>
</g>
<!-- furniture.legend -->
<g id="node5" class="node">
<title>furniture.legend</title>
<path fill="#b8e6b8" stroke="#2c3e50" stroke-width="1.8" d="M632,-36C632,-36 602,-36 602,-36 596,-36 590,-30 590,-24 590,-24 590,-12 590,-12 590,-6 596,0 602,0 602,0 632,0 632,0 638,0 644,-6 644,-12 644,-12 644,-24 644,-24 644,-30 638,-36 632,-36"/>
<text xml:space="preserve" text-anchor="middle" x="617" y="-14.5" font-family="Arial" font-size="10.00" fill="#1a1a1a">legend</text>
</g>
<!-- attr_4 -->
<g id="node11" class="node">
<title>attr_4</title>
<path fill="#c7b8e6" stroke="#7f8c8d" stroke-width="1.2" d="M801.25,-36C801.25,-36 699,-36 699,-36 693,-36 687,-30 687,-24 687,-24 687,-12 687,-12 687,-6 693,0 699,0 699,0 801.25,0 801.25,0 807.25,0 813.25,-6 813.25,-12 813.25,-12 813.25,-24 813.25,-24 813.25,-30 807.25,-36 801.25,-36"/>
<text xml:space="preserve" text-anchor="middle" x="750.12" y="-14.5" font-family="Arial" font-size="10.00" fill="#1a1a1a">(+) unclear word relations</text>
</g>
<!-- furniture.legend&#45;&gt;attr_4 -->
<g id="edge5" class="edge">
<title>furniture.legend&#45;&gt;attr_4</title>
<path fill="none" stroke="#aaaaaa" d="M644.85,-18C654.71,-18 666.4,-18 678.31,-18"/>
<polygon fill="#aaaaaa" stroke="#aaaaaa" points="678.07,-20.45 685.07,-18 678.07,-15.55 678.07,-20.45"/>
</g>
<!-- property.color -->
<g id="node6" class="node">
<title>property.color</title>
<path fill="#b8e6b8" stroke="#2c3e50" stroke-width="1.8" d="M43.62,-215C43.62,-215 13.62,-215 13.62,-215 7.62,-215 1.62,-209 1.62,-203 1.62,-203 1.62,-191 1.62,-191 1.62,-185 7.62,-179 13.62,-179 13.62,-179 43.62,-179 43.62,-179 49.62,-179 55.62,-185 55.62,-191 55.62,-191 55.62,-203 55.62,-203 55.62,-209 49.62,-215 43.62,-215"/>
<text xml:space="preserve" text-anchor="middle" x="28.62" y="-193.5" font-family="Arial" font-size="10.00" fill="#1a1a1a">color</text>
</g>
<!-- attr_5 -->
<g id="node12" class="node">
<title>attr_5</title>
<path fill="#c7b8e6" stroke="#7f8c8d" stroke-width="1.2" d="M237,-247C237,-247 112.25,-247 112.25,-247 106.25,-247 100.25,-241 100.25,-235 100.25,-235 100.25,-223 100.25,-223 100.25,-217 106.25,-211 112.25,-211 112.25,-211 237,-211 237,-211 243,-211 249,-217 249,-223 249,-223 249,-235 249,-235 249,-241 243,-247 237,-247"/>
<text xml:space="preserve" text-anchor="middle" x="174.62" y="-225.5" font-family="Arial" font-size="10.00" fill="#1a1a1a">(−) clear distinguishable colors</text>
</g>
<!-- property.color&#45;&gt;attr_5 -->
<g id="edge6" class="edge">
<title>property.color&#45;&gt;attr_5</title>
<path fill="none" stroke="#aaaaaa" d="M56.37,-202.94C66.68,-205.23 79.06,-207.99 91.87,-210.83"/>
<polygon fill="#aaaaaa" stroke="#aaaaaa" points="91.04,-213.16 98.4,-212.28 92.1,-208.37 91.04,-213.16"/>
</g>
<!-- rel_3 -->
<g id="node16" class="node">
<title>rel_3</title>
<path fill="#f5b8b8" stroke="#d46a6a" stroke-width="1.2" d="M224.62,-182C224.62,-182 124.62,-182 124.62,-182 118.62,-182 112.62,-176 112.62,-170 112.62,-170 112.62,-158 112.62,-158 112.62,-152 118.62,-146 124.62,-146 124.62,-146 224.62,-146 224.62,-146 230.62,-146 236.62,-152 236.62,-158 236.62,-158 236.62,-170 236.62,-170 236.62,-176 230.62,-182 224.62,-182"/>
<text xml:space="preserve" text-anchor="middle" x="174.62" y="-160.5" font-family="Arial" font-size="10.00" fill="#8b0000">supports interpretation of</text>
</g>
<!-- property.color&#45;&gt;rel_3 -->
<g id="edge13" class="edge">
<title>property.color&#45;&gt;rel_3</title>
<path fill="none" stroke="#d46a6a" stroke-width="1.5" d="M56.37,-190.87C69.5,-187.86 85.99,-184.08 102.43,-180.32"/>
<polygon fill="#d46a6a" stroke="#d46a6a" stroke-width="1.5" points="102.69,-183.13 109.86,-178.61 101.44,-177.67 102.69,-183.13"/>
</g>
<!-- rel_0&#45;&gt;unknown.metric_text -->
<g id="edge8" class="edge">
<title>rel_0&#45;&gt;unknown.metric_text</title>
<path fill="none" stroke="#d46a6a" stroke-width="1.5" d="M241.65,-26C255.19,-26 269.06,-26 281.4,-26"/>
<polygon fill="#d46a6a" stroke="#d46a6a" stroke-width="1.5" points="281.09,-28.8 289.09,-26 281.09,-23.2 281.09,-28.8"/>
</g>
<!-- rel_1&#45;&gt;mark.line -->
<g id="edge10" class="edge">
<title>rel_1&#45;&gt;mark.line</title>
<path fill="none" stroke="#d46a6a" stroke-width="1.5" d="M226.15,-275.43C234.12,-271.53 242.02,-267.05 249,-262 270.13,-246.71 289.57,-224.38 303.11,-206.88"/>
<polygon fill="#d46a6a" stroke="#d46a6a" stroke-width="1.5" points="305.31,-208.62 307.89,-200.54 300.84,-205.24 305.31,-208.62"/>
</g>
<!-- rel_2&#45;&gt;furniture.legend -->
<g id="edge12" class="edge">
<title>rel_2&#45;&gt;furniture.legend</title>
<path fill="none" stroke="#d46a6a" stroke-width="1.5" d="M526,-18C543.72,-18 563.09,-18 579.3,-18"/>
<polygon fill="#d46a6a" stroke="#d46a6a" stroke-width="1.5" points="579.18,-20.8 587.18,-18 579.18,-15.2 579.18,-20.8"/>
</g>
<!-- rel_3&#45;&gt;mark.line -->
<g id="edge14" class="edge">
<title>rel_3&#45;&gt;mark.line</title>
<path fill="none" stroke="#d46a6a" stroke-width="1.5" d="M236.96,-170.69C253.38,-172.48 270.62,-174.37 285.27,-175.96"/>
<polygon fill="#d46a6a" stroke="#d46a6a" stroke-width="1.5" points="284.92,-178.74 293.17,-176.83 285.53,-173.18 284.92,-178.74"/>
</g>
</g>
</svg>
