<?xml version="1.0" encoding="UTF-8" standalone="no"?>
<!DOCTYPE svg PUBLIC "-//W3C//DTD SVG 1.1//EN"
 "http://www.w3.org/Graphics/SVG/1.1/DTD/svg11.dtd">
<!-- Generated by graphviz version 14.1.5 (20260411.2331)
 -->
<!-- Title: whoK22.png Pages: 1 -->
<svg width="822pt" height="440pt"
 viewBox="0.00 0.00 822.00 440.00" xmlns="http://www.w3.org/2000/svg" xmlns:xlink="http://www.w3.org/1999/xlink">
<g id="graph0" class="graph" transform="scale(1 1) rotate(0) translate(4 436.25)">
<title>whoK22.png</title>
<polygon fill="white" stroke="none" points="-4,4 -4,-436.25 817.5,-436.25 817.5,4 -4,4"/>
<text xml:space="preserve" text-anchor="start" x="366.25" y="-411.95" font-family="Arial" font-weight="bold" font-size="14.00">whoK22.png</text>
<text xml:space="preserve" text-anchor="start" x="362.12" y="-392" font-family="Arial" font-size="11.00">Point &#160;| &#160;VC = 0.58</text>
<path fill="#b8e6b8" stroke="none" d="M197.38,-367C197.38,-367 205.38,-367 205.38,-367 208.38,-367 211.38,-370 211.38,-373 211.38,-373 211.38,-379 211.38,-379 211.38,-382 208.38,-385 205.38,-385 205.38,-385 197.38,-385 197.38,-385 194.38,-385 191.38,-382 191.38,-379 191.38,-379 191.38,-373 191.38,-373 191.38,-370 194.38,-367 197.38,-367"/>
<path fill="none" stroke="black" d="M197.38,-367C197.38,-367 205.38,-367 205.38,-367 208.38,-367 211.38,-370 211.38,-373 211.38,-373 211.38,-379 211.38,-379 211.38,-382 208.38,-385 205.38,-385 205.38,-385 197.38,-385 197.38,-385 194.38,-385 191.38,-382 191.38,-379 191.38,-379 191.38,-373 191.38,-373 191.38,-370 194.38,-367 197.38,-367"/>
<text xml:space="preserve" text-anchor="start" x="199.88" y="-372.25" font-family="Arial" font-size="10.00"> </text>
<text xml:space="preserve" text-anchor="start" x="215.38" y="-372.25" font-family="Arial" font-size="10.00">Object</text>
<path fill="#c7b8e6" stroke="none" d="M253.88,-367C253.88,-367 261.88,-367 261.88,-367 264.88,-367 267.88,-370 267.88,-373 267.88,-373 267.88,-379 267.88,-379 267.88,-382 264.88,-385 261.88,-385 261.88,-385 253.88,-385 253.88,-385 250.88,-385 247.88,-382 247.88,-379 247.88,-379 247.88,-373 247.88,-373 247.88,-370 250.88,-367 253.88,-367"/>
<path fill="none" stroke="black" d="M253.88,-367C253.88,-367 261.88,-367 261.88,-367 264.88,-367 267.88,-370 267.88,-373 267.88,-373 267.88,-379 267.88,-379 267.88,-382 264.88,-385 261.88,-385 261.88,-385 253.88,-385 253.88,-385 250.88,-385 247.88,-382 247.88,-379 247.88,-379 247.88,-373 247.88,-373 247.88,-370 250.88,-367 253.88,-367"/>
<text xml:space="preserve" text-anchor="start" x="256.38" y="-372.25" font-family="Arial" font-size="10.00"> </text>
<text xml:space="preserve" text-anchor="start" x="271.88" y="-372.25" font-family="Arial" font-size="10.00">Attribute</text>
<path fill="#f5b8b8" stroke="none" d="M318.62,-367C318.62,-367 326.62,-367 326.62,-367 329.62,-367 332.62,-370 332.62,-373 332.62,-373 332.62,-379 332.62,-379 332.62,-382 329.62,-385 326.62,-385 326.62,-385 318.62,-385 318.62,-385 315.62,-385 312.62,-382 312.62,-379 312.62,-379 312.62,-373 312.62,-373 312.62,-370 315.62,-367 318.62,-367"/>
<path fill="none" stroke="black" d="M318.62,-367C318.62,-367 326.62,-367 326.62,-367 329.62,-367 332.62,-370 332.62,-373 332.62,-373 332.62,-379 332.62,-379 332.62,-382 329.62,-385 326.62,-385 326.62,-385 318.62,-385 318.62,-385 315.62,-385 312.62,-382 312.62,-379 312.62,-379 312.62,-373 312.62,-373 312.62,-370 315.62,-367 318.62,-367"/>
<text xml:space="preserve" text-anchor="start" x="321.12" y="-372.25" font-family="Arial" font-size="10.00"> </text>
<text xml:space="preserve" text-anchor="start" x="336.62" y="-372.25" font-family="Arial" font-size="10.00">Relationship</text>
<text xml:space="preserve" text-anchor="start" x="396.62" y="-373.5" font-family="Arial" font-weight="bold" font-size="10.00">(+)</text>
<text xml:space="preserve" text-anchor="start" x="408.62" y="-373.5" font-family="Arial" font-size="10.00"> increases complexity</text>
<text xml:space="preserve" text-anchor="start" x="509.88" y="-373.5" font-family="Arial" font-weight="bold" font-size="10.00">(−)</text>
<text xml:space="preserve" text-anchor="start" x="521.88" y="-373.5" font-family="Arial" font-size="10.00"> decreases complexity</text>
<!-- unknown.lines -->
<g id="node1" class="node">
<title>unknown.lines</title>
<path fill="#b8e6b8" stroke="#2c3e50" stroke-width="1.8" d="M45.5,-263C45.5,-263 15.5,-263 15.5,-263 9.5,-263 3.5,-257 3.5,-251 3.5,-251 3.5,-239 3.5,-239 3.5,-233 9.5,-227 15.5,-227 15.5,-227 45.5,-227 45.5,-227 51.5,-227 57.5,-233 57.5,-239 57.5,-239 57.5,-251 57.5,-251 57.5,-257 51.5,-263 45.5,-263"/>
<text xml:space="preserve" text-anchor="middle" x="30.5" y="-241.5" font-family="Arial" font-size="10.00" fill="#1a1a1a">lines</text>
</g>
<!-- attr_0 -->
<g id="node6" class="node">
<title>attr_0</title>
<path fill="#c7b8e6" stroke="#7f8c8d" stroke-width="1.2" d="M220.5,-361C220.5,-361 116,-361 116,-361 110,-361 104,-355 104,-349 104,-349 104,-337 104,-337 104,-331 110,-325 116,-325 116,-325 220.5,-325 220.5,-325 226.5,-325 232.5,-331 232.5,-337 232.5,-337 232.5,-349 232.5,-349 232.5,-355 226.5,-361 220.5,-361"/>
<text xml:space="preserve" text-anchor="middle" x="168.25" y="-339.5" font-family="Arial" font-size="10.00" fill="#1a1a1a">(+) inconsistent directions</text>
</g>
<!-- unknown.lines&#45;&gt;attr_0 -->
<g id="edge1" class="edge">
<title>unknown.lines&#45;&gt;attr_0</title>
<path fill="none" stroke="#aaaaaa" d="M49.4,-263.86C63.4,-277.95 83.82,-297.09 104,-311 108.81,-314.31 114,-317.5 119.28,-320.49"/>
<polygon fill="#aaaaaa" stroke="#aaaaaa" points="117.85,-322.5 125.17,-323.71 120.21,-318.2 117.85,-322.5"/>
</g>
<!-- attr_1 -->
<g id="node7" class="node">
<title>attr_1</title>
<path fill="#c7b8e6" stroke="#7f8c8d" stroke-width="1.2" d="M207.75,-296C207.75,-296 128.75,-296 128.75,-296 122.75,-296 116.75,-290 116.75,-284 116.75,-284 116.75,-272 116.75,-272 116.75,-266 122.75,-260 128.75,-260 128.75,-260 207.75,-260 207.75,-260 213.75,-260 219.75,-266 219.75,-272 219.75,-272 219.75,-284 219.75,-284 219.75,-290 213.75,-296 207.75,-296"/>
<text xml:space="preserve" text-anchor="middle" x="168.25" y="-274.5" font-family="Arial" font-size="10.00" fill="#1a1a1a">(+) varying amounts</text>
</g>
<!-- unknown.lines&#45;&gt;attr_1 -->
<g id="edge2" class="edge">
<title>unknown.lines&#45;&gt;attr_1</title>
<path fill="none" stroke="#aaaaaa" d="M58.32,-251.52C72.66,-255.01 90.91,-259.44 108.36,-263.68"/>
<polygon fill="#aaaaaa" stroke="#aaaaaa" points="107.46,-265.99 114.84,-265.26 108.61,-261.22 107.46,-265.99"/>
</g>
<!-- rel_0 -->
<g id="node12" class="node">
<title>rel_0</title>
<path fill="#f5b8b8" stroke="#d46a6a" stroke-width="1.2" d="M210.38,-231C210.38,-231 126.12,-231 126.12,-231 120.12,-231 114.12,-225 114.12,-219 114.12,-219 114.12,-207 114.12,-207 114.12,-201 120.12,-195 126.12,-195 126.12,-195 210.38,-195 210.38,-195 216.38,-195 222.38,-201 222.38,-207 222.38,-207 222.38,-219 222.38,-219 222.38,-225 216.38,-231 210.38,-231"/>
<text xml:space="preserve" text-anchor="middle" x="168.25" y="-209.5" font-family="Arial" font-size="10.00" fill="#8b0000">increases difficulty of</text>
</g>
<!-- unknown.lines&#45;&gt;rel_0 -->
<g id="edge7" class="edge">
<title>unknown.lines&#45;&gt;rel_0</title>
<path fill="none" stroke="#d46a6a" stroke-width="1.5" d="M58.32,-238.68C71.37,-235.6 87.67,-231.76 103.65,-227.99"/>
<polygon fill="#d46a6a" stroke="#d46a6a" stroke-width="1.5" points="104.18,-230.74 111.32,-226.18 102.89,-225.29 104.18,-230.74"/>
</g>
<!-- rel_2 -->
<g id="node14" class="node">
<title>rel_2</title>
<path fill="#f5b8b8" stroke="#d46a6a" stroke-width="1.2" d="M190.5,-166C190.5,-166 146,-166 146,-166 140,-166 134,-160 134,-154 134,-154 134,-142 134,-142 134,-136 140,-130 146,-130 146,-130 190.5,-130 190.5,-130 196.5,-130 202.5,-136 202.5,-142 202.5,-142 202.5,-154 202.5,-154 202.5,-160 196.5,-166 190.5,-166"/>
<text xml:space="preserve" text-anchor="middle" x="168.25" y="-144.5" font-family="Arial" font-size="10.00" fill="#8b0000">overwhelms</text>
</g>
<!-- unknown.lines&#45;&gt;rel_2 -->
<g id="edge11" class="edge">
<title>unknown.lines&#45;&gt;rel_2</title>
<path fill="none" stroke="#d46a6a" stroke-width="1.5" d="M50.14,-226.26C64.19,-212.72 84.35,-194.5 104,-181 110.46,-176.56 117.59,-172.3 124.67,-168.4"/>
<polygon fill="#d46a6a" stroke="#d46a6a" stroke-width="1.5" points="125.8,-170.97 131.54,-164.74 123.16,-166.03 125.8,-170.97"/>
</g>
<!-- unknown.direction_pattern -->
<g id="node2" class="node">
<title>unknown.direction_pattern</title>
<path fill="#b8e6b8" stroke="#2c3e50" stroke-width="1.8" d="M349.25,-231C349.25,-231 287.5,-231 287.5,-231 281.5,-231 275.5,-225 275.5,-219 275.5,-219 275.5,-207 275.5,-207 275.5,-201 281.5,-195 287.5,-195 287.5,-195 349.25,-195 349.25,-195 355.25,-195 361.25,-201 361.25,-207 361.25,-207 361.25,-219 361.25,-219 361.25,-225 355.25,-231 349.25,-231"/>
<text xml:space="preserve" text-anchor="middle" x="318.38" y="-209.5" font-family="Arial" font-size="10.00" fill="#1a1a1a">direction pattern</text>
</g>
<!-- attr_2 -->
<g id="node8" class="node">
<title>attr_2</title>
<path fill="#c7b8e6" stroke="#7f8c8d" stroke-width="1.2" d="M494.88,-231C494.88,-231 429.38,-231 429.38,-231 423.38,-231 417.38,-225 417.38,-219 417.38,-219 417.38,-207 417.38,-207 417.38,-201 423.38,-195 429.38,-195 429.38,-195 494.88,-195 494.88,-195 500.88,-195 506.88,-201 506.88,-207 506.88,-207 506.88,-219 506.88,-219 506.88,-225 500.88,-231 494.88,-231"/>
<text xml:space="preserve" text-anchor="middle" x="462.12" y="-209.5" font-family="Arial" font-size="10.00" fill="#1a1a1a">(+) hard to follow</text>
</g>
<!-- unknown.direction_pattern&#45;&gt;attr_2 -->
<g id="edge3" class="edge">
<title>unknown.direction_pattern&#45;&gt;attr_2</title>
<path fill="none" stroke="#aaaaaa" d="M361.9,-213C376.63,-213 393.31,-213 408.73,-213"/>
<polygon fill="#aaaaaa" stroke="#aaaaaa" points="408.64,-215.45 415.64,-213 408.64,-210.55 408.64,-215.45"/>
</g>
<!-- text.annotation -->
<g id="node3" class="node">
<title>text.annotation</title>
<path fill="#b8e6b8" stroke="#2c3e50" stroke-width="1.8" d="M49,-69C49,-69 12,-69 12,-69 6,-69 0,-63 0,-57 0,-57 0,-45 0,-45 0,-39 6,-33 12,-33 12,-33 49,-33 49,-33 55,-33 61,-39 61,-45 61,-45 61,-57 61,-57 61,-63 55,-69 49,-69"/>
<text xml:space="preserve" text-anchor="middle" x="30.5" y="-47.5" font-family="Arial" font-size="10.00" fill="#1a1a1a">annotation</text>
</g>
<!-- attr_3 -->
<g id="node9" class="node">
<title>attr_3</title>
<path fill="#c7b8e6" stroke="#7f8c8d" stroke-width="1.2" d="M219.75,-101C219.75,-101 116.75,-101 116.75,-101 110.75,-101 104.75,-95 104.75,-89 104.75,-89 104.75,-77 104.75,-77 104.75,-71 110.75,-65 116.75,-65 116.75,-65 219.75,-65 219.75,-65 225.75,-65 231.75,-71 231.75,-77 231.75,-77 231.75,-89 231.75,-89 231.75,-95 225.75,-101 219.75,-101"/>
<text xml:space="preserve" text-anchor="middle" x="168.25" y="-79.5" font-family="Arial" font-size="10.00" fill="#1a1a1a">(+) absent contextual info</text>
</g>
<!-- text.annotation&#45;&gt;attr_3 -->
<g id="edge4" class="edge">
<title>text.annotation&#45;&gt;attr_3</title>
<path fill="none" stroke="#aaaaaa" d="M61.63,-58.1C72.01,-60.55 84.11,-63.4 96.35,-66.29"/>
<polygon fill="#aaaaaa" stroke="#aaaaaa" points="95.55,-68.62 102.92,-67.84 96.67,-63.85 95.55,-68.62"/>
</g>
<!-- rel_1 -->
<g id="node13" class="node">
<title>rel_1</title>
<path fill="#f5b8b8" stroke="#d46a6a" stroke-width="1.2" d="M195,-36C195,-36 141.5,-36 141.5,-36 135.5,-36 129.5,-30 129.5,-24 129.5,-24 129.5,-12 129.5,-12 129.5,-6 135.5,0 141.5,0 141.5,0 195,0 195,0 201,0 207,-6 207,-12 207,-12 207,-24 207,-24 207,-30 201,-36 195,-36"/>
<text xml:space="preserve" text-anchor="middle" x="168.25" y="-14.5" font-family="Arial" font-size="10.00" fill="#8b0000">fails to anchor</text>
</g>
<!-- text.annotation&#45;&gt;rel_1 -->
<g id="edge9" class="edge">
<title>text.annotation&#45;&gt;rel_1</title>
<path fill="none" stroke="#d46a6a" stroke-width="1.5" d="M61.63,-43.68C78.52,-39.57 99.99,-34.35 119.16,-29.69"/>
<polygon fill="#d46a6a" stroke="#d46a6a" stroke-width="1.5" points="119.62,-32.46 126.73,-27.85 118.29,-27.02 119.62,-32.46"/>
</g>
<!-- unknown.visual_structure -->
<g id="node4" class="node">
<title>unknown.visual_structure</title>
<path fill="#b8e6b8" stroke="#2c3e50" stroke-width="1.8" d="M347.75,-85C347.75,-85 289,-85 289,-85 283,-85 277,-79 277,-73 277,-73 277,-61 277,-61 277,-55 283,-49 289,-49 289,-49 347.75,-49 347.75,-49 353.75,-49 359.75,-55 359.75,-61 359.75,-61 359.75,-73 359.75,-73 359.75,-79 353.75,-85 347.75,-85"/>
<text xml:space="preserve" text-anchor="middle" x="318.38" y="-63.5" font-family="Arial" font-size="10.00" fill="#1a1a1a">visual structure</text>
</g>
<!-- attr_4 -->
<g id="node10" class="node">
<title>attr_4</title>
<path fill="#c7b8e6" stroke="#7f8c8d" stroke-width="1.2" d="M508,-118C508,-118 416.25,-118 416.25,-118 410.25,-118 404.25,-112 404.25,-106 404.25,-106 404.25,-94 404.25,-94 404.25,-88 410.25,-82 416.25,-82 416.25,-82 508,-82 508,-82 514,-82 520,-88 520,-94 520,-94 520,-106 520,-106 520,-112 514,-118 508,-118"/>
<text xml:space="preserve" text-anchor="middle" x="462.12" y="-96.5" font-family="Arial" font-size="10.00" fill="#1a1a1a">(+) lacks instant clarity</text>
</g>
<!-- unknown.visual_structure&#45;&gt;attr_4 -->
<g id="edge5" class="edge">
<title>unknown.visual_structure&#45;&gt;attr_4</title>
<path fill="none" stroke="#aaaaaa" d="M360.37,-76.54C371.4,-79.11 383.61,-81.95 395.62,-84.75"/>
<polygon fill="#aaaaaa" stroke="#aaaaaa" points="395.03,-87.13 402.4,-86.33 396.14,-82.36 395.03,-87.13"/>
</g>
<!-- rel_3 -->
<g id="node15" class="node">
<title>rel_3</title>
<path fill="#f5b8b8" stroke="#d46a6a" stroke-width="1.2" d="M498.62,-53C498.62,-53 425.62,-53 425.62,-53 419.62,-53 413.62,-47 413.62,-41 413.62,-41 413.62,-29 413.62,-29 413.62,-23 419.62,-17 425.62,-17 425.62,-17 498.62,-17 498.62,-17 504.62,-17 510.62,-23 510.62,-29 510.62,-29 510.62,-41 510.62,-41 510.62,-47 504.62,-53 498.62,-53"/>
<text xml:space="preserve" text-anchor="middle" x="462.12" y="-31.5" font-family="Arial" font-size="10.00" fill="#8b0000">lacks reference for</text>
</g>
<!-- unknown.visual_structure&#45;&gt;rel_3 -->
<g id="edge13" class="edge">
<title>unknown.visual_structure&#45;&gt;rel_3</title>
<path fill="none" stroke="#d46a6a" stroke-width="1.5" d="M360.37,-57.74C373.79,-54.71 388.96,-51.29 403.38,-48.04"/>
<polygon fill="#d46a6a" stroke="#d46a6a" stroke-width="1.5" points="403.81,-50.81 411,-46.32 402.58,-45.35 403.81,-50.81"/>
</g>
<!-- unknown.data_points -->
<g id="node5" class="node">
<title>unknown.data_points</title>
<path fill="#b8e6b8" stroke="#2c3e50" stroke-width="1.8" d="M615,-53C615,-53 575,-53 575,-53 569,-53 563,-47 563,-41 563,-41 563,-29 563,-29 563,-23 569,-17 575,-17 575,-17 615,-17 615,-17 621,-17 627,-23 627,-29 627,-29 627,-41 627,-41 627,-47 621,-53 615,-53"/>
<text xml:space="preserve" text-anchor="middle" x="595" y="-31.5" font-family="Arial" font-size="10.00" fill="#1a1a1a">data points</text>
</g>
<!-- attr_5 -->
<g id="node11" class="node">
<title>attr_5</title>
<path fill="#c7b8e6" stroke="#7f8c8d" stroke-width="1.2" d="M801.5,-53C801.5,-53 682,-53 682,-53 676,-53 670,-47 670,-41 670,-41 670,-29 670,-29 670,-23 676,-17 682,-17 682,-17 801.5,-17 801.5,-17 807.5,-17 813.5,-23 813.5,-29 813.5,-29 813.5,-41 813.5,-41 813.5,-47 807.5,-53 801.5,-53"/>
<text xml:space="preserve" text-anchor="middle" x="741.75" y="-31.5" font-family="Arial" font-size="10.00" fill="#1a1a1a">(+) abstract unintuitive marks</text>
</g>
<!-- unknown.data_points&#45;&gt;attr_5 -->
<g id="edge6" class="edge">
<title>unknown.data_points&#45;&gt;attr_5</title>
<path fill="none" stroke="#aaaaaa" d="M627.77,-35C637.84,-35 649.47,-35 661.35,-35"/>
<polygon fill="#aaaaaa" stroke="#aaaaaa" points="661.09,-37.45 668.09,-35 661.09,-32.55 661.09,-37.45"/>
</g>
<!-- rel_0&#45;&gt;unknown.direction_pattern -->
<g id="edge8" class="edge">
<title>rel_0&#45;&gt;unknown.direction_pattern</title>
<path fill="none" stroke="#d46a6a" stroke-width="1.5" d="M222.73,-213C236.33,-213 250.94,-213 264.51,-213"/>
<polygon fill="#d46a6a" stroke="#d46a6a" stroke-width="1.5" points="264.39,-215.8 272.39,-213 264.39,-210.2 264.39,-215.8"/>
</g>
<!-- rel_1&#45;&gt;unknown.visual_structure -->
<g id="edge10" class="edge">
<title>rel_1&#45;&gt;unknown.visual_structure</title>
<path fill="none" stroke="#d46a6a" stroke-width="1.5" d="M207.4,-30.62C225.44,-36.59 247.23,-43.79 266.64,-50.22"/>
<polygon fill="#d46a6a" stroke="#d46a6a" stroke-width="1.5" points="265.61,-52.83 274.08,-52.68 267.37,-47.51 265.61,-52.83"/>
</g>
<!-- rel_2&#45;&gt;unknown.visual_structure -->
<g id="edge12" class="edge">
<title>rel_2&#45;&gt;unknown.visual_structure</title>
<path fill="none" stroke="#d46a6a" stroke-width="1.5" d="M202.91,-131.4C212.53,-126.55 222.98,-121.15 232.5,-116 247.25,-108.02 263.22,-98.92 277.28,-90.75"/>
<polygon fill="#d46a6a" stroke="#d46a6a" stroke-width="1.5" points="278.31,-93.4 283.81,-86.95 275.49,-88.56 278.31,-93.4"/>
</g>
<!-- rel_3&#45;&gt;unknown.data_points -->
<g id="edge14" class="edge">
<title>rel_3&#45;&gt;unknown.data_points</title>
<path fill="none" stroke="#d46a6a" stroke-width="1.5" d="M511.11,-35C524.58,-35 539.12,-35 552.2,-35"/>
<polygon fill="#d46a6a" stroke="#d46a6a" stroke-width="1.5" points="552.06,-37.8 560.06,-35 552.06,-32.2 552.06,-37.8"/>
</g>
</g>
</svg>
