<?xml version="1.0" encoding="UTF-8" standalone="no"?>
<!DOCTYPE svg PUBLIC "-//W3C//DTD SVG 1.1//EN"
 "http://www.w3.org/Graphics/SVG/1.1/DTD/svg11.dtd">
<!-- Generated by graphviz version 14.1.5 (20260411.2331)
 -->
<!-- Title: whoO03.png Pages: 1 -->
<svg width="502pt" height="440pt"
 viewBox="0.00 0.00 502.00 440.00" xmlns="http://www.w3.org/2000/svg" xmlns:xlink="http://www.w3.org/1999/xlink">
<g id="graph0" class="graph" transform="scale(1 1) rotate(0) translate(4 436.25)">
<title>whoO03.png</title>
<polygon fill="white" stroke="none" points="-4,4 -4,-436.25 497.5,-436.25 497.5,4 -4,4"/>
<text xml:space="preserve" text-anchor="start" x="205.5" y="-411.95" font-family="Arial" font-weight="bold" font-size="14.00">whoO03.png</text>
<text xml:space="preserve" text-anchor="start" x="204.38" y="-392" font-family="Arial" font-size="11.00">Line &#160;| &#160;VC = 0.48</text>
<path fill="#b8e6b8" stroke="none" d="M37.38,-367C37.38,-367 45.38,-367 45.38,-367 48.38,-367 51.38,-370 51.38,-373 51.38,-373 51.38,-379 51.38,-379 51.38,-382 48.38,-385 45.38,-385 45.38,-385 37.38,-385 37.38,-385 34.38,-385 31.38,-382 31.38,-379 31.38,-379 31.38,-373 31.38,-373 31.38,-370 34.38,-367 37.38,-367"/>
<path fill="none" stroke="black" d="M37.38,-367C37.38,-367 45.38,-367 45.38,-367 48.38,-367 51.38,-370 51.38,-373 51.38,-373 51.38,-379 51.38,-379 51.38,-382 48.38,-385 45.38,-385 45.38,-385 37.38,-385 37.38,-385 34.38,-385 31.38,-382 31.38,-379 31.38,-379 31.38,-373 31.38,-373 31.38,-370 34.38,-367 37.38,-367"/>
<text xml:space="preserve" text-anchor="start" x="39.88" y="-372.25" font-family="Arial" font-size="10.00"> </text>
<text xml:space="preserve" text-anchor="start" x="55.38" y="-372.25" font-family="Arial" font-size="10.00">Object</text>
<path fill="#c7b8e6" stroke="none" d="M93.88,-367C93.88,-367 101.88,-367 101.88,-367 104.88,-367 107.88,-370 107.88,-373 107.88,-373 107.88,-379 107.88,-379 107.88,-382 104.88,-385 101.88,-385 101.88,-385 93.88,-385 93.88,-385 90.88,-385 87.88,-382 87.88,-379 87.88,-379 87.88,-373 87.88,-373 87.88,-370 90.88,-367 93.88,-367"/>
<path fill="none" stroke="black" d="M93.88,-367C93.88,-367 101.88,-367 101.88,-367 104.88,-367 107.88,-370 107.88,-373 107.88,-373 107.88,-379 107.88,-379 107.88,-382 104.88,-385 101.88,-385 101.88,-385 93.88,-385 93.88,-385 90.88,-385 87.88,-382 87.88,-379 87.88,-379 87.88,-373 87.88,-373 87.88,-370 90.88,-367 93.88,-367"/>
<text xml:space="preserve" text-anchor="start" x="96.38" y="-372.25" font-family="Arial" font-size="10.00"> </text>
<text xml:space="preserve" text-anchor="start" x="111.88" y="-372.25" font-family="Arial" font-size="10.00">Attribute</text>
<path fill="#f5b8b8" stroke="none" d="M158.62,-367C158.62,-367 166.62,-367 166.62,-367 169.62,-367 172.62,-370 172.62,-373 172.62,-373 172.62,-379 172.62,-379 172.62,-382 169.62,-385 166.62,-385 166.62,-385 158.62,-385 158.62,-385 155.62,-385 152.62,-382 152.62,-379 152.62,-379 152.62,-373 152.62,-373 152.62,-370 155.62,-367 158.62,-367"/>
<path fill="none" stroke="black" d="M158.62,-367C158.62,-367 166.62,-367 166.62,-367 169.62,-367 172.62,-370 172.62,-373 172.62,-373 172.62,-379 172.62,-379 172.62,-382 169.62,-385 166.62,-385 166.62,-385 158.62,-385 158.62,-385 155.62,-385 152.62,-382 152.62,-379 152.62,-379 152.62,-373 152.62,-373 152.62,-370 155.62,-367 158.62,-367"/>
<text xml:space="preserve" text-anchor="start" x="161.12" y="-372.25" font-family="Arial" font-size="10.00"> </text>
<text xml:space="preserve" text-anchor="start" x="176.62" y="-372.25" font-family="Arial" font-size="10.00">Relationship</text>
<text xml:space="preserve" text-anchor="start" x="236.62" y="-373.5" font-family="Arial" font-weight="bold" font-size="10.00">(+)</text>
<text xml:space="preserve" text-anchor="start" x="248.62" y="-373.5" font-family="Arial" font-size="10.00"> increases complexity</text>
<text xml:space="preserve" text-anchor="start" x="349.88" y="-373.5" font-family="Arial" font-weight="bold" font-size="10.00">(−)</text>
<text xml:space="preserve" text-anchor="start" x="361.88" y="-373.5" font-family="Arial" font-size="10.00"> decreases complexity</text>
<!-- mark.line -->
<g id="node1" class="node">
<title>mark.line</title>
<path fill="#b8e6b8" stroke="#2c3e50" stroke-width="1.8" d="M42,-134C42,-134 12,-134 12,-134 6,-134 0,-128 0,-122 0,-122 0,-110 0,-110 0,-104 6,-98 12,-98 12,-98 42,-98 42,-98 48,-98 54,-104 54,-110 54,-110 54,-122 54,-122 54,-128 48,-134 42,-134"/>
<text xml:space="preserve" text-anchor="middle" x="27" y="-112.5" font-family="Arial" font-size="10.00" fill="#1a1a1a">line</text>
</g>
<!-- attr_0 -->
<g id="node5" class="node">
<title>attr_0</title>
<path fill="#c7b8e6" stroke="#7f8c8d" stroke-width="1.2" d="M221,-231C221,-231 109,-231 109,-231 103,-231 97,-225 97,-219 97,-219 97,-207 97,-207 97,-201 103,-195 109,-195 109,-195 221,-195 221,-195 227,-195 233,-201 233,-207 233,-207 233,-219 233,-219 233,-225 227,-231 221,-231"/>
<text xml:space="preserve" text-anchor="middle" x="165" y="-209.5" font-family="Arial" font-size="10.00" fill="#1a1a1a">(−) smooth continuous form</text>
</g>
<!-- mark.line&#45;&gt;attr_0 -->
<g id="edge1" class="edge">
<title>mark.line&#45;&gt;attr_0</title>
<path fill="none" stroke="#aaaaaa" d="M45.21,-134.66C58.48,-148.34 77.75,-166.75 97,-180 102.53,-183.8 108.56,-187.42 114.66,-190.76"/>
<polygon fill="#aaaaaa" stroke="#aaaaaa" points="113.17,-192.74 120.5,-193.86 115.46,-188.41 113.17,-192.74"/>
</g>
<!-- attr_2 -->
<g id="node6" class="node">
<title>attr_2</title>
<path fill="#c7b8e6" stroke="#7f8c8d" stroke-width="1.2" d="M198.88,-166C198.88,-166 131.12,-166 131.12,-166 125.12,-166 119.12,-160 119.12,-154 119.12,-154 119.12,-142 119.12,-142 119.12,-136 125.12,-130 131.12,-130 131.12,-130 198.88,-130 198.88,-130 204.88,-130 210.88,-136 210.88,-142 210.88,-142 210.88,-154 210.88,-154 210.88,-160 204.88,-166 198.88,-166"/>
<text xml:space="preserve" text-anchor="middle" x="165" y="-144.5" font-family="Arial" font-size="10.00" fill="#1a1a1a">(−) easy to follow</text>
</g>
<!-- mark.line&#45;&gt;attr_2 -->
<g id="edge2" class="edge">
<title>mark.line&#45;&gt;attr_2</title>
<path fill="none" stroke="#aaaaaa" d="M54.87,-122.32C70.79,-126.07 91.52,-130.95 110.64,-135.44"/>
<polygon fill="#aaaaaa" stroke="#aaaaaa" points="109.86,-137.78 117.24,-137 110.98,-133.01 109.86,-137.78"/>
</g>
<!-- rel_0 -->
<g id="node9" class="node">
<title>rel_0</title>
<path fill="#f5b8b8" stroke="#d46a6a" stroke-width="1.2" d="M180,-101C180,-101 150,-101 150,-101 144,-101 138,-95 138,-89 138,-89 138,-77 138,-77 138,-71 144,-65 150,-65 150,-65 180,-65 180,-65 186,-65 192,-71 192,-77 192,-77 192,-89 192,-89 192,-95 186,-101 180,-101"/>
<text xml:space="preserve" text-anchor="middle" x="165" y="-79.5" font-family="Arial" font-size="10.00" fill="#8b0000">reduces</text>
</g>
<!-- mark.line&#45;&gt;rel_0 -->
<g id="edge5" class="edge">
<title>mark.line&#45;&gt;rel_0</title>
<path fill="none" stroke="#d46a6a" stroke-width="1.5" d="M54.87,-109.48C75.77,-104.41 104.98,-97.32 127.92,-91.75"/>
<polygon fill="#d46a6a" stroke="#d46a6a" stroke-width="1.5" points="128.33,-94.54 135.44,-89.93 127.01,-89.09 128.33,-94.54"/>
</g>
<!-- rel_2 -->
<g id="node11" class="node">
<title>rel_2</title>
<path fill="#f5b8b8" stroke="#d46a6a" stroke-width="1.2" d="M180,-36C180,-36 150,-36 150,-36 144,-36 138,-30 138,-24 138,-24 138,-12 138,-12 138,-6 144,0 150,0 150,0 180,0 180,0 186,0 192,-6 192,-12 192,-12 192,-24 192,-24 192,-30 186,-36 180,-36"/>
<text xml:space="preserve" text-anchor="middle" x="165" y="-14.5" font-family="Arial" font-size="10.00" fill="#8b0000">lowers</text>
</g>
<!-- mark.line&#45;&gt;rel_2 -->
<g id="edge9" class="edge">
<title>mark.line&#45;&gt;rel_2</title>
<path fill="none" stroke="#d46a6a" stroke-width="1.5" d="M44.51,-97.24C57.71,-83.02 77.22,-63.66 97,-50 106.58,-43.38 117.75,-37.45 128.18,-32.54"/>
<polygon fill="#d46a6a" stroke="#d46a6a" stroke-width="1.5" points="129.29,-35.12 135.42,-29.27 126.98,-30.01 129.29,-35.12"/>
</g>
<!-- unknown.curve -->
<g id="node2" class="node">
<title>unknown.curve</title>
<path fill="#b8e6b8" stroke="#2c3e50" stroke-width="1.8" d="M42,-328C42,-328 12,-328 12,-328 6,-328 0,-322 0,-316 0,-316 0,-304 0,-304 0,-298 6,-292 12,-292 12,-292 42,-292 42,-292 48,-292 54,-298 54,-304 54,-304 54,-316 54,-316 54,-322 48,-328 42,-328"/>
<text xml:space="preserve" text-anchor="middle" x="27" y="-306.5" font-family="Arial" font-size="10.00" fill="#1a1a1a">curve</text>
</g>
<!-- attr_1 -->
<g id="node7" class="node">
<title>attr_1</title>
<path fill="#c7b8e6" stroke="#7f8c8d" stroke-width="1.2" d="M206,-361C206,-361 124,-361 124,-361 118,-361 112,-355 112,-349 112,-349 112,-337 112,-337 112,-331 118,-325 124,-325 124,-325 206,-325 206,-325 212,-325 218,-331 218,-337 218,-337 218,-349 218,-349 218,-355 212,-361 206,-361"/>
<text xml:space="preserve" text-anchor="middle" x="165" y="-339.5" font-family="Arial" font-size="10.00" fill="#1a1a1a">(−) gradual curvature</text>
</g>
<!-- unknown.curve&#45;&gt;attr_1 -->
<g id="edge3" class="edge">
<title>unknown.curve&#45;&gt;attr_1</title>
<path fill="none" stroke="#aaaaaa" d="M54.87,-316.52C68.77,-319.89 86.35,-324.16 103.32,-328.28"/>
<polygon fill="#aaaaaa" stroke="#aaaaaa" points="102.72,-330.65 110.1,-329.92 103.88,-325.89 102.72,-330.65"/>
</g>
<!-- rel_1 -->
<g id="node10" class="node">
<title>rel_1</title>
<path fill="#f5b8b8" stroke="#d46a6a" stroke-width="1.2" d="M181.62,-296C181.62,-296 148.38,-296 148.38,-296 142.38,-296 136.38,-290 136.38,-284 136.38,-284 136.38,-272 136.38,-272 136.38,-266 142.38,-260 148.38,-260 148.38,-260 181.62,-260 181.62,-260 187.62,-260 193.62,-266 193.62,-272 193.62,-272 193.62,-284 193.62,-284 193.62,-290 187.62,-296 181.62,-296"/>
<text xml:space="preserve" text-anchor="middle" x="165" y="-274.5" font-family="Arial" font-size="10.00" fill="#8b0000">simplifies</text>
</g>
<!-- unknown.curve&#45;&gt;rel_1 -->
<g id="edge7" class="edge">
<title>unknown.curve&#45;&gt;rel_1</title>
<path fill="none" stroke="#d46a6a" stroke-width="1.5" d="M54.87,-303.68C75.14,-298.91 103.23,-292.3 125.83,-286.98"/>
<polygon fill="#d46a6a" stroke="#d46a6a" stroke-width="1.5" points="126.43,-289.72 133.57,-285.16 125.14,-284.27 126.43,-289.72"/>
</g>
<!-- unknown.axis -->
<g id="node3" class="node">
<title>unknown.axis</title>
<path fill="#b8e6b8" stroke="#2c3e50" stroke-width="1.8" d="M324.12,-296C324.12,-296 294.12,-296 294.12,-296 288.12,-296 282.12,-290 282.12,-284 282.12,-284 282.12,-272 282.12,-272 282.12,-266 288.12,-260 294.12,-260 294.12,-260 324.12,-260 324.12,-260 330.12,-260 336.12,-266 336.12,-272 336.12,-272 336.12,-284 336.12,-284 336.12,-290 330.12,-296 324.12,-296"/>
<text xml:space="preserve" text-anchor="middle" x="309.12" y="-274.5" font-family="Arial" font-size="10.00" fill="#1a1a1a">axis</text>
</g>
<!-- unknown.background -->
<g id="node4" class="node">
<title>unknown.background</title>
<path fill="#b8e6b8" stroke="#2c3e50" stroke-width="1.8" d="M330.25,-68C330.25,-68 288,-68 288,-68 282,-68 276,-62 276,-56 276,-56 276,-44 276,-44 276,-38 282,-32 288,-32 288,-32 330.25,-32 330.25,-32 336.25,-32 342.25,-38 342.25,-44 342.25,-44 342.25,-56 342.25,-56 342.25,-62 336.25,-68 330.25,-68"/>
<text xml:space="preserve" text-anchor="middle" x="309.12" y="-46.5" font-family="Arial" font-size="10.00" fill="#1a1a1a">background</text>
</g>
<!-- attr_3 -->
<g id="node8" class="node">
<title>attr_3</title>
<path fill="#c7b8e6" stroke="#7f8c8d" stroke-width="1.2" d="M481.5,-68C481.5,-68 397.25,-68 397.25,-68 391.25,-68 385.25,-62 385.25,-56 385.25,-56 385.25,-44 385.25,-44 385.25,-38 391.25,-32 397.25,-32 397.25,-32 481.5,-32 481.5,-32 487.5,-32 493.5,-38 493.5,-44 493.5,-44 493.5,-56 493.5,-56 493.5,-62 487.5,-68 481.5,-68"/>
<text xml:space="preserve" text-anchor="middle" x="439.38" y="-46.5" font-family="Arial" font-size="10.00" fill="#1a1a1a">(−) uncluttered layout</text>
</g>
<!-- unknown.background&#45;&gt;attr_3 -->
<g id="edge4" class="edge">
<title>unknown.background&#45;&gt;attr_3</title>
<path fill="none" stroke="#aaaaaa" d="M342.82,-50C353.09,-50 364.79,-50 376.4,-50"/>
<polygon fill="#aaaaaa" stroke="#aaaaaa" points="376.3,-52.45 383.3,-50 376.3,-47.55 376.3,-52.45"/>
</g>
<!-- rel_0&#45;&gt;unknown.background -->
<g id="edge6" class="edge">
<title>rel_0&#45;&gt;unknown.background</title>
<path fill="none" stroke="#d46a6a" stroke-width="1.5" d="M192.4,-76.87C212.84,-72.12 241.57,-65.45 265.29,-59.95"/>
<polygon fill="#d46a6a" stroke="#d46a6a" stroke-width="1.5" points="265.74,-62.72 272.9,-58.18 264.47,-57.26 265.74,-62.72"/>
</g>
<!-- rel_1&#45;&gt;unknown.axis -->
<g id="edge8" class="edge">
<title>rel_1&#45;&gt;unknown.axis</title>
<path fill="none" stroke="#d46a6a" stroke-width="1.5" d="M194.08,-278C216.21,-278 247.24,-278 271.35,-278"/>
<polygon fill="#d46a6a" stroke="#d46a6a" stroke-width="1.5" points="271.28,-280.8 279.28,-278 271.28,-275.2 271.28,-280.8"/>
</g>
<!-- rel_2&#45;&gt;unknown.background -->
<g id="edge10" class="edge">
<title>rel_2&#45;&gt;unknown.background</title>
<path fill="none" stroke="#d46a6a" stroke-width="1.5" d="M192.4,-23.94C212.84,-28.55 241.57,-35.02 265.29,-40.36"/>
<polygon fill="#d46a6a" stroke="#d46a6a" stroke-width="1.5" points="264.48,-43.04 272.9,-42.07 265.71,-37.58 264.48,-43.04"/>
</g>
</g>
</svg>
