<?xml version="1.0" encoding="UTF-8" standalone="no"?>
<!DOCTYPE svg PUBLIC "-//W3C//DTD SVG 1.1//EN"
 "http://www.w3.org/Graphics/SVG/1.1/DTD/svg11.dtd">
<!-- Generated by graphviz version 14.1.5 (20260411.2331)
 -->
<!-- Title: whoO10_2.png Pages: 1 -->
<svg width="567pt" height="434pt"
 viewBox="0.00 0.00 567.00 434.00" xmlns="http://www.w3.org/2000/svg" xmlns:xlink="http://www.w3.org/1999/xlink">
<g id="graph0" class="graph" transform="scale(1 1) rotate(0) translate(4 430.25)">
<title>whoO10_2.png</title>
<polygon fill="white" stroke="none" points="-4,4 -4,-430.25 563,-430.25 563,4 -4,4"/>
<text xml:space="preserve" text-anchor="start" x="230.75" y="-405.95" font-family="Arial" font-weight="bold" font-size="14.00">whoO10_2.png</text>
<text xml:space="preserve" text-anchor="start" x="235.62" y="-386" font-family="Arial" font-size="11.00">Area &#160;| &#160;VC = 0.53</text>
<path fill="#b8e6b8" stroke="none" d="M70.12,-361C70.12,-361 78.12,-361 78.12,-361 81.12,-361 84.12,-364 84.12,-367 84.12,-367 84.12,-373 84.12,-373 84.12,-376 81.12,-379 78.12,-379 78.12,-379 70.12,-379 70.12,-379 67.12,-379 64.12,-376 64.12,-373 64.12,-373 64.12,-367 64.12,-367 64.12,-364 67.12,-361 70.12,-361"/>
<path fill="none" stroke="black" d="M70.12,-361C70.12,-361 78.12,-361 78.12,-361 81.12,-361 84.12,-364 84.12,-367 84.12,-367 84.12,-373 84.12,-373 84.12,-376 81.12,-379 78.12,-379 78.12,-379 70.12,-379 70.12,-379 67.12,-379 64.12,-376 64.12,-373 64.12,-373 64.12,-367 64.12,-367 64.12,-364 67.12,-361 70.12,-361"/>
<text xml:space="preserve" text-anchor="start" x="72.62" y="-366.25" font-family="Arial" font-size="10.00"> </text>
<text xml:space="preserve" text-anchor="start" x="88.12" y="-366.25" font-family="Arial" font-size="10.00">Object</text>
<path fill="#c7b8e6" stroke="none" d="M126.62,-361C126.62,-361 134.62,-361 134.62,-361 137.62,-361 140.62,-364 140.62,-367 140.62,-367 140.62,-373 140.62,-373 140.62,-376 137.62,-379 134.62,-379 134.62,-379 126.62,-379 126.62,-379 123.62,-379 120.62,-376 120.62,-373 120.62,-373 120.62,-367 120.62,-367 120.62,-364 123.62,-361 126.62,-361"/>
<path fill="none" stroke="black" d="M126.62,-361C126.62,-361 134.62,-361 134.62,-361 137.62,-361 140.62,-364 140.62,-367 140.62,-367 140.62,-373 140.62,-373 140.62,-376 137.62,-379 134.62,-379 134.62,-379 126.62,-379 126.62,-379 123.62,-379 120.62,-376 120.62,-373 120.62,-373 120.62,-367 120.62,-367 120.62,-364 123.62,-361 126.62,-361"/>
<text xml:space="preserve" text-anchor="start" x="129.12" y="-366.25" font-family="Arial" font-size="10.00"> </text>
<text xml:space="preserve" text-anchor="start" x="144.62" y="-366.25" font-family="Arial" font-size="10.00">Attribute</text>
<path fill="#f5b8b8" stroke="none" d="M191.38,-361C191.38,-361 199.38,-361 199.38,-361 202.38,-361 205.38,-364 205.38,-367 205.38,-367 205.38,-373 205.38,-373 205.38,-376 202.38,-379 199.38,-379 199.38,-379 191.38,-379 191.38,-379 188.38,-379 185.38,-376 185.38,-373 185.38,-373 185.38,-367 185.38,-367 185.38,-364 188.38,-361 191.38,-361"/>
<path fill="none" stroke="black" d="M191.38,-361C191.38,-361 199.38,-361 199.38,-361 202.38,-361 205.38,-364 205.38,-367 205.38,-367 205.38,-373 205.38,-373 205.38,-376 202.38,-379 199.38,-379 199.38,-379 191.38,-379 191.38,-379 188.38,-379 185.38,-376 185.38,-373 185.38,-373 185.38,-367 185.38,-367 185.38,-364 188.38,-361 191.38,-361"/>
<text xml:space="preserve" text-anchor="start" x="193.88" y="-366.25" font-family="Arial" font-size="10.00"> </text>
<text xml:space="preserve" text-anchor="start" x="209.38" y="-366.25" font-family="Arial" font-size="10.00">Relationship</text>
<text xml:space="preserve" text-anchor="start" x="269.38" y="-367.5" font-family="Arial" font-weight="bold" font-size="10.00">(+)</text>
<text xml:space="preserve" text-anchor="start" x="281.38" y="-367.5" font-family="Arial" font-size="10.00"> increases complexity</text>
<text xml:space="preserve" text-anchor="start" x="382.62" y="-367.5" font-family="Arial" font-weight="bold" font-size="10.00">(−)</text>
<text xml:space="preserve" text-anchor="start" x="394.62" y="-367.5" font-family="Arial" font-size="10.00"> decreases complexity</text>
<!-- unknown.area_chart -->
<g id="node1" class="node">
<title>unknown.area_chart</title>
<path fill="#b8e6b8" stroke="#2c3e50" stroke-width="1.8" d="M47.5,-69C47.5,-69 12,-69 12,-69 6,-69 0,-63 0,-57 0,-57 0,-45 0,-45 0,-39 6,-33 12,-33 12,-33 47.5,-33 47.5,-33 53.5,-33 59.5,-39 59.5,-45 59.5,-45 59.5,-57 59.5,-57 59.5,-63 53.5,-69 47.5,-69"/>
<text xml:space="preserve" text-anchor="middle" x="29.75" y="-47.5" font-family="Arial" font-size="10.00" fill="#1a1a1a">area chart</text>
</g>
<!-- attr_2 -->
<g id="node6" class="node">
<title>attr_2</title>
<path fill="#c7b8e6" stroke="#7f8c8d" stroke-width="1.2" d="M242.25,-101C242.25,-101 114.5,-101 114.5,-101 108.5,-101 102.5,-95 102.5,-89 102.5,-89 102.5,-77 102.5,-77 102.5,-71 108.5,-65 114.5,-65 114.5,-65 242.25,-65 242.25,-65 248.25,-65 254.25,-71 254.25,-77 254.25,-77 254.25,-89 254.25,-89 254.25,-95 248.25,-101 242.25,-101"/>
<text xml:space="preserve" text-anchor="middle" x="178.38" y="-79.5" font-family="Arial" font-size="10.00" fill="#1a1a1a">(+) non standard representation</text>
</g>
<!-- unknown.area_chart&#45;&gt;attr_2 -->
<g id="edge1" class="edge">
<title>unknown.area_chart&#45;&gt;attr_2</title>
<path fill="none" stroke="#aaaaaa" d="M60.07,-57.4C70.08,-59.58 81.82,-62.15 93.94,-64.79"/>
<polygon fill="#aaaaaa" stroke="#aaaaaa" points="93.11,-67.12 100.47,-66.22 94.15,-62.33 93.11,-67.12"/>
</g>
<!-- rel_1 -->
<g id="node12" class="node">
<title>rel_1</title>
<path fill="#f5b8b8" stroke="#d46a6a" stroke-width="1.2" d="M232.88,-36C232.88,-36 123.88,-36 123.88,-36 117.88,-36 111.88,-30 111.88,-24 111.88,-24 111.88,-12 111.88,-12 111.88,-6 117.88,0 123.88,0 123.88,0 232.88,0 232.88,0 238.88,0 244.88,-6 244.88,-12 244.88,-12 244.88,-24 244.88,-24 244.88,-30 238.88,-36 232.88,-36"/>
<text xml:space="preserve" text-anchor="middle" x="178.38" y="-14.5" font-family="Arial" font-size="10.00" fill="#8b0000">increases processing effort</text>
</g>
<!-- unknown.area_chart&#45;&gt;rel_1 -->
<g id="edge8" class="edge">
<title>unknown.area_chart&#45;&gt;rel_1</title>
<path fill="none" stroke="#d46a6a" stroke-width="1.5" d="M60.07,-44.4C72.2,-41.67 86.89,-38.37 101.7,-35.03"/>
<polygon fill="#d46a6a" stroke="#d46a6a" stroke-width="1.5" points="102.03,-37.83 109.22,-33.34 100.8,-32.36 102.03,-37.83"/>
</g>
<!-- unknown.chart_type -->
<g id="node2" class="node">
<title>unknown.chart_type</title>
<path fill="#b8e6b8" stroke="#2c3e50" stroke-width="1.8" d="M47.5,-257C47.5,-257 12,-257 12,-257 6,-257 0,-251 0,-245 0,-245 0,-233 0,-233 0,-227 6,-221 12,-221 12,-221 47.5,-221 47.5,-221 53.5,-221 59.5,-227 59.5,-233 59.5,-233 59.5,-245 59.5,-245 59.5,-251 53.5,-257 47.5,-257"/>
<text xml:space="preserve" text-anchor="middle" x="29.75" y="-235.5" font-family="Arial" font-size="10.00" fill="#1a1a1a">chart type</text>
</g>
<!-- attr_0 -->
<g id="node7" class="node">
<title>attr_0</title>
<path fill="#c7b8e6" stroke="#7f8c8d" stroke-width="1.2" d="M226.5,-355C226.5,-355 130.25,-355 130.25,-355 124.25,-355 118.25,-349 118.25,-343 118.25,-343 118.25,-331 118.25,-331 118.25,-325 124.25,-319 130.25,-319 130.25,-319 226.5,-319 226.5,-319 232.5,-319 238.5,-325 238.5,-331 238.5,-331 238.5,-343 238.5,-343 238.5,-349 232.5,-355 226.5,-355"/>
<text xml:space="preserve" text-anchor="middle" x="178.38" y="-333.5" font-family="Arial" font-size="10.00" fill="#1a1a1a">(+) unfamiliar chart form</text>
</g>
<!-- unknown.chart_type&#45;&gt;attr_0 -->
<g id="edge2" class="edge">
<title>unknown.chart_type&#45;&gt;attr_0</title>
<path fill="none" stroke="#aaaaaa" d="M47.61,-257.66C61.33,-272.01 81.75,-291.59 102.5,-305 107.93,-308.51 113.8,-311.78 119.79,-314.8"/>
<polygon fill="#aaaaaa" stroke="#aaaaaa" points="118.68,-316.98 126.05,-317.81 120.81,-312.57 118.68,-316.98"/>
</g>
<!-- attr_4 -->
<g id="node8" class="node">
<title>attr_4</title>
<path fill="#c7b8e6" stroke="#7f8c8d" stroke-width="1.2" d="M242.25,-290C242.25,-290 114.5,-290 114.5,-290 108.5,-290 102.5,-284 102.5,-278 102.5,-278 102.5,-266 102.5,-266 102.5,-260 108.5,-254 114.5,-254 114.5,-254 242.25,-254 242.25,-254 248.25,-254 254.25,-260 254.25,-266 254.25,-266 254.25,-278 254.25,-278 254.25,-284 248.25,-290 242.25,-290"/>
<text xml:space="preserve" text-anchor="middle" x="178.38" y="-268.5" font-family="Arial" font-size="10.00" fill="#1a1a1a">(+) unfamiliar visual convention</text>
</g>
<!-- unknown.chart_type&#45;&gt;attr_4 -->
<g id="edge3" class="edge">
<title>unknown.chart_type&#45;&gt;attr_4</title>
<path fill="none" stroke="#aaaaaa" d="M60.07,-245.6C70.08,-247.85 81.82,-250.49 93.94,-253.22"/>
<polygon fill="#aaaaaa" stroke="#aaaaaa" points="93.11,-255.55 100.47,-254.69 94.18,-250.76 93.11,-255.55"/>
</g>
<!-- rel_0 -->
<g id="node11" class="node">
<title>rel_0</title>
<path fill="#f5b8b8" stroke="#d46a6a" stroke-width="1.2" d="M205.12,-225C205.12,-225 151.62,-225 151.62,-225 145.62,-225 139.62,-219 139.62,-213 139.62,-213 139.62,-201 139.62,-201 139.62,-195 145.62,-189 151.62,-189 151.62,-189 205.12,-189 205.12,-189 211.12,-189 217.12,-195 217.12,-201 217.12,-201 217.12,-213 217.12,-213 217.12,-219 211.12,-225 205.12,-225"/>
<text xml:space="preserve" text-anchor="middle" x="178.38" y="-203.5" font-family="Arial" font-size="10.00" fill="#8b0000">contrasts with</text>
</g>
<!-- unknown.chart_type&#45;&gt;rel_0 -->
<g id="edge6" class="edge">
<title>unknown.chart_type&#45;&gt;rel_0</title>
<path fill="none" stroke="#d46a6a" stroke-width="1.5" d="M60.07,-232.6C79.87,-228.28 106.47,-222.48 129.33,-217.49"/>
<polygon fill="#d46a6a" stroke="#d46a6a" stroke-width="1.5" points="129.76,-220.26 136.98,-215.82 128.57,-214.79 129.76,-220.26"/>
</g>
<!-- unknown.familiar_format -->
<g id="node3" class="node">
<title>unknown.familiar_format</title>
<path fill="#b8e6b8" stroke="#2c3e50" stroke-width="1.8" d="M363.5,-225C363.5,-225 309.25,-225 309.25,-225 303.25,-225 297.25,-219 297.25,-213 297.25,-213 297.25,-201 297.25,-201 297.25,-195 303.25,-189 309.25,-189 309.25,-189 363.5,-189 363.5,-189 369.5,-189 375.5,-195 375.5,-201 375.5,-201 375.5,-213 375.5,-213 375.5,-219 369.5,-225 363.5,-225"/>
<text xml:space="preserve" text-anchor="middle" x="336.38" y="-203.5" font-family="Arial" font-size="10.00" fill="#1a1a1a">familiar format</text>
</g>
<!-- attr_1 -->
<g id="node9" class="node">
<title>attr_1</title>
<path fill="#c7b8e6" stroke="#7f8c8d" stroke-width="1.2" d="M539.5,-228C539.5,-228 438,-228 438,-228 432,-228 426,-222 426,-216 426,-216 426,-204 426,-204 426,-198 432,-192 438,-192 438,-192 539.5,-192 539.5,-192 545.5,-192 551.5,-198 551.5,-204 551.5,-204 551.5,-216 551.5,-216 551.5,-222 545.5,-228 539.5,-228"/>
<text xml:space="preserve" text-anchor="middle" x="488.75" y="-206.5" font-family="Arial" font-size="10.00" fill="#1a1a1a">(−) preferred round tables</text>
</g>
<!-- unknown.familiar_format&#45;&gt;attr_1 -->
<g id="edge4" class="edge">
<title>unknown.familiar_format&#45;&gt;attr_1</title>
<path fill="none" stroke="#aaaaaa" d="M376.1,-207.77C388.69,-208.02 403.07,-208.31 417.23,-208.59"/>
<polygon fill="#aaaaaa" stroke="#aaaaaa" points="416.97,-211.04 424.01,-208.73 417.06,-206.14 416.97,-211.04"/>
</g>
<!-- rel_2 -->
<g id="node13" class="node">
<title>rel_2</title>
<path fill="#f5b8b8" stroke="#d46a6a" stroke-width="1.2" d="M547,-163C547,-163 430.5,-163 430.5,-163 424.5,-163 418.5,-157 418.5,-151 418.5,-151 418.5,-139 418.5,-139 418.5,-133 424.5,-127 430.5,-127 430.5,-127 547,-127 547,-127 553,-127 559,-133 559,-139 559,-139 559,-151 559,-151 559,-157 553,-163 547,-163"/>
<text xml:space="preserve" text-anchor="middle" x="488.75" y="-141.5" font-family="Arial" font-size="10.00" fill="#8b0000">reduces interpretive difficulty</text>
</g>
<!-- unknown.familiar_format&#45;&gt;rel_2 -->
<g id="edge10" class="edge">
<title>unknown.familiar_format&#45;&gt;rel_2</title>
<path fill="none" stroke="#d46a6a" stroke-width="1.5" d="M376.1,-191.03C393.52,-183.85 414.39,-175.25 433.34,-167.43"/>
<polygon fill="#d46a6a" stroke="#d46a6a" stroke-width="1.5" points="434.33,-170.05 440.66,-164.42 432.19,-164.88 434.33,-170.05"/>
</g>
<!-- text.axis_label -->
<g id="node4" class="node">
<title>text.axis_label</title>
<path fill="#b8e6b8" stroke="#2c3e50" stroke-width="1.8" d="M46.38,-322C46.38,-322 13.12,-322 13.12,-322 7.12,-322 1.13,-316 1.13,-310 1.13,-310 1.13,-298 1.13,-298 1.13,-292 7.13,-286 13.13,-286 13.13,-286 46.38,-286 46.38,-286 52.38,-286 58.38,-292 58.38,-298 58.38,-298 58.38,-310 58.38,-310 58.38,-316 52.38,-322 46.38,-322"/>
<text xml:space="preserve" text-anchor="middle" x="29.75" y="-300.5" font-family="Arial" font-size="10.00" fill="#1a1a1a">axis label</text>
</g>
<!-- unknown.data_encoding -->
<g id="node5" class="node">
<title>unknown.data_encoding</title>
<path fill="#b8e6b8" stroke="#2c3e50" stroke-width="1.8" d="M362.75,-36C362.75,-36 310,-36 310,-36 304,-36 298,-30 298,-24 298,-24 298,-12 298,-12 298,-6 304,0 310,0 310,0 362.75,0 362.75,0 368.75,0 374.75,-6 374.75,-12 374.75,-12 374.75,-24 374.75,-24 374.75,-30 368.75,-36 362.75,-36"/>
<text xml:space="preserve" text-anchor="middle" x="336.38" y="-14.5" font-family="Arial" font-size="10.00" fill="#1a1a1a">data encoding</text>
</g>
<!-- attr_3 -->
<g id="node10" class="node">
<title>attr_3</title>
<path fill="#c7b8e6" stroke="#7f8c8d" stroke-width="1.2" d="M539.12,-36C539.12,-36 438.38,-36 438.38,-36 432.38,-36 426.38,-30 426.38,-24 426.38,-24 426.38,-12 426.38,-12 426.38,-6 432.38,0 438.38,0 438.38,0 539.12,0 539.12,0 545.12,0 551.12,-6 551.12,-12 551.12,-12 551.12,-24 551.12,-24 551.12,-30 545.12,-36 539.12,-36"/>
<text xml:space="preserve" text-anchor="middle" x="488.75" y="-14.5" font-family="Arial" font-size="10.00" fill="#1a1a1a">(+) requires chart literacy</text>
</g>
<!-- unknown.data_encoding&#45;&gt;attr_3 -->
<g id="edge5" class="edge">
<title>unknown.data_encoding&#45;&gt;attr_3</title>
<path fill="none" stroke="#aaaaaa" d="M375.32,-18C388.12,-18 402.85,-18 417.34,-18"/>
<polygon fill="#aaaaaa" stroke="#aaaaaa" points="417.31,-20.45 424.31,-18 417.31,-15.55 417.31,-20.45"/>
</g>
<!-- rel_0&#45;&gt;unknown.familiar_format -->
<g id="edge7" class="edge">
<title>rel_0&#45;&gt;unknown.familiar_format</title>
<path fill="none" stroke="#d46a6a" stroke-width="1.5" d="M217.54,-207C238.25,-207 264.09,-207 286.29,-207"/>
<polygon fill="#d46a6a" stroke="#d46a6a" stroke-width="1.5" points="286.25,-209.8 294.25,-207 286.25,-204.2 286.25,-209.8"/>
</g>
<!-- rel_1&#45;&gt;unknown.data_encoding -->
<g id="edge9" class="edge">
<title>rel_1&#45;&gt;unknown.data_encoding</title>
<path fill="none" stroke="#d46a6a" stroke-width="1.5" d="M245.08,-18C259.28,-18 274.04,-18 287.41,-18"/>
<polygon fill="#d46a6a" stroke="#d46a6a" stroke-width="1.5" points="287.06,-20.8 295.06,-18 287.06,-15.2 287.06,-20.8"/>
</g>
<!-- rel_2&#45;&gt;unknown.chart_type -->
<g id="edge11" class="edge">
<title>rel_2&#45;&gt;unknown.chart_type</title>
<path fill="none" stroke="#d46a6a" stroke-width="1.5" d="M418.16,-137.45C338.5,-131.68 205.71,-130.99 102.5,-175 83.07,-183.29 65.31,-199.02 52.33,-212.82"/>
<polygon fill="#d46a6a" stroke="#d46a6a" stroke-width="1.5" points="50.44,-210.73 47.14,-218.54 54.59,-214.49 50.44,-210.73"/>
</g>
</g>
</svg>
