<?xml version="1.0" encoding="UTF-8" standalone="no"?>
<!DOCTYPE svg PUBLIC "-//W3C//DTD SVG 1.1//EN"
 "http://www.w3.org/Graphics/SVG/1.1/DTD/svg11.dtd">
<!-- Generated by graphviz version 14.1.5 (20260411.2331)
 -->
<!-- Title: whoQ58_3.png Pages: 1 -->
<svg width="844pt" height="635pt"
 viewBox="0.00 0.00 844.00 635.00" xmlns="http://www.w3.org/2000/svg" xmlns:xlink="http://www.w3.org/1999/xlink">
<g id="graph0" class="graph" transform="scale(1 1) rotate(0) translate(4 631.25)">
<title>whoQ58_3.png</title>
<polygon fill="white" stroke="none" points="-4,4 -4,-631.25 840,-631.25 840,4 -4,4"/>
<text xml:space="preserve" text-anchor="start" x="369.25" y="-606.95" font-family="Arial" font-weight="bold" font-size="14.00">whoQ58_3.png</text>
<text xml:space="preserve" text-anchor="start" x="374.12" y="-587" font-family="Arial" font-size="11.00">Area &#160;| &#160;VC = 0.51</text>
<path fill="#b8e6b8" stroke="none" d="M208.62,-562C208.62,-562 216.62,-562 216.62,-562 219.62,-562 222.62,-565 222.62,-568 222.62,-568 222.62,-574 222.62,-574 222.62,-577 219.62,-580 216.62,-580 216.62,-580 208.62,-580 208.62,-580 205.62,-580 202.62,-577 202.62,-574 202.62,-574 202.62,-568 202.62,-568 202.62,-565 205.62,-562 208.62,-562"/>
<path fill="none" stroke="black" d="M208.62,-562C208.62,-562 216.62,-562 216.62,-562 219.62,-562 222.62,-565 222.62,-568 222.62,-568 222.62,-574 222.62,-574 222.62,-577 219.62,-580 216.62,-580 216.62,-580 208.62,-580 208.62,-580 205.62,-580 202.62,-577 202.62,-574 202.62,-574 202.62,-568 202.62,-568 202.62,-565 205.62,-562 208.62,-562"/>
<text xml:space="preserve" text-anchor="start" x="211.12" y="-567.25" font-family="Arial" font-size="10.00"> </text>
<text xml:space="preserve" text-anchor="start" x="226.62" y="-567.25" font-family="Arial" font-size="10.00">Object</text>
<path fill="#c7b8e6" stroke="none" d="M265.12,-562C265.12,-562 273.12,-562 273.12,-562 276.12,-562 279.12,-565 279.12,-568 279.12,-568 279.12,-574 279.12,-574 279.12,-577 276.12,-580 273.12,-580 273.12,-580 265.12,-580 265.12,-580 262.12,-580 259.12,-577 259.12,-574 259.12,-574 259.12,-568 259.12,-568 259.12,-565 262.12,-562 265.12,-562"/>
<path fill="none" stroke="black" d="M265.12,-562C265.12,-562 273.12,-562 273.12,-562 276.12,-562 279.12,-565 279.12,-568 279.12,-568 279.12,-574 279.12,-574 279.12,-577 276.12,-580 273.12,-580 273.12,-580 265.12,-580 265.12,-580 262.12,-580 259.12,-577 259.12,-574 259.12,-574 259.12,-568 259.12,-568 259.12,-565 262.12,-562 265.12,-562"/>
<text xml:space="preserve" text-anchor="start" x="267.62" y="-567.25" font-family="Arial" font-size="10.00"> </text>
<text xml:space="preserve" text-anchor="start" x="283.12" y="-567.25" font-family="Arial" font-size="10.00">Attribute</text>
<path fill="#f5b8b8" stroke="none" d="M329.88,-562C329.88,-562 337.88,-562 337.88,-562 340.88,-562 343.88,-565 343.88,-568 343.88,-568 343.88,-574 343.88,-574 343.88,-577 340.88,-580 337.88,-580 337.88,-580 329.88,-580 329.88,-580 326.88,-580 323.88,-577 323.88,-574 323.88,-574 323.88,-568 323.88,-568 323.88,-565 326.88,-562 329.88,-562"/>
<path fill="none" stroke="black" d="M329.88,-562C329.88,-562 337.88,-562 337.88,-562 340.88,-562 343.88,-565 343.88,-568 343.88,-568 343.88,-574 343.88,-574 343.88,-577 340.88,-580 337.88,-580 337.88,-580 329.88,-580 329.88,-580 326.88,-580 323.88,-577 323.88,-574 323.88,-574 323.88,-568 323.88,-568 323.88,-565 326.88,-562 329.88,-562"/>
<text xml:space="preserve" text-anchor="start" x="332.38" y="-567.25" font-family="Arial" font-size="10.00"> </text>
<text xml:space="preserve" text-anchor="start" x="347.88" y="-567.25" font-family="Arial" font-size="10.00">Relationship</text>
<text xml:space="preserve" text-anchor="start" x="407.88" y="-568.5" font-family="Arial" font-weight="bold" font-size="10.00">(+)</text>
<text xml:space="preserve" text-anchor="start" x="419.88" y="-568.5" font-family="Arial" font-size="10.00"> increases complexity</text>
<text xml:space="preserve" text-anchor="start" x="521.12" y="-568.5" font-family="Arial" font-weight="bold" font-size="10.00">(−)</text>
<text xml:space="preserve" text-anchor="start" x="533.12" y="-568.5" font-family="Arial" font-size="10.00"> decreases complexity</text>
<!-- unknown.color_layers -->
<g id="node1" class="node">
<title>unknown.color_layers</title>
<path fill="#b8e6b8" stroke="#2c3e50" stroke-width="1.8" d="M59.88,-69C59.88,-69 17.62,-69 17.62,-69 11.62,-69 5.62,-63 5.62,-57 5.62,-57 5.62,-45 5.62,-45 5.62,-39 11.62,-33 17.62,-33 17.62,-33 59.88,-33 59.88,-33 65.88,-33 71.88,-39 71.88,-45 71.88,-45 71.88,-57 71.88,-57 71.88,-63 65.88,-69 59.88,-69"/>
<text xml:space="preserve" text-anchor="middle" x="38.75" y="-47.5" font-family="Arial" font-size="10.00" fill="#1a1a1a">color layers</text>
</g>
<!-- attr_0 -->
<g id="node8" class="node">
<title>attr_0</title>
<path fill="#c7b8e6" stroke="#7f8c8d" stroke-width="1.2" d="M252.75,-101C252.75,-101 132.5,-101 132.5,-101 126.5,-101 120.5,-95 120.5,-89 120.5,-89 120.5,-77 120.5,-77 120.5,-71 126.5,-65 132.5,-65 132.5,-65 252.75,-65 252.75,-65 258.75,-65 264.75,-71 264.75,-77 264.75,-77 264.75,-89 264.75,-89 264.75,-95 258.75,-101 252.75,-101"/>
<text xml:space="preserve" text-anchor="middle" x="192.62" y="-79.5" font-family="Arial" font-size="10.00" fill="#1a1a1a">(+) overlapping layered colors</text>
</g>
<!-- unknown.color_layers&#45;&gt;attr_0 -->
<g id="edge1" class="edge">
<title>unknown.color_layers&#45;&gt;attr_0</title>
<path fill="none" stroke="#aaaaaa" d="M72.7,-57.94C84.37,-60.4 98.06,-63.29 111.92,-66.21"/>
<polygon fill="#aaaaaa" stroke="#aaaaaa" points="111.24,-68.57 118.6,-67.61 112.25,-63.77 111.24,-68.57"/>
</g>
<!-- rel_1 -->
<g id="node16" class="node">
<title>rel_1</title>
<path fill="#f5b8b8" stroke="#d46a6a" stroke-width="1.2" d="M246.38,-36C246.38,-36 138.88,-36 138.88,-36 132.88,-36 126.88,-30 126.88,-24 126.88,-24 126.88,-12 126.88,-12 126.88,-6 132.88,0 138.88,0 138.88,0 246.38,0 246.38,0 252.38,0 258.38,-6 258.38,-12 258.38,-12 258.38,-24 258.38,-24 258.38,-30 252.38,-36 246.38,-36"/>
<text xml:space="preserve" text-anchor="middle" x="192.62" y="-14.5" font-family="Arial" font-size="10.00" fill="#8b0000">increases reading difficulty</text>
</g>
<!-- unknown.color_layers&#45;&gt;rel_1 -->
<g id="edge10" class="edge">
<title>unknown.color_layers&#45;&gt;rel_1</title>
<path fill="none" stroke="#d46a6a" stroke-width="1.5" d="M72.7,-43.84C85.78,-41 101.39,-37.61 116.94,-34.23"/>
<polygon fill="#d46a6a" stroke="#d46a6a" stroke-width="1.5" points="117.14,-37.05 124.36,-32.62 115.95,-31.58 117.14,-37.05"/>
</g>
<!-- unknown.stacked_areas -->
<g id="node2" class="node">
<title>unknown.stacked_areas</title>
<path fill="#b8e6b8" stroke="#2c3e50" stroke-width="1.8" d="M65.5,-491C65.5,-491 12,-491 12,-491 6,-491 0,-485 0,-479 0,-479 0,-467 0,-467 0,-461 6,-455 12,-455 12,-455 65.5,-455 65.5,-455 71.5,-455 77.5,-461 77.5,-467 77.5,-467 77.5,-479 77.5,-479 77.5,-485 71.5,-491 65.5,-491"/>
<text xml:space="preserve" text-anchor="middle" x="38.75" y="-469.5" font-family="Arial" font-size="10.00" fill="#1a1a1a">stacked areas</text>
</g>
<!-- attr_1 -->
<g id="node9" class="node">
<title>attr_1</title>
<path fill="#c7b8e6" stroke="#7f8c8d" stroke-width="1.2" d="M244.5,-556C244.5,-556 140.75,-556 140.75,-556 134.75,-556 128.75,-550 128.75,-544 128.75,-544 128.75,-532 128.75,-532 128.75,-526 134.75,-520 140.75,-520 140.75,-520 244.5,-520 244.5,-520 250.5,-520 256.5,-526 256.5,-532 256.5,-532 256.5,-544 256.5,-544 256.5,-550 250.5,-556 244.5,-556"/>
<text xml:space="preserve" text-anchor="middle" x="192.62" y="-534.5" font-family="Arial" font-size="10.00" fill="#1a1a1a">(+) stacked on each other</text>
</g>
<!-- unknown.stacked_areas&#45;&gt;attr_1 -->
<g id="edge2" class="edge">
<title>unknown.stacked_areas&#45;&gt;attr_1</title>
<path fill="none" stroke="#aaaaaa" d="M78.07,-489.4C97.01,-497.51 120.12,-507.4 140.53,-516.13"/>
<polygon fill="#aaaaaa" stroke="#aaaaaa" points="139.42,-518.32 146.82,-518.82 141.35,-513.82 139.42,-518.32"/>
</g>
<!-- attr_6 -->
<g id="node10" class="node">
<title>attr_6</title>
<path fill="#c7b8e6" stroke="#7f8c8d" stroke-width="1.2" d="M247.88,-491C247.88,-491 137.38,-491 137.38,-491 131.38,-491 125.38,-485 125.38,-479 125.38,-479 125.38,-467 125.38,-467 125.38,-461 131.38,-455 137.38,-455 137.38,-455 247.88,-455 247.88,-455 253.88,-455 259.88,-461 259.88,-467 259.88,-467 259.88,-479 259.88,-479 259.88,-485 253.88,-491 247.88,-491"/>
<text xml:space="preserve" text-anchor="middle" x="192.62" y="-469.5" font-family="Arial" font-size="10.00" fill="#1a1a1a">(+) complex curved shapes</text>
</g>
<!-- unknown.stacked_areas&#45;&gt;attr_6 -->
<g id="edge3" class="edge">
<title>unknown.stacked_areas&#45;&gt;attr_6</title>
<path fill="none" stroke="#aaaaaa" d="M78.07,-473C89.86,-473 103.27,-473 116.64,-473"/>
<polygon fill="#aaaaaa" stroke="#aaaaaa" points="116.43,-475.45 123.43,-473 116.43,-470.55 116.43,-475.45"/>
</g>
<!-- rel_2 -->
<g id="node17" class="node">
<title>rel_2</title>
<path fill="#f5b8b8" stroke="#d46a6a" stroke-width="1.2" d="M214.88,-426C214.88,-426 170.38,-426 170.38,-426 164.38,-426 158.38,-420 158.38,-414 158.38,-414 158.38,-402 158.38,-402 158.38,-396 164.38,-390 170.38,-390 170.38,-390 214.88,-390 214.88,-390 220.88,-390 226.88,-396 226.88,-402 226.88,-402 226.88,-414 226.88,-414 226.88,-420 220.88,-426 214.88,-426"/>
<text xml:space="preserve" text-anchor="middle" x="192.62" y="-404.5" font-family="Arial" font-size="10.00" fill="#8b0000">encodes via</text>
</g>
<!-- unknown.stacked_areas&#45;&gt;rel_2 -->
<g id="edge12" class="edge">
<title>unknown.stacked_areas&#45;&gt;rel_2</title>
<path fill="none" stroke="#d46a6a" stroke-width="1.5" d="M78.07,-456.6C99.6,-447.38 126.53,-435.86 148.76,-426.35"/>
<polygon fill="#d46a6a" stroke="#d46a6a" stroke-width="1.5" points="149.63,-429.02 155.88,-423.3 147.42,-423.87 149.63,-429.02"/>
</g>
<!-- unknown.color_palette -->
<g id="node3" class="node">
<title>unknown.color_palette</title>
<path fill="#b8e6b8" stroke="#2c3e50" stroke-width="1.8" d="M61.38,-264C61.38,-264 16.12,-264 16.12,-264 10.12,-264 4.12,-258 4.12,-252 4.12,-252 4.12,-240 4.12,-240 4.12,-234 10.12,-228 16.12,-228 16.12,-228 61.38,-228 61.38,-228 67.38,-228 73.38,-234 73.38,-240 73.38,-240 73.38,-252 73.38,-252 73.38,-258 67.38,-264 61.38,-264"/>
<text xml:space="preserve" text-anchor="middle" x="38.75" y="-242.5" font-family="Arial" font-size="10.00" fill="#1a1a1a">color palette</text>
</g>
<!-- attr_2 -->
<g id="node11" class="node">
<title>attr_2</title>
<path fill="#c7b8e6" stroke="#7f8c8d" stroke-width="1.2" d="M243.75,-361C243.75,-361 141.5,-361 141.5,-361 135.5,-361 129.5,-355 129.5,-349 129.5,-349 129.5,-337 129.5,-337 129.5,-331 135.5,-325 141.5,-325 141.5,-325 243.75,-325 243.75,-325 249.75,-325 255.75,-331 255.75,-337 255.75,-337 255.75,-349 255.75,-349 255.75,-355 249.75,-361 243.75,-361"/>
<text xml:space="preserve" text-anchor="middle" x="192.62" y="-339.5" font-family="Arial" font-size="10.00" fill="#1a1a1a">(+) similar orange shades</text>
</g>
<!-- unknown.color_palette&#45;&gt;attr_2 -->
<g id="edge4" class="edge">
<title>unknown.color_palette&#45;&gt;attr_2</title>
<path fill="none" stroke="#aaaaaa" d="M59.91,-264.66C75.62,-278.58 98.41,-297.45 120.5,-311 126.22,-314.51 132.4,-317.86 138.64,-320.99"/>
<polygon fill="#aaaaaa" stroke="#aaaaaa" points="137.23,-323.03 144.6,-323.88 139.37,-318.62 137.23,-323.03"/>
</g>
<!-- attr_3 -->
<g id="node12" class="node">
<title>attr_3</title>
<path fill="#c7b8e6" stroke="#7f8c8d" stroke-width="1.2" d="M250.5,-296C250.5,-296 134.75,-296 134.75,-296 128.75,-296 122.75,-290 122.75,-284 122.75,-284 122.75,-272 122.75,-272 122.75,-266 128.75,-260 134.75,-260 134.75,-260 250.5,-260 250.5,-260 256.5,-260 262.5,-266 262.5,-272 262.5,-272 262.5,-284 262.5,-284 262.5,-290 256.5,-296 250.5,-296"/>
<text xml:space="preserve" text-anchor="middle" x="192.62" y="-274.5" font-family="Arial" font-size="10.00" fill="#1a1a1a">(+) hard to distinguish colors</text>
</g>
<!-- unknown.color_palette&#45;&gt;attr_3 -->
<g id="edge5" class="edge">
<title>unknown.color_palette&#45;&gt;attr_3</title>
<path fill="none" stroke="#aaaaaa" d="M74.21,-253.26C86.14,-255.77 100.03,-258.7 114,-261.64"/>
<polygon fill="#aaaaaa" stroke="#aaaaaa" points="113.38,-264.02 120.74,-263.06 114.4,-259.22 113.38,-264.02"/>
</g>
<!-- rel_0 -->
<g id="node15" class="node">
<title>rel_0</title>
<path fill="#f5b8b8" stroke="#d46a6a" stroke-width="1.2" d="M208.5,-231C208.5,-231 176.75,-231 176.75,-231 170.75,-231 164.75,-225 164.75,-219 164.75,-219 164.75,-207 164.75,-207 164.75,-201 170.75,-195 176.75,-195 176.75,-195 208.5,-195 208.5,-195 214.5,-195 220.5,-201 220.5,-207 220.5,-207 220.5,-219 220.5,-219 220.5,-225 214.5,-231 208.5,-231"/>
<text xml:space="preserve" text-anchor="middle" x="192.62" y="-209.5" font-family="Arial" font-size="10.00" fill="#8b0000">obscures</text>
</g>
<!-- unknown.color_palette&#45;&gt;rel_0 -->
<g id="edge8" class="edge">
<title>unknown.color_palette&#45;&gt;rel_0</title>
<path fill="none" stroke="#d46a6a" stroke-width="1.5" d="M74.21,-238.51C98.11,-233.32 129.9,-226.41 154.38,-221.09"/>
<polygon fill="#d46a6a" stroke="#d46a6a" stroke-width="1.5" points="154.93,-223.84 162.16,-219.4 153.74,-218.37 154.93,-223.84"/>
</g>
<!-- rel_4 -->
<g id="node19" class="node">
<title>rel_4</title>
<path fill="#f5b8b8" stroke="#d46a6a" stroke-width="1.2" d="M208.5,-166C208.5,-166 176.75,-166 176.75,-166 170.75,-166 164.75,-160 164.75,-154 164.75,-154 164.75,-142 164.75,-142 164.75,-136 170.75,-130 176.75,-130 176.75,-130 208.5,-130 208.5,-130 214.5,-130 220.5,-136 220.5,-142 220.5,-142 220.5,-154 220.5,-154 220.5,-160 214.5,-166 208.5,-166"/>
<text xml:space="preserve" text-anchor="middle" x="192.62" y="-144.5" font-family="Arial" font-size="10.00" fill="#8b0000">confuses</text>
</g>
<!-- unknown.color_palette&#45;&gt;rel_4 -->
<g id="edge16" class="edge">
<title>unknown.color_palette&#45;&gt;rel_4</title>
<path fill="none" stroke="#d46a6a" stroke-width="1.5" d="M60.28,-227.13C76.01,-213.27 98.64,-194.58 120.5,-181 131.34,-174.26 143.78,-168.04 155.19,-162.85"/>
<polygon fill="#d46a6a" stroke="#d46a6a" stroke-width="1.5" points="156.22,-165.46 162.4,-159.66 153.95,-160.33 156.22,-165.46"/>
</g>
<!-- furniture.legend -->
<g id="node4" class="node">
<title>furniture.legend</title>
<path fill="#b8e6b8" stroke="#2c3e50" stroke-width="1.8" d="M369.75,-36C369.75,-36 339.75,-36 339.75,-36 333.75,-36 327.75,-30 327.75,-24 327.75,-24 327.75,-12 327.75,-12 327.75,-6 333.75,0 339.75,0 339.75,0 369.75,0 369.75,0 375.75,0 381.75,-6 381.75,-12 381.75,-12 381.75,-24 381.75,-24 381.75,-30 375.75,-36 369.75,-36"/>
<text xml:space="preserve" text-anchor="middle" x="354.75" y="-14.5" font-family="Arial" font-size="10.00" fill="#1a1a1a">legend</text>
</g>
<!-- text.axis_label -->
<g id="node5" class="node">
<title>text.axis_label</title>
<path fill="#b8e6b8" stroke="#2c3e50" stroke-width="1.8" d="M371.38,-166C371.38,-166 338.12,-166 338.12,-166 332.12,-166 326.12,-160 326.12,-154 326.12,-154 326.12,-142 326.12,-142 326.12,-136 332.12,-130 338.12,-130 338.12,-130 371.38,-130 371.38,-130 377.38,-130 383.38,-136 383.38,-142 383.38,-142 383.38,-154 383.38,-154 383.38,-160 377.38,-166 371.38,-166"/>
<text xml:space="preserve" text-anchor="middle" x="354.75" y="-144.5" font-family="Arial" font-size="10.00" fill="#1a1a1a">axis label</text>
</g>
<!-- unknown.time_axis -->
<g id="node6" class="node">
<title>unknown.time_axis</title>
<path fill="#b8e6b8" stroke="#2c3e50" stroke-width="1.8" d="M661.5,-295C661.5,-295 629.75,-295 629.75,-295 623.75,-295 617.75,-289 617.75,-283 617.75,-283 617.75,-271 617.75,-271 617.75,-265 623.75,-259 629.75,-259 629.75,-259 661.5,-259 661.5,-259 667.5,-259 673.5,-265 673.5,-271 673.5,-271 673.5,-283 673.5,-283 673.5,-289 667.5,-295 661.5,-295"/>
<text xml:space="preserve" text-anchor="middle" x="645.62" y="-273.5" font-family="Arial" font-size="10.00" fill="#1a1a1a">time axis</text>
</g>
<!-- attr_5 -->
<g id="node13" class="node">
<title>attr_5</title>
<path fill="#c7b8e6" stroke="#7f8c8d" stroke-width="1.2" d="M824,-295C824,-295 728.5,-295 728.5,-295 722.5,-295 716.5,-289 716.5,-283 716.5,-283 716.5,-271 716.5,-271 716.5,-265 722.5,-259 728.5,-259 728.5,-259 824,-259 824,-259 830,-259 836,-265 836,-271 836,-271 836,-283 836,-283 836,-289 830,-295 824,-295"/>
<text xml:space="preserve" text-anchor="middle" x="776.25" y="-273.5" font-family="Arial" font-size="10.00" fill="#1a1a1a">(+) multi year time span</text>
</g>
<!-- unknown.time_axis&#45;&gt;attr_5 -->
<g id="edge6" class="edge">
<title>unknown.time_axis&#45;&gt;attr_5</title>
<path fill="none" stroke="#aaaaaa" d="M674.22,-277C684.17,-277 695.9,-277 707.76,-277"/>
<polygon fill="#aaaaaa" stroke="#aaaaaa" points="707.47,-279.45 714.47,-277 707.47,-274.55 707.47,-279.45"/>
</g>
<!-- unknown.country_segments -->
<g id="node7" class="node">
<title>unknown.country_segments</title>
<path fill="#b8e6b8" stroke="#2c3e50" stroke-width="1.8" d="M389.75,-328C389.75,-328 319.75,-328 319.75,-328 313.75,-328 307.75,-322 307.75,-316 307.75,-316 307.75,-304 307.75,-304 307.75,-298 313.75,-292 319.75,-292 319.75,-292 389.75,-292 389.75,-292 395.75,-292 401.75,-298 401.75,-304 401.75,-304 401.75,-316 401.75,-316 401.75,-322 395.75,-328 389.75,-328"/>
<text xml:space="preserve" text-anchor="middle" x="354.75" y="-306.5" font-family="Arial" font-size="10.00" fill="#1a1a1a">country segments</text>
</g>
<!-- attr_4 -->
<g id="node14" class="node">
<title>attr_4</title>
<path fill="#c7b8e6" stroke="#7f8c8d" stroke-width="1.2" d="M562.38,-360C562.38,-360 457.12,-360 457.12,-360 451.12,-360 445.12,-354 445.12,-348 445.12,-348 445.12,-336 445.12,-336 445.12,-330 451.12,-324 457.12,-324 457.12,-324 562.38,-324 562.38,-324 568.38,-324 574.38,-330 574.38,-336 574.38,-336 574.38,-348 574.38,-348 574.38,-354 568.38,-360 562.38,-360"/>
<text xml:space="preserve" text-anchor="middle" x="509.75" y="-338.5" font-family="Arial" font-size="10.00" fill="#1a1a1a">(+) multiple country layers</text>
</g>
<!-- unknown.country_segments&#45;&gt;attr_4 -->
<g id="edge7" class="edge">
<title>unknown.country_segments&#45;&gt;attr_4</title>
<path fill="none" stroke="#aaaaaa" d="M402.49,-319.77C413.16,-322.01 424.76,-324.43 436.23,-326.83"/>
<polygon fill="#aaaaaa" stroke="#aaaaaa" points="435.72,-329.23 443.07,-328.26 436.72,-324.43 435.72,-329.23"/>
</g>
<!-- rel_3 -->
<g id="node18" class="node">
<title>rel_3</title>
<path fill="#f5b8b8" stroke="#d46a6a" stroke-width="1.2" d="M562.75,-295C562.75,-295 456.75,-295 456.75,-295 450.75,-295 444.75,-289 444.75,-283 444.75,-283 444.75,-271 444.75,-271 444.75,-265 450.75,-259 456.75,-259 456.75,-259 562.75,-259 562.75,-259 568.75,-259 574.75,-265 574.75,-271 574.75,-271 574.75,-283 574.75,-283 574.75,-289 568.75,-295 562.75,-295"/>
<text xml:space="preserve" text-anchor="middle" x="509.75" y="-273.5" font-family="Arial" font-size="10.00" fill="#8b0000">requires longer processing</text>
</g>
<!-- unknown.country_segments&#45;&gt;rel_3 -->
<g id="edge14" class="edge">
<title>unknown.country_segments&#45;&gt;rel_3</title>
<path fill="none" stroke="#d46a6a" stroke-width="1.5" d="M402.49,-299.92C412.58,-297.74 423.49,-295.39 434.35,-293.05"/>
<polygon fill="#d46a6a" stroke="#d46a6a" stroke-width="1.5" points="434.82,-295.81 442.05,-291.39 433.64,-290.34 434.82,-295.81"/>
</g>
<!-- rel_0&#45;&gt;unknown.country_segments -->
<g id="edge9" class="edge">
<title>rel_0&#45;&gt;unknown.country_segments</title>
<path fill="none" stroke="#d46a6a" stroke-width="1.5" d="M220.92,-224.21C234.41,-230.12 250.76,-237.83 264.75,-246 284.8,-257.72 305.96,-272.81 322.61,-285.39"/>
<polygon fill="#d46a6a" stroke="#d46a6a" stroke-width="1.5" points="320.54,-287.33 328.6,-289.96 323.94,-282.88 320.54,-287.33"/>
</g>
<!-- rel_1&#45;&gt;furniture.legend -->
<g id="edge11" class="edge">
<title>rel_1&#45;&gt;furniture.legend</title>
<path fill="none" stroke="#d46a6a" stroke-width="1.5" d="M258.75,-18C278.54,-18 299.6,-18 316.84,-18"/>
<polygon fill="#d46a6a" stroke="#d46a6a" stroke-width="1.5" points="316.77,-20.8 324.77,-18 316.77,-15.2 316.77,-20.8"/>
</g>
<!-- rel_2&#45;&gt;unknown.country_segments -->
<g id="edge13" class="edge">
<title>rel_2&#45;&gt;unknown.country_segments</title>
<path fill="none" stroke="#d46a6a" stroke-width="1.5" d="M227.3,-394.62C239.39,-389.36 252.95,-382.92 264.75,-376 285.28,-363.96 306.76,-348.13 323.47,-335"/>
<polygon fill="#d46a6a" stroke="#d46a6a" stroke-width="1.5" points="324.98,-337.38 329.49,-330.21 321.49,-333 324.98,-337.38"/>
</g>
<!-- rel_3&#45;&gt;unknown.time_axis -->
<g id="edge15" class="edge">
<title>rel_3&#45;&gt;unknown.time_axis</title>
<path fill="none" stroke="#d46a6a" stroke-width="1.5" d="M575.33,-277C586.14,-277 597.02,-277 606.86,-277"/>
<polygon fill="#d46a6a" stroke="#d46a6a" stroke-width="1.5" points="606.8,-279.8 614.8,-277 606.8,-274.2 606.8,-279.8"/>
</g>
<!-- rel_4&#45;&gt;text.axis_label -->
<g id="edge17" class="edge">
<title>rel_4&#45;&gt;text.axis_label</title>
<path fill="none" stroke="#d46a6a" stroke-width="1.5" d="M220.79,-148C246.69,-148 285.98,-148 315.13,-148"/>
<polygon fill="#d46a6a" stroke="#d46a6a" stroke-width="1.5" points="315.1,-150.8 323.1,-148 315.1,-145.2 315.1,-150.8"/>
</g>
</g>
</svg>
