<?xml version="1.0" encoding="UTF-8" standalone="no"?>
<!DOCTYPE svg PUBLIC "-//W3C//DTD SVG 1.1//EN"
 "http://www.w3.org/Graphics/SVG/1.1/DTD/svg11.dtd">
<!-- Generated by graphviz version 14.1.5 (20260411.2331)
 -->
<!-- Title: whoQ50_2.png Pages: 1 -->
<svg width="593pt" height="342pt"
 viewBox="0.00 0.00 593.00 342.00" xmlns="http://www.w3.org/2000/svg" xmlns:xlink="http://www.w3.org/1999/xlink">
<g id="graph0" class="graph" transform="scale(1 1) rotate(0) translate(4 338.25)">
<title>whoQ50_2.png</title>
<polygon fill="white" stroke="none" points="-4,4 -4,-338.25 589.25,-338.25 589.25,4 -4,4"/>
<text xml:space="preserve" text-anchor="start" x="243.88" y="-313.95" font-family="Arial" font-weight="bold" font-size="14.00">whoQ50_2.png</text>
<text xml:space="preserve" text-anchor="start" x="251.75" y="-294" font-family="Arial" font-size="11.00">Bar &#160;| &#160;VC = 0.28</text>
<path fill="#b8e6b8" stroke="none" d="M83.25,-269C83.25,-269 91.25,-269 91.25,-269 94.25,-269 97.25,-272 97.25,-275 97.25,-275 97.25,-281 97.25,-281 97.25,-284 94.25,-287 91.25,-287 91.25,-287 83.25,-287 83.25,-287 80.25,-287 77.25,-284 77.25,-281 77.25,-281 77.25,-275 77.25,-275 77.25,-272 80.25,-269 83.25,-269"/>
<path fill="none" stroke="black" d="M83.25,-269C83.25,-269 91.25,-269 91.25,-269 94.25,-269 97.25,-272 97.25,-275 97.25,-275 97.25,-281 97.25,-281 97.25,-284 94.25,-287 91.25,-287 91.25,-287 83.25,-287 83.25,-287 80.25,-287 77.25,-284 77.25,-281 77.25,-281 77.25,-275 77.25,-275 77.25,-272 80.25,-269 83.25,-269"/>
<text xml:space="preserve" text-anchor="start" x="85.75" y="-274.25" font-family="Arial" font-size="10.00"> </text>
<text xml:space="preserve" text-anchor="start" x="101.25" y="-274.25" font-family="Arial" font-size="10.00">Object</text>
<path fill="#c7b8e6" stroke="none" d="M139.75,-269C139.75,-269 147.75,-269 147.75,-269 150.75,-269 153.75,-272 153.75,-275 153.75,-275 153.75,-281 153.75,-281 153.75,-284 150.75,-287 147.75,-287 147.75,-287 139.75,-287 139.75,-287 136.75,-287 133.75,-284 133.75,-281 133.75,-281 133.75,-275 133.75,-275 133.75,-272 136.75,-269 139.75,-269"/>
<path fill="none" stroke="black" d="M139.75,-269C139.75,-269 147.75,-269 147.75,-269 150.75,-269 153.75,-272 153.75,-275 153.75,-275 153.75,-281 153.75,-281 153.75,-284 150.75,-287 147.75,-287 147.75,-287 139.75,-287 139.75,-287 136.75,-287 133.75,-284 133.75,-281 133.75,-281 133.75,-275 133.75,-275 133.75,-272 136.75,-269 139.75,-269"/>
<text xml:space="preserve" text-anchor="start" x="142.25" y="-274.25" font-family="Arial" font-size="10.00"> </text>
<text xml:space="preserve" text-anchor="start" x="157.75" y="-274.25" font-family="Arial" font-size="10.00">Attribute</text>
<path fill="#f5b8b8" stroke="none" d="M204.5,-269C204.5,-269 212.5,-269 212.5,-269 215.5,-269 218.5,-272 218.5,-275 218.5,-275 218.5,-281 218.5,-281 218.5,-284 215.5,-287 212.5,-287 212.5,-287 204.5,-287 204.5,-287 201.5,-287 198.5,-284 198.5,-281 198.5,-281 198.5,-275 198.5,-275 198.5,-272 201.5,-269 204.5,-269"/>
<path fill="none" stroke="black" d="M204.5,-269C204.5,-269 212.5,-269 212.5,-269 215.5,-269 218.5,-272 218.5,-275 218.5,-275 218.5,-281 218.5,-281 218.5,-284 215.5,-287 212.5,-287 212.5,-287 204.5,-287 204.5,-287 201.5,-287 198.5,-284 198.5,-281 198.5,-281 198.5,-275 198.5,-275 198.5,-272 201.5,-269 204.5,-269"/>
<text xml:space="preserve" text-anchor="start" x="207" y="-274.25" font-family="Arial" font-size="10.00"> </text>
<text xml:space="preserve" text-anchor="start" x="222.5" y="-274.25" font-family="Arial" font-size="10.00">Relationship</text>
<text xml:space="preserve" text-anchor="start" x="282.5" y="-275.5" font-family="Arial" font-weight="bold" font-size="10.00">(+)</text>
<text xml:space="preserve" text-anchor="start" x="294.5" y="-275.5" font-family="Arial" font-size="10.00"> increases complexity</text>
<text xml:space="preserve" text-anchor="start" x="395.75" y="-275.5" font-family="Arial" font-weight="bold" font-size="10.00">(−)</text>
<text xml:space="preserve" text-anchor="start" x="407.75" y="-275.5" font-family="Arial" font-size="10.00"> decreases complexity</text>
<!-- mark.bar -->
<g id="node1" class="node">
<title>mark.bar</title>
<path fill="#b8e6b8" stroke="#2c3e50" stroke-width="1.8" d="M43.62,-230C43.62,-230 13.62,-230 13.62,-230 7.62,-230 1.62,-224 1.62,-218 1.62,-218 1.62,-206 1.62,-206 1.62,-200 7.62,-194 13.62,-194 13.62,-194 43.62,-194 43.62,-194 49.62,-194 55.62,-200 55.62,-206 55.62,-206 55.62,-218 55.62,-218 55.62,-224 49.62,-230 43.62,-230"/>
<text xml:space="preserve" text-anchor="middle" x="28.62" y="-208.5" font-family="Arial" font-size="10.00" fill="#1a1a1a">bar</text>
</g>
<!-- attr_1 -->
<g id="node5" class="node">
<title>attr_1</title>
<path fill="#c7b8e6" stroke="#7f8c8d" stroke-width="1.2" d="M196.5,-263C196.5,-263 112.25,-263 112.25,-263 106.25,-263 100.25,-257 100.25,-251 100.25,-251 100.25,-239 100.25,-239 100.25,-233 106.25,-227 112.25,-227 112.25,-227 196.5,-227 196.5,-227 202.5,-227 208.5,-233 208.5,-239 208.5,-239 208.5,-251 208.5,-251 208.5,-257 202.5,-263 196.5,-263"/>
<text xml:space="preserve" text-anchor="middle" x="154.38" y="-241.5" font-family="Arial" font-size="10.00" fill="#1a1a1a">(−) clear distinct bars</text>
</g>
<!-- mark.bar&#45;&gt;attr_1 -->
<g id="edge1" class="edge">
<title>mark.bar&#45;&gt;attr_1</title>
<path fill="none" stroke="#aaaaaa" d="M56.48,-219.16C66.91,-221.94 79.34,-225.26 91.74,-228.56"/>
<polygon fill="#aaaaaa" stroke="#aaaaaa" points="91.02,-230.91 98.41,-230.34 92.28,-226.17 91.02,-230.91"/>
</g>
<!-- rel_0 -->
<g id="node10" class="node">
<title>rel_0</title>
<path fill="#f5b8b8" stroke="#d46a6a" stroke-width="1.2" d="M169.38,-198C169.38,-198 139.38,-198 139.38,-198 133.38,-198 127.38,-192 127.38,-186 127.38,-186 127.38,-174 127.38,-174 127.38,-168 133.38,-162 139.38,-162 139.38,-162 169.38,-162 169.38,-162 175.38,-162 181.38,-168 181.38,-174 181.38,-174 181.38,-186 181.38,-186 181.38,-192 175.38,-198 169.38,-198"/>
<text xml:space="preserve" text-anchor="middle" x="154.38" y="-176.5" font-family="Arial" font-size="10.00" fill="#8b0000">supports</text>
</g>
<!-- mark.bar&#45;&gt;rel_0 -->
<g id="edge6" class="edge">
<title>mark.bar&#45;&gt;rel_0</title>
<path fill="none" stroke="#d46a6a" stroke-width="1.5" d="M56.48,-205.06C74.27,-200.45 97.83,-194.36 117.27,-189.34"/>
<polygon fill="#d46a6a" stroke="#d46a6a" stroke-width="1.5" points="117.76,-192.1 124.8,-187.39 116.36,-186.68 117.76,-192.1"/>
</g>
<!-- text.axis_label -->
<g id="node2" class="node">
<title>text.axis_label</title>
<path fill="#b8e6b8" stroke="#2c3e50" stroke-width="1.8" d="M45.25,-101C45.25,-101 12,-101 12,-101 6,-101 0,-95 0,-89 0,-89 0,-77 0,-77 0,-71 6,-65 12,-65 12,-65 45.25,-65 45.25,-65 51.25,-65 57.25,-71 57.25,-77 57.25,-77 57.25,-89 57.25,-89 57.25,-95 51.25,-101 45.25,-101"/>
<text xml:space="preserve" text-anchor="middle" x="28.62" y="-79.5" font-family="Arial" font-size="10.00" fill="#1a1a1a">axis label</text>
</g>
<!-- attr_2 -->
<g id="node6" class="node">
<title>attr_2</title>
<path fill="#c7b8e6" stroke="#7f8c8d" stroke-width="1.2" d="M186,-133C186,-133 122.75,-133 122.75,-133 116.75,-133 110.75,-127 110.75,-121 110.75,-121 110.75,-109 110.75,-109 110.75,-103 116.75,-97 122.75,-97 122.75,-97 186,-97 186,-97 192,-97 198,-103 198,-109 198,-109 198,-121 198,-121 198,-127 192,-133 186,-133"/>
<text xml:space="preserve" text-anchor="middle" x="154.38" y="-111.5" font-family="Arial" font-size="10.00" fill="#1a1a1a">(−) legible labels</text>
</g>
<!-- text.axis_label&#45;&gt;attr_2 -->
<g id="edge2" class="edge">
<title>text.axis_label&#45;&gt;attr_2</title>
<path fill="none" stroke="#aaaaaa" d="M58.02,-90.34C71.26,-93.77 87.44,-97.95 102.68,-101.89"/>
<polygon fill="#aaaaaa" stroke="#aaaaaa" points="101.69,-104.17 109.08,-103.55 102.92,-99.42 101.69,-104.17"/>
</g>
<!-- rel_1 -->
<g id="node11" class="node">
<title>rel_1</title>
<path fill="#f5b8b8" stroke="#d46a6a" stroke-width="1.2" d="M169.38,-68C169.38,-68 139.38,-68 139.38,-68 133.38,-68 127.38,-62 127.38,-56 127.38,-56 127.38,-44 127.38,-44 127.38,-38 133.38,-32 139.38,-32 139.38,-32 169.38,-32 169.38,-32 175.38,-32 181.38,-38 181.38,-44 181.38,-44 181.38,-56 181.38,-56 181.38,-62 175.38,-68 169.38,-68"/>
<text xml:space="preserve" text-anchor="middle" x="154.38" y="-46.5" font-family="Arial" font-size="10.00" fill="#8b0000">clarifies</text>
</g>
<!-- text.axis_label&#45;&gt;rel_1 -->
<g id="edge8" class="edge">
<title>text.axis_label&#45;&gt;rel_1</title>
<path fill="none" stroke="#d46a6a" stroke-width="1.5" d="M58.02,-75.43C75.56,-70.75 98.24,-64.7 117.08,-59.68"/>
<polygon fill="#d46a6a" stroke="#d46a6a" stroke-width="1.5" points="117.61,-62.44 124.62,-57.67 116.16,-57.02 117.61,-62.44"/>
</g>
<!-- furniture.legend -->
<g id="node3" class="node">
<title>furniture.legend</title>
<path fill="#b8e6b8" stroke="#2c3e50" stroke-width="1.8" d="M573.25,-36C573.25,-36 543.25,-36 543.25,-36 537.25,-36 531.25,-30 531.25,-24 531.25,-24 531.25,-12 531.25,-12 531.25,-6 537.25,0 543.25,0 543.25,0 573.25,0 573.25,0 579.25,0 585.25,-6 585.25,-12 585.25,-12 585.25,-24 585.25,-24 585.25,-30 579.25,-36 573.25,-36"/>
<text xml:space="preserve" text-anchor="middle" x="558.25" y="-14.5" font-family="Arial" font-size="10.00" fill="#1a1a1a">legend</text>
</g>
<!-- whole.visualization -->
<g id="node4" class="node">
<title>whole.visualization</title>
<path fill="#b8e6b8" stroke="#2c3e50" stroke-width="1.8" d="M293.5,-133C293.5,-133 263.5,-133 263.5,-133 257.5,-133 251.5,-127 251.5,-121 251.5,-121 251.5,-109 251.5,-109 251.5,-103 257.5,-97 263.5,-97 263.5,-97 293.5,-97 293.5,-97 299.5,-97 305.5,-103 305.5,-109 305.5,-109 305.5,-121 305.5,-121 305.5,-127 299.5,-133 293.5,-133"/>
<text xml:space="preserve" text-anchor="middle" x="278.5" y="-111.5" font-family="Arial" font-size="10.00" fill="#1a1a1a">chart</text>
</g>
<!-- attr_0 -->
<g id="node7" class="node">
<title>attr_0</title>
<path fill="#c7b8e6" stroke="#7f8c8d" stroke-width="1.2" d="M448.88,-231C448.88,-231 387.88,-231 387.88,-231 381.88,-231 375.88,-225 375.88,-219 375.88,-219 375.88,-207 375.88,-207 375.88,-201 381.88,-195 387.88,-195 387.88,-195 448.88,-195 448.88,-195 454.88,-195 460.88,-201 460.88,-207 460.88,-207 460.88,-219 460.88,-219 460.88,-225 454.88,-231 448.88,-231"/>
<text xml:space="preserve" text-anchor="middle" x="418.38" y="-209.5" font-family="Arial" font-size="10.00" fill="#1a1a1a">(−) easy to read</text>
</g>
<!-- whole.visualization&#45;&gt;attr_0 -->
<g id="edge3" class="edge">
<title>whole.visualization&#45;&gt;attr_0</title>
<path fill="none" stroke="#aaaaaa" d="M295.97,-133.82C309.15,-148.07 328.65,-167.45 348.5,-181 354.58,-185.15 361.28,-189.01 368.04,-192.51"/>
<polygon fill="#aaaaaa" stroke="#aaaaaa" points="366.67,-194.56 374.03,-195.49 368.85,-190.18 366.67,-194.56"/>
</g>
<!-- attr_3 -->
<g id="node8" class="node">
<title>attr_3</title>
<path fill="#c7b8e6" stroke="#7f8c8d" stroke-width="1.2" d="M458.62,-166C458.62,-166 378.12,-166 378.12,-166 372.12,-166 366.12,-160 366.12,-154 366.12,-154 366.12,-142 366.12,-142 366.12,-136 372.12,-130 378.12,-130 378.12,-130 458.62,-130 458.62,-130 464.62,-130 470.62,-136 470.62,-142 470.62,-142 470.62,-154 470.62,-154 470.62,-160 464.62,-166 458.62,-166"/>
<text xml:space="preserve" text-anchor="middle" x="418.38" y="-144.5" font-family="Arial" font-size="10.00" fill="#1a1a1a">(−) low visual clutter</text>
</g>
<!-- whole.visualization&#45;&gt;attr_3 -->
<g id="edge4" class="edge">
<title>whole.visualization&#45;&gt;attr_3</title>
<path fill="none" stroke="#aaaaaa" d="M306.08,-121.36C320.74,-124.87 339.57,-129.38 357.55,-133.68"/>
<polygon fill="#aaaaaa" stroke="#aaaaaa" points="356.89,-136.04 364.27,-135.29 358.03,-131.28 356.89,-136.04"/>
</g>
<!-- attr_4 -->
<g id="node9" class="node">
<title>attr_4</title>
<path fill="#c7b8e6" stroke="#7f8c8d" stroke-width="1.2" d="M476.25,-101C476.25,-101 360.5,-101 360.5,-101 354.5,-101 348.5,-95 348.5,-89 348.5,-89 348.5,-77 348.5,-77 348.5,-71 354.5,-65 360.5,-65 360.5,-65 476.25,-65 476.25,-65 482.25,-65 488.25,-71 488.25,-77 488.25,-77 488.25,-89 488.25,-89 488.25,-95 482.25,-101 476.25,-101"/>
<text xml:space="preserve" text-anchor="middle" x="418.38" y="-79.5" font-family="Arial" font-size="10.00" fill="#1a1a1a">(−) minimal processing effort</text>
</g>
<!-- whole.visualization&#45;&gt;attr_4 -->
<g id="edge5" class="edge">
<title>whole.visualization&#45;&gt;attr_4</title>
<path fill="none" stroke="#aaaaaa" d="M306.08,-108.83C315.97,-106.54 327.75,-103.8 339.89,-100.98"/>
<polygon fill="#aaaaaa" stroke="#aaaaaa" points="340.17,-103.43 346.43,-99.47 339.06,-98.66 340.17,-103.43"/>
</g>
<!-- rel_2 -->
<g id="node12" class="node">
<title>rel_2</title>
<path fill="#f5b8b8" stroke="#d46a6a" stroke-width="1.2" d="M469.5,-36C469.5,-36 367.25,-36 367.25,-36 361.25,-36 355.25,-30 355.25,-24 355.25,-24 355.25,-12 355.25,-12 355.25,-6 361.25,0 367.25,0 367.25,0 469.5,0 469.5,0 475.5,0 481.5,-6 481.5,-12 481.5,-12 481.5,-24 481.5,-24 481.5,-30 475.5,-36 469.5,-36"/>
<text xml:space="preserve" text-anchor="middle" x="418.38" y="-14.5" font-family="Arial" font-size="10.00" fill="#8b0000">requires minimal effort for</text>
</g>
<!-- whole.visualization&#45;&gt;rel_2 -->
<g id="edge10" class="edge">
<title>whole.visualization&#45;&gt;rel_2</title>
<path fill="none" stroke="#d46a6a" stroke-width="1.5" d="M296.67,-96.28C309.92,-82.57 329.18,-64.14 348.5,-51 353.61,-47.53 359.14,-44.22 364.77,-41.14"/>
<polygon fill="#d46a6a" stroke="#d46a6a" stroke-width="1.5" points="365.85,-43.74 371.64,-37.55 363.25,-38.78 365.85,-43.74"/>
</g>
<!-- rel_0&#45;&gt;whole.visualization -->
<g id="edge7" class="edge">
<title>rel_0&#45;&gt;whole.visualization</title>
<path fill="none" stroke="#d46a6a" stroke-width="1.5" d="M181.87,-165.9C199.36,-156.59 222.48,-144.29 241.6,-134.11"/>
<polygon fill="#d46a6a" stroke="#d46a6a" stroke-width="1.5" points="242.88,-136.6 248.63,-130.37 240.25,-131.65 242.88,-136.6"/>
</g>
<!-- rel_1&#45;&gt;whole.visualization -->
<g id="edge9" class="edge">
<title>rel_1&#45;&gt;whole.visualization</title>
<path fill="none" stroke="#d46a6a" stroke-width="1.5" d="M181.87,-64.1C199.36,-73.41 222.48,-85.71 241.6,-95.89"/>
<polygon fill="#d46a6a" stroke="#d46a6a" stroke-width="1.5" points="240.25,-98.35 248.63,-99.63 242.88,-93.4 240.25,-98.35"/>
</g>
<!-- rel_2&#45;&gt;furniture.legend -->
<g id="edge11" class="edge">
<title>rel_2&#45;&gt;furniture.legend</title>
<path fill="none" stroke="#d46a6a" stroke-width="1.5" d="M481.86,-18C495.08,-18 508.63,-18 520.52,-18"/>
<polygon fill="#d46a6a" stroke="#d46a6a" stroke-width="1.5" points="520.23,-20.8 528.23,-18 520.23,-15.2 520.23,-20.8"/>
</g>
</g>
</svg>
