<?xml version="1.0" encoding="UTF-8" standalone="no"?>
<!DOCTYPE svg PUBLIC "-//W3C//DTD SVG 1.1//EN"
 "http://www.w3.org/Graphics/SVG/1.1/DTD/svg11.dtd">
<!-- Generated by graphviz version 14.1.5 (20260411.2331)
 -->
<!-- Title: whoQ44_4.png Pages: 1 -->
<svg width="1083pt" height="440pt"
 viewBox="0.00 0.00 1083.00 440.00" xmlns="http://www.w3.org/2000/svg" xmlns:xlink="http://www.w3.org/1999/xlink">
<g id="graph0" class="graph" transform="scale(1 1) rotate(0) translate(4 436.25)">
<title>whoQ44_4.png</title>
<polygon fill="white" stroke="none" points="-4,4 -4,-436.25 1079.25,-436.25 1079.25,4 -4,4"/>
<text xml:space="preserve" text-anchor="start" x="488.88" y="-411.95" font-family="Arial" font-weight="bold" font-size="14.00">whoQ44_4.png</text>
<text xml:space="preserve" text-anchor="start" x="493.75" y="-392" font-family="Arial" font-size="11.00">Area &#160;| &#160;VC = 0.52</text>
<path fill="#b8e6b8" stroke="none" d="M328.25,-367C328.25,-367 336.25,-367 336.25,-367 339.25,-367 342.25,-370 342.25,-373 342.25,-373 342.25,-379 342.25,-379 342.25,-382 339.25,-385 336.25,-385 336.25,-385 328.25,-385 328.25,-385 325.25,-385 322.25,-382 322.25,-379 322.25,-379 322.25,-373 322.25,-373 322.25,-370 325.25,-367 328.25,-367"/>
<path fill="none" stroke="black" d="M328.25,-367C328.25,-367 336.25,-367 336.25,-367 339.25,-367 342.25,-370 342.25,-373 342.25,-373 342.25,-379 342.25,-379 342.25,-382 339.25,-385 336.25,-385 336.25,-385 328.25,-385 328.25,-385 325.25,-385 322.25,-382 322.25,-379 322.25,-379 322.25,-373 322.25,-373 322.25,-370 325.25,-367 328.25,-367"/>
<text xml:space="preserve" text-anchor="start" x="330.75" y="-372.25" font-family="Arial" font-size="10.00"> </text>
<text xml:space="preserve" text-anchor="start" x="346.25" y="-372.25" font-family="Arial" font-size="10.00">Object</text>
<path fill="#c7b8e6" stroke="none" d="M384.75,-367C384.75,-367 392.75,-367 392.75,-367 395.75,-367 398.75,-370 398.75,-373 398.75,-373 398.75,-379 398.75,-379 398.75,-382 395.75,-385 392.75,-385 392.75,-385 384.75,-385 384.75,-385 381.75,-385 378.75,-382 378.75,-379 378.75,-379 378.75,-373 378.75,-373 378.75,-370 381.75,-367 384.75,-367"/>
<path fill="none" stroke="black" d="M384.75,-367C384.75,-367 392.75,-367 392.75,-367 395.75,-367 398.75,-370 398.75,-373 398.75,-373 398.75,-379 398.75,-379 398.75,-382 395.75,-385 392.75,-385 392.75,-385 384.75,-385 384.75,-385 381.75,-385 378.75,-382 378.75,-379 378.75,-379 378.75,-373 378.75,-373 378.75,-370 381.75,-367 384.75,-367"/>
<text xml:space="preserve" text-anchor="start" x="387.25" y="-372.25" font-family="Arial" font-size="10.00"> </text>
<text xml:space="preserve" text-anchor="start" x="402.75" y="-372.25" font-family="Arial" font-size="10.00">Attribute</text>
<path fill="#f5b8b8" stroke="none" d="M449.5,-367C449.5,-367 457.5,-367 457.5,-367 460.5,-367 463.5,-370 463.5,-373 463.5,-373 463.5,-379 463.5,-379 463.5,-382 460.5,-385 457.5,-385 457.5,-385 449.5,-385 449.5,-385 446.5,-385 443.5,-382 443.5,-379 443.5,-379 443.5,-373 443.5,-373 443.5,-370 446.5,-367 449.5,-367"/>
<path fill="none" stroke="black" d="M449.5,-367C449.5,-367 457.5,-367 457.5,-367 460.5,-367 463.5,-370 463.5,-373 463.5,-373 463.5,-379 463.5,-379 463.5,-382 460.5,-385 457.5,-385 457.5,-385 449.5,-385 449.5,-385 446.5,-385 443.5,-382 443.5,-379 443.5,-379 443.5,-373 443.5,-373 443.5,-370 446.5,-367 449.5,-367"/>
<text xml:space="preserve" text-anchor="start" x="452" y="-372.25" font-family="Arial" font-size="10.00"> </text>
<text xml:space="preserve" text-anchor="start" x="467.5" y="-372.25" font-family="Arial" font-size="10.00">Relationship</text>
<text xml:space="preserve" text-anchor="start" x="527.5" y="-373.5" font-family="Arial" font-weight="bold" font-size="10.00">(+)</text>
<text xml:space="preserve" text-anchor="start" x="539.5" y="-373.5" font-family="Arial" font-size="10.00"> increases complexity</text>
<text xml:space="preserve" text-anchor="start" x="640.75" y="-373.5" font-family="Arial" font-weight="bold" font-size="10.00">(−)</text>
<text xml:space="preserve" text-anchor="start" x="652.75" y="-373.5" font-family="Arial" font-size="10.00"> decreases complexity</text>
<!-- unknown.color_areas -->
<g id="node1" class="node">
<title>unknown.color_areas</title>
<path fill="#b8e6b8" stroke="#2c3e50" stroke-width="1.8" d="M873.75,-134C873.75,-134 833.75,-134 833.75,-134 827.75,-134 821.75,-128 821.75,-122 821.75,-122 821.75,-110 821.75,-110 821.75,-104 827.75,-98 833.75,-98 833.75,-98 873.75,-98 873.75,-98 879.75,-98 885.75,-104 885.75,-110 885.75,-110 885.75,-122 885.75,-122 885.75,-128 879.75,-134 873.75,-134"/>
<text xml:space="preserve" text-anchor="middle" x="853.75" y="-112.5" font-family="Arial" font-size="10.00" fill="#1a1a1a">color areas</text>
</g>
<!-- attr_0 -->
<g id="node7" class="node">
<title>attr_0</title>
<path fill="#c7b8e6" stroke="#7f8c8d" stroke-width="1.2" d="M1063.25,-167C1063.25,-167 940.75,-167 940.75,-167 934.75,-167 928.75,-161 928.75,-155 928.75,-155 928.75,-143 928.75,-143 928.75,-137 934.75,-131 940.75,-131 940.75,-131 1063.25,-131 1063.25,-131 1069.25,-131 1075.25,-137 1075.25,-143 1075.25,-143 1075.25,-155 1075.25,-155 1075.25,-161 1069.25,-167 1063.25,-167"/>
<text xml:space="preserve" text-anchor="middle" x="1002" y="-145.5" font-family="Arial" font-size="10.00" fill="#1a1a1a">(+) difficult to distinguish color</text>
</g>
<!-- unknown.color_areas&#45;&gt;attr_0 -->
<g id="edge1" class="edge">
<title>unknown.color_areas&#45;&gt;attr_0</title>
<path fill="none" stroke="#aaaaaa" d="M886.48,-123.16C896.52,-125.42 908.1,-128.04 919.97,-130.72"/>
<polygon fill="#aaaaaa" stroke="#aaaaaa" points="919.37,-133.09 926.73,-132.24 920.45,-128.31 919.37,-133.09"/>
</g>
<!-- attr_6 -->
<g id="node8" class="node">
<title>attr_6</title>
<path fill="#c7b8e6" stroke="#7f8c8d" stroke-width="1.2" d="M1053.12,-102C1053.12,-102 950.88,-102 950.88,-102 944.88,-102 938.88,-96 938.88,-90 938.88,-90 938.88,-78 938.88,-78 938.88,-72 944.88,-66 950.88,-66 950.88,-66 1053.12,-66 1053.12,-66 1059.12,-66 1065.12,-72 1065.12,-78 1065.12,-78 1065.12,-90 1065.12,-90 1065.12,-96 1059.12,-102 1053.12,-102"/>
<text xml:space="preserve" text-anchor="middle" x="1002" y="-80.5" font-family="Arial" font-size="10.00" fill="#1a1a1a">(−) clear and clean layout</text>
</g>
<!-- unknown.color_areas&#45;&gt;attr_6 -->
<g id="edge2" class="edge">
<title>unknown.color_areas&#45;&gt;attr_6</title>
<path fill="none" stroke="#aaaaaa" d="M886.48,-109.06C899.43,-106.22 914.96,-102.83 930.35,-99.46"/>
<polygon fill="#aaaaaa" stroke="#aaaaaa" points="930.57,-101.92 936.89,-98.03 929.52,-97.13 930.57,-101.92"/>
</g>
<!-- furniture.legend -->
<g id="node2" class="node">
<title>furniture.legend</title>
<path fill="#b8e6b8" stroke="#2c3e50" stroke-width="1.8" d="M311.75,-199C311.75,-199 281.75,-199 281.75,-199 275.75,-199 269.75,-193 269.75,-187 269.75,-187 269.75,-175 269.75,-175 269.75,-169 275.75,-163 281.75,-163 281.75,-163 311.75,-163 311.75,-163 317.75,-163 323.75,-169 323.75,-175 323.75,-175 323.75,-187 323.75,-187 323.75,-193 317.75,-199 311.75,-199"/>
<text xml:space="preserve" text-anchor="middle" x="296.75" y="-177.5" font-family="Arial" font-size="10.00" fill="#1a1a1a">legend</text>
</g>
<!-- attr_1 -->
<g id="node9" class="node">
<title>attr_1</title>
<path fill="#c7b8e6" stroke="#7f8c8d" stroke-width="1.2" d="M488.25,-231C488.25,-231 390.5,-231 390.5,-231 384.5,-231 378.5,-225 378.5,-219 378.5,-219 378.5,-207 378.5,-207 378.5,-201 384.5,-195 390.5,-195 390.5,-195 488.25,-195 488.25,-195 494.25,-195 500.25,-201 500.25,-207 500.25,-207 500.25,-219 500.25,-219 500.25,-225 494.25,-231 488.25,-231"/>
<text xml:space="preserve" text-anchor="middle" x="439.38" y="-209.5" font-family="Arial" font-size="10.00" fill="#1a1a1a">(−) present and readable</text>
</g>
<!-- furniture.legend&#45;&gt;attr_1 -->
<g id="edge3" class="edge">
<title>furniture.legend&#45;&gt;attr_1</title>
<path fill="none" stroke="#aaaaaa" d="M324.53,-187.09C337.61,-190.07 354.01,-193.8 370.24,-197.5"/>
<polygon fill="#aaaaaa" stroke="#aaaaaa" points="369.34,-199.8 376.71,-198.97 370.43,-195.03 369.34,-199.8"/>
</g>
<!-- rel_2 -->
<g id="node16" class="node">
<title>rel_2</title>
<path fill="#f5b8b8" stroke="#d46a6a" stroke-width="1.2" d="M479.62,-166C479.62,-166 399.12,-166 399.12,-166 393.12,-166 387.12,-160 387.12,-154 387.12,-154 387.12,-142 387.12,-142 387.12,-136 393.12,-130 399.12,-130 399.12,-130 479.62,-130 479.62,-130 485.62,-130 491.62,-136 491.62,-142 491.62,-142 491.62,-154 491.62,-154 491.62,-160 485.62,-166 479.62,-166"/>
<text xml:space="preserve" text-anchor="middle" x="439.38" y="-144.5" font-family="Arial" font-size="10.00" fill="#8b0000">aids interpretation of</text>
</g>
<!-- furniture.legend&#45;&gt;rel_2 -->
<g id="edge12" class="edge">
<title>furniture.legend&#45;&gt;rel_2</title>
<path fill="none" stroke="#d46a6a" stroke-width="1.5" d="M324.53,-174.72C339.39,-171.23 358.53,-166.74 376.86,-162.44"/>
<polygon fill="#d46a6a" stroke="#d46a6a" stroke-width="1.5" points="377.27,-165.21 384.42,-160.66 375.99,-159.76 377.27,-165.21"/>
</g>
<!-- unknown.numbers -->
<g id="node3" class="node">
<title>unknown.numbers</title>
<path fill="#b8e6b8" stroke="#2c3e50" stroke-width="1.8" d="M42,-101C42,-101 12,-101 12,-101 6,-101 0,-95 0,-89 0,-89 0,-77 0,-77 0,-71 6,-65 12,-65 12,-65 42,-65 42,-65 48,-65 54,-71 54,-77 54,-77 54,-89 54,-89 54,-95 48,-101 42,-101"/>
<text xml:space="preserve" text-anchor="middle" x="27" y="-79.5" font-family="Arial" font-size="10.00" fill="#1a1a1a">numbers</text>
</g>
<!-- attr_2 -->
<g id="node10" class="node">
<title>attr_2</title>
<path fill="#c7b8e6" stroke="#7f8c8d" stroke-width="1.2" d="M203.75,-134C203.75,-134 111.25,-134 111.25,-134 105.25,-134 99.25,-128 99.25,-122 99.25,-122 99.25,-110 99.25,-110 99.25,-104 105.25,-98 111.25,-98 111.25,-98 203.75,-98 203.75,-98 209.75,-98 215.75,-104 215.75,-110 215.75,-110 215.75,-122 215.75,-122 215.75,-128 209.75,-134 203.75,-134"/>
<text xml:space="preserve" text-anchor="middle" x="157.5" y="-112.5" font-family="Arial" font-size="10.00" fill="#1a1a1a">(+) large and numerous</text>
</g>
<!-- unknown.numbers&#45;&gt;attr_2 -->
<g id="edge4" class="edge">
<title>unknown.numbers&#45;&gt;attr_2</title>
<path fill="none" stroke="#aaaaaa" d="M54.63,-89.84C65.28,-92.57 78.06,-95.86 90.92,-99.16"/>
<polygon fill="#aaaaaa" stroke="#aaaaaa" points="90.06,-101.47 97.45,-100.83 91.28,-96.72 90.06,-101.47"/>
</g>
<!-- rel_3 -->
<g id="node17" class="node">
<title>rel_3</title>
<path fill="#f5b8b8" stroke="#d46a6a" stroke-width="1.2" d="M206,-69C206,-69 109,-69 109,-69 103,-69 97,-63 97,-57 97,-57 97,-45 97,-45 97,-39 103,-33 109,-33 109,-33 206,-33 206,-33 212,-33 218,-39 218,-45 218,-45 218,-57 218,-57 218,-63 212,-69 206,-69"/>
<text xml:space="preserve" text-anchor="middle" x="157.5" y="-47.5" font-family="Arial" font-size="10.00" fill="#8b0000">contributes to density of</text>
</g>
<!-- unknown.numbers&#45;&gt;rel_3 -->
<g id="edge14" class="edge">
<title>unknown.numbers&#45;&gt;rel_3</title>
<path fill="none" stroke="#d46a6a" stroke-width="1.5" d="M54.63,-76.37C64.16,-74 75.4,-71.2 86.87,-68.34"/>
<polygon fill="#d46a6a" stroke="#d46a6a" stroke-width="1.5" points="87.24,-71.13 94.32,-66.48 85.88,-65.7 87.24,-71.13"/>
</g>
<!-- unknown.variables -->
<g id="node4" class="node">
<title>unknown.variables</title>
<path fill="#b8e6b8" stroke="#2c3e50" stroke-width="1.8" d="M589.25,-166C589.25,-166 558.25,-166 558.25,-166 552.25,-166 546.25,-160 546.25,-154 546.25,-154 546.25,-142 546.25,-142 546.25,-136 552.25,-130 558.25,-130 558.25,-130 589.25,-130 589.25,-130 595.25,-130 601.25,-136 601.25,-142 601.25,-142 601.25,-154 601.25,-154 601.25,-160 595.25,-166 589.25,-166"/>
<text xml:space="preserve" text-anchor="middle" x="573.75" y="-144.5" font-family="Arial" font-size="10.00" fill="#1a1a1a">variables</text>
</g>
<!-- attr_3 -->
<g id="node11" class="node">
<title>attr_3</title>
<path fill="#c7b8e6" stroke="#7f8c8d" stroke-width="1.2" d="M766.75,-199C766.75,-199 656.25,-199 656.25,-199 650.25,-199 644.25,-193 644.25,-187 644.25,-187 644.25,-175 644.25,-175 644.25,-169 650.25,-163 656.25,-163 656.25,-163 766.75,-163 766.75,-163 772.75,-163 778.75,-169 778.75,-175 778.75,-175 778.75,-187 778.75,-187 778.75,-193 772.75,-199 766.75,-199"/>
<text xml:space="preserve" text-anchor="middle" x="711.5" y="-177.5" font-family="Arial" font-size="10.00" fill="#1a1a1a">(+) many different variables</text>
</g>
<!-- unknown.variables&#45;&gt;attr_3 -->
<g id="edge5" class="edge">
<title>unknown.variables&#45;&gt;attr_3</title>
<path fill="none" stroke="#aaaaaa" d="M601.89,-154.6C611.86,-157.02 623.68,-159.9 635.8,-162.84"/>
<polygon fill="#aaaaaa" stroke="#aaaaaa" points="634.94,-165.15 642.32,-164.43 636.09,-160.39 634.94,-165.15"/>
</g>
<!-- rel_1 -->
<g id="node15" class="node">
<title>rel_1</title>
<path fill="#f5b8b8" stroke="#d46a6a" stroke-width="1.2" d="M751.38,-134C751.38,-134 671.62,-134 671.62,-134 665.62,-134 659.62,-128 659.62,-122 659.62,-122 659.62,-110 659.62,-110 659.62,-104 665.62,-98 671.62,-98 671.62,-98 751.38,-98 751.38,-98 757.38,-98 763.38,-104 763.38,-110 763.38,-110 763.38,-122 763.38,-122 763.38,-128 757.38,-134 751.38,-134"/>
<text xml:space="preserve" text-anchor="middle" x="711.5" y="-112.5" font-family="Arial" font-size="10.00" fill="#8b0000">increases volume of</text>
</g>
<!-- unknown.variables&#45;&gt;rel_1 -->
<g id="edge10" class="edge">
<title>unknown.variables&#45;&gt;rel_1</title>
<path fill="none" stroke="#d46a6a" stroke-width="1.5" d="M601.89,-141.6C615.61,-138.37 632.84,-134.31 649.51,-130.38"/>
<polygon fill="#d46a6a" stroke="#d46a6a" stroke-width="1.5" points="649.88,-133.17 657.02,-128.61 648.59,-127.72 649.88,-133.17"/>
</g>
<!-- unknown.shapes -->
<g id="node5" class="node">
<title>unknown.shapes</title>
<path fill="#b8e6b8" stroke="#2c3e50" stroke-width="1.8" d="M311.75,-69C311.75,-69 281.75,-69 281.75,-69 275.75,-69 269.75,-63 269.75,-57 269.75,-57 269.75,-45 269.75,-45 269.75,-39 275.75,-33 281.75,-33 281.75,-33 311.75,-33 311.75,-33 317.75,-33 323.75,-39 323.75,-45 323.75,-45 323.75,-57 323.75,-57 323.75,-63 317.75,-69 311.75,-69"/>
<text xml:space="preserve" text-anchor="middle" x="296.75" y="-47.5" font-family="Arial" font-size="10.00" fill="#1a1a1a">shapes</text>
</g>
<!-- attr_4 -->
<g id="node12" class="node">
<title>attr_4</title>
<path fill="#c7b8e6" stroke="#7f8c8d" stroke-width="1.2" d="M491.25,-101C491.25,-101 387.5,-101 387.5,-101 381.5,-101 375.5,-95 375.5,-89 375.5,-89 375.5,-77 375.5,-77 375.5,-71 381.5,-65 387.5,-65 387.5,-65 491.25,-65 491.25,-65 497.25,-65 503.25,-71 503.25,-77 503.25,-77 503.25,-89 503.25,-89 503.25,-95 497.25,-101 491.25,-101"/>
<text xml:space="preserve" text-anchor="middle" x="439.38" y="-79.5" font-family="Arial" font-size="10.00" fill="#1a1a1a">(+) complex curved forms</text>
</g>
<!-- unknown.shapes&#45;&gt;attr_4 -->
<g id="edge6" class="edge">
<title>unknown.shapes&#45;&gt;attr_4</title>
<path fill="none" stroke="#aaaaaa" d="M324.53,-57.09C336.75,-59.87 351.85,-63.31 367.02,-66.76"/>
<polygon fill="#aaaaaa" stroke="#aaaaaa" points="366.1,-69.07 373.47,-68.23 367.19,-64.29 366.1,-69.07"/>
</g>
<!-- rel_4 -->
<g id="node18" class="node">
<title>rel_4</title>
<path fill="#f5b8b8" stroke="#d46a6a" stroke-width="1.2" d="M471.38,-36C471.38,-36 407.38,-36 407.38,-36 401.38,-36 395.38,-30 395.38,-24 395.38,-24 395.38,-12 395.38,-12 395.38,-6 401.38,0 407.38,0 407.38,0 471.38,0 471.38,0 477.38,0 483.38,-6 483.38,-12 483.38,-12 483.38,-24 483.38,-24 483.38,-30 477.38,-36 471.38,-36"/>
<text xml:space="preserve" text-anchor="middle" x="439.38" y="-14.5" font-family="Arial" font-size="10.00" fill="#8b0000">eases reading of</text>
</g>
<!-- unknown.shapes&#45;&gt;rel_4 -->
<g id="edge16" class="edge">
<title>unknown.shapes&#45;&gt;rel_4</title>
<path fill="none" stroke="#d46a6a" stroke-width="1.5" d="M324.53,-44.72C341.58,-40.71 364.27,-35.39 384.9,-30.55"/>
<polygon fill="#d46a6a" stroke="#d46a6a" stroke-width="1.5" points="385.47,-33.29 392.62,-28.74 384.19,-27.84 385.47,-33.29"/>
</g>
<!-- unknown.color_shades -->
<g id="node6" class="node">
<title>unknown.color_shades</title>
<path fill="#b8e6b8" stroke="#2c3e50" stroke-width="1.8" d="M320.5,-328C320.5,-328 273,-328 273,-328 267,-328 261,-322 261,-316 261,-316 261,-304 261,-304 261,-298 267,-292 273,-292 273,-292 320.5,-292 320.5,-292 326.5,-292 332.5,-298 332.5,-304 332.5,-304 332.5,-316 332.5,-316 332.5,-322 326.5,-328 320.5,-328"/>
<text xml:space="preserve" text-anchor="middle" x="296.75" y="-306.5" font-family="Arial" font-size="10.00" fill="#1a1a1a">color shades</text>
</g>
<!-- attr_5 -->
<g id="node13" class="node">
<title>attr_5</title>
<path fill="#c7b8e6" stroke="#7f8c8d" stroke-width="1.2" d="M490.5,-361C490.5,-361 388.25,-361 388.25,-361 382.25,-361 376.25,-355 376.25,-349 376.25,-349 376.25,-337 376.25,-337 376.25,-331 382.25,-325 388.25,-325 388.25,-325 490.5,-325 490.5,-325 496.5,-325 502.5,-331 502.5,-337 502.5,-337 502.5,-349 502.5,-349 502.5,-355 496.5,-361 490.5,-361"/>
<text xml:space="preserve" text-anchor="middle" x="439.38" y="-339.5" font-family="Arial" font-size="10.00" fill="#1a1a1a">(+) similar orange shades</text>
</g>
<!-- unknown.color_shades&#45;&gt;attr_5 -->
<g id="edge7" class="edge">
<title>unknown.color_shades&#45;&gt;attr_5</title>
<path fill="none" stroke="#aaaaaa" d="M333.24,-318.33C343.75,-320.79 355.65,-323.59 367.57,-326.38"/>
<polygon fill="#aaaaaa" stroke="#aaaaaa" points="366.96,-328.76 374.33,-327.97 368.08,-323.99 366.96,-328.76"/>
</g>
<!-- rel_0 -->
<g id="node14" class="node">
<title>rel_0</title>
<path fill="#f5b8b8" stroke="#d46a6a" stroke-width="1.2" d="M487.12,-296C487.12,-296 391.62,-296 391.62,-296 385.62,-296 379.62,-290 379.62,-284 379.62,-284 379.62,-272 379.62,-272 379.62,-266 385.62,-260 391.62,-260 391.62,-260 487.12,-260 487.12,-260 493.12,-260 499.12,-266 499.12,-272 499.12,-272 499.12,-284 499.12,-284 499.12,-290 493.12,-296 487.12,-296"/>
<text xml:space="preserve" text-anchor="middle" x="439.38" y="-274.5" font-family="Arial" font-size="10.00" fill="#8b0000">hinders differentiation of</text>
</g>
<!-- unknown.color_shades&#45;&gt;rel_0 -->
<g id="edge8" class="edge">
<title>unknown.color_shades&#45;&gt;rel_0</title>
<path fill="none" stroke="#d46a6a" stroke-width="1.5" d="M333.24,-301.93C344.21,-299.43 356.71,-296.58 369.16,-293.75"/>
<polygon fill="#d46a6a" stroke="#d46a6a" stroke-width="1.5" points="369.71,-296.5 376.89,-291.99 368.46,-291.04 369.71,-296.5"/>
</g>
<!-- rel_0&#45;&gt;unknown.variables -->
<g id="edge9" class="edge">
<title>rel_0&#45;&gt;unknown.variables</title>
<path fill="none" stroke="#d46a6a" stroke-width="1.5" d="M483.74,-259.46C490.64,-255.54 497.41,-251.04 503.25,-246 526.35,-226.05 545.75,-196.88 558.13,-175.56"/>
<polygon fill="#d46a6a" stroke="#d46a6a" stroke-width="1.5" points="560.55,-176.98 562.04,-168.64 555.67,-174.23 560.55,-176.98"/>
</g>
<!-- rel_1&#45;&gt;unknown.color_areas -->
<g id="edge11" class="edge">
<title>rel_1&#45;&gt;unknown.color_areas</title>
<path fill="none" stroke="#d46a6a" stroke-width="1.5" d="M763.93,-116C779.43,-116 796.24,-116 811.03,-116"/>
<polygon fill="#d46a6a" stroke="#d46a6a" stroke-width="1.5" points="810.63,-118.8 818.63,-116 810.63,-113.2 810.63,-118.8"/>
</g>
<!-- rel_2&#45;&gt;unknown.variables -->
<g id="edge13" class="edge">
<title>rel_2&#45;&gt;unknown.variables</title>
<path fill="none" stroke="#d46a6a" stroke-width="1.5" d="M491.93,-148C506.51,-148 522.09,-148 535.63,-148"/>
<polygon fill="#d46a6a" stroke="#d46a6a" stroke-width="1.5" points="535.28,-150.8 543.28,-148 535.28,-145.2 535.28,-150.8"/>
</g>
<!-- rel_3&#45;&gt;unknown.shapes -->
<g id="edge15" class="edge">
<title>rel_3&#45;&gt;unknown.shapes</title>
<path fill="none" stroke="#d46a6a" stroke-width="1.5" d="M218.3,-51C232.18,-51 246.56,-51 259.1,-51"/>
<polygon fill="#d46a6a" stroke="#d46a6a" stroke-width="1.5" points="258.88,-53.8 266.88,-51 258.88,-48.2 258.88,-53.8"/>
</g>
<!-- rel_4&#45;&gt;unknown.variables -->
<g id="edge17" class="edge">
<title>rel_4&#45;&gt;unknown.variables</title>
<path fill="none" stroke="#d46a6a" stroke-width="1.5" d="M483.74,-36.54C490.64,-40.46 497.41,-44.96 503.25,-50 526.35,-69.95 545.75,-99.12 558.13,-120.44"/>
<polygon fill="#d46a6a" stroke="#d46a6a" stroke-width="1.5" points="555.67,-121.77 562.04,-127.36 560.55,-119.02 555.67,-121.77"/>
</g>
</g>
</svg>
