<?xml version="1.0" encoding="UTF-8" standalone="no"?>
<!DOCTYPE svg PUBLIC "-//W3C//DTD SVG 1.1//EN"
 "http://www.w3.org/Graphics/SVG/1.1/DTD/svg11.dtd">
<!-- Generated by graphviz version 14.1.5 (20260411.2331)
 -->
<!-- Title: wsj124.png Pages: 1 -->
<svg width="524pt" height="440pt"
 viewBox="0.00 0.00 524.00 440.00" xmlns="http://www.w3.org/2000/svg" xmlns:xlink="http://www.w3.org/1999/xlink">
<g id="graph0" class="graph" transform="scale(1 1) rotate(0) translate(4 436.25)">
<title>wsj124.png</title>
<polygon fill="white" stroke="none" points="-4,4 -4,-436.25 519.5,-436.25 519.5,4 -4,4"/>
<text xml:space="preserve" text-anchor="start" x="221" y="-411.95" font-family="Arial" font-weight="bold" font-size="14.00">wsj124.png</text>
<text xml:space="preserve" text-anchor="start" x="213.12" y="-392" font-family="Arial" font-size="11.00">Point &#160;| &#160;VC = 0.41</text>
<path fill="#b8e6b8" stroke="none" d="M48.38,-367C48.38,-367 56.38,-367 56.38,-367 59.38,-367 62.38,-370 62.38,-373 62.38,-373 62.38,-379 62.38,-379 62.38,-382 59.38,-385 56.38,-385 56.38,-385 48.38,-385 48.38,-385 45.38,-385 42.38,-382 42.38,-379 42.38,-379 42.38,-373 42.38,-373 42.38,-370 45.38,-367 48.38,-367"/>
<path fill="none" stroke="black" d="M48.38,-367C48.38,-367 56.38,-367 56.38,-367 59.38,-367 62.38,-370 62.38,-373 62.38,-373 62.38,-379 62.38,-379 62.38,-382 59.38,-385 56.38,-385 56.38,-385 48.38,-385 48.38,-385 45.38,-385 42.38,-382 42.38,-379 42.38,-379 42.38,-373 42.38,-373 42.38,-370 45.38,-367 48.38,-367"/>
<text xml:space="preserve" text-anchor="start" x="50.88" y="-372.25" font-family="Arial" font-size="10.00"> </text>
<text xml:space="preserve" text-anchor="start" x="66.38" y="-372.25" font-family="Arial" font-size="10.00">Object</text>
<path fill="#c7b8e6" stroke="none" d="M104.88,-367C104.88,-367 112.88,-367 112.88,-367 115.88,-367 118.88,-370 118.88,-373 118.88,-373 118.88,-379 118.88,-379 118.88,-382 115.88,-385 112.88,-385 112.88,-385 104.88,-385 104.88,-385 101.88,-385 98.88,-382 98.88,-379 98.88,-379 98.88,-373 98.88,-373 98.88,-370 101.88,-367 104.88,-367"/>
<path fill="none" stroke="black" d="M104.88,-367C104.88,-367 112.88,-367 112.88,-367 115.88,-367 118.88,-370 118.88,-373 118.88,-373 118.88,-379 118.88,-379 118.88,-382 115.88,-385 112.88,-385 112.88,-385 104.88,-385 104.88,-385 101.88,-385 98.88,-382 98.88,-379 98.88,-379 98.88,-373 98.88,-373 98.88,-370 101.88,-367 104.88,-367"/>
<text xml:space="preserve" text-anchor="start" x="107.38" y="-372.25" font-family="Arial" font-size="10.00"> </text>
<text xml:space="preserve" text-anchor="start" x="122.88" y="-372.25" font-family="Arial" font-size="10.00">Attribute</text>
<path fill="#f5b8b8" stroke="none" d="M169.62,-367C169.62,-367 177.62,-367 177.62,-367 180.62,-367 183.62,-370 183.62,-373 183.62,-373 183.62,-379 183.62,-379 183.62,-382 180.62,-385 177.62,-385 177.62,-385 169.62,-385 169.62,-385 166.62,-385 163.62,-382 163.62,-379 163.62,-379 163.62,-373 163.62,-373 163.62,-370 166.62,-367 169.62,-367"/>
<path fill="none" stroke="black" d="M169.62,-367C169.62,-367 177.62,-367 177.62,-367 180.62,-367 183.62,-370 183.62,-373 183.62,-373 183.62,-379 183.62,-379 183.62,-382 180.62,-385 177.62,-385 177.62,-385 169.62,-385 169.62,-385 166.62,-385 163.62,-382 163.62,-379 163.62,-379 163.62,-373 163.62,-373 163.62,-370 166.62,-367 169.62,-367"/>
<text xml:space="preserve" text-anchor="start" x="172.12" y="-372.25" font-family="Arial" font-size="10.00"> </text>
<text xml:space="preserve" text-anchor="start" x="187.62" y="-372.25" font-family="Arial" font-size="10.00">Relationship</text>
<text xml:space="preserve" text-anchor="start" x="247.62" y="-373.5" font-family="Arial" font-weight="bold" font-size="10.00">(+)</text>
<text xml:space="preserve" text-anchor="start" x="259.62" y="-373.5" font-family="Arial" font-size="10.00"> increases complexity</text>
<text xml:space="preserve" text-anchor="start" x="360.88" y="-373.5" font-family="Arial" font-weight="bold" font-size="10.00">(−)</text>
<text xml:space="preserve" text-anchor="start" x="372.88" y="-373.5" font-family="Arial" font-size="10.00"> decreases complexity</text>
<!-- unknown.data_points -->
<g id="node1" class="node">
<title>unknown.data_points</title>
<path fill="#b8e6b8" stroke="#2c3e50" stroke-width="1.8" d="M348.5,-231C348.5,-231 308.5,-231 308.5,-231 302.5,-231 296.5,-225 296.5,-219 296.5,-219 296.5,-207 296.5,-207 296.5,-201 302.5,-195 308.5,-195 308.5,-195 348.5,-195 348.5,-195 354.5,-195 360.5,-201 360.5,-207 360.5,-207 360.5,-219 360.5,-219 360.5,-225 354.5,-231 348.5,-231"/>
<text xml:space="preserve" text-anchor="middle" x="328.5" y="-209.5" font-family="Arial" font-size="10.00" fill="#1a1a1a">data points</text>
</g>
<!-- attr_0 -->
<g id="node5" class="node">
<title>attr_0</title>
<path fill="#c7b8e6" stroke="#7f8c8d" stroke-width="1.2" d="M503.5,-264C503.5,-264 415.5,-264 415.5,-264 409.5,-264 403.5,-258 403.5,-252 403.5,-252 403.5,-240 403.5,-240 403.5,-234 409.5,-228 415.5,-228 415.5,-228 503.5,-228 503.5,-228 509.5,-228 515.5,-234 515.5,-240 515.5,-240 515.5,-252 515.5,-252 515.5,-258 509.5,-264 503.5,-264"/>
<text xml:space="preserve" text-anchor="middle" x="459.5" y="-242.5" font-family="Arial" font-size="10.00" fill="#1a1a1a">(−) clearly visible data</text>
</g>
<!-- unknown.data_points&#45;&gt;attr_0 -->
<g id="edge1" class="edge">
<title>unknown.data_points&#45;&gt;attr_0</title>
<path fill="none" stroke="#aaaaaa" d="M361.39,-221.16C371.63,-223.78 383.37,-226.78 395.06,-229.77"/>
<polygon fill="#aaaaaa" stroke="#aaaaaa" points="394.27,-232.1 401.65,-231.46 395.48,-227.35 394.27,-232.1"/>
</g>
<!-- attr_1 -->
<g id="node6" class="node">
<title>attr_1</title>
<path fill="#c7b8e6" stroke="#7f8c8d" stroke-width="1.2" d="M499.75,-199C499.75,-199 419.25,-199 419.25,-199 413.25,-199 407.25,-193 407.25,-187 407.25,-187 407.25,-175 407.25,-175 407.25,-169 413.25,-163 419.25,-163 419.25,-163 499.75,-163 499.75,-163 505.75,-163 511.75,-169 511.75,-175 511.75,-175 511.75,-187 511.75,-187 511.75,-193 505.75,-199 499.75,-199"/>
<text xml:space="preserve" text-anchor="middle" x="459.5" y="-177.5" font-family="Arial" font-size="10.00" fill="#1a1a1a">(−) low visual clutter</text>
</g>
<!-- unknown.data_points&#45;&gt;attr_1 -->
<g id="edge2" class="edge">
<title>unknown.data_points&#45;&gt;attr_1</title>
<path fill="none" stroke="#aaaaaa" d="M361.39,-205.09C372.69,-202.29 385.82,-199.03 398.69,-195.84"/>
<polygon fill="#aaaaaa" stroke="#aaaaaa" points="398.98,-198.29 405.18,-194.23 397.8,-193.53 398.98,-198.29"/>
</g>
<!-- unknown.axes -->
<g id="node2" class="node">
<title>unknown.axes</title>
<path fill="#b8e6b8" stroke="#2c3e50" stroke-width="1.8" d="M51.88,-328C51.88,-328 21.88,-328 21.88,-328 15.88,-328 9.88,-322 9.88,-316 9.88,-316 9.88,-304 9.88,-304 9.88,-298 15.88,-292 21.88,-292 21.88,-292 51.88,-292 51.88,-292 57.88,-292 63.88,-298 63.88,-304 63.88,-304 63.88,-316 63.88,-316 63.88,-322 57.88,-328 51.88,-328"/>
<text xml:space="preserve" text-anchor="middle" x="36.88" y="-306.5" font-family="Arial" font-size="10.00" fill="#1a1a1a">axes</text>
</g>
<!-- attr_4 -->
<g id="node7" class="node">
<title>attr_4</title>
<path fill="#c7b8e6" stroke="#7f8c8d" stroke-width="1.2" d="M240,-361C240,-361 130.25,-361 130.25,-361 124.25,-361 118.25,-355 118.25,-349 118.25,-349 118.25,-337 118.25,-337 118.25,-331 124.25,-325 130.25,-325 130.25,-325 240,-325 240,-325 246,-325 252,-331 252,-337 252,-337 252,-349 252,-349 252,-355 246,-361 240,-361"/>
<text xml:space="preserve" text-anchor="middle" x="185.12" y="-339.5" font-family="Arial" font-size="10.00" fill="#1a1a1a">(−) clear scale organization</text>
</g>
<!-- unknown.axes&#45;&gt;attr_4 -->
<g id="edge3" class="edge">
<title>unknown.axes&#45;&gt;attr_4</title>
<path fill="none" stroke="#aaaaaa" d="M64.7,-316.05C77.6,-318.96 93.76,-322.61 109.99,-326.27"/>
<polygon fill="#aaaaaa" stroke="#aaaaaa" points="109.1,-328.58 116.47,-327.73 110.18,-323.8 109.1,-328.58"/>
</g>
<!-- rel_0 -->
<g id="node10" class="node">
<title>rel_0</title>
<path fill="#f5b8b8" stroke="#d46a6a" stroke-width="1.2" d="M222.75,-296C222.75,-296 147.5,-296 147.5,-296 141.5,-296 135.5,-290 135.5,-284 135.5,-284 135.5,-272 135.5,-272 135.5,-266 141.5,-260 147.5,-260 147.5,-260 222.75,-260 222.75,-260 228.75,-260 234.75,-266 234.75,-272 234.75,-272 234.75,-284 234.75,-284 234.75,-290 228.75,-296 222.75,-296"/>
<text xml:space="preserve" text-anchor="middle" x="185.12" y="-274.5" font-family="Arial" font-size="10.00" fill="#8b0000">supports reading of</text>
</g>
<!-- unknown.axes&#45;&gt;rel_0 -->
<g id="edge6" class="edge">
<title>unknown.axes&#45;&gt;rel_0</title>
<path fill="none" stroke="#d46a6a" stroke-width="1.5" d="M64.7,-304.13C81.64,-300.42 104.22,-295.48 125.18,-290.9"/>
<polygon fill="#d46a6a" stroke="#d46a6a" stroke-width="1.5" points="125.55,-293.68 132.77,-289.24 124.36,-288.21 125.55,-293.68"/>
</g>
<!-- unknown.labels -->
<g id="node3" class="node">
<title>unknown.labels</title>
<path fill="#b8e6b8" stroke="#2c3e50" stroke-width="1.8" d="M51.88,-231C51.88,-231 21.88,-231 21.88,-231 15.88,-231 9.88,-225 9.88,-219 9.88,-219 9.88,-207 9.88,-207 9.88,-201 15.88,-195 21.88,-195 21.88,-195 51.88,-195 51.88,-195 57.88,-195 63.88,-201 63.88,-207 63.88,-207 63.88,-219 63.88,-219 63.88,-225 57.88,-231 51.88,-231"/>
<text xml:space="preserve" text-anchor="middle" x="36.88" y="-209.5" font-family="Arial" font-size="10.00" fill="#1a1a1a">labels</text>
</g>
<!-- rel_1 -->
<g id="node11" class="node">
<title>rel_1</title>
<path fill="#f5b8b8" stroke="#d46a6a" stroke-width="1.2" d="M200.12,-231C200.12,-231 170.12,-231 170.12,-231 164.12,-231 158.12,-225 158.12,-219 158.12,-219 158.12,-207 158.12,-207 158.12,-201 164.12,-195 170.12,-195 170.12,-195 200.12,-195 200.12,-195 206.12,-195 212.12,-201 212.12,-207 212.12,-207 212.12,-219 212.12,-219 212.12,-225 206.12,-231 200.12,-231"/>
<text xml:space="preserve" text-anchor="middle" x="185.12" y="-209.5" font-family="Arial" font-size="10.00" fill="#8b0000">clarifies</text>
</g>
<!-- unknown.labels&#45;&gt;rel_1 -->
<g id="edge8" class="edge">
<title>unknown.labels&#45;&gt;rel_1</title>
<path fill="none" stroke="#d46a6a" stroke-width="1.5" d="M64.7,-213C88.04,-213 122.06,-213 147.83,-213"/>
<polygon fill="#d46a6a" stroke="#d46a6a" stroke-width="1.5" points="147.69,-215.8 155.69,-213 147.69,-210.2 147.69,-215.8"/>
</g>
<!-- unknown.overall_layout -->
<g id="node4" class="node">
<title>unknown.overall_layout</title>
<path fill="#b8e6b8" stroke="#2c3e50" stroke-width="1.8" d="M61.75,-101C61.75,-101 12,-101 12,-101 6,-101 0,-95 0,-89 0,-89 0,-77 0,-77 0,-71 6,-65 12,-65 12,-65 61.75,-65 61.75,-65 67.75,-65 73.75,-71 73.75,-77 73.75,-77 73.75,-89 73.75,-89 73.75,-95 67.75,-101 61.75,-101"/>
<text xml:space="preserve" text-anchor="middle" x="36.88" y="-79.5" font-family="Arial" font-size="10.00" fill="#1a1a1a">overall layout</text>
</g>
<!-- attr_2 -->
<g id="node8" class="node">
<title>attr_2</title>
<path fill="#c7b8e6" stroke="#7f8c8d" stroke-width="1.2" d="M223.88,-166C223.88,-166 146.38,-166 146.38,-166 140.38,-166 134.38,-160 134.38,-154 134.38,-154 134.38,-142 134.38,-142 134.38,-136 140.38,-130 146.38,-130 146.38,-130 223.88,-130 223.88,-130 229.88,-130 235.88,-136 235.88,-142 235.88,-142 235.88,-154 235.88,-154 235.88,-160 229.88,-166 223.88,-166"/>
<text xml:space="preserve" text-anchor="middle" x="185.12" y="-144.5" font-family="Arial" font-size="10.00" fill="#1a1a1a">(−) easy to interpret</text>
</g>
<!-- unknown.overall_layout&#45;&gt;attr_2 -->
<g id="edge4" class="edge">
<title>unknown.overall_layout&#45;&gt;attr_2</title>
<path fill="none" stroke="#aaaaaa" d="M74.4,-99.23C92.63,-107.33 114.94,-117.25 134.67,-126.02"/>
<polygon fill="#aaaaaa" stroke="#aaaaaa" points="133.6,-128.23 140.99,-128.83 135.59,-123.75 133.6,-128.23"/>
</g>
<!-- attr_3 -->
<g id="node9" class="node">
<title>attr_3</title>
<path fill="#c7b8e6" stroke="#7f8c8d" stroke-width="1.2" d="M241.5,-101C241.5,-101 128.75,-101 128.75,-101 122.75,-101 116.75,-95 116.75,-89 116.75,-89 116.75,-77 116.75,-77 116.75,-71 122.75,-65 128.75,-65 128.75,-65 241.5,-65 241.5,-65 247.5,-65 253.5,-71 253.5,-77 253.5,-77 253.5,-89 253.5,-89 253.5,-95 247.5,-101 241.5,-101"/>
<text xml:space="preserve" text-anchor="middle" x="185.12" y="-79.5" font-family="Arial" font-size="10.00" fill="#1a1a1a">(−) straightforward structure</text>
</g>
<!-- unknown.overall_layout&#45;&gt;attr_3 -->
<g id="edge5" class="edge">
<title>unknown.overall_layout&#45;&gt;attr_3</title>
<path fill="none" stroke="#aaaaaa" d="M74.4,-83C84.61,-83 96.11,-83 107.72,-83"/>
<polygon fill="#aaaaaa" stroke="#aaaaaa" points="107.66,-85.45 114.66,-83 107.66,-80.55 107.66,-85.45"/>
</g>
<!-- rel_2 -->
<g id="node12" class="node">
<title>rel_2</title>
<path fill="#f5b8b8" stroke="#d46a6a" stroke-width="1.2" d="M217.88,-36C217.88,-36 152.38,-36 152.38,-36 146.38,-36 140.38,-30 140.38,-24 140.38,-24 140.38,-12 140.38,-12 140.38,-6 146.38,0 152.38,0 152.38,0 217.88,0 217.88,0 223.88,0 229.88,-6 229.88,-12 229.88,-12 229.88,-24 229.88,-24 229.88,-30 223.88,-36 217.88,-36"/>
<text xml:space="preserve" text-anchor="middle" x="185.12" y="-14.5" font-family="Arial" font-size="10.00" fill="#8b0000">reduces effort for</text>
</g>
<!-- unknown.overall_layout&#45;&gt;rel_2 -->
<g id="edge10" class="edge">
<title>unknown.overall_layout&#45;&gt;rel_2</title>
<path fill="none" stroke="#d46a6a" stroke-width="1.5" d="M74.4,-66.77C92.14,-58.88 113.76,-49.27 133.09,-40.68"/>
<polygon fill="#d46a6a" stroke="#d46a6a" stroke-width="1.5" points="134.13,-43.28 140.3,-37.48 131.86,-38.17 134.13,-43.28"/>
</g>
<!-- rel_0&#45;&gt;unknown.data_points -->
<g id="edge7" class="edge">
<title>rel_0&#45;&gt;unknown.data_points</title>
<path fill="none" stroke="#d46a6a" stroke-width="1.5" d="M226.26,-259.55C245.11,-250.88 267.56,-240.56 286.52,-231.84"/>
<polygon fill="#d46a6a" stroke="#d46a6a" stroke-width="1.5" points="287.64,-234.41 293.74,-228.52 285.3,-229.32 287.64,-234.41"/>
</g>
<!-- rel_1&#45;&gt;unknown.data_points -->
<g id="edge9" class="edge">
<title>rel_1&#45;&gt;unknown.data_points</title>
<path fill="none" stroke="#d46a6a" stroke-width="1.5" d="M212.72,-213C233.27,-213 262.11,-213 285.73,-213"/>
<polygon fill="#d46a6a" stroke="#d46a6a" stroke-width="1.5" points="285.57,-215.8 293.57,-213 285.57,-210.2 285.57,-215.8"/>
</g>
<!-- rel_2&#45;&gt;unknown.data_points -->
<g id="edge11" class="edge">
<title>rel_2&#45;&gt;unknown.data_points</title>
<path fill="none" stroke="#d46a6a" stroke-width="1.5" d="M230.37,-34.22C238.77,-38.73 246.96,-44.28 253.5,-51 290.6,-89.11 311.25,-149.15 320.81,-184.44"/>
<polygon fill="#d46a6a" stroke="#d46a6a" stroke-width="1.5" points="318.03,-184.89 322.75,-191.93 323.45,-183.48 318.03,-184.89"/>
</g>
</g>
</svg>
