<?xml version="1.0" encoding="UTF-8" standalone="no"?>
<!DOCTYPE svg PUBLIC "-//W3C//DTD SVG 1.1//EN"
 "http://www.w3.org/Graphics/SVG/1.1/DTD/svg11.dtd">
<!-- Generated by graphviz version 14.1.5 (20260411.2331)
 -->
<!-- Title: wsj226.png Pages: 1 -->
<svg width="1210pt" height="357pt"
 viewBox="0.00 0.00 1210.00 357.00" xmlns="http://www.w3.org/2000/svg" xmlns:xlink="http://www.w3.org/1999/xlink">
<g id="graph0" class="graph" transform="scale(1 1) rotate(0) translate(4 353.25)">
<title>wsj226.png</title>
<polygon fill="white" stroke="none" points="-4,4 -4,-353.25 1205.5,-353.25 1205.5,4 -4,4"/>
<text xml:space="preserve" text-anchor="start" x="564" y="-328.95" font-family="Arial" font-weight="bold" font-size="14.00">wsj226.png</text>
<text xml:space="preserve" text-anchor="start" x="559.88" y="-309" font-family="Arial" font-size="11.00">Bar &#160;| &#160;VC = 0.58</text>
<path fill="#b8e6b8" stroke="none" d="M391.38,-284C391.38,-284 399.38,-284 399.38,-284 402.38,-284 405.38,-287 405.38,-290 405.38,-290 405.38,-296 405.38,-296 405.38,-299 402.38,-302 399.38,-302 399.38,-302 391.38,-302 391.38,-302 388.38,-302 385.38,-299 385.38,-296 385.38,-296 385.38,-290 385.38,-290 385.38,-287 388.38,-284 391.38,-284"/>
<path fill="none" stroke="black" d="M391.38,-284C391.38,-284 399.38,-284 399.38,-284 402.38,-284 405.38,-287 405.38,-290 405.38,-290 405.38,-296 405.38,-296 405.38,-299 402.38,-302 399.38,-302 399.38,-302 391.38,-302 391.38,-302 388.38,-302 385.38,-299 385.38,-296 385.38,-296 385.38,-290 385.38,-290 385.38,-287 388.38,-284 391.38,-284"/>
<text xml:space="preserve" text-anchor="start" x="393.88" y="-289.25" font-family="Arial" font-size="10.00"> </text>
<text xml:space="preserve" text-anchor="start" x="409.38" y="-289.25" font-family="Arial" font-size="10.00">Object</text>
<path fill="#c7b8e6" stroke="none" d="M447.88,-284C447.88,-284 455.88,-284 455.88,-284 458.88,-284 461.88,-287 461.88,-290 461.88,-290 461.88,-296 461.88,-296 461.88,-299 458.88,-302 455.88,-302 455.88,-302 447.88,-302 447.88,-302 444.88,-302 441.88,-299 441.88,-296 441.88,-296 441.88,-290 441.88,-290 441.88,-287 444.88,-284 447.88,-284"/>
<path fill="none" stroke="black" d="M447.88,-284C447.88,-284 455.88,-284 455.88,-284 458.88,-284 461.88,-287 461.88,-290 461.88,-290 461.88,-296 461.88,-296 461.88,-299 458.88,-302 455.88,-302 455.88,-302 447.88,-302 447.88,-302 444.88,-302 441.88,-299 441.88,-296 441.88,-296 441.88,-290 441.88,-290 441.88,-287 444.88,-284 447.88,-284"/>
<text xml:space="preserve" text-anchor="start" x="450.38" y="-289.25" font-family="Arial" font-size="10.00"> </text>
<text xml:space="preserve" text-anchor="start" x="465.88" y="-289.25" font-family="Arial" font-size="10.00">Attribute</text>
<path fill="#f5b8b8" stroke="none" d="M512.62,-284C512.62,-284 520.62,-284 520.62,-284 523.62,-284 526.62,-287 526.62,-290 526.62,-290 526.62,-296 526.62,-296 526.62,-299 523.62,-302 520.62,-302 520.62,-302 512.62,-302 512.62,-302 509.62,-302 506.62,-299 506.62,-296 506.62,-296 506.62,-290 506.62,-290 506.62,-287 509.62,-284 512.62,-284"/>
<path fill="none" stroke="black" d="M512.62,-284C512.62,-284 520.62,-284 520.62,-284 523.62,-284 526.62,-287 526.62,-290 526.62,-290 526.62,-296 526.62,-296 526.62,-299 523.62,-302 520.62,-302 520.62,-302 512.62,-302 512.62,-302 509.62,-302 506.62,-299 506.62,-296 506.62,-296 506.62,-290 506.62,-290 506.62,-287 509.62,-284 512.62,-284"/>
<text xml:space="preserve" text-anchor="start" x="515.12" y="-289.25" font-family="Arial" font-size="10.00"> </text>
<text xml:space="preserve" text-anchor="start" x="530.62" y="-289.25" font-family="Arial" font-size="10.00">Relationship</text>
<text xml:space="preserve" text-anchor="start" x="590.62" y="-290.5" font-family="Arial" font-weight="bold" font-size="10.00">(+)</text>
<text xml:space="preserve" text-anchor="start" x="602.62" y="-290.5" font-family="Arial" font-size="10.00"> increases complexity</text>
<text xml:space="preserve" text-anchor="start" x="703.88" y="-290.5" font-family="Arial" font-weight="bold" font-size="10.00">(−)</text>
<text xml:space="preserve" text-anchor="start" x="715.88" y="-290.5" font-family="Arial" font-size="10.00"> decreases complexity</text>
<!-- mark.bar -->
<g id="node1" class="node">
<title>mark.bar</title>
<path fill="#b8e6b8" stroke="#2c3e50" stroke-width="1.8" d="M351.75,-231C351.75,-231 321.75,-231 321.75,-231 315.75,-231 309.75,-225 309.75,-219 309.75,-219 309.75,-207 309.75,-207 309.75,-201 315.75,-195 321.75,-195 321.75,-195 351.75,-195 351.75,-195 357.75,-195 363.75,-201 363.75,-207 363.75,-207 363.75,-219 363.75,-219 363.75,-225 357.75,-231 351.75,-231"/>
<text xml:space="preserve" text-anchor="middle" x="336.75" y="-209.5" font-family="Arial" font-size="10.00" fill="#1a1a1a">bar</text>
</g>
<!-- attr_0 -->
<g id="node7" class="node">
<title>attr_0</title>
<path fill="#c7b8e6" stroke="#7f8c8d" stroke-width="1.2" d="M541.75,-166C541.75,-166 435.75,-166 435.75,-166 429.75,-166 423.75,-160 423.75,-154 423.75,-154 423.75,-142 423.75,-142 423.75,-136 429.75,-130 435.75,-130 435.75,-130 541.75,-130 541.75,-130 547.75,-130 553.75,-136 553.75,-142 553.75,-142 553.75,-154 553.75,-154 553.75,-160 547.75,-166 541.75,-166"/>
<text xml:space="preserve" text-anchor="middle" x="488.75" y="-144.5" font-family="Arial" font-size="10.00" fill="#1a1a1a">(+) multiple bars per group</text>
</g>
<!-- mark.bar&#45;&gt;attr_0 -->
<g id="edge1" class="edge">
<title>mark.bar&#45;&gt;attr_0</title>
<path fill="none" stroke="#aaaaaa" d="M364.57,-201.38C384.72,-192.65 412.91,-180.43 437.25,-169.88"/>
<polygon fill="#aaaaaa" stroke="#aaaaaa" points="438.16,-172.16 443.61,-167.13 436.21,-167.66 438.16,-172.16"/>
</g>
<!-- rel_0 -->
<g id="node13" class="node">
<title>rel_0</title>
<path fill="#f5b8b8" stroke="#d46a6a" stroke-width="1.2" d="M507.62,-231C507.62,-231 469.88,-231 469.88,-231 463.88,-231 457.88,-225 457.88,-219 457.88,-219 457.88,-207 457.88,-207 457.88,-201 463.88,-195 469.88,-195 469.88,-195 507.62,-195 507.62,-195 513.62,-195 519.62,-201 519.62,-207 519.62,-207 519.62,-219 519.62,-219 519.62,-225 513.62,-231 507.62,-231"/>
<text xml:space="preserve" text-anchor="middle" x="488.75" y="-209.5" font-family="Arial" font-size="10.00" fill="#8b0000">represents</text>
</g>
<!-- mark.bar&#45;&gt;rel_0 -->
<g id="edge7" class="edge">
<title>mark.bar&#45;&gt;rel_0</title>
<path fill="none" stroke="#d46a6a" stroke-width="1.5" d="M364.57,-213C387.55,-213 421.01,-213 447.26,-213"/>
<polygon fill="#d46a6a" stroke="#d46a6a" stroke-width="1.5" points="447.02,-215.8 455.02,-213 447.02,-210.2 447.02,-215.8"/>
</g>
<!-- unknown.country_region_label -->
<g id="node2" class="node">
<title>unknown.country_region_label</title>
<path fill="#b8e6b8" stroke="#2c3e50" stroke-width="1.8" d="M1012,-182C1012,-182 935.25,-182 935.25,-182 929.25,-182 923.25,-176 923.25,-170 923.25,-170 923.25,-158 923.25,-158 923.25,-152 929.25,-146 935.25,-146 935.25,-146 1012,-146 1012,-146 1018,-146 1024,-152 1024,-158 1024,-158 1024,-170 1024,-170 1024,-176 1018,-182 1012,-182"/>
<text xml:space="preserve" text-anchor="middle" x="973.62" y="-160.5" font-family="Arial" font-size="10.00" fill="#1a1a1a">country region label</text>
</g>
<!-- attr_3 -->
<g id="node8" class="node">
<title>attr_3</title>
<path fill="#c7b8e6" stroke="#7f8c8d" stroke-width="1.2" d="M1189.5,-182C1189.5,-182 1079,-182 1079,-182 1073,-182 1067,-176 1067,-170 1067,-170 1067,-158 1067,-158 1067,-152 1073,-146 1079,-146 1079,-146 1189.5,-146 1189.5,-146 1195.5,-146 1201.5,-152 1201.5,-158 1201.5,-158 1201.5,-170 1201.5,-170 1201.5,-176 1195.5,-182 1189.5,-182"/>
<text xml:space="preserve" text-anchor="middle" x="1134.25" y="-160.5" font-family="Arial" font-size="10.00" fill="#1a1a1a">(+) multiple country regions</text>
</g>
<!-- unknown.country_region_label&#45;&gt;attr_3 -->
<g id="edge2" class="edge">
<title>unknown.country_region_label&#45;&gt;attr_3</title>
<path fill="none" stroke="#aaaaaa" d="M1024.81,-164C1035.48,-164 1046.96,-164 1058.32,-164"/>
<polygon fill="#aaaaaa" stroke="#aaaaaa" points="1058.04,-166.45 1065.04,-164 1058.04,-161.55 1058.04,-166.45"/>
</g>
<!-- rel_2 -->
<g id="node15" class="node">
<title>rel_2</title>
<path fill="#f5b8b8" stroke="#d46a6a" stroke-width="1.2" d="M1155.38,-278C1155.38,-278 1113.12,-278 1113.12,-278 1107.12,-278 1101.12,-272 1101.12,-266 1101.12,-266 1101.12,-254 1101.12,-254 1101.12,-248 1107.12,-242 1113.12,-242 1113.12,-242 1155.38,-242 1155.38,-242 1161.38,-242 1167.38,-248 1167.38,-254 1167.38,-254 1167.38,-266 1167.38,-266 1167.38,-272 1161.38,-278 1155.38,-278"/>
<text xml:space="preserve" text-anchor="middle" x="1134.25" y="-256.5" font-family="Arial" font-size="10.00" fill="#8b0000">categorizes</text>
</g>
<!-- unknown.country_region_label&#45;&gt;rel_2 -->
<g id="edge11" class="edge">
<title>unknown.country_region_label&#45;&gt;rel_2</title>
<path fill="none" stroke="#d46a6a" stroke-width="1.5" d="M1005.59,-182.74C1030.89,-198.05 1066.81,-219.79 1094.1,-236.31"/>
<polygon fill="#d46a6a" stroke="#d46a6a" stroke-width="1.5" points="1092.4,-238.55 1100.69,-240.3 1095.3,-233.76 1092.4,-238.55"/>
</g>
<!-- unknown.crop_production_data -->
<g id="node3" class="node">
<title>unknown.crop_production_data</title>
<path fill="#b8e6b8" stroke="#2c3e50" stroke-width="1.8" d="M689.25,-198C689.25,-198 608.75,-198 608.75,-198 602.75,-198 596.75,-192 596.75,-186 596.75,-186 596.75,-174 596.75,-174 596.75,-168 602.75,-162 608.75,-162 608.75,-162 689.25,-162 689.25,-162 695.25,-162 701.25,-168 701.25,-174 701.25,-174 701.25,-186 701.25,-186 701.25,-192 695.25,-198 689.25,-198"/>
<text xml:space="preserve" text-anchor="middle" x="649" y="-176.5" font-family="Arial" font-size="10.00" fill="#1a1a1a">crop production data</text>
</g>
<!-- attr_1 -->
<g id="node9" class="node">
<title>attr_1</title>
<path fill="#c7b8e6" stroke="#7f8c8d" stroke-width="1.2" d="M859.25,-231C859.25,-231 765.25,-231 765.25,-231 759.25,-231 753.25,-225 753.25,-219 753.25,-219 753.25,-207 753.25,-207 753.25,-201 759.25,-195 765.25,-195 765.25,-195 859.25,-195 859.25,-195 865.25,-195 871.25,-201 871.25,-207 871.25,-207 871.25,-219 871.25,-219 871.25,-225 865.25,-231 859.25,-231"/>
<text xml:space="preserve" text-anchor="middle" x="812.25" y="-209.5" font-family="Arial" font-size="10.00" fill="#1a1a1a">(+) detailed crop values</text>
</g>
<!-- unknown.crop_production_data&#45;&gt;attr_1 -->
<g id="edge3" class="edge">
<title>unknown.crop_production_data&#45;&gt;attr_1</title>
<path fill="none" stroke="#aaaaaa" d="M701.91,-190.62C715.45,-193.4 730.24,-196.42 744.44,-199.33"/>
<polygon fill="#aaaaaa" stroke="#aaaaaa" points="743.89,-201.72 751.24,-200.72 744.87,-196.91 743.89,-201.72"/>
</g>
<!-- rel_4 -->
<g id="node17" class="node">
<title>rel_4</title>
<path fill="#f5b8b8" stroke="#d46a6a" stroke-width="1.2" d="M868.25,-166C868.25,-166 756.25,-166 756.25,-166 750.25,-166 744.25,-160 744.25,-154 744.25,-154 744.25,-142 744.25,-142 744.25,-136 750.25,-130 756.25,-130 756.25,-130 868.25,-130 868.25,-130 874.25,-130 880.25,-136 880.25,-142 880.25,-142 880.25,-154 880.25,-154 880.25,-160 874.25,-166 868.25,-166"/>
<text xml:space="preserve" text-anchor="middle" x="812.25" y="-144.5" font-family="Arial" font-size="10.00" fill="#8b0000">requires comparison across</text>
</g>
<!-- unknown.crop_production_data&#45;&gt;rel_4 -->
<g id="edge15" class="edge">
<title>unknown.crop_production_data&#45;&gt;rel_4</title>
<path fill="none" stroke="#d46a6a" stroke-width="1.5" d="M701.91,-169.7C712.13,-167.67 723.06,-165.5 733.91,-163.35"/>
<polygon fill="#d46a6a" stroke="#d46a6a" stroke-width="1.5" points="734.3,-166.13 741.6,-161.82 733.21,-160.63 734.3,-166.13"/>
</g>
<!-- unknown.time_comparison -->
<g id="node4" class="node">
<title>unknown.time_comparison</title>
<path fill="#b8e6b8" stroke="#2c3e50" stroke-width="1.8" d="M368.75,-69C368.75,-69 304.75,-69 304.75,-69 298.75,-69 292.75,-63 292.75,-57 292.75,-57 292.75,-45 292.75,-45 292.75,-39 298.75,-33 304.75,-33 304.75,-33 368.75,-33 368.75,-33 374.75,-33 380.75,-39 380.75,-45 380.75,-45 380.75,-57 380.75,-57 380.75,-63 374.75,-69 368.75,-69"/>
<text xml:space="preserve" text-anchor="middle" x="336.75" y="-47.5" font-family="Arial" font-size="10.00" fill="#1a1a1a">time comparison</text>
</g>
<!-- attr_2 -->
<g id="node10" class="node">
<title>attr_2</title>
<path fill="#c7b8e6" stroke="#7f8c8d" stroke-width="1.2" d="M540.62,-36C540.62,-36 436.88,-36 436.88,-36 430.88,-36 424.88,-30 424.88,-24 424.88,-24 424.88,-12 424.88,-12 424.88,-6 430.88,0 436.88,0 436.88,0 540.62,0 540.62,0 546.62,0 552.62,-6 552.62,-12 552.62,-12 552.62,-24 552.62,-24 552.62,-30 546.62,-36 540.62,-36"/>
<text xml:space="preserve" text-anchor="middle" x="488.75" y="-14.5" font-family="Arial" font-size="10.00" fill="#1a1a1a">(+) year over year change</text>
</g>
<!-- unknown.time_comparison&#45;&gt;attr_2 -->
<g id="edge4" class="edge">
<title>unknown.time_comparison&#45;&gt;attr_2</title>
<path fill="none" stroke="#aaaaaa" d="M381.54,-41.37C392.43,-38.97 404.39,-36.34 416.23,-33.73"/>
<polygon fill="#aaaaaa" stroke="#aaaaaa" points="416.61,-36.16 422.92,-32.26 415.56,-31.37 416.61,-36.16"/>
</g>
<!-- rel_1 -->
<g id="node14" class="node">
<title>rel_1</title>
<path fill="#f5b8b8" stroke="#d46a6a" stroke-width="1.2" d="M524.12,-101C524.12,-101 453.38,-101 453.38,-101 447.38,-101 441.38,-95 441.38,-89 441.38,-89 441.38,-77 441.38,-77 441.38,-71 447.38,-65 453.38,-65 453.38,-65 524.12,-65 524.12,-65 530.12,-65 536.12,-71 536.12,-77 536.12,-77 536.12,-89 536.12,-89 536.12,-95 530.12,-101 524.12,-101"/>
<text xml:space="preserve" text-anchor="middle" x="488.75" y="-79.5" font-family="Arial" font-size="10.00" fill="#8b0000">increases detail in</text>
</g>
<!-- unknown.time_comparison&#45;&gt;rel_1 -->
<g id="edge9" class="edge">
<title>unknown.time_comparison&#45;&gt;rel_1</title>
<path fill="none" stroke="#d46a6a" stroke-width="1.5" d="M381.54,-60.34C397.01,-63.64 414.63,-67.4 431.02,-70.9"/>
<polygon fill="#d46a6a" stroke="#d46a6a" stroke-width="1.5" points="430.4,-73.63 438.81,-72.56 431.57,-68.15 430.4,-73.63"/>
</g>
<!-- text.axis_label -->
<g id="node5" class="node">
<title>text.axis_label</title>
<path fill="#b8e6b8" stroke="#2c3e50" stroke-width="1.8" d="M45.25,-199C45.25,-199 12,-199 12,-199 6,-199 0,-193 0,-187 0,-187 0,-175 0,-175 0,-169 6,-163 12,-163 12,-163 45.25,-163 45.25,-163 51.25,-163 57.25,-169 57.25,-175 57.25,-175 57.25,-187 57.25,-187 57.25,-193 51.25,-199 45.25,-199"/>
<text xml:space="preserve" text-anchor="middle" x="28.62" y="-177.5" font-family="Arial" font-size="10.00" fill="#1a1a1a">axis label</text>
</g>
<!-- attr_5 -->
<g id="node11" class="node">
<title>attr_5</title>
<path fill="#c7b8e6" stroke="#7f8c8d" stroke-width="1.2" d="M237.75,-199C237.75,-199 112.25,-199 112.25,-199 106.25,-199 100.25,-193 100.25,-187 100.25,-187 100.25,-175 100.25,-175 100.25,-169 106.25,-163 112.25,-163 112.25,-163 237.75,-163 237.75,-163 243.75,-163 249.75,-169 249.75,-175 249.75,-175 249.75,-187 249.75,-187 249.75,-193 243.75,-199 237.75,-199"/>
<text xml:space="preserve" text-anchor="middle" x="175" y="-177.5" font-family="Arial" font-size="10.00" fill="#1a1a1a">(+) requires domain knowledge</text>
</g>
<!-- text.axis_label&#45;&gt;attr_5 -->
<g id="edge5" class="edge">
<title>text.axis_label&#45;&gt;attr_5</title>
<path fill="none" stroke="#aaaaaa" d="M58.15,-181C67.96,-181 79.5,-181 91.43,-181"/>
<polygon fill="#aaaaaa" stroke="#aaaaaa" points="91.22,-183.45 98.22,-181 91.22,-178.55 91.22,-183.45"/>
</g>
<!-- furniture.legend -->
<g id="node6" class="node">
<title>furniture.legend</title>
<path fill="#b8e6b8" stroke="#2c3e50" stroke-width="1.8" d="M43.62,-101C43.62,-101 13.62,-101 13.62,-101 7.62,-101 1.62,-95 1.62,-89 1.62,-89 1.62,-77 1.62,-77 1.62,-71 7.62,-65 13.62,-65 13.62,-65 43.62,-65 43.62,-65 49.62,-65 55.62,-71 55.62,-77 55.62,-77 55.62,-89 55.62,-89 55.62,-95 49.62,-101 43.62,-101"/>
<text xml:space="preserve" text-anchor="middle" x="28.62" y="-79.5" font-family="Arial" font-size="10.00" fill="#1a1a1a">legend</text>
</g>
<!-- attr_4 -->
<g id="node12" class="node">
<title>attr_4</title>
<path fill="#c7b8e6" stroke="#7f8c8d" stroke-width="1.2" d="M233.25,-134C233.25,-134 116.75,-134 116.75,-134 110.75,-134 104.75,-128 104.75,-122 104.75,-122 104.75,-110 104.75,-110 104.75,-104 110.75,-98 116.75,-98 116.75,-98 233.25,-98 233.25,-98 239.25,-98 245.25,-104 245.25,-110 245.25,-110 245.25,-122 245.25,-122 245.25,-128 239.25,-134 233.25,-134"/>
<text xml:space="preserve" text-anchor="middle" x="175" y="-112.5" font-family="Arial" font-size="10.00" fill="#1a1a1a">(+) encodes temporal groups</text>
</g>
<!-- furniture.legend&#45;&gt;attr_4 -->
<g id="edge6" class="edge">
<title>furniture.legend&#45;&gt;attr_4</title>
<path fill="none" stroke="#aaaaaa" d="M56.44,-89.13C67.93,-91.76 82,-94.97 96.36,-98.25"/>
<polygon fill="#aaaaaa" stroke="#aaaaaa" points="95.51,-100.57 102.88,-99.74 96.6,-95.8 95.51,-100.57"/>
</g>
<!-- rel_3 -->
<g id="node16" class="node">
<title>rel_3</title>
<path fill="#f5b8b8" stroke="#d46a6a" stroke-width="1.2" d="M198.75,-69C198.75,-69 151.25,-69 151.25,-69 145.25,-69 139.25,-63 139.25,-57 139.25,-57 139.25,-45 139.25,-45 139.25,-39 145.25,-33 151.25,-33 151.25,-33 198.75,-33 198.75,-33 204.75,-33 210.75,-39 210.75,-45 210.75,-45 210.75,-57 210.75,-57 210.75,-63 204.75,-69 198.75,-69"/>
<text xml:space="preserve" text-anchor="middle" x="175" y="-47.5" font-family="Arial" font-size="10.00" fill="#8b0000">differentiates</text>
</g>
<!-- furniture.legend&#45;&gt;rel_3 -->
<g id="edge13" class="edge">
<title>furniture.legend&#45;&gt;rel_3</title>
<path fill="none" stroke="#d46a6a" stroke-width="1.5" d="M56.44,-77.06C76.78,-72.55 105.19,-66.25 128.99,-60.98"/>
<polygon fill="#d46a6a" stroke="#d46a6a" stroke-width="1.5" points="129.45,-63.74 136.66,-59.28 128.24,-58.27 129.45,-63.74"/>
</g>
<!-- rel_0&#45;&gt;unknown.crop_production_data -->
<g id="edge8" class="edge">
<title>rel_0&#45;&gt;unknown.crop_production_data</title>
<path fill="none" stroke="#d46a6a" stroke-width="1.5" d="M519.89,-206.72C538.56,-202.82 563.23,-197.68 585.93,-192.94"/>
<polygon fill="#d46a6a" stroke="#d46a6a" stroke-width="1.5" points="586.37,-195.71 593.63,-191.34 585.23,-190.23 586.37,-195.71"/>
</g>
<!-- rel_1&#45;&gt;unknown.crop_production_data -->
<g id="edge10" class="edge">
<title>rel_1&#45;&gt;unknown.crop_production_data</title>
<path fill="none" stroke="#d46a6a" stroke-width="1.5" d="M528.8,-101.43C537.15,-105.68 545.84,-110.32 553.75,-115 574.63,-127.34 597.02,-142.68 614.74,-155.37"/>
<polygon fill="#d46a6a" stroke="#d46a6a" stroke-width="1.5" points="613.07,-157.61 621.19,-160.02 616.34,-153.07 613.07,-157.61"/>
</g>
<!-- rel_2&#45;&gt;mark.bar -->
<g id="edge12" class="edge">
<title>rel_2&#45;&gt;mark.bar</title>
<path fill="none" stroke="#d46a6a" stroke-width="1.5" d="M1100.57,-262.54C1042.69,-266.82 918.37,-275 813.25,-275 648,-275 648,-275 648,-275 547.5,-275 521.18,-270.62 423.75,-246 406.8,-241.72 388.65,-235.08 373.41,-228.87"/>
<polygon fill="#d46a6a" stroke="#d46a6a" stroke-width="1.5" points="374.89,-226.45 366.43,-225.96 372.73,-231.62 374.89,-226.45"/>
</g>
<!-- rel_3&#45;&gt;unknown.time_comparison -->
<g id="edge14" class="edge">
<title>rel_3&#45;&gt;unknown.time_comparison</title>
<path fill="none" stroke="#d46a6a" stroke-width="1.5" d="M211.06,-51C231.78,-51 258.45,-51 281.81,-51"/>
<polygon fill="#d46a6a" stroke="#d46a6a" stroke-width="1.5" points="281.65,-53.8 289.65,-51 281.65,-48.2 281.65,-53.8"/>
</g>
<!-- rel_4&#45;&gt;unknown.country_region_label -->
<g id="edge16" class="edge">
<title>rel_4&#45;&gt;unknown.country_region_label</title>
<path fill="none" stroke="#d46a6a" stroke-width="1.5" d="M880.84,-154.79C891.4,-155.85 902.25,-156.94 912.63,-157.98"/>
<polygon fill="#d46a6a" stroke="#d46a6a" stroke-width="1.5" points="912.32,-160.76 920.56,-158.77 912.88,-155.19 912.32,-160.76"/>
</g>
</g>
</svg>
