<?xml version="1.0" encoding="UTF-8" standalone="no"?>
<!DOCTYPE svg PUBLIC "-//W3C//DTD SVG 1.1//EN"
 "http://www.w3.org/Graphics/SVG/1.1/DTD/svg11.dtd">
<!-- Generated by graphviz version 14.1.5 (20260411.2331)
 -->
<!-- Title: wsj21.png Pages: 1 -->
<svg width="856pt" height="375pt"
 viewBox="0.00 0.00 856.00 375.00" xmlns="http://www.w3.org/2000/svg" xmlns:xlink="http://www.w3.org/1999/xlink">
<g id="graph0" class="graph" transform="scale(1 1) rotate(0) translate(4 371.25)">
<title>wsj21.png</title>
<polygon fill="white" stroke="none" points="-4,4 -4,-371.25 852,-371.25 852,4 -4,4"/>
<text xml:space="preserve" text-anchor="start" x="391" y="-346.95" font-family="Arial" font-weight="bold" font-size="14.00">wsj21.png</text>
<text xml:space="preserve" text-anchor="start" x="380.12" y="-327" font-family="Arial" font-size="11.00">Area &#160;| &#160;VC = 0.63</text>
<path fill="#b8e6b8" stroke="none" d="M214.62,-302C214.62,-302 222.62,-302 222.62,-302 225.62,-302 228.62,-305 228.62,-308 228.62,-308 228.62,-314 228.62,-314 228.62,-317 225.62,-320 222.62,-320 222.62,-320 214.62,-320 214.62,-320 211.62,-320 208.62,-317 208.62,-314 208.62,-314 208.62,-308 208.62,-308 208.62,-305 211.62,-302 214.62,-302"/>
<path fill="none" stroke="black" d="M214.62,-302C214.62,-302 222.62,-302 222.62,-302 225.62,-302 228.62,-305 228.62,-308 228.62,-308 228.62,-314 228.62,-314 228.62,-317 225.62,-320 222.62,-320 222.62,-320 214.62,-320 214.62,-320 211.62,-320 208.62,-317 208.62,-314 208.62,-314 208.62,-308 208.62,-308 208.62,-305 211.62,-302 214.62,-302"/>
<text xml:space="preserve" text-anchor="start" x="217.12" y="-307.25" font-family="Arial" font-size="10.00"> </text>
<text xml:space="preserve" text-anchor="start" x="232.62" y="-307.25" font-family="Arial" font-size="10.00">Object</text>
<path fill="#c7b8e6" stroke="none" d="M271.12,-302C271.12,-302 279.12,-302 279.12,-302 282.12,-302 285.12,-305 285.12,-308 285.12,-308 285.12,-314 285.12,-314 285.12,-317 282.12,-320 279.12,-320 279.12,-320 271.12,-320 271.12,-320 268.12,-320 265.12,-317 265.12,-314 265.12,-314 265.12,-308 265.12,-308 265.12,-305 268.12,-302 271.12,-302"/>
<path fill="none" stroke="black" d="M271.12,-302C271.12,-302 279.12,-302 279.12,-302 282.12,-302 285.12,-305 285.12,-308 285.12,-308 285.12,-314 285.12,-314 285.12,-317 282.12,-320 279.12,-320 279.12,-320 271.12,-320 271.12,-320 268.12,-320 265.12,-317 265.12,-314 265.12,-314 265.12,-308 265.12,-308 265.12,-305 268.12,-302 271.12,-302"/>
<text xml:space="preserve" text-anchor="start" x="273.62" y="-307.25" font-family="Arial" font-size="10.00"> </text>
<text xml:space="preserve" text-anchor="start" x="289.12" y="-307.25" font-family="Arial" font-size="10.00">Attribute</text>
<path fill="#f5b8b8" stroke="none" d="M335.88,-302C335.88,-302 343.88,-302 343.88,-302 346.88,-302 349.88,-305 349.88,-308 349.88,-308 349.88,-314 349.88,-314 349.88,-317 346.88,-320 343.88,-320 343.88,-320 335.88,-320 335.88,-320 332.88,-320 329.88,-317 329.88,-314 329.88,-314 329.88,-308 329.88,-308 329.88,-305 332.88,-302 335.88,-302"/>
<path fill="none" stroke="black" d="M335.88,-302C335.88,-302 343.88,-302 343.88,-302 346.88,-302 349.88,-305 349.88,-308 349.88,-308 349.88,-314 349.88,-314 349.88,-317 346.88,-320 343.88,-320 343.88,-320 335.88,-320 335.88,-320 332.88,-320 329.88,-317 329.88,-314 329.88,-314 329.88,-308 329.88,-308 329.88,-305 332.88,-302 335.88,-302"/>
<text xml:space="preserve" text-anchor="start" x="338.38" y="-307.25" font-family="Arial" font-size="10.00"> </text>
<text xml:space="preserve" text-anchor="start" x="353.88" y="-307.25" font-family="Arial" font-size="10.00">Relationship</text>
<text xml:space="preserve" text-anchor="start" x="413.88" y="-308.5" font-family="Arial" font-weight="bold" font-size="10.00">(+)</text>
<text xml:space="preserve" text-anchor="start" x="425.88" y="-308.5" font-family="Arial" font-size="10.00"> increases complexity</text>
<text xml:space="preserve" text-anchor="start" x="527.12" y="-308.5" font-family="Arial" font-weight="bold" font-size="10.00">(−)</text>
<text xml:space="preserve" text-anchor="start" x="539.12" y="-308.5" font-family="Arial" font-size="10.00"> decreases complexity</text>
<!-- mark.area -->
<g id="node1" class="node">
<title>mark.area</title>
<path fill="#b8e6b8" stroke="#2c3e50" stroke-width="1.8" d="M353.75,-166C353.75,-166 313,-166 313,-166 307,-166 301,-160 301,-154 301,-154 301,-142 301,-142 301,-136 307,-130 313,-130 313,-130 353.75,-130 353.75,-130 359.75,-130 365.75,-136 365.75,-142 365.75,-142 365.75,-154 365.75,-154 365.75,-160 359.75,-166 353.75,-166"/>
<text xml:space="preserve" text-anchor="middle" x="333.38" y="-144.5" font-family="Arial" font-size="10.00" fill="#1a1a1a">area marks</text>
</g>
<!-- attr_0 -->
<g id="node5" class="node">
<title>attr_0</title>
<path fill="#c7b8e6" stroke="#7f8c8d" stroke-width="1.2" d="M532.75,-296C532.75,-296 420.75,-296 420.75,-296 414.75,-296 408.75,-290 408.75,-284 408.75,-284 408.75,-272 408.75,-272 408.75,-266 414.75,-260 420.75,-260 420.75,-260 532.75,-260 532.75,-260 538.75,-260 544.75,-266 544.75,-272 544.75,-272 544.75,-284 544.75,-284 544.75,-290 538.75,-296 532.75,-296"/>
<text xml:space="preserve" text-anchor="middle" x="476.75" y="-274.5" font-family="Arial" font-size="10.00" fill="#1a1a1a">(+) multiple visual elements</text>
</g>
<!-- mark.area&#45;&gt;attr_0 -->
<g id="edge1" class="edge">
<title>mark.area&#45;&gt;attr_0</title>
<path fill="none" stroke="#aaaaaa" d="M344.84,-166.75C357.59,-188.21 380.93,-223.34 408.75,-246 412.82,-249.31 417.28,-252.38 421.92,-255.2"/>
<polygon fill="#aaaaaa" stroke="#aaaaaa" points="420.7,-257.32 428,-258.67 423.13,-253.07 420.7,-257.32"/>
</g>
<!-- attr_5 -->
<g id="node6" class="node">
<title>attr_5</title>
<path fill="#c7b8e6" stroke="#7f8c8d" stroke-width="1.2" d="M529.38,-231C529.38,-231 424.12,-231 424.12,-231 418.12,-231 412.12,-225 412.12,-219 412.12,-219 412.12,-207 412.12,-207 412.12,-201 418.12,-195 424.12,-195 424.12,-195 529.38,-195 529.38,-195 535.38,-195 541.38,-201 541.38,-207 541.38,-207 541.38,-219 541.38,-219 541.38,-225 535.38,-231 529.38,-231"/>
<text xml:space="preserve" text-anchor="middle" x="476.75" y="-209.5" font-family="Arial" font-size="10.00" fill="#1a1a1a">(+) requires analysis effort</text>
</g>
<!-- mark.area&#45;&gt;attr_5 -->
<g id="edge2" class="edge">
<title>mark.area&#45;&gt;attr_5</title>
<path fill="none" stroke="#aaaaaa" d="M366.46,-162.75C384.59,-171.09 407.61,-181.67 427.84,-190.97"/>
<polygon fill="#aaaaaa" stroke="#aaaaaa" points="426.68,-193.14 434.07,-193.84 428.73,-188.69 426.68,-193.14"/>
</g>
<!-- rel_4 -->
<g id="node15" class="node">
<title>rel_4</title>
<path fill="#f5b8b8" stroke="#d46a6a" stroke-width="1.2" d="M499,-166C499,-166 454.5,-166 454.5,-166 448.5,-166 442.5,-160 442.5,-154 442.5,-154 442.5,-142 442.5,-142 442.5,-136 448.5,-130 454.5,-130 454.5,-130 499,-130 499,-130 505,-130 511,-136 511,-142 511,-142 511,-154 511,-154 511,-160 505,-166 499,-166"/>
<text xml:space="preserve" text-anchor="middle" x="476.75" y="-144.5" font-family="Arial" font-size="10.00" fill="#8b0000">overwhelms</text>
</g>
<!-- mark.area&#45;&gt;rel_4 -->
<g id="edge17" class="edge">
<title>mark.area&#45;&gt;rel_4</title>
<path fill="none" stroke="#d46a6a" stroke-width="1.5" d="M366.46,-148C385.92,-148 411.01,-148 432.25,-148"/>
<polygon fill="#d46a6a" stroke="#d46a6a" stroke-width="1.5" points="432.05,-150.8 440.05,-148 432.05,-145.2 432.05,-150.8"/>
</g>
<!-- furniture.legend -->
<g id="node2" class="node">
<title>furniture.legend</title>
<path fill="#b8e6b8" stroke="#2c3e50" stroke-width="1.8" d="M636.75,-169C636.75,-169 599.75,-169 599.75,-169 593.75,-169 587.75,-163 587.75,-157 587.75,-157 587.75,-145 587.75,-145 587.75,-139 593.75,-133 599.75,-133 599.75,-133 636.75,-133 636.75,-133 642.75,-133 648.75,-139 648.75,-145 648.75,-145 648.75,-157 648.75,-157 648.75,-163 642.75,-169 636.75,-169"/>
<text xml:space="preserve" text-anchor="middle" x="618.25" y="-147.5" font-family="Arial" font-size="10.00" fill="#1a1a1a">color code</text>
</g>
<!-- attr_1 -->
<g id="node7" class="node">
<title>attr_1</title>
<path fill="#c7b8e6" stroke="#7f8c8d" stroke-width="1.2" d="M822.88,-234C822.88,-234 716.88,-234 716.88,-234 710.88,-234 704.88,-228 704.88,-222 704.88,-222 704.88,-210 704.88,-210 704.88,-204 710.88,-198 716.88,-198 716.88,-198 822.88,-198 822.88,-198 828.88,-198 834.88,-204 834.88,-210 834.88,-210 834.88,-222 834.88,-222 834.88,-228 828.88,-234 822.88,-234"/>
<text xml:space="preserve" text-anchor="middle" x="769.88" y="-212.5" font-family="Arial" font-size="10.00" fill="#1a1a1a">(−) aids data interpretation</text>
</g>
<!-- furniture.legend&#45;&gt;attr_1 -->
<g id="edge3" class="edge">
<title>furniture.legend&#45;&gt;attr_1</title>
<path fill="none" stroke="#aaaaaa" d="M649.48,-151.69C662.45,-156.49 677.8,-163.43 691.75,-169.5 709.23,-177.1 729.1,-185.34 744.29,-193.51"/>
<polygon fill="#aaaaaa" stroke="#aaaaaa" points="742.73,-195.44 750.03,-196.77 745.15,-191.18 742.73,-195.44"/>
</g>
<!-- furniture.legend&#45;&gt;attr_1 -->
<g id="edge7" class="edge">
<title>furniture.legend&#45;&gt;attr_1</title>
<path fill="none" stroke="#aaaaaa" d="M635.31,-169.84C649.95,-179.79 672.22,-190.01 691.75,-198.5 693.42,-199.23 695.12,-199.96 696.83,-200.7"/>
<polygon fill="#aaaaaa" stroke="#aaaaaa" points="695.63,-202.85 703.03,-203.33 697.54,-198.34 695.63,-202.85"/>
</g>
<!-- attr_4 -->
<g id="node8" class="node">
<title>attr_4</title>
<path fill="#c7b8e6" stroke="#7f8c8d" stroke-width="1.2" d="M836,-169C836,-169 703.75,-169 703.75,-169 697.75,-169 691.75,-163 691.75,-157 691.75,-157 691.75,-145 691.75,-145 691.75,-139 697.75,-133 703.75,-133 703.75,-133 836,-133 836,-133 842,-133 848,-139 848,-145 848,-145 848,-157 848,-157 848,-163 842,-169 836,-169"/>
<text xml:space="preserve" text-anchor="middle" x="769.88" y="-147.5" font-family="Arial" font-size="10.00" fill="#1a1a1a">(−) differentiates data categories</text>
</g>
<!-- furniture.legend&#45;&gt;attr_4 -->
<g id="edge4" class="edge">
<title>furniture.legend&#45;&gt;attr_4</title>
<path fill="none" stroke="#aaaaaa" d="M649.53,-142.06C659.45,-141.07 671.01,-140.46 682.97,-140.23"/>
<polygon fill="#aaaaaa" stroke="#aaaaaa" points="682.8,-142.68 689.77,-140.15 682.74,-137.78 682.8,-142.68"/>
</g>
<!-- furniture.legend&#45;&gt;attr_4 -->
<g id="edge8" class="edge">
<title>furniture.legend&#45;&gt;attr_4</title>
<path fill="none" stroke="#aaaaaa" d="M649.53,-159.94C659.45,-160.93 671.01,-161.54 682.97,-161.77"/>
<polygon fill="#aaaaaa" stroke="#aaaaaa" points="682.74,-164.22 689.77,-161.85 682.8,-159.32 682.74,-164.22"/>
</g>
<!-- rel_0 -->
<g id="node11" class="node">
<title>rel_0</title>
<path fill="#f5b8b8" stroke="#d46a6a" stroke-width="1.2" d="M809.75,-104C809.75,-104 730,-104 730,-104 724,-104 718,-98 718,-92 718,-92 718,-80 718,-80 718,-74 724,-68 730,-68 730,-68 809.75,-68 809.75,-68 815.75,-68 821.75,-74 821.75,-80 821.75,-80 821.75,-92 821.75,-92 821.75,-98 815.75,-104 809.75,-104"/>
<text xml:space="preserve" text-anchor="middle" x="769.88" y="-82.5" font-family="Arial" font-size="10.00" fill="#8b0000">facilitates reading of</text>
</g>
<!-- furniture.legend&#45;&gt;rel_0 -->
<g id="edge9" class="edge">
<title>furniture.legend&#45;&gt;rel_0</title>
<path fill="none" stroke="#d46a6a" stroke-width="1.5" d="M649.55,-137.53C662.53,-131.79 677.87,-125.03 691.75,-119 699.53,-115.62 707.75,-112.07 715.83,-108.6"/>
<polygon fill="#d46a6a" stroke="#d46a6a" stroke-width="1.5" points="716.86,-111.21 723.11,-105.48 714.65,-106.06 716.86,-111.21"/>
</g>
<!-- rel_1 -->
<g id="node12" class="node">
<title>rel_1</title>
<path fill="#f5b8b8" stroke="#d46a6a" stroke-width="1.2" d="M792.12,-39C792.12,-39 747.62,-39 747.62,-39 741.62,-39 735.62,-33 735.62,-27 735.62,-27 735.62,-15 735.62,-15 735.62,-9 741.62,-3 747.62,-3 747.62,-3 792.12,-3 792.12,-3 798.12,-3 804.12,-9 804.12,-15 804.12,-15 804.12,-27 804.12,-27 804.12,-33 798.12,-39 792.12,-39"/>
<text xml:space="preserve" text-anchor="middle" x="769.88" y="-17.5" font-family="Arial" font-size="10.00" fill="#8b0000">encodes via</text>
</g>
<!-- furniture.legend&#45;&gt;rel_1 -->
<g id="edge11" class="edge">
<title>furniture.legend&#45;&gt;rel_1</title>
<path fill="none" stroke="#d46a6a" stroke-width="1.5" d="M628.92,-132.37C641,-110.68 663.57,-75.03 691.75,-53 701.84,-45.11 714.16,-38.85 725.96,-34.04"/>
<polygon fill="#d46a6a" stroke="#d46a6a" stroke-width="1.5" points="726.66,-36.77 733.14,-31.3 724.67,-31.54 726.66,-36.77"/>
</g>
<!-- text.axis_label -->
<g id="node3" class="node">
<title>text.axis_label</title>
<path fill="#b8e6b8" stroke="#2c3e50" stroke-width="1.8" d="M47.12,-69C47.12,-69 13.88,-69 13.88,-69 7.88,-69 1.88,-63 1.88,-57 1.88,-57 1.88,-45 1.88,-45 1.88,-39 7.88,-33 13.88,-33 13.88,-33 47.12,-33 47.12,-33 53.12,-33 59.12,-39 59.12,-45 59.12,-45 59.12,-57 59.12,-57 59.12,-63 53.12,-69 47.12,-69"/>
<text xml:space="preserve" text-anchor="middle" x="30.5" y="-47.5" font-family="Arial" font-size="10.00" fill="#1a1a1a">axis label</text>
</g>
<!-- attr_2 -->
<g id="node9" class="node">
<title>attr_2</title>
<path fill="#c7b8e6" stroke="#7f8c8d" stroke-width="1.2" d="M242.25,-36C242.25,-36 119.75,-36 119.75,-36 113.75,-36 107.75,-30 107.75,-24 107.75,-24 107.75,-12 107.75,-12 107.75,-6 113.75,0 119.75,0 119.75,0 242.25,0 242.25,0 248.25,0 254.25,-6 254.25,-12 254.25,-12 254.25,-24 254.25,-24 254.25,-30 248.25,-36 242.25,-36"/>
<text xml:space="preserve" text-anchor="middle" x="181" y="-14.5" font-family="Arial" font-size="10.00" fill="#1a1a1a">(−) provides reference context</text>
</g>
<!-- text.axis_label&#45;&gt;attr_2 -->
<g id="edge5" class="edge">
<title>text.axis_label&#45;&gt;attr_2</title>
<path fill="none" stroke="#aaaaaa" d="M59.78,-44.72C71.28,-42.16 85.21,-39.06 99.45,-35.9"/>
<polygon fill="#aaaaaa" stroke="#aaaaaa" points="99.6,-38.38 105.91,-34.47 98.54,-33.59 99.6,-38.38"/>
</g>
<!-- rel_3 -->
<g id="node14" class="node">
<title>rel_3</title>
<path fill="#f5b8b8" stroke="#d46a6a" stroke-width="1.2" d="M198.75,-101C198.75,-101 163.25,-101 163.25,-101 157.25,-101 151.25,-95 151.25,-89 151.25,-89 151.25,-77 151.25,-77 151.25,-71 157.25,-65 163.25,-65 163.25,-65 198.75,-65 198.75,-65 204.75,-65 210.75,-71 210.75,-77 210.75,-77 210.75,-89 210.75,-89 210.75,-95 204.75,-101 198.75,-101"/>
<text xml:space="preserve" text-anchor="middle" x="181" y="-79.5" font-family="Arial" font-size="10.00" fill="#8b0000">structures</text>
</g>
<!-- text.axis_label&#45;&gt;rel_3 -->
<g id="edge15" class="edge">
<title>text.axis_label&#45;&gt;rel_3</title>
<path fill="none" stroke="#d46a6a" stroke-width="1.5" d="M59.78,-57.09C82.81,-62.06 115.57,-69.12 141.08,-74.61"/>
<polygon fill="#d46a6a" stroke="#d46a6a" stroke-width="1.5" points="140.18,-77.28 148.59,-76.23 141.36,-71.81 140.18,-77.28"/>
</g>
<!-- text.annotation -->
<g id="node4" class="node">
<title>text.annotation</title>
<path fill="#b8e6b8" stroke="#2c3e50" stroke-width="1.8" d="M49,-198C49,-198 12,-198 12,-198 6,-198 0,-192 0,-186 0,-186 0,-174 0,-174 0,-168 6,-162 12,-162 12,-162 49,-162 49,-162 55,-162 61,-168 61,-174 61,-174 61,-186 61,-186 61,-192 55,-198 49,-198"/>
<text xml:space="preserve" text-anchor="middle" x="30.5" y="-176.5" font-family="Arial" font-size="10.00" fill="#1a1a1a">annotation</text>
</g>
<!-- attr_3 -->
<g id="node10" class="node">
<title>attr_3</title>
<path fill="#c7b8e6" stroke="#7f8c8d" stroke-width="1.2" d="M246,-166C246,-166 116,-166 116,-166 110,-166 104,-160 104,-154 104,-154 104,-142 104,-142 104,-136 110,-130 116,-130 116,-130 246,-130 246,-130 252,-130 258,-136 258,-142 258,-142 258,-154 258,-154 258,-160 252,-166 246,-166"/>
<text xml:space="preserve" text-anchor="middle" x="181" y="-144.5" font-family="Arial" font-size="10.00" fill="#1a1a1a">(−) supports data understanding</text>
</g>
<!-- text.annotation&#45;&gt;attr_3 -->
<g id="edge6" class="edge">
<title>text.annotation&#45;&gt;attr_3</title>
<path fill="none" stroke="#aaaaaa" d="M61.55,-173.52C71.63,-171.35 83.42,-168.81 95.58,-166.19"/>
<polygon fill="#aaaaaa" stroke="#aaaaaa" points="95.81,-168.65 102.13,-164.78 94.77,-163.86 95.81,-168.65"/>
</g>
<!-- rel_2 -->
<g id="node13" class="node">
<title>rel_2</title>
<path fill="#f5b8b8" stroke="#d46a6a" stroke-width="1.2" d="M219.38,-231C219.38,-231 142.62,-231 142.62,-231 136.62,-231 130.62,-225 130.62,-219 130.62,-219 130.62,-207 130.62,-207 130.62,-201 136.62,-195 142.62,-195 142.62,-195 219.38,-195 219.38,-195 225.38,-195 231.38,-201 231.38,-207 231.38,-207 231.38,-219 231.38,-219 231.38,-225 225.38,-231 219.38,-231"/>
<text xml:space="preserve" text-anchor="middle" x="181" y="-209.5" font-family="Arial" font-size="10.00" fill="#8b0000">clarifies meaning of</text>
</g>
<!-- text.annotation&#45;&gt;rel_2 -->
<g id="edge13" class="edge">
<title>text.annotation&#45;&gt;rel_2</title>
<path fill="none" stroke="#d46a6a" stroke-width="1.5" d="M61.55,-186.68C78.45,-190.43 100.15,-195.25 120.35,-199.74"/>
<polygon fill="#d46a6a" stroke="#d46a6a" stroke-width="1.5" points="119.48,-202.42 127.9,-201.42 120.69,-196.95 119.48,-202.42"/>
</g>
<!-- rel_0&#45;&gt;mark.area -->
<g id="edge10" class="edge">
<title>rel_0&#45;&gt;mark.area</title>
<path fill="none" stroke="#d46a6a" stroke-width="1.5" d="M717.6,-84.76C646.94,-84.26 516.2,-87.68 408.75,-115 397.74,-117.8 386.32,-122.09 375.82,-126.67"/>
<polygon fill="#d46a6a" stroke="#d46a6a" stroke-width="1.5" points="374.67,-124.12 368.54,-129.98 376.98,-129.21 374.67,-124.12"/>
</g>
<!-- rel_1&#45;&gt;mark.area -->
<g id="edge12" class="edge">
<title>rel_1&#45;&gt;mark.area</title>
<path fill="none" stroke="#d46a6a" stroke-width="1.5" d="M735.14,-21.43C669.27,-23.45 520.29,-33.93 408.75,-86 389.99,-94.76 372.06,-109.45 358.51,-122.33"/>
<polygon fill="#d46a6a" stroke="#d46a6a" stroke-width="1.5" points="356.82,-120.06 353.07,-127.66 360.74,-124.05 356.82,-120.06"/>
</g>
<!-- rel_2&#45;&gt;mark.area -->
<g id="edge14" class="edge">
<title>rel_2&#45;&gt;mark.area</title>
<path fill="none" stroke="#d46a6a" stroke-width="1.5" d="M226.27,-194.53C236.69,-190.13 247.75,-185.43 258,-181 268.73,-176.36 280.3,-171.27 291.04,-166.51"/>
<polygon fill="#d46a6a" stroke="#d46a6a" stroke-width="1.5" points="291.97,-169.16 298.14,-163.35 289.7,-164.04 291.97,-169.16"/>
</g>
<!-- rel_3&#45;&gt;mark.area -->
<g id="edge16" class="edge">
<title>rel_3&#45;&gt;mark.area</title>
<path fill="none" stroke="#d46a6a" stroke-width="1.5" d="M211.29,-95.18C225.43,-101.1 242.63,-108.35 258,-115 268.73,-119.64 280.3,-124.73 291.04,-129.49"/>
<polygon fill="#d46a6a" stroke="#d46a6a" stroke-width="1.5" points="289.7,-131.96 298.14,-132.65 291.97,-126.84 289.7,-131.96"/>
</g>
<!-- rel_4&#45;&gt;furniture.legend -->
<g id="edge18" class="edge">
<title>rel_4&#45;&gt;furniture.legend</title>
<path fill="none" stroke="#d46a6a" stroke-width="1.5" d="M511.52,-148.73C531.25,-149.15 556.26,-149.69 577.01,-150.13"/>
<polygon fill="#d46a6a" stroke="#d46a6a" stroke-width="1.5" points="576.79,-152.93 584.84,-150.3 576.91,-147.33 576.79,-152.93"/>
</g>
</g>
</svg>
