<?xml version="1.0" encoding="UTF-8" standalone="no"?>
<!DOCTYPE svg PUBLIC "-//W3C//DTD SVG 1.1//EN"
 "http://www.w3.org/Graphics/SVG/1.1/DTD/svg11.dtd">
<!-- Generated by graphviz version 14.1.5 (20260411.2331)
 -->
<!-- Title: wsj299.png Pages: 1 -->
<svg width="804pt" height="372pt"
 viewBox="0.00 0.00 804.00 372.00" xmlns="http://www.w3.org/2000/svg" xmlns:xlink="http://www.w3.org/1999/xlink">
<g id="graph0" class="graph" transform="scale(1 1) rotate(0) translate(4 368.25)">
<title>wsj299.png</title>
<polygon fill="white" stroke="none" points="-4,4 -4,-368.25 800,-368.25 800,4 -4,4"/>
<text xml:space="preserve" text-anchor="start" x="361.25" y="-343.95" font-family="Arial" font-weight="bold" font-size="14.00">wsj299.png</text>
<text xml:space="preserve" text-anchor="start" x="357.12" y="-324" font-family="Arial" font-size="11.00">Bar &#160;| &#160;VC = 0.62</text>
<path fill="#b8e6b8" stroke="none" d="M188.62,-299C188.62,-299 196.62,-299 196.62,-299 199.62,-299 202.62,-302 202.62,-305 202.62,-305 202.62,-311 202.62,-311 202.62,-314 199.62,-317 196.62,-317 196.62,-317 188.62,-317 188.62,-317 185.62,-317 182.62,-314 182.62,-311 182.62,-311 182.62,-305 182.62,-305 182.62,-302 185.62,-299 188.62,-299"/>
<path fill="none" stroke="black" d="M188.62,-299C188.62,-299 196.62,-299 196.62,-299 199.62,-299 202.62,-302 202.62,-305 202.62,-305 202.62,-311 202.62,-311 202.62,-314 199.62,-317 196.62,-317 196.62,-317 188.62,-317 188.62,-317 185.62,-317 182.62,-314 182.62,-311 182.62,-311 182.62,-305 182.62,-305 182.62,-302 185.62,-299 188.62,-299"/>
<text xml:space="preserve" text-anchor="start" x="191.12" y="-304.25" font-family="Arial" font-size="10.00"> </text>
<text xml:space="preserve" text-anchor="start" x="206.62" y="-304.25" font-family="Arial" font-size="10.00">Object</text>
<path fill="#c7b8e6" stroke="none" d="M245.12,-299C245.12,-299 253.12,-299 253.12,-299 256.12,-299 259.12,-302 259.12,-305 259.12,-305 259.12,-311 259.12,-311 259.12,-314 256.12,-317 253.12,-317 253.12,-317 245.12,-317 245.12,-317 242.12,-317 239.12,-314 239.12,-311 239.12,-311 239.12,-305 239.12,-305 239.12,-302 242.12,-299 245.12,-299"/>
<path fill="none" stroke="black" d="M245.12,-299C245.12,-299 253.12,-299 253.12,-299 256.12,-299 259.12,-302 259.12,-305 259.12,-305 259.12,-311 259.12,-311 259.12,-314 256.12,-317 253.12,-317 253.12,-317 245.12,-317 245.12,-317 242.12,-317 239.12,-314 239.12,-311 239.12,-311 239.12,-305 239.12,-305 239.12,-302 242.12,-299 245.12,-299"/>
<text xml:space="preserve" text-anchor="start" x="247.62" y="-304.25" font-family="Arial" font-size="10.00"> </text>
<text xml:space="preserve" text-anchor="start" x="263.12" y="-304.25" font-family="Arial" font-size="10.00">Attribute</text>
<path fill="#f5b8b8" stroke="none" d="M309.88,-299C309.88,-299 317.88,-299 317.88,-299 320.88,-299 323.88,-302 323.88,-305 323.88,-305 323.88,-311 323.88,-311 323.88,-314 320.88,-317 317.88,-317 317.88,-317 309.88,-317 309.88,-317 306.88,-317 303.88,-314 303.88,-311 303.88,-311 303.88,-305 303.88,-305 303.88,-302 306.88,-299 309.88,-299"/>
<path fill="none" stroke="black" d="M309.88,-299C309.88,-299 317.88,-299 317.88,-299 320.88,-299 323.88,-302 323.88,-305 323.88,-305 323.88,-311 323.88,-311 323.88,-314 320.88,-317 317.88,-317 317.88,-317 309.88,-317 309.88,-317 306.88,-317 303.88,-314 303.88,-311 303.88,-311 303.88,-305 303.88,-305 303.88,-302 306.88,-299 309.88,-299"/>
<text xml:space="preserve" text-anchor="start" x="312.38" y="-304.25" font-family="Arial" font-size="10.00"> </text>
<text xml:space="preserve" text-anchor="start" x="327.88" y="-304.25" font-family="Arial" font-size="10.00">Relationship</text>
<text xml:space="preserve" text-anchor="start" x="387.88" y="-305.5" font-family="Arial" font-weight="bold" font-size="10.00">(+)</text>
<text xml:space="preserve" text-anchor="start" x="399.88" y="-305.5" font-family="Arial" font-size="10.00"> increases complexity</text>
<text xml:space="preserve" text-anchor="start" x="501.12" y="-305.5" font-family="Arial" font-weight="bold" font-size="10.00">(−)</text>
<text xml:space="preserve" text-anchor="start" x="513.12" y="-305.5" font-family="Arial" font-size="10.00"> decreases complexity</text>
<!-- mark.bar -->
<g id="node1" class="node">
<title>mark.bar</title>
<path fill="#b8e6b8" stroke="#2c3e50" stroke-width="1.8" d="M617,-98C617,-98 587,-98 587,-98 581,-98 575,-92 575,-86 575,-86 575,-74 575,-74 575,-68 581,-62 587,-62 587,-62 617,-62 617,-62 623,-62 629,-68 629,-74 629,-74 629,-86 629,-86 629,-92 623,-98 617,-98"/>
<text xml:space="preserve" text-anchor="middle" x="602" y="-76.5" font-family="Arial" font-size="10.00" fill="#1a1a1a">bar</text>
</g>
<!-- attr_3 -->
<g id="node6" class="node">
<title>attr_3</title>
<path fill="#c7b8e6" stroke="#7f8c8d" stroke-width="1.2" d="M784,-98C784,-98 684,-98 684,-98 678,-98 672,-92 672,-86 672,-86 672,-74 672,-74 672,-68 678,-62 684,-62 684,-62 784,-62 784,-62 790,-62 796,-68 796,-74 796,-74 796,-86 796,-86 796,-92 790,-98 784,-98"/>
<text xml:space="preserve" text-anchor="middle" x="734" y="-76.5" font-family="Arial" font-size="10.00" fill="#1a1a1a">(+) multiple grouped bars</text>
</g>
<!-- mark.bar&#45;&gt;attr_3 -->
<g id="edge1" class="edge">
<title>mark.bar&#45;&gt;attr_3</title>
<path fill="none" stroke="#aaaaaa" d="M629.62,-80C639.52,-80 651.27,-80 663.23,-80"/>
<polygon fill="#aaaaaa" stroke="#aaaaaa" points="663.02,-82.45 670.02,-80 663.02,-77.55 663.02,-82.45"/>
</g>
<!-- property.color -->
<g id="node2" class="node">
<title>property.color</title>
<path fill="#b8e6b8" stroke="#2c3e50" stroke-width="1.8" d="M43.62,-100C43.62,-100 13.62,-100 13.62,-100 7.62,-100 1.62,-94 1.62,-88 1.62,-88 1.62,-76 1.62,-76 1.62,-70 7.62,-64 13.62,-64 13.62,-64 43.62,-64 43.62,-64 49.62,-64 55.62,-70 55.62,-76 55.62,-76 55.62,-88 55.62,-88 55.62,-94 49.62,-100 43.62,-100"/>
<text xml:space="preserve" text-anchor="middle" x="28.62" y="-78.5" font-family="Arial" font-size="10.00" fill="#1a1a1a">color</text>
</g>
<!-- attr_0 -->
<g id="node7" class="node">
<title>attr_0</title>
<path fill="#c7b8e6" stroke="#7f8c8d" stroke-width="1.2" d="M219.38,-165C219.38,-165 114.88,-165 114.88,-165 108.88,-165 102.88,-159 102.88,-153 102.88,-153 102.88,-141 102.88,-141 102.88,-135 108.88,-129 114.88,-129 114.88,-129 219.38,-129 219.38,-129 225.38,-129 231.38,-135 231.38,-141 231.38,-141 231.38,-153 231.38,-153 231.38,-159 225.38,-165 219.38,-165"/>
<text xml:space="preserve" text-anchor="middle" x="167.12" y="-143.5" font-family="Arial" font-size="10.00" fill="#1a1a1a">(+) multiple distinct colors</text>
</g>
<!-- property.color&#45;&gt;attr_0 -->
<g id="edge2" class="edge">
<title>property.color&#45;&gt;attr_0</title>
<path fill="none" stroke="#aaaaaa" d="M56.27,-94.69C74.23,-103.24 98.42,-114.76 119.52,-124.81"/>
<polygon fill="#aaaaaa" stroke="#aaaaaa" points="118.4,-126.99 125.78,-127.79 120.51,-122.57 118.4,-126.99"/>
</g>
<!-- rel_0 -->
<g id="node11" class="node">
<title>rel_0</title>
<path fill="#f5b8b8" stroke="#d46a6a" stroke-width="1.2" d="M213.75,-100C213.75,-100 120.5,-100 120.5,-100 114.5,-100 108.5,-94 108.5,-88 108.5,-88 108.5,-76 108.5,-76 108.5,-70 114.5,-64 120.5,-64 120.5,-64 213.75,-64 213.75,-64 219.75,-64 225.75,-70 225.75,-76 225.75,-76 225.75,-88 225.75,-88 225.75,-94 219.75,-100 213.75,-100"/>
<text xml:space="preserve" text-anchor="middle" x="167.12" y="-78.5" font-family="Arial" font-size="10.00" fill="#8b0000">increases reading effort</text>
</g>
<!-- property.color&#45;&gt;rel_0 -->
<g id="edge6" class="edge">
<title>property.color&#45;&gt;rel_0</title>
<path fill="none" stroke="#d46a6a" stroke-width="1.5" d="M56.27,-82C68.24,-82 82.99,-82 97.74,-82"/>
<polygon fill="#d46a6a" stroke="#d46a6a" stroke-width="1.5" points="97.65,-84.8 105.65,-82 97.65,-79.2 97.65,-84.8"/>
</g>
<!-- rel_2 -->
<g id="node13" class="node">
<title>rel_2</title>
<path fill="#f5b8b8" stroke="#d46a6a" stroke-width="1.2" d="M333.5,-36C333.5,-36 289,-36 289,-36 283,-36 277,-30 277,-24 277,-24 277,-12 277,-12 277,-6 283,0 289,0 289,0 333.5,0 333.5,0 339.5,0 345.5,-6 345.5,-12 345.5,-12 345.5,-24 345.5,-24 345.5,-30 339.5,-36 333.5,-36"/>
<text xml:space="preserve" text-anchor="middle" x="311.25" y="-14.5" font-family="Arial" font-size="10.00" fill="#8b0000">encodes via</text>
</g>
<!-- property.color&#45;&gt;rel_2 -->
<g id="edge10" class="edge">
<title>property.color&#45;&gt;rel_2</title>
<path fill="none" stroke="#d46a6a" stroke-width="1.5" d="M56.4,-67.24C69.3,-60.72 85.21,-53.52 100.25,-49 156.17,-32.2 223.31,-24.32 266.36,-20.76"/>
<polygon fill="#d46a6a" stroke="#d46a6a" stroke-width="1.5" points="266.48,-23.56 274.24,-20.14 266.04,-17.97 266.48,-23.56"/>
</g>
<!-- furniture.legend -->
<g id="node3" class="node">
<title>furniture.legend</title>
<path fill="#b8e6b8" stroke="#2c3e50" stroke-width="1.8" d="M326.25,-260C326.25,-260 296.25,-260 296.25,-260 290.25,-260 284.25,-254 284.25,-248 284.25,-248 284.25,-236 284.25,-236 284.25,-230 290.25,-224 296.25,-224 296.25,-224 326.25,-224 326.25,-224 332.25,-224 338.25,-230 338.25,-236 338.25,-236 338.25,-248 338.25,-248 338.25,-254 332.25,-260 326.25,-260"/>
<text xml:space="preserve" text-anchor="middle" x="311.25" y="-238.5" font-family="Arial" font-size="10.00" fill="#1a1a1a">legend</text>
</g>
<!-- attr_1 -->
<g id="node8" class="node">
<title>attr_1</title>
<path fill="#c7b8e6" stroke="#7f8c8d" stroke-width="1.2" d="M520,-293C520,-293 400.5,-293 400.5,-293 394.5,-293 388.5,-287 388.5,-281 388.5,-281 388.5,-269 388.5,-269 388.5,-263 394.5,-257 400.5,-257 400.5,-257 520,-257 520,-257 526,-257 532,-263 532,-269 532,-269 532,-281 532,-281 532,-287 526,-293 520,-293"/>
<text xml:space="preserve" text-anchor="middle" x="460.25" y="-271.5" font-family="Arial" font-size="10.00" fill="#1a1a1a">(+) requires cross referencing</text>
</g>
<!-- furniture.legend&#45;&gt;attr_1 -->
<g id="edge3" class="edge">
<title>furniture.legend&#45;&gt;attr_1</title>
<path fill="none" stroke="#aaaaaa" d="M338.87,-247.98C350.6,-250.61 365.06,-253.86 379.84,-257.17"/>
<polygon fill="#aaaaaa" stroke="#aaaaaa" points="379.23,-259.55 386.59,-258.69 380.3,-254.77 379.23,-259.55"/>
</g>
<!-- rel_1 -->
<g id="node12" class="node">
<title>rel_1</title>
<path fill="#f5b8b8" stroke="#d46a6a" stroke-width="1.2" d="M499,-228C499,-228 421.5,-228 421.5,-228 415.5,-228 409.5,-222 409.5,-216 409.5,-216 409.5,-204 409.5,-204 409.5,-198 415.5,-192 421.5,-192 421.5,-192 499,-192 499,-192 505,-192 511,-198 511,-204 511,-204 511,-216 511,-216 511,-222 505,-228 499,-228"/>
<text xml:space="preserve" text-anchor="middle" x="460.25" y="-206.5" font-family="Arial" font-size="10.00" fill="#8b0000">requires mapping to</text>
</g>
<!-- furniture.legend&#45;&gt;rel_1 -->
<g id="edge8" class="edge">
<title>furniture.legend&#45;&gt;rel_1</title>
<path fill="none" stroke="#d46a6a" stroke-width="1.5" d="M338.87,-236.21C355.73,-232.54 378.23,-227.64 399.22,-223.07"/>
<polygon fill="#d46a6a" stroke="#d46a6a" stroke-width="1.5" points="399.6,-225.85 406.82,-221.41 398.41,-220.38 399.6,-225.85"/>
</g>
<!-- text.label -->
<g id="node4" class="node">
<title>text.label</title>
<path fill="#b8e6b8" stroke="#2c3e50" stroke-width="1.8" d="M326.25,-101C326.25,-101 296.25,-101 296.25,-101 290.25,-101 284.25,-95 284.25,-89 284.25,-89 284.25,-77 284.25,-77 284.25,-71 290.25,-65 296.25,-65 296.25,-65 326.25,-65 326.25,-65 332.25,-65 338.25,-71 338.25,-77 338.25,-77 338.25,-89 338.25,-89 338.25,-95 332.25,-101 326.25,-101"/>
<text xml:space="preserve" text-anchor="middle" x="311.25" y="-79.5" font-family="Arial" font-size="10.00" fill="#1a1a1a">text</text>
</g>
<!-- attr_2 -->
<g id="node9" class="node">
<title>attr_2</title>
<path fill="#c7b8e6" stroke="#7f8c8d" stroke-width="1.2" d="M499.75,-163C499.75,-163 420.75,-163 420.75,-163 414.75,-163 408.75,-157 408.75,-151 408.75,-151 408.75,-139 408.75,-139 408.75,-133 414.75,-127 420.75,-127 420.75,-127 499.75,-127 499.75,-127 505.75,-127 511.75,-133 511.75,-139 511.75,-139 511.75,-151 511.75,-151 511.75,-157 505.75,-163 499.75,-163"/>
<text xml:space="preserve" text-anchor="middle" x="460.25" y="-141.5" font-family="Arial" font-size="10.00" fill="#1a1a1a">(+) high text volume</text>
</g>
<!-- text.label&#45;&gt;attr_2 -->
<g id="edge4" class="edge">
<title>text.label&#45;&gt;attr_2</title>
<path fill="none" stroke="#aaaaaa" d="M338.87,-94.23C357.97,-102.29 384.33,-113.4 407.51,-123.18"/>
<polygon fill="#aaaaaa" stroke="#aaaaaa" points="406.44,-125.39 413.84,-125.85 408.34,-120.87 406.44,-125.39"/>
</g>
<!-- rel_3 -->
<g id="node14" class="node">
<title>rel_3</title>
<path fill="#f5b8b8" stroke="#d46a6a" stroke-width="1.2" d="M507.25,-98C507.25,-98 413.25,-98 413.25,-98 407.25,-98 401.25,-92 401.25,-86 401.25,-86 401.25,-74 401.25,-74 401.25,-68 407.25,-62 413.25,-62 413.25,-62 507.25,-62 507.25,-62 513.25,-62 519.25,-68 519.25,-74 519.25,-74 519.25,-86 519.25,-86 519.25,-92 513.25,-98 507.25,-98"/>
<text xml:space="preserve" text-anchor="middle" x="460.25" y="-76.5" font-family="Arial" font-size="10.00" fill="#8b0000">increases analysis load</text>
</g>
<!-- text.label&#45;&gt;rel_3 -->
<g id="edge12" class="edge">
<title>text.label&#45;&gt;rel_3</title>
<path fill="none" stroke="#d46a6a" stroke-width="1.5" d="M338.87,-82.46C353.46,-82.16 372.28,-81.77 390.69,-81.4"/>
<polygon fill="#d46a6a" stroke="#d46a6a" stroke-width="1.5" points="390.63,-84.2 398.57,-81.24 390.51,-78.6 390.63,-84.2"/>
</g>
<!-- text.axis_label -->
<g id="node5" class="node">
<title>text.axis_label</title>
<path fill="#b8e6b8" stroke="#2c3e50" stroke-width="1.8" d="M45.25,-230C45.25,-230 12,-230 12,-230 6,-230 0,-224 0,-218 0,-218 0,-206 0,-206 0,-200 6,-194 12,-194 12,-194 45.25,-194 45.25,-194 51.25,-194 57.25,-200 57.25,-206 57.25,-206 57.25,-218 57.25,-218 57.25,-224 51.25,-230 45.25,-230"/>
<text xml:space="preserve" text-anchor="middle" x="28.62" y="-208.5" font-family="Arial" font-size="10.00" fill="#1a1a1a">axis label</text>
</g>
<!-- attr_4 -->
<g id="node10" class="node">
<title>attr_4</title>
<path fill="#c7b8e6" stroke="#7f8c8d" stroke-width="1.2" d="M222,-230C222,-230 112.25,-230 112.25,-230 106.25,-230 100.25,-224 100.25,-218 100.25,-218 100.25,-206 100.25,-206 100.25,-200 106.25,-194 112.25,-194 112.25,-194 222,-194 222,-194 228,-194 234,-200 234,-206 234,-206 234,-218 234,-218 234,-224 228,-230 222,-230"/>
<text xml:space="preserve" text-anchor="middle" x="167.12" y="-208.5" font-family="Arial" font-size="10.00" fill="#1a1a1a">(+) detailed category labels</text>
</g>
<!-- text.axis_label&#45;&gt;attr_4 -->
<g id="edge5" class="edge">
<title>text.axis_label&#45;&gt;attr_4</title>
<path fill="none" stroke="#aaaaaa" d="M57.91,-212C67.87,-212 79.58,-212 91.56,-212"/>
<polygon fill="#aaaaaa" stroke="#aaaaaa" points="91.36,-214.45 98.36,-212 91.36,-209.55 91.36,-214.45"/>
</g>
<!-- rel_0&#45;&gt;text.label -->
<g id="edge7" class="edge">
<title>rel_0&#45;&gt;text.label</title>
<path fill="none" stroke="#d46a6a" stroke-width="1.5" d="M226.34,-82.41C242.26,-82.52 259.06,-82.64 273.42,-82.74"/>
<polygon fill="#d46a6a" stroke="#d46a6a" stroke-width="1.5" points="273.1,-85.54 281.12,-82.8 273.14,-79.94 273.1,-85.54"/>
</g>
<!-- rel_1&#45;&gt;mark.bar -->
<g id="edge9" class="edge">
<title>rel_1&#45;&gt;mark.bar</title>
<path fill="none" stroke="#d46a6a" stroke-width="1.5" d="M511.2,-191.52C518.57,-187.65 525.77,-183.16 532,-178 555.47,-158.59 574.65,-129.35 586.78,-107.86"/>
<polygon fill="#d46a6a" stroke="#d46a6a" stroke-width="1.5" points="589.22,-109.23 590.6,-100.87 584.31,-106.55 589.22,-109.23"/>
</g>
<!-- rel_2&#45;&gt;mark.bar -->
<g id="edge11" class="edge">
<title>rel_2&#45;&gt;mark.bar</title>
<path fill="none" stroke="#d46a6a" stroke-width="1.5" d="M346.07,-19.17C389.81,-21.43 468,-27.99 532,-47 543.11,-50.3 554.67,-55.18 565.07,-60.19"/>
<polygon fill="#d46a6a" stroke="#d46a6a" stroke-width="1.5" points="563.82,-62.7 572.23,-63.77 566.32,-57.69 563.82,-62.7"/>
</g>
<!-- rel_3&#45;&gt;mark.bar -->
<g id="edge13" class="edge">
<title>rel_3&#45;&gt;mark.bar</title>
<path fill="none" stroke="#d46a6a" stroke-width="1.5" d="M519.71,-80C534.85,-80 550.72,-80 564.38,-80"/>
<polygon fill="#d46a6a" stroke="#d46a6a" stroke-width="1.5" points="564.08,-82.8 572.08,-80 564.08,-77.2 564.08,-82.8"/>
</g>
</g>
</svg>
