<?xml version="1.0" encoding="UTF-8" standalone="no"?>
<!DOCTYPE svg PUBLIC "-//W3C//DTD SVG 1.1//EN"
 "http://www.w3.org/Graphics/SVG/1.1/DTD/svg11.dtd">
<!-- Generated by graphviz version 14.1.5 (20260411.2331)
 -->
<!-- Title: wsj371.png Pages: 1 -->
<svg width="810pt" height="505pt"
 viewBox="0.00 0.00 810.00 505.00" xmlns="http://www.w3.org/2000/svg" xmlns:xlink="http://www.w3.org/1999/xlink">
<g id="graph0" class="graph" transform="scale(1 1) rotate(0) translate(4 501.25)">
<title>wsj371.png</title>
<polygon fill="white" stroke="none" points="-4,4 -4,-501.25 805.75,-501.25 805.75,4 -4,4"/>
<text xml:space="preserve" text-anchor="start" x="364.12" y="-476.95" font-family="Arial" font-weight="bold" font-size="14.00">wsj371.png</text>
<text xml:space="preserve" text-anchor="start" x="358.5" y="-457" font-family="Arial" font-size="11.00">Line &#160;| &#160;VC = 0.41</text>
<path fill="#b8e6b8" stroke="none" d="M191.5,-432C191.5,-432 199.5,-432 199.5,-432 202.5,-432 205.5,-435 205.5,-438 205.5,-438 205.5,-444 205.5,-444 205.5,-447 202.5,-450 199.5,-450 199.5,-450 191.5,-450 191.5,-450 188.5,-450 185.5,-447 185.5,-444 185.5,-444 185.5,-438 185.5,-438 185.5,-435 188.5,-432 191.5,-432"/>
<path fill="none" stroke="black" d="M191.5,-432C191.5,-432 199.5,-432 199.5,-432 202.5,-432 205.5,-435 205.5,-438 205.5,-438 205.5,-444 205.5,-444 205.5,-447 202.5,-450 199.5,-450 199.5,-450 191.5,-450 191.5,-450 188.5,-450 185.5,-447 185.5,-444 185.5,-444 185.5,-438 185.5,-438 185.5,-435 188.5,-432 191.5,-432"/>
<text xml:space="preserve" text-anchor="start" x="194" y="-437.25" font-family="Arial" font-size="10.00"> </text>
<text xml:space="preserve" text-anchor="start" x="209.5" y="-437.25" font-family="Arial" font-size="10.00">Object</text>
<path fill="#c7b8e6" stroke="none" d="M248,-432C248,-432 256,-432 256,-432 259,-432 262,-435 262,-438 262,-438 262,-444 262,-444 262,-447 259,-450 256,-450 256,-450 248,-450 248,-450 245,-450 242,-447 242,-444 242,-444 242,-438 242,-438 242,-435 245,-432 248,-432"/>
<path fill="none" stroke="black" d="M248,-432C248,-432 256,-432 256,-432 259,-432 262,-435 262,-438 262,-438 262,-444 262,-444 262,-447 259,-450 256,-450 256,-450 248,-450 248,-450 245,-450 242,-447 242,-444 242,-444 242,-438 242,-438 242,-435 245,-432 248,-432"/>
<text xml:space="preserve" text-anchor="start" x="250.5" y="-437.25" font-family="Arial" font-size="10.00"> </text>
<text xml:space="preserve" text-anchor="start" x="266" y="-437.25" font-family="Arial" font-size="10.00">Attribute</text>
<path fill="#f5b8b8" stroke="none" d="M312.75,-432C312.75,-432 320.75,-432 320.75,-432 323.75,-432 326.75,-435 326.75,-438 326.75,-438 326.75,-444 326.75,-444 326.75,-447 323.75,-450 320.75,-450 320.75,-450 312.75,-450 312.75,-450 309.75,-450 306.75,-447 306.75,-444 306.75,-444 306.75,-438 306.75,-438 306.75,-435 309.75,-432 312.75,-432"/>
<path fill="none" stroke="black" d="M312.75,-432C312.75,-432 320.75,-432 320.75,-432 323.75,-432 326.75,-435 326.75,-438 326.75,-438 326.75,-444 326.75,-444 326.75,-447 323.75,-450 320.75,-450 320.75,-450 312.75,-450 312.75,-450 309.75,-450 306.75,-447 306.75,-444 306.75,-444 306.75,-438 306.75,-438 306.75,-435 309.75,-432 312.75,-432"/>
<text xml:space="preserve" text-anchor="start" x="315.25" y="-437.25" font-family="Arial" font-size="10.00"> </text>
<text xml:space="preserve" text-anchor="start" x="330.75" y="-437.25" font-family="Arial" font-size="10.00">Relationship</text>
<text xml:space="preserve" text-anchor="start" x="390.75" y="-438.5" font-family="Arial" font-weight="bold" font-size="10.00">(+)</text>
<text xml:space="preserve" text-anchor="start" x="402.75" y="-438.5" font-family="Arial" font-size="10.00"> increases complexity</text>
<text xml:space="preserve" text-anchor="start" x="504" y="-438.5" font-family="Arial" font-weight="bold" font-size="10.00">(−)</text>
<text xml:space="preserve" text-anchor="start" x="516" y="-438.5" font-family="Arial" font-size="10.00"> decreases complexity</text>
<!-- text.title -->
<g id="node1" class="node">
<title>text.title</title>
<path fill="#b8e6b8" stroke="#2c3e50" stroke-width="1.8" d="M42,-393C42,-393 12,-393 12,-393 6,-393 0,-387 0,-381 0,-381 0,-369 0,-369 0,-363 6,-357 12,-357 12,-357 42,-357 42,-357 48,-357 54,-363 54,-369 54,-369 54,-381 54,-381 54,-387 48,-393 42,-393"/>
<text xml:space="preserve" text-anchor="middle" x="27" y="-371.5" font-family="Arial" font-size="10.00" fill="#1a1a1a">title</text>
</g>
<!-- attr_0 -->
<g id="node7" class="node">
<title>attr_0</title>
<path fill="#c7b8e6" stroke="#7f8c8d" stroke-width="1.2" d="M217.25,-426C217.25,-426 114.25,-426 114.25,-426 108.25,-426 102.25,-420 102.25,-414 102.25,-414 102.25,-402 102.25,-402 102.25,-396 108.25,-390 114.25,-390 114.25,-390 217.25,-390 217.25,-390 223.25,-390 229.25,-396 229.25,-402 229.25,-402 229.25,-414 229.25,-414 229.25,-420 223.25,-426 217.25,-426"/>
<text xml:space="preserve" text-anchor="middle" x="165.75" y="-404.5" font-family="Arial" font-size="10.00" fill="#1a1a1a">(−) provides clear context</text>
</g>
<!-- text.title&#45;&gt;attr_0 -->
<g id="edge1" class="edge">
<title>text.title&#45;&gt;attr_0</title>
<path fill="none" stroke="#aaaaaa" d="M54.69,-381.44C66,-384.17 79.76,-387.49 93.68,-390.85"/>
<polygon fill="#aaaaaa" stroke="#aaaaaa" points="93.02,-393.21 100.4,-392.47 94.17,-388.45 93.02,-393.21"/>
</g>
<!-- rel_0 -->
<g id="node14" class="node">
<title>rel_0</title>
<path fill="#f5b8b8" stroke="#d46a6a" stroke-width="1.2" d="M207.12,-361C207.12,-361 124.38,-361 124.38,-361 118.38,-361 112.38,-355 112.38,-349 112.38,-349 112.38,-337 112.38,-337 112.38,-331 118.38,-325 124.38,-325 124.38,-325 207.12,-325 207.12,-325 213.12,-325 219.12,-331 219.12,-337 219.12,-337 219.12,-349 219.12,-349 219.12,-355 213.12,-361 207.12,-361"/>
<text xml:space="preserve" text-anchor="middle" x="165.75" y="-339.5" font-family="Arial" font-size="10.00" fill="#8b0000">reduces ambiguity of</text>
</g>
<!-- text.title&#45;&gt;rel_0 -->
<g id="edge8" class="edge">
<title>text.title&#45;&gt;rel_0</title>
<path fill="none" stroke="#d46a6a" stroke-width="1.5" d="M54.69,-368.75C68.27,-365.58 85.4,-361.57 102.07,-357.67"/>
<polygon fill="#d46a6a" stroke="#d46a6a" stroke-width="1.5" points="102.44,-360.46 109.59,-355.91 101.17,-355 102.44,-360.46"/>
</g>
<!-- unknown.caption -->
<g id="node2" class="node">
<title>unknown.caption</title>
<path fill="#b8e6b8" stroke="#2c3e50" stroke-width="1.8" d="M42,-264C42,-264 12,-264 12,-264 6,-264 0,-258 0,-252 0,-252 0,-240 0,-240 0,-234 6,-228 12,-228 12,-228 42,-228 42,-228 48,-228 54,-234 54,-240 54,-240 54,-252 54,-252 54,-258 48,-264 42,-264"/>
<text xml:space="preserve" text-anchor="middle" x="27" y="-242.5" font-family="Arial" font-size="10.00" fill="#1a1a1a">caption</text>
</g>
<!-- attr_1 -->
<g id="node8" class="node">
<title>attr_1</title>
<path fill="#c7b8e6" stroke="#7f8c8d" stroke-width="1.2" d="M222.5,-296C222.5,-296 109,-296 109,-296 103,-296 97,-290 97,-284 97,-284 97,-272 97,-272 97,-266 103,-260 109,-260 109,-260 222.5,-260 222.5,-260 228.5,-260 234.5,-266 234.5,-272 234.5,-272 234.5,-284 234.5,-284 234.5,-290 228.5,-296 222.5,-296"/>
<text xml:space="preserve" text-anchor="middle" x="165.75" y="-274.5" font-family="Arial" font-size="10.00" fill="#1a1a1a">(−) sufficient contextual text</text>
</g>
<!-- unknown.caption&#45;&gt;attr_1 -->
<g id="edge2" class="edge">
<title>unknown.caption&#45;&gt;attr_1</title>
<path fill="none" stroke="#aaaaaa" d="M54.69,-252.25C64.57,-254.56 76.34,-257.31 88.43,-260.14"/>
<polygon fill="#aaaaaa" stroke="#aaaaaa" points="87.57,-262.46 94.94,-261.66 88.69,-257.68 87.57,-262.46"/>
</g>
<!-- rel_1 -->
<g id="node15" class="node">
<title>rel_1</title>
<path fill="#f5b8b8" stroke="#d46a6a" stroke-width="1.2" d="M206,-231C206,-231 125.5,-231 125.5,-231 119.5,-231 113.5,-225 113.5,-219 113.5,-219 113.5,-207 113.5,-207 113.5,-201 119.5,-195 125.5,-195 125.5,-195 206,-195 206,-195 212,-195 218,-201 218,-207 218,-207 218,-219 218,-219 218,-225 212,-231 206,-231"/>
<text xml:space="preserve" text-anchor="middle" x="165.75" y="-209.5" font-family="Arial" font-size="10.00" fill="#8b0000">aids interpretation of</text>
</g>
<!-- unknown.caption&#45;&gt;rel_1 -->
<g id="edge10" class="edge">
<title>unknown.caption&#45;&gt;rel_1</title>
<path fill="none" stroke="#d46a6a" stroke-width="1.5" d="M54.69,-239.56C68.53,-236.22 86.06,-231.99 103.03,-227.89"/>
<polygon fill="#d46a6a" stroke="#d46a6a" stroke-width="1.5" points="103.6,-230.64 110.72,-226.04 102.28,-225.19 103.6,-230.64"/>
</g>
<!-- mark.line -->
<g id="node3" class="node">
<title>mark.line</title>
<path fill="#b8e6b8" stroke="#2c3e50" stroke-width="1.8" d="M321.12,-231C321.12,-231 291.12,-231 291.12,-231 285.12,-231 279.12,-225 279.12,-219 279.12,-219 279.12,-207 279.12,-207 279.12,-201 285.12,-195 291.12,-195 291.12,-195 321.12,-195 321.12,-195 327.12,-195 333.12,-201 333.12,-207 333.12,-207 333.12,-219 333.12,-219 333.12,-225 327.12,-231 321.12,-231"/>
<text xml:space="preserve" text-anchor="middle" x="306.12" y="-209.5" font-family="Arial" font-size="10.00" fill="#1a1a1a">line</text>
</g>
<!-- attr_2 -->
<g id="node9" class="node">
<title>attr_2</title>
<path fill="#c7b8e6" stroke="#7f8c8d" stroke-width="1.2" d="M499.5,-296C499.5,-296 400.25,-296 400.25,-296 394.25,-296 388.25,-290 388.25,-284 388.25,-284 388.25,-272 388.25,-272 388.25,-266 394.25,-260 400.25,-260 400.25,-260 499.5,-260 499.5,-260 505.5,-260 511.5,-266 511.5,-272 511.5,-272 511.5,-284 511.5,-284 511.5,-290 505.5,-296 499.5,-296"/>
<text xml:space="preserve" text-anchor="middle" x="449.88" y="-274.5" font-family="Arial" font-size="10.00" fill="#1a1a1a">(+) multiple lines present</text>
</g>
<!-- mark.line&#45;&gt;attr_2 -->
<g id="edge3" class="edge">
<title>mark.line&#45;&gt;attr_2</title>
<path fill="none" stroke="#aaaaaa" d="M333.91,-225.63C347.09,-231.81 363.23,-239.34 377.75,-246 384.95,-249.3 392.57,-252.77 400.05,-256.14"/>
<polygon fill="#aaaaaa" stroke="#aaaaaa" points="398.69,-258.22 406.08,-258.86 400.71,-253.75 398.69,-258.22"/>
</g>
<!-- attr_3 -->
<g id="node10" class="node">
<title>attr_3</title>
<path fill="#c7b8e6" stroke="#7f8c8d" stroke-width="1.2" d="M501,-231C501,-231 398.75,-231 398.75,-231 392.75,-231 386.75,-225 386.75,-219 386.75,-219 386.75,-207 386.75,-207 386.75,-201 392.75,-195 398.75,-195 398.75,-195 501,-195 501,-195 507,-195 513,-201 513,-207 513,-207 513,-219 513,-219 513,-225 507,-231 501,-231"/>
<text xml:space="preserve" text-anchor="middle" x="449.88" y="-209.5" font-family="Arial" font-size="10.00" fill="#1a1a1a">(+) high variability pattern</text>
</g>
<!-- mark.line&#45;&gt;attr_3 -->
<g id="edge4" class="edge">
<title>mark.line&#45;&gt;attr_3</title>
<path fill="none" stroke="#aaaaaa" d="M333.79,-213C346.42,-213 362.18,-213 377.94,-213"/>
<polygon fill="#aaaaaa" stroke="#aaaaaa" points="377.65,-215.45 384.65,-213 377.65,-210.55 377.65,-215.45"/>
</g>
<!-- rel_3 -->
<g id="node17" class="node">
<title>rel_3</title>
<path fill="#f5b8b8" stroke="#d46a6a" stroke-width="1.2" d="M510,-166C510,-166 389.75,-166 389.75,-166 383.75,-166 377.75,-160 377.75,-154 377.75,-154 377.75,-142 377.75,-142 377.75,-136 383.75,-130 389.75,-130 389.75,-130 510,-130 510,-130 516,-130 522,-136 522,-142 522,-142 522,-154 522,-154 522,-160 516,-166 510,-166"/>
<text xml:space="preserve" text-anchor="middle" x="449.88" y="-144.5" font-family="Arial" font-size="10.00" fill="#8b0000">increases processing time for</text>
</g>
<!-- mark.line&#45;&gt;rel_3 -->
<g id="edge14" class="edge">
<title>mark.line&#45;&gt;rel_3</title>
<path fill="none" stroke="#d46a6a" stroke-width="1.5" d="M333.79,-200.77C352.17,-192.34 377.17,-180.88 399.17,-170.79"/>
<polygon fill="#d46a6a" stroke="#d46a6a" stroke-width="1.5" points="400.21,-173.39 406.32,-167.51 397.88,-168.3 400.21,-173.39"/>
</g>
<!-- property.color -->
<g id="node4" class="node">
<title>property.color</title>
<path fill="#b8e6b8" stroke="#2c3e50" stroke-width="1.8" d="M42,-134C42,-134 12,-134 12,-134 6,-134 0,-128 0,-122 0,-122 0,-110 0,-110 0,-104 6,-98 12,-98 12,-98 42,-98 42,-98 48,-98 54,-104 54,-110 54,-110 54,-122 54,-122 54,-128 48,-134 42,-134"/>
<text xml:space="preserve" text-anchor="middle" x="27" y="-112.5" font-family="Arial" font-size="10.00" fill="#1a1a1a">color</text>
</g>
<!-- attr_4 -->
<g id="node11" class="node">
<title>attr_4</title>
<path fill="#c7b8e6" stroke="#7f8c8d" stroke-width="1.2" d="M215.38,-166C215.38,-166 116.12,-166 116.12,-166 110.12,-166 104.12,-160 104.12,-154 104.12,-154 104.12,-142 104.12,-142 104.12,-136 110.12,-130 116.12,-130 116.12,-130 215.38,-130 215.38,-130 221.38,-130 227.38,-136 227.38,-142 227.38,-142 227.38,-154 227.38,-154 227.38,-160 221.38,-166 215.38,-166"/>
<text xml:space="preserve" text-anchor="middle" x="165.75" y="-144.5" font-family="Arial" font-size="10.00" fill="#1a1a1a">(+) distinct color choices</text>
</g>
<!-- property.color&#45;&gt;attr_4 -->
<g id="edge5" class="edge">
<title>property.color&#45;&gt;attr_4</title>
<path fill="none" stroke="#aaaaaa" d="M54.69,-122.25C66.5,-125.01 80.98,-128.4 95.52,-131.8"/>
<polygon fill="#aaaaaa" stroke="#aaaaaa" points="94.74,-134.13 102.11,-133.34 95.85,-129.36 94.74,-134.13"/>
</g>
<!-- rel_2 -->
<g id="node16" class="node">
<title>rel_2</title>
<path fill="#f5b8b8" stroke="#d46a6a" stroke-width="1.2" d="M188,-101C188,-101 143.5,-101 143.5,-101 137.5,-101 131.5,-95 131.5,-89 131.5,-89 131.5,-77 131.5,-77 131.5,-71 137.5,-65 143.5,-65 143.5,-65 188,-65 188,-65 194,-65 200,-71 200,-77 200,-77 200,-89 200,-89 200,-95 194,-101 188,-101"/>
<text xml:space="preserve" text-anchor="middle" x="165.75" y="-79.5" font-family="Arial" font-size="10.00" fill="#8b0000">encodes via</text>
</g>
<!-- property.color&#45;&gt;rel_2 -->
<g id="edge12" class="edge">
<title>property.color&#45;&gt;rel_2</title>
<path fill="none" stroke="#d46a6a" stroke-width="1.5" d="M54.69,-109.56C73.63,-104.99 99.47,-98.75 121.36,-93.47"/>
<polygon fill="#d46a6a" stroke="#d46a6a" stroke-width="1.5" points="121.77,-96.25 128.89,-91.65 120.45,-90.81 121.77,-96.25"/>
</g>
<!-- unknown.numbers -->
<g id="node5" class="node">
<title>unknown.numbers</title>
<path fill="#b8e6b8" stroke="#2c3e50" stroke-width="1.8" d="M607,-101C607,-101 577,-101 577,-101 571,-101 565,-95 565,-89 565,-89 565,-77 565,-77 565,-71 571,-65 577,-65 577,-65 607,-65 607,-65 613,-65 619,-71 619,-77 619,-77 619,-89 619,-89 619,-95 613,-101 607,-101"/>
<text xml:space="preserve" text-anchor="middle" x="592" y="-79.5" font-family="Arial" font-size="10.00" fill="#1a1a1a">numbers</text>
</g>
<!-- attr_5 -->
<g id="node12" class="node">
<title>attr_5</title>
<path fill="#c7b8e6" stroke="#7f8c8d" stroke-width="1.2" d="M789.75,-101C789.75,-101 674,-101 674,-101 668,-101 662,-95 662,-89 662,-89 662,-77 662,-77 662,-71 668,-65 674,-65 674,-65 789.75,-65 789.75,-65 795.75,-65 801.75,-71 801.75,-77 801.75,-77 801.75,-89 801.75,-89 801.75,-95 795.75,-101 789.75,-101"/>
<text xml:space="preserve" text-anchor="middle" x="731.88" y="-79.5" font-family="Arial" font-size="10.00" fill="#1a1a1a">(+) numerical values present</text>
</g>
<!-- unknown.numbers&#45;&gt;attr_5 -->
<g id="edge6" class="edge">
<title>unknown.numbers&#45;&gt;attr_5</title>
<path fill="none" stroke="#aaaaaa" d="M619.58,-83C629.37,-83 641.03,-83 653.05,-83"/>
<polygon fill="#aaaaaa" stroke="#aaaaaa" points="652.89,-85.45 659.89,-83 652.89,-80.55 652.89,-85.45"/>
</g>
<!-- text.axis_label -->
<g id="node6" class="node">
<title>text.axis_label</title>
<path fill="#b8e6b8" stroke="#2c3e50" stroke-width="1.8" d="M322.75,-68C322.75,-68 289.5,-68 289.5,-68 283.5,-68 277.5,-62 277.5,-56 277.5,-56 277.5,-44 277.5,-44 277.5,-38 283.5,-32 289.5,-32 289.5,-32 322.75,-32 322.75,-32 328.75,-32 334.75,-38 334.75,-44 334.75,-44 334.75,-56 334.75,-56 334.75,-62 328.75,-68 322.75,-68"/>
<text xml:space="preserve" text-anchor="middle" x="306.12" y="-46.5" font-family="Arial" font-size="10.00" fill="#1a1a1a">axis label</text>
</g>
<!-- attr_6 -->
<g id="node13" class="node">
<title>attr_6</title>
<path fill="#c7b8e6" stroke="#7f8c8d" stroke-width="1.2" d="M502.5,-101C502.5,-101 397.25,-101 397.25,-101 391.25,-101 385.25,-95 385.25,-89 385.25,-89 385.25,-77 385.25,-77 385.25,-71 391.25,-65 397.25,-65 397.25,-65 502.5,-65 502.5,-65 508.5,-65 514.5,-71 514.5,-77 514.5,-77 514.5,-89 514.5,-89 514.5,-95 508.5,-101 502.5,-101"/>
<text xml:space="preserve" text-anchor="middle" x="449.88" y="-79.5" font-family="Arial" font-size="10.00" fill="#1a1a1a">(+) increases reading time</text>
</g>
<!-- text.axis_label&#45;&gt;attr_6 -->
<g id="edge7" class="edge">
<title>text.axis_label&#45;&gt;attr_6</title>
<path fill="none" stroke="#aaaaaa" d="M335.47,-56.6C347.47,-59.39 362.05,-62.79 376.7,-66.2"/>
<polygon fill="#aaaaaa" stroke="#aaaaaa" points="375.98,-68.55 383.36,-67.75 377.09,-63.77 375.98,-68.55"/>
</g>
<!-- rel_4 -->
<g id="node18" class="node">
<title>rel_4</title>
<path fill="#f5b8b8" stroke="#d46a6a" stroke-width="1.2" d="M492,-36C492,-36 407.75,-36 407.75,-36 401.75,-36 395.75,-30 395.75,-24 395.75,-24 395.75,-12 395.75,-12 395.75,-6 401.75,0 407.75,0 407.75,0 492,0 492,0 498,0 504,-6 504,-12 504,-12 504,-24 504,-24 504,-30 498,-36 492,-36"/>
<text xml:space="preserve" text-anchor="middle" x="449.88" y="-14.5" font-family="Arial" font-size="10.00" fill="#8b0000">requires effort to read</text>
</g>
<!-- text.axis_label&#45;&gt;rel_4 -->
<g id="edge16" class="edge">
<title>text.axis_label&#45;&gt;rel_4</title>
<path fill="none" stroke="#d46a6a" stroke-width="1.5" d="M335.47,-43.6C349.92,-40.34 368.12,-36.23 385.68,-32.27"/>
<polygon fill="#d46a6a" stroke="#d46a6a" stroke-width="1.5" points="385.94,-35.08 393.12,-30.59 384.7,-29.62 385.94,-35.08"/>
</g>
<!-- rel_0&#45;&gt;mark.line -->
<g id="edge9" class="edge">
<title>rel_0&#45;&gt;mark.line</title>
<path fill="none" stroke="#d46a6a" stroke-width="1.5" d="M214.17,-324.42C221.36,-320.55 228.4,-316.07 234.5,-311 258.2,-291.29 277.97,-261.9 290.51,-240.45"/>
<polygon fill="#d46a6a" stroke="#d46a6a" stroke-width="1.5" points="292.79,-242.1 294.31,-233.77 287.92,-239.34 292.79,-242.1"/>
</g>
<!-- rel_1&#45;&gt;mark.line -->
<g id="edge11" class="edge">
<title>rel_1&#45;&gt;mark.line</title>
<path fill="none" stroke="#d46a6a" stroke-width="1.5" d="M218.28,-213C234.88,-213 252.94,-213 268.27,-213"/>
<polygon fill="#d46a6a" stroke="#d46a6a" stroke-width="1.5" points="268.13,-215.8 276.13,-213 268.13,-210.2 268.13,-215.8"/>
</g>
<!-- rel_2&#45;&gt;mark.line -->
<g id="edge13" class="edge">
<title>rel_2&#45;&gt;mark.line</title>
<path fill="none" stroke="#d46a6a" stroke-width="1.5" d="M200.42,-94.9C211.97,-99.98 224.5,-106.68 234.5,-115 258.2,-134.71 277.97,-164.1 290.51,-185.55"/>
<polygon fill="#d46a6a" stroke="#d46a6a" stroke-width="1.5" points="287.92,-186.66 294.31,-192.23 292.79,-183.9 287.92,-186.66"/>
</g>
<!-- rel_3&#45;&gt;unknown.numbers -->
<g id="edge15" class="edge">
<title>rel_3&#45;&gt;unknown.numbers</title>
<path fill="none" stroke="#d46a6a" stroke-width="1.5" d="M490.65,-129.55C510.96,-120.13 535.46,-108.76 555.18,-99.62"/>
<polygon fill="#d46a6a" stroke="#d46a6a" stroke-width="1.5" points="556.29,-102.19 562.37,-96.28 553.93,-97.11 556.29,-102.19"/>
</g>
<!-- rel_4&#45;&gt;unknown.numbers -->
<g id="edge17" class="edge">
<title>rel_4&#45;&gt;unknown.numbers</title>
<path fill="none" stroke="#d46a6a" stroke-width="1.5" d="M492.32,-36.45C502.07,-40.85 512.42,-45.55 522,-50 532.81,-55.01 544.51,-60.57 555.16,-65.67"/>
<polygon fill="#d46a6a" stroke="#d46a6a" stroke-width="1.5" points="553.73,-68.08 562.15,-69.02 556.15,-63.03 553.73,-68.08"/>
</g>
</g>
</svg>
