<?xml version="1.0" encoding="UTF-8" standalone="no"?>
<!DOCTYPE svg PUBLIC "-//W3C//DTD SVG 1.1//EN"
 "http://www.w3.org/Graphics/SVG/1.1/DTD/svg11.dtd">
<!-- Generated by graphviz version 14.1.5 (20260411.2331)
 -->
<!-- Title: wsj340.png Pages: 1 -->
<svg width="527pt" height="635pt"
 viewBox="0.00 0.00 527.00 635.00" xmlns="http://www.w3.org/2000/svg" xmlns:xlink="http://www.w3.org/1999/xlink">
<g id="graph0" class="graph" transform="scale(1 1) rotate(0) translate(4 631.25)">
<title>wsj340.png</title>
<polygon fill="white" stroke="none" points="-4,4 -4,-631.25 523,-631.25 523,4 -4,4"/>
<text xml:space="preserve" text-anchor="start" x="222.75" y="-606.95" font-family="Arial" font-weight="bold" font-size="14.00">wsj340.png</text>
<text xml:space="preserve" text-anchor="start" x="218.62" y="-587" font-family="Arial" font-size="11.00">Bar &#160;| &#160;VC = 0.36</text>
<path fill="#b8e6b8" stroke="none" d="M50.12,-562C50.12,-562 58.12,-562 58.12,-562 61.12,-562 64.12,-565 64.12,-568 64.12,-568 64.12,-574 64.12,-574 64.12,-577 61.12,-580 58.12,-580 58.12,-580 50.12,-580 50.12,-580 47.12,-580 44.12,-577 44.12,-574 44.12,-574 44.12,-568 44.12,-568 44.12,-565 47.12,-562 50.12,-562"/>
<path fill="none" stroke="black" d="M50.12,-562C50.12,-562 58.12,-562 58.12,-562 61.12,-562 64.12,-565 64.12,-568 64.12,-568 64.12,-574 64.12,-574 64.12,-577 61.12,-580 58.12,-580 58.12,-580 50.12,-580 50.12,-580 47.12,-580 44.12,-577 44.12,-574 44.12,-574 44.12,-568 44.12,-568 44.12,-565 47.12,-562 50.12,-562"/>
<text xml:space="preserve" text-anchor="start" x="52.62" y="-567.25" font-family="Arial" font-size="10.00"> </text>
<text xml:space="preserve" text-anchor="start" x="68.12" y="-567.25" font-family="Arial" font-size="10.00">Object</text>
<path fill="#c7b8e6" stroke="none" d="M106.62,-562C106.62,-562 114.62,-562 114.62,-562 117.62,-562 120.62,-565 120.62,-568 120.62,-568 120.62,-574 120.62,-574 120.62,-577 117.62,-580 114.62,-580 114.62,-580 106.62,-580 106.62,-580 103.62,-580 100.62,-577 100.62,-574 100.62,-574 100.62,-568 100.62,-568 100.62,-565 103.62,-562 106.62,-562"/>
<path fill="none" stroke="black" d="M106.62,-562C106.62,-562 114.62,-562 114.62,-562 117.62,-562 120.62,-565 120.62,-568 120.62,-568 120.62,-574 120.62,-574 120.62,-577 117.62,-580 114.62,-580 114.62,-580 106.62,-580 106.62,-580 103.62,-580 100.62,-577 100.62,-574 100.62,-574 100.62,-568 100.62,-568 100.62,-565 103.62,-562 106.62,-562"/>
<text xml:space="preserve" text-anchor="start" x="109.12" y="-567.25" font-family="Arial" font-size="10.00"> </text>
<text xml:space="preserve" text-anchor="start" x="124.62" y="-567.25" font-family="Arial" font-size="10.00">Attribute</text>
<path fill="#f5b8b8" stroke="none" d="M171.38,-562C171.38,-562 179.38,-562 179.38,-562 182.38,-562 185.38,-565 185.38,-568 185.38,-568 185.38,-574 185.38,-574 185.38,-577 182.38,-580 179.38,-580 179.38,-580 171.38,-580 171.38,-580 168.38,-580 165.38,-577 165.38,-574 165.38,-574 165.38,-568 165.38,-568 165.38,-565 168.38,-562 171.38,-562"/>
<path fill="none" stroke="black" d="M171.38,-562C171.38,-562 179.38,-562 179.38,-562 182.38,-562 185.38,-565 185.38,-568 185.38,-568 185.38,-574 185.38,-574 185.38,-577 182.38,-580 179.38,-580 179.38,-580 171.38,-580 171.38,-580 168.38,-580 165.38,-577 165.38,-574 165.38,-574 165.38,-568 165.38,-568 165.38,-565 168.38,-562 171.38,-562"/>
<text xml:space="preserve" text-anchor="start" x="173.88" y="-567.25" font-family="Arial" font-size="10.00"> </text>
<text xml:space="preserve" text-anchor="start" x="189.38" y="-567.25" font-family="Arial" font-size="10.00">Relationship</text>
<text xml:space="preserve" text-anchor="start" x="249.38" y="-568.5" font-family="Arial" font-weight="bold" font-size="10.00">(+)</text>
<text xml:space="preserve" text-anchor="start" x="261.38" y="-568.5" font-family="Arial" font-size="10.00"> increases complexity</text>
<text xml:space="preserve" text-anchor="start" x="362.62" y="-568.5" font-family="Arial" font-weight="bold" font-size="10.00">(−)</text>
<text xml:space="preserve" text-anchor="start" x="374.62" y="-568.5" font-family="Arial" font-size="10.00"> decreases complexity</text>
<!-- text.title -->
<g id="node1" class="node">
<title>text.title</title>
<path fill="#b8e6b8" stroke="#2c3e50" stroke-width="1.8" d="M53.75,-458C53.75,-458 23.75,-458 23.75,-458 17.75,-458 11.75,-452 11.75,-446 11.75,-446 11.75,-434 11.75,-434 11.75,-428 17.75,-422 23.75,-422 23.75,-422 53.75,-422 53.75,-422 59.75,-422 65.75,-428 65.75,-434 65.75,-434 65.75,-446 65.75,-446 65.75,-452 59.75,-458 53.75,-458"/>
<text xml:space="preserve" text-anchor="middle" x="38.75" y="-436.5" font-family="Arial" font-size="10.00" fill="#1a1a1a">title</text>
</g>
<!-- attr_0 -->
<g id="node7" class="node">
<title>attr_0</title>
<path fill="#c7b8e6" stroke="#7f8c8d" stroke-width="1.2" d="M230.25,-491C230.25,-491 159.5,-491 159.5,-491 153.5,-491 147.5,-485 147.5,-479 147.5,-479 147.5,-467 147.5,-467 147.5,-461 153.5,-455 159.5,-455 159.5,-455 230.25,-455 230.25,-455 236.25,-455 242.25,-461 242.25,-467 242.25,-467 242.25,-479 242.25,-479 242.25,-485 236.25,-491 230.25,-491"/>
<text xml:space="preserve" text-anchor="middle" x="194.88" y="-469.5" font-family="Arial" font-size="10.00" fill="#1a1a1a">(−) clearly present</text>
</g>
<!-- text.title&#45;&gt;attr_0 -->
<g id="edge1" class="edge">
<title>text.title&#45;&gt;attr_0</title>
<path fill="none" stroke="#aaaaaa" d="M66.6,-445.75C86.51,-450.01 114.35,-455.97 138.91,-461.23"/>
<polygon fill="#aaaaaa" stroke="#aaaaaa" points="138.27,-463.6 145.62,-462.67 139.29,-458.81 138.27,-463.6"/>
</g>
<!-- rel_2 -->
<g id="node15" class="node">
<title>rel_2</title>
<path fill="#f5b8b8" stroke="#d46a6a" stroke-width="1.2" d="M247.12,-426C247.12,-426 142.62,-426 142.62,-426 136.62,-426 130.62,-420 130.62,-414 130.62,-414 130.62,-402 130.62,-402 130.62,-396 136.62,-390 142.62,-390 142.62,-390 247.12,-390 247.12,-390 253.12,-390 259.12,-396 259.12,-402 259.12,-402 259.12,-414 259.12,-414 259.12,-420 253.12,-426 247.12,-426"/>
<text xml:space="preserve" text-anchor="middle" x="194.88" y="-404.5" font-family="Arial" font-size="10.00" fill="#8b0000">supports understanding of</text>
</g>
<!-- text.title&#45;&gt;rel_2 -->
<g id="edge11" class="edge">
<title>text.title&#45;&gt;rel_2</title>
<path fill="none" stroke="#d46a6a" stroke-width="1.5" d="M66.6,-434.43C81.58,-431.32 101.05,-427.27 120.23,-423.29"/>
<polygon fill="#d46a6a" stroke="#d46a6a" stroke-width="1.5" points="120.73,-426.05 127.99,-421.68 119.59,-420.56 120.73,-426.05"/>
</g>
<!-- text.description -->
<g id="node2" class="node">
<title>text.description</title>
<path fill="#b8e6b8" stroke="#2c3e50" stroke-width="1.8" d="M58.38,-328C58.38,-328 19.12,-328 19.12,-328 13.12,-328 7.12,-322 7.12,-316 7.12,-316 7.12,-304 7.12,-304 7.12,-298 13.12,-292 19.12,-292 19.12,-292 58.38,-292 58.38,-292 64.38,-292 70.38,-298 70.38,-304 70.38,-304 70.38,-316 70.38,-316 70.38,-322 64.38,-328 58.38,-328"/>
<text xml:space="preserve" text-anchor="middle" x="38.75" y="-306.5" font-family="Arial" font-size="10.00" fill="#1a1a1a">description</text>
</g>
<!-- attr_1 -->
<g id="node8" class="node">
<title>attr_1</title>
<path fill="#c7b8e6" stroke="#7f8c8d" stroke-width="1.2" d="M257.25,-361C257.25,-361 132.5,-361 132.5,-361 126.5,-361 120.5,-355 120.5,-349 120.5,-349 120.5,-337 120.5,-337 120.5,-331 126.5,-325 132.5,-325 132.5,-325 257.25,-325 257.25,-325 263.25,-325 269.25,-331 269.25,-337 269.25,-337 269.25,-349 269.25,-349 269.25,-355 263.25,-361 257.25,-361"/>
<text xml:space="preserve" text-anchor="middle" x="194.88" y="-339.5" font-family="Arial" font-size="10.00" fill="#1a1a1a">(−) contextual explanatory text</text>
</g>
<!-- text.description&#45;&gt;attr_1 -->
<g id="edge2" class="edge">
<title>text.description&#45;&gt;attr_1</title>
<path fill="none" stroke="#aaaaaa" d="M70.94,-316.68C82.96,-319.25 97.33,-322.33 111.93,-325.45"/>
<polygon fill="#aaaaaa" stroke="#aaaaaa" points="111.21,-327.81 118.57,-326.88 112.24,-323.01 111.21,-327.81"/>
</g>
<!-- rel_0 -->
<g id="node13" class="node">
<title>rel_0</title>
<path fill="#f5b8b8" stroke="#d46a6a" stroke-width="1.2" d="M244.12,-296C244.12,-296 145.62,-296 145.62,-296 139.62,-296 133.62,-290 133.62,-284 133.62,-284 133.62,-272 133.62,-272 133.62,-266 139.62,-260 145.62,-260 145.62,-260 244.12,-260 244.12,-260 250.12,-260 256.12,-266 256.12,-272 256.12,-272 256.12,-284 256.12,-284 256.12,-290 250.12,-296 244.12,-296"/>
<text xml:space="preserve" text-anchor="middle" x="194.88" y="-274.5" font-family="Arial" font-size="10.00" fill="#8b0000">reduces interpretive load</text>
</g>
<!-- text.description&#45;&gt;rel_0 -->
<g id="edge7" class="edge">
<title>text.description&#45;&gt;rel_0</title>
<path fill="none" stroke="#d46a6a" stroke-width="1.5" d="M70.94,-303.52C86.08,-300.38 104.92,-296.47 123.28,-292.66"/>
<polygon fill="#d46a6a" stroke="#d46a6a" stroke-width="1.5" points="123.62,-295.45 130.88,-291.08 122.48,-289.96 123.62,-295.45"/>
</g>
<!-- mark.bar -->
<g id="node3" class="node">
<title>mark.bar</title>
<path fill="#b8e6b8" stroke="#2c3e50" stroke-width="1.8" d="M354.25,-231C354.25,-231 324.25,-231 324.25,-231 318.25,-231 312.25,-225 312.25,-219 312.25,-219 312.25,-207 312.25,-207 312.25,-201 318.25,-195 324.25,-195 324.25,-195 354.25,-195 354.25,-195 360.25,-195 366.25,-201 366.25,-207 366.25,-207 366.25,-219 366.25,-219 366.25,-225 360.25,-231 354.25,-231"/>
<text xml:space="preserve" text-anchor="middle" x="339.25" y="-209.5" font-family="Arial" font-size="10.00" fill="#1a1a1a">bar</text>
</g>
<!-- attr_2 -->
<g id="node9" class="node">
<title>attr_2</title>
<path fill="#c7b8e6" stroke="#7f8c8d" stroke-width="1.2" d="M507,-231C507,-231 421.25,-231 421.25,-231 415.25,-231 409.25,-225 409.25,-219 409.25,-219 409.25,-207 409.25,-207 409.25,-201 415.25,-195 421.25,-195 421.25,-195 507,-195 507,-195 513,-195 519,-201 519,-207 519,-207 519,-219 519,-219 519,-225 513,-231 507,-231"/>
<text xml:space="preserve" text-anchor="middle" x="464.12" y="-209.5" font-family="Arial" font-size="10.00" fill="#1a1a1a">(−) familiar chart form</text>
</g>
<!-- mark.bar&#45;&gt;attr_2 -->
<g id="edge3" class="edge">
<title>mark.bar&#45;&gt;attr_2</title>
<path fill="none" stroke="#aaaaaa" d="M366.91,-213C376.89,-213 388.69,-213 400.55,-213"/>
<polygon fill="#aaaaaa" stroke="#aaaaaa" points="400.24,-215.45 407.24,-213 400.24,-210.55 400.24,-215.45"/>
</g>
<!-- mark.color_segment -->
<g id="node4" class="node">
<title>mark.color_segment</title>
<path fill="#b8e6b8" stroke="#2c3e50" stroke-width="1.8" d="M65.5,-198C65.5,-198 12,-198 12,-198 6,-198 0,-192 0,-186 0,-186 0,-174 0,-174 0,-168 6,-162 12,-162 12,-162 65.5,-162 65.5,-162 71.5,-162 77.5,-168 77.5,-174 77.5,-174 77.5,-186 77.5,-186 77.5,-192 71.5,-198 65.5,-198"/>
<text xml:space="preserve" text-anchor="middle" x="38.75" y="-176.5" font-family="Arial" font-size="10.00" fill="#1a1a1a">color segment</text>
</g>
<!-- attr_3 -->
<g id="node10" class="node">
<title>attr_3</title>
<path fill="#c7b8e6" stroke="#7f8c8d" stroke-width="1.2" d="M244.88,-231C244.88,-231 144.88,-231 144.88,-231 138.88,-231 132.88,-225 132.88,-219 132.88,-219 132.88,-207 132.88,-207 132.88,-201 138.88,-195 144.88,-195 144.88,-195 244.88,-195 244.88,-195 250.88,-195 256.88,-201 256.88,-207 256.88,-207 256.88,-219 256.88,-219 256.88,-225 250.88,-231 244.88,-231"/>
<text xml:space="preserve" text-anchor="middle" x="194.88" y="-209.5" font-family="Arial" font-size="10.00" fill="#1a1a1a">(−) good color separation</text>
</g>
<!-- mark.color_segment&#45;&gt;attr_3 -->
<g id="edge4" class="edge">
<title>mark.color_segment&#45;&gt;attr_3</title>
<path fill="none" stroke="#aaaaaa" d="M78.24,-188.24C92.22,-191.23 108.46,-194.71 124.29,-198.1"/>
<polygon fill="#aaaaaa" stroke="#aaaaaa" points="123.67,-200.47 131.03,-199.54 124.7,-195.68 123.67,-200.47"/>
</g>
<!-- rel_1 -->
<g id="node14" class="node">
<title>rel_1</title>
<path fill="#f5b8b8" stroke="#d46a6a" stroke-width="1.2" d="M217.12,-166C217.12,-166 172.62,-166 172.62,-166 166.62,-166 160.62,-160 160.62,-154 160.62,-154 160.62,-142 160.62,-142 160.62,-136 166.62,-130 172.62,-130 172.62,-130 217.12,-130 217.12,-130 223.12,-130 229.12,-136 229.12,-142 229.12,-142 229.12,-154 229.12,-154 229.12,-160 223.12,-166 217.12,-166"/>
<text xml:space="preserve" text-anchor="middle" x="194.88" y="-144.5" font-family="Arial" font-size="10.00" fill="#8b0000">encodes via</text>
</g>
<!-- mark.color_segment&#45;&gt;rel_1 -->
<g id="edge9" class="edge">
<title>mark.color_segment&#45;&gt;rel_1</title>
<path fill="none" stroke="#d46a6a" stroke-width="1.5" d="M78.24,-172.01C100.05,-167.48 127.4,-161.8 150.03,-157.1"/>
<polygon fill="#d46a6a" stroke="#d46a6a" stroke-width="1.5" points="150.57,-159.85 157.84,-155.48 149.43,-154.37 150.57,-159.85"/>
</g>
<!-- text.axis_label -->
<g id="node5" class="node">
<title>text.axis_label</title>
<path fill="#b8e6b8" stroke="#2c3e50" stroke-width="1.8" d="M55.38,-68C55.38,-68 22.12,-68 22.12,-68 16.12,-68 10.13,-62 10.13,-56 10.13,-56 10.13,-44 10.13,-44 10.13,-38 16.13,-32 22.13,-32 22.13,-32 55.38,-32 55.38,-32 61.38,-32 67.38,-38 67.38,-44 67.38,-44 67.38,-56 67.38,-56 67.38,-62 61.38,-68 55.38,-68"/>
<text xml:space="preserve" text-anchor="middle" x="38.75" y="-46.5" font-family="Arial" font-size="10.00" fill="#1a1a1a">axis label</text>
</g>
<!-- attr_4 -->
<g id="node11" class="node">
<title>attr_4</title>
<path fill="#c7b8e6" stroke="#7f8c8d" stroke-width="1.2" d="M235.88,-101C235.88,-101 153.88,-101 153.88,-101 147.88,-101 141.88,-95 141.88,-89 141.88,-89 141.88,-77 141.88,-77 141.88,-71 147.88,-65 153.88,-65 153.88,-65 235.88,-65 235.88,-65 241.88,-65 247.88,-71 247.88,-77 247.88,-77 247.88,-89 247.88,-89 247.88,-95 241.88,-101 235.88,-101"/>
<text xml:space="preserve" text-anchor="middle" x="194.88" y="-79.5" font-family="Arial" font-size="10.00" fill="#1a1a1a">(−) sufficient labeling</text>
</g>
<!-- text.axis_label&#45;&gt;attr_4 -->
<g id="edge5" class="edge">
<title>text.axis_label&#45;&gt;attr_4</title>
<path fill="none" stroke="#aaaaaa" d="M68.02,-56.05C86.28,-59.96 110.76,-65.2 133.28,-70.03"/>
<polygon fill="#aaaaaa" stroke="#aaaaaa" points="132.63,-72.39 139.99,-71.46 133.65,-67.6 132.63,-72.39"/>
</g>
<!-- rel_3 -->
<g id="node16" class="node">
<title>rel_3</title>
<path fill="#f5b8b8" stroke="#d46a6a" stroke-width="1.2" d="M209.88,-36C209.88,-36 179.88,-36 179.88,-36 173.88,-36 167.88,-30 167.88,-24 167.88,-24 167.88,-12 167.88,-12 167.88,-6 173.88,0 179.88,0 179.88,0 209.88,0 209.88,0 215.88,0 221.88,-6 221.88,-12 221.88,-12 221.88,-24 221.88,-24 221.88,-30 215.88,-36 209.88,-36"/>
<text xml:space="preserve" text-anchor="middle" x="194.88" y="-14.5" font-family="Arial" font-size="10.00" fill="#8b0000">clarifies</text>
</g>
<!-- text.axis_label&#45;&gt;rel_3 -->
<g id="edge13" class="edge">
<title>text.axis_label&#45;&gt;rel_3</title>
<path fill="none" stroke="#d46a6a" stroke-width="1.5" d="M68.02,-44.13C93.14,-38.91 130.01,-31.26 157.36,-25.58"/>
<polygon fill="#d46a6a" stroke="#d46a6a" stroke-width="1.5" points="157.84,-28.34 165.11,-23.97 156.71,-22.86 157.84,-28.34"/>
</g>
<!-- furniture.legend -->
<g id="node6" class="node">
<title>furniture.legend</title>
<path fill="#b8e6b8" stroke="#2c3e50" stroke-width="1.8" d="M53.75,-556C53.75,-556 23.75,-556 23.75,-556 17.75,-556 11.75,-550 11.75,-544 11.75,-544 11.75,-532 11.75,-532 11.75,-526 17.75,-520 23.75,-520 23.75,-520 53.75,-520 53.75,-520 59.75,-520 65.75,-526 65.75,-532 65.75,-532 65.75,-544 65.75,-544 65.75,-550 59.75,-556 53.75,-556"/>
<text xml:space="preserve" text-anchor="middle" x="38.75" y="-534.5" font-family="Arial" font-size="10.00" fill="#1a1a1a">legend</text>
</g>
<!-- attr_5 -->
<g id="node12" class="node">
<title>attr_5</title>
<path fill="#c7b8e6" stroke="#7f8c8d" stroke-width="1.2" d="M237,-556C237,-556 152.75,-556 152.75,-556 146.75,-556 140.75,-550 140.75,-544 140.75,-544 140.75,-532 140.75,-532 140.75,-526 146.75,-520 152.75,-520 152.75,-520 237,-520 237,-520 243,-520 249,-526 249,-532 249,-532 249,-544 249,-544 249,-550 243,-556 237,-556"/>
<text xml:space="preserve" text-anchor="middle" x="194.88" y="-534.5" font-family="Arial" font-size="10.00" fill="#1a1a1a">(−) aids interpretation</text>
</g>
<!-- furniture.legend&#45;&gt;attr_5 -->
<g id="edge6" class="edge">
<title>furniture.legend&#45;&gt;attr_5</title>
<path fill="none" stroke="#aaaaaa" d="M66.6,-538C84.65,-538 109.21,-538 131.94,-538"/>
<polygon fill="#aaaaaa" stroke="#aaaaaa" points="131.71,-540.45 138.71,-538 131.71,-535.55 131.71,-540.45"/>
</g>
<!-- rel_0&#45;&gt;mark.bar -->
<g id="edge8" class="edge">
<title>rel_0&#45;&gt;mark.bar</title>
<path fill="none" stroke="#d46a6a" stroke-width="1.5" d="M237.43,-259.41C247.83,-254.73 258.96,-249.7 269.25,-245 280.03,-240.08 291.72,-234.68 302.37,-229.73"/>
<polygon fill="#d46a6a" stroke="#d46a6a" stroke-width="1.5" points="303.28,-232.4 309.35,-226.49 300.92,-227.32 303.28,-232.4"/>
</g>
<!-- rel_1&#45;&gt;mark.bar -->
<g id="edge10" class="edge">
<title>rel_1&#45;&gt;mark.bar</title>
<path fill="none" stroke="#d46a6a" stroke-width="1.5" d="M229.59,-162.41C242.09,-167.83 256.36,-174.11 269.25,-180 280.09,-184.95 291.8,-190.49 302.45,-195.59"/>
<polygon fill="#d46a6a" stroke="#d46a6a" stroke-width="1.5" points="301.01,-198 309.44,-198.95 303.44,-192.96 301.01,-198"/>
</g>
<!-- rel_2&#45;&gt;mark.bar -->
<g id="edge12" class="edge">
<title>rel_2&#45;&gt;mark.bar</title>
<path fill="none" stroke="#d46a6a" stroke-width="1.5" d="M251.35,-389.42C257.89,-385.68 264.07,-381.24 269.25,-376 306.62,-338.22 324.99,-277.1 332.97,-241.42"/>
<polygon fill="#d46a6a" stroke="#d46a6a" stroke-width="1.5" points="335.66,-242.27 334.57,-233.86 330.18,-241.11 335.66,-242.27"/>
</g>
<!-- rel_3&#45;&gt;mark.bar -->
<g id="edge14" class="edge">
<title>rel_3&#45;&gt;mark.bar</title>
<path fill="none" stroke="#d46a6a" stroke-width="1.5" d="M222.47,-24.29C237.82,-29.1 256.54,-37.16 269.25,-50 306.62,-87.78 324.99,-148.9 332.97,-184.58"/>
<polygon fill="#d46a6a" stroke="#d46a6a" stroke-width="1.5" points="330.18,-184.89 334.57,-192.14 335.66,-183.73 330.18,-184.89"/>
</g>
</g>
</svg>
