<?xml version="1.0" encoding="UTF-8" standalone="no"?>
<!DOCTYPE svg PUBLIC "-//W3C//DTD SVG 1.1//EN"
 "http://www.w3.org/Graphics/SVG/1.1/DTD/svg11.dtd">
<!-- Generated by graphviz version 14.1.5 (20260411.2331)
 -->
<!-- Title: wsj360.png Pages: 1 -->
<svg width="767pt" height="310pt"
 viewBox="0.00 0.00 767.00 310.00" xmlns="http://www.w3.org/2000/svg" xmlns:xlink="http://www.w3.org/1999/xlink">
<g id="graph0" class="graph" transform="scale(1 1) rotate(0) translate(4 306.25)">
<title>wsj360.png</title>
<polygon fill="white" stroke="none" points="-4,4 -4,-306.25 762.5,-306.25 762.5,4 -4,4"/>
<text xml:space="preserve" text-anchor="start" x="342.5" y="-281.95" font-family="Arial" font-weight="bold" font-size="14.00">wsj360.png</text>
<text xml:space="preserve" text-anchor="start" x="338.38" y="-262" font-family="Arial" font-size="11.00">Bar &#160;| &#160;VC = 0.49</text>
<path fill="#b8e6b8" stroke="none" d="M169.88,-237C169.88,-237 177.88,-237 177.88,-237 180.88,-237 183.88,-240 183.88,-243 183.88,-243 183.88,-249 183.88,-249 183.88,-252 180.88,-255 177.88,-255 177.88,-255 169.88,-255 169.88,-255 166.88,-255 163.88,-252 163.88,-249 163.88,-249 163.88,-243 163.88,-243 163.88,-240 166.88,-237 169.88,-237"/>
<path fill="none" stroke="black" d="M169.88,-237C169.88,-237 177.88,-237 177.88,-237 180.88,-237 183.88,-240 183.88,-243 183.88,-243 183.88,-249 183.88,-249 183.88,-252 180.88,-255 177.88,-255 177.88,-255 169.88,-255 169.88,-255 166.88,-255 163.88,-252 163.88,-249 163.88,-249 163.88,-243 163.88,-243 163.88,-240 166.88,-237 169.88,-237"/>
<text xml:space="preserve" text-anchor="start" x="172.38" y="-242.25" font-family="Arial" font-size="10.00"> </text>
<text xml:space="preserve" text-anchor="start" x="187.88" y="-242.25" font-family="Arial" font-size="10.00">Object</text>
<path fill="#c7b8e6" stroke="none" d="M226.38,-237C226.38,-237 234.38,-237 234.38,-237 237.38,-237 240.38,-240 240.38,-243 240.38,-243 240.38,-249 240.38,-249 240.38,-252 237.38,-255 234.38,-255 234.38,-255 226.38,-255 226.38,-255 223.38,-255 220.38,-252 220.38,-249 220.38,-249 220.38,-243 220.38,-243 220.38,-240 223.38,-237 226.38,-237"/>
<path fill="none" stroke="black" d="M226.38,-237C226.38,-237 234.38,-237 234.38,-237 237.38,-237 240.38,-240 240.38,-243 240.38,-243 240.38,-249 240.38,-249 240.38,-252 237.38,-255 234.38,-255 234.38,-255 226.38,-255 226.38,-255 223.38,-255 220.38,-252 220.38,-249 220.38,-249 220.38,-243 220.38,-243 220.38,-240 223.38,-237 226.38,-237"/>
<text xml:space="preserve" text-anchor="start" x="228.88" y="-242.25" font-family="Arial" font-size="10.00"> </text>
<text xml:space="preserve" text-anchor="start" x="244.38" y="-242.25" font-family="Arial" font-size="10.00">Attribute</text>
<path fill="#f5b8b8" stroke="none" d="M291.12,-237C291.12,-237 299.12,-237 299.12,-237 302.12,-237 305.12,-240 305.12,-243 305.12,-243 305.12,-249 305.12,-249 305.12,-252 302.12,-255 299.12,-255 299.12,-255 291.12,-255 291.12,-255 288.12,-255 285.12,-252 285.12,-249 285.12,-249 285.12,-243 285.12,-243 285.12,-240 288.12,-237 291.12,-237"/>
<path fill="none" stroke="black" d="M291.12,-237C291.12,-237 299.12,-237 299.12,-237 302.12,-237 305.12,-240 305.12,-243 305.12,-243 305.12,-249 305.12,-249 305.12,-252 302.12,-255 299.12,-255 299.12,-255 291.12,-255 291.12,-255 288.12,-255 285.12,-252 285.12,-249 285.12,-249 285.12,-243 285.12,-243 285.12,-240 288.12,-237 291.12,-237"/>
<text xml:space="preserve" text-anchor="start" x="293.62" y="-242.25" font-family="Arial" font-size="10.00"> </text>
<text xml:space="preserve" text-anchor="start" x="309.12" y="-242.25" font-family="Arial" font-size="10.00">Relationship</text>
<text xml:space="preserve" text-anchor="start" x="369.12" y="-243.5" font-family="Arial" font-weight="bold" font-size="10.00">(+)</text>
<text xml:space="preserve" text-anchor="start" x="381.12" y="-243.5" font-family="Arial" font-size="10.00"> increases complexity</text>
<text xml:space="preserve" text-anchor="start" x="482.38" y="-243.5" font-family="Arial" font-weight="bold" font-size="10.00">(−)</text>
<text xml:space="preserve" text-anchor="start" x="494.38" y="-243.5" font-family="Arial" font-size="10.00"> decreases complexity</text>
<!-- unknown.text_labels -->
<g id="node1" class="node">
<title>unknown.text_labels</title>
<path fill="#b8e6b8" stroke="#2c3e50" stroke-width="1.8" d="M49,-157C49,-157 12,-157 12,-157 6,-157 0,-151 0,-145 0,-145 0,-133 0,-133 0,-127 6,-121 12,-121 12,-121 49,-121 49,-121 55,-121 61,-127 61,-133 61,-133 61,-145 61,-145 61,-151 55,-157 49,-157"/>
<text xml:space="preserve" text-anchor="middle" x="30.5" y="-135.5" font-family="Arial" font-size="10.00" fill="#1a1a1a">text labels</text>
</g>
<!-- attr_0 -->
<g id="node5" class="node">
<title>attr_0</title>
<path fill="#c7b8e6" stroke="#7f8c8d" stroke-width="1.2" d="M202.12,-222C202.12,-222 123.12,-222 123.12,-222 117.12,-222 111.12,-216 111.12,-210 111.12,-210 111.12,-198 111.12,-198 111.12,-192 117.12,-186 123.12,-186 123.12,-186 202.12,-186 202.12,-186 208.12,-186 214.12,-192 214.12,-198 214.12,-198 214.12,-210 214.12,-210 214.12,-216 208.12,-222 202.12,-222"/>
<text xml:space="preserve" text-anchor="middle" x="162.62" y="-200.5" font-family="Arial" font-size="10.00" fill="#1a1a1a">(+) high text volume</text>
</g>
<!-- unknown.text_labels&#45;&gt;attr_0 -->
<g id="edge1" class="edge">
<title>unknown.text_labels&#45;&gt;attr_0</title>
<path fill="none" stroke="#aaaaaa" d="M61.68,-154.08C78.25,-162.35 99.11,-172.77 117.47,-181.95"/>
<polygon fill="#aaaaaa" stroke="#aaaaaa" points="115.93,-183.91 123.29,-184.85 118.12,-179.53 115.93,-183.91"/>
</g>
<!-- rel_0 -->
<g id="node10" class="node">
<title>rel_0</title>
<path fill="#f5b8b8" stroke="#d46a6a" stroke-width="1.2" d="M209.25,-157C209.25,-157 116,-157 116,-157 110,-157 104,-151 104,-145 104,-145 104,-133 104,-133 104,-127 110,-121 116,-121 116,-121 209.25,-121 209.25,-121 215.25,-121 221.25,-127 221.25,-133 221.25,-133 221.25,-145 221.25,-145 221.25,-151 215.25,-157 209.25,-157"/>
<text xml:space="preserve" text-anchor="middle" x="162.62" y="-135.5" font-family="Arial" font-size="10.00" fill="#8b0000">increases reading effort</text>
</g>
<!-- unknown.text_labels&#45;&gt;rel_0 -->
<g id="edge6" class="edge">
<title>unknown.text_labels&#45;&gt;rel_0</title>
<path fill="none" stroke="#d46a6a" stroke-width="1.5" d="M61.68,-139C71.22,-139 82.19,-139 93.28,-139"/>
<polygon fill="#d46a6a" stroke="#d46a6a" stroke-width="1.5" points="93.19,-141.8 101.19,-139 93.19,-136.2 93.19,-141.8"/>
</g>
<!-- rel_2 -->
<g id="node12" class="node">
<title>rel_2</title>
<path fill="#f5b8b8" stroke="#d46a6a" stroke-width="1.2" d="M184.88,-84C184.88,-84 140.38,-84 140.38,-84 134.38,-84 128.38,-78 128.38,-72 128.38,-72 128.38,-60 128.38,-60 128.38,-54 134.38,-48 140.38,-48 140.38,-48 184.88,-48 184.88,-48 190.88,-48 196.88,-54 196.88,-60 196.88,-60 196.88,-72 196.88,-72 196.88,-78 190.88,-84 184.88,-84"/>
<text xml:space="preserve" text-anchor="middle" x="162.62" y="-62.5" font-family="Arial" font-size="10.00" fill="#8b0000">overwhelms</text>
</g>
<!-- unknown.text_labels&#45;&gt;rel_2 -->
<g id="edge10" class="edge">
<title>unknown.text_labels&#45;&gt;rel_2</title>
<path fill="none" stroke="#d46a6a" stroke-width="1.5" d="M61.68,-122.07C79.05,-112.32 101.13,-99.94 120.12,-89.29"/>
<polygon fill="#d46a6a" stroke="#d46a6a" stroke-width="1.5" points="121.29,-91.84 126.89,-85.48 118.55,-86.96 121.29,-91.84"/>
</g>
<!-- unknown.bars -->
<g id="node2" class="node">
<title>unknown.bars</title>
<path fill="#b8e6b8" stroke="#2c3e50" stroke-width="1.8" d="M589.25,-101C589.25,-101 559.25,-101 559.25,-101 553.25,-101 547.25,-95 547.25,-89 547.25,-89 547.25,-77 547.25,-77 547.25,-71 553.25,-65 559.25,-65 559.25,-65 589.25,-65 589.25,-65 595.25,-65 601.25,-71 601.25,-77 601.25,-77 601.25,-89 601.25,-89 601.25,-95 595.25,-101 589.25,-101"/>
<text xml:space="preserve" text-anchor="middle" x="574.25" y="-79.5" font-family="Arial" font-size="10.00" fill="#1a1a1a">bars</text>
</g>
<!-- attr_4 -->
<g id="node6" class="node">
<title>attr_4</title>
<path fill="#c7b8e6" stroke="#7f8c8d" stroke-width="1.2" d="M746.5,-101C746.5,-101 656.25,-101 656.25,-101 650.25,-101 644.25,-95 644.25,-89 644.25,-89 644.25,-77 644.25,-77 644.25,-71 650.25,-65 656.25,-65 656.25,-65 746.5,-65 746.5,-65 752.5,-65 758.5,-71 758.5,-77 758.5,-77 758.5,-89 758.5,-89 758.5,-95 752.5,-101 746.5,-101"/>
<text xml:space="preserve" text-anchor="middle" x="701.38" y="-79.5" font-family="Arial" font-size="10.00" fill="#1a1a1a">(+) many bar elements</text>
</g>
<!-- unknown.bars&#45;&gt;attr_4 -->
<g id="edge2" class="edge">
<title>unknown.bars&#45;&gt;attr_4</title>
<path fill="none" stroke="#aaaaaa" d="M602.09,-83C612.01,-83 623.73,-83 635.56,-83"/>
<polygon fill="#aaaaaa" stroke="#aaaaaa" points="635.23,-85.45 642.23,-83 635.23,-80.55 635.23,-85.45"/>
</g>
<!-- unknown.charts -->
<g id="node3" class="node">
<title>unknown.charts</title>
<path fill="#b8e6b8" stroke="#2c3e50" stroke-width="1.8" d="M307.88,-161C307.88,-161 277.88,-161 277.88,-161 271.88,-161 265.88,-155 265.88,-149 265.88,-149 265.88,-137 265.88,-137 265.88,-131 271.88,-125 277.88,-125 277.88,-125 307.88,-125 307.88,-125 313.88,-125 319.88,-131 319.88,-137 319.88,-137 319.88,-149 319.88,-149 319.88,-155 313.88,-161 307.88,-161"/>
<text xml:space="preserve" text-anchor="middle" x="292.88" y="-139.5" font-family="Arial" font-size="10.00" fill="#1a1a1a">charts</text>
</g>
<!-- attr_1 -->
<g id="node7" class="node">
<title>attr_1</title>
<path fill="#c7b8e6" stroke="#7f8c8d" stroke-width="1.2" d="M492.25,-231C492.25,-231 376.5,-231 376.5,-231 370.5,-231 364.5,-225 364.5,-219 364.5,-219 364.5,-207 364.5,-207 364.5,-201 370.5,-195 376.5,-195 376.5,-195 492.25,-195 492.25,-195 498.25,-195 504.25,-201 504.25,-207 504.25,-207 504.25,-219 504.25,-219 504.25,-225 498.25,-231 492.25,-231"/>
<text xml:space="preserve" text-anchor="middle" x="434.38" y="-209.5" font-family="Arial" font-size="10.00" fill="#1a1a1a">(+) multiple subplots present</text>
</g>
<!-- unknown.charts&#45;&gt;attr_1 -->
<g id="edge3" class="edge">
<title>unknown.charts&#45;&gt;attr_1</title>
<path fill="none" stroke="#aaaaaa" d="M320.51,-157.81C333.66,-164.99 349.81,-173.64 364.5,-181 371.08,-184.3 378.06,-187.67 384.96,-190.94"/>
<polygon fill="#aaaaaa" stroke="#aaaaaa" points="383.65,-193.03 391.03,-193.8 385.74,-188.6 383.65,-193.03"/>
</g>
<!-- attr_2 -->
<g id="node8" class="node">
<title>attr_2</title>
<path fill="#c7b8e6" stroke="#7f8c8d" stroke-width="1.2" d="M489.62,-166C489.62,-166 379.12,-166 379.12,-166 373.12,-166 367.12,-160 367.12,-154 367.12,-154 367.12,-142 367.12,-142 367.12,-136 373.12,-130 379.12,-130 379.12,-130 489.62,-130 489.62,-130 495.62,-130 501.62,-136 501.62,-142 501.62,-142 501.62,-154 501.62,-154 501.62,-160 495.62,-166 489.62,-166"/>
<text xml:space="preserve" text-anchor="middle" x="434.38" y="-144.5" font-family="Arial" font-size="10.00" fill="#1a1a1a">(+) repeated chart structure</text>
</g>
<!-- unknown.charts&#45;&gt;attr_2 -->
<g id="edge4" class="edge">
<title>unknown.charts&#45;&gt;attr_2</title>
<path fill="none" stroke="#aaaaaa" d="M320.77,-143.96C331.66,-144.35 344.81,-144.83 358.24,-145.31"/>
<polygon fill="#aaaaaa" stroke="#aaaaaa" points="358.02,-147.75 365.1,-145.55 358.19,-142.85 358.02,-147.75"/>
</g>
<!-- rel_1 -->
<g id="node11" class="node">
<title>rel_1</title>
<path fill="#f5b8b8" stroke="#d46a6a" stroke-width="1.2" d="M451,-101C451,-101 417.75,-101 417.75,-101 411.75,-101 405.75,-95 405.75,-89 405.75,-89 405.75,-77 405.75,-77 405.75,-71 411.75,-65 417.75,-65 417.75,-65 451,-65 451,-65 457,-65 463,-71 463,-77 463,-77 463,-89 463,-89 463,-95 457,-101 451,-101"/>
<text xml:space="preserve" text-anchor="middle" x="434.38" y="-79.5" font-family="Arial" font-size="10.00" fill="#8b0000">multiplies</text>
</g>
<!-- unknown.charts&#45;&gt;rel_1 -->
<g id="edge8" class="edge">
<title>unknown.charts&#45;&gt;rel_1</title>
<path fill="none" stroke="#d46a6a" stroke-width="1.5" d="M320.77,-131.43C342.2,-122.21 372.45,-109.2 396.2,-98.99"/>
<polygon fill="#d46a6a" stroke="#d46a6a" stroke-width="1.5" points="397.28,-101.57 403.52,-95.84 395.06,-96.43 397.28,-101.57"/>
</g>
<!-- text.axis_label -->
<g id="node4" class="node">
<title>text.axis_label</title>
<path fill="#b8e6b8" stroke="#2c3e50" stroke-width="1.8" d="M309.5,-68C309.5,-68 276.25,-68 276.25,-68 270.25,-68 264.25,-62 264.25,-56 264.25,-56 264.25,-44 264.25,-44 264.25,-38 270.25,-32 276.25,-32 276.25,-32 309.5,-32 309.5,-32 315.5,-32 321.5,-38 321.5,-44 321.5,-44 321.5,-56 321.5,-56 321.5,-62 315.5,-68 309.5,-68"/>
<text xml:space="preserve" text-anchor="middle" x="292.88" y="-46.5" font-family="Arial" font-size="10.00" fill="#1a1a1a">axis label</text>
</g>
<!-- attr_3 -->
<g id="node9" class="node">
<title>attr_3</title>
<path fill="#c7b8e6" stroke="#7f8c8d" stroke-width="1.2" d="M484,-36C484,-36 384.75,-36 384.75,-36 378.75,-36 372.75,-30 372.75,-24 372.75,-24 372.75,-12 372.75,-12 372.75,-6 378.75,0 384.75,0 384.75,0 484,0 484,0 490,0 496,-6 496,-12 496,-12 496,-24 496,-24 496,-30 490,-36 484,-36"/>
<text xml:space="preserve" text-anchor="middle" x="434.38" y="-14.5" font-family="Arial" font-size="10.00" fill="#1a1a1a">(+) numerous axis labels</text>
</g>
<!-- text.axis_label&#45;&gt;attr_3 -->
<g id="edge5" class="edge">
<title>text.axis_label&#45;&gt;attr_3</title>
<path fill="none" stroke="#aaaaaa" d="M322.1,-43.52C334.33,-40.72 349.23,-37.3 364.1,-33.89"/>
<polygon fill="#aaaaaa" stroke="#aaaaaa" points="364.6,-36.29 370.87,-32.34 363.5,-31.51 364.6,-36.29"/>
</g>
<!-- rel_0&#45;&gt;unknown.charts -->
<g id="edge7" class="edge">
<title>rel_0&#45;&gt;unknown.charts</title>
<path fill="none" stroke="#d46a6a" stroke-width="1.5" d="M221.75,-140.81C233.08,-141.17 244.66,-141.53 255.07,-141.85"/>
<polygon fill="#d46a6a" stroke="#d46a6a" stroke-width="1.5" points="254.68,-144.64 262.76,-142.09 254.85,-139.04 254.68,-144.64"/>
</g>
<!-- rel_1&#45;&gt;unknown.bars -->
<g id="edge9" class="edge">
<title>rel_1&#45;&gt;unknown.bars</title>
<path fill="none" stroke="#d46a6a" stroke-width="1.5" d="M463.28,-83C484.43,-83 513.69,-83 536.71,-83"/>
<polygon fill="#d46a6a" stroke="#d46a6a" stroke-width="1.5" points="536.52,-85.8 544.52,-83 536.52,-80.2 536.52,-85.8"/>
</g>
<!-- rel_2&#45;&gt;text.axis_label -->
<g id="edge11" class="edge">
<title>rel_2&#45;&gt;text.axis_label</title>
<path fill="none" stroke="#d46a6a" stroke-width="1.5" d="M197.32,-61.8C214.57,-59.64 235.64,-57.02 253.51,-54.79"/>
<polygon fill="#d46a6a" stroke="#d46a6a" stroke-width="1.5" points="253.76,-57.58 261.35,-53.81 253.07,-52.02 253.76,-57.58"/>
</g>
</g>
</svg>
