<?xml version="1.0" encoding="UTF-8" standalone="no"?>
<!DOCTYPE svg PUBLIC "-//W3C//DTD SVG 1.1//EN"
 "http://www.w3.org/Graphics/SVG/1.1/DTD/svg11.dtd">
<!-- Generated by graphviz version 14.1.5 (20260411.2331)
 -->
<!-- Title: wsj511.png Pages: 1 -->
<svg width="784pt" height="310pt"
 viewBox="0.00 0.00 784.00 310.00" xmlns="http://www.w3.org/2000/svg" xmlns:xlink="http://www.w3.org/1999/xlink">
<g id="graph0" class="graph" transform="scale(1 1) rotate(0) translate(4 306.25)">
<title>wsj511.png</title>
<polygon fill="white" stroke="none" points="-4,4 -4,-306.25 779.5,-306.25 779.5,4 -4,4"/>
<text xml:space="preserve" text-anchor="start" x="351.38" y="-281.95" font-family="Arial" font-weight="bold" font-size="14.00">wsj511.png</text>
<text xml:space="preserve" text-anchor="start" x="343.88" y="-262" font-family="Arial" font-size="11.00">Area &#160;| &#160;VC = 0.37</text>
<path fill="#b8e6b8" stroke="none" d="M178.38,-237C178.38,-237 186.38,-237 186.38,-237 189.38,-237 192.38,-240 192.38,-243 192.38,-243 192.38,-249 192.38,-249 192.38,-252 189.38,-255 186.38,-255 186.38,-255 178.38,-255 178.38,-255 175.38,-255 172.38,-252 172.38,-249 172.38,-249 172.38,-243 172.38,-243 172.38,-240 175.38,-237 178.38,-237"/>
<path fill="none" stroke="black" d="M178.38,-237C178.38,-237 186.38,-237 186.38,-237 189.38,-237 192.38,-240 192.38,-243 192.38,-243 192.38,-249 192.38,-249 192.38,-252 189.38,-255 186.38,-255 186.38,-255 178.38,-255 178.38,-255 175.38,-255 172.38,-252 172.38,-249 172.38,-249 172.38,-243 172.38,-243 172.38,-240 175.38,-237 178.38,-237"/>
<text xml:space="preserve" text-anchor="start" x="180.88" y="-242.25" font-family="Arial" font-size="10.00"> </text>
<text xml:space="preserve" text-anchor="start" x="196.38" y="-242.25" font-family="Arial" font-size="10.00">Object</text>
<path fill="#c7b8e6" stroke="none" d="M234.88,-237C234.88,-237 242.88,-237 242.88,-237 245.88,-237 248.88,-240 248.88,-243 248.88,-243 248.88,-249 248.88,-249 248.88,-252 245.88,-255 242.88,-255 242.88,-255 234.88,-255 234.88,-255 231.88,-255 228.88,-252 228.88,-249 228.88,-249 228.88,-243 228.88,-243 228.88,-240 231.88,-237 234.88,-237"/>
<path fill="none" stroke="black" d="M234.88,-237C234.88,-237 242.88,-237 242.88,-237 245.88,-237 248.88,-240 248.88,-243 248.88,-243 248.88,-249 248.88,-249 248.88,-252 245.88,-255 242.88,-255 242.88,-255 234.88,-255 234.88,-255 231.88,-255 228.88,-252 228.88,-249 228.88,-249 228.88,-243 228.88,-243 228.88,-240 231.88,-237 234.88,-237"/>
<text xml:space="preserve" text-anchor="start" x="237.38" y="-242.25" font-family="Arial" font-size="10.00"> </text>
<text xml:space="preserve" text-anchor="start" x="252.88" y="-242.25" font-family="Arial" font-size="10.00">Attribute</text>
<path fill="#f5b8b8" stroke="none" d="M299.62,-237C299.62,-237 307.62,-237 307.62,-237 310.62,-237 313.62,-240 313.62,-243 313.62,-243 313.62,-249 313.62,-249 313.62,-252 310.62,-255 307.62,-255 307.62,-255 299.62,-255 299.62,-255 296.62,-255 293.62,-252 293.62,-249 293.62,-249 293.62,-243 293.62,-243 293.62,-240 296.62,-237 299.62,-237"/>
<path fill="none" stroke="black" d="M299.62,-237C299.62,-237 307.62,-237 307.62,-237 310.62,-237 313.62,-240 313.62,-243 313.62,-243 313.62,-249 313.62,-249 313.62,-252 310.62,-255 307.62,-255 307.62,-255 299.62,-255 299.62,-255 296.62,-255 293.62,-252 293.62,-249 293.62,-249 293.62,-243 293.62,-243 293.62,-240 296.62,-237 299.62,-237"/>
<text xml:space="preserve" text-anchor="start" x="302.12" y="-242.25" font-family="Arial" font-size="10.00"> </text>
<text xml:space="preserve" text-anchor="start" x="317.62" y="-242.25" font-family="Arial" font-size="10.00">Relationship</text>
<text xml:space="preserve" text-anchor="start" x="377.62" y="-243.5" font-family="Arial" font-weight="bold" font-size="10.00">(+)</text>
<text xml:space="preserve" text-anchor="start" x="389.62" y="-243.5" font-family="Arial" font-size="10.00"> increases complexity</text>
<text xml:space="preserve" text-anchor="start" x="490.88" y="-243.5" font-family="Arial" font-weight="bold" font-size="10.00">(−)</text>
<text xml:space="preserve" text-anchor="start" x="502.88" y="-243.5" font-family="Arial" font-size="10.00"> decreases complexity</text>
<!-- unknown.area_chart -->
<g id="node1" class="node">
<title>unknown.area_chart</title>
<path fill="#b8e6b8" stroke="#2c3e50" stroke-width="1.8" d="M322,-69C322,-69 286.5,-69 286.5,-69 280.5,-69 274.5,-63 274.5,-57 274.5,-57 274.5,-45 274.5,-45 274.5,-39 280.5,-33 286.5,-33 286.5,-33 322,-33 322,-33 328,-33 334,-39 334,-45 334,-45 334,-57 334,-57 334,-63 328,-69 322,-69"/>
<text xml:space="preserve" text-anchor="middle" x="304.25" y="-47.5" font-family="Arial" font-size="10.00" fill="#1a1a1a">area chart</text>
</g>
<!-- attr_0 -->
<g id="node6" class="node">
<title>attr_0</title>
<path fill="#c7b8e6" stroke="#7f8c8d" stroke-width="1.2" d="M481.88,-101C481.88,-101 420.88,-101 420.88,-101 414.88,-101 408.88,-95 408.88,-89 408.88,-89 408.88,-77 408.88,-77 408.88,-71 414.88,-65 420.88,-65 420.88,-65 481.88,-65 481.88,-65 487.88,-65 493.88,-71 493.88,-77 493.88,-77 493.88,-89 493.88,-89 493.88,-95 487.88,-101 481.88,-101"/>
<text xml:space="preserve" text-anchor="middle" x="451.38" y="-79.5" font-family="Arial" font-size="10.00" fill="#1a1a1a">(−) easy to read</text>
</g>
<!-- unknown.area_chart&#45;&gt;attr_0 -->
<g id="edge1" class="edge">
<title>unknown.area_chart&#45;&gt;attr_0</title>
<path fill="none" stroke="#aaaaaa" d="M334.62,-57.48C353.42,-61.62 378.3,-67.11 400.18,-71.93"/>
<polygon fill="#aaaaaa" stroke="#aaaaaa" points="399.56,-74.3 406.92,-73.42 400.61,-69.52 399.56,-74.3"/>
</g>
<!-- rel_2 -->
<g id="node13" class="node">
<title>rel_2</title>
<path fill="#f5b8b8" stroke="#d46a6a" stroke-width="1.2" d="M481.88,-36C481.88,-36 420.88,-36 420.88,-36 414.88,-36 408.88,-30 408.88,-24 408.88,-24 408.88,-12 408.88,-12 408.88,-6 414.88,0 420.88,0 420.88,0 481.88,0 481.88,0 487.88,0 493.88,-6 493.88,-12 493.88,-12 493.88,-24 493.88,-24 493.88,-30 487.88,-36 481.88,-36"/>
<text xml:space="preserve" text-anchor="middle" x="451.38" y="-14.5" font-family="Arial" font-size="10.00" fill="#8b0000">presents clearly</text>
</g>
<!-- unknown.area_chart&#45;&gt;rel_2 -->
<g id="edge10" class="edge">
<title>unknown.area_chart&#45;&gt;rel_2</title>
<path fill="none" stroke="#d46a6a" stroke-width="1.5" d="M334.62,-44.32C352.92,-40.16 376.99,-34.69 398.44,-29.81"/>
<polygon fill="#d46a6a" stroke="#d46a6a" stroke-width="1.5" points="399.01,-32.55 406.19,-28.05 397.76,-27.09 399.01,-32.55"/>
</g>
<!-- property.color -->
<g id="node2" class="node">
<title>property.color</title>
<path fill="#b8e6b8" stroke="#2c3e50" stroke-width="1.8" d="M319.25,-198C319.25,-198 289.25,-198 289.25,-198 283.25,-198 277.25,-192 277.25,-186 277.25,-186 277.25,-174 277.25,-174 277.25,-168 283.25,-162 289.25,-162 289.25,-162 319.25,-162 319.25,-162 325.25,-162 331.25,-168 331.25,-174 331.25,-174 331.25,-186 331.25,-186 331.25,-192 325.25,-198 319.25,-198"/>
<text xml:space="preserve" text-anchor="middle" x="304.25" y="-176.5" font-family="Arial" font-size="10.00" fill="#1a1a1a">color</text>
</g>
<!-- attr_1 -->
<g id="node7" class="node">
<title>attr_1</title>
<path fill="#c7b8e6" stroke="#7f8c8d" stroke-width="1.2" d="M513.75,-231C513.75,-231 389,-231 389,-231 383,-231 377,-225 377,-219 377,-219 377,-207 377,-207 377,-201 383,-195 389,-195 389,-195 513.75,-195 513.75,-195 519.75,-195 525.75,-201 525.75,-207 525.75,-207 525.75,-219 525.75,-219 525.75,-225 519.75,-231 513.75,-231"/>
<text xml:space="preserve" text-anchor="middle" x="451.38" y="-209.5" font-family="Arial" font-size="10.00" fill="#1a1a1a">(−) clear distinguishable colors</text>
</g>
<!-- property.color&#45;&gt;attr_1 -->
<g id="edge2" class="edge">
<title>property.color&#45;&gt;attr_1</title>
<path fill="none" stroke="#aaaaaa" d="M331.87,-186.05C342.44,-188.46 355.22,-191.36 368.42,-194.37"/>
<polygon fill="#aaaaaa" stroke="#aaaaaa" points="367.84,-196.74 375.21,-195.91 368.92,-191.97 367.84,-196.74"/>
</g>
<!-- rel_0 -->
<g id="node11" class="node">
<title>rel_0</title>
<path fill="#f5b8b8" stroke="#d46a6a" stroke-width="1.2" d="M497.62,-166C497.62,-166 405.12,-166 405.12,-166 399.12,-166 393.12,-160 393.12,-154 393.12,-154 393.12,-142 393.12,-142 393.12,-136 399.12,-130 405.12,-130 405.12,-130 497.62,-130 497.62,-130 503.62,-130 509.62,-136 509.62,-142 509.62,-142 509.62,-154 509.62,-154 509.62,-160 503.62,-166 497.62,-166"/>
<text xml:space="preserve" text-anchor="middle" x="451.38" y="-144.5" font-family="Arial" font-size="10.00" fill="#8b0000">enhances readability of</text>
</g>
<!-- property.color&#45;&gt;rel_0 -->
<g id="edge6" class="edge">
<title>property.color&#45;&gt;rel_0</title>
<path fill="none" stroke="#d46a6a" stroke-width="1.5" d="M331.87,-174.13C346.23,-170.96 364.67,-166.9 382.7,-162.92"/>
<polygon fill="#d46a6a" stroke="#d46a6a" stroke-width="1.5" points="383.23,-165.67 390.44,-161.22 382.02,-160.2 383.23,-165.67"/>
</g>
<!-- content.data -->
<g id="node3" class="node">
<title>content.data</title>
<path fill="#b8e6b8" stroke="#2c3e50" stroke-width="1.8" d="M610.75,-101C610.75,-101 580.75,-101 580.75,-101 574.75,-101 568.75,-95 568.75,-89 568.75,-89 568.75,-77 568.75,-77 568.75,-71 574.75,-65 580.75,-65 580.75,-65 610.75,-65 610.75,-65 616.75,-65 622.75,-71 622.75,-77 622.75,-77 622.75,-89 622.75,-89 622.75,-95 616.75,-101 610.75,-101"/>
<text xml:space="preserve" text-anchor="middle" x="595.75" y="-79.5" font-family="Arial" font-size="10.00" fill="#1a1a1a">data</text>
</g>
<!-- attr_2 -->
<g id="node8" class="node">
<title>attr_2</title>
<path fill="#c7b8e6" stroke="#7f8c8d" stroke-width="1.2" d="M763.5,-101C763.5,-101 677.75,-101 677.75,-101 671.75,-101 665.75,-95 665.75,-89 665.75,-89 665.75,-77 665.75,-77 665.75,-71 671.75,-65 677.75,-65 677.75,-65 763.5,-65 763.5,-65 769.5,-65 775.5,-71 775.5,-77 775.5,-77 775.5,-89 775.5,-89 775.5,-95 769.5,-101 763.5,-101"/>
<text xml:space="preserve" text-anchor="middle" x="720.62" y="-79.5" font-family="Arial" font-size="10.00" fill="#1a1a1a">(−) visible at a glance</text>
</g>
<!-- content.data&#45;&gt;attr_2 -->
<g id="edge3" class="edge">
<title>content.data&#45;&gt;attr_2</title>
<path fill="none" stroke="#aaaaaa" d="M623.41,-83C633.39,-83 645.19,-83 657.05,-83"/>
<polygon fill="#aaaaaa" stroke="#aaaaaa" points="656.74,-85.45 663.74,-83 656.74,-80.55 656.74,-85.45"/>
</g>
<!-- structure.layout -->
<g id="node4" class="node">
<title>structure.layout</title>
<path fill="#b8e6b8" stroke="#2c3e50" stroke-width="1.8" d="M42,-101C42,-101 12,-101 12,-101 6,-101 0,-95 0,-89 0,-89 0,-77 0,-77 0,-71 6,-65 12,-65 12,-65 42,-65 42,-65 48,-65 54,-71 54,-77 54,-77 54,-89 54,-89 54,-95 48,-101 42,-101"/>
<text xml:space="preserve" text-anchor="middle" x="27" y="-79.5" font-family="Arial" font-size="10.00" fill="#1a1a1a">layout</text>
</g>
<!-- attr_3 -->
<g id="node9" class="node">
<title>attr_3</title>
<path fill="#c7b8e6" stroke="#7f8c8d" stroke-width="1.2" d="M219.5,-134C219.5,-134 109,-134 109,-134 103,-134 97,-128 97,-122 97,-122 97,-110 97,-110 97,-104 103,-98 109,-98 109,-98 219.5,-98 219.5,-98 225.5,-98 231.5,-104 231.5,-110 231.5,-110 231.5,-122 231.5,-122 231.5,-128 225.5,-134 219.5,-134"/>
<text xml:space="preserve" text-anchor="middle" x="164.25" y="-112.5" font-family="Arial" font-size="10.00" fill="#1a1a1a">(−) well organized structure</text>
</g>
<!-- structure.layout&#45;&gt;attr_3 -->
<g id="edge4" class="edge">
<title>structure.layout&#45;&gt;attr_3</title>
<path fill="none" stroke="#aaaaaa" d="M54.72,-89.52C64.64,-91.94 76.43,-94.82 88.53,-97.77"/>
<polygon fill="#aaaaaa" stroke="#aaaaaa" points="87.66,-100.08 95.04,-99.36 88.82,-95.32 87.66,-100.08"/>
</g>
<!-- rel_1 -->
<g id="node12" class="node">
<title>rel_1</title>
<path fill="#f5b8b8" stroke="#d46a6a" stroke-width="1.2" d="M216.5,-69C216.5,-69 112,-69 112,-69 106,-69 100,-63 100,-57 100,-57 100,-45 100,-45 100,-39 106,-33 112,-33 112,-33 216.5,-33 216.5,-33 222.5,-33 228.5,-39 228.5,-45 228.5,-45 228.5,-57 228.5,-57 228.5,-63 222.5,-69 216.5,-69"/>
<text xml:space="preserve" text-anchor="middle" x="164.25" y="-47.5" font-family="Arial" font-size="10.00" fill="#8b0000">facilitates interpretation of</text>
</g>
<!-- structure.layout&#45;&gt;rel_1 -->
<g id="edge8" class="edge">
<title>structure.layout&#45;&gt;rel_1</title>
<path fill="none" stroke="#d46a6a" stroke-width="1.5" d="M54.72,-76.68C65.03,-74.24 77.36,-71.32 89.96,-68.34"/>
<polygon fill="#d46a6a" stroke="#d46a6a" stroke-width="1.5" points="90.27,-71.14 97.41,-66.58 88.98,-65.69 90.27,-71.14"/>
</g>
<!-- furniture.legend -->
<g id="node5" class="node">
<title>furniture.legend</title>
<path fill="#b8e6b8" stroke="#2c3e50" stroke-width="1.8" d="M42,-199C42,-199 12,-199 12,-199 6,-199 0,-193 0,-187 0,-187 0,-175 0,-175 0,-169 6,-163 12,-163 12,-163 42,-163 42,-163 48,-163 54,-169 54,-175 54,-175 54,-187 54,-187 54,-193 48,-199 42,-199"/>
<text xml:space="preserve" text-anchor="middle" x="27" y="-177.5" font-family="Arial" font-size="10.00" fill="#1a1a1a">legend</text>
</g>
<!-- attr_4 -->
<g id="node10" class="node">
<title>attr_4</title>
<path fill="#c7b8e6" stroke="#7f8c8d" stroke-width="1.2" d="M199.25,-199C199.25,-199 129.25,-199 129.25,-199 123.25,-199 117.25,-193 117.25,-187 117.25,-187 117.25,-175 117.25,-175 117.25,-169 123.25,-163 129.25,-163 129.25,-163 199.25,-163 199.25,-163 205.25,-163 211.25,-169 211.25,-175 211.25,-175 211.25,-187 211.25,-187 211.25,-193 205.25,-199 199.25,-199"/>
<text xml:space="preserve" text-anchor="middle" x="164.25" y="-177.5" font-family="Arial" font-size="10.00" fill="#1a1a1a">(−) clear encoding</text>
</g>
<!-- furniture.legend&#45;&gt;attr_4 -->
<g id="edge5" class="edge">
<title>furniture.legend&#45;&gt;attr_4</title>
<path fill="none" stroke="#aaaaaa" d="M54.72,-181C70.08,-181 89.94,-181 108.46,-181"/>
<polygon fill="#aaaaaa" stroke="#aaaaaa" points="108.35,-183.45 115.35,-181 108.35,-178.55 108.35,-183.45"/>
</g>
<!-- rel_0&#45;&gt;content.data -->
<g id="edge7" class="edge">
<title>rel_0&#45;&gt;content.data</title>
<path fill="none" stroke="#d46a6a" stroke-width="1.5" d="M493.93,-129.41C504.33,-124.73 515.46,-119.7 525.75,-115 536.53,-110.08 548.22,-104.68 558.87,-99.73"/>
<polygon fill="#d46a6a" stroke="#d46a6a" stroke-width="1.5" points="559.78,-102.4 565.85,-96.49 557.42,-97.32 559.78,-102.4"/>
</g>
<!-- rel_1&#45;&gt;unknown.area_chart -->
<g id="edge9" class="edge">
<title>rel_1&#45;&gt;unknown.area_chart</title>
<path fill="none" stroke="#d46a6a" stroke-width="1.5" d="M229,-51C240.88,-51 252.97,-51 263.85,-51"/>
<polygon fill="#d46a6a" stroke="#d46a6a" stroke-width="1.5" points="263.59,-53.8 271.59,-51 263.59,-48.2 263.59,-53.8"/>
</g>
<!-- rel_2&#45;&gt;content.data -->
<g id="edge11" class="edge">
<title>rel_2&#45;&gt;content.data</title>
<path fill="none" stroke="#d46a6a" stroke-width="1.5" d="M494.39,-36.03C504.68,-40.52 515.64,-45.38 525.75,-50 536.59,-54.95 548.3,-60.49 558.95,-65.59"/>
<polygon fill="#d46a6a" stroke="#d46a6a" stroke-width="1.5" points="557.51,-68 565.94,-68.95 559.94,-62.96 557.51,-68"/>
</g>
</g>
</svg>
