<?xml version="1.0" encoding="UTF-8" standalone="no"?>
<!DOCTYPE svg PUBLIC "-//W3C//DTD SVG 1.1//EN"
 "http://www.w3.org/Graphics/SVG/1.1/DTD/svg11.dtd">
<!-- Generated by graphviz version 14.1.5 (20260411.2331)
 -->
<!-- Title: wsj99.png Pages: 1 -->
<svg width="594pt" height="440pt"
 viewBox="0.00 0.00 594.00 440.00" xmlns="http://www.w3.org/2000/svg" xmlns:xlink="http://www.w3.org/1999/xlink">
<g id="graph0" class="graph" transform="scale(1 1) rotate(0) translate(4 436.25)">
<title>wsj99.png</title>
<polygon fill="white" stroke="none" points="-4,4 -4,-436.25 589.5,-436.25 589.5,4 -4,4"/>
<text xml:space="preserve" text-anchor="start" x="259.75" y="-411.95" font-family="Arial" font-weight="bold" font-size="14.00">wsj99.png</text>
<text xml:space="preserve" text-anchor="start" x="248.88" y="-392" font-family="Arial" font-size="11.00">Area &#160;| &#160;VC = 0.52</text>
<path fill="#b8e6b8" stroke="none" d="M83.38,-367C83.38,-367 91.38,-367 91.38,-367 94.38,-367 97.38,-370 97.38,-373 97.38,-373 97.38,-379 97.38,-379 97.38,-382 94.38,-385 91.38,-385 91.38,-385 83.38,-385 83.38,-385 80.38,-385 77.38,-382 77.38,-379 77.38,-379 77.38,-373 77.38,-373 77.38,-370 80.38,-367 83.38,-367"/>
<path fill="none" stroke="black" d="M83.38,-367C83.38,-367 91.38,-367 91.38,-367 94.38,-367 97.38,-370 97.38,-373 97.38,-373 97.38,-379 97.38,-379 97.38,-382 94.38,-385 91.38,-385 91.38,-385 83.38,-385 83.38,-385 80.38,-385 77.38,-382 77.38,-379 77.38,-379 77.38,-373 77.38,-373 77.38,-370 80.38,-367 83.38,-367"/>
<text xml:space="preserve" text-anchor="start" x="85.88" y="-372.25" font-family="Arial" font-size="10.00"> </text>
<text xml:space="preserve" text-anchor="start" x="101.38" y="-372.25" font-family="Arial" font-size="10.00">Object</text>
<path fill="#c7b8e6" stroke="none" d="M139.88,-367C139.88,-367 147.88,-367 147.88,-367 150.88,-367 153.88,-370 153.88,-373 153.88,-373 153.88,-379 153.88,-379 153.88,-382 150.88,-385 147.88,-385 147.88,-385 139.88,-385 139.88,-385 136.88,-385 133.88,-382 133.88,-379 133.88,-379 133.88,-373 133.88,-373 133.88,-370 136.88,-367 139.88,-367"/>
<path fill="none" stroke="black" d="M139.88,-367C139.88,-367 147.88,-367 147.88,-367 150.88,-367 153.88,-370 153.88,-373 153.88,-373 153.88,-379 153.88,-379 153.88,-382 150.88,-385 147.88,-385 147.88,-385 139.88,-385 139.88,-385 136.88,-385 133.88,-382 133.88,-379 133.88,-379 133.88,-373 133.88,-373 133.88,-370 136.88,-367 139.88,-367"/>
<text xml:space="preserve" text-anchor="start" x="142.38" y="-372.25" font-family="Arial" font-size="10.00"> </text>
<text xml:space="preserve" text-anchor="start" x="157.88" y="-372.25" font-family="Arial" font-size="10.00">Attribute</text>
<path fill="#f5b8b8" stroke="none" d="M204.62,-367C204.62,-367 212.62,-367 212.62,-367 215.62,-367 218.62,-370 218.62,-373 218.62,-373 218.62,-379 218.62,-379 218.62,-382 215.62,-385 212.62,-385 212.62,-385 204.62,-385 204.62,-385 201.62,-385 198.62,-382 198.62,-379 198.62,-379 198.62,-373 198.62,-373 198.62,-370 201.62,-367 204.62,-367"/>
<path fill="none" stroke="black" d="M204.62,-367C204.62,-367 212.62,-367 212.62,-367 215.62,-367 218.62,-370 218.62,-373 218.62,-373 218.62,-379 218.62,-379 218.62,-382 215.62,-385 212.62,-385 212.62,-385 204.62,-385 204.62,-385 201.62,-385 198.62,-382 198.62,-379 198.62,-379 198.62,-373 198.62,-373 198.62,-370 201.62,-367 204.62,-367"/>
<text xml:space="preserve" text-anchor="start" x="207.12" y="-372.25" font-family="Arial" font-size="10.00"> </text>
<text xml:space="preserve" text-anchor="start" x="222.62" y="-372.25" font-family="Arial" font-size="10.00">Relationship</text>
<text xml:space="preserve" text-anchor="start" x="282.62" y="-373.5" font-family="Arial" font-weight="bold" font-size="10.00">(+)</text>
<text xml:space="preserve" text-anchor="start" x="294.62" y="-373.5" font-family="Arial" font-size="10.00"> increases complexity</text>
<text xml:space="preserve" text-anchor="start" x="395.88" y="-373.5" font-family="Arial" font-weight="bold" font-size="10.00">(−)</text>
<text xml:space="preserve" text-anchor="start" x="407.88" y="-373.5" font-family="Arial" font-size="10.00"> decreases complexity</text>
<!-- unknown.area_chart -->
<g id="node1" class="node">
<title>unknown.area_chart</title>
<path fill="#b8e6b8" stroke="#2c3e50" stroke-width="1.8" d="M325.25,-166C325.25,-166 289.75,-166 289.75,-166 283.75,-166 277.75,-160 277.75,-154 277.75,-154 277.75,-142 277.75,-142 277.75,-136 283.75,-130 289.75,-130 289.75,-130 325.25,-130 325.25,-130 331.25,-130 337.25,-136 337.25,-142 337.25,-142 337.25,-154 337.25,-154 337.25,-160 331.25,-166 325.25,-166"/>
<text xml:space="preserve" text-anchor="middle" x="307.5" y="-144.5" font-family="Arial" font-size="10.00" fill="#1a1a1a">area chart</text>
</g>
<!-- attr_0 -->
<g id="node6" class="node">
<title>attr_0</title>
<path fill="#c7b8e6" stroke="#7f8c8d" stroke-width="1.2" d="M474.25,-231C474.25,-231 394.5,-231 394.5,-231 388.5,-231 382.5,-225 382.5,-219 382.5,-219 382.5,-207 382.5,-207 382.5,-201 388.5,-195 394.5,-195 394.5,-195 474.25,-195 474.25,-195 480.25,-195 486.25,-201 486.25,-207 486.25,-207 486.25,-219 486.25,-219 486.25,-225 480.25,-231 474.25,-231"/>
<text xml:space="preserve" text-anchor="middle" x="434.38" y="-209.5" font-family="Arial" font-size="10.00" fill="#1a1a1a">(+) high visual detail</text>
</g>
<!-- unknown.area_chart&#45;&gt;attr_0 -->
<g id="edge1" class="edge">
<title>unknown.area_chart&#45;&gt;attr_0</title>
<path fill="none" stroke="#aaaaaa" d="M338.09,-163.4C353.74,-171.55 373.24,-181.7 390.52,-190.69"/>
<polygon fill="#aaaaaa" stroke="#aaaaaa" points="389.09,-192.71 396.43,-193.77 391.35,-188.36 389.09,-192.71"/>
</g>
<!-- attr_4 -->
<g id="node7" class="node">
<title>attr_4</title>
<path fill="#c7b8e6" stroke="#7f8c8d" stroke-width="1.2" d="M469.75,-166C469.75,-166 399,-166 399,-166 393,-166 387,-160 387,-154 387,-154 387,-142 387,-142 387,-136 393,-130 399,-130 399,-130 469.75,-130 469.75,-130 475.75,-130 481.75,-136 481.75,-142 481.75,-142 481.75,-154 481.75,-154 481.75,-160 475.75,-166 469.75,-166"/>
<text xml:space="preserve" text-anchor="middle" x="434.38" y="-144.5" font-family="Arial" font-size="10.00" fill="#1a1a1a">(+) difficult to read</text>
</g>
<!-- unknown.area_chart&#45;&gt;attr_4 -->
<g id="edge2" class="edge">
<title>unknown.area_chart&#45;&gt;attr_4</title>
<path fill="none" stroke="#aaaaaa" d="M338.09,-148C350.04,-148 364.23,-148 377.96,-148"/>
<polygon fill="#aaaaaa" stroke="#aaaaaa" points="377.91,-150.45 384.91,-148 377.91,-145.55 377.91,-150.45"/>
</g>
<!-- rel_3 -->
<g id="node14" class="node">
<title>rel_3</title>
<path fill="#f5b8b8" stroke="#d46a6a" stroke-width="1.2" d="M476.5,-101C476.5,-101 392.25,-101 392.25,-101 386.25,-101 380.25,-95 380.25,-89 380.25,-89 380.25,-77 380.25,-77 380.25,-71 386.25,-65 392.25,-65 392.25,-65 476.5,-65 476.5,-65 482.5,-65 488.5,-71 488.5,-77 488.5,-77 488.5,-89 488.5,-89 488.5,-95 482.5,-101 476.5,-101"/>
<text xml:space="preserve" text-anchor="middle" x="434.38" y="-79.5" font-family="Arial" font-size="10.00" fill="#8b0000">requires effort to read</text>
</g>
<!-- unknown.area_chart&#45;&gt;rel_3 -->
<g id="edge12" class="edge">
<title>unknown.area_chart&#45;&gt;rel_3</title>
<path fill="none" stroke="#d46a6a" stroke-width="1.5" d="M338.09,-132.6C353.19,-124.74 371.86,-115.02 388.66,-106.28"/>
<polygon fill="#d46a6a" stroke="#d46a6a" stroke-width="1.5" points="389.95,-108.76 395.75,-102.58 387.37,-103.79 389.95,-108.76"/>
</g>
<!-- unknown.data_figures -->
<g id="node2" class="node">
<title>unknown.data_figures</title>
<path fill="#b8e6b8" stroke="#2c3e50" stroke-width="1.8" d="M55,-328C55,-328 12,-328 12,-328 6,-328 0,-322 0,-316 0,-316 0,-304 0,-304 0,-298 6,-292 12,-292 12,-292 55,-292 55,-292 61,-292 67,-298 67,-304 67,-304 67,-316 67,-316 67,-322 61,-328 55,-328"/>
<text xml:space="preserve" text-anchor="middle" x="33.5" y="-306.5" font-family="Arial" font-size="10.00" fill="#1a1a1a">data figures</text>
</g>
<!-- attr_1 -->
<g id="node8" class="node">
<title>attr_1</title>
<path fill="#c7b8e6" stroke="#7f8c8d" stroke-width="1.2" d="M222.75,-361C222.75,-361 122,-361 122,-361 116,-361 110,-355 110,-349 110,-349 110,-337 110,-337 110,-331 116,-325 122,-325 122,-325 222.75,-325 222.75,-325 228.75,-325 234.75,-331 234.75,-337 234.75,-337 234.75,-349 234.75,-349 234.75,-355 228.75,-361 222.75,-361"/>
<text xml:space="preserve" text-anchor="middle" x="172.38" y="-339.5" font-family="Arial" font-size="10.00" fill="#1a1a1a">(+) numerous data points</text>
</g>
<!-- unknown.data_figures&#45;&gt;attr_1 -->
<g id="edge3" class="edge">
<title>unknown.data_figures&#45;&gt;attr_1</title>
<path fill="none" stroke="#aaaaaa" d="M67.63,-317.99C77.92,-320.47 89.67,-323.3 101.48,-326.15"/>
<polygon fill="#aaaaaa" stroke="#aaaaaa" points="100.79,-328.5 108.17,-327.76 101.94,-323.74 100.79,-328.5"/>
</g>
<!-- rel_0 -->
<g id="node11" class="node">
<title>rel_0</title>
<path fill="#f5b8b8" stroke="#d46a6a" stroke-width="1.2" d="M189.38,-296C189.38,-296 155.38,-296 155.38,-296 149.38,-296 143.38,-290 143.38,-284 143.38,-284 143.38,-272 143.38,-272 143.38,-266 149.38,-260 155.38,-260 155.38,-260 189.38,-260 189.38,-260 195.38,-260 201.38,-266 201.38,-272 201.38,-272 201.38,-284 201.38,-284 201.38,-290 195.38,-296 189.38,-296"/>
<text xml:space="preserve" text-anchor="middle" x="172.38" y="-274.5" font-family="Arial" font-size="10.00" fill="#8b0000">increases</text>
</g>
<!-- unknown.data_figures&#45;&gt;rel_0 -->
<g id="edge6" class="edge">
<title>unknown.data_figures&#45;&gt;rel_0</title>
<path fill="none" stroke="#d46a6a" stroke-width="1.5" d="M67.63,-302.25C87.49,-297.61 112.8,-291.69 133.45,-286.87"/>
<polygon fill="#d46a6a" stroke="#d46a6a" stroke-width="1.5" points="133.81,-289.66 140.96,-285.11 132.53,-284.21 133.81,-289.66"/>
</g>
<!-- text.annotation -->
<g id="node3" class="node">
<title>text.annotation</title>
<path fill="#b8e6b8" stroke="#2c3e50" stroke-width="1.8" d="M52,-199C52,-199 15,-199 15,-199 9,-199 3,-193 3,-187 3,-187 3,-175 3,-175 3,-169 9,-163 15,-163 15,-163 52,-163 52,-163 58,-163 64,-169 64,-175 64,-175 64,-187 64,-187 64,-193 58,-199 52,-199"/>
<text xml:space="preserve" text-anchor="middle" x="33.5" y="-177.5" font-family="Arial" font-size="10.00" fill="#1a1a1a">annotation</text>
</g>
<!-- attr_2 -->
<g id="node9" class="node">
<title>attr_2</title>
<path fill="#c7b8e6" stroke="#7f8c8d" stroke-width="1.2" d="M215.62,-231C215.62,-231 129.12,-231 129.12,-231 123.12,-231 117.12,-225 117.12,-219 117.12,-219 117.12,-207 117.12,-207 117.12,-201 123.12,-195 129.12,-195 129.12,-195 215.62,-195 215.62,-195 221.62,-195 227.62,-201 227.62,-207 227.62,-207 227.62,-219 227.62,-219 227.62,-225 221.62,-231 215.62,-231"/>
<text xml:space="preserve" text-anchor="middle" x="172.38" y="-209.5" font-family="Arial" font-size="10.00" fill="#1a1a1a">(+) dense annotations</text>
</g>
<!-- text.annotation&#45;&gt;attr_2 -->
<g id="edge4" class="edge">
<title>text.annotation&#45;&gt;attr_2</title>
<path fill="none" stroke="#aaaaaa" d="M64.88,-188.1C77.82,-191.13 93.43,-194.78 108.66,-198.34"/>
<polygon fill="#aaaaaa" stroke="#aaaaaa" points="107.72,-200.63 115.09,-199.84 108.84,-195.86 107.72,-200.63"/>
</g>
<!-- rel_1 -->
<g id="node12" class="node">
<title>rel_1</title>
<path fill="#f5b8b8" stroke="#d46a6a" stroke-width="1.2" d="M194.62,-166C194.62,-166 150.12,-166 150.12,-166 144.12,-166 138.12,-160 138.12,-154 138.12,-154 138.12,-142 138.12,-142 138.12,-136 144.12,-130 150.12,-130 150.12,-130 194.62,-130 194.62,-130 200.62,-130 206.62,-136 206.62,-142 206.62,-142 206.62,-154 206.62,-154 206.62,-160 200.62,-166 194.62,-166"/>
<text xml:space="preserve" text-anchor="middle" x="172.38" y="-144.5" font-family="Arial" font-size="10.00" fill="#8b0000">overwhelms</text>
</g>
<!-- text.annotation&#45;&gt;rel_1 -->
<g id="edge8" class="edge">
<title>text.annotation&#45;&gt;rel_1</title>
<path fill="none" stroke="#d46a6a" stroke-width="1.5" d="M64.88,-173.68C83.42,-169.21 107.43,-163.42 127.96,-158.47"/>
<polygon fill="#d46a6a" stroke="#d46a6a" stroke-width="1.5" points="128.39,-161.24 135.51,-156.65 127.08,-155.8 128.39,-161.24"/>
</g>
<!-- unknown.text_labels -->
<g id="node4" class="node">
<title>unknown.text_labels</title>
<path fill="#b8e6b8" stroke="#2c3e50" stroke-width="1.8" d="M52,-69C52,-69 15,-69 15,-69 9,-69 3,-63 3,-57 3,-57 3,-45 3,-45 3,-39 9,-33 15,-33 15,-33 52,-33 52,-33 58,-33 64,-39 64,-45 64,-45 64,-57 64,-57 64,-63 58,-69 52,-69"/>
<text xml:space="preserve" text-anchor="middle" x="33.5" y="-47.5" font-family="Arial" font-size="10.00" fill="#1a1a1a">text labels</text>
</g>
<!-- attr_3 -->
<g id="node10" class="node">
<title>attr_3</title>
<path fill="#c7b8e6" stroke="#7f8c8d" stroke-width="1.2" d="M211.88,-101C211.88,-101 132.88,-101 132.88,-101 126.88,-101 120.88,-95 120.88,-89 120.88,-89 120.88,-77 120.88,-77 120.88,-71 126.88,-65 132.88,-65 132.88,-65 211.88,-65 211.88,-65 217.88,-65 223.88,-71 223.88,-77 223.88,-77 223.88,-89 223.88,-89 223.88,-95 217.88,-101 211.88,-101"/>
<text xml:space="preserve" text-anchor="middle" x="172.38" y="-79.5" font-family="Arial" font-size="10.00" fill="#1a1a1a">(+) high text volume</text>
</g>
<!-- unknown.text_labels&#45;&gt;attr_3 -->
<g id="edge5" class="edge">
<title>unknown.text_labels&#45;&gt;attr_3</title>
<path fill="none" stroke="#aaaaaa" d="M64.88,-58.1C78.89,-61.38 96.02,-65.38 112.41,-69.21"/>
<polygon fill="#aaaaaa" stroke="#aaaaaa" points="111.53,-71.53 118.91,-70.73 112.65,-66.75 111.53,-71.53"/>
</g>
<!-- rel_2 -->
<g id="node13" class="node">
<title>rel_2</title>
<path fill="#f5b8b8" stroke="#d46a6a" stroke-width="1.2" d="M217.5,-36C217.5,-36 127.25,-36 127.25,-36 121.25,-36 115.25,-30 115.25,-24 115.25,-24 115.25,-12 115.25,-12 115.25,-6 121.25,0 127.25,0 127.25,0 217.5,0 217.5,0 223.5,0 229.5,-6 229.5,-12 229.5,-12 229.5,-24 229.5,-24 229.5,-30 223.5,-36 217.5,-36"/>
<text xml:space="preserve" text-anchor="middle" x="172.38" y="-14.5" font-family="Arial" font-size="10.00" fill="#8b0000">contributes to difficulty</text>
</g>
<!-- unknown.text_labels&#45;&gt;rel_2 -->
<g id="edge10" class="edge">
<title>unknown.text_labels&#45;&gt;rel_2</title>
<path fill="none" stroke="#d46a6a" stroke-width="1.5" d="M64.88,-43.68C76.84,-40.79 91.09,-37.36 105.2,-33.95"/>
<polygon fill="#d46a6a" stroke="#d46a6a" stroke-width="1.5" points="105.59,-36.74 112.71,-32.14 104.28,-31.3 105.59,-36.74"/>
</g>
<!-- furniture.legend -->
<g id="node5" class="node">
<title>furniture.legend</title>
<path fill="#b8e6b8" stroke="#2c3e50" stroke-width="1.8" d="M573.5,-101C573.5,-101 543.5,-101 543.5,-101 537.5,-101 531.5,-95 531.5,-89 531.5,-89 531.5,-77 531.5,-77 531.5,-71 537.5,-65 543.5,-65 543.5,-65 573.5,-65 573.5,-65 579.5,-65 585.5,-71 585.5,-77 585.5,-77 585.5,-89 585.5,-89 585.5,-95 579.5,-101 573.5,-101"/>
<text xml:space="preserve" text-anchor="middle" x="558.5" y="-79.5" font-family="Arial" font-size="10.00" fill="#1a1a1a">legend</text>
</g>
<!-- rel_0&#45;&gt;unknown.area_chart -->
<g id="edge7" class="edge">
<title>rel_0&#45;&gt;unknown.area_chart</title>
<path fill="none" stroke="#d46a6a" stroke-width="1.5" d="M201.94,-266.46C212.9,-261.21 225.09,-254.3 234.75,-246 258.26,-225.8 278.43,-196.49 291.34,-175.18"/>
<polygon fill="#d46a6a" stroke="#d46a6a" stroke-width="1.5" points="293.6,-176.86 295.26,-168.55 288.78,-174.01 293.6,-176.86"/>
</g>
<!-- rel_1&#45;&gt;unknown.area_chart -->
<g id="edge9" class="edge">
<title>rel_1&#45;&gt;unknown.area_chart</title>
<path fill="none" stroke="#d46a6a" stroke-width="1.5" d="M206.97,-148C225.17,-148 247.76,-148 266.82,-148"/>
<polygon fill="#d46a6a" stroke="#d46a6a" stroke-width="1.5" points="266.73,-150.8 274.73,-148 266.73,-145.2 266.73,-150.8"/>
</g>
<!-- rel_2&#45;&gt;unknown.area_chart -->
<g id="edge11" class="edge">
<title>rel_2&#45;&gt;unknown.area_chart</title>
<path fill="none" stroke="#d46a6a" stroke-width="1.5" d="M214,-36.54C221.29,-40.76 228.53,-45.62 234.75,-51 257.79,-70.95 277.81,-99.55 290.81,-120.52"/>
<polygon fill="#d46a6a" stroke="#d46a6a" stroke-width="1.5" points="288.39,-121.94 294.93,-127.34 293.19,-119.05 288.39,-121.94"/>
</g>
<!-- rel_3&#45;&gt;furniture.legend -->
<g id="edge13" class="edge">
<title>rel_3&#45;&gt;furniture.legend</title>
<path fill="none" stroke="#d46a6a" stroke-width="1.5" d="M488.94,-83C499.69,-83 510.76,-83 520.77,-83"/>
<polygon fill="#d46a6a" stroke="#d46a6a" stroke-width="1.5" points="520.51,-85.8 528.51,-83 520.51,-80.2 520.51,-85.8"/>
</g>
</g>
</svg>
